<?xml version="1.0" encoding="UTF-8" standalone="no"?>
<!DOCTYPE svg PUBLIC "-//W3C//DTD SVG 1.1//EN"
 "http://www.w3.org/Graphics/SVG/1.1/DTD/svg11.dtd">
<!-- Generated by graphviz version 2.43.0 (0)
 -->
<!-- Title: drivers/resolver/ad2s1210/ad2s1210.h Pages: 1 -->
<svg width="274pt" height="148pt"
 viewBox="0.00 0.00 273.60 148.00" xmlns="http://www.w3.org/2000/svg" xmlns:xlink="http://www.w3.org/1999/xlink">

<svg id="main" version="1.1" xmlns="http://www.w3.org/2000/svg" xmlns:xlink="http://www.w3.org/1999/xlink" xml:space="preserve">

<style type="text/css"><![CDATA[
.node, .edge {opacity: 0.7;}
.node.selected, .edge.selected {opacity: 1;}
.edge:hover path { stroke: red; }
.edge:hover polygon { stroke: red; fill: red; }
]]></style>
<script type="application/ecmascript" xlink:href="svg.min.js"/>
<svg id="graph" class="graph">
<g id="graph0" class="graph" transform="scale(1 1) rotate(0) translate(4 144)">
<title>drivers/resolver/ad2s1210/ad2s1210.h</title>
<!-- Node1 -->
<g id="Node000001" class="node">
<title>Node1</title>
<g id="a_Node000001"><a xlink:title="Header file for the ad2s1210 driver.">
<polygon fill="#999999" stroke="#666666" points="159.1,-140 16.1,-140 16.1,-110 159.1,-110 159.1,-140"/>
<text text-anchor="start" x="24.1" y="-128" font-family="Helvetica,sans-Serif" font-size="10.00">drivers/resolver/ad2s1210</text>
<text text-anchor="middle" x="87.6" y="-117" font-family="Helvetica,sans-Serif" font-size="10.00">/ad2s1210.h</text>
</a>
</g>
</g>
<!-- Node2 -->
<g id="Node000002" class="node">
<title>Node2</title>
<g id="a_Node000002"><a xlink:title=" ">
<polygon fill="#e0e0e0" stroke="#999999" points="157.1,-19 104.1,-19 104.1,0 157.1,0 157.1,-19"/>
<text text-anchor="middle" x="130.6" y="-7" font-family="Helvetica,sans-Serif" font-size="10.00">stdint.h</text>
</a>
</g>
</g>
<!-- Node1&#45;&gt;Node2 -->
<g id="edge1_Node000001_Node000002" class="edge">
<title>Node1&#45;&gt;Node2</title>
<g id="a_edge1_Node000001_Node000002"><a xlink:title=" ">
<path fill="none" stroke="#63b8ff" d="M48.06,-109.99C19.44,-97.56 -11.58,-77.87 4.6,-55 24.67,-26.62 64.41,-16.22 93.92,-12.47"/>
<polygon fill="#63b8ff" stroke="#63b8ff" points="94.31,-15.95 103.88,-11.4 93.56,-8.99 94.31,-15.95"/>
</a>
</g>
</g>
<!-- Node3 -->
<g id="Node000003" class="node">
<title>Node3</title>
<g id="a_Node000003"><a xlink:title=" ">
<polygon fill="#e0e0e0" stroke="#999999" points="75.6,-74 13.6,-74 13.6,-55 75.6,-55 75.6,-74"/>
<text text-anchor="middle" x="44.6" y="-62" font-family="Helvetica,sans-Serif" font-size="10.00">stdbool.h</text>
</a>
</g>
</g>
<!-- Node1&#45;&gt;Node3 -->
<g id="edge2_Node000001_Node000003" class="edge">
<title>Node1&#45;&gt;Node3</title>
<g id="a_edge2_Node000001_Node000003"><a xlink:title=" ">
<path fill="none" stroke="#63b8ff" d="M77.19,-109.84C71.14,-101.61 63.47,-91.18 57.1,-82.51"/>
<polygon fill="#63b8ff" stroke="#63b8ff" points="59.78,-80.25 51.04,-74.27 54.14,-84.4 59.78,-80.25"/>
</a>
</g>
</g>
<!-- Node4 -->
<g id="Node000004" class="node">
<title>Node4</title>
<g id="a_Node000004"><a xlink:href="no__os__spi_8h.html" target="_top" xlink:title="Header file of SPI Interface.">
<polygon fill="white" stroke="#666666" points="167.6,-74 93.6,-74 93.6,-55 167.6,-55 167.6,-74"/>
<text text-anchor="middle" x="130.6" y="-62" font-family="Helvetica,sans-Serif" font-size="10.00">no_os_spi.h</text>
</a>
</g>
</g>
<!-- Node1&#45;&gt;Node4 -->
<g id="edge3_Node000001_Node000004" class="edge">
<title>Node1&#45;&gt;Node4</title>
<g id="a_edge3_Node000001_Node000004"><a xlink:title=" ">
<path fill="none" stroke="#63b8ff" d="M98.01,-109.84C104.06,-101.61 111.72,-91.18 118.1,-82.51"/>
<polygon fill="#63b8ff" stroke="#63b8ff" points="121.05,-84.4 124.16,-74.27 115.41,-80.25 121.05,-84.4"/>
</a>
</g>
</g>
<!-- Node5 -->
<g id="Node000005" class="node">
<title>Node5</title>
<g id="a_Node000005"><a xlink:href="no__os__gpio_8h.html" target="_top" xlink:title="Header file of GPIO Interface.">
<polygon fill="white" stroke="#666666" points="265.6,-74 185.6,-74 185.6,-55 265.6,-55 265.6,-74"/>
<text text-anchor="middle" x="225.6" y="-62" font-family="Helvetica,sans-Serif" font-size="10.00">no_os_gpio.h</text>
</a>
</g>
</g>
<!-- Node1&#45;&gt;Node5 -->
<g id="edge5_Node000001_Node000005" class="edge">
<title>Node1&#45;&gt;Node5</title>
<g id="a_edge5_Node000001_Node000005"><a xlink:title=" ">
<path fill="none" stroke="#63b8ff" d="M120.65,-109.99C143.57,-100.27 173.84,-87.44 195.98,-78.06"/>
<polygon fill="#63b8ff" stroke="#63b8ff" points="197.38,-81.26 205.22,-74.14 194.65,-74.82 197.38,-81.26"/>
</a>
</g>
</g>
<!-- Node4&#45;&gt;Node2 -->
<g id="edge4_Node000004_Node000002" class="edge">
<title>Node4&#45;&gt;Node2</title>
<g id="a_edge4_Node000004_Node000002"><a xlink:title=" ">
<path fill="none" stroke="#63b8ff" d="M130.6,-54.75C130.6,-47.8 130.6,-37.85 130.6,-29.13"/>
<polygon fill="#63b8ff" stroke="#63b8ff" points="134.1,-29.09 130.6,-19.09 127.1,-29.09 134.1,-29.09"/>
</a>
</g>
</g>
<!-- Node5&#45;&gt;Node2 -->
<g id="edge6_Node000005_Node000002" class="edge">
<title>Node5&#45;&gt;Node2</title>
<g id="a_edge6_Node000005_Node000002"><a xlink:title=" ">
<path fill="none" stroke="#63b8ff" d="M210.34,-54.98C195.47,-46.69 172.62,-33.94 155.18,-24.22"/>
<polygon fill="#63b8ff" stroke="#63b8ff" points="156.58,-20.99 146.14,-19.17 153.17,-27.1 156.58,-20.99"/>
</a>
</g>
</g>
</g>
</svg>
</svg>

<style type='text/css'>
<![CDATA[
[data-mouse-over-selected='false'] { opacity: 0.7; }
[data-mouse-over-selected='true']  { opacity: 1.0; }
]]>
</style>
<script type="application/ecmascript"><![CDATA[
document.addEventListener('DOMContentLoaded', (event) => {
  highlightEdges();
  highlightAdjacentNodes();
});
]]></script>
</svg>
