<?xml version="1.0" encoding="UTF-8" standalone="no"?>
<!DOCTYPE svg PUBLIC "-//W3C//DTD SVG 1.1//EN"
 "http://www.w3.org/Graphics/SVG/1.1/DTD/svg11.dtd">
<!-- Generated by graphviz version 2.43.0 (0)
 -->
<!-- Title: ad4080_update_bits Pages: 1 -->
<!--zoomable 827 -->

<svg id="main" version="1.1" xmlns="http://www.w3.org/2000/svg" xmlns:xlink="http://www.w3.org/1999/xlink" xml:space="preserve" onload="init(evt)">

<style type="text/css"><![CDATA[
.node, .edge {opacity: 0.7;}
.node.selected, .edge.selected {opacity: 1;}
.edge:hover path { stroke: red; }
.edge:hover polygon { stroke: red; fill: red; }
]]></style>

<defs>
  <circle id="rim" cx="0" cy="0" r="7"/>
  <circle id="rim2" cx="0" cy="0" r="3.5"/>
  <g id="zoomPlus">
    <use xlink:href="#rim" fill="#404040"><set attributeName="fill" to="#808080" begin="zoomplus.mouseover" end="zoomplus.mouseout"/></use>
    <path d="M-4,0h8M0,-4v8" fill="none" stroke="white" stroke-width="1.5" pointer-events="none"/>
  </g>
  <g id="zoomMin">
    <use xlink:href="#rim" fill="#404040"><set attributeName="fill" to="#808080" begin="zoomminus.mouseover" end="zoomminus.mouseout"/></use>
    <path d="M-4,0h8" fill="none" stroke="white" stroke-width="1.5" pointer-events="none"/>
  </g>
  <g id="arrowUp" transform="translate(30 24)">
    <use xlink:href="#rim"/>
    <path pointer-events="none" fill="none" stroke="white" stroke-width="1.5" d="M0,-3.0v7 M-2.5,-0.5L0,-3.0L2.5,-0.5"/>
  </g>
  <g id="arrowRight" transform="rotate(90) translate(36 -43)">
    <use xlink:href="#rim"/>
    <path pointer-events="none" fill="none" stroke="white" stroke-width="1.5" d="M0,-3.0v7 M-2.5,-0.5L0,-3.0L2.5,-0.5"/>
  </g>
  <g id="arrowDown" transform="rotate(180) translate(-30 -48)">
    <use xlink:href="#rim"/>
    <path pointer-events="none" fill="none" stroke="white" stroke-width="1.5" d="M0,-3.0v7 M-2.5,-0.5L0,-3.0L2.5,-0.5"/>
  </g>
  <g id="arrowLeft" transform="rotate(270) translate(-36 17)">
    <use xlink:href="#rim"/>
    <path pointer-events="none" fill="none" stroke="white" stroke-width="1.5" d="M0,-3.0v7 M-2.5,-0.5L0,-3.0L2.5,-0.5"/>
  </g>
  <g id="resetDef">
    <use xlink:href="#rim2" fill="#404040"><set attributeName="fill" to="#808080" begin="reset.mouseover" end="reset.mouseout"/></use>
  </g>
</defs>
<script type="application/ecmascript">
var viewWidth = 897;
var viewHeight = 827;
var sectionId = 'dynsection-20';
</script>
<script type="application/ecmascript" xlink:href="svg.min.js"/>
<svg id="graph" class="graph">
<g id="viewport">
<title>ad4080_update_bits</title>
<!-- Node1 -->
<g id="Node000001" class="node">
<title>Node1</title>
<g id="a_Node000001"><a xlink:title="Update specific register bits.">
<polygon fill="#999999" stroke="#666666" points="889,-431.03 774,-431.03 774,-412.03 889,-412.03 889,-431.03"/>
<text text-anchor="middle" x="831.5" y="-419.03" font-family="Helvetica,sans-Serif" font-size="10.00">ad4080_update_bits</text>
</a>
</g>
</g>
<!-- Node2 -->
<g id="Node000002" class="node">
<title>Node2</title>
<g id="a_Node000002"><a xlink:href="ad4080_8c.html#a75b02dc11cc8f858cddcf554c24d9762" target="_top" xlink:title="Set the GPIO data.">
<polygon fill="white" stroke="#666666" points="725,-819.03 589,-819.03 589,-800.03 725,-800.03 725,-819.03"/>
<text text-anchor="middle" x="657" y="-807.03" font-family="Helvetica,sans-Serif" font-size="10.00">ad4080_gpio_write_data</text>
</a>
</g>
</g>
<!-- Node1&#45;&gt;Node2 -->
<g id="edge1_Node000001_Node000002" class="edge">
<title>Node1&#45;&gt;Node2</title>
<g id="a_edge1_Node000001_Node000002"><a xlink:title=" ">
<path fill="none" stroke="#63b8ff" d="M828.28,-441.25C820.1,-510.54 789.38,-741.35 738,-791.53 734.23,-795.21 729.88,-798.2 725.2,-800.63"/>
<polygon fill="#63b8ff" stroke="#63b8ff" points="831.77,-441.58 829.44,-431.24 824.82,-440.77 831.77,-441.58"/>
</a>
</g>
</g>
<!-- Node3 -->
<g id="Node000003" class="node">
<title>Node3</title>
<g id="a_Node000003"><a xlink:href="ad4080_8c.html#a6be625eab0c78d752ef062135f8fd836" target="_top" xlink:title="Initialize the device.">
<polygon fill="white" stroke="#666666" points="362.5,-282.03 288.5,-282.03 288.5,-263.03 362.5,-263.03 362.5,-282.03"/>
<text text-anchor="middle" x="325.5" y="-270.03" font-family="Helvetica,sans-Serif" font-size="10.00">ad4080_init</text>
</a>
</g>
</g>
<!-- Node1&#45;&gt;Node3 -->
<g id="edge2_Node000001_Node000003" class="edge">
<title>Node1&#45;&gt;Node3</title>
<g id="a_edge2_Node000001_Node000003"><a xlink:title=" ">
<path fill="none" stroke="#63b8ff" d="M799.84,-407.92C782.02,-400.35 759.02,-391.16 738,-384.53 667.47,-362.29 647.48,-365.5 576,-346.53 496.3,-325.38 403.44,-296.78 356.68,-282.1"/>
<polygon fill="#63b8ff" stroke="#63b8ff" points="798.58,-411.19 809.15,-411.93 801.35,-404.76 798.58,-411.19"/>
</a>
</g>
</g>
<!-- Node6 -->
<g id="Node000006" class="node">
<title>Node6</title>
<g id="a_Node000006"><a xlink:href="ad4080_8c.html#a6a704e6558f7114804d76e0ddf0085b2" target="_top" xlink:title="Set Address Ascension.">
<polygon fill="white" stroke="#666666" points="718,-745.03 596,-745.03 596,-726.03 718,-726.03 718,-745.03"/>
<text text-anchor="middle" x="657" y="-733.03" font-family="Helvetica,sans-Serif" font-size="10.00">ad4080_set_addr_asc</text>
</a>
</g>
</g>
<!-- Node1&#45;&gt;Node6 -->
<g id="edge5_Node000001_Node000006" class="edge">
<title>Node1&#45;&gt;Node6</title>
<g id="a_edge5_Node000001_Node000006"><a xlink:title=" ">
<path fill="none" stroke="#63b8ff" d="M830.57,-441.27C829.63,-494.25 819.4,-640.68 738,-716.53 732.36,-721.78 725.54,-725.67 718.29,-728.52"/>
<polygon fill="#63b8ff" stroke="#63b8ff" points="834.07,-441.21 830.65,-431.18 827.07,-441.15 834.07,-441.21"/>
</a>
</g>
</g>
<!-- Node7 -->
<g id="Node000007" class="node">
<title>Node7</title>
<g id="a_Node000007"><a xlink:href="ad4080_8c.html#a964bdf51c7d6d7763ceee3389d063b65" target="_top" xlink:title="Set AD4080 Analog/Digital LDO.">
<polygon fill="white" stroke="#666666" points="715,-707.53 599,-707.53 599,-677.53 715,-677.53 715,-707.53"/>
<text text-anchor="start" x="607" y="-695.53" font-family="Helvetica,sans-Serif" font-size="10.00">ad4080_set_ana_dig</text>
<text text-anchor="middle" x="657" y="-684.53" font-family="Helvetica,sans-Serif" font-size="10.00">_ldo_pd</text>
</a>
</g>
</g>
<!-- Node1&#45;&gt;Node7 -->
<g id="edge6_Node000001_Node000007" class="edge">
<title>Node1&#45;&gt;Node7</title>
<g id="a_edge6_Node000001_Node000007"><a xlink:title=" ">
<path fill="none" stroke="#63b8ff" d="M828.93,-441.21C824.15,-487.72 805.66,-605.25 738,-668.53 731.54,-674.57 723.62,-679.1 715.29,-682.48"/>
<polygon fill="#63b8ff" stroke="#63b8ff" points="832.42,-441.5 829.85,-431.22 825.45,-440.86 832.42,-441.5"/>
</a>
</g>
</g>
<!-- Node8 -->
<g id="Node000008" class="node">
<title>Node8</title>
<g id="a_Node000008"><a xlink:href="ad4080_8c.html#afd5b47c0c4bc60a62a10c73124642cc1" target="_top" xlink:title="Set AD4080 LVDS/SPI Lane Control.">
<polygon fill="white" stroke="#666666" points="714.5,-337.53 599.5,-337.53 599.5,-307.53 714.5,-307.53 714.5,-337.53"/>
<text text-anchor="start" x="607.5" y="-325.53" font-family="Helvetica,sans-Serif" font-size="10.00">ad4080_set_cnv_spi</text>
<text text-anchor="middle" x="657" y="-314.53" font-family="Helvetica,sans-Serif" font-size="10.00">_lvds_lanes</text>
</a>
</g>
</g>
<!-- Node1&#45;&gt;Node8 -->
<g id="edge7_Node000001_Node000008" class="edge">
<title>Node1&#45;&gt;Node8</title>
<g id="a_edge7_Node000001_Node000008"><a xlink:title=" ">
<path fill="none" stroke="#63b8ff" d="M812.25,-405.07C794.37,-389.61 765.83,-366.65 738,-351.53 728.26,-346.24 717.37,-341.56 706.82,-337.59"/>
<polygon fill="#63b8ff" stroke="#63b8ff" points="810.3,-408.02 820.12,-411.99 814.93,-402.76 810.3,-408.02"/>
</a>
</g>
</g>
<!-- Node10 -->
<g id="Node000010" class="node">
<title>Node10</title>
<g id="a_Node000010"><a xlink:href="ad4080_8c.html#ab11b11ff63aa576788f723392cacfe0b" target="_top" xlink:title="Set AD4080 Data Interface Configuration.">
<polygon fill="white" stroke="#666666" points="721,-289.53 593,-289.53 593,-259.53 721,-259.53 721,-289.53"/>
<text text-anchor="start" x="601" y="-277.53" font-family="Helvetica,sans-Serif" font-size="10.00">ad4080_set_conv_data</text>
<text text-anchor="middle" x="657" y="-266.53" font-family="Helvetica,sans-Serif" font-size="10.00">_spi_lvds</text>
</a>
</g>
</g>
<!-- Node1&#45;&gt;Node10 -->
<g id="edge10_Node000001_Node000010" class="edge">
<title>Node1&#45;&gt;Node10</title>
<g id="a_edge10_Node000001_Node000010"><a xlink:title=" ">
<path fill="none" stroke="#63b8ff" d="M821.32,-402.72C807.16,-375.67 777.46,-326.03 738,-298.53 732.88,-294.96 727.23,-291.92 721.36,-289.32"/>
<polygon fill="#63b8ff" stroke="#63b8ff" points="818.32,-404.55 825.97,-411.88 824.56,-401.38 818.32,-404.55"/>
</a>
</g>
</g>
<!-- Node11 -->
<g id="Node000011" class="node">
<title>Node11</title>
<g id="a_Node000011"><a xlink:href="ad4080_8c.html#a646c430d79d7ef53fc6354d93524b2be" target="_top" xlink:title="Set AD4080 Conversion Data FIFO Mode.">
<polygon fill="white" stroke="#666666" points="720.5,-60.03 593.5,-60.03 593.5,-41.03 720.5,-41.03 720.5,-60.03"/>
<text text-anchor="middle" x="657" y="-48.03" font-family="Helvetica,sans-Serif" font-size="10.00">ad4080_set_fifo_mode</text>
</a>
</g>
</g>
<!-- Node1&#45;&gt;Node11 -->
<g id="edge12_Node000001_Node000011" class="edge">
<title>Node1&#45;&gt;Node11</title>
<g id="a_edge12_Node000001_Node000011"><a xlink:title=" ">
<path fill="none" stroke="#63b8ff" d="M828.04,-401.85C819.23,-334.7 787.22,-116.06 738,-68.53 733.08,-63.78 727.2,-60.18 720.88,-57.47"/>
<polygon fill="#63b8ff" stroke="#63b8ff" points="824.58,-402.45 829.33,-411.92 831.53,-401.56 824.58,-402.45"/>
</a>
</g>
</g>
<!-- Node15 -->
<g id="Node000015" class="node">
<title>Node15</title>
<g id="a_Node000015"><a xlink:href="ad4080_8c.html#af4bfb5399bb98cc451b7e887140eb665" target="_top" xlink:title="Configure GPIO as input or output.">
<polygon fill="white" stroke="#666666" points="725,-535.53 589,-535.53 589,-505.53 725,-505.53 725,-535.53"/>
<text text-anchor="start" x="597" y="-523.53" font-family="Helvetica,sans-Serif" font-size="10.00">ad4080_set_gpio_output</text>
<text text-anchor="middle" x="657" y="-512.53" font-family="Helvetica,sans-Serif" font-size="10.00">_enable</text>
</a>
</g>
</g>
<!-- Node1&#45;&gt;Node15 -->
<g id="edge20_Node000001_Node000015" class="edge">
<title>Node1&#45;&gt;Node15</title>
<g id="a_edge20_Node000001_Node000015"><a xlink:title=" ">
<path fill="none" stroke="#63b8ff" d="M813.99,-438.33C796.53,-455.22 767.48,-480.94 738,-496.53 731.59,-499.92 724.63,-502.9 717.59,-505.5"/>
<polygon fill="#63b8ff" stroke="#63b8ff" points="816.5,-440.77 821.16,-431.25 811.58,-435.79 816.5,-440.77"/>
</a>
</g>
</g>
<!-- Node16 -->
<g id="Node000016" class="node">
<title>Node16</title>
<g id="a_Node000016"><a xlink:href="ad4080_8c.html#a5ad7e17ffb3c84798ec12a10fcd803fa" target="_top" xlink:title="Configure the GPIO output for a specific function.">
<polygon fill="white" stroke="#666666" points="738,-487.03 576,-487.03 576,-468.03 738,-468.03 738,-487.03"/>
<text text-anchor="middle" x="657" y="-475.03" font-family="Helvetica,sans-Serif" font-size="10.00">ad4080_set_gpio_output_func</text>
</a>
</g>
</g>
<!-- Node1&#45;&gt;Node16 -->
<g id="edge21_Node000001_Node000016" class="edge">
<title>Node1&#45;&gt;Node16</title>
<g id="a_edge21_Node000001_Node000016"><a xlink:title=" ">
<path fill="none" stroke="#63b8ff" d="M800.6,-435.32C782.71,-443.18 759.37,-452.79 738,-459.53 727.95,-462.7 717.03,-465.54 706.58,-467.98"/>
<polygon fill="#63b8ff" stroke="#63b8ff" points="802.22,-438.42 809.93,-431.15 799.37,-432.03 802.22,-438.42"/>
</a>
</g>
</g>
<!-- Node17 -->
<g id="Node000017" class="node">
<title>Node17</title>
<g id="a_Node000017"><a xlink:href="ad4080_8c.html#a9f54799720b940bf32d79f1401d36f74" target="_top" xlink:title="Set AD4080 Output Pattern.">
<polygon fill="white" stroke="#666666" points="724,-450.03 590,-450.03 590,-431.03 724,-431.03 724,-450.03"/>
<text text-anchor="middle" x="657" y="-438.03" font-family="Helvetica,sans-Serif" font-size="10.00">ad4080_set_intf_chk_en</text>
</a>
</g>
</g>
<!-- Node1&#45;&gt;Node17 -->
<g id="edge22_Node000001_Node000017" class="edge">
<title>Node1&#45;&gt;Node17</title>
<g id="a_edge22_Node000001_Node000017"><a xlink:title=" ">
<path fill="none" stroke="#63b8ff" d="M763.37,-428.92C750.49,-430.34 737.02,-431.83 724.17,-433.24"/>
<polygon fill="#63b8ff" stroke="#63b8ff" points="763.98,-432.38 773.54,-427.8 763.22,-425.42 763.98,-432.38"/>
</a>
</g>
</g>
<!-- Node18 -->
<g id="Node000018" class="node">
<title>Node18</title>
<g id="a_Node000018"><a xlink:href="ad4080_8c.html#a63069a89cf413fcca6318d1f8348f551" target="_top" xlink:title="Set AD4080 Interface LDO.">
<polygon fill="white" stroke="#666666" points="723,-413.03 591,-413.03 591,-394.03 723,-394.03 723,-413.03"/>
<text text-anchor="middle" x="657" y="-401.03" font-family="Helvetica,sans-Serif" font-size="10.00">ad4080_set_intf_ldo_pd</text>
</a>
</g>
</g>
<!-- Node1&#45;&gt;Node18 -->
<g id="edge23_Node000001_Node000018" class="edge">
<title>Node1&#45;&gt;Node18</title>
<g id="a_edge23_Node000001_Node000018"><a xlink:title=" ">
<path fill="none" stroke="#63b8ff" d="M763.56,-414.54C750.32,-413.16 736.45,-411.72 723.26,-410.34"/>
<polygon fill="#63b8ff" stroke="#63b8ff" points="763.23,-418.03 773.54,-415.59 763.96,-411.07 763.23,-418.03"/>
</a>
</g>
</g>
<!-- Node19 -->
<g id="Node000019" class="node">
<title>Node19</title>
<g id="a_Node000019"><a xlink:href="ad4080_8c.html#a6f3da0885a402914fbf6782651dd5164" target="_top" xlink:title="Set AD4080 Interface clock periods from CNV rising edge.">
<polygon fill="white" stroke="#666666" points="717.5,-241.53 596.5,-241.53 596.5,-211.53 717.5,-211.53 717.5,-241.53"/>
<text text-anchor="start" x="604.5" y="-229.53" font-family="Helvetica,sans-Serif" font-size="10.00">ad4080_set_lvds_cnv</text>
<text text-anchor="middle" x="657" y="-218.53" font-family="Helvetica,sans-Serif" font-size="10.00">_clk_cnt</text>
</a>
</g>
</g>
<!-- Node1&#45;&gt;Node19 -->
<g id="edge24_Node000001_Node000019" class="edge">
<title>Node1&#45;&gt;Node19</title>
<g id="a_edge24_Node000001_Node000019"><a xlink:title=" ">
<path fill="none" stroke="#63b8ff" d="M825.34,-402.05C814.94,-366.56 788.06,-291.27 738,-250.53 732.04,-245.68 725.12,-241.81 717.89,-238.72"/>
<polygon fill="#63b8ff" stroke="#63b8ff" points="821.98,-403.02 828.05,-411.7 828.72,-401.13 821.98,-403.02"/>
</a>
</g>
</g>
<!-- Node20 -->
<g id="Node000020" class="node">
<title>Node20</title>
<g id="a_Node000020"><a xlink:href="ad4080_8c.html#a98a6de8443361651e56698a384465145" target="_top" xlink:title="Set AD4080 LVDS CNV Clock Mode.">
<polygon fill="white" stroke="#666666" points="717.5,-193.53 596.5,-193.53 596.5,-163.53 717.5,-163.53 717.5,-193.53"/>
<text text-anchor="start" x="604.5" y="-181.53" font-family="Helvetica,sans-Serif" font-size="10.00">ad4080_set_lvds_cnv</text>
<text text-anchor="middle" x="657" y="-170.53" font-family="Helvetica,sans-Serif" font-size="10.00">_clk_mode</text>
</a>
</g>
</g>
<!-- Node1&#45;&gt;Node20 -->
<g id="edge26_Node000001_Node000020" class="edge">
<title>Node1&#45;&gt;Node20</title>
<g id="a_edge26_Node000001_Node000020"><a xlink:title=" ">
<path fill="none" stroke="#63b8ff" d="M827.9,-402.08C821.16,-359.49 799.19,-257.44 738,-202.53 732.06,-197.2 724.99,-193.06 717.53,-189.83"/>
<polygon fill="#63b8ff" stroke="#63b8ff" points="824.44,-402.61 829.36,-411.99 831.36,-401.59 824.44,-402.61"/>
</a>
</g>
</g>
<!-- Node21 -->
<g id="Node000021" class="node">
<title>Node21</title>
<g id="a_Node000021"><a xlink:href="ad4080_8c.html#a6d7b938c83287bcdd4dca06ca3a6a21b" target="_top" xlink:title="Set AD4080 LVDS Self Clock Mode.">
<polygon fill="white" stroke="#666666" points="718,-145.53 596,-145.53 596,-115.53 718,-115.53 718,-145.53"/>
<text text-anchor="start" x="604" y="-133.53" font-family="Helvetica,sans-Serif" font-size="10.00">ad4080_set_lvds_self</text>
<text text-anchor="middle" x="657" y="-122.53" font-family="Helvetica,sans-Serif" font-size="10.00">_clk_mode</text>
</a>
</g>
</g>
<!-- Node1&#45;&gt;Node21 -->
<g id="edge28_Node000001_Node000021" class="edge">
<title>Node1&#45;&gt;Node21</title>
<g id="a_edge28_Node000001_Node000021"><a xlink:title=" ">
<path fill="none" stroke="#63b8ff" d="M829.55,-401.63C826.11,-352.38 810.28,-223.84 738,-154.53 732.35,-149.11 725.52,-144.91 718.27,-141.65"/>
<polygon fill="#63b8ff" stroke="#63b8ff" points="826.07,-402.1 830.16,-411.87 833.06,-401.68 826.07,-402.1"/>
</a>
</g>
</g>
<!-- Node22 -->
<g id="Node000022" class="node">
<title>Node22</title>
<g id="a_Node000022"><a xlink:href="ad4080_8c.html#a085cb9017c2ccd27624d05a35b9de27d" target="_top" xlink:title="Set AD4080 LVDS Differential Output Voltage.">
<polygon fill="white" stroke="#666666" points="718,-97.03 596,-97.03 596,-78.03 718,-78.03 718,-97.03"/>
<text text-anchor="middle" x="657" y="-85.03" font-family="Helvetica,sans-Serif" font-size="10.00">ad4080_set_lvds_vod</text>
</a>
</g>
</g>
<!-- Node1&#45;&gt;Node22 -->
<g id="edge30_Node000001_Node000022" class="edge">
<title>Node1&#45;&gt;Node22</title>
<g id="a_edge30_Node000001_Node000022"><a xlink:title=" ">
<path fill="none" stroke="#63b8ff" d="M831.03,-401.59C831.36,-346.07 824.27,-188.39 738,-106.53 732.41,-101.22 725.62,-97.31 718.38,-94.44"/>
<polygon fill="#63b8ff" stroke="#63b8ff" points="827.53,-401.77 830.87,-411.83 834.53,-401.88 827.53,-401.77"/>
</a>
</g>
</g>
<!-- Node23 -->
<g id="Node000023" class="node">
<title>Node23</title>
<g id="a_Node000023"><a xlink:href="ad4080_8c.html#a1be5d09077b0e9f052586e6c34493617" target="_top" xlink:title="Set Operation Mode.">
<polygon fill="white" stroke="#666666" points="540,-151.03 417,-151.03 417,-132.03 540,-132.03 540,-151.03"/>
<text text-anchor="middle" x="478.5" y="-139.03" font-family="Helvetica,sans-Serif" font-size="10.00">ad4080_set_op_mode</text>
</a>
</g>
</g>
<!-- Node1&#45;&gt;Node23 -->
<g id="edge32_Node000001_Node000023" class="edge">
<title>Node1&#45;&gt;Node23</title>
<g id="a_edge32_Node000001_Node000023"><a xlink:title=" ">
<path fill="none" stroke="#63b8ff" d="M828.95,-401.73C822.82,-329.04 797.59,-78.64 738,-31.53 681.52,13.12 636.55,7.42 576,-31.53 543.55,-52.4 566.65,-82.63 540,-110.53 531.03,-119.92 518.6,-126.96 507.34,-131.94"/>
<polygon fill="#63b8ff" stroke="#63b8ff" points="825.47,-402.13 829.77,-411.81 832.45,-401.56 825.47,-402.13"/>
</a>
</g>
</g>
<!-- Node24 -->
<g id="Node000024" class="node">
<title>Node24</title>
<g id="a_Node000024"><a xlink:href="ad4080_8c.html#a62b9dac8804057cc877d94656738a144" target="_top" xlink:title="Set Short Instruction.">
<polygon fill="white" stroke="#666666" points="722,-782.03 592,-782.03 592,-763.03 722,-763.03 722,-782.03"/>
<text text-anchor="middle" x="657" y="-770.03" font-family="Helvetica,sans-Serif" font-size="10.00">ad4080_set_short_instr</text>
</a>
</g>
</g>
<!-- Node1&#45;&gt;Node24 -->
<g id="edge34_Node000001_Node000024" class="edge">
<title>Node1&#45;&gt;Node24</title>
<g id="a_edge34_Node000001_Node000024"><a xlink:title=" ">
<path fill="none" stroke="#63b8ff" d="M827.69,-441.34C818.09,-506.14 784.64,-710.15 738,-754.53 733.46,-758.85 728.12,-762.21 722.39,-764.83"/>
<polygon fill="#63b8ff" stroke="#63b8ff" points="831.18,-441.64 829.15,-431.24 824.25,-440.64 831.18,-441.64"/>
</a>
</g>
</g>
<!-- Node26 -->
<g id="Node000026" class="node">
<title>Node26</title>
<g id="a_Node000026"><a xlink:href="ad4080_8c.html#a3e9051eee1f798e76d98a16c8939cea9" target="_top" xlink:title="Set Single/Streaming Mode.">
<polygon fill="white" stroke="#666666" points="724,-659.03 590,-659.03 590,-640.03 724,-640.03 724,-659.03"/>
<text text-anchor="middle" x="657" y="-647.03" font-family="Helvetica,sans-Serif" font-size="10.00">ad4080_set_single_instr</text>
</a>
</g>
</g>
<!-- Node1&#45;&gt;Node26 -->
<g id="edge37_Node000001_Node000026" class="edge">
<title>Node1&#45;&gt;Node26</title>
<g id="a_edge37_Node000001_Node000026"><a xlink:title=" ">
<path fill="none" stroke="#63b8ff" d="M827.69,-441.21C820.68,-482.88 798.37,-580.33 738,-630.53 733.39,-634.36 728.14,-637.45 722.58,-639.93"/>
<polygon fill="#63b8ff" stroke="#63b8ff" points="831.17,-441.65 829.26,-431.23 824.25,-440.57 831.17,-441.65"/>
</a>
</g>
</g>
<!-- Node27 -->
<g id="Node000027" class="node">
<title>Node27</title>
<g id="a_Node000027"><a xlink:href="ad4080_8c.html#a2c0489fb911a4c42eb2cd972758972d1" target="_top" xlink:title="Set Strict Register Access.">
<polygon fill="white" stroke="#666666" points="719,-621.53 595,-621.53 595,-591.53 719,-591.53 719,-621.53"/>
<text text-anchor="start" x="603" y="-609.53" font-family="Helvetica,sans-Serif" font-size="10.00">ad4080_set_strict_reg</text>
<text text-anchor="middle" x="657" y="-598.53" font-family="Helvetica,sans-Serif" font-size="10.00">_access</text>
</a>
</g>
</g>
<!-- Node1&#45;&gt;Node27 -->
<g id="edge39_Node000001_Node000027" class="edge">
<title>Node1&#45;&gt;Node27</title>
<g id="a_edge39_Node000001_Node000027"><a xlink:title=" ">
<path fill="none" stroke="#63b8ff" d="M823.99,-440.83C812.04,-473.5 783.54,-539.82 738,-577.53 731.17,-583.18 723.15,-587.78 714.87,-591.5"/>
<polygon fill="#63b8ff" stroke="#63b8ff" points="827.39,-441.72 827.42,-431.13 820.79,-439.4 827.39,-441.72"/>
</a>
</g>
</g>
<!-- Node28 -->
<g id="Node000028" class="node">
<title>Node28</title>
<g id="a_Node000028"><a xlink:href="ad4080_8c.html#a8b25a0d8ebbc3ff7e6cd6e61ed877cdb" target="_top" xlink:title="Software reset the device.">
<polygon fill="white" stroke="#666666" points="531.5,-493.03 425.5,-493.03 425.5,-474.03 531.5,-474.03 531.5,-493.03"/>
<text text-anchor="middle" x="478.5" y="-481.03" font-family="Helvetica,sans-Serif" font-size="10.00">ad4080_soft_reset</text>
</a>
</g>
</g>
<!-- Node1&#45;&gt;Node28 -->
<g id="edge41_Node000001_Node000028" class="edge">
<title>Node1&#45;&gt;Node28</title>
<g id="a_edge41_Node000001_Node000028"><a xlink:title=" ">
<path fill="none" stroke="#63b8ff" d="M822.81,-440.7C810.09,-469.47 781.65,-522.74 738,-544.53 673.58,-576.69 645.16,-564.56 576,-544.53 541.16,-534.44 506.82,-507.6 490.07,-493.12"/>
<polygon fill="#63b8ff" stroke="#63b8ff" points="826.11,-441.89 826.78,-431.32 819.66,-439.16 826.11,-441.89"/>
</a>
</g>
</g>
<!-- Node4 -->
<g id="Node000004" class="node">
<title>Node4</title>
<g id="a_Node000004"><a xlink:href="iio__ad4080_8c.html#a4c3881b748799947d1bc735745dd48a8" target="_top" xlink:title="Initializes the IIO AD4080 descriptor.">
<polygon fill="white" stroke="#666666" points="234,-136.03 143,-136.03 143,-117.03 234,-117.03 234,-136.03"/>
<text text-anchor="middle" x="188.5" y="-124.03" font-family="Helvetica,sans-Serif" font-size="10.00">iio_ad4080_init</text>
</a>
</g>
</g>
<!-- Node3&#45;&gt;Node4 -->
<g id="edge3_Node000003_Node000004" class="edge">
<title>Node3&#45;&gt;Node4</title>
<g id="a_edge3_Node000003_Node000004"><a xlink:title=" ">
<path fill="none" stroke="#63b8ff" d="M308.8,-255.55C280.37,-224.81 221.2,-160.81 198.57,-136.34"/>
<polygon fill="#63b8ff" stroke="#63b8ff" points="306.28,-257.98 315.64,-262.95 311.42,-253.23 306.28,-257.98"/>
</a>
</g>
</g>
<!-- Node5 -->
<g id="Node000005" class="node">
<title>Node5</title>
<g id="a_Node000005"><a xlink:href="adalm-mmsc_2src_2examples_2iio__example_2iio__example_8c.html#a692b15b864d48091dc3d7095bea120b4" target="_top" xlink:title="IIO example main execution.">
<polygon fill="white" stroke="#666666" points="107,-117.03 0,-117.03 0,-98.03 107,-98.03 107,-117.03"/>
<text text-anchor="middle" x="53.5" y="-105.03" font-family="Helvetica,sans-Serif" font-size="10.00">iio_example_main</text>
</a>
</g>
</g>
<!-- Node4&#45;&gt;Node5 -->
<g id="edge4_Node000004_Node000005" class="edge">
<title>Node4&#45;&gt;Node5</title>
<g id="a_edge4_Node000004_Node000005"><a xlink:title=" ">
<path fill="none" stroke="#63b8ff" d="M132.69,-118.7C124.23,-117.49 115.51,-116.24 107.09,-115.04"/>
<polygon fill="#63b8ff" stroke="#63b8ff" points="132.45,-122.2 142.84,-120.15 133.44,-115.27 132.45,-122.2"/>
</a>
</g>
</g>
<!-- Node9 -->
<g id="Node000009" class="node">
<title>Node9</title>
<g id="a_Node000009"><a xlink:href="ad4080_8c.html#ad684669bd8f62b7f60b7f70aa0d52137" target="_top" xlink:title="Configure the data interface during initialization.">
<polygon fill="white" stroke="#666666" points="539.5,-212.03 417.5,-212.03 417.5,-193.03 539.5,-193.03 539.5,-212.03"/>
<text text-anchor="middle" x="478.5" y="-200.03" font-family="Helvetica,sans-Serif" font-size="10.00">ad4080_data_intf_init</text>
</a>
</g>
</g>
<!-- Node8&#45;&gt;Node9 -->
<g id="edge8_Node000008_Node000009" class="edge">
<title>Node8&#45;&gt;Node9</title>
<g id="a_edge8_Node000008_Node000009"><a xlink:title=" ">
<path fill="none" stroke="#63b8ff" d="M589.97,-305.62C585.12,-303.51 580.4,-301.15 576,-298.53 536.41,-274.95 501.14,-231.59 486.58,-212.27"/>
<polygon fill="#63b8ff" stroke="#63b8ff" points="588.84,-308.94 599.43,-309.39 591.43,-302.44 588.84,-308.94"/>
</a>
</g>
</g>
<!-- Node9&#45;&gt;Node3 -->
<g id="edge9_Node000009_Node000003" class="edge">
<title>Node9&#45;&gt;Node3</title>
<g id="a_edge9_Node000009_Node000003"><a xlink:title=" ">
<path fill="none" stroke="#63b8ff" d="M447.4,-216.49C417.79,-230.21 373.36,-250.81 347.41,-262.83"/>
<polygon fill="#63b8ff" stroke="#63b8ff" points="449.22,-219.5 456.82,-212.12 446.28,-213.15 449.22,-219.5"/>
</a>
</g>
</g>
<!-- Node10&#45;&gt;Node9 -->
<g id="edge11_Node000010_Node000009" class="edge">
<title>Node10&#45;&gt;Node9</title>
<g id="a_edge11_Node000010_Node000009"><a xlink:title=" ">
<path fill="none" stroke="#63b8ff" d="M591.7,-256.29C586.35,-254.46 581.06,-252.53 576,-250.53 547.29,-239.18 515.5,-222.52 496.53,-212.11"/>
<polygon fill="#63b8ff" stroke="#63b8ff" points="590.76,-259.67 601.35,-259.49 592.96,-253.02 590.76,-259.67"/>
</a>
</g>
</g>
<!-- Node11&#45;&gt;Node9 -->
<g id="edge13_Node000011_Node000009" class="edge">
<title>Node11&#45;&gt;Node9</title>
<g id="a_edge13_Node000011_Node000009"><a xlink:title=" ">
<path fill="none" stroke="#63b8ff" d="M584.19,-62.72C581.29,-64.43 578.54,-66.35 576,-68.53 542.95,-96.8 566.83,-125.3 540,-159.53 528.79,-173.83 511.58,-185.42 498.37,-192.95"/>
<polygon fill="#63b8ff" stroke="#63b8ff" points="585.85,-65.8 593.27,-58.23 582.75,-59.53 585.85,-65.8"/>
</a>
</g>
</g>
<!-- Node12 -->
<g id="Node000012" class="node">
<title>Node12</title>
<g id="a_Node000012"><a xlink:href="iio__ad4080_8c.html#afcc7435d86502c8e3f839b1562ee37b0" target="_top" xlink:title="Unset the watermark configuration and data structure fors ad4080 driver.">
<polygon fill="white" stroke="#666666" points="540,-101.53 417,-101.53 417,-71.53 540,-71.53 540,-101.53"/>
<text text-anchor="start" x="425" y="-89.53" font-family="Helvetica,sans-Serif" font-size="10.00">iio_ad4080_fifo_unset</text>
<text text-anchor="middle" x="478.5" y="-78.53" font-family="Helvetica,sans-Serif" font-size="10.00">_watermark</text>
</a>
</g>
</g>
<!-- Node11&#45;&gt;Node12 -->
<g id="edge14_Node000011_Node000012" class="edge">
<title>Node11&#45;&gt;Node12</title>
<g id="a_edge14_Node000011_Node000012"><a xlink:title=" ">
<path fill="none" stroke="#63b8ff" d="M599.24,-62.11C580.4,-65.95 559.35,-70.24 540.21,-74.15"/>
<polygon fill="#63b8ff" stroke="#63b8ff" points="600.07,-65.51 609.16,-60.08 598.67,-58.65 600.07,-65.51"/>
</a>
</g>
</g>
<!-- Node12&#45;&gt;Node4 -->
<g id="edge19_Node000012_Node000004" class="edge">
<title>Node12&#45;&gt;Node4</title>
<g id="a_edge19_Node000012_Node000004"><a xlink:title=" ">
<path fill="none" stroke="#63b8ff" d="M406.6,-96.38C352.69,-103.86 280.2,-113.93 234.15,-120.33"/>
<polygon fill="#63b8ff" stroke="#63b8ff" points="407.35,-99.81 416.77,-94.96 406.39,-92.87 407.35,-99.81"/>
</a>
</g>
</g>
<!-- Node13 -->
<g id="Node000013" class="node">
<title>Node13</title>
<g id="a_Node000013"><a xlink:href="iio__ad4080_8c.html#aacf74c6dd1acb9626c23d5356c4b3c96" target="_top" xlink:title="Sets the FIFO watermark for the AD4080 device.">
<polygon fill="white" stroke="#666666" points="381,-163.53 270,-163.53 270,-133.53 381,-133.53 381,-163.53"/>
<text text-anchor="start" x="278" y="-151.53" font-family="Helvetica,sans-Serif" font-size="10.00">iio_ad4080_fifo_set</text>
<text text-anchor="middle" x="325.5" y="-140.53" font-family="Helvetica,sans-Serif" font-size="10.00">_watermark</text>
</a>
</g>
</g>
<!-- Node12&#45;&gt;Node13 -->
<g id="edge15_Node000012_Node000013" class="edge">
<title>Node12&#45;&gt;Node13</title>
<g id="a_edge15_Node000012_Node000013"><a xlink:title=" ">
<path fill="none" stroke="#63b8ff" d="M431.52,-105.41C409.62,-114.4 383.8,-125 363.24,-133.44"/>
<polygon fill="#63b8ff" stroke="#63b8ff" points="433.03,-108.57 440.95,-101.54 430.37,-102.1 433.03,-108.57"/>
</a>
</g>
</g>
<!-- Node14 -->
<g id="Node000014" class="node">
<title>Node14</title>
<g id="a_Node000014"><a xlink:href="iio__ad4080_8c.html#a0d027c587f47f7cde05f71c9495b060c" target="_top" xlink:title="teardown the ad4080 IIO driver">
<polygon fill="white" stroke="#666666" points="233.5,-99.03 143.5,-99.03 143.5,-80.03 233.5,-80.03 233.5,-99.03"/>
<text text-anchor="middle" x="188.5" y="-87.03" font-family="Helvetica,sans-Serif" font-size="10.00">iio_ad4080_fini</text>
</a>
</g>
</g>
<!-- Node12&#45;&gt;Node14 -->
<g id="edge17_Node000012_Node000014" class="edge">
<title>Node12&#45;&gt;Node14</title>
<g id="a_edge17_Node000012_Node000014"><a xlink:title=" ">
<path fill="none" stroke="#63b8ff" d="M406.57,-87.27C352.49,-87.83 279.72,-88.59 233.7,-89.07"/>
<polygon fill="#63b8ff" stroke="#63b8ff" points="406.81,-90.77 416.77,-87.16 406.74,-83.77 406.81,-90.77"/>
</a>
</g>
</g>
<!-- Node13&#45;&gt;Node4 -->
<g id="edge16_Node000013_Node000004" class="edge">
<title>Node13&#45;&gt;Node4</title>
<g id="a_edge16_Node000013_Node000004"><a xlink:title=" ">
<path fill="none" stroke="#63b8ff" d="M259.88,-138C251.22,-136.59 242.5,-135.17 234.29,-133.83"/>
<polygon fill="#63b8ff" stroke="#63b8ff" points="259.55,-141.49 269.98,-139.64 260.67,-134.58 259.55,-141.49"/>
</a>
</g>
</g>
<!-- Node14&#45;&gt;Node5 -->
<g id="edge18_Node000014_Node000005" class="edge">
<title>Node14&#45;&gt;Node5</title>
<g id="a_edge18_Node000014_Node000005"><a xlink:title=" ">
<path fill="none" stroke="#63b8ff" d="M133.04,-96.9C124.56,-98.05 115.81,-99.23 107.36,-100.37"/>
<polygon fill="#63b8ff" stroke="#63b8ff" points="133.77,-100.33 143.21,-95.52 132.83,-93.4 133.77,-100.33"/>
</a>
</g>
</g>
<!-- Node19&#45;&gt;Node9 -->
<g id="edge25_Node000019_Node000009" class="edge">
<title>Node19&#45;&gt;Node9</title>
<g id="a_edge25_Node000019_Node000009"><a xlink:title=" ">
<path fill="none" stroke="#63b8ff" d="M586.28,-217.05C570.91,-214.96 554.75,-212.76 539.79,-210.73"/>
<polygon fill="#63b8ff" stroke="#63b8ff" points="585.86,-220.52 596.25,-218.4 586.81,-213.59 585.86,-220.52"/>
</a>
</g>
</g>
<!-- Node20&#45;&gt;Node9 -->
<g id="edge27_Node000020_Node000009" class="edge">
<title>Node20&#45;&gt;Node9</title>
<g id="a_edge27_Node000020_Node000009"><a xlink:title=" ">
<path fill="none" stroke="#63b8ff" d="M586.28,-188.01C570.91,-190.1 554.75,-192.3 539.79,-194.33"/>
<polygon fill="#63b8ff" stroke="#63b8ff" points="586.81,-191.47 596.25,-186.65 585.86,-184.53 586.81,-191.47"/>
</a>
</g>
</g>
<!-- Node21&#45;&gt;Node9 -->
<g id="edge29_Node000021_Node000009" class="edge">
<title>Node21&#45;&gt;Node9</title>
<g id="a_edge29_Node000021_Node000009"><a xlink:title=" ">
<path fill="none" stroke="#63b8ff" d="M591.7,-148.77C586.35,-150.6 581.06,-152.53 576,-154.53 547.29,-165.88 515.5,-182.54 496.53,-192.95"/>
<polygon fill="#63b8ff" stroke="#63b8ff" points="592.96,-152.03 601.35,-145.57 590.76,-145.39 592.96,-152.03"/>
</a>
</g>
</g>
<!-- Node22&#45;&gt;Node9 -->
<g id="edge31_Node000022_Node000009" class="edge">
<title>Node22&#45;&gt;Node9</title>
<g id="a_edge31_Node000022_Node000009"><a xlink:title=" ">
<path fill="none" stroke="#63b8ff" d="M586.45,-100.52C582.79,-102.28 579.28,-104.27 576,-106.53 552.56,-122.69 559.92,-139.18 540,-159.53 526.84,-172.97 509.01,-185.07 496.12,-192.98"/>
<polygon fill="#63b8ff" stroke="#63b8ff" points="587.91,-103.7 595.79,-96.62 585.21,-97.24 587.91,-103.7"/>
</a>
</g>
</g>
<!-- Node23&#45;&gt;Node3 -->
<g id="edge33_Node000023_Node000003" class="edge">
<title>Node23&#45;&gt;Node3</title>
<g id="a_edge33_Node000023_Node000003"><a xlink:title=" ">
<path fill="none" stroke="#63b8ff" d="M453.72,-156.68C442.28,-164.3 428.58,-173.94 417,-183.53 384.93,-210.1 350.89,-245.95 335.26,-262.89"/>
<polygon fill="#63b8ff" stroke="#63b8ff" points="455.87,-159.45 462.32,-151.04 452.03,-153.59 455.87,-159.45"/>
</a>
</g>
</g>
<!-- Node25 -->
<g id="Node000025" class="node">
<title>Node25</title>
<g id="a_Node000025"><a xlink:href="ad4080_8c.html#af2317cc392e1fe501c791466d5da325c" target="_top" xlink:title="Configure the config SPI interface during initialization.">
<polygon fill="white" stroke="#666666" points="539.5,-642.53 417.5,-642.53 417.5,-612.53 539.5,-612.53 539.5,-642.53"/>
<text text-anchor="start" x="425.5" y="-630.53" font-family="Helvetica,sans-Serif" font-size="10.00">ad4080_configuration</text>
<text text-anchor="middle" x="478.5" y="-619.53" font-family="Helvetica,sans-Serif" font-size="10.00">_intf_init</text>
</a>
</g>
</g>
<!-- Node24&#45;&gt;Node25 -->
<g id="edge35_Node000024_Node000025" class="edge">
<title>Node24&#45;&gt;Node25</title>
<g id="a_edge35_Node000024_Node000025"><a xlink:title=" ">
<path fill="none" stroke="#63b8ff" d="M583.74,-758.89C581.06,-757.57 578.47,-756.12 576,-754.53 531.74,-726.09 500.02,-669.91 486.61,-642.83"/>
<polygon fill="#63b8ff" stroke="#63b8ff" points="582.55,-762.18 593.12,-762.91 585.31,-755.75 582.55,-762.18"/>
</a>
</g>
</g>
<!-- Node25&#45;&gt;Node3 -->
<g id="edge36_Node000025_Node000003" class="edge">
<title>Node25&#45;&gt;Node3</title>
<g id="a_edge36_Node000025_Node000003"><a xlink:title=" ">
<path fill="none" stroke="#63b8ff" d="M465.05,-603.2C452.41,-578.19 432.54,-538.01 417,-502.53 380.16,-418.42 341.67,-314.21 330.03,-282.28"/>
<polygon fill="#63b8ff" stroke="#63b8ff" points="462.02,-604.98 469.67,-612.31 468.26,-601.81 462.02,-604.98"/>
</a>
</g>
</g>
<!-- Node26&#45;&gt;Node25 -->
<g id="edge38_Node000026_Node000025" class="edge">
<title>Node26&#45;&gt;Node25</title>
<g id="a_edge38_Node000026_Node000025"><a xlink:title=" ">
<path fill="none" stroke="#63b8ff" d="M579.65,-640.01C566.28,-638.35 552.54,-636.63 539.69,-635.03"/>
<polygon fill="#63b8ff" stroke="#63b8ff" points="579.42,-643.51 589.78,-641.27 580.29,-636.56 579.42,-643.51"/>
</a>
</g>
</g>
<!-- Node27&#45;&gt;Node25 -->
<g id="edge40_Node000027_Node000025" class="edge">
<title>Node27&#45;&gt;Node25</title>
<g id="a_edge40_Node000027_Node000025"><a xlink:title=" ">
<path fill="none" stroke="#63b8ff" d="M584.59,-615.03C569.71,-616.8 554.16,-618.65 539.73,-620.36"/>
<polygon fill="#63b8ff" stroke="#63b8ff" points="585.25,-618.47 594.76,-613.82 584.42,-611.52 585.25,-618.47"/>
</a>
</g>
</g>
<!-- Node28&#45;&gt;Node3 -->
<g id="edge42_Node000028_Node000003" class="edge">
<title>Node28&#45;&gt;Node3</title>
<g id="a_edge42_Node000028_Node000003"><a xlink:title=" ">
<path fill="none" stroke="#63b8ff" d="M464.64,-465.55C433.88,-422.58 356.92,-315.03 333.42,-282.2"/>
<polygon fill="#63b8ff" stroke="#63b8ff" points="461.95,-467.82 470.62,-473.91 467.65,-463.75 461.95,-467.82"/>
</a>
</g>
</g>
</g>
</svg>

<g id="navigator" transform="translate(0 0)" fill="#404254">
  <rect fill="#f2f5e9" fill-opacity="0.5" stroke="#606060" stroke-width=".5" x="0" y="0" width="60" height="60"/>
  <use id="zoomplus" xlink:href="#zoomPlus" x="17" y="9" onmousedown="handleZoom(evt,'in')"/>
  <use id="zoomminus" xlink:href="#zoomMin" x="42" y="9" onmousedown="handleZoom(evt,'out')"/>
  <use id="reset" xlink:href="#resetDef" x="30" y="36" onmousedown="handleReset()"/>
   <use id="arrowup" xlink:href="#arrowUp" x="0" y="0" onmousedown="handlePan(0,-1)"/>
  <use id="arrowright" xlink:href="#arrowRight" x="0" y="0" onmousedown="handlePan(1,0)"/>
  <use id="arrowdown" xlink:href="#arrowDown" x="0" y="0" onmousedown="handlePan(0,1)"/>
  <use id="arrowleft" xlink:href="#arrowLeft" x="0" y="0" onmousedown="handlePan(-1,0)"/>
</g>
<svg viewBox="0 0 15 15" width="100%" height="30px" preserveAspectRatio="xMaxYMin meet">
 <g id="arrow_out" transform="scale(0.3 0.3)">
  <a xlink:href="ad4080_8h_a728f941826fe1b0ffe27221470f0e193_icgraph_org.svg" target="_base">
   <rect id="button" ry="5" rx="5" y="6" x="6" height="38" width="38"
        fill="#f2f5e9" fill-opacity="0.5" stroke="#606060" stroke-width="1.0"/>
   <path id="arrow"
     d="M 11.500037,31.436501 C 11.940474,20.09759 22.043105,11.32322 32.158766,21.979434 L 37.068811,17.246167 C 37.068811,17.246167 37.088388,32 37.088388,32 L 22.160133,31.978069 C 22.160133,31.978069 26.997745,27.140456 26.997745,27.140456 C 18.528582,18.264221 13.291696,25.230495 11.500037,31.436501 z"
     style="fill:#404040;"/>
  </a>
 </g>
</svg>

<style type='text/css'>
<![CDATA[
[data-mouse-over-selected='false'] { opacity: 0.7; }
[data-mouse-over-selected='true']  { opacity: 1.0; }
]]>
</style>
<script type="application/ecmascript"><![CDATA[
document.addEventListener('DOMContentLoaded', (event) => {
  highlightEdges();
  highlightAdjacentNodes();
});
]]></script>
</svg>
