<?xml version="1.0" encoding="UTF-8" standalone="no"?>
<!DOCTYPE svg PUBLIC "-//W3C//DTD SVG 1.1//EN"
 "http://www.w3.org/Graphics/SVG/1.1/DTD/svg11.dtd">
<!-- Generated by graphviz version 2.43.0 (0)
 -->
<!-- Title: ad4080_remove Pages: 1 -->
<svg width="373pt" height="64pt"
 viewBox="0.00 0.00 373.00 64.00" xmlns="http://www.w3.org/2000/svg" xmlns:xlink="http://www.w3.org/1999/xlink">
<g id="graph0" class="graph" transform="scale(1 1) rotate(0) translate(4 60)">
<title>ad4080_remove</title>
<!-- Node1 -->
<g id="Node000001" class="node">
<title>Node1</title>
<g id="a_Node000001"><a xlink:title="Remove the device and release resources.">
<polygon fill="#999999" stroke="#666666" points="365,-37 270,-37 270,-18 365,-18 365,-37"/>
<text text-anchor="middle" x="317.5" y="-25" font-family="Helvetica,sans-Serif" font-size="10.00">ad4080_remove</text>
</a>
</g>
</g>
<!-- Node2 -->
<g id="Node000002" class="node">
<title>Node2</title>
<g id="a_Node000002"><a xlink:href="iio__ad4080_8c.html#a0d027c587f47f7cde05f71c9495b060c" target="_top" xlink:title="teardown the ad4080 IIO driver">
<polygon fill="white" stroke="#666666" points="233.5,-56 143.5,-56 143.5,-37 233.5,-37 233.5,-56"/>
<text text-anchor="middle" x="188.5" y="-44" font-family="Helvetica,sans-Serif" font-size="10.00">iio_ad4080_fini</text>
</a>
</g>
</g>
<!-- Node1&#45;&gt;Node2 -->
<g id="edge1_Node000001_Node000002" class="edge">
<title>Node1&#45;&gt;Node2</title>
<g id="a_edge1_Node000001_Node000002"><a xlink:title=" ">
<path fill="none" stroke="#63b8ff" d="M260.02,-35.95C251.14,-37.28 242.07,-38.63 233.53,-39.91"/>
<polygon fill="#63b8ff" stroke="#63b8ff" points="260.56,-39.41 269.93,-34.47 259.52,-32.49 260.56,-39.41"/>
</a>
</g>
</g>
<!-- Node4 -->
<g id="Node000004" class="node">
<title>Node4</title>
<g id="a_Node000004"><a xlink:href="iio__ad4080_8c.html#a4c3881b748799947d1bc735745dd48a8" target="_top" xlink:title="Initializes the IIO AD4080 descriptor.">
<polygon fill="white" stroke="#666666" points="234,-19 143,-19 143,0 234,0 234,-19"/>
<text text-anchor="middle" x="188.5" y="-7" font-family="Helvetica,sans-Serif" font-size="10.00">iio_ad4080_init</text>
</a>
</g>
</g>
<!-- Node1&#45;&gt;Node4 -->
<g id="edge3_Node000001_Node000004" class="edge">
<title>Node1&#45;&gt;Node4</title>
<g id="a_edge3_Node000001_Node000004"><a xlink:title=" ">
<path fill="none" stroke="#63b8ff" d="M259.98,-19.49C251.4,-18.27 242.65,-17.03 234.37,-15.86"/>
<polygon fill="#63b8ff" stroke="#63b8ff" points="259.54,-22.96 269.93,-20.9 260.52,-16.03 259.54,-22.96"/>
</a>
</g>
</g>
<!-- Node3 -->
<g id="Node000003" class="node">
<title>Node3</title>
<g id="a_Node000003"><a xlink:href="adalm-mmsc_2src_2examples_2iio__example_2iio__example_8c.html#a692b15b864d48091dc3d7095bea120b4" target="_top" xlink:title="IIO example main execution.">
<polygon fill="white" stroke="#666666" points="107,-37 0,-37 0,-18 107,-18 107,-37"/>
<text text-anchor="middle" x="53.5" y="-25" font-family="Helvetica,sans-Serif" font-size="10.00">iio_example_main</text>
</a>
</g>
</g>
<!-- Node2&#45;&gt;Node3 -->
<g id="edge2_Node000002_Node000003" class="edge">
<title>Node2&#45;&gt;Node3</title>
<g id="a_edge2_Node000002_Node000003"><a xlink:title=" ">
<path fill="none" stroke="#63b8ff" d="M133.04,-38.72C124.56,-37.51 115.81,-36.26 107.36,-35.05"/>
<polygon fill="#63b8ff" stroke="#63b8ff" points="132.82,-42.22 143.21,-40.17 133.81,-35.29 132.82,-42.22"/>
</a>
</g>
</g>
<!-- Node4&#45;&gt;Node3 -->
<g id="edge4_Node000004_Node000003" class="edge">
<title>Node4&#45;&gt;Node3</title>
<g id="a_edge4_Node000004_Node000003"><a xlink:title=" ">
<path fill="none" stroke="#63b8ff" d="M132.69,-16.92C124.23,-18.06 115.51,-19.24 107.09,-20.38"/>
<polygon fill="#63b8ff" stroke="#63b8ff" points="133.4,-20.35 142.84,-15.54 132.46,-13.42 133.4,-20.35"/>
</a>
</g>
</g>
</g>
</svg>
