<?xml version="1.0" encoding="UTF-8" standalone="no"?>
<!DOCTYPE svg PUBLIC "-//W3C//DTD SVG 1.1//EN"
 "http://www.w3.org/Graphics/SVG/1.1/DTD/svg11.dtd">
<!-- Generated by graphviz version 2.43.0 (0)
 -->
<!-- Title: drivers/afe/ad4110/ad4110.h Pages: 1 -->
<svg width="472pt" height="148pt"
 viewBox="0.00 0.00 471.83 148.00" xmlns="http://www.w3.org/2000/svg" xmlns:xlink="http://www.w3.org/1999/xlink">
<g id="graph0" class="graph" transform="scale(1 1) rotate(0) translate(4 144)">
<title>drivers/afe/ad4110/ad4110.h</title>
<!-- Node1 -->
<g id="Node000001" class="node">
<title>Node1</title>
<g id="a_Node000001"><a xlink:title="Header file of AD4110 Driver.">
<polygon fill="#999999" stroke="#666666" points="244.83,-140 136.83,-140 136.83,-110 244.83,-110 244.83,-140"/>
<text text-anchor="start" x="144.83" y="-128" font-family="Helvetica,sans-Serif" font-size="10.00">drivers/afe/ad4110</text>
<text text-anchor="middle" x="190.83" y="-117" font-family="Helvetica,sans-Serif" font-size="10.00">/ad4110.h</text>
</a>
</g>
</g>
<!-- Node2 -->
<g id="Node000002" class="node">
<title>Node2</title>
<g id="a_Node000002"><a xlink:title=" ">
<polygon fill="#e0e0e0" stroke="#999999" points="268.33,-19 215.33,-19 215.33,0 268.33,0 268.33,-19"/>
<text text-anchor="middle" x="241.83" y="-7" font-family="Helvetica,sans-Serif" font-size="10.00">stdint.h</text>
</a>
</g>
</g>
<!-- Node1&#45;&gt;Node2 -->
<g id="edge1_Node000001_Node000002" class="edge">
<title>Node1&#45;&gt;Node2</title>
<g id="a_edge1_Node000001_Node000002"><a xlink:title=" ">
<path fill="none" stroke="#63b8ff" d="M136.67,-121.36C70.32,-116.12 -28.91,-100.63 8.83,-55 33.29,-25.44 145.56,-15.33 204.87,-12.03"/>
<polygon fill="#63b8ff" stroke="#63b8ff" points="205.15,-15.52 214.95,-11.5 204.79,-8.53 205.15,-15.52"/>
</a>
</g>
</g>
<!-- Node3 -->
<g id="Node000003" class="node">
<title>Node3</title>
<g id="a_Node000003"><a xlink:title=" ">
<polygon fill="#e0e0e0" stroke="#999999" points="79.83,-74 17.83,-74 17.83,-55 79.83,-55 79.83,-74"/>
<text text-anchor="middle" x="48.83" y="-62" font-family="Helvetica,sans-Serif" font-size="10.00">stdbool.h</text>
</a>
</g>
</g>
<!-- Node1&#45;&gt;Node3 -->
<g id="edge2_Node000001_Node000003" class="edge">
<title>Node1&#45;&gt;Node3</title>
<g id="a_edge2_Node000001_Node000003"><a xlink:title=" ">
<path fill="none" stroke="#63b8ff" d="M156.82,-109.99C133.24,-100.27 102.09,-87.44 79.32,-78.06"/>
<polygon fill="#63b8ff" stroke="#63b8ff" points="80.38,-74.71 69.8,-74.14 77.72,-81.18 80.38,-74.71"/>
</a>
</g>
</g>
<!-- Node4 -->
<g id="Node000004" class="node">
<title>Node4</title>
<g id="a_Node000004"><a xlink:href="no__os__delay_8h.html" target="_top" xlink:title="Header file of Delay functions.">
<polygon fill="white" stroke="#666666" points="183.33,-74 98.33,-74 98.33,-55 183.33,-55 183.33,-74"/>
<text text-anchor="middle" x="140.83" y="-62" font-family="Helvetica,sans-Serif" font-size="10.00">no_os_delay.h</text>
</a>
</g>
</g>
<!-- Node1&#45;&gt;Node4 -->
<g id="edge3_Node000001_Node000004" class="edge">
<title>Node1&#45;&gt;Node4</title>
<g id="a_edge3_Node000001_Node000004"><a xlink:title=" ">
<path fill="none" stroke="#63b8ff" d="M178.73,-109.84C171.55,-101.43 162.41,-90.74 154.9,-81.96"/>
<polygon fill="#63b8ff" stroke="#63b8ff" points="157.48,-79.59 148.33,-74.27 152.16,-84.14 157.48,-79.59"/>
</a>
</g>
</g>
<!-- Node5 -->
<g id="Node000005" class="node">
<title>Node5</title>
<g id="a_Node000005"><a xlink:href="no__os__gpio_8h.html" target="_top" xlink:title="Header file of GPIO Interface.">
<polygon fill="white" stroke="#666666" points="281.83,-74 201.83,-74 201.83,-55 281.83,-55 281.83,-74"/>
<text text-anchor="middle" x="241.83" y="-62" font-family="Helvetica,sans-Serif" font-size="10.00">no_os_gpio.h</text>
</a>
</g>
</g>
<!-- Node1&#45;&gt;Node5 -->
<g id="edge5_Node000001_Node000005" class="edge">
<title>Node1&#45;&gt;Node5</title>
<g id="a_edge5_Node000001_Node000005"><a xlink:title=" ">
<path fill="none" stroke="#63b8ff" d="M203.18,-109.84C210.51,-101.43 219.83,-90.74 227.48,-81.96"/>
<polygon fill="#63b8ff" stroke="#63b8ff" points="230.26,-84.1 234.19,-74.27 224.98,-79.5 230.26,-84.1"/>
</a>
</g>
</g>
<!-- Node6 -->
<g id="Node000006" class="node">
<title>Node6</title>
<g id="a_Node000006"><a xlink:href="no__os__spi_8h.html" target="_top" xlink:title="Header file of SPI Interface.">
<polygon fill="white" stroke="#666666" points="373.83,-74 299.83,-74 299.83,-55 373.83,-55 373.83,-74"/>
<text text-anchor="middle" x="336.83" y="-62" font-family="Helvetica,sans-Serif" font-size="10.00">no_os_spi.h</text>
</a>
</g>
</g>
<!-- Node1&#45;&gt;Node6 -->
<g id="edge7_Node000001_Node000006" class="edge">
<title>Node1&#45;&gt;Node6</title>
<g id="a_edge7_Node000001_Node000006"><a xlink:title=" ">
<path fill="none" stroke="#63b8ff" d="M225.81,-109.99C250.16,-100.23 282.36,-87.33 305.81,-77.93"/>
<polygon fill="#63b8ff" stroke="#63b8ff" points="307.29,-81.11 315.27,-74.14 304.69,-74.61 307.29,-81.11"/>
</a>
</g>
</g>
<!-- Node7 -->
<g id="Node000007" class="node">
<title>Node7</title>
<g id="a_Node000007"><a xlink:href="no__os__irq_8h.html" target="_top" xlink:title="Header file of IRQ interface.">
<polygon fill="white" stroke="#666666" points="463.83,-74 391.83,-74 391.83,-55 463.83,-55 463.83,-74"/>
<text text-anchor="middle" x="427.83" y="-62" font-family="Helvetica,sans-Serif" font-size="10.00">no_os_irq.h</text>
</a>
</g>
</g>
<!-- Node1&#45;&gt;Node7 -->
<g id="edge9_Node000001_Node000007" class="edge">
<title>Node1&#45;&gt;Node7</title>
<g id="a_edge9_Node000001_Node000007"><a xlink:title=" ">
<path fill="none" stroke="#63b8ff" d="M244.91,-110.65C286.76,-100.32 344.01,-86.19 383.26,-76.5"/>
<polygon fill="#63b8ff" stroke="#63b8ff" points="384.2,-79.87 393.07,-74.08 382.53,-73.08 384.2,-79.87"/>
</a>
</g>
</g>
<!-- Node4&#45;&gt;Node2 -->
<g id="edge4_Node000004_Node000002" class="edge">
<title>Node4&#45;&gt;Node2</title>
<g id="a_edge4_Node000004_Node000002"><a xlink:title=" ">
<path fill="none" stroke="#63b8ff" d="M157.06,-54.98C173.02,-46.61 197.61,-33.7 216.21,-23.95"/>
<polygon fill="#63b8ff" stroke="#63b8ff" points="218.08,-26.92 225.31,-19.17 214.83,-20.72 218.08,-26.92"/>
</a>
</g>
</g>
<!-- Node5&#45;&gt;Node2 -->
<g id="edge6_Node000005_Node000002" class="edge">
<title>Node5&#45;&gt;Node2</title>
<g id="a_edge6_Node000005_Node000002"><a xlink:title=" ">
<path fill="none" stroke="#63b8ff" d="M241.83,-54.75C241.83,-47.8 241.83,-37.85 241.83,-29.13"/>
<polygon fill="#63b8ff" stroke="#63b8ff" points="245.33,-29.09 241.83,-19.09 238.33,-29.09 245.33,-29.09"/>
</a>
</g>
</g>
<!-- Node6&#45;&gt;Node2 -->
<g id="edge8_Node000006_Node000002" class="edge">
<title>Node6&#45;&gt;Node2</title>
<g id="a_edge8_Node000006_Node000002"><a xlink:title=" ">
<path fill="none" stroke="#63b8ff" d="M321.57,-54.98C306.7,-46.69 283.85,-33.94 266.42,-24.22"/>
<polygon fill="#63b8ff" stroke="#63b8ff" points="267.81,-20.99 257.38,-19.17 264.4,-27.1 267.81,-20.99"/>
</a>
</g>
</g>
<!-- Node7&#45;&gt;Node2 -->
<g id="edge10_Node000007_Node000002" class="edge">
<title>Node7&#45;&gt;Node2</title>
<g id="a_edge10_Node000007_Node000002"><a xlink:title=" ">
<path fill="none" stroke="#63b8ff" d="M397.95,-54.98C365.42,-45.72 313.4,-30.89 278.44,-20.93"/>
<polygon fill="#63b8ff" stroke="#63b8ff" points="279.2,-17.51 268.63,-18.13 277.28,-24.24 279.2,-17.51"/>
</a>
</g>
</g>
</g>
</svg>
