<?xml version="1.0" encoding="UTF-8" standalone="no"?>
<!DOCTYPE svg PUBLIC "-//W3C//DTD SVG 1.1//EN"
 "http://www.w3.org/Graphics/SVG/1.1/DTD/svg11.dtd">
<!-- Generated by graphviz version 2.43.0 (0)
 -->
<!-- Title: drivers/afe/ad413x/ad413x.h Pages: 1 -->
<svg width="410pt" height="170pt"
 viewBox="0.00 0.00 410.00 170.00" xmlns="http://www.w3.org/2000/svg" xmlns:xlink="http://www.w3.org/1999/xlink">

<svg id="main" version="1.1" xmlns="http://www.w3.org/2000/svg" xmlns:xlink="http://www.w3.org/1999/xlink" xml:space="preserve">

<style type="text/css"><![CDATA[
.node, .edge {opacity: 0.7;}
.node.selected, .edge.selected {opacity: 1;}
.edge:hover path { stroke: red; }
.edge:hover polygon { stroke: red; fill: red; }
]]></style>
<script type="application/ecmascript" xlink:href="svg.min.js"/>
<svg id="graph" class="graph">
<g id="graph0" class="graph" transform="scale(1 1) rotate(0) translate(4 166)">
<title>drivers/afe/ad413x/ad413x.h</title>
<!-- Node1 -->
<g id="Node000001" class="node">
<title>Node1</title>
<g id="a_Node000001"><a xlink:title="Header file of AD413X Driver.">
<polygon fill="#999999" stroke="#666666" points="231,-162 123,-162 123,-132 231,-132 231,-162"/>
<text text-anchor="start" x="131" y="-150" font-family="Helvetica,sans-Serif" font-size="10.00">drivers/afe/ad413x</text>
<text text-anchor="middle" x="177" y="-139" font-family="Helvetica,sans-Serif" font-size="10.00">/ad413x.h</text>
</a>
</g>
</g>
<!-- Node2 -->
<g id="Node000002" class="node">
<title>Node2</title>
<g id="a_Node000002"><a xlink:href="ad413x_8c.html" target="_top" xlink:title="Implementation of AD413X Driver.">
<polygon fill="white" stroke="#666666" points="108,-96 0,-96 0,-66 108,-66 108,-96"/>
<text text-anchor="start" x="8" y="-84" font-family="Helvetica,sans-Serif" font-size="10.00">drivers/afe/ad413x</text>
<text text-anchor="middle" x="54" y="-73" font-family="Helvetica,sans-Serif" font-size="10.00">/ad413x.c</text>
</a>
</g>
</g>
<!-- Node1&#45;&gt;Node2 -->
<g id="edge1_Node000001_Node000002" class="edge">
<title>Node1&#45;&gt;Node2</title>
<g id="a_edge1_Node000001_Node000002"><a xlink:title=" ">
<path fill="none" stroke="#63b8ff" d="M140.95,-127.24C121.75,-117.25 98.54,-105.18 80.93,-96.01"/>
<polygon fill="#63b8ff" stroke="#63b8ff" points="139.52,-130.44 150.01,-131.95 142.75,-124.23 139.52,-130.44"/>
</a>
</g>
</g>
<!-- Node3 -->
<g id="Node000003" class="node">
<title>Node3</title>
<g id="a_Node000003"><a xlink:href="iio__ad413x_8c.html" target="_top" xlink:title=" ">
<polygon fill="white" stroke="#666666" points="231,-30 123,-30 123,0 231,0 231,-30"/>
<text text-anchor="start" x="131" y="-18" font-family="Helvetica,sans-Serif" font-size="10.00">drivers/afe/ad413x</text>
<text text-anchor="middle" x="177" y="-7" font-family="Helvetica,sans-Serif" font-size="10.00">/iio_ad413x.c</text>
</a>
</g>
</g>
<!-- Node1&#45;&gt;Node3 -->
<g id="edge2_Node000001_Node000003" class="edge">
<title>Node1&#45;&gt;Node3</title>
<g id="a_edge2_Node000001_Node000003"><a xlink:title=" ">
<path fill="none" stroke="#63b8ff" d="M164.24,-122.43C160.49,-114.3 156.89,-104.97 155,-96 152.26,-82.95 152.26,-79.05 155,-66 157.65,-53.38 163.7,-40.06 168.78,-30.34"/>
<polygon fill="#63b8ff" stroke="#63b8ff" points="161.22,-124.24 168.78,-131.66 167.5,-121.14 161.22,-124.24"/>
</a>
</g>
</g>
<!-- Node4 -->
<g id="Node000004" class="node">
<title>Node4</title>
<g id="a_Node000004"><a xlink:href="iio__ad413x_8h.html" target="_top" xlink:title="Header file of iio_ad413x.">
<polygon fill="white" stroke="#666666" points="272,-96 164,-96 164,-66 272,-66 272,-96"/>
<text text-anchor="start" x="172" y="-84" font-family="Helvetica,sans-Serif" font-size="10.00">drivers/afe/ad413x</text>
<text text-anchor="middle" x="218" y="-73" font-family="Helvetica,sans-Serif" font-size="10.00">/iio_ad413x.h</text>
</a>
</g>
</g>
<!-- Node1&#45;&gt;Node4 -->
<g id="edge3_Node000001_Node000004" class="edge">
<title>Node1&#45;&gt;Node4</title>
<g id="a_edge3_Node000001_Node000004"><a xlink:title=" ">
<path fill="none" stroke="#63b8ff" d="M191.58,-123.24C197.36,-114.21 203.84,-104.11 208.93,-96.16"/>
<polygon fill="#63b8ff" stroke="#63b8ff" points="188.55,-121.49 186.1,-131.8 194.44,-125.26 188.55,-121.49"/>
</a>
</g>
</g>
<!-- Node5 -->
<g id="Node000005" class="node">
<title>Node5</title>
<g id="a_Node000005"><a xlink:href="ad413x_2src_2app_2main_8c.html" target="_top" xlink:title="Implementation of Main Function.">
<polygon fill="white" stroke="#666666" points="402,-96 290,-96 290,-66 402,-66 402,-96"/>
<text text-anchor="start" x="298" y="-84" font-family="Helvetica,sans-Serif" font-size="10.00">projects/ad413x/src</text>
<text text-anchor="middle" x="346" y="-73" font-family="Helvetica,sans-Serif" font-size="10.00">/app/main.c</text>
</a>
</g>
</g>
<!-- Node1&#45;&gt;Node5 -->
<g id="edge5_Node000001_Node000005" class="edge">
<title>Node1&#45;&gt;Node5</title>
<g id="a_edge5_Node000001_Node000005"><a xlink:title=" ">
<path fill="none" stroke="#63b8ff" d="M223.68,-128.32C250.58,-118.14 283.92,-105.51 309,-96.01"/>
<polygon fill="#63b8ff" stroke="#63b8ff" points="222.2,-125.14 214.09,-131.95 224.68,-131.69 222.2,-125.14"/>
</a>
</g>
</g>
<!-- Node4&#45;&gt;Node3 -->
<g id="edge4_Node000004_Node000003" class="edge">
<title>Node4&#45;&gt;Node3</title>
<g id="a_edge4_Node000004_Node000003"><a xlink:title=" ">
<path fill="none" stroke="#63b8ff" d="M203.42,-57.24C197.64,-48.21 191.16,-38.11 186.07,-30.16"/>
<polygon fill="#63b8ff" stroke="#63b8ff" points="200.56,-59.26 208.9,-65.8 206.45,-55.49 200.56,-59.26"/>
</a>
</g>
</g>
</g>
</svg>
</svg>

<style type='text/css'>
<![CDATA[
[data-mouse-over-selected='false'] { opacity: 0.7; }
[data-mouse-over-selected='true']  { opacity: 1.0; }
]]>
</style>
<script type="application/ecmascript"><![CDATA[
document.addEventListener('DOMContentLoaded', (event) => {
  highlightEdges();
  highlightAdjacentNodes();
});
]]></script>
</svg>
