<?xml version="1.0" encoding="UTF-8" standalone="no"?>
<!DOCTYPE svg PUBLIC "-//W3C//DTD SVG 1.1//EN"
 "http://www.w3.org/Graphics/SVG/1.1/DTD/svg11.dtd">
<!-- Generated by graphviz version 2.43.0 (0)
 -->
<!-- Title: projects/ad463x_fmcz/src/platform/xilinx/main.c Pages: 1 -->
<svg width="696pt" height="324pt"
 viewBox="0.00 0.00 696.00 324.00" xmlns="http://www.w3.org/2000/svg" xmlns:xlink="http://www.w3.org/1999/xlink">
<g id="graph0" class="graph" transform="scale(1 1) rotate(0) translate(4 320)">
<title>projects/ad463x_fmcz/src/platform/xilinx/main.c</title>
<!-- Node1 -->
<g id="Node000001" class="node">
<title>Node1</title>
<g id="a_Node000001"><a xlink:title="Main file for xilinx platform of ad463x_fmcz project.">
<polygon fill="#999999" stroke="#666666" points="571.5,-316 447.5,-316 447.5,-275 571.5,-275 571.5,-316"/>
<text text-anchor="start" x="455.5" y="-304" font-family="Helvetica,sans-Serif" font-size="10.00">projects/ad463x_fmcz</text>
<text text-anchor="start" x="455.5" y="-293" font-family="Helvetica,sans-Serif" font-size="10.00">/src/platform/xilinx</text>
<text text-anchor="middle" x="509.5" y="-282" font-family="Helvetica,sans-Serif" font-size="10.00">/main.c</text>
</a>
</g>
</g>
<!-- Node2 -->
<g id="Node000002" class="node">
<title>Node2</title>
<g id="a_Node000002"><a xlink:href="ad463x__fmcz_2src_2platform_2xilinx_2parameters_8h.html" target="_top" xlink:title="Definitions specific to xilinx platform used by ad463x_fmcz project.">
<polygon fill="white" stroke="#666666" points="398.5,-239 316.5,-239 316.5,-220 398.5,-220 398.5,-239"/>
<text text-anchor="middle" x="357.5" y="-227" font-family="Helvetica,sans-Serif" font-size="10.00">parameters.h</text>
</a>
</g>
</g>
<!-- Node1&#45;&gt;Node2 -->
<g id="edge1_Node000001_Node000002" class="edge">
<title>Node1&#45;&gt;Node2</title>
<g id="a_edge1_Node000001_Node000002"><a xlink:title=" ">
<path fill="none" stroke="#63b8ff" d="M463.07,-274.95C438.39,-264.56 408.78,-252.09 387.2,-243.01"/>
<polygon fill="#63b8ff" stroke="#63b8ff" points="388.48,-239.75 377.91,-239.09 385.76,-246.2 388.48,-239.75"/>
</a>
</g>
</g>
<!-- Node18 -->
<g id="Node000018" class="node">
<title>Node18</title>
<g id="a_Node000018"><a xlink:title=" ">
<polygon fill="#e0e0e0" stroke="#999999" points="557,-239 462,-239 462,-220 557,-220 557,-239"/>
<text text-anchor="middle" x="509.5" y="-227" font-family="Helvetica,sans-Serif" font-size="10.00">common_data.h</text>
</a>
</g>
</g>
<!-- Node1&#45;&gt;Node18 -->
<g id="edge28_Node000001_Node000018" class="edge">
<title>Node1&#45;&gt;Node18</title>
<g id="a_edge28_Node000001_Node000018"><a xlink:title=" ">
<path fill="none" stroke="#63b8ff" d="M509.5,-274.95C509.5,-266.85 509.5,-257.5 509.5,-249.47"/>
<polygon fill="#63b8ff" stroke="#63b8ff" points="513,-249.26 509.5,-239.26 506,-249.26 513,-249.26"/>
</a>
</g>
</g>
<!-- Node19 -->
<g id="Node000019" class="node">
<title>Node19</title>
<g id="a_Node000019"><a xlink:href="no__os__error_8h.html" target="_top" xlink:title="Error codes definition.">
<polygon fill="white" stroke="#666666" points="680.5,-239 598.5,-239 598.5,-220 680.5,-220 680.5,-239"/>
<text text-anchor="middle" x="639.5" y="-227" font-family="Helvetica,sans-Serif" font-size="10.00">no_os_error.h</text>
</a>
</g>
</g>
<!-- Node1&#45;&gt;Node19 -->
<g id="edge29_Node000001_Node000019" class="edge">
<title>Node1&#45;&gt;Node19</title>
<g id="a_edge29_Node000001_Node000019"><a xlink:title=" ">
<path fill="none" stroke="#63b8ff" d="M549.21,-274.95C569.84,-264.79 594.51,-252.65 612.84,-243.63"/>
<polygon fill="#63b8ff" stroke="#63b8ff" points="614.62,-246.65 622.05,-239.09 611.53,-240.37 614.62,-246.65"/>
</a>
</g>
</g>
<!-- Node3 -->
<g id="Node000003" class="node">
<title>Node3</title>
<g id="a_Node000003"><a xlink:title=" ">
<polygon fill="#e0e0e0" stroke="#999999" points="423.5,-184 373.5,-184 373.5,-165 423.5,-165 423.5,-184"/>
<text text-anchor="middle" x="398.5" y="-172" font-family="Helvetica,sans-Serif" font-size="10.00">stdio.h</text>
</a>
</g>
</g>
<!-- Node2&#45;&gt;Node3 -->
<g id="edge2_Node000002_Node000003" class="edge">
<title>Node2&#45;&gt;Node3</title>
<g id="a_edge2_Node000002_Node000003"><a xlink:title=" ">
<path fill="none" stroke="#63b8ff" d="M364.27,-219.75C370.06,-212.26 378.56,-201.28 385.64,-192.13"/>
<polygon fill="#63b8ff" stroke="#63b8ff" points="388.51,-194.14 391.86,-184.09 382.97,-189.86 388.51,-194.14"/>
</a>
</g>
</g>
<!-- Node4 -->
<g id="Node000004" class="node">
<title>Node4</title>
<g id="a_Node000004"><a xlink:title=" ">
<polygon fill="#e0e0e0" stroke="#999999" points="529.5,-184 441.5,-184 441.5,-165 529.5,-165 529.5,-184"/>
<text text-anchor="middle" x="485.5" y="-172" font-family="Helvetica,sans-Serif" font-size="10.00">xparameters.h</text>
</a>
</g>
</g>
<!-- Node2&#45;&gt;Node4 -->
<g id="edge3_Node000002_Node000004" class="edge">
<title>Node2&#45;&gt;Node4</title>
<g id="a_edge3_Node000002_Node000004"><a xlink:title=" ">
<path fill="none" stroke="#63b8ff" d="M378.07,-219.98C398.93,-211.34 431.47,-197.87 455.27,-188.02"/>
<polygon fill="#63b8ff" stroke="#63b8ff" points="456.66,-191.23 464.56,-184.17 453.98,-184.76 456.66,-191.23"/>
</a>
</g>
</g>
<!-- Node5 -->
<g id="Node000005" class="node">
<title>Node5</title>
<g id="a_Node000005"><a xlink:title=" ">
<polygon fill="#e0e0e0" stroke="#999999" points="619,-184 548,-184 548,-165 619,-165 619,-184"/>
<text text-anchor="middle" x="583.5" y="-172" font-family="Helvetica,sans-Serif" font-size="10.00">xil_cache.h</text>
</a>
</g>
</g>
<!-- Node2&#45;&gt;Node5 -->
<g id="edge4_Node000002_Node000005" class="edge">
<title>Node2&#45;&gt;Node5</title>
<g id="a_edge4_Node000002_Node000005"><a xlink:title=" ">
<path fill="none" stroke="#63b8ff" d="M393.81,-219.98C432.97,-210.8 495.39,-196.16 537.85,-186.21"/>
<polygon fill="#63b8ff" stroke="#63b8ff" points="538.72,-189.6 547.65,-183.91 537.12,-182.78 538.72,-189.6"/>
</a>
</g>
</g>
<!-- Node6 -->
<g id="Node000006" class="node">
<title>Node6</title>
<g id="a_Node000006"><a xlink:href="xilinx__uart_8h.html" target="_top" xlink:title=" ">
<polygon fill="white" stroke="#666666" points="97,-184 20,-184 20,-165 97,-165 97,-184"/>
<text text-anchor="middle" x="58.5" y="-172" font-family="Helvetica,sans-Serif" font-size="10.00">xilinx_uart.h</text>
</a>
</g>
</g>
<!-- Node2&#45;&gt;Node6 -->
<g id="edge5_Node000002_Node000006" class="edge">
<title>Node2&#45;&gt;Node6</title>
<g id="a_edge5_Node000002_Node000006"><a xlink:title=" ">
<path fill="none" stroke="#63b8ff" d="M316.24,-221.19C261.68,-211.52 165.67,-194.5 107.49,-184.18"/>
<polygon fill="#63b8ff" stroke="#63b8ff" points="107.9,-180.7 97.44,-182.4 106.68,-187.59 107.9,-180.7"/>
</a>
</g>
</g>
<!-- Node7 -->
<g id="Node000007" class="node">
<title>Node7</title>
<g id="a_Node000007"><a xlink:href="xilinx__gpio_8h.html" target="_top" xlink:title=" ">
<polygon fill="white" stroke="#666666" points="79,-74 0,-74 0,-55 79,-55 79,-74"/>
<text text-anchor="middle" x="39.5" y="-62" font-family="Helvetica,sans-Serif" font-size="10.00">xilinx_gpio.h</text>
</a>
</g>
</g>
<!-- Node2&#45;&gt;Node7 -->
<g id="edge6_Node000002_Node000007" class="edge">
<title>Node2&#45;&gt;Node7</title>
<g id="a_edge6_Node000002_Node000007"><a xlink:title=" ">
<path fill="none" stroke="#63b8ff" d="M332.4,-219.95C308.81,-211.65 272.71,-198.23 242.5,-184 173.71,-151.59 97.5,-103.57 61.13,-79.84"/>
<polygon fill="#63b8ff" stroke="#63b8ff" points="62.64,-76.65 52.36,-74.09 58.8,-82.51 62.64,-76.65"/>
</a>
</g>
</g>
<!-- Node10 -->
<g id="Node000010" class="node">
<title>Node10</title>
<g id="a_Node000010"><a xlink:href="axi__pwm__extra_8h.html" target="_top" xlink:title=" ">
<polygon fill="white" stroke="#666666" points="255,-129 154,-129 154,-110 255,-110 255,-129"/>
<text text-anchor="middle" x="204.5" y="-117" font-family="Helvetica,sans-Serif" font-size="10.00">axi_pwm_extra.h</text>
</a>
</g>
</g>
<!-- Node2&#45;&gt;Node10 -->
<g id="edge9_Node000002_Node000010" class="edge">
<title>Node2&#45;&gt;Node10</title>
<g id="a_edge9_Node000002_Node000010"><a xlink:title=" ">
<path fill="none" stroke="#63b8ff" d="M335.56,-219.86C316.85,-211.96 289.69,-199.21 268.5,-184 249.34,-170.24 230.55,-150.67 218.35,-136.91"/>
<polygon fill="#63b8ff" stroke="#63b8ff" points="220.85,-134.45 211.65,-129.19 215.56,-139.03 220.85,-134.45"/>
</a>
</g>
</g>
<!-- Node12 -->
<g id="Node000012" class="node">
<title>Node12</title>
<g id="a_Node000012"><a xlink:href="spi__engine_8h.html" target="_top" xlink:title=" ">
<polygon fill="white" stroke="#666666" points="355.5,-184 277.5,-184 277.5,-165 355.5,-165 355.5,-184"/>
<text text-anchor="middle" x="316.5" y="-172" font-family="Helvetica,sans-Serif" font-size="10.00">spi_engine.h</text>
</a>
</g>
</g>
<!-- Node2&#45;&gt;Node12 -->
<g id="edge14_Node000002_Node000012" class="edge">
<title>Node2&#45;&gt;Node12</title>
<g id="a_edge14_Node000002_Node000012"><a xlink:title=" ">
<path fill="none" stroke="#63b8ff" d="M350.73,-219.75C344.94,-212.26 336.44,-201.28 329.36,-192.13"/>
<polygon fill="#63b8ff" stroke="#63b8ff" points="332.03,-189.86 323.14,-184.09 326.49,-194.14 332.03,-189.86"/>
</a>
</g>
</g>
<!-- Node8 -->
<g id="Node000008" class="node">
<title>Node8</title>
<g id="a_Node000008"><a xlink:title=" ">
<polygon fill="#e0e0e0" stroke="#999999" points="343,-19 290,-19 290,0 343,0 343,-19"/>
<text text-anchor="middle" x="316.5" y="-7" font-family="Helvetica,sans-Serif" font-size="10.00">stdint.h</text>
</a>
</g>
</g>
<!-- Node7&#45;&gt;Node8 -->
<g id="edge7_Node000007_Node000008" class="edge">
<title>Node7&#45;&gt;Node8</title>
<g id="a_edge7_Node000007_Node000008"><a xlink:title=" ">
<path fill="none" stroke="#63b8ff" d="M79.19,-55.91C132.79,-45.65 227.59,-27.51 279.68,-17.55"/>
<polygon fill="#63b8ff" stroke="#63b8ff" points="280.64,-20.92 289.81,-15.61 279.33,-14.05 280.64,-20.92"/>
</a>
</g>
</g>
<!-- Node9 -->
<g id="Node000009" class="node">
<title>Node9</title>
<g id="a_Node000009"><a xlink:title=" ">
<polygon fill="#e0e0e0" stroke="#999999" points="236.5,-19 174.5,-19 174.5,0 236.5,0 236.5,-19"/>
<text text-anchor="middle" x="205.5" y="-7" font-family="Helvetica,sans-Serif" font-size="10.00">stdbool.h</text>
</a>
</g>
</g>
<!-- Node7&#45;&gt;Node9 -->
<g id="edge8_Node000007_Node000009" class="edge">
<title>Node7&#45;&gt;Node9</title>
<g id="a_edge8_Node000007_Node000009"><a xlink:title=" ">
<path fill="none" stroke="#63b8ff" d="M66.17,-54.98C94.04,-46.09 137.95,-32.07 169.02,-22.15"/>
<polygon fill="#63b8ff" stroke="#63b8ff" points="170.16,-25.46 178.62,-19.08 168.03,-18.79 170.16,-25.46"/>
</a>
</g>
</g>
<!-- Node10&#45;&gt;Node8 -->
<g id="edge10_Node000010_Node000008" class="edge">
<title>Node10&#45;&gt;Node8</title>
<g id="a_edge10_Node000010_Node000008"><a xlink:title=" ">
<path fill="none" stroke="#63b8ff" d="M213.67,-109.66C232.63,-91.38 276.39,-49.18 300.25,-26.17"/>
<polygon fill="#63b8ff" stroke="#63b8ff" points="302.75,-28.62 307.52,-19.16 297.89,-23.58 302.75,-28.62"/>
</a>
</g>
</g>
<!-- Node11 -->
<g id="Node000011" class="node">
<title>Node11</title>
<g id="a_Node000011"><a xlink:href="no__os__pwm_8h.html" target="_top" xlink:title="Header file of PWM Interface.">
<polygon fill="white" stroke="#666666" points="180,-74 97,-74 97,-55 180,-55 180,-74"/>
<text text-anchor="middle" x="138.5" y="-62" font-family="Helvetica,sans-Serif" font-size="10.00">no_os_pwm.h</text>
</a>
</g>
</g>
<!-- Node10&#45;&gt;Node11 -->
<g id="edge11_Node000010_Node000011" class="edge">
<title>Node10&#45;&gt;Node11</title>
<g id="a_edge11_Node000010_Node000011"><a xlink:title=" ">
<path fill="none" stroke="#63b8ff" d="M193.9,-109.98C184.04,-102.07 169.15,-90.11 157.28,-80.58"/>
<polygon fill="#63b8ff" stroke="#63b8ff" points="159.29,-77.7 149.3,-74.17 154.9,-83.16 159.29,-77.7"/>
</a>
</g>
</g>
<!-- Node11&#45;&gt;Node8 -->
<g id="edge12_Node000011_Node000008" class="edge">
<title>Node11&#45;&gt;Node8</title>
<g id="a_edge12_Node000011_Node000008"><a xlink:title=" ">
<path fill="none" stroke="#63b8ff" d="M167.1,-54.98C197.74,-45.86 246.45,-31.36 279.87,-21.41"/>
<polygon fill="#63b8ff" stroke="#63b8ff" points="281.13,-24.68 289.72,-18.47 279.14,-17.97 281.13,-24.68"/>
</a>
</g>
</g>
<!-- Node11&#45;&gt;Node9 -->
<g id="edge13_Node000011_Node000009" class="edge">
<title>Node11&#45;&gt;Node9</title>
<g id="a_edge13_Node000011_Node000009"><a xlink:title=" ">
<path fill="none" stroke="#63b8ff" d="M149.26,-54.98C159.27,-47.07 174.39,-35.11 186.43,-25.58"/>
<polygon fill="#63b8ff" stroke="#63b8ff" points="188.87,-28.12 194.54,-19.17 184.53,-22.63 188.87,-28.12"/>
</a>
</g>
</g>
<!-- Node12&#45;&gt;Node8 -->
<g id="edge15_Node000012_Node000008" class="edge">
<title>Node12&#45;&gt;Node8</title>
<g id="a_edge15_Node000012_Node000008"><a xlink:title=" ">
<path fill="none" stroke="#63b8ff" d="M355.89,-165.7C404.48,-155.73 481.86,-138.64 491.5,-129 515.17,-105.33 526.28,-81.24 505.5,-55 486.84,-31.44 402.48,-19.11 352.99,-13.8"/>
<polygon fill="#63b8ff" stroke="#63b8ff" points="353.31,-10.31 343,-12.77 352.59,-17.27 353.31,-10.31"/>
</a>
</g>
</g>
<!-- Node13 -->
<g id="Node000013" class="node">
<title>Node13</title>
<g id="a_Node000013"><a xlink:href="spi__engine__private_8h.html" target="_top" xlink:title=" ">
<polygon fill="white" stroke="#666666" points="391.5,-129 273.5,-129 273.5,-110 391.5,-110 391.5,-129"/>
<text text-anchor="middle" x="332.5" y="-117" font-family="Helvetica,sans-Serif" font-size="10.00">spi_engine_private.h</text>
</a>
</g>
</g>
<!-- Node12&#45;&gt;Node13 -->
<g id="edge16_Node000012_Node000013" class="edge">
<title>Node12&#45;&gt;Node13</title>
<g id="a_edge16_Node000012_Node000013"><a xlink:title=" ">
<path fill="none" stroke="#63b8ff" d="M319.14,-164.75C321.26,-157.72 324.31,-147.62 326.96,-138.84"/>
<polygon fill="#63b8ff" stroke="#63b8ff" points="330.37,-139.67 329.91,-129.09 323.67,-137.65 330.37,-139.67"/>
</a>
</g>
</g>
<!-- Node17 -->
<g id="Node000017" class="node">
<title>Node17</title>
<g id="a_Node000017"><a xlink:href="axi__dmac_8h.html" target="_top" xlink:title="Driver for the Analog Devices AXI&#45;DMAC core.">
<polygon fill="white" stroke="#666666" points="483,-129 410,-129 410,-110 483,-110 483,-129"/>
<text text-anchor="middle" x="446.5" y="-117" font-family="Helvetica,sans-Serif" font-size="10.00">axi_dmac.h</text>
</a>
</g>
</g>
<!-- Node12&#45;&gt;Node17 -->
<g id="edge25_Node000012_Node000017" class="edge">
<title>Node12&#45;&gt;Node17</title>
<g id="a_edge25_Node000012_Node000017"><a xlink:title=" ">
<path fill="none" stroke="#63b8ff" d="M337.39,-164.98C358.58,-156.34 391.63,-142.87 415.8,-133.02"/>
<polygon fill="#63b8ff" stroke="#63b8ff" points="417.29,-136.19 425.23,-129.17 414.65,-129.7 417.29,-136.19"/>
</a>
</g>
</g>
<!-- Node13&#45;&gt;Node8 -->
<g id="edge17_Node000013_Node000008" class="edge">
<title>Node13&#45;&gt;Node8</title>
<g id="a_edge17_Node000013_Node000008"><a xlink:title=" ">
<path fill="none" stroke="#63b8ff" d="M324.56,-109.75C317.47,-101.3 307.6,-87.79 303.5,-74 299.04,-59 303.26,-41.56 308.05,-28.75"/>
<polygon fill="#63b8ff" stroke="#63b8ff" points="311.4,-29.82 312.03,-19.25 304.94,-27.12 311.4,-29.82"/>
</a>
</g>
</g>
<!-- Node13&#45;&gt;Node9 -->
<g id="edge18_Node000013_Node000009" class="edge">
<title>Node13&#45;&gt;Node9</title>
<g id="a_edge18_Node000013_Node000009"><a xlink:title=" ">
<path fill="none" stroke="#63b8ff" d="M322.11,-109.66C300.51,-91.3 250.55,-48.81 223.57,-25.87"/>
<polygon fill="#63b8ff" stroke="#63b8ff" points="225.57,-22.97 215.68,-19.16 221.03,-28.3 225.57,-22.97"/>
</a>
</g>
</g>
<!-- Node14 -->
<g id="Node000014" class="node">
<title>Node14</title>
<g id="a_Node000014"><a xlink:href="no__os__spi_8h.html" target="_top" xlink:title="Header file of SPI Interface.">
<polygon fill="white" stroke="#666666" points="386.5,-74 312.5,-74 312.5,-55 386.5,-55 386.5,-74"/>
<text text-anchor="middle" x="349.5" y="-62" font-family="Helvetica,sans-Serif" font-size="10.00">no_os_spi.h</text>
</a>
</g>
</g>
<!-- Node13&#45;&gt;Node14 -->
<g id="edge19_Node000013_Node000014" class="edge">
<title>Node13&#45;&gt;Node14</title>
<g id="a_edge19_Node000013_Node000014"><a xlink:title=" ">
<path fill="none" stroke="#63b8ff" d="M335.31,-109.75C337.56,-102.72 340.8,-92.62 343.62,-83.84"/>
<polygon fill="#63b8ff" stroke="#63b8ff" points="347.02,-84.68 346.75,-74.09 340.36,-82.54 347.02,-84.68"/>
</a>
</g>
</g>
<!-- Node15 -->
<g id="Node000015" class="node">
<title>Node15</title>
<g id="a_Node000015"><a xlink:href="no__os__util_8h.html" target="_top" xlink:title="Header file of utility functions.">
<polygon fill="white" stroke="#666666" points="480,-74 405,-74 405,-55 480,-55 480,-74"/>
<text text-anchor="middle" x="442.5" y="-62" font-family="Helvetica,sans-Serif" font-size="10.00">no_os_util.h</text>
</a>
</g>
</g>
<!-- Node13&#45;&gt;Node15 -->
<g id="edge21_Node000013_Node000015" class="edge">
<title>Node13&#45;&gt;Node15</title>
<g id="a_edge21_Node000013_Node000015"><a xlink:title=" ">
<path fill="none" stroke="#63b8ff" d="M350.17,-109.98C367.79,-101.5 395.08,-88.35 415.43,-78.54"/>
<polygon fill="#63b8ff" stroke="#63b8ff" points="417.02,-81.66 424.51,-74.17 413.98,-75.36 417.02,-81.66"/>
</a>
</g>
</g>
<!-- Node14&#45;&gt;Node8 -->
<g id="edge20_Node000014_Node000008" class="edge">
<title>Node14&#45;&gt;Node8</title>
<g id="a_edge20_Node000014_Node000008"><a xlink:title=" ">
<path fill="none" stroke="#63b8ff" d="M344.05,-54.75C339.49,-47.42 332.83,-36.73 327.21,-27.7"/>
<polygon fill="#63b8ff" stroke="#63b8ff" points="330.1,-25.73 321.85,-19.09 324.16,-29.43 330.1,-25.73"/>
</a>
</g>
</g>
<!-- Node15&#45;&gt;Node8 -->
<g id="edge22_Node000015_Node000008" class="edge">
<title>Node15&#45;&gt;Node8</title>
<g id="a_edge22_Node000015_Node000008"><a xlink:title=" ">
<path fill="none" stroke="#63b8ff" d="M422.26,-54.98C401.8,-46.38 369.97,-32.99 346.57,-23.15"/>
<polygon fill="#63b8ff" stroke="#63b8ff" points="347.69,-19.82 337.11,-19.17 344.97,-26.27 347.69,-19.82"/>
</a>
</g>
</g>
<!-- Node15&#45;&gt;Node9 -->
<g id="edge24_Node000015_Node000009" class="edge">
<title>Node15&#45;&gt;Node9</title>
<g id="a_edge24_Node000015_Node000009"><a xlink:title=" ">
<path fill="none" stroke="#63b8ff" d="M404.95,-55.1C361.84,-45.46 291.35,-29.7 246.75,-19.72"/>
<polygon fill="#63b8ff" stroke="#63b8ff" points="247.35,-16.27 236.82,-17.5 245.82,-23.1 247.35,-16.27"/>
</a>
</g>
</g>
<!-- Node16 -->
<g id="Node000016" class="node">
<title>Node16</title>
<g id="a_Node000016"><a xlink:title=" ">
<polygon fill="#e0e0e0" stroke="#999999" points="469,-19 416,-19 416,0 469,0 469,-19"/>
<text text-anchor="middle" x="442.5" y="-7" font-family="Helvetica,sans-Serif" font-size="10.00">stdlib.h</text>
</a>
</g>
</g>
<!-- Node15&#45;&gt;Node16 -->
<g id="edge23_Node000015_Node000016" class="edge">
<title>Node15&#45;&gt;Node16</title>
<g id="a_edge23_Node000015_Node000016"><a xlink:title=" ">
<path fill="none" stroke="#63b8ff" d="M442.5,-54.75C442.5,-47.8 442.5,-37.85 442.5,-29.13"/>
<polygon fill="#63b8ff" stroke="#63b8ff" points="446,-29.09 442.5,-19.09 439,-29.09 446,-29.09"/>
</a>
</g>
</g>
<!-- Node17&#45;&gt;Node8 -->
<g id="edge26_Node000017_Node000008" class="edge">
<title>Node17&#45;&gt;Node8</title>
<g id="a_edge26_Node000017_Node000008"><a xlink:title=" ">
<path fill="none" stroke="#63b8ff" d="M459.54,-109.8C476.68,-97.3 502.98,-73.71 488.5,-55 472.08,-33.79 398.56,-20.86 353.12,-14.75"/>
<polygon fill="#63b8ff" stroke="#63b8ff" points="353.42,-11.26 343.05,-13.44 352.52,-18.2 353.42,-11.26"/>
</a>
</g>
</g>
<!-- Node17&#45;&gt;Node15 -->
<g id="edge27_Node000017_Node000015" class="edge">
<title>Node17&#45;&gt;Node15</title>
<g id="a_edge27_Node000017_Node000015"><a xlink:title=" ">
<path fill="none" stroke="#63b8ff" d="M445.84,-109.75C445.32,-102.8 444.56,-92.85 443.91,-84.13"/>
<polygon fill="#63b8ff" stroke="#63b8ff" points="447.39,-83.8 443.15,-74.09 440.41,-84.32 447.39,-83.8"/>
</a>
</g>
</g>
<!-- Node20 -->
<g id="Node000020" class="node">
<title>Node20</title>
<g id="a_Node000020"><a xlink:href="errno_8h.html" target="_top" xlink:title="Error macro definition for ARM Compiler.">
<polygon fill="white" stroke="#666666" points="688,-184 637,-184 637,-165 688,-165 688,-184"/>
<text text-anchor="middle" x="662.5" y="-172" font-family="Helvetica,sans-Serif" font-size="10.00">errno.h</text>
</a>
</g>
</g>
<!-- Node19&#45;&gt;Node20 -->
<g id="edge30_Node000019_Node000020" class="edge">
<title>Node19&#45;&gt;Node20</title>
<g id="a_edge30_Node000019_Node000020"><a xlink:title=" ">
<path fill="none" stroke="#63b8ff" d="M643.3,-219.75C646.41,-212.57 650.92,-202.18 654.79,-193.27"/>
<polygon fill="#63b8ff" stroke="#63b8ff" points="658,-194.66 658.77,-184.09 651.58,-191.87 658,-194.66"/>
</a>
</g>
</g>
</g>
</svg>
