<?xml version="1.0" encoding="UTF-8" standalone="no"?>
<!DOCTYPE svg PUBLIC "-//W3C//DTD SVG 1.1//EN"
 "http://www.w3.org/Graphics/SVG/1.1/DTD/svg11.dtd">
<!-- Generated by graphviz version 2.43.0 (0)
 -->
<!-- Title: drivers/adc/ad469x/ad469x.h Pages: 1 -->
<svg width="669pt" height="181pt"
 viewBox="0.00 0.00 669.00 181.00" xmlns="http://www.w3.org/2000/svg" xmlns:xlink="http://www.w3.org/1999/xlink">
<g id="graph0" class="graph" transform="scale(1 1) rotate(0) translate(4 177)">
<title>drivers/adc/ad469x/ad469x.h</title>
<!-- Node1 -->
<g id="Node000001" class="node">
<title>Node1</title>
<g id="a_Node000001"><a xlink:title="Header file for ad469x Driver.">
<polygon fill="#999999" stroke="#666666" points="302,-173 192,-173 192,-143 302,-143 302,-173"/>
<text text-anchor="start" x="200" y="-161" font-family="Helvetica,sans-Serif" font-size="10.00">drivers/adc/ad469x</text>
<text text-anchor="middle" x="247" y="-150" font-family="Helvetica,sans-Serif" font-size="10.00">/ad469x.h</text>
</a>
</g>
</g>
<!-- Node2 -->
<g id="Node000002" class="node">
<title>Node2</title>
<g id="a_Node000002"><a xlink:href="ad469x_8c.html" target="_top" xlink:title="Implementation of ad69x Driver.">
<polygon fill="white" stroke="#666666" points="110,-101.5 0,-101.5 0,-71.5 110,-71.5 110,-101.5"/>
<text text-anchor="start" x="8" y="-89.5" font-family="Helvetica,sans-Serif" font-size="10.00">drivers/adc/ad469x</text>
<text text-anchor="middle" x="55" y="-78.5" font-family="Helvetica,sans-Serif" font-size="10.00">/ad469x.c</text>
</a>
</g>
</g>
<!-- Node1&#45;&gt;Node2 -->
<g id="edge1_Node000001_Node000002" class="edge">
<title>Node1&#45;&gt;Node2</title>
<g id="a_edge1_Node000001_Node000002"><a xlink:title=" ">
<path fill="none" stroke="#63b8ff" d="M198.42,-139.42C166.01,-127.68 123.97,-112.47 93.8,-101.54"/>
<polygon fill="#63b8ff" stroke="#63b8ff" points="197.55,-142.82 208.15,-142.94 199.93,-136.24 197.55,-142.82"/>
</a>
</g>
</g>
<!-- Node3 -->
<g id="Node000003" class="node">
<title>Node3</title>
<g id="a_Node000003"><a xlink:href="ad469x__evb_2src_2common_2common__data_8c.html" target="_top" xlink:title="Defines common data to be used by ad469x_evb examples.">
<polygon fill="white" stroke="#666666" points="272.5,-30 111.5,-30 111.5,0 272.5,0 272.5,-30"/>
<text text-anchor="start" x="119.5" y="-18" font-family="Helvetica,sans-Serif" font-size="10.00">projects/ad469x_evb</text>
<text text-anchor="middle" x="192" y="-7" font-family="Helvetica,sans-Serif" font-size="10.00">/src/common/common_data.c</text>
</a>
</g>
</g>
<!-- Node1&#45;&gt;Node3 -->
<g id="edge2_Node000001_Node000003" class="edge">
<title>Node1&#45;&gt;Node3</title>
<g id="a_edge2_Node000001_Node000003"><a xlink:title=" ">
<path fill="none" stroke="#63b8ff" d="M193.16,-138.41C179.27,-130.9 166,-120.68 158,-107 143.18,-81.67 164.21,-48.73 179.21,-30.23"/>
<polygon fill="#63b8ff" stroke="#63b8ff" points="191.8,-141.65 202.32,-142.97 194.92,-135.38 191.8,-141.65"/>
</a>
</g>
</g>
<!-- Node4 -->
<g id="Node000004" class="node">
<title>Node4</title>
<g id="a_Node000004"><a xlink:href="ad469x__evb_2src_2common_2common__data_8h.html" target="_top" xlink:title="Defines common data to be used by ad469x_evb examples.">
<polygon fill="white" stroke="#666666" points="327.5,-101.5 166.5,-101.5 166.5,-71.5 327.5,-71.5 327.5,-101.5"/>
<text text-anchor="start" x="174.5" y="-89.5" font-family="Helvetica,sans-Serif" font-size="10.00">projects/ad469x_evb</text>
<text text-anchor="middle" x="247" y="-78.5" font-family="Helvetica,sans-Serif" font-size="10.00">/src/common/common_data.h</text>
</a>
</g>
</g>
<!-- Node1&#45;&gt;Node4 -->
<g id="edge3_Node000001_Node000004" class="edge">
<title>Node1&#45;&gt;Node4</title>
<g id="a_edge3_Node000001_Node000004"><a xlink:title=" ">
<path fill="none" stroke="#63b8ff" d="M247,-132.75C247,-122.31 247,-110.49 247,-101.54"/>
<polygon fill="#63b8ff" stroke="#63b8ff" points="243.5,-132.94 247,-142.94 250.5,-132.94 243.5,-132.94"/>
</a>
</g>
</g>
<!-- Node5 -->
<g id="Node000005" class="node">
<title>Node5</title>
<g id="a_Node000005"><a xlink:href="ad469x__evb_2src_2examples_2basic__example_2basic__example_8c.html" target="_top" xlink:title="Implementation of Basic example.">
<polygon fill="white" stroke="#666666" points="494.5,-107 345.5,-107 345.5,-66 494.5,-66 494.5,-107"/>
<text text-anchor="start" x="353.5" y="-95" font-family="Helvetica,sans-Serif" font-size="10.00">projects/ad469x_evb</text>
<text text-anchor="start" x="353.5" y="-84" font-family="Helvetica,sans-Serif" font-size="10.00">/src/examples/basic</text>
<text text-anchor="middle" x="420" y="-73" font-family="Helvetica,sans-Serif" font-size="10.00">_example/basic_example.c</text>
</a>
</g>
</g>
<!-- Node1&#45;&gt;Node5 -->
<g id="edge5_Node000001_Node000005" class="edge">
<title>Node1&#45;&gt;Node5</title>
<g id="a_edge5_Node000001_Node000005"><a xlink:title=" ">
<path fill="none" stroke="#63b8ff" d="M291.4,-139.16C315.83,-129.35 346.19,-117.15 371.28,-107.07"/>
<polygon fill="#63b8ff" stroke="#63b8ff" points="289.98,-135.96 282.01,-142.94 292.59,-142.46 289.98,-135.96"/>
</a>
</g>
</g>
<!-- Node6 -->
<g id="Node000006" class="node">
<title>Node6</title>
<g id="a_Node000006"><a xlink:href="ad469x__evb_2src_2examples_2iio__example_2iio__example_8c.html" target="_top" xlink:title="Implementation of IIO example for ad469x_evb project.">
<polygon fill="white" stroke="#666666" points="661,-107 513,-107 513,-66 661,-66 661,-107"/>
<text text-anchor="start" x="521" y="-95" font-family="Helvetica,sans-Serif" font-size="10.00">projects/ad469x_evb</text>
<text text-anchor="start" x="521" y="-84" font-family="Helvetica,sans-Serif" font-size="10.00">/src/examples/iio_example</text>
<text text-anchor="middle" x="587" y="-73" font-family="Helvetica,sans-Serif" font-size="10.00">/iio_example.c</text>
</a>
</g>
</g>
<!-- Node1&#45;&gt;Node6 -->
<g id="edge6_Node000001_Node000006" class="edge">
<title>Node1&#45;&gt;Node6</title>
<g id="a_edge6_Node000001_Node000006"><a xlink:title=" ">
<path fill="none" stroke="#63b8ff" d="M312.37,-145C364.39,-135.28 439,-120.95 504,-107 506.89,-106.38 509.84,-105.74 512.82,-105.08"/>
<polygon fill="#63b8ff" stroke="#63b8ff" points="311.46,-141.61 302.27,-146.88 312.74,-148.49 311.46,-141.61"/>
</a>
</g>
</g>
<!-- Node4&#45;&gt;Node3 -->
<g id="edge4_Node000004_Node000003" class="edge">
<title>Node4&#45;&gt;Node3</title>
<g id="a_edge4_Node000004_Node000003"><a xlink:title=" ">
<path fill="none" stroke="#63b8ff" d="M229.61,-63.53C220.94,-52.57 210.71,-39.65 203.11,-30.04"/>
<polygon fill="#63b8ff" stroke="#63b8ff" points="226.92,-65.77 235.87,-71.44 232.41,-61.42 226.92,-65.77"/>
</a>
</g>
</g>
</g>
</svg>
