<?xml version="1.0" encoding="UTF-8" standalone="no"?>
<!DOCTYPE svg PUBLIC "-//W3C//DTD SVG 1.1//EN"
 "http://www.w3.org/Graphics/SVG/1.1/DTD/svg11.dtd">
<!-- Generated by graphviz version 2.43.0 (0)
 -->
<!-- Title: projects/ad463x_fmcz/src/examples/iio_example/iio_example.c Pages: 1 -->
<!--zoomable 324 -->

<svg id="main" version="1.1" xmlns="http://www.w3.org/2000/svg" xmlns:xlink="http://www.w3.org/1999/xlink" xml:space="preserve" onload="init(evt)">

<style type="text/css"><![CDATA[
.node, .edge {opacity: 0.7;}
.node.selected, .edge.selected {opacity: 1;}
.edge:hover path { stroke: red; }
.edge:hover polygon { stroke: red; fill: red; }
]]></style>

<defs>
  <circle id="rim" cx="0" cy="0" r="7"/>
  <circle id="rim2" cx="0" cy="0" r="3.5"/>
  <g id="zoomPlus">
    <use xlink:href="#rim" fill="#404040"><set attributeName="fill" to="#808080" begin="zoomplus.mouseover" end="zoomplus.mouseout"/></use>
    <path d="M-4,0h8M0,-4v8" fill="none" stroke="white" stroke-width="1.5" pointer-events="none"/>
  </g>
  <g id="zoomMin">
    <use xlink:href="#rim" fill="#404040"><set attributeName="fill" to="#808080" begin="zoomminus.mouseover" end="zoomminus.mouseout"/></use>
    <path d="M-4,0h8" fill="none" stroke="white" stroke-width="1.5" pointer-events="none"/>
  </g>
  <g id="arrowUp" transform="translate(30 24)">
    <use xlink:href="#rim"/>
    <path pointer-events="none" fill="none" stroke="white" stroke-width="1.5" d="M0,-3.0v7 M-2.5,-0.5L0,-3.0L2.5,-0.5"/>
  </g>
  <g id="arrowRight" transform="rotate(90) translate(36 -43)">
    <use xlink:href="#rim"/>
    <path pointer-events="none" fill="none" stroke="white" stroke-width="1.5" d="M0,-3.0v7 M-2.5,-0.5L0,-3.0L2.5,-0.5"/>
  </g>
  <g id="arrowDown" transform="rotate(180) translate(-30 -48)">
    <use xlink:href="#rim"/>
    <path pointer-events="none" fill="none" stroke="white" stroke-width="1.5" d="M0,-3.0v7 M-2.5,-0.5L0,-3.0L2.5,-0.5"/>
  </g>
  <g id="arrowLeft" transform="rotate(270) translate(-36 17)">
    <use xlink:href="#rim"/>
    <path pointer-events="none" fill="none" stroke="white" stroke-width="1.5" d="M0,-3.0v7 M-2.5,-0.5L0,-3.0L2.5,-0.5"/>
  </g>
  <g id="resetDef">
    <use xlink:href="#rim2" fill="#404040"><set attributeName="fill" to="#808080" begin="reset.mouseover" end="reset.mouseout"/></use>
  </g>
</defs>
<script type="application/ecmascript">
var viewWidth = 742;
var viewHeight = 324;
var sectionId = 'dynsection-0';
</script>
<script type="application/ecmascript" xlink:href="svg.min.js"/>
<svg id="graph" class="graph">
<g id="viewport">
<title>projects/ad463x_fmcz/src/examples/iio_example/iio_example.c</title>
<!-- Node1 -->
<g id="Node000001" class="node">
<title>Node1</title>
<g id="a_Node000001"><a xlink:title="IIO example header for ad463x_fmcz project.">
<polygon fill="#999999" stroke="#666666" points="370,-316 222,-316 222,-275 370,-275 370,-316"/>
<text text-anchor="start" x="230" y="-304" font-family="Helvetica,sans-Serif" font-size="10.00">projects/ad463x_fmcz</text>
<text text-anchor="start" x="230" y="-293" font-family="Helvetica,sans-Serif" font-size="10.00">/src/examples/iio_example</text>
<text text-anchor="middle" x="296" y="-282" font-family="Helvetica,sans-Serif" font-size="10.00">/iio_example.c</text>
</a>
</g>
</g>
<!-- Node2 -->
<g id="Node000002" class="node">
<title>Node2</title>
<g id="a_Node000002"><a xlink:title=" ">
<polygon fill="#e0e0e0" stroke="#999999" points="50,-239 0,-239 0,-220 50,-220 50,-239"/>
<text text-anchor="middle" x="25" y="-227" font-family="Helvetica,sans-Serif" font-size="10.00">stdio.h</text>
</a>
</g>
</g>
<!-- Node1&#45;&gt;Node2 -->
<g id="edge1_Node000001_Node000002" class="edge">
<title>Node1&#45;&gt;Node2</title>
<g id="a_edge1_Node000001_Node000002"><a xlink:title=" ">
<path fill="none" stroke="#63b8ff" d="M221.74,-277.41C177.46,-267.15 119.87,-253.68 60.22,-239.27"/>
<polygon fill="#63b8ff" stroke="#63b8ff" points="60.78,-235.81 50.24,-236.85 59.14,-242.61 60.78,-235.81"/>
</a>
</g>
</g>
<!-- Node3 -->
<g id="Node000003" class="node">
<title>Node3</title>
<g id="a_Node000003"><a xlink:href="ad463x__fmcz_2src_2examples_2iio__example_2iio__example_8h.html" target="_top" xlink:title="IIO example header for ad463x_fmcz project.">
<polygon fill="white" stroke="#666666" points="154,-239 68,-239 68,-220 154,-220 154,-239"/>
<text text-anchor="middle" x="111" y="-227" font-family="Helvetica,sans-Serif" font-size="10.00">iio_example.h</text>
</a>
</g>
</g>
<!-- Node1&#45;&gt;Node3 -->
<g id="edge2_Node000001_Node000003" class="edge">
<title>Node1&#45;&gt;Node3</title>
<g id="a_edge2_Node000001_Node000003"><a xlink:title=" ">
<path fill="none" stroke="#63b8ff" d="M239.49,-274.95C208.77,-264.32 171.78,-251.53 145.39,-242.4"/>
<polygon fill="#63b8ff" stroke="#63b8ff" points="146.43,-239.05 135.84,-239.09 144.14,-245.67 146.43,-239.05"/>
</a>
</g>
</g>
<!-- Node4 -->
<g id="Node000004" class="node">
<title>Node4</title>
<g id="a_Node000004"><a xlink:title=" ">
<polygon fill="#e0e0e0" stroke="#999999" points="267.5,-239 172.5,-239 172.5,-220 267.5,-220 267.5,-239"/>
<text text-anchor="middle" x="220" y="-227" font-family="Helvetica,sans-Serif" font-size="10.00">common_data.h</text>
</a>
</g>
</g>
<!-- Node1&#45;&gt;Node4 -->
<g id="edge3_Node000001_Node000004" class="edge">
<title>Node1&#45;&gt;Node4</title>
<g id="a_edge3_Node000001_Node000004"><a xlink:title=" ">
<path fill="none" stroke="#63b8ff" d="M272.78,-274.95C261.62,-265.55 248.45,-254.46 238.05,-245.7"/>
<polygon fill="#63b8ff" stroke="#63b8ff" points="240.31,-243.02 230.4,-239.26 235.8,-248.38 240.31,-243.02"/>
</a>
</g>
</g>
<!-- Node5 -->
<g id="Node000005" class="node">
<title>Node5</title>
<g id="a_Node000005"><a xlink:href="iio_8h.html" target="_top" xlink:title="Header file of iio.">
<polygon fill="white" stroke="#666666" points="451,-184 413,-184 413,-165 451,-165 451,-184"/>
<text text-anchor="middle" x="432" y="-172" font-family="Helvetica,sans-Serif" font-size="10.00">iio.h</text>
</a>
</g>
</g>
<!-- Node1&#45;&gt;Node5 -->
<g id="edge4_Node000001_Node000005" class="edge">
<title>Node1&#45;&gt;Node5</title>
<g id="a_edge4_Node000001_Node000005"><a xlink:title=" ">
<path fill="none" stroke="#63b8ff" d="M360.04,-274.99C378.95,-266.54 398.24,-254.85 412,-239 422.77,-226.59 427.75,-208.38 430.04,-194.63"/>
<polygon fill="#63b8ff" stroke="#63b8ff" points="433.56,-194.74 431.41,-184.37 426.62,-193.82 433.56,-194.74"/>
</a>
</g>
</g>
<!-- Node13 -->
<g id="Node000013" class="node">
<title>Node13</title>
<g id="a_Node000013"><a xlink:href="iio__ad463x_8h.html" target="_top" xlink:title="Header file of iio_ad463x.">
<polygon fill="white" stroke="#666666" points="403.5,-239 324.5,-239 324.5,-220 403.5,-220 403.5,-239"/>
<text text-anchor="middle" x="364" y="-227" font-family="Helvetica,sans-Serif" font-size="10.00">iio_ad463x.h</text>
</a>
</g>
</g>
<!-- Node1&#45;&gt;Node13 -->
<g id="edge17_Node000001_Node000013" class="edge">
<title>Node1&#45;&gt;Node13</title>
<g id="a_edge17_Node000001_Node000013"><a xlink:title=" ">
<path fill="none" stroke="#63b8ff" d="M316.77,-274.95C326.56,-265.74 338.08,-254.9 347.29,-246.23"/>
<polygon fill="#63b8ff" stroke="#63b8ff" points="349.81,-248.66 354.69,-239.26 345.01,-243.57 349.81,-248.66"/>
</a>
</g>
</g>
<!-- Node14 -->
<g id="Node000014" class="node">
<title>Node14</title>
<g id="a_Node000014"><a xlink:href="no__os__util_8h.html" target="_top" xlink:title="Header file of utility functions.">
<polygon fill="white" stroke="#666666" points="285.5,-74 210.5,-74 210.5,-55 285.5,-55 285.5,-74"/>
<text text-anchor="middle" x="248" y="-62" font-family="Helvetica,sans-Serif" font-size="10.00">no_os_util.h</text>
</a>
</g>
</g>
<!-- Node1&#45;&gt;Node14 -->
<g id="edge18_Node000001_Node000014" class="edge">
<title>Node1&#45;&gt;Node14</title>
<g id="a_edge18_Node000001_Node000014"><a xlink:title=" ">
<path fill="none" stroke="#63b8ff" d="M291.91,-274.98C282.79,-231.49 260.92,-127.12 251.94,-84.31"/>
<polygon fill="#63b8ff" stroke="#63b8ff" points="255.34,-83.46 249.86,-74.39 248.49,-84.9 255.34,-83.46"/>
</a>
</g>
</g>
<!-- Node15 -->
<g id="Node000015" class="node">
<title>Node15</title>
<g id="a_Node000015"><a xlink:href="iio__app_8h.html" target="_top" xlink:title="Header file of iio_app.">
<polygon fill="white" stroke="#666666" points="550.5,-239 489.5,-239 489.5,-220 550.5,-220 550.5,-239"/>
<text text-anchor="middle" x="520" y="-227" font-family="Helvetica,sans-Serif" font-size="10.00">iio_app.h</text>
</a>
</g>
</g>
<!-- Node1&#45;&gt;Node15 -->
<g id="edge22_Node000001_Node000015" class="edge">
<title>Node1&#45;&gt;Node15</title>
<g id="a_edge22_Node000001_Node000015"><a xlink:title=" ">
<path fill="none" stroke="#63b8ff" d="M364.42,-274.95C402.39,-264.1 448.26,-251 480.33,-241.84"/>
<polygon fill="#63b8ff" stroke="#63b8ff" points="481.57,-245.12 490.22,-239.01 479.65,-238.39 481.57,-245.12"/>
</a>
</g>
</g>
<!-- Node6 -->
<g id="Node000006" class="node">
<title>Node6</title>
<g id="a_Node000006"><a xlink:href="iio__types_8h.html" target="_top" xlink:title="Header file for iio_types.">
<polygon fill="white" stroke="#666666" points="407,-129 337,-129 337,-110 407,-110 407,-129"/>
<text text-anchor="middle" x="372" y="-117" font-family="Helvetica,sans-Serif" font-size="10.00">iio_types.h</text>
</a>
</g>
</g>
<!-- Node5&#45;&gt;Node6 -->
<g id="edge5_Node000005_Node000006" class="edge">
<title>Node5&#45;&gt;Node6</title>
<g id="a_edge5_Node000005_Node000006"><a xlink:title=" ">
<path fill="none" stroke="#63b8ff" d="M422.36,-164.98C413.49,-157.15 400.13,-145.34 389.39,-135.86"/>
<polygon fill="#63b8ff" stroke="#63b8ff" points="391.63,-133.17 381.82,-129.17 386.99,-138.41 391.63,-133.17"/>
</a>
</g>
</g>
<!-- Node10 -->
<g id="Node000010" class="node">
<title>Node10</title>
<g id="a_Node000010"><a xlink:href="no__os__uart_8h.html" target="_top" xlink:title="Header file of UART interface.">
<polygon fill="white" stroke="#666666" points="504.5,-129 425.5,-129 425.5,-110 504.5,-110 504.5,-129"/>
<text text-anchor="middle" x="465" y="-117" font-family="Helvetica,sans-Serif" font-size="10.00">no_os_uart.h</text>
</a>
</g>
</g>
<!-- Node5&#45;&gt;Node10 -->
<g id="edge10_Node000005_Node000010" class="edge">
<title>Node5&#45;&gt;Node10</title>
<g id="a_edge10_Node000005_Node000010"><a xlink:title=" ">
<path fill="none" stroke="#63b8ff" d="M437.45,-164.75C442.01,-157.42 448.67,-146.73 454.29,-137.7"/>
<polygon fill="#63b8ff" stroke="#63b8ff" points="457.34,-139.43 459.65,-129.09 451.4,-135.73 457.34,-139.43"/>
</a>
</g>
</g>
<!-- Node7 -->
<g id="Node000007" class="node">
<title>Node7</title>
<g id="a_Node000007"><a xlink:title=" ">
<polygon fill="#e0e0e0" stroke="#999999" points="246,-19 184,-19 184,0 246,0 246,-19"/>
<text text-anchor="middle" x="215" y="-7" font-family="Helvetica,sans-Serif" font-size="10.00">stdbool.h</text>
</a>
</g>
</g>
<!-- Node6&#45;&gt;Node7 -->
<g id="edge6_Node000006_Node000007" class="edge">
<title>Node6&#45;&gt;Node7</title>
<g id="a_edge6_Node000006_Node000007"><a xlink:title=" ">
<path fill="none" stroke="#63b8ff" d="M336.77,-116.01C284.11,-111.47 188.8,-99.83 168,-74 154.77,-57.57 174.41,-37.96 192.19,-24.92"/>
<polygon fill="#63b8ff" stroke="#63b8ff" points="194.39,-27.66 200.62,-19.09 190.41,-21.9 194.39,-27.66"/>
</a>
</g>
</g>
<!-- Node8 -->
<g id="Node000008" class="node">
<title>Node8</title>
<g id="a_Node000008"><a xlink:title=" ">
<polygon fill="#e0e0e0" stroke="#999999" points="550.5,-19 497.5,-19 497.5,0 550.5,0 550.5,-19"/>
<text text-anchor="middle" x="524" y="-7" font-family="Helvetica,sans-Serif" font-size="10.00">stdint.h</text>
</a>
</g>
</g>
<!-- Node6&#45;&gt;Node8 -->
<g id="edge7_Node000006_Node000008" class="edge">
<title>Node6&#45;&gt;Node8</title>
<g id="a_edge7_Node000006_Node000008"><a xlink:title=" ">
<path fill="none" stroke="#63b8ff" d="M381.9,-109.85C396.55,-97.2 425.08,-73.2 451,-55 466.74,-43.94 485.26,-32.68 499.7,-24.25"/>
<polygon fill="#63b8ff" stroke="#63b8ff" points="501.62,-27.18 508.53,-19.15 498.12,-21.11 501.62,-27.18"/>
</a>
</g>
</g>
<!-- Node9 -->
<g id="Node000009" class="node">
<title>Node9</title>
<g id="a_Node000009"><a xlink:href="no__os__circular__buffer_8h.html" target="_top" xlink:title="Circular buffer library header.">
<polygon fill="white" stroke="#666666" points="588,-74 460,-74 460,-55 588,-55 588,-74"/>
<text text-anchor="middle" x="524" y="-62" font-family="Helvetica,sans-Serif" font-size="10.00">no_os_circular_buffer.h</text>
</a>
</g>
</g>
<!-- Node6&#45;&gt;Node9 -->
<g id="edge8_Node000006_Node000009" class="edge">
<title>Node6&#45;&gt;Node9</title>
<g id="a_edge8_Node000006_Node000009"><a xlink:title=" ">
<path fill="none" stroke="#63b8ff" d="M396.42,-109.98C421.72,-101.16 461.45,-87.31 489.86,-77.41"/>
<polygon fill="#63b8ff" stroke="#63b8ff" points="491.1,-80.68 499.39,-74.08 488.79,-74.07 491.1,-80.68"/>
</a>
</g>
</g>
<!-- Node9&#45;&gt;Node8 -->
<g id="edge9_Node000009_Node000008" class="edge">
<title>Node9&#45;&gt;Node8</title>
<g id="a_edge9_Node000009_Node000008"><a xlink:title=" ">
<path fill="none" stroke="#63b8ff" d="M524,-54.75C524,-47.8 524,-37.85 524,-29.13"/>
<polygon fill="#63b8ff" stroke="#63b8ff" points="527.5,-29.09 524,-19.09 520.5,-29.09 527.5,-29.09"/>
</a>
</g>
</g>
<!-- Node10&#45;&gt;Node7 -->
<g id="edge12_Node000010_Node000007" class="edge">
<title>Node10&#45;&gt;Node7</title>
<g id="a_edge12_Node000010_Node000007"><a xlink:title=" ">
<path fill="none" stroke="#63b8ff" d="M425.42,-111.61C422.24,-111.07 419.06,-110.52 416,-110 368.25,-101.86 232.3,-110.97 201,-74 190.21,-61.26 196.56,-42.05 203.85,-28.1"/>
<polygon fill="#63b8ff" stroke="#63b8ff" points="206.88,-29.83 208.84,-19.42 200.82,-26.34 206.88,-29.83"/>
</a>
</g>
</g>
<!-- Node10&#45;&gt;Node8 -->
<g id="edge11_Node000010_Node000008" class="edge">
<title>Node10&#45;&gt;Node8</title>
<g id="a_edge11_Node000010_Node000008"><a xlink:title=" ">
<path fill="none" stroke="#63b8ff" d="M504.65,-110.45C539.39,-102.49 586,-89.32 597,-74 611.92,-53.22 583.25,-34.69 557.58,-23.09"/>
<polygon fill="#63b8ff" stroke="#63b8ff" points="558.91,-19.85 548.34,-19.14 556.16,-26.29 558.91,-19.85"/>
</a>
</g>
</g>
<!-- Node11 -->
<g id="Node000011" class="node">
<title>Node11</title>
<g id="a_Node000011"><a xlink:href="no__os__lf256fifo_8h.html" target="_top" xlink:title="SPSC lock&#45;free fifo of fixed size (256), specialized for UART.">
<polygon fill="white" stroke="#666666" points="404,-74 304,-74 304,-55 404,-55 404,-74"/>
<text text-anchor="middle" x="354" y="-62" font-family="Helvetica,sans-Serif" font-size="10.00">no_os_lf256fifo.h</text>
</a>
</g>
</g>
<!-- Node10&#45;&gt;Node11 -->
<g id="edge13_Node000010_Node000011" class="edge">
<title>Node10&#45;&gt;Node11</title>
<g id="a_edge13_Node000010_Node000011"><a xlink:title=" ">
<path fill="none" stroke="#63b8ff" d="M447.17,-109.98C429.39,-101.5 401.85,-88.35 381.32,-78.54"/>
<polygon fill="#63b8ff" stroke="#63b8ff" points="382.69,-75.32 372.16,-74.17 379.67,-81.64 382.69,-75.32"/>
</a>
</g>
</g>
<!-- Node11&#45;&gt;Node7 -->
<g id="edge16_Node000011_Node000007" class="edge">
<title>Node11&#45;&gt;Node7</title>
<g id="a_edge16_Node000011_Node000007"><a xlink:title=" ">
<path fill="none" stroke="#63b8ff" d="M331.67,-54.98C308.8,-46.27 273.04,-32.63 247.14,-22.75"/>
<polygon fill="#63b8ff" stroke="#63b8ff" points="248.33,-19.46 237.74,-19.17 245.84,-26 248.33,-19.46"/>
</a>
</g>
</g>
<!-- Node11&#45;&gt;Node8 -->
<g id="edge15_Node000011_Node000008" class="edge">
<title>Node11&#45;&gt;Node8</title>
<g id="a_edge15_Node000011_Node000008"><a xlink:title=" ">
<path fill="none" stroke="#63b8ff" d="M381.31,-54.98C410.11,-46.01 455.63,-31.82 487.49,-21.88"/>
<polygon fill="#63b8ff" stroke="#63b8ff" points="488.81,-25.14 497.31,-18.82 486.73,-18.45 488.81,-25.14"/>
</a>
</g>
</g>
<!-- Node12 -->
<g id="Node000012" class="node">
<title>Node12</title>
<g id="a_Node000012"><a xlink:title=" ">
<polygon fill="#e0e0e0" stroke="#999999" points="365.5,-19 312.5,-19 312.5,0 365.5,0 365.5,-19"/>
<text text-anchor="middle" x="339" y="-7" font-family="Helvetica,sans-Serif" font-size="10.00">stdlib.h</text>
</a>
</g>
</g>
<!-- Node11&#45;&gt;Node12 -->
<g id="edge14_Node000011_Node000012" class="edge">
<title>Node11&#45;&gt;Node12</title>
<g id="a_edge14_Node000011_Node000012"><a xlink:title=" ">
<path fill="none" stroke="#63b8ff" d="M351.52,-54.75C349.54,-47.72 346.68,-37.62 344.19,-28.84"/>
<polygon fill="#63b8ff" stroke="#63b8ff" points="347.52,-27.76 341.43,-19.09 340.79,-29.66 347.52,-27.76"/>
</a>
</g>
</g>
<!-- Node14&#45;&gt;Node7 -->
<g id="edge21_Node000014_Node000007" class="edge">
<title>Node14&#45;&gt;Node7</title>
<g id="a_edge21_Node000014_Node000007"><a xlink:title=" ">
<path fill="none" stroke="#63b8ff" d="M242.55,-54.75C237.99,-47.42 231.33,-36.73 225.71,-27.7"/>
<polygon fill="#63b8ff" stroke="#63b8ff" points="228.6,-25.73 220.35,-19.09 222.66,-29.43 228.6,-25.73"/>
</a>
</g>
</g>
<!-- Node14&#45;&gt;Node8 -->
<g id="edge19_Node000014_Node000008" class="edge">
<title>Node14&#45;&gt;Node8</title>
<g id="a_edge19_Node000014_Node000008"><a xlink:title=" ">
<path fill="none" stroke="#63b8ff" d="M285.51,-56.3C338.57,-46.11 434.92,-27.61 487.45,-17.52"/>
<polygon fill="#63b8ff" stroke="#63b8ff" points="488.19,-20.94 497.35,-15.62 486.87,-14.07 488.19,-20.94"/>
</a>
</g>
</g>
<!-- Node14&#45;&gt;Node12 -->
<g id="edge20_Node000014_Node000012" class="edge">
<title>Node14&#45;&gt;Node12</title>
<g id="a_edge20_Node000014_Node000012"><a xlink:title=" ">
<path fill="none" stroke="#63b8ff" d="M262.62,-54.98C276.86,-46.69 298.75,-33.94 315.45,-24.22"/>
<polygon fill="#63b8ff" stroke="#63b8ff" points="317.23,-27.23 324.11,-19.17 313.71,-21.18 317.23,-27.23"/>
</a>
</g>
</g>
<!-- Node15&#45;&gt;Node5 -->
<g id="edge23_Node000015_Node000005" class="edge">
<title>Node15&#45;&gt;Node5</title>
<g id="a_edge23_Node000015_Node000005"><a xlink:title=" ">
<path fill="none" stroke="#63b8ff" d="M505.86,-219.98C492.21,-211.77 471.31,-199.18 455.22,-189.49"/>
<polygon fill="#63b8ff" stroke="#63b8ff" points="456.77,-186.33 446.4,-184.17 453.16,-192.33 456.77,-186.33"/>
</a>
</g>
</g>
<!-- Node15&#45;&gt;Node10 -->
<g id="edge26_Node000015_Node000010" class="edge">
<title>Node15&#45;&gt;Node10</title>
<g id="a_edge26_Node000015_Node000010"><a xlink:title=" ">
<path fill="none" stroke="#63b8ff" d="M515.5,-219.66C506.47,-201.93 486,-161.73 474.07,-138.32"/>
<polygon fill="#63b8ff" stroke="#63b8ff" points="477.07,-136.48 469.41,-129.16 470.83,-139.66 477.07,-136.48"/>
</a>
</g>
</g>
<!-- Node16 -->
<g id="Node000016" class="node">
<title>Node16</title>
<g id="a_Node000016"><a xlink:href="no__os__irq_8h.html" target="_top" xlink:title="Header file of IRQ interface.">
<polygon fill="white" stroke="#666666" points="664,-129 592,-129 592,-110 664,-110 664,-129"/>
<text text-anchor="middle" x="628" y="-117" font-family="Helvetica,sans-Serif" font-size="10.00">no_os_irq.h</text>
</a>
</g>
</g>
<!-- Node15&#45;&gt;Node16 -->
<g id="edge24_Node000015_Node000016" class="edge">
<title>Node15&#45;&gt;Node16</title>
<g id="a_edge24_Node000015_Node000016"><a xlink:title=" ">
<path fill="none" stroke="#63b8ff" d="M542.97,-219.86C559.98,-212.5 582.75,-200.47 598,-184 609.89,-171.15 617.89,-152.73 622.61,-139.04"/>
<polygon fill="#63b8ff" stroke="#63b8ff" points="626.02,-139.86 625.71,-129.27 619.35,-137.74 626.02,-139.86"/>
</a>
</g>
</g>
<!-- Node17 -->
<g id="Node000017" class="node">
<title>Node17</title>
<g id="a_Node000017"><a xlink:href="no__os__error_8h.html" target="_top" xlink:title="Error codes definition.">
<polygon fill="white" stroke="#666666" points="589,-184 507,-184 507,-165 589,-165 589,-184"/>
<text text-anchor="middle" x="548" y="-172" font-family="Helvetica,sans-Serif" font-size="10.00">no_os_error.h</text>
</a>
</g>
</g>
<!-- Node15&#45;&gt;Node17 -->
<g id="edge27_Node000015_Node000017" class="edge">
<title>Node15&#45;&gt;Node17</title>
<g id="a_edge27_Node000015_Node000017"><a xlink:title=" ">
<path fill="none" stroke="#63b8ff" d="M524.62,-219.75C528.46,-212.49 534.02,-201.95 538.76,-192.98"/>
<polygon fill="#63b8ff" stroke="#63b8ff" points="541.89,-194.57 543.46,-184.09 535.7,-191.3 541.89,-194.57"/>
</a>
</g>
</g>
<!-- Node19 -->
<g id="Node000019" class="node">
<title>Node19</title>
<g id="a_Node000019"><a xlink:href="no__os__delay_8h.html" target="_top" xlink:title="Header file of Delay functions.">
<polygon fill="white" stroke="#666666" points="733.5,-184 648.5,-184 648.5,-165 733.5,-165 733.5,-184"/>
<text text-anchor="middle" x="691" y="-172" font-family="Helvetica,sans-Serif" font-size="10.00">no_os_delay.h</text>
</a>
</g>
</g>
<!-- Node15&#45;&gt;Node19 -->
<g id="edge29_Node000015_Node000019" class="edge">
<title>Node15&#45;&gt;Node19</title>
<g id="a_edge29_Node000015_Node000019"><a xlink:title=" ">
<path fill="none" stroke="#63b8ff" d="M547.47,-219.98C576.18,-211.09 621.42,-197.07 653.42,-187.15"/>
<polygon fill="#63b8ff" stroke="#63b8ff" points="654.8,-190.39 663.31,-184.08 652.72,-183.7 654.8,-190.39"/>
</a>
</g>
</g>
<!-- Node16&#45;&gt;Node8 -->
<g id="edge25_Node000016_Node000008" class="edge">
<title>Node16&#45;&gt;Node8</title>
<g id="a_edge25_Node000016_Node000008"><a xlink:title=" ">
<path fill="none" stroke="#63b8ff" d="M628.34,-109.7C628.4,-96.45 626.67,-71.18 614,-55 600.7,-38.02 579.23,-27.05 560.59,-20.26"/>
<polygon fill="#63b8ff" stroke="#63b8ff" points="561.47,-16.86 550.88,-16.99 559.24,-23.5 561.47,-16.86"/>
</a>
</g>
</g>
<!-- Node18 -->
<g id="Node000018" class="node">
<title>Node18</title>
<g id="a_Node000018"><a xlink:href="errno_8h.html" target="_top" xlink:title="Error macro definition for ARM Compiler.">
<polygon fill="white" stroke="#666666" points="573.5,-129 522.5,-129 522.5,-110 573.5,-110 573.5,-129"/>
<text text-anchor="middle" x="548" y="-117" font-family="Helvetica,sans-Serif" font-size="10.00">errno.h</text>
</a>
</g>
</g>
<!-- Node17&#45;&gt;Node18 -->
<g id="edge28_Node000017_Node000018" class="edge">
<title>Node17&#45;&gt;Node18</title>
<g id="a_edge28_Node000017_Node000018"><a xlink:title=" ">
<path fill="none" stroke="#63b8ff" d="M548,-164.75C548,-157.8 548,-147.85 548,-139.13"/>
<polygon fill="#63b8ff" stroke="#63b8ff" points="551.5,-139.09 548,-129.09 544.5,-139.09 551.5,-139.09"/>
</a>
</g>
</g>
<!-- Node19&#45;&gt;Node8 -->
<g id="edge30_Node000019_Node000008" class="edge">
<title>Node19&#45;&gt;Node8</title>
<g id="a_edge30_Node000019_Node000008"><a xlink:title=" ">
<path fill="none" stroke="#63b8ff" d="M689.57,-164.94C687.25,-152.41 682.02,-128.55 673,-110 659.78,-82.82 656.79,-73.65 633,-55 611.66,-38.27 583.16,-26.93 560.65,-19.88"/>
<polygon fill="#63b8ff" stroke="#63b8ff" points="561.37,-16.44 550.78,-16.95 559.37,-23.15 561.37,-16.44"/>
</a>
</g>
</g>
</g>
</svg>

<g id="navigator" transform="translate(0 0)" fill="#404254">
  <rect fill="#f2f5e9" fill-opacity="0.5" stroke="#606060" stroke-width=".5" x="0" y="0" width="60" height="60"/>
  <use id="zoomplus" xlink:href="#zoomPlus" x="17" y="9" onmousedown="handleZoom(evt,'in')"/>
  <use id="zoomminus" xlink:href="#zoomMin" x="42" y="9" onmousedown="handleZoom(evt,'out')"/>
  <use id="reset" xlink:href="#resetDef" x="30" y="36" onmousedown="handleReset()"/>
   <use id="arrowup" xlink:href="#arrowUp" x="0" y="0" onmousedown="handlePan(0,-1)"/>
  <use id="arrowright" xlink:href="#arrowRight" x="0" y="0" onmousedown="handlePan(1,0)"/>
  <use id="arrowdown" xlink:href="#arrowDown" x="0" y="0" onmousedown="handlePan(0,1)"/>
  <use id="arrowleft" xlink:href="#arrowLeft" x="0" y="0" onmousedown="handlePan(-1,0)"/>
</g>
<svg viewBox="0 0 15 15" width="100%" height="30px" preserveAspectRatio="xMaxYMin meet">
 <g id="arrow_out" transform="scale(0.3 0.3)">
  <a xlink:href="ad463x__fmcz_2src_2examples_2iio__example_2iio__example_8c__incl_org.svg" target="_base">
   <rect id="button" ry="5" rx="5" y="6" x="6" height="38" width="38"
        fill="#f2f5e9" fill-opacity="0.5" stroke="#606060" stroke-width="1.0"/>
   <path id="arrow"
     d="M 11.500037,31.436501 C 11.940474,20.09759 22.043105,11.32322 32.158766,21.979434 L 37.068811,17.246167 C 37.068811,17.246167 37.088388,32 37.088388,32 L 22.160133,31.978069 C 22.160133,31.978069 26.997745,27.140456 26.997745,27.140456 C 18.528582,18.264221 13.291696,25.230495 11.500037,31.436501 z"
     style="fill:#404040;"/>
  </a>
 </g>
</svg>

<style type='text/css'>
<![CDATA[
[data-mouse-over-selected='false'] { opacity: 0.7; }
[data-mouse-over-selected='true']  { opacity: 1.0; }
]]>
</style>
<script type="application/ecmascript"><![CDATA[
document.addEventListener('DOMContentLoaded', (event) => {
  highlightEdges();
  highlightAdjacentNodes();
});
]]></script>
</svg>
