<?xml version="1.0" encoding="UTF-8" standalone="no"?>
<!DOCTYPE svg PUBLIC "-//W3C//DTD SVG 1.1//EN"
 "http://www.w3.org/Graphics/SVG/1.1/DTD/svg11.dtd">
<!-- Generated by graphviz version 2.43.0 (0)
 -->
<!-- Title: ad469x_adv_sequence_set_slot Pages: 1 -->
<svg width="545pt" height="38pt"
 viewBox="0.00 0.00 545.00 38.00" xmlns="http://www.w3.org/2000/svg" xmlns:xlink="http://www.w3.org/1999/xlink">
<g id="graph0" class="graph" transform="scale(1 1) rotate(0) translate(4 34)">
<title>ad469x_adv_sequence_set_slot</title>
<!-- Node1 -->
<g id="Node000001" class="node">
<title>Node1</title>
<g id="a_Node000001"><a xlink:title="Advanced sequencer, assign channel to a slot.">
<polygon fill="#999999" stroke="#666666" points="537,-30 409,-30 409,0 537,0 537,-30"/>
<text text-anchor="start" x="417" y="-18" font-family="Helvetica,sans-Serif" font-size="10.00">ad469x_adv_sequence</text>
<text text-anchor="middle" x="473" y="-7" font-family="Helvetica,sans-Serif" font-size="10.00">_set_slot</text>
</a>
</g>
</g>
<!-- Node2 -->
<g id="Node000002" class="node">
<title>Node2</title>
<g id="a_Node000002"><a xlink:href="ad469x_8c.html#a10a460881b625198baafdb96a81eb6b6" target="_top" xlink:title=" ">
<polygon fill="white" stroke="#666666" points="373,-24.5 235,-24.5 235,-5.5 373,-5.5 373,-24.5"/>
<text text-anchor="middle" x="304" y="-12.5" font-family="Helvetica,sans-Serif" font-size="10.00">ad469x_config_extended</text>
</a>
</g>
</g>
<!-- Node1&#45;&gt;Node2 -->
<g id="edge1_Node000001_Node000002" class="edge">
<title>Node1&#45;&gt;Node2</title>
<g id="a_edge1_Node000001_Node000002"><a xlink:title=" ">
<path fill="none" stroke="#63b8ff" d="M398.65,-15C390.21,-15 381.62,-15 373.25,-15"/>
<polygon fill="#63b8ff" stroke="#63b8ff" points="398.86,-18.5 408.86,-15 398.86,-11.5 398.86,-18.5"/>
</a>
</g>
</g>
<!-- Node3 -->
<g id="Node000003" class="node">
<title>Node3</title>
<g id="a_Node000003"><a xlink:href="ad469x_8c.html#afb4be83cfe5fae9af7ddf637bf2e82c3" target="_top" xlink:title=" ">
<polygon fill="white" stroke="#666666" points="199,-24.5 125,-24.5 125,-5.5 199,-5.5 199,-24.5"/>
<text text-anchor="middle" x="162" y="-12.5" font-family="Helvetica,sans-Serif" font-size="10.00">ad469x_init</text>
</a>
</g>
</g>
<!-- Node2&#45;&gt;Node3 -->
<g id="edge2_Node000002_Node000003" class="edge">
<title>Node2&#45;&gt;Node3</title>
<g id="a_edge2_Node000002_Node000003"><a xlink:title=" ">
<path fill="none" stroke="#63b8ff" d="M224.63,-15C215.81,-15 207.17,-15 199.28,-15"/>
<polygon fill="#63b8ff" stroke="#63b8ff" points="224.64,-18.5 234.64,-15 224.64,-11.5 224.64,-18.5"/>
</a>
</g>
</g>
<!-- Node4 -->
<g id="Node000004" class="node">
<title>Node4</title>
<g id="a_Node000004"><a xlink:href="ad469x__evb_2src_2examples_2basic_2basic__example_8c.html#ac25cbf8ae523e89cb0617e68c98bc697" target="_top" xlink:title="basic example main execution.">
<polygon fill="white" stroke="#666666" points="89,-24.5 0,-24.5 0,-5.5 89,-5.5 89,-24.5"/>
<text text-anchor="middle" x="44.5" y="-12.5" font-family="Helvetica,sans-Serif" font-size="10.00">example_main</text>
</a>
</g>
</g>
<!-- Node3&#45;&gt;Node4 -->
<g id="edge3_Node000003_Node000004" class="edge">
<title>Node3&#45;&gt;Node4</title>
<g id="a_edge3_Node000003_Node000004"><a xlink:title=" ">
<path fill="none" stroke="#63b8ff" d="M114.75,-15C106.36,-15 97.62,-15 89.3,-15"/>
<polygon fill="#63b8ff" stroke="#63b8ff" points="114.77,-18.5 124.77,-15 114.77,-11.5 114.77,-18.5"/>
</a>
</g>
</g>
</g>
</svg>
