<?xml version="1.0" encoding="UTF-8" standalone="no"?>
<!DOCTYPE svg PUBLIC "-//W3C//DTD SVG 1.1//EN"
 "http://www.w3.org/Graphics/SVG/1.1/DTD/svg11.dtd">
<!-- Generated by graphviz version 2.43.0 (0)
 -->
<!-- Title: ad4858_reg_write Pages: 1 -->
<!--zoomable 571 -->

<svg id="main" version="1.1" xmlns="http://www.w3.org/2000/svg" xmlns:xlink="http://www.w3.org/1999/xlink" xml:space="preserve" onload="init(evt)">

<style type="text/css"><![CDATA[
.node, .edge {opacity: 0.7;}
.node.selected, .edge.selected {opacity: 1;}
.edge:hover path { stroke: red; }
.edge:hover polygon { stroke: red; fill: red; }
]]></style>

<defs>
  <circle id="rim" cx="0" cy="0" r="7"/>
  <circle id="rim2" cx="0" cy="0" r="3.5"/>
  <g id="zoomPlus">
    <use xlink:href="#rim" fill="#404040"><set attributeName="fill" to="#808080" begin="zoomplus.mouseover" end="zoomplus.mouseout"/></use>
    <path d="M-4,0h8M0,-4v8" fill="none" stroke="white" stroke-width="1.5" pointer-events="none"/>
  </g>
  <g id="zoomMin">
    <use xlink:href="#rim" fill="#404040"><set attributeName="fill" to="#808080" begin="zoomminus.mouseover" end="zoomminus.mouseout"/></use>
    <path d="M-4,0h8" fill="none" stroke="white" stroke-width="1.5" pointer-events="none"/>
  </g>
  <g id="arrowUp" transform="translate(30 24)">
    <use xlink:href="#rim"/>
    <path pointer-events="none" fill="none" stroke="white" stroke-width="1.5" d="M0,-3.0v7 M-2.5,-0.5L0,-3.0L2.5,-0.5"/>
  </g>
  <g id="arrowRight" transform="rotate(90) translate(36 -43)">
    <use xlink:href="#rim"/>
    <path pointer-events="none" fill="none" stroke="white" stroke-width="1.5" d="M0,-3.0v7 M-2.5,-0.5L0,-3.0L2.5,-0.5"/>
  </g>
  <g id="arrowDown" transform="rotate(180) translate(-30 -48)">
    <use xlink:href="#rim"/>
    <path pointer-events="none" fill="none" stroke="white" stroke-width="1.5" d="M0,-3.0v7 M-2.5,-0.5L0,-3.0L2.5,-0.5"/>
  </g>
  <g id="arrowLeft" transform="rotate(270) translate(-36 17)">
    <use xlink:href="#rim"/>
    <path pointer-events="none" fill="none" stroke="white" stroke-width="1.5" d="M0,-3.0v7 M-2.5,-0.5L0,-3.0L2.5,-0.5"/>
  </g>
  <g id="resetDef">
    <use xlink:href="#rim2" fill="#404040"><set attributeName="fill" to="#808080" begin="reset.mouseover" end="reset.mouseout"/></use>
  </g>
</defs>
<script type="application/ecmascript">
var viewWidth = 857;
var viewHeight = 571;
var sectionId = 'dynsection-6';
</script>
<script type="application/ecmascript" xlink:href="svg.min.js"/>
<svg id="graph" class="graph">
<g id="viewport">
<title>ad4858_reg_write</title>
<!-- Node1 -->
<g id="Node000001" class="node">
<title>Node1</title>
<g id="a_Node000001"><a xlink:title="Write device register.">
<polygon fill="#999999" stroke="#666666" points="849,-195.32 745,-195.32 745,-176.32 849,-176.32 849,-195.32"/>
<text text-anchor="middle" x="797" y="-183.32" font-family="Helvetica,sans-Serif" font-size="10.00">ad4858_reg_write</text>
</a>
</g>
</g>
<!-- Node2 -->
<g id="Node000002" class="node">
<title>Node2</title>
<g id="a_Node000002"><a xlink:href="ad4858_8c.html#a308fdf9132f0909bcd601d763cf979f9" target="_top" xlink:title="Enable/Disable seamless hdr.">
<polygon fill="white" stroke="#666666" points="709,-419.32 529,-419.32 529,-400.32 709,-400.32 709,-419.32"/>
<text text-anchor="middle" x="619" y="-407.32" font-family="Helvetica,sans-Serif" font-size="10.00">ad4858_enable_ch_seamless_hdr</text>
</a>
</g>
</g>
<!-- Node1&#45;&gt;Node2 -->
<g id="edge1_Node000001_Node000002" class="edge">
<title>Node1&#45;&gt;Node2</title>
<g id="a_edge1_Node000001_Node000002"><a xlink:title=" ">
<path fill="none" stroke="#63b8ff" d="M793.74,-205.61C787.9,-247.09 768.34,-343.3 709,-391.82 704.97,-395.11 700.5,-397.86 695.78,-400.14"/>
<polygon fill="#63b8ff" stroke="#63b8ff" points="797.24,-205.81 795.05,-195.45 790.3,-204.92 797.24,-205.81"/>
</a>
</g>
</g>
<!-- Node3 -->
<g id="Node000003" class="node">
<title>Node3</title>
<g id="a_Node000003"><a xlink:href="ad4858_8c.html#a01cf4315146b2fe3860aa3a171dcd644" target="_top" xlink:title="Enable/Disable channel sleep.">
<polygon fill="white" stroke="#666666" points="688.5,-382.32 549.5,-382.32 549.5,-363.32 688.5,-363.32 688.5,-382.32"/>
<text text-anchor="middle" x="619" y="-370.32" font-family="Helvetica,sans-Serif" font-size="10.00">ad4858_enable_ch_sleep</text>
</a>
</g>
</g>
<!-- Node1&#45;&gt;Node3 -->
<g id="edge2_Node000001_Node000003" class="edge">
<title>Node1&#45;&gt;Node3</title>
<g id="a_edge2_Node000001_Node000003"><a xlink:title=" ">
<path fill="none" stroke="#63b8ff" d="M791.79,-205.45C783.03,-241.21 759.35,-316.74 709,-354.82 702.96,-359.39 696.06,-362.87 688.83,-365.52"/>
<polygon fill="#63b8ff" stroke="#63b8ff" points="795.28,-205.87 794.12,-195.34 788.46,-204.3 795.28,-205.87"/>
</a>
</g>
</g>
<!-- Node4 -->
<g id="Node000004" class="node">
<title>Node4</title>
<g id="a_Node000004"><a xlink:href="ad4858_8c.html#a7131dedc19333c6712e7b4bc32ad9238" target="_top" xlink:title="Update specific register bits of an input register.">
<polygon fill="white" stroke="#666666" points="672,-345.32 566,-345.32 566,-326.32 672,-326.32 672,-345.32"/>
<text text-anchor="middle" x="619" y="-333.32" font-family="Helvetica,sans-Serif" font-size="10.00">ad4858_reg_mask</text>
</a>
</g>
</g>
<!-- Node1&#45;&gt;Node4 -->
<g id="edge3_Node000001_Node000004" class="edge">
<title>Node1&#45;&gt;Node4</title>
<g id="a_edge3_Node000001_Node000004"><a xlink:title=" ">
<path fill="none" stroke="#63b8ff" d="M776.75,-202.23C740.01,-233.54 660.92,-300.95 631.41,-326.1"/>
<polygon fill="#63b8ff" stroke="#63b8ff" points="779.38,-204.58 784.72,-195.43 774.84,-199.26 779.38,-204.58"/>
</a>
</g>
</g>
<!-- Node14 -->
<g id="Node000014" class="node">
<title>Node14</title>
<g id="a_Node000014"><a xlink:href="ad4858_8c.html#a66fa4d0c785ded69d94ef45d087233cb" target="_top" xlink:title="Set device config interface mode.">
<polygon fill="white" stroke="#666666" points="299,-214.32 110,-214.32 110,-195.32 299,-195.32 299,-214.32"/>
<text text-anchor="middle" x="204.5" y="-202.32" font-family="Helvetica,sans-Serif" font-size="10.00">ad4858_set_config_interface_mode</text>
</a>
</g>
</g>
<!-- Node1&#45;&gt;Node14 -->
<g id="edge21_Node000001_Node000014" class="edge">
<title>Node1&#45;&gt;Node14</title>
<g id="a_edge21_Node000001_Node000014"><a xlink:title=" ">
<path fill="none" stroke="#63b8ff" d="M770.51,-200.3C753.64,-209.02 730.71,-219.29 709,-223.82 630.69,-240.18 608.97,-226.17 529,-223.82 451.54,-221.55 363.77,-216.22 299.22,-211.78"/>
<polygon fill="#63b8ff" stroke="#63b8ff" points="772.51,-203.19 779.68,-195.39 769.21,-197.02 772.51,-203.19"/>
</a>
</g>
</g>
<!-- Node15 -->
<g id="Node000015" class="node">
<title>Node15</title>
<g id="a_Node000015"><a xlink:href="ad4858_8c.html#ae2d2d56835dc20d3c3a20145cf8952a8" target="_top" xlink:title="Set channel gain.">
<polygon fill="white" stroke="#666666" points="680,-214.32 558,-214.32 558,-195.32 680,-195.32 680,-214.32"/>
<text text-anchor="middle" x="619" y="-202.32" font-family="Helvetica,sans-Serif" font-size="10.00">ad4858_set_chn_gain</text>
</a>
</g>
</g>
<!-- Node1&#45;&gt;Node15 -->
<g id="edge16_Node000001_Node000015" class="edge">
<title>Node1&#45;&gt;Node15</title>
<g id="a_edge16_Node000001_Node000015"><a xlink:title=" ">
<path fill="none" stroke="#63b8ff" d="M734.45,-192.47C716.84,-194.37 697.67,-196.44 680.14,-198.33"/>
<polygon fill="#63b8ff" stroke="#63b8ff" points="735.05,-195.92 744.62,-191.37 734.3,-188.96 735.05,-195.92"/>
</a>
</g>
</g>
<!-- Node16 -->
<g id="Node000016" class="node">
<title>Node16</title>
<g id="a_Node000016"><a xlink:href="ad4858_8c.html#ac252e43468626da37f68d0bd82be969f" target="_top" xlink:title="Set channel offset.">
<polygon fill="white" stroke="#666666" points="683,-177.32 555,-177.32 555,-158.32 683,-158.32 683,-177.32"/>
<text text-anchor="middle" x="619" y="-165.32" font-family="Helvetica,sans-Serif" font-size="10.00">ad4858_set_chn_offset</text>
</a>
</g>
</g>
<!-- Node1&#45;&gt;Node16 -->
<g id="edge17_Node000001_Node000016" class="edge">
<title>Node1&#45;&gt;Node16</title>
<g id="a_edge17_Node000001_Node000016"><a xlink:title=" ">
<path fill="none" stroke="#63b8ff" d="M734.51,-179.53C717.94,-177.84 699.98,-176 683.32,-174.3"/>
<polygon fill="#63b8ff" stroke="#63b8ff" points="734.32,-183.03 744.62,-180.57 735.03,-176.07 734.32,-183.03"/>
</a>
</g>
</g>
<!-- Node17 -->
<g id="Node000017" class="node">
<title>Node17</title>
<g id="a_Node000017"><a xlink:href="ad4858_8c.html#abcdc2a96ba14b86c91c381f1b9a82559" target="_top" xlink:title="Set channel overrange (OR) limit.">
<polygon fill="white" stroke="#666666" points="688,-140.32 550,-140.32 550,-121.32 688,-121.32 688,-140.32"/>
<text text-anchor="middle" x="619" y="-128.32" font-family="Helvetica,sans-Serif" font-size="10.00">ad4858_set_chn_or_limit</text>
</a>
</g>
</g>
<!-- Node1&#45;&gt;Node17 -->
<g id="edge18_Node000001_Node000017" class="edge">
<title>Node1&#45;&gt;Node17</title>
<g id="a_edge18_Node000001_Node000017"><a xlink:title=" ">
<path fill="none" stroke="#63b8ff" d="M766.79,-172.17C750.13,-164.78 728.7,-155.94 709,-149.82 697.38,-146.21 684.7,-143.05 672.65,-140.4"/>
<polygon fill="#63b8ff" stroke="#63b8ff" points="765.44,-175.4 775.99,-176.32 768.32,-169.02 765.44,-175.4"/>
</a>
</g>
</g>
<!-- Node18 -->
<g id="Node000018" class="node">
<title>Node18</title>
<g id="a_Node000018"><a xlink:href="ad4858_8c.html#ac2e43865619555673bd1570ab2a9edeb" target="_top" xlink:title="Set channel phase.">
<polygon fill="white" stroke="#666666" points="684,-103.32 554,-103.32 554,-84.32 684,-84.32 684,-103.32"/>
<text text-anchor="middle" x="619" y="-91.32" font-family="Helvetica,sans-Serif" font-size="10.00">ad4858_set_chn_phase</text>
</a>
</g>
</g>
<!-- Node1&#45;&gt;Node18 -->
<g id="edge19_Node000001_Node000018" class="edge">
<title>Node1&#45;&gt;Node18</title>
<g id="a_edge19_Node000001_Node000018"><a xlink:title=" ">
<path fill="none" stroke="#63b8ff" d="M780.64,-168.78C764.48,-151.94 737.47,-126.72 709,-112.82 701.05,-108.94 692.32,-105.85 683.53,-103.38"/>
<polygon fill="#63b8ff" stroke="#63b8ff" points="778.28,-171.38 787.67,-176.3 783.39,-166.6 778.28,-171.38"/>
</a>
</g>
</g>
<!-- Node19 -->
<g id="Node000019" class="node">
<title>Node19</title>
<g id="a_Node000019"><a xlink:href="ad4858_8c.html#ad501cfa7eafaf2cf5b2183003f8e0288" target="_top" xlink:title="Set channel underrange (UR) limit.">
<polygon fill="white" stroke="#666666" points="688,-66.32 550,-66.32 550,-47.32 688,-47.32 688,-66.32"/>
<text text-anchor="middle" x="619" y="-54.32" font-family="Helvetica,sans-Serif" font-size="10.00">ad4858_set_chn_ur_limit</text>
</a>
</g>
</g>
<!-- Node1&#45;&gt;Node19 -->
<g id="edge20_Node000001_Node000019" class="edge">
<title>Node1&#45;&gt;Node19</title>
<g id="a_edge20_Node000001_Node000019"><a xlink:title=" ">
<path fill="none" stroke="#63b8ff" d="M786.9,-167.32C773.49,-142.15 745.98,-97.63 709,-74.82 702.56,-70.85 695.41,-67.73 688.03,-65.29"/>
<polygon fill="#63b8ff" stroke="#63b8ff" points="783.79,-168.94 791.48,-176.23 790.02,-165.74 783.79,-168.94"/>
</a>
</g>
</g>
<!-- Node20 -->
<g id="Node000020" class="node">
<title>Node20</title>
<g id="a_Node000020"><a xlink:href="ad4858_8c.html#aad1e55294ece064c23977eaf983f6a09" target="_top" xlink:title="Perform an AD4858 software reset.">
<polygon fill="white" stroke="#666666" points="257.5,-112.32 151.5,-112.32 151.5,-93.32 257.5,-93.32 257.5,-112.32"/>
<text text-anchor="middle" x="204.5" y="-100.32" font-family="Helvetica,sans-Serif" font-size="10.00">ad4858_soft_reset</text>
</a>
</g>
</g>
<!-- Node1&#45;&gt;Node20 -->
<g id="edge22_Node000001_Node000020" class="edge">
<title>Node1&#45;&gt;Node20</title>
<g id="a_edge22_Node000001_Node000020"><a xlink:title=" ">
<path fill="none" stroke="#63b8ff" d="M791.24,-166.29C781.93,-132.9 757.81,-65.75 709,-37.82 541.46,58.04 292.1,-57.68 223.51,-93.13"/>
<polygon fill="#63b8ff" stroke="#63b8ff" points="787.92,-167.43 793.84,-176.21 794.69,-165.65 787.92,-167.43"/>
</a>
</g>
</g>
<!-- Node5 -->
<g id="Node000005" class="node">
<title>Node5</title>
<g id="a_Node000005"><a xlink:href="ad4858_8c.html#ad2bdbbdba4d502b8a8c96f5bbf5e8189" target="_top" xlink:title="Enable OSR.">
<polygon fill="white" stroke="#666666" points="469.5,-563.32 358.5,-563.32 358.5,-544.32 469.5,-544.32 469.5,-563.32"/>
<text text-anchor="middle" x="414" y="-551.32" font-family="Helvetica,sans-Serif" font-size="10.00">ad4858_enable_osr</text>
</a>
</g>
</g>
<!-- Node4&#45;&gt;Node5 -->
<g id="edge4_Node000004_Node000005" class="edge">
<title>Node4&#45;&gt;Node5</title>
<g id="a_edge4_Node000004_Node000005"><a xlink:title=" ">
<path fill="none" stroke="#63b8ff" d="M556.12,-339.32C545.99,-342.44 536.4,-347.32 529,-354.82 471.69,-412.88 549.48,-475.95 493,-534.82 486.63,-541.46 478.36,-545.94 469.6,-548.93"/>
<polygon fill="#63b8ff" stroke="#63b8ff" points="557.1,-342.68 565.94,-336.85 555.39,-335.9 557.1,-342.68"/>
</a>
</g>
</g>
<!-- Node6 -->
<g id="Node000006" class="node">
<title>Node6</title>
<g id="a_Node000006"><a xlink:href="ad4858_8c.html#a6500f08e53800e01a79955829a763530" target="_top" xlink:title="Enable/Disable test pattern on ADC data output.">
<polygon fill="white" stroke="#666666" points="471.5,-525.82 356.5,-525.82 356.5,-495.82 471.5,-495.82 471.5,-525.82"/>
<text text-anchor="start" x="364.5" y="-513.82" font-family="Helvetica,sans-Serif" font-size="10.00">ad4858_enable_test</text>
<text text-anchor="middle" x="414" y="-502.82" font-family="Helvetica,sans-Serif" font-size="10.00">_pattern</text>
</a>
</g>
</g>
<!-- Node4&#45;&gt;Node6 -->
<g id="edge5_Node000004_Node000006" class="edge">
<title>Node4&#45;&gt;Node6</title>
<g id="a_edge5_Node000004_Node000006"><a xlink:title=" ">
<path fill="none" stroke="#63b8ff" d="M556.24,-339.92C546.19,-342.99 536.6,-347.7 529,-354.82 486.17,-394.92 532.8,-438.72 493,-481.82 487.12,-488.19 479.71,-493.17 471.81,-497.05"/>
<polygon fill="#63b8ff" stroke="#63b8ff" points="557.14,-343.3 565.97,-337.45 555.42,-336.52 557.14,-343.3"/>
</a>
</g>
</g>
<!-- Node7 -->
<g id="Node000007" class="node">
<title>Node7</title>
<g id="a_Node000007"><a xlink:href="ad4858_8c.html#ab0cd8392c85c85d97f45b49372acd02b" target="_top" xlink:title="Initialize an AD4858 device structure.">
<polygon fill="white" stroke="#666666" points="74,-214.32 0,-214.32 0,-195.32 74,-195.32 74,-214.32"/>
<text text-anchor="middle" x="37" y="-202.32" font-family="Helvetica,sans-Serif" font-size="10.00">ad4858_init</text>
</a>
</g>
</g>
<!-- Node4&#45;&gt;Node7 -->
<g id="edge6_Node000004_Node000007" class="edge">
<title>Node4&#45;&gt;Node7</title>
<g id="a_edge6_Node000004_Node000007"><a xlink:title=" ">
<path fill="none" stroke="#63b8ff" d="M555.76,-340.8C546.01,-343.81 536.65,-348.27 529,-354.82 495.01,-383.9 529.86,-423.47 493,-448.82 435.14,-488.62 403.33,-465.02 335,-448.82 226.11,-423.01 190.58,-413.47 110,-335.82 72.06,-299.27 49.02,-238.31 41.1,-214.64"/>
<polygon fill="#63b8ff" stroke="#63b8ff" points="556.78,-344.15 565.58,-338.24 555.02,-337.37 556.78,-344.15"/>
</a>
</g>
</g>
<!-- Node8 -->
<g id="Node000008" class="node">
<title>Node8</title>
<g id="a_Node000008"><a xlink:href="ad4858_8c.html#aaff675e9d2d77ef52a0839e5bf0867b7" target="_top" xlink:title="Set channel softspan.">
<polygon fill="white" stroke="#666666" points="485,-439.32 343,-439.32 343,-420.32 485,-420.32 485,-439.32"/>
<text text-anchor="middle" x="414" y="-427.32" font-family="Helvetica,sans-Serif" font-size="10.00">ad4858_set_chn_softspan</text>
</a>
</g>
</g>
<!-- Node4&#45;&gt;Node8 -->
<g id="edge7_Node000004_Node000008" class="edge">
<title>Node4&#45;&gt;Node8</title>
<g id="a_edge7_Node000004_Node000008"><a xlink:title=" ">
<path fill="none" stroke="#63b8ff" d="M556.03,-342.78C546.49,-345.58 537.12,-349.46 529,-354.82 505.84,-370.1 515.46,-389.54 493,-405.82 484.28,-412.14 473.87,-416.82 463.53,-420.29"/>
<polygon fill="#63b8ff" stroke="#63b8ff" points="557.18,-346.1 566,-340.23 555.44,-339.32 557.18,-346.1"/>
</a>
</g>
</g>
<!-- Node9 -->
<g id="Node000009" class="node">
<title>Node9</title>
<g id="a_Node000009"><a xlink:href="ad4858_8c.html#a49169412cb6a0c76f99dda26d2eb3de3" target="_top" xlink:title="Set device data interface mode.">
<polygon fill="white" stroke="#666666" points="295.5,-326.32 113.5,-326.32 113.5,-307.32 295.5,-307.32 295.5,-326.32"/>
<text text-anchor="middle" x="204.5" y="-314.32" font-family="Helvetica,sans-Serif" font-size="10.00">ad4858_set_data_interface_mode</text>
</a>
</g>
</g>
<!-- Node4&#45;&gt;Node9 -->
<g id="edge8_Node000004_Node000009" class="edge">
<title>Node4&#45;&gt;Node9</title>
<g id="a_edge8_Node000004_Node000009"><a xlink:title=" ">
<path fill="none" stroke="#63b8ff" d="M555.81,-346.98C546.72,-349.22 537.54,-351.83 529,-354.82 512.12,-360.74 510.41,-368.71 493,-372.82 424.66,-388.95 403.77,-387.05 335,-372.82 291.82,-363.89 245.34,-339.83 221.55,-326.33"/>
<polygon fill="#63b8ff" stroke="#63b8ff" points="556.68,-350.38 565.62,-344.69 555.09,-343.56 556.68,-350.38"/>
</a>
</g>
</g>
<!-- Node10 -->
<g id="Node000010" class="node">
<title>Node10</title>
<g id="a_Node000010"><a xlink:href="ad4858_8c.html#a9d6ef9a6bda2fdf0e875556b9746cbde" target="_top" xlink:title="Set the device operating mode.">
<polygon fill="white" stroke="#666666" points="493,-363.32 335,-363.32 335,-344.32 493,-344.32 493,-363.32"/>
<text text-anchor="middle" x="414" y="-351.32" font-family="Helvetica,sans-Serif" font-size="10.00">ad4858_set_operating_mode</text>
</a>
</g>
</g>
<!-- Node4&#45;&gt;Node10 -->
<g id="edge9_Node000004_Node000010" class="edge">
<title>Node4&#45;&gt;Node10</title>
<g id="a_edge9_Node000004_Node000010"><a xlink:title=" ">
<path fill="none" stroke="#63b8ff" d="M555.9,-341.33C536.16,-343.08 514.06,-345.04 493.33,-346.88"/>
<polygon fill="#63b8ff" stroke="#63b8ff" points="556.33,-344.8 565.99,-340.43 555.72,-337.83 556.33,-344.8"/>
</a>
</g>
</g>
<!-- Node11 -->
<g id="Node000011" class="node">
<title>Node11</title>
<g id="a_Node000011"><a xlink:href="ad4858_8c.html#ac4534c16451ccffc90d7b041cca684e0" target="_top" xlink:title="Set OSR ratio.">
<polygon fill="white" stroke="#666666" points="474.5,-326.32 353.5,-326.32 353.5,-307.32 474.5,-307.32 474.5,-326.32"/>
<text text-anchor="middle" x="414" y="-314.32" font-family="Helvetica,sans-Serif" font-size="10.00">ad4858_set_osr_ratio</text>
</a>
</g>
</g>
<!-- Node4&#45;&gt;Node11 -->
<g id="edge10_Node000004_Node000011" class="edge">
<title>Node4&#45;&gt;Node11</title>
<g id="a_edge10_Node000004_Node000011"><a xlink:title=" ">
<path fill="none" stroke="#63b8ff" d="M555.95,-330.01C530.15,-327.6 500.34,-324.81 474.79,-322.42"/>
<polygon fill="#63b8ff" stroke="#63b8ff" points="555.7,-333.51 565.99,-330.95 556.36,-326.54 555.7,-333.51"/>
</a>
</g>
</g>
<!-- Node12 -->
<g id="Node000012" class="node">
<title>Node12</title>
<g id="a_Node000012"><a xlink:href="ad4858_8c.html#a13c8857e1fc1b833747502e75bbbb58c" target="_top" xlink:title="Set packet format.">
<polygon fill="white" stroke="#666666" points="488.5,-289.32 339.5,-289.32 339.5,-270.32 488.5,-270.32 488.5,-289.32"/>
<text text-anchor="middle" x="414" y="-277.32" font-family="Helvetica,sans-Serif" font-size="10.00">ad4858_set_packet_format</text>
</a>
</g>
</g>
<!-- Node4&#45;&gt;Node12 -->
<g id="edge11_Node000004_Node000012" class="edge">
<title>Node4&#45;&gt;Node12</title>
<g id="a_edge11_Node000004_Node000012"><a xlink:title=" ">
<path fill="none" stroke="#63b8ff" d="M577.65,-323.33C553.24,-315.91 521.42,-306.48 493,-298.82 481.02,-295.59 467.95,-292.31 455.98,-289.41"/>
<polygon fill="#63b8ff" stroke="#63b8ff" points="576.71,-326.71 587.3,-326.28 578.75,-320.01 576.71,-326.71"/>
</a>
</g>
</g>
<!-- Node13 -->
<g id="Node000013" class="node">
<title>Node13</title>
<g id="a_Node000013"><a xlink:href="ad4858_8c.html#a32913ac6515364e2f71f91e9c17f0e1a" target="_top" xlink:title="Set the SPI data mode.">
<polygon fill="white" stroke="#666666" points="490,-252.32 338,-252.32 338,-233.32 490,-233.32 490,-252.32"/>
<text text-anchor="middle" x="414" y="-240.32" font-family="Helvetica,sans-Serif" font-size="10.00">ad4858_set_spi_data_mode</text>
</a>
</g>
</g>
<!-- Node4&#45;&gt;Node13 -->
<g id="edge12_Node000004_Node000013" class="edge">
<title>Node4&#45;&gt;Node13</title>
<g id="a_edge12_Node000004_Node000013"><a xlink:title=" ">
<path fill="none" stroke="#63b8ff" d="M596.42,-320.35C572.29,-303.7 531.52,-277.51 493,-261.82 483.84,-258.09 473.75,-254.97 463.97,-252.4"/>
<polygon fill="#63b8ff" stroke="#63b8ff" points="594.62,-323.35 604.82,-326.22 598.63,-317.62 594.62,-323.35"/>
</a>
</g>
</g>
<!-- Node13&#45;&gt;Node9 -->
<g id="edge15_Node000013_Node000009" class="edge">
<title>Node13&#45;&gt;Node9</title>
<g id="a_edge15_Node000013_Node000009"><a xlink:title=" ">
<path fill="none" stroke="#63b8ff" d="M358.79,-254.82C350.76,-256.94 342.62,-259.29 335,-261.82 295.12,-275.05 250.37,-295.33 225.3,-307.21"/>
<polygon fill="#63b8ff" stroke="#63b8ff" points="359.68,-258.2 368.51,-252.34 357.95,-251.42 359.68,-258.2"/>
</a>
</g>
</g>
<!-- Node13&#45;&gt;Node14 -->
<g id="edge13_Node000013_Node000014" class="edge">
<title>Node13&#45;&gt;Node14</title>
<g id="a_edge13_Node000013_Node000014"><a xlink:title=" ">
<path fill="none" stroke="#63b8ff" d="M351.04,-231.47C321.27,-226.02 285.98,-219.56 257.61,-214.37"/>
<polygon fill="#63b8ff" stroke="#63b8ff" points="350.44,-234.92 360.91,-233.28 351.7,-228.04 350.44,-234.92"/>
</a>
</g>
</g>
<!-- Node14&#45;&gt;Node7 -->
<g id="edge14_Node000014_Node000007" class="edge">
<title>Node14&#45;&gt;Node7</title>
<g id="a_edge14_Node000014_Node000007"><a xlink:title=" ">
<path fill="none" stroke="#63b8ff" d="M99.44,-204.82C90.52,-204.82 81.96,-204.82 74.21,-204.82"/>
<polygon fill="#63b8ff" stroke="#63b8ff" points="99.63,-208.32 109.63,-204.82 99.63,-201.32 99.63,-208.32"/>
</a>
</g>
</g>
<!-- Node20&#45;&gt;Node7 -->
<g id="edge23_Node000020_Node000007" class="edge">
<title>Node20&#45;&gt;Node7</title>
<g id="a_edge23_Node000020_Node000007"><a xlink:title=" ">
<path fill="none" stroke="#63b8ff" d="M179.41,-117.67C144.98,-138.89 82.67,-177.29 53.65,-195.18"/>
<polygon fill="#63b8ff" stroke="#63b8ff" points="181.25,-120.64 187.93,-112.42 177.58,-114.68 181.25,-120.64"/>
</a>
</g>
</g>
</g>
</svg>

<g id="navigator" transform="translate(0 0)" fill="#404254">
  <rect fill="#f2f5e9" fill-opacity="0.5" stroke="#606060" stroke-width=".5" x="0" y="0" width="60" height="60"/>
  <use id="zoomplus" xlink:href="#zoomPlus" x="17" y="9" onmousedown="handleZoom(evt,'in')"/>
  <use id="zoomminus" xlink:href="#zoomMin" x="42" y="9" onmousedown="handleZoom(evt,'out')"/>
  <use id="reset" xlink:href="#resetDef" x="30" y="36" onmousedown="handleReset()"/>
   <use id="arrowup" xlink:href="#arrowUp" x="0" y="0" onmousedown="handlePan(0,-1)"/>
  <use id="arrowright" xlink:href="#arrowRight" x="0" y="0" onmousedown="handlePan(1,0)"/>
  <use id="arrowdown" xlink:href="#arrowDown" x="0" y="0" onmousedown="handlePan(0,1)"/>
  <use id="arrowleft" xlink:href="#arrowLeft" x="0" y="0" onmousedown="handlePan(-1,0)"/>
</g>
<svg viewBox="0 0 15 15" width="100%" height="30px" preserveAspectRatio="xMaxYMin meet">
 <g id="arrow_out" transform="scale(0.3 0.3)">
  <a xlink:href="ad4858_8h_a9baa7d712f364e1b215c1e102c38e97c_icgraph_org.svg" target="_base">
   <rect id="button" ry="5" rx="5" y="6" x="6" height="38" width="38"
        fill="#f2f5e9" fill-opacity="0.5" stroke="#606060" stroke-width="1.0"/>
   <path id="arrow"
     d="M 11.500037,31.436501 C 11.940474,20.09759 22.043105,11.32322 32.158766,21.979434 L 37.068811,17.246167 C 37.068811,17.246167 37.088388,32 37.088388,32 L 22.160133,31.978069 C 22.160133,31.978069 26.997745,27.140456 26.997745,27.140456 C 18.528582,18.264221 13.291696,25.230495 11.500037,31.436501 z"
     style="fill:#404040;"/>
  </a>
 </g>
</svg>

<style type='text/css'>
<![CDATA[
[data-mouse-over-selected='false'] { opacity: 0.7; }
[data-mouse-over-selected='true']  { opacity: 1.0; }
]]>
</style>
<script type="application/ecmascript"><![CDATA[
document.addEventListener('DOMContentLoaded', (event) => {
  highlightEdges();
  highlightAdjacentNodes();
});
]]></script>
</svg>
