<?xml version="1.0" encoding="UTF-8" standalone="no"?>
<!DOCTYPE svg PUBLIC "-//W3C//DTD SVG 1.1//EN"
 "http://www.w3.org/Graphics/SVG/1.1/DTD/svg11.dtd">
<!-- Generated by graphviz version 2.43.0 (0)
 -->
<!-- Title: drivers/potentiometer/ad514x/ad5143.h Pages: 1 -->
<svg width="413pt" height="203pt"
 viewBox="0.00 0.00 413.00 203.00" xmlns="http://www.w3.org/2000/svg" xmlns:xlink="http://www.w3.org/1999/xlink">
<g id="graph0" class="graph" transform="scale(1 1) rotate(0) translate(4 199)">
<title>drivers/potentiometer/ad514x/ad5143.h</title>
<!-- Node1 -->
<g id="Node000001" class="node">
<title>Node1</title>
<g id="a_Node000001"><a xlink:title=" ">
<polygon fill="#999999" stroke="#666666" points="244.5,-195 121.5,-195 121.5,-165 244.5,-165 244.5,-195"/>
<text text-anchor="start" x="129.5" y="-183" font-family="Helvetica,sans-Serif" font-size="10.00">drivers/potentiometer</text>
<text text-anchor="middle" x="183" y="-172" font-family="Helvetica,sans-Serif" font-size="10.00">/ad514x/ad5143.h</text>
</a>
</g>
</g>
<!-- Node2 -->
<g id="Node000002" class="node">
<title>Node2</title>
<g id="a_Node000002"><a xlink:href="dpot_8h.html" target="_top" xlink:title=" ">
<polygon fill="white" stroke="#666666" points="287,-129 185,-129 185,-110 287,-110 287,-129"/>
<text text-anchor="middle" x="236" y="-117" font-family="Helvetica,sans-Serif" font-size="10.00">../common/dpot.h</text>
</a>
</g>
</g>
<!-- Node1&#45;&gt;Node2 -->
<g id="edge1_Node000001_Node000002" class="edge">
<title>Node1&#45;&gt;Node2</title>
<g id="a_edge1_Node000001_Node000002"><a xlink:title=" ">
<path fill="none" stroke="#63b8ff" d="M195.83,-164.84C203.52,-156.35 213.33,-145.52 221.33,-136.69"/>
<polygon fill="#63b8ff" stroke="#63b8ff" points="223.94,-139.03 228.06,-129.27 218.75,-134.33 223.94,-139.03"/>
</a>
</g>
</g>
<!-- Node9 -->
<g id="Node000009" class="node">
<title>Node9</title>
<g id="a_Node000009"><a xlink:href="no__os__i2c_8h.html" target="_top" xlink:title="Header file of I2C Interface.">
<polygon fill="white" stroke="#666666" points="74,-129 0,-129 0,-110 74,-110 74,-129"/>
<text text-anchor="middle" x="37" y="-117" font-family="Helvetica,sans-Serif" font-size="10.00">no_os_i2c.h</text>
</a>
</g>
</g>
<!-- Node1&#45;&gt;Node9 -->
<g id="edge8_Node000001_Node000009" class="edge">
<title>Node1&#45;&gt;Node9</title>
<g id="a_edge8_Node000001_Node000009"><a xlink:title=" ">
<path fill="none" stroke="#63b8ff" d="M148.03,-164.99C123.67,-155.23 91.47,-142.33 68.03,-132.93"/>
<polygon fill="#63b8ff" stroke="#63b8ff" points="69.15,-129.61 58.56,-129.14 66.54,-136.11 69.15,-129.61"/>
</a>
</g>
</g>
<!-- Node10 -->
<g id="Node000010" class="node">
<title>Node10</title>
<g id="a_Node000010"><a xlink:href="no__os__util_8h.html" target="_top" xlink:title="Header file of utility functions.">
<polygon fill="white" stroke="#666666" points="167.5,-129 92.5,-129 92.5,-110 167.5,-110 167.5,-129"/>
<text text-anchor="middle" x="130" y="-117" font-family="Helvetica,sans-Serif" font-size="10.00">no_os_util.h</text>
</a>
</g>
</g>
<!-- Node1&#45;&gt;Node10 -->
<g id="edge10_Node000001_Node000010" class="edge">
<title>Node1&#45;&gt;Node10</title>
<g id="a_edge10_Node000001_Node000010"><a xlink:title=" ">
<path fill="none" stroke="#63b8ff" d="M170.17,-164.84C162.48,-156.35 152.67,-145.52 144.67,-136.69"/>
<polygon fill="#63b8ff" stroke="#63b8ff" points="147.25,-134.33 137.94,-129.27 142.06,-139.03 147.25,-134.33"/>
</a>
</g>
</g>
<!-- Node11 -->
<g id="Node000011" class="node">
<title>Node11</title>
<g id="a_Node000011"><a xlink:href="ad51xx__cmd_8h.html" target="_top" xlink:title=" ">
<polygon fill="white" stroke="#666666" points="393,-129 305,-129 305,-110 393,-110 393,-129"/>
<text text-anchor="middle" x="349" y="-117" font-family="Helvetica,sans-Serif" font-size="10.00">ad51xx_cmd.h</text>
</a>
</g>
</g>
<!-- Node1&#45;&gt;Node11 -->
<g id="edge14_Node000001_Node000011" class="edge">
<title>Node1&#45;&gt;Node11</title>
<g id="a_edge14_Node000001_Node000011"><a xlink:title=" ">
<path fill="none" stroke="#63b8ff" d="M222.76,-164.99C250.83,-155.1 288.05,-141.98 314.79,-132.56"/>
<polygon fill="#63b8ff" stroke="#63b8ff" points="316.22,-135.76 324.49,-129.14 313.89,-129.16 316.22,-135.76"/>
</a>
</g>
</g>
<!-- Node3 -->
<g id="Node000003" class="node">
<title>Node3</title>
<g id="a_Node000003"><a xlink:title=" ">
<polygon fill="#e0e0e0" stroke="#999999" points="85.5,-74 32.5,-74 32.5,-55 85.5,-55 85.5,-74"/>
<text text-anchor="middle" x="59" y="-62" font-family="Helvetica,sans-Serif" font-size="10.00">stdint.h</text>
</a>
</g>
</g>
<!-- Node2&#45;&gt;Node3 -->
<g id="edge2_Node000002_Node000003" class="edge">
<title>Node2&#45;&gt;Node3</title>
<g id="a_edge2_Node000002_Node000003"><a xlink:title=" ">
<path fill="none" stroke="#63b8ff" d="M207.56,-109.98C177.1,-100.86 128.65,-86.36 95.42,-76.41"/>
<polygon fill="#63b8ff" stroke="#63b8ff" points="96.21,-72.99 85.63,-73.47 94.21,-79.7 96.21,-72.99"/>
</a>
</g>
</g>
<!-- Node4 -->
<g id="Node000004" class="node">
<title>Node4</title>
<g id="a_Node000004"><a xlink:title=" ">
<polygon fill="#e0e0e0" stroke="#999999" points="237,-74 175,-74 175,-55 237,-55 237,-74"/>
<text text-anchor="middle" x="206" y="-62" font-family="Helvetica,sans-Serif" font-size="10.00">stdbool.h</text>
</a>
</g>
</g>
<!-- Node2&#45;&gt;Node4 -->
<g id="edge3_Node000002_Node000004" class="edge">
<title>Node2&#45;&gt;Node4</title>
<g id="a_edge3_Node000002_Node000004"><a xlink:title=" ">
<path fill="none" stroke="#63b8ff" d="M231.05,-109.75C226.94,-102.49 220.97,-91.95 215.9,-82.98"/>
<polygon fill="#63b8ff" stroke="#63b8ff" points="218.83,-81.07 210.86,-74.09 212.74,-84.52 218.83,-81.07"/>
</a>
</g>
</g>
<!-- Node5 -->
<g id="Node000005" class="node">
<title>Node5</title>
<g id="a_Node000005"><a xlink:title=" ">
<polygon fill="#e0e0e0" stroke="#999999" points="405,-74 355,-74 355,-55 405,-55 405,-74"/>
<text text-anchor="middle" x="380" y="-62" font-family="Helvetica,sans-Serif" font-size="10.00">stdio.h</text>
</a>
</g>
</g>
<!-- Node2&#45;&gt;Node5 -->
<g id="edge4_Node000002_Node000005" class="edge">
<title>Node2&#45;&gt;Node5</title>
<g id="a_edge4_Node000002_Node000005"><a xlink:title=" ">
<path fill="none" stroke="#63b8ff" d="M259.14,-109.98C282.82,-101.27 319.87,-87.63 346.71,-77.75"/>
<polygon fill="#63b8ff" stroke="#63b8ff" points="348.27,-80.91 356.44,-74.17 345.85,-74.34 348.27,-80.91"/>
</a>
</g>
</g>
<!-- Node6 -->
<g id="Node000006" class="node">
<title>Node6</title>
<g id="a_Node000006"><a xlink:title=" ">
<polygon fill="#e0e0e0" stroke="#999999" points="156.5,-74 103.5,-74 103.5,-55 156.5,-55 156.5,-74"/>
<text text-anchor="middle" x="130" y="-62" font-family="Helvetica,sans-Serif" font-size="10.00">stdlib.h</text>
</a>
</g>
</g>
<!-- Node2&#45;&gt;Node6 -->
<g id="edge5_Node000002_Node000006" class="edge">
<title>Node2&#45;&gt;Node6</title>
<g id="a_edge5_Node000002_Node000006"><a xlink:title=" ">
<path fill="none" stroke="#63b8ff" d="M218.97,-109.98C202.07,-101.54 175.94,-88.47 156.36,-78.68"/>
<polygon fill="#63b8ff" stroke="#63b8ff" points="157.85,-75.51 147.34,-74.17 154.72,-81.77 157.85,-75.51"/>
</a>
</g>
</g>
<!-- Node7 -->
<g id="Node000007" class="node">
<title>Node7</title>
<g id="a_Node000007"><a xlink:href="no__os__error_8h.html" target="_top" xlink:title="Error codes definition.">
<polygon fill="white" stroke="#666666" points="337,-74 255,-74 255,-55 337,-55 337,-74"/>
<text text-anchor="middle" x="296" y="-62" font-family="Helvetica,sans-Serif" font-size="10.00">no_os_error.h</text>
</a>
</g>
</g>
<!-- Node2&#45;&gt;Node7 -->
<g id="edge6_Node000002_Node000007" class="edge">
<title>Node2&#45;&gt;Node7</title>
<g id="a_edge6_Node000002_Node000007"><a xlink:title=" ">
<path fill="none" stroke="#63b8ff" d="M245.64,-109.98C254.51,-102.15 267.87,-90.34 278.61,-80.86"/>
<polygon fill="#63b8ff" stroke="#63b8ff" points="281.01,-83.41 286.18,-74.17 276.37,-78.17 281.01,-83.41"/>
</a>
</g>
</g>
<!-- Node8 -->
<g id="Node000008" class="node">
<title>Node8</title>
<g id="a_Node000008"><a xlink:href="errno_8h.html" target="_top" xlink:title="Error macro definition for ARM Compiler.">
<polygon fill="white" stroke="#666666" points="321.5,-19 270.5,-19 270.5,0 321.5,0 321.5,-19"/>
<text text-anchor="middle" x="296" y="-7" font-family="Helvetica,sans-Serif" font-size="10.00">errno.h</text>
</a>
</g>
</g>
<!-- Node7&#45;&gt;Node8 -->
<g id="edge7_Node000007_Node000008" class="edge">
<title>Node7&#45;&gt;Node8</title>
<g id="a_edge7_Node000007_Node000008"><a xlink:title=" ">
<path fill="none" stroke="#63b8ff" d="M296,-54.75C296,-47.8 296,-37.85 296,-29.13"/>
<polygon fill="#63b8ff" stroke="#63b8ff" points="299.5,-29.09 296,-19.09 292.5,-29.09 299.5,-29.09"/>
</a>
</g>
</g>
<!-- Node9&#45;&gt;Node3 -->
<g id="edge9_Node000009_Node000003" class="edge">
<title>Node9&#45;&gt;Node3</title>
<g id="a_edge9_Node000009_Node000003"><a xlink:title=" ">
<path fill="none" stroke="#63b8ff" d="M40.63,-109.75C43.58,-102.65 47.83,-92.4 51.51,-83.56"/>
<polygon fill="#63b8ff" stroke="#63b8ff" points="54.83,-84.67 55.43,-74.09 48.37,-81.98 54.83,-84.67"/>
</a>
</g>
</g>
<!-- Node10&#45;&gt;Node3 -->
<g id="edge11_Node000010_Node000003" class="edge">
<title>Node10&#45;&gt;Node3</title>
<g id="a_edge11_Node000010_Node000003"><a xlink:title=" ">
<path fill="none" stroke="#63b8ff" d="M118.59,-109.98C107.89,-102 91.66,-89.88 78.84,-80.31"/>
<polygon fill="#63b8ff" stroke="#63b8ff" points="80.72,-77.35 70.61,-74.17 76.53,-82.96 80.72,-77.35"/>
</a>
</g>
</g>
<!-- Node10&#45;&gt;Node4 -->
<g id="edge13_Node000010_Node000004" class="edge">
<title>Node10&#45;&gt;Node4</title>
<g id="a_edge13_Node000010_Node000004"><a xlink:title=" ">
<path fill="none" stroke="#63b8ff" d="M142.21,-109.98C153.78,-101.92 171.38,-89.65 185.16,-80.03"/>
<polygon fill="#63b8ff" stroke="#63b8ff" points="187.37,-82.76 193.57,-74.17 183.36,-77.02 187.37,-82.76"/>
</a>
</g>
</g>
<!-- Node10&#45;&gt;Node6 -->
<g id="edge12_Node000010_Node000006" class="edge">
<title>Node10&#45;&gt;Node6</title>
<g id="a_edge12_Node000010_Node000006"><a xlink:title=" ">
<path fill="none" stroke="#63b8ff" d="M130,-109.75C130,-102.8 130,-92.85 130,-84.13"/>
<polygon fill="#63b8ff" stroke="#63b8ff" points="133.5,-84.09 130,-74.09 126.5,-84.09 133.5,-84.09"/>
</a>
</g>
</g>
</g>
</svg>
