<?xml version="1.0" encoding="UTF-8" standalone="no"?>
<!DOCTYPE svg PUBLIC "-//W3C//DTD SVG 1.1//EN"
 "http://www.w3.org/Graphics/SVG/1.1/DTD/svg11.dtd">
<!-- Generated by graphviz version 2.43.0 (0)
 -->
<!-- Title: ad5592r_spi_wnop_r16 Pages: 1 -->
<svg width="309pt" height="138pt"
 viewBox="0.00 0.00 309.00 138.00" xmlns="http://www.w3.org/2000/svg" xmlns:xlink="http://www.w3.org/1999/xlink">
<g id="graph0" class="graph" transform="scale(1 1) rotate(0) translate(4 134)">
<title>ad5592r_spi_wnop_r16</title>
<!-- Node1 -->
<g id="Node000001" class="node">
<title>Node1</title>
<g id="a_Node000001"><a xlink:title=" ">
<polygon fill="#999999" stroke="#666666" points="301,-74 173,-74 173,-55 301,-55 301,-74"/>
<text text-anchor="middle" x="237" y="-62" font-family="Helvetica,sans-Serif" font-size="10.00">ad5592r_spi_wnop_r16</text>
</a>
</g>
</g>
<!-- Node2 -->
<g id="Node000002" class="node">
<title>Node2</title>
<g id="a_Node000002"><a xlink:href="ad5592r_8c.html#a261a0a2d22e93e9c6d4862e4c50f99af" target="_top" xlink:title=" ">
<polygon fill="white" stroke="#666666" points="123.5,-130 13.5,-130 13.5,-111 123.5,-111 123.5,-130"/>
<text text-anchor="middle" x="68.5" y="-118" font-family="Helvetica,sans-Serif" font-size="10.00">ad5592r_gpio_read</text>
</a>
</g>
</g>
<!-- Node1&#45;&gt;Node2 -->
<g id="edge1_Node000001_Node000002" class="edge">
<title>Node1&#45;&gt;Node2</title>
<g id="a_edge1_Node000001_Node000002"><a xlink:title=" ">
<path fill="none" stroke="#63b8ff" d="M203.57,-77.94C184.39,-85.64 159.52,-95.2 137,-102.5 127.77,-105.49 117.72,-108.37 108.26,-110.92"/>
<polygon fill="#63b8ff" stroke="#63b8ff" points="205.09,-81.11 213.04,-74.11 202.46,-74.62 205.09,-81.11"/>
</a>
</g>
</g>
<!-- Node3 -->
<g id="Node000003" class="node">
<title>Node3</title>
<g id="a_Node000003"><a xlink:href="ad5592r_8c.html#af1e559509b867d084c29646213ddcb1c" target="_top" xlink:title=" ">
<polygon fill="white" stroke="#666666" points="137,-93 0,-93 0,-74 137,-74 137,-93"/>
<text text-anchor="middle" x="68.5" y="-81" font-family="Helvetica,sans-Serif" font-size="10.00">ad5592r_multi_read_adc</text>
</a>
</g>
</g>
<!-- Node1&#45;&gt;Node3 -->
<g id="edge2_Node000001_Node000003" class="edge">
<title>Node1&#45;&gt;Node3</title>
<g id="a_edge2_Node000001_Node000003"><a xlink:title=" ">
<path fill="none" stroke="#63b8ff" d="M162.42,-72.9C154.03,-73.85 145.49,-74.83 137.18,-75.78"/>
<polygon fill="#63b8ff" stroke="#63b8ff" points="163.04,-76.35 172.58,-71.74 162.25,-69.39 163.04,-76.35"/>
</a>
</g>
</g>
<!-- Node4 -->
<g id="Node000004" class="node">
<title>Node4</title>
<g id="a_Node000004"><a xlink:href="ad5592r_8c.html#a1e9e32e0151e0b731b6c8a5af5e68740" target="_top" xlink:title=" ">
<polygon fill="white" stroke="#666666" points="121.5,-56 15.5,-56 15.5,-37 121.5,-37 121.5,-56"/>
<text text-anchor="middle" x="68.5" y="-44" font-family="Helvetica,sans-Serif" font-size="10.00">ad5592r_read_adc</text>
</a>
</g>
</g>
<!-- Node1&#45;&gt;Node4 -->
<g id="edge3_Node000001_Node000004" class="edge">
<title>Node1&#45;&gt;Node4</title>
<g id="a_edge3_Node000001_Node000004"><a xlink:title=" ">
<path fill="none" stroke="#63b8ff" d="M162.62,-56.57C148.81,-55.07 134.64,-53.54 121.65,-52.14"/>
<polygon fill="#63b8ff" stroke="#63b8ff" points="162.26,-60.05 172.58,-57.64 163.01,-53.09 162.26,-60.05"/>
</a>
</g>
</g>
<!-- Node5 -->
<g id="Node000005" class="node">
<title>Node5</title>
<g id="a_Node000005"><a xlink:href="ad5592r_8c.html#a140bc30f9e3a229d8bc874b047aa968b" target="_top" xlink:title=" ">
<polygon fill="white" stroke="#666666" points="120.5,-19 16.5,-19 16.5,0 120.5,0 120.5,-19"/>
<text text-anchor="middle" x="68.5" y="-7" font-family="Helvetica,sans-Serif" font-size="10.00">ad5592r_reg_read</text>
</a>
</g>
</g>
<!-- Node1&#45;&gt;Node5 -->
<g id="edge4_Node000001_Node000005" class="edge">
<title>Node1&#45;&gt;Node5</title>
<g id="a_edge4_Node000001_Node000005"><a xlink:title=" ">
<path fill="none" stroke="#63b8ff" d="M201.94,-51.4C182.94,-44.28 158.79,-35.52 137,-28.5 126.8,-25.22 115.64,-21.94 105.38,-19.06"/>
<polygon fill="#63b8ff" stroke="#63b8ff" points="200.77,-54.7 211.36,-54.96 203.24,-48.15 200.77,-54.7"/>
</a>
</g>
</g>
</g>
</svg>
