<?xml version="1.0" encoding="UTF-8" standalone="no"?>
<!DOCTYPE svg PUBLIC "-//W3C//DTD SVG 1.1//EN"
 "http://www.w3.org/Graphics/SVG/1.1/DTD/svg11.dtd">
<!-- Generated by graphviz version 2.43.0 (0)
 -->
<!-- Title: ad5592r_power_down Pages: 1 -->
<svg width="569pt" height="101pt"
 viewBox="0.00 0.00 569.00 101.00" xmlns="http://www.w3.org/2000/svg" xmlns:xlink="http://www.w3.org/1999/xlink">
<g id="graph0" class="graph" transform="scale(1 1) rotate(0) translate(4 97)">
<title>ad5592r_power_down</title>
<!-- Node1 -->
<g id="Node000001" class="node">
<title>Node1</title>
<g id="a_Node000001"><a xlink:title=" ">
<polygon fill="#999999" stroke="#666666" points="561,-55 438,-55 438,-36 561,-36 561,-55"/>
<text text-anchor="middle" x="499.5" y="-43" font-family="Helvetica,sans-Serif" font-size="10.00">ad5592r_power_down</text>
</a>
</g>
</g>
<!-- Node2 -->
<g id="Node000002" class="node">
<title>Node2</title>
<g id="a_Node000002"><a xlink:href="ad5592r_8c.html#a2db169af98eba6bfef6138ce39287c63" target="_top" xlink:title=" ">
<polygon fill="white" stroke="#666666" points="402,-74 325,-74 325,-55 402,-55 402,-74"/>
<text text-anchor="middle" x="363.5" y="-62" font-family="Helvetica,sans-Serif" font-size="10.00">ad5592r_init</text>
</a>
</g>
</g>
<!-- Node1&#45;&gt;Node2 -->
<g id="edge1_Node000001_Node000002" class="edge">
<title>Node1&#45;&gt;Node2</title>
<g id="a_edge1_Node000001_Node000002"><a xlink:title=" ">
<path fill="none" stroke="#63b8ff" d="M427.75,-55.53C418.87,-56.79 410.08,-58.04 402,-59.18"/>
<polygon fill="#63b8ff" stroke="#63b8ff" points="428.36,-58.98 437.77,-54.11 427.38,-52.05 428.36,-58.98"/>
</a>
</g>
</g>
<!-- Node6 -->
<g id="Node000006" class="node">
<title>Node6</title>
<g id="a_Node000006"><a xlink:href="ad5593r_8c.html#a30d1442f4f8fd980e5aa615e52568a0a" target="_top" xlink:title=" ">
<polygon fill="white" stroke="#666666" points="402,-37 325,-37 325,-18 402,-18 402,-37"/>
<text text-anchor="middle" x="363.5" y="-25" font-family="Helvetica,sans-Serif" font-size="10.00">ad5593r_init</text>
</a>
</g>
</g>
<!-- Node1&#45;&gt;Node6 -->
<g id="edge5_Node000001_Node000006" class="edge">
<title>Node1&#45;&gt;Node6</title>
<g id="a_edge5_Node000001_Node000006"><a xlink:title=" ">
<path fill="none" stroke="#63b8ff" d="M427.75,-36C418.87,-34.8 410.08,-33.62 402,-32.54"/>
<polygon fill="#63b8ff" stroke="#63b8ff" points="427.4,-39.48 437.77,-37.34 428.33,-32.54 427.4,-39.48"/>
</a>
</g>
</g>
<!-- Node3 -->
<g id="Node000003" class="node">
<title>Node3</title>
<g id="a_Node000003"><a xlink:href="curvetrace__example_8c.html#ad34f8e319f209b37bcc549564ebe8c63" target="_top" xlink:title=" ">
<polygon fill="white" stroke="#666666" points="289,-93 152,-93 152,-74 289,-74 289,-93"/>
<text text-anchor="middle" x="220.5" y="-81" font-family="Helvetica,sans-Serif" font-size="10.00">ad5592r_curve_example</text>
</a>
</g>
</g>
<!-- Node2&#45;&gt;Node3 -->
<g id="edge2_Node000002_Node000003" class="edge">
<title>Node2&#45;&gt;Node3</title>
<g id="a_edge2_Node000002_Node000003"><a xlink:title=" ">
<path fill="none" stroke="#63b8ff" d="M314.58,-70.96C306.36,-72.06 297.68,-73.23 289.06,-74.4"/>
<polygon fill="#63b8ff" stroke="#63b8ff" points="315.27,-74.4 324.71,-69.59 314.34,-67.46 315.27,-74.4"/>
</a>
</g>
</g>
<!-- Node5 -->
<g id="Node000005" class="node">
<title>Node5</title>
<g id="a_Node000005"><a xlink:href="adalm-lsmspg_2src_2examples_2iio__example_2iio__example_8c.html#a897b461801f0c5c236b9fb1279569532" target="_top" xlink:title=" ">
<polygon fill="white" stroke="#666666" points="259,-56 182,-56 182,-37 259,-37 259,-56"/>
<text text-anchor="middle" x="220.5" y="-44" font-family="Helvetica,sans-Serif" font-size="10.00">iio_example</text>
</a>
</g>
</g>
<!-- Node2&#45;&gt;Node5 -->
<g id="edge4_Node000002_Node000005" class="edge">
<title>Node2&#45;&gt;Node5</title>
<g id="a_edge4_Node000002_Node000005"><a xlink:title=" ">
<path fill="none" stroke="#63b8ff" d="M314.68,-58.39C296.64,-56.09 276.39,-53.51 259.39,-51.34"/>
<polygon fill="#63b8ff" stroke="#63b8ff" points="314.35,-61.88 324.71,-59.68 315.24,-54.94 314.35,-61.88"/>
</a>
</g>
</g>
<!-- Node4 -->
<g id="Node000004" class="node">
<title>Node4</title>
<g id="a_Node000004"><a xlink:href="curvetrace__example_8c.html#aa8c97b178f1ed4023a2fa5c0217a52c9" target="_top" xlink:title=" ">
<polygon fill="white" stroke="#666666" points="116,-56 0,-56 0,-37 116,-37 116,-56"/>
<text text-anchor="middle" x="58" y="-44" font-family="Helvetica,sans-Serif" font-size="10.00">curvetrace_example</text>
</a>
</g>
</g>
<!-- Node3&#45;&gt;Node4 -->
<g id="edge3_Node000003_Node000004" class="edge">
<title>Node3&#45;&gt;Node4</title>
<g id="a_edge3_Node000003_Node000004"><a xlink:title=" ">
<path fill="none" stroke="#63b8ff" d="M168.36,-71.71C146.45,-66.66 121.19,-60.84 100.47,-56.06"/>
<polygon fill="#63b8ff" stroke="#63b8ff" points="167.64,-75.14 178.17,-73.97 169.21,-68.31 167.64,-75.14"/>
</a>
</g>
</g>
<!-- Node6&#45;&gt;Node5 -->
<g id="edge8_Node000006_Node000005" class="edge">
<title>Node6&#45;&gt;Node5</title>
<g id="a_edge8_Node000006_Node000005"><a xlink:title=" ">
<path fill="none" stroke="#63b8ff" d="M314.68,-33.94C296.64,-36.37 276.39,-39.1 259.39,-41.39"/>
<polygon fill="#63b8ff" stroke="#63b8ff" points="315.27,-37.4 324.71,-32.59 314.34,-30.46 315.27,-37.4"/>
</a>
</g>
</g>
<!-- Node7 -->
<g id="Node000007" class="node">
<title>Node7</title>
<g id="a_Node000007"><a xlink:href="curvetrace__example_8c.html#a5f8b0282631418ff801896c142e28ecd" target="_top" xlink:title=" ">
<polygon fill="white" stroke="#666666" points="289,-19 152,-19 152,0 289,0 289,-19"/>
<text text-anchor="middle" x="220.5" y="-7" font-family="Helvetica,sans-Serif" font-size="10.00">ad5593r_curve_example</text>
</a>
</g>
</g>
<!-- Node6&#45;&gt;Node7 -->
<g id="edge6_Node000006_Node000007" class="edge">
<title>Node6&#45;&gt;Node7</title>
<g id="a_edge6_Node000006_Node000007"><a xlink:title=" ">
<path fill="none" stroke="#63b8ff" d="M314.58,-21.38C306.36,-20.33 297.68,-19.23 289.06,-18.12"/>
<polygon fill="#63b8ff" stroke="#63b8ff" points="314.35,-24.88 324.71,-22.68 315.24,-17.94 314.35,-24.88"/>
</a>
</g>
</g>
<!-- Node7&#45;&gt;Node4 -->
<g id="edge7_Node000007_Node000004" class="edge">
<title>Node7&#45;&gt;Node4</title>
<g id="a_edge7_Node000007_Node000004"><a xlink:title=" ">
<path fill="none" stroke="#63b8ff" d="M168.36,-21.29C146.45,-26.34 121.19,-32.16 100.47,-36.94"/>
<polygon fill="#63b8ff" stroke="#63b8ff" points="169.21,-24.69 178.17,-19.03 167.64,-17.86 169.21,-24.69"/>
</a>
</g>
</g>
</g>
</svg>
