<?xml version="1.0" encoding="UTF-8" standalone="no"?>
<!DOCTYPE svg PUBLIC "-//W3C//DTD SVG 1.1//EN"
 "http://www.w3.org/Graphics/SVG/1.1/DTD/svg11.dtd">
<!-- Generated by graphviz version 2.43.0 (0)
 -->
<!-- Title: drivers/adc&#45;dac/ad5592r/ad5592r&#45;base.h Pages: 1 -->
<svg width="612pt" height="247pt"
 viewBox="0.00 0.00 612.00 247.00" xmlns="http://www.w3.org/2000/svg" xmlns:xlink="http://www.w3.org/1999/xlink">
<g id="graph0" class="graph" transform="scale(1 1) rotate(0) translate(4 243)">
<title>drivers/adc&#45;dac/ad5592r/ad5592r&#45;base.h</title>
<!-- Node1 -->
<g id="Node000001" class="node">
<title>Node1</title>
<g id="a_Node000001"><a xlink:title="Header file of AD5592R Base Driver.">
<polygon fill="#999999" stroke="#666666" points="324,-239 190,-239 190,-209 324,-209 324,-239"/>
<text text-anchor="start" x="198" y="-227" font-family="Helvetica,sans-Serif" font-size="10.00">drivers/adc&#45;dac/ad5592r</text>
<text text-anchor="middle" x="257" y="-216" font-family="Helvetica,sans-Serif" font-size="10.00">/ad5592r&#45;base.h</text>
</a>
</g>
</g>
<!-- Node2 -->
<g id="Node000002" class="node">
<title>Node2</title>
<g id="a_Node000002"><a xlink:href="ad5592r-base_8c.html" target="_top" xlink:title="Implementation of AD5592R Base Driver.">
<polygon fill="white" stroke="#666666" points="134,-173 0,-173 0,-143 134,-143 134,-173"/>
<text text-anchor="start" x="8" y="-161" font-family="Helvetica,sans-Serif" font-size="10.00">drivers/adc&#45;dac/ad5592r</text>
<text text-anchor="middle" x="67" y="-150" font-family="Helvetica,sans-Serif" font-size="10.00">/ad5592r&#45;base.c</text>
</a>
</g>
</g>
<!-- Node1&#45;&gt;Node2 -->
<g id="edge1_Node000001_Node000002" class="edge">
<title>Node1&#45;&gt;Node2</title>
<g id="a_edge1_Node000001_Node000002"><a xlink:title=" ">
<path fill="none" stroke="#63b8ff" d="M205.71,-205.72C175.27,-195.47 137.16,-182.63 108.6,-173.01"/>
<polygon fill="#63b8ff" stroke="#63b8ff" points="204.71,-209.08 215.3,-208.95 206.94,-202.45 204.71,-209.08"/>
</a>
</g>
</g>
<!-- Node3 -->
<g id="Node000003" class="node">
<title>Node3</title>
<g id="a_Node000003"><a xlink:href="ad5592r_8c.html" target="_top" xlink:title="Implementation of AD5592R driver.">
<polygon fill="white" stroke="#666666" points="224,-107 90,-107 90,-77 224,-77 224,-107"/>
<text text-anchor="start" x="98" y="-95" font-family="Helvetica,sans-Serif" font-size="10.00">drivers/adc&#45;dac/ad5592r</text>
<text text-anchor="middle" x="157" y="-84" font-family="Helvetica,sans-Serif" font-size="10.00">/ad5592r.c</text>
</a>
</g>
</g>
<!-- Node1&#45;&gt;Node3 -->
<g id="edge2_Node000001_Node000003" class="edge">
<title>Node1&#45;&gt;Node3</title>
<g id="a_edge2_Node000001_Node000003"><a xlink:title=" ">
<path fill="none" stroke="#63b8ff" d="M216.89,-203.83C203.86,-195.88 190.35,-185.56 181,-173 166.19,-153.11 160.46,-124.1 158.28,-107.03"/>
<polygon fill="#63b8ff" stroke="#63b8ff" points="215.38,-206.99 225.79,-208.95 218.87,-200.93 215.38,-206.99"/>
</a>
</g>
</g>
<!-- Node4 -->
<g id="Node000004" class="node">
<title>Node4</title>
<g id="a_Node000004"><a xlink:href="ad5592r_8h.html" target="_top" xlink:title="Header file of AD5592R driver.">
<polygon fill="white" stroke="#666666" points="324,-173 190,-173 190,-143 324,-143 324,-173"/>
<text text-anchor="start" x="198" y="-161" font-family="Helvetica,sans-Serif" font-size="10.00">drivers/adc&#45;dac/ad5592r</text>
<text text-anchor="middle" x="257" y="-150" font-family="Helvetica,sans-Serif" font-size="10.00">/ad5592r.h</text>
</a>
</g>
</g>
<!-- Node1&#45;&gt;Node4 -->
<g id="edge3_Node000001_Node000004" class="edge">
<title>Node1&#45;&gt;Node4</title>
<g id="a_edge3_Node000001_Node000004"><a xlink:title=" ">
<path fill="none" stroke="#63b8ff" d="M257,-198.54C257,-189.96 257,-180.61 257,-173.16"/>
<polygon fill="#63b8ff" stroke="#63b8ff" points="253.5,-198.8 257,-208.8 260.5,-198.8 253.5,-198.8"/>
</a>
</g>
</g>
<!-- Node8 -->
<g id="Node000008" class="node">
<title>Node8</title>
<g id="a_Node000008"><a xlink:href="ad5593r_8c.html" target="_top" xlink:title="Implementation of AD5593R driver.">
<polygon fill="white" stroke="#666666" points="604,-107 470,-107 470,-77 604,-77 604,-107"/>
<text text-anchor="start" x="478" y="-95" font-family="Helvetica,sans-Serif" font-size="10.00">drivers/adc&#45;dac/ad5592r</text>
<text text-anchor="middle" x="537" y="-84" font-family="Helvetica,sans-Serif" font-size="10.00">/ad5593r.c</text>
</a>
</g>
</g>
<!-- Node1&#45;&gt;Node8 -->
<g id="edge9_Node000001_Node000008" class="edge">
<title>Node1&#45;&gt;Node8</title>
<g id="a_edge9_Node000001_Node000008"><a xlink:title=" ">
<path fill="none" stroke="#63b8ff" d="M334.16,-213.84C393.35,-205.53 469.02,-191.7 494,-173 515.96,-156.55 527.93,-125.51 533.35,-107.3"/>
<polygon fill="#63b8ff" stroke="#63b8ff" points="333.49,-210.4 324.06,-215.23 334.45,-217.33 333.49,-210.4"/>
</a>
</g>
</g>
<!-- Node9 -->
<g id="Node000009" class="node">
<title>Node9</title>
<g id="a_Node000009"><a xlink:href="ad5593r_8h.html" target="_top" xlink:title="Header file of AD5593R driver.">
<polygon fill="white" stroke="#666666" points="485,-173 351,-173 351,-143 485,-143 485,-173"/>
<text text-anchor="start" x="359" y="-161" font-family="Helvetica,sans-Serif" font-size="10.00">drivers/adc&#45;dac/ad5592r</text>
<text text-anchor="middle" x="418" y="-150" font-family="Helvetica,sans-Serif" font-size="10.00">/ad5593r.h</text>
</a>
</g>
</g>
<!-- Node1&#45;&gt;Node9 -->
<g id="edge10_Node000001_Node000009" class="edge">
<title>Node1&#45;&gt;Node9</title>
<g id="a_edge10_Node000001_Node000009"><a xlink:title=" ">
<path fill="none" stroke="#63b8ff" d="M301.81,-205.19C327.37,-195.02 358.97,-182.47 382.75,-173.01"/>
<polygon fill="#63b8ff" stroke="#63b8ff" points="300.33,-202.01 292.33,-208.95 302.92,-208.51 300.33,-202.01"/>
</a>
</g>
</g>
<!-- Node4&#45;&gt;Node3 -->
<g id="edge4_Node000004_Node000003" class="edge">
<title>Node4&#45;&gt;Node3</title>
<g id="a_edge4_Node000004_Node000003"><a xlink:title=" ">
<path fill="none" stroke="#63b8ff" d="M226.22,-137.3C211,-127.56 192.97,-116.02 179.13,-107.16"/>
<polygon fill="#63b8ff" stroke="#63b8ff" points="224.5,-140.35 234.81,-142.8 228.27,-134.46 224.5,-140.35"/>
</a>
</g>
</g>
<!-- Node5 -->
<g id="Node000005" class="node">
<title>Node5</title>
<g id="a_Node000005"><a xlink:href="iio__ad559xr_8c.html" target="_top" xlink:title="Implementation of AD5592R/AD5593R IIO driver.">
<polygon fill="white" stroke="#666666" points="461,-35.5 327,-35.5 327,-5.5 461,-5.5 461,-35.5"/>
<text text-anchor="start" x="335" y="-23.5" font-family="Helvetica,sans-Serif" font-size="10.00">drivers/adc&#45;dac/ad5592r</text>
<text text-anchor="middle" x="394" y="-12.5" font-family="Helvetica,sans-Serif" font-size="10.00">/iio_ad559xr.c</text>
</a>
</g>
</g>
<!-- Node4&#45;&gt;Node5 -->
<g id="edge5_Node000004_Node000005" class="edge">
<title>Node4&#45;&gt;Node5</title>
<g id="a_edge5_Node000004_Node000005"><a xlink:title=" ">
<path fill="none" stroke="#63b8ff" d="M255.56,-132.31C255.83,-115.15 258.87,-92.62 271,-77 286.59,-56.92 311.06,-43.89 334.08,-35.54"/>
<polygon fill="#63b8ff" stroke="#63b8ff" points="252.07,-132.75 255.72,-142.7 259.07,-132.65 252.07,-132.75"/>
</a>
</g>
</g>
<!-- Node6 -->
<g id="Node000006" class="node">
<title>Node6</title>
<g id="a_Node000006"><a xlink:href="iio__ad559xr_8h.html" target="_top" xlink:title="Header file implementation of AD5592R/AD5593R IIO driver.">
<polygon fill="white" stroke="#666666" points="414,-107 280,-107 280,-77 414,-77 414,-107"/>
<text text-anchor="start" x="288" y="-95" font-family="Helvetica,sans-Serif" font-size="10.00">drivers/adc&#45;dac/ad5592r</text>
<text text-anchor="middle" x="347" y="-84" font-family="Helvetica,sans-Serif" font-size="10.00">/iio_ad559xr.h</text>
</a>
</g>
</g>
<!-- Node4&#45;&gt;Node6 -->
<g id="edge6_Node000004_Node000006" class="edge">
<title>Node4&#45;&gt;Node6</title>
<g id="a_edge6_Node000004_Node000006"><a xlink:title=" ">
<path fill="none" stroke="#63b8ff" d="M285.47,-136.75C299.01,-127.13 314.86,-115.86 327.08,-107.16"/>
<polygon fill="#63b8ff" stroke="#63b8ff" points="283.1,-134.15 276.97,-142.8 287.15,-139.85 283.1,-134.15"/>
</a>
</g>
</g>
<!-- Node6&#45;&gt;Node5 -->
<g id="edge7_Node000006_Node000005" class="edge">
<title>Node6&#45;&gt;Node5</title>
<g id="a_edge7_Node000006_Node000005"><a xlink:title=" ">
<path fill="none" stroke="#63b8ff" d="M362.3,-68.38C369.61,-57.57 378.14,-44.96 384.5,-35.54"/>
<polygon fill="#63b8ff" stroke="#63b8ff" points="359.21,-66.69 356.51,-76.94 365.01,-70.61 359.21,-66.69"/>
</a>
</g>
</g>
<!-- Node7 -->
<g id="Node000007" class="node">
<title>Node7</title>
<g id="a_Node000007"><a xlink:href="adalm-lsmspg_2src_2examples_2iio__example_2iio__example_8c.html" target="_top" xlink:title=" ">
<polygon fill="white" stroke="#666666" points="309,-41 161,-41 161,0 309,0 309,-41"/>
<text text-anchor="start" x="169" y="-29" font-family="Helvetica,sans-Serif" font-size="10.00">projects/adalm&#45;lsmspg</text>
<text text-anchor="start" x="169" y="-18" font-family="Helvetica,sans-Serif" font-size="10.00">/src/examples/iio_example</text>
<text text-anchor="middle" x="235" y="-7" font-family="Helvetica,sans-Serif" font-size="10.00">/iio_example.c</text>
</a>
</g>
</g>
<!-- Node6&#45;&gt;Node7 -->
<g id="edge8_Node000006_Node000007" class="edge">
<title>Node6&#45;&gt;Node7</title>
<g id="a_edge8_Node000006_Node000007"><a xlink:title=" ">
<path fill="none" stroke="#63b8ff" d="M315.7,-71.58C300.36,-62.06 281.92,-50.62 266.54,-41.07"/>
<polygon fill="#63b8ff" stroke="#63b8ff" points="313.99,-74.64 324.34,-76.94 317.68,-68.69 313.99,-74.64"/>
</a>
</g>
</g>
<!-- Node9&#45;&gt;Node5 -->
<g id="edge12_Node000009_Node000005" class="edge">
<title>Node9&#45;&gt;Node5</title>
<g id="a_edge12_Node000009_Node000005"><a xlink:title=" ">
<path fill="none" stroke="#63b8ff" d="M423.26,-132.75C425.83,-116.71 427.5,-95.34 423,-77 419.32,-62.01 410.8,-46.57 403.94,-35.8"/>
<polygon fill="#63b8ff" stroke="#63b8ff" points="419.76,-132.43 421.4,-142.9 426.64,-133.69 419.76,-132.43"/>
</a>
</g>
</g>
<!-- Node9&#45;&gt;Node6 -->
<g id="edge13_Node000009_Node000006" class="edge">
<title>Node9&#45;&gt;Node6</title>
<g id="a_edge13_Node000009_Node000006"><a xlink:title=" ">
<path fill="none" stroke="#63b8ff" d="M394.62,-135.92C384.15,-126.49 372.08,-115.61 362.71,-107.16"/>
<polygon fill="#63b8ff" stroke="#63b8ff" points="392.47,-138.7 402.24,-142.8 397.16,-133.5 392.47,-138.7"/>
</a>
</g>
</g>
<!-- Node9&#45;&gt;Node8 -->
<g id="edge11_Node000009_Node000008" class="edge">
<title>Node9&#45;&gt;Node8</title>
<g id="a_edge11_Node000009_Node000008"><a xlink:title=" ">
<path fill="none" stroke="#63b8ff" d="M453.13,-138.11C471.65,-128.14 493.99,-116.13 510.95,-107.01"/>
<polygon fill="#63b8ff" stroke="#63b8ff" points="451.26,-135.14 444.12,-142.95 454.58,-141.3 451.26,-135.14"/>
</a>
</g>
</g>
</g>
</svg>
