<?xml version="1.0" encoding="UTF-8" standalone="no"?>
<!DOCTYPE svg PUBLIC "-//W3C//DTD SVG 1.1//EN"
 "http://www.w3.org/Graphics/SVG/1.1/DTD/svg11.dtd">
<!-- Generated by graphviz version 2.43.0 (0)
 -->
<!-- Title: drivers/dac/ad5706r/ad5706r.h Pages: 1 -->
<svg width="373pt" height="148pt"
 viewBox="0.00 0.00 373.44 148.00" xmlns="http://www.w3.org/2000/svg" xmlns:xlink="http://www.w3.org/1999/xlink">

<svg id="main" version="1.1" xmlns="http://www.w3.org/2000/svg" xmlns:xlink="http://www.w3.org/1999/xlink" xml:space="preserve">

<style type="text/css"><![CDATA[
.node, .edge {opacity: 0.7;}
.node.selected, .edge.selected {opacity: 1;}
.edge:hover path { stroke: red; }
.edge:hover polygon { stroke: red; fill: red; }
]]></style>
<script type="application/ecmascript" xlink:href="svg.min.js"/>
<svg id="graph" class="graph">
<g id="graph0" class="graph" transform="scale(1 1) rotate(0) translate(4 144)">
<title>drivers/dac/ad5706r/ad5706r.h</title>
<!-- Node1 -->
<g id="Node000001" class="node">
<title>Node1</title>
<g id="a_Node000001"><a xlink:title="Header file of AD5706R Driver.">
<polygon fill="#999999" stroke="#666666" points="191.94,-140 78.94,-140 78.94,-110 191.94,-110 191.94,-140"/>
<text text-anchor="start" x="86.94" y="-128" font-family="Helvetica,sans-Serif" font-size="10.00">drivers/dac/ad5706r</text>
<text text-anchor="middle" x="135.44" y="-117" font-family="Helvetica,sans-Serif" font-size="10.00">/ad5706r.h</text>
</a>
</g>
</g>
<!-- Node2 -->
<g id="Node000002" class="node">
<title>Node2</title>
<g id="a_Node000002"><a xlink:title=" ">
<polygon fill="#e0e0e0" stroke="#999999" points="209.94,-19 156.94,-19 156.94,0 209.94,0 209.94,-19"/>
<text text-anchor="middle" x="183.44" y="-7" font-family="Helvetica,sans-Serif" font-size="10.00">stdint.h</text>
</a>
</g>
</g>
<!-- Node1&#45;&gt;Node2 -->
<g id="edge1_Node000001_Node000002" class="edge">
<title>Node1&#45;&gt;Node2</title>
<g id="a_edge1_Node000001_Node000002"><a xlink:title=" ">
<path fill="none" stroke="#63b8ff" d="M78.87,-114.56C33.96,-104.55 -17.61,-85.85 6.44,-55 23.51,-33.11 100.15,-20.33 146.81,-14.45"/>
<polygon fill="#63b8ff" stroke="#63b8ff" points="147.34,-17.92 156.84,-13.24 146.49,-10.97 147.34,-17.92"/>
</a>
</g>
</g>
<!-- Node3 -->
<g id="Node000003" class="node">
<title>Node3</title>
<g id="a_Node000003"><a xlink:title=" ">
<polygon fill="#e0e0e0" stroke="#999999" points="77.44,-74 15.44,-74 15.44,-55 77.44,-55 77.44,-74"/>
<text text-anchor="middle" x="46.44" y="-62" font-family="Helvetica,sans-Serif" font-size="10.00">stdbool.h</text>
</a>
</g>
</g>
<!-- Node1&#45;&gt;Node3 -->
<g id="edge2_Node000001_Node000003" class="edge">
<title>Node1&#45;&gt;Node3</title>
<g id="a_edge2_Node000001_Node000003"><a xlink:title=" ">
<path fill="none" stroke="#63b8ff" d="M113.89,-109.84C99.97,-100.68 81.91,-88.82 67.98,-79.66"/>
<polygon fill="#63b8ff" stroke="#63b8ff" points="69.79,-76.66 59.51,-74.09 65.95,-82.51 69.79,-76.66"/>
</a>
</g>
</g>
<!-- Node4 -->
<g id="Node000004" class="node">
<title>Node4</title>
<g id="a_Node000004"><a xlink:href="no__os__gpio_8h.html" target="_top" xlink:title="Header file of GPIO Interface.">
<polygon fill="white" stroke="#666666" points="175.44,-74 95.44,-74 95.44,-55 175.44,-55 175.44,-74"/>
<text text-anchor="middle" x="135.44" y="-62" font-family="Helvetica,sans-Serif" font-size="10.00">no_os_gpio.h</text>
</a>
</g>
</g>
<!-- Node1&#45;&gt;Node4 -->
<g id="edge3_Node000001_Node000004" class="edge">
<title>Node1&#45;&gt;Node4</title>
<g id="a_edge3_Node000001_Node000004"><a xlink:title=" ">
<path fill="none" stroke="#63b8ff" d="M135.44,-109.84C135.44,-102.21 135.44,-92.7 135.44,-84.45"/>
<polygon fill="#63b8ff" stroke="#63b8ff" points="138.94,-84.27 135.44,-74.27 131.94,-84.27 138.94,-84.27"/>
</a>
</g>
</g>
<!-- Node5 -->
<g id="Node000005" class="node">
<title>Node5</title>
<g id="a_Node000005"><a xlink:href="no__os__spi_8h.html" target="_top" xlink:title="Header file of SPI Interface.">
<polygon fill="white" stroke="#666666" points="267.44,-74 193.44,-74 193.44,-55 267.44,-55 267.44,-74"/>
<text text-anchor="middle" x="230.44" y="-62" font-family="Helvetica,sans-Serif" font-size="10.00">no_os_spi.h</text>
</a>
</g>
</g>
<!-- Node1&#45;&gt;Node5 -->
<g id="edge5_Node000001_Node000005" class="edge">
<title>Node1&#45;&gt;Node5</title>
<g id="a_edge5_Node000001_Node000005"><a xlink:title=" ">
<path fill="none" stroke="#63b8ff" d="M158.44,-109.84C173.44,-100.6 192.94,-88.59 207.86,-79.4"/>
<polygon fill="#63b8ff" stroke="#63b8ff" points="209.8,-82.32 216.48,-74.09 206.13,-76.36 209.8,-82.32"/>
</a>
</g>
</g>
<!-- Node6 -->
<g id="Node000006" class="node">
<title>Node6</title>
<g id="a_Node000006"><a xlink:href="no__os__crc8_8h.html" target="_top" xlink:title="Header file of CRC&#45;8 computation.">
<polygon fill="white" stroke="#666666" points="365.44,-74 285.44,-74 285.44,-55 365.44,-55 365.44,-74"/>
<text text-anchor="middle" x="325.44" y="-62" font-family="Helvetica,sans-Serif" font-size="10.00">no_os_crc8.h</text>
</a>
</g>
</g>
<!-- Node1&#45;&gt;Node6 -->
<g id="edge7_Node000001_Node000006" class="edge">
<title>Node1&#45;&gt;Node6</title>
<g id="a_edge7_Node000001_Node000006"><a xlink:title=" ">
<path fill="none" stroke="#63b8ff" d="M180.95,-109.99C213.6,-99.94 257.06,-86.55 287.77,-77.1"/>
<polygon fill="#63b8ff" stroke="#63b8ff" points="289.13,-80.34 297.66,-74.05 287.07,-73.65 289.13,-80.34"/>
</a>
</g>
</g>
<!-- Node4&#45;&gt;Node2 -->
<g id="edge4_Node000004_Node000002" class="edge">
<title>Node4&#45;&gt;Node2</title>
<g id="a_edge4_Node000004_Node000002"><a xlink:title=" ">
<path fill="none" stroke="#63b8ff" d="M143.37,-54.75C150.29,-47.11 160.5,-35.82 168.89,-26.56"/>
<polygon fill="#63b8ff" stroke="#63b8ff" points="171.54,-28.85 175.66,-19.09 166.35,-24.15 171.54,-28.85"/>
</a>
</g>
</g>
<!-- Node5&#45;&gt;Node2 -->
<g id="edge6_Node000005_Node000002" class="edge">
<title>Node5&#45;&gt;Node2</title>
<g id="a_edge6_Node000005_Node000002"><a xlink:title=" ">
<path fill="none" stroke="#63b8ff" d="M222.68,-54.75C215.97,-47.18 206.1,-36.05 197.93,-26.84"/>
<polygon fill="#63b8ff" stroke="#63b8ff" points="200.31,-24.25 191.06,-19.09 195.07,-28.89 200.31,-24.25"/>
</a>
</g>
</g>
<!-- Node6&#45;&gt;Node2 -->
<g id="edge8_Node000006_Node000002" class="edge">
<title>Node6&#45;&gt;Node2</title>
<g id="a_edge8_Node000006_Node000002"><a xlink:title=" ">
<path fill="none" stroke="#63b8ff" d="M302.62,-54.98C279.27,-46.27 242.73,-32.63 216.27,-22.75"/>
<polygon fill="#63b8ff" stroke="#63b8ff" points="217.26,-19.39 206.67,-19.17 214.81,-25.95 217.26,-19.39"/>
</a>
</g>
</g>
<!-- Node7 -->
<g id="Node000007" class="node">
<title>Node7</title>
<g id="a_Node000007"><a xlink:title=" ">
<polygon fill="#e0e0e0" stroke="#999999" points="353.44,-19 297.44,-19 297.44,0 353.44,0 353.44,-19"/>
<text text-anchor="middle" x="325.44" y="-7" font-family="Helvetica,sans-Serif" font-size="10.00">stddef.h</text>
</a>
</g>
</g>
<!-- Node6&#45;&gt;Node7 -->
<g id="edge9_Node000006_Node000007" class="edge">
<title>Node6&#45;&gt;Node7</title>
<g id="a_edge9_Node000006_Node000007"><a xlink:title=" ">
<path fill="none" stroke="#63b8ff" d="M325.44,-54.75C325.44,-47.8 325.44,-37.85 325.44,-29.13"/>
<polygon fill="#63b8ff" stroke="#63b8ff" points="328.94,-29.09 325.44,-19.09 321.94,-29.09 328.94,-29.09"/>
</a>
</g>
</g>
</g>
</svg>
</svg>

<style type='text/css'>
<![CDATA[
[data-mouse-over-selected='false'] { opacity: 0.7; }
[data-mouse-over-selected='true']  { opacity: 1.0; }
]]>
</style>
<script type="application/ecmascript"><![CDATA[
document.addEventListener('DOMContentLoaded', (event) => {
  highlightEdges();
  highlightAdjacentNodes();
});
]]></script>
</svg>
