<?xml version="1.0" encoding="UTF-8" standalone="no"?>
<!DOCTYPE svg PUBLIC "-//W3C//DTD SVG 1.1//EN"
 "http://www.w3.org/Graphics/SVG/1.1/DTD/svg11.dtd">
<!-- Generated by graphviz version 2.43.0 (0)
 -->
<!-- Title: ad5770r_spi_reg_write_multiple Pages: 1 -->
<svg width="422pt" height="101pt"
 viewBox="0.00 0.00 422.00 101.00" xmlns="http://www.w3.org/2000/svg" xmlns:xlink="http://www.w3.org/1999/xlink">

<svg id="main" version="1.1" xmlns="http://www.w3.org/2000/svg" xmlns:xlink="http://www.w3.org/1999/xlink" xml:space="preserve">

<style type="text/css"><![CDATA[
.node, .edge {opacity: 0.7;}
.node.selected, .edge.selected {opacity: 1;}
.edge:hover path { stroke: red; }
.edge:hover polygon { stroke: red; fill: red; }
]]></style>
<script type="application/ecmascript" xlink:href="svg.min.js"/>
<svg id="graph" class="graph">
<g id="graph0" class="graph" transform="scale(1 1) rotate(0) translate(4 97)">
<title>ad5770r_spi_reg_write_multiple</title>
<!-- Node1 -->
<g id="Node000001" class="node">
<title>Node1</title>
<g id="a_Node000001"><a xlink:title=" ">
<polygon fill="#999999" stroke="#666666" points="414,-61.5 287,-61.5 287,-31.5 414,-31.5 414,-61.5"/>
<text text-anchor="start" x="295" y="-49.5" font-family="Helvetica,sans-Serif" font-size="10.00">ad5770r_spi_reg_write</text>
<text text-anchor="middle" x="350.5" y="-38.5" font-family="Helvetica,sans-Serif" font-size="10.00">_multiple</text>
</a>
</g>
</g>
<!-- Node2 -->
<g id="Node000002" class="node">
<title>Node2</title>
<g id="a_Node000002"><a xlink:href="ad5770r_8c.html#ae121931aa1a5da6dd95e5332f2f47047" target="_top" xlink:title=" ">
<polygon fill="white" stroke="#666666" points="246.5,-93 117.5,-93 117.5,-74 246.5,-74 246.5,-93"/>
<text text-anchor="middle" x="182" y="-81" font-family="Helvetica,sans-Serif" font-size="10.00">ad5770r_set_dac_input</text>
</a>
</g>
</g>
<!-- Node1&#45;&gt;Node2 -->
<g id="edge1_Node000001_Node000002" class="edge">
<title>Node1&#45;&gt;Node2</title>
<g id="a_edge1_Node000001_Node000002"><a xlink:title=" ">
<path fill="none" stroke="#63b8ff" d="M276.47,-62.73C259.18,-66.57 241.3,-70.55 225.86,-73.98"/>
<polygon fill="#63b8ff" stroke="#63b8ff" points="277.55,-66.07 286.55,-60.49 276.03,-59.24 277.55,-66.07"/>
</a>
</g>
</g>
<!-- Node4 -->
<g id="Node000004" class="node">
<title>Node4</title>
<g id="a_Node000004"><a xlink:href="ad5770r_8c.html#ab43f472b8eb575ea8d9e0d7270590995" target="_top" xlink:title=" ">
<polygon fill="white" stroke="#666666" points="247.5,-56 116.5,-56 116.5,-37 247.5,-37 247.5,-56"/>
<text text-anchor="middle" x="182" y="-44" font-family="Helvetica,sans-Serif" font-size="10.00">ad5770r_set_dac_value</text>
</a>
</g>
</g>
<!-- Node1&#45;&gt;Node4 -->
<g id="edge3_Node000001_Node000004" class="edge">
<title>Node1&#45;&gt;Node4</title>
<g id="a_edge3_Node000001_Node000004"><a xlink:title=" ">
<path fill="none" stroke="#63b8ff" d="M276.31,-46.5C266.78,-46.5 257.07,-46.5 247.7,-46.5"/>
<polygon fill="#63b8ff" stroke="#63b8ff" points="276.55,-50 286.55,-46.5 276.55,-43 276.55,-50"/>
</a>
</g>
</g>
<!-- Node5 -->
<g id="Node000005" class="node">
<title>Node5</title>
<g id="a_Node000005"><a xlink:href="ad5770r_8c.html#a4725043c09c4f6a5c1ac8ca77ae52a7c" target="_top" xlink:title=" ">
<polygon fill="white" stroke="#666666" points="251,-19 113,-19 113,0 251,0 251,-19"/>
<text text-anchor="middle" x="182" y="-7" font-family="Helvetica,sans-Serif" font-size="10.00">ad5770r_set_page_mask</text>
</a>
</g>
</g>
<!-- Node1&#45;&gt;Node5 -->
<g id="edge5_Node000001_Node000005" class="edge">
<title>Node1&#45;&gt;Node5</title>
<g id="a_edge5_Node000001_Node000005"><a xlink:title=" ">
<path fill="none" stroke="#63b8ff" d="M276.47,-30.27C259.18,-26.43 241.3,-22.45 225.86,-19.02"/>
<polygon fill="#63b8ff" stroke="#63b8ff" points="276.03,-33.76 286.55,-32.51 277.55,-26.93 276.03,-33.76"/>
</a>
</g>
</g>
<!-- Node3 -->
<g id="Node000003" class="node">
<title>Node3</title>
<g id="a_Node000003"><a xlink:href="ad5770r_8c.html#a91549ef06cfe7ec6c7119ed89a44927d" target="_top" xlink:title=" ">
<polygon fill="white" stroke="#666666" points="77,-56 0,-56 0,-37 77,-37 77,-56"/>
<text text-anchor="middle" x="38.5" y="-44" font-family="Helvetica,sans-Serif" font-size="10.00">ad5770r_init</text>
</a>
</g>
</g>
<!-- Node2&#45;&gt;Node3 -->
<g id="edge2_Node000002_Node000003" class="edge">
<title>Node2&#45;&gt;Node3</title>
<g id="a_edge2_Node000002_Node000003"><a xlink:title=" ">
<path fill="none" stroke="#63b8ff" d="M134.65,-71.38C115.72,-66.43 94.13,-60.78 76.31,-56.12"/>
<polygon fill="#63b8ff" stroke="#63b8ff" points="134,-74.83 144.56,-73.97 135.77,-68.06 134,-74.83"/>
</a>
</g>
</g>
<!-- Node4&#45;&gt;Node3 -->
<g id="edge4_Node000004_Node000003" class="edge">
<title>Node4&#45;&gt;Node3</title>
<g id="a_edge4_Node000004_Node000003"><a xlink:title=" ">
<path fill="none" stroke="#63b8ff" d="M106.38,-46.5C96.3,-46.5 86.32,-46.5 77.27,-46.5"/>
<polygon fill="#63b8ff" stroke="#63b8ff" points="106.46,-50 116.46,-46.5 106.46,-43 106.46,-50"/>
</a>
</g>
</g>
<!-- Node5&#45;&gt;Node3 -->
<g id="edge6_Node000005_Node000003" class="edge">
<title>Node5&#45;&gt;Node3</title>
<g id="a_edge6_Node000005_Node000003"><a xlink:title=" ">
<path fill="none" stroke="#63b8ff" d="M134.65,-21.62C115.72,-26.57 94.13,-32.22 76.31,-36.88"/>
<polygon fill="#63b8ff" stroke="#63b8ff" points="135.77,-24.94 144.56,-19.03 134,-18.17 135.77,-24.94"/>
</a>
</g>
</g>
</g>
</svg>
</svg>

<style type='text/css'>
<![CDATA[
[data-mouse-over-selected='false'] { opacity: 0.7; }
[data-mouse-over-selected='true']  { opacity: 1.0; }
]]>
</style>
<script type="application/ecmascript"><![CDATA[
document.addEventListener('DOMContentLoaded', (event) => {
  highlightEdges();
  highlightAdjacentNodes();
});
]]></script>
</svg>
