<?xml version="1.0" encoding="UTF-8" standalone="no"?>
<!DOCTYPE svg PUBLIC "-//W3C//DTD SVG 1.1//EN"
 "http://www.w3.org/Graphics/SVG/1.1/DTD/svg11.dtd">
<!-- Generated by graphviz version 2.43.0 (0)
 -->
<!-- Title: drivers/dac/ad5755/ad5755.c Pages: 1 -->
<svg width="507pt" height="203pt"
 viewBox="0.00 0.00 507.00 203.00" xmlns="http://www.w3.org/2000/svg" xmlns:xlink="http://www.w3.org/1999/xlink">
<g id="graph0" class="graph" transform="scale(1 1) rotate(0) translate(4 199)">
<title>drivers/dac/ad5755/ad5755.c</title>
<!-- Node1 -->
<g id="Node000001" class="node">
<title>Node1</title>
<g id="a_Node000001"><a xlink:title="Implementation of AD5755 Driver.">
<polygon fill="#999999" stroke="#666666" points="376.5,-195 266.5,-195 266.5,-165 376.5,-165 376.5,-195"/>
<text text-anchor="start" x="274.5" y="-183" font-family="Helvetica,sans-Serif" font-size="10.00">drivers/dac/ad5755</text>
<text text-anchor="middle" x="321.5" y="-172" font-family="Helvetica,sans-Serif" font-size="10.00">/ad5755.c</text>
</a>
</g>
</g>
<!-- Node2 -->
<g id="Node000002" class="node">
<title>Node2</title>
<g id="a_Node000002"><a xlink:title=" ">
<polygon fill="#e0e0e0" stroke="#999999" points="404,-74 351,-74 351,-55 404,-55 404,-74"/>
<text text-anchor="middle" x="377.5" y="-62" font-family="Helvetica,sans-Serif" font-size="10.00">stdlib.h</text>
</a>
</g>
</g>
<!-- Node1&#45;&gt;Node2 -->
<g id="edge1_Node000001_Node000002" class="edge">
<title>Node1&#45;&gt;Node2</title>
<g id="a_edge1_Node000001_Node000002"><a xlink:title=" ">
<path fill="none" stroke="#63b8ff" d="M313.03,-164.95C305.44,-150.39 296.88,-127.38 306.5,-110 314.34,-95.83 328.79,-85.57 342.61,-78.5"/>
<polygon fill="#63b8ff" stroke="#63b8ff" points="344.42,-81.52 351.99,-74.1 341.45,-75.18 344.42,-81.52"/>
</a>
</g>
</g>
<!-- Node3 -->
<g id="Node000003" class="node">
<title>Node3</title>
<g id="a_Node000003"><a xlink:href="ad5755_8h.html" target="_top" xlink:title="Header file of AD5755 Driver. This driver supporting the following devices: AD5755,...">
<polygon fill="white" stroke="#666666" points="259.5,-129 197.5,-129 197.5,-110 259.5,-110 259.5,-129"/>
<text text-anchor="middle" x="228.5" y="-117" font-family="Helvetica,sans-Serif" font-size="10.00">ad5755.h</text>
</a>
</g>
</g>
<!-- Node1&#45;&gt;Node3 -->
<g id="edge2_Node000001_Node000003" class="edge">
<title>Node1&#45;&gt;Node3</title>
<g id="a_edge2_Node000001_Node000003"><a xlink:title=" ">
<path fill="none" stroke="#63b8ff" d="M298.99,-164.84C284.44,-155.68 265.57,-143.82 251.01,-134.66"/>
<polygon fill="#63b8ff" stroke="#63b8ff" points="252.49,-131.46 242.16,-129.09 248.76,-137.38 252.49,-131.46"/>
</a>
</g>
</g>
<!-- Node8 -->
<g id="Node000008" class="node">
<title>Node8</title>
<g id="a_Node000008"><a xlink:href="ad5755__cfg_8h.html" target="_top" xlink:title="Header file of AD5755 Driver Configuration.">
<polygon fill="white" stroke="#666666" points="397.5,-129 315.5,-129 315.5,-110 397.5,-110 397.5,-129"/>
<text text-anchor="middle" x="356.5" y="-117" font-family="Helvetica,sans-Serif" font-size="10.00">ad5755_cfg.h</text>
</a>
</g>
</g>
<!-- Node1&#45;&gt;Node8 -->
<g id="edge10_Node000001_Node000008" class="edge">
<title>Node1&#45;&gt;Node8</title>
<g id="a_edge10_Node000001_Node000008"><a xlink:title=" ">
<path fill="none" stroke="#63b8ff" d="M329.97,-164.84C334.79,-156.78 340.87,-146.62 346,-138.06"/>
<polygon fill="#63b8ff" stroke="#63b8ff" points="349.12,-139.64 351.26,-129.27 343.12,-136.05 349.12,-139.64"/>
</a>
</g>
</g>
<!-- Node9 -->
<g id="Node000009" class="node">
<title>Node9</title>
<g id="a_Node000009"><a xlink:href="no__os__alloc_8h.html" target="_top" xlink:title=" ">
<polygon fill="white" stroke="#666666" points="499,-129 416,-129 416,-110 499,-110 499,-129"/>
<text text-anchor="middle" x="457.5" y="-117" font-family="Helvetica,sans-Serif" font-size="10.00">no_os_alloc.h</text>
</a>
</g>
</g>
<!-- Node1&#45;&gt;Node9 -->
<g id="edge11_Node000001_Node000009" class="edge">
<title>Node1&#45;&gt;Node9</title>
<g id="a_edge11_Node000001_Node000009"><a xlink:title=" ">
<path fill="none" stroke="#63b8ff" d="M354.08,-164.99C376.56,-155.31 406.22,-142.56 428.01,-133.18"/>
<polygon fill="#63b8ff" stroke="#63b8ff" points="429.61,-136.31 437.42,-129.14 426.85,-129.88 429.61,-136.31"/>
</a>
</g>
</g>
<!-- Node4 -->
<g id="Node000004" class="node">
<title>Node4</title>
<g id="a_Node000004"><a xlink:title=" ">
<polygon fill="#e0e0e0" stroke="#999999" points="217,-19 164,-19 164,0 217,0 217,-19"/>
<text text-anchor="middle" x="190.5" y="-7" font-family="Helvetica,sans-Serif" font-size="10.00">stdint.h</text>
</a>
</g>
</g>
<!-- Node3&#45;&gt;Node4 -->
<g id="edge3_Node000003_Node000004" class="edge">
<title>Node3&#45;&gt;Node4</title>
<g id="a_edge3_Node000003_Node000004"><a xlink:title=" ">
<path fill="none" stroke="#63b8ff" d="M245.9,-109.98C267.04,-98.43 298.26,-76.73 284.5,-55 271.89,-35.07 247.67,-23.89 226.98,-17.73"/>
<polygon fill="#63b8ff" stroke="#63b8ff" points="227.73,-14.31 217.17,-15.08 225.91,-21.06 227.73,-14.31"/>
</a>
</g>
</g>
<!-- Node5 -->
<g id="Node000005" class="node">
<title>Node5</title>
<g id="a_Node000005"><a xlink:href="no__os__delay_8h.html" target="_top" xlink:title="Header file of Delay functions.">
<polygon fill="white" stroke="#666666" points="85,-74 0,-74 0,-55 85,-55 85,-74"/>
<text text-anchor="middle" x="42.5" y="-62" font-family="Helvetica,sans-Serif" font-size="10.00">no_os_delay.h</text>
</a>
</g>
</g>
<!-- Node3&#45;&gt;Node5 -->
<g id="edge4_Node000003_Node000005" class="edge">
<title>Node3&#45;&gt;Node5</title>
<g id="a_edge4_Node000003_Node000005"><a xlink:title=" ">
<path fill="none" stroke="#63b8ff" d="M198.62,-109.98C167.12,-101.01 117.33,-86.82 82.47,-76.89"/>
<polygon fill="#63b8ff" stroke="#63b8ff" points="83.19,-73.46 72.62,-74.08 81.28,-80.19 83.19,-73.46"/>
</a>
</g>
</g>
<!-- Node6 -->
<g id="Node000006" class="node">
<title>Node6</title>
<g id="a_Node000006"><a xlink:href="no__os__gpio_8h.html" target="_top" xlink:title="Header file of GPIO Interface.">
<polygon fill="white" stroke="#666666" points="183.5,-74 103.5,-74 103.5,-55 183.5,-55 183.5,-74"/>
<text text-anchor="middle" x="143.5" y="-62" font-family="Helvetica,sans-Serif" font-size="10.00">no_os_gpio.h</text>
</a>
</g>
</g>
<!-- Node3&#45;&gt;Node6 -->
<g id="edge6_Node000003_Node000006" class="edge">
<title>Node3&#45;&gt;Node6</title>
<g id="a_edge6_Node000003_Node000006"><a xlink:title=" ">
<path fill="none" stroke="#63b8ff" d="M214.84,-109.98C201.66,-101.77 181.47,-89.18 165.93,-79.49"/>
<polygon fill="#63b8ff" stroke="#63b8ff" points="167.74,-76.49 157.41,-74.17 164.04,-82.43 167.74,-76.49"/>
</a>
</g>
</g>
<!-- Node7 -->
<g id="Node000007" class="node">
<title>Node7</title>
<g id="a_Node000007"><a xlink:href="no__os__spi_8h.html" target="_top" xlink:title="Header file of SPI Interface.">
<polygon fill="white" stroke="#666666" points="275.5,-74 201.5,-74 201.5,-55 275.5,-55 275.5,-74"/>
<text text-anchor="middle" x="238.5" y="-62" font-family="Helvetica,sans-Serif" font-size="10.00">no_os_spi.h</text>
</a>
</g>
</g>
<!-- Node3&#45;&gt;Node7 -->
<g id="edge8_Node000003_Node000007" class="edge">
<title>Node3&#45;&gt;Node7</title>
<g id="a_edge8_Node000003_Node000007"><a xlink:title=" ">
<path fill="none" stroke="#63b8ff" d="M230.15,-109.75C231.46,-102.8 233.34,-92.85 234.98,-84.13"/>
<polygon fill="#63b8ff" stroke="#63b8ff" points="238.46,-84.56 236.88,-74.09 231.59,-83.27 238.46,-84.56"/>
</a>
</g>
</g>
<!-- Node5&#45;&gt;Node4 -->
<g id="edge5_Node000005_Node000004" class="edge">
<title>Node5&#45;&gt;Node4</title>
<g id="a_edge5_Node000005_Node000004"><a xlink:title=" ">
<path fill="none" stroke="#63b8ff" d="M66.28,-54.98C90.73,-46.23 129.03,-32.51 156.65,-22.62"/>
<polygon fill="#63b8ff" stroke="#63b8ff" points="158.05,-25.84 166.29,-19.17 155.69,-19.25 158.05,-25.84"/>
</a>
</g>
</g>
<!-- Node6&#45;&gt;Node4 -->
<g id="edge7_Node000006_Node000004" class="edge">
<title>Node6&#45;&gt;Node4</title>
<g id="a_edge7_Node000006_Node000004"><a xlink:title=" ">
<path fill="none" stroke="#63b8ff" d="M151.26,-54.75C157.97,-47.18 167.84,-36.05 176.01,-26.84"/>
<polygon fill="#63b8ff" stroke="#63b8ff" points="178.87,-28.89 182.88,-19.09 173.63,-24.25 178.87,-28.89"/>
</a>
</g>
</g>
<!-- Node7&#45;&gt;Node4 -->
<g id="edge9_Node000007_Node000004" class="edge">
<title>Node7&#45;&gt;Node4</title>
<g id="a_edge9_Node000007_Node000004"><a xlink:title=" ">
<path fill="none" stroke="#63b8ff" d="M230.57,-54.75C223.65,-47.11 213.43,-35.82 205.05,-26.56"/>
<polygon fill="#63b8ff" stroke="#63b8ff" points="207.59,-24.15 198.28,-19.09 202.4,-28.85 207.59,-24.15"/>
</a>
</g>
</g>
<!-- Node9&#45;&gt;Node2 -->
<g id="edge13_Node000009_Node000002" class="edge">
<title>Node9&#45;&gt;Node2</title>
<g id="a_edge13_Node000009_Node000002"><a xlink:title=" ">
<path fill="none" stroke="#63b8ff" d="M444.65,-109.98C432.36,-101.84 413.59,-89.41 399.02,-79.76"/>
<polygon fill="#63b8ff" stroke="#63b8ff" points="400.86,-76.78 390.59,-74.17 396.99,-82.61 400.86,-76.78"/>
</a>
</g>
</g>
<!-- Node10 -->
<g id="Node000010" class="node">
<title>Node10</title>
<g id="a_Node000010"><a xlink:title=" ">
<polygon fill="#e0e0e0" stroke="#999999" points="482.5,-74 432.5,-74 432.5,-55 482.5,-55 482.5,-74"/>
<text text-anchor="middle" x="457.5" y="-62" font-family="Helvetica,sans-Serif" font-size="10.00">stdio.h</text>
</a>
</g>
</g>
<!-- Node9&#45;&gt;Node10 -->
<g id="edge12_Node000009_Node000010" class="edge">
<title>Node9&#45;&gt;Node10</title>
<g id="a_edge12_Node000009_Node000010"><a xlink:title=" ">
<path fill="none" stroke="#63b8ff" d="M457.5,-109.75C457.5,-102.8 457.5,-92.85 457.5,-84.13"/>
<polygon fill="#63b8ff" stroke="#63b8ff" points="461,-84.09 457.5,-74.09 454,-84.09 461,-84.09"/>
</a>
</g>
</g>
</g>
</svg>
