<?xml version="1.0" encoding="UTF-8" standalone="no"?>
<!DOCTYPE svg PUBLIC "-//W3C//DTD SVG 1.1//EN"
 "http://www.w3.org/Graphics/SVG/1.1/DTD/svg11.dtd">
<!-- Generated by graphviz version 2.43.0 (0)
 -->
<!-- Title: ad5755_set_register_value Pages: 1 -->
<svg width="564pt" height="355pt"
 viewBox="0.00 0.00 564.00 354.85" xmlns="http://www.w3.org/2000/svg" xmlns:xlink="http://www.w3.org/1999/xlink">
<g id="graph0" class="graph" transform="scale(1 1) rotate(0) translate(4 350.85)">
<title>ad5755_set_register_value</title>
<!-- Node1 -->
<g id="Node000001" class="node">
<title>Node1</title>
<g id="a_Node000001"><a xlink:title="Writes data into a register.">
<polygon fill="#999999" stroke="#666666" points="556,-212.5 440,-212.5 440,-182.5 556,-182.5 556,-212.5"/>
<text text-anchor="start" x="448" y="-200.5" font-family="Helvetica,sans-Serif" font-size="10.00">ad5755_set_register</text>
<text text-anchor="middle" x="498" y="-189.5" font-family="Helvetica,sans-Serif" font-size="10.00">_value</text>
</a>
</g>
</g>
<!-- Node2 -->
<g id="Node000002" class="node">
<title>Node2</title>
<g id="a_Node000002"><a xlink:href="ad5755_8c.html#aa2876383215b9a110b42a3d7441e9e79" target="_top" xlink:title="Initializes the device and powers&#45;up all channels. The device is initialized with the values held by ...">
<polygon fill="white" stroke="#666666" points="74,-275 0,-275 0,-256 74,-256 74,-275"/>
<text text-anchor="middle" x="37" y="-263" font-family="Helvetica,sans-Serif" font-size="10.00">ad5755_init</text>
</a>
</g>
</g>
<!-- Node1&#45;&gt;Node2 -->
<g id="edge1_Node000001_Node000002" class="edge">
<title>Node1&#45;&gt;Node2</title>
<g id="a_edge1_Node000001_Node000002"><a xlink:title=" ">
<path fill="none" stroke="#63b8ff" d="M471.1,-218.72C428.7,-251.78 340.42,-313.72 253,-332.5 190.86,-345.85 169.15,-355.76 110,-332.5 80.44,-320.88 55.83,-290.77 44.58,-275.18"/>
<polygon fill="#63b8ff" stroke="#63b8ff" points="473.27,-221.46 478.95,-212.52 468.94,-215.97 473.27,-221.46"/>
</a>
</g>
</g>
<!-- Node3 -->
<g id="Node000003" class="node">
<title>Node3</title>
<g id="a_Node000003"><a xlink:href="ad5755_8c.html#a99786cbdda8f693aaef761e5a2a16f1b" target="_top" xlink:title="Sets the range of a channel.">
<polygon fill="white" stroke="#666666" points="239.5,-323.5 123.5,-323.5 123.5,-293.5 239.5,-293.5 239.5,-323.5"/>
<text text-anchor="start" x="131.5" y="-311.5" font-family="Helvetica,sans-Serif" font-size="10.00">ad5755_set_channel</text>
<text text-anchor="middle" x="181.5" y="-300.5" font-family="Helvetica,sans-Serif" font-size="10.00">_range</text>
</a>
</g>
</g>
<!-- Node1&#45;&gt;Node3 -->
<g id="edge2_Node000001_Node000003" class="edge">
<title>Node1&#45;&gt;Node3</title>
<g id="a_edge2_Node000001_Node000003"><a xlink:title=" ">
<path fill="none" stroke="#63b8ff" d="M444.73,-215.95C383.2,-237.67 282.17,-273.32 225.15,-293.45"/>
<polygon fill="#63b8ff" stroke="#63b8ff" points="445.99,-219.21 454.26,-212.59 443.66,-212.61 445.99,-219.21"/>
</a>
</g>
</g>
<!-- Node4 -->
<g id="Node000004" class="node">
<title>Node4</title>
<g id="a_Node000004"><a xlink:href="ad5755_8c.html#a8b5d584dad93f6c5389c3d682d5642ca" target="_top" xlink:title="Configures one of the control registers.">
<polygon fill="white" stroke="#666666" points="402.5,-212.5 290.5,-212.5 290.5,-182.5 402.5,-182.5 402.5,-212.5"/>
<text text-anchor="start" x="298.5" y="-200.5" font-family="Helvetica,sans-Serif" font-size="10.00">ad5755_set_control</text>
<text text-anchor="middle" x="346.5" y="-189.5" font-family="Helvetica,sans-Serif" font-size="10.00">_registers</text>
</a>
</g>
</g>
<!-- Node1&#45;&gt;Node4 -->
<g id="edge3_Node000001_Node000004" class="edge">
<title>Node1&#45;&gt;Node4</title>
<g id="a_edge3_Node000001_Node000004"><a xlink:title=" ">
<path fill="none" stroke="#63b8ff" d="M429.51,-197.5C420.47,-197.5 411.29,-197.5 402.5,-197.5"/>
<polygon fill="#63b8ff" stroke="#63b8ff" points="429.63,-201 439.63,-197.5 429.63,-194 429.63,-201"/>
</a>
</g>
</g>
<!-- Node11 -->
<g id="Node000011" class="node">
<title>Node11</title>
<g id="a_Node000011"><a xlink:href="ad5755_8c.html#ad077de9ecb99ad5c1d9aa175a5ded99e" target="_top" xlink:title="Sets the output current of a channel.">
<polygon fill="white" stroke="#666666" points="403,-164 290,-164 290,-145 403,-145 403,-164"/>
<text text-anchor="middle" x="346.5" y="-152" font-family="Helvetica,sans-Serif" font-size="10.00">ad5755_set_current</text>
</a>
</g>
</g>
<!-- Node1&#45;&gt;Node11 -->
<g id="edge13_Node000001_Node000011" class="edge">
<title>Node1&#45;&gt;Node11</title>
<g id="a_edge13_Node000001_Node000011"><a xlink:title=" ">
<path fill="none" stroke="#63b8ff" d="M434.86,-179.63C416.34,-174.3 396.75,-168.67 380.83,-164.09"/>
<polygon fill="#63b8ff" stroke="#63b8ff" points="434.13,-183.06 444.71,-182.46 436.07,-176.33 434.13,-183.06"/>
</a>
</g>
</g>
<!-- Node12 -->
<g id="Node000012" class="node">
<title>Node12</title>
<g id="a_Node000012"><a xlink:href="ad5755_8c.html#adefbedceef256335f569badd878a2f24" target="_top" xlink:title="Sets the output voltage of a channel.">
<polygon fill="white" stroke="#666666" points="404,-127 289,-127 289,-108 404,-108 404,-127"/>
<text text-anchor="middle" x="346.5" y="-115" font-family="Helvetica,sans-Serif" font-size="10.00">ad5755_set_voltage</text>
</a>
</g>
</g>
<!-- Node1&#45;&gt;Node12 -->
<g id="edge14_Node000001_Node000012" class="edge">
<title>Node1&#45;&gt;Node12</title>
<g id="a_edge14_Node000001_Node000012"><a xlink:title=" ">
<path fill="none" stroke="#63b8ff" d="M468.95,-176.37C451.06,-163.6 426.98,-147.67 404,-136.5 396.65,-132.93 388.45,-129.75 380.63,-127.06"/>
<polygon fill="#63b8ff" stroke="#63b8ff" points="467.06,-179.32 477.21,-182.36 471.17,-173.65 467.06,-179.32"/>
</a>
</g>
</g>
<!-- Node4&#45;&gt;Node2 -->
<g id="edge6_Node000004_Node000002" class="edge">
<title>Node4&#45;&gt;Node2</title>
<g id="a_edge6_Node000004_Node000002"><a xlink:title=" ">
<path fill="none" stroke="#63b8ff" d="M314.46,-217.97C297.1,-228.35 274.67,-240.09 253,-246.5 192.09,-264.52 117.59,-267.01 74.19,-266.63"/>
<polygon fill="#63b8ff" stroke="#63b8ff" points="316.35,-220.91 323.03,-212.7 312.68,-214.95 316.35,-220.91"/>
</a>
</g>
</g>
<!-- Node4&#45;&gt;Node3 -->
<g id="edge8_Node000004_Node000003" class="edge">
<title>Node4&#45;&gt;Node3</title>
<g id="a_edge8_Node000004_Node000003"><a xlink:title=" ">
<path fill="none" stroke="#63b8ff" d="M321.24,-219.76C296.43,-242.41 260.48,-274.84 253,-279.5 244.58,-284.75 235.04,-289.42 225.76,-293.39"/>
<polygon fill="#63b8ff" stroke="#63b8ff" points="323.84,-222.13 328.86,-212.8 319.12,-216.96 323.84,-222.13"/>
</a>
</g>
</g>
<!-- Node5 -->
<g id="Node000005" class="node">
<title>Node5</title>
<g id="a_Node000005"><a xlink:href="ad5755_8c.html#af53d0531c0ef0e528f9ae42ee4db7223" target="_top" xlink:title="Selects if the channel clears when CLEAR pin is activated.">
<polygon fill="white" stroke="#666666" points="244,-237.5 119,-237.5 119,-207.5 244,-207.5 244,-237.5"/>
<text text-anchor="start" x="127" y="-225.5" font-family="Helvetica,sans-Serif" font-size="10.00">ad5755_channel_clear</text>
<text text-anchor="middle" x="181.5" y="-214.5" font-family="Helvetica,sans-Serif" font-size="10.00">_enable</text>
</a>
</g>
</g>
<!-- Node4&#45;&gt;Node5 -->
<g id="edge4_Node000004_Node000005" class="edge">
<title>Node4&#45;&gt;Node5</title>
<g id="a_edge4_Node000004_Node000005"><a xlink:title=" ">
<path fill="none" stroke="#63b8ff" d="M280.39,-207.49C268.41,-209.32 255.94,-211.24 244.07,-213.06"/>
<polygon fill="#63b8ff" stroke="#63b8ff" points="280.96,-210.94 290.32,-205.96 279.9,-204.02 280.96,-210.94"/>
</a>
</g>
</g>
<!-- Node6 -->
<g id="Node000006" class="node">
<title>Node6</title>
<g id="a_Node000006"><a xlink:href="ad5755_8c.html#a03720bc12093fc45c62b9cd4462729fa" target="_top" xlink:title="Write a &quot;service pulse&quot; to the AD5755 watchdog timer when enabled.">
<polygon fill="white" stroke="#666666" points="250,-189.5 113,-189.5 113,-159.5 250,-159.5 250,-189.5"/>
<text text-anchor="start" x="121" y="-177.5" font-family="Helvetica,sans-Serif" font-size="10.00">ad5755_feed_watch_dog</text>
<text text-anchor="middle" x="181.5" y="-166.5" font-family="Helvetica,sans-Serif" font-size="10.00">_timer</text>
</a>
</g>
</g>
<!-- Node4&#45;&gt;Node6 -->
<g id="edge5_Node000004_Node000006" class="edge">
<title>Node4&#45;&gt;Node6</title>
<g id="a_edge5_Node000004_Node000006"><a xlink:title=" ">
<path fill="none" stroke="#63b8ff" d="M280.14,-188.28C270.24,-186.88 260.01,-185.44 250.06,-184.03"/>
<polygon fill="#63b8ff" stroke="#63b8ff" points="279.92,-191.78 290.32,-189.71 280.9,-184.85 279.92,-191.78"/>
</a>
</g>
</g>
<!-- Node7 -->
<g id="Node000007" class="node">
<title>Node7</title>
<g id="a_Node000007"><a xlink:href="ad5755_8c.html#af699c1855cce261506330a97a888b7d1" target="_top" xlink:title="Allows power&#45;up/down of the dc&#45;to&#45;dc converter, DAC and internal amplifiers for the selected channel.">
<polygon fill="white" stroke="#666666" points="239.5,-141.5 123.5,-141.5 123.5,-111.5 239.5,-111.5 239.5,-141.5"/>
<text text-anchor="start" x="131.5" y="-129.5" font-family="Helvetica,sans-Serif" font-size="10.00">ad5755_set_channel</text>
<text text-anchor="middle" x="181.5" y="-118.5" font-family="Helvetica,sans-Serif" font-size="10.00">_power</text>
</a>
</g>
</g>
<!-- Node4&#45;&gt;Node7 -->
<g id="edge7_Node000004_Node000007" class="edge">
<title>Node4&#45;&gt;Node7</title>
<g id="a_edge7_Node000004_Node000007"><a xlink:title=" ">
<path fill="none" stroke="#63b8ff" d="M298.5,-178.25C295.26,-176.71 292.06,-175.11 289,-173.5 272.2,-164.65 270.11,-158.73 253,-150.5 246.24,-147.25 238.93,-144.24 231.66,-141.53"/>
<polygon fill="#63b8ff" stroke="#63b8ff" points="297.16,-181.49 307.71,-182.48 300.08,-175.13 297.16,-181.49"/>
</a>
</g>
</g>
<!-- Node8 -->
<g id="Node000008" class="node">
<title>Node8</title>
<g id="a_Node000008"><a xlink:href="ad5755_8c.html#a97f20e98ab61c1a9c33dd882815f3b3e" target="_top" xlink:title="Configures the Digital Slew Rate Control.">
<polygon fill="white" stroke="#666666" points="244.5,-93 118.5,-93 118.5,-74 244.5,-74 244.5,-93"/>
<text text-anchor="middle" x="181.5" y="-81" font-family="Helvetica,sans-Serif" font-size="10.00">ad5755_slew_rate_ctrl</text>
</a>
</g>
</g>
<!-- Node4&#45;&gt;Node8 -->
<g id="edge9_Node000004_Node000008" class="edge">
<title>Node4&#45;&gt;Node8</title>
<g id="a_edge9_Node000004_Node000008"><a xlink:title=" ">
<path fill="none" stroke="#63b8ff" d="M292.96,-176.87C291.58,-175.8 290.26,-174.68 289,-173.5 263.15,-149.34 280.46,-124.81 253,-102.5 248.28,-98.66 242.85,-95.6 237.14,-93.15"/>
<polygon fill="#63b8ff" stroke="#63b8ff" points="291.07,-179.82 301.33,-182.47 294.96,-174 291.07,-179.82"/>
</a>
</g>
</g>
<!-- Node9 -->
<g id="Node000009" class="node">
<title>Node9</title>
<g id="a_Node000009"><a xlink:href="ad5755_8c.html#ad197f206e7cf223fc7eb1d597c7a8fb9" target="_top" xlink:title="Performs a software reset to the device.">
<polygon fill="white" stroke="#666666" points="246.5,-56 116.5,-56 116.5,-37 246.5,-37 246.5,-56"/>
<text text-anchor="middle" x="181.5" y="-44" font-family="Helvetica,sans-Serif" font-size="10.00">ad5755_software_reset</text>
</a>
</g>
</g>
<!-- Node4&#45;&gt;Node9 -->
<g id="edge10_Node000004_Node000009" class="edge">
<title>Node4&#45;&gt;Node9</title>
<g id="a_edge10_Node000004_Node000009"><a xlink:title=" ">
<path fill="none" stroke="#63b8ff" d="M291.81,-176.3C290.83,-175.4 289.89,-174.47 289,-173.5 254.68,-136.32 289.81,-100.22 253,-65.5 248.94,-61.67 244.2,-58.6 239.12,-56.14"/>
<polygon fill="#63b8ff" stroke="#63b8ff" points="289.89,-179.23 299.98,-182.47 294.11,-173.65 289.89,-179.23"/>
</a>
</g>
</g>
<!-- Node10 -->
<g id="Node000010" class="node">
<title>Node10</title>
<g id="a_Node000010"><a xlink:href="ad5755_8c.html#ac9601238817e9e61090efbec05c40d56" target="_top" xlink:title="Enables/Disables watchdog timer and sets the timeout period.">
<polygon fill="white" stroke="#666666" points="253,-19 110,-19 110,0 253,0 253,-19"/>
<text text-anchor="middle" x="181.5" y="-7" font-family="Helvetica,sans-Serif" font-size="10.00">ad5755_watch_dog_setup</text>
</a>
</g>
</g>
<!-- Node4&#45;&gt;Node10 -->
<g id="edge12_Node000004_Node000010" class="edge">
<title>Node4&#45;&gt;Node10</title>
<g id="a_edge12_Node000004_Node000010"><a xlink:title=" ">
<path fill="none" stroke="#63b8ff" d="M291.28,-175.97C290.49,-175.17 289.73,-174.35 289,-173.5 245.67,-122.62 300.06,-74.95 253,-27.5 249.62,-24.09 245.69,-21.3 241.45,-19.01"/>
<polygon fill="#63b8ff" stroke="#63b8ff" points="289.18,-178.77 299.15,-182.37 293.6,-173.34 289.18,-178.77"/>
</a>
</g>
</g>
<!-- Node9&#45;&gt;Node2 -->
<g id="edge11_Node000009_Node000002" class="edge">
<title>Node9&#45;&gt;Node2</title>
<g id="a_edge11_Node000009_Node000002"><a xlink:title=" ">
<path fill="none" stroke="#63b8ff" d="M115.44,-61.16C113.53,-62.49 111.7,-63.93 110,-65.5 51.64,-119.25 40.52,-223.78 38.46,-255.89"/>
<polygon fill="#63b8ff" stroke="#63b8ff" points="117.39,-64.08 124.32,-56.07 113.9,-58.01 117.39,-64.08"/>
</a>
</g>
</g>
</g>
</svg>
