<?xml version="1.0" encoding="UTF-8" standalone="no"?>
<!DOCTYPE svg PUBLIC "-//W3C//DTD SVG 1.1//EN"
 "http://www.w3.org/Graphics/SVG/1.1/DTD/svg11.dtd">
<!-- Generated by graphviz version 2.43.0 (0)
 -->
<!-- Title: ad5754r_write Pages: 1 -->
<svg width="683pt" height="272pt"
 viewBox="0.00 0.00 683.00 272.00" xmlns="http://www.w3.org/2000/svg" xmlns:xlink="http://www.w3.org/1999/xlink">
<g id="graph0" class="graph" transform="scale(1 1) rotate(0) translate(4 268)">
<title>ad5754r_write</title>
<!-- Node1 -->
<g id="Node000001" class="node">
<title>Node1</title>
<g id="a_Node000001"><a xlink:title="Write device register.">
<polygon fill="#999999" stroke="#666666" points="675,-166 589,-166 589,-147 675,-147 675,-166"/>
<text text-anchor="middle" x="632" y="-154" font-family="Helvetica,sans-Serif" font-size="10.00">ad5754r_write</text>
</a>
</g>
</g>
<!-- Node2 -->
<g id="Node000002" class="node">
<title>Node2</title>
<g id="a_Node000002"><a xlink:href="ad5754r_8c.html#a2f77de7ae53ce6fdc4ab73a992f6f79b" target="_top" xlink:title="Clear DAC output for all channels.">
<polygon fill="white" stroke="#666666" points="553,-260 434,-260 434,-241 553,-241 553,-260"/>
<text text-anchor="middle" x="493.5" y="-248" font-family="Helvetica,sans-Serif" font-size="10.00">ad5754r_clear_async</text>
</a>
</g>
</g>
<!-- Node1&#45;&gt;Node2 -->
<g id="edge1_Node000001_Node000002" class="edge">
<title>Node1&#45;&gt;Node2</title>
<g id="a_edge1_Node000001_Node000002"><a xlink:title=" ">
<path fill="none" stroke="#63b8ff" d="M617.09,-174.28C602.75,-191.48 578.89,-217.14 553,-232.5 547.33,-235.86 540.98,-238.65 534.61,-240.95"/>
<polygon fill="#63b8ff" stroke="#63b8ff" points="620.1,-176.13 623.68,-166.16 614.66,-171.72 620.1,-176.13"/>
</a>
</g>
</g>
<!-- Node3 -->
<g id="Node000003" class="node">
<title>Node3</title>
<g id="a_Node000003"><a xlink:href="ad5754r_8c.html#a948ab1a11e8d2e98185003df8551ddc4" target="_top" xlink:title="Trigger LDAC.">
<polygon fill="white" stroke="#666666" points="553,-223 434,-223 434,-204 553,-204 553,-223"/>
<text text-anchor="middle" x="493.5" y="-211" font-family="Helvetica,sans-Serif" font-size="10.00">ad5754r_ldac_trigger</text>
</a>
</g>
</g>
<!-- Node1&#45;&gt;Node3 -->
<g id="edge2_Node000001_Node000003" class="edge">
<title>Node1&#45;&gt;Node3</title>
<g id="a_edge2_Node000001_Node000003"><a xlink:title=" ">
<path fill="none" stroke="#63b8ff" d="M599.2,-170.05C585.07,-176.04 568.22,-183.16 553,-189.5 541.45,-194.31 528.58,-199.6 517.87,-203.98"/>
<polygon fill="#63b8ff" stroke="#63b8ff" points="600.66,-173.23 608.5,-166.1 597.93,-166.78 600.66,-173.23"/>
</a>
</g>
</g>
<!-- Node4 -->
<g id="Node000004" class="node">
<title>Node4</title>
<g id="a_Node000004"><a xlink:href="ad5754r_8c.html#a847d4bd131112efbe6b8e09e62d7ecd2" target="_top" xlink:title="Set output range for specific channel.">
<polygon fill="white" stroke="#666666" points="391,-264 265,-264 265,-245 391,-245 391,-264"/>
<text text-anchor="middle" x="328" y="-252" font-family="Helvetica,sans-Serif" font-size="10.00">ad5754r_set_ch_range</text>
</a>
</g>
</g>
<!-- Node1&#45;&gt;Node4 -->
<g id="edge3_Node000001_Node000004" class="edge">
<title>Node1&#45;&gt;Node4</title>
<g id="a_edge3_Node000001_Node000004"><a xlink:title=" ">
<path fill="none" stroke="#63b8ff" d="M578.45,-157.77C536.8,-160.84 478.42,-169.9 434,-195.5 412.99,-207.61 418.64,-223.77 398,-236.5 392.42,-239.94 386.19,-242.73 379.82,-244.99"/>
<polygon fill="#63b8ff" stroke="#63b8ff" points="578.91,-161.25 588.66,-157.11 578.46,-154.26 578.91,-161.25"/>
</a>
</g>
</g>
<!-- Node8 -->
<g id="Node000008" class="node">
<title>Node8</title>
<g id="a_Node000008"><a xlink:href="ad5754r_8c.html#a55822587e388a1a94b2cd2f1bf413c86" target="_top" xlink:title="Update specific register bits.">
<polygon fill="white" stroke="#666666" points="553,-147 434,-147 434,-128 553,-128 553,-147"/>
<text text-anchor="middle" x="493.5" y="-135" font-family="Helvetica,sans-Serif" font-size="10.00">ad5754r_update_bits</text>
</a>
</g>
</g>
<!-- Node1&#45;&gt;Node8 -->
<g id="edge8_Node000001_Node000008" class="edge">
<title>Node1&#45;&gt;Node8</title>
<g id="a_edge8_Node000001_Node000008"><a xlink:title=" ">
<path fill="none" stroke="#63b8ff" d="M578.9,-149.25C570.51,-148.08 561.78,-146.86 553.24,-145.68"/>
<polygon fill="#63b8ff" stroke="#63b8ff" points="578.54,-152.73 588.93,-150.64 579.51,-145.8 578.54,-152.73"/>
</a>
</g>
</g>
<!-- Node15 -->
<g id="Node000015" class="node">
<title>Node15</title>
<g id="a_Node000015"><a xlink:href="ad5754r_8c.html#a5b31035541f35d85437905cc89616bd1" target="_top" xlink:title="Update DAC register value for all channels.">
<polygon fill="white" stroke="#666666" points="552.5,-109.5 434.5,-109.5 434.5,-79.5 552.5,-79.5 552.5,-109.5"/>
<text text-anchor="start" x="442.5" y="-97.5" font-family="Helvetica,sans-Serif" font-size="10.00">ad5754r_update_dac</text>
<text text-anchor="middle" x="493.5" y="-86.5" font-family="Helvetica,sans-Serif" font-size="10.00">_all_ch_registers</text>
</a>
</g>
</g>
<!-- Node1&#45;&gt;Node15 -->
<g id="edge21_Node000001_Node000015" class="edge">
<title>Node1&#45;&gt;Node15</title>
<g id="a_edge21_Node000001_Node000015"><a xlink:title=" ">
<path fill="none" stroke="#63b8ff" d="M602.15,-142.48C587.49,-135.45 569.37,-126.88 553,-119.5 545.75,-116.23 537.95,-112.83 530.48,-109.62"/>
<polygon fill="#63b8ff" stroke="#63b8ff" points="600.69,-145.67 611.22,-146.86 603.73,-139.36 600.69,-145.67"/>
</a>
</g>
</g>
<!-- Node16 -->
<g id="Node000016" class="node">
<title>Node16</title>
<g id="a_Node000016"><a xlink:href="ad5754r_8c.html#a89d8b3c4212251555320b362a08bc9f5" target="_top" xlink:title="Update DAC register value for specific channel.">
<polygon fill="white" stroke="#666666" points="552.5,-61.5 434.5,-61.5 434.5,-31.5 552.5,-31.5 552.5,-61.5"/>
<text text-anchor="start" x="442.5" y="-49.5" font-family="Helvetica,sans-Serif" font-size="10.00">ad5754r_update_dac</text>
<text text-anchor="middle" x="493.5" y="-38.5" font-family="Helvetica,sans-Serif" font-size="10.00">_ch_register</text>
</a>
</g>
</g>
<!-- Node1&#45;&gt;Node16 -->
<g id="edge22_Node000001_Node000016" class="edge">
<title>Node1&#45;&gt;Node16</title>
<g id="a_edge22_Node000001_Node000016"><a xlink:title=" ">
<path fill="none" stroke="#63b8ff" d="M618.73,-138.83C604.73,-119.76 580.21,-89.59 553,-70.5 548.24,-67.16 542.94,-64.17 537.53,-61.54"/>
<polygon fill="#63b8ff" stroke="#63b8ff" points="615.89,-140.87 624.56,-146.96 621.58,-136.79 615.89,-140.87"/>
</a>
</g>
</g>
<!-- Node5 -->
<g id="Node000005" class="node">
<title>Node5</title>
<g id="a_Node000005"><a xlink:href="ad5754r_8c.html#a87d79e32a1b64db9ffcb64b4099acf6a" target="_top" xlink:title="Initialize registers based on init parameters.">
<polygon fill="white" stroke="#666666" points="216.5,-168 118.5,-168 118.5,-149 216.5,-149 216.5,-168"/>
<text text-anchor="middle" x="167.5" y="-156" font-family="Helvetica,sans-Serif" font-size="10.00">ad5754r_reg_init</text>
</a>
</g>
</g>
<!-- Node4&#45;&gt;Node5 -->
<g id="edge4_Node000004_Node000005" class="edge">
<title>Node4&#45;&gt;Node5</title>
<g id="a_edge4_Node000004_Node000005"><a xlink:title=" ">
<path fill="none" stroke="#63b8ff" d="M269.11,-241.56C265.27,-240.05 261.53,-238.37 258,-236.5 253.47,-234.11 201.9,-188.3 179.16,-168.02"/>
<polygon fill="#63b8ff" stroke="#63b8ff" points="268.18,-244.95 278.78,-244.99 270.52,-238.35 268.18,-244.95"/>
</a>
</g>
</g>
<!-- Node7 -->
<g id="Node000007" class="node">
<title>Node7</title>
<g id="a_Node000007"><a xlink:href="ad5754r_8c.html#a1d2888ba68a1b85656c84727efe81148" target="_top" xlink:title="Write to and read back a register to verify SPI.">
<polygon fill="white" stroke="#666666" points="222,-234 113,-234 113,-215 222,-215 222,-234"/>
<text text-anchor="middle" x="167.5" y="-222" font-family="Helvetica,sans-Serif" font-size="10.00">ad5754r_spi_verify</text>
</a>
</g>
</g>
<!-- Node4&#45;&gt;Node7 -->
<g id="edge6_Node000004_Node000007" class="edge">
<title>Node4&#45;&gt;Node7</title>
<g id="a_edge6_Node000004_Node000007"><a xlink:title=" ">
<path fill="none" stroke="#63b8ff" d="M266.3,-243.01C250.64,-240.05 233.95,-236.89 218.88,-234.04"/>
<polygon fill="#63b8ff" stroke="#63b8ff" points="265.94,-246.5 276.41,-244.93 267.24,-239.63 265.94,-246.5"/>
</a>
</g>
</g>
<!-- Node6 -->
<g id="Node000006" class="node">
<title>Node6</title>
<g id="a_Node000006"><a xlink:href="ad5754r_8c.html#a9ccf291f05624d517a9a12d62725b06c" target="_top" xlink:title="Initialize the device.">
<polygon fill="white" stroke="#666666" points="77,-186 0,-186 0,-167 77,-167 77,-186"/>
<text text-anchor="middle" x="38.5" y="-174" font-family="Helvetica,sans-Serif" font-size="10.00">ad5754r_init</text>
</a>
</g>
</g>
<!-- Node5&#45;&gt;Node6 -->
<g id="edge5_Node000005_Node000006" class="edge">
<title>Node5&#45;&gt;Node6</title>
<g id="a_edge5_Node000005_Node000006"><a xlink:title=" ">
<path fill="none" stroke="#63b8ff" d="M108.45,-166.73C97.87,-168.23 87.09,-169.76 77.29,-171.14"/>
<polygon fill="#63b8ff" stroke="#63b8ff" points="109.08,-170.17 118.49,-165.31 108.09,-163.24 109.08,-170.17"/>
</a>
</g>
</g>
<!-- Node7&#45;&gt;Node6 -->
<g id="edge7_Node000007_Node000006" class="edge">
<title>Node7&#45;&gt;Node6</title>
<g id="a_edge7_Node000007_Node000006"><a xlink:title=" ">
<path fill="none" stroke="#63b8ff" d="M131.52,-211.28C110.4,-203.3 83.96,-193.3 64.85,-186.08"/>
<polygon fill="#63b8ff" stroke="#63b8ff" points="130.51,-214.64 141.1,-214.9 132.99,-208.09 130.51,-214.64"/>
</a>
</g>
</g>
<!-- Node9 -->
<g id="Node000009" class="node">
<title>Node9</title>
<g id="a_Node000009"><a xlink:href="ad5754r_8c.html#a679e14945072b4e54cdbfba468fbc192" target="_top" xlink:title="Set power&#45;up state for specific channel.">
<polygon fill="white" stroke="#666666" points="392,-227 264,-227 264,-208 392,-208 392,-227"/>
<text text-anchor="middle" x="328" y="-215" font-family="Helvetica,sans-Serif" font-size="10.00">ad5754r_set_ch_pwrup</text>
</a>
</g>
</g>
<!-- Node8&#45;&gt;Node9 -->
<g id="edge9_Node000008_Node000009" class="edge">
<title>Node8&#45;&gt;Node9</title>
<g id="a_edge9_Node000008_Node000009"><a xlink:title=" ">
<path fill="none" stroke="#63b8ff" d="M452.87,-151.07C446.31,-154.06 439.78,-157.54 434,-161.5 414.81,-174.65 418.03,-187.66 398,-199.5 392.24,-202.9 385.85,-205.67 379.33,-207.92"/>
<polygon fill="#63b8ff" stroke="#63b8ff" points="454.55,-154.16 462.4,-147.04 451.82,-147.71 454.55,-154.16"/>
</a>
</g>
</g>
<!-- Node10 -->
<g id="Node000010" class="node">
<title>Node10</title>
<g id="a_Node000010"><a xlink:href="ad5754r_8c.html#a86eb2633b3da97e164056f31216264a8" target="_top" xlink:title="Set clear mode setting for device.">
<polygon fill="white" stroke="#666666" points="397.5,-190 258.5,-190 258.5,-171 397.5,-171 397.5,-190"/>
<text text-anchor="middle" x="328" y="-178" font-family="Helvetica,sans-Serif" font-size="10.00">ad5754r_set_clear_mode</text>
</a>
</g>
</g>
<!-- Node8&#45;&gt;Node10 -->
<g id="edge11_Node000008_Node000010" class="edge">
<title>Node8&#45;&gt;Node10</title>
<g id="a_edge11_Node000008_Node000010"><a xlink:title=" ">
<path fill="none" stroke="#63b8ff" d="M446.32,-149.65C420.61,-156.41 389.08,-164.7 365.18,-170.98"/>
<polygon fill="#63b8ff" stroke="#63b8ff" points="447.43,-152.97 456.21,-147.04 445.65,-146.2 447.43,-152.97"/>
</a>
</g>
</g>
<!-- Node11 -->
<g id="Node000011" class="node">
<title>Node11</title>
<g id="a_Node000011"><a xlink:href="ad5754r_8c.html#a7fde54cb94c1b6632bc7f26f0502b2b1" target="_top" xlink:title="Apply current clamp setting for device.">
<polygon fill="white" stroke="#666666" points="386,-152.5 270,-152.5 270,-122.5 386,-122.5 386,-152.5"/>
<text text-anchor="start" x="278" y="-140.5" font-family="Helvetica,sans-Serif" font-size="10.00">ad5754r_set_current</text>
<text text-anchor="middle" x="328" y="-129.5" font-family="Helvetica,sans-Serif" font-size="10.00">_clamp_en</text>
</a>
</g>
</g>
<!-- Node8&#45;&gt;Node11 -->
<g id="edge13_Node000008_Node000011" class="edge">
<title>Node8&#45;&gt;Node11</title>
<g id="a_edge13_Node000008_Node000011"><a xlink:title=" ">
<path fill="none" stroke="#63b8ff" d="M423.56,-137.5C411.07,-137.5 398.17,-137.5 386.06,-137.5"/>
<polygon fill="#63b8ff" stroke="#63b8ff" points="423.93,-141 433.93,-137.5 423.93,-134 423.93,-141"/>
</a>
</g>
</g>
<!-- Node12 -->
<g id="Node000012" class="node">
<title>Node12</title>
<g id="a_Node000012"><a xlink:href="ad5754r_8c.html#a3c216ae4b41db1538b59025b9d0e122d" target="_top" xlink:title="Set Internal Reference Enable/Disable state for device.">
<polygon fill="white" stroke="#666666" points="384.5,-104.5 271.5,-104.5 271.5,-74.5 384.5,-74.5 384.5,-104.5"/>
<text text-anchor="start" x="279.5" y="-92.5" font-family="Helvetica,sans-Serif" font-size="10.00">ad5754r_set_int_ref</text>
<text text-anchor="middle" x="328" y="-81.5" font-family="Helvetica,sans-Serif" font-size="10.00">_pwrup</text>
</a>
</g>
</g>
<!-- Node8&#45;&gt;Node12 -->
<g id="edge15_Node000008_Node000012" class="edge">
<title>Node8&#45;&gt;Node12</title>
<g id="a_edge15_Node000008_Node000012"><a xlink:title=" ">
<path fill="none" stroke="#63b8ff" d="M450.06,-125.04C428.74,-118.78 402.74,-111.15 380.31,-104.56"/>
<polygon fill="#63b8ff" stroke="#63b8ff" points="449.23,-128.44 459.81,-127.9 451.2,-121.73 449.23,-128.44"/>
</a>
</g>
</g>
<!-- Node13 -->
<g id="Node000013" class="node">
<title>Node13</title>
<g id="a_Node000013"><a xlink:href="ad5754r_8c.html#aebf248be160290a179b4b7992be0e1ae" target="_top" xlink:title="Set SDO Enable/Disable state for device.">
<polygon fill="white" stroke="#666666" points="398,-56 258,-56 258,-37 398,-37 398,-56"/>
<text text-anchor="middle" x="328" y="-44" font-family="Helvetica,sans-Serif" font-size="10.00">ad5754r_set_sdo_disable</text>
</a>
</g>
</g>
<!-- Node8&#45;&gt;Node13 -->
<g id="edge17_Node000008_Node000013" class="edge">
<title>Node8&#45;&gt;Node13</title>
<g id="a_edge17_Node000008_Node000013"><a xlink:title=" ">
<path fill="none" stroke="#63b8ff" d="M441.94,-123.57C439.15,-122.05 436.48,-120.36 434,-118.5 411.23,-101.4 421.15,-82.08 398,-65.5 392.54,-61.59 386.32,-58.49 379.9,-56.02"/>
<polygon fill="#63b8ff" stroke="#63b8ff" points="440.61,-126.81 451.14,-127.91 443.59,-120.48 440.61,-126.81"/>
</a>
</g>
</g>
<!-- Node14 -->
<g id="Node000014" class="node">
<title>Node14</title>
<g id="a_Node000014"><a xlink:href="ad5754r_8c.html#ad1e19f86104f644876be104c09a5791c" target="_top" xlink:title="Apply TSD setting for device.">
<polygon fill="white" stroke="#666666" points="385,-19 271,-19 271,0 385,0 385,-19"/>
<text text-anchor="middle" x="328" y="-7" font-family="Helvetica,sans-Serif" font-size="10.00">ad5754r_set_tsd_en</text>
</a>
</g>
</g>
<!-- Node8&#45;&gt;Node14 -->
<g id="edge19_Node000008_Node000014" class="edge">
<title>Node8&#45;&gt;Node14</title>
<g id="a_edge19_Node000008_Node000014"><a xlink:title=" ">
<path fill="none" stroke="#63b8ff" d="M439.39,-122.84C437.48,-121.52 435.68,-120.07 434,-118.5 402.3,-88.72 430.57,-56.33 398,-27.5 394.2,-24.14 389.85,-21.39 385.22,-19.14"/>
<polygon fill="#63b8ff" stroke="#63b8ff" points="437.85,-125.99 448.27,-127.91 441.32,-119.91 437.85,-125.99"/>
</a>
</g>
</g>
<!-- Node9&#45;&gt;Node5 -->
<g id="edge10_Node000009_Node000005" class="edge">
<title>Node9&#45;&gt;Node5</title>
<g id="a_edge10_Node000009_Node000005"><a xlink:title=" ">
<path fill="none" stroke="#63b8ff" d="M275.47,-205.12C269.53,-203.38 263.6,-201.5 258,-199.5 232.72,-190.49 204.79,-177.11 186.96,-168.11"/>
<polygon fill="#63b8ff" stroke="#63b8ff" points="274.84,-208.58 285.41,-207.9 276.73,-201.84 274.84,-208.58"/>
</a>
</g>
</g>
<!-- Node10&#45;&gt;Node5 -->
<g id="edge12_Node000010_Node000005" class="edge">
<title>Node10&#45;&gt;Node5</title>
<g id="a_edge12_Node000010_Node000005"><a xlink:title=" ">
<path fill="none" stroke="#63b8ff" d="M248.47,-169.6C237.62,-168.09 226.75,-166.59 216.68,-165.19"/>
<polygon fill="#63b8ff" stroke="#63b8ff" points="248.02,-173.07 258.4,-170.98 248.98,-166.14 248.02,-173.07"/>
</a>
</g>
</g>
<!-- Node11&#45;&gt;Node5 -->
<g id="edge14_Node000011_Node000005" class="edge">
<title>Node11&#45;&gt;Node5</title>
<g id="a_edge14_Node000011_Node000005"><a xlink:title=" ">
<path fill="none" stroke="#63b8ff" d="M259.86,-146.39C245.38,-148.31 230.35,-150.31 216.75,-152.11"/>
<polygon fill="#63b8ff" stroke="#63b8ff" points="260.32,-149.86 269.78,-145.08 259.4,-142.93 260.32,-149.86"/>
</a>
</g>
</g>
<!-- Node12&#45;&gt;Node5 -->
<g id="edge16_Node000012_Node000005" class="edge">
<title>Node12&#45;&gt;Node5</title>
<g id="a_edge16_Node000012_Node000005"><a xlink:title=" ">
<path fill="none" stroke="#63b8ff" d="M271.55,-108.07C266.93,-109.83 262.37,-111.65 258,-113.5 232.37,-124.34 203.82,-139.21 186.01,-148.84"/>
<polygon fill="#63b8ff" stroke="#63b8ff" points="272.87,-111.31 281.03,-104.55 270.43,-104.75 272.87,-111.31"/>
</a>
</g>
</g>
<!-- Node13&#45;&gt;Node5 -->
<g id="edge18_Node000013_Node000005" class="edge">
<title>Node13&#45;&gt;Node5</title>
<g id="a_edge18_Node000013_Node000005"><a xlink:title=" ">
<path fill="none" stroke="#63b8ff" d="M269.63,-59.66C265.59,-61.38 261.66,-63.32 258,-65.5 220.45,-87.84 188.17,-130.11 174.93,-148.98"/>
<polygon fill="#63b8ff" stroke="#63b8ff" points="271.11,-62.85 279.22,-56.03 268.63,-56.3 271.11,-62.85"/>
</a>
</g>
</g>
<!-- Node14&#45;&gt;Node5 -->
<g id="edge20_Node000014_Node000005" class="edge">
<title>Node14&#45;&gt;Node5</title>
<g id="a_edge20_Node000014_Node000005"><a xlink:title=" ">
<path fill="none" stroke="#63b8ff" d="M264.69,-23.37C262.37,-24.63 260.13,-26 258,-27.5 211.83,-60 182.21,-124.45 172.24,-148.84"/>
<polygon fill="#63b8ff" stroke="#63b8ff" points="266.39,-26.44 273.99,-19.07 263.45,-20.09 266.39,-26.44"/>
</a>
</g>
</g>
</g>
</svg>
