<?xml version="1.0" encoding="UTF-8" standalone="no"?>
<!DOCTYPE svg PUBLIC "-//W3C//DTD SVG 1.1//EN"
 "http://www.w3.org/Graphics/SVG/1.1/DTD/svg11.dtd">
<!-- Generated by graphviz version 2.43.0 (0)
 -->
<!-- Title: drivers/adc/ad6676/ad6676.c Pages: 1 -->
<svg width="416pt" height="203pt"
 viewBox="0.00 0.00 416.14 203.00" xmlns="http://www.w3.org/2000/svg" xmlns:xlink="http://www.w3.org/1999/xlink">
<g id="graph0" class="graph" transform="scale(1 1) rotate(0) translate(4 199)">
<title>drivers/adc/ad6676/ad6676.c</title>
<!-- Node1 -->
<g id="Node000001" class="node">
<title>Node1</title>
<g id="a_Node000001"><a xlink:title="Implementation of AD6676 Driver.">
<polygon fill="#999999" stroke="#666666" points="402.2,-195 292.2,-195 292.2,-165 402.2,-165 402.2,-195"/>
<text text-anchor="start" x="300.2" y="-183" font-family="Helvetica,sans-Serif" font-size="10.00">drivers/adc/ad6676</text>
<text text-anchor="middle" x="347.2" y="-172" font-family="Helvetica,sans-Serif" font-size="10.00">/ad6676.c</text>
</a>
</g>
</g>
<!-- Node2 -->
<g id="Node000002" class="node">
<title>Node2</title>
<g id="a_Node000002"><a xlink:title=" ">
<polygon fill="#e0e0e0" stroke="#999999" points="345.7,-19 292.7,-19 292.7,0 345.7,0 345.7,-19"/>
<text text-anchor="middle" x="319.2" y="-7" font-family="Helvetica,sans-Serif" font-size="10.00">stdlib.h</text>
</a>
</g>
</g>
<!-- Node1&#45;&gt;Node2 -->
<g id="edge1_Node000001_Node000002" class="edge">
<title>Node1&#45;&gt;Node2</title>
<g id="a_edge1_Node000001_Node000002"><a xlink:title=" ">
<path fill="none" stroke="#63b8ff" d="M362.11,-164.67C384.9,-140.98 423.53,-92.53 401.2,-55 391.23,-38.24 372.5,-27.41 355.46,-20.63"/>
<polygon fill="#63b8ff" stroke="#63b8ff" points="356.29,-17.21 345.7,-17.09 353.91,-23.79 356.29,-17.21"/>
</a>
</g>
</g>
<!-- Node3 -->
<g id="Node000003" class="node">
<title>Node3</title>
<g id="a_Node000003"><a xlink:title=" ">
<polygon fill="#e0e0e0" stroke="#999999" points="392.2,-74 342.2,-74 342.2,-55 392.2,-55 392.2,-74"/>
<text text-anchor="middle" x="367.2" y="-62" font-family="Helvetica,sans-Serif" font-size="10.00">stdio.h</text>
</a>
</g>
</g>
<!-- Node1&#45;&gt;Node3 -->
<g id="edge2_Node000001_Node000003" class="edge">
<title>Node1&#45;&gt;Node3</title>
<g id="a_edge2_Node000001_Node000003"><a xlink:title=" ">
<path fill="none" stroke="#63b8ff" d="M352.78,-164.8C356.4,-154.92 360.87,-141.36 363.2,-129 365.98,-114.21 366.94,-97.17 367.22,-84.47"/>
<polygon fill="#63b8ff" stroke="#63b8ff" points="370.72,-84.25 367.32,-74.21 363.72,-84.18 370.72,-84.25"/>
</a>
</g>
</g>
<!-- Node4 -->
<g id="Node000004" class="node">
<title>Node4</title>
<g id="a_Node000004"><a xlink:href="ad6676_8h.html" target="_top" xlink:title="Header file of AD6676 Driver.">
<polygon fill="white" stroke="#666666" points="186.2,-129 124.2,-129 124.2,-110 186.2,-110 186.2,-129"/>
<text text-anchor="middle" x="155.2" y="-117" font-family="Helvetica,sans-Serif" font-size="10.00">ad6676.h</text>
</a>
</g>
</g>
<!-- Node1&#45;&gt;Node4 -->
<g id="edge3_Node000001_Node000004" class="edge">
<title>Node1&#45;&gt;Node4</title>
<g id="a_edge3_Node000001_Node000004"><a xlink:title=" ">
<path fill="none" stroke="#63b8ff" d="M301.21,-164.99C268.07,-154.89 223.91,-141.44 192.86,-131.98"/>
<polygon fill="#63b8ff" stroke="#63b8ff" points="193.86,-128.62 183.27,-129.05 191.82,-135.32 193.86,-128.62"/>
</a>
</g>
</g>
<!-- Node10 -->
<g id="Node000010" class="node">
<title>Node10</title>
<g id="a_Node000010"><a xlink:href="no__os__alloc_8h.html" target="_top" xlink:title=" ">
<polygon fill="white" stroke="#666666" points="353.7,-129 270.7,-129 270.7,-110 353.7,-110 353.7,-129"/>
<text text-anchor="middle" x="312.2" y="-117" font-family="Helvetica,sans-Serif" font-size="10.00">no_os_alloc.h</text>
</a>
</g>
</g>
<!-- Node1&#45;&gt;Node10 -->
<g id="edge13_Node000001_Node000010" class="edge">
<title>Node1&#45;&gt;Node10</title>
<g id="a_edge13_Node000001_Node000010"><a xlink:title=" ">
<path fill="none" stroke="#63b8ff" d="M338.72,-164.84C333.9,-156.78 327.82,-146.62 322.7,-138.06"/>
<polygon fill="#63b8ff" stroke="#63b8ff" points="325.58,-136.05 317.44,-129.27 319.57,-139.64 325.58,-136.05"/>
</a>
</g>
</g>
<!-- Node5 -->
<g id="Node000005" class="node">
<title>Node5</title>
<g id="a_Node000005"><a xlink:title=" ">
<polygon fill="#e0e0e0" stroke="#999999" points="132.7,-19 79.7,-19 79.7,0 132.7,0 132.7,-19"/>
<text text-anchor="middle" x="106.2" y="-7" font-family="Helvetica,sans-Serif" font-size="10.00">stdint.h</text>
</a>
</g>
</g>
<!-- Node4&#45;&gt;Node5 -->
<g id="edge4_Node000004_Node000005" class="edge">
<title>Node4&#45;&gt;Node5</title>
<g id="a_edge4_Node000004_Node000005"><a xlink:title=" ">
<path fill="none" stroke="#63b8ff" d="M123.88,-119.3C88.56,-118.31 32.49,-110.57 5.2,-74 -15.3,-46.54 32.88,-28.05 69.53,-18.41"/>
<polygon fill="#63b8ff" stroke="#63b8ff" points="70.64,-21.74 79.5,-15.92 68.95,-14.95 70.64,-21.74"/>
</a>
</g>
</g>
<!-- Node6 -->
<g id="Node000006" class="node">
<title>Node6</title>
<g id="a_Node000006"><a xlink:href="no__os__util_8h.html" target="_top" xlink:title="Header file of utility functions.">
<polygon fill="white" stroke="#666666" points="285.7,-74 210.7,-74 210.7,-55 285.7,-55 285.7,-74"/>
<text text-anchor="middle" x="248.2" y="-62" font-family="Helvetica,sans-Serif" font-size="10.00">no_os_util.h</text>
</a>
</g>
</g>
<!-- Node4&#45;&gt;Node6 -->
<g id="edge5_Node000004_Node000006" class="edge">
<title>Node4&#45;&gt;Node6</title>
<g id="a_edge5_Node000004_Node000006"><a xlink:title=" ">
<path fill="none" stroke="#63b8ff" d="M170.14,-109.98C184.7,-101.69 207.06,-88.94 224.13,-79.22"/>
<polygon fill="#63b8ff" stroke="#63b8ff" points="226.03,-82.16 232.98,-74.17 222.56,-76.08 226.03,-82.16"/>
</a>
</g>
</g>
<!-- Node8 -->
<g id="Node000008" class="node">
<title>Node8</title>
<g id="a_Node000008"><a xlink:href="no__os__delay_8h.html" target="_top" xlink:title="Header file of Delay functions.">
<polygon fill="white" stroke="#666666" points="99.7,-74 14.7,-74 14.7,-55 99.7,-55 99.7,-74"/>
<text text-anchor="middle" x="57.2" y="-62" font-family="Helvetica,sans-Serif" font-size="10.00">no_os_delay.h</text>
</a>
</g>
</g>
<!-- Node4&#45;&gt;Node8 -->
<g id="edge9_Node000004_Node000008" class="edge">
<title>Node4&#45;&gt;Node8</title>
<g id="a_edge9_Node000004_Node000008"><a xlink:title=" ">
<path fill="none" stroke="#63b8ff" d="M139.45,-109.98C123.97,-101.61 100.1,-88.7 82.06,-78.95"/>
<polygon fill="#63b8ff" stroke="#63b8ff" points="83.69,-75.85 73.23,-74.17 80.36,-82.01 83.69,-75.85"/>
</a>
</g>
</g>
<!-- Node9 -->
<g id="Node000009" class="node">
<title>Node9</title>
<g id="a_Node000009"><a xlink:href="no__os__spi_8h.html" target="_top" xlink:title="Header file of SPI Interface.">
<polygon fill="white" stroke="#666666" points="192.2,-74 118.2,-74 118.2,-55 192.2,-55 192.2,-74"/>
<text text-anchor="middle" x="155.2" y="-62" font-family="Helvetica,sans-Serif" font-size="10.00">no_os_spi.h</text>
</a>
</g>
</g>
<!-- Node4&#45;&gt;Node9 -->
<g id="edge11_Node000004_Node000009" class="edge">
<title>Node4&#45;&gt;Node9</title>
<g id="a_edge11_Node000004_Node000009"><a xlink:title=" ">
<path fill="none" stroke="#63b8ff" d="M155.2,-109.75C155.2,-102.8 155.2,-92.85 155.2,-84.13"/>
<polygon fill="#63b8ff" stroke="#63b8ff" points="158.7,-84.09 155.2,-74.09 151.7,-84.09 158.7,-84.09"/>
</a>
</g>
</g>
<!-- Node6&#45;&gt;Node2 -->
<g id="edge7_Node000006_Node000002" class="edge">
<title>Node6&#45;&gt;Node2</title>
<g id="a_edge7_Node000006_Node000002"><a xlink:title=" ">
<path fill="none" stroke="#63b8ff" d="M259.6,-54.98C270.31,-47 286.54,-34.88 299.36,-25.31"/>
<polygon fill="#63b8ff" stroke="#63b8ff" points="301.66,-27.96 307.58,-19.17 297.47,-22.35 301.66,-27.96"/>
</a>
</g>
</g>
<!-- Node6&#45;&gt;Node5 -->
<g id="edge6_Node000006_Node000005" class="edge">
<title>Node6&#45;&gt;Node5</title>
<g id="a_edge6_Node000006_Node000005"><a xlink:title=" ">
<path fill="none" stroke="#63b8ff" d="M225.38,-54.98C202.02,-46.27 165.49,-32.63 139.03,-22.75"/>
<polygon fill="#63b8ff" stroke="#63b8ff" points="140.02,-19.39 129.43,-19.17 137.57,-25.95 140.02,-19.39"/>
</a>
</g>
</g>
<!-- Node7 -->
<g id="Node000007" class="node">
<title>Node7</title>
<g id="a_Node000007"><a xlink:title=" ">
<polygon fill="#e0e0e0" stroke="#999999" points="274.2,-19 212.2,-19 212.2,0 274.2,0 274.2,-19"/>
<text text-anchor="middle" x="243.2" y="-7" font-family="Helvetica,sans-Serif" font-size="10.00">stdbool.h</text>
</a>
</g>
</g>
<!-- Node6&#45;&gt;Node7 -->
<g id="edge8_Node000006_Node000007" class="edge">
<title>Node6&#45;&gt;Node7</title>
<g id="a_edge8_Node000006_Node000007"><a xlink:title=" ">
<path fill="none" stroke="#63b8ff" d="M247.37,-54.75C246.72,-47.8 245.78,-37.85 244.95,-29.13"/>
<polygon fill="#63b8ff" stroke="#63b8ff" points="248.43,-28.72 244.01,-19.09 241.46,-29.37 248.43,-28.72"/>
</a>
</g>
</g>
<!-- Node8&#45;&gt;Node5 -->
<g id="edge10_Node000008_Node000005" class="edge">
<title>Node8&#45;&gt;Node5</title>
<g id="a_edge10_Node000008_Node000005"><a xlink:title=" ">
<path fill="none" stroke="#63b8ff" d="M65.29,-54.75C72.35,-47.11 82.78,-35.82 91.35,-26.56"/>
<polygon fill="#63b8ff" stroke="#63b8ff" points="94.04,-28.81 98.26,-19.09 88.9,-24.06 94.04,-28.81"/>
</a>
</g>
</g>
<!-- Node9&#45;&gt;Node5 -->
<g id="edge12_Node000009_Node000005" class="edge">
<title>Node9&#45;&gt;Node5</title>
<g id="a_edge12_Node000009_Node000005"><a xlink:title=" ">
<path fill="none" stroke="#63b8ff" d="M147.11,-54.75C140.04,-47.11 129.61,-35.82 121.05,-26.56"/>
<polygon fill="#63b8ff" stroke="#63b8ff" points="123.5,-24.06 114.14,-19.09 118.36,-28.81 123.5,-24.06"/>
</a>
</g>
</g>
<!-- Node10&#45;&gt;Node2 -->
<g id="edge15_Node000010_Node000002" class="edge">
<title>Node10&#45;&gt;Node2</title>
<g id="a_edge15_Node000010_Node000002"><a xlink:title=" ">
<path fill="none" stroke="#63b8ff" d="M312.77,-109.66C313.9,-92.17 316.45,-52.8 317.98,-29.27"/>
<polygon fill="#63b8ff" stroke="#63b8ff" points="321.48,-29.36 318.64,-19.16 314.5,-28.91 321.48,-29.36"/>
</a>
</g>
</g>
<!-- Node10&#45;&gt;Node3 -->
<g id="edge14_Node000010_Node000003" class="edge">
<title>Node10&#45;&gt;Node3</title>
<g id="a_edge14_Node000010_Node000003"><a xlink:title=" ">
<path fill="none" stroke="#63b8ff" d="M321.28,-109.75C329.29,-102.03 341.15,-90.6 350.82,-81.28"/>
<polygon fill="#63b8ff" stroke="#63b8ff" points="353.51,-83.55 358.28,-74.09 348.65,-78.51 353.51,-83.55"/>
</a>
</g>
</g>
</g>
</svg>
