<?xml version="1.0" encoding="UTF-8" standalone="no"?>
<!DOCTYPE svg PUBLIC "-//W3C//DTD SVG 1.1//EN"
 "http://www.w3.org/Graphics/SVG/1.1/DTD/svg11.dtd">
<!-- Generated by graphviz version 2.43.0 (0)
 -->
<!-- Title: drivers/adc/ad7091r/ad7091r.h Pages: 1 -->
<svg width="135pt" height="148pt"
 viewBox="0.00 0.00 134.50 148.00" xmlns="http://www.w3.org/2000/svg" xmlns:xlink="http://www.w3.org/1999/xlink">
<g id="graph0" class="graph" transform="scale(1 1) rotate(0) translate(4 144)">
<title>drivers/adc/ad7091r/ad7091r.h</title>
<!-- Node1 -->
<g id="Node000001" class="node">
<title>Node1</title>
<g id="a_Node000001"><a xlink:title="Header file of AD7091R Driver.">
<polygon fill="#999999" stroke="#666666" points="113,-140 0,-140 0,-110 113,-110 113,-140"/>
<text text-anchor="start" x="8" y="-128" font-family="Helvetica,sans-Serif" font-size="10.00">drivers/adc/ad7091r</text>
<text text-anchor="middle" x="56.5" y="-117" font-family="Helvetica,sans-Serif" font-size="10.00">/ad7091r.h</text>
</a>
</g>
</g>
<!-- Node2 -->
<g id="Node000002" class="node">
<title>Node2</title>
<g id="a_Node000002"><a xlink:title=" ">
<polygon fill="#e0e0e0" stroke="#999999" points="83,-19 30,-19 30,0 83,0 83,-19"/>
<text text-anchor="middle" x="56.5" y="-7" font-family="Helvetica,sans-Serif" font-size="10.00">stdint.h</text>
</a>
</g>
</g>
<!-- Node1&#45;&gt;Node2 -->
<g id="edge1_Node000001_Node000002" class="edge">
<title>Node1&#45;&gt;Node2</title>
<g id="a_edge1_Node000001_Node000002"><a xlink:title=" ">
<path fill="none" stroke="#63b8ff" d="M51.04,-109.79C46.36,-95.88 40.77,-74.07 43.5,-55 44.75,-46.24 47.33,-36.79 49.86,-28.86"/>
<polygon fill="#63b8ff" stroke="#63b8ff" points="53.24,-29.8 53.16,-19.2 46.62,-27.54 53.24,-29.8"/>
</a>
</g>
</g>
<!-- Node3 -->
<g id="Node000003" class="node">
<title>Node3</title>
<g id="a_Node000003"><a xlink:href="no__os__spi_8h.html" target="_top" xlink:title="Header file of SPI Interface.">
<polygon fill="white" stroke="#666666" points="126.5,-74 52.5,-74 52.5,-55 126.5,-55 126.5,-74"/>
<text text-anchor="middle" x="89.5" y="-62" font-family="Helvetica,sans-Serif" font-size="10.00">no_os_spi.h</text>
</a>
</g>
</g>
<!-- Node1&#45;&gt;Node3 -->
<g id="edge2_Node000001_Node000003" class="edge">
<title>Node1&#45;&gt;Node3</title>
<g id="a_edge2_Node000001_Node000003"><a xlink:title=" ">
<path fill="none" stroke="#63b8ff" d="M64.49,-109.84C69.03,-101.78 74.77,-91.62 79.6,-83.06"/>
<polygon fill="#63b8ff" stroke="#63b8ff" points="82.69,-84.7 84.56,-74.27 76.59,-81.26 82.69,-84.7"/>
</a>
</g>
</g>
<!-- Node3&#45;&gt;Node2 -->
<g id="edge3_Node000003_Node000002" class="edge">
<title>Node3&#45;&gt;Node2</title>
<g id="a_edge3_Node000003_Node000002"><a xlink:title=" ">
<path fill="none" stroke="#63b8ff" d="M84.05,-54.75C79.49,-47.42 72.83,-36.73 67.21,-27.7"/>
<polygon fill="#63b8ff" stroke="#63b8ff" points="70.1,-25.73 61.85,-19.09 64.16,-29.43 70.1,-25.73"/>
</a>
</g>
</g>
</g>
</svg>
