<?xml version="1.0" encoding="UTF-8" standalone="no"?>
<!DOCTYPE svg PUBLIC "-//W3C//DTD SVG 1.1//EN"
 "http://www.w3.org/Graphics/SVG/1.1/DTD/svg11.dtd">
<!-- Generated by graphviz version 2.43.0 (0)
 -->
<!-- Title: ad7091r8_pulse_convst Pages: 1 -->
<!--zoomable 203 -->

<svg id="main" version="1.1" xmlns="http://www.w3.org/2000/svg" xmlns:xlink="http://www.w3.org/1999/xlink" xml:space="preserve" onload="init(evt)">

<style type="text/css"><![CDATA[
.node, .edge {opacity: 0.7;}
.node.selected, .edge.selected {opacity: 1;}
.edge:hover path { stroke: red; }
.edge:hover polygon { stroke: red; fill: red; }
]]></style>

<defs>
  <circle id="rim" cx="0" cy="0" r="7"/>
  <circle id="rim2" cx="0" cy="0" r="3.5"/>
  <g id="zoomPlus">
    <use xlink:href="#rim" fill="#404040"><set attributeName="fill" to="#808080" begin="zoomplus.mouseover" end="zoomplus.mouseout"/></use>
    <path d="M-4,0h8M0,-4v8" fill="none" stroke="white" stroke-width="1.5" pointer-events="none"/>
  </g>
  <g id="zoomMin">
    <use xlink:href="#rim" fill="#404040"><set attributeName="fill" to="#808080" begin="zoomminus.mouseover" end="zoomminus.mouseout"/></use>
    <path d="M-4,0h8" fill="none" stroke="white" stroke-width="1.5" pointer-events="none"/>
  </g>
  <g id="arrowUp" transform="translate(30 24)">
    <use xlink:href="#rim"/>
    <path pointer-events="none" fill="none" stroke="white" stroke-width="1.5" d="M0,-3.0v7 M-2.5,-0.5L0,-3.0L2.5,-0.5"/>
  </g>
  <g id="arrowRight" transform="rotate(90) translate(36 -43)">
    <use xlink:href="#rim"/>
    <path pointer-events="none" fill="none" stroke="white" stroke-width="1.5" d="M0,-3.0v7 M-2.5,-0.5L0,-3.0L2.5,-0.5"/>
  </g>
  <g id="arrowDown" transform="rotate(180) translate(-30 -48)">
    <use xlink:href="#rim"/>
    <path pointer-events="none" fill="none" stroke="white" stroke-width="1.5" d="M0,-3.0v7 M-2.5,-0.5L0,-3.0L2.5,-0.5"/>
  </g>
  <g id="arrowLeft" transform="rotate(270) translate(-36 17)">
    <use xlink:href="#rim"/>
    <path pointer-events="none" fill="none" stroke="white" stroke-width="1.5" d="M0,-3.0v7 M-2.5,-0.5L0,-3.0L2.5,-0.5"/>
  </g>
  <g id="resetDef">
    <use xlink:href="#rim2" fill="#404040"><set attributeName="fill" to="#808080" begin="reset.mouseover" end="reset.mouseout"/></use>
  </g>
</defs>
<script type="application/ecmascript">
var viewWidth = 1296;
var viewHeight = 203;
var sectionId = 'dynsection-3';
</script>
<script type="application/ecmascript" xlink:href="svg.min.js"/>
<svg id="graph" class="graph">
<g id="viewport">
<title>ad7091r8_pulse_convst</title>
<!-- Node1 -->
<g id="Node000001" class="node">
<title>Node1</title>
<g id="a_Node000001"><a xlink:title=" ">
<polygon fill="#999999" stroke="#666666" points="1288,-167 1157,-167 1157,-148 1288,-148 1288,-167"/>
<text text-anchor="middle" x="1222.5" y="-155" font-family="Helvetica,sans-Serif" font-size="10.00">ad7091r8_pulse_convst</text>
</a>
</g>
</g>
<!-- Node2 -->
<g id="Node000002" class="node">
<title>Node2</title>
<g id="a_Node000002"><a xlink:href="ad7091r8_8c.html#ad8bc81ef9c5b911903d3a99b049532c1" target="_top" xlink:title=" ">
<polygon fill="white" stroke="#666666" points="592,-195 445,-195 445,-176 592,-176 592,-195"/>
<text text-anchor="middle" x="518.5" y="-183" font-family="Helvetica,sans-Serif" font-size="10.00">ad7091r8_sequenced_read</text>
</a>
</g>
</g>
<!-- Node1&#45;&gt;Node2 -->
<g id="edge1_Node000001_Node000002" class="edge">
<title>Node1&#45;&gt;Node2</title>
<g id="a_edge1_Node000001_Node000002"><a xlink:title=" ">
<path fill="none" stroke="#63b8ff" d="M1169.71,-169.05C1154.13,-172.05 1136.94,-174.89 1121,-176.5 931.11,-195.73 705.8,-192.09 592.42,-188.43"/>
<polygon fill="#63b8ff" stroke="#63b8ff" points="1170.56,-172.45 1179.68,-167.07 1169.19,-165.59 1170.56,-172.45"/>
</a>
</g>
</g>
<!-- Node4 -->
<g id="Node000004" class="node">
<title>Node4</title>
<g id="a_Node000004"><a xlink:href="ad7091r8_8c.html#acfb77cab6cc4bf4dbe40618df914f6f6" target="_top" xlink:title=" ">
<polygon fill="white" stroke="#666666" points="1119,-167 993,-167 993,-148 1119,-148 1119,-167"/>
<text text-anchor="middle" x="1056" y="-155" font-family="Helvetica,sans-Serif" font-size="10.00">ad7091r8_set_channel</text>
</a>
</g>
</g>
<!-- Node1&#45;&gt;Node4 -->
<g id="edge3_Node000001_Node000004" class="edge">
<title>Node1&#45;&gt;Node4</title>
<g id="a_edge3_Node000001_Node000004"><a xlink:title=" ">
<path fill="none" stroke="#63b8ff" d="M1146.67,-157.5C1137.48,-157.5 1128.17,-157.5 1119.2,-157.5"/>
<polygon fill="#63b8ff" stroke="#63b8ff" points="1146.96,-161 1156.96,-157.5 1146.96,-154 1146.96,-161"/>
</a>
</g>
</g>
<!-- Node6 -->
<g id="Node000006" class="node">
<title>Node6</title>
<g id="a_Node000006"><a xlink:href="ad7091r8_8c.html#aedf26e2818e2887fe67ddd8886fec738" target="_top" xlink:title=" ">
<polygon fill="white" stroke="#666666" points="1121,-130 991,-130 991,-111 1121,-111 1121,-130"/>
<text text-anchor="middle" x="1056" y="-118" font-family="Helvetica,sans-Serif" font-size="10.00">ad7091r8_spi_reg_read</text>
</a>
</g>
</g>
<!-- Node1&#45;&gt;Node6 -->
<g id="edge5_Node000001_Node000006" class="edge">
<title>Node1&#45;&gt;Node6</title>
<g id="a_edge5_Node000001_Node000006"><a xlink:title=" ">
<path fill="none" stroke="#63b8ff" d="M1169.09,-145.71C1146.63,-140.66 1120.74,-134.84 1099.5,-130.06"/>
<polygon fill="#63b8ff" stroke="#63b8ff" points="1168.61,-149.19 1179.14,-147.97 1170.15,-142.36 1168.61,-149.19"/>
</a>
</g>
</g>
<!-- Node3 -->
<g id="Node000003" class="node">
<title>Node3</title>
<g id="a_Node000003"><a xlink:href="ad7091r8-sdz_2src_2examples_2basic_2basic__example_8c.html#a72943dc9011d36293cb05ca5d7cb6899" target="_top" xlink:title="Basic example main execution.">
<polygon fill="white" stroke="#666666" points="409,-186 289,-186 289,-167 409,-167 409,-186"/>
<text text-anchor="middle" x="349" y="-174" font-family="Helvetica,sans-Serif" font-size="10.00">basic_example_main</text>
</a>
</g>
</g>
<!-- Node2&#45;&gt;Node3 -->
<g id="edge2_Node000002_Node000003" class="edge">
<title>Node2&#45;&gt;Node3</title>
<g id="a_edge2_Node000002_Node000003"><a xlink:title=" ">
<path fill="none" stroke="#63b8ff" d="M434.5,-181.04C425.95,-180.58 417.39,-180.12 409.17,-179.68"/>
<polygon fill="#63b8ff" stroke="#63b8ff" points="434.35,-184.54 444.52,-181.58 434.72,-177.55 434.35,-184.54"/>
</a>
</g>
</g>
<!-- Node5 -->
<g id="Node000005" class="node">
<title>Node5</title>
<g id="a_Node000005"><a xlink:href="ad7091r8_8c.html#a9af59a2e061b9940cb39eb28b24653e7" target="_top" xlink:title=" ">
<polygon fill="white" stroke="#666666" points="939.5,-167 826.5,-167 826.5,-148 939.5,-148 939.5,-167"/>
<text text-anchor="middle" x="883" y="-155" font-family="Helvetica,sans-Serif" font-size="10.00">ad7091r8_read_one</text>
</a>
</g>
</g>
<!-- Node4&#45;&gt;Node5 -->
<g id="edge4_Node000004_Node000005" class="edge">
<title>Node4&#45;&gt;Node5</title>
<g id="a_edge4_Node000004_Node000005"><a xlink:title=" ">
<path fill="none" stroke="#63b8ff" d="M982.46,-157.5C968.14,-157.5 953.32,-157.5 939.66,-157.5"/>
<polygon fill="#63b8ff" stroke="#63b8ff" points="982.78,-161 992.78,-157.5 982.78,-154 982.78,-161"/>
</a>
</g>
</g>
<!-- Node6&#45;&gt;Node5 -->
<g id="edge8_Node000006_Node000005" class="edge">
<title>Node6&#45;&gt;Node5</title>
<g id="a_edge8_Node000006_Node000005"><a xlink:title=" ">
<path fill="none" stroke="#63b8ff" d="M1001.15,-132.15C977.66,-137.23 950.46,-143.12 928.18,-147.94"/>
<polygon fill="#63b8ff" stroke="#63b8ff" points="1001.93,-135.56 1010.96,-130.03 1000.45,-128.72 1001.93,-135.56"/>
</a>
</g>
</g>
<!-- Node7 -->
<g id="Node000007" class="node">
<title>Node7</title>
<g id="a_Node000007"><a xlink:href="ad7091r8_8c.html#a40429299260cc7c1810b535a7bb4f07e" target="_top" xlink:title=" ">
<polygon fill="white" stroke="#666666" points="938.5,-130 827.5,-130 827.5,-111 938.5,-111 938.5,-130"/>
<text text-anchor="middle" x="883" y="-118" font-family="Helvetica,sans-Serif" font-size="10.00">ad7091r8_get_alert</text>
</a>
</g>
</g>
<!-- Node6&#45;&gt;Node7 -->
<g id="edge6_Node000006_Node000007" class="edge">
<title>Node6&#45;&gt;Node7</title>
<g id="a_edge6_Node000006_Node000007"><a xlink:title=" ">
<path fill="none" stroke="#63b8ff" d="M980.67,-120.5C966.58,-120.5 952.07,-120.5 938.72,-120.5"/>
<polygon fill="#63b8ff" stroke="#63b8ff" points="980.84,-124 990.84,-120.5 980.84,-117 980.84,-124"/>
</a>
</g>
</g>
<!-- Node8 -->
<g id="Node000008" class="node">
<title>Node8</title>
<g id="a_Node000008"><a xlink:href="ad7091r8_8c.html#a420a2870fd9a78afc10d726097c09e50" target="_top" xlink:title=" ">
<polygon fill="white" stroke="#666666" points="938.5,-93 827.5,-93 827.5,-74 938.5,-74 938.5,-93"/>
<text text-anchor="middle" x="883" y="-81" font-family="Helvetica,sans-Serif" font-size="10.00">ad7091r8_get_limit</text>
</a>
</g>
</g>
<!-- Node6&#45;&gt;Node8 -->
<g id="edge7_Node000006_Node000008" class="edge">
<title>Node6&#45;&gt;Node8</title>
<g id="a_edge7_Node000006_Node000008"><a xlink:title=" ">
<path fill="none" stroke="#63b8ff" d="M1001.15,-108.85C977.66,-103.77 950.46,-97.88 928.18,-93.06"/>
<polygon fill="#63b8ff" stroke="#63b8ff" points="1000.45,-112.28 1010.96,-110.97 1001.93,-105.44 1000.45,-112.28"/>
</a>
</g>
</g>
<!-- Node9 -->
<g id="Node000009" class="node">
<title>Node9</title>
<g id="a_Node000009"><a xlink:href="ad7091r8_8c.html#abebb64ecf2aa02f00937291bbeae084f" target="_top" xlink:title=" ">
<polygon fill="white" stroke="#666666" points="955,-56 811,-56 811,-37 955,-37 955,-56"/>
<text text-anchor="middle" x="883" y="-44" font-family="Helvetica,sans-Serif" font-size="10.00">ad7091r8_spi_write_mask</text>
</a>
</g>
</g>
<!-- Node6&#45;&gt;Node9 -->
<g id="edge9_Node000006_Node000009" class="edge">
<title>Node6&#45;&gt;Node9</title>
<g id="a_edge9_Node000006_Node000009"><a xlink:title=" ">
<path fill="none" stroke="#63b8ff" d="M1032.11,-105.39C1012.37,-92.93 982.76,-75.57 955,-64.5 946.85,-61.25 937.93,-58.44 929.26,-56.08"/>
<polygon fill="#63b8ff" stroke="#63b8ff" points="1030.38,-108.44 1040.69,-110.89 1034.16,-102.55 1030.38,-108.44"/>
</a>
</g>
</g>
<!-- Node10 -->
<g id="Node000010" class="node">
<title>Node10</title>
<g id="a_Node000010"><a xlink:href="ad7091r8_8c.html#aeda1a717753c7bfacfb1c767762b25d2" target="_top" xlink:title="Initiate a software reset or hardware reset through the RESET pin.">
<polygon fill="white" stroke="#666666" points="747.5,-130 655.5,-130 655.5,-111 747.5,-111 747.5,-130"/>
<text text-anchor="middle" x="701.5" y="-118" font-family="Helvetica,sans-Serif" font-size="10.00">ad7091r8_reset</text>
</a>
</g>
</g>
<!-- Node9&#45;&gt;Node10 -->
<g id="edge10_Node000009_Node000010" class="edge">
<title>Node9&#45;&gt;Node10</title>
<g id="a_edge10_Node000009_Node000010"><a xlink:title=" ">
<path fill="none" stroke="#63b8ff" d="M820.64,-59.69C817.31,-61.13 814.07,-62.73 811,-64.5 791.13,-75.97 794.82,-89.95 775,-101.5 766.68,-106.35 757.11,-109.98 747.71,-112.7"/>
<polygon fill="#63b8ff" stroke="#63b8ff" points="822.16,-62.86 830.25,-56.02 819.66,-56.32 822.16,-62.86"/>
</a>
</g>
</g>
<!-- Node16 -->
<g id="Node000016" class="node">
<title>Node16</title>
<g id="a_Node000016"><a xlink:href="ad7091r8_8c.html#a7a246a61b90d79cb30bf8a897fc8aece" target="_top" xlink:title=" ">
<polygon fill="white" stroke="#666666" points="774,-93 629,-93 629,-74 774,-74 774,-93"/>
<text text-anchor="middle" x="701.5" y="-81" font-family="Helvetica,sans-Serif" font-size="10.00">ad7091r8_set_gpo0_mode</text>
</a>
</g>
</g>
<!-- Node9&#45;&gt;Node16 -->
<g id="edge17_Node000009_Node000016" class="edge">
<title>Node9&#45;&gt;Node16</title>
<g id="a_edge17_Node000009_Node000016"><a xlink:title=" ">
<path fill="none" stroke="#63b8ff" d="M825.8,-58.08C801.07,-63.18 772.37,-69.1 748.88,-73.94"/>
<polygon fill="#63b8ff" stroke="#63b8ff" points="826.69,-61.48 835.77,-56.03 825.27,-54.62 826.69,-61.48"/>
</a>
</g>
</g>
<!-- Node17 -->
<g id="Node000017" class="node">
<title>Node17</title>
<g id="a_Node000017"><a xlink:href="ad7091r8_8c.html#a895fbeec7666e2c44ecaffa6dd2d1381" target="_top" xlink:title=" ">
<polygon fill="white" stroke="#666666" points="755,-56 648,-56 648,-37 755,-37 755,-56"/>
<text text-anchor="middle" x="701.5" y="-44" font-family="Helvetica,sans-Serif" font-size="10.00">ad7091r8_set_port</text>
</a>
</g>
</g>
<!-- Node9&#45;&gt;Node17 -->
<g id="edge18_Node000009_Node000017" class="edge">
<title>Node9&#45;&gt;Node17</title>
<g id="a_edge18_Node000009_Node000017"><a xlink:title=" ">
<path fill="none" stroke="#63b8ff" d="M800.69,-46.5C785.19,-46.5 769.36,-46.5 755.06,-46.5"/>
<polygon fill="#63b8ff" stroke="#63b8ff" points="800.8,-50 810.8,-46.5 800.8,-43 800.8,-50"/>
</a>
</g>
</g>
<!-- Node18 -->
<g id="Node000018" class="node">
<title>Node18</title>
<g id="a_Node000018"><a xlink:href="ad7091r8_8c.html#a5b948870147de8f86b56a19dcb908423" target="_top" xlink:title="Set device sleep mode.">
<polygon fill="white" stroke="#666666" points="775,-19 628,-19 628,0 775,0 775,-19"/>
<text text-anchor="middle" x="701.5" y="-7" font-family="Helvetica,sans-Serif" font-size="10.00">ad7091r8_set_sleep_mode</text>
</a>
</g>
</g>
<!-- Node9&#45;&gt;Node18 -->
<g id="edge19_Node000009_Node000018" class="edge">
<title>Node9&#45;&gt;Node18</title>
<g id="a_edge19_Node000009_Node000018"><a xlink:title=" ">
<path fill="none" stroke="#63b8ff" d="M825.8,-34.92C801.07,-29.82 772.37,-23.9 748.88,-19.06"/>
<polygon fill="#63b8ff" stroke="#63b8ff" points="825.27,-38.38 835.77,-36.97 826.69,-31.52 825.27,-38.38"/>
</a>
</g>
</g>
<!-- Node11 -->
<g id="Node000011" class="node">
<title>Node11</title>
<g id="a_Node000011"><a xlink:href="ad7091r8_8c.html#a88b4ef5f944b82a2e35a53b9a5170478" target="_top" xlink:title=" ">
<polygon fill="white" stroke="#666666" points="560,-130 477,-130 477,-111 560,-111 560,-130"/>
<text text-anchor="middle" x="518.5" y="-118" font-family="Helvetica,sans-Serif" font-size="10.00">ad7091r8_init</text>
</a>
</g>
</g>
<!-- Node10&#45;&gt;Node11 -->
<g id="edge11_Node000010_Node000011" class="edge">
<title>Node10&#45;&gt;Node11</title>
<g id="a_edge11_Node000010_Node000011"><a xlink:title=" ">
<path fill="none" stroke="#63b8ff" d="M645.06,-120.5C617.66,-120.5 585.18,-120.5 560.12,-120.5"/>
<polygon fill="#63b8ff" stroke="#63b8ff" points="645.29,-124 655.29,-120.5 645.29,-117 645.29,-124"/>
</a>
</g>
</g>
<!-- Node11&#45;&gt;Node3 -->
<g id="edge16_Node000011_Node000003" class="edge">
<title>Node11&#45;&gt;Node3</title>
<g id="a_edge16_Node000011_Node000003"><a xlink:title=" ">
<path fill="none" stroke="#63b8ff" d="M479.19,-133.31C448.5,-143.57 406.14,-157.73 378.42,-167"/>
<polygon fill="#63b8ff" stroke="#63b8ff" points="480.33,-136.62 488.71,-130.13 478.11,-129.98 480.33,-136.62"/>
</a>
</g>
</g>
<!-- Node12 -->
<g id="Node000012" class="node">
<title>Node12</title>
<g id="a_Node000012"><a xlink:href="iio__ad7091r8_8c.html#ab9ebf560e86c6769048fec90dbed9f65" target="_top" xlink:title="Initializes the AD7091R8 IIO driver.">
<polygon fill="white" stroke="#666666" points="399.5,-130 298.5,-130 298.5,-111 399.5,-111 399.5,-130"/>
<text text-anchor="middle" x="349" y="-118" font-family="Helvetica,sans-Serif" font-size="10.00">ad7091r8_iio_init</text>
</a>
</g>
</g>
<!-- Node11&#45;&gt;Node12 -->
<g id="edge12_Node000011_Node000012" class="edge">
<title>Node11&#45;&gt;Node12</title>
<g id="a_edge12_Node000011_Node000012"><a xlink:title=" ">
<path fill="none" stroke="#63b8ff" d="M466.82,-120.5C445.56,-120.5 420.91,-120.5 399.75,-120.5"/>
<polygon fill="#63b8ff" stroke="#63b8ff" points="466.95,-124 476.95,-120.5 466.95,-117 466.95,-124"/>
</a>
</g>
</g>
<!-- Node13 -->
<g id="Node000013" class="node">
<title>Node13</title>
<g id="a_Node000013"><a xlink:href="ad7091r8-sdz_2src_2examples_2iio__example_2iio__example_8c.html#a7d58fb707a91d4615d3bf949fabaa1e2" target="_top" xlink:title="IIO example main execution.">
<polygon fill="white" stroke="#666666" points="218.5,-149 111.5,-149 111.5,-130 218.5,-130 218.5,-149"/>
<text text-anchor="middle" x="165" y="-137" font-family="Helvetica,sans-Serif" font-size="10.00">iio_example_main</text>
</a>
</g>
</g>
<!-- Node12&#45;&gt;Node13 -->
<g id="edge13_Node000012_Node000013" class="edge">
<title>Node12&#45;&gt;Node13</title>
<g id="a_edge13_Node000012_Node000013"><a xlink:title=" ">
<path fill="none" stroke="#63b8ff" d="M288.16,-126.75C265.68,-129.09 240.31,-131.74 218.54,-134.02"/>
<polygon fill="#63b8ff" stroke="#63b8ff" points="288.69,-130.21 298.27,-125.69 287.96,-123.25 288.69,-130.21"/>
</a>
</g>
</g>
<!-- Node14 -->
<g id="Node000014" class="node">
<title>Node14</title>
<g id="a_Node000014"><a xlink:href="ad7091r8-sdz_2src_2examples_2iio__timer__trigger__example_2iio__timer__trigger__example_8c.html#a7bab3a90f71c4ddf1bc5fff9fc70b3fb" target="_top" xlink:title="IIO trigger example main execution.">
<polygon fill="white" stroke="#666666" points="253,-112 77,-112 77,-93 253,-93 253,-112"/>
<text text-anchor="middle" x="165" y="-100" font-family="Helvetica,sans-Serif" font-size="10.00">iio_timer_trigger_example_main</text>
</a>
</g>
</g>
<!-- Node12&#45;&gt;Node14 -->
<g id="edge14_Node000012_Node000014" class="edge">
<title>Node12&#45;&gt;Node14</title>
<g id="a_edge14_Node000012_Node000014"><a xlink:title=" ">
<path fill="none" stroke="#63b8ff" d="M288.18,-114.58C276.94,-113.47 264.99,-112.29 253.12,-111.12"/>
<polygon fill="#63b8ff" stroke="#63b8ff" points="287.97,-118.08 298.27,-115.58 288.66,-111.11 287.97,-118.08"/>
</a>
</g>
</g>
<!-- Node15 -->
<g id="Node000015" class="node">
<title>Node15</title>
<g id="a_Node000015"><a xlink:href="ad7091r8-sdz_2src_2platform_2maxim_2main_8c.html#ae66f6b31b5ad750f1fe042a706a4e3d4" target="_top" xlink:title="Main function execution for Maxim platform.">
<polygon fill="white" stroke="#666666" points="41,-112 0,-112 0,-93 41,-93 41,-112"/>
<text text-anchor="middle" x="20.5" y="-100" font-family="Helvetica,sans-Serif" font-size="10.00">main</text>
</a>
</g>
</g>
<!-- Node14&#45;&gt;Node15 -->
<g id="edge15_Node000014_Node000015" class="edge">
<title>Node14&#45;&gt;Node15</title>
<g id="a_edge15_Node000014_Node000015"><a xlink:title=" ">
<path fill="none" stroke="#63b8ff" d="M66.54,-102.5C57.1,-102.5 48.38,-102.5 41.17,-102.5"/>
<polygon fill="#63b8ff" stroke="#63b8ff" points="66.59,-106 76.59,-102.5 66.59,-99 66.59,-106"/>
</a>
</g>
</g>
<!-- Node18&#45;&gt;Node11 -->
<g id="edge20_Node000018_Node000011" class="edge">
<title>Node18&#45;&gt;Node11</title>
<g id="a_edge20_Node000018_Node000011"><a xlink:title=" ">
<path fill="none" stroke="#63b8ff" d="M639.61,-22.35C635.6,-23.88 631.7,-25.59 628,-27.5 585,-49.67 544.55,-92.02 527.72,-110.95"/>
<polygon fill="#63b8ff" stroke="#63b8ff" points="640.78,-25.65 649.09,-19.08 638.5,-19.03 640.78,-25.65"/>
</a>
</g>
</g>
</g>
</svg>

<g id="navigator" transform="translate(0 0)" fill="#404254">
  <rect fill="#f2f5e9" fill-opacity="0.5" stroke="#606060" stroke-width=".5" x="0" y="0" width="60" height="60"/>
  <use id="zoomplus" xlink:href="#zoomPlus" x="17" y="9" onmousedown="handleZoom(evt,'in')"/>
  <use id="zoomminus" xlink:href="#zoomMin" x="42" y="9" onmousedown="handleZoom(evt,'out')"/>
  <use id="reset" xlink:href="#resetDef" x="30" y="36" onmousedown="handleReset()"/>
   <use id="arrowup" xlink:href="#arrowUp" x="0" y="0" onmousedown="handlePan(0,-1)"/>
  <use id="arrowright" xlink:href="#arrowRight" x="0" y="0" onmousedown="handlePan(1,0)"/>
  <use id="arrowdown" xlink:href="#arrowDown" x="0" y="0" onmousedown="handlePan(0,1)"/>
  <use id="arrowleft" xlink:href="#arrowLeft" x="0" y="0" onmousedown="handlePan(-1,0)"/>
</g>
<svg viewBox="0 0 15 15" width="100%" height="30px" preserveAspectRatio="xMaxYMin meet">
 <g id="arrow_out" transform="scale(0.3 0.3)">
  <a xlink:href="ad7091r8_8h_ab1cae4448a101313611baffe5859c5e1_icgraph_org.svg" target="_base">
   <rect id="button" ry="5" rx="5" y="6" x="6" height="38" width="38"
        fill="#f2f5e9" fill-opacity="0.5" stroke="#606060" stroke-width="1.0"/>
   <path id="arrow"
     d="M 11.500037,31.436501 C 11.940474,20.09759 22.043105,11.32322 32.158766,21.979434 L 37.068811,17.246167 C 37.068811,17.246167 37.088388,32 37.088388,32 L 22.160133,31.978069 C 22.160133,31.978069 26.997745,27.140456 26.997745,27.140456 C 18.528582,18.264221 13.291696,25.230495 11.500037,31.436501 z"
     style="fill:#404040;"/>
  </a>
 </g>
</svg>

<style type='text/css'>
<![CDATA[
[data-mouse-over-selected='false'] { opacity: 0.7; }
[data-mouse-over-selected='true']  { opacity: 1.0; }
]]>
</style>
<script type="application/ecmascript"><![CDATA[
document.addEventListener('DOMContentLoaded', (event) => {
  highlightEdges();
  highlightAdjacentNodes();
});
]]></script>
</svg>
