<?xml version="1.0" encoding="UTF-8" standalone="no"?>
<!DOCTYPE svg PUBLIC "-//W3C//DTD SVG 1.1//EN"
 "http://www.w3.org/Graphics/SVG/1.1/DTD/svg11.dtd">
<!-- Generated by graphviz version 2.43.0 (0)
 -->
<!-- Title: drivers/adc/ad717x/ad717x.h Pages: 1 -->
<!--zoomable 104 -->

<svg id="main" version="1.1" xmlns="http://www.w3.org/2000/svg" xmlns:xlink="http://www.w3.org/1999/xlink" xml:space="preserve" onload="init(evt)">

<style type="text/css"><![CDATA[
.node, .edge {opacity: 0.7;}
.node.selected, .edge.selected {opacity: 1;}
.edge:hover path { stroke: red; }
.edge:hover polygon { stroke: red; fill: red; }
]]></style>

<defs>
  <circle id="rim" cx="0" cy="0" r="7"/>
  <circle id="rim2" cx="0" cy="0" r="3.5"/>
  <g id="zoomPlus">
    <use xlink:href="#rim" fill="#404040"><set attributeName="fill" to="#808080" begin="zoomplus.mouseover" end="zoomplus.mouseout"/></use>
    <path d="M-4,0h8M0,-4v8" fill="none" stroke="white" stroke-width="1.5" pointer-events="none"/>
  </g>
  <g id="zoomMin">
    <use xlink:href="#rim" fill="#404040"><set attributeName="fill" to="#808080" begin="zoomminus.mouseover" end="zoomminus.mouseout"/></use>
    <path d="M-4,0h8" fill="none" stroke="white" stroke-width="1.5" pointer-events="none"/>
  </g>
  <g id="arrowUp" transform="translate(30 24)">
    <use xlink:href="#rim"/>
    <path pointer-events="none" fill="none" stroke="white" stroke-width="1.5" d="M0,-3.0v7 M-2.5,-0.5L0,-3.0L2.5,-0.5"/>
  </g>
  <g id="arrowRight" transform="rotate(90) translate(36 -43)">
    <use xlink:href="#rim"/>
    <path pointer-events="none" fill="none" stroke="white" stroke-width="1.5" d="M0,-3.0v7 M-2.5,-0.5L0,-3.0L2.5,-0.5"/>
  </g>
  <g id="arrowDown" transform="rotate(180) translate(-30 -48)">
    <use xlink:href="#rim"/>
    <path pointer-events="none" fill="none" stroke="white" stroke-width="1.5" d="M0,-3.0v7 M-2.5,-0.5L0,-3.0L2.5,-0.5"/>
  </g>
  <g id="arrowLeft" transform="rotate(270) translate(-36 17)">
    <use xlink:href="#rim"/>
    <path pointer-events="none" fill="none" stroke="white" stroke-width="1.5" d="M0,-3.0v7 M-2.5,-0.5L0,-3.0L2.5,-0.5"/>
  </g>
  <g id="resetDef">
    <use xlink:href="#rim2" fill="#404040"><set attributeName="fill" to="#808080" begin="reset.mouseover" end="reset.mouseout"/></use>
  </g>
</defs>
<script type="application/ecmascript">
var viewWidth = 1270;
var viewHeight = 104;
var sectionId = 'dynsection-1';
</script>
<script type="application/ecmascript" xlink:href="svg.min.js"/>
<svg id="graph" class="graph">
<g id="viewport">
<title>drivers/adc/ad717x/ad717x.h</title>
<!-- Node1 -->
<g id="Node000001" class="node">
<title>Node1</title>
<g id="a_Node000001"><a xlink:title="AD717X header file. Devices: AD7172&#45;2, AD7172&#45;4, AD7173&#45;8, AD7175&#45;2, AD7175&#45;8, AD7176&#45;2,...">
<polygon fill="#999999" stroke="#666666" points="686,-96 576,-96 576,-66 686,-66 686,-96"/>
<text text-anchor="start" x="584" y="-84" font-family="Helvetica,sans-Serif" font-size="10.00">drivers/adc/ad717x</text>
<text text-anchor="middle" x="631" y="-73" font-family="Helvetica,sans-Serif" font-size="10.00">/ad717x.h</text>
</a>
</g>
</g>
<!-- Node2 -->
<g id="Node000002" class="node">
<title>Node2</title>
<g id="a_Node000002"><a xlink:href="ad4113__regs_8h.html" target="_top" xlink:title="AD4113 Registers Definitions.">
<polygon fill="white" stroke="#666666" points="110,-30 0,-30 0,0 110,0 110,-30"/>
<text text-anchor="start" x="8" y="-18" font-family="Helvetica,sans-Serif" font-size="10.00">drivers/adc/ad717x</text>
<text text-anchor="middle" x="55" y="-7" font-family="Helvetica,sans-Serif" font-size="10.00">/ad4113_regs.h</text>
</a>
</g>
</g>
<!-- Node1&#45;&gt;Node2 -->
<g id="edge1_Node000001_Node000002" class="edge">
<title>Node1&#45;&gt;Node2</title>
<g id="a_edge1_Node000001_Node000002"><a xlink:title=" ">
<path fill="none" stroke="#63b8ff" d="M565.79,-76.11C468.19,-69.72 278.55,-55.15 119,-30 116.08,-29.54 113.09,-29.03 110.08,-28.48"/>
<polygon fill="#63b8ff" stroke="#63b8ff" points="565.59,-79.6 575.8,-76.75 566.04,-72.61 565.59,-79.6"/>
</a>
</g>
</g>
<!-- Node3 -->
<g id="Node000003" class="node">
<title>Node3</title>
<g id="a_Node000003"><a xlink:href="ad411x__regs_8h.html" target="_top" xlink:title="ad4111 Registers Definitions.">
<polygon fill="white" stroke="#666666" points="238,-30 128,-30 128,0 238,0 238,-30"/>
<text text-anchor="start" x="136" y="-18" font-family="Helvetica,sans-Serif" font-size="10.00">drivers/adc/ad717x</text>
<text text-anchor="middle" x="183" y="-7" font-family="Helvetica,sans-Serif" font-size="10.00">/ad411x_regs.h</text>
</a>
</g>
</g>
<!-- Node1&#45;&gt;Node3 -->
<g id="edge2_Node000001_Node000003" class="edge">
<title>Node1&#45;&gt;Node3</title>
<g id="a_edge2_Node000001_Node000003"><a xlink:title=" ">
<path fill="none" stroke="#63b8ff" d="M565.79,-73.24C489.18,-64.89 358.4,-49.4 247,-30 244.09,-29.49 241.1,-28.94 238.1,-28.37"/>
<polygon fill="#63b8ff" stroke="#63b8ff" points="565.45,-76.72 575.77,-74.32 566.2,-69.76 565.45,-76.72"/>
</a>
</g>
</g>
<!-- Node4 -->
<g id="Node000004" class="node">
<title>Node4</title>
<g id="a_Node000004"><a xlink:href="ad7172__2__regs_8h.html" target="_top" xlink:title="AD7172_2 Registers Definitions.">
<polygon fill="white" stroke="#666666" points="366,-30 256,-30 256,0 366,0 366,-30"/>
<text text-anchor="start" x="264" y="-18" font-family="Helvetica,sans-Serif" font-size="10.00">drivers/adc/ad717x</text>
<text text-anchor="middle" x="311" y="-7" font-family="Helvetica,sans-Serif" font-size="10.00">/ad7172_2_regs.h</text>
</a>
</g>
</g>
<!-- Node1&#45;&gt;Node4 -->
<g id="edge3_Node000001_Node000004" class="edge">
<title>Node1&#45;&gt;Node4</title>
<g id="a_edge3_Node000001_Node000004"><a xlink:title=" ">
<path fill="none" stroke="#63b8ff" d="M565.95,-67.71C514.16,-57.83 439.85,-43.42 375,-30 372.1,-29.4 369.14,-28.78 366.14,-28.14"/>
<polygon fill="#63b8ff" stroke="#63b8ff" points="565.52,-71.19 576,-69.63 566.83,-64.32 565.52,-71.19"/>
</a>
</g>
</g>
<!-- Node5 -->
<g id="Node000005" class="node">
<title>Node5</title>
<g id="a_Node000005"><a xlink:href="ad7172__4__regs_8h.html" target="_top" xlink:title="AD7172_4 Registers Definitions.">
<polygon fill="white" stroke="#666666" points="494,-30 384,-30 384,0 494,0 494,-30"/>
<text text-anchor="start" x="392" y="-18" font-family="Helvetica,sans-Serif" font-size="10.00">drivers/adc/ad717x</text>
<text text-anchor="middle" x="439" y="-7" font-family="Helvetica,sans-Serif" font-size="10.00">/ad7172_4_regs.h</text>
</a>
</g>
</g>
<!-- Node1&#45;&gt;Node5 -->
<g id="edge4_Node000001_Node000005" class="edge">
<title>Node1&#45;&gt;Node5</title>
<g id="a_edge4_Node000001_Node000005"><a xlink:title=" ">
<path fill="none" stroke="#63b8ff" d="M579.17,-62.72C548.41,-52.47 509.9,-39.63 481.04,-30.01"/>
<polygon fill="#63b8ff" stroke="#63b8ff" points="578.27,-66.11 588.86,-65.95 580.48,-59.47 578.27,-66.11"/>
</a>
</g>
</g>
<!-- Node6 -->
<g id="Node000006" class="node">
<title>Node6</title>
<g id="a_Node000006"><a xlink:href="ad7173__8__regs_8h.html" target="_top" xlink:title="AD7173_8 Registers Definitions.">
<polygon fill="white" stroke="#666666" points="622,-30 512,-30 512,0 622,0 622,-30"/>
<text text-anchor="start" x="520" y="-18" font-family="Helvetica,sans-Serif" font-size="10.00">drivers/adc/ad717x</text>
<text text-anchor="middle" x="567" y="-7" font-family="Helvetica,sans-Serif" font-size="10.00">/ad7173_8_regs.h</text>
</a>
</g>
</g>
<!-- Node1&#45;&gt;Node6 -->
<g id="edge5_Node000001_Node000006" class="edge">
<title>Node1&#45;&gt;Node6</title>
<g id="a_edge5_Node000001_Node000006"><a xlink:title=" ">
<path fill="none" stroke="#63b8ff" d="M609.65,-58.65C600.27,-49.27 589.53,-38.53 581.16,-30.16"/>
<polygon fill="#63b8ff" stroke="#63b8ff" points="607.25,-61.2 616.8,-65.8 612.2,-56.25 607.25,-61.2"/>
</a>
</g>
</g>
<!-- Node7 -->
<g id="Node000007" class="node">
<title>Node7</title>
<g id="a_Node000007"><a xlink:href="ad7175__2__regs_8h.html" target="_top" xlink:title="AD7175_2 Registers Definitions.">
<polygon fill="white" stroke="#666666" points="750,-30 640,-30 640,0 750,0 750,-30"/>
<text text-anchor="start" x="648" y="-18" font-family="Helvetica,sans-Serif" font-size="10.00">drivers/adc/ad717x</text>
<text text-anchor="middle" x="695" y="-7" font-family="Helvetica,sans-Serif" font-size="10.00">/ad7175_2_regs.h</text>
</a>
</g>
</g>
<!-- Node1&#45;&gt;Node7 -->
<g id="edge6_Node000001_Node000007" class="edge">
<title>Node1&#45;&gt;Node7</title>
<g id="a_edge6_Node000001_Node000007"><a xlink:title=" ">
<path fill="none" stroke="#63b8ff" d="M652.35,-58.65C661.73,-49.27 672.47,-38.53 680.84,-30.16"/>
<polygon fill="#63b8ff" stroke="#63b8ff" points="649.8,-56.25 645.2,-65.8 654.75,-61.2 649.8,-56.25"/>
</a>
</g>
</g>
<!-- Node8 -->
<g id="Node000008" class="node">
<title>Node8</title>
<g id="a_Node000008"><a xlink:href="ad7175__8__regs_8h.html" target="_top" xlink:title="AD7175_8 Registers Definitions.">
<polygon fill="white" stroke="#666666" points="878,-30 768,-30 768,0 878,0 878,-30"/>
<text text-anchor="start" x="776" y="-18" font-family="Helvetica,sans-Serif" font-size="10.00">drivers/adc/ad717x</text>
<text text-anchor="middle" x="823" y="-7" font-family="Helvetica,sans-Serif" font-size="10.00">/ad7175_8_regs.h</text>
</a>
</g>
</g>
<!-- Node1&#45;&gt;Node8 -->
<g id="edge7_Node000001_Node000008" class="edge">
<title>Node1&#45;&gt;Node8</title>
<g id="a_edge7_Node000001_Node000008"><a xlink:title=" ">
<path fill="none" stroke="#63b8ff" d="M682.83,-62.72C713.59,-52.47 752.1,-39.63 780.96,-30.01"/>
<polygon fill="#63b8ff" stroke="#63b8ff" points="681.52,-59.47 673.14,-65.95 683.73,-66.11 681.52,-59.47"/>
</a>
</g>
</g>
<!-- Node9 -->
<g id="Node000009" class="node">
<title>Node9</title>
<g id="a_Node000009"><a xlink:href="ad7176__2__regs_8h.html" target="_top" xlink:title="AD7176_2 Registers Definitions.">
<polygon fill="white" stroke="#666666" points="1006,-30 896,-30 896,0 1006,0 1006,-30"/>
<text text-anchor="start" x="904" y="-18" font-family="Helvetica,sans-Serif" font-size="10.00">drivers/adc/ad717x</text>
<text text-anchor="middle" x="951" y="-7" font-family="Helvetica,sans-Serif" font-size="10.00">/ad7176_2_regs.h</text>
</a>
</g>
</g>
<!-- Node1&#45;&gt;Node9 -->
<g id="edge8_Node000001_Node000009" class="edge">
<title>Node1&#45;&gt;Node9</title>
<g id="a_edge8_Node000001_Node000009"><a xlink:title=" ">
<path fill="none" stroke="#63b8ff" d="M696.05,-67.71C747.84,-57.83 822.15,-43.42 887,-30 889.9,-29.4 892.86,-28.78 895.86,-28.14"/>
<polygon fill="#63b8ff" stroke="#63b8ff" points="695.17,-64.32 686,-69.63 696.48,-71.19 695.17,-64.32"/>
</a>
</g>
</g>
<!-- Node10 -->
<g id="Node000010" class="node">
<title>Node10</title>
<g id="a_Node000010"><a xlink:href="ad7177__2__regs_8h.html" target="_top" xlink:title="AD7177_2 Registers Definitions.">
<polygon fill="white" stroke="#666666" points="1134,-30 1024,-30 1024,0 1134,0 1134,-30"/>
<text text-anchor="start" x="1032" y="-18" font-family="Helvetica,sans-Serif" font-size="10.00">drivers/adc/ad717x</text>
<text text-anchor="middle" x="1079" y="-7" font-family="Helvetica,sans-Serif" font-size="10.00">/ad7177_2_regs.h</text>
</a>
</g>
</g>
<!-- Node1&#45;&gt;Node10 -->
<g id="edge9_Node000001_Node000010" class="edge">
<title>Node1&#45;&gt;Node10</title>
<g id="a_edge9_Node000001_Node000010"><a xlink:title=" ">
<path fill="none" stroke="#63b8ff" d="M696.21,-73.24C772.82,-64.89 903.6,-49.4 1015,-30 1017.91,-29.49 1020.9,-28.94 1023.9,-28.37"/>
<polygon fill="#63b8ff" stroke="#63b8ff" points="695.8,-69.76 686.23,-74.32 696.55,-76.72 695.8,-69.76"/>
</a>
</g>
</g>
<!-- Node11 -->
<g id="Node000011" class="node">
<title>Node11</title>
<g id="a_Node000011"><a xlink:href="ad717x_8c.html" target="_top" xlink:title="AD717X implementation file. Devices: AD7172&#45;2, AD7172&#45;4, AD7173&#45;8, AD7175&#45;2, AD7175&#45;8,...">
<polygon fill="white" stroke="#666666" points="1262,-30 1152,-30 1152,0 1262,0 1262,-30"/>
<text text-anchor="start" x="1160" y="-18" font-family="Helvetica,sans-Serif" font-size="10.00">drivers/adc/ad717x</text>
<text text-anchor="middle" x="1207" y="-7" font-family="Helvetica,sans-Serif" font-size="10.00">/ad717x.c</text>
</a>
</g>
</g>
<!-- Node1&#45;&gt;Node11 -->
<g id="edge10_Node000001_Node000011" class="edge">
<title>Node1&#45;&gt;Node11</title>
<g id="a_edge10_Node000001_Node000011"><a xlink:title=" ">
<path fill="none" stroke="#63b8ff" d="M696.21,-76.11C793.81,-69.72 983.45,-55.15 1143,-30 1145.92,-29.54 1148.91,-29.03 1151.92,-28.48"/>
<polygon fill="#63b8ff" stroke="#63b8ff" points="695.96,-72.61 686.2,-76.75 696.41,-79.6 695.96,-72.61"/>
</a>
</g>
</g>
</g>
</svg>

<g id="navigator" transform="translate(0 0)" fill="#404254">
  <rect fill="#f2f5e9" fill-opacity="0.5" stroke="#606060" stroke-width=".5" x="0" y="0" width="60" height="60"/>
  <use id="zoomplus" xlink:href="#zoomPlus" x="17" y="9" onmousedown="handleZoom(evt,'in')"/>
  <use id="zoomminus" xlink:href="#zoomMin" x="42" y="9" onmousedown="handleZoom(evt,'out')"/>
  <use id="reset" xlink:href="#resetDef" x="30" y="36" onmousedown="handleReset()"/>
   <use id="arrowup" xlink:href="#arrowUp" x="0" y="0" onmousedown="handlePan(0,-1)"/>
  <use id="arrowright" xlink:href="#arrowRight" x="0" y="0" onmousedown="handlePan(1,0)"/>
  <use id="arrowdown" xlink:href="#arrowDown" x="0" y="0" onmousedown="handlePan(0,1)"/>
  <use id="arrowleft" xlink:href="#arrowLeft" x="0" y="0" onmousedown="handlePan(-1,0)"/>
</g>
<svg viewBox="0 0 15 15" width="100%" height="30px" preserveAspectRatio="xMaxYMin meet">
 <g id="arrow_out" transform="scale(0.3 0.3)">
  <a xlink:href="ad717x_8h__dep__incl_org.svg" target="_base">
   <rect id="button" ry="5" rx="5" y="6" x="6" height="38" width="38"
        fill="#f2f5e9" fill-opacity="0.5" stroke="#606060" stroke-width="1.0"/>
   <path id="arrow"
     d="M 11.500037,31.436501 C 11.940474,20.09759 22.043105,11.32322 32.158766,21.979434 L 37.068811,17.246167 C 37.068811,17.246167 37.088388,32 37.088388,32 L 22.160133,31.978069 C 22.160133,31.978069 26.997745,27.140456 26.997745,27.140456 C 18.528582,18.264221 13.291696,25.230495 11.500037,31.436501 z"
     style="fill:#404040;"/>
  </a>
 </g>
</svg>

<style type='text/css'>
<![CDATA[
[data-mouse-over-selected='false'] { opacity: 0.7; }
[data-mouse-over-selected='true']  { opacity: 1.0; }
]]>
</style>
<script type="application/ecmascript"><![CDATA[
document.addEventListener('DOMContentLoaded', (event) => {
  highlightEdges();
  highlightAdjacentNodes();
});
]]></script>
</svg>
