<?xml version="1.0" encoding="UTF-8" standalone="no"?>
<!DOCTYPE svg PUBLIC "-//W3C//DTD SVG 1.1//EN"
 "http://www.w3.org/Graphics/SVG/1.1/DTD/svg11.dtd">
<!-- Generated by graphviz version 2.43.0 (0)
 -->
<!-- Title: drivers/adc/ad717x/ad717x.h Pages: 1 -->
<svg width="1142pt" height="104pt"
 viewBox="0.00 0.00 1142.00 104.00" xmlns="http://www.w3.org/2000/svg" xmlns:xlink="http://www.w3.org/1999/xlink">
<g id="graph0" class="graph" transform="scale(1 1) rotate(0) translate(4 100)">
<title>drivers/adc/ad717x/ad717x.h</title>
<!-- Node1 -->
<g id="Node000001" class="node">
<title>Node1</title>
<g id="a_Node000001"><a xlink:title="AD717X header file. Devices: AD7172&#45;2, AD7172&#45;4, AD7173&#45;8, AD7175&#45;2, AD7175&#45;8, AD7176&#45;2,...">
<polygon fill="#999999" stroke="#666666" points="622,-96 512,-96 512,-66 622,-66 622,-96"/>
<text text-anchor="start" x="520" y="-84" font-family="Helvetica,sans-Serif" font-size="10.00">drivers/adc/ad717x</text>
<text text-anchor="middle" x="567" y="-73" font-family="Helvetica,sans-Serif" font-size="10.00">/ad717x.h</text>
</a>
</g>
</g>
<!-- Node2 -->
<g id="Node000002" class="node">
<title>Node2</title>
<g id="a_Node000002"><a xlink:href="ad411x__regs_8h.html" target="_top" xlink:title="ad4111 Registers Definitions.">
<polygon fill="white" stroke="#666666" points="110,-30 0,-30 0,0 110,0 110,-30"/>
<text text-anchor="start" x="8" y="-18" font-family="Helvetica,sans-Serif" font-size="10.00">drivers/adc/ad717x</text>
<text text-anchor="middle" x="55" y="-7" font-family="Helvetica,sans-Serif" font-size="10.00">/ad411x_regs.h</text>
</a>
</g>
</g>
<!-- Node1&#45;&gt;Node2 -->
<g id="edge1_Node000001_Node000002" class="edge">
<title>Node1&#45;&gt;Node2</title>
<g id="a_edge1_Node000001_Node000002"><a xlink:title=" ">
<path fill="none" stroke="#63b8ff" d="M501.88,-74.88C414.43,-67.5 254.37,-52.3 119,-30 116.08,-29.52 113.1,-28.99 110.09,-28.43"/>
<polygon fill="#63b8ff" stroke="#63b8ff" points="501.66,-78.37 511.92,-75.71 502.25,-71.39 501.66,-78.37"/>
</a>
</g>
</g>
<!-- Node3 -->
<g id="Node000003" class="node">
<title>Node3</title>
<g id="a_Node000003"><a xlink:href="ad7172__2__regs_8h.html" target="_top" xlink:title="AD7172_2 Registers Definitions.">
<polygon fill="white" stroke="#666666" points="238,-30 128,-30 128,0 238,0 238,-30"/>
<text text-anchor="start" x="136" y="-18" font-family="Helvetica,sans-Serif" font-size="10.00">drivers/adc/ad717x</text>
<text text-anchor="middle" x="183" y="-7" font-family="Helvetica,sans-Serif" font-size="10.00">/ad7172_2_regs.h</text>
</a>
</g>
</g>
<!-- Node1&#45;&gt;Node3 -->
<g id="edge2_Node000001_Node000003" class="edge">
<title>Node1&#45;&gt;Node3</title>
<g id="a_edge2_Node000001_Node000003"><a xlink:title=" ">
<path fill="none" stroke="#63b8ff" d="M501.83,-70.99C437.03,-61.76 334.87,-46.46 247,-30 244.09,-29.46 241.12,-28.88 238.11,-28.28"/>
<polygon fill="#63b8ff" stroke="#63b8ff" points="501.51,-74.48 511.9,-72.42 502.49,-67.55 501.51,-74.48"/>
</a>
</g>
</g>
<!-- Node4 -->
<g id="Node000004" class="node">
<title>Node4</title>
<g id="a_Node000004"><a xlink:href="ad7172__4__regs_8h.html" target="_top" xlink:title="AD7172_4 Registers Definitions.">
<polygon fill="white" stroke="#666666" points="366,-30 256,-30 256,0 366,0 366,-30"/>
<text text-anchor="start" x="264" y="-18" font-family="Helvetica,sans-Serif" font-size="10.00">drivers/adc/ad717x</text>
<text text-anchor="middle" x="311" y="-7" font-family="Helvetica,sans-Serif" font-size="10.00">/ad7172_4_regs.h</text>
</a>
</g>
</g>
<!-- Node1&#45;&gt;Node4 -->
<g id="edge3_Node000001_Node000004" class="edge">
<title>Node1&#45;&gt;Node4</title>
<g id="a_edge3_Node000001_Node000004"><a xlink:title=" ">
<path fill="none" stroke="#63b8ff" d="M501.92,-63.73C459.96,-53.24 405.98,-39.75 366.13,-29.78"/>
<polygon fill="#63b8ff" stroke="#63b8ff" points="501.22,-67.16 511.77,-66.19 502.91,-60.37 501.22,-67.16"/>
</a>
</g>
</g>
<!-- Node5 -->
<g id="Node000005" class="node">
<title>Node5</title>
<g id="a_Node000005"><a xlink:href="ad7173__8__regs_8h.html" target="_top" xlink:title="AD7173_8 Registers Definitions.">
<polygon fill="white" stroke="#666666" points="494,-30 384,-30 384,0 494,0 494,-30"/>
<text text-anchor="start" x="392" y="-18" font-family="Helvetica,sans-Serif" font-size="10.00">drivers/adc/ad717x</text>
<text text-anchor="middle" x="439" y="-7" font-family="Helvetica,sans-Serif" font-size="10.00">/ad7173_8_regs.h</text>
</a>
</g>
</g>
<!-- Node1&#45;&gt;Node5 -->
<g id="edge4_Node000001_Node000005" class="edge">
<title>Node1&#45;&gt;Node5</title>
<g id="a_edge4_Node000001_Node000005"><a xlink:title=" ">
<path fill="none" stroke="#63b8ff" d="M529.76,-61.38C509.73,-51.36 485.43,-39.22 467.02,-30.01"/>
<polygon fill="#63b8ff" stroke="#63b8ff" points="528.4,-64.61 538.91,-65.95 531.53,-58.35 528.4,-64.61"/>
</a>
</g>
</g>
<!-- Node6 -->
<g id="Node000006" class="node">
<title>Node6</title>
<g id="a_Node000006"><a xlink:href="ad7175__2__regs_8h.html" target="_top" xlink:title="AD7175_2 Registers Definitions.">
<polygon fill="white" stroke="#666666" points="622,-30 512,-30 512,0 622,0 622,-30"/>
<text text-anchor="start" x="520" y="-18" font-family="Helvetica,sans-Serif" font-size="10.00">drivers/adc/ad717x</text>
<text text-anchor="middle" x="567" y="-7" font-family="Helvetica,sans-Serif" font-size="10.00">/ad7175_2_regs.h</text>
</a>
</g>
</g>
<!-- Node1&#45;&gt;Node6 -->
<g id="edge5_Node000001_Node000006" class="edge">
<title>Node1&#45;&gt;Node6</title>
<g id="a_edge5_Node000001_Node000006"><a xlink:title=" ">
<path fill="none" stroke="#63b8ff" d="M567,-55.54C567,-46.96 567,-37.61 567,-30.16"/>
<polygon fill="#63b8ff" stroke="#63b8ff" points="563.5,-55.8 567,-65.8 570.5,-55.8 563.5,-55.8"/>
</a>
</g>
</g>
<!-- Node7 -->
<g id="Node000007" class="node">
<title>Node7</title>
<g id="a_Node000007"><a xlink:href="ad7175__8__regs_8h.html" target="_top" xlink:title="AD7175_8 Registers Definitions.">
<polygon fill="white" stroke="#666666" points="750,-30 640,-30 640,0 750,0 750,-30"/>
<text text-anchor="start" x="648" y="-18" font-family="Helvetica,sans-Serif" font-size="10.00">drivers/adc/ad717x</text>
<text text-anchor="middle" x="695" y="-7" font-family="Helvetica,sans-Serif" font-size="10.00">/ad7175_8_regs.h</text>
</a>
</g>
</g>
<!-- Node1&#45;&gt;Node7 -->
<g id="edge6_Node000001_Node000007" class="edge">
<title>Node1&#45;&gt;Node7</title>
<g id="a_edge6_Node000001_Node000007"><a xlink:title=" ">
<path fill="none" stroke="#63b8ff" d="M604.24,-61.38C624.27,-51.36 648.57,-39.22 666.98,-30.01"/>
<polygon fill="#63b8ff" stroke="#63b8ff" points="602.47,-58.35 595.09,-65.95 605.6,-64.61 602.47,-58.35"/>
</a>
</g>
</g>
<!-- Node8 -->
<g id="Node000008" class="node">
<title>Node8</title>
<g id="a_Node000008"><a xlink:href="ad7176__2__regs_8h.html" target="_top" xlink:title="AD7176_2 Registers Definitions.">
<polygon fill="white" stroke="#666666" points="878,-30 768,-30 768,0 878,0 878,-30"/>
<text text-anchor="start" x="776" y="-18" font-family="Helvetica,sans-Serif" font-size="10.00">drivers/adc/ad717x</text>
<text text-anchor="middle" x="823" y="-7" font-family="Helvetica,sans-Serif" font-size="10.00">/ad7176_2_regs.h</text>
</a>
</g>
</g>
<!-- Node1&#45;&gt;Node8 -->
<g id="edge7_Node000001_Node000008" class="edge">
<title>Node1&#45;&gt;Node8</title>
<g id="a_edge7_Node000001_Node000008"><a xlink:title=" ">
<path fill="none" stroke="#63b8ff" d="M632.08,-63.73C674.04,-53.24 728.02,-39.75 767.87,-29.78"/>
<polygon fill="#63b8ff" stroke="#63b8ff" points="631.09,-60.37 622.23,-66.19 632.78,-67.16 631.09,-60.37"/>
</a>
</g>
</g>
<!-- Node9 -->
<g id="Node000009" class="node">
<title>Node9</title>
<g id="a_Node000009"><a xlink:href="ad7177__2__regs_8h.html" target="_top" xlink:title=" ">
<polygon fill="white" stroke="#666666" points="1006,-30 896,-30 896,0 1006,0 1006,-30"/>
<text text-anchor="start" x="904" y="-18" font-family="Helvetica,sans-Serif" font-size="10.00">drivers/adc/ad717x</text>
<text text-anchor="middle" x="951" y="-7" font-family="Helvetica,sans-Serif" font-size="10.00">/ad7177_2_regs.h</text>
</a>
</g>
</g>
<!-- Node1&#45;&gt;Node9 -->
<g id="edge8_Node000001_Node000009" class="edge">
<title>Node1&#45;&gt;Node9</title>
<g id="a_edge8_Node000001_Node000009"><a xlink:title=" ">
<path fill="none" stroke="#63b8ff" d="M632.17,-70.99C696.97,-61.76 799.13,-46.46 887,-30 889.91,-29.46 892.88,-28.88 895.89,-28.28"/>
<polygon fill="#63b8ff" stroke="#63b8ff" points="631.51,-67.55 622.1,-72.42 632.49,-74.48 631.51,-67.55"/>
</a>
</g>
</g>
<!-- Node10 -->
<g id="Node000010" class="node">
<title>Node10</title>
<g id="a_Node000010"><a xlink:href="ad717x_8c.html" target="_top" xlink:title="AD717X implementation file. Devices: AD7172&#45;2, AD7172&#45;4, AD7173&#45;8, AD7175&#45;2, AD7175&#45;8,...">
<polygon fill="white" stroke="#666666" points="1134,-30 1024,-30 1024,0 1134,0 1134,-30"/>
<text text-anchor="start" x="1032" y="-18" font-family="Helvetica,sans-Serif" font-size="10.00">drivers/adc/ad717x</text>
<text text-anchor="middle" x="1079" y="-7" font-family="Helvetica,sans-Serif" font-size="10.00">/ad717x.c</text>
</a>
</g>
</g>
<!-- Node1&#45;&gt;Node10 -->
<g id="edge9_Node000001_Node000010" class="edge">
<title>Node1&#45;&gt;Node10</title>
<g id="a_edge9_Node000001_Node000010"><a xlink:title=" ">
<path fill="none" stroke="#63b8ff" d="M632.12,-74.88C719.57,-67.5 879.63,-52.3 1015,-30 1017.92,-29.52 1020.9,-28.99 1023.91,-28.43"/>
<polygon fill="#63b8ff" stroke="#63b8ff" points="631.75,-71.39 622.08,-75.71 632.34,-78.37 631.75,-71.39"/>
</a>
</g>
</g>
</g>
</svg>
