<?xml version="1.0" encoding="UTF-8" standalone="no"?>
<!DOCTYPE svg PUBLIC "-//W3C//DTD SVG 1.1//EN"
 "http://www.w3.org/Graphics/SVG/1.1/DTD/svg11.dtd">
<!-- Generated by graphviz version 2.43.0 (0)
 -->
<!-- Title: drivers/adc/ad713x/ad713x.c Pages: 1 -->
<svg width="542pt" height="203pt"
 viewBox="0.00 0.00 542.00 203.00" xmlns="http://www.w3.org/2000/svg" xmlns:xlink="http://www.w3.org/1999/xlink">
<g id="graph0" class="graph" transform="scale(1 1) rotate(0) translate(4 199)">
<title>drivers/adc/ad713x/ad713x.c</title>
<!-- Node1 -->
<g id="Node000001" class="node">
<title>Node1</title>
<g id="a_Node000001"><a xlink:title="Implementation of ad713x Driver.">
<polygon fill="#999999" stroke="#666666" points="253.5,-195 143.5,-195 143.5,-165 253.5,-165 253.5,-195"/>
<text text-anchor="start" x="151.5" y="-183" font-family="Helvetica,sans-Serif" font-size="10.00">drivers/adc/ad713x</text>
<text text-anchor="middle" x="198.5" y="-172" font-family="Helvetica,sans-Serif" font-size="10.00">/ad713x.c</text>
</a>
</g>
</g>
<!-- Node2 -->
<g id="Node000002" class="node">
<title>Node2</title>
<g id="a_Node000002"><a xlink:title=" ">
<polygon fill="#e0e0e0" stroke="#999999" points="53,-19 0,-19 0,0 53,0 53,-19"/>
<text text-anchor="middle" x="26.5" y="-7" font-family="Helvetica,sans-Serif" font-size="10.00">stdlib.h</text>
</a>
</g>
</g>
<!-- Node1&#45;&gt;Node2 -->
<g id="edge1_Node000001_Node000002" class="edge">
<title>Node1&#45;&gt;Node2</title>
<g id="a_edge1_Node000001_Node000002"><a xlink:title=" ">
<path fill="none" stroke="#63b8ff" d="M143.27,-169.99C99.19,-161.55 42.57,-147.48 28.5,-129 6.35,-99.91 13.99,-54.11 20.73,-28.81"/>
<polygon fill="#63b8ff" stroke="#63b8ff" points="24.14,-29.63 23.57,-19.05 17.42,-27.67 24.14,-29.63"/>
</a>
</g>
</g>
<!-- Node3 -->
<g id="Node000003" class="node">
<title>Node3</title>
<g id="a_Node000003"><a xlink:href="ad713x_8h.html" target="_top" xlink:title="Header file for the ad713x Driver.">
<polygon fill="white" stroke="#666666" points="229.5,-129 167.5,-129 167.5,-110 229.5,-110 229.5,-129"/>
<text text-anchor="middle" x="198.5" y="-117" font-family="Helvetica,sans-Serif" font-size="10.00">ad713x.h</text>
</a>
</g>
</g>
<!-- Node1&#45;&gt;Node3 -->
<g id="edge2_Node000001_Node000003" class="edge">
<title>Node1&#45;&gt;Node3</title>
<g id="a_edge2_Node000001_Node000003"><a xlink:title=" ">
<path fill="none" stroke="#63b8ff" d="M198.5,-164.84C198.5,-157.21 198.5,-147.7 198.5,-139.45"/>
<polygon fill="#63b8ff" stroke="#63b8ff" points="202,-139.27 198.5,-129.27 195,-139.27 202,-139.27"/>
</a>
</g>
</g>
<!-- Node10 -->
<g id="Node000010" class="node">
<title>Node10</title>
<g id="a_Node000010"><a xlink:href="no__os__delay_8h.html" target="_top" xlink:title="Header file of Delay functions.">
<polygon fill="white" stroke="#666666" points="391,-129 306,-129 306,-110 391,-110 391,-129"/>
<text text-anchor="middle" x="348.5" y="-117" font-family="Helvetica,sans-Serif" font-size="10.00">no_os_delay.h</text>
</a>
</g>
</g>
<!-- Node1&#45;&gt;Node10 -->
<g id="edge13_Node000001_Node000010" class="edge">
<title>Node1&#45;&gt;Node10</title>
<g id="a_edge13_Node000001_Node000010"><a xlink:title=" ">
<path fill="none" stroke="#63b8ff" d="M234.43,-164.99C259.57,-155.18 292.83,-142.21 316.95,-132.81"/>
<polygon fill="#63b8ff" stroke="#63b8ff" points="318.3,-136.03 326.35,-129.14 315.76,-129.51 318.3,-136.03"/>
</a>
</g>
</g>
<!-- Node11 -->
<g id="Node000011" class="node">
<title>Node11</title>
<g id="a_Node000011"><a xlink:href="no__os__error_8h.html" target="_top" xlink:title="Error codes definition.">
<polygon fill="white" stroke="#666666" points="520.5,-129 438.5,-129 438.5,-110 520.5,-110 520.5,-129"/>
<text text-anchor="middle" x="479.5" y="-117" font-family="Helvetica,sans-Serif" font-size="10.00">no_os_error.h</text>
</a>
</g>
</g>
<!-- Node1&#45;&gt;Node11 -->
<g id="edge15_Node000001_Node000011" class="edge">
<title>Node1&#45;&gt;Node11</title>
<g id="a_edge15_Node000001_Node000011"><a xlink:title=" ">
<path fill="none" stroke="#63b8ff" d="M253.68,-167.51C304.52,-156.93 379.35,-141.35 428.74,-131.07"/>
<polygon fill="#63b8ff" stroke="#63b8ff" points="429.49,-134.49 438.57,-129.02 428.06,-127.63 429.49,-134.49"/>
</a>
</g>
</g>
<!-- Node13 -->
<g id="Node000013" class="node">
<title>Node13</title>
<g id="a_Node000013"><a xlink:href="no__os__alloc_8h.html" target="_top" xlink:title=" ">
<polygon fill="white" stroke="#666666" points="121,-129 38,-129 38,-110 121,-110 121,-129"/>
<text text-anchor="middle" x="79.5" y="-117" font-family="Helvetica,sans-Serif" font-size="10.00">no_os_alloc.h</text>
</a>
</g>
</g>
<!-- Node1&#45;&gt;Node13 -->
<g id="edge17_Node000001_Node000013" class="edge">
<title>Node1&#45;&gt;Node13</title>
<g id="a_edge17_Node000001_Node000013"><a xlink:title=" ">
<path fill="none" stroke="#63b8ff" d="M170,-164.99C150.59,-155.45 125.07,-142.9 106.08,-133.57"/>
<polygon fill="#63b8ff" stroke="#63b8ff" points="107.59,-130.41 97.07,-129.14 104.5,-136.69 107.59,-130.41"/>
</a>
</g>
</g>
<!-- Node4 -->
<g id="Node000004" class="node">
<title>Node4</title>
<g id="a_Node000004"><a xlink:title=" ">
<polygon fill="#e0e0e0" stroke="#999999" points="196.5,-19 134.5,-19 134.5,0 196.5,0 196.5,-19"/>
<text text-anchor="middle" x="165.5" y="-7" font-family="Helvetica,sans-Serif" font-size="10.00">stdbool.h</text>
</a>
</g>
</g>
<!-- Node3&#45;&gt;Node4 -->
<g id="edge3_Node000003_Node000004" class="edge">
<title>Node3&#45;&gt;Node4</title>
<g id="a_edge3_Node000003_Node000004"><a xlink:title=" ">
<path fill="none" stroke="#63b8ff" d="M184.43,-109.89C173.15,-102.1 158.16,-89.48 151.5,-74 145.16,-59.27 150.17,-41.34 155.88,-28.29"/>
<polygon fill="#63b8ff" stroke="#63b8ff" points="159.16,-29.55 160.41,-19.03 152.87,-26.48 159.16,-29.55"/>
</a>
</g>
</g>
<!-- Node5 -->
<g id="Node000005" class="node">
<title>Node5</title>
<g id="a_Node000005"><a xlink:title=" ">
<polygon fill="#e0e0e0" stroke="#999999" points="104.5,-74 54.5,-74 54.5,-55 104.5,-55 104.5,-74"/>
<text text-anchor="middle" x="79.5" y="-62" font-family="Helvetica,sans-Serif" font-size="10.00">stdio.h</text>
</a>
</g>
</g>
<!-- Node3&#45;&gt;Node5 -->
<g id="edge4_Node000003_Node000005" class="edge">
<title>Node3&#45;&gt;Node5</title>
<g id="a_edge4_Node000003_Node000005"><a xlink:title=" ">
<path fill="none" stroke="#63b8ff" d="M179.38,-109.98C160.15,-101.42 130.27,-88.11 108.19,-78.28"/>
<polygon fill="#63b8ff" stroke="#63b8ff" points="109.53,-75.04 98.97,-74.17 106.68,-81.44 109.53,-75.04"/>
</a>
</g>
</g>
<!-- Node6 -->
<g id="Node000006" class="node">
<title>Node6</title>
<g id="a_Node000006"><a xlink:href="no__os__spi_8h.html" target="_top" xlink:title="Header file of SPI Interface.">
<polygon fill="white" stroke="#666666" points="328.5,-74 254.5,-74 254.5,-55 328.5,-55 328.5,-74"/>
<text text-anchor="middle" x="291.5" y="-62" font-family="Helvetica,sans-Serif" font-size="10.00">no_os_spi.h</text>
</a>
</g>
</g>
<!-- Node3&#45;&gt;Node6 -->
<g id="edge5_Node000003_Node000006" class="edge">
<title>Node3&#45;&gt;Node6</title>
<g id="a_edge5_Node000003_Node000006"><a xlink:title=" ">
<path fill="none" stroke="#63b8ff" d="M213.44,-109.98C228,-101.69 250.37,-88.94 267.43,-79.22"/>
<polygon fill="#63b8ff" stroke="#63b8ff" points="269.33,-82.16 276.29,-74.17 265.86,-76.08 269.33,-82.16"/>
</a>
</g>
</g>
<!-- Node8 -->
<g id="Node000008" class="node">
<title>Node8</title>
<g id="a_Node000008"><a xlink:href="no__os__gpio_8h.html" target="_top" xlink:title="Header file of GPIO Interface.">
<polygon fill="white" stroke="#666666" points="426.5,-74 346.5,-74 346.5,-55 426.5,-55 426.5,-74"/>
<text text-anchor="middle" x="386.5" y="-62" font-family="Helvetica,sans-Serif" font-size="10.00">no_os_gpio.h</text>
</a>
</g>
</g>
<!-- Node3&#45;&gt;Node8 -->
<g id="edge7_Node000003_Node000008" class="edge">
<title>Node3&#45;&gt;Node8</title>
<g id="a_edge7_Node000003_Node000008"><a xlink:title=" ">
<path fill="none" stroke="#63b8ff" d="M228.71,-109.98C260.54,-101.01 310.86,-86.82 346.1,-76.89"/>
<polygon fill="#63b8ff" stroke="#63b8ff" points="347.38,-80.16 356.06,-74.08 345.48,-73.43 347.38,-80.16"/>
</a>
</g>
</g>
<!-- Node9 -->
<g id="Node000009" class="node">
<title>Node9</title>
<g id="a_Node000009"><a xlink:href="no__os__util_8h.html" target="_top" xlink:title="Header file of utility functions.">
<polygon fill="white" stroke="#666666" points="236,-74 161,-74 161,-55 236,-55 236,-74"/>
<text text-anchor="middle" x="198.5" y="-62" font-family="Helvetica,sans-Serif" font-size="10.00">no_os_util.h</text>
</a>
</g>
</g>
<!-- Node3&#45;&gt;Node9 -->
<g id="edge9_Node000003_Node000009" class="edge">
<title>Node3&#45;&gt;Node9</title>
<g id="a_edge9_Node000003_Node000009"><a xlink:title=" ">
<path fill="none" stroke="#63b8ff" d="M198.5,-109.75C198.5,-102.8 198.5,-92.85 198.5,-84.13"/>
<polygon fill="#63b8ff" stroke="#63b8ff" points="202,-84.09 198.5,-74.09 195,-84.09 202,-84.09"/>
</a>
</g>
</g>
<!-- Node7 -->
<g id="Node000007" class="node">
<title>Node7</title>
<g id="a_Node000007"><a xlink:title=" ">
<polygon fill="#e0e0e0" stroke="#999999" points="365,-19 312,-19 312,0 365,0 365,-19"/>
<text text-anchor="middle" x="338.5" y="-7" font-family="Helvetica,sans-Serif" font-size="10.00">stdint.h</text>
</a>
</g>
</g>
<!-- Node6&#45;&gt;Node7 -->
<g id="edge6_Node000006_Node000007" class="edge">
<title>Node6&#45;&gt;Node7</title>
<g id="a_edge6_Node000006_Node000007"><a xlink:title=" ">
<path fill="none" stroke="#63b8ff" d="M299.26,-54.75C305.97,-47.18 315.84,-36.05 324.01,-26.84"/>
<polygon fill="#63b8ff" stroke="#63b8ff" points="326.87,-28.89 330.88,-19.09 321.63,-24.25 326.87,-28.89"/>
</a>
</g>
</g>
<!-- Node8&#45;&gt;Node7 -->
<g id="edge8_Node000008_Node000007" class="edge">
<title>Node8&#45;&gt;Node7</title>
<g id="a_edge8_Node000008_Node000007"><a xlink:title=" ">
<path fill="none" stroke="#63b8ff" d="M378.57,-54.75C371.65,-47.11 361.43,-35.82 353.05,-26.56"/>
<polygon fill="#63b8ff" stroke="#63b8ff" points="355.59,-24.15 346.28,-19.09 350.4,-28.85 355.59,-24.15"/>
</a>
</g>
</g>
<!-- Node9&#45;&gt;Node2 -->
<g id="edge11_Node000009_Node000002" class="edge">
<title>Node9&#45;&gt;Node2</title>
<g id="a_edge11_Node000009_Node000002"><a xlink:title=" ">
<path fill="none" stroke="#63b8ff" d="M170.87,-54.98C141.65,-45.98 95.41,-31.73 63.16,-21.8"/>
<polygon fill="#63b8ff" stroke="#63b8ff" points="63.8,-18.33 53.22,-18.73 61.74,-25.02 63.8,-18.33"/>
</a>
</g>
</g>
<!-- Node9&#45;&gt;Node4 -->
<g id="edge12_Node000009_Node000004" class="edge">
<title>Node9&#45;&gt;Node4</title>
<g id="a_edge12_Node000009_Node000004"><a xlink:title=" ">
<path fill="none" stroke="#63b8ff" d="M193.05,-54.75C188.49,-47.42 181.83,-36.73 176.21,-27.7"/>
<polygon fill="#63b8ff" stroke="#63b8ff" points="179.1,-25.73 170.85,-19.09 173.16,-29.43 179.1,-25.73"/>
</a>
</g>
</g>
<!-- Node9&#45;&gt;Node7 -->
<g id="edge10_Node000009_Node000007" class="edge">
<title>Node9&#45;&gt;Node7</title>
<g id="a_edge10_Node000009_Node000007"><a xlink:title=" ">
<path fill="none" stroke="#63b8ff" d="M220.99,-54.98C244.02,-46.27 280.04,-32.63 306.13,-22.75"/>
<polygon fill="#63b8ff" stroke="#63b8ff" points="307.48,-25.98 315.6,-19.17 305.01,-19.44 307.48,-25.98"/>
</a>
</g>
</g>
<!-- Node10&#45;&gt;Node7 -->
<g id="edge14_Node000010_Node000007" class="edge">
<title>Node10&#45;&gt;Node7</title>
<g id="a_edge14_Node000010_Node000007"><a xlink:title=" ">
<path fill="none" stroke="#63b8ff" d="M379.98,-109.98C411.2,-99.84 452.16,-80.97 435.5,-55 422.2,-34.27 396.55,-23.07 374.97,-17.09"/>
<polygon fill="#63b8ff" stroke="#63b8ff" points="375.64,-13.65 365.09,-14.63 373.95,-20.44 375.64,-13.65"/>
</a>
</g>
</g>
<!-- Node12 -->
<g id="Node000012" class="node">
<title>Node12</title>
<g id="a_Node000012"><a xlink:href="errno_8h.html" target="_top" xlink:title="Error macro definition for ARM Compiler.">
<polygon fill="white" stroke="#666666" points="534,-74 483,-74 483,-55 534,-55 534,-74"/>
<text text-anchor="middle" x="508.5" y="-62" font-family="Helvetica,sans-Serif" font-size="10.00">errno.h</text>
</a>
</g>
</g>
<!-- Node11&#45;&gt;Node12 -->
<g id="edge16_Node000011_Node000012" class="edge">
<title>Node11&#45;&gt;Node12</title>
<g id="a_edge16_Node000011_Node000012"><a xlink:title=" ">
<path fill="none" stroke="#63b8ff" d="M484.29,-109.75C488.26,-102.49 494.03,-91.95 498.93,-82.98"/>
<polygon fill="#63b8ff" stroke="#63b8ff" points="502.07,-84.54 503.8,-74.09 495.93,-81.18 502.07,-84.54"/>
</a>
</g>
</g>
<!-- Node13&#45;&gt;Node2 -->
<g id="edge19_Node000013_Node000002" class="edge">
<title>Node13&#45;&gt;Node2</title>
<g id="a_edge19_Node000013_Node000002"><a xlink:title=" ">
<path fill="none" stroke="#63b8ff" d="M71.44,-109.95C63.79,-101.43 52.48,-87.69 45.5,-74 38.22,-59.73 33.24,-42.2 30.21,-29.18"/>
<polygon fill="#63b8ff" stroke="#63b8ff" points="33.57,-28.13 28.04,-19.09 26.72,-29.6 33.57,-28.13"/>
</a>
</g>
</g>
<!-- Node13&#45;&gt;Node5 -->
<g id="edge18_Node000013_Node000005" class="edge">
<title>Node13&#45;&gt;Node5</title>
<g id="a_edge18_Node000013_Node000005"><a xlink:title=" ">
<path fill="none" stroke="#63b8ff" d="M79.5,-109.75C79.5,-102.8 79.5,-92.85 79.5,-84.13"/>
<polygon fill="#63b8ff" stroke="#63b8ff" points="83,-84.09 79.5,-74.09 76,-84.09 83,-84.09"/>
</a>
</g>
</g>
</g>
</svg>
