<?xml version="1.0" encoding="UTF-8" standalone="no"?>
<!DOCTYPE svg PUBLIC "-//W3C//DTD SVG 1.1//EN"
 "http://www.w3.org/Graphics/SVG/1.1/DTD/svg11.dtd">
<!-- Generated by graphviz version 2.43.0 (0)
 -->
<!-- Title: projects/ad738x_fmcz/src/examples/iio_example/iio_example.c Pages: 1 -->
<svg width="1051pt" height="324pt"
 viewBox="0.00 0.00 1051.19 324.00" xmlns="http://www.w3.org/2000/svg" xmlns:xlink="http://www.w3.org/1999/xlink">
<g id="graph0" class="graph" transform="scale(1 1) rotate(0) translate(4 320)">
<title>projects/ad738x_fmcz/src/examples/iio_example/iio_example.c</title>
<!-- Node1 -->
<g id="Node000001" class="node">
<title>Node1</title>
<g id="a_Node000001"><a xlink:title="IIO example header for eval&#45;ad738x project.">
<polygon fill="#999999" stroke="#666666" points="455.59,-316 307.59,-316 307.59,-275 455.59,-275 455.59,-316"/>
<text text-anchor="start" x="315.59" y="-304" font-family="Helvetica,sans-Serif" font-size="10.00">projects/ad738x_fmcz</text>
<text text-anchor="start" x="315.59" y="-293" font-family="Helvetica,sans-Serif" font-size="10.00">/src/examples/iio_example</text>
<text text-anchor="middle" x="381.59" y="-282" font-family="Helvetica,sans-Serif" font-size="10.00">/iio_example.c</text>
</a>
</g>
</g>
<!-- Node2 -->
<g id="Node000002" class="node">
<title>Node2</title>
<g id="a_Node000002"><a xlink:title=" ">
<polygon fill="#e0e0e0" stroke="#999999" points="51.59,-184 1.59,-184 1.59,-165 51.59,-165 51.59,-184"/>
<text text-anchor="middle" x="26.59" y="-172" font-family="Helvetica,sans-Serif" font-size="10.00">stdio.h</text>
</a>
</g>
</g>
<!-- Node1&#45;&gt;Node2 -->
<g id="edge1_Node000001_Node000002" class="edge">
<title>Node1&#45;&gt;Node2</title>
<g id="a_edge1_Node000001_Node000002"><a xlink:title=" ">
<path fill="none" stroke="#63b8ff" d="M307.59,-294.54C209.35,-292.84 43.8,-283.27 5.59,-239 -5.74,-225.88 3.29,-206.46 12.78,-192.56"/>
<polygon fill="#63b8ff" stroke="#63b8ff" points="15.73,-194.46 18.88,-184.34 10.11,-190.29 15.73,-194.46"/>
</a>
</g>
</g>
<!-- Node3 -->
<g id="Node000003" class="node">
<title>Node3</title>
<g id="a_Node000003"><a xlink:href="ad738x__fmcz_2src_2examples_2iio__example_2iio__example_8h.html" target="_top" xlink:title="IIO example header for eval&#45;ad738x project.">
<polygon fill="white" stroke="#666666" points="220.59,-239 134.59,-239 134.59,-220 220.59,-220 220.59,-239"/>
<text text-anchor="middle" x="177.59" y="-227" font-family="Helvetica,sans-Serif" font-size="10.00">iio_example.h</text>
</a>
</g>
</g>
<!-- Node1&#45;&gt;Node3 -->
<g id="edge2_Node000001_Node000003" class="edge">
<title>Node1&#45;&gt;Node3</title>
<g id="a_edge2_Node000001_Node000003"><a xlink:title=" ">
<path fill="none" stroke="#63b8ff" d="M319.27,-274.95C285,-264.2 243.64,-251.22 214.48,-242.07"/>
<polygon fill="#63b8ff" stroke="#63b8ff" points="215.3,-238.66 204.71,-239.01 213.2,-245.34 215.3,-238.66"/>
</a>
</g>
</g>
<!-- Node4 -->
<g id="Node000004" class="node">
<title>Node4</title>
<g id="a_Node000004"><a xlink:title=" ">
<polygon fill="#e0e0e0" stroke="#999999" points="334.09,-239 239.09,-239 239.09,-220 334.09,-220 334.09,-239"/>
<text text-anchor="middle" x="286.59" y="-227" font-family="Helvetica,sans-Serif" font-size="10.00">common_data.h</text>
</a>
</g>
</g>
<!-- Node1&#45;&gt;Node4 -->
<g id="edge3_Node000001_Node000004" class="edge">
<title>Node1&#45;&gt;Node4</title>
<g id="a_edge3_Node000001_Node000004"><a xlink:title=" ">
<path fill="none" stroke="#63b8ff" d="M352.57,-274.95C338.2,-265.27 321.17,-253.8 308.01,-244.93"/>
<polygon fill="#63b8ff" stroke="#63b8ff" points="309.84,-241.95 299.59,-239.26 305.93,-247.75 309.84,-241.95"/>
</a>
</g>
</g>
<!-- Node5 -->
<g id="Node000005" class="node">
<title>Node5</title>
<g id="a_Node000005"><a xlink:href="iio_8h.html" target="_top" xlink:title="Header file of iio.">
<polygon fill="white" stroke="#666666" points="582.59,-184 544.59,-184 544.59,-165 582.59,-165 582.59,-184"/>
<text text-anchor="middle" x="563.59" y="-172" font-family="Helvetica,sans-Serif" font-size="10.00">iio.h</text>
</a>
</g>
</g>
<!-- Node1&#45;&gt;Node5 -->
<g id="edge4_Node000001_Node000005" class="edge">
<title>Node1&#45;&gt;Node5</title>
<g id="a_edge4_Node000001_Node000005"><a xlink:title=" ">
<path fill="none" stroke="#63b8ff" d="M455.6,-276.01C479.42,-267.52 504.75,-255.54 524.59,-239 539.16,-226.85 549.83,-207.79 556.29,-193.72"/>
<polygon fill="#63b8ff" stroke="#63b8ff" points="559.68,-194.7 560.41,-184.13 553.25,-191.94 559.68,-194.7"/>
</a>
</g>
</g>
<!-- Node13 -->
<g id="Node000013" class="node">
<title>Node13</title>
<g id="a_Node000013"><a xlink:href="ad738x_8h.html" target="_top" xlink:title="Header file for AD738x Driver.">
<polygon fill="white" stroke="#666666" points="431.59,-129 369.59,-129 369.59,-110 431.59,-110 431.59,-129"/>
<text text-anchor="middle" x="400.59" y="-117" font-family="Helvetica,sans-Serif" font-size="10.00">ad738x.h</text>
</a>
</g>
</g>
<!-- Node1&#45;&gt;Node13 -->
<g id="edge17_Node000001_Node000013" class="edge">
<title>Node1&#45;&gt;Node13</title>
<g id="a_edge17_Node000001_Node000013"><a xlink:title=" ">
<path fill="none" stroke="#63b8ff" d="M383.73,-274.88C387.41,-241.17 394.89,-172.69 398.52,-139.45"/>
<polygon fill="#63b8ff" stroke="#63b8ff" points="402.02,-139.59 399.63,-129.27 395.07,-138.84 402.02,-139.59"/>
</a>
</g>
</g>
<!-- Node14 -->
<g id="Node000014" class="node">
<title>Node14</title>
<g id="a_Node000014"><a xlink:href="no__os__util_8h.html" target="_top" xlink:title="Header file of utility functions.">
<polygon fill="white" stroke="#666666" points="878.09,-74 803.09,-74 803.09,-55 878.09,-55 878.09,-74"/>
<text text-anchor="middle" x="840.59" y="-62" font-family="Helvetica,sans-Serif" font-size="10.00">no_os_util.h</text>
</a>
</g>
</g>
<!-- Node1&#45;&gt;Node14 -->
<g id="edge31_Node000001_Node000014" class="edge">
<title>Node1&#45;&gt;Node14</title>
<g id="a_edge31_Node000001_Node000014"><a xlink:title=" ">
<path fill="none" stroke="#63b8ff" d="M455.81,-290.99C590.8,-282.84 867.75,-257.36 923.59,-184 931.5,-173.61 941.53,-142.35 921.59,-110 912.39,-95.07 896.27,-84.78 880.83,-77.88"/>
<polygon fill="#63b8ff" stroke="#63b8ff" points="881.95,-74.56 871.37,-74.02 879.3,-81.04 881.95,-74.56"/>
</a>
</g>
</g>
<!-- Node17 -->
<g id="Node000017" class="node">
<title>Node17</title>
<g id="a_Node000017"><a xlink:href="iio__ad738x_8h.html" target="_top" xlink:title="Header file for AD738X IIO interface.">
<polygon fill="white" stroke="#666666" points="516.09,-239 437.09,-239 437.09,-220 516.09,-220 516.09,-239"/>
<text text-anchor="middle" x="476.59" y="-227" font-family="Helvetica,sans-Serif" font-size="10.00">iio_ad738x.h</text>
</a>
</g>
</g>
<!-- Node1&#45;&gt;Node17 -->
<g id="edge26_Node000001_Node000017" class="edge">
<title>Node1&#45;&gt;Node17</title>
<g id="a_edge26_Node000001_Node000017"><a xlink:title=" ">
<path fill="none" stroke="#63b8ff" d="M410.61,-274.95C424.97,-265.27 442.01,-253.8 455.17,-244.93"/>
<polygon fill="#63b8ff" stroke="#63b8ff" points="457.25,-247.75 463.58,-239.26 453.34,-241.95 457.25,-247.75"/>
</a>
</g>
</g>
<!-- Node18 -->
<g id="Node000018" class="node">
<title>Node18</title>
<g id="a_Node000018"><a xlink:href="no__os__gpio_8h.html" target="_top" xlink:title="Header file of GPIO Interface.">
<polygon fill="white" stroke="#666666" points="311.59,-129 231.59,-129 231.59,-110 311.59,-110 311.59,-129"/>
<text text-anchor="middle" x="271.59" y="-117" font-family="Helvetica,sans-Serif" font-size="10.00">no_os_gpio.h</text>
</a>
</g>
</g>
<!-- Node1&#45;&gt;Node18 -->
<g id="edge32_Node000001_Node000018" class="edge">
<title>Node1&#45;&gt;Node18</title>
<g id="a_edge32_Node000001_Node000018"><a xlink:title=" ">
<path fill="none" stroke="#63b8ff" d="M372.2,-274.8C364.71,-259.54 353.67,-238.04 342.59,-220 323.98,-189.72 299.33,-156.47 284.51,-137.1"/>
<polygon fill="#63b8ff" stroke="#63b8ff" points="287.15,-134.79 278.27,-129.01 281.61,-139.07 287.15,-134.79"/>
</a>
</g>
</g>
<!-- Node19 -->
<g id="Node000019" class="node">
<title>Node19</title>
<g id="a_Node000019"><a xlink:href="no__os__print__log_8h.html" target="_top" xlink:title="Print messages helpers.">
<polygon fill="white" stroke="#666666" points="116.59,-239 14.59,-239 14.59,-220 116.59,-220 116.59,-239"/>
<text text-anchor="middle" x="65.59" y="-227" font-family="Helvetica,sans-Serif" font-size="10.00">no_os_print_log.h</text>
</a>
</g>
</g>
<!-- Node1&#45;&gt;Node19 -->
<g id="edge34_Node000001_Node000019" class="edge">
<title>Node1&#45;&gt;Node19</title>
<g id="a_edge34_Node000001_Node000019"><a xlink:title=" ">
<path fill="none" stroke="#63b8ff" d="M307.5,-279.49C249.18,-267.68 169.38,-251.52 117.66,-241.05"/>
<polygon fill="#63b8ff" stroke="#63b8ff" points="118.2,-237.58 107.7,-239.03 116.81,-244.44 118.2,-237.58"/>
</a>
</g>
</g>
<!-- Node20 -->
<g id="Node000020" class="node">
<title>Node20</title>
<g id="a_Node000020"><a xlink:href="iio__app_8h.html" target="_top" xlink:title="Header file of iio_app.">
<polygon fill="white" stroke="#666666" points="716.09,-239 655.09,-239 655.09,-220 716.09,-220 716.09,-239"/>
<text text-anchor="middle" x="685.59" y="-227" font-family="Helvetica,sans-Serif" font-size="10.00">iio_app.h</text>
</a>
</g>
</g>
<!-- Node1&#45;&gt;Node20 -->
<g id="edge36_Node000001_Node000020" class="edge">
<title>Node1&#45;&gt;Node20</title>
<g id="a_edge36_Node000001_Node000020"><a xlink:title=" ">
<path fill="none" stroke="#63b8ff" d="M455.96,-278.84C515.4,-266.33 596.5,-249.25 644.72,-239.1"/>
<polygon fill="#63b8ff" stroke="#63b8ff" points="645.71,-242.47 654.78,-236.99 644.27,-235.62 645.71,-242.47"/>
</a>
</g>
</g>
<!-- Node6 -->
<g id="Node000006" class="node">
<title>Node6</title>
<g id="a_Node000006"><a xlink:href="iio__types_8h.html" target="_top" xlink:title="Header file for iio_types.">
<polygon fill="white" stroke="#666666" points="603.59,-129 533.59,-129 533.59,-110 603.59,-110 603.59,-129"/>
<text text-anchor="middle" x="568.59" y="-117" font-family="Helvetica,sans-Serif" font-size="10.00">iio_types.h</text>
</a>
</g>
</g>
<!-- Node5&#45;&gt;Node6 -->
<g id="edge5_Node000005_Node000006" class="edge">
<title>Node5&#45;&gt;Node6</title>
<g id="a_edge5_Node000005_Node000006"><a xlink:title=" ">
<path fill="none" stroke="#63b8ff" d="M564.41,-164.75C565.07,-157.8 566.01,-147.85 566.83,-139.13"/>
<polygon fill="#63b8ff" stroke="#63b8ff" points="570.32,-139.37 567.78,-129.09 563.35,-138.72 570.32,-139.37"/>
</a>
</g>
</g>
<!-- Node10 -->
<g id="Node000010" class="node">
<title>Node10</title>
<g id="a_Node000010"><a xlink:href="no__os__uart_8h.html" target="_top" xlink:title="Header file of UART interface.">
<polygon fill="white" stroke="#666666" points="844.09,-129 765.09,-129 765.09,-110 844.09,-110 844.09,-129"/>
<text text-anchor="middle" x="804.59" y="-117" font-family="Helvetica,sans-Serif" font-size="10.00">no_os_uart.h</text>
</a>
</g>
</g>
<!-- Node5&#45;&gt;Node10 -->
<g id="edge10_Node000005_Node000010" class="edge">
<title>Node5&#45;&gt;Node10</title>
<g id="a_edge10_Node000005_Node000010"><a xlink:title=" ">
<path fill="none" stroke="#63b8ff" d="M582.8,-167.42C585.74,-166.57 588.73,-165.73 591.59,-165 646.99,-150.83 711.34,-137.86 754.69,-129.63"/>
<polygon fill="#63b8ff" stroke="#63b8ff" points="755.52,-133.03 764.7,-127.74 754.22,-126.15 755.52,-133.03"/>
</a>
</g>
</g>
<!-- Node7 -->
<g id="Node000007" class="node">
<title>Node7</title>
<g id="a_Node000007"><a xlink:title=" ">
<polygon fill="#e0e0e0" stroke="#999999" points="1016.59,-19 954.59,-19 954.59,0 1016.59,0 1016.59,-19"/>
<text text-anchor="middle" x="985.59" y="-7" font-family="Helvetica,sans-Serif" font-size="10.00">stdbool.h</text>
</a>
</g>
</g>
<!-- Node6&#45;&gt;Node7 -->
<g id="edge6_Node000006_Node000007" class="edge">
<title>Node6&#45;&gt;Node7</title>
<g id="a_edge6_Node000006_Node000007"><a xlink:title=" ">
<path fill="none" stroke="#63b8ff" d="M603.82,-116.19C705.34,-109.38 992.14,-88.89 1005.59,-74 1017.16,-61.2 1008.43,-41.73 999.14,-27.73"/>
<polygon fill="#63b8ff" stroke="#63b8ff" points="1001.86,-25.5 993.17,-19.44 996.18,-29.6 1001.86,-25.5"/>
</a>
</g>
</g>
<!-- Node8 -->
<g id="Node000008" class="node">
<title>Node8</title>
<g id="a_Node000008"><a xlink:title=" ">
<polygon fill="#e0e0e0" stroke="#999999" points="687.09,-19 634.09,-19 634.09,0 687.09,0 687.09,-19"/>
<text text-anchor="middle" x="660.59" y="-7" font-family="Helvetica,sans-Serif" font-size="10.00">stdint.h</text>
</a>
</g>
</g>
<!-- Node6&#45;&gt;Node8 -->
<g id="edge7_Node000006_Node000008" class="edge">
<title>Node6&#45;&gt;Node8</title>
<g id="a_edge7_Node000006_Node000008"><a xlink:title=" ">
<path fill="none" stroke="#63b8ff" d="M591.12,-109.97C607.37,-102.72 628.62,-90.81 641.59,-74 651.58,-61.04 656.34,-42.89 658.59,-29.31"/>
<polygon fill="#63b8ff" stroke="#63b8ff" points="662.08,-29.57 659.95,-19.19 655.15,-28.64 662.08,-29.57"/>
</a>
</g>
</g>
<!-- Node9 -->
<g id="Node000009" class="node">
<title>Node9</title>
<g id="a_Node000009"><a xlink:href="no__os__circular__buffer_8h.html" target="_top" xlink:title="Circular buffer library header.">
<polygon fill="white" stroke="#666666" points="632.59,-74 504.59,-74 504.59,-55 632.59,-55 632.59,-74"/>
<text text-anchor="middle" x="568.59" y="-62" font-family="Helvetica,sans-Serif" font-size="10.00">no_os_circular_buffer.h</text>
</a>
</g>
</g>
<!-- Node6&#45;&gt;Node9 -->
<g id="edge8_Node000006_Node000009" class="edge">
<title>Node6&#45;&gt;Node9</title>
<g id="a_edge8_Node000006_Node000009"><a xlink:title=" ">
<path fill="none" stroke="#63b8ff" d="M568.59,-109.75C568.59,-102.8 568.59,-92.85 568.59,-84.13"/>
<polygon fill="#63b8ff" stroke="#63b8ff" points="572.09,-84.09 568.59,-74.09 565.09,-84.09 572.09,-84.09"/>
</a>
</g>
</g>
<!-- Node9&#45;&gt;Node8 -->
<g id="edge9_Node000009_Node000008" class="edge">
<title>Node9&#45;&gt;Node8</title>
<g id="a_edge9_Node000009_Node000008"><a xlink:title=" ">
<path fill="none" stroke="#63b8ff" d="M583.37,-54.98C597.77,-46.69 619.9,-33.94 636.78,-24.22"/>
<polygon fill="#63b8ff" stroke="#63b8ff" points="638.62,-27.19 645.54,-19.17 635.13,-21.13 638.62,-27.19"/>
</a>
</g>
</g>
<!-- Node10&#45;&gt;Node7 -->
<g id="edge12_Node000010_Node000007" class="edge">
<title>Node10&#45;&gt;Node7</title>
<g id="a_edge12_Node000010_Node000007"><a xlink:title=" ">
<path fill="none" stroke="#63b8ff" d="M844.23,-111.29C910.56,-99.18 1037.03,-75.88 1038.59,-74 1052.79,-56.85 1030.34,-37.18 1010.43,-24.33"/>
<polygon fill="#63b8ff" stroke="#63b8ff" points="1012.25,-21.34 1001.89,-19.11 1008.6,-27.31 1012.25,-21.34"/>
</a>
</g>
</g>
<!-- Node10&#45;&gt;Node8 -->
<g id="edge11_Node000010_Node000008" class="edge">
<title>Node10&#45;&gt;Node8</title>
<g id="a_edge11_Node000010_Node000008"><a xlink:title=" ">
<path fill="none" stroke="#63b8ff" d="M798.87,-109.71C789.89,-96.46 771.35,-71.2 750.59,-55 733.43,-41.61 711.59,-30.69 693.73,-23.03"/>
<polygon fill="#63b8ff" stroke="#63b8ff" points="694.85,-19.7 684.27,-19.1 692.17,-26.17 694.85,-19.7"/>
</a>
</g>
</g>
<!-- Node11 -->
<g id="Node000011" class="node">
<title>Node11</title>
<g id="a_Node000011"><a xlink:href="no__os__lf256fifo_8h.html" target="_top" xlink:title="SPSC lock&#45;free fifo of fixed size (256), specialized for UART.">
<polygon fill="white" stroke="#666666" points="996.59,-74 896.59,-74 896.59,-55 996.59,-55 996.59,-74"/>
<text text-anchor="middle" x="946.59" y="-62" font-family="Helvetica,sans-Serif" font-size="10.00">no_os_lf256fifo.h</text>
</a>
</g>
</g>
<!-- Node10&#45;&gt;Node11 -->
<g id="edge13_Node000010_Node000011" class="edge">
<title>Node10&#45;&gt;Node11</title>
<g id="a_edge13_Node000010_Node000011"><a xlink:title=" ">
<path fill="none" stroke="#63b8ff" d="M827.4,-109.98C850.76,-101.27 887.29,-87.63 913.76,-77.75"/>
<polygon fill="#63b8ff" stroke="#63b8ff" points="915.21,-80.95 923.36,-74.17 912.77,-74.39 915.21,-80.95"/>
</a>
</g>
</g>
<!-- Node11&#45;&gt;Node7 -->
<g id="edge16_Node000011_Node000007" class="edge">
<title>Node11&#45;&gt;Node7</title>
<g id="a_edge16_Node000011_Node000007"><a xlink:title=" ">
<path fill="none" stroke="#63b8ff" d="M953.03,-54.75C958.48,-47.34 966.45,-36.5 973.14,-27.41"/>
<polygon fill="#63b8ff" stroke="#63b8ff" points="976.16,-29.22 979.27,-19.09 970.52,-25.07 976.16,-29.22"/>
</a>
</g>
</g>
<!-- Node11&#45;&gt;Node8 -->
<g id="edge15_Node000011_Node000008" class="edge">
<title>Node11&#45;&gt;Node8</title>
<g id="a_edge15_Node000011_Node000008"><a xlink:title=" ">
<path fill="none" stroke="#63b8ff" d="M900.64,-54.98C844.06,-44.5 749.1,-26.9 697.2,-17.28"/>
<polygon fill="#63b8ff" stroke="#63b8ff" points="697.58,-13.8 687.11,-15.41 696.3,-20.68 697.58,-13.8"/>
</a>
</g>
</g>
<!-- Node12 -->
<g id="Node000012" class="node">
<title>Node12</title>
<g id="a_Node000012"><a xlink:title=" ">
<polygon fill="#e0e0e0" stroke="#999999" points="901.09,-19 848.09,-19 848.09,0 901.09,0 901.09,-19"/>
<text text-anchor="middle" x="874.59" y="-7" font-family="Helvetica,sans-Serif" font-size="10.00">stdlib.h</text>
</a>
</g>
</g>
<!-- Node11&#45;&gt;Node12 -->
<g id="edge14_Node000011_Node000012" class="edge">
<title>Node11&#45;&gt;Node12</title>
<g id="a_edge14_Node000011_Node000012"><a xlink:title=" ">
<path fill="none" stroke="#63b8ff" d="M935.02,-54.98C924.17,-47 907.71,-34.88 894.71,-25.31"/>
<polygon fill="#63b8ff" stroke="#63b8ff" points="896.5,-22.28 886.37,-19.17 892.35,-27.92 896.5,-22.28"/>
</a>
</g>
</g>
<!-- Node13&#45;&gt;Node14 -->
<g id="edge18_Node000013_Node000014" class="edge">
<title>Node13&#45;&gt;Node14</title>
<g id="a_edge18_Node000013_Node000014"><a xlink:title=" ">
<path fill="none" stroke="#63b8ff" d="M431.88,-114.73C507.88,-105.58 702.57,-82.13 793.04,-71.23"/>
<polygon fill="#63b8ff" stroke="#63b8ff" points="793.52,-74.7 803.03,-70.02 792.68,-67.75 793.52,-74.7"/>
</a>
</g>
</g>
<!-- Node15 -->
<g id="Node000015" class="node">
<title>Node15</title>
<g id="a_Node000015"><a xlink:href="clk__axi__clkgen_8h.html" target="_top" xlink:title="Driver for the Analog Devices AXI CLKGEN.">
<polygon fill="white" stroke="#666666" points="448.59,-74 350.59,-74 350.59,-55 448.59,-55 448.59,-74"/>
<text text-anchor="middle" x="399.59" y="-62" font-family="Helvetica,sans-Serif" font-size="10.00">clk_axi_clkgen.h</text>
</a>
</g>
</g>
<!-- Node13&#45;&gt;Node15 -->
<g id="edge22_Node000013_Node000015" class="edge">
<title>Node13&#45;&gt;Node15</title>
<g id="a_edge22_Node000013_Node000015"><a xlink:title=" ">
<path fill="none" stroke="#63b8ff" d="M400.42,-109.75C400.29,-102.8 400.1,-92.85 399.94,-84.13"/>
<polygon fill="#63b8ff" stroke="#63b8ff" points="403.44,-84.02 399.75,-74.09 396.44,-84.15 403.44,-84.02"/>
</a>
</g>
</g>
<!-- Node16 -->
<g id="Node000016" class="node">
<title>Node16</title>
<g id="a_Node000016"><a xlink:href="no__os__spi_8h.html" target="_top" xlink:title="Header file of SPI Interface.">
<polygon fill="white" stroke="#666666" points="332.59,-74 258.59,-74 258.59,-55 332.59,-55 332.59,-74"/>
<text text-anchor="middle" x="295.59" y="-62" font-family="Helvetica,sans-Serif" font-size="10.00">no_os_spi.h</text>
</a>
</g>
</g>
<!-- Node13&#45;&gt;Node16 -->
<g id="edge24_Node000013_Node000016" class="edge">
<title>Node13&#45;&gt;Node16</title>
<g id="a_edge24_Node000013_Node000016"><a xlink:title=" ">
<path fill="none" stroke="#63b8ff" d="M383.72,-109.98C366.98,-101.54 341.09,-88.47 321.7,-78.68"/>
<polygon fill="#63b8ff" stroke="#63b8ff" points="323.27,-75.55 312.77,-74.17 320.12,-81.8 323.27,-75.55"/>
</a>
</g>
</g>
<!-- Node14&#45;&gt;Node7 -->
<g id="edge21_Node000014_Node000007" class="edge">
<title>Node14&#45;&gt;Node7</title>
<g id="a_edge21_Node000014_Node000007"><a xlink:title=" ">
<path fill="none" stroke="#63b8ff" d="M863.89,-54.98C887.84,-46.23 925.37,-32.51 952.42,-22.62"/>
<polygon fill="#63b8ff" stroke="#63b8ff" points="953.68,-25.89 961.87,-19.17 951.27,-19.32 953.68,-25.89"/>
</a>
</g>
</g>
<!-- Node14&#45;&gt;Node8 -->
<g id="edge19_Node000014_Node000008" class="edge">
<title>Node14&#45;&gt;Node8</title>
<g id="a_edge19_Node000014_Node000008"><a xlink:title=" ">
<path fill="none" stroke="#63b8ff" d="M811.67,-54.98C780.51,-45.81 730.85,-31.19 697.04,-21.23"/>
<polygon fill="#63b8ff" stroke="#63b8ff" points="697.67,-17.77 687.09,-18.3 695.69,-24.49 697.67,-17.77"/>
</a>
</g>
</g>
<!-- Node14&#45;&gt;Node12 -->
<g id="edge20_Node000014_Node000012" class="edge">
<title>Node14&#45;&gt;Node12</title>
<g id="a_edge20_Node000014_Node000012"><a xlink:title=" ">
<path fill="none" stroke="#63b8ff" d="M846.2,-54.75C850.91,-47.42 857.76,-36.73 863.56,-27.7"/>
<polygon fill="#63b8ff" stroke="#63b8ff" points="866.62,-29.4 869.08,-19.09 860.73,-25.62 866.62,-29.4"/>
</a>
</g>
</g>
<!-- Node15&#45;&gt;Node8 -->
<g id="edge23_Node000015_Node000008" class="edge">
<title>Node15&#45;&gt;Node8</title>
<g id="a_edge23_Node000015_Node000008"><a xlink:title=" ">
<path fill="none" stroke="#63b8ff" d="M441.52,-54.98C492,-44.73 575.95,-27.69 623.94,-17.94"/>
<polygon fill="#63b8ff" stroke="#63b8ff" points="624.8,-21.34 633.9,-15.92 623.4,-14.48 624.8,-21.34"/>
</a>
</g>
</g>
<!-- Node16&#45;&gt;Node8 -->
<g id="edge25_Node000016_Node000008" class="edge">
<title>Node16&#45;&gt;Node8</title>
<g id="a_edge25_Node000016_Node000008"><a xlink:title=" ">
<path fill="none" stroke="#63b8ff" d="M332.72,-56.49C335.72,-55.97 338.7,-55.47 341.59,-55 443.65,-38.46 564.69,-22.6 624.05,-15.06"/>
<polygon fill="#63b8ff" stroke="#63b8ff" points="624.58,-18.53 634.06,-13.8 623.7,-11.58 624.58,-18.53"/>
</a>
</g>
</g>
<!-- Node17&#45;&gt;Node5 -->
<g id="edge28_Node000017_Node000005" class="edge">
<title>Node17&#45;&gt;Node5</title>
<g id="a_edge28_Node000017_Node000005"><a xlink:title=" ">
<path fill="none" stroke="#63b8ff" d="M490.57,-219.98C504.06,-211.77 524.72,-199.18 540.63,-189.49"/>
<polygon fill="#63b8ff" stroke="#63b8ff" points="542.64,-192.36 549.36,-184.17 539,-186.38 542.64,-192.36"/>
</a>
</g>
</g>
<!-- Node17&#45;&gt;Node6 -->
<g id="edge29_Node000017_Node000006" class="edge">
<title>Node17&#45;&gt;Node6</title>
<g id="a_edge29_Node000017_Node000006"><a xlink:title=" ">
<path fill="none" stroke="#63b8ff" d="M484.12,-219.66C499.49,-201.61 534.7,-160.28 554.47,-137.08"/>
<polygon fill="#63b8ff" stroke="#63b8ff" points="557.39,-139.04 561.21,-129.16 552.06,-134.5 557.39,-139.04"/>
</a>
</g>
</g>
<!-- Node17&#45;&gt;Node8 -->
<g id="edge27_Node000017_Node000008" class="edge">
<title>Node17&#45;&gt;Node8</title>
<g id="a_edge27_Node000017_Node000008"><a xlink:title=" ">
<path fill="none" stroke="#63b8ff" d="M474.55,-220C468.47,-192.4 453.41,-104.25 495.59,-55 512.16,-35.65 580.75,-22.24 624.11,-15.5"/>
<polygon fill="#63b8ff" stroke="#63b8ff" points="624.65,-18.96 634.01,-14.01 623.6,-12.04 624.65,-18.96"/>
</a>
</g>
</g>
<!-- Node17&#45;&gt;Node13 -->
<g id="edge30_Node000017_Node000013" class="edge">
<title>Node17&#45;&gt;Node13</title>
<g id="a_edge30_Node000017_Node000013"><a xlink:title=" ">
<path fill="none" stroke="#63b8ff" d="M470.37,-219.66C457.73,-201.69 428.84,-160.64 412.47,-137.38"/>
<polygon fill="#63b8ff" stroke="#63b8ff" points="415.3,-135.32 406.68,-129.16 409.57,-139.35 415.3,-135.32"/>
</a>
</g>
</g>
<!-- Node18&#45;&gt;Node8 -->
<g id="edge33_Node000018_Node000008" class="edge">
<title>Node18&#45;&gt;Node8</title>
<g id="a_edge33_Node000018_Node000008"><a xlink:title=" ">
<path fill="none" stroke="#63b8ff" d="M263.58,-109.61C252.51,-96.23 235.4,-70.8 249.59,-55 274.4,-27.36 527.78,-15.32 623.89,-11.73"/>
<polygon fill="#63b8ff" stroke="#63b8ff" points="624.15,-15.22 634.02,-11.36 623.9,-8.23 624.15,-15.22"/>
</a>
</g>
</g>
<!-- Node19&#45;&gt;Node2 -->
<g id="edge35_Node000019_Node000002" class="edge">
<title>Node19&#45;&gt;Node2</title>
<g id="a_edge35_Node000019_Node000002"><a xlink:title=" ">
<path fill="none" stroke="#63b8ff" d="M59.15,-219.75C53.7,-212.34 45.72,-201.5 39.03,-192.41"/>
<polygon fill="#63b8ff" stroke="#63b8ff" points="41.65,-190.07 32.91,-184.09 36.02,-194.22 41.65,-190.07"/>
</a>
</g>
</g>
<!-- Node20&#45;&gt;Node5 -->
<g id="edge37_Node000020_Node000005" class="edge">
<title>Node20&#45;&gt;Node5</title>
<g id="a_edge37_Node000020_Node000005"><a xlink:title=" ">
<path fill="none" stroke="#63b8ff" d="M665.99,-219.98C646.04,-211.32 614.9,-197.79 592.2,-187.93"/>
<polygon fill="#63b8ff" stroke="#63b8ff" points="593.31,-184.59 582.74,-183.82 590.52,-191.01 593.31,-184.59"/>
</a>
</g>
</g>
<!-- Node20&#45;&gt;Node10 -->
<g id="edge40_Node000020_Node000010" class="edge">
<title>Node20&#45;&gt;Node10</title>
<g id="a_edge40_Node000020_Node000010"><a xlink:title=" ">
<path fill="none" stroke="#63b8ff" d="M716.42,-221.78C738.29,-215.5 766.81,-204 784.59,-184 795.51,-171.72 800.47,-153.49 802.72,-139.71"/>
<polygon fill="#63b8ff" stroke="#63b8ff" points="806.24,-139.77 804.04,-129.41 799.3,-138.88 806.24,-139.77"/>
</a>
</g>
</g>
<!-- Node21 -->
<g id="Node000021" class="node">
<title>Node21</title>
<g id="a_Node000021"><a xlink:href="no__os__irq_8h.html" target="_top" xlink:title="Header file of IRQ interface.">
<polygon fill="white" stroke="#666666" points="672.59,-184 600.59,-184 600.59,-165 672.59,-165 672.59,-184"/>
<text text-anchor="middle" x="636.59" y="-172" font-family="Helvetica,sans-Serif" font-size="10.00">no_os_irq.h</text>
</a>
</g>
</g>
<!-- Node20&#45;&gt;Node21 -->
<g id="edge38_Node000020_Node000021" class="edge">
<title>Node20&#45;&gt;Node21</title>
<g id="a_edge38_Node000020_Node000021"><a xlink:title=" ">
<path fill="none" stroke="#63b8ff" d="M677.5,-219.75C670.43,-212.11 660,-200.82 651.44,-191.56"/>
<polygon fill="#63b8ff" stroke="#63b8ff" points="653.89,-189.06 644.53,-184.09 648.75,-193.81 653.89,-189.06"/>
</a>
</g>
</g>
<!-- Node22 -->
<g id="Node000022" class="node">
<title>Node22</title>
<g id="a_Node000022"><a xlink:href="no__os__error_8h.html" target="_top" xlink:title="Error codes definition.">
<polygon fill="white" stroke="#666666" points="914.59,-184 832.59,-184 832.59,-165 914.59,-165 914.59,-184"/>
<text text-anchor="middle" x="873.59" y="-172" font-family="Helvetica,sans-Serif" font-size="10.00">no_os_error.h</text>
</a>
</g>
</g>
<!-- Node20&#45;&gt;Node22 -->
<g id="edge41_Node000020_Node000022" class="edge">
<title>Node20&#45;&gt;Node22</title>
<g id="a_edge41_Node000020_Node000022"><a xlink:title=" ">
<path fill="none" stroke="#63b8ff" d="M715.79,-219.98C747.63,-211.01 797.95,-196.82 833.19,-186.89"/>
<polygon fill="#63b8ff" stroke="#63b8ff" points="834.47,-190.16 843.15,-184.08 832.57,-183.43 834.47,-190.16"/>
</a>
</g>
</g>
<!-- Node24 -->
<g id="Node000024" class="node">
<title>Node24</title>
<g id="a_Node000024"><a xlink:href="no__os__delay_8h.html" target="_top" xlink:title="Header file of Delay functions.">
<polygon fill="white" stroke="#666666" points="776.09,-184 691.09,-184 691.09,-165 776.09,-165 776.09,-184"/>
<text text-anchor="middle" x="733.59" y="-172" font-family="Helvetica,sans-Serif" font-size="10.00">no_os_delay.h</text>
</a>
</g>
</g>
<!-- Node20&#45;&gt;Node24 -->
<g id="edge43_Node000020_Node000024" class="edge">
<title>Node20&#45;&gt;Node24</title>
<g id="a_edge43_Node000020_Node000024"><a xlink:title=" ">
<path fill="none" stroke="#63b8ff" d="M693.51,-219.75C700.43,-212.11 710.65,-200.82 719.04,-191.56"/>
<polygon fill="#63b8ff" stroke="#63b8ff" points="721.69,-193.85 725.81,-184.09 716.5,-189.15 721.69,-193.85"/>
</a>
</g>
</g>
<!-- Node21&#45;&gt;Node8 -->
<g id="edge39_Node000021_Node000008" class="edge">
<title>Node21&#45;&gt;Node8</title>
<g id="a_edge39_Node000021_Node000008"><a xlink:title=" ">
<path fill="none" stroke="#63b8ff" d="M639.53,-164.85C645.18,-147.75 657.35,-108.29 661.59,-74 662.63,-65.62 661.68,-63.44 661.59,-55 661.49,-46.49 661.29,-37.07 661.1,-29.09"/>
<polygon fill="#63b8ff" stroke="#63b8ff" points="664.6,-28.94 660.84,-19.03 657.6,-29.12 664.6,-28.94"/>
</a>
</g>
</g>
<!-- Node23 -->
<g id="Node000023" class="node">
<title>Node23</title>
<g id="a_Node000023"><a xlink:href="errno_8h.html" target="_top" xlink:title="Error macro definition for ARM Compiler.">
<polygon fill="white" stroke="#666666" points="913.09,-129 862.09,-129 862.09,-110 913.09,-110 913.09,-129"/>
<text text-anchor="middle" x="887.59" y="-117" font-family="Helvetica,sans-Serif" font-size="10.00">errno.h</text>
</a>
</g>
</g>
<!-- Node22&#45;&gt;Node23 -->
<g id="edge42_Node000022_Node000023" class="edge">
<title>Node22&#45;&gt;Node23</title>
<g id="a_edge42_Node000022_Node000023"><a xlink:title=" ">
<path fill="none" stroke="#63b8ff" d="M875.9,-164.75C877.76,-157.72 880.42,-147.62 882.74,-138.84"/>
<polygon fill="#63b8ff" stroke="#63b8ff" points="886.15,-139.65 885.32,-129.09 879.38,-137.86 886.15,-139.65"/>
</a>
</g>
</g>
<!-- Node24&#45;&gt;Node8 -->
<g id="edge44_Node000024_Node000008" class="edge">
<title>Node24&#45;&gt;Node8</title>
<g id="a_edge44_Node000024_Node000008"><a xlink:title=" ">
<path fill="none" stroke="#63b8ff" d="M729.66,-164.74C718.18,-139.09 684.45,-63.78 668.77,-28.78"/>
<polygon fill="#63b8ff" stroke="#63b8ff" points="671.81,-27 664.53,-19.31 665.43,-29.86 671.81,-27"/>
</a>
</g>
</g>
</g>
</svg>
