<?xml version="1.0" encoding="UTF-8" standalone="no"?>
<!DOCTYPE svg PUBLIC "-//W3C//DTD SVG 1.1//EN"
 "http://www.w3.org/Graphics/SVG/1.1/DTD/svg11.dtd">
<!-- Generated by graphviz version 2.43.0 (0)
 -->
<!-- Title: ad738x_spi_reg_write Pages: 1 -->
<svg width="767pt" height="187pt"
 viewBox="0.00 0.00 767.00 186.50" xmlns="http://www.w3.org/2000/svg" xmlns:xlink="http://www.w3.org/1999/xlink">
<g id="graph0" class="graph" transform="scale(1 1) rotate(0) translate(4 182.5)">
<title>ad738x_spi_reg_write</title>
<!-- Node1 -->
<g id="Node000001" class="node">
<title>Node1</title>
<g id="a_Node000001"><a xlink:title=" ">
<polygon fill="#999999" stroke="#666666" points="759,-93 636,-93 636,-74 759,-74 759,-93"/>
<text text-anchor="middle" x="697.5" y="-81" font-family="Helvetica,sans-Serif" font-size="10.00">ad738x_spi_reg_write</text>
</a>
</g>
</g>
<!-- Node2 -->
<g id="Node000002" class="node">
<title>Node2</title>
<g id="a_Node000002"><a xlink:href="ad738x_8c.html#a0d6745922ecae792c17143e715fc1f6c" target="_top" xlink:title=" ">
<polygon fill="white" stroke="#666666" points="600,-93 466,-93 466,-74 600,-74 600,-93"/>
<text text-anchor="middle" x="533" y="-81" font-family="Helvetica,sans-Serif" font-size="10.00">ad738x_spi_write_mask</text>
</a>
</g>
</g>
<!-- Node1&#45;&gt;Node2 -->
<g id="edge1_Node000001_Node000002" class="edge">
<title>Node1&#45;&gt;Node2</title>
<g id="a_edge1_Node000001_Node000002"><a xlink:title=" ">
<path fill="none" stroke="#63b8ff" d="M625.97,-83.5C617.35,-83.5 608.57,-83.5 600.01,-83.5"/>
<polygon fill="#63b8ff" stroke="#63b8ff" points="625.99,-87 635.99,-83.5 625.99,-80 625.99,-87"/>
</a>
</g>
</g>
<!-- Node3 -->
<g id="Node000003" class="node">
<title>Node3</title>
<g id="a_Node000003"><a xlink:href="ad738x_8c.html#aca0a89e9a8428eafa7581f2c785efa17" target="_top" xlink:title=" ">
<polygon fill="white" stroke="#666666" points="410.5,-178.5 285.5,-178.5 285.5,-148.5 410.5,-148.5 410.5,-178.5"/>
<text text-anchor="start" x="293.5" y="-166.5" font-family="Helvetica,sans-Serif" font-size="10.00">ad738x_oversampling</text>
<text text-anchor="middle" x="348" y="-155.5" font-family="Helvetica,sans-Serif" font-size="10.00">_config</text>
</a>
</g>
</g>
<!-- Node2&#45;&gt;Node3 -->
<g id="edge2_Node000002_Node000003" class="edge">
<title>Node2&#45;&gt;Node3</title>
<g id="a_edge2_Node000002_Node000003"><a xlink:title=" ">
<path fill="none" stroke="#63b8ff" d="M508.41,-98.35C488.19,-110.61 457.97,-127.84 430,-139.5 422.28,-142.72 413.99,-145.69 405.75,-148.37"/>
<polygon fill="#63b8ff" stroke="#63b8ff" points="510.27,-101.32 516.96,-93.1 506.61,-95.35 510.27,-101.32"/>
</a>
</g>
</g>
<!-- Node4 -->
<g id="Node000004" class="node">
<title>Node4</title>
<g id="a_Node000004"><a xlink:href="ad738x_8c.html#a4c279aa39bd9c586094dbc1171b412e3" target="_top" xlink:title=" ">
<polygon fill="white" stroke="#666666" points="424,-130 272,-130 272,-111 424,-111 424,-130"/>
<text text-anchor="middle" x="348" y="-118" font-family="Helvetica,sans-Serif" font-size="10.00">ad738x_power_down_mode</text>
</a>
</g>
</g>
<!-- Node2&#45;&gt;Node4 -->
<g id="edge3_Node000002_Node000004" class="edge">
<title>Node2&#45;&gt;Node4</title>
<g id="a_edge3_Node000002_Node000004"><a xlink:title=" ">
<path fill="none" stroke="#63b8ff" d="M475.04,-95.02C449.75,-100.13 420.34,-106.08 396.29,-110.94"/>
<polygon fill="#63b8ff" stroke="#63b8ff" points="475.76,-98.44 484.87,-93.03 474.38,-91.58 475.76,-98.44"/>
</a>
</g>
</g>
<!-- Node5 -->
<g id="Node000005" class="node">
<title>Node5</title>
<g id="a_Node000005"><a xlink:href="ad738x_8c.html#aa0bed45cdf2573c27e6b35dddb3fec8b" target="_top" xlink:title=" ">
<polygon fill="white" stroke="#666666" points="410,-93 286,-93 286,-74 410,-74 410,-93"/>
<text text-anchor="middle" x="348" y="-81" font-family="Helvetica,sans-Serif" font-size="10.00">ad738x_reference_sel</text>
</a>
</g>
</g>
<!-- Node2&#45;&gt;Node5 -->
<g id="edge4_Node000002_Node000005" class="edge">
<title>Node2&#45;&gt;Node5</title>
<g id="a_edge4_Node000002_Node000005"><a xlink:title=" ">
<path fill="none" stroke="#63b8ff" d="M455.55,-83.5C440.39,-83.5 424.66,-83.5 410.1,-83.5"/>
<polygon fill="#63b8ff" stroke="#63b8ff" points="455.93,-87 465.93,-83.5 455.93,-80 455.93,-87"/>
</a>
</g>
</g>
<!-- Node8 -->
<g id="Node000008" class="node">
<title>Node8</title>
<g id="a_Node000008"><a xlink:href="ad738x_8c.html#acca2387acefe808578b83ec69d3b6925" target="_top" xlink:title=" ">
<polygon fill="white" stroke="#666666" points="389.5,-56 306.5,-56 306.5,-37 389.5,-37 389.5,-56"/>
<text text-anchor="middle" x="348" y="-44" font-family="Helvetica,sans-Serif" font-size="10.00">ad738x_reset</text>
</a>
</g>
</g>
<!-- Node2&#45;&gt;Node8 -->
<g id="edge7_Node000002_Node000008" class="edge">
<title>Node2&#45;&gt;Node8</title>
<g id="a_edge7_Node000002_Node000008"><a xlink:title=" ">
<path fill="none" stroke="#63b8ff" d="M474.95,-71.96C447.34,-66.38 414.83,-59.81 389.75,-54.74"/>
<polygon fill="#63b8ff" stroke="#63b8ff" points="474.38,-75.42 484.87,-73.97 475.76,-68.56 474.38,-75.42"/>
</a>
</g>
</g>
<!-- Node9 -->
<g id="Node000009" class="node">
<title>Node9</title>
<g id="a_Node000009"><a xlink:href="ad738x_8c.html#a8a8a9145e11c745cde62a883ffb025af" target="_top" xlink:title=" ">
<polygon fill="white" stroke="#666666" points="430,-19 266,-19 266,0 430,0 430,-19"/>
<text text-anchor="middle" x="348" y="-7" font-family="Helvetica,sans-Serif" font-size="10.00">ad738x_set_conversion_mode</text>
</a>
</g>
</g>
<!-- Node2&#45;&gt;Node9 -->
<g id="edge9_Node000002_Node000009" class="edge">
<title>Node2&#45;&gt;Node9</title>
<g id="a_edge9_Node000002_Node000009"><a xlink:title=" ">
<path fill="none" stroke="#63b8ff" d="M508.54,-68.53C488.4,-56.25 458.22,-39.2 430,-28.5 420.14,-24.76 409.32,-21.61 398.88,-19.01"/>
<polygon fill="#63b8ff" stroke="#63b8ff" points="506.7,-71.51 517.05,-73.8 510.39,-65.56 506.7,-71.51"/>
</a>
</g>
</g>
<!-- Node6 -->
<g id="Node000006" class="node">
<title>Node6</title>
<g id="a_Node000006"><a xlink:href="ad738x_8c.html#a5a643687de5deac9b07cf82ee05503d7" target="_top" xlink:title=" ">
<polygon fill="white" stroke="#666666" points="230,-56 156,-56 156,-37 230,-37 230,-56"/>
<text text-anchor="middle" x="193" y="-44" font-family="Helvetica,sans-Serif" font-size="10.00">ad738x_init</text>
</a>
</g>
</g>
<!-- Node5&#45;&gt;Node6 -->
<g id="edge5_Node000005_Node000006" class="edge">
<title>Node5&#45;&gt;Node6</title>
<g id="a_edge5_Node000005_Node000006"><a xlink:title=" ">
<path fill="none" stroke="#63b8ff" d="M292.48,-71.69C283.62,-69.68 274.54,-67.58 266,-65.5 253.94,-62.57 240.8,-59.17 229.09,-56.05"/>
<polygon fill="#63b8ff" stroke="#63b8ff" points="291.84,-75.14 302.36,-73.91 293.37,-68.31 291.84,-75.14"/>
</a>
</g>
</g>
<!-- Node7 -->
<g id="Node000007" class="node">
<title>Node7</title>
<g id="a_Node000007"><a xlink:href="ad738x__fmcz_2src_2examples_2basic__example_2basic__example_8c.html#a72943dc9011d36293cb05ca5d7cb6899" target="_top" xlink:title="basic example main execution.">
<polygon fill="white" stroke="#666666" points="120,-56 0,-56 0,-37 120,-37 120,-56"/>
<text text-anchor="middle" x="60" y="-44" font-family="Helvetica,sans-Serif" font-size="10.00">basic_example_main</text>
</a>
</g>
</g>
<!-- Node6&#45;&gt;Node7 -->
<g id="edge6_Node000006_Node000007" class="edge">
<title>Node6&#45;&gt;Node7</title>
<g id="a_edge6_Node000006_Node000007"><a xlink:title=" ">
<path fill="none" stroke="#63b8ff" d="M145.68,-46.5C137.43,-46.5 128.72,-46.5 120.17,-46.5"/>
<polygon fill="#63b8ff" stroke="#63b8ff" points="145.86,-50 155.86,-46.5 145.86,-43 145.86,-50"/>
</a>
</g>
</g>
<!-- Node8&#45;&gt;Node6 -->
<g id="edge8_Node000008_Node000006" class="edge">
<title>Node8&#45;&gt;Node6</title>
<g id="a_edge8_Node000008_Node000006"><a xlink:title=" ">
<path fill="none" stroke="#63b8ff" d="M296.37,-46.5C274.68,-46.5 249.86,-46.5 230.09,-46.5"/>
<polygon fill="#63b8ff" stroke="#63b8ff" points="296.4,-50 306.4,-46.5 296.4,-43 296.4,-50"/>
</a>
</g>
</g>
<!-- Node9&#45;&gt;Node6 -->
<g id="edge10_Node000009_Node000006" class="edge">
<title>Node9&#45;&gt;Node6</title>
<g id="a_edge10_Node000009_Node000006"><a xlink:title=" ">
<path fill="none" stroke="#63b8ff" d="M295.99,-21.35C286.04,-23.69 275.69,-26.15 266,-28.5 254.35,-31.32 241.67,-34.47 230.23,-37.33"/>
<polygon fill="#63b8ff" stroke="#63b8ff" points="296.83,-24.74 305.77,-19.05 295.23,-17.93 296.83,-24.74"/>
</a>
</g>
</g>
</g>
</svg>
