<?xml version="1.0" encoding="UTF-8" standalone="no"?>
<!DOCTYPE svg PUBLIC "-//W3C//DTD SVG 1.1//EN"
 "http://www.w3.org/Graphics/SVG/1.1/DTD/svg11.dtd">
<!-- Generated by graphviz version 2.43.0 (0)
 -->
<!-- Title: ad74413r_get_diag Pages: 1 -->
<svg width="670pt" height="65pt"
 viewBox="0.00 0.00 670.00 65.00" xmlns="http://www.w3.org/2000/svg" xmlns:xlink="http://www.w3.org/1999/xlink">
<g id="graph0" class="graph" transform="scale(1 1) rotate(0) translate(4 61)">
<title>ad74413r_get_diag</title>
<!-- Node1 -->
<g id="Node000001" class="node">
<title>Node1</title>
<g id="a_Node000001"><a xlink:title="Get the diagnostic value for a specific channel.">
<polygon fill="#999999" stroke="#666666" points="662,-38 552,-38 552,-19 662,-19 662,-38"/>
<text text-anchor="middle" x="607" y="-26" font-family="Helvetica,sans-Serif" font-size="10.00">ad74413r_get_diag</text>
</a>
</g>
</g>
<!-- Node2 -->
<g id="Node000002" class="node">
<title>Node2</title>
<g id="a_Node000002"><a xlink:href="ad74413r_8c.html#a84173888281b24e7ab884f95491eb34e" target="_top" xlink:title="Get a single ADC raw value for a specific channel, then power down the ADC.">
<polygon fill="white" stroke="#666666" points="516,-57 376,-57 376,-38 516,-38 516,-57"/>
<text text-anchor="middle" x="446" y="-45" font-family="Helvetica,sans-Serif" font-size="10.00">ad74413r_get_adc_single</text>
</a>
</g>
</g>
<!-- Node1&#45;&gt;Node2 -->
<g id="edge1_Node000001_Node000002" class="edge">
<title>Node1&#45;&gt;Node2</title>
<g id="a_edge1_Node000001_Node000002"><a xlink:title=" ">
<path fill="none" stroke="#63b8ff" d="M541.65,-36.19C533.27,-37.19 524.66,-38.22 516.21,-39.23"/>
<polygon fill="#63b8ff" stroke="#63b8ff" points="542.21,-39.65 551.73,-34.99 541.38,-32.7 542.21,-39.65"/>
</a>
</g>
</g>
<!-- Node7 -->
<g id="Node000007" class="node">
<title>Node7</title>
<g id="a_Node000007"><a xlink:href="ad74413r_8c.html#aca686e88788cbd02a105cf2ae17a8714" target="_top" xlink:title="Read the die&#39;s temperature from the diagnostic register.">
<polygon fill="white" stroke="#666666" points="328,-19 214,-19 214,0 328,0 328,-19"/>
<text text-anchor="middle" x="271" y="-7" font-family="Helvetica,sans-Serif" font-size="10.00">ad74413r_get_temp</text>
</a>
</g>
</g>
<!-- Node1&#45;&gt;Node7 -->
<g id="edge6_Node000001_Node000007" class="edge">
<title>Node1&#45;&gt;Node7</title>
<g id="a_edge6_Node000001_Node000007"><a xlink:title=" ">
<path fill="none" stroke="#63b8ff" d="M541.93,-24.86C480.05,-21.34 387.26,-16.06 328.19,-12.7"/>
<polygon fill="#63b8ff" stroke="#63b8ff" points="541.78,-28.35 551.97,-25.43 542.18,-21.36 541.78,-28.35"/>
</a>
</g>
</g>
<!-- Node3 -->
<g id="Node000003" class="node">
<title>Node3</title>
<g id="a_Node000003"><a xlink:href="ad74413r_8c.html#a85e28f0d13f64bd42e0ca4843c053048" target="_top" xlink:title="Get the ADC real value, according to the operation mode.">
<polygon fill="white" stroke="#666666" points="340,-56 202,-56 202,-37 340,-37 340,-56"/>
<text text-anchor="middle" x="271" y="-44" font-family="Helvetica,sans-Serif" font-size="10.00">ad74413r_adc_get_value</text>
</a>
</g>
</g>
<!-- Node2&#45;&gt;Node3 -->
<g id="edge2_Node000002_Node000003" class="edge">
<title>Node2&#45;&gt;Node3</title>
<g id="a_edge2_Node000002_Node000003"><a xlink:title=" ">
<path fill="none" stroke="#63b8ff" d="M365.44,-47.04C357.02,-46.99 348.52,-46.94 340.26,-46.89"/>
<polygon fill="#63b8ff" stroke="#63b8ff" points="365.61,-50.54 375.63,-47.1 365.65,-43.54 365.61,-50.54"/>
</a>
</g>
</g>
<!-- Node4 -->
<g id="Node000004" class="node">
<title>Node4</title>
<g id="a_Node000004"><a xlink:href="ad74413r_2src_2examples_2dummy_2dummy__example_8c.html#ac25cbf8ae523e89cb0617e68c98bc697" target="_top" xlink:title="Dummy example main execution.">
<polygon fill="white" stroke="#666666" points="166,-19 77,-19 77,0 166,0 166,-19"/>
<text text-anchor="middle" x="121.5" y="-7" font-family="Helvetica,sans-Serif" font-size="10.00">example_main</text>
</a>
</g>
</g>
<!-- Node3&#45;&gt;Node4 -->
<g id="edge3_Node000003_Node000004" class="edge">
<title>Node3&#45;&gt;Node4</title>
<g id="a_edge3_Node000003_Node000004"><a xlink:title=" ">
<path fill="none" stroke="#63b8ff" d="M222.19,-34.51C202.24,-29.5 179.4,-23.77 160.61,-19.06"/>
<polygon fill="#63b8ff" stroke="#63b8ff" points="221.46,-37.93 232.02,-36.97 223.17,-31.14 221.46,-37.93"/>
</a>
</g>
</g>
<!-- Node5 -->
<g id="Node000005" class="node">
<title>Node5</title>
<g id="a_Node000005"><a xlink:href="swiot1l__mqtt_8c.html#ab4316fc56ae71292fd2845eb8cb6fd42" target="_top" xlink:title=" ">
<polygon fill="white" stroke="#666666" points="161.5,-56 81.5,-56 81.5,-37 161.5,-37 161.5,-56"/>
<text text-anchor="middle" x="121.5" y="-44" font-family="Helvetica,sans-Serif" font-size="10.00">swiot1l_mqtt</text>
</a>
</g>
</g>
<!-- Node3&#45;&gt;Node5 -->
<g id="edge4_Node000003_Node000005" class="edge">
<title>Node3&#45;&gt;Node5</title>
<g id="a_edge4_Node000003_Node000005"><a xlink:title=" ">
<path fill="none" stroke="#63b8ff" d="M191.86,-46.5C181.44,-46.5 171.14,-46.5 161.79,-46.5"/>
<polygon fill="#63b8ff" stroke="#63b8ff" points="191.86,-50 201.86,-46.5 191.86,-43 191.86,-50"/>
</a>
</g>
</g>
<!-- Node6 -->
<g id="Node000006" class="node">
<title>Node6</title>
<g id="a_Node000006"><a xlink:href="swiot1l_2src_2platform_2maxim_2main_8c.html#ae66f6b31b5ad750f1fe042a706a4e3d4" target="_top" xlink:title="Main function.">
<polygon fill="white" stroke="#666666" points="41,-56 0,-56 0,-37 41,-37 41,-56"/>
<text text-anchor="middle" x="20.5" y="-44" font-family="Helvetica,sans-Serif" font-size="10.00">main</text>
</a>
</g>
</g>
<!-- Node5&#45;&gt;Node6 -->
<g id="edge5_Node000005_Node000006" class="edge">
<title>Node5&#45;&gt;Node6</title>
<g id="a_edge5_Node000005_Node000006"><a xlink:title=" ">
<path fill="none" stroke="#63b8ff" d="M71.19,-46.5C60.49,-46.5 49.78,-46.5 41.06,-46.5"/>
<polygon fill="#63b8ff" stroke="#63b8ff" points="71.37,-50 81.37,-46.5 71.37,-43 71.37,-50"/>
</a>
</g>
</g>
<!-- Node7&#45;&gt;Node4 -->
<g id="edge7_Node000007_Node000004" class="edge">
<title>Node7&#45;&gt;Node4</title>
<g id="a_edge7_Node000007_Node000004"><a xlink:title=" ">
<path fill="none" stroke="#63b8ff" d="M203.7,-9.5C190.97,-9.5 177.93,-9.5 166.14,-9.5"/>
<polygon fill="#63b8ff" stroke="#63b8ff" points="203.82,-13 213.82,-9.5 203.82,-6 203.82,-13"/>
</a>
</g>
</g>
</g>
</svg>
