<?xml version="1.0" encoding="UTF-8" standalone="no"?>
<!DOCTYPE svg PUBLIC "-//W3C//DTD SVG 1.1//EN"
 "http://www.w3.org/Graphics/SVG/1.1/DTD/svg11.dtd">
<!-- Generated by graphviz version 2.43.0 (0)
 -->
<!-- Title: ad74413r_set_adc_rejection Pages: 1 -->
<svg width="532pt" height="65pt"
 viewBox="0.00 0.00 532.00 65.00" xmlns="http://www.w3.org/2000/svg" xmlns:xlink="http://www.w3.org/1999/xlink">
<g id="graph0" class="graph" transform="scale(1 1) rotate(0) translate(4 61)">
<title>ad74413r_set_adc_rejection</title>
<!-- Node1 -->
<g id="Node000001" class="node">
<title>Node1</title>
<g id="a_Node000001"><a xlink:title="Set the rejection setting for a specific channel.">
<polygon fill="#999999" stroke="#666666" points="524,-38 371,-38 371,-19 524,-19 524,-38"/>
<text text-anchor="middle" x="447.5" y="-26" font-family="Helvetica,sans-Serif" font-size="10.00">ad74413r_set_adc_rejection</text>
</a>
</g>
</g>
<!-- Node2 -->
<g id="Node000002" class="node">
<title>Node2</title>
<g id="a_Node000002"><a xlink:href="ad74413r_8c.html#a373bed4de8059c4eec6f6feb53aee00c" target="_top" xlink:title="Set the ADC sample rate.">
<polygon fill="white" stroke="#666666" points="335,-57 205,-57 205,-38 335,-38 335,-57"/>
<text text-anchor="middle" x="270" y="-45" font-family="Helvetica,sans-Serif" font-size="10.00">ad74413r_set_adc_rate</text>
</a>
</g>
</g>
<!-- Node1&#45;&gt;Node2 -->
<g id="edge1_Node000001_Node000002" class="edge">
<title>Node1&#45;&gt;Node2</title>
<g id="a_edge1_Node000001_Node000002"><a xlink:title=" ">
<path fill="none" stroke="#63b8ff" d="M360.73,-37.79C352.12,-38.72 343.49,-39.65 335.17,-40.55"/>
<polygon fill="#63b8ff" stroke="#63b8ff" points="361.23,-41.25 370.8,-36.7 360.48,-34.29 361.23,-41.25"/>
</a>
</g>
</g>
<!-- Node5 -->
<g id="Node000005" class="node">
<title>Node5</title>
<g id="a_Node000005"><a xlink:href="swiot1l__mqtt_8c.html#ab4316fc56ae71292fd2845eb8cb6fd42" target="_top" xlink:title=" ">
<polygon fill="white" stroke="#666666" points="163,-19 83,-19 83,0 163,0 163,-19"/>
<text text-anchor="middle" x="123" y="-7" font-family="Helvetica,sans-Serif" font-size="10.00">swiot1l_mqtt</text>
</a>
</g>
</g>
<!-- Node1&#45;&gt;Node5 -->
<g id="edge4_Node000001_Node000005" class="edge">
<title>Node1&#45;&gt;Node5</title>
<g id="a_edge4_Node000001_Node000005"><a xlink:title=" ">
<path fill="none" stroke="#63b8ff" d="M360.8,-23.45C296.76,-19.68 212.19,-14.7 163.38,-11.82"/>
<polygon fill="#63b8ff" stroke="#63b8ff" points="360.7,-26.95 370.89,-24.05 361.11,-19.96 360.7,-26.95"/>
</a>
</g>
</g>
<!-- Node3 -->
<g id="Node000003" class="node">
<title>Node3</title>
<g id="a_Node000003"><a xlink:href="swiot__fw_8c.html#a427f9beea005fab8fccd9774acb53fc3" target="_top" xlink:title="IIO example main execution.">
<polygon fill="white" stroke="#666666" points="169,-56 77,-56 77,-37 169,-37 169,-56"/>
<text text-anchor="middle" x="123" y="-44" font-family="Helvetica,sans-Serif" font-size="10.00">swiot_firmware</text>
</a>
</g>
</g>
<!-- Node2&#45;&gt;Node3 -->
<g id="edge2_Node000002_Node000003" class="edge">
<title>Node2&#45;&gt;Node3</title>
<g id="a_edge2_Node000002_Node000003"><a xlink:title=" ">
<path fill="none" stroke="#63b8ff" d="M194.82,-46.99C186.15,-46.93 177.52,-46.87 169.41,-46.81"/>
<polygon fill="#63b8ff" stroke="#63b8ff" points="194.95,-50.49 204.98,-47.06 195,-43.49 194.95,-50.49"/>
</a>
</g>
</g>
<!-- Node4 -->
<g id="Node000004" class="node">
<title>Node4</title>
<g id="a_Node000004"><a xlink:href="swiot1l_2src_2platform_2maxim_2main_8c.html#ae66f6b31b5ad750f1fe042a706a4e3d4" target="_top" xlink:title="Main function.">
<polygon fill="white" stroke="#666666" points="41,-37 0,-37 0,-18 41,-18 41,-37"/>
<text text-anchor="middle" x="20.5" y="-25" font-family="Helvetica,sans-Serif" font-size="10.00">main</text>
</a>
</g>
</g>
<!-- Node3&#45;&gt;Node4 -->
<g id="edge3_Node000003_Node000004" class="edge">
<title>Node3&#45;&gt;Node4</title>
<g id="a_edge3_Node000003_Node000004"><a xlink:title=" ">
<path fill="none" stroke="#63b8ff" d="M66.75,-36.06C57.57,-34.32 48.61,-32.63 41.12,-31.21"/>
<polygon fill="#63b8ff" stroke="#63b8ff" points="66.27,-39.53 76.75,-37.94 67.57,-32.65 66.27,-39.53"/>
</a>
</g>
</g>
<!-- Node5&#45;&gt;Node4 -->
<g id="edge5_Node000005_Node000004" class="edge">
<title>Node5&#45;&gt;Node4</title>
<g id="a_edge5_Node000005_Node000004"><a xlink:title=" ">
<path fill="none" stroke="#63b8ff" d="M72.98,-18.28C61.65,-20.31 50.24,-22.35 41.05,-24"/>
<polygon fill="#63b8ff" stroke="#63b8ff" points="73.63,-21.72 82.86,-16.51 72.4,-14.83 73.63,-21.72"/>
</a>
</g>
</g>
</g>
</svg>
