<?xml version="1.0" encoding="UTF-8" standalone="no"?>
<!DOCTYPE svg PUBLIC "-//W3C//DTD SVG 1.1//EN"
 "http://www.w3.org/Graphics/SVG/1.1/DTD/svg11.dtd">
<!-- Generated by graphviz version 2.43.0 (0)
 -->
<!-- Title: projects/ad7616&#45;st/src/common/common_data.c Pages: 1 -->
<svg width="220pt" height="258pt"
 viewBox="0.00 0.00 219.50 258.00" xmlns="http://www.w3.org/2000/svg" xmlns:xlink="http://www.w3.org/1999/xlink">
<g id="graph0" class="graph" transform="scale(1 1) rotate(0) translate(4 254)">
<title>projects/ad7616&#45;st/src/common/common_data.c</title>
<!-- Node1 -->
<g id="Node000001" class="node">
<title>Node1</title>
<g id="a_Node000001"><a xlink:title="Defines common data to be used by eval&#45;ad7616 examples.">
<polygon fill="#999999" stroke="#666666" points="211.5,-250 50.5,-250 50.5,-220 211.5,-220 211.5,-250"/>
<text text-anchor="start" x="58.5" y="-238" font-family="Helvetica,sans-Serif" font-size="10.00">projects/ad7616&#45;st</text>
<text text-anchor="middle" x="131" y="-227" font-family="Helvetica,sans-Serif" font-size="10.00">/src/common/common_data.c</text>
</a>
</g>
</g>
<!-- Node2 -->
<g id="Node000002" class="node">
<title>Node2</title>
<g id="a_Node000002"><a xlink:href="ad7616-st_2src_2common_2common__data_8h.html" target="_top" xlink:title="Defines common data to be used by eval&#45;ad7616 examples.">
<polygon fill="white" stroke="#666666" points="133.5,-184 38.5,-184 38.5,-165 133.5,-165 133.5,-184"/>
<text text-anchor="middle" x="86" y="-172" font-family="Helvetica,sans-Serif" font-size="10.00">common_data.h</text>
</a>
</g>
</g>
<!-- Node1&#45;&gt;Node2 -->
<g id="edge1_Node000001_Node000002" class="edge">
<title>Node1&#45;&gt;Node2</title>
<g id="a_edge1_Node000001_Node000002"><a xlink:title=" ">
<path fill="none" stroke="#63b8ff" d="M120.11,-219.84C113.71,-211.52 105.58,-200.96 98.87,-192.23"/>
<polygon fill="#63b8ff" stroke="#63b8ff" points="101.61,-190.06 92.74,-184.27 96.07,-194.33 101.61,-190.06"/>
</a>
</g>
</g>
<!-- Node7 -->
<g id="Node000007" class="node">
<title>Node7</title>
<g id="a_Node000007"><a xlink:title=" ">
<polygon fill="#e0e0e0" stroke="#999999" points="202,-184 152,-184 152,-165 202,-165 202,-184"/>
<text text-anchor="middle" x="177" y="-172" font-family="Helvetica,sans-Serif" font-size="10.00">main.h</text>
</a>
</g>
</g>
<!-- Node1&#45;&gt;Node7 -->
<g id="edge7_Node000001_Node000007" class="edge">
<title>Node1&#45;&gt;Node7</title>
<g id="a_edge7_Node000001_Node000007"><a xlink:title=" ">
<path fill="none" stroke="#63b8ff" d="M142.14,-219.84C148.68,-211.52 156.98,-200.96 163.84,-192.23"/>
<polygon fill="#63b8ff" stroke="#63b8ff" points="166.68,-194.29 170.11,-184.27 161.17,-189.96 166.68,-194.29"/>
</a>
</g>
</g>
<!-- Node3 -->
<g id="Node000003" class="node">
<title>Node3</title>
<g id="a_Node000003"><a xlink:title=" ">
<polygon fill="#e0e0e0" stroke="#999999" points="82,-129 0,-129 0,-110 82,-110 82,-129"/>
<text text-anchor="middle" x="41" y="-117" font-family="Helvetica,sans-Serif" font-size="10.00">parameters.h</text>
</a>
</g>
</g>
<!-- Node2&#45;&gt;Node3 -->
<g id="edge2_Node000002_Node000003" class="edge">
<title>Node2&#45;&gt;Node3</title>
<g id="a_edge2_Node000002_Node000003"><a xlink:title=" ">
<path fill="none" stroke="#63b8ff" d="M78.57,-164.75C72.15,-157.18 62.69,-146.05 54.88,-136.84"/>
<polygon fill="#63b8ff" stroke="#63b8ff" points="57.43,-134.45 48.29,-129.09 52.1,-138.98 57.43,-134.45"/>
</a>
</g>
</g>
<!-- Node4 -->
<g id="Node000004" class="node">
<title>Node4</title>
<g id="a_Node000004"><a xlink:href="ad7616_8h.html" target="_top" xlink:title="Header file of AD7616 Driver.">
<polygon fill="white" stroke="#666666" points="162,-129 100,-129 100,-110 162,-110 162,-129"/>
<text text-anchor="middle" x="131" y="-117" font-family="Helvetica,sans-Serif" font-size="10.00">ad7616.h</text>
</a>
</g>
</g>
<!-- Node2&#45;&gt;Node4 -->
<g id="edge3_Node000002_Node000004" class="edge">
<title>Node2&#45;&gt;Node4</title>
<g id="a_edge3_Node000002_Node000004"><a xlink:title=" ">
<path fill="none" stroke="#63b8ff" d="M93.43,-164.75C99.85,-157.18 109.31,-146.05 117.12,-136.84"/>
<polygon fill="#63b8ff" stroke="#63b8ff" points="119.9,-138.98 123.71,-129.09 114.57,-134.45 119.9,-138.98"/>
</a>
</g>
</g>
<!-- Node5 -->
<g id="Node000005" class="node">
<title>Node5</title>
<g id="a_Node000005"><a xlink:href="no__os__gpio_8h.html" target="_top" xlink:title="Header file of GPIO Interface.">
<polygon fill="white" stroke="#666666" points="137,-74 57,-74 57,-55 137,-55 137,-74"/>
<text text-anchor="middle" x="97" y="-62" font-family="Helvetica,sans-Serif" font-size="10.00">no_os_gpio.h</text>
</a>
</g>
</g>
<!-- Node4&#45;&gt;Node5 -->
<g id="edge4_Node000004_Node000005" class="edge">
<title>Node4&#45;&gt;Node5</title>
<g id="a_edge4_Node000004_Node000005"><a xlink:title=" ">
<path fill="none" stroke="#63b8ff" d="M125.39,-109.75C120.68,-102.42 113.83,-91.73 108.03,-82.7"/>
<polygon fill="#63b8ff" stroke="#63b8ff" points="110.86,-80.62 102.51,-74.09 104.96,-84.4 110.86,-80.62"/>
</a>
</g>
</g>
<!-- Node6 -->
<g id="Node000006" class="node">
<title>Node6</title>
<g id="a_Node000006"><a xlink:title=" ">
<polygon fill="#e0e0e0" stroke="#999999" points="157.5,-19 104.5,-19 104.5,0 157.5,0 157.5,-19"/>
<text text-anchor="middle" x="131" y="-7" font-family="Helvetica,sans-Serif" font-size="10.00">stdint.h</text>
</a>
</g>
</g>
<!-- Node4&#45;&gt;Node6 -->
<g id="edge6_Node000004_Node000006" class="edge">
<title>Node4&#45;&gt;Node6</title>
<g id="a_edge6_Node000004_Node000006"><a xlink:title=" ">
<path fill="none" stroke="#63b8ff" d="M134.86,-109.85C138.56,-101.04 143.89,-86.87 146,-74 148.55,-58.46 143.9,-41.06 139.13,-28.41"/>
<polygon fill="#63b8ff" stroke="#63b8ff" points="142.31,-26.94 135.24,-19.05 135.84,-29.63 142.31,-26.94"/>
</a>
</g>
</g>
<!-- Node5&#45;&gt;Node6 -->
<g id="edge5_Node000005_Node000006" class="edge">
<title>Node5&#45;&gt;Node6</title>
<g id="a_edge5_Node000005_Node000006"><a xlink:title=" ">
<path fill="none" stroke="#63b8ff" d="M102.61,-54.75C107.32,-47.42 114.17,-36.73 119.97,-27.7"/>
<polygon fill="#63b8ff" stroke="#63b8ff" points="123.04,-29.4 125.49,-19.09 117.14,-25.62 123.04,-29.4"/>
</a>
</g>
</g>
</g>
</svg>
