<?xml version="1.0" encoding="UTF-8" standalone="no"?>
<!DOCTYPE svg PUBLIC "-//W3C//DTD SVG 1.1//EN"
 "http://www.w3.org/Graphics/SVG/1.1/DTD/svg11.dtd">
<!-- Generated by graphviz version 2.43.0 (0)
 -->
<!-- Title: ad7616_par_write Pages: 1 -->
<!--zoomable 193 -->

<svg id="main" version="1.1" xmlns="http://www.w3.org/2000/svg" xmlns:xlink="http://www.w3.org/1999/xlink" xml:space="preserve" onload="init(evt)">

<style type="text/css"><![CDATA[
.node, .edge {opacity: 0.7;}
.node.selected, .edge.selected {opacity: 1;}
.edge:hover path { stroke: red; }
.edge:hover polygon { stroke: red; fill: red; }
]]></style>

<defs>
  <circle id="rim" cx="0" cy="0" r="7"/>
  <circle id="rim2" cx="0" cy="0" r="3.5"/>
  <g id="zoomPlus">
    <use xlink:href="#rim" fill="#404040"><set attributeName="fill" to="#808080" begin="zoomplus.mouseover" end="zoomplus.mouseout"/></use>
    <path d="M-4,0h8M0,-4v8" fill="none" stroke="white" stroke-width="1.5" pointer-events="none"/>
  </g>
  <g id="zoomMin">
    <use xlink:href="#rim" fill="#404040"><set attributeName="fill" to="#808080" begin="zoomminus.mouseover" end="zoomminus.mouseout"/></use>
    <path d="M-4,0h8" fill="none" stroke="white" stroke-width="1.5" pointer-events="none"/>
  </g>
  <g id="arrowUp" transform="translate(30 24)">
    <use xlink:href="#rim"/>
    <path pointer-events="none" fill="none" stroke="white" stroke-width="1.5" d="M0,-3.0v7 M-2.5,-0.5L0,-3.0L2.5,-0.5"/>
  </g>
  <g id="arrowRight" transform="rotate(90) translate(36 -43)">
    <use xlink:href="#rim"/>
    <path pointer-events="none" fill="none" stroke="white" stroke-width="1.5" d="M0,-3.0v7 M-2.5,-0.5L0,-3.0L2.5,-0.5"/>
  </g>
  <g id="arrowDown" transform="rotate(180) translate(-30 -48)">
    <use xlink:href="#rim"/>
    <path pointer-events="none" fill="none" stroke="white" stroke-width="1.5" d="M0,-3.0v7 M-2.5,-0.5L0,-3.0L2.5,-0.5"/>
  </g>
  <g id="arrowLeft" transform="rotate(270) translate(-36 17)">
    <use xlink:href="#rim"/>
    <path pointer-events="none" fill="none" stroke="white" stroke-width="1.5" d="M0,-3.0v7 M-2.5,-0.5L0,-3.0L2.5,-0.5"/>
  </g>
  <g id="resetDef">
    <use xlink:href="#rim2" fill="#404040"><set attributeName="fill" to="#808080" begin="reset.mouseover" end="reset.mouseout"/></use>
  </g>
</defs>
<script type="application/ecmascript">
var viewWidth = 827;
var viewHeight = 193;
var sectionId = 'dynsection-2';
</script>
<script type="application/ecmascript" xlink:href="svg.min.js"/>
<svg id="graph" class="graph">
<g id="viewport">
<title>ad7616_par_write</title>
<!-- Node1 -->
<g id="Node000001" class="node">
<title>Node1</title>
<g id="a_Node000001"><a xlink:title=" ">
<polygon fill="#999999" stroke="#666666" points="819,-144 715,-144 715,-125 819,-125 819,-144"/>
<text text-anchor="middle" x="767" y="-132" font-family="Helvetica,sans-Serif" font-size="10.00">ad7616_par_write</text>
</a>
</g>
</g>
<!-- Node2 -->
<g id="Node000002" class="node">
<title>Node2</title>
<g id="a_Node000002"><a xlink:href="ad7616_8c.html#adc7914ad7853e33961965f2c98e2777b" target="_top" xlink:title=" ">
<polygon fill="white" stroke="#666666" points="663,-174 580,-174 580,-155 663,-155 663,-174"/>
<text text-anchor="middle" x="621.5" y="-162" font-family="Helvetica,sans-Serif" font-size="10.00">ad7616_write</text>
</a>
</g>
</g>
<!-- Node1&#45;&gt;Node2 -->
<g id="edge1_Node000001_Node000002" class="edge">
<title>Node1&#45;&gt;Node2</title>
<g id="a_edge1_Node000001_Node000002"><a xlink:title=" ">
<path fill="none" stroke="#63b8ff" d="M710.08,-146.19C694.38,-149.47 677.63,-152.97 663.02,-156.03"/>
<polygon fill="#63b8ff" stroke="#63b8ff" points="711.13,-149.55 720.2,-144.07 709.7,-142.7 711.13,-149.55"/>
</a>
</g>
</g>
<!-- Node4 -->
<g id="Node000004" class="node">
<title>Node4</title>
<g id="a_Node000004"><a xlink:href="ad7616_8c.html#abf90300cc332a8f57b8ba95f6818a86a" target="_top" xlink:title=" ">
<polygon fill="white" stroke="#666666" points="679,-126 564,-126 564,-107 679,-107 679,-126"/>
<text text-anchor="middle" x="621.5" y="-114" font-family="Helvetica,sans-Serif" font-size="10.00">ad7616_write_mask</text>
</a>
</g>
</g>
<!-- Node1&#45;&gt;Node4 -->
<g id="edge3_Node000001_Node000004" class="edge">
<title>Node1&#45;&gt;Node4</title>
<g id="a_edge3_Node000001_Node000004"><a xlink:title=" ">
<path fill="none" stroke="#63b8ff" d="M704.54,-126.79C696.19,-125.74 687.65,-124.67 679.38,-123.64"/>
<polygon fill="#63b8ff" stroke="#63b8ff" points="704.24,-130.28 714.6,-128.05 705.11,-123.33 704.24,-130.28"/>
</a>
</g>
</g>
<!-- Node3 -->
<g id="Node000003" class="node">
<title>Node3</title>
<g id="a_Node000003"><a xlink:href="ad7616_8c.html#a9688cf245b09af1f32776f6059079190" target="_top" xlink:title="Setup the sequencer layers.">
<polygon fill="white" stroke="#666666" points="523.5,-185 383.5,-185 383.5,-166 523.5,-166 523.5,-185"/>
<text text-anchor="middle" x="453.5" y="-173" font-family="Helvetica,sans-Serif" font-size="10.00">ad7616_setup_sequencer</text>
</a>
</g>
</g>
<!-- Node2&#45;&gt;Node3 -->
<g id="edge2_Node000002_Node000003" class="edge">
<title>Node2&#45;&gt;Node3</title>
<g id="a_edge2_Node000002_Node000003"><a xlink:title=" ">
<path fill="none" stroke="#63b8ff" d="M569.66,-167.87C555.19,-168.83 539.17,-169.89 523.8,-170.91"/>
<polygon fill="#63b8ff" stroke="#63b8ff" points="570.15,-171.34 579.89,-167.19 569.68,-164.36 570.15,-171.34"/>
</a>
</g>
</g>
<!-- Node4&#45;&gt;Node3 -->
<g id="edge14_Node000004_Node000003" class="edge">
<title>Node4&#45;&gt;Node3</title>
<g id="a_edge14_Node000004_Node000003"><a xlink:title=" ">
<path fill="none" stroke="#63b8ff" d="M592.06,-130.68C574.02,-139.27 550.02,-149.99 528,-157.5 518.67,-160.68 508.5,-163.54 498.79,-166"/>
<polygon fill="#63b8ff" stroke="#63b8ff" points="593.93,-133.66 601.41,-126.16 590.88,-127.36 593.93,-133.66"/>
</a>
</g>
</g>
<!-- Node5 -->
<g id="Node000005" class="node">
<title>Node5</title>
<g id="a_Node000005"><a xlink:href="ad7616_8c.html#a6798e1d3e151879c041125e8f5b71f24" target="_top" xlink:title=" ">
<polygon fill="white" stroke="#666666" points="528,-148 379,-148 379,-129 528,-129 528,-148"/>
<text text-anchor="middle" x="453.5" y="-136" font-family="Helvetica,sans-Serif" font-size="10.00">ad7616_disable_sequencer</text>
</a>
</g>
</g>
<!-- Node4&#45;&gt;Node5 -->
<g id="edge4_Node000004_Node000005" class="edge">
<title>Node4&#45;&gt;Node5</title>
<g id="a_edge4_Node000004_Node000005"><a xlink:title=" ">
<path fill="none" stroke="#63b8ff" d="M553.81,-125.34C544.82,-126.53 535.55,-127.76 526.47,-128.96"/>
<polygon fill="#63b8ff" stroke="#63b8ff" points="554.38,-128.79 563.84,-124.01 553.46,-121.85 554.38,-128.79"/>
</a>
</g>
</g>
<!-- Node6 -->
<g id="Node000006" class="node">
<title>Node6</title>
<g id="a_Node000006"><a xlink:href="ad7616_8c.html#a23b6958a61f9c3b1161a51c76750904f" target="_top" xlink:title="Select a new source for a channel.">
<polygon fill="white" stroke="#666666" points="519,-110.5 388,-110.5 388,-80.5 519,-80.5 519,-110.5"/>
<text text-anchor="start" x="396" y="-98.5" font-family="Helvetica,sans-Serif" font-size="10.00">ad7616_select_channel</text>
<text text-anchor="middle" x="453.5" y="-87.5" font-family="Helvetica,sans-Serif" font-size="10.00">_source</text>
</a>
</g>
</g>
<!-- Node4&#45;&gt;Node6 -->
<g id="edge5_Node000004_Node000006" class="edge">
<title>Node4&#45;&gt;Node6</title>
<g id="a_edge5_Node000004_Node000006"><a xlink:title=" ">
<path fill="none" stroke="#63b8ff" d="M553.91,-108.08C542.46,-106.63 530.58,-105.12 519.19,-103.68"/>
<polygon fill="#63b8ff" stroke="#63b8ff" points="553.48,-111.55 563.84,-109.33 554.35,-104.6 553.48,-111.55"/>
</a>
</g>
</g>
<!-- Node10 -->
<g id="Node000010" class="node">
<title>Node10</title>
<g id="a_Node000010"><a xlink:href="ad7616_8c.html#ad30c9b898f7d6fb6ad4991c8d7cbdc8f" target="_top" xlink:title=" ">
<polygon fill="white" stroke="#666666" points="343,-67.5 198,-67.5 198,-37.5 343,-37.5 343,-67.5"/>
<text text-anchor="start" x="206" y="-55.5" font-family="Helvetica,sans-Serif" font-size="10.00">ad7616_set_oversampling</text>
<text text-anchor="middle" x="270.5" y="-44.5" font-family="Helvetica,sans-Serif" font-size="10.00">_ratio</text>
</a>
</g>
</g>
<!-- Node4&#45;&gt;Node10 -->
<g id="edge9_Node000004_Node000010" class="edge">
<title>Node4&#45;&gt;Node10</title>
<g id="a_edge9_Node000004_Node000010"><a xlink:title=" ">
<path fill="none" stroke="#63b8ff" d="M596.78,-101.84C578.65,-91.42 552.67,-78.15 528,-71.5 467.1,-55.08 395.32,-51 343.2,-50.63"/>
<polygon fill="#63b8ff" stroke="#63b8ff" points="595.1,-104.91 605.49,-106.97 598.65,-98.88 595.1,-104.91"/>
</a>
</g>
</g>
<!-- Node11 -->
<g id="Node000011" class="node">
<title>Node11</title>
<g id="a_Node000011"><a xlink:href="ad7616_8c.html#a7f5ed5397b17224af60507d8d5312335" target="_top" xlink:title=" ">
<polygon fill="white" stroke="#666666" points="506.5,-22 400.5,-22 400.5,-3 506.5,-3 506.5,-22"/>
<text text-anchor="middle" x="453.5" y="-10" font-family="Helvetica,sans-Serif" font-size="10.00">ad7616_set_range</text>
</a>
</g>
</g>
<!-- Node4&#45;&gt;Node11 -->
<g id="edge11_Node000004_Node000011" class="edge">
<title>Node4&#45;&gt;Node11</title>
<g id="a_edge11_Node000004_Node000011"><a xlink:title=" ">
<path fill="none" stroke="#63b8ff" d="M604.24,-99.57C586.79,-82.21 557.56,-55.43 528,-38.5 516.14,-31.7 502.2,-26.22 489.66,-22.08"/>
<polygon fill="#63b8ff" stroke="#63b8ff" points="601.87,-102.15 611.39,-106.81 606.86,-97.24 601.87,-102.15"/>
</a>
</g>
</g>
<!-- Node7 -->
<g id="Node000007" class="node">
<title>Node7</title>
<g id="a_Node000007"><a xlink:href="ad7616_8c.html#ab690e8d620d464da766f18fd88b8797c" target="_top" xlink:title="Perform a self test. Channels selection will be left untouched.">
<polygon fill="white" stroke="#666666" points="320.5,-105 220.5,-105 220.5,-86 320.5,-86 320.5,-105"/>
<text text-anchor="middle" x="270.5" y="-93" font-family="Helvetica,sans-Serif" font-size="10.00">ad7616_self_test</text>
</a>
</g>
</g>
<!-- Node6&#45;&gt;Node7 -->
<g id="edge6_Node000006_Node000007" class="edge">
<title>Node6&#45;&gt;Node7</title>
<g id="a_edge6_Node000006_Node000007"><a xlink:title=" ">
<path fill="none" stroke="#63b8ff" d="M377.67,-95.5C358.44,-95.5 338.24,-95.5 320.68,-95.5"/>
<polygon fill="#63b8ff" stroke="#63b8ff" points="377.92,-99 387.92,-95.5 377.92,-92 377.92,-99"/>
</a>
</g>
</g>
<!-- Node8 -->
<g id="Node000008" class="node">
<title>Node8</title>
<g id="a_Node000008"><a xlink:href="ad7616_8c.html#a28a5328adc3dd216fad7dbe17b37dfd8" target="_top" xlink:title=" ">
<polygon fill="white" stroke="#666666" points="162,-62 77,-62 77,-43 162,-43 162,-62"/>
<text text-anchor="middle" x="119.5" y="-50" font-family="Helvetica,sans-Serif" font-size="10.00">ad7616_setup</text>
</a>
</g>
</g>
<!-- Node7&#45;&gt;Node8 -->
<g id="edge7_Node000007_Node000008" class="edge">
<title>Node7&#45;&gt;Node8</title>
<g id="a_edge7_Node000007_Node000008"><a xlink:title=" ">
<path fill="none" stroke="#63b8ff" d="M222.5,-83.3C214.31,-81.09 205.9,-78.77 198,-76.5 182.16,-71.95 164.61,-66.54 150.23,-62.01"/>
<polygon fill="#63b8ff" stroke="#63b8ff" points="221.75,-86.72 232.31,-85.92 223.55,-79.96 221.75,-86.72"/>
</a>
</g>
</g>
<!-- Node9 -->
<g id="Node000009" class="node">
<title>Node9</title>
<g id="a_Node000009"><a xlink:href="ad7616__sdz_8c.html#a840291bc02cba5474a4cb46a9b9566fe" target="_top" xlink:title="main">
<polygon fill="white" stroke="#666666" points="41,-62 0,-62 0,-43 41,-43 41,-62"/>
<text text-anchor="middle" x="20.5" y="-50" font-family="Helvetica,sans-Serif" font-size="10.00">main</text>
</a>
</g>
</g>
<!-- Node8&#45;&gt;Node9 -->
<g id="edge8_Node000008_Node000009" class="edge">
<title>Node8&#45;&gt;Node9</title>
<g id="a_edge8_Node000008_Node000009"><a xlink:title=" ">
<path fill="none" stroke="#63b8ff" d="M66.54,-52.5C57.45,-52.5 48.53,-52.5 41.05,-52.5"/>
<polygon fill="#63b8ff" stroke="#63b8ff" points="66.8,-56 76.8,-52.5 66.8,-49 66.8,-56"/>
</a>
</g>
</g>
<!-- Node10&#45;&gt;Node8 -->
<g id="edge10_Node000010_Node000008" class="edge">
<title>Node10&#45;&gt;Node8</title>
<g id="a_edge10_Node000010_Node000008"><a xlink:title=" ">
<path fill="none" stroke="#63b8ff" d="M187.61,-52.5C178.78,-52.5 170.09,-52.5 162.04,-52.5"/>
<polygon fill="#63b8ff" stroke="#63b8ff" points="187.62,-56 197.62,-52.5 187.62,-49 187.62,-56"/>
</a>
</g>
</g>
<!-- Node12 -->
<g id="Node000012" class="node">
<title>Node12</title>
<g id="a_Node000012"><a xlink:href="ad7616_8c.html#a7bae55e3393d35a43de018c75c78609f" target="_top" xlink:title=" ">
<polygon fill="white" stroke="#666666" points="323.5,-19 217.5,-19 217.5,0 323.5,0 323.5,-19"/>
<text text-anchor="middle" x="270.5" y="-7" font-family="Helvetica,sans-Serif" font-size="10.00">ad7616_set_mode</text>
</a>
</g>
</g>
<!-- Node11&#45;&gt;Node12 -->
<g id="edge12_Node000011_Node000012" class="edge">
<title>Node11&#45;&gt;Node12</title>
<g id="a_edge12_Node000011_Node000012"><a xlink:title=" ">
<path fill="none" stroke="#63b8ff" d="M390.07,-11.47C368.45,-11.11 344.45,-10.71 323.74,-10.37"/>
<polygon fill="#63b8ff" stroke="#63b8ff" points="390.09,-14.97 400.15,-11.63 390.21,-7.97 390.09,-14.97"/>
</a>
</g>
</g>
<!-- Node12&#45;&gt;Node8 -->
<g id="edge13_Node000012_Node000008" class="edge">
<title>Node12&#45;&gt;Node8</title>
<g id="a_edge13_Node000012_Node000008"><a xlink:title=" ">
<path fill="none" stroke="#63b8ff" d="M222.5,-21.7C214.31,-23.91 205.9,-26.23 198,-28.5 182.16,-33.05 164.61,-38.46 150.23,-42.99"/>
<polygon fill="#63b8ff" stroke="#63b8ff" points="223.55,-25.04 232.31,-19.08 221.75,-18.28 223.55,-25.04"/>
</a>
</g>
</g>
</g>
</svg>

<g id="navigator" transform="translate(0 0)" fill="#404254">
  <rect fill="#f2f5e9" fill-opacity="0.5" stroke="#606060" stroke-width=".5" x="0" y="0" width="60" height="60"/>
  <use id="zoomplus" xlink:href="#zoomPlus" x="17" y="9" onmousedown="handleZoom(evt,'in')"/>
  <use id="zoomminus" xlink:href="#zoomMin" x="42" y="9" onmousedown="handleZoom(evt,'out')"/>
  <use id="reset" xlink:href="#resetDef" x="30" y="36" onmousedown="handleReset()"/>
   <use id="arrowup" xlink:href="#arrowUp" x="0" y="0" onmousedown="handlePan(0,-1)"/>
  <use id="arrowright" xlink:href="#arrowRight" x="0" y="0" onmousedown="handlePan(1,0)"/>
  <use id="arrowdown" xlink:href="#arrowDown" x="0" y="0" onmousedown="handlePan(0,1)"/>
  <use id="arrowleft" xlink:href="#arrowLeft" x="0" y="0" onmousedown="handlePan(-1,0)"/>
</g>
<svg viewBox="0 0 15 15" width="100%" height="30px" preserveAspectRatio="xMaxYMin meet">
 <g id="arrow_out" transform="scale(0.3 0.3)">
  <a xlink:href="ad7616_8c_ad421ebeeffdf46076eaa0cae52d66ae2_icgraph_org.svg" target="_base">
   <rect id="button" ry="5" rx="5" y="6" x="6" height="38" width="38"
        fill="#f2f5e9" fill-opacity="0.5" stroke="#606060" stroke-width="1.0"/>
   <path id="arrow"
     d="M 11.500037,31.436501 C 11.940474,20.09759 22.043105,11.32322 32.158766,21.979434 L 37.068811,17.246167 C 37.068811,17.246167 37.088388,32 37.088388,32 L 22.160133,31.978069 C 22.160133,31.978069 26.997745,27.140456 26.997745,27.140456 C 18.528582,18.264221 13.291696,25.230495 11.500037,31.436501 z"
     style="fill:#404040;"/>
  </a>
 </g>
</svg>

<style type='text/css'>
<![CDATA[
[data-mouse-over-selected='false'] { opacity: 0.7; }
[data-mouse-over-selected='true']  { opacity: 1.0; }
]]>
</style>
<script type="application/ecmascript"><![CDATA[
document.addEventListener('DOMContentLoaded', (event) => {
  highlightEdges();
  highlightAdjacentNodes();
});
]]></script>
</svg>
