<?xml version="1.0" encoding="UTF-8" standalone="no"?>
<!DOCTYPE svg PUBLIC "-//W3C//DTD SVG 1.1//EN"
 "http://www.w3.org/Graphics/SVG/1.1/DTD/svg11.dtd">
<!-- Generated by graphviz version 2.43.0 (0)
 -->
<!-- Title: ad7616_read_data_serial Pages: 1 -->
<svg width="481pt" height="46pt"
 viewBox="0.00 0.00 481.00 46.00" xmlns="http://www.w3.org/2000/svg" xmlns:xlink="http://www.w3.org/1999/xlink">
<g id="graph0" class="graph" transform="scale(1 1) rotate(0) translate(4 42)">
<title>ad7616_read_data_serial</title>
<!-- Node1 -->
<g id="Node000001" class="node">
<title>Node1</title>
<g id="a_Node000001"><a xlink:title="Read conversion result from device, checking with CRC if enabled.">
<polygon fill="#999999" stroke="#666666" points="473,-19 334,-19 334,0 473,0 473,-19"/>
<text text-anchor="middle" x="403.5" y="-7" font-family="Helvetica,sans-Serif" font-size="10.00">ad7616_read_data_serial</text>
</a>
</g>
</g>
<!-- Node2 -->
<g id="Node000002" class="node">
<title>Node2</title>
<g id="a_Node000002"><a xlink:href="ad7616_8c.html#ab690e8d620d464da766f18fd88b8797c" target="_top" xlink:title="Perform a self test. Channels selection will be left untouched.">
<polygon fill="white" stroke="#666666" points="298,-38 198,-38 198,-19 298,-19 298,-38"/>
<text text-anchor="middle" x="248" y="-26" font-family="Helvetica,sans-Serif" font-size="10.00">ad7616_self_test</text>
</a>
</g>
</g>
<!-- Node1&#45;&gt;Node2 -->
<g id="edge1_Node000001_Node000002" class="edge">
<title>Node1&#45;&gt;Node2</title>
<g id="a_edge1_Node000001_Node000002"><a xlink:title=" ">
<path fill="none" stroke="#63b8ff" d="M323.69,-19.25C315.05,-20.32 306.43,-21.39 298.3,-22.4"/>
<polygon fill="#63b8ff" stroke="#63b8ff" points="324.34,-22.7 333.83,-18 323.48,-15.75 324.34,-22.7"/>
</a>
</g>
</g>
<!-- Node4 -->
<g id="Node000004" class="node">
<title>Node4</title>
<g id="a_Node000004"><a xlink:href="ad7616__sdz_8c.html#a840291bc02cba5474a4cb46a9b9566fe" target="_top" xlink:title="main">
<polygon fill="white" stroke="#666666" points="41,-19 0,-19 0,0 41,0 41,-19"/>
<text text-anchor="middle" x="20.5" y="-7" font-family="Helvetica,sans-Serif" font-size="10.00">main</text>
</a>
</g>
</g>
<!-- Node1&#45;&gt;Node4 -->
<g id="edge4_Node000001_Node000004" class="edge">
<title>Node1&#45;&gt;Node4</title>
<g id="a_edge4_Node000001_Node000004"><a xlink:title=" ">
<path fill="none" stroke="#63b8ff" d="M323.8,-9.5C234.03,-9.5 92.99,-9.5 41.32,-9.5"/>
<polygon fill="#63b8ff" stroke="#63b8ff" points="323.94,-13 333.94,-9.5 323.94,-6 323.94,-13"/>
</a>
</g>
</g>
<!-- Node3 -->
<g id="Node000003" class="node">
<title>Node3</title>
<g id="a_Node000003"><a xlink:href="ad7616_8c.html#a28a5328adc3dd216fad7dbe17b37dfd8" target="_top" xlink:title=" ">
<polygon fill="white" stroke="#666666" points="162,-38 77,-38 77,-19 162,-19 162,-38"/>
<text text-anchor="middle" x="119.5" y="-26" font-family="Helvetica,sans-Serif" font-size="10.00">ad7616_setup</text>
</a>
</g>
</g>
<!-- Node2&#45;&gt;Node3 -->
<g id="edge2_Node000002_Node000003" class="edge">
<title>Node2&#45;&gt;Node3</title>
<g id="a_edge2_Node000002_Node000003"><a xlink:title=" ">
<path fill="none" stroke="#63b8ff" d="M187.66,-28.5C179,-28.5 170.25,-28.5 162.05,-28.5"/>
<polygon fill="#63b8ff" stroke="#63b8ff" points="187.73,-32 197.73,-28.5 187.73,-25 187.73,-32"/>
</a>
</g>
</g>
<!-- Node3&#45;&gt;Node4 -->
<g id="edge3_Node000003_Node000004" class="edge">
<title>Node3&#45;&gt;Node4</title>
<g id="a_edge3_Node000003_Node000004"><a xlink:title=" ">
<path fill="none" stroke="#63b8ff" d="M66.83,-18.38C57.64,-16.58 48.61,-14.81 41.05,-13.33"/>
<polygon fill="#63b8ff" stroke="#63b8ff" points="66.31,-21.84 76.8,-20.33 67.66,-14.97 66.31,-21.84"/>
</a>
</g>
</g>
</g>
</svg>
