<?xml version="1.0" encoding="UTF-8" standalone="no"?>
<!DOCTYPE svg PUBLIC "-//W3C//DTD SVG 1.1//EN"
 "http://www.w3.org/Graphics/SVG/1.1/DTD/svg11.dtd">
<!-- Generated by graphviz version 2.43.0 (0)
 -->
<!-- Title: drivers/adc/ad7606/ad7606.c Pages: 1 -->
<svg width="1138pt" height="203pt"
 viewBox="0.00 0.00 1137.50 203.00" xmlns="http://www.w3.org/2000/svg" xmlns:xlink="http://www.w3.org/1999/xlink">
<g id="graph0" class="graph" transform="scale(1 1) rotate(0) translate(4 199)">
<title>drivers/adc/ad7606/ad7606.c</title>
<!-- Node1 -->
<g id="Node000001" class="node">
<title>Node1</title>
<g id="a_Node000001"><a xlink:title="Implementation of ad7606 Driver.">
<polygon fill="#999999" stroke="#666666" points="299,-195 189,-195 189,-165 299,-165 299,-195"/>
<text text-anchor="start" x="197" y="-183" font-family="Helvetica,sans-Serif" font-size="10.00">drivers/adc/ad7606</text>
<text text-anchor="middle" x="244" y="-172" font-family="Helvetica,sans-Serif" font-size="10.00">/ad7606.c</text>
</a>
</g>
</g>
<!-- Node2 -->
<g id="Node000002" class="node">
<title>Node2</title>
<g id="a_Node000002"><a xlink:title=" ">
<polygon fill="#e0e0e0" stroke="#999999" points="50,-74 0,-74 0,-55 50,-55 50,-74"/>
<text text-anchor="middle" x="25" y="-62" font-family="Helvetica,sans-Serif" font-size="10.00">stdio.h</text>
</a>
</g>
</g>
<!-- Node1&#45;&gt;Node2 -->
<g id="edge1_Node000001_Node000002" class="edge">
<title>Node1&#45;&gt;Node2</title>
<g id="a_edge1_Node000001_Node000002"><a xlink:title=" ">
<path fill="none" stroke="#63b8ff" d="M188.91,-174.52C129.29,-168.4 39.91,-155.06 19,-129 8.95,-116.47 12.21,-97.76 16.93,-83.89"/>
<polygon fill="#63b8ff" stroke="#63b8ff" points="20.25,-85 20.62,-74.41 13.73,-82.46 20.25,-85"/>
</a>
</g>
</g>
<!-- Node3 -->
<g id="Node000003" class="node">
<title>Node3</title>
<g id="a_Node000003"><a xlink:title=" ">
<polygon fill="#e0e0e0" stroke="#999999" points="166.5,-19 113.5,-19 113.5,0 166.5,0 166.5,-19"/>
<text text-anchor="middle" x="140" y="-7" font-family="Helvetica,sans-Serif" font-size="10.00">stdlib.h</text>
</a>
</g>
</g>
<!-- Node1&#45;&gt;Node3 -->
<g id="edge2_Node000001_Node000003" class="edge">
<title>Node1&#45;&gt;Node3</title>
<g id="a_edge2_Node000001_Node000003"><a xlink:title=" ">
<path fill="none" stroke="#63b8ff" d="M226.28,-164.63C215.62,-155.31 202.35,-142.43 193,-129 170.45,-96.6 153.95,-53.05 145.77,-28.79"/>
<polygon fill="#63b8ff" stroke="#63b8ff" points="149.04,-27.53 142.61,-19.11 142.39,-29.7 149.04,-27.53"/>
</a>
</g>
</g>
<!-- Node4 -->
<g id="Node000004" class="node">
<title>Node4</title>
<g id="a_Node000004"><a xlink:title=" ">
<polygon fill="#e0e0e0" stroke="#999999" points="308,-19 246,-19 246,0 308,0 308,-19"/>
<text text-anchor="middle" x="277" y="-7" font-family="Helvetica,sans-Serif" font-size="10.00">stdbool.h</text>
</a>
</g>
</g>
<!-- Node1&#45;&gt;Node4 -->
<g id="edge3_Node000001_Node000004" class="edge">
<title>Node1&#45;&gt;Node4</title>
<g id="a_edge3_Node000001_Node000004"><a xlink:title=" ">
<path fill="none" stroke="#63b8ff" d="M230.84,-164.92C210.31,-141.17 175.18,-92.11 197,-55 205.74,-40.14 221.44,-29.88 236.63,-22.99"/>
<polygon fill="#63b8ff" stroke="#63b8ff" points="238.06,-26.19 245.95,-19.13 235.38,-19.72 238.06,-26.19"/>
</a>
</g>
</g>
<!-- Node5 -->
<g id="Node000005" class="node">
<title>Node5</title>
<g id="a_Node000005"><a xlink:title=" ">
<polygon fill="#e0e0e0" stroke="#999999" points="920.5,-129 867.5,-129 867.5,-110 920.5,-110 920.5,-129"/>
<text text-anchor="middle" x="894" y="-117" font-family="Helvetica,sans-Serif" font-size="10.00">string.h</text>
</a>
</g>
</g>
<!-- Node1&#45;&gt;Node5 -->
<g id="edge4_Node000001_Node000005" class="edge">
<title>Node1&#45;&gt;Node5</title>
<g id="a_edge4_Node000001_Node000005"><a xlink:title=" ">
<path fill="none" stroke="#63b8ff" d="M299.37,-177.28C405.71,-173.38 645.92,-161.64 857.31,-128.84"/>
<polygon fill="#63b8ff" stroke="#63b8ff" points="858.02,-132.27 867.35,-127.26 856.93,-125.36 858.02,-132.27"/>
</a>
</g>
</g>
<!-- Node6 -->
<g id="Node000006" class="node">
<title>Node6</title>
<g id="a_Node000006"><a xlink:href="ad7606_8h.html" target="_top" xlink:title="Header file for the ad7606 Driver.">
<polygon fill="white" stroke="#666666" points="446,-129 384,-129 384,-110 446,-110 446,-129"/>
<text text-anchor="middle" x="415" y="-117" font-family="Helvetica,sans-Serif" font-size="10.00">ad7606.h</text>
</a>
</g>
</g>
<!-- Node1&#45;&gt;Node6 -->
<g id="edge5_Node000001_Node000006" class="edge">
<title>Node1&#45;&gt;Node6</title>
<g id="a_edge5_Node000001_Node000006"><a xlink:title=" ">
<path fill="none" stroke="#63b8ff" d="M284.96,-164.99C314,-155.05 352.55,-141.86 380.12,-132.43"/>
<polygon fill="#63b8ff" stroke="#63b8ff" points="381.42,-135.69 389.75,-129.14 379.15,-129.06 381.42,-135.69"/>
</a>
</g>
</g>
<!-- Node11 -->
<g id="Node000011" class="node">
<title>Node11</title>
<g id="a_Node000011"><a xlink:href="no__os__util_8h.html" target="_top" xlink:title="Header file of utility functions.">
<polygon fill="white" stroke="#666666" points="281.5,-74 206.5,-74 206.5,-55 281.5,-55 281.5,-74"/>
<text text-anchor="middle" x="244" y="-62" font-family="Helvetica,sans-Serif" font-size="10.00">no_os_util.h</text>
</a>
</g>
</g>
<!-- Node1&#45;&gt;Node11 -->
<g id="edge23_Node000001_Node000011" class="edge">
<title>Node1&#45;&gt;Node11</title>
<g id="a_edge23_Node000001_Node000011"><a xlink:title=" ">
<path fill="none" stroke="#63b8ff" d="M244,-164.63C244,-144.21 244,-106.81 244,-84.24"/>
<polygon fill="#63b8ff" stroke="#63b8ff" points="247.5,-84.23 244,-74.23 240.5,-84.23 247.5,-84.23"/>
</a>
</g>
</g>
<!-- Node13 -->
<g id="Node000013" class="node">
<title>Node13</title>
<g id="a_Node000013"><a xlink:href="no__os__error_8h.html" target="_top" xlink:title="Error codes definition.">
<polygon fill="white" stroke="#666666" points="1083,-129 1001,-129 1001,-110 1083,-110 1083,-129"/>
<text text-anchor="middle" x="1042" y="-117" font-family="Helvetica,sans-Serif" font-size="10.00">no_os_error.h</text>
</a>
</g>
</g>
<!-- Node1&#45;&gt;Node13 -->
<g id="edge21_Node000001_Node000013" class="edge">
<title>Node1&#45;&gt;Node13</title>
<g id="a_edge21_Node000001_Node000013"><a xlink:title=" ">
<path fill="none" stroke="#63b8ff" d="M299.13,-175.04C415.63,-166.65 695.4,-146.45 930,-129 949.86,-127.52 971.71,-125.87 990.79,-124.42"/>
<polygon fill="#63b8ff" stroke="#63b8ff" points="991.07,-127.91 1000.78,-123.66 990.54,-120.93 991.07,-127.91"/>
</a>
</g>
</g>
<!-- Node15 -->
<g id="Node000015" class="node">
<title>Node15</title>
<g id="a_Node000015"><a xlink:href="no__os__crc_8h.html" target="_top" xlink:title="Generic header file for all CRC computation algorithms.">
<polygon fill="white" stroke="#666666" points="849,-129 775,-129 775,-110 849,-110 849,-129"/>
<text text-anchor="middle" x="812" y="-117" font-family="Helvetica,sans-Serif" font-size="10.00">no_os_crc.h</text>
</a>
</g>
</g>
<!-- Node1&#45;&gt;Node15 -->
<g id="edge24_Node000001_Node000015" class="edge">
<title>Node1&#45;&gt;Node15</title>
<g id="a_edge24_Node000001_Node000015"><a xlink:title=" ">
<path fill="none" stroke="#63b8ff" d="M299.24,-173.31C410.55,-161.85 660.1,-136.14 764.58,-125.38"/>
<polygon fill="#63b8ff" stroke="#63b8ff" points="765.23,-128.84 774.81,-124.33 764.51,-121.87 765.23,-128.84"/>
</a>
</g>
</g>
<!-- Node20 -->
<g id="Node000020" class="node">
<title>Node20</title>
<g id="a_Node000020"><a xlink:href="no__os__alloc_8h.html" target="_top" xlink:title=" ">
<polygon fill="white" stroke="#666666" points="111.5,-129 28.5,-129 28.5,-110 111.5,-110 111.5,-129"/>
<text text-anchor="middle" x="70" y="-117" font-family="Helvetica,sans-Serif" font-size="10.00">no_os_alloc.h</text>
</a>
</g>
</g>
<!-- Node1&#45;&gt;Node20 -->
<g id="edge34_Node000001_Node000020" class="edge">
<title>Node1&#45;&gt;Node20</title>
<g id="a_edge34_Node000001_Node000020"><a xlink:title=" ">
<path fill="none" stroke="#63b8ff" d="M202.32,-164.99C172.68,-155.02 133.31,-141.78 105.23,-132.35"/>
<polygon fill="#63b8ff" stroke="#63b8ff" points="106.04,-128.92 95.44,-129.05 103.8,-135.56 106.04,-128.92"/>
</a>
</g>
</g>
<!-- Node6&#45;&gt;Node4 -->
<g id="edge7_Node000006_Node000004" class="edge">
<title>Node6&#45;&gt;Node4</title>
<g id="a_edge7_Node000006_Node000004"><a xlink:title=" ">
<path fill="none" stroke="#63b8ff" d="M392.69,-109.94C374.4,-102.26 348.46,-89.77 329,-74 312.63,-60.73 297.82,-41.61 288.23,-27.81"/>
<polygon fill="#63b8ff" stroke="#63b8ff" points="290.96,-25.6 282.47,-19.26 285.15,-29.51 290.96,-25.6"/>
</a>
</g>
</g>
<!-- Node7 -->
<g id="Node000007" class="node">
<title>Node7</title>
<g id="a_Node000007"><a xlink:title=" ">
<polygon fill="#e0e0e0" stroke="#999999" points="648.5,-19 595.5,-19 595.5,0 648.5,0 648.5,-19"/>
<text text-anchor="middle" x="622" y="-7" font-family="Helvetica,sans-Serif" font-size="10.00">stdint.h</text>
</a>
</g>
</g>
<!-- Node6&#45;&gt;Node7 -->
<g id="edge6_Node000006_Node000007" class="edge">
<title>Node6&#45;&gt;Node7</title>
<g id="a_edge6_Node000006_Node000007"><a xlink:title=" ">
<path fill="none" stroke="#63b8ff" d="M420.11,-109.69C428.53,-95.94 446.65,-69.47 469,-55 504.73,-31.87 552.77,-20.47 585.42,-15.05"/>
<polygon fill="#63b8ff" stroke="#63b8ff" points="586.1,-18.49 595.45,-13.5 585.03,-11.57 586.1,-18.49"/>
</a>
</g>
</g>
<!-- Node8 -->
<g id="Node000008" class="node">
<title>Node8</title>
<g id="a_Node000008"><a xlink:href="no__os__delay_8h.html" target="_top" xlink:title="Header file of Delay functions.">
<polygon fill="white" stroke="#666666" points="563.5,-74 478.5,-74 478.5,-55 563.5,-55 563.5,-74"/>
<text text-anchor="middle" x="521" y="-62" font-family="Helvetica,sans-Serif" font-size="10.00">no_os_delay.h</text>
</a>
</g>
</g>
<!-- Node6&#45;&gt;Node8 -->
<g id="edge8_Node000006_Node000008" class="edge">
<title>Node6&#45;&gt;Node8</title>
<g id="a_edge8_Node000006_Node000008"><a xlink:title=" ">
<path fill="none" stroke="#63b8ff" d="M432.03,-109.98C448.93,-101.54 475.06,-88.47 494.64,-78.68"/>
<polygon fill="#63b8ff" stroke="#63b8ff" points="496.28,-81.77 503.66,-74.17 493.15,-75.51 496.28,-81.77"/>
</a>
</g>
</g>
<!-- Node9 -->
<g id="Node000009" class="node">
<title>Node9</title>
<g id="a_Node000009"><a xlink:href="no__os__gpio_8h.html" target="_top" xlink:title="Header file of GPIO Interface.">
<polygon fill="white" stroke="#666666" points="662,-74 582,-74 582,-55 662,-55 662,-74"/>
<text text-anchor="middle" x="622" y="-62" font-family="Helvetica,sans-Serif" font-size="10.00">no_os_gpio.h</text>
</a>
</g>
</g>
<!-- Node6&#45;&gt;Node9 -->
<g id="edge10_Node000006_Node000009" class="edge">
<title>Node6&#45;&gt;Node9</title>
<g id="a_edge10_Node000006_Node000009"><a xlink:title=" ">
<path fill="none" stroke="#63b8ff" d="M446.44,-110.45C481.71,-101.42 539.15,-86.71 578.66,-76.6"/>
<polygon fill="#63b8ff" stroke="#63b8ff" points="579.73,-79.94 588.55,-74.07 577.99,-73.16 579.73,-79.94"/>
</a>
</g>
</g>
<!-- Node10 -->
<g id="Node000010" class="node">
<title>Node10</title>
<g id="a_Node000010"><a xlink:href="no__os__spi_8h.html" target="_top" xlink:title="Header file of SPI Interface.">
<polygon fill="white" stroke="#666666" points="754,-74 680,-74 680,-55 754,-55 754,-74"/>
<text text-anchor="middle" x="717" y="-62" font-family="Helvetica,sans-Serif" font-size="10.00">no_os_spi.h</text>
</a>
</g>
</g>
<!-- Node6&#45;&gt;Node10 -->
<g id="edge12_Node000006_Node000010" class="edge">
<title>Node6&#45;&gt;Node10</title>
<g id="a_edge12_Node000006_Node000010"><a xlink:title=" ">
<path fill="none" stroke="#63b8ff" d="M446.15,-113.19C492.58,-105.26 582.93,-89.74 669.82,-74.2"/>
<polygon fill="#63b8ff" stroke="#63b8ff" points="670.62,-77.61 679.85,-72.4 669.39,-70.72 670.62,-77.61"/>
</a>
</g>
</g>
<!-- Node6&#45;&gt;Node11 -->
<g id="edge14_Node000006_Node000011" class="edge">
<title>Node6&#45;&gt;Node11</title>
<g id="a_edge14_Node000006_Node000011"><a xlink:title=" ">
<path fill="none" stroke="#63b8ff" d="M387.53,-109.98C358.82,-101.09 313.58,-87.07 281.58,-77.15"/>
<polygon fill="#63b8ff" stroke="#63b8ff" points="282.28,-73.7 271.69,-74.08 280.2,-80.39 282.28,-73.7"/>
</a>
</g>
</g>
<!-- Node12 -->
<g id="Node000012" class="node">
<title>Node12</title>
<g id="a_Node000012"><a xlink:href="no__os__pwm_8h.html" target="_top" xlink:title="Header file of PWM Interface.">
<polygon fill="white" stroke="#666666" points="421.5,-74 338.5,-74 338.5,-55 421.5,-55 421.5,-74"/>
<text text-anchor="middle" x="380" y="-62" font-family="Helvetica,sans-Serif" font-size="10.00">no_os_pwm.h</text>
</a>
</g>
</g>
<!-- Node6&#45;&gt;Node12 -->
<g id="edge18_Node000006_Node000012" class="edge">
<title>Node6&#45;&gt;Node12</title>
<g id="a_edge18_Node000006_Node000012"><a xlink:title=" ">
<path fill="none" stroke="#63b8ff" d="M409.22,-109.75C404.38,-102.42 397.32,-91.73 391.36,-82.7"/>
<polygon fill="#63b8ff" stroke="#63b8ff" points="394.1,-80.5 385.67,-74.09 388.26,-84.36 394.1,-80.5"/>
</a>
</g>
</g>
<!-- Node8&#45;&gt;Node7 -->
<g id="edge9_Node000008_Node000007" class="edge">
<title>Node8&#45;&gt;Node7</title>
<g id="a_edge9_Node000008_Node000007"><a xlink:title=" ">
<path fill="none" stroke="#63b8ff" d="M537.23,-54.98C553.18,-46.61 577.78,-33.7 596.38,-23.95"/>
<polygon fill="#63b8ff" stroke="#63b8ff" points="598.25,-26.92 605.48,-19.17 595,-20.72 598.25,-26.92"/>
</a>
</g>
</g>
<!-- Node9&#45;&gt;Node7 -->
<g id="edge11_Node000009_Node000007" class="edge">
<title>Node9&#45;&gt;Node7</title>
<g id="a_edge11_Node000009_Node000007"><a xlink:title=" ">
<path fill="none" stroke="#63b8ff" d="M622,-54.75C622,-47.8 622,-37.85 622,-29.13"/>
<polygon fill="#63b8ff" stroke="#63b8ff" points="625.5,-29.09 622,-19.09 618.5,-29.09 625.5,-29.09"/>
</a>
</g>
</g>
<!-- Node10&#45;&gt;Node7 -->
<g id="edge13_Node000010_Node000007" class="edge">
<title>Node10&#45;&gt;Node7</title>
<g id="a_edge13_Node000010_Node000007"><a xlink:title=" ">
<path fill="none" stroke="#63b8ff" d="M701.74,-54.98C686.87,-46.69 664.02,-33.94 646.58,-24.22"/>
<polygon fill="#63b8ff" stroke="#63b8ff" points="647.98,-20.99 637.54,-19.17 644.57,-27.1 647.98,-20.99"/>
</a>
</g>
</g>
<!-- Node11&#45;&gt;Node3 -->
<g id="edge16_Node000011_Node000003" class="edge">
<title>Node11&#45;&gt;Node3</title>
<g id="a_edge16_Node000011_Node000003"><a xlink:title=" ">
<path fill="none" stroke="#63b8ff" d="M227.29,-54.98C210.79,-46.57 185.3,-33.59 166.12,-23.81"/>
<polygon fill="#63b8ff" stroke="#63b8ff" points="167.51,-20.59 157.01,-19.17 164.33,-26.83 167.51,-20.59"/>
</a>
</g>
</g>
<!-- Node11&#45;&gt;Node4 -->
<g id="edge17_Node000011_Node000004" class="edge">
<title>Node11&#45;&gt;Node4</title>
<g id="a_edge17_Node000011_Node000004"><a xlink:title=" ">
<path fill="none" stroke="#63b8ff" d="M249.45,-54.75C254.01,-47.42 260.67,-36.73 266.29,-27.7"/>
<polygon fill="#63b8ff" stroke="#63b8ff" points="269.34,-29.43 271.65,-19.09 263.4,-25.73 269.34,-29.43"/>
</a>
</g>
</g>
<!-- Node11&#45;&gt;Node7 -->
<g id="edge15_Node000011_Node000007" class="edge">
<title>Node11&#45;&gt;Node7</title>
<g id="a_edge15_Node000011_Node000007"><a xlink:title=" ">
<path fill="none" stroke="#63b8ff" d="M281.63,-58.22C354.42,-48.02 513.68,-25.69 585.54,-15.61"/>
<polygon fill="#63b8ff" stroke="#63b8ff" points="586.07,-19.07 595.49,-14.22 585.1,-12.14 586.07,-19.07"/>
</a>
</g>
</g>
<!-- Node12&#45;&gt;Node4 -->
<g id="edge20_Node000012_Node000004" class="edge">
<title>Node12&#45;&gt;Node4</title>
<g id="a_edge20_Node000012_Node000004"><a xlink:title=" ">
<path fill="none" stroke="#63b8ff" d="M363.45,-54.98C347.11,-46.57 321.87,-33.59 302.87,-23.81"/>
<polygon fill="#63b8ff" stroke="#63b8ff" points="304.34,-20.63 293.85,-19.17 301.14,-26.86 304.34,-20.63"/>
</a>
</g>
</g>
<!-- Node12&#45;&gt;Node7 -->
<g id="edge19_Node000012_Node000007" class="edge">
<title>Node12&#45;&gt;Node7</title>
<g id="a_edge19_Node000012_Node000007"><a xlink:title=" ">
<path fill="none" stroke="#63b8ff" d="M418.88,-54.98C464.74,-44.94 540.41,-28.37 585.3,-18.54"/>
<polygon fill="#63b8ff" stroke="#63b8ff" points="586.18,-21.93 595.2,-16.37 584.69,-15.09 586.18,-21.93"/>
</a>
</g>
</g>
<!-- Node14 -->
<g id="Node000014" class="node">
<title>Node14</title>
<g id="a_Node000014"><a xlink:href="errno_8h.html" target="_top" xlink:title="Error macro definition for ARM Compiler.">
<polygon fill="white" stroke="#666666" points="1129.5,-74 1078.5,-74 1078.5,-55 1129.5,-55 1129.5,-74"/>
<text text-anchor="middle" x="1104" y="-62" font-family="Helvetica,sans-Serif" font-size="10.00">errno.h</text>
</a>
</g>
</g>
<!-- Node13&#45;&gt;Node14 -->
<g id="edge22_Node000013_Node000014" class="edge">
<title>Node13&#45;&gt;Node14</title>
<g id="a_edge22_Node000013_Node000014"><a xlink:title=" ">
<path fill="none" stroke="#63b8ff" d="M1051.96,-109.98C1061.13,-102.15 1074.94,-90.34 1086.03,-80.86"/>
<polygon fill="#63b8ff" stroke="#63b8ff" points="1088.53,-83.33 1093.86,-74.17 1083.98,-78.01 1088.53,-83.33"/>
</a>
</g>
</g>
<!-- Node16 -->
<g id="Node000016" class="node">
<title>Node16</title>
<g id="a_Node000016"><a xlink:href="no__os__crc8_8h.html" target="_top" xlink:title="Header file of CRC&#45;8 computation.">
<polygon fill="white" stroke="#666666" points="852,-74 772,-74 772,-55 852,-55 852,-74"/>
<text text-anchor="middle" x="812" y="-62" font-family="Helvetica,sans-Serif" font-size="10.00">no_os_crc8.h</text>
</a>
</g>
</g>
<!-- Node15&#45;&gt;Node16 -->
<g id="edge25_Node000015_Node000016" class="edge">
<title>Node15&#45;&gt;Node16</title>
<g id="a_edge25_Node000015_Node000016"><a xlink:title=" ">
<path fill="none" stroke="#63b8ff" d="M812,-109.75C812,-102.8 812,-92.85 812,-84.13"/>
<polygon fill="#63b8ff" stroke="#63b8ff" points="815.5,-84.09 812,-74.09 808.5,-84.09 815.5,-84.09"/>
</a>
</g>
</g>
<!-- Node18 -->
<g id="Node000018" class="node">
<title>Node18</title>
<g id="a_Node000018"><a xlink:href="no__os__crc16_8h.html" target="_top" xlink:title="Header file of CRC&#45;16 computation.">
<polygon fill="white" stroke="#666666" points="956,-74 870,-74 870,-55 956,-55 956,-74"/>
<text text-anchor="middle" x="913" y="-62" font-family="Helvetica,sans-Serif" font-size="10.00">no_os_crc16.h</text>
</a>
</g>
</g>
<!-- Node15&#45;&gt;Node18 -->
<g id="edge28_Node000015_Node000018" class="edge">
<title>Node15&#45;&gt;Node18</title>
<g id="a_edge28_Node000015_Node000018"><a xlink:title=" ">
<path fill="none" stroke="#63b8ff" d="M828.23,-109.98C844.18,-101.61 868.78,-88.7 887.38,-78.95"/>
<polygon fill="#63b8ff" stroke="#63b8ff" points="889.25,-81.92 896.48,-74.17 886,-75.72 889.25,-81.92"/>
</a>
</g>
</g>
<!-- Node19 -->
<g id="Node000019" class="node">
<title>Node19</title>
<g id="a_Node000019"><a xlink:href="no__os__crc24_8h.html" target="_top" xlink:title="Header file of CRC&#45;24 computation.">
<polygon fill="white" stroke="#666666" points="1060,-74 974,-74 974,-55 1060,-55 1060,-74"/>
<text text-anchor="middle" x="1017" y="-62" font-family="Helvetica,sans-Serif" font-size="10.00">no_os_crc24.h</text>
</a>
</g>
</g>
<!-- Node15&#45;&gt;Node19 -->
<g id="edge31_Node000015_Node000019" class="edge">
<title>Node15&#45;&gt;Node19</title>
<g id="a_edge31_Node000015_Node000019"><a xlink:title=" ">
<path fill="none" stroke="#63b8ff" d="M844.94,-109.98C879.95,-100.93 935.47,-86.58 973.93,-76.64"/>
<polygon fill="#63b8ff" stroke="#63b8ff" points="975,-79.97 983.81,-74.08 973.25,-73.2 975,-79.97"/>
</a>
</g>
</g>
<!-- Node16&#45;&gt;Node7 -->
<g id="edge26_Node000016_Node000007" class="edge">
<title>Node16&#45;&gt;Node7</title>
<g id="a_edge26_Node000016_Node000007"><a xlink:title=" ">
<path fill="none" stroke="#63b8ff" d="M781.47,-54.98C748.06,-45.66 694.49,-30.72 658.78,-20.76"/>
<polygon fill="#63b8ff" stroke="#63b8ff" points="659.34,-17.28 648.77,-17.97 657.46,-24.02 659.34,-17.28"/>
</a>
</g>
</g>
<!-- Node17 -->
<g id="Node000017" class="node">
<title>Node17</title>
<g id="a_Node000017"><a xlink:title=" ">
<polygon fill="#e0e0e0" stroke="#999999" points="941,-19 885,-19 885,0 941,0 941,-19"/>
<text text-anchor="middle" x="913" y="-7" font-family="Helvetica,sans-Serif" font-size="10.00">stddef.h</text>
</a>
</g>
</g>
<!-- Node16&#45;&gt;Node17 -->
<g id="edge27_Node000016_Node000017" class="edge">
<title>Node16&#45;&gt;Node17</title>
<g id="a_edge27_Node000016_Node000017"><a xlink:title=" ">
<path fill="none" stroke="#63b8ff" d="M828.23,-54.98C844.18,-46.61 868.78,-33.7 887.38,-23.95"/>
<polygon fill="#63b8ff" stroke="#63b8ff" points="889.25,-26.92 896.48,-19.17 886,-20.72 889.25,-26.92"/>
</a>
</g>
</g>
<!-- Node18&#45;&gt;Node7 -->
<g id="edge29_Node000018_Node000007" class="edge">
<title>Node18&#45;&gt;Node7</title>
<g id="a_edge29_Node000018_Node000007"><a xlink:title=" ">
<path fill="none" stroke="#63b8ff" d="M869.75,-55.62C812.45,-45.19 712.39,-26.96 658.63,-17.17"/>
<polygon fill="#63b8ff" stroke="#63b8ff" points="658.99,-13.68 648.52,-15.33 657.74,-20.57 658.99,-13.68"/>
</a>
</g>
</g>
<!-- Node18&#45;&gt;Node17 -->
<g id="edge30_Node000018_Node000017" class="edge">
<title>Node18&#45;&gt;Node17</title>
<g id="a_edge30_Node000018_Node000017"><a xlink:title=" ">
<path fill="none" stroke="#63b8ff" d="M913,-54.75C913,-47.8 913,-37.85 913,-29.13"/>
<polygon fill="#63b8ff" stroke="#63b8ff" points="916.5,-29.09 913,-19.09 909.5,-29.09 916.5,-29.09"/>
</a>
</g>
</g>
<!-- Node19&#45;&gt;Node7 -->
<g id="edge32_Node000019_Node000007" class="edge">
<title>Node19&#45;&gt;Node7</title>
<g id="a_edge32_Node000019_Node000007"><a xlink:title=" ">
<path fill="none" stroke="#63b8ff" d="M973.89,-56.34C970.88,-55.88 967.9,-55.42 965,-55 853.8,-38.7 721.85,-22.45 658.93,-14.89"/>
<polygon fill="#63b8ff" stroke="#63b8ff" points="659.07,-11.38 648.73,-13.66 658.24,-18.33 659.07,-11.38"/>
</a>
</g>
</g>
<!-- Node19&#45;&gt;Node17 -->
<g id="edge33_Node000019_Node000017" class="edge">
<title>Node19&#45;&gt;Node17</title>
<g id="a_edge33_Node000019_Node000017"><a xlink:title=" ">
<path fill="none" stroke="#63b8ff" d="M1000.29,-54.98C983.79,-46.57 958.3,-33.59 939.12,-23.81"/>
<polygon fill="#63b8ff" stroke="#63b8ff" points="940.51,-20.59 930.01,-19.17 937.33,-26.83 940.51,-20.59"/>
</a>
</g>
</g>
<!-- Node20&#45;&gt;Node2 -->
<g id="edge35_Node000020_Node000002" class="edge">
<title>Node20&#45;&gt;Node2</title>
<g id="a_edge35_Node000020_Node000002"><a xlink:title=" ">
<path fill="none" stroke="#63b8ff" d="M62.57,-109.75C56.15,-102.18 46.69,-91.05 38.88,-81.84"/>
<polygon fill="#63b8ff" stroke="#63b8ff" points="41.43,-79.45 32.29,-74.09 36.1,-83.98 41.43,-79.45"/>
</a>
</g>
</g>
<!-- Node20&#45;&gt;Node3 -->
<g id="edge36_Node000020_Node000003" class="edge">
<title>Node20&#45;&gt;Node3</title>
<g id="a_edge36_Node000020_Node000003"><a xlink:title=" ">
<path fill="none" stroke="#63b8ff" d="M75.73,-109.66C87.32,-91.77 113.75,-51 128.86,-27.69"/>
<polygon fill="#63b8ff" stroke="#63b8ff" points="131.89,-29.45 134.39,-19.16 126.01,-25.65 131.89,-29.45"/>
</a>
</g>
</g>
</g>
</svg>
