<?xml version="1.0" encoding="UTF-8" standalone="no"?>
<!DOCTYPE svg PUBLIC "-//W3C//DTD SVG 1.1//EN"
 "http://www.w3.org/Graphics/SVG/1.1/DTD/svg11.dtd">
<!-- Generated by graphviz version 2.43.0 (0)
 -->
<!-- Title: drivers/adc/ad7779/ad7779.h Pages: 1 -->
<svg width="380pt" height="148pt"
 viewBox="0.00 0.00 379.60 148.00" xmlns="http://www.w3.org/2000/svg" xmlns:xlink="http://www.w3.org/1999/xlink">
<g id="graph0" class="graph" transform="scale(1 1) rotate(0) translate(4 144)">
<title>drivers/adc/ad7779/ad7779.h</title>
<!-- Node1 -->
<g id="Node000001" class="node">
<title>Node1</title>
<g id="a_Node000001"><a xlink:title="Header file of AD7779 Driver.">
<polygon fill="#999999" stroke="#666666" points="193.6,-140 83.6,-140 83.6,-110 193.6,-110 193.6,-140"/>
<text text-anchor="start" x="91.6" y="-128" font-family="Helvetica,sans-Serif" font-size="10.00">drivers/adc/ad7779</text>
<text text-anchor="middle" x="138.6" y="-117" font-family="Helvetica,sans-Serif" font-size="10.00">/ad7779.h</text>
</a>
</g>
</g>
<!-- Node2 -->
<g id="Node000002" class="node">
<title>Node2</title>
<g id="a_Node000002"><a xlink:title=" ">
<polygon fill="#e0e0e0" stroke="#999999" points="215.1,-19 162.1,-19 162.1,0 215.1,0 215.1,-19"/>
<text text-anchor="middle" x="188.6" y="-7" font-family="Helvetica,sans-Serif" font-size="10.00">stdint.h</text>
</a>
</g>
</g>
<!-- Node1&#45;&gt;Node2 -->
<g id="edge1_Node000001_Node000002" class="edge">
<title>Node1&#45;&gt;Node2</title>
<g id="a_edge1_Node000001_Node000002"><a xlink:title=" ">
<path fill="none" stroke="#63b8ff" d="M83.4,-115.35C36.86,-105.65 -18.47,-86.93 6.6,-55 24.33,-32.41 104.16,-19.82 152.01,-14.17"/>
<polygon fill="#63b8ff" stroke="#63b8ff" points="152.45,-17.64 161.99,-13.04 151.66,-10.69 152.45,-17.64"/>
</a>
</g>
</g>
<!-- Node3 -->
<g id="Node000003" class="node">
<title>Node3</title>
<g id="a_Node000003"><a xlink:title=" ">
<polygon fill="#e0e0e0" stroke="#999999" points="77.6,-74 15.6,-74 15.6,-55 77.6,-55 77.6,-74"/>
<text text-anchor="middle" x="46.6" y="-62" font-family="Helvetica,sans-Serif" font-size="10.00">stdbool.h</text>
</a>
</g>
</g>
<!-- Node1&#45;&gt;Node3 -->
<g id="edge2_Node000001_Node000003" class="edge">
<title>Node1&#45;&gt;Node3</title>
<g id="a_edge2_Node000001_Node000003"><a xlink:title=" ">
<path fill="none" stroke="#63b8ff" d="M116.33,-109.84C101.93,-100.68 83.27,-88.82 68.87,-79.66"/>
<polygon fill="#63b8ff" stroke="#63b8ff" points="70.43,-76.51 60.12,-74.09 66.68,-82.41 70.43,-76.51"/>
</a>
</g>
</g>
<!-- Node4 -->
<g id="Node000004" class="node">
<title>Node4</title>
<g id="a_Node000004"><a xlink:href="no__os__delay_8h.html" target="_top" xlink:title="Header file of Delay functions.">
<polygon fill="white" stroke="#666666" points="181.1,-74 96.1,-74 96.1,-55 181.1,-55 181.1,-74"/>
<text text-anchor="middle" x="138.6" y="-62" font-family="Helvetica,sans-Serif" font-size="10.00">no_os_delay.h</text>
</a>
</g>
</g>
<!-- Node1&#45;&gt;Node4 -->
<g id="edge3_Node000001_Node000004" class="edge">
<title>Node1&#45;&gt;Node4</title>
<g id="a_edge3_Node000001_Node000004"><a xlink:title=" ">
<path fill="none" stroke="#63b8ff" d="M138.6,-109.84C138.6,-102.21 138.6,-92.7 138.6,-84.45"/>
<polygon fill="#63b8ff" stroke="#63b8ff" points="142.1,-84.27 138.6,-74.27 135.1,-84.27 142.1,-84.27"/>
</a>
</g>
</g>
<!-- Node5 -->
<g id="Node000005" class="node">
<title>Node5</title>
<g id="a_Node000005"><a xlink:href="no__os__gpio_8h.html" target="_top" xlink:title="Header file of GPIO Interface.">
<polygon fill="white" stroke="#666666" points="279.6,-74 199.6,-74 199.6,-55 279.6,-55 279.6,-74"/>
<text text-anchor="middle" x="239.6" y="-62" font-family="Helvetica,sans-Serif" font-size="10.00">no_os_gpio.h</text>
</a>
</g>
</g>
<!-- Node1&#45;&gt;Node5 -->
<g id="edge5_Node000001_Node000005" class="edge">
<title>Node1&#45;&gt;Node5</title>
<g id="a_edge5_Node000001_Node000005"><a xlink:title=" ">
<path fill="none" stroke="#63b8ff" d="M162.79,-109.99C178.89,-100.66 199.94,-88.47 215.93,-79.21"/>
<polygon fill="#63b8ff" stroke="#63b8ff" points="217.79,-82.18 224.69,-74.14 214.28,-76.12 217.79,-82.18"/>
</a>
</g>
</g>
<!-- Node6 -->
<g id="Node000006" class="node">
<title>Node6</title>
<g id="a_Node000006"><a xlink:href="no__os__spi_8h.html" target="_top" xlink:title="Header file of SPI Interface.">
<polygon fill="white" stroke="#666666" points="371.6,-74 297.6,-74 297.6,-55 371.6,-55 371.6,-74"/>
<text text-anchor="middle" x="334.6" y="-62" font-family="Helvetica,sans-Serif" font-size="10.00">no_os_spi.h</text>
</a>
</g>
</g>
<!-- Node1&#45;&gt;Node6 -->
<g id="edge7_Node000001_Node000006" class="edge">
<title>Node1&#45;&gt;Node6</title>
<g id="a_edge7_Node000001_Node000006"><a xlink:title=" ">
<path fill="none" stroke="#63b8ff" d="M185.55,-109.99C219.37,-99.89 264.46,-86.44 296.15,-76.98"/>
<polygon fill="#63b8ff" stroke="#63b8ff" points="297.36,-80.27 305.94,-74.05 295.36,-73.56 297.36,-80.27"/>
</a>
</g>
</g>
<!-- Node4&#45;&gt;Node2 -->
<g id="edge4_Node000004_Node000002" class="edge">
<title>Node4&#45;&gt;Node2</title>
<g id="a_edge4_Node000004_Node000002"><a xlink:title=" ">
<path fill="none" stroke="#63b8ff" d="M146.86,-54.75C154.07,-47.11 164.71,-35.82 173.45,-26.56"/>
<polygon fill="#63b8ff" stroke="#63b8ff" points="176.18,-28.76 180.5,-19.09 171.09,-23.96 176.18,-28.76"/>
</a>
</g>
</g>
<!-- Node5&#45;&gt;Node2 -->
<g id="edge6_Node000005_Node000002" class="edge">
<title>Node5&#45;&gt;Node2</title>
<g id="a_edge6_Node000005_Node000002"><a xlink:title=" ">
<path fill="none" stroke="#63b8ff" d="M231.18,-54.75C223.83,-47.11 212.97,-35.82 204.06,-26.56"/>
<polygon fill="#63b8ff" stroke="#63b8ff" points="206.32,-23.87 196.87,-19.09 201.28,-28.72 206.32,-23.87"/>
</a>
</g>
</g>
<!-- Node6&#45;&gt;Node2 -->
<g id="edge8_Node000006_Node000002" class="edge">
<title>Node6&#45;&gt;Node2</title>
<g id="a_edge8_Node000006_Node000002"><a xlink:title=" ">
<path fill="none" stroke="#63b8ff" d="M311.14,-54.98C287.02,-46.23 249.24,-32.51 222,-22.62"/>
<polygon fill="#63b8ff" stroke="#63b8ff" points="223.08,-19.29 212.49,-19.17 220.69,-25.87 223.08,-19.29"/>
</a>
</g>
</g>
</g>
</svg>
