<?xml version="1.0" encoding="UTF-8" standalone="no"?>
<!DOCTYPE svg PUBLIC "-//W3C//DTD SVG 1.1//EN"
 "http://www.w3.org/Graphics/SVG/1.1/DTD/svg11.dtd">
<!-- Generated by graphviz version 2.43.0 (0)
 -->
<!-- Title: ad77681_spi_read_mask Pages: 1 -->
<svg width="521pt" height="113pt"
 viewBox="0.00 0.00 521.00 113.00" xmlns="http://www.w3.org/2000/svg" xmlns:xlink="http://www.w3.org/1999/xlink">
<g id="graph0" class="graph" transform="scale(1 1) rotate(0) translate(4 109)">
<title>ad77681_spi_read_mask</title>
<!-- Node1 -->
<g id="Node000001" class="node">
<title>Node1</title>
<g id="a_Node000001"><a xlink:title=" ">
<polygon fill="#999999" stroke="#666666" points="513,-62 376,-62 376,-43 513,-43 513,-62"/>
<text text-anchor="middle" x="444.5" y="-50" font-family="Helvetica,sans-Serif" font-size="10.00">ad77681_spi_read_mask</text>
</a>
</g>
</g>
<!-- Node2 -->
<g id="Node000002" class="node">
<title>Node2</title>
<g id="a_Node000002"><a xlink:href="ad77681_8c.html#a30a7d016031a1a7c7f9df3532cee2f1c" target="_top" xlink:title=" ">
<polygon fill="white" stroke="#666666" points="328,-105 216,-105 216,-86 328,-86 328,-105"/>
<text text-anchor="middle" x="272" y="-93" font-family="Helvetica,sans-Serif" font-size="10.00">ad77681_gpio_read</text>
</a>
</g>
</g>
<!-- Node1&#45;&gt;Node2 -->
<g id="edge1_Node000001_Node000002" class="edge">
<title>Node1&#45;&gt;Node2</title>
<g id="a_edge1_Node000001_Node000002"><a xlink:title=" ">
<path fill="none" stroke="#63b8ff" d="M395.7,-64.56C368.83,-71.33 335.77,-79.67 310.73,-85.98"/>
<polygon fill="#63b8ff" stroke="#63b8ff" points="396.82,-67.88 405.66,-62.04 395.11,-61.09 396.82,-67.88"/>
</a>
</g>
</g>
<!-- Node3 -->
<g id="Node000003" class="node">
<title>Node3</title>
<g id="a_Node000003"><a xlink:href="ad77681_8c.html#a99916ee432c0763165175cbea946f432" target="_top" xlink:title=" ">
<polygon fill="white" stroke="#666666" points="340,-67.5 204,-67.5 204,-37.5 340,-37.5 340,-67.5"/>
<text text-anchor="start" x="212" y="-55.5" font-family="Helvetica,sans-Serif" font-size="10.00">ad77681_programmable</text>
<text text-anchor="middle" x="272" y="-44.5" font-family="Helvetica,sans-Serif" font-size="10.00">_filter</text>
</a>
</g>
</g>
<!-- Node1&#45;&gt;Node3 -->
<g id="edge2_Node000001_Node000003" class="edge">
<title>Node1&#45;&gt;Node3</title>
<g id="a_edge2_Node000001_Node000003"><a xlink:title=" ">
<path fill="none" stroke="#63b8ff" d="M365.39,-52.5C356.93,-52.5 348.39,-52.5 340.09,-52.5"/>
<polygon fill="#63b8ff" stroke="#63b8ff" points="365.62,-56 375.62,-52.5 365.62,-49 365.62,-56"/>
</a>
</g>
</g>
<!-- Node4 -->
<g id="Node000004" class="node">
<title>Node4</title>
<g id="a_Node000004"><a xlink:href="ad77681_8c.html#a8263dc977620e304b95ba0ea01e04874" target="_top" xlink:title=" ">
<polygon fill="white" stroke="#666666" points="330.5,-19 213.5,-19 213.5,0 330.5,0 330.5,-19"/>
<text text-anchor="middle" x="272" y="-7" font-family="Helvetica,sans-Serif" font-size="10.00">ad77681_scratchpad</text>
</a>
</g>
</g>
<!-- Node1&#45;&gt;Node4 -->
<g id="edge3_Node000001_Node000004" class="edge">
<title>Node1&#45;&gt;Node4</title>
<g id="a_edge3_Node000001_Node000004"><a xlink:title=" ">
<path fill="none" stroke="#63b8ff" d="M395.7,-40.44C368.83,-33.67 335.77,-25.33 310.73,-19.02"/>
<polygon fill="#63b8ff" stroke="#63b8ff" points="395.11,-43.91 405.66,-42.96 396.82,-37.12 395.11,-43.91"/>
</a>
</g>
</g>
<!-- Node5 -->
<g id="Node000005" class="node">
<title>Node5</title>
<g id="a_Node000005"><a xlink:href="ad77681_8c.html#a462935549432e532a6b9526b4807f862" target="_top" xlink:title=" ">
<polygon fill="white" stroke="#666666" points="168,-19 77,-19 77,0 168,0 168,-19"/>
<text text-anchor="middle" x="122.5" y="-7" font-family="Helvetica,sans-Serif" font-size="10.00">ad77681_setup</text>
</a>
</g>
</g>
<!-- Node4&#45;&gt;Node5 -->
<g id="edge4_Node000004_Node000005" class="edge">
<title>Node4&#45;&gt;Node5</title>
<g id="a_edge4_Node000004_Node000005"><a xlink:title=" ">
<path fill="none" stroke="#63b8ff" d="M202.92,-9.5C191.22,-9.5 179.33,-9.5 168.44,-9.5"/>
<polygon fill="#63b8ff" stroke="#63b8ff" points="203.13,-13 213.13,-9.5 203.13,-6 203.13,-13"/>
</a>
</g>
</g>
<!-- Node6 -->
<g id="Node000006" class="node">
<title>Node6</title>
<g id="a_Node000006"><a xlink:href="ad77681evb_8c.html#ae66f6b31b5ad750f1fe042a706a4e3d4" target="_top" xlink:title=" ">
<polygon fill="white" stroke="#666666" points="41,-19 0,-19 0,0 41,0 41,-19"/>
<text text-anchor="middle" x="20.5" y="-7" font-family="Helvetica,sans-Serif" font-size="10.00">main</text>
</a>
</g>
</g>
<!-- Node5&#45;&gt;Node6 -->
<g id="edge5_Node000005_Node000006" class="edge">
<title>Node5&#45;&gt;Node6</title>
<g id="a_edge5_Node000005_Node000006"><a xlink:title=" ">
<path fill="none" stroke="#63b8ff" d="M66.49,-9.5C57.42,-9.5 48.57,-9.5 41.15,-9.5"/>
<polygon fill="#63b8ff" stroke="#63b8ff" points="66.76,-13 76.76,-9.5 66.76,-6 66.76,-13"/>
</a>
</g>
</g>
</g>
</svg>
