<?xml version="1.0" encoding="UTF-8" standalone="no"?>
<!DOCTYPE svg PUBLIC "-//W3C//DTD SVG 1.1//EN"
 "http://www.w3.org/Graphics/SVG/1.1/DTD/svg11.dtd">
<!-- Generated by graphviz version 2.43.0 (0)
 -->
<!-- Title: ad7768_spi_write_mask Pages: 1 -->
<svg width="592pt" height="335pt"
 viewBox="0.00 0.00 592.00 334.50" xmlns="http://www.w3.org/2000/svg" xmlns:xlink="http://www.w3.org/1999/xlink">
<g id="graph0" class="graph" transform="scale(1 1) rotate(0) translate(4 330.5)">
<title>ad7768_spi_write_mask</title>
<!-- Node1 -->
<g id="Node000001" class="node">
<title>Node1</title>
<g id="a_Node000001"><a xlink:title=" ">
<polygon fill="#999999" stroke="#666666" points="584,-178.5 450,-178.5 450,-159.5 584,-159.5 584,-178.5"/>
<text text-anchor="middle" x="517" y="-166.5" font-family="Helvetica,sans-Serif" font-size="10.00">ad7768_spi_write_mask</text>
</a>
</g>
</g>
<!-- Node2 -->
<g id="Node000002" class="node">
<title>Node2</title>
<g id="a_Node000002"><a xlink:href="ad7768_8c.html#a75a4633da04aeae360a9e6de8bfd8264" target="_top" xlink:title=" ">
<polygon fill="white" stroke="#666666" points="404.5,-326.5 282.5,-326.5 282.5,-307.5 404.5,-307.5 404.5,-326.5"/>
<text text-anchor="middle" x="343.5" y="-314.5" font-family="Helvetica,sans-Serif" font-size="10.00">ad7768_set_ch_mode</text>
</a>
</g>
</g>
<!-- Node1&#45;&gt;Node2 -->
<g id="edge1_Node000001_Node000002" class="edge">
<title>Node1&#45;&gt;Node2</title>
<g id="a_edge1_Node000001_Node000002"><a xlink:title=" ">
<path fill="none" stroke="#63b8ff" d="M506.66,-187.49C491.31,-215.95 458.02,-270.19 414,-299 408.79,-302.41 402.96,-305.18 396.95,-307.42"/>
<polygon fill="#63b8ff" stroke="#63b8ff" points="509.78,-189.07 511.33,-178.59 503.58,-185.82 509.78,-189.07"/>
</a>
</g>
</g>
<!-- Node3 -->
<g id="Node000003" class="node">
<title>Node3</title>
<g id="a_Node000003"><a xlink:href="ad7768_8c.html#a0539eedcb52586e791f5537f43b6a2d8" target="_top" xlink:title=" ">
<polygon fill="white" stroke="#666666" points="403,-289.5 284,-289.5 284,-270.5 403,-270.5 403,-289.5"/>
<text text-anchor="middle" x="343.5" y="-277.5" font-family="Helvetica,sans-Serif" font-size="10.00">ad7768_set_ch_state</text>
</a>
</g>
</g>
<!-- Node1&#45;&gt;Node3 -->
<g id="edge2_Node000001_Node000003" class="edge">
<title>Node1&#45;&gt;Node3</title>
<g id="a_edge2_Node000001_Node000003"><a xlink:title=" ">
<path fill="none" stroke="#63b8ff" d="M501.77,-186.35C483.59,-207.39 450.11,-242.44 414,-262 407.75,-265.38 400.84,-268.15 393.87,-270.41"/>
<polygon fill="#63b8ff" stroke="#63b8ff" points="504.6,-188.43 508.39,-178.53 499.26,-183.91 504.6,-188.43"/>
</a>
</g>
</g>
<!-- Node4 -->
<g id="Node000004" class="node">
<title>Node4</title>
<g id="a_Node000004"><a xlink:href="ad7768_8c.html#a0de1000a66fa0d211000a219d35e11bf" target="_top" xlink:title=" ">
<polygon fill="white" stroke="#666666" points="403,-252.5 284,-252.5 284,-233.5 403,-233.5 403,-252.5"/>
<text text-anchor="middle" x="343.5" y="-240.5" font-family="Helvetica,sans-Serif" font-size="10.00">ad7768_set_conv_op</text>
</a>
</g>
</g>
<!-- Node1&#45;&gt;Node4 -->
<g id="edge3_Node000001_Node000004" class="edge">
<title>Node1&#45;&gt;Node4</title>
<g id="a_edge3_Node000001_Node000004"><a xlink:title=" ">
<path fill="none" stroke="#63b8ff" d="M492.86,-183.88C472.7,-196.31 442.33,-213.76 414,-225 405.77,-228.26 396.77,-231.1 388.04,-233.5"/>
<polygon fill="#63b8ff" stroke="#63b8ff" points="494.74,-186.84 501.37,-178.57 491.03,-180.9 494.74,-186.84"/>
</a>
</g>
</g>
<!-- Node7 -->
<g id="Node000007" class="node">
<title>Node7</title>
<g id="a_Node000007"><a xlink:href="ad7768_8c.html#a64bd7c78f3e88ec71686ac1ab84b97a4" target="_top" xlink:title=" ">
<polygon fill="white" stroke="#666666" points="399.5,-215.5 287.5,-215.5 287.5,-196.5 399.5,-196.5 399.5,-215.5"/>
<text text-anchor="middle" x="343.5" y="-203.5" font-family="Helvetica,sans-Serif" font-size="10.00">ad7768_set_crc_sel</text>
</a>
</g>
</g>
<!-- Node1&#45;&gt;Node7 -->
<g id="edge6_Node000001_Node000007" class="edge">
<title>Node1&#45;&gt;Node7</title>
<g id="a_edge6_Node000001_Node000007"><a xlink:title=" ">
<path fill="none" stroke="#63b8ff" d="M461.99,-180.65C438.43,-185.73 411.15,-191.62 388.81,-196.44"/>
<polygon fill="#63b8ff" stroke="#63b8ff" points="462.8,-184.06 471.83,-178.53 461.32,-177.22 462.8,-184.06"/>
</a>
</g>
</g>
<!-- Node8 -->
<g id="Node000008" class="node">
<title>Node8</title>
<g id="a_Node000008"><a xlink:href="ad7768_8c.html#a58c6fc40918860c7b17be3238a854e5c" target="_top" xlink:title=" ">
<polygon fill="white" stroke="#666666" points="403,-178.5 284,-178.5 284,-159.5 403,-159.5 403,-178.5"/>
<text text-anchor="middle" x="343.5" y="-166.5" font-family="Helvetica,sans-Serif" font-size="10.00">ad7768_set_dclk_div</text>
</a>
</g>
</g>
<!-- Node1&#45;&gt;Node8 -->
<g id="edge8_Node000001_Node000008" class="edge">
<title>Node1&#45;&gt;Node8</title>
<g id="a_edge8_Node000001_Node000008"><a xlink:title=" ">
<path fill="none" stroke="#63b8ff" d="M439.51,-169C427.28,-169 414.8,-169 403.08,-169"/>
<polygon fill="#63b8ff" stroke="#63b8ff" points="439.69,-172.5 449.69,-169 439.69,-165.5 439.69,-172.5"/>
</a>
</g>
</g>
<!-- Node9 -->
<g id="Node000009" class="node">
<title>Node9</title>
<g id="a_Node000009"><a xlink:href="ad7768_8c.html#a2728fbd09e078cf44e342b09c222febc" target="_top" xlink:title=" ">
<polygon fill="white" stroke="#666666" points="404.5,-141.5 282.5,-141.5 282.5,-122.5 404.5,-122.5 404.5,-141.5"/>
<text text-anchor="middle" x="343.5" y="-129.5" font-family="Helvetica,sans-Serif" font-size="10.00">ad7768_set_mclk_div</text>
</a>
</g>
</g>
<!-- Node1&#45;&gt;Node9 -->
<g id="edge10_Node000001_Node000009" class="edge">
<title>Node1&#45;&gt;Node9</title>
<g id="a_edge10_Node000001_Node000009"><a xlink:title=" ">
<path fill="none" stroke="#63b8ff" d="M461.99,-157.35C438.43,-152.27 411.15,-146.38 388.81,-141.56"/>
<polygon fill="#63b8ff" stroke="#63b8ff" points="461.32,-160.78 471.83,-159.47 462.8,-153.94 461.32,-160.78"/>
</a>
</g>
</g>
<!-- Node10 -->
<g id="Node000010" class="node">
<title>Node10</title>
<g id="a_Node000010"><a xlink:href="ad7768_8c.html#af99e74bed4ced639b03e5a1e1106653b" target="_top" xlink:title=" ">
<polygon fill="white" stroke="#666666" points="414,-104.5 273,-104.5 273,-85.5 414,-85.5 414,-104.5"/>
<text text-anchor="middle" x="343.5" y="-92.5" font-family="Helvetica,sans-Serif" font-size="10.00">ad7768_set_power_mode</text>
</a>
</g>
</g>
<!-- Node1&#45;&gt;Node10 -->
<g id="edge12_Node000001_Node000010" class="edge">
<title>Node1&#45;&gt;Node10</title>
<g id="a_edge12_Node000001_Node000010"><a xlink:title=" ">
<path fill="none" stroke="#63b8ff" d="M492.17,-154.13C471.96,-142.02 441.9,-125.16 414,-114 404.94,-110.37 394.95,-107.19 385.44,-104.53"/>
<polygon fill="#63b8ff" stroke="#63b8ff" points="490.61,-157.28 500.98,-159.48 494.25,-151.3 490.61,-157.28"/>
</a>
</g>
</g>
<!-- Node11 -->
<g id="Node000011" class="node">
<title>Node11</title>
<g id="a_Node000011"><a xlink:href="ad7768_8c.html#a699e3659f04b153b5a62bc85c76c22b6" target="_top" xlink:title=" ">
<polygon fill="white" stroke="#666666" points="414,-30 273,-30 273,0 414,0 414,-30"/>
<text text-anchor="start" x="281" y="-18" font-family="Helvetica,sans-Serif" font-size="10.00">ad7768_set_power_mode</text>
<text text-anchor="middle" x="343.5" y="-7" font-family="Helvetica,sans-Serif" font-size="10.00">_and_sampling_freq</text>
</a>
</g>
</g>
<!-- Node1&#45;&gt;Node11 -->
<g id="edge14_Node000001_Node000011" class="edge">
<title>Node1&#45;&gt;Node11</title>
<g id="a_edge14_Node000001_Node000011"><a xlink:title=" ">
<path fill="none" stroke="#63b8ff" d="M506.14,-150.51C490.32,-122.5 456.64,-69.37 414,-39 409.22,-35.59 403.91,-32.64 398.42,-30.08"/>
<polygon fill="#63b8ff" stroke="#63b8ff" points="503.09,-152.22 510.98,-159.29 509.22,-148.84 503.09,-152.22"/>
</a>
</g>
</g>
<!-- Node13 -->
<g id="Node000013" class="node">
<title>Node13</title>
<g id="a_Node000013"><a xlink:href="ad7768_8c.html#a482a7b23a9702a1d2bce8b316fb3bba8" target="_top" xlink:title=" ">
<polygon fill="white" stroke="#666666" points="412,-67.5 275,-67.5 275,-48.5 412,-48.5 412,-67.5"/>
<text text-anchor="middle" x="343.5" y="-55.5" font-family="Helvetica,sans-Serif" font-size="10.00">ad7768_set_sleep_mode</text>
</a>
</g>
</g>
<!-- Node1&#45;&gt;Node13 -->
<g id="edge16_Node000001_Node000013" class="edge">
<title>Node1&#45;&gt;Node13</title>
<g id="a_edge16_Node000001_Node000013"><a xlink:title=" ">
<path fill="none" stroke="#63b8ff" d="M501.41,-151.6C483.08,-130.84 449.68,-96.51 414,-77 406.98,-73.16 399.12,-70.05 391.29,-67.55"/>
<polygon fill="#63b8ff" stroke="#63b8ff" points="498.9,-154.05 508.09,-159.33 504.2,-149.48 498.9,-154.05"/>
</a>
</g>
</g>
<!-- Node5 -->
<g id="Node000005" class="node">
<title>Node5</title>
<g id="a_Node000005"><a xlink:href="ad7768_8c.html#afe758f0cc225b5dfec1cf6d1ac295621" target="_top" xlink:title=" ">
<polygon fill="white" stroke="#666666" points="237,-159.5 121,-159.5 121,-140.5 237,-140.5 237,-159.5"/>
<text text-anchor="middle" x="179" y="-147.5" font-family="Helvetica,sans-Serif" font-size="10.00">ad7768_setup_finish</text>
</a>
</g>
</g>
<!-- Node4&#45;&gt;Node5 -->
<g id="edge4_Node000004_Node000005" class="edge">
<title>Node4&#45;&gt;Node5</title>
<g id="a_edge4_Node000004_Node000005"><a xlink:title=" ">
<path fill="none" stroke="#63b8ff" d="M284.8,-230.13C280.73,-228.59 276.76,-226.89 273,-225 238.35,-207.57 204.7,-175.59 189.07,-159.61"/>
<polygon fill="#63b8ff" stroke="#63b8ff" points="283.82,-233.49 294.41,-233.41 286.08,-226.87 283.82,-233.49"/>
</a>
</g>
</g>
<!-- Node6 -->
<g id="Node000006" class="node">
<title>Node6</title>
<g id="a_Node000006"><a xlink:href="ad7768_8c.html#aedad7966a7f57f13de96bd8a2167721f" target="_top" xlink:title=" ">
<polygon fill="white" stroke="#666666" points="85,-159.5 0,-159.5 0,-140.5 85,-140.5 85,-159.5"/>
<text text-anchor="middle" x="42.5" y="-147.5" font-family="Helvetica,sans-Serif" font-size="10.00">ad7768_setup</text>
</a>
</g>
</g>
<!-- Node5&#45;&gt;Node6 -->
<g id="edge5_Node000005_Node000006" class="edge">
<title>Node5&#45;&gt;Node6</title>
<g id="a_edge5_Node000005_Node000006"><a xlink:title=" ">
<path fill="none" stroke="#63b8ff" d="M110.74,-150C102,-150 93.27,-150 85.12,-150"/>
<polygon fill="#63b8ff" stroke="#63b8ff" points="110.96,-153.5 120.96,-150 110.96,-146.5 110.96,-153.5"/>
</a>
</g>
</g>
<!-- Node7&#45;&gt;Node5 -->
<g id="edge7_Node000007_Node000005" class="edge">
<title>Node7&#45;&gt;Node5</title>
<g id="a_edge7_Node000007_Node000005"><a xlink:title=" ">
<path fill="none" stroke="#63b8ff" d="M291.85,-193.73C285.47,-191.94 279.05,-190.01 273,-188 247.84,-179.64 219.77,-167.81 201.12,-159.58"/>
<polygon fill="#63b8ff" stroke="#63b8ff" points="291.24,-197.19 301.81,-196.44 293.07,-190.44 291.24,-197.19"/>
</a>
</g>
</g>
<!-- Node8&#45;&gt;Node5 -->
<g id="edge9_Node000008_Node000005" class="edge">
<title>Node8&#45;&gt;Node5</title>
<g id="a_edge9_Node000008_Node000005"><a xlink:title=" ">
<path fill="none" stroke="#63b8ff" d="M273.73,-160.96C261.57,-159.54 249.02,-158.07 237.22,-156.69"/>
<polygon fill="#63b8ff" stroke="#63b8ff" points="273.49,-164.46 283.83,-162.14 274.31,-157.5 273.49,-164.46"/>
</a>
</g>
</g>
<!-- Node9&#45;&gt;Node5 -->
<g id="edge11_Node000009_Node000005" class="edge">
<title>Node9&#45;&gt;Node5</title>
<g id="a_edge11_Node000009_Node000005"><a xlink:title=" ">
<path fill="none" stroke="#63b8ff" d="M272.24,-139.78C260.51,-141.08 248.46,-142.42 237.1,-143.67"/>
<polygon fill="#63b8ff" stroke="#63b8ff" points="272.9,-143.23 282.45,-138.65 272.13,-136.27 272.9,-143.23"/>
</a>
</g>
</g>
<!-- Node10&#45;&gt;Node5 -->
<g id="edge13_Node000010_Node000005" class="edge">
<title>Node10&#45;&gt;Node5</title>
<g id="a_edge13_Node000010_Node000005"><a xlink:title=" ">
<path fill="none" stroke="#63b8ff" d="M295.12,-107.25C287.68,-109.38 280.1,-111.66 273,-114 248.66,-122.01 221.38,-132.79 202.7,-140.46"/>
<polygon fill="#63b8ff" stroke="#63b8ff" points="296.09,-110.62 304.78,-104.56 294.21,-103.87 296.09,-110.62"/>
</a>
</g>
</g>
<!-- Node12 -->
<g id="Node000012" class="node">
<title>Node12</title>
<g id="a_Node000012"><a xlink:href="ad7768__evb_8c.html#a840291bc02cba5474a4cb46a9b9566fe" target="_top" xlink:title="main">
<polygon fill="white" stroke="#666666" points="199.5,-24.5 158.5,-24.5 158.5,-5.5 199.5,-5.5 199.5,-24.5"/>
<text text-anchor="middle" x="179" y="-12.5" font-family="Helvetica,sans-Serif" font-size="10.00">main</text>
</a>
</g>
</g>
<!-- Node11&#45;&gt;Node12 -->
<g id="edge15_Node000011_Node000012" class="edge">
<title>Node11&#45;&gt;Node12</title>
<g id="a_edge15_Node000011_Node000012"><a xlink:title=" ">
<path fill="none" stroke="#63b8ff" d="M262.34,-15C239.06,-15 215.66,-15 199.78,-15"/>
<polygon fill="#63b8ff" stroke="#63b8ff" points="262.64,-18.5 272.64,-15 262.64,-11.5 262.64,-18.5"/>
</a>
</g>
</g>
<!-- Node13&#45;&gt;Node5 -->
<g id="edge17_Node000013_Node000005" class="edge">
<title>Node13&#45;&gt;Node5</title>
<g id="a_edge17_Node000013_Node000005"><a xlink:title=" ">
<path fill="none" stroke="#63b8ff" d="M287.63,-70.76C282.58,-72.6 277.63,-74.67 273,-77 238.9,-94.16 205.26,-124.92 189.41,-140.46"/>
<polygon fill="#63b8ff" stroke="#63b8ff" points="289.02,-73.99 297.4,-67.5 286.81,-67.34 289.02,-73.99"/>
</a>
</g>
</g>
</g>
</svg>
