<?xml version="1.0" encoding="UTF-8" standalone="no"?>
<!DOCTYPE svg PUBLIC "-//W3C//DTD SVG 1.1//EN"
 "http://www.w3.org/Graphics/SVG/1.1/DTD/svg11.dtd">
<!-- Generated by graphviz version 2.43.0 (0)
 -->
<!-- Title: ad8460_reg_read Pages: 1 -->
<svg width="633pt" height="111pt"
 viewBox="0.00 0.00 633.00 111.00" xmlns="http://www.w3.org/2000/svg" xmlns:xlink="http://www.w3.org/1999/xlink">
<g id="graph0" class="graph" transform="scale(1 1) rotate(0) translate(4 107)">
<title>ad8460_reg_read</title>
<!-- Node1 -->
<g id="Node000001" class="node">
<title>Node1</title>
<g id="a_Node000001"><a xlink:title="Read a register value.">
<polygon fill="#999999" stroke="#666666" points="625,-74 524,-74 524,-55 625,-55 625,-74"/>
<text text-anchor="middle" x="574.5" y="-62" font-family="Helvetica,sans-Serif" font-size="10.00">ad8460_reg_read</text>
</a>
</g>
</g>
<!-- Node2 -->
<g id="Node000002" class="node">
<title>Node2</title>
<g id="a_Node000002"><a xlink:href="ad8460_8c.html#a1e3068abd070cc03f9dfcb753cf7a70b" target="_top" xlink:title="Read the shutdown flag.">
<polygon fill="white" stroke="#666666" points="488,-103 333,-103 333,-84 488,-84 488,-103"/>
<text text-anchor="middle" x="410.5" y="-91" font-family="Helvetica,sans-Serif" font-size="10.00">ad8460_read_shutdown_flag</text>
</a>
</g>
</g>
<!-- Node1&#45;&gt;Node2 -->
<g id="edge1_Node000001_Node000002" class="edge">
<title>Node1&#45;&gt;Node2</title>
<g id="a_edge1_Node000001_Node000002"><a xlink:title=" ">
<path fill="none" stroke="#63b8ff" d="M513.28,-75.28C497.31,-78.14 480.19,-81.2 464.63,-83.99"/>
<polygon fill="#63b8ff" stroke="#63b8ff" points="514.35,-78.65 523.57,-73.44 513.11,-71.75 514.35,-78.65"/>
</a>
</g>
</g>
<!-- Node4 -->
<g id="Node000004" class="node">
<title>Node4</title>
<g id="a_Node000004"><a xlink:href="ad8460_8c.html#af0e3295c734db1fabd902afa56e32f66" target="_top" xlink:title="Read&#45;modify&#45;write operation.">
<polygon fill="white" stroke="#666666" points="478.5,-56 342.5,-56 342.5,-37 478.5,-37 478.5,-56"/>
<text text-anchor="middle" x="410.5" y="-44" font-family="Helvetica,sans-Serif" font-size="10.00">ad8460_reg_update_bits</text>
</a>
</g>
</g>
<!-- Node1&#45;&gt;Node4 -->
<g id="edge3_Node000001_Node000004" class="edge">
<title>Node1&#45;&gt;Node4</title>
<g id="a_edge3_Node000001_Node000004"><a xlink:title=" ">
<path fill="none" stroke="#63b8ff" d="M513.35,-57.82C502.01,-56.56 490.09,-55.23 478.55,-53.95"/>
<polygon fill="#63b8ff" stroke="#63b8ff" points="513.25,-61.33 523.57,-58.95 514.02,-54.37 513.25,-61.33"/>
</a>
</g>
</g>
<!-- Node3 -->
<g id="Node000003" class="node">
<title>Node3</title>
<g id="a_Node000003"><a xlink:href="eval-ad8460_2src_2examples_2basic_2basic__example_8c.html#ac25cbf8ae523e89cb0617e68c98bc697" target="_top" xlink:title="Basic example main executiont.">
<polygon fill="white" stroke="#666666" points="101.5,-75 12.5,-75 12.5,-56 101.5,-56 101.5,-75"/>
<text text-anchor="middle" x="57" y="-63" font-family="Helvetica,sans-Serif" font-size="10.00">example_main</text>
</a>
</g>
</g>
<!-- Node2&#45;&gt;Node3 -->
<g id="edge2_Node000002_Node000003" class="edge">
<title>Node2&#45;&gt;Node3</title>
<g id="a_edge2_Node000002_Node000003"><a xlink:title=" ">
<path fill="none" stroke="#63b8ff" d="M322.64,-94.14C272.1,-93.61 207.26,-91.36 150,-84.5 132.35,-82.39 113.05,-78.63 96.71,-75.01"/>
<polygon fill="#63b8ff" stroke="#63b8ff" points="322.85,-97.65 332.88,-94.23 322.91,-90.65 322.85,-97.65"/>
</a>
</g>
</g>
<!-- Node5 -->
<g id="Node000005" class="node">
<title>Node5</title>
<g id="a_Node000005"><a xlink:href="ad8460_8c.html#a4051f00e787b270af00776a820be633e" target="_top" xlink:title="Enable or disable the APG mode.">
<polygon fill="white" stroke="#666666" points="297,-38 150,-38 150,-19 297,-19 297,-38"/>
<text text-anchor="middle" x="223.5" y="-26" font-family="Helvetica,sans-Serif" font-size="10.00">ad8460_enable_apg_mode</text>
</a>
</g>
</g>
<!-- Node4&#45;&gt;Node5 -->
<g id="edge4_Node000004_Node000005" class="edge">
<title>Node4&#45;&gt;Node5</title>
<g id="a_edge4_Node000004_Node000005"><a xlink:title=" ">
<path fill="none" stroke="#63b8ff" d="M332.35,-38.99C320.73,-37.86 308.78,-36.7 297.26,-35.58"/>
<polygon fill="#63b8ff" stroke="#63b8ff" points="332.16,-42.49 342.45,-39.98 332.84,-35.52 332.16,-42.49"/>
</a>
</g>
</g>
<!-- Node6 -->
<g id="Node000006" class="node">
<title>Node6</title>
<g id="a_Node000006"><a xlink:href="ad8460_8c.html#af782c21707be15e28af9ecd0605d2163" target="_top" xlink:title="Set the sample value.">
<polygon fill="white" stroke="#666666" points="114,-19 0,-19 0,0 114,0 114,-19"/>
<text text-anchor="middle" x="57" y="-7" font-family="Helvetica,sans-Serif" font-size="10.00">ad8460_set_sample</text>
</a>
</g>
</g>
<!-- Node4&#45;&gt;Node6 -->
<g id="edge9_Node000004_Node000006" class="edge">
<title>Node4&#45;&gt;Node6</title>
<g id="a_edge9_Node000004_Node000006"><a xlink:title=" ">
<path fill="none" stroke="#63b8ff" d="M378.05,-33.17C355.85,-24.5 325.17,-14.01 297,-9.5 235.13,0.41 163.1,-1.37 114.42,-4.5"/>
<polygon fill="#63b8ff" stroke="#63b8ff" points="377.02,-36.53 387.61,-36.99 379.62,-30.03 377.02,-36.53"/>
</a>
</g>
</g>
<!-- Node7 -->
<g id="Node000007" class="node">
<title>Node7</title>
<g id="a_Node000007"><a xlink:href="ad8460_8c.html#ab77409bb5ceced72a965c9929a6349cf" target="_top" xlink:title="Reset the high voltage driver.">
<polygon fill="white" stroke="#666666" points="273.5,-75 173.5,-75 173.5,-56 273.5,-56 273.5,-75"/>
<text text-anchor="middle" x="223.5" y="-63" font-family="Helvetica,sans-Serif" font-size="10.00">ad8460_hv_reset</text>
</a>
</g>
</g>
<!-- Node4&#45;&gt;Node7 -->
<g id="edge7_Node000004_Node000007" class="edge">
<title>Node4&#45;&gt;Node7</title>
<g id="a_edge7_Node000004_Node000007"><a xlink:title=" ">
<path fill="none" stroke="#63b8ff" d="M332.46,-54.41C312.56,-56.46 291.68,-58.6 273.63,-60.45"/>
<polygon fill="#63b8ff" stroke="#63b8ff" points="332.86,-57.89 342.45,-53.39 332.14,-50.93 332.86,-57.89"/>
</a>
</g>
</g>
<!-- Node5&#45;&gt;Node3 -->
<g id="edge6_Node000005_Node000003" class="edge">
<title>Node5&#45;&gt;Node3</title>
<g id="a_edge6_Node000005_Node000003"><a xlink:title=" ">
<path fill="none" stroke="#63b8ff" d="M170.09,-40.29C147.63,-45.34 121.74,-51.16 100.5,-55.94"/>
<polygon fill="#63b8ff" stroke="#63b8ff" points="171.15,-43.64 180.14,-38.03 169.61,-36.81 171.15,-43.64"/>
</a>
</g>
</g>
<!-- Node5&#45;&gt;Node6 -->
<g id="edge5_Node000005_Node000006" class="edge">
<title>Node5&#45;&gt;Node6</title>
<g id="a_edge5_Node000005_Node000006"><a xlink:title=" ">
<path fill="none" stroke="#63b8ff" d="M139.81,-18.95C131.22,-17.96 122.63,-16.97 114.43,-16.02"/>
<polygon fill="#63b8ff" stroke="#63b8ff" points="139.53,-22.44 149.87,-20.11 140.34,-15.49 139.53,-22.44"/>
</a>
</g>
</g>
<!-- Node7&#45;&gt;Node3 -->
<g id="edge8_Node000007_Node000003" class="edge">
<title>Node7&#45;&gt;Node3</title>
<g id="a_edge8_Node000007_Node000003"><a xlink:title=" ">
<path fill="none" stroke="#63b8ff" d="M163.07,-65.5C142.81,-65.5 120.53,-65.5 101.73,-65.5"/>
<polygon fill="#63b8ff" stroke="#63b8ff" points="163.14,-69 173.14,-65.5 163.14,-62 163.14,-69"/>
</a>
</g>
</g>
</g>
</svg>
