<?xml version="1.0" encoding="UTF-8" standalone="no"?>
<!DOCTYPE svg PUBLIC "-//W3C//DTD SVG 1.1//EN"
 "http://www.w3.org/Graphics/SVG/1.1/DTD/svg11.dtd">
<!-- Generated by graphviz version 2.43.0 (0)
 -->
<!-- Title: ad8460_reg_write Pages: 1 -->
<svg width="617pt" height="159pt"
 viewBox="0.00 0.00 617.00 159.00" xmlns="http://www.w3.org/2000/svg" xmlns:xlink="http://www.w3.org/1999/xlink">
<g id="graph0" class="graph" transform="scale(1 1) rotate(0) translate(4 155)">
<title>ad8460_reg_write</title>
<!-- Node1 -->
<g id="Node000001" class="node">
<title>Node1</title>
<g id="a_Node000001"><a xlink:title="Write a register value.">
<polygon fill="#999999" stroke="#666666" points="609,-76 505,-76 505,-57 609,-57 609,-76"/>
<text text-anchor="middle" x="557" y="-64" font-family="Helvetica,sans-Serif" font-size="10.00">ad8460_reg_write</text>
</a>
</g>
</g>
<!-- Node2 -->
<g id="Node000002" class="node">
<title>Node2</title>
<g id="a_Node000002"><a xlink:href="ad8460_8c.html#af0e3295c734db1fabd902afa56e32f66" target="_top" xlink:title="Read&#45;modify&#45;write operation.">
<polygon fill="white" stroke="#666666" points="469,-113 333,-113 333,-94 469,-94 469,-113"/>
<text text-anchor="middle" x="401" y="-101" font-family="Helvetica,sans-Serif" font-size="10.00">ad8460_reg_update_bits</text>
</a>
</g>
</g>
<!-- Node1&#45;&gt;Node2 -->
<g id="edge1_Node000001_Node000002" class="edge">
<title>Node1&#45;&gt;Node2</title>
<g id="a_edge1_Node000001_Node000002"><a xlink:title=" ">
<path fill="none" stroke="#63b8ff" d="M506.37,-78.43C485.47,-83.44 461.49,-89.21 441.79,-93.94"/>
<polygon fill="#63b8ff" stroke="#63b8ff" points="507.44,-81.77 516.34,-76.03 505.8,-74.96 507.44,-81.77"/>
</a>
</g>
</g>
<!-- Node7 -->
<g id="Node000007" class="node">
<title>Node7</title>
<g id="a_Node000007"><a xlink:href="ad8460_8c.html#a088d90521cf22ce3d2c70dc4c61354e8" target="_top" xlink:title="Reset the AD8460 device.">
<polygon fill="white" stroke="#666666" points="442.5,-57 359.5,-57 359.5,-38 442.5,-38 442.5,-57"/>
<text text-anchor="middle" x="401" y="-45" font-family="Helvetica,sans-Serif" font-size="10.00">ad8460_reset</text>
</a>
</g>
</g>
<!-- Node1&#45;&gt;Node7 -->
<g id="edge8_Node000001_Node000007" class="edge">
<title>Node1&#45;&gt;Node7</title>
<g id="a_edge8_Node000001_Node000007"><a xlink:title=" ">
<path fill="none" stroke="#63b8ff" d="M494.63,-58.93C477.23,-56.78 458.71,-54.5 442.84,-52.54"/>
<polygon fill="#63b8ff" stroke="#63b8ff" points="494.37,-62.42 504.72,-60.17 495.22,-55.48 494.37,-62.42"/>
</a>
</g>
</g>
<!-- Node3 -->
<g id="Node000003" class="node">
<title>Node3</title>
<g id="a_Node000003"><a xlink:href="ad8460_8c.html#a4051f00e787b270af00776a820be633e" target="_top" xlink:title="Enable or disable the APG mode.">
<polygon fill="white" stroke="#666666" points="297,-132 150,-132 150,-113 297,-113 297,-132"/>
<text text-anchor="middle" x="223.5" y="-120" font-family="Helvetica,sans-Serif" font-size="10.00">ad8460_enable_apg_mode</text>
</a>
</g>
</g>
<!-- Node2&#45;&gt;Node3 -->
<g id="edge2_Node000002_Node000003" class="edge">
<title>Node2&#45;&gt;Node3</title>
<g id="a_edge2_Node000002_Node000003"><a xlink:title=" ">
<path fill="none" stroke="#63b8ff" d="M322.92,-111.85C314.34,-112.77 305.63,-113.72 297.11,-114.64"/>
<polygon fill="#63b8ff" stroke="#63b8ff" points="323.33,-115.32 332.9,-110.76 322.58,-108.36 323.33,-115.32"/>
</a>
</g>
</g>
<!-- Node4 -->
<g id="Node000004" class="node">
<title>Node4</title>
<g id="a_Node000004"><a xlink:href="ad8460_8c.html#af782c21707be15e28af9ecd0605d2163" target="_top" xlink:title="Set the sample value.">
<polygon fill="white" stroke="#666666" points="114,-151 0,-151 0,-132 114,-132 114,-151"/>
<text text-anchor="middle" x="57" y="-139" font-family="Helvetica,sans-Serif" font-size="10.00">ad8460_set_sample</text>
</a>
</g>
</g>
<!-- Node2&#45;&gt;Node4 -->
<g id="edge7_Node000002_Node000004" class="edge">
<title>Node2&#45;&gt;Node4</title>
<g id="a_edge7_Node000002_Node000004"><a xlink:title=" ">
<path fill="none" stroke="#63b8ff" d="M371.18,-117.26C350.95,-126.14 322.96,-136.86 297,-141.5 235.12,-152.55 162.77,-150.52 114.03,-147.02"/>
<polygon fill="#63b8ff" stroke="#63b8ff" points="372.77,-120.38 380.45,-113.09 369.9,-114 372.77,-120.38"/>
</a>
</g>
</g>
<!-- Node6 -->
<g id="Node000006" class="node">
<title>Node6</title>
<g id="a_Node000006"><a xlink:href="ad8460_8c.html#ab77409bb5ceced72a965c9929a6349cf" target="_top" xlink:title="Reset the high voltage driver.">
<polygon fill="white" stroke="#666666" points="273.5,-95 173.5,-95 173.5,-76 273.5,-76 273.5,-95"/>
<text text-anchor="middle" x="223.5" y="-83" font-family="Helvetica,sans-Serif" font-size="10.00">ad8460_hv_reset</text>
</a>
</g>
</g>
<!-- Node2&#45;&gt;Node6 -->
<g id="edge5_Node000002_Node000006" class="edge">
<title>Node2&#45;&gt;Node6</title>
<g id="a_edge5_Node000002_Node000006"><a xlink:title=" ">
<path fill="none" stroke="#63b8ff" d="M322.61,-95.56C305.95,-93.85 288.78,-92.09 273.56,-90.53"/>
<polygon fill="#63b8ff" stroke="#63b8ff" points="322.59,-99.08 332.9,-96.62 323.31,-92.12 322.59,-99.08"/>
</a>
</g>
</g>
<!-- Node3&#45;&gt;Node4 -->
<g id="edge3_Node000003_Node000004" class="edge">
<title>Node3&#45;&gt;Node4</title>
<g id="a_edge3_Node000003_Node000004"><a xlink:title=" ">
<path fill="none" stroke="#63b8ff" d="M139.81,-132.05C131.22,-133.04 122.63,-134.03 114.43,-134.98"/>
<polygon fill="#63b8ff" stroke="#63b8ff" points="140.34,-135.51 149.87,-130.89 139.53,-128.56 140.34,-135.51"/>
</a>
</g>
</g>
<!-- Node5 -->
<g id="Node000005" class="node">
<title>Node5</title>
<g id="a_Node000005"><a xlink:href="eval-ad8460_2src_2examples_2basic_2basic__example_8c.html#ac25cbf8ae523e89cb0617e68c98bc697" target="_top" xlink:title="Basic example main executiont.">
<polygon fill="white" stroke="#666666" points="101.5,-95 12.5,-95 12.5,-76 101.5,-76 101.5,-95"/>
<text text-anchor="middle" x="57" y="-83" font-family="Helvetica,sans-Serif" font-size="10.00">example_main</text>
</a>
</g>
</g>
<!-- Node3&#45;&gt;Node5 -->
<g id="edge4_Node000003_Node000005" class="edge">
<title>Node3&#45;&gt;Node5</title>
<g id="a_edge4_Node000003_Node000005"><a xlink:title=" ">
<path fill="none" stroke="#63b8ff" d="M170.09,-110.71C147.63,-105.66 121.74,-99.84 100.5,-95.06"/>
<polygon fill="#63b8ff" stroke="#63b8ff" points="169.61,-114.19 180.14,-112.97 171.15,-107.36 169.61,-114.19"/>
</a>
</g>
</g>
<!-- Node6&#45;&gt;Node5 -->
<g id="edge6_Node000006_Node000005" class="edge">
<title>Node6&#45;&gt;Node5</title>
<g id="a_edge6_Node000006_Node000005"><a xlink:title=" ">
<path fill="none" stroke="#63b8ff" d="M163.07,-85.5C142.81,-85.5 120.53,-85.5 101.73,-85.5"/>
<polygon fill="#63b8ff" stroke="#63b8ff" points="163.14,-89 173.14,-85.5 163.14,-82 163.14,-89"/>
</a>
</g>
</g>
<!-- Node7&#45;&gt;Node5 -->
<g id="edge11_Node000007_Node000005" class="edge">
<title>Node7&#45;&gt;Node5</title>
<g id="a_edge11_Node000007_Node000005"><a xlink:title=" ">
<path fill="none" stroke="#63b8ff" d="M349.1,-49.88C298.46,-52.64 218.61,-58.08 150,-67.5 134.04,-69.69 116.66,-72.88 101.35,-75.97"/>
<polygon fill="#63b8ff" stroke="#63b8ff" points="349.34,-53.37 359.14,-49.34 348.97,-46.38 349.34,-53.37"/>
</a>
</g>
</g>
<!-- Node8 -->
<g id="Node000008" class="node">
<title>Node8</title>
<g id="a_Node000008"><a xlink:href="iio__ad8460_8c.html#a83e79ccf85fdba974cfd20853c761264" target="_top" xlink:title="Initializes the AD8460 IIO driver.">
<polygon fill="white" stroke="#666666" points="269,-19 178,-19 178,0 269,0 269,-19"/>
<text text-anchor="middle" x="223.5" y="-7" font-family="Helvetica,sans-Serif" font-size="10.00">ad8460_iio_init</text>
</a>
</g>
</g>
<!-- Node7&#45;&gt;Node8 -->
<g id="edge9_Node000007_Node000008" class="edge">
<title>Node7&#45;&gt;Node8</title>
<g id="a_edge9_Node000007_Node000008"><a xlink:title=" ">
<path fill="none" stroke="#63b8ff" d="M349.43,-36.55C323.91,-31.02 293.24,-24.38 268.67,-19.06"/>
<polygon fill="#63b8ff" stroke="#63b8ff" points="348.78,-39.99 359.3,-38.69 350.26,-33.15 348.78,-39.99"/>
</a>
</g>
</g>
<!-- Node9 -->
<g id="Node000009" class="node">
<title>Node9</title>
<g id="a_Node000009"><a xlink:href="eval-ad8460_2src_2examples_2iio_2iio__example_8c.html#ac25cbf8ae523e89cb0617e68c98bc697" target="_top" xlink:title="Basic example main executiont.">
<polygon fill="white" stroke="#666666" points="101.5,-19 12.5,-19 12.5,0 101.5,0 101.5,-19"/>
<text text-anchor="middle" x="57" y="-7" font-family="Helvetica,sans-Serif" font-size="10.00">example_main</text>
</a>
</g>
</g>
<!-- Node8&#45;&gt;Node9 -->
<g id="edge10_Node000008_Node000009" class="edge">
<title>Node8&#45;&gt;Node9</title>
<g id="a_edge10_Node000008_Node000009"><a xlink:title=" ">
<path fill="none" stroke="#63b8ff" d="M167.7,-9.5C146.24,-9.5 121.95,-9.5 101.7,-9.5"/>
<polygon fill="#63b8ff" stroke="#63b8ff" points="167.98,-13 177.98,-9.5 167.98,-6 167.98,-13"/>
</a>
</g>
</g>
</g>
</svg>
