<?xml version="1.0" encoding="UTF-8" standalone="no"?>
<!DOCTYPE svg PUBLIC "-//W3C//DTD SVG 1.1//EN"
 "http://www.w3.org/Graphics/SVG/1.1/DTD/svg11.dtd">
<!-- Generated by graphviz version 2.43.0 (0)
 -->
<!-- Title: ad8460_reg_write Pages: 1 -->
<!--zoomable 159 -->

<svg id="main" version="1.1" xmlns="http://www.w3.org/2000/svg" xmlns:xlink="http://www.w3.org/1999/xlink" xml:space="preserve" onload="init(evt)">

<style type="text/css"><![CDATA[
.node, .edge {opacity: 0.7;}
.node.selected, .edge.selected {opacity: 1;}
.edge:hover path { stroke: red; }
.edge:hover polygon { stroke: red; fill: red; }
]]></style>

<defs>
  <circle id="rim" cx="0" cy="0" r="7"/>
  <circle id="rim2" cx="0" cy="0" r="3.5"/>
  <g id="zoomPlus">
    <use xlink:href="#rim" fill="#404040"><set attributeName="fill" to="#808080" begin="zoomplus.mouseover" end="zoomplus.mouseout"/></use>
    <path d="M-4,0h8M0,-4v8" fill="none" stroke="white" stroke-width="1.5" pointer-events="none"/>
  </g>
  <g id="zoomMin">
    <use xlink:href="#rim" fill="#404040"><set attributeName="fill" to="#808080" begin="zoomminus.mouseover" end="zoomminus.mouseout"/></use>
    <path d="M-4,0h8" fill="none" stroke="white" stroke-width="1.5" pointer-events="none"/>
  </g>
  <g id="arrowUp" transform="translate(30 24)">
    <use xlink:href="#rim"/>
    <path pointer-events="none" fill="none" stroke="white" stroke-width="1.5" d="M0,-3.0v7 M-2.5,-0.5L0,-3.0L2.5,-0.5"/>
  </g>
  <g id="arrowRight" transform="rotate(90) translate(36 -43)">
    <use xlink:href="#rim"/>
    <path pointer-events="none" fill="none" stroke="white" stroke-width="1.5" d="M0,-3.0v7 M-2.5,-0.5L0,-3.0L2.5,-0.5"/>
  </g>
  <g id="arrowDown" transform="rotate(180) translate(-30 -48)">
    <use xlink:href="#rim"/>
    <path pointer-events="none" fill="none" stroke="white" stroke-width="1.5" d="M0,-3.0v7 M-2.5,-0.5L0,-3.0L2.5,-0.5"/>
  </g>
  <g id="arrowLeft" transform="rotate(270) translate(-36 17)">
    <use xlink:href="#rim"/>
    <path pointer-events="none" fill="none" stroke="white" stroke-width="1.5" d="M0,-3.0v7 M-2.5,-0.5L0,-3.0L2.5,-0.5"/>
  </g>
  <g id="resetDef">
    <use xlink:href="#rim2" fill="#404040"><set attributeName="fill" to="#808080" begin="reset.mouseover" end="reset.mouseout"/></use>
  </g>
</defs>
<script type="application/ecmascript">
var viewWidth = 623;
var viewHeight = 159;
var sectionId = 'dynsection-8';
</script>
<script type="application/ecmascript" xlink:href="svg.min.js"/>
<svg id="graph" class="graph">
<g id="viewport">
<title>ad8460_reg_write</title>
<!-- Node1 -->
<g id="Node000001" class="node">
<title>Node1</title>
<g id="a_Node000001"><a xlink:title="Write a register value.">
<polygon fill="#999999" stroke="#666666" points="615,-76 511,-76 511,-57 615,-57 615,-76"/>
<text text-anchor="middle" x="563" y="-64" font-family="Helvetica,sans-Serif" font-size="10.00">ad8460_reg_write</text>
</a>
</g>
</g>
<!-- Node2 -->
<g id="Node000002" class="node">
<title>Node2</title>
<g id="a_Node000002"><a xlink:href="ad8460_8c.html#af0e3295c734db1fabd902afa56e32f66" target="_top" xlink:title="Read&#45;modify&#45;write operation.">
<polygon fill="white" stroke="#666666" points="475,-113 339,-113 339,-94 475,-94 475,-113"/>
<text text-anchor="middle" x="407" y="-101" font-family="Helvetica,sans-Serif" font-size="10.00">ad8460_reg_update_bits</text>
</a>
</g>
</g>
<!-- Node1&#45;&gt;Node2 -->
<g id="edge1_Node000001_Node000002" class="edge">
<title>Node1&#45;&gt;Node2</title>
<g id="a_edge1_Node000001_Node000002"><a xlink:title=" ">
<path fill="none" stroke="#63b8ff" d="M512.37,-78.43C491.47,-83.44 467.49,-89.21 447.79,-93.94"/>
<polygon fill="#63b8ff" stroke="#63b8ff" points="513.44,-81.77 522.34,-76.03 511.8,-74.96 513.44,-81.77"/>
</a>
</g>
</g>
<!-- Node7 -->
<g id="Node000007" class="node">
<title>Node7</title>
<g id="a_Node000007"><a xlink:href="ad8460_8c.html#a088d90521cf22ce3d2c70dc4c61354e8" target="_top" xlink:title="Reset the AD8460 device.">
<polygon fill="white" stroke="#666666" points="448.5,-57 365.5,-57 365.5,-38 448.5,-38 448.5,-57"/>
<text text-anchor="middle" x="407" y="-45" font-family="Helvetica,sans-Serif" font-size="10.00">ad8460_reset</text>
</a>
</g>
</g>
<!-- Node1&#45;&gt;Node7 -->
<g id="edge8_Node000001_Node000007" class="edge">
<title>Node1&#45;&gt;Node7</title>
<g id="a_edge8_Node000001_Node000007"><a xlink:title=" ">
<path fill="none" stroke="#63b8ff" d="M500.63,-58.93C483.23,-56.78 464.71,-54.5 448.84,-52.54"/>
<polygon fill="#63b8ff" stroke="#63b8ff" points="500.37,-62.42 510.72,-60.17 501.22,-55.48 500.37,-62.42"/>
</a>
</g>
</g>
<!-- Node3 -->
<g id="Node000003" class="node">
<title>Node3</title>
<g id="a_Node000003"><a xlink:href="ad8460_8c.html#a4051f00e787b270af00776a820be633e" target="_top" xlink:title="Enable or disable the APG mode.">
<polygon fill="white" stroke="#666666" points="303,-132 156,-132 156,-113 303,-113 303,-132"/>
<text text-anchor="middle" x="229.5" y="-120" font-family="Helvetica,sans-Serif" font-size="10.00">ad8460_enable_apg_mode</text>
</a>
</g>
</g>
<!-- Node2&#45;&gt;Node3 -->
<g id="edge2_Node000002_Node000003" class="edge">
<title>Node2&#45;&gt;Node3</title>
<g id="a_edge2_Node000002_Node000003"><a xlink:title=" ">
<path fill="none" stroke="#63b8ff" d="M328.92,-111.85C320.34,-112.77 311.63,-113.72 303.11,-114.64"/>
<polygon fill="#63b8ff" stroke="#63b8ff" points="329.33,-115.32 338.9,-110.76 328.58,-108.36 329.33,-115.32"/>
</a>
</g>
</g>
<!-- Node4 -->
<g id="Node000004" class="node">
<title>Node4</title>
<g id="a_Node000004"><a xlink:href="ad8460_8c.html#af782c21707be15e28af9ecd0605d2163" target="_top" xlink:title="Set the sample value.">
<polygon fill="white" stroke="#666666" points="117,-151 3,-151 3,-132 117,-132 117,-151"/>
<text text-anchor="middle" x="60" y="-139" font-family="Helvetica,sans-Serif" font-size="10.00">ad8460_set_sample</text>
</a>
</g>
</g>
<!-- Node2&#45;&gt;Node4 -->
<g id="edge7_Node000002_Node000004" class="edge">
<title>Node2&#45;&gt;Node4</title>
<g id="a_edge7_Node000002_Node000004"><a xlink:title=" ">
<path fill="none" stroke="#63b8ff" d="M377.18,-117.26C356.95,-126.14 328.96,-136.86 303,-141.5 240.13,-152.73 166.61,-150.62 117.24,-147.06"/>
<polygon fill="#63b8ff" stroke="#63b8ff" points="378.77,-120.38 386.45,-113.09 375.9,-114 378.77,-120.38"/>
</a>
</g>
</g>
<!-- Node6 -->
<g id="Node000006" class="node">
<title>Node6</title>
<g id="a_Node000006"><a xlink:href="ad8460_8c.html#ab77409bb5ceced72a965c9929a6349cf" target="_top" xlink:title="Reset the high voltage driver.">
<polygon fill="white" stroke="#666666" points="279.5,-95 179.5,-95 179.5,-76 279.5,-76 279.5,-95"/>
<text text-anchor="middle" x="229.5" y="-83" font-family="Helvetica,sans-Serif" font-size="10.00">ad8460_hv_reset</text>
</a>
</g>
</g>
<!-- Node2&#45;&gt;Node6 -->
<g id="edge5_Node000002_Node000006" class="edge">
<title>Node2&#45;&gt;Node6</title>
<g id="a_edge5_Node000002_Node000006"><a xlink:title=" ">
<path fill="none" stroke="#63b8ff" d="M328.61,-95.56C311.95,-93.85 294.78,-92.09 279.56,-90.53"/>
<polygon fill="#63b8ff" stroke="#63b8ff" points="328.59,-99.08 338.9,-96.62 329.31,-92.12 328.59,-99.08"/>
</a>
</g>
</g>
<!-- Node3&#45;&gt;Node4 -->
<g id="edge3_Node000003_Node000004" class="edge">
<title>Node3&#45;&gt;Node4</title>
<g id="a_edge3_Node000003_Node000004"><a xlink:title=" ">
<path fill="none" stroke="#63b8ff" d="M145.52,-131.91C135.89,-133 126.26,-134.1 117.11,-135.13"/>
<polygon fill="#63b8ff" stroke="#63b8ff" points="145.98,-135.38 155.52,-130.78 145.19,-128.43 145.98,-135.38"/>
</a>
</g>
</g>
<!-- Node5 -->
<g id="Node000005" class="node">
<title>Node5</title>
<g id="a_Node000005"><a xlink:href="eval-ad8460_2src_2examples_2basic_2basic__example_8c.html#a72943dc9011d36293cb05ca5d7cb6899" target="_top" xlink:title="basic example main execution.">
<polygon fill="white" stroke="#666666" points="120,-95 0,-95 0,-76 120,-76 120,-95"/>
<text text-anchor="middle" x="60" y="-83" font-family="Helvetica,sans-Serif" font-size="10.00">basic_example_main</text>
</a>
</g>
</g>
<!-- Node3&#45;&gt;Node5 -->
<g id="edge4_Node000003_Node000005" class="edge">
<title>Node3&#45;&gt;Node5</title>
<g id="a_edge4_Node000003_Node000005"><a xlink:title=" ">
<path fill="none" stroke="#63b8ff" d="M175.44,-110.78C152.5,-105.71 126,-99.86 104.28,-95.06"/>
<polygon fill="#63b8ff" stroke="#63b8ff" points="174.85,-114.23 185.36,-112.97 176.35,-107.4 174.85,-114.23"/>
</a>
</g>
</g>
<!-- Node6&#45;&gt;Node5 -->
<g id="edge6_Node000006_Node000005" class="edge">
<title>Node6&#45;&gt;Node5</title>
<g id="a_edge6_Node000006_Node000005"><a xlink:title=" ">
<path fill="none" stroke="#63b8ff" d="M168.93,-85.5C153.05,-85.5 135.9,-85.5 120.05,-85.5"/>
<polygon fill="#63b8ff" stroke="#63b8ff" points="169.15,-89 179.15,-85.5 169.15,-82 169.15,-89"/>
</a>
</g>
</g>
<!-- Node7&#45;&gt;Node5 -->
<g id="edge11_Node000007_Node000005" class="edge">
<title>Node7&#45;&gt;Node5</title>
<g id="a_edge11_Node000007_Node000005"><a xlink:title=" ">
<path fill="none" stroke="#63b8ff" d="M355.12,-49.97C304.48,-52.8 224.63,-58.28 156,-67.5 139.53,-69.71 121.59,-72.91 105.78,-75.99"/>
<polygon fill="#63b8ff" stroke="#63b8ff" points="355.36,-53.46 365.15,-49.42 354.98,-46.47 355.36,-53.46"/>
</a>
</g>
</g>
<!-- Node8 -->
<g id="Node000008" class="node">
<title>Node8</title>
<g id="a_Node000008"><a xlink:href="iio__ad8460_8c.html#a83e79ccf85fdba974cfd20853c761264" target="_top" xlink:title="Initializes the AD8460 IIO driver.">
<polygon fill="white" stroke="#666666" points="275,-19 184,-19 184,0 275,0 275,-19"/>
<text text-anchor="middle" x="229.5" y="-7" font-family="Helvetica,sans-Serif" font-size="10.00">ad8460_iio_init</text>
</a>
</g>
</g>
<!-- Node7&#45;&gt;Node8 -->
<g id="edge9_Node000007_Node000008" class="edge">
<title>Node7&#45;&gt;Node8</title>
<g id="a_edge9_Node000007_Node000008"><a xlink:title=" ">
<path fill="none" stroke="#63b8ff" d="M355.43,-36.55C329.91,-31.02 299.24,-24.38 274.67,-19.06"/>
<polygon fill="#63b8ff" stroke="#63b8ff" points="354.78,-39.99 365.3,-38.69 356.26,-33.15 354.78,-39.99"/>
</a>
</g>
</g>
<!-- Node9 -->
<g id="Node000009" class="node">
<title>Node9</title>
<g id="a_Node000009"><a xlink:href="eval-ad8460_2src_2examples_2iio__example_2iio__example_8c.html#a7d58fb707a91d4615d3bf949fabaa1e2" target="_top" xlink:title="IIO example main execution.">
<polygon fill="white" stroke="#666666" points="113.5,-19 6.5,-19 6.5,0 113.5,0 113.5,-19"/>
<text text-anchor="middle" x="60" y="-7" font-family="Helvetica,sans-Serif" font-size="10.00">iio_example_main</text>
</a>
</g>
</g>
<!-- Node8&#45;&gt;Node9 -->
<g id="edge10_Node000008_Node000009" class="edge">
<title>Node8&#45;&gt;Node9</title>
<g id="a_edge10_Node000008_Node000009"><a xlink:title=" ">
<path fill="none" stroke="#63b8ff" d="M173.5,-9.5C154.29,-9.5 132.77,-9.5 113.74,-9.5"/>
<polygon fill="#63b8ff" stroke="#63b8ff" points="173.61,-13 183.61,-9.5 173.61,-6 173.61,-13"/>
</a>
</g>
</g>
</g>
</svg>

<g id="navigator" transform="translate(0 0)" fill="#404254">
  <rect fill="#f2f5e9" fill-opacity="0.5" stroke="#606060" stroke-width=".5" x="0" y="0" width="60" height="60"/>
  <use id="zoomplus" xlink:href="#zoomPlus" x="17" y="9" onmousedown="handleZoom(evt,'in')"/>
  <use id="zoomminus" xlink:href="#zoomMin" x="42" y="9" onmousedown="handleZoom(evt,'out')"/>
  <use id="reset" xlink:href="#resetDef" x="30" y="36" onmousedown="handleReset()"/>
   <use id="arrowup" xlink:href="#arrowUp" x="0" y="0" onmousedown="handlePan(0,-1)"/>
  <use id="arrowright" xlink:href="#arrowRight" x="0" y="0" onmousedown="handlePan(1,0)"/>
  <use id="arrowdown" xlink:href="#arrowDown" x="0" y="0" onmousedown="handlePan(0,1)"/>
  <use id="arrowleft" xlink:href="#arrowLeft" x="0" y="0" onmousedown="handlePan(-1,0)"/>
</g>
<svg viewBox="0 0 15 15" width="100%" height="30px" preserveAspectRatio="xMaxYMin meet">
 <g id="arrow_out" transform="scale(0.3 0.3)">
  <a xlink:href="ad8460_8c_aaeb36963fc634ea9e07437478e868c61_icgraph_org.svg" target="_base">
   <rect id="button" ry="5" rx="5" y="6" x="6" height="38" width="38"
        fill="#f2f5e9" fill-opacity="0.5" stroke="#606060" stroke-width="1.0"/>
   <path id="arrow"
     d="M 11.500037,31.436501 C 11.940474,20.09759 22.043105,11.32322 32.158766,21.979434 L 37.068811,17.246167 C 37.068811,17.246167 37.088388,32 37.088388,32 L 22.160133,31.978069 C 22.160133,31.978069 26.997745,27.140456 26.997745,27.140456 C 18.528582,18.264221 13.291696,25.230495 11.500037,31.436501 z"
     style="fill:#404040;"/>
  </a>
 </g>
</svg>

<style type='text/css'>
<![CDATA[
[data-mouse-over-selected='false'] { opacity: 0.7; }
[data-mouse-over-selected='true']  { opacity: 1.0; }
]]>
</style>
<script type="application/ecmascript"><![CDATA[
document.addEventListener('DOMContentLoaded', (event) => {
  highlightEdges();
  highlightAdjacentNodes();
});
]]></script>
</svg>
