<?xml version="1.0" encoding="UTF-8" standalone="no"?>
<!DOCTYPE svg PUBLIC "-//W3C//DTD SVG 1.1//EN"
 "http://www.w3.org/Graphics/SVG/1.1/DTD/svg11.dtd">
<!-- Generated by graphviz version 2.43.0 (0)
 -->
<!-- Title: ad8460_reg_read Pages: 1 -->
<svg width="639pt" height="111pt"
 viewBox="0.00 0.00 639.00 111.00" xmlns="http://www.w3.org/2000/svg" xmlns:xlink="http://www.w3.org/1999/xlink">
<g id="graph0" class="graph" transform="scale(1 1) rotate(0) translate(4 107)">
<title>ad8460_reg_read</title>
<!-- Node1 -->
<g id="Node000001" class="node">
<title>Node1</title>
<g id="a_Node000001"><a xlink:title="Read a register value.">
<polygon fill="#999999" stroke="#666666" points="631,-74 530,-74 530,-55 631,-55 631,-74"/>
<text text-anchor="middle" x="580.5" y="-62" font-family="Helvetica,sans-Serif" font-size="10.00">ad8460_reg_read</text>
</a>
</g>
</g>
<!-- Node2 -->
<g id="Node000002" class="node">
<title>Node2</title>
<g id="a_Node000002"><a xlink:href="ad8460_8c.html#a1e3068abd070cc03f9dfcb753cf7a70b" target="_top" xlink:title="Read the shutdown flag.">
<polygon fill="white" stroke="#666666" points="494,-103 339,-103 339,-84 494,-84 494,-103"/>
<text text-anchor="middle" x="416.5" y="-91" font-family="Helvetica,sans-Serif" font-size="10.00">ad8460_read_shutdown_flag</text>
</a>
</g>
</g>
<!-- Node1&#45;&gt;Node2 -->
<g id="edge1_Node000001_Node000002" class="edge">
<title>Node1&#45;&gt;Node2</title>
<g id="a_edge1_Node000001_Node000002"><a xlink:title=" ">
<path fill="none" stroke="#63b8ff" d="M519.28,-75.28C503.31,-78.14 486.19,-81.2 470.63,-83.99"/>
<polygon fill="#63b8ff" stroke="#63b8ff" points="520.35,-78.65 529.57,-73.44 519.11,-71.75 520.35,-78.65"/>
</a>
</g>
</g>
<!-- Node4 -->
<g id="Node000004" class="node">
<title>Node4</title>
<g id="a_Node000004"><a xlink:href="ad8460_8c.html#af0e3295c734db1fabd902afa56e32f66" target="_top" xlink:title="Read&#45;modify&#45;write operation.">
<polygon fill="white" stroke="#666666" points="484.5,-56 348.5,-56 348.5,-37 484.5,-37 484.5,-56"/>
<text text-anchor="middle" x="416.5" y="-44" font-family="Helvetica,sans-Serif" font-size="10.00">ad8460_reg_update_bits</text>
</a>
</g>
</g>
<!-- Node1&#45;&gt;Node4 -->
<g id="edge3_Node000001_Node000004" class="edge">
<title>Node1&#45;&gt;Node4</title>
<g id="a_edge3_Node000001_Node000004"><a xlink:title=" ">
<path fill="none" stroke="#63b8ff" d="M519.35,-57.82C508.01,-56.56 496.09,-55.23 484.55,-53.95"/>
<polygon fill="#63b8ff" stroke="#63b8ff" points="519.25,-61.33 529.57,-58.95 520.02,-54.37 519.25,-61.33"/>
</a>
</g>
</g>
<!-- Node3 -->
<g id="Node000003" class="node">
<title>Node3</title>
<g id="a_Node000003"><a xlink:href="eval-ad8460_2src_2examples_2basic_2basic__example_8c.html#a72943dc9011d36293cb05ca5d7cb6899" target="_top" xlink:title="basic example main execution.">
<polygon fill="white" stroke="#666666" points="120,-75 0,-75 0,-56 120,-56 120,-75"/>
<text text-anchor="middle" x="60" y="-63" font-family="Helvetica,sans-Serif" font-size="10.00">basic_example_main</text>
</a>
</g>
</g>
<!-- Node2&#45;&gt;Node3 -->
<g id="edge2_Node000002_Node000003" class="edge">
<title>Node2&#45;&gt;Node3</title>
<g id="a_edge2_Node000002_Node000003"><a xlink:title=" ">
<path fill="none" stroke="#63b8ff" d="M328.66,-94.01C278.12,-93.43 213.28,-91.18 156,-84.5 137.79,-82.38 117.86,-78.62 100.99,-75"/>
<polygon fill="#63b8ff" stroke="#63b8ff" points="328.86,-97.51 338.89,-94.11 328.93,-90.51 328.86,-97.51"/>
</a>
</g>
</g>
<!-- Node5 -->
<g id="Node000005" class="node">
<title>Node5</title>
<g id="a_Node000005"><a xlink:href="ad8460_8c.html#a4051f00e787b270af00776a820be633e" target="_top" xlink:title="Enable or disable the APG mode.">
<polygon fill="white" stroke="#666666" points="303,-38 156,-38 156,-19 303,-19 303,-38"/>
<text text-anchor="middle" x="229.5" y="-26" font-family="Helvetica,sans-Serif" font-size="10.00">ad8460_enable_apg_mode</text>
</a>
</g>
</g>
<!-- Node4&#45;&gt;Node5 -->
<g id="edge4_Node000004_Node000005" class="edge">
<title>Node4&#45;&gt;Node5</title>
<g id="a_edge4_Node000004_Node000005"><a xlink:title=" ">
<path fill="none" stroke="#63b8ff" d="M338.35,-38.99C326.73,-37.86 314.78,-36.7 303.26,-35.58"/>
<polygon fill="#63b8ff" stroke="#63b8ff" points="338.16,-42.49 348.45,-39.98 338.84,-35.52 338.16,-42.49"/>
</a>
</g>
</g>
<!-- Node6 -->
<g id="Node000006" class="node">
<title>Node6</title>
<g id="a_Node000006"><a xlink:href="ad8460_8c.html#af782c21707be15e28af9ecd0605d2163" target="_top" xlink:title="Set the sample value.">
<polygon fill="white" stroke="#666666" points="117,-19 3,-19 3,0 117,0 117,-19"/>
<text text-anchor="middle" x="60" y="-7" font-family="Helvetica,sans-Serif" font-size="10.00">ad8460_set_sample</text>
</a>
</g>
</g>
<!-- Node4&#45;&gt;Node6 -->
<g id="edge9_Node000004_Node000006" class="edge">
<title>Node4&#45;&gt;Node6</title>
<g id="a_edge9_Node000004_Node000006"><a xlink:title=" ">
<path fill="none" stroke="#63b8ff" d="M384.05,-33.17C361.85,-24.5 331.17,-14.01 303,-9.5 239.94,0.6 166.45,-1.29 117.15,-4.5"/>
<polygon fill="#63b8ff" stroke="#63b8ff" points="383.02,-36.53 393.61,-36.99 385.62,-30.03 383.02,-36.53"/>
</a>
</g>
</g>
<!-- Node7 -->
<g id="Node000007" class="node">
<title>Node7</title>
<g id="a_Node000007"><a xlink:href="ad8460_8c.html#ab77409bb5ceced72a965c9929a6349cf" target="_top" xlink:title="Reset the high voltage driver.">
<polygon fill="white" stroke="#666666" points="279.5,-75 179.5,-75 179.5,-56 279.5,-56 279.5,-75"/>
<text text-anchor="middle" x="229.5" y="-63" font-family="Helvetica,sans-Serif" font-size="10.00">ad8460_hv_reset</text>
</a>
</g>
</g>
<!-- Node4&#45;&gt;Node7 -->
<g id="edge7_Node000004_Node000007" class="edge">
<title>Node4&#45;&gt;Node7</title>
<g id="a_edge7_Node000004_Node000007"><a xlink:title=" ">
<path fill="none" stroke="#63b8ff" d="M338.46,-54.41C318.56,-56.46 297.68,-58.6 279.63,-60.45"/>
<polygon fill="#63b8ff" stroke="#63b8ff" points="338.86,-57.89 348.45,-53.39 338.14,-50.93 338.86,-57.89"/>
</a>
</g>
</g>
<!-- Node5&#45;&gt;Node3 -->
<g id="edge6_Node000005_Node000003" class="edge">
<title>Node5&#45;&gt;Node3</title>
<g id="a_edge6_Node000005_Node000003"><a xlink:title=" ">
<path fill="none" stroke="#63b8ff" d="M175.44,-40.22C152.5,-45.29 126,-51.14 104.28,-55.94"/>
<polygon fill="#63b8ff" stroke="#63b8ff" points="176.35,-43.6 185.36,-38.03 174.85,-36.77 176.35,-43.6"/>
</a>
</g>
</g>
<!-- Node5&#45;&gt;Node6 -->
<g id="edge5_Node000005_Node000006" class="edge">
<title>Node5&#45;&gt;Node6</title>
<g id="a_edge5_Node000005_Node000006"><a xlink:title=" ">
<path fill="none" stroke="#63b8ff" d="M145.52,-19.09C135.89,-18 126.26,-16.9 117.11,-15.87"/>
<polygon fill="#63b8ff" stroke="#63b8ff" points="145.19,-22.57 155.52,-20.22 145.98,-15.62 145.19,-22.57"/>
</a>
</g>
</g>
<!-- Node7&#45;&gt;Node3 -->
<g id="edge8_Node000007_Node000003" class="edge">
<title>Node7&#45;&gt;Node3</title>
<g id="a_edge8_Node000007_Node000003"><a xlink:title=" ">
<path fill="none" stroke="#63b8ff" d="M168.93,-65.5C153.05,-65.5 135.9,-65.5 120.05,-65.5"/>
<polygon fill="#63b8ff" stroke="#63b8ff" points="169.15,-69 179.15,-65.5 169.15,-62 169.15,-69"/>
</a>
</g>
</g>
</g>
</svg>
