<?xml version="1.0" encoding="UTF-8" standalone="no"?>
<!DOCTYPE svg PUBLIC "-//W3C//DTD SVG 1.1//EN"
 "http://www.w3.org/Graphics/SVG/1.1/DTD/svg11.dtd">
<!-- Generated by graphviz version 2.43.0 (0)
 -->
<!-- Title: ad9081_parse_jesd_link_init_param Pages: 1 -->
<svg width="508pt" height="38pt"
 viewBox="0.00 0.00 508.00 38.00" xmlns="http://www.w3.org/2000/svg" xmlns:xlink="http://www.w3.org/1999/xlink">
<g id="graph0" class="graph" transform="scale(1 1) rotate(0) translate(4 34)">
<title>ad9081_parse_jesd_link_init_param</title>
<!-- Node1 -->
<g id="Node000001" class="node">
<title>Node1</title>
<g id="a_Node000001"><a xlink:title=" ">
<polygon fill="#999999" stroke="#666666" points="500,-30 366,-30 366,0 500,0 500,-30"/>
<text text-anchor="start" x="374" y="-18" font-family="Helvetica,sans-Serif" font-size="10.00">ad9081_parse_jesd_link</text>
<text text-anchor="middle" x="433" y="-7" font-family="Helvetica,sans-Serif" font-size="10.00">_init_param</text>
</a>
</g>
</g>
<!-- Node2 -->
<g id="Node000002" class="node">
<title>Node2</title>
<g id="a_Node000002"><a xlink:href="ad9081_8c.html#a8de8def16976c8a47482424a0827d06a" target="_top" xlink:title=" ">
<polygon fill="white" stroke="#666666" points="330,-24.5 187,-24.5 187,-5.5 330,-5.5 330,-24.5"/>
<text text-anchor="middle" x="258.5" y="-12.5" font-family="Helvetica,sans-Serif" font-size="10.00">ad9081_parse_init_param</text>
</a>
</g>
</g>
<!-- Node1&#45;&gt;Node2 -->
<g id="edge1_Node000001_Node000002" class="edge">
<title>Node1&#45;&gt;Node2</title>
<g id="a_edge1_Node000001_Node000002"><a xlink:title=" ">
<path fill="none" stroke="#63b8ff" d="M355.56,-15C347.09,-15 338.5,-15 330.11,-15"/>
<polygon fill="#63b8ff" stroke="#63b8ff" points="355.8,-18.5 365.8,-15 355.8,-11.5 355.8,-18.5"/>
</a>
</g>
</g>
<!-- Node3 -->
<g id="Node000003" class="node">
<title>Node3</title>
<g id="a_Node000003"><a xlink:href="ad9081_8c.html#a9a956903d6b1ce55f073b5677fe241ec" target="_top" xlink:title=" ">
<polygon fill="white" stroke="#666666" points="151,-24.5 77,-24.5 77,-5.5 151,-5.5 151,-24.5"/>
<text text-anchor="middle" x="114" y="-12.5" font-family="Helvetica,sans-Serif" font-size="10.00">ad9081_init</text>
</a>
</g>
</g>
<!-- Node2&#45;&gt;Node3 -->
<g id="edge2_Node000002_Node000003" class="edge">
<title>Node2&#45;&gt;Node3</title>
<g id="a_edge2_Node000002_Node000003"><a xlink:title=" ">
<path fill="none" stroke="#63b8ff" d="M176.61,-15C167.75,-15 159.09,-15 151.2,-15"/>
<polygon fill="#63b8ff" stroke="#63b8ff" points="176.67,-18.5 186.67,-15 176.67,-11.5 176.67,-18.5"/>
</a>
</g>
</g>
<!-- Node4 -->
<g id="Node000004" class="node">
<title>Node4</title>
<g id="a_Node000004"><a xlink:href="ad9081_2src_2app_8c.html#a840291bc02cba5474a4cb46a9b9566fe" target="_top" xlink:title=" ">
<polygon fill="white" stroke="#666666" points="41,-24.5 0,-24.5 0,-5.5 41,-5.5 41,-24.5"/>
<text text-anchor="middle" x="20.5" y="-12.5" font-family="Helvetica,sans-Serif" font-size="10.00">main</text>
</a>
</g>
</g>
<!-- Node3&#45;&gt;Node4 -->
<g id="edge3_Node000003_Node000004" class="edge">
<title>Node3&#45;&gt;Node4</title>
<g id="a_edge3_Node000003_Node000004"><a xlink:title=" ">
<path fill="none" stroke="#63b8ff" d="M66.7,-15C57.67,-15 48.66,-15 41.09,-15"/>
<polygon fill="#63b8ff" stroke="#63b8ff" points="66.84,-18.5 76.84,-15 66.84,-11.5 66.84,-18.5"/>
</a>
</g>
</g>
</g>
</svg>
