<?xml version="1.0" encoding="UTF-8" standalone="no"?>
<!DOCTYPE svg PUBLIC "-//W3C//DTD SVG 1.1//EN"
 "http://www.w3.org/Graphics/SVG/1.1/DTD/svg11.dtd">
<!-- Generated by graphviz version 2.43.0 (0)
 -->
<!-- Title: projects/ad9208/src/main.c Pages: 1 -->
<svg width="1534pt" height="313pt"
 viewBox="0.00 0.00 1533.50 313.00" xmlns="http://www.w3.org/2000/svg" xmlns:xlink="http://www.w3.org/1999/xlink">
<g id="graph0" class="graph" transform="scale(1 1) rotate(0) translate(4 309)">
<title>projects/ad9208/src/main.c</title>
<!-- Node1 -->
<g id="Node000001" class="node">
<title>Node1</title>
<g id="a_Node000001"><a xlink:title="Implementation of Main Function.">
<polygon fill="#999999" stroke="#666666" points="891,-305 779,-305 779,-275 891,-275 891,-305"/>
<text text-anchor="start" x="787" y="-293" font-family="Helvetica,sans-Serif" font-size="10.00">projects/ad9208/src</text>
<text text-anchor="middle" x="835" y="-282" font-family="Helvetica,sans-Serif" font-size="10.00">/main.c</text>
</a>
</g>
</g>
<!-- Node2 -->
<g id="Node000002" class="node">
<title>Node2</title>
<g id="a_Node000002"><a xlink:title=" ">
<polygon fill="#e0e0e0" stroke="#999999" points="50,-239 0,-239 0,-220 50,-220 50,-239"/>
<text text-anchor="middle" x="25" y="-227" font-family="Helvetica,sans-Serif" font-size="10.00">stdio.h</text>
</a>
</g>
</g>
<!-- Node1&#45;&gt;Node2 -->
<g id="edge1_Node000001_Node000002" class="edge">
<title>Node1&#45;&gt;Node2</title>
<g id="a_edge1_Node000001_Node000002"><a xlink:title=" ">
<path fill="none" stroke="#63b8ff" d="M778.6,-288.23C650.81,-285.86 329.66,-276.35 64,-239 62.73,-238.82 61.43,-238.62 60.13,-238.41"/>
<polygon fill="#63b8ff" stroke="#63b8ff" points="60.55,-234.93 50.08,-236.54 59.27,-241.81 60.55,-234.93"/>
</a>
</g>
</g>
<!-- Node3 -->
<g id="Node000003" class="node">
<title>Node3</title>
<g id="a_Node000003"><a xlink:title=" ">
<polygon fill="#e0e0e0" stroke="#999999" points="284.5,-19 231.5,-19 231.5,0 284.5,0 284.5,-19"/>
<text text-anchor="middle" x="258" y="-7" font-family="Helvetica,sans-Serif" font-size="10.00">stdlib.h</text>
</a>
</g>
</g>
<!-- Node1&#45;&gt;Node3 -->
<g id="edge2_Node000001_Node000003" class="edge">
<title>Node1&#45;&gt;Node3</title>
<g id="a_edge2_Node000001_Node000003"><a xlink:title=" ">
<path fill="none" stroke="#63b8ff" d="M778.87,-288.62C616.75,-287.03 155.89,-279.02 102,-239 77.78,-221.01 78,-205.67 78,-175.5 78,-175.5 78,-175.5 78,-118.5 78,-52.22 168.85,-25.6 221.47,-15.75"/>
<polygon fill="#63b8ff" stroke="#63b8ff" points="222.2,-19.17 231.44,-14 220.99,-12.28 222.2,-19.17"/>
</a>
</g>
</g>
<!-- Node4 -->
<g id="Node000004" class="node">
<title>Node4</title>
<g id="a_Node000004"><a xlink:href="errno_8h.html" target="_top" xlink:title="Error macro definition for ARM Compiler.">
<polygon fill="white" stroke="#666666" points="1112.5,-184 1061.5,-184 1061.5,-165 1112.5,-165 1112.5,-184"/>
<text text-anchor="middle" x="1087" y="-172" font-family="Helvetica,sans-Serif" font-size="10.00">errno.h</text>
</a>
</g>
</g>
<!-- Node1&#45;&gt;Node4 -->
<g id="edge3_Node000001_Node000004" class="edge">
<title>Node1&#45;&gt;Node4</title>
<g id="a_edge3_Node000001_Node000004"><a xlink:title=" ">
<path fill="none" stroke="#63b8ff" d="M891.36,-275.63C922.48,-267.18 961.33,-254.86 994,-239 1021.81,-225.5 1050.75,-204.45 1068.81,-190.33"/>
<polygon fill="#63b8ff" stroke="#63b8ff" points="1071.1,-192.98 1076.75,-184.02 1066.74,-187.5 1071.1,-192.98"/>
</a>
</g>
</g>
<!-- Node5 -->
<g id="Node000005" class="node">
<title>Node5</title>
<g id="a_Node000005"><a xlink:title=" ">
<polygon fill="#e0e0e0" stroke="#999999" points="1211.5,-239 1146.5,-239 1146.5,-220 1211.5,-220 1211.5,-239"/>
<text text-anchor="middle" x="1179" y="-227" font-family="Helvetica,sans-Serif" font-size="10.00">inttypes.h</text>
</a>
</g>
</g>
<!-- Node1&#45;&gt;Node5 -->
<g id="edge4_Node000001_Node000005" class="edge">
<title>Node1&#45;&gt;Node5</title>
<g id="a_edge4_Node000001_Node000005"><a xlink:title=" ">
<path fill="none" stroke="#63b8ff" d="M891.04,-280.33C949.62,-271.14 1044.45,-255.86 1136.42,-239.05"/>
<polygon fill="#63b8ff" stroke="#63b8ff" points="1137.26,-242.45 1146.46,-237.2 1136,-235.57 1137.26,-242.45"/>
</a>
</g>
</g>
<!-- Node6 -->
<g id="Node000006" class="node">
<title>Node6</title>
<g id="a_Node000006"><a xlink:href="hmc7044_8h.html" target="_top" xlink:title="Header file of HMC7044, HMC7043 Driver.">
<polygon fill="white" stroke="#666666" points="464.5,-239 393.5,-239 393.5,-220 464.5,-220 464.5,-239"/>
<text text-anchor="middle" x="429" y="-227" font-family="Helvetica,sans-Serif" font-size="10.00">hmc7044.h</text>
</a>
</g>
</g>
<!-- Node1&#45;&gt;Node6 -->
<g id="edge5_Node000001_Node000006" class="edge">
<title>Node1&#45;&gt;Node6</title>
<g id="a_edge5_Node000001_Node000006"><a xlink:title=" ">
<path fill="none" stroke="#63b8ff" d="M778.97,-280.93C697.95,-269.25 549.59,-247.88 474.75,-237.09"/>
<polygon fill="#63b8ff" stroke="#63b8ff" points="475.09,-233.6 464.69,-235.64 474.09,-240.53 475.09,-233.6"/>
</a>
</g>
</g>
<!-- Node9 -->
<g id="Node000009" class="node">
<title>Node9</title>
<g id="a_Node000009"><a xlink:href="no__os__delay_8h.html" target="_top" xlink:title="Header file of Delay functions.">
<polygon fill="white" stroke="#666666" points="400.5,-184 315.5,-184 315.5,-165 400.5,-165 400.5,-184"/>
<text text-anchor="middle" x="358" y="-172" font-family="Helvetica,sans-Serif" font-size="10.00">no_os_delay.h</text>
</a>
</g>
</g>
<!-- Node1&#45;&gt;Node9 -->
<g id="edge58_Node000001_Node000009" class="edge">
<title>Node1&#45;&gt;Node9</title>
<g id="a_edge58_Node000001_Node000009"><a xlink:title=" ">
<path fill="none" stroke="#63b8ff" d="M778.78,-289.72C671.96,-289.99 444.93,-284.96 384,-239 369.9,-228.37 363.42,-208.76 360.45,-194.14"/>
<polygon fill="#63b8ff" stroke="#63b8ff" points="363.88,-193.45 358.8,-184.15 356.98,-194.59 363.88,-193.45"/>
</a>
</g>
</g>
<!-- Node10 -->
<g id="Node000010" class="node">
<title>Node10</title>
<g id="a_Node000010"><a xlink:href="no__os__spi_8h.html" target="_top" xlink:title="Header file of SPI Interface.">
<polygon fill="white" stroke="#666666" points="221,-184 147,-184 147,-165 221,-165 221,-184"/>
<text text-anchor="middle" x="184" y="-172" font-family="Helvetica,sans-Serif" font-size="10.00">no_os_spi.h</text>
</a>
</g>
</g>
<!-- Node1&#45;&gt;Node10 -->
<g id="edge59_Node000001_Node000010" class="edge">
<title>Node1&#45;&gt;Node10</title>
<g id="a_edge59_Node000001_Node000010"><a xlink:title=" ">
<path fill="none" stroke="#63b8ff" d="M778.94,-286.84C639.03,-281.1 282.33,-264.16 235,-239 215.95,-228.87 201.49,-208.26 192.92,-193.26"/>
<polygon fill="#63b8ff" stroke="#63b8ff" points="195.96,-191.53 188.15,-184.38 189.8,-194.84 195.96,-191.53"/>
</a>
</g>
</g>
<!-- Node11 -->
<g id="Node000011" class="node">
<title>Node11</title>
<g id="a_Node000011"><a xlink:href="ad9208_8h.html" target="_top" xlink:title="Header file of AD9208 Driver.">
<polygon fill="white" stroke="#666666" points="754,-239 692,-239 692,-220 754,-220 754,-239"/>
<text text-anchor="middle" x="723" y="-227" font-family="Helvetica,sans-Serif" font-size="10.00">ad9208.h</text>
</a>
</g>
</g>
<!-- Node1&#45;&gt;Node11 -->
<g id="edge12_Node000001_Node000011" class="edge">
<title>Node1&#45;&gt;Node11</title>
<g id="a_edge12_Node000001_Node000011"><a xlink:title=" ">
<path fill="none" stroke="#63b8ff" d="M808.17,-274.99C790.15,-265.58 766.54,-253.24 748.75,-243.95"/>
<polygon fill="#63b8ff" stroke="#63b8ff" points="750.02,-240.67 739.54,-239.14 746.78,-246.87 750.02,-240.67"/>
</a>
</g>
</g>
<!-- Node18 -->
<g id="Node000018" class="node">
<title>Node18</title>
<g id="a_Node000018"><a xlink:href="no__os__gpio_8h.html" target="_top" xlink:title="Header file of GPIO Interface.">
<polygon fill="white" stroke="#666666" points="607,-74 527,-74 527,-55 607,-55 607,-74"/>
<text text-anchor="middle" x="567" y="-62" font-family="Helvetica,sans-Serif" font-size="10.00">no_os_gpio.h</text>
</a>
</g>
</g>
<!-- Node1&#45;&gt;Node18 -->
<g id="edge63_Node000001_Node000018" class="edge">
<title>Node1&#45;&gt;Node18</title>
<g id="a_edge63_Node000001_Node000018"><a xlink:title=" ">
<path fill="none" stroke="#63b8ff" d="M831.24,-274.79C821.18,-239.91 790.1,-149.98 728,-110 709.62,-98.17 657.07,-84.84 616.96,-75.89"/>
<polygon fill="#63b8ff" stroke="#63b8ff" points="617.58,-72.44 607.06,-73.7 616.08,-79.27 617.58,-72.44"/>
</a>
</g>
</g>
<!-- Node19 -->
<g id="Node000019" class="node">
<title>Node19</title>
<g id="a_Node000019"><a xlink:href="axi__adxcvr_8h.html" target="_top" xlink:title="Driver for the ADI AXI&#45;ADXCVR Module.">
<polygon fill="white" stroke="#666666" points="1029,-129 951,-129 951,-110 1029,-110 1029,-129"/>
<text text-anchor="middle" x="990" y="-117" font-family="Helvetica,sans-Serif" font-size="10.00">axi_adxcvr.h</text>
</a>
</g>
</g>
<!-- Node1&#45;&gt;Node19 -->
<g id="edge30_Node000001_Node000019" class="edge">
<title>Node1&#45;&gt;Node19</title>
<g id="a_edge30_Node000001_Node000019"><a xlink:title=" ">
<path fill="none" stroke="#63b8ff" d="M848.4,-274.82C867.36,-254.71 903.03,-216.74 933,-184 947.61,-168.04 964.09,-149.63 975.56,-136.76"/>
<polygon fill="#63b8ff" stroke="#63b8ff" points="978.28,-138.97 982.31,-129.18 973.05,-134.32 978.28,-138.97"/>
</a>
</g>
</g>
<!-- Node21 -->
<g id="Node000021" class="node">
<title>Node21</title>
<g id="a_Node000021"><a xlink:href="axi__adc__core_8h.html" target="_top" xlink:title="Driver for the Analog Devices AXI&#45;ADC&#45;CORE module.">
<polygon fill="white" stroke="#666666" points="271.5,-129 182.5,-129 182.5,-110 271.5,-110 271.5,-129"/>
<text text-anchor="middle" x="227" y="-117" font-family="Helvetica,sans-Serif" font-size="10.00">axi_adc_core.h</text>
</a>
</g>
</g>
<!-- Node1&#45;&gt;Node21 -->
<g id="edge36_Node000001_Node000021" class="edge">
<title>Node1&#45;&gt;Node21</title>
<g id="a_edge36_Node000001_Node000021"><a xlink:title=" ">
<path fill="none" stroke="#63b8ff" d="M778.93,-288.69C663.82,-287.21 405.21,-279.36 328,-239 284.03,-216.02 251.19,-165.07 236.12,-138.08"/>
<polygon fill="#63b8ff" stroke="#63b8ff" points="239.06,-136.15 231.23,-129.01 232.9,-139.48 239.06,-136.15"/>
</a>
</g>
</g>
<!-- Node22 -->
<g id="Node000022" class="node">
<title>Node22</title>
<g id="a_Node000022"><a xlink:href="axi__jesd204__rx_8h.html" target="_top" xlink:title="Driver for the Analog Devices AXI&#45;JESD204&#45;RX peripheral.">
<polygon fill="white" stroke="#666666" points="894.5,-129 795.5,-129 795.5,-110 894.5,-110 894.5,-129"/>
<text text-anchor="middle" x="845" y="-117" font-family="Helvetica,sans-Serif" font-size="10.00">axi_jesd204_rx.h</text>
</a>
</g>
</g>
<!-- Node1&#45;&gt;Node22 -->
<g id="edge39_Node000001_Node000022" class="edge">
<title>Node1&#45;&gt;Node22</title>
<g id="a_edge39_Node000001_Node000022"><a xlink:title=" ">
<path fill="none" stroke="#63b8ff" d="M835.84,-274.92C837.63,-244.65 841.86,-173.35 843.89,-139.27"/>
<polygon fill="#63b8ff" stroke="#63b8ff" points="847.38,-139.44 844.48,-129.25 840.39,-139.03 847.38,-139.44"/>
</a>
</g>
</g>
<!-- Node25 -->
<g id="Node000025" class="node">
<title>Node25</title>
<g id="a_Node000025"><a xlink:href="axi__dmac_8h.html" target="_top" xlink:title="Driver for the Analog Devices AXI&#45;DMAC core.">
<polygon fill="white" stroke="#666666" points="362.5,-129 289.5,-129 289.5,-110 362.5,-110 362.5,-129"/>
<text text-anchor="middle" x="326" y="-117" font-family="Helvetica,sans-Serif" font-size="10.00">axi_dmac.h</text>
</a>
</g>
</g>
<!-- Node1&#45;&gt;Node25 -->
<g id="edge49_Node000001_Node000025" class="edge">
<title>Node1&#45;&gt;Node25</title>
<g id="a_edge49_Node000001_Node000025"><a xlink:title=" ">
<path fill="none" stroke="#63b8ff" d="M778.95,-287.39C671,-283.58 438.49,-271.73 366,-239 333.03,-224.11 320.57,-217.11 306,-184 299.4,-168.99 306.25,-151.12 313.68,-138.17"/>
<polygon fill="#63b8ff" stroke="#63b8ff" points="316.87,-139.67 319.25,-129.35 310.95,-135.93 316.87,-139.67"/>
</a>
</g>
</g>
<!-- Node26 -->
<g id="Node000026" class="node">
<title>Node26</title>
<g id="a_Node000026"><a xlink:href="ad9208_2src_2parameters_8h.html" target="_top" xlink:title="Parameters Definitions.">
<polygon fill="white" stroke="#666666" points="1350,-239 1268,-239 1268,-220 1350,-220 1350,-239"/>
<text text-anchor="middle" x="1309" y="-227" font-family="Helvetica,sans-Serif" font-size="10.00">parameters.h</text>
</a>
</g>
</g>
<!-- Node1&#45;&gt;Node26 -->
<g id="edge52_Node000001_Node000026" class="edge">
<title>Node1&#45;&gt;Node26</title>
<g id="a_edge52_Node000001_Node000026"><a xlink:title=" ">
<path fill="none" stroke="#63b8ff" d="M891.33,-282.9C971.85,-274.05 1124.44,-256.74 1254,-239 1255.27,-238.83 1256.55,-238.65 1257.84,-238.47"/>
<polygon fill="#63b8ff" stroke="#63b8ff" points="1258.48,-241.91 1267.88,-237.01 1257.48,-234.98 1258.48,-241.91"/>
</a>
</g>
</g>
<!-- Node27 -->
<g id="Node000027" class="node">
<title>Node27</title>
<g id="a_Node000027"><a xlink:title=" ">
<polygon fill="#e0e0e0" stroke="#999999" points="1318,-184 1230,-184 1230,-165 1318,-165 1318,-184"/>
<text text-anchor="middle" x="1274" y="-172" font-family="Helvetica,sans-Serif" font-size="10.00">xparameters.h</text>
</a>
</g>
</g>
<!-- Node1&#45;&gt;Node27 -->
<g id="edge55_Node000001_Node000027" class="edge">
<title>Node1&#45;&gt;Node27</title>
<g id="a_edge55_Node000001_Node000027"><a xlink:title=" ">
<path fill="none" stroke="#63b8ff" d="M891.02,-286.65C983.75,-281.96 1164.47,-269.16 1220,-239 1239.4,-228.46 1254.86,-207.93 1264.18,-193.06"/>
<polygon fill="#63b8ff" stroke="#63b8ff" points="1267.31,-194.65 1269.4,-184.26 1261.29,-191.08 1267.31,-194.65"/>
</a>
</g>
</g>
<!-- Node28 -->
<g id="Node000028" class="node">
<title>Node28</title>
<g id="a_Node000028"><a xlink:title=" ">
<polygon fill="#e0e0e0" stroke="#999999" points="1436,-239 1368,-239 1368,-220 1436,-220 1436,-239"/>
<text text-anchor="middle" x="1402" y="-227" font-family="Helvetica,sans-Serif" font-size="10.00">xil_printf.h</text>
</a>
</g>
</g>
<!-- Node1&#45;&gt;Node28 -->
<g id="edge54_Node000001_Node000028" class="edge">
<title>Node1&#45;&gt;Node28</title>
<g id="a_edge54_Node000001_Node000028"><a xlink:title=" ">
<path fill="none" stroke="#63b8ff" d="M891.06,-285.5C985.39,-279.2 1181.98,-264.35 1357.84,-239.03"/>
<polygon fill="#63b8ff" stroke="#63b8ff" points="1358.39,-242.49 1367.79,-237.58 1357.39,-235.56 1358.39,-242.49"/>
</a>
</g>
</g>
<!-- Node29 -->
<g id="Node000029" class="node">
<title>Node29</title>
<g id="a_Node000029"><a xlink:href="no__os__error_8h.html" target="_top" xlink:title="Error codes definition.">
<polygon fill="white" stroke="#666666" points="1128,-239 1046,-239 1046,-220 1128,-220 1128,-239"/>
<text text-anchor="middle" x="1087" y="-227" font-family="Helvetica,sans-Serif" font-size="10.00">no_os_error.h</text>
</a>
</g>
</g>
<!-- Node1&#45;&gt;Node29 -->
<g id="edge56_Node000001_Node000029" class="edge">
<title>Node1&#45;&gt;Node29</title>
<g id="a_edge56_Node000001_Node000029"><a xlink:title=" ">
<path fill="none" stroke="#63b8ff" d="M891.24,-275.94C936,-265.55 997.91,-251.18 1040.04,-241.4"/>
<polygon fill="#63b8ff" stroke="#63b8ff" points="1041.09,-244.75 1050.04,-239.08 1039.51,-237.93 1041.09,-244.75"/>
</a>
</g>
</g>
<!-- Node30 -->
<g id="Node000030" class="node">
<title>Node30</title>
<g id="a_Node000030"><a xlink:href="xilinx__spi_8h.html" target="_top" xlink:title=" ">
<polygon fill="white" stroke="#666666" points="183,-239 111,-239 111,-220 183,-220 183,-239"/>
<text text-anchor="middle" x="147" y="-227" font-family="Helvetica,sans-Serif" font-size="10.00">xilinx_spi.h</text>
</a>
</g>
</g>
<!-- Node1&#45;&gt;Node30 -->
<g id="edge60_Node000001_Node000030" class="edge">
<title>Node1&#45;&gt;Node30</title>
<g id="a_edge60_Node000001_Node000030"><a xlink:title=" ">
<path fill="none" stroke="#63b8ff" d="M778.93,-286.31C667.66,-280.59 411.18,-265.54 197,-239 195.75,-238.84 194.48,-238.68 193.2,-238.51"/>
<polygon fill="#63b8ff" stroke="#63b8ff" points="193.66,-235.04 183.26,-237.06 192.65,-241.97 193.66,-235.04"/>
</a>
</g>
</g>
<!-- Node31 -->
<g id="Node000031" class="node">
<title>Node31</title>
<g id="a_Node000031"><a xlink:href="xilinx__gpio_8h.html" target="_top" xlink:title=" ">
<polygon fill="white" stroke="#666666" points="1198.5,-74 1119.5,-74 1119.5,-55 1198.5,-55 1198.5,-74"/>
<text text-anchor="middle" x="1159" y="-62" font-family="Helvetica,sans-Serif" font-size="10.00">xilinx_gpio.h</text>
</a>
</g>
</g>
<!-- Node1&#45;&gt;Node31 -->
<g id="edge64_Node000001_Node000031" class="edge">
<title>Node1&#45;&gt;Node31</title>
<g id="a_edge64_Node000001_Node000031"><a xlink:title=" ">
<path fill="none" stroke="#63b8ff" d="M855.76,-274.68C914.23,-234.35 1079.79,-120.14 1138.25,-79.82"/>
<polygon fill="#63b8ff" stroke="#63b8ff" points="1140.43,-82.56 1146.68,-74 1136.46,-76.8 1140.43,-82.56"/>
</a>
</g>
</g>
<!-- Node32 -->
<g id="Node000032" class="node">
<title>Node32</title>
<g id="a_Node000032"><a xlink:title=" ">
<polygon fill="#e0e0e0" stroke="#999999" points="1525.5,-239 1454.5,-239 1454.5,-220 1525.5,-220 1525.5,-239"/>
<text text-anchor="middle" x="1490" y="-227" font-family="Helvetica,sans-Serif" font-size="10.00">xil_cache.h</text>
</a>
</g>
</g>
<!-- Node1&#45;&gt;Node32 -->
<g id="edge67_Node000001_Node000032" class="edge">
<title>Node1&#45;&gt;Node32</title>
<g id="a_edge67_Node000001_Node000032"><a xlink:title=" ">
<path fill="none" stroke="#63b8ff" d="M891.14,-286.37C997.21,-280.98 1234.47,-266.86 1444.23,-238.95"/>
<polygon fill="#63b8ff" stroke="#63b8ff" points="1444.75,-242.41 1454.19,-237.61 1443.82,-235.48 1444.75,-242.41"/>
</a>
</g>
</g>
<!-- Node7 -->
<g id="Node000007" class="node">
<title>Node7</title>
<g id="a_Node000007"><a xlink:title=" ">
<polygon fill="#e0e0e0" stroke="#999999" points="1080,-19 1018,-19 1018,0 1080,0 1080,-19"/>
<text text-anchor="middle" x="1049" y="-7" font-family="Helvetica,sans-Serif" font-size="10.00">stdbool.h</text>
</a>
</g>
</g>
<!-- Node6&#45;&gt;Node7 -->
<g id="edge6_Node000006_Node000007" class="edge">
<title>Node6&#45;&gt;Node7</title>
<g id="a_edge6_Node000006_Node000007"><a xlink:title=" ">
<path fill="none" stroke="#63b8ff" d="M454.38,-219.89C478.69,-211.43 516.25,-197.83 548,-184 565.31,-176.46 567.81,-170.06 586,-165 780.14,-110.94 840.38,-168.46 1038,-129 1076.73,-121.27 1183.79,-105.96 1207,-74 1238.32,-30.88 1147.17,-17 1090.51,-12.56"/>
<polygon fill="#63b8ff" stroke="#63b8ff" points="1090.59,-9.06 1080.37,-11.84 1090.1,-16.04 1090.59,-9.06"/>
</a>
</g>
</g>
<!-- Node8 -->
<g id="Node000008" class="node">
<title>Node8</title>
<g id="a_Node000008"><a xlink:title=" ">
<polygon fill="#e0e0e0" stroke="#999999" points="525.5,-19 472.5,-19 472.5,0 525.5,0 525.5,-19"/>
<text text-anchor="middle" x="499" y="-7" font-family="Helvetica,sans-Serif" font-size="10.00">stdint.h</text>
</a>
</g>
</g>
<!-- Node6&#45;&gt;Node8 -->
<g id="edge7_Node000006_Node000008" class="edge">
<title>Node6&#45;&gt;Node8</title>
<g id="a_edge7_Node000006_Node000008"><a xlink:title=" ">
<path fill="none" stroke="#63b8ff" d="M426.23,-219.77C417.37,-191.65 390.03,-103.52 386,-74 384.86,-65.63 381.25,-61.98 386,-55 402.97,-30.08 436.25,-19.11 462.31,-14.29"/>
<polygon fill="#63b8ff" stroke="#63b8ff" points="462.95,-17.73 472.26,-12.67 461.83,-10.82 462.95,-17.73"/>
</a>
</g>
</g>
<!-- Node6&#45;&gt;Node9 -->
<g id="edge8_Node000006_Node000009" class="edge">
<title>Node6&#45;&gt;Node9</title>
<g id="a_edge8_Node000006_Node000009"><a xlink:title=" ">
<path fill="none" stroke="#63b8ff" d="M417.59,-219.98C406.89,-212 390.66,-199.88 377.84,-190.31"/>
<polygon fill="#63b8ff" stroke="#63b8ff" points="379.72,-187.35 369.61,-184.17 375.53,-192.96 379.72,-187.35"/>
</a>
</g>
</g>
<!-- Node6&#45;&gt;Node10 -->
<g id="edge10_Node000006_Node000010" class="edge">
<title>Node6&#45;&gt;Node10</title>
<g id="a_edge10_Node000006_Node000010"><a xlink:title=" ">
<path fill="none" stroke="#63b8ff" d="M393.37,-220.79C350.59,-211.54 278.69,-195.98 231.29,-185.73"/>
<polygon fill="#63b8ff" stroke="#63b8ff" points="231.79,-182.26 221.27,-183.56 230.31,-189.1 231.79,-182.26"/>
</a>
</g>
</g>
<!-- Node9&#45;&gt;Node8 -->
<g id="edge9_Node000009_Node000008" class="edge">
<title>Node9&#45;&gt;Node8</title>
<g id="a_edge9_Node000009_Node000008"><a xlink:title=" ">
<path fill="none" stroke="#63b8ff" d="M361.34,-164.8C364.55,-155.94 369.18,-141.75 371,-129 372.2,-120.64 372.94,-118.22 371,-110 366.89,-92.59 357.11,-91.41 353,-74 351.06,-65.78 347.97,-61.79 353,-55 377.94,-21.33 427.78,-12.27 462.24,-10.27"/>
<polygon fill="#63b8ff" stroke="#63b8ff" points="462.55,-13.76 472.4,-9.86 462.26,-6.77 462.55,-13.76"/>
</a>
</g>
</g>
<!-- Node10&#45;&gt;Node8 -->
<g id="edge11_Node000010_Node000008" class="edge">
<title>Node10&#45;&gt;Node8</title>
<g id="a_edge11_Node000010_Node000008"><a xlink:title=" ">
<path fill="none" stroke="#63b8ff" d="M178.95,-164.61C172.33,-151.67 162.71,-127.31 173,-110 199.11,-66.06 225.93,-72.38 274,-55 338.1,-31.82 417.07,-19.75 462.37,-14.29"/>
<polygon fill="#63b8ff" stroke="#63b8ff" points="462.79,-17.76 472.32,-13.13 461.98,-10.81 462.79,-17.76"/>
</a>
</g>
</g>
<!-- Node11&#45;&gt;Node7 -->
<g id="edge13_Node000011_Node000007" class="edge">
<title>Node11&#45;&gt;Node7</title>
<g id="a_edge13_Node000011_Node000007"><a xlink:title=" ">
<path fill="none" stroke="#63b8ff" d="M754.04,-224.16C856.62,-209.11 1181.65,-155.58 1241,-74 1279.82,-20.64 1158.15,-11.4 1090.72,-10.26"/>
<polygon fill="#63b8ff" stroke="#63b8ff" points="1090.44,-6.76 1080.4,-10.15 1090.36,-13.76 1090.44,-6.76"/>
</a>
</g>
</g>
<!-- Node11&#45;&gt;Node9 -->
<g id="edge29_Node000011_Node000009" class="edge">
<title>Node11&#45;&gt;Node9</title>
<g id="a_edge29_Node000011_Node000009"><a xlink:title=" ">
<path fill="none" stroke="#63b8ff" d="M691.88,-223.98C629.35,-214.9 487.85,-194.36 410.65,-183.15"/>
<polygon fill="#63b8ff" stroke="#63b8ff" points="411.06,-179.67 400.66,-181.69 410.05,-186.59 411.06,-179.67"/>
</a>
</g>
</g>
<!-- Node11&#45;&gt;Node10 -->
<g id="edge28_Node000011_Node000010" class="edge">
<title>Node11&#45;&gt;Node10</title>
<g id="a_edge28_Node000011_Node000010"><a xlink:title=" ">
<path fill="none" stroke="#63b8ff" d="M691.69,-225.42C601.25,-216.53 339.23,-190.76 231.31,-180.15"/>
<polygon fill="#63b8ff" stroke="#63b8ff" points="231.65,-176.67 221.36,-179.17 230.97,-183.64 231.65,-176.67"/>
</a>
</g>
</g>
<!-- Node12 -->
<g id="Node000012" class="node">
<title>Node12</title>
<g id="a_Node000012"><a xlink:title=" ">
<polygon fill="#e0e0e0" stroke="#999999" points="902,-19 846,-19 846,0 902,0 902,-19"/>
<text text-anchor="middle" x="874" y="-7" font-family="Helvetica,sans-Serif" font-size="10.00">stddef.h</text>
</a>
</g>
</g>
<!-- Node11&#45;&gt;Node12 -->
<g id="edge14_Node000011_Node000012" class="edge">
<title>Node11&#45;&gt;Node12</title>
<g id="a_edge14_Node000011_Node000012"><a xlink:title=" ">
<path fill="none" stroke="#63b8ff" d="M754.31,-221.57C796.72,-210.31 870.8,-183.59 903,-129 922.19,-96.47 900.57,-51.76 885.69,-27.62"/>
<polygon fill="#63b8ff" stroke="#63b8ff" points="888.6,-25.67 880.23,-19.17 882.72,-29.47 888.6,-25.67"/>
</a>
</g>
</g>
<!-- Node13 -->
<g id="Node000013" class="node">
<title>Node13</title>
<g id="a_Node000013"><a xlink:title=" ">
<polygon fill="#e0e0e0" stroke="#999999" points="749.5,-184 696.5,-184 696.5,-165 749.5,-165 749.5,-184"/>
<text text-anchor="middle" x="723" y="-172" font-family="Helvetica,sans-Serif" font-size="10.00">string.h</text>
</a>
</g>
</g>
<!-- Node11&#45;&gt;Node13 -->
<g id="edge15_Node000011_Node000013" class="edge">
<title>Node11&#45;&gt;Node13</title>
<g id="a_edge15_Node000011_Node000013"><a xlink:title=" ">
<path fill="none" stroke="#63b8ff" d="M723,-219.75C723,-212.8 723,-202.85 723,-194.13"/>
<polygon fill="#63b8ff" stroke="#63b8ff" points="726.5,-194.09 723,-184.09 719.5,-194.09 726.5,-194.09"/>
</a>
</g>
</g>
<!-- Node14 -->
<g id="Node000014" class="node">
<title>Node14</title>
<g id="a_Node000014"><a xlink:href="ad9208__api_8h.html" target="_top" xlink:title=" ">
<polygon fill="white" stroke="#666666" points="539,-184 457,-184 457,-165 539,-165 539,-184"/>
<text text-anchor="middle" x="498" y="-172" font-family="Helvetica,sans-Serif" font-size="10.00">ad9208_api.h</text>
</a>
</g>
</g>
<!-- Node11&#45;&gt;Node14 -->
<g id="edge16_Node000011_Node000014" class="edge">
<title>Node11&#45;&gt;Node14</title>
<g id="a_edge16_Node000011_Node000014"><a xlink:title=" ">
<path fill="none" stroke="#63b8ff" d="M691.71,-221.13C653.4,-212.11 588.18,-196.74 544.12,-186.36"/>
<polygon fill="#63b8ff" stroke="#63b8ff" points="544.76,-182.92 534.23,-184.03 543.16,-189.73 544.76,-182.92"/>
</a>
</g>
</g>
<!-- Node17 -->
<g id="Node000017" class="node">
<title>Node17</title>
<g id="a_Node000017"><a xlink:href="ad9208__reg_8h.html" target="_top" xlink:title="AD9208 SPI Register Definition Header File.">
<polygon fill="white" stroke="#666666" points="678.5,-184 595.5,-184 595.5,-165 678.5,-165 678.5,-184"/>
<text text-anchor="middle" x="637" y="-172" font-family="Helvetica,sans-Serif" font-size="10.00">ad9208_reg.h</text>
</a>
</g>
</g>
<!-- Node11&#45;&gt;Node17 -->
<g id="edge24_Node000011_Node000017" class="edge">
<title>Node11&#45;&gt;Node17</title>
<g id="a_edge24_Node000011_Node000017"><a xlink:title=" ">
<path fill="none" stroke="#63b8ff" d="M709.18,-219.98C695.85,-211.77 675.42,-199.18 659.69,-189.49"/>
<polygon fill="#63b8ff" stroke="#63b8ff" points="661.42,-186.44 651.07,-184.17 657.75,-192.4 661.42,-186.44"/>
</a>
</g>
</g>
<!-- Node11&#45;&gt;Node18 -->
<g id="edge26_Node000011_Node000018" class="edge">
<title>Node11&#45;&gt;Node18</title>
<g id="a_edge26_Node000011_Node000018"><a xlink:title=" ">
<path fill="none" stroke="#63b8ff" d="M734,-219.74C748.16,-207.37 769.62,-184.16 758,-165 727.56,-114.82 662.63,-88.76 616.96,-76.12"/>
<polygon fill="#63b8ff" stroke="#63b8ff" points="617.8,-72.72 607.24,-73.55 616.01,-79.49 617.8,-72.72"/>
</a>
</g>
</g>
<!-- Node15 -->
<g id="Node000015" class="node">
<title>Node15</title>
<g id="a_Node000015"><a xlink:href="adc_2ad9208_2ad9208__api_2api__def_8h.html" target="_top" xlink:title="API definitions header file.">
<polygon fill="white" stroke="#666666" points="556.5,-129 495.5,-129 495.5,-110 556.5,-110 556.5,-129"/>
<text text-anchor="middle" x="526" y="-117" font-family="Helvetica,sans-Serif" font-size="10.00">api_def.h</text>
</a>
</g>
</g>
<!-- Node14&#45;&gt;Node15 -->
<g id="edge17_Node000014_Node000015" class="edge">
<title>Node14&#45;&gt;Node15</title>
<g id="a_edge17_Node000014_Node000015"><a xlink:title=" ">
<path fill="none" stroke="#63b8ff" d="M502.62,-164.75C506.46,-157.49 512.02,-146.95 516.76,-137.98"/>
<polygon fill="#63b8ff" stroke="#63b8ff" points="519.89,-139.57 521.46,-129.09 513.7,-136.3 519.89,-139.57"/>
</a>
</g>
</g>
<!-- Node16 -->
<g id="Node000016" class="node">
<title>Node16</title>
<g id="a_Node000016"><a xlink:href="no__os__util_8h.html" target="_top" xlink:title="Header file of utility functions.">
<polygon fill="white" stroke="#666666" points="470.5,-74 395.5,-74 395.5,-55 470.5,-55 470.5,-74"/>
<text text-anchor="middle" x="433" y="-62" font-family="Helvetica,sans-Serif" font-size="10.00">no_os_util.h</text>
</a>
</g>
</g>
<!-- Node14&#45;&gt;Node16 -->
<g id="edge23_Node000014_Node000016" class="edge">
<title>Node14&#45;&gt;Node16</title>
<g id="a_edge23_Node000014_Node000016"><a xlink:title=" ">
<path fill="none" stroke="#63b8ff" d="M492.68,-164.66C481.96,-146.85 457.6,-106.37 443.54,-83.01"/>
<polygon fill="#63b8ff" stroke="#63b8ff" points="446.37,-80.92 438.21,-74.16 440.37,-84.53 446.37,-80.92"/>
</a>
</g>
</g>
<!-- Node15&#45;&gt;Node8 -->
<g id="edge18_Node000015_Node000008" class="edge">
<title>Node15&#45;&gt;Node8</title>
<g id="a_edge18_Node000015_Node000008"><a xlink:title=" ">
<path fill="none" stroke="#63b8ff" d="M523.79,-109.66C519.4,-92.09 509.49,-52.45 503.61,-28.95"/>
<polygon fill="#63b8ff" stroke="#63b8ff" points="506.99,-28.01 501.16,-19.16 500.19,-29.71 506.99,-28.01"/>
</a>
</g>
</g>
<!-- Node15&#45;&gt;Node16 -->
<g id="edge19_Node000015_Node000016" class="edge">
<title>Node15&#45;&gt;Node16</title>
<g id="a_edge19_Node000015_Node000016"><a xlink:title=" ">
<path fill="none" stroke="#63b8ff" d="M511.06,-109.98C496.5,-101.69 474.13,-88.94 457.07,-79.22"/>
<polygon fill="#63b8ff" stroke="#63b8ff" points="458.64,-76.08 448.21,-74.17 455.17,-82.16 458.64,-76.08"/>
</a>
</g>
</g>
<!-- Node16&#45;&gt;Node3 -->
<g id="edge21_Node000016_Node000003" class="edge">
<title>Node16&#45;&gt;Node3</title>
<g id="a_edge21_Node000016_Node000003"><a xlink:title=" ">
<path fill="none" stroke="#63b8ff" d="M404.88,-54.98C374.85,-45.89 327.14,-31.44 294.29,-21.49"/>
<polygon fill="#63b8ff" stroke="#63b8ff" points="295.2,-18.11 284.61,-18.56 293.17,-24.81 295.2,-18.11"/>
</a>
</g>
</g>
<!-- Node16&#45;&gt;Node7 -->
<g id="edge22_Node000016_Node000007" class="edge">
<title>Node16&#45;&gt;Node7</title>
<g id="a_edge22_Node000016_Node000007"><a xlink:title=" ">
<path fill="none" stroke="#63b8ff" d="M470.65,-59.6C485.41,-58.11 502.49,-56.43 518,-55 700.54,-38.22 918.64,-20.76 1007.88,-13.72"/>
<polygon fill="#63b8ff" stroke="#63b8ff" points="1008.17,-17.21 1017.86,-12.93 1007.62,-10.23 1008.17,-17.21"/>
</a>
</g>
</g>
<!-- Node16&#45;&gt;Node8 -->
<g id="edge20_Node000016_Node000008" class="edge">
<title>Node16&#45;&gt;Node8</title>
<g id="a_edge20_Node000016_Node000008"><a xlink:title=" ">
<path fill="none" stroke="#63b8ff" d="M443.6,-54.98C453.46,-47.07 468.35,-35.11 480.22,-25.58"/>
<polygon fill="#63b8ff" stroke="#63b8ff" points="482.6,-28.16 488.2,-19.17 478.21,-22.7 482.6,-28.16"/>
</a>
</g>
</g>
<!-- Node17&#45;&gt;Node15 -->
<g id="edge25_Node000017_Node000015" class="edge">
<title>Node17&#45;&gt;Node15</title>
<g id="a_edge25_Node000017_Node000015"><a xlink:title=" ">
<path fill="none" stroke="#63b8ff" d="M619.17,-164.98C601.39,-156.5 573.85,-143.35 553.32,-133.54"/>
<polygon fill="#63b8ff" stroke="#63b8ff" points="554.69,-130.32 544.16,-129.17 551.67,-136.64 554.69,-130.32"/>
</a>
</g>
</g>
<!-- Node18&#45;&gt;Node8 -->
<g id="edge27_Node000018_Node000008" class="edge">
<title>Node18&#45;&gt;Node8</title>
<g id="a_edge27_Node000018_Node000008"><a xlink:title=" ">
<path fill="none" stroke="#63b8ff" d="M556.07,-54.98C545.92,-47.07 530.58,-35.11 518.35,-25.58"/>
<polygon fill="#63b8ff" stroke="#63b8ff" points="520.16,-22.56 510.12,-19.17 515.86,-28.08 520.16,-22.56"/>
</a>
</g>
</g>
<!-- Node19&#45;&gt;Node7 -->
<g id="edge32_Node000019_Node000007" class="edge">
<title>Node19&#45;&gt;Node7</title>
<g id="a_edge32_Node000019_Node000007"><a xlink:title=" ">
<path fill="none" stroke="#63b8ff" d="M1022.21,-109.92C1040.25,-103.29 1061.23,-92.09 1072,-74 1080.77,-59.26 1072.01,-40.64 1062.89,-27.38"/>
<polygon fill="#63b8ff" stroke="#63b8ff" points="1065.53,-25.07 1056.73,-19.17 1059.93,-29.27 1065.53,-25.07"/>
</a>
</g>
</g>
<!-- Node19&#45;&gt;Node8 -->
<g id="edge31_Node000019_Node000008" class="edge">
<title>Node19&#45;&gt;Node8</title>
<g id="a_edge31_Node000019_Node000008"><a xlink:title=" ">
<path fill="none" stroke="#63b8ff" d="M950.85,-113.04C908.81,-106.5 840.43,-93.85 784,-74 766.19,-67.74 763.92,-60.96 746,-55 673.58,-30.92 584.64,-18.96 535.68,-13.81"/>
<polygon fill="#63b8ff" stroke="#63b8ff" points="535.87,-10.31 525.57,-12.78 535.17,-17.27 535.87,-10.31"/>
</a>
</g>
</g>
<!-- Node20 -->
<g id="Node000020" class="node">
<title>Node20</title>
<g id="a_Node000020"><a xlink:href="xilinx__transceiver_8h.html" target="_top" xlink:title="Driver for the Xilinx High&#45;speed transceiver dynamic reconfiguration.">
<polygon fill="white" stroke="#666666" points="1063,-74 951,-74 951,-55 1063,-55 1063,-74"/>
<text text-anchor="middle" x="1007" y="-62" font-family="Helvetica,sans-Serif" font-size="10.00">xilinx_transceiver.h</text>
</a>
</g>
</g>
<!-- Node19&#45;&gt;Node20 -->
<g id="edge33_Node000019_Node000020" class="edge">
<title>Node19&#45;&gt;Node20</title>
<g id="a_edge33_Node000019_Node000020"><a xlink:title=" ">
<path fill="none" stroke="#63b8ff" d="M992.81,-109.75C995.06,-102.72 998.3,-92.62 1001.12,-83.84"/>
<polygon fill="#63b8ff" stroke="#63b8ff" points="1004.52,-84.68 1004.25,-74.09 997.86,-82.54 1004.52,-84.68"/>
</a>
</g>
</g>
<!-- Node20&#45;&gt;Node7 -->
<g id="edge35_Node000020_Node000007" class="edge">
<title>Node20&#45;&gt;Node7</title>
<g id="a_edge35_Node000020_Node000007"><a xlink:title=" ">
<path fill="none" stroke="#63b8ff" d="M1013.94,-54.75C1019.87,-47.26 1028.57,-36.28 1035.82,-27.13"/>
<polygon fill="#63b8ff" stroke="#63b8ff" points="1038.73,-29.1 1042.19,-19.09 1033.24,-24.75 1038.73,-29.1"/>
</a>
</g>
</g>
<!-- Node20&#45;&gt;Node8 -->
<g id="edge34_Node000020_Node000008" class="edge">
<title>Node20&#45;&gt;Node8</title>
<g id="a_edge34_Node000020_Node000008"><a xlink:title=" ">
<path fill="none" stroke="#63b8ff" d="M950.69,-57.63C845.81,-46.68 623.25,-23.46 535.58,-14.32"/>
<polygon fill="#63b8ff" stroke="#63b8ff" points="535.89,-10.83 525.58,-13.27 535.16,-17.79 535.89,-10.83"/>
</a>
</g>
</g>
<!-- Node21&#45;&gt;Node8 -->
<g id="edge37_Node000021_Node000008" class="edge">
<title>Node21&#45;&gt;Node8</title>
<g id="a_edge37_Node000021_Node000008"><a xlink:title=" ">
<path fill="none" stroke="#63b8ff" d="M235.32,-109.61C248.8,-95.76 276.87,-69.14 306,-55 356.97,-30.26 422.29,-18.93 462.36,-14"/>
<polygon fill="#63b8ff" stroke="#63b8ff" points="462.94,-17.46 472.47,-12.83 462.14,-10.5 462.94,-17.46"/>
</a>
</g>
</g>
<!-- Node21&#45;&gt;Node16 -->
<g id="edge38_Node000021_Node000016" class="edge">
<title>Node21&#45;&gt;Node16</title>
<g id="a_edge38_Node000021_Node000016"><a xlink:title=" ">
<path fill="none" stroke="#63b8ff" d="M260.1,-109.98C295.28,-100.93 351.07,-86.58 389.72,-76.64"/>
<polygon fill="#63b8ff" stroke="#63b8ff" points="390.83,-79.96 399.64,-74.08 389.09,-73.18 390.83,-79.96"/>
</a>
</g>
</g>
<!-- Node22&#45;&gt;Node7 -->
<g id="edge41_Node000022_Node000007" class="edge">
<title>Node22&#45;&gt;Node7</title>
<g id="a_edge41_Node000022_Node000007"><a xlink:title=" ">
<path fill="none" stroke="#63b8ff" d="M856.51,-109.95C874.26,-97 909.62,-72.14 942,-55 965.79,-42.4 993.95,-30.82 1015.4,-22.63"/>
<polygon fill="#63b8ff" stroke="#63b8ff" points="1016.92,-25.8 1025.05,-19 1014.45,-19.24 1016.92,-25.8"/>
</a>
</g>
</g>
<!-- Node22&#45;&gt;Node8 -->
<g id="edge40_Node000022_Node000008" class="edge">
<title>Node22&#45;&gt;Node8</title>
<g id="a_edge40_Node000022_Node000008"><a xlink:title=" ">
<path fill="none" stroke="#63b8ff" d="M795.41,-110.26C756.31,-102.97 700.76,-90.87 654,-74 636.24,-67.59 633.29,-62.59 616,-55 588.49,-42.93 556.57,-30.92 533.03,-22.42"/>
<polygon fill="#63b8ff" stroke="#63b8ff" points="534.08,-19.08 523.49,-19 531.72,-25.67 534.08,-19.08"/>
</a>
</g>
</g>
<!-- Node22&#45;&gt;Node18 -->
<g id="edge48_Node000022_Node000018" class="edge">
<title>Node22&#45;&gt;Node18</title>
<g id="a_edge48_Node000022_Node000018"><a xlink:title=" ">
<path fill="none" stroke="#63b8ff" d="M800.33,-109.98C750.26,-100.44 669.26,-85 617.08,-75.05"/>
<polygon fill="#63b8ff" stroke="#63b8ff" points="617.52,-71.57 607.04,-73.13 616.21,-78.45 617.52,-71.57"/>
</a>
</g>
</g>
<!-- Node23 -->
<g id="Node000023" class="node">
<title>Node23</title>
<g id="a_Node000023"><a xlink:href="jesd204_8h.html" target="_top" xlink:title=" ">
<polygon fill="white" stroke="#666666" points="857,-74 793,-74 793,-55 857,-55 857,-74"/>
<text text-anchor="middle" x="825" y="-62" font-family="Helvetica,sans-Serif" font-size="10.00">jesd204.h</text>
</a>
</g>
</g>
<!-- Node22&#45;&gt;Node23 -->
<g id="edge42_Node000022_Node000023" class="edge">
<title>Node22&#45;&gt;Node23</title>
<g id="a_edge42_Node000022_Node000023"><a xlink:title=" ">
<path fill="none" stroke="#63b8ff" d="M841.7,-109.75C839.02,-102.65 835.15,-92.4 831.81,-83.56"/>
<polygon fill="#63b8ff" stroke="#63b8ff" points="835.05,-82.21 828.24,-74.09 828.5,-84.68 835.05,-82.21"/>
</a>
</g>
</g>
<!-- Node24 -->
<g id="Node000024" class="node">
<title>Node24</title>
<g id="a_Node000024"><a xlink:href="no__os__clk_8h.html" target="_top" xlink:title="Header file of Clock Driver.">
<polygon fill="white" stroke="#666666" points="737,-74 663,-74 663,-55 737,-55 737,-74"/>
<text text-anchor="middle" x="700" y="-62" font-family="Helvetica,sans-Serif" font-size="10.00">no_os_clk.h</text>
</a>
</g>
</g>
<!-- Node22&#45;&gt;Node24 -->
<g id="edge46_Node000022_Node000024" class="edge">
<title>Node22&#45;&gt;Node24</title>
<g id="a_edge46_Node000022_Node000024"><a xlink:title=" ">
<path fill="none" stroke="#63b8ff" d="M821.7,-109.98C797.75,-101.23 760.22,-87.51 733.17,-77.62"/>
<polygon fill="#63b8ff" stroke="#63b8ff" points="734.31,-74.32 723.72,-74.17 731.91,-80.89 734.31,-74.32"/>
</a>
</g>
</g>
<!-- Node23&#45;&gt;Node7 -->
<g id="edge43_Node000023_Node000007" class="edge">
<title>Node23&#45;&gt;Node7</title>
<g id="a_edge43_Node000023_Node000007"><a xlink:title=" ">
<path fill="none" stroke="#63b8ff" d="M857.09,-55.91C896.74,-46.53 964.26,-30.55 1007.72,-20.27"/>
<polygon fill="#63b8ff" stroke="#63b8ff" points="1008.76,-23.62 1017.69,-17.91 1007.15,-16.81 1008.76,-23.62"/>
</a>
</g>
</g>
<!-- Node23&#45;&gt;Node8 -->
<g id="edge45_Node000023_Node000008" class="edge">
<title>Node23&#45;&gt;Node8</title>
<g id="a_edge45_Node000023_Node000008"><a xlink:title=" ">
<path fill="none" stroke="#63b8ff" d="M792.85,-57.45C788.2,-56.61 783.48,-55.77 779,-55 691.91,-40.04 589.26,-24.17 535.71,-16.03"/>
<polygon fill="#63b8ff" stroke="#63b8ff" points="536.09,-12.55 525.68,-14.51 535.04,-19.47 536.09,-12.55"/>
</a>
</g>
</g>
<!-- Node23&#45;&gt;Node12 -->
<g id="edge44_Node000023_Node000012" class="edge">
<title>Node23&#45;&gt;Node12</title>
<g id="a_edge44_Node000023_Node000012"><a xlink:title=" ">
<path fill="none" stroke="#63b8ff" d="M833.09,-54.75C840.16,-47.11 850.59,-35.82 859.15,-26.56"/>
<polygon fill="#63b8ff" stroke="#63b8ff" points="861.84,-28.81 866.06,-19.09 856.7,-24.06 861.84,-28.81"/>
</a>
</g>
</g>
<!-- Node24&#45;&gt;Node8 -->
<g id="edge47_Node000024_Node000008" class="edge">
<title>Node24&#45;&gt;Node8</title>
<g id="a_edge47_Node000024_Node000008"><a xlink:title=" ">
<path fill="none" stroke="#63b8ff" d="M667.71,-54.98C631.7,-45.49 573.57,-30.16 535.82,-20.21"/>
<polygon fill="#63b8ff" stroke="#63b8ff" points="536.31,-16.72 525.75,-17.55 534.53,-23.49 536.31,-16.72"/>
</a>
</g>
</g>
<!-- Node25&#45;&gt;Node8 -->
<g id="edge50_Node000025_Node000008" class="edge">
<title>Node25&#45;&gt;Node8</title>
<g id="a_edge50_Node000025_Node000008"><a xlink:title=" ">
<path fill="none" stroke="#63b8ff" d="M320.62,-109.66C313.28,-96.35 302.41,-71 315,-55 332.99,-32.14 414.07,-19.62 462.4,-14.07"/>
<polygon fill="#63b8ff" stroke="#63b8ff" points="462.91,-17.53 472.47,-12.96 462.14,-10.57 462.91,-17.53"/>
</a>
</g>
</g>
<!-- Node25&#45;&gt;Node16 -->
<g id="edge51_Node000025_Node000016" class="edge">
<title>Node25&#45;&gt;Node16</title>
<g id="a_edge51_Node000025_Node000016"><a xlink:title=" ">
<path fill="none" stroke="#63b8ff" d="M343.19,-109.98C360.25,-101.54 386.63,-88.47 406.4,-78.68"/>
<polygon fill="#63b8ff" stroke="#63b8ff" points="408.09,-81.75 415.5,-74.17 404.98,-75.47 408.09,-81.75"/>
</a>
</g>
</g>
<!-- Node26&#45;&gt;Node27 -->
<g id="edge53_Node000026_Node000027" class="edge">
<title>Node26&#45;&gt;Node27</title>
<g id="a_edge53_Node000026_Node000027"><a xlink:title=" ">
<path fill="none" stroke="#63b8ff" d="M1303.22,-219.75C1298.38,-212.42 1291.32,-201.73 1285.36,-192.7"/>
<polygon fill="#63b8ff" stroke="#63b8ff" points="1288.1,-190.5 1279.67,-184.09 1282.26,-194.36 1288.1,-190.5"/>
</a>
</g>
</g>
<!-- Node29&#45;&gt;Node4 -->
<g id="edge57_Node000029_Node000004" class="edge">
<title>Node29&#45;&gt;Node4</title>
<g id="a_edge57_Node000029_Node000004"><a xlink:title=" ">
<path fill="none" stroke="#63b8ff" d="M1087,-219.75C1087,-212.8 1087,-202.85 1087,-194.13"/>
<polygon fill="#63b8ff" stroke="#63b8ff" points="1090.5,-194.09 1087,-184.09 1083.5,-194.09 1090.5,-194.09"/>
</a>
</g>
</g>
<!-- Node30&#45;&gt;Node8 -->
<g id="edge61_Node000030_Node000008" class="edge">
<title>Node30&#45;&gt;Node8</title>
<g id="a_edge61_Node000030_Node000008"><a xlink:title=" ">
<path fill="none" stroke="#63b8ff" d="M143.75,-219.78C139.62,-207.46 133.52,-184.31 138,-165 151.16,-108.32 158.62,-84.12 209,-55 251.38,-30.5 393.61,-17.7 461.86,-12.85"/>
<polygon fill="#63b8ff" stroke="#63b8ff" points="462.41,-16.32 472.15,-12.14 461.93,-9.33 462.41,-16.32"/>
</a>
</g>
</g>
<!-- Node30&#45;&gt;Node10 -->
<g id="edge62_Node000030_Node000010" class="edge">
<title>Node30&#45;&gt;Node10</title>
<g id="a_edge62_Node000030_Node000010"><a xlink:title=" ">
<path fill="none" stroke="#63b8ff" d="M153.11,-219.75C158.28,-212.34 165.85,-201.5 172.19,-192.41"/>
<polygon fill="#63b8ff" stroke="#63b8ff" points="175.15,-194.29 178,-184.09 169.41,-190.29 175.15,-194.29"/>
</a>
</g>
</g>
<!-- Node31&#45;&gt;Node7 -->
<g id="edge66_Node000031_Node000007" class="edge">
<title>Node31&#45;&gt;Node7</title>
<g id="a_edge66_Node000031_Node000007"><a xlink:title=" ">
<path fill="none" stroke="#63b8ff" d="M1141.33,-54.98C1123.71,-46.5 1096.42,-33.35 1076.07,-23.54"/>
<polygon fill="#63b8ff" stroke="#63b8ff" points="1077.52,-20.36 1066.99,-19.17 1074.48,-26.66 1077.52,-20.36"/>
</a>
</g>
</g>
<!-- Node31&#45;&gt;Node8 -->
<g id="edge65_Node000031_Node000008" class="edge">
<title>Node31&#45;&gt;Node8</title>
<g id="a_edge65_Node000031_Node000008"><a xlink:title=" ">
<path fill="none" stroke="#63b8ff" d="M1119.17,-59.44C1104.36,-57.98 1087.42,-56.35 1072,-55 869.54,-37.25 626.51,-19.57 535.64,-13.09"/>
<polygon fill="#63b8ff" stroke="#63b8ff" points="535.8,-9.59 525.58,-12.38 535.3,-16.58 535.8,-9.59"/>
</a>
</g>
</g>
</g>
</svg>
