<?xml version="1.0" encoding="UTF-8" standalone="no"?>
<!DOCTYPE svg PUBLIC "-//W3C//DTD SVG 1.1//EN"
 "http://www.w3.org/Graphics/SVG/1.1/DTD/svg11.dtd">
<!-- Generated by graphviz version 2.43.0 (0)
 -->
<!-- Title: projects/ad9208/src/main.c Pages: 1 -->
<!--zoomable 313 -->

<svg id="main" version="1.1" xmlns="http://www.w3.org/2000/svg" xmlns:xlink="http://www.w3.org/1999/xlink" xml:space="preserve" onload="init(evt)">

<style type="text/css"><![CDATA[
.node, .edge {opacity: 0.7;}
.node.selected, .edge.selected {opacity: 1;}
.edge:hover path { stroke: red; }
.edge:hover polygon { stroke: red; fill: red; }
]]></style>

<defs>
  <circle id="rim" cx="0" cy="0" r="7"/>
  <circle id="rim2" cx="0" cy="0" r="3.5"/>
  <g id="zoomPlus">
    <use xlink:href="#rim" fill="#404040"><set attributeName="fill" to="#808080" begin="zoomplus.mouseover" end="zoomplus.mouseout"/></use>
    <path d="M-4,0h8M0,-4v8" fill="none" stroke="white" stroke-width="1.5" pointer-events="none"/>
  </g>
  <g id="zoomMin">
    <use xlink:href="#rim" fill="#404040"><set attributeName="fill" to="#808080" begin="zoomminus.mouseover" end="zoomminus.mouseout"/></use>
    <path d="M-4,0h8" fill="none" stroke="white" stroke-width="1.5" pointer-events="none"/>
  </g>
  <g id="arrowUp" transform="translate(30 24)">
    <use xlink:href="#rim"/>
    <path pointer-events="none" fill="none" stroke="white" stroke-width="1.5" d="M0,-3.0v7 M-2.5,-0.5L0,-3.0L2.5,-0.5"/>
  </g>
  <g id="arrowRight" transform="rotate(90) translate(36 -43)">
    <use xlink:href="#rim"/>
    <path pointer-events="none" fill="none" stroke="white" stroke-width="1.5" d="M0,-3.0v7 M-2.5,-0.5L0,-3.0L2.5,-0.5"/>
  </g>
  <g id="arrowDown" transform="rotate(180) translate(-30 -48)">
    <use xlink:href="#rim"/>
    <path pointer-events="none" fill="none" stroke="white" stroke-width="1.5" d="M0,-3.0v7 M-2.5,-0.5L0,-3.0L2.5,-0.5"/>
  </g>
  <g id="arrowLeft" transform="rotate(270) translate(-36 17)">
    <use xlink:href="#rim"/>
    <path pointer-events="none" fill="none" stroke="white" stroke-width="1.5" d="M0,-3.0v7 M-2.5,-0.5L0,-3.0L2.5,-0.5"/>
  </g>
  <g id="resetDef">
    <use xlink:href="#rim2" fill="#404040"><set attributeName="fill" to="#808080" begin="reset.mouseover" end="reset.mouseout"/></use>
  </g>
</defs>
<script type="application/ecmascript">
var viewWidth = 1604;
var viewHeight = 313;
var sectionId = 'dynsection-0';
</script>
<script type="application/ecmascript" xlink:href="svg.min.js"/>
<svg id="graph" class="graph">
<g id="viewport">
<title>projects/ad9208/src/main.c</title>
<!-- Node1 -->
<g id="Node000001" class="node">
<title>Node1</title>
<g id="a_Node000001"><a xlink:title="Implementation of Main Function.">
<polygon fill="#999999" stroke="#666666" points="1011,-305 899,-305 899,-275 1011,-275 1011,-305"/>
<text text-anchor="start" x="907" y="-293" font-family="Helvetica,sans-Serif" font-size="10.00">projects/ad9208/src</text>
<text text-anchor="middle" x="955" y="-282" font-family="Helvetica,sans-Serif" font-size="10.00">/main.c</text>
</a>
</g>
</g>
<!-- Node2 -->
<g id="Node000002" class="node">
<title>Node2</title>
<g id="a_Node000002"><a xlink:title=" ">
<polygon fill="#e0e0e0" stroke="#999999" points="50,-239 0,-239 0,-220 50,-220 50,-239"/>
<text text-anchor="middle" x="25" y="-227" font-family="Helvetica,sans-Serif" font-size="10.00">stdio.h</text>
</a>
</g>
</g>
<!-- Node1&#45;&gt;Node2 -->
<g id="edge1_Node000001_Node000002" class="edge">
<title>Node1&#45;&gt;Node2</title>
<g id="a_edge1_Node000001_Node000002"><a xlink:title=" ">
<path fill="none" stroke="#63b8ff" d="M898.93,-288.93C757.95,-288.09 377.55,-281.69 64,-239 62.73,-238.83 61.43,-238.63 60.13,-238.42"/>
<polygon fill="#63b8ff" stroke="#63b8ff" points="60.54,-234.94 50.07,-236.58 59.27,-241.83 60.54,-234.94"/>
</a>
</g>
</g>
<!-- Node3 -->
<g id="Node000003" class="node">
<title>Node3</title>
<g id="a_Node000003"><a xlink:title=" ">
<polygon fill="#e0e0e0" stroke="#999999" points="274.5,-19 221.5,-19 221.5,0 274.5,0 274.5,-19"/>
<text text-anchor="middle" x="248" y="-7" font-family="Helvetica,sans-Serif" font-size="10.00">stdlib.h</text>
</a>
</g>
</g>
<!-- Node1&#45;&gt;Node3 -->
<g id="edge2_Node000001_Node000003" class="edge">
<title>Node1&#45;&gt;Node3</title>
<g id="a_edge2_Node000001_Node000003"><a xlink:title=" ">
<path fill="none" stroke="#63b8ff" d="M898.87,-287.36C752.52,-282.72 361.92,-267.92 236,-239 162.24,-222.06 78,-251.18 78,-175.5 78,-175.5 78,-175.5 78,-118.5 78,-55.69 161.7,-27.85 211.64,-16.83"/>
<polygon fill="#63b8ff" stroke="#63b8ff" points="212.36,-20.26 221.44,-14.79 210.93,-13.4 212.36,-20.26"/>
</a>
</g>
</g>
<!-- Node4 -->
<g id="Node000004" class="node">
<title>Node4</title>
<g id="a_Node000004"><a xlink:href="errno_8h.html" target="_top" xlink:title="Error macro definition for ARM Compiler.">
<polygon fill="white" stroke="#666666" points="1175.5,-184 1124.5,-184 1124.5,-165 1175.5,-165 1175.5,-184"/>
<text text-anchor="middle" x="1150" y="-172" font-family="Helvetica,sans-Serif" font-size="10.00">errno.h</text>
</a>
</g>
</g>
<!-- Node1&#45;&gt;Node4 -->
<g id="edge3_Node000001_Node000004" class="edge">
<title>Node1&#45;&gt;Node4</title>
<g id="a_edge3_Node000001_Node000004"><a xlink:title=" ">
<path fill="none" stroke="#63b8ff" d="M990.78,-274.79C1012.52,-265.63 1040.51,-252.86 1064,-239 1088.77,-224.38 1115.07,-204.19 1131.97,-190.53"/>
<polygon fill="#63b8ff" stroke="#63b8ff" points="1134.37,-193.09 1139.89,-184.05 1129.93,-187.67 1134.37,-193.09"/>
</a>
</g>
</g>
<!-- Node5 -->
<g id="Node000005" class="node">
<title>Node5</title>
<g id="a_Node000005"><a xlink:title=" ">
<polygon fill="#e0e0e0" stroke="#999999" points="1281.5,-239 1216.5,-239 1216.5,-220 1281.5,-220 1281.5,-239"/>
<text text-anchor="middle" x="1249" y="-227" font-family="Helvetica,sans-Serif" font-size="10.00">inttypes.h</text>
</a>
</g>
</g>
<!-- Node1&#45;&gt;Node5 -->
<g id="edge4_Node000001_Node000005" class="edge">
<title>Node1&#45;&gt;Node5</title>
<g id="a_edge4_Node000001_Node000005"><a xlink:title=" ">
<path fill="none" stroke="#63b8ff" d="M1011.06,-277.94C1059.94,-268.28 1133.04,-253.81 1206.54,-239.09"/>
<polygon fill="#63b8ff" stroke="#63b8ff" points="1207.33,-242.5 1216.44,-237.1 1205.95,-235.63 1207.33,-242.5"/>
</a>
</g>
</g>
<!-- Node6 -->
<g id="Node000006" class="node">
<title>Node6</title>
<g id="a_Node000006"><a xlink:href="hmc7044_8h.html" target="_top" xlink:title="Header file of HMC7044, HMC7043 Driver.">
<polygon fill="white" stroke="#666666" points="907.5,-239 836.5,-239 836.5,-220 907.5,-220 907.5,-239"/>
<text text-anchor="middle" x="872" y="-227" font-family="Helvetica,sans-Serif" font-size="10.00">hmc7044.h</text>
</a>
</g>
</g>
<!-- Node1&#45;&gt;Node6 -->
<g id="edge5_Node000001_Node000006" class="edge">
<title>Node1&#45;&gt;Node6</title>
<g id="a_edge5_Node000001_Node000006"><a xlink:title=" ">
<path fill="none" stroke="#63b8ff" d="M934.91,-274.84C922.12,-265.83 905.6,-254.18 892.7,-245.09"/>
<polygon fill="#63b8ff" stroke="#63b8ff" points="894.63,-242.17 884.44,-239.27 890.59,-247.89 894.63,-242.17"/>
</a>
</g>
</g>
<!-- Node9 -->
<g id="Node000009" class="node">
<title>Node9</title>
<g id="a_Node000009"><a xlink:href="no__os__delay_8h.html" target="_top" xlink:title="Header file of Delay functions.">
<polygon fill="white" stroke="#666666" points="945.5,-184 860.5,-184 860.5,-165 945.5,-165 945.5,-184"/>
<text text-anchor="middle" x="903" y="-172" font-family="Helvetica,sans-Serif" font-size="10.00">no_os_delay.h</text>
</a>
</g>
</g>
<!-- Node1&#45;&gt;Node9 -->
<g id="edge57_Node000001_Node000009" class="edge">
<title>Node1&#45;&gt;Node9</title>
<g id="a_edge57_Node000001_Node000009"><a xlink:title=" ">
<path fill="none" stroke="#63b8ff" d="M948.41,-274.63C938.93,-253.93 921.45,-215.78 911.17,-193.32"/>
<polygon fill="#63b8ff" stroke="#63b8ff" points="914.35,-191.86 907,-184.23 907.98,-194.78 914.35,-191.86"/>
</a>
</g>
</g>
<!-- Node10 -->
<g id="Node000010" class="node">
<title>Node10</title>
<g id="a_Node000010"><a xlink:href="no__os__spi_8h.html" target="_top" xlink:title="Header file of SPI Interface.">
<polygon fill="white" stroke="#666666" points="455,-184 381,-184 381,-165 455,-165 455,-184"/>
<text text-anchor="middle" x="418" y="-172" font-family="Helvetica,sans-Serif" font-size="10.00">no_os_spi.h</text>
</a>
</g>
</g>
<!-- Node1&#45;&gt;Node10 -->
<g id="edge58_Node000001_Node000010" class="edge">
<title>Node1&#45;&gt;Node10</title>
<g id="a_edge58_Node000001_Node000010"><a xlink:title=" ">
<path fill="none" stroke="#63b8ff" d="M898.91,-280.95C839.54,-272.08 743.25,-256.71 661,-239 588.37,-223.37 504.78,-200.41 456.99,-186.81"/>
<polygon fill="#63b8ff" stroke="#63b8ff" points="457.93,-183.44 447.35,-184.06 456.01,-190.17 457.93,-183.44"/>
</a>
</g>
</g>
<!-- Node11 -->
<g id="Node000011" class="node">
<title>Node11</title>
<g id="a_Node000011"><a xlink:href="ad9208_8h.html" target="_top" xlink:title="Header file of AD9208 Driver.">
<polygon fill="white" stroke="#666666" points="732,-239 670,-239 670,-220 732,-220 732,-239"/>
<text text-anchor="middle" x="701" y="-227" font-family="Helvetica,sans-Serif" font-size="10.00">ad9208.h</text>
</a>
</g>
</g>
<!-- Node1&#45;&gt;Node11 -->
<g id="edge12_Node000001_Node000011" class="edge">
<title>Node1&#45;&gt;Node11</title>
<g id="a_edge12_Node000001_Node000011"><a xlink:title=" ">
<path fill="none" stroke="#63b8ff" d="M898.94,-276.09C851.47,-265.16 784.52,-249.74 741.95,-239.93"/>
<polygon fill="#63b8ff" stroke="#63b8ff" points="742.73,-236.52 732.2,-237.69 741.16,-243.34 742.73,-236.52"/>
</a>
</g>
</g>
<!-- Node18 -->
<g id="Node000018" class="node">
<title>Node18</title>
<g id="a_Node000018"><a xlink:href="no__os__gpio_8h.html" target="_top" xlink:title="Header file of GPIO Interface.">
<polygon fill="white" stroke="#666666" points="325,-184 245,-184 245,-165 325,-165 325,-184"/>
<text text-anchor="middle" x="285" y="-172" font-family="Helvetica,sans-Serif" font-size="10.00">no_os_gpio.h</text>
</a>
</g>
</g>
<!-- Node1&#45;&gt;Node18 -->
<g id="edge62_Node000001_Node000018" class="edge">
<title>Node1&#45;&gt;Node18</title>
<g id="a_edge62_Node000001_Node000018"><a xlink:title=" ">
<path fill="none" stroke="#63b8ff" d="M898.71,-287.97C772.09,-285.04 468.43,-274.42 373,-239 345.02,-228.62 317.98,-206.77 301.42,-191.63"/>
<polygon fill="#63b8ff" stroke="#63b8ff" points="303.45,-188.73 293.77,-184.41 298.65,-193.82 303.45,-188.73"/>
</a>
</g>
</g>
<!-- Node19 -->
<g id="Node000019" class="node">
<title>Node19</title>
<g id="a_Node000019"><a xlink:href="axi__adxcvr_8h.html" target="_top" xlink:title="Driver for the ADI AXI&#45;ADXCVR Module.">
<polygon fill="white" stroke="#666666" points="1021,-129 943,-129 943,-110 1021,-110 1021,-129"/>
<text text-anchor="middle" x="982" y="-117" font-family="Helvetica,sans-Serif" font-size="10.00">axi_adxcvr.h</text>
</a>
</g>
</g>
<!-- Node1&#45;&gt;Node19 -->
<g id="edge30_Node000001_Node000019" class="edge">
<title>Node1&#45;&gt;Node19</title>
<g id="a_edge30_Node000001_Node000019"><a xlink:title=" ">
<path fill="none" stroke="#63b8ff" d="M967.61,-274.85C975.14,-265.42 983.99,-252.35 988,-239 998.28,-204.77 991.87,-162.5 986.67,-138.82"/>
<polygon fill="#63b8ff" stroke="#63b8ff" points="990.07,-137.99 984.36,-129.07 983.26,-139.6 990.07,-137.99"/>
</a>
</g>
</g>
<!-- Node21 -->
<g id="Node000021" class="node">
<title>Node21</title>
<g id="a_Node000021"><a xlink:href="axi__adc__core_8h.html" target="_top" xlink:title="Driver for the Analog Devices AXI&#45;ADC&#45;CORE module.">
<polygon fill="white" stroke="#666666" points="195.5,-129 106.5,-129 106.5,-110 195.5,-110 195.5,-129"/>
<text text-anchor="middle" x="151" y="-117" font-family="Helvetica,sans-Serif" font-size="10.00">axi_adc_core.h</text>
</a>
</g>
</g>
<!-- Node1&#45;&gt;Node21 -->
<g id="edge36_Node000001_Node000021" class="edge">
<title>Node1&#45;&gt;Node21</title>
<g id="a_edge36_Node000001_Node000021"><a xlink:title=" ">
<path fill="none" stroke="#63b8ff" d="M898.84,-287.14C745.37,-281.74 326.55,-264.8 270,-239 220.88,-216.59 180.56,-164.6 162.01,-137.55"/>
<polygon fill="#63b8ff" stroke="#63b8ff" points="164.84,-135.48 156.38,-129.11 159.02,-139.37 164.84,-135.48"/>
</a>
</g>
</g>
<!-- Node22 -->
<g id="Node000022" class="node">
<title>Node22</title>
<g id="a_Node000022"><a xlink:href="axi__jesd204__rx_8h.html" target="_top" xlink:title="Driver for the Analog Devices AXI&#45;JESD204&#45;RX peripheral.">
<polygon fill="white" stroke="#666666" points="1138.5,-129 1039.5,-129 1039.5,-110 1138.5,-110 1138.5,-129"/>
<text text-anchor="middle" x="1089" y="-117" font-family="Helvetica,sans-Serif" font-size="10.00">axi_jesd204_rx.h</text>
</a>
</g>
</g>
<!-- Node1&#45;&gt;Node22 -->
<g id="edge39_Node000001_Node000022" class="edge">
<title>Node1&#45;&gt;Node22</title>
<g id="a_edge39_Node000001_Node000022"><a xlink:title=" ">
<path fill="none" stroke="#63b8ff" d="M970.2,-274.68C980.2,-264.98 993.37,-251.66 1004,-239 1032.77,-204.76 1062.31,-161.34 1077.86,-137.72"/>
<polygon fill="#63b8ff" stroke="#63b8ff" points="1080.91,-139.45 1083.45,-129.16 1075.05,-135.62 1080.91,-139.45"/>
</a>
</g>
</g>
<!-- Node25 -->
<g id="Node000025" class="node">
<title>Node25</title>
<g id="a_Node000025"><a xlink:href="axi__dmac_8h.html" target="_top" xlink:title="Driver for the Analog Devices AXI&#45;DMAC core.">
<polygon fill="white" stroke="#666666" points="286.5,-129 213.5,-129 213.5,-110 286.5,-110 286.5,-129"/>
<text text-anchor="middle" x="250" y="-117" font-family="Helvetica,sans-Serif" font-size="10.00">axi_dmac.h</text>
</a>
</g>
</g>
<!-- Node1&#45;&gt;Node25 -->
<g id="edge48_Node000001_Node000025" class="edge">
<title>Node1&#45;&gt;Node25</title>
<g id="a_edge48_Node000001_Node000025"><a xlink:title=" ">
<path fill="none" stroke="#63b8ff" d="M898.8,-287.51C766.68,-283.52 439.65,-270.66 335,-239 286.82,-224.42 261.53,-227.38 236,-184 227.79,-170.04 233.17,-151.79 239.5,-138.44"/>
<polygon fill="#63b8ff" stroke="#63b8ff" points="242.73,-139.81 244.31,-129.34 236.54,-136.54 242.73,-139.81"/>
</a>
</g>
</g>
<!-- Node26 -->
<g id="Node000026" class="node">
<title>Node26</title>
<g id="a_Node000026"><a xlink:href="ad9208_2src_2parameters_8h.html" target="_top" xlink:title="Parameters Definitions.">
<polygon fill="white" stroke="#666666" points="1420,-239 1338,-239 1338,-220 1420,-220 1420,-239"/>
<text text-anchor="middle" x="1379" y="-227" font-family="Helvetica,sans-Serif" font-size="10.00">parameters.h</text>
</a>
</g>
</g>
<!-- Node1&#45;&gt;Node26 -->
<g id="edge51_Node000001_Node000026" class="edge">
<title>Node1&#45;&gt;Node26</title>
<g id="a_edge51_Node000001_Node000026"><a xlink:title=" ">
<path fill="none" stroke="#63b8ff" d="M1011.31,-281.7C1083.71,-272.24 1213.32,-255.05 1324,-239 1325.26,-238.82 1326.54,-238.63 1327.84,-238.44"/>
<polygon fill="#63b8ff" stroke="#63b8ff" points="1328.49,-241.88 1337.87,-236.94 1327.46,-234.96 1328.49,-241.88"/>
</a>
</g>
</g>
<!-- Node27 -->
<g id="Node000027" class="node">
<title>Node27</title>
<g id="a_Node000027"><a xlink:title=" ">
<polygon fill="#e0e0e0" stroke="#999999" points="1389,-184 1301,-184 1301,-165 1389,-165 1389,-184"/>
<text text-anchor="middle" x="1345" y="-172" font-family="Helvetica,sans-Serif" font-size="10.00">xparameters.h</text>
</a>
</g>
</g>
<!-- Node1&#45;&gt;Node27 -->
<g id="edge54_Node000001_Node000027" class="edge">
<title>Node1&#45;&gt;Node27</title>
<g id="a_edge54_Node000001_Node000027"><a xlink:title=" ">
<path fill="none" stroke="#63b8ff" d="M1011.04,-285.34C1093.57,-279.17 1243.11,-264.78 1290,-239 1309.5,-228.28 1325.29,-207.78 1334.87,-192.97"/>
<polygon fill="#63b8ff" stroke="#63b8ff" points="1338,-194.57 1340.24,-184.22 1332.03,-190.91 1338,-194.57"/>
</a>
</g>
</g>
<!-- Node28 -->
<g id="Node000028" class="node">
<title>Node28</title>
<g id="a_Node000028"><a xlink:title=" ">
<polygon fill="#e0e0e0" stroke="#999999" points="1506,-239 1438,-239 1438,-220 1506,-220 1506,-239"/>
<text text-anchor="middle" x="1472" y="-227" font-family="Helvetica,sans-Serif" font-size="10.00">xil_printf.h</text>
</a>
</g>
</g>
<!-- Node1&#45;&gt;Node28 -->
<g id="edge53_Node000001_Node000028" class="edge">
<title>Node1&#45;&gt;Node28</title>
<g id="a_edge53_Node000001_Node000028"><a xlink:title=" ">
<path fill="none" stroke="#63b8ff" d="M1011.03,-284.73C1098.03,-277.75 1271.02,-262.42 1427.5,-239.1"/>
<polygon fill="#63b8ff" stroke="#63b8ff" points="1428.41,-242.5 1437.78,-237.55 1427.37,-235.58 1428.41,-242.5"/>
</a>
</g>
</g>
<!-- Node29 -->
<g id="Node000029" class="node">
<title>Node29</title>
<g id="a_Node000029"><a xlink:href="no__os__error_8h.html" target="_top" xlink:title="Error codes definition.">
<polygon fill="white" stroke="#666666" points="1198,-239 1116,-239 1116,-220 1198,-220 1198,-239"/>
<text text-anchor="middle" x="1157" y="-227" font-family="Helvetica,sans-Serif" font-size="10.00">no_os_error.h</text>
</a>
</g>
</g>
<!-- Node1&#45;&gt;Node29 -->
<g id="edge55_Node000001_Node000029" class="edge">
<title>Node1&#45;&gt;Node29</title>
<g id="a_edge55_Node000001_Node000029"><a xlink:title=" ">
<path fill="none" stroke="#63b8ff" d="M1003.38,-274.99C1038.4,-264.85 1085.11,-251.32 1117.8,-241.85"/>
<polygon fill="#63b8ff" stroke="#63b8ff" points="1118.83,-245.2 1127.46,-239.05 1116.89,-238.47 1118.83,-245.2"/>
</a>
</g>
</g>
<!-- Node30 -->
<g id="Node000030" class="node">
<title>Node30</title>
<g id="a_Node000030"><a xlink:href="xilinx__spi_8h.html" target="_top" xlink:title=" ">
<polygon fill="white" stroke="#666666" points="454,-239 382,-239 382,-220 454,-220 454,-239"/>
<text text-anchor="middle" x="418" y="-227" font-family="Helvetica,sans-Serif" font-size="10.00">xilinx_spi.h</text>
</a>
</g>
</g>
<!-- Node1&#45;&gt;Node30 -->
<g id="edge59_Node000001_Node000030" class="edge">
<title>Node1&#45;&gt;Node30</title>
<g id="a_edge59_Node000001_Node000030"><a xlink:title=" ">
<path fill="none" stroke="#63b8ff" d="M898.8,-282.88C792.27,-271.27 562.84,-246.28 464.4,-235.56"/>
<polygon fill="#63b8ff" stroke="#63b8ff" points="464.5,-232.04 454.18,-234.44 463.74,-239 464.5,-232.04"/>
</a>
</g>
</g>
<!-- Node31 -->
<g id="Node000031" class="node">
<title>Node31</title>
<g id="a_Node000031"><a xlink:href="xilinx__gpio_8h.html" target="_top" xlink:title=" ">
<polygon fill="white" stroke="#666666" points="777.5,-74 698.5,-74 698.5,-55 777.5,-55 777.5,-74"/>
<text text-anchor="middle" x="738" y="-62" font-family="Helvetica,sans-Serif" font-size="10.00">xilinx_gpio.h</text>
</a>
</g>
</g>
<!-- Node1&#45;&gt;Node31 -->
<g id="edge63_Node000001_Node000031" class="edge">
<title>Node1&#45;&gt;Node31</title>
<g id="a_edge63_Node000001_Node000031"><a xlink:title=" ">
<path fill="none" stroke="#63b8ff" d="M959.37,-274.99C966.1,-250.48 976.08,-199.18 954,-165 933.45,-133.18 831.39,-95.86 775.23,-77.27"/>
<polygon fill="#63b8ff" stroke="#63b8ff" points="776.23,-73.91 765.64,-74.13 774.05,-80.57 776.23,-73.91"/>
</a>
</g>
</g>
<!-- Node32 -->
<g id="Node000032" class="node">
<title>Node32</title>
<g id="a_Node000032"><a xlink:title=" ">
<polygon fill="#e0e0e0" stroke="#999999" points="1595.5,-239 1524.5,-239 1524.5,-220 1595.5,-220 1595.5,-239"/>
<text text-anchor="middle" x="1560" y="-227" font-family="Helvetica,sans-Serif" font-size="10.00">xil_cache.h</text>
</a>
</g>
</g>
<!-- Node1&#45;&gt;Node32 -->
<g id="edge66_Node000001_Node000032" class="edge">
<title>Node1&#45;&gt;Node32</title>
<g id="a_edge66_Node000001_Node000032"><a xlink:title=" ">
<path fill="none" stroke="#63b8ff" d="M1011.24,-285.8C1110.61,-279.75 1323.88,-264.99 1514.01,-239"/>
<polygon fill="#63b8ff" stroke="#63b8ff" points="1514.76,-242.43 1524.19,-237.59 1513.81,-235.49 1514.76,-242.43"/>
</a>
</g>
</g>
<!-- Node7 -->
<g id="Node000007" class="node">
<title>Node7</title>
<g id="a_Node000007"><a xlink:title=" ">
<polygon fill="#e0e0e0" stroke="#999999" points="1088,-19 1026,-19 1026,0 1088,0 1088,-19"/>
<text text-anchor="middle" x="1057" y="-7" font-family="Helvetica,sans-Serif" font-size="10.00">stdbool.h</text>
</a>
</g>
</g>
<!-- Node6&#45;&gt;Node7 -->
<g id="edge6_Node000006_Node000007" class="edge">
<title>Node6&#45;&gt;Node7</title>
<g id="a_edge6_Node000006_Node000007"><a xlink:title=" ">
<path fill="none" stroke="#63b8ff" d="M905.66,-219.97C983.07,-200.07 1168.6,-150.61 1188,-129 1210.21,-104.26 1218.68,-81.8 1199,-55 1176.16,-23.91 1131.64,-13.95 1098.52,-11.04"/>
<polygon fill="#63b8ff" stroke="#63b8ff" points="1098.42,-7.53 1088.2,-10.33 1097.94,-14.51 1098.42,-7.53"/>
</a>
</g>
</g>
<!-- Node8 -->
<g id="Node000008" class="node">
<title>Node8</title>
<g id="a_Node000008"><a xlink:title=" ">
<polygon fill="#e0e0e0" stroke="#999999" points="582.5,-19 529.5,-19 529.5,0 582.5,0 582.5,-19"/>
<text text-anchor="middle" x="556" y="-7" font-family="Helvetica,sans-Serif" font-size="10.00">stdint.h</text>
</a>
</g>
</g>
<!-- Node6&#45;&gt;Node8 -->
<g id="edge7_Node000006_Node000008" class="edge">
<title>Node6&#45;&gt;Node8</title>
<g id="a_edge7_Node000006_Node000008"><a xlink:title=" ">
<path fill="none" stroke="#63b8ff" d="M852.59,-219.85C795.45,-194.1 629.39,-117.08 589,-74 576.8,-60.98 567.9,-42.59 562.44,-28.94"/>
<polygon fill="#63b8ff" stroke="#63b8ff" points="565.58,-27.36 558.8,-19.22 559.03,-29.81 565.58,-27.36"/>
</a>
</g>
</g>
<!-- Node6&#45;&gt;Node9 -->
<g id="edge8_Node000006_Node000009" class="edge">
<title>Node6&#45;&gt;Node9</title>
<g id="a_edge8_Node000006_Node000009"><a xlink:title=" ">
<path fill="none" stroke="#63b8ff" d="M877.12,-219.75C881.36,-212.49 887.53,-201.95 892.78,-192.98"/>
<polygon fill="#63b8ff" stroke="#63b8ff" points="895.95,-194.49 897.98,-184.09 889.91,-190.95 895.95,-194.49"/>
</a>
</g>
</g>
<!-- Node6&#45;&gt;Node10 -->
<g id="edge10_Node000006_Node000010" class="edge">
<title>Node6&#45;&gt;Node10</title>
<g id="a_edge10_Node000006_Node000010"><a xlink:title=" ">
<path fill="none" stroke="#63b8ff" d="M836.41,-225.51C767.06,-219.5 608.77,-204.83 465.41,-184.11"/>
<polygon fill="#63b8ff" stroke="#63b8ff" points="465.52,-180.58 455.12,-182.6 464.51,-187.51 465.52,-180.58"/>
</a>
</g>
</g>
<!-- Node9&#45;&gt;Node8 -->
<g id="edge9_Node000009_Node000008" class="edge">
<title>Node9&#45;&gt;Node8</title>
<g id="a_edge9_Node000009_Node000008"><a xlink:title=" ">
<path fill="none" stroke="#63b8ff" d="M860.06,-165.52C801.1,-153.11 693.45,-125.11 615,-74 595.97,-61.6 578.87,-41.75 568.04,-27.54"/>
<polygon fill="#63b8ff" stroke="#63b8ff" points="570.62,-25.14 561.87,-19.16 564.98,-29.29 570.62,-25.14"/>
</a>
</g>
</g>
<!-- Node10&#45;&gt;Node8 -->
<g id="edge11_Node000010_Node000008" class="edge">
<title>Node10&#45;&gt;Node8</title>
<g id="a_edge11_Node000010_Node000008"><a xlink:title=" ">
<path fill="none" stroke="#63b8ff" d="M425.42,-164.74C447.51,-138.65 513.1,-61.17 542.03,-27"/>
<polygon fill="#63b8ff" stroke="#63b8ff" points="544.75,-29.2 548.54,-19.31 539.41,-24.68 544.75,-29.2"/>
</a>
</g>
</g>
<!-- Node11&#45;&gt;Node7 -->
<g id="edge13_Node000011_Node000007" class="edge">
<title>Node11&#45;&gt;Node7</title>
<g id="a_edge13_Node000011_Node000007"><a xlink:title=" ">
<path fill="none" stroke="#63b8ff" d="M712.93,-219.96C733.34,-205.84 776.75,-177.9 818,-165 888.19,-143.05 1097.9,-183.76 1147,-129 1156.03,-118.92 1165.73,-88.44 1144,-55 1133.49,-38.83 1115.16,-28.24 1098.02,-21.47"/>
<polygon fill="#63b8ff" stroke="#63b8ff" points="1098.73,-18.01 1088.14,-17.91 1096.36,-24.59 1098.73,-18.01"/>
</a>
</g>
</g>
<!-- Node11&#45;&gt;Node9 -->
<g id="edge29_Node000011_Node000009" class="edge">
<title>Node11&#45;&gt;Node9</title>
<g id="a_edge29_Node000011_Node000009"><a xlink:title=" ">
<path fill="none" stroke="#63b8ff" d="M732.12,-220.33C766.56,-211.3 822.26,-196.68 860.65,-186.61"/>
<polygon fill="#63b8ff" stroke="#63b8ff" points="861.72,-189.95 870.51,-184.03 859.94,-183.18 861.72,-189.95"/>
</a>
</g>
</g>
<!-- Node11&#45;&gt;Node10 -->
<g id="edge28_Node000011_Node000010" class="edge">
<title>Node11&#45;&gt;Node10</title>
<g id="a_edge28_Node000011_Node000010"><a xlink:title=" ">
<path fill="none" stroke="#63b8ff" d="M669.9,-222.68C620.46,-213.42 523.59,-195.28 465.45,-184.39"/>
<polygon fill="#63b8ff" stroke="#63b8ff" points="465.88,-180.91 455.41,-182.51 464.6,-187.79 465.88,-180.91"/>
</a>
</g>
</g>
<!-- Node12 -->
<g id="Node000012" class="node">
<title>Node12</title>
<g id="a_Node000012"><a xlink:title=" ">
<polygon fill="#e0e0e0" stroke="#999999" points="1240,-19 1184,-19 1184,0 1240,0 1240,-19"/>
<text text-anchor="middle" x="1212" y="-7" font-family="Helvetica,sans-Serif" font-size="10.00">stddef.h</text>
</a>
</g>
</g>
<!-- Node11&#45;&gt;Node12 -->
<g id="edge14_Node000011_Node000012" class="edge">
<title>Node11&#45;&gt;Node12</title>
<g id="a_edge14_Node000011_Node000012"><a xlink:title=" ">
<path fill="none" stroke="#63b8ff" d="M722.84,-219.93C744.93,-211.18 780.02,-197.06 810,-184 828.41,-175.98 831.66,-170.43 851,-165 918.83,-145.94 1110.22,-172.04 1166,-129 1197.49,-104.7 1207.44,-55.87 1210.57,-29.1"/>
<polygon fill="#63b8ff" stroke="#63b8ff" points="1214.06,-29.41 1211.54,-19.12 1207.09,-28.73 1214.06,-29.41"/>
</a>
</g>
</g>
<!-- Node13 -->
<g id="Node000013" class="node">
<title>Node13</title>
<g id="a_Node000013"><a xlink:title=" ">
<polygon fill="#e0e0e0" stroke="#999999" points="727.5,-184 674.5,-184 674.5,-165 727.5,-165 727.5,-184"/>
<text text-anchor="middle" x="701" y="-172" font-family="Helvetica,sans-Serif" font-size="10.00">string.h</text>
</a>
</g>
</g>
<!-- Node11&#45;&gt;Node13 -->
<g id="edge15_Node000011_Node000013" class="edge">
<title>Node11&#45;&gt;Node13</title>
<g id="a_edge15_Node000011_Node000013"><a xlink:title=" ">
<path fill="none" stroke="#63b8ff" d="M701,-219.75C701,-212.8 701,-202.85 701,-194.13"/>
<polygon fill="#63b8ff" stroke="#63b8ff" points="704.5,-194.09 701,-184.09 697.5,-194.09 704.5,-194.09"/>
</a>
</g>
</g>
<!-- Node14 -->
<g id="Node000014" class="node">
<title>Node14</title>
<g id="a_Node000014"><a xlink:href="ad9208__api_8h.html" target="_top" xlink:title=" ">
<polygon fill="white" stroke="#666666" points="555,-184 473,-184 473,-165 555,-165 555,-184"/>
<text text-anchor="middle" x="514" y="-172" font-family="Helvetica,sans-Serif" font-size="10.00">ad9208_api.h</text>
</a>
</g>
</g>
<!-- Node11&#45;&gt;Node14 -->
<g id="edge16_Node000011_Node000014" class="edge">
<title>Node11&#45;&gt;Node14</title>
<g id="a_edge16_Node000011_Node000014"><a xlink:title=" ">
<path fill="none" stroke="#63b8ff" d="M670.96,-219.98C639.29,-211.01 589.23,-196.82 554.19,-186.89"/>
<polygon fill="#63b8ff" stroke="#63b8ff" points="554.86,-183.44 544.28,-184.08 552.95,-190.18 554.86,-183.44"/>
</a>
</g>
</g>
<!-- Node17 -->
<g id="Node000017" class="node">
<title>Node17</title>
<g id="a_Node000017"><a xlink:href="ad9208__reg_8h.html" target="_top" xlink:title="AD9208 SPI Register Definition Header File.">
<polygon fill="white" stroke="#666666" points="656.5,-184 573.5,-184 573.5,-165 656.5,-165 656.5,-184"/>
<text text-anchor="middle" x="615" y="-172" font-family="Helvetica,sans-Serif" font-size="10.00">ad9208_reg.h</text>
</a>
</g>
</g>
<!-- Node11&#45;&gt;Node17 -->
<g id="edge24_Node000011_Node000017" class="edge">
<title>Node11&#45;&gt;Node17</title>
<g id="a_edge24_Node000011_Node000017"><a xlink:title=" ">
<path fill="none" stroke="#63b8ff" d="M687.18,-219.98C673.85,-211.77 653.42,-199.18 637.69,-189.49"/>
<polygon fill="#63b8ff" stroke="#63b8ff" points="639.42,-186.44 629.07,-184.17 635.75,-192.4 639.42,-186.44"/>
</a>
</g>
</g>
<!-- Node11&#45;&gt;Node18 -->
<g id="edge26_Node000011_Node000018" class="edge">
<title>Node11&#45;&gt;Node18</title>
<g id="a_edge26_Node000011_Node000018"><a xlink:title=" ">
<path fill="none" stroke="#63b8ff" d="M669.73,-224.52C598.19,-215.4 422.08,-192.96 335.17,-181.89"/>
<polygon fill="#63b8ff" stroke="#63b8ff" points="335.39,-178.39 325.02,-180.6 334.5,-185.33 335.39,-178.39"/>
</a>
</g>
</g>
<!-- Node15 -->
<g id="Node000015" class="node">
<title>Node15</title>
<g id="a_Node000015"><a xlink:href="adc_2ad9208_2ad9208__api_2api__def_8h.html" target="_top" xlink:title="API definitions header file.">
<polygon fill="white" stroke="#666666" points="546.5,-129 485.5,-129 485.5,-110 546.5,-110 546.5,-129"/>
<text text-anchor="middle" x="516" y="-117" font-family="Helvetica,sans-Serif" font-size="10.00">api_def.h</text>
</a>
</g>
</g>
<!-- Node14&#45;&gt;Node15 -->
<g id="edge17_Node000014_Node000015" class="edge">
<title>Node14&#45;&gt;Node15</title>
<g id="a_edge17_Node000014_Node000015"><a xlink:title=" ">
<path fill="none" stroke="#63b8ff" d="M514.33,-164.75C514.59,-157.8 514.97,-147.85 515.3,-139.13"/>
<polygon fill="#63b8ff" stroke="#63b8ff" points="518.8,-139.21 515.68,-129.09 511.8,-138.95 518.8,-139.21"/>
</a>
</g>
</g>
<!-- Node16 -->
<g id="Node000016" class="node">
<title>Node16</title>
<g id="a_Node000016"><a xlink:href="no__os__util_8h.html" target="_top" xlink:title="Header file of utility functions.">
<polygon fill="white" stroke="#666666" points="451.5,-74 376.5,-74 376.5,-55 451.5,-55 451.5,-74"/>
<text text-anchor="middle" x="414" y="-62" font-family="Helvetica,sans-Serif" font-size="10.00">no_os_util.h</text>
</a>
</g>
</g>
<!-- Node14&#45;&gt;Node16 -->
<g id="edge23_Node000014_Node000016" class="edge">
<title>Node14&#45;&gt;Node16</title>
<g id="a_edge23_Node000014_Node000016"><a xlink:title=" ">
<path fill="none" stroke="#63b8ff" d="M505.82,-164.66C489.03,-146.54 450.49,-104.91 429.07,-81.77"/>
<polygon fill="#63b8ff" stroke="#63b8ff" points="431.38,-79.12 422.02,-74.16 426.24,-83.87 431.38,-79.12"/>
</a>
</g>
</g>
<!-- Node15&#45;&gt;Node8 -->
<g id="edge18_Node000015_Node000008" class="edge">
<title>Node15&#45;&gt;Node8</title>
<g id="a_edge18_Node000015_Node000008"><a xlink:title=" ">
<path fill="none" stroke="#63b8ff" d="M519.27,-109.66C525.81,-92.01 540.6,-52.09 549.28,-28.64"/>
<polygon fill="#63b8ff" stroke="#63b8ff" points="552.6,-29.75 552.79,-19.16 546.04,-27.32 552.6,-29.75"/>
</a>
</g>
</g>
<!-- Node15&#45;&gt;Node16 -->
<g id="edge19_Node000015_Node000016" class="edge">
<title>Node15&#45;&gt;Node16</title>
<g id="a_edge19_Node000015_Node000016"><a xlink:title=" ">
<path fill="none" stroke="#63b8ff" d="M499.61,-109.98C483.43,-101.57 458.43,-88.59 439.62,-78.81"/>
<polygon fill="#63b8ff" stroke="#63b8ff" points="441.17,-75.68 430.69,-74.17 437.95,-81.89 441.17,-75.68"/>
</a>
</g>
</g>
<!-- Node16&#45;&gt;Node3 -->
<g id="edge21_Node000016_Node000003" class="edge">
<title>Node16&#45;&gt;Node3</title>
<g id="a_edge21_Node000016_Node000003"><a xlink:title=" ">
<path fill="none" stroke="#63b8ff" d="M387.33,-54.98C359.38,-46.06 315.29,-31.98 284.2,-22.06"/>
<polygon fill="#63b8ff" stroke="#63b8ff" points="285.2,-18.7 274.6,-18.99 283.07,-25.37 285.2,-18.7"/>
</a>
</g>
</g>
<!-- Node16&#45;&gt;Node7 -->
<g id="edge22_Node000016_Node000007" class="edge">
<title>Node16&#45;&gt;Node7</title>
<g id="a_edge22_Node000016_Node000007"><a xlink:title=" ">
<path fill="none" stroke="#63b8ff" d="M451.82,-60.38C564.71,-51.08 898.64,-23.55 1015.81,-13.9"/>
<polygon fill="#63b8ff" stroke="#63b8ff" points="1016.13,-17.38 1025.81,-13.07 1015.56,-10.4 1016.13,-17.38"/>
</a>
</g>
</g>
<!-- Node16&#45;&gt;Node8 -->
<g id="edge20_Node000016_Node000008" class="edge">
<title>Node16&#45;&gt;Node8</title>
<g id="a_edge20_Node000016_Node000008"><a xlink:title=" ">
<path fill="none" stroke="#63b8ff" d="M436.81,-54.98C460.17,-46.27 496.7,-32.63 523.17,-22.75"/>
<polygon fill="#63b8ff" stroke="#63b8ff" points="524.63,-25.95 532.77,-19.17 522.18,-19.39 524.63,-25.95"/>
</a>
</g>
</g>
<!-- Node17&#45;&gt;Node15 -->
<g id="edge25_Node000017_Node000015" class="edge">
<title>Node17&#45;&gt;Node15</title>
<g id="a_edge25_Node000017_Node000015"><a xlink:title=" ">
<path fill="none" stroke="#63b8ff" d="M599.09,-164.98C583.45,-156.61 559.34,-143.7 541.12,-133.95"/>
<polygon fill="#63b8ff" stroke="#63b8ff" points="542.66,-130.8 532.2,-129.17 539.36,-136.98 542.66,-130.8"/>
</a>
</g>
</g>
<!-- Node18&#45;&gt;Node8 -->
<g id="edge27_Node000018_Node000008" class="edge">
<title>Node18&#45;&gt;Node8</title>
<g id="a_edge27_Node000018_Node000008"><a xlink:title=" ">
<path fill="none" stroke="#63b8ff" d="M287.43,-164.83C294.54,-140.08 315.95,-69.85 334,-55 361.81,-32.13 463.5,-19.2 519.09,-13.7"/>
<polygon fill="#63b8ff" stroke="#63b8ff" points="519.61,-17.17 529.23,-12.73 518.95,-10.2 519.61,-17.17"/>
</a>
</g>
</g>
<!-- Node19&#45;&gt;Node7 -->
<g id="edge32_Node000019_Node000007" class="edge">
<title>Node19&#45;&gt;Node7</title>
<g id="a_edge32_Node000019_Node000007"><a xlink:title=" ">
<path fill="none" stroke="#63b8ff" d="M988.14,-109.66C1000.62,-91.69 1029.12,-50.64 1045.28,-27.38"/>
<polygon fill="#63b8ff" stroke="#63b8ff" points="1048.16,-29.37 1050.99,-19.16 1042.41,-25.38 1048.16,-29.37"/>
</a>
</g>
</g>
<!-- Node19&#45;&gt;Node8 -->
<g id="edge31_Node000019_Node000008" class="edge">
<title>Node19&#45;&gt;Node8</title>
<g id="a_edge31_Node000019_Node000008"><a xlink:title=" ">
<path fill="none" stroke="#63b8ff" d="M942.82,-118.49C880.28,-117.32 754.84,-110.16 656,-74 624.85,-62.6 593.25,-40.36 574.14,-25.46"/>
<polygon fill="#63b8ff" stroke="#63b8ff" points="576.29,-22.7 566.28,-19.2 571.92,-28.17 576.29,-22.7"/>
</a>
</g>
</g>
<!-- Node20 -->
<g id="Node000020" class="node">
<title>Node20</title>
<g id="a_Node000020"><a xlink:href="xilinx__transceiver_8h.html" target="_top" xlink:title="Driver for the Xilinx High&#45;speed transceiver dynamic reconfiguration.">
<polygon fill="white" stroke="#666666" points="907,-74 795,-74 795,-55 907,-55 907,-74"/>
<text text-anchor="middle" x="851" y="-62" font-family="Helvetica,sans-Serif" font-size="10.00">xilinx_transceiver.h</text>
</a>
</g>
</g>
<!-- Node19&#45;&gt;Node20 -->
<g id="edge33_Node000019_Node000020" class="edge">
<title>Node19&#45;&gt;Node20</title>
<g id="a_edge33_Node000019_Node000020"><a xlink:title=" ">
<path fill="none" stroke="#63b8ff" d="M960.95,-109.98C939.59,-101.34 906.3,-87.87 881.94,-78.02"/>
<polygon fill="#63b8ff" stroke="#63b8ff" points="883.01,-74.68 872.43,-74.17 880.39,-81.17 883.01,-74.68"/>
</a>
</g>
</g>
<!-- Node20&#45;&gt;Node7 -->
<g id="edge35_Node000020_Node000007" class="edge">
<title>Node20&#45;&gt;Node7</title>
<g id="a_edge35_Node000020_Node000007"><a xlink:title=" ">
<path fill="none" stroke="#63b8ff" d="M884.1,-54.98C919.91,-45.77 977.06,-31.07 1015.77,-21.11"/>
<polygon fill="#63b8ff" stroke="#63b8ff" points="1016.86,-24.44 1025.67,-18.56 1015.12,-17.66 1016.86,-24.44"/>
</a>
</g>
</g>
<!-- Node20&#45;&gt;Node8 -->
<g id="edge34_Node000020_Node000008" class="edge">
<title>Node20&#45;&gt;Node8</title>
<g id="a_edge34_Node000020_Node000008"><a xlink:title=" ">
<path fill="none" stroke="#63b8ff" d="M803.6,-54.98C744.82,-44.42 645.86,-26.65 592.59,-17.07"/>
<polygon fill="#63b8ff" stroke="#63b8ff" points="593.03,-13.6 582.57,-15.27 591.79,-20.49 593.03,-13.6"/>
</a>
</g>
</g>
<!-- Node21&#45;&gt;Node8 -->
<g id="edge37_Node000021_Node000008" class="edge">
<title>Node21&#45;&gt;Node8</title>
<g id="a_edge37_Node000021_Node000008"><a xlink:title=" ">
<path fill="none" stroke="#63b8ff" d="M163.8,-109.96C185.21,-96.1 230.1,-68.85 272,-55 357.73,-26.65 464.15,-16.14 519.18,-12.42"/>
<polygon fill="#63b8ff" stroke="#63b8ff" points="519.73,-15.89 529.48,-11.76 519.28,-8.91 519.73,-15.89"/>
</a>
</g>
</g>
<!-- Node21&#45;&gt;Node16 -->
<g id="edge38_Node000021_Node000016" class="edge">
<title>Node21&#45;&gt;Node16</title>
<g id="a_edge38_Node000021_Node000016"><a xlink:title=" ">
<path fill="none" stroke="#63b8ff" d="M193.26,-109.98C240.43,-100.48 316.62,-85.12 366.01,-75.17"/>
<polygon fill="#63b8ff" stroke="#63b8ff" points="367.01,-78.54 376.12,-73.13 365.62,-71.68 367.01,-78.54"/>
</a>
</g>
</g>
<!-- Node22&#45;&gt;Node7 -->
<g id="edge41_Node000022_Node000007" class="edge">
<title>Node22&#45;&gt;Node7</title>
<g id="a_edge41_Node000022_Node000007"><a xlink:title=" ">
<path fill="none" stroke="#63b8ff" d="M1101.02,-109.81C1116.2,-97.72 1139.09,-75.04 1128,-55 1120.16,-40.83 1105.71,-30.57 1091.89,-23.5"/>
<polygon fill="#63b8ff" stroke="#63b8ff" points="1093.05,-20.18 1082.51,-19.1 1090.08,-26.52 1093.05,-20.18"/>
</a>
</g>
</g>
<!-- Node22&#45;&gt;Node8 -->
<g id="edge40_Node000022_Node000008" class="edge">
<title>Node22&#45;&gt;Node8</title>
<g id="a_edge40_Node000022_Node000008"><a xlink:title=" ">
<path fill="none" stroke="#63b8ff" d="M1039.44,-111.22C1036.25,-110.8 1033.08,-110.38 1030,-110 878.77,-91.13 835.04,-117.55 689,-74 671.28,-68.72 668.61,-63.11 652,-55 629.41,-43.97 603.53,-32.01 584.34,-23.27"/>
<polygon fill="#63b8ff" stroke="#63b8ff" points="585.78,-20.09 575.23,-19.14 582.89,-26.46 585.78,-20.09"/>
</a>
</g>
</g>
<!-- Node23 -->
<g id="Node000023" class="node">
<title>Node23</title>
<g id="a_Node000023"><a xlink:href="jesd204_8h.html" target="_top" xlink:title=" ">
<polygon fill="white" stroke="#666666" points="1119,-74 1055,-74 1055,-55 1119,-55 1119,-74"/>
<text text-anchor="middle" x="1087" y="-62" font-family="Helvetica,sans-Serif" font-size="10.00">jesd204.h</text>
</a>
</g>
</g>
<!-- Node22&#45;&gt;Node23 -->
<g id="edge42_Node000022_Node000023" class="edge">
<title>Node22&#45;&gt;Node23</title>
<g id="a_edge42_Node000022_Node000023"><a xlink:title=" ">
<path fill="none" stroke="#63b8ff" d="M1088.67,-109.75C1088.41,-102.8 1088.03,-92.85 1087.7,-84.13"/>
<polygon fill="#63b8ff" stroke="#63b8ff" points="1091.2,-83.95 1087.32,-74.09 1084.2,-84.21 1091.2,-83.95"/>
</a>
</g>
</g>
<!-- Node24 -->
<g id="Node000024" class="node">
<title>Node24</title>
<g id="a_Node000024"><a xlink:href="no__os__clk_8h.html" target="_top" xlink:title="Header file of Clock Driver.">
<polygon fill="white" stroke="#666666" points="999,-74 925,-74 925,-55 999,-55 999,-74"/>
<text text-anchor="middle" x="962" y="-62" font-family="Helvetica,sans-Serif" font-size="10.00">no_os_clk.h</text>
</a>
</g>
</g>
<!-- Node22&#45;&gt;Node24 -->
<g id="edge46_Node000022_Node000024" class="edge">
<title>Node22&#45;&gt;Node24</title>
<g id="a_edge46_Node000022_Node000024"><a xlink:title=" ">
<path fill="none" stroke="#63b8ff" d="M1068.6,-109.98C1047.98,-101.38 1015.89,-87.99 992.31,-78.15"/>
<polygon fill="#63b8ff" stroke="#63b8ff" points="993.35,-74.79 982.78,-74.17 990.66,-81.25 993.35,-74.79"/>
</a>
</g>
</g>
<!-- Node23&#45;&gt;Node7 -->
<g id="edge43_Node000023_Node000007" class="edge">
<title>Node23&#45;&gt;Node7</title>
<g id="a_edge43_Node000023_Node000007"><a xlink:title=" ">
<path fill="none" stroke="#63b8ff" d="M1082.05,-54.75C1077.94,-47.49 1071.97,-36.95 1066.9,-27.98"/>
<polygon fill="#63b8ff" stroke="#63b8ff" points="1069.83,-26.07 1061.86,-19.09 1063.74,-29.52 1069.83,-26.07"/>
</a>
</g>
</g>
<!-- Node23&#45;&gt;Node8 -->
<g id="edge45_Node000023_Node000008" class="edge">
<title>Node23&#45;&gt;Node8</title>
<g id="a_edge45_Node000023_Node000008"><a xlink:title=" ">
<path fill="none" stroke="#63b8ff" d="M1054.72,-59.96C1040.41,-58.41 1023.37,-56.58 1008,-55 853.68,-39.1 669.59,-21.36 592.63,-13.99"/>
<polygon fill="#63b8ff" stroke="#63b8ff" points="592.79,-10.49 582.5,-13.02 592.12,-17.46 592.79,-10.49"/>
</a>
</g>
</g>
<!-- Node23&#45;&gt;Node12 -->
<g id="edge44_Node000023_Node000012" class="edge">
<title>Node23&#45;&gt;Node12</title>
<g id="a_edge44_Node000023_Node000012"><a xlink:title=" ">
<path fill="none" stroke="#63b8ff" d="M1107.08,-54.98C1127.37,-46.38 1158.96,-32.99 1182.17,-23.15"/>
<polygon fill="#63b8ff" stroke="#63b8ff" points="1183.71,-26.3 1191.55,-19.17 1180.98,-19.85 1183.71,-26.3"/>
</a>
</g>
</g>
<!-- Node24&#45;&gt;Node8 -->
<g id="edge47_Node000024_Node000008" class="edge">
<title>Node24&#45;&gt;Node8</title>
<g id="a_edge47_Node000024_Node000008"><a xlink:title=" ">
<path fill="none" stroke="#63b8ff" d="M924.88,-56.44C921.88,-55.93 918.89,-55.45 916,-55 798.38,-36.88 658.23,-21.26 592.92,-14.33"/>
<polygon fill="#63b8ff" stroke="#63b8ff" points="593.03,-10.82 582.72,-13.25 592.3,-17.78 593.03,-10.82"/>
</a>
</g>
</g>
<!-- Node25&#45;&gt;Node8 -->
<g id="edge49_Node000025_Node000008" class="edge">
<title>Node25&#45;&gt;Node8</title>
<g id="a_edge49_Node000025_Node000008"><a xlink:title=" ">
<path fill="none" stroke="#63b8ff" d="M253.62,-109.85C259.96,-95.84 274.5,-68.38 296,-55 332.66,-32.18 456.41,-18.83 519.04,-13.39"/>
<polygon fill="#63b8ff" stroke="#63b8ff" points="519.6,-16.85 529.26,-12.52 519,-9.88 519.6,-16.85"/>
</a>
</g>
</g>
<!-- Node25&#45;&gt;Node16 -->
<g id="edge50_Node000025_Node000016" class="edge">
<title>Node25&#45;&gt;Node16</title>
<g id="a_edge50_Node000025_Node000016"><a xlink:title=" ">
<path fill="none" stroke="#63b8ff" d="M276.35,-109.98C303.76,-101.13 346.89,-87.19 377.56,-77.28"/>
<polygon fill="#63b8ff" stroke="#63b8ff" points="379,-80.49 387.44,-74.08 376.85,-73.83 379,-80.49"/>
</a>
</g>
</g>
<!-- Node26&#45;&gt;Node27 -->
<g id="edge52_Node000026_Node000027" class="edge">
<title>Node26&#45;&gt;Node27</title>
<g id="a_edge52_Node000026_Node000027"><a xlink:title=" ">
<path fill="none" stroke="#63b8ff" d="M1373.39,-219.75C1368.68,-212.42 1361.83,-201.73 1356.03,-192.7"/>
<polygon fill="#63b8ff" stroke="#63b8ff" points="1358.86,-190.62 1350.51,-184.09 1352.96,-194.4 1358.86,-190.62"/>
</a>
</g>
</g>
<!-- Node29&#45;&gt;Node4 -->
<g id="edge56_Node000029_Node000004" class="edge">
<title>Node29&#45;&gt;Node4</title>
<g id="a_edge56_Node000029_Node000004"><a xlink:title=" ">
<path fill="none" stroke="#63b8ff" d="M1155.84,-219.75C1154.93,-212.8 1153.61,-202.85 1152.46,-194.13"/>
<polygon fill="#63b8ff" stroke="#63b8ff" points="1155.91,-193.54 1151.13,-184.09 1148.97,-194.46 1155.91,-193.54"/>
</a>
</g>
</g>
<!-- Node30&#45;&gt;Node8 -->
<g id="edge60_Node000030_Node000008" class="edge">
<title>Node30&#45;&gt;Node8</title>
<g id="a_edge60_Node000030_Node000008"><a xlink:title=" ">
<path fill="none" stroke="#63b8ff" d="M404.4,-219.74C393.47,-211.86 378.85,-199.19 372,-184 348.41,-131.7 331.38,-99.98 367,-55 385.66,-31.44 470.02,-19.11 519.51,-13.8"/>
<polygon fill="#63b8ff" stroke="#63b8ff" points="519.91,-17.27 529.5,-12.77 519.19,-10.31 519.91,-17.27"/>
</a>
</g>
</g>
<!-- Node30&#45;&gt;Node10 -->
<g id="edge61_Node000030_Node000010" class="edge">
<title>Node30&#45;&gt;Node10</title>
<g id="a_edge61_Node000030_Node000010"><a xlink:title=" ">
<path fill="none" stroke="#63b8ff" d="M418,-219.75C418,-212.8 418,-202.85 418,-194.13"/>
<polygon fill="#63b8ff" stroke="#63b8ff" points="421.5,-194.09 418,-184.09 414.5,-194.09 421.5,-194.09"/>
</a>
</g>
</g>
<!-- Node31&#45;&gt;Node7 -->
<g id="edge65_Node000031_Node000007" class="edge">
<title>Node31&#45;&gt;Node7</title>
<g id="a_edge65_Node000031_Node000007"><a xlink:title=" ">
<path fill="none" stroke="#63b8ff" d="M777.55,-56.46C780.41,-55.96 783.25,-55.47 786,-55 867.29,-41.13 962.45,-25.69 1015.62,-17.13"/>
<polygon fill="#63b8ff" stroke="#63b8ff" points="1016.36,-20.56 1025.68,-15.51 1015.25,-13.64 1016.36,-20.56"/>
</a>
</g>
</g>
<!-- Node31&#45;&gt;Node8 -->
<g id="edge64_Node000031_Node000008" class="edge">
<title>Node31&#45;&gt;Node8</title>
<g id="a_edge64_Node000031_Node000008"><a xlink:title=" ">
<path fill="none" stroke="#63b8ff" d="M708.76,-54.98C677.02,-45.74 626.32,-30.98 592.12,-21.02"/>
<polygon fill="#63b8ff" stroke="#63b8ff" points="593.09,-17.65 582.51,-18.22 591.13,-24.38 593.09,-17.65"/>
</a>
</g>
</g>
</g>
</svg>

<g id="navigator" transform="translate(0 0)" fill="#404254">
  <rect fill="#f2f5e9" fill-opacity="0.5" stroke="#606060" stroke-width=".5" x="0" y="0" width="60" height="60"/>
  <use id="zoomplus" xlink:href="#zoomPlus" x="17" y="9" onmousedown="handleZoom(evt,'in')"/>
  <use id="zoomminus" xlink:href="#zoomMin" x="42" y="9" onmousedown="handleZoom(evt,'out')"/>
  <use id="reset" xlink:href="#resetDef" x="30" y="36" onmousedown="handleReset()"/>
   <use id="arrowup" xlink:href="#arrowUp" x="0" y="0" onmousedown="handlePan(0,-1)"/>
  <use id="arrowright" xlink:href="#arrowRight" x="0" y="0" onmousedown="handlePan(1,0)"/>
  <use id="arrowdown" xlink:href="#arrowDown" x="0" y="0" onmousedown="handlePan(0,1)"/>
  <use id="arrowleft" xlink:href="#arrowLeft" x="0" y="0" onmousedown="handlePan(-1,0)"/>
</g>
<svg viewBox="0 0 15 15" width="100%" height="30px" preserveAspectRatio="xMaxYMin meet">
 <g id="arrow_out" transform="scale(0.3 0.3)">
  <a xlink:href="ad9208_2src_2main_8c__incl_org.svg" target="_base">
   <rect id="button" ry="5" rx="5" y="6" x="6" height="38" width="38"
        fill="#f2f5e9" fill-opacity="0.5" stroke="#606060" stroke-width="1.0"/>
   <path id="arrow"
     d="M 11.500037,31.436501 C 11.940474,20.09759 22.043105,11.32322 32.158766,21.979434 L 37.068811,17.246167 C 37.068811,17.246167 37.088388,32 37.088388,32 L 22.160133,31.978069 C 22.160133,31.978069 26.997745,27.140456 26.997745,27.140456 C 18.528582,18.264221 13.291696,25.230495 11.500037,31.436501 z"
     style="fill:#404040;"/>
  </a>
 </g>
</svg>

<style type='text/css'>
<![CDATA[
[data-mouse-over-selected='false'] { opacity: 0.7; }
[data-mouse-over-selected='true']  { opacity: 1.0; }
]]>
</style>
<script type="application/ecmascript"><![CDATA[
document.addEventListener('DOMContentLoaded', (event) => {
  highlightEdges();
  highlightAdjacentNodes();
});
]]></script>
</svg>
