<?xml version="1.0" encoding="UTF-8" standalone="no"?>
<!DOCTYPE svg PUBLIC "-//W3C//DTD SVG 1.1//EN"
 "http://www.w3.org/Graphics/SVG/1.1/DTD/svg11.dtd">
<!-- Generated by graphviz version 2.43.0 (0)
 -->
<!-- Title: drivers/adc/ad9434/ad9434.c Pages: 1 -->
<svg width="367pt" height="203pt"
 viewBox="0.00 0.00 366.50 203.00" xmlns="http://www.w3.org/2000/svg" xmlns:xlink="http://www.w3.org/1999/xlink">
<g id="graph0" class="graph" transform="scale(1 1) rotate(0) translate(4 199)">
<title>drivers/adc/ad9434/ad9434.c</title>
<!-- Node1 -->
<g id="Node000001" class="node">
<title>Node1</title>
<g id="a_Node000001"><a xlink:title="Implementation of AD9434 Driver.">
<polygon fill="#999999" stroke="#666666" points="184.5,-195 74.5,-195 74.5,-165 184.5,-165 184.5,-195"/>
<text text-anchor="start" x="82.5" y="-183" font-family="Helvetica,sans-Serif" font-size="10.00">drivers/adc/ad9434</text>
<text text-anchor="middle" x="129.5" y="-172" font-family="Helvetica,sans-Serif" font-size="10.00">/ad9434.c</text>
</a>
</g>
</g>
<!-- Node2 -->
<g id="Node000002" class="node">
<title>Node2</title>
<g id="a_Node000002"><a xlink:title=" ">
<polygon fill="#e0e0e0" stroke="#999999" points="53,-74 0,-74 0,-55 53,-55 53,-74"/>
<text text-anchor="middle" x="26.5" y="-62" font-family="Helvetica,sans-Serif" font-size="10.00">stdlib.h</text>
</a>
</g>
</g>
<!-- Node1&#45;&gt;Node2 -->
<g id="edge1_Node000001_Node000002" class="edge">
<title>Node1&#45;&gt;Node2</title>
<g id="a_edge1_Node000001_Node000002"><a xlink:title=" ">
<path fill="none" stroke="#63b8ff" d="M91.83,-164.98C74.79,-156.87 55.77,-145.05 43.5,-129 33.64,-116.11 29.49,-97.95 27.75,-84.35"/>
<polygon fill="#63b8ff" stroke="#63b8ff" points="31.21,-83.84 26.78,-74.21 24.25,-84.5 31.21,-83.84"/>
</a>
</g>
</g>
<!-- Node3 -->
<g id="Node000003" class="node">
<title>Node3</title>
<g id="a_Node000003"><a xlink:title=" ">
<polygon fill="#e0e0e0" stroke="#999999" points="121.5,-74 71.5,-74 71.5,-55 121.5,-55 121.5,-74"/>
<text text-anchor="middle" x="96.5" y="-62" font-family="Helvetica,sans-Serif" font-size="10.00">stdio.h</text>
</a>
</g>
</g>
<!-- Node1&#45;&gt;Node3 -->
<g id="edge2_Node000001_Node000003" class="edge">
<title>Node1&#45;&gt;Node3</title>
<g id="a_edge2_Node000001_Node000003"><a xlink:title=" ">
<path fill="none" stroke="#63b8ff" d="M137.56,-164.75C144.53,-150.44 152.35,-127.98 144.5,-110 139.23,-97.92 128.87,-87.65 119.13,-80.03"/>
<polygon fill="#63b8ff" stroke="#63b8ff" points="121.02,-77.07 110.87,-74.04 116.91,-82.74 121.02,-77.07"/>
</a>
</g>
</g>
<!-- Node4 -->
<g id="Node000004" class="node">
<title>Node4</title>
<g id="a_Node000004"><a xlink:href="ad9434_8h.html" target="_top" xlink:title="Header file of AD9434 Driver.">
<polygon fill="white" stroke="#666666" points="254.5,-129 192.5,-129 192.5,-110 254.5,-110 254.5,-129"/>
<text text-anchor="middle" x="223.5" y="-117" font-family="Helvetica,sans-Serif" font-size="10.00">ad9434.h</text>
</a>
</g>
</g>
<!-- Node1&#45;&gt;Node4 -->
<g id="edge3_Node000001_Node000004" class="edge">
<title>Node1&#45;&gt;Node4</title>
<g id="a_edge3_Node000001_Node000004"><a xlink:title=" ">
<path fill="none" stroke="#63b8ff" d="M152.25,-164.84C167.1,-155.6 186.4,-143.59 201.16,-134.4"/>
<polygon fill="#63b8ff" stroke="#63b8ff" points="203.05,-137.35 209.69,-129.09 199.35,-131.41 203.05,-137.35"/>
</a>
</g>
</g>
<!-- Node8 -->
<g id="Node000008" class="node">
<title>Node8</title>
<g id="a_Node000008"><a xlink:href="no__os__alloc_8h.html" target="_top" xlink:title=" ">
<polygon fill="white" stroke="#666666" points="136,-129 53,-129 53,-110 136,-110 136,-129"/>
<text text-anchor="middle" x="94.5" y="-117" font-family="Helvetica,sans-Serif" font-size="10.00">no_os_alloc.h</text>
</a>
</g>
</g>
<!-- Node1&#45;&gt;Node8 -->
<g id="edge9_Node000001_Node000008" class="edge">
<title>Node1&#45;&gt;Node8</title>
<g id="a_edge9_Node000001_Node000008"><a xlink:title=" ">
<path fill="none" stroke="#63b8ff" d="M121.03,-164.84C116.21,-156.78 110.13,-146.62 105,-138.06"/>
<polygon fill="#63b8ff" stroke="#63b8ff" points="107.88,-136.05 99.74,-129.27 101.88,-139.64 107.88,-136.05"/>
</a>
</g>
</g>
<!-- Node5 -->
<g id="Node000005" class="node">
<title>Node5</title>
<g id="a_Node000005"><a xlink:title=" ">
<polygon fill="#e0e0e0" stroke="#999999" points="250,-19 197,-19 197,0 250,0 250,-19"/>
<text text-anchor="middle" x="223.5" y="-7" font-family="Helvetica,sans-Serif" font-size="10.00">stdint.h</text>
</a>
</g>
</g>
<!-- Node4&#45;&gt;Node5 -->
<g id="edge4_Node000004_Node000005" class="edge">
<title>Node4&#45;&gt;Node5</title>
<g id="a_edge4_Node000004_Node000005"><a xlink:title=" ">
<path fill="none" stroke="#63b8ff" d="M207.47,-109.95C195.09,-102.35 178.85,-89.97 171.5,-74 162.72,-54.93 181.27,-36.78 198.6,-24.81"/>
<polygon fill="#63b8ff" stroke="#63b8ff" points="200.89,-27.49 207.39,-19.14 197.09,-21.61 200.89,-27.49"/>
</a>
</g>
</g>
<!-- Node6 -->
<g id="Node000006" class="node">
<title>Node6</title>
<g id="a_Node000006"><a xlink:href="no__os__delay_8h.html" target="_top" xlink:title="Header file of Delay functions.">
<polygon fill="white" stroke="#666666" points="266,-74 181,-74 181,-55 266,-55 266,-74"/>
<text text-anchor="middle" x="223.5" y="-62" font-family="Helvetica,sans-Serif" font-size="10.00">no_os_delay.h</text>
</a>
</g>
</g>
<!-- Node4&#45;&gt;Node6 -->
<g id="edge5_Node000004_Node000006" class="edge">
<title>Node4&#45;&gt;Node6</title>
<g id="a_edge5_Node000004_Node000006"><a xlink:title=" ">
<path fill="none" stroke="#63b8ff" d="M223.5,-109.75C223.5,-102.8 223.5,-92.85 223.5,-84.13"/>
<polygon fill="#63b8ff" stroke="#63b8ff" points="227,-84.09 223.5,-74.09 220,-84.09 227,-84.09"/>
</a>
</g>
</g>
<!-- Node7 -->
<g id="Node000007" class="node">
<title>Node7</title>
<g id="a_Node000007"><a xlink:href="no__os__spi_8h.html" target="_top" xlink:title="Header file of SPI Interface.">
<polygon fill="white" stroke="#666666" points="358.5,-74 284.5,-74 284.5,-55 358.5,-55 358.5,-74"/>
<text text-anchor="middle" x="321.5" y="-62" font-family="Helvetica,sans-Serif" font-size="10.00">no_os_spi.h</text>
</a>
</g>
</g>
<!-- Node4&#45;&gt;Node7 -->
<g id="edge7_Node000004_Node000007" class="edge">
<title>Node4&#45;&gt;Node7</title>
<g id="a_edge7_Node000004_Node000007"><a xlink:title=" ">
<path fill="none" stroke="#63b8ff" d="M239.25,-109.98C254.73,-101.61 278.59,-88.7 296.64,-78.95"/>
<polygon fill="#63b8ff" stroke="#63b8ff" points="298.34,-82.01 305.47,-74.17 295.01,-75.85 298.34,-82.01"/>
</a>
</g>
</g>
<!-- Node6&#45;&gt;Node5 -->
<g id="edge6_Node000006_Node000005" class="edge">
<title>Node6&#45;&gt;Node5</title>
<g id="a_edge6_Node000006_Node000005"><a xlink:title=" ">
<path fill="none" stroke="#63b8ff" d="M223.5,-54.75C223.5,-47.8 223.5,-37.85 223.5,-29.13"/>
<polygon fill="#63b8ff" stroke="#63b8ff" points="227,-29.09 223.5,-19.09 220,-29.09 227,-29.09"/>
</a>
</g>
</g>
<!-- Node7&#45;&gt;Node5 -->
<g id="edge8_Node000007_Node000005" class="edge">
<title>Node7&#45;&gt;Node5</title>
<g id="a_edge8_Node000007_Node000005"><a xlink:title=" ">
<path fill="none" stroke="#63b8ff" d="M305.75,-54.98C290.27,-46.61 266.41,-33.7 248.36,-23.95"/>
<polygon fill="#63b8ff" stroke="#63b8ff" points="249.99,-20.85 239.53,-19.17 246.66,-27.01 249.99,-20.85"/>
</a>
</g>
</g>
<!-- Node8&#45;&gt;Node2 -->
<g id="edge11_Node000008_Node000002" class="edge">
<title>Node8&#45;&gt;Node2</title>
<g id="a_edge11_Node000008_Node000002"><a xlink:title=" ">
<path fill="none" stroke="#63b8ff" d="M83.57,-109.98C73.42,-102.07 58.08,-90.11 45.85,-80.58"/>
<polygon fill="#63b8ff" stroke="#63b8ff" points="47.66,-77.56 37.62,-74.17 43.36,-83.08 47.66,-77.56"/>
</a>
</g>
</g>
<!-- Node8&#45;&gt;Node3 -->
<g id="edge10_Node000008_Node000003" class="edge">
<title>Node8&#45;&gt;Node3</title>
<g id="a_edge10_Node000008_Node000003"><a xlink:title=" ">
<path fill="none" stroke="#63b8ff" d="M94.83,-109.75C95.09,-102.8 95.47,-92.85 95.8,-84.13"/>
<polygon fill="#63b8ff" stroke="#63b8ff" points="99.3,-84.21 96.18,-74.09 92.3,-83.95 99.3,-84.21"/>
</a>
</g>
</g>
</g>
</svg>
