<?xml version="1.0" encoding="UTF-8" standalone="no"?>
<!DOCTYPE svg PUBLIC "-//W3C//DTD SVG 1.1//EN"
 "http://www.w3.org/Graphics/SVG/1.1/DTD/svg11.dtd">
<!-- Generated by graphviz version 2.43.0 (0)
 -->
<!-- Title: ad9467_set_bits_to_reg Pages: 1 -->
<svg width="561pt" height="615pt"
 viewBox="0.00 0.00 561.00 615.39" xmlns="http://www.w3.org/2000/svg" xmlns:xlink="http://www.w3.org/1999/xlink">
<g id="graph0" class="graph" transform="scale(1 1) rotate(0) translate(4 611.39)">
<title>ad9467_set_bits_to_reg</title>
<!-- Node1 -->
<g id="Node000001" class="node">
<title>Node1</title>
<g id="a_Node000001"><a xlink:title="Sets a bit or a group of bits inside a register without modifying the other bits.">
<polygon fill="#999999" stroke="#666666" points="553,-306.89 421,-306.89 421,-287.89 553,-287.89 553,-306.89"/>
<text text-anchor="middle" x="487" y="-294.89" font-family="Helvetica,sans-Serif" font-size="10.00">ad9467_set_bits_to_reg</text>
</a>
</g>
</g>
<!-- Node2 -->
<g id="Node000002" class="node">
<title>Node2</title>
<g id="a_Node000002"><a xlink:href="ad9467_8c.html#a79ec5e0b953aa7648e3d8ca880a3acee" target="_top" xlink:title="Sets the AC coupling(0) or DC coupling(1) mode.">
<polygon fill="white" stroke="#666666" points="371,-607.39 250,-607.39 250,-577.39 371,-577.39 371,-607.39"/>
<text text-anchor="start" x="258" y="-595.39" font-family="Helvetica,sans-Serif" font-size="10.00">ad9467_analog_input</text>
<text text-anchor="middle" x="310.5" y="-584.39" font-family="Helvetica,sans-Serif" font-size="10.00">_coupling</text>
</a>
</g>
</g>
<!-- Node1&#45;&gt;Node2 -->
<g id="edge1_Node000001_Node000002" class="edge">
<title>Node1&#45;&gt;Node2</title>
<g id="a_edge1_Node000001_Node000002"><a xlink:title=" ">
<path fill="none" stroke="#63b8ff" d="M484.42,-316.86C479.36,-366.18 459.27,-497.11 385,-568.39 380.93,-572.29 376.22,-575.56 371.19,-578.3"/>
<polygon fill="#63b8ff" stroke="#63b8ff" points="487.9,-317.17 485.34,-306.89 480.93,-316.52 487.9,-317.17"/>
</a>
</g>
</g>
<!-- Node3 -->
<g id="Node000003" class="node">
<title>Node3</title>
<g id="a_Node000003"><a xlink:href="ad9467_8c.html#a1125171373d3873d6a144855fc2a0d1c" target="_top" xlink:title="Disconnects (1) or connects (0) the analog input from or to the the ADC channel.">
<polygon fill="white" stroke="#666666" points="371,-559.39 250,-559.39 250,-529.39 371,-529.39 371,-559.39"/>
<text text-anchor="start" x="258" y="-547.39" font-family="Helvetica,sans-Serif" font-size="10.00">ad9467_analog_input</text>
<text text-anchor="middle" x="310.5" y="-536.39" font-family="Helvetica,sans-Serif" font-size="10.00">_disconnect</text>
</a>
</g>
</g>
<!-- Node1&#45;&gt;Node3 -->
<g id="edge2_Node000001_Node000003" class="edge">
<title>Node1&#45;&gt;Node3</title>
<g id="a_edge2_Node000001_Node000003"><a xlink:title=" ">
<path fill="none" stroke="#63b8ff" d="M482.6,-317.11C474.13,-360.3 448.06,-463.89 385,-520.39 380.9,-524.06 376.23,-527.17 371.27,-529.81"/>
<polygon fill="#63b8ff" stroke="#63b8ff" points="486.08,-317.52 484.46,-307.05 479.2,-316.25 486.08,-317.52"/>
</a>
</g>
</g>
<!-- Node4 -->
<g id="Node000004" class="node">
<title>Node4</title>
<g id="a_Node000004"><a xlink:href="ad9467_8c.html#a597797a641700c750e9a32641c9c11bb" target="_top" xlink:title="Changes the input buffer current(1).">
<polygon fill="white" stroke="#666666" points="379,-510.89 242,-510.89 242,-491.89 379,-491.89 379,-510.89"/>
<text text-anchor="middle" x="310.5" y="-498.89" font-family="Helvetica,sans-Serif" font-size="10.00">ad9467_buffer_current_1</text>
</a>
</g>
</g>
<!-- Node1&#45;&gt;Node4 -->
<g id="edge3_Node000001_Node000004" class="edge">
<title>Node1&#45;&gt;Node4</title>
<g id="a_edge3_Node000001_Node000004"><a xlink:title=" ">
<path fill="none" stroke="#63b8ff" d="M481.01,-317.26C470.31,-355.61 441.42,-439.9 385,-483.39 380.63,-486.76 375.72,-489.51 370.55,-491.75"/>
<polygon fill="#63b8ff" stroke="#63b8ff" points="484.46,-317.89 483.66,-307.32 477.7,-316.09 484.46,-317.89"/>
</a>
</g>
</g>
<!-- Node5 -->
<g id="Node000005" class="node">
<title>Node5</title>
<g id="a_Node000005"><a xlink:href="ad9467_8c.html#abd5aa1b883075986a7d34cf3494ffa68" target="_top" xlink:title="Changes the input buffer current(2).">
<polygon fill="white" stroke="#666666" points="379,-473.89 242,-473.89 242,-454.89 379,-454.89 379,-473.89"/>
<text text-anchor="middle" x="310.5" y="-461.89" font-family="Helvetica,sans-Serif" font-size="10.00">ad9467_buffer_current_2</text>
</a>
</g>
</g>
<!-- Node1&#45;&gt;Node5 -->
<g id="edge4_Node000001_Node000005" class="edge">
<title>Node1&#45;&gt;Node5</title>
<g id="a_edge4_Node000001_Node000005"><a xlink:title=" ">
<path fill="none" stroke="#63b8ff" d="M478.37,-316.82C464.71,-348.98 432.95,-413.05 385,-446.39 380.04,-449.84 374.49,-452.63 368.72,-454.89"/>
<polygon fill="#63b8ff" stroke="#63b8ff" points="481.75,-317.81 482.31,-307.22 475.27,-315.15 481.75,-317.81"/>
</a>
</g>
</g>
<!-- Node6 -->
<g id="Node000006" class="node">
<title>Node6</title>
<g id="a_Node000006"><a xlink:href="ad9467_8c.html#a435c341bd1925e56140829983de1008c" target="_top" xlink:title="Determines LVDS output properties.">
<polygon fill="white" stroke="#666666" points="378.5,-436.89 242.5,-436.89 242.5,-417.89 378.5,-417.89 378.5,-436.89"/>
<text text-anchor="middle" x="310.5" y="-424.89" font-family="Helvetica,sans-Serif" font-size="10.00">ad9467_coarse_lvds_adj</text>
</a>
</g>
</g>
<!-- Node1&#45;&gt;Node6 -->
<g id="edge5_Node000001_Node000006" class="edge">
<title>Node1&#45;&gt;Node6</title>
<g id="a_edge5_Node000001_Node000006"><a xlink:title=" ">
<path fill="none" stroke="#63b8ff" d="M474.79,-315.49C458.3,-340.56 425.06,-385.45 385,-409.39 379.25,-412.83 372.87,-415.61 366.35,-417.86"/>
<polygon fill="#63b8ff" stroke="#63b8ff" points="477.82,-317.25 480.27,-306.94 471.93,-313.47 477.82,-317.25"/>
</a>
</g>
</g>
<!-- Node7 -->
<g id="Node000007" class="node">
<title>Node7</title>
<g id="a_Node000007"><a xlink:href="ad9467_8c.html#ac538012352eeb265aa262a2cc101926f" target="_top" xlink:title="Activates the normal (0) or inverted (1) DCO clock.">
<polygon fill="white" stroke="#666666" points="380.5,-399.89 240.5,-399.89 240.5,-380.89 380.5,-380.89 380.5,-399.89"/>
<text text-anchor="middle" x="310.5" y="-387.89" font-family="Helvetica,sans-Serif" font-size="10.00">ad9467_dco_clock_invert</text>
</a>
</g>
</g>
<!-- Node1&#45;&gt;Node7 -->
<g id="edge6_Node000001_Node000007" class="edge">
<title>Node1&#45;&gt;Node7</title>
<g id="a_edge6_Node000001_Node000007"><a xlink:title=" ">
<path fill="none" stroke="#63b8ff" d="M468.42,-313.93C449.31,-331.01 417.2,-357.25 385,-372.39 377.87,-375.74 370.04,-378.51 362.24,-380.79"/>
<polygon fill="#63b8ff" stroke="#63b8ff" points="470.97,-316.34 476,-307.01 466.25,-311.16 470.97,-316.34"/>
</a>
</g>
</g>
<!-- Node8 -->
<g id="Node000008" class="node">
<title>Node8</title>
<g id="a_Node000008"><a xlink:href="ad9467_8c.html#a1ee4250c78259778b92cf0473ffb090f" target="_top" xlink:title="Enables (1) or disables (0) the external voltage reference.">
<polygon fill="white" stroke="#666666" points="369,-362.89 252,-362.89 252,-343.89 369,-343.89 369,-362.89"/>
<text text-anchor="middle" x="310.5" y="-350.89" font-family="Helvetica,sans-Serif" font-size="10.00">ad9467_external_ref</text>
</a>
</g>
</g>
<!-- Node1&#45;&gt;Node8 -->
<g id="edge7_Node000001_Node000008" class="edge">
<title>Node1&#45;&gt;Node8</title>
<g id="a_edge7_Node000001_Node000008"><a xlink:title=" ">
<path fill="none" stroke="#63b8ff" d="M453.61,-310.71C433.96,-318.5 408.27,-328.19 385,-335.39 375.08,-338.46 364.29,-341.34 354.1,-343.87"/>
<polygon fill="#63b8ff" stroke="#63b8ff" points="455.03,-313.91 463.01,-306.94 452.42,-307.41 455.03,-313.91"/>
</a>
</g>
</g>
<!-- Node9 -->
<g id="Node000009" class="node">
<title>Node9</title>
<g id="a_Node000009"><a xlink:href="ad9467_8c.html#a2853eb8b8d9e541b869521d24873c6cf" target="_top" xlink:title="Configures the full&#45;scale input voltage selection.">
<polygon fill="white" stroke="#666666" points="379,-325.89 242,-325.89 242,-306.89 379,-306.89 379,-325.89"/>
<text text-anchor="middle" x="310.5" y="-313.89" font-family="Helvetica,sans-Serif" font-size="10.00">ad9467_full_scale_range</text>
</a>
</g>
</g>
<!-- Node1&#45;&gt;Node9 -->
<g id="edge8_Node000001_Node000009" class="edge">
<title>Node1&#45;&gt;Node9</title>
<g id="a_edge8_Node000001_Node000009"><a xlink:title=" ">
<path fill="none" stroke="#63b8ff" d="M410.58,-305.6C400.11,-306.74 389.4,-307.91 379.09,-309.03"/>
<polygon fill="#63b8ff" stroke="#63b8ff" points="410.96,-309.08 420.53,-304.52 410.21,-302.12 410.96,-309.08"/>
</a>
</g>
</g>
<!-- Node10 -->
<g id="Node000010" class="node">
<title>Node10</title>
<g id="a_Node000010"><a xlink:href="ad9467_8c.html#a7675d7bae1a339b8905afb6af8075788" target="_top" xlink:title="Sets the output current adjustment.">
<polygon fill="white" stroke="#666666" points="385,-288.89 236,-288.89 236,-269.89 385,-269.89 385,-288.89"/>
<text text-anchor="middle" x="310.5" y="-276.89" font-family="Helvetica,sans-Serif" font-size="10.00">ad9467_output_current_adj</text>
</a>
</g>
</g>
<!-- Node1&#45;&gt;Node10 -->
<g id="edge9_Node000001_Node000010" class="edge">
<title>Node1&#45;&gt;Node10</title>
<g id="a_edge9_Node000001_Node000010"><a xlink:title=" ">
<path fill="none" stroke="#63b8ff" d="M410.43,-289.59C402.08,-288.73 393.58,-287.86 385.25,-287"/>
<polygon fill="#63b8ff" stroke="#63b8ff" points="410.22,-293.09 420.53,-290.63 410.94,-286.13 410.22,-293.09"/>
</a>
</g>
</g>
<!-- Node11 -->
<g id="Node000011" class="node">
<title>Node11</title>
<g id="a_Node000011"><a xlink:href="ad9467_8c.html#a35c640df5935d520d6e21c72a03b84e1" target="_top" xlink:title="Disables (1) or enables (0) the data output.">
<polygon fill="white" stroke="#666666" points="375.5,-251.89 245.5,-251.89 245.5,-232.89 375.5,-232.89 375.5,-251.89"/>
<text text-anchor="middle" x="310.5" y="-239.89" font-family="Helvetica,sans-Serif" font-size="10.00">ad9467_output_disable</text>
</a>
</g>
</g>
<!-- Node1&#45;&gt;Node11 -->
<g id="edge10_Node000001_Node000011" class="edge">
<title>Node1&#45;&gt;Node11</title>
<g id="a_edge10_Node000001_Node000011"><a xlink:title=" ">
<path fill="none" stroke="#63b8ff" d="M451.68,-284.29C432.25,-277.1 407.43,-268.27 385,-261.39 374.04,-258.03 362.04,-254.75 350.97,-251.9"/>
<polygon fill="#63b8ff" stroke="#63b8ff" points="450.71,-287.67 461.3,-287.89 453.16,-281.11 450.71,-287.67"/>
</a>
</g>
</g>
<!-- Node12 -->
<g id="Node000012" class="node">
<title>Node12</title>
<g id="a_Node000012"><a xlink:href="ad9467_8c.html#a8cf1ef07324f55b9c5ea07b014797e72" target="_top" xlink:title="Specifies the output format.">
<polygon fill="white" stroke="#666666" points="374.5,-175.89 246.5,-175.89 246.5,-156.89 374.5,-156.89 374.5,-175.89"/>
<text text-anchor="middle" x="310.5" y="-163.89" font-family="Helvetica,sans-Serif" font-size="10.00">ad9467_output_format</text>
</a>
</g>
</g>
<!-- Node1&#45;&gt;Node12 -->
<g id="edge11_Node000001_Node000012" class="edge">
<title>Node1&#45;&gt;Node12</title>
<g id="a_edge11_Node000001_Node000012"><a xlink:title=" ">
<path fill="none" stroke="#63b8ff" d="M473.61,-279.49C456.35,-255.85 422.9,-214.41 385,-190.39 375.25,-184.21 363.76,-179.47 352.79,-175.91"/>
<polygon fill="#63b8ff" stroke="#63b8ff" points="470.94,-281.78 479.59,-287.88 476.63,-277.71 470.94,-281.78"/>
</a>
</g>
</g>
<!-- Node15 -->
<g id="Node000015" class="node">
<title>Node15</title>
<g id="a_Node000015"><a xlink:href="ad9467_8c.html#a70c8f21b8351059ff7b142d6610c9e8f" target="_top" xlink:title="Activates the inverted (1) or normal (0) output mode.">
<polygon fill="white" stroke="#666666" points="200,-214.89 77,-214.89 77,-195.89 200,-195.89 200,-214.89"/>
<text text-anchor="middle" x="138.5" y="-202.89" font-family="Helvetica,sans-Serif" font-size="10.00">ad9467_output_invert</text>
</a>
</g>
</g>
<!-- Node1&#45;&gt;Node15 -->
<g id="edge15_Node000001_Node000015" class="edge">
<title>Node1&#45;&gt;Node15</title>
<g id="a_edge15_Node000001_Node000015"><a xlink:title=" ">
<path fill="none" stroke="#63b8ff" d="M469.07,-280.54C450.3,-263.05 418.26,-236.59 385,-224.39 324.9,-202.34 251.11,-199.59 200.21,-201.1"/>
<polygon fill="#63b8ff" stroke="#63b8ff" points="466.84,-283.25 476.49,-287.64 471.68,-278.2 466.84,-283.25"/>
</a>
</g>
</g>
<!-- Node16 -->
<g id="Node000016" class="node">
<title>Node16</title>
<g id="a_Node000016"><a xlink:href="ad9467_8c.html#a75824f422e1e72caf5b140d06b9c4cb1" target="_top" xlink:title="Configures the power mode.">
<polygon fill="white" stroke="#666666" points="365,-138.89 256,-138.89 256,-119.89 365,-119.89 365,-138.89"/>
<text text-anchor="middle" x="310.5" y="-126.89" font-family="Helvetica,sans-Serif" font-size="10.00">ad9467_pwr_mode</text>
</a>
</g>
</g>
<!-- Node1&#45;&gt;Node16 -->
<g id="edge17_Node000001_Node000016" class="edge">
<title>Node1&#45;&gt;Node16</title>
<g id="a_edge17_Node000001_Node000016"><a xlink:title=" ">
<path fill="none" stroke="#63b8ff" d="M478.33,-278.02C464.6,-245.96 432.73,-182.04 385,-148.39 379.08,-144.21 372.3,-140.95 365.32,-138.41"/>
<polygon fill="#63b8ff" stroke="#63b8ff" points="475.23,-279.69 482.28,-287.59 481.69,-277.01 475.23,-279.69"/>
</a>
</g>
</g>
<!-- Node17 -->
<g id="Node000017" class="node">
<title>Node17</title>
<g id="a_Node000017"><a xlink:href="ad9467_8c.html#aa4ca255f28a2fdd3b321f285f10ebb42" target="_top" xlink:title="Sets (1) or clears (0) the reset long PN sequence bit(PN23).">
<polygon fill="white" stroke="#666666" points="194.5,-62.89 82.5,-62.89 82.5,-43.89 194.5,-43.89 194.5,-62.89"/>
<text text-anchor="middle" x="138.5" y="-50.89" font-family="Helvetica,sans-Serif" font-size="10.00">ad9467_reset_pn23</text>
</a>
</g>
</g>
<!-- Node1&#45;&gt;Node17 -->
<g id="edge18_Node000001_Node000017" class="edge">
<title>Node1&#45;&gt;Node17</title>
<g id="a_edge18_Node000001_Node000017"><a xlink:title=" ">
<path fill="none" stroke="#63b8ff" d="M483.72,-277.64C477.37,-232.68 455.06,-122.8 385,-73.39 327.16,-32.6 241.5,-36.19 188.17,-43.83"/>
<polygon fill="#63b8ff" stroke="#63b8ff" points="480.25,-278.12 485.01,-287.59 487.19,-277.22 480.25,-278.12"/>
</a>
</g>
</g>
<!-- Node18 -->
<g id="Node000018" class="node">
<title>Node18</title>
<g id="a_Node000018"><a xlink:href="ad9467_8c.html#adf0af00c561fb97352c0784c324dd081" target="_top" xlink:title="Sets (1) or clears (0) the reset short PN sequence bit(PN9).">
<polygon fill="white" stroke="#666666" points="191.5,-25.89 85.5,-25.89 85.5,-6.89 191.5,-6.89 191.5,-25.89"/>
<text text-anchor="middle" x="138.5" y="-13.89" font-family="Helvetica,sans-Serif" font-size="10.00">ad9467_reset_pn9</text>
</a>
</g>
</g>
<!-- Node1&#45;&gt;Node18 -->
<g id="edge20_Node000001_Node000018" class="edge">
<title>Node1&#45;&gt;Node18</title>
<g id="a_edge20_Node000001_Node000018"><a xlink:title=" ">
<path fill="none" stroke="#63b8ff" d="M485.12,-277.46C481.71,-227.21 465.17,-95.08 385,-35.39 326.37,8.27 236.53,2.08 183.33,-6.84"/>
<polygon fill="#63b8ff" stroke="#63b8ff" points="481.63,-277.86 485.7,-287.64 488.62,-277.46 481.63,-277.86"/>
</a>
</g>
</g>
<!-- Node19 -->
<g id="Node000019" class="node">
<title>Node19</title>
<g id="a_Node000019"><a xlink:href="ad9467_8c.html#a1a94cd0931136ab64a76f2aa4f9e6cc4" target="_top" xlink:title="Sets the ADC&#39;s test mode.">
<polygon fill="white" stroke="#666666" points="365.5,-101.89 255.5,-101.89 255.5,-82.89 365.5,-82.89 365.5,-101.89"/>
<text text-anchor="middle" x="310.5" y="-89.89" font-family="Helvetica,sans-Serif" font-size="10.00">ad9467_test_mode</text>
</a>
</g>
</g>
<!-- Node1&#45;&gt;Node19 -->
<g id="edge22_Node000001_Node000019" class="edge">
<title>Node1&#45;&gt;Node19</title>
<g id="a_edge22_Node000001_Node000019"><a xlink:title=" ">
<path fill="none" stroke="#63b8ff" d="M480.96,-277.58C470.17,-239.34 441.14,-155.24 385,-111.39 379.29,-106.93 372.64,-103.5 365.72,-100.88"/>
<polygon fill="#63b8ff" stroke="#63b8ff" points="477.65,-278.74 483.63,-287.49 484.41,-276.92 477.65,-278.74"/>
</a>
</g>
</g>
<!-- Node13 -->
<g id="Node000013" class="node">
<title>Node13</title>
<g id="a_Node000013"><a xlink:href="ad9467__fmc_8c.html#afc006e4134a35aad96e8224c95db5d43" target="_top" xlink:title=" ">
<polygon fill="white" stroke="#666666" points="167.5,-138.89 109.5,-138.89 109.5,-119.89 167.5,-119.89 167.5,-138.89"/>
<text text-anchor="middle" x="138.5" y="-126.89" font-family="Helvetica,sans-Serif" font-size="10.00">adc_test</text>
</a>
</g>
</g>
<!-- Node12&#45;&gt;Node13 -->
<g id="edge12_Node000012_Node000013" class="edge">
<title>Node12&#45;&gt;Node13</title>
<g id="a_edge12_Node000012_Node000013"><a xlink:title=" ">
<path fill="none" stroke="#63b8ff" d="M255.65,-154.67C226.45,-148.31 191.54,-140.71 167.67,-135.52"/>
<polygon fill="#63b8ff" stroke="#63b8ff" points="255.21,-158.15 265.72,-156.86 256.69,-151.31 255.21,-158.15"/>
</a>
</g>
</g>
<!-- Node14 -->
<g id="Node000014" class="node">
<title>Node14</title>
<g id="a_Node000014"><a xlink:href="ad9467__fmc_8c.html#ae66f6b31b5ad750f1fe042a706a4e3d4" target="_top" xlink:title="Main function.">
<polygon fill="white" stroke="#666666" points="41,-119.89 0,-119.89 0,-100.89 41,-100.89 41,-119.89"/>
<text text-anchor="middle" x="20.5" y="-107.89" font-family="Helvetica,sans-Serif" font-size="10.00">main</text>
</a>
</g>
</g>
<!-- Node12&#45;&gt;Node14 -->
<g id="edge14_Node000012_Node000014" class="edge">
<title>Node12&#45;&gt;Node14</title>
<g id="a_edge14_Node000012_Node000014"><a xlink:title=" ">
<path fill="none" stroke="#63b8ff" d="M236.2,-170.31C189.4,-170.5 128.14,-166.41 77,-148.39 59.6,-142.26 42.54,-129.22 32.02,-120.13"/>
<polygon fill="#63b8ff" stroke="#63b8ff" points="236.3,-173.81 246.26,-170.2 236.22,-166.81 236.3,-173.81"/>
</a>
</g>
</g>
<!-- Node13&#45;&gt;Node14 -->
<g id="edge13_Node000013_Node000014" class="edge">
<title>Node13&#45;&gt;Node14</title>
<g id="a_edge13_Node000013_Node000014"><a xlink:title=" ">
<path fill="none" stroke="#63b8ff" d="M99.35,-123.14C79.97,-119.96 57.21,-116.24 41.33,-113.64"/>
<polygon fill="#63b8ff" stroke="#63b8ff" points="98.99,-126.63 109.42,-124.79 100.12,-119.72 98.99,-126.63"/>
</a>
</g>
</g>
<!-- Node15&#45;&gt;Node14 -->
<g id="edge16_Node000015_Node000014" class="edge">
<title>Node15&#45;&gt;Node14</title>
<g id="a_edge16_Node000015_Node000014"><a xlink:title=" ">
<path fill="none" stroke="#63b8ff" d="M95.11,-191.94C88.73,-188.98 82.47,-185.48 77,-181.39 53.95,-164.14 35.36,-135.01 26.73,-119.98"/>
<polygon fill="#63b8ff" stroke="#63b8ff" points="93.87,-195.22 104.45,-195.89 96.6,-188.77 93.87,-195.22"/>
</a>
</g>
</g>
<!-- Node17&#45;&gt;Node14 -->
<g id="edge19_Node000017_Node000014" class="edge">
<title>Node17&#45;&gt;Node14</title>
<g id="a_edge19_Node000017_Node000014"><a xlink:title=" ">
<path fill="none" stroke="#63b8ff" d="M101.55,-66.56C93.37,-69.86 84.8,-73.55 77,-77.39 62.72,-84.41 47.2,-93.8 36.22,-100.76"/>
<polygon fill="#63b8ff" stroke="#63b8ff" points="102.87,-69.8 110.9,-62.89 100.31,-63.29 102.87,-69.8"/>
</a>
</g>
</g>
<!-- Node18&#45;&gt;Node14 -->
<g id="edge21_Node000018_Node000014" class="edge">
<title>Node18&#45;&gt;Node14</title>
<g id="a_edge21_Node000018_Node000014"><a xlink:title=" ">
<path fill="none" stroke="#63b8ff" d="M83.68,-30.27C81.36,-31.52 79.12,-32.9 77,-34.39 52.04,-52.01 33.93,-84.44 25.98,-100.64"/>
<polygon fill="#63b8ff" stroke="#63b8ff" points="85.38,-33.34 92.97,-25.95 82.43,-26.99 85.38,-33.34"/>
</a>
</g>
</g>
<!-- Node19&#45;&gt;Node13 -->
<g id="edge23_Node000019_Node000013" class="edge">
<title>Node19&#45;&gt;Node13</title>
<g id="a_edge23_Node000019_Node000013"><a xlink:title=" ">
<path fill="none" stroke="#63b8ff" d="M255.65,-104.11C226.45,-110.46 191.54,-118.06 167.67,-123.26"/>
<polygon fill="#63b8ff" stroke="#63b8ff" points="256.69,-107.46 265.72,-101.92 255.21,-100.62 256.69,-107.46"/>
</a>
</g>
</g>
<!-- Node19&#45;&gt;Node14 -->
<g id="edge24_Node000019_Node000014" class="edge">
<title>Node19&#45;&gt;Node14</title>
<g id="a_edge24_Node000019_Node000014"><a xlink:title=" ">
<path fill="none" stroke="#63b8ff" d="M245.12,-96.41C179.74,-100.5 82.42,-106.58 41.14,-109.16"/>
<polygon fill="#63b8ff" stroke="#63b8ff" points="245.57,-99.89 255.33,-95.77 245.13,-92.9 245.57,-99.89"/>
</a>
</g>
</g>
</g>
</svg>
