<?xml version="1.0" encoding="UTF-8" standalone="no"?>
<!DOCTYPE svg PUBLIC "-//W3C//DTD SVG 1.1//EN"
 "http://www.w3.org/Graphics/SVG/1.1/DTD/svg11.dtd">
<!-- Generated by graphviz version 2.43.0 (0)
 -->
<!-- Title: ad9523_spi_write Pages: 1 -->
<!--zoomable 169 -->

<svg id="main" version="1.1" xmlns="http://www.w3.org/2000/svg" xmlns:xlink="http://www.w3.org/1999/xlink" xml:space="preserve" onload="init(evt)">

<style type="text/css"><![CDATA[
.node, .edge {opacity: 0.7;}
.node.selected, .edge.selected {opacity: 1;}
.edge:hover path { stroke: red; }
.edge:hover polygon { stroke: red; fill: red; }
]]></style>

<defs>
  <circle id="rim" cx="0" cy="0" r="7"/>
  <circle id="rim2" cx="0" cy="0" r="3.5"/>
  <g id="zoomPlus">
    <use xlink:href="#rim" fill="#404040"><set attributeName="fill" to="#808080" begin="zoomplus.mouseover" end="zoomplus.mouseout"/></use>
    <path d="M-4,0h8M0,-4v8" fill="none" stroke="white" stroke-width="1.5" pointer-events="none"/>
  </g>
  <g id="zoomMin">
    <use xlink:href="#rim" fill="#404040"><set attributeName="fill" to="#808080" begin="zoomminus.mouseover" end="zoomminus.mouseout"/></use>
    <path d="M-4,0h8" fill="none" stroke="white" stroke-width="1.5" pointer-events="none"/>
  </g>
  <g id="arrowUp" transform="translate(30 24)">
    <use xlink:href="#rim"/>
    <path pointer-events="none" fill="none" stroke="white" stroke-width="1.5" d="M0,-3.0v7 M-2.5,-0.5L0,-3.0L2.5,-0.5"/>
  </g>
  <g id="arrowRight" transform="rotate(90) translate(36 -43)">
    <use xlink:href="#rim"/>
    <path pointer-events="none" fill="none" stroke="white" stroke-width="1.5" d="M0,-3.0v7 M-2.5,-0.5L0,-3.0L2.5,-0.5"/>
  </g>
  <g id="arrowDown" transform="rotate(180) translate(-30 -48)">
    <use xlink:href="#rim"/>
    <path pointer-events="none" fill="none" stroke="white" stroke-width="1.5" d="M0,-3.0v7 M-2.5,-0.5L0,-3.0L2.5,-0.5"/>
  </g>
  <g id="arrowLeft" transform="rotate(270) translate(-36 17)">
    <use xlink:href="#rim"/>
    <path pointer-events="none" fill="none" stroke="white" stroke-width="1.5" d="M0,-3.0v7 M-2.5,-0.5L0,-3.0L2.5,-0.5"/>
  </g>
  <g id="resetDef">
    <use xlink:href="#rim2" fill="#404040"><set attributeName="fill" to="#808080" begin="reset.mouseover" end="reset.mouseout"/></use>
  </g>
</defs>
<script type="application/ecmascript">
var viewWidth = 527;
var viewHeight = 169;
var sectionId = 'dynsection-4';
</script>
<script type="application/ecmascript" xlink:href="svg.min.js"/>
<svg id="graph" class="graph">
<g id="viewport">
<title>ad9523_spi_write</title>
<!-- Node1 -->
<g id="Node000001" class="node">
<title>Node1</title>
<g id="a_Node000001"><a xlink:title="Writes a value to the selected register.">
<polygon fill="#999999" stroke="#666666" points="519,-95 417,-95 417,-76 519,-76 519,-95"/>
<text text-anchor="middle" x="468" y="-83" font-family="Helvetica,sans-Serif" font-size="10.00">ad9523_spi_write</text>
</a>
</g>
</g>
<!-- Node2 -->
<g id="Node000002" class="node">
<title>Node2</title>
<g id="a_Node000002"><a xlink:href="ad9523_8c.html#ac41178e43b273796df05a276108302c9" target="_top" xlink:title="Updates the AD9523 configuration.">
<polygon fill="white" stroke="#666666" points="222,-133 121,-133 121,-114 222,-114 222,-133"/>
<text text-anchor="middle" x="171.5" y="-121" font-family="Helvetica,sans-Serif" font-size="10.00">ad9523_calibrate</text>
</a>
</g>
</g>
<!-- Node1&#45;&gt;Node2 -->
<g id="edge1_Node000001_Node000002" class="edge">
<title>Node1&#45;&gt;Node2</title>
<g id="a_edge1_Node000001_Node000002"><a xlink:title=" ">
<path fill="none" stroke="#63b8ff" d="M418.65,-97.31C406.42,-99.98 393.28,-102.59 381,-104.5 326.95,-112.9 264.39,-117.99 222,-120.76"/>
<polygon fill="#63b8ff" stroke="#63b8ff" points="419.68,-100.66 428.67,-95.06 418.14,-93.83 419.68,-100.66"/>
</a>
</g>
</g>
<!-- Node3 -->
<g id="Node000003" class="node">
<title>Node3</title>
<g id="a_Node000003"><a xlink:href="ad9523_8c.html#af26d0ef1d15ebc7f6ea3f4dc5317e3c7" target="_top" xlink:title="Setup the AD9523 device.">
<polygon fill="white" stroke="#666666" points="85,-95 0,-95 0,-76 85,-76 85,-95"/>
<text text-anchor="middle" x="42.5" y="-83" font-family="Helvetica,sans-Serif" font-size="10.00">ad9523_setup</text>
</a>
</g>
</g>
<!-- Node1&#45;&gt;Node3 -->
<g id="edge8_Node000001_Node000003" class="edge">
<title>Node1&#45;&gt;Node3</title>
<g id="a_edge8_Node000001_Node000003"><a xlink:title=" ">
<path fill="none" stroke="#63b8ff" d="M441.04,-99.86C424.38,-108.41 402.01,-118.7 381,-124.5 269.34,-155.31 231.06,-178.61 121,-142.5 92.43,-133.13 65.72,-108.75 52.38,-95.11"/>
<polygon fill="#63b8ff" stroke="#63b8ff" points="442.92,-102.82 450.14,-95.07 439.66,-96.63 442.92,-102.82"/>
</a>
</g>
</g>
<!-- Node4 -->
<g id="Node000004" class="node">
<title>Node4</title>
<g id="a_Node000004"><a xlink:href="ad9523_8c.html#a90e60e0e0f1efb4d86363eb1bc8dc120" target="_top" xlink:title="Updates the AD9523 configuration.">
<polygon fill="white" stroke="#666666" points="372.5,-95 266.5,-95 266.5,-76 372.5,-76 372.5,-95"/>
<text text-anchor="middle" x="319.5" y="-83" font-family="Helvetica,sans-Serif" font-size="10.00">ad9523_io_update</text>
</a>
</g>
</g>
<!-- Node1&#45;&gt;Node4 -->
<g id="edge3_Node000001_Node000004" class="edge">
<title>Node1&#45;&gt;Node4</title>
<g id="a_edge3_Node000001_Node000004"><a xlink:title=" ">
<path fill="none" stroke="#63b8ff" d="M406.72,-85.5C395.38,-85.5 383.6,-85.5 372.53,-85.5"/>
<polygon fill="#63b8ff" stroke="#63b8ff" points="406.99,-89 416.99,-85.5 406.99,-82 406.99,-89"/>
</a>
</g>
</g>
<!-- Node5 -->
<g id="Node000005" class="node">
<title>Node5</title>
<g id="a_Node000005"><a xlink:href="ad9523_8c.html#a67f744ae8790aa813acaf25574620ea4" target="_top" xlink:title="Updates the AD9523 configuration.">
<polygon fill="white" stroke="#666666" points="211.5,-57 131.5,-57 131.5,-38 211.5,-38 211.5,-57"/>
<text text-anchor="middle" x="171.5" y="-45" font-family="Helvetica,sans-Serif" font-size="10.00">ad9523_sync</text>
</a>
</g>
</g>
<!-- Node1&#45;&gt;Node5 -->
<g id="edge9_Node000001_Node000005" class="edge">
<title>Node1&#45;&gt;Node5</title>
<g id="a_edge9_Node000001_Node000005"><a xlink:title=" ">
<path fill="none" stroke="#63b8ff" d="M416.14,-73.88C404.63,-71.53 392.43,-69.24 381,-67.5 322.4,-58.59 253.9,-52.91 211.86,-49.97"/>
<polygon fill="#63b8ff" stroke="#63b8ff" points="415.54,-77.33 426.05,-75.96 416.98,-70.48 415.54,-77.33"/>
</a>
</g>
</g>
<!-- Node6 -->
<g id="Node000006" class="node">
<title>Node6</title>
<g id="a_Node000006"><a xlink:href="ad9523_8c.html#ac425d68f7e56d755004f9bc503c41967" target="_top" xlink:title="Sets the clock provider for selected channel.">
<polygon fill="white" stroke="#666666" points="381,-19 258,-19 258,0 381,0 381,-19"/>
<text text-anchor="middle" x="319.5" y="-7" font-family="Helvetica,sans-Serif" font-size="10.00">ad9523_vco_out_map</text>
</a>
</g>
</g>
<!-- Node1&#45;&gt;Node6 -->
<g id="edge10_Node000001_Node000006" class="edge">
<title>Node1&#45;&gt;Node6</title>
<g id="a_edge10_Node000001_Node000006"><a xlink:title=" ">
<path fill="none" stroke="#63b8ff" d="M444.14,-70.24C427.14,-59.26 403.15,-44.5 381,-33.5 370.27,-28.17 358.05,-23.14 347.42,-19.08"/>
<polygon fill="#63b8ff" stroke="#63b8ff" points="442.52,-73.37 452.81,-75.91 446.35,-67.51 442.52,-73.37"/>
</a>
</g>
</g>
<!-- Node2&#45;&gt;Node3 -->
<g id="edge2_Node000002_Node000003" class="edge">
<title>Node2&#45;&gt;Node3</title>
<g id="a_edge2_Node000002_Node000003"><a xlink:title=" ">
<path fill="none" stroke="#63b8ff" d="M128.61,-110.96C111.33,-105.8 91.63,-99.9 75.54,-95.09"/>
<polygon fill="#63b8ff" stroke="#63b8ff" points="127.87,-114.4 138.45,-113.91 129.88,-107.69 127.87,-114.4"/>
</a>
</g>
</g>
<!-- Node4&#45;&gt;Node2 -->
<g id="edge4_Node000004_Node000002" class="edge">
<title>Node4&#45;&gt;Node2</title>
<g id="a_edge4_Node000004_Node000002"><a xlink:title=" ">
<path fill="none" stroke="#63b8ff" d="M271.96,-97.61C251.63,-102.9 228.13,-109.02 209.08,-113.98"/>
<polygon fill="#63b8ff" stroke="#63b8ff" points="272.86,-101 281.66,-95.09 271.1,-94.22 272.86,-101"/>
</a>
</g>
</g>
<!-- Node4&#45;&gt;Node3 -->
<g id="edge5_Node000004_Node000003" class="edge">
<title>Node4&#45;&gt;Node3</title>
<g id="a_edge5_Node000004_Node000003"><a xlink:title=" ">
<path fill="none" stroke="#63b8ff" d="M256.27,-85.5C203.91,-85.5 130.48,-85.5 85.01,-85.5"/>
<polygon fill="#63b8ff" stroke="#63b8ff" points="256.45,-89 266.45,-85.5 256.45,-82 256.45,-89"/>
</a>
</g>
</g>
<!-- Node4&#45;&gt;Node5 -->
<g id="edge6_Node000004_Node000005" class="edge">
<title>Node4&#45;&gt;Node5</title>
<g id="a_edge6_Node000004_Node000005"><a xlink:title=" ">
<path fill="none" stroke="#63b8ff" d="M271.96,-73.39C251.63,-68.1 228.13,-61.98 209.08,-57.02"/>
<polygon fill="#63b8ff" stroke="#63b8ff" points="271.1,-76.78 281.66,-75.91 272.86,-70 271.1,-76.78"/>
</a>
</g>
</g>
<!-- Node5&#45;&gt;Node3 -->
<g id="edge7_Node000005_Node000003" class="edge">
<title>Node5&#45;&gt;Node3</title>
<g id="a_edge7_Node000005_Node000003"><a xlink:title=" ">
<path fill="none" stroke="#63b8ff" d="M128.61,-60.04C111.33,-65.2 91.63,-71.1 75.54,-75.91"/>
<polygon fill="#63b8ff" stroke="#63b8ff" points="129.88,-63.31 138.45,-57.09 127.87,-56.6 129.88,-63.31"/>
</a>
</g>
</g>
<!-- Node6&#45;&gt;Node3 -->
<g id="edge11_Node000006_Node000003" class="edge">
<title>Node6&#45;&gt;Node3</title>
<g id="a_edge11_Node000006_Node000003"><a xlink:title=" ">
<path fill="none" stroke="#63b8ff" d="M247.73,-7.26C209.13,-8.25 161.17,-13.15 121,-28.5 93.23,-39.11 66.61,-62.52 52.97,-75.81"/>
<polygon fill="#63b8ff" stroke="#63b8ff" points="247.9,-10.76 257.84,-7.09 247.78,-3.76 247.9,-10.76"/>
</a>
</g>
</g>
</g>
</svg>

<g id="navigator" transform="translate(0 0)" fill="#404254">
  <rect fill="#f2f5e9" fill-opacity="0.5" stroke="#606060" stroke-width=".5" x="0" y="0" width="60" height="60"/>
  <use id="zoomplus" xlink:href="#zoomPlus" x="17" y="9" onmousedown="handleZoom(evt,'in')"/>
  <use id="zoomminus" xlink:href="#zoomMin" x="42" y="9" onmousedown="handleZoom(evt,'out')"/>
  <use id="reset" xlink:href="#resetDef" x="30" y="36" onmousedown="handleReset()"/>
   <use id="arrowup" xlink:href="#arrowUp" x="0" y="0" onmousedown="handlePan(0,-1)"/>
  <use id="arrowright" xlink:href="#arrowRight" x="0" y="0" onmousedown="handlePan(1,0)"/>
  <use id="arrowdown" xlink:href="#arrowDown" x="0" y="0" onmousedown="handlePan(0,1)"/>
  <use id="arrowleft" xlink:href="#arrowLeft" x="0" y="0" onmousedown="handlePan(-1,0)"/>
</g>
<svg viewBox="0 0 15 15" width="100%" height="30px" preserveAspectRatio="xMaxYMin meet">
 <g id="arrow_out" transform="scale(0.3 0.3)">
  <a xlink:href="ad9523_8h_a783d8d54ccdd935c53443b145a2491e0_icgraph_org.svg" target="_base">
   <rect id="button" ry="5" rx="5" y="6" x="6" height="38" width="38"
        fill="#f2f5e9" fill-opacity="0.5" stroke="#606060" stroke-width="1.0"/>
   <path id="arrow"
     d="M 11.500037,31.436501 C 11.940474,20.09759 22.043105,11.32322 32.158766,21.979434 L 37.068811,17.246167 C 37.068811,17.246167 37.088388,32 37.088388,32 L 22.160133,31.978069 C 22.160133,31.978069 26.997745,27.140456 26.997745,27.140456 C 18.528582,18.264221 13.291696,25.230495 11.500037,31.436501 z"
     style="fill:#404040;"/>
  </a>
 </g>
</svg>

<style type='text/css'>
<![CDATA[
[data-mouse-over-selected='false'] { opacity: 0.7; }
[data-mouse-over-selected='true']  { opacity: 1.0; }
]]>
</style>
<script type="application/ecmascript"><![CDATA[
document.addEventListener('DOMContentLoaded', (event) => {
  highlightEdges();
  highlightAdjacentNodes();
});
]]></script>
</svg>
