<?xml version="1.0" encoding="UTF-8" standalone="no"?>
<!DOCTYPE svg PUBLIC "-//W3C//DTD SVG 1.1//EN"
 "http://www.w3.org/Graphics/SVG/1.1/DTD/svg11.dtd">
<!-- Generated by graphviz version 2.43.0 (0)
 -->
<!-- Title: projects/ad9656_fmc/src/app/ad9656_fmc.c Pages: 1 -->
<svg width="1273pt" height="203pt"
 viewBox="0.00 0.00 1273.00 203.00" xmlns="http://www.w3.org/2000/svg" xmlns:xlink="http://www.w3.org/1999/xlink">
<g id="graph0" class="graph" transform="scale(1 1) rotate(0) translate(4 199)">
<title>projects/ad9656_fmc/src/app/ad9656_fmc.c</title>
<!-- Node1 -->
<g id="Node000001" class="node">
<title>Node1</title>
<g id="a_Node000001"><a xlink:title="Implementation of Main Function.">
<polygon fill="#999999" stroke="#666666" points="675,-195 549,-195 549,-165 675,-165 675,-195"/>
<text text-anchor="start" x="557" y="-183" font-family="Helvetica,sans-Serif" font-size="10.00">projects/ad9656_fmc</text>
<text text-anchor="middle" x="612" y="-172" font-family="Helvetica,sans-Serif" font-size="10.00">/src/app/ad9656_fmc.c</text>
</a>
</g>
</g>
<!-- Node2 -->
<g id="Node000002" class="node">
<title>Node2</title>
<g id="a_Node000002"><a xlink:title=" ">
<polygon fill="#e0e0e0" stroke="#999999" points="88,-129 0,-129 0,-110 88,-110 88,-129"/>
<text text-anchor="middle" x="44" y="-117" font-family="Helvetica,sans-Serif" font-size="10.00">xparameters.h</text>
</a>
</g>
</g>
<!-- Node1&#45;&gt;Node2 -->
<g id="edge1_Node000001_Node000002" class="edge">
<title>Node1&#45;&gt;Node2</title>
<g id="a_edge1_Node000001_Node000002"><a xlink:title=" ">
<path fill="none" stroke="#63b8ff" d="M548.83,-174.14C453.47,-166.52 266.85,-150.52 98.27,-129.09"/>
<polygon fill="#63b8ff" stroke="#63b8ff" points="98.58,-125.6 88.22,-127.8 97.69,-132.54 98.58,-125.6"/>
</a>
</g>
</g>
<!-- Node3 -->
<g id="Node000003" class="node">
<title>Node3</title>
<g id="a_Node000003"><a xlink:title=" ">
<polygon fill="#e0e0e0" stroke="#999999" points="177.5,-129 106.5,-129 106.5,-110 177.5,-110 177.5,-129"/>
<text text-anchor="middle" x="142" y="-117" font-family="Helvetica,sans-Serif" font-size="10.00">xil_cache.h</text>
</a>
</g>
</g>
<!-- Node1&#45;&gt;Node3 -->
<g id="edge2_Node000001_Node000003" class="edge">
<title>Node1&#45;&gt;Node3</title>
<g id="a_edge2_Node000001_Node000003"><a xlink:title=" ">
<path fill="none" stroke="#63b8ff" d="M548.81,-172.95C467.66,-164.88 322.28,-149.37 187.89,-129.03"/>
<polygon fill="#63b8ff" stroke="#63b8ff" points="188.24,-125.55 177.82,-127.5 187.18,-132.47 188.24,-125.55"/>
</a>
</g>
</g>
<!-- Node4 -->
<g id="Node000004" class="node">
<title>Node4</title>
<g id="a_Node000004"><a xlink:title=" ">
<polygon fill="#e0e0e0" stroke="#999999" points="246,-129 196,-129 196,-110 246,-110 246,-129"/>
<text text-anchor="middle" x="221" y="-117" font-family="Helvetica,sans-Serif" font-size="10.00">stdio.h</text>
</a>
</g>
</g>
<!-- Node1&#45;&gt;Node4 -->
<g id="edge3_Node000001_Node000004" class="edge">
<title>Node1&#45;&gt;Node4</title>
<g id="a_edge3_Node000001_Node000004"><a xlink:title=" ">
<path fill="none" stroke="#63b8ff" d="M548.83,-171.45C478.2,-162.67 360.54,-147.07 260,-129 258.73,-128.77 257.45,-128.53 256.15,-128.29"/>
<polygon fill="#63b8ff" stroke="#63b8ff" points="256.62,-124.81 246.12,-126.26 255.23,-131.67 256.62,-124.81"/>
</a>
</g>
</g>
<!-- Node5 -->
<g id="Node000005" class="node">
<title>Node5</title>
<g id="a_Node000005"><a xlink:title=" ">
<polygon fill="#e0e0e0" stroke="#999999" points="370.5,-19 317.5,-19 317.5,0 370.5,0 370.5,-19"/>
<text text-anchor="middle" x="344" y="-7" font-family="Helvetica,sans-Serif" font-size="10.00">stdlib.h</text>
</a>
</g>
</g>
<!-- Node1&#45;&gt;Node5 -->
<g id="edge4_Node000001_Node000005" class="edge">
<title>Node1&#45;&gt;Node5</title>
<g id="a_edge4_Node000001_Node000005"><a xlink:title=" ">
<path fill="none" stroke="#63b8ff" d="M548.83,-178.42C465.4,-176.17 325.25,-166.7 293,-129 266.45,-97.96 303.61,-51 327.19,-26.56"/>
<polygon fill="#63b8ff" stroke="#63b8ff" points="329.96,-28.74 334.55,-19.19 325,-23.79 329.96,-28.74"/>
</a>
</g>
</g>
<!-- Node6 -->
<g id="Node000006" class="node">
<title>Node6</title>
<g id="a_Node000006"><a xlink:href="ad9656_8h.html" target="_top" xlink:title="Header file of AD9656 Driver.">
<polygon fill="white" stroke="#666666" points="563,-129 501,-129 501,-110 563,-110 563,-129"/>
<text text-anchor="middle" x="532" y="-117" font-family="Helvetica,sans-Serif" font-size="10.00">ad9656.h</text>
</a>
</g>
</g>
<!-- Node1&#45;&gt;Node6 -->
<g id="edge5_Node000001_Node000006" class="edge">
<title>Node1&#45;&gt;Node6</title>
<g id="a_edge5_Node000001_Node000006"><a xlink:title=" ">
<path fill="none" stroke="#63b8ff" d="M592.63,-164.84C580.43,-155.91 564.69,-144.41 552.31,-135.35"/>
<polygon fill="#63b8ff" stroke="#63b8ff" points="554.13,-132.34 543.99,-129.27 549.99,-137.99 554.13,-132.34"/>
</a>
</g>
</g>
<!-- Node9 -->
<g id="Node000009" class="node">
<title>Node9</title>
<g id="a_Node000009"><a xlink:href="ad9508_8h.html" target="_top" xlink:title="Header file of AD9508 Driver.">
<polygon fill="white" stroke="#666666" points="643,-129 581,-129 581,-110 643,-110 643,-129"/>
<text text-anchor="middle" x="612" y="-117" font-family="Helvetica,sans-Serif" font-size="10.00">ad9508.h</text>
</a>
</g>
</g>
<!-- Node1&#45;&gt;Node9 -->
<g id="edge8_Node000001_Node000009" class="edge">
<title>Node1&#45;&gt;Node9</title>
<g id="a_edge8_Node000001_Node000009"><a xlink:title=" ">
<path fill="none" stroke="#63b8ff" d="M612,-164.84C612,-157.21 612,-147.7 612,-139.45"/>
<polygon fill="#63b8ff" stroke="#63b8ff" points="615.5,-139.27 612,-129.27 608.5,-139.27 615.5,-139.27"/>
</a>
</g>
</g>
<!-- Node10 -->
<g id="Node000010" class="node">
<title>Node10</title>
<g id="a_Node000010"><a xlink:href="ad9553_8h.html" target="_top" xlink:title="Header file of AD9553 Driver.">
<polygon fill="white" stroke="#666666" points="723,-129 661,-129 661,-110 723,-110 723,-129"/>
<text text-anchor="middle" x="692" y="-117" font-family="Helvetica,sans-Serif" font-size="10.00">ad9553.h</text>
</a>
</g>
</g>
<!-- Node1&#45;&gt;Node10 -->
<g id="edge10_Node000001_Node000010" class="edge">
<title>Node1&#45;&gt;Node10</title>
<g id="a_edge10_Node000001_Node000010"><a xlink:title=" ">
<path fill="none" stroke="#63b8ff" d="M631.37,-164.84C643.57,-155.91 659.31,-144.41 671.69,-135.35"/>
<polygon fill="#63b8ff" stroke="#63b8ff" points="674.01,-137.99 680.01,-129.27 669.87,-132.34 674.01,-137.99"/>
</a>
</g>
</g>
<!-- Node11 -->
<g id="Node000011" class="node">
<title>Node11</title>
<g id="a_Node000011"><a xlink:href="axi__adc__core_8h.html" target="_top" xlink:title="Driver for the Analog Devices AXI&#45;ADC&#45;CORE module.">
<polygon fill="white" stroke="#666666" points="391.5,-129 302.5,-129 302.5,-110 391.5,-110 391.5,-129"/>
<text text-anchor="middle" x="347" y="-117" font-family="Helvetica,sans-Serif" font-size="10.00">axi_adc_core.h</text>
</a>
</g>
</g>
<!-- Node1&#45;&gt;Node11 -->
<g id="edge12_Node000001_Node000011" class="edge">
<title>Node1&#45;&gt;Node11</title>
<g id="a_edge12_Node000001_Node000011"><a xlink:title=" ">
<path fill="none" stroke="#63b8ff" d="M548.86,-165.06C501.95,-154.71 438.88,-140.78 395.8,-131.27"/>
<polygon fill="#63b8ff" stroke="#63b8ff" points="396.37,-127.81 385.85,-129.08 394.86,-134.65 396.37,-127.81"/>
</a>
</g>
</g>
<!-- Node14 -->
<g id="Node000014" class="node">
<title>Node14</title>
<g id="a_Node000014"><a xlink:href="axi__dmac_8h.html" target="_top" xlink:title="Driver for the Analog Devices AXI&#45;DMAC core.">
<polygon fill="white" stroke="#666666" points="482.5,-129 409.5,-129 409.5,-110 482.5,-110 482.5,-129"/>
<text text-anchor="middle" x="446" y="-117" font-family="Helvetica,sans-Serif" font-size="10.00">axi_dmac.h</text>
</a>
</g>
</g>
<!-- Node1&#45;&gt;Node14 -->
<g id="edge18_Node000001_Node000014" class="edge">
<title>Node1&#45;&gt;Node14</title>
<g id="a_edge18_Node000001_Node000014"><a xlink:title=" ">
<path fill="none" stroke="#63b8ff" d="M572.24,-164.99C544.17,-155.1 506.95,-141.98 480.21,-132.56"/>
<polygon fill="#63b8ff" stroke="#63b8ff" points="481.11,-129.16 470.51,-129.14 478.78,-135.76 481.11,-129.16"/>
</a>
</g>
</g>
<!-- Node15 -->
<g id="Node000015" class="node">
<title>Node15</title>
<g id="a_Node000015"><a xlink:href="axi__adxcvr_8h.html" target="_top" xlink:title="Driver for the ADI AXI&#45;ADXCVR Module.">
<polygon fill="white" stroke="#666666" points="1065,-129 987,-129 987,-110 1065,-110 1065,-129"/>
<text text-anchor="middle" x="1026" y="-117" font-family="Helvetica,sans-Serif" font-size="10.00">axi_adxcvr.h</text>
</a>
</g>
</g>
<!-- Node1&#45;&gt;Node15 -->
<g id="edge21_Node000001_Node000015" class="edge">
<title>Node1&#45;&gt;Node15</title>
<g id="a_edge21_Node000001_Node000015"><a xlink:title=" ">
<path fill="none" stroke="#63b8ff" d="M675.26,-171.13C746.17,-162.13 864.83,-146.56 976.86,-129.12"/>
<polygon fill="#63b8ff" stroke="#63b8ff" points="977.65,-132.54 986.99,-127.54 976.57,-125.63 977.65,-132.54"/>
</a>
</g>
</g>
<!-- Node17 -->
<g id="Node000017" class="node">
<title>Node17</title>
<g id="a_Node000017"><a xlink:href="axi__jesd204__rx_8h.html" target="_top" xlink:title="Driver for the Analog Devices AXI&#45;JESD204&#45;RX peripheral.">
<polygon fill="white" stroke="#666666" points="968.5,-129 869.5,-129 869.5,-110 968.5,-110 968.5,-129"/>
<text text-anchor="middle" x="919" y="-117" font-family="Helvetica,sans-Serif" font-size="10.00">axi_jesd204_rx.h</text>
</a>
</g>
</g>
<!-- Node1&#45;&gt;Node17 -->
<g id="edge27_Node000001_Node000017" class="edge">
<title>Node1&#45;&gt;Node17</title>
<g id="a_edge27_Node000001_Node000017"><a xlink:title=" ">
<path fill="none" stroke="#63b8ff" d="M675.24,-166.95C730.97,-156.33 811.34,-141.02 864.34,-130.92"/>
<polygon fill="#63b8ff" stroke="#63b8ff" points="865.06,-134.34 874.23,-129.03 863.75,-127.46 865.06,-134.34"/>
</a>
</g>
</g>
<!-- Node21 -->
<g id="Node000021" class="node">
<title>Node21</title>
<g id="a_Node000021"><a xlink:href="xilinx__spi_8h.html" target="_top" xlink:title=" ">
<polygon fill="white" stroke="#666666" points="813,-129 741,-129 741,-110 813,-110 813,-129"/>
<text text-anchor="middle" x="777" y="-117" font-family="Helvetica,sans-Serif" font-size="10.00">xilinx_spi.h</text>
</a>
</g>
</g>
<!-- Node1&#45;&gt;Node21 -->
<g id="edge36_Node000001_Node000021" class="edge">
<title>Node1&#45;&gt;Node21</title>
<g id="a_edge36_Node000001_Node000021"><a xlink:title=" ">
<path fill="none" stroke="#63b8ff" d="M651.52,-164.99C679.42,-155.1 716.41,-141.98 743,-132.56"/>
<polygon fill="#63b8ff" stroke="#63b8ff" points="744.38,-135.78 752.63,-129.14 742.04,-129.18 744.38,-135.78"/>
</a>
</g>
</g>
<!-- Node22 -->
<g id="Node000022" class="node">
<title>Node22</title>
<g id="a_Node000022"><a xlink:title=" ">
<polygon fill="#e0e0e0" stroke="#999999" points="1165,-129 1083,-129 1083,-110 1165,-110 1165,-129"/>
<text text-anchor="middle" x="1124" y="-117" font-family="Helvetica,sans-Serif" font-size="10.00">parameters.h</text>
</a>
</g>
</g>
<!-- Node1&#45;&gt;Node22 -->
<g id="edge39_Node000001_Node000022" class="edge">
<title>Node1&#45;&gt;Node22</title>
<g id="a_edge39_Node000001_Node000022"><a xlink:title=" ">
<path fill="none" stroke="#63b8ff" d="M675.29,-173.37C762.43,-165.36 924.48,-149.47 1072.64,-129.11"/>
<polygon fill="#63b8ff" stroke="#63b8ff" points="1073.4,-132.54 1082.83,-127.7 1072.44,-125.61 1073.4,-132.54"/>
</a>
</g>
</g>
<!-- Node23 -->
<g id="Node000023" class="node">
<title>Node23</title>
<g id="a_Node000023"><a xlink:href="no__os__error_8h.html" target="_top" xlink:title="Error codes definition.">
<polygon fill="white" stroke="#666666" points="1265,-129 1183,-129 1183,-110 1265,-110 1265,-129"/>
<text text-anchor="middle" x="1224" y="-117" font-family="Helvetica,sans-Serif" font-size="10.00">no_os_error.h</text>
</a>
</g>
</g>
<!-- Node1&#45;&gt;Node23 -->
<g id="edge40_Node000001_Node000023" class="edge">
<title>Node1&#45;&gt;Node23</title>
<g id="a_edge40_Node000001_Node000023"><a xlink:title=" ">
<path fill="none" stroke="#63b8ff" d="M675.39,-175.01C777.83,-168.21 986.3,-152.85 1172.85,-129.05"/>
<polygon fill="#63b8ff" stroke="#63b8ff" points="1173.37,-132.51 1182.84,-127.76 1172.47,-125.57 1173.37,-132.51"/>
</a>
</g>
</g>
<!-- Node25 -->
<g id="Node000025" class="node">
<title>Node25</title>
<g id="a_Node000025"><a xlink:href="no__os__delay_8h.html" target="_top" xlink:title="Header file of Delay functions.">
<polygon fill="white" stroke="#666666" points="723.5,-74 638.5,-74 638.5,-55 723.5,-55 723.5,-74"/>
<text text-anchor="middle" x="681" y="-62" font-family="Helvetica,sans-Serif" font-size="10.00">no_os_delay.h</text>
</a>
</g>
</g>
<!-- Node1&#45;&gt;Node25 -->
<g id="edge42_Node000001_Node000025" class="edge">
<title>Node1&#45;&gt;Node25</title>
<g id="a_edge42_Node000001_Node000025"><a xlink:title=" ">
<path fill="none" stroke="#63b8ff" d="M675.07,-172.54C730.1,-165.45 803.91,-151.9 822,-129 827.23,-122.37 826.99,-116.81 822,-110 811.21,-95.29 768.94,-83.19 733.47,-75.35"/>
<polygon fill="#63b8ff" stroke="#63b8ff" points="734.19,-71.92 723.67,-73.25 732.72,-78.77 734.19,-71.92"/>
</a>
</g>
</g>
<!-- Node7 -->
<g id="Node000007" class="node">
<title>Node7</title>
<g id="a_Node000007"><a xlink:href="no__os__spi_8h.html" target="_top" xlink:title="Header file of SPI Interface.">
<polygon fill="white" stroke="#666666" points="582,-74 508,-74 508,-55 582,-55 582,-74"/>
<text text-anchor="middle" x="545" y="-62" font-family="Helvetica,sans-Serif" font-size="10.00">no_os_spi.h</text>
</a>
</g>
</g>
<!-- Node6&#45;&gt;Node7 -->
<g id="edge6_Node000006_Node000007" class="edge">
<title>Node6&#45;&gt;Node7</title>
<g id="a_edge6_Node000006_Node000007"><a xlink:title=" ">
<path fill="none" stroke="#63b8ff" d="M534.15,-109.75C535.87,-102.72 538.35,-92.62 540.5,-83.84"/>
<polygon fill="#63b8ff" stroke="#63b8ff" points="543.91,-84.63 542.89,-74.09 537.11,-82.97 543.91,-84.63"/>
</a>
</g>
</g>
<!-- Node8 -->
<g id="Node000008" class="node">
<title>Node8</title>
<g id="a_Node000008"><a xlink:title=" ">
<polygon fill="#e0e0e0" stroke="#999999" points="707.5,-19 654.5,-19 654.5,0 707.5,0 707.5,-19"/>
<text text-anchor="middle" x="681" y="-7" font-family="Helvetica,sans-Serif" font-size="10.00">stdint.h</text>
</a>
</g>
</g>
<!-- Node7&#45;&gt;Node8 -->
<g id="edge7_Node000007_Node000008" class="edge">
<title>Node7&#45;&gt;Node8</title>
<g id="a_edge7_Node000007_Node000008"><a xlink:title=" ">
<path fill="none" stroke="#63b8ff" d="M566.85,-54.98C589.12,-46.3 623.9,-32.75 649.22,-22.88"/>
<polygon fill="#63b8ff" stroke="#63b8ff" points="650.71,-26.06 658.75,-19.17 648.16,-19.54 650.71,-26.06"/>
</a>
</g>
</g>
<!-- Node9&#45;&gt;Node7 -->
<g id="edge9_Node000009_Node000007" class="edge">
<title>Node9&#45;&gt;Node7</title>
<g id="a_edge9_Node000009_Node000007"><a xlink:title=" ">
<path fill="none" stroke="#63b8ff" d="M601.24,-109.98C591.23,-102.07 576.11,-90.11 564.07,-80.58"/>
<polygon fill="#63b8ff" stroke="#63b8ff" points="565.97,-77.63 555.96,-74.17 561.63,-83.12 565.97,-77.63"/>
</a>
</g>
</g>
<!-- Node10&#45;&gt;Node7 -->
<g id="edge11_Node000010_Node000007" class="edge">
<title>Node10&#45;&gt;Node7</title>
<g id="a_edge11_Node000010_Node000007"><a xlink:title=" ">
<path fill="none" stroke="#63b8ff" d="M668.38,-109.98C644.1,-101.23 606.05,-87.51 578.63,-77.62"/>
<polygon fill="#63b8ff" stroke="#63b8ff" points="579.64,-74.27 569.05,-74.17 577.27,-80.85 579.64,-74.27"/>
</a>
</g>
</g>
<!-- Node11&#45;&gt;Node8 -->
<g id="edge13_Node000011_Node000008" class="edge">
<title>Node11&#45;&gt;Node8</title>
<g id="a_edge13_Node000011_Node000008"><a xlink:title=" ">
<path fill="none" stroke="#63b8ff" d="M346.99,-109.97C347.47,-96.12 350.6,-68.9 367,-55 408.13,-20.13 570.13,-12.57 643.97,-10.94"/>
<polygon fill="#63b8ff" stroke="#63b8ff" points="644.27,-14.44 654.2,-10.74 644.14,-7.44 644.27,-14.44"/>
</a>
</g>
</g>
<!-- Node12 -->
<g id="Node000012" class="node">
<title>Node12</title>
<g id="a_Node000012"><a xlink:href="no__os__util_8h.html" target="_top" xlink:title="Header file of utility functions.">
<polygon fill="white" stroke="#666666" points="451.5,-74 376.5,-74 376.5,-55 451.5,-55 451.5,-74"/>
<text text-anchor="middle" x="414" y="-62" font-family="Helvetica,sans-Serif" font-size="10.00">no_os_util.h</text>
</a>
</g>
</g>
<!-- Node11&#45;&gt;Node12 -->
<g id="edge14_Node000011_Node000012" class="edge">
<title>Node11&#45;&gt;Node12</title>
<g id="a_edge14_Node000011_Node000012"><a xlink:title=" ">
<path fill="none" stroke="#63b8ff" d="M357.76,-109.98C367.77,-102.07 382.89,-90.11 394.93,-80.58"/>
<polygon fill="#63b8ff" stroke="#63b8ff" points="397.37,-83.12 403.04,-74.17 393.03,-77.63 397.37,-83.12"/>
</a>
</g>
</g>
<!-- Node12&#45;&gt;Node5 -->
<g id="edge16_Node000012_Node000005" class="edge">
<title>Node12&#45;&gt;Node5</title>
<g id="a_edge16_Node000012_Node000005"><a xlink:title=" ">
<path fill="none" stroke="#63b8ff" d="M402.75,-54.98C392.2,-47 376.2,-34.88 363.56,-25.31"/>
<polygon fill="#63b8ff" stroke="#63b8ff" points="365.54,-22.42 355.45,-19.17 361.31,-28 365.54,-22.42"/>
</a>
</g>
</g>
<!-- Node12&#45;&gt;Node8 -->
<g id="edge15_Node000012_Node000008" class="edge">
<title>Node12&#45;&gt;Node8</title>
<g id="a_edge15_Node000012_Node000008"><a xlink:title=" ">
<path fill="none" stroke="#63b8ff" d="M451.69,-56.02C502.93,-45.85 593.96,-27.78 644.55,-17.74"/>
<polygon fill="#63b8ff" stroke="#63b8ff" points="645.28,-21.16 654.4,-15.78 643.91,-14.29 645.28,-21.16"/>
</a>
</g>
</g>
<!-- Node13 -->
<g id="Node000013" class="node">
<title>Node13</title>
<g id="a_Node000013"><a xlink:title=" ">
<polygon fill="#e0e0e0" stroke="#999999" points="1041,-19 979,-19 979,0 1041,0 1041,-19"/>
<text text-anchor="middle" x="1010" y="-7" font-family="Helvetica,sans-Serif" font-size="10.00">stdbool.h</text>
</a>
</g>
</g>
<!-- Node12&#45;&gt;Node13 -->
<g id="edge17_Node000012_Node000013" class="edge">
<title>Node12&#45;&gt;Node13</title>
<g id="a_edge17_Node000012_Node000013"><a xlink:title=" ">
<path fill="none" stroke="#63b8ff" d="M451.64,-59.54C466.4,-58.04 483.49,-56.37 499,-55 704.86,-36.84 760.47,-48.51 968.6,-19.01"/>
<polygon fill="#63b8ff" stroke="#63b8ff" points="969.22,-22.46 978.63,-17.58 968.23,-15.53 969.22,-22.46"/>
</a>
</g>
</g>
<!-- Node14&#45;&gt;Node8 -->
<g id="edge19_Node000014_Node000008" class="edge">
<title>Node14&#45;&gt;Node8</title>
<g id="a_edge19_Node000014_Node000008"><a xlink:title=" ">
<path fill="none" stroke="#63b8ff" d="M450.9,-109.57C459.01,-95.67 476.58,-68.98 499,-55 543.91,-27 605.25,-16.61 643.99,-12.77"/>
<polygon fill="#63b8ff" stroke="#63b8ff" points="644.64,-16.22 654.29,-11.84 644.02,-9.25 644.64,-16.22"/>
</a>
</g>
</g>
<!-- Node14&#45;&gt;Node12 -->
<g id="edge20_Node000014_Node000012" class="edge">
<title>Node14&#45;&gt;Node12</title>
<g id="a_edge20_Node000014_Node000012"><a xlink:title=" ">
<path fill="none" stroke="#63b8ff" d="M440.72,-109.75C436.29,-102.42 429.84,-91.73 424.38,-82.7"/>
<polygon fill="#63b8ff" stroke="#63b8ff" points="427.35,-80.84 419.19,-74.09 421.36,-84.46 427.35,-80.84"/>
</a>
</g>
</g>
<!-- Node15&#45;&gt;Node8 -->
<g id="edge22_Node000015_Node000008" class="edge">
<title>Node15&#45;&gt;Node8</title>
<g id="a_edge22_Node000015_Node000008"><a xlink:title=" ">
<path fill="none" stroke="#63b8ff" d="M1000.96,-110C975.63,-101.3 935.4,-87.22 901,-74 880.35,-66.07 875.99,-61.98 855,-55 808.28,-39.46 752.99,-26.16 717.48,-18.25"/>
<polygon fill="#63b8ff" stroke="#63b8ff" points="718.09,-14.8 707.57,-16.07 716.58,-21.64 718.09,-14.8"/>
</a>
</g>
</g>
<!-- Node15&#45;&gt;Node13 -->
<g id="edge23_Node000015_Node000013" class="edge">
<title>Node15&#45;&gt;Node13</title>
<g id="a_edge23_Node000015_Node000013"><a xlink:title=" ">
<path fill="none" stroke="#63b8ff" d="M1064.21,-110C1097.06,-101.82 1140.71,-88.59 1151,-74 1155.87,-67.1 1155.99,-61.81 1151,-55 1128.41,-24.18 1084.4,-14.15 1051.53,-11.16"/>
<polygon fill="#63b8ff" stroke="#63b8ff" points="1051.52,-7.65 1041.29,-10.42 1051.01,-14.64 1051.52,-7.65"/>
</a>
</g>
</g>
<!-- Node16 -->
<g id="Node000016" class="node">
<title>Node16</title>
<g id="a_Node000016"><a xlink:href="xilinx__transceiver_8h.html" target="_top" xlink:title="Driver for the Xilinx High&#45;speed transceiver dynamic reconfiguration.">
<polygon fill="white" stroke="#666666" points="1142,-74 1030,-74 1030,-55 1142,-55 1142,-74"/>
<text text-anchor="middle" x="1086" y="-62" font-family="Helvetica,sans-Serif" font-size="10.00">xilinx_transceiver.h</text>
</a>
</g>
</g>
<!-- Node15&#45;&gt;Node16 -->
<g id="edge24_Node000015_Node000016" class="edge">
<title>Node15&#45;&gt;Node16</title>
<g id="a_edge24_Node000015_Node000016"><a xlink:title=" ">
<path fill="none" stroke="#63b8ff" d="M1035.64,-109.98C1044.51,-102.15 1057.87,-90.34 1068.61,-80.86"/>
<polygon fill="#63b8ff" stroke="#63b8ff" points="1071.01,-83.41 1076.18,-74.17 1066.37,-78.17 1071.01,-83.41"/>
</a>
</g>
</g>
<!-- Node16&#45;&gt;Node8 -->
<g id="edge25_Node000016_Node000008" class="edge">
<title>Node16&#45;&gt;Node8</title>
<g id="a_edge25_Node000016_Node000008"><a xlink:title=" ">
<path fill="none" stroke="#63b8ff" d="M1029.69,-56.13C945.54,-45.12 789.3,-24.67 718.09,-15.35"/>
<polygon fill="#63b8ff" stroke="#63b8ff" points="718.19,-11.84 707.82,-14.01 717.28,-18.78 718.19,-11.84"/>
</a>
</g>
</g>
<!-- Node16&#45;&gt;Node13 -->
<g id="edge26_Node000016_Node000013" class="edge">
<title>Node16&#45;&gt;Node13</title>
<g id="a_edge26_Node000016_Node000013"><a xlink:title=" ">
<path fill="none" stroke="#63b8ff" d="M1073.79,-54.98C1062.22,-46.92 1044.62,-34.65 1030.84,-25.03"/>
<polygon fill="#63b8ff" stroke="#63b8ff" points="1032.64,-22.02 1022.43,-19.17 1028.63,-27.76 1032.64,-22.02"/>
</a>
</g>
</g>
<!-- Node17&#45;&gt;Node8 -->
<g id="edge28_Node000017_Node000008" class="edge">
<title>Node17&#45;&gt;Node8</title>
<g id="a_edge28_Node000017_Node000008"><a xlink:title=" ">
<path fill="none" stroke="#63b8ff" d="M908.63,-109.97C891.94,-96.61 857.68,-70.66 825,-55 790.07,-38.26 747.38,-26 717.59,-18.63"/>
<polygon fill="#63b8ff" stroke="#63b8ff" points="718.16,-15.17 707.62,-16.23 716.53,-21.98 718.16,-15.17"/>
</a>
</g>
</g>
<!-- Node17&#45;&gt;Node13 -->
<g id="edge29_Node000017_Node000013" class="edge">
<title>Node17&#45;&gt;Node13</title>
<g id="a_edge29_Node000017_Node000013"><a xlink:title=" ">
<path fill="none" stroke="#63b8ff" d="M936.53,-109.88C950.69,-102.15 970.28,-89.65 983,-74 993.85,-60.65 1001.03,-42.3 1005.23,-28.75"/>
<polygon fill="#63b8ff" stroke="#63b8ff" points="1008.61,-29.69 1007.98,-19.11 1001.87,-27.77 1008.61,-29.69"/>
</a>
</g>
</g>
<!-- Node18 -->
<g id="Node000018" class="node">
<title>Node18</title>
<g id="a_Node000018"><a xlink:href="jesd204_8h.html" target="_top" xlink:title=" ">
<polygon fill="white" stroke="#666666" points="974,-74 910,-74 910,-55 974,-55 974,-74"/>
<text text-anchor="middle" x="942" y="-62" font-family="Helvetica,sans-Serif" font-size="10.00">jesd204.h</text>
</a>
</g>
</g>
<!-- Node17&#45;&gt;Node18 -->
<g id="edge30_Node000017_Node000018" class="edge">
<title>Node17&#45;&gt;Node18</title>
<g id="a_edge30_Node000017_Node000018"><a xlink:title=" ">
<path fill="none" stroke="#63b8ff" d="M922.8,-109.75C925.91,-102.57 930.42,-92.18 934.29,-83.27"/>
<polygon fill="#63b8ff" stroke="#63b8ff" points="937.5,-84.66 938.27,-74.09 931.08,-81.87 937.5,-84.66"/>
</a>
</g>
</g>
<!-- Node20 -->
<g id="Node000020" class="node">
<title>Node20</title>
<g id="a_Node000020"><a xlink:href="no__os__clk_8h.html" target="_top" xlink:title="Header file of Clock Driver.">
<polygon fill="white" stroke="#666666" points="816,-74 742,-74 742,-55 816,-55 816,-74"/>
<text text-anchor="middle" x="779" y="-62" font-family="Helvetica,sans-Serif" font-size="10.00">no_os_clk.h</text>
</a>
</g>
</g>
<!-- Node17&#45;&gt;Node20 -->
<g id="edge34_Node000017_Node000020" class="edge">
<title>Node17&#45;&gt;Node20</title>
<g id="a_edge34_Node000017_Node000020"><a xlink:title=" ">
<path fill="none" stroke="#63b8ff" d="M896.51,-109.98C873.48,-101.27 837.46,-87.63 811.37,-77.75"/>
<polygon fill="#63b8ff" stroke="#63b8ff" points="812.49,-74.44 801.9,-74.17 810.02,-80.98 812.49,-74.44"/>
</a>
</g>
</g>
<!-- Node18&#45;&gt;Node8 -->
<g id="edge33_Node000018_Node000008" class="edge">
<title>Node18&#45;&gt;Node8</title>
<g id="a_edge33_Node000018_Node000008"><a xlink:title=" ">
<path fill="none" stroke="#63b8ff" d="M910,-57C861.35,-47.12 769.04,-28.38 717.73,-17.96"/>
<polygon fill="#63b8ff" stroke="#63b8ff" points="718.23,-14.49 707.74,-15.93 716.84,-21.35 718.23,-14.49"/>
</a>
</g>
</g>
<!-- Node18&#45;&gt;Node13 -->
<g id="edge31_Node000018_Node000013" class="edge">
<title>Node18&#45;&gt;Node13</title>
<g id="a_edge31_Node000018_Node000013"><a xlink:title=" ">
<path fill="none" stroke="#63b8ff" d="M952.93,-54.98C963.08,-47.07 978.42,-35.11 990.65,-25.58"/>
<polygon fill="#63b8ff" stroke="#63b8ff" points="993.14,-28.08 998.88,-19.17 988.84,-22.56 993.14,-28.08"/>
</a>
</g>
</g>
<!-- Node19 -->
<g id="Node000019" class="node">
<title>Node19</title>
<g id="a_Node000019"><a xlink:title=" ">
<polygon fill="#e0e0e0" stroke="#999999" points="961,-19 905,-19 905,0 961,0 961,-19"/>
<text text-anchor="middle" x="933" y="-7" font-family="Helvetica,sans-Serif" font-size="10.00">stddef.h</text>
</a>
</g>
</g>
<!-- Node18&#45;&gt;Node19 -->
<g id="edge32_Node000018_Node000019" class="edge">
<title>Node18&#45;&gt;Node19</title>
<g id="a_edge32_Node000018_Node000019"><a xlink:title=" ">
<path fill="none" stroke="#63b8ff" d="M940.51,-54.75C939.33,-47.8 937.64,-37.85 936.16,-29.13"/>
<polygon fill="#63b8ff" stroke="#63b8ff" points="939.58,-28.36 934.46,-19.09 932.68,-29.53 939.58,-28.36"/>
</a>
</g>
</g>
<!-- Node20&#45;&gt;Node8 -->
<g id="edge35_Node000020_Node000008" class="edge">
<title>Node20&#45;&gt;Node8</title>
<g id="a_edge35_Node000020_Node000008"><a xlink:title=" ">
<path fill="none" stroke="#63b8ff" d="M763.25,-54.98C747.77,-46.61 723.91,-33.7 705.86,-23.95"/>
<polygon fill="#63b8ff" stroke="#63b8ff" points="707.49,-20.85 697.03,-19.17 704.16,-27.01 707.49,-20.85"/>
</a>
</g>
</g>
<!-- Node21&#45;&gt;Node7 -->
<g id="edge38_Node000021_Node000007" class="edge">
<title>Node21&#45;&gt;Node7</title>
<g id="a_edge38_Node000021_Node000007"><a xlink:title=" ">
<path fill="none" stroke="#63b8ff" d="M740.75,-110.22C700.67,-101.06 635.97,-86.28 592.02,-76.24"/>
<polygon fill="#63b8ff" stroke="#63b8ff" points="592.67,-72.8 582.15,-73.99 591.12,-79.63 592.67,-72.8"/>
</a>
</g>
</g>
<!-- Node21&#45;&gt;Node8 -->
<g id="edge37_Node000021_Node000008" class="edge">
<title>Node21&#45;&gt;Node8</title>
<g id="a_edge37_Node000021_Node000008"><a xlink:title=" ">
<path fill="none" stroke="#63b8ff" d="M740.78,-110C699.21,-99.87 635.82,-83.18 629,-74 615.95,-56.45 637.24,-37.12 656.39,-24.45"/>
<polygon fill="#63b8ff" stroke="#63b8ff" points="658.28,-27.4 664.9,-19.13 654.57,-21.46 658.28,-27.4"/>
</a>
</g>
</g>
<!-- Node24 -->
<g id="Node000024" class="node">
<title>Node24</title>
<g id="a_Node000024"><a xlink:href="errno_8h.html" target="_top" xlink:title="Error macro definition for ARM Compiler.">
<polygon fill="white" stroke="#666666" points="1249.5,-74 1198.5,-74 1198.5,-55 1249.5,-55 1249.5,-74"/>
<text text-anchor="middle" x="1224" y="-62" font-family="Helvetica,sans-Serif" font-size="10.00">errno.h</text>
</a>
</g>
</g>
<!-- Node23&#45;&gt;Node24 -->
<g id="edge41_Node000023_Node000024" class="edge">
<title>Node23&#45;&gt;Node24</title>
<g id="a_edge41_Node000023_Node000024"><a xlink:title=" ">
<path fill="none" stroke="#63b8ff" d="M1224,-109.75C1224,-102.8 1224,-92.85 1224,-84.13"/>
<polygon fill="#63b8ff" stroke="#63b8ff" points="1227.5,-84.09 1224,-74.09 1220.5,-84.09 1227.5,-84.09"/>
</a>
</g>
</g>
<!-- Node25&#45;&gt;Node8 -->
<g id="edge43_Node000025_Node000008" class="edge">
<title>Node25&#45;&gt;Node8</title>
<g id="a_edge43_Node000025_Node000008"><a xlink:title=" ">
<path fill="none" stroke="#63b8ff" d="M681,-54.75C681,-47.8 681,-37.85 681,-29.13"/>
<polygon fill="#63b8ff" stroke="#63b8ff" points="684.5,-29.09 681,-19.09 677.5,-29.09 684.5,-29.09"/>
</a>
</g>
</g>
</g>
</svg>
