<?xml version="1.0" encoding="UTF-8" standalone="no"?>
<!DOCTYPE svg PUBLIC "-//W3C//DTD SVG 1.1//EN"
 "http://www.w3.org/Graphics/SVG/1.1/DTD/svg11.dtd">
<!-- Generated by graphviz version 2.43.0 (0)
 -->
<!-- Title: drivers/dac/ad9739a/ad9739a.c Pages: 1 -->
<svg width="299pt" height="203pt"
 viewBox="0.00 0.00 298.50 203.00" xmlns="http://www.w3.org/2000/svg" xmlns:xlink="http://www.w3.org/1999/xlink">

<svg id="main" version="1.1" xmlns="http://www.w3.org/2000/svg" xmlns:xlink="http://www.w3.org/1999/xlink" xml:space="preserve">

<style type="text/css"><![CDATA[
.node, .edge {opacity: 0.7;}
.node.selected, .edge.selected {opacity: 1;}
.edge:hover path { stroke: red; }
.edge:hover polygon { stroke: red; fill: red; }
]]></style>
<script type="application/ecmascript" xlink:href="svg.min.js"/>
<svg id="graph" class="graph">
<g id="graph0" class="graph" transform="scale(1 1) rotate(0) translate(4 199)">
<title>drivers/dac/ad9739a/ad9739a.c</title>
<!-- Node1 -->
<g id="Node000001" class="node">
<title>Node1</title>
<g id="a_Node000001"><a xlink:title="Implementation of AD9739A Driver.">
<polygon fill="#999999" stroke="#666666" points="182.5,-195 66.5,-195 66.5,-165 182.5,-165 182.5,-195"/>
<text text-anchor="start" x="74.5" y="-183" font-family="Helvetica,sans-Serif" font-size="10.00">drivers/dac/ad9739a</text>
<text text-anchor="middle" x="124.5" y="-172" font-family="Helvetica,sans-Serif" font-size="10.00">/ad9739a.c</text>
</a>
</g>
</g>
<!-- Node2 -->
<g id="Node000002" class="node">
<title>Node2</title>
<g id="a_Node000002"><a xlink:title=" ">
<polygon fill="#e0e0e0" stroke="#999999" points="53,-74 0,-74 0,-55 53,-55 53,-74"/>
<text text-anchor="middle" x="26.5" y="-62" font-family="Helvetica,sans-Serif" font-size="10.00">stdlib.h</text>
</a>
</g>
</g>
<!-- Node1&#45;&gt;Node2 -->
<g id="edge1_Node000001_Node000002" class="edge">
<title>Node1&#45;&gt;Node2</title>
<g id="a_edge1_Node000001_Node000002"><a xlink:title=" ">
<path fill="none" stroke="#63b8ff" d="M85.41,-164.96C68.49,-156.95 49.97,-145.22 38.5,-129 29.29,-115.97 26.61,-97.83 26.05,-84.27"/>
<polygon fill="#63b8ff" stroke="#63b8ff" points="29.54,-84.15 25.97,-74.17 22.54,-84.2 29.54,-84.15"/>
</a>
</g>
</g>
<!-- Node3 -->
<g id="Node000003" class="node">
<title>Node3</title>
<g id="a_Node000003"><a xlink:title=" ">
<polygon fill="#e0e0e0" stroke="#999999" points="121.5,-74 71.5,-74 71.5,-55 121.5,-55 121.5,-74"/>
<text text-anchor="middle" x="96.5" y="-62" font-family="Helvetica,sans-Serif" font-size="10.00">stdio.h</text>
</a>
</g>
</g>
<!-- Node1&#45;&gt;Node3 -->
<g id="edge2_Node000001_Node000003" class="edge">
<title>Node1&#45;&gt;Node3</title>
<g id="a_edge2_Node000001_Node000003"><a xlink:title=" ">
<path fill="none" stroke="#63b8ff" d="M132.35,-164.84C139.15,-150.59 146.85,-128.18 139.5,-110 134.81,-98.41 125.5,-88.16 116.74,-80.43"/>
<polygon fill="#63b8ff" stroke="#63b8ff" points="118.94,-77.71 108.99,-74.07 114.5,-83.12 118.94,-77.71"/>
</a>
</g>
</g>
<!-- Node4 -->
<g id="Node000004" class="node">
<title>Node4</title>
<g id="a_Node000004"><a xlink:href="ad9739a_8h.html" target="_top" xlink:title="Header file of AD9739A Driver.">
<polygon fill="white" stroke="#666666" points="255.5,-129 187.5,-129 187.5,-110 255.5,-110 255.5,-129"/>
<text text-anchor="middle" x="221.5" y="-117" font-family="Helvetica,sans-Serif" font-size="10.00">ad9739a.h</text>
</a>
</g>
</g>
<!-- Node1&#45;&gt;Node4 -->
<g id="edge3_Node000001_Node000004" class="edge">
<title>Node1&#45;&gt;Node4</title>
<g id="a_edge3_Node000001_Node000004"><a xlink:title=" ">
<path fill="none" stroke="#63b8ff" d="M147.98,-164.84C163.3,-155.6 183.21,-143.59 198.45,-134.4"/>
<polygon fill="#63b8ff" stroke="#63b8ff" points="200.49,-137.26 207.25,-129.09 196.88,-131.26 200.49,-137.26"/>
</a>
</g>
</g>
<!-- Node7 -->
<g id="Node000007" class="node">
<title>Node7</title>
<g id="a_Node000007"><a xlink:href="no__os__alloc_8h.html" target="_top" xlink:title=" ">
<polygon fill="white" stroke="#666666" points="131,-129 48,-129 48,-110 131,-110 131,-129"/>
<text text-anchor="middle" x="89.5" y="-117" font-family="Helvetica,sans-Serif" font-size="10.00">no_os_alloc.h</text>
</a>
</g>
</g>
<!-- Node1&#45;&gt;Node7 -->
<g id="edge7_Node000001_Node000007" class="edge">
<title>Node1&#45;&gt;Node7</title>
<g id="a_edge7_Node000001_Node000007"><a xlink:title=" ">
<path fill="none" stroke="#63b8ff" d="M116.03,-164.84C111.21,-156.78 105.13,-146.62 100,-138.06"/>
<polygon fill="#63b8ff" stroke="#63b8ff" points="102.88,-136.05 94.74,-129.27 96.88,-139.64 102.88,-136.05"/>
</a>
</g>
</g>
<!-- Node5 -->
<g id="Node000005" class="node">
<title>Node5</title>
<g id="a_Node000005"><a xlink:title=" ">
<polygon fill="#e0e0e0" stroke="#999999" points="247,-19 194,-19 194,0 247,0 247,-19"/>
<text text-anchor="middle" x="220.5" y="-7" font-family="Helvetica,sans-Serif" font-size="10.00">stdint.h</text>
</a>
</g>
</g>
<!-- Node4&#45;&gt;Node5 -->
<g id="edge4_Node000004_Node000005" class="edge">
<title>Node4&#45;&gt;Node5</title>
<g id="a_edge4_Node000004_Node000005"><a xlink:title=" ">
<path fill="none" stroke="#63b8ff" d="M217.9,-109.82C214.44,-100.99 209.47,-86.81 207.5,-74 205.15,-58.69 209.09,-41.48 213.23,-28.84"/>
<polygon fill="#63b8ff" stroke="#63b8ff" points="216.65,-29.67 216.77,-19.08 210.07,-27.29 216.65,-29.67"/>
</a>
</g>
</g>
<!-- Node6 -->
<g id="Node000006" class="node">
<title>Node6</title>
<g id="a_Node000006"><a xlink:href="no__os__spi_8h.html" target="_top" xlink:title="Header file of SPI Interface.">
<polygon fill="white" stroke="#666666" points="290.5,-74 216.5,-74 216.5,-55 290.5,-55 290.5,-74"/>
<text text-anchor="middle" x="253.5" y="-62" font-family="Helvetica,sans-Serif" font-size="10.00">no_os_spi.h</text>
</a>
</g>
</g>
<!-- Node4&#45;&gt;Node6 -->
<g id="edge5_Node000004_Node000006" class="edge">
<title>Node4&#45;&gt;Node6</title>
<g id="a_edge5_Node000004_Node000006"><a xlink:title=" ">
<path fill="none" stroke="#63b8ff" d="M226.78,-109.75C231.21,-102.42 237.66,-91.73 243.12,-82.7"/>
<polygon fill="#63b8ff" stroke="#63b8ff" points="246.14,-84.46 248.31,-74.09 240.15,-80.84 246.14,-84.46"/>
</a>
</g>
</g>
<!-- Node6&#45;&gt;Node5 -->
<g id="edge6_Node000006_Node000005" class="edge">
<title>Node6&#45;&gt;Node5</title>
<g id="a_edge6_Node000006_Node000005"><a xlink:title=" ">
<path fill="none" stroke="#63b8ff" d="M248.05,-54.75C243.49,-47.42 236.83,-36.73 231.21,-27.7"/>
<polygon fill="#63b8ff" stroke="#63b8ff" points="234.1,-25.73 225.85,-19.09 228.16,-29.43 234.1,-25.73"/>
</a>
</g>
</g>
<!-- Node7&#45;&gt;Node2 -->
<g id="edge9_Node000007_Node000002" class="edge">
<title>Node7&#45;&gt;Node2</title>
<g id="a_edge9_Node000007_Node000002"><a xlink:title=" ">
<path fill="none" stroke="#63b8ff" d="M79.38,-109.98C70.06,-102.15 56.03,-90.34 44.76,-80.86"/>
<polygon fill="#63b8ff" stroke="#63b8ff" points="46.71,-77.93 36.81,-74.17 42.21,-83.29 46.71,-77.93"/>
</a>
</g>
</g>
<!-- Node7&#45;&gt;Node3 -->
<g id="edge8_Node000007_Node000003" class="edge">
<title>Node7&#45;&gt;Node3</title>
<g id="a_edge8_Node000007_Node000003"><a xlink:title=" ">
<path fill="none" stroke="#63b8ff" d="M90.66,-109.75C91.57,-102.8 92.89,-92.85 94.04,-84.13"/>
<polygon fill="#63b8ff" stroke="#63b8ff" points="97.53,-84.46 95.37,-74.09 90.59,-83.54 97.53,-84.46"/>
</a>
</g>
</g>
</g>
</svg>
</svg>

<style type='text/css'>
<![CDATA[
[data-mouse-over-selected='false'] { opacity: 0.7; }
[data-mouse-over-selected='true']  { opacity: 1.0; }
]]>
</style>
<script type="application/ecmascript"><![CDATA[
document.addEventListener('DOMContentLoaded', (event) => {
  highlightEdges();
  highlightAdjacentNodes();
});
]]></script>
</svg>
