<?xml version="1.0" encoding="UTF-8" standalone="no"?>
<!DOCTYPE svg PUBLIC "-//W3C//DTD SVG 1.1//EN"
 "http://www.w3.org/Graphics/SVG/1.1/DTD/svg11.dtd">
<!-- Generated by graphviz version 2.43.0 (0)
 -->
<!-- Title: drivers/amplifiers/ada4250/ada4250.h Pages: 1 -->
<!--zoomable 181 -->

<svg id="main" version="1.1" xmlns="http://www.w3.org/2000/svg" xmlns:xlink="http://www.w3.org/1999/xlink" xml:space="preserve" onload="init(evt)">

<style type="text/css"><![CDATA[
.node, .edge {opacity: 0.7;}
.node.selected, .edge.selected {opacity: 1;}
.edge:hover path { stroke: red; }
.edge:hover polygon { stroke: red; fill: red; }
]]></style>

<defs>
  <circle id="rim" cx="0" cy="0" r="7"/>
  <circle id="rim2" cx="0" cy="0" r="3.5"/>
  <g id="zoomPlus">
    <use xlink:href="#rim" fill="#404040"><set attributeName="fill" to="#808080" begin="zoomplus.mouseover" end="zoomplus.mouseout"/></use>
    <path d="M-4,0h8M0,-4v8" fill="none" stroke="white" stroke-width="1.5" pointer-events="none"/>
  </g>
  <g id="zoomMin">
    <use xlink:href="#rim" fill="#404040"><set attributeName="fill" to="#808080" begin="zoomminus.mouseover" end="zoomminus.mouseout"/></use>
    <path d="M-4,0h8" fill="none" stroke="white" stroke-width="1.5" pointer-events="none"/>
  </g>
  <g id="arrowUp" transform="translate(30 24)">
    <use xlink:href="#rim"/>
    <path pointer-events="none" fill="none" stroke="white" stroke-width="1.5" d="M0,-3.0v7 M-2.5,-0.5L0,-3.0L2.5,-0.5"/>
  </g>
  <g id="arrowRight" transform="rotate(90) translate(36 -43)">
    <use xlink:href="#rim"/>
    <path pointer-events="none" fill="none" stroke="white" stroke-width="1.5" d="M0,-3.0v7 M-2.5,-0.5L0,-3.0L2.5,-0.5"/>
  </g>
  <g id="arrowDown" transform="rotate(180) translate(-30 -48)">
    <use xlink:href="#rim"/>
    <path pointer-events="none" fill="none" stroke="white" stroke-width="1.5" d="M0,-3.0v7 M-2.5,-0.5L0,-3.0L2.5,-0.5"/>
  </g>
  <g id="arrowLeft" transform="rotate(270) translate(-36 17)">
    <use xlink:href="#rim"/>
    <path pointer-events="none" fill="none" stroke="white" stroke-width="1.5" d="M0,-3.0v7 M-2.5,-0.5L0,-3.0L2.5,-0.5"/>
  </g>
  <g id="resetDef">
    <use xlink:href="#rim2" fill="#404040"><set attributeName="fill" to="#808080" begin="reset.mouseover" end="reset.mouseout"/></use>
  </g>
</defs>
<script type="application/ecmascript">
var viewWidth = 620;
var viewHeight = 181;
var sectionId = 'dynsection-1';
</script>
<script type="application/ecmascript" xlink:href="svg.min.js"/>
<svg id="graph" class="graph">
<g id="viewport">
<title>drivers/amplifiers/ada4250/ada4250.h</title>
<!-- Node1 -->
<g id="Node000001" class="node">
<title>Node1</title>
<g id="a_Node000001"><a xlink:title="Header file for ada4250 Driver.">
<polygon fill="#999999" stroke="#666666" points="339.5,-173 223.5,-173 223.5,-143 339.5,-143 339.5,-173"/>
<text text-anchor="start" x="231.5" y="-161" font-family="Helvetica,sans-Serif" font-size="10.00">drivers/amplifiers</text>
<text text-anchor="middle" x="281.5" y="-150" font-family="Helvetica,sans-Serif" font-size="10.00">/ada4250/ada4250.h</text>
</a>
</g>
</g>
<!-- Node2 -->
<g id="Node000002" class="node">
<title>Node2</title>
<g id="a_Node000002"><a xlink:href="ada4250_8c.html" target="_top" xlink:title="Implementation of ADA4250 Driver.">
<polygon fill="white" stroke="#666666" points="115,-101.5 0,-101.5 0,-71.5 115,-71.5 115,-101.5"/>
<text text-anchor="start" x="8" y="-89.5" font-family="Helvetica,sans-Serif" font-size="10.00">drivers/amplifiers</text>
<text text-anchor="middle" x="57.5" y="-78.5" font-family="Helvetica,sans-Serif" font-size="10.00">/ada4250/ada4250.c</text>
</a>
</g>
</g>
<!-- Node1&#45;&gt;Node2 -->
<g id="edge1_Node000001_Node000002" class="edge">
<title>Node1&#45;&gt;Node2</title>
<g id="a_edge1_Node000001_Node000002"><a xlink:title=" ">
<path fill="none" stroke="#63b8ff" d="M226.28,-139.87C188.28,-128.08 138.42,-112.61 102.76,-101.54"/>
<polygon fill="#63b8ff" stroke="#63b8ff" points="225.58,-143.32 236.17,-142.94 227.66,-136.63 225.58,-143.32"/>
</a>
</g>
</g>
<!-- Node3 -->
<g id="Node000003" class="node">
<title>Node3</title>
<g id="a_Node000003"><a xlink:href="iio__ada4250_8c.html" target="_top" xlink:title="Implementation of ada4250 IIO Driver.">
<polygon fill="white" stroke="#666666" points="265.5,-101.5 133.5,-101.5 133.5,-71.5 265.5,-71.5 265.5,-101.5"/>
<text text-anchor="start" x="141.5" y="-89.5" font-family="Helvetica,sans-Serif" font-size="10.00">drivers/amplifiers</text>
<text text-anchor="middle" x="199.5" y="-78.5" font-family="Helvetica,sans-Serif" font-size="10.00">/ada4250/iio_ada4250.c</text>
</a>
</g>
</g>
<!-- Node1&#45;&gt;Node3 -->
<g id="edge2_Node000001_Node000003" class="edge">
<title>Node1&#45;&gt;Node3</title>
<g id="a_edge2_Node000001_Node000003"><a xlink:title=" ">
<path fill="none" stroke="#63b8ff" d="M257.09,-136.31C243.85,-125.09 227.84,-111.52 216.07,-101.54"/>
<polygon fill="#63b8ff" stroke="#63b8ff" points="255.01,-139.14 264.91,-142.94 259.54,-133.8 255.01,-139.14"/>
</a>
</g>
</g>
<!-- Node4 -->
<g id="Node000004" class="node">
<title>Node4</title>
<g id="a_Node000004"><a xlink:href="ada4250__ardz_2src_2common_2common__data_8h.html" target="_top" xlink:title="Defines common data to be used by ada4250_ardz examples.">
<polygon fill="white" stroke="#666666" points="445,-101.5 284,-101.5 284,-71.5 445,-71.5 445,-101.5"/>
<text text-anchor="start" x="292" y="-89.5" font-family="Helvetica,sans-Serif" font-size="10.00">projects/ada4250_ardz</text>
<text text-anchor="middle" x="364.5" y="-78.5" font-family="Helvetica,sans-Serif" font-size="10.00">/src/common/common_data.h</text>
</a>
</g>
</g>
<!-- Node1&#45;&gt;Node4 -->
<g id="edge3_Node000001_Node000004" class="edge">
<title>Node1&#45;&gt;Node4</title>
<g id="a_edge3_Node000001_Node000004"><a xlink:title=" ">
<path fill="none" stroke="#63b8ff" d="M306.21,-136.31C319.61,-125.09 335.81,-111.52 347.73,-101.54"/>
<polygon fill="#63b8ff" stroke="#63b8ff" points="303.72,-133.83 298.3,-142.94 308.21,-139.2 303.72,-133.83"/>
</a>
</g>
</g>
<!-- Node6 -->
<g id="Node000006" class="node">
<title>Node6</title>
<g id="a_Node000006"><a xlink:href="ada4250__ardz_2src_2examples_2iio__example_2iio__example_8c.html" target="_top" xlink:title="Implementation of IIO example for ada4250_ardz project.">
<polygon fill="white" stroke="#666666" points="611.5,-107 463.5,-107 463.5,-66 611.5,-66 611.5,-107"/>
<text text-anchor="start" x="471.5" y="-95" font-family="Helvetica,sans-Serif" font-size="10.00">projects/ada4250_ardz</text>
<text text-anchor="start" x="471.5" y="-84" font-family="Helvetica,sans-Serif" font-size="10.00">/src/examples/iio_example</text>
<text text-anchor="middle" x="537.5" y="-73" font-family="Helvetica,sans-Serif" font-size="10.00">/iio_example.c</text>
</a>
</g>
</g>
<!-- Node1&#45;&gt;Node6 -->
<g id="edge5_Node000001_Node000006" class="edge">
<title>Node1&#45;&gt;Node6</title>
<g id="a_edge5_Node000001_Node000006"><a xlink:title=" ">
<path fill="none" stroke="#63b8ff" d="M343.4,-140.2C380.17,-130.21 426.97,-117.51 465.4,-107.07"/>
<polygon fill="#63b8ff" stroke="#63b8ff" points="342.04,-136.94 333.31,-142.94 343.87,-143.69 342.04,-136.94"/>
</a>
</g>
</g>
<!-- Node5 -->
<g id="Node000005" class="node">
<title>Node5</title>
<g id="a_Node000005"><a xlink:href="ada4250__ardz_2src_2common_2common__data_8c.html" target="_top" xlink:title="Defines common data to be used by ada4250_ardz examples.">
<polygon fill="white" stroke="#666666" points="445,-30 284,-30 284,0 445,0 445,-30"/>
<text text-anchor="start" x="292" y="-18" font-family="Helvetica,sans-Serif" font-size="10.00">projects/ada4250_ardz</text>
<text text-anchor="middle" x="364.5" y="-7" font-family="Helvetica,sans-Serif" font-size="10.00">/src/common/common_data.c</text>
</a>
</g>
</g>
<!-- Node4&#45;&gt;Node5 -->
<g id="edge4_Node000004_Node000005" class="edge">
<title>Node4&#45;&gt;Node5</title>
<g id="a_edge4_Node000004_Node000005"><a xlink:title=" ">
<path fill="none" stroke="#63b8ff" d="M364.5,-61.25C364.5,-50.81 364.5,-38.99 364.5,-30.04"/>
<polygon fill="#63b8ff" stroke="#63b8ff" points="361,-61.44 364.5,-71.44 368,-61.44 361,-61.44"/>
</a>
</g>
</g>
</g>
</svg>

<g id="navigator" transform="translate(0 0)" fill="#404254">
  <rect fill="#f2f5e9" fill-opacity="0.5" stroke="#606060" stroke-width=".5" x="0" y="0" width="60" height="60"/>
  <use id="zoomplus" xlink:href="#zoomPlus" x="17" y="9" onmousedown="handleZoom(evt,'in')"/>
  <use id="zoomminus" xlink:href="#zoomMin" x="42" y="9" onmousedown="handleZoom(evt,'out')"/>
  <use id="reset" xlink:href="#resetDef" x="30" y="36" onmousedown="handleReset()"/>
   <use id="arrowup" xlink:href="#arrowUp" x="0" y="0" onmousedown="handlePan(0,-1)"/>
  <use id="arrowright" xlink:href="#arrowRight" x="0" y="0" onmousedown="handlePan(1,0)"/>
  <use id="arrowdown" xlink:href="#arrowDown" x="0" y="0" onmousedown="handlePan(0,1)"/>
  <use id="arrowleft" xlink:href="#arrowLeft" x="0" y="0" onmousedown="handlePan(-1,0)"/>
</g>
<svg viewBox="0 0 15 15" width="100%" height="30px" preserveAspectRatio="xMaxYMin meet">
 <g id="arrow_out" transform="scale(0.3 0.3)">
  <a xlink:href="ada4250_8h__dep__incl_org.svg" target="_base">
   <rect id="button" ry="5" rx="5" y="6" x="6" height="38" width="38"
        fill="#f2f5e9" fill-opacity="0.5" stroke="#606060" stroke-width="1.0"/>
   <path id="arrow"
     d="M 11.500037,31.436501 C 11.940474,20.09759 22.043105,11.32322 32.158766,21.979434 L 37.068811,17.246167 C 37.068811,17.246167 37.088388,32 37.088388,32 L 22.160133,31.978069 C 22.160133,31.978069 26.997745,27.140456 26.997745,27.140456 C 18.528582,18.264221 13.291696,25.230495 11.500037,31.436501 z"
     style="fill:#404040;"/>
  </a>
 </g>
</svg>

<style type='text/css'>
<![CDATA[
[data-mouse-over-selected='false'] { opacity: 0.7; }
[data-mouse-over-selected='true']  { opacity: 1.0; }
]]>
</style>
<script type="application/ecmascript"><![CDATA[
document.addEventListener('DOMContentLoaded', (event) => {
  highlightEdges();
  highlightAdjacentNodes();
});
]]></script>
</svg>
