<?xml version="1.0" encoding="UTF-8" standalone="no"?>
<!DOCTYPE svg PUBLIC "-//W3C//DTD SVG 1.1//EN"
 "http://www.w3.org/Graphics/SVG/1.1/DTD/svg11.dtd">
<!-- Generated by graphviz version 2.43.0 (0)
 -->
<!-- Title: ade7816_group_sel Pages: 1 -->
<svg width="435pt" height="138pt"
 viewBox="0.00 0.00 435.00 138.00" xmlns="http://www.w3.org/2000/svg" xmlns:xlink="http://www.w3.org/1999/xlink">

<svg id="main" version="1.1" xmlns="http://www.w3.org/2000/svg" xmlns:xlink="http://www.w3.org/1999/xlink" xml:space="preserve">

<style type="text/css"><![CDATA[
.node, .edge {opacity: 0.7;}
.node.selected, .edge.selected {opacity: 1;}
.edge:hover path { stroke: red; }
.edge:hover polygon { stroke: red; fill: red; }
]]></style>
<script type="application/ecmascript" xlink:href="svg.min.js"/>
<svg id="graph" class="graph">
<g id="graph0" class="graph" transform="scale(1 1) rotate(0) translate(4 134)">
<title>ade7816_group_sel</title>
<!-- Node1 -->
<g id="Node000001" class="node">
<title>Node1</title>
<g id="a_Node000001"><a xlink:title="ADE7816 group selection for channels function.">
<polygon fill="#999999" stroke="#666666" points="427,-74 316,-74 316,-55 427,-55 427,-74"/>
<text text-anchor="middle" x="371.5" y="-62" font-family="Helvetica,sans-Serif" font-size="10.00">ade7816_group_sel</text>
</a>
</g>
</g>
<!-- Node2 -->
<g id="Node000002" class="node">
<title>Node2</title>
<g id="a_Node000002"><a xlink:href="ade7816_8c.html#a155b363ec63a49979fbeec7af7506a32" target="_top" xlink:title="ADE7816 angle measurement function.">
<polygon fill="white" stroke="#666666" points="279.5,-130 156.5,-130 156.5,-111 279.5,-111 279.5,-130"/>
<text text-anchor="middle" x="218" y="-118" font-family="Helvetica,sans-Serif" font-size="10.00">ade7816_angle_meas</text>
</a>
</g>
</g>
<!-- Node1&#45;&gt;Node2 -->
<g id="edge1_Node000001_Node000002" class="edge">
<title>Node1&#45;&gt;Node2</title>
<g id="a_edge1_Node000001_Node000002"><a xlink:title=" ">
<path fill="none" stroke="#63b8ff" d="M339.93,-78.33C322.55,-85.94 300.26,-95.28 280,-102.5 271.57,-105.5 262.37,-108.41 253.73,-110.97"/>
<polygon fill="#63b8ff" stroke="#63b8ff" points="341.82,-81.32 349.55,-74.08 338.99,-74.92 341.82,-81.32"/>
</a>
</g>
</g>
<!-- Node3 -->
<g id="Node000003" class="node">
<title>Node3</title>
<g id="a_Node000003"><a xlink:href="ade7816_8c.html#a31d570dab92fb7344f2f020fb5e33433" target="_top" xlink:title="ADE7816 set peak detection for channel function.">
<polygon fill="white" stroke="#666666" points="280,-93 156,-93 156,-74 280,-74 280,-93"/>
<text text-anchor="middle" x="218" y="-81" font-family="Helvetica,sans-Serif" font-size="10.00">ade7816_peak_detect</text>
</a>
</g>
</g>
<!-- Node1&#45;&gt;Node3 -->
<g id="edge2_Node000001_Node000003" class="edge">
<title>Node1&#45;&gt;Node3</title>
<g id="a_edge2_Node000001_Node000003"><a xlink:title=" ">
<path fill="none" stroke="#63b8ff" d="M305.86,-72.61C297.3,-73.68 288.54,-74.78 280.03,-75.85"/>
<polygon fill="#63b8ff" stroke="#63b8ff" points="306.32,-76.08 315.81,-71.36 305.45,-69.13 306.32,-76.08"/>
</a>
</g>
</g>
<!-- Node4 -->
<g id="Node000004" class="node">
<title>Node4</title>
<g id="a_Node000004"><a xlink:href="ade7816_8c.html#a00fcd83d9557c2dac98209efcad63c64" target="_top" xlink:title="ADE7816 set power direction for channel function.">
<polygon fill="white" stroke="#666666" points="274,-56 162,-56 162,-37 274,-37 274,-56"/>
<text text-anchor="middle" x="218" y="-44" font-family="Helvetica,sans-Serif" font-size="10.00">ade7816_power_dir</text>
</a>
</g>
</g>
<!-- Node1&#45;&gt;Node4 -->
<g id="edge3_Node000001_Node000004" class="edge">
<title>Node1&#45;&gt;Node4</title>
<g id="a_edge3_Node000001_Node000004"><a xlink:title=" ">
<path fill="none" stroke="#63b8ff" d="M305.81,-56.81C295.26,-55.56 284.42,-54.27 274.12,-53.05"/>
<polygon fill="#63b8ff" stroke="#63b8ff" points="305.46,-60.3 315.81,-58 306.29,-53.35 305.46,-60.3"/>
</a>
</g>
</g>
<!-- Node5 -->
<g id="Node000005" class="node">
<title>Node5</title>
<g id="a_Node000005"><a xlink:href="ade7816_8c.html#a7615dc95ad728c4735ecf2a45b5c5ca3" target="_top" xlink:title="ADE7816 zero&#45;crossing detection for channel function.">
<polygon fill="white" stroke="#666666" points="273.5,-19 162.5,-19 162.5,0 273.5,0 273.5,-19"/>
<text text-anchor="middle" x="218" y="-7" font-family="Helvetica,sans-Serif" font-size="10.00">ade7816_zx_detect</text>
</a>
</g>
</g>
<!-- Node1&#45;&gt;Node5 -->
<g id="edge4_Node000001_Node000005" class="edge">
<title>Node1&#45;&gt;Node5</title>
<g id="a_edge4_Node000001_Node000005"><a xlink:title=" ">
<path fill="none" stroke="#63b8ff" d="M338.43,-51.05C321.22,-44.01 299.59,-35.43 280,-28.5 270.69,-25.21 260.49,-21.9 251.13,-19"/>
<polygon fill="#63b8ff" stroke="#63b8ff" points="337.42,-54.42 347.99,-54.99 340.08,-47.94 337.42,-54.42"/>
</a>
</g>
</g>
<!-- Node6 -->
<g id="Node000006" class="node">
<title>Node6</title>
<g id="a_Node000006"><a xlink:href="ade7816_2src_2examples_2basic_2basic__example_8c.html#a72943dc9011d36293cb05ca5d7cb6899" target="_top" xlink:title="Basic example main execution.">
<polygon fill="white" stroke="#666666" points="120,-19 0,-19 0,0 120,0 120,-19"/>
<text text-anchor="middle" x="60" y="-7" font-family="Helvetica,sans-Serif" font-size="10.00">basic_example_main</text>
</a>
</g>
</g>
<!-- Node5&#45;&gt;Node6 -->
<g id="edge5_Node000005_Node000006" class="edge">
<title>Node5&#45;&gt;Node6</title>
<g id="a_edge5_Node000005_Node000006"><a xlink:title=" ">
<path fill="none" stroke="#63b8ff" d="M152.32,-9.5C141.63,-9.5 130.59,-9.5 120.05,-9.5"/>
<polygon fill="#63b8ff" stroke="#63b8ff" points="152.44,-13 162.44,-9.5 152.44,-6 152.44,-13"/>
</a>
</g>
</g>
</g>
</svg>
</svg>

<style type='text/css'>
<![CDATA[
[data-mouse-over-selected='false'] { opacity: 0.7; }
[data-mouse-over-selected='true']  { opacity: 1.0; }
]]>
</style>
<script type="application/ecmascript"><![CDATA[
document.addEventListener('DOMContentLoaded', (event) => {
  highlightEdges();
  highlightAdjacentNodes();
});
]]></script>
</svg>
