<?xml version="1.0" encoding="UTF-8" standalone="no"?>
<!DOCTYPE svg PUBLIC "-//W3C//DTD SVG 1.1//EN"
 "http://www.w3.org/Graphics/SVG/1.1/DTD/svg11.dtd">
<!-- Generated by graphviz version 2.43.0 (0)
 -->
<!-- Title: ade7758_update_bits Pages: 1 -->
<!--zoomable 298 -->

<svg id="main" version="1.1" xmlns="http://www.w3.org/2000/svg" xmlns:xlink="http://www.w3.org/1999/xlink" xml:space="preserve" onload="init(evt)">

<style type="text/css"><![CDATA[
.node, .edge {opacity: 0.7;}
.node.selected, .edge.selected {opacity: 1;}
.edge:hover path { stroke: red; }
.edge:hover polygon { stroke: red; fill: red; }
]]></style>

<defs>
  <circle id="rim" cx="0" cy="0" r="7"/>
  <circle id="rim2" cx="0" cy="0" r="3.5"/>
  <g id="zoomPlus">
    <use xlink:href="#rim" fill="#404040"><set attributeName="fill" to="#808080" begin="zoomplus.mouseover" end="zoomplus.mouseout"/></use>
    <path d="M-4,0h8M0,-4v8" fill="none" stroke="white" stroke-width="1.5" pointer-events="none"/>
  </g>
  <g id="zoomMin">
    <use xlink:href="#rim" fill="#404040"><set attributeName="fill" to="#808080" begin="zoomminus.mouseover" end="zoomminus.mouseout"/></use>
    <path d="M-4,0h8" fill="none" stroke="white" stroke-width="1.5" pointer-events="none"/>
  </g>
  <g id="arrowUp" transform="translate(30 24)">
    <use xlink:href="#rim"/>
    <path pointer-events="none" fill="none" stroke="white" stroke-width="1.5" d="M0,-3.0v7 M-2.5,-0.5L0,-3.0L2.5,-0.5"/>
  </g>
  <g id="arrowRight" transform="rotate(90) translate(36 -43)">
    <use xlink:href="#rim"/>
    <path pointer-events="none" fill="none" stroke="white" stroke-width="1.5" d="M0,-3.0v7 M-2.5,-0.5L0,-3.0L2.5,-0.5"/>
  </g>
  <g id="arrowDown" transform="rotate(180) translate(-30 -48)">
    <use xlink:href="#rim"/>
    <path pointer-events="none" fill="none" stroke="white" stroke-width="1.5" d="M0,-3.0v7 M-2.5,-0.5L0,-3.0L2.5,-0.5"/>
  </g>
  <g id="arrowLeft" transform="rotate(270) translate(-36 17)">
    <use xlink:href="#rim"/>
    <path pointer-events="none" fill="none" stroke="white" stroke-width="1.5" d="M0,-3.0v7 M-2.5,-0.5L0,-3.0L2.5,-0.5"/>
  </g>
  <g id="resetDef">
    <use xlink:href="#rim2" fill="#404040"><set attributeName="fill" to="#808080" begin="reset.mouseover" end="reset.mouseout"/></use>
  </g>
</defs>
<script type="application/ecmascript">
var viewWidth = 523;
var viewHeight = 298;
var sectionId = 'dynsection-18';
</script>
<script type="application/ecmascript" xlink:href="svg.min.js"/>
<svg id="graph" class="graph">
<g id="viewport">
<title>ade7758_update_bits</title>
<!-- Node1 -->
<g id="Node000001" class="node">
<title>Node1</title>
<g id="a_Node000001"><a xlink:title="Update specific register bits.">
<polygon fill="#999999" stroke="#666666" points="515,-160 394,-160 394,-141 515,-141 515,-160"/>
<text text-anchor="middle" x="454.5" y="-148" font-family="Helvetica,sans-Serif" font-size="10.00">ade7758_update_bits</text>
</a>
</g>
</g>
<!-- Node2 -->
<g id="Node000002" class="node">
<title>Node2</title>
<g id="a_Node000002"><a xlink:href="ade7758_8c.html#a85ea4d235a62d1d2c1f4198746ef00b8" target="_top" xlink:title="Operation mode of the ADCs.">
<polygon fill="white" stroke="#666666" points="340.5,-290 221.5,-290 221.5,-271 340.5,-271 340.5,-290"/>
<text text-anchor="middle" x="281" y="-278" font-family="Helvetica,sans-Serif" font-size="10.00">ade7758_adcs_mode</text>
</a>
</g>
</g>
<!-- Node1&#45;&gt;Node2 -->
<g id="edge1_Node000001_Node000002" class="edge">
<title>Node1&#45;&gt;Node2</title>
<g id="a_edge1_Node000001_Node000002"><a xlink:title=" ">
<path fill="none" stroke="#63b8ff" d="M442.97,-168.99C427.63,-194.18 396.69,-238.85 358,-262.5 352.45,-265.89 346.3,-268.65 339.99,-270.88"/>
<polygon fill="#63b8ff" stroke="#63b8ff" points="446.16,-170.47 448.24,-160.08 440.14,-166.9 446.16,-170.47"/>
</a>
</g>
</g>
<!-- Node5 -->
<g id="Node000005" class="node">
<title>Node5</title>
<g id="a_Node000005"><a xlink:href="ade7758_8c.html#ae42bfdaa8620b923435a3ac51b0ae0ea" target="_top" xlink:title="Select the input to the energy accumulation registers.">
<polygon fill="white" stroke="#666666" points="328.5,-253 233.5,-253 233.5,-234 328.5,-234 328.5,-253"/>
<text text-anchor="middle" x="281" y="-241" font-family="Helvetica,sans-Serif" font-size="10.00">ade7758_consel</text>
</a>
</g>
</g>
<!-- Node1&#45;&gt;Node5 -->
<g id="edge4_Node000001_Node000005" class="edge">
<title>Node1&#45;&gt;Node5</title>
<g id="a_edge4_Node000001_Node000005"><a xlink:title=" ">
<path fill="none" stroke="#63b8ff" d="M436.83,-167.36C418.9,-184.52 388.8,-210.66 358,-225.5 348.84,-229.92 338.52,-233.29 328.51,-235.85"/>
<polygon fill="#63b8ff" stroke="#63b8ff" points="439.47,-169.67 444.17,-160.18 434.57,-164.67 439.47,-169.67"/>
</a>
</g>
</g>
<!-- Node6 -->
<g id="Node000006" class="node">
<title>Node6</title>
<g id="a_Node000006"><a xlink:href="ade7758_8c.html#af563e84e29d4f693ed1c74396787db67" target="_top" xlink:title="Enable/Disable interrupt.">
<polygon fill="white" stroke="#666666" points="338.5,-216 223.5,-216 223.5,-197 338.5,-197 338.5,-216"/>
<text text-anchor="middle" x="281" y="-204" font-family="Helvetica,sans-Serif" font-size="10.00">ade7758_enable_irq</text>
</a>
</g>
</g>
<!-- Node1&#45;&gt;Node6 -->
<g id="edge5_Node000001_Node000006" class="edge">
<title>Node1&#45;&gt;Node6</title>
<g id="a_edge5_Node000001_Node000006"><a xlink:title=" ">
<path fill="none" stroke="#63b8ff" d="M422.81,-164.04C404.29,-171.88 380.07,-181.54 358,-188.5 348.17,-191.6 337.48,-194.45 327.31,-196.92"/>
<polygon fill="#63b8ff" stroke="#63b8ff" points="424.39,-167.17 432.21,-160.01 421.64,-160.74 424.39,-167.17"/>
</a>
</g>
</g>
<!-- Node7 -->
<g id="Node000007" class="node">
<title>Node7</title>
<g id="a_Node000007"><a xlink:href="ade7758_8c.html#a25768e9b2e97a4bdd6b858a1c1645dfc" target="_top" xlink:title="Select the source of the measurement of the voltage line frequency.">
<polygon fill="white" stroke="#666666" points="341.5,-179 220.5,-179 220.5,-160 341.5,-160 341.5,-179"/>
<text text-anchor="middle" x="281" y="-167" font-family="Helvetica,sans-Serif" font-size="10.00">ade7758_freq_source</text>
</a>
</g>
</g>
<!-- Node1&#45;&gt;Node7 -->
<g id="edge7_Node000001_Node000007" class="edge">
<title>Node1&#45;&gt;Node7</title>
<g id="a_edge7_Node000001_Node000007"><a xlink:title=" ">
<path fill="none" stroke="#63b8ff" d="M383.93,-158.21C369.92,-159.76 355.32,-161.38 341.69,-162.89"/>
<polygon fill="#63b8ff" stroke="#63b8ff" points="384.45,-161.67 394,-157.09 383.67,-154.71 384.45,-161.67"/>
</a>
</g>
</g>
<!-- Node8 -->
<g id="Node000008" class="node">
<title>Node8</title>
<g id="a_Node000008"><a xlink:href="ade7758_8c.html#a7abd5adabc220a2509032906244a57ef" target="_top" xlink:title="Reset the device using SW reset.">
<polygon fill="white" stroke="#666666" points="334.5,-19 227.5,-19 227.5,0 334.5,0 334.5,-19"/>
<text text-anchor="middle" x="281" y="-7" font-family="Helvetica,sans-Serif" font-size="10.00">ade7758_sw_reset</text>
</a>
</g>
</g>
<!-- Node1&#45;&gt;Node8 -->
<g id="edge9_Node000001_Node000008" class="edge">
<title>Node1&#45;&gt;Node8</title>
<g id="a_edge9_Node000001_Node000008"><a xlink:title=" ">
<path fill="none" stroke="#63b8ff" d="M444.26,-131.74C429.79,-104.38 399.11,-53.94 358,-27.5 350.93,-22.95 342.83,-19.55 334.6,-17.01"/>
<polygon fill="#63b8ff" stroke="#63b8ff" points="441.17,-133.38 448.85,-140.68 447.4,-130.19 441.17,-133.38"/>
</a>
</g>
</g>
<!-- Node10 -->
<g id="Node000010" class="node">
<title>Node10</title>
<g id="a_Node000010"><a xlink:href="ade7758_8c.html#a6256795cf572104190077c90bd04e58e" target="_top" xlink:title="Select the phase of sampled data for wave register.">
<polygon fill="white" stroke="#666666" points="353,-142 209,-142 209,-123 353,-123 353,-142"/>
<text text-anchor="middle" x="281" y="-130" font-family="Helvetica,sans-Serif" font-size="10.00">ade7758_wave_phase_sel</text>
</a>
</g>
</g>
<!-- Node1&#45;&gt;Node10 -->
<g id="edge12_Node000001_Node000010" class="edge">
<title>Node1&#45;&gt;Node10</title>
<g id="a_edge12_Node000001_Node000010"><a xlink:title=" ">
<path fill="none" stroke="#63b8ff" d="M383.98,-143.2C373.84,-142.14 363.38,-141.04 353.2,-139.97"/>
<polygon fill="#63b8ff" stroke="#63b8ff" points="383.69,-146.69 394,-144.25 384.42,-139.73 383.69,-146.69"/>
</a>
</g>
</g>
<!-- Node11 -->
<g id="Node000011" class="node">
<title>Node11</title>
<g id="a_Node000011"><a xlink:href="ade7758_8c.html#ac77450d3d9e7dd6ed665944487e24ecc" target="_top" xlink:title="Select source of sampled data for wave register.">
<polygon fill="white" stroke="#666666" points="346.5,-104.5 215.5,-104.5 215.5,-74.5 346.5,-74.5 346.5,-104.5"/>
<text text-anchor="start" x="223.5" y="-92.5" font-family="Helvetica,sans-Serif" font-size="10.00">ade7758_wave_sample</text>
<text text-anchor="middle" x="281" y="-81.5" font-family="Helvetica,sans-Serif" font-size="10.00">_data_source</text>
</a>
</g>
</g>
<!-- Node1&#45;&gt;Node11 -->
<g id="edge14_Node000001_Node000011" class="edge">
<title>Node1&#45;&gt;Node11</title>
<g id="a_edge14_Node000001_Node000011"><a xlink:title=" ">
<path fill="none" stroke="#63b8ff" d="M419.3,-137.21C401.16,-130.25 378.44,-121.71 358,-114.5 348.57,-111.17 338.43,-107.74 328.73,-104.52"/>
<polygon fill="#63b8ff" stroke="#63b8ff" points="418.28,-140.56 428.87,-140.89 420.8,-134.03 418.28,-140.56"/>
</a>
</g>
</g>
<!-- Node12 -->
<g id="Node000012" class="node">
<title>Node12</title>
<g id="a_Node000012"><a xlink:href="ade7758_8c.html#aae0adecdd5d9ca76c6f6aa88aa82a9a8" target="_top" xlink:title="Select waveform register update rate.">
<polygon fill="white" stroke="#666666" points="358,-56 204,-56 204,-37 358,-37 358,-56"/>
<text text-anchor="middle" x="281" y="-44" font-family="Helvetica,sans-Serif" font-size="10.00">ade7758_wave_update_rate</text>
</a>
</g>
</g>
<!-- Node1&#45;&gt;Node12 -->
<g id="edge16_Node000001_Node000012" class="edge">
<title>Node1&#45;&gt;Node12</title>
<g id="a_edge16_Node000001_Node000012"><a xlink:title=" ">
<path fill="none" stroke="#63b8ff" d="M438.86,-133.19C421.52,-113.81 390.82,-82.84 358,-65.5 350.66,-61.62 342.51,-58.52 334.34,-56.03"/>
<polygon fill="#63b8ff" stroke="#63b8ff" points="436.43,-135.73 445.64,-140.95 441.7,-131.12 436.43,-135.73"/>
</a>
</g>
</g>
<!-- Node3 -->
<g id="Node000003" class="node">
<title>Node3</title>
<g id="a_Node000003"><a xlink:href="ade7758_8c.html#ad643b16ba67d694a04b326f1df0a3820" target="_top" xlink:title="Setup the ADE7758 device.">
<polygon fill="white" stroke="#666666" points="168,-142 77,-142 77,-123 168,-123 168,-142"/>
<text text-anchor="middle" x="122.5" y="-130" font-family="Helvetica,sans-Serif" font-size="10.00">ade7758_setup</text>
</a>
</g>
</g>
<!-- Node2&#45;&gt;Node3 -->
<g id="edge2_Node000002_Node000003" class="edge">
<title>Node2&#45;&gt;Node3</title>
<g id="a_edge2_Node000002_Node000003"><a xlink:title=" ">
<path fill="none" stroke="#63b8ff" d="M212.11,-267.49C209.28,-266 206.56,-264.34 204,-262.5 159.85,-230.68 134.79,-166.46 126.56,-142.13"/>
<polygon fill="#63b8ff" stroke="#63b8ff" points="210.92,-270.79 221.47,-271.7 213.79,-264.41 210.92,-270.79"/>
</a>
</g>
</g>
<!-- Node4 -->
<g id="Node000004" class="node">
<title>Node4</title>
<g id="a_Node000004"><a xlink:href="eval-ade7758_2src_2main_8c.html#a840291bc02cba5474a4cb46a9b9566fe" target="_top" xlink:title=" ">
<polygon fill="white" stroke="#666666" points="41,-80 0,-80 0,-61 41,-61 41,-80"/>
<text text-anchor="middle" x="20.5" y="-68" font-family="Helvetica,sans-Serif" font-size="10.00">main</text>
</a>
</g>
</g>
<!-- Node3&#45;&gt;Node4 -->
<g id="edge3_Node000003_Node000004" class="edge">
<title>Node3&#45;&gt;Node4</title>
<g id="a_edge3_Node000003_Node000004"><a xlink:title=" ">
<path fill="none" stroke="#63b8ff" d="M97.27,-117.48C78.52,-105.86 53.12,-90.1 37.02,-80.12"/>
<polygon fill="#63b8ff" stroke="#63b8ff" points="95.53,-120.52 105.88,-122.81 99.22,-114.57 95.53,-120.52"/>
</a>
</g>
</g>
<!-- Node6&#45;&gt;Node3 -->
<g id="edge6_Node000006_Node000003" class="edge">
<title>Node6&#45;&gt;Node3</title>
<g id="a_edge6_Node000006_Node000003"><a xlink:title=" ">
<path fill="none" stroke="#63b8ff" d="M218.43,-194.04C213.47,-192.39 208.6,-190.56 204,-188.5 176.8,-176.35 149.17,-154.64 134.41,-142.12"/>
<polygon fill="#63b8ff" stroke="#63b8ff" points="217.45,-197.4 228.03,-196.95 219.48,-190.7 217.45,-197.4"/>
</a>
</g>
</g>
<!-- Node7&#45;&gt;Node3 -->
<g id="edge8_Node000007_Node000003" class="edge">
<title>Node7&#45;&gt;Node3</title>
<g id="a_edge8_Node000007_Node000003"><a xlink:title=" ">
<path fill="none" stroke="#63b8ff" d="M229.85,-157.64C208.55,-152.61 184.05,-146.82 163.94,-142.06"/>
<polygon fill="#63b8ff" stroke="#63b8ff" points="229.16,-161.08 239.7,-159.97 230.77,-154.26 229.16,-161.08"/>
</a>
</g>
</g>
<!-- Node9 -->
<g id="Node000009" class="node">
<title>Node9</title>
<g id="a_Node000009"><a xlink:href="ade7758_8c.html#a422e1a9832e2a6c7451aa9857d446c90" target="_top" xlink:title="Initialize the device.">
<polygon fill="white" stroke="#666666" points="162.5,-62 82.5,-62 82.5,-43 162.5,-43 162.5,-62"/>
<text text-anchor="middle" x="122.5" y="-50" font-family="Helvetica,sans-Serif" font-size="10.00">ade7758_init</text>
</a>
</g>
</g>
<!-- Node8&#45;&gt;Node9 -->
<g id="edge10_Node000008_Node000009" class="edge">
<title>Node8&#45;&gt;Node9</title>
<g id="a_edge10_Node000008_Node000009"><a xlink:title=" ">
<path fill="none" stroke="#63b8ff" d="M227.41,-21.46C219.54,-23.39 211.54,-25.44 204,-27.5 186.78,-32.21 167.69,-38.11 152.42,-42.99"/>
<polygon fill="#63b8ff" stroke="#63b8ff" points="228.36,-24.83 237.26,-19.08 226.72,-18.03 228.36,-24.83"/>
</a>
</g>
</g>
<!-- Node9&#45;&gt;Node4 -->
<g id="edge11_Node000009_Node000004" class="edge">
<title>Node9&#45;&gt;Node4</title>
<g id="a_edge11_Node000009_Node000004"><a xlink:title=" ">
<path fill="none" stroke="#63b8ff" d="M72.2,-61.37C61.16,-63.36 50.08,-65.36 41.1,-66.97"/>
<polygon fill="#63b8ff" stroke="#63b8ff" points="73.04,-64.78 82.26,-59.56 71.8,-57.89 73.04,-64.78"/>
</a>
</g>
</g>
<!-- Node10&#45;&gt;Node3 -->
<g id="edge13_Node000010_Node000003" class="edge">
<title>Node10&#45;&gt;Node3</title>
<g id="a_edge13_Node000010_Node000003"><a xlink:title=" ">
<path fill="none" stroke="#63b8ff" d="M198.31,-132.5C188.01,-132.5 177.78,-132.5 168.35,-132.5"/>
<polygon fill="#63b8ff" stroke="#63b8ff" points="198.62,-136 208.62,-132.5 198.62,-129 198.62,-136"/>
</a>
</g>
</g>
<!-- Node11&#45;&gt;Node3 -->
<g id="edge15_Node000011_Node000003" class="edge">
<title>Node11&#45;&gt;Node3</title>
<g id="a_edge15_Node000011_Node000003"><a xlink:title=" ">
<path fill="none" stroke="#63b8ff" d="M215.48,-107.23C195.94,-112.6 175.21,-118.29 158.39,-122.91"/>
<polygon fill="#63b8ff" stroke="#63b8ff" points="216.55,-110.56 225.26,-104.54 214.69,-103.81 216.55,-110.56"/>
</a>
</g>
</g>
<!-- Node12&#45;&gt;Node3 -->
<g id="edge17_Node000012_Node000003" class="edge">
<title>Node12&#45;&gt;Node3</title>
<g id="a_edge17_Node000012_Node000003"><a xlink:title=" ">
<path fill="none" stroke="#63b8ff" d="M218.71,-59.22C213.63,-61.06 208.66,-63.14 204,-65.5 174.49,-80.47 146.25,-108.02 132.39,-122.7"/>
<polygon fill="#63b8ff" stroke="#63b8ff" points="220.15,-62.44 228.57,-56 217.98,-55.78 220.15,-62.44"/>
</a>
</g>
</g>
</g>
</svg>

<g id="navigator" transform="translate(0 0)" fill="#404254">
  <rect fill="#f2f5e9" fill-opacity="0.5" stroke="#606060" stroke-width=".5" x="0" y="0" width="60" height="60"/>
  <use id="zoomplus" xlink:href="#zoomPlus" x="17" y="9" onmousedown="handleZoom(evt,'in')"/>
  <use id="zoomminus" xlink:href="#zoomMin" x="42" y="9" onmousedown="handleZoom(evt,'out')"/>
  <use id="reset" xlink:href="#resetDef" x="30" y="36" onmousedown="handleReset()"/>
   <use id="arrowup" xlink:href="#arrowUp" x="0" y="0" onmousedown="handlePan(0,-1)"/>
  <use id="arrowright" xlink:href="#arrowRight" x="0" y="0" onmousedown="handlePan(1,0)"/>
  <use id="arrowdown" xlink:href="#arrowDown" x="0" y="0" onmousedown="handlePan(0,1)"/>
  <use id="arrowleft" xlink:href="#arrowLeft" x="0" y="0" onmousedown="handlePan(-1,0)"/>
</g>
<svg viewBox="0 0 15 15" width="100%" height="30px" preserveAspectRatio="xMaxYMin meet">
 <g id="arrow_out" transform="scale(0.3 0.3)">
  <a xlink:href="ade7758_8h_ab90b3e3f7e4b70be3ad6442da4b91c6b_icgraph_org.svg" target="_base">
   <rect id="button" ry="5" rx="5" y="6" x="6" height="38" width="38"
        fill="#f2f5e9" fill-opacity="0.5" stroke="#606060" stroke-width="1.0"/>
   <path id="arrow"
     d="M 11.500037,31.436501 C 11.940474,20.09759 22.043105,11.32322 32.158766,21.979434 L 37.068811,17.246167 C 37.068811,17.246167 37.088388,32 37.088388,32 L 22.160133,31.978069 C 22.160133,31.978069 26.997745,27.140456 26.997745,27.140456 C 18.528582,18.264221 13.291696,25.230495 11.500037,31.436501 z"
     style="fill:#404040;"/>
  </a>
 </g>
</svg>

<style type='text/css'>
<![CDATA[
[data-mouse-over-selected='false'] { opacity: 0.7; }
[data-mouse-over-selected='true']  { opacity: 1.0; }
]]>
</style>
<script type="application/ecmascript"><![CDATA[
document.addEventListener('DOMContentLoaded', (event) => {
  highlightEdges();
  highlightAdjacentNodes();
});
]]></script>
</svg>
