<?xml version="1.0" encoding="UTF-8" standalone="no"?>
<!DOCTYPE svg PUBLIC "-//W3C//DTD SVG 1.1//EN"
 "http://www.w3.org/Graphics/SVG/1.1/DTD/svg11.dtd">
<!-- Generated by graphviz version 2.43.0 (0)
 -->
<!-- Title: ade7913_read Pages: 1 -->
<!--zoomable 335 -->

<svg id="main" version="1.1" xmlns="http://www.w3.org/2000/svg" xmlns:xlink="http://www.w3.org/1999/xlink" xml:space="preserve" onload="init(evt)">

<style type="text/css"><![CDATA[
.node, .edge {opacity: 0.7;}
.node.selected, .edge.selected {opacity: 1;}
.edge:hover path { stroke: red; }
.edge:hover polygon { stroke: red; fill: red; }
]]></style>

<defs>
  <circle id="rim" cx="0" cy="0" r="7"/>
  <circle id="rim2" cx="0" cy="0" r="3.5"/>
  <g id="zoomPlus">
    <use xlink:href="#rim" fill="#404040"><set attributeName="fill" to="#808080" begin="zoomplus.mouseover" end="zoomplus.mouseout"/></use>
    <path d="M-4,0h8M0,-4v8" fill="none" stroke="white" stroke-width="1.5" pointer-events="none"/>
  </g>
  <g id="zoomMin">
    <use xlink:href="#rim" fill="#404040"><set attributeName="fill" to="#808080" begin="zoomminus.mouseover" end="zoomminus.mouseout"/></use>
    <path d="M-4,0h8" fill="none" stroke="white" stroke-width="1.5" pointer-events="none"/>
  </g>
  <g id="arrowUp" transform="translate(30 24)">
    <use xlink:href="#rim"/>
    <path pointer-events="none" fill="none" stroke="white" stroke-width="1.5" d="M0,-3.0v7 M-2.5,-0.5L0,-3.0L2.5,-0.5"/>
  </g>
  <g id="arrowRight" transform="rotate(90) translate(36 -43)">
    <use xlink:href="#rim"/>
    <path pointer-events="none" fill="none" stroke="white" stroke-width="1.5" d="M0,-3.0v7 M-2.5,-0.5L0,-3.0L2.5,-0.5"/>
  </g>
  <g id="arrowDown" transform="rotate(180) translate(-30 -48)">
    <use xlink:href="#rim"/>
    <path pointer-events="none" fill="none" stroke="white" stroke-width="1.5" d="M0,-3.0v7 M-2.5,-0.5L0,-3.0L2.5,-0.5"/>
  </g>
  <g id="arrowLeft" transform="rotate(270) translate(-36 17)">
    <use xlink:href="#rim"/>
    <path pointer-events="none" fill="none" stroke="white" stroke-width="1.5" d="M0,-3.0v7 M-2.5,-0.5L0,-3.0L2.5,-0.5"/>
  </g>
  <g id="resetDef">
    <use xlink:href="#rim2" fill="#404040"><set attributeName="fill" to="#808080" begin="reset.mouseover" end="reset.mouseout"/></use>
  </g>
</defs>
<script type="application/ecmascript">
var viewWidth = 538;
var viewHeight = 335;
var sectionId = 'dynsection-3';
</script>
<script type="application/ecmascript" xlink:href="svg.min.js"/>
<svg id="graph" class="graph">
<g id="viewport">
<title>ade7913_read</title>
<!-- Node1 -->
<g id="Node000001" class="node">
<title>Node1</title>
<g id="a_Node000001"><a xlink:title="Read device register.">
<polygon fill="#999999" stroke="#666666" points="530,-177.59 444,-177.59 444,-158.59 530,-158.59 530,-177.59"/>
<text text-anchor="middle" x="487" y="-165.59" font-family="Helvetica,sans-Serif" font-size="10.00">ade7913_read</text>
</a>
</g>
</g>
<!-- Node2 -->
<g id="Node000002" class="node">
<title>Node2</title>
<g id="a_Node000002"><a xlink:href="ade7913_8c.html#affe2c710bf923154606b4bbb9bd2a1d7" target="_top" xlink:title="ADC not accesed during one period status.">
<polygon fill="white" stroke="#666666" points="400.5,-326.59 266.5,-326.59 266.5,-307.59 400.5,-307.59 400.5,-326.59"/>
<text text-anchor="middle" x="333.5" y="-314.59" font-family="Helvetica,sans-Serif" font-size="10.00">ade7913_adc_na_status</text>
</a>
</g>
</g>
<!-- Node1&#45;&gt;Node2 -->
<g id="edge1_Node000001_Node000002" class="edge">
<title>Node1&#45;&gt;Node2</title>
<g id="a_edge1_Node000001_Node000002"><a xlink:title=" ">
<path fill="none" stroke="#63b8ff" d="M479.89,-187.52C469.76,-216.45 446.68,-270.47 408,-299.09 403.35,-302.53 398.13,-305.31 392.67,-307.57"/>
<polygon fill="#63b8ff" stroke="#63b8ff" points="483.29,-188.37 483.14,-177.77 476.65,-186.15 483.29,-188.37"/>
</a>
</g>
</g>
<!-- Node3 -->
<g id="Node000003" class="node">
<title>Node3</title>
<g id="a_Node000003"><a xlink:href="ade7913_8c.html#a08a8a3b22adb4b752256ab439ba467ef" target="_top" xlink:title="Cnt snapshot.">
<polygon fill="white" stroke="#666666" points="408,-289.59 259,-289.59 259,-270.59 408,-270.59 408,-289.59"/>
<text text-anchor="middle" x="333.5" y="-277.59" font-family="Helvetica,sans-Serif" font-size="10.00">ade7913_cnt_snapshot_val</text>
</a>
</g>
</g>
<!-- Node1&#45;&gt;Node3 -->
<g id="edge2_Node000001_Node000003" class="edge">
<title>Node1&#45;&gt;Node3</title>
<g id="a_edge2_Node000001_Node000003"><a xlink:title=" ">
<path fill="none" stroke="#63b8ff" d="M475.65,-186.65C462.67,-208.16 438.4,-243.07 408,-262.09 402.54,-265.5 396.48,-268.27 390.25,-270.51"/>
<polygon fill="#63b8ff" stroke="#63b8ff" points="478.78,-188.22 480.8,-177.82 472.74,-184.7 478.78,-188.22"/>
</a>
</g>
</g>
<!-- Node4 -->
<g id="Node000004" class="node">
<title>Node4</title>
<g id="a_Node000004"><a xlink:href="ade7913_8c.html#aca4f2bfa1643d0ca56959b4b920789b0" target="_top" xlink:title="CRC of config registers status.">
<polygon fill="white" stroke="#666666" points="390,-252.59 277,-252.59 277,-233.59 390,-233.59 390,-252.59"/>
<text text-anchor="middle" x="333.5" y="-240.59" font-family="Helvetica,sans-Serif" font-size="10.00">ade7913_crc_status</text>
</a>
</g>
</g>
<!-- Node1&#45;&gt;Node4 -->
<g id="edge3_Node000001_Node000004" class="edge">
<title>Node1&#45;&gt;Node4</title>
<g id="a_edge3_Node000001_Node000004"><a xlink:title=" ">
<path fill="none" stroke="#63b8ff" d="M467.81,-184.6C452.79,-197.41 430.37,-214.68 408,-225.09 400.73,-228.47 392.76,-231.26 384.82,-233.55"/>
<polygon fill="#63b8ff" stroke="#63b8ff" points="470.53,-186.88 475.75,-177.66 465.92,-181.61 470.53,-186.88"/>
</a>
</g>
</g>
<!-- Node5 -->
<g id="Node000005" class="node">
<title>Node5</title>
<g id="a_Node000005"><a xlink:href="ade7913_8c.html#a6c5a9b9d244eb8d592f694cc3ebc865f" target="_top" xlink:title="Get synchronization counter value.">
<polygon fill="white" stroke="#666666" points="407.5,-215.59 259.5,-215.59 259.5,-196.59 407.5,-196.59 407.5,-215.59"/>
<text text-anchor="middle" x="333.5" y="-203.59" font-family="Helvetica,sans-Serif" font-size="10.00">ade7913_get_sync_cnt_val</text>
</a>
</g>
</g>
<!-- Node1&#45;&gt;Node5 -->
<g id="edge4_Node000001_Node000005" class="edge">
<title>Node1&#45;&gt;Node5</title>
<g id="a_edge4_Node000001_Node000005"><a xlink:title=" ">
<path fill="none" stroke="#63b8ff" d="M438,-180.13C416.83,-185.44 392.31,-191.59 372.45,-196.57"/>
<polygon fill="#63b8ff" stroke="#63b8ff" points="438.92,-183.51 447.77,-177.68 437.22,-176.72 438.92,-183.51"/>
</a>
</g>
</g>
<!-- Node6 -->
<g id="Node000006" class="node">
<title>Node6</title>
<g id="a_Node000006"><a xlink:href="ade7913_8c.html#a1755d14d44a5427775abffdb159ce0cc" target="_top" xlink:title="Get version product value.">
<polygon fill="white" stroke="#666666" points="394,-140.09 273,-140.09 273,-110.09 394,-110.09 394,-140.09"/>
<text text-anchor="start" x="281" y="-128.09" font-family="Helvetica,sans-Serif" font-size="10.00">ade7913_get_version</text>
<text text-anchor="middle" x="333.5" y="-117.09" font-family="Helvetica,sans-Serif" font-size="10.00">_product</text>
</a>
</g>
</g>
<!-- Node1&#45;&gt;Node6 -->
<g id="edge5_Node000001_Node000006" class="edge">
<title>Node1&#45;&gt;Node6</title>
<g id="a_edge5_Node000001_Node000006"><a xlink:title=" ">
<path fill="none" stroke="#63b8ff" d="M442.59,-155.77C425.38,-150.88 405.42,-145.22 387.37,-140.1"/>
<polygon fill="#63b8ff" stroke="#63b8ff" points="441.8,-159.18 452.38,-158.55 443.71,-152.45 441.8,-159.18"/>
</a>
</g>
</g>
<!-- Node7 -->
<g id="Node000007" class="node">
<title>Node7</title>
<g id="a_Node000007"><a xlink:href="ade7913_8c.html#a58e08cbf7c0230e4c2d8b203effce384" target="_top" xlink:title="Initialize the device.">
<polygon fill="white" stroke="#666666" points="190,-134.59 110,-134.59 110,-115.59 190,-115.59 190,-134.59"/>
<text text-anchor="middle" x="150" y="-122.59" font-family="Helvetica,sans-Serif" font-size="10.00">ade7913_init</text>
</a>
</g>
</g>
<!-- Node1&#45;&gt;Node7 -->
<g id="edge10_Node000001_Node000007" class="edge">
<title>Node1&#45;&gt;Node7</title>
<g id="a_edge10_Node000001_Node000007"><a xlink:title=" ">
<path fill="none" stroke="#63b8ff" d="M433.9,-165.73C387.74,-163.17 318.61,-158.16 259,-149.09 235.26,-145.48 208.96,-139.67 188.25,-134.67"/>
<polygon fill="#63b8ff" stroke="#63b8ff" points="433.79,-169.23 443.96,-166.27 434.17,-162.24 433.79,-169.23"/>
</a>
</g>
</g>
<!-- Node9 -->
<g id="Node000009" class="node">
<title>Node9</title>
<g id="a_Node000009"><a xlink:href="ade7913_8c.html#a6a672f051e655d14cd926576faf98f99" target="_top" xlink:title="Reset the device using SW reset.">
<polygon fill="white" stroke="#666666" points="203.5,-94.59 96.5,-94.59 96.5,-75.59 203.5,-75.59 203.5,-94.59"/>
<text text-anchor="middle" x="150" y="-82.59" font-family="Helvetica,sans-Serif" font-size="10.00">ade7913_sw_reset</text>
</a>
</g>
</g>
<!-- Node1&#45;&gt;Node9 -->
<g id="edge13_Node000001_Node000009" class="edge">
<title>Node1&#45;&gt;Node9</title>
<g id="a_edge13_Node000001_Node000009"><a xlink:title=" ">
<path fill="none" stroke="#63b8ff" d="M471.59,-150.42C457.33,-134.36 433.91,-111.62 408,-101.09 341.53,-74.08 257.39,-74.65 203.86,-78.83"/>
<polygon fill="#63b8ff" stroke="#63b8ff" points="469.02,-152.79 478.18,-158.1 474.33,-148.23 469.02,-152.79"/>
</a>
</g>
</g>
<!-- Node10 -->
<g id="Node000010" class="node">
<title>Node10</title>
<g id="a_Node000010"><a xlink:href="ade7913_8c.html#a4044929913dee523e72953d26b275ba8" target="_top" xlink:title="IC config regs protection status.">
<polygon fill="white" stroke="#666666" points="399.5,-53.59 267.5,-53.59 267.5,-34.59 399.5,-34.59 399.5,-53.59"/>
<text text-anchor="middle" x="333.5" y="-41.59" font-family="Helvetica,sans-Serif" font-size="10.00">ade7913_ic_prot_status</text>
</a>
</g>
</g>
<!-- Node1&#45;&gt;Node10 -->
<g id="edge9_Node000001_Node000010" class="edge">
<title>Node1&#45;&gt;Node10</title>
<g id="a_edge9_Node000001_Node000010"><a xlink:title=" ">
<path fill="none" stroke="#63b8ff" d="M476.24,-149.73C463.44,-127.34 438.93,-89.8 408,-68.09 399.1,-61.84 388.47,-57.15 378.11,-53.64"/>
<polygon fill="#63b8ff" stroke="#63b8ff" points="473.23,-151.52 481.14,-158.57 479.36,-148.13 473.23,-151.52"/>
</a>
</g>
</g>
<!-- Node11 -->
<g id="Node000011" class="node">
<title>Node11</title>
<g id="a_Node000011"><a xlink:href="ade7913_8c.html#af4617b5195956538abce707fb595e362" target="_top" xlink:title="Read multiple devices.">
<polygon fill="white" stroke="#666666" points="223,-38.59 77,-38.59 77,-19.59 223,-19.59 223,-38.59"/>
<text text-anchor="middle" x="150" y="-26.59" font-family="Helvetica,sans-Serif" font-size="10.00">ade7913_read_waveforms</text>
</a>
</g>
</g>
<!-- Node1&#45;&gt;Node11 -->
<g id="edge11_Node000001_Node000011" class="edge">
<title>Node1&#45;&gt;Node11</title>
<g id="a_edge11_Node000001_Node000011"><a xlink:title=" ">
<path fill="none" stroke="#63b8ff" d="M481.96,-148.38C474.12,-115.91 453.46,-52.08 408,-25.09 335.48,17.96 229.96,-4.73 179.69,-19.56"/>
<polygon fill="#63b8ff" stroke="#63b8ff" points="478.61,-149.46 484.22,-158.45 485.44,-147.93 478.61,-149.46"/>
</a>
</g>
</g>
<!-- Node6&#45;&gt;Node7 -->
<g id="edge6_Node000006_Node000007" class="edge">
<title>Node6&#45;&gt;Node7</title>
<g id="a_edge6_Node000006_Node000007"><a xlink:title=" ">
<path fill="none" stroke="#63b8ff" d="M262.78,-125.09C238.15,-125.09 211.33,-125.09 190.13,-125.09"/>
<polygon fill="#63b8ff" stroke="#63b8ff" points="262.82,-128.59 272.82,-125.09 262.82,-121.59 262.82,-128.59"/>
</a>
</g>
</g>
<!-- Node6&#45;&gt;Node9 -->
<g id="edge8_Node000006_Node000009" class="edge">
<title>Node6&#45;&gt;Node9</title>
<g id="a_edge8_Node000006_Node000009"><a xlink:title=" ">
<path fill="none" stroke="#63b8ff" d="M263.05,-109.78C239.94,-104.69 214.88,-99.17 194.33,-94.64"/>
<polygon fill="#63b8ff" stroke="#63b8ff" points="262.3,-113.2 272.82,-111.94 263.81,-106.37 262.3,-113.2"/>
</a>
</g>
</g>
<!-- Node8 -->
<g id="Node000008" class="node">
<title>Node8</title>
<g id="a_Node000008"><a xlink:href="eval-ade7913_2src_2main_8c.html#a840291bc02cba5474a4cb46a9b9566fe" target="_top" xlink:title=" ">
<polygon fill="white" stroke="#666666" points="41,-78.59 0,-78.59 0,-59.59 41,-59.59 41,-78.59"/>
<text text-anchor="middle" x="20.5" y="-66.59" font-family="Helvetica,sans-Serif" font-size="10.00">main</text>
</a>
</g>
</g>
<!-- Node7&#45;&gt;Node8 -->
<g id="edge7_Node000007_Node000008" class="edge">
<title>Node7&#45;&gt;Node8</title>
<g id="a_edge7_Node000007_Node000008"><a xlink:title=" ">
<path fill="none" stroke="#63b8ff" d="M101.66,-112.5C93.31,-109.75 84.8,-106.6 77,-103.09 61.96,-96.32 46.02,-86.21 35.1,-78.77"/>
<polygon fill="#63b8ff" stroke="#63b8ff" points="100.75,-115.88 111.34,-115.54 102.85,-109.2 100.75,-115.88"/>
</a>
</g>
</g>
<!-- Node11&#45;&gt;Node8 -->
<g id="edge12_Node000011_Node000008" class="edge">
<title>Node11&#45;&gt;Node8</title>
<g id="a_edge12_Node000011_Node000008"><a xlink:title=" ">
<path fill="none" stroke="#63b8ff" d="M108.78,-41.71C86.2,-48.79 59.04,-57.31 41.08,-62.95"/>
<polygon fill="#63b8ff" stroke="#63b8ff" points="109.97,-45 118.46,-38.67 107.87,-38.32 109.97,-45"/>
</a>
</g>
</g>
</g>
</svg>

<g id="navigator" transform="translate(0 0)" fill="#404254">
  <rect fill="#f2f5e9" fill-opacity="0.5" stroke="#606060" stroke-width=".5" x="0" y="0" width="60" height="60"/>
  <use id="zoomplus" xlink:href="#zoomPlus" x="17" y="9" onmousedown="handleZoom(evt,'in')"/>
  <use id="zoomminus" xlink:href="#zoomMin" x="42" y="9" onmousedown="handleZoom(evt,'out')"/>
  <use id="reset" xlink:href="#resetDef" x="30" y="36" onmousedown="handleReset()"/>
   <use id="arrowup" xlink:href="#arrowUp" x="0" y="0" onmousedown="handlePan(0,-1)"/>
  <use id="arrowright" xlink:href="#arrowRight" x="0" y="0" onmousedown="handlePan(1,0)"/>
  <use id="arrowdown" xlink:href="#arrowDown" x="0" y="0" onmousedown="handlePan(0,1)"/>
  <use id="arrowleft" xlink:href="#arrowLeft" x="0" y="0" onmousedown="handlePan(-1,0)"/>
</g>
<svg viewBox="0 0 15 15" width="100%" height="30px" preserveAspectRatio="xMaxYMin meet">
 <g id="arrow_out" transform="scale(0.3 0.3)">
  <a xlink:href="ade7913_8c_ab77f36317800804dc692df67ba2efdea_icgraph_org.svg" target="_base">
   <rect id="button" ry="5" rx="5" y="6" x="6" height="38" width="38"
        fill="#f2f5e9" fill-opacity="0.5" stroke="#606060" stroke-width="1.0"/>
   <path id="arrow"
     d="M 11.500037,31.436501 C 11.940474,20.09759 22.043105,11.32322 32.158766,21.979434 L 37.068811,17.246167 C 37.068811,17.246167 37.088388,32 37.088388,32 L 22.160133,31.978069 C 22.160133,31.978069 26.997745,27.140456 26.997745,27.140456 C 18.528582,18.264221 13.291696,25.230495 11.500037,31.436501 z"
     style="fill:#404040;"/>
  </a>
 </g>
</svg>

<style type='text/css'>
<![CDATA[
[data-mouse-over-selected='false'] { opacity: 0.7; }
[data-mouse-over-selected='true']  { opacity: 1.0; }
]]>
</style>
<script type="application/ecmascript"><![CDATA[
document.addEventListener('DOMContentLoaded', (event) => {
  highlightEdges();
  highlightAdjacentNodes();
});
]]></script>
</svg>
