<?xml version="1.0" encoding="UTF-8" standalone="no"?>
<!DOCTYPE svg PUBLIC "-//W3C//DTD SVG 1.1//EN"
 "http://www.w3.org/Graphics/SVG/1.1/DTD/svg11.dtd">
<!-- Generated by graphviz version 2.43.0 (0)
 -->
<!-- Title: ade7816_i2c_reg_read Pages: 1 -->
<svg width="526pt" height="27pt"
 viewBox="0.00 0.00 526.00 27.00" xmlns="http://www.w3.org/2000/svg" xmlns:xlink="http://www.w3.org/1999/xlink">
<g id="graph0" class="graph" transform="scale(1 1) rotate(0) translate(4 23)">
<title>ade7816_i2c_reg_read</title>
<!-- Node1 -->
<g id="Node000001" class="node">
<title>Node1</title>
<g id="a_Node000001"><a xlink:title="ADE7816 I2C Read Register function.">
<polygon fill="#999999" stroke="#666666" points="518,-19 392,-19 392,0 518,0 518,-19"/>
<text text-anchor="middle" x="455" y="-7" font-family="Helvetica,sans-Serif" font-size="10.00">ade7816_i2c_reg_read</text>
</a>
</g>
</g>
<!-- Node2 -->
<g id="Node000002" class="node">
<title>Node2</title>
<g id="a_Node000002"><a xlink:href="ade7816_8c.html#aee753094ae017b3041d658565456c84c" target="_top" xlink:title="ADE7816 set communication function.">
<polygon fill="white" stroke="#666666" points="356,-19 241,-19 241,0 356,0 356,-19"/>
<text text-anchor="middle" x="298.5" y="-7" font-family="Helvetica,sans-Serif" font-size="10.00">ade7816_set_comm</text>
</a>
</g>
</g>
<!-- Node1&#45;&gt;Node2 -->
<g id="edge1_Node000001_Node000002" class="edge">
<title>Node1&#45;&gt;Node2</title>
<g id="a_edge1_Node000001_Node000002"><a xlink:title=" ">
<path fill="none" stroke="#63b8ff" d="M381.35,-9.5C372.88,-9.5 364.35,-9.5 356.14,-9.5"/>
<polygon fill="#63b8ff" stroke="#63b8ff" points="381.6,-13 391.6,-9.5 381.6,-6 381.6,-13"/>
</a>
</g>
</g>
<!-- Node3 -->
<g id="Node000003" class="node">
<title>Node3</title>
<g id="a_Node000003"><a xlink:href="ade7816_8c.html#ac294be7c53212f7157e0f12ba10a04be" target="_top" xlink:title="Initialize and configure the ADE7816 device.">
<polygon fill="white" stroke="#666666" points="205,-19 125,-19 125,0 205,0 205,-19"/>
<text text-anchor="middle" x="165" y="-7" font-family="Helvetica,sans-Serif" font-size="10.00">ade7816_init</text>
</a>
</g>
</g>
<!-- Node2&#45;&gt;Node3 -->
<g id="edge2_Node000002_Node000003" class="edge">
<title>Node2&#45;&gt;Node3</title>
<g id="a_edge2_Node000002_Node000003"><a xlink:title=" ">
<path fill="none" stroke="#63b8ff" d="M230.69,-9.5C221.9,-9.5 213.15,-9.5 205.04,-9.5"/>
<polygon fill="#63b8ff" stroke="#63b8ff" points="230.97,-13 240.97,-9.5 230.97,-6 230.97,-13"/>
</a>
</g>
</g>
<!-- Node4 -->
<g id="Node000004" class="node">
<title>Node4</title>
<g id="a_Node000004"><a xlink:href="ade7816_2src_2examples_2basic_2basic__example_8c.html#ac25cbf8ae523e89cb0617e68c98bc697" target="_top" xlink:title="Basic example main execution.">
<polygon fill="white" stroke="#666666" points="89,-19 0,-19 0,0 89,0 89,-19"/>
<text text-anchor="middle" x="44.5" y="-7" font-family="Helvetica,sans-Serif" font-size="10.00">example_main</text>
</a>
</g>
</g>
<!-- Node3&#45;&gt;Node4 -->
<g id="edge3_Node000003_Node000004" class="edge">
<title>Node3&#45;&gt;Node4</title>
<g id="a_edge3_Node000003_Node000004"><a xlink:title=" ">
<path fill="none" stroke="#63b8ff" d="M114.69,-9.5C106.2,-9.5 97.42,-9.5 89.09,-9.5"/>
<polygon fill="#63b8ff" stroke="#63b8ff" points="114.87,-13 124.87,-9.5 114.87,-6 114.87,-13"/>
</a>
</g>
</g>
</g>
</svg>
