<?xml version="1.0" encoding="UTF-8" standalone="no"?>
<!DOCTYPE svg PUBLIC "-//W3C//DTD SVG 1.1//EN"
 "http://www.w3.org/Graphics/SVG/1.1/DTD/svg11.dtd">
<!-- Generated by graphviz version 2.43.0 (0)
 -->
<!-- Title: drivers/meter/ade7913/ade7913.h Pages: 1 -->
<!--zoomable 170 -->

<svg id="main" version="1.1" xmlns="http://www.w3.org/2000/svg" xmlns:xlink="http://www.w3.org/1999/xlink" xml:space="preserve" onload="init(evt)">

<style type="text/css"><![CDATA[
.node, .edge {opacity: 0.7;}
.node.selected, .edge.selected {opacity: 1;}
.edge:hover path { stroke: red; }
.edge:hover polygon { stroke: red; fill: red; }
]]></style>

<defs>
  <circle id="rim" cx="0" cy="0" r="7"/>
  <circle id="rim2" cx="0" cy="0" r="3.5"/>
  <g id="zoomPlus">
    <use xlink:href="#rim" fill="#404040"><set attributeName="fill" to="#808080" begin="zoomplus.mouseover" end="zoomplus.mouseout"/></use>
    <path d="M-4,0h8M0,-4v8" fill="none" stroke="white" stroke-width="1.5" pointer-events="none"/>
  </g>
  <g id="zoomMin">
    <use xlink:href="#rim" fill="#404040"><set attributeName="fill" to="#808080" begin="zoomminus.mouseover" end="zoomminus.mouseout"/></use>
    <path d="M-4,0h8" fill="none" stroke="white" stroke-width="1.5" pointer-events="none"/>
  </g>
  <g id="arrowUp" transform="translate(30 24)">
    <use xlink:href="#rim"/>
    <path pointer-events="none" fill="none" stroke="white" stroke-width="1.5" d="M0,-3.0v7 M-2.5,-0.5L0,-3.0L2.5,-0.5"/>
  </g>
  <g id="arrowRight" transform="rotate(90) translate(36 -43)">
    <use xlink:href="#rim"/>
    <path pointer-events="none" fill="none" stroke="white" stroke-width="1.5" d="M0,-3.0v7 M-2.5,-0.5L0,-3.0L2.5,-0.5"/>
  </g>
  <g id="arrowDown" transform="rotate(180) translate(-30 -48)">
    <use xlink:href="#rim"/>
    <path pointer-events="none" fill="none" stroke="white" stroke-width="1.5" d="M0,-3.0v7 M-2.5,-0.5L0,-3.0L2.5,-0.5"/>
  </g>
  <g id="arrowLeft" transform="rotate(270) translate(-36 17)">
    <use xlink:href="#rim"/>
    <path pointer-events="none" fill="none" stroke="white" stroke-width="1.5" d="M0,-3.0v7 M-2.5,-0.5L0,-3.0L2.5,-0.5"/>
  </g>
  <g id="resetDef">
    <use xlink:href="#rim2" fill="#404040"><set attributeName="fill" to="#808080" begin="reset.mouseover" end="reset.mouseout"/></use>
  </g>
</defs>
<script type="application/ecmascript">
var viewWidth = 610;
var viewHeight = 170;
var sectionId = 'dynsection-1';
</script>
<script type="application/ecmascript" xlink:href="svg.min.js"/>
<svg id="graph" class="graph">
<g id="viewport">
<title>drivers/meter/ade7913/ade7913.h</title>
<!-- Node1 -->
<g id="Node000001" class="node">
<title>Node1</title>
<g id="a_Node000001"><a xlink:title="Header file of ADE7913 Driver.">
<polygon fill="#999999" stroke="#666666" points="371,-162 243,-162 243,-132 371,-132 371,-162"/>
<text text-anchor="start" x="251" y="-150" font-family="Helvetica,sans-Serif" font-size="10.00">drivers/meter/ade7913</text>
<text text-anchor="middle" x="307" y="-139" font-family="Helvetica,sans-Serif" font-size="10.00">/ade7913.h</text>
</a>
</g>
</g>
<!-- Node2 -->
<g id="Node000002" class="node">
<title>Node2</title>
<g id="a_Node000002"><a xlink:href="ade7913_8c.html" target="_top" xlink:title="Implementation of ADE7913 Driver.">
<polygon fill="white" stroke="#666666" points="128,-96 0,-96 0,-66 128,-66 128,-96"/>
<text text-anchor="start" x="8" y="-84" font-family="Helvetica,sans-Serif" font-size="10.00">drivers/meter/ade7913</text>
<text text-anchor="middle" x="64" y="-73" font-family="Helvetica,sans-Serif" font-size="10.00">/ade7913.c</text>
</a>
</g>
</g>
<!-- Node1&#45;&gt;Node2 -->
<g id="edge1_Node000001_Node000002" class="edge">
<title>Node1&#45;&gt;Node2</title>
<g id="a_edge1_Node000001_Node000002"><a xlink:title=" ">
<path fill="none" stroke="#63b8ff" d="M243.92,-129.39C204.58,-119.03 154.53,-105.84 117.2,-96.01"/>
<polygon fill="#63b8ff" stroke="#63b8ff" points="243.11,-132.79 253.67,-131.95 244.89,-126.02 243.11,-132.79"/>
</a>
</g>
</g>
<!-- Node3 -->
<g id="Node000003" class="node">
<title>Node3</title>
<g id="a_Node000003"><a xlink:href="eval-ade7913_2src_2common_2common__data_8h.html" target="_top" xlink:title="Defines common data to be used by ADE7913 example project.">
<polygon fill="white" stroke="#666666" points="307.5,-96 146.5,-96 146.5,-66 307.5,-66 307.5,-96"/>
<text text-anchor="start" x="154.5" y="-84" font-family="Helvetica,sans-Serif" font-size="10.00">projects/eval&#45;ade7913</text>
<text text-anchor="middle" x="227" y="-73" font-family="Helvetica,sans-Serif" font-size="10.00">/src/common/common_data.h</text>
</a>
</g>
</g>
<!-- Node1&#45;&gt;Node3 -->
<g id="edge2_Node000001_Node000003" class="edge">
<title>Node1&#45;&gt;Node3</title>
<g id="a_edge2_Node000001_Node000003"><a xlink:title=" ">
<path fill="none" stroke="#63b8ff" d="M281.35,-125.48C269.39,-115.91 255.47,-104.77 244.7,-96.16"/>
<polygon fill="#63b8ff" stroke="#63b8ff" points="279.25,-128.28 289.25,-131.8 283.62,-122.82 279.25,-128.28"/>
</a>
</g>
</g>
<!-- Node5 -->
<g id="Node000005" class="node">
<title>Node5</title>
<g id="a_Node000005"><a xlink:href="eval-ade7913_2src_2main_8c.html" target="_top" xlink:title="Main function of ADE7913 example.">
<polygon fill="white" stroke="#666666" points="450.5,-96 325.5,-96 325.5,-66 450.5,-66 450.5,-96"/>
<text text-anchor="start" x="333.5" y="-84" font-family="Helvetica,sans-Serif" font-size="10.00">projects/eval&#45;ade7913</text>
<text text-anchor="middle" x="388" y="-73" font-family="Helvetica,sans-Serif" font-size="10.00">/src/main.c</text>
</a>
</g>
</g>
<!-- Node1&#45;&gt;Node5 -->
<g id="edge4_Node000001_Node000005" class="edge">
<title>Node1&#45;&gt;Node5</title>
<g id="a_edge4_Node000001_Node000005"><a xlink:title=" ">
<path fill="none" stroke="#63b8ff" d="M332.97,-125.48C345.08,-115.91 359.18,-104.77 370.07,-96.16"/>
<polygon fill="#63b8ff" stroke="#63b8ff" points="330.65,-122.85 324.98,-131.8 334.99,-128.34 330.65,-122.85"/>
</a>
</g>
</g>
<!-- Node6 -->
<g id="Node000006" class="node">
<title>Node6</title>
<g id="a_Node000006"><a xlink:href="eval-ade7913_2src_2platform_2platform_8h.html" target="_top" xlink:title="Defines platform data to be used by ADE7913 example project.">
<polygon fill="white" stroke="#666666" points="601.5,-96 468.5,-96 468.5,-66 601.5,-66 601.5,-96"/>
<text text-anchor="start" x="476.5" y="-84" font-family="Helvetica,sans-Serif" font-size="10.00">projects/eval&#45;ade7913</text>
<text text-anchor="middle" x="535" y="-73" font-family="Helvetica,sans-Serif" font-size="10.00">/src/platform/platform.h</text>
</a>
</g>
</g>
<!-- Node1&#45;&gt;Node6 -->
<g id="edge5_Node000001_Node000006" class="edge">
<title>Node1&#45;&gt;Node6</title>
<g id="a_edge5_Node000001_Node000006"><a xlink:title=" ">
<path fill="none" stroke="#63b8ff" d="M367.13,-129.12C403.89,-118.8 450.36,-105.76 485.08,-96.01"/>
<polygon fill="#63b8ff" stroke="#63b8ff" points="365.72,-125.88 357.04,-131.95 367.61,-132.62 365.72,-125.88"/>
</a>
</g>
</g>
<!-- Node4 -->
<g id="Node000004" class="node">
<title>Node4</title>
<g id="a_Node000004"><a xlink:href="eval-ade7913_2src_2common_2common__data_8c.html" target="_top" xlink:title="Defines common data to be used by ADE7913 example project.">
<polygon fill="white" stroke="#666666" points="307.5,-30 146.5,-30 146.5,0 307.5,0 307.5,-30"/>
<text text-anchor="start" x="154.5" y="-18" font-family="Helvetica,sans-Serif" font-size="10.00">projects/eval&#45;ade7913</text>
<text text-anchor="middle" x="227" y="-7" font-family="Helvetica,sans-Serif" font-size="10.00">/src/common/common_data.c</text>
</a>
</g>
</g>
<!-- Node3&#45;&gt;Node4 -->
<g id="edge3_Node000003_Node000004" class="edge">
<title>Node3&#45;&gt;Node4</title>
<g id="a_edge3_Node000003_Node000004"><a xlink:title=" ">
<path fill="none" stroke="#63b8ff" d="M227,-55.54C227,-46.96 227,-37.61 227,-30.16"/>
<polygon fill="#63b8ff" stroke="#63b8ff" points="223.5,-55.8 227,-65.8 230.5,-55.8 223.5,-55.8"/>
</a>
</g>
</g>
<!-- Node7 -->
<g id="Node000007" class="node">
<title>Node7</title>
<g id="a_Node000007"><a xlink:href="eval-ade7913_2src_2platform_2platform_8c.html" target="_top" xlink:title="Defines platform data to be used by ADE7913 example project.">
<polygon fill="white" stroke="#666666" points="601,-30 469,-30 469,0 601,0 601,-30"/>
<text text-anchor="start" x="477" y="-18" font-family="Helvetica,sans-Serif" font-size="10.00">projects/eval&#45;ade7913</text>
<text text-anchor="middle" x="535" y="-7" font-family="Helvetica,sans-Serif" font-size="10.00">/src/platform/platform.c</text>
</a>
</g>
</g>
<!-- Node6&#45;&gt;Node7 -->
<g id="edge6_Node000006_Node000007" class="edge">
<title>Node6&#45;&gt;Node7</title>
<g id="a_edge6_Node000006_Node000007"><a xlink:title=" ">
<path fill="none" stroke="#63b8ff" d="M535,-55.54C535,-46.96 535,-37.61 535,-30.16"/>
<polygon fill="#63b8ff" stroke="#63b8ff" points="531.5,-55.8 535,-65.8 538.5,-55.8 531.5,-55.8"/>
</a>
</g>
</g>
</g>
</svg>

<g id="navigator" transform="translate(0 0)" fill="#404254">
  <rect fill="#f2f5e9" fill-opacity="0.5" stroke="#606060" stroke-width=".5" x="0" y="0" width="60" height="60"/>
  <use id="zoomplus" xlink:href="#zoomPlus" x="17" y="9" onmousedown="handleZoom(evt,'in')"/>
  <use id="zoomminus" xlink:href="#zoomMin" x="42" y="9" onmousedown="handleZoom(evt,'out')"/>
  <use id="reset" xlink:href="#resetDef" x="30" y="36" onmousedown="handleReset()"/>
   <use id="arrowup" xlink:href="#arrowUp" x="0" y="0" onmousedown="handlePan(0,-1)"/>
  <use id="arrowright" xlink:href="#arrowRight" x="0" y="0" onmousedown="handlePan(1,0)"/>
  <use id="arrowdown" xlink:href="#arrowDown" x="0" y="0" onmousedown="handlePan(0,1)"/>
  <use id="arrowleft" xlink:href="#arrowLeft" x="0" y="0" onmousedown="handlePan(-1,0)"/>
</g>
<svg viewBox="0 0 15 15" width="100%" height="30px" preserveAspectRatio="xMaxYMin meet">
 <g id="arrow_out" transform="scale(0.3 0.3)">
  <a xlink:href="ade7913_8h__dep__incl_org.svg" target="_base">
   <rect id="button" ry="5" rx="5" y="6" x="6" height="38" width="38"
        fill="#f2f5e9" fill-opacity="0.5" stroke="#606060" stroke-width="1.0"/>
   <path id="arrow"
     d="M 11.500037,31.436501 C 11.940474,20.09759 22.043105,11.32322 32.158766,21.979434 L 37.068811,17.246167 C 37.068811,17.246167 37.088388,32 37.088388,32 L 22.160133,31.978069 C 22.160133,31.978069 26.997745,27.140456 26.997745,27.140456 C 18.528582,18.264221 13.291696,25.230495 11.500037,31.436501 z"
     style="fill:#404040;"/>
  </a>
 </g>
</svg>

<style type='text/css'>
<![CDATA[
[data-mouse-over-selected='false'] { opacity: 0.7; }
[data-mouse-over-selected='true']  { opacity: 1.0; }
]]>
</style>
<script type="application/ecmascript"><![CDATA[
document.addEventListener('DOMContentLoaded', (event) => {
  highlightEdges();
  highlightAdjacentNodes();
});
]]></script>
</svg>
