<?xml version="1.0" encoding="UTF-8" standalone="no"?>
<!DOCTYPE svg PUBLIC "-//W3C//DTD SVG 1.1//EN"
 "http://www.w3.org/Graphics/SVG/1.1/DTD/svg11.dtd">
<!-- Generated by graphviz version 2.43.0 (0)
 -->
<!-- Title: ade7753_rms_vals Pages: 1 -->
<svg width="346pt" height="27pt"
 viewBox="0.00 0.00 346.00 27.00" xmlns="http://www.w3.org/2000/svg" xmlns:xlink="http://www.w3.org/1999/xlink">
<g id="graph0" class="graph" transform="scale(1 1) rotate(0) translate(4 23)">
<title>ade7753_rms_vals</title>
<!-- Node1 -->
<g id="Node000001" class="node">
<title>Node1</title>
<g id="a_Node000001"><a xlink:title="Read rms values.">
<polygon fill="#999999" stroke="#666666" points="338,-19 230,-19 230,0 338,0 338,-19"/>
<text text-anchor="middle" x="284" y="-7" font-family="Helvetica,sans-Serif" font-size="10.00">ade7753_rms_vals</text>
</a>
</g>
</g>
<!-- Node2 -->
<g id="Node000002" class="node">
<title>Node2</title>
<g id="a_Node000002"><a xlink:href="eval-ade7753_2src_2common_2common__data_8c.html#a15949fe4023e52c618a1a27713a2f456" target="_top" xlink:title="Read measurements.">
<polygon fill="white" stroke="#666666" points="194,-19 77,-19 77,0 194,0 194,-19"/>
<text text-anchor="middle" x="135.5" y="-7" font-family="Helvetica,sans-Serif" font-size="10.00">read_measurements</text>
</a>
</g>
</g>
<!-- Node1&#45;&gt;Node2 -->
<g id="edge1_Node000001_Node000002" class="edge">
<title>Node1&#45;&gt;Node2</title>
<g id="a_edge1_Node000001_Node000002"><a xlink:title=" ">
<path fill="none" stroke="#63b8ff" d="M219.62,-9.5C211.26,-9.5 202.72,-9.5 194.46,-9.5"/>
<polygon fill="#63b8ff" stroke="#63b8ff" points="219.7,-13 229.7,-9.5 219.7,-6 219.7,-13"/>
</a>
</g>
</g>
<!-- Node3 -->
<g id="Node000003" class="node">
<title>Node3</title>
<g id="a_Node000003"><a xlink:href="eval-ade7753_2src_2main_8c.html#a840291bc02cba5474a4cb46a9b9566fe" target="_top" xlink:title=" ">
<polygon fill="white" stroke="#666666" points="41,-19 0,-19 0,0 41,0 41,-19"/>
<text text-anchor="middle" x="20.5" y="-7" font-family="Helvetica,sans-Serif" font-size="10.00">main</text>
</a>
</g>
</g>
<!-- Node2&#45;&gt;Node3 -->
<g id="edge2_Node000002_Node000003" class="edge">
<title>Node2&#45;&gt;Node3</title>
<g id="a_edge2_Node000002_Node000003"><a xlink:title=" ">
<path fill="none" stroke="#63b8ff" d="M66.53,-9.5C57.29,-9.5 48.48,-9.5 41.14,-9.5"/>
<polygon fill="#63b8ff" stroke="#63b8ff" points="66.68,-13 76.68,-9.5 66.68,-6 66.68,-13"/>
</a>
</g>
</g>
</g>
</svg>
