<?xml version="1.0" encoding="UTF-8" standalone="no"?>
<!DOCTYPE svg PUBLIC "-//W3C//DTD SVG 1.1//EN"
 "http://www.w3.org/Graphics/SVG/1.1/DTD/svg11.dtd">
<!-- Generated by graphviz version 2.43.0 (0)
 -->
<!-- Title: projects/ade7816/src/examples/basic/basic_example.c Pages: 1 -->
<svg width="590pt" height="214pt"
 viewBox="0.00 0.00 589.50 214.00" xmlns="http://www.w3.org/2000/svg" xmlns:xlink="http://www.w3.org/1999/xlink">
<g id="graph0" class="graph" transform="scale(1 1) rotate(0) translate(4 210)">
<title>projects/ade7816/src/examples/basic/basic_example.c</title>
<!-- Node1 -->
<g id="Node000001" class="node">
<title>Node1</title>
<g id="a_Node000001"><a xlink:title="Source file for basic example.">
<polygon fill="#999999" stroke="#666666" points="344.5,-206 219.5,-206 219.5,-165 344.5,-165 344.5,-206"/>
<text text-anchor="start" x="227.5" y="-194" font-family="Helvetica,sans-Serif" font-size="10.00">projects/ade7816/src</text>
<text text-anchor="start" x="227.5" y="-183" font-family="Helvetica,sans-Serif" font-size="10.00">/examples/basic/basic</text>
<text text-anchor="middle" x="282" y="-172" font-family="Helvetica,sans-Serif" font-size="10.00">_example.c</text>
</a>
</g>
</g>
<!-- Node2 -->
<g id="Node000002" class="node">
<title>Node2</title>
<g id="a_Node000002"><a xlink:title=" ">
<polygon fill="#e0e0e0" stroke="#999999" points="147.5,-129 52.5,-129 52.5,-110 147.5,-110 147.5,-129"/>
<text text-anchor="middle" x="100" y="-117" font-family="Helvetica,sans-Serif" font-size="10.00">common_data.h</text>
</a>
</g>
</g>
<!-- Node1&#45;&gt;Node2 -->
<g id="edge1_Node000001_Node000002" class="edge">
<title>Node1&#45;&gt;Node2</title>
<g id="a_edge1_Node000001_Node000002"><a xlink:title=" ">
<path fill="none" stroke="#63b8ff" d="M226.41,-164.95C196.32,-154.37 160.12,-141.64 134.18,-132.52"/>
<polygon fill="#63b8ff" stroke="#63b8ff" points="135.03,-129.11 124.43,-129.09 132.71,-135.71 135.03,-129.11"/>
</a>
</g>
</g>
<!-- Node3 -->
<g id="Node000003" class="node">
<title>Node3</title>
<g id="a_Node000003"><a xlink:href="no__os__delay_8h.html" target="_top" xlink:title="Header file of Delay functions.">
<polygon fill="white" stroke="#666666" points="175.5,-74 90.5,-74 90.5,-55 175.5,-55 175.5,-74"/>
<text text-anchor="middle" x="133" y="-62" font-family="Helvetica,sans-Serif" font-size="10.00">no_os_delay.h</text>
</a>
</g>
</g>
<!-- Node1&#45;&gt;Node3 -->
<g id="edge2_Node000001_Node000003" class="edge">
<title>Node1&#45;&gt;Node3</title>
<g id="a_edge2_Node000001_Node000003"><a xlink:title=" ">
<path fill="none" stroke="#63b8ff" d="M257.88,-164.77C239.38,-149.69 213.16,-128.42 190,-110 177.59,-100.14 163.56,-89.18 152.52,-80.6"/>
<polygon fill="#63b8ff" stroke="#63b8ff" points="154.45,-77.67 144.4,-74.31 150.16,-83.2 154.45,-77.67"/>
</a>
</g>
</g>
<!-- Node5 -->
<g id="Node000005" class="node">
<title>Node5</title>
<g id="a_Node000005"><a xlink:href="no__os__print__log_8h.html" target="_top" xlink:title="Print messages helpers.">
<polygon fill="white" stroke="#666666" points="480,-129 378,-129 378,-110 480,-110 480,-129"/>
<text text-anchor="middle" x="429" y="-117" font-family="Helvetica,sans-Serif" font-size="10.00">no_os_print_log.h</text>
</a>
</g>
</g>
<!-- Node1&#45;&gt;Node5 -->
<g id="edge4_Node000001_Node000005" class="edge">
<title>Node1&#45;&gt;Node5</title>
<g id="a_edge4_Node000001_Node000005"><a xlink:title=" ">
<path fill="none" stroke="#63b8ff" d="M326.9,-164.95C350.67,-154.6 379.15,-142.2 399.99,-133.13"/>
<polygon fill="#63b8ff" stroke="#63b8ff" points="401.49,-136.29 409.27,-129.09 398.7,-129.87 401.49,-136.29"/>
</a>
</g>
</g>
<!-- Node7 -->
<g id="Node000007" class="node">
<title>Node7</title>
<g id="a_Node000007"><a xlink:href="no__os__irq_8h.html" target="_top" xlink:title="Header file of IRQ interface.">
<polygon fill="white" stroke="#666666" points="72,-74 0,-74 0,-55 72,-55 72,-74"/>
<text text-anchor="middle" x="36" y="-62" font-family="Helvetica,sans-Serif" font-size="10.00">no_os_irq.h</text>
</a>
</g>
</g>
<!-- Node1&#45;&gt;Node7 -->
<g id="edge6_Node000001_Node000007" class="edge">
<title>Node1&#45;&gt;Node7</title>
<g id="a_edge6_Node000001_Node000007"><a xlink:title=" ">
<path fill="none" stroke="#63b8ff" d="M249.45,-164.85C215.37,-144.33 165.49,-114.52 156,-110 128.85,-97.07 96.86,-85.37 72.74,-77.22"/>
<polygon fill="#63b8ff" stroke="#63b8ff" points="73.85,-73.9 63.26,-74.06 71.64,-80.54 73.85,-73.9"/>
</a>
</g>
</g>
<!-- Node8 -->
<g id="Node000008" class="node">
<title>Node8</title>
<g id="a_Node000008"><a xlink:href="no__os__uart_8h.html" target="_top" xlink:title="Header file of UART interface.">
<polygon fill="white" stroke="#666666" points="321.5,-129 242.5,-129 242.5,-110 321.5,-110 321.5,-129"/>
<text text-anchor="middle" x="282" y="-117" font-family="Helvetica,sans-Serif" font-size="10.00">no_os_uart.h</text>
</a>
</g>
</g>
<!-- Node1&#45;&gt;Node8 -->
<g id="edge8_Node000001_Node000008" class="edge">
<title>Node1&#45;&gt;Node8</title>
<g id="a_edge8_Node000001_Node000008"><a xlink:title=" ">
<path fill="none" stroke="#63b8ff" d="M282,-164.95C282,-156.85 282,-147.5 282,-139.47"/>
<polygon fill="#63b8ff" stroke="#63b8ff" points="285.5,-139.26 282,-129.26 278.5,-139.26 285.5,-139.26"/>
</a>
</g>
</g>
<!-- Node12 -->
<g id="Node000012" class="node">
<title>Node12</title>
<g id="a_Node000012"><a xlink:href="no__os__util_8h.html" target="_top" xlink:title="Header file of utility functions.">
<polygon fill="white" stroke="#666666" points="425.5,-74 350.5,-74 350.5,-55 425.5,-55 425.5,-74"/>
<text text-anchor="middle" x="388" y="-62" font-family="Helvetica,sans-Serif" font-size="10.00">no_os_util.h</text>
</a>
</g>
</g>
<!-- Node1&#45;&gt;Node12 -->
<g id="edge15_Node000001_Node000012" class="edge">
<title>Node1&#45;&gt;Node12</title>
<g id="a_edge15_Node000001_Node000012"><a xlink:title=" ">
<path fill="none" stroke="#63b8ff" d="M299.5,-164.85C320.16,-141.65 354.14,-103.51 373.43,-81.85"/>
<polygon fill="#63b8ff" stroke="#63b8ff" points="376.23,-83.97 380.27,-74.18 371.01,-79.31 376.23,-83.97"/>
</a>
</g>
</g>
<!-- Node13 -->
<g id="Node000013" class="node">
<title>Node13</title>
<g id="a_Node000013"><a xlink:href="no__os__units_8h.html" target="_top" xlink:title="Header file of Units.">
<polygon fill="white" stroke="#666666" points="581.5,-129 498.5,-129 498.5,-110 581.5,-110 581.5,-129"/>
<text text-anchor="middle" x="540" y="-117" font-family="Helvetica,sans-Serif" font-size="10.00">no_os_units.h</text>
</a>
</g>
</g>
<!-- Node1&#45;&gt;Node13 -->
<g id="edge19_Node000001_Node000013" class="edge">
<title>Node1&#45;&gt;Node13</title>
<g id="a_edge19_Node000001_Node000013"><a xlink:title=" ">
<path fill="none" stroke="#63b8ff" d="M344.78,-168.93C391.5,-157.34 454.1,-141.81 495.68,-131.49"/>
<polygon fill="#63b8ff" stroke="#63b8ff" points="496.65,-134.86 505.52,-129.05 494.97,-128.06 496.65,-134.86"/>
</a>
</g>
</g>
<!-- Node4 -->
<g id="Node000004" class="node">
<title>Node4</title>
<g id="a_Node000004"><a xlink:title=" ">
<polygon fill="#e0e0e0" stroke="#999999" points="230.5,-19 177.5,-19 177.5,0 230.5,0 230.5,-19"/>
<text text-anchor="middle" x="204" y="-7" font-family="Helvetica,sans-Serif" font-size="10.00">stdint.h</text>
</a>
</g>
</g>
<!-- Node3&#45;&gt;Node4 -->
<g id="edge3_Node000003_Node000004" class="edge">
<title>Node3&#45;&gt;Node4</title>
<g id="a_edge3_Node000003_Node000004"><a xlink:title=" ">
<path fill="none" stroke="#63b8ff" d="M144.41,-54.98C155.11,-47 171.34,-34.88 184.16,-25.31"/>
<polygon fill="#63b8ff" stroke="#63b8ff" points="186.47,-27.96 192.39,-19.17 182.28,-22.35 186.47,-27.96"/>
</a>
</g>
</g>
<!-- Node6 -->
<g id="Node000006" class="node">
<title>Node6</title>
<g id="a_Node000006"><a xlink:title=" ">
<polygon fill="#e0e0e0" stroke="#999999" points="532,-74 482,-74 482,-55 532,-55 532,-74"/>
<text text-anchor="middle" x="507" y="-62" font-family="Helvetica,sans-Serif" font-size="10.00">stdio.h</text>
</a>
</g>
</g>
<!-- Node5&#45;&gt;Node6 -->
<g id="edge5_Node000005_Node000006" class="edge">
<title>Node5&#45;&gt;Node6</title>
<g id="a_edge5_Node000005_Node000006"><a xlink:title=" ">
<path fill="none" stroke="#63b8ff" d="M441.53,-109.98C453.4,-101.92 471.46,-89.65 485.61,-80.03"/>
<polygon fill="#63b8ff" stroke="#63b8ff" points="487.94,-82.69 494.24,-74.17 484,-76.9 487.94,-82.69"/>
</a>
</g>
</g>
<!-- Node7&#45;&gt;Node4 -->
<g id="edge7_Node000007_Node000004" class="edge">
<title>Node7&#45;&gt;Node4</title>
<g id="a_edge7_Node000007_Node000004"><a xlink:title=" ">
<path fill="none" stroke="#63b8ff" d="M62.99,-54.98C91.36,-46.03 136.17,-31.9 167.64,-21.97"/>
<polygon fill="#63b8ff" stroke="#63b8ff" points="168.87,-25.25 177.35,-18.91 166.76,-18.58 168.87,-25.25"/>
</a>
</g>
</g>
<!-- Node8&#45;&gt;Node4 -->
<g id="edge9_Node000008_Node000004" class="edge">
<title>Node8&#45;&gt;Node4</title>
<g id="a_edge9_Node000008_Node000004"><a xlink:title=" ">
<path fill="none" stroke="#63b8ff" d="M265.41,-109.9C252.11,-102.19 233.91,-89.69 223,-74 213.66,-60.57 208.83,-42.47 206.39,-29.03"/>
<polygon fill="#63b8ff" stroke="#63b8ff" points="209.83,-28.39 204.85,-19.04 202.91,-29.46 209.83,-28.39"/>
</a>
</g>
</g>
<!-- Node9 -->
<g id="Node000009" class="node">
<title>Node9</title>
<g id="a_Node000009"><a xlink:title=" ">
<polygon fill="#e0e0e0" stroke="#999999" points="419,-19 357,-19 357,0 419,0 419,-19"/>
<text text-anchor="middle" x="388" y="-7" font-family="Helvetica,sans-Serif" font-size="10.00">stdbool.h</text>
</a>
</g>
</g>
<!-- Node8&#45;&gt;Node9 -->
<g id="edge10_Node000008_Node000009" class="edge">
<title>Node8&#45;&gt;Node9</title>
<g id="a_edge10_Node000008_Node000009"><a xlink:title=" ">
<path fill="none" stroke="#63b8ff" d="M321.8,-112.42C362.42,-105.3 421.38,-92.14 435,-74 447.59,-57.22 428.36,-37.82 410.83,-24.92"/>
<polygon fill="#63b8ff" stroke="#63b8ff" points="412.72,-21.98 402.51,-19.15 408.74,-27.73 412.72,-21.98"/>
</a>
</g>
</g>
<!-- Node10 -->
<g id="Node000010" class="node">
<title>Node10</title>
<g id="a_Node000010"><a xlink:href="no__os__lf256fifo_8h.html" target="_top" xlink:title="SPSC lock&#45;free fifo of fixed size (256), specialized for UART.">
<polygon fill="white" stroke="#666666" points="332,-74 232,-74 232,-55 332,-55 332,-74"/>
<text text-anchor="middle" x="282" y="-62" font-family="Helvetica,sans-Serif" font-size="10.00">no_os_lf256fifo.h</text>
</a>
</g>
</g>
<!-- Node8&#45;&gt;Node10 -->
<g id="edge11_Node000008_Node000010" class="edge">
<title>Node8&#45;&gt;Node10</title>
<g id="a_edge11_Node000008_Node000010"><a xlink:title=" ">
<path fill="none" stroke="#63b8ff" d="M282,-109.75C282,-102.8 282,-92.85 282,-84.13"/>
<polygon fill="#63b8ff" stroke="#63b8ff" points="285.5,-84.09 282,-74.09 278.5,-84.09 285.5,-84.09"/>
</a>
</g>
</g>
<!-- Node10&#45;&gt;Node4 -->
<g id="edge13_Node000010_Node000004" class="edge">
<title>Node10&#45;&gt;Node4</title>
<g id="a_edge13_Node000010_Node000004"><a xlink:title=" ">
<path fill="none" stroke="#63b8ff" d="M269.47,-54.98C257.6,-46.92 239.54,-34.65 225.39,-25.03"/>
<polygon fill="#63b8ff" stroke="#63b8ff" points="227,-21.9 216.76,-19.17 223.06,-27.69 227,-21.9"/>
</a>
</g>
</g>
<!-- Node10&#45;&gt;Node9 -->
<g id="edge14_Node000010_Node000009" class="edge">
<title>Node10&#45;&gt;Node9</title>
<g id="a_edge14_Node000010_Node000009"><a xlink:title=" ">
<path fill="none" stroke="#63b8ff" d="M299.03,-54.98C315.93,-46.54 342.06,-33.47 361.64,-23.68"/>
<polygon fill="#63b8ff" stroke="#63b8ff" points="363.28,-26.77 370.66,-19.17 360.15,-20.51 363.28,-26.77"/>
</a>
</g>
</g>
<!-- Node11 -->
<g id="Node000011" class="node">
<title>Node11</title>
<g id="a_Node000011"><a xlink:title=" ">
<polygon fill="#e0e0e0" stroke="#999999" points="323.5,-19 270.5,-19 270.5,0 323.5,0 323.5,-19"/>
<text text-anchor="middle" x="297" y="-7" font-family="Helvetica,sans-Serif" font-size="10.00">stdlib.h</text>
</a>
</g>
</g>
<!-- Node10&#45;&gt;Node11 -->
<g id="edge12_Node000010_Node000011" class="edge">
<title>Node10&#45;&gt;Node11</title>
<g id="a_edge12_Node000010_Node000011"><a xlink:title=" ">
<path fill="none" stroke="#63b8ff" d="M284.48,-54.75C286.46,-47.72 289.32,-37.62 291.81,-28.84"/>
<polygon fill="#63b8ff" stroke="#63b8ff" points="295.21,-29.66 294.57,-19.09 288.48,-27.76 295.21,-29.66"/>
</a>
</g>
</g>
<!-- Node12&#45;&gt;Node4 -->
<g id="edge16_Node000012_Node000004" class="edge">
<title>Node12&#45;&gt;Node4</title>
<g id="a_edge16_Node000012_Node000004"><a xlink:title=" ">
<path fill="none" stroke="#63b8ff" d="M358.44,-54.98C326.26,-45.72 274.79,-30.89 240.21,-20.93"/>
<polygon fill="#63b8ff" stroke="#63b8ff" points="241.08,-17.54 230.5,-18.13 239.14,-24.27 241.08,-17.54"/>
</a>
</g>
</g>
<!-- Node12&#45;&gt;Node9 -->
<g id="edge18_Node000012_Node000009" class="edge">
<title>Node12&#45;&gt;Node9</title>
<g id="a_edge18_Node000012_Node000009"><a xlink:title=" ">
<path fill="none" stroke="#63b8ff" d="M388,-54.75C388,-47.8 388,-37.85 388,-29.13"/>
<polygon fill="#63b8ff" stroke="#63b8ff" points="391.5,-29.09 388,-19.09 384.5,-29.09 391.5,-29.09"/>
</a>
</g>
</g>
<!-- Node12&#45;&gt;Node11 -->
<g id="edge17_Node000012_Node000011" class="edge">
<title>Node12&#45;&gt;Node11</title>
<g id="a_edge17_Node000012_Node000011"><a xlink:title=" ">
<path fill="none" stroke="#63b8ff" d="M373.38,-54.98C359.14,-46.69 337.25,-33.94 320.55,-24.22"/>
<polygon fill="#63b8ff" stroke="#63b8ff" points="322.29,-21.18 311.89,-19.17 318.77,-27.23 322.29,-21.18"/>
</a>
</g>
</g>
</g>
</svg>
