<?xml version="1.0" encoding="UTF-8" standalone="no"?>
<!DOCTYPE svg PUBLIC "-//W3C//DTD SVG 1.1//EN"
 "http://www.w3.org/Graphics/SVG/1.1/DTD/svg11.dtd">
<!-- Generated by graphviz version 2.43.0 (0)
 -->
<!-- Title: ade7816_reg_update Pages: 1 -->
<svg width="625pt" height="411pt"
 viewBox="0.00 0.00 625.00 411.00" xmlns="http://www.w3.org/2000/svg" xmlns:xlink="http://www.w3.org/1999/xlink">
<g id="graph0" class="graph" transform="scale(1 1) rotate(0) translate(4 407)">
<title>ade7816_reg_update</title>
<!-- Node1 -->
<g id="Node000001" class="node">
<title>Node1</title>
<g id="a_Node000001"><a xlink:title="Register update function.">
<polygon fill="#999999" stroke="#666666" points="617,-194 498,-194 498,-175 617,-175 617,-194"/>
<text text-anchor="middle" x="557.5" y="-182" font-family="Helvetica,sans-Serif" font-size="10.00">ade7816_reg_update</text>
</a>
</g>
</g>
<!-- Node2 -->
<g id="Node000002" class="node">
<title>Node2</title>
<g id="a_Node000002"><a xlink:href="ade7816_8c.html#a155b363ec63a49979fbeec7af7506a32" target="_top" xlink:title="ADE7816 angle measurement function.">
<polygon fill="white" stroke="#666666" points="279.5,-403 156.5,-403 156.5,-384 279.5,-384 279.5,-403"/>
<text text-anchor="middle" x="218" y="-391" font-family="Helvetica,sans-Serif" font-size="10.00">ade7816_angle_meas</text>
</a>
</g>
</g>
<!-- Node1&#45;&gt;Node2 -->
<g id="edge1_Node000001_Node000002" class="edge">
<title>Node1&#45;&gt;Node2</title>
<g id="a_edge1_Node000001_Node000002"><a xlink:title=" ">
<path fill="none" stroke="#63b8ff" d="M550.35,-203.89C538.74,-237.17 510.34,-304.92 462,-339.5 408.4,-377.85 332.43,-389.67 279.76,-392.96"/>
<polygon fill="#63b8ff" stroke="#63b8ff" points="553.68,-204.97 553.53,-194.38 547.04,-202.75 553.68,-204.97"/>
</a>
</g>
</g>
<!-- Node3 -->
<g id="Node000003" class="node">
<title>Node3</title>
<g id="a_Node000003"><a xlink:href="ade7816_8c.html#ad654d8d9adf2a6fe790bb089bb1305df" target="_top" xlink:title="ADE7816 group selection for channels function.">
<polygon fill="white" stroke="#666666" points="444.5,-330 333.5,-330 333.5,-311 444.5,-311 444.5,-330"/>
<text text-anchor="middle" x="389" y="-318" font-family="Helvetica,sans-Serif" font-size="10.00">ade7816_group_sel</text>
</a>
</g>
</g>
<!-- Node1&#45;&gt;Node3 -->
<g id="edge2_Node000001_Node000003" class="edge">
<title>Node1&#45;&gt;Node3</title>
<g id="a_edge2_Node000001_Node000003"><a xlink:title=" ">
<path fill="none" stroke="#63b8ff" d="M545.59,-202.88C530.03,-227.58 499.18,-271.29 462,-296.5 452.84,-302.71 441.94,-307.43 431.43,-310.97"/>
<polygon fill="#63b8ff" stroke="#63b8ff" points="548.71,-204.49 550.96,-194.13 542.74,-200.82 548.71,-204.49"/>
</a>
</g>
</g>
<!-- Node5 -->
<g id="Node000005" class="node">
<title>Node5</title>
<g id="a_Node000005"><a xlink:href="ade7816_8c.html#a00fcd83d9557c2dac98209efcad63c64" target="_top" xlink:title="ADE7816 set power direction for channel function.">
<polygon fill="white" stroke="#666666" points="274,-292 162,-292 162,-273 274,-273 274,-292"/>
<text text-anchor="middle" x="218" y="-280" font-family="Helvetica,sans-Serif" font-size="10.00">ade7816_power_dir</text>
</a>
</g>
</g>
<!-- Node1&#45;&gt;Node5 -->
<g id="edge8_Node000001_Node000005" class="edge">
<title>Node1&#45;&gt;Node5</title>
<g id="a_edge8_Node000001_Node000005"><a xlink:title=" ">
<path fill="none" stroke="#63b8ff" d="M540.92,-201.41C523.54,-219.02 493.7,-245.79 462,-258.5 401.01,-282.96 324.8,-286.6 274.15,-285.66"/>
<polygon fill="#63b8ff" stroke="#63b8ff" points="543.58,-203.68 547.98,-194.04 538.53,-198.83 543.58,-203.68"/>
</a>
</g>
</g>
<!-- Node7 -->
<g id="Node000007" class="node">
<title>Node7</title>
<g id="a_Node000007"><a xlink:href="ade7816_2src_2examples_2basic_2basic__example_8c.html#a72943dc9011d36293cb05ca5d7cb6899" target="_top" xlink:title="Basic example main execution.">
<polygon fill="white" stroke="#666666" points="120,-211 0,-211 0,-192 120,-192 120,-211"/>
<text text-anchor="middle" x="60" y="-199" font-family="Helvetica,sans-Serif" font-size="10.00">basic_example_main</text>
</a>
</g>
</g>
<!-- Node1&#45;&gt;Node7 -->
<g id="edge19_Node000001_Node000007" class="edge">
<title>Node1&#45;&gt;Node7</title>
<g id="a_edge19_Node000001_Node000007"><a xlink:title=" ">
<path fill="none" stroke="#63b8ff" d="M510.58,-196.4C495.22,-200.06 477.94,-203.82 462,-206.5 327.62,-229.07 291.22,-242.32 156,-225.5 133.89,-222.75 109.53,-216.53 91.01,-211.11"/>
<polygon fill="#63b8ff" stroke="#63b8ff" points="511.47,-199.79 520.36,-194.03 509.82,-192.99 511.47,-199.79"/>
</a>
</g>
</g>
<!-- Node8 -->
<g id="Node000008" class="node">
<title>Node8</title>
<g id="a_Node000008"><a xlink:href="ade7816_8c.html#a7e96c58b9643c767128763c293abbe8c" target="_top" xlink:title="ADE7816 read active energy function.">
<polygon fill="white" stroke="#666666" points="278.5,-216.5 157.5,-216.5 157.5,-186.5 278.5,-186.5 278.5,-216.5"/>
<text text-anchor="start" x="165.5" y="-204.5" font-family="Helvetica,sans-Serif" font-size="10.00">ade7816_read_active</text>
<text text-anchor="middle" x="218" y="-193.5" font-family="Helvetica,sans-Serif" font-size="10.00">_energy</text>
</a>
</g>
</g>
<!-- Node1&#45;&gt;Node8 -->
<g id="edge9_Node000001_Node000008" class="edge">
<title>Node1&#45;&gt;Node8</title>
<g id="a_edge9_Node000001_Node000008"><a xlink:title=" ">
<path fill="none" stroke="#63b8ff" d="M487.71,-187.97C426.21,-191.06 337.02,-195.56 278.53,-198.5"/>
<polygon fill="#63b8ff" stroke="#63b8ff" points="487.9,-191.46 497.71,-187.46 487.55,-184.47 487.9,-191.46"/>
</a>
</g>
</g>
<!-- Node9 -->
<g id="Node000009" class="node">
<title>Node9</title>
<g id="a_Node000009"><a xlink:href="ade7816_8c.html#a64c419482395092ebbe7cd714f519392" target="_top" xlink:title="ADE7816 read reactive energy value function.">
<polygon fill="white" stroke="#666666" points="454.5,-178.5 323.5,-178.5 323.5,-148.5 454.5,-148.5 454.5,-178.5"/>
<text text-anchor="start" x="331.5" y="-166.5" font-family="Helvetica,sans-Serif" font-size="10.00">ade7816_read_reactive</text>
<text text-anchor="middle" x="389" y="-155.5" font-family="Helvetica,sans-Serif" font-size="10.00">_energy</text>
</a>
</g>
</g>
<!-- Node1&#45;&gt;Node9 -->
<g id="edge11_Node000001_Node000009" class="edge">
<title>Node1&#45;&gt;Node9</title>
<g id="a_edge11_Node000001_Node000009"><a xlink:title=" ">
<path fill="none" stroke="#63b8ff" d="M487.85,-175.84C476.88,-174.46 465.56,-173.03 454.69,-171.66"/>
<polygon fill="#63b8ff" stroke="#63b8ff" points="487.44,-179.32 497.8,-177.1 488.31,-172.37 487.44,-179.32"/>
</a>
</g>
</g>
<!-- Node10 -->
<g id="Node000010" class="node">
<title>Node10</title>
<g id="a_Node000010"><a xlink:href="ade7816_8c.html#aee753094ae017b3041d658565456c84c" target="_top" xlink:title="ADE7816 set communication function.">
<polygon fill="white" stroke="#666666" points="446.5,-130 331.5,-130 331.5,-111 446.5,-111 446.5,-130"/>
<text text-anchor="middle" x="389" y="-118" font-family="Helvetica,sans-Serif" font-size="10.00">ade7816_set_comm</text>
</a>
</g>
</g>
<!-- Node1&#45;&gt;Node10 -->
<g id="edge13_Node000001_Node000010" class="edge">
<title>Node1&#45;&gt;Node10</title>
<g id="a_edge13_Node000001_Node000010"><a xlink:title=" ">
<path fill="none" stroke="#63b8ff" d="M529.76,-170.12C511.15,-160.52 485.54,-148.12 462,-139.5 452.29,-135.94 441.62,-132.75 431.53,-130.05"/>
<polygon fill="#63b8ff" stroke="#63b8ff" points="528.33,-173.32 538.81,-174.85 531.57,-167.12 528.33,-173.32"/>
</a>
</g>
</g>
<!-- Node12 -->
<g id="Node000012" class="node">
<title>Node12</title>
<g id="a_Node000012"><a xlink:href="ade7816_8c.html#a76148c378ebe80d81e5c887037a2a6d1" target="_top" xlink:title="ADE7816 set interrupts function.">
<polygon fill="white" stroke="#666666" points="452,-93 326,-93 326,-74 452,-74 452,-93"/>
<text text-anchor="middle" x="389" y="-81" font-family="Helvetica,sans-Serif" font-size="10.00">ade7816_set_interrupt</text>
</a>
</g>
</g>
<!-- Node1&#45;&gt;Node12 -->
<g id="edge16_Node000001_Node000012" class="edge">
<title>Node1&#45;&gt;Node12</title>
<g id="a_edge16_Node000001_Node000012"><a xlink:title=" ">
<path fill="none" stroke="#63b8ff" d="M541.69,-167.31C524.45,-148.37 494.18,-118.37 462,-101.5 455.5,-98.09 448.32,-95.31 441.09,-93.04"/>
<polygon fill="#63b8ff" stroke="#63b8ff" points="539.2,-169.77 548.46,-174.91 544.43,-165.11 539.2,-169.77"/>
</a>
</g>
</g>
<!-- Node13 -->
<g id="Node000013" class="node">
<title>Node13</title>
<g id="a_Node000013"><a xlink:href="ade7816_8c.html#a366c172ff092625010bf86cb50112035" target="_top" xlink:title="ADE7816 set line cycle mode function.">
<polygon fill="white" stroke="#666666" points="462,-56 316,-56 316,-37 462,-37 462,-56"/>
<text text-anchor="middle" x="389" y="-44" font-family="Helvetica,sans-Serif" font-size="10.00">ade7816_set_lcycle_mode</text>
</a>
</g>
</g>
<!-- Node1&#45;&gt;Node13 -->
<g id="edge17_Node000001_Node000013" class="edge">
<title>Node1&#45;&gt;Node13</title>
<g id="a_edge17_Node000001_Node000013"><a xlink:title=" ">
<path fill="none" stroke="#63b8ff" d="M547.06,-165.91C532.51,-139.23 502.07,-90.43 462,-64.5 456.7,-61.07 450.79,-58.29 444.7,-56.05"/>
<polygon fill="#63b8ff" stroke="#63b8ff" points="544.07,-167.75 551.84,-174.96 550.26,-164.48 544.07,-167.75"/>
</a>
</g>
</g>
<!-- Node14 -->
<g id="Node000014" class="node">
<title>Node14</title>
<g id="a_Node000014"><a xlink:href="ade7816_8c.html#a2017aa9e0dec9eef9ab713efe3d7af13" target="_top" xlink:title="ADE7816 software reset function.">
<polygon fill="white" stroke="#666666" points="442.5,-19 335.5,-19 335.5,0 442.5,0 442.5,-19"/>
<text text-anchor="middle" x="389" y="-7" font-family="Helvetica,sans-Serif" font-size="10.00">ade7816_sw_reset</text>
</a>
</g>
</g>
<!-- Node1&#45;&gt;Node14 -->
<g id="edge18_Node000001_Node000014" class="edge">
<title>Node1&#45;&gt;Node14</title>
<g id="a_edge18_Node000001_Node000014"><a xlink:title=" ">
<path fill="none" stroke="#63b8ff" d="M550.34,-165.04C538.71,-131.56 510.25,-63.2 462,-27.5 456.2,-23.21 449.49,-19.93 442.55,-17.43"/>
<polygon fill="#63b8ff" stroke="#63b8ff" points="547.17,-166.58 553.65,-174.96 553.81,-164.37 547.17,-166.58"/>
</a>
</g>
</g>
<!-- Node3&#45;&gt;Node2 -->
<g id="edge3_Node000003_Node000002" class="edge">
<title>Node3&#45;&gt;Node2</title>
<g id="a_edge3_Node000003_Node000002"><a xlink:title=" ">
<path fill="none" stroke="#63b8ff" d="M362.79,-335.02C341.29,-346.99 309.29,-363.84 280,-375.5 272.2,-378.6 263.66,-381.45 255.5,-383.92"/>
<polygon fill="#63b8ff" stroke="#63b8ff" points="364.61,-338.01 371.61,-330.05 361.18,-331.91 364.61,-338.01"/>
</a>
</g>
</g>
<!-- Node4 -->
<g id="Node000004" class="node">
<title>Node4</title>
<g id="a_Node000004"><a xlink:href="ade7816_8c.html#a31d570dab92fb7344f2f020fb5e33433" target="_top" xlink:title="ADE7816 set peak detection for channel function.">
<polygon fill="white" stroke="#666666" points="280,-366 156,-366 156,-347 280,-347 280,-366"/>
<text text-anchor="middle" x="218" y="-354" font-family="Helvetica,sans-Serif" font-size="10.00">ade7816_peak_detect</text>
</a>
</g>
</g>
<!-- Node3&#45;&gt;Node4 -->
<g id="edge4_Node000003_Node000004" class="edge">
<title>Node3&#45;&gt;Node4</title>
<g id="a_edge4_Node000003_Node000004"><a xlink:title=" ">
<path fill="none" stroke="#63b8ff" d="M333.1,-332.2C310.66,-336.97 285.03,-342.43 263.76,-346.97"/>
<polygon fill="#63b8ff" stroke="#63b8ff" points="334.1,-335.56 343.15,-330.05 332.65,-328.71 334.1,-335.56"/>
</a>
</g>
</g>
<!-- Node3&#45;&gt;Node5 -->
<g id="edge5_Node000003_Node000005" class="edge">
<title>Node3&#45;&gt;Node5</title>
<g id="a_edge5_Node000003_Node000005"><a xlink:title=" ">
<path fill="none" stroke="#63b8ff" d="M335.41,-308.68C311.59,-303.32 283.79,-297.07 261.34,-292.02"/>
<polygon fill="#63b8ff" stroke="#63b8ff" points="334.83,-312.13 345.35,-310.91 336.37,-305.3 334.83,-312.13"/>
</a>
</g>
</g>
<!-- Node6 -->
<g id="Node000006" class="node">
<title>Node6</title>
<g id="a_Node000006"><a xlink:href="ade7816_8c.html#a7615dc95ad728c4735ecf2a45b5c5ca3" target="_top" xlink:title="ADE7816 zero&#45;crossing detection for channel function.">
<polygon fill="white" stroke="#666666" points="273.5,-329 162.5,-329 162.5,-310 273.5,-310 273.5,-329"/>
<text text-anchor="middle" x="218" y="-317" font-family="Helvetica,sans-Serif" font-size="10.00">ade7816_zx_detect</text>
</a>
</g>
</g>
<!-- Node3&#45;&gt;Node6 -->
<g id="edge6_Node000003_Node000006" class="edge">
<title>Node3&#45;&gt;Node6</title>
<g id="a_edge6_Node000003_Node000006"><a xlink:title=" ">
<path fill="none" stroke="#63b8ff" d="M323.11,-320.12C306.76,-320.02 289.38,-319.92 273.59,-319.82"/>
<polygon fill="#63b8ff" stroke="#63b8ff" points="323.11,-323.62 333.13,-320.18 323.15,-316.62 323.11,-323.62"/>
</a>
</g>
</g>
<!-- Node6&#45;&gt;Node7 -->
<g id="edge7_Node000006_Node000007" class="edge">
<title>Node6&#45;&gt;Node7</title>
<g id="a_edge7_Node000006_Node000007"><a xlink:title=" ">
<path fill="none" stroke="#63b8ff" d="M164.77,-306.15C161.73,-304.75 158.78,-303.2 156,-301.5 115.76,-276.88 81.19,-230.94 67.4,-211.06"/>
<polygon fill="#63b8ff" stroke="#63b8ff" points="163.52,-309.42 174.1,-309.97 166.17,-302.94 163.52,-309.42"/>
</a>
</g>
</g>
<!-- Node8&#45;&gt;Node7 -->
<g id="edge10_Node000008_Node000007" class="edge">
<title>Node8&#45;&gt;Node7</title>
<g id="a_edge10_Node000008_Node000007"><a xlink:title=" ">
<path fill="none" stroke="#63b8ff" d="M147.08,-201.5C138.1,-201.5 128.98,-201.5 120.19,-201.5"/>
<polygon fill="#63b8ff" stroke="#63b8ff" points="147.13,-205 157.13,-201.5 147.13,-198 147.13,-205"/>
</a>
</g>
</g>
<!-- Node9&#45;&gt;Node7 -->
<g id="edge12_Node000009_Node000007" class="edge">
<title>Node9&#45;&gt;Node7</title>
<g id="a_edge12_Node000009_Node000007"><a xlink:title=" ">
<path fill="none" stroke="#63b8ff" d="M313.04,-164.47C267.42,-165.94 208.08,-169.42 156,-177.5 134.65,-180.81 111.1,-186.74 92.79,-191.88"/>
<polygon fill="#63b8ff" stroke="#63b8ff" points="313.26,-167.97 323.15,-164.17 313.05,-160.97 313.26,-167.97"/>
</a>
</g>
</g>
<!-- Node11 -->
<g id="Node000011" class="node">
<title>Node11</title>
<g id="a_Node000011"><a xlink:href="ade7816_8c.html#ac294be7c53212f7157e0f12ba10a04be" target="_top" xlink:title="Initialize and configure the ADE7816 device.">
<polygon fill="white" stroke="#666666" points="258,-130 178,-130 178,-111 258,-111 258,-130"/>
<text text-anchor="middle" x="218" y="-118" font-family="Helvetica,sans-Serif" font-size="10.00">ade7816_init</text>
</a>
</g>
</g>
<!-- Node10&#45;&gt;Node11 -->
<g id="edge14_Node000010_Node000011" class="edge">
<title>Node10&#45;&gt;Node11</title>
<g id="a_edge14_Node000010_Node000011"><a xlink:title=" ">
<path fill="none" stroke="#63b8ff" d="M321.22,-120.5C299.79,-120.5 276.77,-120.5 258.01,-120.5"/>
<polygon fill="#63b8ff" stroke="#63b8ff" points="321.26,-124 331.26,-120.5 321.26,-117 321.26,-124"/>
</a>
</g>
</g>
<!-- Node11&#45;&gt;Node7 -->
<g id="edge15_Node000011_Node000007" class="edge">
<title>Node11&#45;&gt;Node7</title>
<g id="a_edge15_Node000011_Node000007"><a xlink:title=" ">
<path fill="none" stroke="#63b8ff" d="M180.5,-133.72C172.33,-136.99 163.78,-140.67 156,-144.5 126.32,-159.12 93.64,-179.82 75.39,-191.84"/>
<polygon fill="#63b8ff" stroke="#63b8ff" points="181.81,-136.96 189.86,-130.07 179.27,-130.44 181.81,-136.96"/>
</a>
</g>
</g>
</g>
</svg>
