<?xml version="1.0" encoding="UTF-8" standalone="no"?>
<!DOCTYPE svg PUBLIC "-//W3C//DTD SVG 1.1//EN"
 "http://www.w3.org/Graphics/SVG/1.1/DTD/svg11.dtd">
<!-- Generated by graphviz version 2.43.0 (0)
 -->
<!-- Title: ade9153a_write Pages: 1 -->
<!--zoomable 1176 -->

<svg id="main" version="1.1" xmlns="http://www.w3.org/2000/svg" xmlns:xlink="http://www.w3.org/1999/xlink" xml:space="preserve" onload="init(evt)">

<style type="text/css"><![CDATA[
.node, .edge {opacity: 0.7;}
.node.selected, .edge.selected {opacity: 1;}
.edge:hover path { stroke: red; }
.edge:hover polygon { stroke: red; fill: red; }
]]></style>

<defs>
  <circle id="rim" cx="0" cy="0" r="7"/>
  <circle id="rim2" cx="0" cy="0" r="3.5"/>
  <g id="zoomPlus">
    <use xlink:href="#rim" fill="#404040"><set attributeName="fill" to="#808080" begin="zoomplus.mouseover" end="zoomplus.mouseout"/></use>
    <path d="M-4,0h8M0,-4v8" fill="none" stroke="white" stroke-width="1.5" pointer-events="none"/>
  </g>
  <g id="zoomMin">
    <use xlink:href="#rim" fill="#404040"><set attributeName="fill" to="#808080" begin="zoomminus.mouseover" end="zoomminus.mouseout"/></use>
    <path d="M-4,0h8" fill="none" stroke="white" stroke-width="1.5" pointer-events="none"/>
  </g>
  <g id="arrowUp" transform="translate(30 24)">
    <use xlink:href="#rim"/>
    <path pointer-events="none" fill="none" stroke="white" stroke-width="1.5" d="M0,-3.0v7 M-2.5,-0.5L0,-3.0L2.5,-0.5"/>
  </g>
  <g id="arrowRight" transform="rotate(90) translate(36 -43)">
    <use xlink:href="#rim"/>
    <path pointer-events="none" fill="none" stroke="white" stroke-width="1.5" d="M0,-3.0v7 M-2.5,-0.5L0,-3.0L2.5,-0.5"/>
  </g>
  <g id="arrowDown" transform="rotate(180) translate(-30 -48)">
    <use xlink:href="#rim"/>
    <path pointer-events="none" fill="none" stroke="white" stroke-width="1.5" d="M0,-3.0v7 M-2.5,-0.5L0,-3.0L2.5,-0.5"/>
  </g>
  <g id="arrowLeft" transform="rotate(270) translate(-36 17)">
    <use xlink:href="#rim"/>
    <path pointer-events="none" fill="none" stroke="white" stroke-width="1.5" d="M0,-3.0v7 M-2.5,-0.5L0,-3.0L2.5,-0.5"/>
  </g>
  <g id="resetDef">
    <use xlink:href="#rim2" fill="#404040"><set attributeName="fill" to="#808080" begin="reset.mouseover" end="reset.mouseout"/></use>
  </g>
</defs>
<script type="application/ecmascript">
var viewWidth = 617;
var viewHeight = 1176;
var sectionId = 'dynsection-42';
</script>
<script type="application/ecmascript" xlink:href="svg.min.js"/>
<svg id="graph" class="graph">
<g id="viewport">
<title>ade9153a_write</title>
<!-- Node1 -->
<g id="Node000001" class="node">
<title>Node1</title>
<g id="a_Node000001"><a xlink:title="Write device register.">
<polygon fill="#999999" stroke="#666666" points="609,-578 514,-578 514,-559 609,-559 609,-578"/>
<text text-anchor="middle" x="561.5" y="-566" font-family="Helvetica,sans-Serif" font-size="10.00">ade9153a_write</text>
</a>
</g>
</g>
<!-- Node2 -->
<g id="Node000002" class="node">
<title>Node2</title>
<g id="a_Node000002"><a xlink:href="ade9153a_8c.html#af2b3784b3383441ce8a13692509c716a" target="_top" xlink:title="Set PGA gain for current channel B.">
<polygon fill="white" stroke="#666666" points="476.5,-1168 333.5,-1168 333.5,-1149 476.5,-1149 476.5,-1168"/>
<text text-anchor="middle" x="405" y="-1156" font-family="Helvetica,sans-Serif" font-size="10.00">ade9153a_bi_pgagain_set</text>
</a>
</g>
</g>
<!-- Node1&#45;&gt;Node2 -->
<g id="edge1_Node000001_Node000002" class="edge">
<title>Node1&#45;&gt;Node2</title>
<g id="a_edge1_Node000001_Node000002"><a xlink:title=" ">
<path fill="none" stroke="#63b8ff" d="M560.46,-588.31C559.87,-679.21 552.87,-1055.52 478,-1139.5 474.56,-1143.36 470.43,-1146.48 465.93,-1148.99"/>
<polygon fill="#63b8ff" stroke="#63b8ff" points="563.96,-588.07 560.51,-578.05 556.96,-588.04 563.96,-588.07"/>
</a>
</g>
</g>
<!-- Node3 -->
<g id="Node000003" class="node">
<title>Node3</title>
<g id="a_Node000003"><a xlink:href="ade9153a_8c.html#a19f7cd1cba2518bba0934cb72be8bb8e" target="_top" xlink:title="Clear APA (active power) sign change int mask.">
<polygon fill="white" stroke="#666666" points="463.5,-1130.5 346.5,-1130.5 346.5,-1100.5 463.5,-1100.5 463.5,-1130.5"/>
<text text-anchor="start" x="354.5" y="-1118.5" font-family="Helvetica,sans-Serif" font-size="10.00">ade9153a_clear_apa</text>
<text text-anchor="middle" x="405" y="-1107.5" font-family="Helvetica,sans-Serif" font-size="10.00">_chg_sgn</text>
</a>
</g>
</g>
<!-- Node1&#45;&gt;Node3 -->
<g id="edge2_Node000001_Node000003" class="edge">
<title>Node1&#45;&gt;Node3</title>
<g id="a_edge2_Node000001_Node000003"><a xlink:title=" ">
<path fill="none" stroke="#63b8ff" d="M560.05,-588.16C557.71,-673.76 544.31,-1013.21 478,-1091.5 474,-1096.23 469.04,-1100.02 463.61,-1103.08"/>
<polygon fill="#63b8ff" stroke="#63b8ff" points="563.55,-588.1 560.31,-578.01 556.56,-587.92 563.55,-588.1"/>
</a>
</g>
</g>
<!-- Node4 -->
<g id="Node000004" class="node">
<title>Node4</title>
<g id="a_Node000004"><a xlink:href="ade9153a_8c.html#af2d4ff52ceebb515fd52c8bc3419f558" target="_top" xlink:title="Clear CF1 pulse issued int mask.">
<polygon fill="white" stroke="#666666" points="462,-1082 348,-1082 348,-1063 462,-1063 462,-1082"/>
<text text-anchor="middle" x="405" y="-1070" font-family="Helvetica,sans-Serif" font-size="10.00">ade9153a_clear_cf1</text>
</a>
</g>
</g>
<!-- Node1&#45;&gt;Node4 -->
<g id="edge3_Node000001_Node000004" class="edge">
<title>Node1&#45;&gt;Node4</title>
<g id="a_edge3_Node000001_Node000004"><a xlink:title=" ">
<path fill="none" stroke="#63b8ff" d="M559.94,-588.19C557.19,-670.35 542.56,-984.78 478,-1054.5 473.62,-1059.23 468.21,-1062.79 462.33,-1065.47"/>
<polygon fill="#63b8ff" stroke="#63b8ff" points="563.44,-588.29 560.25,-578.19 556.44,-588.07 563.44,-588.29"/>
</a>
</g>
</g>
<!-- Node5 -->
<g id="Node000005" class="node">
<title>Node5</title>
<g id="a_Node000005"><a xlink:href="ade9153a_8c.html#a58771eb204fe044003414147b1e439ce" target="_top" xlink:title="Clear CF1 polarity change int mask.">
<polygon fill="white" stroke="#666666" points="473.5,-1045 336.5,-1045 336.5,-1026 473.5,-1026 473.5,-1045"/>
<text text-anchor="middle" x="405" y="-1033" font-family="Helvetica,sans-Serif" font-size="10.00">ade9153a_clear_cf1_chg</text>
</a>
</g>
</g>
<!-- Node1&#45;&gt;Node5 -->
<g id="edge4_Node000001_Node000005" class="edge">
<title>Node1&#45;&gt;Node5</title>
<g id="a_edge4_Node000001_Node000005"><a xlink:title=" ">
<path fill="none" stroke="#63b8ff" d="M559.61,-588.66C555.74,-667.51 537.72,-953.88 478,-1017.5 474.83,-1020.88 471.12,-1023.67 467.1,-1025.96"/>
<polygon fill="#63b8ff" stroke="#63b8ff" points="563.13,-588.36 560.1,-578.21 556.14,-588.04 563.13,-588.36"/>
</a>
</g>
</g>
<!-- Node6 -->
<g id="Node000006" class="node">
<title>Node6</title>
<g id="a_Node000006"><a xlink:href="ade9153a_8c.html#aedadd5e431e332992a87f93b6e058cdb" target="_top" xlink:title="Clear CF2 pulse issued int mask.">
<polygon fill="white" stroke="#666666" points="462,-1008 348,-1008 348,-989 462,-989 462,-1008"/>
<text text-anchor="middle" x="405" y="-996" font-family="Helvetica,sans-Serif" font-size="10.00">ade9153a_clear_cf2</text>
</a>
</g>
</g>
<!-- Node1&#45;&gt;Node6 -->
<g id="edge5_Node000001_Node000006" class="edge">
<title>Node1&#45;&gt;Node6</title>
<g id="a_edge5_Node000001_Node000006"><a xlink:title=" ">
<path fill="none" stroke="#63b8ff" d="M559.27,-588.42C554.27,-662.77 533.08,-922.75 478,-980.5 473.55,-985.16 468.1,-988.69 462.2,-991.35"/>
<polygon fill="#63b8ff" stroke="#63b8ff" points="562.78,-588.34 559.93,-578.14 555.8,-587.89 562.78,-588.34"/>
</a>
</g>
</g>
<!-- Node7 -->
<g id="Node000007" class="node">
<title>Node7</title>
<g id="a_Node000007"><a xlink:href="ade9153a_8c.html#a70dc2bc3dd3b2d8c3533c1d806740e07" target="_top" xlink:title="Clear CF2 polarity change int mask.">
<polygon fill="white" stroke="#666666" points="473.5,-971 336.5,-971 336.5,-952 473.5,-952 473.5,-971"/>
<text text-anchor="middle" x="405" y="-959" font-family="Helvetica,sans-Serif" font-size="10.00">ade9153a_clear_cf2_chg</text>
</a>
</g>
</g>
<!-- Node1&#45;&gt;Node7 -->
<g id="edge6_Node000001_Node000007" class="edge">
<title>Node1&#45;&gt;Node7</title>
<g id="a_edge6_Node000001_Node000007"><a xlink:title=" ">
<path fill="none" stroke="#63b8ff" d="M558.84,-588.42C552.62,-658.42 528.39,-891.65 478,-943.5 474.77,-946.83 471.02,-949.57 466.97,-951.84"/>
<polygon fill="#63b8ff" stroke="#63b8ff" points="562.34,-588.57 559.72,-578.31 555.37,-587.97 562.34,-588.57"/>
</a>
</g>
</g>
<!-- Node8 -->
<g id="Node000008" class="node">
<title>Node8</title>
<g id="a_Node000008"><a xlink:href="ade9153a_8c.html#a93acbff8aee7dec991f5f02a351ae5e0" target="_top" xlink:title="Clear CRC change int mask.">
<polygon fill="white" stroke="#666666" points="473,-934 337,-934 337,-915 473,-915 473,-934"/>
<text text-anchor="middle" x="405" y="-922" font-family="Helvetica,sans-Serif" font-size="10.00">ade9153a_clear_crc_chg</text>
</a>
</g>
</g>
<!-- Node1&#45;&gt;Node8 -->
<g id="edge7_Node000001_Node000008" class="edge">
<title>Node1&#45;&gt;Node8</title>
<g id="a_edge7_Node000001_Node000008"><a xlink:title=" ">
<path fill="none" stroke="#63b8ff" d="M558.31,-588.54C550.76,-654.09 523.7,-860.54 478,-906.5 474.64,-909.88 470.74,-912.66 466.54,-914.94"/>
<polygon fill="#63b8ff" stroke="#63b8ff" points="561.82,-588.65 559.46,-578.32 554.87,-587.87 561.82,-588.65"/>
</a>
</g>
</g>
<!-- Node9 -->
<g id="Node000009" class="node">
<title>Node9</title>
<g id="a_Node000009"><a xlink:href="ade9153a_8c.html#a6ed9b1028c41dbdd596fcb323715b09f" target="_top" xlink:title="Clear CRC done int mask.">
<polygon fill="white" stroke="#666666" points="476.5,-897 333.5,-897 333.5,-878 476.5,-878 476.5,-897"/>
<text text-anchor="middle" x="405" y="-885" font-family="Helvetica,sans-Serif" font-size="10.00">ade9153a_clear_crc_done</text>
</a>
</g>
</g>
<!-- Node1&#45;&gt;Node9 -->
<g id="edge8_Node000001_Node000009" class="edge">
<title>Node1&#45;&gt;Node9</title>
<g id="a_edge8_Node000001_Node000009"><a xlink:title=" ">
<path fill="none" stroke="#63b8ff" d="M557.71,-588.29C548.78,-648.74 519.13,-829.29 478,-869.5 474.59,-872.83 470.66,-875.58 466.44,-877.84"/>
<polygon fill="#63b8ff" stroke="#63b8ff" points="561.2,-588.57 559.17,-578.17 554.27,-587.56 561.2,-588.57"/>
</a>
</g>
</g>
<!-- Node10 -->
<g id="Node000010" class="node">
<title>Node10</title>
<g id="a_Node000010"><a xlink:href="ade9153a_8c.html#ae83bb1bbd4a872d0c7abfb4f8de247f8" target="_top" xlink:title="Clear new waveform samples ready int mask.">
<polygon fill="white" stroke="#666666" points="471.5,-860 338.5,-860 338.5,-841 471.5,-841 471.5,-860"/>
<text text-anchor="middle" x="405" y="-848" font-family="Helvetica,sans-Serif" font-size="10.00">ade9153a_clear_dready</text>
</a>
</g>
</g>
<!-- Node1&#45;&gt;Node10 -->
<g id="edge9_Node000001_Node000010" class="edge">
<title>Node1&#45;&gt;Node10</title>
<g id="a_edge9_Node000001_Node000010"><a xlink:title=" ">
<path fill="none" stroke="#63b8ff" d="M560.49,-588.33C559.34,-637.38 549.29,-765.22 478,-832.5 474.44,-835.86 470.35,-838.62 465.97,-840.88"/>
<polygon fill="#63b8ff" stroke="#63b8ff" points="563.99,-588.17 560.62,-578.13 556.99,-588.08 563.99,-588.17"/>
</a>
</g>
</g>
<!-- Node11 -->
<g id="Node000011" class="node">
<title>Node11</title>
<g id="a_Node000011"><a xlink:href="ade9153a_8c.html#ae3ac1aa17ddad104c21672acdd33e6e2" target="_top" xlink:title="Clear power values egy ready int mask.">
<polygon fill="white" stroke="#666666" points="471.5,-823 338.5,-823 338.5,-804 471.5,-804 471.5,-823"/>
<text text-anchor="middle" x="405" y="-811" font-family="Helvetica,sans-Serif" font-size="10.00">ade9153a_clear_egyrdy</text>
</a>
</g>
</g>
<!-- Node1&#45;&gt;Node11 -->
<g id="edge10_Node000001_Node000011" class="edge">
<title>Node1&#45;&gt;Node11</title>
<g id="a_edge10_Node000001_Node000011"><a xlink:title=" ">
<path fill="none" stroke="#63b8ff" d="M559.3,-588.52C555.55,-632.79 540.17,-739.46 478,-795.5 474.27,-798.86 470,-801.62 465.45,-803.88"/>
<polygon fill="#63b8ff" stroke="#63b8ff" points="562.8,-588.69 560.05,-578.46 555.82,-588.17 562.8,-588.69"/>
</a>
</g>
</g>
<!-- Node12 -->
<g id="Node000012" class="node">
<title>Node12</title>
<g id="a_Node000012"><a xlink:href="ade9153a_8c.html#a3e67bc631e66f90bc09e1776cf9cd3d4" target="_top" xlink:title="Clear fundamental reactive energy no load condition int mask.">
<polygon fill="white" stroke="#666666" points="469,-786 341,-786 341,-767 469,-767 469,-786"/>
<text text-anchor="middle" x="405" y="-774" font-family="Helvetica,sans-Serif" font-size="10.00">ade9153a_clear_fvarnl</text>
</a>
</g>
</g>
<!-- Node1&#45;&gt;Node12 -->
<g id="edge11_Node000001_Node000012" class="edge">
<title>Node1&#45;&gt;Node12</title>
<g id="a_edge11_Node000001_Node000012"><a xlink:title=" ">
<path fill="none" stroke="#63b8ff" d="M557.77,-588.13C551.32,-626.85 531.43,-713.21 478,-758.5 473.97,-761.92 469.38,-764.7 464.52,-766.96"/>
<polygon fill="#63b8ff" stroke="#63b8ff" points="561.24,-588.56 559.31,-578.15 554.33,-587.5 561.24,-588.56"/>
</a>
</g>
</g>
<!-- Node13 -->
<g id="Node000013" class="node">
<title>Node13</title>
<g id="a_Node000013"><a xlink:href="ade9153a_8c.html#a11f838fd1e69e680616c1feda3b91a35" target="_top" xlink:title="Clear PF ready int mask.">
<polygon fill="white" stroke="#666666" points="470,-749 340,-749 340,-730 470,-730 470,-749"/>
<text text-anchor="middle" x="405" y="-737" font-family="Helvetica,sans-Serif" font-size="10.00">ade9153a_clear_pf_rdy</text>
</a>
</g>
</g>
<!-- Node1&#45;&gt;Node13 -->
<g id="edge12_Node000001_Node000013" class="edge">
<title>Node1&#45;&gt;Node13</title>
<g id="a_edge12_Node000001_Node000013"><a xlink:title=" ">
<path fill="none" stroke="#63b8ff" d="M555.58,-587.9C546.24,-620.65 522.74,-686.73 478,-721.5 473.63,-724.9 468.69,-727.67 463.5,-729.91"/>
<polygon fill="#63b8ff" stroke="#63b8ff" points="558.98,-588.73 558.21,-578.16 552.22,-586.9 558.98,-588.73"/>
</a>
</g>
</g>
<!-- Node14 -->
<g id="Node000014" class="node">
<title>Node14</title>
<g id="a_Node000014"><a xlink:href="ade9153a_8c.html#aef7e7f046a5842fa6faa78c00a20625a" target="_top" xlink:title="Clear power values registers update int mask.">
<polygon fill="white" stroke="#666666" points="471.5,-712 338.5,-712 338.5,-693 471.5,-693 471.5,-712"/>
<text text-anchor="middle" x="405" y="-700" font-family="Helvetica,sans-Serif" font-size="10.00">ade9153a_clear_pwrrdy</text>
</a>
</g>
</g>
<!-- Node1&#45;&gt;Node14 -->
<g id="edge13_Node000001_Node000014" class="edge">
<title>Node1&#45;&gt;Node14</title>
<g id="a_edge13_Node000001_Node000014"><a xlink:title=" ">
<path fill="none" stroke="#63b8ff" d="M552.11,-587.35C539.67,-613.07 513.91,-658.76 478,-683.5 472.36,-687.39 465.97,-690.48 459.38,-692.94"/>
<polygon fill="#63b8ff" stroke="#63b8ff" points="555.29,-588.81 556.34,-578.26 548.95,-585.85 555.29,-588.81"/>
</a>
</g>
</g>
<!-- Node15 -->
<g id="Node000015" class="node">
<title>Node15</title>
<g id="a_Node000015"><a xlink:href="ade9153a_8c.html#a5768e76dd3dc3975e3f1ad02a672a143" target="_top" xlink:title="Clear RMS_OC values update int mask.">
<polygon fill="white" stroke="#666666" points="464,-674.5 346,-674.5 346,-644.5 464,-644.5 464,-674.5"/>
<text text-anchor="start" x="354" y="-662.5" font-family="Helvetica,sans-Serif" font-size="10.00">ade9153a_clear_rms</text>
<text text-anchor="middle" x="405" y="-651.5" font-family="Helvetica,sans-Serif" font-size="10.00">_oc_rdy</text>
</a>
</g>
</g>
<!-- Node1&#45;&gt;Node15 -->
<g id="edge14_Node000001_Node000015" class="edge">
<title>Node1&#45;&gt;Node15</title>
<g id="a_edge14_Node000001_Node000015"><a xlink:title=" ">
<path fill="none" stroke="#63b8ff" d="M543.81,-585.14C528.02,-600.09 503.07,-621.74 478,-635.5 471.88,-638.86 465.2,-641.86 458.47,-644.5"/>
<polygon fill="#63b8ff" stroke="#63b8ff" points="546.43,-587.48 551.18,-578.01 541.56,-582.44 546.43,-587.48"/>
</a>
</g>
</g>
<!-- Node16 -->
<g id="Node000016" class="node">
<title>Node16</title>
<g id="a_Node000016"><a xlink:href="ade9153a_8c.html#a4f7de945ea1911274ee96e5e7c8b9577" target="_top" xlink:title="Clear RPA (reactive power) sign change int mask.">
<polygon fill="white" stroke="#666666" points="462.5,-626.5 347.5,-626.5 347.5,-596.5 462.5,-596.5 462.5,-626.5"/>
<text text-anchor="start" x="355.5" y="-614.5" font-family="Helvetica,sans-Serif" font-size="10.00">ade9153a_clear_rpa</text>
<text text-anchor="middle" x="405" y="-603.5" font-family="Helvetica,sans-Serif" font-size="10.00">_chg_sgn</text>
</a>
</g>
</g>
<!-- Node1&#45;&gt;Node16 -->
<g id="edge15_Node000001_Node000016" class="edge">
<title>Node1&#45;&gt;Node16</title>
<g id="a_edge15_Node000001_Node000016"><a xlink:title=" ">
<path fill="none" stroke="#63b8ff" d="M516.23,-580.82C498.68,-585.71 478.32,-591.37 459.92,-596.49"/>
<polygon fill="#63b8ff" stroke="#63b8ff" points="517.52,-584.1 526.21,-578.04 515.64,-577.35 517.52,-584.1"/>
</a>
</g>
</g>
<!-- Node17 -->
<g id="Node000017" class="node">
<title>Node17</title>
<g id="a_Node000017"><a xlink:href="ade9153a_8c.html#a9dc30e3c30671e09b8c0a29be4cf68a4" target="_top" xlink:title="Clear reset done int mask.">
<polygon fill="white" stroke="#666666" points="473,-578 337,-578 337,-559 473,-559 473,-578"/>
<text text-anchor="middle" x="405" y="-566" font-family="Helvetica,sans-Serif" font-size="10.00">ade9153a_clear_rstdone</text>
</a>
</g>
</g>
<!-- Node1&#45;&gt;Node17 -->
<g id="edge16_Node000001_Node000017" class="edge">
<title>Node1&#45;&gt;Node17</title>
<g id="a_edge16_Node000001_Node000017"><a xlink:title=" ">
<path fill="none" stroke="#63b8ff" d="M503.6,-568.5C493.69,-568.5 483.29,-568.5 473.13,-568.5"/>
<polygon fill="#63b8ff" stroke="#63b8ff" points="503.73,-572 513.73,-568.5 503.73,-565 503.73,-572"/>
</a>
</g>
</g>
<!-- Node18 -->
<g id="Node000018" class="node">
<title>Node18</title>
<g id="a_Node000018"><a xlink:href="ade9153a_8c.html#a118df0db7ab61ad9d364d8ba539ff287" target="_top" xlink:title="Clear new temperature reading ready int mask.">
<polygon fill="white" stroke="#666666" points="478,-541 332,-541 332,-522 478,-522 478,-541"/>
<text text-anchor="middle" x="405" y="-529" font-family="Helvetica,sans-Serif" font-size="10.00">ade9153a_clear_temp_rdy</text>
</a>
</g>
</g>
<!-- Node1&#45;&gt;Node18 -->
<g id="edge17_Node000001_Node000018" class="edge">
<title>Node1&#45;&gt;Node18</title>
<g id="a_edge17_Node000001_Node000018"><a xlink:title=" ">
<path fill="none" stroke="#63b8ff" d="M510.7,-556.57C489.75,-551.56 465.69,-545.79 445.92,-541.06"/>
<polygon fill="#63b8ff" stroke="#63b8ff" points="510.17,-560.05 520.71,-558.97 511.8,-553.24 510.17,-560.05"/>
</a>
</g>
</g>
<!-- Node21 -->
<g id="Node000021" class="node">
<title>Node21</title>
<g id="a_Node000021"><a xlink:href="ade9153a_8c.html#a012c6c4017e93e1afa201193831e0d6d" target="_top" xlink:title="Clear total apparent energy no load condition int mask.">
<polygon fill="white" stroke="#666666" points="465,-504 345,-504 345,-485 465,-485 465,-504"/>
<text text-anchor="middle" x="405" y="-492" font-family="Helvetica,sans-Serif" font-size="10.00">ade9153a_clear_vanl</text>
</a>
</g>
</g>
<!-- Node1&#45;&gt;Node21 -->
<g id="edge20_Node000001_Node000021" class="edge">
<title>Node1&#45;&gt;Node21</title>
<g id="a_edge20_Node000001_Node000021"><a xlink:title=" ">
<path fill="none" stroke="#63b8ff" d="M540.85,-552.68C524.79,-540.44 501.04,-523.87 478,-513.5 469.63,-509.73 460.36,-506.59 451.34,-504.02"/>
<polygon fill="#63b8ff" stroke="#63b8ff" points="538.89,-555.59 548.94,-558.97 543.19,-550.07 538.89,-555.59"/>
</a>
</g>
</g>
<!-- Node22 -->
<g id="Node000022" class="node">
<title>Node22</title>
<g id="a_Node000022"><a xlink:href="ade9153a_8c.html#a86a9ea2becea170bcdb6709974ae38c8" target="_top" xlink:title="Clear total active energy no load condition int mask.">
<polygon fill="white" stroke="#666666" points="470,-467 340,-467 340,-448 470,-448 470,-467"/>
<text text-anchor="middle" x="405" y="-455" font-family="Helvetica,sans-Serif" font-size="10.00">ade9153a_clear_wattnl</text>
</a>
</g>
</g>
<!-- Node1&#45;&gt;Node22 -->
<g id="edge21_Node000001_Node000022" class="edge">
<title>Node1&#45;&gt;Node22</title>
<g id="a_edge21_Node000001_Node000022"><a xlink:title=" ">
<path fill="none" stroke="#63b8ff" d="M548.92,-550.11C534.74,-529.14 508.79,-495.33 478,-476.5 471.71,-472.66 464.66,-469.58 457.49,-467.12"/>
<polygon fill="#63b8ff" stroke="#63b8ff" points="546.16,-552.3 554.57,-558.75 552.02,-548.46 546.16,-552.3"/>
</a>
</g>
</g>
<!-- Node23 -->
<g id="Node000023" class="node">
<title>Node23</title>
<g id="a_Node000023"><a xlink:href="ade9153a_8c.html#a9e993ec90a4611f4f25899d60ec41b04" target="_top" xlink:title="Clear zero crossing detect on I ch A int mask.">
<polygon fill="white" stroke="#666666" points="464.5,-430 345.5,-430 345.5,-411 464.5,-411 464.5,-430"/>
<text text-anchor="middle" x="405" y="-418" font-family="Helvetica,sans-Serif" font-size="10.00">ade9153a_clear_zxai</text>
</a>
</g>
</g>
<!-- Node1&#45;&gt;Node23 -->
<g id="edge22_Node000001_Node000023" class="edge">
<title>Node1&#45;&gt;Node23</title>
<g id="a_edge22_Node000001_Node000023"><a xlink:title=" ">
<path fill="none" stroke="#63b8ff" d="M553.4,-549.02C541.99,-520.53 516.86,-467.83 478,-439.5 472.67,-435.62 466.61,-432.53 460.32,-430.07"/>
<polygon fill="#63b8ff" stroke="#63b8ff" points="550.24,-550.57 557.1,-558.65 556.78,-548.06 550.24,-550.57"/>
</a>
</g>
</g>
<!-- Node24 -->
<g id="Node000024" class="node">
<title>Node24</title>
<g id="a_Node000024"><a xlink:href="ade9153a_8c.html#ac25c450c07a2829a4685e7af8e9a5a20" target="_top" xlink:title="Clear zero crossing detect on V ch int mask.">
<polygon fill="white" stroke="#666666" points="466,-393 344,-393 344,-374 466,-374 466,-393"/>
<text text-anchor="middle" x="405" y="-381" font-family="Helvetica,sans-Serif" font-size="10.00">ade9153a_clear_zxav</text>
</a>
</g>
</g>
<!-- Node1&#45;&gt;Node24 -->
<g id="edge23_Node000001_Node000024" class="edge">
<title>Node1&#45;&gt;Node24</title>
<g id="a_edge23_Node000001_Node000024"><a xlink:title=" ">
<path fill="none" stroke="#63b8ff" d="M556.38,-549.01C547.98,-514.16 525.5,-441.21 478,-402.5 473.29,-398.66 467.88,-395.59 462.19,-393.14"/>
<polygon fill="#63b8ff" stroke="#63b8ff" points="553,-549.92 558.63,-558.89 559.82,-548.36 553,-549.92"/>
</a>
</g>
</g>
<!-- Node25 -->
<g id="Node000025" class="node">
<title>Node25</title>
<g id="a_Node000025"><a xlink:href="ade9153a_8c.html#ab47be5f1b27e8c611a6c4531f8b909e2" target="_top" xlink:title="Clear zero crossing detect on I ch B int mask.">
<polygon fill="white" stroke="#666666" points="464.5,-356 345.5,-356 345.5,-337 464.5,-337 464.5,-356"/>
<text text-anchor="middle" x="405" y="-344" font-family="Helvetica,sans-Serif" font-size="10.00">ade9153a_clear_zxbi</text>
</a>
</g>
</g>
<!-- Node1&#45;&gt;Node25 -->
<g id="edge24_Node000001_Node000025" class="edge">
<title>Node1&#45;&gt;Node25</title>
<g id="a_edge24_Node000001_Node000025"><a xlink:title=" ">
<path fill="none" stroke="#63b8ff" d="M558.3,-548.71C552.7,-508.07 534.14,-414.88 478,-365.5 473.63,-361.66 468.57,-358.58 463.21,-356.11"/>
<polygon fill="#63b8ff" stroke="#63b8ff" points="554.84,-549.22 559.56,-558.7 561.78,-548.35 554.84,-549.22"/>
</a>
</g>
</g>
<!-- Node26 -->
<g id="Node000026" class="node">
<title>Node26</title>
<g id="a_Node000026"><a xlink:href="ade9153a_8c.html#afeb270063d456210699cbf7d080b4fb5" target="_top" xlink:title="Clear zero crossing timout on V ch int mask.">
<polygon fill="white" stroke="#666666" points="471,-319 339,-319 339,-300 471,-300 471,-319"/>
<text text-anchor="middle" x="405" y="-307" font-family="Helvetica,sans-Serif" font-size="10.00">ade9153a_clear_zxtoav</text>
</a>
</g>
</g>
<!-- Node1&#45;&gt;Node26 -->
<g id="edge25_Node000001_Node000026" class="edge">
<title>Node1&#45;&gt;Node26</title>
<g id="a_edge25_Node000001_Node000026"><a xlink:title=" ">
<path fill="none" stroke="#63b8ff" d="M559.69,-548.35C556.73,-502.32 542.86,-388.78 478,-328.5 473.83,-324.63 468.97,-321.52 463.78,-319.04"/>
<polygon fill="#63b8ff" stroke="#63b8ff" points="556.21,-548.73 560.24,-558.53 563.2,-548.36 556.21,-548.73"/>
</a>
</g>
</g>
<!-- Node27 -->
<g id="Node000027" class="node">
<title>Node27</title>
<g id="a_Node000027"><a xlink:href="ade9153a_8c.html#aabf054f4ac17617bd9b93ccb35ac1548" target="_top" xlink:title="COMPMODE.">
<polygon fill="white" stroke="#666666" points="467.5,-282 342.5,-282 342.5,-263 467.5,-263 467.5,-282"/>
<text text-anchor="middle" x="405" y="-270" font-family="Helvetica,sans-Serif" font-size="10.00">ade9153a_compmode</text>
</a>
</g>
</g>
<!-- Node1&#45;&gt;Node27 -->
<g id="edge26_Node000001_Node000027" class="edge">
<title>Node1&#45;&gt;Node27</title>
<g id="a_edge26_Node000001_Node000027"><a xlink:title=" ">
<path fill="none" stroke="#63b8ff" d="M560.78,-548.79C560.38,-498.3 552.05,-363.26 478,-291.5 474.01,-287.63 469.33,-284.53 464.3,-282.04"/>
<polygon fill="#63b8ff" stroke="#63b8ff" points="557.28,-548.97 560.76,-558.98 564.28,-548.99 557.28,-548.97"/>
</a>
</g>
</g>
<!-- Node28 -->
<g id="Node000028" class="node">
<title>Node28</title>
<g id="a_Node000028"><a xlink:href="ade9153a_8c.html#a1b0d3202f129c89f6d407e01ed421bd9" target="_top" xlink:title="ADE9153A setup.">
<polygon fill="white" stroke="#666666" points="273,-244 176,-244 176,-225 273,-225 273,-244"/>
<text text-anchor="middle" x="224.5" y="-232" font-family="Helvetica,sans-Serif" font-size="10.00">ade9153a_setup</text>
</a>
</g>
</g>
<!-- Node1&#45;&gt;Node28 -->
<g id="edge34_Node000001_Node000028" class="edge">
<title>Node1&#45;&gt;Node28</title>
<g id="a_edge34_Node000001_Node000028"><a xlink:title=" ">
<path fill="none" stroke="#63b8ff" d="M558.27,-548.78C550.76,-486.07 524.2,-293.13 478,-254.5 417.95,-204.29 319.34,-214.23 264.82,-224.95"/>
<polygon fill="#63b8ff" stroke="#63b8ff" points="554.82,-549.38 559.45,-558.9 561.77,-548.57 554.82,-549.38"/>
</a>
</g>
</g>
<!-- Node30 -->
<g id="Node000030" class="node">
<title>Node30</title>
<g id="a_Node000030"><a xlink:href="ade9153a_8c.html#af89ce9721bb6412b724367405adb65b2" target="_top" xlink:title="Start measurements.">
<polygon fill="white" stroke="#666666" points="448,-206 362,-206 362,-187 448,-187 448,-206"/>
<text text-anchor="middle" x="405" y="-194" font-family="Helvetica,sans-Serif" font-size="10.00">ade9153a_run</text>
</a>
</g>
</g>
<!-- Node1&#45;&gt;Node30 -->
<g id="edge29_Node000001_Node000030" class="edge">
<title>Node1&#45;&gt;Node30</title>
<g id="a_edge29_Node000001_Node000030"><a xlink:title=" ">
<path fill="none" stroke="#63b8ff" d="M558.31,-548.45C550.64,-481.9 523.07,-269.77 478,-220.5 470.17,-211.94 459.22,-206.44 448.21,-202.89"/>
<polygon fill="#63b8ff" stroke="#63b8ff" points="554.87,-549.25 559.47,-558.8 561.83,-548.47 554.87,-549.25"/>
</a>
</g>
</g>
<!-- Node32 -->
<g id="Node000032" class="node">
<title>Node32</title>
<g id="a_Node000032"><a xlink:href="eval-ade9153a_2src_2common_2common__data_8c.html#a5b32942d81fb899bcf8c3907bc9fde17" target="_top" xlink:title="Autocalibration read values.">
<polygon fill="white" stroke="#666666" points="296,-168 153,-168 153,-149 296,-149 296,-168"/>
<text text-anchor="middle" x="224.5" y="-156" font-family="Helvetica,sans-Serif" font-size="10.00">autocalibration_read_vals</text>
</a>
</g>
</g>
<!-- Node1&#45;&gt;Node32 -->
<g id="edge39_Node000001_Node000032" class="edge">
<title>Node1&#45;&gt;Node32</title>
<g id="a_edge39_Node000001_Node000032"><a xlink:title=" ">
<path fill="none" stroke="#63b8ff" d="M559.35,-548.88C554.71,-476.82 534.76,-228.35 478,-178.5 418.53,-126.27 317.86,-137.6 263.32,-148.93"/>
<polygon fill="#63b8ff" stroke="#63b8ff" points="555.86,-549.11 559.97,-558.87 562.85,-548.68 555.86,-549.11"/>
</a>
</g>
</g>
<!-- Node33 -->
<g id="Node000033" class="node">
<title>Node33</title>
<g id="a_Node000033"><a xlink:href="ade9153a_8c.html#a78a3139cbb4fb1dbf5cf3d3b436b4b83" target="_top" xlink:title="Stop measurements.">
<polygon fill="white" stroke="#666666" points="450.5,-130 359.5,-130 359.5,-111 450.5,-111 450.5,-130"/>
<text text-anchor="middle" x="405" y="-118" font-family="Helvetica,sans-Serif" font-size="10.00">ade9153a_stop</text>
</a>
</g>
</g>
<!-- Node1&#45;&gt;Node33 -->
<g id="edge35_Node000001_Node000033" class="edge">
<title>Node1&#45;&gt;Node33</title>
<g id="a_edge35_Node000001_Node000033"><a xlink:title=" ">
<path fill="none" stroke="#63b8ff" d="M559.24,-548.61C554.09,-473.23 532.24,-206.27 478,-144.5 470.87,-136.38 460.92,-131 450.69,-127.44"/>
<polygon fill="#63b8ff" stroke="#63b8ff" points="555.75,-548.9 559.9,-558.65 562.74,-548.44 555.75,-548.9"/>
</a>
</g>
</g>
<!-- Node34 -->
<g id="Node000034" class="node">
<title>Node34</title>
<g id="a_Node000034"><a xlink:href="ade9153a_8c.html#a6bbe212f26b3327fea7e5cfe2919f071" target="_top" xlink:title="Lock device.">
<polygon fill="white" stroke="#666666" points="458.5,-93 351.5,-93 351.5,-74 458.5,-74 458.5,-93"/>
<text text-anchor="middle" x="405" y="-81" font-family="Helvetica,sans-Serif" font-size="10.00">ade9153a_wr_lock</text>
</a>
</g>
</g>
<!-- Node1&#45;&gt;Node34 -->
<g id="edge37_Node000001_Node000034" class="edge">
<title>Node1&#45;&gt;Node34</title>
<g id="a_edge37_Node000001_Node000034"><a xlink:title=" ">
<path fill="none" stroke="#63b8ff" d="M559.78,-548.57C556.46,-468.07 540.07,-168.08 478,-101.5 472.73,-95.85 465.97,-91.85 458.72,-89.05"/>
<polygon fill="#63b8ff" stroke="#63b8ff" points="556.29,-548.94 560.18,-558.8 563.29,-548.67 556.29,-548.94"/>
</a>
</g>
</g>
<!-- Node35 -->
<g id="Node000035" class="node">
<title>Node35</title>
<g id="a_Node000035"><a xlink:href="ade9153a_8c.html#a84c95b7f7f2788a321ae3d26a529966a" target="_top" xlink:title="Unlock device.">
<polygon fill="white" stroke="#666666" points="464.5,-56 345.5,-56 345.5,-37 464.5,-37 464.5,-56"/>
<text text-anchor="middle" x="405" y="-44" font-family="Helvetica,sans-Serif" font-size="10.00">ade9153a_wr_unlock</text>
</a>
</g>
</g>
<!-- Node1&#45;&gt;Node35 -->
<g id="edge38_Node000001_Node000035" class="edge">
<title>Node1&#45;&gt;Node35</title>
<g id="a_edge38_Node000001_Node000035"><a xlink:title=" ">
<path fill="none" stroke="#63b8ff" d="M560.06,-548.63C557.81,-464.32 544.81,-137.08 478,-64.5 474.25,-60.42 469.72,-57.21 464.8,-54.68"/>
<polygon fill="#63b8ff" stroke="#63b8ff" points="556.57,-548.96 560.32,-558.87 563.57,-548.78 556.57,-548.96"/>
</a>
</g>
</g>
<!-- Node36 -->
<g id="Node000036" class="node">
<title>Node36</title>
<g id="a_Node000036"><a xlink:href="eval-ade9153a_2src_2common_2common__data_8c.html#a8ab286a0277c4951842d176a2ce4c41c" target="_top" xlink:title="Autocalibration start.">
<polygon fill="white" stroke="#666666" points="464,-19 346,-19 346,0 464,0 464,-19"/>
<text text-anchor="middle" x="405" y="-7" font-family="Helvetica,sans-Serif" font-size="10.00">autocalibration_start</text>
</a>
</g>
</g>
<!-- Node1&#45;&gt;Node36 -->
<g id="edge40_Node000001_Node000036" class="edge">
<title>Node1&#45;&gt;Node36</title>
<g id="a_edge40_Node000001_Node000036"><a xlink:title=" ">
<path fill="none" stroke="#63b8ff" d="M560.31,-548.58C559.05,-460.41 549.54,-106.08 478,-27.5 474.1,-23.21 469.34,-19.88 464.15,-17.29"/>
<polygon fill="#63b8ff" stroke="#63b8ff" points="556.81,-548.64 560.43,-558.6 563.81,-548.56 556.81,-548.64"/>
</a>
</g>
</g>
<!-- Node19 -->
<g id="Node000019" class="node">
<title>Node19</title>
<g id="a_Node000019"><a xlink:href="ade9153a_8c.html#a97870faa000dbef25c9705e5aefdc356" target="_top" xlink:title="Temperature value in deg C.">
<polygon fill="white" stroke="#666666" points="282.5,-541 166.5,-541 166.5,-522 282.5,-522 282.5,-541"/>
<text text-anchor="middle" x="224.5" y="-529" font-family="Helvetica,sans-Serif" font-size="10.00">ade9153a_temp_val</text>
</a>
</g>
</g>
<!-- Node18&#45;&gt;Node19 -->
<g id="edge18_Node000018_Node000019" class="edge">
<title>Node18&#45;&gt;Node19</title>
<g id="a_edge18_Node000018_Node000019"><a xlink:title=" ">
<path fill="none" stroke="#63b8ff" d="M321.87,-531.5C308.65,-531.5 295.23,-531.5 282.77,-531.5"/>
<polygon fill="#63b8ff" stroke="#63b8ff" points="321.91,-535 331.91,-531.5 321.91,-528 321.91,-535"/>
</a>
</g>
</g>
<!-- Node20 -->
<g id="Node000020" class="node">
<title>Node20</title>
<g id="a_Node000020"><a xlink:href="eval-ade9153a_2src_2common_2common__data_8c.html#a9b065d0400a39009e3266707f94e0439" target="_top" xlink:title="Read measurements.">
<polygon fill="white" stroke="#666666" points="117,-541 0,-541 0,-522 117,-522 117,-541"/>
<text text-anchor="middle" x="58.5" y="-529" font-family="Helvetica,sans-Serif" font-size="10.00">read_measurements</text>
</a>
</g>
</g>
<!-- Node19&#45;&gt;Node20 -->
<g id="edge19_Node000019_Node000020" class="edge">
<title>Node19&#45;&gt;Node20</title>
<g id="a_edge19_Node000019_Node000020"><a xlink:title=" ">
<path fill="none" stroke="#63b8ff" d="M155.93,-531.5C143.04,-531.5 129.65,-531.5 117.1,-531.5"/>
<polygon fill="#63b8ff" stroke="#63b8ff" points="156.14,-535 166.14,-531.5 156.14,-528 156.14,-535"/>
</a>
</g>
</g>
<!-- Node27&#45;&gt;Node28 -->
<g id="edge27_Node000027_Node000028" class="edge">
<title>Node27&#45;&gt;Node28</title>
<g id="a_edge27_Node000027_Node000028"><a xlink:title=" ">
<path fill="none" stroke="#63b8ff" d="M349.13,-260.82C323.82,-255.43 294.15,-249.11 270.22,-244.02"/>
<polygon fill="#63b8ff" stroke="#63b8ff" points="348.45,-264.25 358.96,-262.91 349.9,-257.41 348.45,-264.25"/>
</a>
</g>
</g>
<!-- Node29 -->
<g id="Node000029" class="node">
<title>Node29</title>
<g id="a_Node000029"><a xlink:href="eval-ade9153a_2src_2main_8c.html#a840291bc02cba5474a4cb46a9b9566fe" target="_top" xlink:title=" ">
<polygon fill="white" stroke="#666666" points="79,-206 38,-206 38,-187 79,-187 79,-206"/>
<text text-anchor="middle" x="58.5" y="-194" font-family="Helvetica,sans-Serif" font-size="10.00">main</text>
</a>
</g>
</g>
<!-- Node28&#45;&gt;Node29 -->
<g id="edge28_Node000028_Node000029" class="edge">
<title>Node28&#45;&gt;Node29</title>
<g id="a_edge28_Node000028_Node000029"><a xlink:title=" ">
<path fill="none" stroke="#63b8ff" d="M172.13,-222.6C140.53,-215.28 101.85,-206.31 79.02,-201.02"/>
<polygon fill="#63b8ff" stroke="#63b8ff" points="171.58,-226.06 182.12,-224.91 173.16,-219.24 171.58,-226.06"/>
</a>
</g>
</g>
<!-- Node31 -->
<g id="Node000031" class="node">
<title>Node31</title>
<g id="a_Node000031"><a xlink:href="ade9153a_8c.html#ad93af9e1aabc3f67b04304db2fd36912" target="_top" xlink:title="Initialize the device.">
<polygon fill="white" stroke="#666666" points="267.5,-206 181.5,-206 181.5,-187 267.5,-187 267.5,-206"/>
<text text-anchor="middle" x="224.5" y="-194" font-family="Helvetica,sans-Serif" font-size="10.00">ade9153a_init</text>
</a>
</g>
</g>
<!-- Node30&#45;&gt;Node31 -->
<g id="edge30_Node000030_Node000031" class="edge">
<title>Node30&#45;&gt;Node31</title>
<g id="a_edge30_Node000030_Node000031"><a xlink:title=" ">
<path fill="none" stroke="#63b8ff" d="M351.4,-196.5C324.75,-196.5 292.84,-196.5 267.81,-196.5"/>
<polygon fill="#63b8ff" stroke="#63b8ff" points="351.7,-200 361.7,-196.5 351.7,-193 351.7,-200"/>
</a>
</g>
</g>
<!-- Node30&#45;&gt;Node32 -->
<g id="edge32_Node000030_Node000032" class="edge">
<title>Node30&#45;&gt;Node32</title>
<g id="a_edge32_Node000030_Node000032"><a xlink:title=" ">
<path fill="none" stroke="#63b8ff" d="M351.7,-185.37C325.88,-179.87 295.03,-173.3 270.3,-168.04"/>
<polygon fill="#63b8ff" stroke="#63b8ff" points="351.19,-188.84 361.7,-187.49 352.65,-181.99 351.19,-188.84"/>
</a>
</g>
</g>
<!-- Node31&#45;&gt;Node29 -->
<g id="edge31_Node000031_Node000029" class="edge">
<title>Node31&#45;&gt;Node29</title>
<g id="a_edge31_Node000031_Node000029"><a xlink:title=" ">
<path fill="none" stroke="#63b8ff" d="M170.94,-196.5C139.67,-196.5 101.81,-196.5 79.24,-196.5"/>
<polygon fill="#63b8ff" stroke="#63b8ff" points="171.27,-200 181.27,-196.5 171.27,-193 171.27,-200"/>
</a>
</g>
</g>
<!-- Node32&#45;&gt;Node29 -->
<g id="edge33_Node000032_Node000029" class="edge">
<title>Node32&#45;&gt;Node29</title>
<g id="a_edge33_Node000032_Node000029"><a xlink:title=" ">
<path fill="none" stroke="#63b8ff" d="M172.13,-170.4C140.53,-177.72 101.85,-186.69 79.02,-191.98"/>
<polygon fill="#63b8ff" stroke="#63b8ff" points="173.16,-173.76 182.12,-168.09 171.58,-166.94 173.16,-173.76"/>
</a>
</g>
</g>
<!-- Node33&#45;&gt;Node32 -->
<g id="edge36_Node000033_Node000032" class="edge">
<title>Node33&#45;&gt;Node32</title>
<g id="a_edge36_Node000033_Node000032"><a xlink:title=" ">
<path fill="none" stroke="#63b8ff" d="M349.55,-132.09C324.11,-137.51 294.21,-143.87 270.13,-149"/>
<polygon fill="#63b8ff" stroke="#63b8ff" points="350.37,-135.5 359.42,-129.99 348.91,-128.65 350.37,-135.5"/>
</a>
</g>
</g>
<!-- Node36&#45;&gt;Node32 -->
<g id="edge41_Node000036_Node000032" class="edge">
<title>Node36&#45;&gt;Node32</title>
<g id="a_edge41_Node000036_Node000032"><a xlink:title=" ">
<path fill="none" stroke="#63b8ff" d="M340.11,-23.01C337.3,-24.37 334.58,-25.86 332,-27.5 281.3,-59.75 243.51,-124.35 230.46,-148.81"/>
<polygon fill="#63b8ff" stroke="#63b8ff" points="341.49,-26.23 349.35,-19.13 338.78,-19.78 341.49,-26.23"/>
</a>
</g>
</g>
</g>
</svg>

<g id="navigator" transform="translate(0 0)" fill="#404254">
  <rect fill="#f2f5e9" fill-opacity="0.5" stroke="#606060" stroke-width=".5" x="0" y="0" width="60" height="60"/>
  <use id="zoomplus" xlink:href="#zoomPlus" x="17" y="9" onmousedown="handleZoom(evt,'in')"/>
  <use id="zoomminus" xlink:href="#zoomMin" x="42" y="9" onmousedown="handleZoom(evt,'out')"/>
  <use id="reset" xlink:href="#resetDef" x="30" y="36" onmousedown="handleReset()"/>
   <use id="arrowup" xlink:href="#arrowUp" x="0" y="0" onmousedown="handlePan(0,-1)"/>
  <use id="arrowright" xlink:href="#arrowRight" x="0" y="0" onmousedown="handlePan(1,0)"/>
  <use id="arrowdown" xlink:href="#arrowDown" x="0" y="0" onmousedown="handlePan(0,1)"/>
  <use id="arrowleft" xlink:href="#arrowLeft" x="0" y="0" onmousedown="handlePan(-1,0)"/>
</g>
<svg viewBox="0 0 15 15" width="100%" height="30px" preserveAspectRatio="xMaxYMin meet">
 <g id="arrow_out" transform="scale(0.3 0.3)">
  <a xlink:href="ade9153a_8h_a795378f4c6861c794fed820bc73d6443_icgraph_org.svg" target="_base">
   <rect id="button" ry="5" rx="5" y="6" x="6" height="38" width="38"
        fill="#f2f5e9" fill-opacity="0.5" stroke="#606060" stroke-width="1.0"/>
   <path id="arrow"
     d="M 11.500037,31.436501 C 11.940474,20.09759 22.043105,11.32322 32.158766,21.979434 L 37.068811,17.246167 C 37.068811,17.246167 37.088388,32 37.088388,32 L 22.160133,31.978069 C 22.160133,31.978069 26.997745,27.140456 26.997745,27.140456 C 18.528582,18.264221 13.291696,25.230495 11.500037,31.436501 z"
     style="fill:#404040;"/>
  </a>
 </g>
</svg>

<style type='text/css'>
<![CDATA[
[data-mouse-over-selected='false'] { opacity: 0.7; }
[data-mouse-over-selected='true']  { opacity: 1.0; }
]]>
</style>
<script type="application/ecmascript"><![CDATA[
document.addEventListener('DOMContentLoaded', (event) => {
  highlightEdges();
  highlightAdjacentNodes();
});
]]></script>
</svg>
