<?xml version="1.0" encoding="UTF-8" standalone="no"?>
<!DOCTYPE svg PUBLIC "-//W3C//DTD SVG 1.1//EN"
 "http://www.w3.org/Graphics/SVG/1.1/DTD/svg11.dtd">
<!-- Generated by graphviz version 2.43.0 (0)
 -->
<!-- Title: ade9430_read Pages: 1 -->
<svg width="668pt" height="117pt"
 viewBox="0.00 0.00 668.00 117.35" xmlns="http://www.w3.org/2000/svg" xmlns:xlink="http://www.w3.org/1999/xlink">
<g id="graph0" class="graph" transform="scale(1 1) rotate(0) translate(4 113.35)">
<title>ade9430_read</title>
<!-- Node1 -->
<g id="Node000001" class="node">
<title>Node1</title>
<g id="a_Node000001"><a xlink:title="Read device register.">
<polygon fill="#999999" stroke="#666666" points="660,-53.35 574,-53.35 574,-34.35 660,-34.35 660,-53.35"/>
<text text-anchor="middle" x="617" y="-41.35" font-family="Helvetica,sans-Serif" font-size="10.00">ade9430_read</text>
</a>
</g>
</g>
<!-- Node2 -->
<g id="Node000002" class="node">
<title>Node2</title>
<g id="a_Node000002"><a xlink:href="ade9430_8c.html#a78b85dafde68e237a91fa9fdaa984e01" target="_top" xlink:title="Initialize the device.">
<polygon fill="white" stroke="#666666" points="356,-34.35 276,-34.35 276,-15.35 356,-15.35 356,-34.35"/>
<text text-anchor="middle" x="316" y="-22.35" font-family="Helvetica,sans-Serif" font-size="10.00">ade9430_init</text>
</a>
</g>
</g>
<!-- Node1&#45;&gt;Node2 -->
<g id="edge1_Node000001_Node000002" class="edge">
<title>Node1&#45;&gt;Node2</title>
<g id="a_edge1_Node000001_Node000002"><a xlink:title=" ">
<path fill="none" stroke="#63b8ff" d="M591.88,-28.98C576.96,-20.67 557.07,-11.15 538,-6.85 473.97,7.56 397.2,-5.21 353.06,-15.35"/>
<polygon fill="#63b8ff" stroke="#63b8ff" points="590.5,-32.22 600.9,-34.2 594,-26.16 590.5,-32.22"/>
</a>
</g>
</g>
<!-- Node5 -->
<g id="Node000005" class="node">
<title>Node5</title>
<g id="a_Node000005"><a xlink:href="ade9430_8c.html#a41447f5ba8b5e0739328ada3bbae63d5" target="_top" xlink:title="Read the power/energy for specific phase.">
<polygon fill="white" stroke="#666666" points="381,-72.35 251,-72.35 251,-53.35 381,-53.35 381,-72.35"/>
<text text-anchor="middle" x="316" y="-60.35" font-family="Helvetica,sans-Serif" font-size="10.00">ade9430_read_data_ph</text>
</a>
</g>
</g>
<!-- Node1&#45;&gt;Node5 -->
<g id="edge4_Node000001_Node000005" class="edge">
<title>Node1&#45;&gt;Node5</title>
<g id="a_edge4_Node000001_Node000005"><a xlink:title=" ">
<path fill="none" stroke="#63b8ff" d="M563.69,-47.18C512.91,-50.4 435.72,-55.31 381.23,-58.77"/>
<polygon fill="#63b8ff" stroke="#63b8ff" points="564.04,-50.66 573.79,-46.53 563.59,-43.68 564.04,-50.66"/>
</a>
</g>
</g>
<!-- Node7 -->
<g id="Node000007" class="node">
<title>Node7</title>
<g id="a_Node000007"><a xlink:href="ade9430_8c.html#accf20aba0ba1faa72a1d10d63de51da3" target="_top" xlink:title="Read the temperature.">
<polygon fill="white" stroke="#666666" points="374,-109.35 258,-109.35 258,-90.35 374,-90.35 374,-109.35"/>
<text text-anchor="middle" x="316" y="-97.35" font-family="Helvetica,sans-Serif" font-size="10.00">ade9430_read_temp</text>
</a>
</g>
</g>
<!-- Node1&#45;&gt;Node7 -->
<g id="edge8_Node000001_Node000007" class="edge">
<title>Node1&#45;&gt;Node7</title>
<g id="a_edge8_Node000001_Node000007"><a xlink:title=" ">
<path fill="none" stroke="#63b8ff" d="M575.69,-56.24C563.64,-59.66 550.35,-63.17 538,-65.85 482.8,-77.84 418.96,-87.18 374.13,-93.01"/>
<polygon fill="#63b8ff" stroke="#63b8ff" points="576.84,-59.55 585.47,-53.4 574.89,-52.82 576.84,-59.55"/>
</a>
</g>
</g>
<!-- Node8 -->
<g id="Node000008" class="node">
<title>Node8</title>
<g id="a_Node000008"><a xlink:href="ade9430_8c.html#a931208decd557cdbd43246b0076f6845" target="_top" xlink:title="Update specific register bits.">
<polygon fill="white" stroke="#666666" points="538,-34.35 417,-34.35 417,-15.35 538,-15.35 538,-34.35"/>
<text text-anchor="middle" x="477.5" y="-22.35" font-family="Helvetica,sans-Serif" font-size="10.00">ade9430_update_bits</text>
</a>
</g>
</g>
<!-- Node1&#45;&gt;Node8 -->
<g id="edge10_Node000001_Node000008" class="edge">
<title>Node1&#45;&gt;Node8</title>
<g id="a_edge10_Node000001_Node000008"><a xlink:title=" ">
<path fill="none" stroke="#63b8ff" d="M563.96,-36.66C555.55,-35.5 546.78,-34.29 538.21,-33.1"/>
<polygon fill="#63b8ff" stroke="#63b8ff" points="563.61,-40.15 574,-38.05 564.57,-33.21 563.61,-40.15"/>
</a>
</g>
</g>
<!-- Node3 -->
<g id="Node000003" class="node">
<title>Node3</title>
<g id="a_Node000003"><a xlink:href="iot__example_8c.html#ac25cbf8ae523e89cb0617e68c98bc697" target="_top" xlink:title="Main function execution for maxim platform.">
<polygon fill="white" stroke="#666666" points="89,-71.35 0,-71.35 0,-52.35 89,-52.35 89,-71.35"/>
<text text-anchor="middle" x="44.5" y="-59.35" font-family="Helvetica,sans-Serif" font-size="10.00">example_main</text>
</a>
</g>
</g>
<!-- Node2&#45;&gt;Node3 -->
<g id="edge2_Node000002_Node000003" class="edge">
<title>Node2&#45;&gt;Node3</title>
<g id="a_edge2_Node000002_Node000003"><a xlink:title=" ">
<path fill="none" stroke="#63b8ff" d="M265.51,-28.62C227.05,-31.89 172.46,-37.3 125,-44.85 112.32,-46.87 98.6,-49.6 86.2,-52.28"/>
<polygon fill="#63b8ff" stroke="#63b8ff" points="266.23,-32.07 275.91,-27.75 265.65,-25.09 266.23,-32.07"/>
</a>
</g>
</g>
<!-- Node4 -->
<g id="Node000004" class="node">
<title>Node4</title>
<g id="a_Node000004"><a xlink:href="eval-ade9430_2src_2examples_2basic__example_2basic__example_8c.html#a423407bf3827741dfe2f6e0def8ba0c3" target="_top" xlink:title="Basic example main execution.">
<polygon fill="white" stroke="#666666" points="214.5,-72.35 125.5,-72.35 125.5,-53.35 214.5,-53.35 214.5,-72.35"/>
<text text-anchor="middle" x="170" y="-60.35" font-family="Helvetica,sans-Serif" font-size="10.00">example_main</text>
</a>
</g>
</g>
<!-- Node2&#45;&gt;Node4 -->
<g id="edge3_Node000002_Node000004" class="edge">
<title>Node2&#45;&gt;Node4</title>
<g id="a_edge3_Node000002_Node000004"><a xlink:title=" ">
<path fill="none" stroke="#63b8ff" d="M268.83,-37.04C248.84,-42.31 225.78,-48.4 207.08,-53.33"/>
<polygon fill="#63b8ff" stroke="#63b8ff" points="269.89,-40.38 278.66,-34.44 268.1,-33.61 269.89,-40.38"/>
</a>
</g>
</g>
<!-- Node5&#45;&gt;Node4 -->
<g id="edge5_Node000005_Node000004" class="edge">
<title>Node5&#45;&gt;Node4</title>
<g id="a_edge5_Node000005_Node000004"><a xlink:title=" ">
<path fill="none" stroke="#63b8ff" d="M240.31,-62.85C231.55,-62.85 222.85,-62.85 214.71,-62.85"/>
<polygon fill="#63b8ff" stroke="#63b8ff" points="240.58,-66.35 250.58,-62.85 240.58,-59.35 240.58,-66.35"/>
</a>
</g>
</g>
<!-- Node6 -->
<g id="Node000006" class="node">
<title>Node6</title>
<g id="a_Node000006"><a xlink:href="iot__example_8c.html#af63cfd0ea49a83c85fbec01fa6b99ed7" target="_top" xlink:title=" ">
<polygon fill="white" stroke="#666666" points="215,-109.35 125,-109.35 125,-90.35 215,-90.35 215,-109.35"/>
<text text-anchor="middle" x="170" y="-97.35" font-family="Helvetica,sans-Serif" font-size="10.00">read_and_send</text>
</a>
</g>
</g>
<!-- Node5&#45;&gt;Node6 -->
<g id="edge6_Node000005_Node000006" class="edge">
<title>Node5&#45;&gt;Node6</title>
<g id="a_edge6_Node000005_Node000006"><a xlink:title=" ">
<path fill="none" stroke="#63b8ff" d="M268.09,-74.9C248.77,-79.87 226.68,-85.55 208.46,-90.23"/>
<polygon fill="#63b8ff" stroke="#63b8ff" points="269.1,-78.26 277.92,-72.38 267.36,-71.48 269.1,-78.26"/>
</a>
</g>
</g>
<!-- Node6&#45;&gt;Node3 -->
<g id="edge7_Node000006_Node000003" class="edge">
<title>Node6&#45;&gt;Node3</title>
<g id="a_edge7_Node000006_Node000003"><a xlink:title=" ">
<path fill="none" stroke="#63b8ff" d="M128.26,-87.32C111.46,-82.15 92.3,-76.25 76.65,-71.44"/>
<polygon fill="#63b8ff" stroke="#63b8ff" points="127.25,-90.67 137.84,-90.26 129.31,-83.98 127.25,-90.67"/>
</a>
</g>
</g>
<!-- Node7&#45;&gt;Node6 -->
<g id="edge9_Node000007_Node000006" class="edge">
<title>Node7&#45;&gt;Node6</title>
<g id="a_edge9_Node000007_Node000006"><a xlink:title=" ">
<path fill="none" stroke="#63b8ff" d="M247.65,-99.85C236.65,-99.85 225.51,-99.85 215.26,-99.85"/>
<polygon fill="#63b8ff" stroke="#63b8ff" points="247.67,-103.35 257.67,-99.85 247.67,-96.35 247.67,-103.35"/>
</a>
</g>
</g>
<!-- Node8&#45;&gt;Node2 -->
<g id="edge11_Node000008_Node000002" class="edge">
<title>Node8&#45;&gt;Node2</title>
<g id="a_edge11_Node000008_Node000002"><a xlink:title=" ">
<path fill="none" stroke="#63b8ff" d="M406.61,-24.85C389.39,-24.85 371.55,-24.85 356.37,-24.85"/>
<polygon fill="#63b8ff" stroke="#63b8ff" points="406.65,-28.35 416.65,-24.85 406.65,-21.35 406.65,-28.35"/>
</a>
</g>
</g>
<!-- Node8&#45;&gt;Node7 -->
<g id="edge12_Node000008_Node000007" class="edge">
<title>Node8&#45;&gt;Node7</title>
<g id="a_edge12_Node000008_Node000007"><a xlink:title=" ">
<path fill="none" stroke="#63b8ff" d="M454.45,-40.31C435.64,-52.92 407.52,-70.45 381,-81.85 373.47,-85.09 365.2,-87.92 357.17,-90.31"/>
<polygon fill="#63b8ff" stroke="#63b8ff" points="456.59,-43.09 462.88,-34.57 452.65,-37.3 456.59,-43.09"/>
</a>
</g>
</g>
</g>
</svg>
