<?xml version="1.0" encoding="UTF-8" standalone="no"?>
<!DOCTYPE svg PUBLIC "-//W3C//DTD SVG 1.1//EN"
 "http://www.w3.org/Graphics/SVG/1.1/DTD/svg11.dtd">
<!-- Generated by graphviz version 2.43.0 (0)
 -->
<!-- Title: ade9153a_control_interrupt Pages: 1 -->
<svg width="570pt" height="1950pt"
 viewBox="0.00 0.00 570.00 1950.00" xmlns="http://www.w3.org/2000/svg" xmlns:xlink="http://www.w3.org/1999/xlink">
<g id="graph0" class="graph" transform="scale(1 1) rotate(0) translate(4 1946)">
<title>ade9153a_control_interrupt</title>
<!-- Node1 -->
<g id="Node000001" class="node">
<title>Node1</title>
<g id="a_Node000001"><a xlink:title="Enable/disable interrupt.">
<polygon fill="#999999" stroke="#666666" points="562,-980 411,-980 411,-961 562,-961 562,-980"/>
<text text-anchor="middle" x="486.5" y="-968" font-family="Helvetica,sans-Serif" font-size="10.00">ade9153a_control_interrupt</text>
</a>
</g>
</g>
<!-- Node2 -->
<g id="Node000002" class="node">
<title>Node2</title>
<g id="a_Node000002"><a xlink:href="ade9153a_8c.html#a120418a4c51229640e6eafc4cc8b806d" target="_top" xlink:title="Disable CF1 interrupt.">
<polygon fill="white" stroke="#666666" points="364,-1942 221,-1942 221,-1923 364,-1923 364,-1942"/>
<text text-anchor="middle" x="292.5" y="-1930" font-family="Helvetica,sans-Serif" font-size="10.00">ade9153a_disable_cf1_int</text>
</a>
</g>
</g>
<!-- Node1&#45;&gt;Node2 -->
<g id="edge1_Node000001_Node000002" class="edge">
<title>Node1&#45;&gt;Node2</title>
<g id="a_edge1_Node000001_Node000002"><a xlink:title=" ">
<path fill="none" stroke="#63b8ff" d="M484.54,-990.32C478.11,-1119.89 439.44,-1843.21 375,-1914.5 371.89,-1917.94 368.29,-1920.8 364.36,-1923.17"/>
<polygon fill="#63b8ff" stroke="#63b8ff" points="488.04,-990.4 485.04,-980.24 481.05,-990.06 488.04,-990.4"/>
</a>
</g>
</g>
<!-- Node3 -->
<g id="Node000003" class="node">
<title>Node3</title>
<g id="a_Node000003"><a xlink:href="ade9153a_8c.html#a7d0ed08cba2774f5d5affdcf37bbee84" target="_top" xlink:title="Disable CF2 interrupt.">
<polygon fill="white" stroke="#666666" points="364,-1905 221,-1905 221,-1886 364,-1886 364,-1905"/>
<text text-anchor="middle" x="292.5" y="-1893" font-family="Helvetica,sans-Serif" font-size="10.00">ade9153a_disable_cf2_int</text>
</a>
</g>
</g>
<!-- Node1&#45;&gt;Node3 -->
<g id="edge2_Node000001_Node000003" class="edge">
<title>Node1&#45;&gt;Node3</title>
<g id="a_edge2_Node000001_Node000003"><a xlink:title=" ">
<path fill="none" stroke="#63b8ff" d="M484.43,-990.28C477.44,-1116.67 436.53,-1807.97 375,-1876.5 371.6,-1880.28 367.61,-1883.39 363.25,-1885.93"/>
<polygon fill="#63b8ff" stroke="#63b8ff" points="487.94,-990.31 484.99,-980.13 480.95,-989.93 487.94,-990.31"/>
</a>
</g>
</g>
<!-- Node4 -->
<g id="Node000004" class="node">
<title>Node4</title>
<g id="a_Node000004"><a xlink:href="ade9153a_8c.html#ae1d911586a0909befba3a3705b7b1d88" target="_top" xlink:title="Disable CHIP_STAT interrupt.">
<polygon fill="white" stroke="#666666" points="358,-1867.5 227,-1867.5 227,-1837.5 358,-1837.5 358,-1867.5"/>
<text text-anchor="start" x="235" y="-1855.5" font-family="Helvetica,sans-Serif" font-size="10.00">ade9153a_disable_chip</text>
<text text-anchor="middle" x="292.5" y="-1844.5" font-family="Helvetica,sans-Serif" font-size="10.00">_stat_int</text>
</a>
</g>
</g>
<!-- Node1&#45;&gt;Node4 -->
<g id="edge3_Node000001_Node000004" class="edge">
<title>Node1&#45;&gt;Node4</title>
<g id="a_edge3_Node000001_Node000004"><a xlink:title=" ">
<path fill="none" stroke="#63b8ff" d="M485.77,-990.3C486.96,-1106.27 487.37,-1696.76 375,-1828.5 370.41,-1833.89 364.67,-1838.1 358.38,-1841.38"/>
<polygon fill="#63b8ff" stroke="#63b8ff" points="489.27,-990.03 485.65,-980.07 482.27,-990.11 489.27,-990.03"/>
</a>
</g>
</g>
<!-- Node5 -->
<g id="Node000005" class="node">
<title>Node5</title>
<g id="a_Node000005"><a xlink:href="ade9153a_8c.html#a82927e928625fdc38cd612f9a5121f76" target="_top" xlink:title="Disable crc change interrupt.">
<polygon fill="white" stroke="#666666" points="355,-1819.5 230,-1819.5 230,-1789.5 355,-1789.5 355,-1819.5"/>
<text text-anchor="start" x="238" y="-1807.5" font-family="Helvetica,sans-Serif" font-size="10.00">ade9153a_disable_crc</text>
<text text-anchor="middle" x="292.5" y="-1796.5" font-family="Helvetica,sans-Serif" font-size="10.00">_chg_int</text>
</a>
</g>
</g>
<!-- Node1&#45;&gt;Node5 -->
<g id="edge4_Node000001_Node000005" class="edge">
<title>Node1&#45;&gt;Node5</title>
<g id="a_edge4_Node000001_Node000005"><a xlink:title=" ">
<path fill="none" stroke="#63b8ff" d="M485.6,-990.23C485.8,-1102.18 481.33,-1656.8 375,-1780.5 369.62,-1786.76 362.69,-1791.44 355.15,-1794.91"/>
<polygon fill="#63b8ff" stroke="#63b8ff" points="489.1,-990.04 485.57,-980.05 482.1,-990.06 489.1,-990.04"/>
</a>
</g>
</g>
<!-- Node6 -->
<g id="Node000006" class="node">
<title>Node6</title>
<g id="a_Node000006"><a xlink:href="ade9153a_8c.html#a1ab78cd45449388955018968c7ea8814" target="_top" xlink:title="Disable crc done interrupt.">
<polygon fill="white" stroke="#666666" points="355,-1771.5 230,-1771.5 230,-1741.5 355,-1741.5 355,-1771.5"/>
<text text-anchor="start" x="238" y="-1759.5" font-family="Helvetica,sans-Serif" font-size="10.00">ade9153a_disable_crc</text>
<text text-anchor="middle" x="292.5" y="-1748.5" font-family="Helvetica,sans-Serif" font-size="10.00">_done_int</text>
</a>
</g>
</g>
<!-- Node1&#45;&gt;Node6 -->
<g id="edge5_Node000001_Node000006" class="edge">
<title>Node1&#45;&gt;Node6</title>
<g id="a_edge5_Node000001_Node000006"><a xlink:title=" ">
<path fill="none" stroke="#63b8ff" d="M485.42,-990.41C484.56,-1098.77 475.22,-1616.89 375,-1732.5 369.59,-1738.74 362.65,-1743.4 355.1,-1746.87"/>
<polygon fill="#63b8ff" stroke="#63b8ff" points="488.92,-990.26 485.48,-980.24 481.92,-990.21 488.92,-990.26"/>
</a>
</g>
</g>
<!-- Node7 -->
<g id="Node000007" class="node">
<title>Node7</title>
<g id="a_Node000007"><a xlink:href="ade9153a_8c.html#a0aeca469ad3c515e12a566ceedad9295" target="_top" xlink:title="Disable data ready interrupt.">
<polygon fill="white" stroke="#666666" points="373.5,-1723 211.5,-1723 211.5,-1704 373.5,-1704 373.5,-1723"/>
<text text-anchor="middle" x="292.5" y="-1711" font-family="Helvetica,sans-Serif" font-size="10.00">ade9153a_disable_dready_int</text>
</a>
</g>
</g>
<!-- Node1&#45;&gt;Node7 -->
<g id="edge6_Node000001_Node000007" class="edge">
<title>Node1&#45;&gt;Node7</title>
<g id="a_edge6_Node000001_Node000007"><a xlink:title=" ">
<path fill="none" stroke="#63b8ff" d="M485.39,-990.21C484.39,-1095.35 474.38,-1589.33 375,-1695.5 371.93,-1698.78 368.41,-1701.53 364.59,-1703.83"/>
<polygon fill="#63b8ff" stroke="#63b8ff" points="488.89,-990.09 485.47,-980.07 481.89,-990.04 488.89,-990.09"/>
</a>
</g>
</g>
<!-- Node8 -->
<g id="Node000008" class="node">
<title>Node8</title>
<g id="a_Node000008"><a xlink:href="ade9153a_8c.html#a5fe216be54cbd41c5abd1a6ee56887a1" target="_top" xlink:title="Disable EGYRDY interrupt.">
<polygon fill="white" stroke="#666666" points="373.5,-1686 211.5,-1686 211.5,-1667 373.5,-1667 373.5,-1686"/>
<text text-anchor="middle" x="292.5" y="-1674" font-family="Helvetica,sans-Serif" font-size="10.00">ade9153a_disable_egyrdy_int</text>
</a>
</g>
</g>
<!-- Node1&#45;&gt;Node8 -->
<g id="edge7_Node000001_Node000008" class="edge">
<title>Node1&#45;&gt;Node8</title>
<g id="a_edge7_Node000001_Node000008"><a xlink:title=" ">
<path fill="none" stroke="#63b8ff" d="M485.19,-990.11C483.16,-1091.66 468.82,-1556.91 375,-1657.5 371.43,-1661.32 367.26,-1664.45 362.71,-1667"/>
<polygon fill="#63b8ff" stroke="#63b8ff" points="488.69,-990.09 485.37,-980.03 481.69,-989.97 488.69,-990.09"/>
</a>
</g>
</g>
<!-- Node9 -->
<g id="Node000009" class="node">
<title>Node9</title>
<g id="a_Node000009"><a xlink:href="ade9153a_8c.html#a9d80290f0882f28548ead1592b834097" target="_top" xlink:title="Disable EVENT_STAT interrupt.">
<polygon fill="white" stroke="#666666" points="361.5,-1648.5 223.5,-1648.5 223.5,-1618.5 361.5,-1618.5 361.5,-1648.5"/>
<text text-anchor="start" x="231.5" y="-1636.5" font-family="Helvetica,sans-Serif" font-size="10.00">ade9153a_disable_event</text>
<text text-anchor="middle" x="292.5" y="-1625.5" font-family="Helvetica,sans-Serif" font-size="10.00">_stat_int</text>
</a>
</g>
</g>
<!-- Node1&#45;&gt;Node9 -->
<g id="edge8_Node000001_Node000009" class="edge">
<title>Node1&#45;&gt;Node9</title>
<g id="a_edge8_Node000001_Node000009"><a xlink:title=" ">
<path fill="none" stroke="#63b8ff" d="M484.81,-990.46C481.01,-1088.1 459.75,-1514.39 375,-1609.5 371.17,-1613.79 366.62,-1617.34 361.65,-1620.26"/>
<polygon fill="#63b8ff" stroke="#63b8ff" points="488.31,-990.36 485.18,-980.23 481.32,-990.1 488.31,-990.36"/>
</a>
</g>
</g>
<!-- Node10 -->
<g id="Node000010" class="node">
<title>Node10</title>
<g id="a_Node000010"><a xlink:href="ade9153a_8c.html#a7389a9f7893901e96ea4dee06ad52c94" target="_top" xlink:title="Disable fundamental reactive energy no load condition interrupt.">
<polygon fill="white" stroke="#666666" points="371,-1600 214,-1600 214,-1581 371,-1581 371,-1600"/>
<text text-anchor="middle" x="292.5" y="-1588" font-family="Helvetica,sans-Serif" font-size="10.00">ade9153a_disable_fvarnl_int</text>
</a>
</g>
</g>
<!-- Node1&#45;&gt;Node10 -->
<g id="edge9_Node000001_Node000010" class="edge">
<title>Node1&#45;&gt;Node10</title>
<g id="a_edge9_Node000001_Node000010"><a xlink:title=" ">
<path fill="none" stroke="#63b8ff" d="M484.69,-990.26C480.43,-1084.23 457.59,-1484.91 375,-1571.5 371.39,-1575.28 367.18,-1578.38 362.62,-1580.91"/>
<polygon fill="#63b8ff" stroke="#63b8ff" points="488.19,-990.29 485.13,-980.15 481.2,-989.99 488.19,-990.29"/>
</a>
</g>
</g>
<!-- Node11 -->
<g id="Node000011" class="node">
<title>Node11</title>
<g id="a_Node000011"><a xlink:href="ade9153a_8c.html#a639445af824e320e1715d0e87c95efa5" target="_top" xlink:title="Disable MS_STAT interrupt.">
<polygon fill="white" stroke="#666666" points="355,-1562.5 230,-1562.5 230,-1532.5 355,-1532.5 355,-1562.5"/>
<text text-anchor="start" x="238" y="-1550.5" font-family="Helvetica,sans-Serif" font-size="10.00">ade9153a_disable_ms</text>
<text text-anchor="middle" x="292.5" y="-1539.5" font-family="Helvetica,sans-Serif" font-size="10.00">_stat_int</text>
</a>
</g>
</g>
<!-- Node1&#45;&gt;Node11 -->
<g id="edge10_Node000001_Node000011" class="edge">
<title>Node1&#45;&gt;Node11</title>
<g id="a_edge10_Node000001_Node000011"><a xlink:title=" ">
<path fill="none" stroke="#63b8ff" d="M484.24,-990.26C478.15,-1079.32 449.06,-1442.52 375,-1523.5 369.52,-1529.49 362.64,-1534.01 355.21,-1537.42"/>
<polygon fill="#63b8ff" stroke="#63b8ff" points="487.73,-990.39 484.9,-980.18 480.75,-989.92 487.73,-990.39"/>
</a>
</g>
</g>
<!-- Node12 -->
<g id="Node000012" class="node">
<title>Node12</title>
<g id="a_Node000012"><a xlink:href="ade9153a_8c.html#a85d4cfe6639a8848e008ac0ad68b51d6" target="_top" xlink:title="Disable pf ready interrupt.">
<polygon fill="white" stroke="#666666" points="352.5,-1514.5 232.5,-1514.5 232.5,-1484.5 352.5,-1484.5 352.5,-1514.5"/>
<text text-anchor="start" x="240.5" y="-1502.5" font-family="Helvetica,sans-Serif" font-size="10.00">ade9153a_disable_pf</text>
<text text-anchor="middle" x="292.5" y="-1491.5" font-family="Helvetica,sans-Serif" font-size="10.00">_rdy_int</text>
</a>
</g>
</g>
<!-- Node1&#45;&gt;Node12 -->
<g id="edge11_Node000001_Node000012" class="edge">
<title>Node1&#45;&gt;Node12</title>
<g id="a_edge11_Node000001_Node000012"><a xlink:title=" ">
<path fill="none" stroke="#63b8ff" d="M483.84,-990.13C476.36,-1074.13 443.13,-1402.35 375,-1475.5 368.87,-1482.08 361.03,-1486.89 352.65,-1490.4"/>
<polygon fill="#63b8ff" stroke="#63b8ff" points="487.33,-990.41 484.71,-980.14 480.36,-989.8 487.33,-990.41"/>
</a>
</g>
</g>
<!-- Node13 -->
<g id="Node000013" class="node">
<title>Node13</title>
<g id="a_Node000013"><a xlink:href="ade9153a_8c.html#a291d957fb6d3b920e3cf4b1811964615" target="_top" xlink:title="Disable PWRRDY interrupt.">
<polygon fill="white" stroke="#666666" points="373.5,-1466 211.5,-1466 211.5,-1447 373.5,-1447 373.5,-1466"/>
<text text-anchor="middle" x="292.5" y="-1454" font-family="Helvetica,sans-Serif" font-size="10.00">ade9153a_disable_pwrrdy_int</text>
</a>
</g>
</g>
<!-- Node1&#45;&gt;Node13 -->
<g id="edge12_Node000001_Node000013" class="edge">
<title>Node1&#45;&gt;Node13</title>
<g id="a_edge12_Node000001_Node000013"><a xlink:title=" ">
<path fill="none" stroke="#63b8ff" d="M483.57,-990.58C475.36,-1071.67 440.74,-1373.71 375,-1438.5 371.59,-1441.86 367.71,-1444.65 363.53,-1446.96"/>
<polygon fill="#63b8ff" stroke="#63b8ff" points="487.08,-990.57 484.59,-980.28 480.12,-989.88 487.08,-990.57"/>
</a>
</g>
</g>
<!-- Node14 -->
<g id="Node000014" class="node">
<title>Node14</title>
<g id="a_Node000014"><a xlink:href="ade9153a_8c.html#a158fa906ec57c2f80c1f69390f8b3264" target="_top" xlink:title="Disable Phase A total active power changed sign interrupt.">
<polygon fill="white" stroke="#666666" points="373.5,-1429 211.5,-1429 211.5,-1410 373.5,-1410 373.5,-1429"/>
<text text-anchor="middle" x="292.5" y="-1417" font-family="Helvetica,sans-Serif" font-size="10.00">ade9153a_disable_revapa_int</text>
</a>
</g>
</g>
<!-- Node1&#45;&gt;Node14 -->
<g id="edge13_Node000001_Node000014" class="edge">
<title>Node1&#45;&gt;Node14</title>
<g id="a_edge13_Node000001_Node000014"><a xlink:title=" ">
<path fill="none" stroke="#63b8ff" d="M483.15,-990.46C473.69,-1067.28 436.01,-1342.51 375,-1401.5 371.56,-1404.82 367.66,-1407.59 363.46,-1409.89"/>
<polygon fill="#63b8ff" stroke="#63b8ff" points="486.66,-990.6 484.38,-980.25 479.71,-989.76 486.66,-990.6"/>
</a>
</g>
</g>
<!-- Node15 -->
<g id="Node000015" class="node">
<title>Node15</title>
<g id="a_Node000015"><a xlink:href="ade9153a_8c.html#aea11edaed411235411cd10410659e23f" target="_top" xlink:title="Disable CF1 polarity change sign interrupt.">
<polygon fill="white" stroke="#666666" points="375,-1392 210,-1392 210,-1373 375,-1373 375,-1392"/>
<text text-anchor="middle" x="292.5" y="-1380" font-family="Helvetica,sans-Serif" font-size="10.00">ade9153a_disable_revpcf1_int</text>
</a>
</g>
</g>
<!-- Node1&#45;&gt;Node15 -->
<g id="edge14_Node000001_Node000015" class="edge">
<title>Node1&#45;&gt;Node15</title>
<g id="a_edge14_Node000001_Node000015"><a xlink:title=" ">
<path fill="none" stroke="#63b8ff" d="M482.69,-990.13C471.95,-1062.26 431.35,-1311.22 375,-1364.5 371.53,-1367.79 367.59,-1370.52 363.38,-1372.8"/>
<polygon fill="#63b8ff" stroke="#63b8ff" points="486.16,-990.53 484.15,-980.13 479.24,-989.52 486.16,-990.53"/>
</a>
</g>
</g>
<!-- Node16 -->
<g id="Node000016" class="node">
<title>Node16</title>
<g id="a_Node000016"><a xlink:href="ade9153a_8c.html#af83bbe5041826d6ac3daba6f4a782d1e" target="_top" xlink:title="Disable CF2 polarity change sign interrupt.">
<polygon fill="white" stroke="#666666" points="375,-1355 210,-1355 210,-1336 375,-1336 375,-1355"/>
<text text-anchor="middle" x="292.5" y="-1343" font-family="Helvetica,sans-Serif" font-size="10.00">ade9153a_disable_revpcf2_int</text>
</a>
</g>
</g>
<!-- Node1&#45;&gt;Node16 -->
<g id="edge15_Node000001_Node000016" class="edge">
<title>Node1&#45;&gt;Node16</title>
<g id="a_edge15_Node000001_Node000016"><a xlink:title=" ">
<path fill="none" stroke="#63b8ff" d="M485.8,-990.39C485.55,-1050.92 476.13,-1234.42 375,-1327.5 371.38,-1330.84 367.28,-1333.6 362.89,-1335.9"/>
<polygon fill="#63b8ff" stroke="#63b8ff" points="489.3,-990.26 485.75,-980.28 482.3,-990.29 489.3,-990.26"/>
</a>
</g>
</g>
<!-- Node17 -->
<g id="Node000017" class="node">
<title>Node17</title>
<g id="a_Node000017"><a xlink:href="ade9153a_8c.html#af075cc585b206646fcd05ab5e1aa8071" target="_top" xlink:title="Disable Phase A fundamental reactive power changed sign interrupt.">
<polygon fill="white" stroke="#666666" points="372.5,-1318 212.5,-1318 212.5,-1299 372.5,-1299 372.5,-1318"/>
<text text-anchor="middle" x="292.5" y="-1306" font-family="Helvetica,sans-Serif" font-size="10.00">ade9153a_disable_revrpa_int</text>
</a>
</g>
</g>
<!-- Node1&#45;&gt;Node17 -->
<g id="edge16_Node000001_Node000017" class="edge">
<title>Node1&#45;&gt;Node17</title>
<g id="a_edge16_Node000001_Node000017"><a xlink:title=" ">
<path fill="none" stroke="#63b8ff" d="M484.9,-990.42C482.09,-1046.59 466.07,-1207.47 375,-1289.5 370.79,-1293.29 365.97,-1296.37 360.83,-1298.86"/>
<polygon fill="#63b8ff" stroke="#63b8ff" points="488.41,-990.22 485.32,-980.09 481.42,-989.94 488.41,-990.22"/>
</a>
</g>
</g>
<!-- Node18 -->
<g id="Node000018" class="node">
<title>Node18</title>
<g id="a_Node000018"><a xlink:href="ade9153a_8c.html#a6cf7a38eac371c5ccb70d642198f9c30" target="_top" xlink:title="Disable RMS_OC values update interrupt.">
<polygon fill="white" stroke="#666666" points="357,-1280.5 228,-1280.5 228,-1250.5 357,-1250.5 357,-1280.5"/>
<text text-anchor="start" x="236" y="-1268.5" font-family="Helvetica,sans-Serif" font-size="10.00">ade9153a_disable_rms</text>
<text text-anchor="middle" x="292.5" y="-1257.5" font-family="Helvetica,sans-Serif" font-size="10.00">_oc_rdy_int</text>
</a>
</g>
</g>
<!-- Node1&#45;&gt;Node18 -->
<g id="edge17_Node000001_Node000018" class="edge">
<title>Node1&#45;&gt;Node18</title>
<g id="a_edge17_Node000001_Node000018"><a xlink:title=" ">
<path fill="none" stroke="#63b8ff" d="M483.29,-990.14C476.65,-1039.85 452.28,-1171.64 375,-1241.5 369.75,-1246.25 363.6,-1250.06 357.08,-1253.12"/>
<polygon fill="#63b8ff" stroke="#63b8ff" points="486.78,-990.44 484.54,-980.09 479.84,-989.58 486.78,-990.44"/>
</a>
</g>
</g>
<!-- Node19 -->
<g id="Node000019" class="node">
<title>Node19</title>
<g id="a_Node000019"><a xlink:href="ade9153a_8c.html#a288159dd6e2b3a53a5f886a8ad6af646" target="_top" xlink:title="Disable new temperature reading interrupt.">
<polygon fill="white" stroke="#666666" points="360.5,-1232.5 224.5,-1232.5 224.5,-1202.5 360.5,-1202.5 360.5,-1232.5"/>
<text text-anchor="start" x="232.5" y="-1220.5" font-family="Helvetica,sans-Serif" font-size="10.00">ade9153a_disable_temp</text>
<text text-anchor="middle" x="292.5" y="-1209.5" font-family="Helvetica,sans-Serif" font-size="10.00">_rdy_int</text>
</a>
</g>
</g>
<!-- Node1&#45;&gt;Node19 -->
<g id="edge18_Node000001_Node000019" class="edge">
<title>Node1&#45;&gt;Node19</title>
<g id="a_edge18_Node000001_Node000019"><a xlink:title=" ">
<path fill="none" stroke="#63b8ff" d="M481.39,-990.11C471.28,-1033.47 441.05,-1138.03 375,-1193.5 370.71,-1197.1 365.89,-1200.17 360.81,-1202.77"/>
<polygon fill="#63b8ff" stroke="#63b8ff" points="484.83,-990.77 483.59,-980.25 478,-989.25 484.83,-990.77"/>
</a>
</g>
</g>
<!-- Node20 -->
<g id="Node000020" class="node">
<title>Node20</title>
<g id="a_Node000020"><a xlink:href="ade9153a_8c.html#ab063b5caf782c5e41caeacda495e65c8" target="_top" xlink:title="Disable total apparent energy no load condition interrupt.">
<polygon fill="white" stroke="#666666" points="367,-1184 218,-1184 218,-1165 367,-1165 367,-1184"/>
<text text-anchor="middle" x="292.5" y="-1172" font-family="Helvetica,sans-Serif" font-size="10.00">ade9153a_disable_vanl_int</text>
</a>
</g>
</g>
<!-- Node1&#45;&gt;Node20 -->
<g id="edge19_Node000001_Node000020" class="edge">
<title>Node1&#45;&gt;Node20</title>
<g id="a_edge19_Node000001_Node000020"><a xlink:title=" ">
<path fill="none" stroke="#63b8ff" d="M479.73,-989.97C467.32,-1028.33 434.28,-1113.63 375,-1156.5 370.3,-1159.9 365.08,-1162.67 359.62,-1164.93"/>
<polygon fill="#63b8ff" stroke="#63b8ff" points="483.19,-990.66 482.81,-980.07 476.5,-988.58 483.19,-990.66"/>
</a>
</g>
</g>
<!-- Node21 -->
<g id="Node000021" class="node">
<title>Node21</title>
<g id="a_Node000021"><a xlink:href="ade9153a_8c.html#a26f5369ea5f8c3fbb06699f9d44ace64" target="_top" xlink:title="Disable total active energy no load condition interrupt.">
<polygon fill="white" stroke="#666666" points="372,-1147 213,-1147 213,-1128 372,-1128 372,-1147"/>
<text text-anchor="middle" x="292.5" y="-1135" font-family="Helvetica,sans-Serif" font-size="10.00">ade9153a_disable_wattnl_int</text>
</a>
</g>
</g>
<!-- Node1&#45;&gt;Node21 -->
<g id="edge20_Node000001_Node000021" class="edge">
<title>Node1&#45;&gt;Node21</title>
<g id="a_edge20_Node000001_Node000021"><a xlink:title=" ">
<path fill="none" stroke="#63b8ff" d="M477.15,-989.18C461.81,-1021.24 425.97,-1086.47 375,-1119.5 369.77,-1122.89 364,-1125.65 358.02,-1127.89"/>
<polygon fill="#63b8ff" stroke="#63b8ff" points="480.37,-990.57 481.41,-980.02 474.02,-987.62 480.37,-990.57"/>
</a>
</g>
</g>
<!-- Node22 -->
<g id="Node000022" class="node">
<title>Node22</title>
<g id="a_Node000022"><a xlink:href="ade9153a_8c.html#af5ff497ad0da8ee901165ed21f2aaaa1" target="_top" xlink:title="Disable zero corssing detected on I ch A interrupt.">
<polygon fill="white" stroke="#666666" points="367,-1110 218,-1110 218,-1091 367,-1091 367,-1110"/>
<text text-anchor="middle" x="292.5" y="-1098" font-family="Helvetica,sans-Serif" font-size="10.00">ade9153a_disable_zxai_int</text>
</a>
</g>
</g>
<!-- Node1&#45;&gt;Node22 -->
<g id="edge21_Node000001_Node000022" class="edge">
<title>Node1&#45;&gt;Node22</title>
<g id="a_edge21_Node000001_Node000022"><a xlink:title=" ">
<path fill="none" stroke="#63b8ff" d="M473.14,-988.38C454.78,-1013.51 417.8,-1058.85 375,-1082.5 368.79,-1085.93 361.96,-1088.71 355,-1090.96"/>
<polygon fill="#63b8ff" stroke="#63b8ff" points="476.08,-990.28 479.04,-980.11 470.39,-986.22 476.08,-990.28"/>
</a>
</g>
</g>
<!-- Node23 -->
<g id="Node000023" class="node">
<title>Node23</title>
<g id="a_Node000023"><a xlink:href="ade9153a_8c.html#acc018341c5be08a8a55910ac75e76674" target="_top" xlink:title="Disable zero corssing detected on V ch interrupt.">
<polygon fill="white" stroke="#666666" points="368.5,-1073 216.5,-1073 216.5,-1054 368.5,-1054 368.5,-1073"/>
<text text-anchor="middle" x="292.5" y="-1061" font-family="Helvetica,sans-Serif" font-size="10.00">ade9153a_disable_zxav_int</text>
</a>
</g>
</g>
<!-- Node1&#45;&gt;Node23 -->
<g id="edge22_Node000001_Node000023" class="edge">
<title>Node1&#45;&gt;Node23</title>
<g id="a_edge22_Node000001_Node000023"><a xlink:title=" ">
<path fill="none" stroke="#63b8ff" d="M466.61,-986.66C445.6,-1003.79 410,-1030.42 375,-1045.5 367.15,-1048.88 358.59,-1051.66 350.06,-1053.94"/>
<polygon fill="#63b8ff" stroke="#63b8ff" points="468.96,-989.25 474.42,-980.17 464.49,-983.86 468.96,-989.25"/>
</a>
</g>
</g>
<!-- Node24 -->
<g id="Node000024" class="node">
<title>Node24</title>
<g id="a_Node000024"><a xlink:href="ade9153a_8c.html#ad9bf6a295a90c23e829c374ebba25f0b" target="_top" xlink:title="Disable zero corssing detected on I ch B interrupt.">
<polygon fill="white" stroke="#666666" points="367,-1036 218,-1036 218,-1017 367,-1017 367,-1036"/>
<text text-anchor="middle" x="292.5" y="-1024" font-family="Helvetica,sans-Serif" font-size="10.00">ade9153a_disable_zxbi_int</text>
</a>
</g>
</g>
<!-- Node1&#45;&gt;Node24 -->
<g id="edge23_Node000001_Node000024" class="edge">
<title>Node1&#45;&gt;Node24</title>
<g id="a_edge23_Node000001_Node000024"><a xlink:title=" ">
<path fill="none" stroke="#63b8ff" d="M450.89,-983.54C429.27,-991.4 400.74,-1001.26 375,-1008.5 364.12,-1011.56 352.3,-1014.43 341.13,-1016.94"/>
<polygon fill="#63b8ff" stroke="#63b8ff" points="452.12,-986.81 460.3,-980.08 449.71,-980.24 452.12,-986.81"/>
</a>
</g>
</g>
<!-- Node25 -->
<g id="Node000025" class="node">
<title>Node25</title>
<g id="a_Node000025"><a xlink:href="ade9153a_8c.html#a76e49535558171b05613d28e44afd0ed" target="_top" xlink:title="Disable zero corssing timeout on voltage ch interrupt.">
<polygon fill="white" stroke="#666666" points="373,-999 212,-999 212,-980 373,-980 373,-999"/>
<text text-anchor="middle" x="292.5" y="-987" font-family="Helvetica,sans-Serif" font-size="10.00">ade9153a_disable_zxtoav_int</text>
</a>
</g>
</g>
<!-- Node1&#45;&gt;Node25 -->
<g id="edge24_Node000001_Node000025" class="edge">
<title>Node1&#45;&gt;Node25</title>
<g id="a_edge24_Node000001_Node000025"><a xlink:title=" ">
<path fill="none" stroke="#63b8ff" d="M400.99,-978.86C391.7,-979.78 382.27,-980.72 373.05,-981.63"/>
<polygon fill="#63b8ff" stroke="#63b8ff" points="401.39,-982.34 410.99,-977.87 400.7,-975.37 401.39,-982.34"/>
</a>
</g>
</g>
<!-- Node26 -->
<g id="Node000026" class="node">
<title>Node26</title>
<g id="a_Node000026"><a xlink:href="ade9153a_8c.html#a77c59e2f7e7232fd290eee9793f704cc" target="_top" xlink:title="Enable CF1 interrupt.">
<polygon fill="white" stroke="#666666" points="363,-962 222,-962 222,-943 363,-943 363,-962"/>
<text text-anchor="middle" x="292.5" y="-950" font-family="Helvetica,sans-Serif" font-size="10.00">ade9153a_enable_cf1_int</text>
</a>
</g>
</g>
<!-- Node1&#45;&gt;Node26 -->
<g id="edge25_Node000001_Node000026" class="edge">
<title>Node1&#45;&gt;Node26</title>
<g id="a_edge25_Node000001_Node000026"><a xlink:title=" ">
<path fill="none" stroke="#63b8ff" d="M400.96,-962.57C388.36,-961.39 375.5,-960.19 363.25,-959.04"/>
<polygon fill="#63b8ff" stroke="#63b8ff" points="400.71,-966.07 410.99,-963.51 401.36,-959.1 400.71,-966.07"/>
</a>
</g>
</g>
<!-- Node27 -->
<g id="Node000027" class="node">
<title>Node27</title>
<g id="a_Node000027"><a xlink:href="ade9153a_8c.html#aa20f6a31f57fa348f93e3fd195adb042" target="_top" xlink:title="Enable CF2 interrupt.">
<polygon fill="white" stroke="#666666" points="363,-925 222,-925 222,-906 363,-906 363,-925"/>
<text text-anchor="middle" x="292.5" y="-913" font-family="Helvetica,sans-Serif" font-size="10.00">ade9153a_enable_cf2_int</text>
</a>
</g>
</g>
<!-- Node1&#45;&gt;Node27 -->
<g id="edge26_Node000001_Node000027" class="edge">
<title>Node1&#45;&gt;Node27</title>
<g id="a_edge26_Node000001_Node000027"><a xlink:title=" ">
<path fill="none" stroke="#63b8ff" d="M448.79,-957.66C427.4,-950.41 399.83,-941.43 375,-934.5 362.96,-931.14 349.82,-927.9 337.66,-925.07"/>
<polygon fill="#63b8ff" stroke="#63b8ff" points="447.86,-961.04 458.45,-960.97 450.12,-954.42 447.86,-961.04"/>
</a>
</g>
</g>
<!-- Node28 -->
<g id="Node000028" class="node">
<title>Node28</title>
<g id="a_Node000028"><a xlink:href="ade9153a_8c.html#ad6e4c0900487eca7fde715d375befaab" target="_top" xlink:title="Enable an interrupt when any bit in CHIP_STATUS reg is set.">
<polygon fill="white" stroke="#666666" points="356.5,-887.5 228.5,-887.5 228.5,-857.5 356.5,-857.5 356.5,-887.5"/>
<text text-anchor="start" x="236.5" y="-875.5" font-family="Helvetica,sans-Serif" font-size="10.00">ade9153a_enable_chip</text>
<text text-anchor="middle" x="292.5" y="-864.5" font-family="Helvetica,sans-Serif" font-size="10.00">_stat_int</text>
</a>
</g>
</g>
<!-- Node1&#45;&gt;Node28 -->
<g id="edge27_Node000001_Node000028" class="edge">
<title>Node1&#45;&gt;Node28</title>
<g id="a_edge27_Node000001_Node000028"><a xlink:title=" ">
<path fill="none" stroke="#63b8ff" d="M465.61,-954.81C444.25,-938.59 408.81,-913.45 375,-897.5 367.1,-893.77 358.52,-890.44 349.98,-887.51"/>
<polygon fill="#63b8ff" stroke="#63b8ff" points="463.53,-957.63 473.59,-960.96 467.81,-952.08 463.53,-957.63"/>
</a>
</g>
</g>
<!-- Node29 -->
<g id="Node000029" class="node">
<title>Node29</title>
<g id="a_Node000029"><a xlink:href="ade9153a_8c.html#a8cb23d486ba09ab4d02b08632671cacb" target="_top" xlink:title="Enable crc change interrupt.">
<polygon fill="white" stroke="#666666" points="353.5,-839.5 231.5,-839.5 231.5,-809.5 353.5,-809.5 353.5,-839.5"/>
<text text-anchor="start" x="239.5" y="-827.5" font-family="Helvetica,sans-Serif" font-size="10.00">ade9153a_enable_crc</text>
<text text-anchor="middle" x="292.5" y="-816.5" font-family="Helvetica,sans-Serif" font-size="10.00">_chg_int</text>
</a>
</g>
</g>
<!-- Node1&#45;&gt;Node29 -->
<g id="edge28_Node000001_Node000029" class="edge">
<title>Node1&#45;&gt;Node29</title>
<g id="a_edge28_Node000001_Node000029"><a xlink:title=" ">
<path fill="none" stroke="#63b8ff" d="M474.06,-952.56C456.15,-925.92 418.95,-876.09 375,-848.5 368.5,-844.42 361.28,-841.01 353.9,-838.16"/>
<polygon fill="#63b8ff" stroke="#63b8ff" points="471.15,-954.51 479.57,-960.94 477,-950.67 471.15,-954.51"/>
</a>
</g>
</g>
<!-- Node30 -->
<g id="Node000030" class="node">
<title>Node30</title>
<g id="a_Node000030"><a xlink:href="ade9153a_8c.html#a2246cb1aeb7adf423740a02db4fbf4eb" target="_top" xlink:title="Enable crc done interrupt.">
<polygon fill="white" stroke="#666666" points="353.5,-791.5 231.5,-791.5 231.5,-761.5 353.5,-761.5 353.5,-791.5"/>
<text text-anchor="start" x="239.5" y="-779.5" font-family="Helvetica,sans-Serif" font-size="10.00">ade9153a_enable_crc</text>
<text text-anchor="middle" x="292.5" y="-768.5" font-family="Helvetica,sans-Serif" font-size="10.00">_done_int</text>
</a>
</g>
</g>
<!-- Node1&#45;&gt;Node30 -->
<g id="edge29_Node000001_Node000030" class="edge">
<title>Node1&#45;&gt;Node30</title>
<g id="a_edge29_Node000001_Node000030"><a xlink:title=" ">
<path fill="none" stroke="#63b8ff" d="M478.22,-951.08C463.97,-915.7 428.97,-840.72 375,-800.5 368.61,-795.74 361.29,-791.92 353.72,-788.86"/>
<polygon fill="#63b8ff" stroke="#63b8ff" points="475.08,-952.66 481.98,-960.7 481.6,-950.11 475.08,-952.66"/>
</a>
</g>
</g>
<!-- Node31 -->
<g id="Node000031" class="node">
<title>Node31</title>
<g id="a_Node000031"><a xlink:href="ade9153a_8c.html#a0c70ba1049aa7681a6b0a9635d51314b" target="_top" xlink:title="Enable data ready interrupt.">
<polygon fill="white" stroke="#666666" points="372.5,-743 212.5,-743 212.5,-724 372.5,-724 372.5,-743"/>
<text text-anchor="middle" x="292.5" y="-731" font-family="Helvetica,sans-Serif" font-size="10.00">ade9153a_enable_dready_int</text>
</a>
</g>
</g>
<!-- Node1&#45;&gt;Node31 -->
<g id="edge30_Node000001_Node000031" class="edge">
<title>Node1&#45;&gt;Node31</title>
<g id="a_edge30_Node000001_Node000031"><a xlink:title=" ">
<path fill="none" stroke="#63b8ff" d="M481.48,-951.05C471.54,-908.09 441.64,-804.79 375,-752.5 370.09,-748.64 364.52,-745.55 358.67,-743.06"/>
<polygon fill="#63b8ff" stroke="#63b8ff" points="478.06,-951.81 483.63,-960.82 484.9,-950.3 478.06,-951.81"/>
</a>
</g>
</g>
<!-- Node32 -->
<g id="Node000032" class="node">
<title>Node32</title>
<g id="a_Node000032"><a xlink:href="ade9153a_8c.html#ae640a2cf3a16dba06dbce3c44c39be5e" target="_top" xlink:title="Enable EGYRDY interrupt.">
<polygon fill="white" stroke="#666666" points="372.5,-706 212.5,-706 212.5,-687 372.5,-687 372.5,-706"/>
<text text-anchor="middle" x="292.5" y="-694" font-family="Helvetica,sans-Serif" font-size="10.00">ade9153a_enable_egyrdy_int</text>
</a>
</g>
</g>
<!-- Node1&#45;&gt;Node32 -->
<g id="edge31_Node000001_Node000032" class="edge">
<title>Node1&#45;&gt;Node32</title>
<g id="a_edge31_Node000001_Node000032"><a xlink:title=" ">
<path fill="none" stroke="#63b8ff" d="M482.99,-950.78C475.79,-902.65 450.45,-778.46 375,-715.5 370.43,-711.68 365.23,-708.6 359.72,-706.12"/>
<polygon fill="#63b8ff" stroke="#63b8ff" points="479.55,-951.4 484.39,-960.83 486.48,-950.44 479.55,-951.4"/>
</a>
</g>
</g>
<!-- Node35 -->
<g id="Node000035" class="node">
<title>Node35</title>
<g id="a_Node000035"><a xlink:href="ade9153a_8c.html#a4a64ee36e2cb0eb9834e3a50dea2d35a" target="_top" xlink:title="Enable an interrupt when any bit in EVENT_STATUS reg is set.">
<polygon fill="white" stroke="#666666" points="360.5,-668.5 224.5,-668.5 224.5,-638.5 360.5,-638.5 360.5,-668.5"/>
<text text-anchor="start" x="232.5" y="-656.5" font-family="Helvetica,sans-Serif" font-size="10.00">ade9153a_enable_event</text>
<text text-anchor="middle" x="292.5" y="-645.5" font-family="Helvetica,sans-Serif" font-size="10.00">_stat_int</text>
</a>
</g>
</g>
<!-- Node1&#45;&gt;Node35 -->
<g id="edge34_Node000001_Node000035" class="edge">
<title>Node1&#45;&gt;Node35</title>
<g id="a_edge34_Node000001_Node000035"><a xlink:title=" ">
<path fill="none" stroke="#63b8ff" d="M483.89,-950.8C478.54,-898.55 456.77,-755.19 375,-678.5 370.79,-674.55 365.97,-671.23 360.83,-668.42"/>
<polygon fill="#63b8ff" stroke="#63b8ff" points="480.4,-951.14 484.81,-960.77 487.37,-950.49 480.4,-951.14"/>
</a>
</g>
</g>
<!-- Node36 -->
<g id="Node000036" class="node">
<title>Node36</title>
<g id="a_Node000036"><a xlink:href="ade9153a_8c.html#a99c2bc5150d557ee4ef1b3011e407f4f" target="_top" xlink:title="Enable fundamental reactive energy no load condition interrupt.">
<polygon fill="white" stroke="#666666" points="370,-620 215,-620 215,-601 370,-601 370,-620"/>
<text text-anchor="middle" x="292.5" y="-608" font-family="Helvetica,sans-Serif" font-size="10.00">ade9153a_enable_fvarnl_int</text>
</a>
</g>
</g>
<!-- Node1&#45;&gt;Node36 -->
<g id="edge35_Node000001_Node000036" class="edge">
<title>Node1&#45;&gt;Node36</title>
<g id="a_edge35_Node000001_Node000036"><a xlink:title=" ">
<path fill="none" stroke="#63b8ff" d="M485.42,-950.78C484.05,-892.29 471.65,-718.33 375,-629.5 370.83,-625.67 366.04,-622.56 360.91,-620.05"/>
<polygon fill="#63b8ff" stroke="#63b8ff" points="481.92,-950.93 485.57,-960.88 488.92,-950.83 481.92,-950.93"/>
</a>
</g>
</g>
<!-- Node37 -->
<g id="Node000037" class="node">
<title>Node37</title>
<g id="a_Node000037"><a xlink:href="ade9153a_8c.html#a2ea1dc2ceb76e3739555592771cbf059" target="_top" xlink:title="Enable an interrupt when any bit in MS_STATUS_IRQ reg is set.">
<polygon fill="white" stroke="#666666" points="354,-582.5 231,-582.5 231,-552.5 354,-552.5 354,-582.5"/>
<text text-anchor="start" x="239" y="-570.5" font-family="Helvetica,sans-Serif" font-size="10.00">ade9153a_enable_ms</text>
<text text-anchor="middle" x="292.5" y="-559.5" font-family="Helvetica,sans-Serif" font-size="10.00">_stat_int</text>
</a>
</g>
</g>
<!-- Node1&#45;&gt;Node37 -->
<g id="edge36_Node000001_Node000037" class="edge">
<title>Node1&#45;&gt;Node37</title>
<g id="a_edge36_Node000001_Node000037"><a xlink:title=" ">
<path fill="none" stroke="#63b8ff" d="M485.85,-950.68C485.84,-888.62 477.19,-696.05 375,-592.5 369.18,-586.6 362,-582.09 354.35,-578.63"/>
<polygon fill="#63b8ff" stroke="#63b8ff" points="482.35,-950.96 485.77,-960.99 489.35,-951.02 482.35,-950.96"/>
</a>
</g>
</g>
<!-- Node38 -->
<g id="Node000038" class="node">
<title>Node38</title>
<g id="a_Node000038"><a xlink:href="ade9153a_8c.html#a0dc4e6e63841e4fb5eb67ba1fa946e8e" target="_top" xlink:title="Enable pf ready interrupt.">
<polygon fill="white" stroke="#666666" points="351.5,-534.5 233.5,-534.5 233.5,-504.5 351.5,-504.5 351.5,-534.5"/>
<text text-anchor="start" x="241.5" y="-522.5" font-family="Helvetica,sans-Serif" font-size="10.00">ade9153a_enable_pf</text>
<text text-anchor="middle" x="292.5" y="-511.5" font-family="Helvetica,sans-Serif" font-size="10.00">_rdy_int</text>
</a>
</g>
</g>
<!-- Node1&#45;&gt;Node38 -->
<g id="edge37_Node000001_Node000038" class="edge">
<title>Node1&#45;&gt;Node38</title>
<g id="a_edge37_Node000001_Node000038"><a xlink:title=" ">
<path fill="none" stroke="#63b8ff" d="M483,-950.85C472.98,-875.19 433.49,-603.96 375,-543.5 368.54,-536.82 360.32,-531.98 351.61,-528.47"/>
<polygon fill="#63b8ff" stroke="#63b8ff" points="479.54,-951.43 484.3,-960.9 486.48,-950.53 479.54,-951.43"/>
</a>
</g>
</g>
<!-- Node39 -->
<g id="Node000039" class="node">
<title>Node39</title>
<g id="a_Node000039"><a xlink:href="ade9153a_8c.html#ab07bc9430562dec5eefe8d8a0001db13" target="_top" xlink:title="Enable PWRRDY interrupt.">
<polygon fill="white" stroke="#666666" points="372.5,-486 212.5,-486 212.5,-467 372.5,-467 372.5,-486"/>
<text text-anchor="middle" x="292.5" y="-474" font-family="Helvetica,sans-Serif" font-size="10.00">ade9153a_enable_pwrrdy_int</text>
</a>
</g>
</g>
<!-- Node1&#45;&gt;Node39 -->
<g id="edge38_Node000001_Node000039" class="edge">
<title>Node1&#45;&gt;Node39</title>
<g id="a_edge38_Node000001_Node000039"><a xlink:title=" ">
<path fill="none" stroke="#63b8ff" d="M483.64,-950.67C475.62,-869.26 441.32,-561.85 375,-495.5 371.2,-491.7 366.8,-488.6 362.04,-486.08"/>
<polygon fill="#63b8ff" stroke="#63b8ff" points="480.19,-951.37 484.64,-960.99 487.16,-950.7 480.19,-951.37"/>
</a>
</g>
</g>
<!-- Node40 -->
<g id="Node000040" class="node">
<title>Node40</title>
<g id="a_Node000040"><a xlink:href="ade9153a_8c.html#ac30d88867cb0f5350ca9a078ce9af912" target="_top" xlink:title="Enable Phase A total active power changed sign interrupt.">
<polygon fill="white" stroke="#666666" points="372.5,-449 212.5,-449 212.5,-430 372.5,-430 372.5,-449"/>
<text text-anchor="middle" x="292.5" y="-437" font-family="Helvetica,sans-Serif" font-size="10.00">ade9153a_enable_revapa_int</text>
</a>
</g>
</g>
<!-- Node1&#45;&gt;Node40 -->
<g id="edge39_Node000001_Node000040" class="edge">
<title>Node1&#45;&gt;Node40</title>
<g id="a_edge39_Node000001_Node000040"><a xlink:title=" ">
<path fill="none" stroke="#63b8ff" d="M483.99,-950.5C477.11,-864.93 446.03,-530.71 375,-458.5 371.23,-454.67 366.85,-451.55 362.11,-449.01"/>
<polygon fill="#63b8ff" stroke="#63b8ff" points="480.51,-950.98 484.78,-960.67 487.49,-950.43 480.51,-950.98"/>
</a>
</g>
</g>
<!-- Node41 -->
<g id="Node000041" class="node">
<title>Node41</title>
<g id="a_Node000041"><a xlink:href="ade9153a_8c.html#abb19f458f28f38a0bce1b524b344bb02" target="_top" xlink:title="Enable CF1 polarity change sign interrupt.">
<polygon fill="white" stroke="#666666" points="374,-412 211,-412 211,-393 374,-393 374,-412"/>
<text text-anchor="middle" x="292.5" y="-400" font-family="Helvetica,sans-Serif" font-size="10.00">ade9153a_enable_revpcf1_int</text>
</a>
</g>
</g>
<!-- Node1&#45;&gt;Node41 -->
<g id="edge40_Node000001_Node000041" class="edge">
<title>Node1&#45;&gt;Node41</title>
<g id="a_edge40_Node000001_Node000041"><a xlink:title=" ">
<path fill="none" stroke="#63b8ff" d="M484.32,-950.78C478.6,-861.93 450.88,-499.72 375,-421.5 371.36,-417.75 367.13,-414.67 362.55,-412.16"/>
<polygon fill="#63b8ff" stroke="#63b8ff" points="480.83,-951.08 484.95,-960.84 487.82,-950.64 480.83,-951.08"/>
</a>
</g>
</g>
<!-- Node42 -->
<g id="Node000042" class="node">
<title>Node42</title>
<g id="a_Node000042"><a xlink:href="ade9153a_8c.html#a6b400192fa9a5b54c1271b4ea71aa0ab" target="_top" xlink:title="Enable CF2 polarity change sign interrupt.">
<polygon fill="white" stroke="#666666" points="374,-375 211,-375 211,-356 374,-356 374,-375"/>
<text text-anchor="middle" x="292.5" y="-363" font-family="Helvetica,sans-Serif" font-size="10.00">ade9153a_enable_revpcf2_int</text>
</a>
</g>
</g>
<!-- Node1&#45;&gt;Node42 -->
<g id="edge41_Node000001_Node000042" class="edge">
<title>Node1&#45;&gt;Node42</title>
<g id="a_edge41_Node000001_Node000042"><a xlink:title=" ">
<path fill="none" stroke="#63b8ff" d="M484.58,-950.64C479.9,-857.92 455.62,-468.64 375,-384.5 371.38,-380.72 367.17,-377.63 362.6,-375.11"/>
<polygon fill="#63b8ff" stroke="#63b8ff" points="481.09,-950.83 485.07,-960.65 488.08,-950.49 481.09,-950.83"/>
</a>
</g>
</g>
<!-- Node43 -->
<g id="Node000043" class="node">
<title>Node43</title>
<g id="a_Node000043"><a xlink:href="ade9153a_8c.html#a612657bb229695c9c8bf5bdb704cae12" target="_top" xlink:title="Enable Phase A fundamental reactive power changed sign interrupt.">
<polygon fill="white" stroke="#666666" points="371.5,-338 213.5,-338 213.5,-319 371.5,-319 371.5,-338"/>
<text text-anchor="middle" x="292.5" y="-326" font-family="Helvetica,sans-Serif" font-size="10.00">ade9153a_enable_revrpa_int</text>
</a>
</g>
</g>
<!-- Node1&#45;&gt;Node43 -->
<g id="edge42_Node000001_Node000043" class="edge">
<title>Node1&#45;&gt;Node43</title>
<g id="a_edge42_Node000001_Node000043"><a xlink:title=" ">
<path fill="none" stroke="#63b8ff" d="M484.84,-950.93C481.19,-855.26 460.51,-437.71 375,-347.5 371.4,-343.7 367.2,-340.6 362.65,-338.07"/>
<polygon fill="#63b8ff" stroke="#63b8ff" points="481.34,-951.09 485.2,-960.96 488.33,-950.84 481.34,-951.09"/>
</a>
</g>
</g>
<!-- Node44 -->
<g id="Node000044" class="node">
<title>Node44</title>
<g id="a_Node000044"><a xlink:href="ade9153a_8c.html#ae9077bbd1dec4c630201740c7f0c29dc" target="_top" xlink:title="Enable RMS_OC values update interrupt.">
<polygon fill="white" stroke="#666666" points="356,-300.5 229,-300.5 229,-270.5 356,-270.5 356,-300.5"/>
<text text-anchor="start" x="237" y="-288.5" font-family="Helvetica,sans-Serif" font-size="10.00">ade9153a_enable_rms</text>
<text text-anchor="middle" x="292.5" y="-277.5" font-family="Helvetica,sans-Serif" font-size="10.00">_oc_rdy_int</text>
</a>
</g>
</g>
<!-- Node1&#45;&gt;Node44 -->
<g id="edge43_Node000001_Node000044" class="edge">
<title>Node1&#45;&gt;Node44</title>
<g id="a_edge43_Node000001_Node000044"><a xlink:title=" ">
<path fill="none" stroke="#63b8ff" d="M484.91,-950.84C481.57,-851.95 461.91,-409.68 375,-310.5 369.83,-304.6 363.31,-300.07 356.22,-296.6"/>
<polygon fill="#63b8ff" stroke="#63b8ff" points="481.42,-951.05 485.24,-960.93 488.41,-950.83 481.42,-951.05"/>
</a>
</g>
</g>
<!-- Node45 -->
<g id="Node000045" class="node">
<title>Node45</title>
<g id="a_Node000045"><a xlink:href="ade9153a_8c.html#a4184e30c0cdf529701bd046fa20a76ac" target="_top" xlink:title="Enable new temperature reading interrupt.">
<polygon fill="white" stroke="#666666" points="359.5,-252.5 225.5,-252.5 225.5,-222.5 359.5,-222.5 359.5,-252.5"/>
<text text-anchor="start" x="233.5" y="-240.5" font-family="Helvetica,sans-Serif" font-size="10.00">ade9153a_enable_temp</text>
<text text-anchor="middle" x="292.5" y="-229.5" font-family="Helvetica,sans-Serif" font-size="10.00">_rdy_int</text>
</a>
</g>
</g>
<!-- Node1&#45;&gt;Node45 -->
<g id="edge44_Node000001_Node000045" class="edge">
<title>Node1&#45;&gt;Node45</title>
<g id="a_edge44_Node000001_Node000045"><a xlink:title=" ">
<path fill="none" stroke="#63b8ff" d="M485.18,-950.68C483.12,-847.06 468.57,-368.29 375,-261.5 370.72,-256.62 365.51,-252.71 359.81,-249.57"/>
<polygon fill="#63b8ff" stroke="#63b8ff" points="481.68,-950.78 485.36,-960.71 488.68,-950.65 481.68,-950.78"/>
</a>
</g>
</g>
<!-- Node46 -->
<g id="Node000046" class="node">
<title>Node46</title>
<g id="a_Node000046"><a xlink:href="ade9153a_8c.html#a413f2bc184526cb23a98c34e74c2a859" target="_top" xlink:title="Enable total apparent energy no load condition interrupt.">
<polygon fill="white" stroke="#666666" points="366,-204 219,-204 219,-185 366,-185 366,-204"/>
<text text-anchor="middle" x="292.5" y="-192" font-family="Helvetica,sans-Serif" font-size="10.00">ade9153a_enable_vanl_int</text>
</a>
</g>
</g>
<!-- Node1&#45;&gt;Node46 -->
<g id="edge45_Node000001_Node000046" class="edge">
<title>Node1&#45;&gt;Node46</title>
<g id="a_edge45_Node000001_Node000046"><a xlink:title=" ">
<path fill="none" stroke="#63b8ff" d="M485.51,-950.62C485.12,-842.45 477.88,-325.41 375,-213.5 371.56,-209.76 367.53,-206.68 363.15,-204.16"/>
<polygon fill="#63b8ff" stroke="#63b8ff" points="482.01,-950.79 485.52,-960.78 489.01,-950.77 482.01,-950.79"/>
</a>
</g>
</g>
<!-- Node47 -->
<g id="Node000047" class="node">
<title>Node47</title>
<g id="a_Node000047"><a xlink:href="ade9153a_8c.html#adf84982842ffdc91348918bbd7ab29e2" target="_top" xlink:title="Enable total active energy no load condition interrupt.">
<polygon fill="white" stroke="#666666" points="371,-167 214,-167 214,-148 371,-148 371,-167"/>
<text text-anchor="middle" x="292.5" y="-155" font-family="Helvetica,sans-Serif" font-size="10.00">ade9153a_enable_wattnl_int</text>
</a>
</g>
</g>
<!-- Node1&#45;&gt;Node47 -->
<g id="edge46_Node000001_Node000047" class="edge">
<title>Node1&#45;&gt;Node47</title>
<g id="a_edge46_Node000001_Node000047"><a xlink:title=" ">
<path fill="none" stroke="#63b8ff" d="M485.65,-950.71C486.11,-839.63 482.75,-294.5 375,-176.5 371.57,-172.74 367.56,-169.66 363.18,-167.14"/>
<polygon fill="#63b8ff" stroke="#63b8ff" points="482.15,-950.81 485.6,-960.83 489.15,-950.85 482.15,-950.81"/>
</a>
</g>
</g>
<!-- Node48 -->
<g id="Node000048" class="node">
<title>Node48</title>
<g id="a_Node000048"><a xlink:href="ade9153a_8c.html#a37508f0a393ae6a26419aec8a3026788" target="_top" xlink:title="Enable zero corssing detected on I ch A interrupt.">
<polygon fill="white" stroke="#666666" points="365.5,-130 219.5,-130 219.5,-111 365.5,-111 365.5,-130"/>
<text text-anchor="middle" x="292.5" y="-118" font-family="Helvetica,sans-Serif" font-size="10.00">ade9153a_enable_zxai_int</text>
</a>
</g>
</g>
<!-- Node1&#45;&gt;Node48 -->
<g id="edge47_Node000001_Node000048" class="edge">
<title>Node1&#45;&gt;Node48</title>
<g id="a_edge47_Node000001_Node000048"><a xlink:title=" ">
<path fill="none" stroke="#63b8ff" d="M485.79,-950.87C487.04,-837.14 487.65,-263.62 375,-139.5 371.58,-135.73 367.58,-132.64 363.21,-130.11"/>
<polygon fill="#63b8ff" stroke="#63b8ff" points="482.29,-950.88 485.66,-960.92 489.29,-950.97 482.29,-950.88"/>
</a>
</g>
</g>
<!-- Node49 -->
<g id="Node000049" class="node">
<title>Node49</title>
<g id="a_Node000049"><a xlink:href="ade9153a_8c.html#a59ad9013babbfb3f0a7392c3e2b24ef5" target="_top" xlink:title="Enable zero corssing detected on V ch interrupt.">
<polygon fill="white" stroke="#666666" points="367,-93 218,-93 218,-74 367,-74 367,-93"/>
<text text-anchor="middle" x="292.5" y="-81" font-family="Helvetica,sans-Serif" font-size="10.00">ade9153a_enable_zxav_int</text>
</a>
</g>
</g>
<!-- Node1&#45;&gt;Node49 -->
<g id="edge48_Node000001_Node000049" class="edge">
<title>Node1&#45;&gt;Node49</title>
<g id="a_edge48_Node000001_Node000049"><a xlink:title=" ">
<path fill="none" stroke="#63b8ff" d="M484.33,-950.79C476.83,-827.73 434.04,-167.91 375,-102.5 371.59,-98.72 367.59,-95.63 363.23,-93.09"/>
<polygon fill="#63b8ff" stroke="#63b8ff" points="480.85,-951.22 484.94,-960.99 487.83,-950.8 480.85,-951.22"/>
</a>
</g>
</g>
<!-- Node50 -->
<g id="Node000050" class="node">
<title>Node50</title>
<g id="a_Node000050"><a xlink:href="ade9153a_8c.html#a6b877783493322c64421a0eec4dc870b" target="_top" xlink:title="Enable zero corssing detected on I ch B interrupt.">
<polygon fill="white" stroke="#666666" points="365.5,-56 219.5,-56 219.5,-37 365.5,-37 365.5,-56"/>
<text text-anchor="middle" x="292.5" y="-44" font-family="Helvetica,sans-Serif" font-size="10.00">ade9153a_enable_zxbi_int</text>
</a>
</g>
</g>
<!-- Node1&#45;&gt;Node50 -->
<g id="edge49_Node000001_Node000050" class="edge">
<title>Node1&#45;&gt;Node50</title>
<g id="a_edge49_Node000001_Node000050"><a xlink:title=" ">
<path fill="none" stroke="#63b8ff" d="M484.43,-950.74C477.43,-824.49 436.46,-133.96 375,-65.5 371.6,-61.72 367.61,-58.61 363.25,-56.07"/>
<polygon fill="#63b8ff" stroke="#63b8ff" points="480.94,-951.08 484.99,-960.88 487.93,-950.7 480.94,-951.08"/>
</a>
</g>
</g>
<!-- Node51 -->
<g id="Node000051" class="node">
<title>Node51</title>
<g id="a_Node000051"><a xlink:href="ade9153a_8c.html#a3d7c554994fc8f3e0804dfdfd82e3f32" target="_top" xlink:title="Enable zero corssing timeout on voltage ch interrupt.">
<polygon fill="white" stroke="#666666" points="372,-19 213,-19 213,0 372,0 372,-19"/>
<text text-anchor="middle" x="292.5" y="-7" font-family="Helvetica,sans-Serif" font-size="10.00">ade9153a_enable_zxtoav_int</text>
</a>
</g>
</g>
<!-- Node1&#45;&gt;Node51 -->
<g id="edge50_Node000001_Node000051" class="edge">
<title>Node1&#45;&gt;Node51</title>
<g id="a_edge50_Node000001_Node000051"><a xlink:title=" ">
<path fill="none" stroke="#63b8ff" d="M484.53,-950.74C478.01,-821.5 438.9,-100.01 375,-28.5 371.61,-24.71 367.63,-21.6 363.27,-19.05"/>
<polygon fill="#63b8ff" stroke="#63b8ff" points="481.04,-950.97 485.03,-960.78 488.03,-950.62 481.04,-950.97"/>
</a>
</g>
</g>
<!-- Node33 -->
<g id="Node000033" class="node">
<title>Node33</title>
<g id="a_Node000033"><a xlink:href="ade9153a_8c.html#a1b0d3202f129c89f6d407e01ed421bd9" target="_top" xlink:title="ADE9153A setup.">
<polygon fill="white" stroke="#666666" points="174,-706 77,-706 77,-687 174,-687 174,-706"/>
<text text-anchor="middle" x="125.5" y="-694" font-family="Helvetica,sans-Serif" font-size="10.00">ade9153a_setup</text>
</a>
</g>
</g>
<!-- Node32&#45;&gt;Node33 -->
<g id="edge32_Node000032_Node000033" class="edge">
<title>Node32&#45;&gt;Node33</title>
<g id="a_edge32_Node000032_Node000033"><a xlink:title=" ">
<path fill="none" stroke="#63b8ff" d="M202.28,-696.5C192.6,-696.5 183.05,-696.5 174.15,-696.5"/>
<polygon fill="#63b8ff" stroke="#63b8ff" points="202.38,-700 212.38,-696.5 202.38,-693 202.38,-700"/>
</a>
</g>
</g>
<!-- Node34 -->
<g id="Node000034" class="node">
<title>Node34</title>
<g id="a_Node000034"><a xlink:href="eval-ade9153a_2src_2main_8c.html#a840291bc02cba5474a4cb46a9b9566fe" target="_top" xlink:title=" ">
<polygon fill="white" stroke="#666666" points="41,-706 0,-706 0,-687 41,-687 41,-706"/>
<text text-anchor="middle" x="20.5" y="-694" font-family="Helvetica,sans-Serif" font-size="10.00">main</text>
</a>
</g>
</g>
<!-- Node33&#45;&gt;Node34 -->
<g id="edge33_Node000033_Node000034" class="edge">
<title>Node33&#45;&gt;Node34</title>
<g id="a_edge33_Node000033_Node000034"><a xlink:title=" ">
<path fill="none" stroke="#63b8ff" d="M66.83,-696.5C57.57,-696.5 48.59,-696.5 41.09,-696.5"/>
<polygon fill="#63b8ff" stroke="#63b8ff" points="66.92,-700 76.92,-696.5 66.92,-693 66.92,-700"/>
</a>
</g>
</g>
</g>
</svg>
