<?xml version="1.0" encoding="UTF-8" standalone="no"?>
<!DOCTYPE svg PUBLIC "-//W3C//DTD SVG 1.1//EN"
 "http://www.w3.org/Graphics/SVG/1.1/DTD/svg11.dtd">
<!-- Generated by graphviz version 2.43.0 (0)
 -->
<!-- Title: ade9153a_write Pages: 1 -->
<!--zoomable 327 -->

<svg id="main" version="1.1" xmlns="http://www.w3.org/2000/svg" xmlns:xlink="http://www.w3.org/1999/xlink" xml:space="preserve" onload="init(evt)">

<style type="text/css"><![CDATA[
.node, .edge {opacity: 0.7;}
.node.selected, .edge.selected {opacity: 1;}
.edge:hover path { stroke: red; }
.edge:hover polygon { stroke: red; fill: red; }
]]></style>

<defs>
  <circle id="rim" cx="0" cy="0" r="7"/>
  <circle id="rim2" cx="0" cy="0" r="3.5"/>
  <g id="zoomPlus">
    <use xlink:href="#rim" fill="#404040"><set attributeName="fill" to="#808080" begin="zoomplus.mouseover" end="zoomplus.mouseout"/></use>
    <path d="M-4,0h8M0,-4v8" fill="none" stroke="white" stroke-width="1.5" pointer-events="none"/>
  </g>
  <g id="zoomMin">
    <use xlink:href="#rim" fill="#404040"><set attributeName="fill" to="#808080" begin="zoomminus.mouseover" end="zoomminus.mouseout"/></use>
    <path d="M-4,0h8" fill="none" stroke="white" stroke-width="1.5" pointer-events="none"/>
  </g>
  <g id="arrowUp" transform="translate(30 24)">
    <use xlink:href="#rim"/>
    <path pointer-events="none" fill="none" stroke="white" stroke-width="1.5" d="M0,-3.0v7 M-2.5,-0.5L0,-3.0L2.5,-0.5"/>
  </g>
  <g id="arrowRight" transform="rotate(90) translate(36 -43)">
    <use xlink:href="#rim"/>
    <path pointer-events="none" fill="none" stroke="white" stroke-width="1.5" d="M0,-3.0v7 M-2.5,-0.5L0,-3.0L2.5,-0.5"/>
  </g>
  <g id="arrowDown" transform="rotate(180) translate(-30 -48)">
    <use xlink:href="#rim"/>
    <path pointer-events="none" fill="none" stroke="white" stroke-width="1.5" d="M0,-3.0v7 M-2.5,-0.5L0,-3.0L2.5,-0.5"/>
  </g>
  <g id="arrowLeft" transform="rotate(270) translate(-36 17)">
    <use xlink:href="#rim"/>
    <path pointer-events="none" fill="none" stroke="white" stroke-width="1.5" d="M0,-3.0v7 M-2.5,-0.5L0,-3.0L2.5,-0.5"/>
  </g>
  <g id="resetDef">
    <use xlink:href="#rim2" fill="#404040"><set attributeName="fill" to="#808080" begin="reset.mouseover" end="reset.mouseout"/></use>
  </g>
</defs>
<script type="application/ecmascript">
var viewWidth = 538;
var viewHeight = 327;
var sectionId = 'dynsection-41';
</script>
<script type="application/ecmascript" xlink:href="svg.min.js"/>
<svg id="graph" class="graph">
<g id="viewport">
<title>ade9153a_write</title>
<!-- Node1 -->
<g id="Node000001" class="node">
<title>Node1</title>
<g id="a_Node000001"><a xlink:title="Write device register.">
<polygon fill="#999999" stroke="#666666" points="530,-168 435,-168 435,-149 530,-149 530,-168"/>
<text text-anchor="middle" x="482.5" y="-156" font-family="Helvetica,sans-Serif" font-size="10.00">ade9153a_write</text>
</a>
</g>
</g>
<!-- Node2 -->
<g id="Node000002" class="node">
<title>Node2</title>
<g id="a_Node000002"><a xlink:href="ade9153a_8c.html#af2b3784b3383441ce8a13692509c716a" target="_top" xlink:title="Set PGA gain for current channel B.">
<polygon fill="white" stroke="#666666" points="399,-319 256,-319 256,-300 399,-300 399,-319"/>
<text text-anchor="middle" x="327.5" y="-307" font-family="Helvetica,sans-Serif" font-size="10.00">ade9153a_bi_pgagain_set</text>
</a>
</g>
</g>
<!-- Node1&#45;&gt;Node2 -->
<g id="edge1_Node000001_Node000002" class="edge">
<title>Node1&#45;&gt;Node2</title>
<g id="a_edge1_Node000001_Node000002"><a xlink:title=" ">
<path fill="none" stroke="#63b8ff" d="M474.91,-177.81C463.91,-207.02 439,-262.16 399,-291.5 394.31,-294.94 389.04,-297.72 383.53,-299.97"/>
<polygon fill="#63b8ff" stroke="#63b8ff" points="478.23,-178.9 478.33,-168.31 471.65,-176.53 478.23,-178.9"/>
</a>
</g>
</g>
<!-- Node3 -->
<g id="Node000003" class="node">
<title>Node3</title>
<g id="a_Node000003"><a xlink:href="ade9153a_8c.html#aabf054f4ac17617bd9b93ccb35ac1548" target="_top" xlink:title="COMPMODE.">
<polygon fill="white" stroke="#666666" points="390,-282 265,-282 265,-263 390,-263 390,-282"/>
<text text-anchor="middle" x="327.5" y="-270" font-family="Helvetica,sans-Serif" font-size="10.00">ade9153a_compmode</text>
</a>
</g>
</g>
<!-- Node1&#45;&gt;Node3 -->
<g id="edge2_Node000001_Node000003" class="edge">
<title>Node1&#45;&gt;Node3</title>
<g id="a_edge2_Node000001_Node000003"><a xlink:title=" ">
<path fill="none" stroke="#63b8ff" d="M469.36,-176.42C454.83,-196.6 428.7,-229.1 399,-248.5 389.58,-254.65 378.42,-259.39 367.79,-262.97"/>
<polygon fill="#63b8ff" stroke="#63b8ff" points="472.32,-178.3 475.19,-168.11 466.59,-174.28 472.32,-178.3"/>
</a>
</g>
</g>
<!-- Node4 -->
<g id="Node000004" class="node">
<title>Node4</title>
<g id="a_Node000004"><a xlink:href="ade9153a_8c.html#a1b0d3202f129c89f6d407e01ed421bd9" target="_top" xlink:title="ADE9153A setup.">
<polygon fill="white" stroke="#666666" points="197,-244 100,-244 100,-225 197,-225 197,-244"/>
<text text-anchor="middle" x="148.5" y="-232" font-family="Helvetica,sans-Serif" font-size="10.00">ade9153a_setup</text>
</a>
</g>
</g>
<!-- Node1&#45;&gt;Node4 -->
<g id="edge10_Node000001_Node000004" class="edge">
<title>Node1&#45;&gt;Node4</title>
<g id="a_edge10_Node000001_Node000004"><a xlink:title=" ">
<path fill="none" stroke="#63b8ff" d="M463.5,-175.19C447.77,-188.67 423.65,-206.77 399,-215.5 332.05,-239.21 248.84,-240.38 197.46,-238.14"/>
<polygon fill="#63b8ff" stroke="#63b8ff" points="466.15,-177.52 471.33,-168.27 461.52,-172.27 466.15,-177.52"/>
</a>
</g>
</g>
<!-- Node6 -->
<g id="Node000006" class="node">
<title>Node6</title>
<g id="a_Node000006"><a xlink:href="ade9153a_8c.html#af89ce9721bb6412b724367405adb65b2" target="_top" xlink:title="Start measurements.">
<polygon fill="white" stroke="#666666" points="370.5,-206 284.5,-206 284.5,-187 370.5,-187 370.5,-206"/>
<text text-anchor="middle" x="327.5" y="-194" font-family="Helvetica,sans-Serif" font-size="10.00">ade9153a_run</text>
</a>
</g>
</g>
<!-- Node1&#45;&gt;Node6 -->
<g id="edge5_Node000001_Node000006" class="edge">
<title>Node1&#45;&gt;Node6</title>
<g id="a_edge5_Node000001_Node000006"><a xlink:title=" ">
<path fill="none" stroke="#63b8ff" d="M433.02,-170.54C411.65,-175.85 386.89,-182 366.83,-186.98"/>
<polygon fill="#63b8ff" stroke="#63b8ff" points="434.03,-173.9 442.89,-168.09 432.34,-167.1 434.03,-173.9"/>
</a>
</g>
</g>
<!-- Node8 -->
<g id="Node000008" class="node">
<title>Node8</title>
<g id="a_Node000008"><a xlink:href="eval-ade9153a_2src_2common_2common__data_8c.html#a5b32942d81fb899bcf8c3907bc9fde17" target="_top" xlink:title="Autocalibration read values.">
<polygon fill="white" stroke="#666666" points="220,-168 77,-168 77,-149 220,-149 220,-168"/>
<text text-anchor="middle" x="148.5" y="-156" font-family="Helvetica,sans-Serif" font-size="10.00">autocalibration_read_vals</text>
</a>
</g>
</g>
<!-- Node1&#45;&gt;Node8 -->
<g id="edge15_Node000001_Node000008" class="edge">
<title>Node1&#45;&gt;Node8</title>
<g id="a_edge15_Node000001_Node000008"><a xlink:title=" ">
<path fill="none" stroke="#63b8ff" d="M424.79,-158.5C368.18,-158.5 281.08,-158.5 220.04,-158.5"/>
<polygon fill="#63b8ff" stroke="#63b8ff" points="424.99,-162 434.99,-158.5 424.99,-155 424.99,-162"/>
</a>
</g>
</g>
<!-- Node9 -->
<g id="Node000009" class="node">
<title>Node9</title>
<g id="a_Node000009"><a xlink:href="ade9153a_8c.html#a78a3139cbb4fb1dbf5cf3d3b436b4b83" target="_top" xlink:title="Stop measurements.">
<polygon fill="white" stroke="#666666" points="373,-130 282,-130 282,-111 373,-111 373,-130"/>
<text text-anchor="middle" x="327.5" y="-118" font-family="Helvetica,sans-Serif" font-size="10.00">ade9153a_stop</text>
</a>
</g>
</g>
<!-- Node1&#45;&gt;Node9 -->
<g id="edge11_Node000001_Node000009" class="edge">
<title>Node1&#45;&gt;Node9</title>
<g id="a_edge11_Node000001_Node000009"><a xlink:title=" ">
<path fill="none" stroke="#63b8ff" d="M433.02,-146.46C411.65,-141.15 386.89,-135 366.83,-130.02"/>
<polygon fill="#63b8ff" stroke="#63b8ff" points="432.34,-149.9 442.89,-148.91 434.03,-143.1 432.34,-149.9"/>
</a>
</g>
</g>
<!-- Node10 -->
<g id="Node000010" class="node">
<title>Node10</title>
<g id="a_Node000010"><a xlink:href="ade9153a_8c.html#a6bbe212f26b3327fea7e5cfe2919f071" target="_top" xlink:title="Lock device.">
<polygon fill="white" stroke="#666666" points="381,-93 274,-93 274,-74 381,-74 381,-93"/>
<text text-anchor="middle" x="327.5" y="-81" font-family="Helvetica,sans-Serif" font-size="10.00">ade9153a_wr_lock</text>
</a>
</g>
</g>
<!-- Node1&#45;&gt;Node10 -->
<g id="edge13_Node000001_Node000010" class="edge">
<title>Node1&#45;&gt;Node10</title>
<g id="a_edge13_Node000001_Node000010"><a xlink:title=" ">
<path fill="none" stroke="#63b8ff" d="M462.52,-142.46C446.52,-129.68 422.53,-112.21 399,-101.5 391.64,-98.15 383.56,-95.35 375.57,-93.03"/>
<polygon fill="#63b8ff" stroke="#63b8ff" points="460.58,-145.39 470.53,-149 465,-139.96 460.58,-145.39"/>
</a>
</g>
</g>
<!-- Node11 -->
<g id="Node000011" class="node">
<title>Node11</title>
<g id="a_Node000011"><a xlink:href="ade9153a_8c.html#a84c95b7f7f2788a321ae3d26a529966a" target="_top" xlink:title="Unlock device.">
<polygon fill="white" stroke="#666666" points="387,-56 268,-56 268,-37 387,-37 387,-56"/>
<text text-anchor="middle" x="327.5" y="-44" font-family="Helvetica,sans-Serif" font-size="10.00">ade9153a_wr_unlock</text>
</a>
</g>
</g>
<!-- Node1&#45;&gt;Node11 -->
<g id="edge14_Node000001_Node000011" class="edge">
<title>Node1&#45;&gt;Node11</title>
<g id="a_edge14_Node000001_Node000011"><a xlink:title=" ">
<path fill="none" stroke="#63b8ff" d="M470.44,-140.29C456.48,-118.86 430.44,-83.79 399,-64.5 393.4,-61.07 387.17,-58.28 380.79,-56.03"/>
<polygon fill="#63b8ff" stroke="#63b8ff" points="467.53,-142.22 475.83,-148.8 473.44,-138.48 467.53,-142.22"/>
</a>
</g>
</g>
<!-- Node12 -->
<g id="Node000012" class="node">
<title>Node12</title>
<g id="a_Node000012"><a xlink:href="eval-ade9153a_2src_2common_2common__data_8c.html#a8ab286a0277c4951842d176a2ce4c41c" target="_top" xlink:title="Autocalibration start.">
<polygon fill="white" stroke="#666666" points="386.5,-19 268.5,-19 268.5,0 386.5,0 386.5,-19"/>
<text text-anchor="middle" x="327.5" y="-7" font-family="Helvetica,sans-Serif" font-size="10.00">autocalibration_start</text>
</a>
</g>
</g>
<!-- Node1&#45;&gt;Node12 -->
<g id="edge16_Node000001_Node000012" class="edge">
<title>Node1&#45;&gt;Node12</title>
<g id="a_edge16_Node000001_Node000012"><a xlink:title=" ">
<path fill="none" stroke="#63b8ff" d="M474.68,-139.1C463.5,-110.23 438.5,-56.26 399,-27.5 394.3,-24.08 389.02,-21.31 383.51,-19.06"/>
<polygon fill="#63b8ff" stroke="#63b8ff" points="471.53,-140.68 478.29,-148.84 478.09,-138.24 471.53,-140.68"/>
</a>
</g>
</g>
<!-- Node3&#45;&gt;Node4 -->
<g id="edge3_Node000003_Node000004" class="edge">
<title>Node3&#45;&gt;Node4</title>
<g id="a_edge3_Node000003_Node000004"><a xlink:title=" ">
<path fill="none" stroke="#63b8ff" d="M271.76,-260.75C246.73,-255.37 217.47,-249.09 193.84,-244.02"/>
<polygon fill="#63b8ff" stroke="#63b8ff" points="271.32,-264.23 281.84,-262.91 272.79,-257.39 271.32,-264.23"/>
</a>
</g>
</g>
<!-- Node5 -->
<g id="Node000005" class="node">
<title>Node5</title>
<g id="a_Node000005"><a xlink:href="eval-ade9153a_2src_2main_8c.html#a840291bc02cba5474a4cb46a9b9566fe" target="_top" xlink:title=" ">
<polygon fill="white" stroke="#666666" points="41,-206 0,-206 0,-187 41,-187 41,-206"/>
<text text-anchor="middle" x="20.5" y="-194" font-family="Helvetica,sans-Serif" font-size="10.00">main</text>
</a>
</g>
</g>
<!-- Node4&#45;&gt;Node5 -->
<g id="edge4_Node000004_Node000005" class="edge">
<title>Node4&#45;&gt;Node5</title>
<g id="a_edge4_Node000004_Node000005"><a xlink:title=" ">
<path fill="none" stroke="#63b8ff" d="M100.3,-222.25C92.49,-220.09 84.5,-217.79 77,-215.5 65.02,-211.84 51.74,-207.31 41.17,-203.59"/>
<polygon fill="#63b8ff" stroke="#63b8ff" points="99.48,-225.65 110.05,-224.9 101.32,-218.9 99.48,-225.65"/>
</a>
</g>
</g>
<!-- Node7 -->
<g id="Node000007" class="node">
<title>Node7</title>
<g id="a_Node000007"><a xlink:href="ade9153a_8c.html#ad93af9e1aabc3f67b04304db2fd36912" target="_top" xlink:title="Initialize the device.">
<polygon fill="white" stroke="#666666" points="191.5,-206 105.5,-206 105.5,-187 191.5,-187 191.5,-206"/>
<text text-anchor="middle" x="148.5" y="-194" font-family="Helvetica,sans-Serif" font-size="10.00">ade9153a_init</text>
</a>
</g>
</g>
<!-- Node6&#45;&gt;Node7 -->
<g id="edge6_Node000006_Node000007" class="edge">
<title>Node6&#45;&gt;Node7</title>
<g id="a_edge6_Node000006_Node000007"><a xlink:title=" ">
<path fill="none" stroke="#63b8ff" d="M273.93,-196.5C247.63,-196.5 216.23,-196.5 191.55,-196.5"/>
<polygon fill="#63b8ff" stroke="#63b8ff" points="274.1,-200 284.1,-196.5 274.1,-193 274.1,-200"/>
</a>
</g>
</g>
<!-- Node6&#45;&gt;Node8 -->
<g id="edge8_Node000006_Node000008" class="edge">
<title>Node6&#45;&gt;Node8</title>
<g id="a_edge8_Node000006_Node000008"><a xlink:title=" ">
<path fill="none" stroke="#63b8ff" d="M274.23,-185.28C248.74,-179.81 218.4,-173.29 194.02,-168.06"/>
<polygon fill="#63b8ff" stroke="#63b8ff" points="273.59,-188.72 284.1,-187.4 275.06,-181.88 273.59,-188.72"/>
</a>
</g>
</g>
<!-- Node7&#45;&gt;Node5 -->
<g id="edge7_Node000007_Node000005" class="edge">
<title>Node7&#45;&gt;Node5</title>
<g id="a_edge7_Node000007_Node000005"><a xlink:title=" ">
<path fill="none" stroke="#63b8ff" d="M95.11,-196.5C76.1,-196.5 55.76,-196.5 41.29,-196.5"/>
<polygon fill="#63b8ff" stroke="#63b8ff" points="95.19,-200 105.19,-196.5 95.19,-193 95.19,-200"/>
</a>
</g>
</g>
<!-- Node8&#45;&gt;Node5 -->
<g id="edge9_Node000008_Node000005" class="edge">
<title>Node8&#45;&gt;Node5</title>
<g id="a_edge9_Node000008_Node000005"><a xlink:title=" ">
<path fill="none" stroke="#63b8ff" d="M103.33,-170.76C94.59,-173.26 85.49,-175.92 77,-178.5 65.08,-182.12 51.8,-186.42 41.22,-189.91"/>
<polygon fill="#63b8ff" stroke="#63b8ff" points="104.34,-174.11 113,-168.01 102.43,-167.38 104.34,-174.11"/>
</a>
</g>
</g>
<!-- Node9&#45;&gt;Node8 -->
<g id="edge12_Node000009_Node000008" class="edge">
<title>Node9&#45;&gt;Node8</title>
<g id="a_edge12_Node000009_Node000008"><a xlink:title=" ">
<path fill="none" stroke="#63b8ff" d="M271.76,-132.25C246.73,-137.63 217.47,-143.91 193.84,-148.98"/>
<polygon fill="#63b8ff" stroke="#63b8ff" points="272.79,-135.61 281.84,-130.09 271.32,-128.77 272.79,-135.61"/>
</a>
</g>
</g>
<!-- Node12&#45;&gt;Node8 -->
<g id="edge17_Node000012_Node000008" class="edge">
<title>Node12&#45;&gt;Node8</title>
<g id="a_edge17_Node000012_Node000008"><a xlink:title=" ">
<path fill="none" stroke="#63b8ff" d="M264.11,-22.99C261.3,-24.35 258.58,-25.85 256,-27.5 205.38,-59.88 167.54,-124.4 154.47,-148.83"/>
<polygon fill="#63b8ff" stroke="#63b8ff" points="265.5,-26.21 273.35,-19.1 262.78,-19.76 265.5,-26.21"/>
</a>
</g>
</g>
</g>
</svg>

<g id="navigator" transform="translate(0 0)" fill="#404254">
  <rect fill="#f2f5e9" fill-opacity="0.5" stroke="#606060" stroke-width=".5" x="0" y="0" width="60" height="60"/>
  <use id="zoomplus" xlink:href="#zoomPlus" x="17" y="9" onmousedown="handleZoom(evt,'in')"/>
  <use id="zoomminus" xlink:href="#zoomMin" x="42" y="9" onmousedown="handleZoom(evt,'out')"/>
  <use id="reset" xlink:href="#resetDef" x="30" y="36" onmousedown="handleReset()"/>
   <use id="arrowup" xlink:href="#arrowUp" x="0" y="0" onmousedown="handlePan(0,-1)"/>
  <use id="arrowright" xlink:href="#arrowRight" x="0" y="0" onmousedown="handlePan(1,0)"/>
  <use id="arrowdown" xlink:href="#arrowDown" x="0" y="0" onmousedown="handlePan(0,1)"/>
  <use id="arrowleft" xlink:href="#arrowLeft" x="0" y="0" onmousedown="handlePan(-1,0)"/>
</g>
<svg viewBox="0 0 15 15" width="100%" height="30px" preserveAspectRatio="xMaxYMin meet">
 <g id="arrow_out" transform="scale(0.3 0.3)">
  <a xlink:href="ade9153a_8c_a795378f4c6861c794fed820bc73d6443_icgraph_org.svg" target="_base">
   <rect id="button" ry="5" rx="5" y="6" x="6" height="38" width="38"
        fill="#f2f5e9" fill-opacity="0.5" stroke="#606060" stroke-width="1.0"/>
   <path id="arrow"
     d="M 11.500037,31.436501 C 11.940474,20.09759 22.043105,11.32322 32.158766,21.979434 L 37.068811,17.246167 C 37.068811,17.246167 37.088388,32 37.088388,32 L 22.160133,31.978069 C 22.160133,31.978069 26.997745,27.140456 26.997745,27.140456 C 18.528582,18.264221 13.291696,25.230495 11.500037,31.436501 z"
     style="fill:#404040;"/>
  </a>
 </g>
</svg>

<style type='text/css'>
<![CDATA[
[data-mouse-over-selected='false'] { opacity: 0.7; }
[data-mouse-over-selected='true']  { opacity: 1.0; }
]]>
</style>
<script type="application/ecmascript"><![CDATA[
document.addEventListener('DOMContentLoaded', (event) => {
  highlightEdges();
  highlightAdjacentNodes();
});
]]></script>
</svg>
