<?xml version="1.0" encoding="UTF-8" standalone="no"?>
<!DOCTYPE svg PUBLIC "-//W3C//DTD SVG 1.1//EN"
 "http://www.w3.org/Graphics/SVG/1.1/DTD/svg11.dtd">
<!-- Generated by graphviz version 2.43.0 (0)
 -->
<!-- Title: drivers/meter/ade9430/ade9430.c Pages: 1 -->
<svg width="572pt" height="203pt"
 viewBox="0.00 0.00 571.50 203.00" xmlns="http://www.w3.org/2000/svg" xmlns:xlink="http://www.w3.org/1999/xlink">
<g id="graph0" class="graph" transform="scale(1 1) rotate(0) translate(4 199)">
<title>drivers/meter/ade9430/ade9430.c</title>
<!-- Node1 -->
<g id="Node000001" class="node">
<title>Node1</title>
<g id="a_Node000001"><a xlink:title="Implementation of ADE9430 Driver.">
<polygon fill="#999999" stroke="#666666" points="370,-195 242,-195 242,-165 370,-165 370,-195"/>
<text text-anchor="start" x="250" y="-183" font-family="Helvetica,sans-Serif" font-size="10.00">drivers/meter/ade9430</text>
<text text-anchor="middle" x="306" y="-172" font-family="Helvetica,sans-Serif" font-size="10.00">/ade9430.c</text>
</a>
</g>
</g>
<!-- Node2 -->
<g id="Node000002" class="node">
<title>Node2</title>
<g id="a_Node000002"><a xlink:title=" ">
<polygon fill="#e0e0e0" stroke="#999999" points="142.5,-19 89.5,-19 89.5,0 142.5,0 142.5,-19"/>
<text text-anchor="middle" x="116" y="-7" font-family="Helvetica,sans-Serif" font-size="10.00">stdlib.h</text>
</a>
</g>
</g>
<!-- Node1&#45;&gt;Node2 -->
<g id="edge1_Node000001_Node000002" class="edge">
<title>Node1&#45;&gt;Node2</title>
<g id="a_edge1_Node000001_Node000002"><a xlink:title=" ">
<path fill="none" stroke="#63b8ff" d="M268.03,-164.86C229.42,-148.62 170.51,-118.35 136,-74 125.91,-61.03 120.86,-42.88 118.36,-29.3"/>
<polygon fill="#63b8ff" stroke="#63b8ff" points="121.78,-28.54 116.81,-19.19 114.86,-29.6 121.78,-28.54"/>
</a>
</g>
</g>
<!-- Node3 -->
<g id="Node000003" class="node">
<title>Node3</title>
<g id="a_Node000003"><a xlink:href="errno_8h.html" target="_top" xlink:title="Error macro definition for ARM Compiler.">
<polygon fill="white" stroke="#666666" points="416.5,-129 365.5,-129 365.5,-110 416.5,-110 416.5,-129"/>
<text text-anchor="middle" x="391" y="-117" font-family="Helvetica,sans-Serif" font-size="10.00">errno.h</text>
</a>
</g>
</g>
<!-- Node1&#45;&gt;Node3 -->
<g id="edge2_Node000001_Node000003" class="edge">
<title>Node1&#45;&gt;Node3</title>
<g id="a_edge2_Node000001_Node000003"><a xlink:title=" ">
<path fill="none" stroke="#63b8ff" d="M326.58,-164.84C339.67,-155.83 356.59,-144.18 369.8,-135.09"/>
<polygon fill="#63b8ff" stroke="#63b8ff" points="372.01,-137.82 378.26,-129.27 368.04,-132.05 372.01,-137.82"/>
</a>
</g>
</g>
<!-- Node4 -->
<g id="Node000004" class="node">
<title>Node4</title>
<g id="a_Node000004"><a xlink:href="ade9430_8h.html" target="_top" xlink:title="Header file of ADE9430 Driver.">
<polygon fill="white" stroke="#666666" points="309,-129 241,-129 241,-110 309,-110 309,-129"/>
<text text-anchor="middle" x="275" y="-117" font-family="Helvetica,sans-Serif" font-size="10.00">ade9430.h</text>
</a>
</g>
</g>
<!-- Node1&#45;&gt;Node4 -->
<g id="edge3_Node000001_Node000004" class="edge">
<title>Node1&#45;&gt;Node4</title>
<g id="a_edge3_Node000001_Node000004"><a xlink:title=" ">
<path fill="none" stroke="#63b8ff" d="M298.5,-164.84C294.27,-156.87 288.96,-146.84 284.45,-138.33"/>
<polygon fill="#63b8ff" stroke="#63b8ff" points="287.42,-136.46 279.65,-129.27 281.23,-139.74 287.42,-136.46"/>
</a>
</g>
</g>
<!-- Node10 -->
<g id="Node000010" class="node">
<title>Node10</title>
<g id="a_Node000010"><a xlink:href="no__os__delay_8h.html" target="_top" xlink:title="Header file of Delay functions.">
<polygon fill="white" stroke="#666666" points="563.5,-74 478.5,-74 478.5,-55 563.5,-55 563.5,-74"/>
<text text-anchor="middle" x="521" y="-62" font-family="Helvetica,sans-Serif" font-size="10.00">no_os_delay.h</text>
</a>
</g>
</g>
<!-- Node1&#45;&gt;Node10 -->
<g id="edge13_Node000001_Node000010" class="edge">
<title>Node1&#45;&gt;Node10</title>
<g id="a_edge13_Node000001_Node000010"><a xlink:title=" ">
<path fill="none" stroke="#63b8ff" d="M312.76,-164.87C321.02,-149.12 336.46,-124.04 357,-110 390,-87.44 434,-76.3 468.12,-70.8"/>
<polygon fill="#63b8ff" stroke="#63b8ff" points="469,-74.21 478.37,-69.27 467.96,-67.29 469,-74.21"/>
</a>
</g>
</g>
<!-- Node11 -->
<g id="Node000011" class="node">
<title>Node11</title>
<g id="a_Node000011"><a xlink:href="no__os__units_8h.html" target="_top" xlink:title="Header file of Units.">
<polygon fill="white" stroke="#666666" points="517.5,-129 434.5,-129 434.5,-110 517.5,-110 517.5,-129"/>
<text text-anchor="middle" x="476" y="-117" font-family="Helvetica,sans-Serif" font-size="10.00">no_os_units.h</text>
</a>
</g>
</g>
<!-- Node1&#45;&gt;Node11 -->
<g id="edge15_Node000001_Node000011" class="edge">
<title>Node1&#45;&gt;Node11</title>
<g id="a_edge15_Node000001_Node000011"><a xlink:title=" ">
<path fill="none" stroke="#63b8ff" d="M346.72,-164.99C375.59,-155.05 413.91,-141.86 441.33,-132.43"/>
<polygon fill="#63b8ff" stroke="#63b8ff" points="442.58,-135.7 450.89,-129.14 440.3,-129.08 442.58,-135.7"/>
</a>
</g>
</g>
<!-- Node12 -->
<g id="Node000012" class="node">
<title>Node12</title>
<g id="a_Node000012"><a xlink:href="no__os__alloc_8h.html" target="_top" xlink:title=" ">
<polygon fill="white" stroke="#666666" points="87.5,-129 4.5,-129 4.5,-110 87.5,-110 87.5,-129"/>
<text text-anchor="middle" x="46" y="-117" font-family="Helvetica,sans-Serif" font-size="10.00">no_os_alloc.h</text>
</a>
</g>
</g>
<!-- Node1&#45;&gt;Node12 -->
<g id="edge16_Node000001_Node000012" class="edge">
<title>Node1&#45;&gt;Node12</title>
<g id="a_edge16_Node000001_Node000012"><a xlink:title=" ">
<path fill="none" stroke="#63b8ff" d="M243.72,-164.99C197.78,-154.65 136.19,-140.79 94.03,-131.31"/>
<polygon fill="#63b8ff" stroke="#63b8ff" points="94.54,-127.83 84.02,-129.05 93,-134.66 94.54,-127.83"/>
</a>
</g>
</g>
<!-- Node5 -->
<g id="Node000005" class="node">
<title>Node5</title>
<g id="a_Node000005"><a xlink:title=" ">
<polygon fill="#e0e0e0" stroke="#999999" points="251,-19 189,-19 189,0 251,0 251,-19"/>
<text text-anchor="middle" x="220" y="-7" font-family="Helvetica,sans-Serif" font-size="10.00">stdbool.h</text>
</a>
</g>
</g>
<!-- Node4&#45;&gt;Node5 -->
<g id="edge4_Node000004_Node000005" class="edge">
<title>Node4&#45;&gt;Node5</title>
<g id="a_edge4_Node000004_Node000005"><a xlink:title=" ">
<path fill="none" stroke="#63b8ff" d="M270.5,-109.66C261.47,-91.93 241,-51.73 229.07,-28.32"/>
<polygon fill="#63b8ff" stroke="#63b8ff" points="232.07,-26.48 224.41,-19.16 225.83,-29.66 232.07,-26.48"/>
</a>
</g>
</g>
<!-- Node6 -->
<g id="Node000006" class="node">
<title>Node6</title>
<g id="a_Node000006"><a xlink:title=" ">
<polygon fill="#e0e0e0" stroke="#999999" points="443.5,-19 390.5,-19 390.5,0 443.5,0 443.5,-19"/>
<text text-anchor="middle" x="417" y="-7" font-family="Helvetica,sans-Serif" font-size="10.00">stdint.h</text>
</a>
</g>
</g>
<!-- Node4&#45;&gt;Node6 -->
<g id="edge5_Node000004_Node000006" class="edge">
<title>Node4&#45;&gt;Node6</title>
<g id="a_edge5_Node000004_Node000006"><a xlink:title=" ">
<path fill="none" stroke="#63b8ff" d="M309.37,-110.99C353,-101.12 423.56,-83.86 431,-74 440.96,-60.8 434.94,-41.92 427.97,-28.18"/>
<polygon fill="#63b8ff" stroke="#63b8ff" points="430.89,-26.24 422.94,-19.24 424.79,-29.67 430.89,-26.24"/>
</a>
</g>
</g>
<!-- Node7 -->
<g id="Node000007" class="node">
<title>Node7</title>
<g id="a_Node000007"><a xlink:title=" ">
<polygon fill="#e0e0e0" stroke="#999999" points="329.5,-74 276.5,-74 276.5,-55 329.5,-55 329.5,-74"/>
<text text-anchor="middle" x="303" y="-62" font-family="Helvetica,sans-Serif" font-size="10.00">string.h</text>
</a>
</g>
</g>
<!-- Node4&#45;&gt;Node7 -->
<g id="edge6_Node000004_Node000007" class="edge">
<title>Node4&#45;&gt;Node7</title>
<g id="a_edge6_Node000004_Node000007"><a xlink:title=" ">
<path fill="none" stroke="#63b8ff" d="M279.62,-109.75C283.46,-102.49 289.02,-91.95 293.76,-82.98"/>
<polygon fill="#63b8ff" stroke="#63b8ff" points="296.89,-84.57 298.46,-74.09 290.7,-81.3 296.89,-84.57"/>
</a>
</g>
</g>
<!-- Node8 -->
<g id="Node000008" class="node">
<title>Node8</title>
<g id="a_Node000008"><a xlink:href="no__os__util_8h.html" target="_top" xlink:title="Header file of utility functions.">
<polygon fill="white" stroke="#666666" points="219.5,-74 144.5,-74 144.5,-55 219.5,-55 219.5,-74"/>
<text text-anchor="middle" x="182" y="-62" font-family="Helvetica,sans-Serif" font-size="10.00">no_os_util.h</text>
</a>
</g>
</g>
<!-- Node4&#45;&gt;Node8 -->
<g id="edge7_Node000004_Node000008" class="edge">
<title>Node4&#45;&gt;Node8</title>
<g id="a_edge7_Node000004_Node000008"><a xlink:title=" ">
<path fill="none" stroke="#63b8ff" d="M260.06,-109.98C245.5,-101.69 223.13,-88.94 206.07,-79.22"/>
<polygon fill="#63b8ff" stroke="#63b8ff" points="207.64,-76.08 197.21,-74.17 204.17,-82.16 207.64,-76.08"/>
</a>
</g>
</g>
<!-- Node9 -->
<g id="Node000009" class="node">
<title>Node9</title>
<g id="a_Node000009"><a xlink:href="no__os__spi_8h.html" target="_top" xlink:title="Header file of SPI Interface.">
<polygon fill="white" stroke="#666666" points="422,-74 348,-74 348,-55 422,-55 422,-74"/>
<text text-anchor="middle" x="385" y="-62" font-family="Helvetica,sans-Serif" font-size="10.00">no_os_spi.h</text>
</a>
</g>
</g>
<!-- Node4&#45;&gt;Node9 -->
<g id="edge11_Node000004_Node000009" class="edge">
<title>Node4&#45;&gt;Node9</title>
<g id="a_edge11_Node000004_Node000009"><a xlink:title=" ">
<path fill="none" stroke="#63b8ff" d="M292.67,-109.98C310.29,-101.5 337.58,-88.35 357.93,-78.54"/>
<polygon fill="#63b8ff" stroke="#63b8ff" points="359.52,-81.66 367.01,-74.17 356.48,-75.36 359.52,-81.66"/>
</a>
</g>
</g>
<!-- Node8&#45;&gt;Node2 -->
<g id="edge9_Node000008_Node000002" class="edge">
<title>Node8&#45;&gt;Node2</title>
<g id="a_edge9_Node000008_Node000002"><a xlink:title=" ">
<path fill="none" stroke="#63b8ff" d="M171.4,-54.98C161.54,-47.07 146.65,-35.11 134.78,-25.58"/>
<polygon fill="#63b8ff" stroke="#63b8ff" points="136.79,-22.7 126.8,-19.17 132.4,-28.16 136.79,-22.7"/>
</a>
</g>
</g>
<!-- Node8&#45;&gt;Node5 -->
<g id="edge10_Node000008_Node000005" class="edge">
<title>Node8&#45;&gt;Node5</title>
<g id="a_edge10_Node000008_Node000005"><a xlink:title=" ">
<path fill="none" stroke="#63b8ff" d="M188.27,-54.75C193.59,-47.34 201.36,-36.5 207.88,-27.41"/>
<polygon fill="#63b8ff" stroke="#63b8ff" points="210.86,-29.26 213.84,-19.09 205.17,-25.18 210.86,-29.26"/>
</a>
</g>
</g>
<!-- Node8&#45;&gt;Node6 -->
<g id="edge8_Node000008_Node000006" class="edge">
<title>Node8&#45;&gt;Node6</title>
<g id="a_edge8_Node000008_Node000006"><a xlink:title=" ">
<path fill="none" stroke="#63b8ff" d="M219.76,-54.98C263.96,-45.02 336.67,-28.62 380.38,-18.76"/>
<polygon fill="#63b8ff" stroke="#63b8ff" points="381.31,-22.14 390.3,-16.52 379.77,-15.31 381.31,-22.14"/>
</a>
</g>
</g>
<!-- Node9&#45;&gt;Node6 -->
<g id="edge12_Node000009_Node000006" class="edge">
<title>Node9&#45;&gt;Node6</title>
<g id="a_edge12_Node000009_Node000006"><a xlink:title=" ">
<path fill="none" stroke="#63b8ff" d="M390.28,-54.75C394.71,-47.42 401.16,-36.73 406.62,-27.7"/>
<polygon fill="#63b8ff" stroke="#63b8ff" points="409.64,-29.46 411.81,-19.09 403.65,-25.84 409.64,-29.46"/>
</a>
</g>
</g>
<!-- Node10&#45;&gt;Node6 -->
<g id="edge14_Node000010_Node000006" class="edge">
<title>Node10&#45;&gt;Node6</title>
<g id="a_edge14_Node000010_Node000006"><a xlink:title=" ">
<path fill="none" stroke="#63b8ff" d="M504.29,-54.98C487.79,-46.57 462.3,-33.59 443.12,-23.81"/>
<polygon fill="#63b8ff" stroke="#63b8ff" points="444.51,-20.59 434.01,-19.17 441.33,-26.83 444.51,-20.59"/>
</a>
</g>
</g>
<!-- Node12&#45;&gt;Node2 -->
<g id="edge18_Node000012_Node000002" class="edge">
<title>Node12&#45;&gt;Node2</title>
<g id="a_edge18_Node000012_Node000002"><a xlink:title=" ">
<path fill="none" stroke="#63b8ff" d="M51.73,-109.66C63.32,-91.77 89.75,-51 104.86,-27.69"/>
<polygon fill="#63b8ff" stroke="#63b8ff" points="107.89,-29.45 110.39,-19.16 102.01,-25.65 107.89,-29.45"/>
</a>
</g>
</g>
<!-- Node13 -->
<g id="Node000013" class="node">
<title>Node13</title>
<g id="a_Node000013"><a xlink:title=" ">
<polygon fill="#e0e0e0" stroke="#999999" points="50,-74 0,-74 0,-55 50,-55 50,-74"/>
<text text-anchor="middle" x="25" y="-62" font-family="Helvetica,sans-Serif" font-size="10.00">stdio.h</text>
</a>
</g>
</g>
<!-- Node12&#45;&gt;Node13 -->
<g id="edge17_Node000012_Node000013" class="edge">
<title>Node12&#45;&gt;Node13</title>
<g id="a_edge17_Node000012_Node000013"><a xlink:title=" ">
<path fill="none" stroke="#63b8ff" d="M42.53,-109.75C39.72,-102.65 35.66,-92.4 32.15,-83.56"/>
<polygon fill="#63b8ff" stroke="#63b8ff" points="35.34,-82.1 28.4,-74.09 28.83,-84.68 35.34,-82.1"/>
</a>
</g>
</g>
</g>
</svg>
