<?xml version="1.0" encoding="UTF-8" standalone="no"?>
<!DOCTYPE svg PUBLIC "-//W3C//DTD SVG 1.1//EN"
 "http://www.w3.org/Graphics/SVG/1.1/DTD/svg11.dtd">
<!-- Generated by graphviz version 2.43.0 (0)
 -->
<!-- Title: adf4382_spi_write Pages: 1 -->
<svg width="946pt" height="547pt"
 viewBox="0.00 0.00 946.00 547.00" xmlns="http://www.w3.org/2000/svg" xmlns:xlink="http://www.w3.org/1999/xlink">
<g id="graph0" class="graph" transform="scale(1 1) rotate(0) translate(4 543)">
<title>adf4382_spi_write</title>
<!-- Node1 -->
<g id="Node000001" class="node">
<title>Node1</title>
<g id="a_Node000001"><a xlink:title="Writes data to ADF4382 over SPI.">
<polygon fill="#999999" stroke="#666666" points="938,-133 832,-133 832,-114 938,-114 938,-133"/>
<text text-anchor="middle" x="885" y="-121" font-family="Helvetica,sans-Serif" font-size="10.00">adf4382_spi_write</text>
</a>
</g>
</g>
<!-- Node2 -->
<g id="Node000002" class="node">
<title>Node2</title>
<g id="a_Node000002"><a xlink:href="adf4382_8c.html#af72d0899bbe73092b615195d788b8bab" target="_top" xlink:title="Initializes the ADF4382.">
<polygon fill="white" stroke="#666666" points="386.5,-539 309.5,-539 309.5,-520 386.5,-520 386.5,-539"/>
<text text-anchor="middle" x="348" y="-527" font-family="Helvetica,sans-Serif" font-size="10.00">adf4382_init</text>
</a>
</g>
</g>
<!-- Node1&#45;&gt;Node2 -->
<g id="edge1_Node000001_Node000002" class="edge">
<title>Node1&#45;&gt;Node2</title>
<g id="a_edge1_Node000001_Node000002"><a xlink:title=" ">
<path fill="none" stroke="#63b8ff" d="M880.46,-143.45C872.04,-186.49 847.56,-289.79 796,-359.5 730.4,-448.19 702.05,-471.13 599,-510.5 527.84,-537.68 437.15,-536.58 386.87,-533.16"/>
<polygon fill="#63b8ff" stroke="#63b8ff" points="883.94,-143.9 882.34,-133.42 877.06,-142.61 883.94,-143.9"/>
</a>
</g>
</g>
<!-- Node6 -->
<g id="Node000006" class="node">
<title>Node6</title>
<g id="a_Node000006"><a xlink:href="adf4382_8c.html#ab213d53064724a85c44fccf98aea1225" target="_top" xlink:title="Set the output frequency. This will set the required registers to device but skip NDIV value,...">
<polygon fill="white" stroke="#666666" points="597,-95 455,-95 455,-76 597,-76 597,-95"/>
<text text-anchor="middle" x="526" y="-83" font-family="Helvetica,sans-Serif" font-size="10.00">adf4382_set_change_freq</text>
</a>
</g>
</g>
<!-- Node1&#45;&gt;Node6 -->
<g id="edge5_Node000001_Node000006" class="edge">
<title>Node1&#45;&gt;Node6</title>
<g id="a_edge5_Node000001_Node000006"><a xlink:title=" ">
<path fill="none" stroke="#63b8ff" d="M821.57,-116.85C758.91,-110.18 662.56,-99.93 597.27,-92.98"/>
<polygon fill="#63b8ff" stroke="#63b8ff" points="821.39,-120.36 831.71,-117.93 822.13,-113.39 821.39,-120.36"/>
</a>
</g>
</g>
<!-- Node8 -->
<g id="Node000008" class="node">
<title>Node8</title>
<g id="a_Node000008"><a xlink:href="adf4382_8c.html#a3f4a0e1104b1241c2a4705c469dcd2fe" target="_top" xlink:title="Fast calibration function. Computes Minimum VCO frequency (fmin), uses the minimum NDIV value to gene...">
<polygon fill="white" stroke="#666666" points="243,-196.5 125,-196.5 125,-166.5 243,-166.5 243,-196.5"/>
<text text-anchor="start" x="133" y="-184.5" font-family="Helvetica,sans-Serif" font-size="10.00">adf4382_set_en_fast</text>
<text text-anchor="middle" x="184" y="-173.5" font-family="Helvetica,sans-Serif" font-size="10.00">_calibration</text>
</a>
</g>
</g>
<!-- Node1&#45;&gt;Node8 -->
<g id="edge7_Node000001_Node000008" class="edge">
<title>Node1&#45;&gt;Node8</title>
<g id="a_edge7_Node000001_Node000008"><a xlink:title=" ">
<path fill="none" stroke="#63b8ff" d="M853.21,-110.03C760.87,-71.75 480.2,28.9 279,-66.5 234.96,-87.38 204.71,-140.11 191.9,-166.28"/>
<polygon fill="#63b8ff" stroke="#63b8ff" points="851.97,-113.3 862.54,-113.95 854.68,-106.85 851.97,-113.3"/>
</a>
</g>
</g>
<!-- Node9 -->
<g id="Node000009" class="node">
<title>Node9</title>
<g id="a_Node000009"><a xlink:href="adf4382_8c.html#a42f85422e7f1541fcd6235b2a678df73" target="_top" xlink:title="Set the output frequency.">
<polygon fill="white" stroke="#666666" points="576.5,-465 475.5,-465 475.5,-446 576.5,-446 576.5,-465"/>
<text text-anchor="middle" x="526" y="-453" font-family="Helvetica,sans-Serif" font-size="10.00">adf4382_set_freq</text>
</a>
</g>
</g>
<!-- Node1&#45;&gt;Node9 -->
<g id="edge8_Node000001_Node000009" class="edge">
<title>Node1&#45;&gt;Node9</title>
<g id="a_edge8_Node000001_Node000009"><a xlink:title=" ">
<path fill="none" stroke="#63b8ff" d="M875.68,-142.39C861.9,-172.4 832.24,-231.92 796,-274.5 722.53,-360.83 699.91,-384.85 599,-436.5 591.52,-440.33 583.2,-443.44 574.94,-445.95"/>
<polygon fill="#63b8ff" stroke="#63b8ff" points="878.96,-143.64 879.88,-133.08 872.58,-140.76 878.96,-143.64"/>
</a>
</g>
</g>
<!-- Node16 -->
<g id="Node000016" class="node">
<title>Node16</title>
<g id="a_Node000016"><a xlink:href="adf4382_8c.html#abfbbf0996cba0aaa13b6f84647673daa" target="_top" xlink:title="Set the phase adjustment in pico&#45;seconds. The phase adjust will enable the Bleed current option as we...">
<polygon fill="white" stroke="#666666" points="599,-132 453,-132 453,-113 599,-113 599,-132"/>
<text text-anchor="middle" x="526" y="-120" font-family="Helvetica,sans-Serif" font-size="10.00">adf4382_set_phase_adjust</text>
</a>
</g>
</g>
<!-- Node1&#45;&gt;Node16 -->
<g id="edge19_Node000001_Node000016" class="edge">
<title>Node1&#45;&gt;Node16</title>
<g id="a_edge19_Node000001_Node000016"><a xlink:title=" ">
<path fill="none" stroke="#63b8ff" d="M821.66,-123.33C759.63,-123.15 664.5,-122.89 599.21,-122.7"/>
<polygon fill="#63b8ff" stroke="#63b8ff" points="821.7,-126.83 831.71,-123.35 821.72,-119.83 821.7,-126.83"/>
</a>
</g>
</g>
<!-- Node17 -->
<g id="Node000017" class="node">
<title>Node17</title>
<g id="a_Node000017"><a xlink:href="adf4382_8c.html#af4111e2eed2baa475d12be0f307db49a" target="_top" xlink:title="Set REG0010 value in device structure to the device to start autocal.">
<polygon fill="white" stroke="#666666" points="796,-19 635,-19 635,0 796,0 796,-19"/>
<text text-anchor="middle" x="715.5" y="-7" font-family="Helvetica,sans-Serif" font-size="10.00">adf4382_set_start_calibration</text>
</a>
</g>
</g>
<!-- Node1&#45;&gt;Node17 -->
<g id="edge21_Node000001_Node000017" class="edge">
<title>Node1&#45;&gt;Node17</title>
<g id="a_edge21_Node000001_Node000017"><a xlink:title=" ">
<path fill="none" stroke="#63b8ff" d="M871.12,-105.7C855.52,-85.39 827.42,-52.54 796,-33.5 785.77,-27.3 773.81,-22.59 762.33,-19.07"/>
<polygon fill="#63b8ff" stroke="#63b8ff" points="868.39,-107.9 877.19,-113.8 873.99,-103.7 868.39,-107.9"/>
</a>
</g>
</g>
<!-- Node18 -->
<g id="Node000018" class="node">
<title>Node18</title>
<g id="a_Node000018"><a xlink:href="adf4382_8c.html#a757680a0978c8bab202e3877011aaa22" target="_top" xlink:title="Updates the values of the ADF4382 register.">
<polygon fill="white" stroke="#666666" points="784.5,-266 646.5,-266 646.5,-247 784.5,-247 784.5,-266"/>
<text text-anchor="middle" x="715.5" y="-254" font-family="Helvetica,sans-Serif" font-size="10.00">adf4382_spi_update_bits</text>
</a>
</g>
</g>
<!-- Node1&#45;&gt;Node18 -->
<g id="edge22_Node000001_Node000018" class="edge">
<title>Node1&#45;&gt;Node18</title>
<g id="a_edge22_Node000001_Node000018"><a xlink:title=" ">
<path fill="none" stroke="#63b8ff" d="M863.87,-139.48C828.82,-167.32 757.58,-223.88 728.89,-246.66"/>
<polygon fill="#63b8ff" stroke="#63b8ff" points="866.3,-142.02 871.95,-133.07 861.95,-136.54 866.3,-142.02"/>
</a>
</g>
</g>
<!-- Node3 -->
<g id="Node000003" class="node">
<title>Node3</title>
<g id="a_Node000003"><a xlink:href="iio__adf4382_8c.html#a98024760107fb7218ace561900ad4b6a" target="_top" xlink:title="Initializes the ADF4382 IIO driver.">
<polygon fill="white" stroke="#666666" points="231.5,-539 136.5,-539 136.5,-520 231.5,-520 231.5,-539"/>
<text text-anchor="middle" x="184" y="-527" font-family="Helvetica,sans-Serif" font-size="10.00">adf4382_iio_init</text>
</a>
</g>
</g>
<!-- Node2&#45;&gt;Node3 -->
<g id="edge2_Node000002_Node000003" class="edge">
<title>Node2&#45;&gt;Node3</title>
<g id="a_edge2_Node000002_Node000003"><a xlink:title=" ">
<path fill="none" stroke="#63b8ff" d="M299.28,-529.5C277.94,-529.5 252.86,-529.5 231.64,-529.5"/>
<polygon fill="#63b8ff" stroke="#63b8ff" points="299.43,-533 309.43,-529.5 299.43,-526 299.43,-533"/>
</a>
</g>
</g>
<!-- Node5 -->
<g id="Node000005" class="node">
<title>Node5</title>
<g id="a_Node000005"><a xlink:href="adf4382_2src_2examples_2basic_2basic__example_8c.html#ac25cbf8ae523e89cb0617e68c98bc697" target="_top" xlink:title="Basic example main execution.">
<polygon fill="white" stroke="#666666" points="228.5,-502 139.5,-502 139.5,-483 228.5,-483 228.5,-502"/>
<text text-anchor="middle" x="184" y="-490" font-family="Helvetica,sans-Serif" font-size="10.00">example_main</text>
</a>
</g>
</g>
<!-- Node2&#45;&gt;Node5 -->
<g id="edge4_Node000002_Node000005" class="edge">
<title>Node2&#45;&gt;Node5</title>
<g id="a_edge4_Node000002_Node000005"><a xlink:title=" ">
<path fill="none" stroke="#63b8ff" d="M299.5,-518.65C276.4,-513.38 248.9,-507.09 226.64,-502.01"/>
<polygon fill="#63b8ff" stroke="#63b8ff" points="298.9,-522.1 309.43,-520.92 300.46,-515.28 298.9,-522.1"/>
</a>
</g>
</g>
<!-- Node4 -->
<g id="Node000004" class="node">
<title>Node4</title>
<g id="a_Node000004"><a xlink:href="adf4382_2src_2examples_2iio__example_2iio__example_8c.html#ac25cbf8ae523e89cb0617e68c98bc697" target="_top" xlink:title="IIO example main execution.">
<polygon fill="white" stroke="#666666" points="89,-539 0,-539 0,-520 89,-520 89,-539"/>
<text text-anchor="middle" x="44.5" y="-527" font-family="Helvetica,sans-Serif" font-size="10.00">example_main</text>
</a>
</g>
</g>
<!-- Node3&#45;&gt;Node4 -->
<g id="edge3_Node000003_Node000004" class="edge">
<title>Node3&#45;&gt;Node4</title>
<g id="a_edge3_Node000003_Node000004"><a xlink:title=" ">
<path fill="none" stroke="#63b8ff" d="M126.23,-529.5C113.87,-529.5 100.98,-529.5 89.22,-529.5"/>
<polygon fill="#63b8ff" stroke="#63b8ff" points="126.45,-533 136.45,-529.5 126.45,-526 126.45,-533"/>
</a>
</g>
</g>
<!-- Node7 -->
<g id="Node000007" class="node">
<title>Node7</title>
<g id="a_Node000007"><a xlink:href="adf4382_8c.html#a79674522d563a02a9e0d79374c6e7772" target="_top" xlink:title="Set the desired output frequency and reset everything over to maximum supported value of 22GHz (21GHz...">
<polygon fill="white" stroke="#666666" points="406.5,-105.5 289.5,-105.5 289.5,-75.5 406.5,-75.5 406.5,-105.5"/>
<text text-anchor="start" x="297.5" y="-93.5" font-family="Helvetica,sans-Serif" font-size="10.00">adf4382_set_change</text>
<text text-anchor="middle" x="348" y="-82.5" font-family="Helvetica,sans-Serif" font-size="10.00">_rfout</text>
</a>
</g>
</g>
<!-- Node6&#45;&gt;Node7 -->
<g id="edge6_Node000006_Node000007" class="edge">
<title>Node6&#45;&gt;Node7</title>
<g id="a_edge6_Node000006_Node000007"><a xlink:title=" ">
<path fill="none" stroke="#63b8ff" d="M444.71,-87.78C431.89,-88.15 418.84,-88.52 406.67,-88.86"/>
<polygon fill="#63b8ff" stroke="#63b8ff" points="445.04,-91.27 454.93,-87.49 444.84,-84.28 445.04,-91.27"/>
</a>
</g>
</g>
<!-- Node9&#45;&gt;Node2 -->
<g id="edge9_Node000009_Node000002" class="edge">
<title>Node9&#45;&gt;Node2</title>
<g id="a_edge9_Node000009_Node000002"><a xlink:title=" ">
<path fill="none" stroke="#63b8ff" d="M465.51,-467.52C461.16,-469.25 456.94,-471.23 453,-473.5 433.11,-484.94 436.73,-498.79 417,-510.5 407.83,-515.94 397.04,-519.88 386.79,-522.71"/>
<polygon fill="#63b8ff" stroke="#63b8ff" points="466.91,-470.73 475.17,-464.1 464.58,-464.13 466.91,-470.73"/>
</a>
</g>
</g>
<!-- Node9&#45;&gt;Node8 -->
<g id="edge12_Node000009_Node000008" class="edge">
<title>Node9&#45;&gt;Node8</title>
<g id="a_edge12_Node000009_Node000008"><a xlink:title=" ">
<path fill="none" stroke="#63b8ff" d="M465.93,-445.6C461.19,-443.17 456.78,-440.18 453,-436.5 412.19,-396.76 452.33,-358.18 417,-313.5 389.76,-279.06 275.73,-223.28 218.32,-196.62"/>
<polygon fill="#63b8ff" stroke="#63b8ff" points="464.79,-448.92 475.36,-449.6 467.52,-442.48 464.79,-448.92"/>
</a>
</g>
</g>
<!-- Node10 -->
<g id="Node000010" class="node">
<title>Node10</title>
<g id="a_Node000010"><a xlink:href="adf4382_8c.html#a90a2e1956072778acaeb2885373e50e7" target="_top" xlink:title="Set the bleed word, which represents the value of the bleed current written to the register space.">
<polygon fill="white" stroke="#666666" points="417,-342 279,-342 279,-323 417,-323 417,-342"/>
<text text-anchor="middle" x="348" y="-330" font-family="Helvetica,sans-Serif" font-size="10.00">adf4382_set_bleed_word</text>
</a>
</g>
</g>
<!-- Node9&#45;&gt;Node10 -->
<g id="edge10_Node000009_Node000010" class="edge">
<title>Node9&#45;&gt;Node10</title>
<g id="a_edge10_Node000009_Node000010"><a xlink:title=" ">
<path fill="none" stroke="#63b8ff" d="M465.92,-444.93C461.25,-442.64 456.86,-439.86 453,-436.5 421.74,-409.3 448.25,-377.72 417,-350.5 413.13,-347.13 408.7,-344.38 404,-342.14"/>
<polygon fill="#63b8ff" stroke="#63b8ff" points="464.58,-448.16 475.15,-448.77 467.26,-441.7 464.58,-448.16"/>
</a>
</g>
</g>
<!-- Node11 -->
<g id="Node000011" class="node">
<title>Node11</title>
<g id="a_Node000011"><a xlink:href="adf4382_8c.html#a9545e93dd75ebffedeedd8a88a19c5ce" target="_top" xlink:title="Set the charge pump value which will be written to the register. The value will be between 0 and 15 o...">
<polygon fill="white" stroke="#666666" points="398.5,-465 297.5,-465 297.5,-446 398.5,-446 398.5,-465"/>
<text text-anchor="middle" x="348" y="-453" font-family="Helvetica,sans-Serif" font-size="10.00">adf4382_set_cp_i</text>
</a>
</g>
</g>
<!-- Node9&#45;&gt;Node11 -->
<g id="edge11_Node000009_Node000011" class="edge">
<title>Node9&#45;&gt;Node11</title>
<g id="a_edge11_Node000009_Node000011"><a xlink:title=" ">
<path fill="none" stroke="#63b8ff" d="M465,-455.5C443.44,-455.5 419.38,-455.5 398.78,-455.5"/>
<polygon fill="#63b8ff" stroke="#63b8ff" points="465.04,-459 475.04,-455.5 465.04,-452 465.04,-459"/>
</a>
</g>
</g>
<!-- Node12 -->
<g id="Node000012" class="node">
<title>Node12</title>
<g id="a_Node000012"><a xlink:href="adf4382_8c.html#a437e2d35a220c2ea09744e8147550366" target="_top" xlink:title="Set the reference doubler to enable or disable based on the passed parameter. If the parameter is dif...">
<polygon fill="white" stroke="#666666" points="404.5,-427.5 291.5,-427.5 291.5,-397.5 404.5,-397.5 404.5,-427.5"/>
<text text-anchor="start" x="299.5" y="-415.5" font-family="Helvetica,sans-Serif" font-size="10.00">adf4382_set_en_ref</text>
<text text-anchor="middle" x="348" y="-404.5" font-family="Helvetica,sans-Serif" font-size="10.00">_doubler</text>
</a>
</g>
</g>
<!-- Node9&#45;&gt;Node12 -->
<g id="edge13_Node000009_Node000012" class="edge">
<title>Node9&#45;&gt;Node12</title>
<g id="a_edge13_Node000009_Node000012"><a xlink:title=" ">
<path fill="none" stroke="#63b8ff" d="M476.07,-443.55C453.9,-438.13 427.57,-431.7 404.64,-426.09"/>
<polygon fill="#63b8ff" stroke="#63b8ff" points="475.39,-446.98 485.94,-445.96 477.06,-440.18 475.39,-446.98"/>
</a>
</g>
</g>
<!-- Node13 -->
<g id="Node000013" class="node">
<title>Node13</title>
<g id="a_Node000013"><a xlink:href="adf4382_8c.html#ad97aa58924c0eeca883bfdd340ae4817" target="_top" xlink:title="Set the desired reference frequency and reset everything over to maximum supported value of 5GHz to t...">
<polygon fill="white" stroke="#666666" points="405.5,-379 290.5,-379 290.5,-360 405.5,-360 405.5,-379"/>
<text text-anchor="middle" x="348" y="-367" font-family="Helvetica,sans-Serif" font-size="10.00">adf4382_set_ref_clk</text>
</a>
</g>
</g>
<!-- Node9&#45;&gt;Node13 -->
<g id="edge14_Node000009_Node000013" class="edge">
<title>Node9&#45;&gt;Node13</title>
<g id="a_edge14_Node000009_Node000013"><a xlink:title=" ">
<path fill="none" stroke="#63b8ff" d="M465.94,-443.51C461.39,-441.52 457.01,-439.2 453,-436.5 430.88,-421.61 439.01,-403.55 417,-388.5 411.33,-384.62 404.89,-381.54 398.29,-379.07"/>
<polygon fill="#63b8ff" stroke="#63b8ff" points="464.86,-446.84 475.45,-447.14 467.36,-440.3 464.86,-446.84"/>
</a>
</g>
</g>
<!-- Node14 -->
<g id="Node000014" class="node">
<title>Node14</title>
<g id="a_Node000014"><a xlink:href="adf4382_8c.html#af6e5b66e0da30c50bd332f340ad7adff" target="_top" xlink:title="Set the reference divider value and reset everything over to maximum supported value of 63 to the max...">
<polygon fill="white" stroke="#666666" points="406,-211 290,-211 290,-192 406,-192 406,-211"/>
<text text-anchor="middle" x="348" y="-199" font-family="Helvetica,sans-Serif" font-size="10.00">adf4382_set_ref_div</text>
</a>
</g>
</g>
<!-- Node9&#45;&gt;Node14 -->
<g id="edge15_Node000009_Node000014" class="edge">
<title>Node9&#45;&gt;Node14</title>
<g id="a_edge15_Node000009_Node000014"><a xlink:title=" ">
<path fill="none" stroke="#63b8ff" d="M465.89,-445.95C461.13,-443.45 456.72,-440.35 453,-436.5 402.95,-384.71 449.86,-342.59 417,-278.5 402.68,-250.57 375.91,-224.65 360.58,-211.18"/>
<polygon fill="#63b8ff" stroke="#63b8ff" points="464.86,-449.31 475.43,-450.04 467.61,-442.88 464.86,-449.31"/>
</a>
</g>
</g>
<!-- Node15 -->
<g id="Node000015" class="node">
<title>Node15</title>
<g id="a_Node000015"><a xlink:href="adf4382_8c.html#a6c3387b311effd620ce0264c6db07674" target="_top" xlink:title="Set the desired output frequency and reset everything over to maximum supported value of 22GHz (21GHz...">
<polygon fill="white" stroke="#666666" points="400.5,-502 295.5,-502 295.5,-483 400.5,-483 400.5,-502"/>
<text text-anchor="middle" x="348" y="-490" font-family="Helvetica,sans-Serif" font-size="10.00">adf4382_set_rfout</text>
</a>
</g>
</g>
<!-- Node9&#45;&gt;Node15 -->
<g id="edge17_Node000009_Node000015" class="edge">
<title>Node9&#45;&gt;Node15</title>
<g id="a_edge17_Node000009_Node000015"><a xlink:title=" ">
<path fill="none" stroke="#63b8ff" d="M469.57,-467.15C445.4,-472.23 417.4,-478.12 394.48,-482.94"/>
<polygon fill="#63b8ff" stroke="#63b8ff" points="470.61,-470.51 479.68,-465.03 469.17,-463.66 470.61,-470.51"/>
</a>
</g>
</g>
<!-- Node14&#45;&gt;Node8 -->
<g id="edge16_Node000014_Node000008" class="edge">
<title>Node14&#45;&gt;Node8</title>
<g id="a_edge16_Node000014_Node000008"><a xlink:title=" ">
<path fill="none" stroke="#63b8ff" d="M279.81,-193.21C267.67,-191.71 255.1,-190.15 243.24,-188.69"/>
<polygon fill="#63b8ff" stroke="#63b8ff" points="279.53,-196.7 289.88,-194.45 280.39,-189.75 279.53,-196.7"/>
</a>
</g>
</g>
<!-- Node15&#45;&gt;Node5 -->
<g id="edge18_Node000015_Node000005" class="edge">
<title>Node15&#45;&gt;Node5</title>
<g id="a_edge18_Node000015_Node000005"><a xlink:title=" ">
<path fill="none" stroke="#63b8ff" d="M285.28,-492.5C266.4,-492.5 246.02,-492.5 228.61,-492.5"/>
<polygon fill="#63b8ff" stroke="#63b8ff" points="285.3,-496 295.3,-492.5 285.3,-489 285.3,-496"/>
</a>
</g>
</g>
<!-- Node16&#45;&gt;Node5 -->
<g id="edge20_Node000016_Node000005" class="edge">
<title>Node16&#45;&gt;Node5</title>
<g id="a_edge20_Node000016_Node000005"><a xlink:title=" ">
<path fill="none" stroke="#63b8ff" d="M503,-138.39C488.32,-149.36 468.88,-164.59 453,-179.5 435.56,-195.87 435.01,-203.77 417,-219.5 361.11,-268.32 328.39,-258.11 279,-313.5 229.71,-368.78 197.81,-454.54 188.12,-482.98"/>
<polygon fill="#63b8ff" stroke="#63b8ff" points="505.48,-140.92 511.44,-132.16 501.32,-135.28 505.48,-140.92"/>
</a>
</g>
</g>
<!-- Node18&#45;&gt;Node6 -->
<g id="edge23_Node000018_Node000006" class="edge">
<title>Node18&#45;&gt;Node6</title>
<g id="a_edge23_Node000018_Node000006"><a xlink:title=" ">
<path fill="none" stroke="#63b8ff" d="M705.58,-237.47C689.25,-204.77 651.34,-138.14 599,-103.5 593.84,-100.09 588.09,-97.32 582.14,-95.08"/>
<polygon fill="#63b8ff" stroke="#63b8ff" points="702.6,-239.34 710.12,-246.8 708.89,-236.28 702.6,-239.34"/>
</a>
</g>
</g>
<!-- Node18&#45;&gt;Node8 -->
<g id="edge25_Node000018_Node000008" class="edge">
<title>Node18&#45;&gt;Node8</title>
<g id="a_edge25_Node000018_Node000008"><a xlink:title=" ">
<path fill="none" stroke="#63b8ff" d="M697.24,-240.12C676.05,-221.26 638.1,-191.34 599,-179.5 476.72,-142.48 324.66,-157.83 243.12,-170.68"/>
<polygon fill="#63b8ff" stroke="#63b8ff" points="695.01,-242.83 704.76,-246.98 699.73,-237.66 695.01,-242.83"/>
</a>
</g>
</g>
<!-- Node18&#45;&gt;Node9 -->
<g id="edge28_Node000018_Node000009" class="edge">
<title>Node18&#45;&gt;Node9</title>
<g id="a_edge28_Node000018_Node000009"><a xlink:title=" ">
<path fill="none" stroke="#63b8ff" d="M697.3,-273.5C679.88,-291.43 653,-321.1 635,-350.5 613.37,-385.84 630.26,-409.3 599,-436.5 592.66,-442.02 584.9,-445.96 576.85,-448.77"/>
<polygon fill="#63b8ff" stroke="#63b8ff" points="700.04,-275.71 704.57,-266.14 695.06,-270.79 700.04,-275.71"/>
</a>
</g>
</g>
<!-- Node18&#45;&gt;Node16 -->
<g id="edge31_Node000018_Node000016" class="edge">
<title>Node18&#45;&gt;Node16</title>
<g id="a_edge31_Node000018_Node000016"><a xlink:title=" ">
<path fill="none" stroke="#63b8ff" d="M700.37,-238.85C680.24,-214.79 641.06,-171.79 599,-146.5 588.95,-140.46 577.19,-135.71 566.11,-132.1"/>
<polygon fill="#63b8ff" stroke="#63b8ff" points="697.84,-241.29 706.9,-246.79 703.25,-236.84 697.84,-241.29"/>
</a>
</g>
</g>
<!-- Node19 -->
<g id="Node000019" class="node">
<title>Node19</title>
<g id="a_Node000019"><a xlink:href="adf4382_8c.html#a852efef52e399e72459cce02555bb5dd" target="_top" xlink:title="Set the output channel to enable or disable based on the passed parameter. If the parameter is differ...">
<polygon fill="white" stroke="#666666" points="587,-379 465,-379 465,-360 587,-360 587,-379"/>
<text text-anchor="middle" x="526" y="-367" font-family="Helvetica,sans-Serif" font-size="10.00">adf4382_set_en_chan</text>
</a>
</g>
</g>
<!-- Node18&#45;&gt;Node19 -->
<g id="edge24_Node000018_Node000019" class="edge">
<title>Node18&#45;&gt;Node19</title>
<g id="a_edge24_Node000018_Node000019"><a xlink:title=" ">
<path fill="none" stroke="#63b8ff" d="M698.49,-273.37C677.56,-294.46 638.84,-330.23 599,-350.5 591.51,-354.31 583.18,-357.41 574.92,-359.92"/>
<polygon fill="#63b8ff" stroke="#63b8ff" points="701.13,-275.68 705.61,-266.07 696.12,-270.79 701.13,-275.68"/>
</a>
</g>
</g>
<!-- Node20 -->
<g id="Node000020" class="node">
<title>Node20</title>
<g id="a_Node000020"><a xlink:href="adf4382_8c.html#a3be833c93a77ff0f9c8ad6f9d3b8aebe" target="_top" xlink:title="Sets Fast calibration LUT Calibration. Refer to en_fastcal function to first generate fastcal Lookup ...">
<polygon fill="white" stroke="#666666" points="582,-341.5 470,-341.5 470,-311.5 582,-311.5 582,-341.5"/>
<text text-anchor="start" x="478" y="-329.5" font-family="Helvetica,sans-Serif" font-size="10.00">adf4382_set_en_lut</text>
<text text-anchor="middle" x="526" y="-318.5" font-family="Helvetica,sans-Serif" font-size="10.00">_calibration</text>
</a>
</g>
</g>
<!-- Node18&#45;&gt;Node20 -->
<g id="edge26_Node000018_Node000020" class="edge">
<title>Node18&#45;&gt;Node20</title>
<g id="a_edge26_Node000018_Node000020"><a xlink:title=" ">
<path fill="none" stroke="#63b8ff" d="M682.33,-269.89C659.26,-279.34 627.38,-292.13 599,-302.5 590.83,-305.49 582.09,-308.53 573.61,-311.4"/>
<polygon fill="#63b8ff" stroke="#63b8ff" points="683.72,-273.1 691.64,-266.05 681.06,-266.62 683.72,-273.1"/>
</a>
</g>
</g>
<!-- Node21 -->
<g id="Node000021" class="node">
<title>Node21</title>
<g id="a_Node000021"><a xlink:href="adf4382_8c.html#a4712eb3ced902ced893bf49622498f36" target="_top" xlink:title="Set the EZSYNC features&#39; initial state. Awaits the SW_SYNC toggle.">
<polygon fill="white" stroke="#666666" points="584,-293.5 468,-293.5 468,-263.5 584,-263.5 584,-293.5"/>
<text text-anchor="start" x="476" y="-281.5" font-family="Helvetica,sans-Serif" font-size="10.00">adf4382_set_ezsync</text>
<text text-anchor="middle" x="526" y="-270.5" font-family="Helvetica,sans-Serif" font-size="10.00">_setup</text>
</a>
</g>
</g>
<!-- Node18&#45;&gt;Node21 -->
<g id="edge27_Node000018_Node000021" class="edge">
<title>Node18&#45;&gt;Node21</title>
<g id="a_edge27_Node000018_Node000021"><a xlink:title=" ">
<path fill="none" stroke="#63b8ff" d="M636.11,-265.7C618.65,-267.75 600.47,-269.88 584.07,-271.8"/>
<polygon fill="#63b8ff" stroke="#63b8ff" points="636.75,-269.15 646.28,-264.5 635.94,-262.19 636.75,-269.15"/>
</a>
</g>
</g>
<!-- Node22 -->
<g id="Node000022" class="node">
<title>Node22</title>
<g id="a_Node000022"><a xlink:href="adf4382_8c.html#abaccee7f877e8f82d1aebdb37237cedf" target="_top" xlink:title="Set the output power register value of a channel and reset everything over to maximum supported value...">
<polygon fill="white" stroke="#666666" points="592.5,-502 459.5,-502 459.5,-483 592.5,-483 592.5,-502"/>
<text text-anchor="middle" x="526" y="-490" font-family="Helvetica,sans-Serif" font-size="10.00">adf4382_set_out_power</text>
</a>
</g>
</g>
<!-- Node18&#45;&gt;Node22 -->
<g id="edge29_Node000018_Node000022" class="edge">
<title>Node18&#45;&gt;Node22</title>
<g id="a_edge29_Node000018_Node000022"><a xlink:title=" ">
<path fill="none" stroke="#63b8ff" d="M709.81,-276.01C698.51,-318.69 665.64,-420.72 599,-473.5 594.14,-477.35 588.56,-480.43 582.72,-482.88"/>
<polygon fill="#63b8ff" stroke="#63b8ff" points="713.26,-276.62 712.33,-266.07 706.48,-274.9 713.26,-276.62"/>
</a>
</g>
</g>
<!-- Node23 -->
<g id="Node000023" class="node">
<title>Node23</title>
<g id="a_Node000023"><a xlink:href="adf4382_8c.html#ae04f11139e36334d3ee35c44016217e5" target="_top" xlink:title="Set the phase polarity. If pol = 0 then it will add the phase value otherwise it will subtract the ph...">
<polygon fill="white" stroke="#666666" points="591.5,-245 460.5,-245 460.5,-226 591.5,-226 591.5,-245"/>
<text text-anchor="middle" x="526" y="-233" font-family="Helvetica,sans-Serif" font-size="10.00">adf4382_set_phase_pol</text>
</a>
</g>
</g>
<!-- Node18&#45;&gt;Node23 -->
<g id="edge32_Node000018_Node000023" class="edge">
<title>Node18&#45;&gt;Node23</title>
<g id="a_edge32_Node000018_Node000023"><a xlink:title=" ">
<path fill="none" stroke="#63b8ff" d="M636.14,-247.72C621.36,-246.07 606.05,-244.35 591.73,-242.75"/>
<polygon fill="#63b8ff" stroke="#63b8ff" points="635.95,-251.22 646.28,-248.86 636.73,-244.27 635.95,-251.22"/>
</a>
</g>
</g>
<!-- Node24 -->
<g id="Node000024" class="node">
<title>Node24</title>
<g id="a_Node000024"><a xlink:href="adf4382_8c.html#a255bb294a8cc86e9119a51f34286ab16" target="_top" xlink:title="Set Software SYNC Request. Setting SW_SYNC resets the RF block. Clearing SW_SYNC makes ready for a ne...">
<polygon fill="white" stroke="#666666" points="587.5,-208 464.5,-208 464.5,-189 587.5,-189 587.5,-208"/>
<text text-anchor="middle" x="526" y="-196" font-family="Helvetica,sans-Serif" font-size="10.00">adf4382_set_sw_sync</text>
</a>
</g>
</g>
<!-- Node18&#45;&gt;Node24 -->
<g id="edge33_Node000018_Node000024" class="edge">
<title>Node18&#45;&gt;Node24</title>
<g id="a_edge33_Node000018_Node000024"><a xlink:title=" ">
<path fill="none" stroke="#63b8ff" d="M679.45,-243.46C656.69,-235.21 626.28,-224.62 599,-216.5 589,-213.52 578.12,-210.63 567.91,-208.06"/>
<polygon fill="#63b8ff" stroke="#63b8ff" points="678.43,-246.81 689.02,-246.95 680.83,-240.23 678.43,-246.81"/>
</a>
</g>
</g>
<!-- Node25 -->
<g id="Node000025" class="node">
<title>Node25</title>
<g id="a_Node000025"><a xlink:href="adf4382_8c.html#a68d33a672ca123ef92ec514e79a9b7ae" target="_top" xlink:title="Set Timed SYNC features&#39; initial state. Uses SYNC pin.">
<polygon fill="white" stroke="#666666" points="595,-427.5 457,-427.5 457,-397.5 595,-397.5 595,-427.5"/>
<text text-anchor="start" x="465" y="-415.5" font-family="Helvetica,sans-Serif" font-size="10.00">adf4382_set_timed_sync</text>
<text text-anchor="middle" x="526" y="-404.5" font-family="Helvetica,sans-Serif" font-size="10.00">_setup</text>
</a>
</g>
</g>
<!-- Node18&#45;&gt;Node25 -->
<g id="edge34_Node000018_Node000025" class="edge">
<title>Node18&#45;&gt;Node25</title>
<g id="a_edge34_Node000018_Node000025"><a xlink:title=" ">
<path fill="none" stroke="#63b8ff" d="M699.83,-274.12C671.56,-307.92 611.24,-379.28 599,-387.5 593.29,-391.33 586.92,-394.64 580.41,-397.48"/>
<polygon fill="#63b8ff" stroke="#63b8ff" points="702.56,-276.31 706.28,-266.39 697.18,-271.83 702.56,-276.31"/>
</a>
</g>
</g>
<!-- Node22&#45;&gt;Node2 -->
<g id="edge30_Node000022_Node000002" class="edge">
<title>Node22&#45;&gt;Node2</title>
<g id="a_edge30_Node000022_Node000002"><a xlink:title=" ">
<path fill="none" stroke="#63b8ff" d="M469.6,-504.15C442.62,-509.82 410.88,-516.49 386.74,-521.57"/>
<polygon fill="#63b8ff" stroke="#63b8ff" points="470.61,-507.51 479.68,-502.03 469.17,-500.66 470.61,-507.51"/>
</a>
</g>
</g>
</g>
</svg>
