<?xml version="1.0" encoding="UTF-8" standalone="no"?>
<!DOCTYPE svg PUBLIC "-//W3C//DTD SVG 1.1//EN"
 "http://www.w3.org/Graphics/SVG/1.1/DTD/svg11.dtd">
<!-- Generated by graphviz version 2.43.0 (0)
 -->
<!-- Title: projects/adf4377_sdz/src/common/common_data.c Pages: 1 -->
<svg width="616pt" height="258pt"
 viewBox="0.00 0.00 616.48 258.00" xmlns="http://www.w3.org/2000/svg" xmlns:xlink="http://www.w3.org/1999/xlink">
<g id="graph0" class="graph" transform="scale(1 1) rotate(0) translate(4 254)">
<title>projects/adf4377_sdz/src/common/common_data.c</title>
<!-- Node1 -->
<g id="Node000001" class="node">
<title>Node1</title>
<g id="a_Node000001"><a xlink:title="Defines the common data used in the examples eval&#45;adf4377 project.">
<polygon fill="#999999" stroke="#666666" points="317.5,-250 156.5,-250 156.5,-220 317.5,-220 317.5,-250"/>
<text text-anchor="start" x="164.5" y="-238" font-family="Helvetica,sans-Serif" font-size="10.00">projects/adf4377_sdz</text>
<text text-anchor="middle" x="237" y="-227" font-family="Helvetica,sans-Serif" font-size="10.00">/src/common/common_data.c</text>
</a>
</g>
</g>
<!-- Node2 -->
<g id="Node000002" class="node">
<title>Node2</title>
<g id="a_Node000002"><a xlink:href="adf4377__sdz_2src_2common_2common__data_8h.html" target="_top" xlink:title="Defines the common data used for examples eval&#45;adf4377 project.">
<polygon fill="white" stroke="#666666" points="335.5,-184 240.5,-184 240.5,-165 335.5,-165 335.5,-184"/>
<text text-anchor="middle" x="288" y="-172" font-family="Helvetica,sans-Serif" font-size="10.00">common_data.h</text>
</a>
</g>
</g>
<!-- Node1&#45;&gt;Node2 -->
<g id="edge1_Node000001_Node000002" class="edge">
<title>Node1&#45;&gt;Node2</title>
<g id="a_edge1_Node000001_Node000002"><a xlink:title=" ">
<path fill="none" stroke="#63b8ff" d="M249.35,-219.84C256.67,-211.43 266,-200.74 273.65,-191.96"/>
<polygon fill="#63b8ff" stroke="#63b8ff" points="276.42,-194.1 280.36,-184.27 271.15,-189.5 276.42,-194.1"/>
</a>
</g>
</g>
<!-- Node3 -->
<g id="Node000003" class="node">
<title>Node3</title>
<g id="a_Node000003"><a xlink:title=" ">
<polygon fill="#e0e0e0" stroke="#999999" points="213,-129 131,-129 131,-110 213,-110 213,-129"/>
<text text-anchor="middle" x="172" y="-117" font-family="Helvetica,sans-Serif" font-size="10.00">parameters.h</text>
</a>
</g>
</g>
<!-- Node1&#45;&gt;Node3 -->
<g id="edge24_Node000001_Node000003" class="edge">
<title>Node1&#45;&gt;Node3</title>
<g id="a_edge24_Node000001_Node000003"><a xlink:title=" ">
<path fill="none" stroke="#63b8ff" d="M228.77,-219.63C216.86,-198.84 194.87,-160.44 182.03,-138.02"/>
<polygon fill="#63b8ff" stroke="#63b8ff" points="185.01,-136.17 177,-129.23 178.93,-139.65 185.01,-136.17"/>
</a>
</g>
</g>
<!-- Node2&#45;&gt;Node3 -->
<g id="edge2_Node000002_Node000003" class="edge">
<title>Node2&#45;&gt;Node3</title>
<g id="a_edge2_Node000002_Node000003"><a xlink:title=" ">
<path fill="none" stroke="#63b8ff" d="M269.36,-164.98C250.7,-156.46 221.75,-143.23 200.26,-133.41"/>
<polygon fill="#63b8ff" stroke="#63b8ff" points="201.53,-130.14 190.98,-129.17 198.62,-136.51 201.53,-130.14"/>
</a>
</g>
</g>
<!-- Node4 -->
<g id="Node000004" class="node">
<title>Node4</title>
<g id="a_Node000004"><a xlink:href="adf4377_8h.html" target="_top" xlink:title="Header file for adf4377 Driver.">
<polygon fill="white" stroke="#666666" points="334.5,-129 269.5,-129 269.5,-110 334.5,-110 334.5,-129"/>
<text text-anchor="middle" x="302" y="-117" font-family="Helvetica,sans-Serif" font-size="10.00">adf4377.h</text>
</a>
</g>
</g>
<!-- Node2&#45;&gt;Node4 -->
<g id="edge3_Node000002_Node000004" class="edge">
<title>Node2&#45;&gt;Node4</title>
<g id="a_edge3_Node000002_Node000004"><a xlink:title=" ">
<path fill="none" stroke="#63b8ff" d="M290.31,-164.75C292.17,-157.72 294.84,-147.62 297.15,-138.84"/>
<polygon fill="#63b8ff" stroke="#63b8ff" points="300.56,-139.65 299.73,-129.09 293.79,-137.86 300.56,-139.65"/>
</a>
</g>
</g>
<!-- Node7 -->
<g id="Node000007" class="node">
<title>Node7</title>
<g id="a_Node000007"><a xlink:href="no__os__spi_8h.html" target="_top" xlink:title="Header file of SPI Interface.">
<polygon fill="white" stroke="#666666" points="74,-74 0,-74 0,-55 74,-55 74,-74"/>
<text text-anchor="middle" x="37" y="-62" font-family="Helvetica,sans-Serif" font-size="10.00">no_os_spi.h</text>
</a>
</g>
</g>
<!-- Node2&#45;&gt;Node7 -->
<g id="edge15_Node000002_Node000007" class="edge">
<title>Node2&#45;&gt;Node7</title>
<g id="a_edge15_Node000002_Node000007"><a xlink:title=" ">
<path fill="none" stroke="#63b8ff" d="M281.36,-164.59C270.53,-150.71 247.66,-124.05 222,-110 209.88,-103.36 134.55,-86.39 83.83,-75.43"/>
<polygon fill="#63b8ff" stroke="#63b8ff" points="84.56,-72 74.04,-73.32 83.08,-78.84 84.56,-72"/>
</a>
</g>
</g>
<!-- Node9 -->
<g id="Node000009" class="node">
<title>Node9</title>
<g id="a_Node000009"><a xlink:href="no__os__util_8h.html" target="_top" xlink:title="Header file of utility functions.">
<polygon fill="white" stroke="#666666" points="405.5,-74 330.5,-74 330.5,-55 405.5,-55 405.5,-74"/>
<text text-anchor="middle" x="368" y="-62" font-family="Helvetica,sans-Serif" font-size="10.00">no_os_util.h</text>
</a>
</g>
</g>
<!-- Node2&#45;&gt;Node9 -->
<g id="edge23_Node000002_Node000009" class="edge">
<title>Node2&#45;&gt;Node9</title>
<g id="a_edge23_Node000002_Node000009"><a xlink:title=" ">
<path fill="none" stroke="#63b8ff" d="M302.71,-164.98C315.22,-157.08 332.87,-144.25 344,-129 353.88,-115.46 360.19,-97.37 363.84,-83.97"/>
<polygon fill="#63b8ff" stroke="#63b8ff" points="367.3,-84.56 366.31,-74.01 360.51,-82.87 367.3,-84.56"/>
</a>
</g>
</g>
<!-- Node12 -->
<g id="Node000012" class="node">
<title>Node12</title>
<g id="a_Node000012"><a xlink:href="no__os__uart_8h.html" target="_top" xlink:title="Header file of UART interface.">
<polygon fill="white" stroke="#666666" points="474.5,-129 395.5,-129 395.5,-110 474.5,-110 474.5,-129"/>
<text text-anchor="middle" x="435" y="-117" font-family="Helvetica,sans-Serif" font-size="10.00">no_os_uart.h</text>
</a>
</g>
</g>
<!-- Node2&#45;&gt;Node12 -->
<g id="edge16_Node000002_Node000012" class="edge">
<title>Node2&#45;&gt;Node12</title>
<g id="a_edge16_Node000002_Node000012"><a xlink:title=" ">
<path fill="none" stroke="#63b8ff" d="M311.62,-164.98C335.9,-156.23 373.95,-142.51 401.37,-132.62"/>
<polygon fill="#63b8ff" stroke="#63b8ff" points="402.73,-135.85 410.95,-129.17 400.36,-129.27 402.73,-135.85"/>
</a>
</g>
</g>
<!-- Node5 -->
<g id="Node000005" class="node">
<title>Node5</title>
<g id="a_Node000005"><a xlink:title=" ">
<polygon fill="#e0e0e0" stroke="#999999" points="369.5,-19 316.5,-19 316.5,0 369.5,0 369.5,-19"/>
<text text-anchor="middle" x="343" y="-7" font-family="Helvetica,sans-Serif" font-size="10.00">stdint.h</text>
</a>
</g>
</g>
<!-- Node4&#45;&gt;Node5 -->
<g id="edge4_Node000004_Node000005" class="edge">
<title>Node4&#45;&gt;Node5</title>
<g id="a_edge4_Node000004_Node000005"><a xlink:title=" ">
<path fill="none" stroke="#63b8ff" d="M304.35,-109.74C307.76,-97.37 314.5,-74.16 322,-55 325.5,-46.05 329.98,-36.37 333.9,-28.34"/>
<polygon fill="#63b8ff" stroke="#63b8ff" points="337.12,-29.72 338.46,-19.21 330.86,-26.6 337.12,-29.72"/>
</a>
</g>
</g>
<!-- Node6 -->
<g id="Node000006" class="node">
<title>Node6</title>
<g id="a_Node000006"><a xlink:title=" ">
<polygon fill="#e0e0e0" stroke="#999999" points="568,-19 506,-19 506,0 568,0 568,-19"/>
<text text-anchor="middle" x="537" y="-7" font-family="Helvetica,sans-Serif" font-size="10.00">stdbool.h</text>
</a>
</g>
</g>
<!-- Node4&#45;&gt;Node6 -->
<g id="edge5_Node000004_Node000006" class="edge">
<title>Node4&#45;&gt;Node6</title>
<g id="a_edge5_Node000004_Node000006"><a xlink:title=" ">
<path fill="none" stroke="#63b8ff" d="M334.57,-115.46C402.83,-108.76 555.82,-91.89 571,-74 583.28,-59.52 569.03,-39.87 555.4,-26.28"/>
<polygon fill="#63b8ff" stroke="#63b8ff" points="557.76,-23.7 548.06,-19.43 552.98,-28.81 557.76,-23.7"/>
</a>
</g>
</g>
<!-- Node4&#45;&gt;Node7 -->
<g id="edge6_Node000004_Node000007" class="edge">
<title>Node4&#45;&gt;Node7</title>
<g id="a_edge6_Node000004_Node000007"><a xlink:title=" ">
<path fill="none" stroke="#63b8ff" d="M269.24,-111.95C222.8,-102.66 137.55,-85.61 84.26,-74.95"/>
<polygon fill="#63b8ff" stroke="#63b8ff" points="84.87,-71.5 74.37,-72.97 83.49,-78.37 84.87,-71.5"/>
</a>
</g>
</g>
<!-- Node8 -->
<g id="Node000008" class="node">
<title>Node8</title>
<g id="a_Node000008"><a xlink:href="no__os__gpio_8h.html" target="_top" xlink:title="Header file of GPIO Interface.">
<polygon fill="white" stroke="#666666" points="172,-74 92,-74 92,-55 172,-55 172,-74"/>
<text text-anchor="middle" x="132" y="-62" font-family="Helvetica,sans-Serif" font-size="10.00">no_os_gpio.h</text>
</a>
</g>
</g>
<!-- Node4&#45;&gt;Node8 -->
<g id="edge8_Node000004_Node000008" class="edge">
<title>Node4&#45;&gt;Node8</title>
<g id="a_edge8_Node000004_Node000008"><a xlink:title=" ">
<path fill="none" stroke="#63b8ff" d="M274.69,-109.98C246.15,-101.09 201.17,-87.07 169.36,-77.15"/>
<polygon fill="#63b8ff" stroke="#63b8ff" points="170.12,-73.72 159.53,-74.08 168.03,-80.4 170.12,-73.72"/>
</a>
</g>
</g>
<!-- Node4&#45;&gt;Node9 -->
<g id="edge10_Node000004_Node000009" class="edge">
<title>Node4&#45;&gt;Node9</title>
<g id="a_edge10_Node000004_Node000009"><a xlink:title=" ">
<path fill="none" stroke="#63b8ff" d="M312.6,-109.98C322.46,-102.07 337.35,-90.11 349.22,-80.58"/>
<polygon fill="#63b8ff" stroke="#63b8ff" points="351.6,-83.16 357.2,-74.17 347.21,-77.7 351.6,-83.16"/>
</a>
</g>
</g>
<!-- Node11 -->
<g id="Node000011" class="node">
<title>Node11</title>
<g id="a_Node000011"><a xlink:href="no__os__units_8h.html" target="_top" xlink:title="Header file of Units.">
<polygon fill="white" stroke="#666666" points="273.5,-74 190.5,-74 190.5,-55 273.5,-55 273.5,-74"/>
<text text-anchor="middle" x="232" y="-62" font-family="Helvetica,sans-Serif" font-size="10.00">no_os_units.h</text>
</a>
</g>
</g>
<!-- Node4&#45;&gt;Node11 -->
<g id="edge14_Node000004_Node000011" class="edge">
<title>Node4&#45;&gt;Node11</title>
<g id="a_edge14_Node000004_Node000011"><a xlink:title=" ">
<path fill="none" stroke="#63b8ff" d="M290.75,-109.98C280.2,-102 264.2,-89.88 251.56,-80.31"/>
<polygon fill="#63b8ff" stroke="#63b8ff" points="253.54,-77.42 243.45,-74.17 249.31,-83 253.54,-77.42"/>
</a>
</g>
</g>
<!-- Node7&#45;&gt;Node5 -->
<g id="edge7_Node000007_Node000005" class="edge">
<title>Node7&#45;&gt;Node5</title>
<g id="a_edge7_Node000007_Node000005"><a xlink:title=" ">
<path fill="none" stroke="#63b8ff" d="M74.15,-56.59C77.14,-56.05 80.12,-55.51 83,-55 162.56,-40.84 255.96,-25.06 306.33,-16.62"/>
<polygon fill="#63b8ff" stroke="#63b8ff" points="307.12,-20.04 316.41,-14.93 305.96,-13.13 307.12,-20.04"/>
</a>
</g>
</g>
<!-- Node8&#45;&gt;Node5 -->
<g id="edge9_Node000008_Node000005" class="edge">
<title>Node8&#45;&gt;Node5</title>
<g id="a_edge9_Node000008_Node000005"><a xlink:title=" ">
<path fill="none" stroke="#63b8ff" d="M165.9,-54.98C204.37,-45.32 266.9,-29.62 306.44,-19.68"/>
<polygon fill="#63b8ff" stroke="#63b8ff" points="307.37,-23.06 316.21,-17.23 305.66,-16.27 307.37,-23.06"/>
</a>
</g>
</g>
<!-- Node9&#45;&gt;Node5 -->
<g id="edge11_Node000009_Node000005" class="edge">
<title>Node9&#45;&gt;Node5</title>
<g id="a_edge11_Node000009_Node000005"><a xlink:title=" ">
<path fill="none" stroke="#63b8ff" d="M363.87,-54.75C360.49,-47.57 355.58,-37.18 351.38,-28.27"/>
<polygon fill="#63b8ff" stroke="#63b8ff" points="354.48,-26.64 347.05,-19.09 348.15,-29.63 354.48,-26.64"/>
</a>
</g>
</g>
<!-- Node9&#45;&gt;Node6 -->
<g id="edge13_Node000009_Node000006" class="edge">
<title>Node9&#45;&gt;Node6</title>
<g id="a_edge13_Node000009_Node000006"><a xlink:title=" ">
<path fill="none" stroke="#63b8ff" d="M395.15,-54.98C423.53,-46.09 468.23,-32.07 499.86,-22.15"/>
<polygon fill="#63b8ff" stroke="#63b8ff" points="501.14,-25.41 509.63,-19.08 499.05,-18.73 501.14,-25.41"/>
</a>
</g>
</g>
<!-- Node10 -->
<g id="Node000010" class="node">
<title>Node10</title>
<g id="a_Node000010"><a xlink:title=" ">
<polygon fill="#e0e0e0" stroke="#999999" points="471.5,-19 418.5,-19 418.5,0 471.5,0 471.5,-19"/>
<text text-anchor="middle" x="445" y="-7" font-family="Helvetica,sans-Serif" font-size="10.00">stdlib.h</text>
</a>
</g>
</g>
<!-- Node9&#45;&gt;Node10 -->
<g id="edge12_Node000009_Node000010" class="edge">
<title>Node9&#45;&gt;Node10</title>
<g id="a_edge12_Node000009_Node000010"><a xlink:title=" ">
<path fill="none" stroke="#63b8ff" d="M380.37,-54.98C392.09,-46.92 409.92,-34.65 423.89,-25.03"/>
<polygon fill="#63b8ff" stroke="#63b8ff" points="426.15,-27.72 432.4,-19.17 422.18,-21.96 426.15,-27.72"/>
</a>
</g>
</g>
<!-- Node12&#45;&gt;Node5 -->
<g id="edge17_Node000012_Node000005" class="edge">
<title>Node12&#45;&gt;Node5</title>
<g id="a_edge17_Node000012_Node000005"><a xlink:title=" ">
<path fill="none" stroke="#63b8ff" d="M434.19,-109.81C432.58,-96.69 427.92,-71.6 415,-55 404.34,-41.3 388.19,-30.77 373.88,-23.4"/>
<polygon fill="#63b8ff" stroke="#63b8ff" points="375.35,-20.22 364.82,-19.01 372.3,-26.52 375.35,-20.22"/>
</a>
</g>
</g>
<!-- Node12&#45;&gt;Node6 -->
<g id="edge18_Node000012_Node000006" class="edge">
<title>Node12&#45;&gt;Node6</title>
<g id="a_edge18_Node000012_Node000006"><a xlink:title=" ">
<path fill="none" stroke="#63b8ff" d="M474.87,-113.61C519.71,-107.2 588.35,-94.31 604,-74 619.03,-54.5 591.9,-35.54 567.79,-23.49"/>
<polygon fill="#63b8ff" stroke="#63b8ff" points="568.99,-20.19 558.46,-19.07 566,-26.52 568.99,-20.19"/>
</a>
</g>
</g>
<!-- Node13 -->
<g id="Node000013" class="node">
<title>Node13</title>
<g id="a_Node000013"><a xlink:href="no__os__lf256fifo_8h.html" target="_top" xlink:title="SPSC lock&#45;free fifo of fixed size (256), specialized for UART.">
<polygon fill="white" stroke="#666666" points="562,-74 462,-74 462,-55 562,-55 562,-74"/>
<text text-anchor="middle" x="512" y="-62" font-family="Helvetica,sans-Serif" font-size="10.00">no_os_lf256fifo.h</text>
</a>
</g>
</g>
<!-- Node12&#45;&gt;Node13 -->
<g id="edge19_Node000012_Node000013" class="edge">
<title>Node12&#45;&gt;Node13</title>
<g id="a_edge19_Node000012_Node000013"><a xlink:title=" ">
<path fill="none" stroke="#63b8ff" d="M447.37,-109.98C459.09,-101.92 476.92,-89.65 490.89,-80.03"/>
<polygon fill="#63b8ff" stroke="#63b8ff" points="493.15,-82.72 499.4,-74.17 489.18,-76.96 493.15,-82.72"/>
</a>
</g>
</g>
<!-- Node13&#45;&gt;Node5 -->
<g id="edge21_Node000013_Node000005" class="edge">
<title>Node13&#45;&gt;Node5</title>
<g id="a_edge21_Node000013_Node000005"><a xlink:title=" ">
<path fill="none" stroke="#63b8ff" d="M484.85,-54.98C456.22,-46.01 410.97,-31.82 379.3,-21.88"/>
<polygon fill="#63b8ff" stroke="#63b8ff" points="380.12,-18.47 369.53,-18.82 378.02,-25.15 380.12,-18.47"/>
</a>
</g>
</g>
<!-- Node13&#45;&gt;Node6 -->
<g id="edge22_Node000013_Node000006" class="edge">
<title>Node13&#45;&gt;Node6</title>
<g id="a_edge22_Node000013_Node000006"><a xlink:title=" ">
<path fill="none" stroke="#63b8ff" d="M516.13,-54.75C519.51,-47.57 524.42,-37.18 528.62,-28.27"/>
<polygon fill="#63b8ff" stroke="#63b8ff" points="531.85,-29.63 532.95,-19.09 525.52,-26.64 531.85,-29.63"/>
</a>
</g>
</g>
<!-- Node13&#45;&gt;Node10 -->
<g id="edge20_Node000013_Node000010" class="edge">
<title>Node13&#45;&gt;Node10</title>
<g id="a_edge20_Node000013_Node000010"><a xlink:title=" ">
<path fill="none" stroke="#63b8ff" d="M501.24,-54.98C491.23,-47.07 476.11,-35.11 464.07,-25.58"/>
<polygon fill="#63b8ff" stroke="#63b8ff" points="465.97,-22.63 455.96,-19.17 461.63,-28.12 465.97,-22.63"/>
</a>
</g>
</g>
</g>
</svg>
