<?xml version="1.0" encoding="UTF-8" standalone="no"?>
<!DOCTYPE svg PUBLIC "-//W3C//DTD SVG 1.1//EN"
 "http://www.w3.org/Graphics/SVG/1.1/DTD/svg11.dtd">
<!-- Generated by graphviz version 2.43.0 (0)
 -->
<!-- Title: adf4350_write Pages: 1 -->
<svg width="722pt" height="81pt"
 viewBox="0.00 0.00 722.00 81.00" xmlns="http://www.w3.org/2000/svg" xmlns:xlink="http://www.w3.org/1999/xlink">
<g id="graph0" class="graph" transform="scale(1 1) rotate(0) translate(4 77)">
<title>adf4350_write</title>
<!-- Node1 -->
<g id="Node000001" class="node">
<title>Node1</title>
<g id="a_Node000001"><a xlink:title="Writes 4 bytes of data to ADF4350.">
<polygon fill="#999999" stroke="#666666" points="714,-45.5 628,-45.5 628,-26.5 714,-26.5 714,-45.5"/>
<text text-anchor="middle" x="671" y="-33.5" font-family="Helvetica,sans-Serif" font-size="10.00">adf4350_write</text>
</a>
</g>
</g>
<!-- Node2 -->
<g id="Node000002" class="node">
<title>Node2</title>
<g id="a_Node000002"><a xlink:href="adf4350_8c.html#a924b7827392173a147dd0a248e9f2a9e" target="_top" xlink:title="Updates the registers values.">
<polygon fill="white" stroke="#666666" points="592,-45.5 473,-45.5 473,-26.5 592,-26.5 592,-45.5"/>
<text text-anchor="middle" x="532.5" y="-33.5" font-family="Helvetica,sans-Serif" font-size="10.00">adf4350_sync_config</text>
</a>
</g>
</g>
<!-- Node1&#45;&gt;Node2 -->
<g id="edge1_Node000001_Node000002" class="edge">
<title>Node1&#45;&gt;Node2</title>
<g id="a_edge1_Node000001_Node000002"><a xlink:title=" ">
<path fill="none" stroke="#63b8ff" d="M617.9,-36C609.51,-36 600.78,-36 592.24,-36"/>
<polygon fill="#63b8ff" stroke="#63b8ff" points="617.93,-39.5 627.93,-36 617.93,-32.5 617.93,-39.5"/>
</a>
</g>
</g>
<!-- Node3 -->
<g id="Node000003" class="node">
<title>Node3</title>
<g id="a_Node000003"><a xlink:href="adf4350_8c.html#a271f1050395c7b02bf8dd6624895ea58" target="_top" xlink:title="Powers down the PLL.">
<polygon fill="white" stroke="#666666" points="437,-73 299,-73 299,-43 437,-43 437,-73"/>
<text text-anchor="start" x="307" y="-61" font-family="Helvetica,sans-Serif" font-size="10.00">adf4350_out_altvoltage0</text>
<text text-anchor="middle" x="368" y="-50" font-family="Helvetica,sans-Serif" font-size="10.00">_powerdown</text>
</a>
</g>
</g>
<!-- Node2&#45;&gt;Node3 -->
<g id="edge2_Node000002_Node000003" class="edge">
<title>Node2&#45;&gt;Node3</title>
<g id="a_edge2_Node000002_Node000003"><a xlink:title=" ">
<path fill="none" stroke="#63b8ff" d="M462.68,-45.32C454.26,-46.46 445.66,-47.62 437.25,-48.76"/>
<polygon fill="#63b8ff" stroke="#63b8ff" points="463.39,-48.75 472.83,-43.94 462.45,-41.82 463.39,-48.75"/>
</a>
</g>
</g>
<!-- Node4 -->
<g id="Node000004" class="node">
<title>Node4</title>
<g id="a_Node000004"><a xlink:href="adf4350_8c.html#a36f6fb1f03a7c1b263bdf4787defbeb0" target="_top" xlink:title="Sets the ADF4350 frequency.">
<polygon fill="white" stroke="#666666" points="418.5,-24.5 317.5,-24.5 317.5,-5.5 418.5,-5.5 418.5,-24.5"/>
<text text-anchor="middle" x="368" y="-12.5" font-family="Helvetica,sans-Serif" font-size="10.00">adf4350_set_freq</text>
</a>
</g>
</g>
<!-- Node2&#45;&gt;Node4 -->
<g id="edge3_Node000002_Node000004" class="edge">
<title>Node2&#45;&gt;Node4</title>
<g id="a_edge3_Node000002_Node000004"><a xlink:title=" ">
<path fill="none" stroke="#63b8ff" d="M462.72,-27.11C447.95,-25.2 432.62,-23.22 418.74,-21.43"/>
<polygon fill="#63b8ff" stroke="#63b8ff" points="462.47,-30.61 472.83,-28.42 463.36,-23.67 462.47,-30.61"/>
</a>
</g>
</g>
<!-- Node5 -->
<g id="Node000005" class="node">
<title>Node5</title>
<g id="a_Node000005"><a xlink:href="adf4350_8c.html#a8c919c6b19796b92b775d6727856ef46" target="_top" xlink:title="Stores PLL 0 frequency in Hz.">
<polygon fill="white" stroke="#666666" points="263,-30 125,-30 125,0 263,0 263,-30"/>
<text text-anchor="start" x="133" y="-18" font-family="Helvetica,sans-Serif" font-size="10.00">adf4350_out_altvoltage0</text>
<text text-anchor="middle" x="194" y="-7" font-family="Helvetica,sans-Serif" font-size="10.00">_frequency</text>
</a>
</g>
</g>
<!-- Node4&#45;&gt;Node5 -->
<g id="edge4_Node000004_Node000005" class="edge">
<title>Node4&#45;&gt;Node5</title>
<g id="a_edge4_Node000004_Node000005"><a xlink:title=" ">
<path fill="none" stroke="#63b8ff" d="M307.13,-15C292.95,-15 277.72,-15 263.19,-15"/>
<polygon fill="#63b8ff" stroke="#63b8ff" points="307.25,-18.5 317.25,-15 307.25,-11.5 307.25,-18.5"/>
</a>
</g>
</g>
<!-- Node6 -->
<g id="Node000006" class="node">
<title>Node6</title>
<g id="a_Node000006"><a xlink:href="adf4350_8c.html#a734d328a485aa08ca8dfd42241997f51" target="_top" xlink:title="Initializes the ADF4350.">
<polygon fill="white" stroke="#666666" points="89,-24.5 0,-24.5 0,-5.5 89,-5.5 89,-24.5"/>
<text text-anchor="middle" x="44.5" y="-12.5" font-family="Helvetica,sans-Serif" font-size="10.00">adf4350_setup</text>
</a>
</g>
</g>
<!-- Node5&#45;&gt;Node6 -->
<g id="edge5_Node000005_Node000006" class="edge">
<title>Node5&#45;&gt;Node6</title>
<g id="a_edge5_Node000005_Node000006"><a xlink:title=" ">
<path fill="none" stroke="#63b8ff" d="M114.65,-15C105.97,-15 97.36,-15 89.33,-15"/>
<polygon fill="#63b8ff" stroke="#63b8ff" points="114.86,-18.5 124.86,-15 114.86,-11.5 114.86,-18.5"/>
</a>
</g>
</g>
</g>
</svg>
