<?xml version="1.0" encoding="UTF-8" standalone="no"?>
<!DOCTYPE svg PUBLIC "-//W3C//DTD SVG 1.1//EN"
 "http://www.w3.org/Graphics/SVG/1.1/DTD/svg11.dtd">
<!-- Generated by graphviz version 2.43.0 (0)
 -->
<!-- Title: projects/adf4030/src/examples/basic/basic_example.c Pages: 1 -->
<svg width="444pt" height="159pt"
 viewBox="0.00 0.00 443.50 159.00" xmlns="http://www.w3.org/2000/svg" xmlns:xlink="http://www.w3.org/1999/xlink">
<g id="graph0" class="graph" transform="scale(1 1) rotate(0) translate(4 155)">
<title>projects/adf4030/src/examples/basic/basic_example.c</title>
<!-- Node1 -->
<g id="Node000001" class="node">
<title>Node1</title>
<g id="a_Node000001"><a xlink:title="Basic example EVAL&#45;ADF4030 project.">
<polygon fill="#999999" stroke="#666666" points="281,-151 156,-151 156,-110 281,-110 281,-151"/>
<text text-anchor="start" x="164" y="-139" font-family="Helvetica,sans-Serif" font-size="10.00">projects/adf4030/src</text>
<text text-anchor="start" x="164" y="-128" font-family="Helvetica,sans-Serif" font-size="10.00">/examples/basic/basic</text>
<text text-anchor="middle" x="218.5" y="-117" font-family="Helvetica,sans-Serif" font-size="10.00">_example.c</text>
</a>
</g>
</g>
<!-- Node2 -->
<g id="Node000002" class="node">
<title>Node2</title>
<g id="a_Node000002"><a xlink:href="adf4030_2src_2examples_2basic_2basic__example_8h.html" target="_top" xlink:title="Basic example header for EVAL&#45;ADF4030.">
<polygon fill="white" stroke="#666666" points="99,-74 0,-74 0,-55 99,-55 99,-74"/>
<text text-anchor="middle" x="49.5" y="-62" font-family="Helvetica,sans-Serif" font-size="10.00">basic_example.h</text>
</a>
</g>
</g>
<!-- Node1&#45;&gt;Node2 -->
<g id="edge1_Node000001_Node000002" class="edge">
<title>Node1&#45;&gt;Node2</title>
<g id="a_edge1_Node000001_Node000002"><a xlink:title=" ">
<path fill="none" stroke="#63b8ff" d="M166.88,-109.95C139.06,-99.42 105.62,-86.75 81.56,-77.64"/>
<polygon fill="#63b8ff" stroke="#63b8ff" points="82.78,-74.36 72.19,-74.09 80.3,-80.91 82.78,-74.36"/>
</a>
</g>
</g>
<!-- Node3 -->
<g id="Node000003" class="node">
<title>Node3</title>
<g id="a_Node000003"><a xlink:title=" ">
<polygon fill="#e0e0e0" stroke="#999999" points="212,-74 117,-74 117,-55 212,-55 212,-74"/>
<text text-anchor="middle" x="164.5" y="-62" font-family="Helvetica,sans-Serif" font-size="10.00">common_data.h</text>
</a>
</g>
</g>
<!-- Node1&#45;&gt;Node3 -->
<g id="edge2_Node000001_Node000003" class="edge">
<title>Node1&#45;&gt;Node3</title>
<g id="a_edge2_Node000001_Node000003"><a xlink:title=" ">
<path fill="none" stroke="#63b8ff" d="M202,-109.95C194.47,-101.02 185.64,-90.55 178.44,-82.02"/>
<polygon fill="#63b8ff" stroke="#63b8ff" points="181.02,-79.65 171.89,-74.26 175.67,-84.16 181.02,-79.65"/>
</a>
</g>
</g>
<!-- Node4 -->
<g id="Node000004" class="node">
<title>Node4</title>
<g id="a_Node000004"><a xlink:href="no__os__delay_8h.html" target="_top" xlink:title="Header file of Delay functions.">
<polygon fill="white" stroke="#666666" points="315,-74 230,-74 230,-55 315,-55 315,-74"/>
<text text-anchor="middle" x="272.5" y="-62" font-family="Helvetica,sans-Serif" font-size="10.00">no_os_delay.h</text>
</a>
</g>
</g>
<!-- Node1&#45;&gt;Node4 -->
<g id="edge3_Node000001_Node000004" class="edge">
<title>Node1&#45;&gt;Node4</title>
<g id="a_edge3_Node000001_Node000004"><a xlink:title=" ">
<path fill="none" stroke="#63b8ff" d="M235,-109.95C242.53,-101.02 251.36,-90.55 258.56,-82.02"/>
<polygon fill="#63b8ff" stroke="#63b8ff" points="261.33,-84.16 265.11,-74.26 255.98,-79.65 261.33,-84.16"/>
</a>
</g>
</g>
<!-- Node6 -->
<g id="Node000006" class="node">
<title>Node6</title>
<g id="a_Node000006"><a xlink:href="no__os__print__log_8h.html" target="_top" xlink:title="Print messages helpers.">
<polygon fill="white" stroke="#666666" points="435.5,-74 333.5,-74 333.5,-55 435.5,-55 435.5,-74"/>
<text text-anchor="middle" x="384.5" y="-62" font-family="Helvetica,sans-Serif" font-size="10.00">no_os_print_log.h</text>
</a>
</g>
</g>
<!-- Node1&#45;&gt;Node6 -->
<g id="edge5_Node000001_Node000006" class="edge">
<title>Node1&#45;&gt;Node6</title>
<g id="a_edge5_Node000001_Node000006"><a xlink:title=" ">
<path fill="none" stroke="#63b8ff" d="M269.21,-109.95C296.41,-99.46 329.08,-86.87 352.69,-77.76"/>
<polygon fill="#63b8ff" stroke="#63b8ff" points="354.14,-80.95 362.21,-74.09 351.63,-74.42 354.14,-80.95"/>
</a>
</g>
</g>
<!-- Node5 -->
<g id="Node000005" class="node">
<title>Node5</title>
<g id="a_Node000005"><a xlink:title=" ">
<polygon fill="#e0e0e0" stroke="#999999" points="299,-19 246,-19 246,0 299,0 299,-19"/>
<text text-anchor="middle" x="272.5" y="-7" font-family="Helvetica,sans-Serif" font-size="10.00">stdint.h</text>
</a>
</g>
</g>
<!-- Node4&#45;&gt;Node5 -->
<g id="edge4_Node000004_Node000005" class="edge">
<title>Node4&#45;&gt;Node5</title>
<g id="a_edge4_Node000004_Node000005"><a xlink:title=" ">
<path fill="none" stroke="#63b8ff" d="M272.5,-54.75C272.5,-47.8 272.5,-37.85 272.5,-29.13"/>
<polygon fill="#63b8ff" stroke="#63b8ff" points="276,-29.09 272.5,-19.09 269,-29.09 276,-29.09"/>
</a>
</g>
</g>
<!-- Node7 -->
<g id="Node000007" class="node">
<title>Node7</title>
<g id="a_Node000007"><a xlink:title=" ">
<polygon fill="#e0e0e0" stroke="#999999" points="409.5,-19 359.5,-19 359.5,0 409.5,0 409.5,-19"/>
<text text-anchor="middle" x="384.5" y="-7" font-family="Helvetica,sans-Serif" font-size="10.00">stdio.h</text>
</a>
</g>
</g>
<!-- Node6&#45;&gt;Node7 -->
<g id="edge6_Node000006_Node000007" class="edge">
<title>Node6&#45;&gt;Node7</title>
<g id="a_edge6_Node000006_Node000007"><a xlink:title=" ">
<path fill="none" stroke="#63b8ff" d="M384.5,-54.75C384.5,-47.8 384.5,-37.85 384.5,-29.13"/>
<polygon fill="#63b8ff" stroke="#63b8ff" points="388,-29.09 384.5,-19.09 381,-29.09 388,-29.09"/>
</a>
</g>
</g>
</g>
</svg>
