<?xml version="1.0" encoding="UTF-8" standalone="no"?>
<!DOCTYPE svg PUBLIC "-//W3C//DTD SVG 1.1//EN"
 "http://www.w3.org/Graphics/SVG/1.1/DTD/svg11.dtd">
<!-- Generated by graphviz version 2.43.0 (0)
 -->
<!-- Title: projects/adf5611/src/common/common_data.c Pages: 1 -->
<svg width="622pt" height="258pt"
 viewBox="0.00 0.00 622.11 258.00" xmlns="http://www.w3.org/2000/svg" xmlns:xlink="http://www.w3.org/1999/xlink">
<g id="graph0" class="graph" transform="scale(1 1) rotate(0) translate(4 254)">
<title>projects/adf5611/src/common/common_data.c</title>
<!-- Node1 -->
<g id="Node000001" class="node">
<title>Node1</title>
<g id="a_Node000001"><a xlink:title="Defines common data to be used by adf5611 examples.">
<polygon fill="#999999" stroke="#666666" points="383.61,-250 240.61,-250 240.61,-220 383.61,-220 383.61,-250"/>
<text text-anchor="start" x="248.61" y="-238" font-family="Helvetica,sans-Serif" font-size="10.00">projects/adf5611/src</text>
<text text-anchor="middle" x="312.11" y="-227" font-family="Helvetica,sans-Serif" font-size="10.00">/common/common_data.c</text>
</a>
</g>
</g>
<!-- Node2 -->
<g id="Node000002" class="node">
<title>Node2</title>
<g id="a_Node000002"><a xlink:href="adf5611_2src_2common_2common__data_8h.html" target="_top" xlink:title="Defines common data to be used by adf5611 examples.">
<polygon fill="white" stroke="#666666" points="359.61,-184 264.61,-184 264.61,-165 359.61,-165 359.61,-184"/>
<text text-anchor="middle" x="312.11" y="-172" font-family="Helvetica,sans-Serif" font-size="10.00">common_data.h</text>
</a>
</g>
</g>
<!-- Node1&#45;&gt;Node2 -->
<g id="edge1_Node000001_Node000002" class="edge">
<title>Node1&#45;&gt;Node2</title>
<g id="a_edge1_Node000001_Node000002"><a xlink:title=" ">
<path fill="none" stroke="#63b8ff" d="M312.11,-219.84C312.11,-212.21 312.11,-202.7 312.11,-194.45"/>
<polygon fill="#63b8ff" stroke="#63b8ff" points="315.61,-194.27 312.11,-184.27 308.61,-194.27 315.61,-194.27"/>
</a>
</g>
</g>
<!-- Node3 -->
<g id="Node000003" class="node">
<title>Node3</title>
<g id="a_Node000003"><a xlink:title=" ">
<polygon fill="#e0e0e0" stroke="#999999" points="83.11,-129 1.11,-129 1.11,-110 83.11,-110 83.11,-129"/>
<text text-anchor="middle" x="42.11" y="-117" font-family="Helvetica,sans-Serif" font-size="10.00">parameters.h</text>
</a>
</g>
</g>
<!-- Node2&#45;&gt;Node3 -->
<g id="edge2_Node000002_Node000003" class="edge">
<title>Node2&#45;&gt;Node3</title>
<g id="a_edge2_Node000002_Node000003"><a xlink:title=" ">
<path fill="none" stroke="#63b8ff" d="M268.73,-164.98C220.9,-155.59 144.01,-140.5 93.27,-130.54"/>
<polygon fill="#63b8ff" stroke="#63b8ff" points="93.66,-127.05 83.17,-128.56 92.31,-133.92 93.66,-127.05"/>
</a>
</g>
</g>
<!-- Node4 -->
<g id="Node000004" class="node">
<title>Node4</title>
<g id="a_Node000004"><a xlink:href="adf5611_8h.html" target="_top" xlink:title="Implementation of adf5611 Driver.">
<polygon fill="white" stroke="#666666" points="314.61,-129 249.61,-129 249.61,-110 314.61,-110 314.61,-129"/>
<text text-anchor="middle" x="282.11" y="-117" font-family="Helvetica,sans-Serif" font-size="10.00">adf5611.h</text>
</a>
</g>
</g>
<!-- Node2&#45;&gt;Node4 -->
<g id="edge3_Node000002_Node000004" class="edge">
<title>Node2&#45;&gt;Node4</title>
<g id="a_edge3_Node000002_Node000004"><a xlink:title=" ">
<path fill="none" stroke="#63b8ff" d="M307.16,-164.75C303.05,-157.49 297.09,-146.95 292.01,-137.98"/>
<polygon fill="#63b8ff" stroke="#63b8ff" points="294.95,-136.07 286.97,-129.09 288.85,-139.52 294.95,-136.07"/>
</a>
</g>
</g>
<!-- Node7 -->
<g id="Node000007" class="node">
<title>Node7</title>
<g id="a_Node000007"><a xlink:href="no__os__util_8h.html" target="_top" xlink:title="Header file of utility functions.">
<polygon fill="white" stroke="#666666" points="244.61,-74 169.61,-74 169.61,-55 244.61,-55 244.61,-74"/>
<text text-anchor="middle" x="207.11" y="-62" font-family="Helvetica,sans-Serif" font-size="10.00">no_os_util.h</text>
</a>
</g>
</g>
<!-- Node2&#45;&gt;Node7 -->
<g id="edge20_Node000002_Node000007" class="edge">
<title>Node2&#45;&gt;Node7</title>
<g id="a_edge20_Node000002_Node000007"><a xlink:title=" ">
<path fill="none" stroke="#63b8ff" d="M292.38,-164.93C276.66,-157.32 254.91,-144.94 240.11,-129 227.97,-115.92 219.07,-97.54 213.59,-83.91"/>
<polygon fill="#63b8ff" stroke="#63b8ff" points="216.73,-82.32 209.93,-74.2 210.18,-84.79 216.73,-82.32"/>
</a>
</g>
</g>
<!-- Node10 -->
<g id="Node000010" class="node">
<title>Node10</title>
<g id="a_Node000010"><a xlink:href="no__os__spi_8h.html" target="_top" xlink:title="Header file of SPI Interface.">
<polygon fill="white" stroke="#666666" points="446.11,-74 372.11,-74 372.11,-55 446.11,-55 446.11,-74"/>
<text text-anchor="middle" x="409.11" y="-62" font-family="Helvetica,sans-Serif" font-size="10.00">no_os_spi.h</text>
</a>
</g>
</g>
<!-- Node2&#45;&gt;Node10 -->
<g id="edge12_Node000002_Node000010" class="edge">
<title>Node2&#45;&gt;Node10</title>
<g id="a_edge12_Node000002_Node000010"><a xlink:title=" ">
<path fill="none" stroke="#63b8ff" d="M318.71,-164.59C328.12,-152.03 346.15,-128.6 363.11,-110 372.28,-99.94 383.21,-89.32 392.11,-80.98"/>
<polygon fill="#63b8ff" stroke="#63b8ff" points="394.65,-83.4 399.61,-74.04 389.89,-78.26 394.65,-83.4"/>
</a>
</g>
</g>
<!-- Node11 -->
<g id="Node000011" class="node">
<title>Node11</title>
<g id="a_Node000011"><a xlink:href="no__os__uart_8h.html" target="_top" xlink:title="Header file of UART interface.">
<polygon fill="white" stroke="#666666" points="180.61,-129 101.61,-129 101.61,-110 180.61,-110 180.61,-129"/>
<text text-anchor="middle" x="141.11" y="-117" font-family="Helvetica,sans-Serif" font-size="10.00">no_os_uart.h</text>
</a>
</g>
</g>
<!-- Node2&#45;&gt;Node11 -->
<g id="edge13_Node000002_Node000011" class="edge">
<title>Node2&#45;&gt;Node11</title>
<g id="a_edge13_Node000002_Node000011"><a xlink:title=" ">
<path fill="none" stroke="#63b8ff" d="M284.64,-164.98C255.93,-156.09 210.69,-142.07 178.69,-132.15"/>
<polygon fill="#63b8ff" stroke="#63b8ff" points="179.39,-128.7 168.8,-129.08 177.32,-135.39 179.39,-128.7"/>
</a>
</g>
</g>
<!-- Node13 -->
<g id="Node000013" class="node">
<title>Node13</title>
<g id="a_Node000013"><a xlink:href="no__os__i2c_8h.html" target="_top" xlink:title="Header file of I2C Interface.">
<polygon fill="white" stroke="#666666" points="614.11,-74 540.11,-74 540.11,-55 614.11,-55 614.11,-74"/>
<text text-anchor="middle" x="577.11" y="-62" font-family="Helvetica,sans-Serif" font-size="10.00">no_os_i2c.h</text>
</a>
</g>
</g>
<!-- Node2&#45;&gt;Node13 -->
<g id="edge21_Node000002_Node000013" class="edge">
<title>Node2&#45;&gt;Node13</title>
<g id="a_edge21_Node000002_Node000013"><a xlink:title=" ">
<path fill="none" stroke="#63b8ff" d="M359.87,-171.32C424.7,-167.35 535.74,-156.62 564.11,-129 575.82,-117.61 578.43,-98.71 578.5,-84.49"/>
<polygon fill="#63b8ff" stroke="#63b8ff" points="581.99,-84.18 578.13,-74.32 574.99,-84.44 581.99,-84.18"/>
</a>
</g>
</g>
<!-- Node14 -->
<g id="Node000014" class="node">
<title>Node14</title>
<g id="a_Node000014"><a xlink:href="no__os__eeprom_8h.html" target="_top" xlink:title="Header file for EEPROM APIs.">
<polygon fill="white" stroke="#666666" points="468.61,-129 371.61,-129 371.61,-110 468.61,-110 468.61,-129"/>
<text text-anchor="middle" x="420.11" y="-117" font-family="Helvetica,sans-Serif" font-size="10.00">no_os_eeprom.h</text>
</a>
</g>
</g>
<!-- Node2&#45;&gt;Node14 -->
<g id="edge23_Node000002_Node000014" class="edge">
<title>Node2&#45;&gt;Node14</title>
<g id="a_edge23_Node000002_Node000014"><a xlink:title=" ">
<path fill="none" stroke="#63b8ff" d="M329.46,-164.98C346.68,-156.54 373.31,-143.47 393.26,-133.68"/>
<polygon fill="#63b8ff" stroke="#63b8ff" points="395.01,-136.72 402.44,-129.17 391.93,-130.43 395.01,-136.72"/>
</a>
</g>
</g>
<!-- Node15 -->
<g id="Node000015" class="node">
<title>Node15</title>
<g id="a_Node000015"><a xlink:href="24xx32a_8h.html" target="_top" xlink:title="Header file of 24AA32A/24LC32A Interface.">
<polygon fill="white" stroke="#666666" points="555.11,-129 487.11,-129 487.11,-110 555.11,-110 555.11,-129"/>
<text text-anchor="middle" x="521.11" y="-117" font-family="Helvetica,sans-Serif" font-size="10.00">24xx32a.h</text>
</a>
</g>
</g>
<!-- Node2&#45;&gt;Node15 -->
<g id="edge25_Node000002_Node000015" class="edge">
<title>Node2&#45;&gt;Node15</title>
<g id="a_edge25_Node000002_Node000015"><a xlink:title=" ">
<path fill="none" stroke="#63b8ff" d="M345.69,-164.98C381.46,-155.91 438.23,-141.52 477.45,-131.57"/>
<polygon fill="#63b8ff" stroke="#63b8ff" points="478.44,-134.93 487.27,-129.08 476.72,-128.15 478.44,-134.93"/>
</a>
</g>
</g>
<!-- Node5 -->
<g id="Node000005" class="node">
<title>Node5</title>
<g id="a_Node000005"><a xlink:title=" ">
<polygon fill="#e0e0e0" stroke="#999999" points="402.61,-19 349.61,-19 349.61,0 402.61,0 402.61,-19"/>
<text text-anchor="middle" x="376.11" y="-7" font-family="Helvetica,sans-Serif" font-size="10.00">stdint.h</text>
</a>
</g>
</g>
<!-- Node4&#45;&gt;Node5 -->
<g id="edge4_Node000004_Node000005" class="edge">
<title>Node4&#45;&gt;Node5</title>
<g id="a_edge4_Node000004_Node000005"><a xlink:title=" ">
<path fill="none" stroke="#63b8ff" d="M290.67,-109.8C299.29,-100.96 312.89,-86.76 324.11,-74 337.72,-58.53 352.55,-40.27 362.88,-27.31"/>
<polygon fill="#63b8ff" stroke="#63b8ff" points="365.77,-29.3 369.24,-19.29 360.28,-24.95 365.77,-29.3"/>
</a>
</g>
</g>
<!-- Node6 -->
<g id="Node000006" class="node">
<title>Node6</title>
<g id="a_Node000006"><a xlink:title=" ">
<polygon fill="#e0e0e0" stroke="#999999" points="315.61,-74 262.61,-74 262.61,-55 315.61,-55 315.61,-74"/>
<text text-anchor="middle" x="289.11" y="-62" font-family="Helvetica,sans-Serif" font-size="10.00">string.h</text>
</a>
</g>
</g>
<!-- Node4&#45;&gt;Node6 -->
<g id="edge5_Node000004_Node000006" class="edge">
<title>Node4&#45;&gt;Node6</title>
<g id="a_edge5_Node000004_Node000006"><a xlink:title=" ">
<path fill="none" stroke="#63b8ff" d="M283.27,-109.75C284.19,-102.8 285.5,-92.85 286.65,-84.13"/>
<polygon fill="#63b8ff" stroke="#63b8ff" points="290.14,-84.46 287.98,-74.09 283.2,-83.54 290.14,-84.46"/>
</a>
</g>
</g>
<!-- Node4&#45;&gt;Node7 -->
<g id="edge6_Node000004_Node000007" class="edge">
<title>Node4&#45;&gt;Node7</title>
<g id="a_edge6_Node000004_Node000007"><a xlink:title=" ">
<path fill="none" stroke="#63b8ff" d="M270.06,-109.98C258.65,-101.92 241.28,-89.65 227.68,-80.03"/>
<polygon fill="#63b8ff" stroke="#63b8ff" points="229.57,-77.08 219.38,-74.17 225.53,-82.8 229.57,-77.08"/>
</a>
</g>
</g>
<!-- Node4&#45;&gt;Node10 -->
<g id="edge10_Node000004_Node000010" class="edge">
<title>Node4&#45;&gt;Node10</title>
<g id="a_edge10_Node000004_Node000010"><a xlink:title=" ">
<path fill="none" stroke="#63b8ff" d="M302.52,-109.98C323.13,-101.38 355.22,-87.99 378.81,-78.15"/>
<polygon fill="#63b8ff" stroke="#63b8ff" points="380.46,-81.25 388.34,-74.17 377.76,-74.79 380.46,-81.25"/>
</a>
</g>
</g>
<!-- Node7&#45;&gt;Node5 -->
<g id="edge7_Node000007_Node000005" class="edge">
<title>Node7&#45;&gt;Node5</title>
<g id="a_edge7_Node000007_Node000005"><a xlink:title=" ">
<path fill="none" stroke="#63b8ff" d="M234.27,-54.98C262.89,-46.01 308.14,-31.82 339.82,-21.88"/>
<polygon fill="#63b8ff" stroke="#63b8ff" points="341.09,-25.15 349.58,-18.82 339,-18.47 341.09,-25.15"/>
</a>
</g>
</g>
<!-- Node8 -->
<g id="Node000008" class="node">
<title>Node8</title>
<g id="a_Node000008"><a xlink:title=" ">
<polygon fill="#e0e0e0" stroke="#999999" points="199.61,-19 146.61,-19 146.61,0 199.61,0 199.61,-19"/>
<text text-anchor="middle" x="173.11" y="-7" font-family="Helvetica,sans-Serif" font-size="10.00">stdlib.h</text>
</a>
</g>
</g>
<!-- Node7&#45;&gt;Node8 -->
<g id="edge8_Node000007_Node000008" class="edge">
<title>Node7&#45;&gt;Node8</title>
<g id="a_edge8_Node000007_Node000008"><a xlink:title=" ">
<path fill="none" stroke="#63b8ff" d="M201.5,-54.75C196.79,-47.42 189.94,-36.73 184.14,-27.7"/>
<polygon fill="#63b8ff" stroke="#63b8ff" points="186.97,-25.62 178.62,-19.09 181.08,-29.4 186.97,-25.62"/>
</a>
</g>
</g>
<!-- Node9 -->
<g id="Node000009" class="node">
<title>Node9</title>
<g id="a_Node000009"><a xlink:title=" ">
<polygon fill="#e0e0e0" stroke="#999999" points="94.11,-19 32.11,-19 32.11,0 94.11,0 94.11,-19"/>
<text text-anchor="middle" x="63.11" y="-7" font-family="Helvetica,sans-Serif" font-size="10.00">stdbool.h</text>
</a>
</g>
</g>
<!-- Node7&#45;&gt;Node9 -->
<g id="edge9_Node000007_Node000009" class="edge">
<title>Node7&#45;&gt;Node9</title>
<g id="a_edge9_Node000007_Node000009"><a xlink:title=" ">
<path fill="none" stroke="#63b8ff" d="M183.98,-54.98C160.29,-46.27 123.24,-32.63 96.41,-22.75"/>
<polygon fill="#63b8ff" stroke="#63b8ff" points="97.26,-19.34 86.67,-19.17 94.85,-25.91 97.26,-19.34"/>
</a>
</g>
</g>
<!-- Node10&#45;&gt;Node5 -->
<g id="edge11_Node000010_Node000005" class="edge">
<title>Node10&#45;&gt;Node5</title>
<g id="a_edge11_Node000010_Node000005"><a xlink:title=" ">
<path fill="none" stroke="#63b8ff" d="M403.66,-54.75C399.1,-47.42 392.44,-36.73 386.82,-27.7"/>
<polygon fill="#63b8ff" stroke="#63b8ff" points="389.72,-25.73 381.46,-19.09 383.77,-29.43 389.72,-25.73"/>
</a>
</g>
</g>
<!-- Node11&#45;&gt;Node5 -->
<g id="edge14_Node000011_Node000005" class="edge">
<title>Node11&#45;&gt;Node5</title>
<g id="a_edge14_Node000011_Node000005"><a xlink:title=" ">
<path fill="none" stroke="#63b8ff" d="M141.07,-109.65C141.51,-95.85 144.5,-69.3 160.11,-55 185.91,-31.37 284.92,-18.8 339.49,-13.54"/>
<polygon fill="#63b8ff" stroke="#63b8ff" points="339.83,-17.03 349.46,-12.62 339.18,-10.06 339.83,-17.03"/>
</a>
</g>
</g>
<!-- Node11&#45;&gt;Node9 -->
<g id="edge15_Node000011_Node000009" class="edge">
<title>Node11&#45;&gt;Node9</title>
<g id="a_edge15_Node000011_Node000009"><a xlink:title=" ">
<path fill="none" stroke="#63b8ff" d="M101.36,-110.96C65.19,-103.19 15.73,-89.98 4.11,-74 -9.43,-55.36 14.33,-36.3 35.62,-23.99"/>
<polygon fill="#63b8ff" stroke="#63b8ff" points="37.38,-27.02 44.48,-19.15 34.03,-20.87 37.38,-27.02"/>
</a>
</g>
</g>
<!-- Node12 -->
<g id="Node000012" class="node">
<title>Node12</title>
<g id="a_Node000012"><a xlink:href="no__os__lf256fifo_8h.html" target="_top" xlink:title="SPSC lock&#45;free fifo of fixed size (256), specialized for UART.">
<polygon fill="white" stroke="#666666" points="113.11,-74 13.11,-74 13.11,-55 113.11,-55 113.11,-74"/>
<text text-anchor="middle" x="63.11" y="-62" font-family="Helvetica,sans-Serif" font-size="10.00">no_os_lf256fifo.h</text>
</a>
</g>
</g>
<!-- Node11&#45;&gt;Node12 -->
<g id="edge16_Node000011_Node000012" class="edge">
<title>Node11&#45;&gt;Node12</title>
<g id="a_edge16_Node000011_Node000012"><a xlink:title=" ">
<path fill="none" stroke="#63b8ff" d="M128.58,-109.98C116.71,-101.92 98.65,-89.65 84.5,-80.03"/>
<polygon fill="#63b8ff" stroke="#63b8ff" points="86.11,-76.9 75.87,-74.17 82.18,-82.69 86.11,-76.9"/>
</a>
</g>
</g>
<!-- Node12&#45;&gt;Node5 -->
<g id="edge18_Node000012_Node000005" class="edge">
<title>Node12&#45;&gt;Node5</title>
<g id="a_edge18_Node000012_Node000005"><a xlink:title=" ">
<path fill="none" stroke="#63b8ff" d="M113.4,-54.98C176.55,-44.29 283.39,-26.2 339.38,-16.72"/>
<polygon fill="#63b8ff" stroke="#63b8ff" points="340.28,-20.12 349.55,-15 339.11,-13.22 340.28,-20.12"/>
</a>
</g>
</g>
<!-- Node12&#45;&gt;Node8 -->
<g id="edge17_Node000012_Node000008" class="edge">
<title>Node12&#45;&gt;Node8</title>
<g id="a_edge17_Node000012_Node000008"><a xlink:title=" ">
<path fill="none" stroke="#63b8ff" d="M80.79,-54.98C98.4,-46.5 125.69,-33.35 146.04,-23.54"/>
<polygon fill="#63b8ff" stroke="#63b8ff" points="147.63,-26.66 155.12,-19.17 144.59,-20.36 147.63,-26.66"/>
</a>
</g>
</g>
<!-- Node12&#45;&gt;Node9 -->
<g id="edge19_Node000012_Node000009" class="edge">
<title>Node12&#45;&gt;Node9</title>
<g id="a_edge19_Node000012_Node000009"><a xlink:title=" ">
<path fill="none" stroke="#63b8ff" d="M63.11,-54.75C63.11,-47.8 63.11,-37.85 63.11,-29.13"/>
<polygon fill="#63b8ff" stroke="#63b8ff" points="66.61,-29.09 63.11,-19.09 59.61,-29.09 66.61,-29.09"/>
</a>
</g>
</g>
<!-- Node13&#45;&gt;Node5 -->
<g id="edge22_Node000013_Node000005" class="edge">
<title>Node13&#45;&gt;Node5</title>
<g id="a_edge22_Node000013_Node000005"><a xlink:title=" ">
<path fill="none" stroke="#63b8ff" d="M544.82,-54.98C508.81,-45.49 450.68,-30.16 412.93,-20.21"/>
<polygon fill="#63b8ff" stroke="#63b8ff" points="413.42,-16.72 402.86,-17.55 411.64,-23.49 413.42,-16.72"/>
</a>
</g>
</g>
<!-- Node14&#45;&gt;Node5 -->
<g id="edge24_Node000014_Node000005" class="edge">
<title>Node14&#45;&gt;Node5</title>
<g id="a_edge24_Node000014_Node000005"><a xlink:title=" ">
<path fill="none" stroke="#63b8ff" d="M431.03,-109.79C445.08,-97.49 466.42,-74.35 455.11,-55 445.84,-39.13 428.59,-28.48 412.57,-21.59"/>
<polygon fill="#63b8ff" stroke="#63b8ff" points="413.42,-18.16 402.84,-17.77 410.87,-24.68 413.42,-18.16"/>
</a>
</g>
</g>
<!-- Node15&#45;&gt;Node5 -->
<g id="edge26_Node000015_Node000005" class="edge">
<title>Node15&#45;&gt;Node5</title>
<g id="a_edge26_Node000015_Node000005"><a xlink:title=" ">
<path fill="none" stroke="#63b8ff" d="M515.86,-109.65C507.57,-96.31 490.31,-70.94 470.11,-55 452.49,-41.09 429.81,-30.2 411.15,-22.67"/>
<polygon fill="#63b8ff" stroke="#63b8ff" points="412.39,-19.4 401.8,-19.04 409.86,-25.92 412.39,-19.4"/>
</a>
</g>
</g>
<!-- Node15&#45;&gt;Node13 -->
<g id="edge27_Node000015_Node000013" class="edge">
<title>Node15&#45;&gt;Node13</title>
<g id="a_edge27_Node000015_Node000013"><a xlink:title=" ">
<path fill="none" stroke="#63b8ff" d="M530.11,-109.98C538.31,-102.23 550.62,-90.58 560.58,-81.14"/>
<polygon fill="#63b8ff" stroke="#63b8ff" points="563.09,-83.59 567.95,-74.17 558.28,-78.5 563.09,-83.59"/>
</a>
</g>
</g>
</g>
</svg>
