<?xml version="1.0" encoding="UTF-8" standalone="no"?>
<!DOCTYPE svg PUBLIC "-//W3C//DTD SVG 1.1//EN"
 "http://www.w3.org/Graphics/SVG/1.1/DTD/svg11.dtd">
<!-- Generated by graphviz version 2.43.0 (0)
 -->
<!-- Title: drivers/rf&#45;transceiver/adf7023/adf7023.h Pages: 1 -->
<svg width="203pt" height="148pt"
 viewBox="0.00 0.00 202.50 148.00" xmlns="http://www.w3.org/2000/svg" xmlns:xlink="http://www.w3.org/1999/xlink">
<g id="graph0" class="graph" transform="scale(1 1) rotate(0) translate(4 144)">
<title>drivers/rf&#45;transceiver/adf7023/adf7023.h</title>
<!-- Node1 -->
<g id="Node000001" class="node">
<title>Node1</title>
<g id="a_Node000001"><a xlink:title="Header file of ADF7023 Driver.">
<polygon fill="#999999" stroke="#666666" points="119,-140 0,-140 0,-110 119,-110 119,-140"/>
<text text-anchor="start" x="8" y="-128" font-family="Helvetica,sans-Serif" font-size="10.00">drivers/rf&#45;transceiver</text>
<text text-anchor="middle" x="59.5" y="-117" font-family="Helvetica,sans-Serif" font-size="10.00">/adf7023/adf7023.h</text>
</a>
</g>
</g>
<!-- Node2 -->
<g id="Node000002" class="node">
<title>Node2</title>
<g id="a_Node000002"><a xlink:title=" ">
<polygon fill="#e0e0e0" stroke="#999999" points="86,-19 33,-19 33,0 86,0 86,-19"/>
<text text-anchor="middle" x="59.5" y="-7" font-family="Helvetica,sans-Serif" font-size="10.00">stdint.h</text>
</a>
</g>
</g>
<!-- Node1&#45;&gt;Node2 -->
<g id="edge1_Node000001_Node000002" class="edge">
<title>Node1&#45;&gt;Node2</title>
<g id="a_edge1_Node000001_Node000002"><a xlink:title=" ">
<path fill="none" stroke="#63b8ff" d="M41.09,-109.97C30.85,-100.96 19.07,-88.29 13.5,-74 6.24,-55.38 22.43,-37.23 37.57,-25.14"/>
<polygon fill="#63b8ff" stroke="#63b8ff" points="39.78,-27.86 45.72,-19.08 35.6,-22.24 39.78,-27.86"/>
</a>
</g>
</g>
<!-- Node3 -->
<g id="Node000003" class="node">
<title>Node3</title>
<g id="a_Node000003"><a xlink:href="no__os__spi_8h.html" target="_top" xlink:title="Header file of SPI Interface.">
<polygon fill="white" stroke="#666666" points="96.5,-74 22.5,-74 22.5,-55 96.5,-55 96.5,-74"/>
<text text-anchor="middle" x="59.5" y="-62" font-family="Helvetica,sans-Serif" font-size="10.00">no_os_spi.h</text>
</a>
</g>
</g>
<!-- Node1&#45;&gt;Node3 -->
<g id="edge2_Node000001_Node000003" class="edge">
<title>Node1&#45;&gt;Node3</title>
<g id="a_edge2_Node000001_Node000003"><a xlink:title=" ">
<path fill="none" stroke="#63b8ff" d="M59.5,-109.84C59.5,-102.21 59.5,-92.7 59.5,-84.45"/>
<polygon fill="#63b8ff" stroke="#63b8ff" points="63,-84.27 59.5,-74.27 56,-84.27 63,-84.27"/>
</a>
</g>
</g>
<!-- Node4 -->
<g id="Node000004" class="node">
<title>Node4</title>
<g id="a_Node000004"><a xlink:href="no__os__gpio_8h.html" target="_top" xlink:title="Header file of GPIO Interface.">
<polygon fill="white" stroke="#666666" points="194.5,-74 114.5,-74 114.5,-55 194.5,-55 194.5,-74"/>
<text text-anchor="middle" x="154.5" y="-62" font-family="Helvetica,sans-Serif" font-size="10.00">no_os_gpio.h</text>
</a>
</g>
</g>
<!-- Node1&#45;&gt;Node4 -->
<g id="edge4_Node000001_Node000004" class="edge">
<title>Node1&#45;&gt;Node4</title>
<g id="a_edge4_Node000001_Node000004"><a xlink:title=" ">
<path fill="none" stroke="#63b8ff" d="M82.5,-109.84C97.5,-100.6 117,-88.59 131.93,-79.4"/>
<polygon fill="#63b8ff" stroke="#63b8ff" points="133.86,-82.32 140.54,-74.09 130.19,-76.36 133.86,-82.32"/>
</a>
</g>
</g>
<!-- Node3&#45;&gt;Node2 -->
<g id="edge3_Node000003_Node000002" class="edge">
<title>Node3&#45;&gt;Node2</title>
<g id="a_edge3_Node000003_Node000002"><a xlink:title=" ">
<path fill="none" stroke="#63b8ff" d="M59.5,-54.75C59.5,-47.8 59.5,-37.85 59.5,-29.13"/>
<polygon fill="#63b8ff" stroke="#63b8ff" points="63,-29.09 59.5,-19.09 56,-29.09 63,-29.09"/>
</a>
</g>
</g>
<!-- Node4&#45;&gt;Node2 -->
<g id="edge5_Node000004_Node000002" class="edge">
<title>Node4&#45;&gt;Node2</title>
<g id="a_edge5_Node000004_Node000002"><a xlink:title=" ">
<path fill="none" stroke="#63b8ff" d="M139.24,-54.98C124.37,-46.69 101.52,-33.94 84.08,-24.22"/>
<polygon fill="#63b8ff" stroke="#63b8ff" points="85.48,-20.99 75.04,-19.17 82.07,-27.1 85.48,-20.99"/>
</a>
</g>
</g>
</g>
</svg>
