<?xml version="1.0" encoding="UTF-8" standalone="no"?>
<!DOCTYPE svg PUBLIC "-//W3C//DTD SVG 1.1//EN"
 "http://www.w3.org/Graphics/SVG/1.1/DTD/svg11.dtd">
<!-- Generated by graphviz version 2.43.0 (0)
 -->
<!-- Title: projects/adrv9001/src/hal/adi_platform.h Pages: 1 -->
<svg width="501pt" height="104pt"
 viewBox="0.00 0.00 500.50 104.00" xmlns="http://www.w3.org/2000/svg" xmlns:xlink="http://www.w3.org/1999/xlink">
<g id="graph0" class="graph" transform="scale(1 1) rotate(0) translate(4 100)">
<title>projects/adrv9001/src/hal/adi_platform.h</title>
<!-- Node1 -->
<g id="Node000001" class="node">
<title>Node1</title>
<g id="a_Node000001"><a xlink:title="adrv9002 HAL functions interface.">
<polygon fill="#999999" stroke="#666666" points="285,-96 163,-96 163,-66 285,-66 285,-96"/>
<text text-anchor="start" x="171" y="-84" font-family="Helvetica,sans-Serif" font-size="10.00">projects/adrv9001/src</text>
<text text-anchor="middle" x="224" y="-73" font-family="Helvetica,sans-Serif" font-size="10.00">/hal/adi_platform.h</text>
</a>
</g>
</g>
<!-- Node2 -->
<g id="Node000002" class="node">
<title>Node2</title>
<g id="a_Node000002"><a xlink:href="adrv9001_2src_2hal_2no__os__platform_8c.html" target="_top" xlink:title="adrv9002 Hardware Abstraction Layer for no&#45;OS.">
<polygon fill="white" stroke="#666666" points="122,-30 0,-30 0,0 122,0 122,-30"/>
<text text-anchor="start" x="8" y="-18" font-family="Helvetica,sans-Serif" font-size="10.00">projects/adrv9001/src</text>
<text text-anchor="middle" x="61" y="-7" font-family="Helvetica,sans-Serif" font-size="10.00">/hal/no_os_platform.c</text>
</a>
</g>
</g>
<!-- Node1&#45;&gt;Node2 -->
<g id="edge1_Node000001_Node000002" class="edge">
<title>Node1&#45;&gt;Node2</title>
<g id="a_edge1_Node000001_Node000002"><a xlink:title=" ">
<path fill="none" stroke="#63b8ff" d="M178.64,-62.19C152.75,-52.02 120.77,-39.47 96.69,-30.01"/>
<polygon fill="#63b8ff" stroke="#63b8ff" points="177.64,-65.56 188.23,-65.95 180.2,-59.04 177.64,-65.56"/>
</a>
</g>
</g>
<!-- Node3 -->
<g id="Node000003" class="node">
<title>Node3</title>
<g id="a_Node000003"><a xlink:href="adrv902x_2src_2common_2hal_2no__os__platform_8c.html" target="_top" xlink:title=" ">
<polygon fill="white" stroke="#666666" points="307.5,-30 140.5,-30 140.5,0 307.5,0 307.5,-30"/>
<text text-anchor="start" x="148.5" y="-18" font-family="Helvetica,sans-Serif" font-size="10.00">projects/adrv902x/src</text>
<text text-anchor="middle" x="224" y="-7" font-family="Helvetica,sans-Serif" font-size="10.00">/common/hal/no_os_platform.c</text>
</a>
</g>
</g>
<!-- Node1&#45;&gt;Node3 -->
<g id="edge2_Node000001_Node000003" class="edge">
<title>Node1&#45;&gt;Node3</title>
<g id="a_edge2_Node000001_Node000003"><a xlink:title=" ">
<path fill="none" stroke="#63b8ff" d="M224,-55.54C224,-46.96 224,-37.61 224,-30.16"/>
<polygon fill="#63b8ff" stroke="#63b8ff" points="220.5,-55.8 224,-65.8 227.5,-55.8 220.5,-55.8"/>
</a>
</g>
</g>
<!-- Node4 -->
<g id="Node000004" class="node">
<title>Node4</title>
<g id="a_Node000004"><a xlink:href="adrv904x_2src_2common_2hal_2no__os__platform_8c.html" target="_top" xlink:title=" ">
<polygon fill="white" stroke="#666666" points="492.5,-30 325.5,-30 325.5,0 492.5,0 492.5,-30"/>
<text text-anchor="start" x="333.5" y="-18" font-family="Helvetica,sans-Serif" font-size="10.00">projects/adrv904x/src</text>
<text text-anchor="middle" x="409" y="-7" font-family="Helvetica,sans-Serif" font-size="10.00">/common/hal/no_os_platform.c</text>
</a>
</g>
</g>
<!-- Node1&#45;&gt;Node4 -->
<g id="edge3_Node000001_Node000004" class="edge">
<title>Node1&#45;&gt;Node4</title>
<g id="a_edge3_Node000001_Node000004"><a xlink:title=" ">
<path fill="none" stroke="#63b8ff" d="M274.33,-62.59C303.9,-52.36 340.8,-39.59 368.5,-30.01"/>
<polygon fill="#63b8ff" stroke="#63b8ff" points="272.91,-59.38 264.6,-65.95 275.19,-65.99 272.91,-59.38"/>
</a>
</g>
</g>
</g>
</svg>
