<?xml version="1.0" encoding="UTF-8" standalone="no"?>
<!DOCTYPE svg PUBLIC "-//W3C//DTD SVG 1.1//EN"
 "http://www.w3.org/Graphics/SVG/1.1/DTD/svg11.dtd">
<!-- Generated by graphviz version 2.43.0 (0)
 -->
<!-- Title: adin1320_hard_reset Pages: 1 -->
<svg width="614pt" height="103pt"
 viewBox="0.00 0.00 614.00 103.00" xmlns="http://www.w3.org/2000/svg" xmlns:xlink="http://www.w3.org/1999/xlink">
<g id="graph0" class="graph" transform="scale(1 1) rotate(0) translate(4 99)">
<title>adin1320_hard_reset</title>
<!-- Node1 -->
<g id="Node000001" class="node">
<title>Node1</title>
<g id="a_Node000001"><a xlink:title="Perform Device Hard Reset.">
<polygon fill="#999999" stroke="#666666" points="606,-57 487,-57 487,-38 606,-38 606,-57"/>
<text text-anchor="middle" x="546.5" y="-45" font-family="Helvetica,sans-Serif" font-size="10.00">adin1320_hard_reset</text>
</a>
</g>
</g>
<!-- Node2 -->
<g id="Node000002" class="node">
<title>Node2</title>
<g id="a_Node000002"><a xlink:href="adin1320_8c.html#a677ac4cd6d792110049e2adfe564e910" target="_top" xlink:title="Initialize the Device.">
<polygon fill="white" stroke="#666666" points="451,-95 368,-95 368,-76 451,-76 451,-95"/>
<text text-anchor="middle" x="409.5" y="-83" font-family="Helvetica,sans-Serif" font-size="10.00">adin1320_init</text>
</a>
</g>
</g>
<!-- Node1&#45;&gt;Node2 -->
<g id="edge1_Node000001_Node000002" class="edge">
<title>Node1&#45;&gt;Node2</title>
<g id="a_edge1_Node000001_Node000002"><a xlink:title=" ">
<path fill="none" stroke="#63b8ff" d="M501.74,-59.82C483.19,-65.04 461.9,-71.03 444.56,-75.91"/>
<polygon fill="#63b8ff" stroke="#63b8ff" points="502.76,-63.17 511.43,-57.09 500.86,-56.43 502.76,-63.17"/>
</a>
</g>
</g>
<!-- Node6 -->
<g id="Node000006" class="node">
<title>Node6</title>
<g id="a_Node000006"><a xlink:href="basic__init_8c.html#a423407bf3827741dfe2f6e0def8ba0c3" target="_top" xlink:title="Basic example main executiont.">
<polygon fill="white" stroke="#666666" points="332,-57 243,-57 243,-38 332,-38 332,-57"/>
<text text-anchor="middle" x="287.5" y="-45" font-family="Helvetica,sans-Serif" font-size="10.00">example_main</text>
</a>
</g>
</g>
<!-- Node1&#45;&gt;Node6 -->
<g id="edge9_Node000001_Node000006" class="edge">
<title>Node1&#45;&gt;Node6</title>
<g id="a_edge9_Node000001_Node000006"><a xlink:title=" ">
<path fill="none" stroke="#63b8ff" d="M476.67,-47.5C430.71,-47.5 371.65,-47.5 332.06,-47.5"/>
<polygon fill="#63b8ff" stroke="#63b8ff" points="476.86,-51 486.86,-47.5 476.86,-44 476.86,-51"/>
</a>
</g>
</g>
<!-- Node7 -->
<g id="Node000007" class="node">
<title>Node7</title>
<g id="a_Node000007"><a xlink:href="cmd__list_8c.html#a2276545c3be21b80b7fa89860dced383" target="_top" xlink:title=" ">
<polygon fill="white" stroke="#666666" points="443.5,-19 375.5,-19 375.5,0 443.5,0 443.5,-19"/>
<text text-anchor="middle" x="409.5" y="-7" font-family="Helvetica,sans-Serif" font-size="10.00">cmd_reset</text>
</a>
</g>
</g>
<!-- Node1&#45;&gt;Node7 -->
<g id="edge6_Node000001_Node000007" class="edge">
<title>Node1&#45;&gt;Node7</title>
<g id="a_edge6_Node000001_Node000007"><a xlink:title=" ">
<path fill="none" stroke="#63b8ff" d="M501.58,-35.14C482.74,-29.83 461.09,-23.74 443.62,-18.82"/>
<polygon fill="#63b8ff" stroke="#63b8ff" points="500.86,-38.57 511.43,-37.91 502.76,-31.83 500.86,-38.57"/>
</a>
</g>
</g>
<!-- Node3 -->
<g id="Node000003" class="node">
<title>Node3</title>
<g id="a_Node000003"><a xlink:href="cmd__mode_8c.html#ab812d44de8ad3f20a02f975f978a4cc2" target="_top" xlink:title=" ">
<polygon fill="white" stroke="#666666" points="322.5,-94 252.5,-94 252.5,-75 322.5,-75 322.5,-94"/>
<text text-anchor="middle" x="287.5" y="-82" font-family="Helvetica,sans-Serif" font-size="10.00">device_init</text>
</a>
</g>
</g>
<!-- Node2&#45;&gt;Node3 -->
<g id="edge2_Node000002_Node000003" class="edge">
<title>Node2&#45;&gt;Node3</title>
<g id="a_edge2_Node000002_Node000003"><a xlink:title=" ">
<path fill="none" stroke="#63b8ff" d="M357.67,-85.08C345.87,-84.98 333.58,-84.88 322.69,-84.78"/>
<polygon fill="#63b8ff" stroke="#63b8ff" points="357.84,-88.58 367.87,-85.16 357.9,-81.58 357.84,-88.58"/>
</a>
</g>
</g>
<!-- Node2&#45;&gt;Node6 -->
<g id="edge5_Node000002_Node000006" class="edge">
<title>Node2&#45;&gt;Node6</title>
<g id="a_edge5_Node000002_Node000006"><a xlink:title=" ">
<path fill="none" stroke="#63b8ff" d="M368.46,-72.82C352.24,-67.69 333.83,-61.86 318.77,-57.09"/>
<polygon fill="#63b8ff" stroke="#63b8ff" points="367.63,-76.23 378.22,-75.91 369.74,-69.56 367.63,-76.23"/>
</a>
</g>
</g>
<!-- Node4 -->
<g id="Node000004" class="node">
<title>Node4</title>
<g id="a_Node000004"><a xlink:href="cmd_8c.html#ac1fdbd851dca722a4c7ee9bbe2e55de1" target="_top" xlink:title=" ">
<polygon fill="white" stroke="#666666" points="207,-84 125,-84 125,-65 207,-65 207,-84"/>
<text text-anchor="middle" x="166" y="-72" font-family="Helvetica,sans-Serif" font-size="10.00">fw_mode_init</text>
</a>
</g>
</g>
<!-- Node3&#45;&gt;Node4 -->
<g id="edge3_Node000003_Node000004" class="edge">
<title>Node3&#45;&gt;Node4</title>
<g id="a_edge3_Node000003_Node000004"><a xlink:title=" ">
<path fill="none" stroke="#63b8ff" d="M242.03,-80.78C230.6,-79.82 218.36,-78.8 207.16,-77.86"/>
<polygon fill="#63b8ff" stroke="#63b8ff" points="242,-84.29 252.26,-81.63 242.58,-77.31 242,-84.29"/>
</a>
</g>
</g>
<!-- Node5 -->
<g id="Node000005" class="node">
<title>Node5</title>
<g id="a_Node000005"><a xlink:href="cmd_8c.html#a423407bf3827741dfe2f6e0def8ba0c3" target="_top" xlink:title="Basic example main executiont.">
<polygon fill="white" stroke="#666666" points="89,-56 0,-56 0,-37 89,-37 89,-56"/>
<text text-anchor="middle" x="44.5" y="-44" font-family="Helvetica,sans-Serif" font-size="10.00">example_main</text>
</a>
</g>
</g>
<!-- Node4&#45;&gt;Node5 -->
<g id="edge4_Node000004_Node000005" class="edge">
<title>Node4&#45;&gt;Node5</title>
<g id="a_edge4_Node000004_Node000005"><a xlink:title=" ">
<path fill="none" stroke="#63b8ff" d="M115.01,-62.79C105.39,-60.53 95.41,-58.2 86.13,-56.02"/>
<polygon fill="#63b8ff" stroke="#63b8ff" points="114.34,-66.22 124.88,-65.1 115.94,-59.41 114.34,-66.22"/>
</a>
</g>
</g>
<!-- Node8 -->
<g id="Node000008" class="node">
<title>Node8</title>
<g id="a_Node000008"><a xlink:href="cmd_8c.html#a6cf169a34e4a3811a07093de72919f4b" target="_top" xlink:title=" ">
<polygon fill="white" stroke="#666666" points="206,-38 126,-38 126,-19 206,-19 206,-38"/>
<text text-anchor="middle" x="166" y="-26" font-family="Helvetica,sans-Serif" font-size="10.00">process_cmd</text>
</a>
</g>
</g>
<!-- Node7&#45;&gt;Node8 -->
<g id="edge7_Node000007_Node000008" class="edge">
<title>Node7&#45;&gt;Node8</title>
<g id="a_edge7_Node000007_Node000008"><a xlink:title=" ">
<path fill="none" stroke="#63b8ff" d="M365.34,-12.9C320.11,-16.45 249.69,-21.99 206.06,-25.43"/>
<polygon fill="#63b8ff" stroke="#63b8ff" points="365.73,-16.38 375.43,-12.1 365.18,-9.4 365.73,-16.38"/>
</a>
</g>
</g>
<!-- Node8&#45;&gt;Node5 -->
<g id="edge8_Node000008_Node000005" class="edge">
<title>Node8&#45;&gt;Node5</title>
<g id="a_edge8_Node000008_Node000005"><a xlink:title=" ">
<path fill="none" stroke="#63b8ff" d="M115.75,-35.92C106.97,-37.24 97.88,-38.61 89.27,-39.91"/>
<polygon fill="#63b8ff" stroke="#63b8ff" points="116.5,-39.34 125.87,-34.39 115.46,-32.42 116.5,-39.34"/>
</a>
</g>
</g>
</g>
</svg>
