<?xml version="1.0" encoding="UTF-8" standalone="no"?>
<!DOCTYPE svg PUBLIC "-//W3C//DTD SVG 1.1//EN"
 "http://www.w3.org/Graphics/SVG/1.1/DTD/svg11.dtd">
<!-- Generated by graphviz version 2.43.0 (0)
 -->
<!-- Title: adin1320_cu_autoneg Pages: 1 -->
<svg width="310pt" height="64pt"
 viewBox="0.00 0.00 310.00 64.00" xmlns="http://www.w3.org/2000/svg" xmlns:xlink="http://www.w3.org/1999/xlink">
<g id="graph0" class="graph" transform="scale(1 1) rotate(0) translate(4 60)">
<title>adin1320_cu_autoneg</title>
<!-- Node1 -->
<g id="Node000001" class="node">
<title>Node1</title>
<g id="a_Node000001"><a xlink:title="Enable/disable and Reset Autonegotiation for Copper Media.">
<polygon fill="#999999" stroke="#666666" points="302,-37 179,-37 179,-18 302,-18 302,-37"/>
<text text-anchor="middle" x="240.5" y="-25" font-family="Helvetica,sans-Serif" font-size="10.00">adin1320_cu_autoneg</text>
</a>
</g>
</g>
<!-- Node2 -->
<g id="Node000002" class="node">
<title>Node2</title>
<g id="a_Node000002"><a xlink:href="adin1320_8c.html#a48766364551163586fefde385a1021c8" target="_top" xlink:title="Configure Downspeed.">
<polygon fill="white" stroke="#666666" points="143,-56 0,-56 0,-37 143,-37 143,-56"/>
<text text-anchor="middle" x="71.5" y="-44" font-family="Helvetica,sans-Serif" font-size="10.00">adin1320_downspeed_cfg</text>
</a>
</g>
</g>
<!-- Node1&#45;&gt;Node2 -->
<g id="edge1_Node000001_Node000002" class="edge">
<title>Node1&#45;&gt;Node2</title>
<g id="a_edge1_Node000001_Node000002"><a xlink:title=" ">
<path fill="none" stroke="#63b8ff" d="M168.57,-35.57C160.15,-36.53 151.56,-37.51 143.14,-38.46"/>
<polygon fill="#63b8ff" stroke="#63b8ff" points="169.2,-39.02 178.74,-34.41 168.41,-32.07 169.2,-39.02"/>
</a>
</g>
</g>
<!-- Node3 -->
<g id="Node000003" class="node">
<title>Node3</title>
<g id="a_Node000003"><a xlink:href="basic__init_8c.html#a423407bf3827741dfe2f6e0def8ba0c3" target="_top" xlink:title="Basic example main executiont.">
<polygon fill="white" stroke="#666666" points="116,-19 27,-19 27,0 116,0 116,-19"/>
<text text-anchor="middle" x="71.5" y="-7" font-family="Helvetica,sans-Serif" font-size="10.00">example_main</text>
</a>
</g>
</g>
<!-- Node1&#45;&gt;Node3 -->
<g id="edge2_Node000001_Node000003" class="edge">
<title>Node1&#45;&gt;Node3</title>
<g id="a_edge2_Node000001_Node000003"><a xlink:title=" ">
<path fill="none" stroke="#63b8ff" d="M168.41,-19.84C150.67,-17.93 132.18,-15.93 116.21,-14.21"/>
<polygon fill="#63b8ff" stroke="#63b8ff" points="168.42,-23.36 178.74,-20.95 169.17,-16.4 168.42,-23.36"/>
</a>
</g>
</g>
</g>
</svg>
