<?xml version="1.0" encoding="UTF-8" standalone="no"?>
<!DOCTYPE svg PUBLIC "-//W3C//DTD SVG 1.1//EN"
 "http://www.w3.org/Graphics/SVG/1.1/DTD/svg11.dtd">
<!-- Generated by graphviz version 2.43.0 (0)
 -->
<!-- Title: adis_validate_checksum Pages: 1 -->
<svg width="332pt" height="64pt"
 viewBox="0.00 0.00 332.00 64.00" xmlns="http://www.w3.org/2000/svg" xmlns:xlink="http://www.w3.org/1999/xlink">
<g id="graph0" class="graph" transform="scale(1 1) rotate(0) translate(4 60)">
<title>adis_validate_checksum</title>
<!-- Node1 -->
<g id="Node000001" class="node">
<title>Node1</title>
<g id="a_Node000001"><a xlink:title="Check if the checksum for burst data is correct.">
<polygon fill="#999999" stroke="#666666" points="324,-37 187,-37 187,-18 324,-18 324,-37"/>
<text text-anchor="middle" x="255.5" y="-25" font-family="Helvetica,sans-Serif" font-size="10.00">adis_validate_checksum</text>
</a>
</g>
</g>
<!-- Node2 -->
<g id="Node000002" class="node">
<title>Node2</title>
<g id="a_Node000002"><a xlink:href="adis1657x_8c.html#ac442d3460a938b11ed36834c5c1bbd59" target="_top" xlink:title="Read burst data.">
<polygon fill="white" stroke="#666666" points="151,-56 0,-56 0,-37 151,-37 151,-56"/>
<text text-anchor="middle" x="75.5" y="-44" font-family="Helvetica,sans-Serif" font-size="10.00">adis1657x_read_burst_data</text>
</a>
</g>
</g>
<!-- Node1&#45;&gt;Node2 -->
<g id="edge1_Node000001_Node000002" class="edge">
<title>Node1&#45;&gt;Node2</title>
<g id="a_edge1_Node000001_Node000002"><a xlink:title=" ">
<path fill="none" stroke="#63b8ff" d="M176.97,-35.78C168.4,-36.69 159.68,-37.62 151.14,-38.53"/>
<polygon fill="#63b8ff" stroke="#63b8ff" points="177.38,-39.25 186.95,-34.71 176.64,-32.29 177.38,-39.25"/>
</a>
</g>
</g>
<!-- Node3 -->
<g id="Node000003" class="node">
<title>Node3</title>
<g id="a_Node000003"><a xlink:href="adis_8c.html#add978372da385dea5434585683a94449" target="_top" xlink:title="Read burst data.">
<polygon fill="white" stroke="#666666" points="136,-19 15,-19 15,0 136,0 136,-19"/>
<text text-anchor="middle" x="75.5" y="-7" font-family="Helvetica,sans-Serif" font-size="10.00">adis_read_burst_data</text>
</a>
</g>
</g>
<!-- Node1&#45;&gt;Node3 -->
<g id="edge2_Node000001_Node000003" class="edge">
<title>Node1&#45;&gt;Node3</title>
<g id="a_edge2_Node000001_Node000003"><a xlink:title=" ">
<path fill="none" stroke="#63b8ff" d="M176.65,-19.63C163.07,-18.25 149.13,-16.84 136.13,-15.53"/>
<polygon fill="#63b8ff" stroke="#63b8ff" points="176.65,-23.15 186.95,-20.67 177.35,-16.18 176.65,-23.15"/>
</a>
</g>
</g>
</g>
</svg>
