<?xml version="1.0" encoding="UTF-8" standalone="no"?>
<!DOCTYPE svg PUBLIC "-//W3C//DTD SVG 1.1//EN"
 "http://www.w3.org/Graphics/SVG/1.1/DTD/svg11.dtd">
<!-- Generated by graphviz version 2.43.0 (0)
 -->
<!-- Title: admt4000_reg_update Pages: 1 -->
<svg width="509pt" height="433pt"
 viewBox="0.00 0.00 509.00 432.50" xmlns="http://www.w3.org/2000/svg" xmlns:xlink="http://www.w3.org/1999/xlink">
<g id="graph0" class="graph" transform="scale(1 1) rotate(0) translate(4 428.5)">
<title>admt4000_reg_update</title>
<!-- Node1 -->
<g id="Node000001" class="node">
<title>Node1</title>
<g id="a_Node000001"><a xlink:title="Updates the contents of selected register.">
<polygon fill="#999999" stroke="#666666" points="501,-227 375,-227 375,-208 501,-208 501,-227"/>
<text text-anchor="middle" x="438" y="-215" font-family="Helvetica,sans-Serif" font-size="10.00">admt4000_reg_update</text>
</a>
</g>
</g>
<!-- Node2 -->
<g id="Node000002" class="node">
<title>Node2</title>
<g id="a_Node000002"><a xlink:href="admt4000_8c.html#acd442c12d45695e4eb17fc4723e10144" target="_top" xlink:title="Clear all faults from fault registers.">
<polygon fill="white" stroke="#666666" points="307.5,-424.5 194.5,-424.5 194.5,-394.5 307.5,-394.5 307.5,-424.5"/>
<text text-anchor="start" x="202.5" y="-412.5" font-family="Helvetica,sans-Serif" font-size="10.00">admt4000_clear_all</text>
<text text-anchor="middle" x="251" y="-401.5" font-family="Helvetica,sans-Serif" font-size="10.00">_faults</text>
</a>
</g>
</g>
<!-- Node1&#45;&gt;Node2 -->
<g id="edge1_Node000001_Node000002" class="edge">
<title>Node1&#45;&gt;Node2</title>
<g id="a_edge1_Node000001_Node000002"><a xlink:title=" ">
<path fill="none" stroke="#63b8ff" d="M430.48,-236.87C418.06,-270.86 387.82,-341.37 339,-380.5 329.93,-387.77 318.96,-393.25 307.91,-397.37"/>
<polygon fill="#63b8ff" stroke="#63b8ff" points="433.86,-237.79 433.89,-227.2 427.26,-235.47 433.86,-237.79"/>
</a>
</g>
</g>
<!-- Node3 -->
<g id="Node000003" class="node">
<title>Node3</title>
<g id="a_Node000003"><a xlink:href="admt4000_8c.html#ab3140b39c732ec6ef05671f357bf78d2" target="_top" xlink:title="Configure GPIO mode, direction, and initial state.">
<polygon fill="white" stroke="#666666" points="127,-301 0,-301 0,-282 127,-282 127,-301"/>
<text text-anchor="middle" x="63.5" y="-289" font-family="Helvetica,sans-Serif" font-size="10.00">admt4000_gpio_config</text>
</a>
</g>
</g>
<!-- Node1&#45;&gt;Node3 -->
<g id="edge2_Node000001_Node000003" class="edge">
<title>Node1&#45;&gt;Node3</title>
<g id="a_edge2_Node000001_Node000003"><a xlink:title=" ">
<path fill="none" stroke="#63b8ff" d="M429.4,-236.49C416.19,-266.57 385.84,-324.15 339,-347.5 268.99,-382.4 238.62,-367.49 163,-347.5 128.96,-338.5 94.36,-314.71 76.63,-301.21"/>
<polygon fill="#63b8ff" stroke="#63b8ff" points="432.7,-237.67 433.36,-227.1 426.25,-234.95 432.7,-237.67"/>
</a>
</g>
</g>
<!-- Node4 -->
<g id="Node000004" class="node">
<title>Node4</title>
<g id="a_Node000004"><a xlink:href="admt4000_8c.html#a3acbfd1a7d046882423d022b8e5b4ccc" target="_top" xlink:title="Sets the filter setting.">
<polygon fill="white" stroke="#666666" points="319.5,-338 182.5,-338 182.5,-319 319.5,-319 319.5,-338"/>
<text text-anchor="middle" x="251" y="-326" font-family="Helvetica,sans-Serif" font-size="10.00">admt4000_set_angle_filt</text>
</a>
</g>
</g>
<!-- Node1&#45;&gt;Node4 -->
<g id="edge3_Node000001_Node000004" class="edge">
<title>Node1&#45;&gt;Node4</title>
<g id="a_edge3_Node000001_Node000004"><a xlink:title=" ">
<path fill="none" stroke="#63b8ff" d="M423.64,-235.16C406.47,-256.51 374.63,-291.88 339,-310.5 332.44,-313.93 325.28,-316.71 317.98,-318.95"/>
<polygon fill="#63b8ff" stroke="#63b8ff" points="426.45,-237.25 429.86,-227.22 420.94,-232.93 426.45,-237.25"/>
</a>
</g>
</g>
<!-- Node5 -->
<g id="Node000005" class="node">
<title>Node5</title>
<g id="a_Node000005"><a xlink:href="admt4000_8c.html#a1232278fe4dee97c05da584de184a664" target="_top" xlink:title="Configures the conversion mode: one shot or continuous.">
<polygon fill="white" stroke="#666666" points="325,-301 177,-301 177,-282 325,-282 325,-301"/>
<text text-anchor="middle" x="251" y="-289" font-family="Helvetica,sans-Serif" font-size="10.00">admt4000_set_conv_mode</text>
</a>
</g>
</g>
<!-- Node1&#45;&gt;Node5 -->
<g id="edge4_Node000001_Node000005" class="edge">
<title>Node1&#45;&gt;Node5</title>
<g id="a_edge4_Node000001_Node000005"><a xlink:title=" ">
<path fill="none" stroke="#63b8ff" d="M415.06,-232.73C395.83,-245.41 366.69,-263.03 339,-273.5 330.06,-276.88 320.34,-279.68 310.75,-281.98"/>
<polygon fill="#63b8ff" stroke="#63b8ff" points="417.06,-235.61 423.41,-227.13 413.16,-229.8 417.06,-235.61"/>
</a>
</g>
</g>
<!-- Node6 -->
<g id="Node000006" class="node">
<title>Node6</title>
<g id="a_Node000006"><a xlink:href="admt4000_8c.html#a836078e407ffcefc20c04f9c5f80cb36" target="_top" xlink:title="Configures conversion synchronization mode.">
<polygon fill="white" stroke="#666666" points="339,-264 163,-264 163,-245 339,-245 339,-264"/>
<text text-anchor="middle" x="251" y="-252" font-family="Helvetica,sans-Serif" font-size="10.00">admt4000_set_conv_sync_mode</text>
</a>
</g>
</g>
<!-- Node1&#45;&gt;Node6 -->
<g id="edge5_Node000001_Node000006" class="edge">
<title>Node1&#45;&gt;Node6</title>
<g id="a_edge5_Node000001_Node000006"><a xlink:title=" ">
<path fill="none" stroke="#63b8ff" d="M379.42,-229.02C353.85,-234.13 324.12,-240.08 299.8,-244.94"/>
<polygon fill="#63b8ff" stroke="#63b8ff" points="380.24,-232.42 389.36,-227.03 378.87,-225.56 380.24,-232.42"/>
</a>
</g>
</g>
<!-- Node7 -->
<g id="Node000007" class="node">
<title>Node7</title>
<g id="a_Node000007"><a xlink:href="admt4000_8c.html#a5fd4525326ff988387ea7534054f9dab" target="_top" xlink:title="Configure selected GPIO.">
<polygon fill="white" stroke="#666666" points="307.5,-227 194.5,-227 194.5,-208 307.5,-208 307.5,-227"/>
<text text-anchor="middle" x="251" y="-215" font-family="Helvetica,sans-Serif" font-size="10.00">admt4000_set_gpio</text>
</a>
</g>
</g>
<!-- Node1&#45;&gt;Node7 -->
<g id="edge6_Node000001_Node000007" class="edge">
<title>Node1&#45;&gt;Node7</title>
<g id="a_edge6_Node000001_Node000007"><a xlink:title=" ">
<path fill="none" stroke="#63b8ff" d="M364.8,-217.5C345.84,-217.5 325.68,-217.5 307.73,-217.5"/>
<polygon fill="#63b8ff" stroke="#63b8ff" points="364.88,-221 374.88,-217.5 364.88,-214 364.88,-221"/>
</a>
</g>
</g>
<!-- Node8 -->
<g id="Node000008" class="node">
<title>Node8</title>
<g id="a_Node000008"><a xlink:href="admt4000_8c.html#a6858c1bb4c5e13998a5a9231a30194f5" target="_top" xlink:title="Sets 8th harmonic correction source.">
<polygon fill="white" stroke="#666666" points="313.5,-190 188.5,-190 188.5,-171 313.5,-171 313.5,-190"/>
<text text-anchor="middle" x="251" y="-178" font-family="Helvetica,sans-Serif" font-size="10.00">admt4000_set_h8_ctrl</text>
</a>
</g>
</g>
<!-- Node1&#45;&gt;Node8 -->
<g id="edge8_Node000001_Node000008" class="edge">
<title>Node1&#45;&gt;Node8</title>
<g id="a_edge8_Node000001_Node000008"><a xlink:title=" ">
<path fill="none" stroke="#63b8ff" d="M379.42,-205.98C353.85,-200.87 324.12,-194.92 299.8,-190.06"/>
<polygon fill="#63b8ff" stroke="#63b8ff" points="378.87,-209.44 389.36,-207.97 380.24,-202.58 378.87,-209.44"/>
</a>
</g>
</g>
<!-- Node9 -->
<g id="Node000009" class="node">
<title>Node9</title>
<g id="a_Node000009"><a xlink:href="admt4000_8c.html#af94e3406dde7c4a72eda6fd24a007bd3" target="_top" xlink:title="Set harmonic configuration (magnitude and phase together).">
<polygon fill="white" stroke="#666666" points="319.5,-153 182.5,-153 182.5,-134 319.5,-134 319.5,-153"/>
<text text-anchor="middle" x="251" y="-141" font-family="Helvetica,sans-Serif" font-size="10.00">admt4000_set_harmonic</text>
</a>
</g>
</g>
<!-- Node1&#45;&gt;Node9 -->
<g id="edge9_Node000001_Node000009" class="edge">
<title>Node1&#45;&gt;Node9</title>
<g id="a_edge9_Node000001_Node000009"><a xlink:title=" ">
<path fill="none" stroke="#63b8ff" d="M414.66,-202.42C395.38,-190.04 366.39,-172.91 339,-162.5 329.03,-158.71 318.11,-155.58 307.48,-153.04"/>
<polygon fill="#63b8ff" stroke="#63b8ff" points="412.76,-205.36 423.04,-207.9 416.59,-199.5 412.76,-205.36"/>
</a>
</g>
</g>
<!-- Node10 -->
<g id="Node000010" class="node">
<title>Node10</title>
<g id="a_Node000010"><a xlink:href="admt4000_8c.html#a0ae706912c0c20383226b805eb44a3d8" target="_top" xlink:title="Set all harmonic configurations in a single operation.">
<polygon fill="white" stroke="#666666" points="322.5,-115.5 179.5,-115.5 179.5,-85.5 322.5,-85.5 322.5,-115.5"/>
<text text-anchor="start" x="187.5" y="-103.5" font-family="Helvetica,sans-Serif" font-size="10.00">admt4000_set_harmonics</text>
<text text-anchor="middle" x="251" y="-92.5" font-family="Helvetica,sans-Serif" font-size="10.00">_calib</text>
</a>
</g>
</g>
<!-- Node1&#45;&gt;Node10 -->
<g id="edge10_Node000001_Node000010" class="edge">
<title>Node1&#45;&gt;Node10</title>
<g id="a_edge10_Node000001_Node000010"><a xlink:title=" ">
<path fill="none" stroke="#63b8ff" d="M423.09,-200.15C405.58,-179.44 373.59,-145.16 339,-125.5 332.31,-121.69 324.99,-118.43 317.53,-115.64"/>
<polygon fill="#63b8ff" stroke="#63b8ff" points="420.39,-202.39 429.47,-207.86 425.79,-197.93 420.39,-202.39"/>
</a>
</g>
</g>
<!-- Node11 -->
<g id="Node000011" class="node">
<title>Node11</title>
<g id="a_Node000011"><a xlink:href="admt4000_8c.html#ac9b7e9e62d361e74e333ed529df3ad41" target="_top" xlink:title="Sets storage general config.">
<polygon fill="white" stroke="#666666" points="315,-67.5 187,-67.5 187,-37.5 315,-37.5 315,-67.5"/>
<text text-anchor="start" x="195" y="-55.5" font-family="Helvetica,sans-Serif" font-size="10.00">admt4000_set_storage</text>
<text text-anchor="middle" x="251" y="-44.5" font-family="Helvetica,sans-Serif" font-size="10.00">_config</text>
</a>
</g>
</g>
<!-- Node1&#45;&gt;Node11 -->
<g id="edge11_Node000001_Node000011" class="edge">
<title>Node1&#45;&gt;Node11</title>
<g id="a_edge11_Node000001_Node000011"><a xlink:title=" ">
<path fill="none" stroke="#63b8ff" d="M428.99,-198.42C415.2,-167.92 384.05,-108.41 339,-76.5 331.84,-71.43 323.65,-67.43 315.22,-64.27"/>
<polygon fill="#63b8ff" stroke="#63b8ff" points="425.92,-200.14 433.14,-207.9 432.34,-197.34 425.92,-200.14"/>
</a>
</g>
</g>
<!-- Node12 -->
<g id="Node000012" class="node">
<title>Node12</title>
<g id="a_Node000012"><a xlink:href="admt4000_8c.html#ac7b81b5aea98f68abc5da7ed4e178606" target="_top" xlink:title="Toggle the CNV to stop/start conversion.">
<polygon fill="white" stroke="#666666" points="313.5,-19 188.5,-19 188.5,0 313.5,0 313.5,-19"/>
<text text-anchor="middle" x="251" y="-7" font-family="Helvetica,sans-Serif" font-size="10.00">admt4000_toggle_cnv</text>
</a>
</g>
</g>
<!-- Node1&#45;&gt;Node12 -->
<g id="edge12_Node000001_Node000012" class="edge">
<title>Node1&#45;&gt;Node12</title>
<g id="a_edge12_Node000001_Node000012"><a xlink:title=" ">
<path fill="none" stroke="#63b8ff" d="M432.67,-197.75C423.06,-158.85 396.15,-72.28 339,-28.5 331.51,-22.76 322.66,-18.68 313.5,-15.79"/>
<polygon fill="#63b8ff" stroke="#63b8ff" points="429.33,-198.85 435.02,-207.79 436.15,-197.26 429.33,-198.85"/>
</a>
</g>
</g>
<!-- Node7&#45;&gt;Node3 -->
<g id="edge7_Node000007_Node000003" class="edge">
<title>Node7&#45;&gt;Node3</title>
<g id="a_edge7_Node000007_Node000003"><a xlink:title=" ">
<path fill="none" stroke="#63b8ff" d="M184.76,-229.54C177.33,-231.56 169.94,-233.87 163,-236.5 131.13,-248.57 97.08,-269.64 78.53,-281.9"/>
<polygon fill="#63b8ff" stroke="#63b8ff" points="185.7,-232.92 194.52,-227.05 183.97,-226.13 185.7,-232.92"/>
</a>
</g>
</g>
</g>
</svg>
