<?xml version="1.0" encoding="UTF-8" standalone="no"?>
<!DOCTYPE svg PUBLIC "-//W3C//DTD SVG 1.1//EN"
 "http://www.w3.org/Graphics/SVG/1.1/DTD/svg11.dtd">
<!-- Generated by graphviz version 2.43.0 (0)
 -->
<!-- Title: admt4000_reg_read Pages: 1 -->
<!--zoomable 872 -->

<svg id="main" version="1.1" xmlns="http://www.w3.org/2000/svg" xmlns:xlink="http://www.w3.org/1999/xlink" xml:space="preserve" onload="init(evt)">

<style type="text/css"><![CDATA[
.node, .edge {opacity: 0.7;}
.node.selected, .edge.selected {opacity: 1;}
.edge:hover path { stroke: red; }
.edge:hover polygon { stroke: red; fill: red; }
]]></style>

<defs>
  <circle id="rim" cx="0" cy="0" r="7"/>
  <circle id="rim2" cx="0" cy="0" r="3.5"/>
  <g id="zoomPlus">
    <use xlink:href="#rim" fill="#404040"><set attributeName="fill" to="#808080" begin="zoomplus.mouseover" end="zoomplus.mouseout"/></use>
    <path d="M-4,0h8M0,-4v8" fill="none" stroke="white" stroke-width="1.5" pointer-events="none"/>
  </g>
  <g id="zoomMin">
    <use xlink:href="#rim" fill="#404040"><set attributeName="fill" to="#808080" begin="zoomminus.mouseover" end="zoomminus.mouseout"/></use>
    <path d="M-4,0h8" fill="none" stroke="white" stroke-width="1.5" pointer-events="none"/>
  </g>
  <g id="arrowUp" transform="translate(30 24)">
    <use xlink:href="#rim"/>
    <path pointer-events="none" fill="none" stroke="white" stroke-width="1.5" d="M0,-3.0v7 M-2.5,-0.5L0,-3.0L2.5,-0.5"/>
  </g>
  <g id="arrowRight" transform="rotate(90) translate(36 -43)">
    <use xlink:href="#rim"/>
    <path pointer-events="none" fill="none" stroke="white" stroke-width="1.5" d="M0,-3.0v7 M-2.5,-0.5L0,-3.0L2.5,-0.5"/>
  </g>
  <g id="arrowDown" transform="rotate(180) translate(-30 -48)">
    <use xlink:href="#rim"/>
    <path pointer-events="none" fill="none" stroke="white" stroke-width="1.5" d="M0,-3.0v7 M-2.5,-0.5L0,-3.0L2.5,-0.5"/>
  </g>
  <g id="arrowLeft" transform="rotate(270) translate(-36 17)">
    <use xlink:href="#rim"/>
    <path pointer-events="none" fill="none" stroke="white" stroke-width="1.5" d="M0,-3.0v7 M-2.5,-0.5L0,-3.0L2.5,-0.5"/>
  </g>
  <g id="resetDef">
    <use xlink:href="#rim2" fill="#404040"><set attributeName="fill" to="#808080" begin="reset.mouseover" end="reset.mouseout"/></use>
  </g>
</defs>
<script type="application/ecmascript">
var viewWidth = 709;
var viewHeight = 872;
var sectionId = 'dynsection-15';
</script>
<script type="application/ecmascript" xlink:href="svg.min.js"/>
<svg id="graph" class="graph">
<g id="viewport">
<title>admt4000_reg_read</title>
<!-- Node1 -->
<g id="Node000001" class="node">
<title>Node1</title>
<g id="a_Node000001"><a xlink:title="Reads data from a certain ADMT400x Register.">
<polygon fill="#999999" stroke="#666666" points="701,-604.5 587,-604.5 587,-585.5 701,-585.5 701,-604.5"/>
<text text-anchor="middle" x="644" y="-592.5" font-family="Helvetica,sans-Serif" font-size="10.00">admt4000_reg_read</text>
</a>
</g>
</g>
<!-- Node2 -->
<g id="Node000002" class="node">
<title>Node2</title>
<g id="a_Node000002"><a xlink:href="admt4000_8c.html#a244bed95cdf3927d9c7825c8ceb4b578" target="_top" xlink:title="Gets current filter setting.">
<polygon fill="white" stroke="#666666" points="531.5,-863.5 394.5,-863.5 394.5,-844.5 531.5,-844.5 531.5,-863.5"/>
<text text-anchor="middle" x="463" y="-851.5" font-family="Helvetica,sans-Serif" font-size="10.00">admt4000_get_angle_filt</text>
</a>
</g>
</g>
<!-- Node1&#45;&gt;Node2 -->
<g id="edge1_Node000001_Node000002" class="edge">
<title>Node1&#45;&gt;Node2</title>
<g id="a_edge1_Node000001_Node000002"><a xlink:title=" ">
<path fill="none" stroke="#63b8ff" d="M641.64,-614.9C637.33,-661.34 619.86,-777.4 551,-836 545.36,-840.8 538.78,-844.43 531.8,-847.16"/>
<polygon fill="#63b8ff" stroke="#63b8ff" points="645.15,-614.92 642.47,-604.66 638.17,-614.35 645.15,-614.92"/>
</a>
</g>
</g>
<!-- Node3 -->
<g id="Node000003" class="node">
<title>Node3</title>
<g id="a_Node000003"><a xlink:href="admt4000_8c.html#a73234f385bf210745f4db407527ce0f4" target="_top" xlink:title="Get current conversion count.">
<polygon fill="white" stroke="#666666" points="528,-826.5 398,-826.5 398,-807.5 528,-807.5 528,-826.5"/>
<text text-anchor="middle" x="463" y="-814.5" font-family="Helvetica,sans-Serif" font-size="10.00">admt4000_get_cnv_cnt</text>
</a>
</g>
</g>
<!-- Node1&#45;&gt;Node3 -->
<g id="edge2_Node000001_Node000003" class="edge">
<title>Node1&#45;&gt;Node3</title>
<g id="a_edge2_Node000001_Node000003"><a xlink:title=" ">
<path fill="none" stroke="#63b8ff" d="M640.16,-614.61C633.11,-655.71 610.86,-751.03 551,-799 544.38,-804.3 536.59,-808.16 528.44,-810.95"/>
<polygon fill="#63b8ff" stroke="#63b8ff" points="643.64,-614.97 641.76,-604.54 636.73,-613.87 643.64,-614.97"/>
</a>
</g>
</g>
<!-- Node4 -->
<g id="Node000004" class="node">
<title>Node4</title>
<g id="a_Node000004"><a xlink:href="admt4000_8c.html#ada1a86fdceed1e9cec6af167eba4564a" target="_top" xlink:title="Obtains the conversion mode.">
<polygon fill="white" stroke="#666666" points="537.5,-789.5 388.5,-789.5 388.5,-770.5 537.5,-770.5 537.5,-789.5"/>
<text text-anchor="middle" x="463" y="-777.5" font-family="Helvetica,sans-Serif" font-size="10.00">admt4000_get_conv_mode</text>
</a>
</g>
</g>
<!-- Node1&#45;&gt;Node4 -->
<g id="edge3_Node000001_Node000004" class="edge">
<title>Node1&#45;&gt;Node4</title>
<g id="a_edge3_Node000001_Node000004"><a xlink:title=" ">
<path fill="none" stroke="#63b8ff" d="M637.96,-614.91C627.88,-650.45 601.71,-724.58 551,-762 546.41,-765.39 541.33,-768.17 535.99,-770.46"/>
<polygon fill="#63b8ff" stroke="#63b8ff" points="641.46,-615.39 640.68,-604.82 634.7,-613.57 641.46,-615.39"/>
</a>
</g>
</g>
<!-- Node5 -->
<g id="Node000005" class="node">
<title>Node5</title>
<g id="a_Node000005"><a xlink:href="admt4000_8c.html#a0ccacd2f14ab17d8dfcdd133f72f7b02" target="_top" xlink:title="Obtains conversion synchronization mode.">
<polygon fill="white" stroke="#666666" points="551,-752.5 375,-752.5 375,-733.5 551,-733.5 551,-752.5"/>
<text text-anchor="middle" x="463" y="-740.5" font-family="Helvetica,sans-Serif" font-size="10.00">admt4000_get_conv_sync_mode</text>
</a>
</g>
</g>
<!-- Node1&#45;&gt;Node5 -->
<g id="edge4_Node000001_Node000005" class="edge">
<title>Node1&#45;&gt;Node5</title>
<g id="a_edge4_Node000001_Node000005"><a xlink:title=" ">
<path fill="none" stroke="#63b8ff" d="M635.06,-614.12C622.03,-643.02 593.24,-697.36 551,-725 545.84,-728.38 540.16,-731.14 534.27,-733.4"/>
<polygon fill="#63b8ff" stroke="#63b8ff" points="638.37,-615.29 639.15,-604.73 631.95,-612.5 638.37,-615.29"/>
</a>
</g>
</g>
<!-- Node6 -->
<g id="Node000006" class="node">
<title>Node6</title>
<g id="a_Node000006"><a xlink:href="admt4000_8c.html#a87879ea43bf19cbaebf9e1f263cde8ce" target="_top" xlink:title="Get the cosine value from the ADMT4000 device. This function reads the cosine portion of the AMR angl...">
<polygon fill="white" stroke="#666666" points="517.5,-567.5 408.5,-567.5 408.5,-548.5 517.5,-548.5 517.5,-567.5"/>
<text text-anchor="middle" x="463" y="-555.5" font-family="Helvetica,sans-Serif" font-size="10.00">admt4000_get_cos</text>
</a>
</g>
</g>
<!-- Node1&#45;&gt;Node6 -->
<g id="edge5_Node000001_Node000006" class="edge">
<title>Node1&#45;&gt;Node6</title>
<g id="a_edge5_Node000001_Node000006"><a xlink:title=" ">
<path fill="none" stroke="#63b8ff" d="M586.96,-583.42C562.3,-578.32 533.67,-572.4 510.25,-567.56"/>
<polygon fill="#63b8ff" stroke="#63b8ff" points="586.4,-586.87 596.9,-585.47 587.82,-580.02 586.4,-586.87"/>
</a>
</g>
</g>
<!-- Node8 -->
<g id="Node000008" class="node">
<title>Node8</title>
<g id="a_Node000008"><a xlink:href="admt4000_8c.html#a501786d3adda04a0928fdcd4c1ef4b7f" target="_top" xlink:title="Get all fault flags from the fault register.">
<polygon fill="white" stroke="#666666" points="523,-493.5 403,-493.5 403,-474.5 523,-474.5 523,-493.5"/>
<text text-anchor="middle" x="463" y="-481.5" font-family="Helvetica,sans-Serif" font-size="10.00">admt4000_get_faults</text>
</a>
</g>
</g>
<!-- Node1&#45;&gt;Node8 -->
<g id="edge7_Node000001_Node000008" class="edge">
<title>Node1&#45;&gt;Node8</title>
<g id="a_edge7_Node000001_Node000008"><a xlink:title=" ">
<path fill="none" stroke="#63b8ff" d="M630.41,-577.3C614.43,-556.2 584.82,-521.48 551,-503 542.45,-498.33 532.84,-494.81 523.21,-492.15"/>
<polygon fill="#63b8ff" stroke="#63b8ff" points="627.65,-579.45 636.4,-585.42 633.28,-575.29 627.65,-579.45"/>
</a>
</g>
</g>
<!-- Node9 -->
<g id="Node000009" class="node">
<title>Node9</title>
<g id="a_Node000009"><a xlink:href="admt4000_8c.html#a1c3c4184c4257639ef99058d45249228" target="_top" xlink:title="Get status of selected GPIO.">
<polygon fill="white" stroke="#666666" points="519.5,-456.5 406.5,-456.5 406.5,-437.5 519.5,-437.5 519.5,-456.5"/>
<text text-anchor="middle" x="463" y="-444.5" font-family="Helvetica,sans-Serif" font-size="10.00">admt4000_get_gpio</text>
</a>
</g>
</g>
<!-- Node1&#45;&gt;Node9 -->
<g id="edge9_Node000001_Node000009" class="edge">
<title>Node1&#45;&gt;Node9</title>
<g id="a_edge9_Node000001_Node000009"><a xlink:title=" ">
<path fill="none" stroke="#63b8ff" d="M634.98,-576.08C621.84,-547.48 592.92,-493.66 551,-466 541.71,-459.87 530.76,-455.69 519.83,-452.84"/>
<polygon fill="#63b8ff" stroke="#63b8ff" points="631.85,-577.65 639.11,-585.38 638.25,-574.82 631.85,-577.65"/>
</a>
</g>
</g>
<!-- Node10 -->
<g id="Node000010" class="node">
<title>Node10</title>
<g id="a_Node000010"><a xlink:href="admt4000_8c.html#abacc3dfd267e5cbd50143bc1e99c4b9b" target="_top" xlink:title="Gets 8th harmonic correction source.">
<polygon fill="white" stroke="#666666" points="525.5,-604.5 400.5,-604.5 400.5,-585.5 525.5,-585.5 525.5,-604.5"/>
<text text-anchor="middle" x="463" y="-592.5" font-family="Helvetica,sans-Serif" font-size="10.00">admt4000_get_h8_ctrl</text>
</a>
</g>
</g>
<!-- Node1&#45;&gt;Node10 -->
<g id="edge11_Node000001_Node000010" class="edge">
<title>Node1&#45;&gt;Node10</title>
<g id="a_edge11_Node000001_Node000010"><a xlink:title=" ">
<path fill="none" stroke="#63b8ff" d="M576.61,-595C559.89,-595 542.01,-595 525.54,-595"/>
<polygon fill="#63b8ff" stroke="#63b8ff" points="576.85,-598.5 586.85,-595 576.85,-591.5 576.85,-598.5"/>
</a>
</g>
</g>
<!-- Node11 -->
<g id="Node000011" class="node">
<title>Node11</title>
<g id="a_Node000011"><a xlink:href="admt4000_8c.html#a44cbed7ce76bd35a9f8346148498a51d" target="_top" xlink:title="Get harmonic configuration (magnitude and phase together).">
<polygon fill="white" stroke="#666666" points="532,-370.5 394,-370.5 394,-351.5 532,-351.5 532,-370.5"/>
<text text-anchor="middle" x="463" y="-358.5" font-family="Helvetica,sans-Serif" font-size="10.00">admt4000_get_harmonic</text>
</a>
</g>
</g>
<!-- Node1&#45;&gt;Node11 -->
<g id="edge12_Node000001_Node000011" class="edge">
<title>Node1&#45;&gt;Node11</title>
<g id="a_edge12_Node000001_Node000011"><a xlink:title=" ">
<path fill="none" stroke="#63b8ff" d="M640.59,-575.28C634.28,-532.61 613.2,-431.42 551,-380 545.4,-375.37 538.92,-371.8 532.08,-369.06"/>
<polygon fill="#63b8ff" stroke="#63b8ff" points="637.16,-576.02 641.97,-585.46 644.09,-575.08 637.16,-576.02"/>
</a>
</g>
</g>
<!-- Node13 -->
<g id="Node000013" class="node">
<title>Node13</title>
<g id="a_Node000013"><a xlink:href="admt4000_8c.html#abbe041b96a0db6a2246ce72e9e117523" target="_top" xlink:title="Read Unique ID from register/s.">
<polygon fill="white" stroke="#666666" points="513.5,-530.5 412.5,-530.5 412.5,-511.5 513.5,-511.5 513.5,-530.5"/>
<text text-anchor="middle" x="463" y="-518.5" font-family="Helvetica,sans-Serif" font-size="10.00">admt4000_get_id</text>
</a>
</g>
</g>
<!-- Node1&#45;&gt;Node13 -->
<g id="edge14_Node000001_Node000013" class="edge">
<title>Node1&#45;&gt;Node13</title>
<g id="a_edge14_Node000001_Node000013"><a xlink:title=" ">
<path fill="none" stroke="#63b8ff" d="M621.43,-579.35C603.42,-566.97 576.64,-550.15 551,-540 539.21,-535.33 526.05,-531.71 513.6,-528.93"/>
<polygon fill="#63b8ff" stroke="#63b8ff" points="619.8,-582.48 630,-585.35 623.82,-576.75 619.8,-582.48"/>
</a>
</g>
</g>
<!-- Node14 -->
<g id="Node000014" class="node">
<title>Node14</title>
<g id="a_Node000014"><a xlink:href="admt4000_8c.html#a426ca4ed004ad5cf37010e3d84a2393a" target="_top" xlink:title="Get RADIUS vector value.">
<polygon fill="white" stroke="#666666" points="524,-715.5 402,-715.5 402,-696.5 524,-696.5 524,-715.5"/>
<text text-anchor="middle" x="463" y="-703.5" font-family="Helvetica,sans-Serif" font-size="10.00">admt4000_get_radius</text>
</a>
</g>
</g>
<!-- Node1&#45;&gt;Node14 -->
<g id="edge15_Node000001_Node000014" class="edge">
<title>Node1&#45;&gt;Node14</title>
<g id="a_edge15_Node000001_Node000014"><a xlink:title=" ">
<path fill="none" stroke="#63b8ff" d="M630.49,-612.96C614.58,-634.35 585.06,-669.51 551,-688 542.73,-692.49 533.46,-695.86 524.14,-698.39"/>
<polygon fill="#63b8ff" stroke="#63b8ff" points="633.42,-614.88 636.45,-604.73 627.75,-610.78 633.42,-614.88"/>
</a>
</g>
</g>
<!-- Node15 -->
<g id="Node000015" class="node">
<title>Node15</title>
<g id="a_Node000015"><a xlink:href="admt4000_8c.html#a702a807bd05df4365c06eb0c7d340776" target="_top" xlink:title="Retrieve the sine value from the ADMT4000 device. This function reads the sine portion of the AMR ang...">
<polygon fill="white" stroke="#666666" points="516.5,-678.5 409.5,-678.5 409.5,-659.5 516.5,-659.5 516.5,-678.5"/>
<text text-anchor="middle" x="463" y="-666.5" font-family="Helvetica,sans-Serif" font-size="10.00">admt4000_get_sin</text>
</a>
</g>
</g>
<!-- Node1&#45;&gt;Node15 -->
<g id="edge17_Node000001_Node000015" class="edge">
<title>Node1&#45;&gt;Node15</title>
<g id="a_edge17_Node000001_Node000015"><a xlink:title=" ">
<path fill="none" stroke="#63b8ff" d="M621.81,-610.81C603.84,-623.48 576.92,-640.78 551,-651 540.24,-655.24 528.31,-658.54 516.83,-661.09"/>
<polygon fill="#63b8ff" stroke="#63b8ff" points="624.27,-613.35 630.34,-604.67 620.18,-607.67 624.27,-613.35"/>
</a>
</g>
</g>
<!-- Node16 -->
<g id="Node000016" class="node">
<title>Node16</title>
<g id="a_Node000016"><a xlink:href="admt4000_8c.html#af9efd333c2c9b6bb1a4f0610286b41b6" target="_top" xlink:title="Gets storage general config.">
<polygon fill="white" stroke="#666666" points="527.5,-419 398.5,-419 398.5,-389 527.5,-389 527.5,-419"/>
<text text-anchor="start" x="406.5" y="-407" font-family="Helvetica,sans-Serif" font-size="10.00">admt4000_get_storage</text>
<text text-anchor="middle" x="463" y="-396" font-family="Helvetica,sans-Serif" font-size="10.00">_config</text>
</a>
</g>
</g>
<!-- Node1&#45;&gt;Node16 -->
<g id="edge19_Node000001_Node000016" class="edge">
<title>Node1&#45;&gt;Node16</title>
<g id="a_edge19_Node000001_Node000016"><a xlink:title=" ">
<path fill="none" stroke="#63b8ff" d="M637.64,-575.58C627.05,-540.84 600.08,-468.07 551,-429 544.11,-423.52 536.08,-419.24 527.72,-415.9"/>
<polygon fill="#63b8ff" stroke="#63b8ff" points="634.35,-576.81 640.51,-585.43 641.07,-574.85 634.35,-576.81"/>
</a>
</g>
</g>
<!-- Node17 -->
<g id="Node000017" class="node">
<title>Node17</title>
<g id="a_Node000017"><a xlink:href="admt4000_8c.html#a73fda54c919af780ff8419fa88140d74" target="_top" xlink:title="Get raw temperature reading.">
<polygon fill="white" stroke="#666666" points="522,-641.5 404,-641.5 404,-622.5 522,-622.5 522,-641.5"/>
<text text-anchor="middle" x="463" y="-629.5" font-family="Helvetica,sans-Serif" font-size="10.00">admt4000_get_temp</text>
</a>
</g>
</g>
<!-- Node1&#45;&gt;Node17 -->
<g id="edge20_Node000001_Node000017" class="edge">
<title>Node1&#45;&gt;Node17</title>
<g id="a_edge20_Node000001_Node000017"><a xlink:title=" ">
<path fill="none" stroke="#63b8ff" d="M586.96,-606.58C562.3,-611.68 533.67,-617.6 510.25,-622.44"/>
<polygon fill="#63b8ff" stroke="#63b8ff" points="587.82,-609.98 596.9,-604.53 586.4,-603.13 587.82,-609.98"/>
</a>
</g>
</g>
<!-- Node18 -->
<g id="Node000018" class="node">
<title>Node18</title>
<g id="a_Node000018"><a xlink:href="admt4000_8c.html#ac4b06af50668fed708859868940f49c3" target="_top" xlink:title="Updates the contents of selected register.">
<polygon fill="white" stroke="#666666" points="526,-235.5 400,-235.5 400,-216.5 526,-216.5 526,-235.5"/>
<text text-anchor="middle" x="463" y="-223.5" font-family="Helvetica,sans-Serif" font-size="10.00">admt4000_reg_update</text>
</a>
</g>
</g>
<!-- Node1&#45;&gt;Node18 -->
<g id="edge22_Node000001_Node000018" class="edge">
<title>Node1&#45;&gt;Node18</title>
<g id="a_edge22_Node000001_Node000018"><a xlink:title=" ">
<path fill="none" stroke="#63b8ff" d="M638,-575.62C626.38,-532.27 595.14,-424.83 551,-343 527.69,-299.78 489.74,-254.88 472.73,-235.66"/>
<polygon fill="#63b8ff" stroke="#63b8ff" points="634.65,-576.65 640.59,-585.43 641.42,-574.87 634.65,-576.65"/>
</a>
</g>
</g>
<!-- Node7 -->
<g id="Node000007" class="node">
<title>Node7</title>
<g id="a_Node000007"><a xlink:href="admt4000_2src_2examples_2basic_2basic__example_8c.html#ac25cbf8ae523e89cb0617e68c98bc697" target="_top" xlink:title="Basic example main function.">
<polygon fill="white" stroke="#666666" points="295.5,-604.5 206.5,-604.5 206.5,-585.5 295.5,-585.5 295.5,-604.5"/>
<text text-anchor="middle" x="251" y="-592.5" font-family="Helvetica,sans-Serif" font-size="10.00">example_main</text>
</a>
</g>
</g>
<!-- Node6&#45;&gt;Node7 -->
<g id="edge6_Node000006_Node000007" class="edge">
<title>Node6&#45;&gt;Node7</title>
<g id="a_edge6_Node000006_Node000007"><a xlink:title=" ">
<path fill="none" stroke="#63b8ff" d="M398.37,-569.21C365.11,-575.07 325.26,-582.09 295.54,-587.33"/>
<polygon fill="#63b8ff" stroke="#63b8ff" points="399.22,-572.61 408.46,-567.43 398.01,-565.72 399.22,-572.61"/>
</a>
</g>
</g>
<!-- Node8&#45;&gt;Node7 -->
<g id="edge8_Node000008_Node000007" class="edge">
<title>Node8&#45;&gt;Node7</title>
<g id="a_edge8_Node000008_Node000007"><a xlink:title=" ">
<path fill="none" stroke="#63b8ff" d="M393.04,-496.16C386.82,-498.12 380.72,-500.39 375,-503 327.7,-524.61 281.09,-566.68 261.57,-585.5"/>
<polygon fill="#63b8ff" stroke="#63b8ff" points="394.22,-499.47 402.86,-493.33 392.28,-492.74 394.22,-499.47"/>
</a>
</g>
</g>
<!-- Node9&#45;&gt;Node7 -->
<g id="edge10_Node000009_Node000007" class="edge">
<title>Node9&#45;&gt;Node7</title>
<g id="a_edge10_Node000009_Node000007"><a xlink:title=" ">
<path fill="none" stroke="#63b8ff" d="M396.71,-456.76C389.14,-459.19 381.73,-462.22 375,-466 319.7,-497.09 274.09,-561.11 258.12,-585.38"/>
<polygon fill="#63b8ff" stroke="#63b8ff" points="397.71,-460.12 406.36,-454 395.78,-453.39 397.71,-460.12"/>
</a>
</g>
</g>
<!-- Node12 -->
<g id="Node000012" class="node">
<title>Node12</title>
<g id="a_Node000012"><a xlink:href="admt4000_8c.html#ab551e3a6f9d1b522cee6393af8f91c4a" target="_top" xlink:title="Get all harmonic configurations in a single operation.">
<polygon fill="white" stroke="#666666" points="322.5,-474 179.5,-474 179.5,-444 322.5,-444 322.5,-474"/>
<text text-anchor="start" x="187.5" y="-462" font-family="Helvetica,sans-Serif" font-size="10.00">admt4000_get_harmonics</text>
<text text-anchor="middle" x="251" y="-451" font-family="Helvetica,sans-Serif" font-size="10.00">_calib</text>
</a>
</g>
</g>
<!-- Node11&#45;&gt;Node12 -->
<g id="edge13_Node000011_Node000012" class="edge">
<title>Node11&#45;&gt;Node12</title>
<g id="a_edge13_Node000011_Node000012"><a xlink:title=" ">
<path fill="none" stroke="#63b8ff" d="M384.34,-374.51C381.09,-376.14 377.95,-377.97 375,-380 350.94,-396.57 362.6,-417.78 339,-435 334.06,-438.6 328.61,-441.66 322.92,-444.26"/>
<polygon fill="#63b8ff" stroke="#63b8ff" points="386.02,-377.6 393.8,-370.4 383.23,-371.18 386.02,-377.6"/>
</a>
</g>
</g>
<!-- Node14&#45;&gt;Node7 -->
<g id="edge16_Node000014_Node000007" class="edge">
<title>Node14&#45;&gt;Node7</title>
<g id="a_edge16_Node000014_Node000007"><a xlink:title=" ">
<path fill="none" stroke="#63b8ff" d="M391.99,-694.4C386.14,-692.57 380.4,-690.45 375,-688 327.46,-666.44 280.98,-623.77 261.52,-604.65"/>
<polygon fill="#63b8ff" stroke="#63b8ff" points="391.34,-697.85 401.92,-697.22 393.26,-691.12 391.34,-697.85"/>
</a>
</g>
</g>
<!-- Node15&#45;&gt;Node7 -->
<g id="edge18_Node000015_Node000007" class="edge">
<title>Node15&#45;&gt;Node7</title>
<g id="a_edge18_Node000015_Node000007"><a xlink:title=" ">
<path fill="none" stroke="#63b8ff" d="M399.12,-657.74C390.93,-655.76 382.71,-653.52 375,-651 336.19,-638.33 293.31,-617.01 269.83,-604.66"/>
<polygon fill="#63b8ff" stroke="#63b8ff" points="398.53,-661.19 409.06,-660.01 400.09,-654.37 398.53,-661.19"/>
</a>
</g>
</g>
<!-- Node17&#45;&gt;Node7 -->
<g id="edge21_Node000017_Node000007" class="edge">
<title>Node17&#45;&gt;Node7</title>
<g id="a_edge21_Node000017_Node000007"><a xlink:title=" ">
<path fill="none" stroke="#63b8ff" d="M397.87,-620.7C364.75,-614.87 325.22,-607.9 295.66,-602.69"/>
<polygon fill="#63b8ff" stroke="#63b8ff" points="397.46,-624.18 407.92,-622.47 398.68,-617.29 397.46,-624.18"/>
</a>
</g>
</g>
<!-- Node19 -->
<g id="Node000019" class="node">
<title>Node19</title>
<g id="a_Node000019"><a xlink:href="admt4000_8c.html#acd442c12d45695e4eb17fc4723e10144" target="_top" xlink:title="Clear all faults from fault registers.">
<polygon fill="white" stroke="#666666" points="307.5,-340 194.5,-340 194.5,-310 307.5,-310 307.5,-340"/>
<text text-anchor="start" x="202.5" y="-328" font-family="Helvetica,sans-Serif" font-size="10.00">admt4000_clear_all</text>
<text text-anchor="middle" x="251" y="-317" font-family="Helvetica,sans-Serif" font-size="10.00">_faults</text>
</a>
</g>
</g>
<!-- Node18&#45;&gt;Node19 -->
<g id="edge23_Node000018_Node000019" class="edge">
<title>Node18&#45;&gt;Node19</title>
<g id="a_edge23_Node000018_Node000019"><a xlink:title=" ">
<path fill="none" stroke="#63b8ff" d="M440.75,-241.5C416.99,-258.22 376.86,-284.62 339,-301 329.08,-305.29 318.18,-309.02 307.56,-312.16"/>
<polygon fill="#63b8ff" stroke="#63b8ff" points="442.9,-244.27 449.02,-235.61 438.84,-238.56 442.9,-244.27"/>
</a>
</g>
</g>
<!-- Node20 -->
<g id="Node000020" class="node">
<title>Node20</title>
<g id="a_Node000020"><a xlink:href="admt4000_8c.html#ab3140b39c732ec6ef05671f357bf78d2" target="_top" xlink:title="Configure GPIO mode, direction, and initial state.">
<polygon fill="white" stroke="#666666" points="127,-216.5 0,-216.5 0,-197.5 127,-197.5 127,-216.5"/>
<text text-anchor="middle" x="63.5" y="-204.5" font-family="Helvetica,sans-Serif" font-size="10.00">admt4000_gpio_config</text>
</a>
</g>
</g>
<!-- Node18&#45;&gt;Node20 -->
<g id="edge24_Node000018_Node000020" class="edge">
<title>Node18&#45;&gt;Node20</title>
<g id="a_edge24_Node000018_Node000020"><a xlink:title=" ">
<path fill="none" stroke="#63b8ff" d="M442.85,-210.12C419.86,-192.19 379.34,-164.07 339,-153 263.57,-132.3 238.78,-133.59 163,-153 129.37,-161.61 94.89,-184.36 76.99,-197.41"/>
<polygon fill="#63b8ff" stroke="#63b8ff" points="440.76,-212.93 450.76,-216.44 445.13,-207.46 440.76,-212.93"/>
</a>
</g>
</g>
<!-- Node21 -->
<g id="Node000021" class="node">
<title>Node21</title>
<g id="a_Node000021"><a xlink:href="admt4000_8c.html#a3acbfd1a7d046882423d022b8e5b4ccc" target="_top" xlink:title="Sets the filter setting.">
<polygon fill="white" stroke="#666666" points="319.5,-254.5 182.5,-254.5 182.5,-235.5 319.5,-235.5 319.5,-254.5"/>
<text text-anchor="middle" x="251" y="-242.5" font-family="Helvetica,sans-Serif" font-size="10.00">admt4000_set_angle_filt</text>
</a>
</g>
</g>
<!-- Node18&#45;&gt;Node21 -->
<g id="edge25_Node000018_Node000021" class="edge">
<title>Node18&#45;&gt;Node21</title>
<g id="a_edge25_Node000018_Node000021"><a xlink:title=" ">
<path fill="none" stroke="#63b8ff" d="M389.63,-232.55C367.01,-234.59 342.16,-236.84 319.86,-238.86"/>
<polygon fill="#63b8ff" stroke="#63b8ff" points="390.2,-236.01 399.85,-231.62 389.57,-229.04 390.2,-236.01"/>
</a>
</g>
</g>
<!-- Node22 -->
<g id="Node000022" class="node">
<title>Node22</title>
<g id="a_Node000022"><a xlink:href="admt4000_8c.html#a1232278fe4dee97c05da584de184a664" target="_top" xlink:title="Configures the conversion mode: one shot or continuous.">
<polygon fill="white" stroke="#666666" points="325,-217.5 177,-217.5 177,-198.5 325,-198.5 325,-217.5"/>
<text text-anchor="middle" x="251" y="-205.5" font-family="Helvetica,sans-Serif" font-size="10.00">admt4000_set_conv_mode</text>
</a>
</g>
</g>
<!-- Node18&#45;&gt;Node22 -->
<g id="edge26_Node000018_Node000022" class="edge">
<title>Node18&#45;&gt;Node22</title>
<g id="a_edge26_Node000018_Node000022"><a xlink:title=" ">
<path fill="none" stroke="#63b8ff" d="M389.76,-219.81C368.86,-218.02 346.05,-216.06 325.1,-214.27"/>
<polygon fill="#63b8ff" stroke="#63b8ff" points="389.58,-223.31 399.85,-220.67 390.18,-216.33 389.58,-223.31"/>
</a>
</g>
</g>
<!-- Node23 -->
<g id="Node000023" class="node">
<title>Node23</title>
<g id="a_Node000023"><a xlink:href="admt4000_8c.html#a836078e407ffcefc20c04f9c5f80cb36" target="_top" xlink:title="Configures conversion synchronization mode.">
<polygon fill="white" stroke="#666666" points="339,-180.5 163,-180.5 163,-161.5 339,-161.5 339,-180.5"/>
<text text-anchor="middle" x="251" y="-168.5" font-family="Helvetica,sans-Serif" font-size="10.00">admt4000_set_conv_sync_mode</text>
</a>
</g>
</g>
<!-- Node18&#45;&gt;Node23 -->
<g id="edge27_Node000018_Node000023" class="edge">
<title>Node18&#45;&gt;Node23</title>
<g id="a_edge27_Node000018_Node000023"><a xlink:title=" ">
<path fill="none" stroke="#63b8ff" d="M421.79,-213.46C397.86,-206.19 366.82,-197.1 339,-190 325.97,-186.67 311.74,-183.41 298.65,-180.56"/>
<polygon fill="#63b8ff" stroke="#63b8ff" points="421,-216.88 431.58,-216.45 423.04,-210.18 421,-216.88"/>
</a>
</g>
</g>
<!-- Node24 -->
<g id="Node000024" class="node">
<title>Node24</title>
<g id="a_Node000024"><a xlink:href="admt4000_8c.html#a5fd4525326ff988387ea7534054f9dab" target="_top" xlink:title="Configure selected GPIO.">
<polygon fill="white" stroke="#666666" points="307.5,-291.5 194.5,-291.5 194.5,-272.5 307.5,-272.5 307.5,-291.5"/>
<text text-anchor="middle" x="251" y="-279.5" font-family="Helvetica,sans-Serif" font-size="10.00">admt4000_set_gpio</text>
</a>
</g>
</g>
<!-- Node18&#45;&gt;Node24 -->
<g id="edge28_Node000018_Node000024" class="edge">
<title>Node18&#45;&gt;Node24</title>
<g id="a_edge28_Node000018_Node000024"><a xlink:title=" ">
<path fill="none" stroke="#63b8ff" d="M424.36,-238.65C400.15,-246.54 367.92,-256.56 339,-264 327.2,-267.04 314.4,-269.91 302.33,-272.44"/>
<polygon fill="#63b8ff" stroke="#63b8ff" points="425.47,-241.97 433.88,-235.53 423.29,-235.32 425.47,-241.97"/>
</a>
</g>
</g>
<!-- Node25 -->
<g id="Node000025" class="node">
<title>Node25</title>
<g id="a_Node000025"><a xlink:href="admt4000_8c.html#a6858c1bb4c5e13998a5a9231a30194f5" target="_top" xlink:title="Sets 8th harmonic correction source.">
<polygon fill="white" stroke="#666666" points="313.5,-104.5 188.5,-104.5 188.5,-85.5 313.5,-85.5 313.5,-104.5"/>
<text text-anchor="middle" x="251" y="-92.5" font-family="Helvetica,sans-Serif" font-size="10.00">admt4000_set_h8_ctrl</text>
</a>
</g>
</g>
<!-- Node18&#45;&gt;Node25 -->
<g id="edge30_Node000018_Node000025" class="edge">
<title>Node18&#45;&gt;Node25</title>
<g id="a_edge30_Node000018_Node000025"><a xlink:title=" ">
<path fill="none" stroke="#63b8ff" d="M447.07,-208.89C425.52,-185.25 383.39,-142.83 339,-119 327.4,-112.78 314.05,-108.05 301.34,-104.52"/>
<polygon fill="#63b8ff" stroke="#63b8ff" points="444.52,-211.3 453.8,-216.41 449.74,-206.63 444.52,-211.3"/>
</a>
</g>
</g>
<!-- Node26 -->
<g id="Node000026" class="node">
<title>Node26</title>
<g id="a_Node000026"><a xlink:href="admt4000_8c.html#af94e3406dde7c4a72eda6fd24a007bd3" target="_top" xlink:title="Set harmonic configuration (magnitude and phase together).">
<polygon fill="white" stroke="#666666" points="319.5,-67.5 182.5,-67.5 182.5,-48.5 319.5,-48.5 319.5,-67.5"/>
<text text-anchor="middle" x="251" y="-55.5" font-family="Helvetica,sans-Serif" font-size="10.00">admt4000_set_harmonic</text>
</a>
</g>
</g>
<!-- Node18&#45;&gt;Node26 -->
<g id="edge31_Node000018_Node000026" class="edge">
<title>Node18&#45;&gt;Node26</title>
<g id="a_edge31_Node000018_Node000026"><a xlink:title=" ">
<path fill="none" stroke="#63b8ff" d="M452.44,-207.53C434.73,-175.29 393.58,-109.01 339,-76 333.06,-72.41 326.52,-69.52 319.78,-67.21"/>
<polygon fill="#63b8ff" stroke="#63b8ff" points="449.37,-209.21 457.17,-216.37 455.54,-205.9 449.37,-209.21"/>
</a>
</g>
</g>
<!-- Node27 -->
<g id="Node000027" class="node">
<title>Node27</title>
<g id="a_Node000027"><a xlink:href="admt4000_8c.html#a0ae706912c0c20383226b805eb44a3d8" target="_top" xlink:title="Set all harmonic configurations in a single operation.">
<polygon fill="white" stroke="#666666" points="322.5,-30 179.5,-30 179.5,0 322.5,0 322.5,-30"/>
<text text-anchor="start" x="187.5" y="-18" font-family="Helvetica,sans-Serif" font-size="10.00">admt4000_set_harmonics</text>
<text text-anchor="middle" x="251" y="-7" font-family="Helvetica,sans-Serif" font-size="10.00">_calib</text>
</a>
</g>
</g>
<!-- Node18&#45;&gt;Node27 -->
<g id="edge32_Node000018_Node000027" class="edge">
<title>Node18&#45;&gt;Node27</title>
<g id="a_edge32_Node000018_Node000027"><a xlink:title=" ">
<path fill="none" stroke="#63b8ff" d="M454.74,-206.62C439.44,-168.48 400.17,-83.52 339,-39 334.06,-35.4 328.6,-32.35 322.91,-29.75"/>
<polygon fill="#63b8ff" stroke="#63b8ff" points="451.53,-208.02 458.42,-216.07 458.05,-205.48 451.53,-208.02"/>
</a>
</g>
</g>
<!-- Node28 -->
<g id="Node000028" class="node">
<title>Node28</title>
<g id="a_Node000028"><a xlink:href="admt4000_8c.html#ac9b7e9e62d361e74e333ed529df3ad41" target="_top" xlink:title="Sets storage general config.">
<polygon fill="white" stroke="#666666" points="315,-426 187,-426 187,-396 315,-396 315,-426"/>
<text text-anchor="start" x="195" y="-414" font-family="Helvetica,sans-Serif" font-size="10.00">admt4000_set_storage</text>
<text text-anchor="middle" x="251" y="-403" font-family="Helvetica,sans-Serif" font-size="10.00">_config</text>
</a>
</g>
</g>
<!-- Node18&#45;&gt;Node28 -->
<g id="edge33_Node000018_Node000028" class="edge">
<title>Node18&#45;&gt;Node28</title>
<g id="a_edge33_Node000018_Node000028"><a xlink:title=" ">
<path fill="none" stroke="#63b8ff" d="M448.76,-243.96C418.5,-284.91 346.35,-382.04 339,-387 331.73,-391.91 323.47,-395.82 315.02,-398.93"/>
<polygon fill="#63b8ff" stroke="#63b8ff" points="451.73,-245.82 454.86,-235.7 446.1,-241.67 451.73,-245.82"/>
</a>
</g>
</g>
<!-- Node29 -->
<g id="Node000029" class="node">
<title>Node29</title>
<g id="a_Node000029"><a xlink:href="admt4000_8c.html#ac7b81b5aea98f68abc5da7ed4e178606" target="_top" xlink:title="Toggle the CNV to stop/start conversion.">
<polygon fill="white" stroke="#666666" points="313.5,-377.5 188.5,-377.5 188.5,-358.5 313.5,-358.5 313.5,-377.5"/>
<text text-anchor="middle" x="251" y="-365.5" font-family="Helvetica,sans-Serif" font-size="10.00">admt4000_toggle_cnv</text>
</a>
</g>
</g>
<!-- Node18&#45;&gt;Node29 -->
<g id="edge34_Node000018_Node000029" class="edge">
<title>Node18&#45;&gt;Node29</title>
<g id="a_edge34_Node000018_Node000029"><a xlink:title=" ">
<path fill="none" stroke="#63b8ff" d="M449.62,-243.71C429.64,-270.87 387.57,-322.45 339,-349 331.13,-353.3 322.36,-356.63 313.51,-359.2"/>
<polygon fill="#63b8ff" stroke="#63b8ff" points="452.53,-245.67 455.53,-235.51 446.84,-241.58 452.53,-245.67"/>
</a>
</g>
</g>
<!-- Node24&#45;&gt;Node20 -->
<g id="edge29_Node000024_Node000020" class="edge">
<title>Node24&#45;&gt;Node20</title>
<g id="a_edge29_Node000024_Node000020"><a xlink:title=" ">
<path fill="none" stroke="#63b8ff" d="M184.72,-270.88C177.29,-268.92 169.91,-266.64 163,-264 130.51,-251.61 96.14,-229.31 77.83,-216.59"/>
<polygon fill="#63b8ff" stroke="#63b8ff" points="183.92,-274.29 194.47,-273.29 185.6,-267.5 183.92,-274.29"/>
</a>
</g>
</g>
</g>
</svg>

<g id="navigator" transform="translate(0 0)" fill="#404254">
  <rect fill="#f2f5e9" fill-opacity="0.5" stroke="#606060" stroke-width=".5" x="0" y="0" width="60" height="60"/>
  <use id="zoomplus" xlink:href="#zoomPlus" x="17" y="9" onmousedown="handleZoom(evt,'in')"/>
  <use id="zoomminus" xlink:href="#zoomMin" x="42" y="9" onmousedown="handleZoom(evt,'out')"/>
  <use id="reset" xlink:href="#resetDef" x="30" y="36" onmousedown="handleReset()"/>
   <use id="arrowup" xlink:href="#arrowUp" x="0" y="0" onmousedown="handlePan(0,-1)"/>
  <use id="arrowright" xlink:href="#arrowRight" x="0" y="0" onmousedown="handlePan(1,0)"/>
  <use id="arrowdown" xlink:href="#arrowDown" x="0" y="0" onmousedown="handlePan(0,1)"/>
  <use id="arrowleft" xlink:href="#arrowLeft" x="0" y="0" onmousedown="handlePan(-1,0)"/>
</g>
<svg viewBox="0 0 15 15" width="100%" height="30px" preserveAspectRatio="xMaxYMin meet">
 <g id="arrow_out" transform="scale(0.3 0.3)">
  <a xlink:href="admt4000_8h_a8969b6004e69f6687285cfb91fe06bae_icgraph_org.svg" target="_base">
   <rect id="button" ry="5" rx="5" y="6" x="6" height="38" width="38"
        fill="#f2f5e9" fill-opacity="0.5" stroke="#606060" stroke-width="1.0"/>
   <path id="arrow"
     d="M 11.500037,31.436501 C 11.940474,20.09759 22.043105,11.32322 32.158766,21.979434 L 37.068811,17.246167 C 37.068811,17.246167 37.088388,32 37.088388,32 L 22.160133,31.978069 C 22.160133,31.978069 26.997745,27.140456 26.997745,27.140456 C 18.528582,18.264221 13.291696,25.230495 11.500037,31.436501 z"
     style="fill:#404040;"/>
  </a>
 </g>
</svg>

<style type='text/css'>
<![CDATA[
[data-mouse-over-selected='false'] { opacity: 0.7; }
[data-mouse-over-selected='true']  { opacity: 1.0; }
]]>
</style>
<script type="application/ecmascript"><![CDATA[
document.addEventListener('DOMContentLoaded', (event) => {
  highlightEdges();
  highlightAdjacentNodes();
});
]]></script>
</svg>
