<?xml version="1.0" encoding="UTF-8" standalone="no"?>
<!DOCTYPE svg PUBLIC "-//W3C//DTD SVG 1.1//EN"
 "http://www.w3.org/Graphics/SVG/1.1/DTD/svg11.dtd">
<!-- Generated by graphviz version 2.43.0 (0)
 -->
<!-- Title: adp1055_send_command Pages: 1 -->
<svg width="523pt" height="64pt"
 viewBox="0.00 0.00 523.00 64.00" xmlns="http://www.w3.org/2000/svg" xmlns:xlink="http://www.w3.org/1999/xlink">
<g id="graph0" class="graph" transform="scale(1 1) rotate(0) translate(4 60)">
<title>adp1055_send_command</title>
<!-- Node1 -->
<g id="Node000001" class="node">
<title>Node1</title>
<g id="a_Node000001"><a xlink:title="Send command byte/word to ADP1055.">
<polygon fill="#999999" stroke="#666666" points="515,-37 374,-37 374,-18 515,-18 515,-37"/>
<text text-anchor="middle" x="444.5" y="-25" font-family="Helvetica,sans-Serif" font-size="10.00">adp1055_send_command</text>
</a>
</g>
</g>
<!-- Node2 -->
<g id="Node000002" class="node">
<title>Node2</title>
<g id="a_Node000002"><a xlink:href="adp1055_8c.html#a00e64892f343d5d3a045a2272d11e54a" target="_top" xlink:title="Initialize the ADP1055 device.">
<polygon fill="white" stroke="#666666" points="338,-37 258,-37 258,-18 338,-18 338,-37"/>
<text text-anchor="middle" x="298" y="-25" font-family="Helvetica,sans-Serif" font-size="10.00">adp1055_init</text>
</a>
</g>
</g>
<!-- Node1&#45;&gt;Node2 -->
<g id="edge1_Node000001_Node000002" class="edge">
<title>Node1&#45;&gt;Node2</title>
<g id="a_edge1_Node000001_Node000002"><a xlink:title=" ">
<path fill="none" stroke="#63b8ff" d="M363.73,-27.5C354.86,-27.5 346.13,-27.5 338.11,-27.5"/>
<polygon fill="#63b8ff" stroke="#63b8ff" points="363.79,-31 373.79,-27.5 363.79,-24 363.79,-31"/>
</a>
</g>
</g>
<!-- Node3 -->
<g id="Node000003" class="node">
<title>Node3</title>
<g id="a_Node000003"><a xlink:href="iio__adp1055_8c.html#a5e19414c9b0490f753cf1d1add55fda6" target="_top" xlink:title="Initializes the ADP1050 IIO descriptor.">
<polygon fill="white" stroke="#666666" points="222,-56 125,-56 125,-37 222,-37 222,-56"/>
<text text-anchor="middle" x="173.5" y="-44" font-family="Helvetica,sans-Serif" font-size="10.00">adp1055_iio_init</text>
</a>
</g>
</g>
<!-- Node2&#45;&gt;Node3 -->
<g id="edge2_Node000002_Node000003" class="edge">
<title>Node2&#45;&gt;Node3</title>
<g id="a_edge2_Node000002_Node000003"><a xlink:title=" ">
<path fill="none" stroke="#63b8ff" d="M247.82,-35.13C239.38,-36.44 230.63,-37.79 222.24,-39.1"/>
<polygon fill="#63b8ff" stroke="#63b8ff" points="248.56,-38.56 257.9,-33.56 247.49,-31.64 248.56,-38.56"/>
</a>
</g>
</g>
<!-- Node5 -->
<g id="Node000005" class="node">
<title>Node5</title>
<g id="a_Node000005"><a xlink:href="adp1055_2src_2examples_2basic_2basic__example_8c.html#ac25cbf8ae523e89cb0617e68c98bc697" target="_top" xlink:title="Basic example main executiont.">
<polygon fill="white" stroke="#666666" points="218,-19 129,-19 129,0 218,0 218,-19"/>
<text text-anchor="middle" x="173.5" y="-7" font-family="Helvetica,sans-Serif" font-size="10.00">example_main</text>
</a>
</g>
</g>
<!-- Node2&#45;&gt;Node5 -->
<g id="edge4_Node000002_Node000005" class="edge">
<title>Node2&#45;&gt;Node5</title>
<g id="a_edge4_Node000002_Node000005"><a xlink:title=" ">
<path fill="none" stroke="#63b8ff" d="M247.91,-20.29C238.13,-18.85 227.92,-17.35 218.33,-15.94"/>
<polygon fill="#63b8ff" stroke="#63b8ff" points="247.5,-23.76 257.9,-21.76 248.52,-16.84 247.5,-23.76"/>
</a>
</g>
</g>
<!-- Node4 -->
<g id="Node000004" class="node">
<title>Node4</title>
<g id="a_Node000004"><a xlink:href="adp1055_2src_2examples_2iio__example_2iio__example_8c.html#ac25cbf8ae523e89cb0617e68c98bc697" target="_top" xlink:title="Basic example main executiont.">
<polygon fill="white" stroke="#666666" points="89,-56 0,-56 0,-37 89,-37 89,-56"/>
<text text-anchor="middle" x="44.5" y="-44" font-family="Helvetica,sans-Serif" font-size="10.00">example_main</text>
</a>
</g>
</g>
<!-- Node3&#45;&gt;Node4 -->
<g id="edge3_Node000003_Node000004" class="edge">
<title>Node3&#45;&gt;Node4</title>
<g id="a_edge3_Node000003_Node000004"><a xlink:title=" ">
<path fill="none" stroke="#63b8ff" d="M114.85,-46.5C106.24,-46.5 97.48,-46.5 89.23,-46.5"/>
<polygon fill="#63b8ff" stroke="#63b8ff" points="114.85,-50 124.85,-46.5 114.85,-43 114.85,-50"/>
</a>
</g>
</g>
</g>
</svg>
