<?xml version="1.0" encoding="UTF-8" standalone="no"?>
<!DOCTYPE svg PUBLIC "-//W3C//DTD SVG 1.1//EN"
 "http://www.w3.org/Graphics/SVG/1.1/DTD/svg11.dtd">
<!-- Generated by graphviz version 2.43.0 (0)
 -->
<!-- Title: projects/adp1055/src/examples/iio_example/iio_example.c Pages: 1 -->
<svg width="1230pt" height="324pt"
 viewBox="0.00 0.00 1230.29 324.00" xmlns="http://www.w3.org/2000/svg" xmlns:xlink="http://www.w3.org/1999/xlink">
<g id="graph0" class="graph" transform="scale(1 1) rotate(0) translate(4 320)">
<title>projects/adp1055/src/examples/iio_example/iio_example.c</title>
<!-- Node1 -->
<g id="Node000001" class="node">
<title>Node1</title>
<g id="a_Node000001"><a xlink:title="IIO example source file for adp1055 project.">
<polygon fill="#999999" stroke="#666666" points="993,-316 862,-316 862,-275 993,-275 993,-316"/>
<text text-anchor="start" x="870" y="-304" font-family="Helvetica,sans-Serif" font-size="10.00">projects/adp1055/src</text>
<text text-anchor="start" x="870" y="-293" font-family="Helvetica,sans-Serif" font-size="10.00">/examples/iio_example</text>
<text text-anchor="middle" x="927.5" y="-282" font-family="Helvetica,sans-Serif" font-size="10.00">/iio_example.c</text>
</a>
</g>
</g>
<!-- Node2 -->
<g id="Node000002" class="node">
<title>Node2</title>
<g id="a_Node000002"><a xlink:href="iio__adp1055_8h.html" target="_top" xlink:title="Header file for the ADP1055 IIO Driver.">
<polygon fill="white" stroke="#666666" points="914,-239 829,-239 829,-220 914,-220 914,-239"/>
<text text-anchor="middle" x="871.5" y="-227" font-family="Helvetica,sans-Serif" font-size="10.00">iio_adp1055.h</text>
</a>
</g>
</g>
<!-- Node1&#45;&gt;Node2 -->
<g id="edge1_Node000001_Node000002" class="edge">
<title>Node1&#45;&gt;Node2</title>
<g id="a_edge1_Node000001_Node000002"><a xlink:title=" ">
<path fill="none" stroke="#63b8ff" d="M910.39,-274.95C902.58,-266.02 893.42,-255.55 885.95,-247.02"/>
<polygon fill="#63b8ff" stroke="#63b8ff" points="888.38,-244.48 879.17,-239.26 883.12,-249.09 888.38,-244.48"/>
</a>
</g>
</g>
<!-- Node18 -->
<g id="Node000018" class="node">
<title>Node18</title>
<g id="a_Node000018"><a xlink:title=" ">
<polygon fill="#e0e0e0" stroke="#999999" points="1148,-239 1053,-239 1053,-220 1148,-220 1148,-239"/>
<text text-anchor="middle" x="1100.5" y="-227" font-family="Helvetica,sans-Serif" font-size="10.00">common_data.h</text>
</a>
</g>
</g>
<!-- Node1&#45;&gt;Node18 -->
<g id="edge32_Node000001_Node000018" class="edge">
<title>Node1&#45;&gt;Node18</title>
<g id="a_edge32_Node000001_Node000018"><a xlink:title=" ">
<path fill="none" stroke="#63b8ff" d="M980.35,-274.95C1008.82,-264.42 1043.05,-251.75 1067.68,-242.64"/>
<polygon fill="#63b8ff" stroke="#63b8ff" points="1069.11,-245.84 1077.28,-239.09 1066.68,-239.28 1069.11,-245.84"/>
</a>
</g>
</g>
<!-- Node19 -->
<g id="Node000019" class="node">
<title>Node19</title>
<g id="a_Node000019"><a xlink:href="no__os__print__log_8h.html" target="_top" xlink:title="Print messages helpers.">
<polygon fill="white" stroke="#666666" points="1034.5,-239 932.5,-239 932.5,-220 1034.5,-220 1034.5,-239"/>
<text text-anchor="middle" x="983.5" y="-227" font-family="Helvetica,sans-Serif" font-size="10.00">no_os_print_log.h</text>
</a>
</g>
</g>
<!-- Node1&#45;&gt;Node19 -->
<g id="edge33_Node000001_Node000019" class="edge">
<title>Node1&#45;&gt;Node19</title>
<g id="a_edge33_Node000001_Node000019"><a xlink:title=" ">
<path fill="none" stroke="#63b8ff" d="M944.61,-274.95C952.42,-266.02 961.58,-255.55 969.05,-247.02"/>
<polygon fill="#63b8ff" stroke="#63b8ff" points="971.88,-249.09 975.83,-239.26 966.62,-244.48 971.88,-249.09"/>
</a>
</g>
</g>
<!-- Node20 -->
<g id="Node000020" class="node">
<title>Node20</title>
<g id="a_Node000020"><a xlink:href="iio__app_8h.html" target="_top" xlink:title="Header file of iio_app.">
<polygon fill="white" stroke="#666666" points="302,-239 241,-239 241,-220 302,-220 302,-239"/>
<text text-anchor="middle" x="271.5" y="-227" font-family="Helvetica,sans-Serif" font-size="10.00">iio_app.h</text>
</a>
</g>
</g>
<!-- Node1&#45;&gt;Node20 -->
<g id="edge35_Node000001_Node000020" class="edge">
<title>Node1&#45;&gt;Node20</title>
<g id="a_edge35_Node000001_Node000020"><a xlink:title=" ">
<path fill="none" stroke="#63b8ff" d="M861.9,-288.1C727.04,-274.94 422.12,-245.19 312.07,-234.46"/>
<polygon fill="#63b8ff" stroke="#63b8ff" points="312.33,-230.97 302.04,-233.48 311.65,-237.93 312.33,-230.97"/>
</a>
</g>
</g>
<!-- Node3 -->
<g id="Node000003" class="node">
<title>Node3</title>
<g id="a_Node000003"><a xlink:title=" ">
<polygon fill="#e0e0e0" stroke="#999999" points="919.5,-19 857.5,-19 857.5,0 919.5,0 919.5,-19"/>
<text text-anchor="middle" x="888.5" y="-7" font-family="Helvetica,sans-Serif" font-size="10.00">stdbool.h</text>
</a>
</g>
</g>
<!-- Node2&#45;&gt;Node3 -->
<g id="edge2_Node000002_Node000003" class="edge">
<title>Node2&#45;&gt;Node3</title>
<g id="a_edge2_Node000002_Node000003"><a xlink:title=" ">
<path fill="none" stroke="#63b8ff" d="M901.73,-219.92C994.08,-192.98 1263.42,-108.71 1216.5,-55 1179.73,-12.91 1009.47,-9.09 929.81,-9.68"/>
<polygon fill="#63b8ff" stroke="#63b8ff" points="929.61,-6.19 919.65,-9.79 929.68,-13.18 929.61,-6.19"/>
</a>
</g>
</g>
<!-- Node4 -->
<g id="Node000004" class="node">
<title>Node4</title>
<g id="a_Node000004"><a xlink:href="iio_8h.html" target="_top" xlink:title="Header file of iio.">
<polygon fill="white" stroke="#666666" points="392.5,-184 354.5,-184 354.5,-165 392.5,-165 392.5,-184"/>
<text text-anchor="middle" x="373.5" y="-172" font-family="Helvetica,sans-Serif" font-size="10.00">iio.h</text>
</a>
</g>
</g>
<!-- Node2&#45;&gt;Node4 -->
<g id="edge3_Node000002_Node000004" class="edge">
<title>Node2&#45;&gt;Node4</title>
<g id="a_edge3_Node000002_Node000004"><a xlink:title=" ">
<path fill="none" stroke="#63b8ff" d="M828.61,-223.94C729.61,-213.4 487.2,-187.6 402.94,-178.63"/>
<polygon fill="#63b8ff" stroke="#63b8ff" points="403.11,-175.13 392.8,-177.55 402.37,-182.09 403.11,-175.13"/>
</a>
</g>
</g>
<!-- Node11 -->
<g id="Node000011" class="node">
<title>Node11</title>
<g id="a_Node000011"><a xlink:href="adp1055_8h.html" target="_top" xlink:title="Header file for the ADP1055 Driver.">
<polygon fill="white" stroke="#666666" points="905.5,-129 837.5,-129 837.5,-110 905.5,-110 905.5,-129"/>
<text text-anchor="middle" x="871.5" y="-117" font-family="Helvetica,sans-Serif" font-size="10.00">adp1055.h</text>
</a>
</g>
</g>
<!-- Node2&#45;&gt;Node11 -->
<g id="edge16_Node000002_Node000011" class="edge">
<title>Node2&#45;&gt;Node11</title>
<g id="a_edge16_Node000002_Node000011"><a xlink:title=" ">
<path fill="none" stroke="#63b8ff" d="M871.5,-219.66C871.5,-202.17 871.5,-162.8 871.5,-139.27"/>
<polygon fill="#63b8ff" stroke="#63b8ff" points="875,-139.16 871.5,-129.16 868,-139.16 875,-139.16"/>
</a>
</g>
</g>
<!-- Node5 -->
<g id="Node000005" class="node">
<title>Node5</title>
<g id="a_Node000005"><a xlink:href="iio__types_8h.html" target="_top" xlink:title="Header file for iio_types.">
<polygon fill="white" stroke="#666666" points="431.5,-129 361.5,-129 361.5,-110 431.5,-110 431.5,-129"/>
<text text-anchor="middle" x="396.5" y="-117" font-family="Helvetica,sans-Serif" font-size="10.00">iio_types.h</text>
</a>
</g>
</g>
<!-- Node4&#45;&gt;Node5 -->
<g id="edge4_Node000004_Node000005" class="edge">
<title>Node4&#45;&gt;Node5</title>
<g id="a_edge4_Node000004_Node000005"><a xlink:title=" ">
<path fill="none" stroke="#63b8ff" d="M377.3,-164.75C380.41,-157.57 384.92,-147.18 388.79,-138.27"/>
<polygon fill="#63b8ff" stroke="#63b8ff" points="392,-139.66 392.77,-129.09 385.58,-136.87 392,-139.66"/>
</a>
</g>
</g>
<!-- Node8 -->
<g id="Node000008" class="node">
<title>Node8</title>
<g id="a_Node000008"><a xlink:href="no__os__uart_8h.html" target="_top" xlink:title="Header file of UART interface.">
<polygon fill="white" stroke="#666666" points="343,-129 264,-129 264,-110 343,-110 343,-129"/>
<text text-anchor="middle" x="303.5" y="-117" font-family="Helvetica,sans-Serif" font-size="10.00">no_os_uart.h</text>
</a>
</g>
</g>
<!-- Node4&#45;&gt;Node8 -->
<g id="edge9_Node000004_Node000008" class="edge">
<title>Node4&#45;&gt;Node8</title>
<g id="a_edge9_Node000004_Node000008"><a xlink:title=" ">
<path fill="none" stroke="#63b8ff" d="M362.25,-164.98C351.7,-157 335.7,-144.88 323.06,-135.31"/>
<polygon fill="#63b8ff" stroke="#63b8ff" points="325.04,-132.42 314.95,-129.17 320.81,-138 325.04,-132.42"/>
</a>
</g>
</g>
<!-- Node5&#45;&gt;Node3 -->
<g id="edge5_Node000005_Node000003" class="edge">
<title>Node5&#45;&gt;Node3</title>
<g id="a_edge5_Node000005_Node000003"><a xlink:title=" ">
<path fill="none" stroke="#63b8ff" d="M431.63,-117.28C534.54,-113.42 830.28,-100.13 864.5,-74 878.38,-63.4 884.24,-43.79 886.7,-29.15"/>
<polygon fill="#63b8ff" stroke="#63b8ff" points="890.18,-29.53 888.01,-19.16 883.24,-28.63 890.18,-29.53"/>
</a>
</g>
</g>
<!-- Node6 -->
<g id="Node000006" class="node">
<title>Node6</title>
<g id="a_Node000006"><a xlink:title=" ">
<polygon fill="#e0e0e0" stroke="#999999" points="467,-19 414,-19 414,0 467,0 467,-19"/>
<text text-anchor="middle" x="440.5" y="-7" font-family="Helvetica,sans-Serif" font-size="10.00">stdint.h</text>
</a>
</g>
</g>
<!-- Node5&#45;&gt;Node6 -->
<g id="edge6_Node000005_Node000006" class="edge">
<title>Node5&#45;&gt;Node6</title>
<g id="a_edge6_Node000005_Node000006"><a xlink:title=" ">
<path fill="none" stroke="#63b8ff" d="M393.31,-109.85C389.19,-97.2 383.44,-73.2 391.5,-55 396.82,-42.97 407.18,-32.8 417.01,-25.24"/>
<polygon fill="#63b8ff" stroke="#63b8ff" points="419.26,-27.93 425.37,-19.27 415.2,-22.23 419.26,-27.93"/>
</a>
</g>
</g>
<!-- Node7 -->
<g id="Node000007" class="node">
<title>Node7</title>
<g id="a_Node000007"><a xlink:href="no__os__circular__buffer_8h.html" target="_top" xlink:title="Circular buffer library header.">
<polygon fill="white" stroke="#666666" points="344.5,-74 216.5,-74 216.5,-55 344.5,-55 344.5,-74"/>
<text text-anchor="middle" x="280.5" y="-62" font-family="Helvetica,sans-Serif" font-size="10.00">no_os_circular_buffer.h</text>
</a>
</g>
</g>
<!-- Node5&#45;&gt;Node7 -->
<g id="edge7_Node000005_Node000007" class="edge">
<title>Node5&#45;&gt;Node7</title>
<g id="a_edge7_Node000005_Node000007"><a xlink:title=" ">
<path fill="none" stroke="#63b8ff" d="M377.86,-109.98C359.2,-101.46 330.25,-88.23 308.76,-78.41"/>
<polygon fill="#63b8ff" stroke="#63b8ff" points="310.03,-75.14 299.48,-74.17 307.12,-81.51 310.03,-75.14"/>
</a>
</g>
</g>
<!-- Node7&#45;&gt;Node6 -->
<g id="edge8_Node000007_Node000006" class="edge">
<title>Node7&#45;&gt;Node6</title>
<g id="a_edge8_Node000007_Node000006"><a xlink:title=" ">
<path fill="none" stroke="#63b8ff" d="M306.21,-54.98C332.95,-46.13 375.03,-32.19 404.95,-22.28"/>
<polygon fill="#63b8ff" stroke="#63b8ff" points="406.2,-25.55 414.59,-19.08 404,-18.9 406.2,-25.55"/>
</a>
</g>
</g>
<!-- Node8&#45;&gt;Node3 -->
<g id="edge11_Node000008_Node000003" class="edge">
<title>Node8&#45;&gt;Node3</title>
<g id="a_edge11_Node000008_Node000003"><a xlink:title=" ">
<path fill="none" stroke="#63b8ff" d="M343.03,-111.3C346.23,-110.83 349.42,-110.38 352.5,-110 458.43,-96.86 735.72,-121.12 831.5,-74 851.78,-64.02 868.14,-43.38 878.04,-28.33"/>
<polygon fill="#63b8ff" stroke="#63b8ff" points="881.27,-29.76 883.59,-19.42 875.33,-26.06 881.27,-29.76"/>
</a>
</g>
</g>
<!-- Node8&#45;&gt;Node6 -->
<g id="edge10_Node000008_Node000006" class="edge">
<title>Node8&#45;&gt;Node6</title>
<g id="a_edge10_Node000008_Node000006"><a xlink:title=" ">
<path fill="none" stroke="#63b8ff" d="M268.41,-109.95C233,-99.67 186.36,-80.56 207.5,-55 231.95,-25.44 344.23,-15.33 403.54,-12.03"/>
<polygon fill="#63b8ff" stroke="#63b8ff" points="403.82,-15.52 413.62,-11.5 403.45,-8.53 403.82,-15.52"/>
</a>
</g>
</g>
<!-- Node9 -->
<g id="Node000009" class="node">
<title>Node9</title>
<g id="a_Node000009"><a xlink:href="no__os__lf256fifo_8h.html" target="_top" xlink:title="SPSC lock&#45;free fifo of fixed size (256), specialized for UART.">
<polygon fill="white" stroke="#666666" points="728.5,-74 628.5,-74 628.5,-55 728.5,-55 728.5,-74"/>
<text text-anchor="middle" x="678.5" y="-62" font-family="Helvetica,sans-Serif" font-size="10.00">no_os_lf256fifo.h</text>
</a>
</g>
</g>
<!-- Node8&#45;&gt;Node9 -->
<g id="edge12_Node000008_Node000009" class="edge">
<title>Node8&#45;&gt;Node9</title>
<g id="a_edge12_Node000008_Node000009"><a xlink:title=" ">
<path fill="none" stroke="#63b8ff" d="M343.06,-111.51C346.25,-110.99 349.43,-110.48 352.5,-110 445.06,-95.66 552.8,-81.43 618.29,-73.06"/>
<polygon fill="#63b8ff" stroke="#63b8ff" points="618.96,-76.5 628.43,-71.76 618.07,-69.56 618.96,-76.5"/>
</a>
</g>
</g>
<!-- Node9&#45;&gt;Node3 -->
<g id="edge15_Node000009_Node000003" class="edge">
<title>Node9&#45;&gt;Node3</title>
<g id="a_edge15_Node000009_Node000003"><a xlink:title=" ">
<path fill="none" stroke="#63b8ff" d="M712.24,-54.98C749.04,-45.7 807.94,-30.83 847.41,-20.87"/>
<polygon fill="#63b8ff" stroke="#63b8ff" points="848.4,-24.23 857.24,-18.39 846.69,-17.44 848.4,-24.23"/>
</a>
</g>
</g>
<!-- Node9&#45;&gt;Node6 -->
<g id="edge14_Node000009_Node000006" class="edge">
<title>Node9&#45;&gt;Node6</title>
<g id="a_edge14_Node000009_Node000006"><a xlink:title=" ">
<path fill="none" stroke="#63b8ff" d="M640.26,-54.98C595.37,-44.99 521.46,-28.53 477.23,-18.68"/>
<polygon fill="#63b8ff" stroke="#63b8ff" points="477.72,-15.2 467.2,-16.45 476.2,-22.04 477.72,-15.2"/>
</a>
</g>
</g>
<!-- Node10 -->
<g id="Node000010" class="node">
<title>Node10</title>
<g id="a_Node000010"><a xlink:title=" ">
<polygon fill="#e0e0e0" stroke="#999999" points="758,-19 705,-19 705,0 758,0 758,-19"/>
<text text-anchor="middle" x="731.5" y="-7" font-family="Helvetica,sans-Serif" font-size="10.00">stdlib.h</text>
</a>
</g>
</g>
<!-- Node9&#45;&gt;Node10 -->
<g id="edge13_Node000009_Node000010" class="edge">
<title>Node9&#45;&gt;Node10</title>
<g id="a_edge13_Node000009_Node000010"><a xlink:title=" ">
<path fill="none" stroke="#63b8ff" d="M687.25,-54.75C694.97,-47.03 706.4,-35.6 715.72,-26.28"/>
<polygon fill="#63b8ff" stroke="#63b8ff" points="718.31,-28.64 722.91,-19.09 713.36,-23.69 718.31,-28.64"/>
</a>
</g>
</g>
<!-- Node11&#45;&gt;Node3 -->
<g id="edge18_Node000011_Node000003" class="edge">
<title>Node11&#45;&gt;Node3</title>
<g id="a_edge18_Node000011_Node000003"><a xlink:title=" ">
<path fill="none" stroke="#63b8ff" d="M905.86,-117.3C965.64,-114.41 1084.87,-104.84 1110.5,-74 1115.9,-67.51 1115.85,-61.53 1110.5,-55 1088.1,-27.67 987.65,-16.78 929.84,-12.72"/>
<polygon fill="#63b8ff" stroke="#63b8ff" points="929.78,-9.2 919.57,-12.03 929.31,-16.19 929.78,-9.2"/>
</a>
</g>
</g>
<!-- Node11&#45;&gt;Node6 -->
<g id="edge17_Node000011_Node000006" class="edge">
<title>Node11&#45;&gt;Node6</title>
<g id="a_edge17_Node000011_Node000006"><a xlink:title=" ">
<path fill="none" stroke="#63b8ff" d="M837.31,-115.62C788.13,-110.77 695.01,-98.96 619.5,-74 601.57,-68.07 599,-62.09 581.5,-55 546.7,-40.91 505.64,-28.4 476.83,-20.25"/>
<polygon fill="#63b8ff" stroke="#63b8ff" points="477.76,-16.88 467.19,-17.56 475.88,-23.62 477.76,-16.88"/>
</a>
</g>
</g>
<!-- Node12 -->
<g id="Node000012" class="node">
<title>Node12</title>
<g id="a_Node000012"><a xlink:title=" ">
<polygon fill="#e0e0e0" stroke="#999999" points="1207.5,-74 1157.5,-74 1157.5,-55 1207.5,-55 1207.5,-74"/>
<text text-anchor="middle" x="1182.5" y="-62" font-family="Helvetica,sans-Serif" font-size="10.00">stdio.h</text>
</a>
</g>
</g>
<!-- Node11&#45;&gt;Node12 -->
<g id="edge19_Node000011_Node000012" class="edge">
<title>Node11&#45;&gt;Node12</title>
<g id="a_edge19_Node000011_Node000012"><a xlink:title=" ">
<path fill="none" stroke="#63b8ff" d="M905.52,-113.52C957.12,-105.83 1058.19,-90.26 1143.5,-74 1144.76,-73.76 1146.05,-73.51 1147.35,-73.25"/>
<polygon fill="#63b8ff" stroke="#63b8ff" points="1148.28,-76.63 1157.36,-71.18 1146.86,-69.78 1148.28,-76.63"/>
</a>
</g>
</g>
<!-- Node13 -->
<g id="Node000013" class="node">
<title>Node13</title>
<g id="a_Node000013"><a xlink:href="no__os__gpio_8h.html" target="_top" xlink:title="Header file of GPIO Interface.">
<polygon fill="white" stroke="#666666" points="480.5,-74 400.5,-74 400.5,-55 480.5,-55 480.5,-74"/>
<text text-anchor="middle" x="440.5" y="-62" font-family="Helvetica,sans-Serif" font-size="10.00">no_os_gpio.h</text>
</a>
</g>
</g>
<!-- Node11&#45;&gt;Node13 -->
<g id="edge20_Node000011_Node000013" class="edge">
<title>Node11&#45;&gt;Node13</title>
<g id="a_edge20_Node000011_Node000013"><a xlink:title=" ">
<path fill="none" stroke="#63b8ff" d="M837.43,-115.18C772.21,-108.67 624.95,-93.32 490.64,-74.09"/>
<polygon fill="#63b8ff" stroke="#63b8ff" points="490.98,-70.6 480.58,-72.64 489.98,-77.53 490.98,-70.6"/>
</a>
</g>
</g>
<!-- Node14 -->
<g id="Node000014" class="node">
<title>Node14</title>
<g id="a_Node000014"><a xlink:href="no__os__i2c_8h.html" target="_top" xlink:title="Header file of I2C Interface.">
<polygon fill="white" stroke="#666666" points="572.5,-74 498.5,-74 498.5,-55 572.5,-55 572.5,-74"/>
<text text-anchor="middle" x="535.5" y="-62" font-family="Helvetica,sans-Serif" font-size="10.00">no_os_i2c.h</text>
</a>
</g>
</g>
<!-- Node11&#45;&gt;Node14 -->
<g id="edge22_Node000011_Node000014" class="edge">
<title>Node11&#45;&gt;Node14</title>
<g id="a_edge22_Node000011_Node000014"><a xlink:title=" ">
<path fill="none" stroke="#63b8ff" d="M837.26,-113.27C783.73,-105.07 676.97,-88.6 586.5,-74 585.23,-73.79 583.94,-73.59 582.64,-73.37"/>
<polygon fill="#63b8ff" stroke="#63b8ff" points="582.97,-69.88 572.54,-71.72 581.84,-76.79 582.97,-69.88"/>
</a>
</g>
</g>
<!-- Node15 -->
<g id="Node000015" class="node">
<title>Node15</title>
<g id="a_Node000015"><a xlink:href="no__os__pwm_8h.html" target="_top" xlink:title="Header file of PWM Interface.">
<polygon fill="white" stroke="#666666" points="1000,-74 917,-74 917,-55 1000,-55 1000,-74"/>
<text text-anchor="middle" x="958.5" y="-62" font-family="Helvetica,sans-Serif" font-size="10.00">no_os_pwm.h</text>
</a>
</g>
</g>
<!-- Node11&#45;&gt;Node15 -->
<g id="edge24_Node000011_Node000015" class="edge">
<title>Node11&#45;&gt;Node15</title>
<g id="a_edge24_Node000011_Node000015"><a xlink:title=" ">
<path fill="none" stroke="#63b8ff" d="M885.48,-109.98C898.97,-101.77 919.63,-89.18 935.54,-79.49"/>
<polygon fill="#63b8ff" stroke="#63b8ff" points="937.55,-82.36 944.27,-74.17 933.91,-76.38 937.55,-82.36"/>
</a>
</g>
</g>
<!-- Node16 -->
<g id="Node000016" class="node">
<title>Node16</title>
<g id="a_Node000016"><a xlink:href="no__os__util_8h.html" target="_top" xlink:title="Header file of utility functions.">
<polygon fill="white" stroke="#666666" points="822,-74 747,-74 747,-55 822,-55 822,-74"/>
<text text-anchor="middle" x="784.5" y="-62" font-family="Helvetica,sans-Serif" font-size="10.00">no_os_util.h</text>
</a>
</g>
</g>
<!-- Node11&#45;&gt;Node16 -->
<g id="edge27_Node000011_Node000016" class="edge">
<title>Node11&#45;&gt;Node16</title>
<g id="a_edge27_Node000011_Node000016"><a xlink:title=" ">
<path fill="none" stroke="#63b8ff" d="M857.52,-109.98C844.03,-101.77 823.37,-89.18 807.46,-79.49"/>
<polygon fill="#63b8ff" stroke="#63b8ff" points="809.09,-76.38 798.73,-74.17 805.45,-82.36 809.09,-76.38"/>
</a>
</g>
</g>
<!-- Node17 -->
<g id="Node000017" class="node">
<title>Node17</title>
<g id="a_Node000017"><a xlink:href="no__os__units_8h.html" target="_top" xlink:title="Header file of Units.">
<polygon fill="white" stroke="#666666" points="1101,-74 1018,-74 1018,-55 1101,-55 1101,-74"/>
<text text-anchor="middle" x="1059.5" y="-62" font-family="Helvetica,sans-Serif" font-size="10.00">no_os_units.h</text>
</a>
</g>
</g>
<!-- Node11&#45;&gt;Node17 -->
<g id="edge31_Node000011_Node000017" class="edge">
<title>Node11&#45;&gt;Node17</title>
<g id="a_edge31_Node000011_Node000017"><a xlink:title=" ">
<path fill="none" stroke="#63b8ff" d="M901.71,-109.98C933.54,-101.01 983.86,-86.82 1019.1,-76.89"/>
<polygon fill="#63b8ff" stroke="#63b8ff" points="1020.38,-80.16 1029.06,-74.08 1018.48,-73.43 1020.38,-80.16"/>
</a>
</g>
</g>
<!-- Node13&#45;&gt;Node6 -->
<g id="edge21_Node000013_Node000006" class="edge">
<title>Node13&#45;&gt;Node6</title>
<g id="a_edge21_Node000013_Node000006"><a xlink:title=" ">
<path fill="none" stroke="#63b8ff" d="M440.5,-54.75C440.5,-47.8 440.5,-37.85 440.5,-29.13"/>
<polygon fill="#63b8ff" stroke="#63b8ff" points="444,-29.09 440.5,-19.09 437,-29.09 444,-29.09"/>
</a>
</g>
</g>
<!-- Node14&#45;&gt;Node6 -->
<g id="edge23_Node000014_Node000006" class="edge">
<title>Node14&#45;&gt;Node6</title>
<g id="a_edge23_Node000014_Node000006"><a xlink:title=" ">
<path fill="none" stroke="#63b8ff" d="M520.24,-54.98C505.37,-46.69 482.52,-33.94 465.08,-24.22"/>
<polygon fill="#63b8ff" stroke="#63b8ff" points="466.48,-20.99 456.04,-19.17 463.07,-27.1 466.48,-20.99"/>
</a>
</g>
</g>
<!-- Node15&#45;&gt;Node3 -->
<g id="edge26_Node000015_Node000003" class="edge">
<title>Node15&#45;&gt;Node3</title>
<g id="a_edge26_Node000015_Node000003"><a xlink:title=" ">
<path fill="none" stroke="#63b8ff" d="M947.25,-54.98C936.7,-47 920.7,-34.88 908.06,-25.31"/>
<polygon fill="#63b8ff" stroke="#63b8ff" points="910.04,-22.42 899.95,-19.17 905.81,-28 910.04,-22.42"/>
</a>
</g>
</g>
<!-- Node15&#45;&gt;Node6 -->
<g id="edge25_Node000015_Node000006" class="edge">
<title>Node15&#45;&gt;Node6</title>
<g id="a_edge25_Node000015_Node000006"><a xlink:title=" ">
<path fill="none" stroke="#63b8ff" d="M916.99,-59.25C818.28,-49.15 570.83,-23.84 477.19,-14.25"/>
<polygon fill="#63b8ff" stroke="#63b8ff" points="477.37,-10.75 467.06,-13.22 476.65,-17.72 477.37,-10.75"/>
</a>
</g>
</g>
<!-- Node16&#45;&gt;Node3 -->
<g id="edge30_Node000016_Node000003" class="edge">
<title>Node16&#45;&gt;Node3</title>
<g id="a_edge30_Node000016_Node000003"><a xlink:title=" ">
<path fill="none" stroke="#63b8ff" d="M801.21,-54.98C817.71,-46.57 843.2,-33.59 862.38,-23.81"/>
<polygon fill="#63b8ff" stroke="#63b8ff" points="864.17,-26.83 871.49,-19.17 860.99,-20.59 864.17,-26.83"/>
</a>
</g>
</g>
<!-- Node16&#45;&gt;Node6 -->
<g id="edge28_Node000016_Node000006" class="edge">
<title>Node16&#45;&gt;Node6</title>
<g id="a_edge28_Node000016_Node000006"><a xlink:title=" ">
<path fill="none" stroke="#63b8ff" d="M746.81,-56.58C743.66,-56.03 740.53,-55.5 737.5,-55 643.99,-39.54 533.52,-23.6 477.33,-15.65"/>
<polygon fill="#63b8ff" stroke="#63b8ff" points="477.56,-12.15 467.17,-14.22 476.58,-19.08 477.56,-12.15"/>
</a>
</g>
</g>
<!-- Node16&#45;&gt;Node10 -->
<g id="edge29_Node000016_Node000010" class="edge">
<title>Node16&#45;&gt;Node10</title>
<g id="a_edge29_Node000016_Node000010"><a xlink:title=" ">
<path fill="none" stroke="#63b8ff" d="M775.75,-54.75C768.03,-47.03 756.6,-35.6 747.28,-26.28"/>
<polygon fill="#63b8ff" stroke="#63b8ff" points="749.64,-23.69 740.09,-19.09 744.69,-28.64 749.64,-23.69"/>
</a>
</g>
</g>
<!-- Node19&#45;&gt;Node12 -->
<g id="edge34_Node000019_Node000012" class="edge">
<title>Node19&#45;&gt;Node12</title>
<g id="a_edge34_Node000019_Node000012"><a xlink:title=" ">
<path fill="none" stroke="#63b8ff" d="M993.92,-219.97C1025.87,-193.79 1122.81,-114.39 1163.84,-80.79"/>
<polygon fill="#63b8ff" stroke="#63b8ff" points="1166.18,-83.39 1171.7,-74.34 1161.75,-77.97 1166.18,-83.39"/>
</a>
</g>
</g>
<!-- Node20&#45;&gt;Node4 -->
<g id="edge36_Node000020_Node000004" class="edge">
<title>Node20&#45;&gt;Node4</title>
<g id="a_edge36_Node000020_Node000004"><a xlink:title=" ">
<path fill="none" stroke="#63b8ff" d="M287.89,-219.98C304.07,-211.57 329.07,-198.59 347.88,-188.81"/>
<polygon fill="#63b8ff" stroke="#63b8ff" points="349.55,-191.89 356.81,-184.17 346.33,-185.68 349.55,-191.89"/>
</a>
</g>
</g>
<!-- Node20&#45;&gt;Node8 -->
<g id="edge39_Node000020_Node000008" class="edge">
<title>Node20&#45;&gt;Node8</title>
<g id="a_edge39_Node000020_Node000008"><a xlink:title=" ">
<path fill="none" stroke="#63b8ff" d="M274.12,-219.66C279.32,-202.09 291.07,-162.45 298.03,-138.95"/>
<polygon fill="#63b8ff" stroke="#63b8ff" points="301.45,-139.74 300.93,-129.16 294.74,-137.75 301.45,-139.74"/>
</a>
</g>
</g>
<!-- Node21 -->
<g id="Node000021" class="node">
<title>Node21</title>
<g id="a_Node000021"><a xlink:href="no__os__irq_8h.html" target="_top" xlink:title="Header file of IRQ interface.">
<polygon fill="white" stroke="#666666" points="275.5,-184 203.5,-184 203.5,-165 275.5,-165 275.5,-184"/>
<text text-anchor="middle" x="239.5" y="-172" font-family="Helvetica,sans-Serif" font-size="10.00">no_os_irq.h</text>
</a>
</g>
</g>
<!-- Node20&#45;&gt;Node21 -->
<g id="edge37_Node000020_Node000021" class="edge">
<title>Node20&#45;&gt;Node21</title>
<g id="a_edge37_Node000020_Node000021"><a xlink:title=" ">
<path fill="none" stroke="#63b8ff" d="M266.22,-219.75C261.79,-212.42 255.34,-201.73 249.88,-192.7"/>
<polygon fill="#63b8ff" stroke="#63b8ff" points="252.85,-190.84 244.69,-184.09 246.86,-194.46 252.85,-190.84"/>
</a>
</g>
</g>
<!-- Node22 -->
<g id="Node000022" class="node">
<title>Node22</title>
<g id="a_Node000022"><a xlink:href="no__os__error_8h.html" target="_top" xlink:title="Error codes definition.">
<polygon fill="white" stroke="#666666" points="185.5,-184 103.5,-184 103.5,-165 185.5,-165 185.5,-184"/>
<text text-anchor="middle" x="144.5" y="-172" font-family="Helvetica,sans-Serif" font-size="10.00">no_os_error.h</text>
</a>
</g>
</g>
<!-- Node20&#45;&gt;Node22 -->
<g id="edge40_Node000020_Node000022" class="edge">
<title>Node20&#45;&gt;Node22</title>
<g id="a_edge40_Node000020_Node000022"><a xlink:title=" ">
<path fill="none" stroke="#63b8ff" d="M251.1,-219.98C230.48,-211.38 198.39,-197.99 174.81,-188.15"/>
<polygon fill="#63b8ff" stroke="#63b8ff" points="175.85,-184.79 165.28,-184.17 173.16,-191.25 175.85,-184.79"/>
</a>
</g>
</g>
<!-- Node24 -->
<g id="Node000024" class="node">
<title>Node24</title>
<g id="a_Node000024"><a xlink:href="no__os__delay_8h.html" target="_top" xlink:title="Header file of Delay functions.">
<polygon fill="white" stroke="#666666" points="85,-184 0,-184 0,-165 85,-165 85,-184"/>
<text text-anchor="middle" x="42.5" y="-172" font-family="Helvetica,sans-Serif" font-size="10.00">no_os_delay.h</text>
</a>
</g>
</g>
<!-- Node20&#45;&gt;Node24 -->
<g id="edge42_Node000020_Node000024" class="edge">
<title>Node20&#45;&gt;Node24</title>
<g id="a_edge42_Node000020_Node000024"><a xlink:title=" ">
<path fill="none" stroke="#63b8ff" d="M240.62,-221.35C201.69,-212.34 134.4,-196.77 89.18,-186.3"/>
<polygon fill="#63b8ff" stroke="#63b8ff" points="89.85,-182.87 79.32,-184.02 88.27,-189.69 89.85,-182.87"/>
</a>
</g>
</g>
<!-- Node21&#45;&gt;Node6 -->
<g id="edge38_Node000021_Node000006" class="edge">
<title>Node21&#45;&gt;Node6</title>
<g id="a_edge38_Node000021_Node000006"><a xlink:title=" ">
<path fill="none" stroke="#63b8ff" d="M231.2,-164.74C212.16,-143.61 169.13,-89.04 197.5,-55 223.33,-24.01 342.41,-14.54 403.75,-11.69"/>
<polygon fill="#63b8ff" stroke="#63b8ff" points="403.95,-15.19 413.79,-11.26 403.65,-8.19 403.95,-15.19"/>
</a>
</g>
</g>
<!-- Node23 -->
<g id="Node000023" class="node">
<title>Node23</title>
<g id="a_Node000023"><a xlink:href="errno_8h.html" target="_top" xlink:title="Error macro definition for ARM Compiler.">
<polygon fill="white" stroke="#666666" points="122,-129 71,-129 71,-110 122,-110 122,-129"/>
<text text-anchor="middle" x="96.5" y="-117" font-family="Helvetica,sans-Serif" font-size="10.00">errno.h</text>
</a>
</g>
</g>
<!-- Node22&#45;&gt;Node23 -->
<g id="edge41_Node000022_Node000023" class="edge">
<title>Node22&#45;&gt;Node23</title>
<g id="a_edge41_Node000022_Node000023"><a xlink:title=" ">
<path fill="none" stroke="#63b8ff" d="M136.57,-164.75C129.65,-157.11 119.43,-145.82 111.05,-136.56"/>
<polygon fill="#63b8ff" stroke="#63b8ff" points="113.59,-134.15 104.28,-129.09 108.4,-138.85 113.59,-134.15"/>
</a>
</g>
</g>
<!-- Node24&#45;&gt;Node6 -->
<g id="edge43_Node000024_Node000006" class="edge">
<title>Node24&#45;&gt;Node6</title>
<g id="a_edge43_Node000024_Node000006"><a xlink:title=" ">
<path fill="none" stroke="#63b8ff" d="M42.88,-164.59C43.91,-151.19 47.68,-125.74 61.5,-110 101.01,-65 127.23,-72.48 184.5,-55 260.63,-31.76 353.43,-19.42 403.76,-13.99"/>
<polygon fill="#63b8ff" stroke="#63b8ff" points="404.25,-17.46 413.83,-12.93 403.52,-10.49 404.25,-17.46"/>
</a>
</g>
</g>
</g>
</svg>
