<?xml version="1.0" encoding="UTF-8" standalone="no"?>
<!DOCTYPE svg PUBLIC "-//W3C//DTD SVG 1.1//EN"
 "http://www.w3.org/Graphics/SVG/1.1/DTD/svg11.dtd">
<!-- Generated by graphviz version 2.43.0 (0)
 -->
<!-- Title: drivers/power/adp1055/adp1055.h Pages: 1 -->
<!--zoomable 192 -->

<svg id="main" version="1.1" xmlns="http://www.w3.org/2000/svg" xmlns:xlink="http://www.w3.org/1999/xlink" xml:space="preserve" onload="init(evt)">

<style type="text/css"><![CDATA[
.node, .edge {opacity: 0.7;}
.node.selected, .edge.selected {opacity: 1;}
.edge:hover path { stroke: red; }
.edge:hover polygon { stroke: red; fill: red; }
]]></style>

<defs>
  <circle id="rim" cx="0" cy="0" r="7"/>
  <circle id="rim2" cx="0" cy="0" r="3.5"/>
  <g id="zoomPlus">
    <use xlink:href="#rim" fill="#404040"><set attributeName="fill" to="#808080" begin="zoomplus.mouseover" end="zoomplus.mouseout"/></use>
    <path d="M-4,0h8M0,-4v8" fill="none" stroke="white" stroke-width="1.5" pointer-events="none"/>
  </g>
  <g id="zoomMin">
    <use xlink:href="#rim" fill="#404040"><set attributeName="fill" to="#808080" begin="zoomminus.mouseover" end="zoomminus.mouseout"/></use>
    <path d="M-4,0h8" fill="none" stroke="white" stroke-width="1.5" pointer-events="none"/>
  </g>
  <g id="arrowUp" transform="translate(30 24)">
    <use xlink:href="#rim"/>
    <path pointer-events="none" fill="none" stroke="white" stroke-width="1.5" d="M0,-3.0v7 M-2.5,-0.5L0,-3.0L2.5,-0.5"/>
  </g>
  <g id="arrowRight" transform="rotate(90) translate(36 -43)">
    <use xlink:href="#rim"/>
    <path pointer-events="none" fill="none" stroke="white" stroke-width="1.5" d="M0,-3.0v7 M-2.5,-0.5L0,-3.0L2.5,-0.5"/>
  </g>
  <g id="arrowDown" transform="rotate(180) translate(-30 -48)">
    <use xlink:href="#rim"/>
    <path pointer-events="none" fill="none" stroke="white" stroke-width="1.5" d="M0,-3.0v7 M-2.5,-0.5L0,-3.0L2.5,-0.5"/>
  </g>
  <g id="arrowLeft" transform="rotate(270) translate(-36 17)">
    <use xlink:href="#rim"/>
    <path pointer-events="none" fill="none" stroke="white" stroke-width="1.5" d="M0,-3.0v7 M-2.5,-0.5L0,-3.0L2.5,-0.5"/>
  </g>
  <g id="resetDef">
    <use xlink:href="#rim2" fill="#404040"><set attributeName="fill" to="#808080" begin="reset.mouseover" end="reset.mouseout"/></use>
  </g>
</defs>
<script type="application/ecmascript">
var viewWidth = 626;
var viewHeight = 192;
var sectionId = 'dynsection-1';
</script>
<script type="application/ecmascript" xlink:href="svg.min.js"/>
<svg id="graph" class="graph">
<g id="viewport">
<title>drivers/power/adp1055/adp1055.h</title>
<!-- Node1 -->
<g id="Node000001" class="node">
<title>Node1</title>
<g id="a_Node000001"><a xlink:title="Header file for the ADP1055 Driver.">
<polygon fill="#999999" stroke="#666666" points="312,-184 184,-184 184,-154 312,-154 312,-184"/>
<text text-anchor="start" x="192" y="-172" font-family="Helvetica,sans-Serif" font-size="10.00">drivers/power/adp1055</text>
<text text-anchor="middle" x="248" y="-161" font-family="Helvetica,sans-Serif" font-size="10.00">/adp1055.h</text>
</a>
</g>
</g>
<!-- Node2 -->
<g id="Node000002" class="node">
<title>Node2</title>
<g id="a_Node000002"><a xlink:href="adp1055_8c.html" target="_top" xlink:title="Source file for the ADP1055 Driver.">
<polygon fill="white" stroke="#666666" points="128,-112.5 0,-112.5 0,-82.5 128,-82.5 128,-112.5"/>
<text text-anchor="start" x="8" y="-100.5" font-family="Helvetica,sans-Serif" font-size="10.00">drivers/power/adp1055</text>
<text text-anchor="middle" x="64" y="-89.5" font-family="Helvetica,sans-Serif" font-size="10.00">/adp1055.c</text>
</a>
</g>
</g>
<!-- Node1&#45;&gt;Node2 -->
<g id="edge1_Node000001_Node000002" class="edge">
<title>Node1&#45;&gt;Node2</title>
<g id="a_edge1_Node000001_Node000002"><a xlink:title=" ">
<path fill="none" stroke="#63b8ff" d="M201.04,-150.26C170.04,-138.55 129.97,-123.42 101.18,-112.54"/>
<polygon fill="#63b8ff" stroke="#63b8ff" points="200.17,-153.68 210.76,-153.94 202.65,-147.13 200.17,-153.68"/>
</a>
</g>
</g>
<!-- Node3 -->
<g id="Node000003" class="node">
<title>Node3</title>
<g id="a_Node000003"><a xlink:href="iio__adp1055_8c.html" target="_top" xlink:title="Source file for the ADP1055 IIO Driver.">
<polygon fill="white" stroke="#666666" points="192,-35.5 64,-35.5 64,-5.5 192,-5.5 192,-35.5"/>
<text text-anchor="start" x="72" y="-23.5" font-family="Helvetica,sans-Serif" font-size="10.00">drivers/power/adp1055</text>
<text text-anchor="middle" x="128" y="-12.5" font-family="Helvetica,sans-Serif" font-size="10.00">/iio_adp1055.c</text>
</a>
</g>
</g>
<!-- Node1&#45;&gt;Node3 -->
<g id="edge2_Node000001_Node000003" class="edge">
<title>Node1&#45;&gt;Node3</title>
<g id="a_edge2_Node000001_Node000003"><a xlink:title=" ">
<path fill="none" stroke="#63b8ff" d="M212.09,-148.65C199.22,-140.45 185.35,-130 175,-118 153.21,-92.74 138.92,-55.63 132.29,-35.58"/>
<polygon fill="#63b8ff" stroke="#63b8ff" points="210.42,-151.74 220.78,-153.96 214.07,-145.76 210.42,-151.74"/>
</a>
</g>
</g>
<!-- Node4 -->
<g id="Node000004" class="node">
<title>Node4</title>
<g id="a_Node000004"><a xlink:href="iio__adp1055_8h.html" target="_top" xlink:title="Header file for the ADP1055 IIO Driver.">
<polygon fill="white" stroke="#666666" points="312,-112.5 184,-112.5 184,-82.5 312,-82.5 312,-112.5"/>
<text text-anchor="start" x="192" y="-100.5" font-family="Helvetica,sans-Serif" font-size="10.00">drivers/power/adp1055</text>
<text text-anchor="middle" x="248" y="-89.5" font-family="Helvetica,sans-Serif" font-size="10.00">/iio_adp1055.h</text>
</a>
</g>
</g>
<!-- Node1&#45;&gt;Node4 -->
<g id="edge3_Node000001_Node000004" class="edge">
<title>Node1&#45;&gt;Node4</title>
<g id="a_edge3_Node000001_Node000004"><a xlink:title=" ">
<path fill="none" stroke="#63b8ff" d="M248,-143.75C248,-133.31 248,-121.49 248,-112.54"/>
<polygon fill="#63b8ff" stroke="#63b8ff" points="244.5,-143.94 248,-153.94 251.5,-143.94 244.5,-143.94"/>
</a>
</g>
</g>
<!-- Node6 -->
<g id="Node000006" class="node">
<title>Node6</title>
<g id="a_Node000006"><a xlink:href="adp1055_2src_2common_2common__data_8h.html" target="_top" xlink:title="Defines common data to be used by adp1055 examples.">
<polygon fill="white" stroke="#666666" points="474,-112.5 330,-112.5 330,-82.5 474,-82.5 474,-112.5"/>
<text text-anchor="start" x="338" y="-100.5" font-family="Helvetica,sans-Serif" font-size="10.00">projects/adp1055/src</text>
<text text-anchor="middle" x="402" y="-89.5" font-family="Helvetica,sans-Serif" font-size="10.00">/common/common_data.h</text>
</a>
</g>
</g>
<!-- Node1&#45;&gt;Node6 -->
<g id="edge6_Node000001_Node000006" class="edge">
<title>Node1&#45;&gt;Node6</title>
<g id="a_edge6_Node000001_Node000006"><a xlink:title=" ">
<path fill="none" stroke="#63b8ff" d="M288.32,-149.81C314.12,-138.16 347.1,-123.28 370.88,-112.54"/>
<polygon fill="#63b8ff" stroke="#63b8ff" points="286.84,-146.63 279.16,-153.94 289.72,-153.01 286.84,-146.63"/>
</a>
</g>
</g>
<!-- Node8 -->
<g id="Node000008" class="node">
<title>Node8</title>
<g id="a_Node000008"><a xlink:href="adp1055_2src_2examples_2basic_2basic__example_8c.html" target="_top" xlink:title="Basic example source file for adp1055 project.">
<polygon fill="white" stroke="#666666" points="617.5,-118 492.5,-118 492.5,-77 617.5,-77 617.5,-118"/>
<text text-anchor="start" x="500.5" y="-106" font-family="Helvetica,sans-Serif" font-size="10.00">projects/adp1055/src</text>
<text text-anchor="start" x="500.5" y="-95" font-family="Helvetica,sans-Serif" font-size="10.00">/examples/basic/basic</text>
<text text-anchor="middle" x="555" y="-84" font-family="Helvetica,sans-Serif" font-size="10.00">_example.c</text>
</a>
</g>
</g>
<!-- Node1&#45;&gt;Node8 -->
<g id="edge8_Node000001_Node000008" class="edge">
<title>Node1&#45;&gt;Node8</title>
<g id="a_edge8_Node000001_Node000008"><a xlink:title=" ">
<path fill="none" stroke="#63b8ff" d="M322.02,-153.34C368.4,-143.88 429.36,-130.96 483,-118 486.02,-117.27 489.11,-116.51 492.22,-115.72"/>
<polygon fill="#63b8ff" stroke="#63b8ff" points="321.15,-149.94 312.05,-155.36 322.54,-156.8 321.15,-149.94"/>
</a>
</g>
</g>
<!-- Node4&#45;&gt;Node3 -->
<g id="edge4_Node000004_Node000003" class="edge">
<title>Node4&#45;&gt;Node3</title>
<g id="a_edge4_Node000004_Node000003"><a xlink:title=" ">
<path fill="none" stroke="#63b8ff" d="M216.93,-77.08C196.12,-64.08 169.21,-47.26 150.47,-35.54"/>
<polygon fill="#63b8ff" stroke="#63b8ff" points="215.09,-80.06 225.43,-82.39 218.8,-74.13 215.09,-80.06"/>
</a>
</g>
</g>
<!-- Node5 -->
<g id="Node000005" class="node">
<title>Node5</title>
<g id="a_Node000005"><a xlink:href="adp1055_2src_2examples_2iio__example_2iio__example_8c.html" target="_top" xlink:title="IIO example source file for adp1055 project.">
<polygon fill="white" stroke="#666666" points="341.5,-41 210.5,-41 210.5,0 341.5,0 341.5,-41"/>
<text text-anchor="start" x="218.5" y="-29" font-family="Helvetica,sans-Serif" font-size="10.00">projects/adp1055/src</text>
<text text-anchor="start" x="218.5" y="-18" font-family="Helvetica,sans-Serif" font-size="10.00">/examples/iio_example</text>
<text text-anchor="middle" x="276" y="-7" font-family="Helvetica,sans-Serif" font-size="10.00">/iio_example.c</text>
</a>
</g>
</g>
<!-- Node4&#45;&gt;Node5 -->
<g id="edge5_Node000004_Node000005" class="edge">
<title>Node4&#45;&gt;Node5</title>
<g id="a_edge5_Node000004_Node000005"><a xlink:title=" ">
<path fill="none" stroke="#63b8ff" d="M256.82,-72.87C260.62,-62.69 265.02,-50.91 268.64,-41.2"/>
<polygon fill="#63b8ff" stroke="#63b8ff" points="253.49,-71.8 253.27,-82.39 260.04,-74.25 253.49,-71.8"/>
</a>
</g>
</g>
<!-- Node7 -->
<g id="Node000007" class="node">
<title>Node7</title>
<g id="a_Node000007"><a xlink:href="adp1055_2src_2common_2common__data_8c.html" target="_top" xlink:title="Defines common data to be used by adp1055 examples.">
<polygon fill="white" stroke="#666666" points="502.5,-35.5 359.5,-35.5 359.5,-5.5 502.5,-5.5 502.5,-35.5"/>
<text text-anchor="start" x="367.5" y="-23.5" font-family="Helvetica,sans-Serif" font-size="10.00">projects/adp1055/src</text>
<text text-anchor="middle" x="431" y="-12.5" font-family="Helvetica,sans-Serif" font-size="10.00">/common/common_data.c</text>
</a>
</g>
</g>
<!-- Node6&#45;&gt;Node7 -->
<g id="edge7_Node000006_Node000007" class="edge">
<title>Node6&#45;&gt;Node7</title>
<g id="a_edge7_Node000006_Node000007"><a xlink:title=" ">
<path fill="none" stroke="#63b8ff" d="M411.17,-72.78C415.91,-60.53 421.53,-46 425.57,-35.54"/>
<polygon fill="#63b8ff" stroke="#63b8ff" points="407.8,-71.8 407.45,-82.39 414.33,-74.33 407.8,-71.8"/>
</a>
</g>
</g>
</g>
</svg>

<g id="navigator" transform="translate(0 0)" fill="#404254">
  <rect fill="#f2f5e9" fill-opacity="0.5" stroke="#606060" stroke-width=".5" x="0" y="0" width="60" height="60"/>
  <use id="zoomplus" xlink:href="#zoomPlus" x="17" y="9" onmousedown="handleZoom(evt,'in')"/>
  <use id="zoomminus" xlink:href="#zoomMin" x="42" y="9" onmousedown="handleZoom(evt,'out')"/>
  <use id="reset" xlink:href="#resetDef" x="30" y="36" onmousedown="handleReset()"/>
   <use id="arrowup" xlink:href="#arrowUp" x="0" y="0" onmousedown="handlePan(0,-1)"/>
  <use id="arrowright" xlink:href="#arrowRight" x="0" y="0" onmousedown="handlePan(1,0)"/>
  <use id="arrowdown" xlink:href="#arrowDown" x="0" y="0" onmousedown="handlePan(0,1)"/>
  <use id="arrowleft" xlink:href="#arrowLeft" x="0" y="0" onmousedown="handlePan(-1,0)"/>
</g>
<svg viewBox="0 0 15 15" width="100%" height="30px" preserveAspectRatio="xMaxYMin meet">
 <g id="arrow_out" transform="scale(0.3 0.3)">
  <a xlink:href="adp1055_8h__dep__incl_org.svg" target="_base">
   <rect id="button" ry="5" rx="5" y="6" x="6" height="38" width="38"
        fill="#f2f5e9" fill-opacity="0.5" stroke="#606060" stroke-width="1.0"/>
   <path id="arrow"
     d="M 11.500037,31.436501 C 11.940474,20.09759 22.043105,11.32322 32.158766,21.979434 L 37.068811,17.246167 C 37.068811,17.246167 37.088388,32 37.088388,32 L 22.160133,31.978069 C 22.160133,31.978069 26.997745,27.140456 26.997745,27.140456 C 18.528582,18.264221 13.291696,25.230495 11.500037,31.436501 z"
     style="fill:#404040;"/>
  </a>
 </g>
</svg>

<style type='text/css'>
<![CDATA[
[data-mouse-over-selected='false'] { opacity: 0.7; }
[data-mouse-over-selected='true']  { opacity: 1.0; }
]]>
</style>
<script type="application/ecmascript"><![CDATA[
document.addEventListener('DOMContentLoaded', (event) => {
  highlightEdges();
  highlightAdjacentNodes();
});
]]></script>
</svg>
