<?xml version="1.0" encoding="UTF-8" standalone="no"?>
<!DOCTYPE svg PUBLIC "-//W3C//DTD SVG 1.1//EN"
 "http://www.w3.org/Graphics/SVG/1.1/DTD/svg11.dtd">
<!-- Generated by graphviz version 2.43.0 (0)
 -->
<!-- Title: projects/adrv903x/src/common/clkgen_routines.h Pages: 1 -->
<svg width="226pt" height="148pt"
 viewBox="0.00 0.00 226.00 148.00" xmlns="http://www.w3.org/2000/svg" xmlns:xlink="http://www.w3.org/1999/xlink">
<g id="graph0" class="graph" transform="scale(1 1) rotate(0) translate(4 144)">
<title>projects/adrv903x/src/common/clkgen_routines.h</title>
<!-- Node1 -->
<g id="Node000001" class="node">
<title>Node1</title>
<g id="a_Node000001"><a xlink:title="AXI clkgen setup for ADRV903X project.">
<polygon fill="#999999" stroke="#666666" points="186,-140 34,-140 34,-110 186,-110 186,-140"/>
<text text-anchor="start" x="42" y="-128" font-family="Helvetica,sans-Serif" font-size="10.00">projects/adrv903x/src</text>
<text text-anchor="middle" x="110" y="-117" font-family="Helvetica,sans-Serif" font-size="10.00">/common/clkgen_routines.h</text>
</a>
</g>
</g>
<!-- Node2 -->
<g id="Node000002" class="node">
<title>Node2</title>
<g id="a_Node000002"><a xlink:href="no__os__print__log_8h.html" target="_top" xlink:title="Print messages helpers.">
<polygon fill="white" stroke="#666666" points="102,-74 0,-74 0,-55 102,-55 102,-74"/>
<text text-anchor="middle" x="51" y="-62" font-family="Helvetica,sans-Serif" font-size="10.00">no_os_print_log.h</text>
</a>
</g>
</g>
<!-- Node1&#45;&gt;Node2 -->
<g id="edge1_Node000001_Node000002" class="edge">
<title>Node1&#45;&gt;Node2</title>
<g id="a_edge1_Node000001_Node000002"><a xlink:title=" ">
<path fill="none" stroke="#63b8ff" d="M95.72,-109.84C87.07,-101.26 76.01,-90.3 67.06,-81.42"/>
<polygon fill="#63b8ff" stroke="#63b8ff" points="69.41,-78.82 59.84,-74.27 64.48,-83.79 69.41,-78.82"/>
</a>
</g>
</g>
<!-- Node4 -->
<g id="Node000004" class="node">
<title>Node4</title>
<g id="a_Node000004"><a xlink:href="clk__axi__clkgen_8h.html" target="_top" xlink:title="Driver for the Analog Devices AXI CLKGEN.">
<polygon fill="white" stroke="#666666" points="218,-74 120,-74 120,-55 218,-55 218,-74"/>
<text text-anchor="middle" x="169" y="-62" font-family="Helvetica,sans-Serif" font-size="10.00">clk_axi_clkgen.h</text>
</a>
</g>
</g>
<!-- Node1&#45;&gt;Node4 -->
<g id="edge3_Node000001_Node000004" class="edge">
<title>Node1&#45;&gt;Node4</title>
<g id="a_edge3_Node000001_Node000004"><a xlink:title=" ">
<path fill="none" stroke="#63b8ff" d="M124.28,-109.84C132.93,-101.26 143.99,-90.3 152.94,-81.42"/>
<polygon fill="#63b8ff" stroke="#63b8ff" points="155.52,-83.79 160.16,-74.27 150.59,-78.82 155.52,-83.79"/>
</a>
</g>
</g>
<!-- Node3 -->
<g id="Node000003" class="node">
<title>Node3</title>
<g id="a_Node000003"><a xlink:title=" ">
<polygon fill="#e0e0e0" stroke="#999999" points="76,-19 26,-19 26,0 76,0 76,-19"/>
<text text-anchor="middle" x="51" y="-7" font-family="Helvetica,sans-Serif" font-size="10.00">stdio.h</text>
</a>
</g>
</g>
<!-- Node2&#45;&gt;Node3 -->
<g id="edge2_Node000002_Node000003" class="edge">
<title>Node2&#45;&gt;Node3</title>
<g id="a_edge2_Node000002_Node000003"><a xlink:title=" ">
<path fill="none" stroke="#63b8ff" d="M51,-54.75C51,-47.8 51,-37.85 51,-29.13"/>
<polygon fill="#63b8ff" stroke="#63b8ff" points="54.5,-29.09 51,-19.09 47.5,-29.09 54.5,-29.09"/>
</a>
</g>
</g>
<!-- Node5 -->
<g id="Node000005" class="node">
<title>Node5</title>
<g id="a_Node000005"><a xlink:title=" ">
<polygon fill="#e0e0e0" stroke="#999999" points="195.5,-19 142.5,-19 142.5,0 195.5,0 195.5,-19"/>
<text text-anchor="middle" x="169" y="-7" font-family="Helvetica,sans-Serif" font-size="10.00">stdint.h</text>
</a>
</g>
</g>
<!-- Node4&#45;&gt;Node5 -->
<g id="edge4_Node000004_Node000005" class="edge">
<title>Node4&#45;&gt;Node5</title>
<g id="a_edge4_Node000004_Node000005"><a xlink:title=" ">
<path fill="none" stroke="#63b8ff" d="M169,-54.75C169,-47.8 169,-37.85 169,-29.13"/>
<polygon fill="#63b8ff" stroke="#63b8ff" points="172.5,-29.09 169,-19.09 165.5,-29.09 172.5,-29.09"/>
</a>
</g>
</g>
</g>
</svg>
