<?xml version="1.0" encoding="UTF-8" standalone="no"?>
<!DOCTYPE svg PUBLIC "-//W3C//DTD SVG 1.1//EN"
 "http://www.w3.org/Graphics/SVG/1.1/DTD/svg11.dtd">
<!-- Generated by graphviz version 2.43.0 (0)
 -->
<!-- Title: projects/adrv903x/src/examples/basic_example/basic_example.c Pages: 1 -->
<svg width="1552pt" height="214pt"
 viewBox="0.00 0.00 1552.00 214.00" xmlns="http://www.w3.org/2000/svg" xmlns:xlink="http://www.w3.org/1999/xlink">
<g id="graph0" class="graph" transform="scale(1 1) rotate(0) translate(4 210)">
<title>projects/adrv903x/src/examples/basic_example/basic_example.c</title>
<!-- Node1 -->
<g id="Node000001" class="node">
<title>Node1</title>
<g id="a_Node000001"><a xlink:title="Basic example for ADRV903X project.">
<polygon fill="#999999" stroke="#666666" points="951.5,-206 807.5,-206 807.5,-165 951.5,-165 951.5,-206"/>
<text text-anchor="start" x="815.5" y="-194" font-family="Helvetica,sans-Serif" font-size="10.00">projects/adrv903x/src</text>
<text text-anchor="start" x="815.5" y="-183" font-family="Helvetica,sans-Serif" font-size="10.00">/examples/basic_example</text>
<text text-anchor="middle" x="879.5" y="-172" font-family="Helvetica,sans-Serif" font-size="10.00">/basic_example.c</text>
</a>
</g>
</g>
<!-- Node2 -->
<g id="Node000002" class="node">
<title>Node2</title>
<g id="a_Node000002"><a xlink:href="adrv903x_2src_2examples_2basic__example_2basic__example_8h.html" target="_top" xlink:title="Basic example header for ADRV903X project.">
<polygon fill="white" stroke="#666666" points="99,-129 0,-129 0,-110 99,-110 99,-129"/>
<text text-anchor="middle" x="49.5" y="-117" font-family="Helvetica,sans-Serif" font-size="10.00">basic_example.h</text>
</a>
</g>
</g>
<!-- Node1&#45;&gt;Node2 -->
<g id="edge1_Node000001_Node000002" class="edge">
<title>Node1&#45;&gt;Node2</title>
<g id="a_edge1_Node000001_Node000002"><a xlink:title=" ">
<path fill="none" stroke="#63b8ff" d="M807.5,-181.1C672.52,-174.34 372.06,-157.45 109.26,-129.12"/>
<polygon fill="#63b8ff" stroke="#63b8ff" points="109.46,-125.62 99.14,-128.02 108.71,-132.58 109.46,-125.62"/>
</a>
</g>
</g>
<!-- Node3 -->
<g id="Node000003" class="node">
<title>Node3</title>
<g id="a_Node000003"><a xlink:title=" ">
<polygon fill="#e0e0e0" stroke="#999999" points="212,-129 117,-129 117,-110 212,-110 212,-129"/>
<text text-anchor="middle" x="164.5" y="-117" font-family="Helvetica,sans-Serif" font-size="10.00">common_data.h</text>
</a>
</g>
</g>
<!-- Node1&#45;&gt;Node3 -->
<g id="edge2_Node000001_Node000003" class="edge">
<title>Node1&#45;&gt;Node3</title>
<g id="a_edge2_Node000001_Node000003"><a xlink:title=" ">
<path fill="none" stroke="#63b8ff" d="M807.3,-179.93C687.87,-172.02 441.47,-154.31 222.15,-129"/>
<polygon fill="#63b8ff" stroke="#63b8ff" points="222.39,-125.5 212.06,-127.82 221.58,-132.45 222.39,-125.5"/>
</a>
</g>
</g>
<!-- Node4 -->
<g id="Node000004" class="node">
<title>Node4</title>
<g id="a_Node000004"><a xlink:title=" ">
<polygon fill="#e0e0e0" stroke="#999999" points="312.5,-129 230.5,-129 230.5,-110 312.5,-110 312.5,-129"/>
<text text-anchor="middle" x="271.5" y="-117" font-family="Helvetica,sans-Serif" font-size="10.00">parameters.h</text>
</a>
</g>
</g>
<!-- Node1&#45;&gt;Node4 -->
<g id="edge3_Node000001_Node000004" class="edge">
<title>Node1&#45;&gt;Node4</title>
<g id="a_edge3_Node000001_Node000004"><a xlink:title=" ">
<path fill="none" stroke="#63b8ff" d="M807.08,-178.91C702.41,-170.47 502.56,-153.02 322.58,-129.06"/>
<polygon fill="#63b8ff" stroke="#63b8ff" points="323.04,-125.59 312.67,-127.73 322.11,-132.53 323.04,-125.59"/>
</a>
</g>
</g>
<!-- Node5 -->
<g id="Node000005" class="node">
<title>Node5</title>
<g id="a_Node000005"><a xlink:title=" ">
<polygon fill="#e0e0e0" stroke="#999999" points="408.5,-129 330.5,-129 330.5,-110 408.5,-110 408.5,-129"/>
<text text-anchor="middle" x="369.5" y="-117" font-family="Helvetica,sans-Serif" font-size="10.00">app_config.h</text>
</a>
</g>
</g>
<!-- Node1&#45;&gt;Node5 -->
<g id="edge4_Node000001_Node000005" class="edge">
<title>Node1&#45;&gt;Node5</title>
<g id="a_edge4_Node000001_Node000005"><a xlink:title=" ">
<path fill="none" stroke="#63b8ff" d="M807.31,-177.09C718.39,-167.67 562.47,-150.25 418.82,-129.12"/>
<polygon fill="#63b8ff" stroke="#63b8ff" points="418.91,-125.6 408.5,-127.59 417.88,-132.52 418.91,-125.6"/>
</a>
</g>
</g>
<!-- Node6 -->
<g id="Node000006" class="node">
<title>Node6</title>
<g id="a_Node000006"><a xlink:title=" ">
<polygon fill="#e0e0e0" stroke="#999999" points="490,-129 427,-129 427,-110 490,-110 490,-129"/>
<text text-anchor="middle" x="458.5" y="-117" font-family="Helvetica,sans-Serif" font-size="10.00">initdata.h</text>
</a>
</g>
</g>
<!-- Node1&#45;&gt;Node6 -->
<g id="edge5_Node000001_Node000006" class="edge">
<title>Node1&#45;&gt;Node6</title>
<g id="a_edge5_Node000001_Node000006"><a xlink:title=" ">
<path fill="none" stroke="#63b8ff" d="M807.3,-175.4C732.75,-165.68 612.87,-149.16 500.49,-129.27"/>
<polygon fill="#63b8ff" stroke="#63b8ff" points="500.8,-125.77 490.34,-127.46 499.57,-132.66 500.8,-125.77"/>
</a>
</g>
</g>
<!-- Node7 -->
<g id="Node000007" class="node">
<title>Node7</title>
<g id="a_Node000007"><a xlink:title=" ">
<polygon fill="#e0e0e0" stroke="#999999" points="579,-129 508,-129 508,-110 579,-110 579,-129"/>
<text text-anchor="middle" x="543.5" y="-117" font-family="Helvetica,sans-Serif" font-size="10.00">adrv903x.h</text>
</a>
</g>
</g>
<!-- Node1&#45;&gt;Node7 -->
<g id="edge6_Node000001_Node000007" class="edge">
<title>Node1&#45;&gt;Node7</title>
<g id="a_edge6_Node000001_Node000007"><a xlink:title=" ">
<path fill="none" stroke="#63b8ff" d="M807.49,-170.88C750.81,-160.14 669.51,-144.7 589.32,-129.34"/>
<polygon fill="#63b8ff" stroke="#63b8ff" points="589.52,-125.82 579.04,-127.38 588.2,-132.69 589.52,-125.82"/>
</a>
</g>
</g>
<!-- Node8 -->
<g id="Node000008" class="node">
<title>Node8</title>
<g id="a_Node000008"><a xlink:title=" ">
<polygon fill="#e0e0e0" stroke="#999999" points="700,-129 597,-129 597,-110 700,-110 700,-129"/>
<text text-anchor="middle" x="648.5" y="-117" font-family="Helvetica,sans-Serif" font-size="10.00">clkgen_routines.h</text>
</a>
</g>
</g>
<!-- Node1&#45;&gt;Node8 -->
<g id="edge7_Node000001_Node000008" class="edge">
<title>Node1&#45;&gt;Node8</title>
<g id="a_edge7_Node000001_Node000008"><a xlink:title=" ">
<path fill="none" stroke="#63b8ff" d="M808.94,-164.95C769.62,-154.06 722.07,-140.88 688.99,-131.72"/>
<polygon fill="#63b8ff" stroke="#63b8ff" points="689.78,-128.31 679.21,-129.01 687.91,-135.05 689.78,-128.31"/>
</a>
</g>
</g>
<!-- Node9 -->
<g id="Node000009" class="node">
<title>Node9</title>
<g id="a_Node000009"><a xlink:href="no__os__print__log_8h.html" target="_top" xlink:title="Print messages helpers.">
<polygon fill="white" stroke="#666666" points="820.5,-129 718.5,-129 718.5,-110 820.5,-110 820.5,-129"/>
<text text-anchor="middle" x="769.5" y="-117" font-family="Helvetica,sans-Serif" font-size="10.00">no_os_print_log.h</text>
</a>
</g>
</g>
<!-- Node1&#45;&gt;Node9 -->
<g id="edge8_Node000001_Node000009" class="edge">
<title>Node1&#45;&gt;Node9</title>
<g id="a_edge8_Node000001_Node000009"><a xlink:title=" ">
<path fill="none" stroke="#63b8ff" d="M845.9,-164.95C828.84,-155.03 808.53,-143.21 793.14,-134.25"/>
<polygon fill="#63b8ff" stroke="#63b8ff" points="794.67,-131.1 784.27,-129.09 791.15,-137.15 794.67,-131.1"/>
</a>
</g>
</g>
<!-- Node11 -->
<g id="Node000011" class="node">
<title>Node11</title>
<g id="a_Node000011"><a xlink:href="no__os__error_8h.html" target="_top" xlink:title="Error codes definition.">
<polygon fill="white" stroke="#666666" points="920.5,-129 838.5,-129 838.5,-110 920.5,-110 920.5,-129"/>
<text text-anchor="middle" x="879.5" y="-117" font-family="Helvetica,sans-Serif" font-size="10.00">no_os_error.h</text>
</a>
</g>
</g>
<!-- Node1&#45;&gt;Node11 -->
<g id="edge10_Node000001_Node000011" class="edge">
<title>Node1&#45;&gt;Node11</title>
<g id="a_edge10_Node000001_Node000011"><a xlink:title=" ">
<path fill="none" stroke="#63b8ff" d="M879.5,-164.95C879.5,-156.85 879.5,-147.5 879.5,-139.47"/>
<polygon fill="#63b8ff" stroke="#63b8ff" points="883,-139.26 879.5,-129.26 876,-139.26 883,-139.26"/>
</a>
</g>
</g>
<!-- Node13 -->
<g id="Node000013" class="node">
<title>Node13</title>
<g id="a_Node000013"><a xlink:href="no__os__util_8h.html" target="_top" xlink:title="Header file of utility functions.">
<polygon fill="white" stroke="#666666" points="927,-74 852,-74 852,-55 927,-55 927,-74"/>
<text text-anchor="middle" x="889.5" y="-62" font-family="Helvetica,sans-Serif" font-size="10.00">no_os_util.h</text>
</a>
</g>
</g>
<!-- Node1&#45;&gt;Node13 -->
<g id="edge12_Node000001_Node000013" class="edge">
<title>Node1&#45;&gt;Node13</title>
<g id="a_edge12_Node000001_Node000013"><a xlink:title=" ">
<path fill="none" stroke="#63b8ff" d="M903.69,-164.96C913.7,-155.32 924.2,-142.8 929.5,-129 936.33,-111.21 922.29,-93.01 909.01,-80.69"/>
<polygon fill="#63b8ff" stroke="#63b8ff" points="911.29,-78.04 901.43,-74.16 906.72,-83.34 911.29,-78.04"/>
</a>
</g>
</g>
<!-- Node17 -->
<g id="Node000017" class="node">
<title>Node17</title>
<g id="a_Node000017"><a xlink:href="no__os__gpio_8h.html" target="_top" xlink:title="Header file of GPIO Interface.">
<polygon fill="white" stroke="#666666" points="1025.5,-74 945.5,-74 945.5,-55 1025.5,-55 1025.5,-74"/>
<text text-anchor="middle" x="985.5" y="-62" font-family="Helvetica,sans-Serif" font-size="10.00">no_os_gpio.h</text>
</a>
</g>
</g>
<!-- Node1&#45;&gt;Node17 -->
<g id="edge16_Node000001_Node000017" class="edge">
<title>Node1&#45;&gt;Node17</title>
<g id="a_edge16_Node000001_Node000017"><a xlink:title=" ">
<path fill="none" stroke="#63b8ff" d="M905.75,-164.99C918.26,-155 932.97,-142.18 944.5,-129 956.89,-114.83 968.27,-96.61 975.88,-83.32"/>
<polygon fill="#63b8ff" stroke="#63b8ff" points="979.11,-84.71 980.92,-74.27 972.99,-81.3 979.11,-84.71"/>
</a>
</g>
</g>
<!-- Node18 -->
<g id="Node000018" class="node">
<title>Node18</title>
<g id="a_Node000018"><a xlink:title=" ">
<polygon fill="#e0e0e0" stroke="#999999" points="1472.5,-129 1410.5,-129 1410.5,-110 1472.5,-110 1472.5,-129"/>
<text text-anchor="middle" x="1441.5" y="-117" font-family="Helvetica,sans-Serif" font-size="10.00">ad9528.h</text>
</a>
</g>
</g>
<!-- Node1&#45;&gt;Node18 -->
<g id="edge18_Node000001_Node000018" class="edge">
<title>Node1&#45;&gt;Node18</title>
<g id="a_edge18_Node000001_Node000018"><a xlink:title=" ">
<path fill="none" stroke="#63b8ff" d="M951.58,-179.21C1050.6,-171.41 1234.38,-155.05 1400.23,-129.06"/>
<polygon fill="#63b8ff" stroke="#63b8ff" points="1400.78,-132.51 1410.11,-127.49 1399.69,-125.6 1400.78,-132.51"/>
</a>
</g>
</g>
<!-- Node19 -->
<g id="Node000019" class="node">
<title>Node19</title>
<g id="a_Node000019"><a xlink:href="axi__jesd204__rx_8h.html" target="_top" xlink:title="Driver for the Analog Devices AXI&#45;JESD204&#45;RX peripheral.">
<polygon fill="white" stroke="#666666" points="1231,-129 1132,-129 1132,-110 1231,-110 1231,-129"/>
<text text-anchor="middle" x="1181.5" y="-117" font-family="Helvetica,sans-Serif" font-size="10.00">axi_jesd204_rx.h</text>
</a>
</g>
</g>
<!-- Node1&#45;&gt;Node19 -->
<g id="edge19_Node000001_Node000019" class="edge">
<title>Node1&#45;&gt;Node19</title>
<g id="a_edge19_Node000001_Node000019"><a xlink:title=" ">
<path fill="none" stroke="#63b8ff" d="M951.84,-169.17C1007.23,-157.43 1082.21,-141.54 1131.2,-131.16"/>
<polygon fill="#63b8ff" stroke="#63b8ff" points="1132.19,-134.53 1141.25,-129.03 1130.74,-127.68 1132.19,-134.53"/>
</a>
</g>
</g>
<!-- Node20 -->
<g id="Node000020" class="node">
<title>Node20</title>
<g id="a_Node000020"><a xlink:href="jesd204_8h.html" target="_top" xlink:title=" ">
<polygon fill="white" stroke="#666666" points="1275.5,-74 1211.5,-74 1211.5,-55 1275.5,-55 1275.5,-74"/>
<text text-anchor="middle" x="1243.5" y="-62" font-family="Helvetica,sans-Serif" font-size="10.00">jesd204.h</text>
</a>
</g>
</g>
<!-- Node1&#45;&gt;Node20 -->
<g id="edge41_Node000001_Node000020" class="edge">
<title>Node1&#45;&gt;Node20</title>
<g id="a_edge41_Node000001_Node000020"><a xlink:title=" ">
<path fill="none" stroke="#63b8ff" d="M951.89,-183.79C1046.1,-181.19 1203.12,-170.54 1240.5,-129 1251.22,-117.09 1250.74,-98.26 1248.33,-84.2"/>
<polygon fill="#63b8ff" stroke="#63b8ff" points="1251.69,-83.19 1246.15,-74.16 1244.85,-84.68 1251.69,-83.19"/>
</a>
</g>
</g>
<!-- Node23 -->
<g id="Node000023" class="node">
<title>Node23</title>
<g id="a_Node000023"><a xlink:href="axi__jesd204__tx_8h.html" target="_top" xlink:title="Driver for the Analog Devices AXI&#45;JESD204&#45;TX peripheral.">
<polygon fill="white" stroke="#666666" points="1114,-129 1015,-129 1015,-110 1114,-110 1114,-129"/>
<text text-anchor="middle" x="1064.5" y="-117" font-family="Helvetica,sans-Serif" font-size="10.00">axi_jesd204_tx.h</text>
</a>
</g>
</g>
<!-- Node1&#45;&gt;Node23 -->
<g id="edge29_Node000001_Node000023" class="edge">
<title>Node1&#45;&gt;Node23</title>
<g id="a_edge29_Node000001_Node000023"><a xlink:title=" ">
<path fill="none" stroke="#63b8ff" d="M936.01,-164.95C966.73,-154.32 1003.72,-141.53 1030.11,-132.4"/>
<polygon fill="#63b8ff" stroke="#63b8ff" points="1031.36,-135.67 1039.66,-129.09 1029.07,-129.05 1031.36,-135.67"/>
</a>
</g>
</g>
<!-- Node24 -->
<g id="Node000024" class="node">
<title>Node24</title>
<g id="a_Node000024"><a xlink:href="axi__adxcvr_8h.html" target="_top" xlink:title="Driver for the ADI AXI&#45;ADXCVR Module.">
<polygon fill="white" stroke="#666666" points="1392.5,-129 1314.5,-129 1314.5,-110 1392.5,-110 1392.5,-129"/>
<text text-anchor="middle" x="1353.5" y="-117" font-family="Helvetica,sans-Serif" font-size="10.00">axi_adxcvr.h</text>
</a>
</g>
</g>
<!-- Node1&#45;&gt;Node24 -->
<g id="edge35_Node000001_Node000024" class="edge">
<title>Node1&#45;&gt;Node24</title>
<g id="a_edge35_Node000001_Node000024"><a xlink:title=" ">
<path fill="none" stroke="#63b8ff" d="M951.75,-174.74C1049.27,-161.58 1220.46,-138.46 1304.35,-127.14"/>
<polygon fill="#63b8ff" stroke="#63b8ff" points="1304.94,-130.59 1314.38,-125.78 1304,-123.65 1304.94,-130.59"/>
</a>
</g>
</g>
<!-- Node26 -->
<g id="Node000026" class="node">
<title>Node26</title>
<g id="a_Node000026"><a xlink:title=" ">
<polygon fill="#e0e0e0" stroke="#999999" points="1544,-129 1491,-129 1491,-110 1544,-110 1544,-129"/>
<text text-anchor="middle" x="1517.5" y="-117" font-family="Helvetica,sans-Serif" font-size="10.00">string.h</text>
</a>
</g>
</g>
<!-- Node1&#45;&gt;Node26 -->
<g id="edge42_Node000001_Node000026" class="edge">
<title>Node1&#45;&gt;Node26</title>
<g id="a_edge42_Node000001_Node000026"><a xlink:title=" ">
<path fill="none" stroke="#63b8ff" d="M951.73,-181.11C1063.27,-175.16 1284.19,-160.5 1480.91,-128.85"/>
<polygon fill="#63b8ff" stroke="#63b8ff" points="1481.54,-132.29 1490.85,-127.23 1480.41,-125.38 1481.54,-132.29"/>
</a>
</g>
</g>
<!-- Node10 -->
<g id="Node000010" class="node">
<title>Node10</title>
<g id="a_Node000010"><a xlink:title=" ">
<polygon fill="#e0e0e0" stroke="#999999" points="764.5,-74 714.5,-74 714.5,-55 764.5,-55 764.5,-74"/>
<text text-anchor="middle" x="739.5" y="-62" font-family="Helvetica,sans-Serif" font-size="10.00">stdio.h</text>
</a>
</g>
</g>
<!-- Node9&#45;&gt;Node10 -->
<g id="edge9_Node000009_Node000010" class="edge">
<title>Node9&#45;&gt;Node10</title>
<g id="a_edge9_Node000009_Node000010"><a xlink:title=" ">
<path fill="none" stroke="#63b8ff" d="M764.55,-109.75C760.44,-102.49 754.47,-91.95 749.4,-82.98"/>
<polygon fill="#63b8ff" stroke="#63b8ff" points="752.33,-81.07 744.36,-74.09 746.24,-84.52 752.33,-81.07"/>
</a>
</g>
</g>
<!-- Node12 -->
<g id="Node000012" class="node">
<title>Node12</title>
<g id="a_Node000012"><a xlink:href="errno_8h.html" target="_top" xlink:title="Error macro definition for ARM Compiler.">
<polygon fill="white" stroke="#666666" points="834,-74 783,-74 783,-55 834,-55 834,-74"/>
<text text-anchor="middle" x="808.5" y="-62" font-family="Helvetica,sans-Serif" font-size="10.00">errno.h</text>
</a>
</g>
</g>
<!-- Node11&#45;&gt;Node12 -->
<g id="edge11_Node000011_Node000012" class="edge">
<title>Node11&#45;&gt;Node12</title>
<g id="a_edge11_Node000011_Node000012"><a xlink:title=" ">
<path fill="none" stroke="#63b8ff" d="M868.09,-109.98C857.39,-102 841.16,-89.88 828.34,-80.31"/>
<polygon fill="#63b8ff" stroke="#63b8ff" points="830.22,-77.35 820.11,-74.17 826.03,-82.96 830.22,-77.35"/>
</a>
</g>
</g>
<!-- Node14 -->
<g id="Node000014" class="node">
<title>Node14</title>
<g id="a_Node000014"><a xlink:title=" ">
<polygon fill="#e0e0e0" stroke="#999999" points="1171,-19 1118,-19 1118,0 1171,0 1171,-19"/>
<text text-anchor="middle" x="1144.5" y="-7" font-family="Helvetica,sans-Serif" font-size="10.00">stdint.h</text>
</a>
</g>
</g>
<!-- Node13&#45;&gt;Node14 -->
<g id="edge13_Node000013_Node000014" class="edge">
<title>Node13&#45;&gt;Node14</title>
<g id="a_edge13_Node000013_Node000014"><a xlink:title=" ">
<path fill="none" stroke="#63b8ff" d="M927.13,-55.68C975.66,-45.59 1059.53,-28.16 1107.67,-18.15"/>
<polygon fill="#63b8ff" stroke="#63b8ff" points="1108.58,-21.54 1117.66,-16.08 1107.16,-14.69 1108.58,-21.54"/>
</a>
</g>
</g>
<!-- Node15 -->
<g id="Node000015" class="node">
<title>Node15</title>
<g id="a_Node000015"><a xlink:title=" ">
<polygon fill="#e0e0e0" stroke="#999999" points="916,-19 863,-19 863,0 916,0 916,-19"/>
<text text-anchor="middle" x="889.5" y="-7" font-family="Helvetica,sans-Serif" font-size="10.00">stdlib.h</text>
</a>
</g>
</g>
<!-- Node13&#45;&gt;Node15 -->
<g id="edge14_Node000013_Node000015" class="edge">
<title>Node13&#45;&gt;Node15</title>
<g id="a_edge14_Node000013_Node000015"><a xlink:title=" ">
<path fill="none" stroke="#63b8ff" d="M889.5,-54.75C889.5,-47.8 889.5,-37.85 889.5,-29.13"/>
<polygon fill="#63b8ff" stroke="#63b8ff" points="893,-29.09 889.5,-19.09 886,-29.09 893,-29.09"/>
</a>
</g>
</g>
<!-- Node16 -->
<g id="Node000016" class="node">
<title>Node16</title>
<g id="a_Node000016"><a xlink:title=" ">
<polygon fill="#e0e0e0" stroke="#999999" points="1361.5,-19 1299.5,-19 1299.5,0 1361.5,0 1361.5,-19"/>
<text text-anchor="middle" x="1330.5" y="-7" font-family="Helvetica,sans-Serif" font-size="10.00">stdbool.h</text>
</a>
</g>
</g>
<!-- Node13&#45;&gt;Node16 -->
<g id="edge15_Node000013_Node000016" class="edge">
<title>Node13&#45;&gt;Node16</title>
<g id="a_edge15_Node000013_Node000016"><a xlink:title=" ">
<path fill="none" stroke="#63b8ff" d="M927.17,-56.43C930.32,-55.92 933.46,-55.43 936.5,-55 1088.69,-33.31 1128.2,-39.89 1280.5,-19 1283.36,-18.61 1286.31,-18.18 1289.28,-17.72"/>
<polygon fill="#63b8ff" stroke="#63b8ff" points="1290.02,-21.15 1299.34,-16.11 1288.91,-14.24 1290.02,-21.15"/>
</a>
</g>
</g>
<!-- Node17&#45;&gt;Node14 -->
<g id="edge17_Node000017_Node000014" class="edge">
<title>Node17&#45;&gt;Node14</title>
<g id="a_edge17_Node000017_Node000014"><a xlink:title=" ">
<path fill="none" stroke="#63b8ff" d="M1011.05,-54.98C1037.62,-46.13 1079.44,-32.19 1109.17,-22.28"/>
<polygon fill="#63b8ff" stroke="#63b8ff" points="1110.37,-25.56 1118.75,-19.08 1108.16,-18.92 1110.37,-25.56"/>
</a>
</g>
</g>
<!-- Node19&#45;&gt;Node14 -->
<g id="edge20_Node000019_Node000014" class="edge">
<title>Node19&#45;&gt;Node14</title>
<g id="a_edge20_Node000019_Node000014"><a xlink:title=" ">
<path fill="none" stroke="#63b8ff" d="M1179.62,-109.74C1176.87,-97.36 1171.31,-74.14 1164.5,-55 1161.3,-46.02 1157.06,-36.34 1153.3,-28.31"/>
<polygon fill="#63b8ff" stroke="#63b8ff" points="1156.4,-26.69 1148.91,-19.19 1150.09,-29.72 1156.4,-26.69"/>
</a>
</g>
</g>
<!-- Node19&#45;&gt;Node16 -->
<g id="edge21_Node000019_Node000016" class="edge">
<title>Node19&#45;&gt;Node16</title>
<g id="a_edge21_Node000019_Node000016"><a xlink:title=" ">
<path fill="none" stroke="#63b8ff" d="M1231.28,-114.46C1260.47,-109.46 1295.76,-98.38 1317.5,-74 1328.27,-61.93 1331.04,-43.39 1331.4,-29.46"/>
<polygon fill="#63b8ff" stroke="#63b8ff" points="1334.9,-29.03 1331.26,-19.08 1327.9,-29.12 1334.9,-29.03"/>
</a>
</g>
</g>
<!-- Node19&#45;&gt;Node17 -->
<g id="edge28_Node000019_Node000017" class="edge">
<title>Node19&#45;&gt;Node17</title>
<g id="a_edge28_Node000019_Node000017"><a xlink:title=" ">
<path fill="none" stroke="#63b8ff" d="M1150.01,-109.98C1116.68,-100.97 1063.9,-86.7 1027.15,-76.76"/>
<polygon fill="#63b8ff" stroke="#63b8ff" points="1027.8,-73.31 1017.24,-74.08 1025.98,-80.07 1027.8,-73.31"/>
</a>
</g>
</g>
<!-- Node19&#45;&gt;Node20 -->
<g id="edge22_Node000019_Node000020" class="edge">
<title>Node19&#45;&gt;Node20</title>
<g id="a_edge22_Node000019_Node000020"><a xlink:title=" ">
<path fill="none" stroke="#63b8ff" d="M1191.46,-109.98C1200.63,-102.15 1214.44,-90.34 1225.53,-80.86"/>
<polygon fill="#63b8ff" stroke="#63b8ff" points="1228.03,-83.33 1233.36,-74.17 1223.48,-78.01 1228.03,-83.33"/>
</a>
</g>
</g>
<!-- Node22 -->
<g id="Node000022" class="node">
<title>Node22</title>
<g id="a_Node000022"><a xlink:href="no__os__clk_8h.html" target="_top" xlink:title="Header file of Clock Driver.">
<polygon fill="white" stroke="#666666" points="1155.5,-74 1081.5,-74 1081.5,-55 1155.5,-55 1155.5,-74"/>
<text text-anchor="middle" x="1118.5" y="-62" font-family="Helvetica,sans-Serif" font-size="10.00">no_os_clk.h</text>
</a>
</g>
</g>
<!-- Node19&#45;&gt;Node22 -->
<g id="edge26_Node000019_Node000022" class="edge">
<title>Node19&#45;&gt;Node22</title>
<g id="a_edge26_Node000019_Node000022"><a xlink:title=" ">
<path fill="none" stroke="#63b8ff" d="M1171.38,-109.98C1162.06,-102.15 1148.03,-90.34 1136.76,-80.86"/>
<polygon fill="#63b8ff" stroke="#63b8ff" points="1138.71,-77.93 1128.81,-74.17 1134.21,-83.29 1138.71,-77.93"/>
</a>
</g>
</g>
<!-- Node20&#45;&gt;Node14 -->
<g id="edge25_Node000020_Node000014" class="edge">
<title>Node20&#45;&gt;Node14</title>
<g id="a_edge25_Node000020_Node000014"><a xlink:title=" ">
<path fill="none" stroke="#63b8ff" d="M1227.59,-54.98C1211.95,-46.61 1187.84,-33.7 1169.62,-23.95"/>
<polygon fill="#63b8ff" stroke="#63b8ff" points="1171.16,-20.8 1160.7,-19.17 1167.86,-26.98 1171.16,-20.8"/>
</a>
</g>
</g>
<!-- Node20&#45;&gt;Node16 -->
<g id="edge23_Node000020_Node000016" class="edge">
<title>Node20&#45;&gt;Node16</title>
<g id="a_edge23_Node000020_Node000016"><a xlink:title=" ">
<path fill="none" stroke="#63b8ff" d="M1257.48,-54.98C1270.97,-46.77 1291.63,-34.18 1307.54,-24.49"/>
<polygon fill="#63b8ff" stroke="#63b8ff" points="1309.55,-27.36 1316.27,-19.17 1305.91,-21.38 1309.55,-27.36"/>
</a>
</g>
</g>
<!-- Node21 -->
<g id="Node000021" class="node">
<title>Node21</title>
<g id="a_Node000021"><a xlink:title=" ">
<polygon fill="#e0e0e0" stroke="#999999" points="1271.5,-19 1215.5,-19 1215.5,0 1271.5,0 1271.5,-19"/>
<text text-anchor="middle" x="1243.5" y="-7" font-family="Helvetica,sans-Serif" font-size="10.00">stddef.h</text>
</a>
</g>
</g>
<!-- Node20&#45;&gt;Node21 -->
<g id="edge24_Node000020_Node000021" class="edge">
<title>Node20&#45;&gt;Node21</title>
<g id="a_edge24_Node000020_Node000021"><a xlink:title=" ">
<path fill="none" stroke="#63b8ff" d="M1243.5,-54.75C1243.5,-47.8 1243.5,-37.85 1243.5,-29.13"/>
<polygon fill="#63b8ff" stroke="#63b8ff" points="1247,-29.09 1243.5,-19.09 1240,-29.09 1247,-29.09"/>
</a>
</g>
</g>
<!-- Node22&#45;&gt;Node14 -->
<g id="edge27_Node000022_Node000014" class="edge">
<title>Node22&#45;&gt;Node14</title>
<g id="a_edge27_Node000022_Node000014"><a xlink:title=" ">
<path fill="none" stroke="#63b8ff" d="M1122.79,-54.75C1126.31,-47.57 1131.41,-37.18 1135.78,-28.27"/>
<polygon fill="#63b8ff" stroke="#63b8ff" points="1139.02,-29.61 1140.29,-19.09 1132.74,-26.53 1139.02,-29.61"/>
</a>
</g>
</g>
<!-- Node23&#45;&gt;Node14 -->
<g id="edge30_Node000023_Node000014" class="edge">
<title>Node23&#45;&gt;Node14</title>
<g id="a_edge30_Node000023_Node000014"><a xlink:title=" ">
<path fill="none" stroke="#63b8ff" d="M1063.38,-109.91C1062.14,-96.93 1061.57,-72.01 1072.5,-55 1081.56,-40.9 1096.83,-30.54 1110.99,-23.37"/>
<polygon fill="#63b8ff" stroke="#63b8ff" points="1112.48,-26.54 1120.05,-19.12 1109.51,-20.2 1112.48,-26.54"/>
</a>
</g>
</g>
<!-- Node23&#45;&gt;Node16 -->
<g id="edge31_Node000023_Node000016" class="edge">
<title>Node23&#45;&gt;Node16</title>
<g id="a_edge31_Node000023_Node000016"><a xlink:title=" ">
<path fill="none" stroke="#63b8ff" d="M1114.15,-110.42C1174.56,-100.29 1270.31,-83.13 1284.5,-74 1301.8,-62.87 1314.71,-42.75 1322.38,-28.13"/>
<polygon fill="#63b8ff" stroke="#63b8ff" points="1325.56,-29.59 1326.84,-19.07 1319.28,-26.5 1325.56,-29.59"/>
</a>
</g>
</g>
<!-- Node23&#45;&gt;Node17 -->
<g id="edge34_Node000023_Node000017" class="edge">
<title>Node23&#45;&gt;Node17</title>
<g id="a_edge34_Node000023_Node000017"><a xlink:title=" ">
<path fill="none" stroke="#63b8ff" d="M1051.81,-109.98C1039.67,-101.84 1021.14,-89.41 1006.75,-79.76"/>
<polygon fill="#63b8ff" stroke="#63b8ff" points="1008.68,-76.84 998.42,-74.17 1004.78,-82.65 1008.68,-76.84"/>
</a>
</g>
</g>
<!-- Node23&#45;&gt;Node20 -->
<g id="edge32_Node000023_Node000020" class="edge">
<title>Node23&#45;&gt;Node20</title>
<g id="a_edge32_Node000023_Node000020"><a xlink:title=" ">
<path fill="none" stroke="#63b8ff" d="M1093.26,-109.98C1123.44,-101.05 1171.07,-86.94 1204.6,-77.02"/>
<polygon fill="#63b8ff" stroke="#63b8ff" points="1205.92,-80.28 1214.52,-74.08 1203.93,-73.57 1205.92,-80.28"/>
</a>
</g>
</g>
<!-- Node23&#45;&gt;Node22 -->
<g id="edge33_Node000023_Node000022" class="edge">
<title>Node23&#45;&gt;Node22</title>
<g id="a_edge33_Node000023_Node000022"><a xlink:title=" ">
<path fill="none" stroke="#63b8ff" d="M1073.42,-109.75C1081.28,-102.03 1092.93,-90.6 1102.42,-81.28"/>
<polygon fill="#63b8ff" stroke="#63b8ff" points="1105.06,-83.59 1109.75,-74.09 1100.16,-78.6 1105.06,-83.59"/>
</a>
</g>
</g>
<!-- Node24&#45;&gt;Node14 -->
<g id="edge36_Node000024_Node000014" class="edge">
<title>Node24&#45;&gt;Node14</title>
<g id="a_edge36_Node000024_Node000014"><a xlink:title=" ">
<path fill="none" stroke="#63b8ff" d="M1346.34,-109.82C1334.72,-96.26 1310.41,-70.04 1284.5,-55 1251.94,-36.11 1210.39,-24.21 1181.04,-17.52"/>
<polygon fill="#63b8ff" stroke="#63b8ff" points="1181.71,-14.08 1171.2,-15.36 1180.22,-20.92 1181.71,-14.08"/>
</a>
</g>
</g>
<!-- Node24&#45;&gt;Node16 -->
<g id="edge37_Node000024_Node000016" class="edge">
<title>Node24&#45;&gt;Node16</title>
<g id="a_edge37_Node000024_Node000016"><a xlink:title=" ">
<path fill="none" stroke="#63b8ff" d="M1392.86,-111.12C1441.84,-101.55 1520.11,-84.8 1528.5,-74 1533.68,-67.33 1533.78,-61.59 1528.5,-55 1509.26,-30.95 1423.94,-18.99 1371.78,-13.83"/>
<polygon fill="#63b8ff" stroke="#63b8ff" points="1372.1,-10.35 1361.82,-12.89 1371.44,-17.31 1372.1,-10.35"/>
</a>
</g>
</g>
<!-- Node25 -->
<g id="Node000025" class="node">
<title>Node25</title>
<g id="a_Node000025"><a xlink:href="xilinx__transceiver_8h.html" target="_top" xlink:title="Driver for the Xilinx High&#45;speed transceiver dynamic reconfiguration.">
<polygon fill="white" stroke="#666666" points="1519.5,-74 1407.5,-74 1407.5,-55 1519.5,-55 1519.5,-74"/>
<text text-anchor="middle" x="1463.5" y="-62" font-family="Helvetica,sans-Serif" font-size="10.00">xilinx_transceiver.h</text>
</a>
</g>
</g>
<!-- Node24&#45;&gt;Node25 -->
<g id="edge38_Node000024_Node000025" class="edge">
<title>Node24&#45;&gt;Node25</title>
<g id="a_edge38_Node000024_Node000025"><a xlink:title=" ">
<path fill="none" stroke="#63b8ff" d="M1371.17,-109.98C1388.79,-101.5 1416.08,-88.35 1436.43,-78.54"/>
<polygon fill="#63b8ff" stroke="#63b8ff" points="1438.02,-81.66 1445.51,-74.17 1434.98,-75.36 1438.02,-81.66"/>
</a>
</g>
</g>
<!-- Node25&#45;&gt;Node14 -->
<g id="edge39_Node000025_Node000014" class="edge">
<title>Node25&#45;&gt;Node14</title>
<g id="a_edge39_Node000025_Node000014"><a xlink:title=" ">
<path fill="none" stroke="#63b8ff" d="M1412.25,-54.98C1347.58,-44.24 1237.98,-26.03 1181.14,-16.59"/>
<polygon fill="#63b8ff" stroke="#63b8ff" points="1181.6,-13.12 1171.16,-14.93 1180.45,-20.02 1181.6,-13.12"/>
</a>
</g>
</g>
<!-- Node25&#45;&gt;Node16 -->
<g id="edge40_Node000025_Node000016" class="edge">
<title>Node25&#45;&gt;Node16</title>
<g id="a_edge40_Node000025_Node000016"><a xlink:title=" ">
<path fill="none" stroke="#63b8ff" d="M1442.13,-54.98C1420.35,-46.3 1386.34,-32.75 1361.58,-22.88"/>
<polygon fill="#63b8ff" stroke="#63b8ff" points="1362.84,-19.62 1352.26,-19.17 1360.25,-26.12 1362.84,-19.62"/>
</a>
</g>
</g>
</g>
</svg>
