<?xml version="1.0" encoding="UTF-8" standalone="no"?>
<!DOCTYPE svg PUBLIC "-//W3C//DTD SVG 1.1//EN"
 "http://www.w3.org/Graphics/SVG/1.1/DTD/svg11.dtd">
<!-- Generated by graphviz version 2.43.0 (0)
 -->
<!-- Title: drivers/platform/aducm3029/aducm3029_irq.c Pages: 1 -->
<svg width="1524pt" height="258pt"
 viewBox="0.00 0.00 1523.59 258.00" xmlns="http://www.w3.org/2000/svg" xmlns:xlink="http://www.w3.org/1999/xlink">
<g id="graph0" class="graph" transform="scale(1 1) rotate(0) translate(4 254)">
<title>drivers/platform/aducm3029/aducm3029_irq.c</title>
<!-- Node1 -->
<g id="Node000001" class="node">
<title>Node1</title>
<g id="a_Node000001"><a xlink:title="Implementation of External IRQ driver for ADuCM302x.">
<polygon fill="#999999" stroke="#666666" points="973.09,-250 818.09,-250 818.09,-220 973.09,-220 973.09,-250"/>
<text text-anchor="start" x="826.09" y="-238" font-family="Helvetica,sans-Serif" font-size="10.00">drivers/platform/aducm3029</text>
<text text-anchor="middle" x="895.59" y="-227" font-family="Helvetica,sans-Serif" font-size="10.00">/aducm3029_irq.c</text>
</a>
</g>
</g>
<!-- Node2 -->
<g id="Node000002" class="node">
<title>Node2</title>
<g id="a_Node000002"><a xlink:href="no__os__irq_8h.html" target="_top" xlink:title="Header file of IRQ interface.">
<polygon fill="white" stroke="#666666" points="302.59,-129 230.59,-129 230.59,-110 302.59,-110 302.59,-129"/>
<text text-anchor="middle" x="266.59" y="-117" font-family="Helvetica,sans-Serif" font-size="10.00">no_os_irq.h</text>
</a>
</g>
</g>
<!-- Node1&#45;&gt;Node2 -->
<g id="edge1_Node000001_Node000002" class="edge">
<title>Node1&#45;&gt;Node2</title>
<g id="a_edge1_Node000001_Node000002"><a xlink:title=" ">
<path fill="none" stroke="#63b8ff" d="M817.93,-234.64C718.42,-233.56 541.47,-225.21 396.59,-184 356.53,-172.61 313.82,-149.33 288.71,-134.35"/>
<polygon fill="#63b8ff" stroke="#63b8ff" points="290.35,-131.25 279.98,-129.05 286.72,-137.23 290.35,-131.25"/>
</a>
</g>
</g>
<!-- Node4 -->
<g id="Node000004" class="node">
<title>Node4</title>
<g id="a_Node000004"><a xlink:href="aducm3029__irq_8h.html" target="_top" xlink:title="Header file of IRQ driver for ADuCM302x.">
<polygon fill="white" stroke="#666666" points="174.09,-184 73.09,-184 73.09,-165 174.09,-165 174.09,-184"/>
<text text-anchor="middle" x="123.59" y="-172" font-family="Helvetica,sans-Serif" font-size="10.00">aducm3029_irq.h</text>
</a>
</g>
</g>
<!-- Node1&#45;&gt;Node4 -->
<g id="edge3_Node000001_Node000004" class="edge">
<title>Node1&#45;&gt;Node4</title>
<g id="a_edge3_Node000001_Node000004"><a xlink:title=" ">
<path fill="none" stroke="#63b8ff" d="M818.04,-230.03C687.8,-223.02 416.92,-206.98 188.59,-184 187.28,-183.87 185.96,-183.73 184.63,-183.59"/>
<polygon fill="#63b8ff" stroke="#63b8ff" points="184.63,-180.07 174.3,-182.43 183.84,-187.02 184.63,-180.07"/>
</a>
</g>
</g>
<!-- Node7 -->
<g id="Node000007" class="node">
<title>Node7</title>
<g id="a_Node000007"><a xlink:href="no__os__error_8h.html" target="_top" xlink:title="Error codes definition.">
<polygon fill="white" stroke="#666666" points="719.59,-129 637.59,-129 637.59,-110 719.59,-110 719.59,-129"/>
<text text-anchor="middle" x="678.59" y="-117" font-family="Helvetica,sans-Serif" font-size="10.00">no_os_error.h</text>
</a>
</g>
</g>
<!-- Node1&#45;&gt;Node7 -->
<g id="edge8_Node000001_Node000007" class="edge">
<title>Node1&#45;&gt;Node7</title>
<g id="a_edge8_Node000001_Node000007"><a xlink:title=" ">
<path fill="none" stroke="#63b8ff" d="M820.01,-219.96C791.38,-212.34 759.47,-200.89 733.59,-184 715.15,-171.97 699.34,-152.05 689.46,-137.73"/>
<polygon fill="#63b8ff" stroke="#63b8ff" points="692.3,-135.67 683.86,-129.26 686.46,-139.53 692.3,-135.67"/>
</a>
</g>
</g>
<!-- Node9 -->
<g id="Node000009" class="node">
<title>Node9</title>
<g id="a_Node000009"><a xlink:title=" ">
<polygon fill="#e0e0e0" stroke="#999999" points="928.09,-19 875.09,-19 875.09,0 928.09,0 928.09,-19"/>
<text text-anchor="middle" x="901.59" y="-7" font-family="Helvetica,sans-Serif" font-size="10.00">stdlib.h</text>
</a>
</g>
</g>
<!-- Node1&#45;&gt;Node9 -->
<g id="edge10_Node000001_Node000009" class="edge">
<title>Node1&#45;&gt;Node9</title>
<g id="a_edge10_Node000001_Node000009"><a xlink:title=" ">
<path fill="none" stroke="#63b8ff" d="M973.12,-226.83C1030.02,-219.78 1100.43,-206.69 1118.59,-184 1141.56,-155.31 1209.99,-170.91 1100.59,-55 1078.77,-31.88 989.59,-19.29 938.33,-13.84"/>
<polygon fill="#63b8ff" stroke="#63b8ff" points="938.61,-10.36 928.31,-12.82 937.9,-17.32 938.61,-10.36"/>
</a>
</g>
</g>
<!-- Node10 -->
<g id="Node000010" class="node">
<title>Node10</title>
<g id="a_Node000010"><a xlink:href="no__os__uart_8h.html" target="_top" xlink:title="Header file of UART interface.">
<polygon fill="white" stroke="#666666" points="619.09,-129 540.09,-129 540.09,-110 619.09,-110 619.09,-129"/>
<text text-anchor="middle" x="579.59" y="-117" font-family="Helvetica,sans-Serif" font-size="10.00">no_os_uart.h</text>
</a>
</g>
</g>
<!-- Node1&#45;&gt;Node10 -->
<g id="edge11_Node000001_Node000010" class="edge">
<title>Node1&#45;&gt;Node10</title>
<g id="a_edge11_Node000001_Node000010"><a xlink:title=" ">
<path fill="none" stroke="#63b8ff" d="M831.36,-219.95C795.08,-211.22 749.2,-198.84 709.59,-184 671.42,-169.7 629.41,-148.01 603.76,-134.05"/>
<polygon fill="#63b8ff" stroke="#63b8ff" points="605.22,-130.86 594.77,-129.11 601.85,-137 605.22,-130.86"/>
</a>
</g>
</g>
<!-- Node12 -->
<g id="Node000012" class="node">
<title>Node12</title>
<g id="a_Node000012"><a xlink:href="aducm3029__uart_8h.html" target="_top" xlink:title="Header file of UART driver for ADuCM302x.">
<polygon fill="white" stroke="#666666" points="513.09,-184 406.09,-184 406.09,-165 513.09,-165 513.09,-184"/>
<text text-anchor="middle" x="459.59" y="-172" font-family="Helvetica,sans-Serif" font-size="10.00">aducm3029_uart.h</text>
</a>
</g>
</g>
<!-- Node1&#45;&gt;Node12 -->
<g id="edge18_Node000001_Node000012" class="edge">
<title>Node1&#45;&gt;Node12</title>
<g id="a_edge18_Node000001_Node000012"><a xlink:title=" ">
<path fill="none" stroke="#63b8ff" d="M817.89,-223.58C733.9,-212.3 601.58,-194.55 523.42,-184.06"/>
<polygon fill="#63b8ff" stroke="#63b8ff" points="523.6,-180.56 513.23,-182.7 522.67,-187.5 523.6,-180.56"/>
</a>
</g>
</g>
<!-- Node14 -->
<g id="Node000014" class="node">
<title>Node14</title>
<g id="a_Node000014"><a xlink:href="no__os__rtc_8h.html" target="_top" xlink:title="Header of the RTC interface.">
<polygon fill="white" stroke="#666666" points="1072.59,-74 1000.59,-74 1000.59,-55 1072.59,-55 1072.59,-74"/>
<text text-anchor="middle" x="1036.59" y="-62" font-family="Helvetica,sans-Serif" font-size="10.00">no_os_rtc.h</text>
</a>
</g>
</g>
<!-- Node1&#45;&gt;Node14 -->
<g id="edge25_Node000001_Node000014" class="edge">
<title>Node1&#45;&gt;Node14</title>
<g id="a_edge25_Node000001_Node000014"><a xlink:title=" ">
<path fill="none" stroke="#63b8ff" d="M912.07,-219.82C922.92,-210.17 937.16,-196.86 948.59,-184 978.66,-150.16 1009.14,-106.6 1025.14,-82.84"/>
<polygon fill="#63b8ff" stroke="#63b8ff" points="1028.25,-84.49 1030.89,-74.23 1022.42,-80.6 1028.25,-84.49"/>
</a>
</g>
</g>
<!-- Node15 -->
<g id="Node000015" class="node">
<title>Node15</title>
<g id="a_Node000015"><a xlink:href="aducm3029__rtc_8h.html" target="_top" xlink:title="Header file of RTC driver for ADuCM302x.">
<polygon fill="white" stroke="#666666" points="1369.09,-184 1268.09,-184 1268.09,-165 1369.09,-165 1369.09,-184"/>
<text text-anchor="middle" x="1318.59" y="-172" font-family="Helvetica,sans-Serif" font-size="10.00">aducm3029_rtc.h</text>
</a>
</g>
</g>
<!-- Node1&#45;&gt;Node15 -->
<g id="edge27_Node000001_Node000015" class="edge">
<title>Node1&#45;&gt;Node15</title>
<g id="a_edge27_Node000001_Node000015"><a xlink:title=" ">
<path fill="none" stroke="#63b8ff" d="M973.36,-223.47C1044.77,-213.76 1153.82,-198.86 1258,-184.22"/>
<polygon fill="#63b8ff" stroke="#63b8ff" points="1258.65,-187.66 1268.06,-182.8 1257.67,-180.73 1258.65,-187.66"/>
</a>
</g>
</g>
<!-- Node17 -->
<g id="Node000017" class="node">
<title>Node17</title>
<g id="a_Node000017"><a xlink:href="no__os__gpio_8h.html" target="_top" xlink:title="Header file of GPIO Interface.">
<polygon fill="white" stroke="#666666" points="1109.59,-184 1029.59,-184 1029.59,-165 1109.59,-165 1109.59,-184"/>
<text text-anchor="middle" x="1069.59" y="-172" font-family="Helvetica,sans-Serif" font-size="10.00">no_os_gpio.h</text>
</a>
</g>
</g>
<!-- Node1&#45;&gt;Node17 -->
<g id="edge29_Node000001_Node000017" class="edge">
<title>Node1&#45;&gt;Node17</title>
<g id="a_edge29_Node000001_Node000017"><a xlink:title=" ">
<path fill="none" stroke="#63b8ff" d="M937.27,-219.99C966.91,-210.02 1006.28,-196.78 1034.36,-187.35"/>
<polygon fill="#63b8ff" stroke="#63b8ff" points="1035.78,-190.56 1044.15,-184.05 1033.55,-183.92 1035.78,-190.56"/>
</a>
</g>
</g>
<!-- Node18 -->
<g id="Node000018" class="node">
<title>Node18</title>
<g id="a_Node000018"><a xlink:title=" ">
<polygon fill="#e0e0e0" stroke="#999999" points="1515.59,-184 1387.59,-184 1387.59,-165 1515.59,-165 1515.59,-184"/>
<text text-anchor="middle" x="1451.59" y="-172" font-family="Helvetica,sans-Serif" font-size="10.00">drivers/gpio/adi_gpio.h</text>
</a>
</g>
</g>
<!-- Node1&#45;&gt;Node18 -->
<g id="edge31_Node000001_Node000018" class="edge">
<title>Node1&#45;&gt;Node18</title>
<g id="a_edge31_Node000001_Node000018"><a xlink:title=" ">
<path fill="none" stroke="#63b8ff" d="M973.42,-226.25C1066.76,-216.89 1228.26,-200.47 1377.25,-184.14"/>
<polygon fill="#63b8ff" stroke="#63b8ff" points="1377.94,-187.58 1387.5,-183.01 1377.18,-180.62 1377.94,-187.58"/>
</a>
</g>
</g>
<!-- Node19 -->
<g id="Node000019" class="node">
<title>Node19</title>
<g id="a_Node000019"><a xlink:title=" ">
<polygon fill="#e0e0e0" stroke="#999999" points="982.09,-74 863.09,-74 863.09,-55 982.09,-55 982.09,-74"/>
<text text-anchor="middle" x="922.59" y="-62" font-family="Helvetica,sans-Serif" font-size="10.00">drivers/tmr/adi_tmr.h</text>
</a>
</g>
</g>
<!-- Node1&#45;&gt;Node19 -->
<g id="edge32_Node000001_Node000019" class="edge">
<title>Node1&#45;&gt;Node19</title>
<g id="a_edge32_Node000001_Node000019"><a xlink:title=" ">
<path fill="none" stroke="#63b8ff" d="M909.7,-219.63C917.82,-210.31 927.26,-197.44 931.59,-184 942.58,-149.93 934.54,-107.6 928.21,-83.87"/>
<polygon fill="#63b8ff" stroke="#63b8ff" points="931.53,-82.75 925.42,-74.09 924.8,-84.67 931.53,-82.75"/>
</a>
</g>
</g>
<!-- Node20 -->
<g id="Node000020" class="node">
<title>Node20</title>
<g id="a_Node000020"><a xlink:href="no__os__timer_8h.html" target="_top" xlink:title="Timer control module header.">
<polygon fill="white" stroke="#666666" points="845.09,-74 760.09,-74 760.09,-55 845.09,-55 845.09,-74"/>
<text text-anchor="middle" x="802.59" y="-62" font-family="Helvetica,sans-Serif" font-size="10.00">no_os_timer.h</text>
</a>
</g>
</g>
<!-- Node1&#45;&gt;Node20 -->
<g id="edge33_Node000001_Node000020" class="edge">
<title>Node1&#45;&gt;Node20</title>
<g id="a_edge33_Node000001_Node000020"><a xlink:title=" ">
<path fill="none" stroke="#63b8ff" d="M900.54,-219.63C908.05,-195.02 919.31,-144.16 897.59,-110 887.7,-94.45 870.8,-84.25 853.97,-77.58"/>
<polygon fill="#63b8ff" stroke="#63b8ff" points="854.71,-74.13 844.12,-74.06 852.35,-80.72 854.71,-74.13"/>
</a>
</g>
</g>
<!-- Node21 -->
<g id="Node000021" class="node">
<title>Node21</title>
<g id="a_Node000021"><a xlink:href="aducm3029__timer_8h.html" target="_top" xlink:title="Header file of TIMER driver for ADuCM302x.">
<polygon fill="white" stroke="#666666" points="889.09,-129 776.09,-129 776.09,-110 889.09,-110 889.09,-129"/>
<text text-anchor="middle" x="832.59" y="-117" font-family="Helvetica,sans-Serif" font-size="10.00">aducm3029_timer.h</text>
</a>
</g>
</g>
<!-- Node1&#45;&gt;Node21 -->
<g id="edge35_Node000001_Node000021" class="edge">
<title>Node1&#45;&gt;Node21</title>
<g id="a_edge35_Node000001_Node000021"><a xlink:title=" ">
<path fill="none" stroke="#63b8ff" d="M887.61,-219.63C876.07,-198.84 854.76,-160.44 842.32,-138.02"/>
<polygon fill="#63b8ff" stroke="#63b8ff" points="845.35,-136.27 837.43,-129.23 839.23,-139.67 845.35,-136.27"/>
</a>
</g>
</g>
<!-- Node22 -->
<g id="Node000022" class="node">
<title>Node22</title>
<g id="a_Node000022"><a xlink:href="no__os__util_8h.html" target="_top" xlink:title="Header file of utility functions.">
<polygon fill="white" stroke="#666666" points="703.09,-74 628.09,-74 628.09,-55 703.09,-55 703.09,-74"/>
<text text-anchor="middle" x="665.59" y="-62" font-family="Helvetica,sans-Serif" font-size="10.00">no_os_util.h</text>
</a>
</g>
</g>
<!-- Node1&#45;&gt;Node22 -->
<g id="edge43_Node000001_Node000022" class="edge">
<title>Node1&#45;&gt;Node22</title>
<g id="a_edge43_Node000001_Node000022"><a xlink:title=" ">
<path fill="none" stroke="#63b8ff" d="M876.66,-219.72C845.81,-196.49 782.7,-149.19 728.59,-110 714.63,-99.89 698.77,-88.69 686.46,-80.06"/>
<polygon fill="#63b8ff" stroke="#63b8ff" points="688.4,-77.14 678.2,-74.28 684.39,-82.88 688.4,-77.14"/>
</a>
</g>
</g>
<!-- Node23 -->
<g id="Node000023" class="node">
<title>Node23</title>
<g id="a_Node000023"><a xlink:href="no__os__list_8h.html" target="_top" xlink:title="List library header.">
<polygon fill="white" stroke="#666666" points="162.59,-74 88.59,-74 88.59,-55 162.59,-55 162.59,-74"/>
<text text-anchor="middle" x="125.59" y="-62" font-family="Helvetica,sans-Serif" font-size="10.00">no_os_list.h</text>
</a>
</g>
</g>
<!-- Node1&#45;&gt;Node23 -->
<g id="edge44_Node000001_Node000023" class="edge">
<title>Node1&#45;&gt;Node23</title>
<g id="a_edge44_Node000001_Node000023"><a xlink:title=" ">
<path fill="none" stroke="#63b8ff" d="M818.01,-234.93C710.08,-234.44 509.32,-227.03 344.59,-184 264.39,-163.05 181.46,-107 144.89,-80.19"/>
<polygon fill="#63b8ff" stroke="#63b8ff" points="146.74,-77.2 136.62,-74.04 142.56,-82.81 146.74,-77.2"/>
</a>
</g>
</g>
<!-- Node24 -->
<g id="Node000024" class="node">
<title>Node24</title>
<g id="a_Node000024"><a xlink:href="no__os__alloc_8h.html" target="_top" xlink:title=" ">
<polygon fill="white" stroke="#666666" points="1250.09,-184 1167.09,-184 1167.09,-165 1250.09,-165 1250.09,-184"/>
<text text-anchor="middle" x="1208.59" y="-172" font-family="Helvetica,sans-Serif" font-size="10.00">no_os_alloc.h</text>
</a>
</g>
</g>
<!-- Node1&#45;&gt;Node24 -->
<g id="edge47_Node000001_Node000024" class="edge">
<title>Node1&#45;&gt;Node24</title>
<g id="a_edge47_Node000001_Node000024"><a xlink:title=" ">
<path fill="none" stroke="#63b8ff" d="M970.56,-219.99C1028.09,-209.24 1106.01,-194.67 1156.78,-185.18"/>
<polygon fill="#63b8ff" stroke="#63b8ff" points="1157.68,-188.58 1166.87,-183.3 1156.4,-181.69 1157.68,-188.58"/>
</a>
</g>
</g>
<!-- Node3 -->
<g id="Node000003" class="node">
<title>Node3</title>
<g id="a_Node000003"><a xlink:title=" ">
<polygon fill="#e0e0e0" stroke="#999999" points="517.09,-19 464.09,-19 464.09,0 517.09,0 517.09,-19"/>
<text text-anchor="middle" x="490.59" y="-7" font-family="Helvetica,sans-Serif" font-size="10.00">stdint.h</text>
</a>
</g>
</g>
<!-- Node2&#45;&gt;Node3 -->
<g id="edge2_Node000002_Node000003" class="edge">
<title>Node2&#45;&gt;Node3</title>
<g id="a_edge2_Node000002_Node000003"><a xlink:title=" ">
<path fill="none" stroke="#63b8ff" d="M277.29,-109.87C294.16,-96.61 328.33,-71.06 360.59,-55 390.89,-39.92 427.53,-27.88 454.18,-20.15"/>
<polygon fill="#63b8ff" stroke="#63b8ff" points="455.21,-23.5 463.87,-17.4 453.3,-16.77 455.21,-23.5"/>
</a>
</g>
</g>
<!-- Node4&#45;&gt;Node2 -->
<g id="edge7_Node000004_Node000002" class="edge">
<title>Node4&#45;&gt;Node2</title>
<g id="a_edge7_Node000004_Node000002"><a xlink:title=" ">
<path fill="none" stroke="#63b8ff" d="M146.56,-164.98C170.09,-156.27 206.88,-142.63 233.53,-132.75"/>
<polygon fill="#63b8ff" stroke="#63b8ff" points="235.04,-135.93 243.2,-129.17 232.6,-129.36 235.04,-135.93"/>
</a>
</g>
</g>
<!-- Node4&#45;&gt;Node3 -->
<g id="edge6_Node000004_Node000003" class="edge">
<title>Node4&#45;&gt;Node3</title>
<g id="a_edge6_Node000004_Node000003"><a xlink:title=" ">
<path fill="none" stroke="#63b8ff" d="M136.06,-164.93C154.47,-152.4 190.15,-128.53 221.59,-110 266.29,-83.64 276.32,-74.07 324.59,-55 367.72,-37.96 419.67,-25.21 453.83,-17.82"/>
<polygon fill="#63b8ff" stroke="#63b8ff" points="454.77,-21.2 463.83,-15.7 453.32,-14.35 454.77,-21.2"/>
</a>
</g>
</g>
<!-- Node5 -->
<g id="Node000005" class="node">
<title>Node5</title>
<g id="a_Node000005"><a xlink:title=" ">
<polygon fill="#e0e0e0" stroke="#999999" points="136.09,-129 13.09,-129 13.09,-110 136.09,-110 136.09,-129"/>
<text text-anchor="middle" x="74.59" y="-117" font-family="Helvetica,sans-Serif" font-size="10.00">drivers/xint/adi_xint.h</text>
</a>
</g>
</g>
<!-- Node4&#45;&gt;Node5 -->
<g id="edge4_Node000004_Node000005" class="edge">
<title>Node4&#45;&gt;Node5</title>
<g id="a_edge4_Node000004_Node000005"><a xlink:title=" ">
<path fill="none" stroke="#63b8ff" d="M115.5,-164.75C108.43,-157.11 98,-145.82 89.44,-136.56"/>
<polygon fill="#63b8ff" stroke="#63b8ff" points="91.89,-134.06 82.53,-129.09 86.75,-138.81 91.89,-134.06"/>
</a>
</g>
</g>
<!-- Node6 -->
<g id="Node000006" class="node">
<title>Node6</title>
<g id="a_Node000006"><a xlink:title=" ">
<polygon fill="#e0e0e0" stroke="#999999" points="348.59,-19 286.59,-19 286.59,0 348.59,0 348.59,-19"/>
<text text-anchor="middle" x="317.59" y="-7" font-family="Helvetica,sans-Serif" font-size="10.00">stdbool.h</text>
</a>
</g>
</g>
<!-- Node4&#45;&gt;Node6 -->
<g id="edge5_Node000004_Node000006" class="edge">
<title>Node4&#45;&gt;Node6</title>
<g id="a_edge5_Node000004_Node000006"><a xlink:title=" ">
<path fill="none" stroke="#63b8ff" d="M72.98,-166.53C33.25,-158.53 -12.81,-142.12 3.59,-110 22.55,-72.87 41.28,-71.45 79.59,-55 144.72,-27.03 227.31,-16.6 276.1,-12.74"/>
<polygon fill="#63b8ff" stroke="#63b8ff" points="276.56,-16.21 286.28,-11.99 276.05,-9.23 276.56,-16.21"/>
</a>
</g>
</g>
<!-- Node8 -->
<g id="Node000008" class="node">
<title>Node8</title>
<g id="a_Node000008"><a xlink:href="errno_8h.html" target="_top" xlink:title="Error macro definition for ARM Compiler.">
<polygon fill="white" stroke="#666666" points="610.09,-74 559.09,-74 559.09,-55 610.09,-55 610.09,-74"/>
<text text-anchor="middle" x="584.59" y="-62" font-family="Helvetica,sans-Serif" font-size="10.00">errno.h</text>
</a>
</g>
</g>
<!-- Node7&#45;&gt;Node8 -->
<g id="edge9_Node000007_Node000008" class="edge">
<title>Node7&#45;&gt;Node8</title>
<g id="a_edge9_Node000007_Node000008"><a xlink:title=" ">
<path fill="none" stroke="#63b8ff" d="M663.49,-109.98C648.77,-101.69 626.16,-88.94 608.91,-79.22"/>
<polygon fill="#63b8ff" stroke="#63b8ff" points="610.4,-76.03 599.97,-74.17 606.96,-82.13 610.4,-76.03"/>
</a>
</g>
</g>
<!-- Node10&#45;&gt;Node3 -->
<g id="edge12_Node000010_Node000003" class="edge">
<title>Node10&#45;&gt;Node3</title>
<g id="a_edge12_Node000010_Node000003"><a xlink:title=" ">
<path fill="none" stroke="#63b8ff" d="M543.37,-110C501.8,-99.87 438.41,-83.18 431.59,-74 417.76,-55.4 441.92,-36.2 463.37,-23.85"/>
<polygon fill="#63b8ff" stroke="#63b8ff" points="465.17,-26.86 472.28,-19 461.82,-20.71 465.17,-26.86"/>
</a>
</g>
</g>
<!-- Node10&#45;&gt;Node6 -->
<g id="edge13_Node000010_Node000006" class="edge">
<title>Node10&#45;&gt;Node6</title>
<g id="a_edge13_Node000010_Node000006"><a xlink:title=" ">
<path fill="none" stroke="#63b8ff" d="M539.82,-110.19C507.69,-102.77 461.71,-90.51 423.59,-74 392.04,-60.33 358.44,-38.89 337.73,-24.76"/>
<polygon fill="#63b8ff" stroke="#63b8ff" points="339.65,-21.83 329.43,-19.02 335.67,-27.59 339.65,-21.83"/>
</a>
</g>
</g>
<!-- Node11 -->
<g id="Node000011" class="node">
<title>Node11</title>
<g id="a_Node000011"><a xlink:href="no__os__lf256fifo_8h.html" target="_top" xlink:title="SPSC lock&#45;free fifo of fixed size (256), specialized for UART.">
<polygon fill="white" stroke="#666666" points="540.59,-74 440.59,-74 440.59,-55 540.59,-55 540.59,-74"/>
<text text-anchor="middle" x="490.59" y="-62" font-family="Helvetica,sans-Serif" font-size="10.00">no_os_lf256fifo.h</text>
</a>
</g>
</g>
<!-- Node10&#45;&gt;Node11 -->
<g id="edge14_Node000010_Node000011" class="edge">
<title>Node10&#45;&gt;Node11</title>
<g id="a_edge14_Node000010_Node000011"><a xlink:title=" ">
<path fill="none" stroke="#63b8ff" d="M565.29,-109.98C551.49,-101.77 530.35,-89.18 514.08,-79.49"/>
<polygon fill="#63b8ff" stroke="#63b8ff" points="515.53,-76.28 505.15,-74.17 511.95,-82.29 515.53,-76.28"/>
</a>
</g>
</g>
<!-- Node11&#45;&gt;Node3 -->
<g id="edge16_Node000011_Node000003" class="edge">
<title>Node11&#45;&gt;Node3</title>
<g id="a_edge16_Node000011_Node000003"><a xlink:title=" ">
<path fill="none" stroke="#63b8ff" d="M490.59,-54.75C490.59,-47.8 490.59,-37.85 490.59,-29.13"/>
<polygon fill="#63b8ff" stroke="#63b8ff" points="494.09,-29.09 490.59,-19.09 487.09,-29.09 494.09,-29.09"/>
</a>
</g>
</g>
<!-- Node11&#45;&gt;Node6 -->
<g id="edge17_Node000011_Node000006" class="edge">
<title>Node11&#45;&gt;Node6</title>
<g id="a_edge17_Node000011_Node000006"><a xlink:title=" ">
<path fill="none" stroke="#63b8ff" d="M462.79,-54.98C433.62,-46.05 387.59,-31.94 355.19,-22.02"/>
<polygon fill="#63b8ff" stroke="#63b8ff" points="356.19,-18.66 345.6,-19.08 354.14,-25.36 356.19,-18.66"/>
</a>
</g>
</g>
<!-- Node11&#45;&gt;Node9 -->
<g id="edge15_Node000011_Node000009" class="edge">
<title>Node11&#45;&gt;Node9</title>
<g id="a_edge15_Node000011_Node000009"><a xlink:title=" ">
<path fill="none" stroke="#63b8ff" d="M540.79,-56.21C543.77,-55.79 546.72,-55.39 549.59,-55 664.66,-39.44 801.12,-22.67 865.08,-14.9"/>
<polygon fill="#63b8ff" stroke="#63b8ff" points="865.57,-18.37 875.07,-13.69 864.73,-11.42 865.57,-18.37"/>
</a>
</g>
</g>
<!-- Node12&#45;&gt;Node2 -->
<g id="edge23_Node000012_Node000002" class="edge">
<title>Node12&#45;&gt;Node2</title>
<g id="a_edge23_Node000012_Node000002"><a xlink:title=" ">
<path fill="none" stroke="#63b8ff" d="M428.58,-164.98C395.76,-155.97 343.79,-141.7 307.6,-131.76"/>
<polygon fill="#63b8ff" stroke="#63b8ff" points="308.41,-128.36 297.84,-129.08 306.56,-135.11 308.41,-128.36"/>
</a>
</g>
</g>
<!-- Node12&#45;&gt;Node3 -->
<g id="edge21_Node000012_Node000003" class="edge">
<title>Node12&#45;&gt;Node3</title>
<g id="a_edge21_Node000012_Node000003"><a xlink:title=" ">
<path fill="none" stroke="#63b8ff" d="M433.74,-164.99C417.32,-158.09 397.39,-146.58 387.59,-129 383.48,-121.62 385.18,-118.09 387.59,-110 395.94,-82 403,-75.73 423.59,-55 435.74,-42.76 451.76,-31.98 465.09,-24.09"/>
<polygon fill="#63b8ff" stroke="#63b8ff" points="466.86,-27.11 473.81,-19.11 463.39,-21.03 466.86,-27.11"/>
</a>
</g>
</g>
<!-- Node12&#45;&gt;Node6 -->
<g id="edge20_Node000012_Node000006" class="edge">
<title>Node12&#45;&gt;Node6</title>
<g id="a_edge20_Node000012_Node000006"><a xlink:title=" ">
<path fill="none" stroke="#63b8ff" d="M437.57,-164.93C420.63,-157.47 397.5,-145.28 381.59,-129 352.7,-99.43 333.18,-54.17 323.88,-29"/>
<polygon fill="#63b8ff" stroke="#63b8ff" points="327.06,-27.52 320.42,-19.27 320.47,-29.86 327.06,-27.52"/>
</a>
</g>
</g>
<!-- Node12&#45;&gt;Node7 -->
<g id="edge22_Node000012_Node000007" class="edge">
<title>Node12&#45;&gt;Node7</title>
<g id="a_edge22_Node000012_Node000007"><a xlink:title=" ">
<path fill="none" stroke="#63b8ff" d="M494.78,-164.98C532.42,-155.87 592.25,-141.4 633.36,-131.45"/>
<polygon fill="#63b8ff" stroke="#63b8ff" points="634.23,-134.84 643.13,-129.08 632.58,-128.03 634.23,-134.84"/>
</a>
</g>
</g>
<!-- Node12&#45;&gt;Node10 -->
<g id="edge24_Node000012_Node000010" class="edge">
<title>Node12&#45;&gt;Node10</title>
<g id="a_edge24_Node000012_Node000010"><a xlink:title=" ">
<path fill="none" stroke="#63b8ff" d="M478.87,-164.98C498.26,-156.42 528.4,-143.11 550.65,-133.28"/>
<polygon fill="#63b8ff" stroke="#63b8ff" points="552.23,-136.41 559.96,-129.17 549.4,-130.01 552.23,-136.41"/>
</a>
</g>
</g>
<!-- Node13 -->
<g id="Node000013" class="node">
<title>Node13</title>
<g id="a_Node000013"><a xlink:title=" ">
<polygon fill="#e0e0e0" stroke="#999999" points="522.09,-129 397.09,-129 397.09,-110 522.09,-110 522.09,-129"/>
<text text-anchor="middle" x="459.59" y="-117" font-family="Helvetica,sans-Serif" font-size="10.00">drivers/uart/adi_uart.h</text>
</a>
</g>
</g>
<!-- Node12&#45;&gt;Node13 -->
<g id="edge19_Node000012_Node000013" class="edge">
<title>Node12&#45;&gt;Node13</title>
<g id="a_edge19_Node000012_Node000013"><a xlink:title=" ">
<path fill="none" stroke="#63b8ff" d="M459.59,-164.75C459.59,-157.8 459.59,-147.85 459.59,-139.13"/>
<polygon fill="#63b8ff" stroke="#63b8ff" points="463.09,-139.09 459.59,-129.09 456.09,-139.09 463.09,-139.09"/>
</a>
</g>
</g>
<!-- Node14&#45;&gt;Node3 -->
<g id="edge26_Node000014_Node000003" class="edge">
<title>Node14&#45;&gt;Node3</title>
<g id="a_edge26_Node000014_Node000003"><a xlink:title=" ">
<path fill="none" stroke="#63b8ff" d="M1000.48,-56.5C997.14,-55.95 993.81,-55.44 990.59,-55 818.12,-31.44 610.39,-17.56 527.43,-12.59"/>
<polygon fill="#63b8ff" stroke="#63b8ff" points="527.44,-9.08 517.25,-11.99 527.02,-16.07 527.44,-9.08"/>
</a>
</g>
</g>
<!-- Node16 -->
<g id="Node000016" class="node">
<title>Node16</title>
<g id="a_Node000016"><a xlink:title=" ">
<polygon fill="#e0e0e0" stroke="#999999" points="1384.09,-129 1273.09,-129 1273.09,-110 1384.09,-110 1384.09,-129"/>
<text text-anchor="middle" x="1328.59" y="-117" font-family="Helvetica,sans-Serif" font-size="10.00">drivers/rtc/adi_rtc.h</text>
</a>
</g>
</g>
<!-- Node15&#45;&gt;Node16 -->
<g id="edge28_Node000015_Node000016" class="edge">
<title>Node15&#45;&gt;Node16</title>
<g id="a_edge28_Node000015_Node000016"><a xlink:title=" ">
<path fill="none" stroke="#63b8ff" d="M1320.24,-164.75C1321.55,-157.8 1323.43,-147.85 1325.07,-139.13"/>
<polygon fill="#63b8ff" stroke="#63b8ff" points="1328.55,-139.56 1326.97,-129.09 1321.68,-138.27 1328.55,-139.56"/>
</a>
</g>
</g>
<!-- Node17&#45;&gt;Node3 -->
<g id="edge30_Node000017_Node000003" class="edge">
<title>Node17&#45;&gt;Node3</title>
<g id="a_edge30_Node000017_Node000003"><a xlink:title=" ">
<path fill="none" stroke="#63b8ff" d="M1074.26,-164.97C1085.38,-143.37 1110.42,-86.08 1081.59,-55 1043.9,-14.36 650.98,-10.61 527.51,-10.44"/>
<polygon fill="#63b8ff" stroke="#63b8ff" points="527.41,-6.94 517.41,-10.43 527.41,-13.94 527.41,-6.94"/>
</a>
</g>
</g>
<!-- Node20&#45;&gt;Node3 -->
<g id="edge34_Node000020_Node000003" class="edge">
<title>Node20&#45;&gt;Node3</title>
<g id="a_edge34_Node000020_Node000003"><a xlink:title=" ">
<path fill="none" stroke="#63b8ff" d="M759.86,-56.24C698.27,-45.78 585.58,-26.64 527.44,-16.76"/>
<polygon fill="#63b8ff" stroke="#63b8ff" points="527.69,-13.25 517.25,-15.03 526.52,-20.15 527.69,-13.25"/>
</a>
</g>
</g>
<!-- Node21&#45;&gt;Node3 -->
<g id="edge36_Node000021_Node000003" class="edge">
<title>Node21&#45;&gt;Node3</title>
<g id="a_edge36_Node000021_Node000003"><a xlink:title=" ">
<path fill="none" stroke="#63b8ff" d="M816.64,-109.81C786.33,-93.33 722.43,-58.85 711.59,-55 648.76,-32.7 571.69,-20.38 527.16,-14.62"/>
<polygon fill="#63b8ff" stroke="#63b8ff" points="527.45,-11.13 517.1,-13.36 526.58,-18.08 527.45,-11.13"/>
</a>
</g>
</g>
<!-- Node21&#45;&gt;Node19 -->
<g id="edge42_Node000021_Node000019" class="edge">
<title>Node21&#45;&gt;Node19</title>
<g id="a_edge42_Node000021_Node000019"><a xlink:title=" ">
<path fill="none" stroke="#63b8ff" d="M847.05,-109.98C861.01,-101.77 882.38,-89.18 898.84,-79.49"/>
<polygon fill="#63b8ff" stroke="#63b8ff" points="901.03,-82.26 907.87,-74.17 897.47,-76.23 901.03,-82.26"/>
</a>
</g>
</g>
<!-- Node21&#45;&gt;Node20 -->
<g id="edge41_Node000021_Node000020" class="edge">
<title>Node21&#45;&gt;Node20</title>
<g id="a_edge41_Node000021_Node000020"><a xlink:title=" ">
<path fill="none" stroke="#63b8ff" d="M827.64,-109.75C823.53,-102.49 817.56,-91.95 812.48,-82.98"/>
<polygon fill="#63b8ff" stroke="#63b8ff" points="815.42,-81.07 807.45,-74.09 809.33,-84.52 815.42,-81.07"/>
</a>
</g>
</g>
<!-- Node21&#45;&gt;Node22 -->
<g id="edge37_Node000021_Node000022" class="edge">
<title>Node21&#45;&gt;Node22</title>
<g id="a_edge37_Node000021_Node000022"><a xlink:title=" ">
<path fill="none" stroke="#63b8ff" d="M805.76,-109.98C777.72,-101.09 733.54,-87.07 702.29,-77.15"/>
<polygon fill="#63b8ff" stroke="#63b8ff" points="703.22,-73.77 692.63,-74.08 701.1,-80.44 703.22,-73.77"/>
</a>
</g>
</g>
<!-- Node22&#45;&gt;Node3 -->
<g id="edge38_Node000022_Node000003" class="edge">
<title>Node22&#45;&gt;Node3</title>
<g id="a_edge38_Node000022_Node000003"><a xlink:title=" ">
<path fill="none" stroke="#63b8ff" d="M637.47,-54.98C607.44,-45.89 559.73,-31.44 526.88,-21.49"/>
<polygon fill="#63b8ff" stroke="#63b8ff" points="527.79,-18.11 517.2,-18.56 525.76,-24.81 527.79,-18.11"/>
</a>
</g>
</g>
<!-- Node22&#45;&gt;Node6 -->
<g id="edge40_Node000022_Node000006" class="edge">
<title>Node22&#45;&gt;Node6</title>
<g id="a_edge40_Node000022_Node000006"><a xlink:title=" ">
<path fill="none" stroke="#63b8ff" d="M627.9,-56.57C624.75,-56.03 621.62,-55.5 618.59,-55 526.09,-39.8 417.2,-24.29 359.08,-16.2"/>
<polygon fill="#63b8ff" stroke="#63b8ff" points="359.23,-12.69 348.84,-14.78 358.26,-19.62 359.23,-12.69"/>
</a>
</g>
</g>
<!-- Node22&#45;&gt;Node9 -->
<g id="edge39_Node000022_Node000009" class="edge">
<title>Node22&#45;&gt;Node9</title>
<g id="a_edge39_Node000022_Node000009"><a xlink:title=" ">
<path fill="none" stroke="#63b8ff" d="M703.25,-55.04C747.7,-45.06 821.13,-28.57 865.08,-18.7"/>
<polygon fill="#63b8ff" stroke="#63b8ff" points="866.06,-22.07 875.05,-16.46 864.53,-15.24 866.06,-22.07"/>
</a>
</g>
</g>
<!-- Node23&#45;&gt;Node3 -->
<g id="edge45_Node000023_Node000003" class="edge">
<title>Node23&#45;&gt;Node3</title>
<g id="a_edge45_Node000023_Node000003"><a xlink:title=" ">
<path fill="none" stroke="#63b8ff" d="M162.62,-57.22C167.32,-56.45 172.07,-55.7 176.59,-55 276.69,-39.57 395.06,-23.34 453.76,-15.42"/>
<polygon fill="#63b8ff" stroke="#63b8ff" points="454.23,-18.89 463.68,-14.09 453.3,-11.95 454.23,-18.89"/>
</a>
</g>
</g>
<!-- Node23&#45;&gt;Node6 -->
<g id="edge46_Node000023_Node000006" class="edge">
<title>Node23&#45;&gt;Node6</title>
<g id="a_edge46_Node000023_Node000006"><a xlink:title=" ">
<path fill="none" stroke="#63b8ff" d="M156.44,-54.98C189.09,-45.97 240.79,-31.7 276.79,-21.76"/>
<polygon fill="#63b8ff" stroke="#63b8ff" points="277.79,-25.12 286.5,-19.08 275.93,-18.37 277.79,-25.12"/>
</a>
</g>
</g>
<!-- Node24&#45;&gt;Node9 -->
<g id="edge49_Node000024_Node000009" class="edge">
<title>Node24&#45;&gt;Node9</title>
<g id="a_edge49_Node000024_Node000009"><a xlink:title=" ">
<path fill="none" stroke="#63b8ff" d="M1214.62,-164.89C1222.63,-152.31 1234.76,-128.38 1225.59,-110 1207.46,-73.65 1189.84,-71.21 1152.59,-55 1080.99,-23.83 988.85,-14.49 938.5,-11.69"/>
<polygon fill="#63b8ff" stroke="#63b8ff" points="938.57,-8.19 928.41,-11.19 938.22,-15.18 938.57,-8.19"/>
</a>
</g>
</g>
<!-- Node25 -->
<g id="Node000025" class="node">
<title>Node25</title>
<g id="a_Node000025"><a xlink:title=" ">
<polygon fill="#e0e0e0" stroke="#999999" points="1216.59,-129 1166.59,-129 1166.59,-110 1216.59,-110 1216.59,-129"/>
<text text-anchor="middle" x="1191.59" y="-117" font-family="Helvetica,sans-Serif" font-size="10.00">stdio.h</text>
</a>
</g>
</g>
<!-- Node24&#45;&gt;Node25 -->
<g id="edge48_Node000024_Node000025" class="edge">
<title>Node24&#45;&gt;Node25</title>
<g id="a_edge48_Node000024_Node000025"><a xlink:title=" ">
<path fill="none" stroke="#63b8ff" d="M1205.78,-164.75C1203.53,-157.72 1200.29,-147.62 1197.47,-138.84"/>
<polygon fill="#63b8ff" stroke="#63b8ff" points="1200.73,-137.54 1194.34,-129.09 1194.07,-139.68 1200.73,-137.54"/>
</a>
</g>
</g>
</g>
</svg>
