<?xml version="1.0" encoding="UTF-8" standalone="no"?>
<!DOCTYPE svg PUBLIC "-//W3C//DTD SVG 1.1//EN"
 "http://www.w3.org/Graphics/SVG/1.1/DTD/svg11.dtd">
<!-- Generated by graphviz version 2.43.0 (0)
 -->
<!-- Title: drivers/platform/aducm3029/aducm3029_rtc.c Pages: 1 -->
<svg width="534pt" height="148pt"
 viewBox="0.00 0.00 533.50 148.00" xmlns="http://www.w3.org/2000/svg" xmlns:xlink="http://www.w3.org/1999/xlink">
<g id="graph0" class="graph" transform="scale(1 1) rotate(0) translate(4 144)">
<title>drivers/platform/aducm3029/aducm3029_rtc.c</title>
<!-- Node1 -->
<g id="Node000001" class="node">
<title>Node1</title>
<g id="a_Node000001"><a xlink:title="Implementation of RTC driver for ADuCM302x.">
<polygon fill="#999999" stroke="#666666" points="335.5,-140 180.5,-140 180.5,-110 335.5,-110 335.5,-140"/>
<text text-anchor="start" x="188.5" y="-128" font-family="Helvetica,sans-Serif" font-size="10.00">drivers/platform/aducm3029</text>
<text text-anchor="middle" x="258" y="-117" font-family="Helvetica,sans-Serif" font-size="10.00">/aducm3029_rtc.c</text>
</a>
</g>
</g>
<!-- Node2 -->
<g id="Node000002" class="node">
<title>Node2</title>
<g id="a_Node000002"><a xlink:title=" ">
<polygon fill="#e0e0e0" stroke="#999999" points="316.5,-19 263.5,-19 263.5,0 316.5,0 316.5,-19"/>
<text text-anchor="middle" x="290" y="-7" font-family="Helvetica,sans-Serif" font-size="10.00">stdlib.h</text>
</a>
</g>
</g>
<!-- Node1&#45;&gt;Node2 -->
<g id="edge1_Node000001_Node000002" class="edge">
<title>Node1&#45;&gt;Node2</title>
<g id="a_edge1_Node000001_Node000002"><a xlink:title=" ">
<path fill="none" stroke="#63b8ff" d="M262.05,-109.63C267.83,-89.12 278.45,-51.47 284.8,-28.93"/>
<polygon fill="#63b8ff" stroke="#63b8ff" points="288.19,-29.8 287.54,-19.23 281.46,-27.9 288.19,-29.8"/>
</a>
</g>
</g>
<!-- Node3 -->
<g id="Node000003" class="node">
<title>Node3</title>
<g id="a_Node000003"><a xlink:href="no__os__error_8h.html" target="_top" xlink:title="Error codes definition.">
<polygon fill="white" stroke="#666666" points="82,-74 0,-74 0,-55 82,-55 82,-74"/>
<text text-anchor="middle" x="41" y="-62" font-family="Helvetica,sans-Serif" font-size="10.00">no_os_error.h</text>
</a>
</g>
</g>
<!-- Node1&#45;&gt;Node3 -->
<g id="edge2_Node000001_Node000003" class="edge">
<title>Node1&#45;&gt;Node3</title>
<g id="a_edge2_Node000001_Node000003"><a xlink:title=" ">
<path fill="none" stroke="#63b8ff" d="M206.02,-109.99C168.25,-99.8 117.79,-86.2 82.66,-76.73"/>
<polygon fill="#63b8ff" stroke="#63b8ff" points="83.3,-73.28 72.73,-74.05 81.47,-80.04 83.3,-73.28"/>
</a>
</g>
</g>
<!-- Node5 -->
<g id="Node000005" class="node">
<title>Node5</title>
<g id="a_Node000005"><a xlink:href="no__os__rtc_8h.html" target="_top" xlink:title="Header of the RTC interface.">
<polygon fill="white" stroke="#666666" points="172,-74 100,-74 100,-55 172,-55 172,-74"/>
<text text-anchor="middle" x="136" y="-62" font-family="Helvetica,sans-Serif" font-size="10.00">no_os_rtc.h</text>
</a>
</g>
</g>
<!-- Node1&#45;&gt;Node5 -->
<g id="edge4_Node000001_Node000005" class="edge">
<title>Node1&#45;&gt;Node5</title>
<g id="a_edge4_Node000001_Node000005"><a xlink:title=" ">
<path fill="none" stroke="#63b8ff" d="M228.78,-109.99C208.88,-100.45 182.72,-87.9 163.25,-78.57"/>
<polygon fill="#63b8ff" stroke="#63b8ff" points="164.55,-75.31 154.02,-74.14 161.52,-81.62 164.55,-75.31"/>
</a>
</g>
</g>
<!-- Node7 -->
<g id="Node000007" class="node">
<title>Node7</title>
<g id="a_Node000007"><a xlink:href="aducm3029__rtc_8h.html" target="_top" xlink:title="Header file of RTC driver for ADuCM302x.">
<polygon fill="white" stroke="#666666" points="520.5,-74 419.5,-74 419.5,-55 520.5,-55 520.5,-74"/>
<text text-anchor="middle" x="470" y="-62" font-family="Helvetica,sans-Serif" font-size="10.00">aducm3029_rtc.h</text>
</a>
</g>
</g>
<!-- Node1&#45;&gt;Node7 -->
<g id="edge6_Node000001_Node000007" class="edge">
<title>Node1&#45;&gt;Node7</title>
<g id="a_edge6_Node000001_Node000007"><a xlink:title=" ">
<path fill="none" stroke="#63b8ff" d="M308.78,-109.99C345.68,-99.8 394.98,-86.2 429.3,-76.73"/>
<polygon fill="#63b8ff" stroke="#63b8ff" points="430.29,-80.09 439,-74.05 428.43,-73.34 430.29,-80.09"/>
</a>
</g>
</g>
<!-- Node9 -->
<g id="Node000009" class="node">
<title>Node9</title>
<g id="a_Node000009"><a xlink:href="no__os__irq_8h.html" target="_top" xlink:title="Header file of IRQ interface.">
<polygon fill="white" stroke="#666666" points="262,-74 190,-74 190,-55 262,-55 262,-74"/>
<text text-anchor="middle" x="226" y="-62" font-family="Helvetica,sans-Serif" font-size="10.00">no_os_irq.h</text>
</a>
</g>
</g>
<!-- Node1&#45;&gt;Node9 -->
<g id="edge8_Node000001_Node000009" class="edge">
<title>Node1&#45;&gt;Node9</title>
<g id="a_edge8_Node000001_Node000009"><a xlink:title=" ">
<path fill="none" stroke="#63b8ff" d="M250.25,-109.84C245.85,-101.78 240.29,-91.62 235.6,-83.06"/>
<polygon fill="#63b8ff" stroke="#63b8ff" points="238.66,-81.36 230.8,-74.27 232.52,-84.72 238.66,-81.36"/>
</a>
</g>
</g>
<!-- Node10 -->
<g id="Node000010" class="node">
<title>Node10</title>
<g id="a_Node000010"><a xlink:href="no__os__alloc_8h.html" target="_top" xlink:title=" ">
<polygon fill="white" stroke="#666666" points="401.5,-74 318.5,-74 318.5,-55 401.5,-55 401.5,-74"/>
<text text-anchor="middle" x="360" y="-62" font-family="Helvetica,sans-Serif" font-size="10.00">no_os_alloc.h</text>
</a>
</g>
</g>
<!-- Node1&#45;&gt;Node10 -->
<g id="edge10_Node000001_Node000010" class="edge">
<title>Node1&#45;&gt;Node10</title>
<g id="a_edge10_Node000001_Node000010"><a xlink:title=" ">
<path fill="none" stroke="#63b8ff" d="M282.43,-109.99C298.69,-100.66 319.95,-88.47 336.1,-79.21"/>
<polygon fill="#63b8ff" stroke="#63b8ff" points="338,-82.15 344.94,-74.14 334.52,-76.08 338,-82.15"/>
</a>
</g>
</g>
<!-- Node4 -->
<g id="Node000004" class="node">
<title>Node4</title>
<g id="a_Node000004"><a xlink:href="errno_8h.html" target="_top" xlink:title="Error macro definition for ARM Compiler.">
<polygon fill="white" stroke="#666666" points="66.5,-19 15.5,-19 15.5,0 66.5,0 66.5,-19"/>
<text text-anchor="middle" x="41" y="-7" font-family="Helvetica,sans-Serif" font-size="10.00">errno.h</text>
</a>
</g>
</g>
<!-- Node3&#45;&gt;Node4 -->
<g id="edge3_Node000003_Node000004" class="edge">
<title>Node3&#45;&gt;Node4</title>
<g id="a_edge3_Node000003_Node000004"><a xlink:title=" ">
<path fill="none" stroke="#63b8ff" d="M41,-54.75C41,-47.8 41,-37.85 41,-29.13"/>
<polygon fill="#63b8ff" stroke="#63b8ff" points="44.5,-29.09 41,-19.09 37.5,-29.09 44.5,-29.09"/>
</a>
</g>
</g>
<!-- Node6 -->
<g id="Node000006" class="node">
<title>Node6</title>
<g id="a_Node000006"><a xlink:title=" ">
<polygon fill="#e0e0e0" stroke="#999999" points="203.5,-19 150.5,-19 150.5,0 203.5,0 203.5,-19"/>
<text text-anchor="middle" x="177" y="-7" font-family="Helvetica,sans-Serif" font-size="10.00">stdint.h</text>
</a>
</g>
</g>
<!-- Node5&#45;&gt;Node6 -->
<g id="edge5_Node000005_Node000006" class="edge">
<title>Node5&#45;&gt;Node6</title>
<g id="a_edge5_Node000005_Node000006"><a xlink:title=" ">
<path fill="none" stroke="#63b8ff" d="M142.77,-54.75C148.56,-47.26 157.06,-36.28 164.14,-27.13"/>
<polygon fill="#63b8ff" stroke="#63b8ff" points="167.01,-29.14 170.36,-19.09 161.47,-24.86 167.01,-29.14"/>
</a>
</g>
</g>
<!-- Node8 -->
<g id="Node000008" class="node">
<title>Node8</title>
<g id="a_Node000008"><a xlink:title=" ">
<polygon fill="#e0e0e0" stroke="#999999" points="525.5,-19 414.5,-19 414.5,0 525.5,0 525.5,-19"/>
<text text-anchor="middle" x="470" y="-7" font-family="Helvetica,sans-Serif" font-size="10.00">drivers/rtc/adi_rtc.h</text>
</a>
</g>
</g>
<!-- Node7&#45;&gt;Node8 -->
<g id="edge7_Node000007_Node000008" class="edge">
<title>Node7&#45;&gt;Node8</title>
<g id="a_edge7_Node000007_Node000008"><a xlink:title=" ">
<path fill="none" stroke="#63b8ff" d="M470,-54.75C470,-47.8 470,-37.85 470,-29.13"/>
<polygon fill="#63b8ff" stroke="#63b8ff" points="473.5,-29.09 470,-19.09 466.5,-29.09 473.5,-29.09"/>
</a>
</g>
</g>
<!-- Node9&#45;&gt;Node6 -->
<g id="edge9_Node000009_Node000006" class="edge">
<title>Node9&#45;&gt;Node6</title>
<g id="a_edge9_Node000009_Node000006"><a xlink:title=" ">
<path fill="none" stroke="#63b8ff" d="M217.91,-54.75C210.84,-47.11 200.41,-35.82 191.85,-26.56"/>
<polygon fill="#63b8ff" stroke="#63b8ff" points="194.3,-24.06 184.94,-19.09 189.16,-28.81 194.3,-24.06"/>
</a>
</g>
</g>
<!-- Node10&#45;&gt;Node2 -->
<g id="edge12_Node000010_Node000002" class="edge">
<title>Node10&#45;&gt;Node2</title>
<g id="a_edge12_Node000010_Node000002"><a xlink:title=" ">
<path fill="none" stroke="#63b8ff" d="M348.75,-54.98C338.2,-47 322.2,-34.88 309.56,-25.31"/>
<polygon fill="#63b8ff" stroke="#63b8ff" points="311.54,-22.42 301.45,-19.17 307.31,-28 311.54,-22.42"/>
</a>
</g>
</g>
<!-- Node11 -->
<g id="Node000011" class="node">
<title>Node11</title>
<g id="a_Node000011"><a xlink:title=" ">
<polygon fill="#e0e0e0" stroke="#999999" points="385,-19 335,-19 335,0 385,0 385,-19"/>
<text text-anchor="middle" x="360" y="-7" font-family="Helvetica,sans-Serif" font-size="10.00">stdio.h</text>
</a>
</g>
</g>
<!-- Node10&#45;&gt;Node11 -->
<g id="edge11_Node000010_Node000011" class="edge">
<title>Node10&#45;&gt;Node11</title>
<g id="a_edge11_Node000010_Node000011"><a xlink:title=" ">
<path fill="none" stroke="#63b8ff" d="M360,-54.75C360,-47.8 360,-37.85 360,-29.13"/>
<polygon fill="#63b8ff" stroke="#63b8ff" points="363.5,-29.09 360,-19.09 356.5,-29.09 363.5,-29.09"/>
</a>
</g>
</g>
</g>
</svg>
