<?xml version="1.0" encoding="UTF-8" standalone="no"?>
<!DOCTYPE svg PUBLIC "-//W3C//DTD SVG 1.1//EN"
 "http://www.w3.org/Graphics/SVG/1.1/DTD/svg11.dtd">
<!-- Generated by graphviz version 2.43.0 (0)
 -->
<!-- Title: adxl313_conf_int_map Pages: 1 -->
<svg width="649pt" height="204pt"
 viewBox="0.00 0.00 649.00 203.50" xmlns="http://www.w3.org/2000/svg" xmlns:xlink="http://www.w3.org/1999/xlink">
<g id="graph0" class="graph" transform="scale(1 1) rotate(0) translate(4 199.5)">
<title>adxl313_conf_int_map</title>
<!-- Node1 -->
<g id="Node000001" class="node">
<title>Node1</title>
<g id="a_Node000001"><a xlink:title=" ">
<polygon fill="#999999" stroke="#666666" points="641,-99 514,-99 514,-80 641,-80 641,-99"/>
<text text-anchor="middle" x="577.5" y="-87" font-family="Helvetica,sans-Serif" font-size="10.00">adxl313_conf_int_map</text>
</a>
</g>
</g>
<!-- Node2 -->
<g id="Node000002" class="node">
<title>Node2</title>
<g id="a_Node000002"><a xlink:href="adxl313_8c.html#a842d16935a98f00b120d32346c56503d" target="_top" xlink:title=" ">
<polygon fill="white" stroke="#666666" points="470,-190 327,-190 327,-171 470,-171 470,-190"/>
<text text-anchor="middle" x="398.5" y="-178" font-family="Helvetica,sans-Serif" font-size="10.00">adxl313_activity_int_map</text>
</a>
</g>
</g>
<!-- Node1&#45;&gt;Node2 -->
<g id="edge1_Node000001_Node000002" class="edge">
<title>Node1&#45;&gt;Node2</title>
<g id="a_edge1_Node000001_Node000002"><a xlink:title=" ">
<path fill="none" stroke="#63b8ff" d="M558.71,-105.91C539.98,-122.32 508.97,-147.14 478,-161.5 469.73,-165.34 460.6,-168.45 451.58,-170.96"/>
<polygon fill="#63b8ff" stroke="#63b8ff" points="561.05,-108.51 566.18,-99.24 556.39,-103.29 561.05,-108.51"/>
</a>
</g>
</g>
<!-- Node4 -->
<g id="Node000004" class="node">
<title>Node4</title>
<g id="a_Node000004"><a xlink:href="adxl313_8c.html#a756aaa36137a481c4ad4eda9b3938772" target="_top" xlink:title=" ">
<polygon fill="white" stroke="#666666" points="456.5,-152.5 340.5,-152.5 340.5,-122.5 456.5,-122.5 456.5,-152.5"/>
<text text-anchor="start" x="348.5" y="-140.5" font-family="Helvetica,sans-Serif" font-size="10.00">adxl313_data_ready</text>
<text text-anchor="middle" x="398.5" y="-129.5" font-family="Helvetica,sans-Serif" font-size="10.00">_int_map</text>
</a>
</g>
</g>
<!-- Node1&#45;&gt;Node4 -->
<g id="edge3_Node000001_Node000004" class="edge">
<title>Node1&#45;&gt;Node4</title>
<g id="a_edge3_Node000001_Node000004"><a xlink:title=" ">
<path fill="none" stroke="#63b8ff" d="M531.18,-101.79C507.99,-108.08 479.55,-115.79 455.04,-122.44"/>
<polygon fill="#63b8ff" stroke="#63b8ff" points="532.37,-105.09 541.11,-99.1 530.54,-98.34 532.37,-105.09"/>
</a>
</g>
</g>
<!-- Node5 -->
<g id="Node000005" class="node">
<title>Node5</title>
<g id="a_Node000005"><a xlink:href="adxl313_8c.html#a1b5c3a4ecb47393e4053ec1fa7927af9" target="_top" xlink:title=" ">
<polygon fill="white" stroke="#666666" points="452,-104.5 345,-104.5 345,-74.5 452,-74.5 452,-104.5"/>
<text text-anchor="start" x="353" y="-92.5" font-family="Helvetica,sans-Serif" font-size="10.00">adxl313_inactivity</text>
<text text-anchor="middle" x="398.5" y="-81.5" font-family="Helvetica,sans-Serif" font-size="10.00">_int_map</text>
</a>
</g>
</g>
<!-- Node1&#45;&gt;Node5 -->
<g id="edge4_Node000001_Node000005" class="edge">
<title>Node1&#45;&gt;Node5</title>
<g id="a_edge4_Node000001_Node000005"><a xlink:title=" ">
<path fill="none" stroke="#63b8ff" d="M503.58,-89.5C486.38,-89.5 468.37,-89.5 452.26,-89.5"/>
<polygon fill="#63b8ff" stroke="#63b8ff" points="503.6,-93 513.6,-89.5 503.6,-86 503.6,-93"/>
</a>
</g>
</g>
<!-- Node8 -->
<g id="Node000008" class="node">
<title>Node8</title>
<g id="a_Node000008"><a xlink:href="adxl313_8c.html#a53ffccfc61a6a9dffa9596217d8c8be4" target="_top" xlink:title=" ">
<polygon fill="white" stroke="#666666" points="470,-56 327,-56 327,-37 470,-37 470,-56"/>
<text text-anchor="middle" x="398.5" y="-44" font-family="Helvetica,sans-Serif" font-size="10.00">adxl313_overrun_int_map</text>
</a>
</g>
</g>
<!-- Node1&#45;&gt;Node8 -->
<g id="edge7_Node000001_Node000008" class="edge">
<title>Node1&#45;&gt;Node8</title>
<g id="a_edge7_Node000001_Node000008"><a xlink:title=" ">
<path fill="none" stroke="#63b8ff" d="M527.16,-77.46C511.45,-73.63 493.99,-69.38 478,-65.5 465.33,-62.42 451.5,-59.07 439.04,-56.06"/>
<polygon fill="#63b8ff" stroke="#63b8ff" points="526.66,-80.94 537.2,-79.91 528.31,-74.14 526.66,-80.94"/>
</a>
</g>
</g>
<!-- Node9 -->
<g id="Node000009" class="node">
<title>Node9</title>
<g id="a_Node000009"><a xlink:href="adxl313_8c.html#a4fa970d2fead9d43e988060012400db6" target="_top" xlink:title=" ">
<polygon fill="white" stroke="#666666" points="478,-19 319,-19 319,0 478,0 478,-19"/>
<text text-anchor="middle" x="398.5" y="-7" font-family="Helvetica,sans-Serif" font-size="10.00">adxl313_watermark_int_map</text>
</a>
</g>
</g>
<!-- Node1&#45;&gt;Node9 -->
<g id="edge8_Node000001_Node000009" class="edge">
<title>Node1&#45;&gt;Node9</title>
<g id="a_edge8_Node000001_Node000009"><a xlink:title=" ">
<path fill="none" stroke="#63b8ff" d="M555.93,-73.64C536.75,-59.58 506.84,-39.47 478,-27.5 469.86,-24.12 460.98,-21.32 452.21,-19.01"/>
<polygon fill="#63b8ff" stroke="#63b8ff" points="554.09,-76.63 564.19,-79.81 558.27,-71.02 554.09,-76.63"/>
</a>
</g>
</g>
<!-- Node3 -->
<g id="Node000003" class="node">
<title>Node3</title>
<g id="a_Node000003"><a xlink:href="adxl313_8c.html#ad14d5588767f1b178ff91d1ebb6034d6" target="_top" xlink:title="Enable the activity detection.">
<polygon fill="white" stroke="#666666" points="278.5,-195.5 160.5,-195.5 160.5,-165.5 278.5,-165.5 278.5,-195.5"/>
<text text-anchor="start" x="168.5" y="-183.5" font-family="Helvetica,sans-Serif" font-size="10.00">adxl313_set_activity</text>
<text text-anchor="middle" x="219.5" y="-172.5" font-family="Helvetica,sans-Serif" font-size="10.00">_detection</text>
</a>
</g>
</g>
<!-- Node2&#45;&gt;Node3 -->
<g id="edge2_Node000002_Node000003" class="edge">
<title>Node2&#45;&gt;Node3</title>
<g id="a_edge2_Node000002_Node000003"><a xlink:title=" ">
<path fill="none" stroke="#63b8ff" d="M316.58,-180.5C303.78,-180.5 290.76,-180.5 278.61,-180.5"/>
<polygon fill="#63b8ff" stroke="#63b8ff" points="316.78,-184 326.78,-180.5 316.78,-177 316.78,-184"/>
</a>
</g>
</g>
<!-- Node6 -->
<g id="Node000006" class="node">
<title>Node6</title>
<g id="a_Node000006"><a xlink:href="adxl313_8c.html#aef4533824eea2c42410b877c50d58c75" target="_top" xlink:title="Enables the inactivity detection.">
<polygon fill="white" stroke="#666666" points="283,-104.5 156,-104.5 156,-74.5 283,-74.5 283,-104.5"/>
<text text-anchor="start" x="164" y="-92.5" font-family="Helvetica,sans-Serif" font-size="10.00">adxl313_set_inactivity</text>
<text text-anchor="middle" x="219.5" y="-81.5" font-family="Helvetica,sans-Serif" font-size="10.00">_detection</text>
</a>
</g>
</g>
<!-- Node5&#45;&gt;Node6 -->
<g id="edge5_Node000005_Node000006" class="edge">
<title>Node5&#45;&gt;Node6</title>
<g id="a_edge5_Node000005_Node000006"><a xlink:title=" ">
<path fill="none" stroke="#63b8ff" d="M334.67,-89.5C317.97,-89.5 299.93,-89.5 283.23,-89.5"/>
<polygon fill="#63b8ff" stroke="#63b8ff" points="334.87,-93 344.87,-89.5 334.87,-86 334.87,-93"/>
</a>
</g>
</g>
<!-- Node7 -->
<g id="Node000007" class="node">
<title>Node7</title>
<g id="a_Node000007"><a xlink:href="eval-adxl313z_2src_2examples_2basic_2basic__example_8c.html#a72943dc9011d36293cb05ca5d7cb6899" target="_top" xlink:title="Basic example main execution.">
<polygon fill="white" stroke="#666666" points="120,-99 0,-99 0,-80 120,-80 120,-99"/>
<text text-anchor="middle" x="60" y="-87" font-family="Helvetica,sans-Serif" font-size="10.00">basic_example_main</text>
</a>
</g>
</g>
<!-- Node6&#45;&gt;Node7 -->
<g id="edge6_Node000006_Node000007" class="edge">
<title>Node6&#45;&gt;Node7</title>
<g id="a_edge6_Node000006_Node000007"><a xlink:title=" ">
<path fill="none" stroke="#63b8ff" d="M145.79,-89.5C137.2,-89.5 128.52,-89.5 120.16,-89.5"/>
<polygon fill="#63b8ff" stroke="#63b8ff" points="145.8,-93 155.8,-89.5 145.8,-86 145.8,-93"/>
</a>
</g>
</g>
</g>
</svg>
