<?xml version="1.0" encoding="UTF-8" standalone="no"?>
<!DOCTYPE svg PUBLIC "-//W3C//DTD SVG 1.1//EN"
 "http://www.w3.org/Graphics/SVG/1.1/DTD/svg11.dtd">
<!-- Generated by graphviz version 2.43.0 (0)
 -->
<!-- Title: adxl313_conf_int_enable Pages: 1 -->
<!--zoomable 182 -->

<svg id="main" version="1.1" xmlns="http://www.w3.org/2000/svg" xmlns:xlink="http://www.w3.org/1999/xlink" xml:space="preserve" onload="init(evt)">

<style type="text/css"><![CDATA[
.node, .edge {opacity: 0.7;}
.node.selected, .edge.selected {opacity: 1;}
.edge:hover path { stroke: red; }
.edge:hover polygon { stroke: red; fill: red; }
]]></style>

<defs>
  <circle id="rim" cx="0" cy="0" r="7"/>
  <circle id="rim2" cx="0" cy="0" r="3.5"/>
  <g id="zoomPlus">
    <use xlink:href="#rim" fill="#404040"><set attributeName="fill" to="#808080" begin="zoomplus.mouseover" end="zoomplus.mouseout"/></use>
    <path d="M-4,0h8M0,-4v8" fill="none" stroke="white" stroke-width="1.5" pointer-events="none"/>
  </g>
  <g id="zoomMin">
    <use xlink:href="#rim" fill="#404040"><set attributeName="fill" to="#808080" begin="zoomminus.mouseover" end="zoomminus.mouseout"/></use>
    <path d="M-4,0h8" fill="none" stroke="white" stroke-width="1.5" pointer-events="none"/>
  </g>
  <g id="arrowUp" transform="translate(30 24)">
    <use xlink:href="#rim"/>
    <path pointer-events="none" fill="none" stroke="white" stroke-width="1.5" d="M0,-3.0v7 M-2.5,-0.5L0,-3.0L2.5,-0.5"/>
  </g>
  <g id="arrowRight" transform="rotate(90) translate(36 -43)">
    <use xlink:href="#rim"/>
    <path pointer-events="none" fill="none" stroke="white" stroke-width="1.5" d="M0,-3.0v7 M-2.5,-0.5L0,-3.0L2.5,-0.5"/>
  </g>
  <g id="arrowDown" transform="rotate(180) translate(-30 -48)">
    <use xlink:href="#rim"/>
    <path pointer-events="none" fill="none" stroke="white" stroke-width="1.5" d="M0,-3.0v7 M-2.5,-0.5L0,-3.0L2.5,-0.5"/>
  </g>
  <g id="arrowLeft" transform="rotate(270) translate(-36 17)">
    <use xlink:href="#rim"/>
    <path pointer-events="none" fill="none" stroke="white" stroke-width="1.5" d="M0,-3.0v7 M-2.5,-0.5L0,-3.0L2.5,-0.5"/>
  </g>
  <g id="resetDef">
    <use xlink:href="#rim2" fill="#404040"><set attributeName="fill" to="#808080" begin="reset.mouseover" end="reset.mouseout"/></use>
  </g>
</defs>
<script type="application/ecmascript">
var viewWidth = 586;
var viewHeight = 182;
var sectionId = 'dynsection-6';
</script>
<script type="application/ecmascript" xlink:href="svg.min.js"/>
<svg id="graph" class="graph">
<g id="viewport">
<title>adxl313_conf_int_enable</title>
<!-- Node1 -->
<g id="Node000001" class="node">
<title>Node1</title>
<g id="a_Node000001"><a xlink:title=" ">
<polygon fill="#999999" stroke="#666666" points="578,-96.5 440,-96.5 440,-77.5 578,-77.5 578,-96.5"/>
<text text-anchor="middle" x="509" y="-84.5" font-family="Helvetica,sans-Serif" font-size="10.00">adxl313_conf_int_enable</text>
</a>
</g>
</g>
<!-- Node2 -->
<g id="Node000002" class="node">
<title>Node2</title>
<g id="a_Node000002"><a xlink:href="adxl313_8c.html#aeb28597f93ea9a03d763da796d696077" target="_top" xlink:title=" ">
<polygon fill="white" stroke="#666666" points="404,-174 288,-174 288,-144 404,-144 404,-174"/>
<text text-anchor="start" x="296" y="-162" font-family="Helvetica,sans-Serif" font-size="10.00">adxl313_activity_int</text>
<text text-anchor="middle" x="346" y="-151" font-family="Helvetica,sans-Serif" font-size="10.00">_disable</text>
</a>
</g>
</g>
<!-- Node1&#45;&gt;Node2 -->
<g id="edge1_Node000001_Node000002" class="edge">
<title>Node1&#45;&gt;Node2</title>
<g id="a_edge1_Node000001_Node000002"><a xlink:title=" ">
<path fill="none" stroke="#63b8ff" d="M478.53,-100.93C457.77,-110.65 429.29,-123.84 404,-135 397.32,-137.95 390.17,-141.02 383.26,-143.95"/>
<polygon fill="#63b8ff" stroke="#63b8ff" points="480.2,-104.01 487.77,-96.59 477.23,-97.67 480.2,-104.01"/>
</a>
</g>
</g>
<!-- Node3 -->
<g id="Node000003" class="node">
<title>Node3</title>
<g id="a_Node000003"><a xlink:href="adxl313_8c.html#aef549346ff1a4d98f930d77321082d54" target="_top" xlink:title=" ">
<polygon fill="white" stroke="#666666" points="404,-126 288,-126 288,-96 404,-96 404,-126"/>
<text text-anchor="start" x="296" y="-114" font-family="Helvetica,sans-Serif" font-size="10.00">adxl313_activity_int</text>
<text text-anchor="middle" x="346" y="-103" font-family="Helvetica,sans-Serif" font-size="10.00">_enable</text>
</a>
</g>
</g>
<!-- Node1&#45;&gt;Node3 -->
<g id="edge2_Node000001_Node000003" class="edge">
<title>Node1&#45;&gt;Node3</title>
<g id="a_edge2_Node000001_Node000003"><a xlink:title=" ">
<path fill="none" stroke="#63b8ff" d="M433.95,-98.04C423.93,-99.53 413.77,-101.05 404.1,-102.49"/>
<polygon fill="#63b8ff" stroke="#63b8ff" points="434.53,-101.49 443.91,-96.55 433.5,-94.57 434.53,-101.49"/>
</a>
</g>
</g>
<!-- Node5 -->
<g id="Node000005" class="node">
<title>Node5</title>
<g id="a_Node000005"><a xlink:href="adxl313_8c.html#abbae14878e1a6dca680d606d531a64bb" target="_top" xlink:title=" ">
<polygon fill="white" stroke="#666666" points="399.5,-78 292.5,-78 292.5,-48 399.5,-48 399.5,-78"/>
<text text-anchor="start" x="300.5" y="-66" font-family="Helvetica,sans-Serif" font-size="10.00">adxl313_inactivity</text>
<text text-anchor="middle" x="346" y="-55" font-family="Helvetica,sans-Serif" font-size="10.00">_int_disable</text>
</a>
</g>
</g>
<!-- Node1&#45;&gt;Node5 -->
<g id="edge4_Node000001_Node000005" class="edge">
<title>Node1&#45;&gt;Node5</title>
<g id="a_edge4_Node000001_Node000005"><a xlink:title=" ">
<path fill="none" stroke="#63b8ff" d="M433.8,-75.94C422.22,-74.21 410.46,-72.46 399.5,-70.83"/>
<polygon fill="#63b8ff" stroke="#63b8ff" points="433.5,-79.43 443.91,-77.45 434.53,-72.51 433.5,-79.43"/>
</a>
</g>
</g>
<!-- Node6 -->
<g id="Node000006" class="node">
<title>Node6</title>
<g id="a_Node000006"><a xlink:href="adxl313_8c.html#a9cd152bc1d41a1d03306e2059d6d1c38" target="_top" xlink:title=" ">
<polygon fill="white" stroke="#666666" points="399.5,-30 292.5,-30 292.5,0 399.5,0 399.5,-30"/>
<text text-anchor="start" x="300.5" y="-18" font-family="Helvetica,sans-Serif" font-size="10.00">adxl313_inactivity</text>
<text text-anchor="middle" x="346" y="-7" font-family="Helvetica,sans-Serif" font-size="10.00">_int_enable</text>
</a>
</g>
</g>
<!-- Node1&#45;&gt;Node6 -->
<g id="edge5_Node000001_Node000006" class="edge">
<title>Node1&#45;&gt;Node6</title>
<g id="a_edge5_Node000001_Node000006"><a xlink:title=" ">
<path fill="none" stroke="#63b8ff" d="M478.53,-73.07C457.77,-63.35 429.29,-50.16 404,-39 397.32,-36.05 390.17,-32.98 383.26,-30.05"/>
<polygon fill="#63b8ff" stroke="#63b8ff" points="477.23,-76.33 487.77,-77.41 480.2,-69.99 477.23,-76.33"/>
</a>
</g>
</g>
<!-- Node4 -->
<g id="Node000004" class="node">
<title>Node4</title>
<g id="a_Node000004"><a xlink:href="adxl313_8c.html#ad14d5588767f1b178ff91d1ebb6034d6" target="_top" xlink:title="Enable the activity detection.">
<polygon fill="white" stroke="#666666" points="247.5,-126 129.5,-126 129.5,-96 247.5,-96 247.5,-126"/>
<text text-anchor="start" x="137.5" y="-114" font-family="Helvetica,sans-Serif" font-size="10.00">adxl313_set_activity</text>
<text text-anchor="middle" x="188.5" y="-103" font-family="Helvetica,sans-Serif" font-size="10.00">_detection</text>
</a>
</g>
</g>
<!-- Node3&#45;&gt;Node4 -->
<g id="edge3_Node000003_Node000004" class="edge">
<title>Node3&#45;&gt;Node4</title>
<g id="a_edge3_Node000003_Node000004"><a xlink:title=" ">
<path fill="none" stroke="#63b8ff" d="M277.96,-111C267.84,-111 257.47,-111 247.55,-111"/>
<polygon fill="#63b8ff" stroke="#63b8ff" points="277.98,-114.5 287.98,-111 277.98,-107.5 277.98,-114.5"/>
</a>
</g>
</g>
<!-- Node7 -->
<g id="Node000007" class="node">
<title>Node7</title>
<g id="a_Node000007"><a xlink:href="adxl313_8c.html#aef4533824eea2c42410b877c50d58c75" target="_top" xlink:title="Enables the inactivity detection.">
<polygon fill="white" stroke="#666666" points="252,-30 125,-30 125,0 252,0 252,-30"/>
<text text-anchor="start" x="133" y="-18" font-family="Helvetica,sans-Serif" font-size="10.00">adxl313_set_inactivity</text>
<text text-anchor="middle" x="188.5" y="-7" font-family="Helvetica,sans-Serif" font-size="10.00">_detection</text>
</a>
</g>
</g>
<!-- Node6&#45;&gt;Node7 -->
<g id="edge6_Node000006_Node000007" class="edge">
<title>Node6&#45;&gt;Node7</title>
<g id="a_edge6_Node000006_Node000007"><a xlink:title=" ">
<path fill="none" stroke="#63b8ff" d="M282.16,-15C272.23,-15 261.96,-15 252.04,-15"/>
<polygon fill="#63b8ff" stroke="#63b8ff" points="282.35,-18.5 292.35,-15 282.35,-11.5 282.35,-18.5"/>
</a>
</g>
</g>
<!-- Node8 -->
<g id="Node000008" class="node">
<title>Node8</title>
<g id="a_Node000008"><a xlink:href="eval-adxl313z_2src_2examples_2basic_2basic__example_8c.html#ac25cbf8ae523e89cb0617e68c98bc697" target="_top" xlink:title="Basic example main execution.">
<polygon fill="white" stroke="#666666" points="89,-24.5 0,-24.5 0,-5.5 89,-5.5 89,-24.5"/>
<text text-anchor="middle" x="44.5" y="-12.5" font-family="Helvetica,sans-Serif" font-size="10.00">example_main</text>
</a>
</g>
</g>
<!-- Node7&#45;&gt;Node8 -->
<g id="edge7_Node000007_Node000008" class="edge">
<title>Node7&#45;&gt;Node8</title>
<g id="a_edge7_Node000007_Node000008"><a xlink:title=" ">
<path fill="none" stroke="#63b8ff" d="M114.6,-15C105.9,-15 97.24,-15 89.14,-15"/>
<polygon fill="#63b8ff" stroke="#63b8ff" points="114.8,-18.5 124.8,-15 114.8,-11.5 114.8,-18.5"/>
</a>
</g>
</g>
</g>
</svg>

<g id="navigator" transform="translate(0 0)" fill="#404254">
  <rect fill="#f2f5e9" fill-opacity="0.5" stroke="#606060" stroke-width=".5" x="0" y="0" width="60" height="60"/>
  <use id="zoomplus" xlink:href="#zoomPlus" x="17" y="9" onmousedown="handleZoom(evt,'in')"/>
  <use id="zoomminus" xlink:href="#zoomMin" x="42" y="9" onmousedown="handleZoom(evt,'out')"/>
  <use id="reset" xlink:href="#resetDef" x="30" y="36" onmousedown="handleReset()"/>
   <use id="arrowup" xlink:href="#arrowUp" x="0" y="0" onmousedown="handlePan(0,-1)"/>
  <use id="arrowright" xlink:href="#arrowRight" x="0" y="0" onmousedown="handlePan(1,0)"/>
  <use id="arrowdown" xlink:href="#arrowDown" x="0" y="0" onmousedown="handlePan(0,1)"/>
  <use id="arrowleft" xlink:href="#arrowLeft" x="0" y="0" onmousedown="handlePan(-1,0)"/>
</g>
<svg viewBox="0 0 15 15" width="100%" height="30px" preserveAspectRatio="xMaxYMin meet">
 <g id="arrow_out" transform="scale(0.3 0.3)">
  <a xlink:href="adxl313_8c_a6d2db28437ec605032278cefc992262a_icgraph_org.svg" target="_base">
   <rect id="button" ry="5" rx="5" y="6" x="6" height="38" width="38"
        fill="#f2f5e9" fill-opacity="0.5" stroke="#606060" stroke-width="1.0"/>
   <path id="arrow"
     d="M 11.500037,31.436501 C 11.940474,20.09759 22.043105,11.32322 32.158766,21.979434 L 37.068811,17.246167 C 37.068811,17.246167 37.088388,32 37.088388,32 L 22.160133,31.978069 C 22.160133,31.978069 26.997745,27.140456 26.997745,27.140456 C 18.528582,18.264221 13.291696,25.230495 11.500037,31.436501 z"
     style="fill:#404040;"/>
  </a>
 </g>
</svg>

<style type='text/css'>
<![CDATA[
[data-mouse-over-selected='false'] { opacity: 0.7; }
[data-mouse-over-selected='true']  { opacity: 1.0; }
]]>
</style>
<script type="application/ecmascript"><![CDATA[
document.addEventListener('DOMContentLoaded', (event) => {
  highlightEdges();
  highlightAdjacentNodes();
});
]]></script>
</svg>
