<?xml version="1.0" encoding="UTF-8" standalone="no"?>
<!DOCTYPE svg PUBLIC "-//W3C//DTD SVG 1.1//EN"
 "http://www.w3.org/Graphics/SVG/1.1/DTD/svg11.dtd">
<!-- Generated by graphviz version 2.43.0 (0)
 -->
<!-- Title: adxl38x_read_device_data Pages: 1 -->
<!--zoomable 825 -->

<svg id="main" version="1.1" xmlns="http://www.w3.org/2000/svg" xmlns:xlink="http://www.w3.org/1999/xlink" xml:space="preserve" onload="init(evt)">

<style type="text/css"><![CDATA[
.node, .edge {opacity: 0.7;}
.node.selected, .edge.selected {opacity: 1;}
.edge:hover path { stroke: red; }
.edge:hover polygon { stroke: red; fill: red; }
]]></style>

<defs>
  <circle id="rim" cx="0" cy="0" r="7"/>
  <circle id="rim2" cx="0" cy="0" r="3.5"/>
  <g id="zoomPlus">
    <use xlink:href="#rim" fill="#404040"><set attributeName="fill" to="#808080" begin="zoomplus.mouseover" end="zoomplus.mouseout"/></use>
    <path d="M-4,0h8M0,-4v8" fill="none" stroke="white" stroke-width="1.5" pointer-events="none"/>
  </g>
  <g id="zoomMin">
    <use xlink:href="#rim" fill="#404040"><set attributeName="fill" to="#808080" begin="zoomminus.mouseover" end="zoomminus.mouseout"/></use>
    <path d="M-4,0h8" fill="none" stroke="white" stroke-width="1.5" pointer-events="none"/>
  </g>
  <g id="arrowUp" transform="translate(30 24)">
    <use xlink:href="#rim"/>
    <path pointer-events="none" fill="none" stroke="white" stroke-width="1.5" d="M0,-3.0v7 M-2.5,-0.5L0,-3.0L2.5,-0.5"/>
  </g>
  <g id="arrowRight" transform="rotate(90) translate(36 -43)">
    <use xlink:href="#rim"/>
    <path pointer-events="none" fill="none" stroke="white" stroke-width="1.5" d="M0,-3.0v7 M-2.5,-0.5L0,-3.0L2.5,-0.5"/>
  </g>
  <g id="arrowDown" transform="rotate(180) translate(-30 -48)">
    <use xlink:href="#rim"/>
    <path pointer-events="none" fill="none" stroke="white" stroke-width="1.5" d="M0,-3.0v7 M-2.5,-0.5L0,-3.0L2.5,-0.5"/>
  </g>
  <g id="arrowLeft" transform="rotate(270) translate(-36 17)">
    <use xlink:href="#rim"/>
    <path pointer-events="none" fill="none" stroke="white" stroke-width="1.5" d="M0,-3.0v7 M-2.5,-0.5L0,-3.0L2.5,-0.5"/>
  </g>
  <g id="resetDef">
    <use xlink:href="#rim2" fill="#404040"><set attributeName="fill" to="#808080" begin="reset.mouseover" end="reset.mouseout"/></use>
  </g>
</defs>
<script type="application/ecmascript">
var viewWidth = 1001;
var viewHeight = 825;
var sectionId = 'dynsection-11';
</script>
<script type="application/ecmascript" xlink:href="svg.min.js"/>
<svg id="graph" class="graph">
<g id="viewport">
<title>adxl38x_read_device_data</title>
<!-- Node1 -->
<g id="Node000001" class="node">
<title>Node1</title>
<g id="a_Node000001"><a xlink:title="Reads from the device.">
<polygon fill="#999999" stroke="#666666" points="993,-502.98 846,-502.98 846,-483.98 993,-483.98 993,-502.98"/>
<text text-anchor="middle" x="919.5" y="-490.98" font-family="Helvetica,sans-Serif" font-size="10.00">adxl38x_read_device_data</text>
</a>
</g>
</g>
<!-- Node2 -->
<g id="Node000002" class="node">
<title>Node2</title>
<g id="a_Node000002"><a xlink:href="adxl38x_8c.html#aa2b447d740094dc6f6e06aa99e719bd7" target="_top" xlink:title="Function to set the paramenters for FIFO mode.">
<polygon fill="white" stroke="#666666" points="796.5,-121.98 662.5,-121.98 662.5,-102.98 796.5,-102.98 796.5,-121.98"/>
<text text-anchor="middle" x="729.5" y="-109.98" font-family="Helvetica,sans-Serif" font-size="10.00">adxl38x_accel_set_FIFO</text>
</a>
</g>
</g>
<!-- Node1&#45;&gt;Node2 -->
<g id="edge1_Node000001_Node000002" class="edge">
<title>Node1&#45;&gt;Node2</title>
<g id="a_edge1_Node000001_Node000002"><a xlink:title=" ">
<path fill="none" stroke="#63b8ff" d="M918.59,-473.56C917.76,-413.64 906.93,-233.22 810,-136.48 803.67,-130.16 795.75,-125.5 787.37,-122.06"/>
<polygon fill="#63b8ff" stroke="#63b8ff" points="915.1,-473.9 918.65,-483.88 922.09,-473.86 915.1,-473.9"/>
</a>
</g>
</g>
<!-- Node3 -->
<g id="Node000003" class="node">
<title>Node3</title>
<g id="a_Node000003"><a xlink:href="fifo__example__main_8c.html#af9ba15b05e7f1ce5a5a3db1b2ff1caba" target="_top" xlink:title="Example main execution.">
<polygon fill="white" stroke="#666666" points="276.5,-212.98 166.5,-212.98 166.5,-193.98 276.5,-193.98 276.5,-212.98"/>
<text text-anchor="middle" x="221.5" y="-200.98" font-family="Helvetica,sans-Serif" font-size="10.00">fifo_example_main</text>
</a>
</g>
</g>
<!-- Node1&#45;&gt;Node3 -->
<g id="edge56_Node000001_Node000003" class="edge">
<title>Node1&#45;&gt;Node3</title>
<g id="a_edge56_Node000001_Node000003"><a xlink:title=" ">
<path fill="none" stroke="#63b8ff" d="M916.24,-473.67C907.39,-399.79 872.39,-142.17 810,-94.48 723.67,-28.49 424.81,-100.49 323,-138.48 287.37,-151.77 251.33,-179.27 233.66,-193.88"/>
<polygon fill="#63b8ff" stroke="#63b8ff" points="912.8,-474.36 917.44,-483.88 919.75,-473.55 912.8,-474.36"/>
</a>
</g>
</g>
<!-- Node5 -->
<g id="Node000005" class="node">
<title>Node5</title>
<g id="a_Node000005"><a xlink:href="adxl38x_8c.html#ab1f41477afeb2b7a5232a4acecab7573" target="_top" xlink:title="Gets the current device type.">
<polygon fill="white" stroke="#666666" points="449,-45.98 324,-45.98 324,-26.98 449,-26.98 449,-45.98"/>
<text text-anchor="middle" x="386.5" y="-33.98" font-family="Helvetica,sans-Serif" font-size="10.00">adxl38x_get_deviceID</text>
</a>
</g>
</g>
<!-- Node1&#45;&gt;Node5 -->
<g id="edge4_Node000001_Node000005" class="edge">
<title>Node1&#45;&gt;Node5</title>
<g id="a_edge4_Node000001_Node000005"><a xlink:title=" ">
<path fill="none" stroke="#63b8ff" d="M916.59,-473.63C908.66,-396.04 875.75,-114.86 810,-60.48 695.07,34.57 496.74,-6.03 419.55,-26.92"/>
<polygon fill="#63b8ff" stroke="#63b8ff" points="913.14,-474.31 917.61,-483.91 920.1,-473.61 913.14,-474.31"/>
</a>
</g>
</g>
<!-- Node6 -->
<g id="Node000006" class="node">
<title>Node6</title>
<g id="a_Node000006"><a xlink:href="basic__example__main_8c.html#a72943dc9011d36293cb05ca5d7cb6899" target="_top" xlink:title="Example main execution.">
<polygon fill="white" stroke="#666666" points="120,-521.98 0,-521.98 0,-502.98 120,-502.98 120,-521.98"/>
<text text-anchor="middle" x="60" y="-509.98" font-family="Helvetica,sans-Serif" font-size="10.00">basic_example_main</text>
</a>
</g>
</g>
<!-- Node1&#45;&gt;Node6 -->
<g id="edge55_Node000001_Node000006" class="edge">
<title>Node1&#45;&gt;Node6</title>
<g id="a_edge55_Node000001_Node000006"><a xlink:title=" ">
<path fill="none" stroke="#63b8ff" d="M916.09,-513.15C909.12,-561.2 884.48,-685.3 810,-749.48 719.77,-827.24 669.62,-816.48 550.5,-816.48 550.5,-816.48 550.5,-816.48 385.5,-816.48 209.11,-816.48 89.07,-574.28 65.32,-522.25"/>
<polygon fill="#63b8ff" stroke="#63b8ff" points="919.57,-513.51 917.44,-503.13 912.63,-512.57 919.57,-513.51"/>
</a>
</g>
</g>
<!-- Node8 -->
<g id="Node000008" class="node">
<title>Node8</title>
<g id="a_Node000008"><a xlink:href="adxl38x_8c.html#aa8b22a2583c56155dfb0dd2ee8af850b" target="_top" xlink:title="Gets the current operation mode of the device.">
<polygon fill="white" stroke="#666666" points="613,-635.98 486,-635.98 486,-616.98 613,-616.98 613,-635.98"/>
<text text-anchor="middle" x="549.5" y="-623.98" font-family="Helvetica,sans-Serif" font-size="10.00">adxl38x_get_op_mode</text>
</a>
</g>
</g>
<!-- Node1&#45;&gt;Node8 -->
<g id="edge9_Node000001_Node000008" class="edge">
<title>Node1&#45;&gt;Node8</title>
<g id="a_edge9_Node000001_Node000008"><a xlink:title=" ">
<path fill="none" stroke="#63b8ff" d="M906.7,-511.6C889.07,-536.93 853.25,-582.12 810,-602.48 747.68,-631.82 667.7,-634.75 613.11,-632.3"/>
<polygon fill="#63b8ff" stroke="#63b8ff" points="909.65,-513.49 912.35,-503.24 903.85,-509.56 909.65,-513.49"/>
</a>
</g>
</g>
<!-- Node9 -->
<g id="Node000009" class="node">
<title>Node9</title>
<g id="a_Node000009"><a xlink:href="adxl38x_8c.html#ac7d2f189eea39934e801c243fbb6175f" target="_top" xlink:title="Reads the raw output data using burst read.">
<polygon fill="white" stroke="#666666" points="450,-560.98 323,-560.98 323,-541.98 450,-541.98 450,-560.98"/>
<text text-anchor="middle" x="386.5" y="-548.98" font-family="Helvetica,sans-Serif" font-size="10.00">adxl38x_get_raw_data</text>
</a>
</g>
</g>
<!-- Node1&#45;&gt;Node9 -->
<g id="edge20_Node000001_Node000009" class="edge">
<title>Node1&#45;&gt;Node9</title>
<g id="a_edge20_Node000001_Node000009"><a xlink:title=" ">
<path fill="none" stroke="#63b8ff" d="M909.43,-512.15C893.7,-542.44 858.32,-601.85 810,-631.48 733.91,-678.13 701.83,-661.77 613,-670.48 556.82,-675.98 532.18,-702.93 486,-670.48 447.35,-643.32 484.23,-603.03 450,-570.48 445.89,-566.57 441,-563.46 435.8,-561"/>
<polygon fill="#63b8ff" stroke="#63b8ff" points="912.63,-513.59 914.01,-503.09 906.38,-510.44 912.63,-513.59"/>
</a>
</g>
</g>
<!-- Node11 -->
<g id="Node000011" class="node">
<title>Node11</title>
<g id="a_Node000011"><a xlink:href="adxl38x_8c.html#ada2c338dfa91317699e28a7febad15d3" target="_top" xlink:title="Reads the raw output data using continuous read.">
<polygon fill="white" stroke="#666666" points="447.5,-522.98 325.5,-522.98 325.5,-503.98 447.5,-503.98 447.5,-522.98"/>
<text text-anchor="middle" x="386.5" y="-510.98" font-family="Helvetica,sans-Serif" font-size="10.00">adxl38x_get_raw_xyz</text>
</a>
</g>
</g>
<!-- Node1&#45;&gt;Node11 -->
<g id="edge21_Node000001_Node000011" class="edge">
<title>Node1&#45;&gt;Node11</title>
<g id="a_edge21_Node000001_Node000011"><a xlink:title=" ">
<path fill="none" stroke="#63b8ff" d="M900.75,-509.87C880.54,-527.32 845.68,-553.84 810,-564.48 672,-605.62 621,-614.59 486,-564.48 466.21,-557.13 468.42,-543.79 450,-533.48 442.54,-529.3 434.09,-525.86 425.87,-523.07"/>
<polygon fill="#63b8ff" stroke="#63b8ff" points="903.31,-512.28 908.47,-503.02 898.67,-507.04 903.31,-512.28"/>
</a>
</g>
</g>
<!-- Node12 -->
<g id="Node000012" class="node">
<title>Node12</title>
<g id="a_Node000012"><a xlink:href="adxl38x_8c.html#a84bdfe34c402d7941796106b0885cc3a" target="_top" xlink:title="Reads the raw temperature data using burst read.">
<polygon fill="white" stroke="#666666" points="440,-369.98 333,-369.98 333,-350.98 440,-350.98 440,-369.98"/>
<text text-anchor="middle" x="386.5" y="-357.98" font-family="Helvetica,sans-Serif" font-size="10.00">adxl38x_get_temp</text>
</a>
</g>
</g>
<!-- Node1&#45;&gt;Node12 -->
<g id="edge25_Node000001_Node000012" class="edge">
<title>Node1&#45;&gt;Node12</title>
<g id="a_edge25_Node000001_Node000012"><a xlink:title=" ">
<path fill="none" stroke="#63b8ff" d="M899.93,-477.48C879.28,-460.48 844.3,-433.97 810,-418.48 686.19,-362.54 522.79,-357 440.17,-358.34"/>
<polygon fill="#63b8ff" stroke="#63b8ff" points="897.69,-480.17 907.61,-483.91 902.19,-474.81 897.69,-480.17"/>
</a>
</g>
</g>
<!-- Node13 -->
<g id="Node000013" class="node">
<title>Node13</title>
<g id="a_Node000013"><a xlink:href="adxl38x_8c.html#a77c2ad88e0bae420d204ca586d838481" target="_top" xlink:title="Gets the current range setting of the device.">
<polygon fill="white" stroke="#666666" points="441.5,-673.98 331.5,-673.98 331.5,-654.98 441.5,-654.98 441.5,-673.98"/>
<text text-anchor="middle" x="386.5" y="-661.98" font-family="Helvetica,sans-Serif" font-size="10.00">adxl38x_get_range</text>
</a>
</g>
</g>
<!-- Node1&#45;&gt;Node13 -->
<g id="edge17_Node000001_Node000013" class="edge">
<title>Node1&#45;&gt;Node13</title>
<g id="a_edge17_Node000001_Node000013"><a xlink:title=" ">
<path fill="none" stroke="#63b8ff" d="M915.32,-513.01C907.01,-556.98 880.23,-663.55 810,-710.48 690.16,-790.55 624.77,-763.42 486,-724.48 450.91,-714.63 415.93,-688.46 398.64,-674.15"/>
<polygon fill="#63b8ff" stroke="#63b8ff" points="918.79,-513.49 917.08,-503.03 911.9,-512.27 918.79,-513.49"/>
</a>
</g>
</g>
<!-- Node14 -->
<g id="Node000014" class="node">
<title>Node14</title>
<g id="a_Node000014"><a xlink:href="adxl38x_8c.html#ae5e8bf5f02f145446ba3b8e162834eca" target="_top" xlink:title="Reads the status registers.">
<polygon fill="white" stroke="#666666" points="445,-597.98 328,-597.98 328,-578.98 445,-578.98 445,-597.98"/>
<text text-anchor="middle" x="386.5" y="-585.98" font-family="Helvetica,sans-Serif" font-size="10.00">adxl38x_get_sts_reg</text>
</a>
</g>
</g>
<!-- Node1&#45;&gt;Node14 -->
<g id="edge22_Node000001_Node000014" class="edge">
<title>Node1&#45;&gt;Node14</title>
<g id="a_edge22_Node000001_Node000014"><a xlink:title=" ">
<path fill="none" stroke="#63b8ff" d="M912.17,-513.15C899.34,-549.56 866.56,-627.07 810,-663.48 688.47,-741.71 616.27,-754.09 486,-691.48 462.92,-680.38 467.43,-665.24 450,-646.48 433.27,-628.48 411.96,-609.43 399.04,-598.27"/>
<polygon fill="#63b8ff" stroke="#63b8ff" points="915.63,-513.85 915.52,-503.26 909,-511.61 915.63,-513.85"/>
</a>
</g>
</g>
<!-- Node15 -->
<g id="Node000015" class="node">
<title>Node15</title>
<g id="a_Node000015"><a xlink:href="adxl38x_8c.html#aaccec48025bf537298b1d2738b911f39" target="_top" xlink:title="Initializes the device and checks for valid peripheral communication.">
<polygon fill="white" stroke="#666666" points="425,-445.98 348,-445.98 348,-426.98 425,-426.98 425,-445.98"/>
<text text-anchor="middle" x="386.5" y="-433.98" font-family="Helvetica,sans-Serif" font-size="10.00">adxl38x_init</text>
</a>
</g>
</g>
<!-- Node1&#45;&gt;Node15 -->
<g id="edge26_Node000001_Node000015" class="edge">
<title>Node1&#45;&gt;Node15</title>
<g id="a_edge26_Node000001_Node000015"><a xlink:title=" ">
<path fill="none" stroke="#63b8ff" d="M849.56,-504.31C762.99,-515.46 610.69,-526.95 486,-493.48 451.65,-484.26 416.91,-459.82 399.31,-446.13"/>
<polygon fill="#63b8ff" stroke="#63b8ff" points="850.08,-507.77 859.53,-502.98 849.16,-500.83 850.08,-507.77"/>
</a>
</g>
</g>
<!-- Node16 -->
<g id="Node000016" class="node">
<title>Node16</title>
<g id="a_Node000016"><a xlink:href="adxl38x_8c.html#a092b727b8880175c9976fd1b7fb82ce7" target="_top" xlink:title="Updates register with specified bits using given mask.">
<polygon fill="white" stroke="#666666" points="810,-445.98 649,-445.98 649,-426.98 810,-426.98 810,-445.98"/>
<text text-anchor="middle" x="729.5" y="-433.98" font-family="Helvetica,sans-Serif" font-size="10.00">adxl38x_register_update_bits</text>
</a>
</g>
</g>
<!-- Node1&#45;&gt;Node16 -->
<g id="edge30_Node000001_Node000016" class="edge">
<title>Node1&#45;&gt;Node16</title>
<g id="a_edge30_Node000001_Node000016"><a xlink:title=" ">
<path fill="none" stroke="#63b8ff" d="M877.21,-480.96C842.52,-470.44 793.69,-455.64 762.07,-446.05"/>
<polygon fill="#63b8ff" stroke="#63b8ff" points="876.45,-484.38 887.03,-483.94 878.48,-477.69 876.45,-484.38"/>
</a>
</g>
</g>
<!-- Node18 -->
<g id="Node000018" class="node">
<title>Node18</title>
<g id="a_Node000018"><a xlink:href="adxl38x_8c.html#a491ab20d0eb87e53ac22b04c8693cff5" target="_top" xlink:title="Executed Selftest on the sensing axes and returns the outcome of the test.">
<polygon fill="white" stroke="#666666" points="435,-321.98 338,-321.98 338,-302.98 435,-302.98 435,-321.98"/>
<text text-anchor="middle" x="386.5" y="-309.98" font-family="Helvetica,sans-Serif" font-size="10.00">adxl38x_selftest</text>
</a>
</g>
</g>
<!-- Node1&#45;&gt;Node18 -->
<g id="edge50_Node000001_Node000018" class="edge">
<title>Node1&#45;&gt;Node18</title>
<g id="a_edge50_Node000001_Node000018"><a xlink:title=" ">
<path fill="none" stroke="#63b8ff" d="M905.58,-475.43C886.58,-449.7 849.11,-401.89 810,-368.48 731.52,-301.43 712.23,-273.91 613,-245.48 558.74,-229.93 539.23,-226.7 486,-245.48 466.62,-252.31 466.81,-262.67 450,-274.48 435.14,-284.91 417.38,-295.55 404.6,-302.9"/>
<polygon fill="#63b8ff" stroke="#63b8ff" points="902.99,-477.82 911.71,-483.84 908.65,-473.7 902.99,-477.82"/>
</a>
</g>
</g>
<!-- Node22 -->
<g id="Node000022" class="node">
<title>Node22</title>
<g id="a_Node000022"><a xlink:href="adxl38x_8c.html#a32c9e6960e48bb2378e590391e91f68c" target="_top" xlink:title="Performs a soft reset of the device.">
<polygon fill="white" stroke="#666666" points="441,-217.98 332,-217.98 332,-198.98 441,-198.98 441,-217.98"/>
<text text-anchor="middle" x="386.5" y="-205.98" font-family="Helvetica,sans-Serif" font-size="10.00">adxl38x_soft_reset</text>
</a>
</g>
</g>
<!-- Node1&#45;&gt;Node22 -->
<g id="edge51_Node000001_Node000022" class="edge">
<title>Node1&#45;&gt;Node22</title>
<g id="a_edge51_Node000001_Node000022"><a xlink:title=" ">
<path fill="none" stroke="#63b8ff" d="M915.93,-473.98C908.68,-427.51 883.61,-309.86 810,-253.48 698.59,-168.14 519.43,-184.79 434.75,-198.97"/>
<polygon fill="#63b8ff" stroke="#63b8ff" points="912.47,-474.56 917.37,-483.95 919.4,-473.56 912.47,-474.56"/>
</a>
</g>
</g>
<!-- Node2&#45;&gt;Node3 -->
<g id="edge2_Node000002_Node000003" class="edge">
<title>Node2&#45;&gt;Node3</title>
<g id="a_edge2_Node000002_Node000003"><a xlink:title=" ">
<path fill="none" stroke="#63b8ff" d="M652.27,-117.07C604.3,-120.69 541.24,-126.78 486,-136.48 400.92,-151.42 302.83,-179.23 253.8,-193.88"/>
<polygon fill="#63b8ff" stroke="#63b8ff" points="652.55,-120.56 662.26,-116.34 652.03,-113.58 652.55,-120.56"/>
</a>
</g>
</g>
<!-- Node4 -->
<g id="Node000004" class="node">
<title>Node4</title>
<g id="a_Node000004"><a xlink:href="eval-adxl38x_2src_2platform_2maxim_2main_8c.html#ae66f6b31b5ad750f1fe042a706a4e3d4" target="_top" xlink:title="Main function execution for Maxim platform.">
<polygon fill="white" stroke="#666666" points="80.5,-269.98 39.5,-269.98 39.5,-250.98 80.5,-250.98 80.5,-269.98"/>
<text text-anchor="middle" x="60" y="-257.98" font-family="Helvetica,sans-Serif" font-size="10.00">main</text>
</a>
</g>
</g>
<!-- Node3&#45;&gt;Node4 -->
<g id="edge3_Node000003_Node000004" class="edge">
<title>Node3&#45;&gt;Node4</title>
<g id="a_edge3_Node000003_Node000004"><a xlink:title=" ">
<path fill="none" stroke="#63b8ff" d="M184.31,-216.41C152.21,-227.88 106.52,-244.21 80.72,-253.43"/>
<polygon fill="#63b8ff" stroke="#63b8ff" points="185.56,-219.68 193.8,-213.02 183.21,-213.09 185.56,-219.68"/>
</a>
</g>
</g>
<!-- Node5&#45;&gt;Node3 -->
<g id="edge6_Node000005_Node000003" class="edge">
<title>Node5&#45;&gt;Node3</title>
<g id="a_edge6_Node000005_Node000003"><a xlink:title=" ">
<path fill="none" stroke="#63b8ff" d="M340.2,-50.14C334.1,-53.02 328.17,-56.44 323,-60.48 297.76,-80.17 245.85,-164.54 228.38,-193.6"/>
<polygon fill="#63b8ff" stroke="#63b8ff" points="342.01,-53.17 349.85,-46.04 339.28,-46.73 342.01,-53.17"/>
</a>
</g>
</g>
<!-- Node5&#45;&gt;Node6 -->
<g id="edge5_Node000005_Node000006" class="edge">
<title>Node5&#45;&gt;Node6</title>
<g id="a_edge5_Node000005_Node000006"><a xlink:title=" ">
<path fill="none" stroke="#63b8ff" d="M346.1,-49.7C338.27,-52.86 330.23,-56.48 323,-60.48 241.84,-105.3 208.77,-109.25 156,-185.48 136.78,-213.24 76.18,-451.96 63.39,-502.93"/>
<polygon fill="#63b8ff" stroke="#63b8ff" points="347.42,-52.95 355.49,-46.09 344.9,-46.41 347.42,-52.95"/>
</a>
</g>
</g>
<!-- Node7 -->
<g id="Node000007" class="node">
<title>Node7</title>
<g id="a_Node000007"><a xlink:href="selftest__example__main_8c.html#af83d8efd4ed237eb5c8a2e18b3333cdb" target="_top" xlink:title="Example main execution.">
<polygon fill="white" stroke="#666666" points="287,-326.98 156,-326.98 156,-307.98 287,-307.98 287,-326.98"/>
<text text-anchor="middle" x="221.5" y="-314.98" font-family="Helvetica,sans-Serif" font-size="10.00">selftest_example_main</text>
</a>
</g>
</g>
<!-- Node5&#45;&gt;Node7 -->
<g id="edge7_Node000005_Node000007" class="edge">
<title>Node5&#45;&gt;Node7</title>
<g id="a_edge7_Node000005_Node000007"><a xlink:title=" ">
<path fill="none" stroke="#63b8ff" d="M376.22,-55.65C359.49,-89.81 322.69,-163.18 287,-222.48 267.68,-254.59 241.95,-290.77 229.64,-307.73"/>
<polygon fill="#63b8ff" stroke="#63b8ff" points="379.51,-56.89 380.74,-46.37 373.21,-53.82 379.51,-56.89"/>
</a>
</g>
</g>
<!-- Node7&#45;&gt;Node4 -->
<g id="edge8_Node000007_Node000004" class="edge">
<title>Node7&#45;&gt;Node4</title>
<g id="a_edge8_Node000007_Node000004"><a xlink:title=" ">
<path fill="none" stroke="#63b8ff" d="M184.31,-304.55C152.21,-293.07 106.52,-276.75 80.72,-267.53"/>
<polygon fill="#63b8ff" stroke="#63b8ff" points="183.21,-307.87 193.8,-307.94 185.56,-301.28 183.21,-307.87"/>
</a>
</g>
</g>
<!-- Node8&#45;&gt;Node6 -->
<g id="edge16_Node000008_Node000006" class="edge">
<title>Node8&#45;&gt;Node6</title>
<g id="a_edge16_Node000008_Node000006"><a xlink:title=" ">
<path fill="none" stroke="#63b8ff" d="M475.78,-633.31C394.55,-638.06 260.72,-637.13 156,-593.48 117.59,-577.47 83.36,-539.91 68.64,-522.13"/>
<polygon fill="#63b8ff" stroke="#63b8ff" points="476.15,-636.8 485.91,-632.67 475.71,-629.81 476.15,-636.8"/>
</a>
</g>
</g>
<!-- Node8&#45;&gt;Node9 -->
<g id="edge10_Node000008_Node000009" class="edge">
<title>Node8&#45;&gt;Node9</title>
<g id="a_edge10_Node000008_Node000009"><a xlink:title=" ">
<path fill="none" stroke="#63b8ff" d="M507.15,-613.03C499.88,-609.99 492.55,-606.46 486,-602.48 467.71,-591.35 468.67,-580.94 450,-570.48 443.27,-566.71 435.71,-563.6 428.23,-561.07"/>
<polygon fill="#63b8ff" stroke="#63b8ff" points="506.36,-616.48 516.95,-616.87 508.91,-609.96 506.36,-616.48"/>
</a>
</g>
</g>
<!-- Node8&#45;&gt;Node11 -->
<g id="edge14_Node000008_Node000011" class="edge">
<title>Node8&#45;&gt;Node11</title>
<g id="a_edge14_Node000008_Node000011"><a xlink:title=" ">
<path fill="none" stroke="#63b8ff" d="M501.25,-612.69C495.75,-609.86 490.5,-606.49 486,-602.48 460.18,-579.45 476.46,-555.76 450,-533.48 444.86,-529.15 438.77,-525.75 432.44,-523.09"/>
<polygon fill="#63b8ff" stroke="#63b8ff" points="500.11,-616.02 510.66,-616.95 502.99,-609.64 500.11,-616.02"/>
</a>
</g>
</g>
<!-- Node8&#45;&gt;Node12 -->
<g id="edge15_Node000008_Node000012" class="edge">
<title>Node8&#45;&gt;Node12</title>
<g id="a_edge15_Node000008_Node000012"><a xlink:title=" ">
<path fill="none" stroke="#63b8ff" d="M539.63,-607.62C515.7,-556.78 451.54,-420.57 450,-418.48 435.65,-398.9 414.03,-380.6 400.35,-369.98"/>
<polygon fill="#63b8ff" stroke="#63b8ff" points="536.54,-609.28 543.97,-616.84 542.87,-606.3 536.54,-609.28"/>
</a>
</g>
</g>
<!-- Node9&#45;&gt;Node6 -->
<g id="edge13_Node000009_Node000006" class="edge">
<title>Node9&#45;&gt;Node6</title>
<g id="a_edge13_Node000009_Node000006"><a xlink:title=" ">
<path fill="none" stroke="#63b8ff" d="M330.9,-539.91C316.66,-537.18 301.29,-534.48 287,-532.48 230.63,-524.57 165.9,-519.22 120.19,-516.05"/>
<polygon fill="#63b8ff" stroke="#63b8ff" points="330.55,-543.41 341.04,-541.9 331.9,-536.54 330.55,-543.41"/>
</a>
</g>
</g>
<!-- Node10 -->
<g id="Node000010" class="node">
<title>Node10</title>
<g id="a_Node000010"><a xlink:href="adxl38x_8c.html#afa7f79f725e45d0a8813ffeb79533545" target="_top" xlink:title="Reads the raw output data of each axis and converts it to g.">
<polygon fill="white" stroke="#666666" points="285.5,-559.98 157.5,-559.98 157.5,-540.98 285.5,-540.98 285.5,-559.98"/>
<text text-anchor="middle" x="221.5" y="-547.98" font-family="Helvetica,sans-Serif" font-size="10.00">adxl38x_get_xyz_gees</text>
</a>
</g>
</g>
<!-- Node9&#45;&gt;Node10 -->
<g id="edge11_Node000009_Node000010" class="edge">
<title>Node9&#45;&gt;Node10</title>
<g id="a_edge11_Node000009_Node000010"><a xlink:title=" ">
<path fill="none" stroke="#63b8ff" d="M312.82,-551.03C303.77,-550.98 294.58,-550.92 285.7,-550.86"/>
<polygon fill="#63b8ff" stroke="#63b8ff" points="312.92,-554.53 322.95,-551.09 312.97,-547.53 312.92,-554.53"/>
</a>
</g>
</g>
<!-- Node10&#45;&gt;Node6 -->
<g id="edge12_Node000010_Node000006" class="edge">
<title>Node10&#45;&gt;Node6</title>
<g id="a_edge12_Node000010_Node000006"><a xlink:title=" ">
<path fill="none" stroke="#63b8ff" d="M170.27,-538.51C147.91,-533.18 121.96,-527 100.96,-522"/>
<polygon fill="#63b8ff" stroke="#63b8ff" points="169.71,-541.98 180.25,-540.89 171.33,-535.17 169.71,-541.98"/>
</a>
</g>
</g>
<!-- Node13&#45;&gt;Node6 -->
<g id="edge18_Node000013_Node000006" class="edge">
<title>Node13&#45;&gt;Node6</title>
<g id="a_edge18_Node000013_Node000006"><a xlink:title=" ">
<path fill="none" stroke="#63b8ff" d="M321.17,-671.11C272.69,-673.09 206.2,-669.1 156,-640.48 106.48,-612.24 75.14,-546.56 64.79,-521.99"/>
<polygon fill="#63b8ff" stroke="#63b8ff" points="321.42,-674.61 331.23,-670.61 321.07,-667.62 321.42,-674.61"/>
</a>
</g>
</g>
<!-- Node13&#45;&gt;Node7 -->
<g id="edge19_Node000013_Node000007" class="edge">
<title>Node13&#45;&gt;Node7</title>
<g id="a_edge19_Node000013_Node000007"><a xlink:title=" ">
<path fill="none" stroke="#63b8ff" d="M363.24,-648.72C349.96,-638.33 333.67,-623.67 323,-607.48 290.02,-557.42 237.38,-371.34 225.11,-327"/>
<polygon fill="#63b8ff" stroke="#63b8ff" points="361.35,-651.68 371.44,-654.91 365.57,-646.09 361.35,-651.68"/>
</a>
</g>
</g>
<!-- Node14&#45;&gt;Node6 -->
<g id="edge23_Node000014_Node000006" class="edge">
<title>Node14&#45;&gt;Node6</title>
<g id="a_edge23_Node000014_Node000006"><a xlink:title=" ">
<path fill="none" stroke="#63b8ff" d="M317.7,-590.87C271.16,-590.59 208.54,-586.39 156,-569.48 123.23,-558.92 89.84,-535.26 72.72,-521.98"/>
<polygon fill="#63b8ff" stroke="#63b8ff" points="317.98,-594.37 327.98,-590.87 317.98,-587.37 317.98,-594.37"/>
</a>
</g>
</g>
<!-- Node14&#45;&gt;Node7 -->
<g id="edge24_Node000014_Node000007" class="edge">
<title>Node14&#45;&gt;Node7</title>
<g id="a_edge24_Node000014_Node000007"><a xlink:title=" ">
<path fill="none" stroke="#63b8ff" d="M327.08,-573.77C325.66,-572.75 324.29,-571.65 323,-570.48 246.15,-500.79 227.2,-364.61 223.36,-327.19"/>
<polygon fill="#63b8ff" stroke="#63b8ff" points="325.39,-576.84 335.79,-578.91 328.95,-570.81 325.39,-576.84"/>
</a>
</g>
</g>
<!-- Node15&#45;&gt;Node3 -->
<g id="edge28_Node000015_Node000003" class="edge">
<title>Node15&#45;&gt;Node3</title>
<g id="a_edge28_Node000015_Node000003"><a xlink:title=" ">
<path fill="none" stroke="#63b8ff" d="M338.57,-423.95C332.8,-420.9 327.4,-417.14 323,-412.48 286.83,-374.14 309.93,-346.94 287,-299.48 270.58,-265.49 243.49,-229.65 230.26,-213"/>
<polygon fill="#63b8ff" stroke="#63b8ff" points="337.29,-427.21 347.84,-428.15 340.18,-420.83 337.29,-427.21"/>
</a>
</g>
</g>
<!-- Node15&#45;&gt;Node6 -->
<g id="edge27_Node000015_Node000006" class="edge">
<title>Node15&#45;&gt;Node6</title>
<g id="a_edge27_Node000015_Node000006"><a xlink:title=" ">
<path fill="none" stroke="#63b8ff" d="M337.38,-436.04C290.16,-436.87 216.62,-441.56 156,-460.48 124.77,-470.22 92.11,-490.74 74.38,-502.89"/>
<polygon fill="#63b8ff" stroke="#63b8ff" points="337.66,-439.53 347.62,-435.91 337.58,-432.53 337.66,-439.53"/>
</a>
</g>
</g>
<!-- Node15&#45;&gt;Node7 -->
<g id="edge29_Node000015_Node000007" class="edge">
<title>Node15&#45;&gt;Node7</title>
<g id="a_edge29_Node000015_Node000007"><a xlink:title=" ">
<path fill="none" stroke="#63b8ff" d="M343.82,-423.1C336.64,-420.07 329.42,-416.52 323,-412.48 283.58,-387.66 246.19,-345.9 230.39,-327.13"/>
<polygon fill="#63b8ff" stroke="#63b8ff" points="342.93,-426.51 353.52,-426.92 345.5,-420 342.93,-426.51"/>
</a>
</g>
</g>
<!-- Node16&#45;&gt;Node9 -->
<g id="edge32_Node000016_Node000009" class="edge">
<title>Node16&#45;&gt;Node9</title>
<g id="a_edge32_Node000016_Node000009"><a xlink:title=" ">
<path fill="none" stroke="#63b8ff" d="M724.53,-456.3C714.62,-499.87 684.28,-603.43 613,-645.48 564.38,-674.16 533.77,-675.54 486,-645.48 454.71,-625.79 478.06,-594.56 450,-570.48 445.44,-566.56 440.09,-563.45 434.47,-560.99"/>
<polygon fill="#63b8ff" stroke="#63b8ff" points="727.99,-456.88 726.67,-446.37 721.15,-455.41 727.99,-456.88"/>
</a>
</g>
</g>
<!-- Node16&#45;&gt;Node11 -->
<g id="edge33_Node000016_Node000011" class="edge">
<title>Node16&#45;&gt;Node11</title>
<g id="a_edge33_Node000016_Node000011"><a xlink:title=" ">
<path fill="none" stroke="#63b8ff" d="M704.97,-451.35C682.33,-464.84 646.68,-484.03 613,-493.48 558.51,-508.76 493.97,-513.18 447.93,-514.12"/>
<polygon fill="#63b8ff" stroke="#63b8ff" points="706.81,-454.32 713.54,-446.13 703.18,-448.34 706.81,-454.32"/>
</a>
</g>
</g>
<!-- Node16&#45;&gt;Node12 -->
<g id="edge34_Node000016_Node000012" class="edge">
<title>Node16&#45;&gt;Node12</title>
<g id="a_edge34_Node000016_Node000012"><a xlink:title=" ">
<path fill="none" stroke="#63b8ff" d="M638.69,-443.19C591.46,-443.38 533.63,-438.18 486,-417.48 466.09,-408.82 468.46,-395.9 450,-384.48 440.51,-378.6 429.35,-373.76 419.11,-370"/>
<polygon fill="#63b8ff" stroke="#63b8ff" points="638.96,-446.69 648.91,-443.06 638.87,-439.69 638.96,-446.69"/>
</a>
</g>
</g>
<!-- Node17 -->
<g id="Node000017" class="node">
<title>Node17</title>
<g id="a_Node000017"><a xlink:href="adxl38x_8c.html#a944f63c06ca5b13b97b52ad69c47cc40" target="_top" xlink:title="Resets the self test registers for the part.">
<polygon fill="white" stroke="#666666" points="603.5,-408.48 495.5,-408.48 495.5,-378.48 603.5,-378.48 603.5,-408.48"/>
<text text-anchor="start" x="503.5" y="-396.48" font-family="Helvetica,sans-Serif" font-size="10.00">adxl38x_clear_self</text>
<text text-anchor="middle" x="549.5" y="-385.48" font-family="Helvetica,sans-Serif" font-size="10.00">_test_registers</text>
</a>
</g>
</g>
<!-- Node16&#45;&gt;Node17 -->
<g id="edge31_Node000016_Node000017" class="edge">
<title>Node16&#45;&gt;Node17</title>
<g id="a_edge31_Node000016_Node000017"><a xlink:title=" ">
<path fill="none" stroke="#63b8ff" d="M679.25,-424.58C655.79,-418.91 627.69,-412.12 603.74,-406.34"/>
<polygon fill="#63b8ff" stroke="#63b8ff" points="678.45,-427.99 689,-426.93 680.1,-421.18 678.45,-427.99"/>
</a>
</g>
</g>
<!-- Node16&#45;&gt;Node18 -->
<g id="edge35_Node000016_Node000018" class="edge">
<title>Node16&#45;&gt;Node18</title>
<g id="a_edge35_Node000016_Node000018"><a xlink:title=" ">
<path fill="none" stroke="#63b8ff" d="M706.43,-421.17C683.86,-406.13 647.34,-383.46 613,-369.48 553.91,-345.42 481.86,-329.35 435.36,-320.56"/>
<polygon fill="#63b8ff" stroke="#63b8ff" points="704.68,-424.21 714.92,-426.91 708.6,-418.41 704.68,-424.21"/>
</a>
</g>
</g>
<!-- Node19 -->
<g id="Node000019" class="node">
<title>Node19</title>
<g id="a_Node000019"><a xlink:href="adxl38x_8c.html#a20129b1b0642592cd8d9ddb063349f29" target="_top" xlink:title="Places the device into the given operation mode.">
<polygon fill="white" stroke="#666666" points="612.5,-483.98 486.5,-483.98 486.5,-464.98 612.5,-464.98 612.5,-483.98"/>
<text text-anchor="middle" x="549.5" y="-471.98" font-family="Helvetica,sans-Serif" font-size="10.00">adxl38x_set_op_mode</text>
</a>
</g>
</g>
<!-- Node16&#45;&gt;Node19 -->
<g id="edge37_Node000016_Node000019" class="edge">
<title>Node16&#45;&gt;Node19</title>
<g id="a_edge37_Node000016_Node000019"><a xlink:title=" ">
<path fill="none" stroke="#63b8ff" d="M673.78,-448.16C648.54,-453.55 618.95,-459.86 595.09,-464.96"/>
<polygon fill="#63b8ff" stroke="#63b8ff" points="674.53,-451.58 683.58,-446.07 673.07,-444.73 674.53,-451.58"/>
</a>
</g>
</g>
<!-- Node20 -->
<g id="Node000020" class="node">
<title>Node20</title>
<g id="a_Node000020"><a xlink:href="adxl38x_8c.html#ad0e94d2a5abb2ab06575734f75b0ff85" target="_top" xlink:title="Sets the measurement range register value.">
<polygon fill="white" stroke="#666666" points="441,-264.98 332,-264.98 332,-245.98 441,-245.98 441,-264.98"/>
<text text-anchor="middle" x="386.5" y="-252.98" font-family="Helvetica,sans-Serif" font-size="10.00">adxl38x_set_range</text>
</a>
</g>
</g>
<!-- Node16&#45;&gt;Node20 -->
<g id="edge44_Node000016_Node000020" class="edge">
<title>Node16&#45;&gt;Node20</title>
<g id="a_edge44_Node000016_Node000020"><a xlink:title=" ">
<path fill="none" stroke="#63b8ff" d="M723.67,-417.22C712.33,-376.68 679.79,-283.14 613,-245.48 549,-209.39 457.78,-231.53 413.55,-245.96"/>
<polygon fill="#63b8ff" stroke="#63b8ff" points="720.3,-418.2 726.26,-426.96 727.07,-416.39 720.3,-418.2"/>
</a>
</g>
</g>
<!-- Node21 -->
<g id="Node000021" class="node">
<title>Node21</title>
<g id="a_Node000021"><a xlink:href="adxl38x_8c.html#ac6b45701313e55606223d6271d92f6ab" target="_top" xlink:title="Sets the part to execute self&#45;test routine.">
<polygon fill="white" stroke="#666666" points="611,-284.48 488,-284.48 488,-254.48 611,-254.48 611,-284.48"/>
<text text-anchor="start" x="496" y="-272.48" font-family="Helvetica,sans-Serif" font-size="10.00">adxl38x_set_self_test</text>
<text text-anchor="middle" x="549.5" y="-261.48" font-family="Helvetica,sans-Serif" font-size="10.00">_registers</text>
</a>
</g>
</g>
<!-- Node16&#45;&gt;Node21 -->
<g id="edge48_Node000016_Node000021" class="edge">
<title>Node16&#45;&gt;Node21</title>
<g id="a_edge48_Node000016_Node000021"><a xlink:title=" ">
<path fill="none" stroke="#63b8ff" d="M717.11,-418.25C698.41,-389.55 658.66,-333.49 613,-298.48 606.07,-293.16 598.01,-288.52 590.03,-284.6"/>
<polygon fill="#63b8ff" stroke="#63b8ff" points="714.29,-420.33 722.63,-426.87 720.18,-416.56 714.29,-420.33"/>
</a>
</g>
</g>
<!-- Node18&#45;&gt;Node7 -->
<g id="edge36_Node000018_Node000007" class="edge">
<title>Node18&#45;&gt;Node7</title>
<g id="a_edge36_Node000018_Node000007"><a xlink:title=" ">
<path fill="none" stroke="#63b8ff" d="M327.62,-314.25C314.5,-314.66 300.49,-315.08 287.11,-315.5"/>
<polygon fill="#63b8ff" stroke="#63b8ff" points="328.03,-317.74 337.92,-313.94 327.81,-310.75 328.03,-317.74"/>
</a>
</g>
</g>
<!-- Node19&#45;&gt;Node3 -->
<g id="edge43_Node000019_Node000003" class="edge">
<title>Node19&#45;&gt;Node3</title>
<g id="a_edge43_Node000019_Node000003"><a xlink:title=" ">
<path fill="none" stroke="#63b8ff" d="M518.14,-460.53C507.77,-455.47 496.22,-449.52 486,-443.48 469.23,-433.57 467.52,-426.99 450,-418.48 396.9,-392.66 367.28,-418.54 323,-379.48 293.76,-353.68 305.94,-333.56 287,-299.48 268.66,-266.48 242.47,-230.17 229.85,-213.21"/>
<polygon fill="#63b8ff" stroke="#63b8ff" points="516.73,-463.73 527.26,-464.89 519.75,-457.42 516.73,-463.73"/>
</a>
</g>
</g>
<!-- Node19&#45;&gt;Node6 -->
<g id="edge42_Node000019_Node000006" class="edge">
<title>Node19&#45;&gt;Node6</title>
<g id="a_edge42_Node000019_Node000006"><a xlink:title=" ">
<path fill="none" stroke="#63b8ff" d="M476.28,-480.11C379.56,-487.65 209.78,-500.88 120.2,-507.86"/>
<polygon fill="#63b8ff" stroke="#63b8ff" points="476.56,-483.6 486.26,-479.33 476.02,-476.62 476.56,-483.6"/>
</a>
</g>
</g>
<!-- Node19&#45;&gt;Node9 -->
<g id="edge38_Node000019_Node000009" class="edge">
<title>Node19&#45;&gt;Node9</title>
<g id="a_edge38_Node000019_Node000009"><a xlink:title=" ">
<path fill="none" stroke="#63b8ff" d="M526.26,-489.65C506.81,-502.4 477.45,-520.43 450,-532.48 441.8,-536.08 432.7,-539.27 424.05,-541.95"/>
<polygon fill="#63b8ff" stroke="#63b8ff" points="528.32,-492.48 534.71,-484.03 524.44,-486.65 528.32,-492.48"/>
</a>
</g>
</g>
<!-- Node19&#45;&gt;Node11 -->
<g id="edge39_Node000019_Node000011" class="edge">
<title>Node19&#45;&gt;Node11</title>
<g id="a_edge39_Node000019_Node000011"><a xlink:title=" ">
<path fill="none" stroke="#63b8ff" d="M499.1,-486.44C475.87,-492.07 448.55,-498.69 426.76,-503.97"/>
<polygon fill="#63b8ff" stroke="#63b8ff" points="500.22,-489.77 509.11,-484.02 498.57,-482.97 500.22,-489.77"/>
</a>
</g>
</g>
<!-- Node19&#45;&gt;Node12 -->
<g id="edge40_Node000019_Node000012" class="edge">
<title>Node19&#45;&gt;Node12</title>
<g id="a_edge40_Node000019_Node000012"><a xlink:title=" ">
<path fill="none" stroke="#63b8ff" d="M501.32,-460.61C495.8,-457.8 490.54,-454.45 486,-450.48 460.86,-428.47 475.14,-406.49 450,-384.48 442.92,-378.28 434.06,-373.6 425.26,-370.1"/>
<polygon fill="#63b8ff" stroke="#63b8ff" points="500.19,-463.94 510.74,-464.86 503.06,-457.56 500.19,-463.94"/>
</a>
</g>
</g>
<!-- Node19&#45;&gt;Node18 -->
<g id="edge41_Node000019_Node000018" class="edge">
<title>Node19&#45;&gt;Node18</title>
<g id="a_edge41_Node000019_Node000018"><a xlink:title=" ">
<path fill="none" stroke="#63b8ff" d="M527.12,-458.47C514.04,-447.9 497.65,-433.14 486,-417.48 463.94,-387.81 476.14,-368.62 450,-342.48 440.98,-333.46 428.71,-326.76 417.44,-322.01"/>
<polygon fill="#63b8ff" stroke="#63b8ff" points="525.13,-461.36 535.15,-464.79 529.45,-455.86 525.13,-461.36"/>
</a>
</g>
</g>
<!-- Node20&#45;&gt;Node3 -->
<g id="edge46_Node000020_Node000003" class="edge">
<title>Node20&#45;&gt;Node3</title>
<g id="a_edge46_Node000020_Node000003"><a xlink:title=" ">
<path fill="none" stroke="#63b8ff" d="M345.86,-242.83C317.08,-233.65 278.74,-221.42 252.48,-213.04"/>
<polygon fill="#63b8ff" stroke="#63b8ff" points="345.01,-246.23 355.6,-245.94 347.14,-239.57 345.01,-246.23"/>
</a>
</g>
</g>
<!-- Node20&#45;&gt;Node6 -->
<g id="edge45_Node000020_Node000006" class="edge">
<title>Node20&#45;&gt;Node6</title>
<g id="a_edge45_Node000020_Node000006"><a xlink:title=" ">
<path fill="none" stroke="#63b8ff" d="M322.04,-261.06C263.24,-267.38 181.21,-279.49 156,-299.48 87.15,-354.06 66.76,-469.15 62.15,-502.95"/>
<polygon fill="#63b8ff" stroke="#63b8ff" points="322.41,-264.54 331.99,-260.02 321.68,-257.58 322.41,-264.54"/>
</a>
</g>
</g>
<!-- Node20&#45;&gt;Node7 -->
<g id="edge47_Node000020_Node000007" class="edge">
<title>Node20&#45;&gt;Node7</title>
<g id="a_edge47_Node000020_Node000007"><a xlink:title=" ">
<path fill="none" stroke="#63b8ff" d="M351.43,-268.74C332.48,-276.08 308.46,-285.35 287,-293.48 274.26,-298.3 260.08,-303.59 248.26,-307.97"/>
<polygon fill="#63b8ff" stroke="#63b8ff" points="352.78,-271.97 360.84,-265.09 350.25,-265.44 352.78,-271.97"/>
</a>
</g>
</g>
<!-- Node21&#45;&gt;Node18 -->
<g id="edge49_Node000021_Node000018" class="edge">
<title>Node21&#45;&gt;Node18</title>
<g id="a_edge49_Node000021_Node000018"><a xlink:title=" ">
<path fill="none" stroke="#63b8ff" d="M482.4,-287.13C462.21,-292.52 440.78,-298.25 423.39,-302.89"/>
<polygon fill="#63b8ff" stroke="#63b8ff" points="483.43,-290.48 492.19,-284.52 481.63,-283.72 483.43,-290.48"/>
</a>
</g>
</g>
<!-- Node22&#45;&gt;Node3 -->
<g id="edge53_Node000022_Node000003" class="edge">
<title>Node22&#45;&gt;Node3</title>
<g id="a_edge53_Node000022_Node000003"><a xlink:title=" ">
<path fill="none" stroke="#63b8ff" d="M321.53,-206.51C306.65,-206.06 290.95,-205.58 276.55,-205.14"/>
<polygon fill="#63b8ff" stroke="#63b8ff" points="321.57,-210.02 331.68,-206.83 321.79,-203.02 321.57,-210.02"/>
</a>
</g>
</g>
<!-- Node22&#45;&gt;Node6 -->
<g id="edge52_Node000022_Node000006" class="edge">
<title>Node22&#45;&gt;Node6</title>
<g id="a_edge52_Node000022_Node000006"><a xlink:title=" ">
<path fill="none" stroke="#63b8ff" d="M321.92,-219.69C258.46,-231.39 168.57,-249.53 156,-260.48 78.43,-328.04 64.02,-465.59 61.51,-502.94"/>
<polygon fill="#63b8ff" stroke="#63b8ff" points="322.66,-223.12 331.87,-217.87 321.4,-216.23 322.66,-223.12"/>
</a>
</g>
</g>
<!-- Node22&#45;&gt;Node7 -->
<g id="edge54_Node000022_Node000007" class="edge">
<title>Node22&#45;&gt;Node7</title>
<g id="a_edge54_Node000022_Node000007"><a xlink:title=" ">
<path fill="none" stroke="#63b8ff" d="M352.05,-222.22C342.43,-226.64 332.08,-231.87 323,-237.48 287.52,-259.39 250.25,-291.98 232.74,-307.95"/>
<polygon fill="#63b8ff" stroke="#63b8ff" points="353.65,-225.34 361.36,-218.08 350.81,-218.94 353.65,-225.34"/>
</a>
</g>
</g>
</g>
</svg>

<g id="navigator" transform="translate(0 0)" fill="#404254">
  <rect fill="#f2f5e9" fill-opacity="0.5" stroke="#606060" stroke-width=".5" x="0" y="0" width="60" height="60"/>
  <use id="zoomplus" xlink:href="#zoomPlus" x="17" y="9" onmousedown="handleZoom(evt,'in')"/>
  <use id="zoomminus" xlink:href="#zoomMin" x="42" y="9" onmousedown="handleZoom(evt,'out')"/>
  <use id="reset" xlink:href="#resetDef" x="30" y="36" onmousedown="handleReset()"/>
   <use id="arrowup" xlink:href="#arrowUp" x="0" y="0" onmousedown="handlePan(0,-1)"/>
  <use id="arrowright" xlink:href="#arrowRight" x="0" y="0" onmousedown="handlePan(1,0)"/>
  <use id="arrowdown" xlink:href="#arrowDown" x="0" y="0" onmousedown="handlePan(0,1)"/>
  <use id="arrowleft" xlink:href="#arrowLeft" x="0" y="0" onmousedown="handlePan(-1,0)"/>
</g>
<svg viewBox="0 0 15 15" width="100%" height="30px" preserveAspectRatio="xMaxYMin meet">
 <g id="arrow_out" transform="scale(0.3 0.3)">
  <a xlink:href="adxl38x_8h_a45c70ca1716f421e07cf4c6031fac597_icgraph_org.svg" target="_base">
   <rect id="button" ry="5" rx="5" y="6" x="6" height="38" width="38"
        fill="#f2f5e9" fill-opacity="0.5" stroke="#606060" stroke-width="1.0"/>
   <path id="arrow"
     d="M 11.500037,31.436501 C 11.940474,20.09759 22.043105,11.32322 32.158766,21.979434 L 37.068811,17.246167 C 37.068811,17.246167 37.088388,32 37.088388,32 L 22.160133,31.978069 C 22.160133,31.978069 26.997745,27.140456 26.997745,27.140456 C 18.528582,18.264221 13.291696,25.230495 11.500037,31.436501 z"
     style="fill:#404040;"/>
  </a>
 </g>
</svg>

<style type='text/css'>
<![CDATA[
[data-mouse-over-selected='false'] { opacity: 0.7; }
[data-mouse-over-selected='true']  { opacity: 1.0; }
]]>
</style>
<script type="application/ecmascript"><![CDATA[
document.addEventListener('DOMContentLoaded', (event) => {
  highlightEdges();
  highlightAdjacentNodes();
});
]]></script>
</svg>
