<?xml version="1.0" encoding="UTF-8" standalone="no"?>
<!DOCTYPE svg PUBLIC "-//W3C//DTD SVG 1.1//EN"
 "http://www.w3.org/Graphics/SVG/1.1/DTD/svg11.dtd">
<!-- Generated by graphviz version 2.43.0 (0)
 -->
<!-- Title: adxl367_get_nb_of_fifo_entries Pages: 1 -->
<svg width="620pt" height="38pt"
 viewBox="0.00 0.00 620.00 38.00" xmlns="http://www.w3.org/2000/svg" xmlns:xlink="http://www.w3.org/1999/xlink">
<g id="graph0" class="graph" transform="scale(1 1) rotate(0) translate(4 34)">
<title>adxl367_get_nb_of_fifo_entries</title>
<!-- Node1 -->
<g id="Node000001" class="node">
<title>Node1</title>
<g id="a_Node000001"><a xlink:title="Reads the number of FIFO entries.">
<polygon fill="#999999" stroke="#666666" points="612,-30 482,-30 482,0 612,0 612,-30"/>
<text text-anchor="start" x="490" y="-18" font-family="Helvetica,sans-Serif" font-size="10.00">adxl367_get_nb_of_fifo</text>
<text text-anchor="middle" x="547" y="-7" font-family="Helvetica,sans-Serif" font-size="10.00">_entries</text>
</a>
</g>
</g>
<!-- Node2 -->
<g id="Node000002" class="node">
<title>Node2</title>
<g id="a_Node000002"><a xlink:href="adxl367_8c.html#ab7757e900ce82d9e6edb8d234c941337" target="_top" xlink:title="Reads all available raw values from FIFO. If, after setting FIFO mode, any of x, y,...">
<polygon fill="white" stroke="#666666" points="446,-24.5 319,-24.5 319,-5.5 446,-5.5 446,-24.5"/>
<text text-anchor="middle" x="382.5" y="-12.5" font-family="Helvetica,sans-Serif" font-size="10.00">adxl367_read_raw_fifo</text>
</a>
</g>
</g>
<!-- Node1&#45;&gt;Node2 -->
<g id="edge1_Node000001_Node000002" class="edge">
<title>Node1&#45;&gt;Node2</title>
<g id="a_edge1_Node000001_Node000002"><a xlink:title=" ">
<path fill="none" stroke="#63b8ff" d="M471.52,-15C463.05,-15 454.49,-15 446.2,-15"/>
<polygon fill="#63b8ff" stroke="#63b8ff" points="471.78,-18.5 481.78,-15 471.78,-11.5 471.78,-18.5"/>
</a>
</g>
</g>
<!-- Node3 -->
<g id="Node000003" class="node">
<title>Node3</title>
<g id="a_Node000003"><a xlink:href="adxl367_8c.html#adb88147a4a46b716f0e0ea59751d789a" target="_top" xlink:title="Reads converted values from FIFO. If, after setting FIFO mode, any of x, y, z, temp or adc aren&#39;t sel...">
<polygon fill="white" stroke="#666666" points="283,-24.5 125,-24.5 125,-5.5 283,-5.5 283,-24.5"/>
<text text-anchor="middle" x="204" y="-12.5" font-family="Helvetica,sans-Serif" font-size="10.00">adxl367_read_converted_fifo</text>
</a>
</g>
</g>
<!-- Node2&#45;&gt;Node3 -->
<g id="edge2_Node000002_Node000003" class="edge">
<title>Node2&#45;&gt;Node3</title>
<g id="a_edge2_Node000002_Node000003"><a xlink:title=" ">
<path fill="none" stroke="#63b8ff" d="M308.67,-15C300.29,-15 291.72,-15 283.27,-15"/>
<polygon fill="#63b8ff" stroke="#63b8ff" points="308.78,-18.5 318.78,-15 308.78,-11.5 308.78,-18.5"/>
</a>
</g>
</g>
<!-- Node4 -->
<g id="Node000004" class="node">
<title>Node4</title>
<g id="a_Node000004"><a xlink:href="eval-adxl367z_2src_2examples_2dummy_2dummy__example_8c.html#ac25cbf8ae523e89cb0617e68c98bc697" target="_top" xlink:title="Dummy example main execution.">
<polygon fill="white" stroke="#666666" points="89,-24.5 0,-24.5 0,-5.5 89,-5.5 89,-24.5"/>
<text text-anchor="middle" x="44.5" y="-12.5" font-family="Helvetica,sans-Serif" font-size="10.00">example_main</text>
</a>
</g>
</g>
<!-- Node3&#45;&gt;Node4 -->
<g id="edge3_Node000003_Node000004" class="edge">
<title>Node3&#45;&gt;Node4</title>
<g id="a_edge3_Node000003_Node000004"><a xlink:title=" ">
<path fill="none" stroke="#63b8ff" d="M114.44,-15C105.73,-15 97.19,-15 89.24,-15"/>
<polygon fill="#63b8ff" stroke="#63b8ff" points="114.71,-18.5 124.71,-15 114.71,-11.5 114.71,-18.5"/>
</a>
</g>
</g>
</g>
</svg>
