<?xml version="1.0" encoding="UTF-8" standalone="no"?>
<!DOCTYPE svg PUBLIC "-//W3C//DTD SVG 1.1//EN"
 "http://www.w3.org/Graphics/SVG/1.1/DTD/svg11.dtd">
<!-- Generated by graphviz version 2.43.0 (0)
 -->
<!-- Title: adxcvr_read Pages: 1 -->
<svg width="1033pt" height="212pt"
 viewBox="0.00 0.00 1033.00 212.00" xmlns="http://www.w3.org/2000/svg" xmlns:xlink="http://www.w3.org/1999/xlink">
<g id="graph0" class="graph" transform="scale(1 1) rotate(0) translate(4 208)">
<title>adxcvr_read</title>
<!-- Node1 -->
<g id="Node000001" class="node">
<title>Node1</title>
<g id="a_Node000001"><a xlink:title="adxcvr_read">
<polygon fill="#999999" stroke="#666666" points="1025,-134 948,-134 948,-115 1025,-115 1025,-134"/>
<text text-anchor="middle" x="986.5" y="-122" font-family="Helvetica,sans-Serif" font-size="10.00">adxcvr_read</text>
</a>
</g>
</g>
<!-- Node2 -->
<g id="Node000002" class="node">
<title>Node2</title>
<g id="a_Node000002"><a xlink:href="altera__adxcvr_8c.html#ad2482b05b7ec9e14718dec1eb00eab99" target="_top" xlink:title="adxcvr_finalize_lane_rate_change">
<polygon fill="white" stroke="#666666" points="912,-118.5 796,-118.5 796,-88.5 912,-88.5 912,-118.5"/>
<text text-anchor="start" x="804" y="-106.5" font-family="Helvetica,sans-Serif" font-size="10.00">adxcvr_finalize_lane</text>
<text text-anchor="middle" x="854" y="-95.5" font-family="Helvetica,sans-Serif" font-size="10.00">_rate_change</text>
</a>
</g>
</g>
<!-- Node1&#45;&gt;Node2 -->
<g id="edge1_Node000001_Node000002" class="edge">
<title>Node1&#45;&gt;Node2</title>
<g id="a_edge1_Node000001_Node000002"><a xlink:title=" ">
<path fill="none" stroke="#63b8ff" d="M937.81,-116.82C929.45,-115.48 920.67,-114.07 912.09,-112.69"/>
<polygon fill="#63b8ff" stroke="#63b8ff" points="937.32,-120.29 947.75,-118.43 938.44,-113.38 937.32,-120.29"/>
</a>
</g>
</g>
<!-- Node6 -->
<g id="Node000006" class="node">
<title>Node6</title>
<g id="a_Node000006"><a xlink:href="altera__adxcvr_8c.html#a67ef0bb38e4648e42b5cfa3a7991c49c" target="_top" xlink:title="adxcvr_init">
<polygon fill="white" stroke="#666666" points="292,-111 221,-111 221,-92 292,-92 292,-111"/>
<text text-anchor="middle" x="256.5" y="-99" font-family="Helvetica,sans-Serif" font-size="10.00">adxcvr_init</text>
</a>
</g>
</g>
<!-- Node1&#45;&gt;Node6 -->
<g id="edge20_Node000001_Node000006" class="edge">
<title>Node1&#45;&gt;Node6</title>
<g id="a_edge20_Node000001_Node000006"><a xlink:title=" ">
<path fill="none" stroke="#63b8ff" d="M937.67,-130.4C880.59,-136.91 782.24,-146.5 697.5,-146.5 697.5,-146.5 697.5,-146.5 542.5,-146.5 455.2,-146.5 432.73,-143.97 347,-127.5 326.03,-123.47 302.89,-116.68 285.39,-111.05"/>
<polygon fill="#63b8ff" stroke="#63b8ff" points="938.3,-133.85 947.83,-129.22 937.49,-126.89 938.3,-133.85"/>
</a>
</g>
</g>
<!-- Node3 -->
<g id="Node000003" class="node">
<title>Node3</title>
<g id="a_Node000003"><a xlink:href="altera__adxcvr_8c.html#aab91976af36cb321f9015da9571ac77f" target="_top" xlink:title="adxcvr_post_lane_rate_change">
<polygon fill="white" stroke="#666666" points="760,-118.5 633,-118.5 633,-88.5 760,-88.5 760,-118.5"/>
<text text-anchor="start" x="641" y="-106.5" font-family="Helvetica,sans-Serif" font-size="10.00">adxcvr_post_lane_rate</text>
<text text-anchor="middle" x="696.5" y="-95.5" font-family="Helvetica,sans-Serif" font-size="10.00">_change</text>
</a>
</g>
</g>
<!-- Node2&#45;&gt;Node3 -->
<g id="edge2_Node000002_Node000003" class="edge">
<title>Node2&#45;&gt;Node3</title>
<g id="a_edge2_Node000002_Node000003"><a xlink:title=" ">
<path fill="none" stroke="#63b8ff" d="M785.97,-103.5C777.36,-103.5 768.56,-103.5 760.02,-103.5"/>
<polygon fill="#63b8ff" stroke="#63b8ff" points="785.98,-107 795.98,-103.5 785.98,-100 785.98,-107"/>
</a>
</g>
</g>
<!-- Node4 -->
<g id="Node000004" class="node">
<title>Node4</title>
<g id="a_Node000004"><a xlink:href="altera__a10__atx__pll_8c.html#a8f2ce655c0c78b93dee5a8b121cc8f73" target="_top" xlink:title="altera_a10_atx_pll_set_rate">
<polygon fill="white" stroke="#666666" points="597,-118.5 490,-118.5 490,-88.5 597,-88.5 597,-118.5"/>
<text text-anchor="start" x="498" y="-106.5" font-family="Helvetica,sans-Serif" font-size="10.00">altera_a10_atx_pll</text>
<text text-anchor="middle" x="543.5" y="-95.5" font-family="Helvetica,sans-Serif" font-size="10.00">_set_rate</text>
</a>
</g>
</g>
<!-- Node3&#45;&gt;Node4 -->
<g id="edge3_Node000003_Node000004" class="edge">
<title>Node3&#45;&gt;Node4</title>
<g id="a_edge3_Node000003_Node000004"><a xlink:title=" ">
<path fill="none" stroke="#63b8ff" d="M622.72,-103.5C614.11,-103.5 605.45,-103.5 597.2,-103.5"/>
<polygon fill="#63b8ff" stroke="#63b8ff" points="622.77,-107 632.77,-103.5 622.77,-100 622.77,-107"/>
</a>
</g>
</g>
<!-- Node17 -->
<g id="Node000017" class="node">
<title>Node17</title>
<g id="a_Node000017"><a xlink:href="altera__a10__cdr__pll_8c.html#acd3ba325a22ad7690f934b858087ce25" target="_top" xlink:title="altera_a10_cdr_pll_set_rate">
<polygon fill="white" stroke="#666666" points="596.5,-70.5 490.5,-70.5 490.5,-40.5 596.5,-40.5 596.5,-70.5"/>
<text text-anchor="start" x="498.5" y="-58.5" font-family="Helvetica,sans-Serif" font-size="10.00">altera_a10_cdr_pll</text>
<text text-anchor="middle" x="543.5" y="-47.5" font-family="Helvetica,sans-Serif" font-size="10.00">_set_rate</text>
</a>
</g>
</g>
<!-- Node3&#45;&gt;Node17 -->
<g id="edge16_Node000003_Node000017" class="edge">
<title>Node3&#45;&gt;Node17</title>
<g id="a_edge16_Node000003_Node000017"><a xlink:title=" ">
<path fill="none" stroke="#63b8ff" d="M638.23,-85.29C622.87,-80.41 606.44,-75.19 591.69,-70.5"/>
<polygon fill="#63b8ff" stroke="#63b8ff" points="637.55,-88.75 648.14,-88.44 639.67,-82.08 637.55,-88.75"/>
</a>
</g>
</g>
<!-- Node5 -->
<g id="Node000005" class="node">
<title>Node5</title>
<g id="a_Node000005"><a xlink:href="altera__adxcvr_8c.html#a684db50fe066ad6dd6df4aac1cad609c" target="_top" xlink:title="adxcvr_init">
<polygon fill="white" stroke="#666666" points="448,-70 353,-70 353,-51 448,-51 448,-70"/>
<text text-anchor="middle" x="400.5" y="-58" font-family="Helvetica,sans-Serif" font-size="10.00">adxcvr_set_rate</text>
</a>
</g>
</g>
<!-- Node4&#45;&gt;Node5 -->
<g id="edge4_Node000004_Node000005" class="edge">
<title>Node4&#45;&gt;Node5</title>
<g id="a_edge4_Node000004_Node000005"><a xlink:title=" ">
<path fill="none" stroke="#63b8ff" d="M483.16,-85.4C465.91,-80.14 447.74,-74.6 432.93,-70.09"/>
<polygon fill="#63b8ff" stroke="#63b8ff" points="482.6,-88.89 493.19,-88.46 484.64,-82.2 482.6,-88.89"/>
</a>
</g>
</g>
<!-- Node15 -->
<g id="Node000015" class="node">
<title>Node15</title>
<g id="a_Node000015"><a xlink:href="altera__a10__atx__pll_8c.html#ac5f5e49c8c41f6c40c74b5afa05d53a1" target="_top" xlink:title="altera_a10_atx_pll_recalc_rate">
<polygon fill="white" stroke="#666666" points="454,-118.5 347,-118.5 347,-88.5 454,-88.5 454,-118.5"/>
<text text-anchor="start" x="355" y="-106.5" font-family="Helvetica,sans-Serif" font-size="10.00">altera_a10_atx_pll</text>
<text text-anchor="middle" x="400.5" y="-95.5" font-family="Helvetica,sans-Serif" font-size="10.00">_recalc_rate</text>
</a>
</g>
</g>
<!-- Node4&#45;&gt;Node15 -->
<g id="edge14_Node000004_Node000015" class="edge">
<title>Node4&#45;&gt;Node15</title>
<g id="a_edge14_Node000004_Node000015"><a xlink:title=" ">
<path fill="none" stroke="#63b8ff" d="M479.95,-103.5C471.3,-103.5 462.49,-103.5 454.05,-103.5"/>
<polygon fill="#63b8ff" stroke="#63b8ff" points="480,-107 490,-103.5 480,-100 480,-107"/>
</a>
</g>
</g>
<!-- Node5&#45;&gt;Node6 -->
<g id="edge5_Node000005_Node000006" class="edge">
<title>Node5&#45;&gt;Node6</title>
<g id="a_edge5_Node000005_Node000006"><a xlink:title=" ">
<path fill="none" stroke="#63b8ff" d="M356.85,-72.82C335.67,-78.93 310.47,-86.21 290.75,-91.9"/>
<polygon fill="#63b8ff" stroke="#63b8ff" points="357.93,-76.15 366.57,-70.01 355.99,-69.42 357.93,-76.15"/>
</a>
</g>
</g>
<!-- Node7 -->
<g id="Node000007" class="node">
<title>Node7</title>
<g id="a_Node000007"><a xlink:href="ad9083_2src_2app__jesd_8c.html#a3fc69d9cce4bef3b10d0ea379c5cbd86" target="_top" xlink:title="Application JESD setup.">
<polygon fill="white" stroke="#666666" points="162,-204 81,-204 81,-185 162,-185 162,-204"/>
<text text-anchor="middle" x="121.5" y="-192" font-family="Helvetica,sans-Serif" font-size="10.00">app_jesd_init</text>
</a>
</g>
</g>
<!-- Node6&#45;&gt;Node7 -->
<g id="edge6_Node000006_Node000007" class="edge">
<title>Node6&#45;&gt;Node7</title>
<g id="a_edge6_Node000006_Node000007"><a xlink:title=" ">
<path fill="none" stroke="#63b8ff" d="M238.28,-118.72C221.11,-135.18 193.41,-159.88 166,-176.5 160.83,-179.63 155.01,-182.46 149.35,-184.9"/>
<polygon fill="#63b8ff" stroke="#63b8ff" points="241.1,-120.86 245.81,-111.37 236.21,-115.85 241.1,-120.86"/>
</a>
</g>
</g>
<!-- Node8 -->
<g id="Node000008" class="node">
<title>Node8</title>
<g id="a_Node000008"><a xlink:href="ad9081_2src_2app__jesd_8c.html#a5ef8f40129d0245e81e1a76cc451d2a6" target="_top" xlink:title="Application JESD setup.">
<polygon fill="white" stroke="#666666" points="162,-167 81,-167 81,-148 162,-148 162,-167"/>
<text text-anchor="middle" x="121.5" y="-155" font-family="Helvetica,sans-Serif" font-size="10.00">app_jesd_init</text>
</a>
</g>
</g>
<!-- Node6&#45;&gt;Node8 -->
<g id="edge7_Node000006_Node000008" class="edge">
<title>Node6&#45;&gt;Node8</title>
<g id="a_edge7_Node000006_Node000008"><a xlink:title=" ">
<path fill="none" stroke="#63b8ff" d="M223.59,-115.13C206.52,-122.4 185.13,-131.48 166,-139.5 159.52,-142.22 152.48,-145.14 146,-147.82"/>
<polygon fill="#63b8ff" stroke="#63b8ff" points="225.26,-118.22 233.09,-111.08 222.52,-111.79 225.26,-118.22"/>
</a>
</g>
</g>
<!-- Node10 -->
<g id="Node000010" class="node">
<title>Node10</title>
<g id="a_Node000010"><a xlink:href="adrv903x_2src_2examples_2basic__example_2basic__example_8c.html#ac25cbf8ae523e89cb0617e68c98bc697" target="_top" xlink:title="Basic example main function.">
<polygon fill="white" stroke="#666666" points="166,-130 77,-130 77,-111 166,-111 166,-130"/>
<text text-anchor="middle" x="121.5" y="-118" font-family="Helvetica,sans-Serif" font-size="10.00">example_main</text>
</a>
</g>
</g>
<!-- Node6&#45;&gt;Node10 -->
<g id="edge9_Node000006_Node000010" class="edge">
<title>Node6&#45;&gt;Node10</title>
<g id="a_edge9_Node000006_Node000010"><a xlink:title=" ">
<path fill="none" stroke="#63b8ff" d="M210.81,-107.88C196.51,-109.93 180.71,-112.18 166.47,-114.22"/>
<polygon fill="#63b8ff" stroke="#63b8ff" points="211.5,-111.32 220.9,-106.44 210.51,-104.39 211.5,-111.32"/>
</a>
</g>
</g>
<!-- Node11 -->
<g id="Node000011" class="node">
<title>Node11</title>
<g id="a_Node000011"><a xlink:href="adrv902x_2src_2examples_2basic__example_2basic__example_8c.html#a423407bf3827741dfe2f6e0def8ba0c3" target="_top" xlink:title="Basic example main execution.">
<polygon fill="white" stroke="#666666" points="166,-93 77,-93 77,-74 166,-74 166,-93"/>
<text text-anchor="middle" x="121.5" y="-81" font-family="Helvetica,sans-Serif" font-size="10.00">example_main</text>
</a>
</g>
</g>
<!-- Node6&#45;&gt;Node11 -->
<g id="edge10_Node000006_Node000011" class="edge">
<title>Node6&#45;&gt;Node11</title>
<g id="a_edge10_Node000006_Node000011"><a xlink:title=" ">
<path fill="none" stroke="#63b8ff" d="M210.81,-95.45C196.51,-93.52 180.71,-91.38 166.47,-89.45"/>
<polygon fill="#63b8ff" stroke="#63b8ff" points="210.52,-98.94 220.9,-96.82 211.46,-92.01 210.52,-98.94"/>
</a>
</g>
</g>
<!-- Node12 -->
<g id="Node000012" class="node">
<title>Node12</title>
<g id="a_Node000012"><a xlink:href="app__transceiver_8c.html#ab75f92d0fa79151108cc487cd7829c98" target="_top" xlink:title=" ">
<polygon fill="white" stroke="#666666" points="164.5,-56 78.5,-56 78.5,-37 164.5,-37 164.5,-56"/>
<text text-anchor="middle" x="121.5" y="-44" font-family="Helvetica,sans-Serif" font-size="10.00">fpga_xcvr_init</text>
</a>
</g>
</g>
<!-- Node6&#45;&gt;Node12 -->
<g id="edge11_Node000006_Node000012" class="edge">
<title>Node6&#45;&gt;Node12</title>
<g id="a_edge11_Node000006_Node000012"><a xlink:title=" ">
<path fill="none" stroke="#63b8ff" d="M222.64,-88.02C215.81,-85.21 208.67,-82.26 202,-79.5 185.98,-72.87 182.01,-71.15 166,-64.5 159.36,-61.74 152.14,-58.75 145.53,-56.02"/>
<polygon fill="#63b8ff" stroke="#63b8ff" points="221.74,-91.43 232.32,-91.99 224.4,-84.95 221.74,-91.43"/>
</a>
</g>
</g>
<!-- Node14 -->
<g id="Node000014" class="node">
<title>Node14</title>
<g id="a_Node000014"><a xlink:href="ad6676__ebz_8c.html#a840291bc02cba5474a4cb46a9b9566fe" target="_top" xlink:title="main">
<polygon fill="white" stroke="#666666" points="142,-19 101,-19 101,0 142,0 142,-19"/>
<text text-anchor="middle" x="121.5" y="-7" font-family="Helvetica,sans-Serif" font-size="10.00">main</text>
</a>
</g>
</g>
<!-- Node6&#45;&gt;Node14 -->
<g id="edge13_Node000006_Node000014" class="edge">
<title>Node6&#45;&gt;Node14</title>
<g id="a_edge13_Node000006_Node000014"><a xlink:title=" ">
<path fill="none" stroke="#63b8ff" d="M214.56,-87.62C210.1,-85.26 205.81,-82.57 202,-79.5 180.1,-61.88 187.88,-45.15 166,-27.5 159.13,-21.96 150.31,-17.89 142.42,-15.04"/>
<polygon fill="#63b8ff" stroke="#63b8ff" points="213.3,-90.89 223.84,-91.98 216.28,-84.56 213.3,-90.89"/>
</a>
</g>
</g>
<!-- Node9 -->
<g id="Node000009" class="node">
<title>Node9</title>
<g id="a_Node000009"><a xlink:href="ad9081_2src_2app_8c.html#a840291bc02cba5474a4cb46a9b9566fe" target="_top" xlink:title=" ">
<polygon fill="white" stroke="#666666" points="41,-167 0,-167 0,-148 41,-148 41,-167"/>
<text text-anchor="middle" x="20.5" y="-155" font-family="Helvetica,sans-Serif" font-size="10.00">main</text>
</a>
</g>
</g>
<!-- Node8&#45;&gt;Node9 -->
<g id="edge8_Node000008_Node000009" class="edge">
<title>Node8&#45;&gt;Node9</title>
<g id="a_edge8_Node000008_Node000009"><a xlink:title=" ">
<path fill="none" stroke="#63b8ff" d="M70.76,-157.5C60.22,-157.5 49.69,-157.5 41.09,-157.5"/>
<polygon fill="#63b8ff" stroke="#63b8ff" points="70.8,-161 80.8,-157.5 70.8,-154 70.8,-161"/>
</a>
</g>
</g>
<!-- Node13 -->
<g id="Node000013" class="node">
<title>Node13</title>
<g id="a_Node000013"><a xlink:href="headless__arm_8c.html#a840291bc02cba5474a4cb46a9b9566fe" target="_top" xlink:title=" ">
<polygon fill="white" stroke="#666666" points="41,-56 0,-56 0,-37 41,-37 41,-56"/>
<text text-anchor="middle" x="20.5" y="-44" font-family="Helvetica,sans-Serif" font-size="10.00">main</text>
</a>
</g>
</g>
<!-- Node12&#45;&gt;Node13 -->
<g id="edge12_Node000012_Node000013" class="edge">
<title>Node12&#45;&gt;Node13</title>
<g id="a_edge12_Node000012_Node000013"><a xlink:title=" ">
<path fill="none" stroke="#63b8ff" d="M68.16,-46.5C58.48,-46.5 48.96,-46.5 41.06,-46.5"/>
<polygon fill="#63b8ff" stroke="#63b8ff" points="68.23,-50 78.23,-46.5 68.23,-43 68.23,-50"/>
</a>
</g>
</g>
<!-- Node16 -->
<g id="Node000016" class="node">
<title>Node16</title>
<g id="a_Node000016"><a xlink:href="altera__adxcvr_8c.html#ad38d3c03f1f00faab758b63fbaf9794d" target="_top" xlink:title="adxcvr_recalc_rate">
<polygon fill="white" stroke="#666666" points="311,-71 202,-71 202,-52 311,-52 311,-71"/>
<text text-anchor="middle" x="256.5" y="-59" font-family="Helvetica,sans-Serif" font-size="10.00">adxcvr_recalc_rate</text>
</a>
</g>
</g>
<!-- Node15&#45;&gt;Node16 -->
<g id="edge15_Node000015_Node000016" class="edge">
<title>Node15&#45;&gt;Node16</title>
<g id="a_edge15_Node000015_Node000016"><a xlink:title=" ">
<path fill="none" stroke="#63b8ff" d="M338.85,-85.56C322.02,-80.58 304.41,-75.37 289.88,-71.08"/>
<polygon fill="#63b8ff" stroke="#63b8ff" points="338.05,-88.98 348.64,-88.46 340.04,-82.26 338.05,-88.98"/>
</a>
</g>
</g>
<!-- Node17&#45;&gt;Node5 -->
<g id="edge17_Node000017_Node000005" class="edge">
<title>Node17&#45;&gt;Node5</title>
<g id="a_edge17_Node000017_Node000005"><a xlink:title=" ">
<path fill="none" stroke="#63b8ff" d="M480.22,-57.71C469.49,-58.09 458.5,-58.48 448.27,-58.84"/>
<polygon fill="#63b8ff" stroke="#63b8ff" points="480.53,-61.2 490.4,-57.35 480.28,-54.2 480.53,-61.2"/>
</a>
</g>
</g>
<!-- Node18 -->
<g id="Node000018" class="node">
<title>Node18</title>
<g id="a_Node000018"><a xlink:href="altera__a10__cdr__pll_8c.html#ae16cfdb6dcf52acfad2cd4480144d642" target="_top" xlink:title="altera_a10_cdr_pll_recalc_rate">
<polygon fill="white" stroke="#666666" points="453.5,-32.5 347.5,-32.5 347.5,-2.5 453.5,-2.5 453.5,-32.5"/>
<text text-anchor="start" x="355.5" y="-20.5" font-family="Helvetica,sans-Serif" font-size="10.00">altera_a10_cdr_pll</text>
<text text-anchor="middle" x="400.5" y="-9.5" font-family="Helvetica,sans-Serif" font-size="10.00">_recalc_rate</text>
</a>
</g>
</g>
<!-- Node17&#45;&gt;Node18 -->
<g id="edge18_Node000017_Node000018" class="edge">
<title>Node17&#45;&gt;Node18</title>
<g id="a_edge18_Node000017_Node000018"><a xlink:title=" ">
<path fill="none" stroke="#63b8ff" d="M480.48,-38.78C471.59,-36.39 462.53,-33.95 453.86,-31.61"/>
<polygon fill="#63b8ff" stroke="#63b8ff" points="479.83,-42.24 490.4,-41.46 481.65,-35.48 479.83,-42.24"/>
</a>
</g>
</g>
<!-- Node18&#45;&gt;Node16 -->
<g id="edge19_Node000018_Node000016" class="edge">
<title>Node18&#45;&gt;Node16</title>
<g id="a_edge19_Node000018_Node000016"><a xlink:title=" ">
<path fill="none" stroke="#63b8ff" d="M341.38,-35.51C323.24,-41.13 303.92,-47.11 288.41,-51.92"/>
<polygon fill="#63b8ff" stroke="#63b8ff" points="342.51,-38.82 351.03,-32.52 340.44,-32.14 342.51,-38.82"/>
</a>
</g>
</g>
</g>
</svg>
