<?xml version="1.0" encoding="UTF-8" standalone="no"?>
<!DOCTYPE svg PUBLIC "-//W3C//DTD SVG 1.1//EN"
 "http://www.w3.org/Graphics/SVG/1.1/DTD/svg11.dtd">
<!-- Generated by graphviz version 2.43.0 (0)
 -->
<!-- Title: adxcvr_finalize_lane_rate_change Pages: 1 -->
<svg width="951pt" height="286pt"
 viewBox="0.00 0.00 951.00 286.00" xmlns="http://www.w3.org/2000/svg" xmlns:xlink="http://www.w3.org/1999/xlink">
<g id="graph0" class="graph" transform="scale(1 1) rotate(0) translate(4 282)">
<title>adxcvr_finalize_lane_rate_change</title>
<!-- Node1 -->
<g id="Node000001" class="node">
<title>Node1</title>
<g id="a_Node000001"><a xlink:title="adxcvr_finalize_lane_rate_change">
<polygon fill="#999999" stroke="#666666" points="943,-153.5 827,-153.5 827,-123.5 943,-123.5 943,-153.5"/>
<text text-anchor="start" x="835" y="-141.5" font-family="Helvetica,sans-Serif" font-size="10.00">adxcvr_finalize_lane</text>
<text text-anchor="middle" x="885" y="-130.5" font-family="Helvetica,sans-Serif" font-size="10.00">_rate_change</text>
</a>
</g>
</g>
<!-- Node2 -->
<g id="Node000002" class="node">
<title>Node2</title>
<g id="a_Node000002"><a xlink:href="altera__adxcvr_8c.html#aab91976af36cb321f9015da9571ac77f" target="_top" xlink:title="adxcvr_post_lane_rate_change">
<polygon fill="white" stroke="#666666" points="791,-153.5 664,-153.5 664,-123.5 791,-123.5 791,-153.5"/>
<text text-anchor="start" x="672" y="-141.5" font-family="Helvetica,sans-Serif" font-size="10.00">adxcvr_post_lane_rate</text>
<text text-anchor="middle" x="727.5" y="-130.5" font-family="Helvetica,sans-Serif" font-size="10.00">_change</text>
</a>
</g>
</g>
<!-- Node1&#45;&gt;Node2 -->
<g id="edge1_Node000001_Node000002" class="edge">
<title>Node1&#45;&gt;Node2</title>
<g id="a_edge1_Node000001_Node000002"><a xlink:title=" ">
<path fill="none" stroke="#63b8ff" d="M816.97,-138.5C808.36,-138.5 799.56,-138.5 791.02,-138.5"/>
<polygon fill="#63b8ff" stroke="#63b8ff" points="816.98,-142 826.98,-138.5 816.98,-135 816.98,-142"/>
</a>
</g>
</g>
<!-- Node3 -->
<g id="Node000003" class="node">
<title>Node3</title>
<g id="a_Node000003"><a xlink:href="altera__a10__atx__pll_8c.html#a8f2ce655c0c78b93dee5a8b121cc8f73" target="_top" xlink:title="altera_a10_atx_pll_set_rate">
<polygon fill="white" stroke="#666666" points="628,-129.5 521,-129.5 521,-99.5 628,-99.5 628,-129.5"/>
<text text-anchor="start" x="529" y="-117.5" font-family="Helvetica,sans-Serif" font-size="10.00">altera_a10_atx_pll</text>
<text text-anchor="middle" x="574.5" y="-106.5" font-family="Helvetica,sans-Serif" font-size="10.00">_set_rate</text>
</a>
</g>
</g>
<!-- Node2&#45;&gt;Node3 -->
<g id="edge2_Node000002_Node000003" class="edge">
<title>Node2&#45;&gt;Node3</title>
<g id="a_edge2_Node000002_Node000003"><a xlink:title=" ">
<path fill="none" stroke="#63b8ff" d="M653.72,-126.93C645.11,-125.56 636.45,-124.19 628.2,-122.88"/>
<polygon fill="#63b8ff" stroke="#63b8ff" points="653.35,-130.42 663.77,-128.53 654.45,-123.5 653.35,-130.42"/>
</a>
</g>
</g>
<!-- Node19 -->
<g id="Node000019" class="node">
<title>Node19</title>
<g id="a_Node000019"><a xlink:href="altera__a10__cdr__pll_8c.html#acd3ba325a22ad7690f934b858087ce25" target="_top" xlink:title="altera_a10_cdr_pll_set_rate">
<polygon fill="white" stroke="#666666" points="627.5,-177.5 521.5,-177.5 521.5,-147.5 627.5,-147.5 627.5,-177.5"/>
<text text-anchor="start" x="529.5" y="-165.5" font-family="Helvetica,sans-Serif" font-size="10.00">altera_a10_cdr_pll</text>
<text text-anchor="middle" x="574.5" y="-154.5" font-family="Helvetica,sans-Serif" font-size="10.00">_set_rate</text>
</a>
</g>
</g>
<!-- Node2&#45;&gt;Node19 -->
<g id="edge18_Node000002_Node000019" class="edge">
<title>Node2&#45;&gt;Node19</title>
<g id="a_edge18_Node000002_Node000019"><a xlink:title=" ">
<path fill="none" stroke="#63b8ff" d="M653.86,-150.04C645.04,-151.45 636.17,-152.86 627.73,-154.2"/>
<polygon fill="#63b8ff" stroke="#63b8ff" points="654.45,-153.5 663.77,-148.47 653.35,-146.58 654.45,-153.5"/>
</a>
</g>
</g>
<!-- Node4 -->
<g id="Node000004" class="node">
<title>Node4</title>
<g id="a_Node000004"><a xlink:href="altera__adxcvr_8c.html#a684db50fe066ad6dd6df4aac1cad609c" target="_top" xlink:title="adxcvr_init">
<polygon fill="white" stroke="#666666" points="479,-148 384,-148 384,-129 479,-129 479,-148"/>
<text text-anchor="middle" x="431.5" y="-136" font-family="Helvetica,sans-Serif" font-size="10.00">adxcvr_set_rate</text>
</a>
</g>
</g>
<!-- Node3&#45;&gt;Node4 -->
<g id="edge3_Node000003_Node000004" class="edge">
<title>Node3&#45;&gt;Node4</title>
<g id="a_edge3_Node000003_Node000004"><a xlink:title=" ">
<path fill="none" stroke="#63b8ff" d="M510.84,-125.16C500.14,-126.99 489.2,-128.85 479.01,-130.58"/>
<polygon fill="#63b8ff" stroke="#63b8ff" points="511.73,-128.57 521,-123.44 510.55,-121.66 511.73,-128.57"/>
</a>
</g>
</g>
<!-- Node17 -->
<g id="Node000017" class="node">
<title>Node17</title>
<g id="a_Node000017"><a xlink:href="altera__a10__atx__pll_8c.html#ac5f5e49c8c41f6c40c74b5afa05d53a1" target="_top" xlink:title="altera_a10_atx_pll_recalc_rate">
<polygon fill="white" stroke="#666666" points="485,-110.5 378,-110.5 378,-80.5 485,-80.5 485,-110.5"/>
<text text-anchor="start" x="386" y="-98.5" font-family="Helvetica,sans-Serif" font-size="10.00">altera_a10_atx_pll</text>
<text text-anchor="middle" x="431.5" y="-87.5" font-family="Helvetica,sans-Serif" font-size="10.00">_recalc_rate</text>
</a>
</g>
</g>
<!-- Node3&#45;&gt;Node17 -->
<g id="edge16_Node000003_Node000017" class="edge">
<title>Node3&#45;&gt;Node17</title>
<g id="a_edge16_Node000003_Node000017"><a xlink:title=" ">
<path fill="none" stroke="#63b8ff" d="M510.95,-106.07C502.3,-104.91 493.49,-103.72 485.05,-102.58"/>
<polygon fill="#63b8ff" stroke="#63b8ff" points="510.62,-109.56 521,-107.43 511.55,-102.62 510.62,-109.56"/>
</a>
</g>
</g>
<!-- Node5 -->
<g id="Node000005" class="node">
<title>Node5</title>
<g id="a_Node000005"><a xlink:href="altera__adxcvr_8c.html#a67ef0bb38e4648e42b5cfa3a7991c49c" target="_top" xlink:title="adxcvr_init">
<polygon fill="white" stroke="#666666" points="323,-148 252,-148 252,-129 323,-129 323,-148"/>
<text text-anchor="middle" x="287.5" y="-136" font-family="Helvetica,sans-Serif" font-size="10.00">adxcvr_init</text>
</a>
</g>
</g>
<!-- Node4&#45;&gt;Node5 -->
<g id="edge4_Node000004_Node000005" class="edge">
<title>Node4&#45;&gt;Node5</title>
<g id="a_edge4_Node000004_Node000005"><a xlink:title=" ">
<path fill="none" stroke="#63b8ff" d="M373.23,-138.5C356.28,-138.5 338.25,-138.5 323.19,-138.5"/>
<polygon fill="#63b8ff" stroke="#63b8ff" points="373.61,-142 383.61,-138.5 373.61,-135 373.61,-142"/>
</a>
</g>
</g>
<!-- Node6 -->
<g id="Node000006" class="node">
<title>Node6</title>
<g id="a_Node000006"><a xlink:href="ad9083_2src_2app__jesd_8c.html#a3fc69d9cce4bef3b10d0ea379c5cbd86" target="_top" xlink:title="Application JESD setup.">
<polygon fill="white" stroke="#666666" points="177.5,-278 96.5,-278 96.5,-259 177.5,-259 177.5,-278"/>
<text text-anchor="middle" x="137" y="-266" font-family="Helvetica,sans-Serif" font-size="10.00">app_jesd_init</text>
</a>
</g>
</g>
<!-- Node5&#45;&gt;Node6 -->
<g id="edge5_Node000005_Node000006" class="edge">
<title>Node5&#45;&gt;Node6</title>
<g id="a_edge5_Node000005_Node000006"><a xlink:title=" ">
<path fill="none" stroke="#63b8ff" d="M242.67,-152.88C239.15,-155.09 235.86,-157.61 233,-160.5 202.68,-191.11 228.72,-221.35 197,-250.5 191.56,-255.5 184.77,-259.11 177.74,-261.72"/>
<polygon fill="#63b8ff" stroke="#63b8ff" points="244.58,-155.83 251.76,-148.04 241.29,-149.66 244.58,-155.83"/>
</a>
</g>
</g>
<!-- Node7 -->
<g id="Node000007" class="node">
<title>Node7</title>
<g id="a_Node000007"><a xlink:href="ad9081_2src_2app__jesd_8c.html#a5ef8f40129d0245e81e1a76cc451d2a6" target="_top" xlink:title="Application JESD setup.">
<polygon fill="white" stroke="#666666" points="177.5,-241 96.5,-241 96.5,-222 177.5,-222 177.5,-241"/>
<text text-anchor="middle" x="137" y="-229" font-family="Helvetica,sans-Serif" font-size="10.00">app_jesd_init</text>
</a>
</g>
</g>
<!-- Node5&#45;&gt;Node7 -->
<g id="edge6_Node000005_Node000007" class="edge">
<title>Node5&#45;&gt;Node7</title>
<g id="a_edge6_Node000005_Node000007"><a xlink:title=" ">
<path fill="none" stroke="#63b8ff" d="M245.37,-152.44C240.98,-154.78 236.75,-157.45 233,-160.5 210.9,-178.45 219.92,-196.61 197,-213.5 191.22,-217.76 184.43,-221.02 177.55,-223.51"/>
<polygon fill="#63b8ff" stroke="#63b8ff" points="246.99,-155.54 254.53,-148.1 244,-149.22 246.99,-155.54"/>
</a>
</g>
</g>
<!-- Node9 -->
<g id="Node000009" class="node">
<title>Node9</title>
<g id="a_Node000009"><a xlink:href="adrv902x_2src_2examples_2basic__example_2basic__example_8c.html#ac5f0064cb4ac7ddab3ec02b10217b456" target="_top" xlink:title="Basic example main execution.">
<polygon fill="white" stroke="#666666" points="197,-204 77,-204 77,-185 197,-185 197,-204"/>
<text text-anchor="middle" x="137" y="-192" font-family="Helvetica,sans-Serif" font-size="10.00">basic_example_main</text>
</a>
</g>
</g>
<!-- Node5&#45;&gt;Node9 -->
<g id="edge8_Node000005_Node000009" class="edge">
<title>Node5&#45;&gt;Node9</title>
<g id="a_edge8_Node000005_Node000009"><a xlink:title=" ">
<path fill="none" stroke="#63b8ff" d="M253.2,-152.02C246.5,-154.79 239.51,-157.71 233,-160.5 216.9,-167.39 213.4,-170.38 197,-176.5 188.97,-179.5 180.2,-182.38 171.93,-184.92"/>
<polygon fill="#63b8ff" stroke="#63b8ff" points="254.82,-155.14 262.74,-148.1 252.16,-148.67 254.82,-155.14"/>
</a>
</g>
</g>
<!-- Node10 -->
<g id="Node000010" class="node">
<title>Node10</title>
<g id="a_Node000010"><a xlink:href="adrv902x_2src_2examples_2dma__example_2dma__example_8c.html#a6fab3c4f8551a0a277a9058ddb0f1914" target="_top" xlink:title="DMA example main execution.">
<polygon fill="white" stroke="#666666" points="195,-167 79,-167 79,-148 195,-148 195,-167"/>
<text text-anchor="middle" x="137" y="-155" font-family="Helvetica,sans-Serif" font-size="10.00">dma_example_main</text>
</a>
</g>
</g>
<!-- Node5&#45;&gt;Node10 -->
<g id="edge9_Node000005_Node000010" class="edge">
<title>Node5&#45;&gt;Node10</title>
<g id="a_edge9_Node000005_Node000010"><a xlink:title=" ">
<path fill="none" stroke="#63b8ff" d="M241.44,-144.26C226.89,-146.13 210.57,-148.22 195.26,-150.17"/>
<polygon fill="#63b8ff" stroke="#63b8ff" points="242.21,-147.7 251.68,-142.95 241.32,-140.75 242.21,-147.7"/>
</a>
</g>
</g>
<!-- Node12 -->
<g id="Node000012" class="node">
<title>Node12</title>
<g id="a_Node000012"><a xlink:href="adrv903x_2src_2examples_2basic__example_2basic__example_8c.html#ac25cbf8ae523e89cb0617e68c98bc697" target="_top" xlink:title="Basic example main function.">
<polygon fill="white" stroke="#666666" points="181.5,-130 92.5,-130 92.5,-111 181.5,-111 181.5,-130"/>
<text text-anchor="middle" x="137" y="-118" font-family="Helvetica,sans-Serif" font-size="10.00">example_main</text>
</a>
</g>
</g>
<!-- Node5&#45;&gt;Node12 -->
<g id="edge11_Node000005_Node000012" class="edge">
<title>Node5&#45;&gt;Node12</title>
<g id="a_edge11_Node000005_Node000012"><a xlink:title=" ">
<path fill="none" stroke="#63b8ff" d="M241.75,-133.08C222.7,-130.77 200.57,-128.08 181.64,-125.79"/>
<polygon fill="#63b8ff" stroke="#63b8ff" points="241.33,-136.55 251.68,-134.28 242.18,-129.6 241.33,-136.55"/>
</a>
</g>
</g>
<!-- Node13 -->
<g id="Node000013" class="node">
<title>Node13</title>
<g id="a_Node000013"><a xlink:href="app__transceiver_8c.html#ab75f92d0fa79151108cc487cd7829c98" target="_top" xlink:title=" ">
<polygon fill="white" stroke="#666666" points="180,-93 94,-93 94,-74 180,-74 180,-93"/>
<text text-anchor="middle" x="137" y="-81" font-family="Helvetica,sans-Serif" font-size="10.00">fpga_xcvr_init</text>
</a>
</g>
</g>
<!-- Node5&#45;&gt;Node13 -->
<g id="edge12_Node000005_Node000013" class="edge">
<title>Node5&#45;&gt;Node13</title>
<g id="a_edge12_Node000005_Node000013"><a xlink:title=" ">
<path fill="none" stroke="#63b8ff" d="M254.42,-124.95C237.46,-117.96 216.22,-109.45 197,-102.5 187.99,-99.24 178.12,-95.95 169.07,-93.05"/>
<polygon fill="#63b8ff" stroke="#63b8ff" points="253.29,-128.27 263.86,-128.88 255.97,-121.81 253.29,-128.27"/>
</a>
</g>
</g>
<!-- Node15 -->
<g id="Node000015" class="node">
<title>Node15</title>
<g id="a_Node000015"><a xlink:href="adrv902x_2src_2examples_2iio__example_2iio__example_8c.html#a692b15b864d48091dc3d7095bea120b4" target="_top" xlink:title="IIO example main execution.">
<polygon fill="white" stroke="#666666" points="190.5,-56 83.5,-56 83.5,-37 190.5,-37 190.5,-56"/>
<text text-anchor="middle" x="137" y="-44" font-family="Helvetica,sans-Serif" font-size="10.00">iio_example_main</text>
</a>
</g>
</g>
<!-- Node5&#45;&gt;Node15 -->
<g id="edge14_Node000005_Node000015" class="edge">
<title>Node5&#45;&gt;Node15</title>
<g id="a_edge14_Node000005_Node000015"><a xlink:title=" ">
<path fill="none" stroke="#63b8ff" d="M270.12,-121.48C253.21,-104.82 225.38,-79.77 197,-64.5 190.87,-61.2 184.05,-58.42 177.28,-56.1"/>
<polygon fill="#63b8ff" stroke="#63b8ff" points="267.96,-124.28 277.49,-128.91 272.93,-119.35 267.96,-124.28"/>
</a>
</g>
</g>
<!-- Node16 -->
<g id="Node000016" class="node">
<title>Node16</title>
<g id="a_Node000016"><a xlink:href="ad6676__ebz_8c.html#a840291bc02cba5474a4cb46a9b9566fe" target="_top" xlink:title="main">
<polygon fill="white" stroke="#666666" points="157.5,-19 116.5,-19 116.5,0 157.5,0 157.5,-19"/>
<text text-anchor="middle" x="137" y="-7" font-family="Helvetica,sans-Serif" font-size="10.00">main</text>
</a>
</g>
</g>
<!-- Node5&#45;&gt;Node16 -->
<g id="edge15_Node000005_Node000016" class="edge">
<title>Node5&#45;&gt;Node16</title>
<g id="a_edge15_Node000005_Node000016"><a xlink:title=" ">
<path fill="none" stroke="#63b8ff" d="M276.46,-120.14C262.05,-95.49 233.22,-51.97 197,-27.5 185.2,-19.53 169.73,-14.98 157.6,-12.45"/>
<polygon fill="#63b8ff" stroke="#63b8ff" points="273.43,-121.9 281.41,-128.87 279.52,-118.44 273.43,-121.9"/>
</a>
</g>
</g>
<!-- Node8 -->
<g id="Node000008" class="node">
<title>Node8</title>
<g id="a_Node000008"><a xlink:href="ad9081_2src_2app_8c.html#a840291bc02cba5474a4cb46a9b9566fe" target="_top" xlink:title=" ">
<polygon fill="white" stroke="#666666" points="41,-241 0,-241 0,-222 41,-222 41,-241"/>
<text text-anchor="middle" x="20.5" y="-229" font-family="Helvetica,sans-Serif" font-size="10.00">main</text>
</a>
</g>
</g>
<!-- Node7&#45;&gt;Node8 -->
<g id="edge7_Node000007_Node000008" class="edge">
<title>Node7&#45;&gt;Node8</title>
<g id="a_edge7_Node000007_Node000008"><a xlink:title=" ">
<path fill="none" stroke="#63b8ff" d="M86.03,-231.5C70.21,-231.5 53.62,-231.5 41.23,-231.5"/>
<polygon fill="#63b8ff" stroke="#63b8ff" points="86.27,-235 96.27,-231.5 86.27,-228 86.27,-235"/>
</a>
</g>
</g>
<!-- Node11 -->
<g id="Node000011" class="node">
<title>Node11</title>
<g id="a_Node000011"><a xlink:href="adrv902x_2src_2platform_2xilinx_2main_8c.html#ae66f6b31b5ad750f1fe042a706a4e3d4" target="_top" xlink:title="Main function execution for XILINX platform.">
<polygon fill="white" stroke="#666666" points="41,-167 0,-167 0,-148 41,-148 41,-167"/>
<text text-anchor="middle" x="20.5" y="-155" font-family="Helvetica,sans-Serif" font-size="10.00">main</text>
</a>
</g>
</g>
<!-- Node10&#45;&gt;Node11 -->
<g id="edge10_Node000010_Node000011" class="edge">
<title>Node10&#45;&gt;Node11</title>
<g id="a_edge10_Node000010_Node000011"><a xlink:title=" ">
<path fill="none" stroke="#63b8ff" d="M68.65,-157.5C58.64,-157.5 49.06,-157.5 41.18,-157.5"/>
<polygon fill="#63b8ff" stroke="#63b8ff" points="68.75,-161 78.75,-157.5 68.75,-154 68.75,-161"/>
</a>
</g>
</g>
<!-- Node14 -->
<g id="Node000014" class="node">
<title>Node14</title>
<g id="a_Node000014"><a xlink:href="headless__arm_8c.html#a840291bc02cba5474a4cb46a9b9566fe" target="_top" xlink:title=" ">
<polygon fill="white" stroke="#666666" points="41,-93 0,-93 0,-74 41,-74 41,-93"/>
<text text-anchor="middle" x="20.5" y="-81" font-family="Helvetica,sans-Serif" font-size="10.00">main</text>
</a>
</g>
</g>
<!-- Node13&#45;&gt;Node14 -->
<g id="edge13_Node000013_Node000014" class="edge">
<title>Node13&#45;&gt;Node14</title>
<g id="a_edge13_Node000013_Node000014"><a xlink:title=" ">
<path fill="none" stroke="#63b8ff" d="M83.41,-83.5C68.4,-83.5 52.95,-83.5 41.24,-83.5"/>
<polygon fill="#63b8ff" stroke="#63b8ff" points="83.69,-87 93.69,-83.5 83.69,-80 83.69,-87"/>
</a>
</g>
</g>
<!-- Node18 -->
<g id="Node000018" class="node">
<title>Node18</title>
<g id="a_Node000018"><a xlink:href="altera__adxcvr_8c.html#ad38d3c03f1f00faab758b63fbaf9794d" target="_top" xlink:title="adxcvr_recalc_rate">
<polygon fill="white" stroke="#666666" points="342,-188 233,-188 233,-169 342,-169 342,-188"/>
<text text-anchor="middle" x="287.5" y="-176" font-family="Helvetica,sans-Serif" font-size="10.00">adxcvr_recalc_rate</text>
</a>
</g>
</g>
<!-- Node17&#45;&gt;Node18 -->
<g id="edge17_Node000017_Node000018" class="edge">
<title>Node17&#45;&gt;Node18</title>
<g id="a_edge17_Node000017_Node000018"><a xlink:title=" ">
<path fill="none" stroke="#63b8ff" d="M385.76,-115.42C383.07,-117.04 380.46,-118.73 378,-120.5 359.35,-133.86 361.11,-144.8 342,-157.5 335.1,-162.08 327.05,-165.9 319.33,-168.97"/>
<polygon fill="#63b8ff" stroke="#63b8ff" points="387.49,-118.46 394.51,-110.53 384.07,-112.35 387.49,-118.46"/>
</a>
</g>
</g>
<!-- Node19&#45;&gt;Node4 -->
<g id="edge19_Node000019_Node000004" class="edge">
<title>Node19&#45;&gt;Node4</title>
<g id="a_edge19_Node000019_Node000004"><a xlink:title=" ">
<path fill="none" stroke="#63b8ff" d="M511.22,-151.9C500.49,-150.07 489.5,-148.2 479.27,-146.46"/>
<polygon fill="#63b8ff" stroke="#63b8ff" points="510.95,-155.4 521.4,-153.63 512.13,-148.5 510.95,-155.4"/>
</a>
</g>
</g>
<!-- Node20 -->
<g id="Node000020" class="node">
<title>Node20</title>
<g id="a_Node000020"><a xlink:href="altera__a10__cdr__pll_8c.html#ae16cfdb6dcf52acfad2cd4480144d642" target="_top" xlink:title="altera_a10_cdr_pll_recalc_rate">
<polygon fill="white" stroke="#666666" points="484.5,-196.5 378.5,-196.5 378.5,-166.5 484.5,-166.5 484.5,-196.5"/>
<text text-anchor="start" x="386.5" y="-184.5" font-family="Helvetica,sans-Serif" font-size="10.00">altera_a10_cdr_pll</text>
<text text-anchor="middle" x="431.5" y="-173.5" font-family="Helvetica,sans-Serif" font-size="10.00">_recalc_rate</text>
</a>
</g>
</g>
<!-- Node19&#45;&gt;Node20 -->
<g id="edge20_Node000019_Node000020" class="edge">
<title>Node19&#45;&gt;Node20</title>
<g id="a_edge20_Node000019_Node000020"><a xlink:title=" ">
<path fill="none" stroke="#63b8ff" d="M511.48,-170.86C502.59,-172.05 493.53,-173.28 484.86,-174.44"/>
<polygon fill="#63b8ff" stroke="#63b8ff" points="511.95,-174.33 521.4,-169.52 511.02,-167.39 511.95,-174.33"/>
</a>
</g>
</g>
<!-- Node20&#45;&gt;Node18 -->
<g id="edge21_Node000020_Node000018" class="edge">
<title>Node20&#45;&gt;Node18</title>
<g id="a_edge21_Node000020_Node000018"><a xlink:title=" ">
<path fill="none" stroke="#63b8ff" d="M368.4,-180.19C359.76,-180.01 350.94,-179.82 342.47,-179.64"/>
<polygon fill="#63b8ff" stroke="#63b8ff" points="368.36,-183.69 378.43,-180.4 368.51,-176.69 368.36,-183.69"/>
</a>
</g>
</g>
</g>
</svg>
