<?xml version="1.0" encoding="UTF-8" standalone="no"?>
<!DOCTYPE svg PUBLIC "-//W3C//DTD SVG 1.1//EN"
 "http://www.w3.org/Graphics/SVG/1.1/DTD/svg11.dtd">
<!-- Generated by graphviz version 2.43.0 (0)
 -->
<!-- Title: projects/apard32690/src/common/common_data.h Pages: 1 -->
<svg width="614pt" height="203pt"
 viewBox="0.00 0.00 614.30 203.00" xmlns="http://www.w3.org/2000/svg" xmlns:xlink="http://www.w3.org/1999/xlink">
<g id="graph0" class="graph" transform="scale(1 1) rotate(0) translate(4 199)">
<title>projects/apard32690/src/common/common_data.h</title>
<!-- Node1 -->
<g id="Node000001" class="node">
<title>Node1</title>
<g id="a_Node000001"><a xlink:title="Defines common data to be used by all examples.">
<polygon fill="#999999" stroke="#666666" points="368.8,-195 207.8,-195 207.8,-165 368.8,-165 368.8,-195"/>
<text text-anchor="start" x="215.8" y="-183" font-family="Helvetica,sans-Serif" font-size="10.00">projects/apard32690</text>
<text text-anchor="middle" x="288.3" y="-172" font-family="Helvetica,sans-Serif" font-size="10.00">/src/common/common_data.h</text>
</a>
</g>
</g>
<!-- Node2 -->
<g id="Node000002" class="node">
<title>Node2</title>
<g id="a_Node000002"><a xlink:href="no__os__uart_8h.html" target="_top" xlink:title="Header file of UART interface.">
<polygon fill="white" stroke="#666666" points="120.8,-129 41.8,-129 41.8,-110 120.8,-110 120.8,-129"/>
<text text-anchor="middle" x="81.3" y="-117" font-family="Helvetica,sans-Serif" font-size="10.00">no_os_uart.h</text>
</a>
</g>
</g>
<!-- Node1&#45;&gt;Node2 -->
<g id="edge1_Node000001_Node000002" class="edge">
<title>Node1&#45;&gt;Node2</title>
<g id="a_edge1_Node000001_Node000002"><a xlink:title=" ">
<path fill="none" stroke="#63b8ff" d="M238.72,-164.99C202.84,-154.85 154.97,-141.32 121.47,-131.85"/>
<polygon fill="#63b8ff" stroke="#63b8ff" points="122.14,-128.41 111.57,-129.05 120.24,-135.14 122.14,-128.41"/>
</a>
</g>
</g>
<!-- Node7 -->
<g id="Node000007" class="node">
<title>Node7</title>
<g id="a_Node000007"><a xlink:href="no__os__util_8h.html" target="_top" xlink:title="Header file of utility functions.">
<polygon fill="white" stroke="#666666" points="205.8,-74 130.8,-74 130.8,-55 205.8,-55 205.8,-74"/>
<text text-anchor="middle" x="168.3" y="-62" font-family="Helvetica,sans-Serif" font-size="10.00">no_os_util.h</text>
</a>
</g>
</g>
<!-- Node1&#45;&gt;Node7 -->
<g id="edge8_Node000001_Node000007" class="edge">
<title>Node1&#45;&gt;Node7</title>
<g id="a_edge8_Node000001_Node000007"><a xlink:title=" ">
<path fill="none" stroke="#63b8ff" d="M230.83,-164.98C211.35,-157.43 191.25,-146.03 178.3,-129 168.69,-116.37 166.67,-98.18 166.78,-84.5"/>
<polygon fill="#63b8ff" stroke="#63b8ff" points="170.28,-84.45 167.24,-74.3 163.29,-84.13 170.28,-84.45"/>
</a>
</g>
</g>
<!-- Node8 -->
<g id="Node000008" class="node">
<title>Node8</title>
<g id="a_Node000008"><a xlink:title=" ">
<polygon fill="#e0e0e0" stroke="#999999" points="271.8,-129 186.8,-129 186.8,-110 271.8,-110 271.8,-129"/>
<text text-anchor="middle" x="229.3" y="-117" font-family="Helvetica,sans-Serif" font-size="10.00">maxim_uart.h</text>
</a>
</g>
</g>
<!-- Node1&#45;&gt;Node8 -->
<g id="edge12_Node000001_Node000008" class="edge">
<title>Node1&#45;&gt;Node8</title>
<g id="a_edge12_Node000001_Node000008"><a xlink:title=" ">
<path fill="none" stroke="#63b8ff" d="M274.02,-164.84C265.37,-156.26 254.31,-145.3 245.36,-136.42"/>
<polygon fill="#63b8ff" stroke="#63b8ff" points="247.71,-133.82 238.14,-129.27 242.78,-138.79 247.71,-133.82"/>
</a>
</g>
</g>
<!-- Node9 -->
<g id="Node000009" class="node">
<title>Node9</title>
<g id="a_Node000009"><a xlink:title=" ">
<polygon fill="#e0e0e0" stroke="#999999" points="404.3,-129 290.3,-129 290.3,-110 404.3,-110 404.3,-129"/>
<text text-anchor="middle" x="347.3" y="-117" font-family="Helvetica,sans-Serif" font-size="10.00">maxim_uart_stdio.h</text>
</a>
</g>
</g>
<!-- Node1&#45;&gt;Node9 -->
<g id="edge13_Node000001_Node000009" class="edge">
<title>Node1&#45;&gt;Node9</title>
<g id="a_edge13_Node000001_Node000009"><a xlink:title=" ">
<path fill="none" stroke="#63b8ff" d="M302.58,-164.84C311.23,-156.26 322.29,-145.3 331.25,-136.42"/>
<polygon fill="#63b8ff" stroke="#63b8ff" points="333.82,-138.79 338.46,-129.27 328.89,-133.82 333.82,-138.79"/>
</a>
</g>
</g>
<!-- Node10 -->
<g id="Node000010" class="node">
<title>Node10</title>
<g id="a_Node000010"><a xlink:title=" ">
<polygon fill="#e0e0e0" stroke="#999999" points="508.3,-129 422.3,-129 422.3,-110 508.3,-110 508.3,-129"/>
<text text-anchor="middle" x="465.3" y="-117" font-family="Helvetica,sans-Serif" font-size="10.00">maxim_gpio.h</text>
</a>
</g>
</g>
<!-- Node1&#45;&gt;Node10 -->
<g id="edge14_Node000001_Node000010" class="edge">
<title>Node1&#45;&gt;Node10</title>
<g id="a_edge14_Node000001_Node000010"><a xlink:title=" ">
<path fill="none" stroke="#63b8ff" d="M330.7,-164.99C360.98,-154.98 401.25,-141.67 429.83,-132.22"/>
<polygon fill="#63b8ff" stroke="#63b8ff" points="431.02,-135.52 439.42,-129.05 428.83,-128.87 431.02,-135.52"/>
</a>
</g>
</g>
<!-- Node11 -->
<g id="Node000011" class="node">
<title>Node11</title>
<g id="a_Node000011"><a xlink:title=" ">
<polygon fill="#e0e0e0" stroke="#999999" points="606.3,-129 526.3,-129 526.3,-110 606.3,-110 606.3,-129"/>
<text text-anchor="middle" x="566.3" y="-117" font-family="Helvetica,sans-Serif" font-size="10.00">maxim_spi.h</text>
</a>
</g>
</g>
<!-- Node1&#45;&gt;Node11 -->
<g id="edge15_Node000001_Node000011" class="edge">
<title>Node1&#45;&gt;Node11</title>
<g id="a_edge15_Node000001_Node000011"><a xlink:title=" ">
<path fill="none" stroke="#63b8ff" d="M354.89,-164.99C404.47,-154.55 471.1,-140.53 516.21,-131.04"/>
<polygon fill="#63b8ff" stroke="#63b8ff" points="516.99,-134.45 526.06,-128.97 515.55,-127.6 516.99,-134.45"/>
</a>
</g>
</g>
<!-- Node3 -->
<g id="Node000003" class="node">
<title>Node3</title>
<g id="a_Node000003"><a xlink:title=" ">
<polygon fill="#e0e0e0" stroke="#999999" points="214.8,-19 161.8,-19 161.8,0 214.8,0 214.8,-19"/>
<text text-anchor="middle" x="188.3" y="-7" font-family="Helvetica,sans-Serif" font-size="10.00">stdint.h</text>
</a>
</g>
</g>
<!-- Node2&#45;&gt;Node3 -->
<g id="edge2_Node000002_Node000003" class="edge">
<title>Node2&#45;&gt;Node3</title>
<g id="a_edge2_Node000002_Node000003"><a xlink:title=" ">
<path fill="none" stroke="#63b8ff" d="M121.1,-117.04C152.08,-113.55 193.25,-103.25 214.3,-74 224.58,-59.72 214.35,-40.79 203.85,-27.32"/>
<polygon fill="#63b8ff" stroke="#63b8ff" points="206.25,-24.74 197.13,-19.37 200.91,-29.26 206.25,-24.74"/>
</a>
</g>
</g>
<!-- Node4 -->
<g id="Node000004" class="node">
<title>Node4</title>
<g id="a_Node000004"><a xlink:title=" ">
<polygon fill="#e0e0e0" stroke="#999999" points="72.3,-19 10.3,-19 10.3,0 72.3,0 72.3,-19"/>
<text text-anchor="middle" x="41.3" y="-7" font-family="Helvetica,sans-Serif" font-size="10.00">stdbool.h</text>
</a>
</g>
</g>
<!-- Node2&#45;&gt;Node4 -->
<g id="edge3_Node000002_Node000004" class="edge">
<title>Node2&#45;&gt;Node4</title>
<g id="a_edge3_Node000002_Node000004"><a xlink:title=" ">
<path fill="none" stroke="#63b8ff" d="M51.8,-109.97C34.36,-103.24 13.71,-91.93 3.3,-74 -6.3,-57.47 8.1,-38.7 21.84,-25.88"/>
<polygon fill="#63b8ff" stroke="#63b8ff" points="24.41,-28.28 29.67,-19.09 19.82,-23 24.41,-28.28"/>
</a>
</g>
</g>
<!-- Node5 -->
<g id="Node000005" class="node">
<title>Node5</title>
<g id="a_Node000005"><a xlink:href="no__os__lf256fifo_8h.html" target="_top" xlink:title="SPSC lock&#45;free fifo of fixed size (256), specialized for UART.">
<polygon fill="white" stroke="#666666" points="112.3,-74 12.3,-74 12.3,-55 112.3,-55 112.3,-74"/>
<text text-anchor="middle" x="62.3" y="-62" font-family="Helvetica,sans-Serif" font-size="10.00">no_os_lf256fifo.h</text>
</a>
</g>
</g>
<!-- Node2&#45;&gt;Node5 -->
<g id="edge4_Node000002_Node000005" class="edge">
<title>Node2&#45;&gt;Node5</title>
<g id="a_edge4_Node000002_Node000005"><a xlink:title=" ">
<path fill="none" stroke="#63b8ff" d="M78.16,-109.75C75.62,-102.65 71.94,-92.4 68.77,-83.56"/>
<polygon fill="#63b8ff" stroke="#63b8ff" points="72.05,-82.32 65.38,-74.09 65.46,-84.68 72.05,-82.32"/>
</a>
</g>
</g>
<!-- Node5&#45;&gt;Node3 -->
<g id="edge6_Node000005_Node000003" class="edge">
<title>Node5&#45;&gt;Node3</title>
<g id="a_edge6_Node000005_Node000003"><a xlink:title=" ">
<path fill="none" stroke="#63b8ff" d="M82.54,-54.98C103,-46.38 134.83,-32.99 158.23,-23.15"/>
<polygon fill="#63b8ff" stroke="#63b8ff" points="159.83,-26.27 167.69,-19.17 157.11,-19.82 159.83,-26.27"/>
</a>
</g>
</g>
<!-- Node5&#45;&gt;Node4 -->
<g id="edge7_Node000005_Node000004" class="edge">
<title>Node5&#45;&gt;Node4</title>
<g id="a_edge7_Node000005_Node000004"><a xlink:title=" ">
<path fill="none" stroke="#63b8ff" d="M58.83,-54.75C56.02,-47.65 51.96,-37.4 48.45,-28.56"/>
<polygon fill="#63b8ff" stroke="#63b8ff" points="51.64,-27.1 44.7,-19.09 45.13,-29.68 51.64,-27.1"/>
</a>
</g>
</g>
<!-- Node6 -->
<g id="Node000006" class="node">
<title>Node6</title>
<g id="a_Node000006"><a xlink:title=" ">
<polygon fill="#e0e0e0" stroke="#999999" points="143.8,-19 90.8,-19 90.8,0 143.8,0 143.8,-19"/>
<text text-anchor="middle" x="117.3" y="-7" font-family="Helvetica,sans-Serif" font-size="10.00">stdlib.h</text>
</a>
</g>
</g>
<!-- Node5&#45;&gt;Node6 -->
<g id="edge5_Node000005_Node000006" class="edge">
<title>Node5&#45;&gt;Node6</title>
<g id="a_edge5_Node000005_Node000006"><a xlink:title=" ">
<path fill="none" stroke="#63b8ff" d="M71.38,-54.75C79.39,-47.03 91.26,-35.6 100.92,-26.28"/>
<polygon fill="#63b8ff" stroke="#63b8ff" points="103.62,-28.55 108.39,-19.09 98.76,-23.51 103.62,-28.55"/>
</a>
</g>
</g>
<!-- Node7&#45;&gt;Node3 -->
<g id="edge9_Node000007_Node000003" class="edge">
<title>Node7&#45;&gt;Node3</title>
<g id="a_edge9_Node000007_Node000003"><a xlink:title=" ">
<path fill="none" stroke="#63b8ff" d="M171.6,-54.75C174.28,-47.65 178.15,-37.4 181.49,-28.56"/>
<polygon fill="#63b8ff" stroke="#63b8ff" points="184.8,-29.68 185.06,-19.09 178.25,-27.21 184.8,-29.68"/>
</a>
</g>
</g>
<!-- Node7&#45;&gt;Node4 -->
<g id="edge11_Node000007_Node000004" class="edge">
<title>Node7&#45;&gt;Node4</title>
<g id="a_edge11_Node000007_Node000004"><a xlink:title=" ">
<path fill="none" stroke="#63b8ff" d="M147.9,-54.98C127.28,-46.38 95.19,-32.99 71.61,-23.15"/>
<polygon fill="#63b8ff" stroke="#63b8ff" points="72.65,-19.79 62.08,-19.17 69.96,-26.25 72.65,-19.79"/>
</a>
</g>
</g>
<!-- Node7&#45;&gt;Node6 -->
<g id="edge10_Node000007_Node000006" class="edge">
<title>Node7&#45;&gt;Node6</title>
<g id="a_edge10_Node000007_Node000006"><a xlink:title=" ">
<path fill="none" stroke="#63b8ff" d="M159.88,-54.75C152.53,-47.11 141.67,-35.82 132.76,-26.56"/>
<polygon fill="#63b8ff" stroke="#63b8ff" points="135.02,-23.87 125.57,-19.09 129.98,-28.72 135.02,-23.87"/>
</a>
</g>
</g>
</g>
</svg>
