<?xml version="1.0" encoding="UTF-8" standalone="no"?>
<!DOCTYPE svg PUBLIC "-//W3C//DTD SVG 1.1//EN"
 "http://www.w3.org/Graphics/SVG/1.1/DTD/svg11.dtd">
<!-- Generated by graphviz version 2.43.0 (0)
 -->
<!-- Title: projects/ad9081/src/app_clock.c Pages: 1 -->
<!--zoomable 203 -->

<svg id="main" version="1.1" xmlns="http://www.w3.org/2000/svg" xmlns:xlink="http://www.w3.org/1999/xlink" xml:space="preserve" onload="init(evt)">

<style type="text/css"><![CDATA[
.node, .edge {opacity: 0.7;}
.node.selected, .edge.selected {opacity: 1;}
.edge:hover path { stroke: red; }
.edge:hover polygon { stroke: red; fill: red; }
]]></style>

<defs>
  <circle id="rim" cx="0" cy="0" r="7"/>
  <circle id="rim2" cx="0" cy="0" r="3.5"/>
  <g id="zoomPlus">
    <use xlink:href="#rim" fill="#404040"><set attributeName="fill" to="#808080" begin="zoomplus.mouseover" end="zoomplus.mouseout"/></use>
    <path d="M-4,0h8M0,-4v8" fill="none" stroke="white" stroke-width="1.5" pointer-events="none"/>
  </g>
  <g id="zoomMin">
    <use xlink:href="#rim" fill="#404040"><set attributeName="fill" to="#808080" begin="zoomminus.mouseover" end="zoomminus.mouseout"/></use>
    <path d="M-4,0h8" fill="none" stroke="white" stroke-width="1.5" pointer-events="none"/>
  </g>
  <g id="arrowUp" transform="translate(30 24)">
    <use xlink:href="#rim"/>
    <path pointer-events="none" fill="none" stroke="white" stroke-width="1.5" d="M0,-3.0v7 M-2.5,-0.5L0,-3.0L2.5,-0.5"/>
  </g>
  <g id="arrowRight" transform="rotate(90) translate(36 -43)">
    <use xlink:href="#rim"/>
    <path pointer-events="none" fill="none" stroke="white" stroke-width="1.5" d="M0,-3.0v7 M-2.5,-0.5L0,-3.0L2.5,-0.5"/>
  </g>
  <g id="arrowDown" transform="rotate(180) translate(-30 -48)">
    <use xlink:href="#rim"/>
    <path pointer-events="none" fill="none" stroke="white" stroke-width="1.5" d="M0,-3.0v7 M-2.5,-0.5L0,-3.0L2.5,-0.5"/>
  </g>
  <g id="arrowLeft" transform="rotate(270) translate(-36 17)">
    <use xlink:href="#rim"/>
    <path pointer-events="none" fill="none" stroke="white" stroke-width="1.5" d="M0,-3.0v7 M-2.5,-0.5L0,-3.0L2.5,-0.5"/>
  </g>
  <g id="resetDef">
    <use xlink:href="#rim2" fill="#404040"><set attributeName="fill" to="#808080" begin="reset.mouseover" end="reset.mouseout"/></use>
  </g>
</defs>
<script type="application/ecmascript">
var viewWidth = 744;
var viewHeight = 203;
var sectionId = 'dynsection-0';
</script>
<script type="application/ecmascript" xlink:href="svg.min.js"/>
<svg id="graph" class="graph">
<g id="viewport">
<title>projects/ad9081/src/app_clock.c</title>
<!-- Node1 -->
<g id="Node000001" class="node">
<title>Node1</title>
<g id="a_Node000001"><a xlink:title="Application clocks initialization.">
<polygon fill="#999999" stroke="#666666" points="425,-195 313,-195 313,-165 425,-165 425,-195"/>
<text text-anchor="start" x="321" y="-183" font-family="Helvetica,sans-Serif" font-size="10.00">projects/ad9081/src</text>
<text text-anchor="middle" x="369" y="-172" font-family="Helvetica,sans-Serif" font-size="10.00">/app_clock.c</text>
</a>
</g>
</g>
<!-- Node2 -->
<g id="Node000002" class="node">
<title>Node2</title>
<g id="a_Node000002"><a xlink:href="no__os__spi_8h.html" target="_top" xlink:title="Header file of SPI Interface.">
<polygon fill="white" stroke="#666666" points="338,-74 264,-74 264,-55 338,-55 338,-74"/>
<text text-anchor="middle" x="301" y="-62" font-family="Helvetica,sans-Serif" font-size="10.00">no_os_spi.h</text>
</a>
</g>
</g>
<!-- Node1&#45;&gt;Node2 -->
<g id="edge1_Node000001_Node000002" class="edge">
<title>Node1&#45;&gt;Node2</title>
<g id="a_edge1_Node000001_Node000002"><a xlink:title=" ">
<path fill="none" stroke="#63b8ff" d="M360.39,-164.63C347.94,-143.84 324.93,-105.44 311.5,-83.02"/>
<polygon fill="#63b8ff" stroke="#63b8ff" points="314.37,-81.01 306.23,-74.23 308.37,-84.61 314.37,-81.01"/>
</a>
</g>
</g>
<!-- Node4 -->
<g id="Node000004" class="node">
<title>Node4</title>
<g id="a_Node000004"><a xlink:href="xilinx__spi_8h.html" target="_top" xlink:title=" ">
<polygon fill="white" stroke="#666666" points="309,-129 237,-129 237,-110 309,-110 309,-129"/>
<text text-anchor="middle" x="273" y="-117" font-family="Helvetica,sans-Serif" font-size="10.00">xilinx_spi.h</text>
</a>
</g>
</g>
<!-- Node1&#45;&gt;Node4 -->
<g id="edge3_Node000001_Node000004" class="edge">
<title>Node1&#45;&gt;Node4</title>
<g id="a_edge3_Node000001_Node000004"><a xlink:title=" ">
<path fill="none" stroke="#63b8ff" d="M345.76,-164.84C330.6,-155.6 310.89,-143.59 295.81,-134.4"/>
<polygon fill="#63b8ff" stroke="#63b8ff" points="297.46,-131.31 287.1,-129.09 293.82,-137.29 297.46,-131.31"/>
</a>
</g>
</g>
<!-- Node5 -->
<g id="Node000005" class="node">
<title>Node5</title>
<g id="a_Node000005"><a xlink:href="hmc7044_8h.html" target="_top" xlink:title="Header file of HMC7044, HMC7043 Driver.">
<polygon fill="white" stroke="#666666" points="436.5,-129 365.5,-129 365.5,-110 436.5,-110 436.5,-129"/>
<text text-anchor="middle" x="401" y="-117" font-family="Helvetica,sans-Serif" font-size="10.00">hmc7044.h</text>
</a>
</g>
</g>
<!-- Node1&#45;&gt;Node5 -->
<g id="edge6_Node000001_Node000005" class="edge">
<title>Node1&#45;&gt;Node5</title>
<g id="a_edge6_Node000001_Node000005"><a xlink:title=" ">
<path fill="none" stroke="#63b8ff" d="M376.75,-164.84C381.15,-156.78 386.71,-146.62 391.4,-138.06"/>
<polygon fill="#63b8ff" stroke="#63b8ff" points="394.48,-139.72 396.2,-129.27 388.34,-136.36 394.48,-139.72"/>
</a>
</g>
</g>
<!-- Node8 -->
<g id="Node000008" class="node">
<title>Node8</title>
<g id="a_Node000008"><a xlink:href="no__os__error_8h.html" target="_top" xlink:title="Error codes definition.">
<polygon fill="white" stroke="#666666" points="592,-129 510,-129 510,-110 592,-110 592,-129"/>
<text text-anchor="middle" x="551" y="-117" font-family="Helvetica,sans-Serif" font-size="10.00">no_os_error.h</text>
</a>
</g>
</g>
<!-- Node1&#45;&gt;Node8 -->
<g id="edge12_Node000001_Node000008" class="edge">
<title>Node1&#45;&gt;Node8</title>
<g id="a_edge12_Node000001_Node000008"><a xlink:title=" ">
<path fill="none" stroke="#63b8ff" d="M412.59,-164.99C443.73,-154.98 485.14,-141.67 514.53,-132.22"/>
<polygon fill="#63b8ff" stroke="#63b8ff" points="515.94,-135.45 524.39,-129.05 513.8,-128.78 515.94,-135.45"/>
</a>
</g>
</g>
<!-- Node10 -->
<g id="Node000010" class="node">
<title>Node10</title>
<g id="a_Node000010"><a xlink:href="ad9081_2src_2parameters_8h.html" target="_top" xlink:title="Application parameters.">
<polygon fill="white" stroke="#666666" points="719,-129 637,-129 637,-110 719,-110 719,-129"/>
<text text-anchor="middle" x="678" y="-117" font-family="Helvetica,sans-Serif" font-size="10.00">parameters.h</text>
</a>
</g>
</g>
<!-- Node1&#45;&gt;Node10 -->
<g id="edge14_Node000001_Node000010" class="edge">
<title>Node1&#45;&gt;Node10</title>
<g id="a_edge14_Node000001_Node000010"><a xlink:title=" ">
<path fill="none" stroke="#63b8ff" d="M425.32,-168.34C482.84,-157.45 571.36,-140.69 626.91,-130.17"/>
<polygon fill="#63b8ff" stroke="#63b8ff" points="627.71,-133.58 636.88,-128.28 626.41,-126.71 627.71,-133.58"/>
</a>
</g>
</g>
<!-- Node12 -->
<g id="Node000012" class="node">
<title>Node12</title>
<g id="a_Node000012"><a xlink:href="app__clock_8h.html" target="_top" xlink:title="Application clocks initialization.">
<polygon fill="white" stroke="#666666" points="186,-129 112,-129 112,-110 186,-110 186,-129"/>
<text text-anchor="middle" x="149" y="-117" font-family="Helvetica,sans-Serif" font-size="10.00">app_clock.h</text>
</a>
</g>
</g>
<!-- Node1&#45;&gt;Node12 -->
<g id="edge16_Node000001_Node000012" class="edge">
<title>Node1&#45;&gt;Node12</title>
<g id="a_edge16_Node000001_Node000012"><a xlink:title=" ">
<path fill="none" stroke="#63b8ff" d="M316.3,-164.99C278.01,-154.8 226.86,-141.2 191.23,-131.73"/>
<polygon fill="#63b8ff" stroke="#63b8ff" points="191.73,-128.24 181.17,-129.05 189.93,-135.01 191.73,-128.24"/>
</a>
</g>
</g>
<!-- Node3 -->
<g id="Node000003" class="node">
<title>Node3</title>
<g id="a_Node000003"><a xlink:title=" ">
<polygon fill="#e0e0e0" stroke="#999999" points="294.5,-19 241.5,-19 241.5,0 294.5,0 294.5,-19"/>
<text text-anchor="middle" x="268" y="-7" font-family="Helvetica,sans-Serif" font-size="10.00">stdint.h</text>
</a>
</g>
</g>
<!-- Node2&#45;&gt;Node3 -->
<g id="edge2_Node000002_Node000003" class="edge">
<title>Node2&#45;&gt;Node3</title>
<g id="a_edge2_Node000002_Node000003"><a xlink:title=" ">
<path fill="none" stroke="#63b8ff" d="M295.55,-54.75C290.99,-47.42 284.33,-36.73 278.71,-27.7"/>
<polygon fill="#63b8ff" stroke="#63b8ff" points="281.6,-25.73 273.35,-19.09 275.66,-29.43 281.6,-25.73"/>
</a>
</g>
</g>
<!-- Node4&#45;&gt;Node2 -->
<g id="edge5_Node000004_Node000002" class="edge">
<title>Node4&#45;&gt;Node2</title>
<g id="a_edge5_Node000004_Node000002"><a xlink:title=" ">
<path fill="none" stroke="#63b8ff" d="M277.62,-109.75C281.46,-102.49 287.02,-91.95 291.76,-82.98"/>
<polygon fill="#63b8ff" stroke="#63b8ff" points="294.89,-84.57 296.46,-74.09 288.7,-81.3 294.89,-84.57"/>
</a>
</g>
</g>
<!-- Node4&#45;&gt;Node3 -->
<g id="edge4_Node000004_Node000003" class="edge">
<title>Node4&#45;&gt;Node3</title>
<g id="a_edge4_Node000004_Node000003"><a xlink:title=" ">
<path fill="none" stroke="#63b8ff" d="M268.38,-109.94C263.94,-101.2 257.55,-87.09 255,-74 252.01,-58.64 256.11,-41.23 260.47,-28.53"/>
<polygon fill="#63b8ff" stroke="#63b8ff" points="263.77,-29.71 264.05,-19.12 257.22,-27.22 263.77,-29.71"/>
</a>
</g>
</g>
<!-- Node5&#45;&gt;Node2 -->
<g id="edge11_Node000005_Node000002" class="edge">
<title>Node5&#45;&gt;Node2</title>
<g id="a_edge11_Node000005_Node000002"><a xlink:title=" ">
<path fill="none" stroke="#63b8ff" d="M384.93,-109.98C369.14,-101.61 344.78,-88.7 326.37,-78.95"/>
<polygon fill="#63b8ff" stroke="#63b8ff" points="327.83,-75.76 317.36,-74.17 324.56,-81.95 327.83,-75.76"/>
</a>
</g>
</g>
<!-- Node5&#45;&gt;Node3 -->
<g id="edge8_Node000005_Node000003" class="edge">
<title>Node5&#45;&gt;Node3</title>
<g id="a_edge8_Node000005_Node000003"><a xlink:title=" ">
<path fill="none" stroke="#63b8ff" d="M436.82,-113.99C484.27,-106.58 558.83,-89.14 530,-55 501.66,-21.44 370.55,-13.19 305.21,-11.16"/>
<polygon fill="#63b8ff" stroke="#63b8ff" points="305.03,-7.65 294.94,-10.87 304.84,-14.65 305.03,-7.65"/>
</a>
</g>
</g>
<!-- Node6 -->
<g id="Node000006" class="node">
<title>Node6</title>
<g id="a_Node000006"><a xlink:title=" ">
<polygon fill="#e0e0e0" stroke="#999999" points="418,-74 356,-74 356,-55 418,-55 418,-74"/>
<text text-anchor="middle" x="387" y="-62" font-family="Helvetica,sans-Serif" font-size="10.00">stdbool.h</text>
</a>
</g>
</g>
<!-- Node5&#45;&gt;Node6 -->
<g id="edge7_Node000005_Node000006" class="edge">
<title>Node5&#45;&gt;Node6</title>
<g id="a_edge7_Node000005_Node000006"><a xlink:title=" ">
<path fill="none" stroke="#63b8ff" d="M398.69,-109.75C396.83,-102.72 394.16,-92.62 391.85,-83.84"/>
<polygon fill="#63b8ff" stroke="#63b8ff" points="395.21,-82.86 389.27,-74.09 388.44,-84.65 395.21,-82.86"/>
</a>
</g>
</g>
<!-- Node7 -->
<g id="Node000007" class="node">
<title>Node7</title>
<g id="a_Node000007"><a xlink:href="no__os__delay_8h.html" target="_top" xlink:title="Header file of Delay functions.">
<polygon fill="white" stroke="#666666" points="521.5,-74 436.5,-74 436.5,-55 521.5,-55 521.5,-74"/>
<text text-anchor="middle" x="479" y="-62" font-family="Helvetica,sans-Serif" font-size="10.00">no_os_delay.h</text>
</a>
</g>
</g>
<!-- Node5&#45;&gt;Node7 -->
<g id="edge9_Node000005_Node000007" class="edge">
<title>Node5&#45;&gt;Node7</title>
<g id="a_edge9_Node000005_Node000007"><a xlink:title=" ">
<path fill="none" stroke="#63b8ff" d="M413.53,-109.98C425.4,-101.92 443.46,-89.65 457.61,-80.03"/>
<polygon fill="#63b8ff" stroke="#63b8ff" points="459.94,-82.69 466.24,-74.17 456,-76.9 459.94,-82.69"/>
</a>
</g>
</g>
<!-- Node7&#45;&gt;Node3 -->
<g id="edge10_Node000007_Node000003" class="edge">
<title>Node7&#45;&gt;Node3</title>
<g id="a_edge10_Node000007_Node000003"><a xlink:title=" ">
<path fill="none" stroke="#63b8ff" d="M445.1,-54.98C406.63,-45.32 344.1,-29.62 304.56,-19.68"/>
<polygon fill="#63b8ff" stroke="#63b8ff" points="305.34,-16.27 294.79,-17.23 303.63,-23.06 305.34,-16.27"/>
</a>
</g>
</g>
<!-- Node9 -->
<g id="Node000009" class="node">
<title>Node9</title>
<g id="a_Node000009"><a xlink:href="errno_8h.html" target="_top" xlink:title="Error macro definition for ARM Compiler.">
<polygon fill="white" stroke="#666666" points="629.5,-74 578.5,-74 578.5,-55 629.5,-55 629.5,-74"/>
<text text-anchor="middle" x="604" y="-62" font-family="Helvetica,sans-Serif" font-size="10.00">errno.h</text>
</a>
</g>
</g>
<!-- Node8&#45;&gt;Node9 -->
<g id="edge13_Node000008_Node000009" class="edge">
<title>Node8&#45;&gt;Node9</title>
<g id="a_edge13_Node000008_Node000009"><a xlink:title=" ">
<path fill="none" stroke="#63b8ff" d="M559.75,-109.75C567.47,-102.03 578.9,-90.6 588.22,-81.28"/>
<polygon fill="#63b8ff" stroke="#63b8ff" points="590.81,-83.64 595.41,-74.09 585.86,-78.69 590.81,-83.64"/>
</a>
</g>
</g>
<!-- Node11 -->
<g id="Node000011" class="node">
<title>Node11</title>
<g id="a_Node000011"><a xlink:title=" ">
<polygon fill="#e0e0e0" stroke="#999999" points="736,-74 648,-74 648,-55 736,-55 736,-74"/>
<text text-anchor="middle" x="692" y="-62" font-family="Helvetica,sans-Serif" font-size="10.00">xparameters.h</text>
</a>
</g>
</g>
<!-- Node10&#45;&gt;Node11 -->
<g id="edge15_Node000010_Node000011" class="edge">
<title>Node10&#45;&gt;Node11</title>
<g id="a_edge15_Node000010_Node000011"><a xlink:title=" ">
<path fill="none" stroke="#63b8ff" d="M680.31,-109.75C682.17,-102.72 684.84,-92.62 687.15,-83.84"/>
<polygon fill="#63b8ff" stroke="#63b8ff" points="690.56,-84.65 689.73,-74.09 683.79,-82.86 690.56,-84.65"/>
</a>
</g>
</g>
<!-- Node12&#45;&gt;Node3 -->
<g id="edge17_Node000012_Node000003" class="edge">
<title>Node12&#45;&gt;Node3</title>
<g id="a_edge17_Node000012_Node000003"><a xlink:title=" ">
<path fill="none" stroke="#63b8ff" d="M139.64,-109.64C127.17,-96.73 108.08,-72.42 121,-55 146.13,-21.14 196.31,-12.13 231,-10.19"/>
<polygon fill="#63b8ff" stroke="#63b8ff" points="231.36,-13.68 241.22,-9.8 231.09,-6.69 231.36,-13.68"/>
</a>
</g>
</g>
<!-- Node13 -->
<g id="Node000013" class="node">
<title>Node13</title>
<g id="a_Node000013"><a xlink:href="no__os__clk_8h.html" target="_top" xlink:title="Header file of Clock Driver.">
<polygon fill="white" stroke="#666666" points="74,-74 0,-74 0,-55 74,-55 74,-74"/>
<text text-anchor="middle" x="37" y="-62" font-family="Helvetica,sans-Serif" font-size="10.00">no_os_clk.h</text>
</a>
</g>
</g>
<!-- Node12&#45;&gt;Node13 -->
<g id="edge18_Node000012_Node000013" class="edge">
<title>Node12&#45;&gt;Node13</title>
<g id="a_edge18_Node000012_Node000013"><a xlink:title=" ">
<path fill="none" stroke="#63b8ff" d="M131.01,-109.98C113.07,-101.5 85.28,-88.35 64.57,-78.54"/>
<polygon fill="#63b8ff" stroke="#63b8ff" points="65.86,-75.28 55.32,-74.17 62.86,-81.61 65.86,-75.28"/>
</a>
</g>
</g>
<!-- Node14 -->
<g id="Node000014" class="node">
<title>Node14</title>
<g id="a_Node000014"><a xlink:title=" ">
<polygon fill="#e0e0e0" stroke="#999999" points="208,-74 130,-74 130,-55 208,-55 208,-74"/>
<text text-anchor="middle" x="169" y="-62" font-family="Helvetica,sans-Serif" font-size="10.00">app_config.h</text>
</a>
</g>
</g>
<!-- Node12&#45;&gt;Node14 -->
<g id="edge20_Node000012_Node000014" class="edge">
<title>Node12&#45;&gt;Node14</title>
<g id="a_edge20_Node000012_Node000014"><a xlink:title=" ">
<path fill="none" stroke="#63b8ff" d="M152.3,-109.75C154.98,-102.65 158.85,-92.4 162.19,-83.56"/>
<polygon fill="#63b8ff" stroke="#63b8ff" points="165.5,-84.68 165.76,-74.09 158.95,-82.21 165.5,-84.68"/>
</a>
</g>
</g>
<!-- Node13&#45;&gt;Node3 -->
<g id="edge19_Node000013_Node000003" class="edge">
<title>Node13&#45;&gt;Node3</title>
<g id="a_edge19_Node000013_Node000003"><a xlink:title=" ">
<path fill="none" stroke="#63b8ff" d="M74.11,-54.98C117.45,-45.04 188.65,-28.71 231.65,-18.84"/>
<polygon fill="#63b8ff" stroke="#63b8ff" points="232.45,-22.25 241.42,-16.6 230.89,-15.42 232.45,-22.25"/>
</a>
</g>
</g>
</g>
</svg>

<g id="navigator" transform="translate(0 0)" fill="#404254">
  <rect fill="#f2f5e9" fill-opacity="0.5" stroke="#606060" stroke-width=".5" x="0" y="0" width="60" height="60"/>
  <use id="zoomplus" xlink:href="#zoomPlus" x="17" y="9" onmousedown="handleZoom(evt,'in')"/>
  <use id="zoomminus" xlink:href="#zoomMin" x="42" y="9" onmousedown="handleZoom(evt,'out')"/>
  <use id="reset" xlink:href="#resetDef" x="30" y="36" onmousedown="handleReset()"/>
   <use id="arrowup" xlink:href="#arrowUp" x="0" y="0" onmousedown="handlePan(0,-1)"/>
  <use id="arrowright" xlink:href="#arrowRight" x="0" y="0" onmousedown="handlePan(1,0)"/>
  <use id="arrowdown" xlink:href="#arrowDown" x="0" y="0" onmousedown="handlePan(0,1)"/>
  <use id="arrowleft" xlink:href="#arrowLeft" x="0" y="0" onmousedown="handlePan(-1,0)"/>
</g>
<svg viewBox="0 0 15 15" width="100%" height="30px" preserveAspectRatio="xMaxYMin meet">
 <g id="arrow_out" transform="scale(0.3 0.3)">
  <a xlink:href="app__clock_8c__incl_org.svg" target="_base">
   <rect id="button" ry="5" rx="5" y="6" x="6" height="38" width="38"
        fill="#f2f5e9" fill-opacity="0.5" stroke="#606060" stroke-width="1.0"/>
   <path id="arrow"
     d="M 11.500037,31.436501 C 11.940474,20.09759 22.043105,11.32322 32.158766,21.979434 L 37.068811,17.246167 C 37.068811,17.246167 37.088388,32 37.088388,32 L 22.160133,31.978069 C 22.160133,31.978069 26.997745,27.140456 26.997745,27.140456 C 18.528582,18.264221 13.291696,25.230495 11.500037,31.436501 z"
     style="fill:#404040;"/>
  </a>
 </g>
</svg>

<style type='text/css'>
<![CDATA[
[data-mouse-over-selected='false'] { opacity: 0.7; }
[data-mouse-over-selected='true']  { opacity: 1.0; }
]]>
</style>
<script type="application/ecmascript"><![CDATA[
document.addEventListener('DOMContentLoaded', (event) => {
  highlightEdges();
  highlightAdjacentNodes();
});
]]></script>
</svg>
