<?xml version="1.0" encoding="UTF-8" standalone="no"?>
<!DOCTYPE svg PUBLIC "-//W3C//DTD SVG 1.1//EN"
 "http://www.w3.org/Graphics/SVG/1.1/DTD/svg11.dtd">
<!-- Generated by graphviz version 2.43.0 (0)
 -->
<!-- Title: drivers/axi_core/jesd204/axi_jesd204_rx.c Pages: 1 -->
<svg width="965pt" height="203pt"
 viewBox="0.00 0.00 964.95 203.00" xmlns="http://www.w3.org/2000/svg" xmlns:xlink="http://www.w3.org/1999/xlink">
<g id="graph0" class="graph" transform="scale(1 1) rotate(0) translate(4 199)">
<title>drivers/axi_core/jesd204/axi_jesd204_rx.c</title>
<!-- Node1 -->
<g id="Node000001" class="node">
<title>Node1</title>
<g id="a_Node000001"><a xlink:title="Driver for the Analog Devices AXI&#45;JESD204&#45;RX peripheral.">
<polygon fill="#999999" stroke="#666666" points="465.95,-195 329.95,-195 329.95,-165 465.95,-165 465.95,-195"/>
<text text-anchor="start" x="337.95" y="-183" font-family="Helvetica,sans-Serif" font-size="10.00">drivers/axi_core/jesd204</text>
<text text-anchor="middle" x="397.95" y="-172" font-family="Helvetica,sans-Serif" font-size="10.00">/axi_jesd204_rx.c</text>
</a>
</g>
</g>
<!-- Node2 -->
<g id="Node000002" class="node">
<title>Node2</title>
<g id="a_Node000002"><a xlink:title=" ">
<polygon fill="#e0e0e0" stroke="#999999" points="346.45,-74 293.45,-74 293.45,-55 346.45,-55 346.45,-74"/>
<text text-anchor="middle" x="319.95" y="-62" font-family="Helvetica,sans-Serif" font-size="10.00">stdlib.h</text>
</a>
</g>
</g>
<!-- Node1&#45;&gt;Node2 -->
<g id="edge1_Node000001_Node000002" class="edge">
<title>Node1&#45;&gt;Node2</title>
<g id="a_edge1_Node000001_Node000002"><a xlink:title=" ">
<path fill="none" stroke="#63b8ff" d="M380.57,-164.58C370.12,-155.25 357.11,-142.37 347.95,-129 338.38,-115.02 330.88,-97.24 326.06,-84.05"/>
<polygon fill="#63b8ff" stroke="#63b8ff" points="329.24,-82.54 322.65,-74.24 322.62,-84.83 329.24,-82.54"/>
</a>
</g>
</g>
<!-- Node3 -->
<g id="Node000003" class="node">
<title>Node3</title>
<g id="a_Node000003"><a xlink:title=" ">
<polygon fill="#e0e0e0" stroke="#999999" points="89.95,-74 39.95,-74 39.95,-55 89.95,-55 89.95,-74"/>
<text text-anchor="middle" x="64.95" y="-62" font-family="Helvetica,sans-Serif" font-size="10.00">stdio.h</text>
</a>
</g>
</g>
<!-- Node1&#45;&gt;Node3 -->
<g id="edge2_Node000001_Node000003" class="edge">
<title>Node1&#45;&gt;Node3</title>
<g id="a_edge2_Node000001_Node000003"><a xlink:title=" ">
<path fill="none" stroke="#63b8ff" d="M329.75,-175.16C222.91,-168.44 26.04,-152.94 4.95,-129 -10.64,-111.29 14.87,-91.66 37.29,-78.98"/>
<polygon fill="#63b8ff" stroke="#63b8ff" points="39.12,-81.97 46.27,-74.15 35.8,-75.8 39.12,-81.97"/>
</a>
</g>
</g>
<!-- Node4 -->
<g id="Node000004" class="node">
<title>Node4</title>
<g id="a_Node000004"><a xlink:title=" ">
<polygon fill="#e0e0e0" stroke="#999999" points="199.45,-129 134.45,-129 134.45,-110 199.45,-110 199.45,-129"/>
<text text-anchor="middle" x="166.95" y="-117" font-family="Helvetica,sans-Serif" font-size="10.00">inttypes.h</text>
</a>
</g>
</g>
<!-- Node1&#45;&gt;Node4 -->
<g id="edge3_Node000001_Node000004" class="edge">
<title>Node1&#45;&gt;Node4</title>
<g id="a_edge3_Node000001_Node000004"><a xlink:title=" ">
<path fill="none" stroke="#63b8ff" d="M342.62,-164.99C301.87,-154.67 247.26,-140.84 209.81,-131.35"/>
<polygon fill="#63b8ff" stroke="#63b8ff" points="210.28,-127.86 199.72,-128.8 208.56,-134.65 210.28,-127.86"/>
</a>
</g>
</g>
<!-- Node5 -->
<g id="Node000005" class="node">
<title>Node5</title>
<g id="a_Node000005"><a xlink:href="no__os__clk_8h.html" target="_top" xlink:title="Header file of Clock Driver.">
<polygon fill="white" stroke="#666666" points="794.95,-74 720.95,-74 720.95,-55 794.95,-55 794.95,-74"/>
<text text-anchor="middle" x="757.95" y="-62" font-family="Helvetica,sans-Serif" font-size="10.00">no_os_clk.h</text>
</a>
</g>
</g>
<!-- Node1&#45;&gt;Node5 -->
<g id="edge4_Node000001_Node000005" class="edge">
<title>Node1&#45;&gt;Node5</title>
<g id="a_edge4_Node000001_Node000005"><a xlink:title=" ">
<path fill="none" stroke="#63b8ff" d="M454.99,-164.91C491.75,-155.5 540.44,-142.43 582.95,-129 633.86,-112.91 691.94,-91.15 726.74,-77.73"/>
<polygon fill="#63b8ff" stroke="#63b8ff" points="728.27,-80.89 736.33,-74.01 725.74,-74.36 728.27,-80.89"/>
</a>
</g>
</g>
<!-- Node7 -->
<g id="Node000007" class="node">
<title>Node7</title>
<g id="a_Node000007"><a xlink:href="no__os__error_8h.html" target="_top" xlink:title="Error codes definition.">
<polygon fill="white" stroke="#666666" points="438.95,-129 356.95,-129 356.95,-110 438.95,-110 438.95,-129"/>
<text text-anchor="middle" x="397.95" y="-117" font-family="Helvetica,sans-Serif" font-size="10.00">no_os_error.h</text>
</a>
</g>
</g>
<!-- Node1&#45;&gt;Node7 -->
<g id="edge6_Node000001_Node000007" class="edge">
<title>Node1&#45;&gt;Node7</title>
<g id="a_edge6_Node000001_Node000007"><a xlink:title=" ">
<path fill="none" stroke="#63b8ff" d="M397.95,-164.84C397.95,-157.21 397.95,-147.7 397.95,-139.45"/>
<polygon fill="#63b8ff" stroke="#63b8ff" points="401.45,-139.27 397.95,-129.27 394.45,-139.27 401.45,-139.27"/>
</a>
</g>
</g>
<!-- Node9 -->
<g id="Node000009" class="node">
<title>Node9</title>
<g id="a_Node000009"><a xlink:href="no__os__delay_8h.html" target="_top" xlink:title="Header file of Delay functions.">
<polygon fill="white" stroke="#666666" points="664.45,-74 579.45,-74 579.45,-55 664.45,-55 664.45,-74"/>
<text text-anchor="middle" x="621.95" y="-62" font-family="Helvetica,sans-Serif" font-size="10.00">no_os_delay.h</text>
</a>
</g>
</g>
<!-- Node1&#45;&gt;Node9 -->
<g id="edge8_Node000001_Node000009" class="edge">
<title>Node1&#45;&gt;Node9</title>
<g id="a_edge8_Node000001_Node000009"><a xlink:title=" ">
<path fill="none" stroke="#63b8ff" d="M465.98,-165.41C495.61,-157.6 529.91,-145.89 557.95,-129 578.38,-116.69 597.17,-96.54 609.03,-82.24"/>
<polygon fill="#63b8ff" stroke="#63b8ff" points="611.94,-84.21 615.47,-74.22 606.48,-79.82 611.94,-84.21"/>
</a>
</g>
</g>
<!-- Node10 -->
<g id="Node000010" class="node">
<title>Node10</title>
<g id="a_Node000010"><a xlink:href="no__os__util_8h.html" target="_top" xlink:title="Header file of utility functions.">
<polygon fill="white" stroke="#666666" points="532.45,-129 457.45,-129 457.45,-110 532.45,-110 532.45,-129"/>
<text text-anchor="middle" x="494.95" y="-117" font-family="Helvetica,sans-Serif" font-size="10.00">no_os_util.h</text>
</a>
</g>
</g>
<!-- Node1&#45;&gt;Node10 -->
<g id="edge10_Node000001_Node000010" class="edge">
<title>Node1&#45;&gt;Node10</title>
<g id="a_edge10_Node000001_Node000010"><a xlink:title=" ">
<path fill="none" stroke="#63b8ff" d="M421.43,-164.84C436.76,-155.6 456.67,-143.59 471.9,-134.4"/>
<polygon fill="#63b8ff" stroke="#63b8ff" points="473.95,-137.26 480.7,-129.09 470.33,-131.26 473.95,-137.26"/>
</a>
</g>
</g>
<!-- Node12 -->
<g id="Node000012" class="node">
<title>Node12</title>
<g id="a_Node000012"><a xlink:href="no__os__alloc_8h.html" target="_top" xlink:title=" ">
<polygon fill="white" stroke="#666666" points="300.45,-129 217.45,-129 217.45,-110 300.45,-110 300.45,-129"/>
<text text-anchor="middle" x="258.95" y="-117" font-family="Helvetica,sans-Serif" font-size="10.00">no_os_alloc.h</text>
</a>
</g>
</g>
<!-- Node1&#45;&gt;Node12 -->
<g id="edge14_Node000001_Node000012" class="edge">
<title>Node1&#45;&gt;Node12</title>
<g id="a_edge14_Node000001_Node000012"><a xlink:title=" ">
<path fill="none" stroke="#63b8ff" d="M364.66,-164.99C341.57,-155.27 311.09,-142.44 288.79,-133.06"/>
<polygon fill="#63b8ff" stroke="#63b8ff" points="290.06,-129.79 279.48,-129.14 287.34,-136.24 290.06,-129.79"/>
</a>
</g>
</g>
<!-- Node13 -->
<g id="Node000013" class="node">
<title>Node13</title>
<g id="a_Node000013"><a xlink:href="axi__jesd204__rx_8h.html" target="_top" xlink:title="Driver for the Analog Devices AXI&#45;JESD204&#45;RX peripheral.">
<polygon fill="white" stroke="#666666" points="872.45,-129 773.45,-129 773.45,-110 872.45,-110 872.45,-129"/>
<text text-anchor="middle" x="822.95" y="-117" font-family="Helvetica,sans-Serif" font-size="10.00">axi_jesd204_rx.h</text>
</a>
</g>
</g>
<!-- Node1&#45;&gt;Node13 -->
<g id="edge17_Node000001_Node000013" class="edge">
<title>Node1&#45;&gt;Node13</title>
<g id="a_edge17_Node000001_Node000013"><a xlink:title=" ">
<path fill="none" stroke="#63b8ff" d="M466.24,-169.6C548.43,-158.29 685.11,-139.47 763.27,-128.72"/>
<polygon fill="#63b8ff" stroke="#63b8ff" points="764,-132.15 773.43,-127.32 763.04,-125.21 764,-132.15"/>
</a>
</g>
</g>
<!-- Node16 -->
<g id="Node000016" class="node">
<title>Node16</title>
<g id="a_Node000016"><a xlink:href="no__os__axi__io_8h.html" target="_top" xlink:title="Header file of AXI IO.">
<polygon fill="white" stroke="#666666" points="561.45,-74 472.45,-74 472.45,-55 561.45,-55 561.45,-74"/>
<text text-anchor="middle" x="516.95" y="-62" font-family="Helvetica,sans-Serif" font-size="10.00">no_os_axi_io.h</text>
</a>
</g>
</g>
<!-- Node1&#45;&gt;Node16 -->
<g id="edge25_Node000001_Node000016" class="edge">
<title>Node1&#45;&gt;Node16</title>
<g id="a_edge25_Node000001_Node000016"><a xlink:title=" ">
<path fill="none" stroke="#63b8ff" d="M466.33,-172.44C494.53,-165.97 524.62,-153.37 541.95,-129 552.09,-114.74 542.22,-95.81 532.05,-82.33"/>
<polygon fill="#63b8ff" stroke="#63b8ff" points="534.57,-79.89 525.52,-74.37 529.15,-84.33 534.57,-79.89"/>
</a>
</g>
</g>
<!-- Node17 -->
<g id="Node000017" class="node">
<title>Node17</title>
<g id="a_Node000017"><a xlink:href="no__os__print__log_8h.html" target="_top" xlink:title="Print messages helpers.">
<polygon fill="white" stroke="#666666" points="115.95,-129 13.95,-129 13.95,-110 115.95,-110 115.95,-129"/>
<text text-anchor="middle" x="64.95" y="-117" font-family="Helvetica,sans-Serif" font-size="10.00">no_os_print_log.h</text>
</a>
</g>
</g>
<!-- Node1&#45;&gt;Node17 -->
<g id="edge27_Node000001_Node000017" class="edge">
<title>Node1&#45;&gt;Node17</title>
<g id="a_edge27_Node000001_Node000017"><a xlink:title=" ">
<path fill="none" stroke="#63b8ff" d="M329.76,-167.02C269,-156.35 181.03,-140.89 123.42,-130.77"/>
<polygon fill="#63b8ff" stroke="#63b8ff" points="123.84,-127.29 113.38,-129.01 122.62,-134.19 123.84,-127.29"/>
</a>
</g>
</g>
<!-- Node6 -->
<g id="Node000006" class="node">
<title>Node6</title>
<g id="a_Node000006"><a xlink:title=" ">
<polygon fill="#e0e0e0" stroke="#999999" points="716.45,-19 663.45,-19 663.45,0 716.45,0 716.45,-19"/>
<text text-anchor="middle" x="689.95" y="-7" font-family="Helvetica,sans-Serif" font-size="10.00">stdint.h</text>
</a>
</g>
</g>
<!-- Node5&#45;&gt;Node6 -->
<g id="edge5_Node000005_Node000006" class="edge">
<title>Node5&#45;&gt;Node6</title>
<g id="a_edge5_Node000005_Node000006"><a xlink:title=" ">
<path fill="none" stroke="#63b8ff" d="M747.03,-54.98C736.88,-47.07 721.53,-35.11 709.31,-25.58"/>
<polygon fill="#63b8ff" stroke="#63b8ff" points="711.12,-22.56 701.08,-19.17 706.81,-28.08 711.12,-22.56"/>
</a>
</g>
</g>
<!-- Node8 -->
<g id="Node000008" class="node">
<title>Node8</title>
<g id="a_Node000008"><a xlink:href="errno_8h.html" target="_top" xlink:title="Error macro definition for ARM Compiler.">
<polygon fill="white" stroke="#666666" points="415.45,-74 364.45,-74 364.45,-55 415.45,-55 415.45,-74"/>
<text text-anchor="middle" x="389.95" y="-62" font-family="Helvetica,sans-Serif" font-size="10.00">errno.h</text>
</a>
</g>
</g>
<!-- Node7&#45;&gt;Node8 -->
<g id="edge7_Node000007_Node000008" class="edge">
<title>Node7&#45;&gt;Node8</title>
<g id="a_edge7_Node000007_Node000008"><a xlink:title=" ">
<path fill="none" stroke="#63b8ff" d="M396.63,-109.75C395.58,-102.8 394.08,-92.85 392.77,-84.13"/>
<polygon fill="#63b8ff" stroke="#63b8ff" points="396.2,-83.45 391.25,-74.09 389.28,-84.5 396.2,-83.45"/>
</a>
</g>
</g>
<!-- Node9&#45;&gt;Node6 -->
<g id="edge9_Node000009_Node000006" class="edge">
<title>Node9&#45;&gt;Node6</title>
<g id="a_edge9_Node000009_Node000006"><a xlink:title=" ">
<path fill="none" stroke="#63b8ff" d="M632.88,-54.98C643.03,-47.07 658.38,-35.11 670.6,-25.58"/>
<polygon fill="#63b8ff" stroke="#63b8ff" points="673.09,-28.08 678.83,-19.17 668.79,-22.56 673.09,-28.08"/>
</a>
</g>
</g>
<!-- Node10&#45;&gt;Node2 -->
<g id="edge12_Node000010_Node000002" class="edge">
<title>Node10&#45;&gt;Node2</title>
<g id="a_edge12_Node000010_Node000002"><a xlink:title=" ">
<path fill="none" stroke="#63b8ff" d="M466.84,-109.98C436.8,-100.89 389.1,-86.44 356.25,-76.49"/>
<polygon fill="#63b8ff" stroke="#63b8ff" points="357.15,-73.11 346.57,-73.56 355.12,-79.81 357.15,-73.11"/>
</a>
</g>
</g>
<!-- Node10&#45;&gt;Node6 -->
<g id="edge11_Node000010_Node000006" class="edge">
<title>Node10&#45;&gt;Node6</title>
<g id="a_edge11_Node000010_Node000006"><a xlink:title=" ">
<path fill="none" stroke="#63b8ff" d="M485.13,-109.97C471.42,-97.07 449.77,-72.25 463.95,-55 487.45,-26.43 594.99,-15.91 652.85,-12.28"/>
<polygon fill="#63b8ff" stroke="#63b8ff" points="653.27,-15.76 663.05,-11.68 652.86,-8.77 653.27,-15.76"/>
</a>
</g>
</g>
<!-- Node11 -->
<g id="Node000011" class="node">
<title>Node11</title>
<g id="a_Node000011"><a xlink:title=" ">
<polygon fill="#e0e0e0" stroke="#999999" points="882.95,-19 820.95,-19 820.95,0 882.95,0 882.95,-19"/>
<text text-anchor="middle" x="851.95" y="-7" font-family="Helvetica,sans-Serif" font-size="10.00">stdbool.h</text>
</a>
</g>
</g>
<!-- Node10&#45;&gt;Node11 -->
<g id="edge13_Node000010_Node000011" class="edge">
<title>Node10&#45;&gt;Node11</title>
<g id="a_edge13_Node000010_Node000011"><a xlink:title=" ">
<path fill="none" stroke="#63b8ff" d="M532.7,-111.63C569.43,-104.37 626.49,-91.52 673.95,-74 691.67,-67.46 694.46,-62.1 711.95,-55 744.57,-41.75 782.72,-29.85 810.95,-21.7"/>
<polygon fill="#63b8ff" stroke="#63b8ff" points="812.22,-24.98 820.88,-18.87 810.3,-18.25 812.22,-24.98"/>
</a>
</g>
</g>
<!-- Node12&#45;&gt;Node2 -->
<g id="edge16_Node000012_Node000002" class="edge">
<title>Node12&#45;&gt;Node2</title>
<g id="a_edge16_Node000012_Node000002"><a xlink:title=" ">
<path fill="none" stroke="#63b8ff" d="M268.75,-109.98C277.77,-102.15 291.36,-90.34 302.27,-80.86"/>
<polygon fill="#63b8ff" stroke="#63b8ff" points="304.72,-83.37 309.97,-74.17 300.13,-78.09 304.72,-83.37"/>
</a>
</g>
</g>
<!-- Node12&#45;&gt;Node3 -->
<g id="edge15_Node000012_Node000003" class="edge">
<title>Node12&#45;&gt;Node3</title>
<g id="a_edge15_Node000012_Node000003"><a xlink:title=" ">
<path fill="none" stroke="#63b8ff" d="M227.78,-109.98C192.83,-100.44 136.29,-84.99 99.88,-75.04"/>
<polygon fill="#63b8ff" stroke="#63b8ff" points="100.74,-71.65 90.17,-72.39 98.9,-78.4 100.74,-71.65"/>
</a>
</g>
</g>
<!-- Node13&#45;&gt;Node5 -->
<g id="edge24_Node000013_Node000005" class="edge">
<title>Node13&#45;&gt;Node5</title>
<g id="a_edge24_Node000013_Node000005"><a xlink:title=" ">
<path fill="none" stroke="#63b8ff" d="M812.51,-109.98C802.81,-102.07 788.14,-90.11 776.45,-80.58"/>
<polygon fill="#63b8ff" stroke="#63b8ff" points="778.55,-77.78 768.59,-74.17 774.13,-83.2 778.55,-77.78"/>
</a>
</g>
</g>
<!-- Node13&#45;&gt;Node6 -->
<g id="edge18_Node000013_Node000006" class="edge">
<title>Node13&#45;&gt;Node6</title>
<g id="a_edge18_Node000013_Node000006"><a xlink:title=" ">
<path fill="none" stroke="#63b8ff" d="M822.7,-109.95C821.84,-96.56 818.3,-70.57 803.95,-55 783.83,-33.17 751.71,-21.91 726.68,-16.19"/>
<polygon fill="#63b8ff" stroke="#63b8ff" points="727.29,-12.74 716.79,-14.13 725.87,-19.59 727.29,-12.74"/>
</a>
</g>
</g>
<!-- Node13&#45;&gt;Node11 -->
<g id="edge19_Node000013_Node000011" class="edge">
<title>Node13&#45;&gt;Node11</title>
<g id="a_edge19_Node000013_Node000011"><a xlink:title=" ">
<path fill="none" stroke="#63b8ff" d="M825.93,-109.69C828.91,-100.75 833.52,-86.49 836.95,-74 841.09,-58.96 845.11,-41.73 847.95,-29.02"/>
<polygon fill="#63b8ff" stroke="#63b8ff" points="851.39,-29.7 850.11,-19.18 844.55,-28.19 851.39,-29.7"/>
</a>
</g>
</g>
<!-- Node14 -->
<g id="Node000014" class="node">
<title>Node14</title>
<g id="a_Node000014"><a xlink:href="jesd204_8h.html" target="_top" xlink:title=" ">
<polygon fill="white" stroke="#666666" points="952.95,-74 888.95,-74 888.95,-55 952.95,-55 952.95,-74"/>
<text text-anchor="middle" x="920.95" y="-62" font-family="Helvetica,sans-Serif" font-size="10.00">jesd204.h</text>
</a>
</g>
</g>
<!-- Node13&#45;&gt;Node14 -->
<g id="edge20_Node000013_Node000014" class="edge">
<title>Node13&#45;&gt;Node14</title>
<g id="a_edge20_Node000013_Node000014"><a xlink:title=" ">
<path fill="none" stroke="#63b8ff" d="M838.7,-109.98C854.18,-101.61 878.05,-88.7 896.09,-78.95"/>
<polygon fill="#63b8ff" stroke="#63b8ff" points="897.79,-82.01 904.92,-74.17 894.46,-75.85 897.79,-82.01"/>
</a>
</g>
</g>
<!-- Node14&#45;&gt;Node6 -->
<g id="edge23_Node000014_Node000006" class="edge">
<title>Node14&#45;&gt;Node6</title>
<g id="a_edge23_Node000014_Node000006"><a xlink:title=" ">
<path fill="none" stroke="#63b8ff" d="M888.83,-56.13C846.28,-46.37 771.39,-29.19 726.65,-18.92"/>
<polygon fill="#63b8ff" stroke="#63b8ff" points="727.31,-15.48 716.78,-16.65 725.74,-22.3 727.31,-15.48"/>
</a>
</g>
</g>
<!-- Node14&#45;&gt;Node11 -->
<g id="edge21_Node000014_Node000011" class="edge">
<title>Node14&#45;&gt;Node11</title>
<g id="a_edge21_Node000014_Node000011"><a xlink:title=" ">
<path fill="none" stroke="#63b8ff" d="M909.87,-54.98C899.47,-47 883.69,-34.88 871.23,-25.31"/>
<polygon fill="#63b8ff" stroke="#63b8ff" points="873.3,-22.49 863.24,-19.17 869.04,-28.04 873.3,-22.49"/>
</a>
</g>
</g>
<!-- Node15 -->
<g id="Node000015" class="node">
<title>Node15</title>
<g id="a_Node000015"><a xlink:title=" ">
<polygon fill="#e0e0e0" stroke="#999999" points="956.95,-19 900.95,-19 900.95,0 956.95,0 956.95,-19"/>
<text text-anchor="middle" x="928.95" y="-7" font-family="Helvetica,sans-Serif" font-size="10.00">stddef.h</text>
</a>
</g>
</g>
<!-- Node14&#45;&gt;Node15 -->
<g id="edge22_Node000014_Node000015" class="edge">
<title>Node14&#45;&gt;Node15</title>
<g id="a_edge22_Node000014_Node000015"><a xlink:title=" ">
<path fill="none" stroke="#63b8ff" d="M922.27,-54.75C923.32,-47.8 924.83,-37.85 926.14,-29.13"/>
<polygon fill="#63b8ff" stroke="#63b8ff" points="929.63,-29.5 927.66,-19.09 922.7,-28.45 929.63,-29.5"/>
</a>
</g>
</g>
<!-- Node16&#45;&gt;Node6 -->
<g id="edge26_Node000016_Node000006" class="edge">
<title>Node16&#45;&gt;Node6</title>
<g id="a_edge26_Node000016_Node000006"><a xlink:title=" ">
<path fill="none" stroke="#63b8ff" d="M544.75,-54.98C574.35,-45.92 621.32,-31.53 653.79,-21.58"/>
<polygon fill="#63b8ff" stroke="#63b8ff" points="654.83,-24.92 663.36,-18.65 652.78,-18.23 654.83,-24.92"/>
</a>
</g>
</g>
<!-- Node17&#45;&gt;Node3 -->
<g id="edge28_Node000017_Node000003" class="edge">
<title>Node17&#45;&gt;Node3</title>
<g id="a_edge28_Node000017_Node000003"><a xlink:title=" ">
<path fill="none" stroke="#63b8ff" d="M64.95,-109.75C64.95,-102.8 64.95,-92.85 64.95,-84.13"/>
<polygon fill="#63b8ff" stroke="#63b8ff" points="68.45,-84.09 64.95,-74.09 61.45,-84.09 68.45,-84.09"/>
</a>
</g>
</g>
</g>
</svg>
