<?xml version="1.0" encoding="UTF-8" standalone="no"?>
<!DOCTYPE svg PUBLIC "-//W3C//DTD SVG 1.1//EN"
 "http://www.w3.org/Graphics/SVG/1.1/DTD/svg11.dtd">
<!-- Generated by graphviz version 2.43.0 (0)
 -->
<!-- Title: axi_dac_dds_set_scale Pages: 1 -->
<!--zoomable 140 -->

<svg id="main" version="1.1" xmlns="http://www.w3.org/2000/svg" xmlns:xlink="http://www.w3.org/1999/xlink" xml:space="preserve" onload="init(evt)">

<style type="text/css"><![CDATA[
.node, .edge {opacity: 0.7;}
.node.selected, .edge.selected {opacity: 1;}
.edge:hover path { stroke: red; }
.edge:hover polygon { stroke: red; fill: red; }
]]></style>

<defs>
  <circle id="rim" cx="0" cy="0" r="7"/>
  <circle id="rim2" cx="0" cy="0" r="3.5"/>
  <g id="zoomPlus">
    <use xlink:href="#rim" fill="#404040"><set attributeName="fill" to="#808080" begin="zoomplus.mouseover" end="zoomplus.mouseout"/></use>
    <path d="M-4,0h8M0,-4v8" fill="none" stroke="white" stroke-width="1.5" pointer-events="none"/>
  </g>
  <g id="zoomMin">
    <use xlink:href="#rim" fill="#404040"><set attributeName="fill" to="#808080" begin="zoomminus.mouseover" end="zoomminus.mouseout"/></use>
    <path d="M-4,0h8" fill="none" stroke="white" stroke-width="1.5" pointer-events="none"/>
  </g>
  <g id="arrowUp" transform="translate(30 24)">
    <use xlink:href="#rim"/>
    <path pointer-events="none" fill="none" stroke="white" stroke-width="1.5" d="M0,-3.0v7 M-2.5,-0.5L0,-3.0L2.5,-0.5"/>
  </g>
  <g id="arrowRight" transform="rotate(90) translate(36 -43)">
    <use xlink:href="#rim"/>
    <path pointer-events="none" fill="none" stroke="white" stroke-width="1.5" d="M0,-3.0v7 M-2.5,-0.5L0,-3.0L2.5,-0.5"/>
  </g>
  <g id="arrowDown" transform="rotate(180) translate(-30 -48)">
    <use xlink:href="#rim"/>
    <path pointer-events="none" fill="none" stroke="white" stroke-width="1.5" d="M0,-3.0v7 M-2.5,-0.5L0,-3.0L2.5,-0.5"/>
  </g>
  <g id="arrowLeft" transform="rotate(270) translate(-36 17)">
    <use xlink:href="#rim"/>
    <path pointer-events="none" fill="none" stroke="white" stroke-width="1.5" d="M0,-3.0v7 M-2.5,-0.5L0,-3.0L2.5,-0.5"/>
  </g>
  <g id="resetDef">
    <use xlink:href="#rim2" fill="#404040"><set attributeName="fill" to="#808080" begin="reset.mouseover" end="reset.mouseout"/></use>
  </g>
</defs>
<script type="application/ecmascript">
var viewWidth = 944;
var viewHeight = 140;
var sectionId = 'dynsection-7';
</script>
<script type="application/ecmascript" xlink:href="svg.min.js"/>
<svg id="graph" class="graph">
<g id="viewport">
<title>axi_dac_dds_set_scale</title>
<!-- Node1 -->
<g id="Node000001" class="node">
<title>Node1</title>
<g id="a_Node000001"><a xlink:title="AXI DAC Set DDS scale for specific channel.">
<polygon fill="#999999" stroke="#666666" points="936,-56 808,-56 808,-37 936,-37 936,-56"/>
<text text-anchor="middle" x="872" y="-44" font-family="Helvetica,sans-Serif" font-size="10.00">axi_dac_dds_set_scale</text>
</a>
</g>
</g>
<!-- Node2 -->
<g id="Node000002" class="node">
<title>Node2</title>
<g id="a_Node000002"><a xlink:href="axi__dac__core_8c.html#ad2e10485918e87d7d2c6f6a72c971544" target="_top" xlink:title="AXI DAC Data Setup.">
<polygon fill="white" stroke="#666666" points="772,-75 659,-75 659,-56 772,-56 772,-75"/>
<text text-anchor="middle" x="715.5" y="-63" font-family="Helvetica,sans-Serif" font-size="10.00">axi_dac_data_setup</text>
</a>
</g>
</g>
<!-- Node1&#45;&gt;Node2 -->
<g id="edge1_Node000001_Node000002" class="edge">
<title>Node1&#45;&gt;Node2</title>
<g id="a_edge1_Node000001_Node000002"><a xlink:title=" ">
<path fill="none" stroke="#63b8ff" d="M797.65,-55.52C789.03,-56.58 780.34,-57.65 772.02,-58.67"/>
<polygon fill="#63b8ff" stroke="#63b8ff" points="798.22,-58.98 807.71,-54.28 797.36,-52.03 798.22,-58.98"/>
</a>
</g>
</g>
<!-- Node11 -->
<g id="Node000011" class="node">
<title>Node11</title>
<g id="a_Node000011"><a xlink:href="ad9172_2src_2main_8c.html#a840291bc02cba5474a4cb46a9b9566fe" target="_top" xlink:title=" ">
<polygon fill="white" stroke="#666666" points="736,-38 695,-38 695,-19 736,-19 736,-38"/>
<text text-anchor="middle" x="715.5" y="-26" font-family="Helvetica,sans-Serif" font-size="10.00">main</text>
</a>
</g>
</g>
<!-- Node1&#45;&gt;Node11 -->
<g id="edge12_Node000001_Node000011" class="edge">
<title>Node1&#45;&gt;Node11</title>
<g id="a_edge12_Node000001_Node000011"><a xlink:title=" ">
<path fill="none" stroke="#63b8ff" d="M797.71,-37.96C775.04,-35.32 751.92,-32.63 736.18,-30.79"/>
<polygon fill="#63b8ff" stroke="#63b8ff" points="797.38,-41.45 807.71,-39.13 798.19,-34.49 797.38,-41.45"/>
</a>
</g>
</g>
<!-- Node3 -->
<g id="Node000003" class="node">
<title>Node3</title>
<g id="a_Node000003"><a xlink:href="axi__dac__core_8c.html#a88b7d1d48e908b038ef3faea467aaa0c" target="_top" xlink:title="AXI DAC Main Initialization.">
<polygon fill="white" stroke="#666666" points="600.5,-132 525.5,-132 525.5,-113 600.5,-113 600.5,-132"/>
<text text-anchor="middle" x="563" y="-120" font-family="Helvetica,sans-Serif" font-size="10.00">axi_dac_init</text>
</a>
</g>
</g>
<!-- Node2&#45;&gt;Node3 -->
<g id="edge2_Node000002_Node000003" class="edge">
<title>Node2&#45;&gt;Node3</title>
<g id="a_edge2_Node000002_Node000003"><a xlink:title=" ">
<path fill="none" stroke="#63b8ff" d="M679.64,-78.7C652.01,-89.17 614.04,-103.55 589.27,-112.93"/>
<polygon fill="#63b8ff" stroke="#63b8ff" points="681.2,-81.86 689.31,-75.04 678.72,-75.31 681.2,-81.86"/>
</a>
</g>
</g>
<!-- Node8 -->
<g id="Node000008" class="node">
<title>Node8</title>
<g id="a_Node000008"><a xlink:href="ad9739a__fmc__ebz_8c.html#a840291bc02cba5474a4cb46a9b9566fe" target="_top" xlink:title="main">
<polygon fill="white" stroke="#666666" points="438.5,-95 397.5,-95 397.5,-76 438.5,-76 438.5,-95"/>
<text text-anchor="middle" x="418" y="-83" font-family="Helvetica,sans-Serif" font-size="10.00">main</text>
</a>
</g>
</g>
<!-- Node2&#45;&gt;Node8 -->
<g id="edge11_Node000002_Node000008" class="edge">
<title>Node2&#45;&gt;Node8</title>
<g id="a_edge11_Node000002_Node000008"><a xlink:title=" ">
<path fill="none" stroke="#63b8ff" d="M648.84,-69.94C581.57,-74.5 481.06,-81.3 438.82,-84.16"/>
<polygon fill="#63b8ff" stroke="#63b8ff" points="649.18,-73.43 658.92,-69.26 648.71,-66.45 649.18,-73.43"/>
</a>
</g>
</g>
<!-- Node9 -->
<g id="Node000009" class="node">
<title>Node9</title>
<g id="a_Node000009"><a xlink:href="adrv902x_2src_2examples_2basic__example_2basic__example_8c.html#ac5f0064cb4ac7ddab3ec02b10217b456" target="_top" xlink:title="Basic example main execution.">
<polygon fill="white" stroke="#666666" points="623,-56 503,-56 503,-37 623,-37 623,-56"/>
<text text-anchor="middle" x="563" y="-44" font-family="Helvetica,sans-Serif" font-size="10.00">basic_example_main</text>
</a>
</g>
</g>
<!-- Node2&#45;&gt;Node9 -->
<g id="edge9_Node000002_Node000009" class="edge">
<title>Node2&#45;&gt;Node9</title>
<g id="a_edge9_Node000002_Node000009"><a xlink:title=" ">
<path fill="none" stroke="#63b8ff" d="M648.93,-57.22C640.37,-56.14 631.63,-55.04 623.17,-53.97"/>
<polygon fill="#63b8ff" stroke="#63b8ff" points="648.53,-60.7 658.89,-58.48 649.4,-53.75 648.53,-60.7"/>
</a>
</g>
</g>
<!-- Node10 -->
<g id="Node000010" class="node">
<title>Node10</title>
<g id="a_Node000010"><a xlink:href="adrv902x_2src_2examples_2iio__example_2iio__example_8c.html#a692b15b864d48091dc3d7095bea120b4" target="_top" xlink:title="IIO example main execution.">
<polygon fill="white" stroke="#666666" points="616.5,-19 509.5,-19 509.5,0 616.5,0 616.5,-19"/>
<text text-anchor="middle" x="563" y="-7" font-family="Helvetica,sans-Serif" font-size="10.00">iio_example_main</text>
</a>
</g>
</g>
<!-- Node2&#45;&gt;Node10 -->
<g id="edge10_Node000002_Node000010" class="edge">
<title>Node2&#45;&gt;Node10</title>
<g id="a_edge10_Node000002_Node000010"><a xlink:title=" ">
<path fill="none" stroke="#63b8ff" d="M672.13,-52.6C667.66,-50.99 663.21,-49.28 659,-47.5 642.33,-40.46 639.67,-35.52 623,-28.5 614.77,-25.03 605.67,-21.82 597.14,-19.05"/>
<polygon fill="#63b8ff" stroke="#63b8ff" points="671.28,-56.01 681.87,-55.95 673.56,-49.39 671.28,-56.01"/>
</a>
</g>
</g>
<!-- Node4 -->
<g id="Node000004" class="node">
<title>Node4</title>
<g id="a_Node000004"><a xlink:href="ad3552r_8c.html#a99b8d9b1903e38e171e19132336af7fb" target="_top" xlink:title=" ">
<polygon fill="white" stroke="#666666" points="467,-132 369,-132 369,-113 467,-113 467,-132"/>
<text text-anchor="middle" x="418" y="-120" font-family="Helvetica,sans-Serif" font-size="10.00">ad3552r_axi_init</text>
</a>
</g>
</g>
<!-- Node3&#45;&gt;Node4 -->
<g id="edge3_Node000003_Node000004" class="edge">
<title>Node3&#45;&gt;Node4</title>
<g id="a_edge3_Node000003_Node000004"><a xlink:title=" ">
<path fill="none" stroke="#63b8ff" d="M514.86,-122.5C499.51,-122.5 482.45,-122.5 467.04,-122.5"/>
<polygon fill="#63b8ff" stroke="#63b8ff" points="515.17,-126 525.17,-122.5 515.17,-119 515.17,-126"/>
</a>
</g>
</g>
<!-- Node3&#45;&gt;Node8 -->
<g id="edge8_Node000003_Node000008" class="edge">
<title>Node3&#45;&gt;Node8</title>
<g id="a_edge8_Node000003_Node000008"><a xlink:title=" ">
<path fill="none" stroke="#63b8ff" d="M515.46,-110.46C489.39,-103.71 458.26,-95.66 438.55,-90.56"/>
<polygon fill="#63b8ff" stroke="#63b8ff" points="514.62,-113.85 525.17,-112.97 516.37,-107.08 514.62,-113.85"/>
</a>
</g>
</g>
<!-- Node5 -->
<g id="Node000005" class="node">
<title>Node5</title>
<g id="a_Node000005"><a xlink:href="ad3552r_8c.html#ae80ba21fae1f11883703b87a0bb676e2" target="_top" xlink:title=" ">
<polygon fill="white" stroke="#666666" points="333,-132 256,-132 256,-113 333,-113 333,-132"/>
<text text-anchor="middle" x="294.5" y="-120" font-family="Helvetica,sans-Serif" font-size="10.00">ad3552r_init</text>
</a>
</g>
</g>
<!-- Node4&#45;&gt;Node5 -->
<g id="edge4_Node000004_Node000005" class="edge">
<title>Node4&#45;&gt;Node5</title>
<g id="a_edge4_Node000004_Node000005"><a xlink:title=" ">
<path fill="none" stroke="#63b8ff" d="M358.79,-122.5C350.04,-122.5 341.22,-122.5 333.06,-122.5"/>
<polygon fill="#63b8ff" stroke="#63b8ff" points="358.98,-126 368.98,-122.5 358.98,-119 358.98,-126"/>
</a>
</g>
</g>
<!-- Node6 -->
<g id="Node000006" class="node">
<title>Node6</title>
<g id="a_Node000006"><a xlink:href="axi__qspi__example_8c.html#ac25cbf8ae523e89cb0617e68c98bc697" target="_top" xlink:title=" ">
<polygon fill="white" stroke="#666666" points="89,-132 0,-132 0,-113 89,-113 89,-132"/>
<text text-anchor="middle" x="44.5" y="-120" font-family="Helvetica,sans-Serif" font-size="10.00">example_main</text>
</a>
</g>
</g>
<!-- Node5&#45;&gt;Node6 -->
<g id="edge5_Node000005_Node000006" class="edge">
<title>Node5&#45;&gt;Node6</title>
<g id="a_edge5_Node000005_Node000006"><a xlink:title=" ">
<path fill="none" stroke="#63b8ff" d="M245.7,-122.5C200.5,-122.5 133.25,-122.5 89.39,-122.5"/>
<polygon fill="#63b8ff" stroke="#63b8ff" points="245.83,-126 255.83,-122.5 245.83,-119 245.83,-126"/>
</a>
</g>
</g>
<!-- Node7 -->
<g id="Node000007" class="node">
<title>Node7</title>
<g id="a_Node000007"><a xlink:href="iio__ad3552r_8c.html#a690d5a4cec9b9316e0d635113c09e9d6" target="_top" xlink:title=" ">
<polygon fill="white" stroke="#666666" points="220,-113 125,-113 125,-94 220,-94 220,-113"/>
<text text-anchor="middle" x="172.5" y="-101" font-family="Helvetica,sans-Serif" font-size="10.00">iio_ad3552r_init</text>
</a>
</g>
</g>
<!-- Node5&#45;&gt;Node7 -->
<g id="edge6_Node000005_Node000007" class="edge">
<title>Node5&#45;&gt;Node7</title>
<g id="a_edge6_Node000005_Node000007"><a xlink:title=" ">
<path fill="none" stroke="#63b8ff" d="M245.82,-114.95C237.42,-113.62 228.68,-112.24 220.3,-110.91"/>
<polygon fill="#63b8ff" stroke="#63b8ff" points="245.44,-118.43 255.86,-116.54 246.53,-111.52 245.44,-118.43"/>
</a>
</g>
</g>
<!-- Node7&#45;&gt;Node6 -->
<g id="edge7_Node000007_Node000006" class="edge">
<title>Node7&#45;&gt;Node6</title>
<g id="a_edge7_Node000007_Node000006"><a xlink:title=" ">
<path fill="none" stroke="#63b8ff" d="M114.97,-112.02C106.38,-113.32 97.63,-114.64 89.36,-115.89"/>
<polygon fill="#63b8ff" stroke="#63b8ff" points="115.57,-115.47 124.94,-110.52 114.53,-108.55 115.57,-115.47"/>
</a>
</g>
</g>
</g>
</svg>

<g id="navigator" transform="translate(0 0)" fill="#404254">
  <rect fill="#f2f5e9" fill-opacity="0.5" stroke="#606060" stroke-width=".5" x="0" y="0" width="60" height="60"/>
  <use id="zoomplus" xlink:href="#zoomPlus" x="17" y="9" onmousedown="handleZoom(evt,'in')"/>
  <use id="zoomminus" xlink:href="#zoomMin" x="42" y="9" onmousedown="handleZoom(evt,'out')"/>
  <use id="reset" xlink:href="#resetDef" x="30" y="36" onmousedown="handleReset()"/>
   <use id="arrowup" xlink:href="#arrowUp" x="0" y="0" onmousedown="handlePan(0,-1)"/>
  <use id="arrowright" xlink:href="#arrowRight" x="0" y="0" onmousedown="handlePan(1,0)"/>
  <use id="arrowdown" xlink:href="#arrowDown" x="0" y="0" onmousedown="handlePan(0,1)"/>
  <use id="arrowleft" xlink:href="#arrowLeft" x="0" y="0" onmousedown="handlePan(-1,0)"/>
</g>
<svg viewBox="0 0 15 15" width="100%" height="30px" preserveAspectRatio="xMaxYMin meet">
 <g id="arrow_out" transform="scale(0.3 0.3)">
  <a xlink:href="axi__dac__core_8h_ada770f78e6c5cd0f59c55a5c4ab17d61_icgraph_org.svg" target="_base">
   <rect id="button" ry="5" rx="5" y="6" x="6" height="38" width="38"
        fill="#f2f5e9" fill-opacity="0.5" stroke="#606060" stroke-width="1.0"/>
   <path id="arrow"
     d="M 11.500037,31.436501 C 11.940474,20.09759 22.043105,11.32322 32.158766,21.979434 L 37.068811,17.246167 C 37.068811,17.246167 37.088388,32 37.088388,32 L 22.160133,31.978069 C 22.160133,31.978069 26.997745,27.140456 26.997745,27.140456 C 18.528582,18.264221 13.291696,25.230495 11.500037,31.436501 z"
     style="fill:#404040;"/>
  </a>
 </g>
</svg>

<style type='text/css'>
<![CDATA[
[data-mouse-over-selected='false'] { opacity: 0.7; }
[data-mouse-over-selected='true']  { opacity: 1.0; }
]]>
</style>
<script type="application/ecmascript"><![CDATA[
document.addEventListener('DOMContentLoaded', (event) => {
  highlightEdges();
  highlightAdjacentNodes();
});
]]></script>
</svg>
