<?xml version="1.0" encoding="UTF-8" standalone="no"?>
<!DOCTYPE svg PUBLIC "-//W3C//DTD SVG 1.1//EN"
 "http://www.w3.org/Graphics/SVG/1.1/DTD/svg11.dtd">
<!-- Generated by graphviz version 2.43.0 (0)
 -->
<!-- Title: axi_dac_dds_set_phase Pages: 1 -->
<svg width="969pt" height="212pt"
 viewBox="0.00 0.00 969.00 212.00" xmlns="http://www.w3.org/2000/svg" xmlns:xlink="http://www.w3.org/1999/xlink">
<g id="graph0" class="graph" transform="scale(1 1) rotate(0) translate(4 208)">
<title>axi_dac_dds_set_phase</title>
<!-- Node1 -->
<g id="Node000001" class="node">
<title>Node1</title>
<g id="a_Node000001"><a xlink:title="AXI DAC Set DDS phase for specific channel.">
<polygon fill="#999999" stroke="#666666" points="961,-74 830,-74 830,-55 961,-55 961,-74"/>
<text text-anchor="middle" x="895.5" y="-62" font-family="Helvetica,sans-Serif" font-size="10.00">axi_dac_dds_set_phase</text>
</a>
</g>
</g>
<!-- Node2 -->
<g id="Node000002" class="node">
<title>Node2</title>
<g id="a_Node000002"><a xlink:href="axi__dac__core_8c.html#ad2e10485918e87d7d2c6f6a72c971544" target="_top" xlink:title="AXI DAC Data Setup.">
<polygon fill="white" stroke="#666666" points="794,-74 681,-74 681,-55 794,-55 794,-74"/>
<text text-anchor="middle" x="737.5" y="-62" font-family="Helvetica,sans-Serif" font-size="10.00">axi_dac_data_setup</text>
</a>
</g>
</g>
<!-- Node1&#45;&gt;Node2 -->
<g id="edge1_Node000001_Node000002" class="edge">
<title>Node1&#45;&gt;Node2</title>
<g id="a_edge1_Node000001_Node000002"><a xlink:title=" ">
<path fill="none" stroke="#63b8ff" d="M819.46,-64.5C811.02,-64.5 802.54,-64.5 794.41,-64.5"/>
<polygon fill="#63b8ff" stroke="#63b8ff" points="819.7,-68 829.7,-64.5 819.7,-61 819.7,-68"/>
</a>
</g>
</g>
<!-- Node3 -->
<g id="Node000003" class="node">
<title>Node3</title>
<g id="a_Node000003"><a xlink:href="axi__dac__core_8c.html#a88b7d1d48e908b038ef3faea467aaa0c" target="_top" xlink:title="AXI DAC Main Initialization.">
<polygon fill="white" stroke="#666666" points="622.5,-130 547.5,-130 547.5,-111 622.5,-111 622.5,-130"/>
<text text-anchor="middle" x="585" y="-118" font-family="Helvetica,sans-Serif" font-size="10.00">axi_dac_init</text>
</a>
</g>
</g>
<!-- Node2&#45;&gt;Node3 -->
<g id="edge2_Node000002_Node000003" class="edge">
<title>Node2&#45;&gt;Node3</title>
<g id="a_edge2_Node000002_Node000003"><a xlink:title=" ">
<path fill="none" stroke="#63b8ff" d="M706.04,-78.02C688.38,-85.64 665.62,-95.09 645,-102.5 636.74,-105.47 627.71,-108.38 619.26,-110.97"/>
<polygon fill="#63b8ff" stroke="#63b8ff" points="707.51,-81.2 715.28,-74 704.72,-74.78 707.51,-81.2"/>
</a>
</g>
</g>
<!-- Node12 -->
<g id="Node000012" class="node">
<title>Node12</title>
<g id="a_Node000012"><a xlink:href="adrv902x_2src_2examples_2basic__example_2basic__example_8c.html#ac5f0064cb4ac7ddab3ec02b10217b456" target="_top" xlink:title="Basic example main execution.">
<polygon fill="white" stroke="#666666" points="645,-93 525,-93 525,-74 645,-74 645,-93"/>
<text text-anchor="middle" x="585" y="-81" font-family="Helvetica,sans-Serif" font-size="10.00">basic_example_main</text>
</a>
</g>
</g>
<!-- Node2&#45;&gt;Node12 -->
<g id="edge12_Node000002_Node000012" class="edge">
<title>Node2&#45;&gt;Node12</title>
<g id="a_edge12_Node000002_Node000012"><a xlink:title=" ">
<path fill="none" stroke="#63b8ff" d="M670.93,-72.78C662.37,-73.86 653.63,-74.96 645.17,-76.03"/>
<polygon fill="#63b8ff" stroke="#63b8ff" points="671.4,-76.25 680.89,-71.52 670.53,-69.3 671.4,-76.25"/>
</a>
</g>
</g>
<!-- Node13 -->
<g id="Node000013" class="node">
<title>Node13</title>
<g id="a_Node000013"><a xlink:href="adrv902x_2src_2examples_2iio__example_2iio__example_8c.html#a692b15b864d48091dc3d7095bea120b4" target="_top" xlink:title="IIO example main execution.">
<polygon fill="white" stroke="#666666" points="638.5,-56 531.5,-56 531.5,-37 638.5,-37 638.5,-56"/>
<text text-anchor="middle" x="585" y="-44" font-family="Helvetica,sans-Serif" font-size="10.00">iio_example_main</text>
</a>
</g>
</g>
<!-- Node2&#45;&gt;Node13 -->
<g id="edge13_Node000002_Node000013" class="edge">
<title>Node2&#45;&gt;Node13</title>
<g id="a_edge13_Node000002_Node000013"><a xlink:title=" ">
<path fill="none" stroke="#63b8ff" d="M670.77,-56.64C660.11,-55.36 649.19,-54.06 638.89,-52.83"/>
<polygon fill="#63b8ff" stroke="#63b8ff" points="670.54,-60.14 680.89,-57.85 671.37,-53.19 670.54,-60.14"/>
</a>
</g>
</g>
<!-- Node14 -->
<g id="Node000014" class="node">
<title>Node14</title>
<g id="a_Node000014"><a xlink:href="ad9172_2src_2main_8c.html#a840291bc02cba5474a4cb46a9b9566fe" target="_top" xlink:title=" ">
<polygon fill="white" stroke="#666666" points="605.5,-19 564.5,-19 564.5,0 605.5,0 605.5,-19"/>
<text text-anchor="middle" x="585" y="-7" font-family="Helvetica,sans-Serif" font-size="10.00">main</text>
</a>
</g>
</g>
<!-- Node2&#45;&gt;Node14 -->
<g id="edge14_Node000002_Node000014" class="edge">
<title>Node2&#45;&gt;Node14</title>
<g id="a_edge14_Node000002_Node000014"><a xlink:title=" ">
<path fill="none" stroke="#63b8ff" d="M703.68,-51C686.33,-44.02 664.62,-35.51 645,-28.5 631.93,-23.83 617.05,-19.04 605.5,-15.44"/>
<polygon fill="#63b8ff" stroke="#63b8ff" points="702.75,-54.41 713.34,-54.92 705.38,-47.92 702.75,-54.41"/>
</a>
</g>
</g>
<!-- Node4 -->
<g id="Node000004" class="node">
<title>Node4</title>
<g id="a_Node000004"><a xlink:href="ad3552r_8c.html#a99b8d9b1903e38e171e19132336af7fb" target="_top" xlink:title=" ">
<polygon fill="white" stroke="#666666" points="478,-204 380,-204 380,-185 478,-185 478,-204"/>
<text text-anchor="middle" x="429" y="-192" font-family="Helvetica,sans-Serif" font-size="10.00">ad3552r_axi_init</text>
</a>
</g>
</g>
<!-- Node3&#45;&gt;Node4 -->
<g id="edge3_Node000003_Node000004" class="edge">
<title>Node3&#45;&gt;Node4</title>
<g id="a_edge3_Node000003_Node000004"><a xlink:title=" ">
<path fill="none" stroke="#63b8ff" d="M561.65,-135.73C542.89,-148 515.05,-165.04 489,-176.5 481.75,-179.69 473.76,-182.54 466.06,-184.98"/>
<polygon fill="#63b8ff" stroke="#63b8ff" points="563.68,-138.58 570.08,-130.14 559.81,-132.75 563.68,-138.58"/>
</a>
</g>
</g>
<!-- Node8 -->
<g id="Node000008" class="node">
<title>Node8</title>
<g id="a_Node000008"><a xlink:href="adrv904x_2src_2examples_2basic__example_2basic__example_8c.html#ac5f0064cb4ac7ddab3ec02b10217b456" target="_top" xlink:title="Basic example main execution.">
<polygon fill="white" stroke="#666666" points="489,-167 369,-167 369,-148 489,-148 489,-167"/>
<text text-anchor="middle" x="429" y="-155" font-family="Helvetica,sans-Serif" font-size="10.00">basic_example_main</text>
</a>
</g>
</g>
<!-- Node3&#45;&gt;Node8 -->
<g id="edge8_Node000003_Node000008" class="edge">
<title>Node3&#45;&gt;Node8</title>
<g id="a_edge8_Node000003_Node000008"><a xlink:title=" ">
<path fill="none" stroke="#63b8ff" d="M537.16,-131.75C515.55,-136.94 490.18,-143.04 469.55,-148"/>
<polygon fill="#63b8ff" stroke="#63b8ff" points="538.21,-135.1 547.11,-129.36 536.57,-128.3 538.21,-135.1"/>
</a>
</g>
</g>
<!-- Node9 -->
<g id="Node000009" class="node">
<title>Node9</title>
<g id="a_Node000009"><a xlink:href="adrv904x_2src_2examples_2dma__example_2dma__example_8c.html#a6fab3c4f8551a0a277a9058ddb0f1914" target="_top" xlink:title="DMA example main execution.">
<polygon fill="white" stroke="#666666" points="487,-130 371,-130 371,-111 487,-111 487,-130"/>
<text text-anchor="middle" x="429" y="-118" font-family="Helvetica,sans-Serif" font-size="10.00">dma_example_main</text>
</a>
</g>
</g>
<!-- Node3&#45;&gt;Node9 -->
<g id="edge9_Node000003_Node000009" class="edge">
<title>Node3&#45;&gt;Node9</title>
<g id="a_edge9_Node000003_Node000009"><a xlink:title=" ">
<path fill="none" stroke="#63b8ff" d="M537.07,-120.5C521.29,-120.5 503.51,-120.5 487.04,-120.5"/>
<polygon fill="#63b8ff" stroke="#63b8ff" points="537.11,-124 547.11,-120.5 537.11,-117 537.11,-124"/>
</a>
</g>
</g>
<!-- Node10 -->
<g id="Node000010" class="node">
<title>Node10</title>
<g id="a_Node000010"><a xlink:href="adrv904x_2src_2examples_2iio__example_2iio__example_8c.html#a692b15b864d48091dc3d7095bea120b4" target="_top" xlink:title="IIO example main execution.">
<polygon fill="white" stroke="#666666" points="482.5,-93 375.5,-93 375.5,-74 482.5,-74 482.5,-93"/>
<text text-anchor="middle" x="429" y="-81" font-family="Helvetica,sans-Serif" font-size="10.00">iio_example_main</text>
</a>
</g>
</g>
<!-- Node3&#45;&gt;Node10 -->
<g id="edge10_Node000003_Node000010" class="edge">
<title>Node3&#45;&gt;Node10</title>
<g id="a_edge10_Node000003_Node000010"><a xlink:title=" ">
<path fill="none" stroke="#63b8ff" d="M537.16,-109.25C515.55,-104.06 490.18,-97.96 469.55,-93"/>
<polygon fill="#63b8ff" stroke="#63b8ff" points="536.57,-112.7 547.11,-111.64 538.21,-105.9 536.57,-112.7"/>
</a>
</g>
</g>
<!-- Node11 -->
<g id="Node000011" class="node">
<title>Node11</title>
<g id="a_Node000011"><a xlink:href="ad9371_2src_2app_2headless_8c.html#a840291bc02cba5474a4cb46a9b9566fe" target="_top" xlink:title="main">
<polygon fill="white" stroke="#666666" points="449.5,-56 408.5,-56 408.5,-37 449.5,-37 449.5,-56"/>
<text text-anchor="middle" x="429" y="-44" font-family="Helvetica,sans-Serif" font-size="10.00">main</text>
</a>
</g>
</g>
<!-- Node3&#45;&gt;Node11 -->
<g id="edge11_Node000003_Node000011" class="edge">
<title>Node3&#45;&gt;Node11</title>
<g id="a_edge11_Node000003_Node000011"><a xlink:title=" ">
<path fill="none" stroke="#63b8ff" d="M537.53,-108.8C533.16,-106.98 528.91,-104.89 525,-102.5 505.41,-90.55 508.5,-77.6 489,-65.5 476.93,-58.01 461.62,-53.19 449.62,-50.28"/>
<polygon fill="#63b8ff" stroke="#63b8ff" points="536.61,-112.19 547.2,-112.4 539.05,-105.63 536.61,-112.19"/>
</a>
</g>
</g>
<!-- Node5 -->
<g id="Node000005" class="node">
<title>Node5</title>
<g id="a_Node000005"><a xlink:href="ad3552r_8c.html#ae80ba21fae1f11883703b87a0bb676e2" target="_top" xlink:title=" ">
<polygon fill="white" stroke="#666666" points="333,-204 256,-204 256,-185 333,-185 333,-204"/>
<text text-anchor="middle" x="294.5" y="-192" font-family="Helvetica,sans-Serif" font-size="10.00">ad3552r_init</text>
</a>
</g>
</g>
<!-- Node4&#45;&gt;Node5 -->
<g id="edge4_Node000004_Node000005" class="edge">
<title>Node4&#45;&gt;Node5</title>
<g id="a_edge4_Node000004_Node000005"><a xlink:title=" ">
<path fill="none" stroke="#63b8ff" d="M369.53,-194.5C357.16,-194.5 344.43,-194.5 333.08,-194.5"/>
<polygon fill="#63b8ff" stroke="#63b8ff" points="369.79,-198 379.79,-194.5 369.79,-191 369.79,-198"/>
</a>
</g>
</g>
<!-- Node6 -->
<g id="Node000006" class="node">
<title>Node6</title>
<g id="a_Node000006"><a xlink:href="axi__qspi__example_8c.html#ac25cbf8ae523e89cb0617e68c98bc697" target="_top" xlink:title="Basic example main execution.">
<polygon fill="white" stroke="#666666" points="89,-204 0,-204 0,-185 89,-185 89,-204"/>
<text text-anchor="middle" x="44.5" y="-192" font-family="Helvetica,sans-Serif" font-size="10.00">example_main</text>
</a>
</g>
</g>
<!-- Node5&#45;&gt;Node6 -->
<g id="edge5_Node000005_Node000006" class="edge">
<title>Node5&#45;&gt;Node6</title>
<g id="a_edge5_Node000005_Node000006"><a xlink:title=" ">
<path fill="none" stroke="#63b8ff" d="M245.7,-194.5C200.5,-194.5 133.25,-194.5 89.39,-194.5"/>
<polygon fill="#63b8ff" stroke="#63b8ff" points="245.83,-198 255.83,-194.5 245.83,-191 245.83,-198"/>
</a>
</g>
</g>
<!-- Node7 -->
<g id="Node000007" class="node">
<title>Node7</title>
<g id="a_Node000007"><a xlink:href="iio__ad3552r_8c.html#a690d5a4cec9b9316e0d635113c09e9d6" target="_top" xlink:title=" ">
<polygon fill="white" stroke="#666666" points="220,-185 125,-185 125,-166 220,-166 220,-185"/>
<text text-anchor="middle" x="172.5" y="-173" font-family="Helvetica,sans-Serif" font-size="10.00">iio_ad3552r_init</text>
</a>
</g>
</g>
<!-- Node5&#45;&gt;Node7 -->
<g id="edge6_Node000005_Node000007" class="edge">
<title>Node5&#45;&gt;Node7</title>
<g id="a_edge6_Node000005_Node000007"><a xlink:title=" ">
<path fill="none" stroke="#63b8ff" d="M245.82,-186.95C237.42,-185.62 228.68,-184.24 220.3,-182.91"/>
<polygon fill="#63b8ff" stroke="#63b8ff" points="245.44,-190.43 255.86,-188.54 246.53,-183.52 245.44,-190.43"/>
</a>
</g>
</g>
<!-- Node7&#45;&gt;Node6 -->
<g id="edge7_Node000007_Node000006" class="edge">
<title>Node7&#45;&gt;Node6</title>
<g id="a_edge7_Node000007_Node000006"><a xlink:title=" ">
<path fill="none" stroke="#63b8ff" d="M114.97,-184.02C106.38,-185.32 97.63,-186.64 89.36,-187.89"/>
<polygon fill="#63b8ff" stroke="#63b8ff" points="115.57,-187.47 124.94,-182.52 114.53,-180.55 115.57,-187.47"/>
</a>
</g>
</g>
</g>
</svg>
