<?xml version="1.0" encoding="UTF-8" standalone="no"?>
<!DOCTYPE svg PUBLIC "-//W3C//DTD SVG 1.1//EN"
 "http://www.w3.org/Graphics/SVG/1.1/DTD/svg11.dtd">
<!-- Generated by graphviz version 2.43.0 (0)
 -->
<!-- Title: axi_jesd204_tx_write Pages: 1 -->
<!--zoomable 196 -->

<svg id="main" version="1.1" xmlns="http://www.w3.org/2000/svg" xmlns:xlink="http://www.w3.org/1999/xlink" xml:space="preserve" onload="init(evt)">

<style type="text/css"><![CDATA[
.node, .edge {opacity: 0.7;}
.node.selected, .edge.selected {opacity: 1;}
.edge:hover path { stroke: red; }
.edge:hover polygon { stroke: red; fill: red; }
]]></style>

<defs>
  <circle id="rim" cx="0" cy="0" r="7"/>
  <circle id="rim2" cx="0" cy="0" r="3.5"/>
  <g id="zoomPlus">
    <use xlink:href="#rim" fill="#404040"><set attributeName="fill" to="#808080" begin="zoomplus.mouseover" end="zoomplus.mouseout"/></use>
    <path d="M-4,0h8M0,-4v8" fill="none" stroke="white" stroke-width="1.5" pointer-events="none"/>
  </g>
  <g id="zoomMin">
    <use xlink:href="#rim" fill="#404040"><set attributeName="fill" to="#808080" begin="zoomminus.mouseover" end="zoomminus.mouseout"/></use>
    <path d="M-4,0h8" fill="none" stroke="white" stroke-width="1.5" pointer-events="none"/>
  </g>
  <g id="arrowUp" transform="translate(30 24)">
    <use xlink:href="#rim"/>
    <path pointer-events="none" fill="none" stroke="white" stroke-width="1.5" d="M0,-3.0v7 M-2.5,-0.5L0,-3.0L2.5,-0.5"/>
  </g>
  <g id="arrowRight" transform="rotate(90) translate(36 -43)">
    <use xlink:href="#rim"/>
    <path pointer-events="none" fill="none" stroke="white" stroke-width="1.5" d="M0,-3.0v7 M-2.5,-0.5L0,-3.0L2.5,-0.5"/>
  </g>
  <g id="arrowDown" transform="rotate(180) translate(-30 -48)">
    <use xlink:href="#rim"/>
    <path pointer-events="none" fill="none" stroke="white" stroke-width="1.5" d="M0,-3.0v7 M-2.5,-0.5L0,-3.0L2.5,-0.5"/>
  </g>
  <g id="arrowLeft" transform="rotate(270) translate(-36 17)">
    <use xlink:href="#rim"/>
    <path pointer-events="none" fill="none" stroke="white" stroke-width="1.5" d="M0,-3.0v7 M-2.5,-0.5L0,-3.0L2.5,-0.5"/>
  </g>
  <g id="resetDef">
    <use xlink:href="#rim2" fill="#404040"><set attributeName="fill" to="#808080" begin="reset.mouseover" end="reset.mouseout"/></use>
  </g>
</defs>
<script type="application/ecmascript">
var viewWidth = 837;
var viewHeight = 196;
var sectionId = 'dynsection-11';
</script>
<script type="application/ecmascript" xlink:href="svg.min.js"/>
<svg id="graph" class="graph">
<g id="viewport">
<title>axi_jesd204_tx_write</title>
<!-- Node1 -->
<g id="Node000001" class="node">
<title>Node1</title>
<g id="a_Node000001"><a xlink:title="JESD204 TX AXI Data Write.">
<polygon fill="#999999" stroke="#666666" points="829,-101.5 709,-101.5 709,-82.5 829,-82.5 829,-101.5"/>
<text text-anchor="middle" x="769" y="-89.5" font-family="Helvetica,sans-Serif" font-size="10.00">axi_jesd204_tx_write</text>
</a>
</g>
</g>
<!-- Node2 -->
<g id="Node000002" class="node">
<title>Node2</title>
<g id="a_Node000002"><a xlink:href="axi__jesd204__tx_8c.html#ada0e2f9c1d3b043a17a479f579dd3702" target="_top" xlink:title="Apply the JESD204 TX configuration.">
<polygon fill="white" stroke="#666666" points="673,-188 551,-188 551,-158 673,-158 673,-188"/>
<text text-anchor="start" x="559" y="-176" font-family="Helvetica,sans-Serif" font-size="10.00">axi_jesd204_tx_apply</text>
<text text-anchor="middle" x="612" y="-165" font-family="Helvetica,sans-Serif" font-size="10.00">_config</text>
</a>
</g>
</g>
<!-- Node1&#45;&gt;Node2 -->
<g id="edge1_Node000001_Node000002" class="edge">
<title>Node1&#45;&gt;Node2</title>
<g id="a_edge1_Node000001_Node000002"><a xlink:title=" ">
<path fill="none" stroke="#63b8ff" d="M742.04,-106.67C723.05,-117.29 696.6,-131.85 673,-144 663.95,-148.66 654.03,-153.54 644.91,-157.95"/>
<polygon fill="#63b8ff" stroke="#63b8ff" points="743.97,-109.6 750.98,-101.66 740.54,-103.5 743.97,-109.6"/>
</a>
</g>
</g>
<!-- Node3 -->
<g id="Node000003" class="node">
<title>Node3</title>
<g id="a_Node000003"><a xlink:href="axi__jesd204__tx_8c.html#a6603539af6450d0d9b86c3510fd252bb" target="_top" xlink:title="Apply the JESD204 TX configuration.">
<polygon fill="white" stroke="#666666" points="515,-30 393,-30 393,0 515,0 515,-30"/>
<text text-anchor="start" x="401" y="-18" font-family="Helvetica,sans-Serif" font-size="10.00">axi_jesd204_tx_apply</text>
<text text-anchor="middle" x="454" y="-7" font-family="Helvetica,sans-Serif" font-size="10.00">_config_legacy</text>
</a>
</g>
</g>
<!-- Node1&#45;&gt;Node3 -->
<g id="edge2_Node000001_Node000003" class="edge">
<title>Node1&#45;&gt;Node3</title>
<g id="a_edge2_Node000001_Node000003"><a xlink:title=" ">
<path fill="none" stroke="#63b8ff" d="M750.78,-75.17C732.96,-58.97 703.52,-35.46 673,-25 621.92,-7.5 560.16,-6.39 515.44,-8.84"/>
<polygon fill="#63b8ff" stroke="#63b8ff" points="748.85,-78.16 758.54,-82.44 753.63,-73.05 748.85,-78.16"/>
</a>
</g>
</g>
<!-- Node8 -->
<g id="Node000008" class="node">
<title>Node8</title>
<g id="a_Node000008"><a xlink:href="axi__jesd204__tx_8c.html#a0e7ac652ad5c770a68c961937ffb2616" target="_top" xlink:title="JESD204 TX Lane Clock Disable.">
<polygon fill="white" stroke="#666666" points="512,-94 396,-94 396,-64 512,-64 512,-94"/>
<text text-anchor="start" x="404" y="-82" font-family="Helvetica,sans-Serif" font-size="10.00">axi_jesd204_tx_lane</text>
<text text-anchor="middle" x="454" y="-71" font-family="Helvetica,sans-Serif" font-size="10.00">_clk_disable</text>
</a>
</g>
</g>
<!-- Node1&#45;&gt;Node8 -->
<g id="edge7_Node000001_Node000008" class="edge">
<title>Node1&#45;&gt;Node8</title>
<g id="a_edge7_Node000001_Node000008"><a xlink:title=" ">
<path fill="none" stroke="#63b8ff" d="M698.56,-89.12C642.52,-86.79 564.63,-83.55 512.15,-81.37"/>
<polygon fill="#63b8ff" stroke="#63b8ff" points="698.62,-92.62 708.76,-89.54 698.91,-85.63 698.62,-92.62"/>
</a>
</g>
</g>
<!-- Node11 -->
<g id="Node000011" class="node">
<title>Node11</title>
<g id="a_Node000011"><a xlink:href="axi__jesd204__tx_8c.html#a5f4507c3a591b6be925662837b44f2c4" target="_top" xlink:title="JESD204 TX Lane Clock Enable.">
<polygon fill="white" stroke="#666666" points="357,-154 241,-154 241,-124 357,-124 357,-154"/>
<text text-anchor="start" x="249" y="-142" font-family="Helvetica,sans-Serif" font-size="10.00">axi_jesd204_tx_lane</text>
<text text-anchor="middle" x="299" y="-131" font-family="Helvetica,sans-Serif" font-size="10.00">_clk_enable</text>
</a>
</g>
</g>
<!-- Node1&#45;&gt;Node11 -->
<g id="edge12_Node000001_Node000011" class="edge">
<title>Node1&#45;&gt;Node11</title>
<g id="a_edge12_Node000001_Node000011"><a xlink:title=" ">
<path fill="none" stroke="#63b8ff" d="M698.61,-98.97C605.92,-108.28 443.44,-124.6 357.33,-133.24"/>
<polygon fill="#63b8ff" stroke="#63b8ff" points="699.13,-102.43 708.73,-97.95 698.43,-95.47 699.13,-102.43"/>
</a>
</g>
</g>
<!-- Node14 -->
<g id="Node000014" class="node">
<title>Node14</title>
<g id="a_Node000014"><a xlink:href="axi__jesd204__tx_8c.html#ad5701d79980ee78b16666a0bd5401f3a" target="_top" xlink:title="Set the JESD204 TX lane ILAS.">
<polygon fill="white" stroke="#666666" points="667,-64 557,-64 557,-34 667,-34 667,-64"/>
<text text-anchor="start" x="565" y="-52" font-family="Helvetica,sans-Serif" font-size="10.00">axi_jesd204_tx_set</text>
<text text-anchor="middle" x="612" y="-41" font-family="Helvetica,sans-Serif" font-size="10.00">_lane_ilas_legacy</text>
</a>
</g>
</g>
<!-- Node1&#45;&gt;Node14 -->
<g id="edge18_Node000001_Node000014" class="edge">
<title>Node1&#45;&gt;Node14</title>
<g id="a_edge18_Node000001_Node000014"><a xlink:title=" ">
<path fill="none" stroke="#63b8ff" d="M723.59,-79.68C705.98,-74.79 685.56,-69.13 667.09,-64.01"/>
<polygon fill="#63b8ff" stroke="#63b8ff" points="723.03,-83.16 733.6,-82.46 724.9,-76.41 723.03,-83.16"/>
</a>
</g>
</g>
<!-- Node4 -->
<g id="Node000004" class="node">
<title>Node4</title>
<g id="a_Node000004"><a xlink:href="axi__jesd204__tx_8c.html#a72e9f5e921624e8ca238a53f0e611d4d" target="_top" xlink:title="Device initialization.">
<polygon fill="white" stroke="#666666" points="354.5,-30 243.5,-30 243.5,0 354.5,0 354.5,-30"/>
<text text-anchor="start" x="251.5" y="-18" font-family="Helvetica,sans-Serif" font-size="10.00">axi_jesd204_tx_init</text>
<text text-anchor="middle" x="299" y="-7" font-family="Helvetica,sans-Serif" font-size="10.00">_legacy</text>
</a>
</g>
</g>
<!-- Node3&#45;&gt;Node4 -->
<g id="edge3_Node000003_Node000004" class="edge">
<title>Node3&#45;&gt;Node4</title>
<g id="a_edge3_Node000003_Node000004"><a xlink:title=" ">
<path fill="none" stroke="#63b8ff" d="M382.86,-15C373.47,-15 363.95,-15 354.87,-15"/>
<polygon fill="#63b8ff" stroke="#63b8ff" points="382.97,-18.5 392.97,-15 382.97,-11.5 382.97,-18.5"/>
</a>
</g>
</g>
<!-- Node5 -->
<g id="Node000005" class="node">
<title>Node5</title>
<g id="a_Node000005"><a xlink:href="adrv9009_2src_2app_2app__jesd_8c.html#ae5553405b03de1193a617ca30d31a455" target="_top" xlink:title=" ">
<polygon fill="white" stroke="#666666" points="170,-26.5 112,-26.5 112,-7.5 170,-7.5 170,-26.5"/>
<text text-anchor="middle" x="141" y="-14.5" font-family="Helvetica,sans-Serif" font-size="10.00">jesd_init</text>
</a>
</g>
</g>
<!-- Node4&#45;&gt;Node5 -->
<g id="edge4_Node000004_Node000005" class="edge">
<title>Node4&#45;&gt;Node5</title>
<g id="a_edge4_Node000004_Node000005"><a xlink:title=" ">
<path fill="none" stroke="#63b8ff" d="M233.41,-15.83C211.29,-16.11 187.7,-16.41 170.02,-16.64"/>
<polygon fill="#63b8ff" stroke="#63b8ff" points="233.48,-19.33 243.44,-15.7 233.39,-12.33 233.48,-19.33"/>
</a>
</g>
</g>
<!-- Node7 -->
<g id="Node000007" class="node">
<title>Node7</title>
<g id="a_Node000007"><a xlink:href="ad9371_2src_2app_2headless_8c.html#a840291bc02cba5474a4cb46a9b9566fe" target="_top" xlink:title="main">
<polygon fill="white" stroke="#666666" points="161.5,-66.5 120.5,-66.5 120.5,-47.5 161.5,-47.5 161.5,-66.5"/>
<text text-anchor="middle" x="141" y="-54.5" font-family="Helvetica,sans-Serif" font-size="10.00">main</text>
</a>
</g>
</g>
<!-- Node4&#45;&gt;Node7 -->
<g id="edge6_Node000004_Node000007" class="edge">
<title>Node4&#45;&gt;Node7</title>
<g id="a_edge6_Node000004_Node000007"><a xlink:title=" ">
<path fill="none" stroke="#63b8ff" d="M233.67,-32.32C207.87,-39.27 180,-46.77 161.85,-51.66"/>
<polygon fill="#63b8ff" stroke="#63b8ff" points="234.69,-35.67 243.44,-29.69 232.87,-28.91 234.69,-35.67"/>
</a>
</g>
</g>
<!-- Node6 -->
<g id="Node000006" class="node">
<title>Node6</title>
<g id="a_Node000006"><a xlink:href="headless__arm_8c.html#a840291bc02cba5474a4cb46a9b9566fe" target="_top" xlink:title=" ">
<polygon fill="white" stroke="#666666" points="41,-105.5 0,-105.5 0,-86.5 41,-86.5 41,-105.5"/>
<text text-anchor="middle" x="20.5" y="-93.5" font-family="Helvetica,sans-Serif" font-size="10.00">main</text>
</a>
</g>
</g>
<!-- Node5&#45;&gt;Node6 -->
<g id="edge5_Node000005_Node000006" class="edge">
<title>Node5&#45;&gt;Node6</title>
<g id="a_edge5_Node000005_Node000006"><a xlink:title=" ">
<path fill="none" stroke="#63b8ff" d="M102.16,-26.31C93.52,-29.31 84.64,-33.16 77,-38 56.28,-51.12 37.82,-73.62 28.3,-86.39"/>
<polygon fill="#63b8ff" stroke="#63b8ff" points="103.26,-29.63 111.72,-23.26 101.13,-22.96 103.26,-29.63"/>
</a>
</g>
</g>
<!-- Node8&#45;&gt;Node4 -->
<g id="edge8_Node000008_Node000004" class="edge">
<title>Node8&#45;&gt;Node4</title>
<g id="a_edge8_Node000008_Node000004"><a xlink:title=" ">
<path fill="none" stroke="#63b8ff" d="M407.62,-60.02C384.72,-50.44 357.33,-38.98 335.91,-30.02"/>
<polygon fill="#63b8ff" stroke="#63b8ff" points="406.55,-63.36 417.13,-63.99 409.25,-56.91 406.55,-63.36"/>
</a>
</g>
</g>
<!-- Node9 -->
<g id="Node000009" class="node">
<title>Node9</title>
<g id="a_Node000009"><a xlink:href="jesd204__clk_8c.html#ac6c34646d1c05b88bf73af88f24bf6c4" target="_top" xlink:title=" ">
<polygon fill="white" stroke="#666666" points="356.5,-67.5 241.5,-67.5 241.5,-48.5 356.5,-48.5 356.5,-67.5"/>
<text text-anchor="middle" x="299" y="-55.5" font-family="Helvetica,sans-Serif" font-size="10.00">jesd204_clk_disable</text>
</a>
</g>
</g>
<!-- Node8&#45;&gt;Node9 -->
<g id="edge9_Node000008_Node000009" class="edge">
<title>Node8&#45;&gt;Node9</title>
<g id="a_edge9_Node000008_Node000009"><a xlink:title=" ">
<path fill="none" stroke="#63b8ff" d="M385.63,-69.75C375.98,-68.43 366.13,-67.08 356.71,-65.78"/>
<polygon fill="#63b8ff" stroke="#63b8ff" points="385.21,-73.23 395.59,-71.12 386.16,-66.29 385.21,-73.23"/>
</a>
</g>
</g>
<!-- Node10 -->
<g id="Node000010" class="node">
<title>Node10</title>
<g id="a_Node000010"><a xlink:href="app__talise_8c.html#a51c2ee9f37b849d981c6de38835f5eca" target="_top" xlink:title=" ">
<polygon fill="white" stroke="#666666" points="205,-105.5 77,-105.5 77,-86.5 205,-86.5 205,-105.5"/>
<text text-anchor="middle" x="141" y="-93.5" font-family="Helvetica,sans-Serif" font-size="10.00">talise_multi_chip_sync</text>
</a>
</g>
</g>
<!-- Node8&#45;&gt;Node10 -->
<g id="edge10_Node000008_Node000010" class="edge">
<title>Node8&#45;&gt;Node10</title>
<g id="a_edge10_Node000008_Node000010"><a xlink:title=" ">
<path fill="none" stroke="#63b8ff" d="M385.86,-82.67C332.24,-85.6 257.63,-89.68 205.1,-92.55"/>
<polygon fill="#63b8ff" stroke="#63b8ff" points="386.16,-86.16 395.96,-82.12 385.78,-79.17 386.16,-86.16"/>
</a>
</g>
</g>
<!-- Node10&#45;&gt;Node6 -->
<g id="edge11_Node000010_Node000006" class="edge">
<title>Node10&#45;&gt;Node6</title>
<g id="a_edge11_Node000010_Node000006"><a xlink:title=" ">
<path fill="none" stroke="#63b8ff" d="M66.64,-96C57.29,-96 48.43,-96 41.09,-96"/>
<polygon fill="#63b8ff" stroke="#63b8ff" points="66.93,-99.5 76.93,-96 66.93,-92.5 66.93,-99.5"/>
</a>
</g>
</g>
<!-- Node11&#45;&gt;Node7 -->
<g id="edge14_Node000011_Node000007" class="edge">
<title>Node11&#45;&gt;Node7</title>
<g id="a_edge14_Node000011_Node000007"><a xlink:title=" ">
<path fill="none" stroke="#63b8ff" d="M270.42,-117.61C252.53,-104.52 228.3,-88.19 205,-77 191.03,-70.29 174.28,-65.1 161.56,-61.69"/>
<polygon fill="#63b8ff" stroke="#63b8ff" points="268.54,-120.58 278.66,-123.74 272.72,-114.97 268.54,-120.58"/>
</a>
</g>
</g>
<!-- Node11&#45;&gt;Node10 -->
<g id="edge15_Node000011_Node000010" class="edge">
<title>Node11&#45;&gt;Node10</title>
<g id="a_edge15_Node000011_Node000010"><a xlink:title=" ">
<path fill="none" stroke="#63b8ff" d="M233.69,-121.27C214.21,-115.9 193.55,-110.21 176.78,-105.59"/>
<polygon fill="#63b8ff" stroke="#63b8ff" points="232.87,-124.68 243.44,-123.96 234.73,-117.93 232.87,-124.68"/>
</a>
</g>
</g>
<!-- Node12 -->
<g id="Node000012" class="node">
<title>Node12</title>
<g id="a_Node000012"><a xlink:href="jesd204__clk_8c.html#a6e197a63ac1e02eb48611524cfe27f67" target="_top" xlink:title=" ">
<polygon fill="white" stroke="#666666" points="197.5,-179.5 84.5,-179.5 84.5,-160.5 197.5,-160.5 197.5,-179.5"/>
<text text-anchor="middle" x="141" y="-167.5" font-family="Helvetica,sans-Serif" font-size="10.00">jesd204_clk_enable</text>
</a>
</g>
</g>
<!-- Node11&#45;&gt;Node12 -->
<g id="edge13_Node000011_Node000012" class="edge">
<title>Node11&#45;&gt;Node12</title>
<g id="a_edge13_Node000011_Node000012"><a xlink:title=" ">
<path fill="none" stroke="#63b8ff" d="M230.88,-152.34C217.12,-155.07 202.9,-157.9 189.97,-160.47"/>
<polygon fill="#63b8ff" stroke="#63b8ff" points="231.67,-155.75 240.8,-150.37 230.31,-148.88 231.67,-155.75"/>
</a>
</g>
</g>
<!-- Node13 -->
<g id="Node000013" class="node">
<title>Node13</title>
<g id="a_Node000013"><a xlink:href="app__talise_8c.html#a887ab26824e71cac7ea00bd35ab73c18" target="_top" xlink:title=" ">
<polygon fill="white" stroke="#666666" points="179,-142.5 103,-142.5 103,-123.5 179,-123.5 179,-142.5"/>
<text text-anchor="middle" x="141" y="-130.5" font-family="Helvetica,sans-Serif" font-size="10.00">talise_setup</text>
</a>
</g>
</g>
<!-- Node11&#45;&gt;Node13 -->
<g id="edge16_Node000011_Node000013" class="edge">
<title>Node11&#45;&gt;Node13</title>
<g id="a_edge16_Node000011_Node000013"><a xlink:title=" ">
<path fill="none" stroke="#63b8ff" d="M230.56,-136.41C212.97,-135.73 194.66,-135.03 179.29,-134.43"/>
<polygon fill="#63b8ff" stroke="#63b8ff" points="230.67,-139.91 240.8,-136.8 230.94,-132.92 230.67,-139.91"/>
</a>
</g>
</g>
<!-- Node13&#45;&gt;Node6 -->
<g id="edge17_Node000013_Node000006" class="edge">
<title>Node13&#45;&gt;Node6</title>
<g id="a_edge17_Node000013_Node000006"><a xlink:title=" ">
<path fill="none" stroke="#63b8ff" d="M95.56,-120.61C89.31,-118.78 82.98,-116.88 77,-115 65.05,-111.25 51.77,-106.72 41.2,-103.02"/>
<polygon fill="#63b8ff" stroke="#63b8ff" points="94.67,-124 105.24,-123.42 96.61,-117.27 94.67,-124"/>
</a>
</g>
</g>
<!-- Node14&#45;&gt;Node3 -->
<g id="edge19_Node000014_Node000003" class="edge">
<title>Node14&#45;&gt;Node3</title>
<g id="a_edge19_Node000014_Node000003"><a xlink:title=" ">
<path fill="none" stroke="#63b8ff" d="M546.94,-35.04C536.43,-32.75 525.57,-30.38 515.16,-28.11"/>
<polygon fill="#63b8ff" stroke="#63b8ff" points="546.36,-38.49 556.88,-37.2 547.85,-31.65 546.36,-38.49"/>
</a>
</g>
</g>
</g>
</svg>

<g id="navigator" transform="translate(0 0)" fill="#404254">
  <rect fill="#f2f5e9" fill-opacity="0.5" stroke="#606060" stroke-width=".5" x="0" y="0" width="60" height="60"/>
  <use id="zoomplus" xlink:href="#zoomPlus" x="17" y="9" onmousedown="handleZoom(evt,'in')"/>
  <use id="zoomminus" xlink:href="#zoomMin" x="42" y="9" onmousedown="handleZoom(evt,'out')"/>
  <use id="reset" xlink:href="#resetDef" x="30" y="36" onmousedown="handleReset()"/>
   <use id="arrowup" xlink:href="#arrowUp" x="0" y="0" onmousedown="handlePan(0,-1)"/>
  <use id="arrowright" xlink:href="#arrowRight" x="0" y="0" onmousedown="handlePan(1,0)"/>
  <use id="arrowdown" xlink:href="#arrowDown" x="0" y="0" onmousedown="handlePan(0,1)"/>
  <use id="arrowleft" xlink:href="#arrowLeft" x="0" y="0" onmousedown="handlePan(-1,0)"/>
</g>
<svg viewBox="0 0 15 15" width="100%" height="30px" preserveAspectRatio="xMaxYMin meet">
 <g id="arrow_out" transform="scale(0.3 0.3)">
  <a xlink:href="axi__jesd204__tx_8c_a90227c9954bcd5fee12087d6ae361a56_icgraph_org.svg" target="_base">
   <rect id="button" ry="5" rx="5" y="6" x="6" height="38" width="38"
        fill="#f2f5e9" fill-opacity="0.5" stroke="#606060" stroke-width="1.0"/>
   <path id="arrow"
     d="M 11.500037,31.436501 C 11.940474,20.09759 22.043105,11.32322 32.158766,21.979434 L 37.068811,17.246167 C 37.068811,17.246167 37.088388,32 37.088388,32 L 22.160133,31.978069 C 22.160133,31.978069 26.997745,27.140456 26.997745,27.140456 C 18.528582,18.264221 13.291696,25.230495 11.500037,31.436501 z"
     style="fill:#404040;"/>
  </a>
 </g>
</svg>

<style type='text/css'>
<![CDATA[
[data-mouse-over-selected='false'] { opacity: 0.7; }
[data-mouse-over-selected='true']  { opacity: 1.0; }
]]>
</style>
<script type="application/ecmascript"><![CDATA[
document.addEventListener('DOMContentLoaded', (event) => {
  highlightEdges();
  highlightAdjacentNodes();
});
]]></script>
</svg>
