<?xml version="1.0" encoding="UTF-8" standalone="no"?>
<!DOCTYPE svg PUBLIC "-//W3C//DTD SVG 1.1//EN"
 "http://www.w3.org/Graphics/SVG/1.1/DTD/svg11.dtd">
<!-- Generated by graphviz version 2.43.0 (0)
 -->
<!-- Title: axi_adc_remove Pages: 1 -->
<svg width="527pt" height="232pt"
 viewBox="0.00 0.00 527.00 232.00" xmlns="http://www.w3.org/2000/svg" xmlns:xlink="http://www.w3.org/1999/xlink">
<g id="graph0" class="graph" transform="scale(1 1) rotate(0) translate(4 228)">
<title>axi_adc_remove</title>
<!-- Node1 -->
<g id="Node000001" class="node">
<title>Node1</title>
<g id="a_Node000001"><a xlink:title="AXI ADC Resources deallocation.">
<polygon fill="#999999" stroke="#666666" points="519,-111 422,-111 422,-92 519,-92 519,-111"/>
<text text-anchor="middle" x="470.5" y="-99" font-family="Helvetica,sans-Serif" font-size="10.00">axi_adc_remove</text>
</a>
</g>
</g>
<!-- Node2 -->
<g id="Node000002" class="node">
<title>Node2</title>
<g id="a_Node000002"><a xlink:href="ad796x_8c.html#abd440e98810ef648a03653bb6ba5046b" target="_top" xlink:title="Remove the device and release resources.">
<polygon fill="white" stroke="#666666" points="373.5,-205 278.5,-205 278.5,-186 373.5,-186 373.5,-205"/>
<text text-anchor="middle" x="326" y="-193" font-family="Helvetica,sans-Serif" font-size="10.00">ad796x_remove</text>
</a>
</g>
</g>
<!-- Node1&#45;&gt;Node2 -->
<g id="edge1_Node000001_Node000002" class="edge">
<title>Node1&#45;&gt;Node2</title>
<g id="a_edge1_Node000001_Node000002"><a xlink:title=" ">
<path fill="none" stroke="#63b8ff" d="M454.44,-118.73C438.84,-135.6 413,-160.98 386,-176.5 379.47,-180.25 372.1,-183.38 364.84,-185.93"/>
<polygon fill="#63b8ff" stroke="#63b8ff" points="457.13,-120.97 461.23,-111.2 451.93,-116.28 457.13,-120.97"/>
</a>
</g>
</g>
<!-- Node6 -->
<g id="Node000006" class="node">
<title>Node6</title>
<g id="a_Node000006"><a xlink:href="adrv902x_2src_2examples_2basic__example_2basic__example_8c.html#ac5f0064cb4ac7ddab3ec02b10217b456" target="_top" xlink:title="Basic example main execution.">
<polygon fill="white" stroke="#666666" points="386,-167 266,-167 266,-148 386,-148 386,-167"/>
<text text-anchor="middle" x="326" y="-155" font-family="Helvetica,sans-Serif" font-size="10.00">basic_example_main</text>
</a>
</g>
</g>
<!-- Node1&#45;&gt;Node6 -->
<g id="edge7_Node000001_Node000006" class="edge">
<title>Node1&#45;&gt;Node6</title>
<g id="a_edge7_Node000001_Node000006"><a xlink:title=" ">
<path fill="none" stroke="#63b8ff" d="M440.21,-115.39C424.34,-122.68 404.28,-131.53 386,-138.5 377.25,-141.84 367.64,-145.1 358.75,-147.95"/>
<polygon fill="#63b8ff" stroke="#63b8ff" points="441.9,-118.46 449.5,-111.08 438.96,-112.11 441.9,-118.46"/>
</a>
</g>
</g>
<!-- Node7 -->
<g id="Node000007" class="node">
<title>Node7</title>
<g id="a_Node000007"><a xlink:href="adrv902x_2src_2examples_2dma__example_2dma__example_8c.html#a6fab3c4f8551a0a277a9058ddb0f1914" target="_top" xlink:title="DMA example main execution.">
<polygon fill="white" stroke="#666666" points="384,-130 268,-130 268,-111 384,-111 384,-130"/>
<text text-anchor="middle" x="326" y="-118" font-family="Helvetica,sans-Serif" font-size="10.00">dma_example_main</text>
</a>
</g>
</g>
<!-- Node1&#45;&gt;Node7 -->
<g id="edge8_Node000001_Node000007" class="edge">
<title>Node1&#45;&gt;Node7</title>
<g id="a_edge8_Node000001_Node000007"><a xlink:title=" ">
<path fill="none" stroke="#63b8ff" d="M411.58,-109.22C402.51,-110.43 393.15,-111.68 384.1,-112.89"/>
<polygon fill="#63b8ff" stroke="#63b8ff" points="412.2,-112.67 421.65,-107.88 411.28,-105.73 412.2,-112.67"/>
</a>
</g>
</g>
<!-- Node9 -->
<g id="Node000009" class="node">
<title>Node9</title>
<g id="a_Node000009"><a xlink:href="adrv903x_2src_2examples_2iio__example_2iio__example_8c.html#ac25cbf8ae523e89cb0617e68c98bc697" target="_top" xlink:title="IIO example main execution.">
<polygon fill="white" stroke="#666666" points="370.5,-93 281.5,-93 281.5,-74 370.5,-74 370.5,-93"/>
<text text-anchor="middle" x="326" y="-81" font-family="Helvetica,sans-Serif" font-size="10.00">example_main</text>
</a>
</g>
</g>
<!-- Node1&#45;&gt;Node9 -->
<g id="edge10_Node000001_Node000009" class="edge">
<title>Node1&#45;&gt;Node9</title>
<g id="a_edge10_Node000001_Node000009"><a xlink:title=" ">
<path fill="none" stroke="#63b8ff" d="M411.4,-94.16C397.79,-92.44 383.5,-90.64 370.64,-89.01"/>
<polygon fill="#63b8ff" stroke="#63b8ff" points="411.29,-97.68 421.65,-95.46 412.17,-90.73 411.29,-97.68"/>
</a>
</g>
</g>
<!-- Node10 -->
<g id="Node000010" class="node">
<title>Node10</title>
<g id="a_Node000010"><a xlink:href="adrv902x_2src_2examples_2iio__example_2iio__example_8c.html#a692b15b864d48091dc3d7095bea120b4" target="_top" xlink:title="IIO example main execution.">
<polygon fill="white" stroke="#666666" points="379.5,-56 272.5,-56 272.5,-37 379.5,-37 379.5,-56"/>
<text text-anchor="middle" x="326" y="-44" font-family="Helvetica,sans-Serif" font-size="10.00">iio_example_main</text>
</a>
</g>
</g>
<!-- Node1&#45;&gt;Node10 -->
<g id="edge11_Node000001_Node000010" class="edge">
<title>Node1&#45;&gt;Node10</title>
<g id="a_edge11_Node000001_Node000010"><a xlink:title=" ">
<path fill="none" stroke="#63b8ff" d="M440.57,-87.65C424.66,-80.29 404.46,-71.38 386,-64.5 377.97,-61.51 369.2,-58.63 360.93,-56.08"/>
<polygon fill="#63b8ff" stroke="#63b8ff" points="439.33,-90.93 449.87,-91.99 442.29,-84.59 439.33,-90.93"/>
</a>
</g>
</g>
<!-- Node11 -->
<g id="Node000011" class="node">
<title>Node11</title>
<g id="a_Node000011"><a xlink:href="ad7768__evb_8c.html#a840291bc02cba5474a4cb46a9b9566fe" target="_top" xlink:title="main">
<polygon fill="white" stroke="#666666" points="346.5,-19 305.5,-19 305.5,0 346.5,0 346.5,-19"/>
<text text-anchor="middle" x="326" y="-7" font-family="Helvetica,sans-Serif" font-size="10.00">main</text>
</a>
</g>
</g>
<!-- Node1&#45;&gt;Node11 -->
<g id="edge12_Node000001_Node000011" class="edge">
<title>Node1&#45;&gt;Node11</title>
<g id="a_edge12_Node000001_Node000011"><a xlink:title=" ">
<path fill="none" stroke="#63b8ff" d="M454.44,-84.43C438.85,-67.72 413.01,-42.63 386,-27.5 373.76,-20.64 358.6,-16.09 346.71,-13.28"/>
<polygon fill="#63b8ff" stroke="#63b8ff" points="451.91,-86.85 461.24,-91.88 457.08,-82.13 451.91,-86.85"/>
</a>
</g>
</g>
<!-- Node3 -->
<g id="Node000003" class="node">
<title>Node3</title>
<g id="a_Node000003"><a xlink:href="ad796x_8c.html#ac6aabcda52a1f725b70d93a6855e6aef" target="_top" xlink:title="Initialize the device.">
<polygon fill="white" stroke="#666666" points="230,-206 156,-206 156,-187 230,-187 230,-206"/>
<text text-anchor="middle" x="193" y="-194" font-family="Helvetica,sans-Serif" font-size="10.00">ad796x_init</text>
</a>
</g>
</g>
<!-- Node2&#45;&gt;Node3 -->
<g id="edge2_Node000002_Node000003" class="edge">
<title>Node2&#45;&gt;Node3</title>
<g id="a_edge2_Node000002_Node000003"><a xlink:title=" ">
<path fill="none" stroke="#63b8ff" d="M268.22,-195.93C255.29,-196.03 241.9,-196.13 230.11,-196.22"/>
<polygon fill="#63b8ff" stroke="#63b8ff" points="268.47,-199.43 278.45,-195.86 268.42,-192.43 268.47,-199.43"/>
</a>
</g>
</g>
<!-- Node4 -->
<g id="Node000004" class="node">
<title>Node4</title>
<g id="a_Node000004"><a xlink:href="ad796x__fmcz_2src_2examples_2basic__example_2basic__example_8c.html#a72943dc9011d36293cb05ca5d7cb6899" target="_top" xlink:title="BASIC example main execution.">
<polygon fill="white" stroke="#666666" points="120,-224 0,-224 0,-205 120,-205 120,-224"/>
<text text-anchor="middle" x="60" y="-212" font-family="Helvetica,sans-Serif" font-size="10.00">basic_example_main</text>
</a>
</g>
</g>
<!-- Node2&#45;&gt;Node4 -->
<g id="edge5_Node000002_Node000004" class="edge">
<title>Node2&#45;&gt;Node4</title>
<g id="a_edge5_Node000002_Node000004"><a xlink:title=" ">
<path fill="none" stroke="#63b8ff" d="M278.51,-207.3C263.17,-210.65 245.95,-213.84 230,-215.5 193.67,-219.28 152.7,-219.15 120.2,-218.02"/>
<polygon fill="#63b8ff" stroke="#63b8ff" points="279.31,-210.71 288.29,-205.09 277.76,-203.88 279.31,-210.71"/>
</a>
</g>
</g>
<!-- Node5 -->
<g id="Node000005" class="node">
<title>Node5</title>
<g id="a_Node000005"><a xlink:href="ad796x__fmcz_2src_2examples_2iio__example_2iio__example_8c.html#a7d58fb707a91d4615d3bf949fabaa1e2" target="_top" xlink:title="IIO example main execution.">
<polygon fill="white" stroke="#666666" points="113.5,-187 6.5,-187 6.5,-168 113.5,-168 113.5,-187"/>
<text text-anchor="middle" x="60" y="-175" font-family="Helvetica,sans-Serif" font-size="10.00">iio_example_main</text>
</a>
</g>
</g>
<!-- Node2&#45;&gt;Node5 -->
<g id="edge6_Node000002_Node000005" class="edge">
<title>Node2&#45;&gt;Node5</title>
<g id="a_edge6_Node000002_Node000005"><a xlink:title=" ">
<path fill="none" stroke="#63b8ff" d="M270.8,-184.15C257.52,-181.83 243.3,-179.72 230,-178.5 191.14,-174.93 147.04,-174.8 113.64,-175.5"/>
<polygon fill="#63b8ff" stroke="#63b8ff" points="270.29,-187.61 280.75,-185.96 271.54,-180.73 270.29,-187.61"/>
</a>
</g>
</g>
<!-- Node3&#45;&gt;Node4 -->
<g id="edge3_Node000003_Node000004" class="edge">
<title>Node3&#45;&gt;Node4</title>
<g id="a_edge3_Node000003_Node000004"><a xlink:title=" ">
<path fill="none" stroke="#63b8ff" d="M145.68,-202.86C137.43,-204 128.72,-205.19 120.17,-206.37"/>
<polygon fill="#63b8ff" stroke="#63b8ff" points="146.43,-206.29 155.86,-201.47 145.47,-199.36 146.43,-206.29"/>
</a>
</g>
</g>
<!-- Node3&#45;&gt;Node5 -->
<g id="edge4_Node000003_Node000005" class="edge">
<title>Node3&#45;&gt;Node5</title>
<g id="a_edge4_Node000003_Node000005"><a xlink:title=" ">
<path fill="none" stroke="#63b8ff" d="M145.76,-189.79C135.39,-188.29 124.31,-186.68 113.7,-185.14"/>
<polygon fill="#63b8ff" stroke="#63b8ff" points="145.46,-193.29 155.86,-191.26 146.46,-186.36 145.46,-193.29"/>
</a>
</g>
</g>
<!-- Node8 -->
<g id="Node000008" class="node">
<title>Node8</title>
<g id="a_Node000008"><a xlink:href="adrv902x_2src_2platform_2xilinx_2main_8c.html#ae66f6b31b5ad750f1fe042a706a4e3d4" target="_top" xlink:title="Main function execution for XILINX platform.">
<polygon fill="white" stroke="#666666" points="213.5,-130 172.5,-130 172.5,-111 213.5,-111 213.5,-130"/>
<text text-anchor="middle" x="193" y="-118" font-family="Helvetica,sans-Serif" font-size="10.00">main</text>
</a>
</g>
</g>
<!-- Node7&#45;&gt;Node8 -->
<g id="edge9_Node000007_Node000008" class="edge">
<title>Node7&#45;&gt;Node8</title>
<g id="a_edge9_Node000007_Node000008"><a xlink:title=" ">
<path fill="none" stroke="#63b8ff" d="M257.84,-120.5C241.63,-120.5 225.55,-120.5 213.58,-120.5"/>
<polygon fill="#63b8ff" stroke="#63b8ff" points="257.92,-124 267.92,-120.5 257.92,-117 257.92,-124"/>
</a>
</g>
</g>
</g>
</svg>
