<?xml version="1.0" encoding="UTF-8" standalone="no"?>
<!DOCTYPE svg PUBLIC "-//W3C//DTD SVG 1.1//EN"
 "http://www.w3.org/Graphics/SVG/1.1/DTD/svg11.dtd">
<!-- Generated by graphviz version 2.43.0 (0)
 -->
<!-- Title: axi_dac_set_datasel Pages: 1 -->
<!--zoomable 263 -->

<svg id="main" version="1.1" xmlns="http://www.w3.org/2000/svg" xmlns:xlink="http://www.w3.org/1999/xlink" xml:space="preserve" onload="init(evt)">

<style type="text/css"><![CDATA[
.node, .edge {opacity: 0.7;}
.node.selected, .edge.selected {opacity: 1;}
.edge:hover path { stroke: red; }
.edge:hover polygon { stroke: red; fill: red; }
]]></style>

<defs>
  <circle id="rim" cx="0" cy="0" r="7"/>
  <circle id="rim2" cx="0" cy="0" r="3.5"/>
  <g id="zoomPlus">
    <use xlink:href="#rim" fill="#404040"><set attributeName="fill" to="#808080" begin="zoomplus.mouseover" end="zoomplus.mouseout"/></use>
    <path d="M-4,0h8M0,-4v8" fill="none" stroke="white" stroke-width="1.5" pointer-events="none"/>
  </g>
  <g id="zoomMin">
    <use xlink:href="#rim" fill="#404040"><set attributeName="fill" to="#808080" begin="zoomminus.mouseover" end="zoomminus.mouseout"/></use>
    <path d="M-4,0h8" fill="none" stroke="white" stroke-width="1.5" pointer-events="none"/>
  </g>
  <g id="arrowUp" transform="translate(30 24)">
    <use xlink:href="#rim"/>
    <path pointer-events="none" fill="none" stroke="white" stroke-width="1.5" d="M0,-3.0v7 M-2.5,-0.5L0,-3.0L2.5,-0.5"/>
  </g>
  <g id="arrowRight" transform="rotate(90) translate(36 -43)">
    <use xlink:href="#rim"/>
    <path pointer-events="none" fill="none" stroke="white" stroke-width="1.5" d="M0,-3.0v7 M-2.5,-0.5L0,-3.0L2.5,-0.5"/>
  </g>
  <g id="arrowDown" transform="rotate(180) translate(-30 -48)">
    <use xlink:href="#rim"/>
    <path pointer-events="none" fill="none" stroke="white" stroke-width="1.5" d="M0,-3.0v7 M-2.5,-0.5L0,-3.0L2.5,-0.5"/>
  </g>
  <g id="arrowLeft" transform="rotate(270) translate(-36 17)">
    <use xlink:href="#rim"/>
    <path pointer-events="none" fill="none" stroke="white" stroke-width="1.5" d="M0,-3.0v7 M-2.5,-0.5L0,-3.0L2.5,-0.5"/>
  </g>
  <g id="resetDef">
    <use xlink:href="#rim2" fill="#404040"><set attributeName="fill" to="#808080" begin="reset.mouseover" end="reset.mouseout"/></use>
  </g>
</defs>
<script type="application/ecmascript">
var viewWidth = 902;
var viewHeight = 263;
var sectionId = 'dynsection-18';
</script>
<script type="application/ecmascript" xlink:href="svg.min.js"/>
<svg id="graph" class="graph">
<g id="viewport">
<title>axi_dac_set_datasel</title>
<!-- Node1 -->
<g id="Node000001" class="node">
<title>Node1</title>
<g id="a_Node000001"><a xlink:title="AXI DAC Set Data type for specific channel.">
<polygon fill="#999999" stroke="#666666" points="894,-124.5 778,-124.5 778,-105.5 894,-105.5 894,-124.5"/>
<text text-anchor="middle" x="836" y="-112.5" font-family="Helvetica,sans-Serif" font-size="10.00">axi_dac_set_datasel</text>
</a>
</g>
</g>
<!-- Node2 -->
<g id="Node000002" class="node">
<title>Node2</title>
<g id="a_Node000002"><a xlink:href="ad3552r_8c.html#a99b8d9b1903e38e171e19132336af7fb" target="_top" xlink:title=" ">
<polygon fill="white" stroke="#666666" points="467,-254.5 369,-254.5 369,-235.5 467,-235.5 467,-254.5"/>
<text text-anchor="middle" x="418" y="-242.5" font-family="Helvetica,sans-Serif" font-size="10.00">ad3552r_axi_init</text>
</a>
</g>
</g>
<!-- Node1&#45;&gt;Node2 -->
<g id="edge1_Node000001_Node000002" class="edge">
<title>Node1&#45;&gt;Node2</title>
<g id="a_edge1_Node000001_Node000002"><a xlink:title=" ">
<path fill="none" stroke="#63b8ff" d="M816.93,-131.39C799.16,-146.6 770.6,-168.69 742,-181 649.71,-220.72 531.91,-236.06 467.12,-241.78"/>
<polygon fill="#63b8ff" stroke="#63b8ff" points="819.53,-133.77 824.74,-124.55 814.92,-128.5 819.53,-133.77"/>
</a>
</g>
</g>
<!-- Node6 -->
<g id="Node000006" class="node">
<title>Node6</title>
<g id="a_Node000006"><a xlink:href="axi__dac__core_8c.html#ad2e10485918e87d7d2c6f6a72c971544" target="_top" xlink:title="AXI DAC Data Setup.">
<polygon fill="white" stroke="#666666" points="741.5,-143.5 628.5,-143.5 628.5,-124.5 741.5,-124.5 741.5,-143.5"/>
<text text-anchor="middle" x="685" y="-131.5" font-family="Helvetica,sans-Serif" font-size="10.00">axi_dac_data_setup</text>
</a>
</g>
</g>
<!-- Node1&#45;&gt;Node6 -->
<g id="edge6_Node000001_Node000006" class="edge">
<title>Node1&#45;&gt;Node6</title>
<g id="a_edge6_Node000001_Node000006"><a xlink:title=" ">
<path fill="none" stroke="#63b8ff" d="M767.73,-123.58C759.06,-124.68 750.26,-125.81 741.8,-126.88"/>
<polygon fill="#63b8ff" stroke="#63b8ff" points="768.34,-127.03 777.82,-122.29 767.46,-120.08 768.34,-127.03"/>
</a>
</g>
</g>
<!-- Node8 -->
<g id="Node000008" class="node">
<title>Node8</title>
<g id="a_Node000008"><a xlink:href="adrv903x_2src_2examples_2iio__example_2iio__example_8c.html#ac25cbf8ae523e89cb0617e68c98bc697" target="_top" xlink:title="IIO example main execution.">
<polygon fill="white" stroke="#666666" points="462.5,-216.5 373.5,-216.5 373.5,-197.5 462.5,-197.5 462.5,-216.5"/>
<text text-anchor="middle" x="418" y="-204.5" font-family="Helvetica,sans-Serif" font-size="10.00">example_main</text>
</a>
</g>
</g>
<!-- Node1&#45;&gt;Node8 -->
<g id="edge14_Node000001_Node000008" class="edge">
<title>Node1&#45;&gt;Node8</title>
<g id="a_edge14_Node000001_Node000008"><a xlink:title=" ">
<path fill="none" stroke="#63b8ff" d="M804.9,-128.67C786.9,-136.49 763.43,-146.09 742,-153 676.74,-174.03 659.58,-177.43 592,-189 548.25,-196.49 497.7,-201.32 462.59,-204.06"/>
<polygon fill="#63b8ff" stroke="#63b8ff" points="806.54,-131.76 814.28,-124.53 803.72,-125.36 806.54,-131.76"/>
</a>
</g>
</g>
<!-- Node9 -->
<g id="Node000009" class="node">
<title>Node9</title>
<g id="a_Node000009"><a xlink:href="adrv904x_2src_2examples_2basic__example_2basic__example_8c.html#a423407bf3827741dfe2f6e0def8ba0c3" target="_top" xlink:title="Basic example main execution.">
<polygon fill="white" stroke="#666666" points="462.5,-105.5 373.5,-105.5 373.5,-86.5 462.5,-86.5 462.5,-105.5"/>
<text text-anchor="middle" x="418" y="-93.5" font-family="Helvetica,sans-Serif" font-size="10.00">example_main</text>
</a>
</g>
</g>
<!-- Node1&#45;&gt;Node9 -->
<g id="edge15_Node000001_Node000009" class="edge">
<title>Node1&#45;&gt;Node9</title>
<g id="a_edge15_Node000001_Node000009"><a xlink:title=" ">
<path fill="none" stroke="#63b8ff" d="M788.85,-103.13C724.74,-88.14 605.07,-65.6 503,-77 486.36,-78.86 468.2,-82.73 453.04,-86.49"/>
<polygon fill="#63b8ff" stroke="#63b8ff" points="788.11,-106.55 798.65,-105.46 789.74,-99.74 788.11,-106.55"/>
</a>
</g>
</g>
<!-- Node12 -->
<g id="Node000012" class="node">
<title>Node12</title>
<g id="a_Node000012"><a xlink:href="ad9172_2src_2main_8c.html#a840291bc02cba5474a4cb46a9b9566fe" target="_top" xlink:title=" ">
<polygon fill="white" stroke="#666666" points="568,-105.5 527,-105.5 527,-86.5 568,-86.5 568,-105.5"/>
<text text-anchor="middle" x="547.5" y="-93.5" font-family="Helvetica,sans-Serif" font-size="10.00">main</text>
</a>
</g>
</g>
<!-- Node1&#45;&gt;Node12 -->
<g id="edge17_Node000001_Node000012" class="edge">
<title>Node1&#45;&gt;Node12</title>
<g id="a_edge17_Node000001_Node000012"><a xlink:title=" ">
<path fill="none" stroke="#63b8ff" d="M767.56,-110.53C702.67,-106.22 608.62,-99.99 568.18,-97.31"/>
<polygon fill="#63b8ff" stroke="#63b8ff" points="767.5,-114.03 777.71,-111.2 767.96,-107.05 767.5,-114.03"/>
</a>
</g>
</g>
<!-- Node13 -->
<g id="Node000013" class="node">
<title>Node13</title>
<g id="a_Node000013"><a xlink:href="iio__axi__dac_8c.html#a318298274813835869a249b115a88cbf" target="_top" xlink:title="Update active channels.">
<polygon fill="white" stroke="#666666" points="742,-30 628,-30 628,0 742,0 742,-30"/>
<text text-anchor="start" x="636" y="-18" font-family="Helvetica,sans-Serif" font-size="10.00">iio_axi_dac_prepare</text>
<text text-anchor="middle" x="685" y="-7" font-family="Helvetica,sans-Serif" font-size="10.00">_transfer</text>
</a>
</g>
</g>
<!-- Node1&#45;&gt;Node13 -->
<g id="edge16_Node000001_Node000013" class="edge">
<title>Node1&#45;&gt;Node13</title>
<g id="a_edge16_Node000001_Node000013"><a xlink:title=" ">
<path fill="none" stroke="#63b8ff" d="M815.61,-98.6C797.28,-83.49 768.69,-60.92 742,-44 734.23,-39.08 725.53,-34.26 717.35,-30.01"/>
<polygon fill="#63b8ff" stroke="#63b8ff" points="813.8,-101.65 823.73,-105.36 818.28,-96.27 813.8,-101.65"/>
</a>
</g>
</g>
<!-- Node3 -->
<g id="Node000003" class="node">
<title>Node3</title>
<g id="a_Node000003"><a xlink:href="ad3552r_8c.html#ae80ba21fae1f11883703b87a0bb676e2" target="_top" xlink:title=" ">
<polygon fill="white" stroke="#666666" points="333,-254.5 256,-254.5 256,-235.5 333,-235.5 333,-254.5"/>
<text text-anchor="middle" x="294.5" y="-242.5" font-family="Helvetica,sans-Serif" font-size="10.00">ad3552r_init</text>
</a>
</g>
</g>
<!-- Node2&#45;&gt;Node3 -->
<g id="edge2_Node000002_Node000003" class="edge">
<title>Node2&#45;&gt;Node3</title>
<g id="a_edge2_Node000002_Node000003"><a xlink:title=" ">
<path fill="none" stroke="#63b8ff" d="M358.79,-245C350.04,-245 341.22,-245 333.06,-245"/>
<polygon fill="#63b8ff" stroke="#63b8ff" points="358.98,-248.5 368.98,-245 358.98,-241.5 358.98,-248.5"/>
</a>
</g>
</g>
<!-- Node4 -->
<g id="Node000004" class="node">
<title>Node4</title>
<g id="a_Node000004"><a xlink:href="axi__qspi__example_8c.html#ac25cbf8ae523e89cb0617e68c98bc697" target="_top" xlink:title="Basic example main execution.">
<polygon fill="white" stroke="#666666" points="89,-254.5 0,-254.5 0,-235.5 89,-235.5 89,-254.5"/>
<text text-anchor="middle" x="44.5" y="-242.5" font-family="Helvetica,sans-Serif" font-size="10.00">example_main</text>
</a>
</g>
</g>
<!-- Node3&#45;&gt;Node4 -->
<g id="edge3_Node000003_Node000004" class="edge">
<title>Node3&#45;&gt;Node4</title>
<g id="a_edge3_Node000003_Node000004"><a xlink:title=" ">
<path fill="none" stroke="#63b8ff" d="M245.7,-245C200.5,-245 133.25,-245 89.39,-245"/>
<polygon fill="#63b8ff" stroke="#63b8ff" points="245.83,-248.5 255.83,-245 245.83,-241.5 245.83,-248.5"/>
</a>
</g>
</g>
<!-- Node5 -->
<g id="Node000005" class="node">
<title>Node5</title>
<g id="a_Node000005"><a xlink:href="iio__ad3552r_8c.html#a690d5a4cec9b9316e0d635113c09e9d6" target="_top" xlink:title=" ">
<polygon fill="white" stroke="#666666" points="220,-235.5 125,-235.5 125,-216.5 220,-216.5 220,-235.5"/>
<text text-anchor="middle" x="172.5" y="-223.5" font-family="Helvetica,sans-Serif" font-size="10.00">iio_ad3552r_init</text>
</a>
</g>
</g>
<!-- Node3&#45;&gt;Node5 -->
<g id="edge4_Node000003_Node000005" class="edge">
<title>Node3&#45;&gt;Node5</title>
<g id="a_edge4_Node000003_Node000005"><a xlink:title=" ">
<path fill="none" stroke="#63b8ff" d="M245.82,-237.45C237.42,-236.12 228.68,-234.74 220.3,-233.41"/>
<polygon fill="#63b8ff" stroke="#63b8ff" points="245.44,-240.93 255.86,-239.04 246.53,-234.02 245.44,-240.93"/>
</a>
</g>
</g>
<!-- Node5&#45;&gt;Node4 -->
<g id="edge5_Node000005_Node000004" class="edge">
<title>Node5&#45;&gt;Node4</title>
<g id="a_edge5_Node000005_Node000004"><a xlink:title=" ">
<path fill="none" stroke="#63b8ff" d="M114.97,-234.52C106.38,-235.82 97.63,-237.14 89.36,-238.39"/>
<polygon fill="#63b8ff" stroke="#63b8ff" points="115.57,-237.97 124.94,-233.02 114.53,-231.05 115.57,-237.97"/>
</a>
</g>
</g>
<!-- Node7 -->
<g id="Node000007" class="node">
<title>Node7</title>
<g id="a_Node000007"><a xlink:href="axi__dac__core_8c.html#a88b7d1d48e908b038ef3faea467aaa0c" target="_top" xlink:title="AXI DAC Main Initialization.">
<polygon fill="white" stroke="#666666" points="585,-179.5 510,-179.5 510,-160.5 585,-160.5 585,-179.5"/>
<text text-anchor="middle" x="547.5" y="-167.5" font-family="Helvetica,sans-Serif" font-size="10.00">axi_dac_init</text>
</a>
</g>
</g>
<!-- Node6&#45;&gt;Node7 -->
<g id="edge7_Node000006_Node000007" class="edge">
<title>Node6&#45;&gt;Node7</title>
<g id="a_edge7_Node000006_Node000007"><a xlink:title=" ">
<path fill="none" stroke="#63b8ff" d="M638.07,-146.2C620.63,-150.84 601.03,-156.04 584.62,-160.4"/>
<polygon fill="#63b8ff" stroke="#63b8ff" points="639.28,-149.5 648.04,-143.55 637.48,-142.74 639.28,-149.5"/>
</a>
</g>
</g>
<!-- Node11 -->
<g id="Node000011" class="node">
<title>Node11</title>
<g id="a_Node000011"><a xlink:href="adrv902x_2src_2examples_2basic__example_2basic__example_8c.html#a423407bf3827741dfe2f6e0def8ba0c3" target="_top" xlink:title="Basic example main execution.">
<polygon fill="white" stroke="#666666" points="592,-142.5 503,-142.5 503,-123.5 592,-123.5 592,-142.5"/>
<text text-anchor="middle" x="547.5" y="-130.5" font-family="Helvetica,sans-Serif" font-size="10.00">example_main</text>
</a>
</g>
</g>
<!-- Node6&#45;&gt;Node11 -->
<g id="edge12_Node000006_Node000011" class="edge">
<title>Node6&#45;&gt;Node11</title>
<g id="a_edge12_Node000006_Node000011"><a xlink:title=" ">
<path fill="none" stroke="#63b8ff" d="M618.46,-133.52C609.51,-133.45 600.52,-133.38 592.1,-133.32"/>
<polygon fill="#63b8ff" stroke="#63b8ff" points="618.47,-137.02 628.5,-133.59 618.52,-130.02 618.47,-137.02"/>
</a>
</g>
</g>
<!-- Node6&#45;&gt;Node12 -->
<g id="edge13_Node000006_Node000012" class="edge">
<title>Node6&#45;&gt;Node12</title>
<g id="a_edge13_Node000006_Node000012"><a xlink:title=" ">
<path fill="none" stroke="#63b8ff" d="M640.12,-121.7C615.97,-114.92 587.16,-106.84 568.38,-101.58"/>
<polygon fill="#63b8ff" stroke="#63b8ff" points="639.23,-125.08 649.81,-124.41 641.12,-118.34 639.23,-125.08"/>
</a>
</g>
</g>
<!-- Node7&#45;&gt;Node2 -->
<g id="edge8_Node000007_Node000002" class="edge">
<title>Node7&#45;&gt;Node2</title>
<g id="a_edge8_Node000007_Node000002"><a xlink:title=" ">
<path fill="none" stroke="#63b8ff" d="M526.81,-185.86C511.22,-197.92 488.56,-214.36 467,-226 460.53,-229.49 453.29,-232.7 446.42,-235.44"/>
<polygon fill="#63b8ff" stroke="#63b8ff" points="528.99,-188.6 534.69,-179.67 524.66,-183.1 528.99,-188.6"/>
</a>
</g>
</g>
<!-- Node7&#45;&gt;Node8 -->
<g id="edge9_Node000007_Node000008" class="edge">
<title>Node7&#45;&gt;Node8</title>
<g id="a_edge9_Node000007_Node000008"><a xlink:title=" ">
<path fill="none" stroke="#63b8ff" d="M504.02,-182.33C487.14,-187.23 468,-192.78 452.17,-197.38"/>
<polygon fill="#63b8ff" stroke="#63b8ff" points="505.04,-185.68 513.67,-179.53 503.09,-178.95 505.04,-185.68"/>
</a>
</g>
</g>
<!-- Node7&#45;&gt;Node9 -->
<g id="edge10_Node000007_Node000009" class="edge">
<title>Node7&#45;&gt;Node9</title>
<g id="a_edge10_Node000007_Node000009"><a xlink:title=" ">
<path fill="none" stroke="#63b8ff" d="M511.5,-156.23C508.59,-154.87 505.72,-153.45 503,-152 476.4,-137.81 447.63,-117.41 431.61,-105.55"/>
<polygon fill="#63b8ff" stroke="#63b8ff" points="510.25,-159.5 520.81,-160.35 513.08,-153.1 510.25,-159.5"/>
</a>
</g>
</g>
<!-- Node10 -->
<g id="Node000010" class="node">
<title>Node10</title>
<g id="a_Node000010"><a xlink:href="ad9081_2src_2app_8c.html#a840291bc02cba5474a4cb46a9b9566fe" target="_top" xlink:title=" ">
<polygon fill="white" stroke="#666666" points="438.5,-179.5 397.5,-179.5 397.5,-160.5 438.5,-160.5 438.5,-179.5"/>
<text text-anchor="middle" x="418" y="-167.5" font-family="Helvetica,sans-Serif" font-size="10.00">main</text>
</a>
</g>
</g>
<!-- Node7&#45;&gt;Node10 -->
<g id="edge11_Node000007_Node000010" class="edge">
<title>Node7&#45;&gt;Node10</title>
<g id="a_edge11_Node000007_Node000010"><a xlink:title=" ">
<path fill="none" stroke="#63b8ff" d="M499.85,-170C478.7,-170 454.85,-170 438.56,-170"/>
<polygon fill="#63b8ff" stroke="#63b8ff" points="499.96,-173.5 509.96,-170 499.96,-166.5 499.96,-173.5"/>
</a>
</g>
</g>
</g>
</svg>

<g id="navigator" transform="translate(0 0)" fill="#404254">
  <rect fill="#f2f5e9" fill-opacity="0.5" stroke="#606060" stroke-width=".5" x="0" y="0" width="60" height="60"/>
  <use id="zoomplus" xlink:href="#zoomPlus" x="17" y="9" onmousedown="handleZoom(evt,'in')"/>
  <use id="zoomminus" xlink:href="#zoomMin" x="42" y="9" onmousedown="handleZoom(evt,'out')"/>
  <use id="reset" xlink:href="#resetDef" x="30" y="36" onmousedown="handleReset()"/>
   <use id="arrowup" xlink:href="#arrowUp" x="0" y="0" onmousedown="handlePan(0,-1)"/>
  <use id="arrowright" xlink:href="#arrowRight" x="0" y="0" onmousedown="handlePan(1,0)"/>
  <use id="arrowdown" xlink:href="#arrowDown" x="0" y="0" onmousedown="handlePan(0,1)"/>
  <use id="arrowleft" xlink:href="#arrowLeft" x="0" y="0" onmousedown="handlePan(-1,0)"/>
</g>
<svg viewBox="0 0 15 15" width="100%" height="30px" preserveAspectRatio="xMaxYMin meet">
 <g id="arrow_out" transform="scale(0.3 0.3)">
  <a xlink:href="axi__dac__core_8c_a7360018a633493f6b484f4998987850a_icgraph_org.svg" target="_base">
   <rect id="button" ry="5" rx="5" y="6" x="6" height="38" width="38"
        fill="#f2f5e9" fill-opacity="0.5" stroke="#606060" stroke-width="1.0"/>
   <path id="arrow"
     d="M 11.500037,31.436501 C 11.940474,20.09759 22.043105,11.32322 32.158766,21.979434 L 37.068811,17.246167 C 37.068811,17.246167 37.088388,32 37.088388,32 L 22.160133,31.978069 C 22.160133,31.978069 26.997745,27.140456 26.997745,27.140456 C 18.528582,18.264221 13.291696,25.230495 11.500037,31.436501 z"
     style="fill:#404040;"/>
  </a>
 </g>
</svg>

<style type='text/css'>
<![CDATA[
[data-mouse-over-selected='false'] { opacity: 0.7; }
[data-mouse-over-selected='true']  { opacity: 1.0; }
]]>
</style>
<script type="application/ecmascript"><![CDATA[
document.addEventListener('DOMContentLoaded', (event) => {
  highlightEdges();
  highlightAdjacentNodes();
});
]]></script>
</svg>
