<?xml version="1.0" encoding="UTF-8" standalone="no"?>
<!DOCTYPE svg PUBLIC "-//W3C//DTD SVG 1.1//EN"
 "http://www.w3.org/Graphics/SVG/1.1/DTD/svg11.dtd">
<!-- Generated by graphviz version 2.43.0 (0)
 -->
<!-- Title: axi_jesd204_tx_remove Pages: 1 -->
<svg width="343pt" height="175pt"
 viewBox="0.00 0.00 343.00 175.00" xmlns="http://www.w3.org/2000/svg" xmlns:xlink="http://www.w3.org/1999/xlink">
<g id="graph0" class="graph" transform="scale(1 1) rotate(0) translate(4 171)">
<title>axi_jesd204_tx_remove</title>
<!-- Node1 -->
<g id="Node000001" class="node">
<title>Node1</title>
<g id="a_Node000001"><a xlink:title="Free resoulces allocated for JESD204 TX peripheral.">
<polygon fill="#999999" stroke="#666666" points="335,-93 202,-93 202,-74 335,-74 335,-93"/>
<text text-anchor="middle" x="268.5" y="-81" font-family="Helvetica,sans-Serif" font-size="10.00">axi_jesd204_tx_remove</text>
</a>
</g>
</g>
<!-- Node2 -->
<g id="Node000002" class="node">
<title>Node2</title>
<g id="a_Node000002"><a xlink:href="adrv903x_2src_2examples_2basic__example_2basic__example_8c.html#ac25cbf8ae523e89cb0617e68c98bc697" target="_top" xlink:title="Basic example main function.">
<polygon fill="white" stroke="#666666" points="166,-167 77,-167 77,-148 166,-148 166,-167"/>
<text text-anchor="middle" x="121.5" y="-155" font-family="Helvetica,sans-Serif" font-size="10.00">example_main</text>
</a>
</g>
</g>
<!-- Node1&#45;&gt;Node2 -->
<g id="edge1_Node000001_Node000002" class="edge">
<title>Node1&#45;&gt;Node2</title>
<g id="a_edge1_Node000001_Node000002"><a xlink:title=" ">
<path fill="none" stroke="#63b8ff" d="M242.37,-98.4C222.07,-110.17 192.62,-126.7 166,-139.5 159.96,-142.4 153.33,-145.3 147.1,-147.88"/>
<polygon fill="#63b8ff" stroke="#63b8ff" points="244.4,-101.26 251.27,-93.19 240.87,-95.22 244.4,-101.26"/>
</a>
</g>
</g>
<!-- Node3 -->
<g id="Node000003" class="node">
<title>Node3</title>
<g id="a_Node000003"><a xlink:href="adrv902x_2src_2examples_2basic__example_2basic__example_8c.html#a423407bf3827741dfe2f6e0def8ba0c3" target="_top" xlink:title="Basic example main execution.">
<polygon fill="white" stroke="#666666" points="166,-130 77,-130 77,-111 166,-111 166,-130"/>
<text text-anchor="middle" x="121.5" y="-118" font-family="Helvetica,sans-Serif" font-size="10.00">example_main</text>
</a>
</g>
</g>
<!-- Node1&#45;&gt;Node3 -->
<g id="edge2_Node000001_Node000003" class="edge">
<title>Node1&#45;&gt;Node3</title>
<g id="a_edge2_Node000001_Node000003"><a xlink:title=" ">
<path fill="none" stroke="#63b8ff" d="M220.23,-95.56C200.69,-100.55 178.35,-106.25 159.97,-110.94"/>
<polygon fill="#63b8ff" stroke="#63b8ff" points="221.33,-98.89 230.16,-93.03 219.6,-92.11 221.33,-98.89"/>
</a>
</g>
</g>
<!-- Node4 -->
<g id="Node000004" class="node">
<title>Node4</title>
<g id="a_Node000004"><a xlink:href="adrv9009_2src_2app_2app__jesd_8c.html#a58d0a969b662a323b8105e78817b7a93" target="_top" xlink:title=" ">
<polygon fill="white" stroke="#666666" points="156.5,-93 86.5,-93 86.5,-74 156.5,-74 156.5,-93"/>
<text text-anchor="middle" x="121.5" y="-81" font-family="Helvetica,sans-Serif" font-size="10.00">jesd_deinit</text>
</a>
</g>
</g>
<!-- Node1&#45;&gt;Node4 -->
<g id="edge3_Node000001_Node000004" class="edge">
<title>Node1&#45;&gt;Node4</title>
<g id="a_edge3_Node000001_Node000004"><a xlink:title=" ">
<path fill="none" stroke="#63b8ff" d="M191.53,-83.5C179.32,-83.5 167.24,-83.5 156.68,-83.5"/>
<polygon fill="#63b8ff" stroke="#63b8ff" points="191.79,-87 201.79,-83.5 191.79,-80 191.79,-87"/>
</a>
</g>
</g>
<!-- Node6 -->
<g id="Node000006" class="node">
<title>Node6</title>
<g id="a_Node000006"><a xlink:href="adrv9009_2src_2app_2app__jesd_8c.html#ae5553405b03de1193a617ca30d31a455" target="_top" xlink:title=" ">
<polygon fill="white" stroke="#666666" points="150.5,-56 92.5,-56 92.5,-37 150.5,-37 150.5,-56"/>
<text text-anchor="middle" x="121.5" y="-44" font-family="Helvetica,sans-Serif" font-size="10.00">jesd_init</text>
</a>
</g>
</g>
<!-- Node1&#45;&gt;Node6 -->
<g id="edge5_Node000001_Node000006" class="edge">
<title>Node1&#45;&gt;Node6</title>
<g id="a_edge5_Node000001_Node000006"><a xlink:title=" ">
<path fill="none" stroke="#63b8ff" d="M220.23,-71.44C197.2,-65.56 170.3,-58.7 150.55,-53.66"/>
<polygon fill="#63b8ff" stroke="#63b8ff" points="219.6,-74.89 230.16,-73.97 221.33,-68.11 219.6,-74.89"/>
</a>
</g>
</g>
<!-- Node7 -->
<g id="Node000007" class="node">
<title>Node7</title>
<g id="a_Node000007"><a xlink:href="ad9172_2src_2main_8c.html#a840291bc02cba5474a4cb46a9b9566fe" target="_top" xlink:title=" ">
<polygon fill="white" stroke="#666666" points="142,-19 101,-19 101,0 142,0 142,-19"/>
<text text-anchor="middle" x="121.5" y="-7" font-family="Helvetica,sans-Serif" font-size="10.00">main</text>
</a>
</g>
</g>
<!-- Node1&#45;&gt;Node7 -->
<g id="edge7_Node000001_Node000007" class="edge">
<title>Node1&#45;&gt;Node7</title>
<g id="a_edge7_Node000001_Node000007"><a xlink:title=" ">
<path fill="none" stroke="#63b8ff" d="M241.91,-68.85C221.57,-57.4 192.28,-41.33 166,-28.5 158.3,-24.74 149.67,-20.9 142.15,-17.66"/>
<polygon fill="#63b8ff" stroke="#63b8ff" points="240.42,-72.03 250.85,-73.91 243.87,-65.94 240.42,-72.03"/>
</a>
</g>
</g>
<!-- Node5 -->
<g id="Node000005" class="node">
<title>Node5</title>
<g id="a_Node000005"><a xlink:href="headless__arm_8c.html#a840291bc02cba5474a4cb46a9b9566fe" target="_top" xlink:title=" ">
<polygon fill="white" stroke="#666666" points="41,-74 0,-74 0,-55 41,-55 41,-74"/>
<text text-anchor="middle" x="20.5" y="-62" font-family="Helvetica,sans-Serif" font-size="10.00">main</text>
</a>
</g>
</g>
<!-- Node4&#45;&gt;Node5 -->
<g id="edge4_Node000004_Node000005" class="edge">
<title>Node4&#45;&gt;Node5</title>
<g id="a_edge4_Node000004_Node000005"><a xlink:title=" ">
<path fill="none" stroke="#63b8ff" d="M76.28,-75.01C64,-72.66 51.27,-70.21 41.18,-68.28"/>
<polygon fill="#63b8ff" stroke="#63b8ff" points="75.95,-78.51 86.43,-76.96 77.27,-71.64 75.95,-78.51"/>
</a>
</g>
</g>
<!-- Node6&#45;&gt;Node5 -->
<g id="edge6_Node000006_Node000005" class="edge">
<title>Node6&#45;&gt;Node5</title>
<g id="a_edge6_Node000006_Node000005"><a xlink:title=" ">
<path fill="none" stroke="#63b8ff" d="M82.44,-53.42C68.37,-55.98 52.98,-58.78 41.19,-60.92"/>
<polygon fill="#63b8ff" stroke="#63b8ff" points="83.18,-56.84 92.4,-51.61 81.93,-49.96 83.18,-56.84"/>
</a>
</g>
</g>
</g>
</svg>
