<?xml version="1.0" encoding="UTF-8" standalone="no"?>
<!DOCTYPE svg PUBLIC "-//W3C//DTD SVG 1.1//EN"
 "http://www.w3.org/Graphics/SVG/1.1/DTD/svg11.dtd">
<!-- Generated by graphviz version 2.43.0 (0)
 -->
<!-- Title: adxcvr_write Pages: 1 -->
<!--zoomable 337 -->

<svg id="main" version="1.1" xmlns="http://www.w3.org/2000/svg" xmlns:xlink="http://www.w3.org/1999/xlink" xml:space="preserve" onload="init(evt)">

<style type="text/css"><![CDATA[
.node, .edge {opacity: 0.7;}
.node.selected, .edge.selected {opacity: 1;}
.edge:hover path { stroke: red; }
.edge:hover polygon { stroke: red; fill: red; }
]]></style>

<defs>
  <circle id="rim" cx="0" cy="0" r="7"/>
  <circle id="rim2" cx="0" cy="0" r="3.5"/>
  <g id="zoomPlus">
    <use xlink:href="#rim" fill="#404040"><set attributeName="fill" to="#808080" begin="zoomplus.mouseover" end="zoomplus.mouseout"/></use>
    <path d="M-4,0h8M0,-4v8" fill="none" stroke="white" stroke-width="1.5" pointer-events="none"/>
  </g>
  <g id="zoomMin">
    <use xlink:href="#rim" fill="#404040"><set attributeName="fill" to="#808080" begin="zoomminus.mouseover" end="zoomminus.mouseout"/></use>
    <path d="M-4,0h8" fill="none" stroke="white" stroke-width="1.5" pointer-events="none"/>
  </g>
  <g id="arrowUp" transform="translate(30 24)">
    <use xlink:href="#rim"/>
    <path pointer-events="none" fill="none" stroke="white" stroke-width="1.5" d="M0,-3.0v7 M-2.5,-0.5L0,-3.0L2.5,-0.5"/>
  </g>
  <g id="arrowRight" transform="rotate(90) translate(36 -43)">
    <use xlink:href="#rim"/>
    <path pointer-events="none" fill="none" stroke="white" stroke-width="1.5" d="M0,-3.0v7 M-2.5,-0.5L0,-3.0L2.5,-0.5"/>
  </g>
  <g id="arrowDown" transform="rotate(180) translate(-30 -48)">
    <use xlink:href="#rim"/>
    <path pointer-events="none" fill="none" stroke="white" stroke-width="1.5" d="M0,-3.0v7 M-2.5,-0.5L0,-3.0L2.5,-0.5"/>
  </g>
  <g id="arrowLeft" transform="rotate(270) translate(-36 17)">
    <use xlink:href="#rim"/>
    <path pointer-events="none" fill="none" stroke="white" stroke-width="1.5" d="M0,-3.0v7 M-2.5,-0.5L0,-3.0L2.5,-0.5"/>
  </g>
  <g id="resetDef">
    <use xlink:href="#rim2" fill="#404040"><set attributeName="fill" to="#808080" begin="reset.mouseover" end="reset.mouseout"/></use>
  </g>
</defs>
<script type="application/ecmascript">
var viewWidth = 1104;
var viewHeight = 337;
var sectionId = 'dynsection-8';
</script>
<script type="application/ecmascript" xlink:href="svg.min.js"/>
<svg id="graph" class="graph">
<g id="viewport">
<title>adxcvr_write</title>
<!-- Node1 -->
<g id="Node000001" class="node">
<title>Node1</title>
<g id="a_Node000001"><a xlink:title="adxcvr_write">
<polygon fill="#999999" stroke="#666666" points="1096,-131 1016,-131 1016,-112 1096,-112 1096,-131"/>
<text text-anchor="middle" x="1056" y="-119" font-family="Helvetica,sans-Serif" font-size="10.00">adxcvr_write</text>
</a>
</g>
</g>
<!-- Node2 -->
<g id="Node000002" class="node">
<title>Node2</title>
<g id="a_Node000002"><a xlink:href="axi__adxcvr_8c.html#a149984176c30c12dad5c193f4746fcb5" target="_top" xlink:title="AXI ADXCVR Clock Disable.">
<polygon fill="white" stroke="#666666" points="977,-273 867,-273 867,-254 977,-254 977,-273"/>
<text text-anchor="middle" x="922" y="-261" font-family="Helvetica,sans-Serif" font-size="10.00">adxcvr_clk_disable</text>
</a>
</g>
</g>
<!-- Node1&#45;&gt;Node2 -->
<g id="edge1_Node000001_Node000002" class="edge">
<title>Node1&#45;&gt;Node2</title>
<g id="a_edge1_Node000001_Node000002"><a xlink:title=" ">
<path fill="none" stroke="#63b8ff" d="M1043.74,-139.64C1030.17,-160.69 1005.93,-195.79 980,-221.5 967.26,-234.14 950.51,-246.02 938.47,-253.9"/>
<polygon fill="#63b8ff" stroke="#63b8ff" points="1046.79,-141.36 1049.19,-131.04 1040.88,-137.61 1046.79,-141.36"/>
</a>
</g>
</g>
<!-- Node6 -->
<g id="Node000006" class="node">
<title>Node6</title>
<g id="a_Node000006"><a xlink:href="axi__adxcvr_8c.html#a508bce6b00ea4fb0e316517b9c6dd0f9" target="_top" xlink:title="AXI ADXCVR Clock Enable.">
<polygon fill="white" stroke="#666666" points="362,-217 255,-217 255,-198 362,-198 362,-217"/>
<text text-anchor="middle" x="308.5" y="-205" font-family="Helvetica,sans-Serif" font-size="10.00">adxcvr_clk_enable</text>
</a>
</g>
</g>
<!-- Node1&#45;&gt;Node6 -->
<g id="edge5_Node000001_Node000006" class="edge">
<title>Node1&#45;&gt;Node6</title>
<g id="a_edge5_Node000001_Node000006"><a xlink:title=" ">
<path fill="none" stroke="#63b8ff" d="M1040.86,-139.48C1027.17,-155.41 1004.89,-177.77 980,-188.5 888.86,-227.8 856.75,-207.5 757.5,-207.5 757.5,-207.5 757.5,-207.5 594.5,-207.5 513.35,-207.5 419.21,-207.5 362.03,-207.5"/>
<polygon fill="#63b8ff" stroke="#63b8ff" points="1043.86,-141.34 1047.54,-131.4 1038.47,-136.87 1043.86,-141.34"/>
</a>
</g>
</g>
<!-- Node12 -->
<g id="Node000012" class="node">
<title>Node12</title>
<g id="a_Node000012"><a xlink:href="axi__adxcvr_8c.html#a8d899f5b5004a4f001e45d725c0469f0" target="_top" xlink:title="AXI ADXCVR DPR Port Read.">
<polygon fill="white" stroke="#666666" points="971,-93 873,-93 873,-74 971,-74 971,-93"/>
<text text-anchor="middle" x="922" y="-81" font-family="Helvetica,sans-Serif" font-size="10.00">adxcvr_drp_read</text>
</a>
</g>
</g>
<!-- Node1&#45;&gt;Node12 -->
<g id="edge11_Node000001_Node000012" class="edge">
<title>Node1&#45;&gt;Node12</title>
<g id="a_edge11_Node000001_Node000012"><a xlink:title=" ">
<path fill="none" stroke="#63b8ff" d="M1011.96,-109.11C993.88,-103.91 973.18,-97.95 956.3,-93.09"/>
<polygon fill="#63b8ff" stroke="#63b8ff" points="1011.11,-112.51 1021.69,-111.91 1013.05,-105.78 1011.11,-112.51"/>
</a>
</g>
</g>
<!-- Node13 -->
<g id="Node000013" class="node">
<title>Node13</title>
<g id="a_Node000013"><a xlink:href="axi__adxcvr_8c.html#aced69997b25476d0e77f8e3f99e40995" target="_top" xlink:title="AXI ADXCVR DPR Port Write.">
<polygon fill="white" stroke="#666666" points="972.5,-56 871.5,-56 871.5,-37 972.5,-37 972.5,-56"/>
<text text-anchor="middle" x="922" y="-44" font-family="Helvetica,sans-Serif" font-size="10.00">adxcvr_drp_write</text>
</a>
</g>
</g>
<!-- Node1&#45;&gt;Node13 -->
<g id="edge12_Node000001_Node000013" class="edge">
<title>Node1&#45;&gt;Node13</title>
<g id="a_edge12_Node000001_Node000013"><a xlink:title=" ">
<path fill="none" stroke="#63b8ff" d="M1036.94,-104.91C1022.45,-92.35 1001.12,-75.44 980,-64.5 973.64,-61.21 966.57,-58.38 959.63,-56.01"/>
<polygon fill="#63b8ff" stroke="#63b8ff" points="1034.82,-107.71 1044.62,-111.73 1039.47,-102.48 1034.82,-107.71"/>
</a>
</g>
</g>
<!-- Node14 -->
<g id="Node000014" class="node">
<title>Node14</title>
<g id="a_Node000014"><a xlink:href="altera__adxcvr_8c.html#ad2482b05b7ec9e14718dec1eb00eab99" target="_top" xlink:title="adxcvr_finalize_lane_rate_change">
<polygon fill="white" stroke="#666666" points="980,-179.5 864,-179.5 864,-149.5 980,-149.5 980,-179.5"/>
<text text-anchor="start" x="872" y="-167.5" font-family="Helvetica,sans-Serif" font-size="10.00">adxcvr_finalize_lane</text>
<text text-anchor="middle" x="922" y="-156.5" font-family="Helvetica,sans-Serif" font-size="10.00">_rate_change</text>
</a>
</g>
</g>
<!-- Node1&#45;&gt;Node14 -->
<g id="edge13_Node000001_Node000014" class="edge">
<title>Node1&#45;&gt;Node14</title>
<g id="a_edge13_Node000001_Node000014"><a xlink:title=" ">
<path fill="none" stroke="#63b8ff" d="M1015.91,-134.23C1001.21,-139.02 984.35,-144.51 969.07,-149.49"/>
<polygon fill="#63b8ff" stroke="#63b8ff" points="1017.28,-137.47 1025.7,-131.04 1015.11,-130.81 1017.28,-137.47"/>
</a>
</g>
</g>
<!-- Node28 -->
<g id="Node000028" class="node">
<title>Node28</title>
<g id="a_Node000028"><a xlink:href="axi__adxcvr_8c.html#a67ef0bb38e4648e42b5cfa3a7991c49c" target="_top" xlink:title="AXI ADXCVR Device Initialization.">
<polygon fill="white" stroke="#666666" points="957.5,-19 886.5,-19 886.5,0 957.5,0 957.5,-19"/>
<text text-anchor="middle" x="922" y="-7" font-family="Helvetica,sans-Serif" font-size="10.00">adxcvr_init</text>
</a>
</g>
</g>
<!-- Node1&#45;&gt;Node28 -->
<g id="edge31_Node000001_Node000028" class="edge">
<title>Node1&#45;&gt;Node28</title>
<g id="a_edge31_Node000001_Node000028"><a xlink:title=" ">
<path fill="none" stroke="#63b8ff" d="M1045,-103.27C1032.48,-82.08 1009.11,-47.48 980,-27.5 973.33,-22.92 965.43,-19.46 957.67,-16.86"/>
<polygon fill="#63b8ff" stroke="#63b8ff" points="1041.97,-105.01 1049.97,-111.96 1048.05,-101.54 1041.97,-105.01"/>
</a>
</g>
</g>
<!-- Node29 -->
<g id="Node000029" class="node">
<title>Node29</title>
<g id="a_Node000029"><a xlink:href="altera__adxcvr_8c.html#ae36bf5814d413bbe7ab6da07c4c37844" target="_top" xlink:title="adxcvr_pre_lane_rate_change">
<polygon fill="white" stroke="#666666" points="817.5,-131.5 695.5,-131.5 695.5,-101.5 817.5,-101.5 817.5,-131.5"/>
<text text-anchor="start" x="703.5" y="-119.5" font-family="Helvetica,sans-Serif" font-size="10.00">adxcvr_pre_lane_rate</text>
<text text-anchor="middle" x="756.5" y="-108.5" font-family="Helvetica,sans-Serif" font-size="10.00">_change</text>
</a>
</g>
</g>
<!-- Node1&#45;&gt;Node29 -->
<g id="edge32_Node000001_Node000029" class="edge">
<title>Node1&#45;&gt;Node29</title>
<g id="a_edge32_Node000001_Node000029"><a xlink:title=" ">
<path fill="none" stroke="#63b8ff" d="M1005.57,-120.67C953.95,-119.8 872.95,-118.44 817.65,-117.51"/>
<polygon fill="#63b8ff" stroke="#63b8ff" points="1005.74,-124.17 1015.8,-120.84 1005.86,-117.17 1005.74,-124.17"/>
</a>
</g>
</g>
<!-- Node3 -->
<g id="Node000003" class="node">
<title>Node3</title>
<g id="a_Node000003"><a xlink:href="axi__adxcvr_8c.html#a95953cb03a2a6cffae96b78658b1e8f2" target="_top" xlink:title=" ">
<polygon fill="white" stroke="#666666" points="828,-329 685,-329 685,-310 828,-310 828,-329"/>
<text text-anchor="middle" x="756.5" y="-317" font-family="Helvetica,sans-Serif" font-size="10.00">adxcvr_no_os_clk_disable</text>
</a>
</g>
</g>
<!-- Node2&#45;&gt;Node3 -->
<g id="edge2_Node000002_Node000003" class="edge">
<title>Node2&#45;&gt;Node3</title>
<g id="a_edge2_Node000002_Node000003"><a xlink:title=" ">
<path fill="none" stroke="#63b8ff" d="M890.5,-277.2C872.54,-284.96 849.24,-294.49 828,-301.5 818.64,-304.59 808.44,-307.47 798.78,-309.98"/>
<polygon fill="#63b8ff" stroke="#63b8ff" points="892.13,-280.31 899.89,-273.1 889.32,-273.9 892.13,-280.31"/>
</a>
</g>
</g>
<!-- Node4 -->
<g id="Node000004" class="node">
<title>Node4</title>
<g id="a_Node000004"><a xlink:href="jesd204__clk_8c.html#ac6c34646d1c05b88bf73af88f24bf6c4" target="_top" xlink:title=" ">
<polygon fill="white" stroke="#666666" points="814,-292 699,-292 699,-273 814,-273 814,-292"/>
<text text-anchor="middle" x="756.5" y="-280" font-family="Helvetica,sans-Serif" font-size="10.00">jesd204_clk_disable</text>
</a>
</g>
</g>
<!-- Node2&#45;&gt;Node4 -->
<g id="edge3_Node000002_Node000004" class="edge">
<title>Node2&#45;&gt;Node4</title>
<g id="a_edge3_Node000002_Node000004"><a xlink:title=" ">
<path fill="none" stroke="#63b8ff" d="M856.53,-270.99C842.56,-272.62 827.87,-274.32 814.22,-275.91"/>
<polygon fill="#63b8ff" stroke="#63b8ff" points="857.03,-274.46 866.56,-269.83 856.22,-267.5 857.03,-274.46"/>
</a>
</g>
</g>
<!-- Node5 -->
<g id="Node000005" class="node">
<title>Node5</title>
<g id="a_Node000005"><a xlink:href="ad9208_2src_2main_8c.html#a840291bc02cba5474a4cb46a9b9566fe" target="_top" xlink:title=" ">
<polygon fill="white" stroke="#666666" points="777,-255 736,-255 736,-236 777,-236 777,-255"/>
<text text-anchor="middle" x="756.5" y="-243" font-family="Helvetica,sans-Serif" font-size="10.00">main</text>
</a>
</g>
</g>
<!-- Node2&#45;&gt;Node5 -->
<g id="edge4_Node000002_Node000005" class="edge">
<title>Node2&#45;&gt;Node5</title>
<g id="a_edge4_Node000002_Node000005"><a xlink:title=" ">
<path fill="none" stroke="#63b8ff" d="M856.25,-256.37C827.86,-253.25 796.61,-249.81 777.02,-247.65"/>
<polygon fill="#63b8ff" stroke="#63b8ff" points="856.23,-259.89 866.56,-257.51 857,-252.93 856.23,-259.89"/>
</a>
</g>
</g>
<!-- Node7 -->
<g id="Node000007" class="node">
<title>Node7</title>
<g id="a_Node000007"><a xlink:href="axi__adxcvr_8c.html#a32cf9657d258ef0794e9c9e5c2d9337c" target="_top" xlink:title=" ">
<polygon fill="white" stroke="#666666" points="218,-285 77,-285 77,-266 218,-266 218,-285"/>
<text text-anchor="middle" x="147.5" y="-273" font-family="Helvetica,sans-Serif" font-size="10.00">adxcvr_no_os_clk_enable</text>
</a>
</g>
</g>
<!-- Node6&#45;&gt;Node7 -->
<g id="edge6_Node000006_Node000007" class="edge">
<title>Node6&#45;&gt;Node7</title>
<g id="a_edge6_Node000006_Node000007"><a xlink:title=" ">
<path fill="none" stroke="#63b8ff" d="M284.72,-222.38C267.1,-233.35 241.77,-247.96 218,-257.5 209.9,-260.75 201.04,-263.57 192.43,-265.95"/>
<polygon fill="#63b8ff" stroke="#63b8ff" points="286.61,-225.33 293.19,-217.02 282.87,-219.41 286.61,-225.33"/>
</a>
</g>
</g>
<!-- Node8 -->
<g id="Node000008" class="node">
<title>Node8</title>
<g id="a_Node000008"><a xlink:href="app__transceiver_8c.html#ab75f92d0fa79151108cc487cd7829c98" target="_top" xlink:title=" ">
<polygon fill="white" stroke="#666666" points="190.5,-211 104.5,-211 104.5,-192 190.5,-192 190.5,-211"/>
<text text-anchor="middle" x="147.5" y="-199" font-family="Helvetica,sans-Serif" font-size="10.00">fpga_xcvr_init</text>
</a>
</g>
</g>
<!-- Node6&#45;&gt;Node8 -->
<g id="edge7_Node000006_Node000008" class="edge">
<title>Node6&#45;&gt;Node8</title>
<g id="a_edge7_Node000006_Node000008"><a xlink:title=" ">
<path fill="none" stroke="#63b8ff" d="M244.77,-205.13C226.61,-204.45 207.22,-203.72 190.64,-203.09"/>
<polygon fill="#63b8ff" stroke="#63b8ff" points="244.87,-208.64 255,-205.52 245.14,-201.64 244.87,-208.64"/>
</a>
</g>
</g>
<!-- Node10 -->
<g id="Node000010" class="node">
<title>Node10</title>
<g id="a_Node000010"><a xlink:href="jesd204__clk_8c.html#a6e197a63ac1e02eb48611524cfe27f67" target="_top" xlink:title=" ">
<polygon fill="white" stroke="#666666" points="204,-248 91,-248 91,-229 204,-229 204,-248"/>
<text text-anchor="middle" x="147.5" y="-236" font-family="Helvetica,sans-Serif" font-size="10.00">jesd204_clk_enable</text>
</a>
</g>
</g>
<!-- Node6&#45;&gt;Node10 -->
<g id="edge9_Node000006_Node000010" class="edge">
<title>Node6&#45;&gt;Node10</title>
<g id="a_edge9_Node000006_Node000010"><a xlink:title=" ">
<path fill="none" stroke="#63b8ff" d="M248.25,-219.05C231.48,-222.32 213.42,-225.84 197.34,-228.98"/>
<polygon fill="#63b8ff" stroke="#63b8ff" points="249.35,-222.4 258.5,-217.05 248.01,-215.53 249.35,-222.4"/>
</a>
</g>
</g>
<!-- Node11 -->
<g id="Node000011" class="node">
<title>Node11</title>
<g id="a_Node000011"><a xlink:href="ad6676__ebz_8c.html#a840291bc02cba5474a4cb46a9b9566fe" target="_top" xlink:title="main">
<polygon fill="white" stroke="#666666" points="168,-174 127,-174 127,-155 168,-155 168,-174"/>
<text text-anchor="middle" x="147.5" y="-162" font-family="Helvetica,sans-Serif" font-size="10.00">main</text>
</a>
</g>
</g>
<!-- Node6&#45;&gt;Node11 -->
<g id="edge10_Node000006_Node000011" class="edge">
<title>Node6&#45;&gt;Node11</title>
<g id="a_edge10_Node000006_Node000011"><a xlink:title=" ">
<path fill="none" stroke="#63b8ff" d="M262.46,-195.32C231.39,-186.92 191.61,-176.16 168.2,-169.83"/>
<polygon fill="#63b8ff" stroke="#63b8ff" points="261.65,-198.72 272.21,-197.96 263.47,-191.97 261.65,-198.72"/>
</a>
</g>
</g>
<!-- Node9 -->
<g id="Node000009" class="node">
<title>Node9</title>
<g id="a_Node000009"><a xlink:href="headless__arm_8c.html#a840291bc02cba5474a4cb46a9b9566fe" target="_top" xlink:title=" ">
<polygon fill="white" stroke="#666666" points="41,-211 0,-211 0,-192 41,-192 41,-211"/>
<text text-anchor="middle" x="20.5" y="-199" font-family="Helvetica,sans-Serif" font-size="10.00">main</text>
</a>
</g>
</g>
<!-- Node8&#45;&gt;Node9 -->
<g id="edge8_Node000008_Node000009" class="edge">
<title>Node8&#45;&gt;Node9</title>
<g id="a_edge8_Node000008_Node000009"><a xlink:title=" ">
<path fill="none" stroke="#63b8ff" d="M93.94,-201.5C75.2,-201.5 55.24,-201.5 41.02,-201.5"/>
<polygon fill="#63b8ff" stroke="#63b8ff" points="94.18,-205 104.18,-201.5 94.18,-198 94.18,-205"/>
</a>
</g>
</g>
<!-- Node15 -->
<g id="Node000015" class="node">
<title>Node15</title>
<g id="a_Node000015"><a xlink:href="altera__adxcvr_8c.html#aab91976af36cb321f9015da9571ac77f" target="_top" xlink:title="adxcvr_post_lane_rate_change">
<polygon fill="white" stroke="#666666" points="820,-179.5 693,-179.5 693,-149.5 820,-149.5 820,-179.5"/>
<text text-anchor="start" x="701" y="-167.5" font-family="Helvetica,sans-Serif" font-size="10.00">adxcvr_post_lane_rate</text>
<text text-anchor="middle" x="756.5" y="-156.5" font-family="Helvetica,sans-Serif" font-size="10.00">_change</text>
</a>
</g>
</g>
<!-- Node14&#45;&gt;Node15 -->
<g id="edge14_Node000014_Node000015" class="edge">
<title>Node14&#45;&gt;Node15</title>
<g id="a_edge14_Node000014_Node000015"><a xlink:title=" ">
<path fill="none" stroke="#63b8ff" d="M853.76,-164.5C842.66,-164.5 831.2,-164.5 820.23,-164.5"/>
<polygon fill="#63b8ff" stroke="#63b8ff" points="853.82,-168 863.82,-164.5 853.82,-161 853.82,-168"/>
</a>
</g>
</g>
<!-- Node16 -->
<g id="Node000016" class="node">
<title>Node16</title>
<g id="a_Node000016"><a xlink:href="altera__a10__atx__pll_8c.html#a8f2ce655c0c78b93dee5a8b121cc8f73" target="_top" xlink:title="altera_a10_atx_pll_set_rate">
<polygon fill="white" stroke="#666666" points="649,-131.5 542,-131.5 542,-101.5 649,-101.5 649,-131.5"/>
<text text-anchor="start" x="550" y="-119.5" font-family="Helvetica,sans-Serif" font-size="10.00">altera_a10_atx_pll</text>
<text text-anchor="middle" x="595.5" y="-108.5" font-family="Helvetica,sans-Serif" font-size="10.00">_set_rate</text>
</a>
</g>
</g>
<!-- Node15&#45;&gt;Node16 -->
<g id="edge15_Node000015_Node000016" class="edge">
<title>Node15&#45;&gt;Node16</title>
<g id="a_edge15_Node000015_Node000016"><a xlink:title=" ">
<path fill="none" stroke="#63b8ff" d="M695.65,-146.43C679.35,-141.51 661.87,-136.23 646.2,-131.5"/>
<polygon fill="#63b8ff" stroke="#63b8ff" points="695.04,-149.9 705.63,-149.44 697.07,-143.2 695.04,-149.9"/>
</a>
</g>
</g>
<!-- Node26 -->
<g id="Node000026" class="node">
<title>Node26</title>
<g id="a_Node000026"><a xlink:href="altera__a10__cdr__pll_8c.html#acd3ba325a22ad7690f934b858087ce25" target="_top" xlink:title="altera_a10_cdr_pll_set_rate">
<polygon fill="white" stroke="#666666" points="648.5,-179.5 542.5,-179.5 542.5,-149.5 648.5,-149.5 648.5,-179.5"/>
<text text-anchor="start" x="550.5" y="-167.5" font-family="Helvetica,sans-Serif" font-size="10.00">altera_a10_cdr_pll</text>
<text text-anchor="middle" x="595.5" y="-156.5" font-family="Helvetica,sans-Serif" font-size="10.00">_set_rate</text>
</a>
</g>
</g>
<!-- Node15&#45;&gt;Node26 -->
<g id="edge27_Node000015_Node000026" class="edge">
<title>Node15&#45;&gt;Node26</title>
<g id="a_edge27_Node000015_Node000026"><a xlink:title=" ">
<path fill="none" stroke="#63b8ff" d="M682.65,-164.5C671.18,-164.5 659.52,-164.5 648.65,-164.5"/>
<polygon fill="#63b8ff" stroke="#63b8ff" points="682.66,-168 692.66,-164.5 682.66,-161 682.66,-168"/>
</a>
</g>
</g>
<!-- Node17 -->
<g id="Node000017" class="node">
<title>Node17</title>
<g id="a_Node000017"><a xlink:href="altera__adxcvr_8c.html#a684db50fe066ad6dd6df4aac1cad609c" target="_top" xlink:title="adxcvr_init">
<polygon fill="white" stroke="#666666" points="500,-131 405,-131 405,-112 500,-112 500,-131"/>
<text text-anchor="middle" x="452.5" y="-119" font-family="Helvetica,sans-Serif" font-size="10.00">adxcvr_set_rate</text>
</a>
</g>
</g>
<!-- Node16&#45;&gt;Node17 -->
<g id="edge16_Node000016_Node000017" class="edge">
<title>Node16&#45;&gt;Node17</title>
<g id="a_edge16_Node000016_Node000017"><a xlink:title=" ">
<path fill="none" stroke="#63b8ff" d="M531.84,-118.72C521.14,-119.1 510.2,-119.49 500.01,-119.85"/>
<polygon fill="#63b8ff" stroke="#63b8ff" points="532.13,-122.21 542,-118.36 531.88,-115.22 532.13,-122.21"/>
</a>
</g>
</g>
<!-- Node24 -->
<g id="Node000024" class="node">
<title>Node24</title>
<g id="a_Node000024"><a xlink:href="altera__a10__atx__pll_8c.html#ac5f5e49c8c41f6c40c74b5afa05d53a1" target="_top" xlink:title="altera_a10_atx_pll_recalc_rate">
<polygon fill="white" stroke="#666666" points="506,-93.5 399,-93.5 399,-63.5 506,-63.5 506,-93.5"/>
<text text-anchor="start" x="407" y="-81.5" font-family="Helvetica,sans-Serif" font-size="10.00">altera_a10_atx_pll</text>
<text text-anchor="middle" x="452.5" y="-70.5" font-family="Helvetica,sans-Serif" font-size="10.00">_recalc_rate</text>
</a>
</g>
</g>
<!-- Node16&#45;&gt;Node24 -->
<g id="edge25_Node000016_Node000024" class="edge">
<title>Node16&#45;&gt;Node24</title>
<g id="a_edge25_Node000016_Node000024"><a xlink:title=" ">
<path fill="none" stroke="#63b8ff" d="M532.23,-99.72C523.49,-97.36 514.58,-94.96 506.05,-92.66"/>
<polygon fill="#63b8ff" stroke="#63b8ff" points="531.43,-103.13 542,-102.35 533.25,-96.37 531.43,-103.13"/>
</a>
</g>
</g>
<!-- Node18 -->
<g id="Node000018" class="node">
<title>Node18</title>
<g id="a_Node000018"><a xlink:href="altera__adxcvr_8c.html#a67ef0bb38e4648e42b5cfa3a7991c49c" target="_top" xlink:title="adxcvr_init">
<polygon fill="white" stroke="#666666" points="344,-131 273,-131 273,-112 344,-112 344,-131"/>
<text text-anchor="middle" x="308.5" y="-119" font-family="Helvetica,sans-Serif" font-size="10.00">adxcvr_init</text>
</a>
</g>
</g>
<!-- Node17&#45;&gt;Node18 -->
<g id="edge17_Node000017_Node000018" class="edge">
<title>Node17&#45;&gt;Node18</title>
<g id="a_edge17_Node000017_Node000018"><a xlink:title=" ">
<path fill="none" stroke="#63b8ff" d="M394.23,-121.5C377.28,-121.5 359.25,-121.5 344.19,-121.5"/>
<polygon fill="#63b8ff" stroke="#63b8ff" points="394.61,-125 404.61,-121.5 394.61,-118 394.61,-125"/>
</a>
</g>
</g>
<!-- Node18&#45;&gt;Node8 -->
<g id="edge23_Node000018_Node000008" class="edge">
<title>Node18&#45;&gt;Node8</title>
<g id="a_edge23_Node000018_Node000008"><a xlink:title=" ">
<path fill="none" stroke="#63b8ff" d="M288.27,-137.84C270.93,-151.81 244.19,-171.5 218,-183.5 209.5,-187.39 200.02,-190.55 190.85,-193.07"/>
<polygon fill="#63b8ff" stroke="#63b8ff" points="290.93,-140.18 296.43,-131.13 286.48,-134.78 290.93,-140.18"/>
</a>
</g>
</g>
<!-- Node18&#45;&gt;Node11 -->
<g id="edge24_Node000018_Node000011" class="edge">
<title>Node18&#45;&gt;Node11</title>
<g id="a_edge24_Node000018_Node000011"><a xlink:title=" ">
<path fill="none" stroke="#63b8ff" d="M263.25,-133.47C232.16,-141.88 192.03,-152.73 168.4,-159.12"/>
<polygon fill="#63b8ff" stroke="#63b8ff" points="264.26,-136.82 273,-130.83 262.43,-130.06 264.26,-136.82"/>
</a>
</g>
</g>
<!-- Node19 -->
<g id="Node000019" class="node">
<title>Node19</title>
<g id="a_Node000019"><a xlink:href="ad9083_2src_2app__jesd_8c.html#a3fc69d9cce4bef3b10d0ea379c5cbd86" target="_top" xlink:title="Application JESD setup.">
<polygon fill="white" stroke="#666666" points="188,-137 107,-137 107,-118 188,-118 188,-137"/>
<text text-anchor="middle" x="147.5" y="-125" font-family="Helvetica,sans-Serif" font-size="10.00">app_jesd_init</text>
</a>
</g>
</g>
<!-- Node18&#45;&gt;Node19 -->
<g id="edge18_Node000018_Node000019" class="edge">
<title>Node18&#45;&gt;Node19</title>
<g id="a_edge18_Node000018_Node000019"><a xlink:title=" ">
<path fill="none" stroke="#63b8ff" d="M262.95,-123.18C239.49,-124.07 210.96,-125.14 188.26,-126"/>
<polygon fill="#63b8ff" stroke="#63b8ff" points="263.14,-126.68 273,-122.8 262.87,-119.68 263.14,-126.68"/>
</a>
</g>
</g>
<!-- Node20 -->
<g id="Node000020" class="node">
<title>Node20</title>
<g id="a_Node000020"><a xlink:href="ad9081_2src_2app__jesd_8c.html#a5ef8f40129d0245e81e1a76cc451d2a6" target="_top" xlink:title="Application JESD setup.">
<polygon fill="white" stroke="#666666" points="188,-100 107,-100 107,-81 188,-81 188,-100"/>
<text text-anchor="middle" x="147.5" y="-88" font-family="Helvetica,sans-Serif" font-size="10.00">app_jesd_init</text>
</a>
</g>
</g>
<!-- Node18&#45;&gt;Node20 -->
<g id="edge19_Node000018_Node000020" class="edge">
<title>Node18&#45;&gt;Node20</title>
<g id="a_edge19_Node000018_Node000020"><a xlink:title=" ">
<path fill="none" stroke="#63b8ff" d="M262.95,-112.81C239.49,-108.24 210.96,-102.68 188.26,-98.25"/>
<polygon fill="#63b8ff" stroke="#63b8ff" points="262.51,-116.3 273,-114.77 263.85,-109.42 262.51,-116.3"/>
</a>
</g>
</g>
<!-- Node22 -->
<g id="Node000022" class="node">
<title>Node22</title>
<g id="a_Node000022"><a xlink:href="adrv903x_2src_2examples_2basic__example_2basic__example_8c.html#ac25cbf8ae523e89cb0617e68c98bc697" target="_top" xlink:title="Basic example main function.">
<polygon fill="white" stroke="#666666" points="192,-63 103,-63 103,-44 192,-44 192,-63"/>
<text text-anchor="middle" x="147.5" y="-51" font-family="Helvetica,sans-Serif" font-size="10.00">example_main</text>
</a>
</g>
</g>
<!-- Node18&#45;&gt;Node22 -->
<g id="edge21_Node000018_Node000022" class="edge">
<title>Node18&#45;&gt;Node22</title>
<g id="a_edge21_Node000018_Node000022"><a xlink:title=" ">
<path fill="none" stroke="#63b8ff" d="M270.67,-107.9C264.96,-105.36 259.23,-102.53 254,-99.5 236.47,-89.33 236.19,-80.45 218,-71.5 209.95,-67.54 200.93,-64.38 192.12,-61.89"/>
<polygon fill="#63b8ff" stroke="#63b8ff" points="269.58,-111.24 280.15,-111.91 272.3,-104.79 269.58,-111.24"/>
</a>
</g>
</g>
<!-- Node23 -->
<g id="Node000023" class="node">
<title>Node23</title>
<g id="a_Node000023"><a xlink:href="adrv902x_2src_2examples_2basic__example_2basic__example_8c.html#a423407bf3827741dfe2f6e0def8ba0c3" target="_top" xlink:title="Basic example main execution.">
<polygon fill="white" stroke="#666666" points="192,-26 103,-26 103,-7 192,-7 192,-26"/>
<text text-anchor="middle" x="147.5" y="-14" font-family="Helvetica,sans-Serif" font-size="10.00">example_main</text>
</a>
</g>
</g>
<!-- Node18&#45;&gt;Node23 -->
<g id="edge22_Node000018_Node000023" class="edge">
<title>Node18&#45;&gt;Node23</title>
<g id="a_edge22_Node000018_Node000023"><a xlink:title=" ">
<path fill="none" stroke="#63b8ff" d="M265.28,-107.44C261.23,-105.15 257.38,-102.51 254,-99.5 229.34,-77.54 244.1,-54.73 218,-34.5 210.51,-28.7 201.34,-24.75 192.16,-22.08"/>
<polygon fill="#63b8ff" stroke="#63b8ff" points="263.84,-110.63 274.36,-111.94 266.95,-104.36 263.84,-110.63"/>
</a>
</g>
</g>
<!-- Node21 -->
<g id="Node000021" class="node">
<title>Node21</title>
<g id="a_Node000021"><a xlink:href="ad9081_2src_2app_8c.html#a840291bc02cba5474a4cb46a9b9566fe" target="_top" xlink:title=" ">
<polygon fill="white" stroke="#666666" points="41,-100 0,-100 0,-81 41,-81 41,-100"/>
<text text-anchor="middle" x="20.5" y="-88" font-family="Helvetica,sans-Serif" font-size="10.00">main</text>
</a>
</g>
</g>
<!-- Node20&#45;&gt;Node21 -->
<g id="edge20_Node000020_Node000021" class="edge">
<title>Node20&#45;&gt;Node21</title>
<g id="a_edge20_Node000020_Node000021"><a xlink:title=" ">
<path fill="none" stroke="#63b8ff" d="M96.69,-90.5C77.27,-90.5 56.14,-90.5 41.24,-90.5"/>
<polygon fill="#63b8ff" stroke="#63b8ff" points="96.95,-94 106.95,-90.5 96.95,-87 96.95,-94"/>
</a>
</g>
</g>
<!-- Node25 -->
<g id="Node000025" class="node">
<title>Node25</title>
<g id="a_Node000025"><a xlink:href="altera__adxcvr_8c.html#ad38d3c03f1f00faab758b63fbaf9794d" target="_top" xlink:title="adxcvr_recalc_rate">
<polygon fill="white" stroke="#666666" points="363,-91 254,-91 254,-72 363,-72 363,-91"/>
<text text-anchor="middle" x="308.5" y="-79" font-family="Helvetica,sans-Serif" font-size="10.00">adxcvr_recalc_rate</text>
</a>
</g>
</g>
<!-- Node24&#45;&gt;Node25 -->
<g id="edge26_Node000024_Node000025" class="edge">
<title>Node24&#45;&gt;Node25</title>
<g id="a_edge26_Node000024_Node000025"><a xlink:title=" ">
<path fill="none" stroke="#63b8ff" d="M388.5,-79.83C380.12,-80.01 371.58,-80.19 363.37,-80.36"/>
<polygon fill="#63b8ff" stroke="#63b8ff" points="388.7,-83.33 398.62,-79.62 388.55,-76.33 388.7,-83.33"/>
</a>
</g>
</g>
<!-- Node26&#45;&gt;Node17 -->
<g id="edge28_Node000026_Node000017" class="edge">
<title>Node26&#45;&gt;Node17</title>
<g id="a_edge28_Node000026_Node000017"><a xlink:title=" ">
<path fill="none" stroke="#63b8ff" d="M535.16,-146.4C517.91,-141.14 499.74,-135.6 484.93,-131.09"/>
<polygon fill="#63b8ff" stroke="#63b8ff" points="534.6,-149.89 545.19,-149.46 536.64,-143.2 534.6,-149.89"/>
</a>
</g>
</g>
<!-- Node27 -->
<g id="Node000027" class="node">
<title>Node27</title>
<g id="a_Node000027"><a xlink:href="altera__a10__cdr__pll_8c.html#ae16cfdb6dcf52acfad2cd4480144d642" target="_top" xlink:title="altera_a10_cdr_pll_recalc_rate">
<polygon fill="white" stroke="#666666" points="505.5,-179.5 399.5,-179.5 399.5,-149.5 505.5,-149.5 505.5,-179.5"/>
<text text-anchor="start" x="407.5" y="-167.5" font-family="Helvetica,sans-Serif" font-size="10.00">altera_a10_cdr_pll</text>
<text text-anchor="middle" x="452.5" y="-156.5" font-family="Helvetica,sans-Serif" font-size="10.00">_recalc_rate</text>
</a>
</g>
</g>
<!-- Node26&#45;&gt;Node27 -->
<g id="edge29_Node000026_Node000027" class="edge">
<title>Node26&#45;&gt;Node27</title>
<g id="a_edge29_Node000026_Node000027"><a xlink:title=" ">
<path fill="none" stroke="#63b8ff" d="M532.19,-164.5C523.4,-164.5 514.44,-164.5 505.86,-164.5"/>
<polygon fill="#63b8ff" stroke="#63b8ff" points="532.4,-168 542.4,-164.5 532.4,-161 532.4,-168"/>
</a>
</g>
</g>
<!-- Node27&#45;&gt;Node25 -->
<g id="edge30_Node000027_Node000025" class="edge">
<title>Node27&#45;&gt;Node25</title>
<g id="a_edge30_Node000027_Node000025"><a xlink:title=" ">
<path fill="none" stroke="#63b8ff" d="M406.76,-144.58C404.07,-142.96 401.46,-141.27 399,-139.5 380.35,-126.14 382.11,-115.2 363,-102.5 356.1,-97.92 348.05,-94.1 340.33,-91.03"/>
<polygon fill="#63b8ff" stroke="#63b8ff" points="405.07,-147.65 415.51,-149.47 408.49,-141.54 405.07,-147.65"/>
</a>
</g>
</g>
<!-- Node29&#45;&gt;Node16 -->
<g id="edge33_Node000029_Node000016" class="edge">
<title>Node29&#45;&gt;Node16</title>
<g id="a_edge33_Node000029_Node000016"><a xlink:title=" ">
<path fill="none" stroke="#63b8ff" d="M685.29,-116.5C673.15,-116.5 660.71,-116.5 649.14,-116.5"/>
<polygon fill="#63b8ff" stroke="#63b8ff" points="685.39,-120 695.39,-116.5 685.39,-113 685.39,-120"/>
</a>
</g>
</g>
<!-- Node29&#45;&gt;Node26 -->
<g id="edge34_Node000029_Node000026" class="edge">
<title>Node29&#45;&gt;Node26</title>
<g id="a_edge34_Node000029_Node000026"><a xlink:title=" ">
<path fill="none" stroke="#63b8ff" d="M695.65,-134.57C679.35,-139.49 661.87,-144.77 646.2,-149.5"/>
<polygon fill="#63b8ff" stroke="#63b8ff" points="697.07,-137.8 705.63,-131.56 695.04,-131.1 697.07,-137.8"/>
</a>
</g>
</g>
</g>
</svg>

<g id="navigator" transform="translate(0 0)" fill="#404254">
  <rect fill="#f2f5e9" fill-opacity="0.5" stroke="#606060" stroke-width=".5" x="0" y="0" width="60" height="60"/>
  <use id="zoomplus" xlink:href="#zoomPlus" x="17" y="9" onmousedown="handleZoom(evt,'in')"/>
  <use id="zoomminus" xlink:href="#zoomMin" x="42" y="9" onmousedown="handleZoom(evt,'out')"/>
  <use id="reset" xlink:href="#resetDef" x="30" y="36" onmousedown="handleReset()"/>
   <use id="arrowup" xlink:href="#arrowUp" x="0" y="0" onmousedown="handlePan(0,-1)"/>
  <use id="arrowright" xlink:href="#arrowRight" x="0" y="0" onmousedown="handlePan(1,0)"/>
  <use id="arrowdown" xlink:href="#arrowDown" x="0" y="0" onmousedown="handlePan(0,1)"/>
  <use id="arrowleft" xlink:href="#arrowLeft" x="0" y="0" onmousedown="handlePan(-1,0)"/>
</g>
<svg viewBox="0 0 15 15" width="100%" height="30px" preserveAspectRatio="xMaxYMin meet">
 <g id="arrow_out" transform="scale(0.3 0.3)">
  <a xlink:href="axi__adxcvr_8h_af2df58c2897d8348a94f9dee27987080_icgraph_org.svg" target="_base">
   <rect id="button" ry="5" rx="5" y="6" x="6" height="38" width="38"
        fill="#f2f5e9" fill-opacity="0.5" stroke="#606060" stroke-width="1.0"/>
   <path id="arrow"
     d="M 11.500037,31.436501 C 11.940474,20.09759 22.043105,11.32322 32.158766,21.979434 L 37.068811,17.246167 C 37.068811,17.246167 37.088388,32 37.088388,32 L 22.160133,31.978069 C 22.160133,31.978069 26.997745,27.140456 26.997745,27.140456 C 18.528582,18.264221 13.291696,25.230495 11.500037,31.436501 z"
     style="fill:#404040;"/>
  </a>
 </g>
</svg>

<style type='text/css'>
<![CDATA[
[data-mouse-over-selected='false'] { opacity: 0.7; }
[data-mouse-over-selected='true']  { opacity: 1.0; }
]]>
</style>
<script type="application/ecmascript"><![CDATA[
document.addEventListener('DOMContentLoaded', (event) => {
  highlightEdges();
  highlightAdjacentNodes();
});
]]></script>
</svg>
