<?xml version="1.0" encoding="UTF-8" standalone="no"?>
<!DOCTYPE svg PUBLIC "-//W3C//DTD SVG 1.1//EN"
 "http://www.w3.org/Graphics/SVG/1.1/DTD/svg11.dtd">
<!-- Generated by graphviz version 2.43.0 (0)
 -->
<!-- Title: axi_jesd204_rx_read Pages: 1 -->
<svg width="728pt" height="403pt"
 viewBox="0.00 0.00 728.00 402.50" xmlns="http://www.w3.org/2000/svg" xmlns:xlink="http://www.w3.org/1999/xlink">
<g id="graph0" class="graph" transform="scale(1 1) rotate(0) translate(4 398.5)">
<title>axi_jesd204_rx_read</title>
<!-- Node1 -->
<g id="Node000001" class="node">
<title>Node1</title>
<g id="a_Node000001"><a xlink:title="JESD204 RX AXI Data Read.">
<polygon fill="#999999" stroke="#666666" points="720,-205 603,-205 603,-186 720,-186 720,-205"/>
<text text-anchor="middle" x="661.5" y="-193" font-family="Helvetica,sans-Serif" font-size="10.00">axi_jesd204_rx_read</text>
</a>
</g>
</g>
<!-- Node2 -->
<g id="Node000002" class="node">
<title>Node2</title>
<g id="a_Node000002"><a xlink:href="axi__jesd204__rx_8c.html#a9495c0720939a4c3c3c264ee75e2a512" target="_top" xlink:title="Check JESD204 RX Lane Status.">
<polygon fill="white" stroke="#666666" points="553,-394.5 429,-394.5 429,-364.5 553,-364.5 553,-394.5"/>
<text text-anchor="start" x="437" y="-382.5" font-family="Helvetica,sans-Serif" font-size="10.00">axi_jesd204_rx_check</text>
<text text-anchor="middle" x="491" y="-371.5" font-family="Helvetica,sans-Serif" font-size="10.00">_lane_status</text>
</a>
</g>
</g>
<!-- Node1&#45;&gt;Node2 -->
<g id="edge1_Node000001_Node000002" class="edge">
<title>Node1&#45;&gt;Node2</title>
<g id="a_edge1_Node000001_Node000002"><a xlink:title=" ">
<path fill="none" stroke="#63b8ff" d="M652.64,-214.63C639.18,-245.36 609.03,-306.08 567,-343.5 557.4,-352.05 545.41,-359 533.85,-364.44"/>
<polygon fill="#63b8ff" stroke="#63b8ff" points="656,-215.66 656.7,-205.09 649.56,-212.92 656,-215.66"/>
</a>
</g>
</g>
<!-- Node3 -->
<g id="Node000003" class="node">
<title>Node3</title>
<g id="a_Node000003"><a xlink:href="axi__jesd204__rx_8c.html#ac2685df4098d39d956e71e8181bc9e7f" target="_top" xlink:title="JESD204 RX Watchdog.">
<polygon fill="white" stroke="#666666" points="369.5,-393 226.5,-393 226.5,-374 369.5,-374 369.5,-393"/>
<text text-anchor="middle" x="298" y="-381" font-family="Helvetica,sans-Serif" font-size="10.00">axi_jesd204_rx_watchdog</text>
</a>
</g>
</g>
<!-- Node1&#45;&gt;Node3 -->
<g id="edge29_Node000001_Node000003" class="edge">
<title>Node1&#45;&gt;Node3</title>
<g id="a_edge29_Node000001_Node000003"><a xlink:title=" ">
<path fill="none" stroke="#63b8ff" d="M648.33,-213.39C632.17,-235.91 601.61,-274.43 567,-297.5 530.03,-322.14 421.64,-353.04 379,-365.5 368.48,-368.57 357.05,-371.43 346.21,-373.91"/>
<polygon fill="#63b8ff" stroke="#63b8ff" points="651.29,-215.27 654.16,-205.07 645.56,-211.25 651.29,-215.27"/>
</a>
</g>
</g>
<!-- Node7 -->
<g id="Node000007" class="node">
<title>Node7</title>
<g id="a_Node000007"><a xlink:href="axi__jesd204__rx_8c.html#a18cb7e2db980a651c3d08fd92da8a097" target="_top" xlink:title="Read the JESD204 RX Lane Errors.">
<polygon fill="white" stroke="#666666" points="546.5,-86.5 435.5,-86.5 435.5,-56.5 546.5,-56.5 546.5,-86.5"/>
<text text-anchor="start" x="443.5" y="-74.5" font-family="Helvetica,sans-Serif" font-size="10.00">axi_jesd204_rx_get</text>
<text text-anchor="middle" x="491" y="-63.5" font-family="Helvetica,sans-Serif" font-size="10.00">_lane_errors</text>
</a>
</g>
</g>
<!-- Node1&#45;&gt;Node7 -->
<g id="edge6_Node000001_Node000007" class="edge">
<title>Node1&#45;&gt;Node7</title>
<g id="a_edge6_Node000001_Node000007"><a xlink:title=" ">
<path fill="none" stroke="#63b8ff" d="M646.91,-178.02C630.07,-157.35 599.59,-123.05 567,-101.5 558.23,-95.7 548.16,-90.72 538.3,-86.58"/>
<polygon fill="#63b8ff" stroke="#63b8ff" points="644.28,-180.34 653.26,-185.96 649.75,-175.97 644.28,-180.34"/>
</a>
</g>
</g>
<!-- Node8 -->
<g id="Node000008" class="node">
<title>Node8</title>
<g id="a_Node000008"><a xlink:href="axi__jesd204__rx_8c.html#a0e78d5746da23fb8cd47caad96cd0378" target="_top" xlink:title="Read JESD204 RX Lane Info.">
<polygon fill="white" stroke="#666666" points="379,-19 217,-19 217,0 379,0 379,-19"/>
<text text-anchor="middle" x="298" y="-7" font-family="Helvetica,sans-Serif" font-size="10.00">axi_jesd204_rx_laneinfo_read</text>
</a>
</g>
</g>
<!-- Node1&#45;&gt;Node8 -->
<g id="edge20_Node000001_Node000008" class="edge">
<title>Node1&#45;&gt;Node8</title>
<g id="a_edge20_Node000001_Node000008"><a xlink:title=" ">
<path fill="none" stroke="#63b8ff" d="M654.33,-176.17C642.85,-143.65 614.92,-78.49 567,-47.5 511.46,-11.58 435.98,-3.67 379.28,-3.83"/>
<polygon fill="#63b8ff" stroke="#63b8ff" points="651.08,-177.5 657.6,-185.85 657.71,-175.26 651.08,-177.5"/>
</a>
</g>
</g>
<!-- Node10 -->
<g id="Node000010" class="node">
<title>Node10</title>
<g id="a_Node000010"><a xlink:href="axi__jesd204__rx_8c.html#ab0e2722b8a1e3a0add052039c15bd919" target="_top" xlink:title="Device initialization, JESD FSM ON.">
<polygon fill="white" stroke="#666666" points="546.5,-130 435.5,-130 435.5,-111 546.5,-111 546.5,-130"/>
<text text-anchor="middle" x="491" y="-118" font-family="Helvetica,sans-Serif" font-size="10.00">axi_jesd204_rx_init</text>
</a>
</g>
</g>
<!-- Node1&#45;&gt;Node10 -->
<g id="edge9_Node000001_Node000010" class="edge">
<title>Node1&#45;&gt;Node10</title>
<g id="a_edge9_Node000001_Node000010"><a xlink:title=" ">
<path fill="none" stroke="#63b8ff" d="M629.45,-181.68C595.81,-166.71 543,-143.2 513.6,-130.11"/>
<polygon fill="#63b8ff" stroke="#63b8ff" points="628.26,-184.98 638.82,-185.85 631.1,-178.58 628.26,-184.98"/>
</a>
</g>
</g>
<!-- Node15 -->
<g id="Node000015" class="node">
<title>Node15</title>
<g id="a_Node000015"><a xlink:href="axi__jesd204__rx_8c.html#ae48629d98618ad14c1bcbf268d59ce96" target="_top" xlink:title="Device initialization.">
<polygon fill="white" stroke="#666666" points="546.5,-288.5 435.5,-288.5 435.5,-258.5 546.5,-258.5 546.5,-288.5"/>
<text text-anchor="start" x="443.5" y="-276.5" font-family="Helvetica,sans-Serif" font-size="10.00">axi_jesd204_rx_init</text>
<text text-anchor="middle" x="491" y="-265.5" font-family="Helvetica,sans-Serif" font-size="10.00">_legacy</text>
</a>
</g>
</g>
<!-- Node1&#45;&gt;Node15 -->
<g id="edge15_Node000001_Node000015" class="edge">
<title>Node1&#45;&gt;Node15</title>
<g id="a_edge15_Node000001_Node000015"><a xlink:title=" ">
<path fill="none" stroke="#63b8ff" d="M630.4,-209.44C600.66,-223.2 555.31,-244.19 524.7,-258.36"/>
<polygon fill="#63b8ff" stroke="#63b8ff" points="632.23,-212.44 639.84,-205.06 629.29,-206.09 632.23,-212.44"/>
</a>
</g>
</g>
<!-- Node19 -->
<g id="Node000019" class="node">
<title>Node19</title>
<g id="a_Node000019"><a xlink:href="axi__jesd204__rx_8c.html#a08abfd8d336e5ce679d65b069fe6d17a" target="_top" xlink:title="Read status of the JESD204 Receive Peripherial.">
<polygon fill="white" stroke="#666666" points="567,-205 415,-205 415,-186 567,-186 567,-205"/>
<text text-anchor="middle" x="491" y="-193" font-family="Helvetica,sans-Serif" font-size="10.00">axi_jesd204_rx_status_read</text>
</a>
</g>
</g>
<!-- Node1&#45;&gt;Node19 -->
<g id="edge21_Node000001_Node000019" class="edge">
<title>Node1&#45;&gt;Node19</title>
<g id="a_edge21_Node000001_Node000019"><a xlink:title=" ">
<path fill="none" stroke="#63b8ff" d="M592.82,-195.5C584.37,-195.5 575.69,-195.5 567.13,-195.5"/>
<polygon fill="#63b8ff" stroke="#63b8ff" points="592.98,-199 602.98,-195.5 592.98,-192 592.98,-199"/>
</a>
</g>
</g>
<!-- Node2&#45;&gt;Node3 -->
<g id="edge2_Node000002_Node000003" class="edge">
<title>Node2&#45;&gt;Node3</title>
<g id="a_edge2_Node000002_Node000003"><a xlink:title=" ">
<path fill="none" stroke="#63b8ff" d="M418.42,-381C402.43,-381.33 385.47,-381.69 369.51,-382.02"/>
<polygon fill="#63b8ff" stroke="#63b8ff" points="418.85,-384.49 428.78,-380.78 418.71,-377.49 418.85,-384.49"/>
</a>
</g>
</g>
<!-- Node4 -->
<g id="Node000004" class="node">
<title>Node4</title>
<g id="a_Node000004"><a xlink:href="adrv9009_2src_2app_2app__jesd_8c.html#a502dd44d42a20c9cbb938ab187689551" target="_top" xlink:title=" ">
<polygon fill="white" stroke="#666666" points="181,-374 77,-374 77,-355 181,-355 181,-374"/>
<text text-anchor="middle" x="129" y="-362" font-family="Helvetica,sans-Serif" font-size="10.00">jesd_rx_watchdog</text>
</a>
</g>
</g>
<!-- Node3&#45;&gt;Node4 -->
<g id="edge3_Node000003_Node000004" class="edge">
<title>Node3&#45;&gt;Node4</title>
<g id="a_edge3_Node000003_Node000004"><a xlink:title=" ">
<path fill="none" stroke="#63b8ff" d="M216.2,-374.31C204.27,-372.95 192.28,-371.59 181.18,-370.32"/>
<polygon fill="#63b8ff" stroke="#63b8ff" points="215.85,-377.79 226.18,-375.44 216.64,-370.83 215.85,-377.79"/>
</a>
</g>
</g>
<!-- Node6 -->
<g id="Node000006" class="node">
<title>Node6</title>
<g id="a_Node000006"><a xlink:href="ad9081_2src_2app_8c.html#a840291bc02cba5474a4cb46a9b9566fe" target="_top" xlink:title=" ">
<polygon fill="white" stroke="#666666" points="149.5,-242 108.5,-242 108.5,-223 149.5,-223 149.5,-242"/>
<text text-anchor="middle" x="129" y="-230" font-family="Helvetica,sans-Serif" font-size="10.00">main</text>
</a>
</g>
</g>
<!-- Node3&#45;&gt;Node6 -->
<g id="edge5_Node000003_Node000006" class="edge">
<title>Node3&#45;&gt;Node6</title>
<g id="a_edge5_Node000003_Node000006"><a xlink:title=" ">
<path fill="none" stroke="#63b8ff" d="M220.58,-368.49C219.34,-367.55 218.15,-366.55 217,-365.5 177.87,-329.55 217.61,-290.01 181,-251.5 172.73,-242.8 160.12,-238.06 149.5,-235.49"/>
<polygon fill="#63b8ff" stroke="#63b8ff" points="218.95,-371.6 229.28,-373.95 222.67,-365.67 218.95,-371.6"/>
</a>
</g>
</g>
<!-- Node5 -->
<g id="Node000005" class="node">
<title>Node5</title>
<g id="a_Node000005"><a xlink:href="headless__arm_8c.html#a840291bc02cba5474a4cb46a9b9566fe" target="_top" xlink:title=" ">
<polygon fill="white" stroke="#666666" points="41,-318 0,-318 0,-299 41,-299 41,-318"/>
<text text-anchor="middle" x="20.5" y="-306" font-family="Helvetica,sans-Serif" font-size="10.00">main</text>
</a>
</g>
</g>
<!-- Node4&#45;&gt;Node5 -->
<g id="edge4_Node000004_Node000005" class="edge">
<title>Node4&#45;&gt;Node5</title>
<g id="a_edge4_Node000004_Node000005"><a xlink:title=" ">
<path fill="none" stroke="#63b8ff" d="M100.35,-349.96C81.29,-339.94 56.49,-326.9 39.84,-318.14"/>
<polygon fill="#63b8ff" stroke="#63b8ff" points="98.97,-353.19 109.45,-354.75 102.23,-346.99 98.97,-353.19"/>
</a>
</g>
</g>
<!-- Node7&#45;&gt;Node8 -->
<g id="edge7_Node000007_Node000008" class="edge">
<title>Node7&#45;&gt;Node8</title>
<g id="a_edge7_Node000007_Node000008"><a xlink:title=" ">
<path fill="none" stroke="#63b8ff" d="M446.71,-52.52C426.41,-44.09 401.74,-34.52 379,-27.5 368.8,-24.35 357.71,-21.5 347.12,-19.05"/>
<polygon fill="#63b8ff" stroke="#63b8ff" points="445.42,-55.77 456,-56.42 448.13,-49.32 445.42,-55.77"/>
</a>
</g>
</g>
<!-- Node9 -->
<g id="Node000009" class="node">
<title>Node9</title>
<g id="a_Node000009"><a xlink:href="ad9371_2src_2app_2headless_8c.html#a840291bc02cba5474a4cb46a9b9566fe" target="_top" xlink:title="main">
<polygon fill="white" stroke="#666666" points="149.5,-19 108.5,-19 108.5,0 149.5,0 149.5,-19"/>
<text text-anchor="middle" x="129" y="-7" font-family="Helvetica,sans-Serif" font-size="10.00">main</text>
</a>
</g>
</g>
<!-- Node8&#45;&gt;Node9 -->
<g id="edge8_Node000008_Node000009" class="edge">
<title>Node8&#45;&gt;Node9</title>
<g id="a_edge8_Node000008_Node000009"><a xlink:title=" ">
<path fill="none" stroke="#63b8ff" d="M206.69,-9.5C185.2,-9.5 164.32,-9.5 149.79,-9.5"/>
<polygon fill="#63b8ff" stroke="#63b8ff" points="206.92,-13 216.92,-9.5 206.92,-6 206.92,-13"/>
</a>
</g>
</g>
<!-- Node11 -->
<g id="Node000011" class="node">
<title>Node11</title>
<g id="a_Node000011"><a xlink:href="ad9081_2src_2app__jesd_8c.html#a5ef8f40129d0245e81e1a76cc451d2a6" target="_top" xlink:title="Application JESD setup.">
<polygon fill="white" stroke="#666666" points="338.5,-56 257.5,-56 257.5,-37 338.5,-37 338.5,-56"/>
<text text-anchor="middle" x="298" y="-44" font-family="Helvetica,sans-Serif" font-size="10.00">app_jesd_init</text>
</a>
</g>
</g>
<!-- Node10&#45;&gt;Node11 -->
<g id="edge10_Node000010_Node000011" class="edge">
<title>Node10&#45;&gt;Node11</title>
<g id="a_edge10_Node000010_Node000011"><a xlink:title=" ">
<path fill="none" stroke="#63b8ff" d="M442.19,-107.67C432.89,-104.32 423.42,-100.28 415,-95.5 396.64,-85.08 397.86,-73.99 379,-64.5 366.54,-58.23 351.89,-54.12 338.56,-51.44"/>
<polygon fill="#63b8ff" stroke="#63b8ff" points="441.18,-111.02 451.77,-110.91 443.42,-104.39 441.18,-111.02"/>
</a>
</g>
</g>
<!-- Node12 -->
<g id="Node000012" class="node">
<title>Node12</title>
<g id="a_Node000012"><a xlink:href="adrv903x_2src_2examples_2basic__example_2basic__example_8c.html#ac25cbf8ae523e89cb0617e68c98bc697" target="_top" xlink:title="Basic example main function.">
<polygon fill="white" stroke="#666666" points="342.5,-167 253.5,-167 253.5,-148 342.5,-148 342.5,-167"/>
<text text-anchor="middle" x="298" y="-155" font-family="Helvetica,sans-Serif" font-size="10.00">example_main</text>
</a>
</g>
</g>
<!-- Node10&#45;&gt;Node12 -->
<g id="edge12_Node000010_Node000012" class="edge">
<title>Node10&#45;&gt;Node12</title>
<g id="a_edge12_Node000010_Node000012"><a xlink:title=" ">
<path fill="none" stroke="#63b8ff" d="M430.98,-131.93C402.51,-137.45 368.96,-143.95 342.81,-149.01"/>
<polygon fill="#63b8ff" stroke="#63b8ff" points="431.66,-135.37 440.81,-130.03 430.33,-128.49 431.66,-135.37"/>
</a>
</g>
</g>
<!-- Node13 -->
<g id="Node000013" class="node">
<title>Node13</title>
<g id="a_Node000013"><a xlink:href="adrv902x_2src_2examples_2basic__example_2basic__example_8c.html#a423407bf3827741dfe2f6e0def8ba0c3" target="_top" xlink:title="Basic example main execution.">
<polygon fill="white" stroke="#666666" points="342.5,-130 253.5,-130 253.5,-111 342.5,-111 342.5,-130"/>
<text text-anchor="middle" x="298" y="-118" font-family="Helvetica,sans-Serif" font-size="10.00">example_main</text>
</a>
</g>
</g>
<!-- Node10&#45;&gt;Node13 -->
<g id="edge13_Node000010_Node000013" class="edge">
<title>Node10&#45;&gt;Node13</title>
<g id="a_edge13_Node000010_Node000013"><a xlink:title=" ">
<path fill="none" stroke="#63b8ff" d="M425.04,-120.5C397.83,-120.5 366.92,-120.5 342.53,-120.5"/>
<polygon fill="#63b8ff" stroke="#63b8ff" points="425.27,-124 435.27,-120.5 425.27,-117 425.27,-124"/>
</a>
</g>
</g>
<!-- Node14 -->
<g id="Node000014" class="node">
<title>Node14</title>
<g id="a_Node000014"><a xlink:href="headless__mb_8c.html#a840291bc02cba5474a4cb46a9b9566fe" target="_top" xlink:title=" ">
<polygon fill="white" stroke="#666666" points="318.5,-93 277.5,-93 277.5,-74 318.5,-74 318.5,-93"/>
<text text-anchor="middle" x="298" y="-81" font-family="Helvetica,sans-Serif" font-size="10.00">main</text>
</a>
</g>
</g>
<!-- Node10&#45;&gt;Node14 -->
<g id="edge14_Node000010_Node000014" class="edge">
<title>Node10&#45;&gt;Node14</title>
<g id="a_edge14_Node000010_Node000014"><a xlink:title=" ">
<path fill="none" stroke="#63b8ff" d="M430.76,-109.02C392.34,-101.58 344.74,-92.36 318.55,-87.29"/>
<polygon fill="#63b8ff" stroke="#63b8ff" points="430.33,-112.51 440.81,-110.97 431.66,-105.63 430.33,-112.51"/>
</a>
</g>
</g>
<!-- Node11&#45;&gt;Node6 -->
<g id="edge11_Node000011_Node000006" class="edge">
<title>Node11&#45;&gt;Node6</title>
<g id="a_edge11_Node000011_Node000006"><a xlink:title=" ">
<path fill="none" stroke="#63b8ff" d="M247.57,-48.87C236.3,-51.61 225.24,-56.39 217,-64.5 168.45,-112.29 226.21,-162.53 181,-213.5 173.04,-222.48 160.42,-227.22 149.73,-229.73"/>
<polygon fill="#63b8ff" stroke="#63b8ff" points="248.3,-52.29 257.45,-46.95 246.97,-45.42 248.3,-52.29"/>
</a>
</g>
</g>
<!-- Node16 -->
<g id="Node000016" class="node">
<title>Node16</title>
<g id="a_Node000016"><a xlink:href="ad9083_2src_2app__jesd_8c.html#a3fc69d9cce4bef3b10d0ea379c5cbd86" target="_top" xlink:title="Application JESD setup.">
<polygon fill="white" stroke="#666666" points="338.5,-356 257.5,-356 257.5,-337 338.5,-337 338.5,-356"/>
<text text-anchor="middle" x="298" y="-344" font-family="Helvetica,sans-Serif" font-size="10.00">app_jesd_init</text>
</a>
</g>
</g>
<!-- Node15&#45;&gt;Node16 -->
<g id="edge16_Node000015_Node000016" class="edge">
<title>Node15&#45;&gt;Node16</title>
<g id="a_edge16_Node000015_Node000016"><a xlink:title=" ">
<path fill="none" stroke="#63b8ff" d="M449.21,-292.96C428.44,-302.5 402.65,-313.77 379,-322.5 364.58,-327.82 348.39,-332.85 334.36,-336.92"/>
<polygon fill="#63b8ff" stroke="#63b8ff" points="450.77,-296.1 458.37,-288.72 447.83,-289.74 450.77,-296.1"/>
</a>
</g>
</g>
<!-- Node17 -->
<g id="Node000017" class="node">
<title>Node17</title>
<g id="a_Node000017"><a xlink:href="adrv9009_2src_2app_2app__jesd_8c.html#ae5553405b03de1193a617ca30d31a455" target="_top" xlink:title=" ">
<polygon fill="white" stroke="#666666" points="158,-318 100,-318 100,-299 158,-299 158,-318"/>
<text text-anchor="middle" x="129" y="-306" font-family="Helvetica,sans-Serif" font-size="10.00">jesd_init</text>
</a>
</g>
</g>
<!-- Node15&#45;&gt;Node17 -->
<g id="edge17_Node000015_Node000017" class="edge">
<title>Node15&#45;&gt;Node17</title>
<g id="a_edge17_Node000015_Node000017"><a xlink:title=" ">
<path fill="none" stroke="#63b8ff" d="M425.05,-283.61C409.96,-285.75 393.94,-287.86 379,-289.5 299.06,-298.3 204.23,-304.32 158.06,-306.97"/>
<polygon fill="#63b8ff" stroke="#63b8ff" points="425.93,-287.02 435.33,-282.12 424.93,-280.09 425.93,-287.02"/>
</a>
</g>
</g>
<!-- Node18 -->
<g id="Node000018" class="node">
<title>Node18</title>
<g id="a_Node000018"><a xlink:href="ad6676__ebz_8c.html#a840291bc02cba5474a4cb46a9b9566fe" target="_top" xlink:title="main">
<polygon fill="white" stroke="#666666" points="318.5,-280 277.5,-280 277.5,-261 318.5,-261 318.5,-280"/>
<text text-anchor="middle" x="298" y="-268" font-family="Helvetica,sans-Serif" font-size="10.00">main</text>
</a>
</g>
</g>
<!-- Node15&#45;&gt;Node18 -->
<g id="edge19_Node000015_Node000018" class="edge">
<title>Node15&#45;&gt;Node18</title>
<g id="a_edge19_Node000015_Node000018"><a xlink:title=" ">
<path fill="none" stroke="#63b8ff" d="M424.98,-272.48C387.78,-271.89 343.7,-271.2 318.77,-270.81"/>
<polygon fill="#63b8ff" stroke="#63b8ff" points="425.21,-275.98 435.27,-272.64 425.32,-268.98 425.21,-275.98"/>
</a>
</g>
</g>
<!-- Node17&#45;&gt;Node5 -->
<g id="edge18_Node000017_Node000005" class="edge">
<title>Node17&#45;&gt;Node5</title>
<g id="a_edge18_Node000017_Node000005"><a xlink:title=" ">
<path fill="none" stroke="#63b8ff" d="M89.34,-308.5C72.97,-308.5 54.61,-308.5 41.12,-308.5"/>
<polygon fill="#63b8ff" stroke="#63b8ff" points="89.74,-312 99.74,-308.5 89.74,-305 89.74,-312"/>
</a>
</g>
</g>
<!-- Node19&#45;&gt;Node12 -->
<g id="edge24_Node000019_Node000012" class="edge">
<title>Node19&#45;&gt;Node12</title>
<g id="a_edge24_Node000019_Node000012"><a xlink:title=" ">
<path fill="none" stroke="#63b8ff" d="M431.89,-183.94C403.16,-178.22 369.07,-171.44 342.61,-166.18"/>
<polygon fill="#63b8ff" stroke="#63b8ff" points="431.31,-187.39 441.8,-185.91 432.68,-180.53 431.31,-187.39"/>
</a>
</g>
</g>
<!-- Node19&#45;&gt;Node13 -->
<g id="edge25_Node000019_Node000013" class="edge">
<title>Node19&#45;&gt;Node13</title>
<g id="a_edge25_Node000019_Node000013"><a xlink:title=" ">
<path fill="none" stroke="#63b8ff" d="M465.74,-180.76C443.78,-167.98 410.18,-149.81 379,-138.5 367.49,-134.33 354.69,-130.93 342.75,-128.25"/>
<polygon fill="#63b8ff" stroke="#63b8ff" points="464.01,-183.8 474.4,-185.87 467.57,-177.78 464.01,-183.8"/>
</a>
</g>
</g>
<!-- Node19&#45;&gt;Node18 -->
<g id="edge28_Node000019_Node000018" class="edge">
<title>Node19&#45;&gt;Node18</title>
<g id="a_edge28_Node000019_Node000018"><a xlink:title=" ">
<path fill="none" stroke="#63b8ff" d="M465.74,-210.24C443.78,-223.02 410.18,-241.19 379,-252.5 359.06,-259.73 335.23,-264.64 318.79,-267.48"/>
<polygon fill="#63b8ff" stroke="#63b8ff" points="467.57,-213.22 474.4,-205.13 464.01,-207.2 467.57,-213.22"/>
</a>
</g>
</g>
<!-- Node20 -->
<g id="Node000020" class="node">
<title>Node20</title>
<g id="a_Node000020"><a xlink:href="ad9083_2src_2app__jesd_8c.html#ae6b65d2241caee09b5f6dd0c92aa44f3" target="_top" xlink:title=" ">
<polygon fill="white" stroke="#666666" points="345.5,-243 250.5,-243 250.5,-224 345.5,-224 345.5,-243"/>
<text text-anchor="middle" x="298" y="-231" font-family="Helvetica,sans-Serif" font-size="10.00">app_jesd_status</text>
</a>
</g>
</g>
<!-- Node19&#45;&gt;Node20 -->
<g id="edge22_Node000019_Node000020" class="edge">
<title>Node19&#45;&gt;Node20</title>
<g id="a_edge22_Node000019_Node000020"><a xlink:title=" ">
<path fill="none" stroke="#63b8ff" d="M431.85,-207.07C404.18,-212.57 371.54,-219.07 345.53,-224.24"/>
<polygon fill="#63b8ff" stroke="#63b8ff" points="432.68,-210.47 441.8,-205.09 431.31,-203.61 432.68,-210.47"/>
</a>
</g>
</g>
<!-- Node22 -->
<g id="Node000022" class="node">
<title>Node22</title>
<g id="a_Node000022"><a xlink:href="adrv9009_2src_2app_2app__jesd_8c.html#ab5c66fa4fbb9412120bfb13252f519c6" target="_top" xlink:title=" ">
<polygon fill="white" stroke="#666666" points="165,-205 93,-205 93,-186 165,-186 165,-205"/>
<text text-anchor="middle" x="129" y="-193" font-family="Helvetica,sans-Serif" font-size="10.00">jesd_status</text>
</a>
</g>
</g>
<!-- Node19&#45;&gt;Node22 -->
<g id="edge26_Node000019_Node000022" class="edge">
<title>Node19&#45;&gt;Node22</title>
<g id="a_edge26_Node000019_Node000022"><a xlink:title=" ">
<path fill="none" stroke="#63b8ff" d="M404.88,-195.5C328.48,-195.5 220.14,-195.5 165.07,-195.5"/>
<polygon fill="#63b8ff" stroke="#63b8ff" points="404.97,-199 414.97,-195.5 404.97,-192 404.97,-199"/>
</a>
</g>
</g>
<!-- Node21 -->
<g id="Node000021" class="node">
<title>Node21</title>
<g id="a_Node000021"><a xlink:href="ad9083_2src_2app_8c.html#a840291bc02cba5474a4cb46a9b9566fe" target="_top" xlink:title="Main application.">
<polygon fill="white" stroke="#666666" points="149.5,-279 108.5,-279 108.5,-260 149.5,-260 149.5,-279"/>
<text text-anchor="middle" x="129" y="-267" font-family="Helvetica,sans-Serif" font-size="10.00">main</text>
</a>
</g>
</g>
<!-- Node20&#45;&gt;Node21 -->
<g id="edge23_Node000020_Node000021" class="edge">
<title>Node20&#45;&gt;Node21</title>
<g id="a_edge23_Node000020_Node000021"><a xlink:title=" ">
<path fill="none" stroke="#63b8ff" d="M242.61,-245.23C210.79,-252.09 172.52,-260.33 149.78,-265.24"/>
<polygon fill="#63b8ff" stroke="#63b8ff" points="243.65,-248.58 252.69,-243.05 242.17,-241.74 243.65,-248.58"/>
</a>
</g>
</g>
<!-- Node22&#45;&gt;Node5 -->
<g id="edge27_Node000022_Node000005" class="edge">
<title>Node22&#45;&gt;Node5</title>
<g id="a_edge27_Node000022_Node000005"><a xlink:title=" ">
<path fill="none" stroke="#63b8ff" d="M83.52,-208.92C81.22,-210.3 79.03,-211.83 77,-213.5 48.29,-237.23 31.12,-279.93 24.56,-298.93"/>
<polygon fill="#63b8ff" stroke="#63b8ff" points="85.44,-211.86 92.79,-204.23 82.28,-205.62 85.44,-211.86"/>
</a>
</g>
</g>
</g>
</svg>
