<?xml version="1.0" encoding="UTF-8" standalone="no"?>
<!DOCTYPE svg PUBLIC "-//W3C//DTD SVG 1.1//EN"
 "http://www.w3.org/Graphics/SVG/1.1/DTD/svg11.dtd">
<!-- Generated by graphviz version 2.43.0 (0)
 -->
<!-- Title: drivers/axi_core/axi_dac_core/axi_dac_core.h Pages: 1 -->
<!--zoomable 192 -->

<svg id="main" version="1.1" xmlns="http://www.w3.org/2000/svg" xmlns:xlink="http://www.w3.org/1999/xlink" xml:space="preserve" onload="init(evt)">

<style type="text/css"><![CDATA[
.node, .edge {opacity: 0.7;}
.node.selected, .edge.selected {opacity: 1;}
.edge:hover path { stroke: red; }
.edge:hover polygon { stroke: red; fill: red; }
]]></style>

<defs>
  <circle id="rim" cx="0" cy="0" r="7"/>
  <circle id="rim2" cx="0" cy="0" r="3.5"/>
  <g id="zoomPlus">
    <use xlink:href="#rim" fill="#404040"><set attributeName="fill" to="#808080" begin="zoomplus.mouseover" end="zoomplus.mouseout"/></use>
    <path d="M-4,0h8M0,-4v8" fill="none" stroke="white" stroke-width="1.5" pointer-events="none"/>
  </g>
  <g id="zoomMin">
    <use xlink:href="#rim" fill="#404040"><set attributeName="fill" to="#808080" begin="zoomminus.mouseover" end="zoomminus.mouseout"/></use>
    <path d="M-4,0h8" fill="none" stroke="white" stroke-width="1.5" pointer-events="none"/>
  </g>
  <g id="arrowUp" transform="translate(30 24)">
    <use xlink:href="#rim"/>
    <path pointer-events="none" fill="none" stroke="white" stroke-width="1.5" d="M0,-3.0v7 M-2.5,-0.5L0,-3.0L2.5,-0.5"/>
  </g>
  <g id="arrowRight" transform="rotate(90) translate(36 -43)">
    <use xlink:href="#rim"/>
    <path pointer-events="none" fill="none" stroke="white" stroke-width="1.5" d="M0,-3.0v7 M-2.5,-0.5L0,-3.0L2.5,-0.5"/>
  </g>
  <g id="arrowDown" transform="rotate(180) translate(-30 -48)">
    <use xlink:href="#rim"/>
    <path pointer-events="none" fill="none" stroke="white" stroke-width="1.5" d="M0,-3.0v7 M-2.5,-0.5L0,-3.0L2.5,-0.5"/>
  </g>
  <g id="arrowLeft" transform="rotate(270) translate(-36 17)">
    <use xlink:href="#rim"/>
    <path pointer-events="none" fill="none" stroke="white" stroke-width="1.5" d="M0,-3.0v7 M-2.5,-0.5L0,-3.0L2.5,-0.5"/>
  </g>
  <g id="resetDef">
    <use xlink:href="#rim2" fill="#404040"><set attributeName="fill" to="#808080" begin="reset.mouseover" end="reset.mouseout"/></use>
  </g>
</defs>
<script type="application/ecmascript">
var viewWidth = 2500;
var viewHeight = 192;
var sectionId = 'dynsection-1';
</script>
<script type="application/ecmascript" xlink:href="svg.min.js"/>
<svg id="graph" class="graph">
<g id="viewport">
<title>drivers/axi_core/axi_dac_core/axi_dac_core.h</title>
<!-- Node1 -->
<g id="Node000001" class="node">
<title>Node1</title>
<g id="a_Node000001"><a xlink:title="Driver for the Analog Devices AXI&#45;DAC&#45;CORE module.">
<polygon fill="#999999" stroke="#666666" points="1253.5,-184 1112.5,-184 1112.5,-154 1253.5,-154 1253.5,-184"/>
<text text-anchor="start" x="1120.5" y="-172" font-family="Helvetica,sans-Serif" font-size="10.00">drivers/axi_core/axi</text>
<text text-anchor="middle" x="1183" y="-161" font-family="Helvetica,sans-Serif" font-size="10.00">_dac_core/axi_dac_core.h</text>
</a>
</g>
</g>
<!-- Node2 -->
<g id="Node000002" class="node">
<title>Node2</title>
<g id="a_Node000002"><a xlink:href="axi__dac__core_8c.html" target="_top" xlink:title="Driver for the Analog Devices AXI&#45;DAC&#45;CORE module.">
<polygon fill="white" stroke="#666666" points="140,-112.5 0,-112.5 0,-82.5 140,-82.5 140,-112.5"/>
<text text-anchor="start" x="8" y="-100.5" font-family="Helvetica,sans-Serif" font-size="10.00">drivers/axi_core/axi</text>
<text text-anchor="middle" x="70" y="-89.5" font-family="Helvetica,sans-Serif" font-size="10.00">_dac_core/axi_dac_core.c</text>
</a>
</g>
</g>
<!-- Node1&#45;&gt;Node2 -->
<g id="edge1_Node000001_Node000002" class="edge">
<title>Node1&#45;&gt;Node2</title>
<g id="a_edge1_Node000001_Node000002"><a xlink:title=" ">
<path fill="none" stroke="#63b8ff" d="M1102.17,-166.12C892.09,-160.89 332.5,-144.82 149,-118 139.77,-116.65 130.05,-114.7 120.71,-112.55"/>
<polygon fill="#63b8ff" stroke="#63b8ff" points="1102.13,-169.62 1112.21,-166.36 1102.3,-162.62 1102.13,-169.62"/>
</a>
</g>
</g>
<!-- Node3 -->
<g id="Node000003" class="node">
<title>Node3</title>
<g id="a_Node000003"><a xlink:href="iio__axi__dac_8h.html" target="_top" xlink:title="Header file of iio_axi_dac.">
<polygon fill="white" stroke="#666666" points="284,-112.5 158,-112.5 158,-82.5 284,-82.5 284,-112.5"/>
<text text-anchor="start" x="166" y="-100.5" font-family="Helvetica,sans-Serif" font-size="10.00">drivers/axi_core/iio</text>
<text text-anchor="middle" x="221" y="-89.5" font-family="Helvetica,sans-Serif" font-size="10.00">_axi_dac/iio_axi_dac.h</text>
</a>
</g>
</g>
<!-- Node1&#45;&gt;Node3 -->
<g id="edge2_Node000001_Node000003" class="edge">
<title>Node1&#45;&gt;Node3</title>
<g id="a_edge2_Node000001_Node000003"><a xlink:title=" ">
<path fill="none" stroke="#63b8ff" d="M1102.25,-168.59C946,-168.59 591.78,-163.07 298,-118 289.14,-116.64 279.82,-114.71 270.83,-112.6"/>
<polygon fill="#63b8ff" stroke="#63b8ff" points="1102.26,-172.09 1112.26,-168.58 1102.25,-165.09 1102.26,-172.09"/>
</a>
</g>
</g>
<!-- Node5 -->
<g id="Node000005" class="node">
<title>Node5</title>
<g id="a_Node000005"><a xlink:href="adrv902x_2src_2examples_2iio__example_2iio__example_8c.html" target="_top" xlink:title="IIO example for the adrv902x project.">
<polygon fill="white" stroke="#666666" points="377.5,-41 246.5,-41 246.5,0 377.5,0 377.5,-41"/>
<text text-anchor="start" x="254.5" y="-29" font-family="Helvetica,sans-Serif" font-size="10.00">projects/adrv902x/src</text>
<text text-anchor="start" x="254.5" y="-18" font-family="Helvetica,sans-Serif" font-size="10.00">/examples/iio_example</text>
<text text-anchor="middle" x="312" y="-7" font-family="Helvetica,sans-Serif" font-size="10.00">/iio_example.c</text>
</a>
</g>
</g>
<!-- Node1&#45;&gt;Node5 -->
<g id="edge18_Node000001_Node000005" class="edge">
<title>Node1&#45;&gt;Node5</title>
<g id="a_edge18_Node000001_Node000005"><a xlink:title=" ">
<path fill="none" stroke="#63b8ff" d="M1102.14,-168.74C900.87,-169.82 389.41,-167.6 332,-118 310.25,-99.21 308.43,-63.52 309.75,-41.21"/>
<polygon fill="#63b8ff" stroke="#63b8ff" points="1102.38,-172.24 1112.36,-168.68 1102.34,-165.24 1102.38,-172.24"/>
</a>
</g>
</g>
<!-- Node6 -->
<g id="Node000006" class="node">
<title>Node6</title>
<g id="a_Node000006"><a xlink:href="ad9361__api_8c.html" target="_top" xlink:title="Implementation of AD9361 API Driver.">
<polygon fill="white" stroke="#666666" points="463.5,-112.5 340.5,-112.5 340.5,-82.5 463.5,-82.5 463.5,-112.5"/>
<text text-anchor="start" x="348.5" y="-100.5" font-family="Helvetica,sans-Serif" font-size="10.00">drivers/rf&#45;transceiver</text>
<text text-anchor="middle" x="402" y="-89.5" font-family="Helvetica,sans-Serif" font-size="10.00">/ad9361/ad9361_api.c</text>
</a>
</g>
</g>
<!-- Node1&#45;&gt;Node6 -->
<g id="edge5_Node000001_Node000006" class="edge">
<title>Node1&#45;&gt;Node6</title>
<g id="a_edge5_Node000001_Node000006"><a xlink:title=" ">
<path fill="none" stroke="#63b8ff" d="M1102.35,-167.49C970,-165.5 698.85,-156.58 473,-118 464.81,-116.6 456.2,-114.66 447.92,-112.53"/>
<polygon fill="#63b8ff" stroke="#63b8ff" points="1102.36,-170.99 1112.41,-167.63 1102.46,-163.99 1102.36,-170.99"/>
</a>
</g>
</g>
<!-- Node7 -->
<g id="Node000007" class="node">
<title>Node7</title>
<g id="a_Node000007"><a xlink:href="ad3552r__fmcz_2src_2common_2common__data_8c.html" target="_top" xlink:title="Defines common data to be used by iio examples.">
<polygon fill="white" stroke="#666666" points="642.5,-112.5 481.5,-112.5 481.5,-82.5 642.5,-82.5 642.5,-112.5"/>
<text text-anchor="start" x="489.5" y="-100.5" font-family="Helvetica,sans-Serif" font-size="10.00">projects/ad3552r_fmcz</text>
<text text-anchor="middle" x="562" y="-89.5" font-family="Helvetica,sans-Serif" font-size="10.00">/src/common/common_data.c</text>
</a>
</g>
</g>
<!-- Node1&#45;&gt;Node7 -->
<g id="edge6_Node000001_Node000007" class="edge">
<title>Node1&#45;&gt;Node7</title>
<g id="a_edge6_Node000001_Node000007"><a xlink:title=" ">
<path fill="none" stroke="#63b8ff" d="M1102.08,-163.4C997.65,-156.77 810.52,-142.55 652,-118 642.2,-116.48 631.87,-114.56 621.84,-112.51"/>
<polygon fill="#63b8ff" stroke="#63b8ff" points="1102.04,-166.9 1112.24,-164.03 1102.47,-159.91 1102.04,-166.9"/>
</a>
</g>
</g>
<!-- Node8 -->
<g id="Node000008" class="node">
<title>Node8</title>
<g id="a_Node000008"><a xlink:href="ad9081_2src_2app_8c.html" target="_top" xlink:title="AD9081 application example.">
<polygon fill="white" stroke="#666666" points="773,-112.5 661,-112.5 661,-82.5 773,-82.5 773,-112.5"/>
<text text-anchor="start" x="669" y="-100.5" font-family="Helvetica,sans-Serif" font-size="10.00">projects/ad9081/src</text>
<text text-anchor="middle" x="717" y="-89.5" font-family="Helvetica,sans-Serif" font-size="10.00">/app.c</text>
</a>
</g>
</g>
<!-- Node1&#45;&gt;Node8 -->
<g id="edge7_Node000001_Node000008" class="edge">
<title>Node1&#45;&gt;Node8</title>
<g id="a_edge7_Node000001_Node000008"><a xlink:title=" ">
<path fill="none" stroke="#63b8ff" d="M1101.96,-161.9C1020.49,-154.84 891.61,-141.11 782,-118 774.85,-116.49 767.35,-114.57 760.09,-112.53"/>
<polygon fill="#63b8ff" stroke="#63b8ff" points="1101.88,-165.41 1112.14,-162.77 1102.48,-158.44 1101.88,-165.41"/>
</a>
</g>
</g>
<!-- Node9 -->
<g id="Node000009" class="node">
<title>Node9</title>
<g id="a_Node000009"><a xlink:href="ad9172_2src_2main_8c.html" target="_top" xlink:title="Implementation of Main Function.">
<polygon fill="white" stroke="#666666" points="903,-112.5 791,-112.5 791,-82.5 903,-82.5 903,-112.5"/>
<text text-anchor="start" x="799" y="-100.5" font-family="Helvetica,sans-Serif" font-size="10.00">projects/ad9172/src</text>
<text text-anchor="middle" x="847" y="-89.5" font-family="Helvetica,sans-Serif" font-size="10.00">/main.c</text>
</a>
</g>
</g>
<!-- Node1&#45;&gt;Node9 -->
<g id="edge8_Node000001_Node000009" class="edge">
<title>Node1&#45;&gt;Node9</title>
<g id="a_edge8_Node000001_Node000009"><a xlink:title=" ">
<path fill="none" stroke="#63b8ff" d="M1102.48,-155.51C1048.32,-146.53 975.48,-133.33 912,-118 905.36,-116.4 898.39,-114.52 891.58,-112.57"/>
<polygon fill="#63b8ff" stroke="#63b8ff" points="1101.93,-158.97 1112.37,-157.14 1103.07,-152.06 1101.93,-158.97"/>
</a>
</g>
</g>
<!-- Node10 -->
<g id="Node000010" class="node">
<title>Node10</title>
<g id="a_Node000010"><a xlink:href="ad9361_2src_2main_8c.html" target="_top" xlink:title="Implementation of Main Function.">
<polygon fill="white" stroke="#666666" points="1033,-112.5 921,-112.5 921,-82.5 1033,-82.5 1033,-112.5"/>
<text text-anchor="start" x="929" y="-100.5" font-family="Helvetica,sans-Serif" font-size="10.00">projects/ad9361/src</text>
<text text-anchor="middle" x="977" y="-89.5" font-family="Helvetica,sans-Serif" font-size="10.00">/main.c</text>
</a>
</g>
</g>
<!-- Node1&#45;&gt;Node10 -->
<g id="edge9_Node000001_Node000010" class="edge">
<title>Node1&#45;&gt;Node10</title>
<g id="a_edge9_Node000001_Node000010"><a xlink:title=" ">
<path fill="none" stroke="#63b8ff" d="M1131.78,-150.72C1096.88,-138.95 1051.28,-123.56 1018.63,-112.54"/>
<polygon fill="#63b8ff" stroke="#63b8ff" points="1130.72,-154.06 1141.31,-153.94 1132.96,-147.42 1130.72,-154.06"/>
</a>
</g>
</g>
<!-- Node11 -->
<g id="Node000011" class="node">
<title>Node11</title>
<g id="a_Node000011"><a xlink:href="ad9371_2src_2app_2headless_8c.html" target="_top" xlink:title="Implementation of Main Function.">
<polygon fill="white" stroke="#666666" points="1163,-112.5 1051,-112.5 1051,-82.5 1163,-82.5 1163,-112.5"/>
<text text-anchor="start" x="1059" y="-100.5" font-family="Helvetica,sans-Serif" font-size="10.00">projects/ad9371/src</text>
<text text-anchor="middle" x="1107" y="-89.5" font-family="Helvetica,sans-Serif" font-size="10.00">/app/headless.c</text>
</a>
</g>
</g>
<!-- Node1&#45;&gt;Node11 -->
<g id="edge10_Node000001_Node000011" class="edge">
<title>Node1&#45;&gt;Node11</title>
<g id="a_edge10_Node000001_Node000011"><a xlink:title=" ">
<path fill="none" stroke="#63b8ff" d="M1160.03,-146.99C1147.83,-135.84 1133.17,-122.43 1122.36,-112.54"/>
<polygon fill="#63b8ff" stroke="#63b8ff" points="1157.88,-149.77 1167.62,-153.94 1162.6,-144.6 1157.88,-149.77"/>
</a>
</g>
</g>
<!-- Node12 -->
<g id="Node000012" class="node">
<title>Node12</title>
<g id="a_Node000012"><a xlink:href="ad9739a__fmc__ebz_8c.html" target="_top" xlink:title="Implementation of Main Function.">
<polygon fill="white" stroke="#666666" points="1336.5,-112.5 1181.5,-112.5 1181.5,-82.5 1336.5,-82.5 1336.5,-112.5"/>
<text text-anchor="start" x="1189.5" y="-100.5" font-family="Helvetica,sans-Serif" font-size="10.00">projects/ad9739a&#45;fmc</text>
<text text-anchor="middle" x="1259" y="-89.5" font-family="Helvetica,sans-Serif" font-size="10.00">&#45;ebz/src/ad9739a_fmc_ebz.c</text>
</a>
</g>
</g>
<!-- Node1&#45;&gt;Node12 -->
<g id="edge11_Node000001_Node000012" class="edge">
<title>Node1&#45;&gt;Node12</title>
<g id="a_edge11_Node000001_Node000012"><a xlink:title=" ">
<path fill="none" stroke="#63b8ff" d="M1205.97,-146.99C1218.17,-135.84 1232.83,-122.43 1243.64,-112.54"/>
<polygon fill="#63b8ff" stroke="#63b8ff" points="1203.4,-144.6 1198.38,-153.94 1208.12,-149.77 1203.4,-144.6"/>
</a>
</g>
</g>
<!-- Node13 -->
<g id="Node000013" class="node">
<title>Node13</title>
<g id="a_Node000013"><a xlink:href="adrv9001_2src_2app_2headless_8c.html" target="_top" xlink:title="adrv9002 main project file.">
<polygon fill="white" stroke="#666666" points="1477,-112.5 1355,-112.5 1355,-82.5 1477,-82.5 1477,-112.5"/>
<text text-anchor="start" x="1363" y="-100.5" font-family="Helvetica,sans-Serif" font-size="10.00">projects/adrv9001/src</text>
<text text-anchor="middle" x="1416" y="-89.5" font-family="Helvetica,sans-Serif" font-size="10.00">/app/headless.c</text>
</a>
</g>
</g>
<!-- Node1&#45;&gt;Node13 -->
<g id="edge12_Node000001_Node000013" class="edge">
<title>Node1&#45;&gt;Node13</title>
<g id="a_edge12_Node000001_Node000013"><a xlink:title=" ">
<path fill="none" stroke="#63b8ff" d="M1239.93,-151.02C1279.52,-139.21 1331.67,-123.65 1368.92,-112.54"/>
<polygon fill="#63b8ff" stroke="#63b8ff" points="1238.73,-147.72 1230.15,-153.94 1240.73,-154.43 1238.73,-147.72"/>
</a>
</g>
</g>
<!-- Node14 -->
<g id="Node000014" class="node">
<title>Node14</title>
<g id="a_Node000014"><a xlink:href="headless__arm_8c.html" target="_top" xlink:title="Contains example code for user integration with their application. This file contains code for ARM.">
<polygon fill="white" stroke="#666666" points="1617,-112.5 1495,-112.5 1495,-82.5 1617,-82.5 1617,-112.5"/>
<text text-anchor="start" x="1503" y="-100.5" font-family="Helvetica,sans-Serif" font-size="10.00">projects/adrv9009/src</text>
<text text-anchor="middle" x="1556" y="-89.5" font-family="Helvetica,sans-Serif" font-size="10.00">/app/headless_arm.c</text>
</a>
</g>
</g>
<!-- Node1&#45;&gt;Node14 -->
<g id="edge13_Node000001_Node000014" class="edge">
<title>Node1&#45;&gt;Node14</title>
<g id="a_edge13_Node000001_Node000014"><a xlink:title=" ">
<path fill="none" stroke="#63b8ff" d="M1263.52,-157.13C1324.84,-148.28 1411.17,-134.55 1486,-118 1493.27,-116.39 1500.9,-114.49 1508.35,-112.52"/>
<polygon fill="#63b8ff" stroke="#63b8ff" points="1262.92,-153.68 1253.52,-158.57 1263.91,-160.61 1262.92,-153.68"/>
</a>
</g>
</g>
<!-- Node15 -->
<g id="Node000015" class="node">
<title>Node15</title>
<g id="a_Node000015"><a xlink:href="headless__mb_8c.html" target="_top" xlink:title="Contains example code for user integration with their application. This file contains code for MicroB...">
<polygon fill="white" stroke="#666666" points="1757,-112.5 1635,-112.5 1635,-82.5 1757,-82.5 1757,-112.5"/>
<text text-anchor="start" x="1643" y="-100.5" font-family="Helvetica,sans-Serif" font-size="10.00">projects/adrv9009/src</text>
<text text-anchor="middle" x="1696" y="-89.5" font-family="Helvetica,sans-Serif" font-size="10.00">/app/headless_mb.c</text>
</a>
</g>
</g>
<!-- Node1&#45;&gt;Node15 -->
<g id="edge14_Node000001_Node000015" class="edge">
<title>Node1&#45;&gt;Node15</title>
<g id="a_edge14_Node000001_Node000015"><a xlink:title=" ">
<path fill="none" stroke="#63b8ff" d="M1263.78,-162.76C1353.03,-156.08 1500.72,-142.36 1626,-118 1633.68,-116.51 1641.74,-114.59 1649.56,-112.55"/>
<polygon fill="#63b8ff" stroke="#63b8ff" points="1263.45,-159.28 1253.73,-163.51 1263.96,-166.26 1263.45,-159.28"/>
</a>
</g>
</g>
<!-- Node16 -->
<g id="Node000016" class="node">
<title>Node16</title>
<g id="a_Node000016"><a xlink:href="headless__zu_8c.html" target="_top" xlink:title="Contains example code for user integration with their application. This file contains code for ZU11EG...">
<polygon fill="white" stroke="#666666" points="1897,-112.5 1775,-112.5 1775,-82.5 1897,-82.5 1897,-112.5"/>
<text text-anchor="start" x="1783" y="-100.5" font-family="Helvetica,sans-Serif" font-size="10.00">projects/adrv9009/src</text>
<text text-anchor="middle" x="1836" y="-89.5" font-family="Helvetica,sans-Serif" font-size="10.00">/app/headless_zu.c</text>
</a>
</g>
</g>
<!-- Node1&#45;&gt;Node16 -->
<g id="edge15_Node000001_Node000016" class="edge">
<title>Node1&#45;&gt;Node16</title>
<g id="a_edge15_Node000001_Node000016"><a xlink:title=" ">
<path fill="none" stroke="#63b8ff" d="M1263.86,-165.81C1376.99,-161.68 1588.59,-150.03 1766,-118 1773.95,-116.57 1782.29,-114.63 1790.35,-112.53"/>
<polygon fill="#63b8ff" stroke="#63b8ff" points="1263.42,-162.33 1253.55,-166.18 1263.67,-169.32 1263.42,-162.33"/>
</a>
</g>
</g>
<!-- Node17 -->
<g id="Node000017" class="node">
<title>Node17</title>
<g id="a_Node000017"><a xlink:href="adrv902x_2src_2examples_2basic__example_2basic__example_8c.html" target="_top" xlink:title="Basic example for the adrv902x project.">
<polygon fill="white" stroke="#666666" points="2059,-118 1915,-118 1915,-77 2059,-77 2059,-118"/>
<text text-anchor="start" x="1923" y="-106" font-family="Helvetica,sans-Serif" font-size="10.00">projects/adrv902x/src</text>
<text text-anchor="start" x="1923" y="-95" font-family="Helvetica,sans-Serif" font-size="10.00">/examples/basic_example</text>
<text text-anchor="middle" x="1987" y="-84" font-family="Helvetica,sans-Serif" font-size="10.00">/basic_example.c</text>
</a>
</g>
</g>
<!-- Node1&#45;&gt;Node17 -->
<g id="edge16_Node000001_Node000017" class="edge">
<title>Node1&#45;&gt;Node17</title>
<g id="a_edge16_Node000001_Node000017"><a xlink:title=" ">
<path fill="none" stroke="#63b8ff" d="M1263.93,-166.81C1398.12,-163.84 1674.81,-153.57 1906,-118 1908.86,-117.56 1911.77,-117.07 1914.7,-116.54"/>
<polygon fill="#63b8ff" stroke="#63b8ff" points="1263.66,-163.31 1253.73,-167.02 1263.81,-170.31 1263.66,-163.31"/>
</a>
</g>
</g>
<!-- Node18 -->
<g id="Node000018" class="node">
<title>Node18</title>
<g id="a_Node000018"><a xlink:href="dma__example_8c.html" target="_top" xlink:title="DMA example for the adrv902x project.">
<polygon fill="white" stroke="#666666" points="2217,-118 2077,-118 2077,-77 2217,-77 2217,-118"/>
<text text-anchor="start" x="2085" y="-106" font-family="Helvetica,sans-Serif" font-size="10.00">projects/adrv902x/src</text>
<text text-anchor="start" x="2085" y="-95" font-family="Helvetica,sans-Serif" font-size="10.00">/examples/dma_example</text>
<text text-anchor="middle" x="2147" y="-84" font-family="Helvetica,sans-Serif" font-size="10.00">/dma_example.c</text>
</a>
</g>
</g>
<!-- Node1&#45;&gt;Node18 -->
<g id="edge17_Node000001_Node000018" class="edge">
<title>Node1&#45;&gt;Node18</title>
<g id="a_edge17_Node000001_Node000018"><a xlink:title=" ">
<path fill="none" stroke="#63b8ff" d="M1263.72,-168.43C1419.94,-168.16 1774.09,-162.19 2068,-118 2070.93,-117.56 2073.92,-117.06 2076.92,-116.51"/>
<polygon fill="#63b8ff" stroke="#63b8ff" points="1263.72,-164.93 1253.72,-168.44 1263.73,-171.93 1263.72,-164.93"/>
</a>
</g>
</g>
<!-- Node19 -->
<g id="Node000019" class="node">
<title>Node19</title>
<g id="a_Node000019"><a xlink:href="fmcdaq2_8c.html" target="_top" xlink:title="Implementation of Main Function.">
<polygon fill="white" stroke="#666666" points="2354.5,-112.5 2235.5,-112.5 2235.5,-82.5 2354.5,-82.5 2354.5,-112.5"/>
<text text-anchor="start" x="2243.5" y="-100.5" font-family="Helvetica,sans-Serif" font-size="10.00">projects/fmcdaq2/src</text>
<text text-anchor="middle" x="2295" y="-89.5" font-family="Helvetica,sans-Serif" font-size="10.00">/app/fmcdaq2.c</text>
</a>
</g>
</g>
<!-- Node1&#45;&gt;Node19 -->
<g id="edge19_Node000001_Node000019" class="edge">
<title>Node1&#45;&gt;Node19</title>
<g id="a_edge19_Node000001_Node000019"><a xlink:title=" ">
<path fill="none" stroke="#63b8ff" d="M1263.83,-166.5C1475.28,-162.2 2041.16,-148.14 2226,-118 2234.11,-116.68 2242.62,-114.74 2250.79,-112.59"/>
<polygon fill="#63b8ff" stroke="#63b8ff" points="1263.66,-163 1253.73,-166.7 1263.8,-170 1263.66,-163"/>
</a>
</g>
</g>
<!-- Node20 -->
<g id="Node000020" class="node">
<title>Node20</title>
<g id="a_Node000020"><a xlink:href="fmcdaq3_8c.html" target="_top" xlink:title="Implementation of Main Function.">
<polygon fill="white" stroke="#666666" points="2491.5,-112.5 2372.5,-112.5 2372.5,-82.5 2491.5,-82.5 2491.5,-112.5"/>
<text text-anchor="start" x="2380.5" y="-100.5" font-family="Helvetica,sans-Serif" font-size="10.00">projects/fmcdaq3/src</text>
<text text-anchor="middle" x="2432" y="-89.5" font-family="Helvetica,sans-Serif" font-size="10.00">/app/fmcdaq3.c</text>
</a>
</g>
</g>
<!-- Node1&#45;&gt;Node20 -->
<g id="edge20_Node000001_Node000020" class="edge">
<title>Node1&#45;&gt;Node20</title>
<g id="a_edge20_Node000001_Node000020"><a xlink:title=" ">
<path fill="none" stroke="#63b8ff" d="M1263.83,-167.07C1494.26,-164.02 2151.53,-152.46 2364,-118 2372.12,-116.68 2380.65,-114.72 2388.82,-112.54"/>
<polygon fill="#63b8ff" stroke="#63b8ff" points="1263.46,-163.57 1253.51,-167.2 1263.55,-170.57 1263.46,-163.57"/>
</a>
</g>
</g>
<!-- Node4 -->
<g id="Node000004" class="node">
<title>Node4</title>
<g id="a_Node000004"><a xlink:href="iio__axi__dac_8c.html" target="_top" xlink:title="Implementation of iio_axi_dac. Instantiates iio_axi_adc and iio_axi_dac devices, for reading/writing ...">
<polygon fill="white" stroke="#666666" points="228.5,-35.5 103.5,-35.5 103.5,-5.5 228.5,-5.5 228.5,-35.5"/>
<text text-anchor="start" x="111.5" y="-23.5" font-family="Helvetica,sans-Serif" font-size="10.00">drivers/axi_core/iio</text>
<text text-anchor="middle" x="166" y="-12.5" font-family="Helvetica,sans-Serif" font-size="10.00">_axi_dac/iio_axi_dac.c</text>
</a>
</g>
</g>
<!-- Node3&#45;&gt;Node4 -->
<g id="edge3_Node000003_Node000004" class="edge">
<title>Node3&#45;&gt;Node4</title>
<g id="a_edge3_Node000003_Node000004"><a xlink:title=" ">
<path fill="none" stroke="#63b8ff" d="M204.67,-74.24C195.48,-61.7 184.28,-46.42 176.3,-35.54"/>
<polygon fill="#63b8ff" stroke="#63b8ff" points="201.92,-76.4 210.65,-82.39 207.56,-72.26 201.92,-76.4"/>
</a>
</g>
</g>
<!-- Node3&#45;&gt;Node5 -->
<g id="edge4_Node000003_Node000005" class="edge">
<title>Node3&#45;&gt;Node5</title>
<g id="a_edge4_Node000003_Node000005"><a xlink:title=" ">
<path fill="none" stroke="#63b8ff" d="M245.87,-76C259.02,-65.16 275.09,-51.92 288.09,-41.2"/>
<polygon fill="#63b8ff" stroke="#63b8ff" points="243.61,-73.33 238.12,-82.39 248.06,-78.73 243.61,-73.33"/>
</a>
</g>
</g>
</g>
</svg>

<g id="navigator" transform="translate(0 0)" fill="#404254">
  <rect fill="#f2f5e9" fill-opacity="0.5" stroke="#606060" stroke-width=".5" x="0" y="0" width="60" height="60"/>
  <use id="zoomplus" xlink:href="#zoomPlus" x="17" y="9" onmousedown="handleZoom(evt,'in')"/>
  <use id="zoomminus" xlink:href="#zoomMin" x="42" y="9" onmousedown="handleZoom(evt,'out')"/>
  <use id="reset" xlink:href="#resetDef" x="30" y="36" onmousedown="handleReset()"/>
   <use id="arrowup" xlink:href="#arrowUp" x="0" y="0" onmousedown="handlePan(0,-1)"/>
  <use id="arrowright" xlink:href="#arrowRight" x="0" y="0" onmousedown="handlePan(1,0)"/>
  <use id="arrowdown" xlink:href="#arrowDown" x="0" y="0" onmousedown="handlePan(0,1)"/>
  <use id="arrowleft" xlink:href="#arrowLeft" x="0" y="0" onmousedown="handlePan(-1,0)"/>
</g>
<svg viewBox="0 0 15 15" width="100%" height="30px" preserveAspectRatio="xMaxYMin meet">
 <g id="arrow_out" transform="scale(0.3 0.3)">
  <a xlink:href="axi__dac__core_8h__dep__incl_org.svg" target="_base">
   <rect id="button" ry="5" rx="5" y="6" x="6" height="38" width="38"
        fill="#f2f5e9" fill-opacity="0.5" stroke="#606060" stroke-width="1.0"/>
   <path id="arrow"
     d="M 11.500037,31.436501 C 11.940474,20.09759 22.043105,11.32322 32.158766,21.979434 L 37.068811,17.246167 C 37.068811,17.246167 37.088388,32 37.088388,32 L 22.160133,31.978069 C 22.160133,31.978069 26.997745,27.140456 26.997745,27.140456 C 18.528582,18.264221 13.291696,25.230495 11.500037,31.436501 z"
     style="fill:#404040;"/>
  </a>
 </g>
</svg>

<style type='text/css'>
<![CDATA[
[data-mouse-over-selected='false'] { opacity: 0.7; }
[data-mouse-over-selected='true']  { opacity: 1.0; }
]]>
</style>
<script type="application/ecmascript"><![CDATA[
document.addEventListener('DOMContentLoaded', (event) => {
  highlightEdges();
  highlightAdjacentNodes();
});
]]></script>
</svg>
