<?xml version="1.0" encoding="UTF-8" standalone="no"?>
<!DOCTYPE svg PUBLIC "-//W3C//DTD SVG 1.1//EN"
 "http://www.w3.org/Graphics/SVG/1.1/DTD/svg11.dtd">
<!-- Generated by graphviz version 2.43.0 (0)
 -->
<!-- Title: axi_dac_set_datasel Pages: 1 -->
<!--zoomable 376 -->

<svg id="main" version="1.1" xmlns="http://www.w3.org/2000/svg" xmlns:xlink="http://www.w3.org/1999/xlink" xml:space="preserve" onload="init(evt)">

<style type="text/css"><![CDATA[
.node, .edge {opacity: 0.7;}
.node.selected, .edge.selected {opacity: 1;}
.edge:hover path { stroke: red; }
.edge:hover polygon { stroke: red; fill: red; }
]]></style>

<defs>
  <circle id="rim" cx="0" cy="0" r="7"/>
  <circle id="rim2" cx="0" cy="0" r="3.5"/>
  <g id="zoomPlus">
    <use xlink:href="#rim" fill="#404040"><set attributeName="fill" to="#808080" begin="zoomplus.mouseover" end="zoomplus.mouseout"/></use>
    <path d="M-4,0h8M0,-4v8" fill="none" stroke="white" stroke-width="1.5" pointer-events="none"/>
  </g>
  <g id="zoomMin">
    <use xlink:href="#rim" fill="#404040"><set attributeName="fill" to="#808080" begin="zoomminus.mouseover" end="zoomminus.mouseout"/></use>
    <path d="M-4,0h8" fill="none" stroke="white" stroke-width="1.5" pointer-events="none"/>
  </g>
  <g id="arrowUp" transform="translate(30 24)">
    <use xlink:href="#rim"/>
    <path pointer-events="none" fill="none" stroke="white" stroke-width="1.5" d="M0,-3.0v7 M-2.5,-0.5L0,-3.0L2.5,-0.5"/>
  </g>
  <g id="arrowRight" transform="rotate(90) translate(36 -43)">
    <use xlink:href="#rim"/>
    <path pointer-events="none" fill="none" stroke="white" stroke-width="1.5" d="M0,-3.0v7 M-2.5,-0.5L0,-3.0L2.5,-0.5"/>
  </g>
  <g id="arrowDown" transform="rotate(180) translate(-30 -48)">
    <use xlink:href="#rim"/>
    <path pointer-events="none" fill="none" stroke="white" stroke-width="1.5" d="M0,-3.0v7 M-2.5,-0.5L0,-3.0L2.5,-0.5"/>
  </g>
  <g id="arrowLeft" transform="rotate(270) translate(-36 17)">
    <use xlink:href="#rim"/>
    <path pointer-events="none" fill="none" stroke="white" stroke-width="1.5" d="M0,-3.0v7 M-2.5,-0.5L0,-3.0L2.5,-0.5"/>
  </g>
  <g id="resetDef">
    <use xlink:href="#rim2" fill="#404040"><set attributeName="fill" to="#808080" begin="reset.mouseover" end="reset.mouseout"/></use>
  </g>
</defs>
<script type="application/ecmascript">
var viewWidth = 957;
var viewHeight = 376;
var sectionId = 'dynsection-18';
</script>
<script type="application/ecmascript" xlink:href="svg.min.js"/>
<svg id="graph" class="graph">
<g id="viewport">
<title>axi_dac_set_datasel</title>
<!-- Node1 -->
<g id="Node000001" class="node">
<title>Node1</title>
<g id="a_Node000001"><a xlink:title="AXI DAC Set Data type for specific channel.">
<polygon fill="#999999" stroke="#666666" points="949,-162.5 833,-162.5 833,-143.5 949,-143.5 949,-162.5"/>
<text text-anchor="middle" x="891" y="-150.5" font-family="Helvetica,sans-Serif" font-size="10.00">axi_dac_set_datasel</text>
</a>
</g>
</g>
<!-- Node2 -->
<g id="Node000002" class="node">
<title>Node2</title>
<g id="a_Node000002"><a xlink:href="ad3552r_8c.html#a99b8d9b1903e38e171e19132336af7fb" target="_top" xlink:title=" ">
<polygon fill="white" stroke="#666666" points="478,-367.5 380,-367.5 380,-348.5 478,-348.5 478,-367.5"/>
<text text-anchor="middle" x="429" y="-355.5" font-family="Helvetica,sans-Serif" font-size="10.00">ad3552r_axi_init</text>
</a>
</g>
</g>
<!-- Node1&#45;&gt;Node2 -->
<g id="edge1_Node000001_Node000002" class="edge">
<title>Node1&#45;&gt;Node2</title>
<g id="a_edge1_Node000001_Node000002"><a xlink:title=" ">
<path fill="none" stroke="#63b8ff" d="M880.29,-171.57C865.65,-197.83 835.49,-245.66 797,-273 699.16,-342.5 553.02,-356.04 478.09,-358.13"/>
<polygon fill="#63b8ff" stroke="#63b8ff" points="883.44,-173.11 885.13,-162.65 877.28,-169.77 883.44,-173.11"/>
</a>
</g>
</g>
<!-- Node6 -->
<g id="Node000006" class="node">
<title>Node6</title>
<g id="a_Node000006"><a xlink:href="axi__dac__core_8c.html#ad2e10485918e87d7d2c6f6a72c971544" target="_top" xlink:title="AXI DAC Data Setup.">
<polygon fill="white" stroke="#666666" points="795.5,-219.5 682.5,-219.5 682.5,-200.5 795.5,-200.5 795.5,-219.5"/>
<text text-anchor="middle" x="739" y="-207.5" font-family="Helvetica,sans-Serif" font-size="10.00">axi_dac_data_setup</text>
</a>
</g>
</g>
<!-- Node1&#45;&gt;Node6 -->
<g id="edge6_Node000001_Node000006" class="edge">
<title>Node1&#45;&gt;Node6</title>
<g id="a_edge6_Node000001_Node000006"><a xlink:title=" ">
<path fill="none" stroke="#63b8ff" d="M855.26,-166.2C827.71,-176.67 789.88,-191.05 765.19,-200.43"/>
<polygon fill="#63b8ff" stroke="#63b8ff" points="856.79,-169.36 864.89,-162.54 854.3,-162.82 856.79,-169.36"/>
</a>
</g>
</g>
<!-- Node8 -->
<g id="Node000008" class="node">
<title>Node8</title>
<g id="a_Node000008"><a xlink:href="adrv904x_2src_2examples_2basic__example_2basic__example_8c.html#ac5f0064cb4ac7ddab3ec02b10217b456" target="_top" xlink:title="Basic example main execution.">
<polygon fill="white" stroke="#666666" points="489,-329.5 369,-329.5 369,-310.5 489,-310.5 489,-329.5"/>
<text text-anchor="middle" x="429" y="-317.5" font-family="Helvetica,sans-Serif" font-size="10.00">basic_example_main</text>
</a>
</g>
</g>
<!-- Node1&#45;&gt;Node8 -->
<g id="edge17_Node000001_Node000008" class="edge">
<title>Node1&#45;&gt;Node8</title>
<g id="a_edge17_Node000001_Node000008"><a xlink:title=" ">
<path fill="none" stroke="#63b8ff" d="M872.6,-169.36C854.6,-185.75 825.23,-211.05 797,-229 733.76,-269.22 717.31,-282.33 645,-302 593.68,-315.96 533.14,-319.97 489.4,-320.78"/>
<polygon fill="#63b8ff" stroke="#63b8ff" points="875.04,-171.87 880.02,-162.52 870.29,-166.72 875.04,-171.87"/>
</a>
</g>
</g>
<!-- Node10 -->
<g id="Node000010" class="node">
<title>Node10</title>
<g id="a_Node000010"><a xlink:href="adrv903x_2src_2examples_2iio__example_2iio__example_8c.html#ac25cbf8ae523e89cb0617e68c98bc697" target="_top" xlink:title="IIO example main execution.">
<polygon fill="white" stroke="#666666" points="473.5,-180.5 384.5,-180.5 384.5,-161.5 473.5,-161.5 473.5,-180.5"/>
<text text-anchor="middle" x="429" y="-168.5" font-family="Helvetica,sans-Serif" font-size="10.00">example_main</text>
</a>
</g>
</g>
<!-- Node1&#45;&gt;Node10 -->
<g id="edge20_Node000001_Node000010" class="edge">
<title>Node1&#45;&gt;Node10</title>
<g id="a_edge20_Node000001_Node000010"><a xlink:title=" ">
<path fill="none" stroke="#63b8ff" d="M822.92,-149.25C749.57,-146.03 628.64,-143.27 525,-153 507.28,-154.66 487.95,-158.04 471.38,-161.42"/>
<polygon fill="#63b8ff" stroke="#63b8ff" points="822.8,-152.75 832.95,-149.71 823.12,-145.76 822.8,-152.75"/>
</a>
</g>
</g>
<!-- Node11 -->
<g id="Node000011" class="node">
<title>Node11</title>
<g id="a_Node000011"><a xlink:href="adrv904x_2src_2examples_2iio__example_2iio__example_8c.html#a692b15b864d48091dc3d7095bea120b4" target="_top" xlink:title="IIO example main execution.">
<polygon fill="white" stroke="#666666" points="482.5,-143.5 375.5,-143.5 375.5,-124.5 482.5,-124.5 482.5,-143.5"/>
<text text-anchor="middle" x="429" y="-131.5" font-family="Helvetica,sans-Serif" font-size="10.00">iio_example_main</text>
</a>
</g>
</g>
<!-- Node1&#45;&gt;Node11 -->
<g id="edge22_Node000001_Node000011" class="edge">
<title>Node1&#45;&gt;Node11</title>
<g id="a_edge22_Node000001_Node000011"><a xlink:title=" ">
<path fill="none" stroke="#63b8ff" d="M822.52,-145.08C813.94,-144.27 805.27,-143.55 797,-143 685.23,-135.63 553.95,-134.14 482.63,-133.93"/>
<polygon fill="#63b8ff" stroke="#63b8ff" points="822.22,-148.57 832.52,-146.07 822.91,-141.6 822.22,-148.57"/>
</a>
</g>
</g>
<!-- Node15 -->
<g id="Node000015" class="node">
<title>Node15</title>
<g id="a_Node000015"><a xlink:href="ad9172_2src_2main_8c.html#a840291bc02cba5474a4cb46a9b9566fe" target="_top" xlink:title=" ">
<polygon fill="white" stroke="#666666" points="605.5,-181.5 564.5,-181.5 564.5,-162.5 605.5,-162.5 605.5,-181.5"/>
<text text-anchor="middle" x="585" y="-169.5" font-family="Helvetica,sans-Serif" font-size="10.00">main</text>
</a>
</g>
</g>
<!-- Node1&#45;&gt;Node15 -->
<g id="edge23_Node000001_Node000015" class="edge">
<title>Node1&#45;&gt;Node15</title>
<g id="a_edge23_Node000001_Node000015"><a xlink:title=" ">
<path fill="none" stroke="#63b8ff" d="M822.82,-157.2C753.26,-161.55 648.83,-168.07 605.71,-170.77"/>
<polygon fill="#63b8ff" stroke="#63b8ff" points="823.06,-160.69 832.82,-156.57 822.62,-153.7 823.06,-160.69"/>
</a>
</g>
</g>
<!-- Node16 -->
<g id="Node000016" class="node">
<title>Node16</title>
<g id="a_Node000016"><a xlink:href="adrv902x_2src_2examples_2dma__example_2dma__example_8c.html#a6fab3c4f8551a0a277a9058ddb0f1914" target="_top" xlink:title="DMA example main execution.">
<polygon fill="white" stroke="#666666" points="797,-67.5 681,-67.5 681,-48.5 797,-48.5 797,-67.5"/>
<text text-anchor="middle" x="739" y="-55.5" font-family="Helvetica,sans-Serif" font-size="10.00">dma_example_main</text>
</a>
</g>
</g>
<!-- Node1&#45;&gt;Node16 -->
<g id="edge18_Node000001_Node000016" class="edge">
<title>Node1&#45;&gt;Node16</title>
<g id="a_edge18_Node000001_Node000016"><a xlink:title=" ">
<path fill="none" stroke="#63b8ff" d="M871.21,-136.36C853.1,-120.9 824.49,-97.93 797,-82 787.43,-76.45 776.34,-71.49 766.49,-67.53"/>
<polygon fill="#63b8ff" stroke="#63b8ff" points="869.35,-139.38 879.2,-143.28 873.93,-134.09 869.35,-139.38"/>
</a>
</g>
</g>
<!-- Node18 -->
<g id="Node000018" class="node">
<title>Node18</title>
<g id="a_Node000018"><a xlink:href="iio__axi__dac_8c.html#a318298274813835869a249b115a88cbf" target="_top" xlink:title="Update active channels.">
<polygon fill="white" stroke="#666666" points="796,-30 682,-30 682,0 796,0 796,-30"/>
<text text-anchor="start" x="690" y="-18" font-family="Helvetica,sans-Serif" font-size="10.00">iio_axi_dac_prepare</text>
<text text-anchor="middle" x="739" y="-7" font-family="Helvetica,sans-Serif" font-size="10.00">_transfer</text>
</a>
</g>
</g>
<!-- Node1&#45;&gt;Node18 -->
<g id="edge21_Node000001_Node000018" class="edge">
<title>Node1&#45;&gt;Node18</title>
<g id="a_edge21_Node000001_Node000018"><a xlink:title=" ">
<path fill="none" stroke="#63b8ff" d="M879.12,-134.69C863.65,-110 833.1,-66.02 797,-39 792.53,-35.65 787.52,-32.68 782.38,-30.06"/>
<polygon fill="#63b8ff" stroke="#63b8ff" points="876.26,-136.72 884.47,-143.42 882.23,-133.06 876.26,-136.72"/>
</a>
</g>
</g>
<!-- Node3 -->
<g id="Node000003" class="node">
<title>Node3</title>
<g id="a_Node000003"><a xlink:href="ad3552r_8c.html#ae80ba21fae1f11883703b87a0bb676e2" target="_top" xlink:title=" ">
<polygon fill="white" stroke="#666666" points="333,-367.5 256,-367.5 256,-348.5 333,-348.5 333,-367.5"/>
<text text-anchor="middle" x="294.5" y="-355.5" font-family="Helvetica,sans-Serif" font-size="10.00">ad3552r_init</text>
</a>
</g>
</g>
<!-- Node2&#45;&gt;Node3 -->
<g id="edge2_Node000002_Node000003" class="edge">
<title>Node2&#45;&gt;Node3</title>
<g id="a_edge2_Node000002_Node000003"><a xlink:title=" ">
<path fill="none" stroke="#63b8ff" d="M369.53,-358C357.16,-358 344.43,-358 333.08,-358"/>
<polygon fill="#63b8ff" stroke="#63b8ff" points="369.79,-361.5 379.79,-358 369.79,-354.5 369.79,-361.5"/>
</a>
</g>
</g>
<!-- Node4 -->
<g id="Node000004" class="node">
<title>Node4</title>
<g id="a_Node000004"><a xlink:href="axi__qspi__example_8c.html#ac25cbf8ae523e89cb0617e68c98bc697" target="_top" xlink:title="Basic example main execution.">
<polygon fill="white" stroke="#666666" points="89,-367.5 0,-367.5 0,-348.5 89,-348.5 89,-367.5"/>
<text text-anchor="middle" x="44.5" y="-355.5" font-family="Helvetica,sans-Serif" font-size="10.00">example_main</text>
</a>
</g>
</g>
<!-- Node3&#45;&gt;Node4 -->
<g id="edge3_Node000003_Node000004" class="edge">
<title>Node3&#45;&gt;Node4</title>
<g id="a_edge3_Node000003_Node000004"><a xlink:title=" ">
<path fill="none" stroke="#63b8ff" d="M245.7,-358C200.5,-358 133.25,-358 89.39,-358"/>
<polygon fill="#63b8ff" stroke="#63b8ff" points="245.83,-361.5 255.83,-358 245.83,-354.5 245.83,-361.5"/>
</a>
</g>
</g>
<!-- Node5 -->
<g id="Node000005" class="node">
<title>Node5</title>
<g id="a_Node000005"><a xlink:href="iio__ad3552r_8c.html#a690d5a4cec9b9316e0d635113c09e9d6" target="_top" xlink:title=" ">
<polygon fill="white" stroke="#666666" points="220,-348.5 125,-348.5 125,-329.5 220,-329.5 220,-348.5"/>
<text text-anchor="middle" x="172.5" y="-336.5" font-family="Helvetica,sans-Serif" font-size="10.00">iio_ad3552r_init</text>
</a>
</g>
</g>
<!-- Node3&#45;&gt;Node5 -->
<g id="edge4_Node000003_Node000005" class="edge">
<title>Node3&#45;&gt;Node5</title>
<g id="a_edge4_Node000003_Node000005"><a xlink:title=" ">
<path fill="none" stroke="#63b8ff" d="M245.82,-350.45C237.42,-349.12 228.68,-347.74 220.3,-346.41"/>
<polygon fill="#63b8ff" stroke="#63b8ff" points="245.44,-353.93 255.86,-352.04 246.53,-347.02 245.44,-353.93"/>
</a>
</g>
</g>
<!-- Node5&#45;&gt;Node4 -->
<g id="edge5_Node000005_Node000004" class="edge">
<title>Node5&#45;&gt;Node4</title>
<g id="a_edge5_Node000005_Node000004"><a xlink:title=" ">
<path fill="none" stroke="#63b8ff" d="M114.97,-347.52C106.38,-348.82 97.63,-350.14 89.36,-351.39"/>
<polygon fill="#63b8ff" stroke="#63b8ff" points="115.57,-350.97 124.94,-346.02 114.53,-344.05 115.57,-350.97"/>
</a>
</g>
</g>
<!-- Node7 -->
<g id="Node000007" class="node">
<title>Node7</title>
<g id="a_Node000007"><a xlink:href="axi__dac__core_8c.html#a88b7d1d48e908b038ef3faea467aaa0c" target="_top" xlink:title="AXI DAC Main Initialization.">
<polygon fill="white" stroke="#666666" points="622.5,-292.5 547.5,-292.5 547.5,-273.5 622.5,-273.5 622.5,-292.5"/>
<text text-anchor="middle" x="585" y="-280.5" font-family="Helvetica,sans-Serif" font-size="10.00">axi_dac_init</text>
</a>
</g>
</g>
<!-- Node6&#45;&gt;Node7 -->
<g id="edge7_Node000006_Node000007" class="edge">
<title>Node6&#45;&gt;Node7</title>
<g id="a_edge7_Node000006_Node000007"><a xlink:title=" ">
<path fill="none" stroke="#63b8ff" d="M715.55,-225.34C697.2,-237.36 670.26,-253.87 645,-265 637.75,-268.2 629.76,-271.05 622.06,-273.49"/>
<polygon fill="#63b8ff" stroke="#63b8ff" points="717.68,-228.13 724.07,-219.68 713.8,-222.3 717.68,-228.13"/>
</a>
</g>
</g>
<!-- Node13 -->
<g id="Node000013" class="node">
<title>Node13</title>
<g id="a_Node000013"><a xlink:href="adrv902x_2src_2examples_2basic__example_2basic__example_8c.html#ac5f0064cb4ac7ddab3ec02b10217b456" target="_top" xlink:title="Basic example main execution.">
<polygon fill="white" stroke="#666666" points="645,-255.5 525,-255.5 525,-236.5 645,-236.5 645,-255.5"/>
<text text-anchor="middle" x="585" y="-243.5" font-family="Helvetica,sans-Serif" font-size="10.00">basic_example_main</text>
</a>
</g>
</g>
<!-- Node6&#45;&gt;Node13 -->
<g id="edge14_Node000006_Node000013" class="edge">
<title>Node6&#45;&gt;Node13</title>
<g id="a_edge14_Node000006_Node000013"><a xlink:title=" ">
<path fill="none" stroke="#63b8ff" d="M687.8,-221.89C667.82,-226.62 645.13,-231.99 626.26,-236.47"/>
<polygon fill="#63b8ff" stroke="#63b8ff" points="688.74,-225.26 697.67,-219.55 687.13,-218.45 688.74,-225.26"/>
</a>
</g>
</g>
<!-- Node14 -->
<g id="Node000014" class="node">
<title>Node14</title>
<g id="a_Node000014"><a xlink:href="adrv902x_2src_2examples_2iio__example_2iio__example_8c.html#a692b15b864d48091dc3d7095bea120b4" target="_top" xlink:title="IIO example main execution.">
<polygon fill="white" stroke="#666666" points="638.5,-218.5 531.5,-218.5 531.5,-199.5 638.5,-199.5 638.5,-218.5"/>
<text text-anchor="middle" x="585" y="-206.5" font-family="Helvetica,sans-Serif" font-size="10.00">iio_example_main</text>
</a>
</g>
</g>
<!-- Node6&#45;&gt;Node14 -->
<g id="edge15_Node000006_Node000014" class="edge">
<title>Node6&#45;&gt;Node14</title>
<g id="a_edge15_Node000006_Node000014"><a xlink:title=" ">
<path fill="none" stroke="#63b8ff" d="M672.12,-209.57C660.94,-209.49 649.47,-209.42 638.7,-209.35"/>
<polygon fill="#63b8ff" stroke="#63b8ff" points="672.24,-213.07 682.26,-209.63 672.29,-206.07 672.24,-213.07"/>
</a>
</g>
</g>
<!-- Node6&#45;&gt;Node15 -->
<g id="edge16_Node000006_Node000015" class="edge">
<title>Node6&#45;&gt;Node15</title>
<g id="a_edge16_Node000006_Node000015"><a xlink:title=" ">
<path fill="none" stroke="#63b8ff" d="M689.87,-197.97C661.43,-190.86 626.94,-182.23 605.73,-176.93"/>
<polygon fill="#63b8ff" stroke="#63b8ff" points="689.09,-201.38 699.64,-200.41 690.79,-194.59 689.09,-201.38"/>
</a>
</g>
</g>
<!-- Node7&#45;&gt;Node2 -->
<g id="edge8_Node000007_Node000002" class="edge">
<title>Node7&#45;&gt;Node2</title>
<g id="a_edge8_Node000007_Node000002"><a xlink:title=" ">
<path fill="none" stroke="#63b8ff" d="M561.6,-298.13C542.81,-310.34 514.97,-327.34 489,-339 481.15,-342.53 472.44,-345.7 464.18,-348.41"/>
<polygon fill="#63b8ff" stroke="#63b8ff" points="563.62,-300.99 570.05,-292.56 559.77,-295.14 563.62,-300.99"/>
</a>
</g>
</g>
<!-- Node7&#45;&gt;Node8 -->
<g id="edge9_Node000007_Node000008" class="edge">
<title>Node7&#45;&gt;Node8</title>
<g id="a_edge9_Node000007_Node000008"><a xlink:title=" ">
<path fill="none" stroke="#63b8ff" d="M537.16,-294.25C515.55,-299.44 490.18,-305.54 469.55,-310.5"/>
<polygon fill="#63b8ff" stroke="#63b8ff" points="538.21,-297.6 547.11,-291.86 536.57,-290.8 538.21,-297.6"/>
</a>
</g>
</g>
<!-- Node9 -->
<g id="Node000009" class="node">
<title>Node9</title>
<g id="a_Node000009"><a xlink:href="adrv904x_2src_2examples_2dma__example_2dma__example_8c.html#a6fab3c4f8551a0a277a9058ddb0f1914" target="_top" xlink:title="DMA example main execution.">
<polygon fill="white" stroke="#666666" points="487,-292.5 371,-292.5 371,-273.5 487,-273.5 487,-292.5"/>
<text text-anchor="middle" x="429" y="-280.5" font-family="Helvetica,sans-Serif" font-size="10.00">dma_example_main</text>
</a>
</g>
</g>
<!-- Node7&#45;&gt;Node9 -->
<g id="edge10_Node000007_Node000009" class="edge">
<title>Node7&#45;&gt;Node9</title>
<g id="a_edge10_Node000007_Node000009"><a xlink:title=" ">
<path fill="none" stroke="#63b8ff" d="M537.07,-283C521.29,-283 503.51,-283 487.04,-283"/>
<polygon fill="#63b8ff" stroke="#63b8ff" points="537.11,-286.5 547.11,-283 537.11,-279.5 537.11,-286.5"/>
</a>
</g>
</g>
<!-- Node7&#45;&gt;Node10 -->
<g id="edge11_Node000007_Node000010" class="edge">
<title>Node7&#45;&gt;Node10</title>
<g id="a_edge11_Node000007_Node000010"><a xlink:title=" ">
<path fill="none" stroke="#63b8ff" d="M537.53,-271.3C533.16,-269.48 528.91,-267.39 525,-265 505.41,-253.05 505.25,-244.19 489,-228 472.05,-211.11 451.94,-191.84 440.11,-180.59"/>
<polygon fill="#63b8ff" stroke="#63b8ff" points="536.61,-274.69 547.2,-274.9 539.05,-268.13 536.61,-274.69"/>
</a>
</g>
</g>
<!-- Node7&#45;&gt;Node11 -->
<g id="edge12_Node000007_Node000011" class="edge">
<title>Node7&#45;&gt;Node11</title>
<g id="a_edge12_Node000007_Node000011"><a xlink:title=" ">
<path fill="none" stroke="#63b8ff" d="M537.91,-273.92C533.15,-271.59 528.71,-268.67 525,-265 487.5,-227.96 526.5,-189.04 489,-152 485.57,-148.61 481.53,-145.86 477.18,-143.63"/>
<polygon fill="#63b8ff" stroke="#63b8ff" points="536.74,-277.23 547.33,-277.71 539.36,-270.73 536.74,-277.23"/>
</a>
</g>
</g>
<!-- Node12 -->
<g id="Node000012" class="node">
<title>Node12</title>
<g id="a_Node000012"><a xlink:href="ad9081_2src_2app_8c.html#a840291bc02cba5474a4cb46a9b9566fe" target="_top" xlink:title=" ">
<polygon fill="white" stroke="#666666" points="449.5,-255.5 408.5,-255.5 408.5,-236.5 449.5,-236.5 449.5,-255.5"/>
<text text-anchor="middle" x="429" y="-243.5" font-family="Helvetica,sans-Serif" font-size="10.00">main</text>
</a>
</g>
</g>
<!-- Node7&#45;&gt;Node12 -->
<g id="edge13_Node000007_Node000012" class="edge">
<title>Node7&#45;&gt;Node12</title>
<g id="a_edge13_Node000007_Node000012"><a xlink:title=" ">
<path fill="none" stroke="#63b8ff" d="M537.07,-271.72C507.77,-264.68 471.58,-255.99 449.67,-250.72"/>
<polygon fill="#63b8ff" stroke="#63b8ff" points="536.57,-275.2 547.11,-274.14 538.21,-268.4 536.57,-275.2"/>
</a>
</g>
</g>
<!-- Node17 -->
<g id="Node000017" class="node">
<title>Node17</title>
<g id="a_Node000017"><a xlink:href="adrv902x_2src_2platform_2xilinx_2main_8c.html#ae66f6b31b5ad750f1fe042a706a4e3d4" target="_top" xlink:title="Main function execution for XILINX platform.">
<polygon fill="white" stroke="#666666" points="605.5,-67.5 564.5,-67.5 564.5,-48.5 605.5,-48.5 605.5,-67.5"/>
<text text-anchor="middle" x="585" y="-55.5" font-family="Helvetica,sans-Serif" font-size="10.00">main</text>
</a>
</g>
</g>
<!-- Node16&#45;&gt;Node17 -->
<g id="edge19_Node000016_Node000017" class="edge">
<title>Node16&#45;&gt;Node17</title>
<g id="a_edge19_Node000016_Node000017"><a xlink:title=" ">
<path fill="none" stroke="#63b8ff" d="M670.92,-58C647.25,-58 622.41,-58 605.76,-58"/>
<polygon fill="#63b8ff" stroke="#63b8ff" points="670.97,-61.5 680.97,-58 670.97,-54.5 670.97,-61.5"/>
</a>
</g>
</g>
</g>
</svg>

<g id="navigator" transform="translate(0 0)" fill="#404254">
  <rect fill="#f2f5e9" fill-opacity="0.5" stroke="#606060" stroke-width=".5" x="0" y="0" width="60" height="60"/>
  <use id="zoomplus" xlink:href="#zoomPlus" x="17" y="9" onmousedown="handleZoom(evt,'in')"/>
  <use id="zoomminus" xlink:href="#zoomMin" x="42" y="9" onmousedown="handleZoom(evt,'out')"/>
  <use id="reset" xlink:href="#resetDef" x="30" y="36" onmousedown="handleReset()"/>
   <use id="arrowup" xlink:href="#arrowUp" x="0" y="0" onmousedown="handlePan(0,-1)"/>
  <use id="arrowright" xlink:href="#arrowRight" x="0" y="0" onmousedown="handlePan(1,0)"/>
  <use id="arrowdown" xlink:href="#arrowDown" x="0" y="0" onmousedown="handlePan(0,1)"/>
  <use id="arrowleft" xlink:href="#arrowLeft" x="0" y="0" onmousedown="handlePan(-1,0)"/>
</g>
<svg viewBox="0 0 15 15" width="100%" height="30px" preserveAspectRatio="xMaxYMin meet">
 <g id="arrow_out" transform="scale(0.3 0.3)">
  <a xlink:href="axi__dac__core_8c_a7360018a633493f6b484f4998987850a_icgraph_org.svg" target="_base">
   <rect id="button" ry="5" rx="5" y="6" x="6" height="38" width="38"
        fill="#f2f5e9" fill-opacity="0.5" stroke="#606060" stroke-width="1.0"/>
   <path id="arrow"
     d="M 11.500037,31.436501 C 11.940474,20.09759 22.043105,11.32322 32.158766,21.979434 L 37.068811,17.246167 C 37.068811,17.246167 37.088388,32 37.088388,32 L 22.160133,31.978069 C 22.160133,31.978069 26.997745,27.140456 26.997745,27.140456 C 18.528582,18.264221 13.291696,25.230495 11.500037,31.436501 z"
     style="fill:#404040;"/>
  </a>
 </g>
</svg>

<style type='text/css'>
<![CDATA[
[data-mouse-over-selected='false'] { opacity: 0.7; }
[data-mouse-over-selected='true']  { opacity: 1.0; }
]]>
</style>
<script type="application/ecmascript"><![CDATA[
document.addEventListener('DOMContentLoaded', (event) => {
  highlightEdges();
  highlightAdjacentNodes();
});
]]></script>
</svg>
