<?xml version="1.0" encoding="UTF-8" standalone="no"?>
<!DOCTYPE svg PUBLIC "-//W3C//DTD SVG 1.1//EN"
 "http://www.w3.org/Graphics/SVG/1.1/DTD/svg11.dtd">
<!-- Generated by graphviz version 2.43.0 (0)
 -->
<!-- Title: drivers/axi_core/axi_adc_core/axi_adc_core.h Pages: 1 -->
<svg width="4648pt" height="258pt"
 viewBox="0.00 0.00 4648.21 258.00" xmlns="http://www.w3.org/2000/svg" xmlns:xlink="http://www.w3.org/1999/xlink">
<g id="graph0" class="graph" transform="scale(1 1) rotate(0) translate(4 254)">
<title>drivers/axi_core/axi_adc_core/axi_adc_core.h</title>
<!-- Node1 -->
<g id="Node000001" class="node">
<title>Node1</title>
<g id="a_Node000001"><a xlink:title="Driver for the Analog Devices AXI&#45;ADC&#45;CORE module.">
<polygon fill="#999999" stroke="#666666" points="2472.21,-250 2331.21,-250 2331.21,-220 2472.21,-220 2472.21,-250"/>
<text text-anchor="start" x="2339.21" y="-238" font-family="Helvetica,sans-Serif" font-size="10.00">drivers/axi_core/axi</text>
<text text-anchor="middle" x="2401.71" y="-227" font-family="Helvetica,sans-Serif" font-size="10.00">_adc_core/axi_adc_core.h</text>
</a>
</g>
</g>
<!-- Node2 -->
<g id="Node000002" class="node">
<title>Node2</title>
<g id="a_Node000002"><a xlink:href="ad796x_8h.html" target="_top" xlink:title="Header file of AD796X Driver.">
<polygon fill="white" stroke="#666666" points="444.71,-178.5 334.71,-178.5 334.71,-148.5 444.71,-148.5 444.71,-178.5"/>
<text text-anchor="start" x="342.71" y="-166.5" font-family="Helvetica,sans-Serif" font-size="10.00">drivers/adc/ad796x</text>
<text text-anchor="middle" x="389.71" y="-155.5" font-family="Helvetica,sans-Serif" font-size="10.00">/ad796x.h</text>
</a>
</g>
</g>
<!-- Node1&#45;&gt;Node2 -->
<g id="edge1_Node000001_Node000002" class="edge">
<title>Node1&#45;&gt;Node2</title>
<g id="a_edge1_Node000001_Node000002"><a xlink:title=" ">
<path fill="none" stroke="#63b8ff" d="M2321.01,-232.38C2079.32,-227.37 1340.17,-210.81 727.71,-184 627.89,-179.63 511.59,-172.47 444.72,-168.14"/>
<polygon fill="#63b8ff" stroke="#63b8ff" points="2321.04,-235.89 2331.12,-232.59 2321.19,-228.89 2321.04,-235.89"/>
</a>
</g>
</g>
<!-- Node4 -->
<g id="Node000004" class="node">
<title>Node4</title>
<g id="a_Node000004"><a xlink:href="ad796x__fmcz_2src_2common_2common__data_8c.html" target="_top" xlink:title="Defines common data to be used by iio examples.">
<polygon fill="white" stroke="#666666" points="416.21,-30 255.21,-30 255.21,0 416.21,0 416.21,-30"/>
<text text-anchor="start" x="263.21" y="-18" font-family="Helvetica,sans-Serif" font-size="10.00">projects/ad796x_fmcz</text>
<text text-anchor="middle" x="335.71" y="-7" font-family="Helvetica,sans-Serif" font-size="10.00">/src/common/common_data.c</text>
</a>
</g>
</g>
<!-- Node1&#45;&gt;Node4 -->
<g id="edge19_Node000001_Node000004" class="edge">
<title>Node1&#45;&gt;Node4</title>
<g id="a_edge19_Node000001_Node000004"><a xlink:title=" ">
<path fill="none" stroke="#63b8ff" d="M2320.97,-234.36C1988.18,-235.51 721.81,-236.26 325.71,-184 181.97,-165.03 98.32,-220.98 8.71,-107 -2.55,-92.67 -3.16,-79.82 8.71,-66 39.86,-29.73 168.82,-19.49 255.18,-16.76"/>
<polygon fill="#63b8ff" stroke="#63b8ff" points="2321.02,-237.86 2331.01,-234.33 2321,-230.86 2321.02,-237.86"/>
</a>
</g>
</g>
<!-- Node8 -->
<g id="Node000008" class="node">
<title>Node8</title>
<g id="a_Node000008"><a xlink:href="ad9265_8c.html" target="_top" xlink:title="Implementation of AD9265 Driver.">
<polygon fill="white" stroke="#666666" points="1066.71,-178.5 956.71,-178.5 956.71,-148.5 1066.71,-148.5 1066.71,-178.5"/>
<text text-anchor="start" x="964.71" y="-166.5" font-family="Helvetica,sans-Serif" font-size="10.00">drivers/adc/ad9265</text>
<text text-anchor="middle" x="1011.71" y="-155.5" font-family="Helvetica,sans-Serif" font-size="10.00">/ad9265.c</text>
</a>
</g>
</g>
<!-- Node1&#45;&gt;Node8 -->
<g id="edge8_Node000001_Node000008" class="edge">
<title>Node1&#45;&gt;Node8</title>
<g id="a_edge8_Node000001_Node000008"><a xlink:title=" ">
<path fill="none" stroke="#63b8ff" d="M2320.96,-233.68C2071.78,-232.26 1317.15,-224.63 1075.71,-184 1068.04,-182.71 1060,-180.76 1052.31,-178.58"/>
<polygon fill="#63b8ff" stroke="#63b8ff" points="2321.01,-237.18 2331.03,-233.73 2321.05,-230.18 2321.01,-237.18"/>
</a>
</g>
</g>
<!-- Node9 -->
<g id="Node000009" class="node">
<title>Node9</title>
<g id="a_Node000009"><a xlink:href="axi__adc__core_8c.html" target="_top" xlink:title="Driver for the Analog Devices AXI&#45;ADC&#45;CORE module.">
<polygon fill="white" stroke="#666666" points="1224.71,-178.5 1084.71,-178.5 1084.71,-148.5 1224.71,-148.5 1224.71,-178.5"/>
<text text-anchor="start" x="1092.71" y="-166.5" font-family="Helvetica,sans-Serif" font-size="10.00">drivers/axi_core/axi</text>
<text text-anchor="middle" x="1154.71" y="-155.5" font-family="Helvetica,sans-Serif" font-size="10.00">_adc_core/axi_adc_core.c</text>
</a>
</g>
</g>
<!-- Node1&#45;&gt;Node9 -->
<g id="edge9_Node000001_Node000009" class="edge">
<title>Node1&#45;&gt;Node9</title>
<g id="a_edge9_Node000001_Node000009"><a xlink:title=" ">
<path fill="none" stroke="#63b8ff" d="M2320.7,-232.6C2092.09,-228.31 1444.94,-213.83 1234.71,-184 1225.37,-182.67 1215.53,-180.74 1206.07,-178.59"/>
<polygon fill="#63b8ff" stroke="#63b8ff" points="2320.88,-236.1 2330.94,-232.79 2321.01,-229.1 2320.88,-236.1"/>
</a>
</g>
</g>
<!-- Node10 -->
<g id="Node000010" class="node">
<title>Node10</title>
<g id="a_Node000010"><a xlink:href="iio__axi__adc_8h.html" target="_top" xlink:title="Header file of iio_axi_adc.">
<polygon fill="white" stroke="#666666" points="862.71,-178.5 736.71,-178.5 736.71,-148.5 862.71,-148.5 862.71,-178.5"/>
<text text-anchor="start" x="744.71" y="-166.5" font-family="Helvetica,sans-Serif" font-size="10.00">drivers/axi_core/iio</text>
<text text-anchor="middle" x="799.71" y="-155.5" font-family="Helvetica,sans-Serif" font-size="10.00">_axi_adc/iio_axi_adc.h</text>
</a>
</g>
</g>
<!-- Node1&#45;&gt;Node10 -->
<g id="edge10_Node000001_Node000010" class="edge">
<title>Node1&#45;&gt;Node10</title>
<g id="a_edge10_Node000001_Node000010"><a xlink:title=" ">
<path fill="none" stroke="#63b8ff" d="M2320.9,-233.64C2047.63,-232.08 1159.47,-223.96 876.71,-184 867.56,-182.71 857.93,-180.76 848.69,-178.58"/>
<polygon fill="#63b8ff" stroke="#63b8ff" points="2321.11,-237.14 2331.13,-233.7 2321.15,-230.14 2321.11,-237.14"/>
</a>
</g>
</g>
<!-- Node12 -->
<g id="Node000012" class="node">
<title>Node12</title>
<g id="a_Node000012"><a xlink:href="adrv902x_2src_2examples_2iio__example_2iio__example_8c.html" target="_top" xlink:title="IIO example for the adrv902x project.">
<polygon fill="white" stroke="#666666" points="984.21,-107 853.21,-107 853.21,-66 984.21,-66 984.21,-107"/>
<text text-anchor="start" x="861.21" y="-95" font-family="Helvetica,sans-Serif" font-size="10.00">projects/adrv902x/src</text>
<text text-anchor="start" x="861.21" y="-84" font-family="Helvetica,sans-Serif" font-size="10.00">/examples/iio_example</text>
<text text-anchor="middle" x="918.71" y="-73" font-family="Helvetica,sans-Serif" font-size="10.00">/iio_example.c</text>
</a>
</g>
</g>
<!-- Node1&#45;&gt;Node12 -->
<g id="edge36_Node000001_Node000012" class="edge">
<title>Node1&#45;&gt;Node12</title>
<g id="a_edge36_Node000001_Node000012"><a xlink:title=" ">
<path fill="none" stroke="#63b8ff" d="M2320.52,-234.05C2020.22,-233.88 987.07,-229.94 934.71,-184 913.27,-165.18 913.08,-129.5 915.48,-107.2"/>
<polygon fill="#63b8ff" stroke="#63b8ff" points="2320.89,-237.55 2330.89,-234.06 2320.89,-230.55 2320.89,-237.55"/>
</a>
</g>
</g>
<!-- Node13 -->
<g id="Node000013" class="node">
<title>Node13</title>
<g id="a_Node000013"><a xlink:href="adrv904x_2src_2examples_2iio__example_2iio__example_8c.html" target="_top" xlink:title="IIO example for the adrv904x project.">
<polygon fill="white" stroke="#666666" points="1133.21,-107 1002.21,-107 1002.21,-66 1133.21,-66 1133.21,-107"/>
<text text-anchor="start" x="1010.21" y="-95" font-family="Helvetica,sans-Serif" font-size="10.00">projects/adrv904x/src</text>
<text text-anchor="start" x="1010.21" y="-84" font-family="Helvetica,sans-Serif" font-size="10.00">/examples/iio_example</text>
<text text-anchor="middle" x="1067.71" y="-73" font-family="Helvetica,sans-Serif" font-size="10.00">/iio_example.c</text>
</a>
</g>
</g>
<!-- Node1&#45;&gt;Node13 -->
<g id="edge39_Node000001_Node000013" class="edge">
<title>Node1&#45;&gt;Node13</title>
<g id="a_edge39_Node000001_Node000013"><a xlink:title=" ">
<path fill="none" stroke="#63b8ff" d="M2320.48,-234.29C2021.3,-234.96 995.66,-233.62 947.71,-184 935.05,-170.9 937.9,-158.35 947.71,-143 955.35,-131.06 983.54,-117.72 1010.69,-107.12"/>
<polygon fill="#63b8ff" stroke="#63b8ff" points="2320.82,-237.79 2330.81,-234.26 2320.8,-230.79 2320.82,-237.79"/>
</a>
</g>
</g>
<!-- Node14 -->
<g id="Node000014" class="node">
<title>Node14</title>
<g id="a_Node000014"><a xlink:href="ad9361__api_8c.html" target="_top" xlink:title="Implementation of AD9361 API Driver.">
<polygon fill="white" stroke="#666666" points="1366.21,-178.5 1243.21,-178.5 1243.21,-148.5 1366.21,-148.5 1366.21,-178.5"/>
<text text-anchor="start" x="1251.21" y="-166.5" font-family="Helvetica,sans-Serif" font-size="10.00">drivers/rf&#45;transceiver</text>
<text text-anchor="middle" x="1304.71" y="-155.5" font-family="Helvetica,sans-Serif" font-size="10.00">/ad9361/ad9361_api.c</text>
</a>
</g>
</g>
<!-- Node1&#45;&gt;Node14 -->
<g id="edge15_Node000001_Node000014" class="edge">
<title>Node1&#45;&gt;Node14</title>
<g id="a_edge15_Node000001_Node000014"><a xlink:title=" ">
<path fill="none" stroke="#63b8ff" d="M2320.78,-232.35C2111.7,-227.71 1557.23,-212.99 1375.71,-184 1367.38,-182.67 1358.63,-180.73 1350.22,-178.58"/>
<polygon fill="#63b8ff" stroke="#63b8ff" points="2321,-235.85 2331.08,-232.57 2321.15,-228.86 2321,-235.85"/>
</a>
</g>
</g>
<!-- Node15 -->
<g id="Node000015" class="node">
<title>Node15</title>
<g id="a_Node000015"><a xlink:href="ad9361__conv_8c.html" target="_top" xlink:title="Implementation of AD9361 Conv Driver.">
<polygon fill="white" stroke="#666666" points="1515.21,-178.5 1384.21,-178.5 1384.21,-148.5 1515.21,-148.5 1515.21,-178.5"/>
<text text-anchor="start" x="1392.21" y="-166.5" font-family="Helvetica,sans-Serif" font-size="10.00">drivers/rf&#45;transceiver</text>
<text text-anchor="middle" x="1449.71" y="-155.5" font-family="Helvetica,sans-Serif" font-size="10.00">/ad9361/ad9361_conv.c</text>
</a>
</g>
</g>
<!-- Node1&#45;&gt;Node15 -->
<g id="edge16_Node000001_Node000015" class="edge">
<title>Node1&#45;&gt;Node15</title>
<g id="a_edge16_Node000001_Node000015"><a xlink:title=" ">
<path fill="none" stroke="#63b8ff" d="M2320.61,-234.7C2165.19,-234.86 1815.03,-229.56 1524.71,-184 1515.94,-182.62 1506.71,-180.66 1497.83,-178.51"/>
<polygon fill="#63b8ff" stroke="#63b8ff" points="2321.02,-238.2 2331.02,-234.68 2321.01,-231.2 2321.02,-238.2"/>
</a>
</g>
</g>
<!-- Node16 -->
<g id="Node000016" class="node">
<title>Node16</title>
<g id="a_Node000016"><a xlink:href="ad6676__ebz_8c.html" target="_top" xlink:title="Implementation of Main Function.">
<polygon fill="white" stroke="#666666" points="1649.71,-178.5 1533.71,-178.5 1533.71,-148.5 1649.71,-148.5 1649.71,-178.5"/>
<text text-anchor="start" x="1541.71" y="-166.5" font-family="Helvetica,sans-Serif" font-size="10.00">projects/ad6676&#45;ebz</text>
<text text-anchor="middle" x="1591.71" y="-155.5" font-family="Helvetica,sans-Serif" font-size="10.00">/src/ad6676_ebz.c</text>
</a>
</g>
</g>
<!-- Node1&#45;&gt;Node16 -->
<g id="edge17_Node000001_Node000016" class="edge">
<title>Node1&#45;&gt;Node16</title>
<g id="a_edge17_Node000001_Node000016"><a xlink:title=" ">
<path fill="none" stroke="#63b8ff" d="M2321.18,-234.25C2184.08,-233.41 1897.02,-226.19 1658.71,-184 1650.96,-182.63 1642.82,-180.69 1635,-178.57"/>
<polygon fill="#63b8ff" stroke="#63b8ff" points="2321.17,-237.75 2331.19,-234.3 2321.21,-230.75 2321.17,-237.75"/>
</a>
</g>
</g>
<!-- Node17 -->
<g id="Node000017" class="node">
<title>Node17</title>
<g id="a_Node000017"><a xlink:href="ad7768__evb_8c.html" target="_top" xlink:title="Implementation of Main Function.">
<polygon fill="white" stroke="#666666" points="1783.71,-178.5 1667.71,-178.5 1667.71,-148.5 1783.71,-148.5 1783.71,-178.5"/>
<text text-anchor="start" x="1675.71" y="-166.5" font-family="Helvetica,sans-Serif" font-size="10.00">projects/ad7768&#45;evb</text>
<text text-anchor="middle" x="1725.71" y="-155.5" font-family="Helvetica,sans-Serif" font-size="10.00">/src/ad7768_evb.c</text>
</a>
</g>
</g>
<!-- Node1&#45;&gt;Node17 -->
<g id="edge18_Node000001_Node000017" class="edge">
<title>Node1&#45;&gt;Node17</title>
<g id="a_edge18_Node000001_Node000017"><a xlink:title=" ">
<path fill="none" stroke="#63b8ff" d="M2320.44,-232.51C2203.03,-229.2 1979.55,-218.49 1792.71,-184 1785.09,-182.59 1777.09,-180.67 1769.38,-178.58"/>
<polygon fill="#63b8ff" stroke="#63b8ff" points="2320.68,-236.02 2330.77,-232.79 2320.87,-229.02 2320.68,-236.02"/>
</a>
</g>
</g>
<!-- Node18 -->
<g id="Node000018" class="node">
<title>Node18</title>
<g id="a_Node000018"><a xlink:href="ad9081_2src_2app_8c.html" target="_top" xlink:title="AD9081 application example.">
<polygon fill="white" stroke="#666666" points="1913.71,-178.5 1801.71,-178.5 1801.71,-148.5 1913.71,-148.5 1913.71,-178.5"/>
<text text-anchor="start" x="1809.71" y="-166.5" font-family="Helvetica,sans-Serif" font-size="10.00">projects/ad9081/src</text>
<text text-anchor="middle" x="1857.71" y="-155.5" font-family="Helvetica,sans-Serif" font-size="10.00">/app.c</text>
</a>
</g>
</g>
<!-- Node1&#45;&gt;Node18 -->
<g id="edge20_Node000001_Node000018" class="edge">
<title>Node1&#45;&gt;Node18</title>
<g id="a_edge20_Node000001_Node000018"><a xlink:title=" ">
<path fill="none" stroke="#63b8ff" d="M2320.69,-230.18C2224.87,-224.6 2060.94,-211.69 1922.71,-184 1915.44,-182.54 1907.8,-180.62 1900.43,-178.55"/>
<polygon fill="#63b8ff" stroke="#63b8ff" points="2320.7,-233.69 2330.88,-230.76 2321.1,-226.7 2320.7,-233.69"/>
</a>
</g>
</g>
<!-- Node19 -->
<g id="Node000019" class="node">
<title>Node19</title>
<g id="a_Node000019"><a xlink:href="ad9083_2src_2app_8c.html" target="_top" xlink:title="AD9083 application example.">
<polygon fill="white" stroke="#666666" points="2043.71,-178.5 1931.71,-178.5 1931.71,-148.5 2043.71,-148.5 2043.71,-178.5"/>
<text text-anchor="start" x="1939.71" y="-166.5" font-family="Helvetica,sans-Serif" font-size="10.00">projects/ad9083/src</text>
<text text-anchor="middle" x="1987.71" y="-155.5" font-family="Helvetica,sans-Serif" font-size="10.00">/app.c</text>
</a>
</g>
</g>
<!-- Node1&#45;&gt;Node19 -->
<g id="edge21_Node000001_Node000019" class="edge">
<title>Node1&#45;&gt;Node19</title>
<g id="a_edge21_Node000001_Node000019"><a xlink:title=" ">
<path fill="none" stroke="#63b8ff" d="M2320.73,-225.86C2249.6,-217.9 2143.59,-204.02 2052.71,-184 2045.69,-182.45 2038.33,-180.54 2031.18,-178.51"/>
<polygon fill="#63b8ff" stroke="#63b8ff" points="2320.65,-229.38 2330.97,-227 2321.42,-222.42 2320.65,-229.38"/>
</a>
</g>
</g>
<!-- Node20 -->
<g id="Node000020" class="node">
<title>Node20</title>
<g id="a_Node000020"><a xlink:href="ad9208_2src_2main_8c.html" target="_top" xlink:title="Implementation of Main Function.">
<polygon fill="white" stroke="#666666" points="2173.71,-178.5 2061.71,-178.5 2061.71,-148.5 2173.71,-148.5 2173.71,-178.5"/>
<text text-anchor="start" x="2069.71" y="-166.5" font-family="Helvetica,sans-Serif" font-size="10.00">projects/ad9208/src</text>
<text text-anchor="middle" x="2117.71" y="-155.5" font-family="Helvetica,sans-Serif" font-size="10.00">/main.c</text>
</a>
</g>
</g>
<!-- Node1&#45;&gt;Node20 -->
<g id="edge22_Node000001_Node000020" class="edge">
<title>Node1&#45;&gt;Node20</title>
<g id="a_edge22_Node000001_Node000020"><a xlink:title=" ">
<path fill="none" stroke="#63b8ff" d="M2324.9,-217.78C2282.76,-208.55 2229.67,-196.39 2182.71,-184 2176.33,-182.32 2169.64,-180.44 2163.06,-178.53"/>
<polygon fill="#63b8ff" stroke="#63b8ff" points="2324.3,-221.24 2334.82,-219.95 2325.8,-214.4 2324.3,-221.24"/>
</a>
</g>
</g>
<!-- Node21 -->
<g id="Node000021" class="node">
<title>Node21</title>
<g id="a_Node000021"><a xlink:href="ad9265__fmc__125ebz_8c.html" target="_top" xlink:title="Implementation of Main Function.">
<polygon fill="white" stroke="#666666" points="2327.71,-184 2191.71,-184 2191.71,-143 2327.71,-143 2327.71,-184"/>
<text text-anchor="start" x="2199.71" y="-172" font-family="Helvetica,sans-Serif" font-size="10.00">projects/ad9265&#45;fmc</text>
<text text-anchor="start" x="2199.71" y="-161" font-family="Helvetica,sans-Serif" font-size="10.00">&#45;125ebz/src/ad9265_fmc</text>
<text text-anchor="middle" x="2259.71" y="-150" font-family="Helvetica,sans-Serif" font-size="10.00">_125ebz.c</text>
</a>
</g>
</g>
<!-- Node1&#45;&gt;Node21 -->
<g id="edge23_Node000001_Node000021" class="edge">
<title>Node1&#45;&gt;Node21</title>
<g id="a_edge23_Node000001_Node000021"><a xlink:title=" ">
<path fill="none" stroke="#63b8ff" d="M2363.93,-215.51C2344.11,-205.81 2319.84,-193.93 2299.71,-184.07"/>
<polygon fill="#63b8ff" stroke="#63b8ff" points="2362.46,-218.68 2372.98,-219.94 2365.53,-212.4 2362.46,-218.68"/>
</a>
</g>
</g>
<!-- Node22 -->
<g id="Node000022" class="node">
<title>Node22</title>
<g id="a_Node000022"><a xlink:href="ad9361_2src_2main_8c.html" target="_top" xlink:title="Implementation of Main Function.">
<polygon fill="white" stroke="#666666" points="2457.71,-178.5 2345.71,-178.5 2345.71,-148.5 2457.71,-148.5 2457.71,-178.5"/>
<text text-anchor="start" x="2353.71" y="-166.5" font-family="Helvetica,sans-Serif" font-size="10.00">projects/ad9361/src</text>
<text text-anchor="middle" x="2401.71" y="-155.5" font-family="Helvetica,sans-Serif" font-size="10.00">/main.c</text>
</a>
</g>
</g>
<!-- Node1&#45;&gt;Node22 -->
<g id="edge24_Node000001_Node000022" class="edge">
<title>Node1&#45;&gt;Node22</title>
<g id="a_edge24_Node000001_Node000022"><a xlink:title=" ">
<path fill="none" stroke="#63b8ff" d="M2401.71,-209.75C2401.71,-199.31 2401.71,-187.49 2401.71,-178.54"/>
<polygon fill="#63b8ff" stroke="#63b8ff" points="2398.21,-209.94 2401.71,-219.94 2405.21,-209.94 2398.21,-209.94"/>
</a>
</g>
</g>
<!-- Node23 -->
<g id="Node000023" class="node">
<title>Node23</title>
<g id="a_Node000023"><a xlink:href="ad9371_2src_2app_2headless_8c.html" target="_top" xlink:title="Implementation of Main Function.">
<polygon fill="white" stroke="#666666" points="2587.71,-178.5 2475.71,-178.5 2475.71,-148.5 2587.71,-148.5 2587.71,-178.5"/>
<text text-anchor="start" x="2483.71" y="-166.5" font-family="Helvetica,sans-Serif" font-size="10.00">projects/ad9371/src</text>
<text text-anchor="middle" x="2531.71" y="-155.5" font-family="Helvetica,sans-Serif" font-size="10.00">/app/headless.c</text>
</a>
</g>
</g>
<!-- Node1&#45;&gt;Node23 -->
<g id="edge25_Node000001_Node000023" class="edge">
<title>Node1&#45;&gt;Node23</title>
<g id="a_edge25_Node000001_Node000023"><a xlink:title=" ">
<path fill="none" stroke="#63b8ff" d="M2436.9,-215.19C2458.5,-203.64 2485.72,-189.09 2505.44,-178.54"/>
<polygon fill="#63b8ff" stroke="#63b8ff" points="2435.19,-212.13 2428.02,-219.94 2438.49,-218.31 2435.19,-212.13"/>
</a>
</g>
</g>
<!-- Node24 -->
<g id="Node000024" class="node">
<title>Node24</title>
<g id="a_Node000024"><a xlink:href="ad9434__fmc__500ebz_8c.html" target="_top" xlink:title="Implementation of Main Function.">
<polygon fill="white" stroke="#666666" points="2741.71,-184 2605.71,-184 2605.71,-143 2741.71,-143 2741.71,-184"/>
<text text-anchor="start" x="2613.71" y="-172" font-family="Helvetica,sans-Serif" font-size="10.00">projects/ad9434&#45;fmc</text>
<text text-anchor="start" x="2613.71" y="-161" font-family="Helvetica,sans-Serif" font-size="10.00">&#45;500ebz/src/ad9434_fmc</text>
<text text-anchor="middle" x="2673.71" y="-150" font-family="Helvetica,sans-Serif" font-size="10.00">_500ebz.c</text>
</a>
</g>
</g>
<!-- Node1&#45;&gt;Node24 -->
<g id="edge26_Node000001_Node000024" class="edge">
<title>Node1&#45;&gt;Node24</title>
<g id="a_edge26_Node000001_Node000024"><a xlink:title=" ">
<path fill="none" stroke="#63b8ff" d="M2466.56,-217.43C2508.39,-206.74 2562.71,-192.86 2605.23,-182"/>
<polygon fill="#63b8ff" stroke="#63b8ff" points="2465.58,-214.07 2456.76,-219.94 2467.31,-220.85 2465.58,-214.07"/>
</a>
</g>
</g>
<!-- Node25 -->
<g id="Node000025" class="node">
<title>Node25</title>
<g id="a_Node000025"><a xlink:href="ad9467__fmc_8c.html" target="_top" xlink:title="Implementation of the program&#39;s main function.">
<polygon fill="white" stroke="#666666" points="2871.71,-178.5 2759.71,-178.5 2759.71,-148.5 2871.71,-148.5 2871.71,-178.5"/>
<text text-anchor="start" x="2767.71" y="-166.5" font-family="Helvetica,sans-Serif" font-size="10.00">projects/ad9467/src</text>
<text text-anchor="middle" x="2815.71" y="-155.5" font-family="Helvetica,sans-Serif" font-size="10.00">/app/ad9467_fmc.c</text>
</a>
</g>
</g>
<!-- Node1&#45;&gt;Node25 -->
<g id="edge27_Node000001_Node000025" class="edge">
<title>Node1&#45;&gt;Node25</title>
<g id="a_edge27_Node000001_Node000025"><a xlink:title=" ">
<path fill="none" stroke="#63b8ff" d="M2482.69,-225.86C2553.82,-217.9 2659.84,-204.02 2750.71,-184 2757.73,-182.45 2765.1,-180.54 2772.24,-178.51"/>
<polygon fill="#63b8ff" stroke="#63b8ff" points="2482.01,-222.42 2472.46,-227 2482.78,-229.38 2482.01,-222.42"/>
</a>
</g>
</g>
<!-- Node26 -->
<g id="Node000026" class="node">
<title>Node26</title>
<g id="a_Node000026"><a xlink:href="ad9656__fmc_8c.html" target="_top" xlink:title="Implementation of Main Function.">
<polygon fill="white" stroke="#666666" points="3015.71,-178.5 2889.71,-178.5 2889.71,-148.5 3015.71,-148.5 3015.71,-178.5"/>
<text text-anchor="start" x="2897.71" y="-166.5" font-family="Helvetica,sans-Serif" font-size="10.00">projects/ad9656_fmc</text>
<text text-anchor="middle" x="2952.71" y="-155.5" font-family="Helvetica,sans-Serif" font-size="10.00">/src/app/ad9656_fmc.c</text>
</a>
</g>
</g>
<!-- Node1&#45;&gt;Node26 -->
<g id="edge28_Node000001_Node000026" class="edge">
<title>Node1&#45;&gt;Node26</title>
<g id="a_edge28_Node000001_Node000026"><a xlink:title=" ">
<path fill="none" stroke="#63b8ff" d="M2482.62,-229.53C2578.31,-223.32 2742.12,-209.83 2880.71,-184 2888.61,-182.53 2896.9,-180.63 2904.94,-178.59"/>
<polygon fill="#63b8ff" stroke="#63b8ff" points="2482.19,-226.05 2472.43,-230.18 2482.63,-233.03 2482.19,-226.05"/>
</a>
</g>
</g>
<!-- Node27 -->
<g id="Node000027" class="node">
<title>Node27</title>
<g id="a_Node000027"><a xlink:href="adaq8092__fmc_8c.html" target="_top" xlink:title="ADAQ8092_FMC Application.">
<polygon fill="white" stroke="#666666" points="3165.21,-178.5 3034.21,-178.5 3034.21,-148.5 3165.21,-148.5 3165.21,-178.5"/>
<text text-anchor="start" x="3042.21" y="-166.5" font-family="Helvetica,sans-Serif" font-size="10.00">projects/adaq8092_fmc</text>
<text text-anchor="middle" x="3099.71" y="-155.5" font-family="Helvetica,sans-Serif" font-size="10.00">/src/adaq8092_fmc.c</text>
</a>
</g>
</g>
<!-- Node1&#45;&gt;Node27 -->
<g id="edge29_Node000001_Node000027" class="edge">
<title>Node1&#45;&gt;Node27</title>
<g id="a_edge29_Node000001_Node000027"><a xlink:title=" ">
<path fill="none" stroke="#63b8ff" d="M2482.42,-232.01C2601.73,-228.05 2831.86,-216.55 3024.71,-184 3033.2,-182.57 3042.14,-180.63 3050.76,-178.53"/>
<polygon fill="#63b8ff" stroke="#63b8ff" points="2482.16,-228.51 2472.28,-232.34 2482.39,-235.51 2482.16,-228.51"/>
</a>
</g>
</g>
<!-- Node28 -->
<g id="Node000028" class="node">
<title>Node28</title>
<g id="a_Node000028"><a xlink:href="adrv9001_2src_2app_2headless_8c.html" target="_top" xlink:title="adrv9002 main project file.">
<polygon fill="white" stroke="#666666" points="3305.71,-178.5 3183.71,-178.5 3183.71,-148.5 3305.71,-148.5 3305.71,-178.5"/>
<text text-anchor="start" x="3191.71" y="-166.5" font-family="Helvetica,sans-Serif" font-size="10.00">projects/adrv9001/src</text>
<text text-anchor="middle" x="3244.71" y="-155.5" font-family="Helvetica,sans-Serif" font-size="10.00">/app/headless.c</text>
</a>
</g>
</g>
<!-- Node1&#45;&gt;Node28 -->
<g id="edge30_Node000001_Node000028" class="edge">
<title>Node1&#45;&gt;Node28</title>
<g id="a_edge30_Node000001_Node000028"><a xlink:title=" ">
<path fill="none" stroke="#63b8ff" d="M2482.67,-234.25C2624.1,-233.47 2924.91,-226.4 3174.71,-184 3182.8,-182.63 3191.29,-180.7 3199.46,-178.58"/>
<polygon fill="#63b8ff" stroke="#63b8ff" points="2482.34,-230.75 2472.36,-234.3 2482.37,-237.75 2482.34,-230.75"/>
</a>
</g>
</g>
<!-- Node29 -->
<g id="Node000029" class="node">
<title>Node29</title>
<g id="a_Node000029"><a xlink:href="headless__arm_8c.html" target="_top" xlink:title="Contains example code for user integration with their application. This file contains code for ARM.">
<polygon fill="white" stroke="#666666" points="3445.71,-178.5 3323.71,-178.5 3323.71,-148.5 3445.71,-148.5 3445.71,-178.5"/>
<text text-anchor="start" x="3331.71" y="-166.5" font-family="Helvetica,sans-Serif" font-size="10.00">projects/adrv9009/src</text>
<text text-anchor="middle" x="3384.71" y="-155.5" font-family="Helvetica,sans-Serif" font-size="10.00">/app/headless_arm.c</text>
</a>
</g>
</g>
<!-- Node1&#45;&gt;Node29 -->
<g id="edge31_Node000001_Node000029" class="edge">
<title>Node1&#45;&gt;Node29</title>
<g id="a_edge31_Node000001_Node000029"><a xlink:title=" ">
<path fill="none" stroke="#63b8ff" d="M2482.49,-231.82C2674.82,-226.28 3155.73,-210.18 3314.71,-184 3322.93,-182.65 3331.56,-180.7 3339.85,-178.54"/>
<polygon fill="#63b8ff" stroke="#63b8ff" points="2482.34,-228.33 2472.44,-232.11 2482.54,-235.32 2482.34,-228.33"/>
</a>
</g>
</g>
<!-- Node30 -->
<g id="Node000030" class="node">
<title>Node30</title>
<g id="a_Node000030"><a xlink:href="headless__mb_8c.html" target="_top" xlink:title="Contains example code for user integration with their application. This file contains code for MicroB...">
<polygon fill="white" stroke="#666666" points="3585.71,-178.5 3463.71,-178.5 3463.71,-148.5 3585.71,-148.5 3585.71,-178.5"/>
<text text-anchor="start" x="3471.71" y="-166.5" font-family="Helvetica,sans-Serif" font-size="10.00">projects/adrv9009/src</text>
<text text-anchor="middle" x="3524.71" y="-155.5" font-family="Helvetica,sans-Serif" font-size="10.00">/app/headless_mb.c</text>
</a>
</g>
</g>
<!-- Node1&#45;&gt;Node30 -->
<g id="edge32_Node000001_Node000030" class="edge">
<title>Node1&#45;&gt;Node30</title>
<g id="a_edge32_Node000001_Node000030"><a xlink:title=" ">
<path fill="none" stroke="#63b8ff" d="M2482.55,-232.51C2695.41,-228.19 3267.82,-214.08 3454.71,-184 3462.93,-182.68 3471.57,-180.74 3479.86,-178.59"/>
<polygon fill="#63b8ff" stroke="#63b8ff" points="2482.31,-229.01 2472.38,-232.71 2482.45,-236.01 2482.31,-229.01"/>
</a>
</g>
</g>
<!-- Node31 -->
<g id="Node000031" class="node">
<title>Node31</title>
<g id="a_Node000031"><a xlink:href="headless__zu_8c.html" target="_top" xlink:title="Contains example code for user integration with their application. This file contains code for ZU11EG...">
<polygon fill="white" stroke="#666666" points="3725.71,-178.5 3603.71,-178.5 3603.71,-148.5 3725.71,-148.5 3725.71,-178.5"/>
<text text-anchor="start" x="3611.71" y="-166.5" font-family="Helvetica,sans-Serif" font-size="10.00">projects/adrv9009/src</text>
<text text-anchor="middle" x="3664.71" y="-155.5" font-family="Helvetica,sans-Serif" font-size="10.00">/app/headless_zu.c</text>
</a>
</g>
</g>
<!-- Node1&#45;&gt;Node31 -->
<g id="edge33_Node000001_Node000031" class="edge">
<title>Node1&#45;&gt;Node31</title>
<g id="a_edge33_Node000001_Node000031"><a xlink:title=" ">
<path fill="none" stroke="#63b8ff" d="M2482.59,-233.03C2714.65,-229.86 3379.71,-217.99 3594.71,-184 3603.06,-182.68 3611.84,-180.72 3620.24,-178.53"/>
<polygon fill="#63b8ff" stroke="#63b8ff" points="2482.49,-229.53 2472.53,-233.16 2482.58,-236.53 2482.49,-229.53"/>
</a>
</g>
</g>
<!-- Node32 -->
<g id="Node000032" class="node">
<title>Node32</title>
<g id="a_Node000032"><a xlink:href="adrv902x_2src_2examples_2basic__example_2basic__example_8c.html" target="_top" xlink:title="Basic example for the adrv902x project.">
<polygon fill="white" stroke="#666666" points="3887.71,-184 3743.71,-184 3743.71,-143 3887.71,-143 3887.71,-184"/>
<text text-anchor="start" x="3751.71" y="-172" font-family="Helvetica,sans-Serif" font-size="10.00">projects/adrv902x/src</text>
<text text-anchor="start" x="3751.71" y="-161" font-family="Helvetica,sans-Serif" font-size="10.00">/examples/basic_example</text>
<text text-anchor="middle" x="3815.71" y="-150" font-family="Helvetica,sans-Serif" font-size="10.00">/basic_example.c</text>
</a>
</g>
</g>
<!-- Node1&#45;&gt;Node32 -->
<g id="edge34_Node000001_Node000032" class="edge">
<title>Node1&#45;&gt;Node32</title>
<g id="a_edge34_Node000001_Node000032"><a xlink:title=" ">
<path fill="none" stroke="#63b8ff" d="M2482.36,-233.08C2732.13,-229.88 3490.75,-217.6 3734.71,-184 3737.58,-183.61 3740.49,-183.15 3743.43,-182.66"/>
<polygon fill="#63b8ff" stroke="#63b8ff" points="2482.22,-229.58 2472.27,-233.2 2482.31,-236.58 2482.22,-229.58"/>
</a>
</g>
</g>
<!-- Node33 -->
<g id="Node000033" class="node">
<title>Node33</title>
<g id="a_Node000033"><a xlink:href="adrv902x_2src_2examples_2dma__example_2dma__example_8c.html" target="_top" xlink:title="DMA example for the adrv902x project.">
<polygon fill="white" stroke="#666666" points="4045.71,-184 3905.71,-184 3905.71,-143 4045.71,-143 4045.71,-184"/>
<text text-anchor="start" x="3913.71" y="-172" font-family="Helvetica,sans-Serif" font-size="10.00">projects/adrv902x/src</text>
<text text-anchor="start" x="3913.71" y="-161" font-family="Helvetica,sans-Serif" font-size="10.00">/examples/dma_example</text>
<text text-anchor="middle" x="3975.71" y="-150" font-family="Helvetica,sans-Serif" font-size="10.00">/dma_example.c</text>
</a>
</g>
</g>
<!-- Node1&#45;&gt;Node33 -->
<g id="edge35_Node000001_Node000033" class="edge">
<title>Node1&#45;&gt;Node33</title>
<g id="a_edge35_Node000001_Node000033"><a xlink:title=" ">
<path fill="none" stroke="#63b8ff" d="M2482.32,-233.52C2751.78,-231.56 3619.89,-222.37 3896.71,-184 3899.65,-183.59 3902.64,-183.12 3905.65,-182.6"/>
<polygon fill="#63b8ff" stroke="#63b8ff" points="2482.2,-230.02 2472.22,-233.59 2482.25,-237.02 2482.2,-230.02"/>
</a>
</g>
</g>
<!-- Node34 -->
<g id="Node000034" class="node">
<title>Node34</title>
<g id="a_Node000034"><a xlink:href="adrv904x_2src_2examples_2basic__example_2basic__example_8c.html" target="_top" xlink:title="Basic example for the adrv904x project.">
<polygon fill="white" stroke="#666666" points="4207.71,-184 4063.71,-184 4063.71,-143 4207.71,-143 4207.71,-184"/>
<text text-anchor="start" x="4071.71" y="-172" font-family="Helvetica,sans-Serif" font-size="10.00">projects/adrv904x/src</text>
<text text-anchor="start" x="4071.71" y="-161" font-family="Helvetica,sans-Serif" font-size="10.00">/examples/basic_example</text>
<text text-anchor="middle" x="4135.71" y="-150" font-family="Helvetica,sans-Serif" font-size="10.00">/basic_example.c</text>
</a>
</g>
</g>
<!-- Node1&#45;&gt;Node34 -->
<g id="edge37_Node000001_Node000034" class="edge">
<title>Node1&#45;&gt;Node34</title>
<g id="a_edge37_Node000001_Node000034"><a xlink:title=" ">
<path fill="none" stroke="#63b8ff" d="M2482.86,-233.76C2771.21,-232.55 3745.69,-225.42 4054.71,-184 4057.58,-183.62 4060.49,-183.17 4063.43,-182.68"/>
<polygon fill="#63b8ff" stroke="#63b8ff" points="2482.47,-230.26 2472.48,-233.8 2482.5,-237.26 2482.47,-230.26"/>
</a>
</g>
</g>
<!-- Node35 -->
<g id="Node000035" class="node">
<title>Node35</title>
<g id="a_Node000035"><a xlink:href="adrv904x_2src_2examples_2dma__example_2dma__example_8c.html" target="_top" xlink:title="DMA example for the adrv904x project.">
<polygon fill="white" stroke="#666666" points="4365.71,-184 4225.71,-184 4225.71,-143 4365.71,-143 4365.71,-184"/>
<text text-anchor="start" x="4233.71" y="-172" font-family="Helvetica,sans-Serif" font-size="10.00">projects/adrv904x/src</text>
<text text-anchor="start" x="4233.71" y="-161" font-family="Helvetica,sans-Serif" font-size="10.00">/examples/dma_example</text>
<text text-anchor="middle" x="4295.71" y="-150" font-family="Helvetica,sans-Serif" font-size="10.00">/dma_example.c</text>
</a>
</g>
</g>
<!-- Node1&#45;&gt;Node35 -->
<g id="edge38_Node000001_Node000035" class="edge">
<title>Node1&#45;&gt;Node35</title>
<g id="a_edge38_Node000001_Node000035"><a xlink:title=" ">
<path fill="none" stroke="#63b8ff" d="M2482.49,-234.08C2788.23,-234 3874.46,-230.41 4216.71,-184 4219.65,-183.6 4222.64,-183.14 4225.65,-182.62"/>
<polygon fill="#63b8ff" stroke="#63b8ff" points="2482.38,-230.57 2472.38,-234.08 2482.38,-237.57 2482.38,-230.57"/>
</a>
</g>
</g>
<!-- Node36 -->
<g id="Node000036" class="node">
<title>Node36</title>
<g id="a_Node000036"><a xlink:href="fmcdaq2_8c.html" target="_top" xlink:title="Implementation of Main Function.">
<polygon fill="white" stroke="#666666" points="4503.21,-178.5 4384.21,-178.5 4384.21,-148.5 4503.21,-148.5 4503.21,-178.5"/>
<text text-anchor="start" x="4392.21" y="-166.5" font-family="Helvetica,sans-Serif" font-size="10.00">projects/fmcdaq2/src</text>
<text text-anchor="middle" x="4443.71" y="-155.5" font-family="Helvetica,sans-Serif" font-size="10.00">/app/fmcdaq2.c</text>
</a>
</g>
</g>
<!-- Node1&#45;&gt;Node36 -->
<g id="edge40_Node000001_Node000036" class="edge">
<title>Node1&#45;&gt;Node36</title>
<g id="a_edge40_Node000001_Node000036"><a xlink:title=" ">
<path fill="none" stroke="#63b8ff" d="M2482.51,-233.14C2829.71,-229.31 4185.9,-212.61 4374.71,-184 4383.08,-182.73 4391.87,-180.76 4400.27,-178.55"/>
<polygon fill="#63b8ff" stroke="#63b8ff" points="2482.25,-229.65 2472.29,-233.26 2482.33,-236.65 2482.25,-229.65"/>
</a>
</g>
</g>
<!-- Node37 -->
<g id="Node000037" class="node">
<title>Node37</title>
<g id="a_Node000037"><a xlink:href="fmcdaq3_8c.html" target="_top" xlink:title="Implementation of Main Function.">
<polygon fill="white" stroke="#666666" points="4640.21,-178.5 4521.21,-178.5 4521.21,-148.5 4640.21,-148.5 4640.21,-178.5"/>
<text text-anchor="start" x="4529.21" y="-166.5" font-family="Helvetica,sans-Serif" font-size="10.00">projects/fmcdaq3/src</text>
<text text-anchor="middle" x="4580.71" y="-155.5" font-family="Helvetica,sans-Serif" font-size="10.00">/app/fmcdaq3.c</text>
</a>
</g>
</g>
<!-- Node1&#45;&gt;Node37 -->
<g id="edge41_Node000001_Node000037" class="edge">
<title>Node1&#45;&gt;Node37</title>
<g id="a_edge41_Node000001_Node000037"><a xlink:title=" ">
<path fill="none" stroke="#63b8ff" d="M2482.44,-233.31C2844.49,-230.04 4309.68,-214.99 4512.71,-184 4520.97,-182.74 4529.64,-180.77 4537.91,-178.56"/>
<polygon fill="#63b8ff" stroke="#63b8ff" points="2482.28,-229.81 2472.31,-233.4 2482.34,-236.81 2482.28,-229.81"/>
</a>
</g>
</g>
<!-- Node3 -->
<g id="Node000003" class="node">
<title>Node3</title>
<g id="a_Node000003"><a xlink:href="ad796x_8c.html" target="_top" xlink:title="Implementation of AD796X Driver.">
<polygon fill="white" stroke="#666666" points="307.71,-101.5 197.71,-101.5 197.71,-71.5 307.71,-71.5 307.71,-101.5"/>
<text text-anchor="start" x="205.71" y="-89.5" font-family="Helvetica,sans-Serif" font-size="10.00">drivers/adc/ad796x</text>
<text text-anchor="middle" x="252.71" y="-78.5" font-family="Helvetica,sans-Serif" font-size="10.00">/ad796x.c</text>
</a>
</g>
</g>
<!-- Node2&#45;&gt;Node3 -->
<g id="edge2_Node000002_Node000003" class="edge">
<title>Node2&#45;&gt;Node3</title>
<g id="a_edge2_Node000002_Node000003"><a xlink:title=" ">
<path fill="none" stroke="#63b8ff" d="M354.87,-143.43C331.03,-130.38 299.96,-113.36 278.37,-101.54"/>
<polygon fill="#63b8ff" stroke="#63b8ff" points="353.49,-146.66 363.94,-148.39 356.85,-140.52 353.49,-146.66"/>
</a>
</g>
</g>
<!-- Node2&#45;&gt;Node4 -->
<g id="edge3_Node000002_Node000004" class="edge">
<title>Node2&#45;&gt;Node4</title>
<g id="a_edge3_Node000002_Node000004"><a xlink:title=" ">
<path fill="none" stroke="#63b8ff" d="M372.9,-139.93C366.37,-130.22 359.36,-118.48 354.71,-107 344.19,-80.97 339.19,-48.28 337.07,-30.02"/>
<polygon fill="#63b8ff" stroke="#63b8ff" points="370.08,-142.01 378.68,-148.21 375.82,-138 370.08,-142.01"/>
</a>
</g>
</g>
<!-- Node5 -->
<g id="Node000005" class="node">
<title>Node5</title>
<g id="a_Node000005"><a xlink:href="ad796x__fmcz_2src_2common_2common__data_8h.html" target="_top" xlink:title="Defines common data to be used by iio examples.">
<polygon fill="white" stroke="#666666" points="525.21,-101.5 364.21,-101.5 364.21,-71.5 525.21,-71.5 525.21,-101.5"/>
<text text-anchor="start" x="372.21" y="-89.5" font-family="Helvetica,sans-Serif" font-size="10.00">projects/ad796x_fmcz</text>
<text text-anchor="middle" x="444.71" y="-78.5" font-family="Helvetica,sans-Serif" font-size="10.00">/src/common/common_data.h</text>
</a>
</g>
</g>
<!-- Node2&#45;&gt;Node5 -->
<g id="edge4_Node000002_Node000005" class="edge">
<title>Node2&#45;&gt;Node5</title>
<g id="a_edge4_Node000002_Node000005"><a xlink:title=" ">
<path fill="none" stroke="#63b8ff" d="M406.04,-140.24C415.23,-127.7 426.44,-112.42 434.41,-101.54"/>
<polygon fill="#63b8ff" stroke="#63b8ff" points="403.15,-138.26 400.06,-148.39 408.79,-142.4 403.15,-138.26"/>
</a>
</g>
</g>
<!-- Node6 -->
<g id="Node000006" class="node">
<title>Node6</title>
<g id="a_Node000006"><a xlink:href="ad796x__fmcz_2src_2examples_2basic__example_2basic__example_8c.html" target="_top" xlink:title="Implementation of BASIC example.">
<polygon fill="white" stroke="#666666" points="179.21,-107 18.21,-107 18.21,-66 179.21,-66 179.21,-107"/>
<text text-anchor="start" x="26.21" y="-95" font-family="Helvetica,sans-Serif" font-size="10.00">projects/ad796x_fmcz</text>
<text text-anchor="start" x="26.21" y="-84" font-family="Helvetica,sans-Serif" font-size="10.00">/src/examples/basic_example</text>
<text text-anchor="middle" x="98.71" y="-73" font-family="Helvetica,sans-Serif" font-size="10.00">/basic_example.c</text>
</a>
</g>
</g>
<!-- Node2&#45;&gt;Node6 -->
<g id="edge6_Node000002_Node000006" class="edge">
<title>Node2&#45;&gt;Node6</title>
<g id="a_edge6_Node000002_Node000006"><a xlink:title=" ">
<path fill="none" stroke="#63b8ff" d="M325.48,-145.94C280.92,-134.46 221.4,-119.12 174.52,-107.04"/>
<polygon fill="#63b8ff" stroke="#63b8ff" points="324.76,-149.37 335.32,-148.48 326.51,-142.6 324.76,-149.37"/>
</a>
</g>
</g>
<!-- Node7 -->
<g id="Node000007" class="node">
<title>Node7</title>
<g id="a_Node000007"><a xlink:href="ad796x__fmcz_2src_2examples_2iio__example_2iio__example_8c.html" target="_top" xlink:title="Implementation of IIO example for iio project.">
<polygon fill="white" stroke="#666666" points="691.71,-107 543.71,-107 543.71,-66 691.71,-66 691.71,-107"/>
<text text-anchor="start" x="551.71" y="-95" font-family="Helvetica,sans-Serif" font-size="10.00">projects/ad796x_fmcz</text>
<text text-anchor="start" x="551.71" y="-84" font-family="Helvetica,sans-Serif" font-size="10.00">/src/examples/iio_example</text>
<text text-anchor="middle" x="617.71" y="-73" font-family="Helvetica,sans-Serif" font-size="10.00">/iio_example.c</text>
</a>
</g>
</g>
<!-- Node2&#45;&gt;Node7 -->
<g id="edge7_Node000002_Node000007" class="edge">
<title>Node2&#45;&gt;Node7</title>
<g id="a_edge7_Node000002_Node000007"><a xlink:title=" ">
<path fill="none" stroke="#63b8ff" d="M442.24,-145.22C476.82,-133.85 522.17,-118.93 558.11,-107.11"/>
<polygon fill="#63b8ff" stroke="#63b8ff" points="440.74,-142.03 432.33,-148.48 442.92,-148.68 440.74,-142.03"/>
</a>
</g>
</g>
<!-- Node5&#45;&gt;Node4 -->
<g id="edge5_Node000005_Node000004" class="edge">
<title>Node5&#45;&gt;Node4</title>
<g id="a_edge5_Node000005_Node000004"><a xlink:title=" ">
<path fill="none" stroke="#63b8ff" d="M413.75,-65.75C395.88,-54.36 373.83,-40.31 357.74,-30.04"/>
<polygon fill="#63b8ff" stroke="#63b8ff" points="412.34,-69.01 422.66,-71.44 416.11,-63.11 412.34,-69.01"/>
</a>
</g>
</g>
<!-- Node10&#45;&gt;Node7 -->
<g id="edge12_Node000010_Node000007" class="edge">
<title>Node10&#45;&gt;Node7</title>
<g id="a_edge12_Node000010_Node000007"><a xlink:title=" ">
<path fill="none" stroke="#63b8ff" d="M756.14,-144.54C728.72,-133.24 693.32,-118.66 665.18,-107.06"/>
<polygon fill="#63b8ff" stroke="#63b8ff" points="754.9,-147.82 765.48,-148.39 757.57,-141.35 754.9,-147.82"/>
</a>
</g>
</g>
<!-- Node11 -->
<g id="Node000011" class="node">
<title>Node11</title>
<g id="a_Node000011"><a xlink:href="iio__axi__adc_8c.html" target="_top" xlink:title="Implementation of iio_axi_adc. This instantiates iio_axi_adc and iio_axi_dac devices,...">
<polygon fill="white" stroke="#666666" points="835.21,-101.5 710.21,-101.5 710.21,-71.5 835.21,-71.5 835.21,-101.5"/>
<text text-anchor="start" x="718.21" y="-89.5" font-family="Helvetica,sans-Serif" font-size="10.00">drivers/axi_core/iio</text>
<text text-anchor="middle" x="772.71" y="-78.5" font-family="Helvetica,sans-Serif" font-size="10.00">_axi_adc/iio_axi_adc.c</text>
</a>
</g>
</g>
<!-- Node10&#45;&gt;Node11 -->
<g id="edge11_Node000010_Node000011" class="edge">
<title>Node10&#45;&gt;Node11</title>
<g id="a_edge11_Node000010_Node000011"><a xlink:title=" ">
<path fill="none" stroke="#63b8ff" d="M791.17,-138.78C786.76,-126.53 781.53,-112 777.77,-101.54"/>
<polygon fill="#63b8ff" stroke="#63b8ff" points="787.95,-140.17 794.63,-148.39 794.54,-137.8 787.95,-140.17"/>
</a>
</g>
</g>
<!-- Node10&#45;&gt;Node12 -->
<g id="edge13_Node000010_Node000012" class="edge">
<title>Node10&#45;&gt;Node12</title>
<g id="a_edge13_Node000010_Node000012"><a xlink:title=" ">
<path fill="none" stroke="#63b8ff" d="M830.79,-142.91C848.24,-131.91 869.96,-118.22 887.45,-107.2"/>
<polygon fill="#63b8ff" stroke="#63b8ff" points="828.69,-140.1 822.1,-148.39 832.42,-146.02 828.69,-140.1"/>
</a>
</g>
</g>
<!-- Node10&#45;&gt;Node13 -->
<g id="edge14_Node000010_Node000013" class="edge">
<title>Node10&#45;&gt;Node13</title>
<g id="a_edge14_Node000010_Node000013"><a xlink:title=" ">
<path fill="none" stroke="#63b8ff" d="M859.69,-145.71C902,-133.87 958.66,-118.02 1002.16,-105.84"/>
<polygon fill="#63b8ff" stroke="#63b8ff" points="858.49,-142.42 849.81,-148.48 860.38,-149.16 858.49,-142.42"/>
</a>
</g>
</g>
</g>
</svg>
