<?xml version="1.0" encoding="UTF-8" standalone="no"?>
<!DOCTYPE svg PUBLIC "-//W3C//DTD SVG 1.1//EN"
 "http://www.w3.org/Graphics/SVG/1.1/DTD/svg11.dtd">
<!-- Generated by graphviz version 2.43.0 (0)
 -->
<!-- Title: axi_jesd204_rx_lane_clk_disable Pages: 1 -->
<!--zoomable 147 -->

<svg id="main" version="1.1" xmlns="http://www.w3.org/2000/svg" xmlns:xlink="http://www.w3.org/1999/xlink" xml:space="preserve" onload="init(evt)">

<style type="text/css"><![CDATA[
.node, .edge {opacity: 0.7;}
.node.selected, .edge.selected {opacity: 1;}
.edge:hover path { stroke: red; }
.edge:hover polygon { stroke: red; fill: red; }
]]></style>

<defs>
  <circle id="rim" cx="0" cy="0" r="7"/>
  <circle id="rim2" cx="0" cy="0" r="3.5"/>
  <g id="zoomPlus">
    <use xlink:href="#rim" fill="#404040"><set attributeName="fill" to="#808080" begin="zoomplus.mouseover" end="zoomplus.mouseout"/></use>
    <path d="M-4,0h8M0,-4v8" fill="none" stroke="white" stroke-width="1.5" pointer-events="none"/>
  </g>
  <g id="zoomMin">
    <use xlink:href="#rim" fill="#404040"><set attributeName="fill" to="#808080" begin="zoomminus.mouseover" end="zoomminus.mouseout"/></use>
    <path d="M-4,0h8" fill="none" stroke="white" stroke-width="1.5" pointer-events="none"/>
  </g>
  <g id="arrowUp" transform="translate(30 24)">
    <use xlink:href="#rim"/>
    <path pointer-events="none" fill="none" stroke="white" stroke-width="1.5" d="M0,-3.0v7 M-2.5,-0.5L0,-3.0L2.5,-0.5"/>
  </g>
  <g id="arrowRight" transform="rotate(90) translate(36 -43)">
    <use xlink:href="#rim"/>
    <path pointer-events="none" fill="none" stroke="white" stroke-width="1.5" d="M0,-3.0v7 M-2.5,-0.5L0,-3.0L2.5,-0.5"/>
  </g>
  <g id="arrowDown" transform="rotate(180) translate(-30 -48)">
    <use xlink:href="#rim"/>
    <path pointer-events="none" fill="none" stroke="white" stroke-width="1.5" d="M0,-3.0v7 M-2.5,-0.5L0,-3.0L2.5,-0.5"/>
  </g>
  <g id="arrowLeft" transform="rotate(270) translate(-36 17)">
    <use xlink:href="#rim"/>
    <path pointer-events="none" fill="none" stroke="white" stroke-width="1.5" d="M0,-3.0v7 M-2.5,-0.5L0,-3.0L2.5,-0.5"/>
  </g>
  <g id="resetDef">
    <use xlink:href="#rim2" fill="#404040"><set attributeName="fill" to="#808080" begin="reset.mouseover" end="reset.mouseout"/></use>
  </g>
</defs>
<script type="application/ecmascript">
var viewWidth = 516;
var viewHeight = 147;
var sectionId = 'dynsection-4';
</script>
<script type="application/ecmascript" xlink:href="svg.min.js"/>
<svg id="graph" class="graph">
<g id="viewport">
<title>axi_jesd204_rx_lane_clk_disable</title>
<!-- Node1 -->
<g id="Node000001" class="node">
<title>Node1</title>
<g id="a_Node000001"><a xlink:title="JESD204 RX Lane Clock Disable.">
<polygon fill="#999999" stroke="#666666" points="508,-79.5 392,-79.5 392,-49.5 508,-49.5 508,-79.5"/>
<text text-anchor="start" x="400" y="-67.5" font-family="Helvetica,sans-Serif" font-size="10.00">axi_jesd204_rx_lane</text>
<text text-anchor="middle" x="450" y="-56.5" font-family="Helvetica,sans-Serif" font-size="10.00">_clk_disable</text>
</a>
</g>
</g>
<!-- Node2 -->
<g id="Node000002" class="node">
<title>Node2</title>
<g id="a_Node000002"><a xlink:href="axi__jesd204__rx_8c.html#ae48629d98618ad14c1bcbf268d59ce96" target="_top" xlink:title="Device initialization.">
<polygon fill="white" stroke="#666666" points="354,-101.5 243,-101.5 243,-71.5 354,-71.5 354,-101.5"/>
<text text-anchor="start" x="251" y="-89.5" font-family="Helvetica,sans-Serif" font-size="10.00">axi_jesd204_rx_init</text>
<text text-anchor="middle" x="298.5" y="-78.5" font-family="Helvetica,sans-Serif" font-size="10.00">_legacy</text>
</a>
</g>
</g>
<!-- Node1&#45;&gt;Node2 -->
<g id="edge1_Node000001_Node000002" class="edge">
<title>Node1&#45;&gt;Node2</title>
<g id="a_edge1_Node000001_Node000002"><a xlink:title=" ">
<path fill="none" stroke="#63b8ff" d="M381.67,-74.41C372.41,-75.77 363,-77.16 354.01,-78.48"/>
<polygon fill="#63b8ff" stroke="#63b8ff" points="382.24,-77.86 391.63,-72.94 381.22,-70.94 382.24,-77.86"/>
</a>
</g>
</g>
<!-- Node7 -->
<g id="Node000007" class="node">
<title>Node7</title>
<g id="a_Node000007"><a xlink:href="jesd204__clk_8c.html#ac6c34646d1c05b88bf73af88f24bf6c4" target="_top" xlink:title=" ">
<polygon fill="white" stroke="#666666" points="356,-139 241,-139 241,-120 356,-120 356,-139"/>
<text text-anchor="middle" x="298.5" y="-127" font-family="Helvetica,sans-Serif" font-size="10.00">jesd204_clk_disable</text>
</a>
</g>
</g>
<!-- Node1&#45;&gt;Node7 -->
<g id="edge6_Node000001_Node000007" class="edge">
<title>Node1&#45;&gt;Node7</title>
<g id="a_edge6_Node000001_Node000007"><a xlink:title=" ">
<path fill="none" stroke="#63b8ff" d="M412,-84.23C395.16,-92.84 374.82,-102.72 356,-110.5 347.77,-113.9 338.7,-117.16 330.27,-119.99"/>
<polygon fill="#63b8ff" stroke="#63b8ff" points="413.69,-87.3 420.97,-79.6 410.48,-81.08 413.69,-87.3"/>
</a>
</g>
</g>
<!-- Node8 -->
<g id="Node000008" class="node">
<title>Node8</title>
<g id="a_Node000008"><a xlink:href="ad9208_2src_2main_8c.html#a840291bc02cba5474a4cb46a9b9566fe" target="_top" xlink:title=" ">
<polygon fill="white" stroke="#666666" points="319,-53 278,-53 278,-34 319,-34 319,-53"/>
<text text-anchor="middle" x="298.5" y="-41" font-family="Helvetica,sans-Serif" font-size="10.00">main</text>
</a>
</g>
</g>
<!-- Node1&#45;&gt;Node8 -->
<g id="edge8_Node000001_Node000008" class="edge">
<title>Node1&#45;&gt;Node8</title>
<g id="a_edge8_Node000001_Node000008"><a xlink:title=" ">
<path fill="none" stroke="#63b8ff" d="M381.64,-55.04C358.95,-51.85 335.34,-48.53 319.28,-46.28"/>
<polygon fill="#63b8ff" stroke="#63b8ff" points="381.24,-58.52 391.63,-56.44 382.21,-51.58 381.24,-58.52"/>
</a>
</g>
</g>
<!-- Node9 -->
<g id="Node000009" class="node">
<title>Node9</title>
<g id="a_Node000009"><a xlink:href="app__talise_8c.html#a51c2ee9f37b849d981c6de38835f5eca" target="_top" xlink:title=" ">
<polygon fill="white" stroke="#666666" points="205,-19 77,-19 77,0 205,0 205,-19"/>
<text text-anchor="middle" x="141" y="-7" font-family="Helvetica,sans-Serif" font-size="10.00">talise_multi_chip_sync</text>
</a>
</g>
</g>
<!-- Node1&#45;&gt;Node9 -->
<g id="edge9_Node000001_Node000009" class="edge">
<title>Node1&#45;&gt;Node9</title>
<g id="a_edge9_Node000001_Node000009"><a xlink:title=" ">
<path fill="none" stroke="#63b8ff" d="M411.62,-45C395.03,-37.26 374.99,-29.11 356,-24.5 306.23,-12.42 248.19,-8.99 205.12,-8.4"/>
<polygon fill="#63b8ff" stroke="#63b8ff" points="410.43,-48.32 420.96,-49.49 413.46,-42.01 410.43,-48.32"/>
</a>
</g>
</g>
<!-- Node3 -->
<g id="Node000003" class="node">
<title>Node3</title>
<g id="a_Node000003"><a xlink:href="ad9083_2src_2app__jesd_8c.html#a3fc69d9cce4bef3b10d0ea379c5cbd86" target="_top" xlink:title="Application JESD setup.">
<polygon fill="white" stroke="#666666" points="181.5,-136 100.5,-136 100.5,-117 181.5,-117 181.5,-136"/>
<text text-anchor="middle" x="141" y="-124" font-family="Helvetica,sans-Serif" font-size="10.00">app_jesd_init</text>
</a>
</g>
</g>
<!-- Node2&#45;&gt;Node3 -->
<g id="edge2_Node000002_Node000003" class="edge">
<title>Node2&#45;&gt;Node3</title>
<g id="a_edge2_Node000002_Node000003"><a xlink:title=" ">
<path fill="none" stroke="#63b8ff" d="M232.94,-103.11C214.65,-107.81 195.37,-112.77 179.28,-116.91"/>
<polygon fill="#63b8ff" stroke="#63b8ff" points="233.86,-106.48 242.68,-100.6 232.12,-99.7 233.86,-106.48"/>
</a>
</g>
</g>
<!-- Node4 -->
<g id="Node000004" class="node">
<title>Node4</title>
<g id="a_Node000004"><a xlink:href="adrv9009_2src_2app_2app__jesd_8c.html#ae5553405b03de1193a617ca30d31a455" target="_top" xlink:title=" ">
<polygon fill="white" stroke="#666666" points="170,-96 112,-96 112,-77 170,-77 170,-96"/>
<text text-anchor="middle" x="141" y="-84" font-family="Helvetica,sans-Serif" font-size="10.00">jesd_init</text>
</a>
</g>
</g>
<!-- Node2&#45;&gt;Node4 -->
<g id="edge3_Node000002_Node000004" class="edge">
<title>Node2&#45;&gt;Node4</title>
<g id="a_edge3_Node000002_Node000004"><a xlink:title=" ">
<path fill="none" stroke="#63b8ff" d="M232.48,-86.5C210.73,-86.5 187.62,-86.5 170.2,-86.5"/>
<polygon fill="#63b8ff" stroke="#63b8ff" points="232.68,-90 242.68,-86.5 232.68,-83 232.68,-90"/>
</a>
</g>
</g>
<!-- Node6 -->
<g id="Node000006" class="node">
<title>Node6</title>
<g id="a_Node000006"><a xlink:href="ad6676__ebz_8c.html#a840291bc02cba5474a4cb46a9b9566fe" target="_top" xlink:title="main">
<polygon fill="white" stroke="#666666" points="161.5,-59 120.5,-59 120.5,-40 161.5,-40 161.5,-59"/>
<text text-anchor="middle" x="141" y="-47" font-family="Helvetica,sans-Serif" font-size="10.00">main</text>
</a>
</g>
</g>
<!-- Node2&#45;&gt;Node6 -->
<g id="edge5_Node000002_Node000006" class="edge">
<title>Node2&#45;&gt;Node6</title>
<g id="a_edge5_Node000002_Node000006"><a xlink:title=" ">
<path fill="none" stroke="#63b8ff" d="M232.62,-71.06C207.06,-64.98 179.58,-58.44 161.67,-54.18"/>
<polygon fill="#63b8ff" stroke="#63b8ff" points="232.14,-74.55 242.68,-73.46 233.76,-67.74 232.14,-74.55"/>
</a>
</g>
</g>
<!-- Node5 -->
<g id="Node000005" class="node">
<title>Node5</title>
<g id="a_Node000005"><a xlink:href="headless__arm_8c.html#a840291bc02cba5474a4cb46a9b9566fe" target="_top" xlink:title=" ">
<polygon fill="white" stroke="#666666" points="41,-56 0,-56 0,-37 41,-37 41,-56"/>
<text text-anchor="middle" x="20.5" y="-44" font-family="Helvetica,sans-Serif" font-size="10.00">main</text>
</a>
</g>
</g>
<!-- Node4&#45;&gt;Node5 -->
<g id="edge4_Node000004_Node000005" class="edge">
<title>Node4&#45;&gt;Node5</title>
<g id="a_edge4_Node000004_Node000005"><a xlink:title=" ">
<path fill="none" stroke="#63b8ff" d="M102.38,-75.62C93.99,-73.06 85.16,-70.27 77,-67.5 65,-63.43 51.72,-58.42 41.16,-54.32"/>
<polygon fill="#63b8ff" stroke="#63b8ff" points="101.37,-78.97 111.96,-78.49 103.39,-72.26 101.37,-78.97"/>
</a>
</g>
</g>
<!-- Node7&#45;&gt;Node3 -->
<g id="edge7_Node000007_Node000003" class="edge">
<title>Node7&#45;&gt;Node3</title>
<g id="a_edge7_Node000007_Node000003"><a xlink:title=" ">
<path fill="none" stroke="#63b8ff" d="M230.66,-128.21C213.99,-127.89 196.63,-127.55 181.74,-127.27"/>
<polygon fill="#63b8ff" stroke="#63b8ff" points="230.86,-131.71 240.92,-128.41 230.99,-124.72 230.86,-131.71"/>
</a>
</g>
</g>
<!-- Node9&#45;&gt;Node5 -->
<g id="edge10_Node000009_Node000005" class="edge">
<title>Node9&#45;&gt;Node5</title>
<g id="a_edge10_Node000009_Node000005"><a xlink:title=" ">
<path fill="none" stroke="#63b8ff" d="M99.78,-22.06C80,-28.24 57.05,-35.4 41.14,-40.37"/>
<polygon fill="#63b8ff" stroke="#63b8ff" points="100.98,-25.35 109.48,-19.03 98.89,-18.67 100.98,-25.35"/>
</a>
</g>
</g>
</g>
</svg>

<g id="navigator" transform="translate(0 0)" fill="#404254">
  <rect fill="#f2f5e9" fill-opacity="0.5" stroke="#606060" stroke-width=".5" x="0" y="0" width="60" height="60"/>
  <use id="zoomplus" xlink:href="#zoomPlus" x="17" y="9" onmousedown="handleZoom(evt,'in')"/>
  <use id="zoomminus" xlink:href="#zoomMin" x="42" y="9" onmousedown="handleZoom(evt,'out')"/>
  <use id="reset" xlink:href="#resetDef" x="30" y="36" onmousedown="handleReset()"/>
   <use id="arrowup" xlink:href="#arrowUp" x="0" y="0" onmousedown="handlePan(0,-1)"/>
  <use id="arrowright" xlink:href="#arrowRight" x="0" y="0" onmousedown="handlePan(1,0)"/>
  <use id="arrowdown" xlink:href="#arrowDown" x="0" y="0" onmousedown="handlePan(0,1)"/>
  <use id="arrowleft" xlink:href="#arrowLeft" x="0" y="0" onmousedown="handlePan(-1,0)"/>
</g>
<svg viewBox="0 0 15 15" width="100%" height="30px" preserveAspectRatio="xMaxYMin meet">
 <g id="arrow_out" transform="scale(0.3 0.3)">
  <a xlink:href="axi__jesd204__rx_8h_a6228a24f58d177d6e58789104875dfd7_icgraph_org.svg" target="_base">
   <rect id="button" ry="5" rx="5" y="6" x="6" height="38" width="38"
        fill="#f2f5e9" fill-opacity="0.5" stroke="#606060" stroke-width="1.0"/>
   <path id="arrow"
     d="M 11.500037,31.436501 C 11.940474,20.09759 22.043105,11.32322 32.158766,21.979434 L 37.068811,17.246167 C 37.068811,17.246167 37.088388,32 37.088388,32 L 22.160133,31.978069 C 22.160133,31.978069 26.997745,27.140456 26.997745,27.140456 C 18.528582,18.264221 13.291696,25.230495 11.500037,31.436501 z"
     style="fill:#404040;"/>
  </a>
 </g>
</svg>

<style type='text/css'>
<![CDATA[
[data-mouse-over-selected='false'] { opacity: 0.7; }
[data-mouse-over-selected='true']  { opacity: 1.0; }
]]>
</style>
<script type="application/ecmascript"><![CDATA[
document.addEventListener('DOMContentLoaded', (event) => {
  highlightEdges();
  highlightAdjacentNodes();
});
]]></script>
</svg>
