<?xml version="1.0" encoding="UTF-8" standalone="no"?>
<!DOCTYPE svg PUBLIC "-//W3C//DTD SVG 1.1//EN"
 "http://www.w3.org/Graphics/SVG/1.1/DTD/svg11.dtd">
<!-- Generated by graphviz version 2.43.0 (0)
 -->
<!-- Title: drivers/axi_core/jesd204/axi_jesd204_tx.h Pages: 1 -->
<!--zoomable 247 -->

<svg id="main" version="1.1" xmlns="http://www.w3.org/2000/svg" xmlns:xlink="http://www.w3.org/1999/xlink" xml:space="preserve" onload="init(evt)">

<style type="text/css"><![CDATA[
.node, .edge {opacity: 0.7;}
.node.selected, .edge.selected {opacity: 1;}
.edge:hover path { stroke: red; }
.edge:hover polygon { stroke: red; fill: red; }
]]></style>

<defs>
  <circle id="rim" cx="0" cy="0" r="7"/>
  <circle id="rim2" cx="0" cy="0" r="3.5"/>
  <g id="zoomPlus">
    <use xlink:href="#rim" fill="#404040"><set attributeName="fill" to="#808080" begin="zoomplus.mouseover" end="zoomplus.mouseout"/></use>
    <path d="M-4,0h8M0,-4v8" fill="none" stroke="white" stroke-width="1.5" pointer-events="none"/>
  </g>
  <g id="zoomMin">
    <use xlink:href="#rim" fill="#404040"><set attributeName="fill" to="#808080" begin="zoomminus.mouseover" end="zoomminus.mouseout"/></use>
    <path d="M-4,0h8" fill="none" stroke="white" stroke-width="1.5" pointer-events="none"/>
  </g>
  <g id="arrowUp" transform="translate(30 24)">
    <use xlink:href="#rim"/>
    <path pointer-events="none" fill="none" stroke="white" stroke-width="1.5" d="M0,-3.0v7 M-2.5,-0.5L0,-3.0L2.5,-0.5"/>
  </g>
  <g id="arrowRight" transform="rotate(90) translate(36 -43)">
    <use xlink:href="#rim"/>
    <path pointer-events="none" fill="none" stroke="white" stroke-width="1.5" d="M0,-3.0v7 M-2.5,-0.5L0,-3.0L2.5,-0.5"/>
  </g>
  <g id="arrowDown" transform="rotate(180) translate(-30 -48)">
    <use xlink:href="#rim"/>
    <path pointer-events="none" fill="none" stroke="white" stroke-width="1.5" d="M0,-3.0v7 M-2.5,-0.5L0,-3.0L2.5,-0.5"/>
  </g>
  <g id="arrowLeft" transform="rotate(270) translate(-36 17)">
    <use xlink:href="#rim"/>
    <path pointer-events="none" fill="none" stroke="white" stroke-width="1.5" d="M0,-3.0v7 M-2.5,-0.5L0,-3.0L2.5,-0.5"/>
  </g>
  <g id="resetDef">
    <use xlink:href="#rim2" fill="#404040"><set attributeName="fill" to="#808080" begin="reset.mouseover" end="reset.mouseout"/></use>
  </g>
</defs>
<script type="application/ecmascript">
var viewWidth = 2905;
var viewHeight = 247;
var sectionId = 'dynsection-1';
</script>
<script type="application/ecmascript" xlink:href="svg.min.js"/>
<svg id="graph" class="graph">
<g id="viewport">
<title>drivers/axi_core/jesd204/axi_jesd204_tx.h</title>
<!-- Node1 -->
<g id="Node000001" class="node">
<title>Node1</title>
<g id="a_Node000001"><a xlink:title="Driver for the Analog Devices AXI&#45;JESD204&#45;TX peripheral.">
<polygon fill="#999999" stroke="#666666" points="1357,-239 1221,-239 1221,-209 1357,-209 1357,-239"/>
<text text-anchor="start" x="1229" y="-227" font-family="Helvetica,sans-Serif" font-size="10.00">drivers/axi_core/jesd204</text>
<text text-anchor="middle" x="1289" y="-216" font-family="Helvetica,sans-Serif" font-size="10.00">/axi_jesd204_tx.h</text>
</a>
</g>
</g>
<!-- Node2 -->
<g id="Node000002" class="node">
<title>Node2</title>
<g id="a_Node000002"><a xlink:href="axi__jesd204__tx_8c.html" target="_top" xlink:title="Driver for the Analog Devices AXI&#45;JESD204&#45;TX peripheral.">
<polygon fill="white" stroke="#666666" points="170,-167.5 34,-167.5 34,-137.5 170,-137.5 170,-167.5"/>
<text text-anchor="start" x="42" y="-155.5" font-family="Helvetica,sans-Serif" font-size="10.00">drivers/axi_core/jesd204</text>
<text text-anchor="middle" x="102" y="-144.5" font-family="Helvetica,sans-Serif" font-size="10.00">/axi_jesd204_tx.c</text>
</a>
</g>
</g>
<!-- Node1&#45;&gt;Node2 -->
<g id="edge1_Node000001_Node000002" class="edge">
<title>Node1&#45;&gt;Node2</title>
<g id="a_edge1_Node000001_Node000002"><a xlink:title=" ">
<path fill="none" stroke="#63b8ff" d="M1210.83,-221.38C993.09,-216.55 382.67,-200.86 184,-173 174.44,-171.66 164.35,-169.71 154.65,-167.56"/>
<polygon fill="#63b8ff" stroke="#63b8ff" points="1210.82,-224.88 1220.9,-221.6 1210.97,-217.88 1210.82,-224.88"/>
</a>
</g>
</g>
<!-- Node3 -->
<g id="Node000003" class="node">
<title>Node3</title>
<g id="a_Node000003"><a xlink:href="jesd204__clk_8h.html" target="_top" xlink:title="Analog Devices JESD204 clock.">
<polygon fill="white" stroke="#666666" points="362,-167.5 226,-167.5 226,-137.5 362,-137.5 362,-167.5"/>
<text text-anchor="start" x="234" y="-155.5" font-family="Helvetica,sans-Serif" font-size="10.00">drivers/axi_core/jesd204</text>
<text text-anchor="middle" x="294" y="-144.5" font-family="Helvetica,sans-Serif" font-size="10.00">/jesd204_clk.h</text>
</a>
</g>
</g>
<!-- Node1&#45;&gt;Node3 -->
<g id="edge2_Node000001_Node000003" class="edge">
<title>Node1&#45;&gt;Node3</title>
<g id="a_edge2_Node000001_Node000003"><a xlink:title=" ">
<path fill="none" stroke="#63b8ff" d="M1210.59,-223.41C1052.08,-223.2 682.49,-217.47 376,-173 366.59,-171.63 356.67,-169.7 347.11,-167.59"/>
<polygon fill="#63b8ff" stroke="#63b8ff" points="1210.72,-226.91 1220.73,-223.41 1210.73,-219.91 1210.72,-226.91"/>
</a>
</g>
</g>
<!-- Node5 -->
<g id="Node000005" class="node">
<title>Node5</title>
<g id="a_Node000005"><a xlink:href="ad9081_2src_2app__jesd_8c.html" target="_top" xlink:title="Application JESD setup.">
<polygon fill="white" stroke="#666666" points="112,-96 0,-96 0,-66 112,-66 112,-96"/>
<text text-anchor="start" x="8" y="-84" font-family="Helvetica,sans-Serif" font-size="10.00">projects/ad9081/src</text>
<text text-anchor="middle" x="56" y="-73" font-family="Helvetica,sans-Serif" font-size="10.00">/app_jesd.c</text>
</a>
</g>
</g>
<!-- Node1&#45;&gt;Node5 -->
<g id="edge11_Node000001_Node000005" class="edge">
<title>Node1&#45;&gt;Node5</title>
<g id="a_edge11_Node000001_Node000005"><a xlink:title=" ">
<path fill="none" stroke="#63b8ff" d="M1210.72,-222.75C978.86,-221.55 306.28,-214.48 217,-173 194.47,-162.53 199.44,-146.13 179,-132 156.24,-116.27 127.8,-104.3 103.99,-96.03"/>
<polygon fill="#63b8ff" stroke="#63b8ff" points="1210.75,-226.25 1220.76,-222.8 1210.78,-219.25 1210.75,-226.25"/>
</a>
</g>
</g>
<!-- Node9 -->
<g id="Node000009" class="node">
<title>Node9</title>
<g id="a_Node000009"><a xlink:href="fmcdaq2_8c.html" target="_top" xlink:title="Implementation of Main Function.">
<polygon fill="white" stroke="#666666" points="571.5,-96 452.5,-96 452.5,-66 571.5,-66 571.5,-96"/>
<text text-anchor="start" x="460.5" y="-84" font-family="Helvetica,sans-Serif" font-size="10.00">projects/fmcdaq2/src</text>
<text text-anchor="middle" x="512" y="-73" font-family="Helvetica,sans-Serif" font-size="10.00">/app/fmcdaq2.c</text>
</a>
</g>
</g>
<!-- Node1&#45;&gt;Node9 -->
<g id="edge27_Node000001_Node000009" class="edge">
<title>Node1&#45;&gt;Node9</title>
<g id="a_edge27_Node000001_Node000009"><a xlink:title=" ">
<path fill="none" stroke="#63b8ff" d="M1210.95,-221.44C1000.68,-216.87 436.34,-201.93 409,-173 396.49,-159.75 399.33,-147.44 409,-132 419.65,-114.98 437.93,-103.61 456.16,-96.08"/>
<polygon fill="#63b8ff" stroke="#63b8ff" points="1210.92,-224.94 1220.99,-221.66 1211.07,-217.94 1210.92,-224.94"/>
</a>
</g>
</g>
<!-- Node10 -->
<g id="Node000010" class="node">
<title>Node10</title>
<g id="a_Node000010"><a xlink:href="ad9081_2src_2app_8c.html" target="_top" xlink:title="AD9081 application example.">
<polygon fill="white" stroke="#666666" points="530,-167.5 418,-167.5 418,-137.5 530,-137.5 530,-167.5"/>
<text text-anchor="start" x="426" y="-155.5" font-family="Helvetica,sans-Serif" font-size="10.00">projects/ad9081/src</text>
<text text-anchor="middle" x="474" y="-144.5" font-family="Helvetica,sans-Serif" font-size="10.00">/app.c</text>
</a>
</g>
</g>
<!-- Node1&#45;&gt;Node10 -->
<g id="edge10_Node000001_Node000010" class="edge">
<title>Node1&#45;&gt;Node10</title>
<g id="a_edge10_Node000001_Node000010"><a xlink:title=" ">
<path fill="none" stroke="#63b8ff" d="M1210.89,-223.54C1073.76,-223.22 781.25,-216.84 539,-173 531.46,-171.64 523.56,-169.71 515.97,-167.59"/>
<polygon fill="#63b8ff" stroke="#63b8ff" points="1210.89,-227.04 1220.89,-223.55 1210.9,-220.04 1210.89,-227.04"/>
</a>
</g>
</g>
<!-- Node11 -->
<g id="Node000011" class="node">
<title>Node11</title>
<g id="a_Node000011"><a xlink:href="ad9172_2src_2main_8c.html" target="_top" xlink:title="Implementation of Main Function.">
<polygon fill="white" stroke="#666666" points="660,-167.5 548,-167.5 548,-137.5 660,-137.5 660,-167.5"/>
<text text-anchor="start" x="556" y="-155.5" font-family="Helvetica,sans-Serif" font-size="10.00">projects/ad9172/src</text>
<text text-anchor="middle" x="604" y="-144.5" font-family="Helvetica,sans-Serif" font-size="10.00">/main.c</text>
</a>
</g>
</g>
<!-- Node1&#45;&gt;Node11 -->
<g id="edge12_Node000001_Node000011" class="edge">
<title>Node1&#45;&gt;Node11</title>
<g id="a_edge12_Node000001_Node000011"><a xlink:title=" ">
<path fill="none" stroke="#63b8ff" d="M1210.9,-221.97C1092.66,-219.22 861.58,-209.23 669,-173 661.47,-171.58 653.58,-169.63 645.99,-167.5"/>
<polygon fill="#63b8ff" stroke="#63b8ff" points="1210.87,-225.47 1220.95,-222.19 1211.03,-218.47 1210.87,-225.47"/>
</a>
</g>
</g>
<!-- Node12 -->
<g id="Node000012" class="node">
<title>Node12</title>
<g id="a_Node000012"><a xlink:href="ad9371_2src_2app_2headless_8c.html" target="_top" xlink:title="Implementation of Main Function.">
<polygon fill="white" stroke="#666666" points="790,-167.5 678,-167.5 678,-137.5 790,-137.5 790,-167.5"/>
<text text-anchor="start" x="686" y="-155.5" font-family="Helvetica,sans-Serif" font-size="10.00">projects/ad9371/src</text>
<text text-anchor="middle" x="734" y="-144.5" font-family="Helvetica,sans-Serif" font-size="10.00">/app/headless.c</text>
</a>
</g>
</g>
<!-- Node1&#45;&gt;Node12 -->
<g id="edge13_Node000001_Node000012" class="edge">
<title>Node1&#45;&gt;Node12</title>
<g id="a_edge13_Node000001_Node000012"><a xlink:title=" ">
<path fill="none" stroke="#63b8ff" d="M1210.57,-219.59C1113.24,-214.3 942.57,-201.59 799,-173 791.72,-171.55 784.09,-169.63 776.72,-167.57"/>
<polygon fill="#63b8ff" stroke="#63b8ff" points="1210.45,-223.09 1220.62,-220.12 1210.82,-216.1 1210.45,-223.09"/>
</a>
</g>
</g>
<!-- Node13 -->
<g id="Node000013" class="node">
<title>Node13</title>
<g id="a_Node000013"><a xlink:href="adrv9009_2src_2app_2app__jesd_8c.html" target="_top" xlink:title="JESD setup and initialization routines.">
<polygon fill="white" stroke="#666666" points="930,-167.5 808,-167.5 808,-137.5 930,-137.5 930,-167.5"/>
<text text-anchor="start" x="816" y="-155.5" font-family="Helvetica,sans-Serif" font-size="10.00">projects/adrv9009/src</text>
<text text-anchor="middle" x="869" y="-144.5" font-family="Helvetica,sans-Serif" font-size="10.00">/app/app_jesd.c</text>
</a>
</g>
</g>
<!-- Node1&#45;&gt;Node13 -->
<g id="edge14_Node000001_Node000013" class="edge">
<title>Node1&#45;&gt;Node13</title>
<g id="a_edge14_Node000001_Node000013"><a xlink:title=" ">
<path fill="none" stroke="#63b8ff" d="M1210.55,-214.74C1139.28,-206.55 1031.47,-192.4 939,-173 931.59,-171.45 923.81,-169.55 916.24,-167.56"/>
<polygon fill="#63b8ff" stroke="#63b8ff" points="1210.46,-218.26 1220.79,-215.91 1211.25,-211.3 1210.46,-218.26"/>
</a>
</g>
</g>
<!-- Node14 -->
<g id="Node000014" class="node">
<title>Node14</title>
<g id="a_Node000014"><a xlink:href="app__talise_8c.html" target="_top" xlink:title="Talise initialization and control routines.">
<polygon fill="white" stroke="#666666" points="1070,-167.5 948,-167.5 948,-137.5 1070,-137.5 1070,-167.5"/>
<text text-anchor="start" x="956" y="-155.5" font-family="Helvetica,sans-Serif" font-size="10.00">projects/adrv9009/src</text>
<text text-anchor="middle" x="1009" y="-144.5" font-family="Helvetica,sans-Serif" font-size="10.00">/app/app_talise.c</text>
</a>
</g>
</g>
<!-- Node1&#45;&gt;Node14 -->
<g id="edge15_Node000001_Node000014" class="edge">
<title>Node1&#45;&gt;Node14</title>
<g id="a_edge15_Node000001_Node000014"><a xlink:title=" ">
<path fill="none" stroke="#63b8ff" d="M1217.46,-206.67C1176.77,-197.21 1124.93,-184.86 1079,-173 1072.4,-171.3 1065.48,-169.44 1058.65,-167.58"/>
<polygon fill="#63b8ff" stroke="#63b8ff" points="1216.75,-210.1 1227.28,-208.95 1218.33,-203.29 1216.75,-210.1"/>
</a>
</g>
</g>
<!-- Node15 -->
<g id="Node000015" class="node">
<title>Node15</title>
<g id="a_Node000015"><a xlink:href="headless__mb_8c.html" target="_top" xlink:title="Contains example code for user integration with their application. This file contains code for MicroB...">
<polygon fill="white" stroke="#666666" points="1210,-167.5 1088,-167.5 1088,-137.5 1210,-137.5 1210,-167.5"/>
<text text-anchor="start" x="1096" y="-155.5" font-family="Helvetica,sans-Serif" font-size="10.00">projects/adrv9009/src</text>
<text text-anchor="middle" x="1149" y="-144.5" font-family="Helvetica,sans-Serif" font-size="10.00">/app/headless_mb.c</text>
</a>
</g>
</g>
<!-- Node1&#45;&gt;Node15 -->
<g id="edge16_Node000001_Node000015" class="edge">
<title>Node1&#45;&gt;Node15</title>
<g id="a_edge16_Node000001_Node000015"><a xlink:title=" ">
<path fill="none" stroke="#63b8ff" d="M1251.42,-204.34C1228.1,-192.77 1198.63,-178.14 1177.29,-167.54"/>
<polygon fill="#63b8ff" stroke="#63b8ff" points="1250.16,-207.62 1260.67,-208.94 1253.27,-201.35 1250.16,-207.62"/>
</a>
</g>
</g>
<!-- Node16 -->
<g id="Node000016" class="node">
<title>Node16</title>
<g id="a_Node000016"><a xlink:href="headless__zu_8c.html" target="_top" xlink:title="Contains example code for user integration with their application. This file contains code for ZU11EG...">
<polygon fill="white" stroke="#666666" points="1350,-167.5 1228,-167.5 1228,-137.5 1350,-137.5 1350,-167.5"/>
<text text-anchor="start" x="1236" y="-155.5" font-family="Helvetica,sans-Serif" font-size="10.00">projects/adrv9009/src</text>
<text text-anchor="middle" x="1289" y="-144.5" font-family="Helvetica,sans-Serif" font-size="10.00">/app/headless_zu.c</text>
</a>
</g>
</g>
<!-- Node1&#45;&gt;Node16 -->
<g id="edge17_Node000001_Node000016" class="edge">
<title>Node1&#45;&gt;Node16</title>
<g id="a_edge17_Node000001_Node000016"><a xlink:title=" ">
<path fill="none" stroke="#63b8ff" d="M1289,-198.75C1289,-188.31 1289,-176.49 1289,-167.54"/>
<polygon fill="#63b8ff" stroke="#63b8ff" points="1285.5,-198.94 1289,-208.94 1292.5,-198.94 1285.5,-198.94"/>
</a>
</g>
</g>
<!-- Node17 -->
<g id="Node000017" class="node">
<title>Node17</title>
<g id="a_Node000017"><a xlink:href="adrv902x_2src_2examples_2basic__example_2basic__example_8c.html" target="_top" xlink:title="Basic example for the adrv902x project.">
<polygon fill="white" stroke="#666666" points="1512,-173 1368,-173 1368,-132 1512,-132 1512,-173"/>
<text text-anchor="start" x="1376" y="-161" font-family="Helvetica,sans-Serif" font-size="10.00">projects/adrv902x/src</text>
<text text-anchor="start" x="1376" y="-150" font-family="Helvetica,sans-Serif" font-size="10.00">/examples/basic_example</text>
<text text-anchor="middle" x="1440" y="-139" font-family="Helvetica,sans-Serif" font-size="10.00">/basic_example.c</text>
</a>
</g>
</g>
<!-- Node1&#45;&gt;Node17 -->
<g id="edge18_Node000001_Node000017" class="edge">
<title>Node1&#45;&gt;Node17</title>
<g id="a_edge18_Node000001_Node000017"><a xlink:title=" ">
<path fill="none" stroke="#63b8ff" d="M1328.89,-204.64C1350.02,-194.92 1375.97,-182.97 1397.47,-173.07"/>
<polygon fill="#63b8ff" stroke="#63b8ff" points="1327.18,-201.58 1319.56,-208.94 1330.1,-207.93 1327.18,-201.58"/>
</a>
</g>
</g>
<!-- Node18 -->
<g id="Node000018" class="node">
<title>Node18</title>
<g id="a_Node000018"><a xlink:href="adrv902x_2src_2examples_2dma__example_2dma__example_8c.html" target="_top" xlink:title="DMA example for the adrv902x project.">
<polygon fill="white" stroke="#666666" points="1670,-173 1530,-173 1530,-132 1670,-132 1670,-173"/>
<text text-anchor="start" x="1538" y="-161" font-family="Helvetica,sans-Serif" font-size="10.00">projects/adrv902x/src</text>
<text text-anchor="start" x="1538" y="-150" font-family="Helvetica,sans-Serif" font-size="10.00">/examples/dma_example</text>
<text text-anchor="middle" x="1600" y="-139" font-family="Helvetica,sans-Serif" font-size="10.00">/dma_example.c</text>
</a>
</g>
</g>
<!-- Node1&#45;&gt;Node18 -->
<g id="edge19_Node000001_Node000018" class="edge">
<title>Node1&#45;&gt;Node18</title>
<g id="a_edge19_Node000001_Node000018"><a xlink:title=" ">
<path fill="none" stroke="#63b8ff" d="M1366.64,-206.87C1411.77,-197.34 1469.68,-184.86 1521,-173 1523.89,-172.33 1526.84,-171.64 1529.81,-170.94"/>
<polygon fill="#63b8ff" stroke="#63b8ff" points="1365.69,-203.49 1356.63,-208.98 1367.13,-210.34 1365.69,-203.49"/>
</a>
</g>
</g>
<!-- Node19 -->
<g id="Node000019" class="node">
<title>Node19</title>
<g id="a_Node000019"><a xlink:href="adrv902x_2src_2examples_2iio__example_2iio__example_8c.html" target="_top" xlink:title="IIO example for the adrv902x project.">
<polygon fill="white" stroke="#666666" points="1819.5,-173 1688.5,-173 1688.5,-132 1819.5,-132 1819.5,-173"/>
<text text-anchor="start" x="1696.5" y="-161" font-family="Helvetica,sans-Serif" font-size="10.00">projects/adrv902x/src</text>
<text text-anchor="start" x="1696.5" y="-150" font-family="Helvetica,sans-Serif" font-size="10.00">/examples/iio_example</text>
<text text-anchor="middle" x="1754" y="-139" font-family="Helvetica,sans-Serif" font-size="10.00">/iio_example.c</text>
</a>
</g>
</g>
<!-- Node1&#45;&gt;Node19 -->
<g id="edge20_Node000001_Node000019" class="edge">
<title>Node1&#45;&gt;Node19</title>
<g id="a_edge20_Node000001_Node000019"><a xlink:title=" ">
<path fill="none" stroke="#63b8ff" d="M1367.42,-215.9C1446.51,-208.05 1571.88,-193.71 1679,-173 1682.04,-172.41 1685.14,-171.77 1688.26,-171.1"/>
<polygon fill="#63b8ff" stroke="#63b8ff" points="1366.66,-212.46 1357.05,-216.92 1367.35,-219.42 1366.66,-212.46"/>
</a>
</g>
</g>
<!-- Node20 -->
<g id="Node000020" class="node">
<title>Node20</title>
<g id="a_Node000020"><a xlink:href="adrv903x_2src_2examples_2basic__example_2basic__example_8c.html" target="_top" xlink:title="Basic example for ADRV903X project.">
<polygon fill="white" stroke="#666666" points="1982,-173 1838,-173 1838,-132 1982,-132 1982,-173"/>
<text text-anchor="start" x="1846" y="-161" font-family="Helvetica,sans-Serif" font-size="10.00">projects/adrv903x/src</text>
<text text-anchor="start" x="1846" y="-150" font-family="Helvetica,sans-Serif" font-size="10.00">/examples/basic_example</text>
<text text-anchor="middle" x="1910" y="-139" font-family="Helvetica,sans-Serif" font-size="10.00">/basic_example.c</text>
</a>
</g>
</g>
<!-- Node1&#45;&gt;Node20 -->
<g id="edge21_Node000001_Node000020" class="edge">
<title>Node1&#45;&gt;Node20</title>
<g id="a_edge21_Node000001_Node000020"><a xlink:title=" ">
<path fill="none" stroke="#63b8ff" d="M1367.41,-219.28C1472.9,-213.48 1666.07,-200.01 1829,-173 1831.85,-172.53 1834.76,-172.01 1837.68,-171.46"/>
<polygon fill="#63b8ff" stroke="#63b8ff" points="1366.97,-215.8 1357.17,-219.84 1367.35,-222.79 1366.97,-215.8"/>
</a>
</g>
</g>
<!-- Node21 -->
<g id="Node000021" class="node">
<title>Node21</title>
<g id="a_Node000021"><a xlink:href="adrv903x_2src_2examples_2dma__example_2dma__example_8c.html" target="_top" xlink:title="DMA example for the ADRV903X project.">
<polygon fill="white" stroke="#666666" points="2140,-173 2000,-173 2000,-132 2140,-132 2140,-173"/>
<text text-anchor="start" x="2008" y="-161" font-family="Helvetica,sans-Serif" font-size="10.00">projects/adrv903x/src</text>
<text text-anchor="start" x="2008" y="-150" font-family="Helvetica,sans-Serif" font-size="10.00">/examples/dma_example</text>
<text text-anchor="middle" x="2070" y="-139" font-family="Helvetica,sans-Serif" font-size="10.00">/dma_example.c</text>
</a>
</g>
</g>
<!-- Node1&#45;&gt;Node21 -->
<g id="edge22_Node000001_Node000021" class="edge">
<title>Node1&#45;&gt;Node21</title>
<g id="a_edge22_Node000001_Node000021"><a xlink:title=" ">
<path fill="none" stroke="#63b8ff" d="M1367.48,-221.78C1497.76,-218.77 1766.56,-208.43 1991,-173 1993.93,-172.54 1996.91,-172.02 1999.92,-171.46"/>
<polygon fill="#63b8ff" stroke="#63b8ff" points="1367.12,-218.28 1357.21,-222 1367.28,-225.28 1367.12,-218.28"/>
</a>
</g>
</g>
<!-- Node22 -->
<g id="Node000022" class="node">
<title>Node22</title>
<g id="a_Node000022"><a xlink:href="adrv903x_2src_2examples_2iio__example_2iio__example_8c.html" target="_top" xlink:title="IIO example for the ADRV903X project.">
<polygon fill="white" stroke="#666666" points="2289.5,-173 2158.5,-173 2158.5,-132 2289.5,-132 2289.5,-173"/>
<text text-anchor="start" x="2166.5" y="-161" font-family="Helvetica,sans-Serif" font-size="10.00">projects/adrv903x/src</text>
<text text-anchor="start" x="2166.5" y="-150" font-family="Helvetica,sans-Serif" font-size="10.00">/examples/iio_example</text>
<text text-anchor="middle" x="2224" y="-139" font-family="Helvetica,sans-Serif" font-size="10.00">/iio_example.c</text>
</a>
</g>
</g>
<!-- Node1&#45;&gt;Node22 -->
<g id="edge23_Node000001_Node000022" class="edge">
<title>Node1&#45;&gt;Node22</title>
<g id="a_edge23_Node000001_Node000022"><a xlink:title=" ">
<path fill="none" stroke="#63b8ff" d="M1367.37,-223.57C1519.2,-223.53 1863.59,-217.95 2149,-173 2152.06,-172.52 2155.17,-171.97 2158.3,-171.36"/>
<polygon fill="#63b8ff" stroke="#63b8ff" points="1367.22,-220.07 1357.21,-223.56 1367.21,-227.07 1367.22,-220.07"/>
</a>
</g>
</g>
<!-- Node23 -->
<g id="Node000023" class="node">
<title>Node23</title>
<g id="a_Node000023"><a xlink:href="adrv904x_2src_2examples_2basic__example_2basic__example_8c.html" target="_top" xlink:title="Basic example for the adrv904x project.">
<polygon fill="white" stroke="#666666" points="2452,-173 2308,-173 2308,-132 2452,-132 2452,-173"/>
<text text-anchor="start" x="2316" y="-161" font-family="Helvetica,sans-Serif" font-size="10.00">projects/adrv904x/src</text>
<text text-anchor="start" x="2316" y="-150" font-family="Helvetica,sans-Serif" font-size="10.00">/examples/basic_example</text>
<text text-anchor="middle" x="2380" y="-139" font-family="Helvetica,sans-Serif" font-size="10.00">/basic_example.c</text>
</a>
</g>
</g>
<!-- Node1&#45;&gt;Node23 -->
<g id="edge24_Node000001_Node000023" class="edge">
<title>Node1&#45;&gt;Node23</title>
<g id="a_edge24_Node000001_Node000023"><a xlink:title=" ">
<path fill="none" stroke="#63b8ff" d="M1367.15,-221.02C1571.71,-215.54 2119.46,-198.82 2299,-173 2301.86,-172.59 2304.77,-172.12 2307.71,-171.61"/>
<polygon fill="#63b8ff" stroke="#63b8ff" points="1366.99,-217.52 1357.09,-221.29 1367.18,-224.52 1366.99,-217.52"/>
</a>
</g>
</g>
<!-- Node24 -->
<g id="Node000024" class="node">
<title>Node24</title>
<g id="a_Node000024"><a xlink:href="adrv904x_2src_2examples_2dma__example_2dma__example_8c.html" target="_top" xlink:title="DMA example for the adrv904x project.">
<polygon fill="white" stroke="#666666" points="2610,-173 2470,-173 2470,-132 2610,-132 2610,-173"/>
<text text-anchor="start" x="2478" y="-161" font-family="Helvetica,sans-Serif" font-size="10.00">projects/adrv904x/src</text>
<text text-anchor="start" x="2478" y="-150" font-family="Helvetica,sans-Serif" font-size="10.00">/examples/dma_example</text>
<text text-anchor="middle" x="2540" y="-139" font-family="Helvetica,sans-Serif" font-size="10.00">/dma_example.c</text>
</a>
</g>
</g>
<!-- Node1&#45;&gt;Node24 -->
<g id="edge25_Node000001_Node000024" class="edge">
<title>Node1&#45;&gt;Node24</title>
<g id="a_edge25_Node000001_Node000024"><a xlink:title=" ">
<path fill="none" stroke="#63b8ff" d="M1367.15,-221.7C1593.84,-217.6 2248.93,-203.39 2461,-173 2463.94,-172.58 2466.92,-172.1 2469.93,-171.56"/>
<polygon fill="#63b8ff" stroke="#63b8ff" points="1366.94,-218.2 1357.01,-221.88 1367.07,-225.2 1366.94,-218.2"/>
</a>
</g>
</g>
<!-- Node25 -->
<g id="Node000025" class="node">
<title>Node25</title>
<g id="a_Node000025"><a xlink:href="adrv904x_2src_2examples_2iio__example_2iio__example_8c.html" target="_top" xlink:title="IIO example for the adrv904x project.">
<polygon fill="white" stroke="#666666" points="2759.5,-173 2628.5,-173 2628.5,-132 2759.5,-132 2759.5,-173"/>
<text text-anchor="start" x="2636.5" y="-161" font-family="Helvetica,sans-Serif" font-size="10.00">projects/adrv904x/src</text>
<text text-anchor="start" x="2636.5" y="-150" font-family="Helvetica,sans-Serif" font-size="10.00">/examples/iio_example</text>
<text text-anchor="middle" x="2694" y="-139" font-family="Helvetica,sans-Serif" font-size="10.00">/iio_example.c</text>
</a>
</g>
</g>
<!-- Node1&#45;&gt;Node25 -->
<g id="edge26_Node000001_Node000025" class="edge">
<title>Node1&#45;&gt;Node25</title>
<g id="a_edge26_Node000001_Node000025"><a xlink:title=" ">
<path fill="none" stroke="#63b8ff" d="M1367.7,-222.28C1615.14,-219.66 2375.32,-208.83 2619,-173 2622.06,-172.55 2625.18,-172.02 2628.32,-171.44"/>
<polygon fill="#63b8ff" stroke="#63b8ff" points="1367.32,-218.78 1357.36,-222.39 1367.4,-225.78 1367.32,-218.78"/>
</a>
</g>
</g>
<!-- Node26 -->
<g id="Node000026" class="node">
<title>Node26</title>
<g id="a_Node000026"><a xlink:href="fmcdaq3_8c.html" target="_top" xlink:title="Implementation of Main Function.">
<polygon fill="white" stroke="#666666" points="2896.5,-167.5 2777.5,-167.5 2777.5,-137.5 2896.5,-137.5 2896.5,-167.5"/>
<text text-anchor="start" x="2785.5" y="-155.5" font-family="Helvetica,sans-Serif" font-size="10.00">projects/fmcdaq3/src</text>
<text text-anchor="middle" x="2837" y="-144.5" font-family="Helvetica,sans-Serif" font-size="10.00">/app/fmcdaq3.c</text>
</a>
</g>
</g>
<!-- Node1&#45;&gt;Node26 -->
<g id="edge28_Node000001_Node000026" class="edge">
<title>Node1&#45;&gt;Node26</title>
<g id="a_edge28_Node000001_Node000026"><a xlink:title=" ">
<path fill="none" stroke="#63b8ff" d="M1367.42,-222.89C1632.71,-222.1 2495.22,-216.21 2769,-173 2777.13,-171.72 2785.66,-169.77 2793.83,-167.59"/>
<polygon fill="#63b8ff" stroke="#63b8ff" points="1367.1,-219.39 1357.11,-222.91 1367.12,-226.39 1367.1,-219.39"/>
</a>
</g>
</g>
<!-- Node4 -->
<g id="Node000004" class="node">
<title>Node4</title>
<g id="a_Node000004"><a xlink:href="jesd204__clk_8c.html" target="_top" xlink:title="Analog Devices JESD204 clock.">
<polygon fill="white" stroke="#666666" points="266,-96 130,-96 130,-66 266,-66 266,-96"/>
<text text-anchor="start" x="138" y="-84" font-family="Helvetica,sans-Serif" font-size="10.00">drivers/axi_core/jesd204</text>
<text text-anchor="middle" x="198" y="-73" font-family="Helvetica,sans-Serif" font-size="10.00">/jesd204_clk.c</text>
</a>
</g>
</g>
<!-- Node3&#45;&gt;Node4 -->
<g id="edge3_Node000003_Node000004" class="edge">
<title>Node3&#45;&gt;Node4</title>
<g id="a_edge3_Node000003_Node000004"><a xlink:title=" ">
<path fill="none" stroke="#63b8ff" d="M266.29,-131.44C250.63,-120.1 231.44,-106.21 217.4,-96.04"/>
<polygon fill="#63b8ff" stroke="#63b8ff" points="264.42,-134.41 274.57,-137.44 268.53,-128.74 264.42,-134.41"/>
</a>
</g>
</g>
<!-- Node3&#45;&gt;Node5 -->
<g id="edge4_Node000003_Node000005" class="edge">
<title>Node3&#45;&gt;Node5</title>
<g id="a_edge4_Node000003_Node000005"><a xlink:title=" ">
<path fill="none" stroke="#63b8ff" d="M236.11,-134.59C195.63,-122.78 142.22,-107.18 104.09,-96.04"/>
<polygon fill="#63b8ff" stroke="#63b8ff" points="235.26,-137.99 245.84,-137.44 237.22,-131.27 235.26,-137.99"/>
</a>
</g>
</g>
<!-- Node6 -->
<g id="Node000006" class="node">
<title>Node6</title>
<g id="a_Node000006"><a xlink:href="ad9083_2src_2app__jesd_8c.html" target="_top" xlink:title="Application JESD setup.">
<polygon fill="white" stroke="#666666" points="350,-30 238,-30 238,0 350,0 350,-30"/>
<text text-anchor="start" x="246" y="-18" font-family="Helvetica,sans-Serif" font-size="10.00">projects/ad9083/src</text>
<text text-anchor="middle" x="294" y="-7" font-family="Helvetica,sans-Serif" font-size="10.00">/app_jesd.c</text>
</a>
</g>
</g>
<!-- Node3&#45;&gt;Node6 -->
<g id="edge5_Node000003_Node000006" class="edge">
<title>Node3&#45;&gt;Node6</title>
<g id="a_edge5_Node000003_Node000006"><a xlink:title=" ">
<path fill="none" stroke="#63b8ff" d="M294,-126.98C294,-98.64 294,-52.96 294,-30.05"/>
<polygon fill="#63b8ff" stroke="#63b8ff" points="290.5,-127.26 294,-137.26 297.5,-127.26 290.5,-127.26"/>
</a>
</g>
</g>
<!-- Node7 -->
<g id="Node000007" class="node">
<title>Node7</title>
<g id="a_Node000007"><a xlink:href="ad9083_2src_2app__jesd_8h.html" target="_top" xlink:title="Application JESD initialization.">
<polygon fill="white" stroke="#666666" points="434,-96 322,-96 322,-66 434,-66 434,-96"/>
<text text-anchor="start" x="330" y="-84" font-family="Helvetica,sans-Serif" font-size="10.00">projects/ad9083/src</text>
<text text-anchor="middle" x="378" y="-73" font-family="Helvetica,sans-Serif" font-size="10.00">/app_jesd.h</text>
</a>
</g>
</g>
<!-- Node3&#45;&gt;Node7 -->
<g id="edge6_Node000003_Node000007" class="edge">
<title>Node3&#45;&gt;Node7</title>
<g id="a_edge6_Node000003_Node000007"><a xlink:title=" ">
<path fill="none" stroke="#63b8ff" d="M319.01,-130.81C332.57,-119.59 348.96,-106.02 361.03,-96.04"/>
<polygon fill="#63b8ff" stroke="#63b8ff" points="316.47,-128.36 311,-137.44 320.93,-133.76 316.47,-128.36"/>
</a>
</g>
</g>
<!-- Node3&#45;&gt;Node9 -->
<g id="edge9_Node000003_Node000009" class="edge">
<title>Node3&#45;&gt;Node9</title>
<g id="a_edge9_Node000003_Node000009"><a xlink:title=" ">
<path fill="none" stroke="#63b8ff" d="M347.74,-134.37C384.72,-122.58 433.25,-107.11 467.95,-96.04"/>
<polygon fill="#63b8ff" stroke="#63b8ff" points="346.58,-131.06 338.12,-137.44 348.71,-137.73 346.58,-131.06"/>
</a>
</g>
</g>
<!-- Node7&#45;&gt;Node6 -->
<g id="edge8_Node000007_Node000006" class="edge">
<title>Node7&#45;&gt;Node6</title>
<g id="a_edge8_Node000007_Node000006"><a xlink:title=" ">
<path fill="none" stroke="#63b8ff" d="M351.06,-59.48C338.51,-49.91 323.89,-38.77 312.59,-30.16"/>
<polygon fill="#63b8ff" stroke="#63b8ff" points="349.28,-62.52 359.36,-65.8 353.52,-56.95 349.28,-62.52"/>
</a>
</g>
</g>
<!-- Node8 -->
<g id="Node000008" class="node">
<title>Node8</title>
<g id="a_Node000008"><a xlink:href="ad9083_2src_2app_8c.html" target="_top" xlink:title="AD9083 application example.">
<polygon fill="white" stroke="#666666" points="480,-30 368,-30 368,0 480,0 480,-30"/>
<text text-anchor="start" x="376" y="-18" font-family="Helvetica,sans-Serif" font-size="10.00">projects/ad9083/src</text>
<text text-anchor="middle" x="424" y="-7" font-family="Helvetica,sans-Serif" font-size="10.00">/app.c</text>
</a>
</g>
</g>
<!-- Node7&#45;&gt;Node8 -->
<g id="edge7_Node000007_Node000008" class="edge">
<title>Node7&#45;&gt;Node8</title>
<g id="a_edge7_Node000007_Node000008"><a xlink:title=" ">
<path fill="none" stroke="#63b8ff" d="M394.15,-57.53C400.69,-48.43 408.05,-38.19 413.82,-30.16"/>
<polygon fill="#63b8ff" stroke="#63b8ff" points="391.2,-55.63 388.21,-65.8 396.89,-59.72 391.2,-55.63"/>
</a>
</g>
</g>
</g>
</svg>

<g id="navigator" transform="translate(0 0)" fill="#404254">
  <rect fill="#f2f5e9" fill-opacity="0.5" stroke="#606060" stroke-width=".5" x="0" y="0" width="60" height="60"/>
  <use id="zoomplus" xlink:href="#zoomPlus" x="17" y="9" onmousedown="handleZoom(evt,'in')"/>
  <use id="zoomminus" xlink:href="#zoomMin" x="42" y="9" onmousedown="handleZoom(evt,'out')"/>
  <use id="reset" xlink:href="#resetDef" x="30" y="36" onmousedown="handleReset()"/>
   <use id="arrowup" xlink:href="#arrowUp" x="0" y="0" onmousedown="handlePan(0,-1)"/>
  <use id="arrowright" xlink:href="#arrowRight" x="0" y="0" onmousedown="handlePan(1,0)"/>
  <use id="arrowdown" xlink:href="#arrowDown" x="0" y="0" onmousedown="handlePan(0,1)"/>
  <use id="arrowleft" xlink:href="#arrowLeft" x="0" y="0" onmousedown="handlePan(-1,0)"/>
</g>
<svg viewBox="0 0 15 15" width="100%" height="30px" preserveAspectRatio="xMaxYMin meet">
 <g id="arrow_out" transform="scale(0.3 0.3)">
  <a xlink:href="axi__jesd204__tx_8h__dep__incl_org.svg" target="_base">
   <rect id="button" ry="5" rx="5" y="6" x="6" height="38" width="38"
        fill="#f2f5e9" fill-opacity="0.5" stroke="#606060" stroke-width="1.0"/>
   <path id="arrow"
     d="M 11.500037,31.436501 C 11.940474,20.09759 22.043105,11.32322 32.158766,21.979434 L 37.068811,17.246167 C 37.068811,17.246167 37.088388,32 37.088388,32 L 22.160133,31.978069 C 22.160133,31.978069 26.997745,27.140456 26.997745,27.140456 C 18.528582,18.264221 13.291696,25.230495 11.500037,31.436501 z"
     style="fill:#404040;"/>
  </a>
 </g>
</svg>

<style type='text/css'>
<![CDATA[
[data-mouse-over-selected='false'] { opacity: 0.7; }
[data-mouse-over-selected='true']  { opacity: 1.0; }
]]>
</style>
<script type="application/ecmascript"><![CDATA[
document.addEventListener('DOMContentLoaded', (event) => {
  highlightEdges();
  highlightAdjacentNodes();
});
]]></script>
</svg>
