<?xml version="1.0" encoding="UTF-8" standalone="no"?>
<!DOCTYPE svg PUBLIC "-//W3C//DTD SVG 1.1//EN"
 "http://www.w3.org/Graphics/SVG/1.1/DTD/svg11.dtd">
<!-- Generated by graphviz version 2.43.0 (0)
 -->
<!-- Title: axi_jesd204_rx_status_read Pages: 1 -->
<svg width="393pt" height="212pt"
 viewBox="0.00 0.00 393.00 212.00" xmlns="http://www.w3.org/2000/svg" xmlns:xlink="http://www.w3.org/1999/xlink">

<svg id="main" version="1.1" xmlns="http://www.w3.org/2000/svg" xmlns:xlink="http://www.w3.org/1999/xlink" xml:space="preserve">

<style type="text/css"><![CDATA[
.node, .edge {opacity: 0.7;}
.node.selected, .edge.selected {opacity: 1;}
.edge:hover path { stroke: red; }
.edge:hover polygon { stroke: red; fill: red; }
]]></style>
<script type="application/ecmascript" xlink:href="svg.min.js"/>
<svg id="graph" class="graph">
<g id="graph0" class="graph" transform="scale(1 1) rotate(0) translate(4 208)">
<title>axi_jesd204_rx_status_read</title>
<!-- Node1 -->
<g id="Node000001" class="node">
<title>Node1</title>
<g id="a_Node000001"><a xlink:title="Read status of the JESD204 Receive Peripherial.">
<polygon fill="#999999" stroke="#666666" points="385,-111 233,-111 233,-92 385,-92 385,-111"/>
<text text-anchor="middle" x="309" y="-99" font-family="Helvetica,sans-Serif" font-size="10.00">axi_jesd204_rx_status_read</text>
</a>
</g>
</g>
<!-- Node2 -->
<g id="Node000002" class="node">
<title>Node2</title>
<g id="a_Node000002"><a xlink:href="ad9083_2src_2app__jesd_8c.html#ae6b65d2241caee09b5f6dd0c92aa44f3" target="_top" xlink:title=" ">
<polygon fill="white" stroke="#666666" points="184.5,-204 89.5,-204 89.5,-185 184.5,-185 184.5,-204"/>
<text text-anchor="middle" x="137" y="-192" font-family="Helvetica,sans-Serif" font-size="10.00">app_jesd_status</text>
</a>
</g>
</g>
<!-- Node1&#45;&gt;Node2 -->
<g id="edge1_Node000001_Node000002" class="edge">
<title>Node1&#45;&gt;Node2</title>
<g id="a_edge1_Node000001_Node000002"><a xlink:title=" ">
<path fill="none" stroke="#63b8ff" d="M288.43,-117.39C267.07,-134.08 231.31,-160.13 197,-176.5 190.23,-179.73 182.76,-182.54 175.46,-184.91"/>
<polygon fill="#63b8ff" stroke="#63b8ff" points="290.74,-120.03 296.4,-111.08 286.39,-114.55 290.74,-120.03"/>
</a>
</g>
</g>
<!-- Node4 -->
<g id="Node000004" class="node">
<title>Node4</title>
<g id="a_Node000004"><a xlink:href="adrv902x_2src_2examples_2basic__example_2basic__example_8c.html#ac5f0064cb4ac7ddab3ec02b10217b456" target="_top" xlink:title="Basic example main execution.">
<polygon fill="white" stroke="#666666" points="197,-167 77,-167 77,-148 197,-148 197,-167"/>
<text text-anchor="middle" x="137" y="-155" font-family="Helvetica,sans-Serif" font-size="10.00">basic_example_main</text>
</a>
</g>
</g>
<!-- Node1&#45;&gt;Node4 -->
<g id="edge3_Node000001_Node000004" class="edge">
<title>Node1&#45;&gt;Node4</title>
<g id="a_edge3_Node000001_Node000004"><a xlink:title=" ">
<path fill="none" stroke="#63b8ff" d="M270.99,-114.52C249.45,-122.01 221.76,-131.49 197,-139.5 188.24,-142.34 178.7,-145.3 169.91,-147.98"/>
<polygon fill="#63b8ff" stroke="#63b8ff" points="272.43,-117.73 280.72,-111.13 270.12,-111.12 272.43,-117.73"/>
</a>
</g>
</g>
<!-- Node5 -->
<g id="Node000005" class="node">
<title>Node5</title>
<g id="a_Node000005"><a xlink:href="adrv902x_2src_2examples_2dma__example_2dma__example_8c.html#a6fab3c4f8551a0a277a9058ddb0f1914" target="_top" xlink:title="DMA example main execution.">
<polygon fill="white" stroke="#666666" points="195,-130 79,-130 79,-111 195,-111 195,-130"/>
<text text-anchor="middle" x="137" y="-118" font-family="Helvetica,sans-Serif" font-size="10.00">dma_example_main</text>
</a>
</g>
</g>
<!-- Node1&#45;&gt;Node5 -->
<g id="edge4_Node000001_Node000005" class="edge">
<title>Node1&#45;&gt;Node5</title>
<g id="a_edge4_Node000001_Node000005"><a xlink:title=" ">
<path fill="none" stroke="#63b8ff" d="M222.76,-111.03C213.36,-112.08 203.97,-113.13 195.04,-114.12"/>
<polygon fill="#63b8ff" stroke="#63b8ff" points="223.39,-114.48 232.94,-109.89 222.61,-107.52 223.39,-114.48"/>
</a>
</g>
</g>
<!-- Node7 -->
<g id="Node000007" class="node">
<title>Node7</title>
<g id="a_Node000007"><a xlink:href="adrv902x_2src_2examples_2iio__example_2iio__example_8c.html#a692b15b864d48091dc3d7095bea120b4" target="_top" xlink:title="IIO example main execution.">
<polygon fill="white" stroke="#666666" points="190.5,-93 83.5,-93 83.5,-74 190.5,-74 190.5,-93"/>
<text text-anchor="middle" x="137" y="-81" font-family="Helvetica,sans-Serif" font-size="10.00">iio_example_main</text>
</a>
</g>
</g>
<!-- Node1&#45;&gt;Node7 -->
<g id="edge6_Node000001_Node000007" class="edge">
<title>Node1&#45;&gt;Node7</title>
<g id="a_edge6_Node000001_Node000007"><a xlink:title=" ">
<path fill="none" stroke="#63b8ff" d="M222.89,-92.49C211.93,-91.33 200.97,-90.17 190.74,-89.08"/>
<polygon fill="#63b8ff" stroke="#63b8ff" points="222.63,-95.98 232.94,-93.55 223.36,-89.02 222.63,-95.98"/>
</a>
</g>
</g>
<!-- Node8 -->
<g id="Node000008" class="node">
<title>Node8</title>
<g id="a_Node000008"><a xlink:href="adrv9009_2src_2app_2app__jesd_8c.html#ab5c66fa4fbb9412120bfb13252f519c6" target="_top" xlink:title=" ">
<polygon fill="white" stroke="#666666" points="173,-56 101,-56 101,-37 173,-37 173,-56"/>
<text text-anchor="middle" x="137" y="-44" font-family="Helvetica,sans-Serif" font-size="10.00">jesd_status</text>
</a>
</g>
</g>
<!-- Node1&#45;&gt;Node8 -->
<g id="edge7_Node000001_Node000008" class="edge">
<title>Node1&#45;&gt;Node8</title>
<g id="a_edge7_Node000001_Node000008"><a xlink:title=" ">
<path fill="none" stroke="#63b8ff" d="M268.68,-88.73C247.46,-81.84 220.8,-73.19 197,-65.5 187.48,-62.42 177.09,-59.07 167.72,-56.06"/>
<polygon fill="#63b8ff" stroke="#63b8ff" points="267.73,-92.1 278.32,-91.86 269.89,-85.44 267.73,-92.1"/>
</a>
</g>
</g>
<!-- Node10 -->
<g id="Node000010" class="node">
<title>Node10</title>
<g id="a_Node000010"><a xlink:href="ad6676__ebz_8c.html#a840291bc02cba5474a4cb46a9b9566fe" target="_top" xlink:title="main">
<polygon fill="white" stroke="#666666" points="157.5,-19 116.5,-19 116.5,0 157.5,0 157.5,-19"/>
<text text-anchor="middle" x="137" y="-7" font-family="Helvetica,sans-Serif" font-size="10.00">main</text>
</a>
</g>
</g>
<!-- Node1&#45;&gt;Node10 -->
<g id="edge9_Node000001_Node000010" class="edge">
<title>Node1&#45;&gt;Node10</title>
<g id="a_edge9_Node000001_Node000010"><a xlink:title=" ">
<path fill="none" stroke="#63b8ff" d="M287.61,-85.64C266.07,-69.5 230.64,-44.61 197,-28.5 184.38,-22.46 169.37,-17.65 157.64,-14.39"/>
<polygon fill="#63b8ff" stroke="#63b8ff" points="285.6,-88.51 295.68,-91.77 289.84,-82.94 285.6,-88.51"/>
</a>
</g>
</g>
<!-- Node3 -->
<g id="Node000003" class="node">
<title>Node3</title>
<g id="a_Node000003"><a xlink:href="ad9083_2src_2app_8c.html#a840291bc02cba5474a4cb46a9b9566fe" target="_top" xlink:title="Main application.">
<polygon fill="white" stroke="#666666" points="41,-204 0,-204 0,-185 41,-185 41,-204"/>
<text text-anchor="middle" x="20.5" y="-192" font-family="Helvetica,sans-Serif" font-size="10.00">main</text>
</a>
</g>
</g>
<!-- Node2&#45;&gt;Node3 -->
<g id="edge2_Node000002_Node000003" class="edge">
<title>Node2&#45;&gt;Node3</title>
<g id="a_edge2_Node000002_Node000003"><a xlink:title=" ">
<path fill="none" stroke="#63b8ff" d="M79.06,-194.5C65.43,-194.5 51.77,-194.5 41.18,-194.5"/>
<polygon fill="#63b8ff" stroke="#63b8ff" points="79.43,-198 89.43,-194.5 79.43,-191 79.43,-198"/>
</a>
</g>
</g>
<!-- Node6 -->
<g id="Node000006" class="node">
<title>Node6</title>
<g id="a_Node000006"><a xlink:href="adrv902x_2src_2platform_2xilinx_2main_8c.html#ae66f6b31b5ad750f1fe042a706a4e3d4" target="_top" xlink:title="Main function execution for XILINX platform.">
<polygon fill="white" stroke="#666666" points="41,-130 0,-130 0,-111 41,-111 41,-130"/>
<text text-anchor="middle" x="20.5" y="-118" font-family="Helvetica,sans-Serif" font-size="10.00">main</text>
</a>
</g>
</g>
<!-- Node5&#45;&gt;Node6 -->
<g id="edge5_Node000005_Node000006" class="edge">
<title>Node5&#45;&gt;Node6</title>
<g id="a_edge5_Node000005_Node000006"><a xlink:title=" ">
<path fill="none" stroke="#63b8ff" d="M68.65,-120.5C58.64,-120.5 49.06,-120.5 41.18,-120.5"/>
<polygon fill="#63b8ff" stroke="#63b8ff" points="68.75,-124 78.75,-120.5 68.75,-117 68.75,-124"/>
</a>
</g>
</g>
<!-- Node9 -->
<g id="Node000009" class="node">
<title>Node9</title>
<g id="a_Node000009"><a xlink:href="headless__arm_8c.html#a840291bc02cba5474a4cb46a9b9566fe" target="_top" xlink:title=" ">
<polygon fill="white" stroke="#666666" points="41,-56 0,-56 0,-37 41,-37 41,-56"/>
<text text-anchor="middle" x="20.5" y="-44" font-family="Helvetica,sans-Serif" font-size="10.00">main</text>
</a>
</g>
</g>
<!-- Node8&#45;&gt;Node9 -->
<g id="edge8_Node000008_Node000009" class="edge">
<title>Node8&#45;&gt;Node9</title>
<g id="a_edge8_Node000008_Node000009"><a xlink:title=" ">
<path fill="none" stroke="#63b8ff" d="M90.31,-46.5C73.23,-46.5 54.7,-46.5 41.18,-46.5"/>
<polygon fill="#63b8ff" stroke="#63b8ff" points="90.71,-50 100.71,-46.5 90.71,-43 90.71,-50"/>
</a>
</g>
</g>
</g>
</svg>
</svg>

<style type='text/css'>
<![CDATA[
[data-mouse-over-selected='false'] { opacity: 0.7; }
[data-mouse-over-selected='true']  { opacity: 1.0; }
]]>
</style>
<script type="application/ecmascript"><![CDATA[
document.addEventListener('DOMContentLoaded', (event) => {
  highlightEdges();
  highlightAdjacentNodes();
});
]]></script>
</svg>
