<?xml version="1.0" encoding="UTF-8" standalone="no"?>
<!DOCTYPE svg PUBLIC "-//W3C//DTD SVG 1.1//EN"
 "http://www.w3.org/Graphics/SVG/1.1/DTD/svg11.dtd">
<!-- Generated by graphviz version 2.43.0 (0)
 -->
<!-- Title: DDRAudioWr Pages: 1 -->
<svg width="439pt" height="65pt"
 viewBox="0.00 0.00 439.00 65.00" xmlns="http://www.w3.org/2000/svg" xmlns:xlink="http://www.w3.org/1999/xlink">

<svg id="main" version="1.1" xmlns="http://www.w3.org/2000/svg" xmlns:xlink="http://www.w3.org/1999/xlink" xml:space="preserve">

<style type="text/css"><![CDATA[
.node, .edge {opacity: 0.7;}
.node.selected, .edge.selected {opacity: 1;}
.edge:hover path { stroke: red; }
.edge:hover polygon { stroke: red; fill: red; }
]]></style>
<script type="application/ecmascript" xlink:href="svg.min.js"/>
<svg id="graph" class="graph">
<g id="graph0" class="graph" transform="scale(1 1) rotate(0) translate(4 61)">
<title>DDRAudioWr</title>
<!-- Node1 -->
<g id="Node000001" class="node">
<title>Node1</title>
<g id="a_Node000001"><a xlink:title="DDRAudioWr.">
<polygon fill="#999999" stroke="#666666" points="431,-38 351,-38 351,-19 431,-19 431,-38"/>
<text text-anchor="middle" x="391" y="-26" font-family="Helvetica,sans-Serif" font-size="10.00">DDRAudioWr</text>
</a>
</g>
</g>
<!-- Node2 -->
<g id="Node000002" class="node">
<title>Node2</title>
<g id="a_Node000002"><a xlink:href="cf__hdmi_8c.html#a9bb8fb3f94df3fde09af8c245b707cb1" target="_top" xlink:title="AudioClick.">
<polygon fill="white" stroke="#666666" points="315,-57 247,-57 247,-38 315,-38 315,-57"/>
<text text-anchor="middle" x="281" y="-45" font-family="Helvetica,sans-Serif" font-size="10.00">AudioClick</text>
</a>
</g>
</g>
<!-- Node1&#45;&gt;Node2 -->
<g id="edge1_Node000001_Node000002" class="edge">
<title>Node1&#45;&gt;Node2</title>
<g id="a_edge1_Node000001_Node000002"><a xlink:title=" ">
<path fill="none" stroke="#63b8ff" d="M340.65,-37.18C331.97,-38.71 323.14,-40.26 315.05,-41.69"/>
<polygon fill="#63b8ff" stroke="#63b8ff" points="341.46,-40.59 350.7,-35.41 340.25,-33.7 341.46,-40.59"/>
</a>
</g>
</g>
<!-- Node5 -->
<g id="Node000005" class="node">
<title>Node5</title>
<g id="a_Node000005"><a xlink:href="cf__hdmi_8c.html#ae5c28c3b93d482dbe2de75a9f915cb40" target="_top" xlink:title="InitHdmiAudioPcore.">
<polygon fill="white" stroke="#666666" points="200.5,-19 87.5,-19 87.5,0 200.5,0 200.5,-19"/>
<text text-anchor="middle" x="144" y="-7" font-family="Helvetica,sans-Serif" font-size="10.00">InitHdmiAudioPcore</text>
</a>
</g>
</g>
<!-- Node1&#45;&gt;Node5 -->
<g id="edge4_Node000001_Node000005" class="edge">
<title>Node1&#45;&gt;Node5</title>
<g id="a_edge4_Node000001_Node000005"><a xlink:title=" ">
<path fill="none" stroke="#63b8ff" d="M340.75,-24.68C300.29,-21.54 242.98,-17.1 200.83,-13.83"/>
<polygon fill="#63b8ff" stroke="#63b8ff" points="340.67,-28.18 350.91,-25.47 341.21,-21.21 340.67,-28.18"/>
</a>
</g>
</g>
<!-- Node3 -->
<g id="Node000003" class="node">
<title>Node3</title>
<g id="a_Node000003"><a xlink:href="transmitter_8c.html#ac458d6d563b44d7f6d80dfc347f6c931" target="_top" xlink:title="Main function for polling mode operation. This function should be called periodically (at least every...">
<polygon fill="white" stroke="#666666" points="211,-56 77,-56 77,-37 211,-37 211,-56"/>
<text text-anchor="middle" x="144" y="-44" font-family="Helvetica,sans-Serif" font-size="10.00">ADIAPI_TransmitterMain</text>
</a>
</g>
</g>
<!-- Node2&#45;&gt;Node3 -->
<g id="edge2_Node000002_Node000003" class="edge">
<title>Node2&#45;&gt;Node3</title>
<g id="a_edge2_Node000002_Node000003"><a xlink:title=" ">
<path fill="none" stroke="#63b8ff" d="M236.93,-47.18C228.72,-47.12 219.96,-47.06 211.23,-46.99"/>
<polygon fill="#63b8ff" stroke="#63b8ff" points="236.95,-50.68 246.98,-47.26 237,-43.68 236.95,-50.68"/>
</a>
</g>
</g>
<!-- Node4 -->
<g id="Node000004" class="node">
<title>Node4</title>
<g id="a_Node000004"><a xlink:href="adv7511_2src_2main_8c.html#ae66f6b31b5ad750f1fe042a706a4e3d4" target="_top" xlink:title=" ">
<polygon fill="white" stroke="#666666" points="41,-37 0,-37 0,-18 41,-18 41,-37"/>
<text text-anchor="middle" x="20.5" y="-25" font-family="Helvetica,sans-Serif" font-size="10.00">main</text>
</a>
</g>
</g>
<!-- Node3&#45;&gt;Node4 -->
<g id="edge3_Node000003_Node000004" class="edge">
<title>Node3&#45;&gt;Node4</title>
<g id="a_edge3_Node000003_Node000004"><a xlink:title=" ">
<path fill="none" stroke="#63b8ff" d="M71.9,-35.38C60.62,-33.62 49.83,-31.93 41.15,-30.57"/>
<polygon fill="#63b8ff" stroke="#63b8ff" points="71.47,-38.86 81.89,-36.94 72.55,-31.94 71.47,-38.86"/>
</a>
</g>
</g>
<!-- Node5&#45;&gt;Node4 -->
<g id="edge5_Node000005_Node000004" class="edge">
<title>Node5&#45;&gt;Node4</title>
<g id="a_edge5_Node000005_Node000004"><a xlink:title=" ">
<path fill="none" stroke="#63b8ff" d="M77.17,-19.25C64.05,-21.2 51.25,-23.09 41.23,-24.58"/>
<polygon fill="#63b8ff" stroke="#63b8ff" points="77.85,-22.69 87.23,-17.76 76.82,-15.77 77.85,-22.69"/>
</a>
</g>
</g>
</g>
</svg>
</svg>

<style type='text/css'>
<![CDATA[
[data-mouse-over-selected='false'] { opacity: 0.7; }
[data-mouse-over-selected='true']  { opacity: 1.0; }
]]>
</style>
<script type="application/ecmascript"><![CDATA[
document.addEventListener('DOMContentLoaded', (event) => {
  highlightEdges();
  highlightAdjacentNodes();
});
]]></script>
</svg>
