<?xml version="1.0" encoding="UTF-8" standalone="no"?>
<!DOCTYPE svg PUBLIC "-//W3C//DTD SVG 1.1//EN"
 "http://www.w3.org/Graphics/SVG/1.1/DTD/svg11.dtd">
<!-- Generated by graphviz version 2.43.0 (0)
 -->
<!-- Title: drivers/platform/chibios/chibios_spi.c Pages: 1 -->
<svg width="458pt" height="203pt"
 viewBox="0.00 0.00 458.00 203.00" xmlns="http://www.w3.org/2000/svg" xmlns:xlink="http://www.w3.org/1999/xlink">

<svg id="main" version="1.1" xmlns="http://www.w3.org/2000/svg" xmlns:xlink="http://www.w3.org/1999/xlink" xml:space="preserve">

<style type="text/css"><![CDATA[
.node, .edge {opacity: 0.7;}
.node.selected, .edge.selected {opacity: 1;}
.edge:hover path { stroke: red; }
.edge:hover polygon { stroke: red; fill: red; }
]]></style>
<script type="application/ecmascript" xlink:href="svg.min.js"/>
<svg id="graph" class="graph">
<g id="graph0" class="graph" transform="scale(1 1) rotate(0) translate(4 199)">
<title>drivers/platform/chibios/chibios_spi.c</title>
<!-- Node1 -->
<g id="Node000001" class="node">
<title>Node1</title>
<g id="a_Node000001"><a xlink:title=" ">
<polygon fill="#999999" stroke="#666666" points="274,-195 141,-195 141,-165 274,-165 274,-195"/>
<text text-anchor="start" x="149" y="-183" font-family="Helvetica,sans-Serif" font-size="10.00">drivers/platform/chibios</text>
<text text-anchor="middle" x="207.5" y="-172" font-family="Helvetica,sans-Serif" font-size="10.00">/chibios_spi.c</text>
</a>
</g>
</g>
<!-- Node2 -->
<g id="Node000002" class="node">
<title>Node2</title>
<g id="a_Node000002"><a xlink:title=" ">
<polygon fill="#e0e0e0" stroke="#999999" points="192,-74 139,-74 139,-55 192,-55 192,-74"/>
<text text-anchor="middle" x="165.5" y="-62" font-family="Helvetica,sans-Serif" font-size="10.00">stdlib.h</text>
</a>
</g>
</g>
<!-- Node1&#45;&gt;Node2 -->
<g id="edge1_Node000001_Node000002" class="edge">
<title>Node1&#45;&gt;Node2</title>
<g id="a_edge1_Node000001_Node000002"><a xlink:title=" ">
<path fill="none" stroke="#63b8ff" d="M202.18,-164.63C194.56,-144.03 180.53,-106.12 172.21,-83.63"/>
<polygon fill="#63b8ff" stroke="#63b8ff" points="175.48,-82.39 168.73,-74.23 168.92,-84.82 175.48,-82.39"/>
</a>
</g>
</g>
<!-- Node3 -->
<g id="Node000003" class="node">
<title>Node3</title>
<g id="a_Node000003"><a xlink:href="errno_8h.html" target="_top" xlink:title="Error macro definition for ARM Compiler.">
<polygon fill="white" stroke="#666666" points="144,-129 93,-129 93,-110 144,-110 144,-129"/>
<text text-anchor="middle" x="118.5" y="-117" font-family="Helvetica,sans-Serif" font-size="10.00">errno.h</text>
</a>
</g>
</g>
<!-- Node1&#45;&gt;Node3 -->
<g id="edge2_Node000001_Node000003" class="edge">
<title>Node1&#45;&gt;Node3</title>
<g id="a_edge2_Node000001_Node000003"><a xlink:title=" ">
<path fill="none" stroke="#63b8ff" d="M185.96,-164.84C172.03,-155.68 153.97,-143.82 140.05,-134.66"/>
<polygon fill="#63b8ff" stroke="#63b8ff" points="141.85,-131.66 131.58,-129.09 138.01,-137.51 141.85,-131.66"/>
</a>
</g>
</g>
<!-- Node4 -->
<g id="Node000004" class="node">
<title>Node4</title>
<g id="a_Node000004"><a xlink:href="no__os__util_8h.html" target="_top" xlink:title="Header file of utility functions.">
<polygon fill="white" stroke="#666666" points="75,-129 0,-129 0,-110 75,-110 75,-129"/>
<text text-anchor="middle" x="37.5" y="-117" font-family="Helvetica,sans-Serif" font-size="10.00">no_os_util.h</text>
</a>
</g>
</g>
<!-- Node1&#45;&gt;Node4 -->
<g id="edge3_Node000001_Node000004" class="edge">
<title>Node1&#45;&gt;Node4</title>
<g id="a_edge3_Node000001_Node000004"><a xlink:title=" ">
<path fill="none" stroke="#63b8ff" d="M166.78,-164.99C137.91,-155.05 99.59,-141.86 72.17,-132.43"/>
<polygon fill="#63b8ff" stroke="#63b8ff" points="73.2,-129.08 62.61,-129.14 70.92,-135.7 73.2,-129.08"/>
</a>
</g>
</g>
<!-- Node7 -->
<g id="Node000007" class="node">
<title>Node7</title>
<g id="a_Node000007"><a xlink:href="no__os__spi_8h.html" target="_top" xlink:title="Header file of SPI Interface.">
<polygon fill="white" stroke="#666666" points="352.5,-74 278.5,-74 278.5,-55 352.5,-55 352.5,-74"/>
<text text-anchor="middle" x="315.5" y="-62" font-family="Helvetica,sans-Serif" font-size="10.00">no_os_spi.h</text>
</a>
</g>
</g>
<!-- Node1&#45;&gt;Node7 -->
<g id="edge7_Node000001_Node000007" class="edge">
<title>Node1&#45;&gt;Node7</title>
<g id="a_edge7_Node000001_Node000007"><a xlink:title=" ">
<path fill="none" stroke="#63b8ff" d="M243.8,-165C260.93,-156.79 280.44,-144.87 293.5,-129 304.04,-116.19 309.66,-98.02 312.57,-84.4"/>
<polygon fill="#63b8ff" stroke="#63b8ff" points="316.08,-84.71 314.43,-74.24 309.19,-83.45 316.08,-84.71"/>
</a>
</g>
</g>
<!-- Node8 -->
<g id="Node000008" class="node">
<title>Node8</title>
<g id="a_Node000008"><a xlink:href="no__os__alloc_8h.html" target="_top" xlink:title=" ">
<polygon fill="white" stroke="#666666" points="284,-129 201,-129 201,-110 284,-110 284,-129"/>
<text text-anchor="middle" x="242.5" y="-117" font-family="Helvetica,sans-Serif" font-size="10.00">no_os_alloc.h</text>
</a>
</g>
</g>
<!-- Node1&#45;&gt;Node8 -->
<g id="edge9_Node000001_Node000008" class="edge">
<title>Node1&#45;&gt;Node8</title>
<g id="a_edge9_Node000001_Node000008"><a xlink:title=" ">
<path fill="none" stroke="#63b8ff" d="M215.97,-164.84C220.79,-156.78 226.87,-146.62 232,-138.06"/>
<polygon fill="#63b8ff" stroke="#63b8ff" points="235.12,-139.64 237.26,-129.27 229.12,-136.05 235.12,-139.64"/>
</a>
</g>
</g>
<!-- Node10 -->
<g id="Node000010" class="node">
<title>Node10</title>
<g id="a_Node000010"><a xlink:href="chibios__spi_8h.html" target="_top" xlink:title="Header file for the chibios spi driver.">
<polygon fill="white" stroke="#666666" points="420.5,-129 340.5,-129 340.5,-110 420.5,-110 420.5,-129"/>
<text text-anchor="middle" x="380.5" y="-117" font-family="Helvetica,sans-Serif" font-size="10.00">chibios_spi.h</text>
</a>
</g>
</g>
<!-- Node1&#45;&gt;Node10 -->
<g id="edge12_Node000001_Node000010" class="edge">
<title>Node1&#45;&gt;Node10</title>
<g id="a_edge12_Node000001_Node000010"><a xlink:title=" ">
<path fill="none" stroke="#63b8ff" d="M248.94,-164.99C278.41,-155.02 317.56,-141.78 345.47,-132.35"/>
<polygon fill="#63b8ff" stroke="#63b8ff" points="346.85,-135.57 355.2,-129.05 344.61,-128.94 346.85,-135.57"/>
</a>
</g>
</g>
<!-- Node4&#45;&gt;Node2 -->
<g id="edge5_Node000004_Node000002" class="edge">
<title>Node4&#45;&gt;Node2</title>
<g id="a_edge5_Node000004_Node000002"><a xlink:title=" ">
<path fill="none" stroke="#63b8ff" d="M58.07,-109.98C78.93,-101.34 111.47,-87.87 135.27,-78.02"/>
<polygon fill="#63b8ff" stroke="#63b8ff" points="136.66,-81.23 144.56,-74.17 133.98,-74.76 136.66,-81.23"/>
</a>
</g>
</g>
<!-- Node5 -->
<g id="Node000005" class="node">
<title>Node5</title>
<g id="a_Node000005"><a xlink:title=" ">
<polygon fill="#e0e0e0" stroke="#999999" points="342,-19 289,-19 289,0 342,0 342,-19"/>
<text text-anchor="middle" x="315.5" y="-7" font-family="Helvetica,sans-Serif" font-size="10.00">stdint.h</text>
</a>
</g>
</g>
<!-- Node4&#45;&gt;Node5 -->
<g id="edge4_Node000004_Node000005" class="edge">
<title>Node4&#45;&gt;Node5</title>
<g id="a_edge4_Node000004_Node000005"><a xlink:title=" ">
<path fill="none" stroke="#63b8ff" d="M47.24,-109.93C63.27,-96.27 96.71,-69.62 129.5,-55 178.7,-33.06 240.25,-21.06 278.73,-15.21"/>
<polygon fill="#63b8ff" stroke="#63b8ff" points="279.55,-18.62 288.94,-13.72 278.54,-11.7 279.55,-18.62"/>
</a>
</g>
</g>
<!-- Node6 -->
<g id="Node000006" class="node">
<title>Node6</title>
<g id="a_Node000006"><a xlink:title=" ">
<polygon fill="#e0e0e0" stroke="#999999" points="68.5,-74 6.5,-74 6.5,-55 68.5,-55 68.5,-74"/>
<text text-anchor="middle" x="37.5" y="-62" font-family="Helvetica,sans-Serif" font-size="10.00">stdbool.h</text>
</a>
</g>
</g>
<!-- Node4&#45;&gt;Node6 -->
<g id="edge6_Node000004_Node000006" class="edge">
<title>Node4&#45;&gt;Node6</title>
<g id="a_edge6_Node000004_Node000006"><a xlink:title=" ">
<path fill="none" stroke="#63b8ff" d="M37.5,-109.75C37.5,-102.8 37.5,-92.85 37.5,-84.13"/>
<polygon fill="#63b8ff" stroke="#63b8ff" points="41,-84.09 37.5,-74.09 34,-84.09 41,-84.09"/>
</a>
</g>
</g>
<!-- Node7&#45;&gt;Node5 -->
<g id="edge8_Node000007_Node000005" class="edge">
<title>Node7&#45;&gt;Node5</title>
<g id="a_edge8_Node000007_Node000005"><a xlink:title=" ">
<path fill="none" stroke="#63b8ff" d="M315.5,-54.75C315.5,-47.8 315.5,-37.85 315.5,-29.13"/>
<polygon fill="#63b8ff" stroke="#63b8ff" points="319,-29.09 315.5,-19.09 312,-29.09 319,-29.09"/>
</a>
</g>
</g>
<!-- Node8&#45;&gt;Node2 -->
<g id="edge11_Node000008_Node000002" class="edge">
<title>Node8&#45;&gt;Node2</title>
<g id="a_edge11_Node000008_Node000002"><a xlink:title=" ">
<path fill="none" stroke="#63b8ff" d="M230.13,-109.98C218.41,-101.92 200.58,-89.65 186.61,-80.03"/>
<polygon fill="#63b8ff" stroke="#63b8ff" points="188.32,-76.96 178.1,-74.17 184.35,-82.72 188.32,-76.96"/>
</a>
</g>
</g>
<!-- Node9 -->
<g id="Node000009" class="node">
<title>Node9</title>
<g id="a_Node000009"><a xlink:title=" ">
<polygon fill="#e0e0e0" stroke="#999999" points="260.5,-74 210.5,-74 210.5,-55 260.5,-55 260.5,-74"/>
<text text-anchor="middle" x="235.5" y="-62" font-family="Helvetica,sans-Serif" font-size="10.00">stdio.h</text>
</a>
</g>
</g>
<!-- Node8&#45;&gt;Node9 -->
<g id="edge10_Node000008_Node000009" class="edge">
<title>Node8&#45;&gt;Node9</title>
<g id="a_edge10_Node000008_Node000009"><a xlink:title=" ">
<path fill="none" stroke="#63b8ff" d="M241.34,-109.75C240.43,-102.8 239.11,-92.85 237.96,-84.13"/>
<polygon fill="#63b8ff" stroke="#63b8ff" points="241.41,-83.54 236.63,-74.09 234.47,-84.46 241.41,-83.54"/>
</a>
</g>
</g>
<!-- Node10&#45;&gt;Node5 -->
<g id="edge13_Node000010_Node000005" class="edge">
<title>Node10&#45;&gt;Node5</title>
<g id="a_edge13_Node000010_Node000005"><a xlink:title=" ">
<path fill="none" stroke="#63b8ff" d="M379.32,-109.71C377.28,-96.9 372.26,-72.7 361.5,-55 354.69,-43.81 344.4,-33.48 335.27,-25.6"/>
<polygon fill="#63b8ff" stroke="#63b8ff" points="337.3,-22.74 327.35,-19.1 332.86,-28.15 337.3,-22.74"/>
</a>
</g>
</g>
<!-- Node10&#45;&gt;Node7 -->
<g id="edge14_Node000010_Node000007" class="edge">
<title>Node10&#45;&gt;Node7</title>
<g id="a_edge14_Node000010_Node000007"><a xlink:title=" ">
<path fill="none" stroke="#63b8ff" d="M370.06,-109.98C360.35,-102.07 345.68,-90.11 334,-80.58"/>
<polygon fill="#63b8ff" stroke="#63b8ff" points="336.1,-77.78 326.13,-74.17 331.67,-83.2 336.1,-77.78"/>
</a>
</g>
</g>
<!-- Node11 -->
<g id="Node000011" class="node">
<title>Node11</title>
<g id="a_Node000011"><a xlink:title=" ">
<polygon fill="#e0e0e0" stroke="#999999" points="450,-74 409,-74 409,-55 450,-55 450,-74"/>
<text text-anchor="middle" x="429.5" y="-62" font-family="Helvetica,sans-Serif" font-size="10.00">hal.h</text>
</a>
</g>
</g>
<!-- Node10&#45;&gt;Node11 -->
<g id="edge15_Node000010_Node000011" class="edge">
<title>Node10&#45;&gt;Node11</title>
<g id="a_edge15_Node000010_Node000011"><a xlink:title=" ">
<path fill="none" stroke="#63b8ff" d="M388.59,-109.75C395.66,-102.11 406.09,-90.82 414.65,-81.56"/>
<polygon fill="#63b8ff" stroke="#63b8ff" points="417.34,-83.81 421.56,-74.09 412.2,-79.06 417.34,-83.81"/>
</a>
</g>
</g>
</g>
</svg>
</svg>

<style type='text/css'>
<![CDATA[
[data-mouse-over-selected='false'] { opacity: 0.7; }
[data-mouse-over-selected='true']  { opacity: 1.0; }
]]>
</style>
<script type="application/ecmascript"><![CDATA[
document.addEventListener('DOMContentLoaded', (event) => {
  highlightEdges();
  highlightAdjacentNodes();
});
]]></script>
</svg>
