<?xml version="1.0" encoding="UTF-8" standalone="no"?>
<!DOCTYPE svg PUBLIC "-//W3C//DTD SVG 1.1//EN"
 "http://www.w3.org/Graphics/SVG/1.1/DTD/svg11.dtd">
<!-- Generated by graphviz version 2.43.0 (0)
 -->
<!-- Title: axi_clkgen_remove Pages: 1 -->
<svg width="819pt" height="664pt"
 viewBox="0.00 0.00 819.00 664.00" xmlns="http://www.w3.org/2000/svg" xmlns:xlink="http://www.w3.org/1999/xlink">
<g id="graph0" class="graph" transform="scale(1 1) rotate(0) translate(4 660)">
<title>axi_clkgen_remove</title>
<!-- Node1 -->
<g id="Node000001" class="node">
<title>Node1</title>
<g id="a_Node000001"><a xlink:title="axi_clkgen_remove">
<polygon fill="#999999" stroke="#666666" points="811,-362 699,-362 699,-343 811,-343 811,-362"/>
<text text-anchor="middle" x="755" y="-350" font-family="Helvetica,sans-Serif" font-size="10.00">axi_clkgen_remove</text>
</a>
</g>
</g>
<!-- Node2 -->
<g id="Node000002" class="node">
<title>Node2</title>
<g id="a_Node000002"><a xlink:href="ad463x_8c.html#abc56c626223c4f5ba9812f75491260a5" target="_top" xlink:title="Initialize the device.">
<polygon fill="white" stroke="#666666" points="642,-609 568,-609 568,-590 642,-590 642,-609"/>
<text text-anchor="middle" x="605" y="-597" font-family="Helvetica,sans-Serif" font-size="10.00">ad463x_init</text>
</a>
</g>
</g>
<!-- Node1&#45;&gt;Node2 -->
<g id="edge1_Node000001_Node000002" class="edge">
<title>Node1&#45;&gt;Node2</title>
<g id="a_edge1_Node000001_Node000002"><a xlink:title=" ">
<path fill="none" stroke="#63b8ff" d="M749.66,-372.28C740.05,-412.32 713.71,-504.19 663,-563.5 653.34,-574.8 639.24,-583.75 627.48,-589.9"/>
<polygon fill="#63b8ff" stroke="#63b8ff" points="753.1,-372.97 751.94,-362.43 746.28,-371.39 753.1,-372.97"/>
</a>
</g>
</g>
<!-- Node9 -->
<g id="Node000009" class="node">
<title>Node9</title>
<g id="a_Node000009"><a xlink:href="ad463x_8c.html#a374808fb7455b4797fabf216071869cb" target="_top" xlink:title="Free the memory allocated by ad463x_init().">
<polygon fill="white" stroke="#666666" points="652.5,-646 557.5,-646 557.5,-627 652.5,-627 652.5,-646"/>
<text text-anchor="middle" x="605" y="-634" font-family="Helvetica,sans-Serif" font-size="10.00">ad463x_remove</text>
</a>
</g>
</g>
<!-- Node1&#45;&gt;Node9 -->
<g id="edge9_Node000001_Node000009" class="edge">
<title>Node1&#45;&gt;Node9</title>
<g id="a_edge9_Node000001_Node000009"><a xlink:title=" ">
<path fill="none" stroke="#63b8ff" d="M753.09,-372.26C749.75,-421.16 734.28,-548.89 663,-618.5 659.51,-621.91 655.38,-624.67 650.96,-626.91"/>
<polygon fill="#63b8ff" stroke="#63b8ff" points="756.59,-372.28 753.68,-362.09 749.6,-371.87 756.59,-372.28"/>
</a>
</g>
</g>
<!-- Node10 -->
<g id="Node000010" class="node">
<title>Node10</title>
<g id="a_Node000010"><a xlink:href="ad469x_8c.html#afb4be83cfe5fae9af7ddf637bf2e82c3" target="_top" xlink:title=" ">
<polygon fill="white" stroke="#666666" points="642,-517 568,-517 568,-498 642,-498 642,-517"/>
<text text-anchor="middle" x="605" y="-505" font-family="Helvetica,sans-Serif" font-size="10.00">ad469x_init</text>
</a>
</g>
</g>
<!-- Node1&#45;&gt;Node10 -->
<g id="edge12_Node000001_Node000010" class="edge">
<title>Node1&#45;&gt;Node10</title>
<g id="a_edge12_Node000001_Node000010"><a xlink:title=" ">
<path fill="none" stroke="#63b8ff" d="M744.24,-371.26C729.6,-397.94 699.72,-447.07 663,-478.5 653.55,-486.59 641.46,-493.15 630.85,-497.97"/>
<polygon fill="#63b8ff" stroke="#63b8ff" points="747.45,-372.69 749.09,-362.22 741.28,-369.38 747.45,-372.69"/>
</a>
</g>
</g>
<!-- Node13 -->
<g id="Node000013" class="node">
<title>Node13</title>
<g id="a_Node000013"><a xlink:href="ad469x_8c.html#a3542558ed10a8d3820dbeea607a0e93c" target="_top" xlink:title="Free the memory allocated by ad469x_init().">
<polygon fill="white" stroke="#666666" points="652.5,-554 557.5,-554 557.5,-535 652.5,-535 652.5,-554"/>
<text text-anchor="middle" x="605" y="-542" font-family="Helvetica,sans-Serif" font-size="10.00">ad469x_remove</text>
</a>
</g>
</g>
<!-- Node1&#45;&gt;Node13 -->
<g id="edge15_Node000001_Node000013" class="edge">
<title>Node1&#45;&gt;Node13</title>
<g id="a_edge15_Node000001_Node000013"><a xlink:title=" ">
<path fill="none" stroke="#63b8ff" d="M749.21,-371.74C739.31,-407.51 713.2,-484.44 663,-526.5 658.94,-529.9 654.24,-532.66 649.31,-534.9"/>
<polygon fill="#63b8ff" stroke="#63b8ff" points="752.6,-372.6 751.77,-362.04 745.83,-370.81 752.6,-372.6"/>
</a>
</g>
</g>
<!-- Node14 -->
<g id="Node000014" class="node">
<title>Node14</title>
<g id="a_Node000014"><a xlink:href="ad738x_8c.html#a3944843fc3a9a91406fe28a93b2ee785" target="_top" xlink:title="Free the resources allocated by ad738x_init().">
<polygon fill="white" stroke="#666666" points="652.5,-469 557.5,-469 557.5,-450 652.5,-450 652.5,-469"/>
<text text-anchor="middle" x="605" y="-457" font-family="Helvetica,sans-Serif" font-size="10.00">ad738x_remove</text>
</a>
</g>
</g>
<!-- Node1&#45;&gt;Node14 -->
<g id="edge18_Node000001_Node000014" class="edge">
<title>Node1&#45;&gt;Node14</title>
<g id="a_edge18_Node000001_Node000014"><a xlink:title=" ">
<path fill="none" stroke="#63b8ff" d="M737.77,-369.31C720.41,-386.66 691.5,-413.76 663,-432.5 652.75,-439.24 640.56,-445.25 630.09,-449.88"/>
<polygon fill="#63b8ff" stroke="#63b8ff" points="740.36,-371.67 744.89,-362.09 735.38,-366.75 740.36,-371.67"/>
</a>
</g>
</g>
<!-- Node17 -->
<g id="Node000017" class="node">
<title>Node17</title>
<g id="a_Node000017"><a xlink:href="ad7606_8c.html#acb539626bf65185a70700d9a62f036d4" target="_top" xlink:title="Free any resource used by the driver.">
<polygon fill="white" stroke="#666666" points="663,-423 547,-423 547,-404 663,-404 663,-423"/>
<text text-anchor="middle" x="605" y="-411" font-family="Helvetica,sans-Serif" font-size="10.00">ad7606_axi_remove</text>
</a>
</g>
</g>
<!-- Node1&#45;&gt;Node17 -->
<g id="edge22_Node000001_Node000017" class="edge">
<title>Node1&#45;&gt;Node17</title>
<g id="a_edge22_Node000001_Node000017"><a xlink:title=" ">
<path fill="none" stroke="#63b8ff" d="M721.56,-365.87C693.73,-377.34 654.31,-393.59 629.45,-403.83"/>
<polygon fill="#63b8ff" stroke="#63b8ff" points="722.96,-369.08 730.88,-362.03 720.3,-362.61 722.96,-369.08"/>
</a>
</g>
</g>
<!-- Node24 -->
<g id="Node000024" class="node">
<title>Node24</title>
<g id="a_Node000024"><a xlink:href="ad7616_8c.html#ab13a1c4482a2dcd8cee5a5de9476a2c5" target="_top" xlink:title=" ">
<polygon fill="white" stroke="#666666" points="652.5,-367 557.5,-367 557.5,-348 652.5,-348 652.5,-367"/>
<text text-anchor="middle" x="605" y="-355" font-family="Helvetica,sans-Serif" font-size="10.00">ad7616_remove</text>
</a>
</g>
</g>
<!-- Node1&#45;&gt;Node24 -->
<g id="edge31_Node000001_Node000024" class="edge">
<title>Node1&#45;&gt;Node24</title>
<g id="a_edge31_Node000001_Node000024"><a xlink:title=" ">
<path fill="none" stroke="#63b8ff" d="M688.83,-354.7C676.74,-355.11 664.32,-355.53 652.9,-355.92"/>
<polygon fill="#63b8ff" stroke="#63b8ff" points="689.01,-358.2 698.89,-354.36 688.78,-351.2 689.01,-358.2"/>
</a>
</g>
</g>
<!-- Node27 -->
<g id="Node000027" class="node">
<title>Node27</title>
<g id="a_Node000027"><a xlink:href="ad796x_8c.html#abd440e98810ef648a03653bb6ba5046b" target="_top" xlink:title="Remove the device and release resources.">
<polygon fill="white" stroke="#666666" points="652.5,-324 557.5,-324 557.5,-305 652.5,-305 652.5,-324"/>
<text text-anchor="middle" x="605" y="-312" font-family="Helvetica,sans-Serif" font-size="10.00">ad796x_remove</text>
</a>
</g>
</g>
<!-- Node1&#45;&gt;Node27 -->
<g id="edge34_Node000001_Node000027" class="edge">
<title>Node1&#45;&gt;Node27</title>
<g id="a_edge34_Node000001_Node000027"><a xlink:title=" ">
<path fill="none" stroke="#63b8ff" d="M706.83,-340.39C686.21,-335.1 662.39,-328.98 643.08,-324.02"/>
<polygon fill="#63b8ff" stroke="#63b8ff" points="706.1,-343.81 716.65,-342.91 707.84,-337.03 706.1,-343.81"/>
</a>
</g>
</g>
<!-- Node31 -->
<g id="Node000031" class="node">
<title>Node31</title>
<g id="a_Node000031"><a xlink:href="clkgen__routines_8c.html#aa5b95ec560d01d868dea140112df0f85" target="_top" xlink:title="remove axi_clkgen structs.">
<polygon fill="white" stroke="#666666" points="651,-206 559,-206 559,-187 651,-187 651,-206"/>
<text text-anchor="middle" x="605" y="-194" font-family="Helvetica,sans-Serif" font-size="10.00">clkgen_remove</text>
</a>
</g>
</g>
<!-- Node1&#45;&gt;Node31 -->
<g id="edge40_Node000001_Node000031" class="edge">
<title>Node1&#45;&gt;Node31</title>
<g id="a_edge40_Node000001_Node000031"><a xlink:title=" ">
<path fill="none" stroke="#63b8ff" d="M746.24,-333.41C733.32,-303.9 704.61,-247.33 663,-215.5 657.95,-211.63 652.07,-208.53 646.04,-206.05"/>
<polygon fill="#63b8ff" stroke="#63b8ff" points="743.17,-335.11 750.29,-342.95 749.61,-332.38 743.17,-335.11"/>
</a>
</g>
</g>
<!-- Node36 -->
<g id="Node000036" class="node">
<title>Node36</title>
<g id="a_Node000036"><a xlink:href="clkgen__routines_8c.html#a044ace5326bb80c8aaaa7d261c42619f" target="_top" xlink:title="Init and set rates for axi_clkgen components.">
<polygon fill="white" stroke="#666666" points="645.5,-243 564.5,-243 564.5,-224 645.5,-224 645.5,-243"/>
<text text-anchor="middle" x="605" y="-231" font-family="Helvetica,sans-Serif" font-size="10.00">clkgen_setup</text>
</a>
</g>
</g>
<!-- Node1&#45;&gt;Node36 -->
<g id="edge45_Node000001_Node000036" class="edge">
<title>Node1&#45;&gt;Node36</title>
<g id="a_edge45_Node000001_Node000036"><a xlink:title=" ">
<path fill="none" stroke="#63b8ff" d="M734.14,-336.53C702.91,-311.42 643.3,-263.49 617.92,-243.08"/>
<polygon fill="#63b8ff" stroke="#63b8ff" points="732.15,-339.42 742.14,-342.96 736.54,-333.97 732.15,-339.42"/>
</a>
</g>
</g>
<!-- Node37 -->
<g id="Node000037" class="node">
<title>Node37</title>
<g id="a_Node000037"><a xlink:href="adrv9009_2src_2app_2app__clocking_8c.html#a3e4c367a44510658467da3ce7c9e9273" target="_top" xlink:title=" ">
<polygon fill="white" stroke="#666666" points="650,-169 560,-169 560,-150 650,-150 650,-169"/>
<text text-anchor="middle" x="605" y="-157" font-family="Helvetica,sans-Serif" font-size="10.00">clocking_deinit</text>
</a>
</g>
</g>
<!-- Node1&#45;&gt;Node37 -->
<g id="edge49_Node000001_Node000037" class="edge">
<title>Node1&#45;&gt;Node37</title>
<g id="a_edge49_Node000001_Node000037"><a xlink:title=" ">
<path fill="none" stroke="#63b8ff" d="M749.14,-333.34C739.14,-297.69 712.87,-220.96 663,-178.5 658.47,-174.65 653.14,-171.57 647.57,-169.11"/>
<polygon fill="#63b8ff" stroke="#63b8ff" points="745.76,-334.25 751.74,-343 752.53,-332.43 745.76,-334.25"/>
</a>
</g>
</g>
<!-- Node39 -->
<g id="Node000039" class="node">
<title>Node39</title>
<g id="a_Node000039"><a xlink:href="adrv9009_2src_2app_2app__clocking_8c.html#adab63a630c95f109e3b4330b5b0253b6" target="_top" xlink:title=" ">
<polygon fill="white" stroke="#666666" points="644,-132 566,-132 566,-113 644,-113 644,-132"/>
<text text-anchor="middle" x="605" y="-120" font-family="Helvetica,sans-Serif" font-size="10.00">clocking_init</text>
</a>
</g>
</g>
<!-- Node1&#45;&gt;Node39 -->
<g id="edge51_Node000001_Node000039" class="edge">
<title>Node1&#45;&gt;Node39</title>
<g id="a_edge51_Node000001_Node000039"><a xlink:title=" ">
<path fill="none" stroke="#63b8ff" d="M751.05,-333.05C743.77,-291.79 721.15,-194.88 663,-141.5 657.62,-136.56 650.92,-132.9 644.03,-130.19"/>
<polygon fill="#63b8ff" stroke="#63b8ff" points="747.6,-333.63 752.68,-342.92 754.5,-332.49 747.6,-333.63"/>
</a>
</g>
</g>
<!-- Node40 -->
<g id="Node000040" class="node">
<title>Node40</title>
<g id="a_Node000040"><a xlink:href="ad9371_2src_2app_2headless_8c.html#a840291bc02cba5474a4cb46a9b9566fe" target="_top" xlink:title="main">
<polygon fill="white" stroke="#666666" points="625.5,-95 584.5,-95 584.5,-76 625.5,-76 625.5,-95"/>
<text text-anchor="middle" x="605" y="-83" font-family="Helvetica,sans-Serif" font-size="10.00">main</text>
</a>
</g>
</g>
<!-- Node1&#45;&gt;Node40 -->
<g id="edge53_Node000001_Node000040" class="edge">
<title>Node1&#45;&gt;Node40</title>
<g id="a_edge53_Node000001_Node000040"><a xlink:title=" ">
<path fill="none" stroke="#63b8ff" d="M752.43,-332.59C747.69,-286 729.45,-168.99 663,-104.5 652.97,-94.77 637.82,-90.02 625.66,-87.7"/>
<polygon fill="#63b8ff" stroke="#63b8ff" points="748.97,-333.2 753.36,-342.84 755.94,-332.56 748.97,-333.2"/>
</a>
</g>
</g>
<!-- Node41 -->
<g id="Node000041" class="node">
<title>Node41</title>
<g id="a_Node000041"><a xlink:href="pulsar__adc_8c.html#a8ce5f2b49b0250436d202bb90abba68e" target="_top" xlink:title="Free the resources allocated by pulsar_adc_init().">
<polygon fill="white" stroke="#666666" points="661,-57 549,-57 549,-38 661,-38 661,-57"/>
<text text-anchor="middle" x="605" y="-45" font-family="Helvetica,sans-Serif" font-size="10.00">pulsar_adc_remove</text>
</a>
</g>
</g>
<!-- Node1&#45;&gt;Node41 -->
<g id="edge54_Node000001_Node000041" class="edge">
<title>Node1&#45;&gt;Node41</title>
<g id="a_edge54_Node000001_Node000041"><a xlink:title=" ">
<path fill="none" stroke="#63b8ff" d="M753.47,-332.86C751.05,-281.91 737.55,-144.2 663,-67.5 658.76,-63.14 653.52,-59.73 647.94,-57.06"/>
<polygon fill="#63b8ff" stroke="#63b8ff" points="749.98,-333 753.86,-342.86 756.97,-332.74 749.98,-333"/>
</a>
</g>
</g>
<!-- Node3 -->
<g id="Node000003" class="node">
<title>Node3</title>
<g id="a_Node000003"><a xlink:href="ad463x__fmcz_2src_2examples_2basic__example_2basic__example_8c.html#a72943dc9011d36293cb05ca5d7cb6899" target="_top" xlink:title="basic example main execution.">
<polygon fill="white" stroke="#666666" points="511,-656 391,-656 391,-637 511,-637 511,-656"/>
<text text-anchor="middle" x="451" y="-644" font-family="Helvetica,sans-Serif" font-size="10.00">basic_example_main</text>
</a>
</g>
</g>
<!-- Node2&#45;&gt;Node3 -->
<g id="edge2_Node000002_Node000003" class="edge">
<title>Node2&#45;&gt;Node3</title>
<g id="a_edge2_Node000002_Node000003"><a xlink:title=" ">
<path fill="none" stroke="#63b8ff" d="M563.65,-612.14C547.32,-617.24 528.26,-623.17 511,-628.5 502.1,-631.25 492.43,-634.2 483.55,-636.91"/>
<polygon fill="#63b8ff" stroke="#63b8ff" points="564.94,-615.41 573.44,-609.08 562.85,-608.73 564.94,-615.41"/>
</a>
</g>
</g>
<!-- Node5 -->
<g id="Node000005" class="node">
<title>Node5</title>
<g id="a_Node000005"><a xlink:href="ad463x__fmcz_2src_2examples_2iio__example_2iio__example_8c.html#a7d58fb707a91d4615d3bf949fabaa1e2" target="_top" xlink:title="IIO example main execution.">
<polygon fill="white" stroke="#666666" points="504.5,-619 397.5,-619 397.5,-600 504.5,-600 504.5,-619"/>
<text text-anchor="middle" x="451" y="-607" font-family="Helvetica,sans-Serif" font-size="10.00">iio_example_main</text>
</a>
</g>
</g>
<!-- Node2&#45;&gt;Node5 -->
<g id="edge4_Node000002_Node000005" class="edge">
<title>Node2&#45;&gt;Node5</title>
<g id="a_edge4_Node000002_Node000005"><a xlink:title=" ">
<path fill="none" stroke="#63b8ff" d="M557.87,-602.53C541.11,-603.64 522.04,-604.89 504.75,-606.03"/>
<polygon fill="#63b8ff" stroke="#63b8ff" points="558.23,-606.02 567.98,-601.87 557.77,-599.03 558.23,-606.02"/>
</a>
</g>
</g>
<!-- Node4 -->
<g id="Node000004" class="node">
<title>Node4</title>
<g id="a_Node000004"><a xlink:href="ad463x__fmcz_2src_2platform_2stm32_2main_8c.html#ae66f6b31b5ad750f1fe042a706a4e3d4" target="_top" xlink:title="Main function execution for STM32 platform.">
<polygon fill="white" stroke="#666666" points="311,-656 270,-656 270,-637 311,-637 311,-656"/>
<text text-anchor="middle" x="290.5" y="-644" font-family="Helvetica,sans-Serif" font-size="10.00">main</text>
</a>
</g>
</g>
<!-- Node3&#45;&gt;Node4 -->
<g id="edge3_Node000003_Node000004" class="edge">
<title>Node3&#45;&gt;Node4</title>
<g id="a_edge3_Node000003_Node000004"><a xlink:title=" ">
<path fill="none" stroke="#63b8ff" d="M380.95,-646.5C355.52,-646.5 328.66,-646.5 311.09,-646.5"/>
<polygon fill="#63b8ff" stroke="#63b8ff" points="380.98,-650 390.98,-646.5 380.98,-643 380.98,-650"/>
</a>
</g>
</g>
<!-- Node5&#45;&gt;Node4 -->
<g id="edge8_Node000005_Node000004" class="edge">
<title>Node5&#45;&gt;Node4</title>
<g id="a_edge8_Node000005_Node000004"><a xlink:title=" ">
<path fill="none" stroke="#63b8ff" d="M399.27,-621.34C369.23,-628.36 332.88,-636.84 311,-641.95"/>
<polygon fill="#63b8ff" stroke="#63b8ff" points="400.24,-624.71 409.18,-619.03 398.65,-617.89 400.24,-624.71"/>
</a>
</g>
</g>
<!-- Node6 -->
<g id="Node000006" class="node">
<title>Node6</title>
<g id="a_Node000006"><a xlink:href="iio__demo__free_r_t_o_s_2src_2platform_2maxim_2main_8c.html#a24add404325f00727126e8cf06932df2" target="_top" xlink:title="IIOD example task.">
<polygon fill="white" stroke="#666666" points="318.5,-619 262.5,-619 262.5,-600 318.5,-600 318.5,-619"/>
<text text-anchor="middle" x="290.5" y="-607" font-family="Helvetica,sans-Serif" font-size="10.00">iiodTask</text>
</a>
</g>
</g>
<!-- Node5&#45;&gt;Node6 -->
<g id="edge5_Node000005_Node000006" class="edge">
<title>Node5&#45;&gt;Node6</title>
<g id="a_edge5_Node000005_Node000006"><a xlink:title=" ">
<path fill="none" stroke="#63b8ff" d="M387.18,-609.5C363.4,-609.5 337.55,-609.5 318.72,-609.5"/>
<polygon fill="#63b8ff" stroke="#63b8ff" points="387.22,-613 397.22,-609.5 387.22,-606 387.22,-613"/>
</a>
</g>
</g>
<!-- Node7 -->
<g id="Node000007" class="node">
<title>Node7</title>
<g id="a_Node000007"><a xlink:href="iio__demo__free_r_t_o_s_2src_2platform_2maxim_2main_8c.html#afab0d0904f72955eece2f60990b73944" target="_top" xlink:title="Creating iio example with blinking led task.">
<polygon fill="white" stroke="#666666" points="173,-619 94,-619 94,-600 173,-600 173,-619"/>
<text text-anchor="middle" x="133.5" y="-607" font-family="Helvetica,sans-Serif" font-size="10.00">create_tasks</text>
</a>
</g>
</g>
<!-- Node6&#45;&gt;Node7 -->
<g id="edge6_Node000006_Node000007" class="edge">
<title>Node6&#45;&gt;Node7</title>
<g id="a_edge6_Node000006_Node000007"><a xlink:title=" ">
<path fill="none" stroke="#63b8ff" d="M252.05,-609.5C228.18,-609.5 197.32,-609.5 173.21,-609.5"/>
<polygon fill="#63b8ff" stroke="#63b8ff" points="252.15,-613 262.15,-609.5 252.15,-606 252.15,-613"/>
</a>
</g>
</g>
<!-- Node8 -->
<g id="Node000008" class="node">
<title>Node8</title>
<g id="a_Node000008"><a xlink:href="iio__demo__free_r_t_o_s_2src_2platform_2maxim_2main_8c.html#ae66f6b31b5ad750f1fe042a706a4e3d4" target="_top" xlink:title="Main function of iio_demo_freeRTOS project.">
<polygon fill="white" stroke="#666666" points="41,-619 0,-619 0,-600 41,-600 41,-619"/>
<text text-anchor="middle" x="20.5" y="-607" font-family="Helvetica,sans-Serif" font-size="10.00">main</text>
</a>
</g>
</g>
<!-- Node7&#45;&gt;Node8 -->
<g id="edge7_Node000007_Node000008" class="edge">
<title>Node7&#45;&gt;Node8</title>
<g id="a_edge7_Node000007_Node000008"><a xlink:title=" ">
<path fill="none" stroke="#63b8ff" d="M83.77,-609.5C68.77,-609.5 53.11,-609.5 41.24,-609.5"/>
<polygon fill="#63b8ff" stroke="#63b8ff" points="83.99,-613 93.99,-609.5 83.99,-606 83.99,-613"/>
</a>
</g>
</g>
<!-- Node9&#45;&gt;Node3 -->
<g id="edge10_Node000009_Node000003" class="edge">
<title>Node9&#45;&gt;Node3</title>
<g id="a_edge10_Node000009_Node000003"><a xlink:title=" ">
<path fill="none" stroke="#63b8ff" d="M547.02,-640.25C535.27,-641.02 522.87,-641.84 511.05,-642.62"/>
<polygon fill="#63b8ff" stroke="#63b8ff" points="547.41,-643.73 557.15,-639.58 546.95,-636.75 547.41,-643.73"/>
</a>
</g>
</g>
<!-- Node9&#45;&gt;Node5 -->
<g id="edge11_Node000009_Node000005" class="edge">
<title>Node9&#45;&gt;Node5</title>
<g id="a_edge11_Node000009_Node000005"><a xlink:title=" ">
<path fill="none" stroke="#63b8ff" d="M547.17,-626.41C533.19,-623.92 518.29,-621.28 504.53,-618.83"/>
<polygon fill="#63b8ff" stroke="#63b8ff" points="546.7,-629.88 557.15,-628.18 547.92,-622.98 546.7,-629.88"/>
</a>
</g>
</g>
<!-- Node11 -->
<g id="Node000011" class="node">
<title>Node11</title>
<g id="a_Node000011"><a xlink:href="ad469x__evb_2src_2examples_2basic__example_2basic__example_8c.html#a72943dc9011d36293cb05ca5d7cb6899" target="_top" xlink:title="basic example main execution.">
<polygon fill="white" stroke="#666666" points="511,-545 391,-545 391,-526 511,-526 511,-545"/>
<text text-anchor="middle" x="451" y="-533" font-family="Helvetica,sans-Serif" font-size="10.00">basic_example_main</text>
</a>
</g>
</g>
<!-- Node10&#45;&gt;Node11 -->
<g id="edge13_Node000010_Node000011" class="edge">
<title>Node10&#45;&gt;Node11</title>
<g id="a_edge13_Node000010_Node000011"><a xlink:title=" ">
<path fill="none" stroke="#63b8ff" d="M557.68,-516.03C540.59,-519.18 521.12,-522.77 503.58,-526"/>
<polygon fill="#63b8ff" stroke="#63b8ff" points="558.78,-519.39 567.98,-514.14 557.51,-512.51 558.78,-519.39"/>
</a>
</g>
</g>
<!-- Node12 -->
<g id="Node000012" class="node">
<title>Node12</title>
<g id="a_Node000012"><a xlink:href="ad469x__evb_2src_2examples_2iio__example_2iio__example_8c.html#a7d58fb707a91d4615d3bf949fabaa1e2" target="_top" xlink:title="IIO example main execution.">
<polygon fill="white" stroke="#666666" points="504.5,-582 397.5,-582 397.5,-563 504.5,-563 504.5,-582"/>
<text text-anchor="middle" x="451" y="-570" font-family="Helvetica,sans-Serif" font-size="10.00">iio_example_main</text>
</a>
</g>
</g>
<!-- Node10&#45;&gt;Node12 -->
<g id="edge14_Node000010_Node000012" class="edge">
<title>Node10&#45;&gt;Node12</title>
<g id="a_edge14_Node000010_Node000012"><a xlink:title=" ">
<path fill="none" stroke="#63b8ff" d="M559.61,-520.63C555.26,-522.41 550.99,-524.37 547,-526.5 529.13,-536.06 528.99,-545.17 511,-554.5 504.63,-557.8 497.55,-560.61 490.58,-562.96"/>
<polygon fill="#63b8ff" stroke="#63b8ff" points="561.04,-523.83 569.15,-517.03 558.56,-517.28 561.04,-523.83"/>
</a>
</g>
</g>
<!-- Node13&#45;&gt;Node11 -->
<g id="edge16_Node000013_Node000011" class="edge">
<title>Node13&#45;&gt;Node11</title>
<g id="a_edge16_Node000013_Node000011"><a xlink:title=" ">
<path fill="none" stroke="#63b8ff" d="M547.02,-541.13C535.27,-540.43 522.87,-539.7 511.05,-539"/>
<polygon fill="#63b8ff" stroke="#63b8ff" points="546.97,-544.63 557.15,-541.73 547.38,-537.64 546.97,-544.63"/>
</a>
</g>
</g>
<!-- Node13&#45;&gt;Node12 -->
<g id="edge17_Node000013_Node000012" class="edge">
<title>Node13&#45;&gt;Node12</title>
<g id="a_edge17_Node000013_Node000012"><a xlink:title=" ">
<path fill="none" stroke="#63b8ff" d="M547.01,-555C532.81,-557.61 517.65,-560.41 503.72,-562.97"/>
<polygon fill="#63b8ff" stroke="#63b8ff" points="547.95,-558.38 557.15,-553.13 546.69,-551.5 547.95,-558.38"/>
</a>
</g>
</g>
<!-- Node15 -->
<g id="Node000015" class="node">
<title>Node15</title>
<g id="a_Node000015"><a xlink:href="ad738x_8c.html#a5a643687de5deac9b07cf82ee05503d7" target="_top" xlink:title=" ">
<polygon fill="white" stroke="#666666" points="488,-469 414,-469 414,-450 488,-450 488,-469"/>
<text text-anchor="middle" x="451" y="-457" font-family="Helvetica,sans-Serif" font-size="10.00">ad738x_init</text>
</a>
</g>
</g>
<!-- Node14&#45;&gt;Node15 -->
<g id="edge19_Node000014_Node000015" class="edge">
<title>Node14&#45;&gt;Node15</title>
<g id="a_edge19_Node000014_Node000015"><a xlink:title=" ">
<path fill="none" stroke="#63b8ff" d="M547.06,-459.5C527.38,-459.5 505.88,-459.5 488.32,-459.5"/>
<polygon fill="#63b8ff" stroke="#63b8ff" points="547.15,-463 557.15,-459.5 547.15,-456 547.15,-463"/>
</a>
</g>
</g>
<!-- Node16 -->
<g id="Node000016" class="node">
<title>Node16</title>
<g id="a_Node000016"><a xlink:href="ad738x__fmcz_2src_2examples_2basic__example_2basic__example_8c.html#a72943dc9011d36293cb05ca5d7cb6899" target="_top" xlink:title="basic example main execution.">
<polygon fill="white" stroke="#666666" points="350.5,-508 230.5,-508 230.5,-489 350.5,-489 350.5,-508"/>
<text text-anchor="middle" x="290.5" y="-496" font-family="Helvetica,sans-Serif" font-size="10.00">basic_example_main</text>
</a>
</g>
</g>
<!-- Node14&#45;&gt;Node16 -->
<g id="edge21_Node000014_Node000016" class="edge">
<title>Node14&#45;&gt;Node16</title>
<g id="a_edge21_Node000014_Node000016"><a xlink:title=" ">
<path fill="none" stroke="#63b8ff" d="M552.47,-471.09C539.02,-473.82 524.51,-476.51 511,-478.5 457.05,-486.44 395.15,-491.74 350.87,-494.88"/>
<polygon fill="#63b8ff" stroke="#63b8ff" points="553.43,-474.46 562.51,-469 552,-467.61 553.43,-474.46"/>
</a>
</g>
</g>
<!-- Node15&#45;&gt;Node16 -->
<g id="edge20_Node000015_Node000016" class="edge">
<title>Node15&#45;&gt;Node16</title>
<g id="a_edge20_Node000015_Node000016"><a xlink:title=" ">
<path fill="none" stroke="#63b8ff" d="M403.62,-470.91C380.29,-476.65 352.34,-483.53 330.18,-488.98"/>
<polygon fill="#63b8ff" stroke="#63b8ff" points="404.76,-474.24 413.64,-468.45 403.09,-467.44 404.76,-474.24"/>
</a>
</g>
</g>
<!-- Node18 -->
<g id="Node000018" class="node">
<title>Node18</title>
<g id="a_Node000018"><a xlink:href="ad7606_8c.html#a5e05c4559d4085940f4e928d72447f40" target="_top" xlink:title="Free any resource used by the driver.">
<polygon fill="white" stroke="#666666" points="498.5,-432 403.5,-432 403.5,-413 498.5,-413 498.5,-432"/>
<text text-anchor="middle" x="451" y="-420" font-family="Helvetica,sans-Serif" font-size="10.00">ad7606_remove</text>
</a>
</g>
</g>
<!-- Node17&#45;&gt;Node18 -->
<g id="edge23_Node000017_Node000018" class="edge">
<title>Node17&#45;&gt;Node18</title>
<g id="a_edge23_Node000017_Node000018"><a xlink:title=" ">
<path fill="none" stroke="#63b8ff" d="M536.82,-417.48C524.04,-418.23 510.92,-419.01 498.93,-419.72"/>
<polygon fill="#63b8ff" stroke="#63b8ff" points="537.19,-420.96 546.97,-416.88 536.78,-413.97 537.19,-420.96"/>
</a>
</g>
</g>
<!-- Node19 -->
<g id="Node000019" class="node">
<title>Node19</title>
<g id="a_Node000019"><a xlink:href="iio__ad7606_8c.html#a87c852e7f94e7ed5b180c4d6ae11b657" target="_top" xlink:title=" ">
<polygon fill="white" stroke="#666666" points="190,-470 77,-470 77,-451 190,-451 190,-470"/>
<text text-anchor="middle" x="133.5" y="-458" font-family="Helvetica,sans-Serif" font-size="10.00">ad7606_iio_remove</text>
</a>
</g>
</g>
<!-- Node18&#45;&gt;Node19 -->
<g id="edge24_Node000018_Node000019" class="edge">
<title>Node18&#45;&gt;Node19</title>
<g id="a_edge24_Node000018_Node000019"><a xlink:title=" ">
<path fill="none" stroke="#63b8ff" d="M397.76,-434.03C383.91,-436.79 368.93,-439.51 355,-441.5 299.27,-449.45 235.12,-454.52 190.43,-457.41"/>
<polygon fill="#63b8ff" stroke="#63b8ff" points="398.51,-437.45 407.61,-432.03 397.11,-430.59 398.51,-437.45"/>
</a>
</g>
</g>
<!-- Node21 -->
<g id="Node000021" class="node">
<title>Node21</title>
<g id="a_Node000021"><a xlink:href="ad7606_8c.html#a2afb3414c61b03e45af8e3564bcf4e24" target="_top" xlink:title="Initialize the ad7606 device structure.">
<polygon fill="white" stroke="#666666" points="327.5,-432 253.5,-432 253.5,-413 327.5,-413 327.5,-432"/>
<text text-anchor="middle" x="290.5" y="-420" font-family="Helvetica,sans-Serif" font-size="10.00">ad7606_init</text>
</a>
</g>
</g>
<!-- Node18&#45;&gt;Node21 -->
<g id="edge26_Node000018_Node000021" class="edge">
<title>Node18&#45;&gt;Node21</title>
<g id="a_edge26_Node000018_Node000021"><a xlink:title=" ">
<path fill="none" stroke="#63b8ff" d="M393.13,-422.5C371.27,-422.5 346.94,-422.5 327.56,-422.5"/>
<polygon fill="#63b8ff" stroke="#63b8ff" points="393.3,-426 403.3,-422.5 393.3,-419 393.3,-426"/>
</a>
</g>
</g>
<!-- Node23 -->
<g id="Node000023" class="node">
<title>Node23</title>
<g id="a_Node000023"><a xlink:href="ad7606x-fmc_2src_2basic__example_8c.html#a840291bc02cba5474a4cb46a9b9566fe" target="_top" xlink:title="main">
<polygon fill="white" stroke="#666666" points="154,-395 113,-395 113,-376 154,-376 154,-395"/>
<text text-anchor="middle" x="133.5" y="-383" font-family="Helvetica,sans-Serif" font-size="10.00">main</text>
</a>
</g>
</g>
<!-- Node18&#45;&gt;Node23 -->
<g id="edge30_Node000018_Node000023" class="edge">
<title>Node18&#45;&gt;Node23</title>
<g id="a_edge30_Node000018_Node000023"><a xlink:title=" ">
<path fill="none" stroke="#63b8ff" d="M394.56,-411.02C381.62,-408.61 367.86,-406.27 355,-404.5 281.15,-394.35 192.6,-388.67 154.04,-386.52"/>
<polygon fill="#63b8ff" stroke="#63b8ff" points="394.25,-414.52 404.73,-412.95 395.56,-407.65 394.25,-414.52"/>
</a>
</g>
</g>
<!-- Node20 -->
<g id="Node000020" class="node">
<title>Node20</title>
<g id="a_Node000020"><a xlink:href="ad7606x-fmc_2src_2iio__example_8c.html#a840291bc02cba5474a4cb46a9b9566fe" target="_top" xlink:title="main">
<polygon fill="white" stroke="#666666" points="41,-452 0,-452 0,-433 41,-433 41,-452"/>
<text text-anchor="middle" x="20.5" y="-440" font-family="Helvetica,sans-Serif" font-size="10.00">main</text>
</a>
</g>
</g>
<!-- Node19&#45;&gt;Node20 -->
<g id="edge25_Node000019_Node000020" class="edge">
<title>Node19&#45;&gt;Node20</title>
<g id="a_edge25_Node000019_Node000020"><a xlink:title=" ">
<path fill="none" stroke="#63b8ff" d="M66.58,-449.81C57.37,-448.32 48.56,-446.89 41.21,-445.7"/>
<polygon fill="#63b8ff" stroke="#63b8ff" points="66.24,-453.3 76.67,-451.45 67.36,-446.39 66.24,-453.3"/>
</a>
</g>
</g>
<!-- Node22 -->
<g id="Node000022" class="node">
<title>Node22</title>
<g id="a_Node000022"><a xlink:href="iio__ad7606_8c.html#a711196dffba30114293e1db85fd666e1" target="_top" xlink:title="Initialize AD7606 for IIO interfacing.">
<polygon fill="white" stroke="#666666" points="179,-433 88,-433 88,-414 179,-414 179,-433"/>
<text text-anchor="middle" x="133.5" y="-421" font-family="Helvetica,sans-Serif" font-size="10.00">ad7606_iio_init</text>
</a>
</g>
</g>
<!-- Node21&#45;&gt;Node22 -->
<g id="edge27_Node000021_Node000022" class="edge">
<title>Node21&#45;&gt;Node22</title>
<g id="a_edge27_Node000021_Node000022"><a xlink:title=" ">
<path fill="none" stroke="#63b8ff" d="M242.94,-422.8C222.74,-422.93 199.18,-423.08 179.2,-423.21"/>
<polygon fill="#63b8ff" stroke="#63b8ff" points="243.18,-426.3 253.16,-422.73 243.14,-419.3 243.18,-426.3"/>
</a>
</g>
</g>
<!-- Node21&#45;&gt;Node23 -->
<g id="edge29_Node000021_Node000023" class="edge">
<title>Node21&#45;&gt;Node23</title>
<g id="a_edge29_Node000021_Node000023"><a xlink:title=" ">
<path fill="none" stroke="#63b8ff" d="M243.38,-411.49C213.59,-404.38 176.37,-395.5 154.07,-390.17"/>
<polygon fill="#63b8ff" stroke="#63b8ff" points="242.62,-414.91 253.16,-413.83 244.25,-408.1 242.62,-414.91"/>
</a>
</g>
</g>
<!-- Node22&#45;&gt;Node20 -->
<g id="edge28_Node000022_Node000020" class="edge">
<title>Node22&#45;&gt;Node20</title>
<g id="a_edge28_Node000022_Node000020"><a xlink:title=" ">
<path fill="none" stroke="#63b8ff" d="M77.95,-432.84C64.75,-435.1 51.47,-437.37 41.11,-439.14"/>
<polygon fill="#63b8ff" stroke="#63b8ff" points="78.73,-436.26 87.99,-431.12 77.54,-429.36 78.73,-436.26"/>
</a>
</g>
</g>
<!-- Node25 -->
<g id="Node000025" class="node">
<title>Node25</title>
<g id="a_Node000025"><a xlink:href="ad7616_8c.html#a28a5328adc3dd216fad7dbe17b37dfd8" target="_top" xlink:title=" ">
<polygon fill="white" stroke="#666666" points="493.5,-395 408.5,-395 408.5,-376 493.5,-376 493.5,-395"/>
<text text-anchor="middle" x="451" y="-383" font-family="Helvetica,sans-Serif" font-size="10.00">ad7616_setup</text>
</a>
</g>
</g>
<!-- Node24&#45;&gt;Node25 -->
<g id="edge32_Node000024_Node000025" class="edge">
<title>Node24&#45;&gt;Node25</title>
<g id="a_edge32_Node000024_Node000025"><a xlink:title=" ">
<path fill="none" stroke="#63b8ff" d="M546.92,-368.02C529.19,-371.28 510,-374.82 493.54,-377.85"/>
<polygon fill="#63b8ff" stroke="#63b8ff" points="547.95,-371.38 557.15,-366.13 546.69,-364.5 547.95,-371.38"/>
</a>
</g>
</g>
<!-- Node26 -->
<g id="Node000026" class="node">
<title>Node26</title>
<g id="a_Node000026"><a xlink:href="ad7616__sdz_8c.html#a840291bc02cba5474a4cb46a9b9566fe" target="_top" xlink:title="main">
<polygon fill="white" stroke="#666666" points="311,-356 270,-356 270,-337 311,-337 311,-356"/>
<text text-anchor="middle" x="290.5" y="-344" font-family="Helvetica,sans-Serif" font-size="10.00">main</text>
</a>
</g>
</g>
<!-- Node25&#45;&gt;Node26 -->
<g id="edge33_Node000025_Node000026" class="edge">
<title>Node25&#45;&gt;Node26</title>
<g id="a_edge33_Node000025_Node000026"><a xlink:title=" ">
<path fill="none" stroke="#63b8ff" d="M401.23,-373.5C370.87,-366.03 333.46,-356.82 311.1,-351.32"/>
<polygon fill="#63b8ff" stroke="#63b8ff" points="400.68,-376.97 411.23,-375.96 402.35,-370.17 400.68,-376.97"/>
</a>
</g>
</g>
<!-- Node28 -->
<g id="Node000028" class="node">
<title>Node28</title>
<g id="a_Node000028"><a xlink:href="ad796x_8c.html#ac6aabcda52a1f725b70d93a6855e6aef" target="_top" xlink:title="Initialize the device.">
<polygon fill="white" stroke="#666666" points="488,-319 414,-319 414,-300 488,-300 488,-319"/>
<text text-anchor="middle" x="451" y="-307" font-family="Helvetica,sans-Serif" font-size="10.00">ad796x_init</text>
</a>
</g>
</g>
<!-- Node27&#45;&gt;Node28 -->
<g id="edge35_Node000027_Node000028" class="edge">
<title>Node27&#45;&gt;Node28</title>
<g id="a_edge35_Node000027_Node000028"><a xlink:title=" ">
<path fill="none" stroke="#63b8ff" d="M547.06,-312.63C527.38,-311.98 505.88,-311.27 488.32,-310.69"/>
<polygon fill="#63b8ff" stroke="#63b8ff" points="547.05,-316.13 557.15,-312.96 547.28,-309.13 547.05,-316.13"/>
</a>
</g>
</g>
<!-- Node29 -->
<g id="Node000029" class="node">
<title>Node29</title>
<g id="a_Node000029"><a xlink:href="ad796x__fmcz_2src_2examples_2basic__example_2basic__example_8c.html#a72943dc9011d36293cb05ca5d7cb6899" target="_top" xlink:title="BASIC example main execution.">
<polygon fill="white" stroke="#666666" points="350.5,-319 230.5,-319 230.5,-300 350.5,-300 350.5,-319"/>
<text text-anchor="middle" x="290.5" y="-307" font-family="Helvetica,sans-Serif" font-size="10.00">basic_example_main</text>
</a>
</g>
</g>
<!-- Node27&#45;&gt;Node29 -->
<g id="edge38_Node000027_Node000029" class="edge">
<title>Node27&#45;&gt;Node29</title>
<g id="a_edge38_Node000027_Node000029"><a xlink:title=" ">
<path fill="none" stroke="#63b8ff" d="M547.43,-324.39C535.44,-326.1 522.83,-327.61 511,-328.5 457.82,-332.48 444.1,-333.52 391,-328.5 371.39,-326.64 349.89,-322.78 331.92,-319.01"/>
<polygon fill="#63b8ff" stroke="#63b8ff" points="547.94,-327.86 557.32,-322.92 546.91,-320.93 547.94,-327.86"/>
</a>
</g>
</g>
<!-- Node30 -->
<g id="Node000030" class="node">
<title>Node30</title>
<g id="a_Node000030"><a xlink:href="ad796x__fmcz_2src_2examples_2iio__example_2iio__example_8c.html#a7d58fb707a91d4615d3bf949fabaa1e2" target="_top" xlink:title="IIO example main execution.">
<polygon fill="white" stroke="#666666" points="344,-282 237,-282 237,-263 344,-263 344,-282"/>
<text text-anchor="middle" x="290.5" y="-270" font-family="Helvetica,sans-Serif" font-size="10.00">iio_example_main</text>
</a>
</g>
</g>
<!-- Node27&#45;&gt;Node30 -->
<g id="edge39_Node000027_Node000030" class="edge">
<title>Node27&#45;&gt;Node30</title>
<g id="a_edge39_Node000027_Node000030"><a xlink:title=" ">
<path fill="none" stroke="#63b8ff" d="M560.8,-302.33C545.22,-298.33 527.42,-294.22 511,-291.5 454.4,-282.11 388.77,-277.2 344.12,-274.75"/>
<polygon fill="#63b8ff" stroke="#63b8ff" points="560.13,-305.77 570.69,-304.92 561.9,-299 560.13,-305.77"/>
</a>
</g>
</g>
<!-- Node28&#45;&gt;Node29 -->
<g id="edge36_Node000028_Node000029" class="edge">
<title>Node28&#45;&gt;Node29</title>
<g id="a_edge36_Node000028_Node000029"><a xlink:title=" ">
<path fill="none" stroke="#63b8ff" d="M403.19,-309.5C386.73,-309.5 368.02,-309.5 350.68,-309.5"/>
<polygon fill="#63b8ff" stroke="#63b8ff" points="403.64,-313 413.64,-309.5 403.64,-306 403.64,-313"/>
</a>
</g>
</g>
<!-- Node28&#45;&gt;Node30 -->
<g id="edge37_Node000028_Node000030" class="edge">
<title>Node28&#45;&gt;Node30</title>
<g id="a_edge37_Node000028_Node000030"><a xlink:title=" ">
<path fill="none" stroke="#63b8ff" d="M403.62,-298.67C381.07,-293.41 354.21,-287.14 332.44,-282.06"/>
<polygon fill="#63b8ff" stroke="#63b8ff" points="403.1,-302.15 413.64,-301.01 404.69,-295.33 403.1,-302.15"/>
</a>
</g>
</g>
<!-- Node32 -->
<g id="Node000032" class="node">
<title>Node32</title>
<g id="a_Node000032"><a xlink:href="adrv902x_2src_2examples_2basic__example_2basic__example_8c.html#ac5f0064cb4ac7ddab3ec02b10217b456" target="_top" xlink:title="Basic example main execution.">
<polygon fill="white" stroke="#666666" points="511,-206 391,-206 391,-187 511,-187 511,-206"/>
<text text-anchor="middle" x="451" y="-194" font-family="Helvetica,sans-Serif" font-size="10.00">basic_example_main</text>
</a>
</g>
</g>
<!-- Node31&#45;&gt;Node32 -->
<g id="edge41_Node000031_Node000032" class="edge">
<title>Node31&#45;&gt;Node32</title>
<g id="a_edge41_Node000031_Node000032"><a xlink:title=" ">
<path fill="none" stroke="#63b8ff" d="M548.74,-196.5C536.51,-196.5 523.49,-196.5 511.11,-196.5"/>
<polygon fill="#63b8ff" stroke="#63b8ff" points="548.81,-200 558.81,-196.5 548.81,-193 548.81,-200"/>
</a>
</g>
</g>
<!-- Node33 -->
<g id="Node000033" class="node">
<title>Node33</title>
<g id="a_Node000033"><a xlink:href="dma__example_8c.html#a6fab3c4f8551a0a277a9058ddb0f1914" target="_top" xlink:title="DMA example main execution.">
<polygon fill="white" stroke="#666666" points="509,-169 393,-169 393,-150 509,-150 509,-169"/>
<text text-anchor="middle" x="451" y="-157" font-family="Helvetica,sans-Serif" font-size="10.00">dma_example_main</text>
</a>
</g>
</g>
<!-- Node31&#45;&gt;Node33 -->
<g id="edge42_Node000031_Node000033" class="edge">
<title>Node31&#45;&gt;Node33</title>
<g id="a_edge42_Node000031_Node000033"><a xlink:title=" ">
<path fill="none" stroke="#63b8ff" d="M555.01,-184.57C534.39,-179.56 510.72,-173.79 491.28,-169.06"/>
<polygon fill="#63b8ff" stroke="#63b8ff" points="554.31,-188.01 564.86,-186.97 555.97,-181.21 554.31,-188.01"/>
</a>
</g>
</g>
<!-- Node35 -->
<g id="Node000035" class="node">
<title>Node35</title>
<g id="a_Node000035"><a xlink:href="adrv902x_2src_2examples_2iio__example_2iio__example_8c.html#a692b15b864d48091dc3d7095bea120b4" target="_top" xlink:title="IIO example main execution.">
<polygon fill="white" stroke="#666666" points="504.5,-243 397.5,-243 397.5,-224 504.5,-224 504.5,-243"/>
<text text-anchor="middle" x="451" y="-231" font-family="Helvetica,sans-Serif" font-size="10.00">iio_example_main</text>
</a>
</g>
</g>
<!-- Node31&#45;&gt;Node35 -->
<g id="edge44_Node000031_Node000035" class="edge">
<title>Node31&#45;&gt;Node35</title>
<g id="a_edge44_Node000031_Node000035"><a xlink:title=" ">
<path fill="none" stroke="#63b8ff" d="M555.01,-208.43C534.39,-213.44 510.72,-219.21 491.28,-223.94"/>
<polygon fill="#63b8ff" stroke="#63b8ff" points="555.97,-211.79 564.86,-206.03 554.31,-204.99 555.97,-211.79"/>
</a>
</g>
</g>
<!-- Node34 -->
<g id="Node000034" class="node">
<title>Node34</title>
<g id="a_Node000034"><a xlink:href="adrv902x_2src_2platform_2xilinx_2main_8c.html#ae66f6b31b5ad750f1fe042a706a4e3d4" target="_top" xlink:title="Main function execution for XILINX platform.">
<polygon fill="white" stroke="#666666" points="311,-169 270,-169 270,-150 311,-150 311,-169"/>
<text text-anchor="middle" x="290.5" y="-157" font-family="Helvetica,sans-Serif" font-size="10.00">main</text>
</a>
</g>
</g>
<!-- Node33&#45;&gt;Node34 -->
<g id="edge43_Node000033_Node000034" class="edge">
<title>Node33&#45;&gt;Node34</title>
<g id="a_edge43_Node000033_Node000034"><a xlink:title=" ">
<path fill="none" stroke="#63b8ff" d="M382.6,-159.5C356.73,-159.5 329.15,-159.5 311.19,-159.5"/>
<polygon fill="#63b8ff" stroke="#63b8ff" points="382.78,-163 392.78,-159.5 382.78,-156 382.78,-163"/>
</a>
</g>
</g>
<!-- Node36&#45;&gt;Node32 -->
<g id="edge46_Node000036_Node000032" class="edge">
<title>Node36&#45;&gt;Node32</title>
<g id="a_edge46_Node000036_Node000032"><a xlink:title=" ">
<path fill="none" stroke="#63b8ff" d="M555.01,-221.57C534.39,-216.56 510.72,-210.79 491.28,-206.06"/>
<polygon fill="#63b8ff" stroke="#63b8ff" points="554.31,-225.01 564.86,-223.97 555.97,-218.21 554.31,-225.01"/>
</a>
</g>
</g>
<!-- Node36&#45;&gt;Node33 -->
<g id="edge47_Node000036_Node000033" class="edge">
<title>Node36&#45;&gt;Node33</title>
<g id="a_edge47_Node000036_Node000033"><a xlink:title=" ">
<path fill="none" stroke="#63b8ff" d="M555.37,-220.01C552.47,-218.64 549.65,-217.14 547,-215.5 527.47,-203.46 530.5,-190.6 511,-178.5 504.87,-174.7 497.91,-171.59 490.97,-169.06"/>
<polygon fill="#63b8ff" stroke="#63b8ff" points="554.27,-223.34 564.85,-223.97 556.97,-216.88 554.27,-223.34"/>
</a>
</g>
</g>
<!-- Node36&#45;&gt;Node35 -->
<g id="edge48_Node000036_Node000035" class="edge">
<title>Node36&#45;&gt;Node35</title>
<g id="a_edge48_Node000036_Node000035"><a xlink:title=" ">
<path fill="none" stroke="#63b8ff" d="M554.27,-233.5C538.34,-233.5 520.64,-233.5 504.51,-233.5"/>
<polygon fill="#63b8ff" stroke="#63b8ff" points="554.46,-237 564.46,-233.5 554.46,-230 554.46,-237"/>
</a>
</g>
</g>
<!-- Node38 -->
<g id="Node000038" class="node">
<title>Node38</title>
<g id="a_Node000038"><a xlink:href="headless__arm_8c.html#a840291bc02cba5474a4cb46a9b9566fe" target="_top" xlink:title=" ">
<polygon fill="white" stroke="#666666" points="471.5,-132 430.5,-132 430.5,-113 471.5,-113 471.5,-132"/>
<text text-anchor="middle" x="451" y="-120" font-family="Helvetica,sans-Serif" font-size="10.00">main</text>
</a>
</g>
</g>
<!-- Node37&#45;&gt;Node38 -->
<g id="edge50_Node000037_Node000038" class="edge">
<title>Node37&#45;&gt;Node38</title>
<g id="a_edge50_Node000037_Node000038"><a xlink:title=" ">
<path fill="none" stroke="#63b8ff" d="M555.09,-147.59C526.7,-140.68 492.52,-132.36 471.53,-127.25"/>
<polygon fill="#63b8ff" stroke="#63b8ff" points="554.31,-151.01 564.86,-149.97 555.97,-144.21 554.31,-151.01"/>
</a>
</g>
</g>
<!-- Node39&#45;&gt;Node38 -->
<g id="edge52_Node000039_Node000038" class="edge">
<title>Node39&#45;&gt;Node38</title>
<g id="a_edge52_Node000039_Node000038"><a xlink:title=" ">
<path fill="none" stroke="#63b8ff" d="M555.49,-122.5C527.12,-122.5 492.85,-122.5 471.73,-122.5"/>
<polygon fill="#63b8ff" stroke="#63b8ff" points="555.64,-126 565.64,-122.5 555.64,-119 555.64,-126"/>
</a>
</g>
</g>
<!-- Node42 -->
<g id="Node000042" class="node">
<title>Node42</title>
<g id="a_Node000042"><a xlink:href="pulsar-adc_2src_2examples_2basic__example_2basic__example_8c.html#a72943dc9011d36293cb05ca5d7cb6899" target="_top" xlink:title="basic example main execution.">
<polygon fill="white" stroke="#666666" points="350.5,-93 230.5,-93 230.5,-74 350.5,-74 350.5,-93"/>
<text text-anchor="middle" x="290.5" y="-81" font-family="Helvetica,sans-Serif" font-size="10.00">basic_example_main</text>
</a>
</g>
</g>
<!-- Node41&#45;&gt;Node42 -->
<g id="edge55_Node000041_Node000042" class="edge">
<title>Node41&#45;&gt;Node42</title>
<g id="a_edge55_Node000041_Node000042"><a xlink:title=" ">
<path fill="none" stroke="#63b8ff" d="M550.13,-58.96C537.35,-61.39 523.73,-63.75 511,-65.5 457.02,-72.91 395.12,-77.65 350.85,-80.4"/>
<polygon fill="#63b8ff" stroke="#63b8ff" points="551.02,-62.35 560.17,-57.01 549.68,-55.48 551.02,-62.35"/>
</a>
</g>
</g>
<!-- Node43 -->
<g id="Node000043" class="node">
<title>Node43</title>
<g id="a_Node000043"><a xlink:href="iio__pulsar__adc_8c.html#aa6aeb456d8d8f17aa93126567f8e40aa" target="_top" xlink:title="Release resources.">
<polygon fill="white" stroke="#666666" points="355,-19 226,-19 226,0 355,0 355,-19"/>
<text text-anchor="middle" x="290.5" y="-7" font-family="Helvetica,sans-Serif" font-size="10.00">pulsar_adc_iio_remove</text>
</a>
</g>
</g>
<!-- Node41&#45;&gt;Node43 -->
<g id="edge56_Node000041_Node000043" class="edge">
<title>Node41&#45;&gt;Node43</title>
<g id="a_edge56_Node000041_Node000043"><a xlink:title=" ">
<path fill="none" stroke="#63b8ff" d="M555.24,-35.77C541.04,-32.69 525.46,-29.64 511,-27.5 458.8,-19.78 399.1,-15.15 355.14,-12.53"/>
<polygon fill="#63b8ff" stroke="#63b8ff" points="554.77,-39.25 565.29,-38 556.29,-32.41 554.77,-39.25"/>
</a>
</g>
</g>
<!-- Node45 -->
<g id="Node000045" class="node">
<title>Node45</title>
<g id="a_Node000045"><a xlink:href="pulsar__adc_8c.html#a073bc069570261ee26cb17eb2d880ced" target="_top" xlink:title=" ">
<polygon fill="white" stroke="#666666" points="496,-56 406,-56 406,-37 496,-37 496,-56"/>
<text text-anchor="middle" x="451" y="-44" font-family="Helvetica,sans-Serif" font-size="10.00">pulsar_adc_init</text>
</a>
</g>
</g>
<!-- Node41&#45;&gt;Node45 -->
<g id="edge58_Node000041_Node000045" class="edge">
<title>Node41&#45;&gt;Node45</title>
<g id="a_edge58_Node000041_Node000045"><a xlink:title=" ">
<path fill="none" stroke="#63b8ff" d="M538.4,-47.07C524.1,-46.97 509.3,-46.88 496.08,-46.79"/>
<polygon fill="#63b8ff" stroke="#63b8ff" points="538.67,-50.57 548.69,-47.14 538.72,-43.57 538.67,-50.57"/>
</a>
</g>
</g>
<!-- Node44 -->
<g id="Node000044" class="node">
<title>Node44</title>
<g id="a_Node000044"><a xlink:href="pulsar-adc_2src_2examples_2iio__example_2iio__example_8c.html#a7d58fb707a91d4615d3bf949fabaa1e2" target="_top" xlink:title="IIO example main execution.">
<polygon fill="white" stroke="#666666" points="187,-38 80,-38 80,-19 187,-19 187,-38"/>
<text text-anchor="middle" x="133.5" y="-26" font-family="Helvetica,sans-Serif" font-size="10.00">iio_example_main</text>
</a>
</g>
</g>
<!-- Node43&#45;&gt;Node44 -->
<g id="edge57_Node000043_Node000044" class="edge">
<title>Node43&#45;&gt;Node44</title>
<g id="a_edge57_Node000043_Node000044"><a xlink:title=" ">
<path fill="none" stroke="#63b8ff" d="M215.38,-18.59C205.95,-19.74 196.45,-20.91 187.45,-22.01"/>
<polygon fill="#63b8ff" stroke="#63b8ff" points="216.06,-22.03 225.56,-17.34 215.21,-15.08 216.06,-22.03"/>
</a>
</g>
</g>
<!-- Node45&#45;&gt;Node42 -->
<g id="edge59_Node000045_Node000042" class="edge">
<title>Node45&#45;&gt;Node42</title>
<g id="a_edge59_Node000045_Node000042"><a xlink:title=" ">
<path fill="none" stroke="#63b8ff" d="M399.21,-58.36C377.64,-63.39 352.82,-69.18 332.45,-73.94"/>
<polygon fill="#63b8ff" stroke="#63b8ff" points="400.24,-61.71 409.18,-56.03 398.65,-54.89 400.24,-61.71"/>
</a>
</g>
</g>
<!-- Node46 -->
<g id="Node000046" class="node">
<title>Node46</title>
<g id="a_Node000046"><a xlink:href="iio__pulsar__adc_8c.html#a8dc355525e9be45109bec316dad2ae8d" target="_top" xlink:title="Initialize PULSAR_ADC for IIO interfacing.">
<polygon fill="white" stroke="#666666" points="344,-56 237,-56 237,-37 344,-37 344,-56"/>
<text text-anchor="middle" x="290.5" y="-44" font-family="Helvetica,sans-Serif" font-size="10.00">pulsar_adc_iio_init</text>
</a>
</g>
</g>
<!-- Node45&#45;&gt;Node46 -->
<g id="edge60_Node000045_Node000046" class="edge">
<title>Node45&#45;&gt;Node46</title>
<g id="a_edge60_Node000045_Node000046"><a xlink:title=" ">
<path fill="none" stroke="#63b8ff" d="M395.7,-46.5C379.02,-46.5 360.7,-46.5 344.13,-46.5"/>
<polygon fill="#63b8ff" stroke="#63b8ff" points="395.85,-50 405.85,-46.5 395.85,-43 395.85,-50"/>
</a>
</g>
</g>
<!-- Node46&#45;&gt;Node44 -->
<g id="edge61_Node000046_Node000044" class="edge">
<title>Node46&#45;&gt;Node44</title>
<g id="a_edge61_Node000046_Node000044"><a xlink:title=" ">
<path fill="none" stroke="#63b8ff" d="M226.31,-39.16C213.31,-37.65 199.75,-36.08 187.17,-34.62"/>
<polygon fill="#63b8ff" stroke="#63b8ff" points="226.25,-42.68 236.59,-40.36 227.06,-35.73 226.25,-42.68"/>
</a>
</g>
</g>
</g>
</svg>
