<?xml version="1.0" encoding="UTF-8" standalone="no"?>
<!DOCTYPE svg PUBLIC "-//W3C//DTD SVG 1.1//EN"
 "http://www.w3.org/Graphics/SVG/1.1/DTD/svg11.dtd">
<!-- Generated by graphviz version 2.43.0 (0)
 -->
<!-- Title: altera_a10_fpll_calc_params Pages: 1 -->
<svg width="567pt" height="101pt"
 viewBox="0.00 0.00 567.00 101.00" xmlns="http://www.w3.org/2000/svg" xmlns:xlink="http://www.w3.org/1999/xlink">
<g id="graph0" class="graph" transform="scale(1 1) rotate(0) translate(4 97)">
<title>altera_a10_fpll_calc_params</title>
<!-- Node1 -->
<g id="Node000001" class="node">
<title>Node1</title>
<g id="a_Node000001"><a xlink:title="altera_a10_fpll_calc_params">
<polygon fill="#999999" stroke="#666666" points="559,-79.5 445,-79.5 445,-49.5 559,-49.5 559,-79.5"/>
<text text-anchor="start" x="453" y="-67.5" font-family="Helvetica,sans-Serif" font-size="10.00">altera_a10_fpll_calc</text>
<text text-anchor="middle" x="502" y="-56.5" font-family="Helvetica,sans-Serif" font-size="10.00">_params</text>
</a>
</g>
</g>
<!-- Node2 -->
<g id="Node000002" class="node">
<title>Node2</title>
<g id="a_Node000002"><a xlink:href="clk__altera__a10__fpll_8c.html#a6c3f5d315237e418fdc3db745707c5b3" target="_top" xlink:title="altera_a10_fpll_round_rate">
<polygon fill="white" stroke="#666666" points="409,-93 262,-93 262,-74 409,-74 409,-93"/>
<text text-anchor="middle" x="335.5" y="-81" font-family="Helvetica,sans-Serif" font-size="10.00">altera_a10_fpll_round_rate</text>
</a>
</g>
</g>
<!-- Node1&#45;&gt;Node2 -->
<g id="edge1_Node000001_Node000002" class="edge">
<title>Node1&#45;&gt;Node2</title>
<g id="a_edge1_Node000001_Node000002"><a xlink:title=" ">
<path fill="none" stroke="#63b8ff" d="M434.76,-72.15C426.37,-73.12 417.75,-74.12 409.27,-75.1"/>
<polygon fill="#63b8ff" stroke="#63b8ff" points="435.32,-75.61 444.85,-70.99 434.51,-68.66 435.32,-75.61"/>
</a>
</g>
</g>
<!-- Node3 -->
<g id="Node000003" class="node">
<title>Node3</title>
<g id="a_Node000003"><a xlink:href="clk__altera__a10__fpll_8c.html#a8174d4dc2a66720898b92f4fafe84d55" target="_top" xlink:title="altera_a10_fpll_set_rate">
<polygon fill="white" stroke="#666666" points="402.5,-56 268.5,-56 268.5,-37 402.5,-37 402.5,-56"/>
<text text-anchor="middle" x="335.5" y="-44" font-family="Helvetica,sans-Serif" font-size="10.00">altera_a10_fpll_set_rate</text>
</a>
</g>
</g>
<!-- Node1&#45;&gt;Node3 -->
<g id="edge2_Node000001_Node000003" class="edge">
<title>Node1&#45;&gt;Node3</title>
<g id="a_edge2_Node000001_Node000003"><a xlink:title=" ">
<path fill="none" stroke="#63b8ff" d="M434.81,-57.26C424.2,-56.1 413.22,-54.89 402.61,-53.73"/>
<polygon fill="#63b8ff" stroke="#63b8ff" points="434.53,-60.75 444.85,-58.36 435.29,-53.79 434.53,-60.75"/>
</a>
</g>
</g>
<!-- Node4 -->
<g id="Node000004" class="node">
<title>Node4</title>
<g id="a_Node000004"><a xlink:href="clk__altera__a10__fpll_8c.html#a58ce7ef2b7a816eeeb0e1a4b082313ea" target="_top" xlink:title="altera_a10_fpll_recalc_rate">
<polygon fill="white" stroke="#666666" points="226,-93 77,-93 77,-74 226,-74 226,-93"/>
<text text-anchor="middle" x="151.5" y="-81" font-family="Helvetica,sans-Serif" font-size="10.00">altera_a10_fpll_recalc_rate</text>
</a>
</g>
</g>
<!-- Node3&#45;&gt;Node4 -->
<g id="edge3_Node000003_Node000004" class="edge">
<title>Node3&#45;&gt;Node4</title>
<g id="a_edge3_Node000003_Node000004"><a xlink:title=" ">
<path fill="none" stroke="#63b8ff" d="M277.52,-58.08C252.44,-63.18 223.34,-69.1 199.53,-73.94"/>
<polygon fill="#63b8ff" stroke="#63b8ff" points="278.53,-61.45 287.63,-56.03 277.13,-54.59 278.53,-61.45"/>
</a>
</g>
</g>
<!-- Node5 -->
<g id="Node000005" class="node">
<title>Node5</title>
<g id="a_Node000005"><a xlink:href="adrv9009_2src_2app_2app__clocking_8c.html#adab63a630c95f109e3b4330b5b0253b6" target="_top" xlink:title=" ">
<polygon fill="white" stroke="#666666" points="190.5,-56 112.5,-56 112.5,-37 190.5,-37 190.5,-56"/>
<text text-anchor="middle" x="151.5" y="-44" font-family="Helvetica,sans-Serif" font-size="10.00">clocking_init</text>
</a>
</g>
</g>
<!-- Node3&#45;&gt;Node5 -->
<g id="edge4_Node000003_Node000005" class="edge">
<title>Node3&#45;&gt;Node5</title>
<g id="a_edge4_Node000003_Node000005"><a xlink:title=" ">
<path fill="none" stroke="#63b8ff" d="M258.05,-46.5C234.77,-46.5 210.19,-46.5 190.61,-46.5"/>
<polygon fill="#63b8ff" stroke="#63b8ff" points="258.28,-50 268.28,-46.5 258.28,-43 258.28,-50"/>
</a>
</g>
</g>
<!-- Node7 -->
<g id="Node000007" class="node">
<title>Node7</title>
<g id="a_Node000007"><a xlink:href="ad9371_2src_2app_2headless_8c.html#a840291bc02cba5474a4cb46a9b9566fe" target="_top" xlink:title="main">
<polygon fill="white" stroke="#666666" points="172,-19 131,-19 131,0 172,0 172,-19"/>
<text text-anchor="middle" x="151.5" y="-7" font-family="Helvetica,sans-Serif" font-size="10.00">main</text>
</a>
</g>
</g>
<!-- Node3&#45;&gt;Node7 -->
<g id="edge6_Node000003_Node000007" class="edge">
<title>Node3&#45;&gt;Node7</title>
<g id="a_edge6_Node000003_Node000007"><a xlink:title=" ">
<path fill="none" stroke="#63b8ff" d="M277.69,-34.95C241.6,-27.61 197.1,-18.57 172.05,-13.47"/>
<polygon fill="#63b8ff" stroke="#63b8ff" points="277.13,-38.41 287.63,-36.97 278.53,-31.55 277.13,-38.41"/>
</a>
</g>
</g>
<!-- Node6 -->
<g id="Node000006" class="node">
<title>Node6</title>
<g id="a_Node000006"><a xlink:href="headless__arm_8c.html#a840291bc02cba5474a4cb46a9b9566fe" target="_top" xlink:title=" ">
<polygon fill="white" stroke="#666666" points="41,-56 0,-56 0,-37 41,-37 41,-56"/>
<text text-anchor="middle" x="20.5" y="-44" font-family="Helvetica,sans-Serif" font-size="10.00">main</text>
</a>
</g>
</g>
<!-- Node5&#45;&gt;Node6 -->
<g id="edge5_Node000005_Node000006" class="edge">
<title>Node5&#45;&gt;Node6</title>
<g id="a_edge5_Node000005_Node000006"><a xlink:title=" ">
<path fill="none" stroke="#63b8ff" d="M102.36,-46.5C81.22,-46.5 57.56,-46.5 41.33,-46.5"/>
<polygon fill="#63b8ff" stroke="#63b8ff" points="102.49,-50 112.49,-46.5 102.49,-43 102.49,-50"/>
</a>
</g>
</g>
</g>
</svg>
