<?xml version="1.0" encoding="UTF-8" standalone="no"?>
<!DOCTYPE svg PUBLIC "-//W3C//DTD SVG 1.1//EN"
 "http://www.w3.org/Graphics/SVG/1.1/DTD/svg11.dtd">
<!-- Generated by graphviz version 2.43.0 (0)
 -->
<!-- Title: altera_a10_fpll_remove Pages: 1 -->
<svg width="343pt" height="101pt"
 viewBox="0.00 0.00 343.00 101.00" xmlns="http://www.w3.org/2000/svg" xmlns:xlink="http://www.w3.org/1999/xlink">
<g id="graph0" class="graph" transform="scale(1 1) rotate(0) translate(4 97)">
<title>altera_a10_fpll_remove</title>
<!-- Node1 -->
<g id="Node000001" class="node">
<title>Node1</title>
<g id="a_Node000001"><a xlink:title="altera_a10_fpll_remove">
<polygon fill="#999999" stroke="#666666" points="335,-56 203,-56 203,-37 335,-37 335,-56"/>
<text text-anchor="middle" x="269" y="-44" font-family="Helvetica,sans-Serif" font-size="10.00">altera_a10_fpll_remove</text>
</a>
</g>
</g>
<!-- Node2 -->
<g id="Node000002" class="node">
<title>Node2</title>
<g id="a_Node000002"><a xlink:href="adrv9009_2src_2app_2app__clocking_8c.html#a3e4c367a44510658467da3ce7c9e9273" target="_top" xlink:title=" ">
<polygon fill="white" stroke="#666666" points="167,-93 77,-93 77,-74 167,-74 167,-93"/>
<text text-anchor="middle" x="122" y="-81" font-family="Helvetica,sans-Serif" font-size="10.00">clocking_deinit</text>
</a>
</g>
</g>
<!-- Node1&#45;&gt;Node2 -->
<g id="edge1_Node000001_Node000002" class="edge">
<title>Node1&#45;&gt;Node2</title>
<g id="a_edge1_Node000001_Node000002"><a xlink:title=" ">
<path fill="none" stroke="#63b8ff" d="M220.73,-58.56C201.19,-63.55 178.85,-69.25 160.47,-73.94"/>
<polygon fill="#63b8ff" stroke="#63b8ff" points="221.83,-61.89 230.66,-56.03 220.1,-55.11 221.83,-61.89"/>
</a>
</g>
</g>
<!-- Node4 -->
<g id="Node000004" class="node">
<title>Node4</title>
<g id="a_Node000004"><a xlink:href="adrv9009_2src_2app_2app__clocking_8c.html#adab63a630c95f109e3b4330b5b0253b6" target="_top" xlink:title=" ">
<polygon fill="white" stroke="#666666" points="161,-56 83,-56 83,-37 161,-37 161,-56"/>
<text text-anchor="middle" x="122" y="-44" font-family="Helvetica,sans-Serif" font-size="10.00">clocking_init</text>
</a>
</g>
</g>
<!-- Node1&#45;&gt;Node4 -->
<g id="edge3_Node000001_Node000004" class="edge">
<title>Node1&#45;&gt;Node4</title>
<g id="a_edge3_Node000001_Node000004"><a xlink:title=" ">
<path fill="none" stroke="#63b8ff" d="M192.41,-46.5C181.66,-46.5 171,-46.5 161.38,-46.5"/>
<polygon fill="#63b8ff" stroke="#63b8ff" points="192.71,-50 202.71,-46.5 192.71,-43 192.71,-50"/>
</a>
</g>
</g>
<!-- Node5 -->
<g id="Node000005" class="node">
<title>Node5</title>
<g id="a_Node000005"><a xlink:href="ad9371_2src_2app_2headless_8c.html#a840291bc02cba5474a4cb46a9b9566fe" target="_top" xlink:title="main">
<polygon fill="white" stroke="#666666" points="142.5,-19 101.5,-19 101.5,0 142.5,0 142.5,-19"/>
<text text-anchor="middle" x="122" y="-7" font-family="Helvetica,sans-Serif" font-size="10.00">main</text>
</a>
</g>
</g>
<!-- Node1&#45;&gt;Node5 -->
<g id="edge5_Node000001_Node000005" class="edge">
<title>Node1&#45;&gt;Node5</title>
<g id="a_edge5_Node000001_Node000005"><a xlink:title=" ">
<path fill="none" stroke="#63b8ff" d="M220.81,-34.46C194.38,-27.71 162.81,-19.66 142.83,-14.56"/>
<polygon fill="#63b8ff" stroke="#63b8ff" points="220.1,-37.89 230.66,-36.97 221.83,-31.11 220.1,-37.89"/>
</a>
</g>
</g>
<!-- Node3 -->
<g id="Node000003" class="node">
<title>Node3</title>
<g id="a_Node000003"><a xlink:href="headless__arm_8c.html#a840291bc02cba5474a4cb46a9b9566fe" target="_top" xlink:title=" ">
<polygon fill="white" stroke="#666666" points="41,-74 0,-74 0,-55 41,-55 41,-74"/>
<text text-anchor="middle" x="20.5" y="-62" font-family="Helvetica,sans-Serif" font-size="10.00">main</text>
</a>
</g>
</g>
<!-- Node2&#45;&gt;Node3 -->
<g id="edge2_Node000002_Node000003" class="edge">
<title>Node2&#45;&gt;Node3</title>
<g id="a_edge2_Node000002_Node000003"><a xlink:title=" ">
<path fill="none" stroke="#63b8ff" d="M66.81,-73.15C57.65,-71.4 48.68,-69.69 41.18,-68.26"/>
<polygon fill="#63b8ff" stroke="#63b8ff" points="66.3,-76.62 76.78,-75.06 67.61,-69.74 66.3,-76.62"/>
</a>
</g>
</g>
<!-- Node4&#45;&gt;Node3 -->
<g id="edge4_Node000004_Node000003" class="edge">
<title>Node4&#45;&gt;Node3</title>
<g id="a_edge4_Node000004_Node000003"><a xlink:title=" ">
<path fill="none" stroke="#63b8ff" d="M72.64,-55.25C61.46,-57.27 50.19,-59.31 41.08,-60.96"/>
<polygon fill="#63b8ff" stroke="#63b8ff" points="73.6,-58.63 82.82,-53.41 72.35,-51.74 73.6,-58.63"/>
</a>
</g>
</g>
</g>
</svg>
