<?xml version="1.0" encoding="UTF-8" standalone="no"?>
<!DOCTYPE svg PUBLIC "-//W3C//DTD SVG 1.1//EN"
 "http://www.w3.org/Graphics/SVG/1.1/DTD/svg11.dtd">
<!-- Generated by graphviz version 2.43.0 (0)
 -->
<!-- Title: drivers/axi_core/clk_axi_clkgen/clk_axi_clkgen.c Pages: 1 -->
<svg width="810pt" height="148pt"
 viewBox="0.00 0.00 810.00 148.00" xmlns="http://www.w3.org/2000/svg" xmlns:xlink="http://www.w3.org/1999/xlink">
<g id="graph0" class="graph" transform="scale(1 1) rotate(0) translate(4 144)">
<title>drivers/axi_core/clk_axi_clkgen/clk_axi_clkgen.c</title>
<!-- Node1 -->
<g id="Node000001" class="node">
<title>Node1</title>
<g id="a_Node000001"><a xlink:title="Driver for the Analog Devices AXI CLKGEN.">
<polygon fill="#999999" stroke="#666666" points="528,-140 370,-140 370,-110 528,-110 528,-140"/>
<text text-anchor="start" x="378" y="-128" font-family="Helvetica,sans-Serif" font-size="10.00">drivers/axi_core/clk</text>
<text text-anchor="middle" x="449" y="-117" font-family="Helvetica,sans-Serif" font-size="10.00">_axi_clkgen/clk_axi_clkgen.c</text>
</a>
</g>
</g>
<!-- Node2 -->
<g id="Node000002" class="node">
<title>Node2</title>
<g id="a_Node000002"><a xlink:href="clk__axi__clkgen_8h.html" target="_top" xlink:title="Driver for the Analog Devices AXI CLKGEN.">
<polygon fill="white" stroke="#666666" points="98,-74 0,-74 0,-55 98,-55 98,-74"/>
<text text-anchor="middle" x="49" y="-62" font-family="Helvetica,sans-Serif" font-size="10.00">clk_axi_clkgen.h</text>
</a>
</g>
</g>
<!-- Node1&#45;&gt;Node2 -->
<g id="edge1_Node000001_Node000002" class="edge">
<title>Node1&#45;&gt;Node2</title>
<g id="a_edge1_Node000001_Node000002"><a xlink:title=" ">
<path fill="none" stroke="#63b8ff" d="M369.87,-112.44C302.92,-102.66 204.13,-88.22 108.22,-74.18"/>
<polygon fill="#63b8ff" stroke="#63b8ff" points="108.45,-70.67 98.05,-72.69 107.44,-77.6 108.45,-70.67"/>
</a>
</g>
</g>
<!-- Node4 -->
<g id="Node000004" class="node">
<title>Node4</title>
<g id="a_Node000004"><a xlink:title=" ">
<polygon fill="#e0e0e0" stroke="#999999" points="409,-19 347,-19 347,0 409,0 409,-19"/>
<text text-anchor="middle" x="378" y="-7" font-family="Helvetica,sans-Serif" font-size="10.00">stdbool.h</text>
</a>
</g>
</g>
<!-- Node1&#45;&gt;Node4 -->
<g id="edge3_Node000001_Node000004" class="edge">
<title>Node1&#45;&gt;Node4</title>
<g id="a_edge3_Node000001_Node000004"><a xlink:title=" ">
<path fill="none" stroke="#63b8ff" d="M441.66,-109.99C434.13,-95.86 421.86,-73.55 410,-55 403.98,-45.58 396.74,-35.43 390.67,-27.21"/>
<polygon fill="#63b8ff" stroke="#63b8ff" points="393.45,-25.08 384.66,-19.17 387.85,-29.27 393.45,-25.08"/>
</a>
</g>
</g>
<!-- Node5 -->
<g id="Node000005" class="node">
<title>Node5</title>
<g id="a_Node000005"><a xlink:title=" ">
<polygon fill="#e0e0e0" stroke="#999999" points="598,-19 548,-19 548,0 598,0 598,-19"/>
<text text-anchor="middle" x="573" y="-7" font-family="Helvetica,sans-Serif" font-size="10.00">stdio.h</text>
</a>
</g>
</g>
<!-- Node1&#45;&gt;Node5 -->
<g id="edge4_Node000001_Node000005" class="edge">
<title>Node1&#45;&gt;Node5</title>
<g id="a_edge4_Node000001_Node000005"><a xlink:title=" ">
<path fill="none" stroke="#63b8ff" d="M528.34,-113.44C551.71,-106.22 574.8,-94.15 589,-74 598.59,-60.39 591.97,-41.57 584.55,-27.96"/>
<polygon fill="#63b8ff" stroke="#63b8ff" points="587.38,-25.87 579.23,-19.11 581.39,-29.48 587.38,-25.87"/>
</a>
</g>
</g>
<!-- Node6 -->
<g id="Node000006" class="node">
<title>Node6</title>
<g id="a_Node000006"><a xlink:title=" ">
<polygon fill="#e0e0e0" stroke="#999999" points="494.5,-19 441.5,-19 441.5,0 494.5,0 494.5,-19"/>
<text text-anchor="middle" x="468" y="-7" font-family="Helvetica,sans-Serif" font-size="10.00">stdlib.h</text>
</a>
</g>
</g>
<!-- Node1&#45;&gt;Node6 -->
<g id="edge5_Node000001_Node000006" class="edge">
<title>Node1&#45;&gt;Node6</title>
<g id="a_edge5_Node000001_Node000006"><a xlink:title=" ">
<path fill="none" stroke="#63b8ff" d="M451.41,-109.63C454.82,-89.21 461.08,-51.81 464.86,-29.24"/>
<polygon fill="#63b8ff" stroke="#63b8ff" points="468.34,-29.67 466.54,-19.23 461.44,-28.51 468.34,-29.67"/>
</a>
</g>
</g>
<!-- Node7 -->
<g id="Node000007" class="node">
<title>Node7</title>
<g id="a_Node000007"><a xlink:title=" ">
<polygon fill="#e0e0e0" stroke="#999999" points="701.5,-74 636.5,-74 636.5,-55 701.5,-55 701.5,-74"/>
<text text-anchor="middle" x="669" y="-62" font-family="Helvetica,sans-Serif" font-size="10.00">inttypes.h</text>
</a>
</g>
</g>
<!-- Node1&#45;&gt;Node7 -->
<g id="edge6_Node000001_Node000007" class="edge">
<title>Node1&#45;&gt;Node7</title>
<g id="a_edge6_Node000001_Node000007"><a xlink:title=" ">
<path fill="none" stroke="#63b8ff" d="M501.7,-109.99C539.99,-99.8 591.14,-86.2 626.77,-76.73"/>
<polygon fill="#63b8ff" stroke="#63b8ff" points="628.07,-80.01 636.83,-74.05 626.27,-73.24 628.07,-80.01"/>
</a>
</g>
</g>
<!-- Node8 -->
<g id="Node000008" class="node">
<title>Node8</title>
<g id="a_Node000008"><a xlink:href="no__os__util_8h.html" target="_top" xlink:title="Header file of utility functions.">
<polygon fill="white" stroke="#666666" points="401.5,-74 326.5,-74 326.5,-55 401.5,-55 401.5,-74"/>
<text text-anchor="middle" x="364" y="-62" font-family="Helvetica,sans-Serif" font-size="10.00">no_os_util.h</text>
</a>
</g>
</g>
<!-- Node1&#45;&gt;Node8 -->
<g id="edge7_Node000001_Node000008" class="edge">
<title>Node1&#45;&gt;Node8</title>
<g id="a_edge7_Node000001_Node000008"><a xlink:title=" ">
<path fill="none" stroke="#63b8ff" d="M428.42,-109.84C415.33,-100.83 398.41,-89.18 385.2,-80.09"/>
<polygon fill="#63b8ff" stroke="#63b8ff" points="386.96,-77.05 376.74,-74.27 382.99,-82.82 386.96,-77.05"/>
</a>
</g>
</g>
<!-- Node9 -->
<g id="Node000009" class="node">
<title>Node9</title>
<g id="a_Node000009"><a xlink:href="no__os__alloc_8h.html" target="_top" xlink:title=" ">
<polygon fill="white" stroke="#666666" points="579.5,-74 496.5,-74 496.5,-55 579.5,-55 579.5,-74"/>
<text text-anchor="middle" x="538" y="-62" font-family="Helvetica,sans-Serif" font-size="10.00">no_os_alloc.h</text>
</a>
</g>
</g>
<!-- Node1&#45;&gt;Node9 -->
<g id="edge11_Node000001_Node000009" class="edge">
<title>Node1&#45;&gt;Node9</title>
<g id="a_edge11_Node000001_Node000009"><a xlink:title=" ">
<path fill="none" stroke="#63b8ff" d="M470.54,-109.84C484.47,-100.68 502.53,-88.82 516.45,-79.66"/>
<polygon fill="#63b8ff" stroke="#63b8ff" points="518.49,-82.51 524.92,-74.09 514.65,-76.66 518.49,-82.51"/>
</a>
</g>
</g>
<!-- Node10 -->
<g id="Node000010" class="node">
<title>Node10</title>
<g id="a_Node000010"><a xlink:href="no__os__error_8h.html" target="_top" xlink:title="Error codes definition.">
<polygon fill="white" stroke="#666666" points="802,-74 720,-74 720,-55 802,-55 802,-74"/>
<text text-anchor="middle" x="761" y="-62" font-family="Helvetica,sans-Serif" font-size="10.00">no_os_error.h</text>
</a>
</g>
</g>
<!-- Node1&#45;&gt;Node10 -->
<g id="edge14_Node000001_Node000010" class="edge">
<title>Node1&#45;&gt;Node10</title>
<g id="a_edge14_Node000001_Node000010"><a xlink:title=" ">
<path fill="none" stroke="#63b8ff" d="M523.73,-109.99C581.24,-99.2 659.2,-84.59 709.8,-75.1"/>
<polygon fill="#63b8ff" stroke="#63b8ff" points="710.67,-78.5 719.85,-73.22 709.38,-71.62 710.67,-78.5"/>
</a>
</g>
</g>
<!-- Node12 -->
<g id="Node000012" class="node">
<title>Node12</title>
<g id="a_Node000012"><a xlink:href="no__os__delay_8h.html" target="_top" xlink:title="Header file of Delay functions.">
<polygon fill="white" stroke="#666666" points="201.5,-74 116.5,-74 116.5,-55 201.5,-55 201.5,-74"/>
<text text-anchor="middle" x="159" y="-62" font-family="Helvetica,sans-Serif" font-size="10.00">no_os_delay.h</text>
</a>
</g>
</g>
<!-- Node1&#45;&gt;Node12 -->
<g id="edge16_Node000001_Node000012" class="edge">
<title>Node1&#45;&gt;Node12</title>
<g id="a_edge16_Node000001_Node000012"><a xlink:title=" ">
<path fill="none" stroke="#63b8ff" d="M379.54,-109.99C327.86,-99.56 258.44,-85.56 211.38,-76.07"/>
<polygon fill="#63b8ff" stroke="#63b8ff" points="211.9,-72.6 201.4,-74.05 210.51,-79.46 211.9,-72.6"/>
</a>
</g>
</g>
<!-- Node13 -->
<g id="Node000013" class="node">
<title>Node13</title>
<g id="a_Node000013"><a xlink:href="no__os__axi__io_8h.html" target="_top" xlink:title="Header file of AXI IO.">
<polygon fill="white" stroke="#666666" points="308.5,-74 219.5,-74 219.5,-55 308.5,-55 308.5,-74"/>
<text text-anchor="middle" x="264" y="-62" font-family="Helvetica,sans-Serif" font-size="10.00">no_os_axi_io.h</text>
</a>
</g>
</g>
<!-- Node1&#45;&gt;Node13 -->
<g id="edge18_Node000001_Node000013" class="edge">
<title>Node1&#45;&gt;Node13</title>
<g id="a_edge18_Node000001_Node000013"><a xlink:title=" ">
<path fill="none" stroke="#63b8ff" d="M404.69,-109.99C372.9,-99.94 330.58,-86.55 300.68,-77.1"/>
<polygon fill="#63b8ff" stroke="#63b8ff" points="301.64,-73.73 291.05,-74.05 299.53,-80.41 301.64,-73.73"/>
</a>
</g>
</g>
<!-- Node3 -->
<g id="Node000003" class="node">
<title>Node3</title>
<g id="a_Node000003"><a xlink:title=" ">
<polygon fill="#e0e0e0" stroke="#999999" points="238.5,-19 185.5,-19 185.5,0 238.5,0 238.5,-19"/>
<text text-anchor="middle" x="212" y="-7" font-family="Helvetica,sans-Serif" font-size="10.00">stdint.h</text>
</a>
</g>
</g>
<!-- Node2&#45;&gt;Node3 -->
<g id="edge2_Node000002_Node000003" class="edge">
<title>Node2&#45;&gt;Node3</title>
<g id="a_edge2_Node000002_Node000003"><a xlink:title=" ">
<path fill="none" stroke="#63b8ff" d="M75.19,-54.98C102.44,-46.13 145.3,-32.19 175.78,-22.28"/>
<polygon fill="#63b8ff" stroke="#63b8ff" points="177.18,-25.5 185.61,-19.08 175.01,-18.85 177.18,-25.5"/>
</a>
</g>
</g>
<!-- Node8&#45;&gt;Node3 -->
<g id="edge8_Node000008_Node000003" class="edge">
<title>Node8&#45;&gt;Node3</title>
<g id="a_edge8_Node000008_Node000003"><a xlink:title=" ">
<path fill="none" stroke="#63b8ff" d="M339.58,-54.98C314.28,-46.16 274.55,-32.31 246.14,-22.41"/>
<polygon fill="#63b8ff" stroke="#63b8ff" points="247.21,-19.07 236.61,-19.08 244.9,-25.68 247.21,-19.07"/>
</a>
</g>
</g>
<!-- Node8&#45;&gt;Node4 -->
<g id="edge10_Node000008_Node000004" class="edge">
<title>Node8&#45;&gt;Node4</title>
<g id="a_edge10_Node000008_Node000004"><a xlink:title=" ">
<path fill="none" stroke="#63b8ff" d="M366.31,-54.75C368.17,-47.72 370.84,-37.62 373.15,-28.84"/>
<polygon fill="#63b8ff" stroke="#63b8ff" points="376.56,-29.65 375.73,-19.09 369.79,-27.86 376.56,-29.65"/>
</a>
</g>
</g>
<!-- Node8&#45;&gt;Node6 -->
<g id="edge9_Node000008_Node000006" class="edge">
<title>Node8&#45;&gt;Node6</title>
<g id="a_edge9_Node000008_Node000006"><a xlink:title=" ">
<path fill="none" stroke="#63b8ff" d="M380.71,-54.98C397.21,-46.57 422.7,-33.59 441.88,-23.81"/>
<polygon fill="#63b8ff" stroke="#63b8ff" points="443.67,-26.83 450.99,-19.17 440.49,-20.59 443.67,-26.83"/>
</a>
</g>
</g>
<!-- Node9&#45;&gt;Node5 -->
<g id="edge12_Node000009_Node000005" class="edge">
<title>Node9&#45;&gt;Node5</title>
<g id="a_edge12_Node000009_Node000005"><a xlink:title=" ">
<path fill="none" stroke="#63b8ff" d="M543.78,-54.75C548.62,-47.42 555.68,-36.73 561.64,-27.7"/>
<polygon fill="#63b8ff" stroke="#63b8ff" points="564.74,-29.36 567.33,-19.09 558.9,-25.5 564.74,-29.36"/>
</a>
</g>
</g>
<!-- Node9&#45;&gt;Node6 -->
<g id="edge13_Node000009_Node000006" class="edge">
<title>Node9&#45;&gt;Node6</title>
<g id="a_edge13_Node000009_Node000006"><a xlink:title=" ">
<path fill="none" stroke="#63b8ff" d="M526.75,-54.98C516.2,-47 500.2,-34.88 487.56,-25.31"/>
<polygon fill="#63b8ff" stroke="#63b8ff" points="489.54,-22.42 479.45,-19.17 485.31,-28 489.54,-22.42"/>
</a>
</g>
</g>
<!-- Node11 -->
<g id="Node000011" class="node">
<title>Node11</title>
<g id="a_Node000011"><a xlink:href="errno_8h.html" target="_top" xlink:title="Error macro definition for ARM Compiler.">
<polygon fill="white" stroke="#666666" points="786.5,-19 735.5,-19 735.5,0 786.5,0 786.5,-19"/>
<text text-anchor="middle" x="761" y="-7" font-family="Helvetica,sans-Serif" font-size="10.00">errno.h</text>
</a>
</g>
</g>
<!-- Node10&#45;&gt;Node11 -->
<g id="edge15_Node000010_Node000011" class="edge">
<title>Node10&#45;&gt;Node11</title>
<g id="a_edge15_Node000010_Node000011"><a xlink:title=" ">
<path fill="none" stroke="#63b8ff" d="M761,-54.75C761,-47.8 761,-37.85 761,-29.13"/>
<polygon fill="#63b8ff" stroke="#63b8ff" points="764.5,-29.09 761,-19.09 757.5,-29.09 764.5,-29.09"/>
</a>
</g>
</g>
<!-- Node12&#45;&gt;Node3 -->
<g id="edge17_Node000012_Node000003" class="edge">
<title>Node12&#45;&gt;Node3</title>
<g id="a_edge17_Node000012_Node000003"><a xlink:title=" ">
<path fill="none" stroke="#63b8ff" d="M167.75,-54.75C175.47,-47.03 186.9,-35.6 196.22,-26.28"/>
<polygon fill="#63b8ff" stroke="#63b8ff" points="198.81,-28.64 203.41,-19.09 193.86,-23.69 198.81,-28.64"/>
</a>
</g>
</g>
<!-- Node13&#45;&gt;Node3 -->
<g id="edge19_Node000013_Node000003" class="edge">
<title>Node13&#45;&gt;Node3</title>
<g id="a_edge19_Node000013_Node000003"><a xlink:title=" ">
<path fill="none" stroke="#63b8ff" d="M255.41,-54.75C247.84,-47.03 236.62,-35.6 227.49,-26.28"/>
<polygon fill="#63b8ff" stroke="#63b8ff" points="229.93,-23.78 220.43,-19.09 224.93,-28.68 229.93,-23.78"/>
</a>
</g>
</g>
</g>
</svg>
