<?xml version="1.0" encoding="UTF-8" standalone="no"?>
<!DOCTYPE svg PUBLIC "-//W3C//DTD SVG 1.1//EN"
 "http://www.w3.org/Graphics/SVG/1.1/DTD/svg11.dtd">
<!-- Generated by graphviz version 2.43.0 (0)
 -->
<!-- Title: projects/cn0565/src/platform/aducm3029/main.c Pages: 1 -->
<!--zoomable 324 -->

<svg id="main" version="1.1" xmlns="http://www.w3.org/2000/svg" xmlns:xlink="http://www.w3.org/1999/xlink" xml:space="preserve" onload="init(evt)">

<style type="text/css"><![CDATA[
.node, .edge {opacity: 0.7;}
.node.selected, .edge.selected {opacity: 1;}
.edge:hover path { stroke: red; }
.edge:hover polygon { stroke: red; fill: red; }
]]></style>

<defs>
  <circle id="rim" cx="0" cy="0" r="7"/>
  <circle id="rim2" cx="0" cy="0" r="3.5"/>
  <g id="zoomPlus">
    <use xlink:href="#rim" fill="#404040"><set attributeName="fill" to="#808080" begin="zoomplus.mouseover" end="zoomplus.mouseout"/></use>
    <path d="M-4,0h8M0,-4v8" fill="none" stroke="white" stroke-width="1.5" pointer-events="none"/>
  </g>
  <g id="zoomMin">
    <use xlink:href="#rim" fill="#404040"><set attributeName="fill" to="#808080" begin="zoomminus.mouseover" end="zoomminus.mouseout"/></use>
    <path d="M-4,0h8" fill="none" stroke="white" stroke-width="1.5" pointer-events="none"/>
  </g>
  <g id="arrowUp" transform="translate(30 24)">
    <use xlink:href="#rim"/>
    <path pointer-events="none" fill="none" stroke="white" stroke-width="1.5" d="M0,-3.0v7 M-2.5,-0.5L0,-3.0L2.5,-0.5"/>
  </g>
  <g id="arrowRight" transform="rotate(90) translate(36 -43)">
    <use xlink:href="#rim"/>
    <path pointer-events="none" fill="none" stroke="white" stroke-width="1.5" d="M0,-3.0v7 M-2.5,-0.5L0,-3.0L2.5,-0.5"/>
  </g>
  <g id="arrowDown" transform="rotate(180) translate(-30 -48)">
    <use xlink:href="#rim"/>
    <path pointer-events="none" fill="none" stroke="white" stroke-width="1.5" d="M0,-3.0v7 M-2.5,-0.5L0,-3.0L2.5,-0.5"/>
  </g>
  <g id="arrowLeft" transform="rotate(270) translate(-36 17)">
    <use xlink:href="#rim"/>
    <path pointer-events="none" fill="none" stroke="white" stroke-width="1.5" d="M0,-3.0v7 M-2.5,-0.5L0,-3.0L2.5,-0.5"/>
  </g>
  <g id="resetDef">
    <use xlink:href="#rim2" fill="#404040"><set attributeName="fill" to="#808080" begin="reset.mouseover" end="reset.mouseout"/></use>
  </g>
</defs>
<script type="application/ecmascript">
var viewWidth = 1220;
var viewHeight = 324;
var sectionId = 'dynsection-0';
</script>
<script type="application/ecmascript" xlink:href="svg.min.js"/>
<svg id="graph" class="graph">
<g id="viewport">
<title>projects/cn0565/src/platform/aducm3029/main.c</title>
<!-- Node1 -->
<g id="Node000001" class="node">
<title>Node1</title>
<g id="a_Node000001"><a xlink:title="Main file for ADuCM3029 platform of cn0565 project.">
<polygon fill="#999999" stroke="#666666" points="982,-316 860,-316 860,-275 982,-275 982,-316"/>
<text text-anchor="start" x="868" y="-304" font-family="Helvetica,sans-Serif" font-size="10.00">projects/cn0565/src</text>
<text text-anchor="start" x="868" y="-293" font-family="Helvetica,sans-Serif" font-size="10.00">/platform/aducm3029</text>
<text text-anchor="middle" x="921" y="-282" font-family="Helvetica,sans-Serif" font-size="10.00">/main.c</text>
</a>
</g>
</g>
<!-- Node2 -->
<g id="Node000002" class="node">
<title>Node2</title>
<g id="a_Node000002"><a xlink:href="cn0565_2src_2platform_2aducm3029_2parameters_8h.html" target="_top" xlink:title="Definitions specific to ADuCM3029 platform used by cn0565 project.">
<polygon fill="white" stroke="#666666" points="681,-239 599,-239 599,-220 681,-220 681,-239"/>
<text text-anchor="middle" x="640" y="-227" font-family="Helvetica,sans-Serif" font-size="10.00">parameters.h</text>
</a>
</g>
</g>
<!-- Node1&#45;&gt;Node2 -->
<g id="edge1_Node000001_Node000002" class="edge">
<title>Node1&#45;&gt;Node2</title>
<g id="a_edge1_Node000001_Node000002"><a xlink:title=" ">
<path fill="none" stroke="#63b8ff" d="M859.68,-280.53C807.93,-268.75 734.89,-252.11 687.49,-241.32"/>
<polygon fill="#63b8ff" stroke="#63b8ff" points="688.02,-237.85 677.49,-239.04 686.46,-244.67 688.02,-237.85"/>
</a>
</g>
</g>
<!-- Node24 -->
<g id="Node000024" class="node">
<title>Node24</title>
<g id="a_Node000024"><a xlink:title=" ">
<polygon fill="#e0e0e0" stroke="#999999" points="968.5,-239 873.5,-239 873.5,-220 968.5,-220 968.5,-239"/>
<text text-anchor="middle" x="921" y="-227" font-family="Helvetica,sans-Serif" font-size="10.00">common_data.h</text>
</a>
</g>
</g>
<!-- Node1&#45;&gt;Node24 -->
<g id="edge35_Node000001_Node000024" class="edge">
<title>Node1&#45;&gt;Node24</title>
<g id="a_edge35_Node000001_Node000024"><a xlink:title=" ">
<path fill="none" stroke="#63b8ff" d="M921,-274.95C921,-266.85 921,-257.5 921,-249.47"/>
<polygon fill="#63b8ff" stroke="#63b8ff" points="924.5,-249.26 921,-239.26 917.5,-249.26 924.5,-249.26"/>
</a>
</g>
</g>
<!-- Node25 -->
<g id="Node000025" class="node">
<title>Node25</title>
<g id="a_Node000025"><a xlink:href="no__os__gpio_8h.html" target="_top" xlink:title="Header file of GPIO Interface.">
<polygon fill="white" stroke="#666666" points="1212,-74 1132,-74 1132,-55 1212,-55 1212,-74"/>
<text text-anchor="middle" x="1172" y="-62" font-family="Helvetica,sans-Serif" font-size="10.00">no_os_gpio.h</text>
</a>
</g>
</g>
<!-- Node1&#45;&gt;Node25 -->
<g id="edge36_Node000001_Node000025" class="edge">
<title>Node1&#45;&gt;Node25</title>
<g id="a_edge36_Node000001_Node000025"><a xlink:title=" ">
<path fill="none" stroke="#63b8ff" d="M967.46,-274.88C1007.64,-256.13 1065.35,-224.7 1105,-184 1134.29,-153.93 1155.19,-108.54 1165.24,-83.56"/>
<polygon fill="#63b8ff" stroke="#63b8ff" points="1168.52,-84.8 1168.88,-74.22 1161.99,-82.27 1168.52,-84.8"/>
</a>
</g>
</g>
<!-- Node3 -->
<g id="Node000003" class="node">
<title>Node3</title>
<g id="a_Node000003"><a xlink:title=" ">
<polygon fill="#e0e0e0" stroke="#999999" points="827.5,-19 774.5,-19 774.5,0 827.5,0 827.5,-19"/>
<text text-anchor="middle" x="801" y="-7" font-family="Helvetica,sans-Serif" font-size="10.00">stdint.h</text>
</a>
</g>
</g>
<!-- Node2&#45;&gt;Node3 -->
<g id="edge2_Node000002_Node000003" class="edge">
<title>Node2&#45;&gt;Node3</title>
<g id="a_edge2_Node000002_Node000003"><a xlink:title=" ">
<path fill="none" stroke="#63b8ff" d="M681.13,-227.46C786.04,-224.37 1057.23,-213.58 1084,-184 1163.85,-95.75 930.72,-36.98 837.59,-17.55"/>
<polygon fill="#63b8ff" stroke="#63b8ff" points="838.23,-14.11 827.74,-15.53 836.83,-20.97 838.23,-14.11"/>
</a>
</g>
</g>
<!-- Node4 -->
<g id="Node000004" class="node">
<title>Node4</title>
<g id="a_Node000004"><a xlink:title=" ">
<polygon fill="#e0e0e0" stroke="#999999" points="56,-184 0,-184 0,-165 56,-165 56,-184"/>
<text text-anchor="middle" x="28" y="-172" font-family="Helvetica,sans-Serif" font-size="10.00">stddef.h</text>
</a>
</g>
</g>
<!-- Node2&#45;&gt;Node4 -->
<g id="edge3_Node000002_Node000004" class="edge">
<title>Node2&#45;&gt;Node4</title>
<g id="a_edge3_Node000002_Node000004"><a xlink:title=" ">
<path fill="none" stroke="#63b8ff" d="M598.98,-227.42C505.88,-224.51 271.42,-214.66 66.25,-183.96"/>
<polygon fill="#63b8ff" stroke="#63b8ff" points="66.61,-180.47 56.2,-182.43 65.56,-187.39 66.61,-180.47"/>
</a>
</g>
</g>
<!-- Node5 -->
<g id="Node000005" class="node">
<title>Node5</title>
<g id="a_Node000005"><a xlink:href="platform__init_8h.html" target="_top" xlink:title="ADuCM3029 platform initialization header.">
<polygon fill="white" stroke="#666666" points="163.5,-184 74.5,-184 74.5,-165 163.5,-165 163.5,-184"/>
<text text-anchor="middle" x="119" y="-172" font-family="Helvetica,sans-Serif" font-size="10.00">platform_init.h</text>
</a>
</g>
</g>
<!-- Node2&#45;&gt;Node5 -->
<g id="edge4_Node000002_Node000005" class="edge">
<title>Node2&#45;&gt;Node5</title>
<g id="a_edge4_Node000002_Node000005"><a xlink:title=" ">
<path fill="none" stroke="#63b8ff" d="M598.9,-225.48C519,-219.43 336.93,-204.69 173.73,-184.15"/>
<polygon fill="#63b8ff" stroke="#63b8ff" points="173.86,-180.64 163.5,-182.85 172.98,-187.58 173.86,-180.64"/>
</a>
</g>
</g>
<!-- Node6 -->
<g id="Node000006" class="node">
<title>Node6</title>
<g id="a_Node000006"><a xlink:href="aducm3029__spi_8h.html" target="_top" xlink:title="ADuCM302x specific header for SPI driver.">
<polygon fill="white" stroke="#666666" points="811,-184 709,-184 709,-165 811,-165 811,-184"/>
<text text-anchor="middle" x="760" y="-172" font-family="Helvetica,sans-Serif" font-size="10.00">aducm3029_spi.h</text>
</a>
</g>
</g>
<!-- Node2&#45;&gt;Node6 -->
<g id="edge5_Node000002_Node000006" class="edge">
<title>Node2&#45;&gt;Node6</title>
<g id="a_edge5_Node000002_Node000006"><a xlink:title=" ">
<path fill="none" stroke="#63b8ff" d="M659.28,-219.98C678.67,-211.42 708.81,-198.11 731.07,-188.28"/>
<polygon fill="#63b8ff" stroke="#63b8ff" points="732.64,-191.41 740.37,-184.17 729.81,-185.01 732.64,-191.41"/>
</a>
</g>
</g>
<!-- Node9 -->
<g id="Node000009" class="node">
<title>Node9</title>
<g id="a_Node000009"><a xlink:href="aducm3029__gpio_8h.html" target="_top" xlink:title=" ">
<polygon fill="white" stroke="#666666" points="415.5,-184 306.5,-184 306.5,-165 415.5,-165 415.5,-184"/>
<text text-anchor="middle" x="361" y="-172" font-family="Helvetica,sans-Serif" font-size="10.00">aducm3029_gpio.h</text>
</a>
</g>
</g>
<!-- Node2&#45;&gt;Node9 -->
<g id="edge9_Node000002_Node000009" class="edge">
<title>Node2&#45;&gt;Node9</title>
<g id="a_edge9_Node000002_Node000009"><a xlink:title=" ">
<path fill="none" stroke="#63b8ff" d="M598.83,-220.68C550.42,-211.48 469.85,-196.18 416.08,-185.96"/>
<polygon fill="#63b8ff" stroke="#63b8ff" points="416.52,-182.48 406.04,-184.06 415.21,-189.36 416.52,-182.48"/>
</a>
</g>
</g>
<!-- Node10 -->
<g id="Node000010" class="node">
<title>Node10</title>
<g id="a_Node000010"><a xlink:href="aducm3029__uart_8h.html" target="_top" xlink:title="Header file of UART driver for ADuCM302x.">
<polygon fill="white" stroke="#666666" points="288.5,-184 181.5,-184 181.5,-165 288.5,-165 288.5,-184"/>
<text text-anchor="middle" x="235" y="-172" font-family="Helvetica,sans-Serif" font-size="10.00">aducm3029_uart.h</text>
</a>
</g>
</g>
<!-- Node2&#45;&gt;Node10 -->
<g id="edge10_Node000002_Node000010" class="edge">
<title>Node2&#45;&gt;Node10</title>
<g id="a_edge10_Node000002_Node000010"><a xlink:title=" ">
<path fill="none" stroke="#63b8ff" d="M598.8,-223.25C536.22,-215.26 413.15,-199.46 298.74,-184.23"/>
<polygon fill="#63b8ff" stroke="#63b8ff" points="299.14,-180.75 288.77,-182.9 298.22,-187.69 299.14,-180.75"/>
</a>
</g>
</g>
<!-- Node19 -->
<g id="Node000019" class="node">
<title>Node19</title>
<g id="a_Node000019"><a xlink:href="aducm3029__i2c_8h.html" target="_top" xlink:title=" ">
<polygon fill="white" stroke="#666666" points="691,-184 589,-184 589,-165 691,-165 691,-184"/>
<text text-anchor="middle" x="640" y="-172" font-family="Helvetica,sans-Serif" font-size="10.00">aducm3029_i2c.h</text>
</a>
</g>
</g>
<!-- Node2&#45;&gt;Node19 -->
<g id="edge25_Node000002_Node000019" class="edge">
<title>Node2&#45;&gt;Node19</title>
<g id="a_edge25_Node000002_Node000019"><a xlink:title=" ">
<path fill="none" stroke="#63b8ff" d="M640,-219.75C640,-212.8 640,-202.85 640,-194.13"/>
<polygon fill="#63b8ff" stroke="#63b8ff" points="643.5,-194.09 640,-184.09 636.5,-194.09 643.5,-194.09"/>
</a>
</g>
</g>
<!-- Node20 -->
<g id="Node000020" class="node">
<title>Node20</title>
<g id="a_Node000020"><a xlink:href="aducm3029__irq_8h.html" target="_top" xlink:title="Header file of IRQ driver for ADuCM302x.">
<polygon fill="white" stroke="#666666" points="930.5,-184 829.5,-184 829.5,-165 930.5,-165 930.5,-184"/>
<text text-anchor="middle" x="880" y="-172" font-family="Helvetica,sans-Serif" font-size="10.00">aducm3029_irq.h</text>
</a>
</g>
</g>
<!-- Node2&#45;&gt;Node20 -->
<g id="edge26_Node000002_Node000020" class="edge">
<title>Node2&#45;&gt;Node20</title>
<g id="a_edge26_Node000002_Node000020"><a xlink:title=" ">
<path fill="none" stroke="#63b8ff" d="M678.56,-219.98C720.07,-210.82 786.21,-196.21 831.29,-186.26"/>
<polygon fill="#63b8ff" stroke="#63b8ff" points="832.13,-189.66 841.14,-184.08 830.62,-182.82 832.13,-189.66"/>
</a>
</g>
</g>
<!-- Node22 -->
<g id="Node000022" class="node">
<title>Node22</title>
<g id="a_Node000022"><a xlink:href="aducm3029__gpio__irq_8h.html" target="_top" xlink:title="Header file of GPIO IRQ interface for ADuCM3029 platform.">
<polygon fill="white" stroke="#666666" points="1075.5,-184 948.5,-184 948.5,-165 1075.5,-165 1075.5,-184"/>
<text text-anchor="middle" x="1012" y="-172" font-family="Helvetica,sans-Serif" font-size="10.00">aducm3029_gpio_irq.h</text>
</a>
</g>
</g>
<!-- Node2&#45;&gt;Node22 -->
<g id="edge31_Node000002_Node000022" class="edge">
<title>Node2&#45;&gt;Node22</title>
<g id="a_edge31_Node000002_Node000022"><a xlink:title=" ">
<path fill="none" stroke="#63b8ff" d="M681.23,-222.63C744.23,-213.65 865.23,-196.41 942.11,-185.46"/>
<polygon fill="#63b8ff" stroke="#63b8ff" points="942.79,-188.9 952.19,-184.02 941.8,-181.97 942.79,-188.9"/>
</a>
</g>
</g>
<!-- Node23 -->
<g id="Node000023" class="node">
<title>Node23</title>
<g id="a_Node000023"><a xlink:href="aducm3029__uart__stdio_8h.html" target="_top" xlink:title="Header file for UART driver stdout/stdin redirection.">
<polygon fill="white" stroke="#666666" points="570.5,-184 433.5,-184 433.5,-165 570.5,-165 570.5,-184"/>
<text text-anchor="middle" x="502" y="-172" font-family="Helvetica,sans-Serif" font-size="10.00">aducm3029_uart_stdio.h</text>
</a>
</g>
</g>
<!-- Node2&#45;&gt;Node23 -->
<g id="edge33_Node000002_Node000023" class="edge">
<title>Node2&#45;&gt;Node23</title>
<g id="a_edge33_Node000002_Node000023"><a xlink:title=" ">
<path fill="none" stroke="#63b8ff" d="M617.83,-219.98C595.23,-211.3 559.94,-197.75 534.25,-187.88"/>
<polygon fill="#63b8ff" stroke="#63b8ff" points="535.17,-184.49 524.58,-184.17 532.66,-191.02 535.17,-184.49"/>
</a>
</g>
</g>
<!-- Node7 -->
<g id="Node000007" class="node">
<title>Node7</title>
<g id="a_Node000007"><a xlink:href="no__os__spi_8h.html" target="_top" xlink:title="Header file of SPI Interface.">
<polygon fill="white" stroke="#666666" points="806,-74 732,-74 732,-55 806,-55 806,-74"/>
<text text-anchor="middle" x="769" y="-62" font-family="Helvetica,sans-Serif" font-size="10.00">no_os_spi.h</text>
</a>
</g>
</g>
<!-- Node6&#45;&gt;Node7 -->
<g id="edge6_Node000006_Node000007" class="edge">
<title>Node6&#45;&gt;Node7</title>
<g id="a_edge6_Node000006_Node000007"><a xlink:title=" ">
<path fill="none" stroke="#63b8ff" d="M760.74,-164.66C762.19,-147.17 765.47,-107.8 767.44,-84.27"/>
<polygon fill="#63b8ff" stroke="#63b8ff" points="770.94,-84.41 768.28,-74.16 763.96,-83.83 770.94,-84.41"/>
</a>
</g>
</g>
<!-- Node8 -->
<g id="Node000008" class="node">
<title>Node8</title>
<g id="a_Node000008"><a xlink:title=" ">
<polygon fill="#e0e0e0" stroke="#999999" points="703,-129 589,-129 589,-110 703,-110 703,-129"/>
<text text-anchor="middle" x="646" y="-117" font-family="Helvetica,sans-Serif" font-size="10.00">drivers/spi/adi_spi.h</text>
</a>
</g>
</g>
<!-- Node6&#45;&gt;Node8 -->
<g id="edge8_Node000006_Node000008" class="edge">
<title>Node6&#45;&gt;Node8</title>
<g id="a_edge8_Node000006_Node000008"><a xlink:title=" ">
<path fill="none" stroke="#63b8ff" d="M741.68,-164.98C723.34,-156.46 694.89,-143.23 673.77,-133.41"/>
<polygon fill="#63b8ff" stroke="#63b8ff" points="675.19,-130.21 664.65,-129.17 672.24,-136.56 675.19,-130.21"/>
</a>
</g>
</g>
<!-- Node7&#45;&gt;Node3 -->
<g id="edge7_Node000007_Node000003" class="edge">
<title>Node7&#45;&gt;Node3</title>
<g id="a_edge7_Node000007_Node000003"><a xlink:title=" ">
<path fill="none" stroke="#63b8ff" d="M774.28,-54.75C778.71,-47.42 785.16,-36.73 790.62,-27.7"/>
<polygon fill="#63b8ff" stroke="#63b8ff" points="793.64,-29.46 795.81,-19.09 787.65,-25.84 793.64,-29.46"/>
</a>
</g>
</g>
<!-- Node10&#45;&gt;Node3 -->
<g id="edge13_Node000010_Node000003" class="edge">
<title>Node10&#45;&gt;Node3</title>
<g id="a_edge13_Node000010_Node000003"><a xlink:title=" ">
<path fill="none" stroke="#63b8ff" d="M288.79,-166.12C373.36,-154.44 529.09,-132.67 541,-129 559.43,-123.32 562.2,-117.42 580,-110 624.76,-91.35 638.62,-93.55 683,-74 717.06,-59 754.62,-37.95 778.02,-24.27"/>
<polygon fill="#63b8ff" stroke="#63b8ff" points="780,-27.17 786.83,-19.07 776.44,-21.14 780,-27.17"/>
</a>
</g>
</g>
<!-- Node11 -->
<g id="Node000011" class="node">
<title>Node11</title>
<g id="a_Node000011"><a xlink:title=" ">
<polygon fill="#e0e0e0" stroke="#999999" points="311.5,-129 186.5,-129 186.5,-110 311.5,-110 311.5,-129"/>
<text text-anchor="middle" x="249" y="-117" font-family="Helvetica,sans-Serif" font-size="10.00">drivers/uart/adi_uart.h</text>
</a>
</g>
</g>
<!-- Node10&#45;&gt;Node11 -->
<g id="edge11_Node000010_Node000011" class="edge">
<title>Node10&#45;&gt;Node11</title>
<g id="a_edge11_Node000010_Node000011"><a xlink:title=" ">
<path fill="none" stroke="#63b8ff" d="M237.31,-164.75C239.17,-157.72 241.84,-147.62 244.15,-138.84"/>
<polygon fill="#63b8ff" stroke="#63b8ff" points="247.56,-139.65 246.73,-129.09 240.79,-137.86 247.56,-139.65"/>
</a>
</g>
</g>
<!-- Node12 -->
<g id="Node000012" class="node">
<title>Node12</title>
<g id="a_Node000012"><a xlink:title=" ">
<polygon fill="#e0e0e0" stroke="#999999" points="522,-19 460,-19 460,0 522,0 522,-19"/>
<text text-anchor="middle" x="491" y="-7" font-family="Helvetica,sans-Serif" font-size="10.00">stdbool.h</text>
</a>
</g>
</g>
<!-- Node10&#45;&gt;Node12 -->
<g id="edge12_Node000010_Node000012" class="edge">
<title>Node10&#45;&gt;Node12</title>
<g id="a_edge12_Node000010_Node000012"><a xlink:title=" ">
<path fill="none" stroke="#63b8ff" d="M216.7,-164.84C194.51,-153.14 161.84,-131.28 177,-110 209.15,-64.87 372.57,-31.04 450.09,-17.27"/>
<polygon fill="#63b8ff" stroke="#63b8ff" points="450.74,-20.71 459.99,-15.54 449.54,-13.82 450.74,-20.71"/>
</a>
</g>
</g>
<!-- Node13 -->
<g id="Node000013" class="node">
<title>Node13</title>
<g id="a_Node000013"><a xlink:href="no__os__error_8h.html" target="_top" xlink:title="Error codes definition.">
<polygon fill="white" stroke="#666666" points="412,-129 330,-129 330,-110 412,-110 412,-129"/>
<text text-anchor="middle" x="371" y="-117" font-family="Helvetica,sans-Serif" font-size="10.00">no_os_error.h</text>
</a>
</g>
</g>
<!-- Node10&#45;&gt;Node13 -->
<g id="edge14_Node000010_Node000013" class="edge">
<title>Node10&#45;&gt;Node13</title>
<g id="a_edge14_Node000010_Node000013"><a xlink:title=" ">
<path fill="none" stroke="#63b8ff" d="M256.85,-164.98C279.12,-156.3 313.9,-142.75 339.22,-132.88"/>
<polygon fill="#63b8ff" stroke="#63b8ff" points="340.71,-136.06 348.75,-129.17 338.16,-129.54 340.71,-136.06"/>
</a>
</g>
</g>
<!-- Node15 -->
<g id="Node000015" class="node">
<title>Node15</title>
<g id="a_Node000015"><a xlink:href="no__os__irq_8h.html" target="_top" xlink:title="Header file of IRQ interface.">
<polygon fill="white" stroke="#666666" points="869,-129 797,-129 797,-110 869,-110 869,-129"/>
<text text-anchor="middle" x="833" y="-117" font-family="Helvetica,sans-Serif" font-size="10.00">no_os_irq.h</text>
</a>
</g>
</g>
<!-- Node10&#45;&gt;Node15 -->
<g id="edge16_Node000010_Node000015" class="edge">
<title>Node10&#45;&gt;Node15</title>
<g id="a_edge16_Node000010_Node000015"><a xlink:title=" ">
<path fill="none" stroke="#63b8ff" d="M288.75,-165.95C291.54,-165.62 294.3,-165.3 297,-165 391.51,-154.61 674.83,-132.59 786.77,-124.02"/>
<polygon fill="#63b8ff" stroke="#63b8ff" points="787.04,-127.51 796.74,-123.26 786.5,-120.53 787.04,-127.51"/>
</a>
</g>
</g>
<!-- Node16 -->
<g id="Node000016" class="node">
<title>Node16</title>
<g id="a_Node000016"><a xlink:href="no__os__uart_8h.html" target="_top" xlink:title="Header file of UART interface.">
<polygon fill="white" stroke="#666666" points="532.5,-129 453.5,-129 453.5,-110 532.5,-110 532.5,-129"/>
<text text-anchor="middle" x="493" y="-117" font-family="Helvetica,sans-Serif" font-size="10.00">no_os_uart.h</text>
</a>
</g>
</g>
<!-- Node10&#45;&gt;Node16 -->
<g id="edge18_Node000010_Node000016" class="edge">
<title>Node10&#45;&gt;Node16</title>
<g id="a_edge18_Node000010_Node000016"><a xlink:title=" ">
<path fill="none" stroke="#63b8ff" d="M276.45,-164.98C321.93,-155.64 394.9,-140.65 443.39,-130.69"/>
<polygon fill="#63b8ff" stroke="#63b8ff" points="444.25,-134.09 453.35,-128.65 442.85,-127.23 444.25,-134.09"/>
</a>
</g>
</g>
<!-- Node14 -->
<g id="Node000014" class="node">
<title>Node14</title>
<g id="a_Node000014"><a xlink:title=" ">
<polygon fill="#e0e0e0" stroke="#999999" points="396.5,-74 345.5,-74 345.5,-55 396.5,-55 396.5,-74"/>
<text text-anchor="middle" x="371" y="-62" font-family="Helvetica,sans-Serif" font-size="10.00">errno.h</text>
</a>
</g>
</g>
<!-- Node13&#45;&gt;Node14 -->
<g id="edge15_Node000013_Node000014" class="edge">
<title>Node13&#45;&gt;Node14</title>
<g id="a_edge15_Node000013_Node000014"><a xlink:title=" ">
<path fill="none" stroke="#63b8ff" d="M371,-109.75C371,-102.8 371,-92.85 371,-84.13"/>
<polygon fill="#63b8ff" stroke="#63b8ff" points="374.5,-84.09 371,-74.09 367.5,-84.09 374.5,-84.09"/>
</a>
</g>
</g>
<!-- Node15&#45;&gt;Node3 -->
<g id="edge17_Node000015_Node000003" class="edge">
<title>Node15&#45;&gt;Node3</title>
<g id="a_edge17_Node000015_Node000003"><a xlink:title=" ">
<path fill="none" stroke="#63b8ff" d="M830.63,-109.85C827.26,-97.61 820.84,-74.54 815,-55 812.42,-46.36 809.43,-36.81 806.88,-28.79"/>
<polygon fill="#63b8ff" stroke="#63b8ff" points="810.14,-27.47 803.76,-19.01 803.47,-29.6 810.14,-27.47"/>
</a>
</g>
</g>
<!-- Node16&#45;&gt;Node3 -->
<g id="edge19_Node000016_Node000003" class="edge">
<title>Node16&#45;&gt;Node3</title>
<g id="a_edge19_Node000016_Node000003"><a xlink:title=" ">
<path fill="none" stroke="#63b8ff" d="M527.37,-109.99C558.86,-101.86 606.59,-88.69 647,-74 666.64,-66.86 670.74,-63.11 690,-55 716.67,-43.77 747.2,-31.57 769.48,-22.8"/>
<polygon fill="#63b8ff" stroke="#63b8ff" points="770.77,-26.05 778.79,-19.14 768.21,-19.54 770.77,-26.05"/>
</a>
</g>
</g>
<!-- Node16&#45;&gt;Node12 -->
<g id="edge20_Node000016_Node000012" class="edge">
<title>Node16&#45;&gt;Node12</title>
<g id="a_edge20_Node000016_Node000012"><a xlink:title=" ">
<path fill="none" stroke="#63b8ff" d="M492.84,-109.66C492.51,-92.17 491.78,-52.8 491.35,-29.27"/>
<polygon fill="#63b8ff" stroke="#63b8ff" points="494.84,-29.09 491.16,-19.16 487.85,-29.22 494.84,-29.09"/>
</a>
</g>
</g>
<!-- Node17 -->
<g id="Node000017" class="node">
<title>Node17</title>
<g id="a_Node000017"><a xlink:href="no__os__lf256fifo_8h.html" target="_top" xlink:title="SPSC lock&#45;free fifo of fixed size (256), specialized for UART.">
<polygon fill="white" stroke="#666666" points="638,-74 538,-74 538,-55 638,-55 638,-74"/>
<text text-anchor="middle" x="588" y="-62" font-family="Helvetica,sans-Serif" font-size="10.00">no_os_lf256fifo.h</text>
</a>
</g>
</g>
<!-- Node16&#45;&gt;Node17 -->
<g id="edge21_Node000016_Node000017" class="edge">
<title>Node16&#45;&gt;Node17</title>
<g id="a_edge21_Node000016_Node000017"><a xlink:title=" ">
<path fill="none" stroke="#63b8ff" d="M508.26,-109.98C523.13,-101.69 545.98,-88.94 563.42,-79.22"/>
<polygon fill="#63b8ff" stroke="#63b8ff" points="565.43,-82.1 572.46,-74.17 562.02,-75.99 565.43,-82.1"/>
</a>
</g>
</g>
<!-- Node17&#45;&gt;Node3 -->
<g id="edge23_Node000017_Node000003" class="edge">
<title>Node17&#45;&gt;Node3</title>
<g id="a_edge23_Node000017_Node000003"><a xlink:title=" ">
<path fill="none" stroke="#63b8ff" d="M622.22,-54.98C661.17,-45.29 724.53,-29.53 764.43,-19.6"/>
<polygon fill="#63b8ff" stroke="#63b8ff" points="765.42,-22.96 774.28,-17.15 763.73,-16.17 765.42,-22.96"/>
</a>
</g>
</g>
<!-- Node17&#45;&gt;Node12 -->
<g id="edge24_Node000017_Node000012" class="edge">
<title>Node17&#45;&gt;Node12</title>
<g id="a_edge24_Node000017_Node000012"><a xlink:title=" ">
<path fill="none" stroke="#63b8ff" d="M572.42,-54.98C557.23,-46.69 533.9,-33.94 516.1,-24.22"/>
<polygon fill="#63b8ff" stroke="#63b8ff" points="517.32,-20.89 506.87,-19.17 513.97,-27.04 517.32,-20.89"/>
</a>
</g>
</g>
<!-- Node18 -->
<g id="Node000018" class="node">
<title>Node18</title>
<g id="a_Node000018"><a xlink:title=" ">
<polygon fill="#e0e0e0" stroke="#999999" points="614.5,-19 561.5,-19 561.5,0 614.5,0 614.5,-19"/>
<text text-anchor="middle" x="588" y="-7" font-family="Helvetica,sans-Serif" font-size="10.00">stdlib.h</text>
</a>
</g>
</g>
<!-- Node17&#45;&gt;Node18 -->
<g id="edge22_Node000017_Node000018" class="edge">
<title>Node17&#45;&gt;Node18</title>
<g id="a_edge22_Node000017_Node000018"><a xlink:title=" ">
<path fill="none" stroke="#63b8ff" d="M588,-54.75C588,-47.8 588,-37.85 588,-29.13"/>
<polygon fill="#63b8ff" stroke="#63b8ff" points="591.5,-29.09 588,-19.09 584.5,-29.09 591.5,-29.09"/>
</a>
</g>
</g>
<!-- Node20&#45;&gt;Node3 -->
<g id="edge29_Node000020_Node000003" class="edge">
<title>Node20&#45;&gt;Node3</title>
<g id="a_edge29_Node000020_Node000003"><a xlink:title=" ">
<path fill="none" stroke="#63b8ff" d="M881.35,-164.97C882.98,-152.49 884.72,-128.68 878,-110 865.72,-75.83 836.91,-44.08 818.23,-26.01"/>
<polygon fill="#63b8ff" stroke="#63b8ff" points="820.6,-23.44 810.92,-19.14 815.81,-28.54 820.6,-23.44"/>
</a>
</g>
</g>
<!-- Node20&#45;&gt;Node12 -->
<g id="edge28_Node000020_Node000012" class="edge">
<title>Node20&#45;&gt;Node12</title>
<g id="a_edge28_Node000020_Node000012"><a xlink:title=" ">
<path fill="none" stroke="#63b8ff" d="M860.7,-164.99C829.82,-151.65 767.17,-125.73 712,-110 632.29,-87.27 596.8,-121.68 529,-74 513.27,-62.94 502.94,-43.11 497.08,-28.54"/>
<polygon fill="#63b8ff" stroke="#63b8ff" points="500.33,-27.23 493.59,-19.06 493.76,-29.66 500.33,-27.23"/>
</a>
</g>
</g>
<!-- Node20&#45;&gt;Node15 -->
<g id="edge30_Node000020_Node000015" class="edge">
<title>Node20&#45;&gt;Node15</title>
<g id="a_edge30_Node000020_Node000015"><a xlink:title=" ">
<path fill="none" stroke="#63b8ff" d="M872.24,-164.75C865.53,-157.18 855.66,-146.05 847.49,-136.84"/>
<polygon fill="#63b8ff" stroke="#63b8ff" points="849.87,-134.25 840.62,-129.09 844.63,-138.89 849.87,-134.25"/>
</a>
</g>
</g>
<!-- Node21 -->
<g id="Node000021" class="node">
<title>Node21</title>
<g id="a_Node000021"><a xlink:title=" ">
<polygon fill="#e0e0e0" stroke="#999999" points="1061.5,-129 938.5,-129 938.5,-110 1061.5,-110 1061.5,-129"/>
<text text-anchor="middle" x="1000" y="-117" font-family="Helvetica,sans-Serif" font-size="10.00">drivers/xint/adi_xint.h</text>
</a>
</g>
</g>
<!-- Node20&#45;&gt;Node21 -->
<g id="edge27_Node000020_Node000021" class="edge">
<title>Node20&#45;&gt;Node21</title>
<g id="a_edge27_Node000020_Node000021"><a xlink:title=" ">
<path fill="none" stroke="#63b8ff" d="M899.28,-164.98C918.67,-156.42 948.81,-143.11 971.07,-133.28"/>
<polygon fill="#63b8ff" stroke="#63b8ff" points="972.64,-136.41 980.37,-129.17 969.81,-130.01 972.64,-136.41"/>
</a>
</g>
</g>
<!-- Node22&#45;&gt;Node21 -->
<g id="edge32_Node000022_Node000021" class="edge">
<title>Node22&#45;&gt;Node21</title>
<g id="a_edge32_Node000022_Node000021"><a xlink:title=" ">
<path fill="none" stroke="#63b8ff" d="M1010.02,-164.75C1008.43,-157.72 1006.14,-147.62 1004.15,-138.84"/>
<polygon fill="#63b8ff" stroke="#63b8ff" points="1007.57,-138.07 1001.94,-129.09 1000.74,-139.62 1007.57,-138.07"/>
</a>
</g>
</g>
<!-- Node23&#45;&gt;Node16 -->
<g id="edge34_Node000023_Node000016" class="edge">
<title>Node23&#45;&gt;Node16</title>
<g id="a_edge34_Node000023_Node000016"><a xlink:title=" ">
<path fill="none" stroke="#63b8ff" d="M500.51,-164.75C499.33,-157.8 497.64,-147.85 496.16,-139.13"/>
<polygon fill="#63b8ff" stroke="#63b8ff" points="499.58,-138.36 494.46,-129.09 492.68,-139.53 499.58,-138.36"/>
</a>
</g>
</g>
<!-- Node25&#45;&gt;Node3 -->
<g id="edge37_Node000025_Node000003" class="edge">
<title>Node25&#45;&gt;Node3</title>
<g id="a_edge37_Node000025_Node000003"><a xlink:title=" ">
<path fill="none" stroke="#63b8ff" d="M1131.91,-57.11C1127.22,-56.39 1122.51,-55.67 1118,-55 1016.62,-39.91 896.79,-23.46 837.71,-15.45"/>
<polygon fill="#63b8ff" stroke="#63b8ff" points="838.12,-11.97 827.74,-14.1 837.18,-18.91 838.12,-11.97"/>
</a>
</g>
</g>
</g>
</svg>

<g id="navigator" transform="translate(0 0)" fill="#404254">
  <rect fill="#f2f5e9" fill-opacity="0.5" stroke="#606060" stroke-width=".5" x="0" y="0" width="60" height="60"/>
  <use id="zoomplus" xlink:href="#zoomPlus" x="17" y="9" onmousedown="handleZoom(evt,'in')"/>
  <use id="zoomminus" xlink:href="#zoomMin" x="42" y="9" onmousedown="handleZoom(evt,'out')"/>
  <use id="reset" xlink:href="#resetDef" x="30" y="36" onmousedown="handleReset()"/>
   <use id="arrowup" xlink:href="#arrowUp" x="0" y="0" onmousedown="handlePan(0,-1)"/>
  <use id="arrowright" xlink:href="#arrowRight" x="0" y="0" onmousedown="handlePan(1,0)"/>
  <use id="arrowdown" xlink:href="#arrowDown" x="0" y="0" onmousedown="handlePan(0,1)"/>
  <use id="arrowleft" xlink:href="#arrowLeft" x="0" y="0" onmousedown="handlePan(-1,0)"/>
</g>
<svg viewBox="0 0 15 15" width="100%" height="30px" preserveAspectRatio="xMaxYMin meet">
 <g id="arrow_out" transform="scale(0.3 0.3)">
  <a xlink:href="cn0565_2src_2platform_2aducm3029_2main_8c__incl_org.svg" target="_base">
   <rect id="button" ry="5" rx="5" y="6" x="6" height="38" width="38"
        fill="#f2f5e9" fill-opacity="0.5" stroke="#606060" stroke-width="1.0"/>
   <path id="arrow"
     d="M 11.500037,31.436501 C 11.940474,20.09759 22.043105,11.32322 32.158766,21.979434 L 37.068811,17.246167 C 37.068811,17.246167 37.088388,32 37.088388,32 L 22.160133,31.978069 C 22.160133,31.978069 26.997745,27.140456 26.997745,27.140456 C 18.528582,18.264221 13.291696,25.230495 11.500037,31.436501 z"
     style="fill:#404040;"/>
  </a>
 </g>
</svg>

<style type='text/css'>
<![CDATA[
[data-mouse-over-selected='false'] { opacity: 0.7; }
[data-mouse-over-selected='true']  { opacity: 1.0; }
]]>
</style>
<script type="application/ecmascript"><![CDATA[
document.addEventListener('DOMContentLoaded', (event) => {
  highlightEdges();
  highlightAdjacentNodes();
});
]]></script>
</svg>
