<?xml version="1.0" encoding="UTF-8" standalone="no"?>
<!DOCTYPE svg PUBLIC "-//W3C//DTD SVG 1.1//EN"
 "http://www.w3.org/Graphics/SVG/1.1/DTD/svg11.dtd">
<!-- Generated by graphviz version 2.43.0 (0)
 -->
<!-- Title: projects/demo_esp/src/platform/maxim/parameters.h Pages: 1 -->
<svg width="472pt" height="93pt"
 viewBox="0.00 0.00 472.00 93.00" xmlns="http://www.w3.org/2000/svg" xmlns:xlink="http://www.w3.org/1999/xlink">
<g id="graph0" class="graph" transform="scale(1 1) rotate(0) translate(4 89)">
<title>projects/demo_esp/src/platform/maxim/parameters.h</title>
<!-- Node1 -->
<g id="Node000001" class="node">
<title>Node1</title>
<g id="a_Node000001"><a xlink:title="Definitions specific to maxim platform used by demo_esp project.">
<polygon fill="#999999" stroke="#666666" points="300.5,-85 133.5,-85 133.5,-55 300.5,-55 300.5,-85"/>
<text text-anchor="start" x="141.5" y="-73" font-family="Helvetica,sans-Serif" font-size="10.00">projects/demo_esp/src</text>
<text text-anchor="middle" x="217" y="-62" font-family="Helvetica,sans-Serif" font-size="10.00">/platform/maxim/parameters.h</text>
</a>
</g>
</g>
<!-- Node2 -->
<g id="Node000002" class="node">
<title>Node2</title>
<g id="a_Node000002"><a xlink:title=" ">
<polygon fill="#e0e0e0" stroke="#999999" points="50,-19 0,-19 0,0 50,0 50,-19"/>
<text text-anchor="middle" x="25" y="-7" font-family="Helvetica,sans-Serif" font-size="10.00">stdio.h</text>
</a>
</g>
</g>
<!-- Node1&#45;&gt;Node2 -->
<g id="edge1_Node000001_Node000002" class="edge">
<title>Node1&#45;&gt;Node2</title>
<g id="a_edge1_Node000001_Node000002"><a xlink:title=" ">
<path fill="none" stroke="#63b8ff" d="M171.01,-54.99C136.92,-44.6 91.16,-30.66 60.02,-21.17"/>
<polygon fill="#63b8ff" stroke="#63b8ff" points="60.64,-17.7 50.05,-18.13 58.6,-24.4 60.64,-17.7"/>
</a>
</g>
</g>
<!-- Node3 -->
<g id="Node000003" class="node">
<title>Node3</title>
<g id="a_Node000003"><a xlink:title=" ">
<polygon fill="#e0e0e0" stroke="#999999" points="159.5,-19 68.5,-19 68.5,0 159.5,0 159.5,-19"/>
<text text-anchor="middle" x="114" y="-7" font-family="Helvetica,sans-Serif" font-size="10.00">maxim_timer.h</text>
</a>
</g>
</g>
<!-- Node1&#45;&gt;Node3 -->
<g id="edge2_Node000001_Node000003" class="edge">
<title>Node1&#45;&gt;Node3</title>
<g id="a_edge2_Node000001_Node000003"><a xlink:title=" ">
<path fill="none" stroke="#63b8ff" d="M192.33,-54.99C175.91,-45.66 154.45,-33.47 138.14,-24.21"/>
<polygon fill="#63b8ff" stroke="#63b8ff" points="139.63,-21.03 129.21,-19.14 136.18,-27.12 139.63,-21.03"/>
</a>
</g>
</g>
<!-- Node4 -->
<g id="Node000004" class="node">
<title>Node4</title>
<g id="a_Node000004"><a xlink:title=" ">
<polygon fill="#e0e0e0" stroke="#999999" points="256,-19 178,-19 178,0 256,0 256,-19"/>
<text text-anchor="middle" x="217" y="-7" font-family="Helvetica,sans-Serif" font-size="10.00">maxim_irq.h</text>
</a>
</g>
</g>
<!-- Node1&#45;&gt;Node4 -->
<g id="edge3_Node000001_Node000004" class="edge">
<title>Node1&#45;&gt;Node4</title>
<g id="a_edge3_Node000001_Node000004"><a xlink:title=" ">
<path fill="none" stroke="#63b8ff" d="M217,-54.84C217,-47.21 217,-37.7 217,-29.45"/>
<polygon fill="#63b8ff" stroke="#63b8ff" points="220.5,-29.27 217,-19.27 213.5,-29.27 220.5,-29.27"/>
</a>
</g>
</g>
<!-- Node5 -->
<g id="Node000005" class="node">
<title>Node5</title>
<g id="a_Node000005"><a xlink:title=" ">
<polygon fill="#e0e0e0" stroke="#999999" points="359.5,-19 274.5,-19 274.5,0 359.5,0 359.5,-19"/>
<text text-anchor="middle" x="317" y="-7" font-family="Helvetica,sans-Serif" font-size="10.00">maxim_uart.h</text>
</a>
</g>
</g>
<!-- Node1&#45;&gt;Node5 -->
<g id="edge4_Node000001_Node000005" class="edge">
<title>Node1&#45;&gt;Node5</title>
<g id="a_edge4_Node000001_Node000005"><a xlink:title=" ">
<path fill="none" stroke="#63b8ff" d="M240.95,-54.99C256.89,-45.66 277.73,-33.47 293.56,-24.21"/>
<polygon fill="#63b8ff" stroke="#63b8ff" points="295.37,-27.21 302.23,-19.14 291.83,-21.17 295.37,-27.21"/>
</a>
</g>
</g>
<!-- Node6 -->
<g id="Node000006" class="node">
<title>Node6</title>
<g id="a_Node000006"><a xlink:title=" ">
<polygon fill="#e0e0e0" stroke="#999999" points="464,-19 378,-19 378,0 464,0 464,-19"/>
<text text-anchor="middle" x="421" y="-7" font-family="Helvetica,sans-Serif" font-size="10.00">maxim_gpio.h</text>
</a>
</g>
</g>
<!-- Node1&#45;&gt;Node6 -->
<g id="edge5_Node000001_Node000006" class="edge">
<title>Node1&#45;&gt;Node6</title>
<g id="a_edge5_Node000001_Node000006"><a xlink:title=" ">
<path fill="none" stroke="#63b8ff" d="M265.86,-54.99C301.22,-44.85 348.4,-31.32 381.41,-21.85"/>
<polygon fill="#63b8ff" stroke="#63b8ff" points="382.52,-25.17 391.17,-19.05 380.59,-18.45 382.52,-25.17"/>
</a>
</g>
</g>
</g>
</svg>
