<?xml version="1.0" encoding="UTF-8" standalone="no"?>
<!DOCTYPE svg PUBLIC "-//W3C//DTD SVG 1.1//EN"
 "http://www.w3.org/Graphics/SVG/1.1/DTD/svg11.dtd">
<!-- Generated by graphviz version 2.43.0 (0)
 -->
<!-- Title: mqtt_message_handler Pages: 1 -->
<svg width="445pt" height="76pt"
 viewBox="0.00 0.00 445.00 75.50" xmlns="http://www.w3.org/2000/svg" xmlns:xlink="http://www.w3.org/1999/xlink">
<g id="graph0" class="graph" transform="scale(1 1) rotate(0) translate(4 71.5)">
<title>mqtt_message_handler</title>
<!-- Node1 -->
<g id="Node000001" class="node">
<title>Node1</title>
<g id="a_Node000001"><a xlink:title=" ">
<polygon fill="#999999" stroke="#666666" points="437,-40 306,-40 306,-21 437,-21 437,-40"/>
<text text-anchor="middle" x="371.5" y="-28" font-family="Helvetica,sans-Serif" font-size="10.00">mqtt_message_handler</text>
</a>
</g>
</g>
<!-- Node2 -->
<g id="Node000002" class="node">
<title>Node2</title>
<g id="a_Node000002"><a xlink:href="demo__esp_2src_2examples_2basic_2basic__example_8c.html#aa131b85a69608d1e71133b41b32d29e1" target="_top" xlink:title=" ">
<polygon fill="white" stroke="#666666" points="270,-67.5 156,-67.5 156,-37.5 270,-37.5 270,-67.5"/>
<text text-anchor="start" x="164" y="-55.5" font-family="Helvetica,sans-Serif" font-size="10.00">init_and_connect_to</text>
<text text-anchor="middle" x="213" y="-44.5" font-family="Helvetica,sans-Serif" font-size="10.00">_mqtt_broker</text>
</a>
</g>
</g>
<!-- Node1&#45;&gt;Node2 -->
<g id="edge1_Node000001_Node000002" class="edge">
<title>Node1&#45;&gt;Node2</title>
<g id="a_edge1_Node000001_Node000002"><a xlink:title=" ">
<path fill="none" stroke="#63b8ff" d="M295.92,-40.98C287.34,-42.19 278.7,-43.41 270.41,-44.57"/>
<polygon fill="#63b8ff" stroke="#63b8ff" points="296.53,-44.43 305.94,-39.58 295.55,-37.5 296.53,-44.43"/>
</a>
</g>
</g>
<!-- Node4 -->
<g id="Node000004" class="node">
<title>Node4</title>
<g id="a_Node000004"><a xlink:href="eval-ade9430_2src_2app_2main_8c.html#ae66f6b31b5ad750f1fe042a706a4e3d4" target="_top" xlink:title="Main function execution for maxim platform.">
<polygon fill="white" stroke="#666666" points="233.5,-19 192.5,-19 192.5,0 233.5,0 233.5,-19"/>
<text text-anchor="middle" x="213" y="-7" font-family="Helvetica,sans-Serif" font-size="10.00">main</text>
</a>
</g>
</g>
<!-- Node1&#45;&gt;Node4 -->
<g id="edge3_Node000001_Node000004" class="edge">
<title>Node1&#45;&gt;Node4</title>
<g id="a_edge3_Node000001_Node000004"><a xlink:title=" ">
<path fill="none" stroke="#63b8ff" d="M295.84,-20.48C272.95,-17.41 249.66,-14.28 233.81,-12.16"/>
<polygon fill="#63b8ff" stroke="#63b8ff" points="295.57,-23.98 305.94,-21.84 296.5,-17.04 295.57,-23.98"/>
</a>
</g>
</g>
<!-- Node3 -->
<g id="Node000003" class="node">
<title>Node3</title>
<g id="a_Node000003"><a xlink:href="demo__esp_2src_2examples_2basic_2basic__example_8c.html#a72943dc9011d36293cb05ca5d7cb6899" target="_top" xlink:title="Basic example main execution.">
<polygon fill="white" stroke="#666666" points="120,-62 0,-62 0,-43 120,-43 120,-62"/>
<text text-anchor="middle" x="60" y="-50" font-family="Helvetica,sans-Serif" font-size="10.00">basic_example_main</text>
</a>
</g>
</g>
<!-- Node2&#45;&gt;Node3 -->
<g id="edge2_Node000002_Node000003" class="edge">
<title>Node2&#45;&gt;Node3</title>
<g id="a_edge2_Node000002_Node000003"><a xlink:title=" ">
<path fill="none" stroke="#63b8ff" d="M145.53,-52.5C137.05,-52.5 128.41,-52.5 120.05,-52.5"/>
<polygon fill="#63b8ff" stroke="#63b8ff" points="145.77,-56 155.77,-52.5 145.77,-49 145.77,-56"/>
</a>
</g>
</g>
</g>
</svg>
