<?xml version="1.0" encoding="UTF-8" standalone="no"?>
<!DOCTYPE svg PUBLIC "-//W3C//DTD SVG 1.1//EN"
 "http://www.w3.org/Graphics/SVG/1.1/DTD/svg11.dtd">
<!-- Generated by graphviz version 2.43.0 (0)
 -->
<!-- Title: mqtt_message_handler Pages: 1 -->
<svg width="414pt" height="76pt"
 viewBox="0.00 0.00 414.00 75.50" xmlns="http://www.w3.org/2000/svg" xmlns:xlink="http://www.w3.org/1999/xlink">
<g id="graph0" class="graph" transform="scale(1 1) rotate(0) translate(4 71.5)">
<title>mqtt_message_handler</title>
<!-- Node1 -->
<g id="Node000001" class="node">
<title>Node1</title>
<g id="a_Node000001"><a xlink:title=" ">
<polygon fill="#999999" stroke="#666666" points="406,-45.5 275,-45.5 275,-26.5 406,-26.5 406,-45.5"/>
<text text-anchor="middle" x="340.5" y="-33.5" font-family="Helvetica,sans-Serif" font-size="10.00">mqtt_message_handler</text>
</a>
</g>
</g>
<!-- Node2 -->
<g id="Node000002" class="node">
<title>Node2</title>
<g id="a_Node000002"><a xlink:href="iot__example_8c.html#ac25cbf8ae523e89cb0617e68c98bc697" target="_top" xlink:title="Main function execution for maxim platform.">
<polygon fill="white" stroke="#666666" points="226.5,-67.5 137.5,-67.5 137.5,-48.5 226.5,-48.5 226.5,-67.5"/>
<text text-anchor="middle" x="182" y="-55.5" font-family="Helvetica,sans-Serif" font-size="10.00">example_main</text>
</a>
</g>
</g>
<!-- Node1&#45;&gt;Node2 -->
<g id="edge1_Node000001_Node000002" class="edge">
<title>Node1&#45;&gt;Node2</title>
<g id="a_edge1_Node000001_Node000002"><a xlink:title=" ">
<path fill="none" stroke="#63b8ff" d="M265.02,-46.47C251.97,-48.3 238.78,-50.16 226.91,-51.83"/>
<polygon fill="#63b8ff" stroke="#63b8ff" points="265.53,-49.93 274.94,-45.08 264.55,-43 265.53,-49.93"/>
</a>
</g>
</g>
<!-- Node3 -->
<g id="Node000003" class="node">
<title>Node3</title>
<g id="a_Node000003"><a xlink:href="demo__esp_2src_2examples_2basic_2basic__example_8c.html#aa131b85a69608d1e71133b41b32d29e1" target="_top" xlink:title=" ">
<polygon fill="white" stroke="#666666" points="239,-30 125,-30 125,0 239,0 239,-30"/>
<text text-anchor="start" x="133" y="-18" font-family="Helvetica,sans-Serif" font-size="10.00">init_and_connect_to</text>
<text text-anchor="middle" x="182" y="-7" font-family="Helvetica,sans-Serif" font-size="10.00">_mqtt_broker</text>
</a>
</g>
</g>
<!-- Node1&#45;&gt;Node3 -->
<g id="edge2_Node000001_Node000003" class="edge">
<title>Node1&#45;&gt;Node3</title>
<g id="a_edge2_Node000001_Node000003"><a xlink:title=" ">
<path fill="none" stroke="#63b8ff" d="M264.92,-25.99C256.34,-24.84 247.7,-23.68 239.41,-22.57"/>
<polygon fill="#63b8ff" stroke="#63b8ff" points="264.57,-29.48 274.94,-27.34 265.5,-22.54 264.57,-29.48"/>
</a>
</g>
</g>
<!-- Node4 -->
<g id="Node000004" class="node">
<title>Node4</title>
<g id="a_Node000004"><a xlink:href="demo__esp_2src_2examples_2basic_2basic__example_8c.html#ac25cbf8ae523e89cb0617e68c98bc697" target="_top" xlink:title="Basic example main execution.">
<polygon fill="white" stroke="#666666" points="89,-24.5 0,-24.5 0,-5.5 89,-5.5 89,-24.5"/>
<text text-anchor="middle" x="44.5" y="-12.5" font-family="Helvetica,sans-Serif" font-size="10.00">example_main</text>
</a>
</g>
</g>
<!-- Node3&#45;&gt;Node4 -->
<g id="edge3_Node000003_Node000004" class="edge">
<title>Node3&#45;&gt;Node4</title>
<g id="a_edge3_Node000003_Node000004"><a xlink:title=" ">
<path fill="none" stroke="#63b8ff" d="M114.57,-15C105.89,-15 97.18,-15 89.01,-15"/>
<polygon fill="#63b8ff" stroke="#63b8ff" points="114.71,-18.5 124.71,-15 114.71,-11.5 114.71,-18.5"/>
</a>
</g>
</g>
</g>
</svg>
