<?xml version="1.0" encoding="UTF-8" standalone="no"?>
<!DOCTYPE svg PUBLIC "-//W3C//DTD SVG 1.1//EN"
 "http://www.w3.org/Graphics/SVG/1.1/DTD/svg11.dtd">
<!-- Generated by graphviz version 2.43.0 (0)
 -->
<!-- Title: drivers/potentiometer Pages: 1 -->
<!--zoomable 180 -->

<svg id="main" version="1.1" xmlns="http://www.w3.org/2000/svg" xmlns:xlink="http://www.w3.org/1999/xlink" xml:space="preserve" onload="init(evt)">

<style type="text/css"><![CDATA[
.node, .edge {opacity: 0.7;}
.node.selected, .edge.selected {opacity: 1;}
.edge:hover path { stroke: red; }
.edge:hover polygon { stroke: red; fill: red; }
]]></style>

<defs>
  <circle id="rim" cx="0" cy="0" r="7"/>
  <circle id="rim2" cx="0" cy="0" r="3.5"/>
  <g id="zoomPlus">
    <use xlink:href="#rim" fill="#404040"><set attributeName="fill" to="#808080" begin="zoomplus.mouseover" end="zoomplus.mouseout"/></use>
    <path d="M-4,0h8M0,-4v8" fill="none" stroke="white" stroke-width="1.5" pointer-events="none"/>
  </g>
  <g id="zoomMin">
    <use xlink:href="#rim" fill="#404040"><set attributeName="fill" to="#808080" begin="zoomminus.mouseover" end="zoomminus.mouseout"/></use>
    <path d="M-4,0h8" fill="none" stroke="white" stroke-width="1.5" pointer-events="none"/>
  </g>
  <g id="arrowUp" transform="translate(30 24)">
    <use xlink:href="#rim"/>
    <path pointer-events="none" fill="none" stroke="white" stroke-width="1.5" d="M0,-3.0v7 M-2.5,-0.5L0,-3.0L2.5,-0.5"/>
  </g>
  <g id="arrowRight" transform="rotate(90) translate(36 -43)">
    <use xlink:href="#rim"/>
    <path pointer-events="none" fill="none" stroke="white" stroke-width="1.5" d="M0,-3.0v7 M-2.5,-0.5L0,-3.0L2.5,-0.5"/>
  </g>
  <g id="arrowDown" transform="rotate(180) translate(-30 -48)">
    <use xlink:href="#rim"/>
    <path pointer-events="none" fill="none" stroke="white" stroke-width="1.5" d="M0,-3.0v7 M-2.5,-0.5L0,-3.0L2.5,-0.5"/>
  </g>
  <g id="arrowLeft" transform="rotate(270) translate(-36 17)">
    <use xlink:href="#rim"/>
    <path pointer-events="none" fill="none" stroke="white" stroke-width="1.5" d="M0,-3.0v7 M-2.5,-0.5L0,-3.0L2.5,-0.5"/>
  </g>
  <g id="resetDef">
    <use xlink:href="#rim2" fill="#404040"><set attributeName="fill" to="#808080" begin="reset.mouseover" end="reset.mouseout"/></use>
  </g>
</defs>
<script type="application/ecmascript">
var viewWidth = 853;
var viewHeight = 180;
var sectionId = 'dynsection-0';
</script>
<script type="application/ecmascript" xlink:href="svg.min.js"/>
<svg id="graph" class="graph">
<g id="viewport">
<title>drivers/potentiometer</title>
<g id="clust1" class="cluster">
<title>clusterdir_14bc92f4b96c8519b376567118ac28b3</title>
<g id="a_clust1"><a xlink:href="dir_14bc92f4b96c8519b376567118ac28b3.html" target="_top" xlink:title="drivers">
<polygon fill="#edf0f7" stroke="#404040" stroke-dasharray="5,2" points="8,-39 8,-164 837,-164 837,-39 8,-39"/>
<text text-anchor="middle" x="422.5" y="-152" font-family="Helvetica,sans-Serif" font-size="10.00">drivers</text>
</a>
</g>
</g>
<g id="clust2" class="cluster">
<title>clusterdir_e419f953571bbde52e1b066c5b259aad</title>
<g id="a_clust2"><a xlink:href="dir_e419f953571bbde52e1b066c5b259aad.html" target="_top">
<polygon fill="#edf0f7" stroke="#404040" stroke-width="2" points="16,-47 16,-137 829,-137 829,-47 16,-47"/>
</a>
</g>
</g>
<!-- dir_e419f953571bbde52e1b066c5b259aad -->
<g id="node1" class="node">
<title>dir_e419f953571bbde52e1b066c5b259aad</title>
<text text-anchor="middle" x="778" y="-117" font-family="Helvetica,sans-Serif" font-size="10.00">potentiometer</text>
</g>
<!-- dir_6787bb17f0a8956df0cac710764aa7be -->
<g id="node2" class="node">
<title>dir_6787bb17f0a8956df0cac710764aa7be</title>
<g id="a_node2"><a xlink:href="dir_6787bb17f0a8956df0cac710764aa7be.html" target="_top" xlink:title="ad5110">
<polygon fill="#a2b4d6" stroke="#404040" points="574.5,-129 521.5,-129 521.5,-110 574.5,-110 574.5,-129"/>
<text text-anchor="middle" x="548" y="-117" font-family="Helvetica,sans-Serif" font-size="10.00">ad5110</text>
</a>
</g>
</g>
<!-- dir_d44c64559bbebec7f509842c48db8b23 -->
<g id="node13" class="node">
<title>dir_d44c64559bbebec7f509842c48db8b23</title>
<g id="a_node13"><a xlink:href="dir_d44c64559bbebec7f509842c48db8b23.html" target="_top" xlink:title="include">
<polygon fill="#edf0f7" stroke="#404040" points="427,-19 375,-19 375,0 427,0 427,-19"/>
<text text-anchor="middle" x="401" y="-7" font-family="Helvetica,sans-Serif" font-size="10.00">include</text>
</a>
</g>
</g>
<!-- dir_6787bb17f0a8956df0cac710764aa7be&#45;&gt;dir_d44c64559bbebec7f509842c48db8b23 -->
<g id="edge1" class="edge">
<title>dir_6787bb17f0a8956df0cac710764aa7be&#45;&gt;dir_d44c64559bbebec7f509842c48db8b23</title>
<g id="a_edge1"><a xlink:href="dir_000022_000821.html" target="_top">
<path fill="none" stroke="#63b8ff" d="M539.3,-109.89C523.44,-94.48 488.39,-61.67 455,-39 446.76,-33.4 437.29,-28.07 428.6,-23.57"/>
<polygon fill="#63b8ff" stroke="#63b8ff" points="430.09,-20.4 419.58,-19.03 426.94,-26.65 430.09,-20.4"/>
</a>
</g>
<g id="a_edge1&#45;headlabel"><a xlink:href="dir_000022_000821.html" target="_top" xlink:title="2">
<text text-anchor="middle" x="434.57" y="-16.98" font-family="Helvetica,sans-Serif" font-size="10.00" fill="#63b8ff">2</text>
</a>
</g>
</g>
<!-- dir_eadfd3f234712ea8bc5a9d9c6d7db410 -->
<g id="node3" class="node">
<title>dir_eadfd3f234712ea8bc5a9d9c6d7db410</title>
<g id="a_node3"><a xlink:href="dir_eadfd3f234712ea8bc5a9d9c6d7db410.html" target="_top" xlink:title="ad514x">
<polygon fill="#a2b4d6" stroke="#404040" points="432.5,-129 379.5,-129 379.5,-110 432.5,-110 432.5,-129"/>
<text text-anchor="middle" x="406" y="-117" font-family="Helvetica,sans-Serif" font-size="10.00">ad514x</text>
</a>
</g>
</g>
<!-- dir_700cf27e9c768aef409550a15111b950 -->
<g id="node12" class="node">
<title>dir_700cf27e9c768aef409550a15111b950</title>
<g id="a_node12"><a xlink:href="dir_700cf27e9c768aef409550a15111b950.html" target="_top" xlink:title="common">
<polygon fill="#a2b4d6" stroke="#404040" points="220.5,-74 161.5,-74 161.5,-55 220.5,-55 220.5,-74"/>
<text text-anchor="middle" x="191" y="-62" font-family="Helvetica,sans-Serif" font-size="10.00">common</text>
</a>
</g>
</g>
<!-- dir_eadfd3f234712ea8bc5a9d9c6d7db410&#45;&gt;dir_700cf27e9c768aef409550a15111b950 -->
<g id="edge2" class="edge">
<title>dir_eadfd3f234712ea8bc5a9d9c6d7db410&#45;&gt;dir_700cf27e9c768aef409550a15111b950</title>
<g id="a_edge2"><a xlink:href="dir_000023_000394.html" target="_top">
<path fill="none" stroke="#63b8ff" d="M379.2,-111.89C341.79,-102.67 273.65,-85.87 230.43,-75.22"/>
<polygon fill="#63b8ff" stroke="#63b8ff" points="231.1,-71.78 220.55,-72.78 229.42,-78.58 231.1,-71.78"/>
</a>
</g>
<g id="a_edge2&#45;headlabel"><a xlink:href="dir_000023_000394.html" target="_top" xlink:title="4">
<text text-anchor="middle" x="235.27" y="-67.38" font-family="Helvetica,sans-Serif" font-size="10.00" fill="#63b8ff">4</text>
</a>
</g>
</g>
<!-- dir_eadfd3f234712ea8bc5a9d9c6d7db410&#45;&gt;dir_d44c64559bbebec7f509842c48db8b23 -->
<g id="edge3" class="edge">
<title>dir_eadfd3f234712ea8bc5a9d9c6d7db410&#45;&gt;dir_d44c64559bbebec7f509842c48db8b23</title>
<g id="a_edge3"><a xlink:href="dir_000023_000821.html" target="_top">
<path fill="none" stroke="#63b8ff" d="M408.96,-109.56C413.45,-94.73 420.85,-64.17 415,-39 414.15,-35.35 412.76,-31.62 411.18,-28.12"/>
<polygon fill="#63b8ff" stroke="#63b8ff" points="414.22,-26.37 406.51,-19.09 408,-29.58 414.22,-26.37"/>
</a>
</g>
<g id="a_edge3&#45;headlabel"><a xlink:href="dir_000023_000821.html" target="_top" xlink:title="18">
<text text-anchor="middle" x="418.39" y="-25.75" font-family="Helvetica,sans-Serif" font-size="10.00" fill="#63b8ff">18</text>
</a>
</g>
</g>
<!-- dir_8a0cbe16d998f057544a74140156ceea -->
<g id="node4" class="node">
<title>dir_8a0cbe16d998f057544a74140156ceea</title>
<g id="a_node4"><a xlink:href="dir_8a0cbe16d998f057544a74140156ceea.html" target="_top" xlink:title="ad5161">
<polygon fill="#a2b4d6" stroke="#404040" points="503.5,-129 450.5,-129 450.5,-110 503.5,-110 503.5,-129"/>
<text text-anchor="middle" x="477" y="-117" font-family="Helvetica,sans-Serif" font-size="10.00">ad5161</text>
</a>
</g>
</g>
<!-- dir_8a0cbe16d998f057544a74140156ceea&#45;&gt;dir_700cf27e9c768aef409550a15111b950 -->
<g id="edge4" class="edge">
<title>dir_8a0cbe16d998f057544a74140156ceea&#45;&gt;dir_700cf27e9c768aef409550a15111b950</title>
<g id="a_edge4"><a xlink:href="dir_000024_000394.html" target="_top">
<path fill="none" stroke="#63b8ff" d="M450.29,-111.83C447.49,-111.19 444.69,-110.57 442,-110 367.8,-94.43 280.5,-79.77 230.87,-71.78"/>
<polygon fill="#63b8ff" stroke="#63b8ff" points="231.3,-68.3 220.87,-70.17 230.19,-75.21 231.3,-68.3"/>
</a>
</g>
<g id="a_edge4&#45;headlabel"><a xlink:href="dir_000024_000394.html" target="_top" xlink:title="1">
<text text-anchor="middle" x="235.29" y="-63.56" font-family="Helvetica,sans-Serif" font-size="10.00" fill="#63b8ff">1</text>
</a>
</g>
</g>
<!-- dir_8a0cbe16d998f057544a74140156ceea&#45;&gt;dir_d44c64559bbebec7f509842c48db8b23 -->
<g id="edge5" class="edge">
<title>dir_8a0cbe16d998f057544a74140156ceea&#45;&gt;dir_d44c64559bbebec7f509842c48db8b23</title>
<g id="a_edge5"><a xlink:href="dir_000024_000821.html" target="_top">
<path fill="none" stroke="#63b8ff" d="M472.75,-109.68C465.22,-94.49 448.58,-62.74 430,-39 426.55,-34.6 422.46,-30.19 418.46,-26.2"/>
<polygon fill="#63b8ff" stroke="#63b8ff" points="420.71,-23.51 411.05,-19.16 415.89,-28.59 420.71,-23.51"/>
</a>
</g>
<g id="a_edge5&#45;headlabel"><a xlink:href="dir_000024_000821.html" target="_top" xlink:title="5">
<text text-anchor="middle" x="425.27" y="-21.43" font-family="Helvetica,sans-Serif" font-size="10.00" fill="#63b8ff">5</text>
</a>
</g>
</g>
<!-- dir_47d1a9bbc1e1654ce080688305ac5730 -->
<g id="node5" class="node">
<title>dir_47d1a9bbc1e1654ce080688305ac5730</title>
<g id="a_node5"><a xlink:href="dir_47d1a9bbc1e1654ce080688305ac5730.html" target="_top" xlink:title="ad5165">
<polygon fill="#a2b4d6" stroke="#404040" points="77.5,-129 24.5,-129 24.5,-110 77.5,-110 77.5,-129"/>
<text text-anchor="middle" x="51" y="-117" font-family="Helvetica,sans-Serif" font-size="10.00">ad5165</text>
</a>
</g>
</g>
<!-- dir_47d1a9bbc1e1654ce080688305ac5730&#45;&gt;dir_700cf27e9c768aef409550a15111b950 -->
<g id="edge6" class="edge">
<title>dir_47d1a9bbc1e1654ce080688305ac5730&#45;&gt;dir_700cf27e9c768aef409550a15111b950</title>
<g id="a_edge6"><a xlink:href="dir_000025_000394.html" target="_top">
<path fill="none" stroke="#63b8ff" d="M73.49,-109.98C96.52,-101.27 132.54,-87.63 158.63,-77.75"/>
<polygon fill="#63b8ff" stroke="#63b8ff" points="159.98,-80.98 168.1,-74.17 157.51,-74.44 159.98,-80.98"/>
</a>
</g>
<g id="a_edge6&#45;headlabel"><a xlink:href="dir_000025_000394.html" target="_top" xlink:title="1">
<text text-anchor="middle" x="157.63" y="-82.41" font-family="Helvetica,sans-Serif" font-size="10.00" fill="#63b8ff">1</text>
</a>
</g>
</g>
<!-- dir_47d1a9bbc1e1654ce080688305ac5730&#45;&gt;dir_d44c64559bbebec7f509842c48db8b23 -->
<g id="edge7" class="edge">
<title>dir_47d1a9bbc1e1654ce080688305ac5730&#45;&gt;dir_d44c64559bbebec7f509842c48db8b23</title>
<g id="a_edge7"><a xlink:href="dir_000025_000821.html" target="_top">
<path fill="none" stroke="#63b8ff" d="M77.58,-112.1C126.62,-100.25 226.67,-75.95 230,-74 248.45,-63.21 244.33,-49.42 263,-39 294.58,-21.37 335.71,-14.6 364.83,-12.02"/>
<polygon fill="#63b8ff" stroke="#63b8ff" points="365.27,-15.5 374.97,-11.25 364.73,-8.52 365.27,-15.5"/>
</a>
</g>
<g id="a_edge7&#45;headlabel"><a xlink:href="dir_000025_000821.html" target="_top" xlink:title="5">
<text text-anchor="middle" x="361.9" y="-16.1" font-family="Helvetica,sans-Serif" font-size="10.00" fill="#63b8ff">5</text>
</a>
</g>
</g>
<!-- dir_c066a4036c22f75529f724e28fef2ca1 -->
<g id="node6" class="node">
<title>dir_c066a4036c22f75529f724e28fef2ca1</title>
<g id="a_node6"><a xlink:href="dir_c066a4036c22f75529f724e28fef2ca1.html" target="_top" xlink:title="ad5171">
<polygon fill="#a2b4d6" stroke="#404040" points="148.5,-129 95.5,-129 95.5,-110 148.5,-110 148.5,-129"/>
<text text-anchor="middle" x="122" y="-117" font-family="Helvetica,sans-Serif" font-size="10.00">ad5171</text>
</a>
</g>
</g>
<!-- dir_c066a4036c22f75529f724e28fef2ca1&#45;&gt;dir_700cf27e9c768aef409550a15111b950 -->
<g id="edge8" class="edge">
<title>dir_c066a4036c22f75529f724e28fef2ca1&#45;&gt;dir_700cf27e9c768aef409550a15111b950</title>
<g id="a_edge8"><a xlink:href="dir_000026_000394.html" target="_top">
<path fill="none" stroke="#63b8ff" d="M133.09,-109.98C143.49,-102 159.26,-89.88 171.72,-80.31"/>
<polygon fill="#63b8ff" stroke="#63b8ff" points="173.91,-83.04 179.71,-74.17 169.65,-77.49 173.91,-83.04"/>
</a>
</g>
<g id="a_edge8&#45;headlabel"><a xlink:href="dir_000026_000394.html" target="_top" xlink:title="1">
<text text-anchor="middle" x="172.79" y="-84.98" font-family="Helvetica,sans-Serif" font-size="10.00" fill="#63b8ff">1</text>
</a>
</g>
</g>
<!-- dir_c066a4036c22f75529f724e28fef2ca1&#45;&gt;dir_d44c64559bbebec7f509842c48db8b23 -->
<g id="edge9" class="edge">
<title>dir_c066a4036c22f75529f724e28fef2ca1&#45;&gt;dir_d44c64559bbebec7f509842c48db8b23</title>
<g id="a_edge9"><a xlink:href="dir_000026_000821.html" target="_top">
<path fill="none" stroke="#63b8ff" d="M148.68,-111.58C183.8,-102.21 243.4,-85.35 263,-74 282.87,-62.49 280.97,-50.23 301,-39 320.71,-27.95 345.06,-20.89 364.79,-16.56"/>
<polygon fill="#63b8ff" stroke="#63b8ff" points="365.55,-19.98 374.64,-14.54 364.14,-13.12 365.55,-19.98"/>
</a>
</g>
<g id="a_edge9&#45;headlabel"><a xlink:href="dir_000026_000821.html" target="_top" xlink:title="5">
<text text-anchor="middle" x="362.6" y="-20.98" font-family="Helvetica,sans-Serif" font-size="10.00" fill="#63b8ff">5</text>
</a>
</g>
</g>
<!-- dir_14f53775d820854f9c6aa5339d004b61 -->
<g id="node7" class="node">
<title>dir_14f53775d820854f9c6aa5339d004b61</title>
<g id="a_node7"><a xlink:href="dir_14f53775d820854f9c6aa5339d004b61.html" target="_top" xlink:title="ad5242">
<polygon fill="#a2b4d6" stroke="#404040" points="219.5,-129 166.5,-129 166.5,-110 219.5,-110 219.5,-129"/>
<text text-anchor="middle" x="193" y="-117" font-family="Helvetica,sans-Serif" font-size="10.00">ad5242</text>
</a>
</g>
</g>
<!-- dir_14f53775d820854f9c6aa5339d004b61&#45;&gt;dir_700cf27e9c768aef409550a15111b950 -->
<g id="edge10" class="edge">
<title>dir_14f53775d820854f9c6aa5339d004b61&#45;&gt;dir_700cf27e9c768aef409550a15111b950</title>
<g id="a_edge10"><a xlink:href="dir_000027_000394.html" target="_top">
<path fill="none" stroke="#63b8ff" d="M192.67,-109.75C192.41,-102.8 192.03,-92.85 191.7,-84.13"/>
<polygon fill="#63b8ff" stroke="#63b8ff" points="195.2,-83.95 191.32,-74.09 188.2,-84.21 195.2,-83.95"/>
</a>
</g>
<g id="a_edge10&#45;headlabel"><a xlink:href="dir_000027_000394.html" target="_top" xlink:title="1">
<text text-anchor="middle" x="198.17" y="-84.93" font-family="Helvetica,sans-Serif" font-size="10.00" fill="#63b8ff">1</text>
</a>
</g>
</g>
<!-- dir_14f53775d820854f9c6aa5339d004b61&#45;&gt;dir_d44c64559bbebec7f509842c48db8b23 -->
<g id="edge11" class="edge">
<title>dir_14f53775d820854f9c6aa5339d004b61&#45;&gt;dir_d44c64559bbebec7f509842c48db8b23</title>
<g id="a_edge11"><a xlink:href="dir_000027_000821.html" target="_top">
<path fill="none" stroke="#63b8ff" d="M219.57,-110.49C242.24,-102.99 275.18,-90.46 301,-74 320.36,-61.66 319.89,-51.73 339,-39 348.1,-32.94 358.69,-27.55 368.51,-23.13"/>
<polygon fill="#63b8ff" stroke="#63b8ff" points="370.2,-26.21 378,-19.04 367.44,-19.78 370.2,-26.21"/>
</a>
</g>
<g id="a_edge11&#45;headlabel"><a xlink:href="dir_000027_000821.html" target="_top" xlink:title="5">
<text text-anchor="middle" x="368.02" y="-27.74" font-family="Helvetica,sans-Serif" font-size="10.00" fill="#63b8ff">5</text>
</a>
</g>
</g>
<!-- dir_73ac0c457ff0fdfc13414a7eb3d3dfc9 -->
<g id="node8" class="node">
<title>dir_73ac0c457ff0fdfc13414a7eb3d3dfc9</title>
<g id="a_node8"><a xlink:href="dir_73ac0c457ff0fdfc13414a7eb3d3dfc9.html" target="_top" xlink:title="ad5246">
<polygon fill="#a2b4d6" stroke="#404040" points="290.5,-129 237.5,-129 237.5,-110 290.5,-110 290.5,-129"/>
<text text-anchor="middle" x="264" y="-117" font-family="Helvetica,sans-Serif" font-size="10.00">ad5246</text>
</a>
</g>
</g>
<!-- dir_73ac0c457ff0fdfc13414a7eb3d3dfc9&#45;&gt;dir_700cf27e9c768aef409550a15111b950 -->
<g id="edge12" class="edge">
<title>dir_73ac0c457ff0fdfc13414a7eb3d3dfc9&#45;&gt;dir_700cf27e9c768aef409550a15111b950</title>
<g id="a_edge12"><a xlink:href="dir_000028_000394.html" target="_top">
<path fill="none" stroke="#63b8ff" d="M252.27,-109.98C241.27,-102 224.58,-89.88 211.4,-80.31"/>
<polygon fill="#63b8ff" stroke="#63b8ff" points="213.09,-77.21 202.94,-74.17 208.98,-82.88 213.09,-77.21"/>
</a>
</g>
<g id="a_edge12&#45;headlabel"><a xlink:href="dir_000028_000394.html" target="_top" xlink:title="1">
<text text-anchor="middle" x="217.67" y="-74.53" font-family="Helvetica,sans-Serif" font-size="10.00" fill="#63b8ff">1</text>
</a>
</g>
</g>
<!-- dir_73ac0c457ff0fdfc13414a7eb3d3dfc9&#45;&gt;dir_d44c64559bbebec7f509842c48db8b23 -->
<g id="edge13" class="edge">
<title>dir_73ac0c457ff0fdfc13414a7eb3d3dfc9&#45;&gt;dir_d44c64559bbebec7f509842c48db8b23</title>
<g id="a_edge13"><a xlink:href="dir_000028_000821.html" target="_top">
<path fill="none" stroke="#63b8ff" d="M281.2,-109.96C296.95,-101.76 320.55,-88.51 339,-74 357.25,-59.64 375.5,-40.18 387.43,-26.6"/>
<polygon fill="#63b8ff" stroke="#63b8ff" points="390.1,-28.86 393.98,-19 384.8,-24.29 390.1,-28.86"/>
</a>
</g>
<g id="a_edge13&#45;headlabel"><a xlink:href="dir_000028_000821.html" target="_top" xlink:title="5">
<text text-anchor="middle" x="389.9" y="-30.94" font-family="Helvetica,sans-Serif" font-size="10.00" fill="#63b8ff">5</text>
</a>
</g>
</g>
<!-- dir_6d288bf703cb4118e52432eb7e05de10 -->
<g id="node9" class="node">
<title>dir_6d288bf703cb4118e52432eb7e05de10</title>
<g id="a_node9"><a xlink:href="dir_6d288bf703cb4118e52432eb7e05de10.html" target="_top" xlink:title="ad5259">
<polygon fill="#a2b4d6" stroke="#404040" points="361.5,-129 308.5,-129 308.5,-110 361.5,-110 361.5,-129"/>
<text text-anchor="middle" x="335" y="-117" font-family="Helvetica,sans-Serif" font-size="10.00">ad5259</text>
</a>
</g>
</g>
<!-- dir_6d288bf703cb4118e52432eb7e05de10&#45;&gt;dir_700cf27e9c768aef409550a15111b950 -->
<g id="edge14" class="edge">
<title>dir_6d288bf703cb4118e52432eb7e05de10&#45;&gt;dir_700cf27e9c768aef409550a15111b950</title>
<g id="a_edge14"><a xlink:href="dir_000029_000394.html" target="_top">
<path fill="none" stroke="#63b8ff" d="M311.86,-109.98C288.18,-101.27 251.13,-87.63 224.29,-77.75"/>
<polygon fill="#63b8ff" stroke="#63b8ff" points="225.15,-74.34 214.56,-74.17 222.73,-80.91 225.15,-74.34"/>
</a>
</g>
<g id="a_edge14&#45;headlabel"><a xlink:href="dir_000029_000394.html" target="_top" xlink:title="1">
<text text-anchor="middle" x="229.5" y="-70.42" font-family="Helvetica,sans-Serif" font-size="10.00" fill="#63b8ff">1</text>
</a>
</g>
</g>
<!-- dir_6d288bf703cb4118e52432eb7e05de10&#45;&gt;dir_d44c64559bbebec7f509842c48db8b23 -->
<g id="edge15" class="edge">
<title>dir_6d288bf703cb4118e52432eb7e05de10&#45;&gt;dir_d44c64559bbebec7f509842c48db8b23</title>
<g id="a_edge15"><a xlink:href="dir_000029_000821.html" target="_top">
<path fill="none" stroke="#63b8ff" d="M345.2,-109.87C354.54,-101.5 368.21,-88.05 377,-74 385.79,-59.95 392.16,-42.17 396.12,-29.01"/>
<polygon fill="#63b8ff" stroke="#63b8ff" points="399.54,-29.79 398.88,-19.21 392.8,-27.89 399.54,-29.79"/>
</a>
</g>
<g id="a_edge15&#45;headlabel"><a xlink:href="dir_000029_000821.html" target="_top" xlink:title="5">
<text text-anchor="middle" x="401.3" y="-31.52" font-family="Helvetica,sans-Serif" font-size="10.00" fill="#63b8ff">5</text>
</a>
</g>
</g>
<!-- dir_e0c6af1ef83b7c365373f0310675c3a1 -->
<g id="node10" class="node">
<title>dir_e0c6af1ef83b7c365373f0310675c3a1</title>
<g id="a_node10"><a xlink:href="dir_e0c6af1ef83b7c365373f0310675c3a1.html" target="_top" xlink:title="ad525x">
<polygon fill="#a2b4d6" stroke="#404040" points="645.5,-129 592.5,-129 592.5,-110 645.5,-110 645.5,-129"/>
<text text-anchor="middle" x="619" y="-117" font-family="Helvetica,sans-Serif" font-size="10.00">ad525x</text>
</a>
</g>
</g>
<!-- dir_e0c6af1ef83b7c365373f0310675c3a1&#45;&gt;dir_d44c64559bbebec7f509842c48db8b23 -->
<g id="edge16" class="edge">
<title>dir_e0c6af1ef83b7c365373f0310675c3a1&#45;&gt;dir_d44c64559bbebec7f509842c48db8b23</title>
<g id="a_edge16"><a xlink:href="dir_000030_000821.html" target="_top">
<path fill="none" stroke="#63b8ff" d="M607.21,-109.77C585.3,-93.86 536.39,-59.88 491,-39 473.86,-31.11 453.94,-24.56 437.2,-19.73"/>
<polygon fill="#63b8ff" stroke="#63b8ff" points="437.82,-16.27 427.24,-16.95 435.94,-23.01 437.82,-16.27"/>
</a>
</g>
<g id="a_edge16&#45;headlabel"><a xlink:href="dir_000030_000821.html" target="_top" xlink:title="5">
<text text-anchor="middle" x="442.04" y="-12" font-family="Helvetica,sans-Serif" font-size="10.00" fill="#63b8ff">5</text>
</a>
</g>
</g>
<!-- dir_d9ba4b521258e5e43c5519e46c9bc81e -->
<g id="node11" class="node">
<title>dir_d9ba4b521258e5e43c5519e46c9bc81e</title>
<g id="a_node11"><a xlink:href="dir_d9ba4b521258e5e43c5519e46c9bc81e.html" target="_top" xlink:title="ad5293">
<polygon fill="#a2b4d6" stroke="#404040" points="716.5,-129 663.5,-129 663.5,-110 716.5,-110 716.5,-129"/>
<text text-anchor="middle" x="690" y="-117" font-family="Helvetica,sans-Serif" font-size="10.00">ad5293</text>
</a>
</g>
</g>
<!-- dir_d9ba4b521258e5e43c5519e46c9bc81e&#45;&gt;dir_d44c64559bbebec7f509842c48db8b23 -->
<g id="edge17" class="edge">
<title>dir_d9ba4b521258e5e43c5519e46c9bc81e&#45;&gt;dir_d44c64559bbebec7f509842c48db8b23</title>
<g id="a_edge17"><a xlink:href="dir_000031_000821.html" target="_top">
<path fill="none" stroke="#63b8ff" d="M676.45,-109.98C650.17,-93.81 589.99,-58.56 535,-39 502.81,-27.55 464.55,-19.98 437.17,-15.53"/>
<polygon fill="#63b8ff" stroke="#63b8ff" points="437.67,-12.07 427.25,-13.98 436.59,-18.98 437.67,-12.07"/>
</a>
</g>
<g id="a_edge17&#45;headlabel"><a xlink:href="dir_000031_000821.html" target="_top" xlink:title="5">
<text text-anchor="middle" x="441.66" y="-7.32" font-family="Helvetica,sans-Serif" font-size="10.00" fill="#63b8ff">5</text>
</a>
</g>
</g>
<!-- dir_700cf27e9c768aef409550a15111b950&#45;&gt;dir_d44c64559bbebec7f509842c48db8b23 -->
<g id="edge18" class="edge">
<title>dir_700cf27e9c768aef409550a15111b950&#45;&gt;dir_d44c64559bbebec7f509842c48db8b23</title>
<g id="a_edge18"><a xlink:href="dir_000394_000821.html" target="_top">
<path fill="none" stroke="#63b8ff" d="M203.93,-54.77C212.41,-49.43 223.95,-42.9 235,-39 278.11,-23.8 330.47,-16.53 364.71,-13.18"/>
<polygon fill="#63b8ff" stroke="#63b8ff" points="365.08,-16.66 374.72,-12.26 364.44,-9.69 365.08,-16.66"/>
</a>
</g>
<g id="a_edge18&#45;headlabel"><a xlink:href="dir_000394_000821.html" target="_top" xlink:title="1">
<text text-anchor="middle" x="361.76" y="-17.32" font-family="Helvetica,sans-Serif" font-size="10.00" fill="#63b8ff">1</text>
</a>
</g>
</g>
</g>
</svg>

<g id="navigator" transform="translate(0 0)" fill="#404254">
  <rect fill="#f2f5e9" fill-opacity="0.5" stroke="#606060" stroke-width=".5" x="0" y="0" width="60" height="60"/>
  <use id="zoomplus" xlink:href="#zoomPlus" x="17" y="9" onmousedown="handleZoom(evt,'in')"/>
  <use id="zoomminus" xlink:href="#zoomMin" x="42" y="9" onmousedown="handleZoom(evt,'out')"/>
  <use id="reset" xlink:href="#resetDef" x="30" y="36" onmousedown="handleReset()"/>
   <use id="arrowup" xlink:href="#arrowUp" x="0" y="0" onmousedown="handlePan(0,-1)"/>
  <use id="arrowright" xlink:href="#arrowRight" x="0" y="0" onmousedown="handlePan(1,0)"/>
  <use id="arrowdown" xlink:href="#arrowDown" x="0" y="0" onmousedown="handlePan(0,1)"/>
  <use id="arrowleft" xlink:href="#arrowLeft" x="0" y="0" onmousedown="handlePan(-1,0)"/>
</g>
<svg viewBox="0 0 15 15" width="100%" height="30px" preserveAspectRatio="xMaxYMin meet">
 <g id="arrow_out" transform="scale(0.3 0.3)">
  <a xlink:href="dir_e419f953571bbde52e1b066c5b259aad_dep_org.svg" target="_base">
   <rect id="button" ry="5" rx="5" y="6" x="6" height="38" width="38"
        fill="#f2f5e9" fill-opacity="0.5" stroke="#606060" stroke-width="1.0"/>
   <path id="arrow"
     d="M 11.500037,31.436501 C 11.940474,20.09759 22.043105,11.32322 32.158766,21.979434 L 37.068811,17.246167 C 37.068811,17.246167 37.088388,32 37.088388,32 L 22.160133,31.978069 C 22.160133,31.978069 26.997745,27.140456 26.997745,27.140456 C 18.528582,18.264221 13.291696,25.230495 11.500037,31.436501 z"
     style="fill:#404040;"/>
  </a>
 </g>
</svg>

<style type='text/css'>
<![CDATA[
[data-mouse-over-selected='false'] { opacity: 0.7; }
[data-mouse-over-selected='true']  { opacity: 1.0; }
]]>
</style>
<script type="application/ecmascript"><![CDATA[
document.addEventListener('DOMContentLoaded', (event) => {
  highlightEdges();
  highlightAdjacentNodes();
});
]]></script>
</svg>
