<?xml version="1.0" encoding="UTF-8" standalone="no"?>
<!DOCTYPE svg PUBLIC "-//W3C//DTD SVG 1.1//EN"
 "http://www.w3.org/Graphics/SVG/1.1/DTD/svg11.dtd">
<!-- Generated by graphviz version 2.43.0 (0)
 -->
<!-- Title: projects/swiot1l/src Pages: 1 -->
<svg width="253pt" height="180pt"
 viewBox="0.00 0.00 253.09 180.00" xmlns="http://www.w3.org/2000/svg" xmlns:xlink="http://www.w3.org/1999/xlink">

<svg id="main" version="1.1" xmlns="http://www.w3.org/2000/svg" xmlns:xlink="http://www.w3.org/1999/xlink" xml:space="preserve">

<style type="text/css"><![CDATA[
.node, .edge {opacity: 0.7;}
.node.selected, .edge.selected {opacity: 1;}
.edge:hover path { stroke: red; }
.edge:hover polygon { stroke: red; fill: red; }
]]></style>
<script type="application/ecmascript" xlink:href="svg.min.js"/>
<svg id="graph" class="graph">
<g id="graph0" class="graph" transform="scale(1 1) rotate(0) translate(4 176)">
<title>projects/swiot1l/src</title>
<g id="clust1" class="cluster">
<title>clusterdir_4e3706a14d2d8c012348f03a9654b027</title>
<g id="a_clust1"><a xlink:href="dir_4e3706a14d2d8c012348f03a9654b027.html" target="_top" xlink:title="swiot1l">
<polygon fill="#edf0f7" stroke="#7f7f7f" stroke-dasharray="5,2" points="8,-39 8,-164 232,-164 232,-39 8,-39"/>
<text text-anchor="middle" x="120" y="-152" font-family="Helvetica,sans-Serif" font-size="10.00">swiot1l</text>
</a>
</g>
</g>
<g id="clust2" class="cluster">
<title>clusterdir_d4d19868ed262df6c0f49ce587083cce</title>
<g id="a_clust2"><a xlink:href="dir_d4d19868ed262df6c0f49ce587083cce.html" target="_top">
<polygon fill="#edf0f7" stroke="#404040" stroke-width="2" points="16,-47 16,-137 224,-137 224,-47 16,-47"/>
</a>
</g>
</g>
<!-- dir_d4d19868ed262df6c0f49ce587083cce -->
<g id="node1" class="node">
<title>dir_d4d19868ed262df6c0f49ce587083cce</title>
<text text-anchor="middle" x="40" y="-117" font-family="Helvetica,sans-Serif" font-size="10.00">src</text>
</g>
<!-- dir_1e2ff918b27499cfd72051e0923f312c -->
<g id="node2" class="node">
<title>dir_1e2ff918b27499cfd72051e0923f312c</title>
<g id="a_node2"><a xlink:href="dir_1e2ff918b27499cfd72051e0923f312c.html" target="_top" xlink:title="common">
<polygon fill="#a2b4d6" stroke="#404040" points="83.5,-74 24.5,-74 24.5,-55 83.5,-55 83.5,-74"/>
<text text-anchor="middle" x="54" y="-62" font-family="Helvetica,sans-Serif" font-size="10.00">common</text>
</a>
</g>
</g>
<!-- dir_d4d19868ed262df6c0f49ce587083cce&#45;&gt;dir_1e2ff918b27499cfd72051e0923f312c -->
<g id="edge3" class="edge">
<title>dir_d4d19868ed262df6c0f49ce587083cce&#45;&gt;dir_1e2ff918b27499cfd72051e0923f312c</title>
<g id="a_edge3"><a xlink:href="dir_001043_000405.html" target="_top">
<path fill="none" stroke="#63b8ff" d="M42.31,-109.75C44.17,-102.72 46.84,-92.62 49.15,-83.84"/>
<polygon fill="#63b8ff" stroke="#63b8ff" points="52.56,-84.65 51.73,-74.09 45.79,-82.86 52.56,-84.65"/>
</a>
</g>
<g id="a_edge3&#45;headlabel"><a xlink:href="dir_001043_000405.html" target="_top" xlink:title="1">
<text text-anchor="middle" x="54.39" y="-86.35" font-family="Helvetica,sans-Serif" font-size="10.00" fill="#63b8ff">1</text>
</a>
</g>
</g>
<!-- dir_0bb79d6a83cfcf0ad99764c4144043fa -->
<g id="node5" class="node">
<title>dir_0bb79d6a83cfcf0ad99764c4144043fa</title>
<g id="a_node5"><a xlink:href="dir_0bb79d6a83cfcf0ad99764c4144043fa.html" target="_top" xlink:title="iio">
<polygon fill="#edf0f7" stroke="red" points="39.5,-19 10.5,-19 10.5,0 39.5,0 39.5,-19"/>
<text text-anchor="middle" x="25" y="-7" font-family="Helvetica,sans-Serif" font-size="10.00">iio</text>
</a>
</g>
</g>
<!-- dir_d4d19868ed262df6c0f49ce587083cce&#45;&gt;dir_0bb79d6a83cfcf0ad99764c4144043fa -->
<g id="edge1" class="edge">
<title>dir_d4d19868ed262df6c0f49ce587083cce&#45;&gt;dir_0bb79d6a83cfcf0ad99764c4144043fa</title>
<g id="a_edge1"><a xlink:href="dir_001043_000557.html" target="_top">
<path fill="none" stroke="#63b8ff" d="M33.37,-109.88C27.24,-101.32 18.54,-87.54 15,-74 11.06,-58.95 12.39,-54.33 15,-39 15.56,-35.69 16.47,-32.26 17.51,-28.97"/>
<polygon fill="#63b8ff" stroke="#63b8ff" points="20.91,-29.87 21.05,-19.28 14.33,-27.47 20.91,-29.87"/>
</a>
</g>
<g id="a_edge1&#45;headlabel"><a xlink:href="dir_001043_000557.html" target="_top" xlink:title="2">
<text text-anchor="middle" x="22.34" y="-31.72" font-family="Helvetica,sans-Serif" font-size="10.00" fill="#63b8ff">2</text>
</a>
</g>
</g>
<!-- dir_14bc92f4b96c8519b376567118ac28b3 -->
<g id="node6" class="node">
<title>dir_14bc92f4b96c8519b376567118ac28b3</title>
<g id="a_node6"><a xlink:href="dir_14bc92f4b96c8519b376567118ac28b3.html" target="_top" xlink:title="drivers">
<polygon fill="#edf0f7" stroke="red" points="137,-19 87,-19 87,0 137,0 137,-19"/>
<text text-anchor="middle" x="112" y="-7" font-family="Helvetica,sans-Serif" font-size="10.00">drivers</text>
</a>
</g>
</g>
<!-- dir_d4d19868ed262df6c0f49ce587083cce&#45;&gt;dir_14bc92f4b96c8519b376567118ac28b3 -->
<g id="edge2" class="edge">
<title>dir_d4d19868ed262df6c0f49ce587083cce&#45;&gt;dir_14bc92f4b96c8519b376567118ac28b3</title>
<g id="a_edge2"><a xlink:href="dir_001043_000430.html" target="_top">
<path fill="none" stroke="#63b8ff" d="M53.84,-109.89C65.58,-101.93 82.04,-89.07 92,-74 100.96,-60.44 106.11,-42.62 108.94,-29.31"/>
<polygon fill="#63b8ff" stroke="#63b8ff" points="112.39,-29.85 110.79,-19.38 105.51,-28.56 112.39,-29.85"/>
</a>
</g>
<g id="a_edge2&#45;headlabel"><a xlink:href="dir_001043_000430.html" target="_top" xlink:title="17">
<text text-anchor="middle" x="114.52" y="-31.41" font-family="Helvetica,sans-Serif" font-size="10.00" fill="#63b8ff">17</text>
</a>
</g>
</g>
<!-- dir_d44c64559bbebec7f509842c48db8b23 -->
<g id="node7" class="node">
<title>dir_d44c64559bbebec7f509842c48db8b23</title>
<g id="a_node7"><a xlink:href="dir_d44c64559bbebec7f509842c48db8b23.html" target="_top" xlink:title="include">
<polygon fill="#edf0f7" stroke="#404040" points="229,-19 177,-19 177,0 229,0 229,-19"/>
<text text-anchor="middle" x="203" y="-7" font-family="Helvetica,sans-Serif" font-size="10.00">include</text>
</a>
</g>
</g>
<!-- dir_d4d19868ed262df6c0f49ce587083cce&#45;&gt;dir_d44c64559bbebec7f509842c48db8b23 -->
<g id="edge4" class="edge">
<title>dir_d4d19868ed262df6c0f49ce587083cce&#45;&gt;dir_d44c64559bbebec7f509842c48db8b23</title>
<g id="a_edge4"><a xlink:href="dir_001043_000627.html" target="_top">
<path fill="none" stroke="#63b8ff" d="M54.95,-109.97C70.05,-101.25 93.94,-87.16 114,-74 127.25,-65.31 161.09,-40.94 183.01,-25.04"/>
<polygon fill="#63b8ff" stroke="#63b8ff" points="185.27,-27.72 191.31,-19.01 181.16,-22.06 185.27,-27.72"/>
</a>
</g>
<g id="a_edge4&#45;headlabel"><a xlink:href="dir_001043_000627.html" target="_top" xlink:title="13">
<text text-anchor="middle" x="184.03" y="-29.63" font-family="Helvetica,sans-Serif" font-size="10.00" fill="#63b8ff">13</text>
</a>
</g>
</g>
<!-- dir_1e2ff918b27499cfd72051e0923f312c&#45;&gt;dir_0bb79d6a83cfcf0ad99764c4144043fa -->
<g id="edge5" class="edge">
<title>dir_1e2ff918b27499cfd72051e0923f312c&#45;&gt;dir_0bb79d6a83cfcf0ad99764c4144043fa</title>
<g id="a_edge5"><a xlink:href="dir_000405_000557.html" target="_top">
<path fill="none" stroke="#63b8ff" d="M49.21,-54.75C45.24,-47.49 39.47,-36.95 34.57,-27.98"/>
<polygon fill="#63b8ff" stroke="#63b8ff" points="37.57,-26.18 29.7,-19.09 31.43,-29.54 37.57,-26.18"/>
</a>
</g>
<g id="a_edge5&#45;headlabel"><a xlink:href="dir_000405_000557.html" target="_top" xlink:title="1">
<text text-anchor="middle" x="41.79" y="-25.47" font-family="Helvetica,sans-Serif" font-size="10.00" fill="#63b8ff">1</text>
</a>
</g>
</g>
<!-- dir_1e2ff918b27499cfd72051e0923f312c&#45;&gt;dir_14bc92f4b96c8519b376567118ac28b3 -->
<g id="edge6" class="edge">
<title>dir_1e2ff918b27499cfd72051e0923f312c&#45;&gt;dir_14bc92f4b96c8519b376567118ac28b3</title>
<g id="a_edge6"><a xlink:href="dir_000405_000430.html" target="_top">
<path fill="none" stroke="#63b8ff" d="M63.32,-54.98C71.81,-47.23 84.56,-35.58 94.88,-26.14"/>
<polygon fill="#63b8ff" stroke="#63b8ff" points="97.49,-28.5 102.51,-19.17 92.77,-23.33 97.49,-28.5"/>
</a>
</g>
<g id="a_edge6&#45;headlabel"><a xlink:href="dir_000405_000430.html" target="_top" xlink:title="12">
<text text-anchor="middle" x="96.75" y="-30.52" font-family="Helvetica,sans-Serif" font-size="10.00" fill="#63b8ff">12</text>
</a>
</g>
</g>
<!-- dir_1e2ff918b27499cfd72051e0923f312c&#45;&gt;dir_d44c64559bbebec7f509842c48db8b23 -->
<g id="edge7" class="edge">
<title>dir_1e2ff918b27499cfd72051e0923f312c&#45;&gt;dir_d44c64559bbebec7f509842c48db8b23</title>
<g id="a_edge7"><a xlink:href="dir_000405_000627.html" target="_top">
<path fill="none" stroke="#63b8ff" d="M77.94,-54.98C102.56,-46.23 141.12,-32.51 168.92,-22.62"/>
<polygon fill="#63b8ff" stroke="#63b8ff" points="170.38,-25.82 178.62,-19.17 168.03,-19.22 170.38,-25.82"/>
</a>
</g>
<g id="a_edge7&#45;headlabel"><a xlink:href="dir_000405_000627.html" target="_top" xlink:title="4">
<text text-anchor="middle" x="167.94" y="-27.2" font-family="Helvetica,sans-Serif" font-size="10.00" fill="#63b8ff">4</text>
</a>
</g>
</g>
<!-- dir_b0be6c787cc511b3ff53843b9b717497 -->
<g id="node3" class="node">
<title>dir_b0be6c787cc511b3ff53843b9b717497</title>
<g id="a_node3"><a xlink:href="dir_b0be6c787cc511b3ff53843b9b717497.html" target="_top" xlink:title="examples">
<polygon fill="#a2b4d6" stroke="#404040" points="138.5,-129 73.5,-129 73.5,-110 138.5,-110 138.5,-129"/>
<text text-anchor="middle" x="106" y="-117" font-family="Helvetica,sans-Serif" font-size="10.00">examples</text>
</a>
</g>
</g>
<!-- dir_b0be6c787cc511b3ff53843b9b717497&#45;&gt;dir_14bc92f4b96c8519b376567118ac28b3 -->
<g id="edge8" class="edge">
<title>dir_b0be6c787cc511b3ff53843b9b717497&#45;&gt;dir_14bc92f4b96c8519b376567118ac28b3</title>
<g id="a_edge8"><a xlink:href="dir_000536_000430.html" target="_top">
<path fill="none" stroke="#63b8ff" d="M111.32,-109.68C116.23,-100.97 123.19,-87.09 126,-74 129.26,-58.79 129.52,-54.15 126,-39 125.15,-35.35 123.76,-31.62 122.18,-28.12"/>
<polygon fill="#63b8ff" stroke="#63b8ff" points="125.22,-26.37 117.51,-19.09 119,-29.58 125.22,-26.37"/>
</a>
</g>
<g id="a_edge8&#45;headlabel"><a xlink:href="dir_000536_000430.html" target="_top" xlink:title="1">
<text text-anchor="middle" x="129.39" y="-25.75" font-family="Helvetica,sans-Serif" font-size="10.00" fill="#63b8ff">1</text>
</a>
</g>
</g>
<!-- dir_b0be6c787cc511b3ff53843b9b717497&#45;&gt;dir_d44c64559bbebec7f509842c48db8b23 -->
<g id="edge9" class="edge">
<title>dir_b0be6c787cc511b3ff53843b9b717497&#45;&gt;dir_d44c64559bbebec7f509842c48db8b23</title>
<g id="a_edge9"><a xlink:href="dir_000536_000627.html" target="_top">
<path fill="none" stroke="#63b8ff" d="M113.94,-109.66C130.22,-91.54 167.6,-49.91 188.39,-26.77"/>
<polygon fill="#63b8ff" stroke="#63b8ff" points="191.15,-28.94 195.22,-19.16 185.94,-24.26 191.15,-28.94"/>
</a>
</g>
<g id="a_edge9&#45;headlabel"><a xlink:href="dir_000536_000627.html" target="_top" xlink:title="5">
<text text-anchor="middle" x="190.86" y="-31.01" font-family="Helvetica,sans-Serif" font-size="10.00" fill="#63b8ff">5</text>
</a>
</g>
</g>
<!-- dir_90388bf7274749fadcfc66be84d90fa6 -->
<g id="node4" class="node">
<title>dir_90388bf7274749fadcfc66be84d90fa6</title>
<g id="a_node4"><a xlink:href="dir_90388bf7274749fadcfc66be84d90fa6.html" target="_top" xlink:title="platform">
<polygon fill="#a2b4d6" stroke="#404040" points="215.5,-129 156.5,-129 156.5,-110 215.5,-110 215.5,-129"/>
<text text-anchor="middle" x="186" y="-117" font-family="Helvetica,sans-Serif" font-size="10.00">platform</text>
</a>
</g>
</g>
<!-- dir_90388bf7274749fadcfc66be84d90fa6&#45;&gt;dir_d44c64559bbebec7f509842c48db8b23 -->
<g id="edge10" class="edge">
<title>dir_90388bf7274749fadcfc66be84d90fa6&#45;&gt;dir_d44c64559bbebec7f509842c48db8b23</title>
<g id="a_edge10"><a xlink:href="dir_000896_000627.html" target="_top">
<path fill="none" stroke="#63b8ff" d="M202.89,-109.95C215.71,-102.43 232.38,-90.15 240,-74 246.64,-59.93 246.87,-52.96 240,-39 237.4,-33.73 233.31,-29.15 228.78,-25.31"/>
<polygon fill="#63b8ff" stroke="#63b8ff" points="230.51,-22.24 220.37,-19.18 226.39,-27.9 230.51,-22.24"/>
</a>
</g>
<g id="a_edge10&#45;headlabel"><a xlink:href="dir_000896_000627.html" target="_top" xlink:title="1">
<text text-anchor="middle" x="235.09" y="-19.56" font-family="Helvetica,sans-Serif" font-size="10.00" fill="#63b8ff">1</text>
</a>
</g>
</g>
</g>
</svg>
</svg>

<style type='text/css'>
<![CDATA[
[data-mouse-over-selected='false'] { opacity: 0.7; }
[data-mouse-over-selected='true']  { opacity: 1.0; }
]]>
</style>
<script type="application/ecmascript"><![CDATA[
document.addEventListener('DOMContentLoaded', (event) => {
  highlightEdges();
  highlightAdjacentNodes();
});
]]></script>
</svg>
