<?xml version="1.0" encoding="UTF-8" standalone="no"?>
<!DOCTYPE svg PUBLIC "-//W3C//DTD SVG 1.1//EN"
 "http://www.w3.org/Graphics/SVG/1.1/DTD/svg11.dtd">
<!-- Generated by graphviz version 2.43.0 (0)
 -->
<!-- Title: projects/ad74414h/src/examples Pages: 1 -->
<!--zoomable 125 -->

<svg id="main" version="1.1" xmlns="http://www.w3.org/2000/svg" xmlns:xlink="http://www.w3.org/1999/xlink" xml:space="preserve" onload="init(evt)">

<style type="text/css"><![CDATA[
.node, .edge {opacity: 0.7;}
.node.selected, .edge.selected {opacity: 1;}
.edge:hover path { stroke: red; }
.edge:hover polygon { stroke: red; fill: red; }
]]></style>

<defs>
  <circle id="rim" cx="0" cy="0" r="7"/>
  <circle id="rim2" cx="0" cy="0" r="3.5"/>
  <g id="zoomPlus">
    <use xlink:href="#rim" fill="#404040"><set attributeName="fill" to="#808080" begin="zoomplus.mouseover" end="zoomplus.mouseout"/></use>
    <path d="M-4,0h8M0,-4v8" fill="none" stroke="white" stroke-width="1.5" pointer-events="none"/>
  </g>
  <g id="zoomMin">
    <use xlink:href="#rim" fill="#404040"><set attributeName="fill" to="#808080" begin="zoomminus.mouseover" end="zoomminus.mouseout"/></use>
    <path d="M-4,0h8" fill="none" stroke="white" stroke-width="1.5" pointer-events="none"/>
  </g>
  <g id="arrowUp" transform="translate(30 24)">
    <use xlink:href="#rim"/>
    <path pointer-events="none" fill="none" stroke="white" stroke-width="1.5" d="M0,-3.0v7 M-2.5,-0.5L0,-3.0L2.5,-0.5"/>
  </g>
  <g id="arrowRight" transform="rotate(90) translate(36 -43)">
    <use xlink:href="#rim"/>
    <path pointer-events="none" fill="none" stroke="white" stroke-width="1.5" d="M0,-3.0v7 M-2.5,-0.5L0,-3.0L2.5,-0.5"/>
  </g>
  <g id="arrowDown" transform="rotate(180) translate(-30 -48)">
    <use xlink:href="#rim"/>
    <path pointer-events="none" fill="none" stroke="white" stroke-width="1.5" d="M0,-3.0v7 M-2.5,-0.5L0,-3.0L2.5,-0.5"/>
  </g>
  <g id="arrowLeft" transform="rotate(270) translate(-36 17)">
    <use xlink:href="#rim"/>
    <path pointer-events="none" fill="none" stroke="white" stroke-width="1.5" d="M0,-3.0v7 M-2.5,-0.5L0,-3.0L2.5,-0.5"/>
  </g>
  <g id="resetDef">
    <use xlink:href="#rim2" fill="#404040"><set attributeName="fill" to="#808080" begin="reset.mouseover" end="reset.mouseout"/></use>
  </g>
</defs>
<script type="application/ecmascript">
var viewWidth = 881;
var viewHeight = 125;
var sectionId = 'dynsection-0';
</script>
<script type="application/ecmascript" xlink:href="svg.min.js"/>
<svg id="graph" class="graph">
<g id="viewport">
<title>projects/ad74414h/src/examples</title>
<g id="clust1" class="cluster">
<title>clusterdir_f715d1cddeccb331554d20044bdea6b3</title>
<g id="a_clust1"><a xlink:href="dir_f715d1cddeccb331554d20044bdea6b3.html" target="_top" xlink:title="src">
<polygon fill="#edf0f7" stroke="#7f7f7f" stroke-dasharray="5,2" points="8,-39 8,-109 865,-109 865,-39 8,-39"/>
<text text-anchor="middle" x="436.5" y="-97" font-family="Helvetica,sans-Serif" font-size="10.00">src</text>
</a>
</g>
</g>
<g id="clust2" class="cluster">
<title>clusterdir_c1836e2d28cb20955f1bf1eb244eb9b1</title>
<g id="a_clust2"><a xlink:href="dir_c1836e2d28cb20955f1bf1eb244eb9b1.html" target="_top">
<polygon fill="#edf0f7" stroke="#404040" stroke-width="2" points="16,-47 16,-82 857,-82 857,-47 16,-47"/>
</a>
</g>
</g>
<!-- dir_c1836e2d28cb20955f1bf1eb244eb9b1 -->
<g id="node1" class="node">
<title>dir_c1836e2d28cb20955f1bf1eb244eb9b1</title>
<text text-anchor="middle" x="816" y="-62" font-family="Helvetica,sans-Serif" font-size="10.00">examples</text>
</g>
<!-- dir_6666ab3673efa2c09c0207831b996a09 -->
<g id="node2" class="node">
<title>dir_6666ab3673efa2c09c0207831b996a09</title>
<g id="a_node2"><a xlink:href="dir_6666ab3673efa2c09c0207831b996a09.html" target="_top" xlink:title="basic">
<polygon fill="#a2b4d6" stroke="#404040" points="663,-74 621,-74 621,-55 663,-55 663,-74"/>
<text text-anchor="middle" x="642" y="-62" font-family="Helvetica,sans-Serif" font-size="10.00">basic</text>
</a>
</g>
</g>
<!-- dir_14bc92f4b96c8519b376567118ac28b3 -->
<g id="node9" class="node">
<title>dir_14bc92f4b96c8519b376567118ac28b3</title>
<g id="a_node9"><a xlink:href="dir_14bc92f4b96c8519b376567118ac28b3.html" target="_top" xlink:title="drivers">
<polygon fill="#edf0f7" stroke="red" points="419,-19 369,-19 369,0 419,0 419,-19"/>
<text text-anchor="middle" x="394" y="-7" font-family="Helvetica,sans-Serif" font-size="10.00">drivers</text>
</a>
</g>
</g>
<!-- dir_6666ab3673efa2c09c0207831b996a09&#45;&gt;dir_14bc92f4b96c8519b376567118ac28b3 -->
<g id="edge1" class="edge">
<title>dir_6666ab3673efa2c09c0207831b996a09&#45;&gt;dir_14bc92f4b96c8519b376567118ac28b3</title>
<g id="a_edge1"><a xlink:href="dir_000291_000532.html" target="_top">
<path fill="none" stroke="#63b8ff" d="M633.97,-54.73C628.38,-49.23 620.44,-42.53 612,-39 539.01,-8.44 511.12,-31.54 429.16,-18.88"/>
<polygon fill="#63b8ff" stroke="#63b8ff" points="429.61,-15.4 419.17,-17.2 428.45,-22.31 429.61,-15.4"/>
</a>
</g>
<g id="a_edge1&#45;headlabel"><a xlink:href="dir_000291_000532.html" target="_top" xlink:title="1">
<text text-anchor="middle" x="433.62" y="-10.7" font-family="Helvetica,sans-Serif" font-size="10.00" fill="#63b8ff">1</text>
</a>
</g>
</g>
<!-- dir_d44c64559bbebec7f509842c48db8b23 -->
<g id="node10" class="node">
<title>dir_d44c64559bbebec7f509842c48db8b23</title>
<g id="a_node10"><a xlink:href="dir_d44c64559bbebec7f509842c48db8b23.html" target="_top" xlink:title="include">
<polygon fill="#edf0f7" stroke="#404040" points="489,-19 437,-19 437,0 489,0 489,-19"/>
<text text-anchor="middle" x="463" y="-7" font-family="Helvetica,sans-Serif" font-size="10.00">include</text>
</a>
</g>
</g>
<!-- dir_6666ab3673efa2c09c0207831b996a09&#45;&gt;dir_d44c64559bbebec7f509842c48db8b23 -->
<g id="edge2" class="edge">
<title>dir_6666ab3673efa2c09c0207831b996a09&#45;&gt;dir_d44c64559bbebec7f509842c48db8b23</title>
<g id="a_edge2"><a xlink:href="dir_000291_000788.html" target="_top">
<path fill="none" stroke="#63b8ff" d="M633.87,-54.95C628.24,-49.54 620.29,-42.87 612,-39 575.87,-22.13 530.37,-15.25 499.21,-12.44"/>
<polygon fill="#63b8ff" stroke="#63b8ff" points="499.48,-8.95 489.23,-11.63 498.92,-15.92 499.48,-8.95"/>
</a>
</g>
<g id="a_edge2&#45;headlabel"><a xlink:href="dir_000291_000788.html" target="_top" xlink:title="3">
<text text-anchor="middle" x="503.29" y="-3.91" font-family="Helvetica,sans-Serif" font-size="10.00" fill="#63b8ff">3</text>
</a>
</g>
</g>
<!-- dir_f98f61cf200550be275e38896acdd7e8 -->
<g id="node3" class="node">
<title>dir_f98f61cf200550be275e38896acdd7e8</title>
<g id="a_node3"><a xlink:href="dir_f98f61cf200550be275e38896acdd7e8.html" target="_top" xlink:title="current_input_ext">
<polygon fill="#a2b4d6" stroke="#404040" points="603,-74 501,-74 501,-55 603,-55 603,-74"/>
<text text-anchor="middle" x="552" y="-62" font-family="Helvetica,sans-Serif" font-size="10.00">current_input_ext</text>
</a>
</g>
</g>
<!-- dir_f98f61cf200550be275e38896acdd7e8&#45;&gt;dir_14bc92f4b96c8519b376567118ac28b3 -->
<g id="edge3" class="edge">
<title>dir_f98f61cf200550be275e38896acdd7e8&#45;&gt;dir_14bc92f4b96c8519b376567118ac28b3</title>
<g id="a_edge3"><a xlink:href="dir_000498_000532.html" target="_top">
<path fill="none" stroke="#63b8ff" d="M532.47,-54.92C520.83,-49.96 505.71,-43.78 492,-39 471.29,-31.78 447.7,-24.88 428.86,-19.68"/>
<polygon fill="#63b8ff" stroke="#63b8ff" points="429.77,-16.3 419.2,-17.05 427.93,-23.06 429.77,-16.3"/>
</a>
</g>
<g id="a_edge3&#45;headlabel"><a xlink:href="dir_000498_000532.html" target="_top" xlink:title="1">
<text text-anchor="middle" x="433.98" y="-12.01" font-family="Helvetica,sans-Serif" font-size="10.00" fill="#63b8ff">1</text>
</a>
</g>
</g>
<!-- dir_f98f61cf200550be275e38896acdd7e8&#45;&gt;dir_d44c64559bbebec7f509842c48db8b23 -->
<g id="edge4" class="edge">
<title>dir_f98f61cf200550be275e38896acdd7e8&#45;&gt;dir_d44c64559bbebec7f509842c48db8b23</title>
<g id="a_edge4"><a xlink:href="dir_000498_000788.html" target="_top">
<path fill="none" stroke="#63b8ff" d="M537.7,-54.98C523.9,-46.77 502.76,-34.18 486.49,-24.49"/>
<polygon fill="#63b8ff" stroke="#63b8ff" points="487.94,-21.28 477.56,-19.17 484.36,-27.29 487.94,-21.28"/>
</a>
</g>
<g id="a_edge4&#45;headlabel"><a xlink:href="dir_000498_000788.html" target="_top" xlink:title="2">
<text text-anchor="middle" x="492.48" y="-18.18" font-family="Helvetica,sans-Serif" font-size="10.00" fill="#63b8ff">2</text>
</a>
</g>
</g>
<!-- dir_3588841e3cb34e424e1a792e324c3c4d -->
<g id="node4" class="node">
<title>dir_3588841e3cb34e424e1a792e324c3c4d</title>
<g id="a_node4"><a xlink:href="dir_3588841e3cb34e424e1a792e324c3c4d.html" target="_top" xlink:title="current_input_loop">
<polygon fill="#a2b4d6" stroke="#404040" points="482.5,-74 375.5,-74 375.5,-55 482.5,-55 482.5,-74"/>
<text text-anchor="middle" x="429" y="-62" font-family="Helvetica,sans-Serif" font-size="10.00">current_input_loop</text>
</a>
</g>
</g>
<!-- dir_3588841e3cb34e424e1a792e324c3c4d&#45;&gt;dir_14bc92f4b96c8519b376567118ac28b3 -->
<g id="edge5" class="edge">
<title>dir_3588841e3cb34e424e1a792e324c3c4d&#45;&gt;dir_14bc92f4b96c8519b376567118ac28b3</title>
<g id="a_edge5"><a xlink:href="dir_000500_000532.html" target="_top">
<path fill="none" stroke="#63b8ff" d="M423.22,-54.75C418.38,-47.42 411.32,-36.73 405.36,-27.7"/>
<polygon fill="#63b8ff" stroke="#63b8ff" points="408.1,-25.5 399.67,-19.09 402.26,-29.36 408.1,-25.5"/>
</a>
</g>
<g id="a_edge5&#45;headlabel"><a xlink:href="dir_000500_000532.html" target="_top" xlink:title="1">
<text text-anchor="middle" x="412.45" y="-24.44" font-family="Helvetica,sans-Serif" font-size="10.00" fill="#63b8ff">1</text>
</a>
</g>
</g>
<!-- dir_3588841e3cb34e424e1a792e324c3c4d&#45;&gt;dir_d44c64559bbebec7f509842c48db8b23 -->
<g id="edge6" class="edge">
<title>dir_3588841e3cb34e424e1a792e324c3c4d&#45;&gt;dir_d44c64559bbebec7f509842c48db8b23</title>
<g id="a_edge6"><a xlink:href="dir_000500_000788.html" target="_top">
<path fill="none" stroke="#63b8ff" d="M434.61,-54.75C439.32,-47.42 446.17,-36.73 451.97,-27.7"/>
<polygon fill="#63b8ff" stroke="#63b8ff" points="455.04,-29.4 457.49,-19.09 449.14,-25.62 455.04,-29.4"/>
</a>
</g>
<g id="a_edge6&#45;headlabel"><a xlink:href="dir_000500_000788.html" target="_top" xlink:title="2">
<text text-anchor="middle" x="455.49" y="-31.45" font-family="Helvetica,sans-Serif" font-size="10.00" fill="#63b8ff">2</text>
</a>
</g>
</g>
<!-- dir_89c5235ccff7549ef210771110e619d5 -->
<g id="node5" class="node">
<title>dir_89c5235ccff7549ef210771110e619d5</title>
<g id="a_node5"><a xlink:href="dir_89c5235ccff7549ef210771110e619d5.html" target="_top" xlink:title="current_output">
<polygon fill="#a2b4d6" stroke="#404040" points="358,-74 270,-74 270,-55 358,-55 358,-74"/>
<text text-anchor="middle" x="314" y="-62" font-family="Helvetica,sans-Serif" font-size="10.00">current_output</text>
</a>
</g>
</g>
<!-- dir_89c5235ccff7549ef210771110e619d5&#45;&gt;dir_14bc92f4b96c8519b376567118ac28b3 -->
<g id="edge7" class="edge">
<title>dir_89c5235ccff7549ef210771110e619d5&#45;&gt;dir_14bc92f4b96c8519b376567118ac28b3</title>
<g id="a_edge7"><a xlink:href="dir_000502_000532.html" target="_top">
<path fill="none" stroke="#63b8ff" d="M326.85,-54.98C339.14,-46.84 357.91,-34.41 372.48,-24.76"/>
<polygon fill="#63b8ff" stroke="#63b8ff" points="374.51,-27.61 380.91,-19.17 370.64,-21.78 374.51,-27.61"/>
</a>
</g>
<g id="a_edge7&#45;headlabel"><a xlink:href="dir_000502_000532.html" target="_top" xlink:title="1">
<text text-anchor="middle" x="373.08" y="-29.46" font-family="Helvetica,sans-Serif" font-size="10.00" fill="#63b8ff">1</text>
</a>
</g>
</g>
<!-- dir_89c5235ccff7549ef210771110e619d5&#45;&gt;dir_d44c64559bbebec7f509842c48db8b23 -->
<g id="edge8" class="edge">
<title>dir_89c5235ccff7549ef210771110e619d5&#45;&gt;dir_d44c64559bbebec7f509842c48db8b23</title>
<g id="a_edge8"><a xlink:href="dir_000502_000788.html" target="_top">
<path fill="none" stroke="#63b8ff" d="M330.92,-54.92C341.2,-49.9 354.67,-43.65 367,-39 386.63,-31.59 409.08,-24.84 427.33,-19.77"/>
<polygon fill="#63b8ff" stroke="#63b8ff" points="428.27,-23.14 437,-17.13 426.43,-16.38 428.27,-23.14"/>
</a>
</g>
<g id="a_edge8&#45;headlabel"><a xlink:href="dir_000502_000788.html" target="_top" xlink:title="2">
<text text-anchor="middle" x="425.55" y="-24.32" font-family="Helvetica,sans-Serif" font-size="10.00" fill="#63b8ff">2</text>
</a>
</g>
</g>
<!-- dir_f32f031c429914e7bf04824cd8d005cb -->
<g id="node6" class="node">
<title>dir_f32f031c429914e7bf04824cd8d005cb</title>
<g id="a_node6"><a xlink:href="dir_f32f031c429914e7bf04824cd8d005cb.html" target="_top" xlink:title="digital_input_logic">
<polygon fill="#a2b4d6" stroke="#404040" points="252,-74 146,-74 146,-55 252,-55 252,-74"/>
<text text-anchor="middle" x="199" y="-62" font-family="Helvetica,sans-Serif" font-size="10.00">digital_input_logic</text>
</a>
</g>
</g>
<!-- dir_f32f031c429914e7bf04824cd8d005cb&#45;&gt;dir_14bc92f4b96c8519b376567118ac28b3 -->
<g id="edge9" class="edge">
<title>dir_f32f031c429914e7bf04824cd8d005cb&#45;&gt;dir_14bc92f4b96c8519b376567118ac28b3</title>
<g id="a_edge9"><a xlink:href="dir_000519_000532.html" target="_top">
<path fill="none" stroke="#63b8ff" d="M218.25,-54.94C230.35,-49.8 246.38,-43.42 261,-39 293.53,-29.16 331.51,-21.38 358.54,-16.45"/>
<polygon fill="#63b8ff" stroke="#63b8ff" points="359.45,-19.84 368.68,-14.64 358.22,-12.95 359.45,-19.84"/>
</a>
</g>
<g id="a_edge9&#45;headlabel"><a xlink:href="dir_000519_000532.html" target="_top" xlink:title="1">
<text text-anchor="middle" x="356.41" y="-20.77" font-family="Helvetica,sans-Serif" font-size="10.00" fill="#63b8ff">1</text>
</a>
</g>
</g>
<!-- dir_f32f031c429914e7bf04824cd8d005cb&#45;&gt;dir_d44c64559bbebec7f509842c48db8b23 -->
<g id="edge10" class="edge">
<title>dir_f32f031c429914e7bf04824cd8d005cb&#45;&gt;dir_d44c64559bbebec7f509842c48db8b23</title>
<g id="a_edge10"><a xlink:href="dir_000519_000788.html" target="_top">
<path fill="none" stroke="#63b8ff" d="M217.04,-54.94C229.2,-49.53 245.74,-42.86 261,-39 330.36,-21.46 352.54,-31.35 426.42,-19.04"/>
<polygon fill="#63b8ff" stroke="#63b8ff" points="427.45,-22.41 436.7,-17.24 426.24,-15.52 427.45,-22.41"/>
</a>
</g>
<g id="a_edge10&#45;headlabel"><a xlink:href="dir_000519_000788.html" target="_top" xlink:title="3">
<text text-anchor="middle" x="424.4" y="-23.33" font-family="Helvetica,sans-Serif" font-size="10.00" fill="#63b8ff">3</text>
</a>
</g>
</g>
<!-- dir_6dcd3e613cf96b83e2fcad8cc0240281 -->
<g id="node7" class="node">
<title>dir_6dcd3e613cf96b83e2fcad8cc0240281</title>
<g id="a_node7"><a xlink:href="dir_6dcd3e613cf96b83e2fcad8cc0240281.html" target="_top" xlink:title="digital_input_loop">
<polygon fill="#a2b4d6" stroke="#404040" points="128,-74 24,-74 24,-55 128,-55 128,-74"/>
<text text-anchor="middle" x="76" y="-62" font-family="Helvetica,sans-Serif" font-size="10.00">digital_input_loop</text>
</a>
</g>
</g>
<!-- dir_6dcd3e613cf96b83e2fcad8cc0240281&#45;&gt;dir_14bc92f4b96c8519b376567118ac28b3 -->
<g id="edge11" class="edge">
<title>dir_6dcd3e613cf96b83e2fcad8cc0240281&#45;&gt;dir_14bc92f4b96c8519b376567118ac28b3</title>
<g id="a_edge11"><a xlink:href="dir_000521_000532.html" target="_top">
<path fill="none" stroke="#63b8ff" d="M93.72,-54.89C105.67,-49.46 121.95,-42.78 137,-39 214.47,-19.53 308.41,-13.36 358.5,-11.4"/>
<polygon fill="#63b8ff" stroke="#63b8ff" points="358.92,-14.89 368.79,-11.04 358.67,-7.9 358.92,-14.89"/>
</a>
</g>
<g id="a_edge11&#45;headlabel"><a xlink:href="dir_000521_000532.html" target="_top" xlink:title="1">
<text text-anchor="middle" x="355.43" y="-15.36" font-family="Helvetica,sans-Serif" font-size="10.00" fill="#63b8ff">1</text>
</a>
</g>
</g>
<!-- dir_6dcd3e613cf96b83e2fcad8cc0240281&#45;&gt;dir_d44c64559bbebec7f509842c48db8b23 -->
<g id="edge12" class="edge">
<title>dir_6dcd3e613cf96b83e2fcad8cc0240281&#45;&gt;dir_d44c64559bbebec7f509842c48db8b23</title>
<g id="a_edge12"><a xlink:href="dir_000521_000788.html" target="_top">
<path fill="none" stroke="#63b8ff" d="M93.15,-54.92C105.12,-49.36 121.65,-42.52 137,-39 260.15,-10.78 297.97,-37.39 426.49,-18.92"/>
<polygon fill="#63b8ff" stroke="#63b8ff" points="427.35,-22.33 436.72,-17.39 426.31,-15.41 427.35,-22.33"/>
</a>
</g>
<g id="a_edge12&#45;headlabel"><a xlink:href="dir_000521_000788.html" target="_top" xlink:title="3">
<text text-anchor="middle" x="424.22" y="-23.18" font-family="Helvetica,sans-Serif" font-size="10.00" fill="#63b8ff">3</text>
</a>
</g>
</g>
<!-- dir_9fff7fac5ad4df21ed2ab54d373cdc71 -->
<g id="node8" class="node">
<title>dir_9fff7fac5ad4df21ed2ab54d373cdc71</title>
<g id="a_node8"><a xlink:href="dir_9fff7fac5ad4df21ed2ab54d373cdc71.html" target="_top" xlink:title="digital_output">
<polygon fill="#a2b4d6" stroke="#404040" points="765,-74 681,-74 681,-55 765,-55 765,-74"/>
<text text-anchor="middle" x="723" y="-62" font-family="Helvetica,sans-Serif" font-size="10.00">digital_output</text>
</a>
</g>
</g>
<!-- dir_9fff7fac5ad4df21ed2ab54d373cdc71&#45;&gt;dir_14bc92f4b96c8519b376567118ac28b3 -->
<g id="edge13" class="edge">
<title>dir_9fff7fac5ad4df21ed2ab54d373cdc71&#45;&gt;dir_14bc92f4b96c8519b376567118ac28b3</title>
<g id="a_edge13"><a xlink:href="dir_000523_000532.html" target="_top">
<path fill="none" stroke="#63b8ff" d="M708.82,-54.94C698.88,-49.39 685.08,-42.55 672,-39 570.06,-11.36 537.28,-35.21 429.15,-18.87"/>
<polygon fill="#63b8ff" stroke="#63b8ff" points="429.58,-15.39 419.16,-17.27 428.48,-22.3 429.58,-15.39"/>
</a>
</g>
<g id="a_edge13&#45;headlabel"><a xlink:href="dir_000523_000532.html" target="_top" xlink:title="1">
<text text-anchor="middle" x="433.58" y="-10.65" font-family="Helvetica,sans-Serif" font-size="10.00" fill="#63b8ff">1</text>
</a>
</g>
</g>
<!-- dir_9fff7fac5ad4df21ed2ab54d373cdc71&#45;&gt;dir_d44c64559bbebec7f509842c48db8b23 -->
<g id="edge14" class="edge">
<title>dir_9fff7fac5ad4df21ed2ab54d373cdc71&#45;&gt;dir_d44c64559bbebec7f509842c48db8b23</title>
<g id="a_edge14"><a xlink:href="dir_000523_000788.html" target="_top">
<path fill="none" stroke="#63b8ff" d="M708.32,-54.93C698.39,-49.52 684.79,-42.84 672,-39 613.15,-21.33 541.67,-14.58 499.39,-12.03"/>
<polygon fill="#63b8ff" stroke="#63b8ff" points="499.47,-8.53 489.29,-11.46 499.08,-15.51 499.47,-8.53"/>
</a>
</g>
<g id="a_edge14&#45;headlabel"><a xlink:href="dir_000523_000788.html" target="_top" xlink:title="3">
<text text-anchor="middle" x="503.22" y="-3.39" font-family="Helvetica,sans-Serif" font-size="10.00" fill="#63b8ff">3</text>
</a>
</g>
</g>
</g>
</svg>

<g id="navigator" transform="translate(0 0)" fill="#404254">
  <rect fill="#f2f5e9" fill-opacity="0.5" stroke="#606060" stroke-width=".5" x="0" y="0" width="60" height="60"/>
  <use id="zoomplus" xlink:href="#zoomPlus" x="17" y="9" onmousedown="handleZoom(evt,'in')"/>
  <use id="zoomminus" xlink:href="#zoomMin" x="42" y="9" onmousedown="handleZoom(evt,'out')"/>
  <use id="reset" xlink:href="#resetDef" x="30" y="36" onmousedown="handleReset()"/>
   <use id="arrowup" xlink:href="#arrowUp" x="0" y="0" onmousedown="handlePan(0,-1)"/>
  <use id="arrowright" xlink:href="#arrowRight" x="0" y="0" onmousedown="handlePan(1,0)"/>
  <use id="arrowdown" xlink:href="#arrowDown" x="0" y="0" onmousedown="handlePan(0,1)"/>
  <use id="arrowleft" xlink:href="#arrowLeft" x="0" y="0" onmousedown="handlePan(-1,0)"/>
</g>
<svg viewBox="0 0 15 15" width="100%" height="30px" preserveAspectRatio="xMaxYMin meet">
 <g id="arrow_out" transform="scale(0.3 0.3)">
  <a xlink:href="dir_c1836e2d28cb20955f1bf1eb244eb9b1_dep_org.svg" target="_base">
   <rect id="button" ry="5" rx="5" y="6" x="6" height="38" width="38"
        fill="#f2f5e9" fill-opacity="0.5" stroke="#606060" stroke-width="1.0"/>
   <path id="arrow"
     d="M 11.500037,31.436501 C 11.940474,20.09759 22.043105,11.32322 32.158766,21.979434 L 37.068811,17.246167 C 37.068811,17.246167 37.088388,32 37.088388,32 L 22.160133,31.978069 C 22.160133,31.978069 26.997745,27.140456 26.997745,27.140456 C 18.528582,18.264221 13.291696,25.230495 11.500037,31.436501 z"
     style="fill:#404040;"/>
  </a>
 </g>
</svg>

<style type='text/css'>
<![CDATA[
[data-mouse-over-selected='false'] { opacity: 0.7; }
[data-mouse-over-selected='true']  { opacity: 1.0; }
]]>
</style>
<script type="application/ecmascript"><![CDATA[
document.addEventListener('DOMContentLoaded', (event) => {
  highlightEdges();
  highlightAdjacentNodes();
});
]]></script>
</svg>
