<?xml version="1.0" encoding="UTF-8" standalone="no"?>
<!DOCTYPE svg PUBLIC "-//W3C//DTD SVG 1.1//EN"
 "http://www.w3.org/Graphics/SVG/1.1/DTD/svg11.dtd">
<!-- Generated by graphviz version 2.43.0 (0)
 -->
<!-- Title: projects/admt4000/src Pages: 1 -->
<svg width="293pt" height="180pt"
 viewBox="0.00 0.00 293.36 180.00" xmlns="http://www.w3.org/2000/svg" xmlns:xlink="http://www.w3.org/1999/xlink">

<svg id="main" version="1.1" xmlns="http://www.w3.org/2000/svg" xmlns:xlink="http://www.w3.org/1999/xlink" xml:space="preserve">

<style type="text/css"><![CDATA[
.node, .edge {opacity: 0.7;}
.node.selected, .edge.selected {opacity: 1;}
.edge:hover path { stroke: red; }
.edge:hover polygon { stroke: red; fill: red; }
]]></style>
<script type="application/ecmascript" xlink:href="svg.min.js"/>
<svg id="graph" class="graph">
<g id="graph0" class="graph" transform="scale(1 1) rotate(0) translate(4 176)">
<title>projects/admt4000/src</title>
<g id="clust1" class="cluster">
<title>clusterdir_31a3d675cad147d0f28c06f04ad2a27f</title>
<g id="a_clust1"><a xlink:href="dir_31a3d675cad147d0f28c06f04ad2a27f.html" target="_top" xlink:title="admt4000">
<polygon fill="#edf0f7" stroke="#7f7f7f" stroke-dasharray="5,2" points="53.36,-39 53.36,-164 277.36,-164 277.36,-39 53.36,-39"/>
<text text-anchor="middle" x="165.36" y="-152" font-family="Helvetica,sans-Serif" font-size="10.00">admt4000</text>
</a>
</g>
</g>
<g id="clust2" class="cluster">
<title>clusterdir_9ba3a38ecfc6615a108bb981ffaeb53c</title>
<g id="a_clust2"><a xlink:href="dir_9ba3a38ecfc6615a108bb981ffaeb53c.html" target="_top">
<polygon fill="#edf0f7" stroke="#404040" stroke-width="2" points="61.36,-47 61.36,-137 269.36,-137 269.36,-47 61.36,-47"/>
</a>
</g>
</g>
<!-- dir_9ba3a38ecfc6615a108bb981ffaeb53c -->
<g id="node1" class="node">
<title>dir_9ba3a38ecfc6615a108bb981ffaeb53c</title>
<text text-anchor="middle" x="245.36" y="-117" font-family="Helvetica,sans-Serif" font-size="10.00">src</text>
</g>
<!-- dir_12daa04983669583c4c8203f90d140f9 -->
<g id="node2" class="node">
<title>dir_12daa04983669583c4c8203f90d140f9</title>
<g id="a_node2"><a xlink:href="dir_12daa04983669583c4c8203f90d140f9.html" target="_top" xlink:title="common">
<polygon fill="#a2b4d6" stroke="#404040" points="160.86,-74 101.86,-74 101.86,-55 160.86,-55 160.86,-74"/>
<text text-anchor="middle" x="131.36" y="-62" font-family="Helvetica,sans-Serif" font-size="10.00">common</text>
</a>
</g>
</g>
<!-- dir_14bc92f4b96c8519b376567118ac28b3 -->
<g id="node6" class="node">
<title>dir_14bc92f4b96c8519b376567118ac28b3</title>
<g id="a_node6"><a xlink:href="dir_14bc92f4b96c8519b376567118ac28b3.html" target="_top" xlink:title="drivers">
<polygon fill="#edf0f7" stroke="red" points="98.36,-19 48.36,-19 48.36,0 98.36,0 98.36,-19"/>
<text text-anchor="middle" x="73.36" y="-7" font-family="Helvetica,sans-Serif" font-size="10.00">drivers</text>
</a>
</g>
</g>
<!-- dir_12daa04983669583c4c8203f90d140f9&#45;&gt;dir_14bc92f4b96c8519b376567118ac28b3 -->
<g id="edge1" class="edge">
<title>dir_12daa04983669583c4c8203f90d140f9&#45;&gt;dir_14bc92f4b96c8519b376567118ac28b3</title>
<g id="a_edge1"><a xlink:href="dir_000416_000532.html" target="_top">
<path fill="none" stroke="#63b8ff" d="M122.04,-54.98C113.55,-47.23 100.8,-35.58 90.48,-26.14"/>
<polygon fill="#63b8ff" stroke="#63b8ff" points="92.59,-23.33 82.85,-19.17 87.87,-28.5 92.59,-23.33"/>
</a>
</g>
<g id="a_edge1&#45;headlabel"><a xlink:href="dir_000416_000532.html" target="_top" xlink:title="2">
<text text-anchor="middle" x="97.16" y="-21.16" font-family="Helvetica,sans-Serif" font-size="10.00" fill="#63b8ff">2</text>
</a>
</g>
</g>
<!-- dir_d44c64559bbebec7f509842c48db8b23 -->
<g id="node7" class="node">
<title>dir_d44c64559bbebec7f509842c48db8b23</title>
<g id="a_node7"><a xlink:href="dir_d44c64559bbebec7f509842c48db8b23.html" target="_top" xlink:title="include">
<polygon fill="#edf0f7" stroke="#404040" points="215.36,-19 163.36,-19 163.36,0 215.36,0 215.36,-19"/>
<text text-anchor="middle" x="189.36" y="-7" font-family="Helvetica,sans-Serif" font-size="10.00">include</text>
</a>
</g>
</g>
<!-- dir_12daa04983669583c4c8203f90d140f9&#45;&gt;dir_d44c64559bbebec7f509842c48db8b23 -->
<g id="edge2" class="edge">
<title>dir_12daa04983669583c4c8203f90d140f9&#45;&gt;dir_d44c64559bbebec7f509842c48db8b23</title>
<g id="a_edge2"><a xlink:href="dir_000416_000788.html" target="_top">
<path fill="none" stroke="#63b8ff" d="M140.68,-54.98C149.17,-47.23 161.92,-35.58 172.25,-26.14"/>
<polygon fill="#63b8ff" stroke="#63b8ff" points="174.85,-28.5 179.88,-19.17 170.13,-23.33 174.85,-28.5"/>
</a>
</g>
<g id="a_edge2&#45;headlabel"><a xlink:href="dir_000416_000788.html" target="_top" xlink:title="3">
<text text-anchor="middle" x="174.12" y="-30.52" font-family="Helvetica,sans-Serif" font-size="10.00" fill="#63b8ff">3</text>
</a>
</g>
</g>
<!-- dir_a954ef04380abcc321dc7fb936b48ec1 -->
<g id="node3" class="node">
<title>dir_a954ef04380abcc321dc7fb936b48ec1</title>
<g id="a_node3"><a xlink:href="dir_a954ef04380abcc321dc7fb936b48ec1.html" target="_top" xlink:title="examples">
<polygon fill="#a2b4d6" stroke="#404040" points="211.86,-129 146.86,-129 146.86,-110 211.86,-110 211.86,-129"/>
<text text-anchor="middle" x="179.36" y="-117" font-family="Helvetica,sans-Serif" font-size="10.00">examples</text>
</a>
</g>
</g>
<!-- dir_a954ef04380abcc321dc7fb936b48ec1&#45;&gt;dir_12daa04983669583c4c8203f90d140f9 -->
<g id="edge5" class="edge">
<title>dir_a954ef04380abcc321dc7fb936b48ec1&#45;&gt;dir_12daa04983669583c4c8203f90d140f9</title>
<g id="a_edge5"><a xlink:href="dir_000603_000416.html" target="_top">
<path fill="none" stroke="#63b8ff" d="M171.44,-109.75C164.52,-102.11 154.3,-90.82 145.91,-81.56"/>
<polygon fill="#63b8ff" stroke="#63b8ff" points="148.45,-79.15 139.14,-74.09 143.26,-83.85 148.45,-79.15"/>
</a>
</g>
<g id="a_edge5&#45;headlabel"><a xlink:href="dir_000603_000416.html" target="_top" xlink:title="1">
<text text-anchor="middle" x="152.97" y="-77.41" font-family="Helvetica,sans-Serif" font-size="10.00" fill="#63b8ff">1</text>
</a>
</g>
</g>
<!-- dir_0bb79d6a83cfcf0ad99764c4144043fa -->
<g id="node5" class="node">
<title>dir_0bb79d6a83cfcf0ad99764c4144043fa</title>
<g id="a_node5"><a xlink:href="dir_0bb79d6a83cfcf0ad99764c4144043fa.html" target="_top" xlink:title="iio">
<polygon fill="#edf0f7" stroke="red" points="44.86,-74 15.86,-74 15.86,-55 44.86,-55 44.86,-74"/>
<text text-anchor="middle" x="30.36" y="-62" font-family="Helvetica,sans-Serif" font-size="10.00">iio</text>
</a>
</g>
</g>
<!-- dir_a954ef04380abcc321dc7fb936b48ec1&#45;&gt;dir_0bb79d6a83cfcf0ad99764c4144043fa -->
<g id="edge6" class="edge">
<title>dir_a954ef04380abcc321dc7fb936b48ec1&#45;&gt;dir_0bb79d6a83cfcf0ad99764c4144043fa</title>
<g id="a_edge6"><a xlink:href="dir_000603_000705.html" target="_top">
<path fill="none" stroke="#63b8ff" d="M155.42,-109.98C127.85,-100.18 82.78,-84.15 54.94,-74.24"/>
<polygon fill="#63b8ff" stroke="#63b8ff" points="55.78,-70.83 45.19,-70.77 53.44,-77.42 55.78,-70.83"/>
</a>
</g>
<g id="a_edge6&#45;headlabel"><a xlink:href="dir_000603_000705.html" target="_top" xlink:title="2">
<text text-anchor="middle" x="60.12" y="-66.86" font-family="Helvetica,sans-Serif" font-size="10.00" fill="#63b8ff">2</text>
</a>
</g>
</g>
<!-- dir_a954ef04380abcc321dc7fb936b48ec1&#45;&gt;dir_14bc92f4b96c8519b376567118ac28b3 -->
<g id="edge3" class="edge">
<title>dir_a954ef04380abcc321dc7fb936b48ec1&#45;&gt;dir_14bc92f4b96c8519b376567118ac28b3</title>
<g id="a_edge3"><a xlink:href="dir_000603_000532.html" target="_top">
<path fill="none" stroke="#63b8ff" d="M150.09,-109.87C131.43,-102.96 108.08,-91.5 93.36,-74 82.79,-61.42 77.79,-43.23 75.44,-29.53"/>
<polygon fill="#63b8ff" stroke="#63b8ff" points="78.86,-28.74 74.02,-19.31 71.93,-29.7 78.86,-28.74"/>
</a>
</g>
<g id="a_edge3&#45;headlabel"><a xlink:href="dir_000603_000532.html" target="_top" xlink:title="2">
<text text-anchor="middle" x="82.17" y="-29.41" font-family="Helvetica,sans-Serif" font-size="10.00" fill="#63b8ff">2</text>
</a>
</g>
</g>
<!-- dir_a954ef04380abcc321dc7fb936b48ec1&#45;&gt;dir_d44c64559bbebec7f509842c48db8b23 -->
<g id="edge4" class="edge">
<title>dir_a954ef04380abcc321dc7fb936b48ec1&#45;&gt;dir_d44c64559bbebec7f509842c48db8b23</title>
<g id="a_edge4"><a xlink:href="dir_000603_000788.html" target="_top">
<path fill="none" stroke="#63b8ff" d="M185.73,-109.84C191.62,-101.25 199.97,-87.45 203.36,-74 207.17,-58.92 206.88,-54.15 203.36,-39 202.51,-35.35 201.13,-31.62 199.55,-28.12"/>
<polygon fill="#63b8ff" stroke="#63b8ff" points="202.58,-26.37 194.88,-19.09 196.36,-29.58 202.58,-26.37"/>
</a>
</g>
<g id="a_edge4&#45;headlabel"><a xlink:href="dir_000603_000788.html" target="_top" xlink:title="3">
<text text-anchor="middle" x="206.76" y="-25.75" font-family="Helvetica,sans-Serif" font-size="10.00" fill="#63b8ff">3</text>
</a>
</g>
</g>
<!-- dir_f3d9559b3639161c63ee7ca7ccc20bfe -->
<g id="node4" class="node">
<title>dir_f3d9559b3639161c63ee7ca7ccc20bfe</title>
<g id="a_node4"><a xlink:href="dir_f3d9559b3639161c63ee7ca7ccc20bfe.html" target="_top" xlink:title="platform">
<polygon fill="#a2b4d6" stroke="#404040" points="128.86,-129 69.86,-129 69.86,-110 128.86,-110 128.86,-129"/>
<text text-anchor="middle" x="99.36" y="-117" font-family="Helvetica,sans-Serif" font-size="10.00">platform</text>
</a>
</g>
</g>
<!-- dir_f3d9559b3639161c63ee7ca7ccc20bfe&#45;&gt;dir_14bc92f4b96c8519b376567118ac28b3 -->
<g id="edge8" class="edge">
<title>dir_f3d9559b3639161c63ee7ca7ccc20bfe&#45;&gt;dir_14bc92f4b96c8519b376567118ac28b3</title>
<g id="a_edge8"><a xlink:href="dir_001057_000532.html" target="_top">
<path fill="none" stroke="#63b8ff" d="M69.43,-112.92C47.81,-107.16 20.1,-95.81 6.36,-74 -1.93,-60.84 -2.22,-51.97 6.36,-39 13.68,-27.94 26.26,-21.15 38.55,-17"/>
<polygon fill="#63b8ff" stroke="#63b8ff" points="39.61,-20.34 48.25,-14.2 37.67,-13.61 39.61,-20.34"/>
</a>
</g>
<g id="a_edge8&#45;headlabel"><a xlink:href="dir_001057_000532.html" target="_top" xlink:title="9">
<text text-anchor="middle" x="36.94" y="-21.56" font-family="Helvetica,sans-Serif" font-size="10.00" fill="#63b8ff">9</text>
</a>
</g>
</g>
<!-- dir_f3d9559b3639161c63ee7ca7ccc20bfe&#45;&gt;dir_d44c64559bbebec7f509842c48db8b23 -->
<g id="edge7" class="edge">
<title>dir_f3d9559b3639161c63ee7ca7ccc20bfe&#45;&gt;dir_d44c64559bbebec7f509842c48db8b23</title>
<g id="a_edge7"><a xlink:href="dir_001057_000788.html" target="_top">
<path fill="none" stroke="#63b8ff" d="M120.95,-109.97C136.79,-102.66 157.67,-90.67 170.36,-74 180.28,-60.98 185.04,-42.84 187.31,-29.27"/>
<polygon fill="#63b8ff" stroke="#63b8ff" points="190.81,-29.56 188.7,-19.17 183.87,-28.61 190.81,-29.56"/>
</a>
</g>
<g id="a_edge7&#45;headlabel"><a xlink:href="dir_001057_000788.html" target="_top" xlink:title="5">
<text text-anchor="middle" x="193.13" y="-31" font-family="Helvetica,sans-Serif" font-size="10.00" fill="#63b8ff">5</text>
</a>
</g>
</g>
</g>
</svg>
</svg>

<style type='text/css'>
<![CDATA[
[data-mouse-over-selected='false'] { opacity: 0.7; }
[data-mouse-over-selected='true']  { opacity: 1.0; }
]]>
</style>
<script type="application/ecmascript"><![CDATA[
document.addEventListener('DOMContentLoaded', (event) => {
  highlightEdges();
  highlightAdjacentNodes();
});
]]></script>
</svg>
