<?xml version="1.0" encoding="UTF-8" standalone="no"?>
<!DOCTYPE svg PUBLIC "-//W3C//DTD SVG 1.1//EN"
 "http://www.w3.org/Graphics/SVG/1.1/DTD/svg11.dtd">
<!-- Generated by graphviz version 2.43.0 (0)
 -->
<!-- Title: projects/ad&#45;acevsecrdset&#45;sl/src Pages: 1 -->
<svg width="473pt" height="347pt"
 viewBox="0.00 0.00 472.66 347.09" xmlns="http://www.w3.org/2000/svg" xmlns:xlink="http://www.w3.org/1999/xlink">
<g id="graph0" class="graph" transform="scale(1 1) rotate(0) translate(4 343.09)">
<title>projects/ad&#45;acevsecrdset&#45;sl/src</title>
<g id="clust1" class="cluster">
<title>clusterdir_fb34397e0d34ed10b81e1fa32d46de53</title>
<g id="a_clust1"><a xlink:href="dir_fb34397e0d34ed10b81e1fa32d46de53.html" target="_top" xlink:title="ad&#45;acevsecrdset&#45;sl">
<polygon fill="#edf0f7" stroke="#7f7f7f" stroke-dasharray="5,2" points="88,-41.09 88,-331.09 375,-331.09 375,-41.09 88,-41.09"/>
<text text-anchor="middle" x="231.5" y="-319.09" font-family="Helvetica,sans-Serif" font-size="10.00">ad&#45;acevsecrdset&#45;sl</text>
</a>
</g>
</g>
<g id="clust2" class="cluster">
<title>clusterdir_cbe0c07ac0eb8e748a12193bebf3122e</title>
<g id="a_clust2"><a xlink:href="dir_cbe0c07ac0eb8e748a12193bebf3122e.html" target="_top">
<polygon fill="#edf0f7" stroke="#404040" stroke-width="2" points="96,-49.09 96,-304.09 367,-304.09 367,-49.09 96,-49.09"/>
</a>
</g>
</g>
<!-- dir_cbe0c07ac0eb8e748a12193bebf3122e -->
<g id="node1" class="node">
<title>dir_cbe0c07ac0eb8e748a12193bebf3122e</title>
<text text-anchor="middle" x="206" y="-284.09" font-family="Helvetica,sans-Serif" font-size="10.00">src</text>
</g>
<!-- dir_0ae2b3af84f66247899ba8b0f94e84c2 -->
<g id="node10" class="node">
<title>dir_0ae2b3af84f66247899ba8b0f94e84c2</title>
<g id="a_node10"><a xlink:href="dir_0ae2b3af84f66247899ba8b0f94e84c2.html" target="_top" xlink:title="state_machine">
<polygon fill="#a2b4d6" stroke="#404040" points="272.5,-241.09 183.5,-241.09 183.5,-222.09 272.5,-222.09 272.5,-241.09"/>
<text text-anchor="middle" x="228" y="-229.09" font-family="Helvetica,sans-Serif" font-size="10.00">state_machine</text>
</a>
</g>
</g>
<!-- dir_cbe0c07ac0eb8e748a12193bebf3122e&#45;&gt;dir_0ae2b3af84f66247899ba8b0f94e84c2 -->
<g id="edge1" class="edge">
<title>dir_cbe0c07ac0eb8e748a12193bebf3122e&#45;&gt;dir_0ae2b3af84f66247899ba8b0f94e84c2</title>
<g id="a_edge1"><a xlink:href="dir_001162_001321.html" target="_top">
<path fill="none" stroke="#63b8ff" d="M209.63,-276.84C212.58,-269.74 216.83,-259.49 220.51,-250.65"/>
<polygon fill="#63b8ff" stroke="#63b8ff" points="223.83,-251.76 224.43,-241.18 217.37,-249.08 223.83,-251.76"/>
</a>
</g>
<g id="a_edge1&#45;headlabel"><a xlink:href="dir_001162_001321.html" target="_top" xlink:title="7">
<text text-anchor="middle" x="225.08" y="-253.67" font-family="Helvetica,sans-Serif" font-size="10.00" fill="#63b8ff">7</text>
</a>
</g>
</g>
<!-- dir_d44c64559bbebec7f509842c48db8b23 -->
<g id="node13" class="node">
<title>dir_d44c64559bbebec7f509842c48db8b23</title>
<g id="a_node13"><a xlink:href="dir_d44c64559bbebec7f509842c48db8b23.html" target="_top" xlink:title="include">
<polygon fill="#edf0f7" stroke="#404040" points="218,-21.09 166,-21.09 166,-2.09 218,-2.09 218,-21.09"/>
<text text-anchor="middle" x="192" y="-9.09" font-family="Helvetica,sans-Serif" font-size="10.00">include</text>
</a>
</g>
</g>
<!-- dir_cbe0c07ac0eb8e748a12193bebf3122e&#45;&gt;dir_d44c64559bbebec7f509842c48db8b23 -->
<g id="edge2" class="edge">
<title>dir_cbe0c07ac0eb8e748a12193bebf3122e&#45;&gt;dir_d44c64559bbebec7f509842c48db8b23</title>
<g id="a_edge2"><a xlink:href="dir_001162_000788.html" target="_top">
<path fill="none" stroke="#63b8ff" d="M190.18,-281.01C141.94,-266.59 0,-220.5 0,-177.59 0,-177.59 0,-177.59 0,-120.59 0,-49.99 99.84,-25.05 155.53,-16.63"/>
<polygon fill="#63b8ff" stroke="#63b8ff" points="156.29,-20.06 165.71,-15.2 155.32,-13.13 156.29,-20.06"/>
</a>
</g>
<g id="a_edge2&#45;headlabel"><a xlink:href="dir_001162_000788.html" target="_top" xlink:title="23">
<text text-anchor="middle" x="153.13" y="-20.87" font-family="Helvetica,sans-Serif" font-size="10.00" fill="#63b8ff">23</text>
</a>
</g>
</g>
<!-- dir_75cf2dfac94da84333039ca41decf9ac -->
<g id="node2" class="node">
<title>dir_75cf2dfac94da84333039ca41decf9ac</title>
<g id="a_node2"><a xlink:href="dir_75cf2dfac94da84333039ca41decf9ac.html" target="_top" xlink:title="common">
<polygon fill="#a2b4d6" stroke="#404040" points="301.5,-296.09 242.5,-296.09 242.5,-277.09 301.5,-277.09 301.5,-296.09"/>
<text text-anchor="middle" x="272" y="-284.09" font-family="Helvetica,sans-Serif" font-size="10.00">common</text>
</a>
</g>
</g>
<!-- dir_14bc92f4b96c8519b376567118ac28b3 -->
<g id="node12" class="node">
<title>dir_14bc92f4b96c8519b376567118ac28b3</title>
<g id="a_node12"><a xlink:href="dir_14bc92f4b96c8519b376567118ac28b3.html" target="_top" xlink:title="drivers">
<polygon fill="#edf0f7" stroke="red" points="433,-76.09 383,-76.09 383,-57.09 433,-57.09 433,-76.09"/>
<text text-anchor="middle" x="408" y="-64.09" font-family="Helvetica,sans-Serif" font-size="10.00">drivers</text>
</a>
</g>
</g>
<!-- dir_75cf2dfac94da84333039ca41decf9ac&#45;&gt;dir_14bc92f4b96c8519b376567118ac28b3 -->
<g id="edge3" class="edge">
<title>dir_75cf2dfac94da84333039ca41decf9ac&#45;&gt;dir_14bc92f4b96c8519b376567118ac28b3</title>
<g id="a_edge3"><a xlink:href="dir_000388_000532.html" target="_top">
<path fill="none" stroke="#63b8ff" d="M280.37,-276.96C301.54,-254.68 357.8,-192.61 389,-131.09 396.25,-116.81 401.23,-99.28 404.27,-86.26"/>
<polygon fill="#63b8ff" stroke="#63b8ff" points="407.76,-86.69 406.45,-76.18 400.92,-85.21 407.76,-86.69"/>
</a>
</g>
<g id="a_edge3&#45;headlabel"><a xlink:href="dir_000388_000532.html" target="_top" xlink:title="2">
<text text-anchor="middle" x="409.77" y="-88.3" font-family="Helvetica,sans-Serif" font-size="10.00" fill="#63b8ff">2</text>
</a>
</g>
</g>
<!-- dir_745074d4fb2e16c88e1a29afd67ba736 -->
<g id="node3" class="node">
<title>dir_745074d4fb2e16c88e1a29afd67ba736</title>
<g id="a_node3"><a xlink:href="dir_745074d4fb2e16c88e1a29afd67ba736.html" target="_top" xlink:title="inter">
<polygon fill="#a2b4d6" stroke="#404040" points="358.5,-296.09 319.5,-296.09 319.5,-277.09 358.5,-277.09 358.5,-296.09"/>
<text text-anchor="middle" x="339" y="-284.09" font-family="Helvetica,sans-Serif" font-size="10.00">inter</text>
</a>
</g>
</g>
<!-- dir_745074d4fb2e16c88e1a29afd67ba736&#45;&gt;dir_0ae2b3af84f66247899ba8b0f94e84c2 -->
<g id="edge4" class="edge">
<title>dir_745074d4fb2e16c88e1a29afd67ba736&#45;&gt;dir_0ae2b3af84f66247899ba8b0f94e84c2</title>
<g id="a_edge4"><a xlink:href="dir_000789_001321.html" target="_top">
<path fill="none" stroke="#63b8ff" d="M321.17,-277.08C303.39,-268.59 275.85,-255.44 255.32,-245.64"/>
<polygon fill="#63b8ff" stroke="#63b8ff" points="256.69,-242.41 246.16,-241.26 253.67,-248.73 256.69,-242.41"/>
</a>
</g>
<g id="a_edge4&#45;headlabel"><a xlink:href="dir_000789_001321.html" target="_top" xlink:title="1">
<text text-anchor="middle" x="261.16" y="-238.9" font-family="Helvetica,sans-Serif" font-size="10.00" fill="#63b8ff">1</text>
</a>
</g>
</g>
<!-- dir_745074d4fb2e16c88e1a29afd67ba736&#45;&gt;dir_d44c64559bbebec7f509842c48db8b23 -->
<g id="edge5" class="edge">
<title>dir_745074d4fb2e16c88e1a29afd67ba736&#45;&gt;dir_d44c64559bbebec7f509842c48db8b23</title>
<g id="a_edge5"><a xlink:href="dir_000789_000788.html" target="_top">
<path fill="none" stroke="#63b8ff" d="M358.65,-278.89C393.61,-265.58 463,-232.26 463,-177.59 463,-177.59 463,-177.59 463,-120.59 463,-84.05 469.64,-65 442,-41.09 410.84,-14.15 289.92,-11.44 228.39,-11.88"/>
<polygon fill="#63b8ff" stroke="#63b8ff" points="228.3,-8.38 218.34,-11.98 228.38,-15.38 228.3,-8.38"/>
</a>
</g>
<g id="a_edge5&#45;headlabel"><a xlink:href="dir_000789_000788.html" target="_top" xlink:title="2">
<text text-anchor="middle" x="231.87" y="-3" font-family="Helvetica,sans-Serif" font-size="10.00" fill="#63b8ff">2</text>
</a>
</g>
</g>
<!-- dir_14757cdb378842c857d97b3c6c9147e5 -->
<g id="node4" class="node">
<title>dir_14757cdb378842c857d97b3c6c9147e5</title>
<g id="a_node4"><a xlink:href="dir_14757cdb378842c857d97b3c6c9147e5.html" target="_top" xlink:title="interface">
<polygon fill="#a2b4d6" stroke="#404040" points="164,-76.09 104,-76.09 104,-57.09 164,-57.09 164,-76.09"/>
<text text-anchor="middle" x="134" y="-64.09" font-family="Helvetica,sans-Serif" font-size="10.00">interface</text>
</a>
</g>
</g>
<!-- dir_14757cdb378842c857d97b3c6c9147e5&#45;&gt;dir_0ae2b3af84f66247899ba8b0f94e84c2 -->
<g id="edge6" class="edge">
<title>dir_14757cdb378842c857d97b3c6c9147e5&#45;&gt;dir_0ae2b3af84f66247899ba8b0f94e84c2</title>
<g id="a_edge6"><a xlink:href="dir_000790_001321.html" target="_top">
<path fill="none" stroke="#63b8ff" d="M134.13,-76.22C129.62,-88.43 118.15,-111.46 124,-131.09 132.35,-159.09 138.78,-166.02 160,-186.09 173.58,-198.94 191.53,-209.59 205.74,-217.24"/>
<polygon fill="#63b8ff" stroke="#63b8ff" points="204.4,-220.49 214.87,-222.05 207.66,-214.3 204.4,-220.49"/>
</a>
</g>
<g id="a_edge6&#45;headlabel"><a xlink:href="dir_000790_001321.html" target="_top" xlink:title="2">
<text text-anchor="middle" x="199.89" y="-218.83" font-family="Helvetica,sans-Serif" font-size="10.00" fill="#63b8ff">2</text>
</a>
</g>
</g>
<!-- dir_14757cdb378842c857d97b3c6c9147e5&#45;&gt;dir_d44c64559bbebec7f509842c48db8b23 -->
<g id="edge7" class="edge">
<title>dir_14757cdb378842c857d97b3c6c9147e5&#45;&gt;dir_d44c64559bbebec7f509842c48db8b23</title>
<g id="a_edge7"><a xlink:href="dir_000790_000788.html" target="_top">
<path fill="none" stroke="#63b8ff" d="M143.32,-57.08C151.81,-49.32 164.56,-37.67 174.88,-28.24"/>
<polygon fill="#63b8ff" stroke="#63b8ff" points="177.49,-30.59 182.51,-21.26 172.77,-25.43 177.49,-30.59"/>
</a>
</g>
<g id="a_edge7&#45;headlabel"><a xlink:href="dir_000790_000788.html" target="_top" xlink:title="3">
<text text-anchor="middle" x="176.75" y="-32.61" font-family="Helvetica,sans-Serif" font-size="10.00" fill="#63b8ff">3</text>
</a>
</g>
</g>
<!-- dir_91662e6a7d7eebec4064fbb99014a74a -->
<g id="node5" class="node">
<title>dir_91662e6a7d7eebec4064fbb99014a74a</title>
<g id="a_node5"><a xlink:href="dir_91662e6a7d7eebec4064fbb99014a74a.html" target="_top" xlink:title="pilot">
<polygon fill="#a2b4d6" stroke="#404040" points="359,-131.09 321,-131.09 321,-112.09 359,-112.09 359,-131.09"/>
<text text-anchor="middle" x="340" y="-119.09" font-family="Helvetica,sans-Serif" font-size="10.00">pilot</text>
</a>
</g>
</g>
<!-- dir_91662e6a7d7eebec4064fbb99014a74a&#45;&gt;dir_14757cdb378842c857d97b3c6c9147e5 -->
<g id="edge9" class="edge">
<title>dir_91662e6a7d7eebec4064fbb99014a74a&#45;&gt;dir_14757cdb378842c857d97b3c6c9147e5</title>
<g id="a_edge9"><a xlink:href="dir_001026_000790.html" target="_top">
<path fill="none" stroke="#63b8ff" d="M320.76,-114.61C317.83,-113.74 314.84,-112.88 312,-112.09 264.92,-99.07 210.36,-85.68 174.19,-77.04"/>
<polygon fill="#63b8ff" stroke="#63b8ff" points="174.58,-73.53 164.04,-74.62 172.96,-80.34 174.58,-73.53"/>
</a>
</g>
<g id="a_edge9&#45;headlabel"><a xlink:href="dir_001026_000790.html" target="_top" xlink:title="1">
<text text-anchor="middle" x="178.73" y="-69.1" font-family="Helvetica,sans-Serif" font-size="10.00" fill="#63b8ff">1</text>
</a>
</g>
</g>
<!-- dir_91662e6a7d7eebec4064fbb99014a74a&#45;&gt;dir_0ae2b3af84f66247899ba8b0f94e84c2 -->
<g id="edge8" class="edge">
<title>dir_91662e6a7d7eebec4064fbb99014a74a&#45;&gt;dir_0ae2b3af84f66247899ba8b0f94e84c2</title>
<g id="a_edge8"><a xlink:href="dir_001026_001321.html" target="_top">
<path fill="none" stroke="#63b8ff" d="M334.9,-131.25C319.4,-149.54 275.39,-192.29 248.74,-215.3"/>
<polygon fill="#63b8ff" stroke="#63b8ff" points="246.47,-212.63 241.08,-221.75 250.98,-217.99 246.47,-212.63"/>
</a>
</g>
<g id="a_edge8&#45;headlabel"><a xlink:href="dir_001026_001321.html" target="_top" xlink:title="1">
<text text-anchor="middle" x="247.39" y="-205.65" font-family="Helvetica,sans-Serif" font-size="10.00" fill="#63b8ff">1</text>
</a>
</g>
</g>
<!-- dir_91662e6a7d7eebec4064fbb99014a74a&#45;&gt;dir_14bc92f4b96c8519b376567118ac28b3 -->
<g id="edge10" class="edge">
<title>dir_91662e6a7d7eebec4064fbb99014a74a&#45;&gt;dir_14bc92f4b96c8519b376567118ac28b3</title>
<g id="a_edge10"><a xlink:href="dir_001026_000532.html" target="_top">
<path fill="none" stroke="#63b8ff" d="M350.93,-112.08C361.08,-104.17 376.42,-92.2 388.65,-82.68"/>
<polygon fill="#63b8ff" stroke="#63b8ff" points="391.14,-85.17 396.88,-76.26 386.84,-79.65 391.14,-85.17"/>
</a>
</g>
<g id="a_edge10&#45;headlabel"><a xlink:href="dir_001026_000532.html" target="_top" xlink:title="1">
<text text-anchor="middle" x="390.05" y="-87.12" font-family="Helvetica,sans-Serif" font-size="10.00" fill="#63b8ff">1</text>
</a>
</g>
</g>
<!-- dir_91662e6a7d7eebec4064fbb99014a74a&#45;&gt;dir_d44c64559bbebec7f509842c48db8b23 -->
<g id="edge11" class="edge">
<title>dir_91662e6a7d7eebec4064fbb99014a74a&#45;&gt;dir_d44c64559bbebec7f509842c48db8b23</title>
<g id="a_edge11"><a xlink:href="dir_001026_000788.html" target="_top">
<path fill="none" stroke="#63b8ff" d="M331.57,-111.89C316.19,-96.33 282.1,-63.3 249,-41.09 240.41,-35.33 230.49,-29.97 221.35,-25.5"/>
<polygon fill="#63b8ff" stroke="#63b8ff" points="222.75,-22.28 212.21,-21.17 219.75,-28.61 222.75,-22.28"/>
</a>
</g>
<g id="a_edge11&#45;headlabel"><a xlink:href="dir_001026_000788.html" target="_top" xlink:title="2">
<text text-anchor="middle" x="227.21" y="-18.76" font-family="Helvetica,sans-Serif" font-size="10.00" fill="#63b8ff">2</text>
</a>
</g>
</g>
<!-- dir_237b9500255079c19cec925d0febefac -->
<g id="node6" class="node">
<title>dir_237b9500255079c19cec925d0febefac</title>
<g id="a_node6"><a xlink:href="dir_237b9500255079c19cec925d0febefac.html" target="_top" xlink:title="platform">
<polygon fill="#a2b4d6" stroke="#404040" points="166.5,-296.09 107.5,-296.09 107.5,-277.09 166.5,-277.09 166.5,-296.09"/>
<text text-anchor="middle" x="137" y="-284.09" font-family="Helvetica,sans-Serif" font-size="10.00">platform</text>
</a>
</g>
</g>
<!-- dir_ff189e53e4d7edffa2755e040e4da324 -->
<g id="node7" class="node">
<title>dir_ff189e53e4d7edffa2755e040e4da324</title>
<g id="a_node7"><a xlink:href="dir_ff189e53e4d7edffa2755e040e4da324.html" target="_top" xlink:title="rcd">
<polygon fill="#a2b4d6" stroke="#404040" points="156,-131.09 124,-131.09 124,-112.09 156,-112.09 156,-131.09"/>
<text text-anchor="middle" x="140" y="-119.09" font-family="Helvetica,sans-Serif" font-size="10.00">rcd</text>
</a>
</g>
</g>
<!-- dir_ff189e53e4d7edffa2755e040e4da324&#45;&gt;dir_d44c64559bbebec7f509842c48db8b23 -->
<g id="edge12" class="edge">
<title>dir_ff189e53e4d7edffa2755e040e4da324&#45;&gt;dir_d44c64559bbebec7f509842c48db8b23</title>
<g id="a_edge12"><a xlink:href="dir_001151_000788.html" target="_top">
<path fill="none" stroke="#63b8ff" d="M147.81,-112C155.22,-103.45 166.19,-89.68 173,-76.09 180.18,-61.77 185.17,-44.24 188.23,-31.24"/>
<polygon fill="#63b8ff" stroke="#63b8ff" points="191.71,-31.68 190.42,-21.16 184.87,-30.19 191.71,-31.68"/>
</a>
</g>
<g id="a_edge12&#45;headlabel"><a xlink:href="dir_001151_000788.html" target="_top" xlink:title="3">
<text text-anchor="middle" x="193.72" y="-33.3" font-family="Helvetica,sans-Serif" font-size="10.00" fill="#63b8ff">3</text>
</a>
</g>
</g>
<!-- dir_394b56b4961a0f1fad560f55fbcde0bb -->
<g id="node8" class="node">
<title>dir_394b56b4961a0f1fad560f55fbcde0bb</title>
<g id="a_node8"><a xlink:href="dir_394b56b4961a0f1fad560f55fbcde0bb.html" target="_top" xlink:title="relay">
<polygon fill="#a2b4d6" stroke="#404040" points="235.5,-131.09 194.5,-131.09 194.5,-112.09 235.5,-112.09 235.5,-131.09"/>
<text text-anchor="middle" x="215" y="-119.09" font-family="Helvetica,sans-Serif" font-size="10.00">relay</text>
</a>
</g>
</g>
<!-- dir_394b56b4961a0f1fad560f55fbcde0bb&#45;&gt;dir_d44c64559bbebec7f509842c48db8b23 -->
<g id="edge13" class="edge">
<title>dir_394b56b4961a0f1fad560f55fbcde0bb&#45;&gt;dir_d44c64559bbebec7f509842c48db8b23</title>
<g id="a_edge13"><a xlink:href="dir_001152_000788.html" target="_top">
<path fill="none" stroke="#63b8ff" d="M214.98,-112.05C214.75,-97.28 213.33,-66.16 206,-41.09 204.95,-37.49 203.46,-33.79 201.85,-30.3"/>
<polygon fill="#63b8ff" stroke="#63b8ff" points="204.9,-28.57 197.23,-21.26 198.67,-31.76 204.9,-28.57"/>
</a>
</g>
<g id="a_edge13&#45;headlabel"><a xlink:href="dir_001152_000788.html" target="_top" xlink:title="1">
<text text-anchor="middle" x="209.07" y="-27.98" font-family="Helvetica,sans-Serif" font-size="10.00" fill="#63b8ff">1</text>
</a>
</g>
</g>
<!-- dir_92afb8aeb4de5e6baa87bb8ef10c9217 -->
<g id="node9" class="node">
<title>dir_92afb8aeb4de5e6baa87bb8ef10c9217</title>
<g id="a_node9"><a xlink:href="dir_92afb8aeb4de5e6baa87bb8ef10c9217.html" target="_top" xlink:title="self_test">
<polygon fill="#a2b4d6" stroke="#404040" points="233.5,-186.09 174.5,-186.09 174.5,-167.09 233.5,-167.09 233.5,-186.09"/>
<text text-anchor="middle" x="204" y="-174.09" font-family="Helvetica,sans-Serif" font-size="10.00">self_test</text>
</a>
</g>
</g>
<!-- dir_92afb8aeb4de5e6baa87bb8ef10c9217&#45;&gt;dir_14757cdb378842c857d97b3c6c9147e5 -->
<g id="edge15" class="edge">
<title>dir_92afb8aeb4de5e6baa87bb8ef10c9217&#45;&gt;dir_14757cdb378842c857d97b3c6c9147e5</title>
<g id="a_edge15"><a xlink:href="dir_001157_000790.html" target="_top">
<path fill="none" stroke="#63b8ff" d="M198.86,-166.87C191.54,-154.53 177.61,-131.36 165,-112.09 159.01,-102.93 152.06,-92.92 146.27,-84.71"/>
<polygon fill="#63b8ff" stroke="#63b8ff" points="148.98,-82.48 140.33,-76.36 143.27,-86.53 148.98,-82.48"/>
</a>
</g>
<g id="a_edge15&#45;headlabel"><a xlink:href="dir_001157_000790.html" target="_top" xlink:title="1">
<text text-anchor="middle" x="153.37" y="-81.26" font-family="Helvetica,sans-Serif" font-size="10.00" fill="#63b8ff">1</text>
</a>
</g>
</g>
<!-- dir_92afb8aeb4de5e6baa87bb8ef10c9217&#45;&gt;dir_91662e6a7d7eebec4064fbb99014a74a -->
<g id="edge17" class="edge">
<title>dir_92afb8aeb4de5e6baa87bb8ef10c9217&#45;&gt;dir_91662e6a7d7eebec4064fbb99014a74a</title>
<g id="a_edge17"><a xlink:href="dir_001157_001026.html" target="_top">
<path fill="none" stroke="#63b8ff" d="M225.85,-167.08C249.05,-158.04 285.82,-143.71 311.33,-133.76"/>
<polygon fill="#63b8ff" stroke="#63b8ff" points="312.79,-136.95 320.84,-130.06 310.25,-130.43 312.79,-136.95"/>
</a>
</g>
<g id="a_edge17&#45;headlabel"><a xlink:href="dir_001157_001026.html" target="_top" xlink:title="1">
<text text-anchor="middle" x="310.48" y="-138.4" font-family="Helvetica,sans-Serif" font-size="10.00" fill="#63b8ff">1</text>
</a>
</g>
</g>
<!-- dir_92afb8aeb4de5e6baa87bb8ef10c9217&#45;&gt;dir_ff189e53e4d7edffa2755e040e4da324 -->
<g id="edge20" class="edge">
<title>dir_92afb8aeb4de5e6baa87bb8ef10c9217&#45;&gt;dir_ff189e53e4d7edffa2755e040e4da324</title>
<g id="a_edge20"><a xlink:href="dir_001157_001151.html" target="_top">
<path fill="none" stroke="#63b8ff" d="M193.72,-167.08C184.16,-159.17 169.72,-147.2 158.22,-137.68"/>
<polygon fill="#63b8ff" stroke="#63b8ff" points="160.4,-134.95 150.47,-131.26 155.94,-140.34 160.4,-134.95"/>
</a>
</g>
<g id="a_edge20&#45;headlabel"><a xlink:href="dir_001157_001151.html" target="_top" xlink:title="1">
<text text-anchor="middle" x="164.98" y="-132.55" font-family="Helvetica,sans-Serif" font-size="10.00" fill="#63b8ff">1</text>
</a>
</g>
</g>
<!-- dir_92afb8aeb4de5e6baa87bb8ef10c9217&#45;&gt;dir_394b56b4961a0f1fad560f55fbcde0bb -->
<g id="edge16" class="edge">
<title>dir_92afb8aeb4de5e6baa87bb8ef10c9217&#45;&gt;dir_394b56b4961a0f1fad560f55fbcde0bb</title>
<g id="a_edge16"><a xlink:href="dir_001157_001152.html" target="_top">
<path fill="none" stroke="#63b8ff" d="M205.82,-166.84C207.26,-159.89 209.32,-149.94 211.13,-141.23"/>
<polygon fill="#63b8ff" stroke="#63b8ff" points="214.61,-141.68 213.22,-131.18 207.76,-140.26 214.61,-141.68"/>
</a>
</g>
<g id="a_edge16&#45;headlabel"><a xlink:href="dir_001157_001152.html" target="_top" xlink:title="1">
<text text-anchor="middle" x="216.66" y="-143.28" font-family="Helvetica,sans-Serif" font-size="10.00" fill="#63b8ff">1</text>
</a>
</g>
</g>
<!-- dir_92afb8aeb4de5e6baa87bb8ef10c9217&#45;&gt;dir_0ae2b3af84f66247899ba8b0f94e84c2 -->
<g id="edge14" class="edge">
<title>dir_92afb8aeb4de5e6baa87bb8ef10c9217&#45;&gt;dir_0ae2b3af84f66247899ba8b0f94e84c2</title>
<g id="a_edge14"><a xlink:href="dir_001157_001321.html" target="_top">
<path fill="none" stroke="#63b8ff" d="M213.02,-186.18C217.71,-193.16 222.72,-203.24 226.07,-212.04"/>
<polygon fill="#63b8ff" stroke="#63b8ff" points="222.83,-213.38 229.2,-221.84 229.49,-211.25 222.83,-213.38"/>
</a>
</g>
<g id="a_edge14&#45;headlabel"><a xlink:href="dir_001157_001321.html" target="_top" xlink:title="1">
<text text-anchor="middle" x="219.03" y="-208.32" font-family="Helvetica,sans-Serif" font-size="10.00" fill="#63b8ff">1</text>
</a>
</g>
</g>
<!-- dir_db5423dbf0efba413a0c908e18b1f5ed -->
<g id="node11" class="node">
<title>dir_db5423dbf0efba413a0c908e18b1f5ed</title>
<g id="a_node11"><a xlink:href="dir_db5423dbf0efba413a0c908e18b1f5ed.html" target="_top" xlink:title="supply">
<polygon fill="#a2b4d6" stroke="#404040" points="302.5,-131.09 253.5,-131.09 253.5,-112.09 302.5,-112.09 302.5,-131.09"/>
<text text-anchor="middle" x="278" y="-119.09" font-family="Helvetica,sans-Serif" font-size="10.00">supply</text>
</a>
</g>
</g>
<!-- dir_92afb8aeb4de5e6baa87bb8ef10c9217&#45;&gt;dir_db5423dbf0efba413a0c908e18b1f5ed -->
<g id="edge19" class="edge">
<title>dir_92afb8aeb4de5e6baa87bb8ef10c9217&#45;&gt;dir_db5423dbf0efba413a0c908e18b1f5ed</title>
<g id="a_edge19"><a xlink:href="dir_001157_001349.html" target="_top">
<path fill="none" stroke="#63b8ff" d="M215.89,-167.08C227.15,-159.01 244.29,-146.74 257.71,-137.13"/>
<polygon fill="#63b8ff" stroke="#63b8ff" points="259.8,-139.93 265.89,-131.26 255.73,-134.24 259.8,-139.93"/>
</a>
</g>
<g id="a_edge19&#45;headlabel"><a xlink:href="dir_001157_001349.html" target="_top" xlink:title="1">
<text text-anchor="middle" x="258.53" y="-141.83" font-family="Helvetica,sans-Serif" font-size="10.00" fill="#63b8ff">1</text>
</a>
</g>
</g>
<!-- dir_92afb8aeb4de5e6baa87bb8ef10c9217&#45;&gt;dir_d44c64559bbebec7f509842c48db8b23 -->
<g id="edge18" class="edge">
<title>dir_92afb8aeb4de5e6baa87bb8ef10c9217&#45;&gt;dir_d44c64559bbebec7f509842c48db8b23</title>
<g id="a_edge18"><a xlink:href="dir_001157_000788.html" target="_top">
<path fill="none" stroke="#63b8ff" d="M174.39,-167.14C155.13,-160.26 130.75,-148.76 115,-131.09 97.69,-111.68 99.51,-101.71 95,-76.09 92.3,-60.77 85.68,-53.55 95,-41.09 108.92,-22.5 134.37,-15.51 155.71,-13.1"/>
<polygon fill="#63b8ff" stroke="#63b8ff" points="156.12,-16.58 165.79,-12.25 155.53,-9.6 156.12,-16.58"/>
</a>
</g>
<g id="a_edge18&#45;headlabel"><a xlink:href="dir_001157_000788.html" target="_top" xlink:title="3">
<text text-anchor="middle" x="152.77" y="-17.21" font-family="Helvetica,sans-Serif" font-size="10.00" fill="#63b8ff">3</text>
</a>
</g>
</g>
<!-- dir_0ae2b3af84f66247899ba8b0f94e84c2&#45;&gt;dir_14757cdb378842c857d97b3c6c9147e5 -->
<g id="edge21" class="edge">
<title>dir_0ae2b3af84f66247899ba8b0f94e84c2&#45;&gt;dir_14757cdb378842c857d97b3c6c9147e5</title>
<g id="a_edge21"><a xlink:href="dir_001321_000790.html" target="_top">
<path fill="none" stroke="#63b8ff" d="M200.42,-222.05C182.06,-214.38 158.71,-201.9 142,-186.09 120.78,-166.02 114.35,-159.09 106,-131.09 101.29,-115.3 107.8,-97.3 116.02,-84.51"/>
<polygon fill="#63b8ff" stroke="#63b8ff" points="119.03,-86.33 122.18,-76.22 113.41,-82.16 119.03,-86.33"/>
</a>
</g>
<g id="a_edge21&#45;headlabel"><a xlink:href="dir_001321_000790.html" target="_top" xlink:title="1">
<text text-anchor="middle" x="119.16" y="-88.41" font-family="Helvetica,sans-Serif" font-size="10.00" fill="#63b8ff">1</text>
</a>
</g>
</g>
<!-- dir_0ae2b3af84f66247899ba8b0f94e84c2&#45;&gt;dir_91662e6a7d7eebec4064fbb99014a74a -->
<g id="edge24" class="edge">
<title>dir_0ae2b3af84f66247899ba8b0f94e84c2&#45;&gt;dir_91662e6a7d7eebec4064fbb99014a74a</title>
<g id="a_edge24"><a xlink:href="dir_001321_001026.html" target="_top">
<path fill="none" stroke="#63b8ff" d="M233.25,-221.75C248.87,-203.39 292.61,-160.91 319.18,-137.96"/>
<polygon fill="#63b8ff" stroke="#63b8ff" points="321.75,-140.37 327.14,-131.25 317.24,-135.02 321.75,-140.37"/>
</a>
</g>
<g id="a_edge24&#45;headlabel"><a xlink:href="dir_001321_001026.html" target="_top" xlink:title="1">
<text text-anchor="middle" x="320.83" y="-142.36" font-family="Helvetica,sans-Serif" font-size="10.00" fill="#63b8ff">1</text>
</a>
</g>
</g>
<!-- dir_0ae2b3af84f66247899ba8b0f94e84c2&#45;&gt;dir_ff189e53e4d7edffa2755e040e4da324 -->
<g id="edge28" class="edge">
<title>dir_0ae2b3af84f66247899ba8b0f94e84c2&#45;&gt;dir_ff189e53e4d7edffa2755e040e4da324</title>
<g id="a_edge28"><a xlink:href="dir_001321_001151.html" target="_top">
<path fill="none" stroke="#63b8ff" d="M211.25,-222.04C197.49,-214.29 178.32,-201.69 166,-186.09 155.5,-172.8 148.65,-154.68 144.62,-141.2"/>
<polygon fill="#63b8ff" stroke="#63b8ff" points="147.9,-139.91 141.89,-131.18 141.14,-141.75 147.9,-139.91"/>
</a>
</g>
<g id="a_edge28&#45;headlabel"><a xlink:href="dir_001321_001151.html" target="_top" xlink:title="1">
<text text-anchor="middle" x="151.58" y="-140.13" font-family="Helvetica,sans-Serif" font-size="10.00" fill="#63b8ff">1</text>
</a>
</g>
</g>
<!-- dir_0ae2b3af84f66247899ba8b0f94e84c2&#45;&gt;dir_394b56b4961a0f1fad560f55fbcde0bb -->
<g id="edge23" class="edge">
<title>dir_0ae2b3af84f66247899ba8b0f94e84c2&#45;&gt;dir_394b56b4961a0f1fad560f55fbcde0bb</title>
<g id="a_edge23"><a xlink:href="dir_001321_001152.html" target="_top">
<path fill="none" stroke="#63b8ff" d="M232.89,-221.9C239.15,-209.6 248.59,-186.47 243,-167.09 240.13,-157.15 234.32,-147.29 228.72,-139.39"/>
<polygon fill="#63b8ff" stroke="#63b8ff" points="231.5,-137.26 222.67,-131.4 225.92,-141.48 231.5,-137.26"/>
</a>
</g>
<g id="a_edge23&#45;headlabel"><a xlink:href="dir_001321_001152.html" target="_top" xlink:title="1">
<text text-anchor="middle" x="235.93" y="-135.91" font-family="Helvetica,sans-Serif" font-size="10.00" fill="#63b8ff">1</text>
</a>
</g>
</g>
<!-- dir_0ae2b3af84f66247899ba8b0f94e84c2&#45;&gt;dir_92afb8aeb4de5e6baa87bb8ef10c9217 -->
<g id="edge25" class="edge">
<title>dir_0ae2b3af84f66247899ba8b0f94e84c2&#45;&gt;dir_92afb8aeb4de5e6baa87bb8ef10c9217</title>
<g id="a_edge25"><a xlink:href="dir_001321_001157.html" target="_top">
<path fill="none" stroke="#63b8ff" d="M218.87,-221.84C214.18,-214.82 209.18,-204.72 205.85,-195.94"/>
<polygon fill="#63b8ff" stroke="#63b8ff" points="209.12,-194.66 202.76,-186.18 202.44,-196.77 209.12,-194.66"/>
</a>
</g>
<g id="a_edge25&#45;headlabel"><a xlink:href="dir_001321_001157.html" target="_top" xlink:title="1">
<text text-anchor="middle" x="212.91" y="-194.73" font-family="Helvetica,sans-Serif" font-size="10.00" fill="#63b8ff">1</text>
</a>
</g>
</g>
<!-- dir_0ae2b3af84f66247899ba8b0f94e84c2&#45;&gt;dir_db5423dbf0efba413a0c908e18b1f5ed -->
<g id="edge27" class="edge">
<title>dir_0ae2b3af84f66247899ba8b0f94e84c2&#45;&gt;dir_db5423dbf0efba413a0c908e18b1f5ed</title>
<g id="a_edge27"><a xlink:href="dir_001321_001349.html" target="_top">
<path fill="none" stroke="#63b8ff" d="M228.18,-221.75C233.1,-203.95 251.44,-163.46 264.76,-140.1"/>
<polygon fill="#63b8ff" stroke="#63b8ff" points="267.93,-141.62 270.11,-131.25 261.94,-138 267.93,-141.62"/>
</a>
</g>
<g id="a_edge27&#45;headlabel"><a xlink:href="dir_001321_001349.html" target="_top" xlink:title="1">
<text text-anchor="middle" x="268.5" y="-143.66" font-family="Helvetica,sans-Serif" font-size="10.00" fill="#63b8ff">1</text>
</a>
</g>
</g>
<!-- dir_0ae2b3af84f66247899ba8b0f94e84c2&#45;&gt;dir_14bc92f4b96c8519b376567118ac28b3 -->
<g id="edge22" class="edge">
<title>dir_0ae2b3af84f66247899ba8b0f94e84c2&#45;&gt;dir_14bc92f4b96c8519b376567118ac28b3</title>
<g id="a_edge22"><a xlink:href="dir_001321_000532.html" target="_top">
<path fill="none" stroke="#63b8ff" d="M244.23,-221.88C272.03,-206.39 329.48,-171.82 368,-131.09 380.98,-117.36 392.09,-98.81 399.29,-85.3"/>
<polygon fill="#63b8ff" stroke="#63b8ff" points="402.55,-86.62 403.99,-76.12 396.32,-83.43 402.55,-86.62"/>
</a>
</g>
<g id="a_edge22&#45;headlabel"><a xlink:href="dir_001321_000532.html" target="_top" xlink:title="1">
<text text-anchor="middle" x="403.43" y="-88.61" font-family="Helvetica,sans-Serif" font-size="10.00" fill="#63b8ff">1</text>
</a>
</g>
</g>
<!-- dir_0ae2b3af84f66247899ba8b0f94e84c2&#45;&gt;dir_d44c64559bbebec7f509842c48db8b23 -->
<g id="edge26" class="edge">
<title>dir_0ae2b3af84f66247899ba8b0f94e84c2&#45;&gt;dir_d44c64559bbebec7f509842c48db8b23</title>
<g id="a_edge26"><a xlink:href="dir_001321_000788.html" target="_top">
<path fill="none" stroke="#63b8ff" d="M195.2,-221.98C174.03,-215.08 147,-203.62 128,-186.09 89.53,-150.61 91.61,-128.12 86,-76.09 84.33,-60.63 76.54,-53.44 86,-41.09 94.58,-29.9 128.71,-22.12 155.95,-17.55"/>
<polygon fill="#63b8ff" stroke="#63b8ff" points="156.66,-20.98 165.98,-15.95 155.56,-14.06 156.66,-20.98"/>
</a>
</g>
<g id="a_edge26&#45;headlabel"><a xlink:href="dir_001321_000788.html" target="_top" xlink:title="4">
<text text-anchor="middle" x="153.55" y="-21.85" font-family="Helvetica,sans-Serif" font-size="10.00" fill="#63b8ff">4</text>
</a>
</g>
</g>
<!-- dir_db5423dbf0efba413a0c908e18b1f5ed&#45;&gt;dir_0ae2b3af84f66247899ba8b0f94e84c2 -->
<g id="edge29" class="edge">
<title>dir_db5423dbf0efba413a0c908e18b1f5ed&#45;&gt;dir_0ae2b3af84f66247899ba8b0f94e84c2</title>
<g id="a_edge29"><a xlink:href="dir_001349_001321.html" target="_top">
<path fill="none" stroke="#63b8ff" d="M277.87,-131.25C273.02,-148.98 254.56,-189.74 241.19,-213.16"/>
<polygon fill="#63b8ff" stroke="#63b8ff" points="238.18,-211.39 236,-221.75 244.17,-215 238.18,-211.39"/>
</a>
</g>
<g id="a_edge29&#45;headlabel"><a xlink:href="dir_001349_001321.html" target="_top" xlink:title="1">
<text text-anchor="middle" x="237.61" y="-204.34" font-family="Helvetica,sans-Serif" font-size="10.00" fill="#63b8ff">1</text>
</a>
</g>
</g>
<!-- dir_db5423dbf0efba413a0c908e18b1f5ed&#45;&gt;dir_d44c64559bbebec7f509842c48db8b23 -->
<g id="edge30" class="edge">
<title>dir_db5423dbf0efba413a0c908e18b1f5ed&#45;&gt;dir_d44c64559bbebec7f509842c48db8b23</title>
<g id="a_edge30"><a xlink:href="dir_001349_000788.html" target="_top">
<path fill="none" stroke="#63b8ff" d="M272.8,-111.78C263.67,-96.61 243.72,-64.89 223,-41.09 219.1,-36.61 214.55,-32.11 210.16,-28.04"/>
<polygon fill="#63b8ff" stroke="#63b8ff" points="212.4,-25.34 202.6,-21.3 207.74,-30.57 212.4,-25.34"/>
</a>
</g>
<g id="a_edge30&#45;headlabel"><a xlink:href="dir_001349_000788.html" target="_top" xlink:title="2">
<text text-anchor="middle" x="216.97" y="-23.11" font-family="Helvetica,sans-Serif" font-size="10.00" fill="#63b8ff">2</text>
</a>
</g>
</g>
</g>
</svg>
