<?xml version="1.0" encoding="UTF-8" standalone="no"?>
<!DOCTYPE svg PUBLIC "-//W3C//DTD SVG 1.1//EN"
 "http://www.w3.org/Graphics/SVG/1.1/DTD/svg11.dtd">
<!-- Generated by graphviz version 2.43.0 (0)
 -->
<!-- Title: projects/ad405x/src/examples Pages: 1 -->
<svg width="577pt" height="125pt"
 viewBox="0.00 0.00 577.00 125.00" xmlns="http://www.w3.org/2000/svg" xmlns:xlink="http://www.w3.org/1999/xlink">
<g id="graph0" class="graph" transform="scale(1 1) rotate(0) translate(4 121)">
<title>projects/ad405x/src/examples</title>
<g id="clust1" class="cluster">
<title>clusterdir_3aff48fc331cc1daaddb50af566b5ba8</title>
<g id="a_clust1"><a xlink:href="dir_3aff48fc331cc1daaddb50af566b5ba8.html" target="_top" xlink:title="src">
<polygon fill="#edf0f7" stroke="#7f7f7f" stroke-dasharray="5,2" points="8,-39 8,-109 561,-109 561,-39 8,-39"/>
<text text-anchor="middle" x="284.5" y="-97" font-family="Helvetica,sans-Serif" font-size="10.00">src</text>
</a>
</g>
</g>
<g id="clust2" class="cluster">
<title>clusterdir_5b90276805077cf247915093ca1f5ad2</title>
<g id="a_clust2"><a xlink:href="dir_5b90276805077cf247915093ca1f5ad2.html" target="_top">
<polygon fill="#edf0f7" stroke="#404040" stroke-width="2" points="16,-47 16,-82 553,-82 553,-47 16,-47"/>
</a>
</g>
</g>
<!-- dir_5b90276805077cf247915093ca1f5ad2 -->
<g id="node1" class="node">
<title>dir_5b90276805077cf247915093ca1f5ad2</title>
<text text-anchor="middle" x="512" y="-62" font-family="Helvetica,sans-Serif" font-size="10.00">examples</text>
</g>
<!-- dir_506921ad2fceea4330ecb56a941b4f33 -->
<g id="node2" class="node">
<title>dir_506921ad2fceea4330ecb56a941b4f33</title>
<g id="a_node2"><a xlink:href="dir_506921ad2fceea4330ecb56a941b4f33.html" target="_top" xlink:title="basic_example">
<polygon fill="#a2b4d6" stroke="#404040" points="242,-74 152,-74 152,-55 242,-55 242,-74"/>
<text text-anchor="middle" x="197" y="-62" font-family="Helvetica,sans-Serif" font-size="10.00">basic_example</text>
</a>
</g>
</g>
<!-- dir_14bc92f4b96c8519b376567118ac28b3 -->
<g id="node6" class="node">
<title>dir_14bc92f4b96c8519b376567118ac28b3</title>
<g id="a_node6"><a xlink:href="dir_14bc92f4b96c8519b376567118ac28b3.html" target="_top" xlink:title="drivers">
<polygon fill="#edf0f7" stroke="red" points="234,-19 184,-19 184,0 234,0 234,-19"/>
<text text-anchor="middle" x="209" y="-7" font-family="Helvetica,sans-Serif" font-size="10.00">drivers</text>
</a>
</g>
</g>
<!-- dir_506921ad2fceea4330ecb56a941b4f33&#45;&gt;dir_14bc92f4b96c8519b376567118ac28b3 -->
<g id="edge1" class="edge">
<title>dir_506921ad2fceea4330ecb56a941b4f33&#45;&gt;dir_14bc92f4b96c8519b376567118ac28b3</title>
<g id="a_edge1"><a xlink:href="dir_000329_000471.html" target="_top">
<path fill="none" stroke="#63b8ff" d="M198.98,-54.75C200.57,-47.72 202.86,-37.62 204.85,-28.84"/>
<polygon fill="#63b8ff" stroke="#63b8ff" points="208.26,-29.62 207.06,-19.09 201.43,-28.07 208.26,-29.62"/>
</a>
</g>
<g id="a_edge1&#45;headlabel"><a xlink:href="dir_000329_000471.html" target="_top" xlink:title="1">
<text text-anchor="middle" x="210.24" y="-31.25" font-family="Helvetica,sans-Serif" font-size="10.00" fill="#63b8ff">1</text>
</a>
</g>
</g>
<!-- dir_d44c64559bbebec7f509842c48db8b23 -->
<g id="node7" class="node">
<title>dir_d44c64559bbebec7f509842c48db8b23</title>
<g id="a_node7"><a xlink:href="dir_d44c64559bbebec7f509842c48db8b23.html" target="_top" xlink:title="include">
<polygon fill="#edf0f7" stroke="#404040" points="316,-19 264,-19 264,0 316,0 316,-19"/>
<text text-anchor="middle" x="290" y="-7" font-family="Helvetica,sans-Serif" font-size="10.00">include</text>
</a>
</g>
</g>
<!-- dir_506921ad2fceea4330ecb56a941b4f33&#45;&gt;dir_d44c64559bbebec7f509842c48db8b23 -->
<g id="edge2" class="edge">
<title>dir_506921ad2fceea4330ecb56a941b4f33&#45;&gt;dir_d44c64559bbebec7f509842c48db8b23</title>
<g id="a_edge2"><a xlink:href="dir_000329_000686.html" target="_top">
<path fill="none" stroke="#63b8ff" d="M211.94,-54.98C226.5,-46.69 248.87,-33.94 265.93,-24.22"/>
<polygon fill="#63b8ff" stroke="#63b8ff" points="267.83,-27.16 274.79,-19.17 264.36,-21.08 267.83,-27.16"/>
</a>
</g>
<g id="a_edge2&#45;headlabel"><a xlink:href="dir_000329_000686.html" target="_top" xlink:title="1">
<text text-anchor="middle" x="266.11" y="-28.91" font-family="Helvetica,sans-Serif" font-size="10.00" fill="#63b8ff">1</text>
</a>
</g>
</g>
<!-- dir_8f81e227b842817275d1924489e07603 -->
<g id="node3" class="node">
<title>dir_8f81e227b842817275d1924489e07603</title>
<g id="a_node3"><a xlink:href="dir_8f81e227b842817275d1924489e07603.html" target="_top" xlink:title="basic_i3c_example">
<polygon fill="#a2b4d6" stroke="#404040" points="134,-74 24,-74 24,-55 134,-55 134,-74"/>
<text text-anchor="middle" x="79" y="-62" font-family="Helvetica,sans-Serif" font-size="10.00">basic_i3c_example</text>
</a>
</g>
</g>
<!-- dir_8f81e227b842817275d1924489e07603&#45;&gt;dir_14bc92f4b96c8519b376567118ac28b3 -->
<g id="edge3" class="edge">
<title>dir_8f81e227b842817275d1924489e07603&#45;&gt;dir_14bc92f4b96c8519b376567118ac28b3</title>
<g id="a_edge3"><a xlink:href="dir_000339_000471.html" target="_top">
<path fill="none" stroke="#63b8ff" d="M99.89,-54.98C121.08,-46.34 154.13,-32.87 178.3,-23.02"/>
<polygon fill="#63b8ff" stroke="#63b8ff" points="179.79,-26.19 187.73,-19.17 177.15,-19.7 179.79,-26.19"/>
</a>
</g>
<g id="a_edge3&#45;headlabel"><a xlink:href="dir_000339_000471.html" target="_top" xlink:title="1">
<text text-anchor="middle" x="177.54" y="-27.67" font-family="Helvetica,sans-Serif" font-size="10.00" fill="#63b8ff">1</text>
</a>
</g>
</g>
<!-- dir_8f81e227b842817275d1924489e07603&#45;&gt;dir_d44c64559bbebec7f509842c48db8b23 -->
<g id="edge4" class="edge">
<title>dir_8f81e227b842817275d1924489e07603&#45;&gt;dir_d44c64559bbebec7f509842c48db8b23</title>
<g id="a_edge4"><a xlink:href="dir_000339_000686.html" target="_top">
<path fill="none" stroke="#63b8ff" d="M98.59,-54.98C111.11,-49.79 127.79,-43.35 143,-39 153.52,-35.99 213.77,-24.62 253.8,-17.18"/>
<polygon fill="#63b8ff" stroke="#63b8ff" points="254.55,-20.6 263.75,-15.33 253.28,-13.72 254.55,-20.6"/>
</a>
</g>
<g id="a_edge4&#45;headlabel"><a xlink:href="dir_000339_000686.html" target="_top" xlink:title="2">
<text text-anchor="middle" x="251.54" y="-21.54" font-family="Helvetica,sans-Serif" font-size="10.00" fill="#63b8ff">2</text>
</a>
</g>
</g>
<!-- dir_2f4740a7c467af62b4b59a370ae69523 -->
<g id="node4" class="node">
<title>dir_2f4740a7c467af62b4b59a370ae69523</title>
<g id="a_node4"><a xlink:href="dir_2f4740a7c467af62b4b59a370ae69523.html" target="_top" xlink:title="i3c_dma_example">
<polygon fill="#a2b4d6" stroke="#404040" points="366,-74 260,-74 260,-55 366,-55 366,-74"/>
<text text-anchor="middle" x="313" y="-62" font-family="Helvetica,sans-Serif" font-size="10.00">i3c_dma_example</text>
</a>
</g>
</g>
<!-- dir_2f4740a7c467af62b4b59a370ae69523&#45;&gt;dir_14bc92f4b96c8519b376567118ac28b3 -->
<g id="edge5" class="edge">
<title>dir_2f4740a7c467af62b4b59a370ae69523&#45;&gt;dir_14bc92f4b96c8519b376567118ac28b3</title>
<g id="a_edge5"><a xlink:href="dir_000611_000471.html" target="_top">
<path fill="none" stroke="#63b8ff" d="M296.29,-54.98C279.79,-46.57 254.3,-33.59 235.12,-23.81"/>
<polygon fill="#63b8ff" stroke="#63b8ff" points="236.51,-20.59 226.01,-19.17 233.33,-26.83 236.51,-20.59"/>
</a>
</g>
<g id="a_edge5&#45;headlabel"><a xlink:href="dir_000611_000471.html" target="_top" xlink:title="1">
<text text-anchor="middle" x="241" y="-17.19" font-family="Helvetica,sans-Serif" font-size="10.00" fill="#63b8ff">1</text>
</a>
</g>
</g>
<!-- dir_2f4740a7c467af62b4b59a370ae69523&#45;&gt;dir_d44c64559bbebec7f509842c48db8b23 -->
<g id="edge6" class="edge">
<title>dir_2f4740a7c467af62b4b59a370ae69523&#45;&gt;dir_d44c64559bbebec7f509842c48db8b23</title>
<g id="a_edge6"><a xlink:href="dir_000611_000686.html" target="_top">
<path fill="none" stroke="#63b8ff" d="M309.2,-54.75C306.09,-47.57 301.58,-37.18 297.71,-28.27"/>
<polygon fill="#63b8ff" stroke="#63b8ff" points="300.92,-26.87 293.73,-19.09 294.5,-29.66 300.92,-26.87"/>
</a>
</g>
<g id="a_edge6&#45;headlabel"><a xlink:href="dir_000611_000686.html" target="_top" xlink:title="2">
<text text-anchor="middle" x="304.95" y="-26.54" font-family="Helvetica,sans-Serif" font-size="10.00" fill="#63b8ff">2</text>
</a>
</g>
</g>
<!-- dir_6a4d8fdefc3f06cb98dc6b8935264074 -->
<g id="node5" class="node">
<title>dir_6a4d8fdefc3f06cb98dc6b8935264074</title>
<g id="a_node5"><a xlink:href="dir_6a4d8fdefc3f06cb98dc6b8935264074.html" target="_top" xlink:title="iio_example">
<polygon fill="#a2b4d6" stroke="#404040" points="461.5,-74 384.5,-74 384.5,-55 461.5,-55 461.5,-74"/>
<text text-anchor="middle" x="423" y="-62" font-family="Helvetica,sans-Serif" font-size="10.00">iio_example</text>
</a>
</g>
</g>
<!-- dir_6a4d8fdefc3f06cb98dc6b8935264074&#45;&gt;dir_14bc92f4b96c8519b376567118ac28b3 -->
<g id="edge8" class="edge">
<title>dir_6a4d8fdefc3f06cb98dc6b8935264074&#45;&gt;dir_14bc92f4b96c8519b376567118ac28b3</title>
<g id="a_edge8"><a xlink:href="dir_000621_000471.html" target="_top">
<path fill="none" stroke="#63b8ff" d="M408.8,-54.79C399.5,-49.46 386.91,-42.93 375,-39 323.65,-22.07 308.25,-28.36 255,-19 251.54,-18.39 247.93,-17.75 244.32,-17.09"/>
<polygon fill="#63b8ff" stroke="#63b8ff" points="244.76,-13.61 234.29,-15.26 243.5,-20.5 244.76,-13.61"/>
</a>
</g>
<g id="a_edge8&#45;headlabel"><a xlink:href="dir_000621_000471.html" target="_top" xlink:title="1">
<text text-anchor="middle" x="248.81" y="-8.97" font-family="Helvetica,sans-Serif" font-size="10.00" fill="#63b8ff">1</text>
</a>
</g>
</g>
<!-- dir_6a4d8fdefc3f06cb98dc6b8935264074&#45;&gt;dir_d44c64559bbebec7f509842c48db8b23 -->
<g id="edge9" class="edge">
<title>dir_6a4d8fdefc3f06cb98dc6b8935264074&#45;&gt;dir_d44c64559bbebec7f509842c48db8b23</title>
<g id="a_edge9"><a xlink:href="dir_000621_000686.html" target="_top">
<path fill="none" stroke="#63b8ff" d="M407.71,-54.96C398.42,-49.96 386.21,-43.71 375,-39 359.11,-32.32 341.06,-26.09 325.69,-21.17"/>
<polygon fill="#63b8ff" stroke="#63b8ff" points="326.62,-17.79 316.03,-18.13 324.52,-24.47 326.62,-17.79"/>
</a>
</g>
<g id="a_edge9&#45;headlabel"><a xlink:href="dir_000621_000686.html" target="_top" xlink:title="3">
<text text-anchor="middle" x="330.9" y="-13.66" font-family="Helvetica,sans-Serif" font-size="10.00" fill="#63b8ff">3</text>
</a>
</g>
</g>
<!-- dir_0bb79d6a83cfcf0ad99764c4144043fa -->
<g id="node8" class="node">
<title>dir_0bb79d6a83cfcf0ad99764c4144043fa</title>
<g id="a_node8"><a xlink:href="dir_0bb79d6a83cfcf0ad99764c4144043fa.html" target="_top" xlink:title="iio">
<polygon fill="#edf0f7" stroke="red" points="437.5,-19 408.5,-19 408.5,0 437.5,0 437.5,-19"/>
<text text-anchor="middle" x="423" y="-7" font-family="Helvetica,sans-Serif" font-size="10.00">iio</text>
</a>
</g>
</g>
<!-- dir_6a4d8fdefc3f06cb98dc6b8935264074&#45;&gt;dir_0bb79d6a83cfcf0ad99764c4144043fa -->
<g id="edge7" class="edge">
<title>dir_6a4d8fdefc3f06cb98dc6b8935264074&#45;&gt;dir_0bb79d6a83cfcf0ad99764c4144043fa</title>
<g id="a_edge7"><a xlink:href="dir_000621_000612.html" target="_top">
<path fill="none" stroke="#63b8ff" d="M423,-54.75C423,-47.8 423,-37.85 423,-29.13"/>
<polygon fill="#63b8ff" stroke="#63b8ff" points="426.5,-29.09 423,-19.09 419.5,-29.09 426.5,-29.09"/>
</a>
</g>
<g id="a_edge7&#45;headlabel"><a xlink:href="dir_000621_000612.html" target="_top" xlink:title="1">
<text text-anchor="middle" x="429.34" y="-30.18" font-family="Helvetica,sans-Serif" font-size="10.00" fill="#63b8ff">1</text>
</a>
</g>
</g>
</g>
</svg>
