<?xml version="1.0" encoding="UTF-8" standalone="no"?>
<!DOCTYPE svg PUBLIC "-//W3C//DTD SVG 1.1//EN"
 "http://www.w3.org/Graphics/SVG/1.1/DTD/svg11.dtd">
<!-- Generated by graphviz version 2.43.0 (0)
 -->
<!-- Title: drivers/digital&#45;io Pages: 1 -->
<svg width="718pt" height="125pt"
 viewBox="0.00 0.00 718.00 125.00" xmlns="http://www.w3.org/2000/svg" xmlns:xlink="http://www.w3.org/1999/xlink">
<g id="graph0" class="graph" transform="scale(1 1) rotate(0) translate(4 121)">
<title>drivers/digital&#45;io</title>
<g id="clust1" class="cluster">
<title>clusterdir_14bc92f4b96c8519b376567118ac28b3</title>
<g id="a_clust1"><a xlink:href="dir_14bc92f4b96c8519b376567118ac28b3.html" target="_top" xlink:title="drivers">
<polygon fill="#edf0f7" stroke="#404040" stroke-dasharray="5,2" points="8,-39 8,-109 702,-109 702,-39 8,-39"/>
<text text-anchor="middle" x="355" y="-97" font-family="Helvetica,sans-Serif" font-size="10.00">drivers</text>
</a>
</g>
</g>
<g id="clust2" class="cluster">
<title>clusterdir_6ff6750267c7be1328bae28d803d09f9</title>
<g id="a_clust2"><a xlink:href="dir_6ff6750267c7be1328bae28d803d09f9.html" target="_top">
<polygon fill="#edf0f7" stroke="#404040" stroke-width="2" points="16,-47 16,-82 694,-82 694,-47 16,-47"/>
</a>
</g>
</g>
<!-- dir_6ff6750267c7be1328bae28d803d09f9 -->
<g id="node1" class="node">
<title>dir_6ff6750267c7be1328bae28d803d09f9</title>
<text text-anchor="middle" x="656" y="-62" font-family="Helvetica,sans-Serif" font-size="10.00">digital&#45;io</text>
</g>
<!-- dir_60dae4b3eebd7f16934628baacee60c1 -->
<g id="node2" class="node">
<title>dir_60dae4b3eebd7f16934628baacee60c1</title>
<g id="a_node2"><a xlink:href="dir_60dae4b3eebd7f16934628baacee60c1.html" target="_top" xlink:title="max14914">
<polygon fill="#a2b4d6" stroke="#404040" points="264,-74 196,-74 196,-55 264,-55 264,-74"/>
<text text-anchor="middle" x="230" y="-62" font-family="Helvetica,sans-Serif" font-size="10.00">max14914</text>
</a>
</g>
</g>
<!-- dir_d44c64559bbebec7f509842c48db8b23 -->
<g id="node9" class="node">
<title>dir_d44c64559bbebec7f509842c48db8b23</title>
<g id="a_node9"><a xlink:href="dir_d44c64559bbebec7f509842c48db8b23.html" target="_top" xlink:title="include">
<polygon fill="#edf0f7" stroke="#404040" points="342,-19 290,-19 290,0 342,0 342,-19"/>
<text text-anchor="middle" x="316" y="-7" font-family="Helvetica,sans-Serif" font-size="10.00">include</text>
</a>
</g>
</g>
<!-- dir_60dae4b3eebd7f16934628baacee60c1&#45;&gt;dir_d44c64559bbebec7f509842c48db8b23 -->
<g id="edge1" class="edge">
<title>dir_60dae4b3eebd7f16934628baacee60c1&#45;&gt;dir_d44c64559bbebec7f509842c48db8b23</title>
<g id="a_edge1"><a xlink:href="dir_000900_000821.html" target="_top">
<path fill="none" stroke="#63b8ff" d="M243.82,-54.98C257.15,-46.77 277.58,-34.18 293.31,-24.49"/>
<polygon fill="#63b8ff" stroke="#63b8ff" points="295.25,-27.4 301.93,-19.17 291.58,-21.44 295.25,-27.4"/>
</a>
</g>
<g id="a_edge1&#45;headlabel"><a xlink:href="dir_000900_000821.html" target="_top" xlink:title="5">
<text text-anchor="middle" x="293.68" y="-29.2" font-family="Helvetica,sans-Serif" font-size="10.00" fill="#63b8ff">5</text>
</a>
</g>
</g>
<!-- dir_48854195a0d456eed7693e6348f42881 -->
<g id="node3" class="node">
<title>dir_48854195a0d456eed7693e6348f42881</title>
<g id="a_node3"><a xlink:href="dir_48854195a0d456eed7693e6348f42881.html" target="_top" xlink:title="max14919">
<polygon fill="#a2b4d6" stroke="#404040" points="178,-74 110,-74 110,-55 178,-55 178,-74"/>
<text text-anchor="middle" x="144" y="-62" font-family="Helvetica,sans-Serif" font-size="10.00">max14919</text>
</a>
</g>
</g>
<!-- dir_48854195a0d456eed7693e6348f42881&#45;&gt;dir_d44c64559bbebec7f509842c48db8b23 -->
<g id="edge2" class="edge">
<title>dir_48854195a0d456eed7693e6348f42881&#45;&gt;dir_d44c64559bbebec7f509842c48db8b23</title>
<g id="a_edge2"><a xlink:href="dir_000903_000821.html" target="_top">
<path fill="none" stroke="#63b8ff" d="M156.67,-54.93C164.98,-49.66 176.26,-43.14 187,-39 217.23,-27.36 253.37,-19.88 279.7,-15.53"/>
<polygon fill="#63b8ff" stroke="#63b8ff" points="280.3,-18.97 289.63,-13.95 279.21,-12.06 280.3,-18.97"/>
</a>
</g>
<g id="a_edge2&#45;headlabel"><a xlink:href="dir_000903_000821.html" target="_top" xlink:title="4">
<text text-anchor="middle" x="277.2" y="-19.84" font-family="Helvetica,sans-Serif" font-size="10.00" fill="#63b8ff">4</text>
</a>
</g>
</g>
<!-- dir_1fd396b87da52eb8bb68637958eef173 -->
<g id="node4" class="node">
<title>dir_1fd396b87da52eb8bb68637958eef173</title>
<g id="a_node4"><a xlink:href="dir_1fd396b87da52eb8bb68637958eef173.html" target="_top" xlink:title="max149x6">
<polygon fill="#a2b4d6" stroke="#404040" points="608,-74 540,-74 540,-55 608,-55 608,-74"/>
<text text-anchor="middle" x="574" y="-62" font-family="Helvetica,sans-Serif" font-size="10.00">max149x6</text>
</a>
</g>
</g>
<!-- dir_1fd396b87da52eb8bb68637958eef173&#45;&gt;dir_d44c64559bbebec7f509842c48db8b23 -->
<g id="edge4" class="edge">
<title>dir_1fd396b87da52eb8bb68637958eef173&#45;&gt;dir_d44c64559bbebec7f509842c48db8b23</title>
<g id="a_edge4"><a xlink:href="dir_000905_000821.html" target="_top">
<path fill="none" stroke="#63b8ff" d="M561.81,-54.86C553.52,-49.41 542.07,-42.73 531,-39 498.7,-28.12 404.57,-18.38 352.21,-13.6"/>
<polygon fill="#63b8ff" stroke="#63b8ff" points="352.29,-10.1 342.01,-12.69 351.66,-17.07 352.29,-10.1"/>
</a>
</g>
<g id="a_edge4&#45;headlabel"><a xlink:href="dir_000905_000821.html" target="_top" xlink:title="23">
<text text-anchor="middle" x="356.12" y="-5.09" font-family="Helvetica,sans-Serif" font-size="10.00" fill="#63b8ff">23</text>
</a>
</g>
</g>
<!-- dir_0bb79d6a83cfcf0ad99764c4144043fa -->
<g id="node10" class="node">
<title>dir_0bb79d6a83cfcf0ad99764c4144043fa</title>
<g id="a_node10"><a xlink:href="dir_0bb79d6a83cfcf0ad99764c4144043fa.html" target="_top" xlink:title="iio">
<polygon fill="#edf0f7" stroke="red" points="459.5,-19 430.5,-19 430.5,0 459.5,0 459.5,-19"/>
<text text-anchor="middle" x="445" y="-7" font-family="Helvetica,sans-Serif" font-size="10.00">iio</text>
</a>
</g>
</g>
<!-- dir_1fd396b87da52eb8bb68637958eef173&#45;&gt;dir_0bb79d6a83cfcf0ad99764c4144043fa -->
<g id="edge3" class="edge">
<title>dir_1fd396b87da52eb8bb68637958eef173&#45;&gt;dir_0bb79d6a83cfcf0ad99764c4144043fa</title>
<g id="a_edge3"><a xlink:href="dir_000905_000733.html" target="_top">
<path fill="none" stroke="#63b8ff" d="M560.42,-54.84C552.13,-49.79 541.2,-43.54 531,-39 510.89,-30.04 487.07,-22.36 469.6,-17.24"/>
<polygon fill="#63b8ff" stroke="#63b8ff" points="470.21,-13.77 459.63,-14.39 468.29,-20.5 470.21,-13.77"/>
</a>
</g>
<g id="a_edge3&#45;headlabel"><a xlink:href="dir_000905_000733.html" target="_top" xlink:title="3">
<text text-anchor="middle" x="474.45" y="-9.53" font-family="Helvetica,sans-Serif" font-size="10.00" fill="#63b8ff">3</text>
</a>
</g>
</g>
<!-- dir_25bcb166de3342d9dd622f611c2e278c -->
<g id="node5" class="node">
<title>dir_25bcb166de3342d9dd622f611c2e278c</title>
<g id="a_node5"><a xlink:href="dir_25bcb166de3342d9dd622f611c2e278c.html" target="_top" xlink:title="max22190">
<polygon fill="#a2b4d6" stroke="#404040" points="522,-74 454,-74 454,-55 522,-55 522,-74"/>
<text text-anchor="middle" x="488" y="-62" font-family="Helvetica,sans-Serif" font-size="10.00">max22190</text>
</a>
</g>
</g>
<!-- dir_25bcb166de3342d9dd622f611c2e278c&#45;&gt;dir_d44c64559bbebec7f509842c48db8b23 -->
<g id="edge6" class="edge">
<title>dir_25bcb166de3342d9dd622f611c2e278c&#45;&gt;dir_d44c64559bbebec7f509842c48db8b23</title>
<g id="a_edge6"><a xlink:href="dir_000913_000821.html" target="_top">
<path fill="none" stroke="#63b8ff" d="M475.33,-54.93C467.02,-49.66 455.74,-43.14 445,-39 414.77,-27.36 378.63,-19.88 352.3,-15.53"/>
<polygon fill="#63b8ff" stroke="#63b8ff" points="352.79,-12.06 342.37,-13.95 351.7,-18.97 352.79,-12.06"/>
</a>
</g>
<g id="a_edge6&#45;headlabel"><a xlink:href="dir_000913_000821.html" target="_top" xlink:title="9">
<text text-anchor="middle" x="356.79" y="-7.32" font-family="Helvetica,sans-Serif" font-size="10.00" fill="#63b8ff">9</text>
</a>
</g>
</g>
<!-- dir_25bcb166de3342d9dd622f611c2e278c&#45;&gt;dir_0bb79d6a83cfcf0ad99764c4144043fa -->
<g id="edge5" class="edge">
<title>dir_25bcb166de3342d9dd622f611c2e278c&#45;&gt;dir_0bb79d6a83cfcf0ad99764c4144043fa</title>
<g id="a_edge5"><a xlink:href="dir_000913_000733.html" target="_top">
<path fill="none" stroke="#63b8ff" d="M480.9,-54.75C474.83,-47.26 465.91,-36.28 458.49,-27.13"/>
<polygon fill="#63b8ff" stroke="#63b8ff" points="460.99,-24.65 451.97,-19.09 455.55,-29.06 460.99,-24.65"/>
</a>
</g>
<g id="a_edge5&#45;headlabel"><a xlink:href="dir_000913_000733.html" target="_top" xlink:title="2">
<text text-anchor="middle" x="465.46" y="-23.15" font-family="Helvetica,sans-Serif" font-size="10.00" fill="#63b8ff">2</text>
</a>
</g>
</g>
<!-- dir_fbe7979a5f2e8fd671862500ab6d54c2 -->
<g id="node6" class="node">
<title>dir_fbe7979a5f2e8fd671862500ab6d54c2</title>
<g id="a_node6"><a xlink:href="dir_fbe7979a5f2e8fd671862500ab6d54c2.html" target="_top" xlink:title="max22196">
<polygon fill="#a2b4d6" stroke="#404040" points="436,-74 368,-74 368,-55 436,-55 436,-74"/>
<text text-anchor="middle" x="402" y="-62" font-family="Helvetica,sans-Serif" font-size="10.00">max22196</text>
</a>
</g>
</g>
<!-- dir_fbe7979a5f2e8fd671862500ab6d54c2&#45;&gt;dir_d44c64559bbebec7f509842c48db8b23 -->
<g id="edge8" class="edge">
<title>dir_fbe7979a5f2e8fd671862500ab6d54c2&#45;&gt;dir_d44c64559bbebec7f509842c48db8b23</title>
<g id="a_edge8"><a xlink:href="dir_000915_000821.html" target="_top">
<path fill="none" stroke="#63b8ff" d="M388.18,-54.98C374.85,-46.77 354.42,-34.18 338.69,-24.49"/>
<polygon fill="#63b8ff" stroke="#63b8ff" points="340.42,-21.44 330.07,-19.17 336.75,-27.4 340.42,-21.44"/>
</a>
</g>
<g id="a_edge8&#45;headlabel"><a xlink:href="dir_000915_000821.html" target="_top" xlink:title="9">
<text text-anchor="middle" x="344.97" y="-18.41" font-family="Helvetica,sans-Serif" font-size="10.00" fill="#63b8ff">9</text>
</a>
</g>
</g>
<!-- dir_fbe7979a5f2e8fd671862500ab6d54c2&#45;&gt;dir_0bb79d6a83cfcf0ad99764c4144043fa -->
<g id="edge7" class="edge">
<title>dir_fbe7979a5f2e8fd671862500ab6d54c2&#45;&gt;dir_0bb79d6a83cfcf0ad99764c4144043fa</title>
<g id="a_edge7"><a xlink:href="dir_000915_000733.html" target="_top">
<path fill="none" stroke="#63b8ff" d="M409.1,-54.75C415.17,-47.26 424.09,-36.28 431.51,-27.13"/>
<polygon fill="#63b8ff" stroke="#63b8ff" points="434.45,-29.06 438.03,-19.09 429.01,-24.65 434.45,-29.06"/>
</a>
</g>
<g id="a_edge7&#45;headlabel"><a xlink:href="dir_000915_000733.html" target="_top" xlink:title="1">
<text text-anchor="middle" x="434.39" y="-31.14" font-family="Helvetica,sans-Serif" font-size="10.00" fill="#63b8ff">1</text>
</a>
</g>
</g>
<!-- dir_7721e379a67e49f1dbad0139d33fdc5c -->
<g id="node7" class="node">
<title>dir_7721e379a67e49f1dbad0139d33fdc5c</title>
<g id="a_node7"><a xlink:href="dir_7721e379a67e49f1dbad0139d33fdc5c.html" target="_top" xlink:title="max22200">
<polygon fill="#a2b4d6" stroke="#404040" points="350,-74 282,-74 282,-55 350,-55 350,-74"/>
<text text-anchor="middle" x="316" y="-62" font-family="Helvetica,sans-Serif" font-size="10.00">max22200</text>
</a>
</g>
</g>
<!-- dir_7721e379a67e49f1dbad0139d33fdc5c&#45;&gt;dir_d44c64559bbebec7f509842c48db8b23 -->
<g id="edge10" class="edge">
<title>dir_7721e379a67e49f1dbad0139d33fdc5c&#45;&gt;dir_d44c64559bbebec7f509842c48db8b23</title>
<g id="a_edge10"><a xlink:href="dir_000917_000821.html" target="_top">
<path fill="none" stroke="#63b8ff" d="M316,-54.75C316,-47.8 316,-37.85 316,-29.13"/>
<polygon fill="#63b8ff" stroke="#63b8ff" points="319.5,-29.09 316,-19.09 312.5,-29.09 319.5,-29.09"/>
</a>
</g>
<g id="a_edge10&#45;headlabel"><a xlink:href="dir_000917_000821.html" target="_top" xlink:title="11">
<text text-anchor="middle" x="322.34" y="-30.18" font-family="Helvetica,sans-Serif" font-size="10.00" fill="#63b8ff">11</text>
</a>
</g>
</g>
<!-- dir_7721e379a67e49f1dbad0139d33fdc5c&#45;&gt;dir_0bb79d6a83cfcf0ad99764c4144043fa -->
<g id="edge9" class="edge">
<title>dir_7721e379a67e49f1dbad0139d33fdc5c&#45;&gt;dir_0bb79d6a83cfcf0ad99764c4144043fa</title>
<g id="a_edge9"><a xlink:href="dir_000917_000733.html" target="_top">
<path fill="none" stroke="#63b8ff" d="M329.58,-54.84C337.87,-49.79 348.8,-43.54 359,-39 379.11,-30.04 402.93,-22.36 420.4,-17.24"/>
<polygon fill="#63b8ff" stroke="#63b8ff" points="421.71,-20.5 430.37,-14.39 419.79,-13.77 421.71,-20.5"/>
</a>
</g>
<g id="a_edge9&#45;headlabel"><a xlink:href="dir_000917_000733.html" target="_top" xlink:title="1">
<text text-anchor="middle" x="419.04" y="-21.72" font-family="Helvetica,sans-Serif" font-size="10.00" fill="#63b8ff">1</text>
</a>
</g>
</g>
<!-- dir_39a17559d7687a2bc2ad011191a243d3 -->
<g id="node8" class="node">
<title>dir_39a17559d7687a2bc2ad011191a243d3</title>
<g id="a_node8"><a xlink:href="dir_39a17559d7687a2bc2ad011191a243d3.html" target="_top" xlink:title="max22915">
<polygon fill="#a2b4d6" stroke="#404040" points="92,-74 24,-74 24,-55 92,-55 92,-74"/>
<text text-anchor="middle" x="58" y="-62" font-family="Helvetica,sans-Serif" font-size="10.00">max22915</text>
</a>
</g>
</g>
<!-- dir_39a17559d7687a2bc2ad011191a243d3&#45;&gt;dir_d44c64559bbebec7f509842c48db8b23 -->
<g id="edge11" class="edge">
<title>dir_39a17559d7687a2bc2ad011191a243d3&#45;&gt;dir_d44c64559bbebec7f509842c48db8b23</title>
<g id="a_edge11"><a xlink:href="dir_000921_000821.html" target="_top">
<path fill="none" stroke="#63b8ff" d="M70.19,-54.86C78.48,-49.41 89.93,-42.73 101,-39 161.49,-18.63 236.15,-12.74 279.68,-11.09"/>
<polygon fill="#63b8ff" stroke="#63b8ff" points="279.91,-14.58 289.79,-10.76 279.68,-7.58 279.91,-14.58"/>
</a>
</g>
<g id="a_edge11&#45;headlabel"><a xlink:href="dir_000921_000821.html" target="_top" xlink:title="6">
<text text-anchor="middle" x="276.41" y="-15.03" font-family="Helvetica,sans-Serif" font-size="10.00" fill="#63b8ff">6</text>
</a>
</g>
</g>
</g>
</svg>
