<?xml version="1.0" encoding="UTF-8" standalone="no"?>
<!DOCTYPE svg PUBLIC "-//W3C//DTD SVG 1.1//EN"
 "http://www.w3.org/Graphics/SVG/1.1/DTD/svg11.dtd">
<!-- Generated by graphviz version 2.43.0 (0)
 -->
<!-- Title: projects/adf4377_sdz Pages: 1 -->
<svg width="239pt" height="125pt"
 viewBox="0.00 0.00 239.00 125.00" xmlns="http://www.w3.org/2000/svg" xmlns:xlink="http://www.w3.org/1999/xlink">
<g id="graph0" class="graph" transform="scale(1 1) rotate(0) translate(4 121)">
<title>projects/adf4377_sdz</title>
<g id="clust1" class="cluster">
<title>clusterdir_a9ec1ef424966475f993eb98877e3088</title>
<g id="a_clust1"><a xlink:href="dir_a9ec1ef424966475f993eb98877e3088.html" target="_top" xlink:title="projects">
<polygon fill="#edf0f7" stroke="#404040" stroke-dasharray="5,2" points="63,-39 63,-109 223,-109 223,-39 63,-39"/>
<text text-anchor="middle" x="143" y="-97" font-family="Helvetica,sans-Serif" font-size="10.00">projects</text>
</a>
</g>
</g>
<g id="clust2" class="cluster">
<title>clusterdir_3ab0a7db7a7a49eed08fb2418ab78a9d</title>
<g id="a_clust2"><a xlink:href="dir_3ab0a7db7a7a49eed08fb2418ab78a9d.html" target="_top">
<polygon fill="#edf0f7" stroke="#404040" stroke-width="2" points="71,-47 71,-82 215,-82 215,-47 71,-47"/>
</a>
</g>
</g>
<!-- dir_3ab0a7db7a7a49eed08fb2418ab78a9d -->
<g id="node1" class="node">
<title>dir_3ab0a7db7a7a49eed08fb2418ab78a9d</title>
<text text-anchor="middle" x="168" y="-62" font-family="Helvetica,sans-Serif" font-size="10.00">adf4377_sdz</text>
</g>
<!-- dir_8926a39e4e6dcac246577f864094e1a5 -->
<g id="node2" class="node">
<title>dir_8926a39e4e6dcac246577f864094e1a5</title>
<g id="a_node2"><a xlink:href="dir_8926a39e4e6dcac246577f864094e1a5.html" target="_top" xlink:title="src">
<polygon fill="#a2b4d6" stroke="#404040" points="110.5,-74 79.5,-74 79.5,-55 110.5,-55 110.5,-74"/>
<text text-anchor="middle" x="95" y="-62" font-family="Helvetica,sans-Serif" font-size="10.00">src</text>
</a>
</g>
</g>
<!-- dir_d44c64559bbebec7f509842c48db8b23 -->
<g id="node3" class="node">
<title>dir_d44c64559bbebec7f509842c48db8b23</title>
<g id="a_node3"><a xlink:href="dir_d44c64559bbebec7f509842c48db8b23.html" target="_top" xlink:title="include">
<polygon fill="#edf0f7" stroke="#404040" points="52,-19 0,-19 0,0 52,0 52,-19"/>
<text text-anchor="middle" x="26" y="-7" font-family="Helvetica,sans-Serif" font-size="10.00">include</text>
</a>
</g>
</g>
<!-- dir_8926a39e4e6dcac246577f864094e1a5&#45;&gt;dir_d44c64559bbebec7f509842c48db8b23 -->
<g id="edge3" class="edge">
<title>dir_8926a39e4e6dcac246577f864094e1a5&#45;&gt;dir_d44c64559bbebec7f509842c48db8b23</title>
<g id="a_edge3"><a xlink:href="dir_000959_000627.html" target="_top">
<path fill="none" stroke="#63b8ff" d="M83.91,-54.98C73.51,-47 57.74,-34.88 45.28,-25.31"/>
<polygon fill="#63b8ff" stroke="#63b8ff" points="47.35,-22.49 37.29,-19.17 43.09,-28.04 47.35,-22.49"/>
</a>
</g>
<g id="a_edge3&#45;headlabel"><a xlink:href="dir_000959_000627.html" target="_top" xlink:title="10">
<text text-anchor="middle" x="51.93" y="-19.92" font-family="Helvetica,sans-Serif" font-size="10.00" fill="#63b8ff">10</text>
</a>
</g>
</g>
<!-- dir_14bc92f4b96c8519b376567118ac28b3 -->
<g id="node4" class="node">
<title>dir_14bc92f4b96c8519b376567118ac28b3</title>
<g id="a_node4"><a xlink:href="dir_14bc92f4b96c8519b376567118ac28b3.html" target="_top" xlink:title="drivers">
<polygon fill="#edf0f7" stroke="red" points="120,-19 70,-19 70,0 120,0 120,-19"/>
<text text-anchor="middle" x="95" y="-7" font-family="Helvetica,sans-Serif" font-size="10.00">drivers</text>
</a>
</g>
</g>
<!-- dir_8926a39e4e6dcac246577f864094e1a5&#45;&gt;dir_14bc92f4b96c8519b376567118ac28b3 -->
<g id="edge2" class="edge">
<title>dir_8926a39e4e6dcac246577f864094e1a5&#45;&gt;dir_14bc92f4b96c8519b376567118ac28b3</title>
<g id="a_edge2"><a xlink:href="dir_000959_000430.html" target="_top">
<path fill="none" stroke="#63b8ff" d="M95,-54.75C95,-47.8 95,-37.85 95,-29.13"/>
<polygon fill="#63b8ff" stroke="#63b8ff" points="98.5,-29.09 95,-19.09 91.5,-29.09 98.5,-29.09"/>
</a>
</g>
<g id="a_edge2&#45;headlabel"><a xlink:href="dir_000959_000430.html" target="_top" xlink:title="8">
<text text-anchor="middle" x="101.34" y="-30.18" font-family="Helvetica,sans-Serif" font-size="10.00" fill="#63b8ff">8</text>
</a>
</g>
</g>
<!-- dir_0bb79d6a83cfcf0ad99764c4144043fa -->
<g id="node5" class="node">
<title>dir_0bb79d6a83cfcf0ad99764c4144043fa</title>
<g id="a_node5"><a xlink:href="dir_0bb79d6a83cfcf0ad99764c4144043fa.html" target="_top" xlink:title="iio">
<polygon fill="#edf0f7" stroke="red" points="167.5,-19 138.5,-19 138.5,0 167.5,0 167.5,-19"/>
<text text-anchor="middle" x="153" y="-7" font-family="Helvetica,sans-Serif" font-size="10.00">iio</text>
</a>
</g>
</g>
<!-- dir_8926a39e4e6dcac246577f864094e1a5&#45;&gt;dir_0bb79d6a83cfcf0ad99764c4144043fa -->
<g id="edge1" class="edge">
<title>dir_8926a39e4e6dcac246577f864094e1a5&#45;&gt;dir_0bb79d6a83cfcf0ad99764c4144043fa</title>
<g id="a_edge1"><a xlink:href="dir_000959_000557.html" target="_top">
<path fill="none" stroke="#63b8ff" d="M103.66,-54.75C108.42,-50.01 114.45,-44.1 120,-39 124.78,-34.6 130.07,-29.95 134.98,-25.7"/>
<polygon fill="#63b8ff" stroke="#63b8ff" points="137.42,-28.23 142.75,-19.07 132.87,-22.9 137.42,-28.23"/>
</a>
</g>
<g id="a_edge1&#45;headlabel"><a xlink:href="dir_000959_000557.html" target="_top" xlink:title="1">
<text text-anchor="middle" x="136.53" y="-30.22" font-family="Helvetica,sans-Serif" font-size="10.00" fill="#63b8ff">1</text>
</a>
</g>
</g>
</g>
</svg>
