<?xml version="1.0" encoding="UTF-8" standalone="no"?>
<!DOCTYPE svg PUBLIC "-//W3C//DTD SVG 1.1//EN"
 "http://www.w3.org/Graphics/SVG/1.1/DTD/svg11.dtd">
<!-- Generated by graphviz version 2.43.0 (0)
 -->
<!-- Title: drivers/potentiometer/common/dpot.h Pages: 1 -->
<!--zoomable 170 -->

<svg id="main" version="1.1" xmlns="http://www.w3.org/2000/svg" xmlns:xlink="http://www.w3.org/1999/xlink" xml:space="preserve" onload="init(evt)">

<style type="text/css"><![CDATA[
.node, .edge {opacity: 0.7;}
.node.selected, .edge.selected {opacity: 1;}
.edge:hover path { stroke: red; }
.edge:hover polygon { stroke: red; fill: red; }
]]></style>

<defs>
  <circle id="rim" cx="0" cy="0" r="7"/>
  <circle id="rim2" cx="0" cy="0" r="3.5"/>
  <g id="zoomPlus">
    <use xlink:href="#rim" fill="#404040"><set attributeName="fill" to="#808080" begin="zoomplus.mouseover" end="zoomplus.mouseout"/></use>
    <path d="M-4,0h8M0,-4v8" fill="none" stroke="white" stroke-width="1.5" pointer-events="none"/>
  </g>
  <g id="zoomMin">
    <use xlink:href="#rim" fill="#404040"><set attributeName="fill" to="#808080" begin="zoomminus.mouseover" end="zoomminus.mouseout"/></use>
    <path d="M-4,0h8" fill="none" stroke="white" stroke-width="1.5" pointer-events="none"/>
  </g>
  <g id="arrowUp" transform="translate(30 24)">
    <use xlink:href="#rim"/>
    <path pointer-events="none" fill="none" stroke="white" stroke-width="1.5" d="M0,-3.0v7 M-2.5,-0.5L0,-3.0L2.5,-0.5"/>
  </g>
  <g id="arrowRight" transform="rotate(90) translate(36 -43)">
    <use xlink:href="#rim"/>
    <path pointer-events="none" fill="none" stroke="white" stroke-width="1.5" d="M0,-3.0v7 M-2.5,-0.5L0,-3.0L2.5,-0.5"/>
  </g>
  <g id="arrowDown" transform="rotate(180) translate(-30 -48)">
    <use xlink:href="#rim"/>
    <path pointer-events="none" fill="none" stroke="white" stroke-width="1.5" d="M0,-3.0v7 M-2.5,-0.5L0,-3.0L2.5,-0.5"/>
  </g>
  <g id="arrowLeft" transform="rotate(270) translate(-36 17)">
    <use xlink:href="#rim"/>
    <path pointer-events="none" fill="none" stroke="white" stroke-width="1.5" d="M0,-3.0v7 M-2.5,-0.5L0,-3.0L2.5,-0.5"/>
  </g>
  <g id="resetDef">
    <use xlink:href="#rim2" fill="#404040"><set attributeName="fill" to="#808080" begin="reset.mouseover" end="reset.mouseout"/></use>
  </g>
</defs>
<script type="application/ecmascript">
var viewWidth = 1400;
var viewHeight = 170;
var sectionId = 'dynsection-1';
</script>
<script type="application/ecmascript" xlink:href="svg.min.js"/>
<svg id="graph" class="graph">
<g id="viewport">
<title>drivers/potentiometer/common/dpot.h</title>
<!-- Node1 -->
<g id="Node000001" class="node">
<title>Node1</title>
<g id="a_Node000001"><a xlink:title=" ">
<polygon fill="#999999" stroke="#666666" points="757,-162 634,-162 634,-132 757,-132 757,-162"/>
<text text-anchor="start" x="642" y="-150" font-family="Helvetica,sans-Serif" font-size="10.00">drivers/potentiometer</text>
<text text-anchor="middle" x="695.5" y="-139" font-family="Helvetica,sans-Serif" font-size="10.00">/common/dpot.h</text>
</a>
</g>
</g>
<!-- Node2 -->
<g id="Node000002" class="node">
<title>Node2</title>
<g id="a_Node000002"><a xlink:href="ad5141_8h.html" target="_top" xlink:title=" ">
<polygon fill="white" stroke="#666666" points="123,-96 0,-96 0,-66 123,-66 123,-96"/>
<text text-anchor="start" x="8" y="-84" font-family="Helvetica,sans-Serif" font-size="10.00">drivers/potentiometer</text>
<text text-anchor="middle" x="61.5" y="-73" font-family="Helvetica,sans-Serif" font-size="10.00">/ad514x/ad5141.h</text>
</a>
</g>
</g>
<!-- Node1&#45;&gt;Node2 -->
<g id="edge1_Node000001_Node000002" class="edge">
<title>Node1&#45;&gt;Node2</title>
<g id="a_edge1_Node000001_Node000002"><a xlink:title=" ">
<path fill="none" stroke="#63b8ff" d="M623.54,-142.06C516.21,-135.63 308.01,-121.03 132.5,-96 129.39,-95.56 126.21,-95.07 123.01,-94.54"/>
<polygon fill="#63b8ff" stroke="#63b8ff" points="623.42,-145.56 633.6,-142.66 623.83,-138.57 623.42,-145.56"/>
</a>
</g>
</g>
<!-- Node4 -->
<g id="Node000004" class="node">
<title>Node4</title>
<g id="a_Node000004"><a xlink:href="ad5142_8h.html" target="_top" xlink:title=" ">
<polygon fill="white" stroke="#666666" points="264,-96 141,-96 141,-66 264,-66 264,-96"/>
<text text-anchor="start" x="149" y="-84" font-family="Helvetica,sans-Serif" font-size="10.00">drivers/potentiometer</text>
<text text-anchor="middle" x="202.5" y="-73" font-family="Helvetica,sans-Serif" font-size="10.00">/ad514x/ad5142.h</text>
</a>
</g>
</g>
<!-- Node1&#45;&gt;Node4 -->
<g id="edge3_Node000001_Node000004" class="edge">
<title>Node1&#45;&gt;Node4</title>
<g id="a_edge3_Node000001_Node000004"><a xlink:title=" ">
<path fill="none" stroke="#63b8ff" d="M623.83,-139.2C539.69,-130.83 396.05,-115.31 273.5,-96 270.4,-95.51 267.22,-94.98 264.02,-94.43"/>
<polygon fill="#63b8ff" stroke="#63b8ff" points="623.5,-142.69 633.8,-140.19 624.19,-135.72 623.5,-142.69"/>
</a>
</g>
</g>
<!-- Node6 -->
<g id="Node000006" class="node">
<title>Node6</title>
<g id="a_Node000006"><a xlink:href="ad5143_8h.html" target="_top" xlink:title=" ">
<polygon fill="white" stroke="#666666" points="405,-96 282,-96 282,-66 405,-66 405,-96"/>
<text text-anchor="start" x="290" y="-84" font-family="Helvetica,sans-Serif" font-size="10.00">drivers/potentiometer</text>
<text text-anchor="middle" x="343.5" y="-73" font-family="Helvetica,sans-Serif" font-size="10.00">/ad514x/ad5143.h</text>
</a>
</g>
</g>
<!-- Node1&#45;&gt;Node6 -->
<g id="edge5_Node000001_Node000006" class="edge">
<title>Node1&#45;&gt;Node6</title>
<g id="a_edge5_Node000001_Node000006"><a xlink:title=" ">
<path fill="none" stroke="#63b8ff" d="M623.81,-133.62C566.99,-123.72 485.6,-109.33 414.5,-96 411.41,-95.42 408.25,-94.82 405.06,-94.21"/>
<polygon fill="#63b8ff" stroke="#63b8ff" points="623.32,-137.09 633.77,-135.36 624.52,-130.19 623.32,-137.09"/>
</a>
</g>
</g>
<!-- Node8 -->
<g id="Node000008" class="node">
<title>Node8</title>
<g id="a_Node000008"><a xlink:href="ad5144_8h.html" target="_top" xlink:title=" ">
<polygon fill="white" stroke="#666666" points="546,-96 423,-96 423,-66 546,-66 546,-96"/>
<text text-anchor="start" x="431" y="-84" font-family="Helvetica,sans-Serif" font-size="10.00">drivers/potentiometer</text>
<text text-anchor="middle" x="484.5" y="-73" font-family="Helvetica,sans-Serif" font-size="10.00">/ad514x/ad5144.h</text>
</a>
</g>
</g>
<!-- Node1&#45;&gt;Node8 -->
<g id="edge7_Node000001_Node000008" class="edge">
<title>Node1&#45;&gt;Node8</title>
<g id="a_edge7_Node000001_Node000008"><a xlink:title=" ">
<path fill="none" stroke="#63b8ff" d="M639.42,-128.99C605.47,-118.69 562.69,-105.72 530.7,-96.01"/>
<polygon fill="#63b8ff" stroke="#63b8ff" points="638.61,-132.4 649.2,-131.95 640.64,-125.7 638.61,-132.4"/>
</a>
</g>
</g>
<!-- Node10 -->
<g id="Node000010" class="node">
<title>Node10</title>
<g id="a_Node000010"><a xlink:href="ad5161_8h.html" target="_top" xlink:title=" ">
<polygon fill="white" stroke="#666666" points="687,-96 564,-96 564,-66 687,-66 687,-96"/>
<text text-anchor="start" x="572" y="-84" font-family="Helvetica,sans-Serif" font-size="10.00">drivers/potentiometer</text>
<text text-anchor="middle" x="625.5" y="-73" font-family="Helvetica,sans-Serif" font-size="10.00">/ad5161/ad5161.h</text>
</a>
</g>
</g>
<!-- Node1&#45;&gt;Node10 -->
<g id="edge9_Node000001_Node000010" class="edge">
<title>Node1&#45;&gt;Node10</title>
<g id="a_edge9_Node000001_Node000010"><a xlink:title=" ">
<path fill="none" stroke="#63b8ff" d="M672.45,-124.92C662.13,-115.49 650.23,-104.61 640.99,-96.16"/>
<polygon fill="#63b8ff" stroke="#63b8ff" points="670.22,-127.63 679.96,-131.8 674.95,-122.47 670.22,-127.63"/>
</a>
</g>
</g>
<!-- Node12 -->
<g id="Node000012" class="node">
<title>Node12</title>
<g id="a_Node000012"><a xlink:href="ad5171_8h.html" target="_top" xlink:title=" ">
<polygon fill="white" stroke="#666666" points="828,-96 705,-96 705,-66 828,-66 828,-96"/>
<text text-anchor="start" x="713" y="-84" font-family="Helvetica,sans-Serif" font-size="10.00">drivers/potentiometer</text>
<text text-anchor="middle" x="766.5" y="-73" font-family="Helvetica,sans-Serif" font-size="10.00">/ad5171/ad5171.h</text>
</a>
</g>
</g>
<!-- Node1&#45;&gt;Node12 -->
<g id="edge11_Node000001_Node000012" class="edge">
<title>Node1&#45;&gt;Node12</title>
<g id="a_edge11_Node000001_Node000012"><a xlink:title=" ">
<path fill="none" stroke="#63b8ff" d="M718.88,-124.92C729.35,-115.49 741.42,-104.61 750.79,-96.16"/>
<polygon fill="#63b8ff" stroke="#63b8ff" points="716.34,-122.5 711.26,-131.8 721.03,-127.7 716.34,-122.5"/>
</a>
</g>
</g>
<!-- Node14 -->
<g id="Node000014" class="node">
<title>Node14</title>
<g id="a_Node000014"><a xlink:href="ad5242_8h.html" target="_top" xlink:title=" ">
<polygon fill="white" stroke="#666666" points="969,-96 846,-96 846,-66 969,-66 969,-96"/>
<text text-anchor="start" x="854" y="-84" font-family="Helvetica,sans-Serif" font-size="10.00">drivers/potentiometer</text>
<text text-anchor="middle" x="907.5" y="-73" font-family="Helvetica,sans-Serif" font-size="10.00">/ad5242/ad5242.h</text>
</a>
</g>
</g>
<!-- Node1&#45;&gt;Node14 -->
<g id="edge13_Node000001_Node000014" class="edge">
<title>Node1&#45;&gt;Node14</title>
<g id="a_edge13_Node000001_Node000014"><a xlink:title=" ">
<path fill="none" stroke="#63b8ff" d="M751.85,-128.99C785.96,-118.69 828.94,-105.72 861.08,-96.01"/>
<polygon fill="#63b8ff" stroke="#63b8ff" points="750.59,-125.71 742.02,-131.95 752.61,-132.42 750.59,-125.71"/>
</a>
</g>
</g>
<!-- Node16 -->
<g id="Node000016" class="node">
<title>Node16</title>
<g id="a_Node000016"><a xlink:href="ad5246_8h.html" target="_top" xlink:title=" ">
<polygon fill="white" stroke="#666666" points="1110,-96 987,-96 987,-66 1110,-66 1110,-96"/>
<text text-anchor="start" x="995" y="-84" font-family="Helvetica,sans-Serif" font-size="10.00">drivers/potentiometer</text>
<text text-anchor="middle" x="1048.5" y="-73" font-family="Helvetica,sans-Serif" font-size="10.00">/ad5246/ad5246.h</text>
</a>
</g>
</g>
<!-- Node1&#45;&gt;Node16 -->
<g id="edge15_Node000001_Node000016" class="edge">
<title>Node1&#45;&gt;Node16</title>
<g id="a_edge15_Node000001_Node000016"><a xlink:title=" ">
<path fill="none" stroke="#63b8ff" d="M767.16,-133.8C824.42,-123.94 906.69,-109.52 978.5,-96 981.18,-95.5 983.92,-94.97 986.68,-94.44"/>
<polygon fill="#63b8ff" stroke="#63b8ff" points="766.39,-130.38 757.13,-135.52 767.58,-137.28 766.39,-130.38"/>
</a>
</g>
</g>
<!-- Node18 -->
<g id="Node000018" class="node">
<title>Node18</title>
<g id="a_Node000018"><a xlink:href="ad5259_8h.html" target="_top" xlink:title=" ">
<polygon fill="white" stroke="#666666" points="1251,-96 1128,-96 1128,-66 1251,-66 1251,-96"/>
<text text-anchor="start" x="1136" y="-84" font-family="Helvetica,sans-Serif" font-size="10.00">drivers/potentiometer</text>
<text text-anchor="middle" x="1189.5" y="-73" font-family="Helvetica,sans-Serif" font-size="10.00">/ad5259/ad5259.h</text>
</a>
</g>
</g>
<!-- Node1&#45;&gt;Node18 -->
<g id="edge17_Node000001_Node000018" class="edge">
<title>Node1&#45;&gt;Node18</title>
<g id="a_edge17_Node000001_Node000018"><a xlink:title=" ">
<path fill="none" stroke="#63b8ff" d="M767.15,-139.32C851.65,-131.03 996.22,-115.56 1119.5,-96 1122.19,-95.57 1124.94,-95.12 1127.71,-94.64"/>
<polygon fill="#63b8ff" stroke="#63b8ff" points="766.76,-135.84 757.15,-140.29 767.44,-142.8 766.76,-135.84"/>
</a>
</g>
</g>
<!-- Node20 -->
<g id="Node000020" class="node">
<title>Node20</title>
<g id="a_Node000020"><a xlink:href="dpot_8c.html" target="_top" xlink:title=" ">
<polygon fill="white" stroke="#666666" points="1392,-96 1269,-96 1269,-66 1392,-66 1392,-96"/>
<text text-anchor="start" x="1277" y="-84" font-family="Helvetica,sans-Serif" font-size="10.00">drivers/potentiometer</text>
<text text-anchor="middle" x="1330.5" y="-73" font-family="Helvetica,sans-Serif" font-size="10.00">/common/dpot.c</text>
</a>
</g>
</g>
<!-- Node1&#45;&gt;Node20 -->
<g id="edge19_Node000001_Node000020" class="edge">
<title>Node1&#45;&gt;Node20</title>
<g id="a_edge19_Node000001_Node000020"><a xlink:title=" ">
<path fill="none" stroke="#63b8ff" d="M767.29,-142.16C874.89,-135.85 1084.16,-121.36 1260.5,-96 1263.2,-95.61 1265.95,-95.19 1268.73,-94.73"/>
<polygon fill="#63b8ff" stroke="#63b8ff" points="766.98,-138.68 757.2,-142.75 767.39,-145.66 766.98,-138.68"/>
</a>
</g>
</g>
<!-- Node3 -->
<g id="Node000003" class="node">
<title>Node3</title>
<g id="a_Node000003"><a xlink:href="ad5141_8c.html" target="_top" xlink:title=" ">
<polygon fill="white" stroke="#666666" points="123,-30 0,-30 0,0 123,0 123,-30"/>
<text text-anchor="start" x="8" y="-18" font-family="Helvetica,sans-Serif" font-size="10.00">drivers/potentiometer</text>
<text text-anchor="middle" x="61.5" y="-7" font-family="Helvetica,sans-Serif" font-size="10.00">/ad514x/ad5141.c</text>
</a>
</g>
</g>
<!-- Node2&#45;&gt;Node3 -->
<g id="edge2_Node000002_Node000003" class="edge">
<title>Node2&#45;&gt;Node3</title>
<g id="a_edge2_Node000002_Node000003"><a xlink:title=" ">
<path fill="none" stroke="#63b8ff" d="M61.5,-55.54C61.5,-46.96 61.5,-37.61 61.5,-30.16"/>
<polygon fill="#63b8ff" stroke="#63b8ff" points="58,-55.8 61.5,-65.8 65,-55.8 58,-55.8"/>
</a>
</g>
</g>
<!-- Node5 -->
<g id="Node000005" class="node">
<title>Node5</title>
<g id="a_Node000005"><a xlink:href="ad5142_8c.html" target="_top" xlink:title=" ">
<polygon fill="white" stroke="#666666" points="264,-30 141,-30 141,0 264,0 264,-30"/>
<text text-anchor="start" x="149" y="-18" font-family="Helvetica,sans-Serif" font-size="10.00">drivers/potentiometer</text>
<text text-anchor="middle" x="202.5" y="-7" font-family="Helvetica,sans-Serif" font-size="10.00">/ad514x/ad5142.c</text>
</a>
</g>
</g>
<!-- Node4&#45;&gt;Node5 -->
<g id="edge4_Node000004_Node000005" class="edge">
<title>Node4&#45;&gt;Node5</title>
<g id="a_edge4_Node000004_Node000005"><a xlink:title=" ">
<path fill="none" stroke="#63b8ff" d="M202.5,-55.54C202.5,-46.96 202.5,-37.61 202.5,-30.16"/>
<polygon fill="#63b8ff" stroke="#63b8ff" points="199,-55.8 202.5,-65.8 206,-55.8 199,-55.8"/>
</a>
</g>
</g>
<!-- Node7 -->
<g id="Node000007" class="node">
<title>Node7</title>
<g id="a_Node000007"><a xlink:href="ad5143_8c.html" target="_top" xlink:title=" ">
<polygon fill="white" stroke="#666666" points="405,-30 282,-30 282,0 405,0 405,-30"/>
<text text-anchor="start" x="290" y="-18" font-family="Helvetica,sans-Serif" font-size="10.00">drivers/potentiometer</text>
<text text-anchor="middle" x="343.5" y="-7" font-family="Helvetica,sans-Serif" font-size="10.00">/ad514x/ad5143.c</text>
</a>
</g>
</g>
<!-- Node6&#45;&gt;Node7 -->
<g id="edge6_Node000006_Node000007" class="edge">
<title>Node6&#45;&gt;Node7</title>
<g id="a_edge6_Node000006_Node000007"><a xlink:title=" ">
<path fill="none" stroke="#63b8ff" d="M343.5,-55.54C343.5,-46.96 343.5,-37.61 343.5,-30.16"/>
<polygon fill="#63b8ff" stroke="#63b8ff" points="340,-55.8 343.5,-65.8 347,-55.8 340,-55.8"/>
</a>
</g>
</g>
<!-- Node9 -->
<g id="Node000009" class="node">
<title>Node9</title>
<g id="a_Node000009"><a xlink:href="ad5144_8c.html" target="_top" xlink:title=" ">
<polygon fill="white" stroke="#666666" points="546,-30 423,-30 423,0 546,0 546,-30"/>
<text text-anchor="start" x="431" y="-18" font-family="Helvetica,sans-Serif" font-size="10.00">drivers/potentiometer</text>
<text text-anchor="middle" x="484.5" y="-7" font-family="Helvetica,sans-Serif" font-size="10.00">/ad514x/ad5144.c</text>
</a>
</g>
</g>
<!-- Node8&#45;&gt;Node9 -->
<g id="edge8_Node000008_Node000009" class="edge">
<title>Node8&#45;&gt;Node9</title>
<g id="a_edge8_Node000008_Node000009"><a xlink:title=" ">
<path fill="none" stroke="#63b8ff" d="M484.5,-55.54C484.5,-46.96 484.5,-37.61 484.5,-30.16"/>
<polygon fill="#63b8ff" stroke="#63b8ff" points="481,-55.8 484.5,-65.8 488,-55.8 481,-55.8"/>
</a>
</g>
</g>
<!-- Node11 -->
<g id="Node000011" class="node">
<title>Node11</title>
<g id="a_Node000011"><a xlink:href="ad5161_8c.html" target="_top" xlink:title=" ">
<polygon fill="white" stroke="#666666" points="687,-30 564,-30 564,0 687,0 687,-30"/>
<text text-anchor="start" x="572" y="-18" font-family="Helvetica,sans-Serif" font-size="10.00">drivers/potentiometer</text>
<text text-anchor="middle" x="625.5" y="-7" font-family="Helvetica,sans-Serif" font-size="10.00">/ad5161/ad5161.c</text>
</a>
</g>
</g>
<!-- Node10&#45;&gt;Node11 -->
<g id="edge10_Node000010_Node000011" class="edge">
<title>Node10&#45;&gt;Node11</title>
<g id="a_edge10_Node000010_Node000011"><a xlink:title=" ">
<path fill="none" stroke="#63b8ff" d="M625.5,-55.54C625.5,-46.96 625.5,-37.61 625.5,-30.16"/>
<polygon fill="#63b8ff" stroke="#63b8ff" points="622,-55.8 625.5,-65.8 629,-55.8 622,-55.8"/>
</a>
</g>
</g>
<!-- Node13 -->
<g id="Node000013" class="node">
<title>Node13</title>
<g id="a_Node000013"><a xlink:href="ad5171_8c.html" target="_top" xlink:title=" ">
<polygon fill="white" stroke="#666666" points="828,-30 705,-30 705,0 828,0 828,-30"/>
<text text-anchor="start" x="713" y="-18" font-family="Helvetica,sans-Serif" font-size="10.00">drivers/potentiometer</text>
<text text-anchor="middle" x="766.5" y="-7" font-family="Helvetica,sans-Serif" font-size="10.00">/ad5171/ad5171.c</text>
</a>
</g>
</g>
<!-- Node12&#45;&gt;Node13 -->
<g id="edge12_Node000012_Node000013" class="edge">
<title>Node12&#45;&gt;Node13</title>
<g id="a_edge12_Node000012_Node000013"><a xlink:title=" ">
<path fill="none" stroke="#63b8ff" d="M766.5,-55.54C766.5,-46.96 766.5,-37.61 766.5,-30.16"/>
<polygon fill="#63b8ff" stroke="#63b8ff" points="763,-55.8 766.5,-65.8 770,-55.8 763,-55.8"/>
</a>
</g>
</g>
<!-- Node15 -->
<g id="Node000015" class="node">
<title>Node15</title>
<g id="a_Node000015"><a xlink:href="ad5242_8c.html" target="_top" xlink:title=" ">
<polygon fill="white" stroke="#666666" points="969,-30 846,-30 846,0 969,0 969,-30"/>
<text text-anchor="start" x="854" y="-18" font-family="Helvetica,sans-Serif" font-size="10.00">drivers/potentiometer</text>
<text text-anchor="middle" x="907.5" y="-7" font-family="Helvetica,sans-Serif" font-size="10.00">/ad5242/ad5242.c</text>
</a>
</g>
</g>
<!-- Node14&#45;&gt;Node15 -->
<g id="edge14_Node000014_Node000015" class="edge">
<title>Node14&#45;&gt;Node15</title>
<g id="a_edge14_Node000014_Node000015"><a xlink:title=" ">
<path fill="none" stroke="#63b8ff" d="M907.5,-55.54C907.5,-46.96 907.5,-37.61 907.5,-30.16"/>
<polygon fill="#63b8ff" stroke="#63b8ff" points="904,-55.8 907.5,-65.8 911,-55.8 904,-55.8"/>
</a>
</g>
</g>
<!-- Node17 -->
<g id="Node000017" class="node">
<title>Node17</title>
<g id="a_Node000017"><a xlink:href="ad5246_8c.html" target="_top" xlink:title=" ">
<polygon fill="white" stroke="#666666" points="1110,-30 987,-30 987,0 1110,0 1110,-30"/>
<text text-anchor="start" x="995" y="-18" font-family="Helvetica,sans-Serif" font-size="10.00">drivers/potentiometer</text>
<text text-anchor="middle" x="1048.5" y="-7" font-family="Helvetica,sans-Serif" font-size="10.00">/ad5246/ad5246.c</text>
</a>
</g>
</g>
<!-- Node16&#45;&gt;Node17 -->
<g id="edge16_Node000016_Node000017" class="edge">
<title>Node16&#45;&gt;Node17</title>
<g id="a_edge16_Node000016_Node000017"><a xlink:title=" ">
<path fill="none" stroke="#63b8ff" d="M1048.5,-55.54C1048.5,-46.96 1048.5,-37.61 1048.5,-30.16"/>
<polygon fill="#63b8ff" stroke="#63b8ff" points="1045,-55.8 1048.5,-65.8 1052,-55.8 1045,-55.8"/>
</a>
</g>
</g>
<!-- Node19 -->
<g id="Node000019" class="node">
<title>Node19</title>
<g id="a_Node000019"><a xlink:href="ad5259_8c.html" target="_top" xlink:title=" ">
<polygon fill="white" stroke="#666666" points="1251,-30 1128,-30 1128,0 1251,0 1251,-30"/>
<text text-anchor="start" x="1136" y="-18" font-family="Helvetica,sans-Serif" font-size="10.00">drivers/potentiometer</text>
<text text-anchor="middle" x="1189.5" y="-7" font-family="Helvetica,sans-Serif" font-size="10.00">/ad5259/ad5259.c</text>
</a>
</g>
</g>
<!-- Node18&#45;&gt;Node19 -->
<g id="edge18_Node000018_Node000019" class="edge">
<title>Node18&#45;&gt;Node19</title>
<g id="a_edge18_Node000018_Node000019"><a xlink:title=" ">
<path fill="none" stroke="#63b8ff" d="M1189.5,-55.54C1189.5,-46.96 1189.5,-37.61 1189.5,-30.16"/>
<polygon fill="#63b8ff" stroke="#63b8ff" points="1186,-55.8 1189.5,-65.8 1193,-55.8 1186,-55.8"/>
</a>
</g>
</g>
</g>
</svg>

<g id="navigator" transform="translate(0 0)" fill="#404254">
  <rect fill="#f2f5e9" fill-opacity="0.5" stroke="#606060" stroke-width=".5" x="0" y="0" width="60" height="60"/>
  <use id="zoomplus" xlink:href="#zoomPlus" x="17" y="9" onmousedown="handleZoom(evt,'in')"/>
  <use id="zoomminus" xlink:href="#zoomMin" x="42" y="9" onmousedown="handleZoom(evt,'out')"/>
  <use id="reset" xlink:href="#resetDef" x="30" y="36" onmousedown="handleReset()"/>
   <use id="arrowup" xlink:href="#arrowUp" x="0" y="0" onmousedown="handlePan(0,-1)"/>
  <use id="arrowright" xlink:href="#arrowRight" x="0" y="0" onmousedown="handlePan(1,0)"/>
  <use id="arrowdown" xlink:href="#arrowDown" x="0" y="0" onmousedown="handlePan(0,1)"/>
  <use id="arrowleft" xlink:href="#arrowLeft" x="0" y="0" onmousedown="handlePan(-1,0)"/>
</g>
<svg viewBox="0 0 15 15" width="100%" height="30px" preserveAspectRatio="xMaxYMin meet">
 <g id="arrow_out" transform="scale(0.3 0.3)">
  <a xlink:href="dpot_8h__dep__incl_org.svg" target="_base">
   <rect id="button" ry="5" rx="5" y="6" x="6" height="38" width="38"
        fill="#f2f5e9" fill-opacity="0.5" stroke="#606060" stroke-width="1.0"/>
   <path id="arrow"
     d="M 11.500037,31.436501 C 11.940474,20.09759 22.043105,11.32322 32.158766,21.979434 L 37.068811,17.246167 C 37.068811,17.246167 37.088388,32 37.088388,32 L 22.160133,31.978069 C 22.160133,31.978069 26.997745,27.140456 26.997745,27.140456 C 18.528582,18.264221 13.291696,25.230495 11.500037,31.436501 z"
     style="fill:#404040;"/>
  </a>
 </g>
</svg>

<style type='text/css'>
<![CDATA[
[data-mouse-over-selected='false'] { opacity: 0.7; }
[data-mouse-over-selected='true']  { opacity: 1.0; }
]]>
</style>
<script type="application/ecmascript"><![CDATA[
document.addEventListener('DOMContentLoaded', (event) => {
  highlightEdges();
  highlightAdjacentNodes();
});
]]></script>
</svg>
