<?xml version="1.0" encoding="UTF-8" standalone="no"?>
<!DOCTYPE svg PUBLIC "-//W3C//DTD SVG 1.1//EN"
 "http://www.w3.org/Graphics/SVG/1.1/DTD/svg11.dtd">
<!-- Generated by graphviz version 2.43.0 (0)
 -->
<!-- Title: drivers/potentiometer/common/dpot.h Pages: 1 -->
<svg width="695pt" height="170pt"
 viewBox="0.00 0.00 695.00 170.00" xmlns="http://www.w3.org/2000/svg" xmlns:xlink="http://www.w3.org/1999/xlink">
<g id="graph0" class="graph" transform="scale(1 1) rotate(0) translate(4 166)">
<title>drivers/potentiometer/common/dpot.h</title>
<!-- Node1 -->
<g id="Node000001" class="node">
<title>Node1</title>
<g id="a_Node000001"><a xlink:title=" ">
<polygon fill="#999999" stroke="#666666" points="405,-162 282,-162 282,-132 405,-132 405,-162"/>
<text text-anchor="start" x="290" y="-150" font-family="Helvetica,sans-Serif" font-size="10.00">drivers/potentiometer</text>
<text text-anchor="middle" x="343.5" y="-139" font-family="Helvetica,sans-Serif" font-size="10.00">/common/dpot.h</text>
</a>
</g>
</g>
<!-- Node2 -->
<g id="Node000002" class="node">
<title>Node2</title>
<g id="a_Node000002"><a xlink:href="ad5141_8h.html" target="_top" xlink:title=" ">
<polygon fill="white" stroke="#666666" points="123,-96 0,-96 0,-66 123,-66 123,-96"/>
<text text-anchor="start" x="8" y="-84" font-family="Helvetica,sans-Serif" font-size="10.00">drivers/potentiometer</text>
<text text-anchor="middle" x="61.5" y="-73" font-family="Helvetica,sans-Serif" font-size="10.00">/ad514x/ad5141.h</text>
</a>
</g>
</g>
<!-- Node1&#45;&gt;Node2 -->
<g id="edge1_Node000001_Node000002" class="edge">
<title>Node1&#45;&gt;Node2</title>
<g id="a_edge1_Node000001_Node000002"><a xlink:title=" ">
<path fill="none" stroke="#63b8ff" d="M272.09,-129.79C226.23,-119.39 167.26,-106 123.39,-96.05"/>
<polygon fill="#63b8ff" stroke="#63b8ff" points="271.44,-133.23 281.96,-132.03 272.99,-126.41 271.44,-133.23"/>
</a>
</g>
</g>
<!-- Node4 -->
<g id="Node000004" class="node">
<title>Node4</title>
<g id="a_Node000004"><a xlink:href="ad5142_8h.html" target="_top" xlink:title=" ">
<polygon fill="white" stroke="#666666" points="264,-96 141,-96 141,-66 264,-66 264,-96"/>
<text text-anchor="start" x="149" y="-84" font-family="Helvetica,sans-Serif" font-size="10.00">drivers/potentiometer</text>
<text text-anchor="middle" x="202.5" y="-73" font-family="Helvetica,sans-Serif" font-size="10.00">/ad514x/ad5142.h</text>
</a>
</g>
</g>
<!-- Node1&#45;&gt;Node4 -->
<g id="edge3_Node000001_Node000004" class="edge">
<title>Node1&#45;&gt;Node4</title>
<g id="a_edge3_Node000001_Node000004"><a xlink:title=" ">
<path fill="none" stroke="#63b8ff" d="M303.37,-127.78C281.14,-117.69 253.93,-105.34 233.37,-96.01"/>
<polygon fill="#63b8ff" stroke="#63b8ff" points="302,-131.01 312.56,-131.95 304.9,-124.63 302,-131.01"/>
</a>
</g>
</g>
<!-- Node6 -->
<g id="Node000006" class="node">
<title>Node6</title>
<g id="a_Node000006"><a xlink:href="ad5143_8h.html" target="_top" xlink:title=" ">
<polygon fill="white" stroke="#666666" points="405,-96 282,-96 282,-66 405,-66 405,-96"/>
<text text-anchor="start" x="290" y="-84" font-family="Helvetica,sans-Serif" font-size="10.00">drivers/potentiometer</text>
<text text-anchor="middle" x="343.5" y="-73" font-family="Helvetica,sans-Serif" font-size="10.00">/ad514x/ad5143.h</text>
</a>
</g>
</g>
<!-- Node1&#45;&gt;Node6 -->
<g id="edge5_Node000001_Node000006" class="edge">
<title>Node1&#45;&gt;Node6</title>
<g id="a_edge5_Node000001_Node000006"><a xlink:title=" ">
<path fill="none" stroke="#63b8ff" d="M343.5,-121.54C343.5,-112.96 343.5,-103.61 343.5,-96.16"/>
<polygon fill="#63b8ff" stroke="#63b8ff" points="340,-121.8 343.5,-131.8 347,-121.8 340,-121.8"/>
</a>
</g>
</g>
<!-- Node8 -->
<g id="Node000008" class="node">
<title>Node8</title>
<g id="a_Node000008"><a xlink:href="ad5144_8h.html" target="_top" xlink:title=" ">
<polygon fill="white" stroke="#666666" points="546,-96 423,-96 423,-66 546,-66 546,-96"/>
<text text-anchor="start" x="431" y="-84" font-family="Helvetica,sans-Serif" font-size="10.00">drivers/potentiometer</text>
<text text-anchor="middle" x="484.5" y="-73" font-family="Helvetica,sans-Serif" font-size="10.00">/ad514x/ad5144.h</text>
</a>
</g>
</g>
<!-- Node1&#45;&gt;Node8 -->
<g id="edge7_Node000001_Node000008" class="edge">
<title>Node1&#45;&gt;Node8</title>
<g id="a_edge7_Node000001_Node000008"><a xlink:title=" ">
<path fill="none" stroke="#63b8ff" d="M383.63,-127.78C405.86,-117.69 433.07,-105.34 453.63,-96.01"/>
<polygon fill="#63b8ff" stroke="#63b8ff" points="382.1,-124.63 374.44,-131.95 385,-131.01 382.1,-124.63"/>
</a>
</g>
</g>
<!-- Node10 -->
<g id="Node000010" class="node">
<title>Node10</title>
<g id="a_Node000010"><a xlink:href="dpot_8c.html" target="_top" xlink:title=" ">
<polygon fill="white" stroke="#666666" points="687,-96 564,-96 564,-66 687,-66 687,-96"/>
<text text-anchor="start" x="572" y="-84" font-family="Helvetica,sans-Serif" font-size="10.00">drivers/potentiometer</text>
<text text-anchor="middle" x="625.5" y="-73" font-family="Helvetica,sans-Serif" font-size="10.00">/common/dpot.c</text>
</a>
</g>
</g>
<!-- Node1&#45;&gt;Node10 -->
<g id="edge9_Node000001_Node000010" class="edge">
<title>Node1&#45;&gt;Node10</title>
<g id="a_edge9_Node000001_Node000010"><a xlink:title=" ">
<path fill="none" stroke="#63b8ff" d="M414.91,-129.79C460.77,-119.39 519.74,-106 563.61,-96.05"/>
<polygon fill="#63b8ff" stroke="#63b8ff" points="414.01,-126.41 405.04,-132.03 415.56,-133.23 414.01,-126.41"/>
</a>
</g>
</g>
<!-- Node3 -->
<g id="Node000003" class="node">
<title>Node3</title>
<g id="a_Node000003"><a xlink:href="ad5141_8c.html" target="_top" xlink:title=" ">
<polygon fill="white" stroke="#666666" points="123,-30 0,-30 0,0 123,0 123,-30"/>
<text text-anchor="start" x="8" y="-18" font-family="Helvetica,sans-Serif" font-size="10.00">drivers/potentiometer</text>
<text text-anchor="middle" x="61.5" y="-7" font-family="Helvetica,sans-Serif" font-size="10.00">/ad514x/ad5141.c</text>
</a>
</g>
</g>
<!-- Node2&#45;&gt;Node3 -->
<g id="edge2_Node000002_Node000003" class="edge">
<title>Node2&#45;&gt;Node3</title>
<g id="a_edge2_Node000002_Node000003"><a xlink:title=" ">
<path fill="none" stroke="#63b8ff" d="M61.5,-55.54C61.5,-46.96 61.5,-37.61 61.5,-30.16"/>
<polygon fill="#63b8ff" stroke="#63b8ff" points="58,-55.8 61.5,-65.8 65,-55.8 58,-55.8"/>
</a>
</g>
</g>
<!-- Node5 -->
<g id="Node000005" class="node">
<title>Node5</title>
<g id="a_Node000005"><a xlink:href="ad5142_8c.html" target="_top" xlink:title=" ">
<polygon fill="white" stroke="#666666" points="264,-30 141,-30 141,0 264,0 264,-30"/>
<text text-anchor="start" x="149" y="-18" font-family="Helvetica,sans-Serif" font-size="10.00">drivers/potentiometer</text>
<text text-anchor="middle" x="202.5" y="-7" font-family="Helvetica,sans-Serif" font-size="10.00">/ad514x/ad5142.c</text>
</a>
</g>
</g>
<!-- Node4&#45;&gt;Node5 -->
<g id="edge4_Node000004_Node000005" class="edge">
<title>Node4&#45;&gt;Node5</title>
<g id="a_edge4_Node000004_Node000005"><a xlink:title=" ">
<path fill="none" stroke="#63b8ff" d="M202.5,-55.54C202.5,-46.96 202.5,-37.61 202.5,-30.16"/>
<polygon fill="#63b8ff" stroke="#63b8ff" points="199,-55.8 202.5,-65.8 206,-55.8 199,-55.8"/>
</a>
</g>
</g>
<!-- Node7 -->
<g id="Node000007" class="node">
<title>Node7</title>
<g id="a_Node000007"><a xlink:href="ad5143_8c.html" target="_top" xlink:title=" ">
<polygon fill="white" stroke="#666666" points="405,-30 282,-30 282,0 405,0 405,-30"/>
<text text-anchor="start" x="290" y="-18" font-family="Helvetica,sans-Serif" font-size="10.00">drivers/potentiometer</text>
<text text-anchor="middle" x="343.5" y="-7" font-family="Helvetica,sans-Serif" font-size="10.00">/ad514x/ad5143.c</text>
</a>
</g>
</g>
<!-- Node6&#45;&gt;Node7 -->
<g id="edge6_Node000006_Node000007" class="edge">
<title>Node6&#45;&gt;Node7</title>
<g id="a_edge6_Node000006_Node000007"><a xlink:title=" ">
<path fill="none" stroke="#63b8ff" d="M343.5,-55.54C343.5,-46.96 343.5,-37.61 343.5,-30.16"/>
<polygon fill="#63b8ff" stroke="#63b8ff" points="340,-55.8 343.5,-65.8 347,-55.8 340,-55.8"/>
</a>
</g>
</g>
<!-- Node9 -->
<g id="Node000009" class="node">
<title>Node9</title>
<g id="a_Node000009"><a xlink:href="ad5144_8c.html" target="_top" xlink:title=" ">
<polygon fill="white" stroke="#666666" points="546,-30 423,-30 423,0 546,0 546,-30"/>
<text text-anchor="start" x="431" y="-18" font-family="Helvetica,sans-Serif" font-size="10.00">drivers/potentiometer</text>
<text text-anchor="middle" x="484.5" y="-7" font-family="Helvetica,sans-Serif" font-size="10.00">/ad514x/ad5144.c</text>
</a>
</g>
</g>
<!-- Node8&#45;&gt;Node9 -->
<g id="edge8_Node000008_Node000009" class="edge">
<title>Node8&#45;&gt;Node9</title>
<g id="a_edge8_Node000008_Node000009"><a xlink:title=" ">
<path fill="none" stroke="#63b8ff" d="M484.5,-55.54C484.5,-46.96 484.5,-37.61 484.5,-30.16"/>
<polygon fill="#63b8ff" stroke="#63b8ff" points="481,-55.8 484.5,-65.8 488,-55.8 481,-55.8"/>
</a>
</g>
</g>
</g>
</svg>
