<?xml version="1.0" encoding="UTF-8" standalone="no"?>
<!DOCTYPE svg PUBLIC "-//W3C//DTD SVG 1.1//EN"
 "http://www.w3.org/Graphics/SVG/1.1/DTD/svg11.dtd">
<!-- Generated by graphviz version 2.43.0 (0)
 -->
<!-- Title: ad9528_poll Pages: 1 -->
<svg width="554pt" height="249pt"
 viewBox="0.00 0.00 554.00 249.00" xmlns="http://www.w3.org/2000/svg" xmlns:xlink="http://www.w3.org/1999/xlink">
<g id="graph0" class="graph" transform="scale(1 1) rotate(0) translate(4 245)">
<title>ad9528_poll</title>
<!-- Node1 -->
<g id="Node000001" class="node">
<title>Node1</title>
<g id="a_Node000001"><a xlink:title="Poll register.">
<polygon fill="#999999" stroke="#666666" points="546,-130 470,-130 470,-111 546,-111 546,-130"/>
<text text-anchor="middle" x="508" y="-118" font-family="Helvetica,sans-Serif" font-size="10.00">ad9528_poll</text>
</a>
</g>
</g>
<!-- Node2 -->
<g id="Node000002" class="node">
<title>Node2</title>
<g id="a_Node000002"><a xlink:href="drivers_2frequency_2ad9528_2ad9528_8c.html#a300fee1e9b4ba514e195d5312b11eea3" target="_top" xlink:title="Initializes the AD9528.">
<polygon fill="white" stroke="#666666" points="318,-130 233,-130 233,-111 318,-111 318,-130"/>
<text text-anchor="middle" x="275.5" y="-118" font-family="Helvetica,sans-Serif" font-size="10.00">ad9528_setup</text>
</a>
</g>
</g>
<!-- Node1&#45;&gt;Node2 -->
<g id="edge1_Node000001_Node000002" class="edge">
<title>Node1&#45;&gt;Node2</title>
<g id="a_edge1_Node000001_Node000002"><a xlink:title=" ">
<path fill="none" stroke="#63b8ff" d="M459.8,-120.5C418.14,-120.5 358.01,-120.5 318.12,-120.5"/>
<polygon fill="#63b8ff" stroke="#63b8ff" points="459.97,-124 469.97,-120.5 459.97,-117 459.97,-124"/>
</a>
</g>
</g>
<!-- Node13 -->
<g id="Node000013" class="node">
<title>Node13</title>
<g id="a_Node000013"><a xlink:href="drivers_2frequency_2ad9528_2ad9528_8c.html#a508b6010b53efae6c7746aef27414b43" target="_top" xlink:title="Updates the AD9528 configuration.">
<polygon fill="white" stroke="#666666" points="434,-111 354,-111 354,-92 434,-92 434,-111"/>
<text text-anchor="middle" x="394" y="-99" font-family="Helvetica,sans-Serif" font-size="10.00">ad9528_sync</text>
</a>
</g>
</g>
<!-- Node1&#45;&gt;Node13 -->
<g id="edge12_Node000001_Node000013" class="edge">
<title>Node1&#45;&gt;Node13</title>
<g id="a_edge12_Node000001_Node000013"><a xlink:title=" ">
<path fill="none" stroke="#63b8ff" d="M459.81,-112.49C451.23,-111.04 442.36,-109.53 434.05,-108.12"/>
<polygon fill="#63b8ff" stroke="#63b8ff" points="459.26,-115.95 469.71,-114.17 460.43,-109.05 459.26,-115.95"/>
</a>
</g>
</g>
<!-- Node3 -->
<g id="Node000003" class="node">
<title>Node3</title>
<g id="a_Node000003"><a xlink:href="ad9083_2src_2app__clocking_8c.html#a38d8e42d7fcb81eb03edad7f6675c0b5" target="_top" xlink:title="Initialize the clocking app.">
<polygon fill="white" stroke="#666666" points="187.5,-241 86.5,-241 86.5,-222 187.5,-222 187.5,-241"/>
<text text-anchor="middle" x="137" y="-229" font-family="Helvetica,sans-Serif" font-size="10.00">app_clocking_init</text>
</a>
</g>
</g>
<!-- Node2&#45;&gt;Node3 -->
<g id="edge2_Node000002_Node000003" class="edge">
<title>Node2&#45;&gt;Node3</title>
<g id="a_edge2_Node000002_Node000003"><a xlink:title=" ">
<path fill="none" stroke="#63b8ff" d="M263.81,-138.9C250.67,-159.93 226.46,-193.94 197,-213.5 191.91,-216.88 186.17,-219.64 180.31,-221.9"/>
<polygon fill="#63b8ff" stroke="#63b8ff" points="266.86,-140.62 269.04,-130.25 260.87,-137 266.86,-140.62"/>
</a>
</g>
</g>
<!-- Node5 -->
<g id="Node000005" class="node">
<title>Node5</title>
<g id="a_Node000005"><a xlink:href="adrv902x_2src_2examples_2basic__example_2basic__example_8c.html#ac5f0064cb4ac7ddab3ec02b10217b456" target="_top" xlink:title="Basic example main execution.">
<polygon fill="white" stroke="#666666" points="197,-204 77,-204 77,-185 197,-185 197,-204"/>
<text text-anchor="middle" x="137" y="-192" font-family="Helvetica,sans-Serif" font-size="10.00">basic_example_main</text>
</a>
</g>
</g>
<!-- Node2&#45;&gt;Node5 -->
<g id="edge4_Node000002_Node000005" class="edge">
<title>Node2&#45;&gt;Node5</title>
<g id="a_edge4_Node000002_Node000005"><a xlink:title=" ">
<path fill="none" stroke="#63b8ff" d="M255.37,-136.61C240.3,-148.65 218.33,-164.81 197,-175.5 189.69,-179.16 181.52,-182.33 173.64,-184.96"/>
<polygon fill="#63b8ff" stroke="#63b8ff" points="257.85,-139.1 263.39,-130.06 253.43,-133.67 257.85,-139.1"/>
</a>
</g>
</g>
<!-- Node6 -->
<g id="Node000006" class="node">
<title>Node6</title>
<g id="a_Node000006"><a xlink:href="adrv9009_2src_2app_2app__clocking_8c.html#adab63a630c95f109e3b4330b5b0253b6" target="_top" xlink:title=" ">
<polygon fill="white" stroke="#666666" points="176,-167 98,-167 98,-148 176,-148 176,-167"/>
<text text-anchor="middle" x="137" y="-155" font-family="Helvetica,sans-Serif" font-size="10.00">clocking_init</text>
</a>
</g>
</g>
<!-- Node2&#45;&gt;Node6 -->
<g id="edge5_Node000002_Node000006" class="edge">
<title>Node2&#45;&gt;Node6</title>
<g id="a_edge5_Node000002_Node000006"><a xlink:title=" ">
<path fill="none" stroke="#63b8ff" d="M229.53,-132.69C211.33,-137.62 190.62,-143.24 173.51,-147.88"/>
<polygon fill="#63b8ff" stroke="#63b8ff" points="230.61,-136.02 239.35,-130.03 228.78,-129.27 230.61,-136.02"/>
</a>
</g>
</g>
<!-- Node8 -->
<g id="Node000008" class="node">
<title>Node8</title>
<g id="a_Node000008"><a xlink:href="adrv902x_2src_2examples_2dma__example_2dma__example_8c.html#a6fab3c4f8551a0a277a9058ddb0f1914" target="_top" xlink:title="DMA example main execution.">
<polygon fill="white" stroke="#666666" points="195,-130 79,-130 79,-111 195,-111 195,-130"/>
<text text-anchor="middle" x="137" y="-118" font-family="Helvetica,sans-Serif" font-size="10.00">dma_example_main</text>
</a>
</g>
</g>
<!-- Node2&#45;&gt;Node8 -->
<g id="edge7_Node000002_Node000008" class="edge">
<title>Node2&#45;&gt;Node8</title>
<g id="a_edge7_Node000002_Node000008"><a xlink:title=" ">
<path fill="none" stroke="#63b8ff" d="M222.78,-120.5C213.71,-120.5 204.23,-120.5 195.02,-120.5"/>
<polygon fill="#63b8ff" stroke="#63b8ff" points="222.8,-124 232.8,-120.5 222.8,-117 222.8,-124"/>
</a>
</g>
</g>
<!-- Node10 -->
<g id="Node000010" class="node">
<title>Node10</title>
<g id="a_Node000010"><a xlink:href="adrv903x_2src_2examples_2basic__example_2basic__example_8c.html#ac25cbf8ae523e89cb0617e68c98bc697" target="_top" xlink:title="Basic example main function.">
<polygon fill="white" stroke="#666666" points="181.5,-93 92.5,-93 92.5,-74 181.5,-74 181.5,-93"/>
<text text-anchor="middle" x="137" y="-81" font-family="Helvetica,sans-Serif" font-size="10.00">example_main</text>
</a>
</g>
</g>
<!-- Node2&#45;&gt;Node10 -->
<g id="edge9_Node000002_Node000010" class="edge">
<title>Node2&#45;&gt;Node10</title>
<g id="a_edge9_Node000002_Node000010"><a xlink:title=" ">
<path fill="none" stroke="#63b8ff" d="M229.53,-108.31C211.33,-103.38 190.62,-97.76 173.51,-93.12"/>
<polygon fill="#63b8ff" stroke="#63b8ff" points="228.78,-111.73 239.35,-110.97 230.61,-104.98 228.78,-111.73"/>
</a>
</g>
</g>
<!-- Node11 -->
<g id="Node000011" class="node">
<title>Node11</title>
<g id="a_Node000011"><a xlink:href="adrv902x_2src_2examples_2iio__example_2iio__example_8c.html#a692b15b864d48091dc3d7095bea120b4" target="_top" xlink:title="IIO example main execution.">
<polygon fill="white" stroke="#666666" points="190.5,-56 83.5,-56 83.5,-37 190.5,-37 190.5,-56"/>
<text text-anchor="middle" x="137" y="-44" font-family="Helvetica,sans-Serif" font-size="10.00">iio_example_main</text>
</a>
</g>
</g>
<!-- Node2&#45;&gt;Node11 -->
<g id="edge10_Node000002_Node000011" class="edge">
<title>Node2&#45;&gt;Node11</title>
<g id="a_edge10_Node000002_Node000011"><a xlink:title=" ">
<path fill="none" stroke="#63b8ff" d="M255.72,-104.2C240.7,-91.85 218.63,-75.24 197,-64.5 190.38,-61.21 183.05,-58.39 175.86,-56.02"/>
<polygon fill="#63b8ff" stroke="#63b8ff" points="253.79,-107.15 263.7,-110.9 258.29,-101.79 253.79,-107.15"/>
</a>
</g>
</g>
<!-- Node12 -->
<g id="Node000012" class="node">
<title>Node12</title>
<g id="a_Node000012"><a xlink:href="headless__mb_8c.html#a840291bc02cba5474a4cb46a9b9566fe" target="_top" xlink:title=" ">
<polygon fill="white" stroke="#666666" points="157.5,-19 116.5,-19 116.5,0 157.5,0 157.5,-19"/>
<text text-anchor="middle" x="137" y="-7" font-family="Helvetica,sans-Serif" font-size="10.00">main</text>
</a>
</g>
</g>
<!-- Node2&#45;&gt;Node12 -->
<g id="edge11_Node000002_Node000012" class="edge">
<title>Node2&#45;&gt;Node12</title>
<g id="a_edge11_Node000002_Node000012"><a xlink:title=" ">
<path fill="none" stroke="#63b8ff" d="M263.81,-102.1C250.67,-81.07 226.46,-47.06 197,-27.5 185.13,-19.62 169.67,-15.07 157.55,-12.52"/>
<polygon fill="#63b8ff" stroke="#63b8ff" points="260.87,-104 269.04,-110.75 266.86,-100.38 260.87,-104"/>
</a>
</g>
</g>
<!-- Node4 -->
<g id="Node000004" class="node">
<title>Node4</title>
<g id="a_Node000004"><a xlink:href="ad9083_2src_2app_8c.html#a840291bc02cba5474a4cb46a9b9566fe" target="_top" xlink:title="Main application.">
<polygon fill="white" stroke="#666666" points="41,-241 0,-241 0,-222 41,-222 41,-241"/>
<text text-anchor="middle" x="20.5" y="-229" font-family="Helvetica,sans-Serif" font-size="10.00">main</text>
</a>
</g>
</g>
<!-- Node3&#45;&gt;Node4 -->
<g id="edge3_Node000003_Node000004" class="edge">
<title>Node3&#45;&gt;Node4</title>
<g id="a_edge3_Node000003_Node000004"><a xlink:title=" ">
<path fill="none" stroke="#63b8ff" d="M76.29,-231.5C63.6,-231.5 51.08,-231.5 41.22,-231.5"/>
<polygon fill="#63b8ff" stroke="#63b8ff" points="76.44,-235 86.44,-231.5 76.44,-228 76.44,-235"/>
</a>
</g>
</g>
<!-- Node7 -->
<g id="Node000007" class="node">
<title>Node7</title>
<g id="a_Node000007"><a xlink:href="headless__arm_8c.html#a840291bc02cba5474a4cb46a9b9566fe" target="_top" xlink:title=" ">
<polygon fill="white" stroke="#666666" points="41,-167 0,-167 0,-148 41,-148 41,-167"/>
<text text-anchor="middle" x="20.5" y="-155" font-family="Helvetica,sans-Serif" font-size="10.00">main</text>
</a>
</g>
</g>
<!-- Node6&#45;&gt;Node7 -->
<g id="edge6_Node000006_Node000007" class="edge">
<title>Node6&#45;&gt;Node7</title>
<g id="a_edge6_Node000006_Node000007"><a xlink:title=" ">
<path fill="none" stroke="#63b8ff" d="M87.85,-157.5C71.45,-157.5 54.04,-157.5 41.16,-157.5"/>
<polygon fill="#63b8ff" stroke="#63b8ff" points="87.87,-161 97.87,-157.5 87.87,-154 87.87,-161"/>
</a>
</g>
</g>
<!-- Node9 -->
<g id="Node000009" class="node">
<title>Node9</title>
<g id="a_Node000009"><a xlink:href="adrv902x_2src_2platform_2xilinx_2main_8c.html#ae66f6b31b5ad750f1fe042a706a4e3d4" target="_top" xlink:title="Main function execution for XILINX platform.">
<polygon fill="white" stroke="#666666" points="41,-130 0,-130 0,-111 41,-111 41,-130"/>
<text text-anchor="middle" x="20.5" y="-118" font-family="Helvetica,sans-Serif" font-size="10.00">main</text>
</a>
</g>
</g>
<!-- Node8&#45;&gt;Node9 -->
<g id="edge8_Node000008_Node000009" class="edge">
<title>Node8&#45;&gt;Node9</title>
<g id="a_edge8_Node000008_Node000009"><a xlink:title=" ">
<path fill="none" stroke="#63b8ff" d="M68.65,-120.5C58.64,-120.5 49.06,-120.5 41.18,-120.5"/>
<polygon fill="#63b8ff" stroke="#63b8ff" points="68.75,-124 78.75,-120.5 68.75,-117 68.75,-124"/>
</a>
</g>
</g>
<!-- Node13&#45;&gt;Node2 -->
<g id="edge13_Node000013_Node000002" class="edge">
<title>Node13&#45;&gt;Node2</title>
<g id="a_edge13_Node000013_Node000002"><a xlink:title=" ">
<path fill="none" stroke="#63b8ff" d="M343.96,-109.5C335.36,-110.9 326.48,-112.35 318.11,-113.71"/>
<polygon fill="#63b8ff" stroke="#63b8ff" points="344.58,-112.94 353.88,-107.88 343.45,-106.03 344.58,-112.94"/>
</a>
</g>
</g>
</g>
</svg>
