<?xml version="1.0" encoding="UTF-8" standalone="no"?>
<!DOCTYPE svg PUBLIC "-//W3C//DTD SVG 1.1//EN"
 "http://www.w3.org/Graphics/SVG/1.1/DTD/svg11.dtd">
<!-- Generated by graphviz version 2.43.0 (0)
 -->
<!-- Title: ad9528_init Pages: 1 -->
<svg width="296pt" height="138pt"
 viewBox="0.00 0.00 296.00 138.00" xmlns="http://www.w3.org/2000/svg" xmlns:xlink="http://www.w3.org/1999/xlink">
<g id="graph0" class="graph" transform="scale(1 1) rotate(0) translate(4 134)">
<title>ad9528_init</title>
<!-- Node1 -->
<g id="Node000001" class="node">
<title>Node1</title>
<g id="a_Node000001"><a xlink:title="Initializes the AD9528.">
<polygon fill="#999999" stroke="#666666" points="288,-74 214,-74 214,-55 288,-55 288,-74"/>
<text text-anchor="middle" x="251" y="-62" font-family="Helvetica,sans-Serif" font-size="10.00">ad9528_init</text>
</a>
</g>
</g>
<!-- Node2 -->
<g id="Node000002" class="node">
<title>Node2</title>
<g id="a_Node000002"><a xlink:href="ad9083_2src_2app__clocking_8c.html#a38d8e42d7fcb81eb03edad7f6675c0b5" target="_top" xlink:title="Initialize the clocking app.">
<polygon fill="white" stroke="#666666" points="178,-130 77,-130 77,-111 178,-111 178,-130"/>
<text text-anchor="middle" x="127.5" y="-118" font-family="Helvetica,sans-Serif" font-size="10.00">app_clocking_init</text>
</a>
</g>
</g>
<!-- Node1&#45;&gt;Node2 -->
<g id="edge1_Node000001_Node000002" class="edge">
<title>Node1&#45;&gt;Node2</title>
<g id="a_edge1_Node000001_Node000002"><a xlink:title=" ">
<path fill="none" stroke="#63b8ff" d="M224.66,-78.97C211.05,-86.45 193.85,-95.47 178,-102.5 171.23,-105.5 163.79,-108.41 156.78,-110.97"/>
<polygon fill="#63b8ff" stroke="#63b8ff" points="226.41,-81.99 233.45,-74.07 223.01,-75.88 226.41,-81.99"/>
</a>
</g>
</g>
<!-- Node4 -->
<g id="Node000004" class="node">
<title>Node4</title>
<g id="a_Node000004"><a xlink:href="adrv9009_2src_2app_2app__clocking_8c.html#adab63a630c95f109e3b4330b5b0253b6" target="_top" xlink:title=" ">
<polygon fill="white" stroke="#666666" points="166.5,-93 88.5,-93 88.5,-74 166.5,-74 166.5,-93"/>
<text text-anchor="middle" x="127.5" y="-81" font-family="Helvetica,sans-Serif" font-size="10.00">clocking_init</text>
</a>
</g>
</g>
<!-- Node1&#45;&gt;Node4 -->
<g id="edge3_Node000001_Node000004" class="edge">
<title>Node1&#45;&gt;Node4</title>
<g id="a_edge3_Node000001_Node000004"><a xlink:title=" ">
<path fill="none" stroke="#63b8ff" d="M203.85,-71.72C191.63,-73.63 178.57,-75.67 166.81,-77.51"/>
<polygon fill="#63b8ff" stroke="#63b8ff" points="204.54,-75.15 213.87,-70.15 203.45,-68.24 204.54,-75.15"/>
</a>
</g>
</g>
<!-- Node6 -->
<g id="Node000006" class="node">
<title>Node6</title>
<g id="a_Node000006"><a xlink:href="adrv902x_2src_2examples_2dma__example_2dma__example_8c.html#a423407bf3827741dfe2f6e0def8ba0c3" target="_top" xlink:title="DMA example main execution.">
<polygon fill="white" stroke="#666666" points="172,-56 83,-56 83,-37 172,-37 172,-56"/>
<text text-anchor="middle" x="127.5" y="-44" font-family="Helvetica,sans-Serif" font-size="10.00">example_main</text>
</a>
</g>
</g>
<!-- Node1&#45;&gt;Node6 -->
<g id="edge5_Node000001_Node000006" class="edge">
<title>Node1&#45;&gt;Node6</title>
<g id="a_edge5_Node000001_Node000006"><a xlink:title=" ">
<path fill="none" stroke="#63b8ff" d="M203.82,-57.66C193.53,-56.13 182.64,-54.52 172.44,-53.01"/>
<polygon fill="#63b8ff" stroke="#63b8ff" points="203.47,-61.14 213.87,-59.15 204.5,-54.22 203.47,-61.14"/>
</a>
</g>
</g>
<!-- Node7 -->
<g id="Node000007" class="node">
<title>Node7</title>
<g id="a_Node000007"><a xlink:href="headless__mb_8c.html#a840291bc02cba5474a4cb46a9b9566fe" target="_top" xlink:title=" ">
<polygon fill="white" stroke="#666666" points="148,-19 107,-19 107,0 148,0 148,-19"/>
<text text-anchor="middle" x="127.5" y="-7" font-family="Helvetica,sans-Serif" font-size="10.00">main</text>
</a>
</g>
</g>
<!-- Node1&#45;&gt;Node7 -->
<g id="edge6_Node000001_Node000007" class="edge">
<title>Node1&#45;&gt;Node7</title>
<g id="a_edge6_Node000001_Node000007"><a xlink:title=" ">
<path fill="none" stroke="#63b8ff" d="M223.04,-50.24C209.65,-43.36 193.13,-35.17 178,-28.5 168.4,-24.27 157.53,-20.04 148.43,-16.65"/>
<polygon fill="#63b8ff" stroke="#63b8ff" points="221.69,-53.48 232.18,-54.98 224.92,-47.27 221.69,-53.48"/>
</a>
</g>
</g>
<!-- Node3 -->
<g id="Node000003" class="node">
<title>Node3</title>
<g id="a_Node000003"><a xlink:href="ad9083_2src_2app_8c.html#a840291bc02cba5474a4cb46a9b9566fe" target="_top" xlink:title="Main application.">
<polygon fill="white" stroke="#666666" points="41,-130 0,-130 0,-111 41,-111 41,-130"/>
<text text-anchor="middle" x="20.5" y="-118" font-family="Helvetica,sans-Serif" font-size="10.00">main</text>
</a>
</g>
</g>
<!-- Node2&#45;&gt;Node3 -->
<g id="edge2_Node000002_Node000003" class="edge">
<title>Node2&#45;&gt;Node3</title>
<g id="a_edge2_Node000002_Node000003"><a xlink:title=" ">
<path fill="none" stroke="#63b8ff" d="M66.72,-120.5C57.53,-120.5 48.64,-120.5 41.2,-120.5"/>
<polygon fill="#63b8ff" stroke="#63b8ff" points="66.77,-124 76.77,-120.5 66.77,-117 66.77,-124"/>
</a>
</g>
</g>
<!-- Node5 -->
<g id="Node000005" class="node">
<title>Node5</title>
<g id="a_Node000005"><a xlink:href="headless__arm_8c.html#a840291bc02cba5474a4cb46a9b9566fe" target="_top" xlink:title=" ">
<polygon fill="white" stroke="#666666" points="41,-93 0,-93 0,-74 41,-74 41,-93"/>
<text text-anchor="middle" x="20.5" y="-81" font-family="Helvetica,sans-Serif" font-size="10.00">main</text>
</a>
</g>
</g>
<!-- Node4&#45;&gt;Node5 -->
<g id="edge4_Node000004_Node000005" class="edge">
<title>Node4&#45;&gt;Node5</title>
<g id="a_edge4_Node000004_Node000005"><a xlink:title=" ">
<path fill="none" stroke="#63b8ff" d="M78.01,-83.5C65.02,-83.5 51.7,-83.5 41.26,-83.5"/>
<polygon fill="#63b8ff" stroke="#63b8ff" points="78.3,-87 88.3,-83.5 78.3,-80 78.3,-87"/>
</a>
</g>
</g>
</g>
</svg>
