<?xml version="1.0" encoding="UTF-8" standalone="no"?>
<!DOCTYPE svg PUBLIC "-//W3C//DTD SVG 1.1//EN"
 "http://www.w3.org/Graphics/SVG/1.1/DTD/svg11.dtd">
<!-- Generated by graphviz version 2.43.0 (0)
 -->
<!-- Title: projects/eval&#45;cn0391&#45;ardz/src/common/common_data.h Pages: 1 -->
<svg width="454pt" height="269pt"
 viewBox="0.00 0.00 454.00 269.00" xmlns="http://www.w3.org/2000/svg" xmlns:xlink="http://www.w3.org/1999/xlink">

<svg id="main" version="1.1" xmlns="http://www.w3.org/2000/svg" xmlns:xlink="http://www.w3.org/1999/xlink" xml:space="preserve">

<style type="text/css"><![CDATA[
.node, .edge {opacity: 0.7;}
.node.selected, .edge.selected {opacity: 1;}
.edge:hover path { stroke: red; }
.edge:hover polygon { stroke: red; fill: red; }
]]></style>
<script type="application/ecmascript" xlink:href="svg.min.js"/>
<svg id="graph" class="graph">
<g id="graph0" class="graph" transform="scale(1 1) rotate(0) translate(4 265)">
<title>projects/eval&#45;cn0391&#45;ardz/src/common/common_data.h</title>
<!-- Node1 -->
<g id="Node000001" class="node">
<title>Node1</title>
<g id="a_Node000001"><a xlink:title="Defines common data to be used by eval&#45;cn0391&#45;ardz examples.">
<polygon fill="#999999" stroke="#666666" points="260.5,-261 110.5,-261 110.5,-220 260.5,-220 260.5,-261"/>
<text text-anchor="start" x="118.5" y="-249" font-family="Helvetica,sans-Serif" font-size="10.00">projects/eval&#45;cn0391</text>
<text text-anchor="start" x="118.5" y="-238" font-family="Helvetica,sans-Serif" font-size="10.00">&#45;ardz/src/common/common</text>
<text text-anchor="middle" x="185.5" y="-227" font-family="Helvetica,sans-Serif" font-size="10.00">_data.h</text>
</a>
</g>
</g>
<!-- Node2 -->
<g id="Node000002" class="node">
<title>Node2</title>
<g id="a_Node000002"><a xlink:title=" ">
<polygon fill="#e0e0e0" stroke="#999999" points="157.5,-184 75.5,-184 75.5,-165 157.5,-165 157.5,-184"/>
<text text-anchor="middle" x="116.5" y="-172" font-family="Helvetica,sans-Serif" font-size="10.00">parameters.h</text>
</a>
</g>
</g>
<!-- Node1&#45;&gt;Node2 -->
<g id="edge1_Node000001_Node000002" class="edge">
<title>Node1&#45;&gt;Node2</title>
<g id="a_edge1_Node000001_Node000002"><a xlink:title=" ">
<path fill="none" stroke="#63b8ff" d="M164.42,-219.95C154.49,-210.74 142.8,-199.9 133.45,-191.23"/>
<polygon fill="#63b8ff" stroke="#63b8ff" points="135.66,-188.49 125.94,-184.26 130.9,-193.63 135.66,-188.49"/>
</a>
</g>
</g>
<!-- Node3 -->
<g id="Node000003" class="node">
<title>Node3</title>
<g id="a_Node000003"><a xlink:href="ad7124_8h.html" target="_top" xlink:title="AD7124 header file. Devices: AD7124&#45;4, AD7124&#45;8.">
<polygon fill="white" stroke="#666666" points="209.5,-129 147.5,-129 147.5,-110 209.5,-110 209.5,-129"/>
<text text-anchor="middle" x="178.5" y="-117" font-family="Helvetica,sans-Serif" font-size="10.00">ad7124.h</text>
</a>
</g>
</g>
<!-- Node1&#45;&gt;Node3 -->
<g id="edge2_Node000001_Node000003" class="edge">
<title>Node1&#45;&gt;Node3</title>
<g id="a_edge2_Node000001_Node000003"><a xlink:title=" ">
<path fill="none" stroke="#63b8ff" d="M184.34,-219.85C183.03,-197.48 180.89,-161.19 179.6,-139.21"/>
<polygon fill="#63b8ff" stroke="#63b8ff" points="183.09,-138.95 179.01,-129.18 176.1,-139.36 183.09,-138.95"/>
</a>
</g>
</g>
<!-- Node10 -->
<g id="Node000010" class="node">
<title>Node10</title>
<g id="a_Node000010"><a xlink:href="cn0391_8h.html" target="_top" xlink:title="Header file of CN0391 board support.">
<polygon fill="white" stroke="#666666" points="288,-184 227,-184 227,-165 288,-165 288,-184"/>
<text text-anchor="middle" x="257.5" y="-172" font-family="Helvetica,sans-Serif" font-size="10.00">cn0391.h</text>
</a>
</g>
</g>
<!-- Node1&#45;&gt;Node10 -->
<g id="edge13_Node000001_Node000010" class="edge">
<title>Node1&#45;&gt;Node10</title>
<g id="a_edge13_Node000001_Node000010"><a xlink:title=" ">
<path fill="none" stroke="#63b8ff" d="M207.49,-219.95C217.96,-210.65 230.3,-199.68 240.1,-190.96"/>
<polygon fill="#63b8ff" stroke="#63b8ff" points="242.5,-193.52 247.64,-184.26 237.84,-188.29 242.5,-193.52"/>
</a>
</g>
</g>
<!-- Node4 -->
<g id="Node000004" class="node">
<title>Node4</title>
<g id="a_Node000004"><a xlink:title=" ">
<polygon fill="#e0e0e0" stroke="#999999" points="173,-19 120,-19 120,0 173,0 173,-19"/>
<text text-anchor="middle" x="146.5" y="-7" font-family="Helvetica,sans-Serif" font-size="10.00">stdint.h</text>
</a>
</g>
</g>
<!-- Node3&#45;&gt;Node4 -->
<g id="edge3_Node000003_Node000004" class="edge">
<title>Node3&#45;&gt;Node4</title>
<g id="a_edge3_Node000003_Node000004"><a xlink:title=" ">
<path fill="none" stroke="#63b8ff" d="M164.72,-109.82C153.68,-101.99 139.01,-89.35 132.5,-74 126.24,-59.24 131.24,-41.31 136.93,-28.27"/>
<polygon fill="#63b8ff" stroke="#63b8ff" points="140.2,-29.54 141.43,-19.02 133.91,-26.48 140.2,-29.54"/>
</a>
</g>
</g>
<!-- Node5 -->
<g id="Node000005" class="node">
<title>Node5</title>
<g id="a_Node000005"><a xlink:title=" ">
<polygon fill="#e0e0e0" stroke="#999999" points="368.5,-19 306.5,-19 306.5,0 368.5,0 368.5,-19"/>
<text text-anchor="middle" x="337.5" y="-7" font-family="Helvetica,sans-Serif" font-size="10.00">stdbool.h</text>
</a>
</g>
</g>
<!-- Node3&#45;&gt;Node5 -->
<g id="edge4_Node000003_Node000005" class="edge">
<title>Node3&#45;&gt;Node5</title>
<g id="a_edge4_Node000003_Node000005"><a xlink:title=" ">
<path fill="none" stroke="#63b8ff" d="M209.56,-112.05C245.66,-103.97 302.26,-89.31 317.5,-74 329.34,-62.11 334.18,-43.28 336.16,-29.21"/>
<polygon fill="#63b8ff" stroke="#63b8ff" points="339.65,-29.48 337.2,-19.17 332.69,-28.75 339.65,-29.48"/>
</a>
</g>
</g>
<!-- Node6 -->
<g id="Node000006" class="node">
<title>Node6</title>
<g id="a_Node000006"><a xlink:href="no__os__spi_8h.html" target="_top" xlink:title="Header file of SPI Interface.">
<polygon fill="white" stroke="#666666" points="215.5,-74 141.5,-74 141.5,-55 215.5,-55 215.5,-74"/>
<text text-anchor="middle" x="178.5" y="-62" font-family="Helvetica,sans-Serif" font-size="10.00">no_os_spi.h</text>
</a>
</g>
</g>
<!-- Node3&#45;&gt;Node6 -->
<g id="edge5_Node000003_Node000006" class="edge">
<title>Node3&#45;&gt;Node6</title>
<g id="a_edge5_Node000003_Node000006"><a xlink:title=" ">
<path fill="none" stroke="#63b8ff" d="M178.5,-109.75C178.5,-102.8 178.5,-92.85 178.5,-84.13"/>
<polygon fill="#63b8ff" stroke="#63b8ff" points="182,-84.09 178.5,-74.09 175,-84.09 182,-84.09"/>
</a>
</g>
</g>
<!-- Node7 -->
<g id="Node000007" class="node">
<title>Node7</title>
<g id="a_Node000007"><a xlink:href="no__os__delay_8h.html" target="_top" xlink:title="Header file of Delay functions.">
<polygon fill="white" stroke="#666666" points="85,-74 0,-74 0,-55 85,-55 85,-74"/>
<text text-anchor="middle" x="42.5" y="-62" font-family="Helvetica,sans-Serif" font-size="10.00">no_os_delay.h</text>
</a>
</g>
</g>
<!-- Node3&#45;&gt;Node7 -->
<g id="edge7_Node000003_Node000007" class="edge">
<title>Node3&#45;&gt;Node7</title>
<g id="a_edge7_Node000003_Node000007"><a xlink:title=" ">
<path fill="none" stroke="#63b8ff" d="M156.65,-109.98C134.38,-101.3 99.6,-87.75 74.28,-77.88"/>
<polygon fill="#63b8ff" stroke="#63b8ff" points="75.34,-74.54 64.75,-74.17 72.79,-81.06 75.34,-74.54"/>
</a>
</g>
</g>
<!-- Node8 -->
<g id="Node000008" class="node">
<title>Node8</title>
<g id="a_Node000008"><a xlink:href="no__os__util_8h.html" target="_top" xlink:title="Header file of utility functions.">
<polygon fill="white" stroke="#666666" points="309,-74 234,-74 234,-55 309,-55 309,-74"/>
<text text-anchor="middle" x="271.5" y="-62" font-family="Helvetica,sans-Serif" font-size="10.00">no_os_util.h</text>
</a>
</g>
</g>
<!-- Node3&#45;&gt;Node8 -->
<g id="edge9_Node000003_Node000008" class="edge">
<title>Node3&#45;&gt;Node8</title>
<g id="a_edge9_Node000003_Node000008"><a xlink:title=" ">
<path fill="none" stroke="#63b8ff" d="M193.44,-109.98C208,-101.69 230.37,-88.94 247.43,-79.22"/>
<polygon fill="#63b8ff" stroke="#63b8ff" points="249.33,-82.16 256.29,-74.17 245.86,-76.08 249.33,-82.16"/>
</a>
</g>
</g>
<!-- Node6&#45;&gt;Node4 -->
<g id="edge6_Node000006_Node000004" class="edge">
<title>Node6&#45;&gt;Node4</title>
<g id="a_edge6_Node000006_Node000004"><a xlink:title=" ">
<path fill="none" stroke="#63b8ff" d="M173.22,-54.75C168.79,-47.42 162.34,-36.73 156.88,-27.7"/>
<polygon fill="#63b8ff" stroke="#63b8ff" points="159.85,-25.84 151.69,-19.09 153.86,-29.46 159.85,-25.84"/>
</a>
</g>
</g>
<!-- Node7&#45;&gt;Node4 -->
<g id="edge8_Node000007_Node000004" class="edge">
<title>Node7&#45;&gt;Node4</title>
<g id="a_edge8_Node000007_Node000004"><a xlink:title=" ">
<path fill="none" stroke="#63b8ff" d="M59.21,-54.98C75.71,-46.57 101.2,-33.59 120.38,-23.81"/>
<polygon fill="#63b8ff" stroke="#63b8ff" points="122.17,-26.83 129.49,-19.17 118.99,-20.59 122.17,-26.83"/>
</a>
</g>
</g>
<!-- Node8&#45;&gt;Node4 -->
<g id="edge10_Node000008_Node000004" class="edge">
<title>Node8&#45;&gt;Node4</title>
<g id="a_edge10_Node000008_Node000004"><a xlink:title=" ">
<path fill="none" stroke="#63b8ff" d="M251.42,-54.98C231.13,-46.38 199.54,-32.99 176.33,-23.15"/>
<polygon fill="#63b8ff" stroke="#63b8ff" points="177.52,-19.85 166.95,-19.17 174.79,-26.3 177.52,-19.85"/>
</a>
</g>
</g>
<!-- Node8&#45;&gt;Node5 -->
<g id="edge12_Node000008_Node000005" class="edge">
<title>Node8&#45;&gt;Node5</title>
<g id="a_edge12_Node000008_Node000005"><a xlink:title=" ">
<path fill="none" stroke="#63b8ff" d="M282.1,-54.98C291.96,-47.07 306.85,-35.11 318.72,-25.58"/>
<polygon fill="#63b8ff" stroke="#63b8ff" points="321.1,-28.16 326.7,-19.17 316.71,-22.7 321.1,-28.16"/>
</a>
</g>
</g>
<!-- Node9 -->
<g id="Node000009" class="node">
<title>Node9</title>
<g id="a_Node000009"><a xlink:title=" ">
<polygon fill="#e0e0e0" stroke="#999999" points="288,-19 235,-19 235,0 288,0 288,-19"/>
<text text-anchor="middle" x="261.5" y="-7" font-family="Helvetica,sans-Serif" font-size="10.00">stdlib.h</text>
</a>
</g>
</g>
<!-- Node8&#45;&gt;Node9 -->
<g id="edge11_Node000008_Node000009" class="edge">
<title>Node8&#45;&gt;Node9</title>
<g id="a_edge11_Node000008_Node000009"><a xlink:title=" ">
<path fill="none" stroke="#63b8ff" d="M269.85,-54.75C268.54,-47.8 266.66,-37.85 265.02,-29.13"/>
<polygon fill="#63b8ff" stroke="#63b8ff" points="268.41,-28.27 263.12,-19.09 261.54,-29.56 268.41,-28.27"/>
</a>
</g>
</g>
<!-- Node10&#45;&gt;Node3 -->
<g id="edge14_Node000010_Node000003" class="edge">
<title>Node10&#45;&gt;Node3</title>
<g id="a_edge14_Node000010_Node000003"><a xlink:title=" ">
<path fill="none" stroke="#63b8ff" d="M244.81,-164.98C232.67,-156.84 214.14,-144.41 199.75,-134.76"/>
<polygon fill="#63b8ff" stroke="#63b8ff" points="201.68,-131.84 191.42,-129.17 197.78,-137.65 201.68,-131.84"/>
</a>
</g>
</g>
<!-- Node11 -->
<g id="Node000011" class="node">
<title>Node11</title>
<g id="a_Node000011"><a xlink:href="no__os__thermocouple_8h.html" target="_top" xlink:title="Header file of thermocouple temperature conversion routines.">
<polygon fill="white" stroke="#666666" points="446,-129 319,-129 319,-110 446,-110 446,-129"/>
<text text-anchor="middle" x="382.5" y="-117" font-family="Helvetica,sans-Serif" font-size="10.00">no_os_thermocouple.h</text>
</a>
</g>
</g>
<!-- Node10&#45;&gt;Node11 -->
<g id="edge15_Node000010_Node000011" class="edge">
<title>Node10&#45;&gt;Node11</title>
<g id="a_edge15_Node000010_Node000011"><a xlink:title=" ">
<path fill="none" stroke="#63b8ff" d="M277.58,-164.98C297.87,-156.38 329.46,-142.99 352.67,-133.15"/>
<polygon fill="#63b8ff" stroke="#63b8ff" points="354.21,-136.3 362.05,-129.17 351.48,-129.85 354.21,-136.3"/>
</a>
</g>
</g>
<!-- Node12 -->
<g id="Node000012" class="node">
<title>Node12</title>
<g id="a_Node000012"><a xlink:href="no__os__rtd_8h.html" target="_top" xlink:title="Header file of RTD temperature conversion routines.">
<polygon fill="white" stroke="#666666" points="301,-129 228,-129 228,-110 301,-110 301,-129"/>
<text text-anchor="middle" x="264.5" y="-117" font-family="Helvetica,sans-Serif" font-size="10.00">no_os_rtd.h</text>
</a>
</g>
</g>
<!-- Node10&#45;&gt;Node12 -->
<g id="edge16_Node000010_Node000012" class="edge">
<title>Node10&#45;&gt;Node12</title>
<g id="a_edge16_Node000010_Node000012"><a xlink:title=" ">
<path fill="none" stroke="#63b8ff" d="M258.66,-164.75C259.57,-157.8 260.89,-147.85 262.04,-139.13"/>
<polygon fill="#63b8ff" stroke="#63b8ff" points="265.53,-139.46 263.37,-129.09 258.59,-138.54 265.53,-139.46"/>
</a>
</g>
</g>
</g>
</svg>
</svg>

<style type='text/css'>
<![CDATA[
[data-mouse-over-selected='false'] { opacity: 0.7; }
[data-mouse-over-selected='true']  { opacity: 1.0; }
]]>
</style>
<script type="application/ecmascript"><![CDATA[
document.addEventListener('DOMContentLoaded', (event) => {
  highlightEdges();
  highlightAdjacentNodes();
});
]]></script>
</svg>
