<?xml version="1.0" encoding="UTF-8" standalone="no"?>
<!DOCTYPE svg PUBLIC "-//W3C//DTD SVG 1.1//EN"
 "http://www.w3.org/Graphics/SVG/1.1/DTD/svg11.dtd">
<!-- Generated by graphviz version 2.43.0 (0)
 -->
<!-- Title: flash_storage_is_initialized Pages: 1 -->
<svg width="847pt" height="101pt"
 viewBox="0.00 0.00 847.00 101.00" xmlns="http://www.w3.org/2000/svg" xmlns:xlink="http://www.w3.org/1999/xlink">
<g id="graph0" class="graph" transform="scale(1 1) rotate(0) translate(4 97)">
<title>flash_storage_is_initialized</title>
<!-- Node1 -->
<g id="Node000001" class="node">
<title>Node1</title>
<g id="a_Node000001"><a xlink:title="Check if flash storage is initialized.">
<polygon fill="#999999" stroke="#666666" points="839,-56 690,-56 690,-37 839,-37 839,-56"/>
<text text-anchor="middle" x="764.5" y="-44" font-family="Helvetica,sans-Serif" font-size="10.00">flash_storage_is_initialized</text>
</a>
</g>
</g>
<!-- Node2 -->
<g id="Node000002" class="node">
<title>Node2</title>
<g id="a_Node000002"><a xlink:href="pqlib__example_8c.html#a85c5a643a924d82ab67e0c474d69a8b2" target="_top" xlink:title="Configures AFE and the library . This serves as an example on how to call APIs adi_pqlib_SetConfig an...">
<polygon fill="white" stroke="#666666" points="654,-93 535,-93 535,-74 654,-74 654,-93"/>
<text text-anchor="middle" x="594.5" y="-81" font-family="Helvetica,sans-Serif" font-size="10.00">config_measurement</text>
</a>
</g>
</g>
<!-- Node1&#45;&gt;Node2 -->
<g id="edge1_Node000001_Node000002" class="edge">
<title>Node1&#45;&gt;Node2</title>
<g id="a_edge1_Node000001_Node000002"><a xlink:title=" ">
<path fill="none" stroke="#63b8ff" d="M710.28,-58.22C687.28,-63.29 660.7,-69.14 638.91,-73.94"/>
<polygon fill="#63b8ff" stroke="#63b8ff" points="711.22,-61.6 720.24,-56.03 709.72,-54.76 711.22,-61.6"/>
</a>
</g>
</g>
<!-- Node7 -->
<g id="Node000007" class="node">
<title>Node7</title>
<g id="a_Node000007"><a xlink:href="iio__pqm_8c.html#a7579bb84d6998edfe7203f244b85ba6b" target="_top" xlink:title="Read a pqm device attribute.">
<polygon fill="white" stroke="#666666" points="638.5,-56 550.5,-56 550.5,-37 638.5,-37 638.5,-56"/>
<text text-anchor="middle" x="594.5" y="-44" font-family="Helvetica,sans-Serif" font-size="10.00">read_pqm_attr</text>
</a>
</g>
</g>
<!-- Node1&#45;&gt;Node7 -->
<g id="edge7_Node000001_Node000007" class="edge">
<title>Node1&#45;&gt;Node7</title>
<g id="a_edge7_Node000001_Node000007"><a xlink:title=" ">
<path fill="none" stroke="#63b8ff" d="M679.54,-46.5C665.4,-46.5 651.25,-46.5 638.71,-46.5"/>
<polygon fill="#63b8ff" stroke="#63b8ff" points="679.81,-50 689.81,-46.5 679.81,-43 679.81,-50"/>
</a>
</g>
</g>
<!-- Node8 -->
<g id="Node000008" class="node">
<title>Node8</title>
<g id="a_Node000008"><a xlink:href="iio__pqm_8c.html#a5049c1a1897c0c058c807dd7bdbd8a24" target="_top" xlink:title="Write a pqm device attribute.">
<polygon fill="white" stroke="#666666" points="640,-19 549,-19 549,0 640,0 640,-19"/>
<text text-anchor="middle" x="594.5" y="-7" font-family="Helvetica,sans-Serif" font-size="10.00">write_pqm_attr</text>
</a>
</g>
</g>
<!-- Node1&#45;&gt;Node8 -->
<g id="edge8_Node000001_Node000008" class="edge">
<title>Node1&#45;&gt;Node8</title>
<g id="a_edge8_Node000001_Node000008"><a xlink:title=" ">
<path fill="none" stroke="#63b8ff" d="M710.28,-34.78C687.28,-29.71 660.7,-23.86 638.91,-19.06"/>
<polygon fill="#63b8ff" stroke="#63b8ff" points="709.72,-38.24 720.24,-36.97 711.22,-31.4 709.72,-38.24"/>
</a>
</g>
</g>
<!-- Node3 -->
<g id="Node000003" class="node">
<title>Node3</title>
<g id="a_Node000003"><a xlink:href="pqlib__example_8c.html#a66acd6db00e29ea544ea13777674a4ef" target="_top" xlink:title="Starts Power Quality measurement as per configured cycles.">
<polygon fill="white" stroke="#666666" points="499,-93 359,-93 359,-74 499,-74 499,-93"/>
<text text-anchor="middle" x="429" y="-81" font-family="Helvetica,sans-Serif" font-size="10.00">pqm_start_measurement</text>
</a>
</g>
</g>
<!-- Node2&#45;&gt;Node3 -->
<g id="edge2_Node000002_Node000003" class="edge">
<title>Node2&#45;&gt;Node3</title>
<g id="a_edge2_Node000002_Node000003"><a xlink:title=" ">
<path fill="none" stroke="#63b8ff" d="M524.7,-83.5C516.21,-83.5 507.52,-83.5 499.03,-83.5"/>
<polygon fill="#63b8ff" stroke="#63b8ff" points="524.93,-87 534.93,-83.5 524.93,-80 524.93,-87"/>
</a>
</g>
</g>
<!-- Node4 -->
<g id="Node000004" class="node">
<title>Node4</title>
<g id="a_Node000004"><a xlink:href="eval-pqmon_2src_2examples_2basic_2basic__example_8c.html#a1681c88b1933ada9b895fe6c81a8aac6" target="_top" xlink:title="PQM example main execution.">
<polygon fill="white" stroke="#666666" points="195,-93 77,-93 77,-74 195,-74 195,-93"/>
<text text-anchor="middle" x="136" y="-81" font-family="Helvetica,sans-Serif" font-size="10.00">basic_pqm_firmware</text>
</a>
</g>
</g>
<!-- Node3&#45;&gt;Node4 -->
<g id="edge3_Node000003_Node000004" class="edge">
<title>Node3&#45;&gt;Node4</title>
<g id="a_edge3_Node000003_Node000004"><a xlink:title=" ">
<path fill="none" stroke="#63b8ff" d="M348.51,-83.5C299.98,-83.5 239.02,-83.5 195.02,-83.5"/>
<polygon fill="#63b8ff" stroke="#63b8ff" points="348.67,-87 358.67,-83.5 348.67,-80 348.67,-87"/>
</a>
</g>
</g>
<!-- Node6 -->
<g id="Node000006" class="node">
<title>Node6</title>
<g id="a_Node000006"><a xlink:href="pqlib__example_8c.html#adc8d2b871a496114eee015af96680bae" target="_top" xlink:title="One complete cycle for IIO callback function.">
<polygon fill="white" stroke="#666666" points="323,-74 231,-74 231,-55 323,-55 323,-74"/>
<text text-anchor="middle" x="277" y="-62" font-family="Helvetica,sans-Serif" font-size="10.00">pqm_one_cycle</text>
</a>
</g>
</g>
<!-- Node3&#45;&gt;Node6 -->
<g id="edge5_Node000003_Node000006" class="edge">
<title>Node3&#45;&gt;Node6</title>
<g id="a_edge5_Node000003_Node000006"><a xlink:title=" ">
<path fill="none" stroke="#63b8ff" d="M348.74,-73.46C339.92,-72.34 331.17,-71.24 323,-70.2"/>
<polygon fill="#63b8ff" stroke="#63b8ff" points="348.35,-76.94 358.71,-74.72 349.23,-69.99 348.35,-76.94"/>
</a>
</g>
</g>
<!-- Node5 -->
<g id="Node000005" class="node">
<title>Node5</title>
<g id="a_Node000005"><a xlink:href="eval-pqmon_2src_2platform_2maxim_2main_8c.html#ae66f6b31b5ad750f1fe042a706a4e3d4" target="_top" xlink:title="Main function that executes on Maxim platform.">
<polygon fill="white" stroke="#666666" points="41,-93 0,-93 0,-74 41,-74 41,-93"/>
<text text-anchor="middle" x="20.5" y="-81" font-family="Helvetica,sans-Serif" font-size="10.00">main</text>
</a>
</g>
</g>
<!-- Node4&#45;&gt;Node5 -->
<g id="edge4_Node000004_Node000005" class="edge">
<title>Node4&#45;&gt;Node5</title>
<g id="a_edge4_Node000004_Node000005"><a xlink:title=" ">
<path fill="none" stroke="#63b8ff" d="M66.73,-83.5C57.45,-83.5 48.6,-83.5 41.23,-83.5"/>
<polygon fill="#63b8ff" stroke="#63b8ff" points="66.92,-87 76.92,-83.5 66.92,-80 66.92,-87"/>
</a>
</g>
</g>
<!-- Node6&#45;&gt;Node4 -->
<g id="edge6_Node000006_Node000004" class="edge">
<title>Node6&#45;&gt;Node4</title>
<g id="a_edge6_Node000006_Node000004"><a xlink:title=" ">
<path fill="none" stroke="#63b8ff" d="M220.76,-72.05C212.31,-73.21 203.58,-74.4 195.08,-75.56"/>
<polygon fill="#63b8ff" stroke="#63b8ff" points="221.44,-75.49 230.87,-70.67 220.49,-68.56 221.44,-75.49"/>
</a>
</g>
</g>
</g>
</svg>
