<?xml version="1.0" encoding="UTF-8" standalone="no"?>
<!DOCTYPE svg PUBLIC "-//W3C//DTD SVG 1.1//EN"
 "http://www.w3.org/Graphics/SVG/1.1/DTD/svg11.dtd">
<!-- Generated by graphviz version 2.43.0 (0)
 -->
<!-- Title: no_os_uart_init Pages: 1 -->
<svg width="511pt" height="631pt"
 viewBox="0.00 0.00 511.00 631.00" xmlns="http://www.w3.org/2000/svg" xmlns:xlink="http://www.w3.org/1999/xlink">
<g id="graph0" class="graph" transform="scale(1 1) rotate(0) translate(4 627)">
<title>no_os_uart_init</title>
<!-- Node1 -->
<g id="Node000001" class="node">
<title>Node1</title>
<g id="a_Node000001"><a xlink:title="Initialize the UART communication peripheral.">
<polygon fill="#999999" stroke="#666666" points="503,-327 412,-327 412,-308 503,-308 503,-327"/>
<text text-anchor="middle" x="457.5" y="-315" font-family="Helvetica,sans-Serif" font-size="10.00">no_os_uart_init</text>
</a>
</g>
</g>
<!-- Node2 -->
<g id="Node000002" class="node">
<title>Node2</title>
<g id="a_Node000002"><a xlink:href="ades1754_8c.html#a8d3cb097da679fab95e936f8b2cb626f" target="_top" xlink:title="ADES1754 device intialization function.">
<polygon fill="white" stroke="#666666" points="331.5,-623 246.5,-623 246.5,-604 331.5,-604 331.5,-623"/>
<text text-anchor="middle" x="289" y="-611" font-family="Helvetica,sans-Serif" font-size="10.00">ades1754_init</text>
</a>
</g>
</g>
<!-- Node1&#45;&gt;Node2 -->
<g id="edge1_Node000001_Node000002" class="edge">
<title>Node1&#45;&gt;Node2</title>
<g id="a_edge1_Node000001_Node000002"><a xlink:title=" ">
<path fill="none" stroke="#63b8ff" d="M457.17,-337.17C457.77,-388.1 451.88,-525.15 376,-595.5 364.14,-606.49 347.36,-611.47 331.76,-613.53"/>
<polygon fill="#63b8ff" stroke="#63b8ff" points="460.67,-337.08 456.95,-327.16 453.67,-337.24 460.67,-337.08"/>
</a>
</g>
</g>
<!-- Node4 -->
<g id="Node000004" class="node">
<title>Node4</title>
<g id="a_Node000004"><a xlink:href="adin1110__standalone__example_8c.html#acbf661085a642e031f672cda6c6da4fe" target="_top" xlink:title="Configure the ADIN1110 and read the device ID.">
<polygon fill="white" stroke="#666666" points="349.5,-178.5 228.5,-178.5 228.5,-148.5 349.5,-148.5 349.5,-178.5"/>
<text text-anchor="start" x="236.5" y="-166.5" font-family="Helvetica,sans-Serif" font-size="10.00">adin1110_standalone</text>
<text text-anchor="middle" x="289" y="-155.5" font-family="Helvetica,sans-Serif" font-size="10.00">_example_main</text>
</a>
</g>
</g>
<!-- Node1&#45;&gt;Node4 -->
<g id="edge3_Node000001_Node000004" class="edge">
<title>Node1&#45;&gt;Node4</title>
<g id="a_edge3_Node000001_Node000004"><a xlink:title=" ">
<path fill="none" stroke="#63b8ff" d="M449.61,-298.15C438.54,-269.82 414.08,-217.32 376,-188.5 368.19,-182.59 359.01,-178.07 349.62,-174.62"/>
<polygon fill="#63b8ff" stroke="#63b8ff" points="446.41,-299.58 453.2,-307.72 452.97,-297.13 446.41,-299.58"/>
</a>
</g>
</g>
<!-- Node6 -->
<g id="Node000006" class="node">
<title>Node6</title>
<g id="a_Node000006"><a xlink:href="apard32690_2src_2examples_2basic__example_2basic__example_8c.html#a72943dc9011d36293cb05ca5d7cb6899" target="_top" xlink:title="Basic example main execution.">
<polygon fill="white" stroke="#666666" points="349,-549 229,-549 229,-530 349,-530 349,-549"/>
<text text-anchor="middle" x="289" y="-537" font-family="Helvetica,sans-Serif" font-size="10.00">basic_example_main</text>
</a>
</g>
</g>
<!-- Node1&#45;&gt;Node6 -->
<g id="edge5_Node000001_Node000006" class="edge">
<title>Node1&#45;&gt;Node6</title>
<g id="a_edge5_Node000001_Node000006"><a xlink:title=" ">
<path fill="none" stroke="#63b8ff" d="M454.81,-337.03C450.17,-377.99 433.46,-473.04 376,-521.5 368.3,-527.99 358.86,-532.33 349.08,-535.2"/>
<polygon fill="#63b8ff" stroke="#63b8ff" points="458.3,-337.3 455.82,-327 451.34,-336.6 458.3,-337.3"/>
</a>
</g>
</g>
<!-- Node7 -->
<g id="Node000007" class="node">
<title>Node7</title>
<g id="a_Node000007"><a xlink:href="hello__world_2src_2examples_2basic__example_2basic__example_8c.html#ac5f0064cb4ac7ddab3ec02b10217b456" target="_top" xlink:title="Hello World application entry point.">
<polygon fill="white" stroke="#666666" points="349,-512 229,-512 229,-493 349,-493 349,-512"/>
<text text-anchor="middle" x="289" y="-500" font-family="Helvetica,sans-Serif" font-size="10.00">basic_example_main</text>
</a>
</g>
</g>
<!-- Node1&#45;&gt;Node7 -->
<g id="edge6_Node000001_Node000007" class="edge">
<title>Node1&#45;&gt;Node7</title>
<g id="a_edge6_Node000001_Node000007"><a xlink:title=" ">
<path fill="none" stroke="#63b8ff" d="M452.86,-337.34C445.26,-372.77 424.26,-446.74 376,-484.5 368.19,-490.61 358.8,-494.78 349.14,-497.6"/>
<polygon fill="#63b8ff" stroke="#63b8ff" points="456.34,-337.78 454.87,-327.29 449.48,-336.41 456.34,-337.78"/>
</a>
</g>
</g>
<!-- Node8 -->
<g id="Node000008" class="node">
<title>Node8</title>
<g id="a_Node000008"><a xlink:href="eval-pqmon_2src_2examples_2basic_2basic__example_8c.html#a1681c88b1933ada9b895fe6c81a8aac6" target="_top" xlink:title="PQM example main execution.">
<polygon fill="white" stroke="#666666" points="348,-586 230,-586 230,-567 348,-567 348,-586"/>
<text text-anchor="middle" x="289" y="-574" font-family="Helvetica,sans-Serif" font-size="10.00">basic_pqm_firmware</text>
</a>
</g>
</g>
<!-- Node1&#45;&gt;Node8 -->
<g id="edge7_Node000001_Node000008" class="edge">
<title>Node1&#45;&gt;Node8</title>
<g id="a_edge7_Node000001_Node000008"><a xlink:title=" ">
<path fill="none" stroke="#63b8ff" d="M456.15,-337.31C454.19,-383.58 442.52,-499.28 376,-558.5 368.14,-565.5 358.27,-570.03 348.04,-572.92"/>
<polygon fill="#63b8ff" stroke="#63b8ff" points="459.65,-337.23 456.46,-327.12 452.65,-337.01 459.65,-337.23"/>
</a>
</g>
</g>
<!-- Node10 -->
<g id="Node000010" class="node">
<title>Node10</title>
<g id="a_Node000010"><a xlink:href="cmd_8c.html#a87f501fc90d5f0f69db7b44288b9a1c8" target="_top" xlink:title=" ">
<polygon fill="white" stroke="#666666" points="321.5,-475 256.5,-475 256.5,-456 321.5,-456 321.5,-475"/>
<text text-anchor="middle" x="289" y="-463" font-family="Helvetica,sans-Serif" font-size="10.00">board_init</text>
</a>
</g>
</g>
<!-- Node1&#45;&gt;Node10 -->
<g id="edge9_Node000001_Node000010" class="edge">
<title>Node1&#45;&gt;Node10</title>
<g id="a_edge9_Node000001_Node000010"><a xlink:title=" ">
<path fill="none" stroke="#63b8ff" d="M450.09,-336.96C439.5,-365.89 415.51,-419.8 376,-447.5 360.26,-458.53 339.18,-463.06 321.83,-464.82"/>
<polygon fill="#63b8ff" stroke="#63b8ff" points="453.5,-337.8 453.49,-327.2 446.89,-335.49 453.5,-337.8"/>
</a>
</g>
</g>
<!-- Node12 -->
<g id="Node000012" class="node">
<title>Node12</title>
<g id="a_Node000012"><a xlink:href="example_8c.html#ae07d385c874c8d1052f87a687369ffad" target="_top" xlink:title="Configure the UART.">
<polygon fill="white" stroke="#666666" points="332,-438 246,-438 246,-419 332,-419 332,-438"/>
<text text-anchor="middle" x="289" y="-426" font-family="Helvetica,sans-Serif" font-size="10.00">configure_uart</text>
</a>
</g>
</g>
<!-- Node1&#45;&gt;Node12 -->
<g id="edge11_Node000001_Node000012" class="edge">
<title>Node1&#45;&gt;Node12</title>
<g id="a_edge11_Node000001_Node000012"><a xlink:title=" ">
<path fill="none" stroke="#63b8ff" d="M445.73,-336.04C432.25,-357.49 407.12,-392.19 376,-410.5 362.85,-418.24 346.85,-422.67 332.24,-425.21"/>
<polygon fill="#63b8ff" stroke="#63b8ff" points="448.88,-337.59 451.08,-327.23 442.9,-333.96 448.88,-337.59"/>
</a>
</g>
</g>
<!-- Node16 -->
<g id="Node000016" class="node">
<title>Node16</title>
<g id="a_Node000016"><a xlink:href="curvetrace__example_8c.html#aa8c97b178f1ed4023a2fa5c0217a52c9" target="_top" xlink:title=" ">
<polygon fill="white" stroke="#666666" points="347,-364 231,-364 231,-345 347,-345 347,-364"/>
<text text-anchor="middle" x="289" y="-352" font-family="Helvetica,sans-Serif" font-size="10.00">curvetrace_example</text>
</a>
</g>
</g>
<!-- Node1&#45;&gt;Node16 -->
<g id="edge15_Node000001_Node000016" class="edge">
<title>Node1&#45;&gt;Node16</title>
<g id="a_edge15_Node000001_Node000016"><a xlink:title=" ">
<path fill="none" stroke="#63b8ff" d="M406.84,-329.43C396.65,-331.82 385.99,-334.28 376,-336.5 363.34,-339.32 349.61,-342.25 336.91,-344.91"/>
<polygon fill="#63b8ff" stroke="#63b8ff" points="407.9,-332.78 416.83,-327.07 406.29,-325.96 407.9,-332.78"/>
</a>
</g>
</g>
<!-- Node17 -->
<g id="Node000017" class="node">
<title>Node17</title>
<g id="a_Node000017"><a xlink:href="esh__example_8c.html#ad05dbea90848469c4a5f6555c04452bd" target="_top" xlink:title="Basic example main execution.">
<polygon fill="white" stroke="#666666" points="345,-327 233,-327 233,-308 345,-308 345,-327"/>
<text text-anchor="middle" x="289" y="-315" font-family="Helvetica,sans-Serif" font-size="10.00">esh_example_main</text>
</a>
</g>
</g>
<!-- Node1&#45;&gt;Node17 -->
<g id="edge16_Node000001_Node000017" class="edge">
<title>Node1&#45;&gt;Node17</title>
<g id="a_edge16_Node000001_Node000017"><a xlink:title=" ">
<path fill="none" stroke="#63b8ff" d="M401.74,-317.5C383.58,-317.5 363.35,-317.5 345.16,-317.5"/>
<polygon fill="#63b8ff" stroke="#63b8ff" points="401.88,-321 411.88,-317.5 401.88,-314 401.88,-321"/>
</a>
</g>
</g>
<!-- Node18 -->
<g id="Node000018" class="node">
<title>Node18</title>
<g id="a_Node000018"><a xlink:href="basic__i3c__example_8c.html#ac25cbf8ae523e89cb0617e68c98bc697" target="_top" xlink:title="Basic example main execution for I3C variant. Loops through two states:">
<polygon fill="white" stroke="#666666" points="333.5,-290 244.5,-290 244.5,-271 333.5,-271 333.5,-290"/>
<text text-anchor="middle" x="289" y="-278" font-family="Helvetica,sans-Serif" font-size="10.00">example_main</text>
</a>
</g>
</g>
<!-- Node1&#45;&gt;Node18 -->
<g id="edge18_Node000001_Node000018" class="edge">
<title>Node1&#45;&gt;Node18</title>
<g id="a_edge18_Node000001_Node000018"><a xlink:title=" ">
<path fill="none" stroke="#63b8ff" d="M403.95,-305.73C394.64,-303.65 385.03,-301.51 376,-299.5 362.12,-296.41 346.97,-293.06 333.31,-290.05"/>
<polygon fill="#63b8ff" stroke="#63b8ff" points="403.37,-309.19 413.89,-307.95 404.9,-302.35 403.37,-309.19"/>
</a>
</g>
</g>
<!-- Node19 -->
<g id="Node000019" class="node">
<title>Node19</title>
<g id="a_Node000019"><a xlink:href="eval-adg1736_2src_2examples_2basic_2basic__example_8c.html#a423407bf3827741dfe2f6e0def8ba0c3" target="_top" xlink:title="Basic example main executiont.">
<polygon fill="white" stroke="#666666" points="333.5,-253 244.5,-253 244.5,-234 333.5,-234 333.5,-253"/>
<text text-anchor="middle" x="289" y="-241" font-family="Helvetica,sans-Serif" font-size="10.00">example_main</text>
</a>
</g>
</g>
<!-- Node1&#45;&gt;Node19 -->
<g id="edge19_Node000001_Node000019" class="edge">
<title>Node1&#45;&gt;Node19</title>
<g id="a_edge19_Node000001_Node000019"><a xlink:title=" ">
<path fill="none" stroke="#63b8ff" d="M437.77,-301.62C422.2,-289.2 398.94,-272.43 376,-262.5 362.81,-256.79 347.71,-252.71 333.88,-249.84"/>
<polygon fill="#63b8ff" stroke="#63b8ff" points="435.63,-304.38 445.59,-308 440.06,-298.96 435.63,-304.38"/>
</a>
</g>
</g>
<!-- Node20 -->
<g id="Node000020" class="node">
<title>Node20</title>
<g id="a_Node000020"><a xlink:href="nmea__ubx_8c.html#a88aa1624acfdf3fe74e864aaabe97b92" target="_top" xlink:title="Initialize the GNSS device and configure communication.">
<polygon fill="white" stroke="#666666" points="319,-216 259,-216 259,-197 319,-197 319,-216"/>
<text text-anchor="middle" x="289" y="-204" font-family="Helvetica,sans-Serif" font-size="10.00">gnss_init</text>
</a>
</g>
</g>
<!-- Node1&#45;&gt;Node20 -->
<g id="edge20_Node000001_Node000020" class="edge">
<title>Node1&#45;&gt;Node20</title>
<g id="a_edge20_Node000001_Node000020"><a xlink:title=" ">
<path fill="none" stroke="#63b8ff" d="M445.64,-299.22C432.09,-278.06 406.88,-243.79 376,-225.5 358.77,-215.29 336.65,-210.56 319.16,-208.37"/>
<polygon fill="#63b8ff" stroke="#63b8ff" points="442.79,-301.25 451.03,-307.91 448.74,-297.57 442.79,-301.25"/>
</a>
</g>
</g>
<!-- Node21 -->
<g id="Node000021" class="node">
<title>Node21</title>
<g id="a_Node000021"><a xlink:href="demo__esp_2src_2examples_2basic_2basic__example_8c.html#adf61ab6fc732b20dc9f8a4be75985c1a" target="_top" xlink:title=" ">
<polygon fill="white" stroke="#666666" points="350,-19 228,-19 228,0 350,0 350,-19"/>
<text text-anchor="middle" x="289" y="-7" font-family="Helvetica,sans-Serif" font-size="10.00">init_and_connect_wifi</text>
</a>
</g>
</g>
<!-- Node1&#45;&gt;Node21 -->
<g id="edge21_Node000001_Node000021" class="edge">
<title>Node1&#45;&gt;Node21</title>
<g id="a_edge21_Node000001_Node000021"><a xlink:title=" ">
<path fill="none" stroke="#63b8ff" d="M453.69,-297.61C444.93,-238.43 416.29,-65.28 376,-27.5 368.77,-20.72 359.66,-16.22 350.1,-13.28"/>
<polygon fill="#63b8ff" stroke="#63b8ff" points="450.28,-298.45 455.17,-307.85 457.2,-297.45 450.28,-298.45"/>
</a>
</g>
</g>
<!-- Node23 -->
<g id="Node000023" class="node">
<title>Node23</title>
<g id="a_Node000023"><a xlink:href="ad-acevsecrdset-sl_2src_2main_8c.html#ae66f6b31b5ad750f1fe042a706a4e3d4" target="_top" xlink:title="Main function execution for Maxim platform.">
<polygon fill="white" stroke="#666666" points="309.5,-130 268.5,-130 268.5,-111 309.5,-111 309.5,-130"/>
<text text-anchor="middle" x="289" y="-118" font-family="Helvetica,sans-Serif" font-size="10.00">main</text>
</a>
</g>
</g>
<!-- Node1&#45;&gt;Node23 -->
<g id="edge23_Node000001_Node000023" class="edge">
<title>Node1&#45;&gt;Node23</title>
<g id="a_edge23_Node000001_Node000023"><a xlink:title=" ">
<path fill="none" stroke="#63b8ff" d="M453.51,-297.98C446.78,-261 426.83,-180.76 376,-139.5 357.12,-124.18 328.52,-120.56 309.55,-120.02"/>
<polygon fill="#63b8ff" stroke="#63b8ff" points="450.08,-298.7 455.2,-307.97 456.99,-297.53 450.08,-298.7"/>
</a>
</g>
</g>
<!-- Node24 -->
<g id="Node000024" class="node">
<title>Node24</title>
<g id="a_Node000024"><a xlink:href="aducm3029__flash__demo_2src_2main_8c.html#a0ddf1224851353fc92bfbff6f499fa97" target="_top" xlink:title="main">
<polygon fill="white" stroke="#666666" points="309.5,-93 268.5,-93 268.5,-74 309.5,-74 309.5,-93"/>
<text text-anchor="middle" x="289" y="-81" font-family="Helvetica,sans-Serif" font-size="10.00">main</text>
</a>
</g>
</g>
<!-- Node1&#45;&gt;Node24 -->
<g id="edge24_Node000001_Node000024" class="edge">
<title>Node1&#45;&gt;Node24</title>
<g id="a_edge24_Node000001_Node000024"><a xlink:title=" ">
<path fill="none" stroke="#63b8ff" d="M455.2,-297.86C451.28,-255.34 435.82,-154.44 376,-102.5 357.64,-86.56 328.91,-83.09 309.78,-82.75"/>
<polygon fill="#63b8ff" stroke="#63b8ff" points="451.72,-298.31 456.01,-308 458.7,-297.75 451.72,-298.31"/>
</a>
</g>
</g>
<!-- Node25 -->
<g id="Node000025" class="node">
<title>Node25</title>
<g id="a_Node000025"><a xlink:href="cn0565_2src_2app_2main_8c.html#a840291bc02cba5474a4cb46a9b9566fe" target="_top" xlink:title=" ">
<polygon fill="white" stroke="#666666" points="309.5,-56 268.5,-56 268.5,-37 309.5,-37 309.5,-56"/>
<text text-anchor="middle" x="289" y="-44" font-family="Helvetica,sans-Serif" font-size="10.00">main</text>
</a>
</g>
</g>
<!-- Node1&#45;&gt;Node25 -->
<g id="edge25_Node000001_Node000025" class="edge">
<title>Node1&#45;&gt;Node25</title>
<g id="a_edge25_Node000001_Node000025"><a xlink:title=" ">
<path fill="none" stroke="#63b8ff" d="M456.44,-297.82C455.16,-250.26 444.96,-128.41 376,-65.5 357.93,-49.01 328.85,-45.71 309.59,-45.56"/>
<polygon fill="#63b8ff" stroke="#63b8ff" points="452.94,-298.05 456.6,-307.99 459.94,-297.94 452.94,-298.05"/>
</a>
</g>
</g>
<!-- Node26 -->
<g id="Node000026" class="node">
<title>Node26</title>
<g id="a_Node000026"><a xlink:href="tcp__echo__server__example_8c.html#a71a933205bd5c61d181123850b2c6e9b" target="_top" xlink:title="TCP echo example main execution.">
<polygon fill="white" stroke="#666666" points="376,-401 202,-401 202,-382 376,-382 376,-401"/>
<text text-anchor="middle" x="289" y="-389" font-family="Helvetica,sans-Serif" font-size="10.00">tcp_echo_server_example_main</text>
</a>
</g>
</g>
<!-- Node1&#45;&gt;Node26 -->
<g id="edge26_Node000001_Node000026" class="edge">
<title>Node1&#45;&gt;Node26</title>
<g id="a_edge26_Node000001_Node000026"><a xlink:title=" ">
<path fill="none" stroke="#63b8ff" d="M438.12,-333.54C422.59,-346.25 399.22,-363.49 376,-373.5 368.16,-376.88 359.63,-379.65 351.09,-381.9"/>
<polygon fill="#63b8ff" stroke="#63b8ff" points="440.48,-336.12 445.89,-327.01 435.98,-330.76 440.48,-336.12"/>
</a>
</g>
</g>
<!-- Node3 -->
<g id="Node000003" class="node">
<title>Node3</title>
<g id="a_Node000003"><a xlink:href="spi__uart__bridge__example_8c.html#ac25cbf8ae523e89cb0617e68c98bc697" target="_top" xlink:title="SPI&#45;to&#45;UART example main execution.">
<polygon fill="white" stroke="#666666" points="166,-623 77,-623 77,-604 166,-604 166,-623"/>
<text text-anchor="middle" x="121.5" y="-611" font-family="Helvetica,sans-Serif" font-size="10.00">example_main</text>
</a>
</g>
</g>
<!-- Node2&#45;&gt;Node3 -->
<g id="edge2_Node000002_Node000003" class="edge">
<title>Node2&#45;&gt;Node3</title>
<g id="a_edge2_Node000002_Node000003"><a xlink:title=" ">
<path fill="none" stroke="#63b8ff" d="M236.2,-613.5C213.75,-613.5 187.74,-613.5 166.27,-613.5"/>
<polygon fill="#63b8ff" stroke="#63b8ff" points="236.24,-617 246.24,-613.5 236.24,-610 236.24,-617"/>
</a>
</g>
</g>
<!-- Node5 -->
<g id="Node000005" class="node">
<title>Node5</title>
<g id="a_Node000005"><a xlink:href="apard32690_2src_2examples_2main_8c.html#ae66f6b31b5ad750f1fe042a706a4e3d4" target="_top" xlink:title="Main function execution.">
<polygon fill="white" stroke="#666666" points="142,-327 101,-327 101,-308 142,-308 142,-327"/>
<text text-anchor="middle" x="121.5" y="-315" font-family="Helvetica,sans-Serif" font-size="10.00">main</text>
</a>
</g>
</g>
<!-- Node4&#45;&gt;Node5 -->
<g id="edge4_Node000004_Node000005" class="edge">
<title>Node4&#45;&gt;Node5</title>
<g id="a_edge4_Node000004_Node000005"><a xlink:title=" ">
<path fill="none" stroke="#63b8ff" d="M218.79,-178.54C212.82,-181.32 207.11,-184.61 202,-188.5 159.3,-221.01 134.17,-283.62 125.72,-307.72"/>
<polygon fill="#63b8ff" stroke="#63b8ff" points="220.45,-181.64 228.35,-174.59 217.77,-175.18 220.45,-181.64"/>
</a>
</g>
</g>
<!-- Node9 -->
<g id="Node000009" class="node">
<title>Node9</title>
<g id="a_Node000009"><a xlink:href="eval-pqmon_2src_2platform_2maxim_2main_8c.html#ae66f6b31b5ad750f1fe042a706a4e3d4" target="_top" xlink:title="Main function that executes on Maxim platform.">
<polygon fill="white" stroke="#666666" points="142,-586 101,-586 101,-567 142,-567 142,-586"/>
<text text-anchor="middle" x="121.5" y="-574" font-family="Helvetica,sans-Serif" font-size="10.00">main</text>
</a>
</g>
</g>
<!-- Node8&#45;&gt;Node9 -->
<g id="edge8_Node000008_Node000009" class="edge">
<title>Node8&#45;&gt;Node9</title>
<g id="a_edge8_Node000008_Node000009"><a xlink:title=" ">
<path fill="none" stroke="#63b8ff" d="M219.48,-576.5C191.55,-576.5 161.39,-576.5 142.24,-576.5"/>
<polygon fill="#63b8ff" stroke="#63b8ff" points="219.65,-580 229.65,-576.5 219.65,-573 219.65,-580"/>
</a>
</g>
</g>
<!-- Node11 -->
<g id="Node000011" class="node">
<title>Node11</title>
<g id="a_Node000011"><a xlink:href="cmd_8c.html#a423407bf3827741dfe2f6e0def8ba0c3" target="_top" xlink:title="Basic example main executiont.">
<polygon fill="white" stroke="#666666" points="166,-475 77,-475 77,-456 166,-456 166,-475"/>
<text text-anchor="middle" x="121.5" y="-463" font-family="Helvetica,sans-Serif" font-size="10.00">example_main</text>
</a>
</g>
</g>
<!-- Node10&#45;&gt;Node11 -->
<g id="edge10_Node000010_Node000011" class="edge">
<title>Node10&#45;&gt;Node11</title>
<g id="a_edge10_Node000010_Node000011"><a xlink:title=" ">
<path fill="none" stroke="#63b8ff" d="M246.41,-465.5C221.9,-465.5 190.94,-465.5 166.09,-465.5"/>
<polygon fill="#63b8ff" stroke="#63b8ff" points="246.48,-469 256.48,-465.5 246.48,-462 246.48,-469"/>
</a>
</g>
</g>
<!-- Node13 -->
<g id="Node000013" class="node">
<title>Node13</title>
<g id="a_Node000013"><a xlink:href="example_8c.html#a423407bf3827741dfe2f6e0def8ba0c3" target="_top" xlink:title="Main function.">
<polygon fill="white" stroke="#666666" points="166,-438 77,-438 77,-419 166,-419 166,-438"/>
<text text-anchor="middle" x="121.5" y="-426" font-family="Helvetica,sans-Serif" font-size="10.00">example_main</text>
</a>
</g>
</g>
<!-- Node12&#45;&gt;Node13 -->
<g id="edge12_Node000012_Node000013" class="edge">
<title>Node12&#45;&gt;Node13</title>
<g id="a_edge12_Node000012_Node000013"><a xlink:title=" ">
<path fill="none" stroke="#63b8ff" d="M235.78,-428.5C213.34,-428.5 187.43,-428.5 166.06,-428.5"/>
<polygon fill="#63b8ff" stroke="#63b8ff" points="235.81,-432 245.81,-428.5 235.81,-425 235.81,-432"/>
</a>
</g>
</g>
<!-- Node14 -->
<g id="Node000014" class="node">
<title>Node14</title>
<g id="a_Node000014"><a xlink:href="ad3552r__fmcz_2src_2platform_2xilinx_2main_8c.html#ae66f6b31b5ad750f1fe042a706a4e3d4" target="_top" xlink:title="Main function execution for xilinx platform.">
<polygon fill="white" stroke="#666666" points="41,-456 0,-456 0,-437 41,-437 41,-456"/>
<text text-anchor="middle" x="20.5" y="-444" font-family="Helvetica,sans-Serif" font-size="10.00">main</text>
</a>
</g>
</g>
<!-- Node13&#45;&gt;Node14 -->
<g id="edge13_Node000013_Node000014" class="edge">
<title>Node13&#45;&gt;Node14</title>
<g id="a_edge13_Node000013_Node000014"><a xlink:title=" ">
<path fill="none" stroke="#63b8ff" d="M66.84,-438.26C57.68,-439.92 48.72,-441.55 41.21,-442.92"/>
<polygon fill="#63b8ff" stroke="#63b8ff" points="67.58,-441.68 76.79,-436.45 66.32,-434.79 67.58,-441.68"/>
</a>
</g>
</g>
<!-- Node15 -->
<g id="Node000015" class="node">
<title>Node15</title>
<g id="a_Node000015"><a xlink:href="adin1320_2src_2platform_2maxim_2main_8c.html#a840291bc02cba5474a4cb46a9b9566fe" target="_top" xlink:title=" ">
<polygon fill="white" stroke="#666666" points="41,-419 0,-419 0,-400 41,-400 41,-419"/>
<text text-anchor="middle" x="20.5" y="-407" font-family="Helvetica,sans-Serif" font-size="10.00">main</text>
</a>
</g>
</g>
<!-- Node13&#45;&gt;Node15 -->
<g id="edge14_Node000013_Node000015" class="edge">
<title>Node13&#45;&gt;Node15</title>
<g id="a_edge14_Node000013_Node000015"><a xlink:title=" ">
<path fill="none" stroke="#63b8ff" d="M66.84,-418.2C57.68,-416.44 48.72,-414.72 41.21,-413.28"/>
<polygon fill="#63b8ff" stroke="#63b8ff" points="66.31,-421.66 76.79,-420.11 67.63,-414.79 66.31,-421.66"/>
</a>
</g>
</g>
<!-- Node17&#45;&gt;Node5 -->
<g id="edge17_Node000017_Node000005" class="edge">
<title>Node17&#45;&gt;Node5</title>
<g id="a_edge17_Node000017_Node000005"><a xlink:title=" ">
<path fill="none" stroke="#63b8ff" d="M222.84,-317.5C194,-317.5 162.18,-317.5 142.26,-317.5"/>
<polygon fill="#63b8ff" stroke="#63b8ff" points="222.89,-321 232.89,-317.5 222.89,-314 222.89,-321"/>
</a>
</g>
</g>
<!-- Node22 -->
<g id="Node000022" class="node">
<title>Node22</title>
<g id="a_Node000022"><a xlink:href="demo__esp_2src_2examples_2basic_2basic__example_8c.html#ac25cbf8ae523e89cb0617e68c98bc697" target="_top" xlink:title="Basic example main execution.">
<polygon fill="white" stroke="#666666" points="166,-19 77,-19 77,0 166,0 166,-19"/>
<text text-anchor="middle" x="121.5" y="-7" font-family="Helvetica,sans-Serif" font-size="10.00">example_main</text>
</a>
</g>
</g>
<!-- Node21&#45;&gt;Node22 -->
<g id="edge22_Node000021_Node000022" class="edge">
<title>Node21&#45;&gt;Node22</title>
<g id="a_edge22_Node000021_Node000022"><a xlink:title=" ">
<path fill="none" stroke="#63b8ff" d="M217.59,-9.5C200.1,-9.5 181.85,-9.5 166.08,-9.5"/>
<polygon fill="#63b8ff" stroke="#63b8ff" points="217.78,-13 227.78,-9.5 217.78,-6 217.78,-13"/>
</a>
</g>
</g>
<!-- Node26&#45;&gt;Node5 -->
<g id="edge27_Node000026_Node000005" class="edge">
<title>Node26&#45;&gt;Node5</title>
<g id="a_edge27_Node000026_Node000005"><a xlink:title=" ">
<path fill="none" stroke="#63b8ff" d="M216.94,-379.05C211.8,-377.42 206.77,-375.57 202,-373.5 174.75,-361.66 147.39,-339.63 132.96,-327.02"/>
<polygon fill="#63b8ff" stroke="#63b8ff" points="216.31,-382.51 226.89,-381.94 218.26,-375.79 216.31,-382.51"/>
</a>
</g>
</g>
</g>
</svg>
