<?xml version="1.0" encoding="UTF-8" standalone="no"?>
<!DOCTYPE svg PUBLIC "-//W3C//DTD SVG 1.1//EN"
 "http://www.w3.org/Graphics/SVG/1.1/DTD/svg11.dtd">
<!-- Generated by graphviz version 2.43.0 (0)
 -->
<!-- Title: drivers/gmsl/common/gmsl_reg_access.h Pages: 1 -->
<!--zoomable 390 -->

<svg id="main" version="1.1" xmlns="http://www.w3.org/2000/svg" xmlns:xlink="http://www.w3.org/1999/xlink" xml:space="preserve" onload="init(evt)">

<style type="text/css"><![CDATA[
.node, .edge {opacity: 0.7;}
.node.selected, .edge.selected {opacity: 1;}
.edge:hover path { stroke: red; }
.edge:hover polygon { stroke: red; fill: red; }
]]></style>

<defs>
  <circle id="rim" cx="0" cy="0" r="7"/>
  <circle id="rim2" cx="0" cy="0" r="3.5"/>
  <g id="zoomPlus">
    <use xlink:href="#rim" fill="#404040"><set attributeName="fill" to="#808080" begin="zoomplus.mouseover" end="zoomplus.mouseout"/></use>
    <path d="M-4,0h8M0,-4v8" fill="none" stroke="white" stroke-width="1.5" pointer-events="none"/>
  </g>
  <g id="zoomMin">
    <use xlink:href="#rim" fill="#404040"><set attributeName="fill" to="#808080" begin="zoomminus.mouseover" end="zoomminus.mouseout"/></use>
    <path d="M-4,0h8" fill="none" stroke="white" stroke-width="1.5" pointer-events="none"/>
  </g>
  <g id="arrowUp" transform="translate(30 24)">
    <use xlink:href="#rim"/>
    <path pointer-events="none" fill="none" stroke="white" stroke-width="1.5" d="M0,-3.0v7 M-2.5,-0.5L0,-3.0L2.5,-0.5"/>
  </g>
  <g id="arrowRight" transform="rotate(90) translate(36 -43)">
    <use xlink:href="#rim"/>
    <path pointer-events="none" fill="none" stroke="white" stroke-width="1.5" d="M0,-3.0v7 M-2.5,-0.5L0,-3.0L2.5,-0.5"/>
  </g>
  <g id="arrowDown" transform="rotate(180) translate(-30 -48)">
    <use xlink:href="#rim"/>
    <path pointer-events="none" fill="none" stroke="white" stroke-width="1.5" d="M0,-3.0v7 M-2.5,-0.5L0,-3.0L2.5,-0.5"/>
  </g>
  <g id="arrowLeft" transform="rotate(270) translate(-36 17)">
    <use xlink:href="#rim"/>
    <path pointer-events="none" fill="none" stroke="white" stroke-width="1.5" d="M0,-3.0v7 M-2.5,-0.5L0,-3.0L2.5,-0.5"/>
  </g>
  <g id="resetDef">
    <use xlink:href="#rim2" fill="#404040"><set attributeName="fill" to="#808080" begin="reset.mouseover" end="reset.mouseout"/></use>
  </g>
</defs>
<script type="application/ecmascript">
var viewWidth = 1249;
var viewHeight = 390;
var sectionId = 'dynsection-1';
</script>
<script type="application/ecmascript" xlink:href="svg.min.js"/>
<svg id="graph" class="graph">
<g id="viewport">
<title>drivers/gmsl/common/gmsl_reg_access.h</title>
<!-- Node1 -->
<g id="Node000001" class="node">
<title>Node1</title>
<g id="a_Node000001"><a xlink:title=" ">
<polygon fill="#999999" stroke="#666666" points="815,-382 692,-382 692,-352 815,-352 815,-382"/>
<text text-anchor="start" x="700" y="-370" font-family="Helvetica,sans-Serif" font-size="10.00">drivers/gmsl/common</text>
<text text-anchor="middle" x="753.5" y="-359" font-family="Helvetica,sans-Serif" font-size="10.00">/gmsl_reg_access.h</text>
</a>
</g>
</g>
<!-- Node2 -->
<g id="Node000002" class="node">
<title>Node2</title>
<g id="a_Node000002"><a xlink:href="gmsl__common_8h.html" target="_top" xlink:title=" ">
<polygon fill="white" stroke="#666666" points="475,-316 352,-316 352,-286 475,-286 475,-316"/>
<text text-anchor="start" x="360" y="-304" font-family="Helvetica,sans-Serif" font-size="10.00">drivers/gmsl/common</text>
<text text-anchor="middle" x="413.5" y="-293" font-family="Helvetica,sans-Serif" font-size="10.00">/gmsl_common.h</text>
</a>
</g>
</g>
<!-- Node1&#45;&gt;Node2 -->
<g id="edge1_Node000001_Node000002" class="edge">
<title>Node1&#45;&gt;Node2</title>
<g id="a_edge1_Node000001_Node000002"><a xlink:title=" ">
<path fill="none" stroke="#63b8ff" d="M681.95,-352.53C620.69,-341 533.41,-324.57 475.19,-313.61"/>
<polygon fill="#63b8ff" stroke="#63b8ff" points="681.45,-356 691.93,-354.41 682.75,-349.12 681.45,-356"/>
</a>
</g>
</g>
<!-- Node6 -->
<g id="Node000006" class="node">
<title>Node6</title>
<g id="a_Node000006"><a xlink:href="max96792__csi_8h.html" target="_top" xlink:title=" ">
<polygon fill="white" stroke="#666666" points="224.5,-101.5 30.5,-101.5 30.5,-71.5 224.5,-71.5 224.5,-101.5"/>
<text text-anchor="start" x="38.5" y="-89.5" font-family="Helvetica,sans-Serif" font-size="10.00">drivers/gmsl/deserializer</text>
<text text-anchor="middle" x="127.5" y="-78.5" font-family="Helvetica,sans-Serif" font-size="10.00">/camera/max96792/max96792_csi.h</text>
</a>
</g>
</g>
<!-- Node1&#45;&gt;Node6 -->
<g id="edge29_Node000001_Node000006" class="edge">
<title>Node1&#45;&gt;Node6</title>
<g id="a_edge29_Node000001_Node000006"><a xlink:title=" ">
<path fill="none" stroke="#63b8ff" d="M681.92,-363.01C599.07,-358.24 459.08,-346.13 342.5,-316 266.83,-296.44 242.64,-296.07 179.5,-250 148.66,-227.49 137.5,-219.9 124.5,-184 114.46,-156.26 119.64,-121.05 123.86,-101.76"/>
<polygon fill="#63b8ff" stroke="#63b8ff" points="681.8,-366.51 691.98,-363.57 682.19,-359.52 681.8,-366.51"/>
</a>
</g>
</g>
<!-- Node8 -->
<g id="Node000008" class="node">
<title>Node8</title>
<g id="a_Node000008"><a xlink:href="max96792__diag_8c.html" target="_top" xlink:title=" ">
<polygon fill="white" stroke="#666666" points="648.5,-30 448.5,-30 448.5,0 648.5,0 648.5,-30"/>
<text text-anchor="start" x="456.5" y="-18" font-family="Helvetica,sans-Serif" font-size="10.00">drivers/gmsl/deserializer</text>
<text text-anchor="middle" x="548.5" y="-7" font-family="Helvetica,sans-Serif" font-size="10.00">/camera/max96792/max96792_diag.c</text>
</a>
</g>
</g>
<!-- Node1&#45;&gt;Node8 -->
<g id="edge30_Node000001_Node000008" class="edge">
<title>Node1&#45;&gt;Node8</title>
<g id="a_edge30_Node000001_Node000008"><a xlink:title=" ">
<path fill="none" stroke="#63b8ff" d="M825.25,-358.68C872.2,-351.94 933.99,-339.29 984.5,-316 1037.78,-291.43 1089.5,-294.67 1089.5,-236 1089.5,-236 1089.5,-236 1089.5,-162.5 1089.5,-118.79 1102.9,-95.34 1070.5,-66 1039.94,-38.33 791.32,-24.78 648.5,-19.23"/>
<polygon fill="#63b8ff" stroke="#63b8ff" points="824.59,-355.24 815.16,-360.07 825.54,-362.17 824.59,-355.24"/>
</a>
</g>
</g>
<!-- Node11 -->
<g id="Node000011" class="node">
<title>Node11</title>
<g id="a_Node000011"><a xlink:href="max96793_8c.html" target="_top" xlink:title=" ">
<polygon fill="white" stroke="#666666" points="837.5,-101.5 663.5,-101.5 663.5,-71.5 837.5,-71.5 837.5,-101.5"/>
<text text-anchor="start" x="671.5" y="-89.5" font-family="Helvetica,sans-Serif" font-size="10.00">drivers/gmsl/serializer</text>
<text text-anchor="middle" x="750.5" y="-78.5" font-family="Helvetica,sans-Serif" font-size="10.00">/camera/max96793/max96793.c</text>
</a>
</g>
</g>
<!-- Node1&#45;&gt;Node11 -->
<g id="edge31_Node000001_Node000011" class="edge">
<title>Node1&#45;&gt;Node11</title>
<g id="a_edge31_Node000001_Node000011"><a xlink:title=" ">
<path fill="none" stroke="#63b8ff" d="M681.95,-351.24C627.8,-335.91 557.04,-306 522.5,-250 503.81,-219.69 539.06,-152.75 549.5,-143 580.18,-114.33 624.33,-100.25 663.44,-93.42"/>
<polygon fill="#63b8ff" stroke="#63b8ff" points="681.29,-354.68 691.85,-353.93 683.12,-347.93 681.29,-354.68"/>
</a>
</g>
</g>
<!-- Node12 -->
<g id="Node000012" class="node">
<title>Node12</title>
<g id="a_Node000012"><a xlink:href="max96793__diag_8c.html" target="_top" xlink:title=" ">
<polygon fill="white" stroke="#666666" points="1061.5,-107 895.5,-107 895.5,-66 1061.5,-66 1061.5,-107"/>
<text text-anchor="start" x="903.5" y="-95" font-family="Helvetica,sans-Serif" font-size="10.00">drivers/gmsl/serializer</text>
<text text-anchor="start" x="903.5" y="-84" font-family="Helvetica,sans-Serif" font-size="10.00">/camera/max96793/max96793</text>
<text text-anchor="middle" x="978.5" y="-73" font-family="Helvetica,sans-Serif" font-size="10.00">_diag.c</text>
</a>
</g>
</g>
<!-- Node1&#45;&gt;Node12 -->
<g id="edge33_Node000001_Node000012" class="edge">
<title>Node1&#45;&gt;Node12</title>
<g id="a_edge33_Node000001_Node000012"><a xlink:title=" ">
<path fill="none" stroke="#63b8ff" d="M825.24,-357.21C889.63,-345.11 980.56,-316.6 1024.5,-250 1054.53,-204.48 1016.64,-139.32 993.67,-107.09"/>
<polygon fill="#63b8ff" stroke="#63b8ff" points="824.37,-353.81 815.14,-359.02 825.6,-360.7 824.37,-353.81"/>
</a>
</g>
</g>
<!-- Node15 -->
<g id="Node000015" class="node">
<title>Node15</title>
<g id="a_Node000015"><a xlink:href="max96793__csi_8c.html" target="_top" xlink:title=" ">
<polygon fill="white" stroke="#666666" points="763,-178.5 570,-178.5 570,-148.5 763,-148.5 763,-178.5"/>
<text text-anchor="start" x="578" y="-166.5" font-family="Helvetica,sans-Serif" font-size="10.00">drivers/gmsl/serializer</text>
<text text-anchor="middle" x="666.5" y="-155.5" font-family="Helvetica,sans-Serif" font-size="10.00">/camera/max96793/max96793_csi.c</text>
</a>
</g>
</g>
<!-- Node1&#45;&gt;Node15 -->
<g id="edge32_Node000001_Node000015" class="edge">
<title>Node1&#45;&gt;Node15</title>
<g id="a_edge32_Node000001_Node000015"><a xlink:title=" ">
<path fill="none" stroke="#63b8ff" d="M755.61,-341.51C757.11,-311.05 755.87,-258.39 734.5,-220 724.72,-202.42 706.94,-188.22 692.02,-178.58"/>
<polygon fill="#63b8ff" stroke="#63b8ff" points="752.11,-341.46 754.97,-351.66 759.1,-341.9 752.11,-341.46"/>
</a>
</g>
</g>
<!-- Node16 -->
<g id="Node000016" class="node">
<title>Node16</title>
<g id="a_Node000016"><a xlink:href="gmsl__reg__access_8c.html" target="_top" xlink:title=" ">
<polygon fill="white" stroke="#666666" points="1241,-316 1118,-316 1118,-286 1241,-286 1241,-316"/>
<text text-anchor="start" x="1126" y="-304" font-family="Helvetica,sans-Serif" font-size="10.00">drivers/gmsl/common</text>
<text text-anchor="middle" x="1179.5" y="-293" font-family="Helvetica,sans-Serif" font-size="10.00">/gmsl_reg_access.c</text>
</a>
</g>
</g>
<!-- Node1&#45;&gt;Node16 -->
<g id="edge28_Node000001_Node000016" class="edge">
<title>Node1&#45;&gt;Node16</title>
<g id="a_edge28_Node000001_Node000016"><a xlink:title=" ">
<path fill="none" stroke="#63b8ff" d="M825.41,-356.59C896.26,-347.11 1007.51,-331.69 1103.5,-316 1108.13,-315.24 1112.92,-314.43 1117.73,-313.59"/>
<polygon fill="#63b8ff" stroke="#63b8ff" points="824.71,-353.15 815.26,-357.94 825.63,-360.09 824.71,-353.15"/>
</a>
</g>
</g>
<!-- Node3 -->
<g id="Node000003" class="node">
<title>Node3</title>
<g id="a_Node000003"><a xlink:href="gmsl__cam__des_8h.html" target="_top" xlink:title=" ">
<polygon fill="white" stroke="#666666" points="437,-250 314,-250 314,-220 437,-220 437,-250"/>
<text text-anchor="start" x="322" y="-238" font-family="Helvetica,sans-Serif" font-size="10.00">drivers/gmsl/common</text>
<text text-anchor="middle" x="375.5" y="-227" font-family="Helvetica,sans-Serif" font-size="10.00">/gmsl_cam_des.h</text>
</a>
</g>
</g>
<!-- Node2&#45;&gt;Node3 -->
<g id="edge2_Node000002_Node000003" class="edge">
<title>Node2&#45;&gt;Node3</title>
<g id="a_edge2_Node000002_Node000003"><a xlink:title=" ">
<path fill="none" stroke="#63b8ff" d="M399.82,-276.96C394.5,-268 388.58,-258.03 383.91,-250.16"/>
<polygon fill="#63b8ff" stroke="#63b8ff" points="396.95,-278.98 405.07,-285.8 402.97,-275.41 396.95,-278.98"/>
</a>
</g>
</g>
<!-- Node5 -->
<g id="Node000005" class="node">
<title>Node5</title>
<g id="a_Node000005"><a xlink:href="max96792_8h.html" target="_top" xlink:title=" ">
<polygon fill="white" stroke="#666666" points="361,-178.5 186,-178.5 186,-148.5 361,-148.5 361,-178.5"/>
<text text-anchor="start" x="194" y="-166.5" font-family="Helvetica,sans-Serif" font-size="10.00">drivers/gmsl/deserializer</text>
<text text-anchor="middle" x="273.5" y="-155.5" font-family="Helvetica,sans-Serif" font-size="10.00">/camera/max96792/max96792.h</text>
</a>
</g>
</g>
<!-- Node2&#45;&gt;Node5 -->
<g id="edge15_Node000002_Node000005" class="edge">
<title>Node2&#45;&gt;Node5</title>
<g id="a_edge15_Node000002_Node000005"><a xlink:title=" ">
<path fill="none" stroke="#63b8ff" d="M352.57,-282.07C335.19,-274.5 317.47,-264.08 304.5,-250 285.78,-229.67 278.17,-197.18 275.22,-178.66"/>
<polygon fill="#63b8ff" stroke="#63b8ff" points="351.58,-285.45 362.16,-285.99 354.23,-278.97 351.58,-285.45"/>
</a>
</g>
</g>
<!-- Node2&#45;&gt;Node6 -->
<g id="edge16_Node000002_Node000006" class="edge">
<title>Node2&#45;&gt;Node6</title>
<g id="a_edge16_Node000002_Node000006"><a xlink:title=" ">
<path fill="none" stroke="#63b8ff" d="M341.93,-289.34C279.25,-276.02 190.95,-246.78 143.5,-184 125.07,-159.62 124.65,-121.81 126.02,-101.52"/>
<polygon fill="#63b8ff" stroke="#63b8ff" points="341.27,-292.78 351.77,-291.35 342.67,-285.92 341.27,-292.78"/>
</a>
</g>
</g>
<!-- Node9 -->
<g id="Node000009" class="node">
<title>Node9</title>
<g id="a_Node000009"><a xlink:href="max96792__diag_8h.html" target="_top" xlink:title=" ">
<polygon fill="white" stroke="#666666" points="566,-101.5 365,-101.5 365,-71.5 566,-71.5 566,-101.5"/>
<text text-anchor="start" x="373" y="-89.5" font-family="Helvetica,sans-Serif" font-size="10.00">drivers/gmsl/deserializer</text>
<text text-anchor="middle" x="465.5" y="-78.5" font-family="Helvetica,sans-Serif" font-size="10.00">/camera/max96792/max96792_diag.h</text>
</a>
</g>
</g>
<!-- Node2&#45;&gt;Node9 -->
<g id="edge17_Node000002_Node000009" class="edge">
<title>Node2&#45;&gt;Node9</title>
<g id="a_edge17_Node000002_Node000009"><a xlink:title=" ">
<path fill="none" stroke="#63b8ff" d="M431.04,-277.33C436.54,-269.14 442.06,-259.54 445.5,-250 464.29,-197.85 466.06,-130.86 465.84,-101.9"/>
<polygon fill="#63b8ff" stroke="#63b8ff" points="428.1,-275.42 425.19,-285.61 433.82,-279.47 428.1,-275.42"/>
</a>
</g>
</g>
<!-- Node10 -->
<g id="Node000010" class="node">
<title>Node10</title>
<g id="a_Node000010"><a xlink:href="max96793_8h.html" target="_top" xlink:title=" ">
<polygon fill="white" stroke="#666666" points="1016,-250 841,-250 841,-220 1016,-220 1016,-250"/>
<text text-anchor="start" x="849" y="-238" font-family="Helvetica,sans-Serif" font-size="10.00">drivers/gmsl/serializer</text>
<text text-anchor="middle" x="928.5" y="-227" font-family="Helvetica,sans-Serif" font-size="10.00">/camera/max96793/max96793.h</text>
</a>
</g>
</g>
<!-- Node2&#45;&gt;Node10 -->
<g id="edge18_Node000002_Node000010" class="edge">
<title>Node2&#45;&gt;Node10</title>
<g id="a_edge18_Node000002_Node000010"><a xlink:title=" ">
<path fill="none" stroke="#63b8ff" d="M485.27,-291.08C578.25,-279.53 740.29,-259.39 840.57,-246.93"/>
<polygon fill="#63b8ff" stroke="#63b8ff" points="484.6,-287.64 475.11,-292.34 485.46,-294.58 484.6,-287.64"/>
</a>
</g>
</g>
<!-- Node13 -->
<g id="Node000013" class="node">
<title>Node13</title>
<g id="a_Node000013"><a xlink:href="max96793__diag_8h.html" target="_top" xlink:title=" ">
<polygon fill="white" stroke="#666666" points="947.5,-184 781.5,-184 781.5,-143 947.5,-143 947.5,-184"/>
<text text-anchor="start" x="789.5" y="-172" font-family="Helvetica,sans-Serif" font-size="10.00">drivers/gmsl/serializer</text>
<text text-anchor="start" x="789.5" y="-161" font-family="Helvetica,sans-Serif" font-size="10.00">/camera/max96793/max96793</text>
<text text-anchor="middle" x="864.5" y="-150" font-family="Helvetica,sans-Serif" font-size="10.00">_diag.h</text>
</a>
</g>
</g>
<!-- Node2&#45;&gt;Node13 -->
<g id="edge27_Node000002_Node000013" class="edge">
<title>Node2&#45;&gt;Node13</title>
<g id="a_edge27_Node000002_Node000013"><a xlink:title=" ">
<path fill="none" stroke="#63b8ff" d="M485.63,-297.5C552.21,-293.18 652.83,-281.5 734.5,-250 775.33,-234.25 816.54,-204.2 841.3,-184.25"/>
<polygon fill="#63b8ff" stroke="#63b8ff" points="485.01,-294.03 475.24,-298.13 485.44,-301.02 485.01,-294.03"/>
</a>
</g>
</g>
<!-- Node14 -->
<g id="Node000014" class="node">
<title>Node14</title>
<g id="a_Node000014"><a xlink:href="max96793__csi_8h.html" target="_top" xlink:title=" ">
<polygon fill="white" stroke="#666666" points="725.5,-250 531.5,-250 531.5,-220 725.5,-220 725.5,-250"/>
<text text-anchor="start" x="539.5" y="-238" font-family="Helvetica,sans-Serif" font-size="10.00">drivers/gmsl/serializer</text>
<text text-anchor="middle" x="628.5" y="-227" font-family="Helvetica,sans-Serif" font-size="10.00">/camera/max96793/max96793_csi.h</text>
</a>
</g>
</g>
<!-- Node2&#45;&gt;Node14 -->
<g id="edge24_Node000002_Node000014" class="edge">
<title>Node2&#45;&gt;Node14</title>
<g id="a_edge24_Node000002_Node000014"><a xlink:title=" ">
<path fill="none" stroke="#63b8ff" d="M470.65,-282.99C505.24,-272.69 548.83,-259.72 581.43,-250.01"/>
<polygon fill="#63b8ff" stroke="#63b8ff" points="469.27,-279.75 460.68,-285.95 471.27,-286.46 469.27,-279.75"/>
</a>
</g>
</g>
<!-- Node4 -->
<g id="Node000004" class="node">
<title>Node4</title>
<g id="a_Node000004"><a xlink:href="max96792_8c.html" target="_top" xlink:title=" ">
<polygon fill="white" stroke="#666666" points="385.5,-30 211.5,-30 211.5,0 385.5,0 385.5,-30"/>
<text text-anchor="start" x="219.5" y="-18" font-family="Helvetica,sans-Serif" font-size="10.00">drivers/gmsl/deserializer</text>
<text text-anchor="middle" x="298.5" y="-7" font-family="Helvetica,sans-Serif" font-size="10.00">/camera/max96792/max96792.c</text>
</a>
</g>
</g>
<!-- Node3&#45;&gt;Node4 -->
<g id="edge3_Node000003_Node000004" class="edge">
<title>Node3&#45;&gt;Node4</title>
<g id="a_edge3_Node000003_Node000004"><a xlink:title=" ">
<path fill="none" stroke="#63b8ff" d="M376.77,-209.78C377.07,-191.15 376,-164.96 369.5,-143 362.51,-119.38 324.97,-58.06 307.48,-30.17"/>
<polygon fill="#63b8ff" stroke="#63b8ff" points="373.27,-209.69 376.47,-219.79 380.27,-209.9 373.27,-209.69"/>
</a>
</g>
</g>
<!-- Node3&#45;&gt;Node5 -->
<g id="edge4_Node000003_Node000005" class="edge">
<title>Node3&#45;&gt;Node5</title>
<g id="a_edge4_Node000003_Node000005"><a xlink:title=" ">
<path fill="none" stroke="#63b8ff" d="M346.52,-214.25C329.8,-202.86 309.17,-188.81 294.11,-178.54"/>
<polygon fill="#63b8ff" stroke="#63b8ff" points="344.62,-217.2 354.86,-219.94 348.57,-211.41 344.62,-217.2"/>
</a>
</g>
</g>
<!-- Node3&#45;&gt;Node6 -->
<g id="edge13_Node000003_Node000006" class="edge">
<title>Node3&#45;&gt;Node6</title>
<g id="a_edge13_Node000003_Node000006"><a xlink:title=" ">
<path fill="none" stroke="#63b8ff" d="M304,-230.5C262.93,-225.2 212.51,-212.74 176.5,-184 149.77,-162.67 136.28,-122.89 130.72,-101.68"/>
<polygon fill="#63b8ff" stroke="#63b8ff" points="303.62,-233.98 313.96,-231.67 304.44,-227.02 303.62,-233.98"/>
</a>
</g>
</g>
<!-- Node3&#45;&gt;Node8 -->
<g id="edge14_Node000003_Node000008" class="edge">
<title>Node3&#45;&gt;Node8</title>
<g id="a_edge14_Node000003_Node000008"><a xlink:title=" ">
<path fill="none" stroke="#63b8ff" d="M397.87,-213.07C419.92,-193.2 455.2,-163.43 489.5,-143 524.75,-122.01 551.84,-141.2 574.5,-107 590.47,-82.89 572.19,-48.92 559.21,-30.04"/>
<polygon fill="#63b8ff" stroke="#63b8ff" points="395.4,-210.58 390.37,-219.9 400.11,-215.75 395.4,-210.58"/>
</a>
</g>
</g>
<!-- Node5&#45;&gt;Node4 -->
<g id="edge5_Node000005_Node000004" class="edge">
<title>Node5&#45;&gt;Node4</title>
<g id="a_edge5_Node000005_Node000004"><a xlink:title=" ">
<path fill="none" stroke="#63b8ff" d="M275.2,-138.13C276.82,-118.52 279.74,-90.32 284.5,-66 286.89,-53.79 290.77,-40.22 293.84,-30.29"/>
<polygon fill="#63b8ff" stroke="#63b8ff" points="271.69,-138.09 274.4,-148.33 278.67,-138.63 271.69,-138.09"/>
</a>
</g>
</g>
<!-- Node5&#45;&gt;Node6 -->
<g id="edge6_Node000005_Node000006" class="edge">
<title>Node5&#45;&gt;Node6</title>
<g id="a_edge6_Node000005_Node000006"><a xlink:title=" ">
<path fill="none" stroke="#63b8ff" d="M237.04,-143.77C211.55,-130.68 178.05,-113.47 154.84,-101.54"/>
<polygon fill="#63b8ff" stroke="#63b8ff" points="235.54,-146.94 246.04,-148.39 238.74,-140.71 235.54,-146.94"/>
</a>
</g>
</g>
<!-- Node5&#45;&gt;Node8 -->
<g id="edge9_Node000005_Node000008" class="edge">
<title>Node5&#45;&gt;Node8</title>
<g id="a_edge9_Node000005_Node000008"><a xlink:title=" ">
<path fill="none" stroke="#63b8ff" d="M287.07,-139.54C301.35,-117.4 325.84,-84.6 355.5,-66 383.21,-48.63 416.77,-37.27 448.07,-29.85"/>
<polygon fill="#63b8ff" stroke="#63b8ff" points="283.93,-137.96 281.6,-148.3 289.86,-141.67 283.93,-137.96"/>
</a>
</g>
</g>
<!-- Node5&#45;&gt;Node9 -->
<g id="edge10_Node000005_Node000009" class="edge">
<title>Node5&#45;&gt;Node9</title>
<g id="a_edge10_Node000005_Node000009"><a xlink:title=" ">
<path fill="none" stroke="#63b8ff" d="M319.25,-144.63C353.03,-131.43 398.35,-113.73 429.55,-101.54"/>
<polygon fill="#63b8ff" stroke="#63b8ff" points="317.65,-141.49 309.61,-148.39 320.2,-148.01 317.65,-141.49"/>
</a>
</g>
</g>
<!-- Node6&#45;&gt;Node4 -->
<g id="edge7_Node000006_Node000004" class="edge">
<title>Node6&#45;&gt;Node4</title>
<g id="a_edge7_Node000006_Node000004"><a xlink:title=" ">
<path fill="none" stroke="#63b8ff" d="M171.51,-67.61C200.28,-55.92 237.31,-40.87 263.95,-30.04"/>
<polygon fill="#63b8ff" stroke="#63b8ff" points="170.05,-64.43 162.1,-71.44 172.69,-70.91 170.05,-64.43"/>
</a>
</g>
</g>
<!-- Node7 -->
<g id="Node000007" class="node">
<title>Node7</title>
<g id="a_Node000007"><a xlink:href="max96792__csi_8c.html" target="_top" xlink:title=" ">
<polygon fill="white" stroke="#666666" points="193,-30 0,-30 0,0 193,0 193,-30"/>
<text text-anchor="start" x="8" y="-18" font-family="Helvetica,sans-Serif" font-size="10.00">drivers/gmsl/deserializer</text>
<text text-anchor="middle" x="96.5" y="-7" font-family="Helvetica,sans-Serif" font-size="10.00">/camera/max96792/max96792_csi.c</text>
</a>
</g>
</g>
<!-- Node6&#45;&gt;Node7 -->
<g id="edge8_Node000006_Node000007" class="edge">
<title>Node6&#45;&gt;Node7</title>
<g id="a_edge8_Node000006_Node000007"><a xlink:title=" ">
<path fill="none" stroke="#63b8ff" d="M117.12,-62.23C112.36,-51.56 106.88,-39.27 102.76,-30.04"/>
<polygon fill="#63b8ff" stroke="#63b8ff" points="113.96,-63.73 121.23,-71.44 120.35,-60.88 113.96,-63.73"/>
</a>
</g>
</g>
<!-- Node9&#45;&gt;Node4 -->
<g id="edge11_Node000009_Node000004" class="edge">
<title>Node9&#45;&gt;Node4</title>
<g id="a_edge11_Node000009_Node000004"><a xlink:title=" ">
<path fill="none" stroke="#63b8ff" d="M422.15,-67.46C394.11,-55.79 358.15,-40.82 332.24,-30.04"/>
<polygon fill="#63b8ff" stroke="#63b8ff" points="421.13,-70.82 431.71,-71.44 423.82,-64.36 421.13,-70.82"/>
</a>
</g>
</g>
<!-- Node9&#45;&gt;Node8 -->
<g id="edge12_Node000009_Node000008" class="edge">
<title>Node9&#45;&gt;Node8</title>
<g id="a_edge12_Node000009_Node000008"><a xlink:title=" ">
<path fill="none" stroke="#63b8ff" d="M490.21,-64.81C503.61,-53.59 519.81,-40.02 531.73,-30.04"/>
<polygon fill="#63b8ff" stroke="#63b8ff" points="487.72,-62.33 482.3,-71.44 492.21,-67.7 487.72,-62.33"/>
</a>
</g>
</g>
<!-- Node10&#45;&gt;Node11 -->
<g id="edge19_Node000010_Node000011" class="edge">
<title>Node10&#45;&gt;Node11</title>
<g id="a_edge19_Node000010_Node000011"><a xlink:title=" ">
<path fill="none" stroke="#63b8ff" d="M945.8,-211.6C958.79,-191.84 971.93,-163.14 956.5,-143 941.58,-123.52 886.92,-109.34 837.65,-100.19"/>
<polygon fill="#63b8ff" stroke="#63b8ff" points="942.8,-209.78 939.94,-219.99 948.53,-213.79 942.8,-209.78"/>
</a>
</g>
</g>
<!-- Node10&#45;&gt;Node12 -->
<g id="edge20_Node000010_Node000012" class="edge">
<title>Node10&#45;&gt;Node12</title>
<g id="a_edge20_Node000010_Node000012"><a xlink:title=" ">
<path fill="none" stroke="#63b8ff" d="M963.27,-214C973.67,-206.1 983.81,-196.01 989.5,-184 1001.11,-159.46 993.77,-127.62 986.72,-107.37"/>
<polygon fill="#63b8ff" stroke="#63b8ff" points="961.11,-211.24 954.95,-219.86 965.14,-216.96 961.11,-211.24"/>
</a>
</g>
</g>
<!-- Node10&#45;&gt;Node13 -->
<g id="edge21_Node000010_Node000013" class="edge">
<title>Node10&#45;&gt;Node13</title>
<g id="a_edge21_Node000010_Node000013"><a xlink:title=" ">
<path fill="none" stroke="#63b8ff" d="M908.62,-212.41C900.28,-203.36 890.65,-192.9 882.52,-184.07"/>
<polygon fill="#63b8ff" stroke="#63b8ff" points="906.2,-214.95 915.55,-219.94 911.35,-210.21 906.2,-214.95"/>
</a>
</g>
</g>
<!-- Node13&#45;&gt;Node11 -->
<g id="edge22_Node000013_Node000011" class="edge">
<title>Node13&#45;&gt;Node11</title>
<g id="a_edge22_Node000013_Node000011"><a xlink:title=" ">
<path fill="none" stroke="#63b8ff" d="M826.25,-137.34C808.21,-125.47 787.34,-111.74 772.08,-101.7"/>
<polygon fill="#63b8ff" stroke="#63b8ff" points="824.57,-140.42 834.85,-142.99 828.41,-134.57 824.57,-140.42"/>
</a>
</g>
</g>
<!-- Node13&#45;&gt;Node12 -->
<g id="edge23_Node000013_Node000012" class="edge">
<title>Node13&#45;&gt;Node12</title>
<g id="a_edge23_Node000013_Node000012"><a xlink:title=" ">
<path fill="none" stroke="#63b8ff" d="M902.7,-137.37C917.66,-127.53 934.56,-116.41 948.6,-107.17"/>
<polygon fill="#63b8ff" stroke="#63b8ff" points="900.59,-134.57 894.15,-142.99 904.43,-140.42 900.59,-134.57"/>
</a>
</g>
</g>
<!-- Node14&#45;&gt;Node11 -->
<g id="edge25_Node000014_Node000011" class="edge">
<title>Node14&#45;&gt;Node11</title>
<g id="a_edge25_Node000014_Node000011"><a xlink:title=" ">
<path fill="none" stroke="#63b8ff" d="M589.32,-214.44C577.91,-206.64 566.83,-196.5 560.5,-184 552.27,-167.74 549.57,-157.58 560.5,-143 573.95,-125.06 623.06,-110.99 667.98,-101.5"/>
<polygon fill="#63b8ff" stroke="#63b8ff" points="587.71,-217.56 598.04,-219.94 591.45,-211.64 587.71,-217.56"/>
</a>
</g>
</g>
<!-- Node14&#45;&gt;Node15 -->
<g id="edge26_Node000014_Node000015" class="edge">
<title>Node14&#45;&gt;Node15</title>
<g id="a_edge26_Node000014_Node000015"><a xlink:title=" ">
<path fill="none" stroke="#63b8ff" d="M641.04,-211.06C646.92,-200.32 653.72,-187.86 658.82,-178.54"/>
<polygon fill="#63b8ff" stroke="#63b8ff" points="637.92,-209.48 636.19,-219.94 644.06,-212.84 637.92,-209.48"/>
</a>
</g>
</g>
</g>
</svg>

<g id="navigator" transform="translate(0 0)" fill="#404254">
  <rect fill="#f2f5e9" fill-opacity="0.5" stroke="#606060" stroke-width=".5" x="0" y="0" width="60" height="60"/>
  <use id="zoomplus" xlink:href="#zoomPlus" x="17" y="9" onmousedown="handleZoom(evt,'in')"/>
  <use id="zoomminus" xlink:href="#zoomMin" x="42" y="9" onmousedown="handleZoom(evt,'out')"/>
  <use id="reset" xlink:href="#resetDef" x="30" y="36" onmousedown="handleReset()"/>
   <use id="arrowup" xlink:href="#arrowUp" x="0" y="0" onmousedown="handlePan(0,-1)"/>
  <use id="arrowright" xlink:href="#arrowRight" x="0" y="0" onmousedown="handlePan(1,0)"/>
  <use id="arrowdown" xlink:href="#arrowDown" x="0" y="0" onmousedown="handlePan(0,1)"/>
  <use id="arrowleft" xlink:href="#arrowLeft" x="0" y="0" onmousedown="handlePan(-1,0)"/>
</g>
<svg viewBox="0 0 15 15" width="100%" height="30px" preserveAspectRatio="xMaxYMin meet">
 <g id="arrow_out" transform="scale(0.3 0.3)">
  <a xlink:href="gmsl__reg__access_8h__dep__incl_org.svg" target="_base">
   <rect id="button" ry="5" rx="5" y="6" x="6" height="38" width="38"
        fill="#f2f5e9" fill-opacity="0.5" stroke="#606060" stroke-width="1.0"/>
   <path id="arrow"
     d="M 11.500037,31.436501 C 11.940474,20.09759 22.043105,11.32322 32.158766,21.979434 L 37.068811,17.246167 C 37.068811,17.246167 37.088388,32 37.088388,32 L 22.160133,31.978069 C 22.160133,31.978069 26.997745,27.140456 26.997745,27.140456 C 18.528582,18.264221 13.291696,25.230495 11.500037,31.436501 z"
     style="fill:#404040;"/>
  </a>
 </g>
</svg>

<style type='text/css'>
<![CDATA[
[data-mouse-over-selected='false'] { opacity: 0.7; }
[data-mouse-over-selected='true']  { opacity: 1.0; }
]]>
</style>
<script type="application/ecmascript"><![CDATA[
document.addEventListener('DOMContentLoaded', (event) => {
  highlightEdges();
  highlightAdjacentNodes();
});
]]></script>
</svg>
