<?xml version="1.0" encoding="UTF-8" standalone="no"?>
<!DOCTYPE svg PUBLIC "-//W3C//DTD SVG 1.1//EN"
 "http://www.w3.org/Graphics/SVG/1.1/DTD/svg11.dtd">
<!-- Generated by graphviz version 2.43.0 (0)
 -->
<!-- Title: hmc630x_write Pages: 1 -->
<!--zoomable 399 -->

<svg id="main" version="1.1" xmlns="http://www.w3.org/2000/svg" xmlns:xlink="http://www.w3.org/1999/xlink" xml:space="preserve" onload="init(evt)">

<style type="text/css"><![CDATA[
.node, .edge {opacity: 0.7;}
.node.selected, .edge.selected {opacity: 1;}
.edge:hover path { stroke: red; }
.edge:hover polygon { stroke: red; fill: red; }
]]></style>

<defs>
  <circle id="rim" cx="0" cy="0" r="7"/>
  <circle id="rim2" cx="0" cy="0" r="3.5"/>
  <g id="zoomPlus">
    <use xlink:href="#rim" fill="#404040"><set attributeName="fill" to="#808080" begin="zoomplus.mouseover" end="zoomplus.mouseout"/></use>
    <path d="M-4,0h8M0,-4v8" fill="none" stroke="white" stroke-width="1.5" pointer-events="none"/>
  </g>
  <g id="zoomMin">
    <use xlink:href="#rim" fill="#404040"><set attributeName="fill" to="#808080" begin="zoomminus.mouseover" end="zoomminus.mouseout"/></use>
    <path d="M-4,0h8" fill="none" stroke="white" stroke-width="1.5" pointer-events="none"/>
  </g>
  <g id="arrowUp" transform="translate(30 24)">
    <use xlink:href="#rim"/>
    <path pointer-events="none" fill="none" stroke="white" stroke-width="1.5" d="M0,-3.0v7 M-2.5,-0.5L0,-3.0L2.5,-0.5"/>
  </g>
  <g id="arrowRight" transform="rotate(90) translate(36 -43)">
    <use xlink:href="#rim"/>
    <path pointer-events="none" fill="none" stroke="white" stroke-width="1.5" d="M0,-3.0v7 M-2.5,-0.5L0,-3.0L2.5,-0.5"/>
  </g>
  <g id="arrowDown" transform="rotate(180) translate(-30 -48)">
    <use xlink:href="#rim"/>
    <path pointer-events="none" fill="none" stroke="white" stroke-width="1.5" d="M0,-3.0v7 M-2.5,-0.5L0,-3.0L2.5,-0.5"/>
  </g>
  <g id="arrowLeft" transform="rotate(270) translate(-36 17)">
    <use xlink:href="#rim"/>
    <path pointer-events="none" fill="none" stroke="white" stroke-width="1.5" d="M0,-3.0v7 M-2.5,-0.5L0,-3.0L2.5,-0.5"/>
  </g>
  <g id="resetDef">
    <use xlink:href="#rim2" fill="#404040"><set attributeName="fill" to="#808080" begin="reset.mouseover" end="reset.mouseout"/></use>
  </g>
</defs>
<script type="application/ecmascript">
var viewWidth = 630;
var viewHeight = 399;
var sectionId = 'dynsection-23';
</script>
<script type="application/ecmascript" xlink:href="svg.min.js"/>
<svg id="graph" class="graph">
<g id="viewport">
<title>hmc630x_write</title>
<!-- Node1 -->
<g id="Node000001" class="node">
<title>Node1</title>
<g id="a_Node000001"><a xlink:title=" ">
<polygon fill="#999999" stroke="#666666" points="622,-204 530,-204 530,-185 622,-185 622,-204"/>
<text text-anchor="middle" x="576" y="-192" font-family="Helvetica,sans-Serif" font-size="10.00">hmc630x_write</text>
</a>
</g>
</g>
<!-- Node2 -->
<g id="Node000002" class="node">
<title>Node2</title>
<g id="a_Node000002"><a xlink:href="hmc630x_8c.html#a76f06ef1ea0debb11bec0d8c798e6628" target="_top" xlink:title=" ">
<polygon fill="white" stroke="#666666" points="479.5,-391 361.5,-391 361.5,-372 479.5,-372 479.5,-391"/>
<text text-anchor="middle" x="420.5" y="-379" font-family="Helvetica,sans-Serif" font-size="10.00">hmc6300_set_fm_en</text>
</a>
</g>
</g>
<!-- Node1&#45;&gt;Node2 -->
<g id="edge1_Node000001_Node000002" class="edge">
<title>Node1&#45;&gt;Node2</title>
<g id="a_edge1_Node000001_Node000002"><a xlink:title=" ">
<path fill="none" stroke="#63b8ff" d="M570.48,-214.29C561.68,-248.41 539.03,-318.43 494,-357.5 486.69,-363.84 477.65,-368.52 468.47,-371.97"/>
<polygon fill="#63b8ff" stroke="#63b8ff" points="573.98,-214.73 572.95,-204.18 567.18,-213.07 573.98,-214.73"/>
</a>
</g>
</g>
<!-- Node3 -->
<g id="Node000003" class="node">
<title>Node3</title>
<g id="a_Node000003"><a xlink:href="hmc630x_8c.html#ad2e537eb575550c4e38a8dc325425d10" target="_top" xlink:title=" ">
<polygon fill="white" stroke="#666666" points="480,-167 361,-167 361,-148 480,-148 480,-167"/>
<text text-anchor="middle" x="420.5" y="-155" font-family="Helvetica,sans-Serif" font-size="10.00">hmc6300_set_rf_attn</text>
</a>
</g>
</g>
<!-- Node1&#45;&gt;Node3 -->
<g id="edge2_Node000001_Node000003" class="edge">
<title>Node1&#45;&gt;Node3</title>
<g id="a_edge2_Node000001_Node000003"><a xlink:title=" ">
<path fill="none" stroke="#63b8ff" d="M525.53,-182.57C504.7,-177.56 480.8,-171.79 461.16,-167.06"/>
<polygon fill="#63b8ff" stroke="#63b8ff" points="524.93,-186.03 535.47,-184.97 526.57,-179.23 524.93,-186.03"/>
</a>
</g>
</g>
<!-- Node6 -->
<g id="Node000006" class="node">
<title>Node6</title>
<g id="a_Node000006"><a xlink:href="wethlink_2src_2app_2main_8c.html#a840291bc02cba5474a4cb46a9b9566fe" target="_top" xlink:title=" ">
<polygon fill="white" stroke="#666666" points="41,-279 0,-279 0,-260 41,-260 41,-279"/>
<text text-anchor="middle" x="20.5" y="-267" font-family="Helvetica,sans-Serif" font-size="10.00">main</text>
</a>
</g>
</g>
<!-- Node1&#45;&gt;Node6 -->
<g id="edge27_Node000001_Node000006" class="edge">
<title>Node1&#45;&gt;Node6</title>
<g id="a_edge27_Node000001_Node000006"><a xlink:title=" ">
<path fill="none" stroke="#63b8ff" d="M569.59,-213.75C560,-243.76 536.86,-300.7 494,-324.5 337.68,-411.28 107.82,-311.94 40.61,-279.22"/>
<polygon fill="#63b8ff" stroke="#63b8ff" points="572.99,-214.61 572.52,-204.03 566.28,-212.59 572.99,-214.61"/>
</a>
</g>
</g>
<!-- Node8 -->
<g id="Node000008" class="node">
<title>Node8</title>
<g id="a_Node000008"><a xlink:href="hmc630x_8c.html#a9a8ece440462e8cbd16e344511f2701b" target="_top" xlink:title=" ">
<polygon fill="white" stroke="#666666" points="482.5,-315 358.5,-315 358.5,-296 482.5,-296 482.5,-315"/>
<text text-anchor="middle" x="420.5" y="-303" font-family="Helvetica,sans-Serif" font-size="10.00">hmc6301_set_bb_attn</text>
</a>
</g>
</g>
<!-- Node1&#45;&gt;Node8 -->
<g id="edge7_Node000001_Node000008" class="edge">
<title>Node1&#45;&gt;Node8</title>
<g id="a_edge7_Node000001_Node000008"><a xlink:title=" ">
<path fill="none" stroke="#63b8ff" d="M564.01,-212.84C550.31,-234.1 524.89,-268.61 494,-287.5 488.36,-290.95 482.09,-293.74 475.66,-296"/>
<polygon fill="#63b8ff" stroke="#63b8ff" points="567.14,-214.45 569.46,-204.11 561.2,-210.75 567.14,-214.45"/>
</a>
</g>
</g>
<!-- Node9 -->
<g id="Node000009" class="node">
<title>Node9</title>
<g id="a_Node000009"><a xlink:href="hmc630x_8c.html#ae1585d47ac0ff8c61caac74697463d4f" target="_top" xlink:title=" ">
<polygon fill="white" stroke="#666666" points="494,-278 347,-278 347,-259 494,-259 494,-278"/>
<text text-anchor="middle" x="420.5" y="-266" font-family="Helvetica,sans-Serif" font-size="10.00">hmc6301_set_bb_attn_fine</text>
</a>
</g>
</g>
<!-- Node1&#45;&gt;Node9 -->
<g id="edge10_Node000001_Node000009" class="edge">
<title>Node1&#45;&gt;Node9</title>
<g id="a_edge10_Node000001_Node000009"><a xlink:title=" ">
<path fill="none" stroke="#63b8ff" d="M556.12,-210.52C540.42,-223.08 517.01,-240.11 494,-250.5 486.55,-253.86 478.38,-256.66 470.29,-258.97"/>
<polygon fill="#63b8ff" stroke="#63b8ff" points="558.47,-213.12 563.99,-204.07 554.04,-207.7 558.47,-213.12"/>
</a>
</g>
</g>
<!-- Node10 -->
<g id="Node000010" class="node">
<title>Node10</title>
<g id="a_Node000010"><a xlink:href="hmc630x_8c.html#ab63def67e811694eb646a04c058ba91d" target="_top" xlink:title=" ">
<polygon fill="white" stroke="#666666" points="491,-93 350,-93 350,-74 491,-74 491,-93"/>
<text text-anchor="middle" x="420.5" y="-81" font-family="Helvetica,sans-Serif" font-size="10.00">hmc6301_set_bb_lpc_hpc</text>
</a>
</g>
</g>
<!-- Node1&#45;&gt;Node10 -->
<g id="edge13_Node000001_Node000010" class="edge">
<title>Node1&#45;&gt;Node10</title>
<g id="a_edge13_Node000001_Node000010"><a xlink:title=" ">
<path fill="none" stroke="#63b8ff" d="M564.01,-176.16C550.31,-154.9 524.89,-120.39 494,-101.5 488.36,-98.05 482.09,-95.26 475.66,-93"/>
<polygon fill="#63b8ff" stroke="#63b8ff" points="561.2,-178.25 569.46,-184.89 567.14,-174.55 561.2,-178.25"/>
</a>
</g>
</g>
<!-- Node11 -->
<g id="Node000011" class="node">
<title>Node11</title>
<g id="a_Node000011"><a xlink:href="hmc630x_8c.html#ae5fc1545430f0653d84fed55e663645b" target="_top" xlink:title=" ">
<polygon fill="white" stroke="#666666" points="484.5,-241 356.5,-241 356.5,-222 484.5,-222 484.5,-241"/>
<text text-anchor="middle" x="420.5" y="-229" font-family="Helvetica,sans-Serif" font-size="10.00">hmc6301_set_lna_gain</text>
</a>
</g>
</g>
<!-- Node1&#45;&gt;Node11 -->
<g id="edge15_Node000001_Node000011" class="edge">
<title>Node1&#45;&gt;Node11</title>
<g id="a_edge15_Node000001_Node000011"><a xlink:title=" ">
<path fill="none" stroke="#63b8ff" d="M525.53,-206.43C504.7,-211.44 480.8,-217.21 461.16,-221.94"/>
<polygon fill="#63b8ff" stroke="#63b8ff" points="526.57,-209.77 535.47,-204.03 524.93,-202.97 526.57,-209.77"/>
</a>
</g>
</g>
<!-- Node12 -->
<g id="Node000012" class="node">
<title>Node12</title>
<g id="a_Node000012"><a xlink:href="hmc630x_8c.html#a304baebcf4fab24f2e94b5b4030a0e0b" target="_top" xlink:title=" ">
<polygon fill="white" stroke="#666666" points="480.5,-56 360.5,-56 360.5,-37 480.5,-37 480.5,-56"/>
<text text-anchor="middle" x="420.5" y="-44" font-family="Helvetica,sans-Serif" font-size="10.00">hmc630x_set_enable</text>
</a>
</g>
</g>
<!-- Node1&#45;&gt;Node12 -->
<g id="edge18_Node000001_Node000012" class="edge">
<title>Node1&#45;&gt;Node12</title>
<g id="a_edge18_Node000001_Node000012"><a xlink:title=" ">
<path fill="none" stroke="#63b8ff" d="M568.38,-175.22C557.51,-146.52 533.1,-92.92 494,-64.5 489.28,-61.07 483.98,-58.29 478.45,-56.03"/>
<polygon fill="#63b8ff" stroke="#63b8ff" points="565.19,-176.68 571.89,-184.89 571.77,-174.3 565.19,-176.68"/>
</a>
</g>
</g>
<!-- Node13 -->
<g id="Node000013" class="node">
<title>Node13</title>
<g id="a_Node000013"><a xlink:href="hmc630x_8c.html#a4031a0777d2c8a9135dfadc31cc8593d" target="_top" xlink:title=" ">
<polygon fill="white" stroke="#666666" points="480,-204 361,-204 361,-185 480,-185 480,-204"/>
<text text-anchor="middle" x="420.5" y="-192" font-family="Helvetica,sans-Serif" font-size="10.00">hmc630x_set_if_attn</text>
</a>
</g>
</g>
<!-- Node1&#45;&gt;Node13 -->
<g id="edge20_Node000001_Node000013" class="edge">
<title>Node1&#45;&gt;Node13</title>
<g id="a_edge20_Node000001_Node000013"><a xlink:title=" ">
<path fill="none" stroke="#63b8ff" d="M519.68,-194.5C506.81,-194.5 493.08,-194.5 480.08,-194.5"/>
<polygon fill="#63b8ff" stroke="#63b8ff" points="519.78,-198 529.78,-194.5 519.78,-191 519.78,-198"/>
</a>
</g>
</g>
<!-- Node14 -->
<g id="Node000014" class="node">
<title>Node14</title>
<g id="a_Node000014"><a xlink:href="hmc630x_8c.html#abf278dc5b8c172b150730ef73cdf8980" target="_top" xlink:title=" ">
<polygon fill="white" stroke="#666666" points="485.5,-19 355.5,-19 355.5,0 485.5,0 485.5,-19"/>
<text text-anchor="middle" x="420.5" y="-7" font-family="Helvetica,sans-Serif" font-size="10.00">hmc630x_set_temp_en</text>
</a>
</g>
</g>
<!-- Node1&#45;&gt;Node14 -->
<g id="edge23_Node000001_Node000014" class="edge">
<title>Node1&#45;&gt;Node14</title>
<g id="a_edge23_Node000001_Node000014"><a xlink:title=" ">
<path fill="none" stroke="#63b8ff" d="M571.16,-174.83C563.23,-139.68 541.66,-66.14 494,-27.5 489.77,-24.07 484.97,-21.28 479.92,-19.01"/>
<polygon fill="#63b8ff" stroke="#63b8ff" points="567.77,-175.74 573.27,-184.8 574.62,-174.3 567.77,-175.74"/>
</a>
</g>
</g>
<!-- Node15 -->
<g id="Node000015" class="node">
<title>Node15</title>
<g id="a_Node000015"><a xlink:href="hmc630x_8c.html#a302da32caef29a84521f625a9c8d0829" target="_top" xlink:title=" ">
<polygon fill="white" stroke="#666666" points="472.5,-130 368.5,-130 368.5,-111 472.5,-111 472.5,-130"/>
<text text-anchor="middle" x="420.5" y="-118" font-family="Helvetica,sans-Serif" font-size="10.00">hmc630x_set_vco</text>
</a>
</g>
</g>
<!-- Node1&#45;&gt;Node15 -->
<g id="edge25_Node000001_Node000015" class="edge">
<title>Node1&#45;&gt;Node15</title>
<g id="a_edge25_Node000001_Node000015"><a xlink:title=" ">
<path fill="none" stroke="#63b8ff" d="M556.12,-178.48C540.42,-165.92 517.01,-148.89 494,-138.5 486.55,-135.14 478.38,-132.34 470.29,-130.03"/>
<polygon fill="#63b8ff" stroke="#63b8ff" points="554.04,-181.3 563.99,-184.93 558.47,-175.88 554.04,-181.3"/>
</a>
</g>
</g>
<!-- Node4 -->
<g id="Node000004" class="node">
<title>Node4</title>
<g id="a_Node000004"><a xlink:href="hmc630x_8c.html#a7fcea8769d50f179f5bcd2fa79d110f6" target="_top" xlink:title=" ">
<polygon fill="white" stroke="#666666" points="303.5,-186 220.5,-186 220.5,-167 303.5,-167 303.5,-186"/>
<text text-anchor="middle" x="262" y="-174" font-family="Helvetica,sans-Serif" font-size="10.00">hmc630x_init</text>
</a>
</g>
</g>
<!-- Node3&#45;&gt;Node4 -->
<g id="edge3_Node000003_Node000004" class="edge">
<title>Node3&#45;&gt;Node4</title>
<g id="a_edge3_Node000003_Node000004"><a xlink:title=" ">
<path fill="none" stroke="#63b8ff" d="M350.82,-165.84C334.67,-167.8 317.96,-169.83 303.52,-171.58"/>
<polygon fill="#63b8ff" stroke="#63b8ff" points="351.27,-169.31 360.78,-164.63 350.43,-162.36 351.27,-169.31"/>
</a>
</g>
</g>
<!-- Node7 -->
<g id="Node000007" class="node">
<title>Node7</title>
<g id="a_Node000007"><a xlink:href="mwc_8c.html#a66bd13abd94e1229ab95038b89023f2a" target="_top" xlink:title=" ">
<polygon fill="white" stroke="#666666" points="311,-241 213,-241 213,-222 311,-222 311,-241"/>
<text text-anchor="middle" x="262" y="-229" font-family="Helvetica,sans-Serif" font-size="10.00">mwc_algorithms</text>
</a>
</g>
</g>
<!-- Node3&#45;&gt;Node7 -->
<g id="edge6_Node000003_Node000007" class="edge">
<title>Node3&#45;&gt;Node7</title>
<g id="a_edge6_Node000003_Node000007"><a xlink:title=" ">
<path fill="none" stroke="#63b8ff" d="M364.03,-170.04C358.18,-171.95 352.41,-174.1 347,-176.5 319.28,-188.81 290.44,-209.8 274.8,-221.98"/>
<polygon fill="#63b8ff" stroke="#63b8ff" points="365.31,-173.31 373.86,-167.05 363.28,-166.61 365.31,-173.31"/>
</a>
</g>
</g>
<!-- Node5 -->
<g id="Node000005" class="node">
<title>Node5</title>
<g id="a_Node000005"><a xlink:href="iio__hmc630x_8c.html#abbb0696b664140d685836a3afcde9223" target="_top" xlink:title=" ">
<polygon fill="white" stroke="#666666" points="177,-260 77,-260 77,-241 177,-241 177,-260"/>
<text text-anchor="middle" x="127" y="-248" font-family="Helvetica,sans-Serif" font-size="10.00">hmc630x_iio_init</text>
</a>
</g>
</g>
<!-- Node4&#45;&gt;Node5 -->
<g id="edge4_Node000004_Node000005" class="edge">
<title>Node4&#45;&gt;Node5</title>
<g id="a_edge4_Node000004_Node000005"><a xlink:title=" ">
<path fill="none" stroke="#63b8ff" d="M234.82,-191.07C208.38,-205.78 168.27,-228.09 145.47,-240.78"/>
<polygon fill="#63b8ff" stroke="#63b8ff" points="236.85,-193.94 243.88,-186.02 233.44,-187.83 236.85,-193.94"/>
</a>
</g>
</g>
<!-- Node5&#45;&gt;Node6 -->
<g id="edge5_Node000005_Node000006" class="edge">
<title>Node5&#45;&gt;Node6</title>
<g id="a_edge5_Node000005_Node000006"><a xlink:title=" ">
<path fill="none" stroke="#63b8ff" d="M66.77,-261.27C57.58,-262.94 48.68,-264.56 41.24,-265.91"/>
<polygon fill="#63b8ff" stroke="#63b8ff" points="67.6,-264.68 76.81,-259.44 66.35,-257.79 67.6,-264.68"/>
</a>
</g>
</g>
<!-- Node8&#45;&gt;Node4 -->
<g id="edge8_Node000008_Node000004" class="edge">
<title>Node8&#45;&gt;Node4</title>
<g id="a_edge8_Node000008_Node000004"><a xlink:title=" ">
<path fill="none" stroke="#63b8ff" d="M351.98,-291.09C350.25,-289.98 348.59,-288.79 347,-287.5 318.58,-264.48 334.1,-241.86 311,-213.5 302.1,-202.57 289.36,-192.94 279.25,-186.25"/>
<polygon fill="#63b8ff" stroke="#63b8ff" points="350.62,-294.33 361.09,-295.98 353.93,-288.17 350.62,-294.33"/>
</a>
</g>
</g>
<!-- Node8&#45;&gt;Node7 -->
<g id="edge9_Node000008_Node000007" class="edge">
<title>Node8&#45;&gt;Node7</title>
<g id="a_edge9_Node000008_Node000007"><a xlink:title=" ">
<path fill="none" stroke="#63b8ff" d="M361.51,-293.03C356.53,-291.38 351.63,-289.54 347,-287.5 318.94,-275.11 289.99,-253.49 274.48,-241.05"/>
<polygon fill="#63b8ff" stroke="#63b8ff" points="360.56,-296.4 371.14,-295.97 362.6,-289.7 360.56,-296.4"/>
</a>
</g>
</g>
<!-- Node9&#45;&gt;Node4 -->
<g id="edge11_Node000009_Node000004" class="edge">
<title>Node9&#45;&gt;Node4</title>
<g id="a_edge11_Node000009_Node000004"><a xlink:title=" ">
<path fill="none" stroke="#63b8ff" d="M356.66,-255.3C353.32,-253.86 350.07,-252.26 347,-250.5 327.1,-239.08 328.13,-228.76 311,-213.5 299.85,-203.56 286.3,-193.26 276.44,-186.06"/>
<polygon fill="#63b8ff" stroke="#63b8ff" points="355.69,-258.67 366.28,-258.95 358.18,-252.13 355.69,-258.67"/>
</a>
</g>
</g>
<!-- Node9&#45;&gt;Node7 -->
<g id="edge12_Node000009_Node000007" class="edge">
<title>Node9&#45;&gt;Node7</title>
<g id="a_edge12_Node000009_Node000007"><a xlink:title=" ">
<path fill="none" stroke="#63b8ff" d="M369.35,-256.64C348.05,-251.61 323.55,-245.82 303.44,-241.06"/>
<polygon fill="#63b8ff" stroke="#63b8ff" points="368.66,-260.08 379.2,-258.97 370.27,-253.26 368.66,-260.08"/>
</a>
</g>
</g>
<!-- Node10&#45;&gt;Node4 -->
<g id="edge14_Node000010_Node000004" class="edge">
<title>Node10&#45;&gt;Node4</title>
<g id="a_edge14_Node000010_Node000004"><a xlink:title=" ">
<path fill="none" stroke="#63b8ff" d="M358.03,-96.47C354.22,-97.98 350.51,-99.64 347,-101.5 314.68,-118.58 284.75,-150.73 270.97,-166.81"/>
<polygon fill="#63b8ff" stroke="#63b8ff" points="359.38,-99.71 367.65,-93.08 357.05,-93.11 359.38,-99.71"/>
</a>
</g>
</g>
<!-- Node11&#45;&gt;Node4 -->
<g id="edge16_Node000011_Node000004" class="edge">
<title>Node11&#45;&gt;Node4</title>
<g id="a_edge16_Node000011_Node000004"><a xlink:title=" ">
<path fill="none" stroke="#63b8ff" d="M365.83,-219.28C359.44,-217.5 353.04,-215.56 347,-213.5 324.23,-205.72 299.1,-194.25 282.31,-186.14"/>
<polygon fill="#63b8ff" stroke="#63b8ff" points="365.26,-222.75 375.83,-221.94 367.07,-215.99 365.26,-222.75"/>
</a>
</g>
</g>
<!-- Node11&#45;&gt;Node7 -->
<g id="edge17_Node000011_Node000007" class="edge">
<title>Node11&#45;&gt;Node7</title>
<g id="a_edge17_Node000011_Node000007"><a xlink:title=" ">
<path fill="none" stroke="#63b8ff" d="M345.94,-231.5C334.08,-231.5 322.08,-231.5 311.03,-231.5"/>
<polygon fill="#63b8ff" stroke="#63b8ff" points="346.3,-235 356.3,-231.5 346.3,-228 346.3,-235"/>
</a>
</g>
</g>
<!-- Node12&#45;&gt;Node4 -->
<g id="edge19_Node000012_Node000004" class="edge">
<title>Node12&#45;&gt;Node4</title>
<g id="a_edge19_Node000012_Node000004"><a xlink:title=" ">
<path fill="none" stroke="#63b8ff" d="M354.65,-60.08C352,-61.42 349.43,-62.89 347,-64.5 306.28,-91.49 277.72,-145.14 267.33,-166.95"/>
<polygon fill="#63b8ff" stroke="#63b8ff" points="356.2,-63.23 363.97,-56.03 353.4,-56.81 356.2,-63.23"/>
</a>
</g>
</g>
<!-- Node13&#45;&gt;Node4 -->
<g id="edge21_Node000013_Node000004" class="edge">
<title>Node13&#45;&gt;Node4</title>
<g id="a_edge21_Node000013_Node000004"><a xlink:title=" ">
<path fill="none" stroke="#63b8ff" d="M350.82,-186.6C334.67,-184.74 317.96,-182.82 303.52,-181.16"/>
<polygon fill="#63b8ff" stroke="#63b8ff" points="350.45,-190.08 360.78,-187.75 351.25,-183.13 350.45,-190.08"/>
</a>
</g>
</g>
<!-- Node13&#45;&gt;Node7 -->
<g id="edge22_Node000013_Node000007" class="edge">
<title>Node13&#45;&gt;Node7</title>
<g id="a_edge22_Node000013_Node000007"><a xlink:title=" ">
<path fill="none" stroke="#63b8ff" d="M369.35,-206.36C348.05,-211.39 323.55,-217.18 303.44,-221.94"/>
<polygon fill="#63b8ff" stroke="#63b8ff" points="370.27,-209.74 379.2,-204.03 368.66,-202.92 370.27,-209.74"/>
</a>
</g>
</g>
<!-- Node14&#45;&gt;Node4 -->
<g id="edge24_Node000014_Node000004" class="edge">
<title>Node14&#45;&gt;Node4</title>
<g id="a_edge24_Node000014_Node000004"><a xlink:title=" ">
<path fill="none" stroke="#63b8ff" d="M352.66,-23.69C350.7,-24.86 348.8,-26.13 347,-27.5 297.84,-64.9 273.11,-139.89 265.57,-166.69"/>
<polygon fill="#63b8ff" stroke="#63b8ff" points="354.32,-26.77 361.67,-19.13 351.16,-20.52 354.32,-26.77"/>
</a>
</g>
</g>
<!-- Node15&#45;&gt;Node4 -->
<g id="edge26_Node000015_Node000004" class="edge">
<title>Node15&#45;&gt;Node4</title>
<g id="a_edge26_Node000015_Node000004"><a xlink:title=" ">
<path fill="none" stroke="#63b8ff" d="M365.56,-132.73C359.25,-134.51 352.95,-136.43 347,-138.5 323.86,-146.53 298.38,-158.54 281.62,-166.9"/>
<polygon fill="#63b8ff" stroke="#63b8ff" points="366.67,-136.06 375.42,-130.09 364.85,-129.3 366.67,-136.06"/>
</a>
</g>
</g>
</g>
</svg>

<g id="navigator" transform="translate(0 0)" fill="#404254">
  <rect fill="#f2f5e9" fill-opacity="0.5" stroke="#606060" stroke-width=".5" x="0" y="0" width="60" height="60"/>
  <use id="zoomplus" xlink:href="#zoomPlus" x="17" y="9" onmousedown="handleZoom(evt,'in')"/>
  <use id="zoomminus" xlink:href="#zoomMin" x="42" y="9" onmousedown="handleZoom(evt,'out')"/>
  <use id="reset" xlink:href="#resetDef" x="30" y="36" onmousedown="handleReset()"/>
   <use id="arrowup" xlink:href="#arrowUp" x="0" y="0" onmousedown="handlePan(0,-1)"/>
  <use id="arrowright" xlink:href="#arrowRight" x="0" y="0" onmousedown="handlePan(1,0)"/>
  <use id="arrowdown" xlink:href="#arrowDown" x="0" y="0" onmousedown="handlePan(0,1)"/>
  <use id="arrowleft" xlink:href="#arrowLeft" x="0" y="0" onmousedown="handlePan(-1,0)"/>
</g>
<svg viewBox="0 0 15 15" width="100%" height="30px" preserveAspectRatio="xMaxYMin meet">
 <g id="arrow_out" transform="scale(0.3 0.3)">
  <a xlink:href="hmc630x_8h_a0cc41502b228b0f70a78dac24e0df9d4_icgraph_org.svg" target="_base">
   <rect id="button" ry="5" rx="5" y="6" x="6" height="38" width="38"
        fill="#f2f5e9" fill-opacity="0.5" stroke="#606060" stroke-width="1.0"/>
   <path id="arrow"
     d="M 11.500037,31.436501 C 11.940474,20.09759 22.043105,11.32322 32.158766,21.979434 L 37.068811,17.246167 C 37.068811,17.246167 37.088388,32 37.088388,32 L 22.160133,31.978069 C 22.160133,31.978069 26.997745,27.140456 26.997745,27.140456 C 18.528582,18.264221 13.291696,25.230495 11.500037,31.436501 z"
     style="fill:#404040;"/>
  </a>
 </g>
</svg>

<style type='text/css'>
<![CDATA[
[data-mouse-over-selected='false'] { opacity: 0.7; }
[data-mouse-over-selected='true']  { opacity: 1.0; }
]]>
</style>
<script type="application/ecmascript"><![CDATA[
document.addEventListener('DOMContentLoaded', (event) => {
  highlightEdges();
  highlightAdjacentNodes();
});
]]></script>
</svg>
