<?xml version="1.0" encoding="UTF-8" standalone="no"?>
<!DOCTYPE svg PUBLIC "-//W3C//DTD SVG 1.1//EN"
 "http://www.w3.org/Graphics/SVG/1.1/DTD/svg11.dtd">
<!-- Generated by graphviz version 2.43.0 (0)
 -->
<!-- Title: hmc7044_init Pages: 1 -->
<svg width="290pt" height="101pt"
 viewBox="0.00 0.00 290.00 101.00" xmlns="http://www.w3.org/2000/svg" xmlns:xlink="http://www.w3.org/1999/xlink">
<g id="graph0" class="graph" transform="scale(1 1) rotate(0) translate(4 97)">
<title>hmc7044_init</title>
<!-- Node1 -->
<g id="Node000001" class="node">
<title>Node1</title>
<g id="a_Node000001"><a xlink:title=" ">
<polygon fill="#999999" stroke="#666666" points="282,-56 199,-56 199,-37 282,-37 282,-56"/>
<text text-anchor="middle" x="240.5" y="-44" font-family="Helvetica,sans-Serif" font-size="10.00">hmc7044_init</text>
</a>
</g>
</g>
<!-- Node2 -->
<g id="Node000002" class="node">
<title>Node2</title>
<g id="a_Node000002"><a xlink:href="app__clock_8c.html#ac95a42f4c3d213e62ef9eb7223d9f41a" target="_top" xlink:title="Application clock setup.">
<polygon fill="white" stroke="#666666" points="163,-93 77,-93 77,-74 163,-74 163,-93"/>
<text text-anchor="middle" x="120" y="-81" font-family="Helvetica,sans-Serif" font-size="10.00">app_clock_init</text>
</a>
</g>
</g>
<!-- Node1&#45;&gt;Node2 -->
<g id="edge1_Node000001_Node000002" class="edge">
<title>Node1&#45;&gt;Node2</title>
<g id="a_edge1_Node000001_Node000002"><a xlink:title=" ">
<path fill="none" stroke="#63b8ff" d="M199.14,-59.1C183.66,-63.93 166.27,-69.37 151.83,-73.88"/>
<polygon fill="#63b8ff" stroke="#63b8ff" points="200.48,-62.35 208.98,-56.03 198.39,-55.67 200.48,-62.35"/>
</a>
</g>
</g>
<!-- Node4 -->
<g id="Node000004" class="node">
<title>Node4</title>
<g id="a_Node000004"><a xlink:href="adrv9009_2src_2app_2app__clocking_8c.html#adab63a630c95f109e3b4330b5b0253b6" target="_top" xlink:title=" ">
<polygon fill="white" stroke="#666666" points="159,-56 81,-56 81,-37 159,-37 159,-56"/>
<text text-anchor="middle" x="120" y="-44" font-family="Helvetica,sans-Serif" font-size="10.00">clocking_init</text>
</a>
</g>
</g>
<!-- Node1&#45;&gt;Node4 -->
<g id="edge3_Node000001_Node000004" class="edge">
<title>Node1&#45;&gt;Node4</title>
<g id="a_edge3_Node000001_Node000004"><a xlink:title=" ">
<path fill="none" stroke="#63b8ff" d="M188.57,-46.5C178.67,-46.5 168.46,-46.5 159.06,-46.5"/>
<polygon fill="#63b8ff" stroke="#63b8ff" points="188.72,-50 198.72,-46.5 188.72,-43 188.72,-50"/>
</a>
</g>
</g>
<!-- Node6 -->
<g id="Node000006" class="node">
<title>Node6</title>
<g id="a_Node000006"><a xlink:href="headless__zu_8c.html#a840291bc02cba5474a4cb46a9b9566fe" target="_top" xlink:title=" ">
<polygon fill="white" stroke="#666666" points="140.5,-19 99.5,-19 99.5,0 140.5,0 140.5,-19"/>
<text text-anchor="middle" x="120" y="-7" font-family="Helvetica,sans-Serif" font-size="10.00">main</text>
</a>
</g>
</g>
<!-- Node1&#45;&gt;Node6 -->
<g id="edge5_Node000001_Node000006" class="edge">
<title>Node1&#45;&gt;Node6</title>
<g id="a_edge5_Node000001_Node000006"><a xlink:title=" ">
<path fill="none" stroke="#63b8ff" d="M199.28,-33.94C179.5,-27.76 156.55,-20.6 140.64,-15.63"/>
<polygon fill="#63b8ff" stroke="#63b8ff" points="198.39,-37.33 208.98,-36.97 200.48,-30.65 198.39,-37.33"/>
</a>
</g>
</g>
<!-- Node3 -->
<g id="Node000003" class="node">
<title>Node3</title>
<g id="a_Node000003"><a xlink:href="ad9081_2src_2app_8c.html#a840291bc02cba5474a4cb46a9b9566fe" target="_top" xlink:title=" ">
<polygon fill="white" stroke="#666666" points="41,-93 0,-93 0,-74 41,-74 41,-93"/>
<text text-anchor="middle" x="20.5" y="-81" font-family="Helvetica,sans-Serif" font-size="10.00">main</text>
</a>
</g>
</g>
<!-- Node2&#45;&gt;Node3 -->
<g id="edge2_Node000002_Node000003" class="edge">
<title>Node2&#45;&gt;Node3</title>
<g id="a_edge2_Node000002_Node000003"><a xlink:title=" ">
<path fill="none" stroke="#63b8ff" d="M66.52,-83.5C57.42,-83.5 48.5,-83.5 41.03,-83.5"/>
<polygon fill="#63b8ff" stroke="#63b8ff" points="66.8,-87 76.8,-83.5 66.8,-80 66.8,-87"/>
</a>
</g>
</g>
<!-- Node5 -->
<g id="Node000005" class="node">
<title>Node5</title>
<g id="a_Node000005"><a xlink:href="headless__arm_8c.html#a840291bc02cba5474a4cb46a9b9566fe" target="_top" xlink:title=" ">
<polygon fill="white" stroke="#666666" points="41,-56 0,-56 0,-37 41,-37 41,-56"/>
<text text-anchor="middle" x="20.5" y="-44" font-family="Helvetica,sans-Serif" font-size="10.00">main</text>
</a>
</g>
</g>
<!-- Node4&#45;&gt;Node5 -->
<g id="edge4_Node000004_Node000005" class="edge">
<title>Node4&#45;&gt;Node5</title>
<g id="a_edge4_Node000004_Node000005"><a xlink:title=" ">
<path fill="none" stroke="#63b8ff" d="M70.44,-46.5C60.06,-46.5 49.67,-46.5 41.15,-46.5"/>
<polygon fill="#63b8ff" stroke="#63b8ff" points="70.75,-50 80.75,-46.5 70.75,-43 70.75,-50"/>
</a>
</g>
</g>
</g>
</svg>
