<?xml version="1.0" encoding="UTF-8" standalone="no"?>
<!DOCTYPE svg PUBLIC "-//W3C//DTD SVG 1.1//EN"
 "http://www.w3.org/Graphics/SVG/1.1/DTD/svg11.dtd">
<!-- Generated by graphviz version 2.43.0 (0)
 -->
<!-- Title: drivers/frequency/hmc7044/hmc7044.h Pages: 1 -->
<svg width="818pt" height="104pt"
 viewBox="0.00 0.00 818.00 104.00" xmlns="http://www.w3.org/2000/svg" xmlns:xlink="http://www.w3.org/1999/xlink">
<g id="graph0" class="graph" transform="scale(1 1) rotate(0) translate(4 100)">
<title>drivers/frequency/hmc7044/hmc7044.h</title>
<!-- Node1 -->
<g id="Node000001" class="node">
<title>Node1</title>
<g id="a_Node000001"><a xlink:title="Header file of HMC7044, HMC7043 Driver.">
<polygon fill="#999999" stroke="#666666" points="494,-96 344,-96 344,-66 494,-66 494,-96"/>
<text text-anchor="start" x="352" y="-84" font-family="Helvetica,sans-Serif" font-size="10.00">drivers/frequency/hmc7044</text>
<text text-anchor="middle" x="419" y="-73" font-family="Helvetica,sans-Serif" font-size="10.00">/hmc7044.h</text>
</a>
</g>
</g>
<!-- Node2 -->
<g id="Node000002" class="node">
<title>Node2</title>
<g id="a_Node000002"><a xlink:href="hmc7044_8c.html" target="_top" xlink:title="Implementation of HMC7044, HMC7043 Driver.">
<polygon fill="white" stroke="#666666" points="150,-30 0,-30 0,0 150,0 150,-30"/>
<text text-anchor="start" x="8" y="-18" font-family="Helvetica,sans-Serif" font-size="10.00">drivers/frequency/hmc7044</text>
<text text-anchor="middle" x="75" y="-7" font-family="Helvetica,sans-Serif" font-size="10.00">/hmc7044.c</text>
</a>
</g>
</g>
<!-- Node1&#45;&gt;Node2 -->
<g id="edge1_Node000001_Node000002" class="edge">
<title>Node1&#45;&gt;Node2</title>
<g id="a_edge1_Node000001_Node000002"><a xlink:title=" ">
<path fill="none" stroke="#63b8ff" d="M333.98,-64.18C277.64,-53.7 204.41,-40.08 150.2,-29.99"/>
<polygon fill="#63b8ff" stroke="#63b8ff" points="333.46,-67.65 343.93,-66.03 334.74,-60.76 333.46,-67.65"/>
</a>
</g>
</g>
<!-- Node3 -->
<g id="Node000003" class="node">
<title>Node3</title>
<g id="a_Node000003"><a xlink:href="ad9081_2src_2app_8c.html" target="_top" xlink:title="AD9081 application example.">
<polygon fill="white" stroke="#666666" points="280,-30 168,-30 168,0 280,0 280,-30"/>
<text text-anchor="start" x="176" y="-18" font-family="Helvetica,sans-Serif" font-size="10.00">projects/ad9081/src</text>
<text text-anchor="middle" x="224" y="-7" font-family="Helvetica,sans-Serif" font-size="10.00">/app.c</text>
</a>
</g>
</g>
<!-- Node1&#45;&gt;Node3 -->
<g id="edge2_Node000001_Node000003" class="edge">
<title>Node1&#45;&gt;Node3</title>
<g id="a_edge2_Node000001_Node000003"><a xlink:title=" ">
<path fill="none" stroke="#63b8ff" d="M366.36,-62.72C335.11,-52.47 296.01,-39.63 266.69,-30.01"/>
<polygon fill="#63b8ff" stroke="#63b8ff" points="365.61,-66.16 376.21,-65.95 367.8,-59.51 365.61,-66.16"/>
</a>
</g>
</g>
<!-- Node4 -->
<g id="Node000004" class="node">
<title>Node4</title>
<g id="a_Node000004"><a xlink:href="app__clock_8c.html" target="_top" xlink:title="Application clocks initialization.">
<polygon fill="white" stroke="#666666" points="410,-30 298,-30 298,0 410,0 410,-30"/>
<text text-anchor="start" x="306" y="-18" font-family="Helvetica,sans-Serif" font-size="10.00">projects/ad9081/src</text>
<text text-anchor="middle" x="354" y="-7" font-family="Helvetica,sans-Serif" font-size="10.00">/app_clock.c</text>
</a>
</g>
</g>
<!-- Node1&#45;&gt;Node4 -->
<g id="edge3_Node000001_Node000004" class="edge">
<title>Node1&#45;&gt;Node4</title>
<g id="a_edge3_Node000001_Node000004"><a xlink:title=" ">
<path fill="none" stroke="#63b8ff" d="M397.31,-58.65C387.79,-49.27 376.88,-38.53 368.39,-30.16"/>
<polygon fill="#63b8ff" stroke="#63b8ff" points="394.99,-61.27 404.57,-65.8 399.9,-56.29 394.99,-61.27"/>
</a>
</g>
</g>
<!-- Node5 -->
<g id="Node000005" class="node">
<title>Node5</title>
<g id="a_Node000005"><a xlink:href="ad9172_2src_2main_8c.html" target="_top" xlink:title="Implementation of Main Function.">
<polygon fill="white" stroke="#666666" points="540,-30 428,-30 428,0 540,0 540,-30"/>
<text text-anchor="start" x="436" y="-18" font-family="Helvetica,sans-Serif" font-size="10.00">projects/ad9172/src</text>
<text text-anchor="middle" x="484" y="-7" font-family="Helvetica,sans-Serif" font-size="10.00">/main.c</text>
</a>
</g>
</g>
<!-- Node1&#45;&gt;Node5 -->
<g id="edge4_Node000001_Node000005" class="edge">
<title>Node1&#45;&gt;Node5</title>
<g id="a_edge4_Node000001_Node000005"><a xlink:title=" ">
<path fill="none" stroke="#63b8ff" d="M440.69,-58.65C450.21,-49.27 461.12,-38.53 469.61,-30.16"/>
<polygon fill="#63b8ff" stroke="#63b8ff" points="438.1,-56.29 433.43,-65.8 443.01,-61.27 438.1,-56.29"/>
</a>
</g>
</g>
<!-- Node6 -->
<g id="Node000006" class="node">
<title>Node6</title>
<g id="a_Node000006"><a xlink:href="ad9208_2src_2main_8c.html" target="_top" xlink:title="Implementation of Main Function.">
<polygon fill="white" stroke="#666666" points="670,-30 558,-30 558,0 670,0 670,-30"/>
<text text-anchor="start" x="566" y="-18" font-family="Helvetica,sans-Serif" font-size="10.00">projects/ad9208/src</text>
<text text-anchor="middle" x="614" y="-7" font-family="Helvetica,sans-Serif" font-size="10.00">/main.c</text>
</a>
</g>
</g>
<!-- Node1&#45;&gt;Node6 -->
<g id="edge5_Node000001_Node000006" class="edge">
<title>Node1&#45;&gt;Node6</title>
<g id="a_edge5_Node000001_Node000006"><a xlink:title=" ">
<path fill="none" stroke="#63b8ff" d="M471.64,-62.72C502.89,-52.47 541.99,-39.63 571.31,-30.01"/>
<polygon fill="#63b8ff" stroke="#63b8ff" points="470.2,-59.51 461.79,-65.95 472.39,-66.16 470.2,-59.51"/>
</a>
</g>
</g>
<!-- Node7 -->
<g id="Node000007" class="node">
<title>Node7</title>
<g id="a_Node000007"><a xlink:href="headless__zu_8c.html" target="_top" xlink:title="Contains example code for user integration with their application. This file contains code for ZU11EG...">
<polygon fill="white" stroke="#666666" points="810,-30 688,-30 688,0 810,0 810,-30"/>
<text text-anchor="start" x="696" y="-18" font-family="Helvetica,sans-Serif" font-size="10.00">projects/adrv9009/src</text>
<text text-anchor="middle" x="749" y="-7" font-family="Helvetica,sans-Serif" font-size="10.00">/app/headless_zu.c</text>
</a>
</g>
</g>
<!-- Node1&#45;&gt;Node7 -->
<g id="edge6_Node000001_Node000007" class="edge">
<title>Node1&#45;&gt;Node7</title>
<g id="a_edge6_Node000001_Node000007"><a xlink:title=" ">
<path fill="none" stroke="#63b8ff" d="M502.7,-64.07C553.67,-54.32 620.11,-41.55 679,-30 681.92,-29.43 684.91,-28.84 687.92,-28.24"/>
<polygon fill="#63b8ff" stroke="#63b8ff" points="501.88,-60.66 492.71,-65.97 503.19,-67.54 501.88,-60.66"/>
</a>
</g>
</g>
</g>
</svg>
