<?xml version="1.0" encoding="UTF-8" standalone="no"?>
<!DOCTYPE svg PUBLIC "-//W3C//DTD SVG 1.1//EN"
 "http://www.w3.org/Graphics/SVG/1.1/DTD/svg11.dtd">
<!-- Generated by graphviz version 2.43.0 (0)
 -->
<!-- Title: drivers/power/adp5055/iio_adp5055.c Pages: 1 -->
<!--zoomable 313 -->

<svg id="main" version="1.1" xmlns="http://www.w3.org/2000/svg" xmlns:xlink="http://www.w3.org/1999/xlink" xml:space="preserve" onload="init(evt)">

<style type="text/css"><![CDATA[
.node, .edge {opacity: 0.7;}
.node.selected, .edge.selected {opacity: 1;}
.edge:hover path { stroke: red; }
.edge:hover polygon { stroke: red; fill: red; }
]]></style>

<defs>
  <circle id="rim" cx="0" cy="0" r="7"/>
  <circle id="rim2" cx="0" cy="0" r="3.5"/>
  <g id="zoomPlus">
    <use xlink:href="#rim" fill="#404040"><set attributeName="fill" to="#808080" begin="zoomplus.mouseover" end="zoomplus.mouseout"/></use>
    <path d="M-4,0h8M0,-4v8" fill="none" stroke="white" stroke-width="1.5" pointer-events="none"/>
  </g>
  <g id="zoomMin">
    <use xlink:href="#rim" fill="#404040"><set attributeName="fill" to="#808080" begin="zoomminus.mouseover" end="zoomminus.mouseout"/></use>
    <path d="M-4,0h8" fill="none" stroke="white" stroke-width="1.5" pointer-events="none"/>
  </g>
  <g id="arrowUp" transform="translate(30 24)">
    <use xlink:href="#rim"/>
    <path pointer-events="none" fill="none" stroke="white" stroke-width="1.5" d="M0,-3.0v7 M-2.5,-0.5L0,-3.0L2.5,-0.5"/>
  </g>
  <g id="arrowRight" transform="rotate(90) translate(36 -43)">
    <use xlink:href="#rim"/>
    <path pointer-events="none" fill="none" stroke="white" stroke-width="1.5" d="M0,-3.0v7 M-2.5,-0.5L0,-3.0L2.5,-0.5"/>
  </g>
  <g id="arrowDown" transform="rotate(180) translate(-30 -48)">
    <use xlink:href="#rim"/>
    <path pointer-events="none" fill="none" stroke="white" stroke-width="1.5" d="M0,-3.0v7 M-2.5,-0.5L0,-3.0L2.5,-0.5"/>
  </g>
  <g id="arrowLeft" transform="rotate(270) translate(-36 17)">
    <use xlink:href="#rim"/>
    <path pointer-events="none" fill="none" stroke="white" stroke-width="1.5" d="M0,-3.0v7 M-2.5,-0.5L0,-3.0L2.5,-0.5"/>
  </g>
  <g id="resetDef">
    <use xlink:href="#rim2" fill="#404040"><set attributeName="fill" to="#808080" begin="reset.mouseover" end="reset.mouseout"/></use>
  </g>
</defs>
<script type="application/ecmascript">
var viewWidth = 1106;
var viewHeight = 313;
var sectionId = 'dynsection-0';
</script>
<script type="application/ecmascript" xlink:href="svg.min.js"/>
<svg id="graph" class="graph">
<g id="viewport">
<title>drivers/power/adp5055/iio_adp5055.c</title>
<!-- Node1 -->
<g id="Node000001" class="node">
<title>Node1</title>
<g id="a_Node000001"><a xlink:title="Source file for the ADP5055 IIO Driver.">
<polygon fill="#999999" stroke="#666666" points="281,-305 153,-305 153,-275 281,-275 281,-305"/>
<text text-anchor="start" x="161" y="-293" font-family="Helvetica,sans-Serif" font-size="10.00">drivers/power/adp5055</text>
<text text-anchor="middle" x="217" y="-282" font-family="Helvetica,sans-Serif" font-size="10.00">/iio_adp5055.c</text>
</a>
</g>
</g>
<!-- Node2 -->
<g id="Node000002" class="node">
<title>Node2</title>
<g id="a_Node000002"><a xlink:title=" ">
<polygon fill="#e0e0e0" stroke="#999999" points="198.5,-19 145.5,-19 145.5,0 198.5,0 198.5,-19"/>
<text text-anchor="middle" x="172" y="-7" font-family="Helvetica,sans-Serif" font-size="10.00">stdlib.h</text>
</a>
</g>
</g>
<!-- Node1&#45;&gt;Node2 -->
<g id="edge1_Node000001_Node000002" class="edge">
<title>Node1&#45;&gt;Node2</title>
<g id="a_edge1_Node000001_Node000002"><a xlink:title=" ">
<path fill="none" stroke="#63b8ff" d="M152.77,-282.53C88.79,-272.11 0,-245.12 0,-175.5 0,-175.5 0,-175.5 0,-118.5 0,-55.16 84.68,-27.54 135.21,-16.69"/>
<polygon fill="#63b8ff" stroke="#63b8ff" points="136.02,-20.1 145.12,-14.68 134.63,-13.24 136.02,-20.1"/>
</a>
</g>
</g>
<!-- Node3 -->
<g id="Node000003" class="node">
<title>Node3</title>
<g id="a_Node000003"><a xlink:title=" ">
<polygon fill="#e0e0e0" stroke="#999999" points="132,-74 82,-74 82,-55 132,-55 132,-74"/>
<text text-anchor="middle" x="107" y="-62" font-family="Helvetica,sans-Serif" font-size="10.00">stdio.h</text>
</a>
</g>
</g>
<!-- Node1&#45;&gt;Node3 -->
<g id="edge2_Node000001_Node000003" class="edge">
<title>Node1&#45;&gt;Node3</title>
<g id="a_edge2_Node000001_Node000003"><a xlink:title=" ">
<path fill="none" stroke="#63b8ff" d="M199.22,-274.84C188.62,-265.6 175.6,-252.74 167,-239 158.5,-225.42 126.35,-126.17 112.93,-84.18"/>
<polygon fill="#63b8ff" stroke="#63b8ff" points="116.19,-82.86 109.82,-74.4 109.52,-84.99 116.19,-82.86"/>
</a>
</g>
</g>
<!-- Node4 -->
<g id="Node000004" class="node">
<title>Node4</title>
<g id="a_Node000004"><a xlink:title=" ">
<polygon fill="#e0e0e0" stroke="#999999" points="119.5,-239 66.5,-239 66.5,-220 119.5,-220 119.5,-239"/>
<text text-anchor="middle" x="93" y="-227" font-family="Helvetica,sans-Serif" font-size="10.00">string.h</text>
</a>
</g>
</g>
<!-- Node1&#45;&gt;Node4 -->
<g id="edge3_Node000001_Node000004" class="edge">
<title>Node1&#45;&gt;Node4</title>
<g id="a_edge3_Node000001_Node000004"><a xlink:title=" ">
<path fill="none" stroke="#63b8ff" d="M187.3,-274.99C166.98,-265.4 140.24,-252.79 120.42,-243.44"/>
<polygon fill="#63b8ff" stroke="#63b8ff" points="121.85,-240.24 111.31,-239.14 118.86,-246.57 121.85,-240.24"/>
</a>
</g>
</g>
<!-- Node5 -->
<g id="Node000005" class="node">
<title>Node5</title>
<g id="a_Node000005"><a xlink:href="no__os__alloc_8h.html" target="_top" xlink:title=" ">
<polygon fill="white" stroke="#666666" points="111.5,-129 28.5,-129 28.5,-110 111.5,-110 111.5,-129"/>
<text text-anchor="middle" x="70" y="-117" font-family="Helvetica,sans-Serif" font-size="10.00">no_os_alloc.h</text>
</a>
</g>
</g>
<!-- Node1&#45;&gt;Node5 -->
<g id="edge4_Node000001_Node000005" class="edge">
<title>Node1&#45;&gt;Node5</title>
<g id="a_edge4_Node000001_Node000005"><a xlink:title=" ">
<path fill="none" stroke="#63b8ff" d="M152.74,-286.39C118.44,-281.32 78.89,-268.78 57,-239 35.13,-209.25 50.06,-163.41 61.12,-138.36"/>
<polygon fill="#63b8ff" stroke="#63b8ff" points="64.29,-139.82 65.36,-129.28 57.95,-136.86 64.29,-139.82"/>
</a>
</g>
</g>
<!-- Node6 -->
<g id="Node000006" class="node">
<title>Node6</title>
<g id="a_Node000006"><a xlink:href="no__os__error_8h.html" target="_top" xlink:title="Error codes definition.">
<polygon fill="white" stroke="#666666" points="258,-239 176,-239 176,-220 258,-220 258,-239"/>
<text text-anchor="middle" x="217" y="-227" font-family="Helvetica,sans-Serif" font-size="10.00">no_os_error.h</text>
</a>
</g>
</g>
<!-- Node1&#45;&gt;Node6 -->
<g id="edge7_Node000001_Node000006" class="edge">
<title>Node1&#45;&gt;Node6</title>
<g id="a_edge7_Node000001_Node000006"><a xlink:title=" ">
<path fill="none" stroke="#63b8ff" d="M217,-274.84C217,-267.21 217,-257.7 217,-249.45"/>
<polygon fill="#63b8ff" stroke="#63b8ff" points="220.5,-249.27 217,-239.27 213.5,-249.27 220.5,-249.27"/>
</a>
</g>
</g>
<!-- Node8 -->
<g id="Node000008" class="node">
<title>Node8</title>
<g id="a_Node000008"><a xlink:href="no__os__units_8h.html" target="_top" xlink:title="Header file of Units.">
<polygon fill="white" stroke="#666666" points="233.5,-74 150.5,-74 150.5,-55 233.5,-55 233.5,-74"/>
<text text-anchor="middle" x="192" y="-62" font-family="Helvetica,sans-Serif" font-size="10.00">no_os_units.h</text>
</a>
</g>
</g>
<!-- Node1&#45;&gt;Node8 -->
<g id="edge9_Node000001_Node000008" class="edge">
<title>Node1&#45;&gt;Node8</title>
<g id="a_edge9_Node000001_Node000008"><a xlink:title=" ">
<path fill="none" stroke="#63b8ff" d="M237.49,-274.89C248.49,-266.02 260.99,-253.52 267,-239 270.23,-231.2 268.12,-228.37 267,-220 263.64,-194.89 261.97,-188.29 252,-165 238.83,-134.24 217.54,-101.57 204.18,-82.38"/>
<polygon fill="#63b8ff" stroke="#63b8ff" points="206.96,-80.25 198.33,-74.11 201.25,-84.29 206.96,-80.25"/>
</a>
</g>
</g>
<!-- Node9 -->
<g id="Node000009" class="node">
<title>Node9</title>
<g id="a_Node000009"><a xlink:href="no__os__util_8h.html" target="_top" xlink:title="Header file of utility functions.">
<polygon fill="white" stroke="#666666" points="326.5,-74 251.5,-74 251.5,-55 326.5,-55 326.5,-74"/>
<text text-anchor="middle" x="289" y="-62" font-family="Helvetica,sans-Serif" font-size="10.00">no_os_util.h</text>
</a>
</g>
</g>
<!-- Node1&#45;&gt;Node9 -->
<g id="edge10_Node000001_Node000009" class="edge">
<title>Node1&#45;&gt;Node9</title>
<g id="a_edge10_Node000001_Node000009"><a xlink:title=" ">
<path fill="none" stroke="#63b8ff" d="M244.76,-274.81C258.2,-266.36 273.1,-254.28 281,-239 307.25,-188.2 299,-117.45 292.96,-84.19"/>
<polygon fill="#63b8ff" stroke="#63b8ff" points="296.33,-83.22 290.97,-74.08 289.46,-84.57 296.33,-83.22"/>
</a>
</g>
</g>
<!-- Node12 -->
<g id="Node000012" class="node">
<title>Node12</title>
<g id="a_Node000012"><a xlink:href="adp5055_8h.html" target="_top" xlink:title="Header file for the ADP5055 Driver.">
<polygon fill="white" stroke="#666666" points="489,-129 421,-129 421,-110 489,-110 489,-129"/>
<text text-anchor="middle" x="455" y="-117" font-family="Helvetica,sans-Serif" font-size="10.00">adp5055.h</text>
</a>
</g>
</g>
<!-- Node1&#45;&gt;Node12 -->
<g id="edge14_Node000001_Node000012" class="edge">
<title>Node1&#45;&gt;Node12</title>
<g id="a_edge14_Node000001_Node000012"><a xlink:title=" ">
<path fill="none" stroke="#63b8ff" d="M262.83,-274.96C286.43,-266.55 314.99,-254.47 338,-239 381.59,-209.7 422.24,-162.3 442.17,-137.25"/>
<polygon fill="#63b8ff" stroke="#63b8ff" points="445.13,-139.14 448.54,-129.11 439.62,-134.83 445.13,-139.14"/>
</a>
</g>
</g>
<!-- Node16 -->
<g id="Node000016" class="node">
<title>Node16</title>
<g id="a_Node000016"><a xlink:href="iio__adp5055_8h.html" target="_top" xlink:title="Header file for the ADP5055 IIO Driver.">
<polygon fill="white" stroke="#666666" points="676.5,-239 591.5,-239 591.5,-220 676.5,-220 676.5,-239"/>
<text text-anchor="middle" x="634" y="-227" font-family="Helvetica,sans-Serif" font-size="10.00">iio_adp5055.h</text>
</a>
</g>
</g>
<!-- Node1&#45;&gt;Node16 -->
<g id="edge27_Node000001_Node000016" class="edge">
<title>Node1&#45;&gt;Node16</title>
<g id="a_edge27_Node000001_Node000016"><a xlink:title=" ">
<path fill="none" stroke="#63b8ff" d="M281.24,-279.99C363.5,-268.45 504.52,-248.66 580.98,-237.94"/>
<polygon fill="#63b8ff" stroke="#63b8ff" points="581.91,-241.34 591.32,-236.49 580.93,-234.41 581.91,-241.34"/>
</a>
</g>
</g>
<!-- Node5&#45;&gt;Node2 -->
<g id="edge6_Node000005_Node000002" class="edge">
<title>Node5&#45;&gt;Node2</title>
<g id="a_edge6_Node000005_Node000002"><a xlink:title=" ">
<path fill="none" stroke="#63b8ff" d="M67.77,-109.81C64.95,-96.69 61.69,-71.6 73,-55 87.16,-34.2 113.49,-22.99 135.44,-17.03"/>
<polygon fill="#63b8ff" stroke="#63b8ff" points="136.28,-20.42 145.15,-14.64 134.61,-13.63 136.28,-20.42"/>
</a>
</g>
</g>
<!-- Node5&#45;&gt;Node3 -->
<g id="edge5_Node000005_Node000003" class="edge">
<title>Node5&#45;&gt;Node3</title>
<g id="a_edge5_Node000005_Node000003"><a xlink:title=" ">
<path fill="none" stroke="#63b8ff" d="M76.11,-109.75C81.28,-102.34 88.85,-91.5 95.19,-82.41"/>
<polygon fill="#63b8ff" stroke="#63b8ff" points="98.15,-84.29 101,-74.09 92.41,-80.29 98.15,-84.29"/>
</a>
</g>
</g>
<!-- Node7 -->
<g id="Node000007" class="node">
<title>Node7</title>
<g id="a_Node000007"><a xlink:href="errno_8h.html" target="_top" xlink:title="Error macro definition for ARM Compiler.">
<polygon fill="white" stroke="#666666" points="242.5,-184 191.5,-184 191.5,-165 242.5,-165 242.5,-184"/>
<text text-anchor="middle" x="217" y="-172" font-family="Helvetica,sans-Serif" font-size="10.00">errno.h</text>
</a>
</g>
</g>
<!-- Node6&#45;&gt;Node7 -->
<g id="edge8_Node000006_Node000007" class="edge">
<title>Node6&#45;&gt;Node7</title>
<g id="a_edge8_Node000006_Node000007"><a xlink:title=" ">
<path fill="none" stroke="#63b8ff" d="M217,-219.75C217,-212.8 217,-202.85 217,-194.13"/>
<polygon fill="#63b8ff" stroke="#63b8ff" points="220.5,-194.09 217,-184.09 213.5,-194.09 220.5,-194.09"/>
</a>
</g>
</g>
<!-- Node9&#45;&gt;Node2 -->
<g id="edge12_Node000009_Node000002" class="edge">
<title>Node9&#45;&gt;Node2</title>
<g id="a_edge12_Node000009_Node000002"><a xlink:title=" ">
<path fill="none" stroke="#63b8ff" d="M270.2,-54.98C251.38,-46.46 222.18,-33.23 200.5,-23.41"/>
<polygon fill="#63b8ff" stroke="#63b8ff" points="201.69,-20.11 191.14,-19.17 198.8,-26.48 201.69,-20.11"/>
</a>
</g>
</g>
<!-- Node10 -->
<g id="Node000010" class="node">
<title>Node10</title>
<g id="a_Node000010"><a xlink:title=" ">
<polygon fill="#e0e0e0" stroke="#999999" points="649.5,-19 596.5,-19 596.5,0 649.5,0 649.5,-19"/>
<text text-anchor="middle" x="623" y="-7" font-family="Helvetica,sans-Serif" font-size="10.00">stdint.h</text>
</a>
</g>
</g>
<!-- Node9&#45;&gt;Node10 -->
<g id="edge11_Node000009_Node000010" class="edge">
<title>Node9&#45;&gt;Node10</title>
<g id="a_edge11_Node000009_Node000010"><a xlink:title=" ">
<path fill="none" stroke="#63b8ff" d="M326.7,-56.6C329.84,-56.05 332.97,-55.51 336,-55 425.74,-39.93 531.58,-23.99 586.23,-15.9"/>
<polygon fill="#63b8ff" stroke="#63b8ff" points="587.07,-19.31 596.45,-14.39 586.05,-12.39 587.07,-19.31"/>
</a>
</g>
</g>
<!-- Node11 -->
<g id="Node000011" class="node">
<title>Node11</title>
<g id="a_Node000011"><a xlink:title=" ">
<polygon fill="#e0e0e0" stroke="#999999" points="1018,-19 956,-19 956,0 1018,0 1018,-19"/>
<text text-anchor="middle" x="987" y="-7" font-family="Helvetica,sans-Serif" font-size="10.00">stdbool.h</text>
</a>
</g>
</g>
<!-- Node9&#45;&gt;Node11 -->
<g id="edge13_Node000009_Node000011" class="edge">
<title>Node9&#45;&gt;Node11</title>
<g id="a_edge13_Node000009_Node000011"><a xlink:title=" ">
<path fill="none" stroke="#63b8ff" d="M326.65,-56.31C329.81,-55.82 332.96,-55.38 336,-55 565.33,-26.51 842.54,-15.17 945.71,-11.74"/>
<polygon fill="#63b8ff" stroke="#63b8ff" points="945.83,-15.23 955.71,-11.41 945.61,-8.24 945.83,-15.23"/>
</a>
</g>
</g>
<!-- Node12&#45;&gt;Node3 -->
<g id="edge17_Node000012_Node000003" class="edge">
<title>Node12&#45;&gt;Node3</title>
<g id="a_edge17_Node000012_Node000003"><a xlink:title=" ">
<path fill="none" stroke="#63b8ff" d="M420.55,-114.71C362.7,-108.1 242.53,-93.31 142,-74 141.9,-73.98 141.8,-73.96 141.7,-73.94"/>
<polygon fill="#63b8ff" stroke="#63b8ff" points="142.68,-70.57 132.17,-71.92 141.23,-77.42 142.68,-70.57"/>
</a>
</g>
</g>
<!-- Node12&#45;&gt;Node8 -->
<g id="edge26_Node000012_Node000008" class="edge">
<title>Node12&#45;&gt;Node8</title>
<g id="a_edge26_Node000012_Node000008"><a xlink:title=" ">
<path fill="none" stroke="#63b8ff" d="M420.89,-111.63C375.93,-102.57 296.44,-86.55 243.98,-75.97"/>
<polygon fill="#63b8ff" stroke="#63b8ff" points="244.36,-72.48 233.86,-73.94 242.97,-79.34 244.36,-72.48"/>
</a>
</g>
</g>
<!-- Node12&#45;&gt;Node9 -->
<g id="edge25_Node000012_Node000009" class="edge">
<title>Node12&#45;&gt;Node9</title>
<g id="a_edge25_Node000012_Node000009"><a xlink:title=" ">
<path fill="none" stroke="#63b8ff" d="M428.33,-109.98C400.46,-101.09 356.55,-87.07 325.48,-77.15"/>
<polygon fill="#63b8ff" stroke="#63b8ff" points="326.47,-73.79 315.88,-74.08 324.34,-80.46 326.47,-73.79"/>
</a>
</g>
</g>
<!-- Node12&#45;&gt;Node10 -->
<g id="edge15_Node000012_Node000010" class="edge">
<title>Node12&#45;&gt;Node10</title>
<g id="a_edge15_Node000012_Node000010"><a xlink:title=" ">
<path fill="none" stroke="#63b8ff" d="M468.93,-109.88C483.28,-100.98 506.28,-86.63 526,-74 552.19,-57.22 582.11,-37.56 601.71,-24.61"/>
<polygon fill="#63b8ff" stroke="#63b8ff" points="603.78,-27.44 610.19,-19 599.91,-21.6 603.78,-27.44"/>
</a>
</g>
</g>
<!-- Node12&#45;&gt;Node11 -->
<g id="edge16_Node000012_Node000011" class="edge">
<title>Node12&#45;&gt;Node11</title>
<g id="a_edge16_Node000012_Node000011"><a xlink:title=" ">
<path fill="none" stroke="#63b8ff" d="M489.22,-116.59C601.01,-110.2 949.39,-89.15 968,-74 981.1,-63.34 985.42,-44.03 986.73,-29.49"/>
<polygon fill="#63b8ff" stroke="#63b8ff" points="990.24,-29.28 987.24,-19.12 983.25,-28.93 990.24,-29.28"/>
</a>
</g>
</g>
<!-- Node13 -->
<g id="Node000013" class="node">
<title>Node13</title>
<g id="a_Node000013"><a xlink:href="no__os__gpio_8h.html" target="_top" xlink:title="Header file of GPIO Interface.">
<polygon fill="white" stroke="#666666" points="425,-74 345,-74 345,-55 425,-55 425,-74"/>
<text text-anchor="middle" x="385" y="-62" font-family="Helvetica,sans-Serif" font-size="10.00">no_os_gpio.h</text>
</a>
</g>
</g>
<!-- Node12&#45;&gt;Node13 -->
<g id="edge18_Node000012_Node000013" class="edge">
<title>Node12&#45;&gt;Node13</title>
<g id="a_edge18_Node000012_Node000013"><a xlink:title=" ">
<path fill="none" stroke="#63b8ff" d="M443.75,-109.98C433.2,-102 417.2,-89.88 404.56,-80.31"/>
<polygon fill="#63b8ff" stroke="#63b8ff" points="406.54,-77.42 396.45,-74.17 402.31,-83 406.54,-77.42"/>
</a>
</g>
</g>
<!-- Node14 -->
<g id="Node000014" class="node">
<title>Node14</title>
<g id="a_Node000014"><a xlink:href="no__os__i2c_8h.html" target="_top" xlink:title="Header file of I2C Interface.">
<polygon fill="white" stroke="#666666" points="517,-74 443,-74 443,-55 517,-55 517,-74"/>
<text text-anchor="middle" x="480" y="-62" font-family="Helvetica,sans-Serif" font-size="10.00">no_os_i2c.h</text>
</a>
</g>
</g>
<!-- Node12&#45;&gt;Node14 -->
<g id="edge20_Node000012_Node000014" class="edge">
<title>Node12&#45;&gt;Node14</title>
<g id="a_edge20_Node000012_Node000014"><a xlink:title=" ">
<path fill="none" stroke="#63b8ff" d="M459.13,-109.75C462.51,-102.57 467.42,-92.18 471.62,-83.27"/>
<polygon fill="#63b8ff" stroke="#63b8ff" points="474.85,-84.63 475.95,-74.09 468.52,-81.64 474.85,-84.63"/>
</a>
</g>
</g>
<!-- Node15 -->
<g id="Node000015" class="node">
<title>Node15</title>
<g id="a_Node000015"><a xlink:href="no__os__pwm_8h.html" target="_top" xlink:title="Header file of PWM Interface.">
<polygon fill="white" stroke="#666666" points="958.5,-74 875.5,-74 875.5,-55 958.5,-55 958.5,-74"/>
<text text-anchor="middle" x="917" y="-62" font-family="Helvetica,sans-Serif" font-size="10.00">no_os_pwm.h</text>
</a>
</g>
</g>
<!-- Node12&#45;&gt;Node15 -->
<g id="edge22_Node000012_Node000015" class="edge">
<title>Node12&#45;&gt;Node15</title>
<g id="a_edge22_Node000012_Node000015"><a xlink:title=" ">
<path fill="none" stroke="#63b8ff" d="M489.18,-115.47C558.17,-109.2 719.19,-93.85 865.24,-74.03"/>
<polygon fill="#63b8ff" stroke="#63b8ff" points="865.85,-77.48 875.28,-72.65 864.9,-70.54 865.85,-77.48"/>
</a>
</g>
</g>
<!-- Node13&#45;&gt;Node10 -->
<g id="edge19_Node000013_Node000010" class="edge">
<title>Node13&#45;&gt;Node10</title>
<g id="a_edge19_Node000013_Node000010"><a xlink:title=" ">
<path fill="none" stroke="#63b8ff" d="M423.24,-54.98C468.13,-44.99 542.04,-28.53 586.27,-18.68"/>
<polygon fill="#63b8ff" stroke="#63b8ff" points="587.3,-22.04 596.3,-16.45 585.78,-15.2 587.3,-22.04"/>
</a>
</g>
</g>
<!-- Node14&#45;&gt;Node10 -->
<g id="edge21_Node000014_Node000010" class="edge">
<title>Node14&#45;&gt;Node10</title>
<g id="a_edge21_Node000014_Node000010"><a xlink:title=" ">
<path fill="none" stroke="#63b8ff" d="M502.98,-54.98C526.5,-46.27 563.29,-32.63 589.94,-22.75"/>
<polygon fill="#63b8ff" stroke="#63b8ff" points="591.45,-25.93 599.61,-19.17 589.01,-19.36 591.45,-25.93"/>
</a>
</g>
</g>
<!-- Node15&#45;&gt;Node10 -->
<g id="edge23_Node000015_Node000010" class="edge">
<title>Node15&#45;&gt;Node10</title>
<g id="a_edge23_Node000015_Node000010"><a xlink:title=" ">
<path fill="none" stroke="#63b8ff" d="M875.19,-55.96C817.55,-45.57 714.61,-27.01 659.76,-17.13"/>
<polygon fill="#63b8ff" stroke="#63b8ff" points="660.25,-13.66 649.78,-15.33 659.01,-20.55 660.25,-13.66"/>
</a>
</g>
</g>
<!-- Node15&#45;&gt;Node11 -->
<g id="edge24_Node000015_Node000011" class="edge">
<title>Node15&#45;&gt;Node11</title>
<g id="a_edge24_Node000015_Node000011"><a xlink:title=" ">
<path fill="none" stroke="#63b8ff" d="M928.25,-54.98C938.8,-47 954.8,-34.88 967.44,-25.31"/>
<polygon fill="#63b8ff" stroke="#63b8ff" points="969.69,-28 975.55,-19.17 965.46,-22.42 969.69,-28"/>
</a>
</g>
</g>
<!-- Node16&#45;&gt;Node11 -->
<g id="edge28_Node000016_Node000011" class="edge">
<title>Node16&#45;&gt;Node11</title>
<g id="a_edge28_Node000016_Node000011"><a xlink:title=" ">
<path fill="none" stroke="#63b8ff" d="M676.62,-221.04C781.42,-201.7 1046.57,-146.36 1093,-74 1111.53,-45.12 1065.52,-27.54 1028.39,-18.41"/>
<polygon fill="#63b8ff" stroke="#63b8ff" points="1028.74,-14.9 1018.21,-16.06 1027.16,-21.72 1028.74,-14.9"/>
</a>
</g>
</g>
<!-- Node16&#45;&gt;Node12 -->
<g id="edge42_Node000016_Node000012" class="edge">
<title>Node16&#45;&gt;Node12</title>
<g id="a_edge42_Node000016_Node000012"><a xlink:title=" ">
<path fill="none" stroke="#63b8ff" d="M619.65,-219.84C588.76,-201.2 515.69,-157.11 478.15,-134.46"/>
<polygon fill="#63b8ff" stroke="#63b8ff" points="479.78,-131.37 469.41,-129.2 476.17,-137.36 479.78,-131.37"/>
</a>
</g>
</g>
<!-- Node17 -->
<g id="Node000017" class="node">
<title>Node17</title>
<g id="a_Node000017"><a xlink:href="iio_8h.html" target="_top" xlink:title="Header file of iio.">
<polygon fill="white" stroke="#666666" points="720,-184 682,-184 682,-165 720,-165 720,-184"/>
<text text-anchor="middle" x="701" y="-172" font-family="Helvetica,sans-Serif" font-size="10.00">iio.h</text>
</a>
</g>
</g>
<!-- Node16&#45;&gt;Node17 -->
<g id="edge29_Node000016_Node000017" class="edge">
<title>Node16&#45;&gt;Node17</title>
<g id="a_edge29_Node000016_Node000017"><a xlink:title=" ">
<path fill="none" stroke="#63b8ff" d="M644.76,-219.98C654.77,-212.07 669.89,-200.11 681.93,-190.58"/>
<polygon fill="#63b8ff" stroke="#63b8ff" points="684.37,-193.12 690.04,-184.17 680.03,-187.63 684.37,-193.12"/>
</a>
</g>
</g>
<!-- Node18 -->
<g id="Node000018" class="node">
<title>Node18</title>
<g id="a_Node000018"><a xlink:href="iio__types_8h.html" target="_top" xlink:title="Header file for iio_types.">
<polygon fill="white" stroke="#666666" points="964,-129 894,-129 894,-110 964,-110 964,-129"/>
<text text-anchor="middle" x="929" y="-117" font-family="Helvetica,sans-Serif" font-size="10.00">iio_types.h</text>
</a>
</g>
</g>
<!-- Node17&#45;&gt;Node18 -->
<g id="edge30_Node000017_Node000018" class="edge">
<title>Node17&#45;&gt;Node18</title>
<g id="a_edge30_Node000017_Node000018"><a xlink:title=" ">
<path fill="none" stroke="#63b8ff" d="M720.05,-169.07C755.79,-160.76 833.82,-142.63 883.75,-131.02"/>
<polygon fill="#63b8ff" stroke="#63b8ff" points="884.7,-134.39 893.65,-128.72 883.12,-127.57 884.7,-134.39"/>
</a>
</g>
</g>
<!-- Node20 -->
<g id="Node000020" class="node">
<title>Node20</title>
<g id="a_Node000020"><a xlink:href="no__os__uart_8h.html" target="_top" xlink:title="Header file of UART interface.">
<polygon fill="white" stroke="#666666" points="740.5,-129 661.5,-129 661.5,-110 740.5,-110 740.5,-129"/>
<text text-anchor="middle" x="701" y="-117" font-family="Helvetica,sans-Serif" font-size="10.00">no_os_uart.h</text>
</a>
</g>
</g>
<!-- Node17&#45;&gt;Node20 -->
<g id="edge35_Node000017_Node000020" class="edge">
<title>Node17&#45;&gt;Node20</title>
<g id="a_edge35_Node000017_Node000020"><a xlink:title=" ">
<path fill="none" stroke="#63b8ff" d="M701,-164.75C701,-157.8 701,-147.85 701,-139.13"/>
<polygon fill="#63b8ff" stroke="#63b8ff" points="704.5,-139.09 701,-129.09 697.5,-139.09 704.5,-139.09"/>
</a>
</g>
</g>
<!-- Node18&#45;&gt;Node10 -->
<g id="edge32_Node000018_Node000010" class="edge">
<title>Node18&#45;&gt;Node10</title>
<g id="a_edge32_Node000018_Node000010"><a xlink:title=" ">
<path fill="none" stroke="#63b8ff" d="M941.06,-109.87C957.56,-97.05 983.46,-72.59 968,-55 947.85,-32.08 744.49,-17.62 659.75,-12.54"/>
<polygon fill="#63b8ff" stroke="#63b8ff" points="659.75,-9.03 649.56,-11.94 659.33,-16.02 659.75,-9.03"/>
</a>
</g>
</g>
<!-- Node18&#45;&gt;Node11 -->
<g id="edge31_Node000018_Node000011" class="edge">
<title>Node18&#45;&gt;Node11</title>
<g id="a_edge31_Node000018_Node000011"><a xlink:title=" ">
<path fill="none" stroke="#63b8ff" d="M964.04,-119C999.01,-117.38 1051.14,-108.77 1077,-74 1094.42,-50.57 1059.04,-32.5 1027.65,-21.73"/>
<polygon fill="#63b8ff" stroke="#63b8ff" points="1028.69,-18.39 1018.09,-18.62 1026.52,-25.04 1028.69,-18.39"/>
</a>
</g>
</g>
<!-- Node19 -->
<g id="Node000019" class="node">
<title>Node19</title>
<g id="a_Node000019"><a xlink:href="no__os__circular__buffer_8h.html" target="_top" xlink:title="Circular buffer library header.">
<polygon fill="white" stroke="#666666" points="857,-74 729,-74 729,-55 857,-55 857,-74"/>
<text text-anchor="middle" x="793" y="-62" font-family="Helvetica,sans-Serif" font-size="10.00">no_os_circular_buffer.h</text>
</a>
</g>
</g>
<!-- Node18&#45;&gt;Node19 -->
<g id="edge33_Node000018_Node000019" class="edge">
<title>Node18&#45;&gt;Node19</title>
<g id="a_edge33_Node000018_Node000019"><a xlink:title=" ">
<path fill="none" stroke="#63b8ff" d="M907.15,-109.98C884.88,-101.3 850.1,-87.75 824.78,-77.88"/>
<polygon fill="#63b8ff" stroke="#63b8ff" points="825.84,-74.54 815.25,-74.17 823.29,-81.06 825.84,-74.54"/>
</a>
</g>
</g>
<!-- Node19&#45;&gt;Node10 -->
<g id="edge34_Node000019_Node000010" class="edge">
<title>Node19&#45;&gt;Node10</title>
<g id="a_edge34_Node000019_Node000010"><a xlink:title=" ">
<path fill="none" stroke="#63b8ff" d="M765.69,-54.98C736.89,-46.01 691.37,-31.82 659.51,-21.88"/>
<polygon fill="#63b8ff" stroke="#63b8ff" points="660.27,-18.45 649.69,-18.82 658.19,-25.14 660.27,-18.45"/>
</a>
</g>
</g>
<!-- Node20&#45;&gt;Node10 -->
<g id="edge36_Node000020_Node000010" class="edge">
<title>Node20&#45;&gt;Node10</title>
<g id="a_edge36_Node000020_Node000010"><a xlink:title=" ">
<path fill="none" stroke="#63b8ff" d="M700.15,-109.96C698.52,-97.04 693.96,-72.19 682,-55 673.3,-42.49 659.98,-32.02 648.2,-24.37"/>
<polygon fill="#63b8ff" stroke="#63b8ff" points="649.94,-21.34 639.59,-19.1 646.28,-27.31 649.94,-21.34"/>
</a>
</g>
</g>
<!-- Node20&#45;&gt;Node11 -->
<g id="edge37_Node000020_Node000011" class="edge">
<title>Node20&#45;&gt;Node11</title>
<g id="a_edge37_Node000020_Node000011"><a xlink:title=" ">
<path fill="none" stroke="#63b8ff" d="M740.53,-115.48C818.1,-109.16 984.19,-93.49 1001,-74 1012.02,-61.22 1005.4,-41.71 997.98,-27.69"/>
<polygon fill="#63b8ff" stroke="#63b8ff" points="1000.98,-25.89 992.92,-19.01 994.93,-29.41 1000.98,-25.89"/>
</a>
</g>
</g>
<!-- Node21 -->
<g id="Node000021" class="node">
<title>Node21</title>
<g id="a_Node000021"><a xlink:href="no__os__lf256fifo_8h.html" target="_top" xlink:title="SPSC lock&#45;free fifo of fixed size (256), specialized for UART.">
<polygon fill="white" stroke="#666666" points="673,-74 573,-74 573,-55 673,-55 673,-74"/>
<text text-anchor="middle" x="623" y="-62" font-family="Helvetica,sans-Serif" font-size="10.00">no_os_lf256fifo.h</text>
</a>
</g>
</g>
<!-- Node20&#45;&gt;Node21 -->
<g id="edge38_Node000020_Node000021" class="edge">
<title>Node20&#45;&gt;Node21</title>
<g id="a_edge38_Node000020_Node000021"><a xlink:title=" ">
<path fill="none" stroke="#63b8ff" d="M688.47,-109.98C676.6,-101.92 658.54,-89.65 644.39,-80.03"/>
<polygon fill="#63b8ff" stroke="#63b8ff" points="646,-76.9 635.76,-74.17 642.06,-82.69 646,-76.9"/>
</a>
</g>
</g>
<!-- Node21&#45;&gt;Node2 -->
<g id="edge39_Node000021_Node000002" class="edge">
<title>Node21&#45;&gt;Node2</title>
<g id="a_edge39_Node000021_Node000002"><a xlink:title=" ">
<path fill="none" stroke="#63b8ff" d="M572.58,-57.57C480.96,-46.81 289.2,-24.27 208.76,-14.82"/>
<polygon fill="#63b8ff" stroke="#63b8ff" points="208.96,-11.32 198.62,-13.63 208.14,-18.27 208.96,-11.32"/>
</a>
</g>
</g>
<!-- Node21&#45;&gt;Node10 -->
<g id="edge40_Node000021_Node000010" class="edge">
<title>Node21&#45;&gt;Node10</title>
<g id="a_edge40_Node000021_Node000010"><a xlink:title=" ">
<path fill="none" stroke="#63b8ff" d="M623,-54.75C623,-47.8 623,-37.85 623,-29.13"/>
<polygon fill="#63b8ff" stroke="#63b8ff" points="626.5,-29.09 623,-19.09 619.5,-29.09 626.5,-29.09"/>
</a>
</g>
</g>
<!-- Node21&#45;&gt;Node11 -->
<g id="edge41_Node000021_Node000011" class="edge">
<title>Node21&#45;&gt;Node11</title>
<g id="a_edge41_Node000021_Node000011"><a xlink:title=" ">
<path fill="none" stroke="#63b8ff" d="M673.23,-56.19C745.8,-45.62 878.61,-26.28 945.77,-16.5"/>
<polygon fill="#63b8ff" stroke="#63b8ff" points="946.58,-19.92 955.97,-15.02 945.57,-13 946.58,-19.92"/>
</a>
</g>
</g>
</g>
</svg>

<g id="navigator" transform="translate(0 0)" fill="#404254">
  <rect fill="#f2f5e9" fill-opacity="0.5" stroke="#606060" stroke-width=".5" x="0" y="0" width="60" height="60"/>
  <use id="zoomplus" xlink:href="#zoomPlus" x="17" y="9" onmousedown="handleZoom(evt,'in')"/>
  <use id="zoomminus" xlink:href="#zoomMin" x="42" y="9" onmousedown="handleZoom(evt,'out')"/>
  <use id="reset" xlink:href="#resetDef" x="30" y="36" onmousedown="handleReset()"/>
   <use id="arrowup" xlink:href="#arrowUp" x="0" y="0" onmousedown="handlePan(0,-1)"/>
  <use id="arrowright" xlink:href="#arrowRight" x="0" y="0" onmousedown="handlePan(1,0)"/>
  <use id="arrowdown" xlink:href="#arrowDown" x="0" y="0" onmousedown="handlePan(0,1)"/>
  <use id="arrowleft" xlink:href="#arrowLeft" x="0" y="0" onmousedown="handlePan(-1,0)"/>
</g>
<svg viewBox="0 0 15 15" width="100%" height="30px" preserveAspectRatio="xMaxYMin meet">
 <g id="arrow_out" transform="scale(0.3 0.3)">
  <a xlink:href="iio__adp5055_8c__incl_org.svg" target="_base">
   <rect id="button" ry="5" rx="5" y="6" x="6" height="38" width="38"
        fill="#f2f5e9" fill-opacity="0.5" stroke="#606060" stroke-width="1.0"/>
   <path id="arrow"
     d="M 11.500037,31.436501 C 11.940474,20.09759 22.043105,11.32322 32.158766,21.979434 L 37.068811,17.246167 C 37.068811,17.246167 37.088388,32 37.088388,32 L 22.160133,31.978069 C 22.160133,31.978069 26.997745,27.140456 26.997745,27.140456 C 18.528582,18.264221 13.291696,25.230495 11.500037,31.436501 z"
     style="fill:#404040;"/>
  </a>
 </g>
</svg>

<style type='text/css'>
<![CDATA[
[data-mouse-over-selected='false'] { opacity: 0.7; }
[data-mouse-over-selected='true']  { opacity: 1.0; }
]]>
</style>
<script type="application/ecmascript"><![CDATA[
document.addEventListener('DOMContentLoaded', (event) => {
  highlightEdges();
  highlightAdjacentNodes();
});
]]></script>
</svg>
