<?xml version="1.0" encoding="UTF-8" standalone="no"?>
<!DOCTYPE svg PUBLIC "-//W3C//DTD SVG 1.1//EN"
 "http://www.w3.org/Graphics/SVG/1.1/DTD/svg11.dtd">
<!-- Generated by graphviz version 2.43.0 (0)
 -->
<!-- Title: drivers/adc/pulsar_adc/iio_pulsar_adc.h Pages: 1 -->
<svg width="965pt" height="313pt"
 viewBox="0.00 0.00 964.85 313.00" xmlns="http://www.w3.org/2000/svg" xmlns:xlink="http://www.w3.org/1999/xlink">
<g id="graph0" class="graph" transform="scale(1 1) rotate(0) translate(4 309)">
<title>drivers/adc/pulsar_adc/iio_pulsar_adc.h</title>
<!-- Node1 -->
<g id="Node000001" class="node">
<title>Node1</title>
<g id="a_Node000001"><a xlink:title="Header file for PULSAR_ADC IIO interface.">
<polygon fill="#999999" stroke="#666666" points="736.35,-305 615.35,-305 615.35,-275 736.35,-275 736.35,-305"/>
<text text-anchor="start" x="623.35" y="-293" font-family="Helvetica,sans-Serif" font-size="10.00">drivers/adc/pulsar</text>
<text text-anchor="middle" x="675.85" y="-282" font-family="Helvetica,sans-Serif" font-size="10.00">_adc/iio_pulsar_adc.h</text>
</a>
</g>
</g>
<!-- Node2 -->
<g id="Node000002" class="node">
<title>Node2</title>
<g id="a_Node000002"><a xlink:title=" ">
<polygon fill="#e0e0e0" stroke="#999999" points="614.35,-19 561.35,-19 561.35,0 614.35,0 614.35,-19"/>
<text text-anchor="middle" x="587.85" y="-7" font-family="Helvetica,sans-Serif" font-size="10.00">stdint.h</text>
</a>
</g>
</g>
<!-- Node1&#45;&gt;Node2 -->
<g id="edge1_Node000001_Node000002" class="edge">
<title>Node1&#45;&gt;Node2</title>
<g id="a_edge1_Node000001_Node000002"><a xlink:title=" ">
<path fill="none" stroke="#63b8ff" d="M736.47,-277.23C819.08,-259.42 956.85,-222.66 956.85,-175.5 956.85,-175.5 956.85,-175.5 956.85,-118.5 956.85,-80.58 933.3,-72.86 899.85,-55 852.91,-29.93 697.17,-17.27 625.07,-12.63"/>
<polygon fill="#63b8ff" stroke="#63b8ff" points="624.85,-9.11 614.66,-11.98 624.42,-16.1 624.85,-9.11"/>
</a>
</g>
</g>
<!-- Node3 -->
<g id="Node000003" class="node">
<title>Node3</title>
<g id="a_Node000003"><a xlink:href="iio_8h.html" target="_top" xlink:title="Header file of iio.">
<polygon fill="white" stroke="#666666" points="273.85,-184 235.85,-184 235.85,-165 273.85,-165 273.85,-184"/>
<text text-anchor="middle" x="254.85" y="-172" font-family="Helvetica,sans-Serif" font-size="10.00">iio.h</text>
</a>
</g>
</g>
<!-- Node1&#45;&gt;Node3 -->
<g id="edge2_Node000001_Node000003" class="edge">
<title>Node1&#45;&gt;Node3</title>
<g id="a_edge2_Node000001_Node000003"><a xlink:title=" ">
<path fill="none" stroke="#63b8ff" d="M623.8,-274.97C534.45,-250.88 354.69,-202.42 284.18,-183.41"/>
<polygon fill="#63b8ff" stroke="#63b8ff" points="284.78,-179.94 274.21,-180.72 282.95,-186.7 284.78,-179.94"/>
</a>
</g>
</g>
<!-- Node4 -->
<g id="Node000004" class="node">
<title>Node4</title>
<g id="a_Node000004"><a xlink:href="iio__types_8h.html" target="_top" xlink:title="Header file for iio_types.">
<polygon fill="white" stroke="#666666" points="756.85,-129 686.85,-129 686.85,-110 756.85,-110 756.85,-129"/>
<text text-anchor="middle" x="721.85" y="-117" font-family="Helvetica,sans-Serif" font-size="10.00">iio_types.h</text>
</a>
</g>
</g>
<!-- Node1&#45;&gt;Node4 -->
<g id="edge15_Node000001_Node000004" class="edge">
<title>Node1&#45;&gt;Node4</title>
<g id="a_edge15_Node000001_Node000004"><a xlink:title=" ">
<path fill="none" stroke="#63b8ff" d="M679.69,-274.92C687.95,-244.65 707.42,-173.35 716.72,-139.27"/>
<polygon fill="#63b8ff" stroke="#63b8ff" points="720.2,-139.82 719.46,-129.25 713.45,-137.98 720.2,-139.82"/>
</a>
</g>
</g>
<!-- Node10 -->
<g id="Node000010" class="node">
<title>Node10</title>
<g id="a_Node000010"><a xlink:href="pulsar__adc_8h.html" target="_top" xlink:title="Header file for pulsar_adc Driver.">
<polygon fill="white" stroke="#666666" points="623.85,-239 545.85,-239 545.85,-220 623.85,-220 623.85,-239"/>
<text text-anchor="middle" x="584.85" y="-227" font-family="Helvetica,sans-Serif" font-size="10.00">pulsar_adc.h</text>
</a>
</g>
</g>
<!-- Node1&#45;&gt;Node10 -->
<g id="edge16_Node000001_Node000010" class="edge">
<title>Node1&#45;&gt;Node10</title>
<g id="a_edge16_Node000001_Node000010"><a xlink:title=" ">
<path fill="none" stroke="#63b8ff" d="M653.82,-274.84C639.58,-265.68 621.12,-253.82 606.88,-244.66"/>
<polygon fill="#63b8ff" stroke="#63b8ff" points="608.52,-241.56 598.22,-239.09 604.74,-247.45 608.52,-241.56"/>
</a>
</g>
</g>
<!-- Node3&#45;&gt;Node4 -->
<g id="edge3_Node000003_Node000004" class="edge">
<title>Node3&#45;&gt;Node4</title>
<g id="a_edge3_Node000003_Node000004"><a xlink:title=" ">
<path fill="none" stroke="#63b8ff" d="M274.02,-171.32C342.65,-163.53 577.21,-136.91 676.68,-125.63"/>
<polygon fill="#63b8ff" stroke="#63b8ff" points="677.18,-129.09 686.72,-124.49 676.39,-122.14 677.18,-129.09"/>
</a>
</g>
</g>
<!-- Node7 -->
<g id="Node000007" class="node">
<title>Node7</title>
<g id="a_Node000007"><a xlink:href="no__os__uart_8h.html" target="_top" xlink:title="Header file of UART interface.">
<polygon fill="white" stroke="#666666" points="220.35,-129 141.35,-129 141.35,-110 220.35,-110 220.35,-129"/>
<text text-anchor="middle" x="180.85" y="-117" font-family="Helvetica,sans-Serif" font-size="10.00">no_os_uart.h</text>
</a>
</g>
</g>
<!-- Node3&#45;&gt;Node7 -->
<g id="edge8_Node000003_Node000007" class="edge">
<title>Node3&#45;&gt;Node7</title>
<g id="a_edge8_Node000003_Node000007"><a xlink:title=" ">
<path fill="none" stroke="#63b8ff" d="M242.96,-164.98C231.7,-156.92 214.56,-144.65 201.14,-135.03"/>
<polygon fill="#63b8ff" stroke="#63b8ff" points="203.12,-132.15 192.95,-129.17 199.04,-137.84 203.12,-132.15"/>
</a>
</g>
</g>
<!-- Node4&#45;&gt;Node2 -->
<g id="edge5_Node000004_Node000002" class="edge">
<title>Node4&#45;&gt;Node2</title>
<g id="a_edge5_Node000004_Node000002"><a xlink:title=" ">
<path fill="none" stroke="#63b8ff" d="M716.8,-109.73C708.84,-96.51 692.26,-71.29 672.85,-55 657.06,-41.76 636.68,-30.92 619.83,-23.26"/>
<polygon fill="#63b8ff" stroke="#63b8ff" points="620.95,-19.93 610.38,-19.12 618.14,-26.34 620.95,-19.93"/>
</a>
</g>
</g>
<!-- Node5 -->
<g id="Node000005" class="node">
<title>Node5</title>
<g id="a_Node000005"><a xlink:title=" ">
<polygon fill="#e0e0e0" stroke="#999999" points="94.85,-19 32.85,-19 32.85,0 94.85,0 94.85,-19"/>
<text text-anchor="middle" x="63.85" y="-7" font-family="Helvetica,sans-Serif" font-size="10.00">stdbool.h</text>
</a>
</g>
</g>
<!-- Node4&#45;&gt;Node5 -->
<g id="edge4_Node000004_Node000005" class="edge">
<title>Node4&#45;&gt;Node5</title>
<g id="a_edge4_Node000004_Node000005"><a xlink:title=" ">
<path fill="none" stroke="#63b8ff" d="M686.74,-114.61C671.96,-113.05 654.58,-111.31 638.85,-110 577.15,-104.85 131.28,-112.56 82.85,-74 69.63,-63.48 65.33,-44.15 64.06,-29.57"/>
<polygon fill="#63b8ff" stroke="#63b8ff" points="67.53,-28.99 63.58,-19.16 60.54,-29.31 67.53,-28.99"/>
</a>
</g>
</g>
<!-- Node6 -->
<g id="Node000006" class="node">
<title>Node6</title>
<g id="a_Node000006"><a xlink:href="no__os__circular__buffer_8h.html" target="_top" xlink:title="Circular buffer library header.">
<polygon fill="white" stroke="#666666" points="852.85,-74 724.85,-74 724.85,-55 852.85,-55 852.85,-74"/>
<text text-anchor="middle" x="788.85" y="-62" font-family="Helvetica,sans-Serif" font-size="10.00">no_os_circular_buffer.h</text>
</a>
</g>
</g>
<!-- Node4&#45;&gt;Node6 -->
<g id="edge6_Node000004_Node000006" class="edge">
<title>Node4&#45;&gt;Node6</title>
<g id="a_edge6_Node000004_Node000006"><a xlink:title=" ">
<path fill="none" stroke="#63b8ff" d="M732.61,-109.98C742.61,-102.07 757.73,-90.11 769.78,-80.58"/>
<polygon fill="#63b8ff" stroke="#63b8ff" points="772.21,-83.12 777.89,-74.17 767.87,-77.63 772.21,-83.12"/>
</a>
</g>
</g>
<!-- Node6&#45;&gt;Node2 -->
<g id="edge7_Node000006_Node000002" class="edge">
<title>Node6&#45;&gt;Node2</title>
<g id="a_edge7_Node000006_Node000002"><a xlink:title=" ">
<path fill="none" stroke="#63b8ff" d="M756.55,-54.98C720.54,-45.49 662.41,-30.16 624.67,-20.21"/>
<polygon fill="#63b8ff" stroke="#63b8ff" points="625.16,-16.72 614.59,-17.55 623.37,-23.49 625.16,-16.72"/>
</a>
</g>
</g>
<!-- Node7&#45;&gt;Node2 -->
<g id="edge9_Node000007_Node000002" class="edge">
<title>Node7&#45;&gt;Node2</title>
<g id="a_edge9_Node000007_Node000002"><a xlink:title=" ">
<path fill="none" stroke="#63b8ff" d="M185.96,-109.72C194.75,-95.52 214.2,-67.79 238.85,-55 292.63,-27.09 472.7,-15.71 550.98,-12"/>
<polygon fill="#63b8ff" stroke="#63b8ff" points="551.5,-15.48 561.33,-11.53 551.18,-8.49 551.5,-15.48"/>
</a>
</g>
</g>
<!-- Node7&#45;&gt;Node5 -->
<g id="edge10_Node000007_Node000005" class="edge">
<title>Node7&#45;&gt;Node5</title>
<g id="a_edge10_Node000007_Node000005"><a xlink:title=" ">
<path fill="none" stroke="#63b8ff" d="M140.98,-113.61C96.14,-107.2 27.5,-94.31 11.85,-74 -1.5,-56.68 19.85,-37.3 39.09,-24.56"/>
<polygon fill="#63b8ff" stroke="#63b8ff" points="41.03,-27.47 47.65,-19.2 37.31,-21.54 41.03,-27.47"/>
</a>
</g>
</g>
<!-- Node8 -->
<g id="Node000008" class="node">
<title>Node8</title>
<g id="a_Node000008"><a xlink:href="no__os__lf256fifo_8h.html" target="_top" xlink:title="SPSC lock&#45;free fifo of fixed size (256), specialized for UART.">
<polygon fill="white" stroke="#666666" points="191.85,-74 91.85,-74 91.85,-55 191.85,-55 191.85,-74"/>
<text text-anchor="middle" x="141.85" y="-62" font-family="Helvetica,sans-Serif" font-size="10.00">no_os_lf256fifo.h</text>
</a>
</g>
</g>
<!-- Node7&#45;&gt;Node8 -->
<g id="edge11_Node000007_Node000008" class="edge">
<title>Node7&#45;&gt;Node8</title>
<g id="a_edge11_Node000007_Node000008"><a xlink:title=" ">
<path fill="none" stroke="#63b8ff" d="M174.41,-109.75C168.95,-102.34 160.98,-91.5 154.29,-82.41"/>
<polygon fill="#63b8ff" stroke="#63b8ff" points="156.91,-80.07 148.17,-74.09 151.27,-84.22 156.91,-80.07"/>
</a>
</g>
</g>
<!-- Node8&#45;&gt;Node2 -->
<g id="edge13_Node000008_Node000002" class="edge">
<title>Node8&#45;&gt;Node2</title>
<g id="a_edge13_Node000008_Node000002"><a xlink:title=" ">
<path fill="none" stroke="#63b8ff" d="M192.15,-56.74C196.78,-56.14 201.4,-55.55 205.85,-55 332.26,-39.24 482.43,-22.26 550.72,-14.62"/>
<polygon fill="#63b8ff" stroke="#63b8ff" points="551.42,-18.07 560.97,-13.48 550.64,-11.11 551.42,-18.07"/>
</a>
</g>
</g>
<!-- Node8&#45;&gt;Node5 -->
<g id="edge14_Node000008_Node000005" class="edge">
<title>Node8&#45;&gt;Node5</title>
<g id="a_edge14_Node000008_Node000005"><a xlink:title=" ">
<path fill="none" stroke="#63b8ff" d="M129.31,-54.98C117.45,-46.92 99.38,-34.65 85.23,-25.03"/>
<polygon fill="#63b8ff" stroke="#63b8ff" points="86.85,-21.9 76.61,-19.17 82.91,-27.69 86.85,-21.9"/>
</a>
</g>
</g>
<!-- Node9 -->
<g id="Node000009" class="node">
<title>Node9</title>
<g id="a_Node000009"><a xlink:title=" ">
<polygon fill="#e0e0e0" stroke="#999999" points="290.35,-19 237.35,-19 237.35,0 290.35,0 290.35,-19"/>
<text text-anchor="middle" x="263.85" y="-7" font-family="Helvetica,sans-Serif" font-size="10.00">stdlib.h</text>
</a>
</g>
</g>
<!-- Node8&#45;&gt;Node9 -->
<g id="edge12_Node000008_Node000009" class="edge">
<title>Node8&#45;&gt;Node9</title>
<g id="a_edge12_Node000008_Node000009"><a xlink:title=" ">
<path fill="none" stroke="#63b8ff" d="M161.45,-54.98C181.16,-46.42 211.8,-33.11 234.43,-23.28"/>
<polygon fill="#63b8ff" stroke="#63b8ff" points="236.11,-26.37 243.89,-19.17 233.32,-19.94 236.11,-26.37"/>
</a>
</g>
</g>
<!-- Node10&#45;&gt;Node5 -->
<g id="edge17_Node000010_Node000005" class="edge">
<title>Node10&#45;&gt;Node5</title>
<g id="a_edge17_Node000010_Node000005"><a xlink:title=" ">
<path fill="none" stroke="#63b8ff" d="M545.83,-227.88C479.1,-225.9 339.34,-217.69 226.85,-184 120.98,-152.3 62.2,-167.85 3.85,-74 -8.22,-54.59 14.71,-36.03 35.62,-24.04"/>
<polygon fill="#63b8ff" stroke="#63b8ff" points="37.51,-27 44.65,-19.17 34.18,-20.84 37.51,-27"/>
</a>
</g>
</g>
<!-- Node11 -->
<g id="Node000011" class="node">
<title>Node11</title>
<g id="a_Node000011"><a xlink:href="spi__engine_8h.html" target="_top" xlink:title=" ">
<polygon fill="white" stroke="#666666" points="577.85,-184 499.85,-184 499.85,-165 577.85,-165 577.85,-184"/>
<text text-anchor="middle" x="538.85" y="-172" font-family="Helvetica,sans-Serif" font-size="10.00">spi_engine.h</text>
</a>
</g>
</g>
<!-- Node10&#45;&gt;Node11 -->
<g id="edge18_Node000010_Node000011" class="edge">
<title>Node10&#45;&gt;Node11</title>
<g id="a_edge18_Node000010_Node000011"><a xlink:title=" ">
<path fill="none" stroke="#63b8ff" d="M577.25,-219.75C570.69,-212.18 561.02,-201.05 553.03,-191.84"/>
<polygon fill="#63b8ff" stroke="#63b8ff" points="555.5,-189.35 546.3,-184.09 550.21,-193.94 555.5,-189.35"/>
</a>
</g>
</g>
<!-- Node17 -->
<g id="Node000017" class="node">
<title>Node17</title>
<g id="a_Node000017"><a xlink:href="clk__axi__clkgen_8h.html" target="_top" xlink:title="Driver for the Analog Devices AXI CLKGEN.">
<polygon fill="white" stroke="#666666" points="693.85,-184 595.85,-184 595.85,-165 693.85,-165 693.85,-184"/>
<text text-anchor="middle" x="644.85" y="-172" font-family="Helvetica,sans-Serif" font-size="10.00">clk_axi_clkgen.h</text>
</a>
</g>
</g>
<!-- Node10&#45;&gt;Node17 -->
<g id="edge35_Node000010_Node000017" class="edge">
<title>Node10&#45;&gt;Node17</title>
<g id="a_edge35_Node000010_Node000017"><a xlink:title=" ">
<path fill="none" stroke="#63b8ff" d="M594.49,-219.98C603.36,-212.15 616.72,-200.34 627.45,-190.86"/>
<polygon fill="#63b8ff" stroke="#63b8ff" points="629.85,-193.41 635.03,-184.17 625.22,-188.17 629.85,-193.41"/>
</a>
</g>
</g>
<!-- Node18 -->
<g id="Node000018" class="node">
<title>Node18</title>
<g id="a_Node000018"><a xlink:href="no__os__pwm_8h.html" target="_top" xlink:title="Header file of PWM Interface.">
<polygon fill="white" stroke="#666666" points="331.35,-74 248.35,-74 248.35,-55 331.35,-55 331.35,-74"/>
<text text-anchor="middle" x="289.85" y="-62" font-family="Helvetica,sans-Serif" font-size="10.00">no_os_pwm.h</text>
</a>
</g>
</g>
<!-- Node10&#45;&gt;Node18 -->
<g id="edge37_Node000010_Node000018" class="edge">
<title>Node10&#45;&gt;Node18</title>
<g id="a_edge37_Node000010_Node000018"><a xlink:title=" ">
<path fill="none" stroke="#63b8ff" d="M545.63,-223.01C489.5,-213.29 385.86,-188.19 320.85,-129 307.55,-116.89 299.31,-97.82 294.7,-83.74"/>
<polygon fill="#63b8ff" stroke="#63b8ff" points="298.06,-82.73 291.86,-74.14 291.34,-84.72 298.06,-82.73"/>
</a>
</g>
</g>
<!-- Node19 -->
<g id="Node000019" class="node">
<title>Node19</title>
<g id="a_Node000019"><a xlink:href="no__os__gpio_8h.html" target="_top" xlink:title="Header file of GPIO Interface.">
<polygon fill="white" stroke="#666666" points="879.85,-184 799.85,-184 799.85,-165 879.85,-165 879.85,-184"/>
<text text-anchor="middle" x="839.85" y="-172" font-family="Helvetica,sans-Serif" font-size="10.00">no_os_gpio.h</text>
</a>
</g>
</g>
<!-- Node10&#45;&gt;Node19 -->
<g id="edge40_Node000010_Node000019" class="edge">
<title>Node10&#45;&gt;Node19</title>
<g id="a_edge40_Node000010_Node000019"><a xlink:title=" ">
<path fill="none" stroke="#63b8ff" d="M623.85,-220.39C668.27,-211.16 740.96,-196.05 789.59,-185.95"/>
<polygon fill="#63b8ff" stroke="#63b8ff" points="790.5,-189.33 799.58,-183.87 789.08,-182.48 790.5,-189.33"/>
</a>
</g>
</g>
<!-- Node11&#45;&gt;Node2 -->
<g id="edge19_Node000011_Node000002" class="edge">
<title>Node11&#45;&gt;Node2</title>
<g id="a_edge19_Node000011_Node000002"><a xlink:title=" ">
<path fill="none" stroke="#63b8ff" d="M577.9,-166.83C599.81,-160.87 625.39,-149.72 638.85,-129 660.89,-95.06 626.41,-49.99 604.21,-26.42"/>
<polygon fill="#63b8ff" stroke="#63b8ff" points="606.48,-23.73 596.99,-19.03 601.48,-28.63 606.48,-23.73"/>
</a>
</g>
</g>
<!-- Node12 -->
<g id="Node000012" class="node">
<title>Node12</title>
<g id="a_Node000012"><a xlink:href="xilinx__spi_8h.html" target="_top" xlink:title=" ">
<polygon fill="white" stroke="#666666" points="629.85,-129 557.85,-129 557.85,-110 629.85,-110 629.85,-129"/>
<text text-anchor="middle" x="593.85" y="-117" font-family="Helvetica,sans-Serif" font-size="10.00">xilinx_spi.h</text>
</a>
</g>
</g>
<!-- Node11&#45;&gt;Node12 -->
<g id="edge20_Node000011_Node000012" class="edge">
<title>Node11&#45;&gt;Node12</title>
<g id="a_edge20_Node000011_Node000012"><a xlink:title=" ">
<path fill="none" stroke="#63b8ff" d="M547.93,-164.75C555.94,-157.03 567.8,-145.6 577.47,-136.28"/>
<polygon fill="#63b8ff" stroke="#63b8ff" points="580.16,-138.55 584.93,-129.09 575.3,-133.51 580.16,-138.55"/>
</a>
</g>
</g>
<!-- Node14 -->
<g id="Node000014" class="node">
<title>Node14</title>
<g id="a_Node000014"><a xlink:href="spi__engine__private_8h.html" target="_top" xlink:title=" ">
<polygon fill="white" stroke="#666666" points="447.85,-129 329.85,-129 329.85,-110 447.85,-110 447.85,-129"/>
<text text-anchor="middle" x="388.85" y="-117" font-family="Helvetica,sans-Serif" font-size="10.00">spi_engine_private.h</text>
</a>
</g>
</g>
<!-- Node11&#45;&gt;Node14 -->
<g id="edge24_Node000011_Node000014" class="edge">
<title>Node11&#45;&gt;Node14</title>
<g id="a_edge24_Node000011_Node000014"><a xlink:title=" ">
<path fill="none" stroke="#63b8ff" d="M514.75,-164.98C489.96,-156.23 451.14,-142.51 423.16,-132.62"/>
<polygon fill="#63b8ff" stroke="#63b8ff" points="423.98,-129.2 413.39,-129.17 421.65,-135.8 423.98,-129.2"/>
</a>
</g>
</g>
<!-- Node16 -->
<g id="Node000016" class="node">
<title>Node16</title>
<g id="a_Node000016"><a xlink:href="axi__dmac_8h.html" target="_top" xlink:title="Driver for the Analog Devices AXI&#45;DMAC core.">
<polygon fill="white" stroke="#666666" points="539.35,-129 466.35,-129 466.35,-110 539.35,-110 539.35,-129"/>
<text text-anchor="middle" x="502.85" y="-117" font-family="Helvetica,sans-Serif" font-size="10.00">axi_dmac.h</text>
</a>
</g>
</g>
<!-- Node11&#45;&gt;Node16 -->
<g id="edge32_Node000011_Node000016" class="edge">
<title>Node11&#45;&gt;Node16</title>
<g id="a_edge32_Node000011_Node000016"><a xlink:title=" ">
<path fill="none" stroke="#63b8ff" d="M532.9,-164.75C527.87,-157.34 520.51,-146.5 514.33,-137.41"/>
<polygon fill="#63b8ff" stroke="#63b8ff" points="517.2,-135.39 508.68,-129.09 511.4,-139.33 517.2,-135.39"/>
</a>
</g>
</g>
<!-- Node12&#45;&gt;Node2 -->
<g id="edge21_Node000012_Node000002" class="edge">
<title>Node12&#45;&gt;Node2</title>
<g id="a_edge21_Node000012_Node000002"><a xlink:title=" ">
<path fill="none" stroke="#63b8ff" d="M596.46,-109.85C599.81,-97.61 604.85,-74.55 601.85,-55 600.49,-46.19 597.72,-36.74 594.99,-28.82"/>
<polygon fill="#63b8ff" stroke="#63b8ff" points="598.18,-27.35 591.45,-19.18 591.61,-29.77 598.18,-27.35"/>
</a>
</g>
</g>
<!-- Node13 -->
<g id="Node000013" class="node">
<title>Node13</title>
<g id="a_Node000013"><a xlink:href="no__os__spi_8h.html" target="_top" xlink:title="Header file of SPI Interface.">
<polygon fill="white" stroke="#666666" points="592.85,-74 518.85,-74 518.85,-55 592.85,-55 592.85,-74"/>
<text text-anchor="middle" x="555.85" y="-62" font-family="Helvetica,sans-Serif" font-size="10.00">no_os_spi.h</text>
</a>
</g>
</g>
<!-- Node12&#45;&gt;Node13 -->
<g id="edge22_Node000012_Node000013" class="edge">
<title>Node12&#45;&gt;Node13</title>
<g id="a_edge22_Node000012_Node000013"><a xlink:title=" ">
<path fill="none" stroke="#63b8ff" d="M587.57,-109.75C582.26,-102.34 574.49,-91.5 567.97,-82.41"/>
<polygon fill="#63b8ff" stroke="#63b8ff" points="570.68,-80.18 562.01,-74.09 564.99,-84.26 570.68,-80.18"/>
</a>
</g>
</g>
<!-- Node13&#45;&gt;Node2 -->
<g id="edge23_Node000013_Node000002" class="edge">
<title>Node13&#45;&gt;Node2</title>
<g id="a_edge23_Node000013_Node000002"><a xlink:title=" ">
<path fill="none" stroke="#63b8ff" d="M561.13,-54.75C565.56,-47.42 572.01,-36.73 577.46,-27.7"/>
<polygon fill="#63b8ff" stroke="#63b8ff" points="580.49,-29.46 582.66,-19.09 574.5,-25.84 580.49,-29.46"/>
</a>
</g>
</g>
<!-- Node14&#45;&gt;Node2 -->
<g id="edge25_Node000014_Node000002" class="edge">
<title>Node14&#45;&gt;Node2</title>
<g id="a_edge25_Node000014_Node000002"><a xlink:title=" ">
<path fill="none" stroke="#63b8ff" d="M403.28,-109.8C424.16,-97.3 464.09,-73.7 498.85,-55 519.38,-43.95 543.01,-32.18 560.76,-23.52"/>
<polygon fill="#63b8ff" stroke="#63b8ff" points="562.49,-26.57 569.96,-19.06 559.43,-20.27 562.49,-26.57"/>
</a>
</g>
</g>
<!-- Node14&#45;&gt;Node5 -->
<g id="edge26_Node000014_Node000005" class="edge">
<title>Node14&#45;&gt;Node5</title>
<g id="a_edge26_Node000014_Node000005"><a xlink:title=" ">
<path fill="none" stroke="#63b8ff" d="M329.64,-114.92C237.38,-108.72 67.98,-94.67 49.85,-74 38.72,-61.31 45.36,-41.79 52.82,-27.74"/>
<polygon fill="#63b8ff" stroke="#63b8ff" points="55.88,-29.44 57.9,-19.04 49.83,-25.91 55.88,-29.44"/>
</a>
</g>
</g>
<!-- Node14&#45;&gt;Node13 -->
<g id="edge27_Node000014_Node000013" class="edge">
<title>Node14&#45;&gt;Node13</title>
<g id="a_edge27_Node000014_Node000013"><a xlink:title=" ">
<path fill="none" stroke="#63b8ff" d="M415.68,-109.98C443.72,-101.09 487.89,-87.07 519.15,-77.15"/>
<polygon fill="#63b8ff" stroke="#63b8ff" points="520.33,-80.44 528.81,-74.08 518.21,-73.77 520.33,-80.44"/>
</a>
</g>
</g>
<!-- Node15 -->
<g id="Node000015" class="node">
<title>Node15</title>
<g id="a_Node000015"><a xlink:href="no__os__util_8h.html" target="_top" xlink:title="Header file of utility functions.">
<polygon fill="white" stroke="#666666" points="424.35,-74 349.35,-74 349.35,-55 424.35,-55 424.35,-74"/>
<text text-anchor="middle" x="386.85" y="-62" font-family="Helvetica,sans-Serif" font-size="10.00">no_os_util.h</text>
</a>
</g>
</g>
<!-- Node14&#45;&gt;Node15 -->
<g id="edge28_Node000014_Node000015" class="edge">
<title>Node14&#45;&gt;Node15</title>
<g id="a_edge28_Node000014_Node000015"><a xlink:title=" ">
<path fill="none" stroke="#63b8ff" d="M388.52,-109.75C388.25,-102.8 387.88,-92.85 387.55,-84.13"/>
<polygon fill="#63b8ff" stroke="#63b8ff" points="391.05,-83.95 387.17,-74.09 384.05,-84.21 391.05,-83.95"/>
</a>
</g>
</g>
<!-- Node15&#45;&gt;Node2 -->
<g id="edge29_Node000015_Node000002" class="edge">
<title>Node15&#45;&gt;Node2</title>
<g id="a_edge29_Node000015_Node000002"><a xlink:title=" ">
<path fill="none" stroke="#63b8ff" d="M419.14,-54.98C455.15,-45.49 513.28,-30.16 551.03,-20.21"/>
<polygon fill="#63b8ff" stroke="#63b8ff" points="552.32,-23.49 561.1,-17.55 550.54,-16.72 552.32,-23.49"/>
</a>
</g>
</g>
<!-- Node15&#45;&gt;Node5 -->
<g id="edge31_Node000015_Node000005" class="edge">
<title>Node15&#45;&gt;Node5</title>
<g id="a_edge31_Node000015_Node000005"><a xlink:title=" ">
<path fill="none" stroke="#63b8ff" d="M349.15,-56.62C346,-56.06 342.87,-55.52 339.85,-55 256.65,-40.77 159.12,-25.34 105.12,-16.9"/>
<polygon fill="#63b8ff" stroke="#63b8ff" points="105.34,-13.4 94.92,-15.31 104.26,-20.31 105.34,-13.4"/>
</a>
</g>
</g>
<!-- Node15&#45;&gt;Node9 -->
<g id="edge30_Node000015_Node000009" class="edge">
<title>Node15&#45;&gt;Node9</title>
<g id="a_edge30_Node000015_Node000009"><a xlink:title=" ">
<path fill="none" stroke="#63b8ff" d="M367.08,-54.98C347.12,-46.38 316.04,-32.99 293.2,-23.15"/>
<polygon fill="#63b8ff" stroke="#63b8ff" points="294.54,-19.91 283.97,-19.17 291.77,-26.34 294.54,-19.91"/>
</a>
</g>
</g>
<!-- Node16&#45;&gt;Node2 -->
<g id="edge33_Node000016_Node000002" class="edge">
<title>Node16&#45;&gt;Node2</title>
<g id="a_edge33_Node000016_Node000002"><a xlink:title=" ">
<path fill="none" stroke="#63b8ff" d="M501.49,-109.88C499.9,-96.85 498.77,-71.87 509.85,-55 519.7,-40 536.46,-29.49 551.93,-22.47"/>
<polygon fill="#63b8ff" stroke="#63b8ff" points="553.44,-25.63 561.32,-18.54 550.74,-19.17 553.44,-25.63"/>
</a>
</g>
</g>
<!-- Node16&#45;&gt;Node15 -->
<g id="edge34_Node000016_Node000015" class="edge">
<title>Node16&#45;&gt;Node15</title>
<g id="a_edge34_Node000016_Node000015"><a xlink:title=" ">
<path fill="none" stroke="#63b8ff" d="M484.21,-109.98C465.55,-101.46 436.59,-88.23 415.11,-78.41"/>
<polygon fill="#63b8ff" stroke="#63b8ff" points="416.37,-75.14 405.82,-74.17 413.46,-81.51 416.37,-75.14"/>
</a>
</g>
</g>
<!-- Node17&#45;&gt;Node2 -->
<g id="edge36_Node000017_Node000002" class="edge">
<title>Node17&#45;&gt;Node2</title>
<g id="a_edge36_Node000017_Node000002"><a xlink:title=" ">
<path fill="none" stroke="#63b8ff" d="M694.03,-165.81C772.97,-151.47 914.07,-116.38 861.85,-55 831.84,-19.72 692.42,-12.33 624.81,-10.84"/>
<polygon fill="#63b8ff" stroke="#63b8ff" points="624.67,-7.34 614.6,-10.65 624.54,-14.34 624.67,-7.34"/>
</a>
</g>
</g>
<!-- Node18&#45;&gt;Node2 -->
<g id="edge38_Node000018_Node000002" class="edge">
<title>Node18&#45;&gt;Node2</title>
<g id="a_edge38_Node000018_Node000002"><a xlink:title=" ">
<path fill="none" stroke="#63b8ff" d="M331.6,-56.07C389.98,-45.69 495.11,-26.99 550.84,-17.08"/>
<polygon fill="#63b8ff" stroke="#63b8ff" points="551.74,-20.48 560.97,-15.28 550.51,-13.58 551.74,-20.48"/>
</a>
</g>
</g>
<!-- Node18&#45;&gt;Node5 -->
<g id="edge39_Node000018_Node000005" class="edge">
<title>Node18&#45;&gt;Node5</title>
<g id="a_edge39_Node000018_Node000005"><a xlink:title=" ">
<path fill="none" stroke="#63b8ff" d="M253.54,-54.98C212.96,-45.47 147.41,-30.1 104.97,-20.14"/>
<polygon fill="#63b8ff" stroke="#63b8ff" points="105.51,-16.68 94.97,-17.8 103.91,-23.49 105.51,-16.68"/>
</a>
</g>
</g>
<!-- Node19&#45;&gt;Node2 -->
<g id="edge41_Node000019_Node000002" class="edge">
<title>Node19&#45;&gt;Node2</title>
<g id="a_edge41_Node000019_Node000002"><a xlink:title=" ">
<path fill="none" stroke="#63b8ff" d="M847.82,-164.99C866.57,-143.93 909.8,-88.68 880.85,-55 848.23,-17.05 696.02,-11.08 624.79,-10.4"/>
<polygon fill="#63b8ff" stroke="#63b8ff" points="624.51,-6.9 614.49,-10.33 624.46,-13.9 624.51,-6.9"/>
</a>
</g>
</g>
</g>
</svg>
