<?xml version="1.0" encoding="UTF-8" standalone="no"?>
<!DOCTYPE svg PUBLIC "-//W3C//DTD SVG 1.1//EN"
 "http://www.w3.org/Graphics/SVG/1.1/DTD/svg11.dtd">
<!-- Generated by graphviz version 2.43.0 (0)
 -->
<!-- Title: iio/iio_trigger.h Pages: 1 -->
<svg width="3545pt" height="269pt"
 viewBox="0.00 0.00 3545.00 269.00" xmlns="http://www.w3.org/2000/svg" xmlns:xlink="http://www.w3.org/1999/xlink">
<g id="graph0" class="graph" transform="scale(1 1) rotate(0) translate(4 265)">
<title>iio/iio_trigger.h</title>
<!-- Node1 -->
<g id="Node000001" class="node">
<title>Node1</title>
<g id="a_Node000001"><a xlink:title="Header file for iio_trigger.">
<polygon fill="#999999" stroke="#666666" points="1500,-261 1411,-261 1411,-242 1500,-242 1500,-261"/>
<text text-anchor="middle" x="1455.5" y="-249" font-family="Helvetica,sans-Serif" font-size="10.00">iio/iio_trigger.h</text>
</a>
</g>
</g>
<!-- Node2 -->
<g id="Node000002" class="node">
<title>Node2</title>
<g id="a_Node000002"><a xlink:href="iio__adxl355__trig_8c.html" target="_top" xlink:title="Implementation of adxl355 iio trigger.">
<polygon fill="white" stroke="#666666" points="191,-195 70,-195 70,-165 191,-165 191,-195"/>
<text text-anchor="start" x="78" y="-183" font-family="Helvetica,sans-Serif" font-size="10.00">drivers/accel/adxl355</text>
<text text-anchor="middle" x="130.5" y="-172" font-family="Helvetica,sans-Serif" font-size="10.00">/iio_adxl355_trig.c</text>
</a>
</g>
</g>
<!-- Node1&#45;&gt;Node2 -->
<g id="edge1_Node000001_Node000002" class="edge">
<title>Node1&#45;&gt;Node2</title>
<g id="a_edge1_Node000001_Node000002"><a xlink:title=" ">
<path fill="none" stroke="#63b8ff" d="M1400.59,-250.63C1190.8,-250.79 439.95,-248.34 205.5,-206 192.26,-203.61 178.17,-199.39 165.82,-195.08"/>
<polygon fill="#63b8ff" stroke="#63b8ff" points="1400.75,-254.13 1410.75,-250.62 1400.74,-247.13 1400.75,-254.13"/>
</a>
</g>
</g>
<!-- Node3 -->
<g id="Node000003" class="node">
<title>Node3</title>
<g id="a_Node000003"><a xlink:href="iio__ad74413r_8h.html" target="_top" xlink:title="Header file of the IIO AD74413r Driver.">
<polygon fill="white" stroke="#666666" points="387.5,-195 247.5,-195 247.5,-165 387.5,-165 387.5,-195"/>
<text text-anchor="start" x="255.5" y="-183" font-family="Helvetica,sans-Serif" font-size="10.00">drivers/adc&#45;dac/ad74413r</text>
<text text-anchor="middle" x="317.5" y="-172" font-family="Helvetica,sans-Serif" font-size="10.00">/iio_ad74413r.h</text>
</a>
</g>
</g>
<!-- Node1&#45;&gt;Node3 -->
<g id="edge2_Node000001_Node000003" class="edge">
<title>Node1&#45;&gt;Node3</title>
<g id="a_edge2_Node000001_Node000003"><a xlink:title=" ">
<path fill="none" stroke="#63b8ff" d="M1400.78,-250.11C1212.52,-248.46 592.38,-240.48 396.5,-206 382.62,-203.56 367.78,-199.32 354.77,-195.02"/>
<polygon fill="#63b8ff" stroke="#63b8ff" points="1400.96,-253.61 1410.99,-250.19 1401.02,-246.61 1400.96,-253.61"/>
</a>
</g>
</g>
<!-- Node6 -->
<g id="Node000006" class="node">
<title>Node6</title>
<g id="a_Node000006"><a xlink:href="ad74413r_2src_2examples_2iio__trigger__example_2iio__trigger__example_8c.html" target="_top" xlink:title="Implementation of IIO trigger example for AD74413R project.">
<polygon fill="white" stroke="#666666" points="173,-112.5 0,-112.5 0,-71.5 173,-71.5 173,-112.5"/>
<text text-anchor="start" x="8" y="-100.5" font-family="Helvetica,sans-Serif" font-size="10.00">projects/ad74413r/src</text>
<text text-anchor="start" x="8" y="-89.5" font-family="Helvetica,sans-Serif" font-size="10.00">/examples/iio_trigger</text>
<text text-anchor="middle" x="86.5" y="-78.5" font-family="Helvetica,sans-Serif" font-size="10.00">_example/iio_trigger_example.c</text>
</a>
</g>
</g>
<!-- Node1&#45;&gt;Node6 -->
<g id="edge25_Node000001_Node000006" class="edge">
<title>Node1&#45;&gt;Node6</title>
<g id="a_edge25_Node000001_Node000006"><a xlink:title=" ">
<path fill="none" stroke="#63b8ff" d="M1400.59,-249.81C1170.14,-246.73 290.57,-233.23 238.5,-206 212.9,-192.61 221.39,-172.86 199.5,-154 179.91,-137.12 154.87,-123.01 133.34,-112.63"/>
<polygon fill="#63b8ff" stroke="#63b8ff" points="1400.71,-253.31 1410.75,-249.94 1400.8,-246.31 1400.71,-253.31"/>
</a>
</g>
</g>
<!-- Node10 -->
<g id="Node000010" class="node">
<title>Node10</title>
<g id="a_Node000010"><a xlink:href="iio__ad7091r8__trig_8c.html" target="_top" xlink:title="Implementation of iio_ad7091r8_trig.c.">
<polygon fill="white" stroke="#666666" points="525,-195 406,-195 406,-165 525,-165 525,-195"/>
<text text-anchor="start" x="414" y="-183" font-family="Helvetica,sans-Serif" font-size="10.00">drivers/adc/ad7091r8</text>
<text text-anchor="middle" x="465.5" y="-172" font-family="Helvetica,sans-Serif" font-size="10.00">/iio_ad7091r8_trig.c</text>
</a>
</g>
</g>
<!-- Node1&#45;&gt;Node10 -->
<g id="edge11_Node000001_Node000010" class="edge">
<title>Node1&#45;&gt;Node10</title>
<g id="a_edge11_Node000001_Node000010"><a xlink:title=" ">
<path fill="none" stroke="#63b8ff" d="M1400.78,-250C1228.96,-248.08 701.77,-239.55 534.5,-206 522.26,-203.54 509.28,-199.31 497.92,-195.01"/>
<polygon fill="#63b8ff" stroke="#63b8ff" points="1400.82,-253.5 1410.86,-250.11 1400.89,-246.5 1400.82,-253.5"/>
</a>
</g>
</g>
<!-- Node11 -->
<g id="Node000011" class="node">
<title>Node11</title>
<g id="a_Node000011"><a xlink:href="iio__adc__demo__trig_8c.html" target="_top" xlink:title="Implementation of iio_adc_demo_trig.c.">
<polygon fill="white" stroke="#666666" points="667.5,-195 543.5,-195 543.5,-165 667.5,-165 667.5,-195"/>
<text text-anchor="start" x="551.5" y="-183" font-family="Helvetica,sans-Serif" font-size="10.00">drivers/adc/adc_demo</text>
<text text-anchor="middle" x="605.5" y="-172" font-family="Helvetica,sans-Serif" font-size="10.00">/iio_adc_demo_trig.c</text>
</a>
</g>
</g>
<!-- Node1&#45;&gt;Node11 -->
<g id="edge12_Node000001_Node000011" class="edge">
<title>Node1&#45;&gt;Node11</title>
<g id="a_edge12_Node000001_Node000011"><a xlink:title=" ">
<path fill="none" stroke="#63b8ff" d="M1400.83,-249.37C1247.48,-245.9 815.43,-233.85 676.5,-206 664.07,-203.51 650.87,-199.32 639.26,-195.07"/>
<polygon fill="#63b8ff" stroke="#63b8ff" points="1400.88,-252.88 1410.95,-249.6 1401.03,-245.88 1400.88,-252.88"/>
</a>
</g>
</g>
<!-- Node12 -->
<g id="Node000012" class="node">
<title>Node12</title>
<g id="a_Node000012"><a xlink:href="iio__dac__demo__trig_8c.html" target="_top" xlink:title="Implementation of iio_dac_demo_trig.c.">
<polygon fill="white" stroke="#666666" points="809.5,-195 685.5,-195 685.5,-165 809.5,-165 809.5,-195"/>
<text text-anchor="start" x="693.5" y="-183" font-family="Helvetica,sans-Serif" font-size="10.00">drivers/dac/dac_demo</text>
<text text-anchor="middle" x="747.5" y="-172" font-family="Helvetica,sans-Serif" font-size="10.00">/iio_dac_demo_trig.c</text>
</a>
</g>
</g>
<!-- Node1&#45;&gt;Node12 -->
<g id="edge13_Node000001_Node000012" class="edge">
<title>Node1&#45;&gt;Node12</title>
<g id="a_edge13_Node000001_Node000012"><a xlink:title=" ">
<path fill="none" stroke="#63b8ff" d="M1400.73,-251.17C1290.39,-251.53 1033.92,-247.35 823.5,-206 810.42,-203.43 796.46,-199.27 784.12,-195.08"/>
<polygon fill="#63b8ff" stroke="#63b8ff" points="1400.96,-254.67 1410.95,-251.12 1400.93,-247.67 1400.96,-254.67"/>
</a>
</g>
</g>
<!-- Node13 -->
<g id="Node000013" class="node">
<title>Node13</title>
<g id="a_Node000013"><a xlink:href="iio__adxrs290_8h.html" target="_top" xlink:title="Implementation of ADXRS290 iio.">
<polygon fill="white" stroke="#666666" points="989,-195 866,-195 866,-165 989,-165 989,-195"/>
<text text-anchor="start" x="874" y="-183" font-family="Helvetica,sans-Serif" font-size="10.00">drivers/gyro/adxrs290</text>
<text text-anchor="middle" x="927.5" y="-172" font-family="Helvetica,sans-Serif" font-size="10.00">/iio_adxrs290.h</text>
</a>
</g>
</g>
<!-- Node1&#45;&gt;Node13 -->
<g id="edge14_Node000001_Node000013" class="edge">
<title>Node1&#45;&gt;Node13</title>
<g id="a_edge14_Node000001_Node000013"><a xlink:title=" ">
<path fill="none" stroke="#63b8ff" d="M1400.72,-248.98C1315.1,-245.74 1144.73,-235.8 1003.5,-206 990.72,-203.3 977.08,-199.22 964.94,-195.12"/>
<polygon fill="#63b8ff" stroke="#63b8ff" points="1400.62,-252.48 1410.74,-249.34 1400.87,-245.48 1400.62,-252.48"/>
</a>
</g>
</g>
<!-- Node15 -->
<g id="Node000015" class="node">
<title>Node15</title>
<g id="a_Node000015"><a xlink:href="adxrs290-pmdz_2src_2examples_2iio__timer__trigger__example_2iio__timer__trigger__example_8c.html" target="_top" xlink:title="Implementation of IIO trigger example for iio_demo project.">
<polygon fill="white" stroke="#666666" points="853,-118 704,-118 704,-66 853,-66 853,-118"/>
<text text-anchor="start" x="712" y="-106" font-family="Helvetica,sans-Serif" font-size="10.00">projects/adxrs290&#45;pmdz</text>
<text text-anchor="start" x="712" y="-95" font-family="Helvetica,sans-Serif" font-size="10.00">/src/examples/iio_timer</text>
<text text-anchor="start" x="712" y="-84" font-family="Helvetica,sans-Serif" font-size="10.00">_trigger_example/iio_timer</text>
<text text-anchor="middle" x="778.5" y="-73" font-family="Helvetica,sans-Serif" font-size="10.00">_trigger_example.c</text>
</a>
</g>
</g>
<!-- Node1&#45;&gt;Node15 -->
<g id="edge27_Node000001_Node000015" class="edge">
<title>Node1&#45;&gt;Node15</title>
<g id="a_edge27_Node000001_Node000015"><a xlink:title=" ">
<path fill="none" stroke="#63b8ff" d="M1400.59,-249.09C1261.68,-245.13 904.01,-232.48 857.5,-206 852.91,-203.39 817.1,-150.66 795.3,-118.17"/>
<polygon fill="#63b8ff" stroke="#63b8ff" points="1400.89,-252.6 1410.99,-249.38 1401.09,-245.6 1400.89,-252.6"/>
</a>
</g>
</g>
<!-- Node16 -->
<g id="Node000016" class="node">
<title>Node16</title>
<g id="a_Node000016"><a xlink:href="adxrs290-pmdz_2src_2examples_2iio__trigger__example_2iio__trigger__example_8c.html" target="_top" xlink:title="Implementation of IIO trigger example for eval&#45;adxrs290&#45;pmdz project.">
<polygon fill="white" stroke="#666666" points="1211,-112.5 1038,-112.5 1038,-71.5 1211,-71.5 1211,-112.5"/>
<text text-anchor="start" x="1046" y="-100.5" font-family="Helvetica,sans-Serif" font-size="10.00">projects/adxrs290&#45;pmdz</text>
<text text-anchor="start" x="1046" y="-89.5" font-family="Helvetica,sans-Serif" font-size="10.00">/src/examples/iio_trigger</text>
<text text-anchor="middle" x="1124.5" y="-78.5" font-family="Helvetica,sans-Serif" font-size="10.00">_example/iio_trigger_example.c</text>
</a>
</g>
</g>
<!-- Node1&#45;&gt;Node16 -->
<g id="edge28_Node000001_Node000016" class="edge">
<title>Node1&#45;&gt;Node16</title>
<g id="a_edge28_Node000001_Node000016"><a xlink:title=" ">
<path fill="none" stroke="#63b8ff" d="M1400.8,-248.67C1292.99,-244.51 1061.37,-232.55 1037.5,-206 1022.05,-188.81 1026.83,-174.5 1037.5,-154 1046.78,-136.16 1063.93,-122.46 1080.56,-112.6"/>
<polygon fill="#63b8ff" stroke="#63b8ff" points="1400.71,-252.17 1410.84,-249.05 1400.98,-245.18 1400.71,-252.17"/>
</a>
</g>
</g>
<!-- Node17 -->
<g id="Node000017" class="node">
<title>Node17</title>
<g id="a_Node000017"><a xlink:href="iio__adxrs290__trig_8c.html" target="_top" xlink:title="Implementation of adxrs290 iio trigger.">
<polygon fill="white" stroke="#666666" points="1169,-195 1046,-195 1046,-165 1169,-165 1169,-195"/>
<text text-anchor="start" x="1054" y="-183" font-family="Helvetica,sans-Serif" font-size="10.00">drivers/gyro/adxrs290</text>
<text text-anchor="middle" x="1107.5" y="-172" font-family="Helvetica,sans-Serif" font-size="10.00">/iio_adxrs290_trig.c</text>
</a>
</g>
</g>
<!-- Node1&#45;&gt;Node17 -->
<g id="edge18_Node000001_Node000017" class="edge">
<title>Node1&#45;&gt;Node17</title>
<g id="a_edge18_Node000001_Node000017"><a xlink:title=" ">
<path fill="none" stroke="#63b8ff" d="M1400.75,-244.64C1344.45,-237.94 1254.49,-225.32 1178.5,-206 1166.97,-203.07 1154.67,-199.06 1143.6,-195.12"/>
<polygon fill="#63b8ff" stroke="#63b8ff" points="1400.52,-248.14 1410.86,-245.83 1401.34,-241.19 1400.52,-248.14"/>
</a>
</g>
</g>
<!-- Node18 -->
<g id="Node000018" class="node">
<title>Node18</title>
<g id="a_Node000018"><a xlink:href="iio__adis_8c.html" target="_top" xlink:title="Implementation of iio_adis.c.">
<polygon fill="white" stroke="#666666" points="1308,-189.5 1187,-189.5 1187,-170.5 1308,-170.5 1308,-189.5"/>
<text text-anchor="middle" x="1247.5" y="-177.5" font-family="Helvetica,sans-Serif" font-size="10.00">drivers/imu/iio_adis.c</text>
</a>
</g>
</g>
<!-- Node1&#45;&gt;Node18 -->
<g id="edge19_Node000001_Node000018" class="edge">
<title>Node1&#45;&gt;Node18</title>
<g id="a_edge19_Node000001_Node000018"><a xlink:title=" ">
<path fill="none" stroke="#63b8ff" d="M1418.46,-238.9C1390.62,-230.1 1351.57,-217.57 1317.5,-206 1301.86,-200.69 1284.36,-194.44 1270.77,-189.52"/>
<polygon fill="#63b8ff" stroke="#63b8ff" points="1417.6,-242.3 1428.19,-241.97 1419.7,-235.62 1417.6,-242.3"/>
</a>
</g>
</g>
<!-- Node19 -->
<g id="Node000019" class="node">
<title>Node19</title>
<g id="a_Node000019"><a xlink:href="iio__adis__trig_8c.html" target="_top" xlink:title="Implementation of adis iio trigger.">
<polygon fill="white" stroke="#666666" points="1439,-195 1326,-195 1326,-165 1439,-165 1439,-195"/>
<text text-anchor="start" x="1334" y="-183" font-family="Helvetica,sans-Serif" font-size="10.00">drivers/imu/iio_adis</text>
<text text-anchor="middle" x="1382.5" y="-172" font-family="Helvetica,sans-Serif" font-size="10.00">_trig.c</text>
</a>
</g>
</g>
<!-- Node1&#45;&gt;Node19 -->
<g id="edge20_Node000001_Node000019" class="edge">
<title>Node1&#45;&gt;Node19</title>
<g id="a_edge20_Node000001_Node000019"><a xlink:title=" ">
<path fill="none" stroke="#63b8ff" d="M1439.08,-234.87C1426.56,-222.95 1409.46,-206.67 1397.35,-195.14"/>
<polygon fill="#63b8ff" stroke="#63b8ff" points="1436.89,-237.62 1446.55,-241.98 1441.72,-232.55 1436.89,-237.62"/>
</a>
</g>
</g>
<!-- Node20 -->
<g id="Node000020" class="node">
<title>Node20</title>
<g id="a_Node000020"><a xlink:href="iio__admt4000_8c.html" target="_top" xlink:title="Implementation of IIO ADMT4000 driver.">
<polygon fill="white" stroke="#666666" points="1602,-195 1457,-195 1457,-165 1602,-165 1602,-195"/>
<text text-anchor="start" x="1465" y="-183" font-family="Helvetica,sans-Serif" font-size="10.00">drivers/position/admt4000</text>
<text text-anchor="middle" x="1529.5" y="-172" font-family="Helvetica,sans-Serif" font-size="10.00">/iio_admt4000.c</text>
</a>
</g>
</g>
<!-- Node1&#45;&gt;Node20 -->
<g id="edge21_Node000001_Node000020" class="edge">
<title>Node1&#45;&gt;Node20</title>
<g id="a_edge21_Node000001_Node000020"><a xlink:title=" ">
<path fill="none" stroke="#63b8ff" d="M1472.14,-234.87C1484.84,-222.95 1502.17,-206.67 1514.45,-195.14"/>
<polygon fill="#63b8ff" stroke="#63b8ff" points="1469.47,-232.58 1464.57,-241.98 1474.26,-237.68 1469.47,-232.58"/>
</a>
</g>
</g>
<!-- Node21 -->
<g id="Node000021" class="node">
<title>Node21</title>
<g id="a_Node000021"><a xlink:href="iio__admt4000__trig_8c.html" target="_top" xlink:title="Implementation of admt4000 iio trigger.">
<polygon fill="white" stroke="#666666" points="1765,-195 1620,-195 1620,-165 1765,-165 1765,-195"/>
<text text-anchor="start" x="1628" y="-183" font-family="Helvetica,sans-Serif" font-size="10.00">drivers/position/admt4000</text>
<text text-anchor="middle" x="1692.5" y="-172" font-family="Helvetica,sans-Serif" font-size="10.00">/iio_admt4000_trig.c</text>
</a>
</g>
</g>
<!-- Node1&#45;&gt;Node21 -->
<g id="edge22_Node000001_Node000021" class="edge">
<title>Node1&#45;&gt;Node21</title>
<g id="a_edge22_Node000001_Node000021"><a xlink:title=" ">
<path fill="none" stroke="#63b8ff" d="M1495.79,-239.26C1527.33,-230.4 1572.28,-217.65 1611.5,-206 1623.21,-202.52 1635.84,-198.67 1647.57,-195.06"/>
<polygon fill="#63b8ff" stroke="#63b8ff" points="1494.73,-235.93 1486.05,-242 1496.62,-242.67 1494.73,-235.93"/>
</a>
</g>
</g>
<!-- Node22 -->
<g id="Node000022" class="node">
<title>Node22</title>
<g id="a_Node000022"><a xlink:href="iio__trigger_8c.html" target="_top" xlink:title="Implementation of generic iio trigger.">
<polygon fill="white" stroke="#666666" points="1872,-189.5 1783,-189.5 1783,-170.5 1872,-170.5 1872,-189.5"/>
<text text-anchor="middle" x="1827.5" y="-177.5" font-family="Helvetica,sans-Serif" font-size="10.00">iio/iio_trigger.c</text>
</a>
</g>
</g>
<!-- Node1&#45;&gt;Node22 -->
<g id="edge23_Node000001_Node000022" class="edge">
<title>Node1&#45;&gt;Node22</title>
<g id="a_edge23_Node000001_Node000022"><a xlink:title=" ">
<path fill="none" stroke="#63b8ff" d="M1510.59,-247.86C1575.04,-243.63 1684.4,-232.86 1774.5,-206 1787.76,-202.05 1801.89,-195.24 1812.22,-189.72"/>
<polygon fill="#63b8ff" stroke="#63b8ff" points="1510.02,-244.39 1500.26,-248.51 1510.46,-251.38 1510.02,-244.39"/>
</a>
</g>
</g>
<!-- Node23 -->
<g id="Node000023" class="node">
<title>Node23</title>
<g id="a_Node000023"><a xlink:href="ad4692__ardz_2src_2examples_2iio__trigger_2iio__trigger__example_8c.html" target="_top" xlink:title="Implementation of IIO trigger example for AD4692 project.">
<polygon fill="white" stroke="#666666" points="2027,-200.5 1890,-200.5 1890,-159.5 2027,-159.5 2027,-200.5"/>
<text text-anchor="start" x="1898" y="-188.5" font-family="Helvetica,sans-Serif" font-size="10.00">projects/ad4692_ardz</text>
<text text-anchor="start" x="1898" y="-177.5" font-family="Helvetica,sans-Serif" font-size="10.00">/src/examples/iio_trigger</text>
<text text-anchor="middle" x="1958.5" y="-166.5" font-family="Helvetica,sans-Serif" font-size="10.00">/iio_trigger_example.c</text>
</a>
</g>
</g>
<!-- Node1&#45;&gt;Node23 -->
<g id="edge24_Node000001_Node000023" class="edge">
<title>Node1&#45;&gt;Node23</title>
<g id="a_edge24_Node000001_Node000023"><a xlink:title=" ">
<path fill="none" stroke="#63b8ff" d="M1510.18,-248.46C1591.8,-244.58 1750,-233.89 1881.5,-206 1888.51,-204.51 1895.79,-202.63 1902.94,-200.56"/>
<polygon fill="#63b8ff" stroke="#63b8ff" points="1509.96,-244.96 1500.13,-248.92 1510.28,-251.95 1509.96,-244.96"/>
</a>
</g>
</g>
<!-- Node24 -->
<g id="Node000024" class="node">
<title>Node24</title>
<g id="a_Node000024"><a xlink:href="admt4000_2src_2examples_2iio__trigger__example_2iio__trigger__example_8c.html" target="_top" xlink:title="Source file for iio example.">
<polygon fill="white" stroke="#666666" points="2218,-200.5 2045,-200.5 2045,-159.5 2218,-159.5 2218,-200.5"/>
<text text-anchor="start" x="2053" y="-188.5" font-family="Helvetica,sans-Serif" font-size="10.00">projects/admt4000/src</text>
<text text-anchor="start" x="2053" y="-177.5" font-family="Helvetica,sans-Serif" font-size="10.00">/examples/iio_trigger</text>
<text text-anchor="middle" x="2131.5" y="-166.5" font-family="Helvetica,sans-Serif" font-size="10.00">_example/iio_trigger_example.c</text>
</a>
</g>
</g>
<!-- Node1&#45;&gt;Node24 -->
<g id="edge26_Node000001_Node000024" class="edge">
<title>Node1&#45;&gt;Node24</title>
<g id="a_edge26_Node000001_Node000024"><a xlink:title=" ">
<path fill="none" stroke="#63b8ff" d="M1510.52,-249.59C1614.14,-247.15 1845.06,-238.25 2036.5,-206 2045.25,-204.53 2054.36,-202.62 2063.33,-200.52"/>
<polygon fill="#63b8ff" stroke="#63b8ff" points="1510.22,-246.1 1500.3,-249.82 1510.37,-253.1 1510.22,-246.1"/>
</a>
</g>
</g>
<!-- Node25 -->
<g id="Node000025" class="node">
<title>Node25</title>
<g id="a_Node000025"><a xlink:href="eval-adis1646x_2src_2examples_2iio__trigger__example_2iio__trigger__example_8c.html" target="_top" xlink:title="Implementation of IIO trigger example for eval&#45;adis1646x project.">
<polygon fill="white" stroke="#666666" points="2409,-200.5 2236,-200.5 2236,-159.5 2409,-159.5 2409,-200.5"/>
<text text-anchor="start" x="2244" y="-188.5" font-family="Helvetica,sans-Serif" font-size="10.00">projects/eval&#45;adis1646x</text>
<text text-anchor="start" x="2244" y="-177.5" font-family="Helvetica,sans-Serif" font-size="10.00">/src/examples/iio_trigger</text>
<text text-anchor="middle" x="2322.5" y="-166.5" font-family="Helvetica,sans-Serif" font-size="10.00">_example/iio_trigger_example.c</text>
</a>
</g>
</g>
<!-- Node1&#45;&gt;Node25 -->
<g id="edge29_Node000001_Node000025" class="edge">
<title>Node1&#45;&gt;Node25</title>
<g id="a_edge29_Node000001_Node000025"><a xlink:title=" ">
<path fill="none" stroke="#63b8ff" d="M1510.46,-251.08C1637.54,-251.61 1961.19,-248.28 2227.5,-206 2236.43,-204.58 2245.73,-202.68 2254.87,-200.56"/>
<polygon fill="#63b8ff" stroke="#63b8ff" points="1510.24,-247.58 1500.22,-251.03 1510.2,-254.58 1510.24,-247.58"/>
</a>
</g>
</g>
<!-- Node26 -->
<g id="Node000026" class="node">
<title>Node26</title>
<g id="a_Node000026"><a xlink:href="eval-adis1647x_2src_2examples_2iio__trigger__example_2iio__trigger__example_8c.html" target="_top" xlink:title="Implementation of IIO trigger example for eval&#45;adis1647x project.">
<polygon fill="white" stroke="#666666" points="2600,-200.5 2427,-200.5 2427,-159.5 2600,-159.5 2600,-200.5"/>
<text text-anchor="start" x="2435" y="-188.5" font-family="Helvetica,sans-Serif" font-size="10.00">projects/eval&#45;adis1647x</text>
<text text-anchor="start" x="2435" y="-177.5" font-family="Helvetica,sans-Serif" font-size="10.00">/src/examples/iio_trigger</text>
<text text-anchor="middle" x="2513.5" y="-166.5" font-family="Helvetica,sans-Serif" font-size="10.00">_example/iio_trigger_example.c</text>
</a>
</g>
</g>
<!-- Node1&#45;&gt;Node26 -->
<g id="edge30_Node000001_Node000026" class="edge">
<title>Node1&#45;&gt;Node26</title>
<g id="a_edge30_Node000001_Node000026"><a xlink:title=" ">
<path fill="none" stroke="#63b8ff" d="M1510.19,-249.49C1686.91,-245.99 2241.39,-233.09 2418.5,-206 2427.6,-204.61 2437.09,-202.69 2446.4,-200.53"/>
<polygon fill="#63b8ff" stroke="#63b8ff" points="1510.01,-245.99 1500.08,-249.69 1510.15,-252.99 1510.01,-245.99"/>
</a>
</g>
</g>
<!-- Node27 -->
<g id="Node000027" class="node">
<title>Node27</title>
<g id="a_Node000027"><a xlink:href="eval-adis1650x_2src_2examples_2iio__trigger__example_2iio__trigger__example_8c.html" target="_top" xlink:title="Implementation of IIO trigger example for eval&#45;adis1650x project.">
<polygon fill="white" stroke="#666666" points="2791,-200.5 2618,-200.5 2618,-159.5 2791,-159.5 2791,-200.5"/>
<text text-anchor="start" x="2626" y="-188.5" font-family="Helvetica,sans-Serif" font-size="10.00">projects/eval&#45;adis1650x</text>
<text text-anchor="start" x="2626" y="-177.5" font-family="Helvetica,sans-Serif" font-size="10.00">/src/examples/iio_trigger</text>
<text text-anchor="middle" x="2704.5" y="-166.5" font-family="Helvetica,sans-Serif" font-size="10.00">_example/iio_trigger_example.c</text>
</a>
</g>
</g>
<!-- Node1&#45;&gt;Node27 -->
<g id="edge31_Node000001_Node000027" class="edge">
<title>Node1&#45;&gt;Node27</title>
<g id="a_edge31_Node000001_Node000027"><a xlink:title=" ">
<path fill="none" stroke="#63b8ff" d="M1510.35,-249.97C1709.43,-247.82 2393.49,-238.19 2609.5,-206 2618.69,-204.63 2628.28,-202.71 2637.67,-200.54"/>
<polygon fill="#63b8ff" stroke="#63b8ff" points="1510.1,-246.48 1500.13,-250.08 1510.17,-253.48 1510.1,-246.48"/>
</a>
</g>
</g>
<!-- Node28 -->
<g id="Node000028" class="node">
<title>Node28</title>
<g id="a_Node000028"><a xlink:href="eval-adis1654x_2src_2examples_2iio__trigger__example_2iio__trigger__example_8c.html" target="_top" xlink:title="Implementation of IIO trigger example for eval&#45;adis1654x project.">
<polygon fill="white" stroke="#666666" points="2982,-200.5 2809,-200.5 2809,-159.5 2982,-159.5 2982,-200.5"/>
<text text-anchor="start" x="2817" y="-188.5" font-family="Helvetica,sans-Serif" font-size="10.00">projects/eval&#45;adis1654x</text>
<text text-anchor="start" x="2817" y="-177.5" font-family="Helvetica,sans-Serif" font-size="10.00">/src/examples/iio_trigger</text>
<text text-anchor="middle" x="2895.5" y="-166.5" font-family="Helvetica,sans-Serif" font-size="10.00">_example/iio_trigger_example.c</text>
</a>
</g>
</g>
<!-- Node1&#45;&gt;Node28 -->
<g id="edge32_Node000001_Node000028" class="edge">
<title>Node1&#45;&gt;Node28</title>
<g id="a_edge32_Node000001_Node000028"><a xlink:title=" ">
<path fill="none" stroke="#63b8ff" d="M1510.44,-250.32C1730.06,-249.36 2545.33,-243.31 2800.5,-206 2809.78,-204.64 2819.46,-202.71 2828.94,-200.52"/>
<polygon fill="#63b8ff" stroke="#63b8ff" points="1510.12,-246.82 1500.13,-250.37 1510.15,-253.82 1510.12,-246.82"/>
</a>
</g>
</g>
<!-- Node29 -->
<g id="Node000029" class="node">
<title>Node29</title>
<g id="a_Node000029"><a xlink:href="eval-adis1655x_2src_2examples_2iio__trigger__example_2iio__trigger__example_8c.html" target="_top" xlink:title="Implementation of IIO trigger example for eval&#45;adis1655x project.">
<polygon fill="white" stroke="#666666" points="3173,-200.5 3000,-200.5 3000,-159.5 3173,-159.5 3173,-200.5"/>
<text text-anchor="start" x="3008" y="-188.5" font-family="Helvetica,sans-Serif" font-size="10.00">projects/eval&#45;adis1655x</text>
<text text-anchor="start" x="3008" y="-177.5" font-family="Helvetica,sans-Serif" font-size="10.00">/src/examples/iio_trigger</text>
<text text-anchor="middle" x="3086.5" y="-166.5" font-family="Helvetica,sans-Serif" font-size="10.00">_example/iio_trigger_example.c</text>
</a>
</g>
</g>
<!-- Node1&#45;&gt;Node29 -->
<g id="edge33_Node000001_Node000029" class="edge">
<title>Node1&#45;&gt;Node29</title>
<g id="a_edge33_Node000001_Node000029"><a xlink:title=" ">
<path fill="none" stroke="#63b8ff" d="M1510.23,-250.59C1748.53,-250.71 2696.84,-248.47 2991.5,-206 3000.78,-204.66 3010.46,-202.74 3019.94,-200.56"/>
<polygon fill="#63b8ff" stroke="#63b8ff" points="1510.08,-247.09 1500.08,-250.58 1510.07,-254.09 1510.08,-247.09"/>
</a>
</g>
</g>
<!-- Node30 -->
<g id="Node000030" class="node">
<title>Node30</title>
<g id="a_Node000030"><a xlink:href="eval-adis1657x_2src_2examples_2iio__trigger__example_2iio__trigger__example_8c.html" target="_top" xlink:title="Implementation of IIO trigger example for eval&#45;adis1657x project.">
<polygon fill="white" stroke="#666666" points="3364,-200.5 3191,-200.5 3191,-159.5 3364,-159.5 3364,-200.5"/>
<text text-anchor="start" x="3199" y="-188.5" font-family="Helvetica,sans-Serif" font-size="10.00">projects/eval&#45;adis1657x</text>
<text text-anchor="start" x="3199" y="-177.5" font-family="Helvetica,sans-Serif" font-size="10.00">/src/examples/iio_trigger</text>
<text text-anchor="middle" x="3277.5" y="-166.5" font-family="Helvetica,sans-Serif" font-size="10.00">_example/iio_trigger_example.c</text>
</a>
</g>
</g>
<!-- Node1&#45;&gt;Node30 -->
<g id="edge34_Node000001_Node000030" class="edge">
<title>Node1&#45;&gt;Node30</title>
<g id="a_edge34_Node000001_Node000030"><a xlink:title=" ">
<path fill="none" stroke="#63b8ff" d="M1510.2,-250.79C1766.29,-251.9 2848.27,-253.63 3182.5,-206 3191.87,-204.66 3201.64,-202.73 3211.2,-200.53"/>
<polygon fill="#63b8ff" stroke="#63b8ff" points="1510.05,-247.29 1500.03,-250.75 1510.02,-254.29 1510.05,-247.29"/>
</a>
</g>
</g>
<!-- Node31 -->
<g id="Node000031" class="node">
<title>Node31</title>
<g id="a_Node000031"><a xlink:href="eval-adxl355-pmdz_2src_2examples_2iio__trigger__example_2iio__trigger__example_8c.html" target="_top" xlink:title="Implementation of IIO trigger example for eval&#45;adxl355&#45;pmdz project.">
<polygon fill="white" stroke="#666666" points="3537,-206 3382,-206 3382,-154 3537,-154 3537,-206"/>
<text text-anchor="start" x="3390" y="-194" font-family="Helvetica,sans-Serif" font-size="10.00">projects/eval&#45;adxl355</text>
<text text-anchor="start" x="3390" y="-183" font-family="Helvetica,sans-Serif" font-size="10.00">&#45;pmdz/src/examples/iio</text>
<text text-anchor="start" x="3390" y="-172" font-family="Helvetica,sans-Serif" font-size="10.00">_trigger_example/iio_trigger</text>
<text text-anchor="middle" x="3459.5" y="-161" font-family="Helvetica,sans-Serif" font-size="10.00">_example.c</text>
</a>
</g>
</g>
<!-- Node1&#45;&gt;Node31 -->
<g id="edge35_Node000001_Node000031" class="edge">
<title>Node1&#45;&gt;Node31</title>
<g id="a_edge35_Node000001_Node000031"><a xlink:title=" ">
<path fill="none" stroke="#63b8ff" d="M1510.44,-250.08C1804.43,-247.69 3185.41,-235.01 3373.5,-206 3376.27,-205.57 3379.07,-205.08 3381.89,-204.54"/>
<polygon fill="#63b8ff" stroke="#63b8ff" points="1510.01,-246.58 1500.04,-250.16 1510.07,-253.58 1510.01,-246.58"/>
</a>
</g>
</g>
<!-- Node4 -->
<g id="Node000004" class="node">
<title>Node4</title>
<g id="a_Node000004"><a xlink:href="iio__ad74413r_8c.html" target="_top" xlink:title="Source file of the IIO AD74413r Driver.">
<polygon fill="white" stroke="#666666" points="369.5,-107 229.5,-107 229.5,-77 369.5,-77 369.5,-107"/>
<text text-anchor="start" x="237.5" y="-95" font-family="Helvetica,sans-Serif" font-size="10.00">drivers/adc&#45;dac/ad74413r</text>
<text text-anchor="middle" x="299.5" y="-84" font-family="Helvetica,sans-Serif" font-size="10.00">/iio_ad74413r.c</text>
</a>
</g>
</g>
<!-- Node3&#45;&gt;Node4 -->
<g id="edge3_Node000003_Node000004" class="edge">
<title>Node3&#45;&gt;Node4</title>
<g id="a_edge3_Node000003_Node000004"><a xlink:title=" ">
<path fill="none" stroke="#63b8ff" d="M312.46,-154.93C309.25,-139.57 305.19,-120.18 302.48,-107.22"/>
<polygon fill="#63b8ff" stroke="#63b8ff" points="309.05,-155.73 314.53,-164.8 315.9,-154.29 309.05,-155.73"/>
</a>
</g>
</g>
<!-- Node5 -->
<g id="Node000005" class="node">
<title>Node5</title>
<g id="a_Node000005"><a xlink:href="ad74413r_2src_2examples_2iio__example_2iio__example_8c.html" target="_top" xlink:title="Implementation of IIO example for AD74413R project.">
<polygon fill="white" stroke="#666666" points="519,-112.5 388,-112.5 388,-71.5 519,-71.5 519,-112.5"/>
<text text-anchor="start" x="396" y="-100.5" font-family="Helvetica,sans-Serif" font-size="10.00">projects/ad74413r/src</text>
<text text-anchor="start" x="396" y="-89.5" font-family="Helvetica,sans-Serif" font-size="10.00">/examples/iio_example</text>
<text text-anchor="middle" x="453.5" y="-78.5" font-family="Helvetica,sans-Serif" font-size="10.00">/iio_example.c</text>
</a>
</g>
</g>
<!-- Node3&#45;&gt;Node5 -->
<g id="edge4_Node000003_Node000005" class="edge">
<title>Node3&#45;&gt;Node5</title>
<g id="a_edge4_Node000003_Node000005"><a xlink:title=" ">
<path fill="none" stroke="#63b8ff" d="M348.34,-159.5C370.5,-145.48 400.26,-126.66 422.47,-112.62"/>
<polygon fill="#63b8ff" stroke="#63b8ff" points="346.23,-156.69 339.65,-164.99 349.98,-162.6 346.23,-156.69"/>
</a>
</g>
</g>
<!-- Node3&#45;&gt;Node6 -->
<g id="edge5_Node000003_Node000006" class="edge">
<title>Node3&#45;&gt;Node6</title>
<g id="a_edge5_Node000003_Node000006"><a xlink:title=" ">
<path fill="none" stroke="#63b8ff" d="M270.06,-161.34C231.99,-147.17 178.6,-127.29 139.21,-112.62"/>
<polygon fill="#63b8ff" stroke="#63b8ff" points="269.28,-164.78 279.87,-164.99 271.72,-158.22 269.28,-164.78"/>
</a>
</g>
</g>
<!-- Node7 -->
<g id="Node000007" class="node">
<title>Node7</title>
<g id="a_Node000007"><a xlink:href="swiot_8c.html" target="_top" xlink:title="Source file for the swiot IIO driver.">
<polygon fill="white" stroke="#666666" points="690,-30 579,-30 579,0 690,0 690,-30"/>
<text text-anchor="start" x="587" y="-18" font-family="Helvetica,sans-Serif" font-size="10.00">projects/swiot1l/src</text>
<text text-anchor="middle" x="634.5" y="-7" font-family="Helvetica,sans-Serif" font-size="10.00">/common/swiot.c</text>
</a>
</g>
</g>
<!-- Node3&#45;&gt;Node7 -->
<g id="edge6_Node000003_Node000007" class="edge">
<title>Node3&#45;&gt;Node7</title>
<g id="a_edge6_Node000003_Node000007"><a xlink:title=" ">
<path fill="none" stroke="#63b8ff" d="M366.88,-161.97C376.62,-159.01 386.82,-156.19 396.5,-154 453.4,-141.16 618.19,-161.98 656.5,-118 678.27,-93 657.68,-51.62 644.16,-30.05"/>
<polygon fill="#63b8ff" stroke="#63b8ff" points="365.83,-158.63 357.33,-164.95 367.92,-165.31 365.83,-158.63"/>
</a>
</g>
</g>
<!-- Node8 -->
<g id="Node000008" class="node">
<title>Node8</title>
<g id="a_Node000008"><a xlink:href="swiot_8h.html" target="_top" xlink:title="Header file for the swiot IIO device.">
<polygon fill="white" stroke="#666666" points="648,-107 537,-107 537,-77 648,-77 648,-107"/>
<text text-anchor="start" x="545" y="-95" font-family="Helvetica,sans-Serif" font-size="10.00">projects/swiot1l/src</text>
<text text-anchor="middle" x="592.5" y="-84" font-family="Helvetica,sans-Serif" font-size="10.00">/common/swiot.h</text>
</a>
</g>
</g>
<!-- Node3&#45;&gt;Node8 -->
<g id="edge7_Node000003_Node000008" class="edge">
<title>Node3&#45;&gt;Node8</title>
<g id="a_edge7_Node000003_Node000008"><a xlink:title=" ">
<path fill="none" stroke="#63b8ff" d="M370.52,-161.91C379.18,-159.21 388.08,-156.49 396.5,-154 454.41,-136.89 470.14,-136.86 527.5,-118 537.49,-114.71 548.2,-110.77 557.98,-107"/>
<polygon fill="#63b8ff" stroke="#63b8ff" points="369.36,-158.61 360.87,-164.95 371.46,-165.29 369.36,-158.61"/>
</a>
</g>
</g>
<!-- Node9 -->
<g id="Node000009" class="node">
<title>Node9</title>
<g id="a_Node000009"><a xlink:href="swiot__fw_8c.html" target="_top" xlink:title="Main project file for the swiot1l project.">
<polygon fill="white" stroke="#666666" points="430,-30 319,-30 319,0 430,0 430,-30"/>
<text text-anchor="start" x="327" y="-18" font-family="Helvetica,sans-Serif" font-size="10.00">projects/swiot1l/src</text>
<text text-anchor="middle" x="374.5" y="-7" font-family="Helvetica,sans-Serif" font-size="10.00">/swiot_fw.c</text>
</a>
</g>
</g>
<!-- Node3&#45;&gt;Node9 -->
<g id="edge10_Node000003_Node000009" class="edge">
<title>Node3&#45;&gt;Node9</title>
<g id="a_edge10_Node000003_Node000009"><a xlink:title=" ">
<path fill="none" stroke="#63b8ff" d="M268.72,-160.57C250.18,-150.89 231,-137 220.5,-118 209.32,-97.77 206.91,-84.7 220.5,-66 242.81,-35.3 284.42,-23.08 318.76,-18.38"/>
<polygon fill="#63b8ff" stroke="#63b8ff" points="267.22,-163.73 277.74,-164.99 270.3,-157.45 267.22,-163.73"/>
</a>
</g>
</g>
<!-- Node8&#45;&gt;Node7 -->
<g id="edge8_Node000008_Node000007" class="edge">
<title>Node8&#45;&gt;Node7</title>
<g id="a_edge8_Node000008_Node000007"><a xlink:title=" ">
<path fill="none" stroke="#63b8ff" d="M605.37,-68.01C612.32,-55.61 620.66,-40.71 626.64,-30.04"/>
<polygon fill="#63b8ff" stroke="#63b8ff" points="602.23,-66.46 600.4,-76.89 608.34,-69.88 602.23,-66.46"/>
</a>
</g>
</g>
<!-- Node8&#45;&gt;Node9 -->
<g id="edge9_Node000008_Node000009" class="edge">
<title>Node8&#45;&gt;Node9</title>
<g id="a_edge9_Node000008_Node000009"><a xlink:title=" ">
<path fill="none" stroke="#63b8ff" d="M547.31,-73.28C540.68,-70.78 533.93,-68.29 527.5,-66 491.43,-53.18 450.14,-39.76 419.56,-30.06"/>
<polygon fill="#63b8ff" stroke="#63b8ff" points="546.27,-76.63 556.86,-76.91 548.76,-70.09 546.27,-76.63"/>
</a>
</g>
</g>
<!-- Node14 -->
<g id="Node000014" class="node">
<title>Node14</title>
<g id="a_Node000014"><a xlink:href="adxrs290-pmdz_2src_2examples_2iio__example_2iio__example_8c.html" target="_top" xlink:title="Implementation of IIO example for eval&#45;adxrs290&#45;pmdz project.">
<polygon fill="white" stroke="#666666" points="1019.5,-112.5 871.5,-112.5 871.5,-71.5 1019.5,-71.5 1019.5,-112.5"/>
<text text-anchor="start" x="879.5" y="-100.5" font-family="Helvetica,sans-Serif" font-size="10.00">projects/adxrs290&#45;pmdz</text>
<text text-anchor="start" x="879.5" y="-89.5" font-family="Helvetica,sans-Serif" font-size="10.00">/src/examples/iio_example</text>
<text text-anchor="middle" x="945.5" y="-78.5" font-family="Helvetica,sans-Serif" font-size="10.00">/iio_example.c</text>
</a>
</g>
</g>
<!-- Node13&#45;&gt;Node14 -->
<g id="edge15_Node000013_Node000014" class="edge">
<title>Node13&#45;&gt;Node14</title>
<g id="a_edge15_Node000013_Node000014"><a xlink:title=" ">
<path fill="none" stroke="#63b8ff" d="M932.55,-154.89C935.33,-141.58 938.75,-125.24 941.38,-112.69"/>
<polygon fill="#63b8ff" stroke="#63b8ff" points="929.1,-154.29 930.47,-164.8 935.95,-155.73 929.1,-154.29"/>
</a>
</g>
</g>
<!-- Node13&#45;&gt;Node15 -->
<g id="edge16_Node000013_Node000015" class="edge">
<title>Node13&#45;&gt;Node15</title>
<g id="a_edge16_Node000013_Node000015"><a xlink:title=" ">
<path fill="none" stroke="#63b8ff" d="M894.53,-159.97C873.19,-147.65 845.18,-131.48 822.02,-118.12"/>
<polygon fill="#63b8ff" stroke="#63b8ff" points="892.82,-163.02 903.23,-164.99 896.32,-156.96 892.82,-163.02"/>
</a>
</g>
</g>
<!-- Node13&#45;&gt;Node16 -->
<g id="edge17_Node000013_Node000016" class="edge">
<title>Node13&#45;&gt;Node16</title>
<g id="a_edge17_Node000013_Node000016"><a xlink:title=" ">
<path fill="none" stroke="#63b8ff" d="M968.79,-160.97C1001.2,-146.83 1046.24,-127.16 1079.55,-112.62"/>
<polygon fill="#63b8ff" stroke="#63b8ff" points="967.35,-157.78 959.59,-164.99 970.16,-164.2 967.35,-157.78"/>
</a>
</g>
</g>
</g>
</svg>
