<?xml version="1.0" encoding="UTF-8" standalone="no"?>
<!DOCTYPE svg PUBLIC "-//W3C//DTD SVG 1.1//EN"
 "http://www.w3.org/Graphics/SVG/1.1/DTD/svg11.dtd">
<!-- Generated by graphviz version 2.43.0 (0)
 -->
<!-- Title: projects/iio_adpd1080/src/platform/aducm3029/main.c Pages: 1 -->
<!--zoomable 324 -->

<svg id="main" version="1.1" xmlns="http://www.w3.org/2000/svg" xmlns:xlink="http://www.w3.org/1999/xlink" xml:space="preserve" onload="init(evt)">

<style type="text/css"><![CDATA[
.node, .edge {opacity: 0.7;}
.node.selected, .edge.selected {opacity: 1;}
.edge:hover path { stroke: red; }
.edge:hover polygon { stroke: red; fill: red; }
]]></style>

<defs>
  <circle id="rim" cx="0" cy="0" r="7"/>
  <circle id="rim2" cx="0" cy="0" r="3.5"/>
  <g id="zoomPlus">
    <use xlink:href="#rim" fill="#404040"><set attributeName="fill" to="#808080" begin="zoomplus.mouseover" end="zoomplus.mouseout"/></use>
    <path d="M-4,0h8M0,-4v8" fill="none" stroke="white" stroke-width="1.5" pointer-events="none"/>
  </g>
  <g id="zoomMin">
    <use xlink:href="#rim" fill="#404040"><set attributeName="fill" to="#808080" begin="zoomminus.mouseover" end="zoomminus.mouseout"/></use>
    <path d="M-4,0h8" fill="none" stroke="white" stroke-width="1.5" pointer-events="none"/>
  </g>
  <g id="arrowUp" transform="translate(30 24)">
    <use xlink:href="#rim"/>
    <path pointer-events="none" fill="none" stroke="white" stroke-width="1.5" d="M0,-3.0v7 M-2.5,-0.5L0,-3.0L2.5,-0.5"/>
  </g>
  <g id="arrowRight" transform="rotate(90) translate(36 -43)">
    <use xlink:href="#rim"/>
    <path pointer-events="none" fill="none" stroke="white" stroke-width="1.5" d="M0,-3.0v7 M-2.5,-0.5L0,-3.0L2.5,-0.5"/>
  </g>
  <g id="arrowDown" transform="rotate(180) translate(-30 -48)">
    <use xlink:href="#rim"/>
    <path pointer-events="none" fill="none" stroke="white" stroke-width="1.5" d="M0,-3.0v7 M-2.5,-0.5L0,-3.0L2.5,-0.5"/>
  </g>
  <g id="arrowLeft" transform="rotate(270) translate(-36 17)">
    <use xlink:href="#rim"/>
    <path pointer-events="none" fill="none" stroke="white" stroke-width="1.5" d="M0,-3.0v7 M-2.5,-0.5L0,-3.0L2.5,-0.5"/>
  </g>
  <g id="resetDef">
    <use xlink:href="#rim2" fill="#404040"><set attributeName="fill" to="#808080" begin="reset.mouseover" end="reset.mouseout"/></use>
  </g>
</defs>
<script type="application/ecmascript">
var viewWidth = 1186;
var viewHeight = 324;
var sectionId = 'dynsection-0';
</script>
<script type="application/ecmascript" xlink:href="svg.min.js"/>
<svg id="graph" class="graph">
<g id="viewport">
<title>projects/iio_adpd1080/src/platform/aducm3029/main.c</title>
<!-- Node1 -->
<g id="Node000001" class="node">
<title>Node1</title>
<g id="a_Node000001"><a xlink:title="Main file for ADuCM3029 platform of iio_adpd1080 project.">
<polygon fill="#999999" stroke="#666666" points="481.5,-316 342.5,-316 342.5,-275 481.5,-275 481.5,-316"/>
<text text-anchor="start" x="350.5" y="-304" font-family="Helvetica,sans-Serif" font-size="10.00">projects/iio_adpd1080</text>
<text text-anchor="start" x="350.5" y="-293" font-family="Helvetica,sans-Serif" font-size="10.00">/src/platform/aducm3029</text>
<text text-anchor="middle" x="412" y="-282" font-family="Helvetica,sans-Serif" font-size="10.00">/main.c</text>
</a>
</g>
</g>
<!-- Node2 -->
<g id="Node000002" class="node">
<title>Node2</title>
<g id="a_Node000002"><a xlink:href="iio__adpd1080_2src_2platform_2aducm3029_2parameters_8h.html" target="_top" xlink:title="Definitions specific to ADuCM3029 platform used by iio_adpd1080 project.">
<polygon fill="white" stroke="#666666" points="400,-239 318,-239 318,-220 400,-220 400,-239"/>
<text text-anchor="middle" x="359" y="-227" font-family="Helvetica,sans-Serif" font-size="10.00">parameters.h</text>
</a>
</g>
</g>
<!-- Node1&#45;&gt;Node2 -->
<g id="edge1_Node000001_Node000002" class="edge">
<title>Node1&#45;&gt;Node2</title>
<g id="a_edge1_Node000001_Node000002"><a xlink:title=" ">
<path fill="none" stroke="#63b8ff" d="M395.81,-274.95C388.41,-266.02 379.75,-255.55 372.68,-247.02"/>
<polygon fill="#63b8ff" stroke="#63b8ff" points="375.33,-244.73 366.25,-239.26 369.94,-249.19 375.33,-244.73"/>
</a>
</g>
</g>
<!-- Node24 -->
<g id="Node000024" class="node">
<title>Node24</title>
<g id="a_Node000024"><a xlink:title=" ">
<polygon fill="#e0e0e0" stroke="#999999" points="513.5,-239 418.5,-239 418.5,-220 513.5,-220 513.5,-239"/>
<text text-anchor="middle" x="466" y="-227" font-family="Helvetica,sans-Serif" font-size="10.00">common_data.h</text>
</a>
</g>
</g>
<!-- Node1&#45;&gt;Node24 -->
<g id="edge37_Node000001_Node000024" class="edge">
<title>Node1&#45;&gt;Node24</title>
<g id="a_edge37_Node000001_Node000024"><a xlink:title=" ">
<path fill="none" stroke="#63b8ff" d="M428.5,-274.95C436.03,-266.02 444.86,-255.55 452.06,-247.02"/>
<polygon fill="#63b8ff" stroke="#63b8ff" points="454.83,-249.16 458.61,-239.26 449.48,-244.65 454.83,-249.16"/>
</a>
</g>
</g>
<!-- Node3 -->
<g id="Node000003" class="node">
<title>Node3</title>
<g id="a_Node000003"><a xlink:title=" ">
<polygon fill="#e0e0e0" stroke="#999999" points="50,-184 0,-184 0,-165 50,-165 50,-184"/>
<text text-anchor="middle" x="25" y="-172" font-family="Helvetica,sans-Serif" font-size="10.00">stdio.h</text>
</a>
</g>
</g>
<!-- Node2&#45;&gt;Node3 -->
<g id="edge2_Node000002_Node000003" class="edge">
<title>Node2&#45;&gt;Node3</title>
<g id="a_edge2_Node000002_Node000003"><a xlink:title=" ">
<path fill="none" stroke="#63b8ff" d="M317.53,-223.65C261.37,-216.8 157.84,-203.16 60.22,-184.07"/>
<polygon fill="#63b8ff" stroke="#63b8ff" points="60.68,-180.6 50.19,-182.09 59.32,-187.46 60.68,-180.6"/>
</a>
</g>
</g>
<!-- Node4 -->
<g id="Node000004" class="node">
<title>Node4</title>
<g id="a_Node000004"><a xlink:href="platform__init_8h.html" target="_top" xlink:title="ADuCM3029 platform initialization header.">
<polygon fill="white" stroke="#666666" points="157.5,-184 68.5,-184 68.5,-165 157.5,-165 157.5,-184"/>
<text text-anchor="middle" x="113" y="-172" font-family="Helvetica,sans-Serif" font-size="10.00">platform_init.h</text>
</a>
</g>
</g>
<!-- Node2&#45;&gt;Node4 -->
<g id="edge3_Node000002_Node000004" class="edge">
<title>Node2&#45;&gt;Node4</title>
<g id="a_edge3_Node000002_Node000004"><a xlink:title=" ">
<path fill="none" stroke="#63b8ff" d="M319.48,-219.98C276.83,-210.8 208.85,-196.15 162.64,-186.19"/>
<polygon fill="#63b8ff" stroke="#63b8ff" points="163.35,-182.77 152.83,-184.08 161.87,-189.61 163.35,-182.77"/>
</a>
</g>
</g>
<!-- Node5 -->
<g id="Node000005" class="node">
<title>Node5</title>
<g id="a_Node000005"><a xlink:href="aducm3029__gpio_8h.html" target="_top" xlink:title=" ">
<polygon fill="white" stroke="#666666" points="284.5,-184 175.5,-184 175.5,-165 284.5,-165 284.5,-184"/>
<text text-anchor="middle" x="230" y="-172" font-family="Helvetica,sans-Serif" font-size="10.00">aducm3029_gpio.h</text>
</a>
</g>
</g>
<!-- Node2&#45;&gt;Node5 -->
<g id="edge4_Node000002_Node000005" class="edge">
<title>Node2&#45;&gt;Node5</title>
<g id="a_edge4_Node000002_Node000005"><a xlink:title=" ">
<path fill="none" stroke="#63b8ff" d="M338.27,-219.98C317.24,-211.34 284.45,-197.87 260.46,-188.02"/>
<polygon fill="#63b8ff" stroke="#63b8ff" points="261.68,-184.73 251.1,-184.17 259.02,-191.21 261.68,-184.73"/>
</a>
</g>
</g>
<!-- Node6 -->
<g id="Node000006" class="node">
<title>Node6</title>
<g id="a_Node000006"><a xlink:href="aducm3029__gpio__irq_8h.html" target="_top" xlink:title="Header file of GPIO IRQ interface for ADuCM3029 platform.">
<polygon fill="white" stroke="#666666" points="468.5,-184 341.5,-184 341.5,-165 468.5,-165 468.5,-184"/>
<text text-anchor="middle" x="405" y="-172" font-family="Helvetica,sans-Serif" font-size="10.00">aducm3029_gpio_irq.h</text>
</a>
</g>
</g>
<!-- Node2&#45;&gt;Node6 -->
<g id="edge5_Node000002_Node000006" class="edge">
<title>Node2&#45;&gt;Node6</title>
<g id="a_edge5_Node000002_Node000006"><a xlink:title=" ">
<path fill="none" stroke="#63b8ff" d="M366.6,-219.75C373.16,-212.18 382.82,-201.05 390.81,-191.84"/>
<polygon fill="#63b8ff" stroke="#63b8ff" points="393.63,-193.94 397.55,-184.09 388.35,-189.35 393.63,-193.94"/>
</a>
</g>
</g>
<!-- Node8 -->
<g id="Node000008" class="node">
<title>Node8</title>
<g id="a_Node000008"><a xlink:href="aducm3029__i2c_8h.html" target="_top" xlink:title=" ">
<polygon fill="white" stroke="#666666" points="871,-184 769,-184 769,-165 871,-165 871,-184"/>
<text text-anchor="middle" x="820" y="-172" font-family="Helvetica,sans-Serif" font-size="10.00">aducm3029_i2c.h</text>
</a>
</g>
</g>
<!-- Node2&#45;&gt;Node8 -->
<g id="edge7_Node000002_Node000008" class="edge">
<title>Node2&#45;&gt;Node8</title>
<g id="a_edge7_Node000002_Node000008"><a xlink:title=" ">
<path fill="none" stroke="#63b8ff" d="M400.16,-221.41C403.49,-220.91 406.8,-220.43 410,-220 561.8,-199.56 603.1,-202.82 759.01,-184.07"/>
<polygon fill="#63b8ff" stroke="#63b8ff" points="759.45,-187.55 768.95,-182.87 758.61,-180.6 759.45,-187.55"/>
</a>
</g>
</g>
<!-- Node9 -->
<g id="Node000009" class="node">
<title>Node9</title>
<g id="a_Node000009"><a xlink:href="aducm3029__irq_8h.html" target="_top" xlink:title="Header file of IRQ driver for ADuCM302x.">
<polygon fill="white" stroke="#666666" points="587.5,-184 486.5,-184 486.5,-165 587.5,-165 587.5,-184"/>
<text text-anchor="middle" x="537" y="-172" font-family="Helvetica,sans-Serif" font-size="10.00">aducm3029_irq.h</text>
</a>
</g>
</g>
<!-- Node2&#45;&gt;Node9 -->
<g id="edge8_Node000002_Node000009" class="edge">
<title>Node2&#45;&gt;Node9</title>
<g id="a_edge8_Node000002_Node000009"><a xlink:title=" ">
<path fill="none" stroke="#63b8ff" d="M387.6,-219.98C417.61,-211.05 464.98,-196.94 498.32,-187.02"/>
<polygon fill="#63b8ff" stroke="#63b8ff" points="499.59,-190.29 508.18,-184.08 497.59,-183.58 499.59,-190.29"/>
</a>
</g>
</g>
<!-- Node13 -->
<g id="Node000013" class="node">
<title>Node13</title>
<g id="a_Node000013"><a xlink:href="aducm3029__timer_8h.html" target="_top" xlink:title="Header file of TIMER driver for ADuCM302x.">
<polygon fill="white" stroke="#666666" points="314.5,-129 201.5,-129 201.5,-110 314.5,-110 314.5,-129"/>
<text text-anchor="middle" x="258" y="-117" font-family="Helvetica,sans-Serif" font-size="10.00">aducm3029_timer.h</text>
</a>
</g>
</g>
<!-- Node2&#45;&gt;Node13 -->
<g id="edge14_Node000002_Node000013" class="edge">
<title>Node2&#45;&gt;Node13</title>
<g id="a_edge14_Node000002_Node000013"><a xlink:title=" ">
<path fill="none" stroke="#63b8ff" d="M350.73,-219.66C333.71,-201.46 294.52,-159.55 272.93,-136.47"/>
<polygon fill="#63b8ff" stroke="#63b8ff" points="275.48,-134.07 266.1,-129.16 270.37,-138.85 275.48,-134.07"/>
</a>
</g>
</g>
<!-- Node18 -->
<g id="Node000018" class="node">
<title>Node18</title>
<g id="a_Node000018"><a xlink:href="aducm3029__uart_8h.html" target="_top" xlink:title="Header file of UART driver for ADuCM302x.">
<polygon fill="white" stroke="#666666" points="750.5,-184 643.5,-184 643.5,-165 750.5,-165 750.5,-184"/>
<text text-anchor="middle" x="697" y="-172" font-family="Helvetica,sans-Serif" font-size="10.00">aducm3029_uart.h</text>
</a>
</g>
</g>
<!-- Node2&#45;&gt;Node18 -->
<g id="edge23_Node000002_Node000018" class="edge">
<title>Node2&#45;&gt;Node18</title>
<g id="a_edge23_Node000002_Node000018"><a xlink:title=" ">
<path fill="none" stroke="#63b8ff" d="M400.19,-221.59C403.51,-221.05 406.81,-220.51 410,-220 486.67,-207.67 574.95,-194.07 633.14,-185.19"/>
<polygon fill="#63b8ff" stroke="#63b8ff" points="633.92,-188.61 643.28,-183.64 632.87,-181.69 633.92,-188.61"/>
</a>
</g>
</g>
<!-- Node7 -->
<g id="Node000007" class="node">
<title>Node7</title>
<g id="a_Node000007"><a xlink:title=" ">
<polygon fill="#e0e0e0" stroke="#999999" points="455.5,-129 332.5,-129 332.5,-110 455.5,-110 455.5,-129"/>
<text text-anchor="middle" x="394" y="-117" font-family="Helvetica,sans-Serif" font-size="10.00">drivers/xint/adi_xint.h</text>
</a>
</g>
</g>
<!-- Node6&#45;&gt;Node7 -->
<g id="edge6_Node000006_Node000007" class="edge">
<title>Node6&#45;&gt;Node7</title>
<g id="a_edge6_Node000006_Node000007"><a xlink:title=" ">
<path fill="none" stroke="#63b8ff" d="M403.18,-164.75C401.74,-157.8 399.68,-147.85 397.87,-139.13"/>
<polygon fill="#63b8ff" stroke="#63b8ff" points="401.24,-138.17 395.78,-129.09 394.39,-139.59 401.24,-138.17"/>
</a>
</g>
</g>
<!-- Node9&#45;&gt;Node7 -->
<g id="edge9_Node000009_Node000007" class="edge">
<title>Node9&#45;&gt;Node7</title>
<g id="a_edge9_Node000009_Node000007"><a xlink:title=" ">
<path fill="none" stroke="#63b8ff" d="M514.02,-164.98C490.5,-156.27 453.71,-142.63 427.06,-132.75"/>
<polygon fill="#63b8ff" stroke="#63b8ff" points="427.99,-129.36 417.39,-129.17 425.55,-135.93 427.99,-129.36"/>
</a>
</g>
</g>
<!-- Node10 -->
<g id="Node000010" class="node">
<title>Node10</title>
<g id="a_Node000010"><a xlink:title=" ">
<polygon fill="#e0e0e0" stroke="#999999" points="879,-19 817,-19 817,0 879,0 879,-19"/>
<text text-anchor="middle" x="848" y="-7" font-family="Helvetica,sans-Serif" font-size="10.00">stdbool.h</text>
</a>
</g>
</g>
<!-- Node9&#45;&gt;Node10 -->
<g id="edge10_Node000009_Node000010" class="edge">
<title>Node9&#45;&gt;Node10</title>
<g id="a_edge10_Node000009_Node000010"><a xlink:title=" ">
<path fill="none" stroke="#63b8ff" d="M587.71,-166.71C647.03,-158.29 741.3,-143.3 774,-129 811.54,-112.58 829.59,-110.61 848,-74 854.96,-60.15 854.28,-42.35 852.24,-29.13"/>
<polygon fill="#63b8ff" stroke="#63b8ff" points="855.68,-28.44 850.36,-19.28 848.8,-29.76 855.68,-28.44"/>
</a>
</g>
</g>
<!-- Node11 -->
<g id="Node000011" class="node">
<title>Node11</title>
<g id="a_Node000011"><a xlink:title=" ">
<polygon fill="#e0e0e0" stroke="#999999" points="567.5,-19 514.5,-19 514.5,0 567.5,0 567.5,-19"/>
<text text-anchor="middle" x="541" y="-7" font-family="Helvetica,sans-Serif" font-size="10.00">stdint.h</text>
</a>
</g>
</g>
<!-- Node9&#45;&gt;Node11 -->
<g id="edge11_Node000009_Node000011" class="edge">
<title>Node9&#45;&gt;Node11</title>
<g id="a_edge11_Node000009_Node000011"><a xlink:title=" ">
<path fill="none" stroke="#63b8ff" d="M527.39,-164.69C519.13,-156.41 507.8,-143.18 503,-129 490.83,-93.03 513.29,-50.58 528.56,-27.52"/>
<polygon fill="#63b8ff" stroke="#63b8ff" points="531.54,-29.37 534.35,-19.15 525.78,-25.38 531.54,-29.37"/>
</a>
</g>
</g>
<!-- Node12 -->
<g id="Node000012" class="node">
<title>Node12</title>
<g id="a_Node000012"><a xlink:href="no__os__irq_8h.html" target="_top" xlink:title="Header file of IRQ interface.">
<polygon fill="white" stroke="#666666" points="584,-129 512,-129 512,-110 584,-110 584,-129"/>
<text text-anchor="middle" x="548" y="-117" font-family="Helvetica,sans-Serif" font-size="10.00">no_os_irq.h</text>
</a>
</g>
</g>
<!-- Node9&#45;&gt;Node12 -->
<g id="edge12_Node000009_Node000012" class="edge">
<title>Node9&#45;&gt;Node12</title>
<g id="a_edge12_Node000009_Node000012"><a xlink:title=" ">
<path fill="none" stroke="#63b8ff" d="M538.82,-164.75C540.26,-157.8 542.32,-147.85 544.13,-139.13"/>
<polygon fill="#63b8ff" stroke="#63b8ff" points="547.61,-139.59 546.22,-129.09 540.76,-138.17 547.61,-139.59"/>
</a>
</g>
</g>
<!-- Node12&#45;&gt;Node11 -->
<g id="edge13_Node000012_Node000011" class="edge">
<title>Node12&#45;&gt;Node11</title>
<g id="a_edge13_Node000012_Node000011"><a xlink:title=" ">
<path fill="none" stroke="#63b8ff" d="M547.43,-109.66C546.29,-92.17 543.74,-52.8 542.22,-29.27"/>
<polygon fill="#63b8ff" stroke="#63b8ff" points="545.7,-28.91 541.56,-19.16 538.72,-29.36 545.7,-28.91"/>
</a>
</g>
</g>
<!-- Node13&#45;&gt;Node11 -->
<g id="edge15_Node000013_Node000011" class="edge">
<title>Node13&#45;&gt;Node11</title>
<g id="a_edge15_Node000013_Node000011"><a xlink:title=" ">
<path fill="none" stroke="#63b8ff" d="M247.38,-109.96C232.55,-97.02 209.07,-72.18 224,-55 259.96,-13.64 428.66,-9.6 504.23,-9.92"/>
<polygon fill="#63b8ff" stroke="#63b8ff" points="504.23,-13.42 514.25,-9.99 504.28,-6.42 504.23,-13.42"/>
</a>
</g>
</g>
<!-- Node14 -->
<g id="Node000014" class="node">
<title>Node14</title>
<g id="a_Node000014"><a xlink:href="no__os__util_8h.html" target="_top" xlink:title="Header file of utility functions.">
<polygon fill="white" stroke="#666666" points="701.5,-74 626.5,-74 626.5,-55 701.5,-55 701.5,-74"/>
<text text-anchor="middle" x="664" y="-62" font-family="Helvetica,sans-Serif" font-size="10.00">no_os_util.h</text>
</a>
</g>
</g>
<!-- Node13&#45;&gt;Node14 -->
<g id="edge16_Node000013_Node000014" class="edge">
<title>Node13&#45;&gt;Node14</title>
<g id="a_edge16_Node000013_Node000014"><a xlink:title=" ">
<path fill="none" stroke="#63b8ff" d="M314.72,-111.08C317.52,-110.72 320.29,-110.35 323,-110 427.66,-96.33 550.4,-80.32 616.33,-71.72"/>
<polygon fill="#63b8ff" stroke="#63b8ff" points="616.94,-75.17 626.41,-70.4 616.04,-68.23 616.94,-75.17"/>
</a>
</g>
</g>
<!-- Node16 -->
<g id="Node000016" class="node">
<title>Node16</title>
<g id="a_Node000016"><a xlink:href="no__os__timer_8h.html" target="_top" xlink:title="Timer control module header.">
<polygon fill="white" stroke="#666666" points="318.5,-74 233.5,-74 233.5,-55 318.5,-55 318.5,-74"/>
<text text-anchor="middle" x="276" y="-62" font-family="Helvetica,sans-Serif" font-size="10.00">no_os_timer.h</text>
</a>
</g>
</g>
<!-- Node13&#45;&gt;Node16 -->
<g id="edge20_Node000013_Node000016" class="edge">
<title>Node13&#45;&gt;Node16</title>
<g id="a_edge20_Node000013_Node000016"><a xlink:title=" ">
<path fill="none" stroke="#63b8ff" d="M260.97,-109.75C263.36,-102.72 266.79,-92.62 269.77,-83.84"/>
<polygon fill="#63b8ff" stroke="#63b8ff" points="273.18,-84.68 273.08,-74.09 266.55,-82.43 273.18,-84.68"/>
</a>
</g>
</g>
<!-- Node17 -->
<g id="Node000017" class="node">
<title>Node17</title>
<g id="a_Node000017"><a xlink:title=" ">
<polygon fill="#e0e0e0" stroke="#999999" points="455.5,-74 336.5,-74 336.5,-55 455.5,-55 455.5,-74"/>
<text text-anchor="middle" x="396" y="-62" font-family="Helvetica,sans-Serif" font-size="10.00">drivers/tmr/adi_tmr.h</text>
</a>
</g>
</g>
<!-- Node13&#45;&gt;Node17 -->
<g id="edge22_Node000013_Node000017" class="edge">
<title>Node13&#45;&gt;Node17</title>
<g id="a_edge22_Node000013_Node000017"><a xlink:title=" ">
<path fill="none" stroke="#63b8ff" d="M280.17,-109.98C302.77,-101.3 338.06,-87.75 363.75,-77.88"/>
<polygon fill="#63b8ff" stroke="#63b8ff" points="365.34,-81.02 373.42,-74.17 362.83,-74.49 365.34,-81.02"/>
</a>
</g>
</g>
<!-- Node14&#45;&gt;Node10 -->
<g id="edge19_Node000014_Node000010" class="edge">
<title>Node14&#45;&gt;Node10</title>
<g id="a_edge19_Node000014_Node000010"><a xlink:title=" ">
<path fill="none" stroke="#63b8ff" d="M693.56,-54.98C724.72,-46.01 773.97,-31.82 808.46,-21.89"/>
<polygon fill="#63b8ff" stroke="#63b8ff" points="809.57,-25.21 818.21,-19.08 807.63,-18.49 809.57,-25.21"/>
</a>
</g>
</g>
<!-- Node14&#45;&gt;Node11 -->
<g id="edge17_Node000014_Node000011" class="edge">
<title>Node14&#45;&gt;Node11</title>
<g id="a_edge17_Node000014_Node000011"><a xlink:title=" ">
<path fill="none" stroke="#63b8ff" d="M644.24,-54.98C624.27,-46.38 593.2,-32.99 570.35,-23.15"/>
<polygon fill="#63b8ff" stroke="#63b8ff" points="571.69,-19.91 561.12,-19.17 568.92,-26.34 571.69,-19.91"/>
</a>
</g>
</g>
<!-- Node15 -->
<g id="Node000015" class="node">
<title>Node15</title>
<g id="a_Node000015"><a xlink:title=" ">
<polygon fill="#e0e0e0" stroke="#999999" points="743.5,-19 690.5,-19 690.5,0 743.5,0 743.5,-19"/>
<text text-anchor="middle" x="717" y="-7" font-family="Helvetica,sans-Serif" font-size="10.00">stdlib.h</text>
</a>
</g>
</g>
<!-- Node14&#45;&gt;Node15 -->
<g id="edge18_Node000014_Node000015" class="edge">
<title>Node14&#45;&gt;Node15</title>
<g id="a_edge18_Node000014_Node000015"><a xlink:title=" ">
<path fill="none" stroke="#63b8ff" d="M672.75,-54.75C680.47,-47.03 691.9,-35.6 701.22,-26.28"/>
<polygon fill="#63b8ff" stroke="#63b8ff" points="703.81,-28.64 708.41,-19.09 698.86,-23.69 703.81,-28.64"/>
</a>
</g>
</g>
<!-- Node16&#45;&gt;Node11 -->
<g id="edge21_Node000016_Node000011" class="edge">
<title>Node16&#45;&gt;Node11</title>
<g id="a_edge21_Node000016_Node000011"><a xlink:title=" ">
<path fill="none" stroke="#63b8ff" d="M318.58,-54.98C369.96,-44.71 455.52,-27.6 504.18,-17.86"/>
<polygon fill="#63b8ff" stroke="#63b8ff" points="505.15,-21.24 514.27,-15.85 503.78,-14.38 505.15,-21.24"/>
</a>
</g>
</g>
<!-- Node18&#45;&gt;Node10 -->
<g id="edge25_Node000018_Node000010" class="edge">
<title>Node18&#45;&gt;Node10</title>
<g id="a_edge25_Node000018_Node000010"><a xlink:title=" ">
<path fill="none" stroke="#63b8ff" d="M750.64,-165.28C807.55,-156.01 890.59,-140.7 900,-129 920.62,-103.37 913.75,-84.87 900,-55 894.25,-42.52 883.09,-32.24 872.58,-24.71"/>
<polygon fill="#63b8ff" stroke="#63b8ff" points="874.3,-21.65 864.03,-19.05 870.43,-27.49 874.3,-21.65"/>
</a>
</g>
</g>
<!-- Node18&#45;&gt;Node11 -->
<g id="edge26_Node000018_Node000011" class="edge">
<title>Node18&#45;&gt;Node11</title>
<g id="a_edge26_Node000018_Node000011"><a xlink:title=" ">
<path fill="none" stroke="#63b8ff" d="M686,-164.85C665.38,-148.37 620.02,-110.8 587,-74 573.83,-59.32 560.84,-40.93 552.04,-27.72"/>
<polygon fill="#63b8ff" stroke="#63b8ff" points="554.83,-25.6 546.43,-19.14 548.98,-29.43 554.83,-25.6"/>
</a>
</g>
</g>
<!-- Node18&#45;&gt;Node12 -->
<g id="edge29_Node000018_Node000012" class="edge">
<title>Node18&#45;&gt;Node12</title>
<g id="a_edge29_Node000018_Node000012"><a xlink:title=" ">
<path fill="none" stroke="#63b8ff" d="M673.06,-164.98C648.44,-156.23 609.88,-142.51 582.08,-132.62"/>
<polygon fill="#63b8ff" stroke="#63b8ff" points="582.97,-129.22 572.38,-129.17 580.62,-135.82 582.97,-129.22"/>
</a>
</g>
</g>
<!-- Node19 -->
<g id="Node000019" class="node">
<title>Node19</title>
<g id="a_Node000019"><a xlink:title=" ">
<polygon fill="#e0e0e0" stroke="#999999" points="1077.5,-129 952.5,-129 952.5,-110 1077.5,-110 1077.5,-129"/>
<text text-anchor="middle" x="1015" y="-117" font-family="Helvetica,sans-Serif" font-size="10.00">drivers/uart/adi_uart.h</text>
</a>
</g>
</g>
<!-- Node18&#45;&gt;Node19 -->
<g id="edge24_Node000018_Node000019" class="edge">
<title>Node18&#45;&gt;Node19</title>
<g id="a_edge24_Node000018_Node000019"><a xlink:title=" ">
<path fill="none" stroke="#63b8ff" d="M748.09,-164.98C804.11,-155.65 893.95,-140.67 953.71,-130.71"/>
<polygon fill="#63b8ff" stroke="#63b8ff" points="954.48,-134.13 963.77,-129.04 953.33,-127.23 954.48,-134.13"/>
</a>
</g>
</g>
<!-- Node20 -->
<g id="Node000020" class="node">
<title>Node20</title>
<g id="a_Node000020"><a xlink:href="no__os__error_8h.html" target="_top" xlink:title="Error codes definition.">
<polygon fill="white" stroke="#666666" points="1178,-129 1096,-129 1096,-110 1178,-110 1178,-129"/>
<text text-anchor="middle" x="1137" y="-117" font-family="Helvetica,sans-Serif" font-size="10.00">no_os_error.h</text>
</a>
</g>
</g>
<!-- Node18&#45;&gt;Node20 -->
<g id="edge27_Node000018_Node000020" class="edge">
<title>Node18&#45;&gt;Node20</title>
<g id="a_edge27_Node000018_Node000020"><a xlink:title=" ">
<path fill="none" stroke="#63b8ff" d="M750.6,-166.18C753.78,-165.77 756.93,-165.38 760,-165 901.87,-147.62 940.48,-149.18 1085.65,-129.11"/>
<polygon fill="#63b8ff" stroke="#63b8ff" points="1086.41,-132.54 1095.83,-127.7 1085.44,-125.61 1086.41,-132.54"/>
</a>
</g>
</g>
<!-- Node22 -->
<g id="Node000022" class="node">
<title>Node22</title>
<g id="a_Node000022"><a xlink:href="no__os__uart_8h.html" target="_top" xlink:title="Header file of UART interface.">
<polygon fill="white" stroke="#666666" points="764.5,-129 685.5,-129 685.5,-110 764.5,-110 764.5,-129"/>
<text text-anchor="middle" x="725" y="-117" font-family="Helvetica,sans-Serif" font-size="10.00">no_os_uart.h</text>
</a>
</g>
</g>
<!-- Node18&#45;&gt;Node22 -->
<g id="edge30_Node000018_Node000022" class="edge">
<title>Node18&#45;&gt;Node22</title>
<g id="a_edge30_Node000018_Node000022"><a xlink:title=" ">
<path fill="none" stroke="#63b8ff" d="M701.62,-164.75C705.46,-157.49 711.02,-146.95 715.76,-137.98"/>
<polygon fill="#63b8ff" stroke="#63b8ff" points="718.89,-139.57 720.46,-129.09 712.7,-136.3 718.89,-139.57"/>
</a>
</g>
</g>
<!-- Node21 -->
<g id="Node000021" class="node">
<title>Node21</title>
<g id="a_Node000021"><a xlink:title=" ">
<polygon fill="#e0e0e0" stroke="#999999" points="1162.5,-74 1111.5,-74 1111.5,-55 1162.5,-55 1162.5,-74"/>
<text text-anchor="middle" x="1137" y="-62" font-family="Helvetica,sans-Serif" font-size="10.00">errno.h</text>
</a>
</g>
</g>
<!-- Node20&#45;&gt;Node21 -->
<g id="edge28_Node000020_Node000021" class="edge">
<title>Node20&#45;&gt;Node21</title>
<g id="a_edge28_Node000020_Node000021"><a xlink:title=" ">
<path fill="none" stroke="#63b8ff" d="M1137,-109.75C1137,-102.8 1137,-92.85 1137,-84.13"/>
<polygon fill="#63b8ff" stroke="#63b8ff" points="1140.5,-84.09 1137,-74.09 1133.5,-84.09 1140.5,-84.09"/>
</a>
</g>
</g>
<!-- Node22&#45;&gt;Node10 -->
<g id="edge32_Node000022_Node000010" class="edge">
<title>Node22&#45;&gt;Node10</title>
<g id="a_edge32_Node000022_Node000010"><a xlink:title=" ">
<path fill="none" stroke="#63b8ff" d="M764.7,-110.24C786.47,-103.79 812.33,-92.68 829,-74 839.89,-61.79 844.55,-43.56 846.53,-29.75"/>
<polygon fill="#63b8ff" stroke="#63b8ff" points="850.05,-29.75 847.65,-19.43 843.09,-29 850.05,-29.75"/>
</a>
</g>
</g>
<!-- Node22&#45;&gt;Node11 -->
<g id="edge31_Node000022_Node000011" class="edge">
<title>Node22&#45;&gt;Node11</title>
<g id="a_edge31_Node000022_Node000011"><a xlink:title=" ">
<path fill="none" stroke="#63b8ff" d="M698.46,-109.94C676.15,-102.17 643.86,-89.56 618,-74 595.2,-60.28 572.05,-40.17 557.17,-26.27"/>
<polygon fill="#63b8ff" stroke="#63b8ff" points="559.47,-23.63 549.81,-19.27 554.64,-28.7 559.47,-23.63"/>
</a>
</g>
</g>
<!-- Node23 -->
<g id="Node000023" class="node">
<title>Node23</title>
<g id="a_Node000023"><a xlink:href="no__os__lf256fifo_8h.html" target="_top" xlink:title="SPSC lock&#45;free fifo of fixed size (256), specialized for UART.">
<polygon fill="white" stroke="#666666" points="820,-74 720,-74 720,-55 820,-55 820,-74"/>
<text text-anchor="middle" x="770" y="-62" font-family="Helvetica,sans-Serif" font-size="10.00">no_os_lf256fifo.h</text>
</a>
</g>
</g>
<!-- Node22&#45;&gt;Node23 -->
<g id="edge33_Node000022_Node000023" class="edge">
<title>Node22&#45;&gt;Node23</title>
<g id="a_edge33_Node000022_Node000023"><a xlink:title=" ">
<path fill="none" stroke="#63b8ff" d="M732.43,-109.75C738.85,-102.18 748.31,-91.05 756.12,-81.84"/>
<polygon fill="#63b8ff" stroke="#63b8ff" points="758.9,-83.98 762.71,-74.09 753.57,-79.45 758.9,-83.98"/>
</a>
</g>
</g>
<!-- Node23&#45;&gt;Node10 -->
<g id="edge36_Node000023_Node000010" class="edge">
<title>Node23&#45;&gt;Node10</title>
<g id="a_edge36_Node000023_Node000010"><a xlink:title=" ">
<path fill="none" stroke="#63b8ff" d="M782.53,-54.98C794.4,-46.92 812.46,-34.65 826.61,-25.03"/>
<polygon fill="#63b8ff" stroke="#63b8ff" points="828.94,-27.69 835.24,-19.17 825,-21.9 828.94,-27.69"/>
</a>
</g>
</g>
<!-- Node23&#45;&gt;Node11 -->
<g id="edge35_Node000023_Node000011" class="edge">
<title>Node23&#45;&gt;Node11</title>
<g id="a_edge35_Node000023_Node000011"><a xlink:title=" ">
<path fill="none" stroke="#63b8ff" d="M733.21,-54.98C690.46,-45.09 620.35,-28.86 577.66,-18.98"/>
<polygon fill="#63b8ff" stroke="#63b8ff" points="578.22,-15.52 567.69,-16.68 576.64,-22.34 578.22,-15.52"/>
</a>
</g>
</g>
<!-- Node23&#45;&gt;Node15 -->
<g id="edge34_Node000023_Node000015" class="edge">
<title>Node23&#45;&gt;Node15</title>
<g id="a_edge34_Node000023_Node000015"><a xlink:title=" ">
<path fill="none" stroke="#63b8ff" d="M761.25,-54.75C753.53,-47.03 742.1,-35.6 732.78,-26.28"/>
<polygon fill="#63b8ff" stroke="#63b8ff" points="735.14,-23.69 725.59,-19.09 730.19,-28.64 735.14,-23.69"/>
</a>
</g>
</g>
</g>
</svg>

<g id="navigator" transform="translate(0 0)" fill="#404254">
  <rect fill="#f2f5e9" fill-opacity="0.5" stroke="#606060" stroke-width=".5" x="0" y="0" width="60" height="60"/>
  <use id="zoomplus" xlink:href="#zoomPlus" x="17" y="9" onmousedown="handleZoom(evt,'in')"/>
  <use id="zoomminus" xlink:href="#zoomMin" x="42" y="9" onmousedown="handleZoom(evt,'out')"/>
  <use id="reset" xlink:href="#resetDef" x="30" y="36" onmousedown="handleReset()"/>
   <use id="arrowup" xlink:href="#arrowUp" x="0" y="0" onmousedown="handlePan(0,-1)"/>
  <use id="arrowright" xlink:href="#arrowRight" x="0" y="0" onmousedown="handlePan(1,0)"/>
  <use id="arrowdown" xlink:href="#arrowDown" x="0" y="0" onmousedown="handlePan(0,1)"/>
  <use id="arrowleft" xlink:href="#arrowLeft" x="0" y="0" onmousedown="handlePan(-1,0)"/>
</g>
<svg viewBox="0 0 15 15" width="100%" height="30px" preserveAspectRatio="xMaxYMin meet">
 <g id="arrow_out" transform="scale(0.3 0.3)">
  <a xlink:href="iio__adpd1080_2src_2platform_2aducm3029_2main_8c__incl_org.svg" target="_base">
   <rect id="button" ry="5" rx="5" y="6" x="6" height="38" width="38"
        fill="#f2f5e9" fill-opacity="0.5" stroke="#606060" stroke-width="1.0"/>
   <path id="arrow"
     d="M 11.500037,31.436501 C 11.940474,20.09759 22.043105,11.32322 32.158766,21.979434 L 37.068811,17.246167 C 37.068811,17.246167 37.088388,32 37.088388,32 L 22.160133,31.978069 C 22.160133,31.978069 26.997745,27.140456 26.997745,27.140456 C 18.528582,18.264221 13.291696,25.230495 11.500037,31.436501 z"
     style="fill:#404040;"/>
  </a>
 </g>
</svg>

<style type='text/css'>
<![CDATA[
[data-mouse-over-selected='false'] { opacity: 0.7; }
[data-mouse-over-selected='true']  { opacity: 1.0; }
]]>
</style>
<script type="application/ecmascript"><![CDATA[
document.addEventListener('DOMContentLoaded', (event) => {
  highlightEdges();
  highlightAdjacentNodes();
});
]]></script>
</svg>
