<?xml version="1.0" encoding="UTF-8" standalone="no"?>
<!DOCTYPE svg PUBLIC "-//W3C//DTD SVG 1.1//EN"
 "http://www.w3.org/Graphics/SVG/1.1/DTD/svg11.dtd">
<!-- Generated by graphviz version 2.43.0 (0)
 -->
<!-- Title: iio_ad4080_fifo_unset_watermark Pages: 1 -->
<svg width="548pt" height="114pt"
 viewBox="0.00 0.00 548.00 113.50" xmlns="http://www.w3.org/2000/svg" xmlns:xlink="http://www.w3.org/1999/xlink">
<g id="graph0" class="graph" transform="scale(1 1) rotate(0) translate(4 109.5)">
<title>iio_ad4080_fifo_unset_watermark</title>
<!-- Node1 -->
<g id="Node000001" class="node">
<title>Node1</title>
<g id="a_Node000001"><a xlink:title="Unset the watermark configuration and data structure fors ad4080 driver.">
<polygon fill="#999999" stroke="#666666" points="540,-62.5 417,-62.5 417,-32.5 540,-32.5 540,-62.5"/>
<text text-anchor="start" x="425" y="-50.5" font-family="Helvetica,sans-Serif" font-size="10.00">iio_ad4080_fifo_unset</text>
<text text-anchor="middle" x="478.5" y="-39.5" font-family="Helvetica,sans-Serif" font-size="10.00">_watermark</text>
</a>
</g>
</g>
<!-- Node2 -->
<g id="Node000002" class="node">
<title>Node2</title>
<g id="a_Node000002"><a xlink:href="iio__ad4080_8c.html#aacf74c6dd1acb9626c23d5356c4b3c96" target="_top" xlink:title="Sets the FIFO watermark for the AD4080 device.">
<polygon fill="white" stroke="#666666" points="381,-105.5 270,-105.5 270,-75.5 381,-75.5 381,-105.5"/>
<text text-anchor="start" x="278" y="-93.5" font-family="Helvetica,sans-Serif" font-size="10.00">iio_ad4080_fifo_set</text>
<text text-anchor="middle" x="325.5" y="-82.5" font-family="Helvetica,sans-Serif" font-size="10.00">_watermark</text>
</a>
</g>
</g>
<!-- Node1&#45;&gt;Node2 -->
<g id="edge1_Node000001_Node000002" class="edge">
<title>Node1&#45;&gt;Node2</title>
<g id="a_edge1_Node000001_Node000002"><a xlink:title=" ">
<path fill="none" stroke="#63b8ff" d="M414.88,-65.33C403.04,-68.7 390.78,-72.2 379.28,-75.47"/>
<polygon fill="#63b8ff" stroke="#63b8ff" points="416.03,-68.64 424.69,-62.54 414.11,-61.91 416.03,-68.64"/>
</a>
</g>
</g>
<!-- Node3 -->
<g id="Node000003" class="node">
<title>Node3</title>
<g id="a_Node000003"><a xlink:href="iio__ad4080_8c.html#a4c3881b748799947d1bc735745dd48a8" target="_top" xlink:title="Initializes the IIO AD4080 descriptor.">
<polygon fill="white" stroke="#666666" points="234,-57 143,-57 143,-38 234,-38 234,-57"/>
<text text-anchor="middle" x="188.5" y="-45" font-family="Helvetica,sans-Serif" font-size="10.00">iio_ad4080_init</text>
</a>
</g>
</g>
<!-- Node1&#45;&gt;Node3 -->
<g id="edge6_Node000001_Node000003" class="edge">
<title>Node1&#45;&gt;Node3</title>
<g id="a_edge6_Node000001_Node000003"><a xlink:title=" ">
<path fill="none" stroke="#63b8ff" d="M406.6,-47.5C352.69,-47.5 280.2,-47.5 234.15,-47.5"/>
<polygon fill="#63b8ff" stroke="#63b8ff" points="406.77,-51 416.77,-47.5 406.77,-44 406.77,-51"/>
</a>
</g>
</g>
<!-- Node5 -->
<g id="Node000005" class="node">
<title>Node5</title>
<g id="a_Node000005"><a xlink:href="iio__ad4080_8c.html#a0d027c587f47f7cde05f71c9495b060c" target="_top" xlink:title="teardown the ad4080 IIO driver">
<polygon fill="white" stroke="#666666" points="233.5,-19 143.5,-19 143.5,0 233.5,0 233.5,-19"/>
<text text-anchor="middle" x="188.5" y="-7" font-family="Helvetica,sans-Serif" font-size="10.00">iio_ad4080_fini</text>
</a>
</g>
</g>
<!-- Node1&#45;&gt;Node5 -->
<g id="edge4_Node000001_Node000005" class="edge">
<title>Node1&#45;&gt;Node5</title>
<g id="a_edge4_Node000001_Node000005"><a xlink:title=" ">
<path fill="none" stroke="#63b8ff" d="M406.57,-38.14C352.49,-31.01 279.72,-21.4 233.7,-15.33"/>
<polygon fill="#63b8ff" stroke="#63b8ff" points="406.4,-41.65 416.77,-39.49 407.32,-34.71 406.4,-41.65"/>
</a>
</g>
</g>
<!-- Node2&#45;&gt;Node3 -->
<g id="edge2_Node000002_Node000003" class="edge">
<title>Node2&#45;&gt;Node3</title>
<g id="a_edge2_Node000002_Node000003"><a xlink:title=" ">
<path fill="none" stroke="#63b8ff" d="M267.69,-72.4C251.17,-67.14 233.78,-61.6 219.6,-57.09"/>
<polygon fill="#63b8ff" stroke="#63b8ff" points="266.69,-75.76 277.28,-75.46 268.82,-69.09 266.69,-75.76"/>
</a>
</g>
</g>
<!-- Node4 -->
<g id="Node000004" class="node">
<title>Node4</title>
<g id="a_Node000004"><a xlink:href="adalm-mmsc_2src_2examples_2iio__example_2iio__example_8c.html#a692b15b864d48091dc3d7095bea120b4" target="_top" xlink:title="IIO example main execution.">
<polygon fill="white" stroke="#666666" points="107,-38 0,-38 0,-19 107,-19 107,-38"/>
<text text-anchor="middle" x="53.5" y="-26" font-family="Helvetica,sans-Serif" font-size="10.00">iio_example_main</text>
</a>
</g>
</g>
<!-- Node3&#45;&gt;Node4 -->
<g id="edge3_Node000003_Node000004" class="edge">
<title>Node3&#45;&gt;Node4</title>
<g id="a_edge3_Node000003_Node000004"><a xlink:title=" ">
<path fill="none" stroke="#63b8ff" d="M132.69,-39.67C124.23,-38.46 115.51,-37.22 107.09,-36.01"/>
<polygon fill="#63b8ff" stroke="#63b8ff" points="132.45,-43.17 142.84,-41.12 133.44,-36.24 132.45,-43.17"/>
</a>
</g>
</g>
<!-- Node5&#45;&gt;Node4 -->
<g id="edge5_Node000005_Node000004" class="edge">
<title>Node5&#45;&gt;Node4</title>
<g id="a_edge5_Node000005_Node000004"><a xlink:title=" ">
<path fill="none" stroke="#63b8ff" d="M133.04,-17.28C124.56,-18.49 115.81,-19.74 107.36,-20.95"/>
<polygon fill="#63b8ff" stroke="#63b8ff" points="133.81,-20.71 143.21,-15.83 132.82,-13.78 133.81,-20.71"/>
</a>
</g>
</g>
</g>
</svg>
