<?xml version="1.0" encoding="UTF-8" standalone="no"?>
<!DOCTYPE svg PUBLIC "-//W3C//DTD SVG 1.1//EN"
 "http://www.w3.org/Graphics/SVG/1.1/DTD/svg11.dtd">
<!-- Generated by graphviz version 2.43.0 (0)
 -->
<!-- Title: drivers/adc/ad738x/iio_ad738x.h Pages: 1 -->
<svg width="717pt" height="258pt"
 viewBox="0.00 0.00 716.52 258.00" xmlns="http://www.w3.org/2000/svg" xmlns:xlink="http://www.w3.org/1999/xlink">
<g id="graph0" class="graph" transform="scale(1 1) rotate(0) translate(4 254)">
<title>drivers/adc/ad738x/iio_ad738x.h</title>
<!-- Node1 -->
<g id="Node000001" class="node">
<title>Node1</title>
<g id="a_Node000001"><a xlink:title="Header file for AD738X IIO interface.">
<polygon fill="#999999" stroke="#666666" points="527.52,-250 417.52,-250 417.52,-220 527.52,-220 527.52,-250"/>
<text text-anchor="start" x="425.52" y="-238" font-family="Helvetica,sans-Serif" font-size="10.00">drivers/adc/ad738x</text>
<text text-anchor="middle" x="472.52" y="-227" font-family="Helvetica,sans-Serif" font-size="10.00">/iio_ad738x.h</text>
</a>
</g>
</g>
<!-- Node2 -->
<g id="Node000002" class="node">
<title>Node2</title>
<g id="a_Node000002"><a xlink:title=" ">
<polygon fill="#e0e0e0" stroke="#999999" points="379.02,-19 326.02,-19 326.02,0 379.02,0 379.02,-19"/>
<text text-anchor="middle" x="352.52" y="-7" font-family="Helvetica,sans-Serif" font-size="10.00">stdint.h</text>
</a>
</g>
</g>
<!-- Node1&#45;&gt;Node2 -->
<g id="edge1_Node000001_Node000002" class="edge">
<title>Node1&#45;&gt;Node2</title>
<g id="a_edge1_Node000001_Node000002"><a xlink:title=" ">
<path fill="none" stroke="#63b8ff" d="M477.35,-219.86C487.5,-187.36 507.27,-106.23 471.52,-55 453.06,-28.54 416.83,-17.79 389.17,-13.43"/>
<polygon fill="#63b8ff" stroke="#63b8ff" points="389.43,-9.93 379.05,-12.06 388.49,-16.87 389.43,-9.93"/>
</a>
</g>
</g>
<!-- Node3 -->
<g id="Node000003" class="node">
<title>Node3</title>
<g id="a_Node000003"><a xlink:href="iio_8h.html" target="_top" xlink:title="Header file of iio.">
<polygon fill="white" stroke="#666666" points="342.52,-184 304.52,-184 304.52,-165 342.52,-165 342.52,-184"/>
<text text-anchor="middle" x="323.52" y="-172" font-family="Helvetica,sans-Serif" font-size="10.00">iio.h</text>
</a>
</g>
</g>
<!-- Node1&#45;&gt;Node3 -->
<g id="edge2_Node000001_Node000003" class="edge">
<title>Node1&#45;&gt;Node3</title>
<g id="a_edge2_Node000001_Node000003"><a xlink:title=" ">
<path fill="none" stroke="#63b8ff" d="M436.83,-219.99C410.8,-209.77 376,-196.1 351.87,-186.63"/>
<polygon fill="#63b8ff" stroke="#63b8ff" points="353.14,-183.37 342.55,-182.97 350.58,-189.88 353.14,-183.37"/>
</a>
</g>
</g>
<!-- Node4 -->
<g id="Node000004" class="node">
<title>Node4</title>
<g id="a_Node000004"><a xlink:href="iio__types_8h.html" target="_top" xlink:title="Header file for iio_types.">
<polygon fill="white" stroke="#666666" points="358.52,-129 288.52,-129 288.52,-110 358.52,-110 358.52,-129"/>
<text text-anchor="middle" x="323.52" y="-117" font-family="Helvetica,sans-Serif" font-size="10.00">iio_types.h</text>
</a>
</g>
</g>
<!-- Node1&#45;&gt;Node4 -->
<g id="edge15_Node000001_Node000004" class="edge">
<title>Node1&#45;&gt;Node4</title>
<g id="a_edge15_Node000001_Node000004"><a xlink:title=" ">
<path fill="none" stroke="#63b8ff" d="M453.95,-219.85C425.67,-198.31 372.06,-157.47 343.16,-135.46"/>
<polygon fill="#63b8ff" stroke="#63b8ff" points="345.11,-132.55 335.04,-129.27 340.87,-138.11 345.11,-132.55"/>
</a>
</g>
</g>
<!-- Node10 -->
<g id="Node000010" class="node">
<title>Node10</title>
<g id="a_Node000010"><a xlink:href="ad738x_8h.html" target="_top" xlink:title="Header file for AD738x Driver.">
<polygon fill="white" stroke="#666666" points="589.52,-129 527.52,-129 527.52,-110 589.52,-110 589.52,-129"/>
<text text-anchor="middle" x="558.52" y="-117" font-family="Helvetica,sans-Serif" font-size="10.00">ad738x.h</text>
</a>
</g>
</g>
<!-- Node1&#45;&gt;Node10 -->
<g id="edge16_Node000001_Node000010" class="edge">
<title>Node1&#45;&gt;Node10</title>
<g id="a_edge16_Node000001_Node000010"><a xlink:title=" ">
<path fill="none" stroke="#63b8ff" d="M483.42,-219.63C499.3,-198.65 528.79,-159.75 545.7,-137.42"/>
<polygon fill="#63b8ff" stroke="#63b8ff" points="548.66,-139.31 551.91,-129.23 543.08,-135.09 548.66,-139.31"/>
</a>
</g>
</g>
<!-- Node3&#45;&gt;Node4 -->
<g id="edge3_Node000003_Node000004" class="edge">
<title>Node3&#45;&gt;Node4</title>
<g id="a_edge3_Node000003_Node000004"><a xlink:title=" ">
<path fill="none" stroke="#63b8ff" d="M323.52,-164.75C323.52,-157.8 323.52,-147.85 323.52,-139.13"/>
<polygon fill="#63b8ff" stroke="#63b8ff" points="327.02,-139.09 323.52,-129.09 320.02,-139.09 327.02,-139.09"/>
</a>
</g>
</g>
<!-- Node7 -->
<g id="Node000007" class="node">
<title>Node7</title>
<g id="a_Node000007"><a xlink:href="no__os__uart_8h.html" target="_top" xlink:title="Header file of UART interface.">
<polygon fill="white" stroke="#666666" points="212.02,-129 133.02,-129 133.02,-110 212.02,-110 212.02,-129"/>
<text text-anchor="middle" x="172.52" y="-117" font-family="Helvetica,sans-Serif" font-size="10.00">no_os_uart.h</text>
</a>
</g>
</g>
<!-- Node3&#45;&gt;Node7 -->
<g id="edge8_Node000003_Node000007" class="edge">
<title>Node3&#45;&gt;Node7</title>
<g id="a_edge8_Node000003_Node000007"><a xlink:title=" ">
<path fill="none" stroke="#63b8ff" d="M304.4,-166.79C279.87,-158.18 236.9,-143.1 206.69,-132.49"/>
<polygon fill="#63b8ff" stroke="#63b8ff" points="207.58,-129.09 196.98,-129.09 205.26,-135.7 207.58,-129.09"/>
</a>
</g>
</g>
<!-- Node4&#45;&gt;Node2 -->
<g id="edge5_Node000004_Node000002" class="edge">
<title>Node4&#45;&gt;Node2</title>
<g id="a_edge5_Node000004_Node000002"><a xlink:title=" ">
<path fill="none" stroke="#63b8ff" d="M322.41,-109.65C321.15,-97.17 319.94,-73.82 325.52,-55 328.44,-45.16 334.08,-35.3 339.46,-27.36"/>
<polygon fill="#63b8ff" stroke="#63b8ff" points="342.44,-29.21 345.47,-19.05 336.77,-25.11 342.44,-29.21"/>
</a>
</g>
</g>
<!-- Node5 -->
<g id="Node000005" class="node">
<title>Node5</title>
<g id="a_Node000005"><a xlink:title=" ">
<polygon fill="#e0e0e0" stroke="#999999" points="88.52,-19 26.52,-19 26.52,0 88.52,0 88.52,-19"/>
<text text-anchor="middle" x="57.52" y="-7" font-family="Helvetica,sans-Serif" font-size="10.00">stdbool.h</text>
</a>
</g>
</g>
<!-- Node4&#45;&gt;Node5 -->
<g id="edge4_Node000004_Node000005" class="edge">
<title>Node4&#45;&gt;Node5</title>
<g id="a_edge4_Node000004_Node000005"><a xlink:title=" ">
<path fill="none" stroke="#63b8ff" d="M288.35,-115.57C215.53,-109.14 53.68,-92.87 37.52,-74 26.3,-60.89 34.97,-41.48 44.15,-27.57"/>
<polygon fill="#63b8ff" stroke="#63b8ff" points="47.06,-29.51 50.05,-19.35 41.37,-25.43 47.06,-29.51"/>
</a>
</g>
</g>
<!-- Node6 -->
<g id="Node000006" class="node">
<title>Node6</title>
<g id="a_Node000006"><a xlink:href="no__os__circular__buffer_8h.html" target="_top" xlink:title="Circular buffer library header.">
<polygon fill="white" stroke="#666666" points="462.52,-74 334.52,-74 334.52,-55 462.52,-55 462.52,-74"/>
<text text-anchor="middle" x="398.52" y="-62" font-family="Helvetica,sans-Serif" font-size="10.00">no_os_circular_buffer.h</text>
</a>
</g>
</g>
<!-- Node4&#45;&gt;Node6 -->
<g id="edge6_Node000004_Node000006" class="edge">
<title>Node4&#45;&gt;Node6</title>
<g id="a_edge6_Node000004_Node000006"><a xlink:title=" ">
<path fill="none" stroke="#63b8ff" d="M335.57,-109.98C346.99,-101.92 364.35,-89.65 377.96,-80.03"/>
<polygon fill="#63b8ff" stroke="#63b8ff" points="380.11,-82.8 386.25,-74.17 376.07,-77.08 380.11,-82.8"/>
</a>
</g>
</g>
<!-- Node6&#45;&gt;Node2 -->
<g id="edge7_Node000006_Node000002" class="edge">
<title>Node6&#45;&gt;Node2</title>
<g id="a_edge7_Node000006_Node000002"><a xlink:title=" ">
<path fill="none" stroke="#63b8ff" d="M390.93,-54.75C384.36,-47.18 374.7,-36.05 366.71,-26.84"/>
<polygon fill="#63b8ff" stroke="#63b8ff" points="369.18,-24.35 359.98,-19.09 363.89,-28.94 369.18,-24.35"/>
</a>
</g>
</g>
<!-- Node7&#45;&gt;Node2 -->
<g id="edge9_Node000007_Node000002" class="edge">
<title>Node7&#45;&gt;Node2</title>
<g id="a_edge9_Node000007_Node000002"><a xlink:title=" ">
<path fill="none" stroke="#63b8ff" d="M187.42,-109.88C202.78,-100.98 227.4,-86.63 248.52,-74 276.83,-57.07 309.24,-37.21 330.25,-24.26"/>
<polygon fill="#63b8ff" stroke="#63b8ff" points="332.1,-27.23 338.78,-19 328.43,-21.27 332.1,-27.23"/>
</a>
</g>
</g>
<!-- Node7&#45;&gt;Node5 -->
<g id="edge10_Node000007_Node000005" class="edge">
<title>Node7&#45;&gt;Node5</title>
<g id="a_edge10_Node000007_Node000005"><a xlink:title=" ">
<path fill="none" stroke="#63b8ff" d="M132.89,-113.58C88.31,-107.13 20.07,-94.2 4.52,-74 -8.92,-56.53 12.81,-37.18 32.37,-24.49"/>
<polygon fill="#63b8ff" stroke="#63b8ff" points="34.37,-27.37 41.07,-19.15 30.71,-21.4 34.37,-27.37"/>
</a>
</g>
</g>
<!-- Node8 -->
<g id="Node000008" class="node">
<title>Node8</title>
<g id="a_Node000008"><a xlink:href="no__os__lf256fifo_8h.html" target="_top" xlink:title="SPSC lock&#45;free fifo of fixed size (256), specialized for UART.">
<polygon fill="white" stroke="#666666" points="146.52,-74 46.52,-74 46.52,-55 146.52,-55 146.52,-74"/>
<text text-anchor="middle" x="96.52" y="-62" font-family="Helvetica,sans-Serif" font-size="10.00">no_os_lf256fifo.h</text>
</a>
</g>
</g>
<!-- Node7&#45;&gt;Node8 -->
<g id="edge11_Node000007_Node000008" class="edge">
<title>Node7&#45;&gt;Node8</title>
<g id="a_edge11_Node000007_Node000008"><a xlink:title=" ">
<path fill="none" stroke="#63b8ff" d="M160.31,-109.98C148.75,-101.92 131.15,-89.65 117.36,-80.03"/>
<polygon fill="#63b8ff" stroke="#63b8ff" points="119.16,-77.02 108.96,-74.17 115.16,-82.76 119.16,-77.02"/>
</a>
</g>
</g>
<!-- Node8&#45;&gt;Node2 -->
<g id="edge13_Node000008_Node000002" class="edge">
<title>Node8&#45;&gt;Node2</title>
<g id="a_edge13_Node000008_Node000002"><a xlink:title=" ">
<path fill="none" stroke="#63b8ff" d="M137.65,-54.98C186.93,-44.78 268.72,-27.85 315.91,-18.08"/>
<polygon fill="#63b8ff" stroke="#63b8ff" points="316.91,-21.45 325.99,-15.99 315.49,-14.59 316.91,-21.45"/>
</a>
</g>
</g>
<!-- Node8&#45;&gt;Node5 -->
<g id="edge14_Node000008_Node000005" class="edge">
<title>Node8&#45;&gt;Node5</title>
<g id="a_edge14_Node000008_Node000005"><a xlink:title=" ">
<path fill="none" stroke="#63b8ff" d="M90.08,-54.75C84.63,-47.34 76.66,-36.5 69.97,-27.41"/>
<polygon fill="#63b8ff" stroke="#63b8ff" points="72.59,-25.07 63.84,-19.09 66.95,-29.22 72.59,-25.07"/>
</a>
</g>
</g>
<!-- Node9 -->
<g id="Node000009" class="node">
<title>Node9</title>
<g id="a_Node000009"><a xlink:title=" ">
<polygon fill="#e0e0e0" stroke="#999999" points="161.02,-19 108.02,-19 108.02,0 161.02,0 161.02,-19"/>
<text text-anchor="middle" x="134.52" y="-7" font-family="Helvetica,sans-Serif" font-size="10.00">stdlib.h</text>
</a>
</g>
</g>
<!-- Node8&#45;&gt;Node9 -->
<g id="edge12_Node000008_Node000009" class="edge">
<title>Node8&#45;&gt;Node9</title>
<g id="a_edge12_Node000008_Node000009"><a xlink:title=" ">
<path fill="none" stroke="#63b8ff" d="M102.8,-54.75C108.11,-47.34 115.88,-36.5 122.4,-27.41"/>
<polygon fill="#63b8ff" stroke="#63b8ff" points="125.38,-29.26 128.36,-19.09 119.69,-25.18 125.38,-29.26"/>
</a>
</g>
</g>
<!-- Node11 -->
<g id="Node000011" class="node">
<title>Node11</title>
<g id="a_Node000011"><a xlink:href="no__os__util_8h.html" target="_top" xlink:title="Header file of utility functions.">
<polygon fill="white" stroke="#666666" points="240.02,-74 165.02,-74 165.02,-55 240.02,-55 240.02,-74"/>
<text text-anchor="middle" x="202.52" y="-62" font-family="Helvetica,sans-Serif" font-size="10.00">no_os_util.h</text>
</a>
</g>
</g>
<!-- Node10&#45;&gt;Node11 -->
<g id="edge17_Node000010_Node000011" class="edge">
<title>Node10&#45;&gt;Node11</title>
<g id="a_edge17_Node000010_Node000011"><a xlink:title=" ">
<path fill="none" stroke="#63b8ff" d="M527.24,-113.84C464.77,-104.54 324.23,-83.62 250.21,-72.6"/>
<polygon fill="#63b8ff" stroke="#63b8ff" points="250.62,-69.12 240.22,-71.11 249.59,-76.05 250.62,-69.12"/>
</a>
</g>
</g>
<!-- Node12 -->
<g id="Node000012" class="node">
<title>Node12</title>
<g id="a_Node000012"><a xlink:href="clk__axi__clkgen_8h.html" target="_top" xlink:title="Driver for the Analog Devices AXI CLKGEN.">
<polygon fill="white" stroke="#666666" points="616.52,-74 518.52,-74 518.52,-55 616.52,-55 616.52,-74"/>
<text text-anchor="middle" x="567.52" y="-62" font-family="Helvetica,sans-Serif" font-size="10.00">clk_axi_clkgen.h</text>
</a>
</g>
</g>
<!-- Node10&#45;&gt;Node12 -->
<g id="edge21_Node000010_Node000012" class="edge">
<title>Node10&#45;&gt;Node12</title>
<g id="a_edge21_Node000010_Node000012"><a xlink:title=" ">
<path fill="none" stroke="#63b8ff" d="M560.01,-109.75C561.19,-102.8 562.88,-92.85 564.36,-84.13"/>
<polygon fill="#63b8ff" stroke="#63b8ff" points="567.84,-84.53 566.06,-74.09 560.94,-83.36 567.84,-84.53"/>
</a>
</g>
</g>
<!-- Node13 -->
<g id="Node000013" class="node">
<title>Node13</title>
<g id="a_Node000013"><a xlink:href="no__os__spi_8h.html" target="_top" xlink:title="Header file of SPI Interface.">
<polygon fill="white" stroke="#666666" points="708.52,-74 634.52,-74 634.52,-55 708.52,-55 708.52,-74"/>
<text text-anchor="middle" x="671.52" y="-62" font-family="Helvetica,sans-Serif" font-size="10.00">no_os_spi.h</text>
</a>
</g>
</g>
<!-- Node10&#45;&gt;Node13 -->
<g id="edge23_Node000010_Node000013" class="edge">
<title>Node10&#45;&gt;Node13</title>
<g id="a_edge23_Node000010_Node000013"><a xlink:title=" ">
<path fill="none" stroke="#63b8ff" d="M576.68,-109.98C594.77,-101.5 622.81,-88.35 643.71,-78.54"/>
<polygon fill="#63b8ff" stroke="#63b8ff" points="645.47,-81.59 653.04,-74.17 642.5,-75.25 645.47,-81.59"/>
</a>
</g>
</g>
<!-- Node11&#45;&gt;Node2 -->
<g id="edge18_Node000011_Node000002" class="edge">
<title>Node11&#45;&gt;Node2</title>
<g id="a_edge18_Node000011_Node000002"><a xlink:title=" ">
<path fill="none" stroke="#63b8ff" d="M226.62,-54.98C251.41,-46.23 290.23,-32.51 318.21,-22.62"/>
<polygon fill="#63b8ff" stroke="#63b8ff" points="319.72,-25.8 327.98,-19.17 317.39,-19.2 319.72,-25.8"/>
</a>
</g>
</g>
<!-- Node11&#45;&gt;Node5 -->
<g id="edge20_Node000011_Node000005" class="edge">
<title>Node11&#45;&gt;Node5</title>
<g id="a_edge20_Node000011_Node000005"><a xlink:title=" ">
<path fill="none" stroke="#63b8ff" d="M179.23,-54.98C155.27,-46.23 117.74,-32.51 90.69,-22.62"/>
<polygon fill="#63b8ff" stroke="#63b8ff" points="91.84,-19.32 81.24,-19.17 89.43,-25.89 91.84,-19.32"/>
</a>
</g>
</g>
<!-- Node11&#45;&gt;Node9 -->
<g id="edge19_Node000011_Node000009" class="edge">
<title>Node11&#45;&gt;Node9</title>
<g id="a_edge19_Node000011_Node000009"><a xlink:title=" ">
<path fill="none" stroke="#63b8ff" d="M191.6,-54.98C181.45,-47.07 166.1,-35.11 153.88,-25.58"/>
<polygon fill="#63b8ff" stroke="#63b8ff" points="155.69,-22.56 145.65,-19.17 151.38,-28.08 155.69,-22.56"/>
</a>
</g>
</g>
<!-- Node12&#45;&gt;Node2 -->
<g id="edge22_Node000012_Node000002" class="edge">
<title>Node12&#45;&gt;Node2</title>
<g id="a_edge22_Node000012_Node000002"><a xlink:title=" ">
<path fill="none" stroke="#63b8ff" d="M532.98,-54.98C493.56,-45.27 429.36,-29.44 389.11,-19.52"/>
<polygon fill="#63b8ff" stroke="#63b8ff" points="389.72,-16.06 379.17,-17.07 388.04,-22.86 389.72,-16.06"/>
</a>
</g>
</g>
<!-- Node13&#45;&gt;Node2 -->
<g id="edge24_Node000013_Node000002" class="edge">
<title>Node13&#45;&gt;Node2</title>
<g id="a_edge24_Node000013_Node000002"><a xlink:title=" ">
<path fill="none" stroke="#63b8ff" d="M634.38,-56.57C631.38,-56.03 628.4,-55.5 625.52,-55 541.2,-40.34 441.97,-24.52 389.46,-16.27"/>
<polygon fill="#63b8ff" stroke="#63b8ff" points="389.71,-12.76 379.29,-14.67 388.63,-19.68 389.71,-12.76"/>
</a>
</g>
</g>
</g>
</svg>
