<?xml version="1.0" encoding="UTF-8" standalone="no"?>
<!DOCTYPE svg PUBLIC "-//W3C//DTD SVG 1.1//EN"
 "http://www.w3.org/Graphics/SVG/1.1/DTD/svg11.dtd">
<!-- Generated by graphviz version 2.43.0 (0)
 -->
<!-- Title: drivers/adc/ad4080/iio_ad4080.h Pages: 1 -->
<svg width="808pt" height="258pt"
 viewBox="0.00 0.00 808.41 258.00" xmlns="http://www.w3.org/2000/svg" xmlns:xlink="http://www.w3.org/1999/xlink">
<g id="graph0" class="graph" transform="scale(1 1) rotate(0) translate(4 254)">
<title>drivers/adc/ad4080/iio_ad4080.h</title>
<!-- Node1 -->
<g id="Node000001" class="node">
<title>Node1</title>
<g id="a_Node000001"><a xlink:title="Implementation of iio_ad4080.c.">
<polygon fill="#999999" stroke="#666666" points="362.41,-250 252.41,-250 252.41,-220 362.41,-220 362.41,-250"/>
<text text-anchor="start" x="260.41" y="-238" font-family="Helvetica,sans-Serif" font-size="10.00">drivers/adc/ad4080</text>
<text text-anchor="middle" x="307.41" y="-227" font-family="Helvetica,sans-Serif" font-size="10.00">/iio_ad4080.h</text>
</a>
</g>
</g>
<!-- Node2 -->
<g id="Node000002" class="node">
<title>Node2</title>
<g id="a_Node000002"><a xlink:title=" ">
<polygon fill="#e0e0e0" stroke="#999999" points="177.41,-184 121.41,-184 121.41,-165 177.41,-165 177.41,-184"/>
<text text-anchor="middle" x="149.41" y="-172" font-family="Helvetica,sans-Serif" font-size="10.00">stddef.h</text>
</a>
</g>
</g>
<!-- Node1&#45;&gt;Node2 -->
<g id="edge1_Node000001_Node000002" class="edge">
<title>Node1&#45;&gt;Node2</title>
<g id="a_edge1_Node000001_Node000002"><a xlink:title=" ">
<path fill="none" stroke="#63b8ff" d="M269.57,-219.99C242.97,-210.14 207.74,-197.1 182.31,-187.68"/>
<polygon fill="#63b8ff" stroke="#63b8ff" points="183.34,-184.33 172.75,-184.14 180.91,-190.89 183.34,-184.33"/>
</a>
</g>
</g>
<!-- Node3 -->
<g id="Node000003" class="node">
<title>Node3</title>
<g id="a_Node000003"><a xlink:href="errno_8h.html" target="_top" xlink:title="Error macro definition for ARM Compiler.">
<polygon fill="white" stroke="#666666" points="246.91,-184 195.91,-184 195.91,-165 246.91,-165 246.91,-184"/>
<text text-anchor="middle" x="221.41" y="-172" font-family="Helvetica,sans-Serif" font-size="10.00">errno.h</text>
</a>
</g>
</g>
<!-- Node1&#45;&gt;Node3 -->
<g id="edge2_Node000001_Node000003" class="edge">
<title>Node1&#45;&gt;Node3</title>
<g id="a_edge2_Node000001_Node000003"><a xlink:title=" ">
<path fill="none" stroke="#63b8ff" d="M286.59,-219.84C273.27,-210.77 256.02,-199.04 242.62,-189.92"/>
<polygon fill="#63b8ff" stroke="#63b8ff" points="244.28,-186.83 234.05,-184.09 240.35,-192.61 244.28,-186.83"/>
</a>
</g>
</g>
<!-- Node4 -->
<g id="Node000004" class="node">
<title>Node4</title>
<g id="a_Node000004"><a xlink:href="no__os__irq_8h.html" target="_top" xlink:title="Header file of IRQ interface.">
<polygon fill="white" stroke="#666666" points="316.41,-129 244.41,-129 244.41,-110 316.41,-110 316.41,-129"/>
<text text-anchor="middle" x="280.41" y="-117" font-family="Helvetica,sans-Serif" font-size="10.00">no_os_irq.h</text>
</a>
</g>
</g>
<!-- Node1&#45;&gt;Node4 -->
<g id="edge3_Node000001_Node000004" class="edge">
<title>Node1&#45;&gt;Node4</title>
<g id="a_edge3_Node000001_Node000004"><a xlink:title=" ">
<path fill="none" stroke="#63b8ff" d="M311.48,-219.88C314.88,-205.67 318.31,-183.29 312.41,-165 309.07,-154.62 302.31,-144.62 295.86,-136.74"/>
<polygon fill="#63b8ff" stroke="#63b8ff" points="298.39,-134.31 289.16,-129.1 293.12,-138.92 298.39,-134.31"/>
</a>
</g>
</g>
<!-- Node6 -->
<g id="Node000006" class="node">
<title>Node6</title>
<g id="a_Node000006"><a xlink:href="iio_8h.html" target="_top" xlink:title="Header file of iio.">
<polygon fill="white" stroke="#666666" points="303.41,-184 265.41,-184 265.41,-165 303.41,-165 303.41,-184"/>
<text text-anchor="middle" x="284.41" y="-172" font-family="Helvetica,sans-Serif" font-size="10.00">iio.h</text>
</a>
</g>
</g>
<!-- Node1&#45;&gt;Node6 -->
<g id="edge5_Node000001_Node000006" class="edge">
<title>Node1&#45;&gt;Node6</title>
<g id="a_edge5_Node000001_Node000006"><a xlink:title=" ">
<path fill="none" stroke="#63b8ff" d="M301.85,-219.84C298.75,-211.95 294.85,-202.05 291.53,-193.61"/>
<polygon fill="#63b8ff" stroke="#63b8ff" points="294.78,-192.29 287.86,-184.27 288.26,-194.85 294.78,-192.29"/>
</a>
</g>
</g>
<!-- Node7 -->
<g id="Node000007" class="node">
<title>Node7</title>
<g id="a_Node000007"><a xlink:href="iio__types_8h.html" target="_top" xlink:title="Header file for iio_types.">
<polygon fill="white" stroke="#666666" points="404.41,-129 334.41,-129 334.41,-110 404.41,-110 404.41,-129"/>
<text text-anchor="middle" x="369.41" y="-117" font-family="Helvetica,sans-Serif" font-size="10.00">iio_types.h</text>
</a>
</g>
</g>
<!-- Node1&#45;&gt;Node7 -->
<g id="edge18_Node000001_Node000007" class="edge">
<title>Node1&#45;&gt;Node7</title>
<g id="a_edge18_Node000001_Node000007"><a xlink:title=" ">
<path fill="none" stroke="#63b8ff" d="M315.27,-219.63C326.62,-198.84 347.6,-160.44 359.84,-138.02"/>
<polygon fill="#63b8ff" stroke="#63b8ff" points="362.92,-139.68 364.64,-129.23 356.78,-136.33 362.92,-139.68"/>
</a>
</g>
</g>
<!-- Node13 -->
<g id="Node000013" class="node">
<title>Node13</title>
<g id="a_Node000013"><a xlink:href="ad4080_8h.html" target="_top" xlink:title="Header file of AD4080 Driver.">
<polygon fill="white" stroke="#666666" points="627.41,-129 565.41,-129 565.41,-110 627.41,-110 627.41,-129"/>
<text text-anchor="middle" x="596.41" y="-117" font-family="Helvetica,sans-Serif" font-size="10.00">ad4080.h</text>
</a>
</g>
</g>
<!-- Node1&#45;&gt;Node13 -->
<g id="edge19_Node000001_Node000013" class="edge">
<title>Node1&#45;&gt;Node13</title>
<g id="a_edge19_Node000001_Node000013"><a xlink:title=" ">
<path fill="none" stroke="#63b8ff" d="M343.14,-219.97C400.15,-197.58 510.78,-154.13 564.97,-132.85"/>
<polygon fill="#63b8ff" stroke="#63b8ff" points="566.37,-136.06 574.4,-129.14 563.81,-129.54 566.37,-136.06"/>
</a>
</g>
</g>
<!-- Node5 -->
<g id="Node000005" class="node">
<title>Node5</title>
<g id="a_Node000005"><a xlink:title=" ">
<polygon fill="#e0e0e0" stroke="#999999" points="370.91,-19 317.91,-19 317.91,0 370.91,0 370.91,-19"/>
<text text-anchor="middle" x="344.41" y="-7" font-family="Helvetica,sans-Serif" font-size="10.00">stdint.h</text>
</a>
</g>
</g>
<!-- Node4&#45;&gt;Node5 -->
<g id="edge4_Node000004_Node000005" class="edge">
<title>Node4&#45;&gt;Node5</title>
<g id="a_edge4_Node000004_Node000005"><a xlink:title=" ">
<path fill="none" stroke="#63b8ff" d="M285.65,-109.66C296.2,-91.85 320.2,-51.37 334.04,-28.01"/>
<polygon fill="#63b8ff" stroke="#63b8ff" points="337.2,-29.55 339.28,-19.16 331.17,-25.98 337.2,-29.55"/>
</a>
</g>
</g>
<!-- Node6&#45;&gt;Node7 -->
<g id="edge6_Node000006_Node000007" class="edge">
<title>Node6&#45;&gt;Node7</title>
<g id="a_edge6_Node000006_Node000007"><a xlink:title=" ">
<path fill="none" stroke="#63b8ff" d="M298.07,-164.98C311.25,-156.77 331.44,-144.18 346.98,-134.49"/>
<polygon fill="#63b8ff" stroke="#63b8ff" points="348.87,-137.43 355.51,-129.17 345.17,-131.49 348.87,-137.43"/>
</a>
</g>
</g>
<!-- Node10 -->
<g id="Node000010" class="node">
<title>Node10</title>
<g id="a_Node000010"><a xlink:href="no__os__uart_8h.html" target="_top" xlink:title="Header file of UART interface.">
<polygon fill="white" stroke="#666666" points="193.91,-129 114.91,-129 114.91,-110 193.91,-110 193.91,-129"/>
<text text-anchor="middle" x="154.41" y="-117" font-family="Helvetica,sans-Serif" font-size="10.00">no_os_uart.h</text>
</a>
</g>
</g>
<!-- Node6&#45;&gt;Node10 -->
<g id="edge11_Node000006_Node000010" class="edge">
<title>Node6&#45;&gt;Node10</title>
<g id="a_edge11_Node000006_Node000010"><a xlink:title=" ">
<path fill="none" stroke="#63b8ff" d="M265.23,-165.68C244.03,-157.04 209.6,-143 184.74,-132.86"/>
<polygon fill="#63b8ff" stroke="#63b8ff" points="185.98,-129.59 175.4,-129.06 183.34,-136.07 185.98,-129.59"/>
</a>
</g>
</g>
<!-- Node7&#45;&gt;Node5 -->
<g id="edge8_Node000007_Node000005" class="edge">
<title>Node7&#45;&gt;Node5</title>
<g id="a_edge8_Node000007_Node000005"><a xlink:title=" ">
<path fill="none" stroke="#63b8ff" d="M367.37,-109.66C363.3,-92.09 354.12,-52.45 348.68,-28.95"/>
<polygon fill="#63b8ff" stroke="#63b8ff" points="352.08,-28.11 346.42,-19.16 345.26,-29.69 352.08,-28.11"/>
</a>
</g>
</g>
<!-- Node8 -->
<g id="Node000008" class="node">
<title>Node8</title>
<g id="a_Node000008"><a xlink:title=" ">
<polygon fill="#e0e0e0" stroke="#999999" points="88.41,-19 26.41,-19 26.41,0 88.41,0 88.41,-19"/>
<text text-anchor="middle" x="57.41" y="-7" font-family="Helvetica,sans-Serif" font-size="10.00">stdbool.h</text>
</a>
</g>
</g>
<!-- Node7&#45;&gt;Node8 -->
<g id="edge7_Node000007_Node000008" class="edge">
<title>Node7&#45;&gt;Node8</title>
<g id="a_edge7_Node000007_Node000008"><a xlink:title=" ">
<path fill="none" stroke="#63b8ff" d="M334.39,-111.52C331.36,-110.98 328.33,-110.46 325.41,-110 261.71,-99.88 80.1,-122.35 37.41,-74 25.99,-61.06 34.7,-41.62 43.93,-27.66"/>
<polygon fill="#63b8ff" stroke="#63b8ff" points="46.88,-29.56 49.88,-19.4 41.19,-25.47 46.88,-29.56"/>
</a>
</g>
</g>
<!-- Node9 -->
<g id="Node000009" class="node">
<title>Node9</title>
<g id="a_Node000009"><a xlink:href="no__os__circular__buffer_8h.html" target="_top" xlink:title="Circular buffer library header.">
<polygon fill="white" stroke="#666666" points="500.41,-74 372.41,-74 372.41,-55 500.41,-55 500.41,-74"/>
<text text-anchor="middle" x="436.41" y="-62" font-family="Helvetica,sans-Serif" font-size="10.00">no_os_circular_buffer.h</text>
</a>
</g>
</g>
<!-- Node7&#45;&gt;Node9 -->
<g id="edge9_Node000007_Node000009" class="edge">
<title>Node7&#45;&gt;Node9</title>
<g id="a_edge9_Node000007_Node000009"><a xlink:title=" ">
<path fill="none" stroke="#63b8ff" d="M380.18,-109.98C390.18,-102.07 405.3,-90.11 417.34,-80.58"/>
<polygon fill="#63b8ff" stroke="#63b8ff" points="419.78,-83.12 425.45,-74.17 415.44,-77.63 419.78,-83.12"/>
</a>
</g>
</g>
<!-- Node9&#45;&gt;Node5 -->
<g id="edge10_Node000009_Node000005" class="edge">
<title>Node9&#45;&gt;Node5</title>
<g id="a_edge10_Node000009_Node000005"><a xlink:title=" ">
<path fill="none" stroke="#63b8ff" d="M421.63,-54.98C407.23,-46.69 385.1,-33.94 368.22,-24.22"/>
<polygon fill="#63b8ff" stroke="#63b8ff" points="369.88,-21.13 359.46,-19.17 366.38,-27.19 369.88,-21.13"/>
</a>
</g>
</g>
<!-- Node10&#45;&gt;Node5 -->
<g id="edge12_Node000010_Node000005" class="edge">
<title>Node10&#45;&gt;Node5</title>
<g id="a_edge12_Node000010_Node000005"><a xlink:title=" ">
<path fill="none" stroke="#63b8ff" d="M174.63,-109.93C193.96,-101.5 223.72,-87.92 248.41,-74 275.61,-58.67 305.37,-38.4 324.44,-24.93"/>
<polygon fill="#63b8ff" stroke="#63b8ff" points="326.52,-27.74 332.63,-19.08 322.46,-22.04 326.52,-27.74"/>
</a>
</g>
</g>
<!-- Node10&#45;&gt;Node8 -->
<g id="edge13_Node000010_Node000008" class="edge">
<title>Node10&#45;&gt;Node8</title>
<g id="a_edge13_Node000010_Node000008"><a xlink:title=" ">
<path fill="none" stroke="#63b8ff" d="M114.89,-118.96C79.59,-117 29.68,-107.85 4.41,-74 -8.77,-56.34 12.91,-37.03 32.38,-24.39"/>
<polygon fill="#63b8ff" stroke="#63b8ff" points="34.34,-27.3 41.04,-19.09 30.69,-21.33 34.34,-27.3"/>
</a>
</g>
</g>
<!-- Node11 -->
<g id="Node000011" class="node">
<title>Node11</title>
<g id="a_Node000011"><a xlink:href="no__os__lf256fifo_8h.html" target="_top" xlink:title="SPSC lock&#45;free fifo of fixed size (256), specialized for UART.">
<polygon fill="white" stroke="#666666" points="146.41,-74 46.41,-74 46.41,-55 146.41,-55 146.41,-74"/>
<text text-anchor="middle" x="96.41" y="-62" font-family="Helvetica,sans-Serif" font-size="10.00">no_os_lf256fifo.h</text>
</a>
</g>
</g>
<!-- Node10&#45;&gt;Node11 -->
<g id="edge14_Node000010_Node000011" class="edge">
<title>Node10&#45;&gt;Node11</title>
<g id="a_edge14_Node000010_Node000011"><a xlink:title=" ">
<path fill="none" stroke="#63b8ff" d="M145.09,-109.98C136.6,-102.23 123.85,-90.58 113.53,-81.14"/>
<polygon fill="#63b8ff" stroke="#63b8ff" points="115.64,-78.33 105.9,-74.17 110.92,-83.5 115.64,-78.33"/>
</a>
</g>
</g>
<!-- Node11&#45;&gt;Node5 -->
<g id="edge16_Node000011_Node000005" class="edge">
<title>Node11&#45;&gt;Node5</title>
<g id="a_edge16_Node000011_Node000005"><a xlink:title=" ">
<path fill="none" stroke="#63b8ff" d="M136.26,-54.98C183.61,-44.86 261.97,-28.12 307.84,-18.32"/>
<polygon fill="#63b8ff" stroke="#63b8ff" points="308.61,-21.73 317.66,-16.22 307.15,-14.88 308.61,-21.73"/>
</a>
</g>
</g>
<!-- Node11&#45;&gt;Node8 -->
<g id="edge17_Node000011_Node000008" class="edge">
<title>Node11&#45;&gt;Node8</title>
<g id="a_edge17_Node000011_Node000008"><a xlink:title=" ">
<path fill="none" stroke="#63b8ff" d="M89.97,-54.75C84.52,-47.34 76.55,-36.5 69.86,-27.41"/>
<polygon fill="#63b8ff" stroke="#63b8ff" points="72.48,-25.07 63.73,-19.09 66.84,-29.22 72.48,-25.07"/>
</a>
</g>
</g>
<!-- Node12 -->
<g id="Node000012" class="node">
<title>Node12</title>
<g id="a_Node000012"><a xlink:title=" ">
<polygon fill="#e0e0e0" stroke="#999999" points="160.91,-19 107.91,-19 107.91,0 160.91,0 160.91,-19"/>
<text text-anchor="middle" x="134.41" y="-7" font-family="Helvetica,sans-Serif" font-size="10.00">stdlib.h</text>
</a>
</g>
</g>
<!-- Node11&#45;&gt;Node12 -->
<g id="edge15_Node000011_Node000012" class="edge">
<title>Node11&#45;&gt;Node12</title>
<g id="a_edge15_Node000011_Node000012"><a xlink:title=" ">
<path fill="none" stroke="#63b8ff" d="M102.69,-54.75C108,-47.34 115.77,-36.5 122.29,-27.41"/>
<polygon fill="#63b8ff" stroke="#63b8ff" points="125.27,-29.26 128.25,-19.09 119.58,-25.18 125.27,-29.26"/>
</a>
</g>
</g>
<!-- Node13&#45;&gt;Node5 -->
<g id="edge20_Node000013_Node000005" class="edge">
<title>Node13&#45;&gt;Node5</title>
<g id="a_edge20_Node000013_Node000005"><a xlink:title=" ">
<path fill="none" stroke="#63b8ff" d="M621.67,-109.92C651.04,-98.64 693.14,-77.57 673.41,-55 635.83,-11.99 459.27,-8.9 381.43,-9.7"/>
<polygon fill="#63b8ff" stroke="#63b8ff" points="381.08,-6.21 371.13,-9.84 381.17,-13.21 381.08,-6.21"/>
</a>
</g>
</g>
<!-- Node14 -->
<g id="Node000014" class="node">
<title>Node14</title>
<g id="a_Node000014"><a xlink:title=" ">
<polygon fill="#e0e0e0" stroke="#999999" points="663.91,-74 610.91,-74 610.91,-55 663.91,-55 663.91,-74"/>
<text text-anchor="middle" x="637.41" y="-62" font-family="Helvetica,sans-Serif" font-size="10.00">string.h</text>
</a>
</g>
</g>
<!-- Node13&#45;&gt;Node14 -->
<g id="edge21_Node000013_Node000014" class="edge">
<title>Node13&#45;&gt;Node14</title>
<g id="a_edge21_Node000013_Node000014"><a xlink:title=" ">
<path fill="none" stroke="#63b8ff" d="M603.18,-109.75C608.97,-102.26 617.47,-91.28 624.55,-82.13"/>
<polygon fill="#63b8ff" stroke="#63b8ff" points="627.42,-84.14 630.77,-74.09 621.88,-79.86 627.42,-84.14"/>
</a>
</g>
</g>
<!-- Node15 -->
<g id="Node000015" class="node">
<title>Node15</title>
<g id="a_Node000015"><a xlink:href="no__os__util_8h.html" target="_top" xlink:title="Header file of utility functions.">
<polygon fill="white" stroke="#666666" points="239.91,-74 164.91,-74 164.91,-55 239.91,-55 239.91,-74"/>
<text text-anchor="middle" x="202.41" y="-62" font-family="Helvetica,sans-Serif" font-size="10.00">no_os_util.h</text>
</a>
</g>
</g>
<!-- Node13&#45;&gt;Node15 -->
<g id="edge22_Node000013_Node000015" class="edge">
<title>Node13&#45;&gt;Node15</title>
<g id="a_edge22_Node000013_Node000015"><a xlink:title=" ">
<path fill="none" stroke="#63b8ff" d="M565.17,-114.3C496.48,-105.06 331.99,-82.93 250.23,-71.93"/>
<polygon fill="#63b8ff" stroke="#63b8ff" points="250.58,-68.45 240.2,-70.58 249.65,-75.39 250.58,-68.45"/>
</a>
</g>
</g>
<!-- Node16 -->
<g id="Node000016" class="node">
<title>Node16</title>
<g id="a_Node000016"><a xlink:href="no__os__spi_8h.html" target="_top" xlink:title="Header file of SPI Interface.">
<polygon fill="white" stroke="#666666" points="592.41,-74 518.41,-74 518.41,-55 592.41,-55 592.41,-74"/>
<text text-anchor="middle" x="555.41" y="-62" font-family="Helvetica,sans-Serif" font-size="10.00">no_os_spi.h</text>
</a>
</g>
</g>
<!-- Node13&#45;&gt;Node16 -->
<g id="edge26_Node000013_Node000016" class="edge">
<title>Node13&#45;&gt;Node16</title>
<g id="a_edge26_Node000013_Node000016"><a xlink:title=" ">
<path fill="none" stroke="#63b8ff" d="M589.64,-109.75C583.85,-102.26 575.35,-91.28 568.28,-82.13"/>
<polygon fill="#63b8ff" stroke="#63b8ff" points="570.94,-79.86 562.06,-74.09 565.41,-84.14 570.94,-79.86"/>
</a>
</g>
</g>
<!-- Node17 -->
<g id="Node000017" class="node">
<title>Node17</title>
<g id="a_Node000017"><a xlink:href="no__os__gpio_8h.html" target="_top" xlink:title="Header file of GPIO Interface.">
<polygon fill="white" stroke="#666666" points="800.41,-74 720.41,-74 720.41,-55 800.41,-55 800.41,-74"/>
<text text-anchor="middle" x="760.41" y="-62" font-family="Helvetica,sans-Serif" font-size="10.00">no_os_gpio.h</text>
</a>
</g>
</g>
<!-- Node13&#45;&gt;Node17 -->
<g id="edge28_Node000013_Node000017" class="edge">
<title>Node13&#45;&gt;Node17</title>
<g id="a_edge28_Node000013_Node000017"><a xlink:title=" ">
<path fill="none" stroke="#63b8ff" d="M622.76,-109.98C650.18,-101.13 693.3,-87.19 723.97,-77.28"/>
<polygon fill="#63b8ff" stroke="#63b8ff" points="725.42,-80.49 733.86,-74.08 723.27,-73.83 725.42,-80.49"/>
</a>
</g>
</g>
<!-- Node15&#45;&gt;Node5 -->
<g id="edge23_Node000015_Node000005" class="edge">
<title>Node15&#45;&gt;Node5</title>
<g id="a_edge23_Node000015_Node000005"><a xlink:title=" ">
<path fill="none" stroke="#63b8ff" d="M225.23,-54.98C248.59,-46.27 285.12,-32.63 311.58,-22.75"/>
<polygon fill="#63b8ff" stroke="#63b8ff" points="313.04,-25.95 321.18,-19.17 310.59,-19.39 313.04,-25.95"/>
</a>
</g>
</g>
<!-- Node15&#45;&gt;Node8 -->
<g id="edge25_Node000015_Node000008" class="edge">
<title>Node15&#45;&gt;Node8</title>
<g id="a_edge25_Node000015_Node000008"><a xlink:title=" ">
<path fill="none" stroke="#63b8ff" d="M179.12,-54.98C155.16,-46.23 117.63,-32.51 90.58,-22.62"/>
<polygon fill="#63b8ff" stroke="#63b8ff" points="91.73,-19.32 81.13,-19.17 89.32,-25.89 91.73,-19.32"/>
</a>
</g>
</g>
<!-- Node15&#45;&gt;Node12 -->
<g id="edge24_Node000015_Node000012" class="edge">
<title>Node15&#45;&gt;Node12</title>
<g id="a_edge24_Node000015_Node000012"><a xlink:title=" ">
<path fill="none" stroke="#63b8ff" d="M191.49,-54.98C181.34,-47.07 165.99,-35.11 153.77,-25.58"/>
<polygon fill="#63b8ff" stroke="#63b8ff" points="155.58,-22.56 145.54,-19.17 151.27,-28.08 155.58,-22.56"/>
</a>
</g>
</g>
<!-- Node16&#45;&gt;Node5 -->
<g id="edge27_Node000016_Node000005" class="edge">
<title>Node16&#45;&gt;Node5</title>
<g id="a_edge27_Node000016_Node000005"><a xlink:title=" ">
<path fill="none" stroke="#63b8ff" d="M521.51,-54.98C483.04,-45.32 420.52,-29.62 380.97,-19.68"/>
<polygon fill="#63b8ff" stroke="#63b8ff" points="381.75,-16.27 371.2,-17.23 380.05,-23.06 381.75,-16.27"/>
</a>
</g>
</g>
<!-- Node17&#45;&gt;Node5 -->
<g id="edge29_Node000017_Node000005" class="edge">
<title>Node17&#45;&gt;Node5</title>
<g id="a_edge29_Node000017_Node000005"><a xlink:title=" ">
<path fill="none" stroke="#63b8ff" d="M720.33,-57.04C715.64,-56.33 710.92,-55.63 706.41,-55 587.91,-38.39 447.1,-22.06 381.49,-14.64"/>
<polygon fill="#63b8ff" stroke="#63b8ff" points="381.58,-11.13 371.25,-13.48 380.79,-18.08 381.58,-11.13"/>
</a>
</g>
</g>
</g>
</svg>
