<?xml version="1.0" encoding="UTF-8" standalone="no"?>
<!DOCTYPE svg PUBLIC "-//W3C//DTD SVG 1.1//EN"
 "http://www.w3.org/Graphics/SVG/1.1/DTD/svg11.dtd">
<!-- Generated by graphviz version 2.43.0 (0)
 -->
<!-- Title: iio_app_init Pages: 1 -->
<!--zoomable 397 -->

<svg id="main" version="1.1" xmlns="http://www.w3.org/2000/svg" xmlns:xlink="http://www.w3.org/1999/xlink" xml:space="preserve" onload="init(evt)">

<style type="text/css"><![CDATA[
.node, .edge {opacity: 0.7;}
.node.selected, .edge.selected {opacity: 1;}
.edge:hover path { stroke: red; }
.edge:hover polygon { stroke: red; fill: red; }
]]></style>

<defs>
  <circle id="rim" cx="0" cy="0" r="7"/>
  <circle id="rim2" cx="0" cy="0" r="3.5"/>
  <g id="zoomPlus">
    <use xlink:href="#rim" fill="#404040"><set attributeName="fill" to="#808080" begin="zoomplus.mouseover" end="zoomplus.mouseout"/></use>
    <path d="M-4,0h8M0,-4v8" fill="none" stroke="white" stroke-width="1.5" pointer-events="none"/>
  </g>
  <g id="zoomMin">
    <use xlink:href="#rim" fill="#404040"><set attributeName="fill" to="#808080" begin="zoomminus.mouseover" end="zoomminus.mouseout"/></use>
    <path d="M-4,0h8" fill="none" stroke="white" stroke-width="1.5" pointer-events="none"/>
  </g>
  <g id="arrowUp" transform="translate(30 24)">
    <use xlink:href="#rim"/>
    <path pointer-events="none" fill="none" stroke="white" stroke-width="1.5" d="M0,-3.0v7 M-2.5,-0.5L0,-3.0L2.5,-0.5"/>
  </g>
  <g id="arrowRight" transform="rotate(90) translate(36 -43)">
    <use xlink:href="#rim"/>
    <path pointer-events="none" fill="none" stroke="white" stroke-width="1.5" d="M0,-3.0v7 M-2.5,-0.5L0,-3.0L2.5,-0.5"/>
  </g>
  <g id="arrowDown" transform="rotate(180) translate(-30 -48)">
    <use xlink:href="#rim"/>
    <path pointer-events="none" fill="none" stroke="white" stroke-width="1.5" d="M0,-3.0v7 M-2.5,-0.5L0,-3.0L2.5,-0.5"/>
  </g>
  <g id="arrowLeft" transform="rotate(270) translate(-36 17)">
    <use xlink:href="#rim"/>
    <path pointer-events="none" fill="none" stroke="white" stroke-width="1.5" d="M0,-3.0v7 M-2.5,-0.5L0,-3.0L2.5,-0.5"/>
  </g>
  <g id="resetDef">
    <use xlink:href="#rim2" fill="#404040"><set attributeName="fill" to="#808080" begin="reset.mouseover" end="reset.mouseout"/></use>
  </g>
</defs>
<script type="application/ecmascript">
var viewWidth = 577;
var viewHeight = 397;
var sectionId = 'dynsection-2';
</script>
<script type="application/ecmascript" xlink:href="svg.min.js"/>
<svg id="graph" class="graph">
<g id="viewport">
<title>iio_app_init</title>
<!-- Node1 -->
<g id="Node000001" class="node">
<title>Node1</title>
<g id="a_Node000001"><a xlink:title=" ">
<polygon fill="#999999" stroke="#666666" points="569,-204 496,-204 496,-185 569,-185 569,-204"/>
<text text-anchor="middle" x="532.5" y="-192" font-family="Helvetica,sans-Serif" font-size="10.00">iio_app_init</text>
</a>
</g>
</g>
<!-- Node2 -->
<g id="Node000002" class="node">
<title>Node2</title>
<g id="a_Node000002"><a xlink:href="eval-pqmon_2src_2examples_2basic_2basic__example_8c.html#a1681c88b1933ada9b895fe6c81a8aac6" target="_top" xlink:title="PQM example main execution.">
<polygon fill="white" stroke="#666666" points="431,-389 313,-389 313,-370 431,-370 431,-389"/>
<text text-anchor="middle" x="372" y="-377" font-family="Helvetica,sans-Serif" font-size="10.00">basic_pqm_firmware</text>
</a>
</g>
</g>
<!-- Node1&#45;&gt;Node2 -->
<g id="edge1_Node000001_Node000002" class="edge">
<title>Node1&#45;&gt;Node2</title>
<g id="a_edge1_Node000001_Node000002"><a xlink:title=" ">
<path fill="none" stroke="#63b8ff" d="M528.98,-214.3C523.38,-249.65 506.5,-323.5 460,-361.5 451.76,-368.23 441.64,-372.65 431.25,-375.5"/>
<polygon fill="#63b8ff" stroke="#63b8ff" points="532.46,-214.66 530.43,-204.26 525.54,-213.66 532.46,-214.66"/>
</a>
</g>
</g>
<!-- Node4 -->
<g id="Node000004" class="node">
<title>Node4</title>
<g id="a_Node000004"><a xlink:href="axi__qspi__example_8c.html#ac25cbf8ae523e89cb0617e68c98bc697" target="_top" xlink:title=" ">
<polygon fill="white" stroke="#666666" points="416.5,-352 327.5,-352 327.5,-333 416.5,-333 416.5,-352"/>
<text text-anchor="middle" x="372" y="-340" font-family="Helvetica,sans-Serif" font-size="10.00">example_main</text>
</a>
</g>
</g>
<!-- Node1&#45;&gt;Node4 -->
<g id="edge3_Node000001_Node000004" class="edge">
<title>Node1&#45;&gt;Node4</title>
<g id="a_edge3_Node000001_Node000004"><a xlink:title=" ">
<path fill="none" stroke="#63b8ff" d="M526.45,-213.93C517.89,-242.83 497.67,-296.69 460,-324.5 447.59,-333.66 431.6,-338.41 416.72,-340.8"/>
<polygon fill="#63b8ff" stroke="#63b8ff" points="529.86,-214.76 529.18,-204.19 523.11,-212.88 529.86,-214.76"/>
</a>
</g>
</g>
<!-- Node5 -->
<g id="Node000005" class="node">
<title>Node5</title>
<g id="a_Node000005"><a xlink:href="ltc7841_2src_2examples_2iio__example_2iio__example_8c.html#a423407bf3827741dfe2f6e0def8ba0c3" target="_top" xlink:title="Basic example main execution.">
<polygon fill="white" stroke="#666666" points="416.5,-315 327.5,-315 327.5,-296 416.5,-296 416.5,-315"/>
<text text-anchor="middle" x="372" y="-303" font-family="Helvetica,sans-Serif" font-size="10.00">example_main</text>
</a>
</g>
</g>
<!-- Node1&#45;&gt;Node5 -->
<g id="edge4_Node000001_Node000005" class="edge">
<title>Node1&#45;&gt;Node5</title>
<g id="a_edge4_Node000001_Node000005"><a xlink:title=" ">
<path fill="none" stroke="#63b8ff" d="M522.31,-213.34C510.81,-234.82 489.05,-269.3 460,-287.5 447.19,-295.53 431.44,-300.04 416.88,-302.56"/>
<polygon fill="#63b8ff" stroke="#63b8ff" points="525.53,-214.73 526.99,-204.23 519.31,-211.53 525.53,-214.73"/>
</a>
</g>
</g>
<!-- Node6 -->
<g id="Node000006" class="node">
<title>Node6</title>
<g id="a_Node000006"><a xlink:href="ad463x__fmcz_2src_2examples_2iio__example_2iio__example_8c.html#a7d58fb707a91d4615d3bf949fabaa1e2" target="_top" xlink:title="IIO example main execution.">
<polygon fill="white" stroke="#666666" points="425.5,-278 318.5,-278 318.5,-259 425.5,-259 425.5,-278"/>
<text text-anchor="middle" x="372" y="-266" font-family="Helvetica,sans-Serif" font-size="10.00">iio_example_main</text>
</a>
</g>
</g>
<!-- Node1&#45;&gt;Node6 -->
<g id="edge5_Node000001_Node000006" class="edge">
<title>Node1&#45;&gt;Node6</title>
<g id="a_edge5_Node000001_Node000006"><a xlink:title=" ">
<path fill="none" stroke="#63b8ff" d="M514.74,-211.33C501.13,-224.02 480.85,-240.83 460,-250.5 449.37,-255.43 437.38,-259.02 425.78,-261.63"/>
<polygon fill="#63b8ff" stroke="#63b8ff" points="517.51,-213.52 522.29,-204.07 512.66,-208.48 517.51,-213.52"/>
</a>
</g>
</g>
<!-- Node11 -->
<g id="Node000011" class="node">
<title>Node11</title>
<g id="a_Node000011"><a xlink:href="adrv902x_2src_2examples_2iio__example_2iio__example_8c.html#a692b15b864d48091dc3d7095bea120b4" target="_top" xlink:title="IIO example main execution.">
<polygon fill="white" stroke="#666666" points="425.5,-241 318.5,-241 318.5,-222 425.5,-222 425.5,-241"/>
<text text-anchor="middle" x="372" y="-229" font-family="Helvetica,sans-Serif" font-size="10.00">iio_example_main</text>
</a>
</g>
</g>
<!-- Node1&#45;&gt;Node11 -->
<g id="edge10_Node000001_Node000011" class="edge">
<title>Node1&#45;&gt;Node11</title>
<g id="a_edge10_Node000001_Node000011"><a xlink:title=" ">
<path fill="none" stroke="#63b8ff" d="M487.15,-206.7C478.19,-209.04 468.81,-211.42 460,-213.5 447.54,-216.44 434.02,-219.37 421.42,-221.98"/>
<polygon fill="#63b8ff" stroke="#63b8ff" points="488.28,-210.02 497.05,-204.07 486.49,-203.25 488.28,-210.02"/>
</a>
</g>
</g>
<!-- Node12 -->
<g id="Node000012" class="node">
<title>Node12</title>
<g id="a_Node000012"><a xlink:href="iio__sw__trigger__example_8c.html#a89aade8edb6d89b267280af1c3bb6ac0" target="_top" xlink:title="IIO sw trigger example main execution.">
<polygon fill="white" stroke="#666666" points="453.5,-204 290.5,-204 290.5,-185 453.5,-185 453.5,-204"/>
<text text-anchor="middle" x="372" y="-192" font-family="Helvetica,sans-Serif" font-size="10.00">iio_sw_trigger_example_main</text>
</a>
</g>
</g>
<!-- Node1&#45;&gt;Node12 -->
<g id="edge11_Node000001_Node000012" class="edge">
<title>Node1&#45;&gt;Node12</title>
<g id="a_edge11_Node000001_Node000012"><a xlink:title=" ">
<path fill="none" stroke="#63b8ff" d="M485.8,-194.5C475.73,-194.5 464.78,-194.5 453.79,-194.5"/>
<polygon fill="#63b8ff" stroke="#63b8ff" points="485.93,-198 495.93,-194.5 485.93,-191 485.93,-198"/>
</a>
</g>
</g>
<!-- Node14 -->
<g id="Node000014" class="node">
<title>Node14</title>
<g id="a_Node000014"><a xlink:href="ad7091r8-sdz_2src_2examples_2iio__timer__trigger__example_2iio__timer__trigger__example_8c.html#a7bab3a90f71c4ddf1bc5fff9fc70b3fb" target="_top" xlink:title="IIO trigger example main execution.">
<polygon fill="white" stroke="#666666" points="460,-167 284,-167 284,-148 460,-148 460,-167"/>
<text text-anchor="middle" x="372" y="-155" font-family="Helvetica,sans-Serif" font-size="10.00">iio_timer_trigger_example_main</text>
</a>
</g>
</g>
<!-- Node1&#45;&gt;Node14 -->
<g id="edge13_Node000001_Node000014" class="edge">
<title>Node1&#45;&gt;Node14</title>
<g id="a_edge13_Node000001_Node000014"><a xlink:title=" ">
<path fill="none" stroke="#63b8ff" d="M487.15,-182.3C478.19,-179.96 468.81,-177.58 460,-175.5 447.54,-172.56 434.02,-169.63 421.42,-167.02"/>
<polygon fill="#63b8ff" stroke="#63b8ff" points="486.49,-185.75 497.05,-184.93 488.28,-178.98 486.49,-185.75"/>
</a>
</g>
</g>
<!-- Node16 -->
<g id="Node000016" class="node">
<title>Node16</title>
<g id="a_Node000016"><a xlink:href="eval-adis1646x_2src_2examples_2iio__trigger__example_2iio__trigger__example_8c.html#aa6785eab0c37adc61db331ebebdc40ee" target="_top" xlink:title="IIO trigger example main execution.">
<polygon fill="white" stroke="#666666" points="444,-130 300,-130 300,-111 444,-111 444,-130"/>
<text text-anchor="middle" x="372" y="-118" font-family="Helvetica,sans-Serif" font-size="10.00">iio_trigger_example_main</text>
</a>
</g>
</g>
<!-- Node1&#45;&gt;Node16 -->
<g id="edge15_Node000001_Node000016" class="edge">
<title>Node1&#45;&gt;Node16</title>
<g id="a_edge15_Node000001_Node000016"><a xlink:title=" ">
<path fill="none" stroke="#63b8ff" d="M514.74,-177.67C501.13,-164.98 480.85,-148.17 460,-138.5 452.58,-135.06 444.51,-132.27 436.37,-130.02"/>
<polygon fill="#63b8ff" stroke="#63b8ff" points="512.66,-180.52 522.29,-184.93 517.51,-175.48 512.66,-180.52"/>
</a>
</g>
</g>
<!-- Node18 -->
<g id="Node000018" class="node">
<title>Node18</title>
<g id="a_Node000018"><a xlink:href="ad713x__fmc_8c.html#ae66f6b31b5ad750f1fe042a706a4e3d4" target="_top" xlink:title=" ">
<polygon fill="white" stroke="#666666" points="392.5,-93 351.5,-93 351.5,-74 392.5,-74 392.5,-93"/>
<text text-anchor="middle" x="372" y="-81" font-family="Helvetica,sans-Serif" font-size="10.00">main</text>
</a>
</g>
</g>
<!-- Node1&#45;&gt;Node18 -->
<g id="edge17_Node000001_Node000018" class="edge">
<title>Node1&#45;&gt;Node18</title>
<g id="a_edge17_Node000001_Node000018"><a xlink:title=" ">
<path fill="none" stroke="#63b8ff" d="M522.31,-175.66C510.81,-154.18 489.05,-119.7 460,-101.5 439.48,-88.64 411.41,-84.79 392.76,-83.73"/>
<polygon fill="#63b8ff" stroke="#63b8ff" points="519.31,-177.47 526.99,-184.77 525.53,-174.27 519.31,-177.47"/>
</a>
</g>
</g>
<!-- Node19 -->
<g id="Node000019" class="node">
<title>Node19</title>
<g id="a_Node000019"><a xlink:href="ad6676__ebz_8c.html#a840291bc02cba5474a4cb46a9b9566fe" target="_top" xlink:title="main">
<polygon fill="white" stroke="#666666" points="392.5,-56 351.5,-56 351.5,-37 392.5,-37 392.5,-56"/>
<text text-anchor="middle" x="372" y="-44" font-family="Helvetica,sans-Serif" font-size="10.00">main</text>
</a>
</g>
</g>
<!-- Node1&#45;&gt;Node19 -->
<g id="edge18_Node000001_Node000019" class="edge">
<title>Node1&#45;&gt;Node19</title>
<g id="a_edge18_Node000001_Node000019"><a xlink:title=" ">
<path fill="none" stroke="#63b8ff" d="M526.45,-175.07C517.89,-146.17 497.67,-92.31 460,-64.5 440.27,-49.93 411.49,-46.52 392.51,-46.02"/>
<polygon fill="#63b8ff" stroke="#63b8ff" points="523.11,-176.12 529.18,-184.81 529.86,-174.24 523.11,-176.12"/>
</a>
</g>
</g>
<!-- Node20 -->
<g id="Node000020" class="node">
<title>Node20</title>
<g id="a_Node000020"><a xlink:href="swiot__fw_8c.html#a427f9beea005fab8fccd9774acb53fc3" target="_top" xlink:title="IIO example main execution.">
<polygon fill="white" stroke="#666666" points="418,-19 326,-19 326,0 418,0 418,-19"/>
<text text-anchor="middle" x="372" y="-7" font-family="Helvetica,sans-Serif" font-size="10.00">swiot_firmware</text>
</a>
</g>
</g>
<!-- Node1&#45;&gt;Node20 -->
<g id="edge19_Node000001_Node000020" class="edge">
<title>Node1&#45;&gt;Node20</title>
<g id="a_edge19_Node000001_Node000020"><a xlink:title=" ">
<path fill="none" stroke="#63b8ff" d="M528.98,-174.7C523.38,-139.35 506.5,-65.5 460,-27.5 448.3,-17.94 432.8,-13.06 418.14,-10.68"/>
<polygon fill="#63b8ff" stroke="#63b8ff" points="525.54,-175.34 530.43,-184.74 532.46,-174.34 525.54,-175.34"/>
</a>
</g>
</g>
<!-- Node3 -->
<g id="Node000003" class="node">
<title>Node3</title>
<g id="a_Node000003"><a xlink:href="eval-pqmon_2src_2platform_2maxim_2main_8c.html#ae66f6b31b5ad750f1fe042a706a4e3d4" target="_top" xlink:title="Main function that executes on Maxim platform.">
<polygon fill="white" stroke="#666666" points="240.5,-389 199.5,-389 199.5,-370 240.5,-370 240.5,-389"/>
<text text-anchor="middle" x="220" y="-377" font-family="Helvetica,sans-Serif" font-size="10.00">main</text>
</a>
</g>
</g>
<!-- Node2&#45;&gt;Node3 -->
<g id="edge2_Node000002_Node000003" class="edge">
<title>Node2&#45;&gt;Node3</title>
<g id="a_edge2_Node000002_Node000003"><a xlink:title=" ">
<path fill="none" stroke="#63b8ff" d="M302.3,-379.5C279.76,-379.5 256.46,-379.5 240.61,-379.5"/>
<polygon fill="#63b8ff" stroke="#63b8ff" points="302.58,-383 312.58,-379.5 302.58,-376 302.58,-383"/>
</a>
</g>
</g>
<!-- Node7 -->
<g id="Node000007" class="node">
<title>Node7</title>
<g id="a_Node000007"><a xlink:href="iio__demo__free_r_t_o_s_2src_2platform_2maxim_2main_8c.html#a24add404325f00727126e8cf06932df2" target="_top" xlink:title="IIOD example task.">
<polygon fill="white" stroke="#666666" points="248,-297 192,-297 192,-278 248,-278 248,-297"/>
<text text-anchor="middle" x="220" y="-285" font-family="Helvetica,sans-Serif" font-size="10.00">iiodTask</text>
</a>
</g>
</g>
<!-- Node6&#45;&gt;Node7 -->
<g id="edge6_Node000006_Node000007" class="edge">
<title>Node6&#45;&gt;Node7</title>
<g id="a_edge6_Node000006_Node000007"><a xlink:title=" ">
<path fill="none" stroke="#63b8ff" d="M307.99,-276.48C287.1,-279.13 264.93,-281.94 248.2,-284.05"/>
<polygon fill="#63b8ff" stroke="#63b8ff" points="308.63,-279.93 318.12,-275.2 307.76,-272.98 308.63,-279.93"/>
</a>
</g>
</g>
<!-- Node10 -->
<g id="Node000010" class="node">
<title>Node10</title>
<g id="a_Node000010"><a xlink:href="ad463x__fmcz_2src_2platform_2stm32_2main_8c.html#ae66f6b31b5ad750f1fe042a706a4e3d4" target="_top" xlink:title="Main function execution for STM32 platform.">
<polygon fill="white" stroke="#666666" points="240.5,-260 199.5,-260 199.5,-241 240.5,-241 240.5,-260"/>
<text text-anchor="middle" x="220" y="-248" font-family="Helvetica,sans-Serif" font-size="10.00">main</text>
</a>
</g>
</g>
<!-- Node6&#45;&gt;Node10 -->
<g id="edge9_Node000006_Node000010" class="edge">
<title>Node6&#45;&gt;Node10</title>
<g id="a_edge9_Node000006_Node000010"><a xlink:title=" ">
<path fill="none" stroke="#63b8ff" d="M307.89,-260.93C283.73,-258.03 257.87,-254.92 240.71,-252.87"/>
<polygon fill="#63b8ff" stroke="#63b8ff" points="307.77,-264.44 318.12,-262.15 308.6,-257.49 307.77,-264.44"/>
</a>
</g>
</g>
<!-- Node8 -->
<g id="Node000008" class="node">
<title>Node8</title>
<g id="a_Node000008"><a xlink:href="iio__demo__free_r_t_o_s_2src_2platform_2maxim_2main_8c.html#afab0d0904f72955eece2f60990b73944" target="_top" xlink:title="Creating iio example with blinking led task.">
<polygon fill="white" stroke="#666666" points="156,-297 77,-297 77,-278 156,-278 156,-297"/>
<text text-anchor="middle" x="116.5" y="-285" font-family="Helvetica,sans-Serif" font-size="10.00">create_tasks</text>
</a>
</g>
</g>
<!-- Node7&#45;&gt;Node8 -->
<g id="edge7_Node000007_Node000008" class="edge">
<title>Node7&#45;&gt;Node8</title>
<g id="a_edge7_Node000007_Node000008"><a xlink:title=" ">
<path fill="none" stroke="#63b8ff" d="M181.65,-287.5C173.36,-287.5 164.56,-287.5 156.22,-287.5"/>
<polygon fill="#63b8ff" stroke="#63b8ff" points="181.8,-291 191.8,-287.5 181.8,-284 181.8,-291"/>
</a>
</g>
</g>
<!-- Node9 -->
<g id="Node000009" class="node">
<title>Node9</title>
<g id="a_Node000009"><a xlink:href="iio__demo__free_r_t_o_s_2src_2platform_2maxim_2main_8c.html#ae66f6b31b5ad750f1fe042a706a4e3d4" target="_top" xlink:title="Main function of iio_demo_freeRTOS project.">
<polygon fill="white" stroke="#666666" points="41,-297 0,-297 0,-278 41,-278 41,-297"/>
<text text-anchor="middle" x="20.5" y="-285" font-family="Helvetica,sans-Serif" font-size="10.00">main</text>
</a>
</g>
</g>
<!-- Node8&#45;&gt;Node9 -->
<g id="edge8_Node000008_Node000009" class="edge">
<title>Node8&#45;&gt;Node9</title>
<g id="a_edge8_Node000008_Node000009"><a xlink:title=" ">
<path fill="none" stroke="#63b8ff" d="M66.74,-287.5C57.62,-287.5 48.59,-287.5 41.03,-287.5"/>
<polygon fill="#63b8ff" stroke="#63b8ff" points="67,-291 77,-287.5 67,-284 67,-291"/>
</a>
</g>
</g>
<!-- Node13 -->
<g id="Node000013" class="node">
<title>Node13</title>
<g id="a_Node000013"><a xlink:href="iio__demo_2src_2platform_2aducm3029_2main_8c.html#ae66f6b31b5ad750f1fe042a706a4e3d4" target="_top" xlink:title="Main function execution for aducm3029 platform.">
<polygon fill="white" stroke="#666666" points="240.5,-204 199.5,-204 199.5,-185 240.5,-185 240.5,-204"/>
<text text-anchor="middle" x="220" y="-192" font-family="Helvetica,sans-Serif" font-size="10.00">main</text>
</a>
</g>
</g>
<!-- Node12&#45;&gt;Node13 -->
<g id="edge12_Node000012_Node000013" class="edge">
<title>Node12&#45;&gt;Node13</title>
<g id="a_edge12_Node000012_Node000013"><a xlink:title=" ">
<path fill="none" stroke="#63b8ff" d="M279.92,-194.5C265.09,-194.5 251.15,-194.5 240.55,-194.5"/>
<polygon fill="#63b8ff" stroke="#63b8ff" points="280.29,-198 290.29,-194.5 280.29,-191 280.29,-198"/>
</a>
</g>
</g>
<!-- Node15 -->
<g id="Node000015" class="node">
<title>Node15</title>
<g id="a_Node000015"><a xlink:href="ad7091r8-sdz_2src_2platform_2maxim_2main_8c.html#ae66f6b31b5ad750f1fe042a706a4e3d4" target="_top" xlink:title="Main function execution for Maxim platform.">
<polygon fill="white" stroke="#666666" points="240.5,-167 199.5,-167 199.5,-148 240.5,-148 240.5,-167"/>
<text text-anchor="middle" x="220" y="-155" font-family="Helvetica,sans-Serif" font-size="10.00">main</text>
</a>
</g>
</g>
<!-- Node14&#45;&gt;Node15 -->
<g id="edge14_Node000014_Node000015" class="edge">
<title>Node14&#45;&gt;Node15</title>
<g id="a_edge14_Node000014_Node000015"><a xlink:title=" ">
<path fill="none" stroke="#63b8ff" d="M273.6,-157.5C261.16,-157.5 249.62,-157.5 240.54,-157.5"/>
<polygon fill="#63b8ff" stroke="#63b8ff" points="273.74,-161 283.74,-157.5 273.74,-154 273.74,-161"/>
</a>
</g>
</g>
<!-- Node17 -->
<g id="Node000017" class="node">
<title>Node17</title>
<g id="a_Node000017"><a xlink:href="eval-adis1646x_2src_2platform_2maxim_2main_8c.html#ae66f6b31b5ad750f1fe042a706a4e3d4" target="_top" xlink:title="Main function execution for Maxim platform.">
<polygon fill="white" stroke="#666666" points="240.5,-130 199.5,-130 199.5,-111 240.5,-111 240.5,-130"/>
<text text-anchor="middle" x="220" y="-118" font-family="Helvetica,sans-Serif" font-size="10.00">main</text>
</a>
</g>
</g>
<!-- Node16&#45;&gt;Node17 -->
<g id="edge16_Node000016_Node000017" class="edge">
<title>Node16&#45;&gt;Node17</title>
<g id="a_edge16_Node000016_Node000017"><a xlink:title=" ">
<path fill="none" stroke="#63b8ff" d="M289.73,-120.5C271.36,-120.5 253.5,-120.5 240.59,-120.5"/>
<polygon fill="#63b8ff" stroke="#63b8ff" points="289.95,-124 299.95,-120.5 289.95,-117 289.95,-124"/>
</a>
</g>
</g>
<!-- Node21 -->
<g id="Node000021" class="node">
<title>Node21</title>
<g id="a_Node000021"><a xlink:href="swiot1l_2src_2platform_2maxim_2main_8c.html#ae66f6b31b5ad750f1fe042a706a4e3d4" target="_top" xlink:title="Main function.">
<polygon fill="white" stroke="#666666" points="240.5,-19 199.5,-19 199.5,0 240.5,0 240.5,-19"/>
<text text-anchor="middle" x="220" y="-7" font-family="Helvetica,sans-Serif" font-size="10.00">main</text>
</a>
</g>
</g>
<!-- Node20&#45;&gt;Node21 -->
<g id="edge20_Node000020_Node000021" class="edge">
<title>Node20&#45;&gt;Node21</title>
<g id="a_edge20_Node000020_Node000021"><a xlink:title=" ">
<path fill="none" stroke="#63b8ff" d="M315.73,-9.5C289.41,-9.5 259.61,-9.5 240.57,-9.5"/>
<polygon fill="#63b8ff" stroke="#63b8ff" points="316,-13 326,-9.5 316,-6 316,-13"/>
</a>
</g>
</g>
</g>
</svg>

<g id="navigator" transform="translate(0 0)" fill="#404254">
  <rect fill="#f2f5e9" fill-opacity="0.5" stroke="#606060" stroke-width=".5" x="0" y="0" width="60" height="60"/>
  <use id="zoomplus" xlink:href="#zoomPlus" x="17" y="9" onmousedown="handleZoom(evt,'in')"/>
  <use id="zoomminus" xlink:href="#zoomMin" x="42" y="9" onmousedown="handleZoom(evt,'out')"/>
  <use id="reset" xlink:href="#resetDef" x="30" y="36" onmousedown="handleReset()"/>
   <use id="arrowup" xlink:href="#arrowUp" x="0" y="0" onmousedown="handlePan(0,-1)"/>
  <use id="arrowright" xlink:href="#arrowRight" x="0" y="0" onmousedown="handlePan(1,0)"/>
  <use id="arrowdown" xlink:href="#arrowDown" x="0" y="0" onmousedown="handlePan(0,1)"/>
  <use id="arrowleft" xlink:href="#arrowLeft" x="0" y="0" onmousedown="handlePan(-1,0)"/>
</g>
<svg viewBox="0 0 15 15" width="100%" height="30px" preserveAspectRatio="xMaxYMin meet">
 <g id="arrow_out" transform="scale(0.3 0.3)">
  <a xlink:href="iio__app_8h_aebd2a74b59de01801d316d7dff60340b_icgraph_org.svg" target="_base">
   <rect id="button" ry="5" rx="5" y="6" x="6" height="38" width="38"
        fill="#f2f5e9" fill-opacity="0.5" stroke="#606060" stroke-width="1.0"/>
   <path id="arrow"
     d="M 11.500037,31.436501 C 11.940474,20.09759 22.043105,11.32322 32.158766,21.979434 L 37.068811,17.246167 C 37.068811,17.246167 37.088388,32 37.088388,32 L 22.160133,31.978069 C 22.160133,31.978069 26.997745,27.140456 26.997745,27.140456 C 18.528582,18.264221 13.291696,25.230495 11.500037,31.436501 z"
     style="fill:#404040;"/>
  </a>
 </g>
</svg>

<style type='text/css'>
<![CDATA[
[data-mouse-over-selected='false'] { opacity: 0.7; }
[data-mouse-over-selected='true']  { opacity: 1.0; }
]]>
</style>
<script type="application/ecmascript"><![CDATA[
document.addEventListener('DOMContentLoaded', (event) => {
  highlightEdges();
  highlightAdjacentNodes();
});
]]></script>
</svg>
