<?xml version="1.0" encoding="UTF-8" standalone="no"?>
<!DOCTYPE svg PUBLIC "-//W3C//DTD SVG 1.1//EN"
 "http://www.w3.org/Graphics/SVG/1.1/DTD/svg11.dtd">
<!-- Generated by graphviz version 2.43.0 (0)
 -->
<!-- Title: drivers/imu/iio_adis1646x.h Pages: 1 -->
<svg width="350pt" height="104pt"
 viewBox="0.00 0.00 350.00 104.00" xmlns="http://www.w3.org/2000/svg" xmlns:xlink="http://www.w3.org/1999/xlink">
<g id="graph0" class="graph" transform="scale(1 1) rotate(0) translate(4 100)">
<title>drivers/imu/iio_adis1646x.h</title>
<!-- Node1 -->
<g id="Node000001" class="node">
<title>Node1</title>
<g id="a_Node000001"><a xlink:title="Implementation of iio_adis1646x.h.">
<polygon fill="#999999" stroke="#666666" points="241.5,-96 89.5,-96 89.5,-77 241.5,-77 241.5,-96"/>
<text text-anchor="middle" x="165.5" y="-84" font-family="Helvetica,sans-Serif" font-size="10.00">drivers/imu/iio_adis1646x.h</text>
</a>
</g>
</g>
<!-- Node2 -->
<g id="Node000002" class="node">
<title>Node2</title>
<g id="a_Node000002"><a xlink:href="iio__adis1646x_8c.html" target="_top" xlink:title="Implementation of iio_adis1646x.c.">
<polygon fill="white" stroke="#666666" points="151,-30 0,-30 0,-11 151,-11 151,-30"/>
<text text-anchor="middle" x="75.5" y="-18" font-family="Helvetica,sans-Serif" font-size="10.00">drivers/imu/iio_adis1646x.c</text>
</a>
</g>
</g>
<!-- Node1&#45;&gt;Node2 -->
<g id="edge1_Node000001_Node000002" class="edge">
<title>Node1&#45;&gt;Node2</title>
<g id="a_edge1_Node000001_Node000002"><a xlink:title=" ">
<path fill="none" stroke="#63b8ff" d="M144.88,-70.83C127.22,-58.28 102.4,-40.63 87.73,-30.2"/>
<polygon fill="#63b8ff" stroke="#63b8ff" points="143.18,-73.93 153.36,-76.87 147.24,-68.22 143.18,-73.93"/>
</a>
</g>
</g>
<!-- Node3 -->
<g id="Node000003" class="node">
<title>Node3</title>
<g id="a_Node000003"><a xlink:href="eval-adis1646x_2src_2examples_2iio__trigger__example_2iio__trigger__example_8c.html" target="_top" xlink:title="Implementation of IIO trigger example for eval&#45;adis1646x project.">
<polygon fill="white" stroke="#666666" points="342,-41 169,-41 169,0 342,0 342,-41"/>
<text text-anchor="start" x="177" y="-29" font-family="Helvetica,sans-Serif" font-size="10.00">projects/eval&#45;adis1646x</text>
<text text-anchor="start" x="177" y="-18" font-family="Helvetica,sans-Serif" font-size="10.00">/src/examples/iio_trigger</text>
<text text-anchor="middle" x="255.5" y="-7" font-family="Helvetica,sans-Serif" font-size="10.00">_example/iio_trigger_example.c</text>
</a>
</g>
</g>
<!-- Node1&#45;&gt;Node3 -->
<g id="edge2_Node000001_Node000003" class="edge">
<title>Node1&#45;&gt;Node3</title>
<g id="a_edge2_Node000001_Node000003"><a xlink:title=" ">
<path fill="none" stroke="#63b8ff" d="M185.99,-70.93C198.45,-62.07 214.52,-50.64 228.07,-41.01"/>
<polygon fill="#63b8ff" stroke="#63b8ff" points="183.76,-68.22 177.64,-76.87 187.82,-73.93 183.76,-68.22"/>
</a>
</g>
</g>
</g>
</svg>
