<?xml version="1.0" encoding="UTF-8" standalone="no"?>
<!DOCTYPE svg PUBLIC "-//W3C//DTD SVG 1.1//EN"
 "http://www.w3.org/Graphics/SVG/1.1/DTD/svg11.dtd">
<!-- Generated by graphviz version 2.43.0 (0)
 -->
<!-- Title: projects/iio_demo/src/examples/iio_sw_trigger_example/iio_sw_trigger_example.c Pages: 1 -->
<!--zoomable 335 -->

<svg id="main" version="1.1" xmlns="http://www.w3.org/2000/svg" xmlns:xlink="http://www.w3.org/1999/xlink" xml:space="preserve" onload="init(evt)">

<style type="text/css"><![CDATA[
.node, .edge {opacity: 0.7;}
.node.selected, .edge.selected {opacity: 1;}
.edge:hover path { stroke: red; }
.edge:hover polygon { stroke: red; fill: red; }
]]></style>

<defs>
  <circle id="rim" cx="0" cy="0" r="7"/>
  <circle id="rim2" cx="0" cy="0" r="3.5"/>
  <g id="zoomPlus">
    <use xlink:href="#rim" fill="#404040"><set attributeName="fill" to="#808080" begin="zoomplus.mouseover" end="zoomplus.mouseout"/></use>
    <path d="M-4,0h8M0,-4v8" fill="none" stroke="white" stroke-width="1.5" pointer-events="none"/>
  </g>
  <g id="zoomMin">
    <use xlink:href="#rim" fill="#404040"><set attributeName="fill" to="#808080" begin="zoomminus.mouseover" end="zoomminus.mouseout"/></use>
    <path d="M-4,0h8" fill="none" stroke="white" stroke-width="1.5" pointer-events="none"/>
  </g>
  <g id="arrowUp" transform="translate(30 24)">
    <use xlink:href="#rim"/>
    <path pointer-events="none" fill="none" stroke="white" stroke-width="1.5" d="M0,-3.0v7 M-2.5,-0.5L0,-3.0L2.5,-0.5"/>
  </g>
  <g id="arrowRight" transform="rotate(90) translate(36 -43)">
    <use xlink:href="#rim"/>
    <path pointer-events="none" fill="none" stroke="white" stroke-width="1.5" d="M0,-3.0v7 M-2.5,-0.5L0,-3.0L2.5,-0.5"/>
  </g>
  <g id="arrowDown" transform="rotate(180) translate(-30 -48)">
    <use xlink:href="#rim"/>
    <path pointer-events="none" fill="none" stroke="white" stroke-width="1.5" d="M0,-3.0v7 M-2.5,-0.5L0,-3.0L2.5,-0.5"/>
  </g>
  <g id="arrowLeft" transform="rotate(270) translate(-36 17)">
    <use xlink:href="#rim"/>
    <path pointer-events="none" fill="none" stroke="white" stroke-width="1.5" d="M0,-3.0v7 M-2.5,-0.5L0,-3.0L2.5,-0.5"/>
  </g>
  <g id="resetDef">
    <use xlink:href="#rim2" fill="#404040"><set attributeName="fill" to="#808080" begin="reset.mouseover" end="reset.mouseout"/></use>
  </g>
</defs>
<script type="application/ecmascript">
var viewWidth = 579;
var viewHeight = 335;
var sectionId = 'dynsection-0';
</script>
<script type="application/ecmascript" xlink:href="svg.min.js"/>
<svg id="graph" class="graph">
<g id="viewport">
<title>projects/iio_demo/src/examples/iio_sw_trigger_example/iio_sw_trigger_example.c</title>
<!-- Node1 -->
<g id="Node000001" class="node">
<title>Node1</title>
<g id="a_Node000001"><a xlink:title="Implementation of IIO sw trigger example for iio_demo project.">
<polygon fill="#999999" stroke="#666666" points="387.5,-327 248.5,-327 248.5,-275 387.5,-275 387.5,-327"/>
<text text-anchor="start" x="256.5" y="-315" font-family="Helvetica,sans-Serif" font-size="10.00">projects/iio_demo/src</text>
<text text-anchor="start" x="256.5" y="-304" font-family="Helvetica,sans-Serif" font-size="10.00">/examples/iio_sw_trigger</text>
<text text-anchor="start" x="256.5" y="-293" font-family="Helvetica,sans-Serif" font-size="10.00">_example/iio_sw_trigger</text>
<text text-anchor="middle" x="318" y="-282" font-family="Helvetica,sans-Serif" font-size="10.00">_example.c</text>
</a>
</g>
</g>
<!-- Node2 -->
<g id="Node000002" class="node">
<title>Node2</title>
<g id="a_Node000002"><a xlink:href="iio__sw__trigger__example_8h.html" target="_top" xlink:title="IIO sw trigger example header for iio_demo project.">
<polygon fill="white" stroke="#666666" points="142,-239 0,-239 0,-220 142,-220 142,-239"/>
<text text-anchor="middle" x="71" y="-227" font-family="Helvetica,sans-Serif" font-size="10.00">iio_sw_trigger_example.h</text>
</a>
</g>
</g>
<!-- Node1&#45;&gt;Node2 -->
<g id="edge1_Node000001_Node000002" class="edge">
<title>Node1&#45;&gt;Node2</title>
<g id="a_edge1_Node000001_Node000002"><a xlink:title=" ">
<path fill="none" stroke="#63b8ff" d="M248.21,-280.36C204.01,-267.92 148.4,-252.28 111.38,-241.86"/>
<polygon fill="#63b8ff" stroke="#63b8ff" points="112.03,-238.41 101.46,-239.07 110.14,-245.15 112.03,-238.41"/>
</a>
</g>
</g>
<!-- Node3 -->
<g id="Node000003" class="node">
<title>Node3</title>
<g id="a_Node000003"><a xlink:href="iio__adc__demo_8h.html" target="_top" xlink:title="Header file of ADC Demo iio.">
<polygon fill="white" stroke="#666666" points="253.5,-239 160.5,-239 160.5,-220 253.5,-220 253.5,-239"/>
<text text-anchor="middle" x="207" y="-227" font-family="Helvetica,sans-Serif" font-size="10.00">iio_adc_demo.h</text>
</a>
</g>
</g>
<!-- Node1&#45;&gt;Node3 -->
<g id="edge2_Node000001_Node000003" class="edge">
<title>Node1&#45;&gt;Node3</title>
<g id="a_edge2_Node000001_Node000003"><a xlink:title=" ">
<path fill="none" stroke="#63b8ff" d="M277.93,-274.91C261.68,-264.74 243.52,-253.36 229.64,-244.68"/>
<polygon fill="#63b8ff" stroke="#63b8ff" points="231.12,-241.48 220.79,-239.14 227.41,-247.41 231.12,-241.48"/>
</a>
</g>
</g>
<!-- Node11 -->
<g id="Node000011" class="node">
<title>Node11</title>
<g id="a_Node000011"><a xlink:href="iio__dac__demo_8h.html" target="_top" xlink:title="Header file of DAC Demo iio.">
<polygon fill="white" stroke="#666666" points="364.5,-239 271.5,-239 271.5,-220 364.5,-220 364.5,-239"/>
<text text-anchor="middle" x="318" y="-227" font-family="Helvetica,sans-Serif" font-size="10.00">iio_dac_demo.h</text>
</a>
</g>
</g>
<!-- Node1&#45;&gt;Node11 -->
<g id="edge14_Node000001_Node000011" class="edge">
<title>Node1&#45;&gt;Node11</title>
<g id="a_edge14_Node000001_Node000011"><a xlink:title=" ">
<path fill="none" stroke="#63b8ff" d="M318,-274.91C318,-266.55 318,-257.38 318,-249.55"/>
<polygon fill="#63b8ff" stroke="#63b8ff" points="321.5,-249.3 318,-239.3 314.5,-249.3 321.5,-249.3"/>
</a>
</g>
</g>
<!-- Node13 -->
<g id="Node000013" class="node">
<title>Node13</title>
<g id="a_Node000013"><a xlink:title=" ">
<polygon fill="#e0e0e0" stroke="#999999" points="570.5,-239 475.5,-239 475.5,-220 570.5,-220 570.5,-239"/>
<text text-anchor="middle" x="523" y="-227" font-family="Helvetica,sans-Serif" font-size="10.00">common_data.h</text>
</a>
</g>
</g>
<!-- Node1&#45;&gt;Node13 -->
<g id="edge20_Node000001_Node000013" class="edge">
<title>Node1&#45;&gt;Node13</title>
<g id="a_edge20_Node000001_Node000013"><a xlink:title=" ">
<path fill="none" stroke="#63b8ff" d="M387.69,-276.37C421.6,-264.88 460.86,-251.57 488.33,-242.25"/>
<polygon fill="#63b8ff" stroke="#63b8ff" points="489.54,-245.54 497.89,-239.01 487.29,-238.91 489.54,-245.54"/>
</a>
</g>
</g>
<!-- Node14 -->
<g id="Node000014" class="node">
<title>Node14</title>
<g id="a_Node000014"><a xlink:href="no__os__util_8h.html" target="_top" xlink:title="Header file of utility functions.">
<polygon fill="white" stroke="#666666" points="457.5,-239 382.5,-239 382.5,-220 457.5,-220 457.5,-239"/>
<text text-anchor="middle" x="420" y="-227" font-family="Helvetica,sans-Serif" font-size="10.00">no_os_util.h</text>
</a>
</g>
</g>
<!-- Node1&#45;&gt;Node14 -->
<g id="edge21_Node000001_Node000014" class="edge">
<title>Node1&#45;&gt;Node14</title>
<g id="a_edge21_Node000001_Node000014"><a xlink:title=" ">
<path fill="none" stroke="#63b8ff" d="M354.82,-274.91C369.52,-264.9 385.92,-253.72 398.59,-245.09"/>
<polygon fill="#63b8ff" stroke="#63b8ff" points="400.79,-247.83 407.08,-239.3 396.85,-242.04 400.79,-247.83"/>
</a>
</g>
</g>
<!-- Node4 -->
<g id="Node000004" class="node">
<title>Node4</title>
<g id="a_Node000004"><a xlink:title=" ">
<polygon fill="#e0e0e0" stroke="#999999" points="326.5,-184 273.5,-184 273.5,-165 326.5,-165 326.5,-184"/>
<text text-anchor="middle" x="300" y="-172" font-family="Helvetica,sans-Serif" font-size="10.00">stdlib.h</text>
</a>
</g>
</g>
<!-- Node3&#45;&gt;Node4 -->
<g id="edge3_Node000003_Node000004" class="edge">
<title>Node3&#45;&gt;Node4</title>
<g id="a_edge3_Node000003_Node000004"><a xlink:title=" ">
<path fill="none" stroke="#63b8ff" d="M221.94,-219.98C236.5,-211.69 258.87,-198.94 275.93,-189.22"/>
<polygon fill="#63b8ff" stroke="#63b8ff" points="277.83,-192.16 284.79,-184.17 274.36,-186.08 277.83,-192.16"/>
</a>
</g>
</g>
<!-- Node5 -->
<g id="Node000005" class="node">
<title>Node5</title>
<g id="a_Node000005"><a xlink:href="iio__types_8h.html" target="_top" xlink:title="Header file for iio_types.">
<polygon fill="white" stroke="#666666" points="280,-129 210,-129 210,-110 280,-110 280,-129"/>
<text text-anchor="middle" x="245" y="-117" font-family="Helvetica,sans-Serif" font-size="10.00">iio_types.h</text>
</a>
</g>
</g>
<!-- Node3&#45;&gt;Node5 -->
<g id="edge4_Node000003_Node000005" class="edge">
<title>Node3&#45;&gt;Node5</title>
<g id="a_edge4_Node000003_Node000005"><a xlink:title=" ">
<path fill="none" stroke="#63b8ff" d="M210.11,-219.66C216.32,-202.01 230.37,-162.09 238.62,-138.64"/>
<polygon fill="#63b8ff" stroke="#63b8ff" points="241.94,-139.75 241.95,-129.16 235.33,-137.43 241.94,-139.75"/>
</a>
</g>
</g>
<!-- Node9 -->
<g id="Node000009" class="node">
<title>Node9</title>
<g id="a_Node000009"><a xlink:href="adc__demo_8h.html" target="_top" xlink:title="Header file of ADC Demo Driver.">
<polygon fill="white" stroke="#666666" points="163,-184 87,-184 87,-165 163,-165 163,-184"/>
<text text-anchor="middle" x="125" y="-172" font-family="Helvetica,sans-Serif" font-size="10.00">adc_demo.h</text>
</a>
</g>
</g>
<!-- Node3&#45;&gt;Node9 -->
<g id="edge9_Node000003_Node000009" class="edge">
<title>Node3&#45;&gt;Node9</title>
<g id="a_edge9_Node000003_Node000009"><a xlink:title=" ">
<path fill="none" stroke="#63b8ff" d="M193.83,-219.98C181.23,-211.84 162,-199.41 147.06,-189.76"/>
<polygon fill="#63b8ff" stroke="#63b8ff" points="148.71,-186.66 138.41,-184.17 144.91,-192.54 148.71,-186.66"/>
</a>
</g>
</g>
<!-- Node6 -->
<g id="Node000006" class="node">
<title>Node6</title>
<g id="a_Node000006"><a xlink:title=" ">
<polygon fill="#e0e0e0" stroke="#999999" points="383,-74 321,-74 321,-55 383,-55 383,-74"/>
<text text-anchor="middle" x="352" y="-62" font-family="Helvetica,sans-Serif" font-size="10.00">stdbool.h</text>
</a>
</g>
</g>
<!-- Node5&#45;&gt;Node6 -->
<g id="edge5_Node000005_Node000006" class="edge">
<title>Node5&#45;&gt;Node6</title>
<g id="a_edge5_Node000005_Node000006"><a xlink:title=" ">
<path fill="none" stroke="#63b8ff" d="M262.19,-109.98C279.25,-101.54 305.63,-88.47 325.4,-78.68"/>
<polygon fill="#63b8ff" stroke="#63b8ff" points="327.09,-81.75 334.5,-74.17 323.98,-75.47 327.09,-81.75"/>
</a>
</g>
</g>
<!-- Node7 -->
<g id="Node000007" class="node">
<title>Node7</title>
<g id="a_Node000007"><a xlink:title=" ">
<polygon fill="#e0e0e0" stroke="#999999" points="273.5,-19 220.5,-19 220.5,0 273.5,0 273.5,-19"/>
<text text-anchor="middle" x="247" y="-7" font-family="Helvetica,sans-Serif" font-size="10.00">stdint.h</text>
</a>
</g>
</g>
<!-- Node5&#45;&gt;Node7 -->
<g id="edge6_Node000005_Node000007" class="edge">
<title>Node5&#45;&gt;Node7</title>
<g id="a_edge6_Node000005_Node000007"><a xlink:title=" ">
<path fill="none" stroke="#63b8ff" d="M252.94,-109.75C260.03,-101.3 269.9,-87.79 274,-74 278.83,-57.74 270.05,-40.03 261.25,-27.46"/>
<polygon fill="#63b8ff" stroke="#63b8ff" points="263.87,-25.13 255.02,-19.31 258.31,-29.38 263.87,-25.13"/>
</a>
</g>
</g>
<!-- Node8 -->
<g id="Node000008" class="node">
<title>Node8</title>
<g id="a_Node000008"><a xlink:href="no__os__circular__buffer_8h.html" target="_top" xlink:title="Circular buffer library header.">
<polygon fill="white" stroke="#666666" points="265,-74 137,-74 137,-55 265,-55 265,-74"/>
<text text-anchor="middle" x="201" y="-62" font-family="Helvetica,sans-Serif" font-size="10.00">no_os_circular_buffer.h</text>
</a>
</g>
</g>
<!-- Node5&#45;&gt;Node8 -->
<g id="edge7_Node000005_Node000008" class="edge">
<title>Node5&#45;&gt;Node8</title>
<g id="a_edge7_Node000005_Node000008"><a xlink:title=" ">
<path fill="none" stroke="#63b8ff" d="M237.73,-109.75C231.46,-102.18 222.21,-91.05 214.57,-81.84"/>
<polygon fill="#63b8ff" stroke="#63b8ff" points="217.21,-79.55 208.13,-74.09 211.83,-84.02 217.21,-79.55"/>
</a>
</g>
</g>
<!-- Node8&#45;&gt;Node7 -->
<g id="edge8_Node000008_Node000007" class="edge">
<title>Node8&#45;&gt;Node7</title>
<g id="a_edge8_Node000008_Node000007"><a xlink:title=" ">
<path fill="none" stroke="#63b8ff" d="M208.6,-54.75C215.16,-47.18 224.82,-36.05 232.81,-26.84"/>
<polygon fill="#63b8ff" stroke="#63b8ff" points="235.63,-28.94 239.55,-19.09 230.35,-24.35 235.63,-28.94"/>
</a>
</g>
</g>
<!-- Node9&#45;&gt;Node5 -->
<g id="edge11_Node000009_Node000005" class="edge">
<title>Node9&#45;&gt;Node5</title>
<g id="a_edge11_Node000009_Node000005"><a xlink:title=" ">
<path fill="none" stroke="#63b8ff" d="M144.28,-164.98C163.67,-156.42 193.81,-143.11 216.07,-133.28"/>
<polygon fill="#63b8ff" stroke="#63b8ff" points="217.64,-136.41 225.37,-129.17 214.81,-130.01 217.64,-136.41"/>
</a>
</g>
</g>
<!-- Node9&#45;&gt;Node7 -->
<g id="edge10_Node000009_Node000007" class="edge">
<title>Node9&#45;&gt;Node7</title>
<g id="a_edge10_Node000009_Node000007"><a xlink:title=" ">
<path fill="none" stroke="#63b8ff" d="M122.22,-164.74C116.08,-143.6 103.76,-89.02 128,-55 146.67,-28.8 182.7,-18.01 210.24,-13.57"/>
<polygon fill="#63b8ff" stroke="#63b8ff" points="210.91,-17.01 220.33,-12.17 209.94,-10.08 210.91,-17.01"/>
</a>
</g>
</g>
<!-- Node10 -->
<g id="Node000010" class="node">
<title>Node10</title>
<g id="a_Node000010"><a xlink:href="no__os__irq_8h.html" target="_top" xlink:title="Header file of IRQ interface.">
<polygon fill="white" stroke="#666666" points="81,-129 9,-129 9,-110 81,-110 81,-129"/>
<text text-anchor="middle" x="45" y="-117" font-family="Helvetica,sans-Serif" font-size="10.00">no_os_irq.h</text>
</a>
</g>
</g>
<!-- Node9&#45;&gt;Node10 -->
<g id="edge12_Node000009_Node000010" class="edge">
<title>Node9&#45;&gt;Node10</title>
<g id="a_edge12_Node000009_Node000010"><a xlink:title=" ">
<path fill="none" stroke="#63b8ff" d="M112.15,-164.98C99.86,-156.84 81.09,-144.41 66.52,-134.76"/>
<polygon fill="#63b8ff" stroke="#63b8ff" points="68.36,-131.78 58.09,-129.17 64.49,-137.61 68.36,-131.78"/>
</a>
</g>
</g>
<!-- Node10&#45;&gt;Node7 -->
<g id="edge13_Node000010_Node000007" class="edge">
<title>Node10&#45;&gt;Node7</title>
<g id="a_edge13_Node000010_Node000007"><a xlink:title=" ">
<path fill="none" stroke="#63b8ff" d="M49.56,-109.69C57.14,-95.94 73.61,-69.46 95,-55 130.05,-31.31 177.87,-20.02 210.45,-14.79"/>
<polygon fill="#63b8ff" stroke="#63b8ff" points="211.09,-18.23 220.46,-13.29 210.05,-11.31 211.09,-18.23"/>
</a>
</g>
</g>
<!-- Node11&#45;&gt;Node4 -->
<g id="edge15_Node000011_Node000004" class="edge">
<title>Node11&#45;&gt;Node4</title>
<g id="a_edge15_Node000011_Node000004"><a xlink:title=" ">
<path fill="none" stroke="#63b8ff" d="M315.03,-219.75C312.64,-212.72 309.21,-202.62 306.23,-193.84"/>
<polygon fill="#63b8ff" stroke="#63b8ff" points="309.45,-192.43 302.92,-184.09 302.82,-194.68 309.45,-192.43"/>
</a>
</g>
</g>
<!-- Node11&#45;&gt;Node5 -->
<g id="edge16_Node000011_Node000005" class="edge">
<title>Node11&#45;&gt;Node5</title>
<g id="a_edge16_Node000011_Node000005"><a xlink:title=" ">
<path fill="none" stroke="#63b8ff" d="M303.08,-219.74C290.89,-211.85 274.08,-199.18 264,-184 255.05,-170.52 250.2,-152.69 247.64,-139.35"/>
<polygon fill="#63b8ff" stroke="#63b8ff" points="251.08,-138.7 246,-129.4 244.18,-139.84 251.08,-138.7"/>
</a>
</g>
</g>
<!-- Node12 -->
<g id="Node000012" class="node">
<title>Node12</title>
<g id="a_Node000012"><a xlink:href="dac__demo_8h.html" target="_top" xlink:title="Header file of DAC Demo Driver.">
<polygon fill="white" stroke="#666666" points="421,-184 345,-184 345,-165 421,-165 421,-184"/>
<text text-anchor="middle" x="383" y="-172" font-family="Helvetica,sans-Serif" font-size="10.00">dac_demo.h</text>
</a>
</g>
</g>
<!-- Node11&#45;&gt;Node12 -->
<g id="edge17_Node000011_Node000012" class="edge">
<title>Node11&#45;&gt;Node12</title>
<g id="a_edge17_Node000011_Node000012"><a xlink:title=" ">
<path fill="none" stroke="#63b8ff" d="M328.44,-219.98C338.15,-212.07 352.82,-200.11 364.5,-190.58"/>
<polygon fill="#63b8ff" stroke="#63b8ff" points="366.83,-193.2 372.37,-184.17 362.4,-187.78 366.83,-193.2"/>
</a>
</g>
</g>
<!-- Node12&#45;&gt;Node5 -->
<g id="edge19_Node000012_Node000005" class="edge">
<title>Node12&#45;&gt;Node5</title>
<g id="a_edge19_Node000012_Node000005"><a xlink:title=" ">
<path fill="none" stroke="#63b8ff" d="M360.83,-164.98C338.23,-156.3 302.94,-142.75 277.25,-132.88"/>
<polygon fill="#63b8ff" stroke="#63b8ff" points="278.17,-129.49 267.58,-129.17 275.66,-136.02 278.17,-129.49"/>
</a>
</g>
</g>
<!-- Node12&#45;&gt;Node7 -->
<g id="edge18_Node000012_Node000007" class="edge">
<title>Node12&#45;&gt;Node7</title>
<g id="a_edge18_Node000012_Node000007"><a xlink:title=" ">
<path fill="none" stroke="#63b8ff" d="M387.2,-164.7C396.65,-143.46 416.9,-88.68 392,-55 367.32,-21.61 318.03,-12.47 283.81,-10.37"/>
<polygon fill="#63b8ff" stroke="#63b8ff" points="283.86,-6.87 273.72,-9.93 283.55,-13.87 283.86,-6.87"/>
</a>
</g>
</g>
<!-- Node14&#45;&gt;Node4 -->
<g id="edge23_Node000014_Node000004" class="edge">
<title>Node14&#45;&gt;Node4</title>
<g id="a_edge23_Node000014_Node000004"><a xlink:title=" ">
<path fill="none" stroke="#63b8ff" d="M400.72,-219.98C381.33,-211.42 351.19,-198.11 328.93,-188.28"/>
<polygon fill="#63b8ff" stroke="#63b8ff" points="330.19,-185.01 319.63,-184.17 327.36,-191.41 330.19,-185.01"/>
</a>
</g>
</g>
<!-- Node14&#45;&gt;Node6 -->
<g id="edge24_Node000014_Node000006" class="edge">
<title>Node14&#45;&gt;Node6</title>
<g id="a_edge24_Node000014_Node000006"><a xlink:title=" ">
<path fill="none" stroke="#63b8ff" d="M424.02,-219.64C429.12,-207.14 436.48,-183.78 430,-165 418.09,-130.51 388.75,-98.85 369.65,-80.9"/>
<polygon fill="#63b8ff" stroke="#63b8ff" points="371.91,-78.22 362.17,-74.07 367.2,-83.4 371.91,-78.22"/>
</a>
</g>
</g>
<!-- Node14&#45;&gt;Node7 -->
<g id="edge22_Node000014_Node000007" class="edge">
<title>Node14&#45;&gt;Node7</title>
<g id="a_edge22_Node000014_Node000007"><a xlink:title=" ">
<path fill="none" stroke="#63b8ff" d="M426.63,-219.88C432.76,-211.32 441.46,-197.54 445,-184 457.33,-136.88 435.68,-79.63 410,-55 375.99,-22.38 320.48,-13.17 283.84,-10.84"/>
<polygon fill="#63b8ff" stroke="#63b8ff" points="283.75,-7.34 273.59,-10.34 283.4,-14.33 283.75,-7.34"/>
</a>
</g>
</g>
</g>
</svg>

<g id="navigator" transform="translate(0 0)" fill="#404254">
  <rect fill="#f2f5e9" fill-opacity="0.5" stroke="#606060" stroke-width=".5" x="0" y="0" width="60" height="60"/>
  <use id="zoomplus" xlink:href="#zoomPlus" x="17" y="9" onmousedown="handleZoom(evt,'in')"/>
  <use id="zoomminus" xlink:href="#zoomMin" x="42" y="9" onmousedown="handleZoom(evt,'out')"/>
  <use id="reset" xlink:href="#resetDef" x="30" y="36" onmousedown="handleReset()"/>
   <use id="arrowup" xlink:href="#arrowUp" x="0" y="0" onmousedown="handlePan(0,-1)"/>
  <use id="arrowright" xlink:href="#arrowRight" x="0" y="0" onmousedown="handlePan(1,0)"/>
  <use id="arrowdown" xlink:href="#arrowDown" x="0" y="0" onmousedown="handlePan(0,1)"/>
  <use id="arrowleft" xlink:href="#arrowLeft" x="0" y="0" onmousedown="handlePan(-1,0)"/>
</g>
<svg viewBox="0 0 15 15" width="100%" height="30px" preserveAspectRatio="xMaxYMin meet">
 <g id="arrow_out" transform="scale(0.3 0.3)">
  <a xlink:href="iio__sw__trigger__example_8c__incl_org.svg" target="_base">
   <rect id="button" ry="5" rx="5" y="6" x="6" height="38" width="38"
        fill="#f2f5e9" fill-opacity="0.5" stroke="#606060" stroke-width="1.0"/>
   <path id="arrow"
     d="M 11.500037,31.436501 C 11.940474,20.09759 22.043105,11.32322 32.158766,21.979434 L 37.068811,17.246167 C 37.068811,17.246167 37.088388,32 37.088388,32 L 22.160133,31.978069 C 22.160133,31.978069 26.997745,27.140456 26.997745,27.140456 C 18.528582,18.264221 13.291696,25.230495 11.500037,31.436501 z"
     style="fill:#404040;"/>
  </a>
 </g>
</svg>

<style type='text/css'>
<![CDATA[
[data-mouse-over-selected='false'] { opacity: 0.7; }
[data-mouse-over-selected='true']  { opacity: 1.0; }
]]>
</style>
<script type="application/ecmascript"><![CDATA[
document.addEventListener('DOMContentLoaded', (event) => {
  highlightEdges();
  highlightAdjacentNodes();
});
]]></script>
</svg>
