<?xml version="1.0" encoding="UTF-8" standalone="no"?>
<!DOCTYPE svg PUBLIC "-//W3C//DTD SVG 1.1//EN"
 "http://www.w3.org/Graphics/SVG/1.1/DTD/svg11.dtd">
<!-- Generated by graphviz version 2.43.0 (0)
 -->
<!-- Title: drivers/temperature/lm75/iio_lm75.h Pages: 1 -->
<svg width="373pt" height="203pt"
 viewBox="0.00 0.00 373.23 203.00" xmlns="http://www.w3.org/2000/svg" xmlns:xlink="http://www.w3.org/1999/xlink">
<g id="graph0" class="graph" transform="scale(1 1) rotate(0) translate(4 199)">
<title>drivers/temperature/lm75/iio_lm75.h</title>
<!-- Node1 -->
<g id="Node000001" class="node">
<title>Node1</title>
<g id="a_Node000001"><a xlink:title="IIO Header file of LM75 Driver.">
<polygon fill="#999999" stroke="#666666" points="226.5,-195 112.5,-195 112.5,-165 226.5,-165 226.5,-195"/>
<text text-anchor="start" x="120.5" y="-183" font-family="Helvetica,sans-Serif" font-size="10.00">drivers/temperature</text>
<text text-anchor="middle" x="169.5" y="-172" font-family="Helvetica,sans-Serif" font-size="10.00">/lm75/iio_lm75.h</text>
</a>
</g>
</g>
<!-- Node2 -->
<g id="Node000002" class="node">
<title>Node2</title>
<g id="a_Node000002"><a xlink:href="lm75_8h.html" target="_top" xlink:title="Header file of LM75 Driver.">
<polygon fill="white" stroke="#666666" points="155.5,-129 105.5,-129 105.5,-110 155.5,-110 155.5,-129"/>
<text text-anchor="middle" x="130.5" y="-117" font-family="Helvetica,sans-Serif" font-size="10.00">lm75.h</text>
</a>
</g>
</g>
<!-- Node1&#45;&gt;Node2 -->
<g id="edge1_Node000001_Node000002" class="edge">
<title>Node1&#45;&gt;Node2</title>
<g id="a_edge1_Node000001_Node000002"><a xlink:title=" ">
<path fill="none" stroke="#63b8ff" d="M160.06,-164.84C154.63,-156.69 147.77,-146.4 142.02,-137.78"/>
<polygon fill="#63b8ff" stroke="#63b8ff" points="144.8,-135.65 136.34,-129.27 138.98,-139.53 144.8,-135.65"/>
</a>
</g>
</g>
<!-- Node8 -->
<g id="Node000008" class="node">
<title>Node8</title>
<g id="a_Node000008"><a xlink:href="iio__types_8h.html" target="_top" xlink:title="Header file for iio_types.">
<polygon fill="white" stroke="#666666" points="282.5,-129 212.5,-129 212.5,-110 282.5,-110 282.5,-129"/>
<text text-anchor="middle" x="247.5" y="-117" font-family="Helvetica,sans-Serif" font-size="10.00">iio_types.h</text>
</a>
</g>
</g>
<!-- Node1&#45;&gt;Node8 -->
<g id="edge8_Node000001_Node000008" class="edge">
<title>Node1&#45;&gt;Node8</title>
<g id="a_edge8_Node000001_Node000008"><a xlink:title=" ">
<path fill="none" stroke="#63b8ff" d="M188.38,-164.84C200.28,-155.91 215.62,-144.41 227.7,-135.35"/>
<polygon fill="#63b8ff" stroke="#63b8ff" points="229.91,-138.07 235.81,-129.27 225.71,-132.47 229.91,-138.07"/>
</a>
</g>
</g>
<!-- Node3 -->
<g id="Node000003" class="node">
<title>Node3</title>
<g id="a_Node000003"><a xlink:href="no__os__util_8h.html" target="_top" xlink:title="Header file of utility functions.">
<polygon fill="white" stroke="#666666" points="75,-74 0,-74 0,-55 75,-55 75,-74"/>
<text text-anchor="middle" x="37.5" y="-62" font-family="Helvetica,sans-Serif" font-size="10.00">no_os_util.h</text>
</a>
</g>
</g>
<!-- Node2&#45;&gt;Node3 -->
<g id="edge2_Node000002_Node000003" class="edge">
<title>Node2&#45;&gt;Node3</title>
<g id="a_edge2_Node000002_Node000003"><a xlink:title=" ">
<path fill="none" stroke="#63b8ff" d="M115.56,-109.98C101,-101.69 78.63,-88.94 61.57,-79.22"/>
<polygon fill="#63b8ff" stroke="#63b8ff" points="63.14,-76.08 52.71,-74.17 59.67,-82.16 63.14,-76.08"/>
</a>
</g>
</g>
<!-- Node7 -->
<g id="Node000007" class="node">
<title>Node7</title>
<g id="a_Node000007"><a xlink:href="no__os__i2c_8h.html" target="_top" xlink:title="Header file of I2C Interface.">
<polygon fill="white" stroke="#666666" points="167.5,-74 93.5,-74 93.5,-55 167.5,-55 167.5,-74"/>
<text text-anchor="middle" x="130.5" y="-62" font-family="Helvetica,sans-Serif" font-size="10.00">no_os_i2c.h</text>
</a>
</g>
</g>
<!-- Node2&#45;&gt;Node7 -->
<g id="edge6_Node000002_Node000007" class="edge">
<title>Node2&#45;&gt;Node7</title>
<g id="a_edge6_Node000002_Node000007"><a xlink:title=" ">
<path fill="none" stroke="#63b8ff" d="M130.5,-109.75C130.5,-102.8 130.5,-92.85 130.5,-84.13"/>
<polygon fill="#63b8ff" stroke="#63b8ff" points="134,-84.09 130.5,-74.09 127,-84.09 134,-84.09"/>
</a>
</g>
</g>
<!-- Node4 -->
<g id="Node000004" class="node">
<title>Node4</title>
<g id="a_Node000004"><a xlink:title=" ">
<polygon fill="#e0e0e0" stroke="#999999" points="285,-19 232,-19 232,0 285,0 285,-19"/>
<text text-anchor="middle" x="258.5" y="-7" font-family="Helvetica,sans-Serif" font-size="10.00">stdint.h</text>
</a>
</g>
</g>
<!-- Node3&#45;&gt;Node4 -->
<g id="edge3_Node000003_Node000004" class="edge">
<title>Node3&#45;&gt;Node4</title>
<g id="a_edge3_Node000003_Node000004"><a xlink:title=" ">
<path fill="none" stroke="#63b8ff" d="M73.01,-54.98C113.84,-45.19 180.54,-29.2 221.84,-19.29"/>
<polygon fill="#63b8ff" stroke="#63b8ff" points="222.86,-22.65 231.77,-16.91 221.23,-15.84 222.86,-22.65"/>
</a>
</g>
</g>
<!-- Node5 -->
<g id="Node000005" class="node">
<title>Node5</title>
<g id="a_Node000005"><a xlink:title=" ">
<polygon fill="#e0e0e0" stroke="#999999" points="64,-19 11,-19 11,0 64,0 64,-19"/>
<text text-anchor="middle" x="37.5" y="-7" font-family="Helvetica,sans-Serif" font-size="10.00">stdlib.h</text>
</a>
</g>
</g>
<!-- Node3&#45;&gt;Node5 -->
<g id="edge4_Node000003_Node000005" class="edge">
<title>Node3&#45;&gt;Node5</title>
<g id="a_edge4_Node000003_Node000005"><a xlink:title=" ">
<path fill="none" stroke="#63b8ff" d="M37.5,-54.75C37.5,-47.8 37.5,-37.85 37.5,-29.13"/>
<polygon fill="#63b8ff" stroke="#63b8ff" points="41,-29.09 37.5,-19.09 34,-29.09 41,-29.09"/>
</a>
</g>
</g>
<!-- Node6 -->
<g id="Node000006" class="node">
<title>Node6</title>
<g id="a_Node000006"><a xlink:title=" ">
<polygon fill="#e0e0e0" stroke="#999999" points="185.5,-19 123.5,-19 123.5,0 185.5,0 185.5,-19"/>
<text text-anchor="middle" x="154.5" y="-7" font-family="Helvetica,sans-Serif" font-size="10.00">stdbool.h</text>
</a>
</g>
</g>
<!-- Node3&#45;&gt;Node6 -->
<g id="edge5_Node000003_Node000006" class="edge">
<title>Node3&#45;&gt;Node6</title>
<g id="a_edge5_Node000003_Node000006"><a xlink:title=" ">
<path fill="none" stroke="#63b8ff" d="M56.3,-54.98C75.12,-46.46 104.32,-33.23 126,-23.41"/>
<polygon fill="#63b8ff" stroke="#63b8ff" points="127.7,-26.48 135.36,-19.17 124.81,-20.11 127.7,-26.48"/>
</a>
</g>
</g>
<!-- Node7&#45;&gt;Node4 -->
<g id="edge7_Node000007_Node000004" class="edge">
<title>Node7&#45;&gt;Node4</title>
<g id="a_edge7_Node000007_Node000004"><a xlink:title=" ">
<path fill="none" stroke="#63b8ff" d="M151.07,-54.98C171.93,-46.34 204.47,-32.87 228.27,-23.02"/>
<polygon fill="#63b8ff" stroke="#63b8ff" points="229.66,-26.23 237.56,-19.17 226.98,-19.76 229.66,-26.23"/>
</a>
</g>
</g>
<!-- Node8&#45;&gt;Node4 -->
<g id="edge10_Node000008_Node000004" class="edge">
<title>Node8&#45;&gt;Node4</title>
<g id="a_edge10_Node000008_Node000004"><a xlink:title=" ">
<path fill="none" stroke="#63b8ff" d="M282.56,-115.01C308.86,-110.34 343.17,-99.44 360.5,-74 379.92,-45.47 331.64,-27.3 295.05,-18.01"/>
<polygon fill="#63b8ff" stroke="#63b8ff" points="295.65,-14.55 285.11,-15.62 294.01,-21.36 295.65,-14.55"/>
</a>
</g>
</g>
<!-- Node8&#45;&gt;Node6 -->
<g id="edge9_Node000008_Node000006" class="edge">
<title>Node8&#45;&gt;Node6</title>
<g id="a_edge9_Node000008_Node000006"><a xlink:title=" ">
<path fill="none" stroke="#63b8ff" d="M239.89,-109.66C224.28,-91.54 188.44,-49.91 168.51,-26.77"/>
<polygon fill="#63b8ff" stroke="#63b8ff" points="171.13,-24.45 161.96,-19.16 165.83,-29.02 171.13,-24.45"/>
</a>
</g>
</g>
<!-- Node9 -->
<g id="Node000009" class="node">
<title>Node9</title>
<g id="a_Node000009"><a xlink:href="no__os__circular__buffer_8h.html" target="_top" xlink:title="Circular buffer library header.">
<polygon fill="white" stroke="#666666" points="351.5,-74 223.5,-74 223.5,-55 351.5,-55 351.5,-74"/>
<text text-anchor="middle" x="287.5" y="-62" font-family="Helvetica,sans-Serif" font-size="10.00">no_os_circular_buffer.h</text>
</a>
</g>
</g>
<!-- Node8&#45;&gt;Node9 -->
<g id="edge11_Node000008_Node000009" class="edge">
<title>Node8&#45;&gt;Node9</title>
<g id="a_edge11_Node000008_Node000009"><a xlink:title=" ">
<path fill="none" stroke="#63b8ff" d="M254.11,-109.75C259.76,-102.26 268.04,-91.28 274.95,-82.13"/>
<polygon fill="#63b8ff" stroke="#63b8ff" points="277.79,-84.18 281.02,-74.09 272.2,-79.96 277.79,-84.18"/>
</a>
</g>
</g>
<!-- Node9&#45;&gt;Node4 -->
<g id="edge12_Node000009_Node000004" class="edge">
<title>Node9&#45;&gt;Node4</title>
<g id="a_edge12_Node000009_Node000004"><a xlink:title=" ">
<path fill="none" stroke="#63b8ff" d="M282.71,-54.75C278.74,-47.49 272.97,-36.95 268.07,-27.98"/>
<polygon fill="#63b8ff" stroke="#63b8ff" points="271.07,-26.18 263.2,-19.09 264.93,-29.54 271.07,-26.18"/>
</a>
</g>
</g>
</g>
</svg>
