<?xml version="1.0" encoding="UTF-8" standalone="no"?>
<!DOCTYPE svg PUBLIC "-//W3C//DTD SVG 1.1//EN"
 "http://www.w3.org/Graphics/SVG/1.1/DTD/svg11.dtd">
<!-- Generated by graphviz version 2.43.0 (0)
 -->
<!-- Title: drivers/adc&#45;dac/ad5592r/iio_ad559xr.c Pages: 1 -->
<svg width="1014pt" height="313pt"
 viewBox="0.00 0.00 1014.16 313.00" xmlns="http://www.w3.org/2000/svg" xmlns:xlink="http://www.w3.org/1999/xlink">
<g id="graph0" class="graph" transform="scale(1 1) rotate(0) translate(4 309)">
<title>drivers/adc&#45;dac/ad5592r/iio_ad559xr.c</title>
<!-- Node1 -->
<g id="Node000001" class="node">
<title>Node1</title>
<g id="a_Node000001"><a xlink:title="Implementation of AD5592R/AD5593R IIO driver.">
<polygon fill="#999999" stroke="#666666" points="466.5,-305 332.5,-305 332.5,-275 466.5,-275 466.5,-305"/>
<text text-anchor="start" x="340.5" y="-293" font-family="Helvetica,sans-Serif" font-size="10.00">drivers/adc&#45;dac/ad5592r</text>
<text text-anchor="middle" x="399.5" y="-282" font-family="Helvetica,sans-Serif" font-size="10.00">/iio_ad559xr.c</text>
</a>
</g>
</g>
<!-- Node2 -->
<g id="Node000002" class="node">
<title>Node2</title>
<g id="a_Node000002"><a xlink:href="errno_8h.html" target="_top" xlink:title="Error macro definition for ARM Compiler.">
<polygon fill="white" stroke="#666666" points="206,-239 155,-239 155,-220 206,-220 206,-239"/>
<text text-anchor="middle" x="180.5" y="-227" font-family="Helvetica,sans-Serif" font-size="10.00">errno.h</text>
</a>
</g>
</g>
<!-- Node1&#45;&gt;Node2 -->
<g id="edge1_Node000001_Node000002" class="edge">
<title>Node1&#45;&gt;Node2</title>
<g id="a_edge1_Node000001_Node000002"><a xlink:title=" ">
<path fill="none" stroke="#63b8ff" d="M347.04,-274.99C306.5,-264.16 251.49,-249.46 215.99,-239.98"/>
<polygon fill="#63b8ff" stroke="#63b8ff" points="216.64,-236.53 206.08,-237.33 214.84,-243.29 216.64,-236.53"/>
</a>
</g>
</g>
<!-- Node3 -->
<g id="Node000003" class="node">
<title>Node3</title>
<g id="a_Node000003"><a xlink:title=" ">
<polygon fill="#e0e0e0" stroke="#999999" points="280.5,-239 224.5,-239 224.5,-220 280.5,-220 280.5,-239"/>
<text text-anchor="middle" x="252.5" y="-227" font-family="Helvetica,sans-Serif" font-size="10.00">assert.h</text>
</a>
</g>
</g>
<!-- Node1&#45;&gt;Node3 -->
<g id="edge2_Node000001_Node000003" class="edge">
<title>Node1&#45;&gt;Node3</title>
<g id="a_edge2_Node000001_Node000003"><a xlink:title=" ">
<path fill="none" stroke="#63b8ff" d="M364.29,-274.99C339.76,-265.23 307.35,-252.33 283.74,-242.93"/>
<polygon fill="#63b8ff" stroke="#63b8ff" points="284.79,-239.58 274.21,-239.14 282.21,-246.09 284.79,-239.58"/>
</a>
</g>
</g>
<!-- Node4 -->
<g id="Node000004" class="node">
<title>Node4</title>
<g id="a_Node000004"><a xlink:title=" ">
<polygon fill="#e0e0e0" stroke="#999999" points="352,-239 299,-239 299,-220 352,-220 352,-239"/>
<text text-anchor="middle" x="325.5" y="-227" font-family="Helvetica,sans-Serif" font-size="10.00">string.h</text>
</a>
</g>
</g>
<!-- Node1&#45;&gt;Node4 -->
<g id="edge3_Node000001_Node000004" class="edge">
<title>Node1&#45;&gt;Node4</title>
<g id="a_edge3_Node000001_Node000004"><a xlink:title=" ">
<path fill="none" stroke="#63b8ff" d="M381.59,-274.84C370.41,-266 356.02,-254.63 344.62,-245.62"/>
<polygon fill="#63b8ff" stroke="#63b8ff" points="346.6,-242.72 336.59,-239.27 342.26,-248.21 346.6,-242.72"/>
</a>
</g>
</g>
<!-- Node5 -->
<g id="Node000005" class="node">
<title>Node5</title>
<g id="a_Node000005"><a xlink:href="no__os__alloc_8h.html" target="_top" xlink:title=" ">
<polygon fill="white" stroke="#666666" points="83,-74 0,-74 0,-55 83,-55 83,-74"/>
<text text-anchor="middle" x="41.5" y="-62" font-family="Helvetica,sans-Serif" font-size="10.00">no_os_alloc.h</text>
</a>
</g>
</g>
<!-- Node1&#45;&gt;Node5 -->
<g id="edge4_Node000001_Node000005" class="edge">
<title>Node1&#45;&gt;Node5</title>
<g id="a_edge4_Node000001_Node000005"><a xlink:title=" ">
<path fill="none" stroke="#63b8ff" d="M394.5,-274.93C388.47,-259.71 377.06,-235.54 360.5,-220 277.92,-142.49 149.19,-96.57 83.36,-76.89"/>
<polygon fill="#63b8ff" stroke="#63b8ff" points="84.31,-73.52 73.73,-74.06 82.34,-80.23 84.31,-73.52"/>
</a>
</g>
</g>
<!-- Node8 -->
<g id="Node000008" class="node">
<title>Node8</title>
<g id="a_Node000008"><a xlink:href="no__os__list_8h.html" target="_top" xlink:title="List library header.">
<polygon fill="white" stroke="#666666" points="345.5,-74 271.5,-74 271.5,-55 345.5,-55 345.5,-74"/>
<text text-anchor="middle" x="308.5" y="-62" font-family="Helvetica,sans-Serif" font-size="10.00">no_os_list.h</text>
</a>
</g>
</g>
<!-- Node1&#45;&gt;Node8 -->
<g id="edge7_Node000001_Node000008" class="edge">
<title>Node1&#45;&gt;Node8</title>
<g id="a_edge7_Node000001_Node000008"><a xlink:title=" ">
<path fill="none" stroke="#63b8ff" d="M403.63,-274.61C412.02,-242.29 427.56,-162.66 394.5,-110 384.94,-94.77 368.34,-84.49 352.27,-77.69"/>
<polygon fill="#63b8ff" stroke="#63b8ff" points="353.51,-74.42 342.92,-74.08 350.99,-80.95 353.51,-74.42"/>
</a>
</g>
</g>
<!-- Node11 -->
<g id="Node000011" class="node">
<title>Node11</title>
<g id="a_Node000011"><a xlink:href="iio__ad559xr_8h.html" target="_top" xlink:title="Header file implementation of AD5592R/AD5593R IIO driver.">
<polygon fill="white" stroke="#666666" points="614.5,-239 532.5,-239 532.5,-220 614.5,-220 614.5,-239"/>
<text text-anchor="middle" x="573.5" y="-227" font-family="Helvetica,sans-Serif" font-size="10.00">iio_ad559xr.h</text>
</a>
</g>
</g>
<!-- Node1&#45;&gt;Node11 -->
<g id="edge10_Node000001_Node000011" class="edge">
<title>Node1&#45;&gt;Node11</title>
<g id="a_edge10_Node000001_Node000011"><a xlink:title=" ">
<path fill="none" stroke="#63b8ff" d="M441.18,-274.99C470.82,-265.02 510.19,-251.78 538.27,-242.35"/>
<polygon fill="#63b8ff" stroke="#63b8ff" points="539.7,-245.56 548.06,-239.05 537.46,-238.92 539.7,-245.56"/>
</a>
</g>
</g>
<!-- Node14 -->
<g id="Node000014" class="node">
<title>Node14</title>
<g id="a_Node000014"><a xlink:href="ad5592r_8h.html" target="_top" xlink:title="Header file of AD5592R driver.">
<polygon fill="white" stroke="#666666" points="607,-184 542,-184 542,-165 607,-165 607,-184"/>
<text text-anchor="middle" x="574.5" y="-172" font-family="Helvetica,sans-Serif" font-size="10.00">ad5592r.h</text>
</a>
</g>
</g>
<!-- Node1&#45;&gt;Node14 -->
<g id="edge37_Node000001_Node000014" class="edge">
<title>Node1&#45;&gt;Node14</title>
<g id="a_edge37_Node000001_Node000014"><a xlink:title=" ">
<path fill="none" stroke="#63b8ff" d="M421.31,-274.85C454.81,-253.13 518.58,-211.77 552.31,-189.89"/>
<polygon fill="#63b8ff" stroke="#63b8ff" points="554.49,-192.65 560.98,-184.27 550.68,-186.78 554.49,-192.65"/>
</a>
</g>
</g>
<!-- Node21 -->
<g id="Node000021" class="node">
<title>Node21</title>
<g id="a_Node000021"><a xlink:href="ad5593r_8h.html" target="_top" xlink:title="Header file of AD5593R driver.">
<polygon fill="white" stroke="#666666" points="524,-184 459,-184 459,-165 524,-165 524,-184"/>
<text text-anchor="middle" x="491.5" y="-172" font-family="Helvetica,sans-Serif" font-size="10.00">ad5593r.h</text>
</a>
</g>
</g>
<!-- Node1&#45;&gt;Node21 -->
<g id="edge38_Node000001_Node000021" class="edge">
<title>Node1&#45;&gt;Node21</title>
<g id="a_edge38_Node000001_Node000021"><a xlink:title=" ">
<path fill="none" stroke="#63b8ff" d="M411.15,-274.63C428.23,-253.56 459.97,-214.4 478.02,-192.13"/>
<polygon fill="#63b8ff" stroke="#63b8ff" points="480.85,-194.2 484.42,-184.23 475.41,-189.79 480.85,-194.2"/>
</a>
</g>
</g>
<!-- Node6 -->
<g id="Node000006" class="node">
<title>Node6</title>
<g id="a_Node000006"><a xlink:title=" ">
<polygon fill="#e0e0e0" stroke="#999999" points="66.5,-19 16.5,-19 16.5,0 66.5,0 66.5,-19"/>
<text text-anchor="middle" x="41.5" y="-7" font-family="Helvetica,sans-Serif" font-size="10.00">stdio.h</text>
</a>
</g>
</g>
<!-- Node5&#45;&gt;Node6 -->
<g id="edge5_Node000005_Node000006" class="edge">
<title>Node5&#45;&gt;Node6</title>
<g id="a_edge5_Node000005_Node000006"><a xlink:title=" ">
<path fill="none" stroke="#63b8ff" d="M41.5,-54.75C41.5,-47.8 41.5,-37.85 41.5,-29.13"/>
<polygon fill="#63b8ff" stroke="#63b8ff" points="45,-29.09 41.5,-19.09 38,-29.09 45,-29.09"/>
</a>
</g>
</g>
<!-- Node7 -->
<g id="Node000007" class="node">
<title>Node7</title>
<g id="a_Node000007"><a xlink:title=" ">
<polygon fill="#e0e0e0" stroke="#999999" points="152,-19 99,-19 99,0 152,0 152,-19"/>
<text text-anchor="middle" x="125.5" y="-7" font-family="Helvetica,sans-Serif" font-size="10.00">stdlib.h</text>
</a>
</g>
</g>
<!-- Node5&#45;&gt;Node7 -->
<g id="edge6_Node000005_Node000007" class="edge">
<title>Node5&#45;&gt;Node7</title>
<g id="a_edge6_Node000005_Node000007"><a xlink:title=" ">
<path fill="none" stroke="#63b8ff" d="M55,-54.98C67.9,-46.84 87.6,-34.41 102.9,-24.76"/>
<polygon fill="#63b8ff" stroke="#63b8ff" points="105.17,-27.47 111.76,-19.17 101.43,-21.55 105.17,-27.47"/>
</a>
</g>
</g>
<!-- Node9 -->
<g id="Node000009" class="node">
<title>Node9</title>
<g id="a_Node000009"><a xlink:title=" ">
<polygon fill="#e0e0e0" stroke="#999999" points="682,-19 629,-19 629,0 682,0 682,-19"/>
<text text-anchor="middle" x="655.5" y="-7" font-family="Helvetica,sans-Serif" font-size="10.00">stdint.h</text>
</a>
</g>
</g>
<!-- Node8&#45;&gt;Node9 -->
<g id="edge8_Node000008_Node000009" class="edge">
<title>Node8&#45;&gt;Node9</title>
<g id="a_edge8_Node000008_Node000009"><a xlink:title=" ">
<path fill="none" stroke="#63b8ff" d="M345.64,-56.52C348.63,-55.99 351.62,-55.48 354.5,-55 449.67,-39.18 562.24,-23.28 618.95,-15.47"/>
<polygon fill="#63b8ff" stroke="#63b8ff" points="619.44,-18.94 628.88,-14.11 618.49,-12 619.44,-18.94"/>
</a>
</g>
</g>
<!-- Node10 -->
<g id="Node000010" class="node">
<title>Node10</title>
<g id="a_Node000010"><a xlink:title=" ">
<polygon fill="#e0e0e0" stroke="#999999" points="260.5,-19 198.5,-19 198.5,0 260.5,0 260.5,-19"/>
<text text-anchor="middle" x="229.5" y="-7" font-family="Helvetica,sans-Serif" font-size="10.00">stdbool.h</text>
</a>
</g>
</g>
<!-- Node8&#45;&gt;Node10 -->
<g id="edge9_Node000008_Node000010" class="edge">
<title>Node8&#45;&gt;Node10</title>
<g id="a_edge9_Node000008_Node000010"><a xlink:title=" ">
<path fill="none" stroke="#63b8ff" d="M295.81,-54.98C283.67,-46.84 265.14,-34.41 250.75,-24.76"/>
<polygon fill="#63b8ff" stroke="#63b8ff" points="252.68,-21.84 242.42,-19.17 248.78,-27.65 252.68,-21.84"/>
</a>
</g>
</g>
<!-- Node12 -->
<g id="Node000012" class="node">
<title>Node12</title>
<g id="a_Node000012"><a xlink:href="iio__types_8h.html" target="_top" xlink:title="Header file for iio_types.">
<polygon fill="white" stroke="#666666" points="947.5,-129 877.5,-129 877.5,-110 947.5,-110 947.5,-129"/>
<text text-anchor="middle" x="912.5" y="-117" font-family="Helvetica,sans-Serif" font-size="10.00">iio_types.h</text>
</a>
</g>
</g>
<!-- Node11&#45;&gt;Node12 -->
<g id="edge11_Node000011_Node000012" class="edge">
<title>Node11&#45;&gt;Node12</title>
<g id="a_edge11_Node000011_Node000012"><a xlink:title=" ">
<path fill="none" stroke="#63b8ff" d="M600.38,-219.94C660.71,-200.72 806.95,-154.13 875.67,-132.24"/>
<polygon fill="#63b8ff" stroke="#63b8ff" points="877.15,-135.44 885.61,-129.07 875.02,-128.77 877.15,-135.44"/>
</a>
</g>
</g>
<!-- Node11&#45;&gt;Node14 -->
<g id="edge16_Node000011_Node000014" class="edge">
<title>Node11&#45;&gt;Node14</title>
<g id="a_edge16_Node000011_Node000014"><a xlink:title=" ">
<path fill="none" stroke="#63b8ff" d="M573.67,-219.75C573.8,-212.8 573.98,-202.85 574.15,-194.13"/>
<polygon fill="#63b8ff" stroke="#63b8ff" points="577.65,-194.15 574.34,-184.09 570.65,-194.02 577.65,-194.15"/>
</a>
</g>
</g>
<!-- Node11&#45;&gt;Node21 -->
<g id="edge34_Node000011_Node000021" class="edge">
<title>Node11&#45;&gt;Node21</title>
<g id="a_edge34_Node000011_Node000021"><a xlink:title=" ">
<path fill="none" stroke="#63b8ff" d="M560.33,-219.98C547.73,-211.84 528.5,-199.41 513.56,-189.76"/>
<polygon fill="#63b8ff" stroke="#63b8ff" points="515.21,-186.66 504.91,-184.17 511.41,-192.54 515.21,-186.66"/>
</a>
</g>
</g>
<!-- Node12&#45;&gt;Node9 -->
<g id="edge13_Node000012_Node000009" class="edge">
<title>Node12&#45;&gt;Node9</title>
<g id="a_edge13_Node000012_Node000009"><a xlink:title=" ">
<path fill="none" stroke="#63b8ff" d="M942.78,-109.96C975.9,-99.16 1021.65,-79.05 1000.5,-55 980.35,-32.08 776.99,-17.62 692.25,-12.54"/>
<polygon fill="#63b8ff" stroke="#63b8ff" points="692.25,-9.03 682.06,-11.94 691.83,-16.02 692.25,-9.03"/>
</a>
</g>
</g>
<!-- Node12&#45;&gt;Node10 -->
<g id="edge12_Node000012_Node000010" class="edge">
<title>Node12&#45;&gt;Node10</title>
<g id="a_edge12_Node000012_Node000010"><a xlink:title=" ">
<path fill="none" stroke="#63b8ff" d="M877.19,-118.08C749.16,-116.3 314.07,-107.78 262.5,-74 246.95,-63.81 238.3,-43.83 233.8,-28.99"/>
<polygon fill="#63b8ff" stroke="#63b8ff" points="237.18,-28.07 231.22,-19.31 230.41,-29.87 237.18,-28.07"/>
</a>
</g>
</g>
<!-- Node13 -->
<g id="Node000013" class="node">
<title>Node13</title>
<g id="a_Node000013"><a xlink:href="no__os__circular__buffer_8h.html" target="_top" xlink:title="Circular buffer library header.">
<polygon fill="white" stroke="#666666" points="991.5,-74 863.5,-74 863.5,-55 991.5,-55 991.5,-74"/>
<text text-anchor="middle" x="927.5" y="-62" font-family="Helvetica,sans-Serif" font-size="10.00">no_os_circular_buffer.h</text>
</a>
</g>
</g>
<!-- Node12&#45;&gt;Node13 -->
<g id="edge14_Node000012_Node000013" class="edge">
<title>Node12&#45;&gt;Node13</title>
<g id="a_edge14_Node000012_Node000013"><a xlink:title=" ">
<path fill="none" stroke="#63b8ff" d="M914.98,-109.75C916.96,-102.72 919.82,-92.62 922.31,-83.84"/>
<polygon fill="#63b8ff" stroke="#63b8ff" points="925.71,-84.66 925.07,-74.09 918.98,-82.76 925.71,-84.66"/>
</a>
</g>
</g>
<!-- Node13&#45;&gt;Node9 -->
<g id="edge15_Node000013_Node000009" class="edge">
<title>Node13&#45;&gt;Node9</title>
<g id="a_edge15_Node000013_Node000009"><a xlink:title=" ">
<path fill="none" stroke="#63b8ff" d="M883.8,-54.98C830.66,-44.63 741.94,-27.34 692.19,-17.65"/>
<polygon fill="#63b8ff" stroke="#63b8ff" points="692.68,-14.18 682.19,-15.7 691.34,-21.05 692.68,-14.18"/>
</a>
</g>
</g>
<!-- Node14&#45;&gt;Node9 -->
<g id="edge17_Node000014_Node000009" class="edge">
<title>Node14&#45;&gt;Node9</title>
<g id="a_edge17_Node000014_Node000009"><a xlink:title=" ">
<path fill="none" stroke="#63b8ff" d="M607.18,-172.32C665.98,-169.45 785.9,-159.85 811.5,-129 832.5,-103.69 831.31,-81.25 811.5,-55 797.15,-35.99 733.65,-22.67 692.22,-15.82"/>
<polygon fill="#63b8ff" stroke="#63b8ff" points="692.63,-12.35 682.2,-14.22 691.53,-19.26 692.63,-12.35"/>
</a>
</g>
</g>
<!-- Node15 -->
<g id="Node000015" class="node">
<title>Node15</title>
<g id="a_Node000015"><a xlink:href="ad5592r-base_8h.html" target="_top" xlink:title="Header file of AD5592R Base Driver.">
<polygon fill="white" stroke="#666666" points="538.5,-129 446.5,-129 446.5,-110 538.5,-110 538.5,-129"/>
<text text-anchor="middle" x="492.5" y="-117" font-family="Helvetica,sans-Serif" font-size="10.00">ad5592r&#45;base.h</text>
</a>
</g>
</g>
<!-- Node14&#45;&gt;Node15 -->
<g id="edge18_Node000014_Node000015" class="edge">
<title>Node14&#45;&gt;Node15</title>
<g id="a_edge18_Node000014_Node000015"><a xlink:title=" ">
<path fill="none" stroke="#63b8ff" d="M561.33,-164.98C548.73,-156.84 529.5,-144.41 514.56,-134.76"/>
<polygon fill="#63b8ff" stroke="#63b8ff" points="516.21,-131.66 505.91,-129.17 512.41,-137.54 516.21,-131.66"/>
</a>
</g>
</g>
<!-- Node15&#45;&gt;Node5 -->
<g id="edge32_Node000015_Node000005" class="edge">
<title>Node15&#45;&gt;Node5</title>
<g id="a_edge32_Node000015_Node000005"><a xlink:title=" ">
<path fill="none" stroke="#63b8ff" d="M446.21,-113.87C372.37,-106.35 223.38,-90.64 97.5,-74 96.04,-73.81 94.55,-73.61 93.06,-73.4"/>
<polygon fill="#63b8ff" stroke="#63b8ff" points="93.46,-69.92 83.06,-71.99 92.48,-76.85 93.46,-69.92"/>
</a>
</g>
</g>
<!-- Node15&#45;&gt;Node9 -->
<g id="edge19_Node000015_Node000009" class="edge">
<title>Node15&#45;&gt;Node9</title>
<g id="a_edge19_Node000015_Node000009"><a xlink:title=" ">
<path fill="none" stroke="#63b8ff" d="M538.52,-115.4C570.06,-110.89 610.71,-100.02 636.5,-74 648.26,-62.13 652.79,-43.3 654.51,-29.22"/>
<polygon fill="#63b8ff" stroke="#63b8ff" points="658.01,-29.44 655.37,-19.17 651.03,-28.84 658.01,-29.44"/>
</a>
</g>
</g>
<!-- Node15&#45;&gt;Node10 -->
<g id="edge33_Node000015_Node000010" class="edge">
<title>Node15&#45;&gt;Node10</title>
<g id="a_edge33_Node000015_Node000010"><a xlink:title=" ">
<path fill="none" stroke="#63b8ff" d="M446.41,-114.46C351.22,-105.89 140.87,-85.72 130.5,-74 108.98,-49.68 152.41,-31.07 188.4,-20.46"/>
<polygon fill="#63b8ff" stroke="#63b8ff" points="189.61,-23.75 198.29,-17.68 187.72,-17.01 189.61,-23.75"/>
</a>
</g>
</g>
<!-- Node16 -->
<g id="Node000016" class="node">
<title>Node16</title>
<g id="a_Node000016"><a xlink:href="no__os__delay_8h.html" target="_top" xlink:title="Header file of Delay functions.">
<polygon fill="white" stroke="#666666" points="769,-74 684,-74 684,-55 769,-55 769,-74"/>
<text text-anchor="middle" x="726.5" y="-62" font-family="Helvetica,sans-Serif" font-size="10.00">no_os_delay.h</text>
</a>
</g>
</g>
<!-- Node15&#45;&gt;Node16 -->
<g id="edge20_Node000015_Node000016" class="edge">
<title>Node15&#45;&gt;Node16</title>
<g id="a_edge20_Node000015_Node000016"><a xlink:title=" ">
<path fill="none" stroke="#63b8ff" d="M530.1,-109.98C570.49,-100.84 634.78,-86.27 678.73,-76.32"/>
<polygon fill="#63b8ff" stroke="#63b8ff" points="679.63,-79.7 688.61,-74.08 678.08,-72.88 679.63,-79.7"/>
</a>
</g>
</g>
<!-- Node17 -->
<g id="Node000017" class="node">
<title>Node17</title>
<g id="a_Node000017"><a xlink:href="no__os__spi_8h.html" target="_top" xlink:title="Header file of SPI Interface.">
<polygon fill="white" stroke="#666666" points="437.5,-74 363.5,-74 363.5,-55 437.5,-55 437.5,-74"/>
<text text-anchor="middle" x="400.5" y="-62" font-family="Helvetica,sans-Serif" font-size="10.00">no_os_spi.h</text>
</a>
</g>
</g>
<!-- Node15&#45;&gt;Node17 -->
<g id="edge22_Node000015_Node000017" class="edge">
<title>Node15&#45;&gt;Node17</title>
<g id="a_edge22_Node000015_Node000017"><a xlink:title=" ">
<path fill="none" stroke="#63b8ff" d="M477.72,-109.98C463.32,-101.69 441.19,-88.94 424.31,-79.22"/>
<polygon fill="#63b8ff" stroke="#63b8ff" points="425.96,-76.13 415.55,-74.17 422.47,-82.19 425.96,-76.13"/>
</a>
</g>
</g>
<!-- Node18 -->
<g id="Node000018" class="node">
<title>Node18</title>
<g id="a_Node000018"><a xlink:href="no__os__i2c_8h.html" target="_top" xlink:title="Header file of I2C Interface.">
<polygon fill="white" stroke="#666666" points="529.5,-74 455.5,-74 455.5,-55 529.5,-55 529.5,-74"/>
<text text-anchor="middle" x="492.5" y="-62" font-family="Helvetica,sans-Serif" font-size="10.00">no_os_i2c.h</text>
</a>
</g>
</g>
<!-- Node15&#45;&gt;Node18 -->
<g id="edge24_Node000015_Node000018" class="edge">
<title>Node15&#45;&gt;Node18</title>
<g id="a_edge24_Node000015_Node000018"><a xlink:title=" ">
<path fill="none" stroke="#63b8ff" d="M492.5,-109.75C492.5,-102.8 492.5,-92.85 492.5,-84.13"/>
<polygon fill="#63b8ff" stroke="#63b8ff" points="496,-84.09 492.5,-74.09 489,-84.09 496,-84.09"/>
</a>
</g>
</g>
<!-- Node19 -->
<g id="Node000019" class="node">
<title>Node19</title>
<g id="a_Node000019"><a xlink:href="no__os__gpio_8h.html" target="_top" xlink:title="Header file of GPIO Interface.">
<polygon fill="white" stroke="#666666" points="627.5,-74 547.5,-74 547.5,-55 627.5,-55 627.5,-74"/>
<text text-anchor="middle" x="587.5" y="-62" font-family="Helvetica,sans-Serif" font-size="10.00">no_os_gpio.h</text>
</a>
</g>
</g>
<!-- Node15&#45;&gt;Node19 -->
<g id="edge26_Node000015_Node000019" class="edge">
<title>Node15&#45;&gt;Node19</title>
<g id="a_edge26_Node000015_Node000019"><a xlink:title=" ">
<path fill="none" stroke="#63b8ff" d="M507.76,-109.98C522.63,-101.69 545.48,-88.94 562.92,-79.22"/>
<polygon fill="#63b8ff" stroke="#63b8ff" points="564.93,-82.1 571.96,-74.17 561.52,-75.99 564.93,-82.1"/>
</a>
</g>
</g>
<!-- Node20 -->
<g id="Node000020" class="node">
<title>Node20</title>
<g id="a_Node000020"><a xlink:href="no__os__util_8h.html" target="_top" xlink:title="Header file of utility functions.">
<polygon fill="white" stroke="#666666" points="215,-74 140,-74 140,-55 215,-55 215,-74"/>
<text text-anchor="middle" x="177.5" y="-62" font-family="Helvetica,sans-Serif" font-size="10.00">no_os_util.h</text>
</a>
</g>
</g>
<!-- Node15&#45;&gt;Node20 -->
<g id="edge28_Node000015_Node000020" class="edge">
<title>Node15&#45;&gt;Node20</title>
<g id="a_edge28_Node000015_Node000020"><a xlink:title=" ">
<path fill="none" stroke="#63b8ff" d="M446.36,-110.74C387.23,-100.79 285.25,-83.63 225.32,-73.55"/>
<polygon fill="#63b8ff" stroke="#63b8ff" points="225.8,-70.08 215.36,-71.87 224.64,-76.98 225.8,-70.08"/>
</a>
</g>
</g>
<!-- Node16&#45;&gt;Node9 -->
<g id="edge21_Node000016_Node000009" class="edge">
<title>Node16&#45;&gt;Node9</title>
<g id="a_edge21_Node000016_Node000009"><a xlink:title=" ">
<path fill="none" stroke="#63b8ff" d="M715.09,-54.98C704.39,-47 688.16,-34.88 675.34,-25.31"/>
<polygon fill="#63b8ff" stroke="#63b8ff" points="677.22,-22.35 667.11,-19.17 673.03,-27.96 677.22,-22.35"/>
</a>
</g>
</g>
<!-- Node17&#45;&gt;Node9 -->
<g id="edge23_Node000017_Node000009" class="edge">
<title>Node17&#45;&gt;Node9</title>
<g id="a_edge23_Node000017_Node000009"><a xlink:title=" ">
<path fill="none" stroke="#63b8ff" d="M437.58,-55.79C486.1,-45.71 570.6,-28.15 618.88,-18.11"/>
<polygon fill="#63b8ff" stroke="#63b8ff" points="619.82,-21.49 628.9,-16.03 618.4,-14.64 619.82,-21.49"/>
</a>
</g>
</g>
<!-- Node18&#45;&gt;Node9 -->
<g id="edge25_Node000018_Node000009" class="edge">
<title>Node18&#45;&gt;Node9</title>
<g id="a_edge25_Node000018_Node000009"><a xlink:title=" ">
<path fill="none" stroke="#63b8ff" d="M518.69,-54.98C545.94,-46.13 588.8,-32.19 619.28,-22.28"/>
<polygon fill="#63b8ff" stroke="#63b8ff" points="620.68,-25.5 629.11,-19.08 618.51,-18.85 620.68,-25.5"/>
</a>
</g>
</g>
<!-- Node19&#45;&gt;Node9 -->
<g id="edge27_Node000019_Node000009" class="edge">
<title>Node19&#45;&gt;Node9</title>
<g id="a_edge27_Node000019_Node000009"><a xlink:title=" ">
<path fill="none" stroke="#63b8ff" d="M598.43,-54.98C608.58,-47.07 623.92,-35.11 636.15,-25.58"/>
<polygon fill="#63b8ff" stroke="#63b8ff" points="638.64,-28.08 644.38,-19.17 634.34,-22.56 638.64,-28.08"/>
</a>
</g>
</g>
<!-- Node20&#45;&gt;Node7 -->
<g id="edge30_Node000020_Node000007" class="edge">
<title>Node20&#45;&gt;Node7</title>
<g id="a_edge30_Node000020_Node000007"><a xlink:title=" ">
<path fill="none" stroke="#63b8ff" d="M168.91,-54.75C161.34,-47.03 150.12,-35.6 140.99,-26.28"/>
<polygon fill="#63b8ff" stroke="#63b8ff" points="143.43,-23.78 133.93,-19.09 138.43,-28.68 143.43,-23.78"/>
</a>
</g>
</g>
<!-- Node20&#45;&gt;Node9 -->
<g id="edge29_Node000020_Node000009" class="edge">
<title>Node20&#45;&gt;Node9</title>
<g id="a_edge29_Node000020_Node000009"><a xlink:title=" ">
<path fill="none" stroke="#63b8ff" d="M215.01,-59.34C304.57,-49.41 530.05,-24.41 618.79,-14.57"/>
<polygon fill="#63b8ff" stroke="#63b8ff" points="619.37,-18.03 628.92,-13.45 618.6,-11.07 619.37,-18.03"/>
</a>
</g>
</g>
<!-- Node20&#45;&gt;Node10 -->
<g id="edge31_Node000020_Node000010" class="edge">
<title>Node20&#45;&gt;Node10</title>
<g id="a_edge31_Node000020_Node000010"><a xlink:title=" ">
<path fill="none" stroke="#63b8ff" d="M186.09,-54.75C193.66,-47.03 204.88,-35.6 214.01,-26.28"/>
<polygon fill="#63b8ff" stroke="#63b8ff" points="216.57,-28.68 221.07,-19.09 211.57,-23.78 216.57,-28.68"/>
</a>
</g>
</g>
<!-- Node21&#45;&gt;Node9 -->
<g id="edge35_Node000021_Node000009" class="edge">
<title>Node21&#45;&gt;Node9</title>
<g id="a_edge35_Node000021_Node000009"><a xlink:title=" ">
<path fill="none" stroke="#63b8ff" d="M522.36,-164.98C593.29,-145.1 763.06,-95.7 778.5,-74 802.87,-39.76 736.55,-22.67 692.07,-15.27"/>
<polygon fill="#63b8ff" stroke="#63b8ff" points="692.54,-11.81 682.12,-13.72 691.46,-18.72 692.54,-11.81"/>
</a>
</g>
</g>
<!-- Node21&#45;&gt;Node15 -->
<g id="edge36_Node000021_Node000015" class="edge">
<title>Node21&#45;&gt;Node15</title>
<g id="a_edge36_Node000021_Node000015"><a xlink:title=" ">
<path fill="none" stroke="#63b8ff" d="M491.67,-164.75C491.8,-157.8 491.98,-147.85 492.15,-139.13"/>
<polygon fill="#63b8ff" stroke="#63b8ff" points="495.65,-139.15 492.34,-129.09 488.65,-139.02 495.65,-139.15"/>
</a>
</g>
</g>
</g>
</svg>
