<?xml version="1.0" encoding="UTF-8" standalone="no"?>
<!DOCTYPE svg PUBLIC "-//W3C//DTD SVG 1.1//EN"
 "http://www.w3.org/Graphics/SVG/1.1/DTD/svg11.dtd">
<!-- Generated by graphviz version 2.43.0 (0)
 -->
<!-- Title: drivers/adc/max11205/iio_max11205.h Pages: 1 -->
<svg width="290pt" height="115pt"
 viewBox="0.00 0.00 289.50 115.00" xmlns="http://www.w3.org/2000/svg" xmlns:xlink="http://www.w3.org/1999/xlink">
<g id="graph0" class="graph" transform="scale(1 1) rotate(0) translate(4 111)">
<title>drivers/adc/max11205/iio_max11205.h</title>
<!-- Node1 -->
<g id="Node000001" class="node">
<title>Node1</title>
<g id="a_Node000001"><a xlink:title="Header file of iio max11205 driver.">
<polygon fill="#999999" stroke="#666666" points="200,-107 75,-107 75,-77 200,-77 200,-107"/>
<text text-anchor="start" x="83" y="-95" font-family="Helvetica,sans-Serif" font-size="10.00">drivers/adc/max11205</text>
<text text-anchor="middle" x="137.5" y="-84" font-family="Helvetica,sans-Serif" font-size="10.00">/iio_max11205.h</text>
</a>
</g>
</g>
<!-- Node2 -->
<g id="Node000002" class="node">
<title>Node2</title>
<g id="a_Node000002"><a xlink:href="iio__max11205_8c.html" target="_top" xlink:title="Implementation of iio max11205 driver.">
<polygon fill="white" stroke="#666666" points="125,-35.5 0,-35.5 0,-5.5 125,-5.5 125,-35.5"/>
<text text-anchor="start" x="8" y="-23.5" font-family="Helvetica,sans-Serif" font-size="10.00">drivers/adc/max11205</text>
<text text-anchor="middle" x="62.5" y="-12.5" font-family="Helvetica,sans-Serif" font-size="10.00">/iio_max11205.c</text>
</a>
</g>
</g>
<!-- Node1&#45;&gt;Node2 -->
<g id="edge1_Node000001_Node000002" class="edge">
<title>Node1&#45;&gt;Node2</title>
<g id="a_edge1_Node000001_Node000002"><a xlink:title=" ">
<path fill="none" stroke="#63b8ff" d="M114.83,-69.99C102.79,-58.84 88.32,-45.43 77.65,-35.54"/>
<polygon fill="#63b8ff" stroke="#63b8ff" points="112.61,-72.71 122.32,-76.94 117.37,-67.57 112.61,-72.71"/>
</a>
</g>
</g>
<!-- Node3 -->
<g id="Node000003" class="node">
<title>Node3</title>
<g id="a_Node000003"><a xlink:href="max11205pmb1_2src_2examples_2iio_2iio__example_8c.html" target="_top" xlink:title="Implementation of IIO example for max11205pmb1 project.">
<polygon fill="white" stroke="#666666" points="281.5,-41 143.5,-41 143.5,0 281.5,0 281.5,-41"/>
<text text-anchor="start" x="151.5" y="-29" font-family="Helvetica,sans-Serif" font-size="10.00">projects/max11205pmb1</text>
<text text-anchor="start" x="151.5" y="-18" font-family="Helvetica,sans-Serif" font-size="10.00">/src/examples/iio/iio</text>
<text text-anchor="middle" x="212.5" y="-7" font-family="Helvetica,sans-Serif" font-size="10.00">_example.c</text>
</a>
</g>
</g>
<!-- Node1&#45;&gt;Node3 -->
<g id="edge2_Node000001_Node000003" class="edge">
<title>Node1&#45;&gt;Node3</title>
<g id="a_edge2_Node000001_Node000003"><a xlink:title=" ">
<path fill="none" stroke="#63b8ff" d="M160.2,-69.96C170.11,-60.78 181.66,-50.08 191.38,-41.07"/>
<polygon fill="#63b8ff" stroke="#63b8ff" points="157.63,-67.57 152.68,-76.94 162.39,-72.71 157.63,-67.57"/>
</a>
</g>
</g>
</g>
</svg>
