<?xml version="1.0" encoding="UTF-8" standalone="no"?>
<!DOCTYPE svg PUBLIC "-//W3C//DTD SVG 1.1//EN"
 "http://www.w3.org/Graphics/SVG/1.1/DTD/svg11.dtd">
<!-- Generated by graphviz version 2.43.0 (0)
 -->
<!-- Title: iio_hw_trig_handler Pages: 1 -->
<svg width="536pt" height="101pt"
 viewBox="0.00 0.00 536.00 101.00" xmlns="http://www.w3.org/2000/svg" xmlns:xlink="http://www.w3.org/1999/xlink">
<g id="graph0" class="graph" transform="scale(1 1) rotate(0) translate(4 97)">
<title>iio_hw_trig_handler</title>
<!-- Node1 -->
<g id="Node000001" class="node">
<title>Node1</title>
<g id="a_Node000001"><a xlink:title="Trigger interrupt handler. This function will be called when a system interrupt is asserted for the c...">
<polygon fill="#999999" stroke="#666666" points="528,-56 416,-56 416,-37 528,-37 528,-56"/>
<text text-anchor="middle" x="472" y="-44" font-family="Helvetica,sans-Serif" font-size="10.00">iio_hw_trig_handler</text>
</a>
</g>
</g>
<!-- Node2 -->
<g id="Node000002" class="node">
<title>Node2</title>
<g id="a_Node000002"><a xlink:href="iio__trigger_8c.html#ac463acd613c3864b48d7c5d8671d7bef" target="_top" xlink:title="Initialize hardware trigger.">
<polygon fill="white" stroke="#666666" points="380,-56 289,-56 289,-37 380,-37 380,-56"/>
<text text-anchor="middle" x="334.5" y="-44" font-family="Helvetica,sans-Serif" font-size="10.00">iio_hw_trig_init</text>
</a>
</g>
</g>
<!-- Node1&#45;&gt;Node2 -->
<g id="edge1_Node000001_Node000002" class="edge">
<title>Node1&#45;&gt;Node2</title>
<g id="a_edge1_Node000001_Node000002"><a xlink:title=" ">
<path fill="none" stroke="#63b8ff" d="M405.78,-46.5C397.12,-46.5 388.4,-46.5 380.2,-46.5"/>
<polygon fill="#63b8ff" stroke="#63b8ff" points="405.89,-50 415.89,-46.5 405.89,-43 405.89,-50"/>
</a>
</g>
</g>
<!-- Node3 -->
<g id="Node000003" class="node">
<title>Node3</title>
<g id="a_Node000003"><a xlink:href="ad7091r8-sdz_2src_2examples_2iio__timer__trigger_2iio__timer__trigger__example_8c.html#ac25cbf8ae523e89cb0617e68c98bc697" target="_top" xlink:title="IIO trigger example main execution.">
<polygon fill="white" stroke="#666666" points="209.5,-93 120.5,-93 120.5,-74 209.5,-74 209.5,-93"/>
<text text-anchor="middle" x="165" y="-81" font-family="Helvetica,sans-Serif" font-size="10.00">example_main</text>
</a>
</g>
</g>
<!-- Node2&#45;&gt;Node3 -->
<g id="edge2_Node000002_Node000003" class="edge">
<title>Node2&#45;&gt;Node3</title>
<g id="a_edge2_Node000002_Node000003"><a xlink:title=" ">
<path fill="none" stroke="#63b8ff" d="M283.84,-58.45C273.65,-60.84 262.99,-63.29 253,-65.5 238.99,-68.6 223.68,-71.82 209.86,-74.67"/>
<polygon fill="#63b8ff" stroke="#63b8ff" points="284.9,-61.79 293.83,-56.09 283.3,-54.98 284.9,-61.79"/>
</a>
</g>
</g>
<!-- Node4 -->
<g id="Node000004" class="node">
<title>Node4</title>
<g id="a_Node000004"><a xlink:href="iio__demo_2src_2examples_2iio__timer__trigger__example_2iio__timer__trigger__example_8c.html#a7bab3a90f71c4ddf1bc5fff9fc70b3fb" target="_top" xlink:title="IIO trigger example main execution.">
<polygon fill="white" stroke="#666666" points="253,-56 77,-56 77,-37 253,-37 253,-56"/>
<text text-anchor="middle" x="165" y="-44" font-family="Helvetica,sans-Serif" font-size="10.00">iio_timer_trigger_example_main</text>
</a>
</g>
</g>
<!-- Node2&#45;&gt;Node4 -->
<g id="edge3_Node000002_Node000004" class="edge">
<title>Node2&#45;&gt;Node4</title>
<g id="a_edge3_Node000002_Node000004"><a xlink:title=" ">
<path fill="none" stroke="#63b8ff" d="M278.5,-46.5C270.31,-46.5 261.71,-46.5 253.06,-46.5"/>
<polygon fill="#63b8ff" stroke="#63b8ff" points="278.61,-50 288.61,-46.5 278.61,-43 278.61,-50"/>
</a>
</g>
</g>
<!-- Node6 -->
<g id="Node000006" class="node">
<title>Node6</title>
<g id="a_Node000006"><a xlink:href="swiot__fw_8c.html#a427f9beea005fab8fccd9774acb53fc3" target="_top" xlink:title="IIO example main execution.">
<polygon fill="white" stroke="#666666" points="211,-19 119,-19 119,0 211,0 211,-19"/>
<text text-anchor="middle" x="165" y="-7" font-family="Helvetica,sans-Serif" font-size="10.00">swiot_firmware</text>
</a>
</g>
</g>
<!-- Node2&#45;&gt;Node6 -->
<g id="edge5_Node000002_Node000006" class="edge">
<title>Node2&#45;&gt;Node6</title>
<g id="a_edge5_Node000002_Node000006"><a xlink:title=" ">
<path fill="none" stroke="#63b8ff" d="M280.95,-34.71C271.64,-32.63 262.04,-30.5 253,-28.5 238.96,-25.4 223.64,-22.04 209.82,-19.03"/>
<polygon fill="#63b8ff" stroke="#63b8ff" points="280.37,-38.17 290.9,-36.93 281.9,-31.34 280.37,-38.17"/>
</a>
</g>
</g>
<!-- Node5 -->
<g id="Node000005" class="node">
<title>Node5</title>
<g id="a_Node000005"><a xlink:href="iio__demo_2src_2platform_2maxim_2main_8c.html#ae66f6b31b5ad750f1fe042a706a4e3d4" target="_top" xlink:title="Main function execution for Maxim platform.">
<polygon fill="white" stroke="#666666" points="41,-56 0,-56 0,-37 41,-37 41,-56"/>
<text text-anchor="middle" x="20.5" y="-44" font-family="Helvetica,sans-Serif" font-size="10.00">main</text>
</a>
</g>
</g>
<!-- Node4&#45;&gt;Node5 -->
<g id="edge4_Node000004_Node000005" class="edge">
<title>Node4&#45;&gt;Node5</title>
<g id="a_edge4_Node000004_Node000005"><a xlink:title=" ">
<path fill="none" stroke="#63b8ff" d="M66.54,-46.5C57.1,-46.5 48.38,-46.5 41.17,-46.5"/>
<polygon fill="#63b8ff" stroke="#63b8ff" points="66.59,-50 76.59,-46.5 66.59,-43 66.59,-50"/>
</a>
</g>
</g>
<!-- Node7 -->
<g id="Node000007" class="node">
<title>Node7</title>
<g id="a_Node000007"><a xlink:href="swiot1l_2src_2platform_2maxim_2main_8c.html#ae66f6b31b5ad750f1fe042a706a4e3d4" target="_top" xlink:title="Main function.">
<polygon fill="white" stroke="#666666" points="41,-19 0,-19 0,0 41,0 41,-19"/>
<text text-anchor="middle" x="20.5" y="-7" font-family="Helvetica,sans-Serif" font-size="10.00">main</text>
</a>
</g>
</g>
<!-- Node6&#45;&gt;Node7 -->
<g id="edge6_Node000006_Node000007" class="edge">
<title>Node6&#45;&gt;Node7</title>
<g id="a_edge6_Node000006_Node000007"><a xlink:title=" ">
<path fill="none" stroke="#63b8ff" d="M108.91,-9.5C85.12,-9.5 58.79,-9.5 41.31,-9.5"/>
<polygon fill="#63b8ff" stroke="#63b8ff" points="108.91,-13 118.91,-9.5 108.91,-6 108.91,-13"/>
</a>
</g>
</g>
</g>
</svg>
