<?xml version="1.0" encoding="UTF-8" standalone="no"?>
<!DOCTYPE svg PUBLIC "-//W3C//DTD SVG 1.1//EN"
 "http://www.w3.org/Graphics/SVG/1.1/DTD/svg11.dtd">
<!-- Generated by graphviz version 2.43.0 (0)
 -->
<!-- Title: projects/iio_adpd1080/src/common/common_data.h Pages: 1 -->
<svg width="828pt" height="313pt"
 viewBox="0.00 0.00 828.00 313.00" xmlns="http://www.w3.org/2000/svg" xmlns:xlink="http://www.w3.org/1999/xlink">
<g id="graph0" class="graph" transform="scale(1 1) rotate(0) translate(4 309)">
<title>projects/iio_adpd1080/src/common/common_data.h</title>
<!-- Node1 -->
<g id="Node000001" class="node">
<title>Node1</title>
<g id="a_Node000001"><a xlink:title="Defines common data to be used by iio_adpd1080 examples.">
<polygon fill="#999999" stroke="#666666" points="299.5,-305 138.5,-305 138.5,-275 299.5,-275 299.5,-305"/>
<text text-anchor="start" x="146.5" y="-293" font-family="Helvetica,sans-Serif" font-size="10.00">projects/iio_adpd1080</text>
<text text-anchor="middle" x="219" y="-282" font-family="Helvetica,sans-Serif" font-size="10.00">/src/common/common_data.h</text>
</a>
</g>
</g>
<!-- Node2 -->
<g id="Node000002" class="node">
<title>Node2</title>
<g id="a_Node000002"><a xlink:title=" ">
<polygon fill="#e0e0e0" stroke="#999999" points="82,-239 0,-239 0,-220 82,-220 82,-239"/>
<text text-anchor="middle" x="41" y="-227" font-family="Helvetica,sans-Serif" font-size="10.00">parameters.h</text>
</a>
</g>
</g>
<!-- Node1&#45;&gt;Node2 -->
<g id="edge1_Node000001_Node000002" class="edge">
<title>Node1&#45;&gt;Node2</title>
<g id="a_edge1_Node000001_Node000002"><a xlink:title=" ">
<path fill="none" stroke="#63b8ff" d="M176.36,-274.99C145.91,-264.98 105.41,-251.67 76.67,-242.22"/>
<polygon fill="#63b8ff" stroke="#63b8ff" points="77.62,-238.85 67.03,-239.05 75.43,-245.5 77.62,-238.85"/>
</a>
</g>
</g>
<!-- Node3 -->
<g id="Node000003" class="node">
<title>Node3</title>
<g id="a_Node000003"><a xlink:href="adpd188_8h.html" target="_top" xlink:title="ADPD188 driver header file.">
<polygon fill="white" stroke="#666666" points="253,-129 185,-129 185,-110 253,-110 253,-129"/>
<text text-anchor="middle" x="219" y="-117" font-family="Helvetica,sans-Serif" font-size="10.00">adpd188.h</text>
</a>
</g>
</g>
<!-- Node1&#45;&gt;Node3 -->
<g id="edge2_Node000001_Node000003" class="edge">
<title>Node1&#45;&gt;Node3</title>
<g id="a_edge2_Node000001_Node000003"><a xlink:title=" ">
<path fill="none" stroke="#63b8ff" d="M197.44,-274.86C186.08,-266.05 173.23,-253.63 167,-239 163.69,-231.23 164.99,-228.2 167,-220 174.63,-188.91 193.88,-156.75 206.69,-137.7"/>
<polygon fill="#63b8ff" stroke="#63b8ff" points="209.74,-139.45 212.55,-129.23 203.98,-135.47 209.74,-139.45"/>
</a>
</g>
</g>
<!-- Node8 -->
<g id="Node000008" class="node">
<title>Node8</title>
<g id="a_Node000008"><a xlink:href="no__os__gpio_8h.html" target="_top" xlink:title="Header file of GPIO Interface.">
<polygon fill="white" stroke="#666666" points="328,-74 248,-74 248,-55 328,-55 328,-74"/>
<text text-anchor="middle" x="288" y="-62" font-family="Helvetica,sans-Serif" font-size="10.00">no_os_gpio.h</text>
</a>
</g>
</g>
<!-- Node1&#45;&gt;Node8 -->
<g id="edge27_Node000001_Node000008" class="edge">
<title>Node1&#45;&gt;Node8</title>
<g id="a_edge27_Node000001_Node000008"><a xlink:title=" ">
<path fill="none" stroke="#63b8ff" d="M239.07,-274.93C250.16,-265.99 263.05,-253.41 270,-239 294.83,-187.52 292.83,-117.64 290.07,-84.47"/>
<polygon fill="#63b8ff" stroke="#63b8ff" points="293.54,-83.98 289.1,-74.36 286.57,-84.65 293.54,-83.98"/>
</a>
</g>
</g>
<!-- Node9 -->
<g id="Node000009" class="node">
<title>Node9</title>
<g id="a_Node000009"><a xlink:href="iio__adpd188_8h.html" target="_top" xlink:title="Header of the ADPD188 IIO driver.">
<polygon fill="white" stroke="#666666" points="261.5,-239 176.5,-239 176.5,-220 261.5,-220 261.5,-239"/>
<text text-anchor="middle" x="219" y="-227" font-family="Helvetica,sans-Serif" font-size="10.00">iio_adpd188.h</text>
</a>
</g>
</g>
<!-- Node1&#45;&gt;Node9 -->
<g id="edge11_Node000001_Node000009" class="edge">
<title>Node1&#45;&gt;Node9</title>
<g id="a_edge11_Node000001_Node000009"><a xlink:title=" ">
<path fill="none" stroke="#63b8ff" d="M219,-274.84C219,-267.21 219,-257.7 219,-249.45"/>
<polygon fill="#63b8ff" stroke="#63b8ff" points="222.5,-249.27 219,-239.27 215.5,-249.27 222.5,-249.27"/>
</a>
</g>
</g>
<!-- Node13 -->
<g id="Node000013" class="node">
<title>Node13</title>
<g id="a_Node000013"><a xlink:href="no__os__uart_8h.html" target="_top" xlink:title="Header file of UART interface.">
<polygon fill="white" stroke="#666666" points="644.5,-129 565.5,-129 565.5,-110 644.5,-110 644.5,-129"/>
<text text-anchor="middle" x="605" y="-117" font-family="Helvetica,sans-Serif" font-size="10.00">no_os_uart.h</text>
</a>
</g>
</g>
<!-- Node1&#45;&gt;Node13 -->
<g id="edge26_Node000001_Node000013" class="edge">
<title>Node1&#45;&gt;Node13</title>
<g id="a_edge26_Node000001_Node000013"><a xlink:title=" ">
<path fill="none" stroke="#63b8ff" d="M292.85,-274.94C360.67,-259.76 462.15,-231.19 540,-184 560.56,-171.54 579.67,-151.42 591.78,-137.17"/>
<polygon fill="#63b8ff" stroke="#63b8ff" points="594.7,-139.12 598.36,-129.17 589.3,-134.67 594.7,-139.12"/>
</a>
</g>
</g>
<!-- Node16 -->
<g id="Node000016" class="node">
<title>Node16</title>
<g id="a_Node000016"><a xlink:href="no__os__irq_8h.html" target="_top" xlink:title="Header file of IRQ interface.">
<polygon fill="white" stroke="#666666" points="77,-184 5,-184 5,-165 77,-165 77,-184"/>
<text text-anchor="middle" x="41" y="-172" font-family="Helvetica,sans-Serif" font-size="10.00">no_os_irq.h</text>
</a>
</g>
</g>
<!-- Node1&#45;&gt;Node16 -->
<g id="edge28_Node000001_Node000016" class="edge">
<title>Node1&#45;&gt;Node16</title>
<g id="a_edge28_Node000001_Node000016"><a xlink:title=" ">
<path fill="none" stroke="#63b8ff" d="M194.19,-274.99C177.09,-265.2 153.95,-251.66 134,-239 108.61,-222.89 80.15,-203.21 61.48,-190.07"/>
<polygon fill="#63b8ff" stroke="#63b8ff" points="63.35,-187.1 53.16,-184.19 59.31,-192.82 63.35,-187.1"/>
</a>
</g>
</g>
<!-- Node17 -->
<g id="Node000017" class="node">
<title>Node17</title>
<g id="a_Node000017"><a xlink:href="no__os__timer_8h.html" target="_top" xlink:title="Timer control module header.">
<polygon fill="white" stroke="#666666" points="403.5,-184 318.5,-184 318.5,-165 403.5,-165 403.5,-184"/>
<text text-anchor="middle" x="361" y="-172" font-family="Helvetica,sans-Serif" font-size="10.00">no_os_timer.h</text>
</a>
</g>
</g>
<!-- Node1&#45;&gt;Node17 -->
<g id="edge30_Node000001_Node000017" class="edge">
<title>Node1&#45;&gt;Node17</title>
<g id="a_edge30_Node000001_Node000017"><a xlink:title=" ">
<path fill="none" stroke="#63b8ff" d="M247.98,-274.83C265.12,-265.76 286.77,-253.09 304,-239 321.12,-225 337.66,-205.73 348.47,-192.1"/>
<polygon fill="#63b8ff" stroke="#63b8ff" points="351.34,-194.12 354.7,-184.07 345.8,-189.83 351.34,-194.12"/>
</a>
</g>
</g>
<!-- Node4 -->
<g id="Node000004" class="node">
<title>Node4</title>
<g id="a_Node000004"><a xlink:title=" ">
<polygon fill="#e0e0e0" stroke="#999999" points="348.5,-19 295.5,-19 295.5,0 348.5,0 348.5,-19"/>
<text text-anchor="middle" x="322" y="-7" font-family="Helvetica,sans-Serif" font-size="10.00">stdint.h</text>
</a>
</g>
</g>
<!-- Node3&#45;&gt;Node4 -->
<g id="edge3_Node000003_Node000004" class="edge">
<title>Node3&#45;&gt;Node4</title>
<g id="a_edge3_Node000003_Node000004"><a xlink:title=" ">
<path fill="none" stroke="#63b8ff" d="M219.68,-109.71C221.13,-96.46 225.58,-71.2 239,-55 251.21,-40.27 269.6,-29.7 285.97,-22.58"/>
<polygon fill="#63b8ff" stroke="#63b8ff" points="287.37,-25.79 295.31,-18.77 284.73,-19.3 287.37,-25.79"/>
</a>
</g>
</g>
<!-- Node5 -->
<g id="Node000005" class="node">
<title>Node5</title>
<g id="a_Node000005"><a xlink:title=" ">
<polygon fill="#e0e0e0" stroke="#999999" points="704,-19 642,-19 642,0 704,0 704,-19"/>
<text text-anchor="middle" x="673" y="-7" font-family="Helvetica,sans-Serif" font-size="10.00">stdbool.h</text>
</a>
</g>
</g>
<!-- Node3&#45;&gt;Node5 -->
<g id="edge4_Node000003_Node000005" class="edge">
<title>Node3&#45;&gt;Node5</title>
<g id="a_edge4_Node000003_Node000005"><a xlink:title=" ">
<path fill="none" stroke="#63b8ff" d="M253.09,-116.26C309.64,-111.92 426.02,-100.39 521,-74 566.8,-61.27 617.2,-38.31 646.92,-23.76"/>
<polygon fill="#63b8ff" stroke="#63b8ff" points="648.77,-26.75 656.17,-19.18 645.66,-20.48 648.77,-26.75"/>
</a>
</g>
</g>
<!-- Node6 -->
<g id="Node000006" class="node">
<title>Node6</title>
<g id="a_Node000006"><a xlink:href="no__os__i2c_8h.html" target="_top" xlink:title="Header file of I2C Interface.">
<polygon fill="white" stroke="#666666" points="100,-74 26,-74 26,-55 100,-55 100,-74"/>
<text text-anchor="middle" x="63" y="-62" font-family="Helvetica,sans-Serif" font-size="10.00">no_os_i2c.h</text>
</a>
</g>
</g>
<!-- Node3&#45;&gt;Node6 -->
<g id="edge5_Node000003_Node000006" class="edge">
<title>Node3&#45;&gt;Node6</title>
<g id="a_edge5_Node000003_Node000006"><a xlink:title=" ">
<path fill="none" stroke="#63b8ff" d="M193.94,-109.98C167.97,-101.16 127.19,-87.31 98.04,-77.41"/>
<polygon fill="#63b8ff" stroke="#63b8ff" points="98.85,-73.99 88.26,-74.08 96.6,-80.61 98.85,-73.99"/>
</a>
</g>
</g>
<!-- Node7 -->
<g id="Node000007" class="node">
<title>Node7</title>
<g id="a_Node000007"><a xlink:href="no__os__spi_8h.html" target="_top" xlink:title="Header file of SPI Interface.">
<polygon fill="white" stroke="#666666" points="192,-74 118,-74 118,-55 192,-55 192,-74"/>
<text text-anchor="middle" x="155" y="-62" font-family="Helvetica,sans-Serif" font-size="10.00">no_os_spi.h</text>
</a>
</g>
</g>
<!-- Node3&#45;&gt;Node7 -->
<g id="edge7_Node000003_Node000007" class="edge">
<title>Node3&#45;&gt;Node7</title>
<g id="a_edge7_Node000003_Node000007"><a xlink:title=" ">
<path fill="none" stroke="#63b8ff" d="M208.72,-109.98C199.16,-102.07 184.72,-90.11 173.22,-80.58"/>
<polygon fill="#63b8ff" stroke="#63b8ff" points="175.4,-77.85 165.47,-74.17 170.94,-83.24 175.4,-77.85"/>
</a>
</g>
</g>
<!-- Node3&#45;&gt;Node8 -->
<g id="edge9_Node000003_Node000008" class="edge">
<title>Node3&#45;&gt;Node8</title>
<g id="a_edge9_Node000003_Node000008"><a xlink:title=" ">
<path fill="none" stroke="#63b8ff" d="M230.09,-109.98C240.49,-102 256.26,-89.88 268.72,-80.31"/>
<polygon fill="#63b8ff" stroke="#63b8ff" points="270.91,-83.04 276.71,-74.17 266.65,-77.49 270.91,-83.04"/>
</a>
</g>
</g>
<!-- Node6&#45;&gt;Node4 -->
<g id="edge6_Node000006_Node000004" class="edge">
<title>Node6&#45;&gt;Node4</title>
<g id="a_edge6_Node000006_Node000004"><a xlink:title=" ">
<path fill="none" stroke="#63b8ff" d="M100.11,-55.91C149.47,-45.81 236.2,-28.06 285.34,-18"/>
<polygon fill="#63b8ff" stroke="#63b8ff" points="286.13,-21.41 295.22,-15.98 284.73,-14.56 286.13,-21.41"/>
</a>
</g>
</g>
<!-- Node7&#45;&gt;Node4 -->
<g id="edge8_Node000007_Node000004" class="edge">
<title>Node7&#45;&gt;Node4</title>
<g id="a_edge8_Node000007_Node000004"><a xlink:title=" ">
<path fill="none" stroke="#63b8ff" d="M181.83,-54.98C209.95,-46.06 254.31,-31.98 285.58,-22.06"/>
<polygon fill="#63b8ff" stroke="#63b8ff" points="286.76,-25.36 295.24,-18.99 284.64,-18.68 286.76,-25.36"/>
</a>
</g>
</g>
<!-- Node8&#45;&gt;Node4 -->
<g id="edge10_Node000008_Node000004" class="edge">
<title>Node8&#45;&gt;Node4</title>
<g id="a_edge10_Node000008_Node000004"><a xlink:title=" ">
<path fill="none" stroke="#63b8ff" d="M293.61,-54.75C298.32,-47.42 305.17,-36.73 310.97,-27.7"/>
<polygon fill="#63b8ff" stroke="#63b8ff" points="314.04,-29.4 316.49,-19.09 308.14,-25.62 314.04,-29.4"/>
</a>
</g>
</g>
<!-- Node9&#45;&gt;Node3 -->
<g id="edge12_Node000009_Node000003" class="edge">
<title>Node9&#45;&gt;Node3</title>
<g id="a_edge12_Node000009_Node000003"><a xlink:title=" ">
<path fill="none" stroke="#63b8ff" d="M219,-219.66C219,-202.17 219,-162.8 219,-139.27"/>
<polygon fill="#63b8ff" stroke="#63b8ff" points="222.5,-139.16 219,-129.16 215.5,-139.16 222.5,-139.16"/>
</a>
</g>
</g>
<!-- Node10 -->
<g id="Node000010" class="node">
<title>Node10</title>
<g id="a_Node000010"><a xlink:href="iio_8h.html" target="_top" xlink:title="Header file of iio.">
<polygon fill="white" stroke="#666666" points="531,-184 493,-184 493,-165 531,-165 531,-184"/>
<text text-anchor="middle" x="512" y="-172" font-family="Helvetica,sans-Serif" font-size="10.00">iio.h</text>
</a>
</g>
</g>
<!-- Node9&#45;&gt;Node10 -->
<g id="edge13_Node000009_Node000010" class="edge">
<title>Node9&#45;&gt;Node10</title>
<g id="a_edge13_Node000009_Node000010"><a xlink:title=" ">
<path fill="none" stroke="#63b8ff" d="M261.6,-220.79C322.04,-209.86 431.07,-190.14 482.99,-180.75"/>
<polygon fill="#63b8ff" stroke="#63b8ff" points="483.66,-184.18 492.88,-178.96 482.41,-177.3 483.66,-184.18"/>
</a>
</g>
</g>
<!-- Node11 -->
<g id="Node000011" class="node">
<title>Node11</title>
<g id="a_Node000011"><a xlink:href="iio__types_8h.html" target="_top" xlink:title="Header file for iio_types.">
<polygon fill="white" stroke="#666666" points="547,-129 477,-129 477,-110 547,-110 547,-129"/>
<text text-anchor="middle" x="512" y="-117" font-family="Helvetica,sans-Serif" font-size="10.00">iio_types.h</text>
</a>
</g>
</g>
<!-- Node10&#45;&gt;Node11 -->
<g id="edge14_Node000010_Node000011" class="edge">
<title>Node10&#45;&gt;Node11</title>
<g id="a_edge14_Node000010_Node000011"><a xlink:title=" ">
<path fill="none" stroke="#63b8ff" d="M512,-164.75C512,-157.8 512,-147.85 512,-139.13"/>
<polygon fill="#63b8ff" stroke="#63b8ff" points="515.5,-139.09 512,-129.09 508.5,-139.09 515.5,-139.09"/>
</a>
</g>
</g>
<!-- Node10&#45;&gt;Node13 -->
<g id="edge19_Node000010_Node000013" class="edge">
<title>Node10&#45;&gt;Node13</title>
<g id="a_edge19_Node000010_Node000013"><a xlink:title=" ">
<path fill="none" stroke="#63b8ff" d="M526.94,-164.98C541.5,-156.69 563.87,-143.94 580.93,-134.22"/>
<polygon fill="#63b8ff" stroke="#63b8ff" points="582.83,-137.16 589.79,-129.17 579.36,-131.08 582.83,-137.16"/>
</a>
</g>
</g>
<!-- Node11&#45;&gt;Node4 -->
<g id="edge16_Node000011_Node000004" class="edge">
<title>Node11&#45;&gt;Node4</title>
<g id="a_edge16_Node000011_Node000004"><a xlink:title=" ">
<path fill="none" stroke="#63b8ff" d="M517,-109.61C523.78,-96.24 533.67,-70.82 521,-55 501.07,-30.12 410.7,-18.22 358.86,-13.35"/>
<polygon fill="#63b8ff" stroke="#63b8ff" points="359,-9.85 348.73,-12.45 358.37,-16.83 359,-9.85"/>
</a>
</g>
</g>
<!-- Node11&#45;&gt;Node5 -->
<g id="edge15_Node000011_Node000005" class="edge">
<title>Node11&#45;&gt;Node5</title>
<g id="a_edge15_Node000011_Node000005"><a xlink:title=" ">
<path fill="none" stroke="#63b8ff" d="M547.11,-111.27C572.19,-104.76 605.68,-93.19 630,-74 645.47,-61.79 657.43,-42.46 664.77,-28.33"/>
<polygon fill="#63b8ff" stroke="#63b8ff" points="668.01,-29.66 669.27,-19.14 661.73,-26.58 668.01,-29.66"/>
</a>
</g>
</g>
<!-- Node12 -->
<g id="Node000012" class="node">
<title>Node12</title>
<g id="a_Node000012"><a xlink:href="no__os__circular__buffer_8h.html" target="_top" xlink:title="Circular buffer library header.">
<polygon fill="white" stroke="#666666" points="512,-74 384,-74 384,-55 512,-55 512,-74"/>
<text text-anchor="middle" x="448" y="-62" font-family="Helvetica,sans-Serif" font-size="10.00">no_os_circular_buffer.h</text>
</a>
</g>
</g>
<!-- Node11&#45;&gt;Node12 -->
<g id="edge17_Node000011_Node000012" class="edge">
<title>Node11&#45;&gt;Node12</title>
<g id="a_edge17_Node000011_Node000012"><a xlink:title=" ">
<path fill="none" stroke="#63b8ff" d="M501.72,-109.98C492.16,-102.07 477.72,-90.11 466.22,-80.58"/>
<polygon fill="#63b8ff" stroke="#63b8ff" points="468.4,-77.85 458.47,-74.17 463.94,-83.24 468.4,-77.85"/>
</a>
</g>
</g>
<!-- Node12&#45;&gt;Node4 -->
<g id="edge18_Node000012_Node000004" class="edge">
<title>Node12&#45;&gt;Node4</title>
<g id="a_edge18_Node000012_Node000004"><a xlink:title=" ">
<path fill="none" stroke="#63b8ff" d="M427.76,-54.98C407.3,-46.38 375.47,-32.99 352.07,-23.15"/>
<polygon fill="#63b8ff" stroke="#63b8ff" points="353.19,-19.82 342.61,-19.17 350.47,-26.27 353.19,-19.82"/>
</a>
</g>
</g>
<!-- Node13&#45;&gt;Node4 -->
<g id="edge20_Node000013_Node000004" class="edge">
<title>Node13&#45;&gt;Node4</title>
<g id="a_edge20_Node000013_Node000004"><a xlink:title=" ">
<path fill="none" stroke="#63b8ff" d="M598.64,-109.95C587.82,-96.06 564.43,-68.79 538,-55 480.18,-24.83 403.67,-15.11 358.94,-11.98"/>
<polygon fill="#63b8ff" stroke="#63b8ff" points="359.02,-8.48 348.83,-11.35 358.59,-15.46 359.02,-8.48"/>
</a>
</g>
</g>
<!-- Node13&#45;&gt;Node5 -->
<g id="edge21_Node000013_Node000005" class="edge">
<title>Node13&#45;&gt;Node5</title>
<g id="a_edge21_Node000013_Node000005"><a xlink:title=" ">
<path fill="none" stroke="#63b8ff" d="M625.45,-109.87C639.98,-102.58 658.53,-90.64 668,-74 675.61,-60.62 676.42,-43.01 675.58,-29.73"/>
<polygon fill="#63b8ff" stroke="#63b8ff" points="679.02,-28.99 674.54,-19.39 672.06,-29.69 679.02,-28.99"/>
</a>
</g>
</g>
<!-- Node14 -->
<g id="Node000014" class="node">
<title>Node14</title>
<g id="a_Node000014"><a xlink:href="no__os__lf256fifo_8h.html" target="_top" xlink:title="SPSC lock&#45;free fifo of fixed size (256), specialized for UART.">
<polygon fill="white" stroke="#666666" points="820,-74 720,-74 720,-55 820,-55 820,-74"/>
<text text-anchor="middle" x="770" y="-62" font-family="Helvetica,sans-Serif" font-size="10.00">no_os_lf256fifo.h</text>
</a>
</g>
</g>
<!-- Node13&#45;&gt;Node14 -->
<g id="edge22_Node000013_Node000014" class="edge">
<title>Node13&#45;&gt;Node14</title>
<g id="a_edge22_Node000013_Node000014"><a xlink:title=" ">
<path fill="none" stroke="#63b8ff" d="M631.51,-109.98C659.21,-101.09 702.86,-87.07 733.74,-77.15"/>
<polygon fill="#63b8ff" stroke="#63b8ff" points="734.83,-80.47 743.28,-74.08 732.69,-73.81 734.83,-80.47"/>
</a>
</g>
</g>
<!-- Node14&#45;&gt;Node4 -->
<g id="edge24_Node000014_Node000004" class="edge">
<title>Node14&#45;&gt;Node4</title>
<g id="a_edge24_Node000014_Node000004"><a xlink:title=" ">
<path fill="none" stroke="#63b8ff" d="M719.91,-57.57C629.01,-46.82 438.88,-24.33 358.8,-14.85"/>
<polygon fill="#63b8ff" stroke="#63b8ff" points="359.05,-11.36 348.7,-13.66 358.22,-18.31 359.05,-11.36"/>
</a>
</g>
</g>
<!-- Node14&#45;&gt;Node5 -->
<g id="edge25_Node000014_Node000005" class="edge">
<title>Node14&#45;&gt;Node5</title>
<g id="a_edge25_Node000014_Node000005"><a xlink:title=" ">
<path fill="none" stroke="#63b8ff" d="M754.42,-54.98C739.23,-46.69 715.9,-33.94 698.1,-24.22"/>
<polygon fill="#63b8ff" stroke="#63b8ff" points="699.32,-20.89 688.87,-19.17 695.97,-27.04 699.32,-20.89"/>
</a>
</g>
</g>
<!-- Node15 -->
<g id="Node000015" class="node">
<title>Node15</title>
<g id="a_Node000015"><a xlink:title=" ">
<polygon fill="#e0e0e0" stroke="#999999" points="796.5,-19 743.5,-19 743.5,0 796.5,0 796.5,-19"/>
<text text-anchor="middle" x="770" y="-7" font-family="Helvetica,sans-Serif" font-size="10.00">stdlib.h</text>
</a>
</g>
</g>
<!-- Node14&#45;&gt;Node15 -->
<g id="edge23_Node000014_Node000015" class="edge">
<title>Node14&#45;&gt;Node15</title>
<g id="a_edge23_Node000014_Node000015"><a xlink:title=" ">
<path fill="none" stroke="#63b8ff" d="M770,-54.75C770,-47.8 770,-37.85 770,-29.13"/>
<polygon fill="#63b8ff" stroke="#63b8ff" points="773.5,-29.09 770,-19.09 766.5,-29.09 773.5,-29.09"/>
</a>
</g>
</g>
<!-- Node16&#45;&gt;Node4 -->
<g id="edge29_Node000016_Node000004" class="edge">
<title>Node16&#45;&gt;Node4</title>
<g id="a_edge29_Node000016_Node000004"><a xlink:title=" ">
<path fill="none" stroke="#63b8ff" d="M34.96,-164.83C20.86,-143.41 -11.01,-87.39 17,-55 51.28,-15.36 211.65,-10.33 285.09,-10.15"/>
<polygon fill="#63b8ff" stroke="#63b8ff" points="285.27,-13.65 295.27,-10.16 285.28,-6.65 285.27,-13.65"/>
</a>
</g>
</g>
<!-- Node17&#45;&gt;Node4 -->
<g id="edge31_Node000017_Node000004" class="edge">
<title>Node17&#45;&gt;Node4</title>
<g id="a_edge31_Node000017_Node000004"><a xlink:title=" ">
<path fill="none" stroke="#63b8ff" d="M359.62,-164.79C356.41,-145.06 347.89,-95.54 337,-55 334.65,-46.24 331.51,-36.69 328.71,-28.69"/>
<polygon fill="#63b8ff" stroke="#63b8ff" points="331.99,-27.49 325.32,-19.27 325.41,-29.86 331.99,-27.49"/>
</a>
</g>
</g>
</g>
</svg>
