<?xml version="1.0" encoding="UTF-8" standalone="no"?>
<!DOCTYPE svg PUBLIC "-//W3C//DTD SVG 1.1//EN"
 "http://www.w3.org/Graphics/SVG/1.1/DTD/svg11.dtd">
<!-- Generated by graphviz version 2.43.0 (0)
 -->
<!-- Title: drivers/rf&#45;transceiver/hmc630x/iio_hmc630x.c Pages: 1 -->
<svg width="846pt" height="313pt"
 viewBox="0.00 0.00 846.00 313.00" xmlns="http://www.w3.org/2000/svg" xmlns:xlink="http://www.w3.org/1999/xlink">
<g id="graph0" class="graph" transform="scale(1 1) rotate(0) translate(4 309)">
<title>drivers/rf&#45;transceiver/hmc630x/iio_hmc630x.c</title>
<!-- Node1 -->
<g id="Node000001" class="node">
<title>Node1</title>
<g id="a_Node000001"><a xlink:title="Source file of hmc6300 and hmc6301 driver extension for IIOD.">
<polygon fill="#999999" stroke="#666666" points="573.5,-305 435.5,-305 435.5,-275 573.5,-275 573.5,-305"/>
<text text-anchor="start" x="443.5" y="-293" font-family="Helvetica,sans-Serif" font-size="10.00">drivers/rf&#45;transceiver</text>
<text text-anchor="middle" x="504.5" y="-282" font-family="Helvetica,sans-Serif" font-size="10.00">/hmc630x/iio_hmc630x.c</text>
</a>
</g>
</g>
<!-- Node2 -->
<g id="Node000002" class="node">
<title>Node2</title>
<g id="a_Node000002"><a xlink:title=" ">
<polygon fill="#e0e0e0" stroke="#999999" points="712,-19 659,-19 659,0 712,0 712,-19"/>
<text text-anchor="middle" x="685.5" y="-7" font-family="Helvetica,sans-Serif" font-size="10.00">stdlib.h</text>
</a>
</g>
</g>
<!-- Node1&#45;&gt;Node2 -->
<g id="edge1_Node000001_Node000002" class="edge">
<title>Node1&#45;&gt;Node2</title>
<g id="a_edge1_Node000001_Node000002"><a xlink:title=" ">
<path fill="none" stroke="#63b8ff" d="M573.69,-281.95C633.5,-274.5 713.95,-260.76 737.5,-239 759.14,-219.01 756.5,-204.96 756.5,-175.5 756.5,-175.5 756.5,-175.5 756.5,-118.5 756.5,-80.27 725.05,-45.09 704.01,-25.83"/>
<polygon fill="#63b8ff" stroke="#63b8ff" points="706.1,-23.01 696.28,-19.03 701.48,-28.27 706.1,-23.01"/>
</a>
</g>
</g>
<!-- Node3 -->
<g id="Node000003" class="node">
<title>Node3</title>
<g id="a_Node000003"><a xlink:title=" ">
<polygon fill="#e0e0e0" stroke="#999999" points="673.5,-184 623.5,-184 623.5,-165 673.5,-165 673.5,-184"/>
<text text-anchor="middle" x="648.5" y="-172" font-family="Helvetica,sans-Serif" font-size="10.00">stdio.h</text>
</a>
</g>
</g>
<!-- Node1&#45;&gt;Node3 -->
<g id="edge2_Node000001_Node000003" class="edge">
<title>Node1&#45;&gt;Node3</title>
<g id="a_edge2_Node000001_Node000003"><a xlink:title=" ">
<path fill="none" stroke="#63b8ff" d="M535,-274.85C552.7,-265.88 574.91,-253.3 592.5,-239 609.53,-225.16 625.74,-205.87 636.3,-192.19"/>
<polygon fill="#63b8ff" stroke="#63b8ff" points="639.15,-194.22 642.37,-184.12 633.56,-190 639.15,-194.22"/>
</a>
</g>
</g>
<!-- Node4 -->
<g id="Node000004" class="node">
<title>Node4</title>
<g id="a_Node000004"><a xlink:title=" ">
<polygon fill="#e0e0e0" stroke="#999999" points="299,-239 234,-239 234,-220 299,-220 299,-239"/>
<text text-anchor="middle" x="266.5" y="-227" font-family="Helvetica,sans-Serif" font-size="10.00">inttypes.h</text>
</a>
</g>
</g>
<!-- Node1&#45;&gt;Node4 -->
<g id="edge3_Node000001_Node000004" class="edge">
<title>Node1&#45;&gt;Node4</title>
<g id="a_edge3_Node000001_Node000004"><a xlink:title=" ">
<path fill="none" stroke="#63b8ff" d="M447.49,-274.99C404.95,-264.53 347.74,-250.47 309.12,-240.98"/>
<polygon fill="#63b8ff" stroke="#63b8ff" points="309.78,-237.53 299.24,-238.55 308.11,-244.33 309.78,-237.53"/>
</a>
</g>
</g>
<!-- Node5 -->
<g id="Node000005" class="node">
<title>Node5</title>
<g id="a_Node000005"><a xlink:title=" ">
<polygon fill="#e0e0e0" stroke="#999999" points="368,-239 317,-239 317,-220 368,-220 368,-239"/>
<text text-anchor="middle" x="342.5" y="-227" font-family="Helvetica,sans-Serif" font-size="10.00">math.h</text>
</a>
</g>
</g>
<!-- Node1&#45;&gt;Node5 -->
<g id="edge4_Node000001_Node000005" class="edge">
<title>Node1&#45;&gt;Node5</title>
<g id="a_edge4_Node000001_Node000005"><a xlink:title=" ">
<path fill="none" stroke="#63b8ff" d="M465.7,-274.99C438.31,-265.1 401.98,-251.98 375.89,-242.56"/>
<polygon fill="#63b8ff" stroke="#63b8ff" points="377.02,-239.24 366.42,-239.14 374.64,-245.83 377.02,-239.24"/>
</a>
</g>
</g>
<!-- Node6 -->
<g id="Node000006" class="node">
<title>Node6</title>
<g id="a_Node000006"><a xlink:href="no__os__error_8h.html" target="_top" xlink:title="Error codes definition.">
<polygon fill="white" stroke="#666666" points="215.5,-239 133.5,-239 133.5,-220 215.5,-220 215.5,-239"/>
<text text-anchor="middle" x="174.5" y="-227" font-family="Helvetica,sans-Serif" font-size="10.00">no_os_error.h</text>
</a>
</g>
</g>
<!-- Node1&#45;&gt;Node6 -->
<g id="edge5_Node000001_Node000006" class="edge">
<title>Node1&#45;&gt;Node6</title>
<g id="a_edge5_Node000001_Node000006"><a xlink:title=" ">
<path fill="none" stroke="#63b8ff" d="M435.32,-276.74C372.69,-265.63 281.88,-249.54 225.6,-239.56"/>
<polygon fill="#63b8ff" stroke="#63b8ff" points="225.96,-236.07 215.5,-237.77 224.74,-242.96 225.96,-236.07"/>
</a>
</g>
</g>
<!-- Node8 -->
<g id="Node000008" class="node">
<title>Node8</title>
<g id="a_Node000008"><a xlink:href="no__os__delay_8h.html" target="_top" xlink:title="Header file of Delay functions.">
<polygon fill="white" stroke="#666666" points="85,-184 0,-184 0,-165 85,-165 85,-184"/>
<text text-anchor="middle" x="42.5" y="-172" font-family="Helvetica,sans-Serif" font-size="10.00">no_os_delay.h</text>
</a>
</g>
</g>
<!-- Node1&#45;&gt;Node8 -->
<g id="edge7_Node000001_Node000008" class="edge">
<title>Node1&#45;&gt;Node8</title>
<g id="a_edge7_Node000001_Node000008"><a xlink:title=" ">
<path fill="none" stroke="#63b8ff" d="M435.39,-284.25C341.53,-277.06 179.16,-261.78 124.5,-239 98.18,-228.03 73.04,-206.33 57.69,-191.37"/>
<polygon fill="#63b8ff" stroke="#63b8ff" points="60.14,-188.87 50.61,-184.26 55.18,-193.81 60.14,-188.87"/>
</a>
</g>
</g>
<!-- Node10 -->
<g id="Node000010" class="node">
<title>Node10</title>
<g id="a_Node000010"><a xlink:href="iio_8h.html" target="_top" xlink:title="Header file of iio.">
<polygon fill="white" stroke="#666666" points="521.5,-184 483.5,-184 483.5,-165 521.5,-165 521.5,-184"/>
<text text-anchor="middle" x="502.5" y="-172" font-family="Helvetica,sans-Serif" font-size="10.00">iio.h</text>
</a>
</g>
</g>
<!-- Node1&#45;&gt;Node10 -->
<g id="edge9_Node000001_Node000010" class="edge">
<title>Node1&#45;&gt;Node10</title>
<g id="a_edge9_Node000001_Node000010"><a xlink:title=" ">
<path fill="none" stroke="#63b8ff" d="M511.78,-274.8C518.02,-260.91 525.41,-239.1 521.5,-220 519.61,-210.74 515.71,-201.03 511.93,-193.04"/>
<polygon fill="#63b8ff" stroke="#63b8ff" points="515.01,-191.37 507.38,-184.02 508.76,-194.53 515.01,-191.37"/>
</a>
</g>
</g>
<!-- Node16 -->
<g id="Node000016" class="node">
<title>Node16</title>
<g id="a_Node000016"><a xlink:href="iio__hmc630x_8h.html" target="_top" xlink:title="Header file of hmc6300 and hmc6301 driver extension for IIOD.">
<polygon fill="white" stroke="#666666" points="512.5,-239 424.5,-239 424.5,-220 512.5,-220 512.5,-239"/>
<text text-anchor="middle" x="468.5" y="-227" font-family="Helvetica,sans-Serif" font-size="10.00">iio_hmc630x.h</text>
</a>
</g>
</g>
<!-- Node1&#45;&gt;Node16 -->
<g id="edge22_Node000001_Node000016" class="edge">
<title>Node1&#45;&gt;Node16</title>
<g id="a_edge22_Node000001_Node000016"><a xlink:title=" ">
<path fill="none" stroke="#63b8ff" d="M495.79,-274.84C490.83,-266.78 484.57,-256.62 479.3,-248.06"/>
<polygon fill="#63b8ff" stroke="#63b8ff" points="482.12,-245.95 473.89,-239.27 476.15,-249.62 482.12,-245.95"/>
</a>
</g>
</g>
<!-- Node17 -->
<g id="Node000017" class="node">
<title>Node17</title>
<g id="a_Node000017"><a xlink:href="hmc630x_8h.html" target="_top" xlink:title="hmc6300 and hmc6301 device driver header.">
<polygon fill="white" stroke="#666666" points="360,-129 289,-129 289,-110 360,-110 360,-129"/>
<text text-anchor="middle" x="324.5" y="-117" font-family="Helvetica,sans-Serif" font-size="10.00">hmc630x.h</text>
</a>
</g>
</g>
<!-- Node1&#45;&gt;Node17 -->
<g id="edge37_Node000001_Node000017" class="edge">
<title>Node1&#45;&gt;Node17</title>
<g id="a_edge37_Node000001_Node000017"><a xlink:title=" ">
<path fill="none" stroke="#63b8ff" d="M472.44,-274.93C454.55,-266.16 432.51,-253.74 415.5,-239 380.36,-208.56 349.83,-162.67 334.67,-137.87"/>
<polygon fill="#63b8ff" stroke="#63b8ff" points="337.61,-135.98 329.47,-129.2 331.61,-139.58 337.61,-135.98"/>
</a>
</g>
</g>
<!-- Node18 -->
<g id="Node000018" class="node">
<title>Node18</title>
<g id="a_Node000018"><a xlink:href="no__os__util_8h.html" target="_top" xlink:title="Header file of utility functions.">
<polygon fill="white" stroke="#666666" points="690,-74 615,-74 615,-55 690,-55 690,-74"/>
<text text-anchor="middle" x="652.5" y="-62" font-family="Helvetica,sans-Serif" font-size="10.00">no_os_util.h</text>
</a>
</g>
</g>
<!-- Node1&#45;&gt;Node18 -->
<g id="edge33_Node000001_Node000018" class="edge">
<title>Node1&#45;&gt;Node18</title>
<g id="a_edge33_Node000001_Node000018"><a xlink:title=" ">
<path fill="none" stroke="#63b8ff" d="M513.98,-274.68C540.08,-235.27 612.9,-125.31 641.12,-82.69"/>
<polygon fill="#63b8ff" stroke="#63b8ff" points="644.12,-84.5 646.72,-74.23 638.28,-80.64 644.12,-84.5"/>
</a>
</g>
</g>
<!-- Node20 -->
<g id="Node000020" class="node">
<title>Node20</title>
<g id="a_Node000020"><a xlink:href="no__os__alloc_8h.html" target="_top" xlink:title=" ">
<polygon fill="white" stroke="#666666" points="728,-239 645,-239 645,-220 728,-220 728,-239"/>
<text text-anchor="middle" x="686.5" y="-227" font-family="Helvetica,sans-Serif" font-size="10.00">no_os_alloc.h</text>
</a>
</g>
</g>
<!-- Node1&#45;&gt;Node20 -->
<g id="edge34_Node000001_Node000020" class="edge">
<title>Node1&#45;&gt;Node20</title>
<g id="a_edge34_Node000001_Node000020"><a xlink:title=" ">
<path fill="none" stroke="#63b8ff" d="M548.09,-274.99C579.23,-264.98 620.64,-251.67 650.03,-242.22"/>
<polygon fill="#63b8ff" stroke="#63b8ff" points="651.44,-245.45 659.89,-239.05 649.3,-238.78 651.44,-245.45"/>
</a>
</g>
</g>
<!-- Node21 -->
<g id="Node000021" class="node">
<title>Node21</title>
<g id="a_Node000021"><a xlink:title=" ">
<polygon fill="#e0e0e0" stroke="#999999" points="838,-239 785,-239 785,-220 838,-220 838,-239"/>
<text text-anchor="middle" x="811.5" y="-227" font-family="Helvetica,sans-Serif" font-size="10.00">string.h</text>
</a>
</g>
</g>
<!-- Node1&#45;&gt;Node21 -->
<g id="edge38_Node000001_Node000021" class="edge">
<title>Node1&#45;&gt;Node21</title>
<g id="a_edge38_Node000001_Node000021"><a xlink:title=" ">
<path fill="none" stroke="#63b8ff" d="M573.74,-276.35C627.46,-266.45 703.77,-252.19 770.5,-239 771.78,-238.75 773.09,-238.49 774.41,-238.22"/>
<polygon fill="#63b8ff" stroke="#63b8ff" points="775.51,-241.57 784.61,-236.15 774.11,-234.71 775.51,-241.57"/>
</a>
</g>
</g>
<!-- Node7 -->
<g id="Node000007" class="node">
<title>Node7</title>
<g id="a_Node000007"><a xlink:href="errno_8h.html" target="_top" xlink:title="Error macro definition for ARM Compiler.">
<polygon fill="white" stroke="#666666" points="200,-184 149,-184 149,-165 200,-165 200,-184"/>
<text text-anchor="middle" x="174.5" y="-172" font-family="Helvetica,sans-Serif" font-size="10.00">errno.h</text>
</a>
</g>
</g>
<!-- Node6&#45;&gt;Node7 -->
<g id="edge6_Node000006_Node000007" class="edge">
<title>Node6&#45;&gt;Node7</title>
<g id="a_edge6_Node000006_Node000007"><a xlink:title=" ">
<path fill="none" stroke="#63b8ff" d="M174.5,-219.75C174.5,-212.8 174.5,-202.85 174.5,-194.13"/>
<polygon fill="#63b8ff" stroke="#63b8ff" points="178,-194.09 174.5,-184.09 171,-194.09 178,-194.09"/>
</a>
</g>
</g>
<!-- Node9 -->
<g id="Node000009" class="node">
<title>Node9</title>
<g id="a_Node000009"><a xlink:title=" ">
<polygon fill="#e0e0e0" stroke="#999999" points="297,-19 244,-19 244,0 297,0 297,-19"/>
<text text-anchor="middle" x="270.5" y="-7" font-family="Helvetica,sans-Serif" font-size="10.00">stdint.h</text>
</a>
</g>
</g>
<!-- Node8&#45;&gt;Node9 -->
<g id="edge8_Node000008_Node000009" class="edge">
<title>Node8&#45;&gt;Node9</title>
<g id="a_edge8_Node000008_Node000009"><a xlink:title=" ">
<path fill="none" stroke="#63b8ff" d="M36.18,-164.9C21.39,-143.63 -12.2,-87.95 15.5,-55 42.96,-22.33 170.03,-13.64 233.8,-11.33"/>
<polygon fill="#63b8ff" stroke="#63b8ff" points="233.95,-14.83 243.83,-11.01 233.72,-7.84 233.95,-14.83"/>
</a>
</g>
</g>
<!-- Node11 -->
<g id="Node000011" class="node">
<title>Node11</title>
<g id="a_Node000011"><a xlink:href="iio__types_8h.html" target="_top" xlink:title="Header file for iio_types.">
<polygon fill="white" stroke="#666666" points="448.5,-129 378.5,-129 378.5,-110 448.5,-110 448.5,-129"/>
<text text-anchor="middle" x="413.5" y="-117" font-family="Helvetica,sans-Serif" font-size="10.00">iio_types.h</text>
</a>
</g>
</g>
<!-- Node10&#45;&gt;Node11 -->
<g id="edge10_Node000010_Node000011" class="edge">
<title>Node10&#45;&gt;Node11</title>
<g id="a_edge10_Node000010_Node000011"><a xlink:title=" ">
<path fill="none" stroke="#63b8ff" d="M488.2,-164.98C474.4,-156.77 453.26,-144.18 436.99,-134.49"/>
<polygon fill="#63b8ff" stroke="#63b8ff" points="438.44,-131.28 428.06,-129.17 434.86,-137.29 438.44,-131.28"/>
</a>
</g>
</g>
<!-- Node14 -->
<g id="Node000014" class="node">
<title>Node14</title>
<g id="a_Node000014"><a xlink:href="no__os__uart_8h.html" target="_top" xlink:title="Header file of UART interface.">
<polygon fill="white" stroke="#666666" points="546,-129 467,-129 467,-110 546,-110 546,-129"/>
<text text-anchor="middle" x="506.5" y="-117" font-family="Helvetica,sans-Serif" font-size="10.00">no_os_uart.h</text>
</a>
</g>
</g>
<!-- Node10&#45;&gt;Node14 -->
<g id="edge15_Node000010_Node000014" class="edge">
<title>Node10&#45;&gt;Node14</title>
<g id="a_edge15_Node000010_Node000014"><a xlink:title=" ">
<path fill="none" stroke="#63b8ff" d="M503.16,-164.75C503.68,-157.8 504.44,-147.85 505.09,-139.13"/>
<polygon fill="#63b8ff" stroke="#63b8ff" points="508.59,-139.32 505.85,-129.09 501.61,-138.8 508.59,-139.32"/>
</a>
</g>
</g>
<!-- Node11&#45;&gt;Node9 -->
<g id="edge12_Node000011_Node000009" class="edge">
<title>Node11&#45;&gt;Node9</title>
<g id="a_edge12_Node000011_Node000009"><a xlink:title=" ">
<path fill="none" stroke="#63b8ff" d="M401.8,-109.66C377.27,-91.14 320.25,-48.08 290.06,-25.28"/>
<polygon fill="#63b8ff" stroke="#63b8ff" points="292.05,-22.39 281.96,-19.16 287.83,-27.98 292.05,-22.39"/>
</a>
</g>
</g>
<!-- Node12 -->
<g id="Node000012" class="node">
<title>Node12</title>
<g id="a_Node000012"><a xlink:title=" ">
<polygon fill="#e0e0e0" stroke="#999999" points="499.5,-19 437.5,-19 437.5,0 499.5,0 499.5,-19"/>
<text text-anchor="middle" x="468.5" y="-7" font-family="Helvetica,sans-Serif" font-size="10.00">stdbool.h</text>
</a>
</g>
</g>
<!-- Node11&#45;&gt;Node12 -->
<g id="edge11_Node000011_Node000012" class="edge">
<title>Node11&#45;&gt;Node12</title>
<g id="a_edge11_Node000011_Node000012"><a xlink:title=" ">
<path fill="none" stroke="#63b8ff" d="M418,-109.66C427.03,-91.93 447.5,-51.73 459.43,-28.32"/>
<polygon fill="#63b8ff" stroke="#63b8ff" points="462.67,-29.66 464.09,-19.16 456.43,-26.48 462.67,-29.66"/>
</a>
</g>
</g>
<!-- Node13 -->
<g id="Node000013" class="node">
<title>Node13</title>
<g id="a_Node000013"><a xlink:href="no__os__circular__buffer_8h.html" target="_top" xlink:title="Circular buffer library header.">
<polygon fill="white" stroke="#666666" points="288.5,-74 160.5,-74 160.5,-55 288.5,-55 288.5,-74"/>
<text text-anchor="middle" x="224.5" y="-62" font-family="Helvetica,sans-Serif" font-size="10.00">no_os_circular_buffer.h</text>
</a>
</g>
</g>
<!-- Node11&#45;&gt;Node13 -->
<g id="edge13_Node000011_Node000013" class="edge">
<title>Node11&#45;&gt;Node13</title>
<g id="a_edge13_Node000011_Node000013"><a xlink:title=" ">
<path fill="none" stroke="#63b8ff" d="M383.13,-109.98C351.13,-101.01 300.54,-86.82 265.12,-76.89"/>
<polygon fill="#63b8ff" stroke="#63b8ff" points="265.68,-73.41 255.1,-74.08 263.79,-80.15 265.68,-73.41"/>
</a>
</g>
</g>
<!-- Node13&#45;&gt;Node9 -->
<g id="edge14_Node000013_Node000009" class="edge">
<title>Node13&#45;&gt;Node9</title>
<g id="a_edge14_Node000013_Node000009"><a xlink:title=" ">
<path fill="none" stroke="#63b8ff" d="M232.1,-54.75C238.66,-47.18 248.32,-36.05 256.31,-26.84"/>
<polygon fill="#63b8ff" stroke="#63b8ff" points="259.13,-28.94 263.05,-19.09 253.85,-24.35 259.13,-28.94"/>
</a>
</g>
</g>
<!-- Node14&#45;&gt;Node9 -->
<g id="edge16_Node000014_Node000009" class="edge">
<title>Node14&#45;&gt;Node9</title>
<g id="a_edge16_Node000014_Node000009"><a xlink:title=" ">
<path fill="none" stroke="#63b8ff" d="M487.59,-109.84C446.14,-90.88 347.15,-45.58 298.48,-23.31"/>
<polygon fill="#63b8ff" stroke="#63b8ff" points="299.73,-20.03 289.18,-19.05 296.81,-26.39 299.73,-20.03"/>
</a>
</g>
</g>
<!-- Node14&#45;&gt;Node12 -->
<g id="edge17_Node000014_Node000012" class="edge">
<title>Node14&#45;&gt;Node12</title>
<g id="a_edge17_Node000014_Node000012"><a xlink:title=" ">
<path fill="none" stroke="#63b8ff" d="M502.42,-109.75C498.35,-100.86 492.07,-86.64 487.5,-74 482.11,-59.1 477.02,-41.86 473.47,-29.11"/>
<polygon fill="#63b8ff" stroke="#63b8ff" points="476.78,-27.96 470.78,-19.23 470.03,-29.8 476.78,-27.96"/>
</a>
</g>
</g>
<!-- Node15 -->
<g id="Node000015" class="node">
<title>Node15</title>
<g id="a_Node000015"><a xlink:href="no__os__lf256fifo_8h.html" target="_top" xlink:title="SPSC lock&#45;free fifo of fixed size (256), specialized for UART.">
<polygon fill="white" stroke="#666666" points="596.5,-74 496.5,-74 496.5,-55 596.5,-55 596.5,-74"/>
<text text-anchor="middle" x="546.5" y="-62" font-family="Helvetica,sans-Serif" font-size="10.00">no_os_lf256fifo.h</text>
</a>
</g>
</g>
<!-- Node14&#45;&gt;Node15 -->
<g id="edge18_Node000014_Node000015" class="edge">
<title>Node14&#45;&gt;Node15</title>
<g id="a_edge18_Node000014_Node000015"><a xlink:title=" ">
<path fill="none" stroke="#63b8ff" d="M513.11,-109.75C518.76,-102.26 527.04,-91.28 533.95,-82.13"/>
<polygon fill="#63b8ff" stroke="#63b8ff" points="536.79,-84.18 540.02,-74.09 531.2,-79.96 536.79,-84.18"/>
</a>
</g>
</g>
<!-- Node15&#45;&gt;Node2 -->
<g id="edge19_Node000015_Node000002" class="edge">
<title>Node15&#45;&gt;Node2</title>
<g id="a_edge19_Node000015_Node000002"><a xlink:title=" ">
<path fill="none" stroke="#63b8ff" d="M568.83,-54.98C591.7,-46.27 627.46,-32.63 653.36,-22.75"/>
<polygon fill="#63b8ff" stroke="#63b8ff" points="654.66,-26 662.76,-19.17 652.17,-19.46 654.66,-26"/>
</a>
</g>
</g>
<!-- Node15&#45;&gt;Node9 -->
<g id="edge20_Node000015_Node000009" class="edge">
<title>Node15&#45;&gt;Node9</title>
<g id="a_edge20_Node000015_Node000009"><a xlink:title=" ">
<path fill="none" stroke="#63b8ff" d="M502.16,-54.98C448.1,-44.6 357.73,-27.25 307.33,-17.57"/>
<polygon fill="#63b8ff" stroke="#63b8ff" points="307.69,-14.08 297.21,-15.63 306.37,-20.95 307.69,-14.08"/>
</a>
</g>
</g>
<!-- Node15&#45;&gt;Node12 -->
<g id="edge21_Node000015_Node000012" class="edge">
<title>Node15&#45;&gt;Node12</title>
<g id="a_edge21_Node000015_Node000012"><a xlink:title=" ">
<path fill="none" stroke="#63b8ff" d="M533.97,-54.98C522.1,-46.92 504.04,-34.65 489.89,-25.03"/>
<polygon fill="#63b8ff" stroke="#63b8ff" points="491.5,-21.9 481.26,-19.17 487.56,-27.69 491.5,-21.9"/>
</a>
</g>
</g>
<!-- Node16&#45;&gt;Node10 -->
<g id="edge23_Node000016_Node000010" class="edge">
<title>Node16&#45;&gt;Node10</title>
<g id="a_edge23_Node000016_Node000010"><a xlink:title=" ">
<path fill="none" stroke="#63b8ff" d="M474.11,-219.75C478.82,-212.42 485.67,-201.73 491.47,-192.7"/>
<polygon fill="#63b8ff" stroke="#63b8ff" points="494.54,-194.4 496.99,-184.09 488.64,-190.62 494.54,-194.4"/>
</a>
</g>
</g>
<!-- Node16&#45;&gt;Node17 -->
<g id="edge24_Node000016_Node000017" class="edge">
<title>Node16&#45;&gt;Node17</title>
<g id="a_edge24_Node000016_Node000017"><a xlink:title=" ">
<path fill="none" stroke="#63b8ff" d="M462.17,-219.79C452.28,-206.65 432.07,-181.53 410.5,-165 393.66,-152.09 372.52,-141.09 355.41,-133.26"/>
<polygon fill="#63b8ff" stroke="#63b8ff" points="356.43,-129.88 345.87,-129.02 353.59,-136.28 356.43,-129.88"/>
</a>
</g>
</g>
<!-- Node17&#45;&gt;Node9 -->
<g id="edge26_Node000017_Node000009" class="edge">
<title>Node17&#45;&gt;Node9</title>
<g id="a_edge26_Node000017_Node000009"><a xlink:title=" ">
<path fill="none" stroke="#63b8ff" d="M288.89,-114.45C243.29,-108.44 168.17,-95.51 151.5,-74 126.59,-41.88 190.18,-24.12 233.7,-16.02"/>
<polygon fill="#63b8ff" stroke="#63b8ff" points="234.48,-19.43 243.72,-14.25 233.26,-12.54 234.48,-19.43"/>
</a>
</g>
</g>
<!-- Node17&#45;&gt;Node12 -->
<g id="edge25_Node000017_Node000012" class="edge">
<title>Node17&#45;&gt;Node12</title>
<g id="a_edge25_Node000017_Node000012"><a xlink:title=" ">
<path fill="none" stroke="#63b8ff" d="M336.28,-109.66C360.98,-91.14 418.4,-48.08 448.8,-25.28"/>
<polygon fill="#63b8ff" stroke="#63b8ff" points="451.06,-27.96 456.96,-19.16 446.86,-22.36 451.06,-27.96"/>
</a>
</g>
</g>
<!-- Node17&#45;&gt;Node18 -->
<g id="edge27_Node000017_Node000018" class="edge">
<title>Node17&#45;&gt;Node18</title>
<g id="a_edge27_Node000017_Node000018"><a xlink:title=" ">
<path fill="none" stroke="#63b8ff" d="M360.34,-111.61C363.44,-111.05 366.52,-110.51 369.5,-110 470.92,-92.69 499.15,-91.5 604.69,-74.09"/>
<polygon fill="#63b8ff" stroke="#63b8ff" points="605.51,-77.5 614.81,-72.41 604.37,-70.6 605.51,-77.5"/>
</a>
</g>
</g>
<!-- Node19 -->
<g id="Node000019" class="node">
<title>Node19</title>
<g id="a_Node000019"><a xlink:href="no__os__gpio_8h.html" target="_top" xlink:title="Header file of GPIO Interface.">
<polygon fill="white" stroke="#666666" points="104.5,-74 24.5,-74 24.5,-55 104.5,-55 104.5,-74"/>
<text text-anchor="middle" x="64.5" y="-62" font-family="Helvetica,sans-Serif" font-size="10.00">no_os_gpio.h</text>
</a>
</g>
</g>
<!-- Node17&#45;&gt;Node19 -->
<g id="edge31_Node000017_Node000019" class="edge">
<title>Node17&#45;&gt;Node19</title>
<g id="a_edge31_Node000017_Node000019"><a xlink:title=" ">
<path fill="none" stroke="#63b8ff" d="M288.89,-111.24C243.78,-102.05 165.76,-86.14 114.64,-75.72"/>
<polygon fill="#63b8ff" stroke="#63b8ff" points="115.29,-72.28 104.79,-73.71 113.89,-79.14 115.29,-72.28"/>
</a>
</g>
</g>
<!-- Node18&#45;&gt;Node2 -->
<g id="edge29_Node000018_Node000002" class="edge">
<title>Node18&#45;&gt;Node2</title>
<g id="a_edge29_Node000018_Node000002"><a xlink:title=" ">
<path fill="none" stroke="#63b8ff" d="M657.95,-54.75C662.51,-47.42 669.17,-36.73 674.79,-27.7"/>
<polygon fill="#63b8ff" stroke="#63b8ff" points="677.84,-29.43 680.15,-19.09 671.9,-25.73 677.84,-29.43"/>
</a>
</g>
</g>
<!-- Node18&#45;&gt;Node9 -->
<g id="edge28_Node000018_Node000009" class="edge">
<title>Node18&#45;&gt;Node9</title>
<g id="a_edge28_Node000018_Node000009"><a xlink:title=" ">
<path fill="none" stroke="#63b8ff" d="M614.82,-56.52C611.67,-55.99 608.53,-55.48 605.5,-55 497.28,-38.04 368.73,-22.15 307.07,-14.79"/>
<polygon fill="#63b8ff" stroke="#63b8ff" points="307.39,-11.3 297.05,-13.6 306.57,-18.25 307.39,-11.3"/>
</a>
</g>
</g>
<!-- Node18&#45;&gt;Node12 -->
<g id="edge30_Node000018_Node000012" class="edge">
<title>Node18&#45;&gt;Node12</title>
<g id="a_edge30_Node000018_Node000012"><a xlink:title=" ">
<path fill="none" stroke="#63b8ff" d="M622.94,-54.98C591.78,-46.01 542.53,-31.82 508.04,-21.89"/>
<polygon fill="#63b8ff" stroke="#63b8ff" points="508.87,-18.49 498.29,-19.08 506.93,-25.21 508.87,-18.49"/>
</a>
</g>
</g>
<!-- Node19&#45;&gt;Node9 -->
<g id="edge32_Node000019_Node000009" class="edge">
<title>Node19&#45;&gt;Node9</title>
<g id="a_edge32_Node000019_Node000009"><a xlink:title=" ">
<path fill="none" stroke="#63b8ff" d="M97.6,-54.98C134.87,-45.4 195.26,-29.86 233.91,-19.91"/>
<polygon fill="#63b8ff" stroke="#63b8ff" points="234.91,-23.27 243.72,-17.39 233.16,-16.49 234.91,-23.27"/>
</a>
</g>
</g>
<!-- Node20&#45;&gt;Node2 -->
<g id="edge36_Node000020_Node000002" class="edge">
<title>Node20&#45;&gt;Node2</title>
<g id="a_edge36_Node000020_Node000002"><a xlink:title=" ">
<path fill="none" stroke="#63b8ff" d="M688.54,-219.78C694.21,-194.28 709.13,-117.7 699.5,-55 698.15,-46.19 695.37,-36.74 692.65,-28.82"/>
<polygon fill="#63b8ff" stroke="#63b8ff" points="695.84,-27.35 689.1,-19.18 689.27,-29.77 695.84,-27.35"/>
</a>
</g>
</g>
<!-- Node20&#45;&gt;Node3 -->
<g id="edge35_Node000020_Node000003" class="edge">
<title>Node20&#45;&gt;Node3</title>
<g id="a_edge35_Node000020_Node000003"><a xlink:title=" ">
<path fill="none" stroke="#63b8ff" d="M680.23,-219.75C674.91,-212.34 667.14,-201.5 660.62,-192.41"/>
<polygon fill="#63b8ff" stroke="#63b8ff" points="663.33,-190.18 654.66,-184.09 657.64,-194.26 663.33,-190.18"/>
</a>
</g>
</g>
</g>
</svg>
