<?xml version="1.0" encoding="UTF-8" standalone="no"?>
<!DOCTYPE svg PUBLIC "-//W3C//DTD SVG 1.1//EN"
 "http://www.w3.org/Graphics/SVG/1.1/DTD/svg11.dtd">
<!-- Generated by graphviz version 2.43.0 (0)
 -->
<!-- Title: max14906_iio_remove Pages: 1 -->
<svg width="356pt" height="64pt"
 viewBox="0.00 0.00 356.00 64.00" xmlns="http://www.w3.org/2000/svg" xmlns:xlink="http://www.w3.org/1999/xlink">
<g id="graph0" class="graph" transform="scale(1 1) rotate(0) translate(4 60)">
<title>max14906_iio_remove</title>
<!-- Node1 -->
<g id="Node000001" class="node">
<title>Node1</title>
<g id="a_Node000001"><a xlink:title="Free resources allocated by the init function.">
<polygon fill="#999999" stroke="#666666" points="348,-37 220,-37 220,-18 348,-18 348,-37"/>
<text text-anchor="middle" x="284" y="-25" font-family="Helvetica,sans-Serif" font-size="10.00">max14906_iio_remove</text>
</a>
</g>
</g>
<!-- Node2 -->
<g id="Node000002" class="node">
<title>Node2</title>
<g id="a_Node000002"><a xlink:href="max14906_2src_2examples_2iio__example_2iio__example_8c.html#a7d58fb707a91d4615d3bf949fabaa1e2" target="_top" xlink:title="IIO example main execution.">
<polygon fill="white" stroke="#666666" points="184,-56 77,-56 77,-37 184,-37 184,-56"/>
<text text-anchor="middle" x="130.5" y="-44" font-family="Helvetica,sans-Serif" font-size="10.00">iio_example_main</text>
</a>
</g>
</g>
<!-- Node1&#45;&gt;Node2 -->
<g id="edge1_Node000001_Node000002" class="edge">
<title>Node1&#45;&gt;Node2</title>
<g id="a_edge1_Node000001_Node000002"><a xlink:title=" ">
<path fill="none" stroke="#63b8ff" d="M209.57,-36.71C200.96,-37.79 192.31,-38.87 184.07,-39.91"/>
<polygon fill="#63b8ff" stroke="#63b8ff" points="210.14,-40.16 219.63,-35.45 209.27,-33.22 210.14,-40.16"/>
</a>
</g>
</g>
<!-- Node3 -->
<g id="Node000003" class="node">
<title>Node3</title>
<g id="a_Node000003"><a xlink:href="swiot__fw_8c.html#a427f9beea005fab8fccd9774acb53fc3" target="_top" xlink:title="IIO example main execution.">
<polygon fill="white" stroke="#666666" points="176.5,-19 84.5,-19 84.5,0 176.5,0 176.5,-19"/>
<text text-anchor="middle" x="130.5" y="-7" font-family="Helvetica,sans-Serif" font-size="10.00">swiot_firmware</text>
</a>
</g>
</g>
<!-- Node1&#45;&gt;Node3 -->
<g id="edge2_Node000001_Node000003" class="edge">
<title>Node1&#45;&gt;Node3</title>
<g id="a_edge2_Node000001_Node000003"><a xlink:title=" ">
<path fill="none" stroke="#63b8ff" d="M209.41,-18.76C198.23,-17.43 186.98,-16.09 176.65,-14.86"/>
<polygon fill="#63b8ff" stroke="#63b8ff" points="209.29,-22.27 219.63,-19.97 210.11,-15.32 209.29,-22.27"/>
</a>
</g>
</g>
<!-- Node4 -->
<g id="Node000004" class="node">
<title>Node4</title>
<g id="a_Node000004"><a xlink:href="swiot1l_2src_2platform_2maxim_2main_8c.html#ae66f6b31b5ad750f1fe042a706a4e3d4" target="_top" xlink:title="Main function.">
<polygon fill="white" stroke="#666666" points="41,-19 0,-19 0,0 41,0 41,-19"/>
<text text-anchor="middle" x="20.5" y="-7" font-family="Helvetica,sans-Serif" font-size="10.00">main</text>
</a>
</g>
</g>
<!-- Node3&#45;&gt;Node4 -->
<g id="edge3_Node000003_Node000004" class="edge">
<title>Node3&#45;&gt;Node4</title>
<g id="a_edge3_Node000003_Node000004"><a xlink:title=" ">
<path fill="none" stroke="#63b8ff" d="M74.02,-9.5C62.26,-9.5 50.59,-9.5 41.25,-9.5"/>
<polygon fill="#63b8ff" stroke="#63b8ff" points="74.32,-13 84.32,-9.5 74.32,-6 74.32,-13"/>
</a>
</g>
</g>
</g>
</svg>
