<?xml version="1.0" encoding="UTF-8" standalone="no"?>
<!DOCTYPE svg PUBLIC "-//W3C//DTD SVG 1.1//EN"
 "http://www.w3.org/Graphics/SVG/1.1/DTD/svg11.dtd">
<!-- Generated by graphviz version 2.43.0 (0)
 -->
<!-- Title: projects/iio_demo/src/examples/iio_example/iio_example.c Pages: 1 -->
<!--zoomable 324 -->

<svg id="main" version="1.1" xmlns="http://www.w3.org/2000/svg" xmlns:xlink="http://www.w3.org/1999/xlink" xml:space="preserve" onload="init(evt)">

<style type="text/css"><![CDATA[
.node, .edge {opacity: 0.7;}
.node.selected, .edge.selected {opacity: 1;}
.edge:hover path { stroke: red; }
.edge:hover polygon { stroke: red; fill: red; }
]]></style>

<defs>
  <circle id="rim" cx="0" cy="0" r="7"/>
  <circle id="rim2" cx="0" cy="0" r="3.5"/>
  <g id="zoomPlus">
    <use xlink:href="#rim" fill="#404040"><set attributeName="fill" to="#808080" begin="zoomplus.mouseover" end="zoomplus.mouseout"/></use>
    <path d="M-4,0h8M0,-4v8" fill="none" stroke="white" stroke-width="1.5" pointer-events="none"/>
  </g>
  <g id="zoomMin">
    <use xlink:href="#rim" fill="#404040"><set attributeName="fill" to="#808080" begin="zoomminus.mouseover" end="zoomminus.mouseout"/></use>
    <path d="M-4,0h8" fill="none" stroke="white" stroke-width="1.5" pointer-events="none"/>
  </g>
  <g id="arrowUp" transform="translate(30 24)">
    <use xlink:href="#rim"/>
    <path pointer-events="none" fill="none" stroke="white" stroke-width="1.5" d="M0,-3.0v7 M-2.5,-0.5L0,-3.0L2.5,-0.5"/>
  </g>
  <g id="arrowRight" transform="rotate(90) translate(36 -43)">
    <use xlink:href="#rim"/>
    <path pointer-events="none" fill="none" stroke="white" stroke-width="1.5" d="M0,-3.0v7 M-2.5,-0.5L0,-3.0L2.5,-0.5"/>
  </g>
  <g id="arrowDown" transform="rotate(180) translate(-30 -48)">
    <use xlink:href="#rim"/>
    <path pointer-events="none" fill="none" stroke="white" stroke-width="1.5" d="M0,-3.0v7 M-2.5,-0.5L0,-3.0L2.5,-0.5"/>
  </g>
  <g id="arrowLeft" transform="rotate(270) translate(-36 17)">
    <use xlink:href="#rim"/>
    <path pointer-events="none" fill="none" stroke="white" stroke-width="1.5" d="M0,-3.0v7 M-2.5,-0.5L0,-3.0L2.5,-0.5"/>
  </g>
  <g id="resetDef">
    <use xlink:href="#rim2" fill="#404040"><set attributeName="fill" to="#808080" begin="reset.mouseover" end="reset.mouseout"/></use>
  </g>
</defs>
<script type="application/ecmascript">
var viewWidth = 570;
var viewHeight = 324;
var sectionId = 'dynsection-0';
</script>
<script type="application/ecmascript" xlink:href="svg.min.js"/>
<svg id="graph" class="graph">
<g id="viewport">
<title>projects/iio_demo/src/examples/iio_example/iio_example.c</title>
<!-- Node1 -->
<g id="Node000001" class="node">
<title>Node1</title>
<g id="a_Node000001"><a xlink:title="Implementation of IIO example for iio_demo project.">
<polygon fill="#999999" stroke="#666666" points="374.5,-316 243.5,-316 243.5,-275 374.5,-275 374.5,-316"/>
<text text-anchor="start" x="251.5" y="-304" font-family="Helvetica,sans-Serif" font-size="10.00">projects/iio_demo/src</text>
<text text-anchor="start" x="251.5" y="-293" font-family="Helvetica,sans-Serif" font-size="10.00">/examples/iio_example</text>
<text text-anchor="middle" x="309" y="-282" font-family="Helvetica,sans-Serif" font-size="10.00">/iio_example.c</text>
</a>
</g>
</g>
<!-- Node2 -->
<g id="Node000002" class="node">
<title>Node2</title>
<g id="a_Node000002"><a xlink:href="iio__demo_2src_2examples_2iio__example_2iio__example_8h.html" target="_top" xlink:title="IIO example header for iio_demo project.">
<polygon fill="white" stroke="#666666" points="133,-239 47,-239 47,-220 133,-220 133,-239"/>
<text text-anchor="middle" x="90" y="-227" font-family="Helvetica,sans-Serif" font-size="10.00">iio_example.h</text>
</a>
</g>
</g>
<!-- Node1&#45;&gt;Node2 -->
<g id="edge1_Node000001_Node000002" class="edge">
<title>Node1&#45;&gt;Node2</title>
<g id="a_edge1_Node000001_Node000002"><a xlink:title=" ">
<path fill="none" stroke="#63b8ff" d="M243.29,-275.3C206,-264.4 160.6,-251.13 128.93,-241.88"/>
<polygon fill="#63b8ff" stroke="#63b8ff" points="129.73,-238.47 119.15,-239.02 127.77,-245.18 129.73,-238.47"/>
</a>
</g>
</g>
<!-- Node3 -->
<g id="Node000003" class="node">
<title>Node3</title>
<g id="a_Node000003"><a xlink:href="iio__adc__demo_8h.html" target="_top" xlink:title="Header file of ADC Demo iio.">
<polygon fill="white" stroke="#666666" points="244.5,-239 151.5,-239 151.5,-220 244.5,-220 244.5,-239"/>
<text text-anchor="middle" x="198" y="-227" font-family="Helvetica,sans-Serif" font-size="10.00">iio_adc_demo.h</text>
</a>
</g>
</g>
<!-- Node1&#45;&gt;Node3 -->
<g id="edge2_Node000001_Node000003" class="edge">
<title>Node1&#45;&gt;Node3</title>
<g id="a_edge2_Node000001_Node000003"><a xlink:title=" ">
<path fill="none" stroke="#63b8ff" d="M275.09,-274.95C257.88,-265.03 237.39,-253.21 221.86,-244.25"/>
<polygon fill="#63b8ff" stroke="#63b8ff" points="223.31,-241.05 212.9,-239.09 219.82,-247.12 223.31,-241.05"/>
</a>
</g>
</g>
<!-- Node11 -->
<g id="Node000011" class="node">
<title>Node11</title>
<g id="a_Node000011"><a xlink:href="iio__dac__demo_8h.html" target="_top" xlink:title="Header file of DAC Demo iio.">
<polygon fill="white" stroke="#666666" points="355.5,-239 262.5,-239 262.5,-220 355.5,-220 355.5,-239"/>
<text text-anchor="middle" x="309" y="-227" font-family="Helvetica,sans-Serif" font-size="10.00">iio_dac_demo.h</text>
</a>
</g>
</g>
<!-- Node1&#45;&gt;Node11 -->
<g id="edge14_Node000001_Node000011" class="edge">
<title>Node1&#45;&gt;Node11</title>
<g id="a_edge14_Node000001_Node000011"><a xlink:title=" ">
<path fill="none" stroke="#63b8ff" d="M309,-274.95C309,-266.85 309,-257.5 309,-249.47"/>
<polygon fill="#63b8ff" stroke="#63b8ff" points="312.5,-249.26 309,-239.26 305.5,-249.26 312.5,-249.26"/>
</a>
</g>
</g>
<!-- Node13 -->
<g id="Node000013" class="node">
<title>Node13</title>
<g id="a_Node000013"><a xlink:title=" ">
<polygon fill="#e0e0e0" stroke="#999999" points="561.5,-239 466.5,-239 466.5,-220 561.5,-220 561.5,-239"/>
<text text-anchor="middle" x="514" y="-227" font-family="Helvetica,sans-Serif" font-size="10.00">common_data.h</text>
</a>
</g>
</g>
<!-- Node1&#45;&gt;Node13 -->
<g id="edge20_Node000001_Node000013" class="edge">
<title>Node1&#45;&gt;Node13</title>
<g id="a_edge20_Node000001_Node000013"><a xlink:title=" ">
<path fill="none" stroke="#63b8ff" d="M371.62,-274.95C406.06,-264.2 447.62,-251.22 476.93,-242.07"/>
<polygon fill="#63b8ff" stroke="#63b8ff" points="478.25,-245.33 486.75,-239.01 476.16,-238.65 478.25,-245.33"/>
</a>
</g>
</g>
<!-- Node14 -->
<g id="Node000014" class="node">
<title>Node14</title>
<g id="a_Node000014"><a xlink:href="no__os__util_8h.html" target="_top" xlink:title="Header file of utility functions.">
<polygon fill="white" stroke="#666666" points="448.5,-239 373.5,-239 373.5,-220 448.5,-220 448.5,-239"/>
<text text-anchor="middle" x="411" y="-227" font-family="Helvetica,sans-Serif" font-size="10.00">no_os_util.h</text>
</a>
</g>
</g>
<!-- Node1&#45;&gt;Node14 -->
<g id="edge21_Node000001_Node000014" class="edge">
<title>Node1&#45;&gt;Node14</title>
<g id="a_edge21_Node000001_Node000014"><a xlink:title=" ">
<path fill="none" stroke="#63b8ff" d="M340.16,-274.95C355.82,-265.12 374.45,-253.43 388.67,-244.51"/>
<polygon fill="#63b8ff" stroke="#63b8ff" points="390.7,-247.37 397.31,-239.09 386.98,-241.44 390.7,-247.37"/>
</a>
</g>
</g>
<!-- Node4 -->
<g id="Node000004" class="node">
<title>Node4</title>
<g id="a_Node000004"><a xlink:title=" ">
<polygon fill="#e0e0e0" stroke="#999999" points="317.5,-184 264.5,-184 264.5,-165 317.5,-165 317.5,-184"/>
<text text-anchor="middle" x="291" y="-172" font-family="Helvetica,sans-Serif" font-size="10.00">stdlib.h</text>
</a>
</g>
</g>
<!-- Node3&#45;&gt;Node4 -->
<g id="edge3_Node000003_Node000004" class="edge">
<title>Node3&#45;&gt;Node4</title>
<g id="a_edge3_Node000003_Node000004"><a xlink:title=" ">
<path fill="none" stroke="#63b8ff" d="M212.94,-219.98C227.5,-211.69 249.87,-198.94 266.93,-189.22"/>
<polygon fill="#63b8ff" stroke="#63b8ff" points="268.83,-192.16 275.79,-184.17 265.36,-186.08 268.83,-192.16"/>
</a>
</g>
</g>
<!-- Node5 -->
<g id="Node000005" class="node">
<title>Node5</title>
<g id="a_Node000005"><a xlink:href="iio__types_8h.html" target="_top" xlink:title="Header file for iio_types.">
<polygon fill="white" stroke="#666666" points="271,-129 201,-129 201,-110 271,-110 271,-129"/>
<text text-anchor="middle" x="236" y="-117" font-family="Helvetica,sans-Serif" font-size="10.00">iio_types.h</text>
</a>
</g>
</g>
<!-- Node3&#45;&gt;Node5 -->
<g id="edge4_Node000003_Node000005" class="edge">
<title>Node3&#45;&gt;Node5</title>
<g id="a_edge4_Node000003_Node000005"><a xlink:title=" ">
<path fill="none" stroke="#63b8ff" d="M201.11,-219.66C207.32,-202.01 221.37,-162.09 229.62,-138.64"/>
<polygon fill="#63b8ff" stroke="#63b8ff" points="232.94,-139.75 232.95,-129.16 226.33,-137.43 232.94,-139.75"/>
</a>
</g>
</g>
<!-- Node9 -->
<g id="Node000009" class="node">
<title>Node9</title>
<g id="a_Node000009"><a xlink:href="adc__demo_8h.html" target="_top" xlink:title="Header file of ADC Demo Driver.">
<polygon fill="white" stroke="#666666" points="154,-184 78,-184 78,-165 154,-165 154,-184"/>
<text text-anchor="middle" x="116" y="-172" font-family="Helvetica,sans-Serif" font-size="10.00">adc_demo.h</text>
</a>
</g>
</g>
<!-- Node3&#45;&gt;Node9 -->
<g id="edge9_Node000003_Node000009" class="edge">
<title>Node3&#45;&gt;Node9</title>
<g id="a_edge9_Node000003_Node000009"><a xlink:title=" ">
<path fill="none" stroke="#63b8ff" d="M184.83,-219.98C172.23,-211.84 153,-199.41 138.06,-189.76"/>
<polygon fill="#63b8ff" stroke="#63b8ff" points="139.71,-186.66 129.41,-184.17 135.91,-192.54 139.71,-186.66"/>
</a>
</g>
</g>
<!-- Node6 -->
<g id="Node000006" class="node">
<title>Node6</title>
<g id="a_Node000006"><a xlink:title=" ">
<polygon fill="#e0e0e0" stroke="#999999" points="374,-74 312,-74 312,-55 374,-55 374,-74"/>
<text text-anchor="middle" x="343" y="-62" font-family="Helvetica,sans-Serif" font-size="10.00">stdbool.h</text>
</a>
</g>
</g>
<!-- Node5&#45;&gt;Node6 -->
<g id="edge5_Node000005_Node000006" class="edge">
<title>Node5&#45;&gt;Node6</title>
<g id="a_edge5_Node000005_Node000006"><a xlink:title=" ">
<path fill="none" stroke="#63b8ff" d="M253.19,-109.98C270.25,-101.54 296.63,-88.47 316.4,-78.68"/>
<polygon fill="#63b8ff" stroke="#63b8ff" points="318.09,-81.75 325.5,-74.17 314.98,-75.47 318.09,-81.75"/>
</a>
</g>
</g>
<!-- Node7 -->
<g id="Node000007" class="node">
<title>Node7</title>
<g id="a_Node000007"><a xlink:title=" ">
<polygon fill="#e0e0e0" stroke="#999999" points="264.5,-19 211.5,-19 211.5,0 264.5,0 264.5,-19"/>
<text text-anchor="middle" x="238" y="-7" font-family="Helvetica,sans-Serif" font-size="10.00">stdint.h</text>
</a>
</g>
</g>
<!-- Node5&#45;&gt;Node7 -->
<g id="edge6_Node000005_Node000007" class="edge">
<title>Node5&#45;&gt;Node7</title>
<g id="a_edge6_Node000005_Node000007"><a xlink:title=" ">
<path fill="none" stroke="#63b8ff" d="M243.94,-109.75C251.03,-101.3 260.9,-87.79 265,-74 269.83,-57.74 261.05,-40.03 252.25,-27.46"/>
<polygon fill="#63b8ff" stroke="#63b8ff" points="254.87,-25.13 246.02,-19.31 249.31,-29.38 254.87,-25.13"/>
</a>
</g>
</g>
<!-- Node8 -->
<g id="Node000008" class="node">
<title>Node8</title>
<g id="a_Node000008"><a xlink:href="no__os__circular__buffer_8h.html" target="_top" xlink:title="Circular buffer library header.">
<polygon fill="white" stroke="#666666" points="256,-74 128,-74 128,-55 256,-55 256,-74"/>
<text text-anchor="middle" x="192" y="-62" font-family="Helvetica,sans-Serif" font-size="10.00">no_os_circular_buffer.h</text>
</a>
</g>
</g>
<!-- Node5&#45;&gt;Node8 -->
<g id="edge7_Node000005_Node000008" class="edge">
<title>Node5&#45;&gt;Node8</title>
<g id="a_edge7_Node000005_Node000008"><a xlink:title=" ">
<path fill="none" stroke="#63b8ff" d="M228.73,-109.75C222.46,-102.18 213.21,-91.05 205.57,-81.84"/>
<polygon fill="#63b8ff" stroke="#63b8ff" points="208.21,-79.55 199.13,-74.09 202.83,-84.02 208.21,-79.55"/>
</a>
</g>
</g>
<!-- Node8&#45;&gt;Node7 -->
<g id="edge8_Node000008_Node000007" class="edge">
<title>Node8&#45;&gt;Node7</title>
<g id="a_edge8_Node000008_Node000007"><a xlink:title=" ">
<path fill="none" stroke="#63b8ff" d="M199.6,-54.75C206.16,-47.18 215.82,-36.05 223.81,-26.84"/>
<polygon fill="#63b8ff" stroke="#63b8ff" points="226.63,-28.94 230.55,-19.09 221.35,-24.35 226.63,-28.94"/>
</a>
</g>
</g>
<!-- Node9&#45;&gt;Node5 -->
<g id="edge11_Node000009_Node000005" class="edge">
<title>Node9&#45;&gt;Node5</title>
<g id="a_edge11_Node000009_Node000005"><a xlink:title=" ">
<path fill="none" stroke="#63b8ff" d="M135.28,-164.98C154.67,-156.42 184.81,-143.11 207.07,-133.28"/>
<polygon fill="#63b8ff" stroke="#63b8ff" points="208.64,-136.41 216.37,-129.17 205.81,-130.01 208.64,-136.41"/>
</a>
</g>
</g>
<!-- Node9&#45;&gt;Node7 -->
<g id="edge10_Node000009_Node000007" class="edge">
<title>Node9&#45;&gt;Node7</title>
<g id="a_edge10_Node000009_Node000007"><a xlink:title=" ">
<path fill="none" stroke="#63b8ff" d="M113.22,-164.74C107.08,-143.6 94.76,-89.02 119,-55 137.67,-28.8 173.7,-18.01 201.24,-13.57"/>
<polygon fill="#63b8ff" stroke="#63b8ff" points="201.91,-17.01 211.33,-12.17 200.94,-10.08 201.91,-17.01"/>
</a>
</g>
</g>
<!-- Node10 -->
<g id="Node000010" class="node">
<title>Node10</title>
<g id="a_Node000010"><a xlink:href="no__os__irq_8h.html" target="_top" xlink:title="Header file of IRQ interface.">
<polygon fill="white" stroke="#666666" points="72,-129 0,-129 0,-110 72,-110 72,-129"/>
<text text-anchor="middle" x="36" y="-117" font-family="Helvetica,sans-Serif" font-size="10.00">no_os_irq.h</text>
</a>
</g>
</g>
<!-- Node9&#45;&gt;Node10 -->
<g id="edge12_Node000009_Node000010" class="edge">
<title>Node9&#45;&gt;Node10</title>
<g id="a_edge12_Node000009_Node000010"><a xlink:title=" ">
<path fill="none" stroke="#63b8ff" d="M103.15,-164.98C90.86,-156.84 72.09,-144.41 57.52,-134.76"/>
<polygon fill="#63b8ff" stroke="#63b8ff" points="59.36,-131.78 49.09,-129.17 55.49,-137.61 59.36,-131.78"/>
</a>
</g>
</g>
<!-- Node10&#45;&gt;Node7 -->
<g id="edge13_Node000010_Node000007" class="edge">
<title>Node10&#45;&gt;Node7</title>
<g id="a_edge13_Node000010_Node000007"><a xlink:title=" ">
<path fill="none" stroke="#63b8ff" d="M40.56,-109.69C48.14,-95.94 64.61,-69.46 86,-55 121.05,-31.31 168.87,-20.02 201.45,-14.79"/>
<polygon fill="#63b8ff" stroke="#63b8ff" points="202.09,-18.23 211.46,-13.29 201.05,-11.31 202.09,-18.23"/>
</a>
</g>
</g>
<!-- Node11&#45;&gt;Node4 -->
<g id="edge15_Node000011_Node000004" class="edge">
<title>Node11&#45;&gt;Node4</title>
<g id="a_edge15_Node000011_Node000004"><a xlink:title=" ">
<path fill="none" stroke="#63b8ff" d="M306.03,-219.75C303.64,-212.72 300.21,-202.62 297.23,-193.84"/>
<polygon fill="#63b8ff" stroke="#63b8ff" points="300.45,-192.43 293.92,-184.09 293.82,-194.68 300.45,-192.43"/>
</a>
</g>
</g>
<!-- Node11&#45;&gt;Node5 -->
<g id="edge16_Node000011_Node000005" class="edge">
<title>Node11&#45;&gt;Node5</title>
<g id="a_edge16_Node000011_Node000005"><a xlink:title=" ">
<path fill="none" stroke="#63b8ff" d="M294.08,-219.74C281.89,-211.85 265.08,-199.18 255,-184 246.05,-170.52 241.2,-152.69 238.64,-139.35"/>
<polygon fill="#63b8ff" stroke="#63b8ff" points="242.08,-138.7 237,-129.4 235.18,-139.84 242.08,-138.7"/>
</a>
</g>
</g>
<!-- Node12 -->
<g id="Node000012" class="node">
<title>Node12</title>
<g id="a_Node000012"><a xlink:href="dac__demo_8h.html" target="_top" xlink:title="Header file of DAC Demo Driver.">
<polygon fill="white" stroke="#666666" points="412,-184 336,-184 336,-165 412,-165 412,-184"/>
<text text-anchor="middle" x="374" y="-172" font-family="Helvetica,sans-Serif" font-size="10.00">dac_demo.h</text>
</a>
</g>
</g>
<!-- Node11&#45;&gt;Node12 -->
<g id="edge17_Node000011_Node000012" class="edge">
<title>Node11&#45;&gt;Node12</title>
<g id="a_edge17_Node000011_Node000012"><a xlink:title=" ">
<path fill="none" stroke="#63b8ff" d="M319.44,-219.98C329.15,-212.07 343.82,-200.11 355.5,-190.58"/>
<polygon fill="#63b8ff" stroke="#63b8ff" points="357.83,-193.2 363.37,-184.17 353.4,-187.78 357.83,-193.2"/>
</a>
</g>
</g>
<!-- Node12&#45;&gt;Node5 -->
<g id="edge19_Node000012_Node000005" class="edge">
<title>Node12&#45;&gt;Node5</title>
<g id="a_edge19_Node000012_Node000005"><a xlink:title=" ">
<path fill="none" stroke="#63b8ff" d="M351.83,-164.98C329.23,-156.3 293.94,-142.75 268.25,-132.88"/>
<polygon fill="#63b8ff" stroke="#63b8ff" points="269.17,-129.49 258.58,-129.17 266.66,-136.02 269.17,-129.49"/>
</a>
</g>
</g>
<!-- Node12&#45;&gt;Node7 -->
<g id="edge18_Node000012_Node000007" class="edge">
<title>Node12&#45;&gt;Node7</title>
<g id="a_edge18_Node000012_Node000007"><a xlink:title=" ">
<path fill="none" stroke="#63b8ff" d="M378.2,-164.7C387.65,-143.46 407.9,-88.68 383,-55 358.32,-21.61 309.03,-12.47 274.81,-10.37"/>
<polygon fill="#63b8ff" stroke="#63b8ff" points="274.86,-6.87 264.72,-9.93 274.55,-13.87 274.86,-6.87"/>
</a>
</g>
</g>
<!-- Node14&#45;&gt;Node4 -->
<g id="edge23_Node000014_Node000004" class="edge">
<title>Node14&#45;&gt;Node4</title>
<g id="a_edge23_Node000014_Node000004"><a xlink:title=" ">
<path fill="none" stroke="#63b8ff" d="M391.72,-219.98C372.33,-211.42 342.19,-198.11 319.93,-188.28"/>
<polygon fill="#63b8ff" stroke="#63b8ff" points="321.19,-185.01 310.63,-184.17 318.36,-191.41 321.19,-185.01"/>
</a>
</g>
</g>
<!-- Node14&#45;&gt;Node6 -->
<g id="edge24_Node000014_Node000006" class="edge">
<title>Node14&#45;&gt;Node6</title>
<g id="a_edge24_Node000014_Node000006"><a xlink:title=" ">
<path fill="none" stroke="#63b8ff" d="M415.02,-219.64C420.12,-207.14 427.48,-183.78 421,-165 409.09,-130.51 379.75,-98.85 360.65,-80.9"/>
<polygon fill="#63b8ff" stroke="#63b8ff" points="362.91,-78.22 353.17,-74.07 358.2,-83.4 362.91,-78.22"/>
</a>
</g>
</g>
<!-- Node14&#45;&gt;Node7 -->
<g id="edge22_Node000014_Node000007" class="edge">
<title>Node14&#45;&gt;Node7</title>
<g id="a_edge22_Node000014_Node000007"><a xlink:title=" ">
<path fill="none" stroke="#63b8ff" d="M417.63,-219.88C423.76,-211.32 432.46,-197.54 436,-184 448.33,-136.88 426.68,-79.63 401,-55 366.99,-22.38 311.48,-13.17 274.84,-10.84"/>
<polygon fill="#63b8ff" stroke="#63b8ff" points="274.75,-7.34 264.59,-10.34 274.4,-14.33 274.75,-7.34"/>
</a>
</g>
</g>
</g>
</svg>

<g id="navigator" transform="translate(0 0)" fill="#404254">
  <rect fill="#f2f5e9" fill-opacity="0.5" stroke="#606060" stroke-width=".5" x="0" y="0" width="60" height="60"/>
  <use id="zoomplus" xlink:href="#zoomPlus" x="17" y="9" onmousedown="handleZoom(evt,'in')"/>
  <use id="zoomminus" xlink:href="#zoomMin" x="42" y="9" onmousedown="handleZoom(evt,'out')"/>
  <use id="reset" xlink:href="#resetDef" x="30" y="36" onmousedown="handleReset()"/>
   <use id="arrowup" xlink:href="#arrowUp" x="0" y="0" onmousedown="handlePan(0,-1)"/>
  <use id="arrowright" xlink:href="#arrowRight" x="0" y="0" onmousedown="handlePan(1,0)"/>
  <use id="arrowdown" xlink:href="#arrowDown" x="0" y="0" onmousedown="handlePan(0,1)"/>
  <use id="arrowleft" xlink:href="#arrowLeft" x="0" y="0" onmousedown="handlePan(-1,0)"/>
</g>
<svg viewBox="0 0 15 15" width="100%" height="30px" preserveAspectRatio="xMaxYMin meet">
 <g id="arrow_out" transform="scale(0.3 0.3)">
  <a xlink:href="iio__demo_2src_2examples_2iio__example_2iio__example_8c__incl_org.svg" target="_base">
   <rect id="button" ry="5" rx="5" y="6" x="6" height="38" width="38"
        fill="#f2f5e9" fill-opacity="0.5" stroke="#606060" stroke-width="1.0"/>
   <path id="arrow"
     d="M 11.500037,31.436501 C 11.940474,20.09759 22.043105,11.32322 32.158766,21.979434 L 37.068811,17.246167 C 37.068811,17.246167 37.088388,32 37.088388,32 L 22.160133,31.978069 C 22.160133,31.978069 26.997745,27.140456 26.997745,27.140456 C 18.528582,18.264221 13.291696,25.230495 11.500037,31.436501 z"
     style="fill:#404040;"/>
  </a>
 </g>
</svg>

<style type='text/css'>
<![CDATA[
[data-mouse-over-selected='false'] { opacity: 0.7; }
[data-mouse-over-selected='true']  { opacity: 1.0; }
]]>
</style>
<script type="application/ecmascript"><![CDATA[
document.addEventListener('DOMContentLoaded', (event) => {
  highlightEdges();
  highlightAdjacentNodes();
});
]]></script>
</svg>
