<?xml version="1.0" encoding="UTF-8" standalone="no"?>
<!DOCTYPE svg PUBLIC "-//W3C//DTD SVG 1.1//EN"
 "http://www.w3.org/Graphics/SVG/1.1/DTD/svg11.dtd">
<!-- Generated by graphviz version 2.43.0 (0)
 -->
<!-- Title: projects/iio_aducm3029/src/parameters.h Pages: 1 -->
<svg width="340pt" height="203pt"
 viewBox="0.00 0.00 339.50 203.00" xmlns="http://www.w3.org/2000/svg" xmlns:xlink="http://www.w3.org/1999/xlink">
<g id="graph0" class="graph" transform="scale(1 1) rotate(0) translate(4 199)">
<title>projects/iio_aducm3029/src/parameters.h</title>
<!-- Node1 -->
<g id="Node000001" class="node">
<title>Node1</title>
<g id="a_Node000001"><a xlink:title="Parameters Definitions.">
<polygon fill="#999999" stroke="#666666" points="208,-195 75,-195 75,-165 208,-165 208,-195"/>
<text text-anchor="start" x="83" y="-183" font-family="Helvetica,sans-Serif" font-size="10.00">projects/iio_aducm3029</text>
<text text-anchor="middle" x="141.5" y="-172" font-family="Helvetica,sans-Serif" font-size="10.00">/src/parameters.h</text>
</a>
</g>
</g>
<!-- Node2 -->
<g id="Node000002" class="node">
<title>Node2</title>
<g id="a_Node000002"><a xlink:href="iio__aducm3029_8h.html" target="_top" xlink:title="iio description of aducm3029 uc">
<polygon fill="white" stroke="#666666" points="132.5,-129 32.5,-129 32.5,-110 132.5,-110 132.5,-129"/>
<text text-anchor="middle" x="82.5" y="-117" font-family="Helvetica,sans-Serif" font-size="10.00">iio_aducm3029.h</text>
</a>
</g>
</g>
<!-- Node1&#45;&gt;Node2 -->
<g id="edge1_Node000001_Node000002" class="edge">
<title>Node1&#45;&gt;Node2</title>
<g id="a_edge1_Node000001_Node000002"><a xlink:title=" ">
<path fill="none" stroke="#63b8ff" d="M127.22,-164.84C118.57,-156.26 107.51,-145.3 98.56,-136.42"/>
<polygon fill="#63b8ff" stroke="#63b8ff" points="100.91,-133.82 91.34,-129.27 95.98,-138.79 100.91,-133.82"/>
</a>
</g>
</g>
<!-- Node3 -->
<g id="Node000003" class="node">
<title>Node3</title>
<g id="a_Node000003"><a xlink:href="aducm3029__irq_8h.html" target="_top" xlink:title="Header file of IRQ driver for ADuCM302x.">
<polygon fill="white" stroke="#666666" points="252,-129 151,-129 151,-110 252,-110 252,-129"/>
<text text-anchor="middle" x="201.5" y="-117" font-family="Helvetica,sans-Serif" font-size="10.00">aducm3029_irq.h</text>
</a>
</g>
</g>
<!-- Node1&#45;&gt;Node3 -->
<g id="edge2_Node000001_Node000003" class="edge">
<title>Node1&#45;&gt;Node3</title>
<g id="a_edge2_Node000001_Node000003"><a xlink:title=" ">
<path fill="none" stroke="#63b8ff" d="M156.02,-164.84C164.82,-156.26 176.07,-145.3 185.17,-136.42"/>
<polygon fill="#63b8ff" stroke="#63b8ff" points="187.79,-138.75 192.51,-129.27 182.91,-133.74 187.79,-138.75"/>
</a>
</g>
</g>
<!-- Node4 -->
<g id="Node000004" class="node">
<title>Node4</title>
<g id="a_Node000004"><a xlink:title=" ">
<polygon fill="#e0e0e0" stroke="#999999" points="123,-74 0,-74 0,-55 123,-55 123,-74"/>
<text text-anchor="middle" x="61.5" y="-62" font-family="Helvetica,sans-Serif" font-size="10.00">drivers/xint/adi_xint.h</text>
</a>
</g>
</g>
<!-- Node3&#45;&gt;Node4 -->
<g id="edge3_Node000003_Node000004" class="edge">
<title>Node3&#45;&gt;Node4</title>
<g id="a_edge3_Node000003_Node000004"><a xlink:title=" ">
<path fill="none" stroke="#63b8ff" d="M179.01,-109.98C155.98,-101.27 119.96,-87.63 93.87,-77.75"/>
<polygon fill="#63b8ff" stroke="#63b8ff" points="94.99,-74.44 84.4,-74.17 92.52,-80.98 94.99,-74.44"/>
</a>
</g>
</g>
<!-- Node5 -->
<g id="Node000005" class="node">
<title>Node5</title>
<g id="a_Node000005"><a xlink:title=" ">
<polygon fill="#e0e0e0" stroke="#999999" points="203.5,-74 141.5,-74 141.5,-55 203.5,-55 203.5,-74"/>
<text text-anchor="middle" x="172.5" y="-62" font-family="Helvetica,sans-Serif" font-size="10.00">stdbool.h</text>
</a>
</g>
</g>
<!-- Node3&#45;&gt;Node5 -->
<g id="edge4_Node000003_Node000005" class="edge">
<title>Node3&#45;&gt;Node5</title>
<g id="a_edge4_Node000003_Node000005"><a xlink:title=" ">
<path fill="none" stroke="#63b8ff" d="M196.71,-109.75C192.74,-102.49 186.97,-91.95 182.07,-82.98"/>
<polygon fill="#63b8ff" stroke="#63b8ff" points="185.07,-81.18 177.2,-74.09 178.93,-84.54 185.07,-81.18"/>
</a>
</g>
</g>
<!-- Node6 -->
<g id="Node000006" class="node">
<title>Node6</title>
<g id="a_Node000006"><a xlink:title=" ">
<polygon fill="#e0e0e0" stroke="#999999" points="290,-19 237,-19 237,0 290,0 290,-19"/>
<text text-anchor="middle" x="263.5" y="-7" font-family="Helvetica,sans-Serif" font-size="10.00">stdint.h</text>
</a>
</g>
</g>
<!-- Node3&#45;&gt;Node6 -->
<g id="edge5_Node000003_Node000006" class="edge">
<title>Node3&#45;&gt;Node6</title>
<g id="a_edge5_Node000003_Node000006"><a xlink:title=" ">
<path fill="none" stroke="#63b8ff" d="M206.57,-109.66C216.8,-91.85 240.04,-51.37 253.45,-28.01"/>
<polygon fill="#63b8ff" stroke="#63b8ff" points="256.59,-29.57 258.53,-19.16 250.52,-26.09 256.59,-29.57"/>
</a>
</g>
</g>
<!-- Node7 -->
<g id="Node000007" class="node">
<title>Node7</title>
<g id="a_Node000007"><a xlink:href="no__os__irq_8h.html" target="_top" xlink:title="Header file of IRQ interface.">
<polygon fill="white" stroke="#666666" points="331.5,-74 259.5,-74 259.5,-55 331.5,-55 331.5,-74"/>
<text text-anchor="middle" x="295.5" y="-62" font-family="Helvetica,sans-Serif" font-size="10.00">no_os_irq.h</text>
</a>
</g>
</g>
<!-- Node3&#45;&gt;Node7 -->
<g id="edge6_Node000003_Node000007" class="edge">
<title>Node3&#45;&gt;Node7</title>
<g id="a_edge6_Node000003_Node000007"><a xlink:title=" ">
<path fill="none" stroke="#63b8ff" d="M216.6,-109.98C231.32,-101.69 253.92,-88.94 271.17,-79.22"/>
<polygon fill="#63b8ff" stroke="#63b8ff" points="273.13,-82.13 280.12,-74.17 269.69,-76.03 273.13,-82.13"/>
</a>
</g>
</g>
<!-- Node7&#45;&gt;Node6 -->
<g id="edge7_Node000007_Node000006" class="edge">
<title>Node7&#45;&gt;Node6</title>
<g id="a_edge7_Node000007_Node000006"><a xlink:title=" ">
<path fill="none" stroke="#63b8ff" d="M290.22,-54.75C285.79,-47.42 279.34,-36.73 273.88,-27.7"/>
<polygon fill="#63b8ff" stroke="#63b8ff" points="276.85,-25.84 268.69,-19.09 270.86,-29.46 276.85,-25.84"/>
</a>
</g>
</g>
</g>
</svg>
