<?xml version="1.0" encoding="UTF-8" standalone="no"?>
<!DOCTYPE svg PUBLIC "-//W3C//DTD SVG 1.1//EN"
 "http://www.w3.org/Graphics/SVG/1.1/DTD/svg11.dtd">
<!-- Generated by graphviz version 2.43.0 (0)
 -->
<!-- Title: iio/iiod.h Pages: 1 -->
<svg width="388pt" height="247pt"
 viewBox="0.00 0.00 388.19 247.00" xmlns="http://www.w3.org/2000/svg" xmlns:xlink="http://www.w3.org/1999/xlink">

<svg id="main" version="1.1" xmlns="http://www.w3.org/2000/svg" xmlns:xlink="http://www.w3.org/1999/xlink" xml:space="preserve">

<style type="text/css"><![CDATA[
.node, .edge {opacity: 0.7;}
.node.selected, .edge.selected {opacity: 1;}
.edge:hover path { stroke: red; }
.edge:hover polygon { stroke: red; fill: red; }
]]></style>
<script type="application/ecmascript" xlink:href="svg.min.js"/>
<svg id="graph" class="graph">
<g id="graph0" class="graph" transform="scale(1 1) rotate(0) translate(4 243)">
<title>iio/iiod.h</title>
<!-- Node1 -->
<g id="Node000001" class="node">
<title>Node1</title>
<g id="a_Node000001"><a xlink:title="Header file of iiod.">
<polygon fill="#999999" stroke="#666666" points="195.69,-239 136.69,-239 136.69,-220 195.69,-220 195.69,-239"/>
<text text-anchor="middle" x="166.19" y="-227" font-family="Helvetica,sans-Serif" font-size="10.00">iio/iiod.h</text>
</a>
</g>
</g>
<!-- Node2 -->
<g id="Node000002" class="node">
<title>Node2</title>
<g id="a_Node000002"><a xlink:title=" ">
<polygon fill="#e0e0e0" stroke="#999999" points="108.69,-19 55.69,-19 55.69,0 108.69,0 108.69,-19"/>
<text text-anchor="middle" x="82.19" y="-7" font-family="Helvetica,sans-Serif" font-size="10.00">stdint.h</text>
</a>
</g>
</g>
<!-- Node1&#45;&gt;Node2 -->
<g id="edge1_Node000001_Node000002" class="edge">
<title>Node1&#45;&gt;Node2</title>
<g id="a_edge1_Node000001_Node000002"><a xlink:title=" ">
<path fill="none" stroke="#63b8ff" d="M150.38,-219.93C115.38,-199.92 32.13,-146.28 2.19,-74 -7.8,-49.89 20.15,-32.51 45.71,-22.09"/>
<polygon fill="#63b8ff" stroke="#63b8ff" points="47.2,-25.27 55.3,-18.44 44.71,-18.73 47.2,-25.27"/>
</a>
</g>
</g>
<!-- Node3 -->
<g id="Node000003" class="node">
<title>Node3</title>
<g id="a_Node000003"><a xlink:title=" ">
<polygon fill="#e0e0e0" stroke="#999999" points="380.19,-19 318.19,-19 318.19,0 380.19,0 380.19,-19"/>
<text text-anchor="middle" x="349.19" y="-7" font-family="Helvetica,sans-Serif" font-size="10.00">stdbool.h</text>
</a>
</g>
</g>
<!-- Node1&#45;&gt;Node3 -->
<g id="edge2_Node000001_Node000003" class="edge">
<title>Node1&#45;&gt;Node3</title>
<g id="a_edge2_Node000001_Node000003"><a xlink:title=" ">
<path fill="none" stroke="#63b8ff" d="M186.58,-219.87C228.64,-200.8 324.15,-150.6 361.19,-74 368.12,-59.65 363.67,-41.68 358.33,-28.52"/>
<polygon fill="#63b8ff" stroke="#63b8ff" points="361.39,-26.8 354.06,-19.16 355.03,-29.71 361.39,-26.8"/>
</a>
</g>
</g>
<!-- Node4 -->
<g id="Node000004" class="node">
<title>Node4</title>
<g id="a_Node000004"><a xlink:href="iio_8h.html" target="_top" xlink:title="Header file of iio.">
<polygon fill="white" stroke="#666666" points="185.19,-184 147.19,-184 147.19,-165 185.19,-165 185.19,-184"/>
<text text-anchor="middle" x="166.19" y="-172" font-family="Helvetica,sans-Serif" font-size="10.00">iio.h</text>
</a>
</g>
</g>
<!-- Node1&#45;&gt;Node4 -->
<g id="edge3_Node000001_Node000004" class="edge">
<title>Node1&#45;&gt;Node4</title>
<g id="a_edge3_Node000001_Node000004"><a xlink:title=" ">
<path fill="none" stroke="#63b8ff" d="M166.19,-219.75C166.19,-212.8 166.19,-202.85 166.19,-194.13"/>
<polygon fill="#63b8ff" stroke="#63b8ff" points="169.69,-194.09 166.19,-184.09 162.69,-194.09 169.69,-194.09"/>
</a>
</g>
</g>
<!-- Node5 -->
<g id="Node000005" class="node">
<title>Node5</title>
<g id="a_Node000005"><a xlink:href="iio__types_8h.html" target="_top" xlink:title="Header file for iio_types.">
<polygon fill="white" stroke="#666666" points="136.19,-129 66.19,-129 66.19,-110 136.19,-110 136.19,-129"/>
<text text-anchor="middle" x="101.19" y="-117" font-family="Helvetica,sans-Serif" font-size="10.00">iio_types.h</text>
</a>
</g>
</g>
<!-- Node4&#45;&gt;Node5 -->
<g id="edge4_Node000004_Node000005" class="edge">
<title>Node4&#45;&gt;Node5</title>
<g id="a_edge4_Node000004_Node000005"><a xlink:title=" ">
<path fill="none" stroke="#63b8ff" d="M155.74,-164.98C146.04,-157.07 131.37,-145.11 119.69,-135.58"/>
<polygon fill="#63b8ff" stroke="#63b8ff" points="121.78,-132.78 111.82,-129.17 117.36,-138.2 121.78,-132.78"/>
</a>
</g>
</g>
<!-- Node7 -->
<g id="Node000007" class="node">
<title>Node7</title>
<g id="a_Node000007"><a xlink:href="no__os__uart_8h.html" target="_top" xlink:title="Header file of UART interface.">
<polygon fill="white" stroke="#666666" points="271.69,-129 192.69,-129 192.69,-110 271.69,-110 271.69,-129"/>
<text text-anchor="middle" x="232.19" y="-117" font-family="Helvetica,sans-Serif" font-size="10.00">no_os_uart.h</text>
</a>
</g>
</g>
<!-- Node4&#45;&gt;Node7 -->
<g id="edge9_Node000004_Node000007" class="edge">
<title>Node4&#45;&gt;Node7</title>
<g id="a_edge9_Node000004_Node000007"><a xlink:title=" ">
<path fill="none" stroke="#63b8ff" d="M176.79,-164.98C186.64,-157.07 201.54,-145.11 213.4,-135.58"/>
<polygon fill="#63b8ff" stroke="#63b8ff" points="215.79,-138.16 221.39,-129.17 211.4,-132.7 215.79,-138.16"/>
</a>
</g>
</g>
<!-- Node5&#45;&gt;Node2 -->
<g id="edge6_Node000005_Node000002" class="edge">
<title>Node5&#45;&gt;Node2</title>
<g id="a_edge6_Node000005_Node000002"><a xlink:title=" ">
<path fill="none" stroke="#63b8ff" d="M66.1,-111.26C45.7,-105.05 21.63,-93.84 9.19,-74 -4.19,-52.67 23.11,-34.56 48.05,-23.2"/>
<polygon fill="#63b8ff" stroke="#63b8ff" points="49.59,-26.35 57.4,-19.18 46.83,-19.91 49.59,-26.35"/>
</a>
</g>
</g>
<!-- Node5&#45;&gt;Node3 -->
<g id="edge5_Node000005_Node000003" class="edge">
<title>Node5&#45;&gt;Node3</title>
<g id="a_edge5_Node000005_Node000003"><a xlink:title=" ">
<path fill="none" stroke="#63b8ff" d="M136.34,-114.49C188.57,-107.96 283.51,-93.76 311.19,-74 326.84,-62.82 337.18,-43.01 343.07,-28.48"/>
<polygon fill="#63b8ff" stroke="#63b8ff" points="346.37,-29.62 346.58,-19.03 339.81,-27.18 346.37,-29.62"/>
</a>
</g>
</g>
<!-- Node6 -->
<g id="Node000006" class="node">
<title>Node6</title>
<g id="a_Node000006"><a xlink:href="no__os__circular__buffer_8h.html" target="_top" xlink:title="Circular buffer library header.">
<polygon fill="white" stroke="#666666" points="146.19,-74 18.19,-74 18.19,-55 146.19,-55 146.19,-74"/>
<text text-anchor="middle" x="82.19" y="-62" font-family="Helvetica,sans-Serif" font-size="10.00">no_os_circular_buffer.h</text>
</a>
</g>
</g>
<!-- Node5&#45;&gt;Node6 -->
<g id="edge7_Node000005_Node000006" class="edge">
<title>Node5&#45;&gt;Node6</title>
<g id="a_edge7_Node000005_Node000006"><a xlink:title=" ">
<path fill="none" stroke="#63b8ff" d="M98.05,-109.75C95.51,-102.65 91.83,-92.4 88.66,-83.56"/>
<polygon fill="#63b8ff" stroke="#63b8ff" points="91.94,-82.32 85.27,-74.09 85.35,-84.68 91.94,-82.32"/>
</a>
</g>
</g>
<!-- Node6&#45;&gt;Node2 -->
<g id="edge8_Node000006_Node000002" class="edge">
<title>Node6&#45;&gt;Node2</title>
<g id="a_edge8_Node000006_Node000002"><a xlink:title=" ">
<path fill="none" stroke="#63b8ff" d="M82.19,-54.75C82.19,-47.8 82.19,-37.85 82.19,-29.13"/>
<polygon fill="#63b8ff" stroke="#63b8ff" points="85.69,-29.09 82.19,-19.09 78.69,-29.09 85.69,-29.09"/>
</a>
</g>
</g>
<!-- Node7&#45;&gt;Node2 -->
<g id="edge10_Node000007_Node000002" class="edge">
<title>Node7&#45;&gt;Node2</title>
<g id="a_edge10_Node000007_Node000002"><a xlink:title=" ">
<path fill="none" stroke="#63b8ff" d="M222.58,-109.81C208.34,-97.13 180.6,-73.08 155.19,-55 139.51,-43.85 121,-32.58 106.54,-24.17"/>
<polygon fill="#63b8ff" stroke="#63b8ff" points="108.11,-21.04 97.69,-19.09 104.62,-27.11 108.11,-21.04"/>
</a>
</g>
</g>
<!-- Node7&#45;&gt;Node3 -->
<g id="edge11_Node000007_Node000003" class="edge">
<title>Node7&#45;&gt;Node3</title>
<g id="a_edge11_Node000007_Node000003"><a xlink:title=" ">
<path fill="none" stroke="#63b8ff" d="M271.81,-113.43C296.74,-108.03 327.3,-96.9 344.19,-74 353.52,-61.35 354.03,-43.16 352.64,-29.49"/>
<polygon fill="#63b8ff" stroke="#63b8ff" points="356.06,-28.69 351.17,-19.29 349.13,-29.69 356.06,-28.69"/>
</a>
</g>
</g>
<!-- Node8 -->
<g id="Node000008" class="node">
<title>Node8</title>
<g id="a_Node000008"><a xlink:href="no__os__lf256fifo_8h.html" target="_top" xlink:title="SPSC lock&#45;free fifo of fixed size (256), specialized for UART.">
<polygon fill="white" stroke="#666666" points="302.19,-74 202.19,-74 202.19,-55 302.19,-55 302.19,-74"/>
<text text-anchor="middle" x="252.19" y="-62" font-family="Helvetica,sans-Serif" font-size="10.00">no_os_lf256fifo.h</text>
</a>
</g>
</g>
<!-- Node7&#45;&gt;Node8 -->
<g id="edge12_Node000007_Node000008" class="edge">
<title>Node7&#45;&gt;Node8</title>
<g id="a_edge12_Node000007_Node000008"><a xlink:title=" ">
<path fill="none" stroke="#63b8ff" d="M235.49,-109.75C238.17,-102.65 242.04,-92.4 245.37,-83.56"/>
<polygon fill="#63b8ff" stroke="#63b8ff" points="248.69,-84.68 248.95,-74.09 242.14,-82.21 248.69,-84.68"/>
</a>
</g>
</g>
<!-- Node8&#45;&gt;Node2 -->
<g id="edge14_Node000008_Node000002" class="edge">
<title>Node8&#45;&gt;Node2</title>
<g id="a_edge14_Node000008_Node000002"><a xlink:title=" ">
<path fill="none" stroke="#63b8ff" d="M224.87,-54.98C196.08,-46.01 150.56,-31.82 118.7,-21.88"/>
<polygon fill="#63b8ff" stroke="#63b8ff" points="119.46,-18.45 108.87,-18.82 117.38,-25.14 119.46,-18.45"/>
</a>
</g>
</g>
<!-- Node8&#45;&gt;Node3 -->
<g id="edge15_Node000008_Node000003" class="edge">
<title>Node8&#45;&gt;Node3</title>
<g id="a_edge15_Node000008_Node000003"><a xlink:title=" ">
<path fill="none" stroke="#63b8ff" d="M267.77,-54.98C282.96,-46.69 306.29,-33.94 324.09,-24.22"/>
<polygon fill="#63b8ff" stroke="#63b8ff" points="326.22,-27.04 333.32,-19.17 322.87,-20.89 326.22,-27.04"/>
</a>
</g>
</g>
<!-- Node9 -->
<g id="Node000009" class="node">
<title>Node9</title>
<g id="a_Node000009"><a xlink:title=" ">
<polygon fill="#e0e0e0" stroke="#999999" points="278.69,-19 225.69,-19 225.69,0 278.69,0 278.69,-19"/>
<text text-anchor="middle" x="252.19" y="-7" font-family="Helvetica,sans-Serif" font-size="10.00">stdlib.h</text>
</a>
</g>
</g>
<!-- Node8&#45;&gt;Node9 -->
<g id="edge13_Node000008_Node000009" class="edge">
<title>Node8&#45;&gt;Node9</title>
<g id="a_edge13_Node000008_Node000009"><a xlink:title=" ">
<path fill="none" stroke="#63b8ff" d="M252.19,-54.75C252.19,-47.8 252.19,-37.85 252.19,-29.13"/>
<polygon fill="#63b8ff" stroke="#63b8ff" points="255.69,-29.09 252.19,-19.09 248.69,-29.09 255.69,-29.09"/>
</a>
</g>
</g>
</g>
</svg>
</svg>

<style type='text/css'>
<![CDATA[
[data-mouse-over-selected='false'] { opacity: 0.7; }
[data-mouse-over-selected='true']  { opacity: 1.0; }
]]>
</style>
<script type="application/ecmascript"><![CDATA[
document.addEventListener('DOMContentLoaded', (event) => {
  highlightEdges();
  highlightAdjacentNodes();
});
]]></script>
</svg>
