<?xml version="1.0" encoding="UTF-8" standalone="no"?>
<!DOCTYPE svg PUBLIC "-//W3C//DTD SVG 1.1//EN"
 "http://www.w3.org/Graphics/SVG/1.1/DTD/svg11.dtd">
<!-- Generated by graphviz version 2.43.0 (0)
 -->
<!-- Title: iio/iiod.h Pages: 1 -->
<svg width="136pt" height="82pt"
 viewBox="0.00 0.00 136.00 82.00" xmlns="http://www.w3.org/2000/svg" xmlns:xlink="http://www.w3.org/1999/xlink">
<g id="graph0" class="graph" transform="scale(1 1) rotate(0) translate(4 78)">
<title>iio/iiod.h</title>
<!-- Node1 -->
<g id="Node000001" class="node">
<title>Node1</title>
<g id="a_Node000001"><a xlink:title="Header file of iiod.">
<polygon fill="#999999" stroke="#666666" points="91.5,-74 32.5,-74 32.5,-55 91.5,-55 91.5,-74"/>
<text text-anchor="middle" x="62" y="-62" font-family="Helvetica,sans-Serif" font-size="10.00">iio/iiod.h</text>
</a>
</g>
</g>
<!-- Node2 -->
<g id="Node000002" class="node">
<title>Node2</title>
<g id="a_Node000002"><a xlink:href="iio_8c.html" target="_top" xlink:title="Implementation of iio.">
<polygon fill="white" stroke="#666666" points="52,-19 0,-19 0,0 52,0 52,-19"/>
<text text-anchor="middle" x="26" y="-7" font-family="Helvetica,sans-Serif" font-size="10.00">iio/iio.c</text>
</a>
</g>
</g>
<!-- Node1&#45;&gt;Node2 -->
<g id="edge1_Node000001_Node000002" class="edge">
<title>Node1&#45;&gt;Node2</title>
<g id="a_edge1_Node000001_Node000002"><a xlink:title=" ">
<path fill="none" stroke="#63b8ff" d="M50.38,-46.39C44.18,-37.27 36.83,-26.45 31.83,-19.09"/>
<polygon fill="#63b8ff" stroke="#63b8ff" points="47.54,-48.44 56.06,-54.75 53.33,-44.51 47.54,-48.44"/>
</a>
</g>
</g>
<!-- Node3 -->
<g id="Node000003" class="node">
<title>Node3</title>
<g id="a_Node000003"><a xlink:href="iiod_8c.html" target="_top" xlink:title="Nonblocking implementation of iiod.">
<polygon fill="white" stroke="#666666" points="128,-19 70,-19 70,0 128,0 128,-19"/>
<text text-anchor="middle" x="99" y="-7" font-family="Helvetica,sans-Serif" font-size="10.00">iio/iiod.c</text>
</a>
</g>
</g>
<!-- Node1&#45;&gt;Node3 -->
<g id="edge2_Node000001_Node000003" class="edge">
<title>Node1&#45;&gt;Node3</title>
<g id="a_edge2_Node000001_Node000003"><a xlink:title=" ">
<path fill="none" stroke="#63b8ff" d="M73.95,-46.39C80.31,-37.27 87.87,-26.45 93,-19.09"/>
<polygon fill="#63b8ff" stroke="#63b8ff" points="70.96,-44.55 68.11,-54.75 76.7,-48.55 70.96,-44.55"/>
</a>
</g>
</g>
</g>
</svg>
