<?xml version="1.0" encoding="UTF-8" standalone="no"?>
<!DOCTYPE svg PUBLIC "-//W3C//DTD SVG 1.1//EN"
 "http://www.w3.org/Graphics/SVG/1.1/DTD/svg11.dtd">
<!-- Generated by graphviz version 2.43.0 (0)
 -->
<!-- Title: include/jesd204.h Pages: 1 -->
<svg width="3396pt" height="302pt"
 viewBox="0.00 0.00 3396.00 302.00" xmlns="http://www.w3.org/2000/svg" xmlns:xlink="http://www.w3.org/1999/xlink">
<g id="graph0" class="graph" transform="scale(1 1) rotate(0) translate(4 298)">
<title>include/jesd204.h</title>
<!-- Node1 -->
<g id="Node000001" class="node">
<title>Node1</title>
<g id="a_Node000001"><a xlink:title=" ">
<polygon fill="#999999" stroke="#666666" points="1711,-294 1609,-294 1609,-275 1711,-275 1711,-294"/>
<text text-anchor="middle" x="1660" y="-282" font-family="Helvetica,sans-Serif" font-size="10.00">include/jesd204.h</text>
</a>
</g>
</g>
<!-- Node2 -->
<g id="Node000002" class="node">
<title>Node2</title>
<g id="a_Node000002"><a xlink:href="ad9081_8h.html" target="_top" xlink:title="Header file of AD9081 Driver.">
<polygon fill="white" stroke="#666666" points="747,-239 637,-239 637,-209 747,-209 747,-239"/>
<text text-anchor="start" x="645" y="-227" font-family="Helvetica,sans-Serif" font-size="10.00">drivers/adc/ad9081</text>
<text text-anchor="middle" x="692" y="-216" font-family="Helvetica,sans-Serif" font-size="10.00">/ad9081.h</text>
</a>
</g>
</g>
<!-- Node1&#45;&gt;Node2 -->
<g id="edge1_Node000001_Node000002" class="edge">
<title>Node1&#45;&gt;Node2</title>
<g id="a_edge1_Node000001_Node000002"><a xlink:title=" ">
<path fill="none" stroke="#63b8ff" d="M1598.85,-279.8C1422.63,-269.15 915.63,-238.51 747.16,-228.33"/>
<polygon fill="#63b8ff" stroke="#63b8ff" points="1598.79,-283.31 1608.98,-280.42 1599.21,-276.32 1598.79,-283.31"/>
</a>
</g>
</g>
<!-- Node5 -->
<g id="Node000005" class="node">
<title>Node5</title>
<g id="a_Node000005"><a xlink:href="ad9680_8h.html" target="_top" xlink:title="Header file of AD9680 Driver.">
<polygon fill="white" stroke="#666666" points="276,-239 166,-239 166,-209 276,-209 276,-239"/>
<text text-anchor="start" x="174" y="-227" font-family="Helvetica,sans-Serif" font-size="10.00">drivers/adc/ad9680</text>
<text text-anchor="middle" x="221" y="-216" font-family="Helvetica,sans-Serif" font-size="10.00">/ad9680.h</text>
</a>
</g>
</g>
<!-- Node1&#45;&gt;Node5 -->
<g id="edge4_Node000001_Node000005" class="edge">
<title>Node1&#45;&gt;Node5</title>
<g id="a_edge4_Node000001_Node000005"><a xlink:title=" ">
<path fill="none" stroke="#63b8ff" d="M1598.67,-282.88C1367.48,-280.31 548.83,-269.25 290,-239 285.51,-238.48 280.87,-237.81 276.23,-237.05"/>
<polygon fill="#63b8ff" stroke="#63b8ff" points="1598.87,-286.38 1608.9,-282.99 1598.94,-279.38 1598.87,-286.38"/>
</a>
</g>
</g>
<!-- Node9 -->
<g id="Node000009" class="node">
<title>Node9</title>
<g id="a_Node000009"><a xlink:href="fmcdaq2_8c.html" target="_top" xlink:title="Implementation of Main Function.">
<polygon fill="white" stroke="#666666" points="1353.5,-96 1234.5,-96 1234.5,-66 1353.5,-66 1353.5,-96"/>
<text text-anchor="start" x="1242.5" y="-84" font-family="Helvetica,sans-Serif" font-size="10.00">projects/fmcdaq2/src</text>
<text text-anchor="middle" x="1294" y="-73" font-family="Helvetica,sans-Serif" font-size="10.00">/app/fmcdaq2.c</text>
</a>
</g>
</g>
<!-- Node1&#45;&gt;Node9 -->
<g id="edge59_Node000001_Node000009" class="edge">
<title>Node1&#45;&gt;Node9</title>
<g id="a_edge59_Node000001_Node000009"><a xlink:title=" ">
<path fill="none" stroke="#63b8ff" d="M1598.71,-283.49C1347.25,-282.79 404.05,-273.46 323,-173 311.56,-158.82 310.45,-145.21 323,-132 354.48,-98.86 1027.96,-86 1234.39,-82.83"/>
<polygon fill="#63b8ff" stroke="#63b8ff" points="1598.76,-286.99 1608.77,-283.52 1598.78,-279.99 1598.76,-286.99"/>
</a>
</g>
</g>
<!-- Node11 -->
<g id="Node000011" class="node">
<title>Node11</title>
<g id="a_Node000011"><a xlink:href="axi__jesd204__rx_8h.html" target="_top" xlink:title="Driver for the Analog Devices AXI&#45;JESD204&#45;RX peripheral.">
<polygon fill="white" stroke="#666666" points="2136,-239 2000,-239 2000,-209 2136,-209 2136,-239"/>
<text text-anchor="start" x="2008" y="-227" font-family="Helvetica,sans-Serif" font-size="10.00">drivers/axi_core/jesd204</text>
<text text-anchor="middle" x="2068" y="-216" font-family="Helvetica,sans-Serif" font-size="10.00">/axi_jesd204_rx.h</text>
</a>
</g>
</g>
<!-- Node1&#45;&gt;Node11 -->
<g id="edge10_Node000001_Node000011" class="edge">
<title>Node1&#45;&gt;Node11</title>
<g id="a_edge10_Node000001_Node000011"><a xlink:title=" ">
<path fill="none" stroke="#63b8ff" d="M1721.47,-274.69C1796.31,-263.96 1922.3,-245.89 1999.98,-234.75"/>
<polygon fill="#63b8ff" stroke="#63b8ff" points="1720.66,-271.27 1711.26,-276.15 1721.66,-278.2 1720.66,-271.27"/>
</a>
</g>
</g>
<!-- Node30 -->
<g id="Node000030" class="node">
<title>Node30</title>
<g id="a_Node000030"><a xlink:href="axi__jesd204__tx_8h.html" target="_top" xlink:title="Driver for the Analog Devices AXI&#45;JESD204&#45;TX peripheral.">
<polygon fill="white" stroke="#666666" points="1370,-239 1234,-239 1234,-209 1370,-209 1370,-239"/>
<text text-anchor="start" x="1242" y="-227" font-family="Helvetica,sans-Serif" font-size="10.00">drivers/axi_core/jesd204</text>
<text text-anchor="middle" x="1302" y="-216" font-family="Helvetica,sans-Serif" font-size="10.00">/axi_jesd204_tx.h</text>
</a>
</g>
</g>
<!-- Node1&#45;&gt;Node30 -->
<g id="edge37_Node000001_Node000030" class="edge">
<title>Node1&#45;&gt;Node30</title>
<g id="a_edge37_Node000001_Node000030"><a xlink:title=" ">
<path fill="none" stroke="#63b8ff" d="M1598.82,-273.5C1535.26,-263.12 1436.02,-246.9 1370.03,-236.12"/>
<polygon fill="#63b8ff" stroke="#63b8ff" points="1598.27,-276.96 1608.71,-275.12 1599.4,-270.05 1598.27,-276.96"/>
</a>
</g>
</g>
<!-- Node33 -->
<g id="Node000033" class="node">
<title>Node33</title>
<g id="a_Node000033"><a xlink:href="ad9144_8h.html" target="_top" xlink:title="Header file of AD9144 Driver.">
<polygon fill="white" stroke="#666666" points="2467,-239 2357,-239 2357,-209 2467,-209 2467,-239"/>
<text text-anchor="start" x="2365" y="-227" font-family="Helvetica,sans-Serif" font-size="10.00">drivers/dac/ad9144</text>
<text text-anchor="middle" x="2412" y="-216" font-family="Helvetica,sans-Serif" font-size="10.00">/ad9144.h</text>
</a>
</g>
</g>
<!-- Node1&#45;&gt;Node33 -->
<g id="edge52_Node000001_Node000033" class="edge">
<title>Node1&#45;&gt;Node33</title>
<g id="a_edge52_Node000001_Node000033"><a xlink:title=" ">
<path fill="none" stroke="#63b8ff" d="M1721.46,-278.72C1864.86,-267.56 2219.78,-239.95 2356.8,-229.29"/>
<polygon fill="#63b8ff" stroke="#63b8ff" points="1720.8,-275.26 1711.1,-279.53 1721.34,-282.24 1720.8,-275.26"/>
</a>
</g>
</g>
<!-- Node37 -->
<g id="Node000037" class="node">
<title>Node37</title>
<g id="a_Node000037"><a xlink:href="drivers_2frequency_2ad9528_2ad9528_8c.html" target="_top" xlink:title="Implementation of AD9528 Driver.">
<polygon fill="white" stroke="#666666" points="2626.5,-239 2485.5,-239 2485.5,-209 2626.5,-209 2626.5,-239"/>
<text text-anchor="start" x="2493.5" y="-227" font-family="Helvetica,sans-Serif" font-size="10.00">drivers/frequency/ad9528</text>
<text text-anchor="middle" x="2556" y="-216" font-family="Helvetica,sans-Serif" font-size="10.00">/ad9528.c</text>
</a>
</g>
</g>
<!-- Node1&#45;&gt;Node37 -->
<g id="edge57_Node000001_Node000037" class="edge">
<title>Node1&#45;&gt;Node37</title>
<g id="a_edge57_Node000001_Node000037"><a xlink:title=" ">
<path fill="none" stroke="#63b8ff" d="M1721.5,-282.64C1857.79,-280.18 2195.4,-271.09 2476,-239 2479.08,-238.65 2482.22,-238.25 2485.4,-237.82"/>
<polygon fill="#63b8ff" stroke="#63b8ff" points="1721.2,-279.14 1711.26,-282.82 1721.32,-286.14 1721.2,-279.14"/>
</a>
</g>
</g>
<!-- Node38 -->
<g id="Node000038" class="node">
<title>Node38</title>
<g id="a_Node000038"><a xlink:href="hmc7044_8c.html" target="_top" xlink:title="Implementation of HMC7044, HMC7043 Driver.">
<polygon fill="white" stroke="#666666" points="2795,-239 2645,-239 2645,-209 2795,-209 2795,-239"/>
<text text-anchor="start" x="2653" y="-227" font-family="Helvetica,sans-Serif" font-size="10.00">drivers/frequency/hmc7044</text>
<text text-anchor="middle" x="2720" y="-216" font-family="Helvetica,sans-Serif" font-size="10.00">/hmc7044.c</text>
</a>
</g>
</g>
<!-- Node1&#45;&gt;Node38 -->
<g id="edge58_Node000001_Node000038" class="edge">
<title>Node1&#45;&gt;Node38</title>
<g id="a_edge58_Node000001_Node000038"><a xlink:title=" ">
<path fill="none" stroke="#63b8ff" d="M1721.37,-283.2C1875.45,-281.91 2290.9,-275.06 2635,-239 2638.27,-238.66 2641.61,-238.27 2644.98,-237.85"/>
<polygon fill="#63b8ff" stroke="#63b8ff" points="1721.14,-279.7 1711.17,-283.28 1721.2,-286.7 1721.14,-279.7"/>
</a>
</g>
</g>
<!-- Node3 -->
<g id="Node000003" class="node">
<title>Node3</title>
<g id="a_Node000003"><a xlink:href="ad9081_8c.html" target="_top" xlink:title="Implementation of AD9081 Driver.">
<polygon fill="white" stroke="#666666" points="442,-167.5 332,-167.5 332,-137.5 442,-137.5 442,-167.5"/>
<text text-anchor="start" x="340" y="-155.5" font-family="Helvetica,sans-Serif" font-size="10.00">drivers/adc/ad9081</text>
<text text-anchor="middle" x="387" y="-144.5" font-family="Helvetica,sans-Serif" font-size="10.00">/ad9081.c</text>
</a>
</g>
</g>
<!-- Node2&#45;&gt;Node3 -->
<g id="edge2_Node000002_Node000003" class="edge">
<title>Node2&#45;&gt;Node3</title>
<g id="a_edge2_Node000002_Node000003"><a xlink:title=" ">
<path fill="none" stroke="#63b8ff" d="M627.07,-210.45C579.51,-200.97 513.51,-187.2 456,-173 449.23,-171.33 442.12,-169.46 435.15,-167.55"/>
<polygon fill="#63b8ff" stroke="#63b8ff" points="626.43,-213.9 636.92,-212.41 627.8,-207.03 626.43,-213.9"/>
</a>
</g>
</g>
<!-- Node4 -->
<g id="Node000004" class="node">
<title>Node4</title>
<g id="a_Node000004"><a xlink:href="ad9081_2src_2app_8c.html" target="_top" xlink:title="AD9081 application example.">
<polygon fill="white" stroke="#666666" points="748,-167.5 636,-167.5 636,-137.5 748,-137.5 748,-167.5"/>
<text text-anchor="start" x="644" y="-155.5" font-family="Helvetica,sans-Serif" font-size="10.00">projects/ad9081/src</text>
<text text-anchor="middle" x="692" y="-144.5" font-family="Helvetica,sans-Serif" font-size="10.00">/app.c</text>
</a>
</g>
</g>
<!-- Node2&#45;&gt;Node4 -->
<g id="edge3_Node000002_Node000004" class="edge">
<title>Node2&#45;&gt;Node4</title>
<g id="a_edge3_Node000002_Node000004"><a xlink:title=" ">
<path fill="none" stroke="#63b8ff" d="M692,-198.75C692,-188.31 692,-176.49 692,-167.54"/>
<polygon fill="#63b8ff" stroke="#63b8ff" points="688.5,-198.94 692,-208.94 695.5,-198.94 688.5,-198.94"/>
</a>
</g>
</g>
<!-- Node6 -->
<g id="Node000006" class="node">
<title>Node6</title>
<g id="a_Node000006"><a xlink:href="ad9680_8c.html" target="_top" xlink:title="Implementation of AD9680 Driver.">
<polygon fill="white" stroke="#666666" points="238,-167.5 128,-167.5 128,-137.5 238,-137.5 238,-167.5"/>
<text text-anchor="start" x="136" y="-155.5" font-family="Helvetica,sans-Serif" font-size="10.00">drivers/adc/ad9680</text>
<text text-anchor="middle" x="183" y="-144.5" font-family="Helvetica,sans-Serif" font-size="10.00">/ad9680.c</text>
</a>
</g>
</g>
<!-- Node5&#45;&gt;Node6 -->
<g id="edge5_Node000005_Node000006" class="edge">
<title>Node5&#45;&gt;Node6</title>
<g id="a_edge5_Node000005_Node000006"><a xlink:title=" ">
<path fill="none" stroke="#63b8ff" d="M208.46,-200.06C202.58,-189.32 195.78,-176.86 190.68,-167.54"/>
<polygon fill="#63b8ff" stroke="#63b8ff" points="205.44,-201.84 213.31,-208.94 211.58,-198.48 205.44,-201.84"/>
</a>
</g>
</g>
<!-- Node7 -->
<g id="Node000007" class="node">
<title>Node7</title>
<g id="a_Node000007"><a xlink:href="iio__ad9680_8h.html" target="_top" xlink:title="Header file of AD9680 iio.">
<polygon fill="white" stroke="#666666" points="110,-167.5 0,-167.5 0,-137.5 110,-137.5 110,-167.5"/>
<text text-anchor="start" x="8" y="-155.5" font-family="Helvetica,sans-Serif" font-size="10.00">drivers/adc/ad9680</text>
<text text-anchor="middle" x="55" y="-144.5" font-family="Helvetica,sans-Serif" font-size="10.00">/iio_ad9680.h</text>
</a>
</g>
</g>
<!-- Node5&#45;&gt;Node7 -->
<g id="edge6_Node000005_Node000007" class="edge">
<title>Node5&#45;&gt;Node7</title>
<g id="a_edge6_Node000005_Node000007"><a xlink:title=" ">
<path fill="none" stroke="#63b8ff" d="M177.91,-204.96C150.04,-193.29 114.29,-178.32 88.54,-167.54"/>
<polygon fill="#63b8ff" stroke="#63b8ff" points="176.83,-208.3 187.41,-208.94 179.53,-201.85 176.83,-208.3"/>
</a>
</g>
</g>
<!-- Node5&#45;&gt;Node9 -->
<g id="edge8_Node000005_Node000009" class="edge">
<title>Node5&#45;&gt;Node9</title>
<g id="a_edge8_Node000005_Node000009"><a xlink:title=" ">
<path fill="none" stroke="#63b8ff" d="M231.45,-199.56C242.55,-177.8 262.33,-146.61 290,-132 373.33,-87.99 1030.8,-82.65 1234.23,-82.06"/>
<polygon fill="#63b8ff" stroke="#63b8ff" points="228.18,-198.28 226.96,-208.81 234.48,-201.34 228.18,-198.28"/>
</a>
</g>
</g>
<!-- Node10 -->
<g id="Node000010" class="node">
<title>Node10</title>
<g id="a_Node000010"><a xlink:href="fmcdaq3_8c.html" target="_top" xlink:title="Implementation of Main Function.">
<polygon fill="white" stroke="#666666" points="617.5,-167.5 498.5,-167.5 498.5,-137.5 617.5,-137.5 617.5,-167.5"/>
<text text-anchor="start" x="506.5" y="-155.5" font-family="Helvetica,sans-Serif" font-size="10.00">projects/fmcdaq3/src</text>
<text text-anchor="middle" x="558" y="-144.5" font-family="Helvetica,sans-Serif" font-size="10.00">/app/fmcdaq3.c</text>
</a>
</g>
</g>
<!-- Node5&#45;&gt;Node10 -->
<g id="edge9_Node000005_Node000010" class="edge">
<title>Node5&#45;&gt;Node10</title>
<g id="a_edge9_Node000005_Node000010"><a xlink:title=" ">
<path fill="none" stroke="#63b8ff" d="M286.24,-209.54C347.68,-196.87 438.93,-178.06 498.44,-165.78"/>
<polygon fill="#63b8ff" stroke="#63b8ff" points="285.36,-206.15 276.27,-211.6 286.77,-213.01 285.36,-206.15"/>
</a>
</g>
</g>
<!-- Node8 -->
<g id="Node000008" class="node">
<title>Node8</title>
<g id="a_Node000008"><a xlink:href="iio__ad9680_8c.html" target="_top" xlink:title="Implementation of AD9680 iio.">
<polygon fill="white" stroke="#666666" points="110,-96 0,-96 0,-66 110,-66 110,-96"/>
<text text-anchor="start" x="8" y="-84" font-family="Helvetica,sans-Serif" font-size="10.00">drivers/adc/ad9680</text>
<text text-anchor="middle" x="55" y="-73" font-family="Helvetica,sans-Serif" font-size="10.00">/iio_ad9680.c</text>
</a>
</g>
</g>
<!-- Node7&#45;&gt;Node8 -->
<g id="edge7_Node000007_Node000008" class="edge">
<title>Node7&#45;&gt;Node8</title>
<g id="a_edge7_Node000007_Node000008"><a xlink:title=" ">
<path fill="none" stroke="#63b8ff" d="M55,-127.25C55,-116.81 55,-104.99 55,-96.04"/>
<polygon fill="#63b8ff" stroke="#63b8ff" points="51.5,-127.44 55,-137.44 58.5,-127.44 51.5,-127.44"/>
</a>
</g>
</g>
<!-- Node11&#45;&gt;Node4 -->
<g id="edge21_Node000011_Node000004" class="edge">
<title>Node11&#45;&gt;Node4</title>
<g id="a_edge21_Node000011_Node000004"><a xlink:title=" ">
<path fill="none" stroke="#63b8ff" d="M1989.47,-221.16C1725.24,-214.82 878.12,-193.14 757,-173 749.21,-171.71 741.05,-169.75 733.24,-167.57"/>
<polygon fill="#63b8ff" stroke="#63b8ff" points="1989.67,-224.67 1999.75,-221.41 1989.84,-217.67 1989.67,-224.67"/>
</a>
</g>
</g>
<!-- Node11&#45;&gt;Node9 -->
<g id="edge35_Node000011_Node000009" class="edge">
<title>Node11&#45;&gt;Node9</title>
<g id="a_edge35_Node000011_Node000009"><a xlink:title=" ">
<path fill="none" stroke="#63b8ff" d="M2086.73,-200.78C2101.47,-180.52 2116.8,-150.94 2099,-132 2073.53,-104.9 1535.67,-88.34 1353.62,-83.49"/>
<polygon fill="#63b8ff" stroke="#63b8ff" points="2083.86,-198.77 2080.55,-208.83 2089.41,-203.03 2083.86,-198.77"/>
</a>
</g>
</g>
<!-- Node11&#45;&gt;Node10 -->
<g id="edge36_Node000011_Node000010" class="edge">
<title>Node11&#45;&gt;Node10</title>
<g id="a_edge36_Node000011_Node000010"><a xlink:title=" ">
<path fill="none" stroke="#63b8ff" d="M1989.87,-221.39C1709.22,-215.45 761.6,-194.04 627,-173 618.76,-171.71 610.11,-169.76 601.82,-167.59"/>
<polygon fill="#63b8ff" stroke="#63b8ff" points="1989.89,-224.89 1999.97,-221.6 1990.04,-217.89 1989.89,-224.89"/>
</a>
</g>
</g>
<!-- Node12 -->
<g id="Node000012" class="node">
<title>Node12</title>
<g id="a_Node000012"><a xlink:href="axi__jesd204__rx_8c.html" target="_top" xlink:title="Driver for the Analog Devices AXI&#45;JESD204&#45;RX peripheral.">
<polygon fill="white" stroke="#666666" points="2922,-167.5 2786,-167.5 2786,-137.5 2922,-137.5 2922,-167.5"/>
<text text-anchor="start" x="2794" y="-155.5" font-family="Helvetica,sans-Serif" font-size="10.00">drivers/axi_core/jesd204</text>
<text text-anchor="middle" x="2854" y="-144.5" font-family="Helvetica,sans-Serif" font-size="10.00">/axi_jesd204_rx.c</text>
</a>
</g>
</g>
<!-- Node11&#45;&gt;Node12 -->
<g id="edge11_Node000011_Node000012" class="edge">
<title>Node11&#45;&gt;Node12</title>
<g id="a_edge11_Node000011_Node000012"><a xlink:title=" ">
<path fill="none" stroke="#63b8ff" d="M2146.15,-219.25C2304.3,-211.36 2657.41,-192.2 2777,-173 2785.71,-171.6 2794.88,-169.68 2803.74,-167.59"/>
<polygon fill="#63b8ff" stroke="#63b8ff" points="2145.83,-215.76 2136.01,-219.75 2146.18,-222.75 2145.83,-215.76"/>
</a>
</g>
</g>
<!-- Node13 -->
<g id="Node000013" class="node">
<title>Node13</title>
<g id="a_Node000013"><a xlink:href="jesd204__clk_8h.html" target="_top" xlink:title="Analog Devices JESD204 clock.">
<polygon fill="white" stroke="#666666" points="2768,-167.5 2632,-167.5 2632,-137.5 2768,-137.5 2768,-167.5"/>
<text text-anchor="start" x="2640" y="-155.5" font-family="Helvetica,sans-Serif" font-size="10.00">drivers/axi_core/jesd204</text>
<text text-anchor="middle" x="2700" y="-144.5" font-family="Helvetica,sans-Serif" font-size="10.00">/jesd204_clk.h</text>
</a>
</g>
</g>
<!-- Node11&#45;&gt;Node13 -->
<g id="edge12_Node000011_Node000013" class="edge">
<title>Node11&#45;&gt;Node13</title>
<g id="a_edge12_Node000011_Node000013"><a xlink:title=" ">
<path fill="none" stroke="#63b8ff" d="M2146.2,-219.41C2253.25,-213.7 2451.17,-200.28 2618,-173 2627.1,-171.51 2636.68,-169.58 2645.97,-167.5"/>
<polygon fill="#63b8ff" stroke="#63b8ff" points="2145.93,-215.92 2136.13,-219.94 2146.3,-222.91 2145.93,-215.92"/>
</a>
</g>
</g>
<!-- Node15 -->
<g id="Node000015" class="node">
<title>Node15</title>
<g id="a_Node000015"><a xlink:href="ad9081_2src_2app__jesd_8c.html" target="_top" xlink:title="Application JESD setup.">
<polygon fill="white" stroke="#666666" points="2637,-96 2525,-96 2525,-66 2637,-66 2637,-96"/>
<text text-anchor="start" x="2533" y="-84" font-family="Helvetica,sans-Serif" font-size="10.00">projects/ad9081/src</text>
<text text-anchor="middle" x="2581" y="-73" font-family="Helvetica,sans-Serif" font-size="10.00">/app_jesd.c</text>
</a>
</g>
</g>
<!-- Node11&#45;&gt;Node15 -->
<g id="edge22_Node000011_Node000015" class="edge">
<title>Node11&#45;&gt;Node15</title>
<g id="a_edge22_Node000011_Node000015"><a xlink:title=" ">
<path fill="none" stroke="#63b8ff" d="M2146.53,-219.29C2274.28,-212.61 2516.06,-196.95 2547,-173 2571.14,-154.32 2578.14,-116.56 2580.17,-96.04"/>
<polygon fill="#63b8ff" stroke="#63b8ff" points="2146.21,-215.81 2136.41,-219.82 2146.57,-222.8 2146.21,-215.81"/>
</a>
</g>
</g>
<!-- Node16 -->
<g id="Node000016" class="node">
<title>Node16</title>
<g id="a_Node000016"><a xlink:href="ad9083_2src_2app__jesd_8c.html" target="_top" xlink:title="Application JESD setup.">
<polygon fill="white" stroke="#666666" points="3117,-30 3005,-30 3005,0 3117,0 3117,-30"/>
<text text-anchor="start" x="3013" y="-18" font-family="Helvetica,sans-Serif" font-size="10.00">projects/ad9083/src</text>
<text text-anchor="middle" x="3061" y="-7" font-family="Helvetica,sans-Serif" font-size="10.00">/app_jesd.c</text>
</a>
</g>
</g>
<!-- Node11&#45;&gt;Node16 -->
<g id="edge23_Node000011_Node000016" class="edge">
<title>Node11&#45;&gt;Node16</title>
<g id="a_edge23_Node000011_Node000016"><a xlink:title=" ">
<path fill="none" stroke="#63b8ff" d="M2146.32,-219.07C2381.44,-207.28 3065,-173 3065,-173 3102.39,-133.68 3079.23,-60.62 3067.07,-30.04"/>
<polygon fill="#63b8ff" stroke="#63b8ff" points="2145.95,-215.59 2136.14,-219.58 2146.3,-222.58 2145.95,-215.59"/>
</a>
</g>
</g>
<!-- Node17 -->
<g id="Node000017" class="node">
<title>Node17</title>
<g id="a_Node000017"><a xlink:href="ad9083_2src_2app__jesd_8h.html" target="_top" xlink:title="Application JESD initialization.">
<polygon fill="white" stroke="#666666" points="3224,-96 3112,-96 3112,-66 3224,-66 3224,-96"/>
<text text-anchor="start" x="3120" y="-84" font-family="Helvetica,sans-Serif" font-size="10.00">projects/ad9083/src</text>
<text text-anchor="middle" x="3168" y="-73" font-family="Helvetica,sans-Serif" font-size="10.00">/app_jesd.h</text>
</a>
</g>
</g>
<!-- Node11&#45;&gt;Node17 -->
<g id="edge24_Node000011_Node000017" class="edge">
<title>Node11&#45;&gt;Node17</title>
<g id="a_edge24_Node000011_Node000017"><a xlink:title=" ">
<path fill="none" stroke="#63b8ff" d="M2146.41,-219.04C2202.54,-216.21 2279.92,-212.34 2348,-209 2431.33,-204.92 3024.06,-211.64 3098,-173 3114.61,-164.32 3144.57,-119.31 3159.32,-96.01"/>
<polygon fill="#63b8ff" stroke="#63b8ff" points="2145.99,-215.55 2136.18,-219.55 2146.34,-222.55 2145.99,-215.55"/>
</a>
</g>
</g>
<!-- Node19 -->
<g id="Node000019" class="node">
<title>Node19</title>
<g id="a_Node000019"><a xlink:href="ad6676__ebz_8c.html" target="_top" xlink:title="Implementation of Main Function.">
<polygon fill="white" stroke="#666666" points="3056,-167.5 2940,-167.5 2940,-137.5 3056,-137.5 3056,-167.5"/>
<text text-anchor="start" x="2948" y="-155.5" font-family="Helvetica,sans-Serif" font-size="10.00">projects/ad6676&#45;ebz</text>
<text text-anchor="middle" x="2998" y="-144.5" font-family="Helvetica,sans-Serif" font-size="10.00">/src/ad6676_ebz.c</text>
</a>
</g>
</g>
<!-- Node11&#45;&gt;Node19 -->
<g id="edge20_Node000011_Node000019" class="edge">
<title>Node11&#45;&gt;Node19</title>
<g id="a_edge20_Node000011_Node000019"><a xlink:title=" ">
<path fill="none" stroke="#63b8ff" d="M2146.16,-218.95C2351.43,-208.25 2892.71,-179.59 2931,-173 2938.88,-171.64 2947.15,-169.69 2955.08,-167.54"/>
<polygon fill="#63b8ff" stroke="#63b8ff" points="2145.86,-215.46 2136.06,-219.48 2146.22,-222.45 2145.86,-215.46"/>
</a>
</g>
</g>
<!-- Node20 -->
<g id="Node000020" class="node">
<title>Node20</title>
<g id="a_Node000020"><a xlink:href="ad9208_2src_2main_8c.html" target="_top" xlink:title="Implementation of Main Function.">
<polygon fill="white" stroke="#666666" points="2258,-167.5 2146,-167.5 2146,-137.5 2258,-137.5 2258,-167.5"/>
<text text-anchor="start" x="2154" y="-155.5" font-family="Helvetica,sans-Serif" font-size="10.00">projects/ad9208/src</text>
<text text-anchor="middle" x="2202" y="-144.5" font-family="Helvetica,sans-Serif" font-size="10.00">/main.c</text>
</a>
</g>
</g>
<!-- Node11&#45;&gt;Node20 -->
<g id="edge25_Node000011_Node000020" class="edge">
<title>Node11&#45;&gt;Node20</title>
<g id="a_edge25_Node000011_Node000020"><a xlink:title=" ">
<path fill="none" stroke="#63b8ff" d="M2104.27,-204.19C2126.54,-192.64 2154.59,-178.09 2174.92,-167.54"/>
<polygon fill="#63b8ff" stroke="#63b8ff" points="2102.38,-201.22 2095.12,-208.94 2105.61,-207.44 2102.38,-201.22"/>
</a>
</g>
</g>
<!-- Node21 -->
<g id="Node000021" class="node">
<title>Node21</title>
<g id="a_Node000021"><a xlink:href="ad9371_2src_2app_2headless_8c.html" target="_top" xlink:title="Implementation of Main Function.">
<polygon fill="white" stroke="#666666" points="1358,-167.5 1246,-167.5 1246,-137.5 1358,-137.5 1358,-167.5"/>
<text text-anchor="start" x="1254" y="-155.5" font-family="Helvetica,sans-Serif" font-size="10.00">projects/ad9371/src</text>
<text text-anchor="middle" x="1302" y="-144.5" font-family="Helvetica,sans-Serif" font-size="10.00">/app/headless.c</text>
</a>
</g>
</g>
<!-- Node11&#45;&gt;Node21 -->
<g id="edge26_Node000011_Node000021" class="edge">
<title>Node11&#45;&gt;Node21</title>
<g id="a_edge26_Node000011_Node000021"><a xlink:title=" ">
<path fill="none" stroke="#63b8ff" d="M1989.42,-223.01C1859.02,-221.77 1590.18,-213.92 1367,-173 1359.47,-171.62 1351.57,-169.68 1343.98,-167.56"/>
<polygon fill="#63b8ff" stroke="#63b8ff" points="1989.68,-226.51 1999.7,-223.09 1989.73,-219.51 1989.68,-226.51"/>
</a>
</g>
</g>
<!-- Node22 -->
<g id="Node000022" class="node">
<title>Node22</title>
<g id="a_Node000022"><a xlink:href="ad9656__fmc_8c.html" target="_top" xlink:title="Implementation of Main Function.">
<polygon fill="white" stroke="#666666" points="2402,-167.5 2276,-167.5 2276,-137.5 2402,-137.5 2402,-167.5"/>
<text text-anchor="start" x="2284" y="-155.5" font-family="Helvetica,sans-Serif" font-size="10.00">projects/ad9656_fmc</text>
<text text-anchor="middle" x="2339" y="-144.5" font-family="Helvetica,sans-Serif" font-size="10.00">/src/app/ad9656_fmc.c</text>
</a>
</g>
</g>
<!-- Node11&#45;&gt;Node22 -->
<g id="edge27_Node000011_Node000022" class="edge">
<title>Node11&#45;&gt;Node22</title>
<g id="a_edge27_Node000011_Node000022"><a xlink:title=" ">
<path fill="none" stroke="#63b8ff" d="M2135.19,-206.44C2173.8,-196.85 2223.18,-184.44 2267,-173 2273.64,-171.27 2280.62,-169.41 2287.51,-167.57"/>
<polygon fill="#63b8ff" stroke="#63b8ff" points="2133.98,-203.14 2125.11,-208.94 2135.66,-209.93 2133.98,-203.14"/>
</a>
</g>
</g>
<!-- Node23 -->
<g id="Node000023" class="node">
<title>Node23</title>
<g id="a_Node000023"><a xlink:href="adrv9009_2src_2app_2app__jesd_8c.html" target="_top" xlink:title="JESD setup and initialization routines.">
<polygon fill="white" stroke="#666666" points="1498,-167.5 1376,-167.5 1376,-137.5 1498,-137.5 1498,-167.5"/>
<text text-anchor="start" x="1384" y="-155.5" font-family="Helvetica,sans-Serif" font-size="10.00">projects/adrv9009/src</text>
<text text-anchor="middle" x="1437" y="-144.5" font-family="Helvetica,sans-Serif" font-size="10.00">/app/app_jesd.c</text>
</a>
</g>
</g>
<!-- Node11&#45;&gt;Node23 -->
<g id="edge28_Node000011_Node000023" class="edge">
<title>Node11&#45;&gt;Node23</title>
<g id="a_edge28_Node000011_Node000023"><a xlink:title=" ">
<path fill="none" stroke="#63b8ff" d="M1989.42,-220.52C1880.36,-216.06 1677.31,-204.04 1507,-173 1499.06,-171.55 1490.71,-169.61 1482.66,-167.51"/>
<polygon fill="#63b8ff" stroke="#63b8ff" points="1989.54,-224.03 1999.67,-220.93 1989.82,-217.04 1989.54,-224.03"/>
</a>
</g>
</g>
<!-- Node24 -->
<g id="Node000024" class="node">
<title>Node24</title>
<g id="a_Node000024"><a xlink:href="app__talise_8c.html" target="_top" xlink:title="Talise initialization and control routines.">
<polygon fill="white" stroke="#666666" points="1788,-167.5 1666,-167.5 1666,-137.5 1788,-137.5 1788,-167.5"/>
<text text-anchor="start" x="1674" y="-155.5" font-family="Helvetica,sans-Serif" font-size="10.00">projects/adrv9009/src</text>
<text text-anchor="middle" x="1727" y="-144.5" font-family="Helvetica,sans-Serif" font-size="10.00">/app/app_talise.c</text>
</a>
</g>
</g>
<!-- Node11&#45;&gt;Node24 -->
<g id="edge29_Node000011_Node000024" class="edge">
<title>Node11&#45;&gt;Node24</title>
<g id="a_edge29_Node000011_Node000024"><a xlink:title=" ">
<path fill="none" stroke="#63b8ff" d="M1990.08,-210.52C1935.72,-201.35 1861.62,-187.93 1797,-173 1789.99,-171.38 1782.64,-169.52 1775.43,-167.6"/>
<polygon fill="#63b8ff" stroke="#63b8ff" points="1989.56,-213.98 2000,-212.18 1990.71,-207.08 1989.56,-213.98"/>
</a>
</g>
</g>
<!-- Node25 -->
<g id="Node000025" class="node">
<title>Node25</title>
<g id="a_Node000025"><a xlink:href="headless__mb_8c.html" target="_top" xlink:title="Contains example code for user integration with their application. This file contains code for MicroB...">
<polygon fill="white" stroke="#666666" points="1928,-167.5 1806,-167.5 1806,-137.5 1928,-137.5 1928,-167.5"/>
<text text-anchor="start" x="1814" y="-155.5" font-family="Helvetica,sans-Serif" font-size="10.00">projects/adrv9009/src</text>
<text text-anchor="middle" x="1867" y="-144.5" font-family="Helvetica,sans-Serif" font-size="10.00">/app/headless_mb.c</text>
</a>
</g>
</g>
<!-- Node11&#45;&gt;Node25 -->
<g id="edge30_Node000011_Node000025" class="edge">
<title>Node11&#45;&gt;Node25</title>
<g id="a_edge30_Node000011_Node000025"><a xlink:title=" ">
<path fill="none" stroke="#63b8ff" d="M2017.58,-205.57C1983.59,-193.81 1939.34,-178.51 1907.61,-167.54"/>
<polygon fill="#63b8ff" stroke="#63b8ff" points="2016.73,-208.98 2027.32,-208.94 2019.02,-202.36 2016.73,-208.98"/>
</a>
</g>
</g>
<!-- Node26 -->
<g id="Node000026" class="node">
<title>Node26</title>
<g id="a_Node000026"><a xlink:href="adrv902x_2src_2examples_2basic__example_2basic__example_8c.html" target="_top" xlink:title="Basic example for the adrv902x project.">
<polygon fill="white" stroke="#666666" points="2090,-173 1946,-173 1946,-132 2090,-132 2090,-173"/>
<text text-anchor="start" x="1954" y="-161" font-family="Helvetica,sans-Serif" font-size="10.00">projects/adrv902x/src</text>
<text text-anchor="start" x="1954" y="-150" font-family="Helvetica,sans-Serif" font-size="10.00">/examples/basic_example</text>
<text text-anchor="middle" x="2018" y="-139" font-family="Helvetica,sans-Serif" font-size="10.00">/basic_example.c</text>
</a>
</g>
</g>
<!-- Node11&#45;&gt;Node26 -->
<g id="edge31_Node000011_Node000026" class="edge">
<title>Node11&#45;&gt;Node26</title>
<g id="a_edge31_Node000011_Node000026"><a xlink:title=" ">
<path fill="none" stroke="#63b8ff" d="M2051.88,-200.59C2045.5,-191.73 2038.24,-181.63 2032.08,-173.07"/>
<polygon fill="#63b8ff" stroke="#63b8ff" points="2049.2,-202.86 2057.88,-208.94 2054.88,-198.77 2049.2,-202.86"/>
</a>
</g>
</g>
<!-- Node27 -->
<g id="Node000027" class="node">
<title>Node27</title>
<g id="a_Node000027"><a xlink:href="dma__example_8c.html" target="_top" xlink:title="DMA example for the adrv902x project.">
<polygon fill="white" stroke="#666666" points="1228,-173 1088,-173 1088,-132 1228,-132 1228,-173"/>
<text text-anchor="start" x="1096" y="-161" font-family="Helvetica,sans-Serif" font-size="10.00">projects/adrv902x/src</text>
<text text-anchor="start" x="1096" y="-150" font-family="Helvetica,sans-Serif" font-size="10.00">/examples/dma_example</text>
<text text-anchor="middle" x="1158" y="-139" font-family="Helvetica,sans-Serif" font-size="10.00">/dma_example.c</text>
</a>
</g>
</g>
<!-- Node11&#45;&gt;Node27 -->
<g id="edge32_Node000011_Node000027" class="edge">
<title>Node11&#45;&gt;Node27</title>
<g id="a_edge32_Node000011_Node000027"><a xlink:title=" ">
<path fill="none" stroke="#63b8ff" d="M1989.63,-223.02C1841.67,-222 1511.37,-214.76 1237,-173 1234.07,-172.55 1231.08,-172.05 1228.08,-171.5"/>
<polygon fill="#63b8ff" stroke="#63b8ff" points="1989.95,-226.52 1999.97,-223.08 1989.99,-219.52 1989.95,-226.52"/>
</a>
</g>
</g>
<!-- Node28 -->
<g id="Node000028" class="node">
<title>Node28</title>
<g id="a_Node000028"><a xlink:href="adrv902x_2src_2examples_2iio__example_2iio__example_8c.html" target="_top" xlink:title="IIO example for the adrv902x project.">
<polygon fill="white" stroke="#666666" points="1647.5,-173 1516.5,-173 1516.5,-132 1647.5,-132 1647.5,-173"/>
<text text-anchor="start" x="1524.5" y="-161" font-family="Helvetica,sans-Serif" font-size="10.00">projects/adrv902x/src</text>
<text text-anchor="start" x="1524.5" y="-150" font-family="Helvetica,sans-Serif" font-size="10.00">/examples/iio_example</text>
<text text-anchor="middle" x="1582" y="-139" font-family="Helvetica,sans-Serif" font-size="10.00">/iio_example.c</text>
</a>
</g>
</g>
<!-- Node11&#45;&gt;Node28 -->
<g id="edge33_Node000011_Node000028" class="edge">
<title>Node11&#45;&gt;Node28</title>
<g id="a_edge33_Node000011_Node000028"><a xlink:title=" ">
<path fill="none" stroke="#63b8ff" d="M1989.82,-216.62C1906.78,-209.11 1771.9,-194.83 1657,-173 1653.96,-172.42 1650.86,-171.79 1647.74,-171.12"/>
<polygon fill="#63b8ff" stroke="#63b8ff" points="1989.66,-220.12 1999.94,-217.52 1990.29,-213.14 1989.66,-220.12"/>
</a>
</g>
</g>
<!-- Node29 -->
<g id="Node000029" class="node">
<title>Node29</title>
<g id="a_Node000029"><a xlink:href="fmcadc2_8c.html" target="_top" xlink:title="Implementation of Main Function.">
<polygon fill="white" stroke="#666666" points="2538,-167.5 2420,-167.5 2420,-137.5 2538,-137.5 2538,-167.5"/>
<text text-anchor="start" x="2428" y="-155.5" font-family="Helvetica,sans-Serif" font-size="10.00">projects/fmcadc2/src</text>
<text text-anchor="middle" x="2479" y="-144.5" font-family="Helvetica,sans-Serif" font-size="10.00">/fmcadc2.c</text>
</a>
</g>
</g>
<!-- Node11&#45;&gt;Node29 -->
<g id="edge34_Node000011_Node000029" class="edge">
<title>Node11&#45;&gt;Node29</title>
<g id="a_edge34_Node000011_Node000029"><a xlink:title=" ">
<path fill="none" stroke="#63b8ff" d="M2146.21,-214.64C2216.08,-206.45 2321,-192.37 2411,-173 2418.2,-171.45 2425.77,-169.55 2433.12,-167.56"/>
<polygon fill="#63b8ff" stroke="#63b8ff" points="2145.7,-211.17 2136.17,-215.8 2146.5,-218.13 2145.7,-211.17"/>
</a>
</g>
</g>
<!-- Node13&#45;&gt;Node9 -->
<g id="edge19_Node000013_Node000009" class="edge">
<title>Node13&#45;&gt;Node9</title>
<g id="a_edge19_Node000013_Node000009"><a xlink:title=" ">
<path fill="none" stroke="#63b8ff" d="M2621.93,-137.4C2608.01,-135.29 2593.6,-133.36 2580,-132 2109.24,-84.78 1537.41,-81.47 1353.79,-81.73"/>
<polygon fill="#63b8ff" stroke="#63b8ff" points="2621.55,-140.88 2631.97,-138.96 2622.63,-133.96 2621.55,-140.88"/>
</a>
</g>
</g>
<!-- Node14 -->
<g id="Node000014" class="node">
<title>Node14</title>
<g id="a_Node000014"><a xlink:href="jesd204__clk_8c.html" target="_top" xlink:title="Analog Devices JESD204 clock.">
<polygon fill="white" stroke="#666666" points="2791,-96 2655,-96 2655,-66 2791,-66 2791,-96"/>
<text text-anchor="start" x="2663" y="-84" font-family="Helvetica,sans-Serif" font-size="10.00">drivers/axi_core/jesd204</text>
<text text-anchor="middle" x="2723" y="-73" font-family="Helvetica,sans-Serif" font-size="10.00">/jesd204_clk.c</text>
</a>
</g>
</g>
<!-- Node13&#45;&gt;Node14 -->
<g id="edge13_Node000013_Node000014" class="edge">
<title>Node13&#45;&gt;Node14</title>
<g id="a_edge13_Node000013_Node000014"><a xlink:title=" ">
<path fill="none" stroke="#63b8ff" d="M2707.81,-127.9C2711.31,-117.31 2715.33,-105.18 2718.35,-96.04"/>
<polygon fill="#63b8ff" stroke="#63b8ff" points="2704.47,-126.84 2704.65,-137.44 2711.12,-129.04 2704.47,-126.84"/>
</a>
</g>
</g>
<!-- Node13&#45;&gt;Node15 -->
<g id="edge14_Node000013_Node000015" class="edge">
<title>Node13&#45;&gt;Node15</title>
<g id="a_edge14_Node000013_Node000015"><a xlink:title=" ">
<path fill="none" stroke="#63b8ff" d="M2667.26,-132.38C2647.57,-120.88 2622.94,-106.49 2605.05,-96.04"/>
<polygon fill="#63b8ff" stroke="#63b8ff" points="2665.52,-135.41 2675.92,-137.44 2669.05,-129.37 2665.52,-135.41"/>
</a>
</g>
</g>
<!-- Node13&#45;&gt;Node16 -->
<g id="edge15_Node000013_Node000016" class="edge">
<title>Node13&#45;&gt;Node16</title>
<g id="a_edge15_Node000013_Node000016"><a xlink:title=" ">
<path fill="none" stroke="#63b8ff" d="M2747.41,-133.7C2820.03,-106.45 2957.3,-54.92 3023.47,-30.09"/>
<polygon fill="#63b8ff" stroke="#63b8ff" points="2745.74,-130.59 2737.61,-137.38 2748.2,-137.15 2745.74,-130.59"/>
</a>
</g>
</g>
<!-- Node13&#45;&gt;Node17 -->
<g id="edge16_Node000013_Node000017" class="edge">
<title>Node13&#45;&gt;Node17</title>
<g id="a_edge16_Node000013_Node000017"><a xlink:title=" ">
<path fill="none" stroke="#63b8ff" d="M2761.82,-135.15C2766.94,-134.01 2772.05,-132.94 2777,-132 2895.33,-109.54 3035.77,-94.33 3111.98,-87.02"/>
<polygon fill="#63b8ff" stroke="#63b8ff" points="2760.95,-131.76 2752,-137.43 2762.53,-138.58 2760.95,-131.76"/>
</a>
</g>
</g>
<!-- Node17&#45;&gt;Node16 -->
<g id="edge18_Node000017_Node000016" class="edge">
<title>Node17&#45;&gt;Node16</title>
<g id="a_edge18_Node000017_Node000016"><a xlink:title=" ">
<path fill="none" stroke="#63b8ff" d="M3135.72,-60.69C3119.21,-50.82 3099.47,-39.01 3084.43,-30.01"/>
<polygon fill="#63b8ff" stroke="#63b8ff" points="3134.14,-63.83 3144.52,-65.95 3137.73,-57.82 3134.14,-63.83"/>
</a>
</g>
</g>
<!-- Node18 -->
<g id="Node000018" class="node">
<title>Node18</title>
<g id="a_Node000018"><a xlink:href="ad9083_2src_2app_8c.html" target="_top" xlink:title="AD9083 application example.">
<polygon fill="white" stroke="#666666" points="3247,-30 3135,-30 3135,0 3247,0 3247,-30"/>
<text text-anchor="start" x="3143" y="-18" font-family="Helvetica,sans-Serif" font-size="10.00">projects/ad9083/src</text>
<text text-anchor="middle" x="3191" y="-7" font-family="Helvetica,sans-Serif" font-size="10.00">/app.c</text>
</a>
</g>
</g>
<!-- Node17&#45;&gt;Node18 -->
<g id="edge17_Node000017_Node000018" class="edge">
<title>Node17&#45;&gt;Node18</title>
<g id="a_edge17_Node000017_Node000018"><a xlink:title=" ">
<path fill="none" stroke="#63b8ff" d="M3176.59,-56.11C3179.72,-47.38 3183.17,-37.78 3185.91,-30.16"/>
<polygon fill="#63b8ff" stroke="#63b8ff" points="3173.19,-55.2 3173.1,-65.8 3179.78,-57.57 3173.19,-55.2"/>
</a>
</g>
</g>
<!-- Node30&#45;&gt;Node4 -->
<g id="edge40_Node000030_Node000004" class="edge">
<title>Node30&#45;&gt;Node4</title>
<g id="a_edge40_Node000030_Node000004"><a xlink:title=" ">
<path fill="none" stroke="#63b8ff" d="M1223.82,-220.73C1117.36,-216.53 921.24,-204.84 757,-173 749.6,-171.57 741.83,-169.63 734.35,-167.53"/>
<polygon fill="#63b8ff" stroke="#63b8ff" points="1223.71,-224.23 1233.84,-221.12 1223.98,-217.24 1223.71,-224.23"/>
</a>
</g>
</g>
<!-- Node30&#45;&gt;Node9 -->
<g id="edge50_Node000030_Node000009" class="edge">
<title>Node30&#45;&gt;Node9</title>
<g id="a_edge50_Node000030_Node000009"><a xlink:title=" ">
<path fill="none" stroke="#63b8ff" d="M1223.7,-221.05C1024.78,-215.73 513.94,-199.52 489,-173 476.52,-159.73 476.52,-145.28 489,-132 514.47,-104.9 1052.33,-88.34 1234.38,-83.49"/>
<polygon fill="#63b8ff" stroke="#63b8ff" points="1223.7,-224.55 1233.78,-221.32 1223.88,-217.56 1223.7,-224.55"/>
</a>
</g>
</g>
<!-- Node30&#45;&gt;Node10 -->
<g id="edge51_Node000030_Node000010" class="edge">
<title>Node30&#45;&gt;Node10</title>
<g id="a_edge51_Node000030_Node000010"><a xlink:title=" ">
<path fill="none" stroke="#63b8ff" d="M1223.54,-222.3C1097.04,-220.02 840.58,-210.69 627,-173 619.03,-171.59 610.66,-169.64 602.61,-167.52"/>
<polygon fill="#63b8ff" stroke="#63b8ff" points="1223.84,-225.8 1233.9,-222.47 1223.96,-218.8 1223.84,-225.8"/>
</a>
</g>
</g>
<!-- Node30&#45;&gt;Node13 -->
<g id="edge39_Node000030_Node000013" class="edge">
<title>Node30&#45;&gt;Node13</title>
<g id="a_edge39_Node000030_Node000013"><a xlink:title=" ">
<path fill="none" stroke="#63b8ff" d="M1380.52,-222.21C1577.25,-219.7 2107.03,-209.8 2547,-173 2574.88,-170.67 2605.5,-166.99 2631.97,-163.45"/>
<polygon fill="#63b8ff" stroke="#63b8ff" points="1380.24,-218.71 1370.28,-222.33 1380.32,-225.71 1380.24,-218.71"/>
</a>
</g>
</g>
<!-- Node30&#45;&gt;Node15 -->
<g id="edge41_Node000030_Node000015" class="edge">
<title>Node30&#45;&gt;Node15</title>
<g id="a_edge41_Node000030_Node000015"><a xlink:title=" ">
<path fill="none" stroke="#63b8ff" d="M1223.74,-216.03C1141.45,-205.9 1030.16,-182.49 1079,-132 1130.16,-79.11 2257.85,-80.61 2524.74,-81.71"/>
<polygon fill="#63b8ff" stroke="#63b8ff" points="1223.53,-219.53 1233.87,-217.23 1224.35,-212.58 1223.53,-219.53"/>
</a>
</g>
</g>
<!-- Node30&#45;&gt;Node21 -->
<g id="edge43_Node000030_Node000021" class="edge">
<title>Node30&#45;&gt;Node21</title>
<g id="a_edge43_Node000030_Node000021"><a xlink:title=" ">
<path fill="none" stroke="#63b8ff" d="M1302,-198.75C1302,-188.31 1302,-176.49 1302,-167.54"/>
<polygon fill="#63b8ff" stroke="#63b8ff" points="1298.5,-198.94 1302,-208.94 1305.5,-198.94 1298.5,-198.94"/>
</a>
</g>
</g>
<!-- Node30&#45;&gt;Node23 -->
<g id="edge44_Node000030_Node000023" class="edge">
<title>Node30&#45;&gt;Node23</title>
<g id="a_edge44_Node000030_Node000023"><a xlink:title=" ">
<path fill="none" stroke="#63b8ff" d="M1338.24,-204.34C1360.72,-192.77 1389.15,-178.14 1409.72,-167.54"/>
<polygon fill="#63b8ff" stroke="#63b8ff" points="1336.61,-201.25 1329.32,-208.94 1339.81,-207.47 1336.61,-201.25"/>
</a>
</g>
</g>
<!-- Node30&#45;&gt;Node24 -->
<g id="edge45_Node000030_Node000024" class="edge">
<title>Node30&#45;&gt;Node24</title>
<g id="a_edge45_Node000030_Node000024"><a xlink:title=" ">
<path fill="none" stroke="#63b8ff" d="M1380.66,-214.81C1452.73,-206.61 1562.15,-192.43 1656,-173 1663.51,-171.44 1671.4,-169.55 1679.08,-167.55"/>
<polygon fill="#63b8ff" stroke="#63b8ff" points="1379.86,-211.38 1370.31,-215.97 1380.64,-218.33 1379.86,-211.38"/>
</a>
</g>
</g>
<!-- Node30&#45;&gt;Node25 -->
<g id="edge46_Node000030_Node000025" class="edge">
<title>Node30&#45;&gt;Node25</title>
<g id="a_edge46_Node000030_Node000025"><a xlink:title=" ">
<path fill="none" stroke="#63b8ff" d="M1380.31,-219.23C1478.39,-213.57 1651.28,-200.45 1797,-173 1804.81,-171.53 1813.02,-169.6 1820.95,-167.53"/>
<polygon fill="#63b8ff" stroke="#63b8ff" points="1379.97,-215.75 1370.18,-219.81 1380.36,-222.74 1379.97,-215.75"/>
</a>
</g>
</g>
<!-- Node30&#45;&gt;Node26 -->
<g id="edge47_Node000030_Node000026" class="edge">
<title>Node30&#45;&gt;Node26</title>
<g id="a_edge47_Node000030_Node000026"><a xlink:title=" ">
<path fill="none" stroke="#63b8ff" d="M1380.3,-220.8C1500.64,-216.54 1738.02,-204.58 1937,-173 1939.86,-172.55 1942.76,-172.04 1945.69,-171.51"/>
<polygon fill="#63b8ff" stroke="#63b8ff" points="1379.95,-217.31 1370.08,-221.16 1380.19,-224.31 1379.95,-217.31"/>
</a>
</g>
</g>
<!-- Node30&#45;&gt;Node27 -->
<g id="edge48_Node000030_Node000027" class="edge">
<title>Node30&#45;&gt;Node27</title>
<g id="a_edge48_Node000030_Node000027"><a xlink:title=" ">
<path fill="none" stroke="#63b8ff" d="M1263.69,-204.51C1243.59,-194.81 1218.97,-182.93 1198.56,-173.07"/>
<polygon fill="#63b8ff" stroke="#63b8ff" points="1262.33,-207.74 1272.86,-208.94 1265.37,-201.44 1262.33,-207.74"/>
</a>
</g>
</g>
<!-- Node30&#45;&gt;Node28 -->
<g id="edge49_Node000030_Node000028" class="edge">
<title>Node30&#45;&gt;Node28</title>
<g id="a_edge49_Node000030_Node000028"><a xlink:title=" ">
<path fill="none" stroke="#63b8ff" d="M1370.7,-206.52C1410.54,-196.89 1461.64,-184.43 1507,-173 1510,-172.24 1513.07,-171.47 1516.16,-170.68"/>
<polygon fill="#63b8ff" stroke="#63b8ff" points="1369.72,-203.15 1360.82,-208.9 1371.36,-209.96 1369.72,-203.15"/>
</a>
</g>
</g>
<!-- Node31 -->
<g id="Node000031" class="node">
<title>Node31</title>
<g id="a_Node000031"><a xlink:href="axi__jesd204__tx_8c.html" target="_top" xlink:title="Driver for the Analog Devices AXI&#45;JESD204&#45;TX peripheral.">
<polygon fill="white" stroke="#666666" points="1032,-167.5 896,-167.5 896,-137.5 1032,-137.5 1032,-167.5"/>
<text text-anchor="start" x="904" y="-155.5" font-family="Helvetica,sans-Serif" font-size="10.00">drivers/axi_core/jesd204</text>
<text text-anchor="middle" x="964" y="-144.5" font-family="Helvetica,sans-Serif" font-size="10.00">/axi_jesd204_tx.c</text>
</a>
</g>
</g>
<!-- Node30&#45;&gt;Node31 -->
<g id="edge38_Node000030_Node000031" class="edge">
<title>Node30&#45;&gt;Node31</title>
<g id="a_edge38_Node000030_Node000031"><a xlink:title=" ">
<path fill="none" stroke="#63b8ff" d="M1224,-208.62C1173.2,-199.04 1105.54,-185.89 1046,-173 1038.13,-171.3 1029.86,-169.43 1021.72,-167.54"/>
<polygon fill="#63b8ff" stroke="#63b8ff" points="1223.46,-212.08 1233.93,-210.48 1224.75,-205.2 1223.46,-212.08"/>
</a>
</g>
</g>
<!-- Node32 -->
<g id="Node000032" class="node">
<title>Node32</title>
<g id="a_Node000032"><a xlink:href="ad9172_2src_2main_8c.html" target="_top" xlink:title="Implementation of Main Function.">
<polygon fill="white" stroke="#666666" points="878,-167.5 766,-167.5 766,-137.5 878,-137.5 878,-167.5"/>
<text text-anchor="start" x="774" y="-155.5" font-family="Helvetica,sans-Serif" font-size="10.00">projects/ad9172/src</text>
<text text-anchor="middle" x="822" y="-144.5" font-family="Helvetica,sans-Serif" font-size="10.00">/main.c</text>
</a>
</g>
</g>
<!-- Node30&#45;&gt;Node32 -->
<g id="edge42_Node000030_Node000032" class="edge">
<title>Node30&#45;&gt;Node32</title>
<g id="a_edge42_Node000030_Node000032"><a xlink:title=" ">
<path fill="none" stroke="#63b8ff" d="M1223.63,-217.59C1139.7,-210.86 1002.93,-197.19 887,-173 879.85,-171.51 872.35,-169.6 865.09,-167.55"/>
<polygon fill="#63b8ff" stroke="#63b8ff" points="1223.61,-221.1 1233.85,-218.39 1224.16,-214.12 1223.61,-221.1"/>
</a>
</g>
</g>
<!-- Node33&#45;&gt;Node9 -->
<g id="edge56_Node000033_Node000009" class="edge">
<title>Node33&#45;&gt;Node9</title>
<g id="a_edge56_Node000033_Node000009"><a xlink:title=" ">
<path fill="none" stroke="#63b8ff" d="M2476.89,-206.59C2507.09,-197.51 2538.27,-185.54 2547,-173 2557.41,-158.04 2559.63,-145.14 2547,-132 2505.24,-88.54 1597.71,-82.85 1353.86,-82.11"/>
<polygon fill="#63b8ff" stroke="#63b8ff" points="2475.76,-203.27 2467.14,-209.43 2477.72,-209.99 2475.76,-203.27"/>
</a>
</g>
</g>
<!-- Node34 -->
<g id="Node000034" class="node">
<title>Node34</title>
<g id="a_Node000034"><a xlink:href="ad9144_8c.html" target="_top" xlink:title="Implementation of AD9144 Driver.">
<polygon fill="white" stroke="#666666" points="3260,-167.5 3150,-167.5 3150,-137.5 3260,-137.5 3260,-167.5"/>
<text text-anchor="start" x="3158" y="-155.5" font-family="Helvetica,sans-Serif" font-size="10.00">drivers/dac/ad9144</text>
<text text-anchor="middle" x="3205" y="-144.5" font-family="Helvetica,sans-Serif" font-size="10.00">/ad9144.c</text>
</a>
</g>
</g>
<!-- Node33&#45;&gt;Node34 -->
<g id="edge53_Node000033_Node000034" class="edge">
<title>Node33&#45;&gt;Node34</title>
<g id="a_edge53_Node000033_Node000034"><a xlink:title=" ">
<path fill="none" stroke="#63b8ff" d="M2477.08,-209.02C2768.9,-170.63 2849.47,-220.7 3136,-173 3144.1,-171.65 3152.62,-169.7 3160.79,-167.55"/>
<polygon fill="#63b8ff" stroke="#63b8ff" points="2476.5,-205.57 2467.06,-210.37 2477.43,-212.51 2476.5,-205.57"/>
</a>
</g>
</g>
<!-- Node35 -->
<g id="Node000035" class="node">
<title>Node35</title>
<g id="a_Node000035"><a xlink:href="iio__ad9144_8h.html" target="_top" xlink:title="Header file of AD9144 iio.">
<polygon fill="white" stroke="#666666" points="3388,-167.5 3278,-167.5 3278,-137.5 3388,-137.5 3388,-167.5"/>
<text text-anchor="start" x="3286" y="-155.5" font-family="Helvetica,sans-Serif" font-size="10.00">drivers/dac/ad9144</text>
<text text-anchor="middle" x="3333" y="-144.5" font-family="Helvetica,sans-Serif" font-size="10.00">/iio_ad9144.h</text>
</a>
</g>
</g>
<!-- Node33&#45;&gt;Node35 -->
<g id="edge54_Node000033_Node000035" class="edge">
<title>Node33&#45;&gt;Node35</title>
<g id="a_edge54_Node000033_Node000035"><a xlink:title=" ">
<path fill="none" stroke="#63b8ff" d="M2476.97,-209.05C2827.61,-164.42 2924.54,-232.33 3269,-173 3276.67,-171.68 3284.71,-169.71 3292.4,-167.53"/>
<polygon fill="#63b8ff" stroke="#63b8ff" points="2476.52,-205.58 2467.05,-210.33 2477.42,-212.52 2476.52,-205.58"/>
</a>
</g>
</g>
<!-- Node36 -->
<g id="Node000036" class="node">
<title>Node36</title>
<g id="a_Node000036"><a xlink:href="iio__ad9144_8c.html" target="_top" xlink:title="Implementation of AD9144 IIO Driver.">
<polygon fill="white" stroke="#666666" points="3388,-96 3278,-96 3278,-66 3388,-66 3388,-96"/>
<text text-anchor="start" x="3286" y="-84" font-family="Helvetica,sans-Serif" font-size="10.00">drivers/dac/ad9144</text>
<text text-anchor="middle" x="3333" y="-73" font-family="Helvetica,sans-Serif" font-size="10.00">/iio_ad9144.c</text>
</a>
</g>
</g>
<!-- Node35&#45;&gt;Node36 -->
<g id="edge55_Node000035_Node000036" class="edge">
<title>Node35&#45;&gt;Node36</title>
<g id="a_edge55_Node000035_Node000036"><a xlink:title=" ">
<path fill="none" stroke="#63b8ff" d="M3333,-127.25C3333,-116.81 3333,-104.99 3333,-96.04"/>
<polygon fill="#63b8ff" stroke="#63b8ff" points="3329.5,-127.44 3333,-137.44 3336.5,-127.44 3329.5,-127.44"/>
</a>
</g>
</g>
</g>
</svg>
