<?xml version="1.0" encoding="UTF-8" standalone="no"?>
<!DOCTYPE svg PUBLIC "-//W3C//DTD SVG 1.1//EN"
 "http://www.w3.org/Graphics/SVG/1.1/DTD/svg11.dtd">
<!-- Generated by graphviz version 2.43.0 (0)
 -->
<!-- Title: lt7170_read_byte Pages: 1 -->
<svg width="700pt" height="64pt"
 viewBox="0.00 0.00 700.00 64.00" xmlns="http://www.w3.org/2000/svg" xmlns:xlink="http://www.w3.org/1999/xlink">
<g id="graph0" class="graph" transform="scale(1 1) rotate(0) translate(4 60)">
<title>lt7170_read_byte</title>
<!-- Node1 -->
<g id="Node000001" class="node">
<title>Node1</title>
<g id="a_Node000001"><a xlink:title="Perform a raw PMBus read byte operation.">
<polygon fill="#999999" stroke="#666666" points="692,-38 591,-38 591,-19 692,-19 692,-38"/>
<text text-anchor="middle" x="641.5" y="-26" font-family="Helvetica,sans-Serif" font-size="10.00">lt7170_read_byte</text>
</a>
</g>
</g>
<!-- Node2 -->
<g id="Node000002" class="node">
<title>Node2</title>
<g id="a_Node000002"><a xlink:href="lt7170_8c.html#a24dacb372b871d8b33eaea08eeb86e86" target="_top" xlink:title="Read statuses.">
<polygon fill="white" stroke="#666666" points="409,-56 299,-56 299,-37 409,-37 409,-56"/>
<text text-anchor="middle" x="354" y="-44" font-family="Helvetica,sans-Serif" font-size="10.00">lt7170_read_status</text>
</a>
</g>
</g>
<!-- Node1&#45;&gt;Node2 -->
<g id="edge1_Node000001_Node000002" class="edge">
<title>Node1&#45;&gt;Node2</title>
<g id="a_edge1_Node000001_Node000002"><a xlink:title=" ">
<path fill="none" stroke="#63b8ff" d="M580.61,-32.28C529.94,-35.47 457.95,-40.01 409.02,-43.09"/>
<polygon fill="#63b8ff" stroke="#63b8ff" points="581.01,-35.76 590.77,-31.64 580.57,-28.77 581.01,-35.76"/>
</a>
</g>
</g>
<!-- Node4 -->
<g id="Node000004" class="node">
<title>Node4</title>
<g id="a_Node000004"><a xlink:href="lt7170_8c.html#ae06710b1248bd6cd365141212504488c" target="_top" xlink:title="Configure SYNC pin for clock synchronization.">
<polygon fill="white" stroke="#666666" points="555,-19 445,-19 445,0 555,0 555,-19"/>
<text text-anchor="middle" x="500" y="-7" font-family="Helvetica,sans-Serif" font-size="10.00">lt7170_sync_config</text>
</a>
</g>
</g>
<!-- Node1&#45;&gt;Node4 -->
<g id="edge3_Node000001_Node000004" class="edge">
<title>Node1&#45;&gt;Node4</title>
<g id="a_edge3_Node000001_Node000004"><a xlink:title=" ">
<path fill="none" stroke="#63b8ff" d="M580.98,-20.39C572.41,-19.23 563.62,-18.03 555.15,-16.88"/>
<polygon fill="#63b8ff" stroke="#63b8ff" points="580.54,-23.87 590.92,-21.75 581.49,-16.93 580.54,-23.87"/>
</a>
</g>
</g>
<!-- Node3 -->
<g id="Node000003" class="node">
<title>Node3</title>
<g id="a_Node000003"><a xlink:href="lt7170_2src_2examples_2basic_2basic__example_8c.html#a72943dc9011d36293cb05ca5d7cb6899" target="_top" xlink:title="basic example main execution.">
<polygon fill="white" stroke="#666666" points="263,-56 143,-56 143,-37 263,-37 263,-56"/>
<text text-anchor="middle" x="203" y="-44" font-family="Helvetica,sans-Serif" font-size="10.00">basic_example_main</text>
</a>
</g>
</g>
<!-- Node2&#45;&gt;Node3 -->
<g id="edge2_Node000002_Node000003" class="edge">
<title>Node2&#45;&gt;Node3</title>
<g id="a_edge2_Node000002_Node000003"><a xlink:title=" ">
<path fill="none" stroke="#63b8ff" d="M288.61,-46.5C280.17,-46.5 271.55,-46.5 263.21,-46.5"/>
<polygon fill="#63b8ff" stroke="#63b8ff" points="288.79,-50 298.79,-46.5 288.79,-43 288.79,-50"/>
</a>
</g>
</g>
<!-- Node5 -->
<g id="Node000005" class="node">
<title>Node5</title>
<g id="a_Node000005"><a xlink:href="lt7170_8c.html#ab0301706845e4d14a472712bf0a95823" target="_top" xlink:title="Initialize the device structure.">
<polygon fill="white" stroke="#666666" points="388,-19 320,-19 320,0 388,0 388,-19"/>
<text text-anchor="middle" x="354" y="-7" font-family="Helvetica,sans-Serif" font-size="10.00">lt7170_init</text>
</a>
</g>
</g>
<!-- Node4&#45;&gt;Node5 -->
<g id="edge4_Node000004_Node000005" class="edge">
<title>Node4&#45;&gt;Node5</title>
<g id="a_edge4_Node000004_Node000005"><a xlink:title=" ">
<path fill="none" stroke="#63b8ff" d="M434.59,-9.5C418.64,-9.5 402.18,-9.5 388.4,-9.5"/>
<polygon fill="#63b8ff" stroke="#63b8ff" points="434.97,-13 444.97,-9.5 434.97,-6 434.97,-13"/>
</a>
</g>
</g>
<!-- Node5&#45;&gt;Node3 -->
<g id="edge5_Node000005_Node000003" class="edge">
<title>Node5&#45;&gt;Node3</title>
<g id="a_edge5_Node000005_Node000003"><a xlink:title=" ">
<path fill="none" stroke="#63b8ff" d="M310.15,-20.14C288.81,-25.44 263.22,-31.8 242.51,-36.94"/>
<polygon fill="#63b8ff" stroke="#63b8ff" points="311.07,-23.52 319.93,-17.71 309.38,-16.72 311.07,-23.52"/>
</a>
</g>
</g>
<!-- Node6 -->
<g id="Node000006" class="node">
<title>Node6</title>
<g id="a_Node000006"><a xlink:href="iio__lt7170_8c.html#a649c3cbc7a1d85cb02446a741dcb9b30" target="_top" xlink:title="Initializes the LT7170 IIO descriptor.">
<polygon fill="white" stroke="#666666" points="246,-19 160,-19 160,0 246,0 246,-19"/>
<text text-anchor="middle" x="203" y="-7" font-family="Helvetica,sans-Serif" font-size="10.00">lt7170_iio_init</text>
</a>
</g>
</g>
<!-- Node5&#45;&gt;Node6 -->
<g id="edge6_Node000005_Node000006" class="edge">
<title>Node5&#45;&gt;Node6</title>
<g id="a_edge6_Node000005_Node000006"><a xlink:title=" ">
<path fill="none" stroke="#63b8ff" d="M309.82,-9.5C289.75,-9.5 265.98,-9.5 246.06,-9.5"/>
<polygon fill="#63b8ff" stroke="#63b8ff" points="309.93,-13 319.93,-9.5 309.93,-6 309.93,-13"/>
</a>
</g>
</g>
<!-- Node7 -->
<g id="Node000007" class="node">
<title>Node7</title>
<g id="a_Node000007"><a xlink:href="lt7170_2src_2examples_2iio__example_2iio__example_8c.html#a7d58fb707a91d4615d3bf949fabaa1e2" target="_top" xlink:title="IIO example main execution.">
<polygon fill="white" stroke="#666666" points="107,-19 0,-19 0,0 107,0 107,-19"/>
<text text-anchor="middle" x="53.5" y="-7" font-family="Helvetica,sans-Serif" font-size="10.00">iio_example_main</text>
</a>
</g>
</g>
<!-- Node6&#45;&gt;Node7 -->
<g id="edge7_Node000006_Node000007" class="edge">
<title>Node6&#45;&gt;Node7</title>
<g id="a_edge7_Node000006_Node000007"><a xlink:title=" ">
<path fill="none" stroke="#63b8ff" d="M149.44,-9.5C135.66,-9.5 120.79,-9.5 107.01,-9.5"/>
<polygon fill="#63b8ff" stroke="#63b8ff" points="149.73,-13 159.73,-9.5 149.73,-6 149.73,-13"/>
</a>
</g>
</g>
</g>
</svg>
