<?xml version="1.0" encoding="UTF-8" standalone="no"?>
<!DOCTYPE svg PUBLIC "-//W3C//DTD SVG 1.1//EN"
 "http://www.w3.org/Graphics/SVG/1.1/DTD/svg11.dtd">
<!-- Generated by graphviz version 2.43.0 (0)
 -->
<!-- Title: drivers/power/lt7182s/lt7182s.h Pages: 1 -->
<svg width="665pt" height="181pt"
 viewBox="0.00 0.00 664.50 181.00" xmlns="http://www.w3.org/2000/svg" xmlns:xlink="http://www.w3.org/1999/xlink">
<g id="graph0" class="graph" transform="scale(1 1) rotate(0) translate(4 177)">
<title>drivers/power/lt7182s/lt7182s.h</title>
<!-- Node1 -->
<g id="Node000001" class="node">
<title>Node1</title>
<g id="a_Node000001"><a xlink:title=" ">
<polygon fill="#999999" stroke="#666666" points="351,-173 229,-173 229,-143 351,-143 351,-173"/>
<text text-anchor="start" x="237" y="-161" font-family="Helvetica,sans-Serif" font-size="10.00">drivers/power/lt7182s</text>
<text text-anchor="middle" x="290" y="-150" font-family="Helvetica,sans-Serif" font-size="10.00">/lt7182s.h</text>
</a>
</g>
</g>
<!-- Node2 -->
<g id="Node000002" class="node">
<title>Node2</title>
<g id="a_Node000002"><a xlink:href="iio__lt7182s_8c.html" target="_top" xlink:title="Source file for the LT7182S IIO Driver.">
<polygon fill="white" stroke="#666666" points="122,-30 0,-30 0,0 122,0 122,-30"/>
<text text-anchor="start" x="8" y="-18" font-family="Helvetica,sans-Serif" font-size="10.00">drivers/power/lt7182s</text>
<text text-anchor="middle" x="61" y="-7" font-family="Helvetica,sans-Serif" font-size="10.00">/iio_lt7182s.c</text>
</a>
</g>
</g>
<!-- Node1&#45;&gt;Node2 -->
<g id="edge1_Node000001_Node000002" class="edge">
<title>Node1&#45;&gt;Node2</title>
<g id="a_edge1_Node000001_Node000002"><a xlink:title=" ">
<path fill="none" stroke="#63b8ff" d="M218.68,-148.27C165.62,-140.31 99.21,-126.75 80,-107 59.86,-86.29 58.59,-50.05 59.66,-30.12"/>
<polygon fill="#63b8ff" stroke="#63b8ff" points="218.35,-151.76 228.75,-149.74 219.36,-144.83 218.35,-151.76"/>
</a>
</g>
</g>
<!-- Node3 -->
<g id="Node000003" class="node">
<title>Node3</title>
<g id="a_Node000003"><a xlink:href="iio__lt7182s_8h.html" target="_top" xlink:title="Header file for the LT7182S IIO Driver.">
<polygon fill="white" stroke="#666666" points="211,-101.5 89,-101.5 89,-71.5 211,-71.5 211,-101.5"/>
<text text-anchor="start" x="97" y="-89.5" font-family="Helvetica,sans-Serif" font-size="10.00">drivers/power/lt7182s</text>
<text text-anchor="middle" x="150" y="-78.5" font-family="Helvetica,sans-Serif" font-size="10.00">/iio_lt7182s.h</text>
</a>
</g>
</g>
<!-- Node1&#45;&gt;Node3 -->
<g id="edge2_Node000001_Node000003" class="edge">
<title>Node1&#45;&gt;Node3</title>
<g id="a_edge2_Node000001_Node000003"><a xlink:title=" ">
<path fill="none" stroke="#63b8ff" d="M252.42,-138.34C229.1,-126.77 199.63,-112.14 178.29,-101.54"/>
<polygon fill="#63b8ff" stroke="#63b8ff" points="251.16,-141.62 261.67,-142.94 254.27,-135.35 251.16,-141.62"/>
</a>
</g>
</g>
<!-- Node5 -->
<g id="Node000005" class="node">
<title>Node5</title>
<g id="a_Node000005"><a xlink:href="lt7182s_8c.html" target="_top" xlink:title=" ">
<polygon fill="white" stroke="#666666" points="351,-101.5 229,-101.5 229,-71.5 351,-71.5 351,-101.5"/>
<text text-anchor="start" x="237" y="-89.5" font-family="Helvetica,sans-Serif" font-size="10.00">drivers/power/lt7182s</text>
<text text-anchor="middle" x="290" y="-78.5" font-family="Helvetica,sans-Serif" font-size="10.00">/lt7182s.c</text>
</a>
</g>
</g>
<!-- Node1&#45;&gt;Node5 -->
<g id="edge5_Node000001_Node000005" class="edge">
<title>Node1&#45;&gt;Node5</title>
<g id="a_edge5_Node000001_Node000005"><a xlink:title=" ">
<path fill="none" stroke="#63b8ff" d="M290,-132.75C290,-122.31 290,-110.49 290,-101.54"/>
<polygon fill="#63b8ff" stroke="#63b8ff" points="286.5,-132.94 290,-142.94 293.5,-132.94 286.5,-132.94"/>
</a>
</g>
</g>
<!-- Node6 -->
<g id="Node000006" class="node">
<title>Node6</title>
<g id="a_Node000006"><a xlink:href="lt7182s_2src_2common_2common__data_8h.html" target="_top" xlink:title="Defines common data to be used by lt7182s examples.">
<polygon fill="white" stroke="#666666" points="513,-101.5 369,-101.5 369,-71.5 513,-71.5 513,-101.5"/>
<text text-anchor="start" x="377" y="-89.5" font-family="Helvetica,sans-Serif" font-size="10.00">projects/lt7182s/src</text>
<text text-anchor="middle" x="441" y="-78.5" font-family="Helvetica,sans-Serif" font-size="10.00">/common/common_data.h</text>
</a>
</g>
</g>
<!-- Node1&#45;&gt;Node6 -->
<g id="edge6_Node000001_Node000006" class="edge">
<title>Node1&#45;&gt;Node6</title>
<g id="a_edge6_Node000001_Node000006"><a xlink:title=" ">
<path fill="none" stroke="#63b8ff" d="M329.86,-138.65C355.12,-127.03 387.27,-112.23 410.49,-101.54"/>
<polygon fill="#63b8ff" stroke="#63b8ff" points="328.18,-135.58 320.56,-142.94 331.1,-141.93 328.18,-135.58"/>
</a>
</g>
</g>
<!-- Node8 -->
<g id="Node000008" class="node">
<title>Node8</title>
<g id="a_Node000008"><a xlink:href="lt7182s_2src_2examples_2basic_2basic__example_8c.html" target="_top" xlink:title="Basic example source file for lt7182s project.">
<polygon fill="white" stroke="#666666" points="656.5,-107 531.5,-107 531.5,-66 656.5,-66 656.5,-107"/>
<text text-anchor="start" x="539.5" y="-95" font-family="Helvetica,sans-Serif" font-size="10.00">projects/lt7182s/src</text>
<text text-anchor="start" x="539.5" y="-84" font-family="Helvetica,sans-Serif" font-size="10.00">/examples/basic/basic</text>
<text text-anchor="middle" x="594" y="-73" font-family="Helvetica,sans-Serif" font-size="10.00">_example.c</text>
</a>
</g>
</g>
<!-- Node1&#45;&gt;Node8 -->
<g id="edge8_Node000001_Node000008" class="edge">
<title>Node1&#45;&gt;Node8</title>
<g id="a_edge8_Node000001_Node000008"><a xlink:title=" ">
<path fill="none" stroke="#63b8ff" d="M361.14,-142.67C407.16,-133.16 468.29,-120.05 522,-107 525.02,-106.27 528.11,-105.5 531.22,-104.71"/>
<polygon fill="#63b8ff" stroke="#63b8ff" points="360.35,-139.26 351.26,-144.71 361.76,-146.12 360.35,-139.26"/>
</a>
</g>
</g>
<!-- Node3&#45;&gt;Node2 -->
<g id="edge3_Node000003_Node000002" class="edge">
<title>Node3&#45;&gt;Node2</title>
<g id="a_edge3_Node000003_Node000002"><a xlink:title=" ">
<path fill="none" stroke="#63b8ff" d="M123.91,-65.13C109.47,-53.85 91.89,-40.12 78.98,-30.04"/>
<polygon fill="#63b8ff" stroke="#63b8ff" points="121.95,-68.04 131.99,-71.44 126.26,-62.52 121.95,-68.04"/>
</a>
</g>
</g>
<!-- Node4 -->
<g id="Node000004" class="node">
<title>Node4</title>
<g id="a_Node000004"><a xlink:href="lt7182s_2src_2examples_2iio_2iio__example_8c.html" target="_top" xlink:title="IIO example source file for lt7182s project.">
<polygon fill="white" stroke="#666666" points="294,-30 140,-30 140,0 294,0 294,-30"/>
<text text-anchor="start" x="148" y="-18" font-family="Helvetica,sans-Serif" font-size="10.00">projects/lt7182s/src</text>
<text text-anchor="middle" x="217" y="-7" font-family="Helvetica,sans-Serif" font-size="10.00">/examples/iio/iio_example.c</text>
</a>
</g>
</g>
<!-- Node3&#45;&gt;Node4 -->
<g id="edge4_Node000003_Node000004" class="edge">
<title>Node3&#45;&gt;Node4</title>
<g id="a_edge4_Node000003_Node000004"><a xlink:title=" ">
<path fill="none" stroke="#63b8ff" d="M170.56,-64.17C181.25,-53.08 194.02,-39.84 203.46,-30.04"/>
<polygon fill="#63b8ff" stroke="#63b8ff" points="167.98,-61.81 163.56,-71.44 173.02,-66.67 167.98,-61.81"/>
</a>
</g>
</g>
<!-- Node7 -->
<g id="Node000007" class="node">
<title>Node7</title>
<g id="a_Node000007"><a xlink:href="lt7182s_2src_2common_2common__data_8c.html" target="_top" xlink:title="Defines common data to be used by lt7182s examples.">
<polygon fill="white" stroke="#666666" points="512.5,-30 369.5,-30 369.5,0 512.5,0 512.5,-30"/>
<text text-anchor="start" x="377.5" y="-18" font-family="Helvetica,sans-Serif" font-size="10.00">projects/lt7182s/src</text>
<text text-anchor="middle" x="441" y="-7" font-family="Helvetica,sans-Serif" font-size="10.00">/common/common_data.c</text>
</a>
</g>
</g>
<!-- Node6&#45;&gt;Node7 -->
<g id="edge7_Node000006_Node000007" class="edge">
<title>Node6&#45;&gt;Node7</title>
<g id="a_edge7_Node000006_Node000007"><a xlink:title=" ">
<path fill="none" stroke="#63b8ff" d="M441,-61.25C441,-50.81 441,-38.99 441,-30.04"/>
<polygon fill="#63b8ff" stroke="#63b8ff" points="437.5,-61.44 441,-71.44 444.5,-61.44 437.5,-61.44"/>
</a>
</g>
</g>
</g>
</svg>
