<?xml version="1.0" encoding="UTF-8" standalone="no"?>
<!DOCTYPE svg PUBLIC "-//W3C//DTD SVG 1.1//EN"
 "http://www.w3.org/Graphics/SVG/1.1/DTD/svg11.dtd">
<!-- Generated by graphviz version 2.43.0 (0)
 -->
<!-- Title: lt7170_write_word Pages: 1 -->
<svg width="584pt" height="360pt"
 viewBox="0.00 0.00 584.00 360.00" xmlns="http://www.w3.org/2000/svg" xmlns:xlink="http://www.w3.org/1999/xlink">
<g id="graph0" class="graph" transform="scale(1 1) rotate(0) translate(4 356)">
<title>lt7170_write_word</title>
<!-- Node1 -->
<g id="Node000001" class="node">
<title>Node1</title>
<g id="a_Node000001"><a xlink:title="Perform a raw PMBus write word operation.">
<polygon fill="#999999" stroke="#666666" points="576,-241 469,-241 469,-222 576,-222 576,-241"/>
<text text-anchor="middle" x="522.5" y="-229" font-family="Helvetica,sans-Serif" font-size="10.00">lt7170_write_word</text>
</a>
</g>
</g>
<!-- Node2 -->
<g id="Node000002" class="node">
<title>Node2</title>
<g id="a_Node000002"><a xlink:href="lt7170_8c.html#ab0301706845e4d14a472712bf0a95823" target="_top" xlink:title="Initialize the device structure.">
<polygon fill="white" stroke="#666666" points="400,-315 332,-315 332,-296 400,-296 400,-315"/>
<text text-anchor="middle" x="366" y="-303" font-family="Helvetica,sans-Serif" font-size="10.00">lt7170_init</text>
</a>
</g>
</g>
<!-- Node1&#45;&gt;Node2 -->
<g id="edge1_Node000001_Node000002" class="edge">
<title>Node1&#45;&gt;Node2</title>
<g id="a_edge1_Node000001_Node000002"><a xlink:title=" ">
<path fill="none" stroke="#63b8ff" d="M492.29,-245.49C461.6,-260.19 414.13,-282.93 387.3,-295.78"/>
<polygon fill="#63b8ff" stroke="#63b8ff" points="494.11,-248.5 501.62,-241.02 491.09,-242.19 494.11,-248.5"/>
</a>
</g>
</g>
<!-- Node6 -->
<g id="Node000006" class="node">
<title>Node6</title>
<g id="a_Node000006"><a xlink:href="lt7170_8c.html#a30b2bb5c6fcd4f0cf0afdb61361c7a0e" target="_top" xlink:title="Set output PWM mode.">
<polygon fill="white" stroke="#666666" points="421,-241 311,-241 311,-222 421,-222 421,-241"/>
<text text-anchor="middle" x="366" y="-229" font-family="Helvetica,sans-Serif" font-size="10.00">lt7170_pwm_mode</text>
</a>
</g>
</g>
<!-- Node1&#45;&gt;Node6 -->
<g id="edge5_Node000001_Node000006" class="edge">
<title>Node1&#45;&gt;Node6</title>
<g id="a_edge5_Node000001_Node000006"><a xlink:title=" ">
<path fill="none" stroke="#63b8ff" d="M458.49,-231.5C446.08,-231.5 433.16,-231.5 421.08,-231.5"/>
<polygon fill="#63b8ff" stroke="#63b8ff" points="458.76,-235 468.76,-231.5 458.76,-228 458.76,-235"/>
</a>
</g>
</g>
<!-- Node7 -->
<g id="Node000007" class="node">
<title>Node7</title>
<g id="a_Node000007"><a xlink:href="lt7170_8c.html#ac72b0c4c2cbafe50f388fb9e3adaebb4" target="_top" xlink:title="Converts value to register data and do PMBus write word operation.">
<polygon fill="white" stroke="#666666" points="433,-167 299,-167 299,-148 433,-148 433,-167"/>
<text text-anchor="middle" x="366" y="-155" font-family="Helvetica,sans-Serif" font-size="10.00">lt7170_write_word_data</text>
</a>
</g>
</g>
<!-- Node1&#45;&gt;Node7 -->
<g id="edge6_Node000001_Node000007" class="edge">
<title>Node1&#45;&gt;Node7</title>
<g id="a_edge6_Node000001_Node000007"><a xlink:title=" ">
<path fill="none" stroke="#63b8ff" d="M492.29,-217.51C461.6,-202.81 414.13,-180.07 387.3,-167.22"/>
<polygon fill="#63b8ff" stroke="#63b8ff" points="491.09,-220.81 501.62,-221.98 494.11,-214.5 491.09,-220.81"/>
</a>
</g>
</g>
<!-- Node3 -->
<g id="Node000003" class="node">
<title>Node3</title>
<g id="a_Node000003"><a xlink:href="lt7170_2src_2examples_2basic_2basic__example_8c.html#a72943dc9011d36293cb05ca5d7cb6899" target="_top" xlink:title="basic example main execution.">
<polygon fill="white" stroke="#666666" points="263,-352 143,-352 143,-333 263,-333 263,-352"/>
<text text-anchor="middle" x="203" y="-340" font-family="Helvetica,sans-Serif" font-size="10.00">basic_example_main</text>
</a>
</g>
</g>
<!-- Node2&#45;&gt;Node3 -->
<g id="edge2_Node000002_Node000003" class="edge">
<title>Node2&#45;&gt;Node3</title>
<g id="a_edge2_Node000002_Node000003"><a xlink:title=" ">
<path fill="none" stroke="#63b8ff" d="M321.88,-315.41C298.22,-320.85 269.04,-327.55 245.63,-332.93"/>
<polygon fill="#63b8ff" stroke="#63b8ff" points="322.68,-318.82 331.64,-313.17 321.11,-312 322.68,-318.82"/>
</a>
</g>
</g>
<!-- Node4 -->
<g id="Node000004" class="node">
<title>Node4</title>
<g id="a_Node000004"><a xlink:href="iio__lt7170_8c.html#a649c3cbc7a1d85cb02446a741dcb9b30" target="_top" xlink:title="Initializes the LT7170 IIO descriptor.">
<polygon fill="white" stroke="#666666" points="246,-315 160,-315 160,-296 246,-296 246,-315"/>
<text text-anchor="middle" x="203" y="-303" font-family="Helvetica,sans-Serif" font-size="10.00">lt7170_iio_init</text>
</a>
</g>
</g>
<!-- Node2&#45;&gt;Node4 -->
<g id="edge3_Node000002_Node000004" class="edge">
<title>Node2&#45;&gt;Node4</title>
<g id="a_edge3_Node000002_Node000004"><a xlink:title=" ">
<path fill="none" stroke="#63b8ff" d="M321.64,-305.5C298.23,-305.5 269.45,-305.5 246.22,-305.5"/>
<polygon fill="#63b8ff" stroke="#63b8ff" points="321.64,-309 331.64,-305.5 321.64,-302 321.64,-309"/>
</a>
</g>
</g>
<!-- Node5 -->
<g id="Node000005" class="node">
<title>Node5</title>
<g id="a_Node000005"><a xlink:href="lt7170_2src_2examples_2iio__example_2iio__example_8c.html#a7d58fb707a91d4615d3bf949fabaa1e2" target="_top" xlink:title="IIO example main execution.">
<polygon fill="white" stroke="#666666" points="107,-315 0,-315 0,-296 107,-296 107,-315"/>
<text text-anchor="middle" x="53.5" y="-303" font-family="Helvetica,sans-Serif" font-size="10.00">iio_example_main</text>
</a>
</g>
</g>
<!-- Node4&#45;&gt;Node5 -->
<g id="edge4_Node000004_Node000005" class="edge">
<title>Node4&#45;&gt;Node5</title>
<g id="a_edge4_Node000004_Node000005"><a xlink:title=" ">
<path fill="none" stroke="#63b8ff" d="M149.44,-305.5C135.66,-305.5 120.79,-305.5 107.01,-305.5"/>
<polygon fill="#63b8ff" stroke="#63b8ff" points="149.73,-309 159.73,-305.5 149.73,-302 149.73,-309"/>
</a>
</g>
</g>
<!-- Node8 -->
<g id="Node000008" class="node">
<title>Node8</title>
<g id="a_Node000008"><a xlink:href="lt7170_8c.html#a26161612639b4a22520ec0b73d037250" target="_top" xlink:title="Set output PWM phase.">
<polygon fill="white" stroke="#666666" points="258.5,-278 147.5,-278 147.5,-259 258.5,-259 258.5,-278"/>
<text text-anchor="middle" x="203" y="-266" font-family="Helvetica,sans-Serif" font-size="10.00">lt7170_pwm_phase</text>
</a>
</g>
</g>
<!-- Node7&#45;&gt;Node8 -->
<g id="edge7_Node000007_Node000008" class="edge">
<title>Node7&#45;&gt;Node8</title>
<g id="a_edge7_Node000007_Node000008"><a xlink:title=" ">
<path fill="none" stroke="#63b8ff" d="M344.47,-173.69C331.2,-184.37 313.72,-198.87 299,-212.5 282.16,-228.09 282.5,-237.4 263,-249.5 256.87,-253.3 249.91,-256.41 242.97,-258.94"/>
<polygon fill="#63b8ff" stroke="#63b8ff" points="346.88,-176.24 352.51,-167.27 342.51,-170.77 346.88,-176.24"/>
</a>
</g>
</g>
<!-- Node9 -->
<g id="Node000009" class="node">
<title>Node9</title>
<g id="a_Node000009"><a xlink:href="lt7170_8c.html#a105003e15e4b73ebb4df2622eae48162" target="_top" xlink:title="Set overvalue and undervalue limits.">
<polygon fill="white" stroke="#666666" points="250.5,-241 155.5,-241 155.5,-222 250.5,-222 250.5,-241"/>
<text text-anchor="middle" x="203" y="-229" font-family="Helvetica,sans-Serif" font-size="10.00">lt7170_set_limit</text>
</a>
</g>
</g>
<!-- Node7&#45;&gt;Node9 -->
<g id="edge8_Node000007_Node000009" class="edge">
<title>Node7&#45;&gt;Node9</title>
<g id="a_edge8_Node000007_Node000009"><a xlink:title=" ">
<path fill="none" stroke="#63b8ff" d="M340.32,-172.46C320.05,-184.35 290.32,-200.85 263,-212.5 254.78,-216 245.69,-219.23 237.16,-222"/>
<polygon fill="#63b8ff" stroke="#63b8ff" points="342.38,-175.31 349.2,-167.2 338.81,-169.29 342.38,-175.31"/>
</a>
</g>
</g>
<!-- Node10 -->
<g id="Node000010" class="node">
<title>Node10</title>
<g id="a_Node000010"><a xlink:href="lt7170_8c.html#ae9beffff5489fc537e6e975d70b29c5d" target="_top" xlink:title="Set timing values.">
<polygon fill="white" stroke="#666666" points="255,-204 151,-204 151,-185 255,-185 255,-204"/>
<text text-anchor="middle" x="203" y="-192" font-family="Helvetica,sans-Serif" font-size="10.00">lt7170_set_timing</text>
</a>
</g>
</g>
<!-- Node7&#45;&gt;Node10 -->
<g id="edge9_Node000007_Node000010" class="edge">
<title>Node7&#45;&gt;Node10</title>
<g id="a_edge9_Node000007_Node000010"><a xlink:title=" ">
<path fill="none" stroke="#63b8ff" d="M313.7,-169.29C291.73,-174.34 266.39,-180.16 245.6,-184.94"/>
<polygon fill="#63b8ff" stroke="#63b8ff" points="314.58,-172.68 323.54,-167.03 313.01,-165.86 314.58,-172.68"/>
</a>
</g>
</g>
<!-- Node11 -->
<g id="Node000011" class="node">
<title>Node11</title>
<g id="a_Node000011"><a xlink:href="lt7170_8c.html#a8f992af95299159650719a1aca9d4fd9" target="_top" xlink:title="Set input voltage window at which power conversion will proceed.">
<polygon fill="white" stroke="#666666" points="247,-167 159,-167 159,-148 247,-148 247,-167"/>
<text text-anchor="middle" x="203" y="-155" font-family="Helvetica,sans-Serif" font-size="10.00">lt7170_set_vin</text>
</a>
</g>
</g>
<!-- Node7&#45;&gt;Node11 -->
<g id="edge10_Node000007_Node000011" class="edge">
<title>Node7&#45;&gt;Node11</title>
<g id="a_edge10_Node000007_Node000011"><a xlink:title=" ">
<path fill="none" stroke="#63b8ff" d="M288.36,-157.5C274.24,-157.5 259.96,-157.5 247.26,-157.5"/>
<polygon fill="#63b8ff" stroke="#63b8ff" points="288.59,-161 298.59,-157.5 288.59,-154 288.59,-161"/>
</a>
</g>
</g>
<!-- Node12 -->
<g id="Node000012" class="node">
<title>Node12</title>
<g id="a_Node000012"><a xlink:href="lt7170_8c.html#ade605b4754f46632075c7ee1d71073e4" target="_top" xlink:title="Set switching frequency.">
<polygon fill="white" stroke="#666666" points="257.5,-130 148.5,-130 148.5,-111 257.5,-111 257.5,-130"/>
<text text-anchor="middle" x="203" y="-118" font-family="Helvetica,sans-Serif" font-size="10.00">lt7170_switch_freq</text>
</a>
</g>
</g>
<!-- Node7&#45;&gt;Node12 -->
<g id="edge11_Node000007_Node000012" class="edge">
<title>Node7&#45;&gt;Node12</title>
<g id="a_edge11_Node000007_Node000012"><a xlink:title=" ">
<path fill="none" stroke="#63b8ff" d="M313.7,-145.71C291.73,-140.66 266.39,-134.84 245.6,-130.06"/>
<polygon fill="#63b8ff" stroke="#63b8ff" points="313.01,-149.14 323.54,-147.97 314.58,-142.32 313.01,-149.14"/>
</a>
</g>
</g>
<!-- Node13 -->
<g id="Node000013" class="node">
<title>Node13</title>
<g id="a_Node000013"><a xlink:href="lt7170_8c.html#a1a277c96ce8532bfff985a372d20ffed" target="_top" xlink:title="Set output voltage margin.">
<polygon fill="white" stroke="#666666" points="260,-93 146,-93 146,-74 260,-74 260,-93"/>
<text text-anchor="middle" x="203" y="-81" font-family="Helvetica,sans-Serif" font-size="10.00">lt7170_vout_margin</text>
</a>
</g>
</g>
<!-- Node7&#45;&gt;Node13 -->
<g id="edge12_Node000007_Node000013" class="edge">
<title>Node7&#45;&gt;Node13</title>
<g id="a_edge12_Node000007_Node000013"><a xlink:title=" ">
<path fill="none" stroke="#63b8ff" d="M341.39,-142.71C321.15,-130.48 290.93,-113.28 263,-101.5 255.6,-98.38 247.47,-95.54 239.68,-93.09"/>
<polygon fill="#63b8ff" stroke="#63b8ff" points="339.58,-145.71 349.94,-147.94 343.24,-139.74 339.58,-145.71"/>
</a>
</g>
</g>
<!-- Node14 -->
<g id="Node000014" class="node">
<title>Node14</title>
<g id="a_Node000014"><a xlink:href="lt7170_8c.html#a13612dfb2eb5a8f7193bbf67ef0f9f0c" target="_top" xlink:title="Set output voltage transition rate.">
<polygon fill="white" stroke="#666666" points="246.5,-56 159.5,-56 159.5,-37 246.5,-37 246.5,-56"/>
<text text-anchor="middle" x="203" y="-44" font-family="Helvetica,sans-Serif" font-size="10.00">lt7170_vout_tr</text>
</a>
</g>
</g>
<!-- Node7&#45;&gt;Node14 -->
<g id="edge13_Node000007_Node000014" class="edge">
<title>Node7&#45;&gt;Node14</title>
<g id="a_edge13_Node000007_Node000014"><a xlink:title=" ">
<path fill="none" stroke="#63b8ff" d="M350.35,-140.08C331.96,-119.26 298.51,-84.72 263,-64.5 257.14,-61.16 250.59,-58.38 244.04,-56.07"/>
<polygon fill="#63b8ff" stroke="#63b8ff" points="347.87,-142.56 357.06,-147.83 353.16,-137.97 347.87,-142.56"/>
</a>
</g>
</g>
<!-- Node15 -->
<g id="Node000015" class="node">
<title>Node15</title>
<g id="a_Node000015"><a xlink:href="lt7170_8c.html#a4b0a95d50798584fb60972e4e86323d1" target="_top" xlink:title="Set output voltage and its upper limit.">
<polygon fill="white" stroke="#666666" points="256.5,-19 149.5,-19 149.5,0 256.5,0 256.5,-19"/>
<text text-anchor="middle" x="203" y="-7" font-family="Helvetica,sans-Serif" font-size="10.00">lt7170_vout_value</text>
</a>
</g>
</g>
<!-- Node7&#45;&gt;Node15 -->
<g id="edge14_Node000007_Node000015" class="edge">
<title>Node7&#45;&gt;Node15</title>
<g id="a_edge14_Node000007_Node000015"><a xlink:title=" ">
<path fill="none" stroke="#63b8ff" d="M355.28,-138.82C339.63,-110.55 306.18,-57.09 263,-27.5 258.05,-24.11 252.45,-21.34 246.71,-19.09"/>
<polygon fill="#63b8ff" stroke="#63b8ff" points="352.23,-140.54 360.06,-147.68 358.39,-137.22 352.23,-140.54"/>
</a>
</g>
</g>
</g>
</svg>
