<?xml version="1.0" encoding="UTF-8" standalone="no"?>
<!DOCTYPE svg PUBLIC "-//W3C//DTD SVG 1.1//EN"
 "http://www.w3.org/Graphics/SVG/1.1/DTD/svg11.dtd">
<!-- Generated by graphviz version 2.43.0 (0)
 -->
<!-- Title: projects/lt7170/src/examples/iio_example/iio_example.c Pages: 1 -->
<!--zoomable 324 -->

<svg id="main" version="1.1" xmlns="http://www.w3.org/2000/svg" xmlns:xlink="http://www.w3.org/1999/xlink" xml:space="preserve" onload="init(evt)">

<style type="text/css"><![CDATA[
.node, .edge {opacity: 0.7;}
.node.selected, .edge.selected {opacity: 1;}
.edge:hover path { stroke: red; }
.edge:hover polygon { stroke: red; fill: red; }
]]></style>

<defs>
  <circle id="rim" cx="0" cy="0" r="7"/>
  <circle id="rim2" cx="0" cy="0" r="3.5"/>
  <g id="zoomPlus">
    <use xlink:href="#rim" fill="#404040"><set attributeName="fill" to="#808080" begin="zoomplus.mouseover" end="zoomplus.mouseout"/></use>
    <path d="M-4,0h8M0,-4v8" fill="none" stroke="white" stroke-width="1.5" pointer-events="none"/>
  </g>
  <g id="zoomMin">
    <use xlink:href="#rim" fill="#404040"><set attributeName="fill" to="#808080" begin="zoomminus.mouseover" end="zoomminus.mouseout"/></use>
    <path d="M-4,0h8" fill="none" stroke="white" stroke-width="1.5" pointer-events="none"/>
  </g>
  <g id="arrowUp" transform="translate(30 24)">
    <use xlink:href="#rim"/>
    <path pointer-events="none" fill="none" stroke="white" stroke-width="1.5" d="M0,-3.0v7 M-2.5,-0.5L0,-3.0L2.5,-0.5"/>
  </g>
  <g id="arrowRight" transform="rotate(90) translate(36 -43)">
    <use xlink:href="#rim"/>
    <path pointer-events="none" fill="none" stroke="white" stroke-width="1.5" d="M0,-3.0v7 M-2.5,-0.5L0,-3.0L2.5,-0.5"/>
  </g>
  <g id="arrowDown" transform="rotate(180) translate(-30 -48)">
    <use xlink:href="#rim"/>
    <path pointer-events="none" fill="none" stroke="white" stroke-width="1.5" d="M0,-3.0v7 M-2.5,-0.5L0,-3.0L2.5,-0.5"/>
  </g>
  <g id="arrowLeft" transform="rotate(270) translate(-36 17)">
    <use xlink:href="#rim"/>
    <path pointer-events="none" fill="none" stroke="white" stroke-width="1.5" d="M0,-3.0v7 M-2.5,-0.5L0,-3.0L2.5,-0.5"/>
  </g>
  <g id="resetDef">
    <use xlink:href="#rim2" fill="#404040"><set attributeName="fill" to="#808080" begin="reset.mouseover" end="reset.mouseout"/></use>
  </g>
</defs>
<script type="application/ecmascript">
var viewWidth = 882;
var viewHeight = 324;
var sectionId = 'dynsection-0';
</script>
<script type="application/ecmascript" xlink:href="svg.min.js"/>
<svg id="graph" class="graph">
<g id="viewport">
<title>projects/lt7170/src/examples/iio_example/iio_example.c</title>
<!-- Node1 -->
<g id="Node000001" class="node">
<title>Node1</title>
<g id="a_Node000001"><a xlink:title="IIO example source file for lt7170 project.">
<polygon fill="#999999" stroke="#666666" points="653.5,-316 522.5,-316 522.5,-275 653.5,-275 653.5,-316"/>
<text text-anchor="start" x="530.5" y="-304" font-family="Helvetica,sans-Serif" font-size="10.00">projects/lt7170/src</text>
<text text-anchor="start" x="530.5" y="-293" font-family="Helvetica,sans-Serif" font-size="10.00">/examples/iio_example</text>
<text text-anchor="middle" x="588" y="-282" font-family="Helvetica,sans-Serif" font-size="10.00">/iio_example.c</text>
</a>
</g>
</g>
<!-- Node2 -->
<g id="Node000002" class="node">
<title>Node2</title>
<g id="a_Node000002"><a xlink:href="lt7170_2src_2examples_2iio__example_2iio__example_8h.html" target="_top" xlink:title="IIO example header file for lt7170 project.">
<polygon fill="white" stroke="#666666" points="447,-239 361,-239 361,-220 447,-220 447,-239"/>
<text text-anchor="middle" x="404" y="-227" font-family="Helvetica,sans-Serif" font-size="10.00">iio_example.h</text>
</a>
</g>
</g>
<!-- Node1&#45;&gt;Node2 -->
<g id="edge1_Node000001_Node000002" class="edge">
<title>Node1&#45;&gt;Node2</title>
<g id="a_edge1_Node000001_Node000002"><a xlink:title=" ">
<path fill="none" stroke="#63b8ff" d="M531.79,-274.95C501.24,-264.32 464.45,-251.53 438.21,-242.4"/>
<polygon fill="#63b8ff" stroke="#63b8ff" points="439.3,-239.07 428.7,-239.09 437,-245.68 439.3,-239.07"/>
</a>
</g>
</g>
<!-- Node3 -->
<g id="Node000003" class="node">
<title>Node3</title>
<g id="a_Node000003"><a xlink:href="iio__lt7170_8h.html" target="_top" xlink:title="Header file for the LT7170 IIO Driver.">
<polygon fill="white" stroke="#666666" points="539,-239 465,-239 465,-220 539,-220 539,-239"/>
<text text-anchor="middle" x="502" y="-227" font-family="Helvetica,sans-Serif" font-size="10.00">iio_lt7170.h</text>
</a>
</g>
</g>
<!-- Node1&#45;&gt;Node3 -->
<g id="edge2_Node000001_Node000003" class="edge">
<title>Node1&#45;&gt;Node3</title>
<g id="a_edge2_Node000001_Node000003"><a xlink:title=" ">
<path fill="none" stroke="#63b8ff" d="M561.73,-274.95C548.98,-265.46 533.9,-254.24 522.08,-245.44"/>
<polygon fill="#63b8ff" stroke="#63b8ff" points="523.88,-242.42 513.77,-239.26 519.7,-248.04 523.88,-242.42"/>
</a>
</g>
</g>
<!-- Node16 -->
<g id="Node000016" class="node">
<title>Node16</title>
<g id="a_Node000016"><a xlink:title=" ">
<polygon fill="#e0e0e0" stroke="#999999" points="731.5,-239 636.5,-239 636.5,-220 731.5,-220 731.5,-239"/>
<text text-anchor="middle" x="684" y="-227" font-family="Helvetica,sans-Serif" font-size="10.00">common_data.h</text>
</a>
</g>
</g>
<!-- Node1&#45;&gt;Node16 -->
<g id="edge26_Node000001_Node000016" class="edge">
<title>Node1&#45;&gt;Node16</title>
<g id="a_edge26_Node000001_Node000016"><a xlink:title=" ">
<path fill="none" stroke="#63b8ff" d="M617.32,-274.95C631.93,-265.21 649.27,-253.65 662.6,-244.76"/>
<polygon fill="#63b8ff" stroke="#63b8ff" points="664.73,-247.55 671.11,-239.09 660.85,-241.73 664.73,-247.55"/>
</a>
</g>
</g>
<!-- Node17 -->
<g id="Node000017" class="node">
<title>Node17</title>
<g id="a_Node000017"><a xlink:href="no__os__print__log_8h.html" target="_top" xlink:title="Print messages helpers.">
<polygon fill="white" stroke="#666666" points="874,-239 772,-239 772,-220 874,-220 874,-239"/>
<text text-anchor="middle" x="823" y="-227" font-family="Helvetica,sans-Serif" font-size="10.00">no_os_print_log.h</text>
</a>
</g>
</g>
<!-- Node1&#45;&gt;Node17 -->
<g id="edge27_Node000001_Node000017" class="edge">
<title>Node1&#45;&gt;Node17</title>
<g id="a_edge27_Node000001_Node000017"><a xlink:title=" ">
<path fill="none" stroke="#63b8ff" d="M653.77,-276.59C694.8,-265.41 746.35,-251.38 781.7,-241.75"/>
<polygon fill="#63b8ff" stroke="#63b8ff" points="782.95,-245.04 791.67,-239.03 781.11,-238.28 782.95,-245.04"/>
</a>
</g>
</g>
<!-- Node19 -->
<g id="Node000019" class="node">
<title>Node19</title>
<g id="a_Node000019"><a xlink:href="iio__app_8h.html" target="_top" xlink:title="Header file of iio_app.">
<polygon fill="white" stroke="#666666" points="618.5,-239 557.5,-239 557.5,-220 618.5,-220 618.5,-239"/>
<text text-anchor="middle" x="588" y="-227" font-family="Helvetica,sans-Serif" font-size="10.00">iio_app.h</text>
</a>
</g>
</g>
<!-- Node1&#45;&gt;Node19 -->
<g id="edge29_Node000001_Node000019" class="edge">
<title>Node1&#45;&gt;Node19</title>
<g id="a_edge29_Node000001_Node000019"><a xlink:title=" ">
<path fill="none" stroke="#63b8ff" d="M588,-274.95C588,-266.85 588,-257.5 588,-249.47"/>
<polygon fill="#63b8ff" stroke="#63b8ff" points="591.5,-249.26 588,-239.26 584.5,-249.26 591.5,-249.26"/>
</a>
</g>
</g>
<!-- Node4 -->
<g id="Node000004" class="node">
<title>Node4</title>
<g id="a_Node000004"><a xlink:title=" ">
<polygon fill="#e0e0e0" stroke="#999999" points="62,-19 0,-19 0,0 62,0 62,-19"/>
<text text-anchor="middle" x="31" y="-7" font-family="Helvetica,sans-Serif" font-size="10.00">stdbool.h</text>
</a>
</g>
</g>
<!-- Node3&#45;&gt;Node4 -->
<g id="edge3_Node000003_Node000004" class="edge">
<title>Node3&#45;&gt;Node4</title>
<g id="a_edge3_Node000003_Node000004"><a xlink:title=" ">
<path fill="none" stroke="#63b8ff" d="M466.51,-219.97C357.99,-193.53 36.27,-112.47 8,-74 -2.37,-59.89 7.18,-40.64 16.94,-27.05"/>
<polygon fill="#63b8ff" stroke="#63b8ff" points="19.79,-29.08 23.18,-19.04 14.27,-24.78 19.79,-29.08"/>
</a>
</g>
</g>
<!-- Node5 -->
<g id="Node000005" class="node">
<title>Node5</title>
<g id="a_Node000005"><a xlink:href="iio_8h.html" target="_top" xlink:title="Header file of iio.">
<polygon fill="white" stroke="#666666" points="460,-184 422,-184 422,-165 460,-165 460,-184"/>
<text text-anchor="middle" x="441" y="-172" font-family="Helvetica,sans-Serif" font-size="10.00">iio.h</text>
</a>
</g>
</g>
<!-- Node3&#45;&gt;Node5 -->
<g id="edge4_Node000003_Node000005" class="edge">
<title>Node3&#45;&gt;Node5</title>
<g id="a_edge4_Node000003_Node000005"><a xlink:title=" ">
<path fill="none" stroke="#63b8ff" d="M492.2,-219.98C483.18,-212.15 469.59,-200.34 458.68,-190.86"/>
<polygon fill="#63b8ff" stroke="#63b8ff" points="460.82,-188.09 450.98,-184.17 456.23,-193.37 460.82,-188.09"/>
</a>
</g>
</g>
<!-- Node12 -->
<g id="Node000012" class="node">
<title>Node12</title>
<g id="a_Node000012"><a xlink:href="lt7170_8h.html" target="_top" xlink:title=" ">
<polygon fill="white" stroke="#666666" points="554,-129 498,-129 498,-110 554,-110 554,-129"/>
<text text-anchor="middle" x="526" y="-117" font-family="Helvetica,sans-Serif" font-size="10.00">lt7170.h</text>
</a>
</g>
</g>
<!-- Node3&#45;&gt;Node12 -->
<g id="edge17_Node000003_Node000012" class="edge">
<title>Node3&#45;&gt;Node12</title>
<g id="a_edge17_Node000003_Node000012"><a xlink:title=" ">
<path fill="none" stroke="#63b8ff" d="M503.96,-219.66C507.87,-202.09 516.68,-162.45 521.9,-138.95"/>
<polygon fill="#63b8ff" stroke="#63b8ff" points="525.32,-139.68 524.08,-129.16 518.49,-138.16 525.32,-139.68"/>
</a>
</g>
</g>
<!-- Node6 -->
<g id="Node000006" class="node">
<title>Node6</title>
<g id="a_Node000006"><a xlink:href="iio__types_8h.html" target="_top" xlink:title="Header file for iio_types.">
<polygon fill="white" stroke="#666666" points="361,-129 291,-129 291,-110 361,-110 361,-129"/>
<text text-anchor="middle" x="326" y="-117" font-family="Helvetica,sans-Serif" font-size="10.00">iio_types.h</text>
</a>
</g>
</g>
<!-- Node5&#45;&gt;Node6 -->
<g id="edge5_Node000005_Node000006" class="edge">
<title>Node5&#45;&gt;Node6</title>
<g id="a_edge5_Node000005_Node000006"><a xlink:title=" ">
<path fill="none" stroke="#63b8ff" d="M422.52,-164.98C404.02,-156.46 375.32,-143.23 354.02,-133.41"/>
<polygon fill="#63b8ff" stroke="#63b8ff" points="355.36,-130.18 344.81,-129.17 352.43,-136.53 355.36,-130.18"/>
</a>
</g>
</g>
<!-- Node9 -->
<g id="Node000009" class="node">
<title>Node9</title>
<g id="a_Node000009"><a xlink:href="no__os__uart_8h.html" target="_top" xlink:title="Header file of UART interface.">
<polygon fill="white" stroke="#666666" points="480.5,-129 401.5,-129 401.5,-110 480.5,-110 480.5,-129"/>
<text text-anchor="middle" x="441" y="-117" font-family="Helvetica,sans-Serif" font-size="10.00">no_os_uart.h</text>
</a>
</g>
</g>
<!-- Node5&#45;&gt;Node9 -->
<g id="edge10_Node000005_Node000009" class="edge">
<title>Node5&#45;&gt;Node9</title>
<g id="a_edge10_Node000005_Node000009"><a xlink:title=" ">
<path fill="none" stroke="#63b8ff" d="M441,-164.75C441,-157.8 441,-147.85 441,-139.13"/>
<polygon fill="#63b8ff" stroke="#63b8ff" points="444.5,-139.09 441,-129.09 437.5,-139.09 444.5,-139.09"/>
</a>
</g>
</g>
<!-- Node6&#45;&gt;Node4 -->
<g id="edge6_Node000006_Node000004" class="edge">
<title>Node6&#45;&gt;Node4</title>
<g id="a_edge6_Node000006_Node000004"><a xlink:title=" ">
<path fill="none" stroke="#63b8ff" d="M290.74,-118.93C217.35,-118.99 52.09,-114.5 17,-74 5.95,-61.24 12.58,-41.73 20.01,-27.7"/>
<polygon fill="#63b8ff" stroke="#63b8ff" points="23.06,-29.42 25.07,-19.02 17.01,-25.89 23.06,-29.42"/>
</a>
</g>
</g>
<!-- Node7 -->
<g id="Node000007" class="node">
<title>Node7</title>
<g id="a_Node000007"><a xlink:title=" ">
<polygon fill="#e0e0e0" stroke="#999999" points="491.5,-19 438.5,-19 438.5,0 491.5,0 491.5,-19"/>
<text text-anchor="middle" x="465" y="-7" font-family="Helvetica,sans-Serif" font-size="10.00">stdint.h</text>
</a>
</g>
</g>
<!-- Node6&#45;&gt;Node7 -->
<g id="edge7_Node000006_Node000007" class="edge">
<title>Node6&#45;&gt;Node7</title>
<g id="a_edge7_Node000006_Node000007"><a xlink:title=" ">
<path fill="none" stroke="#63b8ff" d="M317.43,-109.96C305.52,-97.05 286.82,-72.21 300,-55 315.49,-34.78 384.45,-21.66 428.17,-15.22"/>
<polygon fill="#63b8ff" stroke="#63b8ff" points="428.75,-18.67 438.16,-13.8 427.77,-11.74 428.75,-18.67"/>
</a>
</g>
</g>
<!-- Node8 -->
<g id="Node000008" class="node">
<title>Node8</title>
<g id="a_Node000008"><a xlink:href="no__os__circular__buffer_8h.html" target="_top" xlink:title="Circular buffer library header.">
<polygon fill="white" stroke="#666666" points="437,-74 309,-74 309,-55 437,-55 437,-74"/>
<text text-anchor="middle" x="373" y="-62" font-family="Helvetica,sans-Serif" font-size="10.00">no_os_circular_buffer.h</text>
</a>
</g>
</g>
<!-- Node6&#45;&gt;Node8 -->
<g id="edge8_Node000006_Node000008" class="edge">
<title>Node6&#45;&gt;Node8</title>
<g id="a_edge8_Node000006_Node000008"><a xlink:title=" ">
<path fill="none" stroke="#63b8ff" d="M333.76,-109.75C340.47,-102.18 350.34,-91.05 358.51,-81.84"/>
<polygon fill="#63b8ff" stroke="#63b8ff" points="361.37,-83.89 365.38,-74.09 356.13,-79.25 361.37,-83.89"/>
</a>
</g>
</g>
<!-- Node8&#45;&gt;Node7 -->
<g id="edge9_Node000008_Node000007" class="edge">
<title>Node8&#45;&gt;Node7</title>
<g id="a_edge9_Node000008_Node000007"><a xlink:title=" ">
<path fill="none" stroke="#63b8ff" d="M387.78,-54.98C402.18,-46.69 424.31,-33.94 441.19,-24.22"/>
<polygon fill="#63b8ff" stroke="#63b8ff" points="443.03,-27.19 449.95,-19.17 439.54,-21.13 443.03,-27.19"/>
</a>
</g>
</g>
<!-- Node9&#45;&gt;Node4 -->
<g id="edge12_Node000009_Node000004" class="edge">
<title>Node9&#45;&gt;Node4</title>
<g id="a_edge12_Node000009_Node000004"><a xlink:title=" ">
<path fill="none" stroke="#63b8ff" d="M401.2,-113.68C391.03,-112.47 380.11,-111.17 370,-110 298.92,-101.75 104.91,-119.88 50,-74 37.04,-63.17 32.7,-43.89 31.35,-29.4"/>
<polygon fill="#63b8ff" stroke="#63b8ff" points="34.82,-28.87 30.8,-19.07 27.83,-29.24 34.82,-28.87"/>
</a>
</g>
</g>
<!-- Node9&#45;&gt;Node7 -->
<g id="edge11_Node000009_Node000007" class="edge">
<title>Node9&#45;&gt;Node7</title>
<g id="a_edge11_Node000009_Node000007"><a xlink:title=" ">
<path fill="none" stroke="#63b8ff" d="M442.96,-109.66C446.87,-92.09 455.68,-52.45 460.9,-28.95"/>
<polygon fill="#63b8ff" stroke="#63b8ff" points="464.32,-29.68 463.08,-19.16 457.49,-28.16 464.32,-29.68"/>
</a>
</g>
</g>
<!-- Node10 -->
<g id="Node000010" class="node">
<title>Node10</title>
<g id="a_Node000010"><a xlink:href="no__os__lf256fifo_8h.html" target="_top" xlink:title="SPSC lock&#45;free fifo of fixed size (256), specialized for UART.">
<polygon fill="white" stroke="#666666" points="159,-74 59,-74 59,-55 159,-55 159,-74"/>
<text text-anchor="middle" x="109" y="-62" font-family="Helvetica,sans-Serif" font-size="10.00">no_os_lf256fifo.h</text>
</a>
</g>
</g>
<!-- Node9&#45;&gt;Node10 -->
<g id="edge13_Node000009_Node000010" class="edge">
<title>Node9&#45;&gt;Node10</title>
<g id="a_edge13_Node000009_Node000010"><a xlink:title=" ">
<path fill="none" stroke="#63b8ff" d="M401.28,-112.16C343.66,-102.96 236.41,-85.84 169.08,-75.09"/>
<polygon fill="#63b8ff" stroke="#63b8ff" points="169.47,-71.61 159.04,-73.49 168.36,-78.52 169.47,-71.61"/>
</a>
</g>
</g>
<!-- Node10&#45;&gt;Node4 -->
<g id="edge16_Node000010_Node000004" class="edge">
<title>Node10&#45;&gt;Node4</title>
<g id="a_edge16_Node000010_Node000004"><a xlink:title=" ">
<path fill="none" stroke="#63b8ff" d="M96.47,-54.98C84.6,-46.92 66.54,-34.65 52.39,-25.03"/>
<polygon fill="#63b8ff" stroke="#63b8ff" points="54,-21.9 43.76,-19.17 50.06,-27.69 54,-21.9"/>
</a>
</g>
</g>
<!-- Node10&#45;&gt;Node7 -->
<g id="edge15_Node000010_Node000007" class="edge">
<title>Node10&#45;&gt;Node7</title>
<g id="a_edge15_Node000010_Node000007"><a xlink:title=" ">
<path fill="none" stroke="#63b8ff" d="M159.25,-56.02C231.69,-45.23 363.8,-25.57 428,-16.01"/>
<polygon fill="#63b8ff" stroke="#63b8ff" points="428.69,-19.44 438.07,-14.51 427.66,-12.52 428.69,-19.44"/>
</a>
</g>
</g>
<!-- Node11 -->
<g id="Node000011" class="node">
<title>Node11</title>
<g id="a_Node000011"><a xlink:title=" ">
<polygon fill="#e0e0e0" stroke="#999999" points="188.5,-19 135.5,-19 135.5,0 188.5,0 188.5,-19"/>
<text text-anchor="middle" x="162" y="-7" font-family="Helvetica,sans-Serif" font-size="10.00">stdlib.h</text>
</a>
</g>
</g>
<!-- Node10&#45;&gt;Node11 -->
<g id="edge14_Node000010_Node000011" class="edge">
<title>Node10&#45;&gt;Node11</title>
<g id="a_edge14_Node000010_Node000011"><a xlink:title=" ">
<path fill="none" stroke="#63b8ff" d="M117.75,-54.75C125.47,-47.03 136.9,-35.6 146.22,-26.28"/>
<polygon fill="#63b8ff" stroke="#63b8ff" points="148.81,-28.64 153.41,-19.09 143.86,-23.69 148.81,-28.64"/>
</a>
</g>
</g>
<!-- Node12&#45;&gt;Node7 -->
<g id="edge18_Node000012_Node000007" class="edge">
<title>Node12&#45;&gt;Node7</title>
<g id="a_edge18_Node000012_Node000007"><a xlink:title=" ">
<path fill="none" stroke="#63b8ff" d="M521.01,-109.66C510.95,-91.85 488.08,-51.37 474.89,-28.01"/>
<polygon fill="#63b8ff" stroke="#63b8ff" points="477.86,-26.14 469.89,-19.16 471.76,-29.59 477.86,-26.14"/>
</a>
</g>
</g>
<!-- Node13 -->
<g id="Node000013" class="node">
<title>Node13</title>
<g id="a_Node000013"><a xlink:title=" ">
<polygon fill="#e0e0e0" stroke="#999999" points="676.5,-74 623.5,-74 623.5,-55 676.5,-55 676.5,-74"/>
<text text-anchor="middle" x="650" y="-62" font-family="Helvetica,sans-Serif" font-size="10.00">string.h</text>
</a>
</g>
</g>
<!-- Node12&#45;&gt;Node13 -->
<g id="edge19_Node000012_Node000013" class="edge">
<title>Node12&#45;&gt;Node13</title>
<g id="a_edge19_Node000012_Node000013"><a xlink:title=" ">
<path fill="none" stroke="#63b8ff" d="M545.92,-109.98C566.05,-101.38 597.38,-87.99 620.41,-78.15"/>
<polygon fill="#63b8ff" stroke="#63b8ff" points="621.9,-81.32 629.71,-74.17 619.14,-74.88 621.9,-81.32"/>
</a>
</g>
</g>
<!-- Node14 -->
<g id="Node000014" class="node">
<title>Node14</title>
<g id="a_Node000014"><a xlink:href="no__os__util_8h.html" target="_top" xlink:title="Header file of utility functions.">
<polygon fill="white" stroke="#666666" points="252.5,-74 177.5,-74 177.5,-55 252.5,-55 252.5,-74"/>
<text text-anchor="middle" x="215" y="-62" font-family="Helvetica,sans-Serif" font-size="10.00">no_os_util.h</text>
</a>
</g>
</g>
<!-- Node12&#45;&gt;Node14 -->
<g id="edge20_Node000012_Node000014" class="edge">
<title>Node12&#45;&gt;Node14</title>
<g id="a_edge20_Node000012_Node000014"><a xlink:title=" ">
<path fill="none" stroke="#63b8ff" d="M497.76,-111.81C494.81,-111.17 491.85,-110.56 489,-110 410.14,-94.55 317.76,-80.35 262.93,-72.32"/>
<polygon fill="#63b8ff" stroke="#63b8ff" points="263.21,-68.83 252.81,-70.85 262.2,-75.75 263.21,-68.83"/>
</a>
</g>
</g>
<!-- Node15 -->
<g id="Node000015" class="node">
<title>Node15</title>
<g id="a_Node000015"><a xlink:href="no__os__i2c_8h.html" target="_top" xlink:title="Header file of I2C Interface.">
<polygon fill="white" stroke="#666666" points="605,-74 531,-74 531,-55 605,-55 605,-74"/>
<text text-anchor="middle" x="568" y="-62" font-family="Helvetica,sans-Serif" font-size="10.00">no_os_i2c.h</text>
</a>
</g>
</g>
<!-- Node12&#45;&gt;Node15 -->
<g id="edge24_Node000012_Node000015" class="edge">
<title>Node12&#45;&gt;Node15</title>
<g id="a_edge24_Node000012_Node000015"><a xlink:title=" ">
<path fill="none" stroke="#63b8ff" d="M532.94,-109.75C538.87,-102.26 547.57,-91.28 554.82,-82.13"/>
<polygon fill="#63b8ff" stroke="#63b8ff" points="557.73,-84.1 561.19,-74.09 552.24,-79.75 557.73,-84.1"/>
</a>
</g>
</g>
<!-- Node14&#45;&gt;Node4 -->
<g id="edge23_Node000014_Node000004" class="edge">
<title>Node14&#45;&gt;Node4</title>
<g id="a_edge23_Node000014_Node000004"><a xlink:title=" ">
<path fill="none" stroke="#63b8ff" d="M185.44,-54.98C154.28,-46.01 105.03,-31.82 70.54,-21.89"/>
<polygon fill="#63b8ff" stroke="#63b8ff" points="71.37,-18.49 60.79,-19.08 69.43,-25.21 71.37,-18.49"/>
</a>
</g>
</g>
<!-- Node14&#45;&gt;Node7 -->
<g id="edge21_Node000014_Node000007" class="edge">
<title>Node14&#45;&gt;Node7</title>
<g id="a_edge21_Node000014_Node000007"><a xlink:title=" ">
<path fill="none" stroke="#63b8ff" d="M252.7,-55.51C300.13,-45.45 381.05,-28.3 428.1,-18.32"/>
<polygon fill="#63b8ff" stroke="#63b8ff" points="429.11,-21.69 438.16,-16.19 427.65,-14.84 429.11,-21.69"/>
</a>
</g>
</g>
<!-- Node14&#45;&gt;Node11 -->
<g id="edge22_Node000014_Node000011" class="edge">
<title>Node14&#45;&gt;Node11</title>
<g id="a_edge22_Node000014_Node000011"><a xlink:title=" ">
<path fill="none" stroke="#63b8ff" d="M206.25,-54.75C198.53,-47.03 187.1,-35.6 177.78,-26.28"/>
<polygon fill="#63b8ff" stroke="#63b8ff" points="180.14,-23.69 170.59,-19.09 175.19,-28.64 180.14,-23.69"/>
</a>
</g>
</g>
<!-- Node15&#45;&gt;Node7 -->
<g id="edge25_Node000015_Node000007" class="edge">
<title>Node15&#45;&gt;Node7</title>
<g id="a_edge25_Node000015_Node000007"><a xlink:title=" ">
<path fill="none" stroke="#63b8ff" d="M551.45,-54.98C535.11,-46.57 509.87,-33.59 490.87,-23.81"/>
<polygon fill="#63b8ff" stroke="#63b8ff" points="492.34,-20.63 481.85,-19.17 489.14,-26.86 492.34,-20.63"/>
</a>
</g>
</g>
<!-- Node18 -->
<g id="Node000018" class="node">
<title>Node18</title>
<g id="a_Node000018"><a xlink:title=" ">
<polygon fill="#e0e0e0" stroke="#999999" points="870,-184 820,-184 820,-165 870,-165 870,-184"/>
<text text-anchor="middle" x="845" y="-172" font-family="Helvetica,sans-Serif" font-size="10.00">stdio.h</text>
</a>
</g>
</g>
<!-- Node17&#45;&gt;Node18 -->
<g id="edge28_Node000017_Node000018" class="edge">
<title>Node17&#45;&gt;Node18</title>
<g id="a_edge28_Node000017_Node000018"><a xlink:title=" ">
<path fill="none" stroke="#63b8ff" d="M826.63,-219.75C829.58,-212.65 833.83,-202.4 837.51,-193.56"/>
<polygon fill="#63b8ff" stroke="#63b8ff" points="840.83,-194.67 841.43,-184.09 834.37,-191.98 840.83,-194.67"/>
</a>
</g>
</g>
<!-- Node19&#45;&gt;Node5 -->
<g id="edge30_Node000019_Node000005" class="edge">
<title>Node19&#45;&gt;Node5</title>
<g id="a_edge30_Node000019_Node000005"><a xlink:title=" ">
<path fill="none" stroke="#63b8ff" d="M564.38,-219.98C538.65,-210.71 497.47,-195.86 469.85,-185.9"/>
<polygon fill="#63b8ff" stroke="#63b8ff" points="470.93,-182.57 460.34,-182.47 468.56,-189.16 470.93,-182.57"/>
</a>
</g>
</g>
<!-- Node19&#45;&gt;Node9 -->
<g id="edge33_Node000019_Node000009" class="edge">
<title>Node19&#45;&gt;Node9</title>
<g id="a_edge33_Node000019_Node000009"><a xlink:title=" ">
<path fill="none" stroke="#63b8ff" d="M576.22,-219.84C551.17,-201.44 492.36,-158.23 461.2,-135.34"/>
<polygon fill="#63b8ff" stroke="#63b8ff" points="462.97,-132.3 452.84,-129.2 458.82,-137.94 462.97,-132.3"/>
</a>
</g>
</g>
<!-- Node20 -->
<g id="Node000020" class="node">
<title>Node20</title>
<g id="a_Node000020"><a xlink:href="no__os__irq_8h.html" target="_top" xlink:title="Header file of IRQ interface.">
<polygon fill="white" stroke="#666666" points="668,-129 596,-129 596,-110 668,-110 668,-129"/>
<text text-anchor="middle" x="632" y="-117" font-family="Helvetica,sans-Serif" font-size="10.00">no_os_irq.h</text>
</a>
</g>
</g>
<!-- Node19&#45;&gt;Node20 -->
<g id="edge31_Node000019_Node000020" class="edge">
<title>Node19&#45;&gt;Node20</title>
<g id="a_edge31_Node000019_Node000020"><a xlink:title=" ">
<path fill="none" stroke="#63b8ff" d="M590.21,-219.69C593.45,-207.25 599.99,-183.95 608,-165 611.89,-155.8 617.06,-145.99 621.6,-137.93"/>
<polygon fill="#63b8ff" stroke="#63b8ff" points="624.72,-139.53 626.71,-129.12 618.67,-136.02 624.72,-139.53"/>
</a>
</g>
</g>
<!-- Node21 -->
<g id="Node000021" class="node">
<title>Node21</title>
<g id="a_Node000021"><a xlink:href="no__os__error_8h.html" target="_top" xlink:title="Error codes definition.">
<polygon fill="white" stroke="#666666" points="802,-184 720,-184 720,-165 802,-165 802,-184"/>
<text text-anchor="middle" x="761" y="-172" font-family="Helvetica,sans-Serif" font-size="10.00">no_os_error.h</text>
</a>
</g>
</g>
<!-- Node19&#45;&gt;Node21 -->
<g id="edge34_Node000019_Node000021" class="edge">
<title>Node19&#45;&gt;Node21</title>
<g id="a_edge34_Node000019_Node000021"><a xlink:title=" ">
<path fill="none" stroke="#63b8ff" d="M615.8,-219.98C644.97,-211.05 691,-196.94 723.4,-187.02"/>
<polygon fill="#63b8ff" stroke="#63b8ff" points="724.45,-190.36 732.99,-184.08 722.4,-183.66 724.45,-190.36"/>
</a>
</g>
</g>
<!-- Node23 -->
<g id="Node000023" class="node">
<title>Node23</title>
<g id="a_Node000023"><a xlink:href="no__os__delay_8h.html" target="_top" xlink:title="Header file of Delay functions.">
<polygon fill="white" stroke="#666666" points="701.5,-184 616.5,-184 616.5,-165 701.5,-165 701.5,-184"/>
<text text-anchor="middle" x="659" y="-172" font-family="Helvetica,sans-Serif" font-size="10.00">no_os_delay.h</text>
</a>
</g>
</g>
<!-- Node19&#45;&gt;Node23 -->
<g id="edge36_Node000019_Node000023" class="edge">
<title>Node19&#45;&gt;Node23</title>
<g id="a_edge36_Node000019_Node000023"><a xlink:title=" ">
<path fill="none" stroke="#63b8ff" d="M599.41,-219.98C610.11,-212 626.34,-199.88 639.16,-190.31"/>
<polygon fill="#63b8ff" stroke="#63b8ff" points="641.47,-192.96 647.39,-184.17 637.28,-187.35 641.47,-192.96"/>
</a>
</g>
</g>
<!-- Node20&#45;&gt;Node7 -->
<g id="edge32_Node000020_Node000007" class="edge">
<title>Node20&#45;&gt;Node7</title>
<g id="a_edge32_Node000020_Node000007"><a xlink:title=" ">
<path fill="none" stroke="#63b8ff" d="M648.53,-109.96C669.84,-97.85 702.32,-74.93 686,-55 663.13,-27.06 558.42,-16.28 501.72,-12.44"/>
<polygon fill="#63b8ff" stroke="#63b8ff" points="501.93,-8.94 491.72,-11.8 501.48,-15.93 501.93,-8.94"/>
</a>
</g>
</g>
<!-- Node22 -->
<g id="Node000022" class="node">
<title>Node22</title>
<g id="a_Node000022"><a xlink:href="errno_8h.html" target="_top" xlink:title="Error macro definition for ARM Compiler.">
<polygon fill="white" stroke="#666666" points="822.5,-129 771.5,-129 771.5,-110 822.5,-110 822.5,-129"/>
<text text-anchor="middle" x="797" y="-117" font-family="Helvetica,sans-Serif" font-size="10.00">errno.h</text>
</a>
</g>
</g>
<!-- Node21&#45;&gt;Node22 -->
<g id="edge35_Node000021_Node000022" class="edge">
<title>Node21&#45;&gt;Node22</title>
<g id="a_edge35_Node000021_Node000022"><a xlink:title=" ">
<path fill="none" stroke="#63b8ff" d="M766.94,-164.75C771.98,-157.34 779.34,-146.5 785.51,-137.41"/>
<polygon fill="#63b8ff" stroke="#63b8ff" points="788.44,-139.33 791.17,-129.09 782.65,-135.39 788.44,-139.33"/>
</a>
</g>
</g>
<!-- Node23&#45;&gt;Node7 -->
<g id="edge37_Node000023_Node000007" class="edge">
<title>Node23&#45;&gt;Node7</title>
<g id="a_edge37_Node000023_Node000007"><a xlink:title=" ">
<path fill="none" stroke="#63b8ff" d="M667.41,-164.76C686.71,-143.67 730.37,-89.19 702,-55 677.03,-24.91 562.33,-15.04 502.13,-11.9"/>
<polygon fill="#63b8ff" stroke="#63b8ff" points="502.07,-8.39 491.91,-11.41 501.73,-15.39 502.07,-8.39"/>
</a>
</g>
</g>
</g>
</svg>

<g id="navigator" transform="translate(0 0)" fill="#404254">
  <rect fill="#f2f5e9" fill-opacity="0.5" stroke="#606060" stroke-width=".5" x="0" y="0" width="60" height="60"/>
  <use id="zoomplus" xlink:href="#zoomPlus" x="17" y="9" onmousedown="handleZoom(evt,'in')"/>
  <use id="zoomminus" xlink:href="#zoomMin" x="42" y="9" onmousedown="handleZoom(evt,'out')"/>
  <use id="reset" xlink:href="#resetDef" x="30" y="36" onmousedown="handleReset()"/>
   <use id="arrowup" xlink:href="#arrowUp" x="0" y="0" onmousedown="handlePan(0,-1)"/>
  <use id="arrowright" xlink:href="#arrowRight" x="0" y="0" onmousedown="handlePan(1,0)"/>
  <use id="arrowdown" xlink:href="#arrowDown" x="0" y="0" onmousedown="handlePan(0,1)"/>
  <use id="arrowleft" xlink:href="#arrowLeft" x="0" y="0" onmousedown="handlePan(-1,0)"/>
</g>
<svg viewBox="0 0 15 15" width="100%" height="30px" preserveAspectRatio="xMaxYMin meet">
 <g id="arrow_out" transform="scale(0.3 0.3)">
  <a xlink:href="lt7170_2src_2examples_2iio__example_2iio__example_8c__incl_org.svg" target="_base">
   <rect id="button" ry="5" rx="5" y="6" x="6" height="38" width="38"
        fill="#f2f5e9" fill-opacity="0.5" stroke="#606060" stroke-width="1.0"/>
   <path id="arrow"
     d="M 11.500037,31.436501 C 11.940474,20.09759 22.043105,11.32322 32.158766,21.979434 L 37.068811,17.246167 C 37.068811,17.246167 37.088388,32 37.088388,32 L 22.160133,31.978069 C 22.160133,31.978069 26.997745,27.140456 26.997745,27.140456 C 18.528582,18.264221 13.291696,25.230495 11.500037,31.436501 z"
     style="fill:#404040;"/>
  </a>
 </g>
</svg>

<style type='text/css'>
<![CDATA[
[data-mouse-over-selected='false'] { opacity: 0.7; }
[data-mouse-over-selected='true']  { opacity: 1.0; }
]]>
</style>
<script type="application/ecmascript"><![CDATA[
document.addEventListener('DOMContentLoaded', (event) => {
  highlightEdges();
  highlightAdjacentNodes();
});
]]></script>
</svg>
