<?xml version="1.0" encoding="UTF-8" standalone="no"?>
<!DOCTYPE svg PUBLIC "-//W3C//DTD SVG 1.1//EN"
 "http://www.w3.org/Graphics/SVG/1.1/DTD/svg11.dtd">
<!-- Generated by graphviz version 2.43.0 (0)
 -->
<!-- Title: drivers/temperature/ltc2983/ltc2983.c Pages: 1 -->
<svg width="560pt" height="203pt"
 viewBox="0.00 0.00 559.50 203.00" xmlns="http://www.w3.org/2000/svg" xmlns:xlink="http://www.w3.org/1999/xlink">
<g id="graph0" class="graph" transform="scale(1 1) rotate(0) translate(4 199)">
<title>drivers/temperature/ltc2983/ltc2983.c</title>
<!-- Node1 -->
<g id="Node000001" class="node">
<title>Node1</title>
<g id="a_Node000001"><a xlink:title="Implementation of LTC2983 Driver.">
<polygon fill="#999999" stroke="#666666" points="355.5,-195 241.5,-195 241.5,-165 355.5,-165 355.5,-195"/>
<text text-anchor="start" x="249.5" y="-183" font-family="Helvetica,sans-Serif" font-size="10.00">drivers/temperature</text>
<text text-anchor="middle" x="298.5" y="-172" font-family="Helvetica,sans-Serif" font-size="10.00">/ltc2983/ltc2983.c</text>
</a>
</g>
</g>
<!-- Node2 -->
<g id="Node000002" class="node">
<title>Node2</title>
<g id="a_Node000002"><a xlink:href="errno_8h.html" target="_top" xlink:title="Error macro definition for ARM Compiler.">
<polygon fill="white" stroke="#666666" points="211,-129 160,-129 160,-110 211,-110 211,-129"/>
<text text-anchor="middle" x="185.5" y="-117" font-family="Helvetica,sans-Serif" font-size="10.00">errno.h</text>
</a>
</g>
</g>
<!-- Node1&#45;&gt;Node2 -->
<g id="edge1_Node000001_Node000002" class="edge">
<title>Node1&#45;&gt;Node2</title>
<g id="a_edge1_Node000001_Node000002"><a xlink:title=" ">
<path fill="none" stroke="#63b8ff" d="M271.43,-164.99C253.25,-155.58 229.43,-143.24 211.48,-133.95"/>
<polygon fill="#63b8ff" stroke="#63b8ff" points="212.68,-130.63 202.19,-129.14 209.46,-136.84 212.68,-130.63"/>
</a>
</g>
</g>
<!-- Node3 -->
<g id="Node000003" class="node">
<title>Node3</title>
<g id="a_Node000003"><a xlink:href="ltc2983_8h.html" target="_top" xlink:title=" ">
<polygon fill="white" stroke="#666666" points="329.5,-129 267.5,-129 267.5,-110 329.5,-110 329.5,-129"/>
<text text-anchor="middle" x="298.5" y="-117" font-family="Helvetica,sans-Serif" font-size="10.00">ltc2983.h</text>
</a>
</g>
</g>
<!-- Node1&#45;&gt;Node3 -->
<g id="edge2_Node000001_Node000003" class="edge">
<title>Node1&#45;&gt;Node3</title>
<g id="a_edge2_Node000001_Node000003"><a xlink:title=" ">
<path fill="none" stroke="#63b8ff" d="M298.5,-164.84C298.5,-157.21 298.5,-147.7 298.5,-139.45"/>
<polygon fill="#63b8ff" stroke="#63b8ff" points="302,-139.27 298.5,-129.27 295,-139.27 302,-139.27"/>
</a>
</g>
</g>
<!-- Node10 -->
<g id="Node000010" class="node">
<title>Node10</title>
<g id="a_Node000010"><a xlink:href="no__os__alloc_8h.html" target="_top" xlink:title=" ">
<polygon fill="white" stroke="#666666" points="431,-129 348,-129 348,-110 431,-110 431,-129"/>
<text text-anchor="middle" x="389.5" y="-117" font-family="Helvetica,sans-Serif" font-size="10.00">no_os_alloc.h</text>
</a>
</g>
</g>
<!-- Node1&#45;&gt;Node10 -->
<g id="edge12_Node000001_Node000010" class="edge">
<title>Node1&#45;&gt;Node10</title>
<g id="a_edge12_Node000001_Node000010"><a xlink:title=" ">
<path fill="none" stroke="#63b8ff" d="M320.53,-164.84C334.77,-155.68 353.23,-143.82 367.47,-134.66"/>
<polygon fill="#63b8ff" stroke="#63b8ff" points="369.61,-137.45 376.13,-129.09 365.83,-131.56 369.61,-137.45"/>
</a>
</g>
</g>
<!-- Node12 -->
<g id="Node000012" class="node">
<title>Node12</title>
<g id="a_Node000012"><a xlink:href="no__os__delay_8h.html" target="_top" xlink:title="Header file of Delay functions.">
<polygon fill="white" stroke="#666666" points="85,-74 0,-74 0,-55 85,-55 85,-74"/>
<text text-anchor="middle" x="42.5" y="-62" font-family="Helvetica,sans-Serif" font-size="10.00">no_os_delay.h</text>
</a>
</g>
</g>
<!-- Node1&#45;&gt;Node12 -->
<g id="edge15_Node000001_Node000012" class="edge">
<title>Node1&#45;&gt;Node12</title>
<g id="a_edge15_Node000001_Node000012"><a xlink:title=" ">
<path fill="none" stroke="#63b8ff" d="M286.26,-164.89C271.85,-149.17 246.44,-124.1 219.5,-110 198.08,-98.79 139.29,-85.13 95.31,-75.93"/>
<polygon fill="#63b8ff" stroke="#63b8ff" points="95.82,-72.46 85.32,-73.86 94.41,-79.31 95.82,-72.46"/>
</a>
</g>
</g>
<!-- Node13 -->
<g id="Node000013" class="node">
<title>Node13</title>
<g id="a_Node000013"><a xlink:href="no__os__print__log_8h.html" target="_top" xlink:title="Print messages helpers.">
<polygon fill="white" stroke="#666666" points="551.5,-129 449.5,-129 449.5,-110 551.5,-110 551.5,-129"/>
<text text-anchor="middle" x="500.5" y="-117" font-family="Helvetica,sans-Serif" font-size="10.00">no_os_print_log.h</text>
</a>
</g>
</g>
<!-- Node1&#45;&gt;Node13 -->
<g id="edge17_Node000001_Node000013" class="edge">
<title>Node1&#45;&gt;Node13</title>
<g id="a_edge17_Node000001_Node000013"><a xlink:title=" ">
<path fill="none" stroke="#63b8ff" d="M346.88,-164.99C381.9,-154.85 428.61,-141.32 461.3,-131.85"/>
<polygon fill="#63b8ff" stroke="#63b8ff" points="462.33,-135.2 470.96,-129.05 460.39,-128.47 462.33,-135.2"/>
</a>
</g>
</g>
<!-- Node4 -->
<g id="Node000004" class="node">
<title>Node4</title>
<g id="a_Node000004"><a xlink:title=" ">
<polygon fill="#e0e0e0" stroke="#999999" points="348.5,-19 286.5,-19 286.5,0 348.5,0 348.5,-19"/>
<text text-anchor="middle" x="317.5" y="-7" font-family="Helvetica,sans-Serif" font-size="10.00">stdbool.h</text>
</a>
</g>
</g>
<!-- Node3&#45;&gt;Node4 -->
<g id="edge3_Node000003_Node000004" class="edge">
<title>Node3&#45;&gt;Node4</title>
<g id="a_edge3_Node000003_Node000004"><a xlink:title=" ">
<path fill="none" stroke="#63b8ff" d="M300.05,-109.66C303.13,-92.17 310.06,-52.8 314.2,-29.27"/>
<polygon fill="#63b8ff" stroke="#63b8ff" points="317.69,-29.61 315.98,-19.16 310.8,-28.4 317.69,-29.61"/>
</a>
</g>
</g>
<!-- Node5 -->
<g id="Node000005" class="node">
<title>Node5</title>
<g id="a_Node000005"><a xlink:href="no__os__gpio_8h.html" target="_top" xlink:title="Header file of GPIO Interface.">
<polygon fill="white" stroke="#666666" points="275.5,-74 195.5,-74 195.5,-55 275.5,-55 275.5,-74"/>
<text text-anchor="middle" x="235.5" y="-62" font-family="Helvetica,sans-Serif" font-size="10.00">no_os_gpio.h</text>
</a>
</g>
</g>
<!-- Node3&#45;&gt;Node5 -->
<g id="edge4_Node000003_Node000005" class="edge">
<title>Node3&#45;&gt;Node5</title>
<g id="a_edge4_Node000003_Node000005"><a xlink:title=" ">
<path fill="none" stroke="#63b8ff" d="M288.38,-109.98C279.06,-102.15 265.03,-90.34 253.76,-80.86"/>
<polygon fill="#63b8ff" stroke="#63b8ff" points="255.71,-77.93 245.81,-74.17 251.21,-83.29 255.71,-77.93"/>
</a>
</g>
</g>
<!-- Node7 -->
<g id="Node000007" class="node">
<title>Node7</title>
<g id="a_Node000007"><a xlink:href="no__os__spi_8h.html" target="_top" xlink:title="Header file of SPI Interface.">
<polygon fill="white" stroke="#666666" points="177.5,-74 103.5,-74 103.5,-55 177.5,-55 177.5,-74"/>
<text text-anchor="middle" x="140.5" y="-62" font-family="Helvetica,sans-Serif" font-size="10.00">no_os_spi.h</text>
</a>
</g>
</g>
<!-- Node3&#45;&gt;Node7 -->
<g id="edge6_Node000003_Node000007" class="edge">
<title>Node3&#45;&gt;Node7</title>
<g id="a_edge6_Node000003_Node000007"><a xlink:title=" ">
<path fill="none" stroke="#63b8ff" d="M273.11,-109.98C246.7,-101.13 205.15,-87.19 175.61,-77.28"/>
<polygon fill="#63b8ff" stroke="#63b8ff" points="176.68,-73.94 166.08,-74.08 174.45,-80.58 176.68,-73.94"/>
</a>
</g>
</g>
<!-- Node8 -->
<g id="Node000008" class="node">
<title>Node8</title>
<g id="a_Node000008"><a xlink:href="no__os__util_8h.html" target="_top" xlink:title="Header file of utility functions.">
<polygon fill="white" stroke="#666666" points="407,-74 332,-74 332,-55 407,-55 407,-74"/>
<text text-anchor="middle" x="369.5" y="-62" font-family="Helvetica,sans-Serif" font-size="10.00">no_os_util.h</text>
</a>
</g>
</g>
<!-- Node3&#45;&gt;Node8 -->
<g id="edge8_Node000003_Node000008" class="edge">
<title>Node3&#45;&gt;Node8</title>
<g id="a_edge8_Node000003_Node000008"><a xlink:title=" ">
<path fill="none" stroke="#63b8ff" d="M309.91,-109.98C320.61,-102 336.84,-89.88 349.66,-80.31"/>
<polygon fill="#63b8ff" stroke="#63b8ff" points="351.97,-82.96 357.89,-74.17 347.78,-77.35 351.97,-82.96"/>
</a>
</g>
</g>
<!-- Node6 -->
<g id="Node000006" class="node">
<title>Node6</title>
<g id="a_Node000006"><a xlink:title=" ">
<polygon fill="#e0e0e0" stroke="#999999" points="225,-19 172,-19 172,0 225,0 225,-19"/>
<text text-anchor="middle" x="198.5" y="-7" font-family="Helvetica,sans-Serif" font-size="10.00">stdint.h</text>
</a>
</g>
</g>
<!-- Node5&#45;&gt;Node6 -->
<g id="edge5_Node000005_Node000006" class="edge">
<title>Node5&#45;&gt;Node6</title>
<g id="a_edge5_Node000005_Node000006"><a xlink:title=" ">
<path fill="none" stroke="#63b8ff" d="M229.39,-54.75C224.22,-47.34 216.65,-36.5 210.31,-27.41"/>
<polygon fill="#63b8ff" stroke="#63b8ff" points="213.09,-25.29 204.5,-19.09 207.35,-29.29 213.09,-25.29"/>
</a>
</g>
</g>
<!-- Node7&#45;&gt;Node6 -->
<g id="edge7_Node000007_Node000006" class="edge">
<title>Node7&#45;&gt;Node6</title>
<g id="a_edge7_Node000007_Node000006"><a xlink:title=" ">
<path fill="none" stroke="#63b8ff" d="M149.82,-54.98C158.31,-47.23 171.06,-35.58 181.38,-26.14"/>
<polygon fill="#63b8ff" stroke="#63b8ff" points="183.99,-28.5 189.01,-19.17 179.27,-23.33 183.99,-28.5"/>
</a>
</g>
</g>
<!-- Node8&#45;&gt;Node4 -->
<g id="edge11_Node000008_Node000004" class="edge">
<title>Node8&#45;&gt;Node4</title>
<g id="a_edge11_Node000008_Node000004"><a xlink:title=" ">
<path fill="none" stroke="#63b8ff" d="M360.91,-54.75C353.34,-47.03 342.12,-35.6 332.99,-26.28"/>
<polygon fill="#63b8ff" stroke="#63b8ff" points="335.43,-23.78 325.93,-19.09 330.43,-28.68 335.43,-23.78"/>
</a>
</g>
</g>
<!-- Node8&#45;&gt;Node6 -->
<g id="edge9_Node000008_Node000006" class="edge">
<title>Node8&#45;&gt;Node6</title>
<g id="a_edge9_Node000008_Node000006"><a xlink:title=" ">
<path fill="none" stroke="#63b8ff" d="M342.03,-54.98C312.98,-45.98 267.01,-31.73 234.94,-21.8"/>
<polygon fill="#63b8ff" stroke="#63b8ff" points="235.65,-18.35 225.06,-18.73 233.58,-25.04 235.65,-18.35"/>
</a>
</g>
</g>
<!-- Node9 -->
<g id="Node000009" class="node">
<title>Node9</title>
<g id="a_Node000009"><a xlink:title=" ">
<polygon fill="#e0e0e0" stroke="#999999" points="448,-19 395,-19 395,0 448,0 448,-19"/>
<text text-anchor="middle" x="421.5" y="-7" font-family="Helvetica,sans-Serif" font-size="10.00">stdlib.h</text>
</a>
</g>
</g>
<!-- Node8&#45;&gt;Node9 -->
<g id="edge10_Node000008_Node000009" class="edge">
<title>Node8&#45;&gt;Node9</title>
<g id="a_edge10_Node000008_Node000009"><a xlink:title=" ">
<path fill="none" stroke="#63b8ff" d="M378.09,-54.75C385.66,-47.03 396.88,-35.6 406.01,-26.28"/>
<polygon fill="#63b8ff" stroke="#63b8ff" points="408.57,-28.68 413.07,-19.09 403.57,-23.78 408.57,-28.68"/>
</a>
</g>
</g>
<!-- Node10&#45;&gt;Node9 -->
<g id="edge14_Node000010_Node000009" class="edge">
<title>Node10&#45;&gt;Node9</title>
<g id="a_edge14_Node000010_Node000009"><a xlink:title=" ">
<path fill="none" stroke="#63b8ff" d="M396.11,-109.85C402.28,-101.25 411.17,-87.46 415.5,-74 420.13,-59.64 421.53,-42.57 421.83,-29.75"/>
<polygon fill="#63b8ff" stroke="#63b8ff" points="425.33,-29.38 421.85,-19.37 418.33,-29.36 425.33,-29.38"/>
</a>
</g>
</g>
<!-- Node11 -->
<g id="Node000011" class="node">
<title>Node11</title>
<g id="a_Node000011"><a xlink:title=" ">
<polygon fill="#e0e0e0" stroke="#999999" points="521.5,-74 471.5,-74 471.5,-55 521.5,-55 521.5,-74"/>
<text text-anchor="middle" x="496.5" y="-62" font-family="Helvetica,sans-Serif" font-size="10.00">stdio.h</text>
</a>
</g>
</g>
<!-- Node10&#45;&gt;Node11 -->
<g id="edge13_Node000010_Node000011" class="edge">
<title>Node10&#45;&gt;Node11</title>
<g id="a_edge13_Node000010_Node000011"><a xlink:title=" ">
<path fill="none" stroke="#63b8ff" d="M406.69,-109.98C423.75,-101.54 450.13,-88.47 469.9,-78.68"/>
<polygon fill="#63b8ff" stroke="#63b8ff" points="471.59,-81.75 479,-74.17 468.48,-75.47 471.59,-81.75"/>
</a>
</g>
</g>
<!-- Node12&#45;&gt;Node6 -->
<g id="edge16_Node000012_Node000006" class="edge">
<title>Node12&#45;&gt;Node6</title>
<g id="a_edge16_Node000012_Node000006"><a xlink:title=" ">
<path fill="none" stroke="#63b8ff" d="M67.56,-54.98C93.53,-46.16 134.31,-32.31 163.46,-22.41"/>
<polygon fill="#63b8ff" stroke="#63b8ff" points="164.9,-25.61 173.24,-19.08 162.65,-18.99 164.9,-25.61"/>
</a>
</g>
</g>
<!-- Node13&#45;&gt;Node11 -->
<g id="edge18_Node000013_Node000011" class="edge">
<title>Node13&#45;&gt;Node11</title>
<g id="a_edge18_Node000013_Node000011"><a xlink:title=" ">
<path fill="none" stroke="#63b8ff" d="M499.84,-109.75C499.32,-102.8 498.56,-92.85 497.91,-84.13"/>
<polygon fill="#63b8ff" stroke="#63b8ff" points="501.39,-83.8 497.15,-74.09 494.41,-84.32 501.39,-83.8"/>
</a>
</g>
</g>
</g>
</svg>
