<?xml version="1.0" encoding="UTF-8" standalone="no"?>
<!DOCTYPE svg PUBLIC "-//W3C//DTD SVG 1.1//EN"
 "http://www.w3.org/Graphics/SVG/1.1/DTD/svg11.dtd">
<!-- Generated by graphviz version 2.43.0 (0)
 -->
<!-- Title: ltc2672_current_to_code Pages: 1 -->
<svg width="461pt" height="230pt"
 viewBox="0.00 0.00 461.00 230.00" xmlns="http://www.w3.org/2000/svg" xmlns:xlink="http://www.w3.org/1999/xlink">
<g id="graph0" class="graph" transform="scale(1 1) rotate(0) translate(4 226)">
<title>ltc2672_current_to_code</title>
<!-- Node1 -->
<g id="Node000001" class="node">
<title>Node1</title>
<g id="a_Node000001"><a xlink:title="get dac code value from current of a selected DAC channel">
<polygon fill="#999999" stroke="#666666" points="453,-120.5 317,-120.5 317,-101.5 453,-101.5 453,-120.5"/>
<text text-anchor="middle" x="385" y="-108.5" font-family="Helvetica,sans-Serif" font-size="10.00">ltc2672_current_to_code</text>
</a>
</g>
</g>
<!-- Node2 -->
<g id="Node000002" class="node">
<title>Node2</title>
<g id="a_Node000002"><a xlink:href="ltc2672_8c.html#a1925a7ba84e10d9845b6663853a1a5d2" target="_top" xlink:title="sets the same current for all channels">
<polygon fill="white" stroke="#666666" points="275,-222 162,-222 162,-192 275,-192 275,-222"/>
<text text-anchor="start" x="170" y="-210" font-family="Helvetica,sans-Serif" font-size="10.00">ltc2672_set_current</text>
<text text-anchor="middle" x="218.5" y="-199" font-family="Helvetica,sans-Serif" font-size="10.00">_all_channels</text>
</a>
</g>
</g>
<!-- Node1&#45;&gt;Node2 -->
<g id="edge1_Node000001_Node000002" class="edge">
<title>Node1&#45;&gt;Node2</title>
<g id="a_edge1_Node000001_Node000002"><a xlink:title=" ">
<path fill="none" stroke="#63b8ff" d="M364.17,-127.01C344.08,-142.71 311.67,-166.6 281,-183 275.04,-186.19 268.56,-189.18 262.11,-191.9"/>
<polygon fill="#63b8ff" stroke="#63b8ff" points="366.57,-129.58 372.24,-120.63 362.22,-124.09 366.57,-129.58"/>
</a>
</g>
</g>
<!-- Node4 -->
<g id="Node000004" class="node">
<title>Node4</title>
<g id="a_Node000004"><a xlink:href="ltc2672_8c.html#ac94ad5cab8fa0c407aeda8139638dd8c" target="_top" xlink:title="set the current for a selected DAC channel">
<polygon fill="white" stroke="#666666" points="275,-174 162,-174 162,-144 275,-144 275,-174"/>
<text text-anchor="start" x="170" y="-162" font-family="Helvetica,sans-Serif" font-size="10.00">ltc2672_set_current</text>
<text text-anchor="middle" x="218.5" y="-151" font-family="Helvetica,sans-Serif" font-size="10.00">_channel</text>
</a>
</g>
</g>
<!-- Node1&#45;&gt;Node4 -->
<g id="edge3_Node000001_Node000004" class="edge">
<title>Node1&#45;&gt;Node4</title>
<g id="a_edge3_Node000001_Node000004"><a xlink:title=" ">
<path fill="none" stroke="#63b8ff" d="M341.3,-123.46C319.85,-129.72 293.69,-137.35 271.12,-143.94"/>
<polygon fill="#63b8ff" stroke="#63b8ff" points="342.49,-126.76 351.11,-120.6 340.53,-120.04 342.49,-126.76"/>
</a>
</g>
</g>
<!-- Node5 -->
<g id="Node000005" class="node">
<title>Node5</title>
<g id="a_Node000005"><a xlink:href="ltc2672_8c.html#a0e6e9a7425d2717f6a620a886255637e" target="_top" xlink:title="setup toggle parameters for a channel">
<polygon fill="white" stroke="#666666" points="279,-126 158,-126 158,-96 279,-96 279,-126"/>
<text text-anchor="start" x="166" y="-114" font-family="Helvetica,sans-Serif" font-size="10.00">ltc2672_setup_toggle</text>
<text text-anchor="middle" x="218.5" y="-103" font-family="Helvetica,sans-Serif" font-size="10.00">_channel</text>
</a>
</g>
</g>
<!-- Node1&#45;&gt;Node5 -->
<g id="edge4_Node000001_Node000005" class="edge">
<title>Node1&#45;&gt;Node5</title>
<g id="a_edge4_Node000001_Node000005"><a xlink:title=" ">
<path fill="none" stroke="#63b8ff" d="M306.35,-111C297.2,-111 287.98,-111 279.13,-111"/>
<polygon fill="#63b8ff" stroke="#63b8ff" points="306.62,-114.5 316.62,-111 306.62,-107.5 306.62,-114.5"/>
</a>
</g>
</g>
<!-- Node6 -->
<g id="Node000006" class="node">
<title>Node6</title>
<g id="a_Node000006"><a xlink:href="ltc2672_8c.html#a0e50093dfbdf5c727590dfe7e9545f70" target="_top" xlink:title="writes to the input registers of all channels">
<polygon fill="white" stroke="#666666" points="281,-78 156,-78 156,-48 281,-48 281,-78"/>
<text text-anchor="start" x="164" y="-66" font-family="Helvetica,sans-Serif" font-size="10.00">ltc2672_write_input</text>
<text text-anchor="middle" x="218.5" y="-55" font-family="Helvetica,sans-Serif" font-size="10.00">_register_all_channels</text>
</a>
</g>
</g>
<!-- Node1&#45;&gt;Node6 -->
<g id="edge6_Node000001_Node000006" class="edge">
<title>Node1&#45;&gt;Node6</title>
<g id="a_edge6_Node000001_Node000006"><a xlink:title=" ">
<path fill="none" stroke="#63b8ff" d="M341.3,-98.54C319.85,-92.28 293.69,-84.65 271.12,-78.06"/>
<polygon fill="#63b8ff" stroke="#63b8ff" points="340.53,-101.96 351.11,-101.4 342.49,-95.24 340.53,-101.96"/>
</a>
</g>
</g>
<!-- Node7 -->
<g id="Node000007" class="node">
<title>Node7</title>
<g id="a_Node000007"><a xlink:href="ltc2672_8c.html#a6147850fb033cb0cee82f3615f85a703" target="_top" xlink:title="writes to the input register of a channel">
<polygon fill="white" stroke="#666666" points="275,-30 162,-30 162,0 275,0 275,-30"/>
<text text-anchor="start" x="170" y="-18" font-family="Helvetica,sans-Serif" font-size="10.00">ltc2672_write_input</text>
<text text-anchor="middle" x="218.5" y="-7" font-family="Helvetica,sans-Serif" font-size="10.00">_register_channel</text>
</a>
</g>
</g>
<!-- Node1&#45;&gt;Node7 -->
<g id="edge7_Node000001_Node000007" class="edge">
<title>Node1&#45;&gt;Node7</title>
<g id="a_edge7_Node000001_Node000007"><a xlink:title=" ">
<path fill="none" stroke="#63b8ff" d="M364.17,-94.99C344.08,-79.29 311.67,-55.4 281,-39 275.04,-35.81 268.56,-32.82 262.11,-30.1"/>
<polygon fill="#63b8ff" stroke="#63b8ff" points="362.22,-97.91 372.24,-101.37 366.57,-92.42 362.22,-97.91"/>
</a>
</g>
</g>
<!-- Node3 -->
<g id="Node000003" class="node">
<title>Node3</title>
<g id="a_Node000003"><a xlink:href="dc2903a_2src_2examples_2basic__example_2basic__example_8c.html#a72943dc9011d36293cb05ca5d7cb6899" target="_top" xlink:title="basic example main execution.">
<polygon fill="white" stroke="#666666" points="120,-168.5 0,-168.5 0,-149.5 120,-149.5 120,-168.5"/>
<text text-anchor="middle" x="60" y="-156.5" font-family="Helvetica,sans-Serif" font-size="10.00">basic_example_main</text>
</a>
</g>
</g>
<!-- Node2&#45;&gt;Node3 -->
<g id="edge2_Node000002_Node000003" class="edge">
<title>Node2&#45;&gt;Node3</title>
<g id="a_edge2_Node000002_Node000003"><a xlink:title=" ">
<path fill="none" stroke="#63b8ff" d="M158.57,-188.93C136.01,-182.01 111.16,-174.38 92.18,-168.56"/>
<polygon fill="#63b8ff" stroke="#63b8ff" points="157.83,-192.36 168.41,-191.94 159.88,-185.67 157.83,-192.36"/>
</a>
</g>
</g>
<!-- Node5&#45;&gt;Node3 -->
<g id="edge5_Node000005_Node000003" class="edge">
<title>Node5&#45;&gt;Node3</title>
<g id="a_edge5_Node000005_Node000003"><a xlink:title=" ">
<path fill="none" stroke="#63b8ff" d="M158.57,-129.07C136.01,-135.99 111.16,-143.62 92.18,-149.44"/>
<polygon fill="#63b8ff" stroke="#63b8ff" points="159.88,-132.33 168.41,-126.06 157.83,-125.64 159.88,-132.33"/>
</a>
</g>
</g>
</g>
</svg>
