<?xml version="1.0" encoding="UTF-8" standalone="no"?>
<!DOCTYPE svg PUBLIC "-//W3C//DTD SVG 1.1//EN"
 "http://www.w3.org/Graphics/SVG/1.1/DTD/svg11.dtd">
<!-- Generated by graphviz version 2.43.0 (0)
 -->
<!-- Title: ltc2992_get_vshunt Pages: 1 -->
<svg width="439pt" height="46pt"
 viewBox="0.00 0.00 439.00 46.00" xmlns="http://www.w3.org/2000/svg" xmlns:xlink="http://www.w3.org/1999/xlink">
<g id="graph0" class="graph" transform="scale(1 1) rotate(0) translate(4 42)">
<title>ltc2992_get_vshunt</title>
<!-- Node1 -->
<g id="Node000001" class="node">
<title>Node1</title>
<g id="a_Node000001"><a xlink:title="Read shunt voltage in a sense channel.">
<polygon fill="#999999" stroke="#666666" points="431,-19 319,-19 319,0 431,0 431,-19"/>
<text text-anchor="middle" x="375" y="-7" font-family="Helvetica,sans-Serif" font-size="10.00">ltc2992_get_vshunt</text>
</a>
</g>
</g>
<!-- Node2 -->
<g id="Node000002" class="node">
<title>Node2</title>
<g id="a_Node000002"><a xlink:href="ltc2992_8c.html#a8109cf255ba16ed7a7de91c776c9703f" target="_top" xlink:title="Read bus current along a sense channel.">
<polygon fill="white" stroke="#666666" points="283,-38 170,-38 170,-19 283,-19 283,-38"/>
<text text-anchor="middle" x="226.5" y="-26" font-family="Helvetica,sans-Serif" font-size="10.00">ltc2992_get_current</text>
</a>
</g>
</g>
<!-- Node1&#45;&gt;Node2 -->
<g id="edge1_Node000001_Node000002" class="edge">
<title>Node1&#45;&gt;Node2</title>
<g id="a_edge1_Node000001_Node000002"><a xlink:title=" ">
<path fill="none" stroke="#63b8ff" d="M308.51,-17.99C300.15,-19.08 291.64,-20.18 283.45,-21.24"/>
<polygon fill="#63b8ff" stroke="#63b8ff" points="309.15,-21.44 318.61,-16.68 308.25,-14.5 309.15,-21.44"/>
</a>
</g>
</g>
<!-- Node3 -->
<g id="Node000003" class="node">
<title>Node3</title>
<g id="a_Node000003"><a xlink:href="ltc2992_8c.html#a147e8309fe1977bd08409f5c17f83324" target="_top" xlink:title="Read sense data at a SENSE channel.">
<polygon fill="white" stroke="#666666" points="134,-19 0,-19 0,0 134,0 134,-19"/>
<text text-anchor="middle" x="67" y="-7" font-family="Helvetica,sans-Serif" font-size="10.00">ltc2992_get_sense_data</text>
</a>
</g>
</g>
<!-- Node1&#45;&gt;Node3 -->
<g id="edge3_Node000001_Node000003" class="edge">
<title>Node1&#45;&gt;Node3</title>
<g id="a_edge3_Node000001_Node000003"><a xlink:title=" ">
<path fill="none" stroke="#63b8ff" d="M308.92,-9.5C257.42,-9.5 185.81,-9.5 134.06,-9.5"/>
<polygon fill="#63b8ff" stroke="#63b8ff" points="308.94,-13 318.94,-9.5 308.94,-6 308.94,-13"/>
</a>
</g>
</g>
<!-- Node2&#45;&gt;Node3 -->
<g id="edge2_Node000002_Node000003" class="edge">
<title>Node2&#45;&gt;Node3</title>
<g id="a_edge2_Node000002_Node000003"><a xlink:title=" ">
<path fill="none" stroke="#63b8ff" d="M160.03,-20.6C151.46,-19.57 142.67,-18.51 134.09,-17.47"/>
<polygon fill="#63b8ff" stroke="#63b8ff" points="159.62,-24.08 169.97,-21.8 160.46,-17.13 159.62,-24.08"/>
</a>
</g>
</g>
</g>
</svg>
