<?xml version="1.0" encoding="UTF-8" standalone="no"?>
<!DOCTYPE svg PUBLIC "-//W3C//DTD SVG 1.1//EN"
 "http://www.w3.org/Graphics/SVG/1.1/DTD/svg11.dtd">
<!-- Generated by graphviz version 2.43.0 (0)
 -->
<!-- Title: drivers/temperature/ltc2983/ltc2983.h Pages: 1 -->
<svg width="566pt" height="181pt"
 viewBox="0.00 0.00 565.50 181.00" xmlns="http://www.w3.org/2000/svg" xmlns:xlink="http://www.w3.org/1999/xlink">
<g id="graph0" class="graph" transform="scale(1 1) rotate(0) translate(4 177)">
<title>drivers/temperature/ltc2983/ltc2983.h</title>
<!-- Node1 -->
<g id="Node000001" class="node">
<title>Node1</title>
<g id="a_Node000001"><a xlink:title=" ">
<polygon fill="#999999" stroke="#666666" points="325,-173 211,-173 211,-143 325,-143 325,-173"/>
<text text-anchor="start" x="219" y="-161" font-family="Helvetica,sans-Serif" font-size="10.00">drivers/temperature</text>
<text text-anchor="middle" x="268" y="-150" font-family="Helvetica,sans-Serif" font-size="10.00">/ltc2983/ltc2983.h</text>
</a>
</g>
</g>
<!-- Node2 -->
<g id="Node000002" class="node">
<title>Node2</title>
<g id="a_Node000002"><a xlink:href="iio__ltc2983_8c.html" target="_top" xlink:title="Implementation of IIO LTC2983 driver.">
<polygon fill="white" stroke="#666666" points="120,-101.5 0,-101.5 0,-71.5 120,-71.5 120,-101.5"/>
<text text-anchor="start" x="8" y="-89.5" font-family="Helvetica,sans-Serif" font-size="10.00">drivers/temperature</text>
<text text-anchor="middle" x="60" y="-78.5" font-family="Helvetica,sans-Serif" font-size="10.00">/ltc2983/iio_ltc2983.c</text>
</a>
</g>
</g>
<!-- Node1&#45;&gt;Node2 -->
<g id="edge1_Node000001_Node000002" class="edge">
<title>Node1&#45;&gt;Node2</title>
<g id="a_edge1_Node000001_Node000002"><a xlink:title=" ">
<path fill="none" stroke="#63b8ff" d="M216.28,-139.72C181.05,-127.95 135,-112.56 102.03,-101.54"/>
<polygon fill="#63b8ff" stroke="#63b8ff" points="215.31,-143.09 225.91,-142.94 217.53,-136.45 215.31,-143.09"/>
</a>
</g>
</g>
<!-- Node3 -->
<g id="Node000003" class="node">
<title>Node3</title>
<g id="a_Node000003"><a xlink:href="ltc2983_8c.html" target="_top" xlink:title="Implementation of LTC2983 Driver.">
<polygon fill="white" stroke="#666666" points="252,-101.5 138,-101.5 138,-71.5 252,-71.5 252,-101.5"/>
<text text-anchor="start" x="146" y="-89.5" font-family="Helvetica,sans-Serif" font-size="10.00">drivers/temperature</text>
<text text-anchor="middle" x="195" y="-78.5" font-family="Helvetica,sans-Serif" font-size="10.00">/ltc2983/ltc2983.c</text>
</a>
</g>
</g>
<!-- Node1&#45;&gt;Node3 -->
<g id="edge2_Node000001_Node000003" class="edge">
<title>Node1&#45;&gt;Node3</title>
<g id="a_edge2_Node000001_Node000003"><a xlink:title=" ">
<path fill="none" stroke="#63b8ff" d="M245.93,-135.99C234.22,-124.84 220.13,-111.43 209.75,-101.54"/>
<polygon fill="#63b8ff" stroke="#63b8ff" points="243.57,-138.58 253.23,-142.94 248.4,-133.51 243.57,-138.58"/>
</a>
</g>
</g>
<!-- Node4 -->
<g id="Node000004" class="node">
<title>Node4</title>
<g id="a_Node000004"><a xlink:href="ltc2983_2src_2common_2common__data_8h.html" target="_top" xlink:title=" ">
<polygon fill="white" stroke="#666666" points="414,-101.5 270,-101.5 270,-71.5 414,-71.5 414,-101.5"/>
<text text-anchor="start" x="278" y="-89.5" font-family="Helvetica,sans-Serif" font-size="10.00">projects/ltc2983/src</text>
<text text-anchor="middle" x="342" y="-78.5" font-family="Helvetica,sans-Serif" font-size="10.00">/common/common_data.h</text>
</a>
</g>
</g>
<!-- Node1&#45;&gt;Node4 -->
<g id="edge3_Node000001_Node000004" class="edge">
<title>Node1&#45;&gt;Node4</title>
<g id="a_edge3_Node000001_Node000004"><a xlink:title=" ">
<path fill="none" stroke="#63b8ff" d="M290.37,-135.99C302.25,-124.84 316.52,-111.43 327.05,-101.54"/>
<polygon fill="#63b8ff" stroke="#63b8ff" points="287.87,-133.54 282.98,-142.94 292.66,-138.64 287.87,-133.54"/>
</a>
</g>
</g>
<!-- Node6 -->
<g id="Node000006" class="node">
<title>Node6</title>
<g id="a_Node000006"><a xlink:href="ltc2983_2src_2examples_2basic_2basic__example_8c.html" target="_top" xlink:title=" ">
<polygon fill="white" stroke="#666666" points="557.5,-107 432.5,-107 432.5,-66 557.5,-66 557.5,-107"/>
<text text-anchor="start" x="440.5" y="-95" font-family="Helvetica,sans-Serif" font-size="10.00">projects/ltc2983/src</text>
<text text-anchor="start" x="440.5" y="-84" font-family="Helvetica,sans-Serif" font-size="10.00">/examples/basic/basic</text>
<text text-anchor="middle" x="495" y="-73" font-family="Helvetica,sans-Serif" font-size="10.00">_example.c</text>
</a>
</g>
</g>
<!-- Node1&#45;&gt;Node6 -->
<g id="edge5_Node000001_Node000006" class="edge">
<title>Node1&#45;&gt;Node6</title>
<g id="a_edge5_Node000001_Node000006"><a xlink:title=" ">
<path fill="none" stroke="#63b8ff" d="M323.84,-139.9C356.71,-129.84 398.37,-117.09 432.36,-106.68"/>
<polygon fill="#63b8ff" stroke="#63b8ff" points="322.47,-136.66 313.94,-142.94 324.52,-143.35 322.47,-136.66"/>
</a>
</g>
</g>
<!-- Node5 -->
<g id="Node000005" class="node">
<title>Node5</title>
<g id="a_Node000005"><a xlink:href="ltc2983_2src_2common_2common__data_8c.html" target="_top" xlink:title=" ">
<polygon fill="white" stroke="#666666" points="413.5,-30 270.5,-30 270.5,0 413.5,0 413.5,-30"/>
<text text-anchor="start" x="278.5" y="-18" font-family="Helvetica,sans-Serif" font-size="10.00">projects/ltc2983/src</text>
<text text-anchor="middle" x="342" y="-7" font-family="Helvetica,sans-Serif" font-size="10.00">/common/common_data.c</text>
</a>
</g>
</g>
<!-- Node4&#45;&gt;Node5 -->
<g id="edge4_Node000004_Node000005" class="edge">
<title>Node4&#45;&gt;Node5</title>
<g id="a_edge4_Node000004_Node000005"><a xlink:title=" ">
<path fill="none" stroke="#63b8ff" d="M342,-61.25C342,-50.81 342,-38.99 342,-30.04"/>
<polygon fill="#63b8ff" stroke="#63b8ff" points="338.5,-61.44 342,-71.44 345.5,-61.44 338.5,-61.44"/>
</a>
</g>
</g>
</g>
</svg>
