<?xml version="1.0" encoding="UTF-8" standalone="no"?>
<!DOCTYPE svg PUBLIC "-//W3C//DTD SVG 1.1//EN"
 "http://www.w3.org/Graphics/SVG/1.1/DTD/svg11.dtd">
<!-- Generated by graphviz version 2.43.0 (0)
 -->
<!-- Title: drivers/dac/ltc268x/ltc268x.c Pages: 1 -->
<svg width="494pt" height="203pt"
 viewBox="0.00 0.00 493.72 203.00" xmlns="http://www.w3.org/2000/svg" xmlns:xlink="http://www.w3.org/1999/xlink">
<g id="graph0" class="graph" transform="scale(1 1) rotate(0) translate(4 199)">
<title>drivers/dac/ltc268x/ltc268x.c</title>
<!-- Node1 -->
<g id="Node000001" class="node">
<title>Node1</title>
<g id="a_Node000001"><a xlink:title="Implementation of LTC2686/8 Driver.">
<polygon fill="#999999" stroke="#666666" points="149.72,-195 39.72,-195 39.72,-165 149.72,-165 149.72,-195"/>
<text text-anchor="start" x="47.72" y="-183" font-family="Helvetica,sans-Serif" font-size="10.00">drivers/dac/ltc268x</text>
<text text-anchor="middle" x="94.72" y="-172" font-family="Helvetica,sans-Serif" font-size="10.00">/ltc268x.c</text>
</a>
</g>
</g>
<!-- Node2 -->
<g id="Node000002" class="node">
<title>Node2</title>
<g id="a_Node000002"><a xlink:title=" ">
<polygon fill="#e0e0e0" stroke="#999999" points="121.22,-19 68.22,-19 68.22,0 121.22,0 121.22,-19"/>
<text text-anchor="middle" x="94.72" y="-7" font-family="Helvetica,sans-Serif" font-size="10.00">stdlib.h</text>
</a>
</g>
</g>
<!-- Node1&#45;&gt;Node2 -->
<g id="edge1_Node000001_Node000002" class="edge">
<title>Node1&#45;&gt;Node2</title>
<g id="a_edge1_Node000001_Node000002"><a xlink:title=" ">
<path fill="none" stroke="#63b8ff" d="M71.72,-164.91C37.87,-142.33 -18.72,-96.38 6.72,-55 18.02,-36.62 39.53,-25.55 58.45,-19.05"/>
<polygon fill="#63b8ff" stroke="#63b8ff" points="59.54,-22.38 68.04,-16.05 57.45,-15.7 59.54,-22.38"/>
</a>
</g>
</g>
<!-- Node3 -->
<g id="Node000003" class="node">
<title>Node3</title>
<g id="a_Node000003"><a xlink:title=" ">
<polygon fill="#e0e0e0" stroke="#999999" points="65.72,-74 15.72,-74 15.72,-55 65.72,-55 65.72,-74"/>
<text text-anchor="middle" x="40.72" y="-62" font-family="Helvetica,sans-Serif" font-size="10.00">stdio.h</text>
</a>
</g>
</g>
<!-- Node1&#45;&gt;Node3 -->
<g id="edge2_Node000001_Node000003" class="edge">
<title>Node1&#45;&gt;Node3</title>
<g id="a_edge2_Node000001_Node000003"><a xlink:title=" ">
<path fill="none" stroke="#63b8ff" d="M74.09,-164.86C62.96,-155.98 50.21,-143.48 43.72,-129 37.44,-114.98 37.1,-97.43 38.1,-84.33"/>
<polygon fill="#63b8ff" stroke="#63b8ff" points="41.61,-84.49 39.21,-74.17 34.65,-83.74 41.61,-84.49"/>
</a>
</g>
</g>
<!-- Node4 -->
<g id="Node000004" class="node">
<title>Node4</title>
<g id="a_Node000004"><a xlink:href="no__os__error_8h.html" target="_top" xlink:title="Error codes definition.">
<polygon fill="white" stroke="#666666" points="236.72,-129 154.72,-129 154.72,-110 236.72,-110 236.72,-129"/>
<text text-anchor="middle" x="195.72" y="-117" font-family="Helvetica,sans-Serif" font-size="10.00">no_os_error.h</text>
</a>
</g>
</g>
<!-- Node1&#45;&gt;Node4 -->
<g id="edge3_Node000001_Node000004" class="edge">
<title>Node1&#45;&gt;Node4</title>
<g id="a_edge3_Node000001_Node000004"><a xlink:title=" ">
<path fill="none" stroke="#63b8ff" d="M118.91,-164.99C135.01,-155.66 156.06,-143.47 172.05,-134.21"/>
<polygon fill="#63b8ff" stroke="#63b8ff" points="173.91,-137.18 180.81,-129.14 170.4,-131.12 173.91,-137.18"/>
</a>
</g>
</g>
<!-- Node6 -->
<g id="Node000006" class="node">
<title>Node6</title>
<g id="a_Node000006"><a xlink:href="no__os__alloc_8h.html" target="_top" xlink:title=" ">
<polygon fill="white" stroke="#666666" points="136.22,-129 53.22,-129 53.22,-110 136.22,-110 136.22,-129"/>
<text text-anchor="middle" x="94.72" y="-117" font-family="Helvetica,sans-Serif" font-size="10.00">no_os_alloc.h</text>
</a>
</g>
</g>
<!-- Node1&#45;&gt;Node6 -->
<g id="edge5_Node000001_Node000006" class="edge">
<title>Node1&#45;&gt;Node6</title>
<g id="a_edge5_Node000001_Node000006"><a xlink:title=" ">
<path fill="none" stroke="#63b8ff" d="M94.72,-164.84C94.72,-157.21 94.72,-147.7 94.72,-139.45"/>
<polygon fill="#63b8ff" stroke="#63b8ff" points="98.22,-139.27 94.72,-129.27 91.22,-139.27 98.22,-139.27"/>
</a>
</g>
</g>
<!-- Node7 -->
<g id="Node000007" class="node">
<title>Node7</title>
<g id="a_Node000007"><a xlink:href="ltc268x_8h.html" target="_top" xlink:title="Header file of LTC2686/8 Driver.">
<polygon fill="white" stroke="#666666" points="316.72,-129 254.72,-129 254.72,-110 316.72,-110 316.72,-129"/>
<text text-anchor="middle" x="285.72" y="-117" font-family="Helvetica,sans-Serif" font-size="10.00">ltc268x.h</text>
</a>
</g>
</g>
<!-- Node1&#45;&gt;Node7 -->
<g id="edge8_Node000001_Node000007" class="edge">
<title>Node1&#45;&gt;Node7</title>
<g id="a_edge8_Node000001_Node000007"><a xlink:title=" ">
<path fill="none" stroke="#63b8ff" d="M140.47,-164.99C173.29,-154.94 216.99,-141.55 247.85,-132.1"/>
<polygon fill="#63b8ff" stroke="#63b8ff" points="249.26,-135.33 257.79,-129.05 247.21,-128.64 249.26,-135.33"/>
</a>
</g>
</g>
<!-- Node5 -->
<g id="Node000005" class="node">
<title>Node5</title>
<g id="a_Node000005"><a xlink:href="errno_8h.html" target="_top" xlink:title="Error macro definition for ARM Compiler.">
<polygon fill="white" stroke="#666666" points="197.22,-74 146.22,-74 146.22,-55 197.22,-55 197.22,-74"/>
<text text-anchor="middle" x="171.72" y="-62" font-family="Helvetica,sans-Serif" font-size="10.00">errno.h</text>
</a>
</g>
</g>
<!-- Node4&#45;&gt;Node5 -->
<g id="edge4_Node000004_Node000005" class="edge">
<title>Node4&#45;&gt;Node5</title>
<g id="a_edge4_Node000004_Node000005"><a xlink:title=" ">
<path fill="none" stroke="#63b8ff" d="M191.76,-109.75C188.51,-102.57 183.8,-92.18 179.77,-83.27"/>
<polygon fill="#63b8ff" stroke="#63b8ff" points="182.92,-81.75 175.61,-74.09 176.55,-84.64 182.92,-81.75"/>
</a>
</g>
</g>
<!-- Node6&#45;&gt;Node2 -->
<g id="edge7_Node000006_Node000002" class="edge">
<title>Node6&#45;&gt;Node2</title>
<g id="a_edge7_Node000006_Node000002"><a xlink:title=" ">
<path fill="none" stroke="#63b8ff" d="M94.72,-109.66C94.72,-92.17 94.72,-52.8 94.72,-29.27"/>
<polygon fill="#63b8ff" stroke="#63b8ff" points="98.22,-29.16 94.72,-19.16 91.22,-29.16 98.22,-29.16"/>
</a>
</g>
</g>
<!-- Node6&#45;&gt;Node3 -->
<g id="edge6_Node000006_Node000003" class="edge">
<title>Node6&#45;&gt;Node3</title>
<g id="a_edge6_Node000006_Node000003"><a xlink:title=" ">
<path fill="none" stroke="#63b8ff" d="M85.8,-109.75C77.94,-102.03 66.29,-90.6 56.8,-81.28"/>
<polygon fill="#63b8ff" stroke="#63b8ff" points="59.06,-78.6 49.47,-74.09 54.16,-83.59 59.06,-78.6"/>
</a>
</g>
</g>
<!-- Node7&#45;&gt;Node5 -->
<g id="edge17_Node000007_Node000005" class="edge">
<title>Node7&#45;&gt;Node5</title>
<g id="a_edge17_Node000007_Node000005"><a xlink:title=" ">
<path fill="none" stroke="#63b8ff" d="M267.41,-109.98C249.07,-101.46 220.61,-88.23 199.49,-78.41"/>
<polygon fill="#63b8ff" stroke="#63b8ff" points="200.91,-75.21 190.37,-74.17 197.96,-81.56 200.91,-75.21"/>
</a>
</g>
</g>
<!-- Node8 -->
<g id="Node000008" class="node">
<title>Node8</title>
<g id="a_Node000008"><a xlink:href="no__os__spi_8h.html" target="_top" xlink:title="Header file of SPI Interface.">
<polygon fill="white" stroke="#666666" points="485.72,-74 411.72,-74 411.72,-55 485.72,-55 485.72,-74"/>
<text text-anchor="middle" x="448.72" y="-62" font-family="Helvetica,sans-Serif" font-size="10.00">no_os_spi.h</text>
</a>
</g>
</g>
<!-- Node7&#45;&gt;Node8 -->
<g id="edge9_Node000007_Node000008" class="edge">
<title>Node7&#45;&gt;Node8</title>
<g id="a_edge9_Node000007_Node000008"><a xlink:title=" ">
<path fill="none" stroke="#63b8ff" d="M311.91,-109.98C339.16,-101.13 382.02,-87.19 412.5,-77.28"/>
<polygon fill="#63b8ff" stroke="#63b8ff" points="413.9,-80.5 422.33,-74.08 411.74,-73.85 413.9,-80.5"/>
</a>
</g>
</g>
<!-- Node10 -->
<g id="Node000010" class="node">
<title>Node10</title>
<g id="a_Node000010"><a xlink:href="no__os__util_8h.html" target="_top" xlink:title="Header file of utility functions.">
<polygon fill="white" stroke="#666666" points="290.22,-74 215.22,-74 215.22,-55 290.22,-55 290.22,-74"/>
<text text-anchor="middle" x="252.72" y="-62" font-family="Helvetica,sans-Serif" font-size="10.00">no_os_util.h</text>
</a>
</g>
</g>
<!-- Node7&#45;&gt;Node10 -->
<g id="edge11_Node000007_Node000010" class="edge">
<title>Node7&#45;&gt;Node10</title>
<g id="a_edge11_Node000007_Node000010"><a xlink:title=" ">
<path fill="none" stroke="#63b8ff" d="M280.27,-109.75C275.71,-102.42 269.05,-91.73 263.43,-82.7"/>
<polygon fill="#63b8ff" stroke="#63b8ff" points="266.33,-80.73 258.07,-74.09 260.38,-84.43 266.33,-80.73"/>
</a>
</g>
</g>
<!-- Node12 -->
<g id="Node000012" class="node">
<title>Node12</title>
<g id="a_Node000012"><a xlink:href="no__os__delay_8h.html" target="_top" xlink:title="Header file of Delay functions.">
<polygon fill="white" stroke="#666666" points="393.22,-74 308.22,-74 308.22,-55 393.22,-55 393.22,-74"/>
<text text-anchor="middle" x="350.72" y="-62" font-family="Helvetica,sans-Serif" font-size="10.00">no_os_delay.h</text>
</a>
</g>
</g>
<!-- Node7&#45;&gt;Node12 -->
<g id="edge15_Node000007_Node000012" class="edge">
<title>Node7&#45;&gt;Node12</title>
<g id="a_edge15_Node000007_Node000012"><a xlink:title=" ">
<path fill="none" stroke="#63b8ff" d="M296.16,-109.98C305.87,-102.07 320.54,-90.11 332.22,-80.58"/>
<polygon fill="#63b8ff" stroke="#63b8ff" points="334.55,-83.2 340.09,-74.17 330.13,-77.78 334.55,-83.2"/>
</a>
</g>
</g>
<!-- Node9 -->
<g id="Node000009" class="node">
<title>Node9</title>
<g id="a_Node000009"><a xlink:title=" ">
<polygon fill="#e0e0e0" stroke="#999999" points="377.22,-19 324.22,-19 324.22,0 377.22,0 377.22,-19"/>
<text text-anchor="middle" x="350.72" y="-7" font-family="Helvetica,sans-Serif" font-size="10.00">stdint.h</text>
</a>
</g>
</g>
<!-- Node8&#45;&gt;Node9 -->
<g id="edge10_Node000008_Node000009" class="edge">
<title>Node8&#45;&gt;Node9</title>
<g id="a_edge10_Node000008_Node000009"><a xlink:title=" ">
<path fill="none" stroke="#63b8ff" d="M432.98,-54.98C417.49,-46.61 393.63,-33.7 375.58,-23.95"/>
<polygon fill="#63b8ff" stroke="#63b8ff" points="377.21,-20.85 366.75,-19.17 373.88,-27.01 377.21,-20.85"/>
</a>
</g>
</g>
<!-- Node10&#45;&gt;Node2 -->
<g id="edge13_Node000010_Node000002" class="edge">
<title>Node10&#45;&gt;Node2</title>
<g id="a_edge13_Node000010_Node000002"><a xlink:title=" ">
<path fill="none" stroke="#63b8ff" d="M227.34,-54.98C200.92,-46.13 159.37,-32.19 129.83,-22.28"/>
<polygon fill="#63b8ff" stroke="#63b8ff" points="130.9,-18.94 120.31,-19.08 128.67,-25.58 130.9,-18.94"/>
</a>
</g>
</g>
<!-- Node10&#45;&gt;Node9 -->
<g id="edge12_Node000010_Node000009" class="edge">
<title>Node10&#45;&gt;Node9</title>
<g id="a_edge12_Node000010_Node000009"><a xlink:title=" ">
<path fill="none" stroke="#63b8ff" d="M268.47,-54.98C283.95,-46.61 307.81,-33.7 325.86,-23.95"/>
<polygon fill="#63b8ff" stroke="#63b8ff" points="327.56,-27.01 334.69,-19.17 324.23,-20.85 327.56,-27.01"/>
</a>
</g>
</g>
<!-- Node11 -->
<g id="Node000011" class="node">
<title>Node11</title>
<g id="a_Node000011"><a xlink:title=" ">
<polygon fill="#e0e0e0" stroke="#999999" points="283.72,-19 221.72,-19 221.72,0 283.72,0 283.72,-19"/>
<text text-anchor="middle" x="252.72" y="-7" font-family="Helvetica,sans-Serif" font-size="10.00">stdbool.h</text>
</a>
</g>
</g>
<!-- Node10&#45;&gt;Node11 -->
<g id="edge14_Node000010_Node000011" class="edge">
<title>Node10&#45;&gt;Node11</title>
<g id="a_edge14_Node000010_Node000011"><a xlink:title=" ">
<path fill="none" stroke="#63b8ff" d="M252.72,-54.75C252.72,-47.8 252.72,-37.85 252.72,-29.13"/>
<polygon fill="#63b8ff" stroke="#63b8ff" points="256.22,-29.09 252.72,-19.09 249.22,-29.09 256.22,-29.09"/>
</a>
</g>
</g>
<!-- Node12&#45;&gt;Node9 -->
<g id="edge16_Node000012_Node000009" class="edge">
<title>Node12&#45;&gt;Node9</title>
<g id="a_edge16_Node000012_Node000009"><a xlink:title=" ">
<path fill="none" stroke="#63b8ff" d="M350.72,-54.75C350.72,-47.8 350.72,-37.85 350.72,-29.13"/>
<polygon fill="#63b8ff" stroke="#63b8ff" points="354.22,-29.09 350.72,-19.09 347.22,-29.09 354.22,-29.09"/>
</a>
</g>
</g>
</g>
</svg>
