<?xml version="1.0" encoding="UTF-8" standalone="no"?>
<!DOCTYPE svg PUBLIC "-//W3C//DTD SVG 1.1//EN"
 "http://www.w3.org/Graphics/SVG/1.1/DTD/svg11.dtd">
<!-- Generated by graphviz version 2.43.0 (0)
 -->
<!-- Title: ltc3220_remove Pages: 1 -->
<svg width="338pt" height="46pt"
 viewBox="0.00 0.00 338.00 46.00" xmlns="http://www.w3.org/2000/svg" xmlns:xlink="http://www.w3.org/1999/xlink">
<g id="graph0" class="graph" transform="scale(1 1) rotate(0) translate(4 42)">
<title>ltc3220_remove</title>
<!-- Node1 -->
<g id="Node000001" class="node">
<title>Node1</title>
<g id="a_Node000001"><a xlink:title="Deallocates the resources for the device structure.">
<polygon fill="#999999" stroke="#666666" points="330,-38 235,-38 235,-19 330,-19 330,-38"/>
<text text-anchor="middle" x="282.5" y="-26" font-family="Helvetica,sans-Serif" font-size="10.00">ltc3220_remove</text>
</a>
</g>
</g>
<!-- Node2 -->
<g id="Node000002" class="node">
<title>Node2</title>
<g id="a_Node000002"><a xlink:href="ltc3220_2src_2examples_2basic_2basic__example_8c.html#ac25cbf8ae523e89cb0617e68c98bc697" target="_top" xlink:title="Basic example main execution.">
<polygon fill="white" stroke="#666666" points="89,-38 0,-38 0,-19 89,-19 89,-38"/>
<text text-anchor="middle" x="44.5" y="-26" font-family="Helvetica,sans-Serif" font-size="10.00">example_main</text>
</a>
</g>
</g>
<!-- Node1&#45;&gt;Node2 -->
<g id="edge1_Node000001_Node000002" class="edge">
<title>Node1&#45;&gt;Node2</title>
<g id="a_edge1_Node000001_Node000002"><a xlink:title=" ">
<path fill="none" stroke="#63b8ff" d="M224.62,-28.5C183.01,-28.5 127.4,-28.5 89.24,-28.5"/>
<polygon fill="#63b8ff" stroke="#63b8ff" points="224.87,-32 234.87,-28.5 224.87,-25 224.87,-32"/>
</a>
</g>
</g>
<!-- Node3 -->
<g id="Node000003" class="node">
<title>Node3</title>
<g id="a_Node000003"><a xlink:href="ltc3220_8c.html#a445be83907e4f146f041de402207b250" target="_top" xlink:title="Initializes the LTC3220 device structure.">
<polygon fill="white" stroke="#666666" points="199,-19 125,-19 125,0 199,0 199,-19"/>
<text text-anchor="middle" x="162" y="-7" font-family="Helvetica,sans-Serif" font-size="10.00">ltc3220_init</text>
</a>
</g>
</g>
<!-- Node1&#45;&gt;Node3 -->
<g id="edge2_Node000001_Node000003" class="edge">
<title>Node1&#45;&gt;Node3</title>
<g id="a_edge2_Node000001_Node000003"><a xlink:title=" ">
<path fill="none" stroke="#63b8ff" d="M224.61,-19.38C215.99,-18 207.29,-16.6 199.26,-15.31"/>
<polygon fill="#63b8ff" stroke="#63b8ff" points="224.24,-22.86 234.67,-20.99 225.35,-15.95 224.24,-22.86"/>
</a>
</g>
</g>
<!-- Node3&#45;&gt;Node2 -->
<g id="edge3_Node000003_Node000002" class="edge">
<title>Node3&#45;&gt;Node2</title>
<g id="a_edge3_Node000003_Node000002"><a xlink:title=" ">
<path fill="none" stroke="#63b8ff" d="M114.75,-17.11C106.36,-18.49 97.62,-19.93 89.3,-21.29"/>
<polygon fill="#63b8ff" stroke="#63b8ff" points="115.47,-20.54 124.77,-15.46 114.34,-13.63 115.47,-20.54"/>
</a>
</g>
</g>
</g>
</svg>
