<?xml version="1.0" encoding="UTF-8" standalone="no"?>
<!DOCTYPE svg PUBLIC "-//W3C//DTD SVG 1.1//EN"
 "http://www.w3.org/Graphics/SVG/1.1/DTD/svg11.dtd">
<!-- Generated by graphviz version 2.43.0 (0)
 -->
<!-- Title: projects/ltc3220/src/platform/maxim/main.c Pages: 1 -->
<svg width="253pt" height="148pt"
 viewBox="0.00 0.00 252.50 148.00" xmlns="http://www.w3.org/2000/svg" xmlns:xlink="http://www.w3.org/1999/xlink">
<g id="graph0" class="graph" transform="scale(1 1) rotate(0) translate(4 144)">
<title>projects/ltc3220/src/platform/maxim/main.c</title>
<!-- Node1 -->
<g id="Node000001" class="node">
<title>Node1</title>
<g id="a_Node000001"><a xlink:title="Main file for Maxim platfom of LTC3220 project.">
<polygon fill="#999999" stroke="#666666" points="210.5,-140 75.5,-140 75.5,-110 210.5,-110 210.5,-140"/>
<text text-anchor="start" x="83.5" y="-128" font-family="Helvetica,sans-Serif" font-size="10.00">projects/ltc3220/src</text>
<text text-anchor="middle" x="143" y="-117" font-family="Helvetica,sans-Serif" font-size="10.00">/platform/maxim/main.c</text>
</a>
</g>
</g>
<!-- Node2 -->
<g id="Node000002" class="node">
<title>Node2</title>
<g id="a_Node000002"><a xlink:href="ltc3220_2src_2platform_2maxim_2parameters_8h.html" target="_top" xlink:title="Definition header of Maxim platform data used by LTC3220 project.">
<polygon fill="white" stroke="#666666" points="131,-74 49,-74 49,-55 131,-55 131,-74"/>
<text text-anchor="middle" x="90" y="-62" font-family="Helvetica,sans-Serif" font-size="10.00">parameters.h</text>
</a>
</g>
</g>
<!-- Node1&#45;&gt;Node2 -->
<g id="edge1_Node000001_Node000002" class="edge">
<title>Node1&#45;&gt;Node2</title>
<g id="a_edge1_Node000001_Node000002"><a xlink:title=" ">
<path fill="none" stroke="#63b8ff" d="M130.17,-109.84C122.48,-101.35 112.67,-90.52 104.67,-81.69"/>
<polygon fill="#63b8ff" stroke="#63b8ff" points="107.25,-79.33 97.94,-74.27 102.06,-84.03 107.25,-79.33"/>
</a>
</g>
</g>
<!-- Node5 -->
<g id="Node000005" class="node">
<title>Node5</title>
<g id="a_Node000005"><a xlink:title=" ">
<polygon fill="#e0e0e0" stroke="#999999" points="244.5,-74 149.5,-74 149.5,-55 244.5,-55 244.5,-74"/>
<text text-anchor="middle" x="197" y="-62" font-family="Helvetica,sans-Serif" font-size="10.00">common_data.h</text>
</a>
</g>
</g>
<!-- Node1&#45;&gt;Node5 -->
<g id="edge4_Node000001_Node000005" class="edge">
<title>Node1&#45;&gt;Node5</title>
<g id="a_edge4_Node000001_Node000005"><a xlink:title=" ">
<path fill="none" stroke="#63b8ff" d="M156.07,-109.84C163.91,-101.35 173.91,-90.52 182.06,-81.69"/>
<polygon fill="#63b8ff" stroke="#63b8ff" points="184.7,-83.99 188.91,-74.27 179.55,-79.24 184.7,-83.99"/>
</a>
</g>
</g>
<!-- Node3 -->
<g id="Node000003" class="node">
<title>Node3</title>
<g id="a_Node000003"><a xlink:title=" ">
<polygon fill="#e0e0e0" stroke="#999999" points="80,-19 0,-19 0,0 80,0 80,-19"/>
<text text-anchor="middle" x="40" y="-7" font-family="Helvetica,sans-Serif" font-size="10.00">maxim_i2c.h</text>
</a>
</g>
</g>
<!-- Node2&#45;&gt;Node3 -->
<g id="edge2_Node000002_Node000003" class="edge">
<title>Node2&#45;&gt;Node3</title>
<g id="a_edge2_Node000002_Node000003"><a xlink:title=" ">
<path fill="none" stroke="#63b8ff" d="M81.74,-54.75C74.54,-47.11 63.89,-35.82 55.15,-26.56"/>
<polygon fill="#63b8ff" stroke="#63b8ff" points="57.51,-23.96 48.1,-19.09 52.42,-28.76 57.51,-23.96"/>
</a>
</g>
</g>
<!-- Node4 -->
<g id="Node000004" class="node">
<title>Node4</title>
<g id="a_Node000004"><a xlink:title=" ">
<polygon fill="#e0e0e0" stroke="#999999" points="184,-19 98,-19 98,0 184,0 184,-19"/>
<text text-anchor="middle" x="141" y="-7" font-family="Helvetica,sans-Serif" font-size="10.00">maxim_gpio.h</text>
</a>
</g>
</g>
<!-- Node2&#45;&gt;Node4 -->
<g id="edge3_Node000002_Node000004" class="edge">
<title>Node2&#45;&gt;Node4</title>
<g id="a_edge3_Node000002_Node000004"><a xlink:title=" ">
<path fill="none" stroke="#63b8ff" d="M98.42,-54.75C105.77,-47.11 116.63,-35.82 125.54,-26.56"/>
<polygon fill="#63b8ff" stroke="#63b8ff" points="128.32,-28.72 132.74,-19.09 123.28,-23.87 128.32,-28.72"/>
</a>
</g>
</g>
</g>
</svg>
