<?xml version="1.0" encoding="UTF-8" standalone="no"?>
<!DOCTYPE svg PUBLIC "-//W3C//DTD SVG 1.1//EN"
 "http://www.w3.org/Graphics/SVG/1.1/DTD/svg11.dtd">
<!-- Generated by graphviz version 2.43.0 (0)
 -->
<!-- Title: projects/ltc3337/src/common/common_data.c Pages: 1 -->
<svg width="328pt" height="258pt"
 viewBox="0.00 0.00 328.00 258.00" xmlns="http://www.w3.org/2000/svg" xmlns:xlink="http://www.w3.org/1999/xlink">
<g id="graph0" class="graph" transform="scale(1 1) rotate(0) translate(4 254)">
<title>projects/ltc3337/src/common/common_data.c</title>
<!-- Node1 -->
<g id="Node000001" class="node">
<title>Node1</title>
<g id="a_Node000001"><a xlink:title=" ">
<polygon fill="#999999" stroke="#666666" points="157.5,-250 14.5,-250 14.5,-220 157.5,-220 157.5,-250"/>
<text text-anchor="start" x="22.5" y="-238" font-family="Helvetica,sans-Serif" font-size="10.00">projects/ltc3337/src</text>
<text text-anchor="middle" x="86" y="-227" font-family="Helvetica,sans-Serif" font-size="10.00">/common/common_data.c</text>
</a>
</g>
</g>
<!-- Node2 -->
<g id="Node000002" class="node">
<title>Node2</title>
<g id="a_Node000002"><a xlink:href="ltc3337_2src_2common_2common__data_8h.html" target="_top" xlink:title=" ">
<polygon fill="white" stroke="#666666" points="133.5,-184 38.5,-184 38.5,-165 133.5,-165 133.5,-184"/>
<text text-anchor="middle" x="86" y="-172" font-family="Helvetica,sans-Serif" font-size="10.00">common_data.h</text>
</a>
</g>
</g>
<!-- Node1&#45;&gt;Node2 -->
<g id="edge1_Node000001_Node000002" class="edge">
<title>Node1&#45;&gt;Node2</title>
<g id="a_edge1_Node000001_Node000002"><a xlink:title=" ">
<path fill="none" stroke="#63b8ff" d="M86,-219.84C86,-212.21 86,-202.7 86,-194.45"/>
<polygon fill="#63b8ff" stroke="#63b8ff" points="89.5,-194.27 86,-184.27 82.5,-194.27 89.5,-194.27"/>
</a>
</g>
</g>
<!-- Node3 -->
<g id="Node000003" class="node">
<title>Node3</title>
<g id="a_Node000003"><a xlink:title=" ">
<polygon fill="#e0e0e0" stroke="#999999" points="82,-129 0,-129 0,-110 82,-110 82,-129"/>
<text text-anchor="middle" x="41" y="-117" font-family="Helvetica,sans-Serif" font-size="10.00">parameters.h</text>
</a>
</g>
</g>
<!-- Node2&#45;&gt;Node3 -->
<g id="edge2_Node000002_Node000003" class="edge">
<title>Node2&#45;&gt;Node3</title>
<g id="a_edge2_Node000002_Node000003"><a xlink:title=" ">
<path fill="none" stroke="#63b8ff" d="M78.57,-164.75C72.15,-157.18 62.69,-146.05 54.88,-136.84"/>
<polygon fill="#63b8ff" stroke="#63b8ff" points="57.43,-134.45 48.29,-129.09 52.1,-138.98 57.43,-134.45"/>
</a>
</g>
</g>
<!-- Node4 -->
<g id="Node000004" class="node">
<title>Node4</title>
<g id="a_Node000004"><a xlink:href="ltc3337_8h.html" target="_top" xlink:title="Header file for the LTC3337 Driver.">
<polygon fill="white" stroke="#666666" points="162,-129 100,-129 100,-110 162,-110 162,-129"/>
<text text-anchor="middle" x="131" y="-117" font-family="Helvetica,sans-Serif" font-size="10.00">ltc3337.h</text>
</a>
</g>
</g>
<!-- Node2&#45;&gt;Node4 -->
<g id="edge3_Node000002_Node000004" class="edge">
<title>Node2&#45;&gt;Node4</title>
<g id="a_edge3_Node000002_Node000004"><a xlink:title=" ">
<path fill="none" stroke="#63b8ff" d="M93.43,-164.75C99.85,-157.18 109.31,-146.05 117.12,-136.84"/>
<polygon fill="#63b8ff" stroke="#63b8ff" points="119.9,-138.98 123.71,-129.09 114.57,-134.45 119.9,-138.98"/>
</a>
</g>
</g>
<!-- Node5 -->
<g id="Node000005" class="node">
<title>Node5</title>
<g id="a_Node000005"><a xlink:title=" ">
<polygon fill="#e0e0e0" stroke="#999999" points="157.5,-19 104.5,-19 104.5,0 157.5,0 157.5,-19"/>
<text text-anchor="middle" x="131" y="-7" font-family="Helvetica,sans-Serif" font-size="10.00">stdint.h</text>
</a>
</g>
</g>
<!-- Node4&#45;&gt;Node5 -->
<g id="edge4_Node000004_Node000005" class="edge">
<title>Node4&#45;&gt;Node5</title>
<g id="a_edge4_Node000004_Node000005"><a xlink:title=" ">
<path fill="none" stroke="#63b8ff" d="M117.02,-109.84C100.33,-98.31 75.75,-76.81 85,-55 89.98,-43.25 99.75,-33.09 109.01,-25.45"/>
<polygon fill="#63b8ff" stroke="#63b8ff" points="111.4,-28.03 117.22,-19.18 107.15,-22.47 111.4,-28.03"/>
</a>
</g>
</g>
<!-- Node6 -->
<g id="Node000006" class="node">
<title>Node6</title>
<g id="a_Node000006"><a xlink:href="no__os__util_8h.html" target="_top" xlink:title="Header file of utility functions.">
<polygon fill="white" stroke="#666666" points="261.5,-74 186.5,-74 186.5,-55 261.5,-55 261.5,-74"/>
<text text-anchor="middle" x="224" y="-62" font-family="Helvetica,sans-Serif" font-size="10.00">no_os_util.h</text>
</a>
</g>
</g>
<!-- Node4&#45;&gt;Node6 -->
<g id="edge5_Node000004_Node000006" class="edge">
<title>Node4&#45;&gt;Node6</title>
<g id="a_edge5_Node000004_Node000006"><a xlink:title=" ">
<path fill="none" stroke="#63b8ff" d="M145.94,-109.98C160.5,-101.69 182.87,-88.94 199.93,-79.22"/>
<polygon fill="#63b8ff" stroke="#63b8ff" points="201.83,-82.16 208.79,-74.17 198.36,-76.08 201.83,-82.16"/>
</a>
</g>
</g>
<!-- Node9 -->
<g id="Node000009" class="node">
<title>Node9</title>
<g id="a_Node000009"><a xlink:href="no__os__i2c_8h.html" target="_top" xlink:title="Header file of I2C Interface.">
<polygon fill="white" stroke="#666666" points="168,-74 94,-74 94,-55 168,-55 168,-74"/>
<text text-anchor="middle" x="131" y="-62" font-family="Helvetica,sans-Serif" font-size="10.00">no_os_i2c.h</text>
</a>
</g>
</g>
<!-- Node4&#45;&gt;Node9 -->
<g id="edge9_Node000004_Node000009" class="edge">
<title>Node4&#45;&gt;Node9</title>
<g id="a_edge9_Node000004_Node000009"><a xlink:title=" ">
<path fill="none" stroke="#63b8ff" d="M131,-109.75C131,-102.8 131,-92.85 131,-84.13"/>
<polygon fill="#63b8ff" stroke="#63b8ff" points="134.5,-84.09 131,-74.09 127.5,-84.09 134.5,-84.09"/>
</a>
</g>
</g>
<!-- Node6&#45;&gt;Node5 -->
<g id="edge6_Node000006_Node000005" class="edge">
<title>Node6&#45;&gt;Node5</title>
<g id="a_edge6_Node000006_Node000005"><a xlink:title=" ">
<path fill="none" stroke="#63b8ff" d="M209.06,-54.98C194.5,-46.69 172.13,-33.94 155.07,-24.22"/>
<polygon fill="#63b8ff" stroke="#63b8ff" points="156.64,-21.08 146.21,-19.17 153.17,-27.16 156.64,-21.08"/>
</a>
</g>
</g>
<!-- Node7 -->
<g id="Node000007" class="node">
<title>Node7</title>
<g id="a_Node000007"><a xlink:title=" ">
<polygon fill="#e0e0e0" stroke="#999999" points="239.5,-19 186.5,-19 186.5,0 239.5,0 239.5,-19"/>
<text text-anchor="middle" x="213" y="-7" font-family="Helvetica,sans-Serif" font-size="10.00">stdlib.h</text>
</a>
</g>
</g>
<!-- Node6&#45;&gt;Node7 -->
<g id="edge7_Node000006_Node000007" class="edge">
<title>Node6&#45;&gt;Node7</title>
<g id="a_edge7_Node000006_Node000007"><a xlink:title=" ">
<path fill="none" stroke="#63b8ff" d="M222.18,-54.75C220.74,-47.8 218.68,-37.85 216.87,-29.13"/>
<polygon fill="#63b8ff" stroke="#63b8ff" points="220.24,-28.17 214.78,-19.09 213.39,-29.59 220.24,-28.17"/>
</a>
</g>
</g>
<!-- Node8 -->
<g id="Node000008" class="node">
<title>Node8</title>
<g id="a_Node000008"><a xlink:title=" ">
<polygon fill="#e0e0e0" stroke="#999999" points="320,-19 258,-19 258,0 320,0 320,-19"/>
<text text-anchor="middle" x="289" y="-7" font-family="Helvetica,sans-Serif" font-size="10.00">stdbool.h</text>
</a>
</g>
</g>
<!-- Node6&#45;&gt;Node8 -->
<g id="edge8_Node000006_Node000008" class="edge">
<title>Node6&#45;&gt;Node8</title>
<g id="a_edge8_Node000006_Node000008"><a xlink:title=" ">
<path fill="none" stroke="#63b8ff" d="M234.44,-54.98C244.15,-47.07 258.82,-35.11 270.5,-25.58"/>
<polygon fill="#63b8ff" stroke="#63b8ff" points="272.83,-28.2 278.37,-19.17 268.4,-22.78 272.83,-28.2"/>
</a>
</g>
</g>
<!-- Node9&#45;&gt;Node5 -->
<g id="edge10_Node000009_Node000005" class="edge">
<title>Node9&#45;&gt;Node5</title>
<g id="a_edge10_Node000009_Node000005"><a xlink:title=" ">
<path fill="none" stroke="#63b8ff" d="M131,-54.75C131,-47.8 131,-37.85 131,-29.13"/>
<polygon fill="#63b8ff" stroke="#63b8ff" points="134.5,-29.09 131,-19.09 127.5,-29.09 134.5,-29.09"/>
</a>
</g>
</g>
</g>
</svg>
