<?xml version="1.0" encoding="UTF-8" standalone="no"?>
<!DOCTYPE svg PUBLIC "-//W3C//DTD SVG 1.1//EN"
 "http://www.w3.org/Graphics/SVG/1.1/DTD/svg11.dtd">
<!-- Generated by graphviz version 2.43.0 (0)
 -->
<!-- Title: ltc4306_read Pages: 1 -->
<!--zoomable 809 -->

<svg id="main" version="1.1" xmlns="http://www.w3.org/2000/svg" xmlns:xlink="http://www.w3.org/1999/xlink" xml:space="preserve" onload="init(evt)">

<style type="text/css"><![CDATA[
.node, .edge {opacity: 0.7;}
.node.selected, .edge.selected {opacity: 1;}
.edge:hover path { stroke: red; }
.edge:hover polygon { stroke: red; fill: red; }
]]></style>

<defs>
  <circle id="rim" cx="0" cy="0" r="7"/>
  <circle id="rim2" cx="0" cy="0" r="3.5"/>
  <g id="zoomPlus">
    <use xlink:href="#rim" fill="#404040"><set attributeName="fill" to="#808080" begin="zoomplus.mouseover" end="zoomplus.mouseout"/></use>
    <path d="M-4,0h8M0,-4v8" fill="none" stroke="white" stroke-width="1.5" pointer-events="none"/>
  </g>
  <g id="zoomMin">
    <use xlink:href="#rim" fill="#404040"><set attributeName="fill" to="#808080" begin="zoomminus.mouseover" end="zoomminus.mouseout"/></use>
    <path d="M-4,0h8" fill="none" stroke="white" stroke-width="1.5" pointer-events="none"/>
  </g>
  <g id="arrowUp" transform="translate(30 24)">
    <use xlink:href="#rim"/>
    <path pointer-events="none" fill="none" stroke="white" stroke-width="1.5" d="M0,-3.0v7 M-2.5,-0.5L0,-3.0L2.5,-0.5"/>
  </g>
  <g id="arrowRight" transform="rotate(90) translate(36 -43)">
    <use xlink:href="#rim"/>
    <path pointer-events="none" fill="none" stroke="white" stroke-width="1.5" d="M0,-3.0v7 M-2.5,-0.5L0,-3.0L2.5,-0.5"/>
  </g>
  <g id="arrowDown" transform="rotate(180) translate(-30 -48)">
    <use xlink:href="#rim"/>
    <path pointer-events="none" fill="none" stroke="white" stroke-width="1.5" d="M0,-3.0v7 M-2.5,-0.5L0,-3.0L2.5,-0.5"/>
  </g>
  <g id="arrowLeft" transform="rotate(270) translate(-36 17)">
    <use xlink:href="#rim"/>
    <path pointer-events="none" fill="none" stroke="white" stroke-width="1.5" d="M0,-3.0v7 M-2.5,-0.5L0,-3.0L2.5,-0.5"/>
  </g>
  <g id="resetDef">
    <use xlink:href="#rim2" fill="#404040"><set attributeName="fill" to="#808080" begin="reset.mouseover" end="reset.mouseout"/></use>
  </g>
</defs>
<script type="application/ecmascript">
var viewWidth = 584;
var viewHeight = 809;
var sectionId = 'dynsection-4';
</script>
<script type="application/ecmascript" xlink:href="svg.min.js"/>
<svg id="graph" class="graph">
<g id="viewport">
<title>ltc4306_read</title>
<!-- Node1 -->
<g id="Node000001" class="node">
<title>Node1</title>
<g id="a_Node000001"><a xlink:title="Reads the value of a register.">
<polygon fill="#999999" stroke="#666666" points="576,-479.5 496,-479.5 496,-460.5 576,-460.5 576,-479.5"/>
<text text-anchor="middle" x="536" y="-467.5" font-family="Helvetica,sans-Serif" font-size="10.00">ltc4306_read</text>
</a>
</g>
</g>
<!-- Node2 -->
<g id="Node000002" class="node">
<title>Node2</title>
<g id="a_Node000002"><a xlink:href="ltc4306_8c.html#af26bd8c8c7c4879c6cbcabdf2f681e06" target="_top" xlink:title="Get downstream connect bit status to see if any downstream bus connected.">
<polygon fill="white" stroke="#666666" points="444.5,-801 325.5,-801 325.5,-771 444.5,-771 444.5,-801"/>
<text text-anchor="start" x="333.5" y="-789" font-family="Helvetica,sans-Serif" font-size="10.00">ltc4306_downstream</text>
<text text-anchor="middle" x="385" y="-778" font-family="Helvetica,sans-Serif" font-size="10.00">_check</text>
</a>
</g>
</g>
<!-- Node1&#45;&gt;Node2 -->
<g id="edge1_Node000001_Node000002" class="edge">
<title>Node1&#45;&gt;Node2</title>
<g id="a_edge1_Node000001_Node000002"><a xlink:title=" ">
<path fill="none" stroke="#63b8ff" d="M532.41,-489.82C524.35,-548.82 497.89,-721.68 460,-762 455.65,-766.63 450.41,-770.36 444.74,-773.38"/>
<polygon fill="#63b8ff" stroke="#63b8ff" points="535.92,-489.99 533.78,-479.62 528.98,-489.06 535.92,-489.99"/>
</a>
</g>
</g>
<!-- Node3 -->
<g id="Node000003" class="node">
<title>Node3</title>
<g id="a_Node000003"><a xlink:href="ltc4306_8c.html#a569db21182c5aa4a94a2bc20194f28d8" target="_top" xlink:title="Gets Connection Requirement bit field.">
<polygon fill="white" stroke="#666666" points="446.5,-752.5 323.5,-752.5 323.5,-733.5 446.5,-733.5 446.5,-752.5"/>
<text text-anchor="middle" x="385" y="-740.5" font-family="Helvetica,sans-Serif" font-size="10.00">ltc4306_get_conn_req</text>
</a>
</g>
</g>
<!-- Node1&#45;&gt;Node3 -->
<g id="edge2_Node000001_Node000003" class="edge">
<title>Node1&#45;&gt;Node3</title>
<g id="a_edge2_Node000001_Node000003"><a xlink:title=" ">
<path fill="none" stroke="#63b8ff" d="M535.32,-489.97C534.96,-537.71 527.1,-659.26 460,-724 455.99,-727.87 451.31,-730.98 446.27,-733.48"/>
<polygon fill="#63b8ff" stroke="#63b8ff" points="538.82,-489.73 535.29,-479.74 531.82,-489.76 538.82,-489.73"/>
</a>
</g>
</g>
<!-- Node6 -->
<g id="Node000006" class="node">
<title>Node6</title>
<g id="a_Node000006"><a xlink:href="ltc4306_8c.html#ab08aec25a4b0501dfe0e39fd1ed93e50" target="_top" xlink:title="Get status of downstream accelerator enable bit field.">
<polygon fill="white" stroke="#666666" points="455,-715 315,-715 315,-685 455,-685 455,-715"/>
<text text-anchor="start" x="323" y="-703" font-family="Helvetica,sans-Serif" font-size="10.00">ltc4306_get_downstream</text>
<text text-anchor="middle" x="385" y="-692" font-family="Helvetica,sans-Serif" font-size="10.00">_accel</text>
</a>
</g>
</g>
<!-- Node1&#45;&gt;Node6 -->
<g id="edge5_Node000001_Node000006" class="edge">
<title>Node1&#45;&gt;Node6</title>
<g id="a_edge5_Node000001_Node000006"><a xlink:title=" ">
<path fill="none" stroke="#63b8ff" d="M533.45,-489.78C529.21,-530.47 513.82,-624.06 460,-676 456.4,-679.47 452.3,-682.44 447.91,-684.98"/>
<polygon fill="#63b8ff" stroke="#63b8ff" points="536.94,-490.07 534.38,-479.79 529.97,-489.42 536.94,-490.07"/>
</a>
</g>
</g>
<!-- Node7 -->
<g id="Node000007" class="node">
<title>Node7</title>
<g id="a_Node000007"><a xlink:href="ltc4306_8c.html#ae5438a62091ca02919906b36d934736e" target="_top" xlink:title="Get the connection status of the selected FET.">
<polygon fill="white" stroke="#666666" points="455,-667 315,-667 315,-637 455,-637 455,-667"/>
<text text-anchor="start" x="323" y="-655" font-family="Helvetica,sans-Serif" font-size="10.00">ltc4306_get_downstream</text>
<text text-anchor="middle" x="385" y="-644" font-family="Helvetica,sans-Serif" font-size="10.00">_channel</text>
</a>
</g>
</g>
<!-- Node1&#45;&gt;Node7 -->
<g id="edge6_Node000001_Node000007" class="edge">
<title>Node1&#45;&gt;Node7</title>
<g id="a_edge6_Node000001_Node000007"><a xlink:title=" ">
<path fill="none" stroke="#63b8ff" d="M530.99,-489.67C523.19,-522.94 502.84,-590.38 460,-628 456.04,-631.48 451.57,-634.45 446.84,-636.99"/>
<polygon fill="#63b8ff" stroke="#63b8ff" points="534.43,-490.31 533.17,-479.79 527.59,-488.8 534.43,-490.31"/>
</a>
</g>
</g>
<!-- Node8 -->
<g id="Node000008" class="node">
<title>Node8</title>
<g id="a_Node000008"><a xlink:href="ltc4306_8c.html#a142fa55e755a04e75bc79818d1a61bb6" target="_top" xlink:title="Gets GPIO Output Driver state.">
<polygon fill="white" stroke="#666666" points="453.5,-619 316.5,-619 316.5,-589 453.5,-589 453.5,-619"/>
<text text-anchor="start" x="324.5" y="-607" font-family="Helvetica,sans-Serif" font-size="10.00">ltc4306_get_gpio_output</text>
<text text-anchor="middle" x="385" y="-596" font-family="Helvetica,sans-Serif" font-size="10.00">_state</text>
</a>
</g>
</g>
<!-- Node1&#45;&gt;Node8 -->
<g id="edge7_Node000001_Node000008" class="edge">
<title>Node1&#45;&gt;Node8</title>
<g id="a_edge7_Node000001_Node000008"><a xlink:title=" ">
<path fill="none" stroke="#63b8ff" d="M526.95,-488.78C515.53,-513.25 492.37,-555.75 460,-580 455.46,-583.4 450.42,-586.33 445.16,-588.86"/>
<polygon fill="#63b8ff" stroke="#63b8ff" points="530.21,-490.07 531.11,-479.51 523.82,-487.2 530.21,-490.07"/>
</a>
</g>
</g>
<!-- Node9 -->
<g id="Node000009" class="node">
<title>Node9</title>
<g id="a_Node000009"><a xlink:href="ltc4306_8c.html#a404f2d8ff6d6919a1c48e481e692922c" target="_top" xlink:title="Reads Latched Timeout status.">
<polygon fill="white" stroke="#666666" points="442.5,-571 327.5,-571 327.5,-541 442.5,-541 442.5,-571"/>
<text text-anchor="start" x="335.5" y="-559" font-family="Helvetica,sans-Serif" font-size="10.00">ltc4306_get_latched</text>
<text text-anchor="middle" x="385" y="-548" font-family="Helvetica,sans-Serif" font-size="10.00">_timeout</text>
</a>
</g>
</g>
<!-- Node1&#45;&gt;Node9 -->
<g id="edge8_Node000001_Node000009" class="edge">
<title>Node1&#45;&gt;Node9</title>
<g id="a_edge8_Node000001_Node000009"><a xlink:title=" ">
<path fill="none" stroke="#63b8ff" d="M518.55,-486.76C504.2,-500.56 482.24,-519.79 460,-532 453.96,-535.32 447.39,-538.26 440.74,-540.86"/>
<polygon fill="#63b8ff" stroke="#63b8ff" points="521.02,-489.24 525.7,-479.73 516.11,-484.25 521.02,-489.24"/>
</a>
</g>
</g>
<!-- Node10 -->
<g id="Node000010" class="node">
<title>Node10</title>
<g id="a_Node000010"><a xlink:href="ltc4306_8c.html#a871e6b0d1c646e10e27cec5c66fee0bc" target="_top" xlink:title="Gets Mass Write Bit Field status.">
<polygon fill="white" stroke="#666666" points="452.5,-522.5 317.5,-522.5 317.5,-503.5 452.5,-503.5 452.5,-522.5"/>
<text text-anchor="middle" x="385" y="-510.5" font-family="Helvetica,sans-Serif" font-size="10.00">ltc4306_get_mass_write</text>
</a>
</g>
</g>
<!-- Node1&#45;&gt;Node10 -->
<g id="edge9_Node000001_Node000010" class="edge">
<title>Node1&#45;&gt;Node10</title>
<g id="a_edge9_Node000001_Node000010"><a xlink:title=" ">
<path fill="none" stroke="#63b8ff" d="M497.05,-482.62C485.22,-486.42 472.11,-490.51 460,-494 448.66,-497.27 436.26,-500.56 424.91,-503.46"/>
<polygon fill="#63b8ff" stroke="#63b8ff" points="498.2,-485.93 506.63,-479.51 496.04,-479.27 498.2,-485.93"/>
</a>
</g>
</g>
<!-- Node11 -->
<g id="Node000011" class="node">
<title>Node11</title>
<g id="a_Node000011"><a xlink:href="ltc4306_8c.html#aba1a8ed2acfae118145110dc635b993b" target="_top" xlink:title="Reads Realtime Timeout status.">
<polygon fill="white" stroke="#666666" points="445,-485 325,-485 325,-455 445,-455 445,-485"/>
<text text-anchor="start" x="333" y="-473" font-family="Helvetica,sans-Serif" font-size="10.00">ltc4306_get_realtime</text>
<text text-anchor="middle" x="385" y="-462" font-family="Helvetica,sans-Serif" font-size="10.00">_timeout</text>
</a>
</g>
</g>
<!-- Node1&#45;&gt;Node11 -->
<g id="edge10_Node000001_Node000011" class="edge">
<title>Node1&#45;&gt;Node11</title>
<g id="a_edge10_Node000001_Node000011"><a xlink:title=" ">
<path fill="none" stroke="#63b8ff" d="M485.71,-470C472.71,-470 458.55,-470 445.09,-470"/>
<polygon fill="#63b8ff" stroke="#63b8ff" points="485.85,-473.5 495.85,-470 485.85,-466.5 485.85,-473.5"/>
</a>
</g>
</g>
<!-- Node12 -->
<g id="Node000012" class="node">
<title>Node12</title>
<g id="a_Node000012"><a xlink:href="ltc4306_8c.html#a6569d810ae4b0518bbc4ce1fc5ca3dcf" target="_top" xlink:title="Gets LTC4306&#39;s Timeout Mode.">
<polygon fill="white" stroke="#666666" points="460,-436.5 310,-436.5 310,-417.5 460,-417.5 460,-436.5"/>
<text text-anchor="middle" x="385" y="-424.5" font-family="Helvetica,sans-Serif" font-size="10.00">ltc4306_get_timeout_mode</text>
</a>
</g>
</g>
<!-- Node1&#45;&gt;Node12 -->
<g id="edge11_Node000001_Node000012" class="edge">
<title>Node1&#45;&gt;Node12</title>
<g id="a_edge11_Node000001_Node000012"><a xlink:title=" ">
<path fill="none" stroke="#63b8ff" d="M497.05,-457.38C485.22,-453.58 472.11,-449.49 460,-446 448.66,-442.73 436.26,-439.44 424.91,-436.54"/>
<polygon fill="#63b8ff" stroke="#63b8ff" points="496.04,-460.73 506.63,-460.49 498.2,-454.07 496.04,-460.73"/>
</a>
</g>
</g>
<!-- Node13 -->
<g id="Node000013" class="node">
<title>Node13</title>
<g id="a_Node000013"><a xlink:href="ltc4306_8c.html#ae6cf6ed948db0bb2544350f5f8fcdafe" target="_top" xlink:title="Get status of upstream accelerator enable bit field.">
<polygon fill="white" stroke="#666666" points="447.5,-399 322.5,-399 322.5,-369 447.5,-369 447.5,-399"/>
<text text-anchor="start" x="330.5" y="-387" font-family="Helvetica,sans-Serif" font-size="10.00">ltc4306_get_upstream</text>
<text text-anchor="middle" x="385" y="-376" font-family="Helvetica,sans-Serif" font-size="10.00">_accel</text>
</a>
</g>
</g>
<!-- Node1&#45;&gt;Node13 -->
<g id="edge12_Node000001_Node000013" class="edge">
<title>Node1&#45;&gt;Node13</title>
<g id="a_edge12_Node000001_Node000013"><a xlink:title=" ">
<path fill="none" stroke="#63b8ff" d="M518.06,-453.22C503.65,-439.71 481.86,-421.07 460,-409 453.23,-405.27 445.81,-401.95 438.36,-399.06"/>
<polygon fill="#63b8ff" stroke="#63b8ff" points="516,-456.09 525.64,-460.48 520.84,-451.04 516,-456.09"/>
</a>
</g>
</g>
<!-- Node14 -->
<g id="Node000014" class="node">
<title>Node14</title>
<g id="a_Node000014"><a xlink:href="ltc4306_8c.html#a7ae1f846aa3d5d3daec5d61b87a9e031" target="_top" xlink:title="Reads Alert Logic State of selected ALERT pin.">
<polygon fill="white" stroke="#666666" points="438.5,-351 331.5,-351 331.5,-321 438.5,-321 438.5,-351"/>
<text text-anchor="start" x="339.5" y="-339" font-family="Helvetica,sans-Serif" font-size="10.00">ltc4306_read_alert</text>
<text text-anchor="middle" x="385" y="-328" font-family="Helvetica,sans-Serif" font-size="10.00">_logic_state</text>
</a>
</g>
</g>
<!-- Node1&#45;&gt;Node14 -->
<g id="edge13_Node000001_Node000014" class="edge">
<title>Node1&#45;&gt;Node14</title>
<g id="a_edge13_Node000001_Node000014"><a xlink:title=" ">
<path fill="none" stroke="#63b8ff" d="M526.95,-451.22C515.53,-426.75 492.37,-384.25 460,-360 453.62,-355.22 446.25,-351.37 438.69,-348.28"/>
<polygon fill="#63b8ff" stroke="#63b8ff" points="523.82,-452.8 531.11,-460.49 530.21,-449.93 523.82,-452.8"/>
</a>
</g>
</g>
<!-- Node15 -->
<g id="Node000015" class="node">
<title>Node15</title>
<g id="a_Node000015"><a xlink:href="ltc4306_8c.html#aeb632e47d35bea590253d72360054a01" target="_top" xlink:title="Reads bus logic state.">
<polygon fill="white" stroke="#666666" points="450.5,-303 319.5,-303 319.5,-273 450.5,-273 450.5,-303"/>
<text text-anchor="start" x="327.5" y="-291" font-family="Helvetica,sans-Serif" font-size="10.00">ltc4306_read_bus_logic</text>
<text text-anchor="middle" x="385" y="-280" font-family="Helvetica,sans-Serif" font-size="10.00">_state</text>
</a>
</g>
</g>
<!-- Node1&#45;&gt;Node15 -->
<g id="edge14_Node000001_Node000015" class="edge">
<title>Node1&#45;&gt;Node15</title>
<g id="a_edge14_Node000001_Node000015"><a xlink:title=" ">
<path fill="none" stroke="#63b8ff" d="M530.99,-450.33C523.19,-417.06 502.84,-349.62 460,-312 456.04,-308.52 451.57,-305.55 446.84,-303.01"/>
<polygon fill="#63b8ff" stroke="#63b8ff" points="527.59,-451.2 533.17,-460.21 534.43,-449.69 527.59,-451.2"/>
</a>
</g>
</g>
<!-- Node16 -->
<g id="Node000016" class="node">
<title>Node16</title>
<g id="a_Node000016"><a xlink:href="ltc4306_8c.html#a5981320fbff10b521122f10a78193bf9" target="_top" xlink:title="Reads Failed Connection Attempt bit.">
<polygon fill="white" stroke="#666666" points="455.5,-254.5 314.5,-254.5 314.5,-235.5 455.5,-235.5 455.5,-254.5"/>
<text text-anchor="middle" x="385" y="-242.5" font-family="Helvetica,sans-Serif" font-size="10.00">ltc4306_read_failed_conn</text>
</a>
</g>
</g>
<!-- Node1&#45;&gt;Node16 -->
<g id="edge16_Node000001_Node000016" class="edge">
<title>Node1&#45;&gt;Node16</title>
<g id="a_edge16_Node000001_Node000016"><a xlink:title=" ">
<path fill="none" stroke="#63b8ff" d="M533.71,-449.94C529.95,-408.74 515.41,-314.24 460,-264 455.77,-260.17 450.88,-257.09 445.66,-254.62"/>
<polygon fill="#63b8ff" stroke="#63b8ff" points="530.23,-450.38 534.51,-460.07 537.21,-449.83 530.23,-450.38"/>
</a>
</g>
</g>
<!-- Node17 -->
<g id="Node000017" class="node">
<title>Node17</title>
<g id="a_Node000017"><a xlink:href="ltc4306_8c.html#a08f37684d42560b6327d62053d73464e" target="_top" xlink:title="Reads logic of selected GPIO.">
<polygon fill="white" stroke="#666666" points="452,-217 318,-217 318,-187 452,-187 452,-217"/>
<text text-anchor="start" x="326" y="-205" font-family="Helvetica,sans-Serif" font-size="10.00">ltc4306_read_gpio_logic</text>
<text text-anchor="middle" x="385" y="-194" font-family="Helvetica,sans-Serif" font-size="10.00">_state</text>
</a>
</g>
</g>
<!-- Node1&#45;&gt;Node17 -->
<g id="edge17_Node000001_Node000017" class="edge">
<title>Node1&#45;&gt;Node17</title>
<g id="a_edge17_Node000001_Node000017"><a xlink:title=" ">
<path fill="none" stroke="#63b8ff" d="M534.67,-449.95C532.84,-404.08 521.91,-290.57 460,-227 456.22,-223.11 451.81,-219.83 447.06,-217.06"/>
<polygon fill="#63b8ff" stroke="#63b8ff" points="531.18,-450.19 534.97,-460.08 538.18,-449.99 531.18,-450.19"/>
</a>
</g>
</g>
<!-- Node18 -->
<g id="Node000018" class="node">
<title>Node18</title>
<g id="a_Node000018"><a xlink:href="ltc4306_8c.html#a52f221217225793a4cd64461428035bd" target="_top" xlink:title="Update selected I2C register contents.">
<polygon fill="white" stroke="#666666" points="441.5,-168.5 328.5,-168.5 328.5,-149.5 441.5,-149.5 441.5,-168.5"/>
<text text-anchor="middle" x="385" y="-156.5" font-family="Helvetica,sans-Serif" font-size="10.00">ltc4306_reg_update</text>
</a>
</g>
</g>
<!-- Node1&#45;&gt;Node18 -->
<g id="edge18_Node000001_Node000018" class="edge">
<title>Node1&#45;&gt;Node18</title>
<g id="a_edge18_Node000001_Node000018"><a xlink:title=" ">
<path fill="none" stroke="#63b8ff" d="M532.53,-450.07C524.78,-390.76 499.12,-217.12 460,-178 454.84,-172.84 448.48,-169.02 441.68,-166.21"/>
<polygon fill="#63b8ff" stroke="#63b8ff" points="529.1,-450.85 533.84,-460.33 536.04,-449.97 529.1,-450.85"/>
</a>
</g>
</g>
<!-- Node4 -->
<g id="Node000004" class="node">
<title>Node4</title>
<g id="a_Node000004"><a xlink:href="ltc4306_8c.html#af36fa1d04f93bee12ff961fbf5cd88e8" target="_top" xlink:title="Dis/connects to a downstream bus. Bus logic state must be 1 for connection to occur EXCEPT when conn_...">
<polygon fill="white" stroke="#666666" points="269,-324 130,-324 130,-294 269,-294 269,-324"/>
<text text-anchor="start" x="138" y="-312" font-family="Helvetica,sans-Serif" font-size="10.00">ltc4306_set_downstream</text>
<text text-anchor="middle" x="199.5" y="-301" font-family="Helvetica,sans-Serif" font-size="10.00">_channel</text>
</a>
</g>
</g>
<!-- Node3&#45;&gt;Node4 -->
<g id="edge3_Node000003_Node000004" class="edge">
<title>Node3&#45;&gt;Node4</title>
<g id="a_edge3_Node000003_Node000004"><a xlink:title=" ">
<path fill="none" stroke="#63b8ff" d="M314.6,-728.01C312.99,-726.77 311.45,-725.44 310,-724 250.79,-665.18 211.36,-391.56 202.43,-324.08"/>
<polygon fill="#63b8ff" stroke="#63b8ff" points="312.92,-731.08 323.25,-733.42 316.63,-725.15 312.92,-731.08"/>
</a>
</g>
</g>
<!-- Node5 -->
<g id="Node000005" class="node">
<title>Node5</title>
<g id="a_Node000005"><a xlink:href="eval-ltc4306_2src_2examples_2basic_2basic__example_8c.html#ac25cbf8ae523e89cb0617e68c98bc697" target="_top" xlink:title="Basic example main execution.">
<polygon fill="white" stroke="#666666" points="89,-232.5 0,-232.5 0,-213.5 89,-213.5 89,-232.5"/>
<text text-anchor="middle" x="44.5" y="-220.5" font-family="Helvetica,sans-Serif" font-size="10.00">example_main</text>
</a>
</g>
</g>
<!-- Node4&#45;&gt;Node5 -->
<g id="edge4_Node000004_Node000005" class="edge">
<title>Node4&#45;&gt;Node5</title>
<g id="a_edge4_Node000004_Node000005"><a xlink:title=" ">
<path fill="none" stroke="#63b8ff" d="M135.72,-290.16C132.03,-288.55 128.43,-286.83 125,-285 97.5,-270.37 69.8,-246.11 55.48,-232.68"/>
<polygon fill="#63b8ff" stroke="#63b8ff" points="134.41,-293.41 144.99,-293.96 137.07,-286.94 134.41,-293.41"/>
</a>
</g>
</g>
<!-- Node15&#45;&gt;Node4 -->
<g id="edge15_Node000015_Node000004" class="edge">
<title>Node15&#45;&gt;Node4</title>
<g id="a_edge15_Node000015_Node000004"><a xlink:title=" ">
<path fill="none" stroke="#63b8ff" d="M309.3,-296.55C296.06,-298.06 282.34,-299.63 269.28,-301.13"/>
<polygon fill="#63b8ff" stroke="#63b8ff" points="309.77,-300.02 319.3,-295.4 308.97,-293.06 309.77,-300.02"/>
</a>
</g>
</g>
<!-- Node18&#45;&gt;Node4 -->
<g id="edge22_Node000018_Node000004" class="edge">
<title>Node18&#45;&gt;Node4</title>
<g id="a_edge22_Node000018_Node000004"><a xlink:title=" ">
<path fill="none" stroke="#63b8ff" d="M319.17,-171.21C315.88,-173.16 312.79,-175.41 310,-178 273.25,-212.16 309.64,-249.68 274,-285 270.57,-288.4 266.65,-291.32 262.44,-293.83"/>
<polygon fill="#63b8ff" stroke="#63b8ff" points="320.87,-174.28 328.29,-166.71 317.77,-168 320.87,-174.28"/>
</a>
</g>
</g>
<!-- Node19 -->
<g id="Node000019" class="node">
<title>Node19</title>
<g id="a_Node000019"><a xlink:href="ltc4306_8c.html#a1c2f57e653d010e78aa2c8b04ef9a324" target="_top" xlink:title="Configures GPIO1 and GPIO2 as input or output mode. If selected as output mode, can be configured as ...">
<polygon fill="white" stroke="#666666" points="264,-275.5 135,-275.5 135,-256.5 264,-256.5 264,-275.5"/>
<text text-anchor="middle" x="199.5" y="-263.5" font-family="Helvetica,sans-Serif" font-size="10.00">ltc4306_gpio_configure</text>
</a>
</g>
</g>
<!-- Node18&#45;&gt;Node19 -->
<g id="edge19_Node000018_Node000019" class="edge">
<title>Node18&#45;&gt;Node19</title>
<g id="a_edge19_Node000018_Node000019"><a xlink:title=" ">
<path fill="none" stroke="#63b8ff" d="M318.95,-172.08C315.79,-173.82 312.78,-175.78 310,-178 282.66,-199.82 301.47,-226.33 274,-248 269.67,-251.42 264.78,-254.2 259.63,-256.46"/>
<polygon fill="#63b8ff" stroke="#63b8ff" points="320.61,-175.17 328.19,-167.77 317.65,-168.83 320.61,-175.17"/>
</a>
</g>
</g>
<!-- Node20 -->
<g id="Node000020" class="node">
<title>Node20</title>
<g id="a_Node000020"><a xlink:href="ltc4306_8c.html#abf6bb141b301cabbccdac5d3dc727688" target="_top" xlink:title="Sets Connection Requirement bit field.">
<polygon fill="white" stroke="#666666" points="260.5,-238.5 138.5,-238.5 138.5,-219.5 260.5,-219.5 260.5,-238.5"/>
<text text-anchor="middle" x="199.5" y="-226.5" font-family="Helvetica,sans-Serif" font-size="10.00">ltc4306_set_conn_req</text>
</a>
</g>
</g>
<!-- Node18&#45;&gt;Node20 -->
<g id="edge20_Node000018_Node000020" class="edge">
<title>Node18&#45;&gt;Node20</title>
<g id="a_edge20_Node000018_Node000020"><a xlink:title=" ">
<path fill="none" stroke="#63b8ff" d="M323.63,-171.89C318.91,-173.68 314.31,-175.71 310,-178 291.1,-188.06 292.89,-199.93 274,-210 266.79,-213.84 258.76,-216.94 250.73,-219.43"/>
<polygon fill="#63b8ff" stroke="#63b8ff" points="325.1,-175.09 333.43,-168.54 322.83,-168.46 325.1,-175.09"/>
</a>
</g>
</g>
<!-- Node21 -->
<g id="Node000021" class="node">
<title>Node21</title>
<g id="a_Node000021"><a xlink:href="ltc4306_8c.html#ad6e2df274a55b13b7a2c3429bcb88834" target="_top" xlink:title="En/Disables downstream accelerator.">
<polygon fill="white" stroke="#666666" points="269,-201 130,-201 130,-171 269,-171 269,-201"/>
<text text-anchor="start" x="138" y="-189" font-family="Helvetica,sans-Serif" font-size="10.00">ltc4306_set_downstream</text>
<text text-anchor="middle" x="199.5" y="-178" font-family="Helvetica,sans-Serif" font-size="10.00">_accel</text>
</a>
</g>
</g>
<!-- Node18&#45;&gt;Node21 -->
<g id="edge21_Node000018_Node000021" class="edge">
<title>Node18&#45;&gt;Node21</title>
<g id="a_edge21_Node000018_Node000021"><a xlink:title=" ">
<path fill="none" stroke="#63b8ff" d="M318.17,-168.69C302.26,-171.03 285.21,-173.54 269.17,-175.9"/>
<polygon fill="#63b8ff" stroke="#63b8ff" points="319.06,-172.09 328.45,-167.17 318.04,-165.17 319.06,-172.09"/>
</a>
</g>
</g>
<!-- Node22 -->
<g id="Node000022" class="node">
<title>Node22</title>
<g id="a_Node000022"><a xlink:href="ltc4306_8c.html#af48459f4ec134962127c8d52bdec8e9a" target="_top" xlink:title="Sets GPIO Output Driver state.">
<polygon fill="white" stroke="#666666" points="267.5,-153 131.5,-153 131.5,-123 267.5,-123 267.5,-153"/>
<text text-anchor="start" x="139.5" y="-141" font-family="Helvetica,sans-Serif" font-size="10.00">ltc4306_set_gpio_output</text>
<text text-anchor="middle" x="199.5" y="-130" font-family="Helvetica,sans-Serif" font-size="10.00">_state</text>
</a>
</g>
</g>
<!-- Node18&#45;&gt;Node22 -->
<g id="edge23_Node000018_Node000022" class="edge">
<title>Node18&#45;&gt;Node22</title>
<g id="a_edge23_Node000018_Node000022"><a xlink:title=" ">
<path fill="none" stroke="#63b8ff" d="M318.35,-151.49C301.83,-149.6 284.09,-147.57 267.51,-145.67"/>
<polygon fill="#63b8ff" stroke="#63b8ff" points="318.11,-154.98 328.45,-152.64 318.91,-148.03 318.11,-154.98"/>
</a>
</g>
</g>
<!-- Node23 -->
<g id="Node000023" class="node">
<title>Node23</title>
<g id="a_Node000023"><a xlink:href="ltc4306_8c.html#a76c1b8fbfab041606d69c0e46861f729" target="_top" xlink:title="Enables Mass Write.">
<polygon fill="white" stroke="#666666" points="266.5,-104.5 132.5,-104.5 132.5,-85.5 266.5,-85.5 266.5,-104.5"/>
<text text-anchor="middle" x="199.5" y="-92.5" font-family="Helvetica,sans-Serif" font-size="10.00">ltc4306_set_mass_write</text>
</a>
</g>
</g>
<!-- Node18&#45;&gt;Node23 -->
<g id="edge25_Node000018_Node000023" class="edge">
<title>Node18&#45;&gt;Node23</title>
<g id="a_edge25_Node000018_Node000023"><a xlink:title=" ">
<path fill="none" stroke="#63b8ff" d="M353.42,-145.18C331.58,-135.64 301.34,-123.08 274,-114 263.62,-110.55 252.24,-107.34 241.61,-104.58"/>
<polygon fill="#63b8ff" stroke="#63b8ff" points="352.26,-148.5 362.82,-149.33 355.09,-142.09 352.26,-148.5"/>
</a>
</g>
</g>
<!-- Node24 -->
<g id="Node000024" class="node">
<title>Node24</title>
<g id="a_Node000024"><a xlink:href="ltc4306_8c.html#a45f07dc20dcefcdb8c914e9db97827c4" target="_top" xlink:title="Sets LTC4306&#39;s Timeout Mode.">
<polygon fill="white" stroke="#666666" points="274,-67.5 125,-67.5 125,-48.5 274,-48.5 274,-67.5"/>
<text text-anchor="middle" x="199.5" y="-55.5" font-family="Helvetica,sans-Serif" font-size="10.00">ltc4306_set_timeout_mode</text>
</a>
</g>
</g>
<!-- Node18&#45;&gt;Node24 -->
<g id="edge26_Node000018_Node000024" class="edge">
<title>Node18&#45;&gt;Node24</title>
<g id="a_edge26_Node000018_Node000024"><a xlink:title=" ">
<path fill="none" stroke="#63b8ff" d="M366.77,-142.39C346.28,-123.55 310.28,-93.23 274,-76 266.88,-72.62 259.06,-69.83 251.26,-67.55"/>
<polygon fill="#63b8ff" stroke="#63b8ff" points="364.62,-145.17 374.31,-149.46 369.4,-140.06 364.62,-145.17"/>
</a>
</g>
</g>
<!-- Node25 -->
<g id="Node000025" class="node">
<title>Node25</title>
<g id="a_Node000025"><a xlink:href="ltc4306_8c.html#a1edae0e29cb57043454ade8f78e402e7" target="_top" xlink:title="En/Disables upstream accelerator.">
<polygon fill="white" stroke="#666666" points="262,-30 137,-30 137,0 262,0 262,-30"/>
<text text-anchor="start" x="145" y="-18" font-family="Helvetica,sans-Serif" font-size="10.00">ltc4306_set_upstream</text>
<text text-anchor="middle" x="199.5" y="-7" font-family="Helvetica,sans-Serif" font-size="10.00">_accel</text>
</a>
</g>
</g>
<!-- Node18&#45;&gt;Node25 -->
<g id="edge27_Node000018_Node000025" class="edge">
<title>Node18&#45;&gt;Node25</title>
<g id="a_edge27_Node000018_Node000025"><a xlink:title=" ">
<path fill="none" stroke="#63b8ff" d="M371.95,-140.79C353.74,-114.63 316.74,-66.53 274,-39 268.7,-35.58 262.86,-32.61 256.87,-30.04"/>
<polygon fill="#63b8ff" stroke="#63b8ff" points="369.27,-143.07 377.79,-149.36 375.05,-139.13 369.27,-143.07"/>
</a>
</g>
</g>
<!-- Node22&#45;&gt;Node5 -->
<g id="edge24_Node000022_Node000005" class="edge">
<title>Node22&#45;&gt;Node5</title>
<g id="a_edge24_Node000022_Node000005"><a xlink:title=" ">
<path fill="none" stroke="#63b8ff" d="M135.73,-156.87C132.05,-158.48 128.44,-160.19 125,-162 97.61,-176.44 69.87,-200.29 55.51,-213.48"/>
<polygon fill="#63b8ff" stroke="#63b8ff" points="137.08,-160.1 145.02,-153.08 134.44,-153.62 137.08,-160.1"/>
</a>
</g>
</g>
</g>
</svg>

<g id="navigator" transform="translate(0 0)" fill="#404254">
  <rect fill="#f2f5e9" fill-opacity="0.5" stroke="#606060" stroke-width=".5" x="0" y="0" width="60" height="60"/>
  <use id="zoomplus" xlink:href="#zoomPlus" x="17" y="9" onmousedown="handleZoom(evt,'in')"/>
  <use id="zoomminus" xlink:href="#zoomMin" x="42" y="9" onmousedown="handleZoom(evt,'out')"/>
  <use id="reset" xlink:href="#resetDef" x="30" y="36" onmousedown="handleReset()"/>
   <use id="arrowup" xlink:href="#arrowUp" x="0" y="0" onmousedown="handlePan(0,-1)"/>
  <use id="arrowright" xlink:href="#arrowRight" x="0" y="0" onmousedown="handlePan(1,0)"/>
  <use id="arrowdown" xlink:href="#arrowDown" x="0" y="0" onmousedown="handlePan(0,1)"/>
  <use id="arrowleft" xlink:href="#arrowLeft" x="0" y="0" onmousedown="handlePan(-1,0)"/>
</g>
<svg viewBox="0 0 15 15" width="100%" height="30px" preserveAspectRatio="xMaxYMin meet">
 <g id="arrow_out" transform="scale(0.3 0.3)">
  <a xlink:href="ltc4306_8c_a2dbde724844c22f1a808e50c65cbb3da_icgraph_org.svg" target="_base">
   <rect id="button" ry="5" rx="5" y="6" x="6" height="38" width="38"
        fill="#f2f5e9" fill-opacity="0.5" stroke="#606060" stroke-width="1.0"/>
   <path id="arrow"
     d="M 11.500037,31.436501 C 11.940474,20.09759 22.043105,11.32322 32.158766,21.979434 L 37.068811,17.246167 C 37.068811,17.246167 37.088388,32 37.088388,32 L 22.160133,31.978069 C 22.160133,31.978069 26.997745,27.140456 26.997745,27.140456 C 18.528582,18.264221 13.291696,25.230495 11.500037,31.436501 z"
     style="fill:#404040;"/>
  </a>
 </g>
</svg>

<style type='text/css'>
<![CDATA[
[data-mouse-over-selected='false'] { opacity: 0.7; }
[data-mouse-over-selected='true']  { opacity: 1.0; }
]]>
</style>
<script type="application/ecmascript"><![CDATA[
document.addEventListener('DOMContentLoaded', (event) => {
  highlightEdges();
  highlightAdjacentNodes();
});
]]></script>
</svg>
