<?xml version="1.0" encoding="UTF-8" standalone="no"?>
<!DOCTYPE svg PUBLIC "-//W3C//DTD SVG 1.1//EN"
 "http://www.w3.org/Graphics/SVG/1.1/DTD/svg11.dtd">
<!-- Generated by graphviz version 2.43.0 (0)
 -->
<!-- Title: ltc4162l_get_chem_type Pages: 1 -->
<svg width="438pt" height="184pt"
 viewBox="0.00 0.00 438.00 184.12" xmlns="http://www.w3.org/2000/svg" xmlns:xlink="http://www.w3.org/1999/xlink">
<g id="graph0" class="graph" transform="scale(1 1) rotate(0) translate(4 180.12)">
<title>ltc4162l_get_chem_type</title>
<!-- Node1 -->
<g id="Node000001" class="node">
<title>Node1</title>
<g id="a_Node000001"><a xlink:title="Get the chemistry type.">
<polygon fill="#999999" stroke="#666666" points="430,-104.5 294,-104.5 294,-85.5 430,-85.5 430,-104.5"/>
<text text-anchor="middle" x="362" y="-92.5" font-family="Helvetica,sans-Serif" font-size="10.00">ltc4162l_get_chem_type</text>
</a>
</g>
</g>
<!-- Node2 -->
<g id="Node000002" class="node">
<title>Node2</title>
<g id="a_Node000002"><a xlink:href="ltc4162l_2src_2examples_2basic_2basic__example_8c.html#ac25cbf8ae523e89cb0617e68c98bc697" target="_top" xlink:title="Basic example main executiont.">
<polygon fill="white" stroke="#666666" points="89,-104.5 0,-104.5 0,-85.5 89,-85.5 89,-104.5"/>
<text text-anchor="middle" x="44.5" y="-92.5" font-family="Helvetica,sans-Serif" font-size="10.00">example_main</text>
</a>
</g>
</g>
<!-- Node1&#45;&gt;Node2 -->
<g id="edge1_Node000001_Node000002" class="edge">
<title>Node1&#45;&gt;Node2</title>
<g id="a_edge1_Node000001_Node000002"><a xlink:title=" ">
<path fill="none" stroke="#63b8ff" d="M343.26,-111.22C323.94,-127.68 291.31,-152.12 258,-162 201.33,-178.81 180.52,-182.28 125,-162 93.46,-150.48 65.79,-120.33 53.01,-104.71"/>
<polygon fill="#63b8ff" stroke="#63b8ff" points="345.71,-113.73 350.92,-104.51 341.09,-108.46 345.71,-113.73"/>
</a>
</g>
</g>
<!-- Node3 -->
<g id="Node000003" class="node">
<title>Node3</title>
<g id="a_Node000003"><a xlink:href="ltc4162l_8c.html#a307ec70a0ddee2f825824a817b7f247a" target="_top" xlink:title="Get the vcharge setting.">
<polygon fill="white" stroke="#666666" points="252,-153 131,-153 131,-123 252,-123 252,-153"/>
<text text-anchor="start" x="139" y="-141" font-family="Helvetica,sans-Serif" font-size="10.00">ltc4162l_get_vcharge</text>
<text text-anchor="middle" x="191.5" y="-130" font-family="Helvetica,sans-Serif" font-size="10.00">_setting</text>
</a>
</g>
</g>
<!-- Node1&#45;&gt;Node3 -->
<g id="edge2_Node000001_Node000003" class="edge">
<title>Node1&#45;&gt;Node3</title>
<g id="a_edge2_Node000001_Node000003"><a xlink:title=" ">
<path fill="none" stroke="#63b8ff" d="M313.79,-107.05C294.41,-111.99 271.75,-117.78 251.3,-122.99"/>
<polygon fill="#63b8ff" stroke="#63b8ff" points="314.78,-110.41 323.6,-104.54 313.05,-103.62 314.78,-110.41"/>
</a>
</g>
</g>
<!-- Node4 -->
<g id="Node000004" class="node">
<title>Node4</title>
<g id="a_Node000004"><a xlink:href="ltc4162l_8c.html#a0778d4aeb58c3865f5695bd6ba7807a6" target="_top" xlink:title="Get the average battery voltage.">
<polygon fill="white" stroke="#666666" points="258,-104.5 125,-104.5 125,-85.5 258,-85.5 258,-104.5"/>
<text text-anchor="middle" x="191.5" y="-92.5" font-family="Helvetica,sans-Serif" font-size="10.00">ltc4162l_read_avg_vbat</text>
</a>
</g>
</g>
<!-- Node1&#45;&gt;Node4 -->
<g id="edge3_Node000001_Node000004" class="edge">
<title>Node1&#45;&gt;Node4</title>
<g id="a_edge3_Node000001_Node000004"><a xlink:title=" ">
<path fill="none" stroke="#63b8ff" d="M283.92,-95C275.34,-95 266.67,-95 258.25,-95"/>
<polygon fill="#63b8ff" stroke="#63b8ff" points="283.92,-98.5 293.92,-95 283.92,-91.5 283.92,-98.5"/>
</a>
</g>
</g>
<!-- Node5 -->
<g id="Node000005" class="node">
<title>Node5</title>
<g id="a_Node000005"><a xlink:href="ltc4162l_8c.html#a2f75a3a7cf89596b31acd59c08719a24" target="_top" xlink:title="Get the battery voltage.">
<polygon fill="white" stroke="#666666" points="246.5,-67.5 136.5,-67.5 136.5,-48.5 246.5,-48.5 246.5,-67.5"/>
<text text-anchor="middle" x="191.5" y="-55.5" font-family="Helvetica,sans-Serif" font-size="10.00">ltc4162l_read_vbat</text>
</a>
</g>
</g>
<!-- Node1&#45;&gt;Node5 -->
<g id="edge5_Node000001_Node000005" class="edge">
<title>Node1&#45;&gt;Node5</title>
<g id="a_edge5_Node000001_Node000005"><a xlink:title=" ">
<path fill="none" stroke="#63b8ff" d="M307.63,-83.28C284.55,-78.21 257.89,-72.36 236.04,-67.56"/>
<polygon fill="#63b8ff" stroke="#63b8ff" points="307.09,-86.75 317.61,-85.47 308.59,-79.91 307.09,-86.75"/>
</a>
</g>
</g>
<!-- Node6 -->
<g id="Node000006" class="node">
<title>Node6</title>
<g id="a_Node000006"><a xlink:href="ltc4162l_8c.html#adefe23a8cac6fb9ec62aef14e501cc75" target="_top" xlink:title="Set the vcharge setting.">
<polygon fill="white" stroke="#666666" points="251.5,-30 131.5,-30 131.5,0 251.5,0 251.5,-30"/>
<text text-anchor="start" x="139.5" y="-18" font-family="Helvetica,sans-Serif" font-size="10.00">ltc4162l_set_vcharge</text>
<text text-anchor="middle" x="191.5" y="-7" font-family="Helvetica,sans-Serif" font-size="10.00">_setting</text>
</a>
</g>
</g>
<!-- Node1&#45;&gt;Node6 -->
<g id="edge7_Node000001_Node000006" class="edge">
<title>Node1&#45;&gt;Node6</title>
<g id="a_edge7_Node000001_Node000006"><a xlink:title=" ">
<path fill="none" stroke="#63b8ff" d="M335.81,-80.4C315.23,-68.75 285.19,-52.39 258,-40 250.47,-36.57 242.32,-33.2 234.41,-30.09"/>
<polygon fill="#63b8ff" stroke="#63b8ff" points="334.13,-83.47 344.56,-85.39 337.6,-77.39 334.13,-83.47"/>
</a>
</g>
</g>
<!-- Node4&#45;&gt;Node2 -->
<g id="edge4_Node000004_Node000002" class="edge">
<title>Node4&#45;&gt;Node2</title>
<g id="a_edge4_Node000004_Node000002"><a xlink:title=" ">
<path fill="none" stroke="#63b8ff" d="M114.64,-95C106,-95 97.42,-95 89.4,-95"/>
<polygon fill="#63b8ff" stroke="#63b8ff" points="114.79,-98.5 124.79,-95 114.79,-91.5 114.79,-98.5"/>
</a>
</g>
</g>
<!-- Node5&#45;&gt;Node2 -->
<g id="edge6_Node000005_Node000002" class="edge">
<title>Node5&#45;&gt;Node2</title>
<g id="a_edge6_Node000005_Node000002"><a xlink:title=" ">
<path fill="none" stroke="#63b8ff" d="M143.23,-70.06C123.69,-75.05 101.35,-80.75 82.97,-85.44"/>
<polygon fill="#63b8ff" stroke="#63b8ff" points="144.33,-73.39 153.16,-67.53 142.6,-66.61 144.33,-73.39"/>
</a>
</g>
</g>
</g>
</svg>
