<?xml version="1.0" encoding="UTF-8" standalone="no"?>
<!DOCTYPE svg PUBLIC "-//W3C//DTD SVG 1.1//EN"
 "http://www.w3.org/Graphics/SVG/1.1/DTD/svg11.dtd">
<!-- Generated by graphviz version 2.43.0 (0)
 -->
<!-- Title: projects/ltc7841/src/examples/basic/basic_example.c Pages: 1 -->
<svg width="907pt" height="214pt"
 viewBox="0.00 0.00 906.50 214.00" xmlns="http://www.w3.org/2000/svg" xmlns:xlink="http://www.w3.org/1999/xlink">
<g id="graph0" class="graph" transform="scale(1 1) rotate(0) translate(4 210)">
<title>projects/ltc7841/src/examples/basic/basic_example.c</title>
<!-- Node1 -->
<g id="Node000001" class="node">
<title>Node1</title>
<g id="a_Node000001"><a xlink:title="Basic example source file for ltc7841 project.">
<polygon fill="#999999" stroke="#666666" points="432,-206 307,-206 307,-165 432,-165 432,-206"/>
<text text-anchor="start" x="315" y="-194" font-family="Helvetica,sans-Serif" font-size="10.00">projects/ltc7841/src</text>
<text text-anchor="start" x="315" y="-183" font-family="Helvetica,sans-Serif" font-size="10.00">/examples/basic/basic</text>
<text text-anchor="middle" x="369.5" y="-172" font-family="Helvetica,sans-Serif" font-size="10.00">_example.c</text>
</a>
</g>
</g>
<!-- Node2 -->
<g id="Node000002" class="node">
<title>Node2</title>
<g id="a_Node000002"><a xlink:title=" ">
<polygon fill="#e0e0e0" stroke="#999999" points="312,-129 217,-129 217,-110 312,-110 312,-129"/>
<text text-anchor="middle" x="264.5" y="-117" font-family="Helvetica,sans-Serif" font-size="10.00">common_data.h</text>
</a>
</g>
</g>
<!-- Node1&#45;&gt;Node2 -->
<g id="edge1_Node000001_Node000002" class="edge">
<title>Node1&#45;&gt;Node2</title>
<g id="a_edge1_Node000001_Node000002"><a xlink:title=" ">
<path fill="none" stroke="#63b8ff" d="M337.43,-164.95C321.3,-155.12 302.12,-143.43 287.48,-134.51"/>
<polygon fill="#63b8ff" stroke="#63b8ff" points="288.96,-131.31 278.6,-129.09 285.31,-137.29 288.96,-131.31"/>
</a>
</g>
</g>
<!-- Node3 -->
<g id="Node000003" class="node">
<title>Node3</title>
<g id="a_Node000003"><a xlink:href="no__os__delay_8h.html" target="_top" xlink:title="Header file of Delay functions.">
<polygon fill="white" stroke="#666666" points="85,-74 0,-74 0,-55 85,-55 85,-74"/>
<text text-anchor="middle" x="42.5" y="-62" font-family="Helvetica,sans-Serif" font-size="10.00">no_os_delay.h</text>
</a>
</g>
</g>
<!-- Node1&#45;&gt;Node3 -->
<g id="edge2_Node000001_Node000003" class="edge">
<title>Node1&#45;&gt;Node3</title>
<g id="a_edge2_Node000001_Node000003"><a xlink:title=" ">
<path fill="none" stroke="#63b8ff" d="M362.05,-164.94C354.36,-147.59 340.65,-123.03 320.5,-110 301.93,-97.99 170.66,-80.72 95.33,-71.63"/>
<polygon fill="#63b8ff" stroke="#63b8ff" points="95.44,-68.12 85.09,-70.4 94.61,-75.07 95.44,-68.12"/>
</a>
</g>
</g>
<!-- Node5 -->
<g id="Node000005" class="node">
<title>Node5</title>
<g id="a_Node000005"><a xlink:href="no__os__print__log_8h.html" target="_top" xlink:title="Print messages helpers.">
<polygon fill="white" stroke="#666666" points="798.5,-74 696.5,-74 696.5,-55 798.5,-55 798.5,-74"/>
<text text-anchor="middle" x="747.5" y="-62" font-family="Helvetica,sans-Serif" font-size="10.00">no_os_print_log.h</text>
</a>
</g>
</g>
<!-- Node1&#45;&gt;Node5 -->
<g id="edge4_Node000001_Node000005" class="edge">
<title>Node1&#45;&gt;Node5</title>
<g id="a_edge4_Node000001_Node000005"><a xlink:title=" ">
<path fill="none" stroke="#63b8ff" d="M431.5,-164.98C510.82,-140.01 645.7,-97.55 710.54,-77.13"/>
<polygon fill="#63b8ff" stroke="#63b8ff" points="711.84,-80.4 720.33,-74.05 709.74,-73.72 711.84,-80.4"/>
</a>
</g>
</g>
<!-- Node7 -->
<g id="Node000007" class="node">
<title>Node7</title>
<g id="a_Node000007"><a xlink:href="ltc7841_8h.html" target="_top" xlink:title="Header file of LTC7841 Driver.">
<polygon fill="white" stroke="#666666" points="430.5,-129 368.5,-129 368.5,-110 430.5,-110 430.5,-129"/>
<text text-anchor="middle" x="399.5" y="-117" font-family="Helvetica,sans-Serif" font-size="10.00">ltc7841.h</text>
</a>
</g>
</g>
<!-- Node1&#45;&gt;Node7 -->
<g id="edge6_Node000001_Node000007" class="edge">
<title>Node1&#45;&gt;Node7</title>
<g id="a_edge6_Node000001_Node000007"><a xlink:title=" ">
<path fill="none" stroke="#63b8ff" d="M378.66,-164.95C382.63,-156.48 387.25,-146.64 391.12,-138.37"/>
<polygon fill="#63b8ff" stroke="#63b8ff" points="394.32,-139.8 395.39,-129.26 387.98,-136.83 394.32,-139.8"/>
</a>
</g>
</g>
<!-- Node4 -->
<g id="Node000004" class="node">
<title>Node4</title>
<g id="a_Node000004"><a xlink:title=" ">
<polygon fill="#e0e0e0" stroke="#999999" points="205,-19 152,-19 152,0 205,0 205,-19"/>
<text text-anchor="middle" x="178.5" y="-7" font-family="Helvetica,sans-Serif" font-size="10.00">stdint.h</text>
</a>
</g>
</g>
<!-- Node3&#45;&gt;Node4 -->
<g id="edge3_Node000003_Node000004" class="edge">
<title>Node3&#45;&gt;Node4</title>
<g id="a_edge3_Node000003_Node000004"><a xlink:title=" ">
<path fill="none" stroke="#63b8ff" d="M64.35,-54.98C86.62,-46.3 121.4,-32.75 146.72,-22.88"/>
<polygon fill="#63b8ff" stroke="#63b8ff" points="148.21,-26.06 156.25,-19.17 145.66,-19.54 148.21,-26.06"/>
</a>
</g>
</g>
<!-- Node6 -->
<g id="Node000006" class="node">
<title>Node6</title>
<g id="a_Node000006"><a xlink:title=" ">
<polygon fill="#e0e0e0" stroke="#999999" points="716.5,-19 666.5,-19 666.5,0 716.5,0 716.5,-19"/>
<text text-anchor="middle" x="691.5" y="-7" font-family="Helvetica,sans-Serif" font-size="10.00">stdio.h</text>
</a>
</g>
</g>
<!-- Node5&#45;&gt;Node6 -->
<g id="edge5_Node000005_Node000006" class="edge">
<title>Node5&#45;&gt;Node6</title>
<g id="a_edge5_Node000005_Node000006"><a xlink:title=" ">
<path fill="none" stroke="#63b8ff" d="M738.5,-54.98C730.31,-47.23 717.99,-35.58 708.03,-26.14"/>
<polygon fill="#63b8ff" stroke="#63b8ff" points="710.33,-23.5 700.66,-19.17 705.52,-28.59 710.33,-23.5"/>
</a>
</g>
</g>
<!-- Node7&#45;&gt;Node3 -->
<g id="edge15_Node000007_Node000003" class="edge">
<title>Node7&#45;&gt;Node3</title>
<g id="a_edge15_Node000007_Node000003"><a xlink:title=" ">
<path fill="none" stroke="#63b8ff" d="M368.06,-112.37C363.52,-111.54 358.89,-110.72 354.5,-110 241.57,-91.37 212.77,-90.44 99.5,-74 98.05,-73.79 96.57,-73.57 95.08,-73.36"/>
<polygon fill="#63b8ff" stroke="#63b8ff" points="95.54,-69.89 85.14,-71.9 94.52,-76.81 95.54,-69.89"/>
</a>
</g>
</g>
<!-- Node7&#45;&gt;Node4 -->
<g id="edge7_Node000007_Node000004" class="edge">
<title>Node7&#45;&gt;Node4</title>
<g id="a_edge7_Node000007_Node000004"><a xlink:title=" ">
<path fill="none" stroke="#63b8ff" d="M368.05,-112.45C363.51,-111.61 358.89,-110.77 354.5,-110 305.27,-101.36 164.89,-112.06 132.5,-74 118.85,-57.96 138.49,-38.12 156.18,-24.93"/>
<polygon fill="#63b8ff" stroke="#63b8ff" points="158.39,-27.65 164.55,-19.03 154.36,-21.93 158.39,-27.65"/>
</a>
</g>
</g>
<!-- Node7&#45;&gt;Node5 -->
<g id="edge14_Node000007_Node000005" class="edge">
<title>Node7&#45;&gt;Node5</title>
<g id="a_edge14_Node000007_Node000005"><a xlink:title=" ">
<path fill="none" stroke="#63b8ff" d="M430.69,-113.75C488.13,-105 611.58,-86.2 686.29,-74.82"/>
<polygon fill="#63b8ff" stroke="#63b8ff" points="687.14,-78.23 696.5,-73.27 686.08,-71.31 687.14,-78.23"/>
</a>
</g>
</g>
<!-- Node8 -->
<g id="Node000008" class="node">
<title>Node8</title>
<g id="a_Node000008"><a xlink:title=" ">
<polygon fill="#e0e0e0" stroke="#999999" points="397.5,-19 335.5,-19 335.5,0 397.5,0 397.5,-19"/>
<text text-anchor="middle" x="366.5" y="-7" font-family="Helvetica,sans-Serif" font-size="10.00">stdbool.h</text>
</a>
</g>
</g>
<!-- Node7&#45;&gt;Node8 -->
<g id="edge8_Node000007_Node000008" class="edge">
<title>Node7&#45;&gt;Node8</title>
<g id="a_edge8_Node000007_Node000008"><a xlink:title=" ">
<path fill="none" stroke="#63b8ff" d="M385.43,-109.89C374.15,-102.1 359.16,-89.48 352.5,-74 346.16,-59.27 351.17,-41.34 356.88,-28.29"/>
<polygon fill="#63b8ff" stroke="#63b8ff" points="360.16,-29.55 361.41,-19.03 353.87,-26.48 360.16,-29.55"/>
</a>
</g>
</g>
<!-- Node9 -->
<g id="Node000009" class="node">
<title>Node9</title>
<g id="a_Node000009"><a xlink:title=" ">
<polygon fill="#e0e0e0" stroke="#999999" points="593,-19 540,-19 540,0 593,0 593,-19"/>
<text text-anchor="middle" x="566.5" y="-7" font-family="Helvetica,sans-Serif" font-size="10.00">stdlib.h</text>
</a>
</g>
</g>
<!-- Node7&#45;&gt;Node9 -->
<g id="edge9_Node000007_Node000009" class="edge">
<title>Node7&#45;&gt;Node9</title>
<g id="a_edge9_Node000007_Node000009"><a xlink:title=" ">
<path fill="none" stroke="#63b8ff" d="M430.76,-117.3C463.82,-114.36 515.41,-104.75 546.5,-74 558.43,-62.2 563.26,-43.36 565.21,-29.26"/>
<polygon fill="#63b8ff" stroke="#63b8ff" points="568.7,-29.5 566.23,-19.19 561.74,-28.79 568.7,-29.5"/>
</a>
</g>
</g>
<!-- Node10 -->
<g id="Node000010" class="node">
<title>Node10</title>
<g id="a_Node000010"><a xlink:href="no__os__i2c_8h.html" target="_top" xlink:title="Header file of I2C Interface.">
<polygon fill="white" stroke="#666666" points="215.5,-74 141.5,-74 141.5,-55 215.5,-55 215.5,-74"/>
<text text-anchor="middle" x="178.5" y="-62" font-family="Helvetica,sans-Serif" font-size="10.00">no_os_i2c.h</text>
</a>
</g>
</g>
<!-- Node7&#45;&gt;Node10 -->
<g id="edge10_Node000007_Node000010" class="edge">
<title>Node7&#45;&gt;Node10</title>
<g id="a_edge10_Node000007_Node000010"><a xlink:title=" ">
<path fill="none" stroke="#63b8ff" d="M368.3,-111.02C330.74,-102.01 267.34,-86.81 224.25,-76.47"/>
<polygon fill="#63b8ff" stroke="#63b8ff" points="224.84,-73.01 214.3,-74.08 223.2,-79.82 224.84,-73.01"/>
</a>
</g>
</g>
<!-- Node11 -->
<g id="Node000011" class="node">
<title>Node11</title>
<g id="a_Node000011"><a xlink:href="no__os__irq_8h.html" target="_top" xlink:title="Header file of IRQ interface.">
<polygon fill="white" stroke="#666666" points="305.5,-74 233.5,-74 233.5,-55 305.5,-55 305.5,-74"/>
<text text-anchor="middle" x="269.5" y="-62" font-family="Helvetica,sans-Serif" font-size="10.00">no_os_irq.h</text>
</a>
</g>
</g>
<!-- Node7&#45;&gt;Node11 -->
<g id="edge12_Node000007_Node000011" class="edge">
<title>Node7&#45;&gt;Node11</title>
<g id="a_edge12_Node000007_Node000011"><a xlink:title=" ">
<path fill="none" stroke="#63b8ff" d="M378.61,-109.98C357.42,-101.34 324.37,-87.87 300.2,-78.02"/>
<polygon fill="#63b8ff" stroke="#63b8ff" points="301.35,-74.7 290.77,-74.17 298.71,-81.19 301.35,-74.7"/>
</a>
</g>
</g>
<!-- Node12 -->
<g id="Node000012" class="node">
<title>Node12</title>
<g id="a_Node000012"><a xlink:href="no__os__error_8h.html" target="_top" xlink:title="Error codes definition.">
<polygon fill="white" stroke="#666666" points="898.5,-74 816.5,-74 816.5,-55 898.5,-55 898.5,-74"/>
<text text-anchor="middle" x="857.5" y="-62" font-family="Helvetica,sans-Serif" font-size="10.00">no_os_error.h</text>
</a>
</g>
</g>
<!-- Node7&#45;&gt;Node12 -->
<g id="edge16_Node000007_Node000012" class="edge">
<title>Node7&#45;&gt;Node12</title>
<g id="a_edge16_Node000007_Node000012"><a xlink:title=" ">
<path fill="none" stroke="#63b8ff" d="M430.54,-115.75C497.31,-109.71 659.73,-94.27 806.26,-74.1"/>
<polygon fill="#63b8ff" stroke="#63b8ff" points="806.91,-77.54 816.33,-72.7 805.94,-70.61 806.91,-77.54"/>
</a>
</g>
</g>
<!-- Node14 -->
<g id="Node000014" class="node">
<title>Node14</title>
<g id="a_Node000014"><a xlink:href="no__os__util_8h.html" target="_top" xlink:title="Header file of utility functions.">
<polygon fill="white" stroke="#666666" points="437,-74 362,-74 362,-55 437,-55 437,-74"/>
<text text-anchor="middle" x="399.5" y="-62" font-family="Helvetica,sans-Serif" font-size="10.00">no_os_util.h</text>
</a>
</g>
</g>
<!-- Node7&#45;&gt;Node14 -->
<g id="edge18_Node000007_Node000014" class="edge">
<title>Node7&#45;&gt;Node14</title>
<g id="a_edge18_Node000007_Node000014"><a xlink:title=" ">
<path fill="none" stroke="#63b8ff" d="M399.5,-109.75C399.5,-102.8 399.5,-92.85 399.5,-84.13"/>
<polygon fill="#63b8ff" stroke="#63b8ff" points="403,-84.09 399.5,-74.09 396,-84.09 403,-84.09"/>
</a>
</g>
</g>
<!-- Node15 -->
<g id="Node000015" class="node">
<title>Node15</title>
<g id="a_Node000015"><a xlink:href="no__os__units_8h.html" target="_top" xlink:title="Header file of Units.">
<polygon fill="white" stroke="#666666" points="538,-74 455,-74 455,-55 538,-55 538,-74"/>
<text text-anchor="middle" x="496.5" y="-62" font-family="Helvetica,sans-Serif" font-size="10.00">no_os_units.h</text>
</a>
</g>
</g>
<!-- Node7&#45;&gt;Node15 -->
<g id="edge22_Node000007_Node000015" class="edge">
<title>Node7&#45;&gt;Node15</title>
<g id="a_edge22_Node000007_Node000015"><a xlink:title=" ">
<path fill="none" stroke="#63b8ff" d="M415.08,-109.98C430.27,-101.69 453.6,-88.94 471.4,-79.22"/>
<polygon fill="#63b8ff" stroke="#63b8ff" points="473.53,-82.04 480.63,-74.17 470.18,-75.89 473.53,-82.04"/>
</a>
</g>
</g>
<!-- Node16 -->
<g id="Node000016" class="node">
<title>Node16</title>
<g id="a_Node000016"><a xlink:href="no__os__alloc_8h.html" target="_top" xlink:title=" ">
<polygon fill="white" stroke="#666666" points="678,-74 595,-74 595,-55 678,-55 678,-74"/>
<text text-anchor="middle" x="636.5" y="-62" font-family="Helvetica,sans-Serif" font-size="10.00">no_os_alloc.h</text>
</a>
</g>
</g>
<!-- Node7&#45;&gt;Node16 -->
<g id="edge23_Node000007_Node000016" class="edge">
<title>Node7&#45;&gt;Node16</title>
<g id="a_edge23_Node000007_Node000016"><a xlink:title=" ">
<path fill="none" stroke="#63b8ff" d="M430.97,-111.46C471.21,-102.46 541.28,-86.79 588.27,-76.29"/>
<polygon fill="#63b8ff" stroke="#63b8ff" points="589.23,-79.66 598.22,-74.06 587.7,-72.83 589.23,-79.66"/>
</a>
</g>
</g>
<!-- Node10&#45;&gt;Node4 -->
<g id="edge11_Node000010_Node000004" class="edge">
<title>Node10&#45;&gt;Node4</title>
<g id="a_edge11_Node000010_Node000004"><a xlink:title=" ">
<path fill="none" stroke="#63b8ff" d="M178.5,-54.75C178.5,-47.8 178.5,-37.85 178.5,-29.13"/>
<polygon fill="#63b8ff" stroke="#63b8ff" points="182,-29.09 178.5,-19.09 175,-29.09 182,-29.09"/>
</a>
</g>
</g>
<!-- Node11&#45;&gt;Node4 -->
<g id="edge13_Node000011_Node000004" class="edge">
<title>Node11&#45;&gt;Node4</title>
<g id="a_edge13_Node000011_Node000004"><a xlink:title=" ">
<path fill="none" stroke="#63b8ff" d="M254.88,-54.98C240.64,-46.69 218.75,-33.94 202.05,-24.22"/>
<polygon fill="#63b8ff" stroke="#63b8ff" points="203.79,-21.18 193.39,-19.17 200.27,-27.23 203.79,-21.18"/>
</a>
</g>
</g>
<!-- Node13 -->
<g id="Node000013" class="node">
<title>Node13</title>
<g id="a_Node000013"><a xlink:href="errno_8h.html" target="_top" xlink:title="Error macro definition for ARM Compiler.">
<polygon fill="white" stroke="#666666" points="883,-19 832,-19 832,0 883,0 883,-19"/>
<text text-anchor="middle" x="857.5" y="-7" font-family="Helvetica,sans-Serif" font-size="10.00">errno.h</text>
</a>
</g>
</g>
<!-- Node12&#45;&gt;Node13 -->
<g id="edge17_Node000012_Node000013" class="edge">
<title>Node12&#45;&gt;Node13</title>
<g id="a_edge17_Node000012_Node000013"><a xlink:title=" ">
<path fill="none" stroke="#63b8ff" d="M857.5,-54.75C857.5,-47.8 857.5,-37.85 857.5,-29.13"/>
<polygon fill="#63b8ff" stroke="#63b8ff" points="861,-29.09 857.5,-19.09 854,-29.09 861,-29.09"/>
</a>
</g>
</g>
<!-- Node14&#45;&gt;Node4 -->
<g id="edge19_Node000014_Node000004" class="edge">
<title>Node14&#45;&gt;Node4</title>
<g id="a_edge19_Node000014_Node000004"><a xlink:title=" ">
<path fill="none" stroke="#63b8ff" d="M363.99,-54.98C323.16,-45.19 256.46,-29.2 215.16,-19.29"/>
<polygon fill="#63b8ff" stroke="#63b8ff" points="215.77,-15.84 205.23,-16.91 214.14,-22.65 215.77,-15.84"/>
</a>
</g>
</g>
<!-- Node14&#45;&gt;Node8 -->
<g id="edge21_Node000014_Node000008" class="edge">
<title>Node14&#45;&gt;Node8</title>
<g id="a_edge21_Node000014_Node000008"><a xlink:title=" ">
<path fill="none" stroke="#63b8ff" d="M394.05,-54.75C389.49,-47.42 382.83,-36.73 377.21,-27.7"/>
<polygon fill="#63b8ff" stroke="#63b8ff" points="380.1,-25.73 371.85,-19.09 374.16,-29.43 380.1,-25.73"/>
</a>
</g>
</g>
<!-- Node14&#45;&gt;Node9 -->
<g id="edge20_Node000014_Node000009" class="edge">
<title>Node14&#45;&gt;Node9</title>
<g id="a_edge20_Node000014_Node000009"><a xlink:title=" ">
<path fill="none" stroke="#63b8ff" d="M426.33,-54.98C454.45,-46.06 498.81,-31.98 530.08,-22.06"/>
<polygon fill="#63b8ff" stroke="#63b8ff" points="531.26,-25.36 539.74,-18.99 529.14,-18.68 531.26,-25.36"/>
</a>
</g>
</g>
<!-- Node16&#45;&gt;Node6 -->
<g id="edge24_Node000016_Node000006" class="edge">
<title>Node16&#45;&gt;Node6</title>
<g id="a_edge24_Node000016_Node000006"><a xlink:title=" ">
<path fill="none" stroke="#63b8ff" d="M645.58,-54.75C653.59,-47.03 665.46,-35.6 675.12,-26.28"/>
<polygon fill="#63b8ff" stroke="#63b8ff" points="677.81,-28.55 682.59,-19.09 672.96,-23.51 677.81,-28.55"/>
</a>
</g>
</g>
<!-- Node16&#45;&gt;Node9 -->
<g id="edge25_Node000016_Node000009" class="edge">
<title>Node16&#45;&gt;Node9</title>
<g id="a_edge25_Node000016_Node000009"><a xlink:title=" ">
<path fill="none" stroke="#63b8ff" d="M625.25,-54.98C614.7,-47 598.7,-34.88 586.06,-25.31"/>
<polygon fill="#63b8ff" stroke="#63b8ff" points="588.04,-22.42 577.95,-19.17 583.81,-28 588.04,-22.42"/>
</a>
</g>
</g>
</g>
</svg>
