<?xml version="1.0" encoding="UTF-8" standalone="no"?>
<!DOCTYPE svg PUBLIC "-//W3C//DTD SVG 1.1//EN"
 "http://www.w3.org/Graphics/SVG/1.1/DTD/svg11.dtd">
<!-- Generated by graphviz version 2.43.0 (0)
 -->
<!-- Title: ltm4700_write_word Pages: 1 -->
<svg width="463pt" height="101pt"
 viewBox="0.00 0.00 463.00 101.00" xmlns="http://www.w3.org/2000/svg" xmlns:xlink="http://www.w3.org/1999/xlink">

<svg id="main" version="1.1" xmlns="http://www.w3.org/2000/svg" xmlns:xlink="http://www.w3.org/1999/xlink" xml:space="preserve">

<style type="text/css"><![CDATA[
.node, .edge {opacity: 0.7;}
.node.selected, .edge.selected {opacity: 1;}
.edge:hover path { stroke: red; }
.edge:hover polygon { stroke: red; fill: red; }
]]></style>
<script type="application/ecmascript" xlink:href="svg.min.js"/>
<svg id="graph" class="graph">
<g id="graph0" class="graph" transform="scale(1 1) rotate(0) translate(4 97)">
<title>ltm4700_write_word</title>
<!-- Node1 -->
<g id="Node000001" class="node">
<title>Node1</title>
<g id="a_Node000001"><a xlink:title="Perform a PMBus write_word operation.">
<polygon fill="#999999" stroke="#666666" points="455,-56 339,-56 339,-37 455,-37 455,-56"/>
<text text-anchor="middle" x="397" y="-44" font-family="Helvetica,sans-Serif" font-size="10.00">ltm4700_write_word</text>
</a>
</g>
</g>
<!-- Node2 -->
<g id="Node000002" class="node">
<title>Node2</title>
<g id="a_Node000002"><a xlink:href="ltm4700_8c.html#a3ec70f589c9c2960de596e34dfeddaa0" target="_top" xlink:title="Perform conversion then perform a PMBus write_word operation.">
<polygon fill="white" stroke="#666666" points="303,-56 160,-56 160,-37 303,-37 303,-56"/>
<text text-anchor="middle" x="231.5" y="-44" font-family="Helvetica,sans-Serif" font-size="10.00">ltm4700_write_word_data</text>
</a>
</g>
</g>
<!-- Node1&#45;&gt;Node2 -->
<g id="edge1_Node000001_Node000002" class="edge">
<title>Node1&#45;&gt;Node2</title>
<g id="a_edge1_Node000001_Node000002"><a xlink:title=" ">
<path fill="none" stroke="#63b8ff" d="M328.68,-46.5C320.26,-46.5 311.64,-46.5 303.17,-46.5"/>
<polygon fill="#63b8ff" stroke="#63b8ff" points="328.82,-50 338.82,-46.5 328.82,-43 328.82,-50"/>
</a>
</g>
</g>
<!-- Node3 -->
<g id="Node000003" class="node">
<title>Node3</title>
<g id="a_Node000003"><a xlink:href="ltm4700_8c.html#af014d27c2f6ba835e1bacc03f41baaf0" target="_top" xlink:title="Set timing values.">
<polygon fill="white" stroke="#666666" points="119,-93 5,-93 5,-74 119,-74 119,-93"/>
<text text-anchor="middle" x="62" y="-81" font-family="Helvetica,sans-Serif" font-size="10.00">ltm4700_set_timing</text>
</a>
</g>
</g>
<!-- Node2&#45;&gt;Node3 -->
<g id="edge2_Node000002_Node000003" class="edge">
<title>Node2&#45;&gt;Node3</title>
<g id="a_edge2_Node000002_Node000003"><a xlink:title=" ">
<path fill="none" stroke="#63b8ff" d="M177.44,-58.22C154.5,-63.29 128,-69.14 106.28,-73.94"/>
<polygon fill="#63b8ff" stroke="#63b8ff" points="178.35,-61.6 187.36,-56.03 176.85,-54.77 178.35,-61.6"/>
</a>
</g>
</g>
<!-- Node4 -->
<g id="Node000004" class="node">
<title>Node4</title>
<g id="a_Node000004"><a xlink:href="ltm4700_8c.html#a7d9a080aa43b3ceea2ccd11cbca11c5f" target="_top" xlink:title="Set VOUT margins.">
<polygon fill="white" stroke="#666666" points="124,-56 0,-56 0,-37 124,-37 124,-56"/>
<text text-anchor="middle" x="62" y="-44" font-family="Helvetica,sans-Serif" font-size="10.00">ltm4700_vout_margin</text>
</a>
</g>
</g>
<!-- Node2&#45;&gt;Node4 -->
<g id="edge3_Node000002_Node000004" class="edge">
<title>Node2&#45;&gt;Node4</title>
<g id="a_edge3_Node000002_Node000004"><a xlink:title=" ">
<path fill="none" stroke="#63b8ff" d="M149.85,-46.5C141.22,-46.5 132.53,-46.5 124.18,-46.5"/>
<polygon fill="#63b8ff" stroke="#63b8ff" points="149.95,-50 159.95,-46.5 149.95,-43 149.95,-50"/>
</a>
</g>
</g>
<!-- Node5 -->
<g id="Node000005" class="node">
<title>Node5</title>
<g id="a_Node000005"><a xlink:href="ltm4700_8c.html#a0d71040c6561eb2d9b0126b2a023d562" target="_top" xlink:title="Set VOUT parameters.">
<polygon fill="white" stroke="#666666" points="120,-19 4,-19 4,0 120,0 120,-19"/>
<text text-anchor="middle" x="62" y="-7" font-family="Helvetica,sans-Serif" font-size="10.00">ltm4700_vout_value</text>
</a>
</g>
</g>
<!-- Node2&#45;&gt;Node5 -->
<g id="edge4_Node000002_Node000005" class="edge">
<title>Node2&#45;&gt;Node5</title>
<g id="a_edge4_Node000002_Node000005"><a xlink:title=" ">
<path fill="none" stroke="#63b8ff" d="M177.44,-34.78C154.5,-29.71 128,-23.86 106.28,-19.06"/>
<polygon fill="#63b8ff" stroke="#63b8ff" points="176.85,-38.23 187.36,-36.97 178.35,-31.4 176.85,-38.23"/>
</a>
</g>
</g>
</g>
</svg>
</svg>

<style type='text/css'>
<![CDATA[
[data-mouse-over-selected='false'] { opacity: 0.7; }
[data-mouse-over-selected='true']  { opacity: 1.0; }
]]>
</style>
<script type="application/ecmascript"><![CDATA[
document.addEventListener('DOMContentLoaded', (event) => {
  highlightEdges();
  highlightAdjacentNodes();
});
]]></script>
</svg>
