<?xml version="1.0" encoding="UTF-8" standalone="no"?>
<!DOCTYPE svg PUBLIC "-//W3C//DTD SVG 1.1//EN"
 "http://www.w3.org/Graphics/SVG/1.1/DTD/svg11.dtd">
<!-- Generated by graphviz version 2.43.0 (0)
 -->
<!-- Title: projects/ltm4700/src/examples/basic/basic_example.c Pages: 1 -->
<svg width="594pt" height="214pt"
 viewBox="0.00 0.00 593.70 214.00" xmlns="http://www.w3.org/2000/svg" xmlns:xlink="http://www.w3.org/1999/xlink">
<g id="graph0" class="graph" transform="scale(1 1) rotate(0) translate(4 210)">
<title>projects/ltm4700/src/examples/basic/basic_example.c</title>
<!-- Node1 -->
<g id="Node000001" class="node">
<title>Node1</title>
<g id="a_Node000001"><a xlink:title="Basic example source file for ltm4700 project.">
<polygon fill="#999999" stroke="#666666" points="315.2,-206 190.2,-206 190.2,-165 315.2,-165 315.2,-206"/>
<text text-anchor="start" x="198.2" y="-194" font-family="Helvetica,sans-Serif" font-size="10.00">projects/ltm4700/src</text>
<text text-anchor="start" x="198.2" y="-183" font-family="Helvetica,sans-Serif" font-size="10.00">/examples/basic/basic</text>
<text text-anchor="middle" x="252.7" y="-172" font-family="Helvetica,sans-Serif" font-size="10.00">_example.c</text>
</a>
</g>
</g>
<!-- Node2 -->
<g id="Node000002" class="node">
<title>Node2</title>
<g id="a_Node000002"><a xlink:title=" ">
<polygon fill="#e0e0e0" stroke="#999999" points="98.2,-129 3.2,-129 3.2,-110 98.2,-110 98.2,-129"/>
<text text-anchor="middle" x="50.7" y="-117" font-family="Helvetica,sans-Serif" font-size="10.00">common_data.h</text>
</a>
</g>
</g>
<!-- Node1&#45;&gt;Node2 -->
<g id="edge1_Node000001_Node000002" class="edge">
<title>Node1&#45;&gt;Node2</title>
<g id="a_edge1_Node000001_Node000002"><a xlink:title=" ">
<path fill="none" stroke="#63b8ff" d="M191,-164.95C157.06,-154.2 116.11,-141.22 87.23,-132.07"/>
<polygon fill="#63b8ff" stroke="#63b8ff" points="88.15,-128.69 77.56,-129.01 86.03,-135.36 88.15,-128.69"/>
</a>
</g>
</g>
<!-- Node3 -->
<g id="Node000003" class="node">
<title>Node3</title>
<g id="a_Node000003"><a xlink:href="no__os__delay_8h.html" target="_top" xlink:title="Header file of Delay functions.">
<polygon fill="white" stroke="#666666" points="201.2,-129 116.2,-129 116.2,-110 201.2,-110 201.2,-129"/>
<text text-anchor="middle" x="158.7" y="-117" font-family="Helvetica,sans-Serif" font-size="10.00">no_os_delay.h</text>
</a>
</g>
</g>
<!-- Node1&#45;&gt;Node3 -->
<g id="edge2_Node000001_Node000003" class="edge">
<title>Node1&#45;&gt;Node3</title>
<g id="a_edge2_Node000001_Node000003"><a xlink:title=" ">
<path fill="none" stroke="#63b8ff" d="M223.99,-164.95C209.78,-155.27 192.92,-143.8 179.89,-134.93"/>
<polygon fill="#63b8ff" stroke="#63b8ff" points="181.81,-132 171.57,-129.26 177.87,-137.78 181.81,-132"/>
</a>
</g>
</g>
<!-- Node5 -->
<g id="Node000005" class="node">
<title>Node5</title>
<g id="a_Node000005"><a xlink:href="no__os__print__log_8h.html" target="_top" xlink:title="Print messages helpers.">
<polygon fill="white" stroke="#666666" points="585.7,-129 483.7,-129 483.7,-110 585.7,-110 585.7,-129"/>
<text text-anchor="middle" x="534.7" y="-117" font-family="Helvetica,sans-Serif" font-size="10.00">no_os_print_log.h</text>
</a>
</g>
</g>
<!-- Node1&#45;&gt;Node5 -->
<g id="edge4_Node000001_Node000005" class="edge">
<title>Node1&#45;&gt;Node5</title>
<g id="a_edge4_Node000001_Node000005"><a xlink:title=" ">
<path fill="none" stroke="#63b8ff" d="M315.29,-170.3C367.14,-158.53 439.74,-142.05 486.99,-131.33"/>
<polygon fill="#63b8ff" stroke="#63b8ff" points="487.98,-134.69 496.96,-129.07 486.43,-127.87 487.98,-134.69"/>
</a>
</g>
</g>
<!-- Node7 -->
<g id="Node000007" class="node">
<title>Node7</title>
<g id="a_Node000007"><a xlink:href="ltm4700_8h.html" target="_top" xlink:title="Header file of the LTM4700 driver.">
<polygon fill="white" stroke="#666666" points="285.7,-129 219.7,-129 219.7,-110 285.7,-110 285.7,-129"/>
<text text-anchor="middle" x="252.7" y="-117" font-family="Helvetica,sans-Serif" font-size="10.00">ltm4700.h</text>
</a>
</g>
</g>
<!-- Node1&#45;&gt;Node7 -->
<g id="edge6_Node000001_Node000007" class="edge">
<title>Node1&#45;&gt;Node7</title>
<g id="a_edge6_Node000001_Node000007"><a xlink:title=" ">
<path fill="none" stroke="#63b8ff" d="M252.7,-164.95C252.7,-156.85 252.7,-147.5 252.7,-139.47"/>
<polygon fill="#63b8ff" stroke="#63b8ff" points="256.2,-139.26 252.7,-129.26 249.2,-139.26 256.2,-139.26"/>
</a>
</g>
</g>
<!-- Node11 -->
<g id="Node000011" class="node">
<title>Node11</title>
<g id="a_Node000011"><a xlink:title=" ">
<polygon fill="#e0e0e0" stroke="#999999" points="449.2,-19 396.2,-19 396.2,0 449.2,0 449.2,-19"/>
<text text-anchor="middle" x="422.7" y="-7" font-family="Helvetica,sans-Serif" font-size="10.00">stdlib.h</text>
</a>
</g>
</g>
<!-- Node1&#45;&gt;Node11 -->
<g id="edge18_Node000001_Node000011" class="edge">
<title>Node1&#45;&gt;Node11</title>
<g id="a_edge18_Node000001_Node000011"><a xlink:title=" ">
<path fill="none" stroke="#63b8ff" d="M315.52,-165.14C358.01,-148.4 410.92,-119.56 436.7,-74 444.68,-59.91 439.32,-41.67 433.07,-28.36"/>
<polygon fill="#63b8ff" stroke="#63b8ff" points="436.06,-26.53 428.32,-19.29 429.86,-29.77 436.06,-26.53"/>
</a>
</g>
</g>
<!-- Node4 -->
<g id="Node000004" class="node">
<title>Node4</title>
<g id="a_Node000004"><a xlink:title=" ">
<polygon fill="#e0e0e0" stroke="#999999" points="149.2,-19 96.2,-19 96.2,0 149.2,0 149.2,-19"/>
<text text-anchor="middle" x="122.7" y="-7" font-family="Helvetica,sans-Serif" font-size="10.00">stdint.h</text>
</a>
</g>
</g>
<!-- Node3&#45;&gt;Node4 -->
<g id="edge3_Node000003_Node000004" class="edge">
<title>Node3&#45;&gt;Node4</title>
<g id="a_edge3_Node000003_Node000004"><a xlink:title=" ">
<path fill="none" stroke="#63b8ff" d="M120.89,-109.99C77.91,-99.94 12.76,-83.4 5.7,-74 -18.26,-42.07 43.4,-24.32 86.03,-16.15"/>
<polygon fill="#63b8ff" stroke="#63b8ff" points="86.91,-19.54 96.13,-14.32 85.67,-12.66 86.91,-19.54"/>
</a>
</g>
</g>
<!-- Node6 -->
<g id="Node000006" class="node">
<title>Node6</title>
<g id="a_Node000006"><a xlink:title=" ">
<polygon fill="#e0e0e0" stroke="#999999" points="559.7,-74 509.7,-74 509.7,-55 559.7,-55 559.7,-74"/>
<text text-anchor="middle" x="534.7" y="-62" font-family="Helvetica,sans-Serif" font-size="10.00">stdio.h</text>
</a>
</g>
</g>
<!-- Node5&#45;&gt;Node6 -->
<g id="edge5_Node000005_Node000006" class="edge">
<title>Node5&#45;&gt;Node6</title>
<g id="a_edge5_Node000005_Node000006"><a xlink:title=" ">
<path fill="none" stroke="#63b8ff" d="M534.7,-109.75C534.7,-102.8 534.7,-92.85 534.7,-84.13"/>
<polygon fill="#63b8ff" stroke="#63b8ff" points="538.2,-84.09 534.7,-74.09 531.2,-84.09 538.2,-84.09"/>
</a>
</g>
</g>
<!-- Node7&#45;&gt;Node4 -->
<g id="edge7_Node000007_Node000004" class="edge">
<title>Node7&#45;&gt;Node4</title>
<g id="a_edge7_Node000007_Node000004"><a xlink:title=" ">
<path fill="none" stroke="#63b8ff" d="M223.38,-109.93C194.48,-100.94 153.04,-86.42 141.7,-74 130.55,-61.79 125.93,-43.27 124.02,-29.37"/>
<polygon fill="#63b8ff" stroke="#63b8ff" points="127.47,-28.63 122.98,-19.03 120.5,-29.33 127.47,-28.63"/>
</a>
</g>
</g>
<!-- Node8 -->
<g id="Node000008" class="node">
<title>Node8</title>
<g id="a_Node000008"><a xlink:title=" ">
<polygon fill="#e0e0e0" stroke="#999999" points="334.2,-74 281.2,-74 281.2,-55 334.2,-55 334.2,-74"/>
<text text-anchor="middle" x="307.7" y="-62" font-family="Helvetica,sans-Serif" font-size="10.00">string.h</text>
</a>
</g>
</g>
<!-- Node7&#45;&gt;Node8 -->
<g id="edge8_Node000007_Node000008" class="edge">
<title>Node7&#45;&gt;Node8</title>
<g id="a_edge8_Node000007_Node000008"><a xlink:title=" ">
<path fill="none" stroke="#63b8ff" d="M261.79,-109.75C269.79,-102.03 281.66,-90.6 291.32,-81.28"/>
<polygon fill="#63b8ff" stroke="#63b8ff" points="294.02,-83.55 298.79,-74.09 289.16,-78.51 294.02,-83.55"/>
</a>
</g>
</g>
<!-- Node9 -->
<g id="Node000009" class="node">
<title>Node9</title>
<g id="a_Node000009"><a xlink:title=" ">
<polygon fill="#e0e0e0" stroke="#999999" points="313.7,-19 251.7,-19 251.7,0 313.7,0 313.7,-19"/>
<text text-anchor="middle" x="282.7" y="-7" font-family="Helvetica,sans-Serif" font-size="10.00">stdbool.h</text>
</a>
</g>
</g>
<!-- Node7&#45;&gt;Node9 -->
<g id="edge9_Node000007_Node000009" class="edge">
<title>Node7&#45;&gt;Node9</title>
<g id="a_edge9_Node000007_Node000009"><a xlink:title=" ">
<path fill="none" stroke="#63b8ff" d="M255.16,-109.66C260.04,-92.09 271.05,-52.45 277.58,-28.95"/>
<polygon fill="#63b8ff" stroke="#63b8ff" points="280.99,-29.73 280.3,-19.16 274.25,-27.86 280.99,-29.73"/>
</a>
</g>
</g>
<!-- Node10 -->
<g id="Node000010" class="node">
<title>Node10</title>
<g id="a_Node000010"><a xlink:href="no__os__util_8h.html" target="_top" xlink:title="Header file of utility functions.">
<polygon fill="white" stroke="#666666" points="427.2,-74 352.2,-74 352.2,-55 427.2,-55 427.2,-74"/>
<text text-anchor="middle" x="389.7" y="-62" font-family="Helvetica,sans-Serif" font-size="10.00">no_os_util.h</text>
</a>
</g>
</g>
<!-- Node7&#45;&gt;Node10 -->
<g id="edge10_Node000007_Node000010" class="edge">
<title>Node7&#45;&gt;Node10</title>
<g id="a_edge10_Node000007_Node000010"><a xlink:title=" ">
<path fill="none" stroke="#63b8ff" d="M274.71,-109.98C297.15,-101.3 332.18,-87.75 357.69,-77.88"/>
<polygon fill="#63b8ff" stroke="#63b8ff" points="359.23,-81.04 367.29,-74.17 356.7,-74.51 359.23,-81.04"/>
</a>
</g>
</g>
<!-- Node12 -->
<g id="Node000012" class="node">
<title>Node12</title>
<g id="a_Node000012"><a xlink:href="no__os__i2c_8h.html" target="_top" xlink:title="Header file of I2C Interface.">
<polygon fill="white" stroke="#666666" points="224.7,-74 150.7,-74 150.7,-55 224.7,-55 224.7,-74"/>
<text text-anchor="middle" x="187.7" y="-62" font-family="Helvetica,sans-Serif" font-size="10.00">no_os_i2c.h</text>
</a>
</g>
</g>
<!-- Node7&#45;&gt;Node12 -->
<g id="edge14_Node000007_Node000012" class="edge">
<title>Node7&#45;&gt;Node12</title>
<g id="a_edge14_Node000007_Node000012"><a xlink:title=" ">
<path fill="none" stroke="#63b8ff" d="M242.26,-109.98C232.56,-102.07 217.89,-90.11 206.2,-80.58"/>
<polygon fill="#63b8ff" stroke="#63b8ff" points="208.3,-77.78 198.34,-74.17 203.87,-83.2 208.3,-77.78"/>
</a>
</g>
</g>
<!-- Node13 -->
<g id="Node000013" class="node">
<title>Node13</title>
<g id="a_Node000013"><a xlink:href="no__os__gpio_8h.html" target="_top" xlink:title="Header file of GPIO Interface.">
<polygon fill="white" stroke="#666666" points="94.7,-74 14.7,-74 14.7,-55 94.7,-55 94.7,-74"/>
<text text-anchor="middle" x="54.7" y="-62" font-family="Helvetica,sans-Serif" font-size="10.00">no_os_gpio.h</text>
</a>
</g>
</g>
<!-- Node7&#45;&gt;Node13 -->
<g id="edge16_Node000007_Node000013" class="edge">
<title>Node7&#45;&gt;Node13</title>
<g id="a_edge16_Node000007_Node000013"><a xlink:title=" ">
<path fill="none" stroke="#63b8ff" d="M220.89,-109.98C187.22,-100.97 133.91,-86.7 96.78,-76.76"/>
<polygon fill="#63b8ff" stroke="#63b8ff" points="97.33,-73.29 86.76,-74.08 95.52,-80.05 97.33,-73.29"/>
</a>
</g>
</g>
<!-- Node10&#45;&gt;Node4 -->
<g id="edge11_Node000010_Node000004" class="edge">
<title>Node10&#45;&gt;Node4</title>
<g id="a_edge11_Node000010_Node000004"><a xlink:title=" ">
<path fill="none" stroke="#63b8ff" d="M352.01,-56.02C300.78,-45.85 209.74,-27.78 159.15,-17.74"/>
<polygon fill="#63b8ff" stroke="#63b8ff" points="159.79,-14.29 149.3,-15.78 158.43,-21.16 159.79,-14.29"/>
</a>
</g>
</g>
<!-- Node10&#45;&gt;Node9 -->
<g id="edge13_Node000010_Node000009" class="edge">
<title>Node10&#45;&gt;Node9</title>
<g id="a_edge13_Node000010_Node000009"><a xlink:title=" ">
<path fill="none" stroke="#63b8ff" d="M372.51,-54.98C355.45,-46.54 329.07,-33.47 309.31,-23.68"/>
<polygon fill="#63b8ff" stroke="#63b8ff" points="310.72,-20.47 300.21,-19.17 307.61,-26.75 310.72,-20.47"/>
</a>
</g>
</g>
<!-- Node10&#45;&gt;Node11 -->
<g id="edge12_Node000010_Node000011" class="edge">
<title>Node10&#45;&gt;Node11</title>
<g id="a_edge12_Node000010_Node000011"><a xlink:title=" ">
<path fill="none" stroke="#63b8ff" d="M395.15,-54.75C399.72,-47.42 406.37,-36.73 412,-27.7"/>
<polygon fill="#63b8ff" stroke="#63b8ff" points="415.04,-29.43 417.36,-19.09 409.1,-25.73 415.04,-29.43"/>
</a>
</g>
</g>
<!-- Node12&#45;&gt;Node4 -->
<g id="edge15_Node000012_Node000004" class="edge">
<title>Node12&#45;&gt;Node4</title>
<g id="a_edge15_Node000012_Node000004"><a xlink:title=" ">
<path fill="none" stroke="#63b8ff" d="M177.26,-54.98C167.56,-47.07 152.89,-35.11 141.2,-25.58"/>
<polygon fill="#63b8ff" stroke="#63b8ff" points="143.3,-22.78 133.34,-19.17 138.87,-28.2 143.3,-22.78"/>
</a>
</g>
</g>
<!-- Node13&#45;&gt;Node4 -->
<g id="edge17_Node000013_Node000004" class="edge">
<title>Node13&#45;&gt;Node4</title>
<g id="a_edge17_Node000013_Node000004"><a xlink:title=" ">
<path fill="none" stroke="#63b8ff" d="M65.63,-54.98C75.78,-47.07 91.13,-35.11 103.35,-25.58"/>
<polygon fill="#63b8ff" stroke="#63b8ff" points="105.84,-28.08 111.58,-19.17 101.54,-22.56 105.84,-28.08"/>
</a>
</g>
</g>
</g>
</svg>
