<?xml version="1.0" encoding="UTF-8" standalone="no"?>
<!DOCTYPE svg PUBLIC "-//W3C//DTD SVG 1.1//EN"
 "http://www.w3.org/Graphics/SVG/1.1/DTD/svg11.dtd">
<!-- Generated by graphviz version 2.43.0 (0)
 -->
<!-- Title: drivers/power/ltp8800/ltp8800.h Pages: 1 -->
<svg width="668pt" height="192pt"
 viewBox="0.00 0.00 668.00 192.00" xmlns="http://www.w3.org/2000/svg" xmlns:xlink="http://www.w3.org/1999/xlink">
<g id="graph0" class="graph" transform="scale(1 1) rotate(0) translate(4 188)">
<title>drivers/power/ltp8800/ltp8800.h</title>
<!-- Node1 -->
<g id="Node000001" class="node">
<title>Node1</title>
<g id="a_Node000001"><a xlink:title=" ">
<polygon fill="#999999" stroke="#666666" points="354,-184 231,-184 231,-154 354,-154 354,-184"/>
<text text-anchor="start" x="239" y="-172" font-family="Helvetica,sans-Serif" font-size="10.00">drivers/power/ltp8800</text>
<text text-anchor="middle" x="292.5" y="-161" font-family="Helvetica,sans-Serif" font-size="10.00">/ltp8800.h</text>
</a>
</g>
</g>
<!-- Node2 -->
<g id="Node000002" class="node">
<title>Node2</title>
<g id="a_Node000002"><a xlink:href="iio__ltp8800_8c.html" target="_top" xlink:title="Source file for the LTP8800 IIO Driver.">
<polygon fill="white" stroke="#666666" points="123,-35.5 0,-35.5 0,-5.5 123,-5.5 123,-35.5"/>
<text text-anchor="start" x="8" y="-23.5" font-family="Helvetica,sans-Serif" font-size="10.00">drivers/power/ltp8800</text>
<text text-anchor="middle" x="61.5" y="-12.5" font-family="Helvetica,sans-Serif" font-size="10.00">/iio_ltp8800.c</text>
</a>
</g>
</g>
<!-- Node1&#45;&gt;Node2 -->
<g id="edge1_Node000001_Node000002" class="edge">
<title>Node1&#45;&gt;Node2</title>
<g id="a_edge1_Node000001_Node000002"><a xlink:title=" ">
<path fill="none" stroke="#63b8ff" d="M220.7,-159.45C167.06,-151.58 99.82,-138.05 80.5,-118 59.06,-95.74 58.44,-56.72 59.92,-35.76"/>
<polygon fill="#63b8ff" stroke="#63b8ff" points="220.49,-162.96 230.88,-160.91 221.48,-156.03 220.49,-162.96"/>
</a>
</g>
</g>
<!-- Node3 -->
<g id="Node000003" class="node">
<title>Node3</title>
<g id="a_Node000003"><a xlink:href="iio__ltp8800_8h.html" target="_top" xlink:title="Header file for the LTP8800 IIO Driver.">
<polygon fill="white" stroke="#666666" points="213,-112.5 90,-112.5 90,-82.5 213,-82.5 213,-112.5"/>
<text text-anchor="start" x="98" y="-100.5" font-family="Helvetica,sans-Serif" font-size="10.00">drivers/power/ltp8800</text>
<text text-anchor="middle" x="151.5" y="-89.5" font-family="Helvetica,sans-Serif" font-size="10.00">/iio_ltp8800.h</text>
</a>
</g>
</g>
<!-- Node1&#45;&gt;Node3 -->
<g id="edge2_Node000001_Node000003" class="edge">
<title>Node1&#45;&gt;Node3</title>
<g id="a_edge2_Node000001_Node000003"><a xlink:title=" ">
<path fill="none" stroke="#63b8ff" d="M254.96,-149.5C231.43,-137.9 201.58,-123.18 179.99,-112.54"/>
<polygon fill="#63b8ff" stroke="#63b8ff" points="253.45,-152.65 263.97,-153.94 256.54,-146.38 253.45,-152.65"/>
</a>
</g>
</g>
<!-- Node5 -->
<g id="Node000005" class="node">
<title>Node5</title>
<g id="a_Node000005"><a xlink:href="ltp8800_8c.html" target="_top" xlink:title=" ">
<polygon fill="white" stroke="#666666" points="354,-112.5 231,-112.5 231,-82.5 354,-82.5 354,-112.5"/>
<text text-anchor="start" x="239" y="-100.5" font-family="Helvetica,sans-Serif" font-size="10.00">drivers/power/ltp8800</text>
<text text-anchor="middle" x="292.5" y="-89.5" font-family="Helvetica,sans-Serif" font-size="10.00">/ltp8800.c</text>
</a>
</g>
</g>
<!-- Node1&#45;&gt;Node5 -->
<g id="edge5_Node000001_Node000005" class="edge">
<title>Node1&#45;&gt;Node5</title>
<g id="a_edge5_Node000001_Node000005"><a xlink:title=" ">
<path fill="none" stroke="#63b8ff" d="M292.5,-143.75C292.5,-133.31 292.5,-121.49 292.5,-112.54"/>
<polygon fill="#63b8ff" stroke="#63b8ff" points="289,-143.94 292.5,-153.94 296,-143.94 289,-143.94"/>
</a>
</g>
</g>
<!-- Node6 -->
<g id="Node000006" class="node">
<title>Node6</title>
<g id="a_Node000006"><a xlink:href="ltp8800_2src_2common_2common__data_8h.html" target="_top" xlink:title="Defines common data to be used by ltp8800 examples.">
<polygon fill="white" stroke="#666666" points="516.5,-112.5 372.5,-112.5 372.5,-82.5 516.5,-82.5 516.5,-112.5"/>
<text text-anchor="start" x="380.5" y="-100.5" font-family="Helvetica,sans-Serif" font-size="10.00">projects/ltp8800/src</text>
<text text-anchor="middle" x="444.5" y="-89.5" font-family="Helvetica,sans-Serif" font-size="10.00">/common/common_data.h</text>
</a>
</g>
</g>
<!-- Node1&#45;&gt;Node6 -->
<g id="edge6_Node000001_Node000006" class="edge">
<title>Node1&#45;&gt;Node6</title>
<g id="a_edge6_Node000001_Node000006"><a xlink:title=" ">
<path fill="none" stroke="#63b8ff" d="M332.63,-149.65C358.05,-138.03 390.41,-123.23 413.79,-112.54"/>
<polygon fill="#63b8ff" stroke="#63b8ff" points="330.9,-146.59 323.26,-153.94 333.81,-152.96 330.9,-146.59"/>
</a>
</g>
</g>
<!-- Node8 -->
<g id="Node000008" class="node">
<title>Node8</title>
<g id="a_Node000008"><a xlink:href="ltp8800_2src_2examples_2basic_2basic__example_8c.html" target="_top" xlink:title="Basic example source file for ltp8800 project.">
<polygon fill="white" stroke="#666666" points="660,-118 535,-118 535,-77 660,-77 660,-118"/>
<text text-anchor="start" x="543" y="-106" font-family="Helvetica,sans-Serif" font-size="10.00">projects/ltp8800/src</text>
<text text-anchor="start" x="543" y="-95" font-family="Helvetica,sans-Serif" font-size="10.00">/examples/basic/basic</text>
<text text-anchor="middle" x="597.5" y="-84" font-family="Helvetica,sans-Serif" font-size="10.00">_example.c</text>
</a>
</g>
</g>
<!-- Node1&#45;&gt;Node8 -->
<g id="edge8_Node000001_Node000008" class="edge">
<title>Node1&#45;&gt;Node8</title>
<g id="a_edge8_Node000001_Node000008"><a xlink:title=" ">
<path fill="none" stroke="#63b8ff" d="M363.94,-153.69C410.17,-144.18 471.56,-131.08 525.5,-118 528.52,-117.27 531.61,-116.5 534.72,-115.71"/>
<polygon fill="#63b8ff" stroke="#63b8ff" points="363.12,-150.29 354.02,-155.73 364.52,-157.15 363.12,-150.29"/>
</a>
</g>
</g>
<!-- Node3&#45;&gt;Node2 -->
<g id="edge3_Node000003_Node000002" class="edge">
<title>Node3&#45;&gt;Node2</title>
<g id="a_edge3_Node000003_Node000002"><a xlink:title=" ">
<path fill="none" stroke="#63b8ff" d="M126.51,-75.67C111.16,-62.88 91.91,-46.84 78.35,-35.54"/>
<polygon fill="#63b8ff" stroke="#63b8ff" points="124.65,-78.68 134.57,-82.39 129.13,-73.3 124.65,-78.68"/>
</a>
</g>
</g>
<!-- Node4 -->
<g id="Node000004" class="node">
<title>Node4</title>
<g id="a_Node000004"><a xlink:href="ltp8800_2src_2examples_2iio__example_2iio__example_8c.html" target="_top" xlink:title="IIO example source file for ltp8800 project.">
<polygon fill="white" stroke="#666666" points="272,-41 141,-41 141,0 272,0 272,-41"/>
<text text-anchor="start" x="149" y="-29" font-family="Helvetica,sans-Serif" font-size="10.00">projects/ltp8800/src</text>
<text text-anchor="start" x="149" y="-18" font-family="Helvetica,sans-Serif" font-size="10.00">/examples/iio_example</text>
<text text-anchor="middle" x="206.5" y="-7" font-family="Helvetica,sans-Serif" font-size="10.00">/iio_example.c</text>
</a>
</g>
</g>
<!-- Node3&#45;&gt;Node4 -->
<g id="edge4_Node000003_Node000004" class="edge">
<title>Node3&#45;&gt;Node4</title>
<g id="a_edge4_Node000003_Node000004"><a xlink:title=" ">
<path fill="none" stroke="#63b8ff" d="M167.9,-74.14C175.57,-63.67 184.64,-51.31 192.05,-41.2"/>
<polygon fill="#63b8ff" stroke="#63b8ff" points="164.94,-72.26 161.85,-82.39 170.58,-76.4 164.94,-72.26"/>
</a>
</g>
</g>
<!-- Node7 -->
<g id="Node000007" class="node">
<title>Node7</title>
<g id="a_Node000007"><a xlink:href="ltp8800_2src_2common_2common__data_8c.html" target="_top" xlink:title="Defines common data to be used by ltp8800 examples.">
<polygon fill="white" stroke="#666666" points="516,-35.5 373,-35.5 373,-5.5 516,-5.5 516,-35.5"/>
<text text-anchor="start" x="381" y="-23.5" font-family="Helvetica,sans-Serif" font-size="10.00">projects/ltp8800/src</text>
<text text-anchor="middle" x="444.5" y="-12.5" font-family="Helvetica,sans-Serif" font-size="10.00">/common/common_data.c</text>
</a>
</g>
</g>
<!-- Node6&#45;&gt;Node7 -->
<g id="edge7_Node000006_Node000007" class="edge">
<title>Node6&#45;&gt;Node7</title>
<g id="a_edge7_Node000006_Node000007"><a xlink:title=" ">
<path fill="none" stroke="#63b8ff" d="M444.5,-72.04C444.5,-59.95 444.5,-45.79 444.5,-35.54"/>
<polygon fill="#63b8ff" stroke="#63b8ff" points="441,-72.39 444.5,-82.39 448,-72.39 441,-72.39"/>
</a>
</g>
</g>
</g>
</svg>
