<?xml version="1.0" encoding="UTF-8" standalone="no"?>
<!DOCTYPE svg PUBLIC "-//W3C//DTD SVG 1.1//EN"
 "http://www.w3.org/Graphics/SVG/1.1/DTD/svg11.dtd">
<!-- Generated by graphviz version 2.43.0 (0)
 -->
<!-- Title: ltp8800_write_word Pages: 1 -->
<!--zoomable 148 -->

<svg id="main" version="1.1" xmlns="http://www.w3.org/2000/svg" xmlns:xlink="http://www.w3.org/1999/xlink" xml:space="preserve" onload="init(evt)">

<style type="text/css"><![CDATA[
.node, .edge {opacity: 0.7;}
.node.selected, .edge.selected {opacity: 1;}
.edge:hover path { stroke: red; }
.edge:hover polygon { stroke: red; fill: red; }
]]></style>

<defs>
  <circle id="rim" cx="0" cy="0" r="7"/>
  <circle id="rim2" cx="0" cy="0" r="3.5"/>
  <g id="zoomPlus">
    <use xlink:href="#rim" fill="#404040"><set attributeName="fill" to="#808080" begin="zoomplus.mouseover" end="zoomplus.mouseout"/></use>
    <path d="M-4,0h8M0,-4v8" fill="none" stroke="white" stroke-width="1.5" pointer-events="none"/>
  </g>
  <g id="zoomMin">
    <use xlink:href="#rim" fill="#404040"><set attributeName="fill" to="#808080" begin="zoomminus.mouseover" end="zoomminus.mouseout"/></use>
    <path d="M-4,0h8" fill="none" stroke="white" stroke-width="1.5" pointer-events="none"/>
  </g>
  <g id="arrowUp" transform="translate(30 24)">
    <use xlink:href="#rim"/>
    <path pointer-events="none" fill="none" stroke="white" stroke-width="1.5" d="M0,-3.0v7 M-2.5,-0.5L0,-3.0L2.5,-0.5"/>
  </g>
  <g id="arrowRight" transform="rotate(90) translate(36 -43)">
    <use xlink:href="#rim"/>
    <path pointer-events="none" fill="none" stroke="white" stroke-width="1.5" d="M0,-3.0v7 M-2.5,-0.5L0,-3.0L2.5,-0.5"/>
  </g>
  <g id="arrowDown" transform="rotate(180) translate(-30 -48)">
    <use xlink:href="#rim"/>
    <path pointer-events="none" fill="none" stroke="white" stroke-width="1.5" d="M0,-3.0v7 M-2.5,-0.5L0,-3.0L2.5,-0.5"/>
  </g>
  <g id="arrowLeft" transform="rotate(270) translate(-36 17)">
    <use xlink:href="#rim"/>
    <path pointer-events="none" fill="none" stroke="white" stroke-width="1.5" d="M0,-3.0v7 M-2.5,-0.5L0,-3.0L2.5,-0.5"/>
  </g>
  <g id="resetDef">
    <use xlink:href="#rim2" fill="#404040"><set attributeName="fill" to="#808080" begin="reset.mouseover" end="reset.mouseout"/></use>
  </g>
</defs>
<script type="application/ecmascript">
var viewWidth = 761;
var viewHeight = 148;
var sectionId = 'dynsection-19';
</script>
<script type="application/ecmascript" xlink:href="svg.min.js"/>
<svg id="graph" class="graph">
<g id="viewport">
<title>ltp8800_write_word</title>
<!-- Node1 -->
<g id="Node000001" class="node">
<title>Node1</title>
<g id="a_Node000001"><a xlink:title="Perform a raw PMBus write word operation.">
<polygon fill="#999999" stroke="#666666" points="753,-91 640,-91 640,-72 753,-72 753,-91"/>
<text text-anchor="middle" x="696.5" y="-79" font-family="Helvetica,sans-Serif" font-size="10.00">ltp8800_write_word</text>
</a>
</g>
</g>
<!-- Node2 -->
<g id="Node000002" class="node">
<title>Node2</title>
<g id="a_Node000002"><a xlink:href="ltp8800_8c.html#a613ac6d7323b5995e0e60723902f6cbe" target="_top" xlink:title="Set phase order for polyphase application.">
<polygon fill="white" stroke="#666666" points="588,-139.5 480,-139.5 480,-109.5 588,-109.5 588,-139.5"/>
<text text-anchor="start" x="488" y="-127.5" font-family="Helvetica,sans-Serif" font-size="10.00">ltp8800_interleave</text>
<text text-anchor="middle" x="534" y="-116.5" font-family="Helvetica,sans-Serif" font-size="10.00">_order</text>
</a>
</g>
</g>
<!-- Node1&#45;&gt;Node2 -->
<g id="edge1_Node000001_Node000002" class="edge">
<title>Node1&#45;&gt;Node2</title>
<g id="a_edge1_Node000001_Node000002"><a xlink:title=" ">
<path fill="none" stroke="#63b8ff" d="M650.14,-93.65C630.87,-98.82 608.26,-104.87 588.21,-110.25"/>
<polygon fill="#63b8ff" stroke="#63b8ff" points="651.13,-97.01 659.88,-91.04 649.31,-90.25 651.13,-97.01"/>
</a>
</g>
</g>
<!-- Node7 -->
<g id="Node000007" class="node">
<title>Node7</title>
<g id="a_Node000007"><a xlink:href="ltp8800_8c.html#a0c4e0a76ceb3b8ef7b23e8481479ea77" target="_top" xlink:title="Set output voltage and its upper limit.">
<polygon fill="white" stroke="#666666" points="596.5,-91 471.5,-91 471.5,-72 596.5,-72 596.5,-91"/>
<text text-anchor="middle" x="534" y="-79" font-family="Helvetica,sans-Serif" font-size="10.00">ltp8800_vout_settings</text>
</a>
</g>
</g>
<!-- Node1&#45;&gt;Node7 -->
<g id="edge6_Node000001_Node000007" class="edge">
<title>Node1&#45;&gt;Node7</title>
<g id="a_edge6_Node000001_Node000007"><a xlink:title=" ">
<path fill="none" stroke="#63b8ff" d="M629.52,-81.5C618.64,-81.5 607.39,-81.5 596.62,-81.5"/>
<polygon fill="#63b8ff" stroke="#63b8ff" points="629.82,-85 639.82,-81.5 629.82,-78 629.82,-85"/>
</a>
</g>
</g>
<!-- Node8 -->
<g id="Node000008" class="node">
<title>Node8</title>
<g id="a_Node000008"><a xlink:href="ltp8800_8c.html#a4d90e4db30fcb51e52ec90f40ca84f82" target="_top" xlink:title="Converts value to register data and do PMBus write word operation.">
<polygon fill="white" stroke="#666666" points="604,-54 464,-54 464,-35 604,-35 604,-54"/>
<text text-anchor="middle" x="534" y="-42" font-family="Helvetica,sans-Serif" font-size="10.00">ltp8800_write_word_data</text>
</a>
</g>
</g>
<!-- Node1&#45;&gt;Node8 -->
<g id="edge7_Node000001_Node000008" class="edge">
<title>Node1&#45;&gt;Node8</title>
<g id="a_edge7_Node000001_Node000008"><a xlink:title=" ">
<path fill="none" stroke="#63b8ff" d="M644.36,-69.71C622.45,-64.66 597.19,-58.84 576.47,-54.06"/>
<polygon fill="#63b8ff" stroke="#63b8ff" points="643.64,-73.14 654.17,-71.97 645.21,-66.31 643.64,-73.14"/>
</a>
</g>
</g>
<!-- Node3 -->
<g id="Node000003" class="node">
<title>Node3</title>
<g id="a_Node000003"><a xlink:href="ltp8800_8c.html#a560a898903409b89d4063940b94e4c0e" target="_top" xlink:title="Initialize the device structure.">
<polygon fill="white" stroke="#666666" points="400.5,-133 326.5,-133 326.5,-114 400.5,-114 400.5,-133"/>
<text text-anchor="middle" x="363.5" y="-121" font-family="Helvetica,sans-Serif" font-size="10.00">ltp8800_init</text>
</a>
</g>
</g>
<!-- Node2&#45;&gt;Node3 -->
<g id="edge2_Node000002_Node000003" class="edge">
<title>Node2&#45;&gt;Node3</title>
<g id="a_edge2_Node000002_Node000003"><a xlink:title=" ">
<path fill="none" stroke="#63b8ff" d="M469.53,-124.12C446.27,-123.99 420.76,-123.83 400.7,-123.71"/>
<polygon fill="#63b8ff" stroke="#63b8ff" points="469.66,-127.62 479.69,-124.18 469.71,-120.62 469.66,-127.62"/>
</a>
</g>
</g>
<!-- Node4 -->
<g id="Node000004" class="node">
<title>Node4</title>
<g id="a_Node000004"><a xlink:href="ltp8800_2src_2examples_2basic_2basic__example_8c.html#a72943dc9011d36293cb05ca5d7cb6899" target="_top" xlink:title="basic example main execution.">
<polygon fill="white" stroke="#666666" points="263,-75 143,-75 143,-56 263,-56 263,-75"/>
<text text-anchor="middle" x="203" y="-63" font-family="Helvetica,sans-Serif" font-size="10.00">basic_example_main</text>
</a>
</g>
</g>
<!-- Node3&#45;&gt;Node4 -->
<g id="edge3_Node000003_Node000004" class="edge">
<title>Node3&#45;&gt;Node4</title>
<g id="a_edge3_Node000003_Node000004"><a xlink:title=" ">
<path fill="none" stroke="#63b8ff" d="M323.13,-110.83C315.12,-108.16 306.77,-105.29 299,-102.5 274.52,-93.69 246.83,-82.8 227.69,-75.12"/>
<polygon fill="#63b8ff" stroke="#63b8ff" points="322.08,-114.17 332.67,-113.99 324.27,-107.53 322.08,-114.17"/>
</a>
</g>
</g>
<!-- Node5 -->
<g id="Node000005" class="node">
<title>Node5</title>
<g id="a_Node000005"><a xlink:href="iio__ltp8800_8c.html#a31893ef9f84551a575cc2c0f59c8a74d" target="_top" xlink:title="Initializes the LTP8800 IIO descriptor.">
<polygon fill="white" stroke="#666666" points="249,-133 157,-133 157,-114 249,-114 249,-133"/>
<text text-anchor="middle" x="203" y="-121" font-family="Helvetica,sans-Serif" font-size="10.00">ltp8800_iio_init</text>
</a>
</g>
</g>
<!-- Node3&#45;&gt;Node5 -->
<g id="edge4_Node000003_Node000005" class="edge">
<title>Node3&#45;&gt;Node5</title>
<g id="a_edge4_Node000003_Node000005"><a xlink:title=" ">
<path fill="none" stroke="#63b8ff" d="M316.13,-123.5C295.05,-123.5 270.21,-123.5 249.27,-123.5"/>
<polygon fill="#63b8ff" stroke="#63b8ff" points="316.14,-127 326.14,-123.5 316.14,-120 316.14,-127"/>
</a>
</g>
</g>
<!-- Node6 -->
<g id="Node000006" class="node">
<title>Node6</title>
<g id="a_Node000006"><a xlink:href="ltp8800_2src_2examples_2iio__example_2iio__example_8c.html#a7d58fb707a91d4615d3bf949fabaa1e2" target="_top" xlink:title="IIO example main execution.">
<polygon fill="white" stroke="#666666" points="107,-133 0,-133 0,-114 107,-114 107,-133"/>
<text text-anchor="middle" x="53.5" y="-121" font-family="Helvetica,sans-Serif" font-size="10.00">iio_example_main</text>
</a>
</g>
</g>
<!-- Node5&#45;&gt;Node6 -->
<g id="edge5_Node000005_Node000006" class="edge">
<title>Node5&#45;&gt;Node6</title>
<g id="a_edge5_Node000005_Node000006"><a xlink:title=" ">
<path fill="none" stroke="#63b8ff" d="M146.73,-123.5C133.73,-123.5 119.92,-123.5 107.04,-123.5"/>
<polygon fill="#63b8ff" stroke="#63b8ff" points="146.94,-127 156.94,-123.5 146.94,-120 146.94,-127"/>
</a>
</g>
</g>
<!-- Node9 -->
<g id="Node000009" class="node">
<title>Node9</title>
<g id="a_Node000009"><a xlink:href="ltp8800_8c.html#acf160b5e41252593ae47988845aa8aae" target="_top" xlink:title="Set overvalue and undervalue limits.">
<polygon fill="white" stroke="#666666" points="428,-93 299,-93 299,-74 428,-74 428,-93"/>
<text text-anchor="middle" x="363.5" y="-81" font-family="Helvetica,sans-Serif" font-size="10.00">ltp8800_set_fault_limit</text>
</a>
</g>
</g>
<!-- Node8&#45;&gt;Node9 -->
<g id="edge8_Node000008_Node000009" class="edge">
<title>Node8&#45;&gt;Node9</title>
<g id="a_edge8_Node000008_Node000009"><a xlink:title=" ">
<path fill="none" stroke="#63b8ff" d="M481.95,-56.32C457.5,-61.98 428.6,-68.66 405.59,-73.99"/>
<polygon fill="#63b8ff" stroke="#63b8ff" points="482.83,-59.71 491.78,-54.04 481.25,-52.89 482.83,-59.71"/>
</a>
</g>
</g>
<!-- Node10 -->
<g id="Node000010" class="node">
<title>Node10</title>
<g id="a_Node000010"><a xlink:href="ltp8800_8c.html#ae0e78a7f7c33f18b56412a8ff393f5cc" target="_top" xlink:title="Set input voltage window at which power conversion will proceed.">
<polygon fill="white" stroke="#666666" points="410.5,-56 316.5,-56 316.5,-37 410.5,-37 410.5,-56"/>
<text text-anchor="middle" x="363.5" y="-44" font-family="Helvetica,sans-Serif" font-size="10.00">ltp8800_set_vin</text>
</a>
</g>
</g>
<!-- Node8&#45;&gt;Node10 -->
<g id="edge10_Node000008_Node000010" class="edge">
<title>Node8&#45;&gt;Node10</title>
<g id="a_edge10_Node000008_Node000010"><a xlink:title=" ">
<path fill="none" stroke="#63b8ff" d="M453.78,-45.44C438.96,-45.62 423.94,-45.79 410.55,-45.95"/>
<polygon fill="#63b8ff" stroke="#63b8ff" points="454.02,-48.94 463.98,-45.32 453.94,-41.94 454.02,-48.94"/>
</a>
</g>
</g>
<!-- Node11 -->
<g id="Node000011" class="node">
<title>Node11</title>
<g id="a_Node000011"><a xlink:href="ltp8800_8c.html#ae352a6346715bc18065e55f1eb77ad36" target="_top" xlink:title="Set output voltage command.">
<polygon fill="white" stroke="#666666" points="420,-19 307,-19 307,0 420,0 420,-19"/>
<text text-anchor="middle" x="363.5" y="-7" font-family="Helvetica,sans-Serif" font-size="10.00">ltp8800_vout_value</text>
</a>
</g>
</g>
<!-- Node8&#45;&gt;Node11 -->
<g id="edge12_Node000008_Node000011" class="edge">
<title>Node8&#45;&gt;Node11</title>
<g id="a_edge12_Node000008_Node000011"><a xlink:title=" ">
<path fill="none" stroke="#63b8ff" d="M476.94,-32.86C455.37,-28.37 431.01,-23.31 410.49,-19.05"/>
<polygon fill="#63b8ff" stroke="#63b8ff" points="476.45,-36.33 486.96,-34.94 477.88,-29.48 476.45,-36.33"/>
</a>
</g>
</g>
<!-- Node9&#45;&gt;Node4 -->
<g id="edge9_Node000009_Node000004" class="edge">
<title>Node9&#45;&gt;Node4</title>
<g id="a_edge9_Node000009_Node000004"><a xlink:title=" ">
<path fill="none" stroke="#63b8ff" d="M288.9,-75.14C280.29,-74.16 271.58,-73.18 263.2,-72.22"/>
<polygon fill="#63b8ff" stroke="#63b8ff" points="288.61,-78.63 298.95,-76.28 289.4,-71.68 288.61,-78.63"/>
</a>
</g>
</g>
<!-- Node10&#45;&gt;Node4 -->
<g id="edge11_Node000010_Node000004" class="edge">
<title>Node10&#45;&gt;Node4</title>
<g id="a_edge11_Node000010_Node000004"><a xlink:title=" ">
<path fill="none" stroke="#63b8ff" d="M306.24,-53.24C292.24,-54.92 277.18,-56.73 263.04,-58.42"/>
<polygon fill="#63b8ff" stroke="#63b8ff" points="306.72,-56.71 316.23,-52.05 305.88,-49.76 306.72,-56.71"/>
</a>
</g>
</g>
<!-- Node11&#45;&gt;Node4 -->
<g id="edge13_Node000011_Node000004" class="edge">
<title>Node11&#45;&gt;Node4</title>
<g id="a_edge13_Node000011_Node000004"><a xlink:title=" ">
<path fill="none" stroke="#63b8ff" d="M316.5,-21.92C310.58,-23.7 304.63,-25.58 299,-27.5 273.61,-36.15 245.12,-47.82 226.02,-55.93"/>
<polygon fill="#63b8ff" stroke="#63b8ff" points="317.75,-25.21 326.37,-19.04 315.78,-18.49 317.75,-25.21"/>
</a>
</g>
</g>
</g>
</svg>

<g id="navigator" transform="translate(0 0)" fill="#404254">
  <rect fill="#f2f5e9" fill-opacity="0.5" stroke="#606060" stroke-width=".5" x="0" y="0" width="60" height="60"/>
  <use id="zoomplus" xlink:href="#zoomPlus" x="17" y="9" onmousedown="handleZoom(evt,'in')"/>
  <use id="zoomminus" xlink:href="#zoomMin" x="42" y="9" onmousedown="handleZoom(evt,'out')"/>
  <use id="reset" xlink:href="#resetDef" x="30" y="36" onmousedown="handleReset()"/>
   <use id="arrowup" xlink:href="#arrowUp" x="0" y="0" onmousedown="handlePan(0,-1)"/>
  <use id="arrowright" xlink:href="#arrowRight" x="0" y="0" onmousedown="handlePan(1,0)"/>
  <use id="arrowdown" xlink:href="#arrowDown" x="0" y="0" onmousedown="handlePan(0,1)"/>
  <use id="arrowleft" xlink:href="#arrowLeft" x="0" y="0" onmousedown="handlePan(-1,0)"/>
</g>
<svg viewBox="0 0 15 15" width="100%" height="30px" preserveAspectRatio="xMaxYMin meet">
 <g id="arrow_out" transform="scale(0.3 0.3)">
  <a xlink:href="ltp8800_8c_a84a4646c361e218d30692ab3caccf99c_icgraph_org.svg" target="_base">
   <rect id="button" ry="5" rx="5" y="6" x="6" height="38" width="38"
        fill="#f2f5e9" fill-opacity="0.5" stroke="#606060" stroke-width="1.0"/>
   <path id="arrow"
     d="M 11.500037,31.436501 C 11.940474,20.09759 22.043105,11.32322 32.158766,21.979434 L 37.068811,17.246167 C 37.068811,17.246167 37.088388,32 37.088388,32 L 22.160133,31.978069 C 22.160133,31.978069 26.997745,27.140456 26.997745,27.140456 C 18.528582,18.264221 13.291696,25.230495 11.500037,31.436501 z"
     style="fill:#404040;"/>
  </a>
 </g>
</svg>

<style type='text/css'>
<![CDATA[
[data-mouse-over-selected='false'] { opacity: 0.7; }
[data-mouse-over-selected='true']  { opacity: 1.0; }
]]>
</style>
<script type="application/ecmascript"><![CDATA[
document.addEventListener('DOMContentLoaded', (event) => {
  highlightEdges();
  highlightAdjacentNodes();
});
]]></script>
</svg>
