<?xml version="1.0" encoding="UTF-8" standalone="no"?>
<!DOCTYPE svg PUBLIC "-//W3C//DTD SVG 1.1//EN"
 "http://www.w3.org/Graphics/SVG/1.1/DTD/svg11.dtd">
<!-- Generated by graphviz version 2.43.0 (0)
 -->
<!-- Title: projects/max14916/src/platform/linux/main.c Pages: 1 -->
<svg width="377pt" height="313pt"
 viewBox="0.00 0.00 377.00 313.00" xmlns="http://www.w3.org/2000/svg" xmlns:xlink="http://www.w3.org/1999/xlink">

<svg id="main" version="1.1" xmlns="http://www.w3.org/2000/svg" xmlns:xlink="http://www.w3.org/1999/xlink" xml:space="preserve">

<style type="text/css"><![CDATA[
.node, .edge {opacity: 0.7;}
.node.selected, .edge.selected {opacity: 1;}
.edge:hover path { stroke: red; }
.edge:hover polygon { stroke: red; fill: red; }
]]></style>
<script type="application/ecmascript" xlink:href="svg.min.js"/>
<svg id="graph" class="graph">
<g id="graph0" class="graph" transform="scale(1 1) rotate(0) translate(4 309)">
<title>projects/max14916/src/platform/linux/main.c</title>
<!-- Node1 -->
<g id="Node000001" class="node">
<title>Node1</title>
<g id="a_Node000001"><a xlink:title="Main file for FTD2XX platform of max14916 project.">
<polygon fill="#999999" stroke="#666666" points="218.5,-305 90.5,-305 90.5,-275 218.5,-275 218.5,-305"/>
<text text-anchor="start" x="98.5" y="-293" font-family="Helvetica,sans-Serif" font-size="10.00">projects/max14916/src</text>
<text text-anchor="middle" x="154.5" y="-282" font-family="Helvetica,sans-Serif" font-size="10.00">/platform/linux/main.c</text>
</a>
</g>
</g>
<!-- Node2 -->
<g id="Node000002" class="node">
<title>Node2</title>
<g id="a_Node000002"><a xlink:title=" ">
<polygon fill="#e0e0e0" stroke="#999999" points="95,-239 0,-239 0,-220 95,-220 95,-239"/>
<text text-anchor="middle" x="47.5" y="-227" font-family="Helvetica,sans-Serif" font-size="10.00">common_data.h</text>
</a>
</g>
</g>
<!-- Node1&#45;&gt;Node2 -->
<g id="edge1_Node000001_Node000002" class="edge">
<title>Node1&#45;&gt;Node2</title>
<g id="a_edge1_Node000001_Node000002"><a xlink:title=" ">
<path fill="none" stroke="#63b8ff" d="M128.87,-274.99C111.66,-265.58 89.1,-253.24 72.1,-243.95"/>
<polygon fill="#63b8ff" stroke="#63b8ff" points="73.75,-240.87 63.3,-239.14 70.4,-247.01 73.75,-240.87"/>
</a>
</g>
</g>
<!-- Node3 -->
<g id="Node000003" class="node">
<title>Node3</title>
<g id="a_Node000003"><a xlink:href="no__os__error_8h.html" target="_top" xlink:title="Error codes definition.">
<polygon fill="white" stroke="#666666" points="195.5,-239 113.5,-239 113.5,-220 195.5,-220 195.5,-239"/>
<text text-anchor="middle" x="154.5" y="-227" font-family="Helvetica,sans-Serif" font-size="10.00">no_os_error.h</text>
</a>
</g>
</g>
<!-- Node1&#45;&gt;Node3 -->
<g id="edge2_Node000001_Node000003" class="edge">
<title>Node1&#45;&gt;Node3</title>
<g id="a_edge2_Node000001_Node000003"><a xlink:title=" ">
<path fill="none" stroke="#63b8ff" d="M154.5,-274.84C154.5,-267.21 154.5,-257.7 154.5,-249.45"/>
<polygon fill="#63b8ff" stroke="#63b8ff" points="158,-249.27 154.5,-239.27 151,-249.27 158,-249.27"/>
</a>
</g>
</g>
<!-- Node5 -->
<g id="Node000005" class="node">
<title>Node5</title>
<g id="a_Node000005"><a xlink:href="max14916_2src_2platform_2linux_2parameters_8h.html" target="_top" xlink:title="Definition of FTD2XX platform data used by max14916 project.">
<polygon fill="white" stroke="#666666" points="295.5,-239 213.5,-239 213.5,-220 295.5,-220 295.5,-239"/>
<text text-anchor="middle" x="254.5" y="-227" font-family="Helvetica,sans-Serif" font-size="10.00">parameters.h</text>
</a>
</g>
</g>
<!-- Node1&#45;&gt;Node5 -->
<g id="edge4_Node000001_Node000005" class="edge">
<title>Node1&#45;&gt;Node5</title>
<g id="a_edge4_Node000001_Node000005"><a xlink:title=" ">
<path fill="none" stroke="#63b8ff" d="M178.45,-274.99C194.39,-265.66 215.23,-253.47 231.06,-244.21"/>
<polygon fill="#63b8ff" stroke="#63b8ff" points="232.87,-247.21 239.73,-239.14 229.33,-241.17 232.87,-247.21"/>
</a>
</g>
</g>
<!-- Node4 -->
<g id="Node000004" class="node">
<title>Node4</title>
<g id="a_Node000004"><a xlink:href="errno_8h.html" target="_top" xlink:title="Error macro definition for ARM Compiler.">
<polygon fill="white" stroke="#666666" points="180,-184 129,-184 129,-165 180,-165 180,-184"/>
<text text-anchor="middle" x="154.5" y="-172" font-family="Helvetica,sans-Serif" font-size="10.00">errno.h</text>
</a>
</g>
</g>
<!-- Node3&#45;&gt;Node4 -->
<g id="edge3_Node000003_Node000004" class="edge">
<title>Node3&#45;&gt;Node4</title>
<g id="a_edge3_Node000003_Node000004"><a xlink:title=" ">
<path fill="none" stroke="#63b8ff" d="M154.5,-219.75C154.5,-212.8 154.5,-202.85 154.5,-194.13"/>
<polygon fill="#63b8ff" stroke="#63b8ff" points="158,-194.09 154.5,-184.09 151,-194.09 158,-194.09"/>
</a>
</g>
</g>
<!-- Node6 -->
<g id="Node000006" class="node">
<title>Node6</title>
<g id="a_Node000006"><a xlink:href="linux__spi_8h.html" target="_top" xlink:title=" ">
<polygon fill="white" stroke="#666666" points="369,-184 300,-184 300,-165 369,-165 369,-184"/>
<text text-anchor="middle" x="334.5" y="-172" font-family="Helvetica,sans-Serif" font-size="10.00">linux_spi.h</text>
</a>
</g>
</g>
<!-- Node5&#45;&gt;Node6 -->
<g id="edge5_Node000005_Node000006" class="edge">
<title>Node5&#45;&gt;Node6</title>
<g id="a_edge5_Node000005_Node000006"><a xlink:title=" ">
<path fill="none" stroke="#63b8ff" d="M267.35,-219.98C279.64,-211.84 298.41,-199.41 312.98,-189.76"/>
<polygon fill="#63b8ff" stroke="#63b8ff" points="315.01,-192.61 321.41,-184.17 311.14,-186.78 315.01,-192.61"/>
</a>
</g>
</g>
<!-- Node7 -->
<g id="Node000007" class="node">
<title>Node7</title>
<g id="a_Node000007"><a xlink:href="linux__uart_8h.html" target="_top" xlink:title=" ">
<polygon fill="white" stroke="#666666" points="281.5,-184 207.5,-184 207.5,-165 281.5,-165 281.5,-184"/>
<text text-anchor="middle" x="244.5" y="-172" font-family="Helvetica,sans-Serif" font-size="10.00">linux_uart.h</text>
</a>
</g>
</g>
<!-- Node5&#45;&gt;Node7 -->
<g id="edge6_Node000005_Node000007" class="edge">
<title>Node5&#45;&gt;Node7</title>
<g id="a_edge6_Node000005_Node000007"><a xlink:title=" ">
<path fill="none" stroke="#63b8ff" d="M252.85,-219.75C251.54,-212.8 249.66,-202.85 248.02,-194.13"/>
<polygon fill="#63b8ff" stroke="#63b8ff" points="251.41,-193.27 246.12,-184.09 244.54,-194.56 251.41,-193.27"/>
</a>
</g>
</g>
<!-- Node8 -->
<g id="Node000008" class="node">
<title>Node8</title>
<g id="a_Node000008"><a xlink:href="no__os__uart_8h.html" target="_top" xlink:title="Header file of UART interface.">
<polygon fill="white" stroke="#666666" points="284,-129 205,-129 205,-110 284,-110 284,-129"/>
<text text-anchor="middle" x="244.5" y="-117" font-family="Helvetica,sans-Serif" font-size="10.00">no_os_uart.h</text>
</a>
</g>
</g>
<!-- Node7&#45;&gt;Node8 -->
<g id="edge7_Node000007_Node000008" class="edge">
<title>Node7&#45;&gt;Node8</title>
<g id="a_edge7_Node000007_Node000008"><a xlink:title=" ">
<path fill="none" stroke="#63b8ff" d="M244.5,-164.75C244.5,-157.8 244.5,-147.85 244.5,-139.13"/>
<polygon fill="#63b8ff" stroke="#63b8ff" points="248,-139.09 244.5,-129.09 241,-139.09 248,-139.09"/>
</a>
</g>
</g>
<!-- Node9 -->
<g id="Node000009" class="node">
<title>Node9</title>
<g id="a_Node000009"><a xlink:title=" ">
<polygon fill="#e0e0e0" stroke="#999999" points="197,-19 144,-19 144,0 197,0 197,-19"/>
<text text-anchor="middle" x="170.5" y="-7" font-family="Helvetica,sans-Serif" font-size="10.00">stdint.h</text>
</a>
</g>
</g>
<!-- Node8&#45;&gt;Node9 -->
<g id="edge8_Node000008_Node000009" class="edge">
<title>Node8&#45;&gt;Node9</title>
<g id="a_edge8_Node000008_Node000009"><a xlink:title=" ">
<path fill="none" stroke="#63b8ff" d="M227.4,-109.91C213.98,-102.29 195.88,-89.9 185.5,-74 176.7,-60.51 173.04,-42.42 171.54,-29"/>
<polygon fill="#63b8ff" stroke="#63b8ff" points="175.03,-28.7 170.71,-19.02 168.05,-29.28 175.03,-28.7"/>
</a>
</g>
</g>
<!-- Node10 -->
<g id="Node000010" class="node">
<title>Node10</title>
<g id="a_Node000010"><a xlink:title=" ">
<polygon fill="#e0e0e0" stroke="#999999" points="352.5,-19 290.5,-19 290.5,0 352.5,0 352.5,-19"/>
<text text-anchor="middle" x="321.5" y="-7" font-family="Helvetica,sans-Serif" font-size="10.00">stdbool.h</text>
</a>
</g>
</g>
<!-- Node8&#45;&gt;Node10 -->
<g id="edge9_Node000008_Node000010" class="edge">
<title>Node8&#45;&gt;Node10</title>
<g id="a_edge9_Node000008_Node000010"><a xlink:title=" ">
<path fill="none" stroke="#63b8ff" d="M261.14,-109.94C274.48,-102.26 292.7,-89.77 303.5,-74 312.71,-60.56 317.24,-42.46 319.45,-29.02"/>
<polygon fill="#63b8ff" stroke="#63b8ff" points="322.93,-29.42 320.81,-19.04 315.99,-28.47 322.93,-29.42"/>
</a>
</g>
</g>
<!-- Node11 -->
<g id="Node000011" class="node">
<title>Node11</title>
<g id="a_Node000011"><a xlink:href="no__os__lf256fifo_8h.html" target="_top" xlink:title="SPSC lock&#45;free fifo of fixed size (256), specialized for UART.">
<polygon fill="white" stroke="#666666" points="294.5,-74 194.5,-74 194.5,-55 294.5,-55 294.5,-74"/>
<text text-anchor="middle" x="244.5" y="-62" font-family="Helvetica,sans-Serif" font-size="10.00">no_os_lf256fifo.h</text>
</a>
</g>
</g>
<!-- Node8&#45;&gt;Node11 -->
<g id="edge10_Node000008_Node000011" class="edge">
<title>Node8&#45;&gt;Node11</title>
<g id="a_edge10_Node000008_Node000011"><a xlink:title=" ">
<path fill="none" stroke="#63b8ff" d="M244.5,-109.75C244.5,-102.8 244.5,-92.85 244.5,-84.13"/>
<polygon fill="#63b8ff" stroke="#63b8ff" points="248,-84.09 244.5,-74.09 241,-84.09 248,-84.09"/>
</a>
</g>
</g>
<!-- Node11&#45;&gt;Node9 -->
<g id="edge12_Node000011_Node000009" class="edge">
<title>Node11&#45;&gt;Node9</title>
<g id="a_edge12_Node000011_Node000009"><a xlink:title=" ">
<path fill="none" stroke="#63b8ff" d="M232.61,-54.98C221.35,-46.92 204.21,-34.65 190.79,-25.03"/>
<polygon fill="#63b8ff" stroke="#63b8ff" points="192.77,-22.15 182.61,-19.17 188.7,-27.84 192.77,-22.15"/>
</a>
</g>
</g>
<!-- Node11&#45;&gt;Node10 -->
<g id="edge13_Node000011_Node000010" class="edge">
<title>Node11&#45;&gt;Node10</title>
<g id="a_edge13_Node000011_Node000010"><a xlink:title=" ">
<path fill="none" stroke="#63b8ff" d="M256.87,-54.98C268.59,-46.92 286.42,-34.65 300.39,-25.03"/>
<polygon fill="#63b8ff" stroke="#63b8ff" points="302.65,-27.72 308.9,-19.17 298.68,-21.96 302.65,-27.72"/>
</a>
</g>
</g>
<!-- Node12 -->
<g id="Node000012" class="node">
<title>Node12</title>
<g id="a_Node000012"><a xlink:title=" ">
<polygon fill="#e0e0e0" stroke="#999999" points="271,-19 218,-19 218,0 271,0 271,-19"/>
<text text-anchor="middle" x="244.5" y="-7" font-family="Helvetica,sans-Serif" font-size="10.00">stdlib.h</text>
</a>
</g>
</g>
<!-- Node11&#45;&gt;Node12 -->
<g id="edge11_Node000011_Node000012" class="edge">
<title>Node11&#45;&gt;Node12</title>
<g id="a_edge11_Node000011_Node000012"><a xlink:title=" ">
<path fill="none" stroke="#63b8ff" d="M244.5,-54.75C244.5,-47.8 244.5,-37.85 244.5,-29.13"/>
<polygon fill="#63b8ff" stroke="#63b8ff" points="248,-29.09 244.5,-19.09 241,-29.09 248,-29.09"/>
</a>
</g>
</g>
</g>
</svg>
</svg>

<style type='text/css'>
<![CDATA[
[data-mouse-over-selected='false'] { opacity: 0.7; }
[data-mouse-over-selected='true']  { opacity: 1.0; }
]]>
</style>
<script type="application/ecmascript"><![CDATA[
document.addEventListener('DOMContentLoaded', (event) => {
  highlightEdges();
  highlightAdjacentNodes();
});
]]></script>
</svg>
