<?xml version="1.0" encoding="UTF-8" standalone="no"?>
<!DOCTYPE svg PUBLIC "-//W3C//DTD SVG 1.1//EN"
 "http://www.w3.org/Graphics/SVG/1.1/DTD/svg11.dtd">
<!-- Generated by graphviz version 2.43.0 (0)
 -->
<!-- Title: max17851_reg_write Pages: 1 -->
<!--zoomable 375 -->

<svg id="main" version="1.1" xmlns="http://www.w3.org/2000/svg" xmlns:xlink="http://www.w3.org/1999/xlink" xml:space="preserve" onload="init(evt)">

<style type="text/css"><![CDATA[
.node, .edge {opacity: 0.7;}
.node.selected, .edge.selected {opacity: 1;}
.edge:hover path { stroke: red; }
.edge:hover polygon { stroke: red; fill: red; }
]]></style>

<defs>
  <circle id="rim" cx="0" cy="0" r="7"/>
  <circle id="rim2" cx="0" cy="0" r="3.5"/>
  <g id="zoomPlus">
    <use xlink:href="#rim" fill="#404040"><set attributeName="fill" to="#808080" begin="zoomplus.mouseover" end="zoomplus.mouseout"/></use>
    <path d="M-4,0h8M0,-4v8" fill="none" stroke="white" stroke-width="1.5" pointer-events="none"/>
  </g>
  <g id="zoomMin">
    <use xlink:href="#rim" fill="#404040"><set attributeName="fill" to="#808080" begin="zoomminus.mouseover" end="zoomminus.mouseout"/></use>
    <path d="M-4,0h8" fill="none" stroke="white" stroke-width="1.5" pointer-events="none"/>
  </g>
  <g id="arrowUp" transform="translate(30 24)">
    <use xlink:href="#rim"/>
    <path pointer-events="none" fill="none" stroke="white" stroke-width="1.5" d="M0,-3.0v7 M-2.5,-0.5L0,-3.0L2.5,-0.5"/>
  </g>
  <g id="arrowRight" transform="rotate(90) translate(36 -43)">
    <use xlink:href="#rim"/>
    <path pointer-events="none" fill="none" stroke="white" stroke-width="1.5" d="M0,-3.0v7 M-2.5,-0.5L0,-3.0L2.5,-0.5"/>
  </g>
  <g id="arrowDown" transform="rotate(180) translate(-30 -48)">
    <use xlink:href="#rim"/>
    <path pointer-events="none" fill="none" stroke="white" stroke-width="1.5" d="M0,-3.0v7 M-2.5,-0.5L0,-3.0L2.5,-0.5"/>
  </g>
  <g id="arrowLeft" transform="rotate(270) translate(-36 17)">
    <use xlink:href="#rim"/>
    <path pointer-events="none" fill="none" stroke="white" stroke-width="1.5" d="M0,-3.0v7 M-2.5,-0.5L0,-3.0L2.5,-0.5"/>
  </g>
  <g id="resetDef">
    <use xlink:href="#rim2" fill="#404040"><set attributeName="fill" to="#808080" begin="reset.mouseover" end="reset.mouseout"/></use>
  </g>
</defs>
<script type="application/ecmascript">
var viewWidth = 680;
var viewHeight = 375;
var sectionId = 'dynsection-5';
</script>
<script type="application/ecmascript" xlink:href="svg.min.js"/>
<svg id="graph" class="graph">
<g id="viewport">
<title>max17851_reg_write</title>
<!-- Node1 -->
<g id="Node000001" class="node">
<title>Node1</title>
<g id="a_Node000001"><a xlink:title="MAX17851 register write function.">
<polygon fill="#999999" stroke="#666666" points="672,-75 553,-75 553,-56 672,-56 672,-75"/>
<text text-anchor="middle" x="612.5" y="-63" font-family="Helvetica,sans-Serif" font-size="10.00">max17851_reg_write</text>
</a>
</g>
</g>
<!-- Node2 -->
<g id="Node000002" class="node">
<title>Node2</title>
<g id="a_Node000002"><a xlink:href="max17851_8c.html#a66a3ec73171c8be3fcdeb686807a4d6f" target="_top" xlink:title="MAX17851 device initialization function.">
<polygon fill="white" stroke="#666666" points="107,-132 18,-132 18,-113 107,-113 107,-132"/>
<text text-anchor="middle" x="62.5" y="-120" font-family="Helvetica,sans-Serif" font-size="10.00">max17851_init</text>
</a>
</g>
</g>
<!-- Node1&#45;&gt;Node2 -->
<g id="edge1_Node000001_Node000002" class="edge">
<title>Node1&#45;&gt;Node2</title>
<g id="a_edge1_Node000001_Node000002"><a xlink:title=" ">
<path fill="none" stroke="#63b8ff" d="M542.82,-72.64C428.5,-84.53 202.39,-108.05 107.28,-117.95"/>
<polygon fill="#63b8ff" stroke="#63b8ff" points="543.27,-76.12 552.85,-71.6 542.55,-69.15 543.27,-76.12"/>
</a>
</g>
</g>
<!-- Node3 -->
<g id="Node000003" class="node">
<title>Node3</title>
<g id="a_Node000003"><a xlink:href="max17851_8c.html#a27afa58e6396e8b57caf989baff47825" target="_top" xlink:title="MAX17851 register update function.">
<polygon fill="white" stroke="#666666" points="502.5,-234 374.5,-234 374.5,-215 502.5,-215 502.5,-234"/>
<text text-anchor="middle" x="438.5" y="-222" font-family="Helvetica,sans-Serif" font-size="10.00">max17851_reg_update</text>
</a>
</g>
</g>
<!-- Node1&#45;&gt;Node3 -->
<g id="edge2_Node000001_Node000003" class="edge">
<title>Node1&#45;&gt;Node3</title>
<g id="a_edge2_Node000001_Node000003"><a xlink:title=" ">
<path fill="none" stroke="#63b8ff" d="M593.22,-82.4C557.22,-115.67 478.19,-188.73 449.86,-214.92"/>
<polygon fill="#63b8ff" stroke="#63b8ff" points="596.03,-84.57 601,-75.21 591.28,-79.42 596.03,-84.57"/>
</a>
</g>
</g>
<!-- Node11 -->
<g id="Node000011" class="node">
<title>Node11</title>
<g id="a_Node000011"><a xlink:href="max17851_8c.html#af80bbb0535fff50d503a14a7e975bf3e" target="_top" xlink:title="Set communication retry count and timeout delay.">
<polygon fill="white" stroke="#666666" points="501,-56 376,-56 376,-37 501,-37 501,-56"/>
<text text-anchor="middle" x="438.5" y="-44" font-family="Helvetica,sans-Serif" font-size="10.00">max17851_set_comm</text>
</a>
</g>
</g>
<!-- Node1&#45;&gt;Node11 -->
<g id="edge14_Node000001_Node000011" class="edge">
<title>Node1&#45;&gt;Node11</title>
<g id="a_edge14_Node000001_Node000011"><a xlink:title=" ">
<path fill="none" stroke="#63b8ff" d="M542.48,-57.88C528.82,-56.37 514.57,-54.79 501.17,-53.31"/>
<polygon fill="#63b8ff" stroke="#63b8ff" points="542.46,-61.4 552.79,-59.01 543.23,-54.44 542.46,-61.4"/>
</a>
</g>
</g>
<!-- Node12 -->
<g id="Node000012" class="node">
<title>Node12</title>
<g id="a_Node000012"><a xlink:href="max17851_8c.html#a133eabd58fda33d7e008f86cf1c1bbb2" target="_top" xlink:title="Select Safe Monitoring Mode Scan Delay.">
<polygon fill="white" stroke="#666666" points="517,-19 360,-19 360,0 517,0 517,-19"/>
<text text-anchor="middle" x="438.5" y="-7" font-family="Helvetica,sans-Serif" font-size="10.00">max17851_set_safemon_dly</text>
</a>
</g>
</g>
<!-- Node1&#45;&gt;Node12 -->
<g id="edge16_Node000001_Node000012" class="edge">
<title>Node1&#45;&gt;Node12</title>
<g id="a_edge16_Node000001_Node000012"><a xlink:title=" ">
<path fill="none" stroke="#63b8ff" d="M581.16,-51.91C562.84,-44.05 538.87,-34.39 517,-27.5 506.99,-24.34 496.09,-21.48 485.71,-19"/>
<polygon fill="#63b8ff" stroke="#63b8ff" points="579.88,-55.17 590.45,-55.94 582.67,-48.75 579.88,-55.17"/>
</a>
</g>
</g>
<!-- Node3&#45;&gt;Node2 -->
<g id="edge6_Node000003_Node000002" class="edge">
<title>Node3&#45;&gt;Node2</title>
<g id="a_edge6_Node000003_Node000002"><a xlink:title=" ">
<path fill="none" stroke="#63b8ff" d="M420.96,-207.9C400.29,-188.35 362.89,-156.75 324,-142.5 251.6,-115.98 160.48,-115.86 107.43,-118.78"/>
<polygon fill="#63b8ff" stroke="#63b8ff" points="418.65,-210.54 428.27,-214.98 423.52,-205.51 418.65,-210.54"/>
</a>
</g>
</g>
<!-- Node4 -->
<g id="Node000004" class="node">
<title>Node4</title>
<g id="a_Node000004"><a xlink:href="max17851_8c.html#ab2819fe18407dcc6b6d80efe28b0d708" target="_top" xlink:title="Configure general settings for MAX17851.">
<polygon fill="white" stroke="#666666" points="308.5,-293 176.5,-293 176.5,-274 308.5,-274 308.5,-293"/>
<text text-anchor="middle" x="242.5" y="-281" font-family="Helvetica,sans-Serif" font-size="10.00">max17851_config_gen2</text>
</a>
</g>
</g>
<!-- Node3&#45;&gt;Node4 -->
<g id="edge3_Node000003_Node000004" class="edge">
<title>Node3&#45;&gt;Node4</title>
<g id="a_edge3_Node000003_Node000004"><a xlink:title=" ">
<path fill="none" stroke="#63b8ff" d="M404.47,-237.69C382.02,-246.34 351.51,-257.49 324,-265.5 313.41,-268.58 301.91,-271.44 291,-273.93"/>
<polygon fill="#63b8ff" stroke="#63b8ff" points="405.83,-240.91 413.88,-234.03 403.29,-234.39 405.83,-240.91"/>
</a>
</g>
</g>
<!-- Node6 -->
<g id="Node000006" class="node">
<title>Node6</title>
<g id="a_Node000006"><a xlink:href="max17851_8c.html#a747d53ad47c9e1a833cd8c06ee034755" target="_top" xlink:title="Set timing for Alert Packets/Keep&#45;Alive Packets.">
<polygon fill="white" stroke="#666666" points="321.5,-256 163.5,-256 163.5,-237 321.5,-237 321.5,-256"/>
<text text-anchor="middle" x="242.5" y="-244" font-family="Helvetica,sans-Serif" font-size="10.00">max17851_sel_alrtpckt_time</text>
</a>
</g>
</g>
<!-- Node3&#45;&gt;Node6 -->
<g id="edge7_Node000003_Node000006" class="edge">
<title>Node3&#45;&gt;Node6</title>
<g id="a_edge7_Node000003_Node000006"><a xlink:title=" ">
<path fill="none" stroke="#63b8ff" d="M364.24,-232.81C350.3,-234.39 335.67,-236.05 321.59,-237.64"/>
<polygon fill="#63b8ff" stroke="#63b8ff" points="364.7,-236.28 374.25,-231.67 363.91,-229.32 364.7,-236.28"/>
</a>
</g>
</g>
<!-- Node7 -->
<g id="Node000007" class="node">
<title>Node7</title>
<g id="a_Node000007"><a xlink:href="max17851_8c.html#a766cf6d2fba7f456b491fda2f4a0de3c" target="_top" xlink:title="Select queue for transmitting/loading TX buffer for UART.">
<polygon fill="white" stroke="#666666" points="311.5,-367 173.5,-367 173.5,-348 311.5,-348 311.5,-367"/>
<text text-anchor="middle" x="242.5" y="-355" font-family="Helvetica,sans-Serif" font-size="10.00">max17851_select_queue</text>
</a>
</g>
</g>
<!-- Node3&#45;&gt;Node7 -->
<g id="edge9_Node000003_Node000007" class="edge">
<title>Node3&#45;&gt;Node7</title>
<g id="a_edge9_Node000003_Node000007"><a xlink:title=" ">
<path fill="none" stroke="#63b8ff" d="M425.08,-242.46C406.3,-268.16 368.14,-315.04 324,-339.5 317.86,-342.9 311.12,-345.66 304.24,-347.9"/>
<polygon fill="#63b8ff" stroke="#63b8ff" points="428.14,-244.2 431.1,-234.03 422.44,-240.13 428.14,-244.2"/>
</a>
</g>
</g>
<!-- Node8 -->
<g id="Node000008" class="node">
<title>Node8</title>
<g id="a_Node000008"><a xlink:href="max17851_8c.html#ab4f00c981af9b07707bfa0c352f538de" target="_top" xlink:title="Enable/Disable specific alert.">
<polygon fill="white" stroke="#666666" points="300.5,-330 184.5,-330 184.5,-311 300.5,-311 300.5,-330"/>
<text text-anchor="middle" x="242.5" y="-318" font-family="Helvetica,sans-Serif" font-size="10.00">max17851_set_alert</text>
</a>
</g>
</g>
<!-- Node3&#45;&gt;Node8 -->
<g id="edge10_Node000003_Node000008" class="edge">
<title>Node3&#45;&gt;Node8</title>
<g id="a_edge10_Node000003_Node000008"><a xlink:title=" ">
<path fill="none" stroke="#63b8ff" d="M419.1,-240.49C397.68,-258.26 360.57,-286.56 324,-302.5 316.25,-305.88 307.8,-308.65 299.38,-310.93"/>
<polygon fill="#63b8ff" stroke="#63b8ff" points="421.38,-243.15 426.76,-234.02 416.86,-237.8 421.38,-243.15"/>
</a>
</g>
</g>
<!-- Node9 -->
<g id="Node000009" class="node">
<title>Node9</title>
<g id="a_Node000009"><a xlink:href="max17851_8c.html#aee729ee5a1f5d21baf9d56b14ab0a5fc" target="_top" xlink:title="Select the number of unmasked consecutive Alert Packet status alerts, which must happen prior to taki...">
<polygon fill="white" stroke="#666666" points="300.5,-218.5 184.5,-218.5 184.5,-188.5 300.5,-188.5 300.5,-218.5"/>
<text text-anchor="start" x="192.5" y="-206.5" font-family="Helvetica,sans-Serif" font-size="10.00">max17851_set_alert</text>
<text text-anchor="middle" x="242.5" y="-195.5" font-family="Helvetica,sans-Serif" font-size="10.00">_debounce</text>
</a>
</g>
</g>
<!-- Node3&#45;&gt;Node9 -->
<g id="edge11_Node000003_Node000009" class="edge">
<title>Node3&#45;&gt;Node9</title>
<g id="a_edge11_Node000003_Node000009"><a xlink:title=" ">
<path fill="none" stroke="#63b8ff" d="M364.1,-216.55C343.14,-214.29 320.61,-211.85 300.77,-209.7"/>
<polygon fill="#63b8ff" stroke="#63b8ff" points="363.93,-220.06 374.25,-217.65 364.68,-213.1 363.93,-220.06"/>
</a>
</g>
</g>
<!-- Node10 -->
<g id="Node000010" class="node">
<title>Node10</title>
<g id="a_Node000010"><a xlink:href="max17851_8c.html#a19992131052ac04b693280f6dcd78666" target="_top" xlink:title="Select which GPIO pins to be configured as SAFEMON output.">
<polygon fill="white" stroke="#666666" points="324,-170 161,-170 161,-151 324,-151 324,-170"/>
<text text-anchor="middle" x="242.5" y="-158" font-family="Helvetica,sans-Serif" font-size="10.00">max17851_set_safemon_gpio</text>
</a>
</g>
</g>
<!-- Node3&#45;&gt;Node10 -->
<g id="edge13_Node000003_Node000010" class="edge">
<title>Node3&#45;&gt;Node10</title>
<g id="a_edge13_Node000003_Node000010"><a xlink:title=" ">
<path fill="none" stroke="#63b8ff" d="M406.68,-210.87C384.1,-201.23 352.54,-188.47 324,-179.5 312.77,-175.97 300.47,-172.75 288.95,-170.01"/>
<polygon fill="#63b8ff" stroke="#63b8ff" points="405.51,-214.17 416.08,-214.92 408.28,-207.75 405.51,-214.17"/>
</a>
</g>
</g>
<!-- Node4&#45;&gt;Node2 -->
<g id="edge4_Node000004_Node000002" class="edge">
<title>Node4&#45;&gt;Node2</title>
<g id="a_edge4_Node000004_Node000002"><a xlink:title=" ">
<path fill="none" stroke="#63b8ff" d="M168.07,-269.72C165.62,-268.43 163.26,-267.03 161,-265.5 109.53,-230.58 77.55,-158.63 67.19,-132.37"/>
<polygon fill="#63b8ff" stroke="#63b8ff" points="166.67,-272.93 177.22,-273.87 169.56,-266.55 166.67,-272.93"/>
</a>
</g>
</g>
<!-- Node5 -->
<g id="Node000005" class="node">
<title>Node5</title>
<g id="a_Node000005"><a xlink:href="max17851_8c.html#a224e1263a89dc84e1736d4acdc4ddefc" target="_top" xlink:title="Write message over UART using MAX17851.">
<polygon fill="white" stroke="#666666" points="125,-293 0,-293 0,-274 125,-274 125,-293"/>
<text text-anchor="middle" x="62.5" y="-281" font-family="Helvetica,sans-Serif" font-size="10.00">max17851_write_msg</text>
</a>
</g>
</g>
<!-- Node4&#45;&gt;Node5 -->
<g id="edge5_Node000004_Node000005" class="edge">
<title>Node4&#45;&gt;Node5</title>
<g id="a_edge5_Node000004_Node000005"><a xlink:title=" ">
<path fill="none" stroke="#63b8ff" d="M166.12,-283.5C152.44,-283.5 138.31,-283.5 125.08,-283.5"/>
<polygon fill="#63b8ff" stroke="#63b8ff" points="166.48,-287 176.48,-283.5 166.48,-280 166.48,-287"/>
</a>
</g>
</g>
<!-- Node6&#45;&gt;Node2 -->
<g id="edge8_Node000006_Node000002" class="edge">
<title>Node6&#45;&gt;Node2</title>
<g id="a_edge8_Node000006_Node000002"><a xlink:title=" ">
<path fill="none" stroke="#63b8ff" d="M173.26,-233.49C169,-231.74 164.87,-229.76 161,-227.5 118.22,-202.6 83.03,-152.96 69.49,-132.09"/>
<polygon fill="#63b8ff" stroke="#63b8ff" points="172.16,-236.82 182.75,-236.97 174.56,-230.24 172.16,-236.82"/>
</a>
</g>
</g>
<!-- Node9&#45;&gt;Node2 -->
<g id="edge12_Node000009_Node000002" class="edge">
<title>Node9&#45;&gt;Node2</title>
<g id="a_edge12_Node000009_Node000002"><a xlink:title=" ">
<path fill="none" stroke="#63b8ff" d="M174.82,-184.99C170.1,-183.26 165.45,-181.43 161,-179.5 129.7,-165.92 95.91,-144.47 77.47,-132.12"/>
<polygon fill="#63b8ff" stroke="#63b8ff" points="173.99,-188.41 184.59,-188.4 176.3,-181.8 173.99,-188.41"/>
</a>
</g>
</g>
<!-- Node11&#45;&gt;Node2 -->
<g id="edge15_Node000011_Node000002" class="edge">
<title>Node11&#45;&gt;Node2</title>
<g id="a_edge15_Node000011_Node000002"><a xlink:title=" ">
<path fill="none" stroke="#63b8ff" d="M365.48,-44.91C308.8,-45.51 228.41,-50.51 161,-70.5 129,-79.99 95.46,-100.6 77.25,-112.83"/>
<polygon fill="#63b8ff" stroke="#63b8ff" points="365.8,-48.41 375.78,-44.84 365.76,-41.41 365.8,-48.41"/>
</a>
</g>
</g>
<!-- Node12&#45;&gt;Node2 -->
<g id="edge17_Node000012_Node000002" class="edge">
<title>Node12&#45;&gt;Node2</title>
<g id="a_edge17_Node000012_Node000002"><a xlink:title=" ">
<path fill="none" stroke="#63b8ff" d="M349.72,-7.02C293.67,-8.44 220.6,-16 161,-41.5 122.15,-58.12 86.73,-95.37 71.45,-112.96"/>
<polygon fill="#63b8ff" stroke="#63b8ff" points="350.05,-10.51 359.98,-6.82 349.91,-3.51 350.05,-10.51"/>
</a>
</g>
</g>
</g>
</svg>

<g id="navigator" transform="translate(0 0)" fill="#404254">
  <rect fill="#f2f5e9" fill-opacity="0.5" stroke="#606060" stroke-width=".5" x="0" y="0" width="60" height="60"/>
  <use id="zoomplus" xlink:href="#zoomPlus" x="17" y="9" onmousedown="handleZoom(evt,'in')"/>
  <use id="zoomminus" xlink:href="#zoomMin" x="42" y="9" onmousedown="handleZoom(evt,'out')"/>
  <use id="reset" xlink:href="#resetDef" x="30" y="36" onmousedown="handleReset()"/>
   <use id="arrowup" xlink:href="#arrowUp" x="0" y="0" onmousedown="handlePan(0,-1)"/>
  <use id="arrowright" xlink:href="#arrowRight" x="0" y="0" onmousedown="handlePan(1,0)"/>
  <use id="arrowdown" xlink:href="#arrowDown" x="0" y="0" onmousedown="handlePan(0,1)"/>
  <use id="arrowleft" xlink:href="#arrowLeft" x="0" y="0" onmousedown="handlePan(-1,0)"/>
</g>
<svg viewBox="0 0 15 15" width="100%" height="30px" preserveAspectRatio="xMaxYMin meet">
 <g id="arrow_out" transform="scale(0.3 0.3)">
  <a xlink:href="max17851_8c_a53d1b969a319e669530424126a1dc0c2_icgraph_org.svg" target="_base">
   <rect id="button" ry="5" rx="5" y="6" x="6" height="38" width="38"
        fill="#f2f5e9" fill-opacity="0.5" stroke="#606060" stroke-width="1.0"/>
   <path id="arrow"
     d="M 11.500037,31.436501 C 11.940474,20.09759 22.043105,11.32322 32.158766,21.979434 L 37.068811,17.246167 C 37.068811,17.246167 37.088388,32 37.088388,32 L 22.160133,31.978069 C 22.160133,31.978069 26.997745,27.140456 26.997745,27.140456 C 18.528582,18.264221 13.291696,25.230495 11.500037,31.436501 z"
     style="fill:#404040;"/>
  </a>
 </g>
</svg>

<style type='text/css'>
<![CDATA[
[data-mouse-over-selected='false'] { opacity: 0.7; }
[data-mouse-over-selected='true']  { opacity: 1.0; }
]]>
</style>
<script type="application/ecmascript"><![CDATA[
document.addEventListener('DOMContentLoaded', (event) => {
  highlightEdges();
  highlightAdjacentNodes();
});
]]></script>
</svg>
