<?xml version="1.0" encoding="UTF-8" standalone="no"?>
<!DOCTYPE svg PUBLIC "-//W3C//DTD SVG 1.1//EN"
 "http://www.w3.org/Graphics/SVG/1.1/DTD/svg11.dtd">
<!-- Generated by graphviz version 2.43.0 (0)
 -->
<!-- Title: max17851_reg_read Pages: 1 -->
<svg width="648pt" height="339pt"
 viewBox="0.00 0.00 648.00 339.00" xmlns="http://www.w3.org/2000/svg" xmlns:xlink="http://www.w3.org/1999/xlink">
<g id="graph0" class="graph" transform="scale(1 1) rotate(0) translate(4 335)">
<title>max17851_reg_read</title>
<!-- Node1 -->
<g id="Node000001" class="node">
<title>Node1</title>
<g id="a_Node000001"><a xlink:title="MAX17851 register read function.">
<polygon fill="#999999" stroke="#666666" points="640,-274 524,-274 524,-255 640,-255 640,-274"/>
<text text-anchor="middle" x="582" y="-262" font-family="Helvetica,sans-Serif" font-size="10.00">max17851_reg_read</text>
</a>
</g>
</g>
<!-- Node2 -->
<g id="Node000002" class="node">
<title>Node2</title>
<g id="a_Node000002"><a xlink:href="max17851_8c.html#ad639ef7787204337074aaa7c50f6d8d5" target="_top" xlink:title="Read specific alert state.">
<polygon fill="white" stroke="#666666" points="482.5,-331 365.5,-331 365.5,-312 482.5,-312 482.5,-331"/>
<text text-anchor="middle" x="424" y="-319" font-family="Helvetica,sans-Serif" font-size="10.00">max17851_get_alert</text>
</a>
</g>
</g>
<!-- Node1&#45;&gt;Node2 -->
<g id="edge1_Node000001_Node000002" class="edge">
<title>Node1&#45;&gt;Node2</title>
<g id="a_edge1_Node000001_Node000002"><a xlink:title=" ">
<path fill="none" stroke="#63b8ff" d="M545.24,-277.57C516.57,-288.04 476.99,-302.51 451.2,-311.93"/>
<polygon fill="#63b8ff" stroke="#63b8ff" points="546.7,-280.76 554.89,-274.04 544.3,-274.19 546.7,-280.76"/>
</a>
</g>
</g>
<!-- Node3 -->
<g id="Node000003" class="node">
<title>Node3</title>
<g id="a_Node000003"><a xlink:href="max17851_8c.html#a66a3ec73171c8be3fcdeb686807a4d6f" target="_top" xlink:title="MAX17851 device initialization function.">
<polygon fill="white" stroke="#666666" points="107,-179 18,-179 18,-160 107,-160 107,-179"/>
<text text-anchor="middle" x="62.5" y="-167" font-family="Helvetica,sans-Serif" font-size="10.00">max17851_init</text>
</a>
</g>
</g>
<!-- Node1&#45;&gt;Node3 -->
<g id="edge2_Node000001_Node000003" class="edge">
<title>Node1&#45;&gt;Node3</title>
<g id="a_edge2_Node000001_Node000003"><a xlink:title=" ">
<path fill="none" stroke="#63b8ff" d="M531.58,-276.08C450.65,-292.55 286.34,-315.47 161,-264.5 117.65,-246.87 83.03,-199.68 69.57,-179.21"/>
<polygon fill="#63b8ff" stroke="#63b8ff" points="532.42,-279.47 541.49,-274 530.99,-272.62 532.42,-279.47"/>
</a>
</g>
</g>
<!-- Node4 -->
<g id="Node000004" class="node">
<title>Node4</title>
<g id="a_Node000004"><a xlink:href="max17851_8c.html#a6b15d6812360d0e61a9b26ef1c2dcc79" target="_top" xlink:title="Read message over UART from the MAX17851.">
<polygon fill="white" stroke="#666666" points="485,-255 363,-255 363,-236 485,-236 485,-255"/>
<text text-anchor="middle" x="424" y="-243" font-family="Helvetica,sans-Serif" font-size="10.00">max17851_read_msg</text>
</a>
</g>
</g>
<!-- Node1&#45;&gt;Node4 -->
<g id="edge3_Node000001_Node000004" class="edge">
<title>Node1&#45;&gt;Node4</title>
<g id="a_edge3_Node000001_Node000004"><a xlink:title=" ">
<path fill="none" stroke="#63b8ff" d="M513.61,-256.29C504.12,-255.14 494.42,-253.95 485.08,-252.82"/>
<polygon fill="#63b8ff" stroke="#63b8ff" points="513.45,-259.8 523.8,-257.53 514.29,-252.85 513.45,-259.8"/>
</a>
</g>
</g>
<!-- Node5 -->
<g id="Node000005" class="node">
<title>Node5</title>
<g id="a_Node000005"><a xlink:href="max17851_8c.html#a27afa58e6396e8b57caf989baff47825" target="_top" xlink:title="MAX17851 register update function.">
<polygon fill="white" stroke="#666666" points="488,-158 360,-158 360,-139 488,-139 488,-158"/>
<text text-anchor="middle" x="424" y="-146" font-family="Helvetica,sans-Serif" font-size="10.00">max17851_reg_update</text>
</a>
</g>
</g>
<!-- Node1&#45;&gt;Node5 -->
<g id="edge4_Node000001_Node000005" class="edge">
<title>Node1&#45;&gt;Node5</title>
<g id="a_edge4_Node000001_Node000005"><a xlink:title=" ">
<path fill="none" stroke="#63b8ff" d="M559.92,-248.83C527.11,-224.43 464.78,-178.08 437.89,-158.08"/>
<polygon fill="#63b8ff" stroke="#63b8ff" points="557.85,-251.65 567.97,-254.81 562.03,-246.03 557.85,-251.65"/>
</a>
</g>
</g>
<!-- Node5&#45;&gt;Node3 -->
<g id="edge8_Node000005_Node000003" class="edge">
<title>Node5&#45;&gt;Node3</title>
<g id="a_edge8_Node000005_Node000003"><a xlink:title=" ">
<path fill="none" stroke="#63b8ff" d="M396.26,-162.59C376.81,-172 349.53,-183.54 324,-188.5 247.22,-203.43 155.63,-189.61 104.06,-179.01"/>
<polygon fill="#63b8ff" stroke="#63b8ff" points="398,-165.63 405.39,-158.04 394.88,-159.36 398,-165.63"/>
</a>
</g>
</g>
<!-- Node6 -->
<g id="Node000006" class="node">
<title>Node6</title>
<g id="a_Node000006"><a xlink:href="max17851_8c.html#ab2819fe18407dcc6b6d80efe28b0d708" target="_top" xlink:title="Configure general settings for MAX17851.">
<polygon fill="white" stroke="#666666" points="308.5,-19 176.5,-19 176.5,0 308.5,0 308.5,-19"/>
<text text-anchor="middle" x="242.5" y="-7" font-family="Helvetica,sans-Serif" font-size="10.00">max17851_config_gen2</text>
</a>
</g>
</g>
<!-- Node5&#45;&gt;Node6 -->
<g id="edge5_Node000005_Node000006" class="edge">
<title>Node5&#45;&gt;Node6</title>
<g id="a_edge5_Node000005_Node000006"><a xlink:title=" ">
<path fill="none" stroke="#63b8ff" d="M413.2,-129.98C397.92,-102.98 365.77,-53.26 324,-27.5 318.51,-24.12 312.47,-21.37 306.23,-19.13"/>
<polygon fill="#63b8ff" stroke="#63b8ff" points="410.17,-131.73 418.06,-138.81 416.31,-128.36 410.17,-131.73"/>
</a>
</g>
</g>
<!-- Node8 -->
<g id="Node000008" class="node">
<title>Node8</title>
<g id="a_Node000008"><a xlink:href="max17851_8c.html#a747d53ad47c9e1a833cd8c06ee034755" target="_top" xlink:title="Set timing for Alert Packets/Keep&#45;Alive Packets.">
<polygon fill="white" stroke="#666666" points="321.5,-179 163.5,-179 163.5,-160 321.5,-160 321.5,-179"/>
<text text-anchor="middle" x="242.5" y="-167" font-family="Helvetica,sans-Serif" font-size="10.00">max17851_sel_alrtpckt_time</text>
</a>
</g>
</g>
<!-- Node5&#45;&gt;Node8 -->
<g id="edge9_Node000005_Node000008" class="edge">
<title>Node5&#45;&gt;Node8</title>
<g id="a_edge9_Node000005_Node000008"><a xlink:title=" ">
<path fill="none" stroke="#63b8ff" d="M349.93,-157.05C340.57,-158.14 330.95,-159.27 321.51,-160.37"/>
<polygon fill="#63b8ff" stroke="#63b8ff" points="350.44,-160.51 359.97,-155.87 349.63,-153.56 350.44,-160.51"/>
</a>
</g>
</g>
<!-- Node9 -->
<g id="Node000009" class="node">
<title>Node9</title>
<g id="a_Node000009"><a xlink:href="max17851_8c.html#a766cf6d2fba7f456b491fda2f4a0de3c" target="_top" xlink:title="Select queue for transmitting/loading TX buffer for UART.">
<polygon fill="white" stroke="#666666" points="311.5,-93 173.5,-93 173.5,-74 311.5,-74 311.5,-93"/>
<text text-anchor="middle" x="242.5" y="-81" font-family="Helvetica,sans-Serif" font-size="10.00">max17851_select_queue</text>
</a>
</g>
</g>
<!-- Node5&#45;&gt;Node9 -->
<g id="edge11_Node000005_Node000009" class="edge">
<title>Node5&#45;&gt;Node9</title>
<g id="a_edge11_Node000005_Node000009"><a xlink:title=" ">
<path fill="none" stroke="#63b8ff" d="M396.28,-134.27C376.7,-124.3 349.24,-111.24 324,-102.5 313.55,-98.88 302.11,-95.72 291.21,-93.07"/>
<polygon fill="#63b8ff" stroke="#63b8ff" points="394.72,-137.41 405.21,-138.89 397.93,-131.19 394.72,-137.41"/>
</a>
</g>
</g>
<!-- Node10 -->
<g id="Node000010" class="node">
<title>Node10</title>
<g id="a_Node000010"><a xlink:href="max17851_8c.html#ab4f00c981af9b07707bfa0c352f538de" target="_top" xlink:title="Enable/Disable specific alert.">
<polygon fill="white" stroke="#666666" points="300.5,-56 184.5,-56 184.5,-37 300.5,-37 300.5,-56"/>
<text text-anchor="middle" x="242.5" y="-44" font-family="Helvetica,sans-Serif" font-size="10.00">max17851_set_alert</text>
</a>
</g>
</g>
<!-- Node5&#45;&gt;Node10 -->
<g id="edge12_Node000005_Node000010" class="edge">
<title>Node5&#45;&gt;Node10</title>
<g id="a_edge12_Node000005_Node000010"><a xlink:title=" ">
<path fill="none" stroke="#63b8ff" d="M407.97,-131.53C389.94,-112.28 357.9,-81.37 324,-64.5 316.69,-60.86 308.65,-57.95 300.56,-55.63"/>
<polygon fill="#63b8ff" stroke="#63b8ff" points="405.46,-133.98 414.8,-138.99 410.63,-129.25 405.46,-133.98"/>
</a>
</g>
</g>
<!-- Node11 -->
<g id="Node000011" class="node">
<title>Node11</title>
<g id="a_Node000011"><a xlink:href="max17851_8c.html#aee729ee5a1f5d21baf9d56b14ab0a5fc" target="_top" xlink:title="Select the number of unmasked consecutive Alert Packet status alerts, which must happen prior to taki...">
<polygon fill="white" stroke="#666666" points="300.5,-141.5 184.5,-141.5 184.5,-111.5 300.5,-111.5 300.5,-141.5"/>
<text text-anchor="start" x="192.5" y="-129.5" font-family="Helvetica,sans-Serif" font-size="10.00">max17851_set_alert</text>
<text text-anchor="middle" x="242.5" y="-118.5" font-family="Helvetica,sans-Serif" font-size="10.00">_debounce</text>
</a>
</g>
</g>
<!-- Node5&#45;&gt;Node11 -->
<g id="edge13_Node000005_Node000011" class="edge">
<title>Node5&#45;&gt;Node11</title>
<g id="a_edge13_Node000005_Node000011"><a xlink:title=" ">
<path fill="none" stroke="#63b8ff" d="M349.88,-139.54C333.48,-137.53 316.32,-135.43 300.68,-133.51"/>
<polygon fill="#63b8ff" stroke="#63b8ff" points="349.62,-143.03 359.97,-140.77 350.47,-136.08 349.62,-143.03"/>
</a>
</g>
</g>
<!-- Node12 -->
<g id="Node000012" class="node">
<title>Node12</title>
<g id="a_Node000012"><a xlink:href="max17851_8c.html#a19992131052ac04b693280f6dcd78666" target="_top" xlink:title="Select which GPIO pins to be configured as SAFEMON output.">
<polygon fill="white" stroke="#666666" points="324,-255 161,-255 161,-236 324,-236 324,-255"/>
<text text-anchor="middle" x="242.5" y="-243" font-family="Helvetica,sans-Serif" font-size="10.00">max17851_set_safemon_gpio</text>
</a>
</g>
</g>
<!-- Node5&#45;&gt;Node12 -->
<g id="edge15_Node000005_Node000012" class="edge">
<title>Node5&#45;&gt;Node12</title>
<g id="a_edge15_Node000005_Node000012"><a xlink:title=" ">
<path fill="none" stroke="#63b8ff" d="M404.98,-164.81C386.05,-181.19 354.8,-206.14 324,-221.5 311.99,-227.49 298.22,-232.27 285.5,-235.94"/>
<polygon fill="#63b8ff" stroke="#63b8ff" points="407.34,-167.4 412.54,-158.16 402.72,-162.14 407.34,-167.4"/>
</a>
</g>
</g>
<!-- Node6&#45;&gt;Node3 -->
<g id="edge6_Node000006_Node000003" class="edge">
<title>Node6&#45;&gt;Node3</title>
<g id="a_edge6_Node000006_Node000003"><a xlink:title=" ">
<path fill="none" stroke="#63b8ff" d="M168.07,-23.29C165.62,-24.57 163.26,-25.97 161,-27.5 109.72,-62.17 77.62,-133.62 67.21,-159.7"/>
<polygon fill="#63b8ff" stroke="#63b8ff" points="169.57,-26.46 177.23,-19.14 166.68,-20.08 169.57,-26.46"/>
</a>
</g>
</g>
<!-- Node7 -->
<g id="Node000007" class="node">
<title>Node7</title>
<g id="a_Node000007"><a xlink:href="max17851_8c.html#a224e1263a89dc84e1736d4acdc4ddefc" target="_top" xlink:title="Write message over UART using MAX17851.">
<polygon fill="white" stroke="#666666" points="125,-19 0,-19 0,0 125,0 125,-19"/>
<text text-anchor="middle" x="62.5" y="-7" font-family="Helvetica,sans-Serif" font-size="10.00">max17851_write_msg</text>
</a>
</g>
</g>
<!-- Node6&#45;&gt;Node7 -->
<g id="edge7_Node000006_Node000007" class="edge">
<title>Node6&#45;&gt;Node7</title>
<g id="a_edge7_Node000006_Node000007"><a xlink:title=" ">
<path fill="none" stroke="#63b8ff" d="M166.12,-9.5C152.44,-9.5 138.31,-9.5 125.08,-9.5"/>
<polygon fill="#63b8ff" stroke="#63b8ff" points="166.48,-13 176.48,-9.5 166.48,-6 166.48,-13"/>
</a>
</g>
</g>
<!-- Node8&#45;&gt;Node3 -->
<g id="edge10_Node000008_Node000003" class="edge">
<title>Node8&#45;&gt;Node3</title>
<g id="a_edge10_Node000008_Node000003"><a xlink:title=" ">
<path fill="none" stroke="#63b8ff" d="M153.01,-169.5C137.12,-169.5 121.2,-169.5 107.29,-169.5"/>
<polygon fill="#63b8ff" stroke="#63b8ff" points="153.43,-173 163.43,-169.5 153.43,-166 153.43,-173"/>
</a>
</g>
</g>
<!-- Node11&#45;&gt;Node3 -->
<g id="edge14_Node000011_Node000003" class="edge">
<title>Node11&#45;&gt;Node3</title>
<g id="a_edge14_Node000011_Node000003"><a xlink:title=" ">
<path fill="none" stroke="#63b8ff" d="M174.39,-142.71C150.31,-148.53 123.94,-154.9 102.96,-159.97"/>
<polygon fill="#63b8ff" stroke="#63b8ff" points="175.3,-146.09 184.2,-140.34 173.66,-139.29 175.3,-146.09"/>
</a>
</g>
</g>
</g>
</svg>
