<?xml version="1.0" encoding="UTF-8" standalone="no"?>
<!DOCTYPE svg PUBLIC "-//W3C//DTD SVG 1.1//EN"
 "http://www.w3.org/Graphics/SVG/1.1/DTD/svg11.dtd">
<!-- Generated by graphviz version 2.43.0 (0)
 -->
<!-- Title: max14906_remove Pages: 1 -->
<svg width="503pt" height="101pt"
 viewBox="0.00 0.00 503.00 101.00" xmlns="http://www.w3.org/2000/svg" xmlns:xlink="http://www.w3.org/1999/xlink">
<g id="graph0" class="graph" transform="scale(1 1) rotate(0) translate(4 97)">
<title>max14906_remove</title>
<!-- Node1 -->
<g id="Node000001" class="node">
<title>Node1</title>
<g id="a_Node000001"><a xlink:title="Free the resources allocated during init and place all the channels in high&#45;z.">
<polygon fill="#999999" stroke="#666666" points="495,-56 384,-56 384,-37 495,-37 495,-56"/>
<text text-anchor="middle" x="439.5" y="-44" font-family="Helvetica,sans-Serif" font-size="10.00">max14906_remove</text>
</a>
</g>
</g>
<!-- Node2 -->
<g id="Node000002" class="node">
<title>Node2</title>
<g id="a_Node000002"><a xlink:href="max14906_2src_2examples_2basic_2basic__example_8c.html#a72943dc9011d36293cb05ca5d7cb6899" target="_top" xlink:title="basic example main execution.">
<polygon fill="white" stroke="#666666" points="344,-93 224,-93 224,-74 344,-74 344,-93"/>
<text text-anchor="middle" x="284" y="-81" font-family="Helvetica,sans-Serif" font-size="10.00">basic_example_main</text>
</a>
</g>
</g>
<!-- Node1&#45;&gt;Node2 -->
<g id="edge1_Node000001_Node000002" class="edge">
<title>Node1&#45;&gt;Node2</title>
<g id="a_edge1_Node000001_Node000002"><a xlink:title=" ">
<path fill="none" stroke="#63b8ff" d="M389.03,-58.43C368.2,-63.44 344.3,-69.21 324.66,-73.94"/>
<polygon fill="#63b8ff" stroke="#63b8ff" points="390.07,-61.77 398.97,-56.03 388.43,-54.97 390.07,-61.77"/>
</a>
</g>
</g>
<!-- Node3 -->
<g id="Node000003" class="node">
<title>Node3</title>
<g id="a_Node000003"><a xlink:href="iio__max14906_8c.html#a9c2313da78bf3d7e5c3a69ff4a274bce" target="_top" xlink:title="Initializes the MAX14906 IIO descriptor.">
<polygon fill="white" stroke="#666666" points="337.5,-19 230.5,-19 230.5,0 337.5,0 337.5,-19"/>
<text text-anchor="middle" x="284" y="-7" font-family="Helvetica,sans-Serif" font-size="10.00">max14906_iio_init</text>
</a>
</g>
</g>
<!-- Node1&#45;&gt;Node3 -->
<g id="edge2_Node000001_Node000003" class="edge">
<title>Node1&#45;&gt;Node3</title>
<g id="a_edge2_Node000001_Node000003"><a xlink:title=" ">
<path fill="none" stroke="#63b8ff" d="M389.03,-34.57C368.2,-29.56 344.3,-23.79 324.66,-19.06"/>
<polygon fill="#63b8ff" stroke="#63b8ff" points="388.43,-38.03 398.97,-36.97 390.07,-31.23 388.43,-38.03"/>
</a>
</g>
</g>
<!-- Node7 -->
<g id="Node000007" class="node">
<title>Node7</title>
<g id="a_Node000007"><a xlink:href="iio__max14906_8c.html#afcfbbd7dad3b9c0a3c70d7746e0b5ef8" target="_top" xlink:title="Free resources allocated by the init function.">
<polygon fill="white" stroke="#666666" points="348,-56 220,-56 220,-37 348,-37 348,-56"/>
<text text-anchor="middle" x="284" y="-44" font-family="Helvetica,sans-Serif" font-size="10.00">max14906_iio_remove</text>
</a>
</g>
</g>
<!-- Node1&#45;&gt;Node7 -->
<g id="edge6_Node000001_Node000007" class="edge">
<title>Node1&#45;&gt;Node7</title>
<g id="a_edge6_Node000001_Node000007"><a xlink:title=" ">
<path fill="none" stroke="#63b8ff" d="M373.7,-46.5C365.2,-46.5 356.49,-46.5 348.02,-46.5"/>
<polygon fill="#63b8ff" stroke="#63b8ff" points="373.95,-50 383.95,-46.5 373.95,-43 373.95,-50"/>
</a>
</g>
</g>
<!-- Node4 -->
<g id="Node000004" class="node">
<title>Node4</title>
<g id="a_Node000004"><a xlink:href="max14906_2src_2examples_2iio__example_2iio__example_8c.html#a7d58fb707a91d4615d3bf949fabaa1e2" target="_top" xlink:title="IIO example main execution.">
<polygon fill="white" stroke="#666666" points="184,-56 77,-56 77,-37 184,-37 184,-56"/>
<text text-anchor="middle" x="130.5" y="-44" font-family="Helvetica,sans-Serif" font-size="10.00">iio_example_main</text>
</a>
</g>
</g>
<!-- Node3&#45;&gt;Node4 -->
<g id="edge3_Node000003_Node000004" class="edge">
<title>Node3&#45;&gt;Node4</title>
<g id="a_edge3_Node000003_Node000004"><a xlink:title=" ">
<path fill="none" stroke="#63b8ff" d="M234.17,-21.43C213.62,-26.44 190.03,-32.21 170.65,-36.94"/>
<polygon fill="#63b8ff" stroke="#63b8ff" points="235.1,-24.8 243.98,-19.03 233.44,-18 235.1,-24.8"/>
</a>
</g>
</g>
<!-- Node5 -->
<g id="Node000005" class="node">
<title>Node5</title>
<g id="a_Node000005"><a xlink:href="swiot__fw_8c.html#a427f9beea005fab8fccd9774acb53fc3" target="_top" xlink:title="IIO example main execution.">
<polygon fill="white" stroke="#666666" points="176.5,-19 84.5,-19 84.5,0 176.5,0 176.5,-19"/>
<text text-anchor="middle" x="130.5" y="-7" font-family="Helvetica,sans-Serif" font-size="10.00">swiot_firmware</text>
</a>
</g>
</g>
<!-- Node3&#45;&gt;Node5 -->
<g id="edge4_Node000003_Node000005" class="edge">
<title>Node3&#45;&gt;Node5</title>
<g id="a_edge4_Node000003_Node000005"><a xlink:title=" ">
<path fill="none" stroke="#63b8ff" d="M220.05,-9.5C205.58,-9.5 190.46,-9.5 176.91,-9.5"/>
<polygon fill="#63b8ff" stroke="#63b8ff" points="220.44,-13 230.44,-9.5 220.44,-6 220.44,-13"/>
</a>
</g>
</g>
<!-- Node6 -->
<g id="Node000006" class="node">
<title>Node6</title>
<g id="a_Node000006"><a xlink:href="swiot1l_2src_2platform_2maxim_2main_8c.html#ae66f6b31b5ad750f1fe042a706a4e3d4" target="_top" xlink:title="Main function.">
<polygon fill="white" stroke="#666666" points="41,-19 0,-19 0,0 41,0 41,-19"/>
<text text-anchor="middle" x="20.5" y="-7" font-family="Helvetica,sans-Serif" font-size="10.00">main</text>
</a>
</g>
</g>
<!-- Node5&#45;&gt;Node6 -->
<g id="edge5_Node000005_Node000006" class="edge">
<title>Node5&#45;&gt;Node6</title>
<g id="a_edge5_Node000005_Node000006"><a xlink:title=" ">
<path fill="none" stroke="#63b8ff" d="M74.02,-9.5C62.26,-9.5 50.59,-9.5 41.25,-9.5"/>
<polygon fill="#63b8ff" stroke="#63b8ff" points="74.32,-13 84.32,-9.5 74.32,-6 74.32,-13"/>
</a>
</g>
</g>
<!-- Node7&#45;&gt;Node4 -->
<g id="edge7_Node000007_Node000004" class="edge">
<title>Node7&#45;&gt;Node4</title>
<g id="a_edge7_Node000007_Node000004"><a xlink:title=" ">
<path fill="none" stroke="#63b8ff" d="M209.57,-46.5C200.96,-46.5 192.31,-46.5 184.07,-46.5"/>
<polygon fill="#63b8ff" stroke="#63b8ff" points="209.63,-50 219.63,-46.5 209.63,-43 209.63,-50"/>
</a>
</g>
</g>
<!-- Node7&#45;&gt;Node5 -->
<g id="edge8_Node000007_Node000005" class="edge">
<title>Node7&#45;&gt;Node5</title>
<g id="a_edge8_Node000007_Node000005"><a xlink:title=" ">
<path fill="none" stroke="#63b8ff" d="M234.17,-34.57C213.62,-29.56 190.03,-23.79 170.65,-19.06"/>
<polygon fill="#63b8ff" stroke="#63b8ff" points="233.44,-38 243.98,-36.97 235.1,-31.2 233.44,-38"/>
</a>
</g>
</g>
</g>
</svg>
