<?xml version="1.0" encoding="UTF-8" standalone="no"?>
<!DOCTYPE svg PUBLIC "-//W3C//DTD SVG 1.1//EN"
 "http://www.w3.org/Graphics/SVG/1.1/DTD/svg11.dtd">
<!-- Generated by graphviz version 2.43.0 (0)
 -->
<!-- Title: projects/max17616/src/platform/maxim/main.c Pages: 1 -->
<svg width="595pt" height="148pt"
 viewBox="0.00 0.00 595.00 148.00" xmlns="http://www.w3.org/2000/svg" xmlns:xlink="http://www.w3.org/1999/xlink">
<g id="graph0" class="graph" transform="scale(1 1) rotate(0) translate(4 144)">
<title>projects/max17616/src/platform/maxim/main.c</title>
<!-- Node1 -->
<g id="Node000001" class="node">
<title>Node1</title>
<g id="a_Node000001"><a xlink:title="Main file for Maxim platform of max17616 project.">
<polygon fill="#999999" stroke="#666666" points="492.5,-140 357.5,-140 357.5,-110 492.5,-110 492.5,-140"/>
<text text-anchor="start" x="365.5" y="-128" font-family="Helvetica,sans-Serif" font-size="10.00">projects/max17616/src</text>
<text text-anchor="middle" x="425" y="-117" font-family="Helvetica,sans-Serif" font-size="10.00">/platform/maxim/main.c</text>
</a>
</g>
</g>
<!-- Node2 -->
<g id="Node000002" class="node">
<title>Node2</title>
<g id="a_Node000002"><a xlink:href="max17616_2src_2platform_2maxim_2parameters_8h.html" target="_top" xlink:title="Definitions of Maxim platform data used by the max17616 project.">
<polygon fill="white" stroke="#666666" points="331,-74 249,-74 249,-55 331,-55 331,-74"/>
<text text-anchor="middle" x="290" y="-62" font-family="Helvetica,sans-Serif" font-size="10.00">parameters.h</text>
</a>
</g>
</g>
<!-- Node1&#45;&gt;Node2 -->
<g id="edge1_Node000001_Node000002" class="edge">
<title>Node1&#45;&gt;Node2</title>
<g id="a_edge1_Node000001_Node000002"><a xlink:title=" ">
<path fill="none" stroke="#63b8ff" d="M392.66,-109.99C370.34,-100.31 340.9,-87.56 319.27,-78.18"/>
<polygon fill="#63b8ff" stroke="#63b8ff" points="320.5,-74.9 309.94,-74.14 317.72,-81.33 320.5,-74.9"/>
</a>
</g>
</g>
<!-- Node8 -->
<g id="Node000008" class="node">
<title>Node8</title>
<g id="a_Node000008"><a xlink:title=" ">
<polygon fill="#e0e0e0" stroke="#999999" points="472.5,-74 377.5,-74 377.5,-55 472.5,-55 472.5,-74"/>
<text text-anchor="middle" x="425" y="-62" font-family="Helvetica,sans-Serif" font-size="10.00">common_data.h</text>
</a>
</g>
</g>
<!-- Node1&#45;&gt;Node8 -->
<g id="edge7_Node000001_Node000008" class="edge">
<title>Node1&#45;&gt;Node8</title>
<g id="a_edge7_Node000001_Node000008"><a xlink:title=" ">
<path fill="none" stroke="#63b8ff" d="M425,-109.84C425,-102.21 425,-92.7 425,-84.45"/>
<polygon fill="#63b8ff" stroke="#63b8ff" points="428.5,-84.27 425,-74.27 421.5,-84.27 428.5,-84.27"/>
</a>
</g>
</g>
<!-- Node9 -->
<g id="Node000009" class="node">
<title>Node9</title>
<g id="a_Node000009"><a xlink:href="no__os__error_8h.html" target="_top" xlink:title="Error codes definition.">
<polygon fill="white" stroke="#666666" points="587,-74 505,-74 505,-55 587,-55 587,-74"/>
<text text-anchor="middle" x="546" y="-62" font-family="Helvetica,sans-Serif" font-size="10.00">no_os_error.h</text>
</a>
</g>
</g>
<!-- Node1&#45;&gt;Node9 -->
<g id="edge8_Node000001_Node000009" class="edge">
<title>Node1&#45;&gt;Node9</title>
<g id="a_edge8_Node000001_Node000009"><a xlink:title=" ">
<path fill="none" stroke="#63b8ff" d="M453.98,-109.99C473.72,-100.45 499.67,-87.9 518.97,-78.57"/>
<polygon fill="#63b8ff" stroke="#63b8ff" points="520.65,-81.64 528.13,-74.14 517.6,-75.34 520.65,-81.64"/>
</a>
</g>
</g>
<!-- Node3 -->
<g id="Node000003" class="node">
<title>Node3</title>
<g id="a_Node000003"><a xlink:title=" ">
<polygon fill="#e0e0e0" stroke="#999999" points="78,-19 0,-19 0,0 78,0 78,-19"/>
<text text-anchor="middle" x="39" y="-7" font-family="Helvetica,sans-Serif" font-size="10.00">maxim_irq.h</text>
</a>
</g>
</g>
<!-- Node2&#45;&gt;Node3 -->
<g id="edge2_Node000002_Node000003" class="edge">
<title>Node2&#45;&gt;Node3</title>
<g id="a_edge2_Node000002_Node000003"><a xlink:title=" ">
<path fill="none" stroke="#63b8ff" d="M249.67,-54.98C205.78,-45.72 135.56,-30.89 88.39,-20.93"/>
<polygon fill="#63b8ff" stroke="#63b8ff" points="88.91,-17.46 78.4,-18.82 87.46,-24.31 88.91,-17.46"/>
</a>
</g>
</g>
<!-- Node4 -->
<g id="Node000004" class="node">
<title>Node4</title>
<g id="a_Node000004"><a xlink:title=" ">
<polygon fill="#e0e0e0" stroke="#999999" points="182,-19 96,-19 96,0 182,0 182,-19"/>
<text text-anchor="middle" x="139" y="-7" font-family="Helvetica,sans-Serif" font-size="10.00">maxim_gpio.h</text>
</a>
</g>
</g>
<!-- Node2&#45;&gt;Node4 -->
<g id="edge3_Node000002_Node000004" class="edge">
<title>Node2&#45;&gt;Node4</title>
<g id="a_edge3_Node000002_Node000004"><a xlink:title=" ">
<path fill="none" stroke="#63b8ff" d="M265.74,-54.98C240.68,-46.19 201.37,-32.39 173.17,-22.49"/>
<polygon fill="#63b8ff" stroke="#63b8ff" points="174.3,-19.18 163.7,-19.17 171.98,-25.78 174.3,-19.18"/>
</a>
</g>
</g>
<!-- Node5 -->
<g id="Node000005" class="node">
<title>Node5</title>
<g id="a_Node000005"><a xlink:title=" ">
<polygon fill="#e0e0e0" stroke="#999999" points="280,-19 200,-19 200,0 280,0 280,-19"/>
<text text-anchor="middle" x="240" y="-7" font-family="Helvetica,sans-Serif" font-size="10.00">maxim_i2c.h</text>
</a>
</g>
</g>
<!-- Node2&#45;&gt;Node5 -->
<g id="edge4_Node000002_Node000005" class="edge">
<title>Node2&#45;&gt;Node5</title>
<g id="a_edge4_Node000002_Node000005"><a xlink:title=" ">
<path fill="none" stroke="#63b8ff" d="M281.74,-54.75C274.54,-47.11 263.89,-35.82 255.15,-26.56"/>
<polygon fill="#63b8ff" stroke="#63b8ff" points="257.51,-23.96 248.1,-19.09 252.42,-28.76 257.51,-23.96"/>
</a>
</g>
</g>
<!-- Node6 -->
<g id="Node000006" class="node">
<title>Node6</title>
<g id="a_Node000006"><a xlink:title=" ">
<polygon fill="#e0e0e0" stroke="#999999" points="383.5,-19 298.5,-19 298.5,0 383.5,0 383.5,-19"/>
<text text-anchor="middle" x="341" y="-7" font-family="Helvetica,sans-Serif" font-size="10.00">maxim_uart.h</text>
</a>
</g>
</g>
<!-- Node2&#45;&gt;Node6 -->
<g id="edge5_Node000002_Node000006" class="edge">
<title>Node2&#45;&gt;Node6</title>
<g id="a_edge5_Node000002_Node000006"><a xlink:title=" ">
<path fill="none" stroke="#63b8ff" d="M298.42,-54.75C305.77,-47.11 316.63,-35.82 325.54,-26.56"/>
<polygon fill="#63b8ff" stroke="#63b8ff" points="328.32,-28.72 332.74,-19.09 323.28,-23.87 328.32,-28.72"/>
</a>
</g>
</g>
<!-- Node7 -->
<g id="Node000007" class="node">
<title>Node7</title>
<g id="a_Node000007"><a xlink:title=" ">
<polygon fill="#e0e0e0" stroke="#999999" points="516,-19 402,-19 402,0 516,0 516,-19"/>
<text text-anchor="middle" x="459" y="-7" font-family="Helvetica,sans-Serif" font-size="10.00">maxim_uart_stdio.h</text>
</a>
</g>
</g>
<!-- Node2&#45;&gt;Node7 -->
<g id="edge6_Node000002_Node000007" class="edge">
<title>Node2&#45;&gt;Node7</title>
<g id="a_edge6_Node000002_Node000007"><a xlink:title=" ">
<path fill="none" stroke="#63b8ff" d="M317.15,-54.98C345.53,-46.09 390.23,-32.07 421.86,-22.15"/>
<polygon fill="#63b8ff" stroke="#63b8ff" points="423.14,-25.41 431.63,-19.08 421.05,-18.73 423.14,-25.41"/>
</a>
</g>
</g>
<!-- Node10 -->
<g id="Node000010" class="node">
<title>Node10</title>
<g id="a_Node000010"><a xlink:href="errno_8h.html" target="_top" xlink:title="Error macro definition for ARM Compiler.">
<polygon fill="white" stroke="#666666" points="585.5,-19 534.5,-19 534.5,0 585.5,0 585.5,-19"/>
<text text-anchor="middle" x="560" y="-7" font-family="Helvetica,sans-Serif" font-size="10.00">errno.h</text>
</a>
</g>
</g>
<!-- Node9&#45;&gt;Node10 -->
<g id="edge9_Node000009_Node000010" class="edge">
<title>Node9&#45;&gt;Node10</title>
<g id="a_edge9_Node000009_Node000010"><a xlink:title=" ">
<path fill="none" stroke="#63b8ff" d="M548.31,-54.75C550.17,-47.72 552.84,-37.62 555.15,-28.84"/>
<polygon fill="#63b8ff" stroke="#63b8ff" points="558.56,-29.65 557.73,-19.09 551.79,-27.86 558.56,-29.65"/>
</a>
</g>
</g>
</g>
</svg>
