<?xml version="1.0" encoding="UTF-8" standalone="no"?>
<!DOCTYPE svg PUBLIC "-//W3C//DTD SVG 1.1//EN"
 "http://www.w3.org/Graphics/SVG/1.1/DTD/svg11.dtd">
<!-- Generated by graphviz version 2.43.0 (0)
 -->
<!-- Title: projects/max14914/src/common/common_data.h Pages: 1 -->
<svg width="292pt" height="203pt"
 viewBox="0.00 0.00 292.00 203.00" xmlns="http://www.w3.org/2000/svg" xmlns:xlink="http://www.w3.org/1999/xlink">
<g id="graph0" class="graph" transform="scale(1 1) rotate(0) translate(4 199)">
<title>projects/max14914/src/common/common_data.h</title>
<!-- Node1 -->
<g id="Node000001" class="node">
<title>Node1</title>
<g id="a_Node000001"><a xlink:title="Defines common data to be used by max14914 example.">
<polygon fill="#999999" stroke="#666666" points="162,-195 18,-195 18,-165 162,-165 162,-195"/>
<text text-anchor="start" x="26" y="-183" font-family="Helvetica,sans-Serif" font-size="10.00">projects/max14914/src</text>
<text text-anchor="middle" x="90" y="-172" font-family="Helvetica,sans-Serif" font-size="10.00">/common/common_data.h</text>
</a>
</g>
</g>
<!-- Node2 -->
<g id="Node000002" class="node">
<title>Node2</title>
<g id="a_Node000002"><a xlink:title=" ">
<polygon fill="#e0e0e0" stroke="#999999" points="82,-129 0,-129 0,-110 82,-110 82,-129"/>
<text text-anchor="middle" x="41" y="-117" font-family="Helvetica,sans-Serif" font-size="10.00">parameters.h</text>
</a>
</g>
</g>
<!-- Node1&#45;&gt;Node2 -->
<g id="edge1_Node000001_Node000002" class="edge">
<title>Node1&#45;&gt;Node2</title>
<g id="a_edge1_Node000001_Node000002"><a xlink:title=" ">
<path fill="none" stroke="#63b8ff" d="M78.14,-164.84C71.1,-156.43 62.14,-145.74 54.79,-136.96"/>
<polygon fill="#63b8ff" stroke="#63b8ff" points="57.45,-134.68 48.34,-129.27 52.08,-139.18 57.45,-134.68"/>
</a>
</g>
</g>
<!-- Node3 -->
<g id="Node000003" class="node">
<title>Node3</title>
<g id="a_Node000003"><a xlink:href="max14914_8h.html" target="_top" xlink:title="Header file of MAX14914 Driver.">
<polygon fill="white" stroke="#666666" points="177.5,-129 100.5,-129 100.5,-110 177.5,-110 177.5,-129"/>
<text text-anchor="middle" x="139" y="-117" font-family="Helvetica,sans-Serif" font-size="10.00">max14914.h</text>
</a>
</g>
</g>
<!-- Node1&#45;&gt;Node3 -->
<g id="edge2_Node000001_Node000003" class="edge">
<title>Node1&#45;&gt;Node3</title>
<g id="a_edge2_Node000001_Node000003"><a xlink:title=" ">
<path fill="none" stroke="#63b8ff" d="M101.86,-164.84C108.9,-156.43 117.86,-145.74 125.21,-136.96"/>
<polygon fill="#63b8ff" stroke="#63b8ff" points="127.92,-139.18 131.66,-129.27 122.55,-134.68 127.92,-139.18"/>
</a>
</g>
</g>
<!-- Node4 -->
<g id="Node000004" class="node">
<title>Node4</title>
<g id="a_Node000004"><a xlink:title=" ">
<polygon fill="#e0e0e0" stroke="#999999" points="117.5,-19 64.5,-19 64.5,0 117.5,0 117.5,-19"/>
<text text-anchor="middle" x="91" y="-7" font-family="Helvetica,sans-Serif" font-size="10.00">stdint.h</text>
</a>
</g>
</g>
<!-- Node3&#45;&gt;Node4 -->
<g id="edge3_Node000003_Node000004" class="edge">
<title>Node3&#45;&gt;Node4</title>
<g id="a_edge3_Node000003_Node000004"><a xlink:title=" ">
<path fill="none" stroke="#63b8ff" d="M100.1,-111.22C79.05,-105.09 54.8,-93.96 42,-74 30.63,-56.27 49.8,-37.33 67.39,-24.79"/>
<polygon fill="#63b8ff" stroke="#63b8ff" points="69.4,-27.66 75.76,-19.18 65.5,-21.84 69.4,-27.66"/>
</a>
</g>
</g>
<!-- Node5 -->
<g id="Node000005" class="node">
<title>Node5</title>
<g id="a_Node000005"><a xlink:title=" ">
<polygon fill="#e0e0e0" stroke="#999999" points="284,-19 222,-19 222,0 284,0 284,-19"/>
<text text-anchor="middle" x="253" y="-7" font-family="Helvetica,sans-Serif" font-size="10.00">stdbool.h</text>
</a>
</g>
</g>
<!-- Node3&#45;&gt;Node5 -->
<g id="edge4_Node000003_Node000005" class="edge">
<title>Node3&#45;&gt;Node5</title>
<g id="a_edge4_Node000003_Node000005"><a xlink:title=" ">
<path fill="none" stroke="#63b8ff" d="M172.78,-109.94C192.84,-103.24 217.34,-91.97 233,-74 243.8,-61.61 248.77,-43.39 251.06,-29.65"/>
<polygon fill="#63b8ff" stroke="#63b8ff" points="254.58,-29.75 252.42,-19.38 247.64,-28.83 254.58,-29.75"/>
</a>
</g>
</g>
<!-- Node6 -->
<g id="Node000006" class="node">
<title>Node6</title>
<g id="a_Node000006"><a xlink:href="no__os__gpio_8h.html" target="_top" xlink:title="Header file of GPIO Interface.">
<polygon fill="white" stroke="#666666" points="131,-74 51,-74 51,-55 131,-55 131,-74"/>
<text text-anchor="middle" x="91" y="-62" font-family="Helvetica,sans-Serif" font-size="10.00">no_os_gpio.h</text>
</a>
</g>
</g>
<!-- Node3&#45;&gt;Node6 -->
<g id="edge5_Node000003_Node000006" class="edge">
<title>Node3&#45;&gt;Node6</title>
<g id="a_edge5_Node000003_Node000006"><a xlink:title=" ">
<path fill="none" stroke="#63b8ff" d="M131.07,-109.75C124.15,-102.11 113.93,-90.82 105.55,-81.56"/>
<polygon fill="#63b8ff" stroke="#63b8ff" points="108.09,-79.15 98.78,-74.09 102.9,-83.85 108.09,-79.15"/>
</a>
</g>
</g>
<!-- Node7 -->
<g id="Node000007" class="node">
<title>Node7</title>
<g id="a_Node000007"><a xlink:href="no__os__util_8h.html" target="_top" xlink:title="Header file of utility functions.">
<polygon fill="white" stroke="#666666" points="224.5,-74 149.5,-74 149.5,-55 224.5,-55 224.5,-74"/>
<text text-anchor="middle" x="187" y="-62" font-family="Helvetica,sans-Serif" font-size="10.00">no_os_util.h</text>
</a>
</g>
</g>
<!-- Node3&#45;&gt;Node7 -->
<g id="edge7_Node000003_Node000007" class="edge">
<title>Node3&#45;&gt;Node7</title>
<g id="a_edge7_Node000003_Node000007"><a xlink:title=" ">
<path fill="none" stroke="#63b8ff" d="M146.93,-109.75C153.85,-102.11 164.07,-90.82 172.45,-81.56"/>
<polygon fill="#63b8ff" stroke="#63b8ff" points="175.1,-83.85 179.22,-74.09 169.91,-79.15 175.1,-83.85"/>
</a>
</g>
</g>
<!-- Node6&#45;&gt;Node4 -->
<g id="edge6_Node000006_Node000004" class="edge">
<title>Node6&#45;&gt;Node4</title>
<g id="a_edge6_Node000006_Node000004"><a xlink:title=" ">
<path fill="none" stroke="#63b8ff" d="M91,-54.75C91,-47.8 91,-37.85 91,-29.13"/>
<polygon fill="#63b8ff" stroke="#63b8ff" points="94.5,-29.09 91,-19.09 87.5,-29.09 94.5,-29.09"/>
</a>
</g>
</g>
<!-- Node7&#45;&gt;Node4 -->
<g id="edge8_Node000007_Node000004" class="edge">
<title>Node7&#45;&gt;Node4</title>
<g id="a_edge8_Node000007_Node000004"><a xlink:title=" ">
<path fill="none" stroke="#63b8ff" d="M171.58,-54.98C156.55,-46.69 133.46,-33.94 115.84,-24.22"/>
<polygon fill="#63b8ff" stroke="#63b8ff" points="117.15,-20.94 106.7,-19.17 113.77,-27.07 117.15,-20.94"/>
</a>
</g>
</g>
<!-- Node7&#45;&gt;Node5 -->
<g id="edge10_Node000007_Node000005" class="edge">
<title>Node7&#45;&gt;Node5</title>
<g id="a_edge10_Node000007_Node000005"><a xlink:title=" ">
<path fill="none" stroke="#63b8ff" d="M197.6,-54.98C207.46,-47.07 222.35,-35.11 234.22,-25.58"/>
<polygon fill="#63b8ff" stroke="#63b8ff" points="236.6,-28.16 242.2,-19.17 232.21,-22.7 236.6,-28.16"/>
</a>
</g>
</g>
<!-- Node8 -->
<g id="Node000008" class="node">
<title>Node8</title>
<g id="a_Node000008"><a xlink:title=" ">
<polygon fill="#e0e0e0" stroke="#999999" points="203.5,-19 150.5,-19 150.5,0 203.5,0 203.5,-19"/>
<text text-anchor="middle" x="177" y="-7" font-family="Helvetica,sans-Serif" font-size="10.00">stdlib.h</text>
</a>
</g>
</g>
<!-- Node7&#45;&gt;Node8 -->
<g id="edge9_Node000007_Node000008" class="edge">
<title>Node7&#45;&gt;Node8</title>
<g id="a_edge9_Node000007_Node000008"><a xlink:title=" ">
<path fill="none" stroke="#63b8ff" d="M185.35,-54.75C184.04,-47.8 182.16,-37.85 180.52,-29.13"/>
<polygon fill="#63b8ff" stroke="#63b8ff" points="183.91,-28.27 178.62,-19.09 177.04,-29.56 183.91,-28.27"/>
</a>
</g>
</g>
</g>
</svg>
