<?xml version="1.0" encoding="UTF-8" standalone="no"?>
<!DOCTYPE svg PUBLIC "-//W3C//DTD SVG 1.1//EN"
 "http://www.w3.org/Graphics/SVG/1.1/DTD/svg11.dtd">
<!-- Generated by graphviz version 2.43.0 (0)
 -->
<!-- Title: max17616_set_istart_ratio Pages: 1 -->
<svg width="711pt" height="88pt"
 viewBox="0.00 0.00 711.00 88.00" xmlns="http://www.w3.org/2000/svg" xmlns:xlink="http://www.w3.org/1999/xlink">
<g id="graph0" class="graph" transform="scale(1 1) rotate(0) translate(4 84)">
<title>max17616_set_istart_ratio</title>
<!-- Node1 -->
<g id="Node000001" class="node">
<title>Node1</title>
<g id="a_Node000001"><a xlink:title="Set current start ratio.">
<polygon fill="#999999" stroke="#666666" points="703,-63.5 584,-63.5 584,-33.5 703,-33.5 703,-63.5"/>
<text text-anchor="start" x="592" y="-51.5" font-family="Helvetica,sans-Serif" font-size="10.00">max17616_set_istart</text>
<text text-anchor="middle" x="643.5" y="-40.5" font-family="Helvetica,sans-Serif" font-size="10.00">_ratio</text>
</a>
</g>
</g>
<!-- Node2 -->
<g id="Node000002" class="node">
<title>Node2</title>
<g id="a_Node000002"><a xlink:href="iio__max17616_8c.html#ae528f14d22238257654456118c44fe34" target="_top" xlink:title="Write attribute function for MAX17616 output channels.">
<polygon fill="white" stroke="#666666" points="539.5,-80 401.5,-80 401.5,-61 539.5,-61 539.5,-80"/>
<text text-anchor="middle" x="470.5" y="-68" font-family="Helvetica,sans-Serif" font-size="10.00">max17616_iio_write_attr</text>
</a>
</g>
</g>
<!-- Node1&#45;&gt;Node2 -->
<g id="edge1_Node000001_Node000002" class="edge">
<title>Node1&#45;&gt;Node2</title>
<g id="a_edge1_Node000001_Node000002"><a xlink:title=" ">
<path fill="none" stroke="#63b8ff" d="M573.51,-57.38C562.32,-58.82 550.74,-60.31 539.57,-61.74"/>
<polygon fill="#63b8ff" stroke="#63b8ff" points="574.18,-60.82 583.65,-56.07 573.29,-53.88 574.18,-60.82"/>
</a>
</g>
</g>
<!-- Node3 -->
<g id="Node000003" class="node">
<title>Node3</title>
<g id="a_Node000003"><a xlink:href="max17616_8c.html#a2dc36cd7da3e0bb2c5e9da6294225946" target="_top" xlink:title="Set manufacturer&#45;specific configuration.">
<polygon fill="white" stroke="#666666" points="548,-42.5 393,-42.5 393,-12.5 548,-12.5 548,-42.5"/>
<text text-anchor="start" x="401" y="-30.5" font-family="Helvetica,sans-Serif" font-size="10.00">max17616_set_mfg_specific</text>
<text text-anchor="middle" x="470.5" y="-19.5" font-family="Helvetica,sans-Serif" font-size="10.00">_config</text>
</a>
</g>
</g>
<!-- Node1&#45;&gt;Node3 -->
<g id="edge2_Node000001_Node000003" class="edge">
<title>Node1&#45;&gt;Node3</title>
<g id="a_edge2_Node000001_Node000003"><a xlink:title=" ">
<path fill="none" stroke="#63b8ff" d="M573.61,-40.04C565.27,-39.02 556.72,-37.97 548.27,-36.93"/>
<polygon fill="#63b8ff" stroke="#63b8ff" points="573.3,-43.53 583.65,-41.27 574.15,-36.58 573.3,-43.53"/>
</a>
</g>
</g>
<!-- Node4 -->
<g id="Node000004" class="node">
<title>Node4</title>
<g id="a_Node000004"><a xlink:href="max17616_8c.html#aac638b2e6fc52133d47fd48c45f09a99" target="_top" xlink:title="Initialize the device structure.">
<polygon fill="white" stroke="#666666" points="357,-37 268,-37 268,-18 357,-18 357,-37"/>
<text text-anchor="middle" x="312.5" y="-25" font-family="Helvetica,sans-Serif" font-size="10.00">max17616_init</text>
</a>
</g>
</g>
<!-- Node3&#45;&gt;Node4 -->
<g id="edge3_Node000003_Node000004" class="edge">
<title>Node3&#45;&gt;Node4</title>
<g id="a_edge3_Node000003_Node000004"><a xlink:title=" ">
<path fill="none" stroke="#63b8ff" d="M382.61,-27.5C373.91,-27.5 365.36,-27.5 357.4,-27.5"/>
<polygon fill="#63b8ff" stroke="#63b8ff" points="382.87,-31 392.87,-27.5 382.87,-24 382.87,-31"/>
</a>
</g>
</g>
<!-- Node5 -->
<g id="Node000005" class="node">
<title>Node5</title>
<g id="a_Node000005"><a xlink:href="max17616_2src_2examples_2basic_2basic__example_8c.html#a423407bf3827741dfe2f6e0def8ba0c3" target="_top" xlink:title="Basic example main executiont.">
<polygon fill="white" stroke="#666666" points="223,-56 134,-56 134,-37 223,-37 223,-56"/>
<text text-anchor="middle" x="178.5" y="-44" font-family="Helvetica,sans-Serif" font-size="10.00">example_main</text>
</a>
</g>
</g>
<!-- Node4&#45;&gt;Node5 -->
<g id="edge4_Node000004_Node000005" class="edge">
<title>Node4&#45;&gt;Node5</title>
<g id="a_edge4_Node000004_Node000005"><a xlink:title=" ">
<path fill="none" stroke="#63b8ff" d="M257.9,-35.22C246.31,-36.88 234.19,-38.63 223.04,-40.23"/>
<polygon fill="#63b8ff" stroke="#63b8ff" points="258.51,-38.66 267.91,-33.77 257.52,-31.73 258.51,-38.66"/>
</a>
</g>
</g>
<!-- Node6 -->
<g id="Node000006" class="node">
<title>Node6</title>
<g id="a_Node000006"><a xlink:href="iio__max17616_8c.html#a47cdfba4d1631ec72a43507e9cf8bcea" target="_top" xlink:title="Initializes the MAX17616 IIO descriptor.">
<polygon fill="white" stroke="#666666" points="232,-19 125,-19 125,0 232,0 232,-19"/>
<text text-anchor="middle" x="178.5" y="-7" font-family="Helvetica,sans-Serif" font-size="10.00">max17616_iio_init</text>
</a>
</g>
</g>
<!-- Node4&#45;&gt;Node6 -->
<g id="edge5_Node000004_Node000006" class="edge">
<title>Node4&#45;&gt;Node6</title>
<g id="a_edge5_Node000004_Node000006"><a xlink:title=" ">
<path fill="none" stroke="#63b8ff" d="M257.8,-20.18C249.36,-19.03 240.65,-17.84 232.23,-16.69"/>
<polygon fill="#63b8ff" stroke="#63b8ff" points="257.53,-23.67 267.91,-21.56 258.48,-16.74 257.53,-23.67"/>
</a>
</g>
</g>
<!-- Node7 -->
<g id="Node000007" class="node">
<title>Node7</title>
<g id="a_Node000007"><a xlink:href="max17616_2src_2examples_2iio__example_2iio__example_8c.html#ac25cbf8ae523e89cb0617e68c98bc697" target="_top" xlink:title="Basic example main executiont.">
<polygon fill="white" stroke="#666666" points="89,-19 0,-19 0,0 89,0 89,-19"/>
<text text-anchor="middle" x="44.5" y="-7" font-family="Helvetica,sans-Serif" font-size="10.00">example_main</text>
</a>
</g>
</g>
<!-- Node6&#45;&gt;Node7 -->
<g id="edge6_Node000006_Node000007" class="edge">
<title>Node6&#45;&gt;Node7</title>
<g id="a_edge6_Node000006_Node000007"><a xlink:title=" ">
<path fill="none" stroke="#63b8ff" d="M114.9,-9.5C106.27,-9.5 97.57,-9.5 89.38,-9.5"/>
<polygon fill="#63b8ff" stroke="#63b8ff" points="114.95,-13 124.95,-9.5 114.95,-6 114.95,-13"/>
</a>
</g>
</g>
</g>
</svg>
