<?xml version="1.0" encoding="UTF-8" standalone="no"?>
<!DOCTYPE svg PUBLIC "-//W3C//DTD SVG 1.1//EN"
 "http://www.w3.org/Graphics/SVG/1.1/DTD/svg11.dtd">
<!-- Generated by graphviz version 2.43.0 (0)
 -->
<!-- Title: drivers/digital&#45;io/max14914/max14914.c Pages: 1 -->
<svg width="455pt" height="203pt"
 viewBox="0.00 0.00 454.50 203.00" xmlns="http://www.w3.org/2000/svg" xmlns:xlink="http://www.w3.org/1999/xlink">
<g id="graph0" class="graph" transform="scale(1 1) rotate(0) translate(4 199)">
<title>drivers/digital&#45;io/max14914/max14914.c</title>
<!-- Node1 -->
<g id="Node000001" class="node">
<title>Node1</title>
<g id="a_Node000001"><a xlink:title="Source file of MAX14914 Driver.">
<polygon fill="#999999" stroke="#666666" points="259.5,-195 125.5,-195 125.5,-165 259.5,-165 259.5,-195"/>
<text text-anchor="start" x="133.5" y="-183" font-family="Helvetica,sans-Serif" font-size="10.00">drivers/digital&#45;io</text>
<text text-anchor="middle" x="192.5" y="-172" font-family="Helvetica,sans-Serif" font-size="10.00">/max14914/max14914.c</text>
</a>
</g>
</g>
<!-- Node2 -->
<g id="Node000002" class="node">
<title>Node2</title>
<g id="a_Node000002"><a xlink:title=" ">
<polygon fill="#e0e0e0" stroke="#999999" points="53,-19 0,-19 0,0 53,0 53,-19"/>
<text text-anchor="middle" x="26.5" y="-7" font-family="Helvetica,sans-Serif" font-size="10.00">stdlib.h</text>
</a>
</g>
</g>
<!-- Node1&#45;&gt;Node2 -->
<g id="edge1_Node000001_Node000002" class="edge">
<title>Node1&#45;&gt;Node2</title>
<g id="a_edge1_Node000001_Node000002"><a xlink:title=" ">
<path fill="none" stroke="#63b8ff" d="M125.21,-176.46C90.52,-171.33 50.9,-158.71 28.5,-129 6.49,-99.8 14.07,-54.04 20.77,-28.78"/>
<polygon fill="#63b8ff" stroke="#63b8ff" points="24.17,-29.61 23.59,-19.03 17.45,-27.67 24.17,-29.61"/>
</a>
</g>
</g>
<!-- Node3 -->
<g id="Node000003" class="node">
<title>Node3</title>
<g id="a_Node000003"><a xlink:title=" ">
<polygon fill="#e0e0e0" stroke="#999999" points="336,-129 283,-129 283,-110 336,-110 336,-129"/>
<text text-anchor="middle" x="309.5" y="-117" font-family="Helvetica,sans-Serif" font-size="10.00">string.h</text>
</a>
</g>
</g>
<!-- Node1&#45;&gt;Node3 -->
<g id="edge2_Node000001_Node000003" class="edge">
<title>Node1&#45;&gt;Node3</title>
<g id="a_edge2_Node000001_Node000003"><a xlink:title=" ">
<path fill="none" stroke="#63b8ff" d="M220.52,-164.99C239.52,-155.49 264.47,-143.02 283.11,-133.69"/>
<polygon fill="#63b8ff" stroke="#63b8ff" points="284.84,-136.74 292.22,-129.14 281.71,-130.48 284.84,-136.74"/>
</a>
</g>
</g>
<!-- Node4 -->
<g id="Node000004" class="node">
<title>Node4</title>
<g id="a_Node000004"><a xlink:href="max14914_8h.html" target="_top" xlink:title="Header file of MAX14914 Driver.">
<polygon fill="white" stroke="#666666" points="265,-129 188,-129 188,-110 265,-110 265,-129"/>
<text text-anchor="middle" x="226.5" y="-117" font-family="Helvetica,sans-Serif" font-size="10.00">max14914.h</text>
</a>
</g>
</g>
<!-- Node1&#45;&gt;Node4 -->
<g id="edge3_Node000001_Node000004" class="edge">
<title>Node1&#45;&gt;Node4</title>
<g id="a_edge3_Node000001_Node000004"><a xlink:title=" ">
<path fill="none" stroke="#63b8ff" d="M200.73,-164.84C205.41,-156.78 211.32,-146.62 216.3,-138.06"/>
<polygon fill="#63b8ff" stroke="#63b8ff" points="219.41,-139.67 221.41,-129.27 213.35,-136.15 219.41,-139.67"/>
</a>
</g>
</g>
<!-- Node8 -->
<g id="Node000008" class="node">
<title>Node8</title>
<g id="a_Node000008"><a xlink:href="no__os__util_8h.html" target="_top" xlink:title="Header file of utility functions.">
<polygon fill="white" stroke="#666666" points="198,-74 123,-74 123,-55 198,-55 198,-74"/>
<text text-anchor="middle" x="160.5" y="-62" font-family="Helvetica,sans-Serif" font-size="10.00">no_os_util.h</text>
</a>
</g>
</g>
<!-- Node1&#45;&gt;Node8 -->
<g id="edge12_Node000001_Node000008" class="edge">
<title>Node1&#45;&gt;Node8</title>
<g id="a_edge12_Node000001_Node000008"><a xlink:title=" ">
<path fill="none" stroke="#63b8ff" d="M188.45,-164.63C182.67,-144.12 172.05,-106.47 165.7,-83.93"/>
<polygon fill="#63b8ff" stroke="#63b8ff" points="169.04,-82.9 162.96,-74.23 162.31,-84.8 169.04,-82.9"/>
</a>
</g>
</g>
<!-- Node9 -->
<g id="Node000009" class="node">
<title>Node9</title>
<g id="a_Node000009"><a xlink:href="no__os__error_8h.html" target="_top" xlink:title="Error codes definition.">
<polygon fill="white" stroke="#666666" points="446.5,-129 364.5,-129 364.5,-110 446.5,-110 446.5,-129"/>
<text text-anchor="middle" x="405.5" y="-117" font-family="Helvetica,sans-Serif" font-size="10.00">no_os_error.h</text>
</a>
</g>
</g>
<!-- Node1&#45;&gt;Node9 -->
<g id="edge13_Node000001_Node000009" class="edge">
<title>Node1&#45;&gt;Node9</title>
<g id="a_edge13_Node000001_Node000009"><a xlink:title=" ">
<path fill="none" stroke="#63b8ff" d="M243.52,-164.99C280.6,-154.8 330.12,-141.2 364.61,-131.73"/>
<polygon fill="#63b8ff" stroke="#63b8ff" points="365.64,-135.08 374.36,-129.05 363.79,-128.33 365.64,-135.08"/>
</a>
</g>
</g>
<!-- Node11 -->
<g id="Node000011" class="node">
<title>Node11</title>
<g id="a_Node000011"><a xlink:href="no__os__alloc_8h.html" target="_top" xlink:title=" ">
<polygon fill="white" stroke="#666666" points="121,-129 38,-129 38,-110 121,-110 121,-129"/>
<text text-anchor="middle" x="79.5" y="-117" font-family="Helvetica,sans-Serif" font-size="10.00">no_os_alloc.h</text>
</a>
</g>
</g>
<!-- Node1&#45;&gt;Node11 -->
<g id="edge15_Node000001_Node000011" class="edge">
<title>Node1&#45;&gt;Node11</title>
<g id="a_edge15_Node000001_Node000011"><a xlink:title=" ">
<path fill="none" stroke="#63b8ff" d="M165.43,-164.99C147.25,-155.58 123.43,-143.24 105.48,-133.95"/>
<polygon fill="#63b8ff" stroke="#63b8ff" points="106.68,-130.63 96.19,-129.14 103.46,-136.84 106.68,-130.63"/>
</a>
</g>
</g>
<!-- Node5 -->
<g id="Node000005" class="node">
<title>Node5</title>
<g id="a_Node000005"><a xlink:title=" ">
<polygon fill="#e0e0e0" stroke="#999999" points="321,-19 268,-19 268,0 321,0 321,-19"/>
<text text-anchor="middle" x="294.5" y="-7" font-family="Helvetica,sans-Serif" font-size="10.00">stdint.h</text>
</a>
</g>
</g>
<!-- Node4&#45;&gt;Node5 -->
<g id="edge4_Node000004_Node000005" class="edge">
<title>Node4&#45;&gt;Node5</title>
<g id="a_edge4_Node000004_Node000005"><a xlink:title=" ">
<path fill="none" stroke="#63b8ff" d="M261.11,-109.98C292,-101.6 333.82,-88.04 343.5,-74 355.52,-56.56 335.96,-37.43 318.1,-24.77"/>
<polygon fill="#63b8ff" stroke="#63b8ff" points="319.88,-21.75 309.62,-19.11 315.99,-27.57 319.88,-21.75"/>
</a>
</g>
</g>
<!-- Node6 -->
<g id="Node000006" class="node">
<title>Node6</title>
<g id="a_Node000006"><a xlink:title=" ">
<polygon fill="#e0e0e0" stroke="#999999" points="220.5,-19 158.5,-19 158.5,0 220.5,0 220.5,-19"/>
<text text-anchor="middle" x="189.5" y="-7" font-family="Helvetica,sans-Serif" font-size="10.00">stdbool.h</text>
</a>
</g>
</g>
<!-- Node4&#45;&gt;Node6 -->
<g id="edge5_Node000004_Node000006" class="edge">
<title>Node4&#45;&gt;Node6</title>
<g id="a_edge5_Node000004_Node000006"><a xlink:title=" ">
<path fill="none" stroke="#63b8ff" d="M224.17,-109.79C220.82,-97.48 214.28,-74.33 207.5,-55 204.43,-46.25 200.63,-36.7 197.31,-28.7"/>
<polygon fill="#63b8ff" stroke="#63b8ff" points="200.44,-27.12 193.33,-19.27 194,-29.85 200.44,-27.12"/>
</a>
</g>
</g>
<!-- Node7 -->
<g id="Node000007" class="node">
<title>Node7</title>
<g id="a_Node000007"><a xlink:href="no__os__gpio_8h.html" target="_top" xlink:title="Header file of GPIO Interface.">
<polygon fill="white" stroke="#666666" points="334.5,-74 254.5,-74 254.5,-55 334.5,-55 334.5,-74"/>
<text text-anchor="middle" x="294.5" y="-62" font-family="Helvetica,sans-Serif" font-size="10.00">no_os_gpio.h</text>
</a>
</g>
</g>
<!-- Node4&#45;&gt;Node7 -->
<g id="edge6_Node000004_Node000007" class="edge">
<title>Node4&#45;&gt;Node7</title>
<g id="a_edge6_Node000004_Node000007"><a xlink:title=" ">
<path fill="none" stroke="#63b8ff" d="M237.43,-109.98C247.58,-102.07 262.92,-90.11 275.15,-80.58"/>
<polygon fill="#63b8ff" stroke="#63b8ff" points="277.64,-83.08 283.38,-74.17 273.34,-77.56 277.64,-83.08"/>
</a>
</g>
</g>
<!-- Node4&#45;&gt;Node8 -->
<g id="edge8_Node000004_Node000008" class="edge">
<title>Node4&#45;&gt;Node8</title>
<g id="a_edge8_Node000004_Node000008"><a xlink:title=" ">
<path fill="none" stroke="#63b8ff" d="M215.9,-109.98C206.04,-102.07 191.15,-90.11 179.28,-80.58"/>
<polygon fill="#63b8ff" stroke="#63b8ff" points="181.29,-77.7 171.3,-74.17 176.9,-83.16 181.29,-77.7"/>
</a>
</g>
</g>
<!-- Node7&#45;&gt;Node5 -->
<g id="edge7_Node000007_Node000005" class="edge">
<title>Node7&#45;&gt;Node5</title>
<g id="a_edge7_Node000007_Node000005"><a xlink:title=" ">
<path fill="none" stroke="#63b8ff" d="M294.5,-54.75C294.5,-47.8 294.5,-37.85 294.5,-29.13"/>
<polygon fill="#63b8ff" stroke="#63b8ff" points="298,-29.09 294.5,-19.09 291,-29.09 298,-29.09"/>
</a>
</g>
</g>
<!-- Node8&#45;&gt;Node2 -->
<g id="edge10_Node000008_Node000002" class="edge">
<title>Node8&#45;&gt;Node2</title>
<g id="a_edge10_Node000008_Node000002"><a xlink:title=" ">
<path fill="none" stroke="#63b8ff" d="M138.97,-54.98C117.03,-46.3 82.76,-32.75 57.81,-22.88"/>
<polygon fill="#63b8ff" stroke="#63b8ff" points="59.01,-19.59 48.42,-19.17 56.43,-26.1 59.01,-19.59"/>
</a>
</g>
</g>
<!-- Node8&#45;&gt;Node5 -->
<g id="edge9_Node000008_Node000005" class="edge">
<title>Node8&#45;&gt;Node5</title>
<g id="a_edge9_Node000008_Node000005"><a xlink:title=" ">
<path fill="none" stroke="#63b8ff" d="M182.03,-54.98C203.97,-46.3 238.24,-32.75 263.19,-22.88"/>
<polygon fill="#63b8ff" stroke="#63b8ff" points="264.57,-26.1 272.58,-19.17 261.99,-19.59 264.57,-26.1"/>
</a>
</g>
</g>
<!-- Node8&#45;&gt;Node6 -->
<g id="edge11_Node000008_Node000006" class="edge">
<title>Node8&#45;&gt;Node6</title>
<g id="a_edge11_Node000008_Node000006"><a xlink:title=" ">
<path fill="none" stroke="#63b8ff" d="M165.29,-54.75C169.26,-47.49 175.03,-36.95 179.93,-27.98"/>
<polygon fill="#63b8ff" stroke="#63b8ff" points="183.07,-29.54 184.8,-19.09 176.93,-26.18 183.07,-29.54"/>
</a>
</g>
</g>
<!-- Node10 -->
<g id="Node000010" class="node">
<title>Node10</title>
<g id="a_Node000010"><a xlink:href="errno_8h.html" target="_top" xlink:title="Error macro definition for ARM Compiler.">
<polygon fill="white" stroke="#666666" points="442,-74 391,-74 391,-55 442,-55 442,-74"/>
<text text-anchor="middle" x="416.5" y="-62" font-family="Helvetica,sans-Serif" font-size="10.00">errno.h</text>
</a>
</g>
</g>
<!-- Node9&#45;&gt;Node10 -->
<g id="edge14_Node000009_Node000010" class="edge">
<title>Node9&#45;&gt;Node10</title>
<g id="a_edge14_Node000009_Node000010"><a xlink:title=" ">
<path fill="none" stroke="#63b8ff" d="M407.32,-109.75C408.76,-102.8 410.82,-92.85 412.63,-84.13"/>
<polygon fill="#63b8ff" stroke="#63b8ff" points="416.11,-84.59 414.72,-74.09 409.26,-83.17 416.11,-84.59"/>
</a>
</g>
</g>
<!-- Node11&#45;&gt;Node2 -->
<g id="edge17_Node000011_Node000002" class="edge">
<title>Node11&#45;&gt;Node2</title>
<g id="a_edge17_Node000011_Node000002"><a xlink:title=" ">
<path fill="none" stroke="#63b8ff" d="M71.44,-109.95C63.79,-101.43 52.48,-87.69 45.5,-74 38.22,-59.73 33.24,-42.2 30.21,-29.18"/>
<polygon fill="#63b8ff" stroke="#63b8ff" points="33.57,-28.13 28.04,-19.09 26.72,-29.6 33.57,-28.13"/>
</a>
</g>
</g>
<!-- Node12 -->
<g id="Node000012" class="node">
<title>Node12</title>
<g id="a_Node000012"><a xlink:title=" ">
<polygon fill="#e0e0e0" stroke="#999999" points="104.5,-74 54.5,-74 54.5,-55 104.5,-55 104.5,-74"/>
<text text-anchor="middle" x="79.5" y="-62" font-family="Helvetica,sans-Serif" font-size="10.00">stdio.h</text>
</a>
</g>
</g>
<!-- Node11&#45;&gt;Node12 -->
<g id="edge16_Node000011_Node000012" class="edge">
<title>Node11&#45;&gt;Node12</title>
<g id="a_edge16_Node000011_Node000012"><a xlink:title=" ">
<path fill="none" stroke="#63b8ff" d="M79.5,-109.75C79.5,-102.8 79.5,-92.85 79.5,-84.13"/>
<polygon fill="#63b8ff" stroke="#63b8ff" points="83,-84.09 79.5,-74.09 76,-84.09 83,-84.09"/>
</a>
</g>
</g>
</g>
</svg>
