<?xml version="1.0" encoding="UTF-8" standalone="no"?>
<!DOCTYPE svg PUBLIC "-//W3C//DTD SVG 1.1//EN"
 "http://www.w3.org/Graphics/SVG/1.1/DTD/svg11.dtd">
<!-- Generated by graphviz version 2.43.0 (0)
 -->
<!-- Title: drivers/digital&#45;io/max22200/max22200.h Pages: 1 -->
<svg width="715pt" height="181pt"
 viewBox="0.00 0.00 715.00 181.00" xmlns="http://www.w3.org/2000/svg" xmlns:xlink="http://www.w3.org/1999/xlink">
<g id="graph0" class="graph" transform="scale(1 1) rotate(0) translate(4 177)">
<title>drivers/digital&#45;io/max22200/max22200.h</title>
<!-- Node1 -->
<g id="Node000001" class="node">
<title>Node1</title>
<g id="a_Node000001"><a xlink:title="Header file of MAX22200 Driver.">
<polygon fill="#999999" stroke="#666666" points="477.5,-173 342.5,-173 342.5,-143 477.5,-143 477.5,-173"/>
<text text-anchor="start" x="350.5" y="-161" font-family="Helvetica,sans-Serif" font-size="10.00">drivers/digital&#45;io</text>
<text text-anchor="middle" x="410" y="-150" font-family="Helvetica,sans-Serif" font-size="10.00">/max22200/max22200.h</text>
</a>
</g>
</g>
<!-- Node2 -->
<g id="Node000002" class="node">
<title>Node2</title>
<g id="a_Node000002"><a xlink:href="iio__max22200_8h.html" target="_top" xlink:title="Header file of IIO MAX22200 Driver.">
<polygon fill="white" stroke="#666666" points="247,-101.5 95,-101.5 95,-71.5 247,-71.5 247,-101.5"/>
<text text-anchor="start" x="103" y="-89.5" font-family="Helvetica,sans-Serif" font-size="10.00">drivers/digital&#45;io</text>
<text text-anchor="middle" x="171" y="-78.5" font-family="Helvetica,sans-Serif" font-size="10.00">/max22200/iio_max22200.h</text>
</a>
</g>
</g>
<!-- Node1&#45;&gt;Node2 -->
<g id="edge1_Node000001_Node000002" class="edge">
<title>Node1&#45;&gt;Node2</title>
<g id="a_edge1_Node000001_Node000002"><a xlink:title=" ">
<path fill="none" stroke="#63b8ff" d="M351.86,-140.09C311.22,-128.28 257.58,-112.68 219.29,-101.54"/>
<polygon fill="#63b8ff" stroke="#63b8ff" points="351.06,-143.5 361.63,-142.94 353.01,-136.78 351.06,-143.5"/>
</a>
</g>
</g>
<!-- Node5 -->
<g id="Node000005" class="node">
<title>Node5</title>
<g id="a_Node000005"><a xlink:href="max22200_8c.html" target="_top" xlink:title="Source file of MAX22200 Driver.">
<polygon fill="white" stroke="#666666" points="399,-101.5 265,-101.5 265,-71.5 399,-71.5 399,-101.5"/>
<text text-anchor="start" x="273" y="-89.5" font-family="Helvetica,sans-Serif" font-size="10.00">drivers/digital&#45;io</text>
<text text-anchor="middle" x="332" y="-78.5" font-family="Helvetica,sans-Serif" font-size="10.00">/max22200/max22200.c</text>
</a>
</g>
</g>
<!-- Node1&#45;&gt;Node5 -->
<g id="edge4_Node000001_Node000005" class="edge">
<title>Node1&#45;&gt;Node5</title>
<g id="a_edge4_Node000001_Node000005"><a xlink:title=" ">
<path fill="none" stroke="#63b8ff" d="M386.42,-135.99C373.9,-124.84 358.86,-111.43 347.76,-101.54"/>
<polygon fill="#63b8ff" stroke="#63b8ff" points="384.42,-138.9 394.22,-142.94 389.08,-133.67 384.42,-138.9"/>
</a>
</g>
</g>
<!-- Node6 -->
<g id="Node000006" class="node">
<title>Node6</title>
<g id="a_Node000006"><a xlink:href="max22200_2src_2common_2common__data_8h.html" target="_top" xlink:title="Common data used by the MAX22200 project.">
<polygon fill="white" stroke="#666666" points="561,-101.5 417,-101.5 417,-71.5 561,-71.5 561,-101.5"/>
<text text-anchor="start" x="425" y="-89.5" font-family="Helvetica,sans-Serif" font-size="10.00">projects/max22200/src</text>
<text text-anchor="middle" x="489" y="-78.5" font-family="Helvetica,sans-Serif" font-size="10.00">/common/common_data.h</text>
</a>
</g>
</g>
<!-- Node1&#45;&gt;Node6 -->
<g id="edge5_Node000001_Node000006" class="edge">
<title>Node1&#45;&gt;Node6</title>
<g id="a_edge5_Node000001_Node000006"><a xlink:title=" ">
<path fill="none" stroke="#63b8ff" d="M433.52,-136.31C446.27,-125.09 461.69,-111.52 473.04,-101.54"/>
<polygon fill="#63b8ff" stroke="#63b8ff" points="431.18,-133.7 425.99,-142.94 435.81,-138.96 431.18,-133.7"/>
</a>
</g>
</g>
<!-- Node8 -->
<g id="Node000008" class="node">
<title>Node8</title>
<g id="a_Node000008"><a xlink:href="max22200_2src_2examples_2basic_2basic__example_8c.html" target="_top" xlink:title="Source file for basic example.">
<polygon fill="white" stroke="#666666" points="707,-107 579,-107 579,-66 707,-66 707,-107"/>
<text text-anchor="start" x="587" y="-95" font-family="Helvetica,sans-Serif" font-size="10.00">projects/max22200/src</text>
<text text-anchor="start" x="587" y="-84" font-family="Helvetica,sans-Serif" font-size="10.00">/examples/basic/basic</text>
<text text-anchor="middle" x="643" y="-73" font-family="Helvetica,sans-Serif" font-size="10.00">_example.c</text>
</a>
</g>
</g>
<!-- Node1&#45;&gt;Node8 -->
<g id="edge7_Node000001_Node000008" class="edge">
<title>Node1&#45;&gt;Node8</title>
<g id="a_edge7_Node000001_Node000008"><a xlink:title=" ">
<path fill="none" stroke="#63b8ff" d="M466.88,-140.03C500.69,-129.95 543.66,-117.13 578.7,-106.68"/>
<polygon fill="#63b8ff" stroke="#63b8ff" points="465.73,-136.72 457.15,-142.94 467.73,-143.43 465.73,-136.72"/>
</a>
</g>
</g>
<!-- Node3 -->
<g id="Node000003" class="node">
<title>Node3</title>
<g id="a_Node000003"><a xlink:href="iio__max22200_8c.html" target="_top" xlink:title="Source file of IIO MAX22200 Driver.">
<polygon fill="white" stroke="#666666" points="152,-30 0,-30 0,0 152,0 152,-30"/>
<text text-anchor="start" x="8" y="-18" font-family="Helvetica,sans-Serif" font-size="10.00">drivers/digital&#45;io</text>
<text text-anchor="middle" x="76" y="-7" font-family="Helvetica,sans-Serif" font-size="10.00">/max22200/iio_max22200.c</text>
</a>
</g>
</g>
<!-- Node2&#45;&gt;Node3 -->
<g id="edge2_Node000002_Node000003" class="edge">
<title>Node2&#45;&gt;Node3</title>
<g id="a_edge2_Node000002_Node000003"><a xlink:title=" ">
<path fill="none" stroke="#63b8ff" d="M143.58,-65.44C128.09,-54.1 109.1,-40.21 95.2,-30.04"/>
<polygon fill="#63b8ff" stroke="#63b8ff" points="141.64,-68.36 151.78,-71.44 145.77,-62.71 141.64,-68.36"/>
</a>
</g>
</g>
<!-- Node4 -->
<g id="Node000004" class="node">
<title>Node4</title>
<g id="a_Node000004"><a xlink:href="max22200_2src_2examples_2iio_2iio__example_8c.html" target="_top" xlink:title="Source file for iio example.">
<polygon fill="white" stroke="#666666" points="324,-30 170,-30 170,0 324,0 324,-30"/>
<text text-anchor="start" x="178" y="-18" font-family="Helvetica,sans-Serif" font-size="10.00">projects/max22200/src</text>
<text text-anchor="middle" x="247" y="-7" font-family="Helvetica,sans-Serif" font-size="10.00">/examples/iio/iio_example.c</text>
</a>
</g>
</g>
<!-- Node2&#45;&gt;Node4 -->
<g id="edge3_Node000002_Node000004" class="edge">
<title>Node2&#45;&gt;Node4</title>
<g id="a_edge3_Node000002_Node000004"><a xlink:title=" ">
<path fill="none" stroke="#63b8ff" d="M193.97,-64.49C206.17,-53.34 220.83,-39.93 231.64,-30.04"/>
<polygon fill="#63b8ff" stroke="#63b8ff" points="191.4,-62.1 186.38,-71.44 196.12,-67.27 191.4,-62.1"/>
</a>
</g>
</g>
<!-- Node7 -->
<g id="Node000007" class="node">
<title>Node7</title>
<g id="a_Node000007"><a xlink:href="max22200_2src_2common_2common__data_8c.html" target="_top" xlink:title="Common data used by the MAX22200 project.">
<polygon fill="white" stroke="#666666" points="560.5,-30 417.5,-30 417.5,0 560.5,0 560.5,-30"/>
<text text-anchor="start" x="425.5" y="-18" font-family="Helvetica,sans-Serif" font-size="10.00">projects/max22200/src</text>
<text text-anchor="middle" x="489" y="-7" font-family="Helvetica,sans-Serif" font-size="10.00">/common/common_data.c</text>
</a>
</g>
</g>
<!-- Node6&#45;&gt;Node7 -->
<g id="edge6_Node000006_Node000007" class="edge">
<title>Node6&#45;&gt;Node7</title>
<g id="a_edge6_Node000006_Node000007"><a xlink:title=" ">
<path fill="none" stroke="#63b8ff" d="M489,-61.25C489,-50.81 489,-38.99 489,-30.04"/>
<polygon fill="#63b8ff" stroke="#63b8ff" points="485.5,-61.44 489,-71.44 492.5,-61.44 485.5,-61.44"/>
</a>
</g>
</g>
</g>
</svg>
