<?xml version="1.0" encoding="UTF-8" standalone="no"?>
<!DOCTYPE svg PUBLIC "-//W3C//DTD SVG 1.1//EN"
 "http://www.w3.org/Graphics/SVG/1.1/DTD/svg11.dtd">
<!-- Generated by graphviz version 2.43.0 (0)
 -->
<!-- Title: max22200_set_ch_state Pages: 1 -->
<svg width="604pt" height="110pt"
 viewBox="0.00 0.00 604.00 109.50" xmlns="http://www.w3.org/2000/svg" xmlns:xlink="http://www.w3.org/1999/xlink">
<g id="graph0" class="graph" transform="scale(1 1) rotate(0) translate(4 105.5)">
<title>max22200_set_ch_state</title>
<!-- Node1 -->
<g id="Node000001" class="node">
<title>Node1</title>
<g id="a_Node000001"><a xlink:title="Set channel state for specific channel.">
<polygon fill="#999999" stroke="#666666" points="596,-74 461,-74 461,-55 596,-55 596,-74"/>
<text text-anchor="middle" x="528.5" y="-62" font-family="Helvetica,sans-Serif" font-size="10.00">max22200_set_ch_state</text>
</a>
</g>
</g>
<!-- Node2 -->
<g id="Node000002" class="node">
<title>Node2</title>
<g id="a_Node000002"><a xlink:href="iio__max22200_8c.html#a4711de693e4d717392f3d69f2c20890b" target="_top" xlink:title=" ">
<polygon fill="white" stroke="#666666" points="425,-101.5 307,-101.5 307,-71.5 425,-71.5 425,-101.5"/>
<text text-anchor="start" x="315" y="-89.5" font-family="Helvetica,sans-Serif" font-size="10.00">max22200_iio_setup</text>
<text text-anchor="middle" x="366" y="-78.5" font-family="Helvetica,sans-Serif" font-size="10.00">_channels</text>
</a>
</g>
</g>
<!-- Node1&#45;&gt;Node2 -->
<g id="edge1_Node000001_Node000002" class="edge">
<title>Node1&#45;&gt;Node2</title>
<g id="a_edge1_Node000001_Node000002"><a xlink:title=" ">
<path fill="none" stroke="#63b8ff" d="M450.73,-75.02C442.08,-76.21 433.38,-77.4 425.03,-78.55"/>
<polygon fill="#63b8ff" stroke="#63b8ff" points="451.4,-78.46 460.83,-73.64 450.45,-71.53 451.4,-78.46"/>
</a>
</g>
</g>
<!-- Node5 -->
<g id="Node000005" class="node">
<title>Node5</title>
<g id="a_Node000005"><a xlink:href="max22200_8c.html#a4a64a7cdccf998a19754b88cc67597a8" target="_top" xlink:title="Deallocates all the resources used at initialization.">
<polygon fill="white" stroke="#666666" points="421.5,-53 310.5,-53 310.5,-34 421.5,-34 421.5,-53"/>
<text text-anchor="middle" x="366" y="-41" font-family="Helvetica,sans-Serif" font-size="10.00">max22200_remove</text>
</a>
</g>
</g>
<!-- Node1&#45;&gt;Node5 -->
<g id="edge4_Node000001_Node000005" class="edge">
<title>Node1&#45;&gt;Node5</title>
<g id="a_edge4_Node000001_Node000005"><a xlink:title=" ">
<path fill="none" stroke="#63b8ff" d="M450.63,-54.44C440.79,-53.16 430.89,-51.86 421.51,-50.63"/>
<polygon fill="#63b8ff" stroke="#63b8ff" points="450.46,-57.95 460.83,-55.78 451.37,-51.01 450.46,-57.95"/>
</a>
</g>
</g>
<!-- Node3 -->
<g id="Node000003" class="node">
<title>Node3</title>
<g id="a_Node000003"><a xlink:href="iio__max22200_8c.html#a4c6e5b3b50c3baf4581ded343d8adf67" target="_top" xlink:title="Initializes the MAX22200 IIO descriptor.">
<polygon fill="white" stroke="#666666" points="260.5,-93 153.5,-93 153.5,-74 260.5,-74 260.5,-93"/>
<text text-anchor="middle" x="207" y="-81" font-family="Helvetica,sans-Serif" font-size="10.00">max22200_iio_init</text>
</a>
</g>
</g>
<!-- Node2&#45;&gt;Node3 -->
<g id="edge2_Node000002_Node000003" class="edge">
<title>Node2&#45;&gt;Node3</title>
<g id="a_edge2_Node000002_Node000003"><a xlink:title=" ">
<path fill="none" stroke="#63b8ff" d="M296.88,-85.2C284.72,-84.97 272.23,-84.73 260.59,-84.5"/>
<polygon fill="#63b8ff" stroke="#63b8ff" points="296.92,-88.7 306.99,-85.39 297.05,-81.7 296.92,-88.7"/>
</a>
</g>
</g>
<!-- Node4 -->
<g id="Node000004" class="node">
<title>Node4</title>
<g id="a_Node000004"><a xlink:href="max22200_2src_2examples_2iio__example_2iio__example_8c.html#a7d58fb707a91d4615d3bf949fabaa1e2" target="_top" xlink:title="IIO example main execution.">
<polygon fill="white" stroke="#666666" points="107,-56 0,-56 0,-37 107,-37 107,-56"/>
<text text-anchor="middle" x="53.5" y="-44" font-family="Helvetica,sans-Serif" font-size="10.00">iio_example_main</text>
</a>
</g>
</g>
<!-- Node3&#45;&gt;Node4 -->
<g id="edge3_Node000003_Node000004" class="edge">
<title>Node3&#45;&gt;Node4</title>
<g id="a_edge3_Node000003_Node000004"><a xlink:title=" ">
<path fill="none" stroke="#63b8ff" d="M157.17,-71.57C136.62,-66.56 113.03,-60.79 93.65,-56.06"/>
<polygon fill="#63b8ff" stroke="#63b8ff" points="156.44,-75 166.98,-73.97 158.1,-68.2 156.44,-75"/>
</a>
</g>
</g>
<!-- Node5&#45;&gt;Node3 -->
<g id="edge6_Node000005_Node000003" class="edge">
<title>Node5&#45;&gt;Node3</title>
<g id="a_edge6_Node000005_Node000003"><a xlink:title=" ">
<path fill="none" stroke="#63b8ff" d="M317.44,-55.62C294.3,-61.51 266.9,-68.49 245.3,-74"/>
<polygon fill="#63b8ff" stroke="#63b8ff" points="318.57,-58.94 327.39,-53.08 316.84,-52.16 318.57,-58.94"/>
</a>
</g>
</g>
<!-- Node6 -->
<g id="Node000006" class="node">
<title>Node6</title>
<g id="a_Node000006"><a xlink:href="max22200_2src_2examples_2basic_2basic__example_8c.html#a72943dc9011d36293cb05ca5d7cb6899" target="_top" xlink:title="basic example main execution.">
<polygon fill="white" stroke="#666666" points="267,-56 147,-56 147,-37 267,-37 267,-56"/>
<text text-anchor="middle" x="207" y="-44" font-family="Helvetica,sans-Serif" font-size="10.00">basic_example_main</text>
</a>
</g>
</g>
<!-- Node5&#45;&gt;Node6 -->
<g id="edge5_Node000005_Node000006" class="edge">
<title>Node5&#45;&gt;Node6</title>
<g id="a_edge5_Node000005_Node000006"><a xlink:title=" ">
<path fill="none" stroke="#63b8ff" d="M299.84,-44.75C289.01,-44.95 277.83,-45.17 267.16,-45.37"/>
<polygon fill="#63b8ff" stroke="#63b8ff" points="300.16,-48.24 310.09,-44.55 300.02,-41.24 300.16,-48.24"/>
</a>
</g>
</g>
<!-- Node7 -->
<g id="Node000007" class="node">
<title>Node7</title>
<g id="a_Node000007"><a xlink:href="iio__max22200_8c.html#a0c38e46e3759dbe43f2879f04faf4489" target="_top" xlink:title="Free resources allocated by the init function.">
<polygon fill="white" stroke="#666666" points="271,-19 143,-19 143,0 271,0 271,-19"/>
<text text-anchor="middle" x="207" y="-7" font-family="Helvetica,sans-Serif" font-size="10.00">max22200_iio_remove</text>
</a>
</g>
</g>
<!-- Node5&#45;&gt;Node7 -->
<g id="edge7_Node000005_Node000007" class="edge">
<title>Node5&#45;&gt;Node7</title>
<g id="a_edge7_Node000005_Node000007"><a xlink:title=" ">
<path fill="none" stroke="#63b8ff" d="M311.02,-31.81C291.8,-27.65 270.39,-23.01 252.09,-19.05"/>
<polygon fill="#63b8ff" stroke="#63b8ff" points="310.33,-35.24 320.85,-33.94 311.82,-28.4 310.33,-35.24"/>
</a>
</g>
</g>
<!-- Node7&#45;&gt;Node4 -->
<g id="edge8_Node000007_Node000004" class="edge">
<title>Node7&#45;&gt;Node4</title>
<g id="a_edge8_Node000007_Node000004"><a xlink:title=" ">
<path fill="none" stroke="#63b8ff" d="M157.17,-21.43C136.62,-26.44 113.03,-32.21 93.65,-36.94"/>
<polygon fill="#63b8ff" stroke="#63b8ff" points="158.1,-24.8 166.98,-19.03 156.44,-18 158.1,-24.8"/>
</a>
</g>
</g>
</g>
</svg>
