<?xml version="1.0" encoding="UTF-8" standalone="no"?>
<!DOCTYPE svg PUBLIC "-//W3C//DTD SVG 1.1//EN"
 "http://www.w3.org/Graphics/SVG/1.1/DTD/svg11.dtd">
<!-- Generated by graphviz version 2.43.0 (0)
 -->
<!-- Title: drivers/led/max25603/max25603.c Pages: 1 -->
<svg width="645pt" height="203pt"
 viewBox="0.00 0.00 645.02 203.00" xmlns="http://www.w3.org/2000/svg" xmlns:xlink="http://www.w3.org/1999/xlink">
<g id="graph0" class="graph" transform="scale(1 1) rotate(0) translate(4 199)">
<title>drivers/led/max25603/max25603.c</title>
<!-- Node1 -->
<g id="Node000001" class="node">
<title>Node1</title>
<g id="a_Node000001"><a xlink:title="Source file of MAX25603 Driver.">
<polygon fill="#999999" stroke="#666666" points="402.52,-195 279.52,-195 279.52,-165 402.52,-165 402.52,-195"/>
<text text-anchor="start" x="287.52" y="-183" font-family="Helvetica,sans-Serif" font-size="10.00">drivers/led/max25603</text>
<text text-anchor="middle" x="341.02" y="-172" font-family="Helvetica,sans-Serif" font-size="10.00">/max25603.c</text>
</a>
</g>
</g>
<!-- Node2 -->
<g id="Node000002" class="node">
<title>Node2</title>
<g id="a_Node000002"><a xlink:href="max25603_8h.html" target="_top" xlink:title="Header file of MAX25603 Driver.">
<polygon fill="white" stroke="#666666" points="330.52,-129 253.52,-129 253.52,-110 330.52,-110 330.52,-129"/>
<text text-anchor="middle" x="292.02" y="-117" font-family="Helvetica,sans-Serif" font-size="10.00">max25603.h</text>
</a>
</g>
</g>
<!-- Node1&#45;&gt;Node2 -->
<g id="edge1_Node000001_Node000002" class="edge">
<title>Node1&#45;&gt;Node2</title>
<g id="a_edge1_Node000001_Node000002"><a xlink:title=" ">
<path fill="none" stroke="#63b8ff" d="M329.15,-164.84C322.11,-156.43 313.16,-145.74 305.8,-136.96"/>
<polygon fill="#63b8ff" stroke="#63b8ff" points="308.46,-134.68 299.36,-129.27 303.1,-139.18 308.46,-134.68"/>
</a>
</g>
</g>
<!-- Node12 -->
<g id="Node000012" class="node">
<title>Node12</title>
<g id="a_Node000012"><a xlink:href="no__os__delay_8h.html" target="_top" xlink:title="Header file of Delay functions.">
<polygon fill="white" stroke="#666666" points="146.52,-129 61.52,-129 61.52,-110 146.52,-110 146.52,-129"/>
<text text-anchor="middle" x="104.02" y="-117" font-family="Helvetica,sans-Serif" font-size="10.00">no_os_delay.h</text>
</a>
</g>
</g>
<!-- Node1&#45;&gt;Node12 -->
<g id="edge16_Node000001_Node000012" class="edge">
<title>Node1&#45;&gt;Node12</title>
<g id="a_edge16_Node000001_Node000012"><a xlink:title=" ">
<path fill="none" stroke="#63b8ff" d="M284.25,-164.99C242.64,-154.72 186.94,-140.97 148.53,-131.49"/>
<polygon fill="#63b8ff" stroke="#63b8ff" points="149.22,-128.05 138.67,-129.05 147.54,-134.85 149.22,-128.05"/>
</a>
</g>
</g>
<!-- Node13 -->
<g id="Node000013" class="node">
<title>Node13</title>
<g id="a_Node000013"><a xlink:href="no__os__units_8h.html" target="_top" xlink:title="Header file of Units.">
<polygon fill="white" stroke="#666666" points="634.52,-129 551.52,-129 551.52,-110 634.52,-110 634.52,-129"/>
<text text-anchor="middle" x="593.02" y="-117" font-family="Helvetica,sans-Serif" font-size="10.00">no_os_units.h</text>
</a>
</g>
</g>
<!-- Node1&#45;&gt;Node13 -->
<g id="edge18_Node000001_Node000013" class="edge">
<title>Node1&#45;&gt;Node13</title>
<g id="a_edge18_Node000001_Node000013"><a xlink:title=" ">
<path fill="none" stroke="#63b8ff" d="M401.38,-164.99C445.81,-154.67 505.35,-140.85 546.21,-131.37"/>
<polygon fill="#63b8ff" stroke="#63b8ff" points="547.22,-134.72 556.17,-129.05 545.64,-127.91 547.22,-134.72"/>
</a>
</g>
</g>
<!-- Node14 -->
<g id="Node000014" class="node">
<title>Node14</title>
<g id="a_Node000014"><a xlink:href="no__os__alloc_8h.html" target="_top" xlink:title=" ">
<polygon fill="white" stroke="#666666" points="533.52,-129 450.52,-129 450.52,-110 533.52,-110 533.52,-129"/>
<text text-anchor="middle" x="492.02" y="-117" font-family="Helvetica,sans-Serif" font-size="10.00">no_os_alloc.h</text>
</a>
</g>
</g>
<!-- Node1&#45;&gt;Node14 -->
<g id="edge19_Node000001_Node000014" class="edge">
<title>Node1&#45;&gt;Node14</title>
<g id="a_edge19_Node000001_Node000014"><a xlink:title=" ">
<path fill="none" stroke="#63b8ff" d="M377.18,-164.99C402.49,-155.18 435.98,-142.21 460.25,-132.81"/>
<polygon fill="#63b8ff" stroke="#63b8ff" points="461.66,-136.02 469.72,-129.14 459.13,-129.49 461.66,-136.02"/>
</a>
</g>
</g>
<!-- Node3 -->
<g id="Node000003" class="node">
<title>Node3</title>
<g id="a_Node000003"><a xlink:title=" ">
<polygon fill="#e0e0e0" stroke="#999999" points="358.02,-19 296.02,-19 296.02,0 358.02,0 358.02,-19"/>
<text text-anchor="middle" x="327.02" y="-7" font-family="Helvetica,sans-Serif" font-size="10.00">stdbool.h</text>
</a>
</g>
</g>
<!-- Node2&#45;&gt;Node3 -->
<g id="edge2_Node000002_Node000003" class="edge">
<title>Node2&#45;&gt;Node3</title>
<g id="a_edge2_Node000002_Node000003"><a xlink:title=" ">
<path fill="none" stroke="#63b8ff" d="M294.94,-109.99C298,-101.04 302.92,-86.56 307.02,-74 311.95,-58.87 317.36,-41.65 321.31,-28.96"/>
<polygon fill="#63b8ff" stroke="#63b8ff" points="324.73,-29.73 324.35,-19.15 318.05,-27.66 324.73,-29.73"/>
</a>
</g>
</g>
<!-- Node4 -->
<g id="Node000004" class="node">
<title>Node4</title>
<g id="a_Node000004"><a xlink:title=" ">
<polygon fill="#e0e0e0" stroke="#999999" points="112.52,-19 59.52,-19 59.52,0 112.52,0 112.52,-19"/>
<text text-anchor="middle" x="86.02" y="-7" font-family="Helvetica,sans-Serif" font-size="10.00">stdint.h</text>
</a>
</g>
</g>
<!-- Node2&#45;&gt;Node4 -->
<g id="edge3_Node000002_Node000004" class="edge">
<title>Node2&#45;&gt;Node4</title>
<g id="a_edge3_Node000002_Node000004"><a xlink:title=" ">
<path fill="none" stroke="#63b8ff" d="M253.45,-114.5C185.62,-107.07 50.81,-90.4 37.02,-74 23.17,-57.53 43.89,-37.81 62.5,-24.76"/>
<polygon fill="#63b8ff" stroke="#63b8ff" points="64.63,-27.54 71.03,-19.1 60.76,-21.71 64.63,-27.54"/>
</a>
</g>
</g>
<!-- Node5 -->
<g id="Node000005" class="node">
<title>Node5</title>
<g id="a_Node000005"><a xlink:title=" ">
<polygon fill="#e0e0e0" stroke="#999999" points="197.52,-74 144.52,-74 144.52,-55 197.52,-55 197.52,-74"/>
<text text-anchor="middle" x="171.02" y="-62" font-family="Helvetica,sans-Serif" font-size="10.00">string.h</text>
</a>
</g>
</g>
<!-- Node2&#45;&gt;Node5 -->
<g id="edge4_Node000002_Node000005" class="edge">
<title>Node2&#45;&gt;Node5</title>
<g id="a_edge4_Node000002_Node000005"><a xlink:title=" ">
<path fill="none" stroke="#63b8ff" d="M272.58,-109.98C253.02,-101.42 222.64,-88.11 200.19,-78.28"/>
<polygon fill="#63b8ff" stroke="#63b8ff" points="201.37,-74.98 190.81,-74.17 198.57,-81.39 201.37,-74.98"/>
</a>
</g>
</g>
<!-- Node6 -->
<g id="Node000006" class="node">
<title>Node6</title>
<g id="a_Node000006"><a xlink:href="no__os__gpio_8h.html" target="_top" xlink:title="Header file of GPIO Interface.">
<polygon fill="white" stroke="#666666" points="126.02,-74 46.02,-74 46.02,-55 126.02,-55 126.02,-74"/>
<text text-anchor="middle" x="86.02" y="-62" font-family="Helvetica,sans-Serif" font-size="10.00">no_os_gpio.h</text>
</a>
</g>
</g>
<!-- Node2&#45;&gt;Node6 -->
<g id="edge5_Node000002_Node000006" class="edge">
<title>Node2&#45;&gt;Node6</title>
<g id="a_edge5_Node000002_Node000006"><a xlink:title=" ">
<path fill="none" stroke="#63b8ff" d="M258.92,-109.98C223.73,-100.93 167.95,-86.58 129.3,-76.64"/>
<polygon fill="#63b8ff" stroke="#63b8ff" points="129.93,-73.18 119.37,-74.08 128.19,-79.96 129.93,-73.18"/>
</a>
</g>
</g>
<!-- Node7 -->
<g id="Node000007" class="node">
<title>Node7</title>
<g id="a_Node000007"><a xlink:href="no__os__pwm_8h.html" target="_top" xlink:title="Header file of PWM Interface.">
<polygon fill="white" stroke="#666666" points="298.52,-74 215.52,-74 215.52,-55 298.52,-55 298.52,-74"/>
<text text-anchor="middle" x="257.02" y="-62" font-family="Helvetica,sans-Serif" font-size="10.00">no_os_pwm.h</text>
</a>
</g>
</g>
<!-- Node2&#45;&gt;Node7 -->
<g id="edge7_Node000002_Node000007" class="edge">
<title>Node2&#45;&gt;Node7</title>
<g id="a_edge7_Node000002_Node000007"><a xlink:title=" ">
<path fill="none" stroke="#63b8ff" d="M286.24,-109.75C281.39,-102.42 274.34,-91.73 268.37,-82.7"/>
<polygon fill="#63b8ff" stroke="#63b8ff" points="271.12,-80.5 262.69,-74.09 265.28,-84.36 271.12,-80.5"/>
</a>
</g>
</g>
<!-- Node8 -->
<g id="Node000008" class="node">
<title>Node8</title>
<g id="a_Node000008"><a xlink:href="no__os__util_8h.html" target="_top" xlink:title="Header file of utility functions.">
<polygon fill="white" stroke="#666666" points="430.52,-74 355.52,-74 355.52,-55 430.52,-55 430.52,-74"/>
<text text-anchor="middle" x="393.02" y="-62" font-family="Helvetica,sans-Serif" font-size="10.00">no_os_util.h</text>
</a>
</g>
</g>
<!-- Node2&#45;&gt;Node8 -->
<g id="edge10_Node000002_Node000008" class="edge">
<title>Node2&#45;&gt;Node8</title>
<g id="a_edge10_Node000002_Node000008"><a xlink:title=" ">
<path fill="none" stroke="#63b8ff" d="M308.24,-109.98C324.2,-101.61 348.8,-88.7 367.39,-78.95"/>
<polygon fill="#63b8ff" stroke="#63b8ff" points="369.26,-81.92 376.49,-74.17 366.01,-75.72 369.26,-81.92"/>
</a>
</g>
</g>
<!-- Node10 -->
<g id="Node000010" class="node">
<title>Node10</title>
<g id="a_Node000010"><a xlink:href="no__os__error_8h.html" target="_top" xlink:title="Error codes definition.">
<polygon fill="white" stroke="#666666" points="531.02,-74 449.02,-74 449.02,-55 531.02,-55 531.02,-74"/>
<text text-anchor="middle" x="490.02" y="-62" font-family="Helvetica,sans-Serif" font-size="10.00">no_os_error.h</text>
</a>
</g>
</g>
<!-- Node2&#45;&gt;Node10 -->
<g id="edge14_Node000002_Node000010" class="edge">
<title>Node2&#45;&gt;Node10</title>
<g id="a_edge14_Node000002_Node000010"><a xlink:title=" ">
<path fill="none" stroke="#63b8ff" d="M323.83,-109.98C357.5,-100.97 410.81,-86.7 447.94,-76.76"/>
<polygon fill="#63b8ff" stroke="#63b8ff" points="449.2,-80.05 457.95,-74.08 447.39,-73.29 449.2,-80.05"/>
</a>
</g>
</g>
<!-- Node6&#45;&gt;Node4 -->
<g id="edge6_Node000006_Node000004" class="edge">
<title>Node6&#45;&gt;Node4</title>
<g id="a_edge6_Node000006_Node000004"><a xlink:title=" ">
<path fill="none" stroke="#63b8ff" d="M86.02,-54.75C86.02,-47.8 86.02,-37.85 86.02,-29.13"/>
<polygon fill="#63b8ff" stroke="#63b8ff" points="89.52,-29.09 86.02,-19.09 82.52,-29.09 89.52,-29.09"/>
</a>
</g>
</g>
<!-- Node7&#45;&gt;Node3 -->
<g id="edge9_Node000007_Node000003" class="edge">
<title>Node7&#45;&gt;Node3</title>
<g id="a_edge9_Node000007_Node000003"><a xlink:title=" ">
<path fill="none" stroke="#63b8ff" d="M268.26,-54.98C278.81,-47 294.82,-34.88 307.46,-25.31"/>
<polygon fill="#63b8ff" stroke="#63b8ff" points="309.7,-28 315.56,-19.17 305.48,-22.42 309.7,-28"/>
</a>
</g>
</g>
<!-- Node7&#45;&gt;Node4 -->
<g id="edge8_Node000007_Node000004" class="edge">
<title>Node7&#45;&gt;Node4</title>
<g id="a_edge8_Node000007_Node000004"><a xlink:title=" ">
<path fill="none" stroke="#63b8ff" d="M229.54,-54.98C200.49,-45.98 154.52,-31.73 122.46,-21.8"/>
<polygon fill="#63b8ff" stroke="#63b8ff" points="123.17,-18.35 112.58,-18.73 121.09,-25.04 123.17,-18.35"/>
</a>
</g>
</g>
<!-- Node8&#45;&gt;Node3 -->
<g id="edge13_Node000008_Node000003" class="edge">
<title>Node8&#45;&gt;Node3</title>
<g id="a_edge13_Node000008_Node000003"><a xlink:title=" ">
<path fill="none" stroke="#63b8ff" d="M382.41,-54.98C372.56,-47.07 357.67,-35.11 345.8,-25.58"/>
<polygon fill="#63b8ff" stroke="#63b8ff" points="347.8,-22.7 337.81,-19.17 343.42,-28.16 347.8,-22.7"/>
</a>
</g>
</g>
<!-- Node8&#45;&gt;Node4 -->
<g id="edge11_Node000008_Node000004" class="edge">
<title>Node8&#45;&gt;Node4</title>
<g id="a_edge11_Node000008_Node000004"><a xlink:title=" ">
<path fill="none" stroke="#63b8ff" d="M355.37,-57C296.01,-46.75 181.39,-26.96 122.66,-16.83"/>
<polygon fill="#63b8ff" stroke="#63b8ff" points="123.16,-13.36 112.71,-15.11 121.97,-20.26 123.16,-13.36"/>
</a>
</g>
</g>
<!-- Node9 -->
<g id="Node000009" class="node">
<title>Node9</title>
<g id="a_Node000009"><a xlink:title=" ">
<polygon fill="#e0e0e0" stroke="#999999" points="585.52,-19 532.52,-19 532.52,0 585.52,0 585.52,-19"/>
<text text-anchor="middle" x="559.02" y="-7" font-family="Helvetica,sans-Serif" font-size="10.00">stdlib.h</text>
</a>
</g>
</g>
<!-- Node8&#45;&gt;Node9 -->
<g id="edge12_Node000008_Node000009" class="edge">
<title>Node8&#45;&gt;Node9</title>
<g id="a_edge12_Node000008_Node000009"><a xlink:title=" ">
<path fill="none" stroke="#63b8ff" d="M419.69,-54.98C447.64,-46.06 491.73,-31.98 522.81,-22.06"/>
<polygon fill="#63b8ff" stroke="#63b8ff" points="523.95,-25.37 532.41,-18.99 521.82,-18.7 523.95,-25.37"/>
</a>
</g>
</g>
<!-- Node11 -->
<g id="Node000011" class="node">
<title>Node11</title>
<g id="a_Node000011"><a xlink:href="errno_8h.html" target="_top" xlink:title="Error macro definition for ARM Compiler.">
<polygon fill="white" stroke="#666666" points="514.52,-19 463.52,-19 463.52,0 514.52,0 514.52,-19"/>
<text text-anchor="middle" x="489.02" y="-7" font-family="Helvetica,sans-Serif" font-size="10.00">errno.h</text>
</a>
</g>
</g>
<!-- Node10&#45;&gt;Node11 -->
<g id="edge15_Node000010_Node000011" class="edge">
<title>Node10&#45;&gt;Node11</title>
<g id="a_edge15_Node000010_Node000011"><a xlink:title=" ">
<path fill="none" stroke="#63b8ff" d="M489.85,-54.75C489.72,-47.8 489.53,-37.85 489.37,-29.13"/>
<polygon fill="#63b8ff" stroke="#63b8ff" points="492.87,-29.02 489.18,-19.09 485.87,-29.15 492.87,-29.02"/>
</a>
</g>
</g>
<!-- Node12&#45;&gt;Node4 -->
<g id="edge17_Node000012_Node000004" class="edge">
<title>Node12&#45;&gt;Node4</title>
<g id="a_edge17_Node000012_Node000004"><a xlink:title=" ">
<path fill="none" stroke="#63b8ff" d="M61.4,-110.82C40.33,-104.64 16.75,-93.6 4.02,-74 -11.05,-50.8 21.5,-32.58 49.94,-21.71"/>
<polygon fill="#63b8ff" stroke="#63b8ff" points="51.14,-25 59.35,-18.31 48.76,-18.42 51.14,-25"/>
</a>
</g>
</g>
<!-- Node14&#45;&gt;Node9 -->
<g id="edge21_Node000014_Node000009" class="edge">
<title>Node14&#45;&gt;Node9</title>
<g id="a_edge21_Node000014_Node000009"><a xlink:title=" ">
<path fill="none" stroke="#63b8ff" d="M504.82,-109.69C515.68,-101.6 530.89,-88.66 540.02,-74 548.57,-60.26 553.46,-42.46 556.13,-29.2"/>
<polygon fill="#63b8ff" stroke="#63b8ff" points="559.58,-29.78 557.88,-19.32 552.69,-28.55 559.58,-29.78"/>
</a>
</g>
</g>
<!-- Node15 -->
<g id="Node000015" class="node">
<title>Node15</title>
<g id="a_Node000015"><a xlink:title=" ">
<polygon fill="#e0e0e0" stroke="#999999" points="637.02,-74 587.02,-74 587.02,-55 637.02,-55 637.02,-74"/>
<text text-anchor="middle" x="612.02" y="-62" font-family="Helvetica,sans-Serif" font-size="10.00">stdio.h</text>
</a>
</g>
</g>
<!-- Node14&#45;&gt;Node15 -->
<g id="edge20_Node000014_Node000015" class="edge">
<title>Node14&#45;&gt;Node15</title>
<g id="a_edge20_Node000014_Node000015"><a xlink:title=" ">
<path fill="none" stroke="#63b8ff" d="M511.3,-109.98C530.69,-101.42 560.82,-88.11 583.08,-78.28"/>
<polygon fill="#63b8ff" stroke="#63b8ff" points="584.65,-81.41 592.39,-74.17 581.82,-75.01 584.65,-81.41"/>
</a>
</g>
</g>
</g>
</svg>
