<?xml version="1.0" encoding="UTF-8" standalone="no"?>
<!DOCTYPE svg PUBLIC "-//W3C//DTD SVG 1.1//EN"
 "http://www.w3.org/Graphics/SVG/1.1/DTD/svg11.dtd">
<!-- Generated by graphviz version 2.43.0 (0)
 -->
<!-- Title: max25603_set_enable Pages: 1 -->
<svg width="385pt" height="46pt"
 viewBox="0.00 0.00 385.00 46.00" xmlns="http://www.w3.org/2000/svg" xmlns:xlink="http://www.w3.org/1999/xlink">
<g id="graph0" class="graph" transform="scale(1 1) rotate(0) translate(4 42)">
<title>max25603_set_enable</title>
<!-- Node1 -->
<g id="Node000001" class="node">
<title>Node1</title>
<g id="a_Node000001"><a xlink:title="MAX25603 set and configure ENABLE PWM dimming.">
<polygon fill="#999999" stroke="#666666" points="377,-38 250,-38 250,-19 377,-19 377,-38"/>
<text text-anchor="middle" x="313.5" y="-26" font-family="Helvetica,sans-Serif" font-size="10.00">max25603_set_enable</text>
</a>
</g>
</g>
<!-- Node2 -->
<g id="Node000002" class="node">
<title>Node2</title>
<g id="a_Node000002"><a xlink:href="max25603_2src_2examples_2basic_2basic__example_8c.html#ac25cbf8ae523e89cb0617e68c98bc697" target="_top" xlink:title="Basic example main executiont.">
<polygon fill="white" stroke="#666666" points="89,-38 0,-38 0,-19 89,-19 89,-38"/>
<text text-anchor="middle" x="44.5" y="-26" font-family="Helvetica,sans-Serif" font-size="10.00">example_main</text>
</a>
</g>
</g>
<!-- Node1&#45;&gt;Node2 -->
<g id="edge1_Node000001_Node000002" class="edge">
<title>Node1&#45;&gt;Node2</title>
<g id="a_edge1_Node000001_Node000002"><a xlink:title=" ">
<path fill="none" stroke="#63b8ff" d="M239.85,-28.5C191.72,-28.5 130.16,-28.5 89.37,-28.5"/>
<polygon fill="#63b8ff" stroke="#63b8ff" points="239.9,-32 249.9,-28.5 239.9,-25 239.9,-32"/>
</a>
</g>
</g>
<!-- Node3 -->
<g id="Node000003" class="node">
<title>Node3</title>
<g id="a_Node000003"><a xlink:href="max25603_8c.html#aeacd01230e74bebbc2311031c4d8bf42" target="_top" xlink:title="MAX25603 descriptor initialization function.">
<polygon fill="white" stroke="#666666" points="214,-19 125,-19 125,0 214,0 214,-19"/>
<text text-anchor="middle" x="169.5" y="-7" font-family="Helvetica,sans-Serif" font-size="10.00">max25603_init</text>
</a>
</g>
</g>
<!-- Node1&#45;&gt;Node3 -->
<g id="edge2_Node000001_Node000003" class="edge">
<title>Node1&#45;&gt;Node3</title>
<g id="a_edge2_Node000001_Node000003"><a xlink:title=" ">
<path fill="none" stroke="#63b8ff" d="M239.89,-18.78C231.09,-17.61 222.33,-16.43 214.14,-15.34"/>
<polygon fill="#63b8ff" stroke="#63b8ff" points="239.43,-22.25 249.8,-20.11 240.36,-15.32 239.43,-22.25"/>
</a>
</g>
</g>
<!-- Node3&#45;&gt;Node2 -->
<g id="edge3_Node000003_Node000002" class="edge">
<title>Node3&#45;&gt;Node2</title>
<g id="a_edge3_Node000003_Node000002"><a xlink:title=" ">
<path fill="none" stroke="#63b8ff" d="M114.82,-17.79C106.22,-19.12 97.4,-20.48 89.07,-21.77"/>
<polygon fill="#63b8ff" stroke="#63b8ff" points="115.44,-21.24 124.79,-16.25 114.37,-14.32 115.44,-21.24"/>
</a>
</g>
</g>
</g>
</svg>
