<?xml version="1.0" encoding="UTF-8" standalone="no"?>
<!DOCTYPE svg PUBLIC "-//W3C//DTD SVG 1.1//EN"
 "http://www.w3.org/Graphics/SVG/1.1/DTD/svg11.dtd">
<!-- Generated by graphviz version 2.43.0 (0)
 -->
<!-- Title: projects/max22196/src/examples/basic/basic_example.c Pages: 1 -->
<svg width="743pt" height="214pt"
 viewBox="0.00 0.00 742.69 214.00" xmlns="http://www.w3.org/2000/svg" xmlns:xlink="http://www.w3.org/1999/xlink">
<g id="graph0" class="graph" transform="scale(1 1) rotate(0) translate(4 210)">
<title>projects/max22196/src/examples/basic/basic_example.c</title>
<!-- Node1 -->
<g id="Node000001" class="node">
<title>Node1</title>
<g id="a_Node000001"><a xlink:title="Basic example sources file for max22196.">
<polygon fill="#999999" stroke="#666666" points="508.69,-206 380.69,-206 380.69,-165 508.69,-165 508.69,-206"/>
<text text-anchor="start" x="388.69" y="-194" font-family="Helvetica,sans-Serif" font-size="10.00">projects/max22196/src</text>
<text text-anchor="start" x="388.69" y="-183" font-family="Helvetica,sans-Serif" font-size="10.00">/examples/basic/basic</text>
<text text-anchor="middle" x="444.69" y="-172" font-family="Helvetica,sans-Serif" font-size="10.00">_example.c</text>
</a>
</g>
</g>
<!-- Node2 -->
<g id="Node000002" class="node">
<title>Node2</title>
<g id="a_Node000002"><a xlink:title=" ">
<polygon fill="#e0e0e0" stroke="#999999" points="211.19,-129 116.19,-129 116.19,-110 211.19,-110 211.19,-129"/>
<text text-anchor="middle" x="163.69" y="-117" font-family="Helvetica,sans-Serif" font-size="10.00">common_data.h</text>
</a>
</g>
</g>
<!-- Node1&#45;&gt;Node2 -->
<g id="edge1_Node000001_Node000002" class="edge">
<title>Node1&#45;&gt;Node2</title>
<g id="a_edge1_Node000001_Node000002"><a xlink:title=" ">
<path fill="none" stroke="#63b8ff" d="M380.58,-169.9C328.96,-158.14 257.6,-141.89 211.05,-131.29"/>
<polygon fill="#63b8ff" stroke="#63b8ff" points="211.75,-127.86 201.22,-129.05 210.19,-134.68 211.75,-127.86"/>
</a>
</g>
</g>
<!-- Node3 -->
<g id="Node000003" class="node">
<title>Node3</title>
<g id="a_Node000003"><a xlink:href="no__os__uart_8h.html" target="_top" xlink:title="Header file of UART interface.">
<polygon fill="white" stroke="#666666" points="308.19,-129 229.19,-129 229.19,-110 308.19,-110 308.19,-129"/>
<text text-anchor="middle" x="268.69" y="-117" font-family="Helvetica,sans-Serif" font-size="10.00">no_os_uart.h</text>
</a>
</g>
</g>
<!-- Node1&#45;&gt;Node3 -->
<g id="edge2_Node000001_Node000003" class="edge">
<title>Node1&#45;&gt;Node3</title>
<g id="a_edge2_Node000001_Node000003"><a xlink:title=" ">
<path fill="none" stroke="#63b8ff" d="M390.93,-164.95C361.83,-154.37 326.83,-141.64 301.74,-132.52"/>
<polygon fill="#63b8ff" stroke="#63b8ff" points="302.91,-129.22 292.32,-129.09 300.52,-135.8 302.91,-129.22"/>
</a>
</g>
</g>
<!-- Node8 -->
<g id="Node000008" class="node">
<title>Node8</title>
<g id="a_Node000008"><a xlink:href="max22196_8h.html" target="_top" xlink:title="Header file of MAX22196 Driver.">
<polygon fill="white" stroke="#666666" points="435.19,-129 358.19,-129 358.19,-110 435.19,-110 435.19,-129"/>
<text text-anchor="middle" x="396.69" y="-117" font-family="Helvetica,sans-Serif" font-size="10.00">max22196.h</text>
</a>
</g>
</g>
<!-- Node1&#45;&gt;Node8 -->
<g id="edge9_Node000001_Node000008" class="edge">
<title>Node1&#45;&gt;Node8</title>
<g id="a_edge9_Node000001_Node000008"><a xlink:title=" ">
<path fill="none" stroke="#63b8ff" d="M430.03,-164.95C423.4,-156.11 415.64,-145.77 409.28,-137.29"/>
<polygon fill="#63b8ff" stroke="#63b8ff" points="412.06,-135.16 403.26,-129.26 406.46,-139.36 412.06,-135.16"/>
</a>
</g>
</g>
<!-- Node12 -->
<g id="Node000012" class="node">
<title>Node12</title>
<g id="a_Node000012"><a xlink:href="no__os__delay_8h.html" target="_top" xlink:title="Header file of Delay functions.">
<polygon fill="white" stroke="#666666" points="610.19,-74 525.19,-74 525.19,-55 610.19,-55 610.19,-74"/>
<text text-anchor="middle" x="567.69" y="-62" font-family="Helvetica,sans-Serif" font-size="10.00">no_os_delay.h</text>
</a>
</g>
</g>
<!-- Node1&#45;&gt;Node12 -->
<g id="edge20_Node000001_Node000012" class="edge">
<title>Node1&#45;&gt;Node12</title>
<g id="a_edge20_Node000001_Node000012"><a xlink:title=" ">
<path fill="none" stroke="#63b8ff" d="M465,-164.85C489.19,-141.45 529.1,-102.83 551.38,-81.28"/>
<polygon fill="#63b8ff" stroke="#63b8ff" points="553.97,-83.64 558.72,-74.18 549.1,-78.61 553.97,-83.64"/>
</a>
</g>
</g>
<!-- Node13 -->
<g id="Node000013" class="node">
<title>Node13</title>
<g id="a_Node000013"><a xlink:href="no__os__print__log_8h.html" target="_top" xlink:title="Print messages helpers.">
<polygon fill="white" stroke="#666666" points="734.69,-129 632.69,-129 632.69,-110 734.69,-110 734.69,-129"/>
<text text-anchor="middle" x="683.69" y="-117" font-family="Helvetica,sans-Serif" font-size="10.00">no_os_print_log.h</text>
</a>
</g>
</g>
<!-- Node1&#45;&gt;Node13 -->
<g id="edge22_Node000001_Node000013" class="edge">
<title>Node1&#45;&gt;Node13</title>
<g id="a_edge22_Node000001_Node000013"><a xlink:title=" ">
<path fill="none" stroke="#63b8ff" d="M508.74,-167.35C550.95,-156.05 605.03,-141.56 641.81,-131.71"/>
<polygon fill="#63b8ff" stroke="#63b8ff" points="642.95,-135.03 651.7,-129.07 641.14,-128.27 642.95,-135.03"/>
</a>
</g>
</g>
<!-- Node15 -->
<g id="Node000015" class="node">
<title>Node15</title>
<g id="a_Node000015"><a xlink:href="no__os__irq_8h.html" target="_top" xlink:title="Header file of IRQ interface.">
<polygon fill="white" stroke="#666666" points="607.69,-129 535.69,-129 535.69,-110 607.69,-110 607.69,-129"/>
<text text-anchor="middle" x="571.69" y="-117" font-family="Helvetica,sans-Serif" font-size="10.00">no_os_irq.h</text>
</a>
</g>
</g>
<!-- Node1&#45;&gt;Node15 -->
<g id="edge24_Node000001_Node000015" class="edge">
<title>Node1&#45;&gt;Node15</title>
<g id="a_edge24_Node000001_Node000015"><a xlink:title=" ">
<path fill="none" stroke="#63b8ff" d="M483.48,-164.95C503.55,-154.84 527.51,-142.76 545.39,-133.75"/>
<polygon fill="#63b8ff" stroke="#63b8ff" points="547.29,-136.72 554.64,-129.09 544.14,-130.47 547.29,-136.72"/>
</a>
</g>
</g>
<!-- Node4 -->
<g id="Node000004" class="node">
<title>Node4</title>
<g id="a_Node000004"><a xlink:title=" ">
<polygon fill="#e0e0e0" stroke="#999999" points="407.19,-19 354.19,-19 354.19,0 407.19,0 407.19,-19"/>
<text text-anchor="middle" x="380.69" y="-7" font-family="Helvetica,sans-Serif" font-size="10.00">stdint.h</text>
</a>
</g>
</g>
<!-- Node3&#45;&gt;Node4 -->
<g id="edge3_Node000003_Node000004" class="edge">
<title>Node3&#45;&gt;Node4</title>
<g id="a_edge3_Node000003_Node000004"><a xlink:title=" ">
<path fill="none" stroke="#63b8ff" d="M269.12,-109.64C270.22,-96.3 274.08,-70.91 287.69,-55 302.25,-37.97 324.81,-26.96 344.06,-20.15"/>
<polygon fill="#63b8ff" stroke="#63b8ff" points="345.36,-23.4 353.77,-16.96 343.18,-16.75 345.36,-23.4"/>
</a>
</g>
</g>
<!-- Node5 -->
<g id="Node000005" class="node">
<title>Node5</title>
<g id="a_Node000005"><a xlink:title=" ">
<polygon fill="#e0e0e0" stroke="#999999" points="88.69,-19 26.69,-19 26.69,0 88.69,0 88.69,-19"/>
<text text-anchor="middle" x="57.69" y="-7" font-family="Helvetica,sans-Serif" font-size="10.00">stdbool.h</text>
</a>
</g>
</g>
<!-- Node3&#45;&gt;Node5 -->
<g id="edge4_Node000003_Node000005" class="edge">
<title>Node3&#45;&gt;Node5</title>
<g id="a_edge4_Node000003_Node000005"><a xlink:title=" ">
<path fill="none" stroke="#63b8ff" d="M229.11,-111.61C225.93,-111.07 222.75,-110.52 219.69,-110 171.94,-101.86 35.99,-110.97 4.69,-74 -9.7,-57.01 12.79,-37.3 32.76,-24.41"/>
<polygon fill="#63b8ff" stroke="#63b8ff" points="34.63,-27.37 41.33,-19.16 30.97,-21.4 34.63,-27.37"/>
</a>
</g>
</g>
<!-- Node6 -->
<g id="Node000006" class="node">
<title>Node6</title>
<g id="a_Node000006"><a xlink:href="no__os__lf256fifo_8h.html" target="_top" xlink:title="SPSC lock&#45;free fifo of fixed size (256), specialized for UART.">
<polygon fill="white" stroke="#666666" points="146.69,-74 46.69,-74 46.69,-55 146.69,-55 146.69,-74"/>
<text text-anchor="middle" x="96.69" y="-62" font-family="Helvetica,sans-Serif" font-size="10.00">no_os_lf256fifo.h</text>
</a>
</g>
</g>
<!-- Node3&#45;&gt;Node6 -->
<g id="edge5_Node000003_Node000006" class="edge">
<title>Node3&#45;&gt;Node6</title>
<g id="a_edge5_Node000003_Node000006"><a xlink:title=" ">
<path fill="none" stroke="#63b8ff" d="M241.06,-109.98C212.18,-101.09 166.68,-87.07 134.49,-77.15"/>
<polygon fill="#63b8ff" stroke="#63b8ff" points="135.13,-73.68 124.54,-74.08 133.07,-80.37 135.13,-73.68"/>
</a>
</g>
</g>
<!-- Node6&#45;&gt;Node4 -->
<g id="edge7_Node000006_Node000004" class="edge">
<title>Node6&#45;&gt;Node4</title>
<g id="a_edge7_Node000006_Node000004"><a xlink:title=" ">
<path fill="none" stroke="#63b8ff" d="M142.32,-54.98C198.36,-44.53 292.3,-27 343.93,-17.36"/>
<polygon fill="#63b8ff" stroke="#63b8ff" points="344.79,-20.76 353.98,-15.49 343.5,-13.88 344.79,-20.76"/>
</a>
</g>
</g>
<!-- Node6&#45;&gt;Node5 -->
<g id="edge8_Node000006_Node000005" class="edge">
<title>Node6&#45;&gt;Node5</title>
<g id="a_edge8_Node000006_Node000005"><a xlink:title=" ">
<path fill="none" stroke="#63b8ff" d="M90.25,-54.75C84.8,-47.34 76.83,-36.5 70.13,-27.41"/>
<polygon fill="#63b8ff" stroke="#63b8ff" points="72.76,-25.07 64.01,-19.09 67.12,-29.22 72.76,-25.07"/>
</a>
</g>
</g>
<!-- Node7 -->
<g id="Node000007" class="node">
<title>Node7</title>
<g id="a_Node000007"><a xlink:title=" ">
<polygon fill="#e0e0e0" stroke="#999999" points="161.19,-19 108.19,-19 108.19,0 161.19,0 161.19,-19"/>
<text text-anchor="middle" x="134.69" y="-7" font-family="Helvetica,sans-Serif" font-size="10.00">stdlib.h</text>
</a>
</g>
</g>
<!-- Node6&#45;&gt;Node7 -->
<g id="edge6_Node000006_Node000007" class="edge">
<title>Node6&#45;&gt;Node7</title>
<g id="a_edge6_Node000006_Node000007"><a xlink:title=" ">
<path fill="none" stroke="#63b8ff" d="M102.96,-54.75C108.28,-47.34 116.05,-36.5 122.57,-27.41"/>
<polygon fill="#63b8ff" stroke="#63b8ff" points="125.55,-29.26 128.53,-19.09 119.86,-25.18 125.55,-29.26"/>
</a>
</g>
</g>
<!-- Node8&#45;&gt;Node4 -->
<g id="edge10_Node000008_Node000004" class="edge">
<title>Node8&#45;&gt;Node4</title>
<g id="a_edge10_Node000008_Node000004"><a xlink:title=" ">
<path fill="none" stroke="#63b8ff" d="M425.09,-109.92C454.42,-99.49 493.8,-80.12 477.69,-55 464.39,-34.27 438.74,-23.07 417.16,-17.09"/>
<polygon fill="#63b8ff" stroke="#63b8ff" points="417.83,-13.65 407.28,-14.63 416.14,-20.44 417.83,-13.65"/>
</a>
</g>
</g>
<!-- Node8&#45;&gt;Node5 -->
<g id="edge11_Node000008_Node000005" class="edge">
<title>Node8&#45;&gt;Node5</title>
<g id="a_edge11_Node000008_Node000005"><a xlink:title=" ">
<path fill="none" stroke="#63b8ff" d="M357.92,-114.37C266.16,-104.51 42.97,-79.98 37.69,-74 26.26,-61.07 34.97,-41.62 44.21,-27.66"/>
<polygon fill="#63b8ff" stroke="#63b8ff" points="47.15,-29.56 50.15,-19.4 41.47,-25.47 47.15,-29.56"/>
</a>
</g>
</g>
<!-- Node9 -->
<g id="Node000009" class="node">
<title>Node9</title>
<g id="a_Node000009"><a xlink:href="no__os__spi_8h.html" target="_top" xlink:title="Header file of SPI Interface.">
<polygon fill="white" stroke="#666666" points="370.69,-74 296.69,-74 296.69,-55 370.69,-55 370.69,-74"/>
<text text-anchor="middle" x="333.69" y="-62" font-family="Helvetica,sans-Serif" font-size="10.00">no_os_spi.h</text>
</a>
</g>
</g>
<!-- Node8&#45;&gt;Node9 -->
<g id="edge12_Node000008_Node000009" class="edge">
<title>Node8&#45;&gt;Node9</title>
<g id="a_edge12_Node000008_Node000009"><a xlink:title=" ">
<path fill="none" stroke="#63b8ff" d="M386.57,-109.98C377.25,-102.15 363.22,-90.34 351.95,-80.86"/>
<polygon fill="#63b8ff" stroke="#63b8ff" points="353.9,-77.93 344,-74.17 349.4,-83.29 353.9,-77.93"/>
</a>
</g>
</g>
<!-- Node10 -->
<g id="Node000010" class="node">
<title>Node10</title>
<g id="a_Node000010"><a xlink:href="no__os__gpio_8h.html" target="_top" xlink:title="Header file of GPIO Interface.">
<polygon fill="white" stroke="#666666" points="468.69,-74 388.69,-74 388.69,-55 468.69,-55 468.69,-74"/>
<text text-anchor="middle" x="428.69" y="-62" font-family="Helvetica,sans-Serif" font-size="10.00">no_os_gpio.h</text>
</a>
</g>
</g>
<!-- Node8&#45;&gt;Node10 -->
<g id="edge14_Node000008_Node000010" class="edge">
<title>Node8&#45;&gt;Node10</title>
<g id="a_edge14_Node000008_Node000010"><a xlink:title=" ">
<path fill="none" stroke="#63b8ff" d="M401.97,-109.75C406.4,-102.42 412.85,-91.73 418.31,-82.7"/>
<polygon fill="#63b8ff" stroke="#63b8ff" points="421.33,-84.46 423.5,-74.09 415.34,-80.84 421.33,-84.46"/>
</a>
</g>
</g>
<!-- Node11 -->
<g id="Node000011" class="node">
<title>Node11</title>
<g id="a_Node000011"><a xlink:href="no__os__util_8h.html" target="_top" xlink:title="Header file of utility functions.">
<polygon fill="white" stroke="#666666" points="240.19,-74 165.19,-74 165.19,-55 240.19,-55 240.19,-74"/>
<text text-anchor="middle" x="202.69" y="-62" font-family="Helvetica,sans-Serif" font-size="10.00">no_os_util.h</text>
</a>
</g>
</g>
<!-- Node8&#45;&gt;Node11 -->
<g id="edge16_Node000008_Node000011" class="edge">
<title>Node8&#45;&gt;Node11</title>
<g id="a_edge16_Node000008_Node000011"><a xlink:title=" ">
<path fill="none" stroke="#63b8ff" d="M365.52,-109.98C332.53,-100.97 280.29,-86.7 243.91,-76.76"/>
<polygon fill="#63b8ff" stroke="#63b8ff" points="244.67,-73.34 234.1,-74.08 242.83,-80.09 244.67,-73.34"/>
</a>
</g>
</g>
<!-- Node9&#45;&gt;Node4 -->
<g id="edge13_Node000009_Node000004" class="edge">
<title>Node9&#45;&gt;Node4</title>
<g id="a_edge13_Node000009_Node000004"><a xlink:title=" ">
<path fill="none" stroke="#63b8ff" d="M341.45,-54.75C348.16,-47.18 358.03,-36.05 366.2,-26.84"/>
<polygon fill="#63b8ff" stroke="#63b8ff" points="369.06,-28.89 373.07,-19.09 363.82,-24.25 369.06,-28.89"/>
</a>
</g>
</g>
<!-- Node10&#45;&gt;Node4 -->
<g id="edge15_Node000010_Node000004" class="edge">
<title>Node10&#45;&gt;Node4</title>
<g id="a_edge15_Node000010_Node000004"><a xlink:title=" ">
<path fill="none" stroke="#63b8ff" d="M420.76,-54.75C413.84,-47.11 403.62,-35.82 395.24,-26.56"/>
<polygon fill="#63b8ff" stroke="#63b8ff" points="397.78,-24.15 388.47,-19.09 392.59,-28.85 397.78,-24.15"/>
</a>
</g>
</g>
<!-- Node11&#45;&gt;Node4 -->
<g id="edge17_Node000011_Node000004" class="edge">
<title>Node11&#45;&gt;Node4</title>
<g id="a_edge17_Node000011_Node000004"><a xlink:title=" ">
<path fill="none" stroke="#63b8ff" d="M231.29,-54.98C261.93,-45.86 310.64,-31.36 344.06,-21.41"/>
<polygon fill="#63b8ff" stroke="#63b8ff" points="345.32,-24.68 353.91,-18.47 343.33,-17.97 345.32,-24.68"/>
</a>
</g>
</g>
<!-- Node11&#45;&gt;Node5 -->
<g id="edge19_Node000011_Node000005" class="edge">
<title>Node11&#45;&gt;Node5</title>
<g id="a_edge19_Node000011_Node000005"><a xlink:title=" ">
<path fill="none" stroke="#63b8ff" d="M179.39,-54.98C155.44,-46.23 117.91,-32.51 90.86,-22.62"/>
<polygon fill="#63b8ff" stroke="#63b8ff" points="92,-19.32 81.41,-19.17 89.6,-25.89 92,-19.32"/>
</a>
</g>
</g>
<!-- Node11&#45;&gt;Node7 -->
<g id="edge18_Node000011_Node000007" class="edge">
<title>Node11&#45;&gt;Node7</title>
<g id="a_edge18_Node000011_Node000007"><a xlink:title=" ">
<path fill="none" stroke="#63b8ff" d="M191.76,-54.98C181.61,-47.07 166.27,-35.11 154.04,-25.58"/>
<polygon fill="#63b8ff" stroke="#63b8ff" points="155.85,-22.56 145.81,-19.17 151.55,-28.08 155.85,-22.56"/>
</a>
</g>
</g>
<!-- Node12&#45;&gt;Node4 -->
<g id="edge21_Node000012_Node000004" class="edge">
<title>Node12&#45;&gt;Node4</title>
<g id="a_edge21_Node000012_Node000004"><a xlink:title=" ">
<path fill="none" stroke="#63b8ff" d="M537.65,-54.98C504.85,-45.69 452.34,-30.81 417.19,-20.85"/>
<polygon fill="#63b8ff" stroke="#63b8ff" points="417.9,-17.41 407.33,-18.05 416,-24.14 417.9,-17.41"/>
</a>
</g>
</g>
<!-- Node14 -->
<g id="Node000014" class="node">
<title>Node14</title>
<g id="a_Node000014"><a xlink:title=" ">
<polygon fill="#e0e0e0" stroke="#999999" points="716.69,-74 666.69,-74 666.69,-55 716.69,-55 716.69,-74"/>
<text text-anchor="middle" x="691.69" y="-62" font-family="Helvetica,sans-Serif" font-size="10.00">stdio.h</text>
</a>
</g>
</g>
<!-- Node13&#45;&gt;Node14 -->
<g id="edge23_Node000013_Node000014" class="edge">
<title>Node13&#45;&gt;Node14</title>
<g id="a_edge23_Node000013_Node000014"><a xlink:title=" ">
<path fill="none" stroke="#63b8ff" d="M685.01,-109.75C686.06,-102.8 687.56,-92.85 688.88,-84.13"/>
<polygon fill="#63b8ff" stroke="#63b8ff" points="692.36,-84.5 690.39,-74.09 685.44,-83.45 692.36,-84.5"/>
</a>
</g>
</g>
<!-- Node15&#45;&gt;Node4 -->
<g id="edge25_Node000015_Node000004" class="edge">
<title>Node15&#45;&gt;Node4</title>
<g id="a_edge25_Node000015_Node000004"><a xlink:title=" ">
<path fill="none" stroke="#63b8ff" d="M586.4,-109.89C605.73,-97.49 635.5,-74.03 619.69,-55 594.43,-24.61 478.25,-14.87 417.67,-11.83"/>
<polygon fill="#63b8ff" stroke="#63b8ff" points="417.55,-8.32 407.39,-11.35 417.22,-15.31 417.55,-8.32"/>
</a>
</g>
</g>
</g>
</svg>
