<?xml version="1.0" encoding="UTF-8" standalone="no"?>
<!DOCTYPE svg PUBLIC "-//W3C//DTD SVG 1.1//EN"
 "http://www.w3.org/Graphics/SVG/1.1/DTD/svg11.dtd">
<!-- Generated by graphviz version 2.43.0 (0)
 -->
<!-- Title: max22915_reg_write Pages: 1 -->
<svg width="756pt" height="258pt"
 viewBox="0.00 0.00 756.00 258.00" xmlns="http://www.w3.org/2000/svg" xmlns:xlink="http://www.w3.org/1999/xlink">
<g id="graph0" class="graph" transform="scale(1 1) rotate(0) translate(4 254)">
<title>max22915_reg_write</title>
<!-- Node1 -->
<g id="Node000001" class="node">
<title>Node1</title>
<g id="a_Node000001"><a xlink:title="Write register data to MAX22915.">
<polygon fill="#999999" stroke="#666666" points="748,-131.5 629,-131.5 629,-112.5 748,-112.5 748,-131.5"/>
<text text-anchor="middle" x="688.5" y="-119.5" font-family="Helvetica,sans-Serif" font-size="10.00">max22915_reg_write</text>
</a>
</g>
</g>
<!-- Node2 -->
<g id="Node000002" class="node">
<title>Node2</title>
<g id="a_Node000002"><a xlink:href="max22915_8c.html#a31af7de5fd025dfe57a871079381e63f" target="_top" xlink:title="Write register data to MAX22915 with mask.">
<polygon fill="white" stroke="#666666" points="593,-131.5 441,-131.5 441,-112.5 593,-112.5 593,-131.5"/>
<text text-anchor="middle" x="517" y="-119.5" font-family="Helvetica,sans-Serif" font-size="10.00">max22915_reg_write_mask</text>
</a>
</g>
</g>
<!-- Node1&#45;&gt;Node2 -->
<g id="edge1_Node000001_Node000002" class="edge">
<title>Node1&#45;&gt;Node2</title>
<g id="a_edge1_Node000001_Node000002"><a xlink:title=" ">
<path fill="none" stroke="#63b8ff" d="M618.59,-122C610.2,-122 601.6,-122 593.12,-122"/>
<polygon fill="#63b8ff" stroke="#63b8ff" points="618.69,-125.5 628.69,-122 618.69,-118.5 618.69,-125.5"/>
</a>
</g>
</g>
<!-- Node3 -->
<g id="Node000003" class="node">
<title>Node3</title>
<g id="a_Node000003"><a xlink:href="max22915_8c.html#ab678e1fd3c1e167b565c6d56455ec29d" target="_top" xlink:title="Set the current measurement configuration.">
<polygon fill="white" stroke="#666666" points="391.5,-250 263.5,-250 263.5,-220 391.5,-220 391.5,-250"/>
<text text-anchor="start" x="271.5" y="-238" font-family="Helvetica,sans-Serif" font-size="10.00">max22915_set_current</text>
<text text-anchor="middle" x="327.5" y="-227" font-family="Helvetica,sans-Serif" font-size="10.00">_config</text>
</a>
</g>
</g>
<!-- Node2&#45;&gt;Node3 -->
<g id="edge2_Node000002_Node000003" class="edge">
<title>Node2&#45;&gt;Node3</title>
<g id="a_edge2_Node000002_Node000003"><a xlink:title=" ">
<path fill="none" stroke="#63b8ff" d="M499.2,-138.87C478.63,-158.67 441.94,-191.3 405,-211 398.74,-214.34 391.93,-217.3 385.05,-219.9"/>
<polygon fill="#63b8ff" stroke="#63b8ff" points="501.8,-141.22 506.5,-131.72 496.91,-136.21 501.8,-141.22"/>
</a>
</g>
</g>
<!-- Node6 -->
<g id="Node000006" class="node">
<title>Node6</title>
<g id="a_Node000006"><a xlink:href="max22915_8c.html#ad258c4014620c60e4d289805e22a002d" target="_top" xlink:title="Set the open&#45;wire off detection configuration for a channel.">
<polygon fill="white" stroke="#666666" points="388,-202 267,-202 267,-172 388,-172 388,-202"/>
<text text-anchor="start" x="275" y="-190" font-family="Helvetica,sans-Serif" font-size="10.00">max22915_set_owoff</text>
<text text-anchor="middle" x="327.5" y="-179" font-family="Helvetica,sans-Serif" font-size="10.00">_config</text>
</a>
</g>
</g>
<!-- Node2&#45;&gt;Node6 -->
<g id="edge5_Node000002_Node000006" class="edge">
<title>Node2&#45;&gt;Node6</title>
<g id="a_edge5_Node000002_Node000006"><a xlink:title=" ">
<path fill="none" stroke="#63b8ff" d="M481.5,-135.25C459.67,-143.5 430.8,-154.2 405,-163 396.17,-166.01 386.73,-169.09 377.59,-172"/>
<polygon fill="#63b8ff" stroke="#63b8ff" points="482.89,-138.46 491,-131.64 480.41,-131.92 482.89,-138.46"/>
</a>
</g>
</g>
<!-- Node7 -->
<g id="Node000007" class="node">
<title>Node7</title>
<g id="a_Node000007"><a xlink:href="max22915_8c.html#ac7b68b9a804772ed12c4acbe50b431a5" target="_top" xlink:title="Set the open&#45;wire on detection configuration for a channel.">
<polygon fill="white" stroke="#666666" points="405,-153.5 250,-153.5 250,-134.5 405,-134.5 405,-153.5"/>
<text text-anchor="middle" x="327.5" y="-141.5" font-family="Helvetica,sans-Serif" font-size="10.00">max22915_set_owon_config</text>
</a>
</g>
</g>
<!-- Node2&#45;&gt;Node7 -->
<g id="edge7_Node000002_Node000007" class="edge">
<title>Node2&#45;&gt;Node7</title>
<g id="a_edge7_Node000002_Node000007"><a xlink:title=" ">
<path fill="none" stroke="#63b8ff" d="M430.85,-131.99C422.31,-132.99 413.68,-134.01 405.23,-135"/>
<polygon fill="#63b8ff" stroke="#63b8ff" points="431.29,-135.46 440.82,-130.82 430.48,-128.51 431.29,-135.46"/>
</a>
</g>
</g>
<!-- Node8 -->
<g id="Node000008" class="node">
<title>Node8</title>
<g id="a_Node000008"><a xlink:href="max22915_8c.html#a47a284d4eda8a1b25ccc4236a1bbb770" target="_top" xlink:title="Set the short to VDD detection configuration for a channel.">
<polygon fill="white" stroke="#666666" points="389,-116 266,-116 266,-86 389,-86 389,-116"/>
<text text-anchor="start" x="274" y="-104" font-family="Helvetica,sans-Serif" font-size="10.00">max22915_set_shvdd</text>
<text text-anchor="middle" x="327.5" y="-93" font-family="Helvetica,sans-Serif" font-size="10.00">_config</text>
</a>
</g>
</g>
<!-- Node2&#45;&gt;Node8 -->
<g id="edge9_Node000002_Node000008" class="edge">
<title>Node2&#45;&gt;Node8</title>
<g id="a_edge9_Node000002_Node000008"><a xlink:title=" ">
<path fill="none" stroke="#63b8ff" d="M430.65,-112.44C416.59,-110.87 402.29,-109.26 389,-107.78"/>
<polygon fill="#63b8ff" stroke="#63b8ff" points="430.49,-115.94 440.82,-113.58 431.27,-108.99 430.49,-115.94"/>
</a>
</g>
</g>
<!-- Node9 -->
<g id="Node000009" class="node">
<title>Node9</title>
<g id="a_Node000009"><a xlink:href="max22915_8c.html#aea84ddc6096987363aa273809111b472" target="_top" xlink:title="Set the switch state of a channel.">
<polygon fill="white" stroke="#666666" points="396,-67.5 259,-67.5 259,-48.5 396,-48.5 396,-67.5"/>
<text text-anchor="middle" x="327.5" y="-55.5" font-family="Helvetica,sans-Serif" font-size="10.00">max22915_set_sw_state</text>
</a>
</g>
</g>
<!-- Node2&#45;&gt;Node9 -->
<g id="edge11_Node000002_Node000009" class="edge">
<title>Node2&#45;&gt;Node9</title>
<g id="a_edge11_Node000002_Node000009"><a xlink:title=" ">
<path fill="none" stroke="#63b8ff" d="M485.86,-108.43C463.78,-98.82 432.91,-86.07 405,-77 394.33,-73.53 382.64,-70.33 371.69,-67.59"/>
<polygon fill="#63b8ff" stroke="#63b8ff" points="484.49,-111.65 495.05,-112.47 487.3,-105.24 484.49,-111.65"/>
</a>
</g>
</g>
<!-- Node10 -->
<g id="Node000010" class="node">
<title>Node10</title>
<g id="a_Node000010"><a xlink:href="max22915_8c.html#a24da66f4835ebb76fc11833aa3567a7f" target="_top" xlink:title="Set the temperature measurement configuration.">
<polygon fill="white" stroke="#666666" points="405,-30 250,-30 250,0 405,0 405,-30"/>
<text text-anchor="start" x="258" y="-18" font-family="Helvetica,sans-Serif" font-size="10.00">max22915_set_temperature</text>
<text text-anchor="middle" x="327.5" y="-7" font-family="Helvetica,sans-Serif" font-size="10.00">_config</text>
</a>
</g>
</g>
<!-- Node2&#45;&gt;Node10 -->
<g id="edge13_Node000002_Node000010" class="edge">
<title>Node2&#45;&gt;Node10</title>
<g id="a_edge13_Node000002_Node000010"><a xlink:title=" ">
<path fill="none" stroke="#63b8ff" d="M497.92,-105.76C476.9,-87.59 440.53,-58.32 405,-40 397.8,-36.29 389.93,-32.97 382.07,-30.07"/>
<polygon fill="#63b8ff" stroke="#63b8ff" points="495.61,-108.39 505.44,-112.35 500.23,-103.13 495.61,-108.39"/>
</a>
</g>
</g>
<!-- Node4 -->
<g id="Node000004" class="node">
<title>Node4</title>
<g id="a_Node000004"><a xlink:href="max22915_8c.html#aa9952bcc9e570e622093d82d48b17885" target="_top" xlink:title="Initialize and configure the MAX22915 device.">
<polygon fill="white" stroke="#666666" points="214,-131.5 125,-131.5 125,-112.5 214,-112.5 214,-131.5"/>
<text text-anchor="middle" x="169.5" y="-119.5" font-family="Helvetica,sans-Serif" font-size="10.00">max22915_init</text>
</a>
</g>
</g>
<!-- Node3&#45;&gt;Node4 -->
<g id="edge3_Node000003_Node000004" class="edge">
<title>Node3&#45;&gt;Node4</title>
<g id="a_edge3_Node000003_Node000004"><a xlink:title=" ">
<path fill="none" stroke="#63b8ff" d="M257.71,-215.48C255.05,-214.08 252.47,-212.59 250,-211 216.4,-189.33 188.28,-149.75 176.47,-131.58"/>
<polygon fill="#63b8ff" stroke="#63b8ff" points="256.45,-218.76 266.99,-219.88 259.45,-212.44 256.45,-218.76"/>
</a>
</g>
</g>
<!-- Node5 -->
<g id="Node000005" class="node">
<title>Node5</title>
<g id="a_Node000005"><a xlink:href="max22915_2src_2examples_2basic_2basic__example_8c.html#ac25cbf8ae523e89cb0617e68c98bc697" target="_top" xlink:title="Basic example main execution.">
<polygon fill="white" stroke="#666666" points="89,-131.5 0,-131.5 0,-112.5 89,-112.5 89,-131.5"/>
<text text-anchor="middle" x="44.5" y="-119.5" font-family="Helvetica,sans-Serif" font-size="10.00">example_main</text>
</a>
</g>
</g>
<!-- Node4&#45;&gt;Node5 -->
<g id="edge4_Node000004_Node000005" class="edge">
<title>Node4&#45;&gt;Node5</title>
<g id="a_edge4_Node000004_Node000005"><a xlink:title=" ">
<path fill="none" stroke="#63b8ff" d="M114.54,-122C106.03,-122 97.31,-122 89.07,-122"/>
<polygon fill="#63b8ff" stroke="#63b8ff" points="114.79,-125.5 124.79,-122 114.79,-118.5 114.79,-125.5"/>
</a>
</g>
</g>
<!-- Node6&#45;&gt;Node4 -->
<g id="edge6_Node000006_Node000004" class="edge">
<title>Node6&#45;&gt;Node4</title>
<g id="a_edge6_Node000006_Node000004"><a xlink:title=" ">
<path fill="none" stroke="#63b8ff" d="M264.61,-168.59C259.63,-166.81 254.71,-164.94 250,-163 227.59,-153.79 202.97,-140.58 187.16,-131.66"/>
<polygon fill="#63b8ff" stroke="#63b8ff" points="263.63,-171.96 274.22,-171.92 265.92,-165.34 263.63,-171.96"/>
</a>
</g>
</g>
<!-- Node7&#45;&gt;Node4 -->
<g id="edge8_Node000007_Node000004" class="edge">
<title>Node7&#45;&gt;Node4</title>
<g id="a_edge8_Node000007_Node000004"><a xlink:title=" ">
<path fill="none" stroke="#63b8ff" d="M248.99,-133.07C237.05,-131.39 225.11,-129.7 214.26,-128.17"/>
<polygon fill="#63b8ff" stroke="#63b8ff" points="248.59,-136.55 258.98,-134.48 249.57,-129.62 248.59,-136.55"/>
</a>
</g>
</g>
<!-- Node8&#45;&gt;Node4 -->
<g id="edge10_Node000008_Node000004" class="edge">
<title>Node8&#45;&gt;Node4</title>
<g id="a_edge10_Node000008_Node000004"><a xlink:title=" ">
<path fill="none" stroke="#63b8ff" d="M255.61,-110.54C241.58,-112.43 227.24,-114.36 214.43,-116.09"/>
<polygon fill="#63b8ff" stroke="#63b8ff" points="256.3,-113.98 265.74,-109.18 255.36,-107.04 256.3,-113.98"/>
</a>
</g>
</g>
<!-- Node9&#45;&gt;Node4 -->
<g id="edge12_Node000009_Node000004" class="edge">
<title>Node9&#45;&gt;Node4</title>
<g id="a_edge12_Node000009_Node000004"><a xlink:title=" ">
<path fill="none" stroke="#63b8ff" d="M269.57,-70.3C262.89,-72.28 256.23,-74.52 250,-77 225.84,-86.63 200.01,-102.39 184.56,-112.47"/>
<polygon fill="#63b8ff" stroke="#63b8ff" points="270.65,-73.64 279.34,-67.58 268.77,-66.89 270.65,-73.64"/>
</a>
</g>
</g>
<!-- Node10&#45;&gt;Node4 -->
<g id="edge14_Node000010_Node000004" class="edge">
<title>Node10&#45;&gt;Node4</title>
<g id="a_edge14_Node000010_Node000004"><a xlink:title=" ">
<path fill="none" stroke="#63b8ff" d="M260.4,-34.26C256.8,-36.02 253.31,-37.94 250,-40 218.05,-59.96 189.73,-95.46 177.26,-112.44"/>
<polygon fill="#63b8ff" stroke="#63b8ff" points="261.84,-37.45 269.53,-30.16 258.97,-31.06 261.84,-37.45"/>
</a>
</g>
</g>
</g>
</svg>
