<?xml version="1.0" encoding="UTF-8" standalone="no"?>
<!DOCTYPE svg PUBLIC "-//W3C//DTD SVG 1.1//EN"
 "http://www.w3.org/Graphics/SVG/1.1/DTD/svg11.dtd">
<!-- Generated by graphviz version 2.43.0 (0)
 -->
<!-- Title: drivers/platform/maxim/max32665/maxim_spi.c Pages: 1 -->
<svg width="934pt" height="258pt"
 viewBox="0.00 0.00 933.50 258.00" xmlns="http://www.w3.org/2000/svg" xmlns:xlink="http://www.w3.org/1999/xlink">
<g id="graph0" class="graph" transform="scale(1 1) rotate(0) translate(4 254)">
<title>drivers/platform/maxim/max32665/maxim_spi.c</title>
<!-- Node1 -->
<g id="Node000001" class="node">
<title>Node1</title>
<g id="a_Node000001"><a xlink:title="Implementation of SPI driver.">
<polygon fill="#999999" stroke="#666666" points="546,-250 409,-250 409,-220 546,-220 546,-250"/>
<text text-anchor="start" x="417" y="-238" font-family="Helvetica,sans-Serif" font-size="10.00">drivers/platform/maxim</text>
<text text-anchor="middle" x="477.5" y="-227" font-family="Helvetica,sans-Serif" font-size="10.00">/max32665/maxim_spi.c</text>
</a>
</g>
</g>
<!-- Node2 -->
<g id="Node000002" class="node">
<title>Node2</title>
<g id="a_Node000002"><a xlink:title=" ">
<polygon fill="#e0e0e0" stroke="#999999" points="747,-74 694,-74 694,-55 747,-55 747,-74"/>
<text text-anchor="middle" x="720.5" y="-62" font-family="Helvetica,sans-Serif" font-size="10.00">stdlib.h</text>
</a>
</g>
</g>
<!-- Node1&#45;&gt;Node2 -->
<g id="edge1_Node000001_Node000002" class="edge">
<title>Node1&#45;&gt;Node2</title>
<g id="a_edge1_Node000001_Node000002"><a xlink:title=" ">
<path fill="none" stroke="#63b8ff" d="M539.45,-219.9C566.36,-211.99 597.4,-200.36 622.5,-184 663.16,-157.5 695.49,-108.89 710.82,-82.93"/>
<polygon fill="#63b8ff" stroke="#63b8ff" points="713.89,-84.59 715.84,-74.18 707.82,-81.11 713.89,-84.59"/>
</a>
</g>
</g>
<!-- Node3 -->
<g id="Node000003" class="node">
<title>Node3</title>
<g id="a_Node000003"><a xlink:href="errno_8h.html" target="_top" xlink:title="Error macro definition for ARM Compiler.">
<polygon fill="white" stroke="#666666" points="105,-184 54,-184 54,-165 105,-165 105,-184"/>
<text text-anchor="middle" x="79.5" y="-172" font-family="Helvetica,sans-Serif" font-size="10.00">errno.h</text>
</a>
</g>
</g>
<!-- Node1&#45;&gt;Node3 -->
<g id="edge2_Node000001_Node000003" class="edge">
<title>Node1&#45;&gt;Node3</title>
<g id="a_edge2_Node000001_Node000003"><a xlink:title=" ">
<path fill="none" stroke="#63b8ff" d="M408.92,-226.65C337.9,-218.57 223.56,-204.24 115.18,-183.94"/>
<polygon fill="#63b8ff" stroke="#63b8ff" points="115.53,-180.44 105.05,-182.02 114.22,-187.32 115.53,-180.44"/>
</a>
</g>
</g>
<!-- Node4 -->
<g id="Node000004" class="node">
<title>Node4</title>
<g id="a_Node000004"><a xlink:title=" ">
<polygon fill="#e0e0e0" stroke="#999999" points="163.5,-184 123.5,-184 123.5,-165 163.5,-165 163.5,-184"/>
<text text-anchor="middle" x="143.5" y="-172" font-family="Helvetica,sans-Serif" font-size="10.00">spi.h</text>
</a>
</g>
</g>
<!-- Node1&#45;&gt;Node4 -->
<g id="edge3_Node000001_Node000004" class="edge">
<title>Node1&#45;&gt;Node4</title>
<g id="a_edge3_Node000001_Node000004"><a xlink:title=" ">
<path fill="none" stroke="#63b8ff" d="M408.9,-225.21C349.08,-216.98 259.86,-203.37 173.65,-184.03"/>
<polygon fill="#63b8ff" stroke="#63b8ff" points="174.23,-180.57 163.7,-181.76 172.67,-187.39 174.23,-180.57"/>
</a>
</g>
</g>
<!-- Node5 -->
<g id="Node000005" class="node">
<title>Node5</title>
<g id="a_Node000005"><a xlink:title=" ">
<polygon fill="#e0e0e0" stroke="#999999" points="261.5,-184 181.5,-184 181.5,-165 261.5,-165 261.5,-184"/>
<text text-anchor="middle" x="221.5" y="-172" font-family="Helvetica,sans-Serif" font-size="10.00">mxc_errors.h</text>
</a>
</g>
</g>
<!-- Node1&#45;&gt;Node5 -->
<g id="edge4_Node000001_Node000005" class="edge">
<title>Node1&#45;&gt;Node5</title>
<g id="a_edge4_Node000001_Node000005"><a xlink:title=" ">
<path fill="none" stroke="#63b8ff" d="M416.18,-219.99C370.95,-209.65 310.3,-195.79 268.79,-186.31"/>
<polygon fill="#63b8ff" stroke="#63b8ff" points="269.46,-182.87 258.93,-184.05 267.9,-189.69 269.46,-182.87"/>
</a>
</g>
</g>
<!-- Node6 -->
<g id="Node000006" class="node">
<title>Node6</title>
<g id="a_Node000006"><a xlink:title=" ">
<polygon fill="#e0e0e0" stroke="#999999" points="351.5,-184 279.5,-184 279.5,-165 351.5,-165 351.5,-184"/>
<text text-anchor="middle" x="315.5" y="-172" font-family="Helvetica,sans-Serif" font-size="10.00">mxc_pins.h</text>
</a>
</g>
</g>
<!-- Node1&#45;&gt;Node6 -->
<g id="edge5_Node000001_Node000006" class="edge">
<title>Node1&#45;&gt;Node6</title>
<g id="a_edge5_Node000001_Node000006"><a xlink:title=" ">
<path fill="none" stroke="#63b8ff" d="M438.7,-219.99C411.31,-210.1 374.98,-196.98 348.89,-187.56"/>
<polygon fill="#63b8ff" stroke="#63b8ff" points="350.02,-184.24 339.42,-184.14 347.64,-190.83 350.02,-184.24"/>
</a>
</g>
</g>
<!-- Node7 -->
<g id="Node000007" class="node">
<title>Node7</title>
<g id="a_Node000007"><a xlink:href="max32665_2maxim__spi_8h.html" target="_top" xlink:title="maxim specific header for SPI driver">
<polygon fill="white" stroke="#666666" points="449.5,-184 369.5,-184 369.5,-165 449.5,-165 449.5,-184"/>
<text text-anchor="middle" x="409.5" y="-172" font-family="Helvetica,sans-Serif" font-size="10.00">maxim_spi.h</text>
</a>
</g>
</g>
<!-- Node1&#45;&gt;Node7 -->
<g id="edge6_Node000001_Node000007" class="edge">
<title>Node1&#45;&gt;Node7</title>
<g id="a_edge6_Node000001_Node000007"><a xlink:title=" ">
<path fill="none" stroke="#63b8ff" d="M461.04,-219.84C450.87,-211.09 437.81,-199.85 427.38,-190.88"/>
<polygon fill="#63b8ff" stroke="#63b8ff" points="429.55,-188.13 419.69,-184.27 424.99,-193.44 429.55,-188.13"/>
</a>
</g>
</g>
<!-- Node11 -->
<g id="Node000011" class="node">
<title>Node11</title>
<g id="a_Node000011"><a xlink:href="no__os__dma_8h.html" target="_top" xlink:title="Platform independent function definitions and data types for the DMA API.">
<polygon fill="white" stroke="#666666" points="507,-129 426,-129 426,-110 507,-110 507,-129"/>
<text text-anchor="middle" x="466.5" y="-117" font-family="Helvetica,sans-Serif" font-size="10.00">no_os_dma.h</text>
</a>
</g>
</g>
<!-- Node1&#45;&gt;Node11 -->
<g id="edge37_Node000001_Node000011" class="edge">
<title>Node1&#45;&gt;Node11</title>
<g id="a_edge37_Node000001_Node000011"><a xlink:title=" ">
<path fill="none" stroke="#63b8ff" d="M476.11,-219.63C474.13,-199.21 470.5,-161.81 468.32,-139.24"/>
<polygon fill="#63b8ff" stroke="#63b8ff" points="471.79,-138.85 467.35,-129.23 464.83,-139.52 471.79,-138.85"/>
</a>
</g>
</g>
<!-- Node17 -->
<g id="Node000017" class="node">
<title>Node17</title>
<g id="a_Node000017"><a xlink:href="maxim__dma_8h.html" target="_top" xlink:title="Maxim platform specific header DMA API.">
<polygon fill="white" stroke="#666666" points="593,-184 506,-184 506,-165 593,-165 593,-184"/>
<text text-anchor="middle" x="549.5" y="-172" font-family="Helvetica,sans-Serif" font-size="10.00">maxim_dma.h</text>
</a>
</g>
</g>
<!-- Node1&#45;&gt;Node17 -->
<g id="edge21_Node000001_Node000017" class="edge">
<title>Node1&#45;&gt;Node17</title>
<g id="a_edge21_Node000001_Node000017"><a xlink:title=" ">
<path fill="none" stroke="#63b8ff" d="M494.93,-219.84C505.81,-211 519.8,-199.63 530.89,-190.62"/>
<polygon fill="#63b8ff" stroke="#63b8ff" points="533.16,-193.29 538.71,-184.27 528.74,-187.86 533.16,-193.29"/>
</a>
</g>
</g>
<!-- Node19 -->
<g id="Node000019" class="node">
<title>Node19</title>
<g id="a_Node000019"><a xlink:href="no__os__delay_8h.html" target="_top" xlink:title="Header file of Delay functions.">
<polygon fill="white" stroke="#666666" points="85,-74 0,-74 0,-55 85,-55 85,-74"/>
<text text-anchor="middle" x="42.5" y="-62" font-family="Helvetica,sans-Serif" font-size="10.00">no_os_delay.h</text>
</a>
</g>
</g>
<!-- Node1&#45;&gt;Node19 -->
<g id="edge25_Node000001_Node000019" class="edge">
<title>Node1&#45;&gt;Node19</title>
<g id="a_edge25_Node000001_Node000019"><a xlink:title=" ">
<path fill="none" stroke="#63b8ff" d="M408.98,-230.96C293.08,-225.12 68.51,-210.49 44.5,-184 19.71,-156.65 28.68,-109.45 36.27,-83.64"/>
<polygon fill="#63b8ff" stroke="#63b8ff" points="39.64,-84.6 39.33,-74.01 32.97,-82.48 39.64,-84.6"/>
</a>
</g>
</g>
<!-- Node20 -->
<g id="Node000020" class="node">
<title>Node20</title>
<g id="a_Node000020"><a xlink:href="no__os__print__log_8h.html" target="_top" xlink:title="Print messages helpers.">
<polygon fill="white" stroke="#666666" points="925.5,-129 823.5,-129 823.5,-110 925.5,-110 925.5,-129"/>
<text text-anchor="middle" x="874.5" y="-117" font-family="Helvetica,sans-Serif" font-size="10.00">no_os_print_log.h</text>
</a>
</g>
</g>
<!-- Node1&#45;&gt;Node20 -->
<g id="edge27_Node000001_Node000020" class="edge">
<title>Node1&#45;&gt;Node20</title>
<g id="a_edge27_Node000001_Node000020"><a xlink:title=" ">
<path fill="none" stroke="#63b8ff" d="M546.21,-224.97C598.38,-217.07 671.47,-203.74 733.5,-184 775.61,-170.6 821.86,-148.18 849.51,-133.88"/>
<polygon fill="#63b8ff" stroke="#63b8ff" points="851.25,-136.93 858.48,-129.19 848,-130.72 851.25,-136.93"/>
</a>
</g>
</g>
<!-- Node21 -->
<g id="Node000021" class="node">
<title>Node21</title>
<g id="a_Node000021"><a xlink:href="no__os__util_8h.html" target="_top" xlink:title="Header file of utility functions.">
<polygon fill="white" stroke="#666666" points="665,-129 590,-129 590,-110 665,-110 665,-129"/>
<text text-anchor="middle" x="627.5" y="-117" font-family="Helvetica,sans-Serif" font-size="10.00">no_os_util.h</text>
</a>
</g>
</g>
<!-- Node1&#45;&gt;Node21 -->
<g id="edge29_Node000001_Node000021" class="edge">
<title>Node1&#45;&gt;Node21</title>
<g id="a_edge29_Node000001_Node000021"><a xlink:title=" ">
<path fill="none" stroke="#63b8ff" d="M538.95,-219.95C560.94,-212.36 584.47,-200.94 601.5,-184 613.76,-171.8 620.48,-153.02 624,-139.04"/>
<polygon fill="#63b8ff" stroke="#63b8ff" points="627.46,-139.59 626.17,-129.08 620.62,-138.1 627.46,-139.59"/>
</a>
</g>
</g>
<!-- Node22 -->
<g id="Node000022" class="node">
<title>Node22</title>
<g id="a_Node000022"><a xlink:href="no__os__alloc_8h.html" target="_top" xlink:title=" ">
<polygon fill="white" stroke="#666666" points="805,-129 722,-129 722,-110 805,-110 805,-129"/>
<text text-anchor="middle" x="763.5" y="-117" font-family="Helvetica,sans-Serif" font-size="10.00">no_os_alloc.h</text>
</a>
</g>
</g>
<!-- Node1&#45;&gt;Node22 -->
<g id="edge33_Node000001_Node000022" class="edge">
<title>Node1&#45;&gt;Node22</title>
<g id="a_edge33_Node000001_Node000022"><a xlink:title=" ">
<path fill="none" stroke="#63b8ff" d="M546.25,-230.32C594.24,-225.17 658.26,-212.92 707.5,-184 726.84,-172.64 743.02,-152.27 752.93,-137.66"/>
<polygon fill="#63b8ff" stroke="#63b8ff" points="756.02,-139.34 758.52,-129.04 750.14,-135.53 756.02,-139.34"/>
</a>
</g>
</g>
<!-- Node23 -->
<g id="Node000023" class="node">
<title>Node23</title>
<g id="a_Node000023"><a xlink:href="no__os__units_8h.html" target="_top" xlink:title="Header file of Units.">
<polygon fill="white" stroke="#666666" points="881,-184 798,-184 798,-165 881,-165 881,-184"/>
<text text-anchor="middle" x="839.5" y="-172" font-family="Helvetica,sans-Serif" font-size="10.00">no_os_units.h</text>
</a>
</g>
</g>
<!-- Node1&#45;&gt;Node23 -->
<g id="edge36_Node000001_Node000023" class="edge">
<title>Node1&#45;&gt;Node23</title>
<g id="a_edge36_Node000001_Node000023"><a xlink:title=" ">
<path fill="none" stroke="#63b8ff" d="M546.02,-222.93C616.3,-211.57 724.09,-194.15 787.61,-183.89"/>
<polygon fill="#63b8ff" stroke="#63b8ff" points="788.48,-187.29 797.8,-182.24 787.37,-180.38 788.48,-187.29"/>
</a>
</g>
</g>
<!-- Node8 -->
<g id="Node000008" class="node">
<title>Node8</title>
<g id="a_Node000008"><a xlink:title=" ">
<polygon fill="#e0e0e0" stroke="#999999" points="305,-19 252,-19 252,0 305,0 305,-19"/>
<text text-anchor="middle" x="278.5" y="-7" font-family="Helvetica,sans-Serif" font-size="10.00">stdint.h</text>
</a>
</g>
</g>
<!-- Node7&#45;&gt;Node8 -->
<g id="edge7_Node000007_Node000008" class="edge">
<title>Node7&#45;&gt;Node8</title>
<g id="a_edge7_Node000007_Node000008"><a xlink:title=" ">
<path fill="none" stroke="#63b8ff" d="M369.48,-165.95C322.67,-156.77 248.28,-141.02 222.5,-129 185.36,-111.68 166.91,-110.61 148.5,-74 128.77,-34.75 196.66,-19.5 241.67,-13.77"/>
<polygon fill="#63b8ff" stroke="#63b8ff" points="242.19,-17.23 251.72,-12.59 241.38,-10.28 242.19,-17.23"/>
</a>
</g>
</g>
<!-- Node9 -->
<g id="Node000009" class="node">
<title>Node9</title>
<g id="a_Node000009"><a xlink:title=" ">
<polygon fill="#e0e0e0" stroke="#999999" points="101,-129 54,-129 54,-110 101,-110 101,-129"/>
<text text-anchor="middle" x="77.5" y="-117" font-family="Helvetica,sans-Serif" font-size="10.00">gpio.h</text>
</a>
</g>
</g>
<!-- Node7&#45;&gt;Node9 -->
<g id="edge8_Node000007_Node000009" class="edge">
<title>Node7&#45;&gt;Node9</title>
<g id="a_edge8_Node000007_Node000009"><a xlink:title=" ">
<path fill="none" stroke="#63b8ff" d="M369.4,-166.46C366.39,-165.96 363.4,-165.46 360.5,-165 251.83,-147.59 223.72,-149.03 115.5,-129 114.05,-128.73 112.56,-128.45 111.07,-128.15"/>
<polygon fill="#63b8ff" stroke="#63b8ff" points="111.67,-124.7 101.16,-126.08 110.23,-131.55 111.67,-124.7"/>
</a>
</g>
</g>
<!-- Node10 -->
<g id="Node000010" class="node">
<title>Node10</title>
<g id="a_Node000010"><a xlink:href="no__os__spi_8h.html" target="_top" xlink:title="Header file of SPI Interface.">
<polygon fill="white" stroke="#666666" points="231.5,-74 157.5,-74 157.5,-55 231.5,-55 231.5,-74"/>
<text text-anchor="middle" x="194.5" y="-62" font-family="Helvetica,sans-Serif" font-size="10.00">no_os_spi.h</text>
</a>
</g>
</g>
<!-- Node7&#45;&gt;Node10 -->
<g id="edge9_Node000007_Node000010" class="edge">
<title>Node7&#45;&gt;Node10</title>
<g id="a_edge9_Node000007_Node000010"><a xlink:title=" ">
<path fill="none" stroke="#63b8ff" d="M369.4,-165.6C327.73,-156.87 265.8,-142.29 245.5,-129 227.81,-117.42 213.39,-97.71 204.45,-83.32"/>
<polygon fill="#63b8ff" stroke="#63b8ff" points="207.27,-81.19 199.17,-74.36 201.24,-84.75 207.27,-81.19"/>
</a>
</g>
</g>
<!-- Node7&#45;&gt;Node11 -->
<g id="edge11_Node000007_Node000011" class="edge">
<title>Node7&#45;&gt;Node11</title>
<g id="a_edge11_Node000007_Node000011"><a xlink:title=" ">
<path fill="none" stroke="#63b8ff" d="M418.66,-164.98C427,-157.23 439.53,-145.58 449.68,-136.14"/>
<polygon fill="#63b8ff" stroke="#63b8ff" points="452.24,-138.54 457.18,-129.17 447.47,-133.42 452.24,-138.54"/>
</a>
</g>
</g>
<!-- Node10&#45;&gt;Node8 -->
<g id="edge10_Node000010_Node000008" class="edge">
<title>Node10&#45;&gt;Node8</title>
<g id="a_edge10_Node000010_Node000008"><a xlink:title=" ">
<path fill="none" stroke="#63b8ff" d="M208,-54.98C220.9,-46.84 240.6,-34.41 255.9,-24.76"/>
<polygon fill="#63b8ff" stroke="#63b8ff" points="258.17,-27.47 264.76,-19.17 254.43,-21.55 258.17,-27.47"/>
</a>
</g>
</g>
<!-- Node11&#45;&gt;Node2 -->
<g id="edge13_Node000011_Node000002" class="edge">
<title>Node11&#45;&gt;Node2</title>
<g id="a_edge13_Node000011_Node000002"><a xlink:title=" ">
<path fill="none" stroke="#63b8ff" d="M507.03,-110.04C555.73,-99.88 636.73,-82.98 683.71,-73.18"/>
<polygon fill="#63b8ff" stroke="#63b8ff" points="684.68,-76.55 693.75,-71.08 683.25,-69.7 684.68,-76.55"/>
</a>
</g>
</g>
<!-- Node11&#45;&gt;Node8 -->
<g id="edge14_Node000011_Node000008" class="edge">
<title>Node11&#45;&gt;Node8</title>
<g id="a_edge14_Node000011_Node000008"><a xlink:title=" ">
<path fill="none" stroke="#63b8ff" d="M425.89,-114.58C393.43,-109.67 348.26,-98.65 316.5,-74 301.47,-62.34 291.12,-42.92 285.05,-28.63"/>
<polygon fill="#63b8ff" stroke="#63b8ff" points="288.31,-27.33 281.4,-19.3 281.79,-29.89 288.31,-27.33"/>
</a>
</g>
</g>
<!-- Node12 -->
<g id="Node000012" class="node">
<title>Node12</title>
<g id="a_Node000012"><a xlink:title=" ">
<polygon fill="#e0e0e0" stroke="#999999" points="815.5,-74 765.5,-74 765.5,-55 815.5,-55 815.5,-74"/>
<text text-anchor="middle" x="790.5" y="-62" font-family="Helvetica,sans-Serif" font-size="10.00">stdio.h</text>
</a>
</g>
</g>
<!-- Node11&#45;&gt;Node12 -->
<g id="edge12_Node000011_Node000012" class="edge">
<title>Node11&#45;&gt;Node12</title>
<g id="a_edge12_Node000011_Node000012"><a xlink:title=" ">
<path fill="none" stroke="#63b8ff" d="M507.13,-111.38C509.96,-110.9 512.77,-110.44 515.5,-110 621.98,-92.78 649.65,-94.75 755.5,-74 755.6,-73.98 755.7,-73.96 755.8,-73.94"/>
<polygon fill="#63b8ff" stroke="#63b8ff" points="756.28,-77.42 765.32,-71.9 754.81,-70.57 756.28,-77.42"/>
</a>
</g>
</g>
<!-- Node13 -->
<g id="Node000013" class="node">
<title>Node13</title>
<g id="a_Node000013"><a xlink:href="no__os__list_8h.html" target="_top" xlink:title="List library header.">
<polygon fill="white" stroke="#666666" points="599.5,-74 525.5,-74 525.5,-55 599.5,-55 599.5,-74"/>
<text text-anchor="middle" x="562.5" y="-62" font-family="Helvetica,sans-Serif" font-size="10.00">no_os_list.h</text>
</a>
</g>
</g>
<!-- Node11&#45;&gt;Node13 -->
<g id="edge15_Node000011_Node000013" class="edge">
<title>Node11&#45;&gt;Node13</title>
<g id="a_edge15_Node000011_Node000013"><a xlink:title=" ">
<path fill="none" stroke="#63b8ff" d="M481.92,-109.98C496.95,-101.69 520.04,-88.94 537.66,-79.22"/>
<polygon fill="#63b8ff" stroke="#63b8ff" points="539.73,-82.07 546.8,-74.17 536.35,-75.94 539.73,-82.07"/>
</a>
</g>
</g>
<!-- Node15 -->
<g id="Node000015" class="node">
<title>Node15</title>
<g id="a_Node000015"><a xlink:href="no__os__irq_8h.html" target="_top" xlink:title="Header file of IRQ interface.">
<polygon fill="white" stroke="#666666" points="507.5,-74 435.5,-74 435.5,-55 507.5,-55 507.5,-74"/>
<text text-anchor="middle" x="471.5" y="-62" font-family="Helvetica,sans-Serif" font-size="10.00">no_os_irq.h</text>
</a>
</g>
</g>
<!-- Node11&#45;&gt;Node15 -->
<g id="edge18_Node000011_Node000015" class="edge">
<title>Node11&#45;&gt;Node15</title>
<g id="a_edge18_Node000011_Node000015"><a xlink:title=" ">
<path fill="none" stroke="#63b8ff" d="M467.33,-109.75C467.98,-102.8 468.92,-92.85 469.74,-84.13"/>
<polygon fill="#63b8ff" stroke="#63b8ff" points="473.23,-84.37 470.69,-74.09 466.27,-83.72 473.23,-84.37"/>
</a>
</g>
</g>
<!-- Node16 -->
<g id="Node000016" class="node">
<title>Node16</title>
<g id="a_Node000016"><a xlink:href="no__os__mutex_8h.html" target="_top" xlink:title=" ">
<polygon fill="white" stroke="#666666" points="417,-74 326,-74 326,-55 417,-55 417,-74"/>
<text text-anchor="middle" x="371.5" y="-62" font-family="Helvetica,sans-Serif" font-size="10.00">no_os_mutex.h</text>
</a>
</g>
</g>
<!-- Node11&#45;&gt;Node16 -->
<g id="edge20_Node000011_Node000016" class="edge">
<title>Node11&#45;&gt;Node16</title>
<g id="a_edge20_Node000011_Node000016"><a xlink:title=" ">
<path fill="none" stroke="#63b8ff" d="M451.24,-109.98C436.37,-101.69 413.52,-88.94 396.08,-79.22"/>
<polygon fill="#63b8ff" stroke="#63b8ff" points="397.48,-75.99 387.04,-74.17 394.07,-82.1 397.48,-75.99"/>
</a>
</g>
</g>
<!-- Node13&#45;&gt;Node8 -->
<g id="edge16_Node000013_Node000008" class="edge">
<title>Node13&#45;&gt;Node8</title>
<g id="a_edge16_Node000013_Node000008"><a xlink:title=" ">
<path fill="none" stroke="#63b8ff" d="M525.37,-56.57C470.71,-46.37 369.2,-27.43 314.93,-17.3"/>
<polygon fill="#63b8ff" stroke="#63b8ff" points="315.53,-13.85 305.05,-15.46 314.24,-20.73 315.53,-13.85"/>
</a>
</g>
</g>
<!-- Node14 -->
<g id="Node000014" class="node">
<title>Node14</title>
<g id="a_Node000014"><a xlink:title=" ">
<polygon fill="#e0e0e0" stroke="#999999" points="644.5,-19 582.5,-19 582.5,0 644.5,0 644.5,-19"/>
<text text-anchor="middle" x="613.5" y="-7" font-family="Helvetica,sans-Serif" font-size="10.00">stdbool.h</text>
</a>
</g>
</g>
<!-- Node13&#45;&gt;Node14 -->
<g id="edge17_Node000013_Node000014" class="edge">
<title>Node13&#45;&gt;Node14</title>
<g id="a_edge17_Node000013_Node000014"><a xlink:title=" ">
<path fill="none" stroke="#63b8ff" d="M570.92,-54.75C578.27,-47.11 589.13,-35.82 598.04,-26.56"/>
<polygon fill="#63b8ff" stroke="#63b8ff" points="600.82,-28.72 605.24,-19.09 595.78,-23.87 600.82,-28.72"/>
</a>
</g>
</g>
<!-- Node15&#45;&gt;Node8 -->
<g id="edge19_Node000015_Node000008" class="edge">
<title>Node15&#45;&gt;Node8</title>
<g id="a_edge19_Node000015_Node000008"><a xlink:title=" ">
<path fill="none" stroke="#63b8ff" d="M440.49,-54.98C406.21,-45.57 351.04,-30.42 314.78,-20.46"/>
<polygon fill="#63b8ff" stroke="#63b8ff" points="315.65,-17.07 305.08,-17.8 313.8,-23.82 315.65,-17.07"/>
</a>
</g>
</g>
<!-- Node17&#45;&gt;Node8 -->
<g id="edge22_Node000017_Node000008" class="edge">
<title>Node17&#45;&gt;Node8</title>
<g id="a_edge22_Node000017_Node000008"><a xlink:title=" ">
<path fill="none" stroke="#63b8ff" d="M505.69,-168.75C448.74,-160.18 350.25,-136.71 296.5,-74 285.9,-61.63 281.52,-43.41 279.72,-29.66"/>
<polygon fill="#63b8ff" stroke="#63b8ff" points="283.18,-29 278.74,-19.38 276.21,-29.67 283.18,-29"/>
</a>
</g>
</g>
<!-- Node17&#45;&gt;Node11 -->
<g id="edge23_Node000017_Node000011" class="edge">
<title>Node17&#45;&gt;Node11</title>
<g id="a_edge23_Node000017_Node000011"><a xlink:title=" ">
<path fill="none" stroke="#63b8ff" d="M536.16,-164.98C523.41,-156.84 503.95,-144.41 488.83,-134.76"/>
<polygon fill="#63b8ff" stroke="#63b8ff" points="490.39,-131.6 480.08,-129.17 486.62,-137.5 490.39,-131.6"/>
</a>
</g>
</g>
<!-- Node18 -->
<g id="Node000018" class="node">
<title>Node18</title>
<g id="a_Node000018"><a xlink:title=" ">
<polygon fill="#e0e0e0" stroke="#999999" points="572,-129 525,-129 525,-110 572,-110 572,-129"/>
<text text-anchor="middle" x="548.5" y="-117" font-family="Helvetica,sans-Serif" font-size="10.00">dma.h</text>
</a>
</g>
</g>
<!-- Node17&#45;&gt;Node18 -->
<g id="edge24_Node000017_Node000018" class="edge">
<title>Node17&#45;&gt;Node18</title>
<g id="a_edge24_Node000017_Node000018"><a xlink:title=" ">
<path fill="none" stroke="#63b8ff" d="M549.33,-164.75C549.2,-157.8 549.02,-147.85 548.85,-139.13"/>
<polygon fill="#63b8ff" stroke="#63b8ff" points="552.35,-139.02 548.66,-129.09 545.35,-139.15 552.35,-139.02"/>
</a>
</g>
</g>
<!-- Node19&#45;&gt;Node8 -->
<g id="edge26_Node000019_Node000008" class="edge">
<title>Node19&#45;&gt;Node8</title>
<g id="a_edge26_Node000019_Node000008"><a xlink:title=" ">
<path fill="none" stroke="#63b8ff" d="M80.42,-54.98C124.81,-45.02 197.83,-28.62 241.72,-18.76"/>
<polygon fill="#63b8ff" stroke="#63b8ff" points="242.7,-22.13 251.69,-16.52 241.16,-15.3 242.7,-22.13"/>
</a>
</g>
</g>
<!-- Node20&#45;&gt;Node12 -->
<g id="edge28_Node000020_Node000012" class="edge">
<title>Node20&#45;&gt;Node12</title>
<g id="a_edge28_Node000020_Node000012"><a xlink:title=" ">
<path fill="none" stroke="#63b8ff" d="M861,-109.98C848.1,-101.84 828.4,-89.41 813.1,-79.76"/>
<polygon fill="#63b8ff" stroke="#63b8ff" points="814.57,-76.55 804.24,-74.17 810.83,-82.47 814.57,-76.55"/>
</a>
</g>
</g>
<!-- Node21&#45;&gt;Node2 -->
<g id="edge31_Node000021_Node000002" class="edge">
<title>Node21&#45;&gt;Node2</title>
<g id="a_edge31_Node000021_Node000002"><a xlink:title=" ">
<path fill="none" stroke="#63b8ff" d="M642.44,-109.98C657,-101.69 679.37,-88.94 696.43,-79.22"/>
<polygon fill="#63b8ff" stroke="#63b8ff" points="698.33,-82.16 705.29,-74.17 694.86,-76.08 698.33,-82.16"/>
</a>
</g>
</g>
<!-- Node21&#45;&gt;Node8 -->
<g id="edge30_Node000021_Node000008" class="edge">
<title>Node21&#45;&gt;Node8</title>
<g id="a_edge30_Node000021_Node000008"><a xlink:title=" ">
<path fill="none" stroke="#63b8ff" d="M627.67,-109.97C627.43,-96.12 624.77,-68.9 608.5,-55 565.05,-17.88 391.9,-11.55 315.29,-10.6"/>
<polygon fill="#63b8ff" stroke="#63b8ff" points="315.18,-7.1 305.14,-10.49 315.11,-14.1 315.18,-7.1"/>
</a>
</g>
</g>
<!-- Node21&#45;&gt;Node14 -->
<g id="edge32_Node000021_Node000014" class="edge">
<title>Node21&#45;&gt;Node14</title>
<g id="a_edge32_Node000021_Node000014"><a xlink:title=" ">
<path fill="none" stroke="#63b8ff" d="M632.16,-109.78C638.13,-97.47 647.07,-74.31 641.5,-55 638.63,-45.06 632.82,-35.2 627.22,-27.29"/>
<polygon fill="#63b8ff" stroke="#63b8ff" points="630,-25.16 621.17,-19.3 624.42,-29.39 630,-25.16"/>
</a>
</g>
</g>
<!-- Node22&#45;&gt;Node2 -->
<g id="edge35_Node000022_Node000002" class="edge">
<title>Node22&#45;&gt;Node2</title>
<g id="a_edge35_Node000022_Node000002"><a xlink:title=" ">
<path fill="none" stroke="#63b8ff" d="M756.4,-109.75C750.33,-102.26 741.41,-91.28 733.99,-82.13"/>
<polygon fill="#63b8ff" stroke="#63b8ff" points="736.49,-79.65 727.47,-74.09 731.05,-84.06 736.49,-79.65"/>
</a>
</g>
</g>
<!-- Node22&#45;&gt;Node12 -->
<g id="edge34_Node000022_Node000012" class="edge">
<title>Node22&#45;&gt;Node12</title>
<g id="a_edge34_Node000022_Node000012"><a xlink:title=" ">
<path fill="none" stroke="#63b8ff" d="M767.96,-109.75C771.62,-102.57 776.91,-92.18 781.45,-83.27"/>
<polygon fill="#63b8ff" stroke="#63b8ff" points="784.7,-84.59 786.12,-74.09 778.47,-81.41 784.7,-84.59"/>
</a>
</g>
</g>
</g>
</svg>
