<?xml version="1.0" encoding="UTF-8" standalone="no"?>
<!DOCTYPE svg PUBLIC "-//W3C//DTD SVG 1.1//EN"
 "http://www.w3.org/Graphics/SVG/1.1/DTD/svg11.dtd">
<!-- Generated by graphviz version 2.43.0 (0)
 -->
<!-- Title: drivers/platform/maxim/max32650/maxim_spi.h Pages: 1 -->
<svg width="592pt" height="203pt"
 viewBox="0.00 0.00 592.42 203.00" xmlns="http://www.w3.org/2000/svg" xmlns:xlink="http://www.w3.org/1999/xlink">
<g id="graph0" class="graph" transform="scale(1 1) rotate(0) translate(4 199)">
<title>drivers/platform/maxim/max32650/maxim_spi.h</title>
<!-- Node1 -->
<g id="Node000001" class="node">
<title>Node1</title>
<g id="a_Node000001"><a xlink:title="maxim specific header for SPI driver">
<polygon fill="#999999" stroke="#666666" points="200.42,-195 63.42,-195 63.42,-165 200.42,-165 200.42,-195"/>
<text text-anchor="start" x="71.42" y="-183" font-family="Helvetica,sans-Serif" font-size="10.00">drivers/platform/maxim</text>
<text text-anchor="middle" x="131.92" y="-172" font-family="Helvetica,sans-Serif" font-size="10.00">/max32650/maxim_spi.h</text>
</a>
</g>
</g>
<!-- Node2 -->
<g id="Node000002" class="node">
<title>Node2</title>
<g id="a_Node000002"><a xlink:title=" ">
<polygon fill="#e0e0e0" stroke="#999999" points="169.42,-19 116.42,-19 116.42,0 169.42,0 169.42,-19"/>
<text text-anchor="middle" x="142.92" y="-7" font-family="Helvetica,sans-Serif" font-size="10.00">stdint.h</text>
</a>
</g>
</g>
<!-- Node1&#45;&gt;Node2 -->
<g id="edge1_Node000001_Node000002" class="edge">
<title>Node1&#45;&gt;Node2</title>
<g id="a_edge1_Node000001_Node000002"><a xlink:title=" ">
<path fill="none" stroke="#63b8ff" d="M63.15,-167.75C25.06,-157.97 -11.71,-140.42 3.92,-110 26.15,-66.76 76.85,-38.11 110.49,-23.09"/>
<polygon fill="#63b8ff" stroke="#63b8ff" points="112.1,-26.21 119.9,-19.04 109.33,-19.78 112.1,-26.21"/>
</a>
</g>
</g>
<!-- Node3 -->
<g id="Node000003" class="node">
<title>Node3</title>
<g id="a_Node000003"><a xlink:title=" ">
<polygon fill="#e0e0e0" stroke="#999999" points="90.42,-129 13.42,-129 13.42,-110 90.42,-110 90.42,-129"/>
<text text-anchor="middle" x="51.92" y="-117" font-family="Helvetica,sans-Serif" font-size="10.00">max32650.h</text>
</a>
</g>
</g>
<!-- Node1&#45;&gt;Node3 -->
<g id="edge2_Node000001_Node000003" class="edge">
<title>Node1&#45;&gt;Node3</title>
<g id="a_edge2_Node000001_Node000003"><a xlink:title=" ">
<path fill="none" stroke="#63b8ff" d="M112.56,-164.84C100.35,-155.91 84.62,-144.41 72.24,-135.35"/>
<polygon fill="#63b8ff" stroke="#63b8ff" points="74.05,-132.34 63.91,-129.27 69.92,-137.99 74.05,-132.34"/>
</a>
</g>
</g>
<!-- Node4 -->
<g id="Node000004" class="node">
<title>Node4</title>
<g id="a_Node000004"><a xlink:title=" ">
<polygon fill="#e0e0e0" stroke="#999999" points="155.42,-129 108.42,-129 108.42,-110 155.42,-110 155.42,-129"/>
<text text-anchor="middle" x="131.92" y="-117" font-family="Helvetica,sans-Serif" font-size="10.00">gpio.h</text>
</a>
</g>
</g>
<!-- Node1&#45;&gt;Node4 -->
<g id="edge3_Node000001_Node000004" class="edge">
<title>Node1&#45;&gt;Node4</title>
<g id="a_edge3_Node000001_Node000004"><a xlink:title=" ">
<path fill="none" stroke="#63b8ff" d="M131.92,-164.84C131.92,-157.21 131.92,-147.7 131.92,-139.45"/>
<polygon fill="#63b8ff" stroke="#63b8ff" points="135.42,-139.27 131.92,-129.27 128.42,-139.27 135.42,-139.27"/>
</a>
</g>
</g>
<!-- Node5 -->
<g id="Node000005" class="node">
<title>Node5</title>
<g id="a_Node000005"><a xlink:href="no__os__spi_8h.html" target="_top" xlink:title="Header file of SPI Interface.">
<polygon fill="white" stroke="#666666" points="247.92,-129 173.92,-129 173.92,-110 247.92,-110 247.92,-129"/>
<text text-anchor="middle" x="210.92" y="-117" font-family="Helvetica,sans-Serif" font-size="10.00">no_os_spi.h</text>
</a>
</g>
</g>
<!-- Node1&#45;&gt;Node5 -->
<g id="edge4_Node000001_Node000005" class="edge">
<title>Node1&#45;&gt;Node5</title>
<g id="a_edge4_Node000001_Node000005"><a xlink:title=" ">
<path fill="none" stroke="#63b8ff" d="M151.05,-164.84C163.1,-155.91 178.64,-144.41 190.86,-135.35"/>
<polygon fill="#63b8ff" stroke="#63b8ff" points="193.13,-138.03 199.09,-129.27 188.97,-132.4 193.13,-138.03"/>
</a>
</g>
</g>
<!-- Node6 -->
<g id="Node000006" class="node">
<title>Node6</title>
<g id="a_Node000006"><a xlink:href="no__os__dma_8h.html" target="_top" xlink:title="Platform independent function definitions and data types for the DMA API.">
<polygon fill="white" stroke="#666666" points="347.42,-129 266.42,-129 266.42,-110 347.42,-110 347.42,-129"/>
<text text-anchor="middle" x="306.92" y="-117" font-family="Helvetica,sans-Serif" font-size="10.00">no_os_dma.h</text>
</a>
</g>
</g>
<!-- Node1&#45;&gt;Node6 -->
<g id="edge6_Node000001_Node000006" class="edge">
<title>Node1&#45;&gt;Node6</title>
<g id="a_edge6_Node000001_Node000006"><a xlink:title=" ">
<path fill="none" stroke="#63b8ff" d="M173.84,-164.99C203.65,-155.02 243.25,-141.78 271.49,-132.35"/>
<polygon fill="#63b8ff" stroke="#63b8ff" points="272.96,-135.54 281.34,-129.05 270.74,-128.9 272.96,-135.54"/>
</a>
</g>
</g>
<!-- Node5&#45;&gt;Node2 -->
<g id="edge5_Node000005_Node000002" class="edge">
<title>Node5&#45;&gt;Node2</title>
<g id="a_edge5_Node000005_Node000002"><a xlink:title=" ">
<path fill="none" stroke="#63b8ff" d="M178.71,-109.92C160.67,-103.29 139.69,-92.09 128.92,-74 120.64,-60.08 126.04,-41.83 132.38,-28.46"/>
<polygon fill="#63b8ff" stroke="#63b8ff" points="135.62,-29.82 137.21,-19.35 129.43,-26.55 135.62,-29.82"/>
</a>
</g>
</g>
<!-- Node6&#45;&gt;Node2 -->
<g id="edge9_Node000006_Node000002" class="edge">
<title>Node6&#45;&gt;Node2</title>
<g id="a_edge9_Node000006_Node000002"><a xlink:title=" ">
<path fill="none" stroke="#63b8ff" d="M266.24,-110.5C228.71,-102.34 176.63,-88.81 161.92,-74 150.15,-62.14 145.62,-43.31 143.9,-29.23"/>
<polygon fill="#63b8ff" stroke="#63b8ff" points="147.38,-28.84 143.05,-19.18 140.41,-29.44 147.38,-28.84"/>
</a>
</g>
</g>
<!-- Node7 -->
<g id="Node000007" class="node">
<title>Node7</title>
<g id="a_Node000007"><a xlink:title=" ">
<polygon fill="#e0e0e0" stroke="#999999" points="220.92,-74 170.92,-74 170.92,-55 220.92,-55 220.92,-74"/>
<text text-anchor="middle" x="195.92" y="-62" font-family="Helvetica,sans-Serif" font-size="10.00">stdio.h</text>
</a>
</g>
</g>
<!-- Node6&#45;&gt;Node7 -->
<g id="edge7_Node000006_Node000007" class="edge">
<title>Node6&#45;&gt;Node7</title>
<g id="a_edge7_Node000006_Node000007"><a xlink:title=" ">
<path fill="none" stroke="#63b8ff" d="M289.09,-109.98C271.31,-101.5 243.78,-88.35 223.24,-78.54"/>
<polygon fill="#63b8ff" stroke="#63b8ff" points="224.61,-75.32 214.08,-74.17 221.6,-81.64 224.61,-75.32"/>
</a>
</g>
</g>
<!-- Node8 -->
<g id="Node000008" class="node">
<title>Node8</title>
<g id="a_Node000008"><a xlink:title=" ">
<polygon fill="#e0e0e0" stroke="#999999" points="292.42,-74 239.42,-74 239.42,-55 292.42,-55 292.42,-74"/>
<text text-anchor="middle" x="265.92" y="-62" font-family="Helvetica,sans-Serif" font-size="10.00">stdlib.h</text>
</a>
</g>
</g>
<!-- Node6&#45;&gt;Node8 -->
<g id="edge8_Node000006_Node000008" class="edge">
<title>Node6&#45;&gt;Node8</title>
<g id="a_edge8_Node000006_Node000008"><a xlink:title=" ">
<path fill="none" stroke="#63b8ff" d="M300.15,-109.75C294.36,-102.26 285.86,-91.28 278.79,-82.13"/>
<polygon fill="#63b8ff" stroke="#63b8ff" points="281.45,-79.86 272.57,-74.09 275.92,-84.14 281.45,-79.86"/>
</a>
</g>
</g>
<!-- Node9 -->
<g id="Node000009" class="node">
<title>Node9</title>
<g id="a_Node000009"><a xlink:href="no__os__list_8h.html" target="_top" xlink:title="List library header.">
<polygon fill="white" stroke="#666666" points="474.92,-74 400.92,-74 400.92,-55 474.92,-55 474.92,-74"/>
<text text-anchor="middle" x="437.92" y="-62" font-family="Helvetica,sans-Serif" font-size="10.00">no_os_list.h</text>
</a>
</g>
</g>
<!-- Node6&#45;&gt;Node9 -->
<g id="edge10_Node000006_Node000009" class="edge">
<title>Node6&#45;&gt;Node9</title>
<g id="a_edge10_Node000006_Node000009"><a xlink:title=" ">
<path fill="none" stroke="#63b8ff" d="M327.97,-109.98C349.33,-101.34 382.63,-87.87 406.99,-78.02"/>
<polygon fill="#63b8ff" stroke="#63b8ff" points="408.54,-81.17 416.49,-74.17 405.91,-74.68 408.54,-81.17"/>
</a>
</g>
</g>
<!-- Node11 -->
<g id="Node000011" class="node">
<title>Node11</title>
<g id="a_Node000011"><a xlink:href="no__os__irq_8h.html" target="_top" xlink:title="Header file of IRQ interface.">
<polygon fill="white" stroke="#666666" points="382.92,-74 310.92,-74 310.92,-55 382.92,-55 382.92,-74"/>
<text text-anchor="middle" x="346.92" y="-62" font-family="Helvetica,sans-Serif" font-size="10.00">no_os_irq.h</text>
</a>
</g>
</g>
<!-- Node6&#45;&gt;Node11 -->
<g id="edge13_Node000006_Node000011" class="edge">
<title>Node6&#45;&gt;Node11</title>
<g id="a_edge13_Node000006_Node000011"><a xlink:title=" ">
<path fill="none" stroke="#63b8ff" d="M313.53,-109.75C319.18,-102.26 327.47,-91.28 334.37,-82.13"/>
<polygon fill="#63b8ff" stroke="#63b8ff" points="337.21,-84.18 340.44,-74.09 331.62,-79.96 337.21,-84.18"/>
</a>
</g>
</g>
<!-- Node12 -->
<g id="Node000012" class="node">
<title>Node12</title>
<g id="a_Node000012"><a xlink:href="no__os__mutex_8h.html" target="_top" xlink:title=" ">
<polygon fill="white" stroke="#666666" points="584.42,-74 493.42,-74 493.42,-55 584.42,-55 584.42,-74"/>
<text text-anchor="middle" x="538.92" y="-62" font-family="Helvetica,sans-Serif" font-size="10.00">no_os_mutex.h</text>
</a>
</g>
</g>
<!-- Node6&#45;&gt;Node12 -->
<g id="edge15_Node000006_Node000012" class="edge">
<title>Node6&#45;&gt;Node12</title>
<g id="a_edge15_Node000006_Node000012"><a xlink:title=" ">
<path fill="none" stroke="#63b8ff" d="M344.2,-109.98C384.24,-100.84 447.99,-86.27 491.56,-76.32"/>
<polygon fill="#63b8ff" stroke="#63b8ff" points="492.39,-79.72 501.36,-74.08 490.83,-72.9 492.39,-79.72"/>
</a>
</g>
</g>
<!-- Node9&#45;&gt;Node2 -->
<g id="edge11_Node000009_Node000002" class="edge">
<title>Node9&#45;&gt;Node2</title>
<g id="a_edge11_Node000009_Node000002"><a xlink:title=" ">
<path fill="none" stroke="#63b8ff" d="M400.77,-56.62C397.78,-56.07 394.8,-55.52 391.92,-55 316.45,-41.28 228.04,-25.57 179.49,-16.97"/>
<polygon fill="#63b8ff" stroke="#63b8ff" points="179.92,-13.49 169.47,-15.19 178.7,-20.38 179.92,-13.49"/>
</a>
</g>
</g>
<!-- Node10 -->
<g id="Node000010" class="node">
<title>Node10</title>
<g id="a_Node000010"><a xlink:title=" ">
<polygon fill="#e0e0e0" stroke="#999999" points="468.92,-19 406.92,-19 406.92,0 468.92,0 468.92,-19"/>
<text text-anchor="middle" x="437.92" y="-7" font-family="Helvetica,sans-Serif" font-size="10.00">stdbool.h</text>
</a>
</g>
</g>
<!-- Node9&#45;&gt;Node10 -->
<g id="edge12_Node000009_Node000010" class="edge">
<title>Node9&#45;&gt;Node10</title>
<g id="a_edge12_Node000009_Node000010"><a xlink:title=" ">
<path fill="none" stroke="#63b8ff" d="M437.92,-54.75C437.92,-47.8 437.92,-37.85 437.92,-29.13"/>
<polygon fill="#63b8ff" stroke="#63b8ff" points="441.42,-29.09 437.92,-19.09 434.42,-29.09 441.42,-29.09"/>
</a>
</g>
</g>
<!-- Node11&#45;&gt;Node2 -->
<g id="edge14_Node000011_Node000002" class="edge">
<title>Node11&#45;&gt;Node2</title>
<g id="a_edge14_Node000011_Node000002"><a xlink:title=" ">
<path fill="none" stroke="#63b8ff" d="M314.15,-54.98C277.24,-45.4 217.43,-29.86 179.16,-19.91"/>
<polygon fill="#63b8ff" stroke="#63b8ff" points="180,-16.52 169.44,-17.39 178.24,-23.29 180,-16.52"/>
</a>
</g>
</g>
</g>
</svg>
