<?xml version="1.0" encoding="UTF-8" standalone="no"?>
<!DOCTYPE svg PUBLIC "-//W3C//DTD SVG 1.1//EN"
 "http://www.w3.org/Graphics/SVG/1.1/DTD/svg11.dtd">
<!-- Generated by graphviz version 2.43.0 (0)
 -->
<!-- Title: drivers/platform/maxim/max32672/maxim_irq.h Pages: 1 -->
<svg width="644pt" height="104pt"
 viewBox="0.00 0.00 643.50 104.00" xmlns="http://www.w3.org/2000/svg" xmlns:xlink="http://www.w3.org/1999/xlink">
<g id="graph0" class="graph" transform="scale(1 1) rotate(0) translate(4 100)">
<title>drivers/platform/maxim/max32672/maxim_irq.h</title>
<!-- Node1 -->
<g id="Node000001" class="node">
<title>Node1</title>
<g id="a_Node000001"><a xlink:title="Header file for maxim irq specifics.">
<polygon fill="#999999" stroke="#666666" points="392.5,-96 256.5,-96 256.5,-66 392.5,-66 392.5,-96"/>
<text text-anchor="start" x="264.5" y="-84" font-family="Helvetica,sans-Serif" font-size="10.00">drivers/platform/maxim</text>
<text text-anchor="middle" x="324.5" y="-73" font-family="Helvetica,sans-Serif" font-size="10.00">/max32672/maxim_irq.h</text>
</a>
</g>
</g>
<!-- Node2 -->
<g id="Node000002" class="node">
<title>Node2</title>
<g id="a_Node000002"><a xlink:href="max32672_2maxim__gpio_8c.html" target="_top" xlink:title="Implementation of gpio driver.">
<polygon fill="white" stroke="#666666" points="143,-30 0,-30 0,0 143,0 143,-30"/>
<text text-anchor="start" x="8" y="-18" font-family="Helvetica,sans-Serif" font-size="10.00">drivers/platform/maxim</text>
<text text-anchor="middle" x="71.5" y="-7" font-family="Helvetica,sans-Serif" font-size="10.00">/max32672/maxim_gpio.c</text>
</a>
</g>
</g>
<!-- Node1&#45;&gt;Node2 -->
<g id="edge1_Node000001_Node000002" class="edge">
<title>Node1&#45;&gt;Node2</title>
<g id="a_edge1_Node000001_Node000002"><a xlink:title=" ">
<path fill="none" stroke="#63b8ff" d="M259.08,-63.45C218.09,-53.08 165.83,-39.86 126.89,-30.01"/>
<polygon fill="#63b8ff" stroke="#63b8ff" points="258.43,-66.9 268.98,-65.95 260.14,-60.11 258.43,-66.9"/>
</a>
</g>
</g>
<!-- Node3 -->
<g id="Node000003" class="node">
<title>Node3</title>
<g id="a_Node000003"><a xlink:href="max32672_2maxim__gpio__irq_8c.html" target="_top" xlink:title="Source file for GPIO IRQ driver.">
<polygon fill="white" stroke="#666666" points="322,-30 161,-30 161,0 322,0 322,-30"/>
<text text-anchor="start" x="169" y="-18" font-family="Helvetica,sans-Serif" font-size="10.00">drivers/platform/maxim</text>
<text text-anchor="middle" x="241.5" y="-7" font-family="Helvetica,sans-Serif" font-size="10.00">/max32672/maxim_gpio_irq.c</text>
</a>
</g>
</g>
<!-- Node1&#45;&gt;Node3 -->
<g id="edge2_Node000001_Node000003" class="edge">
<title>Node1&#45;&gt;Node3</title>
<g id="a_edge2_Node000001_Node000003"><a xlink:title=" ">
<path fill="none" stroke="#63b8ff" d="M297.89,-59.48C285.48,-49.91 271.03,-38.77 259.87,-30.16"/>
<polygon fill="#63b8ff" stroke="#63b8ff" points="296.02,-62.46 306.08,-65.8 300.3,-56.92 296.02,-62.46"/>
</a>
</g>
</g>
<!-- Node4 -->
<g id="Node000004" class="node">
<title>Node4</title>
<g id="a_Node000004"><a xlink:href="max32672_2maxim__irq_8c.html" target="_top" xlink:title="Implementation of external irq driver.">
<polygon fill="white" stroke="#666666" points="475,-30 340,-30 340,0 475,0 475,-30"/>
<text text-anchor="start" x="348" y="-18" font-family="Helvetica,sans-Serif" font-size="10.00">drivers/platform/maxim</text>
<text text-anchor="middle" x="407.5" y="-7" font-family="Helvetica,sans-Serif" font-size="10.00">/max32672/maxim_irq.c</text>
</a>
</g>
</g>
<!-- Node1&#45;&gt;Node4 -->
<g id="edge3_Node000001_Node000004" class="edge">
<title>Node1&#45;&gt;Node4</title>
<g id="a_edge3_Node000001_Node000004"><a xlink:title=" ">
<path fill="none" stroke="#63b8ff" d="M351.11,-59.48C363.52,-49.91 377.97,-38.77 389.13,-30.16"/>
<polygon fill="#63b8ff" stroke="#63b8ff" points="348.7,-56.92 342.92,-65.8 352.98,-62.46 348.7,-56.92"/>
</a>
</g>
</g>
<!-- Node5 -->
<g id="Node000005" class="node">
<title>Node5</title>
<g id="a_Node000005"><a xlink:href="max32672_2maxim__uart_8c.html" target="_top" xlink:title="Source file of UART driver for STM32.">
<polygon fill="white" stroke="#666666" points="635.5,-30 493.5,-30 493.5,0 635.5,0 635.5,-30"/>
<text text-anchor="start" x="501.5" y="-18" font-family="Helvetica,sans-Serif" font-size="10.00">drivers/platform/maxim</text>
<text text-anchor="middle" x="564.5" y="-7" font-family="Helvetica,sans-Serif" font-size="10.00">/max32672/maxim_uart.c</text>
</a>
</g>
</g>
<!-- Node1&#45;&gt;Node5 -->
<g id="edge4_Node000001_Node000005" class="edge">
<title>Node1&#45;&gt;Node5</title>
<g id="a_edge4_Node000001_Node000005"><a xlink:title=" ">
<path fill="none" stroke="#63b8ff" d="M387.3,-63.25C426.07,-52.91 475.25,-39.8 511.95,-30.01"/>
<polygon fill="#63b8ff" stroke="#63b8ff" points="385.93,-60 377.17,-65.95 387.73,-66.76 385.93,-60"/>
</a>
</g>
</g>
</g>
</svg>
