<?xml version="1.0" encoding="UTF-8" standalone="no"?>
<!DOCTYPE svg PUBLIC "-//W3C//DTD SVG 1.1//EN"
 "http://www.w3.org/Graphics/SVG/1.1/DTD/svg11.dtd">
<!-- Generated by graphviz version 2.43.0 (0)
 -->
<!-- Title: max31343_reg_write Pages: 1 -->
<svg width="440pt" height="79pt"
 viewBox="0.00 0.00 440.00 79.13" xmlns="http://www.w3.org/2000/svg" xmlns:xlink="http://www.w3.org/1999/xlink">
<g id="graph0" class="graph" transform="scale(1 1) rotate(0) translate(4 75.13)">
<title>max31343_reg_write</title>
<!-- Node1 -->
<g id="Node000001" class="node">
<title>Node1</title>
<g id="a_Node000001"><a xlink:title="Write device register.">
<polygon fill="#999999" stroke="#666666" points="432,-56 313,-56 313,-37 432,-37 432,-56"/>
<text text-anchor="middle" x="372.5" y="-44" font-family="Helvetica,sans-Serif" font-size="10.00">max31343_reg_write</text>
</a>
</g>
</g>
<!-- Node2 -->
<g id="Node000002" class="node">
<title>Node2</title>
<g id="a_Node000002"><a xlink:href="max31343_8c.html#ab0792afccbd256677379ba776823d85e" target="_top" xlink:title="Initialize the device.">
<polygon fill="white" stroke="#666666" points="89,-56 0,-56 0,-37 89,-37 89,-56"/>
<text text-anchor="middle" x="44.5" y="-44" font-family="Helvetica,sans-Serif" font-size="10.00">max31343_init</text>
</a>
</g>
</g>
<!-- Node1&#45;&gt;Node2 -->
<g id="edge1_Node000001_Node000002" class="edge">
<title>Node1&#45;&gt;Node2</title>
<g id="a_edge1_Node000001_Node000002"><a xlink:title=" ">
<path fill="none" stroke="#63b8ff" d="M323.22,-58.12C308.47,-61.15 292.15,-63.99 277,-65.5 209.78,-72.19 192.09,-73.41 125,-65.5 109.22,-63.64 92.03,-59.77 77.68,-56.01"/>
<polygon fill="#63b8ff" stroke="#63b8ff" points="324.09,-61.52 333.14,-56.01 322.63,-54.67 324.09,-61.52"/>
</a>
</g>
</g>
<!-- Node3 -->
<g id="Node000003" class="node">
<title>Node3</title>
<g id="a_Node000003"><a xlink:href="max31343_8c.html#ab544e9e3d7186cc5286437c60364738e" target="_top" xlink:title="Set time stamp.">
<polygon fill="white" stroke="#666666" points="277,-56 125,-56 125,-37 277,-37 277,-56"/>
<text text-anchor="middle" x="201" y="-44" font-family="Helvetica,sans-Serif" font-size="10.00">max31343_set_time_stamp</text>
</a>
</g>
</g>
<!-- Node1&#45;&gt;Node3 -->
<g id="edge2_Node000001_Node000003" class="edge">
<title>Node1&#45;&gt;Node3</title>
<g id="a_edge2_Node000001_Node000003"><a xlink:title=" ">
<path fill="none" stroke="#63b8ff" d="M302.59,-46.5C294.2,-46.5 285.6,-46.5 277.12,-46.5"/>
<polygon fill="#63b8ff" stroke="#63b8ff" points="302.69,-50 312.69,-46.5 302.69,-43 302.69,-50"/>
</a>
</g>
</g>
<!-- Node4 -->
<g id="Node000004" class="node">
<title>Node4</title>
<g id="a_Node000004"><a xlink:href="max31343_8c.html#af6417919db9e15448b7b3d94e0adda30" target="_top" xlink:title="Update specific register bits.">
<polygon fill="white" stroke="#666666" points="266.5,-19 135.5,-19 135.5,0 266.5,0 266.5,-19"/>
<text text-anchor="middle" x="201" y="-7" font-family="Helvetica,sans-Serif" font-size="10.00">max31343_update_bits</text>
</a>
</g>
</g>
<!-- Node1&#45;&gt;Node4 -->
<g id="edge3_Node000001_Node000004" class="edge">
<title>Node1&#45;&gt;Node4</title>
<g id="a_edge3_Node000001_Node000004"><a xlink:title=" ">
<path fill="none" stroke="#63b8ff" d="M317.81,-34.78C294.6,-29.71 267.78,-23.86 245.8,-19.06"/>
<polygon fill="#63b8ff" stroke="#63b8ff" points="317.33,-38.26 327.85,-36.97 318.83,-31.42 317.33,-38.26"/>
</a>
</g>
</g>
<!-- Node4&#45;&gt;Node2 -->
<g id="edge4_Node000004_Node000002" class="edge">
<title>Node4&#45;&gt;Node2</title>
<g id="a_edge4_Node000004_Node000002"><a xlink:title=" ">
<path fill="none" stroke="#63b8ff" d="M150.2,-21.43C129.25,-26.44 105.19,-32.21 85.42,-36.94"/>
<polygon fill="#63b8ff" stroke="#63b8ff" points="151.3,-24.76 160.21,-19.03 149.67,-17.95 151.3,-24.76"/>
</a>
</g>
</g>
</g>
</svg>
