<?xml version="1.0" encoding="UTF-8" standalone="no"?>
<!DOCTYPE svg PUBLIC "-//W3C//DTD SVG 1.1//EN"
 "http://www.w3.org/Graphics/SVG/1.1/DTD/svg11.dtd">
<!-- Generated by graphviz version 2.43.0 (0)
 -->
<!-- Title: projects/max42500/src/common/common_data.c Pages: 1 -->
<svg width="616pt" height="258pt"
 viewBox="0.00 0.00 615.50 258.00" xmlns="http://www.w3.org/2000/svg" xmlns:xlink="http://www.w3.org/1999/xlink">
<g id="graph0" class="graph" transform="scale(1 1) rotate(0) translate(4 254)">
<title>projects/max42500/src/common/common_data.c</title>
<!-- Node1 -->
<g id="Node000001" class="node">
<title>Node1</title>
<g id="a_Node000001"><a xlink:title="Defines common data to be used by max42500 examples.">
<polygon fill="#999999" stroke="#666666" points="472.5,-250 329.5,-250 329.5,-220 472.5,-220 472.5,-250"/>
<text text-anchor="start" x="337.5" y="-238" font-family="Helvetica,sans-Serif" font-size="10.00">projects/max42500/src</text>
<text text-anchor="middle" x="401" y="-227" font-family="Helvetica,sans-Serif" font-size="10.00">/common/common_data.c</text>
</a>
</g>
</g>
<!-- Node2 -->
<g id="Node000002" class="node">
<title>Node2</title>
<g id="a_Node000002"><a xlink:href="max42500_2src_2common_2common__data_8h.html" target="_top" xlink:title="Defines common data to be used by max42500 examples.">
<polygon fill="white" stroke="#666666" points="289.5,-184 194.5,-184 194.5,-165 289.5,-165 289.5,-184"/>
<text text-anchor="middle" x="242" y="-172" font-family="Helvetica,sans-Serif" font-size="10.00">common_data.h</text>
</a>
</g>
</g>
<!-- Node1&#45;&gt;Node2 -->
<g id="edge1_Node000001_Node000002" class="edge">
<title>Node1&#45;&gt;Node2</title>
<g id="a_edge1_Node000001_Node000002"><a xlink:title=" ">
<path fill="none" stroke="#63b8ff" d="M362.92,-219.99C336.15,-210.14 300.7,-197.1 275.11,-187.68"/>
<polygon fill="#63b8ff" stroke="#63b8ff" points="276.07,-184.31 265.48,-184.14 273.66,-190.88 276.07,-184.31"/>
</a>
</g>
</g>
<!-- Node14 -->
<g id="Node000014" class="node">
<title>Node14</title>
<g id="a_Node000014"><a xlink:title=" ">
<polygon fill="#e0e0e0" stroke="#999999" points="394,-184 308,-184 308,-165 394,-165 394,-184"/>
<text text-anchor="middle" x="351" y="-172" font-family="Helvetica,sans-Serif" font-size="10.00">maxim_gpio.h</text>
</a>
</g>
</g>
<!-- Node1&#45;&gt;Node14 -->
<g id="edge23_Node000001_Node000014" class="edge">
<title>Node1&#45;&gt;Node14</title>
<g id="a_edge23_Node000001_Node000014"><a xlink:title=" ">
<path fill="none" stroke="#63b8ff" d="M388.9,-219.84C381.71,-211.43 372.57,-200.74 365.07,-191.96"/>
<polygon fill="#63b8ff" stroke="#63b8ff" points="367.65,-189.59 358.49,-184.27 362.33,-194.14 367.65,-189.59"/>
</a>
</g>
</g>
<!-- Node15 -->
<g id="Node000015" class="node">
<title>Node15</title>
<g id="a_Node000015"><a xlink:title=" ">
<polygon fill="#e0e0e0" stroke="#999999" points="492,-184 412,-184 412,-165 492,-165 492,-184"/>
<text text-anchor="middle" x="452" y="-172" font-family="Helvetica,sans-Serif" font-size="10.00">maxim_i2c.h</text>
</a>
</g>
</g>
<!-- Node1&#45;&gt;Node15 -->
<g id="edge24_Node000001_Node000015" class="edge">
<title>Node1&#45;&gt;Node15</title>
<g id="a_edge24_Node000001_Node000015"><a xlink:title=" ">
<path fill="none" stroke="#63b8ff" d="M413.35,-219.84C420.67,-211.43 430,-200.74 437.65,-191.96"/>
<polygon fill="#63b8ff" stroke="#63b8ff" points="440.42,-194.1 444.36,-184.27 435.15,-189.5 440.42,-194.1"/>
</a>
</g>
</g>
<!-- Node16 -->
<g id="Node000016" class="node">
<title>Node16</title>
<g id="a_Node000016"><a xlink:title=" ">
<polygon fill="#e0e0e0" stroke="#999999" points="595.5,-184 510.5,-184 510.5,-165 595.5,-165 595.5,-184"/>
<text text-anchor="middle" x="553" y="-172" font-family="Helvetica,sans-Serif" font-size="10.00">maxim_uart.h</text>
</a>
</g>
</g>
<!-- Node1&#45;&gt;Node16 -->
<g id="edge25_Node000001_Node000016" class="edge">
<title>Node1&#45;&gt;Node16</title>
<g id="a_edge25_Node000001_Node000016"><a xlink:title=" ">
<path fill="none" stroke="#63b8ff" d="M437.41,-219.99C462.88,-210.18 496.59,-197.21 521.03,-187.81"/>
<polygon fill="#63b8ff" stroke="#63b8ff" points="522.48,-191 530.55,-184.14 519.96,-184.46 522.48,-191"/>
</a>
</g>
</g>
<!-- Node3 -->
<g id="Node000003" class="node">
<title>Node3</title>
<g id="a_Node000003"><a xlink:title=" ">
<polygon fill="#e0e0e0" stroke="#999999" points="82,-129 0,-129 0,-110 82,-110 82,-129"/>
<text text-anchor="middle" x="41" y="-117" font-family="Helvetica,sans-Serif" font-size="10.00">parameters.h</text>
</a>
</g>
</g>
<!-- Node2&#45;&gt;Node3 -->
<g id="edge2_Node000002_Node000003" class="edge">
<title>Node2&#45;&gt;Node3</title>
<g id="a_edge2_Node000002_Node000003"><a xlink:title=" ">
<path fill="none" stroke="#63b8ff" d="M209.71,-164.98C175.38,-155.93 120.94,-141.58 83.23,-131.64"/>
<polygon fill="#63b8ff" stroke="#63b8ff" points="84.11,-128.25 73.55,-129.08 82.32,-135.02 84.11,-128.25"/>
</a>
</g>
</g>
<!-- Node4 -->
<g id="Node000004" class="node">
<title>Node4</title>
<g id="a_Node000004"><a xlink:href="no__os__uart_8h.html" target="_top" xlink:title="Header file of UART interface.">
<polygon fill="white" stroke="#666666" points="421.5,-129 342.5,-129 342.5,-110 421.5,-110 421.5,-129"/>
<text text-anchor="middle" x="382" y="-117" font-family="Helvetica,sans-Serif" font-size="10.00">no_os_uart.h</text>
</a>
</g>
</g>
<!-- Node2&#45;&gt;Node4 -->
<g id="edge3_Node000002_Node000004" class="edge">
<title>Node2&#45;&gt;Node4</title>
<g id="a_edge3_Node000002_Node000004"><a xlink:title=" ">
<path fill="none" stroke="#63b8ff" d="M264.49,-164.98C287.52,-156.27 323.54,-142.63 349.63,-132.75"/>
<polygon fill="#63b8ff" stroke="#63b8ff" points="350.98,-135.98 359.1,-129.17 348.51,-129.44 350.98,-135.98"/>
</a>
</g>
</g>
<!-- Node9 -->
<g id="Node000009" class="node">
<title>Node9</title>
<g id="a_Node000009"><a xlink:href="no__os__util_8h.html" target="_top" xlink:title="Header file of utility functions.">
<polygon fill="white" stroke="#666666" points="607.5,-74 532.5,-74 532.5,-55 607.5,-55 607.5,-74"/>
<text text-anchor="middle" x="570" y="-62" font-family="Helvetica,sans-Serif" font-size="10.00">no_os_util.h</text>
</a>
</g>
</g>
<!-- Node2&#45;&gt;Node9 -->
<g id="edge10_Node000002_Node000009" class="edge">
<title>Node2&#45;&gt;Node9</title>
<g id="a_edge10_Node000002_Node000009"><a xlink:title=" ">
<path fill="none" stroke="#63b8ff" d="M289.72,-164.97C328.38,-157.43 383.96,-145.11 431,-129 472.09,-114.93 517.47,-92.89 544.85,-78.83"/>
<polygon fill="#63b8ff" stroke="#63b8ff" points="546.48,-81.92 553.74,-74.21 543.25,-75.71 546.48,-81.92"/>
</a>
</g>
</g>
<!-- Node10 -->
<g id="Node000010" class="node">
<title>Node10</title>
<g id="a_Node000010"><a xlink:href="no__os__delay_8h.html" target="_top" xlink:title="Header file of Delay functions.">
<polygon fill="white" stroke="#666666" points="185.5,-129 100.5,-129 100.5,-110 185.5,-110 185.5,-129"/>
<text text-anchor="middle" x="143" y="-117" font-family="Helvetica,sans-Serif" font-size="10.00">no_os_delay.h</text>
</a>
</g>
</g>
<!-- Node2&#45;&gt;Node10 -->
<g id="edge14_Node000002_Node000010" class="edge">
<title>Node2&#45;&gt;Node10</title>
<g id="a_edge14_Node000002_Node000010"><a xlink:title=" ">
<path fill="none" stroke="#63b8ff" d="M226.09,-164.98C210.45,-156.61 186.34,-143.7 168.12,-133.95"/>
<polygon fill="#63b8ff" stroke="#63b8ff" points="169.66,-130.8 159.2,-129.17 166.36,-136.98 169.66,-130.8"/>
</a>
</g>
</g>
<!-- Node11 -->
<g id="Node000011" class="node">
<title>Node11</title>
<g id="a_Node000011"><a xlink:href="max42500_8h.html" target="_top" xlink:title="Header file of MAX42500 Driver.">
<polygon fill="white" stroke="#666666" points="280.5,-129 203.5,-129 203.5,-110 280.5,-110 280.5,-129"/>
<text text-anchor="middle" x="242" y="-117" font-family="Helvetica,sans-Serif" font-size="10.00">max42500.h</text>
</a>
</g>
</g>
<!-- Node2&#45;&gt;Node11 -->
<g id="edge16_Node000002_Node000011" class="edge">
<title>Node2&#45;&gt;Node11</title>
<g id="a_edge16_Node000002_Node000011"><a xlink:title=" ">
<path fill="none" stroke="#63b8ff" d="M242,-164.75C242,-157.8 242,-147.85 242,-139.13"/>
<polygon fill="#63b8ff" stroke="#63b8ff" points="245.5,-139.09 242,-129.09 238.5,-139.09 245.5,-139.09"/>
</a>
</g>
</g>
<!-- Node5 -->
<g id="Node000005" class="node">
<title>Node5</title>
<g id="a_Node000005"><a xlink:title=" ">
<polygon fill="#e0e0e0" stroke="#999999" points="268.5,-19 215.5,-19 215.5,0 268.5,0 268.5,-19"/>
<text text-anchor="middle" x="242" y="-7" font-family="Helvetica,sans-Serif" font-size="10.00">stdint.h</text>
</a>
</g>
</g>
<!-- Node4&#45;&gt;Node5 -->
<g id="edge4_Node000004_Node000005" class="edge">
<title>Node4&#45;&gt;Node5</title>
<g id="a_edge4_Node000004_Node000005"><a xlink:title=" ">
<path fill="none" stroke="#63b8ff" d="M370.54,-109.66C346.53,-91.14 290.71,-48.08 261.15,-25.28"/>
<polygon fill="#63b8ff" stroke="#63b8ff" points="263.28,-22.5 253.22,-19.16 259,-28.04 263.28,-22.5"/>
</a>
</g>
</g>
<!-- Node6 -->
<g id="Node000006" class="node">
<title>Node6</title>
<g id="a_Node000006"><a xlink:title=" ">
<polygon fill="#e0e0e0" stroke="#999999" points="474,-19 412,-19 412,0 474,0 474,-19"/>
<text text-anchor="middle" x="443" y="-7" font-family="Helvetica,sans-Serif" font-size="10.00">stdbool.h</text>
</a>
</g>
</g>
<!-- Node4&#45;&gt;Node6 -->
<g id="edge5_Node000004_Node000006" class="edge">
<title>Node4&#45;&gt;Node6</title>
<g id="a_edge5_Node000004_Node000006"><a xlink:title=" ">
<path fill="none" stroke="#63b8ff" d="M421.66,-112.28C444.34,-106.48 470.98,-95.32 485,-74 495.9,-57.41 479.56,-38.43 464.18,-25.58"/>
<polygon fill="#63b8ff" stroke="#63b8ff" points="465.95,-22.52 455.92,-19.12 461.64,-28.03 465.95,-22.52"/>
</a>
</g>
</g>
<!-- Node7 -->
<g id="Node000007" class="node">
<title>Node7</title>
<g id="a_Node000007"><a xlink:href="no__os__lf256fifo_8h.html" target="_top" xlink:title="SPSC lock&#45;free fifo of fixed size (256), specialized for UART.">
<polygon fill="white" stroke="#666666" points="476,-74 376,-74 376,-55 476,-55 476,-74"/>
<text text-anchor="middle" x="426" y="-62" font-family="Helvetica,sans-Serif" font-size="10.00">no_os_lf256fifo.h</text>
</a>
</g>
</g>
<!-- Node4&#45;&gt;Node7 -->
<g id="edge6_Node000004_Node000007" class="edge">
<title>Node4&#45;&gt;Node7</title>
<g id="a_edge6_Node000004_Node000007"><a xlink:title=" ">
<path fill="none" stroke="#63b8ff" d="M389.27,-109.75C395.54,-102.18 404.79,-91.05 412.43,-81.84"/>
<polygon fill="#63b8ff" stroke="#63b8ff" points="415.17,-84.02 418.87,-74.09 409.79,-79.55 415.17,-84.02"/>
</a>
</g>
</g>
<!-- Node7&#45;&gt;Node5 -->
<g id="edge8_Node000007_Node000005" class="edge">
<title>Node7&#45;&gt;Node5</title>
<g id="a_edge8_Node000007_Node000005"><a xlink:title=" ">
<path fill="none" stroke="#63b8ff" d="M396.44,-54.98C364.26,-45.72 312.79,-30.89 278.21,-20.93"/>
<polygon fill="#63b8ff" stroke="#63b8ff" points="279.08,-17.54 268.5,-18.13 277.14,-24.27 279.08,-17.54"/>
</a>
</g>
</g>
<!-- Node7&#45;&gt;Node6 -->
<g id="edge9_Node000007_Node000006" class="edge">
<title>Node7&#45;&gt;Node6</title>
<g id="a_edge9_Node000007_Node000006"><a xlink:title=" ">
<path fill="none" stroke="#63b8ff" d="M428.81,-54.75C431.06,-47.72 434.3,-37.62 437.12,-28.84"/>
<polygon fill="#63b8ff" stroke="#63b8ff" points="440.52,-29.68 440.25,-19.09 433.86,-27.54 440.52,-29.68"/>
</a>
</g>
</g>
<!-- Node8 -->
<g id="Node000008" class="node">
<title>Node8</title>
<g id="a_Node000008"><a xlink:title=" ">
<polygon fill="#e0e0e0" stroke="#999999" points="579.5,-19 526.5,-19 526.5,0 579.5,0 579.5,-19"/>
<text text-anchor="middle" x="553" y="-7" font-family="Helvetica,sans-Serif" font-size="10.00">stdlib.h</text>
</a>
</g>
</g>
<!-- Node7&#45;&gt;Node8 -->
<g id="edge7_Node000007_Node000008" class="edge">
<title>Node7&#45;&gt;Node8</title>
<g id="a_edge7_Node000007_Node000008"><a xlink:title=" ">
<path fill="none" stroke="#63b8ff" d="M446.4,-54.98C467.02,-46.38 499.11,-32.99 522.69,-23.15"/>
<polygon fill="#63b8ff" stroke="#63b8ff" points="524.34,-26.25 532.22,-19.17 521.65,-19.79 524.34,-26.25"/>
</a>
</g>
</g>
<!-- Node9&#45;&gt;Node5 -->
<g id="edge11_Node000009_Node000005" class="edge">
<title>Node9&#45;&gt;Node5</title>
<g id="a_edge11_Node000009_Node000005"><a xlink:title=" ">
<path fill="none" stroke="#63b8ff" d="M532.37,-57.42C469.06,-47.19 342,-26.66 279.07,-16.49"/>
<polygon fill="#63b8ff" stroke="#63b8ff" points="279.25,-12.97 268.82,-14.83 278.13,-19.88 279.25,-12.97"/>
</a>
</g>
</g>
<!-- Node9&#45;&gt;Node6 -->
<g id="edge13_Node000009_Node000006" class="edge">
<title>Node9&#45;&gt;Node6</title>
<g id="a_edge13_Node000009_Node000006"><a xlink:title=" ">
<path fill="none" stroke="#63b8ff" d="M549.6,-54.98C528.98,-46.38 496.89,-32.99 473.31,-23.15"/>
<polygon fill="#63b8ff" stroke="#63b8ff" points="474.35,-19.79 463.78,-19.17 471.66,-26.25 474.35,-19.79"/>
</a>
</g>
</g>
<!-- Node9&#45;&gt;Node8 -->
<g id="edge12_Node000009_Node000008" class="edge">
<title>Node9&#45;&gt;Node8</title>
<g id="a_edge12_Node000009_Node000008"><a xlink:title=" ">
<path fill="none" stroke="#63b8ff" d="M567.19,-54.75C564.94,-47.72 561.7,-37.62 558.88,-28.84"/>
<polygon fill="#63b8ff" stroke="#63b8ff" points="562.14,-27.54 555.75,-19.09 555.48,-29.68 562.14,-27.54"/>
</a>
</g>
</g>
<!-- Node10&#45;&gt;Node5 -->
<g id="edge15_Node000010_Node000005" class="edge">
<title>Node10&#45;&gt;Node5</title>
<g id="a_edge15_Node000010_Node000005"><a xlink:title=" ">
<path fill="none" stroke="#63b8ff" d="M127.15,-109.82C107.14,-97.73 77.03,-75.06 92,-55 117.84,-20.38 169.47,-11.6 204.87,-9.92"/>
<polygon fill="#63b8ff" stroke="#63b8ff" points="205.4,-13.4 215.29,-9.6 205.19,-6.4 205.4,-13.4"/>
</a>
</g>
</g>
<!-- Node11&#45;&gt;Node5 -->
<g id="edge17_Node000011_Node000005" class="edge">
<title>Node11&#45;&gt;Node5</title>
<g id="a_edge17_Node000011_Node000005"><a xlink:title=" ">
<path fill="none" stroke="#63b8ff" d="M203.21,-111.55C165.84,-103.97 113.22,-90.67 101,-74 72.27,-34.8 154.68,-19.29 205.41,-13.56"/>
<polygon fill="#63b8ff" stroke="#63b8ff" points="205.82,-17.04 215.4,-12.51 205.09,-10.08 205.82,-17.04"/>
</a>
</g>
</g>
<!-- Node11&#45;&gt;Node6 -->
<g id="edge18_Node000011_Node000006" class="edge">
<title>Node11&#45;&gt;Node6</title>
<g id="a_edge18_Node000011_Node000006"><a xlink:title=" ">
<path fill="none" stroke="#63b8ff" d="M258.11,-109.84C293.11,-91.04 376.31,-46.33 418.12,-23.87"/>
<polygon fill="#63b8ff" stroke="#63b8ff" points="419.94,-26.86 427.09,-19.05 416.63,-20.7 419.94,-26.86"/>
</a>
</g>
</g>
<!-- Node12 -->
<g id="Node000012" class="node">
<title>Node12</title>
<g id="a_Node000012"><a xlink:href="no__os__i2c_8h.html" target="_top" xlink:title="Header file of I2C Interface.">
<polygon fill="white" stroke="#666666" points="184,-74 110,-74 110,-55 184,-55 184,-74"/>
<text text-anchor="middle" x="147" y="-62" font-family="Helvetica,sans-Serif" font-size="10.00">no_os_i2c.h</text>
</a>
</g>
</g>
<!-- Node11&#45;&gt;Node12 -->
<g id="edge19_Node000011_Node000012" class="edge">
<title>Node11&#45;&gt;Node12</title>
<g id="a_edge19_Node000011_Node000012"><a xlink:title=" ">
<path fill="none" stroke="#63b8ff" d="M226.74,-109.98C211.87,-101.69 189.02,-88.94 171.58,-79.22"/>
<polygon fill="#63b8ff" stroke="#63b8ff" points="172.98,-75.99 162.54,-74.17 169.57,-82.1 172.98,-75.99"/>
</a>
</g>
</g>
<!-- Node13 -->
<g id="Node000013" class="node">
<title>Node13</title>
<g id="a_Node000013"><a xlink:href="no__os__gpio_8h.html" target="_top" xlink:title="Header file of GPIO Interface.">
<polygon fill="white" stroke="#666666" points="282,-74 202,-74 202,-55 282,-55 282,-74"/>
<text text-anchor="middle" x="242" y="-62" font-family="Helvetica,sans-Serif" font-size="10.00">no_os_gpio.h</text>
</a>
</g>
</g>
<!-- Node11&#45;&gt;Node13 -->
<g id="edge21_Node000011_Node000013" class="edge">
<title>Node11&#45;&gt;Node13</title>
<g id="a_edge21_Node000011_Node000013"><a xlink:title=" ">
<path fill="none" stroke="#63b8ff" d="M242,-109.75C242,-102.8 242,-92.85 242,-84.13"/>
<polygon fill="#63b8ff" stroke="#63b8ff" points="245.5,-84.09 242,-74.09 238.5,-84.09 245.5,-84.09"/>
</a>
</g>
</g>
<!-- Node12&#45;&gt;Node5 -->
<g id="edge20_Node000012_Node000005" class="edge">
<title>Node12&#45;&gt;Node5</title>
<g id="a_edge20_Node000012_Node000005"><a xlink:title=" ">
<path fill="none" stroke="#63b8ff" d="M162.26,-54.98C177.13,-46.69 199.98,-33.94 217.42,-24.22"/>
<polygon fill="#63b8ff" stroke="#63b8ff" points="219.43,-27.1 226.46,-19.17 216.02,-20.99 219.43,-27.1"/>
</a>
</g>
</g>
<!-- Node13&#45;&gt;Node5 -->
<g id="edge22_Node000013_Node000005" class="edge">
<title>Node13&#45;&gt;Node5</title>
<g id="a_edge22_Node000013_Node000005"><a xlink:title=" ">
<path fill="none" stroke="#63b8ff" d="M242,-54.75C242,-47.8 242,-37.85 242,-29.13"/>
<polygon fill="#63b8ff" stroke="#63b8ff" points="245.5,-29.09 242,-19.09 238.5,-29.09 245.5,-29.09"/>
</a>
</g>
</g>
</g>
</svg>
