<?xml version="1.0" encoding="UTF-8" standalone="no"?>
<!DOCTYPE svg PUBLIC "-//W3C//DTD SVG 1.1//EN"
 "http://www.w3.org/Graphics/SVG/1.1/DTD/svg11.dtd">
<!-- Generated by graphviz version 2.43.0 (0)
 -->
<!-- Title: max42500_reg_write Pages: 1 -->
<!--zoomable 321 -->

<svg id="main" version="1.1" xmlns="http://www.w3.org/2000/svg" xmlns:xlink="http://www.w3.org/1999/xlink" xml:space="preserve" onload="init(evt)">

<style type="text/css"><![CDATA[
.node, .edge {opacity: 0.7;}
.node.selected, .edge.selected {opacity: 1;}
.edge:hover path { stroke: red; }
.edge:hover polygon { stroke: red; fill: red; }
]]></style>

<defs>
  <circle id="rim" cx="0" cy="0" r="7"/>
  <circle id="rim2" cx="0" cy="0" r="3.5"/>
  <g id="zoomPlus">
    <use xlink:href="#rim" fill="#404040"><set attributeName="fill" to="#808080" begin="zoomplus.mouseover" end="zoomplus.mouseout"/></use>
    <path d="M-4,0h8M0,-4v8" fill="none" stroke="white" stroke-width="1.5" pointer-events="none"/>
  </g>
  <g id="zoomMin">
    <use xlink:href="#rim" fill="#404040"><set attributeName="fill" to="#808080" begin="zoomminus.mouseover" end="zoomminus.mouseout"/></use>
    <path d="M-4,0h8" fill="none" stroke="white" stroke-width="1.5" pointer-events="none"/>
  </g>
  <g id="arrowUp" transform="translate(30 24)">
    <use xlink:href="#rim"/>
    <path pointer-events="none" fill="none" stroke="white" stroke-width="1.5" d="M0,-3.0v7 M-2.5,-0.5L0,-3.0L2.5,-0.5"/>
  </g>
  <g id="arrowRight" transform="rotate(90) translate(36 -43)">
    <use xlink:href="#rim"/>
    <path pointer-events="none" fill="none" stroke="white" stroke-width="1.5" d="M0,-3.0v7 M-2.5,-0.5L0,-3.0L2.5,-0.5"/>
  </g>
  <g id="arrowDown" transform="rotate(180) translate(-30 -48)">
    <use xlink:href="#rim"/>
    <path pointer-events="none" fill="none" stroke="white" stroke-width="1.5" d="M0,-3.0v7 M-2.5,-0.5L0,-3.0L2.5,-0.5"/>
  </g>
  <g id="arrowLeft" transform="rotate(270) translate(-36 17)">
    <use xlink:href="#rim"/>
    <path pointer-events="none" fill="none" stroke="white" stroke-width="1.5" d="M0,-3.0v7 M-2.5,-0.5L0,-3.0L2.5,-0.5"/>
  </g>
  <g id="resetDef">
    <use xlink:href="#rim2" fill="#404040"><set attributeName="fill" to="#808080" begin="reset.mouseover" end="reset.mouseout"/></use>
  </g>
</defs>
<script type="application/ecmascript">
var viewWidth = 653;
var viewHeight = 321;
var sectionId = 'dynsection-5';
</script>
<script type="application/ecmascript" xlink:href="svg.min.js"/>
<svg id="graph" class="graph">
<g id="viewport">
<title>max42500_reg_write</title>
<!-- Node1 -->
<g id="Node000001" class="node">
<title>Node1</title>
<g id="a_Node000001"><a xlink:title="Write a raw value to a register.">
<polygon fill="#999999" stroke="#666666" points="645,-123 526,-123 526,-104 645,-104 645,-123"/>
<text text-anchor="middle" x="585.5" y="-111" font-family="Helvetica,sans-Serif" font-size="10.00">max42500_reg_write</text>
</a>
</g>
</g>
<!-- Node2 -->
<g id="Node000002" class="node">
<title>Node2</title>
<g id="a_Node000002"><a xlink:href="max42500_8c.html#a460e7ea60567482b927982c3a00f3716" target="_top" xlink:title="Update a register&#39;s value based on a mask.">
<polygon fill="white" stroke="#666666" points="472,-239 344,-239 344,-220 472,-220 472,-239"/>
<text text-anchor="middle" x="408" y="-227" font-family="Helvetica,sans-Serif" font-size="10.00">max42500_reg_update</text>
</a>
</g>
</g>
<!-- Node1&#45;&gt;Node2 -->
<g id="edge1_Node000001_Node000002" class="edge">
<title>Node1&#45;&gt;Node2</title>
<g id="a_edge1_Node000001_Node000002"><a xlink:title=" ">
<path fill="none" stroke="#63b8ff" d="M565.14,-129.28C546.43,-144.24 517.02,-166.96 490,-184.5 469.49,-197.81 444.78,-211.18 428.09,-219.85"/>
<polygon fill="#63b8ff" stroke="#63b8ff" points="567.35,-132 572.94,-123 562.96,-126.55 567.35,-132"/>
</a>
</g>
</g>
<!-- Node8 -->
<g id="Node000008" class="node">
<title>Node8</title>
<g id="a_Node000008"><a xlink:href="max42500_8c.html#a32ced27e2ff131ed9b6f517430bacf54" target="_top" xlink:title="Set nominal voltage for VM1 to VM5.">
<polygon fill="white" stroke="#666666" points="274.5,-164.5 140.5,-164.5 140.5,-134.5 274.5,-134.5 274.5,-164.5"/>
<text text-anchor="start" x="148.5" y="-152.5" font-family="Helvetica,sans-Serif" font-size="10.00">max42500_set_nominal</text>
<text text-anchor="middle" x="207.5" y="-141.5" font-family="Helvetica,sans-Serif" font-size="10.00">_voltage</text>
</a>
</g>
</g>
<!-- Node1&#45;&gt;Node8 -->
<g id="edge9_Node000001_Node000008" class="edge">
<title>Node1&#45;&gt;Node8</title>
<g id="a_edge9_Node000001_Node000008"><a xlink:title=" ">
<path fill="none" stroke="#63b8ff" d="M557.04,-127.41C538.61,-135.95 513.48,-146.07 490,-150.5 417.24,-164.24 332.01,-161.36 274.55,-156.73"/>
<polygon fill="#63b8ff" stroke="#63b8ff" points="558.77,-130.46 566.29,-123 555.75,-124.15 558.77,-130.46"/>
</a>
</g>
</g>
<!-- Node9 -->
<g id="Node000009" class="node">
<title>Node9</title>
<g id="a_Node000009"><a xlink:href="max42500_8c.html#ab353b2ff1a33c94892864bce2ede7c8c" target="_top" xlink:title="Set the overvoltage threshold of VM6 and VM7.">
<polygon fill="white" stroke="#666666" points="482,-142 334,-142 334,-123 482,-123 482,-142"/>
<text text-anchor="middle" x="408" y="-130" font-family="Helvetica,sans-Serif" font-size="10.00">max42500_set_ov_thresh2</text>
</a>
</g>
</g>
<!-- Node1&#45;&gt;Node9 -->
<g id="edge11_Node000001_Node000009" class="edge">
<title>Node1&#45;&gt;Node9</title>
<g id="a_edge11_Node000001_Node000009"><a xlink:title=" ">
<path fill="none" stroke="#63b8ff" d="M515.61,-120.96C504.62,-122.15 493.2,-123.38 482.11,-124.58"/>
<polygon fill="#63b8ff" stroke="#63b8ff" points="516.01,-124.44 525.57,-119.88 515.25,-117.48 516.01,-124.44"/>
</a>
</g>
</g>
<!-- Node10 -->
<g id="Node000010" class="node">
<title>Node10</title>
<g id="a_Node000010"><a xlink:href="max42500_8c.html#a04ab68740c50af54c848610e5b5ee1b9" target="_top" xlink:title="Set the undervoltage threshold of VM6 and VM7.">
<polygon fill="white" stroke="#666666" points="482,-105 334,-105 334,-86 482,-86 482,-105"/>
<text text-anchor="middle" x="408" y="-93" font-family="Helvetica,sans-Serif" font-size="10.00">max42500_set_uv_thresh2</text>
</a>
</g>
</g>
<!-- Node1&#45;&gt;Node10 -->
<g id="edge12_Node000001_Node000010" class="edge">
<title>Node1&#45;&gt;Node10</title>
<g id="a_edge12_Node000001_Node000010"><a xlink:title=" ">
<path fill="none" stroke="#63b8ff" d="M515.61,-106.43C504.62,-105.31 493.2,-104.14 482.11,-103"/>
<polygon fill="#63b8ff" stroke="#63b8ff" points="515.27,-109.92 525.57,-107.46 515.98,-102.95 515.27,-109.92"/>
</a>
</g>
</g>
<!-- Node11 -->
<g id="Node000011" class="node">
<title>Node11</title>
<g id="a_Node000011"><a xlink:href="max42500_8c.html#a154fb403d51164c516bd0e6e0b6b7fb1" target="_top" xlink:title="Enable/Disable watchdog.">
<polygon fill="white" stroke="#666666" points="478.5,-67.5 337.5,-67.5 337.5,-37.5 478.5,-37.5 478.5,-67.5"/>
<text text-anchor="start" x="345.5" y="-55.5" font-family="Helvetica,sans-Serif" font-size="10.00">max42500_set_watchdog</text>
<text text-anchor="middle" x="408" y="-44.5" font-family="Helvetica,sans-Serif" font-size="10.00">_enable</text>
</a>
</g>
</g>
<!-- Node1&#45;&gt;Node11 -->
<g id="edge13_Node000001_Node000011" class="edge">
<title>Node1&#45;&gt;Node11</title>
<g id="a_edge13_Node000001_Node000011"><a xlink:title=" ">
<path fill="none" stroke="#63b8ff" d="M552.52,-100.19C534.33,-92.83 511.05,-83.72 490,-76.5 481.12,-73.45 471.62,-70.43 462.36,-67.61"/>
<polygon fill="#63b8ff" stroke="#63b8ff" points="551.21,-103.44 561.79,-103.98 553.85,-96.96 551.21,-103.44"/>
</a>
</g>
</g>
<!-- Node12 -->
<g id="Node000012" class="node">
<title>Node12</title>
<g id="a_Node000012"><a xlink:href="max42500_8c.html#aefce91748fb02ea8752fb4f9bdf5ff88" target="_top" xlink:title="Update the watchdog key based on the mode and current value.">
<polygon fill="white" stroke="#666666" points="490,-19 326,-19 326,0 490,0 490,-19"/>
<text text-anchor="middle" x="408" y="-7" font-family="Helvetica,sans-Serif" font-size="10.00">max42500_set_watchdog_key</text>
</a>
</g>
</g>
<!-- Node1&#45;&gt;Node12 -->
<g id="edge14_Node000001_Node000012" class="edge">
<title>Node1&#45;&gt;Node12</title>
<g id="a_edge14_Node000001_Node000012"><a xlink:title=" ">
<path fill="none" stroke="#63b8ff" d="M570.1,-96.1C553.02,-76.63 522.71,-45.59 490,-28.5 482.57,-24.62 474.36,-21.52 466.09,-19.05"/>
<polygon fill="#63b8ff" stroke="#63b8ff" points="567.61,-98.58 576.78,-103.9 572.93,-94.03 567.61,-98.58"/>
</a>
</g>
</g>
<!-- Node3 -->
<g id="Node000003" class="node">
<title>Node3</title>
<g id="a_Node000003"><a xlink:href="max42500_8c.html#a2e69d1b69e84655c2709232fc48e82bc" target="_top" xlink:title="Initialize the device structure.">
<polygon fill="white" stroke="#666666" points="252,-313 163,-313 163,-294 252,-294 252,-313"/>
<text text-anchor="middle" x="207.5" y="-301" font-family="Helvetica,sans-Serif" font-size="10.00">max42500_init</text>
</a>
</g>
</g>
<!-- Node2&#45;&gt;Node3 -->
<g id="edge2_Node000002_Node000003" class="edge">
<title>Node2&#45;&gt;Node3</title>
<g id="a_edge2_Node000002_Node000003"><a xlink:title=" ">
<path fill="none" stroke="#63b8ff" d="M381.21,-243.97C357.97,-256.48 322.56,-274.28 290,-285.5 277.94,-289.65 264.55,-293.08 252.15,-295.79"/>
<polygon fill="#63b8ff" stroke="#63b8ff" points="382.98,-246.99 390.08,-239.13 379.63,-240.84 382.98,-246.99"/>
</a>
</g>
</g>
<!-- Node5 -->
<g id="Node000005" class="node">
<title>Node5</title>
<g id="a_Node000005"><a xlink:href="max42500_8c.html#a12d9747d4143e266cb34770695e84a69" target="_top" xlink:title="Set the overvoltage threshold of VM1 to VM5.">
<polygon fill="white" stroke="#666666" points="281.5,-276 133.5,-276 133.5,-257 281.5,-257 281.5,-276"/>
<text text-anchor="middle" x="207.5" y="-264" font-family="Helvetica,sans-Serif" font-size="10.00">max42500_set_ov_thresh1</text>
</a>
</g>
</g>
<!-- Node2&#45;&gt;Node5 -->
<g id="edge4_Node000002_Node000005" class="edge">
<title>Node2&#45;&gt;Node5</title>
<g id="a_edge4_Node000002_Node000005"><a xlink:title=" ">
<path fill="none" stroke="#63b8ff" d="M345.94,-240.88C318.35,-246.02 286.11,-252.03 259.79,-256.94"/>
<polygon fill="#63b8ff" stroke="#63b8ff" points="346.69,-244.3 355.88,-239.03 345.41,-237.42 346.69,-244.3"/>
</a>
</g>
</g>
<!-- Node6 -->
<g id="Node000006" class="node">
<title>Node6</title>
<g id="a_Node000006"><a xlink:href="max42500_8c.html#a372c0993640464da288a4881836b2dc5" target="_top" xlink:title="Set the undervoltage threshold of VM1 to VM5.">
<polygon fill="white" stroke="#666666" points="281.5,-239 133.5,-239 133.5,-220 281.5,-220 281.5,-239"/>
<text text-anchor="middle" x="207.5" y="-227" font-family="Helvetica,sans-Serif" font-size="10.00">max42500_set_uv_thresh1</text>
</a>
</g>
</g>
<!-- Node2&#45;&gt;Node6 -->
<g id="edge6_Node000002_Node000006" class="edge">
<title>Node2&#45;&gt;Node6</title>
<g id="a_edge6_Node000002_Node000006"><a xlink:title=" ">
<path fill="none" stroke="#63b8ff" d="M333.56,-229.5C316.66,-229.5 298.69,-229.5 281.8,-229.5"/>
<polygon fill="#63b8ff" stroke="#63b8ff" points="333.92,-233 343.92,-229.5 333.92,-226 333.92,-233"/>
</a>
</g>
</g>
<!-- Node7 -->
<g id="Node000007" class="node">
<title>Node7</title>
<g id="a_Node000007"><a xlink:href="max42500_8c.html#aac3ba7534a3177465fd2eac9fec90c02" target="_top" xlink:title="Set watchdog reset hold time.">
<polygon fill="white" stroke="#666666" points="290,-202 125,-202 125,-183 290,-183 290,-202"/>
<text text-anchor="middle" x="207.5" y="-190" font-family="Helvetica,sans-Serif" font-size="10.00">max42500_set_watchdog_rhld</text>
</a>
</g>
</g>
<!-- Node2&#45;&gt;Node7 -->
<g id="edge8_Node000002_Node000007" class="edge">
<title>Node2&#45;&gt;Node7</title>
<g id="a_edge8_Node000002_Node000007"><a xlink:title=" ">
<path fill="none" stroke="#63b8ff" d="M345.94,-218.12C318.35,-212.98 286.11,-206.97 259.79,-202.06"/>
<polygon fill="#63b8ff" stroke="#63b8ff" points="345.41,-221.58 355.88,-219.97 346.69,-214.7 345.41,-221.58"/>
</a>
</g>
</g>
<!-- Node4 -->
<g id="Node000004" class="node">
<title>Node4</title>
<g id="a_Node000004"><a xlink:href="max42500_2src_2examples_2basic_2basic__example_8c.html#a423407bf3827741dfe2f6e0def8ba0c3" target="_top" xlink:title="Basic example main executiont.">
<polygon fill="white" stroke="#666666" points="89,-257 0,-257 0,-238 89,-238 89,-257"/>
<text text-anchor="middle" x="44.5" y="-245" font-family="Helvetica,sans-Serif" font-size="10.00">example_main</text>
</a>
</g>
</g>
<!-- Node3&#45;&gt;Node4 -->
<g id="edge3_Node000003_Node000004" class="edge">
<title>Node3&#45;&gt;Node4</title>
<g id="a_edge3_Node000003_Node000004"><a xlink:title=" ">
<path fill="none" stroke="#63b8ff" d="M152.8,-293.47C143.43,-291.21 133.85,-288.55 125,-285.5 102.73,-277.83 78.48,-265.64 62.7,-257.14"/>
<polygon fill="#63b8ff" stroke="#63b8ff" points="152.32,-296.95 162.85,-295.78 153.89,-290.13 152.32,-296.95"/>
</a>
</g>
</g>
<!-- Node5&#45;&gt;Node4 -->
<g id="edge5_Node000005_Node000004" class="edge">
<title>Node5&#45;&gt;Node4</title>
<g id="a_edge5_Node000005_Node000004"><a xlink:title=" ">
<path fill="none" stroke="#63b8ff" d="M122.89,-256.63C111.32,-255.27 99.82,-253.91 89.38,-252.68"/>
<polygon fill="#63b8ff" stroke="#63b8ff" points="122.73,-260.14 133.07,-257.83 123.55,-253.19 122.73,-260.14"/>
</a>
</g>
</g>
<!-- Node6&#45;&gt;Node4 -->
<g id="edge7_Node000006_Node000004" class="edge">
<title>Node6&#45;&gt;Node4</title>
<g id="a_edge7_Node000006_Node000004"><a xlink:title=" ">
<path fill="none" stroke="#63b8ff" d="M122.89,-238.85C111.32,-240.14 99.82,-241.43 89.38,-242.59"/>
<polygon fill="#63b8ff" stroke="#63b8ff" points="123.52,-242.3 133.07,-237.71 122.74,-235.34 123.52,-242.3"/>
</a>
</g>
</g>
<!-- Node8&#45;&gt;Node4 -->
<g id="edge10_Node000008_Node000004" class="edge">
<title>Node8&#45;&gt;Node4</title>
<g id="a_edge10_Node000008_Node000004"><a xlink:title=" ">
<path fill="none" stroke="#63b8ff" d="M134.99,-168.4C131.55,-169.98 128.2,-171.68 125,-173.5 94.53,-190.87 66.37,-222.06 53.25,-237.82"/>
<polygon fill="#63b8ff" stroke="#63b8ff" points="136.41,-171.6 144.28,-164.51 133.7,-165.15 136.41,-171.6"/>
</a>
</g>
</g>
</g>
</svg>

<g id="navigator" transform="translate(0 0)" fill="#404254">
  <rect fill="#f2f5e9" fill-opacity="0.5" stroke="#606060" stroke-width=".5" x="0" y="0" width="60" height="60"/>
  <use id="zoomplus" xlink:href="#zoomPlus" x="17" y="9" onmousedown="handleZoom(evt,'in')"/>
  <use id="zoomminus" xlink:href="#zoomMin" x="42" y="9" onmousedown="handleZoom(evt,'out')"/>
  <use id="reset" xlink:href="#resetDef" x="30" y="36" onmousedown="handleReset()"/>
   <use id="arrowup" xlink:href="#arrowUp" x="0" y="0" onmousedown="handlePan(0,-1)"/>
  <use id="arrowright" xlink:href="#arrowRight" x="0" y="0" onmousedown="handlePan(1,0)"/>
  <use id="arrowdown" xlink:href="#arrowDown" x="0" y="0" onmousedown="handlePan(0,1)"/>
  <use id="arrowleft" xlink:href="#arrowLeft" x="0" y="0" onmousedown="handlePan(-1,0)"/>
</g>
<svg viewBox="0 0 15 15" width="100%" height="30px" preserveAspectRatio="xMaxYMin meet">
 <g id="arrow_out" transform="scale(0.3 0.3)">
  <a xlink:href="max42500_8c_a912d76c97bb9de1aa403c7d2996627bf_icgraph_org.svg" target="_base">
   <rect id="button" ry="5" rx="5" y="6" x="6" height="38" width="38"
        fill="#f2f5e9" fill-opacity="0.5" stroke="#606060" stroke-width="1.0"/>
   <path id="arrow"
     d="M 11.500037,31.436501 C 11.940474,20.09759 22.043105,11.32322 32.158766,21.979434 L 37.068811,17.246167 C 37.068811,17.246167 37.088388,32 37.088388,32 L 22.160133,31.978069 C 22.160133,31.978069 26.997745,27.140456 26.997745,27.140456 C 18.528582,18.264221 13.291696,25.230495 11.500037,31.436501 z"
     style="fill:#404040;"/>
  </a>
 </g>
</svg>

<style type='text/css'>
<![CDATA[
[data-mouse-over-selected='false'] { opacity: 0.7; }
[data-mouse-over-selected='true']  { opacity: 1.0; }
]]>
</style>
<script type="application/ecmascript"><![CDATA[
document.addEventListener('DOMContentLoaded', (event) => {
  highlightEdges();
  highlightAdjacentNodes();
});
]]></script>
</svg>
