<?xml version="1.0" encoding="UTF-8" standalone="no"?>
<!DOCTYPE svg PUBLIC "-//W3C//DTD SVG 1.1//EN"
 "http://www.w3.org/Graphics/SVG/1.1/DTD/svg11.dtd">
<!-- Generated by graphviz version 2.43.0 (0)
 -->
<!-- Title: no_os_init Pages: 1 -->
<svg width="276pt" height="101pt"
 viewBox="0.00 0.00 276.00 101.00" xmlns="http://www.w3.org/2000/svg" xmlns:xlink="http://www.w3.org/1999/xlink">
<g id="graph0" class="graph" transform="scale(1 1) rotate(0) translate(4 97)">
<title>no_os_init</title>
<!-- Node1 -->
<g id="Node000001" class="node">
<title>Node1</title>
<g id="a_Node000001"><a xlink:title=" ">
<polygon fill="#999999" stroke="#666666" points="268,-56 202,-56 202,-37 268,-37 268,-56"/>
<text text-anchor="middle" x="235" y="-44" font-family="Helvetica,sans-Serif" font-size="10.00">no_os_init</text>
</a>
</g>
</g>
<!-- Node2 -->
<g id="Node000002" class="node">
<title>Node2</title>
<g id="a_Node000002"><a xlink:href="example_8c.html#a423407bf3827741dfe2f6e0def8ba0c3" target="_top" xlink:title="Main function.">
<polygon fill="white" stroke="#666666" points="166,-93 77,-93 77,-74 166,-74 166,-93"/>
<text text-anchor="middle" x="121.5" y="-81" font-family="Helvetica,sans-Serif" font-size="10.00">example_main</text>
</a>
</g>
</g>
<!-- Node1&#45;&gt;Node2 -->
<g id="edge1_Node000001_Node000002" class="edge">
<title>Node1&#45;&gt;Node2</title>
<g id="a_edge1_Node000001_Node000002"><a xlink:title=" ">
<path fill="none" stroke="#63b8ff" d="M195.61,-59.24C181.15,-64.04 164.96,-69.41 151.5,-73.88"/>
<polygon fill="#63b8ff" stroke="#63b8ff" points="196.9,-62.5 205.29,-56.03 194.69,-55.86 196.9,-62.5"/>
</a>
</g>
</g>
<!-- Node4 -->
<g id="Node000004" class="node">
<title>Node4</title>
<g id="a_Node000004"><a xlink:href="ad-acevsecrdset-sl_2src_2main_8c.html#ae66f6b31b5ad750f1fe042a706a4e3d4" target="_top" xlink:title="Main function execution for Maxim platform.">
<polygon fill="white" stroke="#666666" points="142,-56 101,-56 101,-37 142,-37 142,-56"/>
<text text-anchor="middle" x="121.5" y="-44" font-family="Helvetica,sans-Serif" font-size="10.00">main</text>
</a>
</g>
</g>
<!-- Node1&#45;&gt;Node4 -->
<g id="edge3_Node000001_Node000004" class="edge">
<title>Node1&#45;&gt;Node4</title>
<g id="a_edge3_Node000001_Node000004"><a xlink:title=" ">
<path fill="none" stroke="#63b8ff" d="M191.45,-46.5C174.46,-46.5 155.73,-46.5 142.09,-46.5"/>
<polygon fill="#63b8ff" stroke="#63b8ff" points="191.75,-50 201.75,-46.5 191.75,-43 191.75,-50"/>
</a>
</g>
</g>
<!-- Node5 -->
<g id="Node000005" class="node">
<title>Node5</title>
<g id="a_Node000005"><a xlink:href="eval-ade7978_2src_2main_8c.html#a840291bc02cba5474a4cb46a9b9566fe" target="_top" xlink:title=" ">
<polygon fill="white" stroke="#666666" points="142,-19 101,-19 101,0 142,0 142,-19"/>
<text text-anchor="middle" x="121.5" y="-7" font-family="Helvetica,sans-Serif" font-size="10.00">main</text>
</a>
</g>
</g>
<!-- Node1&#45;&gt;Node5 -->
<g id="edge4_Node000001_Node000005" class="edge">
<title>Node1&#45;&gt;Node5</title>
<g id="a_edge4_Node000001_Node000005"><a xlink:title=" ">
<path fill="none" stroke="#63b8ff" d="M195.65,-33.77C177.71,-27.82 157.09,-20.98 142.33,-16.08"/>
<polygon fill="#63b8ff" stroke="#63b8ff" points="194.69,-37.14 205.29,-36.97 196.9,-30.5 194.69,-37.14"/>
</a>
</g>
</g>
<!-- Node3 -->
<g id="Node000003" class="node">
<title>Node3</title>
<g id="a_Node000003"><a xlink:href="ad3552r__fmcz_2src_2platform_2xilinx_2main_8c.html#ae66f6b31b5ad750f1fe042a706a4e3d4" target="_top" xlink:title="Main function execution for xilinx platform.">
<polygon fill="white" stroke="#666666" points="41,-93 0,-93 0,-74 41,-74 41,-93"/>
<text text-anchor="middle" x="20.5" y="-81" font-family="Helvetica,sans-Serif" font-size="10.00">main</text>
</a>
</g>
</g>
<!-- Node2&#45;&gt;Node3 -->
<g id="edge2_Node000002_Node000003" class="edge">
<title>Node2&#45;&gt;Node3</title>
<g id="a_edge2_Node000002_Node000003"><a xlink:title=" ">
<path fill="none" stroke="#63b8ff" d="M66.55,-83.5C57.49,-83.5 48.64,-83.5 41.21,-83.5"/>
<polygon fill="#63b8ff" stroke="#63b8ff" points="66.79,-87 76.79,-83.5 66.79,-80 66.79,-87"/>
</a>
</g>
</g>
</g>
</svg>
