<?xml version="1.0" encoding="UTF-8" standalone="no"?>
<!DOCTYPE svg PUBLIC "-//W3C//DTD SVG 1.1//EN"
 "http://www.w3.org/Graphics/SVG/1.1/DTD/svg11.dtd">
<!-- Generated by graphviz version 2.43.0 (0)
 -->
<!-- Title: projects/ad9371/src/devices/mykonos/mykonos.h Pages: 1 -->
<!--zoomable 192 -->

<svg id="main" version="1.1" xmlns="http://www.w3.org/2000/svg" xmlns:xlink="http://www.w3.org/1999/xlink" xml:space="preserve" onload="init(evt)">

<style type="text/css"><![CDATA[
.node, .edge {opacity: 0.7;}
.node.selected, .edge.selected {opacity: 1;}
.edge:hover path { stroke: red; }
.edge:hover polygon { stroke: red; fill: red; }
]]></style>

<defs>
  <circle id="rim" cx="0" cy="0" r="7"/>
  <circle id="rim2" cx="0" cy="0" r="3.5"/>
  <g id="zoomPlus">
    <use xlink:href="#rim" fill="#404040"><set attributeName="fill" to="#808080" begin="zoomplus.mouseover" end="zoomplus.mouseout"/></use>
    <path d="M-4,0h8M0,-4v8" fill="none" stroke="white" stroke-width="1.5" pointer-events="none"/>
  </g>
  <g id="zoomMin">
    <use xlink:href="#rim" fill="#404040"><set attributeName="fill" to="#808080" begin="zoomminus.mouseover" end="zoomminus.mouseout"/></use>
    <path d="M-4,0h8" fill="none" stroke="white" stroke-width="1.5" pointer-events="none"/>
  </g>
  <g id="arrowUp" transform="translate(30 24)">
    <use xlink:href="#rim"/>
    <path pointer-events="none" fill="none" stroke="white" stroke-width="1.5" d="M0,-3.0v7 M-2.5,-0.5L0,-3.0L2.5,-0.5"/>
  </g>
  <g id="arrowRight" transform="rotate(90) translate(36 -43)">
    <use xlink:href="#rim"/>
    <path pointer-events="none" fill="none" stroke="white" stroke-width="1.5" d="M0,-3.0v7 M-2.5,-0.5L0,-3.0L2.5,-0.5"/>
  </g>
  <g id="arrowDown" transform="rotate(180) translate(-30 -48)">
    <use xlink:href="#rim"/>
    <path pointer-events="none" fill="none" stroke="white" stroke-width="1.5" d="M0,-3.0v7 M-2.5,-0.5L0,-3.0L2.5,-0.5"/>
  </g>
  <g id="arrowLeft" transform="rotate(270) translate(-36 17)">
    <use xlink:href="#rim"/>
    <path pointer-events="none" fill="none" stroke="white" stroke-width="1.5" d="M0,-3.0v7 M-2.5,-0.5L0,-3.0L2.5,-0.5"/>
  </g>
  <g id="resetDef">
    <use xlink:href="#rim2" fill="#404040"><set attributeName="fill" to="#808080" begin="reset.mouseover" end="reset.mouseout"/></use>
  </g>
</defs>
<script type="application/ecmascript">
var viewWidth = 638;
var viewHeight = 192;
var sectionId = 'dynsection-1';
</script>
<script type="application/ecmascript" xlink:href="svg.min.js"/>
<svg id="graph" class="graph">
<g id="viewport">
<title>projects/ad9371/src/devices/mykonos/mykonos.h</title>
<!-- Node1 -->
<g id="Node000001" class="node">
<title>Node1</title>
<g id="a_Node000001"><a xlink:title="Contains macro definitions and function prototypes for mykonos.c.">
<polygon fill="#999999" stroke="#666666" points="377.5,-184 216.5,-184 216.5,-154 377.5,-154 377.5,-184"/>
<text text-anchor="start" x="224.5" y="-172" font-family="Helvetica,sans-Serif" font-size="10.00">projects/ad9371/src</text>
<text text-anchor="middle" x="297" y="-161" font-family="Helvetica,sans-Serif" font-size="10.00">/devices/mykonos/mykonos.h</text>
</a>
</g>
</g>
<!-- Node2 -->
<g id="Node000002" class="node">
<title>Node2</title>
<g id="a_Node000002"><a xlink:href="ad9371_2src_2app_2headless_8c.html" target="_top" xlink:title="Implementation of Main Function.">
<polygon fill="white" stroke="#666666" points="112,-112.5 0,-112.5 0,-82.5 112,-82.5 112,-112.5"/>
<text text-anchor="start" x="8" y="-100.5" font-family="Helvetica,sans-Serif" font-size="10.00">projects/ad9371/src</text>
<text text-anchor="middle" x="56" y="-89.5" font-family="Helvetica,sans-Serif" font-size="10.00">/app/headless.c</text>
</a>
</g>
</g>
<!-- Node1&#45;&gt;Node2 -->
<g id="edge1_Node000001_Node000002" class="edge">
<title>Node1&#45;&gt;Node2</title>
<g id="a_edge1_Node000001_Node000002"><a xlink:title=" ">
<path fill="none" stroke="#63b8ff" d="M237.07,-151.21C203.01,-141.61 159.57,-129.26 121,-118 115.01,-116.25 108.71,-114.39 102.49,-112.54"/>
<polygon fill="#63b8ff" stroke="#63b8ff" points="236.3,-154.63 246.87,-153.97 238.2,-147.89 236.3,-154.63"/>
</a>
</g>
</g>
<!-- Node3 -->
<g id="Node000003" class="node">
<title>Node3</title>
<g id="a_Node000003"><a xlink:href="mykonos_8c.html" target="_top" xlink:title="Contains Mykonos APIs for transceiver configuration and control.">
<polygon fill="white" stroke="#666666" points="290,-112.5 130,-112.5 130,-82.5 290,-82.5 290,-112.5"/>
<text text-anchor="start" x="138" y="-100.5" font-family="Helvetica,sans-Serif" font-size="10.00">projects/ad9371/src</text>
<text text-anchor="middle" x="210" y="-89.5" font-family="Helvetica,sans-Serif" font-size="10.00">/devices/mykonos/mykonos.c</text>
</a>
</g>
</g>
<!-- Node1&#45;&gt;Node3 -->
<g id="edge2_Node000001_Node000003" class="edge">
<title>Node1&#45;&gt;Node3</title>
<g id="a_edge2_Node000001_Node000003"><a xlink:title=" ">
<path fill="none" stroke="#63b8ff" d="M271.49,-147.63C257.38,-136.35 240.19,-122.62 227.58,-112.54"/>
<polygon fill="#63b8ff" stroke="#63b8ff" points="269.4,-150.43 279.39,-153.94 273.77,-144.96 269.4,-150.43"/>
</a>
</g>
</g>
<!-- Node4 -->
<g id="Node000004" class="node">
<title>Node4</title>
<g id="a_Node000004"><a xlink:href="mykonos__dbgjesd_8h.html" target="_top" xlink:title="Contains macro definitions and global structure declarations for mykonos_dbgjesd.c.">
<polygon fill="white" stroke="#666666" points="460,-118 308,-118 308,-77 460,-77 460,-118"/>
<text text-anchor="start" x="316" y="-106" font-family="Helvetica,sans-Serif" font-size="10.00">projects/ad9371/src</text>
<text text-anchor="start" x="316" y="-95" font-family="Helvetica,sans-Serif" font-size="10.00">/devices/mykonos/mykonos</text>
<text text-anchor="middle" x="384" y="-84" font-family="Helvetica,sans-Serif" font-size="10.00">_debug/mykonos_dbgjesd.h</text>
</a>
</g>
</g>
<!-- Node1&#45;&gt;Node4 -->
<g id="edge3_Node000001_Node000004" class="edge">
<title>Node1&#45;&gt;Node4</title>
<g id="a_edge3_Node000001_Node000004"><a xlink:title=" ">
<path fill="none" stroke="#63b8ff" d="M322.66,-147.5C334.3,-138.21 348,-127.26 359.5,-118.07"/>
<polygon fill="#63b8ff" stroke="#63b8ff" points="320.23,-144.96 314.61,-153.94 324.6,-150.43 320.23,-144.96"/>
</a>
</g>
</g>
<!-- Node6 -->
<g id="Node000006" class="node">
<title>Node6</title>
<g id="a_Node000006"><a xlink:href="mykonos__gpio_8c.html" target="_top" xlink:title="Contains Mykonos APIs for transceiver GPIO configuration and control.">
<polygon fill="white" stroke="#666666" points="630,-118 478,-118 478,-77 630,-77 630,-118"/>
<text text-anchor="start" x="486" y="-106" font-family="Helvetica,sans-Serif" font-size="10.00">projects/ad9371/src</text>
<text text-anchor="start" x="486" y="-95" font-family="Helvetica,sans-Serif" font-size="10.00">/devices/mykonos/mykonos</text>
<text text-anchor="middle" x="554" y="-84" font-family="Helvetica,sans-Serif" font-size="10.00">_gpio.c</text>
</a>
</g>
</g>
<!-- Node1&#45;&gt;Node6 -->
<g id="edge5_Node000001_Node000006" class="edge">
<title>Node1&#45;&gt;Node6</title>
<g id="a_edge5_Node000001_Node000006"><a xlink:title=" ">
<path fill="none" stroke="#63b8ff" d="M358.66,-151.32C395.65,-141.32 442.87,-128.55 481.62,-118.07"/>
<polygon fill="#63b8ff" stroke="#63b8ff" points="357.75,-147.95 349.01,-153.94 359.57,-154.7 357.75,-147.95"/>
</a>
</g>
</g>
<!-- Node5 -->
<g id="Node000005" class="node">
<title>Node5</title>
<g id="a_Node000005"><a xlink:href="mykonos__dbgjesd_8c.html" target="_top" xlink:title="Contains Mykonos APIs for Jesd debug facilities.">
<polygon fill="white" stroke="#666666" points="460,-41 308,-41 308,0 460,0 460,-41"/>
<text text-anchor="start" x="316" y="-29" font-family="Helvetica,sans-Serif" font-size="10.00">projects/ad9371/src</text>
<text text-anchor="start" x="316" y="-18" font-family="Helvetica,sans-Serif" font-size="10.00">/devices/mykonos/mykonos</text>
<text text-anchor="middle" x="384" y="-7" font-family="Helvetica,sans-Serif" font-size="10.00">_debug/mykonos_dbgjesd.c</text>
</a>
</g>
</g>
<!-- Node4&#45;&gt;Node5 -->
<g id="edge4_Node000004_Node000005" class="edge">
<title>Node4&#45;&gt;Node5</title>
<g id="a_edge4_Node000004_Node000005"><a xlink:title=" ">
<path fill="none" stroke="#63b8ff" d="M384,-66.69C384,-58.08 384,-48.9 384,-41.07"/>
<polygon fill="#63b8ff" stroke="#63b8ff" points="380.5,-66.79 384,-76.79 387.5,-66.79 380.5,-66.79"/>
</a>
</g>
</g>
</g>
</svg>

<g id="navigator" transform="translate(0 0)" fill="#404254">
  <rect fill="#f2f5e9" fill-opacity="0.5" stroke="#606060" stroke-width=".5" x="0" y="0" width="60" height="60"/>
  <use id="zoomplus" xlink:href="#zoomPlus" x="17" y="9" onmousedown="handleZoom(evt,'in')"/>
  <use id="zoomminus" xlink:href="#zoomMin" x="42" y="9" onmousedown="handleZoom(evt,'out')"/>
  <use id="reset" xlink:href="#resetDef" x="30" y="36" onmousedown="handleReset()"/>
   <use id="arrowup" xlink:href="#arrowUp" x="0" y="0" onmousedown="handlePan(0,-1)"/>
  <use id="arrowright" xlink:href="#arrowRight" x="0" y="0" onmousedown="handlePan(1,0)"/>
  <use id="arrowdown" xlink:href="#arrowDown" x="0" y="0" onmousedown="handlePan(0,1)"/>
  <use id="arrowleft" xlink:href="#arrowLeft" x="0" y="0" onmousedown="handlePan(-1,0)"/>
</g>
<svg viewBox="0 0 15 15" width="100%" height="30px" preserveAspectRatio="xMaxYMin meet">
 <g id="arrow_out" transform="scale(0.3 0.3)">
  <a xlink:href="mykonos_8h__dep__incl_org.svg" target="_base">
   <rect id="button" ry="5" rx="5" y="6" x="6" height="38" width="38"
        fill="#f2f5e9" fill-opacity="0.5" stroke="#606060" stroke-width="1.0"/>
   <path id="arrow"
     d="M 11.500037,31.436501 C 11.940474,20.09759 22.043105,11.32322 32.158766,21.979434 L 37.068811,17.246167 C 37.068811,17.246167 37.088388,32 37.088388,32 L 22.160133,31.978069 C 22.160133,31.978069 26.997745,27.140456 26.997745,27.140456 C 18.528582,18.264221 13.291696,25.230495 11.500037,31.436501 z"
     style="fill:#404040;"/>
  </a>
 </g>
</svg>

<style type='text/css'>
<![CDATA[
[data-mouse-over-selected='false'] { opacity: 0.7; }
[data-mouse-over-selected='true']  { opacity: 1.0; }
]]>
</style>
<script type="application/ecmascript"><![CDATA[
document.addEventListener('DOMContentLoaded', (event) => {
  highlightEdges();
  highlightAdjacentNodes();
});
]]></script>
</svg>
