<?xml version="1.0" encoding="UTF-8" standalone="no"?>
<!DOCTYPE svg PUBLIC "-//W3C//DTD SVG 1.1//EN"
 "http://www.w3.org/Graphics/SVG/1.1/DTD/svg11.dtd">
<!-- Generated by graphviz version 2.43.0 (0)
 -->
<!-- Title: MYKONOS_resetRxAgc Pages: 1 -->
<svg width="545pt" height="64pt"
 viewBox="0.00 0.00 545.00 64.00" xmlns="http://www.w3.org/2000/svg" xmlns:xlink="http://www.w3.org/1999/xlink">
<g id="graph0" class="graph" transform="scale(1 1) rotate(0) translate(4 60)">
<title>MYKONOS_resetRxAgc</title>
<!-- Node1 -->
<g id="Node000001" class="node">
<title>Node1</title>
<g id="a_Node000001"><a xlink:title="This function resets the AGC state machine.">
<polygon fill="#999999" stroke="#666666" points="537,-37 410,-37 410,-18 537,-18 537,-37"/>
<text text-anchor="middle" x="473.5" y="-25" font-family="Helvetica,sans-Serif" font-size="10.00">MYKONOS_resetRxAgc</text>
</a>
</g>
</g>
<!-- Node2 -->
<g id="Node000002" class="node">
<title>Node2</title>
<g id="a_Node000002"><a xlink:href="mykonos_8c.html#ad89fbd9107db3085e1b1a086f9b42fe5" target="_top" xlink:title="Sets up the device ObsRx Automatic Gain Control (AGC) registers.">
<polygon fill="white" stroke="#666666" points="374,-56 226,-56 226,-37 374,-37 374,-56"/>
<text text-anchor="middle" x="300" y="-44" font-family="Helvetica,sans-Serif" font-size="10.00">MYKONOS_setupObsRxAgc</text>
</a>
</g>
</g>
<!-- Node1&#45;&gt;Node2 -->
<g id="edge1_Node000001_Node000002" class="edge">
<title>Node1&#45;&gt;Node2</title>
<g id="a_edge1_Node000001_Node000002"><a xlink:title=" ">
<path fill="none" stroke="#63b8ff" d="M399.45,-35.59C391.04,-36.52 382.46,-37.48 374.04,-38.41"/>
<polygon fill="#63b8ff" stroke="#63b8ff" points="400.06,-39.05 409.61,-34.47 399.29,-32.09 400.06,-39.05"/>
</a>
</g>
</g>
<!-- Node5 -->
<g id="Node000005" class="node">
<title>Node5</title>
<g id="a_Node000005"><a xlink:href="mykonos_8c.html#a459c151c61d9d97d0c55704157a82ff7" target="_top" xlink:title="Sets up the device Rx Automatic Gain Control (AGC) registers.">
<polygon fill="white" stroke="#666666" points="364.5,-19 235.5,-19 235.5,0 364.5,0 364.5,-19"/>
<text text-anchor="middle" x="300" y="-7" font-family="Helvetica,sans-Serif" font-size="10.00">MYKONOS_setupRxAgc</text>
</a>
</g>
</g>
<!-- Node1&#45;&gt;Node5 -->
<g id="edge4_Node000001_Node000005" class="edge">
<title>Node1&#45;&gt;Node5</title>
<g id="a_edge4_Node000001_Node000005"><a xlink:title=" ">
<path fill="none" stroke="#63b8ff" d="M399.55,-19.84C387.97,-18.63 376.08,-17.38 364.74,-16.19"/>
<polygon fill="#63b8ff" stroke="#63b8ff" points="399.3,-23.34 409.61,-20.9 400.03,-16.37 399.3,-23.34"/>
</a>
</g>
</g>
<!-- Node3 -->
<g id="Node000003" class="node">
<title>Node3</title>
<g id="a_Node000003"><a xlink:href="mykonos_8c.html#a26b695db592df334a9ef189d9d66125f" target="_top" xlink:title="Initializes the Mykonos device based on the desired device settings.">
<polygon fill="white" stroke="#666666" points="190,-37 77,-37 77,-18 190,-18 190,-37"/>
<text text-anchor="middle" x="133.5" y="-25" font-family="Helvetica,sans-Serif" font-size="10.00">MYKONOS_initialize</text>
</a>
</g>
</g>
<!-- Node2&#45;&gt;Node3 -->
<g id="edge2_Node000002_Node000003" class="edge">
<title>Node2&#45;&gt;Node3</title>
<g id="a_edge2_Node000002_Node000003"><a xlink:title=" ">
<path fill="none" stroke="#63b8ff" d="M215.71,-36.88C207.03,-35.88 198.37,-34.88 190.1,-33.92"/>
<polygon fill="#63b8ff" stroke="#63b8ff" points="215.55,-40.39 225.89,-38.06 216.36,-33.43 215.55,-40.39"/>
</a>
</g>
</g>
<!-- Node4 -->
<g id="Node000004" class="node">
<title>Node4</title>
<g id="a_Node000004"><a xlink:href="ad9371_2src_2app_2headless_8c.html#a840291bc02cba5474a4cb46a9b9566fe" target="_top" xlink:title="main">
<polygon fill="white" stroke="#666666" points="41,-37 0,-37 0,-18 41,-18 41,-37"/>
<text text-anchor="middle" x="20.5" y="-25" font-family="Helvetica,sans-Serif" font-size="10.00">main</text>
</a>
</g>
</g>
<!-- Node3&#45;&gt;Node4 -->
<g id="edge3_Node000003_Node000004" class="edge">
<title>Node3&#45;&gt;Node4</title>
<g id="a_edge3_Node000003_Node000004"><a xlink:title=" ">
<path fill="none" stroke="#63b8ff" d="M66.58,-27.5C57.37,-27.5 48.56,-27.5 41.21,-27.5"/>
<polygon fill="#63b8ff" stroke="#63b8ff" points="66.67,-31 76.67,-27.5 66.67,-24 66.67,-31"/>
</a>
</g>
</g>
<!-- Node5&#45;&gt;Node3 -->
<g id="edge5_Node000005_Node000003" class="edge">
<title>Node5&#45;&gt;Node3</title>
<g id="a_edge5_Node000005_Node000003"><a xlink:title=" ">
<path fill="none" stroke="#63b8ff" d="M225.15,-17.58C213.39,-18.87 201.41,-20.18 190.16,-21.41"/>
<polygon fill="#63b8ff" stroke="#63b8ff" points="225.84,-21.03 235.4,-16.46 225.08,-14.07 225.84,-21.03"/>
</a>
</g>
</g>
</g>
</svg>
