<?xml version="1.0" encoding="UTF-8" standalone="no"?>
<!DOCTYPE svg PUBLIC "-//W3C//DTD SVG 1.1//EN"
 "http://www.w3.org/Graphics/SVG/1.1/DTD/svg11.dtd">
<!-- Generated by graphviz version 2.43.0 (0)
 -->
<!-- Title: MYKONOS_getRadioState Pages: 1 -->
<svg width="630pt" height="251pt"
 viewBox="0.00 0.00 630.00 251.00" xmlns="http://www.w3.org/2000/svg" xmlns:xlink="http://www.w3.org/1999/xlink">
<g id="graph0" class="graph" transform="scale(1 1) rotate(0) translate(4 247)">
<title>MYKONOS_getRadioState</title>
<!-- Node1 -->
<g id="Node000001" class="node">
<title>Node1</title>
<g id="a_Node000001"><a xlink:title="Reads the current ARM radio state.">
<polygon fill="#999999" stroke="#666666" points="622,-132 482,-132 482,-113 622,-113 622,-132"/>
<text text-anchor="middle" x="552" y="-120" font-family="Helvetica,sans-Serif" font-size="10.00">MYKONOS_getRadioState</text>
</a>
</g>
</g>
<!-- Node2 -->
<g id="Node000002" class="node">
<title>Node2</title>
<g id="a_Node000002"><a xlink:href="mykonos_8c.html#af05cdf9d44499b5a184f28528854dbde" target="_top" xlink:title="Verifies the ARM status once it is start running.">
<polygon fill="white" stroke="#666666" points="441.5,-243 295.5,-243 295.5,-224 441.5,-224 441.5,-243"/>
<text text-anchor="middle" x="368.5" y="-231" font-family="Helvetica,sans-Serif" font-size="10.00">MYKONOS_checkArmState</text>
</a>
</g>
</g>
<!-- Node1&#45;&gt;Node2 -->
<g id="edge1_Node000001_Node000002" class="edge">
<title>Node1&#45;&gt;Node2</title>
<g id="a_edge1_Node000001_Node000002"><a xlink:title=" ">
<path fill="none" stroke="#63b8ff" d="M536.56,-139.69C517.86,-160.81 483.22,-196.22 446,-215.5 439.46,-218.89 432.27,-221.65 425,-223.9"/>
<polygon fill="#63b8ff" stroke="#63b8ff" points="539.23,-141.95 543.14,-132.1 533.94,-137.37 539.23,-141.95"/>
</a>
</g>
</g>
<!-- Node6 -->
<g id="Node000006" class="node">
<title>Node6</title>
<g id="a_Node000006"><a xlink:href="mykonos_8c.html#a366f39050ef5877e4f98ccfe0744b284" target="_top" xlink:title="This function will configure CLGC settings.">
<polygon fill="white" stroke="#666666" points="429.5,-206 307.5,-206 307.5,-187 429.5,-187 429.5,-206"/>
<text text-anchor="middle" x="368.5" y="-194" font-family="Helvetica,sans-Serif" font-size="10.00">MYKONOS_configClgc</text>
</a>
</g>
</g>
<!-- Node1&#45;&gt;Node6 -->
<g id="edge5_Node000001_Node000006" class="edge">
<title>Node1&#45;&gt;Node6</title>
<g id="a_edge5_Node000001_Node000006"><a xlink:title=" ">
<path fill="none" stroke="#63b8ff" d="M527.19,-137.51C506.43,-150.01 475.17,-167.5 446,-178.5 437.32,-181.77 427.85,-184.58 418.63,-186.93"/>
<polygon fill="#63b8ff" stroke="#63b8ff" points="529.23,-140.36 535.94,-132.15 525.58,-134.39 529.23,-140.36"/>
</a>
</g>
</g>
<!-- Node7 -->
<g id="Node000007" class="node">
<title>Node7</title>
<g id="a_Node000007"><a xlink:href="mykonos_8c.html#a9abc5ff152769a26905f0a454d1713ad" target="_top" xlink:title="This function will configure DPD settings.">
<polygon fill="white" stroke="#666666" points="428.5,-169 308.5,-169 308.5,-150 428.5,-150 428.5,-169"/>
<text text-anchor="middle" x="368.5" y="-157" font-family="Helvetica,sans-Serif" font-size="10.00">MYKONOS_configDpd</text>
</a>
</g>
</g>
<!-- Node1&#45;&gt;Node7 -->
<g id="edge6_Node000001_Node000007" class="edge">
<title>Node1&#45;&gt;Node7</title>
<g id="a_edge6_Node000001_Node000007"><a xlink:title=" ">
<path fill="none" stroke="#63b8ff" d="M494.18,-134.08C469.17,-139.18 440.15,-145.1 416.4,-149.94"/>
<polygon fill="#63b8ff" stroke="#63b8ff" points="495.16,-137.46 504.26,-132.03 493.76,-130.6 495.16,-137.46"/>
</a>
</g>
</g>
<!-- Node8 -->
<g id="Node000008" class="node">
<title>Node8</title>
<g id="a_Node000008"><a xlink:href="mykonos_8c.html#a7baa5941b75ba68d467285adda7dc8b5" target="_top" xlink:title="This function, when called during RadioOff, will configure VSWR settings.">
<polygon fill="white" stroke="#666666" points="431,-132 306,-132 306,-113 431,-113 431,-132"/>
<text text-anchor="middle" x="368.5" y="-120" font-family="Helvetica,sans-Serif" font-size="10.00">MYKONOS_configVswr</text>
</a>
</g>
</g>
<!-- Node1&#45;&gt;Node8 -->
<g id="edge7_Node000001_Node000008" class="edge">
<title>Node1&#45;&gt;Node8</title>
<g id="a_edge7_Node000001_Node000008"><a xlink:title=" ">
<path fill="none" stroke="#63b8ff" d="M471.56,-122.5C457.97,-122.5 444.04,-122.5 431.01,-122.5"/>
<polygon fill="#63b8ff" stroke="#63b8ff" points="471.86,-126 481.86,-122.5 471.86,-119 471.86,-126"/>
</a>
</g>
</g>
<!-- Node9 -->
<g id="Node000009" class="node">
<title>Node9</title>
<g id="a_Node000009"><a xlink:href="mykonos_8c.html#a07971466ea16db91fcced059910eb196" target="_top" xlink:title="Sets which ARM tracking cals are enabled during the radioOn state.">
<polygon fill="white" stroke="#666666" points="249,-132 83,-132 83,-113 249,-113 249,-132"/>
<text text-anchor="middle" x="166" y="-120" font-family="Helvetica,sans-Serif" font-size="10.00">MYKONOS_enableTrackingCals</text>
</a>
</g>
</g>
<!-- Node1&#45;&gt;Node9 -->
<g id="edge8_Node000001_Node000009" class="edge">
<title>Node1&#45;&gt;Node9</title>
<g id="a_edge8_Node000001_Node000009"><a xlink:title=" ">
<path fill="none" stroke="#63b8ff" d="M498.24,-111.05C481.61,-107.95 463.11,-105.04 446,-103.5 377.39,-97.34 359.69,-98.27 291,-103.5 266.68,-105.35 239.9,-109.22 217.48,-112.99"/>
<polygon fill="#63b8ff" stroke="#63b8ff" points="497.84,-114.54 508.32,-112.99 499.16,-107.66 497.84,-114.54"/>
</a>
</g>
</g>
<!-- Node10 -->
<g id="Node000010" class="node">
<title>Node10</title>
<g id="a_Node000010"><a xlink:href="mykonos_8c.html#a111d88c14bfc69497f06e50c1cd6fd81" target="_top" xlink:title="This function will allow loading of the DPD model file.">
<polygon fill="white" stroke="#666666" points="446,-56 291,-56 291,-37 446,-37 446,-56"/>
<text text-anchor="middle" x="368.5" y="-44" font-family="Helvetica,sans-Serif" font-size="10.00">MYKONOS_restoreDpdModel</text>
</a>
</g>
</g>
<!-- Node1&#45;&gt;Node10 -->
<g id="edge10_Node000001_Node000010" class="edge">
<title>Node1&#45;&gt;Node10</title>
<g id="a_edge10_Node000001_Node000010"><a xlink:title=" ">
<path fill="none" stroke="#63b8ff" d="M524.63,-108.01C503.71,-96.86 473.5,-81.55 446,-70.5 432.44,-65.05 417.13,-60.04 403.79,-56.01"/>
<polygon fill="#63b8ff" stroke="#63b8ff" points="523.09,-111.15 533.55,-112.81 526.4,-104.99 523.09,-111.15"/>
</a>
</g>
</g>
<!-- Node11 -->
<g id="Node000011" class="node">
<title>Node11</title>
<g id="a_Node000011"><a xlink:href="mykonos_8c.html#a7cbadbcfdc64e4b09d05b9fdc279df74" target="_top" xlink:title="This function called during RadioOff, will allow retrieval of the DPD model file.">
<polygon fill="white" stroke="#666666" points="440.5,-19 296.5,-19 296.5,0 440.5,0 440.5,-19"/>
<text text-anchor="middle" x="368.5" y="-7" font-family="Helvetica,sans-Serif" font-size="10.00">MYKONOS_saveDpdModel</text>
</a>
</g>
</g>
<!-- Node1&#45;&gt;Node11 -->
<g id="edge11_Node000001_Node000011" class="edge">
<title>Node1&#45;&gt;Node11</title>
<g id="a_edge11_Node000001_Node000011"><a xlink:title=" ">
<path fill="none" stroke="#63b8ff" d="M536.93,-105.26C518.38,-83.71 483.67,-47.27 446,-27.5 439.48,-24.08 432.3,-21.3 425.04,-19.04"/>
<polygon fill="#63b8ff" stroke="#63b8ff" points="534.31,-107.59 543.43,-112.98 539.67,-103.08 534.31,-107.59"/>
</a>
</g>
</g>
<!-- Node3 -->
<g id="Node000003" class="node">
<title>Node3</title>
<g id="a_Node000003"><a xlink:href="mykonos_8c.html#a354bf76c64b7ef66cb177fcc18347942" target="_top" xlink:title="Loads binary byte array into ARM program memory.">
<polygon fill="white" stroke="#666666" points="250.5,-243 81.5,-243 81.5,-224 250.5,-224 250.5,-243"/>
<text text-anchor="middle" x="166" y="-231" font-family="Helvetica,sans-Serif" font-size="10.00">MYKONOS_loadArmFromBinary</text>
</a>
</g>
</g>
<!-- Node2&#45;&gt;Node3 -->
<g id="edge2_Node000002_Node000003" class="edge">
<title>Node2&#45;&gt;Node3</title>
<g id="a_edge2_Node000002_Node000003"><a xlink:title=" ">
<path fill="none" stroke="#63b8ff" d="M285.09,-233.5C273.75,-233.5 262.1,-233.5 250.74,-233.5"/>
<polygon fill="#63b8ff" stroke="#63b8ff" points="285.4,-237 295.4,-233.5 285.4,-230 285.4,-237"/>
</a>
</g>
</g>
<!-- Node5 -->
<g id="Node000005" class="node">
<title>Node5</title>
<g id="a_Node000005"><a xlink:href="mykonos_8c.html#a4f715363b526e4374ec31e0a5a68e1c2" target="_top" xlink:title="Performs reset to the External Tx LO Leakage tracking calibration channel estimate.">
<polygon fill="white" stroke="#666666" points="255,-206 77,-206 77,-187 255,-187 255,-206"/>
<text text-anchor="middle" x="166" y="-194" font-family="Helvetica,sans-Serif" font-size="10.00">MYKONOS_resetExtTxLolChannel</text>
</a>
</g>
</g>
<!-- Node2&#45;&gt;Node5 -->
<g id="edge4_Node000002_Node000005" class="edge">
<title>Node2&#45;&gt;Node5</title>
<g id="a_edge4_Node000002_Node000005"><a xlink:title=" ">
<path fill="none" stroke="#63b8ff" d="M305.83,-222.12C277.96,-216.98 245.39,-210.97 218.81,-206.06"/>
<polygon fill="#63b8ff" stroke="#63b8ff" points="305.4,-225.6 315.87,-223.97 306.67,-218.71 305.4,-225.6"/>
</a>
</g>
</g>
<!-- Node4 -->
<g id="Node000004" class="node">
<title>Node4</title>
<g id="a_Node000004"><a xlink:href="ad9371_2src_2app_2headless_8c.html#a840291bc02cba5474a4cb46a9b9566fe" target="_top" xlink:title="main">
<polygon fill="white" stroke="#666666" points="41,-169 0,-169 0,-150 41,-150 41,-169"/>
<text text-anchor="middle" x="20.5" y="-157" font-family="Helvetica,sans-Serif" font-size="10.00">main</text>
</a>
</g>
</g>
<!-- Node3&#45;&gt;Node4 -->
<g id="edge3_Node000003_Node000004" class="edge">
<title>Node3&#45;&gt;Node4</title>
<g id="a_edge3_Node000003_Node000004"><a xlink:title=" ">
<path fill="none" stroke="#63b8ff" d="M87.8,-220.54C84.07,-219.04 80.45,-217.37 77,-215.5 55.81,-204.04 37.52,-181.87 28.16,-169.13"/>
<polygon fill="#63b8ff" stroke="#63b8ff" points="86.65,-223.84 97.24,-223.92 89.01,-217.25 86.65,-223.84"/>
</a>
</g>
</g>
<!-- Node9&#45;&gt;Node4 -->
<g id="edge9_Node000009_Node000004" class="edge">
<title>Node9&#45;&gt;Node4</title>
<g id="a_edge9_Node000009_Node000004"><a xlink:title=" ">
<path fill="none" stroke="#63b8ff" d="M118.3,-134.54C92.14,-141.29 60.89,-149.34 41.12,-154.44"/>
<polygon fill="#63b8ff" stroke="#63b8ff" points="119.24,-137.91 128.05,-132.03 117.49,-131.14 119.24,-137.91"/>
</a>
</g>
</g>
</g>
</svg>
