<?xml version="1.0" encoding="UTF-8" standalone="no"?>
<!DOCTYPE svg PUBLIC "-//W3C//DTD SVG 1.1//EN"
 "http://www.w3.org/Graphics/SVG/1.1/DTD/svg11.dtd">
<!-- Generated by graphviz version 2.43.0 (0)
 -->
<!-- Title: projects/ad9371/src/devices/mykonos/mykonos.h Pages: 1 -->
<svg width="638pt" height="192pt"
 viewBox="0.00 0.00 638.00 192.00" xmlns="http://www.w3.org/2000/svg" xmlns:xlink="http://www.w3.org/1999/xlink">
<g id="graph0" class="graph" transform="scale(1 1) rotate(0) translate(4 188)">
<title>projects/ad9371/src/devices/mykonos/mykonos.h</title>
<!-- Node1 -->
<g id="Node000001" class="node">
<title>Node1</title>
<g id="a_Node000001"><a xlink:title="Contains macro definitions and function prototypes for mykonos.c.">
<polygon fill="#999999" stroke="#666666" points="377.5,-184 216.5,-184 216.5,-154 377.5,-154 377.5,-184"/>
<text text-anchor="start" x="224.5" y="-172" font-family="Helvetica,sans-Serif" font-size="10.00">projects/ad9371/src</text>
<text text-anchor="middle" x="297" y="-161" font-family="Helvetica,sans-Serif" font-size="10.00">/devices/mykonos/mykonos.h</text>
</a>
</g>
</g>
<!-- Node2 -->
<g id="Node000002" class="node">
<title>Node2</title>
<g id="a_Node000002"><a xlink:href="ad9371_2src_2app_2headless_8c.html" target="_top" xlink:title="Implementation of Main Function.">
<polygon fill="white" stroke="#666666" points="112,-112.5 0,-112.5 0,-82.5 112,-82.5 112,-112.5"/>
<text text-anchor="start" x="8" y="-100.5" font-family="Helvetica,sans-Serif" font-size="10.00">projects/ad9371/src</text>
<text text-anchor="middle" x="56" y="-89.5" font-family="Helvetica,sans-Serif" font-size="10.00">/app/headless.c</text>
</a>
</g>
</g>
<!-- Node1&#45;&gt;Node2 -->
<g id="edge1_Node000001_Node000002" class="edge">
<title>Node1&#45;&gt;Node2</title>
<g id="a_edge1_Node000001_Node000002"><a xlink:title=" ">
<path fill="none" stroke="#63b8ff" d="M237.07,-151.21C203.01,-141.61 159.57,-129.26 121,-118 115.01,-116.25 108.71,-114.39 102.49,-112.54"/>
<polygon fill="#63b8ff" stroke="#63b8ff" points="236.3,-154.63 246.87,-153.97 238.2,-147.89 236.3,-154.63"/>
</a>
</g>
</g>
<!-- Node3 -->
<g id="Node000003" class="node">
<title>Node3</title>
<g id="a_Node000003"><a xlink:href="mykonos_8c.html" target="_top" xlink:title="Contains Mykonos APIs for transceiver configuration and control.">
<polygon fill="white" stroke="#666666" points="290,-112.5 130,-112.5 130,-82.5 290,-82.5 290,-112.5"/>
<text text-anchor="start" x="138" y="-100.5" font-family="Helvetica,sans-Serif" font-size="10.00">projects/ad9371/src</text>
<text text-anchor="middle" x="210" y="-89.5" font-family="Helvetica,sans-Serif" font-size="10.00">/devices/mykonos/mykonos.c</text>
</a>
</g>
</g>
<!-- Node1&#45;&gt;Node3 -->
<g id="edge2_Node000001_Node000003" class="edge">
<title>Node1&#45;&gt;Node3</title>
<g id="a_edge2_Node000001_Node000003"><a xlink:title=" ">
<path fill="none" stroke="#63b8ff" d="M271.49,-147.63C257.38,-136.35 240.19,-122.62 227.58,-112.54"/>
<polygon fill="#63b8ff" stroke="#63b8ff" points="269.4,-150.43 279.39,-153.94 273.77,-144.96 269.4,-150.43"/>
</a>
</g>
</g>
<!-- Node4 -->
<g id="Node000004" class="node">
<title>Node4</title>
<g id="a_Node000004"><a xlink:href="mykonos__dbgjesd_8h.html" target="_top" xlink:title="Contains macro definitions and global structure declarations for mykonos_dbgjesd.c.">
<polygon fill="white" stroke="#666666" points="460,-118 308,-118 308,-77 460,-77 460,-118"/>
<text text-anchor="start" x="316" y="-106" font-family="Helvetica,sans-Serif" font-size="10.00">projects/ad9371/src</text>
<text text-anchor="start" x="316" y="-95" font-family="Helvetica,sans-Serif" font-size="10.00">/devices/mykonos/mykonos</text>
<text text-anchor="middle" x="384" y="-84" font-family="Helvetica,sans-Serif" font-size="10.00">_debug/mykonos_dbgjesd.h</text>
</a>
</g>
</g>
<!-- Node1&#45;&gt;Node4 -->
<g id="edge3_Node000001_Node000004" class="edge">
<title>Node1&#45;&gt;Node4</title>
<g id="a_edge3_Node000001_Node000004"><a xlink:title=" ">
<path fill="none" stroke="#63b8ff" d="M322.66,-147.5C334.3,-138.21 348,-127.26 359.5,-118.07"/>
<polygon fill="#63b8ff" stroke="#63b8ff" points="320.23,-144.96 314.61,-153.94 324.6,-150.43 320.23,-144.96"/>
</a>
</g>
</g>
<!-- Node6 -->
<g id="Node000006" class="node">
<title>Node6</title>
<g id="a_Node000006"><a xlink:href="mykonos__gpio_8c.html" target="_top" xlink:title="Contains Mykonos APIs for transceiver GPIO configuration and control.">
<polygon fill="white" stroke="#666666" points="630,-118 478,-118 478,-77 630,-77 630,-118"/>
<text text-anchor="start" x="486" y="-106" font-family="Helvetica,sans-Serif" font-size="10.00">projects/ad9371/src</text>
<text text-anchor="start" x="486" y="-95" font-family="Helvetica,sans-Serif" font-size="10.00">/devices/mykonos/mykonos</text>
<text text-anchor="middle" x="554" y="-84" font-family="Helvetica,sans-Serif" font-size="10.00">_gpio.c</text>
</a>
</g>
</g>
<!-- Node1&#45;&gt;Node6 -->
<g id="edge5_Node000001_Node000006" class="edge">
<title>Node1&#45;&gt;Node6</title>
<g id="a_edge5_Node000001_Node000006"><a xlink:title=" ">
<path fill="none" stroke="#63b8ff" d="M358.66,-151.32C395.65,-141.32 442.87,-128.55 481.62,-118.07"/>
<polygon fill="#63b8ff" stroke="#63b8ff" points="357.75,-147.95 349.01,-153.94 359.57,-154.7 357.75,-147.95"/>
</a>
</g>
</g>
<!-- Node5 -->
<g id="Node000005" class="node">
<title>Node5</title>
<g id="a_Node000005"><a xlink:href="mykonos__dbgjesd_8c.html" target="_top" xlink:title="Contains Mykonos APIs for Jesd debug facilities.">
<polygon fill="white" stroke="#666666" points="460,-41 308,-41 308,0 460,0 460,-41"/>
<text text-anchor="start" x="316" y="-29" font-family="Helvetica,sans-Serif" font-size="10.00">projects/ad9371/src</text>
<text text-anchor="start" x="316" y="-18" font-family="Helvetica,sans-Serif" font-size="10.00">/devices/mykonos/mykonos</text>
<text text-anchor="middle" x="384" y="-7" font-family="Helvetica,sans-Serif" font-size="10.00">_debug/mykonos_dbgjesd.c</text>
</a>
</g>
</g>
<!-- Node4&#45;&gt;Node5 -->
<g id="edge4_Node000004_Node000005" class="edge">
<title>Node4&#45;&gt;Node5</title>
<g id="a_edge4_Node000004_Node000005"><a xlink:title=" ">
<path fill="none" stroke="#63b8ff" d="M384,-66.69C384,-58.08 384,-48.9 384,-41.07"/>
<polygon fill="#63b8ff" stroke="#63b8ff" points="380.5,-66.79 384,-76.79 387.5,-66.79 380.5,-66.79"/>
</a>
</g>
</g>
</g>
</svg>
