<?xml version="1.0" encoding="UTF-8" standalone="no"?>
<!DOCTYPE svg PUBLIC "-//W3C//DTD SVG 1.1//EN"
 "http://www.w3.org/Graphics/SVG/1.1/DTD/svg11.dtd">
<!-- Generated by graphviz version 2.43.0 (0)
 -->
<!-- Title: projects/wethlink/src/app/net.h Pages: 1 -->
<svg width="927pt" height="368pt"
 viewBox="0.00 0.00 926.97 368.00" xmlns="http://www.w3.org/2000/svg" xmlns:xlink="http://www.w3.org/1999/xlink">
<g id="graph0" class="graph" transform="scale(1 1) rotate(0) translate(4 364)">
<title>projects/wethlink/src/app/net.h</title>
<!-- Node1 -->
<g id="Node000001" class="node">
<title>Node1</title>
<g id="a_Node000001"><a xlink:title=" ">
<polygon fill="#999999" stroke="#666666" points="527.97,-360 409.97,-360 409.97,-330 527.97,-330 527.97,-360"/>
<text text-anchor="start" x="417.97" y="-348" font-family="Helvetica,sans-Serif" font-size="10.00">projects/wethlink/src</text>
<text text-anchor="middle" x="468.97" y="-337" font-family="Helvetica,sans-Serif" font-size="10.00">/app/net.h</text>
</a>
</g>
</g>
<!-- Node2 -->
<g id="Node000002" class="node">
<title>Node2</title>
<g id="a_Node000002"><a xlink:href="iio__adin1300_8h.html" target="_top" xlink:title=" ">
<polygon fill="white" stroke="#666666" points="402.97,-239 314.97,-239 314.97,-220 402.97,-220 402.97,-239"/>
<text text-anchor="middle" x="358.97" y="-227" font-family="Helvetica,sans-Serif" font-size="10.00">iio_adin1300.h</text>
</a>
</g>
</g>
<!-- Node1&#45;&gt;Node2 -->
<g id="edge1_Node000001_Node000002" class="edge">
<title>Node1&#45;&gt;Node2</title>
<g id="a_edge1_Node000001_Node000002"><a xlink:title=" ">
<path fill="none" stroke="#63b8ff" d="M455.04,-329.63C434.45,-308.37 396,-268.71 374.52,-246.54"/>
<polygon fill="#63b8ff" stroke="#63b8ff" points="376.91,-243.97 367.43,-239.23 371.88,-248.85 376.91,-243.97"/>
</a>
</g>
</g>
<!-- Node14 -->
<g id="Node000014" class="node">
<title>Node14</title>
<g id="a_Node000014"><a xlink:href="iio__max24287_8h.html" target="_top" xlink:title=" ">
<polygon fill="white" stroke="#666666" points="516.47,-239 421.47,-239 421.47,-220 516.47,-220 516.47,-239"/>
<text text-anchor="middle" x="468.97" y="-227" font-family="Helvetica,sans-Serif" font-size="10.00">iio_max24287.h</text>
</a>
</g>
</g>
<!-- Node1&#45;&gt;Node14 -->
<g id="edge25_Node000001_Node000014" class="edge">
<title>Node1&#45;&gt;Node14</title>
<g id="a_edge25_Node000001_Node000014"><a xlink:title=" ">
<path fill="none" stroke="#63b8ff" d="M468.97,-329.63C468.97,-309.21 468.97,-271.81 468.97,-249.24"/>
<polygon fill="#63b8ff" stroke="#63b8ff" points="472.47,-249.23 468.97,-239.23 465.47,-249.23 472.47,-249.23"/>
</a>
</g>
</g>
<!-- Node16 -->
<g id="Node000016" class="node">
<title>Node16</title>
<g id="a_Node000016"><a xlink:href="mwc_8h.html" target="_top" xlink:title=" ">
<polygon fill="white" stroke="#666666" points="700.47,-294 651.47,-294 651.47,-275 700.47,-275 700.47,-294"/>
<text text-anchor="middle" x="675.97" y="-282" font-family="Helvetica,sans-Serif" font-size="10.00">mwc.h</text>
</a>
</g>
</g>
<!-- Node1&#45;&gt;Node16 -->
<g id="edge31_Node000001_Node000016" class="edge">
<title>Node1&#45;&gt;Node16</title>
<g id="a_edge31_Node000001_Node000016"><a xlink:title=" ">
<path fill="none" stroke="#63b8ff" d="M518.56,-329.99C556.49,-319.27 607.84,-304.75 641.42,-295.26"/>
<polygon fill="#63b8ff" stroke="#63b8ff" points="642.57,-298.58 651.24,-292.49 640.67,-291.84 642.57,-298.58"/>
</a>
</g>
</g>
<!-- Node3 -->
<g id="Node000003" class="node">
<title>Node3</title>
<g id="a_Node000003"><a xlink:href="iio_8h.html" target="_top" xlink:title="Header file of iio.">
<polygon fill="white" stroke="#666666" points="393.97,-184 355.97,-184 355.97,-165 393.97,-165 393.97,-184"/>
<text text-anchor="middle" x="374.97" y="-172" font-family="Helvetica,sans-Serif" font-size="10.00">iio.h</text>
</a>
</g>
</g>
<!-- Node2&#45;&gt;Node3 -->
<g id="edge2_Node000002_Node000003" class="edge">
<title>Node2&#45;&gt;Node3</title>
<g id="a_edge2_Node000002_Node000003"><a xlink:title=" ">
<path fill="none" stroke="#63b8ff" d="M361.62,-219.75C363.74,-212.72 366.79,-202.62 369.44,-193.84"/>
<polygon fill="#63b8ff" stroke="#63b8ff" points="372.84,-194.67 372.38,-184.09 366.14,-192.65 372.84,-194.67"/>
</a>
</g>
</g>
<!-- Node11 -->
<g id="Node000011" class="node">
<title>Node11</title>
<g id="a_Node000011"><a xlink:href="adin1300_8h.html" target="_top" xlink:title=" ">
<polygon fill="white" stroke="#666666" points="488.47,-184 417.47,-184 417.47,-165 488.47,-165 488.47,-184"/>
<text text-anchor="middle" x="452.97" y="-172" font-family="Helvetica,sans-Serif" font-size="10.00">adin1300.h</text>
</a>
</g>
</g>
<!-- Node2&#45;&gt;Node11 -->
<g id="edge15_Node000002_Node000011" class="edge">
<title>Node2&#45;&gt;Node11</title>
<g id="a_edge15_Node000002_Node000011"><a xlink:title=" ">
<path fill="none" stroke="#63b8ff" d="M374.08,-219.98C388.79,-211.69 411.4,-198.94 428.65,-189.22"/>
<polygon fill="#63b8ff" stroke="#63b8ff" points="430.6,-192.13 437.6,-184.17 427.17,-186.03 430.6,-192.13"/>
</a>
</g>
</g>
<!-- Node4 -->
<g id="Node000004" class="node">
<title>Node4</title>
<g id="a_Node000004"><a xlink:href="iio__types_8h.html" target="_top" xlink:title="Header file for iio_types.">
<polygon fill="white" stroke="#666666" points="99.97,-129 29.97,-129 29.97,-110 99.97,-110 99.97,-129"/>
<text text-anchor="middle" x="64.97" y="-117" font-family="Helvetica,sans-Serif" font-size="10.00">iio_types.h</text>
</a>
</g>
</g>
<!-- Node3&#45;&gt;Node4 -->
<g id="edge3_Node000003_Node000004" class="edge">
<title>Node3&#45;&gt;Node4</title>
<g id="a_edge3_Node000003_Node000004"><a xlink:title=" ">
<path fill="none" stroke="#63b8ff" d="M355.58,-170.18C306.98,-161.87 178.94,-139.98 110.17,-128.23"/>
<polygon fill="#63b8ff" stroke="#63b8ff" points="110.52,-124.74 100.07,-126.5 109.34,-131.64 110.52,-124.74"/>
</a>
</g>
</g>
<!-- Node8 -->
<g id="Node000008" class="node">
<title>Node8</title>
<g id="a_Node000008"><a xlink:href="no__os__uart_8h.html" target="_top" xlink:title="Header file of UART interface.">
<polygon fill="white" stroke="#666666" points="319.47,-129 240.47,-129 240.47,-110 319.47,-110 319.47,-129"/>
<text text-anchor="middle" x="279.97" y="-117" font-family="Helvetica,sans-Serif" font-size="10.00">no_os_uart.h</text>
</a>
</g>
</g>
<!-- Node3&#45;&gt;Node8 -->
<g id="edge8_Node000003_Node000008" class="edge">
<title>Node3&#45;&gt;Node8</title>
<g id="a_edge8_Node000003_Node000008"><a xlink:title=" ">
<path fill="none" stroke="#63b8ff" d="M359.71,-164.98C344.84,-156.69 321.99,-143.94 304.56,-134.22"/>
<polygon fill="#63b8ff" stroke="#63b8ff" points="305.95,-130.99 295.51,-129.17 302.54,-137.1 305.95,-130.99"/>
</a>
</g>
</g>
<!-- Node5 -->
<g id="Node000005" class="node">
<title>Node5</title>
<g id="a_Node000005"><a xlink:title=" ">
<polygon fill="#e0e0e0" stroke="#999999" points="388.97,-19 326.97,-19 326.97,0 388.97,0 388.97,-19"/>
<text text-anchor="middle" x="357.97" y="-7" font-family="Helvetica,sans-Serif" font-size="10.00">stdbool.h</text>
</a>
</g>
</g>
<!-- Node4&#45;&gt;Node5 -->
<g id="edge4_Node000004_Node000005" class="edge">
<title>Node4&#45;&gt;Node5</title>
<g id="a_edge4_Node000004_Node000005"><a xlink:title=" ">
<path fill="none" stroke="#63b8ff" d="M46.29,-109.84C22.7,-97.78 -12.78,-75.14 4.97,-55 25.31,-31.93 227.64,-17.82 316.5,-12.7"/>
<polygon fill="#63b8ff" stroke="#63b8ff" points="316.96,-16.18 326.75,-12.12 316.57,-9.19 316.96,-16.18"/>
</a>
</g>
</g>
<!-- Node6 -->
<g id="Node000006" class="node">
<title>Node6</title>
<g id="a_Node000006"><a xlink:title=" ">
<polygon fill="#e0e0e0" stroke="#999999" points="499.47,-19 446.47,-19 446.47,0 499.47,0 499.47,-19"/>
<text text-anchor="middle" x="472.97" y="-7" font-family="Helvetica,sans-Serif" font-size="10.00">stdint.h</text>
</a>
</g>
</g>
<!-- Node4&#45;&gt;Node6 -->
<g id="edge5_Node000004_Node000006" class="edge">
<title>Node4&#45;&gt;Node6</title>
<g id="a_edge5_Node000004_Node000006"><a xlink:title=" ">
<path fill="none" stroke="#63b8ff" d="M55.84,-109.7C43.16,-96.44 23.34,-71.17 37.97,-55 64.95,-25.19 358,-23.26 397.97,-19 410.37,-17.68 423.91,-16.16 436.03,-14.78"/>
<polygon fill="#63b8ff" stroke="#63b8ff" points="436.72,-18.23 446.26,-13.61 435.92,-11.27 436.72,-18.23"/>
</a>
</g>
</g>
<!-- Node7 -->
<g id="Node000007" class="node">
<title>Node7</title>
<g id="a_Node000007"><a xlink:href="no__os__circular__buffer_8h.html" target="_top" xlink:title="Circular buffer library header.">
<polygon fill="white" stroke="#666666" points="174.97,-74 46.97,-74 46.97,-55 174.97,-55 174.97,-74"/>
<text text-anchor="middle" x="110.97" y="-62" font-family="Helvetica,sans-Serif" font-size="10.00">no_os_circular_buffer.h</text>
</a>
</g>
</g>
<!-- Node4&#45;&gt;Node7 -->
<g id="edge6_Node000004_Node000007" class="edge">
<title>Node4&#45;&gt;Node7</title>
<g id="a_edge6_Node000004_Node000007"><a xlink:title=" ">
<path fill="none" stroke="#63b8ff" d="M72.57,-109.75C79.13,-102.18 88.8,-91.05 96.79,-81.84"/>
<polygon fill="#63b8ff" stroke="#63b8ff" points="99.61,-83.94 103.52,-74.09 94.32,-79.35 99.61,-83.94"/>
</a>
</g>
</g>
<!-- Node7&#45;&gt;Node6 -->
<g id="edge7_Node000007_Node000006" class="edge">
<title>Node7&#45;&gt;Node6</title>
<g id="a_edge7_Node000007_Node000006"><a xlink:title=" ">
<path fill="none" stroke="#63b8ff" d="M169.13,-54.98C244.33,-43.98 373.08,-25.13 436.07,-15.9"/>
<polygon fill="#63b8ff" stroke="#63b8ff" points="436.94,-19.31 446.32,-14.4 435.92,-12.39 436.94,-19.31"/>
</a>
</g>
</g>
<!-- Node8&#45;&gt;Node5 -->
<g id="edge10_Node000008_Node000005" class="edge">
<title>Node8&#45;&gt;Node5</title>
<g id="a_edge10_Node000008_Node000005"><a xlink:title=" ">
<path fill="none" stroke="#63b8ff" d="M263.72,-109.99C243.17,-98.11 212.17,-75.66 226.97,-55 247.18,-26.79 286.3,-16.25 316.55,-12.42"/>
<polygon fill="#63b8ff" stroke="#63b8ff" points="317.26,-15.86 326.84,-11.32 316.52,-8.9 317.26,-15.86"/>
</a>
</g>
</g>
<!-- Node8&#45;&gt;Node6 -->
<g id="edge9_Node000008_Node000006" class="edge">
<title>Node8&#45;&gt;Node6</title>
<g id="a_edge9_Node000008_Node000006"><a xlink:title=" ">
<path fill="none" stroke="#63b8ff" d="M272.6,-109.74C262.41,-96.53 246.71,-71.32 259.97,-55 271.02,-41.41 377.85,-24.15 435.88,-15.68"/>
<polygon fill="#63b8ff" stroke="#63b8ff" points="436.72,-19.09 446.12,-14.2 435.72,-12.17 436.72,-19.09"/>
</a>
</g>
</g>
<!-- Node9 -->
<g id="Node000009" class="node">
<title>Node9</title>
<g id="a_Node000009"><a xlink:href="no__os__lf256fifo_8h.html" target="_top" xlink:title="SPSC lock&#45;free fifo of fixed size (256), specialized for UART.">
<polygon fill="white" stroke="#666666" points="368.97,-74 268.97,-74 268.97,-55 368.97,-55 368.97,-74"/>
<text text-anchor="middle" x="318.97" y="-62" font-family="Helvetica,sans-Serif" font-size="10.00">no_os_lf256fifo.h</text>
</a>
</g>
</g>
<!-- Node8&#45;&gt;Node9 -->
<g id="edge11_Node000008_Node000009" class="edge">
<title>Node8&#45;&gt;Node9</title>
<g id="a_edge11_Node000008_Node000009"><a xlink:title=" ">
<path fill="none" stroke="#63b8ff" d="M286.41,-109.75C291.87,-102.34 299.84,-91.5 306.53,-82.41"/>
<polygon fill="#63b8ff" stroke="#63b8ff" points="309.55,-84.22 312.65,-74.09 303.91,-80.07 309.55,-84.22"/>
</a>
</g>
</g>
<!-- Node9&#45;&gt;Node5 -->
<g id="edge14_Node000009_Node000005" class="edge">
<title>Node9&#45;&gt;Node5</title>
<g id="a_edge14_Node000009_Node000005"><a xlink:title=" ">
<path fill="none" stroke="#63b8ff" d="M325.41,-54.75C330.87,-47.34 338.84,-36.5 345.53,-27.41"/>
<polygon fill="#63b8ff" stroke="#63b8ff" points="348.55,-29.22 351.65,-19.09 342.91,-25.07 348.55,-29.22"/>
</a>
</g>
</g>
<!-- Node9&#45;&gt;Node6 -->
<g id="edge13_Node000009_Node000006" class="edge">
<title>Node9&#45;&gt;Node6</title>
<g id="a_edge13_Node000009_Node000006"><a xlink:title=" ">
<path fill="none" stroke="#63b8ff" d="M343.72,-54.98C369.35,-46.16 409.61,-32.31 438.38,-22.41"/>
<polygon fill="#63b8ff" stroke="#63b8ff" points="439.72,-25.65 448.04,-19.08 437.44,-19.03 439.72,-25.65"/>
</a>
</g>
</g>
<!-- Node10 -->
<g id="Node000010" class="node">
<title>Node10</title>
<g id="a_Node000010"><a xlink:title=" ">
<polygon fill="#e0e0e0" stroke="#999999" points="570.47,-19 517.47,-19 517.47,0 570.47,0 570.47,-19"/>
<text text-anchor="middle" x="543.97" y="-7" font-family="Helvetica,sans-Serif" font-size="10.00">stdlib.h</text>
</a>
</g>
</g>
<!-- Node9&#45;&gt;Node10 -->
<g id="edge12_Node000009_Node000010" class="edge">
<title>Node9&#45;&gt;Node10</title>
<g id="a_edge12_Node000009_Node000010"><a xlink:title=" ">
<path fill="none" stroke="#63b8ff" d="M355.21,-54.98C391.25,-46.5 448.39,-33.05 507.37,-19.14"/>
<polygon fill="#63b8ff" stroke="#63b8ff" points="508.31,-22.52 517.24,-16.81 506.7,-15.7 508.31,-22.52"/>
</a>
</g>
</g>
<!-- Node11&#45;&gt;Node6 -->
<g id="edge16_Node000011_Node000006" class="edge">
<title>Node11&#45;&gt;Node6</title>
<g id="a_edge16_Node000011_Node000006"><a xlink:title=" ">
<path fill="none" stroke="#63b8ff" d="M439.48,-164.75C428.68,-156.87 414.32,-144.21 407.97,-129 404.72,-121.21 405.56,-118.09 407.97,-110 417.72,-77.24 442.07,-45.22 458.04,-26.7"/>
<polygon fill="#63b8ff" stroke="#63b8ff" points="460.69,-28.98 464.7,-19.18 455.45,-24.34 460.69,-28.98"/>
</a>
</g>
</g>
<!-- Node12 -->
<g id="Node000012" class="node">
<title>Node12</title>
<g id="a_Node000012"><a xlink:href="no__os__util_8h.html" target="_top" xlink:title="Header file of utility functions.">
<polygon fill="white" stroke="#666666" points="576.47,-74 501.47,-74 501.47,-55 576.47,-55 576.47,-74"/>
<text text-anchor="middle" x="538.97" y="-62" font-family="Helvetica,sans-Serif" font-size="10.00">no_os_util.h</text>
</a>
</g>
</g>
<!-- Node11&#45;&gt;Node12 -->
<g id="edge17_Node000011_Node000012" class="edge">
<title>Node11&#45;&gt;Node12</title>
<g id="a_edge17_Node000011_Node000012"><a xlink:title=" ">
<path fill="none" stroke="#63b8ff" d="M467.7,-164.85C480.27,-156.86 498.15,-143.98 509.97,-129 520.76,-115.34 528.57,-97.02 533.35,-83.57"/>
<polygon fill="#63b8ff" stroke="#63b8ff" points="536.69,-84.6 536.53,-74.01 530.05,-82.39 536.69,-84.6"/>
</a>
</g>
</g>
<!-- Node13 -->
<g id="Node000013" class="node">
<title>Node13</title>
<g id="a_Node000013"><a xlink:href="no__os__mdio_8h.html" target="_top" xlink:title="Header file for MDIO interface driver.">
<polygon fill="white" stroke="#666666" points="500.97,-129 416.97,-129 416.97,-110 500.97,-110 500.97,-129"/>
<text text-anchor="middle" x="458.97" y="-117" font-family="Helvetica,sans-Serif" font-size="10.00">no_os_mdio.h</text>
</a>
</g>
</g>
<!-- Node11&#45;&gt;Node13 -->
<g id="edge21_Node000011_Node000013" class="edge">
<title>Node11&#45;&gt;Node13</title>
<g id="a_edge21_Node000011_Node000013"><a xlink:title=" ">
<path fill="none" stroke="#63b8ff" d="M453.96,-164.75C454.75,-157.8 455.88,-147.85 456.86,-139.13"/>
<polygon fill="#63b8ff" stroke="#63b8ff" points="460.35,-139.42 458,-129.09 453.4,-138.63 460.35,-139.42"/>
</a>
</g>
</g>
<!-- Node12&#45;&gt;Node5 -->
<g id="edge20_Node000012_Node000005" class="edge">
<title>Node12&#45;&gt;Node5</title>
<g id="a_edge20_Node000012_Node000005"><a xlink:title=" ">
<path fill="none" stroke="#63b8ff" d="M509.89,-54.98C479.37,-46.05 431.21,-31.94 397.31,-22.02"/>
<polygon fill="#63b8ff" stroke="#63b8ff" points="397.86,-18.53 387.28,-19.08 395.9,-25.25 397.86,-18.53"/>
</a>
</g>
</g>
<!-- Node12&#45;&gt;Node6 -->
<g id="edge18_Node000012_Node000006" class="edge">
<title>Node12&#45;&gt;Node6</title>
<g id="a_edge18_Node000012_Node000006"><a xlink:title=" ">
<path fill="none" stroke="#63b8ff" d="M528.37,-54.98C518.52,-47.07 503.62,-35.11 491.76,-25.58"/>
<polygon fill="#63b8ff" stroke="#63b8ff" points="493.76,-22.7 483.77,-19.17 489.38,-28.16 493.76,-22.7"/>
</a>
</g>
</g>
<!-- Node12&#45;&gt;Node10 -->
<g id="edge19_Node000012_Node000010" class="edge">
<title>Node12&#45;&gt;Node10</title>
<g id="a_edge19_Node000012_Node000010"><a xlink:title=" ">
<path fill="none" stroke="#63b8ff" d="M539.8,-54.75C540.45,-47.8 541.39,-37.85 542.22,-29.13"/>
<polygon fill="#63b8ff" stroke="#63b8ff" points="545.71,-29.37 543.16,-19.09 538.74,-28.72 545.71,-29.37"/>
</a>
</g>
</g>
<!-- Node13&#45;&gt;Node5 -->
<g id="edge22_Node000013_Node000005" class="edge">
<title>Node13&#45;&gt;Node5</title>
<g id="a_edge22_Node000013_Node000005"><a xlink:title=" ">
<path fill="none" stroke="#63b8ff" d="M450.71,-109.66C433.68,-91.46 394.49,-49.55 372.91,-26.47"/>
<polygon fill="#63b8ff" stroke="#63b8ff" points="375.46,-24.07 366.07,-19.16 370.34,-28.85 375.46,-24.07"/>
</a>
</g>
</g>
<!-- Node13&#45;&gt;Node6 -->
<g id="edge23_Node000013_Node000006" class="edge">
<title>Node13&#45;&gt;Node6</title>
<g id="a_edge23_Node000013_Node000006"><a xlink:title=" ">
<path fill="none" stroke="#63b8ff" d="M460.12,-109.66C462.39,-92.17 467.49,-52.8 470.54,-29.27"/>
<polygon fill="#63b8ff" stroke="#63b8ff" points="474.04,-29.53 471.85,-19.16 467.09,-28.63 474.04,-29.53"/>
</a>
</g>
</g>
<!-- Node13&#45;&gt;Node12 -->
<g id="edge24_Node000013_Node000012" class="edge">
<title>Node13&#45;&gt;Node12</title>
<g id="a_edge24_Node000013_Node000012"><a xlink:title=" ">
<path fill="none" stroke="#63b8ff" d="M471.83,-109.98C484.12,-101.84 502.88,-89.41 517.45,-79.76"/>
<polygon fill="#63b8ff" stroke="#63b8ff" points="519.48,-82.61 525.89,-74.17 515.62,-76.78 519.48,-82.61"/>
</a>
</g>
</g>
<!-- Node14&#45;&gt;Node3 -->
<g id="edge26_Node000014_Node000003" class="edge">
<title>Node14&#45;&gt;Node3</title>
<g id="a_edge26_Node000014_Node000003"><a xlink:title=" ">
<path fill="none" stroke="#63b8ff" d="M453.87,-219.98C439.16,-211.69 416.55,-198.94 399.3,-189.22"/>
<polygon fill="#63b8ff" stroke="#63b8ff" points="400.78,-186.03 390.35,-184.17 397.34,-192.13 400.78,-186.03"/>
</a>
</g>
</g>
<!-- Node15 -->
<g id="Node000015" class="node">
<title>Node15</title>
<g id="a_Node000015"><a xlink:href="max24287_8h.html" target="_top" xlink:title=" ">
<polygon fill="white" stroke="#666666" points="592.47,-184 515.47,-184 515.47,-165 592.47,-165 592.47,-184"/>
<text text-anchor="middle" x="553.97" y="-172" font-family="Helvetica,sans-Serif" font-size="10.00">max24287.h</text>
</a>
</g>
</g>
<!-- Node14&#45;&gt;Node15 -->
<g id="edge27_Node000014_Node000015" class="edge">
<title>Node14&#45;&gt;Node15</title>
<g id="a_edge27_Node000014_Node000015"><a xlink:title=" ">
<path fill="none" stroke="#63b8ff" d="M482.63,-219.98C495.81,-211.77 516,-199.18 531.54,-189.49"/>
<polygon fill="#63b8ff" stroke="#63b8ff" points="533.43,-192.43 540.07,-184.17 529.73,-186.49 533.43,-192.43"/>
</a>
</g>
</g>
<!-- Node15&#45;&gt;Node6 -->
<g id="edge28_Node000015_Node000006" class="edge">
<title>Node15&#45;&gt;Node6</title>
<g id="a_edge28_Node000015_Node000006"><a xlink:title=" ">
<path fill="none" stroke="#63b8ff" d="M560.53,-164.96C575.52,-144.3 609.22,-90.72 584.97,-55 576.09,-41.91 538.64,-28.77 509.46,-20.19"/>
<polygon fill="#63b8ff" stroke="#63b8ff" points="510.12,-16.74 499.55,-17.36 508.2,-23.47 510.12,-16.74"/>
</a>
</g>
</g>
<!-- Node15&#45;&gt;Node12 -->
<g id="edge29_Node000015_Node000012" class="edge">
<title>Node15&#45;&gt;Node12</title>
<g id="a_edge29_Node000015_Node000012"><a xlink:title=" ">
<path fill="none" stroke="#63b8ff" d="M552.75,-164.66C550.32,-147.17 544.85,-107.8 541.58,-84.27"/>
<polygon fill="#63b8ff" stroke="#63b8ff" points="545.02,-83.58 540.18,-74.16 538.09,-84.54 545.02,-83.58"/>
</a>
</g>
</g>
<!-- Node15&#45;&gt;Node13 -->
<g id="edge30_Node000015_Node000013" class="edge">
<title>Node15&#45;&gt;Node13</title>
<g id="a_edge30_Node000015_Node000013"><a xlink:title=" ">
<path fill="none" stroke="#63b8ff" d="M538.71,-164.98C523.84,-156.69 500.99,-143.94 483.56,-134.22"/>
<polygon fill="#63b8ff" stroke="#63b8ff" points="484.95,-130.99 474.51,-129.17 481.54,-137.1 484.95,-130.99"/>
</a>
</g>
</g>
<!-- Node16&#45;&gt;Node3 -->
<g id="edge37_Node000016_Node000003" class="edge">
<title>Node16&#45;&gt;Node3</title>
<g id="a_edge37_Node000016_Node000003"><a xlink:title=" ">
<path fill="none" stroke="#63b8ff" d="M653.03,-274.96C630.24,-266.35 594.41,-252.44 563.97,-239 546.34,-231.21 542.94,-226.99 524.97,-220 502.82,-211.38 440.83,-193.75 403.84,-183.45"/>
<polygon fill="#63b8ff" stroke="#63b8ff" points="404.7,-180.06 394.12,-180.76 402.83,-186.8 404.7,-180.06"/>
</a>
</g>
</g>
<!-- Node17 -->
<g id="Node000017" class="node">
<title>Node17</title>
<g id="a_Node000017"><a xlink:title=" ">
<polygon fill="#e0e0e0" stroke="#999999" points="628.97,-239 572.97,-239 572.97,-220 628.97,-220 628.97,-239"/>
<text text-anchor="middle" x="600.97" y="-227" font-family="Helvetica,sans-Serif" font-size="10.00">assert.h</text>
</a>
</g>
</g>
<!-- Node16&#45;&gt;Node17 -->
<g id="edge32_Node000016_Node000017" class="edge">
<title>Node16&#45;&gt;Node17</title>
<g id="a_edge32_Node000016_Node000017"><a xlink:title=" ">
<path fill="none" stroke="#63b8ff" d="M663.92,-274.98C652.51,-266.92 635.14,-254.65 621.54,-245.03"/>
<polygon fill="#63b8ff" stroke="#63b8ff" points="623.43,-242.08 613.24,-239.17 619.39,-247.8 623.43,-242.08"/>
</a>
</g>
</g>
<!-- Node18 -->
<g id="Node000018" class="node">
<title>Node18</title>
<g id="a_Node000018"><a xlink:href="no__os__gpio_8h.html" target="_top" xlink:title="Header file of GPIO Interface.">
<polygon fill="white" stroke="#666666" points="712.97,-74 632.97,-74 632.97,-55 712.97,-55 712.97,-74"/>
<text text-anchor="middle" x="672.97" y="-62" font-family="Helvetica,sans-Serif" font-size="10.00">no_os_gpio.h</text>
</a>
</g>
</g>
<!-- Node16&#45;&gt;Node18 -->
<g id="edge33_Node000016_Node000018" class="edge">
<title>Node16&#45;&gt;Node18</title>
<g id="a_edge33_Node000016_Node000018"><a xlink:title=" ">
<path fill="none" stroke="#63b8ff" d="M675.4,-274.99C674.28,-257.8 671.82,-217.72 670.97,-184 670.09,-148.81 671.28,-107.72 672.17,-84.35"/>
<polygon fill="#63b8ff" stroke="#63b8ff" points="675.67,-84.26 672.58,-74.12 668.68,-83.98 675.67,-84.26"/>
</a>
</g>
</g>
<!-- Node19 -->
<g id="Node000019" class="node">
<title>Node19</title>
<g id="a_Node000019"><a xlink:href="no__os__eeprom_8h.html" target="_top" xlink:title="Header file for EEPROM APIs.">
<polygon fill="white" stroke="#666666" points="777.47,-184 680.47,-184 680.47,-165 777.47,-165 777.47,-184"/>
<text text-anchor="middle" x="728.97" y="-172" font-family="Helvetica,sans-Serif" font-size="10.00">no_os_eeprom.h</text>
</a>
</g>
</g>
<!-- Node16&#45;&gt;Node19 -->
<g id="edge35_Node000016_Node000019" class="edge">
<title>Node16&#45;&gt;Node19</title>
<g id="a_edge35_Node000016_Node000019"><a xlink:title=" ">
<path fill="none" stroke="#63b8ff" d="M680.31,-274.66C689.01,-256.93 708.74,-216.73 720.23,-193.32"/>
<polygon fill="#63b8ff" stroke="#63b8ff" points="723.46,-194.68 724.72,-184.16 717.18,-191.59 723.46,-194.68"/>
</a>
</g>
</g>
<!-- Node20 -->
<g id="Node000020" class="node">
<title>Node20</title>
<g id="a_Node000020"><a xlink:href="iio__hmc630x_8h.html" target="_top" xlink:title="Header file of hmc6300 and hmc6301 driver extension for IIOD.">
<polygon fill="white" stroke="#666666" points="810.97,-239 722.97,-239 722.97,-220 810.97,-220 810.97,-239"/>
<text text-anchor="middle" x="766.97" y="-227" font-family="Helvetica,sans-Serif" font-size="10.00">iio_hmc630x.h</text>
</a>
</g>
</g>
<!-- Node16&#45;&gt;Node20 -->
<g id="edge38_Node000016_Node000020" class="edge">
<title>Node16&#45;&gt;Node20</title>
<g id="a_edge38_Node000016_Node000020"><a xlink:title=" ">
<path fill="none" stroke="#63b8ff" d="M690.59,-274.98C704.84,-266.69 726.73,-253.94 743.42,-244.22"/>
<polygon fill="#63b8ff" stroke="#63b8ff" points="745.21,-247.23 752.09,-239.17 741.68,-241.18 745.21,-247.23"/>
</a>
</g>
</g>
<!-- Node21 -->
<g id="Node000021" class="node">
<title>Node21</title>
<g id="a_Node000021"><a xlink:href="hmc630x_8h.html" target="_top" xlink:title="hmc6300 and hmc6301 device driver header.">
<polygon fill="white" stroke="#666666" points="841.47,-129 770.47,-129 770.47,-110 841.47,-110 841.47,-129"/>
<text text-anchor="middle" x="805.97" y="-117" font-family="Helvetica,sans-Serif" font-size="10.00">hmc630x.h</text>
</a>
</g>
</g>
<!-- Node16&#45;&gt;Node21 -->
<g id="edge45_Node000016_Node000021" class="edge">
<title>Node16&#45;&gt;Node21</title>
<g id="a_edge45_Node000016_Node000021"><a xlink:title=" ">
<path fill="none" stroke="#63b8ff" d="M700.51,-284.06C733.84,-283.32 792.4,-276.38 819.97,-239 841.91,-209.26 826.47,-163.41 815.1,-138.36"/>
<polygon fill="#63b8ff" stroke="#63b8ff" points="818.22,-136.78 810.74,-129.28 811.91,-139.81 818.22,-136.78"/>
</a>
</g>
</g>
<!-- Node22 -->
<g id="Node000022" class="node">
<title>Node22</title>
<g id="a_Node000022"><a xlink:href="no__os__pid_8h.html" target="_top" xlink:title="Header file for PID control utility.">
<polygon fill="white" stroke="#666666" points="918.97,-74 844.97,-74 844.97,-55 918.97,-55 918.97,-74"/>
<text text-anchor="middle" x="881.97" y="-62" font-family="Helvetica,sans-Serif" font-size="10.00">no_os_pid.h</text>
</a>
</g>
</g>
<!-- Node16&#45;&gt;Node22 -->
<g id="edge46_Node000016_Node000022" class="edge">
<title>Node16&#45;&gt;Node22</title>
<g id="a_edge46_Node000016_Node000022"><a xlink:title=" ">
<path fill="none" stroke="#63b8ff" d="M700.61,-283.97C736.06,-283.26 801.22,-276.49 837.97,-239 879.8,-196.34 883.62,-119.89 882.93,-84.47"/>
<polygon fill="#63b8ff" stroke="#63b8ff" points="886.41,-84.02 882.57,-74.14 879.42,-84.26 886.41,-84.02"/>
</a>
</g>
</g>
<!-- Node18&#45;&gt;Node6 -->
<g id="edge34_Node000018_Node000006" class="edge">
<title>Node18&#45;&gt;Node6</title>
<g id="a_edge34_Node000018_Node000006"><a xlink:title=" ">
<path fill="none" stroke="#63b8ff" d="M640.84,-54.98C605.01,-45.49 547.17,-30.16 509.61,-20.21"/>
<polygon fill="#63b8ff" stroke="#63b8ff" points="510.15,-16.73 499.59,-17.55 508.36,-23.5 510.15,-16.73"/>
</a>
</g>
</g>
<!-- Node19&#45;&gt;Node6 -->
<g id="edge36_Node000019_Node000006" class="edge">
<title>Node19&#45;&gt;Node6</title>
<g id="a_edge36_Node000019_Node000006"><a xlink:title=" ">
<path fill="none" stroke="#63b8ff" d="M731.7,-164.69C737.83,-142.96 750.06,-86.28 721.97,-55 691.58,-21.15 570.13,-27.76 509.85,-18.96"/>
<polygon fill="#63b8ff" stroke="#63b8ff" points="510.13,-15.46 499.68,-17.19 508.94,-22.35 510.13,-15.46"/>
</a>
</g>
</g>
<!-- Node20&#45;&gt;Node3 -->
<g id="edge39_Node000020_Node000003" class="edge">
<title>Node20&#45;&gt;Node3</title>
<g id="a_edge39_Node000020_Node000003"><a xlink:title=" ">
<path fill="none" stroke="#63b8ff" d="M722.75,-224.87C654.71,-218.86 520.42,-205.36 407.97,-184 406.7,-183.76 405.4,-183.49 404.09,-183.22"/>
<polygon fill="#63b8ff" stroke="#63b8ff" points="404.61,-179.74 394.07,-180.86 403.01,-186.56 404.61,-179.74"/>
</a>
</g>
</g>
<!-- Node20&#45;&gt;Node21 -->
<g id="edge40_Node000020_Node000021" class="edge">
<title>Node20&#45;&gt;Node21</title>
<g id="a_edge40_Node000020_Node000021"><a xlink:title=" ">
<path fill="none" stroke="#63b8ff" d="M771.02,-219.74C775.05,-210.84 781.31,-196.61 785.97,-184 791.49,-169.08 796.86,-151.84 800.64,-139.09"/>
<polygon fill="#63b8ff" stroke="#63b8ff" points="804.08,-139.8 803.52,-129.22 797.36,-137.84 804.08,-139.8"/>
</a>
</g>
</g>
<!-- Node21&#45;&gt;Node5 -->
<g id="edge41_Node000021_Node000005" class="edge">
<title>Node21&#45;&gt;Node5</title>
<g id="a_edge41_Node000021_Node000005"><a xlink:title=" ">
<path fill="none" stroke="#63b8ff" d="M797.64,-109.71C783.55,-95.5 753.49,-67.75 721.97,-55 707.15,-49 491.2,-24.99 399.1,-14.95"/>
<polygon fill="#63b8ff" stroke="#63b8ff" points="399.34,-11.45 389.02,-13.85 398.59,-18.41 399.34,-11.45"/>
</a>
</g>
</g>
<!-- Node21&#45;&gt;Node6 -->
<g id="edge42_Node000021_Node000006" class="edge">
<title>Node21&#45;&gt;Node6</title>
<g id="a_edge42_Node000021_Node000006"><a xlink:title=" ">
<path fill="none" stroke="#63b8ff" d="M807.07,-109.6C808.23,-95.72 808.16,-69.07 792.97,-55 748.25,-13.56 586.25,-28.98 509.85,-18.91"/>
<polygon fill="#63b8ff" stroke="#63b8ff" points="510.08,-15.4 499.66,-17.31 509,-22.32 510.08,-15.4"/>
</a>
</g>
</g>
<!-- Node21&#45;&gt;Node12 -->
<g id="edge43_Node000021_Node000012" class="edge">
<title>Node21&#45;&gt;Node12</title>
<g id="a_edge43_Node000021_Node000012"><a xlink:title=" ">
<path fill="none" stroke="#63b8ff" d="M770.24,-111.41C722.95,-102.02 639.42,-85.44 586.75,-74.98"/>
<polygon fill="#63b8ff" stroke="#63b8ff" points="587.13,-71.49 576.64,-72.98 585.77,-78.36 587.13,-71.49"/>
</a>
</g>
</g>
<!-- Node21&#45;&gt;Node18 -->
<g id="edge44_Node000021_Node000018" class="edge">
<title>Node21&#45;&gt;Node18</title>
<g id="a_edge44_Node000021_Node000018"><a xlink:title=" ">
<path fill="none" stroke="#63b8ff" d="M784.6,-109.98C762.82,-101.3 728.81,-87.75 704.05,-77.88"/>
<polygon fill="#63b8ff" stroke="#63b8ff" points="705.32,-74.62 694.73,-74.17 702.72,-81.12 705.32,-74.62"/>
</a>
</g>
</g>
<!-- Node22&#45;&gt;Node6 -->
<g id="edge49_Node000022_Node000006" class="edge">
<title>Node22&#45;&gt;Node6</title>
<g id="a_edge49_Node000022_Node000006"><a xlink:title=" ">
<path fill="none" stroke="#63b8ff" d="M844.96,-57.09C840.26,-56.35 835.51,-55.63 830.97,-55 691.12,-35.57 651.97,-43.71 509.63,-19.1"/>
<polygon fill="#63b8ff" stroke="#63b8ff" points="510.11,-15.63 499.65,-17.35 508.9,-22.52 510.11,-15.63"/>
</a>
</g>
</g>
<!-- Node22&#45;&gt;Node10 -->
<g id="edge47_Node000022_Node000010" class="edge">
<title>Node22&#45;&gt;Node10</title>
<g id="a_edge47_Node000022_Node000010"><a xlink:title=" ">
<path fill="none" stroke="#63b8ff" d="M844.93,-57.28C840.24,-56.5 835.49,-55.73 830.97,-55 741.13,-40.55 635.33,-24.36 580.72,-16.06"/>
<polygon fill="#63b8ff" stroke="#63b8ff" points="580.91,-12.55 570.5,-14.51 579.86,-19.47 580.91,-12.55"/>
</a>
</g>
</g>
<!-- Node23 -->
<g id="Node000023" class="node">
<title>Node23</title>
<g id="a_Node000023"><a xlink:title=" ">
<polygon fill="#e0e0e0" stroke="#999999" points="906.97,-19 856.97,-19 856.97,0 906.97,0 906.97,-19"/>
<text text-anchor="middle" x="881.97" y="-7" font-family="Helvetica,sans-Serif" font-size="10.00">stdio.h</text>
</a>
</g>
</g>
<!-- Node22&#45;&gt;Node23 -->
<g id="edge48_Node000022_Node000023" class="edge">
<title>Node22&#45;&gt;Node23</title>
<g id="a_edge48_Node000022_Node000023"><a xlink:title=" ">
<path fill="none" stroke="#63b8ff" d="M881.97,-54.75C881.97,-47.8 881.97,-37.85 881.97,-29.13"/>
<polygon fill="#63b8ff" stroke="#63b8ff" points="885.47,-29.09 881.97,-19.09 878.47,-29.09 885.47,-29.09"/>
</a>
</g>
</g>
</g>
</svg>
