<?xml version="1.0" encoding="UTF-8" standalone="no"?>
<!DOCTYPE svg PUBLIC "-//W3C//DTD SVG 1.1//EN"
 "http://www.w3.org/Graphics/SVG/1.1/DTD/svg11.dtd">
<!-- Generated by graphviz version 2.43.0 (0)
 -->
<!-- Title: nhd_c12832a1z_write_cmd Pages: 1 -->
<!--zoomable 124 -->

<svg id="main" version="1.1" xmlns="http://www.w3.org/2000/svg" xmlns:xlink="http://www.w3.org/1999/xlink" xml:space="preserve" onload="init(evt)">

<style type="text/css"><![CDATA[
.node, .edge {opacity: 0.7;}
.node.selected, .edge.selected {opacity: 1;}
.edge:hover path { stroke: red; }
.edge:hover polygon { stroke: red; fill: red; }
]]></style>

<defs>
  <circle id="rim" cx="0" cy="0" r="7"/>
  <circle id="rim2" cx="0" cy="0" r="3.5"/>
  <g id="zoomPlus">
    <use xlink:href="#rim" fill="#404040"><set attributeName="fill" to="#808080" begin="zoomplus.mouseover" end="zoomplus.mouseout"/></use>
    <path d="M-4,0h8M0,-4v8" fill="none" stroke="white" stroke-width="1.5" pointer-events="none"/>
  </g>
  <g id="zoomMin">
    <use xlink:href="#rim" fill="#404040"><set attributeName="fill" to="#808080" begin="zoomminus.mouseover" end="zoomminus.mouseout"/></use>
    <path d="M-4,0h8" fill="none" stroke="white" stroke-width="1.5" pointer-events="none"/>
  </g>
  <g id="arrowUp" transform="translate(30 24)">
    <use xlink:href="#rim"/>
    <path pointer-events="none" fill="none" stroke="white" stroke-width="1.5" d="M0,-3.0v7 M-2.5,-0.5L0,-3.0L2.5,-0.5"/>
  </g>
  <g id="arrowRight" transform="rotate(90) translate(36 -43)">
    <use xlink:href="#rim"/>
    <path pointer-events="none" fill="none" stroke="white" stroke-width="1.5" d="M0,-3.0v7 M-2.5,-0.5L0,-3.0L2.5,-0.5"/>
  </g>
  <g id="arrowDown" transform="rotate(180) translate(-30 -48)">
    <use xlink:href="#rim"/>
    <path pointer-events="none" fill="none" stroke="white" stroke-width="1.5" d="M0,-3.0v7 M-2.5,-0.5L0,-3.0L2.5,-0.5"/>
  </g>
  <g id="arrowLeft" transform="rotate(270) translate(-36 17)">
    <use xlink:href="#rim"/>
    <path pointer-events="none" fill="none" stroke="white" stroke-width="1.5" d="M0,-3.0v7 M-2.5,-0.5L0,-3.0L2.5,-0.5"/>
  </g>
  <g id="resetDef">
    <use xlink:href="#rim2" fill="#404040"><set attributeName="fill" to="#808080" begin="reset.mouseover" end="reset.mouseout"/></use>
  </g>
</defs>
<script type="application/ecmascript">
var viewWidth = 839;
var viewHeight = 124;
var sectionId = 'dynsection-5';
</script>
<script type="application/ecmascript" xlink:href="svg.min.js"/>
<svg id="graph" class="graph">
<g id="viewport">
<title>nhd_c12832a1z_write_cmd</title>
<!-- Node1 -->
<g id="Node000001" class="node">
<title>Node1</title>
<g id="a_Node000001"><a xlink:title="nhd_c12832a1z write command.">
<polygon fill="#999999" stroke="#666666" points="831,-57 682,-57 682,-38 831,-38 831,-57"/>
<text text-anchor="middle" x="756.5" y="-45" font-family="Helvetica,sans-Serif" font-size="10.00">nhd_c12832a1z_write_cmd</text>
</a>
</g>
</g>
<!-- Node2 -->
<g id="Node000002" class="node">
<title>Node2</title>
<g id="a_Node000002"><a xlink:href="nhd__c12832a1z_8c.html#af4d7416ecda76c826ce4213ebf20153c" target="_top" xlink:title="nhd_c12832a1z clear LCD.">
<polygon fill="white" stroke="#666666" points="646,-19 505,-19 505,0 646,0 646,-19"/>
<text text-anchor="middle" x="575.5" y="-7" font-family="Helvetica,sans-Serif" font-size="10.00">nhd_c12832a1z_clear_lcd</text>
</a>
</g>
</g>
<!-- Node1&#45;&gt;Node2 -->
<g id="edge1_Node000001_Node000002" class="edge">
<title>Node1&#45;&gt;Node2</title>
<g id="a_edge1_Node000001_Node000002"><a xlink:title=" ">
<path fill="none" stroke="#63b8ff" d="M700.48,-35.82C675.09,-30.43 645.34,-24.11 621.34,-19.02"/>
<polygon fill="#63b8ff" stroke="#63b8ff" points="699.82,-39.26 710.33,-37.91 701.28,-32.41 699.82,-39.26"/>
</a>
</g>
</g>
<!-- Node3 -->
<g id="Node000003" class="node">
<title>Node3</title>
<g id="a_Node000003"><a xlink:href="nhd__c12832a1z_8c.html#a2bf6b2b56cebe2f0b4d5a759a92e2610" target="_top" xlink:title="Initializes nhd_c12832a1z for display screening.">
<polygon fill="white" stroke="#666666" points="469,-40 356,-40 356,-21 469,-21 469,-40"/>
<text text-anchor="middle" x="412.5" y="-28" font-family="Helvetica,sans-Serif" font-size="10.00">nhd_c12832a1z_init</text>
</a>
</g>
</g>
<!-- Node1&#45;&gt;Node3 -->
<g id="edge7_Node000001_Node000003" class="edge">
<title>Node1&#45;&gt;Node3</title>
<g id="a_edge7_Node000001_Node000003"><a xlink:title=" ">
<path fill="none" stroke="#63b8ff" d="M671.4,-43.32C608.4,-40.19 523.97,-35.99 469.16,-33.27"/>
<polygon fill="#63b8ff" stroke="#63b8ff" points="671.55,-46.83 681.71,-43.83 671.9,-39.84 671.55,-46.83"/>
</a>
</g>
</g>
<!-- Node8 -->
<g id="Node000008" class="node">
<title>Node8</title>
<g id="a_Node000008"><a xlink:href="nhd__c12832a1z_8c.html#af682c0304f8b42355bb0d0ac431a34f9" target="_top" xlink:title="nhd_c12832a1z print string on LCD.">
<polygon fill="white" stroke="#666666" points="635.5,-105.5 515.5,-105.5 515.5,-75.5 635.5,-75.5 635.5,-105.5"/>
<text text-anchor="start" x="523.5" y="-93.5" font-family="Helvetica,sans-Serif" font-size="10.00">nhd_c12832a1z_print</text>
<text text-anchor="middle" x="575.5" y="-82.5" font-family="Helvetica,sans-Serif" font-size="10.00">_string</text>
</a>
</g>
</g>
<!-- Node1&#45;&gt;Node8 -->
<g id="edge8_Node000001_Node000008" class="edge">
<title>Node1&#45;&gt;Node8</title>
<g id="a_edge8_Node000001_Node000008"><a xlink:title=" ">
<path fill="none" stroke="#63b8ff" d="M705.79,-59.44C684.11,-64.65 658.51,-70.8 635.84,-76.25"/>
<polygon fill="#63b8ff" stroke="#63b8ff" points="706.87,-62.78 715.77,-57.04 705.23,-55.98 706.87,-62.78"/>
</a>
</g>
</g>
<!-- Node2&#45;&gt;Node3 -->
<g id="edge2_Node000002_Node000003" class="edge">
<title>Node2&#45;&gt;Node3</title>
<g id="a_edge2_Node000002_Node000003"><a xlink:title=" ">
<path fill="none" stroke="#63b8ff" d="M494.73,-19.91C486.11,-21.03 477.48,-22.16 469.23,-23.23"/>
<polygon fill="#63b8ff" stroke="#63b8ff" points="495.36,-23.35 504.82,-18.59 494.45,-16.41 495.36,-23.35"/>
</a>
</g>
</g>
<!-- Node4 -->
<g id="Node000004" class="node">
<title>Node4</title>
<g id="a_Node000004"><a xlink:href="iot__example_8c.html#ac25cbf8ae523e89cb0617e68c98bc697" target="_top" xlink:title="Main function execution for maxim platform.">
<polygon fill="white" stroke="#666666" points="320,-106 231,-106 231,-87 320,-87 320,-106"/>
<text text-anchor="middle" x="275.5" y="-94" font-family="Helvetica,sans-Serif" font-size="10.00">example_main</text>
</a>
</g>
</g>
<!-- Node3&#45;&gt;Node4 -->
<g id="edge3_Node000003_Node000004" class="edge">
<title>Node3&#45;&gt;Node4</title>
<g id="a_edge3_Node000003_Node000004"><a xlink:title=" ">
<path fill="none" stroke="#63b8ff" d="M382.84,-44.51C356.76,-57.26 318.96,-75.74 296.15,-86.89"/>
<polygon fill="#63b8ff" stroke="#63b8ff" points="384.42,-47.63 391.87,-40.1 381.35,-41.34 384.42,-47.63"/>
</a>
</g>
</g>
<!-- Node5 -->
<g id="Node000005" class="node">
<title>Node5</title>
<g id="a_Node000005"><a xlink:href="afe__config_8c.html#a57001d5560116af60a9c859543bb5ebf" target="_top" xlink:title="Initialize LCD screen and text.">
<polygon fill="white" stroke="#666666" points="301.5,-59 249.5,-59 249.5,-40 301.5,-40 301.5,-59"/>
<text text-anchor="middle" x="275.5" y="-47" font-family="Helvetica,sans-Serif" font-size="10.00">init_lcd</text>
</a>
</g>
</g>
<!-- Node3&#45;&gt;Node5 -->
<g id="edge4_Node000003_Node000005" class="edge">
<title>Node3&#45;&gt;Node5</title>
<g id="a_edge4_Node000003_Node000005"><a xlink:title=" ">
<path fill="none" stroke="#63b8ff" d="M345.54,-39.78C329.84,-41.99 314.03,-44.22 301.5,-45.98"/>
<polygon fill="#63b8ff" stroke="#63b8ff" points="346.4,-43.2 355.81,-38.34 345.42,-36.27 346.4,-43.2"/>
</a>
</g>
</g>
<!-- Node6 -->
<g id="Node000006" class="node">
<title>Node6</title>
<g id="a_Node000006"><a xlink:href="eval-pqmon_2src_2examples_2basic_2basic__example_8c.html#a1681c88b1933ada9b895fe6c81a8aac6" target="_top" xlink:title="PQM example main execution.">
<polygon fill="white" stroke="#666666" points="195,-59 77,-59 77,-40 195,-40 195,-59"/>
<text text-anchor="middle" x="136" y="-47" font-family="Helvetica,sans-Serif" font-size="10.00">basic_pqm_firmware</text>
</a>
</g>
</g>
<!-- Node5&#45;&gt;Node6 -->
<g id="edge5_Node000005_Node000006" class="edge">
<title>Node5&#45;&gt;Node6</title>
<g id="a_edge5_Node000005_Node000006"><a xlink:title=" ">
<path fill="none" stroke="#63b8ff" d="M239.08,-49.5C225.69,-49.5 210.08,-49.5 195.15,-49.5"/>
<polygon fill="#63b8ff" stroke="#63b8ff" points="239.28,-53 249.28,-49.5 239.28,-46 239.28,-53"/>
</a>
</g>
</g>
<!-- Node7 -->
<g id="Node000007" class="node">
<title>Node7</title>
<g id="a_Node000007"><a xlink:href="eval-pqmon_2src_2platform_2maxim_2main_8c.html#ae66f6b31b5ad750f1fe042a706a4e3d4" target="_top" xlink:title="Main function that executes on Maxim platform.">
<polygon fill="white" stroke="#666666" points="41,-59 0,-59 0,-40 41,-40 41,-59"/>
<text text-anchor="middle" x="20.5" y="-47" font-family="Helvetica,sans-Serif" font-size="10.00">main</text>
</a>
</g>
</g>
<!-- Node6&#45;&gt;Node7 -->
<g id="edge6_Node000006_Node000007" class="edge">
<title>Node6&#45;&gt;Node7</title>
<g id="a_edge6_Node000006_Node000007"><a xlink:title=" ">
<path fill="none" stroke="#63b8ff" d="M66.73,-49.5C57.45,-49.5 48.6,-49.5 41.23,-49.5"/>
<polygon fill="#63b8ff" stroke="#63b8ff" points="66.92,-53 76.92,-49.5 66.92,-46 66.92,-53"/>
</a>
</g>
</g>
<!-- Node8&#45;&gt;Node5 -->
<g id="edge9_Node000008_Node000005" class="edge">
<title>Node8&#45;&gt;Node5</title>
<g id="a_edge9_Node000008_Node000005"><a xlink:title=" ">
<path fill="none" stroke="#63b8ff" d="M505.07,-80.95C439.9,-71.98 346,-59.06 301.59,-52.95"/>
<polygon fill="#63b8ff" stroke="#63b8ff" points="504.88,-84.45 515.27,-82.35 505.84,-77.52 504.88,-84.45"/>
</a>
</g>
</g>
<!-- Node9 -->
<g id="Node000009" class="node">
<title>Node9</title>
<g id="a_Node000009"><a xlink:href="iot__example_8c.html#af63cfd0ea49a83c85fbec01fa6b99ed7" target="_top" xlink:title=" ">
<polygon fill="white" stroke="#666666" points="457.5,-116 367.5,-116 367.5,-97 457.5,-97 457.5,-116"/>
<text text-anchor="middle" x="412.5" y="-104" font-family="Helvetica,sans-Serif" font-size="10.00">read_and_send</text>
</a>
</g>
</g>
<!-- Node8&#45;&gt;Node9 -->
<g id="edge10_Node000008_Node000009" class="edge">
<title>Node8&#45;&gt;Node9</title>
<g id="a_edge10_Node000008_Node000009"><a xlink:title=" ">
<path fill="none" stroke="#63b8ff" d="M505.48,-97.36C489.27,-98.97 472.42,-100.64 457.65,-102.11"/>
<polygon fill="#63b8ff" stroke="#63b8ff" points="505.86,-100.84 515.46,-96.37 505.17,-93.87 505.86,-100.84"/>
</a>
</g>
</g>
<!-- Node9&#45;&gt;Node4 -->
<g id="edge11_Node000009_Node000004" class="edge">
<title>Node9&#45;&gt;Node4</title>
<g id="a_edge11_Node000009_Node000004"><a xlink:title=" ">
<path fill="none" stroke="#63b8ff" d="M357.19,-102.48C344.94,-101.57 332.09,-100.62 320.34,-99.75"/>
<polygon fill="#63b8ff" stroke="#63b8ff" points="357.06,-105.98 367.3,-103.23 357.58,-99 357.06,-105.98"/>
</a>
</g>
</g>
</g>
</svg>

<g id="navigator" transform="translate(0 0)" fill="#404254">
  <rect fill="#f2f5e9" fill-opacity="0.5" stroke="#606060" stroke-width=".5" x="0" y="0" width="60" height="60"/>
  <use id="zoomplus" xlink:href="#zoomPlus" x="17" y="9" onmousedown="handleZoom(evt,'in')"/>
  <use id="zoomminus" xlink:href="#zoomMin" x="42" y="9" onmousedown="handleZoom(evt,'out')"/>
  <use id="reset" xlink:href="#resetDef" x="30" y="36" onmousedown="handleReset()"/>
   <use id="arrowup" xlink:href="#arrowUp" x="0" y="0" onmousedown="handlePan(0,-1)"/>
  <use id="arrowright" xlink:href="#arrowRight" x="0" y="0" onmousedown="handlePan(1,0)"/>
  <use id="arrowdown" xlink:href="#arrowDown" x="0" y="0" onmousedown="handlePan(0,1)"/>
  <use id="arrowleft" xlink:href="#arrowLeft" x="0" y="0" onmousedown="handlePan(-1,0)"/>
</g>
<svg viewBox="0 0 15 15" width="100%" height="30px" preserveAspectRatio="xMaxYMin meet">
 <g id="arrow_out" transform="scale(0.3 0.3)">
  <a xlink:href="nhd__c12832a1z_8c_a66c740f0ff69140d5fc082744bb072c3_icgraph_org.svg" target="_base">
   <rect id="button" ry="5" rx="5" y="6" x="6" height="38" width="38"
        fill="#f2f5e9" fill-opacity="0.5" stroke="#606060" stroke-width="1.0"/>
   <path id="arrow"
     d="M 11.500037,31.436501 C 11.940474,20.09759 22.043105,11.32322 32.158766,21.979434 L 37.068811,17.246167 C 37.068811,17.246167 37.088388,32 37.088388,32 L 22.160133,31.978069 C 22.160133,31.978069 26.997745,27.140456 26.997745,27.140456 C 18.528582,18.264221 13.291696,25.230495 11.500037,31.436501 z"
     style="fill:#404040;"/>
  </a>
 </g>
</svg>

<style type='text/css'>
<![CDATA[
[data-mouse-over-selected='false'] { opacity: 0.7; }
[data-mouse-over-selected='true']  { opacity: 1.0; }
]]>
</style>
<script type="application/ecmascript"><![CDATA[
document.addEventListener('DOMContentLoaded', (event) => {
  highlightEdges();
  highlightAdjacentNodes();
});
]]></script>
</svg>
