<?xml version="1.0" encoding="UTF-8" standalone="no"?>
<!DOCTYPE svg PUBLIC "-//W3C//DTD SVG 1.1//EN"
 "http://www.w3.org/Graphics/SVG/1.1/DTD/svg11.dtd">
<!-- Generated by graphviz version 2.43.0 (0)
 -->
<!-- Title: drivers/display/nhd_c12832a1z/nhd_c12832a1z.c Pages: 1 -->
<svg width="540pt" height="203pt"
 viewBox="0.00 0.00 540.00 203.00" xmlns="http://www.w3.org/2000/svg" xmlns:xlink="http://www.w3.org/1999/xlink">
<g id="graph0" class="graph" transform="scale(1 1) rotate(0) translate(4 199)">
<title>drivers/display/nhd_c12832a1z/nhd_c12832a1z.c</title>
<!-- Node1 -->
<g id="Node000001" class="node">
<title>Node1</title>
<g id="a_Node000001"><a xlink:title="Implementation of nhd_c12832a1z Driver.">
<polygon fill="#999999" stroke="#666666" points="349.5,-195 188.5,-195 188.5,-165 349.5,-165 349.5,-195"/>
<text text-anchor="start" x="196.5" y="-183" font-family="Helvetica,sans-Serif" font-size="10.00">drivers/display/nhd</text>
<text text-anchor="middle" x="269" y="-172" font-family="Helvetica,sans-Serif" font-size="10.00">_c12832a1z/nhd_c12832a1z.c</text>
</a>
</g>
</g>
<!-- Node2 -->
<g id="Node000002" class="node">
<title>Node2</title>
<g id="a_Node000002"><a xlink:title=" ">
<polygon fill="#e0e0e0" stroke="#999999" points="62,-129 0,-129 0,-110 62,-110 62,-129"/>
<text text-anchor="middle" x="31" y="-117" font-family="Helvetica,sans-Serif" font-size="10.00">stdbool.h</text>
</a>
</g>
</g>
<!-- Node1&#45;&gt;Node2 -->
<g id="edge1_Node000001_Node000002" class="edge">
<title>Node1&#45;&gt;Node2</title>
<g id="a_edge1_Node000001_Node000002"><a xlink:title=" ">
<path fill="none" stroke="#63b8ff" d="M211.99,-164.99C168.82,-154.38 110.54,-140.05 71.91,-130.56"/>
<polygon fill="#63b8ff" stroke="#63b8ff" points="72.6,-127.12 62.06,-128.13 70.93,-133.92 72.6,-127.12"/>
</a>
</g>
</g>
<!-- Node3 -->
<g id="Node000003" class="node">
<title>Node3</title>
<g id="a_Node000003"><a xlink:href="nhd__c12832a1z_8h.html" target="_top" xlink:title="Header file of nhd_c12832a1z.">
<polygon fill="white" stroke="#666666" points="319.5,-129 218.5,-129 218.5,-110 319.5,-110 319.5,-129"/>
<text text-anchor="middle" x="269" y="-117" font-family="Helvetica,sans-Serif" font-size="10.00">nhd_c12832a1z.h</text>
</a>
</g>
</g>
<!-- Node1&#45;&gt;Node3 -->
<g id="edge2_Node000001_Node000003" class="edge">
<title>Node1&#45;&gt;Node3</title>
<g id="a_edge2_Node000001_Node000003"><a xlink:title=" ">
<path fill="none" stroke="#63b8ff" d="M269,-164.84C269,-157.21 269,-147.7 269,-139.45"/>
<polygon fill="#63b8ff" stroke="#63b8ff" points="272.5,-139.27 269,-129.27 265.5,-139.27 272.5,-139.27"/>
</a>
</g>
</g>
<!-- Node7 -->
<g id="Node000007" class="node">
<title>Node7</title>
<g id="a_Node000007"><a xlink:href="no__os__error_8h.html" target="_top" xlink:title="Error codes definition.">
<polygon fill="white" stroke="#666666" points="200,-129 118,-129 118,-110 200,-110 200,-129"/>
<text text-anchor="middle" x="159" y="-117" font-family="Helvetica,sans-Serif" font-size="10.00">no_os_error.h</text>
</a>
</g>
</g>
<!-- Node1&#45;&gt;Node7 -->
<g id="edge7_Node000001_Node000007" class="edge">
<title>Node1&#45;&gt;Node7</title>
<g id="a_edge7_Node000001_Node000007"><a xlink:title=" ">
<path fill="none" stroke="#63b8ff" d="M242.65,-164.99C224.95,-155.58 201.77,-143.24 184.29,-133.95"/>
<polygon fill="#63b8ff" stroke="#63b8ff" points="185.72,-130.74 175.24,-129.14 182.43,-136.92 185.72,-130.74"/>
</a>
</g>
</g>
<!-- Node9 -->
<g id="Node000009" class="node">
<title>Node9</title>
<g id="a_Node000009"><a xlink:href="no__os__spi_8h.html" target="_top" xlink:title="Header file of SPI Interface.">
<polygon fill="white" stroke="#666666" points="532,-74 458,-74 458,-55 532,-55 532,-74"/>
<text text-anchor="middle" x="495" y="-62" font-family="Helvetica,sans-Serif" font-size="10.00">no_os_spi.h</text>
</a>
</g>
</g>
<!-- Node1&#45;&gt;Node9 -->
<g id="edge9_Node000001_Node000009" class="edge">
<title>Node1&#45;&gt;Node9</title>
<g id="a_edge9_Node000001_Node000009"><a xlink:title=" ">
<path fill="none" stroke="#63b8ff" d="M338.98,-164.95C368.42,-157.14 402.22,-145.56 430,-129 450.65,-116.69 469.75,-96.54 481.82,-82.24"/>
<polygon fill="#63b8ff" stroke="#63b8ff" points="484.76,-84.17 488.38,-74.22 479.34,-79.74 484.76,-84.17"/>
</a>
</g>
</g>
<!-- Node10 -->
<g id="Node000010" class="node">
<title>Node10</title>
<g id="a_Node000010"><a xlink:href="no__os__delay_8h.html" target="_top" xlink:title="Header file of Delay functions.">
<polygon fill="white" stroke="#666666" points="94.5,-74 9.5,-74 9.5,-55 94.5,-55 94.5,-74"/>
<text text-anchor="middle" x="52" y="-62" font-family="Helvetica,sans-Serif" font-size="10.00">no_os_delay.h</text>
</a>
</g>
</g>
<!-- Node1&#45;&gt;Node10 -->
<g id="edge11_Node000001_Node000010" class="edge">
<title>Node1&#45;&gt;Node10</title>
<g id="a_edge11_Node000001_Node000010"><a xlink:title=" ">
<path fill="none" stroke="#63b8ff" d="M195.71,-164.9C167.15,-157.22 135.08,-145.75 109,-129 90.19,-116.91 73.74,-97 63.42,-82.7"/>
<polygon fill="#63b8ff" stroke="#63b8ff" points="66.13,-80.47 57.55,-74.25 60.38,-84.46 66.13,-80.47"/>
</a>
</g>
</g>
<!-- Node11 -->
<g id="Node000011" class="node">
<title>Node11</title>
<g id="a_Node000011"><a xlink:href="no__os__alloc_8h.html" target="_top" xlink:title=" ">
<polygon fill="white" stroke="#666666" points="420.5,-129 337.5,-129 337.5,-110 420.5,-110 420.5,-129"/>
<text text-anchor="middle" x="379" y="-117" font-family="Helvetica,sans-Serif" font-size="10.00">no_os_alloc.h</text>
</a>
</g>
</g>
<!-- Node1&#45;&gt;Node11 -->
<g id="edge13_Node000001_Node000011" class="edge">
<title>Node1&#45;&gt;Node11</title>
<g id="a_edge13_Node000001_Node000011"><a xlink:title=" ">
<path fill="none" stroke="#63b8ff" d="M295.35,-164.99C313.05,-155.58 336.23,-143.24 353.71,-133.95"/>
<polygon fill="#63b8ff" stroke="#63b8ff" points="355.57,-136.92 362.76,-129.14 352.28,-130.74 355.57,-136.92"/>
</a>
</g>
</g>
<!-- Node13 -->
<g id="Node000013" class="node">
<title>Node13</title>
<g id="a_Node000013"><a xlink:title=" ">
<polygon fill="#e0e0e0" stroke="#999999" points="530.5,-129 477.5,-129 477.5,-110 530.5,-110 530.5,-129"/>
<text text-anchor="middle" x="504" y="-117" font-family="Helvetica,sans-Serif" font-size="10.00">string.h</text>
</a>
</g>
</g>
<!-- Node1&#45;&gt;Node13 -->
<g id="edge16_Node000001_Node000013" class="edge">
<title>Node1&#45;&gt;Node13</title>
<g id="a_edge16_Node000001_Node000013"><a xlink:title=" ">
<path fill="none" stroke="#63b8ff" d="M325.29,-164.99C369.35,-154.02 429.34,-139.08 467.38,-129.62"/>
<polygon fill="#63b8ff" stroke="#63b8ff" points="468.63,-132.91 477.49,-127.1 466.94,-126.12 468.63,-132.91"/>
</a>
</g>
</g>
<!-- Node4 -->
<g id="Node000004" class="node">
<title>Node4</title>
<g id="a_Node000004"><a xlink:title=" ">
<polygon fill="#e0e0e0" stroke="#999999" points="282.5,-19 229.5,-19 229.5,0 282.5,0 282.5,-19"/>
<text text-anchor="middle" x="256" y="-7" font-family="Helvetica,sans-Serif" font-size="10.00">stdint.h</text>
</a>
</g>
</g>
<!-- Node3&#45;&gt;Node4 -->
<g id="edge3_Node000003_Node000004" class="edge">
<title>Node3&#45;&gt;Node4</title>
<g id="a_edge3_Node000003_Node000004"><a xlink:title=" ">
<path fill="none" stroke="#63b8ff" d="M270.33,-109.8C271.97,-97.51 274.18,-74.37 271,-55 269.53,-46.05 266.51,-36.47 263.56,-28.51"/>
<polygon fill="#63b8ff" stroke="#63b8ff" points="266.79,-27.16 259.86,-19.15 260.28,-29.74 266.79,-27.16"/>
</a>
</g>
</g>
<!-- Node5 -->
<g id="Node000005" class="node">
<title>Node5</title>
<g id="a_Node000005"><a xlink:title=" ">
<polygon fill="#e0e0e0" stroke="#999999" points="371.5,-74 318.5,-74 318.5,-55 371.5,-55 371.5,-74"/>
<text text-anchor="middle" x="345" y="-62" font-family="Helvetica,sans-Serif" font-size="10.00">stdlib.h</text>
</a>
</g>
</g>
<!-- Node3&#45;&gt;Node5 -->
<g id="edge4_Node000003_Node000005" class="edge">
<title>Node3&#45;&gt;Node5</title>
<g id="a_edge4_Node000003_Node000005"><a xlink:title=" ">
<path fill="none" stroke="#63b8ff" d="M281.21,-109.98C292.78,-101.92 310.38,-89.65 324.16,-80.03"/>
<polygon fill="#63b8ff" stroke="#63b8ff" points="326.37,-82.76 332.57,-74.17 322.36,-77.02 326.37,-82.76"/>
</a>
</g>
</g>
<!-- Node6 -->
<g id="Node000006" class="node">
<title>Node6</title>
<g id="a_Node000006"><a xlink:href="no__os__gpio_8h.html" target="_top" xlink:title="Header file of GPIO Interface.">
<polygon fill="white" stroke="#666666" points="262,-74 182,-74 182,-55 262,-55 262,-74"/>
<text text-anchor="middle" x="222" y="-62" font-family="Helvetica,sans-Serif" font-size="10.00">no_os_gpio.h</text>
</a>
</g>
</g>
<!-- Node3&#45;&gt;Node6 -->
<g id="edge5_Node000003_Node000006" class="edge">
<title>Node3&#45;&gt;Node6</title>
<g id="a_edge5_Node000003_Node000006"><a xlink:title=" ">
<path fill="none" stroke="#63b8ff" d="M261.24,-109.75C254.53,-102.18 244.66,-91.05 236.49,-81.84"/>
<polygon fill="#63b8ff" stroke="#63b8ff" points="238.87,-79.25 229.62,-74.09 233.63,-83.89 238.87,-79.25"/>
</a>
</g>
</g>
<!-- Node6&#45;&gt;Node4 -->
<g id="edge6_Node000006_Node000004" class="edge">
<title>Node6&#45;&gt;Node4</title>
<g id="a_edge6_Node000006_Node000004"><a xlink:title=" ">
<path fill="none" stroke="#63b8ff" d="M227.61,-54.75C232.32,-47.42 239.17,-36.73 244.97,-27.7"/>
<polygon fill="#63b8ff" stroke="#63b8ff" points="248.04,-29.4 250.49,-19.09 242.14,-25.62 248.04,-29.4"/>
</a>
</g>
</g>
<!-- Node8 -->
<g id="Node000008" class="node">
<title>Node8</title>
<g id="a_Node000008"><a xlink:href="errno_8h.html" target="_top" xlink:title="Error macro definition for ARM Compiler.">
<polygon fill="white" stroke="#666666" points="163.5,-74 112.5,-74 112.5,-55 163.5,-55 163.5,-74"/>
<text text-anchor="middle" x="138" y="-62" font-family="Helvetica,sans-Serif" font-size="10.00">errno.h</text>
</a>
</g>
</g>
<!-- Node7&#45;&gt;Node8 -->
<g id="edge8_Node000007_Node000008" class="edge">
<title>Node7&#45;&gt;Node8</title>
<g id="a_edge8_Node000007_Node000008"><a xlink:title=" ">
<path fill="none" stroke="#63b8ff" d="M155.53,-109.75C152.72,-102.65 148.66,-92.4 145.15,-83.56"/>
<polygon fill="#63b8ff" stroke="#63b8ff" points="148.34,-82.1 141.4,-74.09 141.83,-84.68 148.34,-82.1"/>
</a>
</g>
</g>
<!-- Node9&#45;&gt;Node4 -->
<g id="edge10_Node000009_Node000004" class="edge">
<title>Node9&#45;&gt;Node4</title>
<g id="a_edge10_Node000009_Node000004"><a xlink:title=" ">
<path fill="none" stroke="#63b8ff" d="M457.92,-55.28C412.91,-45.3 337.49,-28.57 292.67,-18.63"/>
<polygon fill="#63b8ff" stroke="#63b8ff" points="293.31,-15.19 282.78,-16.44 291.79,-22.02 293.31,-15.19"/>
</a>
</g>
</g>
<!-- Node10&#45;&gt;Node4 -->
<g id="edge12_Node000010_Node000004" class="edge">
<title>Node10&#45;&gt;Node4</title>
<g id="a_edge12_Node000010_Node000004"><a xlink:title=" ">
<path fill="none" stroke="#63b8ff" d="M84.78,-54.98C121.69,-45.4 181.49,-29.86 219.77,-19.91"/>
<polygon fill="#63b8ff" stroke="#63b8ff" points="220.68,-23.29 229.48,-17.39 218.92,-16.52 220.68,-23.29"/>
</a>
</g>
</g>
<!-- Node11&#45;&gt;Node5 -->
<g id="edge15_Node000011_Node000005" class="edge">
<title>Node11&#45;&gt;Node5</title>
<g id="a_edge15_Node000011_Node000005"><a xlink:title=" ">
<path fill="none" stroke="#63b8ff" d="M373.39,-109.75C368.68,-102.42 361.83,-91.73 356.03,-82.7"/>
<polygon fill="#63b8ff" stroke="#63b8ff" points="358.86,-80.62 350.51,-74.09 352.96,-84.4 358.86,-80.62"/>
</a>
</g>
</g>
<!-- Node12 -->
<g id="Node000012" class="node">
<title>Node12</title>
<g id="a_Node000012"><a xlink:title=" ">
<polygon fill="#e0e0e0" stroke="#999999" points="440,-74 390,-74 390,-55 440,-55 440,-74"/>
<text text-anchor="middle" x="415" y="-62" font-family="Helvetica,sans-Serif" font-size="10.00">stdio.h</text>
</a>
</g>
</g>
<!-- Node11&#45;&gt;Node12 -->
<g id="edge14_Node000011_Node000012" class="edge">
<title>Node11&#45;&gt;Node12</title>
<g id="a_edge14_Node000011_Node000012"><a xlink:title=" ">
<path fill="none" stroke="#63b8ff" d="M384.94,-109.75C389.98,-102.34 397.34,-91.5 403.51,-82.41"/>
<polygon fill="#63b8ff" stroke="#63b8ff" points="406.44,-84.33 409.17,-74.09 400.65,-80.39 406.44,-84.33"/>
</a>
</g>
</g>
</g>
</svg>
