<?xml version="1.0" encoding="UTF-8" standalone="no"?>
<!DOCTYPE svg PUBLIC "-//W3C//DTD SVG 1.1//EN"
 "http://www.w3.org/Graphics/SVG/1.1/DTD/svg11.dtd">
<!-- Generated by graphviz version 2.43.0 (0)
 -->
<!-- Title: gnss_calculate_unix_epoch Pages: 1 -->
<!--zoomable 113 -->

<svg id="main" version="1.1" xmlns="http://www.w3.org/2000/svg" xmlns:xlink="http://www.w3.org/1999/xlink" xml:space="preserve" onload="init(evt)">

<style type="text/css"><![CDATA[
.node, .edge {opacity: 0.7;}
.node.selected, .edge.selected {opacity: 1;}
.edge:hover path { stroke: red; }
.edge:hover polygon { stroke: red; fill: red; }
]]></style>

<defs>
  <circle id="rim" cx="0" cy="0" r="7"/>
  <circle id="rim2" cx="0" cy="0" r="3.5"/>
  <g id="zoomPlus">
    <use xlink:href="#rim" fill="#404040"><set attributeName="fill" to="#808080" begin="zoomplus.mouseover" end="zoomplus.mouseout"/></use>
    <path d="M-4,0h8M0,-4v8" fill="none" stroke="white" stroke-width="1.5" pointer-events="none"/>
  </g>
  <g id="zoomMin">
    <use xlink:href="#rim" fill="#404040"><set attributeName="fill" to="#808080" begin="zoomminus.mouseover" end="zoomminus.mouseout"/></use>
    <path d="M-4,0h8" fill="none" stroke="white" stroke-width="1.5" pointer-events="none"/>
  </g>
  <g id="arrowUp" transform="translate(30 24)">
    <use xlink:href="#rim"/>
    <path pointer-events="none" fill="none" stroke="white" stroke-width="1.5" d="M0,-3.0v7 M-2.5,-0.5L0,-3.0L2.5,-0.5"/>
  </g>
  <g id="arrowRight" transform="rotate(90) translate(36 -43)">
    <use xlink:href="#rim"/>
    <path pointer-events="none" fill="none" stroke="white" stroke-width="1.5" d="M0,-3.0v7 M-2.5,-0.5L0,-3.0L2.5,-0.5"/>
  </g>
  <g id="arrowDown" transform="rotate(180) translate(-30 -48)">
    <use xlink:href="#rim"/>
    <path pointer-events="none" fill="none" stroke="white" stroke-width="1.5" d="M0,-3.0v7 M-2.5,-0.5L0,-3.0L2.5,-0.5"/>
  </g>
  <g id="arrowLeft" transform="rotate(270) translate(-36 17)">
    <use xlink:href="#rim"/>
    <path pointer-events="none" fill="none" stroke="white" stroke-width="1.5" d="M0,-3.0v7 M-2.5,-0.5L0,-3.0L2.5,-0.5"/>
  </g>
  <g id="resetDef">
    <use xlink:href="#rim2" fill="#404040"><set attributeName="fill" to="#808080" begin="reset.mouseover" end="reset.mouseout"/></use>
  </g>
</defs>
<script type="application/ecmascript">
var viewWidth = 688;
var viewHeight = 113;
var sectionId = 'dynsection-3';
</script>
<script type="application/ecmascript" xlink:href="svg.min.js"/>
<svg id="graph" class="graph">
<g id="viewport">
<title>gnss_calculate_unix_epoch</title>
<!-- Node1 -->
<g id="Node000001" class="node">
<title>Node1</title>
<g id="a_Node000001"><a xlink:title="Calculate Unix epoch from date/time components.">
<polygon fill="#999999" stroke="#666666" points="680,-88.5 565,-88.5 565,-58.5 680,-58.5 680,-88.5"/>
<text text-anchor="start" x="573" y="-76.5" font-family="Helvetica,sans-Serif" font-size="10.00">gnss_calculate_unix</text>
<text text-anchor="middle" x="622.5" y="-65.5" font-family="Helvetica,sans-Serif" font-size="10.00">_epoch</text>
</a>
</g>
</g>
<!-- Node2 -->
<g id="Node000002" class="node">
<title>Node2</title>
<g id="a_Node000002"><a xlink:href="nmea__ubx_8c.html#a96b08be9808b747a129a9663d17a402a" target="_top" xlink:title="Parse GPRMC sentence for time and date information.">
<polygon fill="white" stroke="#666666" points="529,-105 372,-105 372,-86 529,-86 529,-105"/>
<text text-anchor="middle" x="450.5" y="-93" font-family="Helvetica,sans-Serif" font-size="10.00">gnss_parse_gprmc_sentence</text>
</a>
</g>
</g>
<!-- Node1&#45;&gt;Node2 -->
<g id="edge1_Node000001_Node000002" class="edge">
<title>Node1&#45;&gt;Node2</title>
<g id="a_edge1_Node000001_Node000002"><a xlink:title=" ">
<path fill="none" stroke="#63b8ff" d="M554.86,-82.12C545.1,-83.39 534.99,-84.69 525.1,-85.98"/>
<polygon fill="#63b8ff" stroke="#63b8ff" points="555.42,-85.58 564.89,-80.83 554.53,-78.64 555.42,-85.58"/>
</a>
</g>
</g>
<!-- Node5 -->
<g id="Node000005" class="node">
<title>Node5</title>
<g id="a_Node000005"><a xlink:href="nmea__ubx_8c.html#ae05185d0301050951cd64eada9b0c796" target="_top" xlink:title="Get Unix epoch time with microsecond precision.">
<polygon fill="white" stroke="#666666" points="522.5,-67.5 378.5,-67.5 378.5,-37.5 522.5,-37.5 522.5,-67.5"/>
<text text-anchor="start" x="386.5" y="-55.5" font-family="Helvetica,sans-Serif" font-size="10.00">gnss_ubx_get_unix_epoch</text>
<text text-anchor="middle" x="450.5" y="-44.5" font-family="Helvetica,sans-Serif" font-size="10.00">_with_micros</text>
</a>
</g>
</g>
<!-- Node1&#45;&gt;Node5 -->
<g id="edge4_Node000001_Node000005" class="edge">
<title>Node1&#45;&gt;Node5</title>
<g id="a_edge4_Node000001_Node000005"><a xlink:title=" ">
<path fill="none" stroke="#63b8ff" d="M554.9,-65.27C544.33,-63.97 533.35,-62.61 522.68,-61.29"/>
<polygon fill="#63b8ff" stroke="#63b8ff" points="554.54,-68.75 564.89,-66.51 555.4,-61.81 554.54,-68.75"/>
</a>
</g>
</g>
<!-- Node3 -->
<g id="Node000003" class="node">
<title>Node3</title>
<g id="a_Node000003"><a xlink:href="nmea__ubx_8c.html#a2f6c15b7e79c01ad39d076ffb9dda784" target="_top" xlink:title="Get timing data from NMEA&#45;only device via GPRMC parsing.">
<polygon fill="white" stroke="#666666" points="336,-105 179,-105 179,-86 336,-86 336,-105"/>
<text text-anchor="middle" x="257.5" y="-93" font-family="Helvetica,sans-Serif" font-size="10.00">gnss_get_nmea_timing_data</text>
</a>
</g>
</g>
<!-- Node2&#45;&gt;Node3 -->
<g id="edge2_Node000002_Node000003" class="edge">
<title>Node2&#45;&gt;Node3</title>
<g id="a_edge2_Node000002_Node000003"><a xlink:title=" ">
<path fill="none" stroke="#63b8ff" d="M361.81,-95.5C353.24,-95.5 344.58,-95.5 336.12,-95.5"/>
<polygon fill="#63b8ff" stroke="#63b8ff" points="361.81,-99 371.81,-95.5 361.81,-92 361.81,-99"/>
</a>
</g>
</g>
<!-- Node4 -->
<g id="Node000004" class="node">
<title>Node4</title>
<g id="a_Node000004"><a xlink:href="nmea__ubx_8c.html#a8bb289e76034531efe564b1b2a2ec21c" target="_top" xlink:title="Refresh timing data from device (unified API for both UBX and NMEA devices)">
<polygon fill="white" stroke="#666666" points="143,-105 0,-105 0,-86 143,-86 143,-105"/>
<text text-anchor="middle" x="71.5" y="-93" font-family="Helvetica,sans-Serif" font-size="10.00">gnss_refresh_timing_data</text>
</a>
</g>
</g>
<!-- Node3&#45;&gt;Node4 -->
<g id="edge3_Node000003_Node000004" class="edge">
<title>Node3&#45;&gt;Node4</title>
<g id="a_edge3_Node000003_Node000004"><a xlink:title=" ">
<path fill="none" stroke="#63b8ff" d="M168.47,-95.5C160.02,-95.5 151.52,-95.5 143.27,-95.5"/>
<polygon fill="#63b8ff" stroke="#63b8ff" points="168.73,-99 178.73,-95.5 168.73,-92 168.73,-99"/>
</a>
</g>
</g>
<!-- Node6 -->
<g id="Node000006" class="node">
<title>Node6</title>
<g id="a_Node000006"><a xlink:href="nmea__ubx_8c.html#aca1695030eb7225e23ed18a4065f60b0" target="_top" xlink:title="Get Unix epoch time with best available precision (unified API)">
<polygon fill="white" stroke="#666666" points="318,-67.5 197,-67.5 197,-37.5 318,-37.5 318,-67.5"/>
<text text-anchor="start" x="205" y="-55.5" font-family="Helvetica,sans-Serif" font-size="10.00">gnss_get_unix_epoch</text>
<text text-anchor="middle" x="257.5" y="-44.5" font-family="Helvetica,sans-Serif" font-size="10.00">_unified</text>
</a>
</g>
</g>
<!-- Node5&#45;&gt;Node6 -->
<g id="edge5_Node000005_Node000006" class="edge">
<title>Node5&#45;&gt;Node6</title>
<g id="a_edge5_Node000005_Node000006"><a xlink:title=" ">
<path fill="none" stroke="#63b8ff" d="M368.04,-52.5C351.28,-52.5 333.93,-52.5 318.11,-52.5"/>
<polygon fill="#63b8ff" stroke="#63b8ff" points="368.38,-56 378.38,-52.5 368.38,-49 368.38,-56"/>
</a>
</g>
</g>
<!-- Node7 -->
<g id="Node000007" class="node">
<title>Node7</title>
<g id="a_Node000007"><a xlink:href="nmea__ubx_8c.html#a4d777ec68b02fa44f2c564f35ed007a9" target="_top" xlink:title="Get comprehensive precise time information.">
<polygon fill="white" stroke="#666666" points="333.5,-19 181.5,-19 181.5,0 333.5,0 333.5,-19"/>
<text text-anchor="middle" x="257.5" y="-7" font-family="Helvetica,sans-Serif" font-size="10.00">gnss_ubx_get_precise_time</text>
</a>
</g>
</g>
<!-- Node5&#45;&gt;Node7 -->
<g id="edge6_Node000005_Node000007" class="edge">
<title>Node5&#45;&gt;Node7</title>
<g id="a_edge6_Node000005_Node000007"><a xlink:title=" ">
<path fill="none" stroke="#63b8ff" d="M372.68,-35.2C348.16,-29.68 321.92,-23.78 300.8,-19.02"/>
<polygon fill="#63b8ff" stroke="#63b8ff" points="372.17,-38.68 382.7,-37.46 373.71,-31.85 372.17,-38.68"/>
</a>
</g>
</g>
<!-- Node8 -->
<g id="Node000008" class="node">
<title>Node8</title>
<g id="a_Node000008"><a xlink:href="nmea__ubx_8c.html#a89f1bd80bbe4d28f4edbdd1ef3008b0a" target="_top" xlink:title="Get comprehensive timing information (unified API for both device types)">
<polygon fill="white" stroke="#666666" points="139,-19 4,-19 4,0 139,0 139,-19"/>
<text text-anchor="middle" x="71.5" y="-7" font-family="Helvetica,sans-Serif" font-size="10.00">gnss_get_unified_timing</text>
</a>
</g>
</g>
<!-- Node7&#45;&gt;Node8 -->
<g id="edge7_Node000007_Node000008" class="edge">
<title>Node7&#45;&gt;Node8</title>
<g id="a_edge7_Node000007_Node000008"><a xlink:title=" ">
<path fill="none" stroke="#63b8ff" d="M171.14,-9.5C160.38,-9.5 149.5,-9.5 139.1,-9.5"/>
<polygon fill="#63b8ff" stroke="#63b8ff" points="171.39,-13 181.39,-9.5 171.39,-6 171.39,-13"/>
</a>
</g>
</g>
</g>
</svg>

<g id="navigator" transform="translate(0 0)" fill="#404254">
  <rect fill="#f2f5e9" fill-opacity="0.5" stroke="#606060" stroke-width=".5" x="0" y="0" width="60" height="60"/>
  <use id="zoomplus" xlink:href="#zoomPlus" x="17" y="9" onmousedown="handleZoom(evt,'in')"/>
  <use id="zoomminus" xlink:href="#zoomMin" x="42" y="9" onmousedown="handleZoom(evt,'out')"/>
  <use id="reset" xlink:href="#resetDef" x="30" y="36" onmousedown="handleReset()"/>
   <use id="arrowup" xlink:href="#arrowUp" x="0" y="0" onmousedown="handlePan(0,-1)"/>
  <use id="arrowright" xlink:href="#arrowRight" x="0" y="0" onmousedown="handlePan(1,0)"/>
  <use id="arrowdown" xlink:href="#arrowDown" x="0" y="0" onmousedown="handlePan(0,1)"/>
  <use id="arrowleft" xlink:href="#arrowLeft" x="0" y="0" onmousedown="handlePan(-1,0)"/>
</g>
<svg viewBox="0 0 15 15" width="100%" height="30px" preserveAspectRatio="xMaxYMin meet">
 <g id="arrow_out" transform="scale(0.3 0.3)">
  <a xlink:href="nmea__ubx_8h_a2bf403fc29e386477d6e207095b6dc6f_icgraph_org.svg" target="_base">
   <rect id="button" ry="5" rx="5" y="6" x="6" height="38" width="38"
        fill="#f2f5e9" fill-opacity="0.5" stroke="#606060" stroke-width="1.0"/>
   <path id="arrow"
     d="M 11.500037,31.436501 C 11.940474,20.09759 22.043105,11.32322 32.158766,21.979434 L 37.068811,17.246167 C 37.068811,17.246167 37.088388,32 37.088388,32 L 22.160133,31.978069 C 22.160133,31.978069 26.997745,27.140456 26.997745,27.140456 C 18.528582,18.264221 13.291696,25.230495 11.500037,31.436501 z"
     style="fill:#404040;"/>
  </a>
 </g>
</svg>

<style type='text/css'>
<![CDATA[
[data-mouse-over-selected='false'] { opacity: 0.7; }
[data-mouse-over-selected='true']  { opacity: 1.0; }
]]>
</style>
<script type="application/ecmascript"><![CDATA[
document.addEventListener('DOMContentLoaded', (event) => {
  highlightEdges();
  highlightAdjacentNodes();
});
]]></script>
</svg>
