<?xml version="1.0" encoding="UTF-8" standalone="no"?>
<!DOCTYPE svg PUBLIC "-//W3C//DTD SVG 1.1//EN"
 "http://www.w3.org/Graphics/SVG/1.1/DTD/svg11.dtd">
<!-- Generated by graphviz version 2.43.0 (0)
 -->
<!-- Title: gnss_ubx_get_val Pages: 1 -->
<svg width="360pt" height="38pt"
 viewBox="0.00 0.00 360.00 38.00" xmlns="http://www.w3.org/2000/svg" xmlns:xlink="http://www.w3.org/1999/xlink">
<g id="graph0" class="graph" transform="scale(1 1) rotate(0) translate(4 34)">
<title>gnss_ubx_get_val</title>
<!-- Node1 -->
<g id="Node000001" class="node">
<title>Node1</title>
<g id="a_Node000001"><a xlink:title="Get configuration value by key.">
<polygon fill="#999999" stroke="#666666" points="352,-24.5 248,-24.5 248,-5.5 352,-5.5 352,-24.5"/>
<text text-anchor="middle" x="300" y="-12.5" font-family="Helvetica,sans-Serif" font-size="10.00">gnss_ubx_get_val</text>
</a>
</g>
</g>
<!-- Node2 -->
<g id="Node000002" class="node">
<title>Node2</title>
<g id="a_Node000002"><a xlink:href="nmea__ubx_8c.html#a8e8bbe768aacb1b570dc5b2072cf0621" target="_top" xlink:title="Check if time pulse is currently enabled.">
<polygon fill="white" stroke="#666666" points="212,-30 77,-30 77,0 212,0 212,-30"/>
<text text-anchor="start" x="85" y="-18" font-family="Helvetica,sans-Serif" font-size="10.00">gnss_ubx_is_time_pulse</text>
<text text-anchor="middle" x="144.5" y="-7" font-family="Helvetica,sans-Serif" font-size="10.00">_enabled</text>
</a>
</g>
</g>
<!-- Node1&#45;&gt;Node2 -->
<g id="edge1_Node000001_Node000002" class="edge">
<title>Node1&#45;&gt;Node2</title>
<g id="a_edge1_Node000001_Node000002"><a xlink:title=" ">
<path fill="none" stroke="#63b8ff" d="M237.79,-15C229.39,-15 220.73,-15 212.23,-15"/>
<polygon fill="#63b8ff" stroke="#63b8ff" points="237.89,-18.5 247.89,-15 237.89,-11.5 237.89,-18.5"/>
</a>
</g>
</g>
<!-- Node3 -->
<g id="Node000003" class="node">
<title>Node3</title>
<g id="a_Node000003"><a xlink:href="eval-ublox-gnss_2src_2main_8c.html#a840291bc02cba5474a4cb46a9b9566fe" target="_top" xlink:title=" ">
<polygon fill="white" stroke="#666666" points="41,-24.5 0,-24.5 0,-5.5 41,-5.5 41,-24.5"/>
<text text-anchor="middle" x="20.5" y="-12.5" font-family="Helvetica,sans-Serif" font-size="10.00">main</text>
</a>
</g>
</g>
<!-- Node2&#45;&gt;Node3 -->
<g id="edge2_Node000002_Node000003" class="edge">
<title>Node2&#45;&gt;Node3</title>
<g id="a_edge2_Node000002_Node000003"><a xlink:title=" ">
<path fill="none" stroke="#63b8ff" d="M66.53,-15C57.24,-15 48.47,-15 41.19,-15"/>
<polygon fill="#63b8ff" stroke="#63b8ff" points="66.79,-18.5 76.79,-15 66.79,-11.5 66.79,-18.5"/>
</a>
</g>
</g>
</g>
</svg>
