<?xml version="1.0" encoding="UTF-8" standalone="no"?>
<!DOCTYPE svg PUBLIC "-//W3C//DTD SVG 1.1//EN"
 "http://www.w3.org/Graphics/SVG/1.1/DTD/svg11.dtd">
<!-- Generated by graphviz version 2.43.0 (0)
 -->
<!-- Title: gnss_ubx_receive_packet Pages: 1 -->
<!--zoomable 304 -->

<svg id="main" version="1.1" xmlns="http://www.w3.org/2000/svg" xmlns:xlink="http://www.w3.org/1999/xlink" xml:space="preserve" onload="init(evt)">

<style type="text/css"><![CDATA[
.node, .edge {opacity: 0.7;}
.node.selected, .edge.selected {opacity: 1;}
.edge:hover path { stroke: red; }
.edge:hover polygon { stroke: red; fill: red; }
]]></style>

<defs>
  <circle id="rim" cx="0" cy="0" r="7"/>
  <circle id="rim2" cx="0" cy="0" r="3.5"/>
  <g id="zoomPlus">
    <use xlink:href="#rim" fill="#404040"><set attributeName="fill" to="#808080" begin="zoomplus.mouseover" end="zoomplus.mouseout"/></use>
    <path d="M-4,0h8M0,-4v8" fill="none" stroke="white" stroke-width="1.5" pointer-events="none"/>
  </g>
  <g id="zoomMin">
    <use xlink:href="#rim" fill="#404040"><set attributeName="fill" to="#808080" begin="zoomminus.mouseover" end="zoomminus.mouseout"/></use>
    <path d="M-4,0h8" fill="none" stroke="white" stroke-width="1.5" pointer-events="none"/>
  </g>
  <g id="arrowUp" transform="translate(30 24)">
    <use xlink:href="#rim"/>
    <path pointer-events="none" fill="none" stroke="white" stroke-width="1.5" d="M0,-3.0v7 M-2.5,-0.5L0,-3.0L2.5,-0.5"/>
  </g>
  <g id="arrowRight" transform="rotate(90) translate(36 -43)">
    <use xlink:href="#rim"/>
    <path pointer-events="none" fill="none" stroke="white" stroke-width="1.5" d="M0,-3.0v7 M-2.5,-0.5L0,-3.0L2.5,-0.5"/>
  </g>
  <g id="arrowDown" transform="rotate(180) translate(-30 -48)">
    <use xlink:href="#rim"/>
    <path pointer-events="none" fill="none" stroke="white" stroke-width="1.5" d="M0,-3.0v7 M-2.5,-0.5L0,-3.0L2.5,-0.5"/>
  </g>
  <g id="arrowLeft" transform="rotate(270) translate(-36 17)">
    <use xlink:href="#rim"/>
    <path pointer-events="none" fill="none" stroke="white" stroke-width="1.5" d="M0,-3.0v7 M-2.5,-0.5L0,-3.0L2.5,-0.5"/>
  </g>
  <g id="resetDef">
    <use xlink:href="#rim2" fill="#404040"><set attributeName="fill" to="#808080" begin="reset.mouseover" end="reset.mouseout"/></use>
  </g>
</defs>
<script type="application/ecmascript">
var viewWidth = 806;
var viewHeight = 304;
var sectionId = 'dynsection-19';
</script>
<script type="application/ecmascript" xlink:href="svg.min.js"/>
<svg id="graph" class="graph">
<g id="viewport">
<title>gnss_ubx_receive_packet</title>
<!-- Node1 -->
<g id="Node000001" class="node">
<title>Node1</title>
<g id="a_Node000001"><a xlink:title="UBX packet receive.">
<polygon fill="#999999" stroke="#666666" points="798,-238.5 657,-238.5 657,-219.5 798,-219.5 798,-238.5"/>
<text text-anchor="middle" x="727.5" y="-226.5" font-family="Helvetica,sans-Serif" font-size="10.00">gnss_ubx_receive_packet</text>
</a>
</g>
</g>
<!-- Node2 -->
<g id="Node000002" class="node">
<title>Node2</title>
<g id="a_Node000002"><a xlink:href="nmea__ubx_8c.html#a4dee89ee178e1f523f08716605a5f0c7" target="_top" xlink:title="Get configuration value by key.">
<polygon fill="white" stroke="#666666" points="413.5,-257.5 309.5,-257.5 309.5,-238.5 413.5,-238.5 413.5,-257.5"/>
<text text-anchor="middle" x="361.5" y="-245.5" font-family="Helvetica,sans-Serif" font-size="10.00">gnss_ubx_get_val</text>
</a>
</g>
</g>
<!-- Node1&#45;&gt;Node2 -->
<g id="edge1_Node000001_Node000002" class="edge">
<title>Node1&#45;&gt;Node2</title>
<g id="a_edge1_Node000001_Node000002"><a xlink:title=" ">
<path fill="none" stroke="#63b8ff" d="M646.51,-233.18C575.55,-236.88 474.03,-242.18 413.54,-245.34"/>
<polygon fill="#63b8ff" stroke="#63b8ff" points="646.94,-236.66 656.75,-232.64 646.58,-229.67 646.94,-236.66"/>
</a>
</g>
</g>
<!-- Node5 -->
<g id="Node000005" class="node">
<title>Node5</title>
<g id="a_Node000005"><a xlink:href="nmea__ubx_8c.html#ab5b36b68401114958911befd1d2ab109" target="_top" xlink:title="Poll navigation data (NAV&#45;PVT)">
<polygon fill="white" stroke="#666666" points="610,-295.5 480,-295.5 480,-276.5 610,-276.5 610,-295.5"/>
<text text-anchor="middle" x="545" y="-283.5" font-family="Helvetica,sans-Serif" font-size="10.00">gnss_ubx_poll_nav_pvt</text>
</a>
</g>
</g>
<!-- Node1&#45;&gt;Node5 -->
<g id="edge4_Node000001_Node000005" class="edge">
<title>Node1&#45;&gt;Node5</title>
<g id="a_edge4_Node000001_Node000005"><a xlink:title=" ">
<path fill="none" stroke="#63b8ff" d="M686.42,-241.66C653.15,-252.16 606.54,-266.88 576.31,-276.43"/>
<polygon fill="#63b8ff" stroke="#63b8ff" points="687.81,-244.89 696.29,-238.54 685.7,-238.21 687.81,-244.89"/>
</a>
</g>
</g>
<!-- Node7 -->
<g id="Node000007" class="node">
<title>Node7</title>
<g id="a_Node000007"><a xlink:href="nmea__ubx_8c.html#a3bfbf1579cecbb99ed0af9c1d247b002" target="_top" xlink:title="Poll time data (NAV&#45;TIMEUTC)">
<polygon fill="white" stroke="#666666" points="621,-219.5 469,-219.5 469,-200.5 621,-200.5 621,-219.5"/>
<text text-anchor="middle" x="545" y="-207.5" font-family="Helvetica,sans-Serif" font-size="10.00">gnss_ubx_poll_nav_timeutc</text>
</a>
</g>
</g>
<!-- Node1&#45;&gt;Node7 -->
<g id="edge6_Node000001_Node000007" class="edge">
<title>Node1&#45;&gt;Node7</title>
<g id="a_edge6_Node000001_Node000007"><a xlink:title=" ">
<path fill="none" stroke="#63b8ff" d="M646.99,-220.63C638.41,-219.73 629.71,-218.81 621.19,-217.91"/>
<polygon fill="#63b8ff" stroke="#63b8ff" points="646.66,-224.12 656.97,-221.68 647.39,-217.15 646.66,-224.12"/>
</a>
</g>
</g>
<!-- Node8 -->
<g id="Node000008" class="node">
<title>Node8</title>
<g id="a_Node000008"><a xlink:href="nmea__ubx_8c.html#a0bfe369b83f80994098d4fe3ec2afc92" target="_top" xlink:title="Wait for ACK/NAK.">
<polygon fill="white" stroke="#666666" points="610,-182.5 480,-182.5 480,-163.5 610,-163.5 610,-182.5"/>
<text text-anchor="middle" x="545" y="-170.5" font-family="Helvetica,sans-Serif" font-size="10.00">gnss_ubx_wait_for_ack</text>
</a>
</g>
</g>
<!-- Node1&#45;&gt;Node8 -->
<g id="edge7_Node000001_Node000008" class="edge">
<title>Node1&#45;&gt;Node8</title>
<g id="a_edge7_Node000001_Node000008"><a xlink:title=" ">
<path fill="none" stroke="#63b8ff" d="M692.9,-215.83C672.33,-208.03 645.36,-198.29 621,-191 610.87,-187.97 599.84,-185.09 589.45,-182.57"/>
<polygon fill="#63b8ff" stroke="#63b8ff" points="691.86,-219.18 702.45,-219.48 694.36,-212.64 691.86,-219.18"/>
</a>
</g>
</g>
<!-- Node3 -->
<g id="Node000003" class="node">
<title>Node3</title>
<g id="a_Node000003"><a xlink:href="nmea__ubx_8c.html#a8e8bbe768aacb1b570dc5b2072cf0621" target="_top" xlink:title="Check if time pulse is currently enabled.">
<polygon fill="white" stroke="#666666" points="254,-270 119,-270 119,-240 254,-240 254,-270"/>
<text text-anchor="start" x="127" y="-258" font-family="Helvetica,sans-Serif" font-size="10.00">gnss_ubx_is_time_pulse</text>
<text text-anchor="middle" x="186.5" y="-247" font-family="Helvetica,sans-Serif" font-size="10.00">_enabled</text>
</a>
</g>
</g>
<!-- Node2&#45;&gt;Node3 -->
<g id="edge2_Node000002_Node000003" class="edge">
<title>Node2&#45;&gt;Node3</title>
<g id="a_edge2_Node000002_Node000003"><a xlink:title=" ">
<path fill="none" stroke="#63b8ff" d="M298.74,-250.5C284.28,-251.08 268.81,-251.71 254.14,-252.3"/>
<polygon fill="#63b8ff" stroke="#63b8ff" points="299.21,-253.98 309.06,-250.08 298.93,-246.99 299.21,-253.98"/>
</a>
</g>
</g>
<!-- Node4 -->
<g id="Node000004" class="node">
<title>Node4</title>
<g id="a_Node000004"><a xlink:href="eval-ublox-gnss_2src_2main_8c.html#a840291bc02cba5474a4cb46a9b9566fe" target="_top" xlink:title=" ">
<polygon fill="white" stroke="#666666" points="62,-264.5 21,-264.5 21,-245.5 62,-245.5 62,-264.5"/>
<text text-anchor="middle" x="41.5" y="-252.5" font-family="Helvetica,sans-Serif" font-size="10.00">main</text>
</a>
</g>
</g>
<!-- Node3&#45;&gt;Node4 -->
<g id="edge3_Node000003_Node000004" class="edge">
<title>Node3&#45;&gt;Node4</title>
<g id="a_edge3_Node000003_Node000004"><a xlink:title=" ">
<path fill="none" stroke="#63b8ff" d="M108.43,-255C91.19,-255 74.38,-255 62.05,-255"/>
<polygon fill="#63b8ff" stroke="#63b8ff" points="108.61,-258.5 118.61,-255 108.61,-251.5 108.61,-258.5"/>
</a>
</g>
</g>
<!-- Node6 -->
<g id="Node000006" class="node">
<title>Node6</title>
<g id="a_Node000006"><a xlink:href="nmea__ubx_8c.html#a8bb289e76034531efe564b1b2a2ec21c" target="_top" xlink:title="Refresh timing data from device (unified API for both UBX and NMEA devices)">
<polygon fill="white" stroke="#666666" points="433,-295.5 290,-295.5 290,-276.5 433,-276.5 433,-295.5"/>
<text text-anchor="middle" x="361.5" y="-283.5" font-family="Helvetica,sans-Serif" font-size="10.00">gnss_refresh_timing_data</text>
</a>
</g>
</g>
<!-- Node5&#45;&gt;Node6 -->
<g id="edge5_Node000005_Node000006" class="edge">
<title>Node5&#45;&gt;Node6</title>
<g id="a_edge5_Node000005_Node000006"><a xlink:title=" ">
<path fill="none" stroke="#63b8ff" d="M469.72,-286C457.63,-286 445.14,-286 433.14,-286"/>
<polygon fill="#63b8ff" stroke="#63b8ff" points="469.75,-289.5 479.75,-286 469.75,-282.5 469.75,-289.5"/>
</a>
</g>
</g>
<!-- Node8&#45;&gt;Node2 -->
<g id="edge9_Node000008_Node000002" class="edge">
<title>Node8&#45;&gt;Node2</title>
<g id="a_edge9_Node000008_Node000002"><a xlink:title=" ">
<path fill="none" stroke="#63b8ff" d="M486.3,-185.25C480.39,-186.98 474.53,-188.9 469,-191 434.7,-204.05 397.53,-225.89 377.44,-238.41"/>
<polygon fill="#63b8ff" stroke="#63b8ff" points="487.52,-188.55 496.23,-182.52 485.66,-181.8 487.52,-188.55"/>
</a>
</g>
</g>
<!-- Node9 -->
<g id="Node000009" class="node">
<title>Node9</title>
<g id="a_Node000009"><a xlink:href="nmea__ubx_8c.html#a6585bea5ead748fcb535177ea088826c" target="_top" xlink:title="Clear save load configuration from flash/BBR.">
<polygon fill="white" stroke="#666666" points="428.5,-188 294.5,-188 294.5,-158 428.5,-158 428.5,-188"/>
<text text-anchor="start" x="302.5" y="-176" font-family="Helvetica,sans-Serif" font-size="10.00">gnss_ubx_clr_save_load</text>
<text text-anchor="middle" x="361.5" y="-165" font-family="Helvetica,sans-Serif" font-size="10.00">_config</text>
</a>
</g>
</g>
<!-- Node8&#45;&gt;Node9 -->
<g id="edge8_Node000008_Node000009" class="edge">
<title>Node8&#45;&gt;Node9</title>
<g id="a_edge8_Node000008_Node000009"><a xlink:title=" ">
<path fill="none" stroke="#63b8ff" d="M469.55,-173C456.05,-173 442.05,-173 428.81,-173"/>
<polygon fill="#63b8ff" stroke="#63b8ff" points="469.75,-176.5 479.75,-173 469.75,-169.5 469.75,-176.5"/>
</a>
</g>
</g>
<!-- Node10 -->
<g id="Node000010" class="node">
<title>Node10</title>
<g id="a_Node000010"><a xlink:href="nmea__ubx_8c.html#ad7cd32bb2965850b80bf71de369cfe99" target="_top" xlink:title="Set configuration value by key.">
<polygon fill="white" stroke="#666666" points="413,-133.5 310,-133.5 310,-114.5 413,-114.5 413,-133.5"/>
<text text-anchor="middle" x="361.5" y="-121.5" font-family="Helvetica,sans-Serif" font-size="10.00">gnss_ubx_set_val</text>
</a>
</g>
</g>
<!-- Node8&#45;&gt;Node10 -->
<g id="edge10_Node000008_Node000010" class="edge">
<title>Node8&#45;&gt;Node10</title>
<g id="a_edge10_Node000008_Node000010"><a xlink:title=" ">
<path fill="none" stroke="#63b8ff" d="M498.81,-160.8C467.59,-152.37 426.67,-141.32 397.84,-133.54"/>
<polygon fill="#63b8ff" stroke="#63b8ff" points="498.01,-164.21 508.57,-163.44 499.83,-157.45 498.01,-164.21"/>
</a>
</g>
</g>
<!-- Node11 -->
<g id="Node000011" class="node">
<title>Node11</title>
<g id="a_Node000011"><a xlink:href="nmea__ubx_8c.html#a43ec1437613ea72d6ad616f3e49a0af3" target="_top" xlink:title="Configure UBX device baudrate via UBX commands.">
<polygon fill="white" stroke="#666666" points="243,-174 130,-174 130,-144 243,-144 243,-174"/>
<text text-anchor="start" x="138" y="-162" font-family="Helvetica,sans-Serif" font-size="10.00">gnss_ubx_configure</text>
<text text-anchor="middle" x="186.5" y="-151" font-family="Helvetica,sans-Serif" font-size="10.00">_baudrate</text>
</a>
</g>
</g>
<!-- Node10&#45;&gt;Node11 -->
<g id="edge11_Node000010_Node000011" class="edge">
<title>Node10&#45;&gt;Node11</title>
<g id="a_edge11_Node000010_Node000011"><a xlink:title=" ">
<path fill="none" stroke="#63b8ff" d="M303.35,-135.56C284.04,-139.47 262.52,-143.82 243.31,-147.71"/>
<polygon fill="#63b8ff" stroke="#63b8ff" points="304.12,-138.98 313.23,-133.56 302.73,-132.12 304.12,-138.98"/>
</a>
</g>
</g>
<!-- Node13 -->
<g id="Node000013" class="node">
<title>Node13</title>
<g id="a_Node000013"><a xlink:href="nmea__ubx_8c.html#af0e61c0a0d26cbe7021123bfacda1c26" target="_top" xlink:title="Configure time pulse output for PPS (Pulse Per Second)">
<polygon fill="white" stroke="#666666" points="243,-126 130,-126 130,-96 243,-96 243,-126"/>
<text text-anchor="start" x="138" y="-114" font-family="Helvetica,sans-Serif" font-size="10.00">gnss_ubx_configure</text>
<text text-anchor="middle" x="186.5" y="-103" font-family="Helvetica,sans-Serif" font-size="10.00">_time_pulse</text>
</a>
</g>
</g>
<!-- Node10&#45;&gt;Node13 -->
<g id="edge13_Node000010_Node000013" class="edge">
<title>Node10&#45;&gt;Node13</title>
<g id="a_edge13_Node000010_Node000013"><a xlink:title=" ">
<path fill="none" stroke="#63b8ff" d="M299.95,-119.45C281.51,-118.06 261.33,-116.55 243.22,-115.19"/>
<polygon fill="#63b8ff" stroke="#63b8ff" points="299.76,-122.95 310,-120.2 300.29,-115.97 299.76,-122.95"/>
</a>
</g>
</g>
<!-- Node15 -->
<g id="Node000015" class="node">
<title>Node15</title>
<g id="a_Node000015"><a xlink:href="nmea__ubx_8c.html#aa20dbcad395a7b20362f3972e726d093" target="_top" xlink:title="Configure input protocol on UART2.">
<polygon fill="white" stroke="#666666" points="243,-78 130,-78 130,-48 243,-48 243,-78"/>
<text text-anchor="start" x="138" y="-66" font-family="Helvetica,sans-Serif" font-size="10.00">gnss_ubx_set_input</text>
<text text-anchor="middle" x="186.5" y="-55" font-family="Helvetica,sans-Serif" font-size="10.00">_protocol_uart2</text>
</a>
</g>
</g>
<!-- Node10&#45;&gt;Node15 -->
<g id="edge15_Node000010_Node000015" class="edge">
<title>Node10&#45;&gt;Node15</title>
<g id="a_edge15_Node000010_Node000015"><a xlink:title=" ">
<path fill="none" stroke="#63b8ff" d="M323.87,-111.08C296.46,-101.42 258.91,-88.18 230.15,-78.04"/>
<polygon fill="#63b8ff" stroke="#63b8ff" points="322.87,-114.44 333.47,-114.47 325.2,-107.84 322.87,-114.44"/>
</a>
</g>
</g>
<!-- Node16 -->
<g id="Node000016" class="node">
<title>Node16</title>
<g id="a_Node000016"><a xlink:href="nmea__ubx_8c.html#aac8c066aca7e03a65e43339e6b15b6fe" target="_top" xlink:title="Configure output protocol on UART2.">
<polygon fill="white" stroke="#666666" points="246,-30 127,-30 127,0 246,0 246,-30"/>
<text text-anchor="start" x="135" y="-18" font-family="Helvetica,sans-Serif" font-size="10.00">gnss_ubx_set_output</text>
<text text-anchor="middle" x="186.5" y="-7" font-family="Helvetica,sans-Serif" font-size="10.00">_protocol_uart2</text>
</a>
</g>
</g>
<!-- Node10&#45;&gt;Node16 -->
<g id="edge16_Node000010_Node000016" class="edge">
<title>Node10&#45;&gt;Node16</title>
<g id="a_edge16_Node000010_Node000016"><a xlink:title=" ">
<path fill="none" stroke="#63b8ff" d="M343.33,-107.31C323.29,-88.58 288.48,-58.28 254,-39 248.11,-35.7 241.68,-32.72 235.21,-30.06"/>
<polygon fill="#63b8ff" stroke="#63b8ff" points="341.07,-109.99 350.74,-114.34 345.89,-104.92 341.07,-109.99"/>
</a>
</g>
</g>
<!-- Node17 -->
<g id="Node000017" class="node">
<title>Node17</title>
<g id="a_Node000017"><a xlink:href="nmea__ubx_8c.html#a8d9fe740145f9d16b909e9a1efc18c64" target="_top" xlink:title="Configure output protocol USB.">
<polygon fill="white" stroke="#666666" points="246,-222 127,-222 127,-192 246,-192 246,-222"/>
<text text-anchor="start" x="135" y="-210" font-family="Helvetica,sans-Serif" font-size="10.00">gnss_ubx_set_output</text>
<text text-anchor="middle" x="186.5" y="-199" font-family="Helvetica,sans-Serif" font-size="10.00">_protocol_usb</text>
</a>
</g>
</g>
<!-- Node10&#45;&gt;Node17 -->
<g id="edge17_Node000010_Node000017" class="edge">
<title>Node10&#45;&gt;Node17</title>
<g id="a_edge17_Node000010_Node000017"><a xlink:title=" ">
<path fill="none" stroke="#63b8ff" d="M314.85,-137.04C306.3,-140.35 297.65,-144.32 290,-149 271.22,-160.48 272.74,-171.47 254,-183 248.56,-186.34 242.59,-189.32 236.53,-191.94"/>
<polygon fill="#63b8ff" stroke="#63b8ff" points="316.19,-140.28 324.41,-133.59 313.81,-133.7 316.19,-140.28"/>
</a>
</g>
</g>
<!-- Node12 -->
<g id="Node000012" class="node">
<title>Node12</title>
<g id="a_Node000012"><a xlink:href="nmea__ubx_8c.html#a88aa1624acfdf3fe74e864aaabe97b92" target="_top" xlink:title="Initialize the GNSS device and configure communication.">
<polygon fill="white" stroke="#666666" points="71.5,-168.5 11.5,-168.5 11.5,-149.5 71.5,-149.5 71.5,-168.5"/>
<text text-anchor="middle" x="41.5" y="-156.5" font-family="Helvetica,sans-Serif" font-size="10.00">gnss_init</text>
</a>
</g>
</g>
<!-- Node11&#45;&gt;Node12 -->
<g id="edge12_Node000011_Node000012" class="edge">
<title>Node11&#45;&gt;Node12</title>
<g id="a_edge12_Node000011_Node000012"><a xlink:title=" ">
<path fill="none" stroke="#63b8ff" d="M119.5,-159C102.81,-159 85.71,-159 71.89,-159"/>
<polygon fill="#63b8ff" stroke="#63b8ff" points="119.8,-162.5 129.8,-159 119.8,-155.5 119.8,-162.5"/>
</a>
</g>
</g>
<!-- Node14 -->
<g id="Node000014" class="node">
<title>Node14</title>
<g id="a_Node000014"><a xlink:href="nmea__ubx_8c.html#a03999543f1b814e2548735c119cf9da8" target="_top" xlink:title="Configure PPS output with optimal settings for timing sync.">
<polygon fill="white" stroke="#666666" points="83,-120.5 0,-120.5 0,-101.5 83,-101.5 83,-120.5"/>
<text text-anchor="middle" x="41.5" y="-108.5" font-family="Helvetica,sans-Serif" font-size="10.00">gnss_init_pps</text>
</a>
</g>
</g>
<!-- Node13&#45;&gt;Node14 -->
<g id="edge14_Node000013_Node000014" class="edge">
<title>Node13&#45;&gt;Node14</title>
<g id="a_edge14_Node000013_Node000014"><a xlink:title=" ">
<path fill="none" stroke="#63b8ff" d="M119.5,-111C107.12,-111 94.53,-111 83.21,-111"/>
<polygon fill="#63b8ff" stroke="#63b8ff" points="119.8,-114.5 129.8,-111 119.8,-107.5 119.8,-114.5"/>
</a>
</g>
</g>
</g>
</svg>

<g id="navigator" transform="translate(0 0)" fill="#404254">
  <rect fill="#f2f5e9" fill-opacity="0.5" stroke="#606060" stroke-width=".5" x="0" y="0" width="60" height="60"/>
  <use id="zoomplus" xlink:href="#zoomPlus" x="17" y="9" onmousedown="handleZoom(evt,'in')"/>
  <use id="zoomminus" xlink:href="#zoomMin" x="42" y="9" onmousedown="handleZoom(evt,'out')"/>
  <use id="reset" xlink:href="#resetDef" x="30" y="36" onmousedown="handleReset()"/>
   <use id="arrowup" xlink:href="#arrowUp" x="0" y="0" onmousedown="handlePan(0,-1)"/>
  <use id="arrowright" xlink:href="#arrowRight" x="0" y="0" onmousedown="handlePan(1,0)"/>
  <use id="arrowdown" xlink:href="#arrowDown" x="0" y="0" onmousedown="handlePan(0,1)"/>
  <use id="arrowleft" xlink:href="#arrowLeft" x="0" y="0" onmousedown="handlePan(-1,0)"/>
</g>
<svg viewBox="0 0 15 15" width="100%" height="30px" preserveAspectRatio="xMaxYMin meet">
 <g id="arrow_out" transform="scale(0.3 0.3)">
  <a xlink:href="nmea__ubx_8c_a00fb4506015794a886089ae02a938944_icgraph_org.svg" target="_base">
   <rect id="button" ry="5" rx="5" y="6" x="6" height="38" width="38"
        fill="#f2f5e9" fill-opacity="0.5" stroke="#606060" stroke-width="1.0"/>
   <path id="arrow"
     d="M 11.500037,31.436501 C 11.940474,20.09759 22.043105,11.32322 32.158766,21.979434 L 37.068811,17.246167 C 37.068811,17.246167 37.088388,32 37.088388,32 L 22.160133,31.978069 C 22.160133,31.978069 26.997745,27.140456 26.997745,27.140456 C 18.528582,18.264221 13.291696,25.230495 11.500037,31.436501 z"
     style="fill:#404040;"/>
  </a>
 </g>
</svg>

<style type='text/css'>
<![CDATA[
[data-mouse-over-selected='false'] { opacity: 0.7; }
[data-mouse-over-selected='true']  { opacity: 1.0; }
]]>
</style>
<script type="application/ecmascript"><![CDATA[
document.addEventListener('DOMContentLoaded', (event) => {
  highlightEdges();
  highlightAdjacentNodes();
});
]]></script>
</svg>
