<?xml version="1.0" encoding="UTF-8" standalone="no"?>
<!DOCTYPE svg PUBLIC "-//W3C//DTD SVG 1.1//EN"
 "http://www.w3.org/Graphics/SVG/1.1/DTD/svg11.dtd">
<!-- Generated by graphviz version 2.43.0 (0)
 -->
<!-- Title: no_os_uart_stdio Pages: 1 -->
<svg width="394pt" height="372pt"
 viewBox="0.00 0.00 394.00 371.50" xmlns="http://www.w3.org/2000/svg" xmlns:xlink="http://www.w3.org/1999/xlink">
<g id="graph0" class="graph" transform="scale(1 1) rotate(0) translate(4 367.5)">
<title>no_os_uart_stdio</title>
<!-- Node1 -->
<g id="Node000001" class="node">
<title>Node1</title>
<g id="a_Node000001"><a xlink:title=" ">
<polygon fill="#999999" stroke="#666666" points="386,-196.5 287,-196.5 287,-177.5 386,-177.5 386,-196.5"/>
<text text-anchor="middle" x="336.5" y="-184.5" font-family="Helvetica,sans-Serif" font-size="10.00">no_os_uart_stdio</text>
</a>
</g>
</g>
<!-- Node2 -->
<g id="Node000002" class="node">
<title>Node2</title>
<g id="a_Node000002"><a xlink:href="adin1110__standalone__example_8c.html#acbf661085a642e031f672cda6c6da4fe" target="_top" xlink:title="Configure the ADIN1110 and read the device ID.">
<polygon fill="white" stroke="#666666" points="224.5,-30 103.5,-30 103.5,0 224.5,0 224.5,-30"/>
<text text-anchor="start" x="111.5" y="-18" font-family="Helvetica,sans-Serif" font-size="10.00">adin1110_standalone</text>
<text text-anchor="middle" x="164" y="-7" font-family="Helvetica,sans-Serif" font-size="10.00">_example_main</text>
</a>
</g>
</g>
<!-- Node1&#45;&gt;Node2 -->
<g id="edge1_Node000001_Node000002" class="edge">
<title>Node1&#45;&gt;Node2</title>
<g id="a_edge1_Node000001_Node000002"><a xlink:title=" ">
<path fill="none" stroke="#63b8ff" d="M329.75,-167.48C319.36,-135.67 294.42,-72.84 251,-39 243.3,-33 234.18,-28.49 224.81,-25.12"/>
<polygon fill="#63b8ff" stroke="#63b8ff" points="326.5,-168.83 332.82,-177.33 333.19,-166.74 326.5,-168.83"/>
</a>
</g>
</g>
<!-- Node4 -->
<g id="Node000004" class="node">
<title>Node4</title>
<g id="a_Node000004"><a xlink:href="apard32690_2src_2examples_2basic__example_2basic__example_8c.html#a72943dc9011d36293cb05ca5d7cb6899" target="_top" xlink:title="Basic example main execution.">
<polygon fill="white" stroke="#666666" points="224,-326.5 104,-326.5 104,-307.5 224,-307.5 224,-326.5"/>
<text text-anchor="middle" x="164" y="-314.5" font-family="Helvetica,sans-Serif" font-size="10.00">basic_example_main</text>
</a>
</g>
</g>
<!-- Node1&#45;&gt;Node4 -->
<g id="edge3_Node000001_Node000004" class="edge">
<title>Node1&#45;&gt;Node4</title>
<g id="a_edge3_Node000001_Node000004"><a xlink:title=" ">
<path fill="none" stroke="#63b8ff" d="M326.57,-205.74C313.58,-230.86 287.05,-274.96 251,-298 242.88,-303.19 233.55,-306.97 224.1,-309.73"/>
<polygon fill="#63b8ff" stroke="#63b8ff" points="329.83,-207.05 331.15,-196.54 323.56,-203.93 329.83,-207.05"/>
</a>
</g>
</g>
<!-- Node5 -->
<g id="Node000005" class="node">
<title>Node5</title>
<g id="a_Node000005"><a xlink:href="max42500_2src_2examples_2basic_2basic__example_8c.html#ac5f0064cb4ac7ddab3ec02b10217b456" target="_top" xlink:title="basic example main execution.">
<polygon fill="white" stroke="#666666" points="224,-289.5 104,-289.5 104,-270.5 224,-270.5 224,-289.5"/>
<text text-anchor="middle" x="164" y="-277.5" font-family="Helvetica,sans-Serif" font-size="10.00">basic_example_main</text>
</a>
</g>
</g>
<!-- Node1&#45;&gt;Node5 -->
<g id="edge4_Node000001_Node000005" class="edge">
<title>Node1&#45;&gt;Node5</title>
<g id="a_edge4_Node000001_Node000005"><a xlink:title=" ">
<path fill="none" stroke="#63b8ff" d="M320.71,-204.25C305.12,-221.31 278.96,-246.85 251,-261 242.68,-265.21 233.44,-268.49 224.19,-271.05"/>
<polygon fill="#63b8ff" stroke="#63b8ff" points="323.45,-206.44 327.48,-196.64 318.22,-201.78 323.45,-206.44"/>
</a>
</g>
</g>
<!-- Node6 -->
<g id="Node000006" class="node">
<title>Node6</title>
<g id="a_Node000006"><a xlink:href="eval-pqmon_2src_2examples_2basic_2basic__example_8c.html#a1681c88b1933ada9b895fe6c81a8aac6" target="_top" xlink:title="PQM example main execution.">
<polygon fill="white" stroke="#666666" points="223,-363.5 105,-363.5 105,-344.5 223,-344.5 223,-363.5"/>
<text text-anchor="middle" x="164" y="-351.5" font-family="Helvetica,sans-Serif" font-size="10.00">basic_pqm_firmware</text>
</a>
</g>
</g>
<!-- Node1&#45;&gt;Node6 -->
<g id="edge5_Node000001_Node000006" class="edge">
<title>Node1&#45;&gt;Node6</title>
<g id="a_edge5_Node000001_Node000006"><a xlink:title=" ">
<path fill="none" stroke="#63b8ff" d="M330.18,-206.51C320.29,-238.85 295.9,-303.22 251,-336 242.87,-341.94 233.21,-346.01 223.36,-348.78"/>
<polygon fill="#63b8ff" stroke="#63b8ff" points="333.65,-207.1 333.08,-196.52 326.93,-205.14 333.65,-207.1"/>
</a>
</g>
</g>
<!-- Node8 -->
<g id="Node000008" class="node">
<title>Node8</title>
<g id="a_Node000008"><a xlink:href="ad74416h_2src_2examples_2basic_2basic__example_8c.html#ac25cbf8ae523e89cb0617e68c98bc697" target="_top" xlink:title="Basic example main execution.">
<polygon fill="white" stroke="#666666" points="208.5,-215.5 119.5,-215.5 119.5,-196.5 208.5,-196.5 208.5,-215.5"/>
<text text-anchor="middle" x="164" y="-203.5" font-family="Helvetica,sans-Serif" font-size="10.00">example_main</text>
</a>
</g>
</g>
<!-- Node1&#45;&gt;Node8 -->
<g id="edge7_Node000001_Node000008" class="edge">
<title>Node1&#45;&gt;Node8</title>
<g id="a_edge7_Node000001_Node000008"><a xlink:title=" ">
<path fill="none" stroke="#63b8ff" d="M276.6,-193.56C254.29,-196.05 229.3,-198.83 208.63,-201.14"/>
<polygon fill="#63b8ff" stroke="#63b8ff" points="277.09,-197.03 286.64,-192.44 276.32,-190.07 277.09,-197.03"/>
</a>
</g>
</g>
<!-- Node9 -->
<g id="Node000009" class="node">
<title>Node9</title>
<g id="a_Node000009"><a xlink:href="ltc7841_2src_2examples_2basic_2basic__example_8c.html#a423407bf3827741dfe2f6e0def8ba0c3" target="_top" xlink:title="Basic example main execution.">
<polygon fill="white" stroke="#666666" points="208.5,-178.5 119.5,-178.5 119.5,-159.5 208.5,-159.5 208.5,-178.5"/>
<text text-anchor="middle" x="164" y="-166.5" font-family="Helvetica,sans-Serif" font-size="10.00">example_main</text>
</a>
</g>
</g>
<!-- Node1&#45;&gt;Node9 -->
<g id="edge8_Node000001_Node000009" class="edge">
<title>Node1&#45;&gt;Node9</title>
<g id="a_edge8_Node000001_Node000009"><a xlink:title=" ">
<path fill="none" stroke="#63b8ff" d="M276.6,-180.78C254.29,-178.43 229.3,-175.79 208.63,-173.61"/>
<polygon fill="#63b8ff" stroke="#63b8ff" points="276.33,-184.27 286.64,-181.84 277.06,-177.31 276.33,-184.27"/>
</a>
</g>
</g>
<!-- Node10 -->
<g id="Node000010" class="node">
<title>Node10</title>
<g id="a_Node000010"><a xlink:href="ad-acevsecrdset-sl_2src_2main_8c.html#ae66f6b31b5ad750f1fe042a706a4e3d4" target="_top" xlink:title="Main function execution for Maxim platform.">
<polygon fill="white" stroke="#666666" points="184.5,-141.5 143.5,-141.5 143.5,-122.5 184.5,-122.5 184.5,-141.5"/>
<text text-anchor="middle" x="164" y="-129.5" font-family="Helvetica,sans-Serif" font-size="10.00">main</text>
</a>
</g>
</g>
<!-- Node1&#45;&gt;Node10 -->
<g id="edge9_Node000001_Node000010" class="edge">
<title>Node1&#45;&gt;Node10</title>
<g id="a_edge9_Node000001_Node000010"><a xlink:title=" ">
<path fill="none" stroke="#63b8ff" d="M307.4,-172.95C291.22,-165.31 270.33,-156.18 251,-150 228.77,-142.89 202.39,-137.85 184.77,-134.94"/>
<polygon fill="#63b8ff" stroke="#63b8ff" points="306.28,-176.29 316.8,-177.48 309.31,-169.99 306.28,-176.29"/>
</a>
</g>
</g>
<!-- Node11 -->
<g id="Node000011" class="node">
<title>Node11</title>
<g id="a_Node000011"><a xlink:href="aducm3029__flash__demo_2src_2main_8c.html#a0ddf1224851353fc92bfbff6f499fa97" target="_top" xlink:title="main">
<polygon fill="white" stroke="#666666" points="184.5,-104.5 143.5,-104.5 143.5,-85.5 184.5,-85.5 184.5,-104.5"/>
<text text-anchor="middle" x="164" y="-92.5" font-family="Helvetica,sans-Serif" font-size="10.00">main</text>
</a>
</g>
</g>
<!-- Node1&#45;&gt;Node11 -->
<g id="edge10_Node000001_Node000011" class="edge">
<title>Node1&#45;&gt;Node11</title>
<g id="a_edge10_Node000001_Node000011"><a xlink:title=" ">
<path fill="none" stroke="#63b8ff" d="M320.75,-169.69C305.18,-152.58 279.04,-126.99 251,-113 229.84,-102.44 202.78,-98.07 184.72,-96.27"/>
<polygon fill="#63b8ff" stroke="#63b8ff" points="318.25,-172.15 327.5,-177.32 323.5,-167.51 318.25,-172.15"/>
</a>
</g>
</g>
<!-- Node12 -->
<g id="Node000012" class="node">
<title>Node12</title>
<g id="a_Node000012"><a xlink:href="ad7746-ebz_2src_2app_2headless_8c.html#a840291bc02cba5474a4cb46a9b9566fe" target="_top" xlink:title=" ">
<polygon fill="white" stroke="#666666" points="184.5,-67.5 143.5,-67.5 143.5,-48.5 184.5,-48.5 184.5,-67.5"/>
<text text-anchor="middle" x="164" y="-55.5" font-family="Helvetica,sans-Serif" font-size="10.00">main</text>
</a>
</g>
</g>
<!-- Node1&#45;&gt;Node12 -->
<g id="edge11_Node000001_Node000012" class="edge">
<title>Node1&#45;&gt;Node12</title>
<g id="a_edge11_Node000001_Node000012"><a xlink:title=" ">
<path fill="none" stroke="#63b8ff" d="M326.61,-168.21C313.66,-143.02 287.18,-98.84 251,-76 230.75,-63.21 202.99,-59.34 184.55,-58.26"/>
<polygon fill="#63b8ff" stroke="#63b8ff" points="323.6,-170.02 331.17,-177.43 329.87,-166.92 323.6,-170.02"/>
</a>
</g>
</g>
<!-- Node13 -->
<g id="Node000013" class="node">
<title>Node13</title>
<g id="a_Node000013"><a xlink:href="tcp__echo__server__example_8c.html#a71a933205bd5c61d181123850b2c6e9b" target="_top" xlink:title="TCP echo example main execution.">
<polygon fill="white" stroke="#666666" points="251,-252.5 77,-252.5 77,-233.5 251,-233.5 251,-252.5"/>
<text text-anchor="middle" x="164" y="-240.5" font-family="Helvetica,sans-Serif" font-size="10.00">tcp_echo_server_example_main</text>
</a>
</g>
</g>
<!-- Node1&#45;&gt;Node13 -->
<g id="edge12_Node000001_Node000013" class="edge">
<title>Node1&#45;&gt;Node13</title>
<g id="a_edge12_Node000001_Node000013"><a xlink:title=" ">
<path fill="none" stroke="#63b8ff" d="M307.05,-201.12C290.91,-208.7 270.17,-217.75 251,-224 239.81,-227.65 227.57,-230.82 215.92,-233.47"/>
<polygon fill="#63b8ff" stroke="#63b8ff" points="308.94,-204.1 316.45,-196.62 305.92,-197.78 308.94,-204.1"/>
</a>
</g>
</g>
<!-- Node3 -->
<g id="Node000003" class="node">
<title>Node3</title>
<g id="a_Node000003"><a xlink:href="apard32690_2src_2examples_2main_8c.html#ae66f6b31b5ad750f1fe042a706a4e3d4" target="_top" xlink:title="Main function execution.">
<polygon fill="white" stroke="#666666" points="41,-138.5 0,-138.5 0,-119.5 41,-119.5 41,-138.5"/>
<text text-anchor="middle" x="20.5" y="-126.5" font-family="Helvetica,sans-Serif" font-size="10.00">main</text>
</a>
</g>
</g>
<!-- Node2&#45;&gt;Node3 -->
<g id="edge2_Node000002_Node000003" class="edge">
<title>Node2&#45;&gt;Node3</title>
<g id="a_edge2_Node000002_Node000003"><a xlink:title=" ">
<path fill="none" stroke="#63b8ff" d="M93.81,-29.2C87.83,-31.91 82.12,-35.15 77,-39 48.55,-60.42 31.34,-101.06 24.68,-119.49"/>
<polygon fill="#63b8ff" stroke="#63b8ff" points="95.4,-32.33 103.37,-25.34 92.78,-25.83 95.4,-32.33"/>
</a>
</g>
</g>
<!-- Node7 -->
<g id="Node000007" class="node">
<title>Node7</title>
<g id="a_Node000007"><a xlink:href="eval-pqmon_2src_2platform_2maxim_2main_8c.html#ae66f6b31b5ad750f1fe042a706a4e3d4" target="_top" xlink:title="Main function that executes on Maxim platform.">
<polygon fill="white" stroke="#666666" points="41,-363.5 0,-363.5 0,-344.5 41,-344.5 41,-363.5"/>
<text text-anchor="middle" x="20.5" y="-351.5" font-family="Helvetica,sans-Serif" font-size="10.00">main</text>
</a>
</g>
</g>
<!-- Node6&#45;&gt;Node7 -->
<g id="edge6_Node000006_Node000007" class="edge">
<title>Node6&#45;&gt;Node7</title>
<g id="a_edge6_Node000006_Node000007"><a xlink:title=" ">
<path fill="none" stroke="#63b8ff" d="M94.44,-354C74.86,-354 55.06,-354 41.04,-354"/>
<polygon fill="#63b8ff" stroke="#63b8ff" points="94.63,-357.5 104.63,-354 94.63,-350.5 94.63,-357.5"/>
</a>
</g>
</g>
<!-- Node13&#45;&gt;Node3 -->
<g id="edge13_Node000013_Node000003" class="edge">
<title>Node13&#45;&gt;Node3</title>
<g id="a_edge13_Node000013_Node000003"><a xlink:title=" ">
<path fill="none" stroke="#63b8ff" d="M85.41,-229.25C82.47,-227.68 79.66,-225.94 77,-224 46.74,-201.95 30.28,-157.98 24.23,-138.58"/>
<polygon fill="#63b8ff" stroke="#63b8ff" points="83.96,-232.44 94.5,-233.47 86.9,-226.09 83.96,-232.44"/>
</a>
</g>
</g>
</g>
</svg>
