<?xml version="1.0" encoding="UTF-8" standalone="no"?>
<!DOCTYPE svg PUBLIC "-//W3C//DTD SVG 1.1//EN"
 "http://www.w3.org/Graphics/SVG/1.1/DTD/svg11.dtd">
<!-- Generated by graphviz version 2.43.0 (0)
 -->
<!-- Title: include/no_os_init.h Pages: 1 -->
<!--zoomable 93 -->

<svg id="main" version="1.1" xmlns="http://www.w3.org/2000/svg" xmlns:xlink="http://www.w3.org/1999/xlink" xml:space="preserve" onload="init(evt)">

<style type="text/css"><![CDATA[
.node, .edge {opacity: 0.7;}
.node.selected, .edge.selected {opacity: 1;}
.edge:hover path { stroke: red; }
.edge:hover polygon { stroke: red; fill: red; }
]]></style>

<defs>
  <circle id="rim" cx="0" cy="0" r="7"/>
  <circle id="rim2" cx="0" cy="0" r="3.5"/>
  <g id="zoomPlus">
    <use xlink:href="#rim" fill="#404040"><set attributeName="fill" to="#808080" begin="zoomplus.mouseover" end="zoomplus.mouseout"/></use>
    <path d="M-4,0h8M0,-4v8" fill="none" stroke="white" stroke-width="1.5" pointer-events="none"/>
  </g>
  <g id="zoomMin">
    <use xlink:href="#rim" fill="#404040"><set attributeName="fill" to="#808080" begin="zoomminus.mouseover" end="zoomminus.mouseout"/></use>
    <path d="M-4,0h8" fill="none" stroke="white" stroke-width="1.5" pointer-events="none"/>
  </g>
  <g id="arrowUp" transform="translate(30 24)">
    <use xlink:href="#rim"/>
    <path pointer-events="none" fill="none" stroke="white" stroke-width="1.5" d="M0,-3.0v7 M-2.5,-0.5L0,-3.0L2.5,-0.5"/>
  </g>
  <g id="arrowRight" transform="rotate(90) translate(36 -43)">
    <use xlink:href="#rim"/>
    <path pointer-events="none" fill="none" stroke="white" stroke-width="1.5" d="M0,-3.0v7 M-2.5,-0.5L0,-3.0L2.5,-0.5"/>
  </g>
  <g id="arrowDown" transform="rotate(180) translate(-30 -48)">
    <use xlink:href="#rim"/>
    <path pointer-events="none" fill="none" stroke="white" stroke-width="1.5" d="M0,-3.0v7 M-2.5,-0.5L0,-3.0L2.5,-0.5"/>
  </g>
  <g id="arrowLeft" transform="rotate(270) translate(-36 17)">
    <use xlink:href="#rim"/>
    <path pointer-events="none" fill="none" stroke="white" stroke-width="1.5" d="M0,-3.0v7 M-2.5,-0.5L0,-3.0L2.5,-0.5"/>
  </g>
  <g id="resetDef">
    <use xlink:href="#rim2" fill="#404040"><set attributeName="fill" to="#808080" begin="reset.mouseover" end="reset.mouseout"/></use>
  </g>
</defs>
<script type="application/ecmascript">
var viewWidth = 1535;
var viewHeight = 93;
var sectionId = 'dynsection-0';
</script>
<script type="application/ecmascript" xlink:href="svg.min.js"/>
<svg id="graph" class="graph">
<g id="viewport">
<title>include/no_os_init.h</title>
<!-- Node1 -->
<g id="Node000001" class="node">
<title>Node1</title>
<g id="a_Node000001"><a xlink:title=" ">
<polygon fill="#999999" stroke="#666666" points="827.5,-85 714.5,-85 714.5,-66 827.5,-66 827.5,-85"/>
<text text-anchor="middle" x="771" y="-73" font-family="Helvetica,sans-Serif" font-size="10.00">include/no_os_init.h</text>
</a>
</g>
</g>
<!-- Node2 -->
<g id="Node000002" class="node">
<title>Node2</title>
<g id="a_Node000002"><a xlink:href="max32650_2maxim__init_8c.html" target="_top" xlink:title=" ">
<polygon fill="white" stroke="#666666" points="138,-30 0,-30 0,0 138,0 138,-30"/>
<text text-anchor="start" x="8" y="-18" font-family="Helvetica,sans-Serif" font-size="10.00">drivers/platform/maxim</text>
<text text-anchor="middle" x="69" y="-7" font-family="Helvetica,sans-Serif" font-size="10.00">/max32650/maxim_init.c</text>
</a>
</g>
</g>
<!-- Node1&#45;&gt;Node2 -->
<g id="edge1_Node000001_Node000002" class="edge">
<title>Node1&#45;&gt;Node2</title>
<g id="a_edge1_Node000001_Node000002"><a xlink:title=" ">
<path fill="none" stroke="#63b8ff" d="M704.44,-72.08C590.1,-67.4 349.16,-55.28 147,-30 144.13,-29.64 141.21,-29.25 138.26,-28.83"/>
<polygon fill="#63b8ff" stroke="#63b8ff" points="704.31,-75.58 714.44,-72.48 704.59,-68.58 704.31,-75.58"/>
</a>
</g>
</g>
<!-- Node3 -->
<g id="Node000003" class="node">
<title>Node3</title>
<g id="a_Node000003"><a xlink:href="max32655_2maxim__init_8c.html" target="_top" xlink:title=" ">
<polygon fill="white" stroke="#666666" points="294,-30 156,-30 156,0 294,0 294,-30"/>
<text text-anchor="start" x="164" y="-18" font-family="Helvetica,sans-Serif" font-size="10.00">drivers/platform/maxim</text>
<text text-anchor="middle" x="225" y="-7" font-family="Helvetica,sans-Serif" font-size="10.00">/max32655/maxim_init.c</text>
</a>
</g>
</g>
<!-- Node1&#45;&gt;Node3 -->
<g id="edge2_Node000001_Node000003" class="edge">
<title>Node1&#45;&gt;Node3</title>
<g id="a_edge2_Node000001_Node000003"><a xlink:title=" ">
<path fill="none" stroke="#63b8ff" d="M704.1,-69.89C613.09,-63.22 445.29,-49.5 303,-30 300.14,-29.61 297.22,-29.19 294.28,-28.74"/>
<polygon fill="#63b8ff" stroke="#63b8ff" points="704.05,-73.39 714.27,-70.63 704.55,-66.41 704.05,-73.39"/>
</a>
</g>
</g>
<!-- Node4 -->
<g id="Node000004" class="node">
<title>Node4</title>
<g id="a_Node000004"><a xlink:href="max32660_2maxim__init_8c.html" target="_top" xlink:title=" ">
<polygon fill="white" stroke="#666666" points="450,-30 312,-30 312,0 450,0 450,-30"/>
<text text-anchor="start" x="320" y="-18" font-family="Helvetica,sans-Serif" font-size="10.00">drivers/platform/maxim</text>
<text text-anchor="middle" x="381" y="-7" font-family="Helvetica,sans-Serif" font-size="10.00">/max32660/maxim_init.c</text>
</a>
</g>
</g>
<!-- Node1&#45;&gt;Node4 -->
<g id="edge3_Node000001_Node000004" class="edge">
<title>Node1&#45;&gt;Node4</title>
<g id="a_edge3_Node000001_Node000004"><a xlink:title=" ">
<path fill="none" stroke="#63b8ff" d="M704.02,-65.66C640.77,-57.14 543.3,-43.57 459,-30 456.15,-29.54 453.24,-29.06 450.3,-28.57"/>
<polygon fill="#63b8ff" stroke="#63b8ff" points="703.88,-69.17 714.26,-67.03 704.81,-62.23 703.88,-69.17"/>
</a>
</g>
</g>
<!-- Node5 -->
<g id="Node000005" class="node">
<title>Node5</title>
<g id="a_Node000005"><a xlink:href="max32662_2maxim__init_8c.html" target="_top" xlink:title=" ">
<polygon fill="white" stroke="#666666" points="606,-30 468,-30 468,0 606,0 606,-30"/>
<text text-anchor="start" x="476" y="-18" font-family="Helvetica,sans-Serif" font-size="10.00">drivers/platform/maxim</text>
<text text-anchor="middle" x="537" y="-7" font-family="Helvetica,sans-Serif" font-size="10.00">/max32662/maxim_init.c</text>
</a>
</g>
</g>
<!-- Node1&#45;&gt;Node5 -->
<g id="edge4_Node000001_Node000005" class="edge">
<title>Node1&#45;&gt;Node5</title>
<g id="a_edge4_Node000001_Node000005"><a xlink:title=" ">
<path fill="none" stroke="#63b8ff" d="M727.26,-63.56C689.39,-54.1 634.39,-40.35 593.26,-30.06"/>
<polygon fill="#63b8ff" stroke="#63b8ff" points="726.42,-66.96 736.97,-65.99 728.12,-60.17 726.42,-66.96"/>
</a>
</g>
</g>
<!-- Node6 -->
<g id="Node000006" class="node">
<title>Node6</title>
<g id="a_Node000006"><a xlink:href="max32665_2maxim__init_8c.html" target="_top" xlink:title=" ">
<polygon fill="white" stroke="#666666" points="762,-30 624,-30 624,0 762,0 762,-30"/>
<text text-anchor="start" x="632" y="-18" font-family="Helvetica,sans-Serif" font-size="10.00">drivers/platform/maxim</text>
<text text-anchor="middle" x="693" y="-7" font-family="Helvetica,sans-Serif" font-size="10.00">/max32665/maxim_init.c</text>
</a>
</g>
</g>
<!-- Node1&#45;&gt;Node6 -->
<g id="edge5_Node000001_Node000006" class="edge">
<title>Node1&#45;&gt;Node6</title>
<g id="a_edge5_Node000001_Node000006"><a xlink:title=" ">
<path fill="none" stroke="#63b8ff" d="M751.36,-59.77C739.24,-50.68 723.78,-39.09 711.82,-30.11"/>
<polygon fill="#63b8ff" stroke="#63b8ff" points="749.39,-62.67 759.49,-65.87 753.59,-57.07 749.39,-62.67"/>
</a>
</g>
</g>
<!-- Node7 -->
<g id="Node000007" class="node">
<title>Node7</title>
<g id="a_Node000007"><a xlink:href="max32670_2maxim__init_8c.html" target="_top" xlink:title=" ">
<polygon fill="white" stroke="#666666" points="918,-30 780,-30 780,0 918,0 918,-30"/>
<text text-anchor="start" x="788" y="-18" font-family="Helvetica,sans-Serif" font-size="10.00">drivers/platform/maxim</text>
<text text-anchor="middle" x="849" y="-7" font-family="Helvetica,sans-Serif" font-size="10.00">/max32670/maxim_init.c</text>
</a>
</g>
</g>
<!-- Node1&#45;&gt;Node7 -->
<g id="edge6_Node000001_Node000007" class="edge">
<title>Node1&#45;&gt;Node7</title>
<g id="a_edge6_Node000001_Node000007"><a xlink:title=" ">
<path fill="none" stroke="#63b8ff" d="M790.64,-59.77C802.76,-50.68 818.22,-39.09 830.18,-30.11"/>
<polygon fill="#63b8ff" stroke="#63b8ff" points="788.41,-57.07 782.51,-65.87 792.61,-62.67 788.41,-57.07"/>
</a>
</g>
</g>
<!-- Node8 -->
<g id="Node000008" class="node">
<title>Node8</title>
<g id="a_Node000008"><a xlink:href="max32690_2maxim__init_8c.html" target="_top" xlink:title=" ">
<polygon fill="white" stroke="#666666" points="1074,-30 936,-30 936,0 1074,0 1074,-30"/>
<text text-anchor="start" x="944" y="-18" font-family="Helvetica,sans-Serif" font-size="10.00">drivers/platform/maxim</text>
<text text-anchor="middle" x="1005" y="-7" font-family="Helvetica,sans-Serif" font-size="10.00">/max32690/maxim_init.c</text>
</a>
</g>
</g>
<!-- Node1&#45;&gt;Node8 -->
<g id="edge7_Node000001_Node000008" class="edge">
<title>Node1&#45;&gt;Node8</title>
<g id="a_edge7_Node000001_Node000008"><a xlink:title=" ">
<path fill="none" stroke="#63b8ff" d="M814.74,-63.56C852.61,-54.1 907.61,-40.35 948.74,-30.06"/>
<polygon fill="#63b8ff" stroke="#63b8ff" points="813.88,-60.17 805.03,-65.99 815.58,-66.96 813.88,-60.17"/>
</a>
</g>
</g>
<!-- Node9 -->
<g id="Node000009" class="node">
<title>Node9</title>
<g id="a_Node000009"><a xlink:href="max78000_2maxim__init_8c.html" target="_top" xlink:title=" ">
<polygon fill="white" stroke="#666666" points="1230,-30 1092,-30 1092,0 1230,0 1230,-30"/>
<text text-anchor="start" x="1100" y="-18" font-family="Helvetica,sans-Serif" font-size="10.00">drivers/platform/maxim</text>
<text text-anchor="middle" x="1161" y="-7" font-family="Helvetica,sans-Serif" font-size="10.00">/max78000/maxim_init.c</text>
</a>
</g>
</g>
<!-- Node1&#45;&gt;Node9 -->
<g id="edge8_Node000001_Node000009" class="edge">
<title>Node1&#45;&gt;Node9</title>
<g id="a_edge8_Node000001_Node000009"><a xlink:title=" ">
<path fill="none" stroke="#63b8ff" d="M837.98,-65.66C901.23,-57.14 998.7,-43.57 1083,-30 1085.85,-29.54 1088.76,-29.06 1091.7,-28.57"/>
<polygon fill="#63b8ff" stroke="#63b8ff" points="837.19,-62.23 827.74,-67.03 838.12,-69.17 837.19,-62.23"/>
</a>
</g>
</g>
<!-- Node10 -->
<g id="Node000010" class="node">
<title>Node10</title>
<g id="a_Node000010"><a xlink:href="ad-acevsecrdset-sl_2src_2main_8c.html" target="_top" xlink:title="Main file for the stout project. This includes general initialization routines for the uC.">
<polygon fill="white" stroke="#666666" points="1387.5,-30 1248.5,-30 1248.5,0 1387.5,0 1387.5,-30"/>
<text text-anchor="start" x="1256.5" y="-18" font-family="Helvetica,sans-Serif" font-size="10.00">projects/ad&#45;acevsecrdset</text>
<text text-anchor="middle" x="1318" y="-7" font-family="Helvetica,sans-Serif" font-size="10.00">&#45;sl/src/main.c</text>
</a>
</g>
</g>
<!-- Node1&#45;&gt;Node10 -->
<g id="edge9_Node000001_Node000010" class="edge">
<title>Node1&#45;&gt;Node10</title>
<g id="a_edge9_Node000001_Node000010"><a xlink:title=" ">
<path fill="none" stroke="#63b8ff" d="M837.89,-69.84C928.9,-63.12 1096.69,-49.34 1239,-30 1242.04,-29.59 1245.13,-29.14 1248.26,-28.67"/>
<polygon fill="#63b8ff" stroke="#63b8ff" points="837.44,-66.37 827.72,-70.59 837.95,-73.35 837.44,-66.37"/>
</a>
</g>
</g>
<!-- Node11 -->
<g id="Node000011" class="node">
<title>Node11</title>
<g id="a_Node000011"><a xlink:href="apard32690_2src_2examples_2main_8c.html" target="_top" xlink:title="Main file for the apard32690 project.">
<polygon fill="white" stroke="#666666" points="1526.5,-30 1405.5,-30 1405.5,0 1526.5,0 1526.5,-30"/>
<text text-anchor="start" x="1413.5" y="-18" font-family="Helvetica,sans-Serif" font-size="10.00">projects/apard32690</text>
<text text-anchor="middle" x="1466" y="-7" font-family="Helvetica,sans-Serif" font-size="10.00">/src/examples/main.c</text>
</a>
</g>
</g>
<!-- Node1&#45;&gt;Node11 -->
<g id="edge10_Node000001_Node000011" class="edge">
<title>Node1&#45;&gt;Node11</title>
<g id="a_edge10_Node000001_Node000011"><a xlink:title=" ">
<path fill="none" stroke="#63b8ff" d="M837.84,-72.58C952.64,-68.66 1194.49,-57.62 1397,-30 1399.79,-29.62 1402.63,-29.2 1405.49,-28.74"/>
<polygon fill="#63b8ff" stroke="#63b8ff" points="837.67,-69.09 827.79,-72.92 837.9,-76.08 837.67,-69.09"/>
</a>
</g>
</g>
</g>
</svg>

<g id="navigator" transform="translate(0 0)" fill="#404254">
  <rect fill="#f2f5e9" fill-opacity="0.5" stroke="#606060" stroke-width=".5" x="0" y="0" width="60" height="60"/>
  <use id="zoomplus" xlink:href="#zoomPlus" x="17" y="9" onmousedown="handleZoom(evt,'in')"/>
  <use id="zoomminus" xlink:href="#zoomMin" x="42" y="9" onmousedown="handleZoom(evt,'out')"/>
  <use id="reset" xlink:href="#resetDef" x="30" y="36" onmousedown="handleReset()"/>
   <use id="arrowup" xlink:href="#arrowUp" x="0" y="0" onmousedown="handlePan(0,-1)"/>
  <use id="arrowright" xlink:href="#arrowRight" x="0" y="0" onmousedown="handlePan(1,0)"/>
  <use id="arrowdown" xlink:href="#arrowDown" x="0" y="0" onmousedown="handlePan(0,1)"/>
  <use id="arrowleft" xlink:href="#arrowLeft" x="0" y="0" onmousedown="handlePan(-1,0)"/>
</g>
<svg viewBox="0 0 15 15" width="100%" height="30px" preserveAspectRatio="xMaxYMin meet">
 <g id="arrow_out" transform="scale(0.3 0.3)">
  <a xlink:href="no__os__init_8h__dep__incl_org.svg" target="_base">
   <rect id="button" ry="5" rx="5" y="6" x="6" height="38" width="38"
        fill="#f2f5e9" fill-opacity="0.5" stroke="#606060" stroke-width="1.0"/>
   <path id="arrow"
     d="M 11.500037,31.436501 C 11.940474,20.09759 22.043105,11.32322 32.158766,21.979434 L 37.068811,17.246167 C 37.068811,17.246167 37.088388,32 37.088388,32 L 22.160133,31.978069 C 22.160133,31.978069 26.997745,27.140456 26.997745,27.140456 C 18.528582,18.264221 13.291696,25.230495 11.500037,31.436501 z"
     style="fill:#404040;"/>
  </a>
 </g>
</svg>

<style type='text/css'>
<![CDATA[
[data-mouse-over-selected='false'] { opacity: 0.7; }
[data-mouse-over-selected='true']  { opacity: 1.0; }
]]>
</style>
<script type="application/ecmascript"><![CDATA[
document.addEventListener('DOMContentLoaded', (event) => {
  highlightEdges();
  highlightAdjacentNodes();
});
]]></script>
</svg>
