<?xml version="1.0" encoding="UTF-8" standalone="no"?>
<!DOCTYPE svg PUBLIC "-//W3C//DTD SVG 1.1//EN"
 "http://www.w3.org/Graphics/SVG/1.1/DTD/svg11.dtd">
<!-- Generated by graphviz version 2.43.0 (0)
 -->
<!-- Title: include/no_os_crc8.h Pages: 1 -->
<svg width="3344pt" height="236pt"
 viewBox="0.00 0.00 3344.00 236.00" xmlns="http://www.w3.org/2000/svg" xmlns:xlink="http://www.w3.org/1999/xlink">
<g id="graph0" class="graph" transform="scale(1 1) rotate(0) translate(4 232)">
<title>include/no_os_crc8.h</title>
<!-- Node1 -->
<g id="Node000001" class="node">
<title>Node1</title>
<g id="a_Node000001"><a xlink:title="Header file of CRC&#45;8 computation.">
<polygon fill="#999999" stroke="#666666" points="1722,-228 1604,-228 1604,-209 1722,-209 1722,-228"/>
<text text-anchor="middle" x="1663" y="-216" font-family="Helvetica,sans-Serif" font-size="10.00">include/no_os_crc8.h</text>
</a>
</g>
</g>
<!-- Node2 -->
<g id="Node000002" class="node">
<title>Node2</title>
<g id="a_Node000002"><a xlink:href="ad74413r_8c.html" target="_top" xlink:title="Source file of AD74413r Driver.">
<polygon fill="white" stroke="#666666" points="140,-173 0,-173 0,-143 140,-143 140,-173"/>
<text text-anchor="start" x="8" y="-161" font-family="Helvetica,sans-Serif" font-size="10.00">drivers/adc&#45;dac/ad74413r</text>
<text text-anchor="middle" x="70" y="-150" font-family="Helvetica,sans-Serif" font-size="10.00">/ad74413r.c</text>
</a>
</g>
</g>
<!-- Node1&#45;&gt;Node2 -->
<g id="edge1_Node000001_Node000002" class="edge">
<title>Node1&#45;&gt;Node2</title>
<g id="a_edge1_Node000001_Node000002"><a xlink:title=" ">
<path fill="none" stroke="#63b8ff" d="M1593.35,-216.8C1335.42,-214.02 434.74,-202.36 149,-173 146.09,-172.7 143.13,-172.36 140.14,-171.98"/>
<polygon fill="#63b8ff" stroke="#63b8ff" points="1593.67,-220.31 1603.71,-216.92 1593.74,-213.31 1593.67,-220.31"/>
</a>
</g>
</g>
<!-- Node3 -->
<g id="Node000003" class="node">
<title>Node3</title>
<g id="a_Node000003"><a xlink:href="ad74416h_8c.html" target="_top" xlink:title="Source file of AD74416H Driver.">
<polygon fill="white" stroke="#666666" points="301.5,-173 158.5,-173 158.5,-143 301.5,-143 301.5,-173"/>
<text text-anchor="start" x="166.5" y="-161" font-family="Helvetica,sans-Serif" font-size="10.00">drivers/adc&#45;dac/ad74416h</text>
<text text-anchor="middle" x="230" y="-150" font-family="Helvetica,sans-Serif" font-size="10.00">/ad74416h.c</text>
</a>
</g>
</g>
<!-- Node1&#45;&gt;Node3 -->
<g id="edge2_Node000001_Node000003" class="edge">
<title>Node1&#45;&gt;Node3</title>
<g id="a_edge2_Node000001_Node000003"><a xlink:title=" ">
<path fill="none" stroke="#63b8ff" d="M1593.31,-216.48C1353.54,-212.77 563.51,-198.85 311,-173 308.02,-172.69 304.98,-172.35 301.92,-171.96"/>
<polygon fill="#63b8ff" stroke="#63b8ff" points="1593.58,-219.99 1603.64,-216.64 1593.69,-212.99 1593.58,-219.99"/>
</a>
</g>
</g>
<!-- Node4 -->
<g id="Node000004" class="node">
<title>Node4</title>
<g id="a_Node000004"><a xlink:href="ad4170_8c.html" target="_top" xlink:title="Source file for the AD4170, AD4190 driver.">
<polygon fill="white" stroke="#666666" points="430,-173 320,-173 320,-143 430,-143 430,-173"/>
<text text-anchor="start" x="328" y="-161" font-family="Helvetica,sans-Serif" font-size="10.00">drivers/adc/ad4170</text>
<text text-anchor="middle" x="375" y="-150" font-family="Helvetica,sans-Serif" font-size="10.00">/ad4170.c</text>
</a>
</g>
</g>
<!-- Node1&#45;&gt;Node4 -->
<g id="edge3_Node000001_Node000004" class="edge">
<title>Node1&#45;&gt;Node4</title>
<g id="a_edge3_Node000001_Node000004"><a xlink:title=" ">
<path fill="none" stroke="#63b8ff" d="M1593.52,-216.61C1369.06,-213.48 664.83,-201.57 439,-173 436.07,-172.63 433.07,-172.19 430.05,-171.7"/>
<polygon fill="#63b8ff" stroke="#63b8ff" points="1593.79,-220.11 1603.84,-216.75 1593.89,-213.11 1593.79,-220.11"/>
</a>
</g>
</g>
<!-- Node5 -->
<g id="Node000005" class="node">
<title>Node5</title>
<g id="a_Node000005"><a xlink:href="ad413x_8c.html" target="_top" xlink:title="Implementation of AD413X Driver.">
<polygon fill="white" stroke="#666666" points="556,-173 448,-173 448,-143 556,-143 556,-173"/>
<text text-anchor="start" x="456" y="-161" font-family="Helvetica,sans-Serif" font-size="10.00">drivers/afe/ad413x</text>
<text text-anchor="middle" x="502" y="-150" font-family="Helvetica,sans-Serif" font-size="10.00">/ad413x.c</text>
</a>
</g>
</g>
<!-- Node1&#45;&gt;Node5 -->
<g id="edge4_Node000001_Node000005" class="edge">
<title>Node1&#45;&gt;Node5</title>
<g id="a_edge4_Node000001_Node000005"><a xlink:title=" ">
<path fill="none" stroke="#63b8ff" d="M1593.66,-216.31C1385.04,-212.46 765.23,-199.09 565,-173 562.11,-172.62 559.16,-172.18 556.19,-171.68"/>
<polygon fill="#63b8ff" stroke="#63b8ff" points="1593.81,-219.81 1603.87,-216.49 1593.94,-212.81 1593.81,-219.81"/>
</a>
</g>
</g>
<!-- Node6 -->
<g id="Node000006" class="node">
<title>Node6</title>
<g id="a_Node000006"><a xlink:href="ad3530r_8h.html" target="_top" xlink:title=" ">
<polygon fill="white" stroke="#666666" points="687.5,-173 574.5,-173 574.5,-143 687.5,-143 687.5,-173"/>
<text text-anchor="start" x="582.5" y="-161" font-family="Helvetica,sans-Serif" font-size="10.00">drivers/dac/ad3530r</text>
<text text-anchor="middle" x="631" y="-150" font-family="Helvetica,sans-Serif" font-size="10.00">/ad3530r.h</text>
</a>
</g>
</g>
<!-- Node1&#45;&gt;Node6 -->
<g id="edge5_Node000001_Node000006" class="edge">
<title>Node1&#45;&gt;Node6</title>
<g id="a_edge5_Node000001_Node000006"><a xlink:title=" ">
<path fill="none" stroke="#63b8ff" d="M1593.7,-218.25C1434.44,-219.1 1030.32,-216.39 696,-173 693.25,-172.64 690.45,-172.23 687.62,-171.78"/>
<polygon fill="#63b8ff" stroke="#63b8ff" points="1593.86,-221.75 1603.84,-218.18 1593.81,-214.75 1593.86,-221.75"/>
</a>
</g>
</g>
<!-- Node8 -->
<g id="Node000008" class="node">
<title>Node8</title>
<g id="a_Node000008"><a xlink:href="ad3552r_8h.html" target="_top" xlink:title="Header file of ad3552r Driver.">
<polygon fill="white" stroke="#666666" points="818.5,-173 705.5,-173 705.5,-143 818.5,-143 818.5,-173"/>
<text text-anchor="start" x="713.5" y="-161" font-family="Helvetica,sans-Serif" font-size="10.00">drivers/dac/ad3552r</text>
<text text-anchor="middle" x="762" y="-150" font-family="Helvetica,sans-Serif" font-size="10.00">/ad3552r.h</text>
</a>
</g>
</g>
<!-- Node1&#45;&gt;Node8 -->
<g id="edge7_Node000001_Node000008" class="edge">
<title>Node1&#45;&gt;Node8</title>
<g id="a_edge7_Node000001_Node000008"><a xlink:title=" ">
<path fill="none" stroke="#63b8ff" d="M1593.59,-217.44C1450.01,-216.53 1110.23,-210.22 828,-173 824.98,-172.6 821.89,-172.14 818.78,-171.63"/>
<polygon fill="#63b8ff" stroke="#63b8ff" points="1593.97,-220.95 1603.99,-217.5 1594.01,-213.95 1593.97,-220.95"/>
</a>
</g>
</g>
<!-- Node16 -->
<g id="Node000016" class="node">
<title>Node16</title>
<g id="a_Node000016"><a xlink:href="ad5460_8c.html" target="_top" xlink:title="Source file of AD5460 Driver.">
<polygon fill="white" stroke="#666666" points="947,-173 837,-173 837,-143 947,-143 947,-173"/>
<text text-anchor="start" x="845" y="-161" font-family="Helvetica,sans-Serif" font-size="10.00">drivers/dac/ad5460</text>
<text text-anchor="middle" x="892" y="-150" font-family="Helvetica,sans-Serif" font-size="10.00">/ad5460.c</text>
</a>
</g>
</g>
<!-- Node1&#45;&gt;Node16 -->
<g id="edge16_Node000001_Node000016" class="edge">
<title>Node1&#45;&gt;Node16</title>
<g id="a_edge16_Node000001_Node000016"><a xlink:title=" ">
<path fill="none" stroke="#63b8ff" d="M1593.2,-216.63C1465.93,-214.26 1187.9,-205.47 956,-173 953.07,-172.59 950.08,-172.12 947.06,-171.6"/>
<polygon fill="#63b8ff" stroke="#63b8ff" points="1593.51,-220.13 1603.57,-216.81 1593.63,-213.13 1593.51,-220.13"/>
</a>
</g>
</g>
<!-- Node17 -->
<g id="Node000017" class="node">
<title>Node17</title>
<g id="a_Node000017"><a xlink:href="ad5710r_8h.html" target="_top" xlink:title="Header file of ad5710r Driver.">
<polygon fill="white" stroke="#666666" points="1078.5,-173 965.5,-173 965.5,-143 1078.5,-143 1078.5,-173"/>
<text text-anchor="start" x="973.5" y="-161" font-family="Helvetica,sans-Serif" font-size="10.00">drivers/dac/ad5710r</text>
<text text-anchor="middle" x="1022" y="-150" font-family="Helvetica,sans-Serif" font-size="10.00">/ad5710r.h</text>
</a>
</g>
</g>
<!-- Node1&#45;&gt;Node17 -->
<g id="edge17_Node000001_Node000017" class="edge">
<title>Node1&#45;&gt;Node17</title>
<g id="a_edge17_Node000001_Node000017"><a xlink:title=" ">
<path fill="none" stroke="#63b8ff" d="M1593.67,-215.17C1485.14,-210.84 1268.72,-199.47 1087,-173 1084.26,-172.6 1081.46,-172.15 1078.64,-171.67"/>
<polygon fill="#63b8ff" stroke="#63b8ff" points="1593.71,-218.67 1603.84,-215.57 1593.98,-211.68 1593.71,-218.67"/>
</a>
</g>
</g>
<!-- Node19 -->
<g id="Node000019" class="node">
<title>Node19</title>
<g id="a_Node000019"><a xlink:href="max22007_8c.html" target="_top" xlink:title="Source file of MAX22007 Driver.">
<polygon fill="white" stroke="#666666" points="1221.5,-173 1096.5,-173 1096.5,-143 1221.5,-143 1221.5,-173"/>
<text text-anchor="start" x="1104.5" y="-161" font-family="Helvetica,sans-Serif" font-size="10.00">drivers/dac/max22007</text>
<text text-anchor="middle" x="1159" y="-150" font-family="Helvetica,sans-Serif" font-size="10.00">/max22007.c</text>
</a>
</g>
</g>
<!-- Node1&#45;&gt;Node19 -->
<g id="edge19_Node000001_Node000019" class="edge">
<title>Node1&#45;&gt;Node19</title>
<g id="a_edge19_Node000001_Node000019"><a xlink:title=" ">
<path fill="none" stroke="#63b8ff" d="M1593.83,-212.37C1508.15,-205.56 1357.84,-192.13 1230,-173 1227.27,-172.59 1224.48,-172.15 1221.67,-171.68"/>
<polygon fill="#63b8ff" stroke="#63b8ff" points="1593.71,-215.87 1603.95,-213.17 1594.26,-208.89 1593.71,-215.87"/>
</a>
</g>
</g>
<!-- Node20 -->
<g id="Node000020" class="node">
<title>Node20</title>
<g id="a_Node000020"><a xlink:href="max22017_8c.html" target="_top" xlink:title="Source file of MAX22017 Driver.">
<polygon fill="white" stroke="#666666" points="1364.5,-173 1239.5,-173 1239.5,-143 1364.5,-143 1364.5,-173"/>
<text text-anchor="start" x="1247.5" y="-161" font-family="Helvetica,sans-Serif" font-size="10.00">drivers/dac/max22017</text>
<text text-anchor="middle" x="1302" y="-150" font-family="Helvetica,sans-Serif" font-size="10.00">/max22017.c</text>
</a>
</g>
</g>
<!-- Node1&#45;&gt;Node20 -->
<g id="edge20_Node000001_Node000020" class="edge">
<title>Node1&#45;&gt;Node20</title>
<g id="a_edge20_Node000001_Node000020"><a xlink:title=" ">
<path fill="none" stroke="#63b8ff" d="M1593.69,-207.61C1535.07,-199.05 1448.9,-186.04 1374,-173 1370.99,-172.48 1367.91,-171.93 1364.8,-171.36"/>
<polygon fill="#63b8ff" stroke="#63b8ff" points="1593.54,-211.12 1603.94,-209.1 1594.55,-204.2 1593.54,-211.12"/>
</a>
</g>
</g>
<!-- Node21 -->
<g id="Node000021" class="node">
<title>Node21</title>
<g id="a_Node000021"><a xlink:href="ade7913_8c.html" target="_top" xlink:title="Implementation of ADE7913 Driver.">
<polygon fill="white" stroke="#666666" points="1511,-173 1383,-173 1383,-143 1511,-143 1511,-173"/>
<text text-anchor="start" x="1391" y="-161" font-family="Helvetica,sans-Serif" font-size="10.00">drivers/meter/ade7913</text>
<text text-anchor="middle" x="1447" y="-150" font-family="Helvetica,sans-Serif" font-size="10.00">/ade7913.c</text>
</a>
</g>
</g>
<!-- Node1&#45;&gt;Node21 -->
<g id="edge21_Node000001_Node000021" class="edge">
<title>Node1&#45;&gt;Node21</title>
<g id="a_edge21_Node000001_Node000021"><a xlink:title=" ">
<path fill="none" stroke="#63b8ff" d="M1621.72,-206.32C1586.8,-196.86 1536.58,-183.26 1498.93,-173.06"/>
<polygon fill="#63b8ff" stroke="#63b8ff" points="1621.02,-209.76 1631.59,-208.99 1622.85,-203 1621.02,-209.76"/>
</a>
</g>
</g>
<!-- Node22 -->
<g id="Node000022" class="node">
<title>Node22</title>
<g id="a_Node000022"><a xlink:href="ade9113_8c.html" target="_top" xlink:title="Implementation of ADE9113 Driver.">
<polygon fill="white" stroke="#666666" points="1657,-173 1529,-173 1529,-143 1657,-143 1657,-173"/>
<text text-anchor="start" x="1537" y="-161" font-family="Helvetica,sans-Serif" font-size="10.00">drivers/meter/ade9113</text>
<text text-anchor="middle" x="1593" y="-150" font-family="Helvetica,sans-Serif" font-size="10.00">/ade9113.c</text>
</a>
</g>
</g>
<!-- Node1&#45;&gt;Node22 -->
<g id="edge22_Node000001_Node000022" class="edge">
<title>Node1&#45;&gt;Node22</title>
<g id="a_edge22_Node000001_Node000022"><a xlink:title=" ">
<path fill="none" stroke="#63b8ff" d="M1644.73,-202.23C1633.96,-193.23 1620.42,-181.91 1609.89,-173.11"/>
<polygon fill="#63b8ff" stroke="#63b8ff" points="1642.75,-205.14 1652.67,-208.87 1647.24,-199.77 1642.75,-205.14"/>
</a>
</g>
</g>
<!-- Node23 -->
<g id="Node000023" class="node">
<title>Node23</title>
<g id="a_Node000023"><a xlink:href="adin1110_8c.html" target="_top" xlink:title="Source file of the ADIN1110 driver.">
<polygon fill="white" stroke="#666666" points="1792.5,-173 1675.5,-173 1675.5,-143 1792.5,-143 1792.5,-173"/>
<text text-anchor="start" x="1683.5" y="-161" font-family="Helvetica,sans-Serif" font-size="10.00">drivers/net/adin1110</text>
<text text-anchor="middle" x="1734" y="-150" font-family="Helvetica,sans-Serif" font-size="10.00">/adin1110.c</text>
</a>
</g>
</g>
<!-- Node1&#45;&gt;Node23 -->
<g id="edge23_Node000001_Node000023" class="edge">
<title>Node1&#45;&gt;Node23</title>
<g id="a_edge23_Node000001_Node000023"><a xlink:title=" ">
<path fill="none" stroke="#63b8ff" d="M1681.2,-202.5C1692.18,-193.45 1706.09,-182 1716.87,-173.11"/>
<polygon fill="#63b8ff" stroke="#63b8ff" points="1678.97,-199.81 1673.48,-208.87 1683.42,-205.21 1678.97,-199.81"/>
</a>
</g>
</g>
<!-- Node24 -->
<g id="Node000024" class="node">
<title>Node24</title>
<g id="a_Node000024"><a xlink:href="ades1754_8c.html" target="_top" xlink:title="Source file for the ADES1754 Driver.">
<polygon fill="white" stroke="#666666" points="1945,-173 1811,-173 1811,-143 1945,-143 1945,-173"/>
<text text-anchor="start" x="1819" y="-161" font-family="Helvetica,sans-Serif" font-size="10.00">drivers/power/ades1754</text>
<text text-anchor="middle" x="1878" y="-150" font-family="Helvetica,sans-Serif" font-size="10.00">/ades1754.c</text>
</a>
</g>
</g>
<!-- Node1&#45;&gt;Node24 -->
<g id="edge24_Node000001_Node000024" class="edge">
<title>Node1&#45;&gt;Node24</title>
<g id="a_edge24_Node000001_Node000024"><a xlink:title=" ">
<path fill="none" stroke="#63b8ff" d="M1704.08,-206.32C1738.84,-196.86 1788.84,-183.26 1826.31,-173.06"/>
<polygon fill="#63b8ff" stroke="#63b8ff" points="1702.99,-202.99 1694.26,-208.99 1704.83,-209.75 1702.99,-202.99"/>
</a>
</g>
</g>
<!-- Node25 -->
<g id="Node000025" class="node">
<title>Node25</title>
<g id="a_Node000025"><a xlink:href="lt3074_8c.html" target="_top" xlink:title=" ">
<polygon fill="white" stroke="#666666" points="2080.5,-173 1963.5,-173 1963.5,-143 2080.5,-143 2080.5,-173"/>
<text text-anchor="start" x="1971.5" y="-161" font-family="Helvetica,sans-Serif" font-size="10.00">drivers/power/lt3074</text>
<text text-anchor="middle" x="2022" y="-150" font-family="Helvetica,sans-Serif" font-size="10.00">/lt3074.c</text>
</a>
</g>
</g>
<!-- Node1&#45;&gt;Node25 -->
<g id="edge25_Node000001_Node000025" class="edge">
<title>Node1&#45;&gt;Node25</title>
<g id="a_edge25_Node000001_Node000025"><a xlink:title=" ">
<path fill="none" stroke="#63b8ff" d="M1732.19,-207.94C1791.25,-199.53 1878.39,-186.56 1954,-173 1957.08,-172.45 1960.24,-171.86 1963.43,-171.26"/>
<polygon fill="#63b8ff" stroke="#63b8ff" points="1731.63,-204.48 1722.22,-209.35 1732.62,-211.41 1731.63,-204.48"/>
</a>
</g>
</g>
<!-- Node26 -->
<g id="Node000026" class="node">
<title>Node26</title>
<g id="a_Node000026"><a xlink:href="lt7170_8c.html" target="_top" xlink:title=" ">
<polygon fill="white" stroke="#666666" points="2215.5,-173 2098.5,-173 2098.5,-143 2215.5,-143 2215.5,-173"/>
<text text-anchor="start" x="2106.5" y="-161" font-family="Helvetica,sans-Serif" font-size="10.00">drivers/power/lt7170</text>
<text text-anchor="middle" x="2157" y="-150" font-family="Helvetica,sans-Serif" font-size="10.00">/lt7170.c</text>
</a>
</g>
</g>
<!-- Node1&#45;&gt;Node26 -->
<g id="edge26_Node000001_Node000026" class="edge">
<title>Node1&#45;&gt;Node26</title>
<g id="a_edge26_Node000001_Node000026"><a xlink:title=" ">
<path fill="none" stroke="#63b8ff" d="M1732.15,-212.39C1816.64,-205.67 1963.83,-192.37 2089,-173 2092.1,-172.52 2095.27,-171.99 2098.46,-171.44"/>
<polygon fill="#63b8ff" stroke="#63b8ff" points="1731.85,-208.91 1722.16,-213.18 1732.4,-215.88 1731.85,-208.91"/>
</a>
</g>
</g>
<!-- Node27 -->
<g id="Node000027" class="node">
<title>Node27</title>
<g id="a_Node000027"><a xlink:href="lt7182s_8c.html" target="_top" xlink:title=" ">
<polygon fill="white" stroke="#666666" points="2356,-173 2234,-173 2234,-143 2356,-143 2356,-173"/>
<text text-anchor="start" x="2242" y="-161" font-family="Helvetica,sans-Serif" font-size="10.00">drivers/power/lt7182s</text>
<text text-anchor="middle" x="2295" y="-150" font-family="Helvetica,sans-Serif" font-size="10.00">/lt7182s.c</text>
</a>
</g>
</g>
<!-- Node1&#45;&gt;Node27 -->
<g id="edge27_Node000001_Node000027" class="edge">
<title>Node1&#45;&gt;Node27</title>
<g id="a_edge27_Node000001_Node000027"><a xlink:title=" ">
<path fill="none" stroke="#63b8ff" d="M1732.47,-214.57C1838.75,-209.52 2047.9,-197.26 2224,-173 2227.24,-172.55 2230.55,-172.05 2233.88,-171.52"/>
<polygon fill="#63b8ff" stroke="#63b8ff" points="1732.03,-211.09 1722.2,-215.06 1732.36,-218.08 1732.03,-211.09"/>
</a>
</g>
</g>
<!-- Node28 -->
<g id="Node000028" class="node">
<title>Node28</title>
<g id="a_Node000028"><a xlink:href="lt8722_8c.html" target="_top" xlink:title="Source file for the LT8722 Driver.">
<polygon fill="white" stroke="#666666" points="2491.5,-173 2374.5,-173 2374.5,-143 2491.5,-143 2491.5,-173"/>
<text text-anchor="start" x="2382.5" y="-161" font-family="Helvetica,sans-Serif" font-size="10.00">drivers/power/lt8722</text>
<text text-anchor="middle" x="2433" y="-150" font-family="Helvetica,sans-Serif" font-size="10.00">/lt8722.c</text>
</a>
</g>
</g>
<!-- Node1&#45;&gt;Node28 -->
<g id="edge28_Node000001_Node000028" class="edge">
<title>Node1&#45;&gt;Node28</title>
<g id="a_edge28_Node000001_Node000028"><a xlink:title=" ">
<path fill="none" stroke="#63b8ff" d="M1732.76,-216.3C1859.28,-213.41 2134.84,-203.83 2365,-173 2368.11,-172.58 2371.28,-172.11 2374.48,-171.59"/>
<polygon fill="#63b8ff" stroke="#63b8ff" points="1732.36,-212.81 1722.44,-216.53 1732.52,-219.81 1732.36,-212.81"/>
</a>
</g>
</g>
<!-- Node29 -->
<g id="Node000029" class="node">
<title>Node29</title>
<g id="a_Node000029"><a xlink:href="ltm4686_8c.html" target="_top" xlink:title="Source code of the LTM4686 driver.">
<polygon fill="white" stroke="#666666" points="2636.5,-173 2509.5,-173 2509.5,-143 2636.5,-143 2636.5,-173"/>
<text text-anchor="start" x="2517.5" y="-161" font-family="Helvetica,sans-Serif" font-size="10.00">drivers/power/ltm4686</text>
<text text-anchor="middle" x="2573" y="-150" font-family="Helvetica,sans-Serif" font-size="10.00">/ltm4686.c</text>
</a>
</g>
</g>
<!-- Node1&#45;&gt;Node29 -->
<g id="edge29_Node000001_Node000029" class="edge">
<title>Node1&#45;&gt;Node29</title>
<g id="a_edge29_Node000001_Node000029"><a xlink:title=" ">
<path fill="none" stroke="#63b8ff" d="M1732.52,-217C1876.33,-215.27 2216.75,-207.53 2500,-173 2503.07,-172.63 2506.21,-172.2 2509.38,-171.73"/>
<polygon fill="#63b8ff" stroke="#63b8ff" points="1732.06,-213.51 1722.1,-217.12 1732.14,-220.51 1732.06,-213.51"/>
</a>
</g>
</g>
<!-- Node30 -->
<g id="Node000030" class="node">
<title>Node30</title>
<g id="a_Node000030"><a xlink:href="ltp8800_8c.html" target="_top" xlink:title=" ">
<polygon fill="white" stroke="#666666" points="2777.5,-173 2654.5,-173 2654.5,-143 2777.5,-143 2777.5,-173"/>
<text text-anchor="start" x="2662.5" y="-161" font-family="Helvetica,sans-Serif" font-size="10.00">drivers/power/ltp8800</text>
<text text-anchor="middle" x="2716" y="-150" font-family="Helvetica,sans-Serif" font-size="10.00">/ltp8800.c</text>
</a>
</g>
</g>
<!-- Node1&#45;&gt;Node30 -->
<g id="edge30_Node000001_Node000030" class="edge">
<title>Node1&#45;&gt;Node30</title>
<g id="a_edge30_Node000001_Node000030"><a xlink:title=" ">
<path fill="none" stroke="#63b8ff" d="M1732.44,-217.91C1893.44,-218.07 2304.5,-214.05 2645,-173 2647.99,-172.64 2651.05,-172.22 2654.13,-171.76"/>
<polygon fill="#63b8ff" stroke="#63b8ff" points="1732.2,-214.41 1722.2,-217.89 1732.19,-221.41 1732.2,-214.41"/>
</a>
</g>
</g>
<!-- Node31 -->
<g id="Node000031" class="node">
<title>Node31</title>
<g id="a_Node000031"><a xlink:href="max42500_8c.html" target="_top" xlink:title="Source file of MAX42500 Driver.">
<polygon fill="white" stroke="#666666" points="2934,-173 2796,-173 2796,-143 2934,-143 2934,-173"/>
<text text-anchor="start" x="2804" y="-161" font-family="Helvetica,sans-Serif" font-size="10.00">drivers/power/max42500</text>
<text text-anchor="middle" x="2865" y="-150" font-family="Helvetica,sans-Serif" font-size="10.00">/max42500.c</text>
</a>
</g>
</g>
<!-- Node1&#45;&gt;Node31 -->
<g id="edge31_Node000001_Node000031" class="edge">
<title>Node1&#45;&gt;Node31</title>
<g id="a_edge31_Node000001_Node000031"><a xlink:title=" ">
<path fill="none" stroke="#63b8ff" d="M1732.45,-218.02C1908.96,-218.63 2388.95,-215.85 2786,-173 2789.19,-172.66 2792.44,-172.26 2795.71,-171.83"/>
<polygon fill="#63b8ff" stroke="#63b8ff" points="1732.27,-214.52 1722.26,-217.98 1732.25,-221.52 1732.27,-214.52"/>
</a>
</g>
</g>
<!-- Node32 -->
<g id="Node000032" class="node">
<title>Node32</title>
<g id="a_Node000032"><a xlink:href="no__os__crc_8h.html" target="_top" xlink:title="Generic header file for all CRC computation algorithms.">
<polygon fill="white" stroke="#666666" points="3064,-167.5 2952,-167.5 2952,-148.5 3064,-148.5 3064,-167.5"/>
<text text-anchor="middle" x="3008" y="-155.5" font-family="Helvetica,sans-Serif" font-size="10.00">include/no_os_crc.h</text>
</a>
</g>
</g>
<!-- Node1&#45;&gt;Node32 -->
<g id="edge32_Node000001_Node000032" class="edge">
<title>Node1&#45;&gt;Node32</title>
<g id="a_edge32_Node000001_Node000032"><a xlink:title=" ">
<path fill="none" stroke="#63b8ff" d="M1732.5,-216.71C1963.71,-213.82 2705.71,-202.44 2943,-173 2953.08,-171.75 2963.91,-169.7 2973.79,-167.56"/>
<polygon fill="#63b8ff" stroke="#63b8ff" points="1732.16,-213.21 1722.21,-216.84 1732.25,-220.21 1732.16,-213.21"/>
</a>
</g>
</g>
<!-- Node35 -->
<g id="Node000035" class="node">
<title>Node35</title>
<g id="a_Node000035"><a xlink:href="wethlink_2src_2app_2main_8c.html" target="_top" xlink:title=" ">
<polygon fill="white" stroke="#666666" points="3200,-173 3082,-173 3082,-143 3200,-143 3200,-173"/>
<text text-anchor="start" x="3090" y="-161" font-family="Helvetica,sans-Serif" font-size="10.00">projects/wethlink/src</text>
<text text-anchor="middle" x="3141" y="-150" font-family="Helvetica,sans-Serif" font-size="10.00">/app/main.c</text>
</a>
</g>
</g>
<!-- Node1&#45;&gt;Node35 -->
<g id="edge35_Node000001_Node000035" class="edge">
<title>Node1&#45;&gt;Node35</title>
<g id="a_edge35_Node000001_Node000035"><a xlink:title=" ">
<path fill="none" stroke="#63b8ff" d="M1732.38,-216.89C1978.47,-214.46 2808.94,-204.12 3073,-173 3075.87,-172.66 3078.8,-172.26 3081.76,-171.82"/>
<polygon fill="#63b8ff" stroke="#63b8ff" points="1732.11,-213.39 1722.14,-216.99 1732.17,-220.39 1732.11,-213.39"/>
</a>
</g>
</g>
<!-- Node36 -->
<g id="Node000036" class="node">
<title>Node36</title>
<g id="a_Node000036"><a xlink:href="mwc_8c.html" target="_top" xlink:title=" ">
<polygon fill="white" stroke="#666666" points="3336,-173 3218,-173 3218,-143 3336,-143 3336,-173"/>
<text text-anchor="start" x="3226" y="-161" font-family="Helvetica,sans-Serif" font-size="10.00">projects/wethlink/src</text>
<text text-anchor="middle" x="3277" y="-150" font-family="Helvetica,sans-Serif" font-size="10.00">/app/mwc.c</text>
</a>
</g>
</g>
<!-- Node1&#45;&gt;Node36 -->
<g id="edge36_Node000001_Node000036" class="edge">
<title>Node1&#45;&gt;Node36</title>
<g id="a_edge36_Node000001_Node000036"><a xlink:title=" ">
<path fill="none" stroke="#63b8ff" d="M1732.43,-217.11C1993.6,-215.39 2917.02,-207 3209,-173 3211.87,-172.67 3214.81,-172.27 3217.76,-171.83"/>
<polygon fill="#63b8ff" stroke="#63b8ff" points="1732.29,-213.61 1722.32,-217.18 1732.34,-220.61 1732.29,-213.61"/>
</a>
</g>
</g>
<!-- Node7 -->
<g id="Node000007" class="node">
<title>Node7</title>
<g id="a_Node000007"><a xlink:href="ad3530r_8c.html" target="_top" xlink:title=" ">
<polygon fill="white" stroke="#666666" points="340.5,-101.5 227.5,-101.5 227.5,-71.5 340.5,-71.5 340.5,-101.5"/>
<text text-anchor="start" x="235.5" y="-89.5" font-family="Helvetica,sans-Serif" font-size="10.00">drivers/dac/ad3530r</text>
<text text-anchor="middle" x="284" y="-78.5" font-family="Helvetica,sans-Serif" font-size="10.00">/ad3530r.c</text>
</a>
</g>
</g>
<!-- Node6&#45;&gt;Node7 -->
<g id="edge6_Node000006_Node000007" class="edge">
<title>Node6&#45;&gt;Node7</title>
<g id="a_edge6_Node000006_Node000007"><a xlink:title=" ">
<path fill="none" stroke="#63b8ff" d="M564.26,-142.93C467.65,-125.14 440.74,-128.32 349,-107 342.23,-105.43 335.13,-103.54 328.21,-101.58"/>
<polygon fill="#63b8ff" stroke="#63b8ff" points="563.68,-146.38 574.15,-144.78 564.96,-139.5 563.68,-146.38"/>
</a>
</g>
</g>
<!-- Node9 -->
<g id="Node000009" class="node">
<title>Node9</title>
<g id="a_Node000009"><a xlink:href="ad3552r_8c.html" target="_top" xlink:title="Implementation of ad3552r Driver.">
<polygon fill="white" stroke="#666666" points="471.5,-101.5 358.5,-101.5 358.5,-71.5 471.5,-71.5 471.5,-101.5"/>
<text text-anchor="start" x="366.5" y="-89.5" font-family="Helvetica,sans-Serif" font-size="10.00">drivers/dac/ad3552r</text>
<text text-anchor="middle" x="415" y="-78.5" font-family="Helvetica,sans-Serif" font-size="10.00">/ad3552r.c</text>
</a>
</g>
</g>
<!-- Node8&#45;&gt;Node9 -->
<g id="edge8_Node000008_Node000009" class="edge">
<title>Node8&#45;&gt;Node9</title>
<g id="a_edge8_Node000008_Node000009"><a xlink:title=" ">
<path fill="none" stroke="#63b8ff" d="M695.26,-142.93C598.65,-125.14 571.74,-128.32 480,-107 473.23,-105.43 466.13,-103.54 459.21,-101.58"/>
<polygon fill="#63b8ff" stroke="#63b8ff" points="694.68,-146.38 705.15,-144.78 695.96,-139.5 694.68,-146.38"/>
</a>
</g>
</g>
<!-- Node10 -->
<g id="Node000010" class="node">
<title>Node10</title>
<g id="a_Node000010"><a xlink:href="iio__ad3552r_8c.html" target="_top" xlink:title="IIO implementation for ad3552r Driver.">
<polygon fill="white" stroke="#666666" points="602.5,-101.5 489.5,-101.5 489.5,-71.5 602.5,-71.5 602.5,-101.5"/>
<text text-anchor="start" x="497.5" y="-89.5" font-family="Helvetica,sans-Serif" font-size="10.00">drivers/dac/ad3552r</text>
<text text-anchor="middle" x="546" y="-78.5" font-family="Helvetica,sans-Serif" font-size="10.00">/iio_ad3552r.c</text>
</a>
</g>
</g>
<!-- Node8&#45;&gt;Node10 -->
<g id="edge9_Node000008_Node000010" class="edge">
<title>Node8&#45;&gt;Node10</title>
<g id="a_edge9_Node000008_Node000010"><a xlink:title=" ">
<path fill="none" stroke="#63b8ff" d="M708.76,-139.87C672.11,-128.08 624.03,-112.61 589.65,-101.54"/>
<polygon fill="#63b8ff" stroke="#63b8ff" points="707.7,-143.2 718.29,-142.94 709.84,-136.54 707.7,-143.2"/>
</a>
</g>
</g>
<!-- Node11 -->
<g id="Node000011" class="node">
<title>Node11</title>
<g id="a_Node000011"><a xlink:href="iio__ad3552r_8h.html" target="_top" xlink:title=" ">
<polygon fill="white" stroke="#666666" points="733.5,-101.5 620.5,-101.5 620.5,-71.5 733.5,-71.5 733.5,-101.5"/>
<text text-anchor="start" x="628.5" y="-89.5" font-family="Helvetica,sans-Serif" font-size="10.00">drivers/dac/ad3552r</text>
<text text-anchor="middle" x="677" y="-78.5" font-family="Helvetica,sans-Serif" font-size="10.00">/iio_ad3552r.h</text>
</a>
</g>
</g>
<!-- Node8&#45;&gt;Node11 -->
<g id="edge10_Node000008_Node000011" class="edge">
<title>Node8&#45;&gt;Node11</title>
<g id="a_edge10_Node000008_Node000011"><a xlink:title=" ">
<path fill="none" stroke="#63b8ff" d="M736.69,-136.31C722.98,-125.09 706.38,-111.52 694.18,-101.54"/>
<polygon fill="#63b8ff" stroke="#63b8ff" points="734.84,-139.32 744.8,-142.94 739.27,-133.9 734.84,-139.32"/>
</a>
</g>
</g>
<!-- Node12 -->
<g id="Node000012" class="node">
<title>Node12</title>
<g id="a_Node000012"><a xlink:href="ad3552r__fmcz_2src_2common_2common__data_8c.html" target="_top" xlink:title="Defines common data to be used by iio examples.">
<polygon fill="white" stroke="#666666" points="896.5,-30 735.5,-30 735.5,0 896.5,0 896.5,-30"/>
<text text-anchor="start" x="743.5" y="-18" font-family="Helvetica,sans-Serif" font-size="10.00">projects/ad3552r_fmcz</text>
<text text-anchor="middle" x="816" y="-7" font-family="Helvetica,sans-Serif" font-size="10.00">/src/common/common_data.c</text>
</a>
</g>
</g>
<!-- Node8&#45;&gt;Node12 -->
<g id="edge11_Node000008_Node000012" class="edge">
<title>Node8&#45;&gt;Node12</title>
<g id="a_edge11_Node000008_Node000012"><a xlink:title=" ">
<path fill="none" stroke="#63b8ff" d="M764.36,-132.8C766.82,-113.98 771.68,-87.55 781,-66 786.64,-52.97 795.96,-39.88 803.57,-30.36"/>
<polygon fill="#63b8ff" stroke="#63b8ff" points="760.86,-132.56 763.17,-142.9 767.81,-133.38 760.86,-132.56"/>
</a>
</g>
</g>
<!-- Node13 -->
<g id="Node000013" class="node">
<title>Node13</title>
<g id="a_Node000013"><a xlink:href="ad3552r__fmcz_2src_2common_2common__data_8h.html" target="_top" xlink:title="Defines common data to be used by iio examples.">
<polygon fill="white" stroke="#666666" points="951.5,-101.5 790.5,-101.5 790.5,-71.5 951.5,-71.5 951.5,-101.5"/>
<text text-anchor="start" x="798.5" y="-89.5" font-family="Helvetica,sans-Serif" font-size="10.00">projects/ad3552r_fmcz</text>
<text text-anchor="middle" x="871" y="-78.5" font-family="Helvetica,sans-Serif" font-size="10.00">/src/common/common_data.h</text>
</a>
</g>
</g>
<!-- Node8&#45;&gt;Node13 -->
<g id="edge12_Node000008_Node000013" class="edge">
<title>Node8&#45;&gt;Node13</title>
<g id="a_edge12_Node000008_Node000013"><a xlink:title=" ">
<path fill="none" stroke="#63b8ff" d="M792.97,-137.25C810.83,-125.86 832.88,-111.81 848.98,-101.54"/>
<polygon fill="#63b8ff" stroke="#63b8ff" points="790.61,-134.61 784.06,-142.94 794.37,-140.51 790.61,-134.61"/>
</a>
</g>
</g>
<!-- Node14 -->
<g id="Node000014" class="node">
<title>Node14</title>
<g id="a_Node000014"><a xlink:href="axi__qspi__example_8c.html" target="_top" xlink:title="Implementation of Main Function.">
<polygon fill="white" stroke="#666666" points="1098,-107 970,-107 970,-66 1098,-66 1098,-107"/>
<text text-anchor="start" x="978" y="-95" font-family="Helvetica,sans-Serif" font-size="10.00">projects/ad3552r_fmcz</text>
<text text-anchor="start" x="978" y="-84" font-family="Helvetica,sans-Serif" font-size="10.00">/src/examples/axi_qspi</text>
<text text-anchor="middle" x="1034" y="-73" font-family="Helvetica,sans-Serif" font-size="10.00">/axi_qspi_example.c</text>
</a>
</g>
</g>
<!-- Node8&#45;&gt;Node14 -->
<g id="edge14_Node000008_Node000014" class="edge">
<title>Node8&#45;&gt;Node14</title>
<g id="a_edge14_Node000008_Node000014"><a xlink:title=" ">
<path fill="none" stroke="#63b8ff" d="M828.41,-140.41C866.87,-130.76 916.2,-118.3 960,-107 963.22,-106.17 966.51,-105.32 969.84,-104.45"/>
<polygon fill="#63b8ff" stroke="#63b8ff" points="827.22,-137.1 818.37,-142.93 828.92,-143.89 827.22,-137.1"/>
</a>
</g>
</g>
<!-- Node15 -->
<g id="Node000015" class="node">
<title>Node15</title>
<g id="a_Node000015"><a xlink:href="generic__spi__example_8c.html" target="_top" xlink:title="Implementation of Main Function.">
<polygon fill="white" stroke="#666666" points="1267.5,-107 1116.5,-107 1116.5,-66 1267.5,-66 1267.5,-107"/>
<text text-anchor="start" x="1124.5" y="-95" font-family="Helvetica,sans-Serif" font-size="10.00">projects/ad3552r_fmcz</text>
<text text-anchor="start" x="1124.5" y="-84" font-family="Helvetica,sans-Serif" font-size="10.00">/src/examples/generic</text>
<text text-anchor="middle" x="1192" y="-73" font-family="Helvetica,sans-Serif" font-size="10.00">_spi/generic_spi_example.c</text>
</a>
</g>
</g>
<!-- Node8&#45;&gt;Node15 -->
<g id="edge15_Node000008_Node000015" class="edge">
<title>Node8&#45;&gt;Node15</title>
<g id="a_edge15_Node000008_Node000015"><a xlink:title=" ">
<path fill="none" stroke="#63b8ff" d="M828.72,-142.97C952.97,-122.35 987.05,-128.45 1107,-107 1109.98,-106.47 1113.01,-105.9 1116.08,-105.3"/>
<polygon fill="#63b8ff" stroke="#63b8ff" points="828.11,-139.53 818.83,-144.64 829.27,-146.43 828.11,-139.53"/>
</a>
</g>
</g>
<!-- Node13&#45;&gt;Node12 -->
<g id="edge13_Node000013_Node000012" class="edge">
<title>Node13&#45;&gt;Node12</title>
<g id="a_edge13_Node000013_Node000012"><a xlink:title=" ">
<path fill="none" stroke="#63b8ff" d="M853.61,-63.53C844.94,-52.57 834.71,-39.65 827.11,-30.04"/>
<polygon fill="#63b8ff" stroke="#63b8ff" points="850.92,-65.77 859.87,-71.44 856.41,-61.42 850.92,-65.77"/>
</a>
</g>
</g>
<!-- Node18 -->
<g id="Node000018" class="node">
<title>Node18</title>
<g id="a_Node000018"><a xlink:href="ad5710r_8c.html" target="_top" xlink:title="Implementation of ad5710r Driver.">
<polygon fill="white" stroke="#666666" points="1398.5,-101.5 1285.5,-101.5 1285.5,-71.5 1398.5,-71.5 1398.5,-101.5"/>
<text text-anchor="start" x="1293.5" y="-89.5" font-family="Helvetica,sans-Serif" font-size="10.00">drivers/dac/ad5710r</text>
<text text-anchor="middle" x="1342" y="-78.5" font-family="Helvetica,sans-Serif" font-size="10.00">/ad5710r.c</text>
</a>
</g>
</g>
<!-- Node17&#45;&gt;Node18 -->
<g id="edge18_Node000017_Node000018" class="edge">
<title>Node17&#45;&gt;Node18</title>
<g id="a_edge18_Node000017_Node000018"><a xlink:title=" ">
<path fill="none" stroke="#63b8ff" d="M1088.67,-142.7C1172.53,-126.05 1195.98,-126.39 1276,-107 1282.73,-105.37 1289.81,-103.47 1296.71,-101.52"/>
<polygon fill="#63b8ff" stroke="#63b8ff" points="1087.82,-139.3 1078.7,-144.7 1089.2,-146.17 1087.82,-139.3"/>
</a>
</g>
</g>
<!-- Node33 -->
<g id="Node000033" class="node">
<title>Node33</title>
<g id="a_Node000033"><a xlink:href="ad7606_8c.html" target="_top" xlink:title="Implementation of ad7606 Driver.">
<polygon fill="white" stroke="#666666" points="2996,-101.5 2886,-101.5 2886,-71.5 2996,-71.5 2996,-101.5"/>
<text text-anchor="start" x="2894" y="-89.5" font-family="Helvetica,sans-Serif" font-size="10.00">drivers/adc/ad7606</text>
<text text-anchor="middle" x="2941" y="-78.5" font-family="Helvetica,sans-Serif" font-size="10.00">/ad7606.c</text>
</a>
</g>
</g>
<!-- Node32&#45;&gt;Node33 -->
<g id="edge33_Node000032_Node000033" class="edge">
<title>Node32&#45;&gt;Node33</title>
<g id="a_edge33_Node000032_Node000033"><a xlink:title=" ">
<path fill="none" stroke="#63b8ff" d="M2992.6,-141.03C2981.14,-129.14 2965.64,-113.06 2954.63,-101.64"/>
<polygon fill="#63b8ff" stroke="#63b8ff" points="2990.32,-143.71 2999.78,-148.48 2995.36,-138.85 2990.32,-143.71"/>
</a>
</g>
</g>
<!-- Node34 -->
<g id="Node000034" class="node">
<title>Node34</title>
<g id="a_Node000034"><a xlink:href="adas1000_8c.html" target="_top" xlink:title="Implementation of ADAS1000 Driver.">
<polygon fill="white" stroke="#666666" points="3135.5,-101.5 3014.5,-101.5 3014.5,-71.5 3135.5,-71.5 3135.5,-101.5"/>
<text text-anchor="start" x="3022.5" y="-89.5" font-family="Helvetica,sans-Serif" font-size="10.00">drivers/ecg/adas1000</text>
<text text-anchor="middle" x="3075" y="-78.5" font-family="Helvetica,sans-Serif" font-size="10.00">/adas1000.c</text>
</a>
</g>
</g>
<!-- Node32&#45;&gt;Node34 -->
<g id="edge34_Node000032_Node000034" class="edge">
<title>Node32&#45;&gt;Node34</title>
<g id="a_edge34_Node000032_Node000034"><a xlink:title=" ">
<path fill="none" stroke="#63b8ff" d="M3023.4,-141.03C3034.86,-129.14 3050.36,-113.06 3061.37,-101.64"/>
<polygon fill="#63b8ff" stroke="#63b8ff" points="3020.64,-138.85 3016.22,-148.48 3025.68,-143.71 3020.64,-138.85"/>
</a>
</g>
</g>
</g>
</svg>
