<?xml version="1.0" encoding="UTF-8" standalone="no"?>
<!DOCTYPE svg PUBLIC "-//W3C//DTD SVG 1.1//EN"
 "http://www.w3.org/Graphics/SVG/1.1/DTD/svg11.dtd">
<!-- Generated by graphviz version 2.43.0 (0)
 -->
<!-- Title: no_os_pwm_set_period Pages: 1 -->
<svg width="552pt" height="64pt"
 viewBox="0.00 0.00 552.00 64.00" xmlns="http://www.w3.org/2000/svg" xmlns:xlink="http://www.w3.org/1999/xlink">
<g id="graph0" class="graph" transform="scale(1 1) rotate(0) translate(4 60)">
<title>no_os_pwm_set_period</title>
<!-- Node1 -->
<g id="Node000001" class="node">
<title>Node1</title>
<g id="a_Node000001"><a xlink:title="Set the PWM period value.">
<polygon fill="#999999" stroke="#666666" points="544,-37 413,-37 413,-18 544,-18 544,-37"/>
<text text-anchor="middle" x="478.5" y="-25" font-family="Helvetica,sans-Serif" font-size="10.00">no_os_pwm_set_period</text>
</a>
</g>
</g>
<!-- Node2 -->
<g id="Node000002" class="node">
<title>Node2</title>
<g id="a_Node000002"><a xlink:href="max25603_8c.html#ac9b182a9ed8bf3625d0846b4bd7533b2" target="_top" xlink:title="MAX25603 set and configure BEAM PWM dimming.">
<polygon fill="white" stroke="#666666" points="374.5,-56 252.5,-56 252.5,-37 374.5,-37 374.5,-56"/>
<text text-anchor="middle" x="313.5" y="-44" font-family="Helvetica,sans-Serif" font-size="10.00">max25603_set_beam</text>
</a>
</g>
</g>
<!-- Node1&#45;&gt;Node2 -->
<g id="edge1_Node000001_Node000002" class="edge">
<title>Node1&#45;&gt;Node2</title>
<g id="a_edge1_Node000001_Node000002"><a xlink:title=" ">
<path fill="none" stroke="#63b8ff" d="M402.54,-36.24C393.2,-37.33 383.74,-38.43 374.67,-39.49"/>
<polygon fill="#63b8ff" stroke="#63b8ff" points="403.08,-39.7 412.61,-35.06 402.27,-32.75 403.08,-39.7"/>
</a>
</g>
</g>
<!-- Node5 -->
<g id="Node000005" class="node">
<title>Node5</title>
<g id="a_Node000005"><a xlink:href="max25603_8c.html#a505e7e1f8ea38019b345f30458c4cd68" target="_top" xlink:title="MAX25603 set and configure ENABLE PWM dimming.">
<polygon fill="white" stroke="#666666" points="377,-19 250,-19 250,0 377,0 377,-19"/>
<text text-anchor="middle" x="313.5" y="-7" font-family="Helvetica,sans-Serif" font-size="10.00">max25603_set_enable</text>
</a>
</g>
</g>
<!-- Node1&#45;&gt;Node5 -->
<g id="edge5_Node000001_Node000005" class="edge">
<title>Node1&#45;&gt;Node5</title>
<g id="a_edge5_Node000001_Node000005"><a xlink:title=" ">
<path fill="none" stroke="#63b8ff" d="M402.63,-19.23C394.07,-18.29 385.42,-17.33 377.04,-16.41"/>
<polygon fill="#63b8ff" stroke="#63b8ff" points="402.29,-22.72 412.61,-20.33 403.05,-15.76 402.29,-22.72"/>
</a>
</g>
</g>
<!-- Node3 -->
<g id="Node000003" class="node">
<title>Node3</title>
<g id="a_Node000003"><a xlink:href="max25603_2src_2examples_2basic_2basic__example_8c.html#ac25cbf8ae523e89cb0617e68c98bc697" target="_top" xlink:title="Basic example main executiont.">
<polygon fill="white" stroke="#666666" points="89,-38 0,-38 0,-19 89,-19 89,-38"/>
<text text-anchor="middle" x="44.5" y="-26" font-family="Helvetica,sans-Serif" font-size="10.00">example_main</text>
</a>
</g>
</g>
<!-- Node2&#45;&gt;Node3 -->
<g id="edge2_Node000002_Node000003" class="edge">
<title>Node2&#45;&gt;Node3</title>
<g id="a_edge2_Node000002_Node000003"><a xlink:title=" ">
<path fill="none" stroke="#63b8ff" d="M242.14,-50.94C206.86,-52.14 163.55,-52.04 125,-47.5 109.22,-45.64 92.03,-41.77 77.68,-38.01"/>
<polygon fill="#63b8ff" stroke="#63b8ff" points="242.48,-54.43 252.34,-50.55 242.21,-47.44 242.48,-54.43"/>
</a>
</g>
</g>
<!-- Node4 -->
<g id="Node000004" class="node">
<title>Node4</title>
<g id="a_Node000004"><a xlink:href="max25603_8c.html#aeacd01230e74bebbc2311031c4d8bf42" target="_top" xlink:title="MAX25603 descriptor initialization function.">
<polygon fill="white" stroke="#666666" points="214,-38 125,-38 125,-19 214,-19 214,-38"/>
<text text-anchor="middle" x="169.5" y="-26" font-family="Helvetica,sans-Serif" font-size="10.00">max25603_init</text>
</a>
</g>
</g>
<!-- Node2&#45;&gt;Node4 -->
<g id="edge3_Node000002_Node000004" class="edge">
<title>Node2&#45;&gt;Node4</title>
<g id="a_edge3_Node000002_Node000004"><a xlink:title=" ">
<path fill="none" stroke="#63b8ff" d="M242.27,-37.6C232.64,-36.38 222.98,-35.15 214.02,-34.02"/>
<polygon fill="#63b8ff" stroke="#63b8ff" points="241.92,-41.08 252.28,-38.87 242.8,-34.14 241.92,-41.08"/>
</a>
</g>
</g>
<!-- Node4&#45;&gt;Node3 -->
<g id="edge4_Node000004_Node000003" class="edge">
<title>Node4&#45;&gt;Node3</title>
<g id="a_edge4_Node000004_Node000003"><a xlink:title=" ">
<path fill="none" stroke="#63b8ff" d="M114.54,-28.5C106.03,-28.5 97.31,-28.5 89.07,-28.5"/>
<polygon fill="#63b8ff" stroke="#63b8ff" points="114.79,-32 124.79,-28.5 114.79,-25 114.79,-32"/>
</a>
</g>
</g>
<!-- Node5&#45;&gt;Node3 -->
<g id="edge6_Node000005_Node000003" class="edge">
<title>Node5&#45;&gt;Node3</title>
<g id="a_edge6_Node000005_Node000003"><a xlink:title=" ">
<path fill="none" stroke="#63b8ff" d="M239.7,-5.55C204.88,-4.66 162.66,-5.06 125,-9.5 109.22,-11.36 92.03,-15.23 77.68,-18.99"/>
<polygon fill="#63b8ff" stroke="#63b8ff" points="239.69,-9.05 249.79,-5.84 239.89,-2.05 239.69,-9.05"/>
</a>
</g>
</g>
<!-- Node5&#45;&gt;Node4 -->
<g id="edge7_Node000005_Node000004" class="edge">
<title>Node5&#45;&gt;Node4</title>
<g id="a_edge7_Node000005_Node000004"><a xlink:title=" ">
<path fill="none" stroke="#63b8ff" d="M239.89,-19.22C231.09,-20.39 222.33,-21.57 214.14,-22.66"/>
<polygon fill="#63b8ff" stroke="#63b8ff" points="240.36,-22.68 249.8,-17.89 239.43,-15.75 240.36,-22.68"/>
</a>
</g>
</g>
</g>
</svg>
