<?xml version="1.0" encoding="UTF-8" standalone="no"?>
<!DOCTYPE svg PUBLIC "-//W3C//DTD SVG 1.1//EN"
 "http://www.w3.org/Graphics/SVG/1.1/DTD/svg11.dtd">
<!-- Generated by graphviz version 2.43.0 (0)
 -->
<!-- Title: no_os_uart_stdio Pages: 1 -->
<!--zoomable 446 -->

<svg id="main" version="1.1" xmlns="http://www.w3.org/2000/svg" xmlns:xlink="http://www.w3.org/1999/xlink" xml:space="preserve" onload="init(evt)">

<style type="text/css"><![CDATA[
.node, .edge {opacity: 0.7;}
.node.selected, .edge.selected {opacity: 1;}
.edge:hover path { stroke: red; }
.edge:hover polygon { stroke: red; fill: red; }
]]></style>

<defs>
  <circle id="rim" cx="0" cy="0" r="7"/>
  <circle id="rim2" cx="0" cy="0" r="3.5"/>
  <g id="zoomPlus">
    <use xlink:href="#rim" fill="#404040"><set attributeName="fill" to="#808080" begin="zoomplus.mouseover" end="zoomplus.mouseout"/></use>
    <path d="M-4,0h8M0,-4v8" fill="none" stroke="white" stroke-width="1.5" pointer-events="none"/>
  </g>
  <g id="zoomMin">
    <use xlink:href="#rim" fill="#404040"><set attributeName="fill" to="#808080" begin="zoomminus.mouseover" end="zoomminus.mouseout"/></use>
    <path d="M-4,0h8" fill="none" stroke="white" stroke-width="1.5" pointer-events="none"/>
  </g>
  <g id="arrowUp" transform="translate(30 24)">
    <use xlink:href="#rim"/>
    <path pointer-events="none" fill="none" stroke="white" stroke-width="1.5" d="M0,-3.0v7 M-2.5,-0.5L0,-3.0L2.5,-0.5"/>
  </g>
  <g id="arrowRight" transform="rotate(90) translate(36 -43)">
    <use xlink:href="#rim"/>
    <path pointer-events="none" fill="none" stroke="white" stroke-width="1.5" d="M0,-3.0v7 M-2.5,-0.5L0,-3.0L2.5,-0.5"/>
  </g>
  <g id="arrowDown" transform="rotate(180) translate(-30 -48)">
    <use xlink:href="#rim"/>
    <path pointer-events="none" fill="none" stroke="white" stroke-width="1.5" d="M0,-3.0v7 M-2.5,-0.5L0,-3.0L2.5,-0.5"/>
  </g>
  <g id="arrowLeft" transform="rotate(270) translate(-36 17)">
    <use xlink:href="#rim"/>
    <path pointer-events="none" fill="none" stroke="white" stroke-width="1.5" d="M0,-3.0v7 M-2.5,-0.5L0,-3.0L2.5,-0.5"/>
  </g>
  <g id="resetDef">
    <use xlink:href="#rim2" fill="#404040"><set attributeName="fill" to="#808080" begin="reset.mouseover" end="reset.mouseout"/></use>
  </g>
</defs>
<script type="application/ecmascript">
var viewWidth = 519;
var viewHeight = 446;
var sectionId = 'dynsection-6';
</script>
<script type="application/ecmascript" xlink:href="svg.min.js"/>
<svg id="graph" class="graph">
<g id="viewport">
<title>no_os_uart_stdio</title>
<!-- Node1 -->
<g id="Node000001" class="node">
<title>Node1</title>
<g id="a_Node000001"><a xlink:title=" ">
<polygon fill="#999999" stroke="#666666" points="511,-222 412,-222 412,-203 511,-203 511,-222"/>
<text text-anchor="middle" x="461.5" y="-210" font-family="Helvetica,sans-Serif" font-size="10.00">no_os_uart_stdio</text>
</a>
</g>
</g>
<!-- Node2 -->
<g id="Node000002" class="node">
<title>Node2</title>
<g id="a_Node000002"><a xlink:href="adin1110__standalone__example_8c.html#acbf661085a642e031f672cda6c6da4fe" target="_top" xlink:title="Configure the ADIN1110 and read the device ID.">
<polygon fill="white" stroke="#666666" points="349.5,-437.5 228.5,-437.5 228.5,-407.5 349.5,-407.5 349.5,-437.5"/>
<text text-anchor="start" x="236.5" y="-425.5" font-family="Helvetica,sans-Serif" font-size="10.00">adin1110_standalone</text>
<text text-anchor="middle" x="289" y="-414.5" font-family="Helvetica,sans-Serif" font-size="10.00">_example_main</text>
</a>
</g>
</g>
<!-- Node1&#45;&gt;Node2 -->
<g id="edge1_Node000001_Node000002" class="edge">
<title>Node1&#45;&gt;Node2</title>
<g id="a_edge1_Node000001_Node000002"><a xlink:title=" ">
<path fill="none" stroke="#63b8ff" d="M457.12,-232.64C449.62,-270.84 428,-353.96 376,-398.5 368.47,-404.95 359.32,-409.68 349.85,-413.14"/>
<polygon fill="#63b8ff" stroke="#63b8ff" points="460.65,-232.79 459.01,-222.32 453.76,-231.53 460.65,-232.79"/>
</a>
</g>
</g>
<!-- Node4 -->
<g id="Node000004" class="node">
<title>Node4</title>
<g id="a_Node000004"><a xlink:href="apard32690_2src_2examples_2basic__example_2basic__example_8c.html#a72943dc9011d36293cb05ca5d7cb6899" target="_top" xlink:title="Basic example main execution.">
<polygon fill="white" stroke="#666666" points="349,-389 229,-389 229,-370 349,-370 349,-389"/>
<text text-anchor="middle" x="289" y="-377" font-family="Helvetica,sans-Serif" font-size="10.00">basic_example_main</text>
</a>
</g>
</g>
<!-- Node1&#45;&gt;Node4 -->
<g id="edge3_Node000001_Node000004" class="edge">
<title>Node1&#45;&gt;Node4</title>
<g id="a_edge3_Node000001_Node000004"><a xlink:title=" ">
<path fill="none" stroke="#63b8ff" d="M455.18,-232.01C445.29,-264.35 420.9,-328.72 376,-361.5 368.12,-367.26 358.8,-371.26 349.26,-374.03"/>
<polygon fill="#63b8ff" stroke="#63b8ff" points="458.65,-232.6 458.08,-222.02 451.93,-230.64 458.65,-232.6"/>
</a>
</g>
</g>
<!-- Node5 -->
<g id="Node000005" class="node">
<title>Node5</title>
<g id="a_Node000005"><a xlink:href="max42500_2src_2examples_2basic_2basic__example_8c.html#ac5f0064cb4ac7ddab3ec02b10217b456" target="_top" xlink:title="basic example main execution.">
<polygon fill="white" stroke="#666666" points="349,-352 229,-352 229,-333 349,-333 349,-352"/>
<text text-anchor="middle" x="289" y="-340" font-family="Helvetica,sans-Serif" font-size="10.00">basic_example_main</text>
</a>
</g>
</g>
<!-- Node1&#45;&gt;Node5 -->
<g id="edge4_Node000001_Node000005" class="edge">
<title>Node1&#45;&gt;Node5</title>
<g id="a_edge4_Node000001_Node000005"><a xlink:title=" ">
<path fill="none" stroke="#63b8ff" d="M451.65,-231.46C438.76,-256.88 412.33,-301.45 376,-324.5 367.89,-329.65 358.56,-333.35 349.1,-336.01"/>
<polygon fill="#63b8ff" stroke="#63b8ff" points="454.95,-232.68 456.2,-222.16 448.66,-229.6 454.95,-232.68"/>
</a>
</g>
</g>
<!-- Node6 -->
<g id="Node000006" class="node">
<title>Node6</title>
<g id="a_Node000006"><a xlink:href="eval-pqmon_2src_2examples_2basic_2basic__example_8c.html#a1681c88b1933ada9b895fe6c81a8aac6" target="_top" xlink:title="PQM example main execution.">
<polygon fill="white" stroke="#666666" points="348,-241 230,-241 230,-222 348,-222 348,-241"/>
<text text-anchor="middle" x="289" y="-229" font-family="Helvetica,sans-Serif" font-size="10.00">basic_pqm_firmware</text>
</a>
</g>
</g>
<!-- Node1&#45;&gt;Node6 -->
<g id="edge5_Node000001_Node000006" class="edge">
<title>Node1&#45;&gt;Node6</title>
<g id="a_edge5_Node000001_Node000006"><a xlink:title=" ">
<path fill="none" stroke="#63b8ff" d="M401.67,-219.06C384.38,-220.98 365.48,-223.09 348.23,-225.01"/>
<polygon fill="#63b8ff" stroke="#63b8ff" points="402.09,-222.53 411.64,-217.94 401.32,-215.57 402.09,-222.53"/>
</a>
</g>
</g>
<!-- Node8 -->
<g id="Node000008" class="node">
<title>Node8</title>
<g id="a_Node000008"><a xlink:href="example_8c.html#ae07d385c874c8d1052f87a687369ffad" target="_top" xlink:title="Configure the UART.">
<polygon fill="white" stroke="#666666" points="332,-19 246,-19 246,0 332,0 332,-19"/>
<text text-anchor="middle" x="289" y="-7" font-family="Helvetica,sans-Serif" font-size="10.00">configure_uart</text>
</a>
</g>
</g>
<!-- Node1&#45;&gt;Node8 -->
<g id="edge7_Node000001_Node000008" class="edge">
<title>Node1&#45;&gt;Node8</title>
<g id="a_edge7_Node000001_Node000008"><a xlink:title=" ">
<path fill="none" stroke="#63b8ff" d="M457.43,-192.65C450.41,-154.34 429.47,-70.24 376,-27.5 363.73,-17.69 347.41,-12.86 332.29,-10.59"/>
<polygon fill="#63b8ff" stroke="#63b8ff" points="453.99,-193.3 459.12,-202.57 460.89,-192.12 453.99,-193.3"/>
</a>
</g>
</g>
<!-- Node11 -->
<g id="Node000011" class="node">
<title>Node11</title>
<g id="a_Node000011"><a xlink:href="esh__example_8c.html#ad05dbea90848469c4a5f6555c04452bd" target="_top" xlink:title="Basic example main execution.">
<polygon fill="white" stroke="#666666" points="345,-315 233,-315 233,-296 345,-296 345,-315"/>
<text text-anchor="middle" x="289" y="-303" font-family="Helvetica,sans-Serif" font-size="10.00">esh_example_main</text>
</a>
</g>
</g>
<!-- Node1&#45;&gt;Node11 -->
<g id="edge10_Node000001_Node000011" class="edge">
<title>Node1&#45;&gt;Node11</title>
<g id="a_edge10_Node000001_Node000011"><a xlink:title=" ">
<path fill="none" stroke="#63b8ff" d="M446.04,-229.77C430.54,-247.12 404.31,-273.26 376,-287.5 366.46,-292.3 355.71,-295.82 345.12,-298.4"/>
<polygon fill="#63b8ff" stroke="#63b8ff" points="448.83,-231.9 452.75,-222.06 443.55,-227.31 448.83,-231.9"/>
</a>
</g>
</g>
<!-- Node12 -->
<g id="Node000012" class="node">
<title>Node12</title>
<g id="a_Node000012"><a xlink:href="ad74413r_2src_2examples_2dummy_2dummy__example_8c.html#ac25cbf8ae523e89cb0617e68c98bc697" target="_top" xlink:title="Dummy example main execution.">
<polygon fill="white" stroke="#666666" points="333.5,-204 244.5,-204 244.5,-185 333.5,-185 333.5,-204"/>
<text text-anchor="middle" x="289" y="-192" font-family="Helvetica,sans-Serif" font-size="10.00">example_main</text>
</a>
</g>
</g>
<!-- Node1&#45;&gt;Node12 -->
<g id="edge12_Node000001_Node000012" class="edge">
<title>Node1&#45;&gt;Node12</title>
<g id="a_edge12_Node000001_Node000012"><a xlink:title=" ">
<path fill="none" stroke="#63b8ff" d="M401.6,-206.28C379.29,-203.93 354.3,-201.29 333.63,-199.11"/>
<polygon fill="#63b8ff" stroke="#63b8ff" points="401.33,-209.77 411.64,-207.34 402.06,-202.81 401.33,-209.77"/>
</a>
</g>
</g>
<!-- Node13 -->
<g id="Node000013" class="node">
<title>Node13</title>
<g id="a_Node000013"><a xlink:href="ltc7841_2src_2examples_2basic_2basic__example_8c.html#a423407bf3827741dfe2f6e0def8ba0c3" target="_top" xlink:title="Basic example main execution.">
<polygon fill="white" stroke="#666666" points="333.5,-167 244.5,-167 244.5,-148 333.5,-148 333.5,-167"/>
<text text-anchor="middle" x="289" y="-155" font-family="Helvetica,sans-Serif" font-size="10.00">example_main</text>
</a>
</g>
</g>
<!-- Node1&#45;&gt;Node13 -->
<g id="edge13_Node000001_Node000013" class="edge">
<title>Node1&#45;&gt;Node13</title>
<g id="a_edge13_Node000001_Node000013"><a xlink:title=" ">
<path fill="none" stroke="#63b8ff" d="M431.37,-198.51C415.32,-191.2 394.86,-182.54 376,-176.5 362.46,-172.16 347.41,-168.47 333.73,-165.52"/>
<polygon fill="#63b8ff" stroke="#63b8ff" points="430.21,-201.82 440.75,-202.85 433.15,-195.47 430.21,-201.82"/>
</a>
</g>
</g>
<!-- Node14 -->
<g id="Node000014" class="node">
<title>Node14</title>
<g id="a_Node000014"><a xlink:href="ad-acevsecrdset-sl_2src_2main_8c.html#ae66f6b31b5ad750f1fe042a706a4e3d4" target="_top" xlink:title="Main function execution for Maxim platform.">
<polygon fill="white" stroke="#666666" points="309.5,-130 268.5,-130 268.5,-111 309.5,-111 309.5,-130"/>
<text text-anchor="middle" x="289" y="-118" font-family="Helvetica,sans-Serif" font-size="10.00">main</text>
</a>
</g>
</g>
<!-- Node1&#45;&gt;Node14 -->
<g id="edge14_Node000001_Node000014" class="edge">
<title>Node1&#45;&gt;Node14</title>
<g id="a_edge14_Node000001_Node000014"><a xlink:title=" ">
<path fill="none" stroke="#63b8ff" d="M445.67,-195.49C430.03,-178.67 403.85,-153.47 376,-139.5 354.82,-128.87 327.76,-124.15 309.7,-122.08"/>
<polygon fill="#63b8ff" stroke="#63b8ff" points="443.15,-197.93 452.46,-202.99 448.34,-193.23 443.15,-197.93"/>
</a>
</g>
</g>
<!-- Node15 -->
<g id="Node000015" class="node">
<title>Node15</title>
<g id="a_Node000015"><a xlink:href="aducm3029__flash__demo_2src_2main_8c.html#a0ddf1224851353fc92bfbff6f499fa97" target="_top" xlink:title="main">
<polygon fill="white" stroke="#666666" points="309.5,-93 268.5,-93 268.5,-74 309.5,-74 309.5,-93"/>
<text text-anchor="middle" x="289" y="-81" font-family="Helvetica,sans-Serif" font-size="10.00">main</text>
</a>
</g>
</g>
<!-- Node1&#45;&gt;Node15 -->
<g id="edge15_Node000001_Node000015" class="edge">
<title>Node1&#45;&gt;Node15</title>
<g id="a_edge15_Node000001_Node000015"><a xlink:title=" ">
<path fill="none" stroke="#63b8ff" d="M451.33,-193.56C438.22,-168.6 411.72,-125.22 376,-102.5 355.75,-89.61 327.99,-85.39 309.55,-84.05"/>
<polygon fill="#63b8ff" stroke="#63b8ff" points="448.33,-195.38 455.97,-202.72 454.57,-192.22 448.33,-195.38"/>
</a>
</g>
</g>
<!-- Node16 -->
<g id="Node000016" class="node">
<title>Node16</title>
<g id="a_Node000016"><a xlink:href="ad7746-ebz_2src_2app_2headless_8c.html#a840291bc02cba5474a4cb46a9b9566fe" target="_top" xlink:title=" ">
<polygon fill="white" stroke="#666666" points="309.5,-56 268.5,-56 268.5,-37 309.5,-37 309.5,-56"/>
<text text-anchor="middle" x="289" y="-44" font-family="Helvetica,sans-Serif" font-size="10.00">main</text>
</a>
</g>
</g>
<!-- Node1&#45;&gt;Node16 -->
<g id="edge16_Node000001_Node000016" class="edge">
<title>Node1&#45;&gt;Node16</title>
<g id="a_edge16_Node000001_Node000016"><a xlink:title=" ">
<path fill="none" stroke="#63b8ff" d="M454.91,-192.84C444.76,-160.86 420.15,-97.91 376,-65.5 356.53,-51.2 328.33,-47.32 309.6,-46.44"/>
<polygon fill="#63b8ff" stroke="#63b8ff" points="451.67,-194.19 457.91,-202.76 458.37,-192.17 451.67,-194.19"/>
</a>
</g>
</g>
<!-- Node17 -->
<g id="Node000017" class="node">
<title>Node17</title>
<g id="a_Node000017"><a xlink:href="tcp__echo__server__example_8c.html#a71a933205bd5c61d181123850b2c6e9b" target="_top" xlink:title="TCP echo example main execution.">
<polygon fill="white" stroke="#666666" points="376,-278 202,-278 202,-259 376,-259 376,-278"/>
<text text-anchor="middle" x="289" y="-266" font-family="Helvetica,sans-Serif" font-size="10.00">tcp_echo_server_example_main</text>
</a>
</g>
</g>
<!-- Node1&#45;&gt;Node17 -->
<g id="edge17_Node000001_Node000017" class="edge">
<title>Node1&#45;&gt;Node17</title>
<g id="a_edge17_Node000001_Node000017"><a xlink:title=" ">
<path fill="none" stroke="#63b8ff" d="M432.76,-226.81C416.55,-234.7 395.51,-244.15 376,-250.5 365.99,-253.76 355.13,-256.56 344.6,-258.93"/>
<polygon fill="#63b8ff" stroke="#63b8ff" points="434.76,-229.72 442.16,-222.14 431.65,-223.45 434.76,-229.72"/>
</a>
</g>
</g>
<!-- Node3 -->
<g id="Node000003" class="node">
<title>Node3</title>
<g id="a_Node000003"><a xlink:href="apard32690_2src_2examples_2main_8c.html#ae66f6b31b5ad750f1fe042a706a4e3d4" target="_top" xlink:title="Main function execution.">
<polygon fill="white" stroke="#666666" points="142,-315 101,-315 101,-296 142,-296 142,-315"/>
<text text-anchor="middle" x="121.5" y="-303" font-family="Helvetica,sans-Serif" font-size="10.00">main</text>
</a>
</g>
</g>
<!-- Node2&#45;&gt;Node3 -->
<g id="edge2_Node000002_Node000003" class="edge">
<title>Node2&#45;&gt;Node3</title>
<g id="a_edge2_Node000002_Node000003"><a xlink:title=" ">
<path fill="none" stroke="#63b8ff" d="M218.82,-407.2C212.93,-404.72 207.23,-401.84 202,-398.5 167.08,-376.22 139.23,-333.92 127.94,-315.03"/>
<polygon fill="#63b8ff" stroke="#63b8ff" points="217.61,-410.49 228.2,-410.79 220.11,-403.95 217.61,-410.49"/>
</a>
</g>
</g>
<!-- Node7 -->
<g id="Node000007" class="node">
<title>Node7</title>
<g id="a_Node000007"><a xlink:href="eval-pqmon_2src_2platform_2maxim_2main_8c.html#ae66f6b31b5ad750f1fe042a706a4e3d4" target="_top" xlink:title="Main function that executes on Maxim platform.">
<polygon fill="white" stroke="#666666" points="142,-241 101,-241 101,-222 142,-222 142,-241"/>
<text text-anchor="middle" x="121.5" y="-229" font-family="Helvetica,sans-Serif" font-size="10.00">main</text>
</a>
</g>
</g>
<!-- Node6&#45;&gt;Node7 -->
<g id="edge6_Node000006_Node000007" class="edge">
<title>Node6&#45;&gt;Node7</title>
<g id="a_edge6_Node000006_Node000007"><a xlink:title=" ">
<path fill="none" stroke="#63b8ff" d="M219.48,-231.5C191.55,-231.5 161.39,-231.5 142.24,-231.5"/>
<polygon fill="#63b8ff" stroke="#63b8ff" points="219.65,-235 229.65,-231.5 219.65,-228 219.65,-235"/>
</a>
</g>
</g>
<!-- Node9 -->
<g id="Node000009" class="node">
<title>Node9</title>
<g id="a_Node000009"><a xlink:href="example_8c.html#a423407bf3827741dfe2f6e0def8ba0c3" target="_top" xlink:title="Main function.">
<polygon fill="white" stroke="#666666" points="166,-19 77,-19 77,0 166,0 166,-19"/>
<text text-anchor="middle" x="121.5" y="-7" font-family="Helvetica,sans-Serif" font-size="10.00">example_main</text>
</a>
</g>
</g>
<!-- Node8&#45;&gt;Node9 -->
<g id="edge8_Node000008_Node000009" class="edge">
<title>Node8&#45;&gt;Node9</title>
<g id="a_edge8_Node000008_Node000009"><a xlink:title=" ">
<path fill="none" stroke="#63b8ff" d="M235.78,-9.5C213.34,-9.5 187.43,-9.5 166.06,-9.5"/>
<polygon fill="#63b8ff" stroke="#63b8ff" points="235.81,-13 245.81,-9.5 235.81,-6 235.81,-13"/>
</a>
</g>
</g>
<!-- Node10 -->
<g id="Node000010" class="node">
<title>Node10</title>
<g id="a_Node000010"><a xlink:href="ad3552r__fmcz_2src_2platform_2xilinx_2main_8c.html#ae66f6b31b5ad750f1fe042a706a4e3d4" target="_top" xlink:title="Main function execution for xilinx platform.">
<polygon fill="white" stroke="#666666" points="41,-19 0,-19 0,0 41,0 41,-19"/>
<text text-anchor="middle" x="20.5" y="-7" font-family="Helvetica,sans-Serif" font-size="10.00">main</text>
</a>
</g>
</g>
<!-- Node9&#45;&gt;Node10 -->
<g id="edge9_Node000009_Node000010" class="edge">
<title>Node9&#45;&gt;Node10</title>
<g id="a_edge9_Node000009_Node000010"><a xlink:title=" ">
<path fill="none" stroke="#63b8ff" d="M66.55,-9.5C57.49,-9.5 48.64,-9.5 41.21,-9.5"/>
<polygon fill="#63b8ff" stroke="#63b8ff" points="66.79,-13 76.79,-9.5 66.79,-6 66.79,-13"/>
</a>
</g>
</g>
<!-- Node11&#45;&gt;Node3 -->
<g id="edge11_Node000011_Node000003" class="edge">
<title>Node11&#45;&gt;Node3</title>
<g id="a_edge11_Node000011_Node000003"><a xlink:title=" ">
<path fill="none" stroke="#63b8ff" d="M222.84,-305.5C194,-305.5 162.18,-305.5 142.26,-305.5"/>
<polygon fill="#63b8ff" stroke="#63b8ff" points="222.89,-309 232.89,-305.5 222.89,-302 222.89,-309"/>
</a>
</g>
</g>
<!-- Node17&#45;&gt;Node3 -->
<g id="edge18_Node000017_Node000003" class="edge">
<title>Node17&#45;&gt;Node3</title>
<g id="a_edge18_Node000017_Node000003"><a xlink:title=" ">
<path fill="none" stroke="#63b8ff" d="M234.87,-280.19C223.99,-282.6 212.62,-285.12 202,-287.5 181.56,-292.07 158.18,-297.37 142.1,-301.03"/>
<polygon fill="#63b8ff" stroke="#63b8ff" points="235.67,-283.6 244.68,-278.02 234.16,-276.76 235.67,-283.6"/>
</a>
</g>
</g>
</g>
</svg>

<g id="navigator" transform="translate(0 0)" fill="#404254">
  <rect fill="#f2f5e9" fill-opacity="0.5" stroke="#606060" stroke-width=".5" x="0" y="0" width="60" height="60"/>
  <use id="zoomplus" xlink:href="#zoomPlus" x="17" y="9" onmousedown="handleZoom(evt,'in')"/>
  <use id="zoomminus" xlink:href="#zoomMin" x="42" y="9" onmousedown="handleZoom(evt,'out')"/>
  <use id="reset" xlink:href="#resetDef" x="30" y="36" onmousedown="handleReset()"/>
   <use id="arrowup" xlink:href="#arrowUp" x="0" y="0" onmousedown="handlePan(0,-1)"/>
  <use id="arrowright" xlink:href="#arrowRight" x="0" y="0" onmousedown="handlePan(1,0)"/>
  <use id="arrowdown" xlink:href="#arrowDown" x="0" y="0" onmousedown="handlePan(0,1)"/>
  <use id="arrowleft" xlink:href="#arrowLeft" x="0" y="0" onmousedown="handlePan(-1,0)"/>
</g>
<svg viewBox="0 0 15 15" width="100%" height="30px" preserveAspectRatio="xMaxYMin meet">
 <g id="arrow_out" transform="scale(0.3 0.3)">
  <a xlink:href="no__os__uart_8h_ab71928164848f7d5f0112b50edb613d3_icgraph_org.svg" target="_base">
   <rect id="button" ry="5" rx="5" y="6" x="6" height="38" width="38"
        fill="#f2f5e9" fill-opacity="0.5" stroke="#606060" stroke-width="1.0"/>
   <path id="arrow"
     d="M 11.500037,31.436501 C 11.940474,20.09759 22.043105,11.32322 32.158766,21.979434 L 37.068811,17.246167 C 37.068811,17.246167 37.088388,32 37.088388,32 L 22.160133,31.978069 C 22.160133,31.978069 26.997745,27.140456 26.997745,27.140456 C 18.528582,18.264221 13.291696,25.230495 11.500037,31.436501 z"
     style="fill:#404040;"/>
  </a>
 </g>
</svg>

<style type='text/css'>
<![CDATA[
[data-mouse-over-selected='false'] { opacity: 0.7; }
[data-mouse-over-selected='true']  { opacity: 1.0; }
]]>
</style>
<script type="application/ecmascript"><![CDATA[
document.addEventListener('DOMContentLoaded', (event) => {
  highlightEdges();
  highlightAdjacentNodes();
});
]]></script>
</svg>
