<?xml version="1.0" encoding="UTF-8" standalone="no"?>
<!DOCTYPE svg PUBLIC "-//W3C//DTD SVG 1.1//EN"
 "http://www.w3.org/Graphics/SVG/1.1/DTD/svg11.dtd">
<!-- Generated by graphviz version 2.43.0 (0)
 -->
<!-- Title: no_os_irq_ctrl_init Pages: 1 -->
<svg width="527pt" height="954pt"
 viewBox="0.00 0.00 527.00 954.00" xmlns="http://www.w3.org/2000/svg" xmlns:xlink="http://www.w3.org/1999/xlink">
<g id="graph0" class="graph" transform="scale(1 1) rotate(0) translate(4 950)">
<title>no_os_irq_ctrl_init</title>
<!-- Node1 -->
<g id="Node000001" class="node">
<title>Node1</title>
<g id="a_Node000001"><a xlink:title="Initialize the IRQ interrupts.">
<polygon fill="#999999" stroke="#666666" points="519,-481 414,-481 414,-462 519,-462 519,-481"/>
<text text-anchor="middle" x="466.5" y="-469" font-family="Helvetica,sans-Serif" font-size="10.00">no_os_irq_ctrl_init</text>
</a>
</g>
</g>
<!-- Node2 -->
<g id="Node000002" class="node">
<title>Node2</title>
<g id="a_Node000002"><a xlink:href="ade7816_2src_2examples_2basic_2basic__example_8c.html#ac25cbf8ae523e89cb0617e68c98bc697" target="_top" xlink:title="Basic example main execution.">
<polygon fill="white" stroke="#666666" points="334.5,-946 245.5,-946 245.5,-927 334.5,-927 334.5,-946"/>
<text text-anchor="middle" x="290" y="-934" font-family="Helvetica,sans-Serif" font-size="10.00">example_main</text>
</a>
</g>
</g>
<!-- Node1&#45;&gt;Node2 -->
<g id="edge1_Node000001_Node000002" class="edge">
<title>Node1&#45;&gt;Node2</title>
<g id="a_edge1_Node000001_Node000002"><a xlink:title=" ">
<path fill="none" stroke="#63b8ff" d="M464.44,-491.65C459.86,-570.48 439.23,-856.61 378,-918.5 366.72,-929.9 350.24,-935.01 334.66,-937.06"/>
<polygon fill="#63b8ff" stroke="#63b8ff" points="467.96,-491.39 465.02,-481.21 460.97,-491 467.96,-491.39"/>
</a>
</g>
</g>
<!-- Node3 -->
<g id="Node000003" class="node">
<title>Node3</title>
<g id="a_Node000003"><a xlink:href="wake__on__lan_8c.html#a423407bf3827741dfe2f6e0def8ba0c3" target="_top" xlink:title="Basic example main executiont.">
<polygon fill="white" stroke="#666666" points="334.5,-909 245.5,-909 245.5,-890 334.5,-890 334.5,-909"/>
<text text-anchor="middle" x="290" y="-897" font-family="Helvetica,sans-Serif" font-size="10.00">example_main</text>
</a>
</g>
</g>
<!-- Node1&#45;&gt;Node3 -->
<g id="edge2_Node000001_Node000003" class="edge">
<title>Node1&#45;&gt;Node3</title>
<g id="a_edge2_Node000001_Node000003"><a xlink:title=" ">
<path fill="none" stroke="#63b8ff" d="M464.07,-491.41C458.33,-565.7 434.48,-825.37 378,-881.5 366.62,-892.81 350.13,-897.9 334.56,-899.96"/>
<polygon fill="#63b8ff" stroke="#63b8ff" points="467.58,-491.37 464.84,-481.13 460.6,-490.84 467.58,-491.37"/>
</a>
</g>
</g>
<!-- Node4 -->
<g id="Node000004" class="node">
<title>Node4</title>
<g id="a_Node000004"><a xlink:href="voltage__input__irq_8c.html#a2bfc118c928afb7881e002eb11b748aa" target="_top" xlink:title=" ">
<polygon fill="white" stroke="#666666" points="341,-872 239,-872 239,-853 341,-853 341,-872"/>
<text text-anchor="middle" x="290" y="-860" font-family="Helvetica,sans-Serif" font-size="10.00">gpio_adc_rdy_init</text>
</a>
</g>
</g>
<!-- Node1&#45;&gt;Node4 -->
<g id="edge3_Node000001_Node000004" class="edge">
<title>Node1&#45;&gt;Node4</title>
<g id="a_edge3_Node000001_Node000004"><a xlink:title=" ">
<path fill="none" stroke="#63b8ff" d="M463.62,-491.4C456.6,-561.31 429.68,-794.16 378,-844.5 368.17,-854.08 354.65,-859.17 341.21,-861.74"/>
<polygon fill="#63b8ff" stroke="#63b8ff" points="467.12,-491.59 464.61,-481.3 460.15,-490.91 467.12,-491.59"/>
</a>
</g>
</g>
<!-- Node6 -->
<g id="Node000006" class="node">
<title>Node6</title>
<g id="a_Node000006"><a xlink:href="adalm-lsmspg_2src_2platform_2maxim_2main_8c.html#a8965f8841fa6b209be38417ab48be0bc" target="_top" xlink:title=" ">
<polygon fill="white" stroke="#666666" points="332.5,-835 247.5,-835 247.5,-816 332.5,-816 332.5,-835"/>
<text text-anchor="middle" x="290" y="-823" font-family="Helvetica,sans-Serif" font-size="10.00">heartbeat_init</text>
</a>
</g>
</g>
<!-- Node1&#45;&gt;Node6 -->
<g id="edge5_Node000001_Node000006" class="edge">
<title>Node1&#45;&gt;Node6</title>
<g id="a_edge5_Node000001_Node000006"><a xlink:title=" ">
<path fill="none" stroke="#63b8ff" d="M463.05,-491.51C454.65,-556.95 424.88,-762.94 378,-807.5 365.93,-818.98 348.56,-823.97 332.51,-825.91"/>
<polygon fill="#63b8ff" stroke="#63b8ff" points="466.56,-491.67 464.34,-481.31 459.62,-490.8 466.56,-491.67"/>
</a>
</g>
</g>
<!-- Node7 -->
<g id="Node000007" class="node">
<title>Node7</title>
<g id="a_Node000007"><a xlink:href="iio__demo_2src_2examples_2iio__timer__trigger__example_2iio__timer__trigger__example_8c.html#a7bab3a90f71c4ddf1bc5fff9fc70b3fb" target="_top" xlink:title="IIO trigger example main execution.">
<polygon fill="white" stroke="#666666" points="378,-798 202,-798 202,-779 378,-779 378,-798"/>
<text text-anchor="middle" x="290" y="-786" font-family="Helvetica,sans-Serif" font-size="10.00">iio_timer_trigger_example_main</text>
</a>
</g>
</g>
<!-- Node1&#45;&gt;Node7 -->
<g id="edge6_Node000001_Node000007" class="edge">
<title>Node1&#45;&gt;Node7</title>
<g id="a_edge6_Node000001_Node000007"><a xlink:title=" ">
<path fill="none" stroke="#63b8ff" d="M466.15,-491.24C466.76,-544.86 460.6,-694.31 378,-770.5 374.37,-773.85 370.29,-776.64 365.93,-778.96"/>
<polygon fill="#63b8ff" stroke="#63b8ff" points="469.64,-490.97 465.93,-481.05 462.65,-491.12 469.64,-490.97"/>
</a>
</g>
</g>
<!-- Node9 -->
<g id="Node000009" class="node">
<title>Node9</title>
<g id="a_Node000009"><a xlink:href="demo__esp_2src_2examples_2basic_2basic__example_8c.html#adf61ab6fc732b20dc9f8a4be75985c1a" target="_top" xlink:title=" ">
<polygon fill="white" stroke="#666666" points="351,-761 229,-761 229,-742 351,-742 351,-761"/>
<text text-anchor="middle" x="290" y="-749" font-family="Helvetica,sans-Serif" font-size="10.00">init_and_connect_wifi</text>
</a>
</g>
</g>
<!-- Node1&#45;&gt;Node9 -->
<g id="edge8_Node000001_Node000009" class="edge">
<title>Node1&#45;&gt;Node9</title>
<g id="a_edge8_Node000001_Node000009"><a xlink:title=" ">
<path fill="none" stroke="#63b8ff" d="M464.74,-491.3C461.8,-539.17 447.5,-662.06 378,-727.5 370.47,-734.59 361.04,-739.62 351.19,-743.18"/>
<polygon fill="#63b8ff" stroke="#63b8ff" points="468.25,-491.23 465.26,-481.06 461.26,-490.87 468.25,-491.23"/>
</a>
</g>
</g>
<!-- Node11 -->
<g id="Node000011" class="node">
<title>Node11</title>
<g id="a_Node000011"><a xlink:href="eval-ade7913_2src_2platform_2platform_8c.html#aa0eef058d4f3ddc9f0dcbad9cc46342d" target="_top" xlink:title="Init NVIC.">
<polygon fill="white" stroke="#666666" points="319,-685 261,-685 261,-666 319,-666 319,-685"/>
<text text-anchor="middle" x="290" y="-673" font-family="Helvetica,sans-Serif" font-size="10.00">init_nvic</text>
</a>
</g>
</g>
<!-- Node1&#45;&gt;Node11 -->
<g id="edge10_Node000001_Node000011" class="edge">
<title>Node1&#45;&gt;Node11</title>
<g id="a_edge10_Node000001_Node000011"><a xlink:title=" ">
<path fill="none" stroke="#63b8ff" d="M462.25,-490.94C454.76,-529.25 432.59,-614.47 378,-657.5 361.41,-670.58 337.66,-674.82 319.16,-675.93"/>
<polygon fill="#63b8ff" stroke="#63b8ff" points="465.7,-491.52 464.05,-481.06 458.81,-490.27 465.7,-491.52"/>
</a>
</g>
</g>
<!-- Node13 -->
<g id="Node000013" class="node">
<title>Node13</title>
<g id="a_Node000013"><a xlink:href="eval-ade7913_2src_2interrupt_2interrupt_8c.html#aa3e9aea3cb8149b03c6ccb6306151976" target="_top" xlink:title="Initialize data ready interrupt.">
<polygon fill="white" stroke="#666666" points="320,-574 260,-574 260,-555 320,-555 320,-574"/>
<text text-anchor="middle" x="290" y="-562" font-family="Helvetica,sans-Serif" font-size="10.00">inter_init</text>
</a>
</g>
</g>
<!-- Node1&#45;&gt;Node13 -->
<g id="edge12_Node000001_Node000013" class="edge">
<title>Node1&#45;&gt;Node13</title>
<g id="a_edge12_Node000001_Node000013"><a xlink:title=" ">
<path fill="none" stroke="#63b8ff" d="M450.41,-488.77C434.26,-506.12 407.02,-532.26 378,-546.5 360,-555.34 337.85,-559.84 320.4,-562.13"/>
<polygon fill="#63b8ff" stroke="#63b8ff" points="453.28,-490.82 457.41,-481.06 448.1,-486.11 453.28,-490.82"/>
</a>
</g>
</g>
<!-- Node14 -->
<g id="Node000014" class="node">
<title>Node14</title>
<g id="a_Node000014"><a xlink:href="eval-ade7978_2src_2interrupt_2interrupt_8c.html#aa7525705d8c13507bc4016504d0a011a" target="_top" xlink:title="Initialize interrupt.">
<polygon fill="white" stroke="#666666" points="320,-537 260,-537 260,-518 320,-518 320,-537"/>
<text text-anchor="middle" x="290" y="-525" font-family="Helvetica,sans-Serif" font-size="10.00">inter_init</text>
</a>
</g>
</g>
<!-- Node1&#45;&gt;Node14 -->
<g id="edge13_Node000001_Node000014" class="edge">
<title>Node1&#45;&gt;Node14</title>
<g id="a_edge13_Node000001_Node000014"><a xlink:title=" ">
<path fill="none" stroke="#63b8ff" d="M437.2,-485.56C420.33,-493.49 398.32,-503.06 378,-509.5 359.18,-515.46 337.43,-519.96 320.38,-522.97"/>
<polygon fill="#63b8ff" stroke="#63b8ff" points="438.97,-488.59 446.48,-481.12 435.94,-482.28 438.97,-488.59"/>
</a>
</g>
</g>
<!-- Node15 -->
<g id="Node000015" class="node">
<title>Node15</title>
<g id="a_Node000015"><a xlink:href="inter_8c.html#a61102c2d0ff81b29bd60a2537e351562" target="_top" xlink:title="Initialize inter phase.">
<polygon fill="white" stroke="#666666" points="320,-648 260,-648 260,-629 320,-629 320,-648"/>
<text text-anchor="middle" x="290" y="-636" font-family="Helvetica,sans-Serif" font-size="10.00">inter_init</text>
</a>
</g>
</g>
<!-- Node1&#45;&gt;Node15 -->
<g id="edge14_Node000001_Node000015" class="edge">
<title>Node1&#45;&gt;Node15</title>
<g id="a_edge14_Node000001_Node000015"><a xlink:title=" ">
<path fill="none" stroke="#63b8ff" d="M459.92,-490.62C449.48,-522.84 423.78,-587.68 378,-620.5 361.33,-632.45 338.5,-636.84 320.41,-638.3"/>
<polygon fill="#63b8ff" stroke="#63b8ff" points="463.28,-491.62 462.89,-481.03 456.59,-489.55 463.28,-491.62"/>
</a>
</g>
</g>
<!-- Node17 -->
<g id="Node000017" class="node">
<title>Node17</title>
<g id="a_Node000017"><a xlink:href="ad-acevsecrdset-sl_2src_2main_8c.html#ae66f6b31b5ad750f1fe042a706a4e3d4" target="_top" xlink:title="Main function execution for Maxim platform.">
<polygon fill="white" stroke="#666666" points="41,-685 0,-685 0,-666 41,-666 41,-685"/>
<text text-anchor="middle" x="20.5" y="-673" font-family="Helvetica,sans-Serif" font-size="10.00">main</text>
</a>
</g>
</g>
<!-- Node1&#45;&gt;Node17 -->
<g id="edge28_Node000001_Node000017" class="edge">
<title>Node1&#45;&gt;Node17</title>
<g id="a_edge28_Node000001_Node000017"><a xlink:title=" ">
<path fill="none" stroke="#63b8ff" d="M464.68,-491.46C461.61,-536.83 447.06,-647.41 378,-694.5 270.21,-768 98.65,-707.78 41.07,-684.05"/>
<polygon fill="#63b8ff" stroke="#63b8ff" points="468.18,-491.58 465.24,-481.41 461.19,-491.2 468.18,-491.58"/>
</a>
</g>
</g>
<!-- Node18 -->
<g id="Node000018" class="node">
<title>Node18</title>
<g id="a_Node000018"><a xlink:href="eval-ade7753_2src_2interrupt_2interrupt_8c.html#aea86aca7630a4590a0c635f53ce6bc1b" target="_top" xlink:title="Initialize IRQN interrupt.">
<polygon fill="white" stroke="#666666" points="329,-500 251,-500 251,-481 329,-481 329,-500"/>
<text text-anchor="middle" x="290" y="-488" font-family="Helvetica,sans-Serif" font-size="10.00">inter_init_irq</text>
</a>
</g>
</g>
<!-- Node1&#45;&gt;Node18 -->
<g id="edge18_Node000001_Node000018" class="edge">
<title>Node1&#45;&gt;Node18</title>
<g id="a_edge18_Node000001_Node000018"><a xlink:title=" ">
<path fill="none" stroke="#63b8ff" d="M403.54,-478.25C378.71,-480.95 350.88,-483.98 329.1,-486.35"/>
<polygon fill="#63b8ff" stroke="#63b8ff" points="404.05,-481.71 413.62,-477.15 403.3,-474.75 404.05,-481.71"/>
</a>
</g>
</g>
<!-- Node20 -->
<g id="Node000020" class="node">
<title>Node20</title>
<g id="a_Node000020"><a xlink:href="eval-ade7754_2src_2interrupt_2interrupt_8c.html#ab5e8622a89cb6d915c9d69f73189cb8a" target="_top" xlink:title="Initialize IRQN interrupt.">
<polygon fill="white" stroke="#666666" points="329,-426 251,-426 251,-407 329,-407 329,-426"/>
<text text-anchor="middle" x="290" y="-414" font-family="Helvetica,sans-Serif" font-size="10.00">inter_init_irq</text>
</a>
</g>
</g>
<!-- Node1&#45;&gt;Node20 -->
<g id="edge20_Node000001_Node000020" class="edge">
<title>Node1&#45;&gt;Node20</title>
<g id="a_edge20_Node000001_Node000020"><a xlink:title=" ">
<path fill="none" stroke="#63b8ff" d="M435.77,-457.74C419.05,-450.4 397.66,-441.64 378,-435.5 362.21,-430.57 344.42,-426.44 329.06,-423.31"/>
<polygon fill="#63b8ff" stroke="#63b8ff" points="434.46,-460.99 445.02,-461.87 437.31,-454.6 434.46,-460.99"/>
</a>
</g>
</g>
<!-- Node21 -->
<g id="Node000021" class="node">
<title>Node21</title>
<g id="a_Node000021"><a xlink:href="eval-ade7758_2src_2interrupt_2interrupt_8c.html#ad9142558518599e0b3a016226eb6a558" target="_top" xlink:title="Initialize IRQN interrupt.">
<polygon fill="white" stroke="#666666" points="329,-389 251,-389 251,-370 329,-370 329,-389"/>
<text text-anchor="middle" x="290" y="-377" font-family="Helvetica,sans-Serif" font-size="10.00">inter_init_irq</text>
</a>
</g>
</g>
<!-- Node1&#45;&gt;Node21 -->
<g id="edge21_Node000001_Node000021" class="edge">
<title>Node1&#45;&gt;Node21</title>
<g id="a_edge21_Node000001_Node000021"><a xlink:title=" ">
<path fill="none" stroke="#63b8ff" d="M450.02,-454.49C433.74,-437.67 406.56,-412.48 378,-398.5 362.86,-391.09 344.85,-386.55 329.14,-383.77"/>
<polygon fill="#63b8ff" stroke="#63b8ff" points="447.69,-457.12 457.1,-461.99 452.78,-452.32 447.69,-457.12"/>
</a>
</g>
</g>
<!-- Node22 -->
<g id="Node000022" class="node">
<title>Node22</title>
<g id="a_Node000022"><a xlink:href="eval-ade7953_2src_2interrupt_2interrupt_8c.html#a64c0f22d80f42624a5e6ccfcdf7b7e47" target="_top" xlink:title="Initialize IRQN interrupt.">
<polygon fill="white" stroke="#666666" points="329,-352 251,-352 251,-333 329,-333 329,-352"/>
<text text-anchor="middle" x="290" y="-340" font-family="Helvetica,sans-Serif" font-size="10.00">inter_init_irq</text>
</a>
</g>
</g>
<!-- Node1&#45;&gt;Node22 -->
<g id="edge22_Node000001_Node000022" class="edge">
<title>Node1&#45;&gt;Node22</title>
<g id="a_edge22_Node000001_Node000022"><a xlink:title=" ">
<path fill="none" stroke="#63b8ff" d="M456.02,-452.88C442.32,-427.96 414.57,-384.27 378,-361.5 363.43,-352.43 345.14,-347.65 329.09,-345.15"/>
<polygon fill="#63b8ff" stroke="#63b8ff" points="452.93,-454.53 460.72,-461.72 459.11,-451.24 452.93,-454.53"/>
</a>
</g>
</g>
<!-- Node23 -->
<g id="Node000023" class="node">
<title>Node23</title>
<g id="a_Node000023"><a xlink:href="eval-ade7753_2src_2interrupt_2interrupt_8c.html#a0ba92cc819a15706a81ac016c98aa426" target="_top" xlink:title="Initialize zx interrupt.">
<polygon fill="white" stroke="#666666" points="328.5,-463 251.5,-463 251.5,-444 328.5,-444 328.5,-463"/>
<text text-anchor="middle" x="290" y="-451" font-family="Helvetica,sans-Serif" font-size="10.00">inter_init_zx</text>
</a>
</g>
</g>
<!-- Node1&#45;&gt;Node23 -->
<g id="edge23_Node000001_Node000023" class="edge">
<title>Node1&#45;&gt;Node23</title>
<g id="a_edge23_Node000001_Node000023"><a xlink:title=" ">
<path fill="none" stroke="#63b8ff" d="M403.47,-465.1C378.44,-462.52 350.38,-459.63 328.56,-457.37"/>
<polygon fill="#63b8ff" stroke="#63b8ff" points="403.31,-468.6 413.62,-466.15 404.03,-461.64 403.31,-468.6"/>
</a>
</g>
</g>
<!-- Node24 -->
<g id="Node000024" class="node">
<title>Node24</title>
<g id="a_Node000024"><a xlink:href="eval-ade7953_2src_2interrupt_2interrupt_8c.html#af8cf12af8c185b63ae18866f7c4f226e" target="_top" xlink:title="Initialize zx interrupt.">
<polygon fill="white" stroke="#666666" points="328.5,-315 251.5,-315 251.5,-296 328.5,-296 328.5,-315"/>
<text text-anchor="middle" x="290" y="-303" font-family="Helvetica,sans-Serif" font-size="10.00">inter_init_zx</text>
</a>
</g>
</g>
<!-- Node1&#45;&gt;Node24 -->
<g id="edge25_Node000001_Node000024" class="edge">
<title>Node1&#45;&gt;Node24</title>
<g id="a_edge25_Node000001_Node000024"><a xlink:title=" ">
<path fill="none" stroke="#63b8ff" d="M459.51,-451.81C448.72,-419.81 422.83,-356.81 378,-324.5 363.83,-314.29 345.21,-309.39 328.84,-307.1"/>
<polygon fill="#63b8ff" stroke="#63b8ff" points="456.31,-453.3 462.71,-461.74 462.98,-451.15 456.31,-453.3"/>
</a>
</g>
</g>
<!-- Node25 -->
<g id="Node000025" class="node">
<title>Node25</title>
<g id="a_Node000025"><a xlink:href="eval-ublox-gnss_2src_2interrupt_2interrupt_8c.html#a8737ba019a4b914a16234ad7b48405a5" target="_top" xlink:title="Initialize interrupt handling for the GNSS device.">
<polygon fill="white" stroke="#666666" points="330,-278 250,-278 250,-259 330,-259 330,-278"/>
<text text-anchor="middle" x="290" y="-266" font-family="Helvetica,sans-Serif" font-size="10.00">interrupt_init</text>
</a>
</g>
</g>
<!-- Node1&#45;&gt;Node25 -->
<g id="edge26_Node000001_Node000025" class="edge">
<title>Node1&#45;&gt;Node25</title>
<g id="a_edge26_Node000001_Node000025"><a xlink:title=" ">
<path fill="none" stroke="#63b8ff" d="M462.03,-451.78C454.25,-413.72 431.71,-330.14 378,-287.5 364.56,-276.83 346.42,-271.84 330.18,-269.61"/>
<polygon fill="#63b8ff" stroke="#63b8ff" points="458.6,-452.47 463.92,-461.63 465.47,-451.16 458.6,-452.47"/>
</a>
</g>
</g>
<!-- Node27 -->
<g id="Node000027" class="node">
<title>Node27</title>
<g id="a_Node000027"><a xlink:href="aducm3029__flash__demo_2src_2main_8c.html#a0ddf1224851353fc92bfbff6f499fa97" target="_top" xlink:title="main">
<polygon fill="white" stroke="#666666" points="310.5,-241 269.5,-241 269.5,-222 310.5,-222 310.5,-241"/>
<text text-anchor="middle" x="290" y="-229" font-family="Helvetica,sans-Serif" font-size="10.00">main</text>
</a>
</g>
</g>
<!-- Node1&#45;&gt;Node27 -->
<g id="edge29_Node000001_Node000027" class="edge">
<title>Node1&#45;&gt;Node27</title>
<g id="a_edge29_Node000001_Node000027"><a xlink:title=" ">
<path fill="none" stroke="#63b8ff" d="M463.74,-451.55C458.77,-407.93 440.64,-303.73 378,-250.5 359.15,-234.48 329.88,-231.06 310.58,-230.75"/>
<polygon fill="#63b8ff" stroke="#63b8ff" points="460.28,-452.12 464.78,-461.71 467.24,-451.41 460.28,-452.12"/>
</a>
</g>
</g>
<!-- Node28 -->
<g id="Node000028" class="node">
<title>Node28</title>
<g id="a_Node000028"><a xlink:href="ad9361_2src_2main_8c.html#a840291bc02cba5474a4cb46a9b9566fe" target="_top" xlink:title="main">
<polygon fill="white" stroke="#666666" points="310.5,-204 269.5,-204 269.5,-185 310.5,-185 310.5,-204"/>
<text text-anchor="middle" x="290" y="-192" font-family="Helvetica,sans-Serif" font-size="10.00">main</text>
</a>
</g>
</g>
<!-- Node1&#45;&gt;Node28 -->
<g id="edge30_Node000001_Node000028" class="edge">
<title>Node1&#45;&gt;Node28</title>
<g id="a_edge30_Node000001_Node000028"><a xlink:title=" ">
<path fill="none" stroke="#63b8ff" d="M465.03,-451.61C462.75,-403.05 449.82,-277.7 378,-213.5 359.56,-197.01 330.18,-193.71 310.75,-193.56"/>
<polygon fill="#63b8ff" stroke="#63b8ff" points="461.54,-451.88 465.4,-461.74 468.53,-451.62 461.54,-451.88"/>
</a>
</g>
</g>
<!-- Node29 -->
<g id="Node000029" class="node">
<title>Node29</title>
<g id="a_Node000029"><a xlink:href="net_8c.html#adf5853345417994c989b94f1fc890492" target="_top" xlink:title=" ">
<polygon fill="white" stroke="#666666" points="316.5,-167 263.5,-167 263.5,-148 316.5,-148 316.5,-167"/>
<text text-anchor="middle" x="290" y="-155" font-family="Helvetica,sans-Serif" font-size="10.00">net_init</text>
</a>
</g>
</g>
<!-- Node1&#45;&gt;Node29 -->
<g id="edge31_Node000001_Node000029" class="edge">
<title>Node1&#45;&gt;Node29</title>
<g id="a_edge31_Node000001_Node000029"><a xlink:title=" ">
<path fill="none" stroke="#63b8ff" d="M466.01,-451.71C466.24,-398.6 459.12,-251.88 378,-176.5 361.58,-161.24 335.85,-157.17 316.62,-156.51"/>
<polygon fill="#63b8ff" stroke="#63b8ff" points="462.51,-451.78 465.87,-461.82 469.51,-451.87 462.51,-451.78"/>
</a>
</g>
</g>
<!-- Node31 -->
<g id="Node000031" class="node">
<title>Node31</title>
<g id="a_Node000031"><a xlink:href="stm32__dma_8c.html#a67b4c74f81ec31e9461537a14a95385a" target="_top" xlink:title="Initialize a DMA controller.">
<polygon fill="white" stroke="#666666" points="337.5,-130 242.5,-130 242.5,-111 337.5,-111 337.5,-130"/>
<text text-anchor="middle" x="290" y="-118" font-family="Helvetica,sans-Serif" font-size="10.00">stm32_dma_init</text>
</a>
</g>
</g>
<!-- Node1&#45;&gt;Node31 -->
<g id="edge33_Node000001_Node000031" class="edge">
<title>Node1&#45;&gt;Node31</title>
<g id="a_edge33_Node000001_Node000031"><a xlink:title=" ">
<path fill="none" stroke="#63b8ff" d="M463,-451.74C454.43,-387.14 424.18,-183.75 378,-139.5 367.28,-129.23 352.37,-123.99 337.91,-121.46"/>
<polygon fill="#63b8ff" stroke="#63b8ff" points="459.55,-452.35 464.31,-461.82 466.49,-451.45 459.55,-452.35"/>
</a>
</g>
</g>
<!-- Node32 -->
<g id="Node000032" class="node">
<title>Node32</title>
<g id="a_Node000032"><a xlink:href="stm32__gpdma_8c.html#a2030af9e6ca84cecfdd94a6422ea09bc" target="_top" xlink:title="Initialize a General Purpose DMA controller.">
<polygon fill="white" stroke="#666666" points="343.5,-93 236.5,-93 236.5,-74 343.5,-74 343.5,-93"/>
<text text-anchor="middle" x="290" y="-81" font-family="Helvetica,sans-Serif" font-size="10.00">stm32_gpdma_init</text>
</a>
</g>
</g>
<!-- Node1&#45;&gt;Node32 -->
<g id="edge34_Node000001_Node000032" class="edge">
<title>Node1&#45;&gt;Node32</title>
<g id="a_edge34_Node000001_Node000032"><a xlink:title=" ">
<path fill="none" stroke="#63b8ff" d="M463.57,-451.83C456.38,-382.73 428.94,-152.54 378,-102.5 368.74,-93.4 356.18,-88.23 343.5,-85.38"/>
<polygon fill="#63b8ff" stroke="#63b8ff" points="460.09,-452.22 464.58,-461.81 467.05,-451.51 460.09,-452.22"/>
</a>
</g>
</g>
<!-- Node33 -->
<g id="Node000033" class="node">
<title>Node33</title>
<g id="a_Node000033"><a xlink:href="stm32__tdm_8c.html#a056ca840bde6d6da60fc98ba6a3cdab5" target="_top" xlink:title="Initialize the TDM communication peripheral.">
<polygon fill="white" stroke="#666666" points="336.5,-56 243.5,-56 243.5,-37 336.5,-37 336.5,-56"/>
<text text-anchor="middle" x="290" y="-44" font-family="Helvetica,sans-Serif" font-size="10.00">stm32_tdm_init</text>
</a>
</g>
</g>
<!-- Node1&#45;&gt;Node33 -->
<g id="edge35_Node000001_Node000033" class="edge">
<title>Node1&#45;&gt;Node33</title>
<g id="a_edge35_Node000001_Node000033"><a xlink:title=" ">
<path fill="none" stroke="#63b8ff" d="M464.02,-451.81C458.11,-378.3 433.7,-121.35 378,-65.5 367.19,-54.66 351.73,-49.37 336.84,-46.94"/>
<polygon fill="#63b8ff" stroke="#63b8ff" points="460.55,-452.27 464.82,-461.97 467.53,-451.73 460.55,-452.27"/>
</a>
</g>
</g>
<!-- Node34 -->
<g id="Node000034" class="node">
<title>Node34</title>
<g id="a_Node000034"><a xlink:href="supply_8c.html#a4a47d1b835fa05b58961e7215c9feafb" target="_top" xlink:title="Initialize supply component.">
<polygon fill="white" stroke="#666666" points="325,-611 255,-611 255,-592 325,-592 325,-611"/>
<text text-anchor="middle" x="290" y="-599" font-family="Helvetica,sans-Serif" font-size="10.00">supply_init</text>
</a>
</g>
</g>
<!-- Node1&#45;&gt;Node34 -->
<g id="edge36_Node000001_Node000034" class="edge">
<title>Node1&#45;&gt;Node34</title>
<g id="a_edge36_Node000001_Node000034"><a xlink:title=" ">
<path fill="none" stroke="#63b8ff" d="M456.35,-490.14C442.87,-515.51 415.19,-560.4 378,-583.5 362.28,-593.27 342.18,-597.83 325.26,-599.93"/>
<polygon fill="#63b8ff" stroke="#63b8ff" points="459.5,-491.66 460.95,-481.16 453.27,-488.46 459.5,-491.66"/>
</a>
</g>
</g>
<!-- Node35 -->
<g id="Node000035" class="node">
<title>Node35</title>
<g id="a_Node000035"><a xlink:href="swiot__fw_8c.html#a427f9beea005fab8fccd9774acb53fc3" target="_top" xlink:title="IIO example main execution.">
<polygon fill="white" stroke="#666666" points="336,-19 244,-19 244,0 336,0 336,-19"/>
<text text-anchor="middle" x="290" y="-7" font-family="Helvetica,sans-Serif" font-size="10.00">swiot_firmware</text>
</a>
</g>
</g>
<!-- Node1&#45;&gt;Node35 -->
<g id="edge38_Node000001_Node000035" class="edge">
<title>Node1&#45;&gt;Node35</title>
<g id="a_edge38_Node000001_Node000035"><a xlink:title=" ">
<path fill="none" stroke="#63b8ff" d="M464.42,-451.48C459.76,-373.18 438.88,-88.95 378,-27.5 367.04,-16.43 351.18,-11.3 336,-9.13"/>
<polygon fill="#63b8ff" stroke="#63b8ff" points="460.94,-452.07 465.01,-461.85 467.93,-451.67 460.94,-452.07"/>
</a>
</g>
</g>
<!-- Node5 -->
<g id="Node000005" class="node">
<title>Node5</title>
<g id="a_Node000005"><a xlink:href="voltage__input__irq_8c.html#ac25cbf8ae523e89cb0617e68c98bc697" target="_top" xlink:title="Voltage input irq example main execution.">
<polygon fill="white" stroke="#666666" points="166,-872 77,-872 77,-853 166,-853 166,-872"/>
<text text-anchor="middle" x="121.5" y="-860" font-family="Helvetica,sans-Serif" font-size="10.00">example_main</text>
</a>
</g>
</g>
<!-- Node4&#45;&gt;Node5 -->
<g id="edge4_Node000004_Node000005" class="edge">
<title>Node4&#45;&gt;Node5</title>
<g id="a_edge4_Node000004_Node000005"><a xlink:title=" ">
<path fill="none" stroke="#63b8ff" d="M228.37,-862.5C207.8,-862.5 185.24,-862.5 166.26,-862.5"/>
<polygon fill="#63b8ff" stroke="#63b8ff" points="228.59,-866 238.59,-862.5 228.59,-859 228.59,-866"/>
</a>
</g>
</g>
<!-- Node8 -->
<g id="Node000008" class="node">
<title>Node8</title>
<g id="a_Node000008"><a xlink:href="iio__demo_2src_2platform_2maxim_2main_8c.html#ae66f6b31b5ad750f1fe042a706a4e3d4" target="_top" xlink:title="Main function execution for Maxim platform.">
<polygon fill="white" stroke="#666666" points="142,-798 101,-798 101,-779 142,-779 142,-798"/>
<text text-anchor="middle" x="121.5" y="-786" font-family="Helvetica,sans-Serif" font-size="10.00">main</text>
</a>
</g>
</g>
<!-- Node7&#45;&gt;Node8 -->
<g id="edge7_Node000007_Node000008" class="edge">
<title>Node7&#45;&gt;Node8</title>
<g id="a_edge7_Node000007_Node000008"><a xlink:title=" ">
<path fill="none" stroke="#63b8ff" d="M191.61,-788.5C172.77,-788.5 154.92,-788.5 142.08,-788.5"/>
<polygon fill="#63b8ff" stroke="#63b8ff" points="191.85,-792 201.85,-788.5 191.85,-785 191.85,-792"/>
</a>
</g>
</g>
<!-- Node10 -->
<g id="Node000010" class="node">
<title>Node10</title>
<g id="a_Node000010"><a xlink:href="demo__esp_2src_2examples_2basic_2basic__example_8c.html#ac25cbf8ae523e89cb0617e68c98bc697" target="_top" xlink:title="Basic example main execution.">
<polygon fill="white" stroke="#666666" points="166,-761 77,-761 77,-742 166,-742 166,-761"/>
<text text-anchor="middle" x="121.5" y="-749" font-family="Helvetica,sans-Serif" font-size="10.00">example_main</text>
</a>
</g>
</g>
<!-- Node9&#45;&gt;Node10 -->
<g id="edge9_Node000009_Node000010" class="edge">
<title>Node9&#45;&gt;Node10</title>
<g id="a_edge9_Node000009_Node000010"><a xlink:title=" ">
<path fill="none" stroke="#63b8ff" d="M218.52,-751.5C200.72,-751.5 182.11,-751.5 166.07,-751.5"/>
<polygon fill="#63b8ff" stroke="#63b8ff" points="218.89,-755 228.89,-751.5 218.89,-748 218.89,-755"/>
</a>
</g>
</g>
<!-- Node12 -->
<g id="Node000012" class="node">
<title>Node12</title>
<g id="a_Node000012"><a xlink:href="eval-ade7913_2src_2main_8c.html#a840291bc02cba5474a4cb46a9b9566fe" target="_top" xlink:title=" ">
<polygon fill="white" stroke="#666666" points="142,-685 101,-685 101,-666 142,-666 142,-685"/>
<text text-anchor="middle" x="121.5" y="-673" font-family="Helvetica,sans-Serif" font-size="10.00">main</text>
</a>
</g>
</g>
<!-- Node11&#45;&gt;Node12 -->
<g id="edge11_Node000011_Node000012" class="edge">
<title>Node11&#45;&gt;Node12</title>
<g id="a_edge11_Node000011_Node000012"><a xlink:title=" ">
<path fill="none" stroke="#63b8ff" d="M250.72,-675.5C216.78,-675.5 168.6,-675.5 142.01,-675.5"/>
<polygon fill="#63b8ff" stroke="#63b8ff" points="250.76,-679 260.76,-675.5 250.76,-672 250.76,-679"/>
</a>
</g>
</g>
<!-- Node15&#45;&gt;Node12 -->
<g id="edge15_Node000015_Node000012" class="edge">
<title>Node15&#45;&gt;Node12</title>
<g id="a_edge15_Node000015_Node000012"><a xlink:title=" ">
<path fill="none" stroke="#63b8ff" d="M250.01,-646.95C235,-650.22 217.7,-654.01 202,-657.5 181.56,-662.05 158.18,-667.35 142.09,-671.02"/>
<polygon fill="#63b8ff" stroke="#63b8ff" points="250.96,-650.32 259.99,-644.78 249.47,-643.48 250.96,-650.32"/>
</a>
</g>
</g>
<!-- Node16 -->
<g id="Node000016" class="node">
<title>Node16</title>
<g id="a_Node000016"><a xlink:href="state__machine_8c.html#a92bc605df80f651e105fe804f43d615b" target="_top" xlink:title="State machine main execution.">
<polygon fill="white" stroke="#666666" points="166,-648 77,-648 77,-629 166,-629 166,-648"/>
<text text-anchor="middle" x="121.5" y="-636" font-family="Helvetica,sans-Serif" font-size="10.00">state_machine</text>
</a>
</g>
</g>
<!-- Node15&#45;&gt;Node16 -->
<g id="edge16_Node000015_Node000016" class="edge">
<title>Node15&#45;&gt;Node16</title>
<g id="a_edge16_Node000015_Node000016"><a xlink:title=" ">
<path fill="none" stroke="#63b8ff" d="M249.74,-638.5C224.65,-638.5 192.08,-638.5 166.18,-638.5"/>
<polygon fill="#63b8ff" stroke="#63b8ff" points="250,-642 260,-638.5 250,-635 250,-642"/>
</a>
</g>
</g>
<!-- Node16&#45;&gt;Node17 -->
<g id="edge17_Node000016_Node000017" class="edge">
<title>Node16&#45;&gt;Node17</title>
<g id="a_edge17_Node000016_Node000017"><a xlink:title=" ">
<path fill="none" stroke="#63b8ff" d="M85.58,-651.55C70.73,-657.1 53.95,-663.37 41.29,-668.11"/>
<polygon fill="#63b8ff" stroke="#63b8ff" points="86.86,-654.81 95.01,-648.03 84.41,-648.25 86.86,-654.81"/>
</a>
</g>
</g>
<!-- Node19 -->
<g id="Node000019" class="node">
<title>Node19</title>
<g id="a_Node000019"><a xlink:href="eval-ade7753_2src_2main_8c.html#a840291bc02cba5474a4cb46a9b9566fe" target="_top" xlink:title=" ">
<polygon fill="white" stroke="#666666" points="142,-481 101,-481 101,-462 142,-462 142,-481"/>
<text text-anchor="middle" x="121.5" y="-469" font-family="Helvetica,sans-Serif" font-size="10.00">main</text>
</a>
</g>
</g>
<!-- Node18&#45;&gt;Node19 -->
<g id="edge19_Node000018_Node000019" class="edge">
<title>Node18&#45;&gt;Node19</title>
<g id="a_edge19_Node000018_Node000019"><a xlink:title=" ">
<path fill="none" stroke="#63b8ff" d="M240.53,-484.97C207.84,-481.24 166.43,-476.51 142.36,-473.77"/>
<polygon fill="#63b8ff" stroke="#63b8ff" points="240.47,-488.48 250.8,-486.14 241.26,-481.53 240.47,-488.48"/>
</a>
</g>
</g>
<!-- Node23&#45;&gt;Node19 -->
<g id="edge24_Node000023_Node000019" class="edge">
<title>Node23&#45;&gt;Node19</title>
<g id="a_edge24_Node000023_Node000019"><a xlink:title=" ">
<path fill="none" stroke="#63b8ff" d="M240.89,-458.7C207.98,-462.26 166.11,-466.79 142,-469.39"/>
<polygon fill="#63b8ff" stroke="#63b8ff" points="241.65,-462.14 251.22,-457.58 240.9,-455.18 241.65,-462.14"/>
</a>
</g>
</g>
<!-- Node26 -->
<g id="Node000026" class="node">
<title>Node26</title>
<g id="a_Node000026"><a xlink:href="eval-ublox-gnss_2src_2main_8c.html#a840291bc02cba5474a4cb46a9b9566fe" target="_top" xlink:title=" ">
<polygon fill="white" stroke="#666666" points="142,-278 101,-278 101,-259 142,-259 142,-278"/>
<text text-anchor="middle" x="121.5" y="-266" font-family="Helvetica,sans-Serif" font-size="10.00">main</text>
</a>
</g>
</g>
<!-- Node25&#45;&gt;Node26 -->
<g id="edge27_Node000025_Node000026" class="edge">
<title>Node25&#45;&gt;Node26</title>
<g id="a_edge27_Node000025_Node000026"><a xlink:title=" ">
<path fill="none" stroke="#63b8ff" d="M239.69,-268.5C207.04,-268.5 165.99,-268.5 142.15,-268.5"/>
<polygon fill="#63b8ff" stroke="#63b8ff" points="239.96,-272 249.96,-268.5 239.96,-265 239.96,-272"/>
</a>
</g>
</g>
<!-- Node30 -->
<g id="Node000030" class="node">
<title>Node30</title>
<g id="a_Node000030"><a xlink:href="wethlink_2src_2app_2main_8c.html#a840291bc02cba5474a4cb46a9b9566fe" target="_top" xlink:title=" ">
<polygon fill="white" stroke="#666666" points="142,-167 101,-167 101,-148 142,-148 142,-167"/>
<text text-anchor="middle" x="121.5" y="-155" font-family="Helvetica,sans-Serif" font-size="10.00">main</text>
</a>
</g>
</g>
<!-- Node29&#45;&gt;Node30 -->
<g id="edge32_Node000029_Node000030" class="edge">
<title>Node29&#45;&gt;Node30</title>
<g id="a_edge32_Node000029_Node000030"><a xlink:title=" ">
<path fill="none" stroke="#63b8ff" d="M252.92,-157.5C218.97,-157.5 169.39,-157.5 142.18,-157.5"/>
<polygon fill="#63b8ff" stroke="#63b8ff" points="253.35,-161 263.35,-157.5 253.35,-154 253.35,-161"/>
</a>
</g>
</g>
<!-- Node34&#45;&gt;Node16 -->
<g id="edge37_Node000034_Node000016" class="edge">
<title>Node34&#45;&gt;Node16</title>
<g id="a_edge37_Node000034_Node000016"><a xlink:title=" ">
<path fill="none" stroke="#63b8ff" d="M244.57,-611.14C230.91,-614.12 215.83,-617.42 202,-620.5 189.84,-623.2 176.65,-626.18 164.57,-628.91"/>
<polygon fill="#63b8ff" stroke="#63b8ff" points="245.66,-614.48 254.69,-608.93 244.17,-607.64 245.66,-614.48"/>
</a>
</g>
</g>
<!-- Node36 -->
<g id="Node000036" class="node">
<title>Node36</title>
<g id="a_Node000036"><a xlink:href="swiot1l_2src_2platform_2maxim_2main_8c.html#ae66f6b31b5ad750f1fe042a706a4e3d4" target="_top" xlink:title="Main function.">
<polygon fill="white" stroke="#666666" points="142,-19 101,-19 101,0 142,0 142,-19"/>
<text text-anchor="middle" x="121.5" y="-7" font-family="Helvetica,sans-Serif" font-size="10.00">main</text>
</a>
</g>
</g>
<!-- Node35&#45;&gt;Node36 -->
<g id="edge39_Node000035_Node000036" class="edge">
<title>Node35&#45;&gt;Node36</title>
<g id="a_edge39_Node000035_Node000036"><a xlink:title=" ">
<path fill="none" stroke="#63b8ff" d="M233.91,-9.5C202.26,-9.5 164.45,-9.5 142.01,-9.5"/>
<polygon fill="#63b8ff" stroke="#63b8ff" points="233.94,-13 243.94,-9.5 233.94,-6 233.94,-13"/>
</a>
</g>
</g>
</g>
</svg>
