<?xml version="1.0" encoding="UTF-8" standalone="no"?>
<!DOCTYPE svg PUBLIC "-//W3C//DTD SVG 1.1//EN"
 "http://www.w3.org/Graphics/SVG/1.1/DTD/svg11.dtd">
<!-- Generated by graphviz version 2.43.0 (0)
 -->
<!-- Title: include/no_os_crc8.h Pages: 1 -->
<!--zoomable 236 -->

<svg id="main" version="1.1" xmlns="http://www.w3.org/2000/svg" xmlns:xlink="http://www.w3.org/1999/xlink" xml:space="preserve" onload="init(evt)">

<style type="text/css"><![CDATA[
.node, .edge {opacity: 0.7;}
.node.selected, .edge.selected {opacity: 1;}
.edge:hover path { stroke: red; }
.edge:hover polygon { stroke: red; fill: red; }
]]></style>

<defs>
  <circle id="rim" cx="0" cy="0" r="7"/>
  <circle id="rim2" cx="0" cy="0" r="3.5"/>
  <g id="zoomPlus">
    <use xlink:href="#rim" fill="#404040"><set attributeName="fill" to="#808080" begin="zoomplus.mouseover" end="zoomplus.mouseout"/></use>
    <path d="M-4,0h8M0,-4v8" fill="none" stroke="white" stroke-width="1.5" pointer-events="none"/>
  </g>
  <g id="zoomMin">
    <use xlink:href="#rim" fill="#404040"><set attributeName="fill" to="#808080" begin="zoomminus.mouseover" end="zoomminus.mouseout"/></use>
    <path d="M-4,0h8" fill="none" stroke="white" stroke-width="1.5" pointer-events="none"/>
  </g>
  <g id="arrowUp" transform="translate(30 24)">
    <use xlink:href="#rim"/>
    <path pointer-events="none" fill="none" stroke="white" stroke-width="1.5" d="M0,-3.0v7 M-2.5,-0.5L0,-3.0L2.5,-0.5"/>
  </g>
  <g id="arrowRight" transform="rotate(90) translate(36 -43)">
    <use xlink:href="#rim"/>
    <path pointer-events="none" fill="none" stroke="white" stroke-width="1.5" d="M0,-3.0v7 M-2.5,-0.5L0,-3.0L2.5,-0.5"/>
  </g>
  <g id="arrowDown" transform="rotate(180) translate(-30 -48)">
    <use xlink:href="#rim"/>
    <path pointer-events="none" fill="none" stroke="white" stroke-width="1.5" d="M0,-3.0v7 M-2.5,-0.5L0,-3.0L2.5,-0.5"/>
  </g>
  <g id="arrowLeft" transform="rotate(270) translate(-36 17)">
    <use xlink:href="#rim"/>
    <path pointer-events="none" fill="none" stroke="white" stroke-width="1.5" d="M0,-3.0v7 M-2.5,-0.5L0,-3.0L2.5,-0.5"/>
  </g>
  <g id="resetDef">
    <use xlink:href="#rim2" fill="#404040"><set attributeName="fill" to="#808080" begin="reset.mouseover" end="reset.mouseout"/></use>
  </g>
</defs>
<script type="application/ecmascript">
var viewWidth = 3791;
var viewHeight = 236;
var sectionId = 'dynsection-1';
</script>
<script type="application/ecmascript" xlink:href="svg.min.js"/>
<svg id="graph" class="graph">
<g id="viewport">
<title>include/no_os_crc8.h</title>
<!-- Node1 -->
<g id="Node000001" class="node">
<title>Node1</title>
<g id="a_Node000001"><a xlink:title="Header file of CRC&#45;8 computation.">
<polygon fill="#999999" stroke="#666666" points="1924,-228 1806,-228 1806,-209 1924,-209 1924,-228"/>
<text text-anchor="middle" x="1865" y="-216" font-family="Helvetica,sans-Serif" font-size="10.00">include/no_os_crc8.h</text>
</a>
</g>
</g>
<!-- Node2 -->
<g id="Node000002" class="node">
<title>Node2</title>
<g id="a_Node000002"><a xlink:href="ad74413r_8c.html" target="_top" xlink:title="Source file of AD74413r Driver.">
<polygon fill="white" stroke="#666666" points="140,-173 0,-173 0,-143 140,-143 140,-173"/>
<text text-anchor="start" x="8" y="-161" font-family="Helvetica,sans-Serif" font-size="10.00">drivers/adc&#45;dac/ad74413r</text>
<text text-anchor="middle" x="70" y="-150" font-family="Helvetica,sans-Serif" font-size="10.00">/ad74413r.c</text>
</a>
</g>
</g>
<!-- Node1&#45;&gt;Node2 -->
<g id="edge1_Node000001_Node000002" class="edge">
<title>Node1&#45;&gt;Node2</title>
<g id="a_edge1_Node000001_Node000002"><a xlink:title=" ">
<path fill="none" stroke="#63b8ff" d="M1795.57,-217.09C1516.59,-215.21 476.51,-206.08 149,-173 146.09,-172.71 143.13,-172.37 140.14,-171.99"/>
<polygon fill="#63b8ff" stroke="#63b8ff" points="1795.93,-220.59 1805.96,-217.15 1795.98,-213.59 1795.93,-220.59"/>
</a>
</g>
</g>
<!-- Node3 -->
<g id="Node000003" class="node">
<title>Node3</title>
<g id="a_Node000003"><a xlink:href="ad74416h_8c.html" target="_top" xlink:title="Source file of AD74416H Driver.">
<polygon fill="white" stroke="#666666" points="301.5,-173 158.5,-173 158.5,-143 301.5,-143 301.5,-173"/>
<text text-anchor="start" x="166.5" y="-161" font-family="Helvetica,sans-Serif" font-size="10.00">drivers/adc&#45;dac/ad74416h</text>
<text text-anchor="middle" x="230" y="-150" font-family="Helvetica,sans-Serif" font-size="10.00">/ad74416h.c</text>
</a>
</g>
</g>
<!-- Node1&#45;&gt;Node3 -->
<g id="edge2_Node000001_Node000003" class="edge">
<title>Node1&#45;&gt;Node3</title>
<g id="a_edge2_Node000001_Node000003"><a xlink:title=" ">
<path fill="none" stroke="#63b8ff" d="M1795.69,-216.83C1533.88,-214.09 605.17,-202.48 311,-173 308.02,-172.7 304.98,-172.36 301.92,-171.98"/>
<polygon fill="#63b8ff" stroke="#63b8ff" points="1795.79,-220.33 1805.82,-216.93 1795.86,-213.33 1795.79,-220.33"/>
</a>
</g>
</g>
<!-- Node4 -->
<g id="Node000004" class="node">
<title>Node4</title>
<g id="a_Node000004"><a xlink:href="ad4170_8c.html" target="_top" xlink:title="Source file for the AD4170, AD4190 driver.">
<polygon fill="white" stroke="#666666" points="430,-173 320,-173 320,-143 430,-143 430,-173"/>
<text text-anchor="start" x="328" y="-161" font-family="Helvetica,sans-Serif" font-size="10.00">drivers/adc/ad4170</text>
<text text-anchor="middle" x="375" y="-150" font-family="Helvetica,sans-Serif" font-size="10.00">/ad4170.c</text>
</a>
</g>
</g>
<!-- Node1&#45;&gt;Node4 -->
<g id="edge3_Node000001_Node000004" class="edge">
<title>Node1&#45;&gt;Node4</title>
<g id="a_edge3_Node000001_Node000004"><a xlink:title=" ">
<path fill="none" stroke="#63b8ff" d="M1795.66,-217.03C1547.8,-215.07 706.17,-206.1 439,-173 436.07,-172.64 433.07,-172.2 430.05,-171.72"/>
<polygon fill="#63b8ff" stroke="#63b8ff" points="1795.95,-220.53 1805.97,-217.11 1796,-213.53 1795.95,-220.53"/>
</a>
</g>
</g>
<!-- Node5 -->
<g id="Node000005" class="node">
<title>Node5</title>
<g id="a_Node000005"><a xlink:href="ad413x_8c.html" target="_top" xlink:title="Implementation of AD413X Driver.">
<polygon fill="white" stroke="#666666" points="556,-173 448,-173 448,-143 556,-143 556,-173"/>
<text text-anchor="start" x="456" y="-161" font-family="Helvetica,sans-Serif" font-size="10.00">drivers/afe/ad413x</text>
<text text-anchor="middle" x="502" y="-150" font-family="Helvetica,sans-Serif" font-size="10.00">/ad413x.c</text>
</a>
</g>
</g>
<!-- Node1&#45;&gt;Node5 -->
<g id="edge4_Node000001_Node000005" class="edge">
<title>Node1&#45;&gt;Node5</title>
<g id="a_edge4_Node000001_Node000005"><a xlink:title=" ">
<path fill="none" stroke="#63b8ff" d="M1795.56,-216.81C1562.04,-214.24 806.3,-203.67 565,-173 562.11,-172.63 559.16,-172.2 556.18,-171.71"/>
<polygon fill="#63b8ff" stroke="#63b8ff" points="1795.58,-220.31 1805.62,-216.92 1795.66,-213.31 1795.58,-220.31"/>
</a>
</g>
</g>
<!-- Node6 -->
<g id="Node000006" class="node">
<title>Node6</title>
<g id="a_Node000006"><a xlink:href="ad3530r_8h.html" target="_top" xlink:title=" ">
<polygon fill="white" stroke="#666666" points="687.5,-173 574.5,-173 574.5,-143 687.5,-143 687.5,-173"/>
<text text-anchor="start" x="582.5" y="-161" font-family="Helvetica,sans-Serif" font-size="10.00">drivers/dac/ad3530r</text>
<text text-anchor="middle" x="631" y="-150" font-family="Helvetica,sans-Serif" font-size="10.00">/ad3530r.h</text>
</a>
</g>
</g>
<!-- Node1&#45;&gt;Node6 -->
<g id="edge5_Node000001_Node000006" class="edge">
<title>Node1&#45;&gt;Node6</title>
<g id="a_edge5_Node000001_Node000006"><a xlink:title=" ">
<path fill="none" stroke="#63b8ff" d="M1795.66,-216.45C1578.1,-212.89 910.73,-200 696,-173 693.25,-172.65 690.45,-172.25 687.62,-171.8"/>
<polygon fill="#63b8ff" stroke="#63b8ff" points="1795.62,-219.95 1805.68,-216.61 1795.73,-212.95 1795.62,-219.95"/>
</a>
</g>
</g>
<!-- Node8 -->
<g id="Node000008" class="node">
<title>Node8</title>
<g id="a_Node000008"><a xlink:href="ad3552r_8h.html" target="_top" xlink:title="Header file of ad3552r Driver.">
<polygon fill="white" stroke="#666666" points="818.5,-173 705.5,-173 705.5,-143 818.5,-143 818.5,-173"/>
<text text-anchor="start" x="713.5" y="-161" font-family="Helvetica,sans-Serif" font-size="10.00">drivers/dac/ad3552r</text>
<text text-anchor="middle" x="762" y="-150" font-family="Helvetica,sans-Serif" font-size="10.00">/ad3552r.h</text>
</a>
</g>
</g>
<!-- Node1&#45;&gt;Node8 -->
<g id="edge7_Node000001_Node000008" class="edge">
<title>Node1&#45;&gt;Node8</title>
<g id="a_edge7_Node000001_Node000008"><a xlink:title=" ">
<path fill="none" stroke="#63b8ff" d="M1795.75,-216.03C1595.16,-211.53 1016.02,-196.81 828,-173 824.98,-172.62 821.89,-172.17 818.78,-171.67"/>
<polygon fill="#63b8ff" stroke="#63b8ff" points="1795.79,-219.53 1805.87,-216.26 1795.95,-212.53 1795.79,-219.53"/>
</a>
</g>
</g>
<!-- Node16 -->
<g id="Node000016" class="node">
<title>Node16</title>
<g id="a_Node000016"><a xlink:href="ad5460_8c.html" target="_top" xlink:title="Source file of AD5460 Driver.">
<polygon fill="white" stroke="#666666" points="947,-173 837,-173 837,-143 947,-143 947,-173"/>
<text text-anchor="start" x="845" y="-161" font-family="Helvetica,sans-Serif" font-size="10.00">drivers/dac/ad5460</text>
<text text-anchor="middle" x="892" y="-150" font-family="Helvetica,sans-Serif" font-size="10.00">/ad5460.c</text>
</a>
</g>
</g>
<!-- Node1&#45;&gt;Node16 -->
<g id="edge16_Node000001_Node000016" class="edge">
<title>Node1&#45;&gt;Node16</title>
<g id="a_edge16_Node000001_Node000016"><a xlink:title=" ">
<path fill="none" stroke="#63b8ff" d="M1795.79,-218.03C1643.34,-218.33 1267.38,-214.39 956,-173 953.07,-172.61 950.07,-172.16 947.05,-171.65"/>
<polygon fill="#63b8ff" stroke="#63b8ff" points="1795.95,-221.53 1805.94,-218 1795.93,-214.53 1795.95,-221.53"/>
</a>
</g>
</g>
<!-- Node17 -->
<g id="Node000017" class="node">
<title>Node17</title>
<g id="a_Node000017"><a xlink:href="ad5706r_8h.html" target="_top" xlink:title="Header file of AD5706R Driver.">
<polygon fill="white" stroke="#666666" points="1078.5,-173 965.5,-173 965.5,-143 1078.5,-143 1078.5,-173"/>
<text text-anchor="start" x="973.5" y="-161" font-family="Helvetica,sans-Serif" font-size="10.00">drivers/dac/ad5706r</text>
<text text-anchor="middle" x="1022" y="-150" font-family="Helvetica,sans-Serif" font-size="10.00">/ad5706r.h</text>
</a>
</g>
</g>
<!-- Node1&#45;&gt;Node17 -->
<g id="edge17_Node000001_Node000017" class="edge">
<title>Node1&#45;&gt;Node17</title>
<g id="a_edge17_Node000001_Node000017"><a xlink:title=" ">
<path fill="none" stroke="#63b8ff" d="M1795.34,-217.13C1658.81,-215.6 1346.69,-208.18 1087,-173 1084.25,-172.63 1081.45,-172.2 1078.63,-171.74"/>
<polygon fill="#63b8ff" stroke="#63b8ff" points="1795.62,-220.63 1805.65,-217.23 1795.69,-213.63 1795.62,-220.63"/>
</a>
</g>
</g>
<!-- Node19 -->
<g id="Node000019" class="node">
<title>Node19</title>
<g id="a_Node000019"><a xlink:href="ad5710r_8h.html" target="_top" xlink:title="Header file of ad5710r Driver.">
<polygon fill="white" stroke="#666666" points="1209.5,-173 1096.5,-173 1096.5,-143 1209.5,-143 1209.5,-173"/>
<text text-anchor="start" x="1104.5" y="-161" font-family="Helvetica,sans-Serif" font-size="10.00">drivers/dac/ad5710r</text>
<text text-anchor="middle" x="1153" y="-150" font-family="Helvetica,sans-Serif" font-size="10.00">/ad5710r.h</text>
</a>
</g>
</g>
<!-- Node1&#45;&gt;Node19 -->
<g id="edge19_Node000001_Node000019" class="edge">
<title>Node1&#45;&gt;Node19</title>
<g id="a_edge19_Node000001_Node000019"><a xlink:title=" ">
<path fill="none" stroke="#63b8ff" d="M1795.78,-215.99C1677.03,-212.69 1427.07,-202.55 1218,-173 1215.26,-172.61 1212.46,-172.17 1209.63,-171.7"/>
<polygon fill="#63b8ff" stroke="#63b8ff" points="1795.74,-219.49 1805.83,-216.27 1795.93,-212.5 1795.74,-219.49"/>
</a>
</g>
</g>
<!-- Node21 -->
<g id="Node000021" class="node">
<title>Node21</title>
<g id="a_Node000021"><a xlink:href="max22007_8c.html" target="_top" xlink:title="Source file of MAX22007 Driver.">
<polygon fill="white" stroke="#666666" points="1352.5,-173 1227.5,-173 1227.5,-143 1352.5,-143 1352.5,-173"/>
<text text-anchor="start" x="1235.5" y="-161" font-family="Helvetica,sans-Serif" font-size="10.00">drivers/dac/max22007</text>
<text text-anchor="middle" x="1290" y="-150" font-family="Helvetica,sans-Serif" font-size="10.00">/max22007.c</text>
</a>
</g>
</g>
<!-- Node1&#45;&gt;Node21 -->
<g id="edge21_Node000001_Node000021" class="edge">
<title>Node1&#45;&gt;Node21</title>
<g id="a_edge21_Node000001_Node000021"><a xlink:title=" ">
<path fill="none" stroke="#63b8ff" d="M1795.78,-213.73C1698.4,-207.9 1515.54,-195 1361,-173 1358.26,-172.61 1355.47,-172.18 1352.66,-171.73"/>
<polygon fill="#63b8ff" stroke="#63b8ff" points="1795.61,-217.23 1805.8,-214.32 1796.02,-210.24 1795.61,-217.23"/>
</a>
</g>
</g>
<!-- Node22 -->
<g id="Node000022" class="node">
<title>Node22</title>
<g id="a_Node000022"><a xlink:href="max22017_8c.html" target="_top" xlink:title="Source file of MAX22017 Driver.">
<polygon fill="white" stroke="#666666" points="1495.5,-173 1370.5,-173 1370.5,-143 1495.5,-143 1495.5,-173"/>
<text text-anchor="start" x="1378.5" y="-161" font-family="Helvetica,sans-Serif" font-size="10.00">drivers/dac/max22017</text>
<text text-anchor="middle" x="1433" y="-150" font-family="Helvetica,sans-Serif" font-size="10.00">/max22017.c</text>
</a>
</g>
</g>
<!-- Node1&#45;&gt;Node22 -->
<g id="edge22_Node000001_Node000022" class="edge">
<title>Node1&#45;&gt;Node22</title>
<g id="a_edge22_Node000001_Node000022"><a xlink:title=" ">
<path fill="none" stroke="#63b8ff" d="M1795.51,-210.35C1722.86,-202.54 1605.63,-188.98 1505,-173 1501.98,-172.52 1498.9,-172.01 1495.78,-171.47"/>
<polygon fill="#63b8ff" stroke="#63b8ff" points="1795.58,-213.88 1805.9,-211.46 1796.32,-206.92 1795.58,-213.88"/>
</a>
</g>
</g>
<!-- Node23 -->
<g id="Node000023" class="node">
<title>Node23</title>
<g id="a_Node000023"><a xlink:href="ade7913_8c.html" target="_top" xlink:title="Implementation of ADE7913 Driver.">
<polygon fill="white" stroke="#666666" points="1642,-173 1514,-173 1514,-143 1642,-143 1642,-173"/>
<text text-anchor="start" x="1522" y="-161" font-family="Helvetica,sans-Serif" font-size="10.00">drivers/meter/ade7913</text>
<text text-anchor="middle" x="1578" y="-150" font-family="Helvetica,sans-Serif" font-size="10.00">/ade7913.c</text>
</a>
</g>
</g>
<!-- Node1&#45;&gt;Node23 -->
<g id="edge23_Node000001_Node000023" class="edge">
<title>Node1&#45;&gt;Node23</title>
<g id="a_edge23_Node000001_Node000023"><a xlink:title=" ">
<path fill="none" stroke="#63b8ff" d="M1813.4,-206.98C1765.4,-197.2 1693.71,-182.58 1642.06,-172.06"/>
<polygon fill="#63b8ff" stroke="#63b8ff" points="1812.77,-210.43 1823.27,-208.99 1814.17,-203.57 1812.77,-210.43"/>
</a>
</g>
</g>
<!-- Node24 -->
<g id="Node000024" class="node">
<title>Node24</title>
<g id="a_Node000024"><a xlink:href="ade9113_8c.html" target="_top" xlink:title="Implementation of ADE9113 Driver.">
<polygon fill="white" stroke="#666666" points="1788,-173 1660,-173 1660,-143 1788,-143 1788,-173"/>
<text text-anchor="start" x="1668" y="-161" font-family="Helvetica,sans-Serif" font-size="10.00">drivers/meter/ade9113</text>
<text text-anchor="middle" x="1724" y="-150" font-family="Helvetica,sans-Serif" font-size="10.00">/ade9113.c</text>
</a>
</g>
</g>
<!-- Node1&#45;&gt;Node24 -->
<g id="edge24_Node000001_Node000024" class="edge">
<title>Node1&#45;&gt;Node24</title>
<g id="a_edge24_Node000001_Node000024"><a xlink:title=" ">
<path fill="none" stroke="#63b8ff" d="M1835.07,-205.08C1812.46,-195.7 1781.42,-182.82 1757.9,-173.06"/>
<polygon fill="#63b8ff" stroke="#63b8ff" points="1833.92,-208.39 1844.5,-208.99 1836.6,-201.93 1833.92,-208.39"/>
</a>
</g>
</g>
<!-- Node25 -->
<g id="Node000025" class="node">
<title>Node25</title>
<g id="a_Node000025"><a xlink:href="adin1110_8c.html" target="_top" xlink:title="Source file of the ADIN1110 driver.">
<polygon fill="white" stroke="#666666" points="1923.5,-173 1806.5,-173 1806.5,-143 1923.5,-143 1923.5,-173"/>
<text text-anchor="start" x="1814.5" y="-161" font-family="Helvetica,sans-Serif" font-size="10.00">drivers/net/adin1110</text>
<text text-anchor="middle" x="1865" y="-150" font-family="Helvetica,sans-Serif" font-size="10.00">/adin1110.c</text>
</a>
</g>
</g>
<!-- Node1&#45;&gt;Node25 -->
<g id="edge25_Node000001_Node000025" class="edge">
<title>Node1&#45;&gt;Node25</title>
<g id="a_edge25_Node000001_Node000025"><a xlink:title=" ">
<path fill="none" stroke="#63b8ff" d="M1865,-198.65C1865,-190.36 1865,-180.78 1865,-173.11"/>
<polygon fill="#63b8ff" stroke="#63b8ff" points="1861.5,-198.87 1865,-208.87 1868.5,-198.87 1861.5,-198.87"/>
</a>
</g>
</g>
<!-- Node26 -->
<g id="Node000026" class="node">
<title>Node26</title>
<g id="a_Node000026"><a xlink:href="ades1754_8c.html" target="_top" xlink:title="Source file for the ADES1754 Driver.">
<polygon fill="white" stroke="#666666" points="2076,-173 1942,-173 1942,-143 2076,-143 2076,-173"/>
<text text-anchor="start" x="1950" y="-161" font-family="Helvetica,sans-Serif" font-size="10.00">drivers/power/ades1754</text>
<text text-anchor="middle" x="2009" y="-150" font-family="Helvetica,sans-Serif" font-size="10.00">/ades1754.c</text>
</a>
</g>
</g>
<!-- Node1&#45;&gt;Node26 -->
<g id="edge26_Node000001_Node000026" class="edge">
<title>Node1&#45;&gt;Node26</title>
<g id="a_edge26_Node000001_Node000026"><a xlink:title=" ">
<path fill="none" stroke="#63b8ff" d="M1895.26,-205.21C1918.37,-195.82 1950.25,-182.87 1974.38,-173.06"/>
<polygon fill="#63b8ff" stroke="#63b8ff" points="1893.89,-201.99 1885.94,-208.99 1896.52,-208.47 1893.89,-201.99"/>
</a>
</g>
</g>
<!-- Node27 -->
<g id="Node000027" class="node">
<title>Node27</title>
<g id="a_Node000027"><a xlink:href="lt3074_8c.html" target="_top" xlink:title=" ">
<polygon fill="white" stroke="#666666" points="2211.5,-173 2094.5,-173 2094.5,-143 2211.5,-143 2211.5,-173"/>
<text text-anchor="start" x="2102.5" y="-161" font-family="Helvetica,sans-Serif" font-size="10.00">drivers/power/lt3074</text>
<text text-anchor="middle" x="2153" y="-150" font-family="Helvetica,sans-Serif" font-size="10.00">/lt3074.c</text>
</a>
</g>
</g>
<!-- Node1&#45;&gt;Node27 -->
<g id="edge27_Node000001_Node000027" class="edge">
<title>Node1&#45;&gt;Node27</title>
<g id="a_edge27_Node000001_Node000027"><a xlink:title=" ">
<path fill="none" stroke="#63b8ff" d="M1917.62,-206.91C1962.19,-197.93 2027.79,-184.67 2085,-173 2088.07,-172.37 2091.22,-171.73 2094.4,-171.08"/>
<polygon fill="#63b8ff" stroke="#63b8ff" points="1916.71,-203.52 1907.6,-208.93 1918.09,-210.39 1916.71,-203.52"/>
</a>
</g>
</g>
<!-- Node28 -->
<g id="Node000028" class="node">
<title>Node28</title>
<g id="a_Node000028"><a xlink:href="lt7170_8c.html" target="_top" xlink:title=" ">
<polygon fill="white" stroke="#666666" points="2346.5,-173 2229.5,-173 2229.5,-143 2346.5,-143 2346.5,-173"/>
<text text-anchor="start" x="2237.5" y="-161" font-family="Helvetica,sans-Serif" font-size="10.00">drivers/power/lt7170</text>
<text text-anchor="middle" x="2288" y="-150" font-family="Helvetica,sans-Serif" font-size="10.00">/lt7170.c</text>
</a>
</g>
</g>
<!-- Node1&#45;&gt;Node28 -->
<g id="edge28_Node000001_Node000028" class="edge">
<title>Node1&#45;&gt;Node28</title>
<g id="a_edge28_Node000001_Node000028"><a xlink:title=" ">
<path fill="none" stroke="#63b8ff" d="M1934.51,-210.42C2006.25,-202.72 2121.29,-189.32 2220,-173 2223.09,-172.49 2226.26,-171.94 2229.45,-171.36"/>
<polygon fill="#63b8ff" stroke="#63b8ff" points="1933.82,-206.97 1924.25,-211.51 1934.56,-213.93 1933.82,-206.97"/>
</a>
</g>
</g>
<!-- Node29 -->
<g id="Node000029" class="node">
<title>Node29</title>
<g id="a_Node000029"><a xlink:href="lt7182s_8c.html" target="_top" xlink:title=" ">
<polygon fill="white" stroke="#666666" points="2487,-173 2365,-173 2365,-143 2487,-143 2487,-173"/>
<text text-anchor="start" x="2373" y="-161" font-family="Helvetica,sans-Serif" font-size="10.00">drivers/power/lt7182s</text>
<text text-anchor="middle" x="2426" y="-150" font-family="Helvetica,sans-Serif" font-size="10.00">/lt7182s.c</text>
</a>
</g>
</g>
<!-- Node1&#45;&gt;Node29 -->
<g id="edge29_Node000001_Node000029" class="edge">
<title>Node1&#45;&gt;Node29</title>
<g id="a_edge29_Node000001_Node000029"><a xlink:title=" ">
<path fill="none" stroke="#63b8ff" d="M1934.13,-213.5C2029.26,-207.47 2205.71,-194.44 2355,-173 2358.23,-172.54 2361.54,-172.02 2364.88,-171.47"/>
<polygon fill="#63b8ff" stroke="#63b8ff" points="1933.82,-210.01 1924.06,-214.13 1934.26,-217 1933.82,-210.01"/>
</a>
</g>
</g>
<!-- Node30 -->
<g id="Node000030" class="node">
<title>Node30</title>
<g id="a_Node000030"><a xlink:href="lt8722_8c.html" target="_top" xlink:title="Source file for the LT8722 Driver.">
<polygon fill="white" stroke="#666666" points="2622.5,-173 2505.5,-173 2505.5,-143 2622.5,-143 2622.5,-173"/>
<text text-anchor="start" x="2513.5" y="-161" font-family="Helvetica,sans-Serif" font-size="10.00">drivers/power/lt8722</text>
<text text-anchor="middle" x="2564" y="-150" font-family="Helvetica,sans-Serif" font-size="10.00">/lt8722.c</text>
</a>
</g>
</g>
<!-- Node1&#45;&gt;Node30 -->
<g id="edge30_Node000001_Node000030" class="edge">
<title>Node1&#45;&gt;Node30</title>
<g id="a_edge30_Node000001_Node000030"><a xlink:title=" ">
<path fill="none" stroke="#63b8ff" d="M1934.64,-215.61C2051.26,-211.76 2293.23,-200.9 2496,-173 2499.1,-172.57 2502.28,-172.09 2505.48,-171.56"/>
<polygon fill="#63b8ff" stroke="#63b8ff" points="1934.31,-212.12 1924.43,-215.94 1934.53,-219.11 1934.31,-212.12"/>
</a>
</g>
</g>
<!-- Node31 -->
<g id="Node000031" class="node">
<title>Node31</title>
<g id="a_Node000031"><a xlink:href="ltm4686_8c.html" target="_top" xlink:title="Source code of the LTM4686 driver.">
<polygon fill="white" stroke="#666666" points="2767.5,-173 2640.5,-173 2640.5,-143 2767.5,-143 2767.5,-173"/>
<text text-anchor="start" x="2648.5" y="-161" font-family="Helvetica,sans-Serif" font-size="10.00">drivers/power/ltm4686</text>
<text text-anchor="middle" x="2704" y="-150" font-family="Helvetica,sans-Serif" font-size="10.00">/ltm4686.c</text>
</a>
</g>
</g>
<!-- Node1&#45;&gt;Node31 -->
<g id="edge31_Node000001_Node000031" class="edge">
<title>Node1&#45;&gt;Node31</title>
<g id="a_edge31_Node000001_Node000031"><a xlink:title=" ">
<path fill="none" stroke="#63b8ff" d="M1934.53,-216.52C2069.37,-213.93 2375.58,-204.77 2631,-173 2634.07,-172.62 2637.21,-172.18 2640.38,-171.71"/>
<polygon fill="#63b8ff" stroke="#63b8ff" points="1934.28,-213.02 1924.35,-216.7 1934.41,-220.02 1934.28,-213.02"/>
</a>
</g>
</g>
<!-- Node32 -->
<g id="Node000032" class="node">
<title>Node32</title>
<g id="a_Node000032"><a xlink:href="ltp8800_8c.html" target="_top" xlink:title=" ">
<polygon fill="white" stroke="#666666" points="2908.5,-173 2785.5,-173 2785.5,-143 2908.5,-143 2908.5,-173"/>
<text text-anchor="start" x="2793.5" y="-161" font-family="Helvetica,sans-Serif" font-size="10.00">drivers/power/ltp8800</text>
<text text-anchor="middle" x="2847" y="-150" font-family="Helvetica,sans-Serif" font-size="10.00">/ltp8800.c</text>
</a>
</g>
</g>
<!-- Node1&#45;&gt;Node32 -->
<g id="edge32_Node000001_Node000032" class="edge">
<title>Node1&#45;&gt;Node32</title>
<g id="a_edge32_Node000001_Node000032"><a xlink:title=" ">
<path fill="none" stroke="#63b8ff" d="M1934.3,-217.55C2086.96,-216.92 2463.52,-211.23 2776,-173 2778.99,-172.63 2782.05,-172.21 2785.13,-171.75"/>
<polygon fill="#63b8ff" stroke="#63b8ff" points="1934.13,-214.05 1924.14,-217.59 1934.15,-221.05 1934.13,-214.05"/>
</a>
</g>
</g>
<!-- Node33 -->
<g id="Node000033" class="node">
<title>Node33</title>
<g id="a_Node000033"><a xlink:href="max17616_8c.html" target="_top" xlink:title="Source file of the MAX17616 Driver.">
<polygon fill="white" stroke="#666666" points="3065,-173 2927,-173 2927,-143 3065,-143 3065,-173"/>
<text text-anchor="start" x="2935" y="-161" font-family="Helvetica,sans-Serif" font-size="10.00">drivers/power/max17616</text>
<text text-anchor="middle" x="2996" y="-150" font-family="Helvetica,sans-Serif" font-size="10.00">/max17616.c</text>
</a>
</g>
</g>
<!-- Node1&#45;&gt;Node33 -->
<g id="edge33_Node000001_Node000033" class="edge">
<title>Node1&#45;&gt;Node33</title>
<g id="a_edge33_Node000001_Node000033"><a xlink:title=" ">
<path fill="none" stroke="#63b8ff" d="M1934.47,-217.75C2103.3,-217.67 2548.33,-213.28 2917,-173 2920.18,-172.65 2923.43,-172.25 2926.71,-171.82"/>
<polygon fill="#63b8ff" stroke="#63b8ff" points="1934.24,-214.25 1924.24,-217.75 1934.24,-221.25 1934.24,-214.25"/>
</a>
</g>
</g>
<!-- Node34 -->
<g id="Node000034" class="node">
<title>Node34</title>
<g id="a_Node000034"><a xlink:href="max42500_8c.html" target="_top" xlink:title="Source file of MAX42500 Driver.">
<polygon fill="white" stroke="#666666" points="3221,-173 3083,-173 3083,-143 3221,-143 3221,-173"/>
<text text-anchor="start" x="3091" y="-161" font-family="Helvetica,sans-Serif" font-size="10.00">drivers/power/max42500</text>
<text text-anchor="middle" x="3152" y="-150" font-family="Helvetica,sans-Serif" font-size="10.00">/max42500.c</text>
</a>
</g>
</g>
<!-- Node1&#45;&gt;Node34 -->
<g id="edge34_Node000001_Node000034" class="edge">
<title>Node1&#45;&gt;Node34</title>
<g id="a_edge34_Node000001_Node000034"><a xlink:title=" ">
<path fill="none" stroke="#63b8ff" d="M1934.36,-216.23C2156.78,-211.97 2850.7,-197.03 3074,-173 3076.87,-172.69 3079.8,-172.34 3082.75,-171.95"/>
<polygon fill="#63b8ff" stroke="#63b8ff" points="1934.06,-212.74 1924.12,-216.43 1934.19,-219.74 1934.06,-212.74"/>
</a>
</g>
</g>
<!-- Node35 -->
<g id="Node000035" class="node">
<title>Node35</title>
<g id="a_Node000035"><a xlink:href="adgs6414d_8c.html" target="_top" xlink:title="Implementation of ADGS6414D Driver.">
<polygon fill="white" stroke="#666666" points="3380.5,-173 3239.5,-173 3239.5,-143 3380.5,-143 3380.5,-173"/>
<text text-anchor="start" x="3247.5" y="-161" font-family="Helvetica,sans-Serif" font-size="10.00">drivers/switch/adgs6414d</text>
<text text-anchor="middle" x="3310" y="-150" font-family="Helvetica,sans-Serif" font-size="10.00">/adgs6414d.c</text>
</a>
</g>
</g>
<!-- Node1&#45;&gt;Node35 -->
<g id="edge35_Node000001_Node000035" class="edge">
<title>Node1&#45;&gt;Node35</title>
<g id="a_edge35_Node000001_Node000035"><a xlink:title=" ">
<path fill="none" stroke="#63b8ff" d="M1934.18,-216.53C2174.84,-212.97 2974.67,-199.37 3230,-173 3233.09,-172.68 3236.23,-172.31 3239.41,-171.91"/>
<polygon fill="#63b8ff" stroke="#63b8ff" points="1934.1,-213.03 1924.16,-216.68 1934.21,-220.03 1934.1,-213.03"/>
</a>
</g>
</g>
<!-- Node36 -->
<g id="Node000036" class="node">
<title>Node36</title>
<g id="a_Node000036"><a xlink:href="no__os__crc_8h.html" target="_top" xlink:title="Generic header file for all CRC computation algorithms.">
<polygon fill="white" stroke="#666666" points="3511,-167.5 3399,-167.5 3399,-148.5 3511,-148.5 3511,-167.5"/>
<text text-anchor="middle" x="3455" y="-155.5" font-family="Helvetica,sans-Serif" font-size="10.00">include/no_os_crc.h</text>
</a>
</g>
</g>
<!-- Node1&#45;&gt;Node36 -->
<g id="edge36_Node000001_Node000036" class="edge">
<title>Node1&#45;&gt;Node36</title>
<g id="a_edge36_Node000001_Node000036"><a xlink:title=" ">
<path fill="none" stroke="#63b8ff" d="M1934.37,-217.16C2193.21,-215.64 3102.47,-207.86 3390,-173 3400.2,-171.76 3411.16,-169.69 3421.13,-167.52"/>
<polygon fill="#63b8ff" stroke="#63b8ff" points="1934.32,-213.66 1924.34,-217.22 1934.36,-220.66 1934.32,-213.66"/>
</a>
</g>
</g>
<!-- Node39 -->
<g id="Node000039" class="node">
<title>Node39</title>
<g id="a_Node000039"><a xlink:href="wethlink_2src_2app_2main_8c.html" target="_top" xlink:title=" ">
<polygon fill="white" stroke="#666666" points="3647,-173 3529,-173 3529,-143 3647,-143 3647,-173"/>
<text text-anchor="start" x="3537" y="-161" font-family="Helvetica,sans-Serif" font-size="10.00">projects/wethlink/src</text>
<text text-anchor="middle" x="3588" y="-150" font-family="Helvetica,sans-Serif" font-size="10.00">/app/main.c</text>
</a>
</g>
</g>
<!-- Node1&#45;&gt;Node39 -->
<g id="edge39_Node000001_Node000039" class="edge">
<title>Node1&#45;&gt;Node39</title>
<g id="a_edge39_Node000001_Node000039"><a xlink:title=" ">
<path fill="none" stroke="#63b8ff" d="M1934.26,-217.26C2206.75,-216.08 3205.5,-209.32 3520,-173 3522.87,-172.67 3525.81,-172.28 3528.76,-171.84"/>
<polygon fill="#63b8ff" stroke="#63b8ff" points="1934.09,-213.76 1924.11,-217.31 1934.12,-220.76 1934.09,-213.76"/>
</a>
</g>
</g>
<!-- Node40 -->
<g id="Node000040" class="node">
<title>Node40</title>
<g id="a_Node000040"><a xlink:href="mwc_8c.html" target="_top" xlink:title=" ">
<polygon fill="white" stroke="#666666" points="3783,-173 3665,-173 3665,-143 3783,-143 3783,-173"/>
<text text-anchor="start" x="3673" y="-161" font-family="Helvetica,sans-Serif" font-size="10.00">projects/wethlink/src</text>
<text text-anchor="middle" x="3724" y="-150" font-family="Helvetica,sans-Serif" font-size="10.00">/app/mwc.c</text>
</a>
</g>
</g>
<!-- Node1&#45;&gt;Node40 -->
<g id="edge40_Node000001_Node000040" class="edge">
<title>Node1&#45;&gt;Node40</title>
<g id="a_edge40_Node000001_Node000040"><a xlink:title=" ">
<path fill="none" stroke="#63b8ff" d="M1934.64,-217.43C2221.62,-216.88 3313.55,-212.19 3656,-173 3658.87,-172.67 3661.81,-172.28 3664.76,-171.84"/>
<polygon fill="#63b8ff" stroke="#63b8ff" points="1934.37,-213.93 1924.37,-217.45 1934.38,-220.93 1934.37,-213.93"/>
</a>
</g>
</g>
<!-- Node7 -->
<g id="Node000007" class="node">
<title>Node7</title>
<g id="a_Node000007"><a xlink:href="ad3530r_8c.html" target="_top" xlink:title=" ">
<polygon fill="white" stroke="#666666" points="286.5,-101.5 173.5,-101.5 173.5,-71.5 286.5,-71.5 286.5,-101.5"/>
<text text-anchor="start" x="181.5" y="-89.5" font-family="Helvetica,sans-Serif" font-size="10.00">drivers/dac/ad3530r</text>
<text text-anchor="middle" x="230" y="-78.5" font-family="Helvetica,sans-Serif" font-size="10.00">/ad3530r.c</text>
</a>
</g>
</g>
<!-- Node6&#45;&gt;Node7 -->
<g id="edge6_Node000006_Node000007" class="edge">
<title>Node6&#45;&gt;Node7</title>
<g id="a_edge6_Node000006_Node000007"><a xlink:title=" ">
<path fill="none" stroke="#63b8ff" d="M564.21,-142.96C443.93,-122.93 410.23,-131.8 295,-107 287.97,-105.49 280.61,-103.59 273.46,-101.57"/>
<polygon fill="#63b8ff" stroke="#63b8ff" points="563.73,-146.43 574.17,-144.66 564.9,-139.53 563.73,-146.43"/>
</a>
</g>
</g>
<!-- Node9 -->
<g id="Node000009" class="node">
<title>Node9</title>
<g id="a_Node000009"><a xlink:href="ad3552r_8c.html" target="_top" xlink:title="Implementation of ad3552r Driver.">
<polygon fill="white" stroke="#666666" points="417.5,-101.5 304.5,-101.5 304.5,-71.5 417.5,-71.5 417.5,-101.5"/>
<text text-anchor="start" x="312.5" y="-89.5" font-family="Helvetica,sans-Serif" font-size="10.00">drivers/dac/ad3552r</text>
<text text-anchor="middle" x="361" y="-78.5" font-family="Helvetica,sans-Serif" font-size="10.00">/ad3552r.c</text>
</a>
</g>
</g>
<!-- Node8&#45;&gt;Node9 -->
<g id="edge8_Node000008_Node000009" class="edge">
<title>Node8&#45;&gt;Node9</title>
<g id="a_edge8_Node000008_Node000009"><a xlink:title=" ">
<path fill="none" stroke="#63b8ff" d="M695.21,-142.96C574.93,-122.93 541.23,-131.8 426,-107 418.97,-105.49 411.61,-103.59 404.46,-101.57"/>
<polygon fill="#63b8ff" stroke="#63b8ff" points="694.73,-146.43 705.17,-144.66 695.9,-139.53 694.73,-146.43"/>
</a>
</g>
</g>
<!-- Node10 -->
<g id="Node000010" class="node">
<title>Node10</title>
<g id="a_Node000010"><a xlink:href="iio__ad3552r_8c.html" target="_top" xlink:title="IIO implementation for ad3552r Driver.">
<polygon fill="white" stroke="#666666" points="548.5,-101.5 435.5,-101.5 435.5,-71.5 548.5,-71.5 548.5,-101.5"/>
<text text-anchor="start" x="443.5" y="-89.5" font-family="Helvetica,sans-Serif" font-size="10.00">drivers/dac/ad3552r</text>
<text text-anchor="middle" x="492" y="-78.5" font-family="Helvetica,sans-Serif" font-size="10.00">/iio_ad3552r.c</text>
</a>
</g>
</g>
<!-- Node8&#45;&gt;Node10 -->
<g id="edge9_Node000008_Node000010" class="edge">
<title>Node8&#45;&gt;Node10</title>
<g id="a_edge9_Node000008_Node000010"><a xlink:title=" ">
<path fill="none" stroke="#63b8ff" d="M695.29,-141.66C655.09,-132.18 602.95,-119.49 557,-107 550.75,-105.3 544.18,-103.43 537.72,-101.54"/>
<polygon fill="#63b8ff" stroke="#63b8ff" points="694.7,-145.12 705.24,-144 696.3,-138.3 694.7,-145.12"/>
</a>
</g>
</g>
<!-- Node11 -->
<g id="Node000011" class="node">
<title>Node11</title>
<g id="a_Node000011"><a xlink:href="iio__ad3552r_8h.html" target="_top" xlink:title=" ">
<polygon fill="white" stroke="#666666" points="679.5,-101.5 566.5,-101.5 566.5,-71.5 679.5,-71.5 679.5,-101.5"/>
<text text-anchor="start" x="574.5" y="-89.5" font-family="Helvetica,sans-Serif" font-size="10.00">drivers/dac/ad3552r</text>
<text text-anchor="middle" x="623" y="-78.5" font-family="Helvetica,sans-Serif" font-size="10.00">/iio_ad3552r.h</text>
</a>
</g>
</g>
<!-- Node8&#45;&gt;Node11 -->
<g id="edge10_Node000008_Node000011" class="edge">
<title>Node8&#45;&gt;Node11</title>
<g id="a_edge10_Node000008_Node000011"><a xlink:title=" ">
<path fill="none" stroke="#63b8ff" d="M724.69,-138.34C701.54,-126.77 672.27,-112.14 651.09,-101.54"/>
<polygon fill="#63b8ff" stroke="#63b8ff" points="723.36,-141.59 733.87,-142.94 726.49,-135.33 723.36,-141.59"/>
</a>
</g>
</g>
<!-- Node12 -->
<g id="Node000012" class="node">
<title>Node12</title>
<g id="a_Node000012"><a xlink:href="ad3552r__fmcz_2src_2common_2common__data_8c.html" target="_top" xlink:title="Defines common data to be used by iio examples.">
<polygon fill="white" stroke="#666666" points="842.5,-30 681.5,-30 681.5,0 842.5,0 842.5,-30"/>
<text text-anchor="start" x="689.5" y="-18" font-family="Helvetica,sans-Serif" font-size="10.00">projects/ad3552r_fmcz</text>
<text text-anchor="middle" x="762" y="-7" font-family="Helvetica,sans-Serif" font-size="10.00">/src/common/common_data.c</text>
</a>
</g>
</g>
<!-- Node8&#45;&gt;Node12 -->
<g id="edge11_Node000008_Node000012" class="edge">
<title>Node8&#45;&gt;Node12</title>
<g id="a_edge11_Node000008_Node000012"><a xlink:title=" ">
<path fill="none" stroke="#63b8ff" d="M742.3,-135.05C736.16,-126.84 730.17,-117.05 727,-107 721.52,-89.62 721.52,-83.38 727,-66 731.27,-52.46 740.66,-39.39 748.64,-30.02"/>
<polygon fill="#63b8ff" stroke="#63b8ff" points="739.66,-137.36 748.64,-142.98 745.13,-132.99 739.66,-137.36"/>
</a>
</g>
</g>
<!-- Node13 -->
<g id="Node000013" class="node">
<title>Node13</title>
<g id="a_Node000013"><a xlink:href="ad3552r__fmcz_2src_2common_2common__data_8h.html" target="_top" xlink:title="Defines common data to be used by iio examples.">
<polygon fill="white" stroke="#666666" points="897.5,-101.5 736.5,-101.5 736.5,-71.5 897.5,-71.5 897.5,-101.5"/>
<text text-anchor="start" x="744.5" y="-89.5" font-family="Helvetica,sans-Serif" font-size="10.00">projects/ad3552r_fmcz</text>
<text text-anchor="middle" x="817" y="-78.5" font-family="Helvetica,sans-Serif" font-size="10.00">/src/common/common_data.h</text>
</a>
</g>
</g>
<!-- Node8&#45;&gt;Node13 -->
<g id="edge12_Node000008_Node000013" class="edge">
<title>Node8&#45;&gt;Node13</title>
<g id="a_edge12_Node000008_Node000013"><a xlink:title=" ">
<path fill="none" stroke="#63b8ff" d="M779.39,-135.03C788.06,-124.07 798.29,-111.15 805.89,-101.54"/>
<polygon fill="#63b8ff" stroke="#63b8ff" points="776.59,-132.92 773.13,-142.94 782.08,-137.27 776.59,-132.92"/>
</a>
</g>
</g>
<!-- Node14 -->
<g id="Node000014" class="node">
<title>Node14</title>
<g id="a_Node000014"><a xlink:href="axi__qspi__example_8c.html" target="_top" xlink:title="Implementation of Main Function.">
<polygon fill="white" stroke="#666666" points="1044,-107 916,-107 916,-66 1044,-66 1044,-107"/>
<text text-anchor="start" x="924" y="-95" font-family="Helvetica,sans-Serif" font-size="10.00">projects/ad3552r_fmcz</text>
<text text-anchor="start" x="924" y="-84" font-family="Helvetica,sans-Serif" font-size="10.00">/src/examples/axi_qspi</text>
<text text-anchor="middle" x="980" y="-73" font-family="Helvetica,sans-Serif" font-size="10.00">/axi_qspi_example.c</text>
</a>
</g>
</g>
<!-- Node8&#45;&gt;Node14 -->
<g id="edge14_Node000008_Node000014" class="edge">
<title>Node8&#45;&gt;Node14</title>
<g id="a_edge14_Node000008_Node000014"><a xlink:title=" ">
<path fill="none" stroke="#63b8ff" d="M815.92,-139.81C847.04,-129.89 886.29,-117.37 918.6,-107.07"/>
<polygon fill="#63b8ff" stroke="#63b8ff" points="814.58,-136.56 806.12,-142.94 816.71,-143.23 814.58,-136.56"/>
</a>
</g>
</g>
<!-- Node15 -->
<g id="Node000015" class="node">
<title>Node15</title>
<g id="a_Node000015"><a xlink:href="generic__spi__example_8c.html" target="_top" xlink:title="Implementation of Main Function.">
<polygon fill="white" stroke="#666666" points="1213.5,-107 1062.5,-107 1062.5,-66 1213.5,-66 1213.5,-107"/>
<text text-anchor="start" x="1070.5" y="-95" font-family="Helvetica,sans-Serif" font-size="10.00">projects/ad3552r_fmcz</text>
<text text-anchor="start" x="1070.5" y="-84" font-family="Helvetica,sans-Serif" font-size="10.00">/src/examples/generic</text>
<text text-anchor="middle" x="1138" y="-73" font-family="Helvetica,sans-Serif" font-size="10.00">_spi/generic_spi_example.c</text>
</a>
</g>
</g>
<!-- Node8&#45;&gt;Node15 -->
<g id="edge15_Node000008_Node000015" class="edge">
<title>Node8&#45;&gt;Node15</title>
<g id="a_edge15_Node000008_Node000015"><a xlink:title=" ">
<path fill="none" stroke="#63b8ff" d="M828.8,-142.92C929.26,-124.58 956.7,-125.73 1053,-107 1055.97,-106.42 1059,-105.82 1062.05,-105.19"/>
<polygon fill="#63b8ff" stroke="#63b8ff" points="828.04,-139.5 818.85,-144.75 829.31,-146.38 828.04,-139.5"/>
</a>
</g>
</g>
<!-- Node13&#45;&gt;Node12 -->
<g id="edge13_Node000013_Node000012" class="edge">
<title>Node13&#45;&gt;Node12</title>
<g id="a_edge13_Node000013_Node000012"><a xlink:title=" ">
<path fill="none" stroke="#63b8ff" d="M799.61,-63.53C790.94,-52.57 780.71,-39.65 773.11,-30.04"/>
<polygon fill="#63b8ff" stroke="#63b8ff" points="796.92,-65.77 805.87,-71.44 802.41,-61.42 796.92,-65.77"/>
</a>
</g>
</g>
<!-- Node18 -->
<g id="Node000018" class="node">
<title>Node18</title>
<g id="a_Node000018"><a xlink:href="ad5706r_8c.html" target="_top" xlink:title="Implementation of AD5706R Driver.">
<polygon fill="white" stroke="#666666" points="1344.5,-101.5 1231.5,-101.5 1231.5,-71.5 1344.5,-71.5 1344.5,-101.5"/>
<text text-anchor="start" x="1239.5" y="-89.5" font-family="Helvetica,sans-Serif" font-size="10.00">drivers/dac/ad5706r</text>
<text text-anchor="middle" x="1288" y="-78.5" font-family="Helvetica,sans-Serif" font-size="10.00">/ad5706r.c</text>
</a>
</g>
</g>
<!-- Node17&#45;&gt;Node18 -->
<g id="edge18_Node000017_Node000018" class="edge">
<title>Node17&#45;&gt;Node18</title>
<g id="a_edge18_Node000017_Node000018"><a xlink:title=" ">
<path fill="none" stroke="#63b8ff" d="M1088.8,-141.05C1127.76,-131.56 1177.78,-119.05 1222,-107 1228.22,-105.3 1234.76,-103.45 1241.2,-101.59"/>
<polygon fill="#63b8ff" stroke="#63b8ff" points="1087.52,-137.76 1078.63,-143.52 1089.18,-144.56 1087.52,-137.76"/>
</a>
</g>
</g>
<!-- Node20 -->
<g id="Node000020" class="node">
<title>Node20</title>
<g id="a_Node000020"><a xlink:href="ad5710r_8c.html" target="_top" xlink:title="Implementation of ad5710r Driver.">
<polygon fill="white" stroke="#666666" points="1475.5,-101.5 1362.5,-101.5 1362.5,-71.5 1475.5,-71.5 1475.5,-101.5"/>
<text text-anchor="start" x="1370.5" y="-89.5" font-family="Helvetica,sans-Serif" font-size="10.00">drivers/dac/ad5710r</text>
<text text-anchor="middle" x="1419" y="-78.5" font-family="Helvetica,sans-Serif" font-size="10.00">/ad5710r.c</text>
</a>
</g>
</g>
<!-- Node19&#45;&gt;Node20 -->
<g id="edge20_Node000019_Node000020" class="edge">
<title>Node19&#45;&gt;Node20</title>
<g id="a_edge20_Node000019_Node000020"><a xlink:title=" ">
<path fill="none" stroke="#63b8ff" d="M1219.8,-141.05C1258.76,-131.56 1308.78,-119.05 1353,-107 1359.22,-105.3 1365.76,-103.45 1372.2,-101.59"/>
<polygon fill="#63b8ff" stroke="#63b8ff" points="1218.52,-137.76 1209.63,-143.52 1220.18,-144.56 1218.52,-137.76"/>
</a>
</g>
</g>
<!-- Node37 -->
<g id="Node000037" class="node">
<title>Node37</title>
<g id="a_Node000037"><a xlink:href="ad7606_8c.html" target="_top" xlink:title="Implementation of ad7606 Driver.">
<polygon fill="white" stroke="#666666" points="3443,-101.5 3333,-101.5 3333,-71.5 3443,-71.5 3443,-101.5"/>
<text text-anchor="start" x="3341" y="-89.5" font-family="Helvetica,sans-Serif" font-size="10.00">drivers/adc/ad7606</text>
<text text-anchor="middle" x="3388" y="-78.5" font-family="Helvetica,sans-Serif" font-size="10.00">/ad7606.c</text>
</a>
</g>
</g>
<!-- Node36&#45;&gt;Node37 -->
<g id="edge37_Node000036_Node000037" class="edge">
<title>Node36&#45;&gt;Node37</title>
<g id="a_edge37_Node000036_Node000037"><a xlink:title=" ">
<path fill="none" stroke="#63b8ff" d="M3439.6,-141.03C3428.14,-129.14 3412.64,-113.06 3401.63,-101.64"/>
<polygon fill="#63b8ff" stroke="#63b8ff" points="3437.32,-143.71 3446.78,-148.48 3442.36,-138.85 3437.32,-143.71"/>
</a>
</g>
</g>
<!-- Node38 -->
<g id="Node000038" class="node">
<title>Node38</title>
<g id="a_Node000038"><a xlink:href="adas1000_8c.html" target="_top" xlink:title="Implementation of ADAS1000 Driver.">
<polygon fill="white" stroke="#666666" points="3582.5,-101.5 3461.5,-101.5 3461.5,-71.5 3582.5,-71.5 3582.5,-101.5"/>
<text text-anchor="start" x="3469.5" y="-89.5" font-family="Helvetica,sans-Serif" font-size="10.00">drivers/ecg/adas1000</text>
<text text-anchor="middle" x="3522" y="-78.5" font-family="Helvetica,sans-Serif" font-size="10.00">/adas1000.c</text>
</a>
</g>
</g>
<!-- Node36&#45;&gt;Node38 -->
<g id="edge38_Node000036_Node000038" class="edge">
<title>Node36&#45;&gt;Node38</title>
<g id="a_edge38_Node000036_Node000038"><a xlink:title=" ">
<path fill="none" stroke="#63b8ff" d="M3470.4,-141.03C3481.86,-129.14 3497.36,-113.06 3508.37,-101.64"/>
<polygon fill="#63b8ff" stroke="#63b8ff" points="3467.64,-138.85 3463.22,-148.48 3472.68,-143.71 3467.64,-138.85"/>
</a>
</g>
</g>
</g>
</svg>

<g id="navigator" transform="translate(0 0)" fill="#404254">
  <rect fill="#f2f5e9" fill-opacity="0.5" stroke="#606060" stroke-width=".5" x="0" y="0" width="60" height="60"/>
  <use id="zoomplus" xlink:href="#zoomPlus" x="17" y="9" onmousedown="handleZoom(evt,'in')"/>
  <use id="zoomminus" xlink:href="#zoomMin" x="42" y="9" onmousedown="handleZoom(evt,'out')"/>
  <use id="reset" xlink:href="#resetDef" x="30" y="36" onmousedown="handleReset()"/>
   <use id="arrowup" xlink:href="#arrowUp" x="0" y="0" onmousedown="handlePan(0,-1)"/>
  <use id="arrowright" xlink:href="#arrowRight" x="0" y="0" onmousedown="handlePan(1,0)"/>
  <use id="arrowdown" xlink:href="#arrowDown" x="0" y="0" onmousedown="handlePan(0,1)"/>
  <use id="arrowleft" xlink:href="#arrowLeft" x="0" y="0" onmousedown="handlePan(-1,0)"/>
</g>
<svg viewBox="0 0 15 15" width="100%" height="30px" preserveAspectRatio="xMaxYMin meet">
 <g id="arrow_out" transform="scale(0.3 0.3)">
  <a xlink:href="no__os__crc8_8h__dep__incl_org.svg" target="_base">
   <rect id="button" ry="5" rx="5" y="6" x="6" height="38" width="38"
        fill="#f2f5e9" fill-opacity="0.5" stroke="#606060" stroke-width="1.0"/>
   <path id="arrow"
     d="M 11.500037,31.436501 C 11.940474,20.09759 22.043105,11.32322 32.158766,21.979434 L 37.068811,17.246167 C 37.068811,17.246167 37.088388,32 37.088388,32 L 22.160133,31.978069 C 22.160133,31.978069 26.997745,27.140456 26.997745,27.140456 C 18.528582,18.264221 13.291696,25.230495 11.500037,31.436501 z"
     style="fill:#404040;"/>
  </a>
 </g>
</svg>

<style type='text/css'>
<![CDATA[
[data-mouse-over-selected='false'] { opacity: 0.7; }
[data-mouse-over-selected='true']  { opacity: 1.0; }
]]>
</style>
<script type="application/ecmascript"><![CDATA[
document.addEventListener('DOMContentLoaded', (event) => {
  highlightEdges();
  highlightAdjacentNodes();
});
]]></script>
</svg>
