<?xml version="1.0" encoding="UTF-8" standalone="no"?>
<!DOCTYPE svg PUBLIC "-//W3C//DTD SVG 1.1//EN"
 "http://www.w3.org/Graphics/SVG/1.1/DTD/svg11.dtd">
<!-- Generated by graphviz version 2.43.0 (0)
 -->
<!-- Title: no_os_init Pages: 1 -->
<svg width="176pt" height="101pt"
 viewBox="0.00 0.00 176.00 101.00" xmlns="http://www.w3.org/2000/svg" xmlns:xlink="http://www.w3.org/1999/xlink">
<g id="graph0" class="graph" transform="scale(1 1) rotate(0) translate(4 97)">
<title>no_os_init</title>
<!-- Node1 -->
<g id="Node000001" class="node">
<title>Node1</title>
<g id="a_Node000001"><a xlink:title=" ">
<polygon fill="#999999" stroke="#666666" points="168,-56 102,-56 102,-37 168,-37 168,-56"/>
<text text-anchor="middle" x="135" y="-44" font-family="Helvetica,sans-Serif" font-size="10.00">no_os_init</text>
</a>
</g>
</g>
<!-- Node2 -->
<g id="Node000002" class="node">
<title>Node2</title>
<g id="a_Node000002"><a xlink:href="max32650_2maxim__init_8c.html#ae6d9f2508b1dd5180cbde97ad34333ae" target="_top" xlink:title=" ">
<polygon fill="white" stroke="#666666" points="66,-93 0,-93 0,-74 66,-74 66,-93"/>
<text text-anchor="middle" x="33" y="-81" font-family="Helvetica,sans-Serif" font-size="10.00">Board_Init</text>
</a>
</g>
</g>
<!-- Node1&#45;&gt;Node2 -->
<g id="edge1_Node000001_Node000002" class="edge">
<title>Node1&#45;&gt;Node2</title>
<g id="a_edge1_Node000001_Node000002"><a xlink:title=" ">
<path fill="none" stroke="#63b8ff" d="M98.82,-59.52C86.04,-64.24 71.85,-69.49 60.01,-73.88"/>
<polygon fill="#63b8ff" stroke="#63b8ff" points="100.08,-62.78 108.25,-56.03 97.65,-56.22 100.08,-62.78"/>
</a>
</g>
</g>
<!-- Node3 -->
<g id="Node000003" class="node">
<title>Node3</title>
<g id="a_Node000003"><a xlink:href="ad-acevsecrdset-sl_2src_2main_8c.html#ae66f6b31b5ad750f1fe042a706a4e3d4" target="_top" xlink:title="Main function execution for Maxim platform.">
<polygon fill="white" stroke="#666666" points="53.5,-56 12.5,-56 12.5,-37 53.5,-37 53.5,-56"/>
<text text-anchor="middle" x="33" y="-44" font-family="Helvetica,sans-Serif" font-size="10.00">main</text>
</a>
</g>
</g>
<!-- Node1&#45;&gt;Node3 -->
<g id="edge2_Node000001_Node000003" class="edge">
<title>Node1&#45;&gt;Node3</title>
<g id="a_edge2_Node000001_Node000003"><a xlink:title=" ">
<path fill="none" stroke="#63b8ff" d="M91.47,-46.5C78.3,-46.5 64.42,-46.5 53.6,-46.5"/>
<polygon fill="#63b8ff" stroke="#63b8ff" points="91.81,-50 101.81,-46.5 91.81,-43 91.81,-50"/>
</a>
</g>
</g>
<!-- Node4 -->
<g id="Node000004" class="node">
<title>Node4</title>
<g id="a_Node000004"><a xlink:href="eval-ade7978_2src_2main_8c.html#a840291bc02cba5474a4cb46a9b9566fe" target="_top" xlink:title=" ">
<polygon fill="white" stroke="#666666" points="53.5,-19 12.5,-19 12.5,0 53.5,0 53.5,-19"/>
<text text-anchor="middle" x="33" y="-7" font-family="Helvetica,sans-Serif" font-size="10.00">main</text>
</a>
</g>
</g>
<!-- Node1&#45;&gt;Node4 -->
<g id="edge3_Node000001_Node000004" class="edge">
<title>Node1&#45;&gt;Node4</title>
<g id="a_edge3_Node000001_Node000004"><a xlink:title=" ">
<path fill="none" stroke="#63b8ff" d="M98.66,-33.43C83.55,-27.83 66.47,-21.51 53.67,-16.78"/>
<polygon fill="#63b8ff" stroke="#63b8ff" points="97.65,-36.78 108.25,-36.97 100.08,-30.22 97.65,-36.78"/>
</a>
</g>
</g>
</g>
</svg>
