<?xml version="1.0" encoding="UTF-8" standalone="no"?>
<!DOCTYPE svg PUBLIC "-//W3C//DTD SVG 1.1//EN"
 "http://www.w3.org/Graphics/SVG/1.1/DTD/svg11.dtd">
<!-- Generated by graphviz version 2.43.0 (0)
 -->
<!-- Title: no_os_irq_disable Pages: 1 -->
<svg width="718pt" height="761pt"
 viewBox="0.00 0.00 718.00 760.50" xmlns="http://www.w3.org/2000/svg" xmlns:xlink="http://www.w3.org/1999/xlink">
<g id="graph0" class="graph" transform="scale(1 1) rotate(0) translate(4 756.5)">
<title>no_os_irq_disable</title>
<!-- Node1 -->
<g id="Node000001" class="node">
<title>Node1</title>
<g id="a_Node000001"><a xlink:title="Disable specific interrupt.">
<polygon fill="#999999" stroke="#666666" points="710,-446.5 606,-446.5 606,-427.5 710,-427.5 710,-446.5"/>
<text text-anchor="middle" x="658" y="-434.5" font-family="Helvetica,sans-Serif" font-size="10.00">no_os_irq_disable</text>
</a>
</g>
</g>
<!-- Node2 -->
<g id="Node000002" class="node">
<title>Node2</title>
<g id="a_Node000002"><a xlink:href="ade9113_8c.html#afa4896e133d9433b6dbabc58785335d8" target="_top" xlink:title="DRDY inerrupt disable.">
<polygon fill="white" stroke="#666666" points="570,-752.5 426,-752.5 426,-733.5 570,-733.5 570,-752.5"/>
<text text-anchor="middle" x="498" y="-740.5" font-family="Helvetica,sans-Serif" font-size="10.00">ade9113_drdy_int_disable</text>
</a>
</g>
</g>
<!-- Node1&#45;&gt;Node2 -->
<g id="edge1_Node000001_Node000002" class="edge">
<title>Node1&#45;&gt;Node2</title>
<g id="a_edge1_Node000001_Node000002"><a xlink:title=" ">
<path fill="none" stroke="#63b8ff" d="M656.75,-456.79C655.04,-507.53 643.45,-643.56 570,-719 563.83,-725.34 555.93,-730 547.65,-733.44"/>
<polygon fill="#63b8ff" stroke="#63b8ff" points="660.26,-456.64 657,-446.55 653.26,-456.47 660.26,-456.64"/>
</a>
</g>
</g>
<!-- Node3 -->
<g id="Node000003" class="node">
<title>Node3</title>
<g id="a_Node000003"><a xlink:href="ade9113_8c.html#ac8de97a314fe1275ee03d3d5c5379c14" target="_top" xlink:title="Initialize the device.">
<polygon fill="white" stroke="#666666" points="538,-676.5 458,-676.5 458,-657.5 538,-657.5 538,-676.5"/>
<text text-anchor="middle" x="498" y="-664.5" font-family="Helvetica,sans-Serif" font-size="10.00">ade9113_init</text>
</a>
</g>
</g>
<!-- Node1&#45;&gt;Node3 -->
<g id="edge2_Node000001_Node000003" class="edge">
<title>Node1&#45;&gt;Node3</title>
<g id="a_edge2_Node000001_Node000003"><a xlink:title=" ">
<path fill="none" stroke="#63b8ff" d="M654.77,-456.85C648.97,-498.92 629.45,-597.4 570,-649 561.16,-656.67 549.51,-661.15 538.2,-663.74"/>
<polygon fill="#63b8ff" stroke="#63b8ff" points="658.27,-457.14 656.04,-446.78 651.32,-456.27 658.27,-457.14"/>
</a>
</g>
</g>
<!-- Node5 -->
<g id="Node000005" class="node">
<title>Node5</title>
<g id="a_Node000005"><a xlink:href="state__machine_8c.html#a92bc605df80f651e105fe804f43d615b" target="_top" xlink:title="State machine main execution.">
<polygon fill="white" stroke="#666666" points="190,-657.5 101,-657.5 101,-638.5 190,-638.5 190,-657.5"/>
<text text-anchor="middle" x="145.5" y="-645.5" font-family="Helvetica,sans-Serif" font-size="10.00">state_machine</text>
</a>
</g>
</g>
<!-- Node1&#45;&gt;Node5 -->
<g id="edge38_Node000001_Node000005" class="edge">
<title>Node1&#45;&gt;Node5</title>
<g id="a_edge38_Node000001_Node000005"><a xlink:title=" ">
<path fill="none" stroke="#63b8ff" d="M657.12,-456.86C656.2,-505.75 646.22,-631.89 570,-686 512.01,-727.16 320.01,-698.45 250,-686 219.66,-680.61 186.54,-666.97 166.15,-657.59"/>
<polygon fill="#63b8ff" stroke="#63b8ff" points="660.62,-456.69 657.19,-446.66 653.62,-456.64 660.62,-456.69"/>
</a>
</g>
</g>
<!-- Node7 -->
<g id="Node000007" class="node">
<title>Node7</title>
<g id="a_Node000007"><a xlink:href="ade9153a_8c.html#ad93af9e1aabc3f67b04304db2fd36912" target="_top" xlink:title="Initialize the device.">
<polygon fill="white" stroke="#666666" points="541,-563.5 455,-563.5 455,-544.5 541,-544.5 541,-563.5"/>
<text text-anchor="middle" x="498" y="-551.5" font-family="Helvetica,sans-Serif" font-size="10.00">ade9153a_init</text>
</a>
</g>
</g>
<!-- Node1&#45;&gt;Node7 -->
<g id="edge6_Node000001_Node000007" class="edge">
<title>Node1&#45;&gt;Node7</title>
<g id="a_edge6_Node000001_Node000007"><a xlink:title=" ">
<path fill="none" stroke="#63b8ff" d="M645.98,-455.2C631.43,-477.67 603.64,-515.42 570,-536 561.32,-541.31 551.13,-545.06 541.23,-547.7"/>
<polygon fill="#63b8ff" stroke="#63b8ff" points="649.03,-456.93 651.39,-446.6 643.11,-453.2 649.03,-456.93"/>
</a>
</g>
</g>
<!-- Node9 -->
<g id="Node000009" class="node">
<title>Node9</title>
<g id="a_Node000009"><a xlink:href="net_8c.html#ac3136f214a7023774a03531efb49eb77" target="_top" xlink:title=" ">
<polygon fill="white" stroke="#666666" points="538,-526.5 458,-526.5 458,-507.5 538,-507.5 538,-526.5"/>
<text text-anchor="middle" x="498" y="-514.5" font-family="Helvetica,sans-Serif" font-size="10.00">adin1300_int</text>
</a>
</g>
</g>
<!-- Node1&#45;&gt;Node9 -->
<g id="edge8_Node000001_Node000009" class="edge">
<title>Node1&#45;&gt;Node9</title>
<g id="a_edge8_Node000001_Node000009"><a xlink:title=" ">
<path fill="none" stroke="#63b8ff" d="M638.4,-453.4C621.6,-467.41 595.65,-487.12 570,-499 560.08,-503.6 548.81,-507.14 538.22,-509.81"/>
<polygon fill="#63b8ff" stroke="#63b8ff" points="640.96,-455.82 646.3,-446.67 636.42,-450.49 640.96,-455.82"/>
</a>
</g>
</g>
<!-- Node12 -->
<g id="Node000012" class="node">
<title>Node12</title>
<g id="a_Node000012"><a xlink:href="aducm3029__irq_8c.html#aed37b0eb8c60fc02d44a01683ab8958f" target="_top" xlink:title="Disable all external interrupts.">
<polygon fill="white" stroke="#666666" points="561.5,-452 434.5,-452 434.5,-422 561.5,-422 561.5,-452"/>
<text text-anchor="start" x="442.5" y="-440" font-family="Helvetica,sans-Serif" font-size="10.00">aducm3029_irq_global</text>
<text text-anchor="middle" x="498" y="-429" font-family="Helvetica,sans-Serif" font-size="10.00">_disable</text>
</a>
</g>
</g>
<!-- Node1&#45;&gt;Node12 -->
<g id="edge11_Node000001_Node000012" class="edge">
<title>Node1&#45;&gt;Node12</title>
<g id="a_edge11_Node000001_Node000012"><a xlink:title=" ">
<path fill="none" stroke="#63b8ff" d="M595.62,-437C584.47,-437 572.82,-437 561.63,-437"/>
<polygon fill="#63b8ff" stroke="#63b8ff" points="595.7,-440.5 605.7,-437 595.7,-433.5 595.7,-440.5"/>
</a>
</g>
</g>
<!-- Node13 -->
<g id="Node000013" class="node">
<title>Node13</title>
<g id="a_Node000013"><a xlink:href="adalm-lsmspg_2src_2platform_2maxim_2main_8c.html#abcfe03c80e333256b97046aa756e25a2" target="_top" xlink:title=" ">
<polygon fill="white" stroke="#666666" points="542,-403.5 454,-403.5 454,-384.5 542,-384.5 542,-403.5"/>
<text text-anchor="middle" x="498" y="-391.5" font-family="Helvetica,sans-Serif" font-size="10.00">heartbeat_exit</text>
</a>
</g>
</g>
<!-- Node1&#45;&gt;Node13 -->
<g id="edge12_Node000001_Node000013" class="edge">
<title>Node1&#45;&gt;Node13</title>
<g id="a_edge12_Node000001_Node000013"><a xlink:title=" ">
<path fill="none" stroke="#63b8ff" d="M613,-424.79C599.24,-420.99 583.99,-416.8 570,-413 558.55,-409.89 546.05,-406.53 534.77,-403.51"/>
<polygon fill="#63b8ff" stroke="#63b8ff" points="612.15,-428.19 622.72,-427.48 614.01,-421.44 612.15,-428.19"/>
</a>
</g>
</g>
<!-- Node14 -->
<g id="Node000014" class="node">
<title>Node14</title>
<g id="a_Node000014"><a xlink:href="iio__trigger_8c.html#a1133c1af28feab750b93a9017d55a780" target="_top" xlink:title="Free the resources allocated by iio_hw_trig_init().">
<polygon fill="white" stroke="#666666" points="554.5,-366.5 441.5,-366.5 441.5,-347.5 554.5,-347.5 554.5,-366.5"/>
<text text-anchor="middle" x="498" y="-354.5" font-family="Helvetica,sans-Serif" font-size="10.00">iio_hw_trig_remove</text>
</a>
</g>
</g>
<!-- Node1&#45;&gt;Node14 -->
<g id="edge13_Node000001_Node000014" class="edge">
<title>Node1&#45;&gt;Node14</title>
<g id="a_edge13_Node000001_Node000014"><a xlink:title=" ">
<path fill="none" stroke="#63b8ff" d="M638.03,-420.73C621.17,-407.03 595.34,-387.82 570,-376 561.91,-372.22 552.93,-369.09 544.16,-366.53"/>
<polygon fill="#63b8ff" stroke="#63b8ff" points="636.05,-423.64 645.98,-427.33 640.52,-418.25 636.05,-423.64"/>
</a>
</g>
</g>
<!-- Node16 -->
<g id="Node000016" class="node">
<title>Node16</title>
<g id="a_Node000016"><a xlink:href="iio__trigger_8c.html#ab1e79bf681f66c1c6d8b9444117ef95d" target="_top" xlink:title="Disable system interrupt which is linked to the given trigger.">
<polygon fill="white" stroke="#666666" points="543.5,-329.5 452.5,-329.5 452.5,-310.5 543.5,-310.5 543.5,-329.5"/>
<text text-anchor="middle" x="498" y="-317.5" font-family="Helvetica,sans-Serif" font-size="10.00">iio_trig_disable</text>
</a>
</g>
</g>
<!-- Node1&#45;&gt;Node16 -->
<g id="edge15_Node000001_Node000016" class="edge">
<title>Node1&#45;&gt;Node16</title>
<g id="a_edge15_Node000001_Node000016"><a xlink:title=" ">
<path fill="none" stroke="#63b8ff" d="M645.67,-418.72C630.96,-396.51 603.2,-359.5 570,-339 562.07,-334.11 552.9,-330.46 543.82,-327.74"/>
<polygon fill="#63b8ff" stroke="#63b8ff" points="642.8,-420.72 651.16,-427.23 648.69,-416.93 642.8,-420.72"/>
</a>
</g>
</g>
<!-- Node18 -->
<g id="Node000018" class="node">
<title>Node18</title>
<g id="a_Node000018"><a xlink:href="eval-ublox-gnss_2src_2interrupt_2interrupt_8c.html#aee4ee9942ea338c9250f3ce8bc516303" target="_top" xlink:title="Remove interrupts for GNSS device.">
<polygon fill="white" stroke="#666666" points="548.5,-292.5 447.5,-292.5 447.5,-273.5 548.5,-273.5 548.5,-292.5"/>
<text text-anchor="middle" x="498" y="-280.5" font-family="Helvetica,sans-Serif" font-size="10.00">interrupt_remove</text>
</a>
</g>
</g>
<!-- Node1&#45;&gt;Node18 -->
<g id="edge18_Node000001_Node000018" class="edge">
<title>Node1&#45;&gt;Node18</title>
<g id="a_edge18_Node000001_Node000018"><a xlink:title=" ">
<path fill="none" stroke="#63b8ff" d="M649.96,-417.89C638.11,-388.41 611.34,-332.13 570,-302 563.61,-297.34 556.15,-293.82 548.51,-291.17"/>
<polygon fill="#63b8ff" stroke="#63b8ff" points="646.78,-419.37 653.65,-427.43 653.31,-416.84 646.78,-419.37"/>
</a>
</g>
</g>
<!-- Node20 -->
<g id="Node000020" class="node">
<title>Node20</title>
<g id="a_Node000020"><a xlink:href="adalm-lsmspg_2src_2platform_2maxim_2main_8c.html#a840291bc02cba5474a4cb46a9b9566fe" target="_top" xlink:title=" ">
<polygon fill="white" stroke="#666666" points="518.5,-255.5 477.5,-255.5 477.5,-236.5 518.5,-236.5 518.5,-255.5"/>
<text text-anchor="middle" x="498" y="-243.5" font-family="Helvetica,sans-Serif" font-size="10.00">main</text>
</a>
</g>
</g>
<!-- Node1&#45;&gt;Node20 -->
<g id="edge20_Node000001_Node000020" class="edge">
<title>Node1&#45;&gt;Node20</title>
<g id="a_edge20_Node000001_Node000020"><a xlink:title=" ">
<path fill="none" stroke="#63b8ff" d="M652.66,-417.32C643.7,-381.44 619.7,-305.35 570,-265 555.44,-253.18 534.19,-248.67 518.73,-246.97"/>
<polygon fill="#63b8ff" stroke="#63b8ff" points="649.35,-418.54 655.05,-427.47 656.16,-416.93 649.35,-418.54"/>
</a>
</g>
</g>
<!-- Node21 -->
<g id="Node000021" class="node">
<title>Node21</title>
<g id="a_Node000021"><a xlink:href="max11205_8c.html#adff8b4d146093da04e57377b4624cf4c" target="_top" xlink:title="Free memory allocated by max11205_init().">
<polygon fill="white" stroke="#666666" points="553.5,-218.5 442.5,-218.5 442.5,-199.5 553.5,-199.5 553.5,-218.5"/>
<text text-anchor="middle" x="498" y="-206.5" font-family="Helvetica,sans-Serif" font-size="10.00">max11205_remove</text>
</a>
</g>
</g>
<!-- Node1&#45;&gt;Node21 -->
<g id="edge21_Node000001_Node000021" class="edge">
<title>Node1&#45;&gt;Node21</title>
<g id="a_edge21_Node000001_Node000021"><a xlink:title=" ">
<path fill="none" stroke="#63b8ff" d="M654.59,-417.22C648.47,-375.7 628.39,-279.1 570,-228 565.2,-223.8 559.56,-220.51 553.61,-217.95"/>
<polygon fill="#63b8ff" stroke="#63b8ff" points="651.16,-417.94 655.97,-427.38 658.1,-417 651.16,-417.94"/>
</a>
</g>
</g>
<!-- Node23 -->
<g id="Node000023" class="node">
<title>Node23</title>
<g id="a_Node000023"><a xlink:href="net_8c.html#a07fadf782270f861e72575c8d9c86c70" target="_top" xlink:title=" ">
<polygon fill="white" stroke="#666666" points="541,-489.5 455,-489.5 455,-470.5 541,-470.5 541,-489.5"/>
<text text-anchor="middle" x="498" y="-477.5" font-family="Helvetica,sans-Serif" font-size="10.00">max24287_int</text>
</a>
</g>
</g>
<!-- Node1&#45;&gt;Node23 -->
<g id="edge23_Node000001_Node000023" class="edge">
<title>Node1&#45;&gt;Node23</title>
<g id="a_edge23_Node000001_Node000023"><a xlink:title=" ">
<path fill="none" stroke="#63b8ff" d="M613,-449.21C599.24,-453.01 583.99,-457.2 570,-461 558.55,-464.11 546.05,-467.47 534.77,-470.49"/>
<polygon fill="#63b8ff" stroke="#63b8ff" points="614.01,-452.56 622.72,-446.52 612.15,-445.81 614.01,-452.56"/>
</a>
</g>
</g>
<!-- Node24 -->
<g id="Node000024" class="node">
<title>Node24</title>
<g id="a_Node000024"><a xlink:href="no__os__dma_8c.html#a6f9f8b3688bec7db3fc05dc892da8a37" target="_top" xlink:title="Abort the ongoing and any other future transfers scheduled for a channel.">
<polygon fill="white" stroke="#666666" points="562,-163.5 434,-163.5 434,-144.5 562,-144.5 562,-163.5"/>
<text text-anchor="middle" x="498" y="-151.5" font-family="Helvetica,sans-Serif" font-size="10.00">no_os_dma_xfer_abort</text>
</a>
</g>
</g>
<!-- Node1&#45;&gt;Node24 -->
<g id="edge25_Node000001_Node000024" class="edge">
<title>Node1&#45;&gt;Node24</title>
<g id="a_edge25_Node000001_Node000024"><a xlink:title=" ">
<path fill="none" stroke="#63b8ff" d="M655.02,-417.19C649.52,-371.75 630.25,-258.69 570,-190 559.34,-177.84 543.59,-169.28 529.63,-163.56"/>
<polygon fill="#63b8ff" stroke="#63b8ff" points="651.55,-417.66 656.14,-427.21 658.51,-416.89 651.55,-417.66"/>
</a>
</g>
</g>
<!-- Node32 -->
<g id="Node000032" class="node">
<title>Node32</title>
<g id="a_Node000032"><a xlink:href="self__test_8c.html#a190f7b376da6bd8788dec204bd18b0ca" target="_top" xlink:title="Startup test for RCD.">
<polygon fill="white" stroke="#666666" points="537.5,-639.5 458.5,-639.5 458.5,-620.5 537.5,-620.5 537.5,-639.5"/>
<text text-anchor="middle" x="498" y="-627.5" font-family="Helvetica,sans-Serif" font-size="10.00">self_test_rcd</text>
</a>
</g>
</g>
<!-- Node1&#45;&gt;Node32 -->
<g id="edge33_Node000001_Node000032" class="edge">
<title>Node1&#45;&gt;Node32</title>
<g id="a_edge33_Node000001_Node000032"><a xlink:title=" ">
<path fill="none" stroke="#63b8ff" d="M652.17,-456.53C642.53,-491.51 617.62,-565.01 570,-606 560.83,-613.89 548.95,-619.22 537.54,-622.8"/>
<polygon fill="#63b8ff" stroke="#63b8ff" points="655.62,-457.18 654.77,-446.62 648.85,-455.4 655.62,-457.18"/>
</a>
</g>
</g>
<!-- Node34 -->
<g id="Node000034" class="node">
<title>Node34</title>
<g id="a_Node000034"><a xlink:href="self__test_8c.html#a467fec0e3bad53875d3b029d41f4446e" target="_top" xlink:title="Running test for RCD.">
<polygon fill="white" stroke="#666666" points="380.5,-602.5 259.5,-602.5 259.5,-583.5 380.5,-583.5 380.5,-602.5"/>
<text text-anchor="middle" x="320" y="-590.5" font-family="Helvetica,sans-Serif" font-size="10.00">self_test_rcd_running</text>
</a>
</g>
</g>
<!-- Node1&#45;&gt;Node34 -->
<g id="edge36_Node000001_Node000034" class="edge">
<title>Node1&#45;&gt;Node34</title>
<g id="a_edge36_Node000001_Node000034"><a xlink:title=" ">
<path fill="none" stroke="#63b8ff" d="M650.92,-456.34C640.14,-487.06 614.49,-546.28 570,-573 512.65,-607.45 434.01,-607.64 380.56,-602.36"/>
<polygon fill="#63b8ff" stroke="#63b8ff" points="654.27,-457.35 654.12,-446.76 647.63,-455.13 654.27,-457.35"/>
</a>
</g>
</g>
<!-- Node35 -->
<g id="Node000035" class="node">
<title>Node35</title>
<g id="a_Node000035"><a xlink:href="stm32__pwm_8c.html#a5ff7d5e9da25abfc072d54a07144b3f5" target="_top" xlink:title="Free the resources allocated by stm32_pwm_init()">
<polygon fill="white" stroke="#666666" points="557.5,-126.5 438.5,-126.5 438.5,-107.5 557.5,-107.5 557.5,-126.5"/>
<text text-anchor="middle" x="498" y="-114.5" font-family="Helvetica,sans-Serif" font-size="10.00">stm32_pwm_remove</text>
</a>
</g>
</g>
<!-- Node1&#45;&gt;Node35 -->
<g id="edge39_Node000001_Node000035" class="edge">
<title>Node1&#45;&gt;Node35</title>
<g id="a_edge39_Node000001_Node000035"><a xlink:title=" ">
<path fill="none" stroke="#63b8ff" d="M657.57,-417.27C657.99,-363.62 651.44,-213.86 570,-135 566.35,-131.46 562.1,-128.59 557.54,-126.26"/>
<polygon fill="#63b8ff" stroke="#63b8ff" points="654.07,-417.4 657.39,-427.46 661.07,-417.52 654.07,-417.4"/>
</a>
</g>
</g>
<!-- Node4 -->
<g id="Node000004" class="node">
<title>Node4</title>
<g id="a_Node000004"><a xlink:href="supply_8c.html#a4a47d1b835fa05b58961e7215c9feafb" target="_top" xlink:title="Initialize supply component.">
<polygon fill="white" stroke="#666666" points="355,-676.5 285,-676.5 285,-657.5 355,-657.5 355,-676.5"/>
<text text-anchor="middle" x="320" y="-664.5" font-family="Helvetica,sans-Serif" font-size="10.00">supply_init</text>
</a>
</g>
</g>
<!-- Node3&#45;&gt;Node4 -->
<g id="edge3_Node000003_Node000004" class="edge">
<title>Node3&#45;&gt;Node4</title>
<g id="a_edge3_Node000003_Node000004"><a xlink:title=" ">
<path fill="none" stroke="#63b8ff" d="M447.84,-667C418.33,-667 381.54,-667 355.2,-667"/>
<polygon fill="#63b8ff" stroke="#63b8ff" points="447.94,-670.5 457.94,-667 447.94,-663.5 447.94,-670.5"/>
</a>
</g>
</g>
<!-- Node4&#45;&gt;Node5 -->
<g id="edge4_Node000004_Node000005" class="edge">
<title>Node4&#45;&gt;Node5</title>
<g id="a_edge4_Node000004_Node000005"><a xlink:title=" ">
<path fill="none" stroke="#63b8ff" d="M274.93,-662.15C248.87,-659.28 215.99,-655.65 190.02,-652.79"/>
<polygon fill="#63b8ff" stroke="#63b8ff" points="274.6,-665.63 284.92,-663.25 275.36,-658.67 274.6,-665.63"/>
</a>
</g>
</g>
<!-- Node6 -->
<g id="Node000006" class="node">
<title>Node6</title>
<g id="a_Node000006"><a xlink:href="ad-acevsecrdset-sl_2src_2main_8c.html#ae66f6b31b5ad750f1fe042a706a4e3d4" target="_top" xlink:title="Main function execution for Maxim platform.">
<polygon fill="white" stroke="#666666" points="41,-657.5 0,-657.5 0,-638.5 41,-638.5 41,-657.5"/>
<text text-anchor="middle" x="20.5" y="-645.5" font-family="Helvetica,sans-Serif" font-size="10.00">main</text>
</a>
</g>
</g>
<!-- Node5&#45;&gt;Node6 -->
<g id="edge5_Node000005_Node000006" class="edge">
<title>Node5&#45;&gt;Node6</title>
<g id="a_edge5_Node000005_Node000006"><a xlink:title=" ">
<path fill="none" stroke="#63b8ff" d="M90.54,-648C72.9,-648 54.41,-648 41.02,-648"/>
<polygon fill="#63b8ff" stroke="#63b8ff" points="90.79,-651.5 100.79,-648 90.79,-644.5 90.79,-651.5"/>
</a>
</g>
</g>
<!-- Node8 -->
<g id="Node000008" class="node">
<title>Node8</title>
<g id="a_Node000008"><a xlink:href="eval-ade9153a_2src_2main_8c.html#a840291bc02cba5474a4cb46a9b9566fe" target="_top" xlink:title=" ">
<polygon fill="white" stroke="#666666" points="340.5,-563.5 299.5,-563.5 299.5,-544.5 340.5,-544.5 340.5,-563.5"/>
<text text-anchor="middle" x="320" y="-551.5" font-family="Helvetica,sans-Serif" font-size="10.00">main</text>
</a>
</g>
</g>
<!-- Node7&#45;&gt;Node8 -->
<g id="edge7_Node000007_Node000008" class="edge">
<title>Node7&#45;&gt;Node8</title>
<g id="a_edge7_Node000007_Node000008"><a xlink:title=" ">
<path fill="none" stroke="#63b8ff" d="M444.77,-554C409.74,-554 365.61,-554 340.62,-554"/>
<polygon fill="#63b8ff" stroke="#63b8ff" points="444.84,-557.5 454.84,-554 444.84,-550.5 444.84,-557.5"/>
</a>
</g>
</g>
<!-- Node10 -->
<g id="Node000010" class="node">
<title>Node10</title>
<g id="a_Node000010"><a xlink:href="net_8c.html#adf5853345417994c989b94f1fc890492" target="_top" xlink:title=" ">
<polygon fill="white" stroke="#666666" points="346.5,-508.5 293.5,-508.5 293.5,-489.5 346.5,-489.5 346.5,-508.5"/>
<text text-anchor="middle" x="320" y="-496.5" font-family="Helvetica,sans-Serif" font-size="10.00">net_init</text>
</a>
</g>
</g>
<!-- Node9&#45;&gt;Node10 -->
<g id="edge9_Node000009_Node000010" class="edge">
<title>Node9&#45;&gt;Node10</title>
<g id="a_edge9_Node000009_Node000010"><a xlink:title=" ">
<path fill="none" stroke="#63b8ff" d="M447.62,-511.95C414.79,-508.59 373,-504.32 346.62,-501.62"/>
<polygon fill="#63b8ff" stroke="#63b8ff" points="447.64,-515.47 457.94,-513.01 448.35,-508.51 447.64,-515.47"/>
</a>
</g>
</g>
<!-- Node11 -->
<g id="Node000011" class="node">
<title>Node11</title>
<g id="a_Node000011"><a xlink:href="wethlink_2src_2app_2main_8c.html#a840291bc02cba5474a4cb46a9b9566fe" target="_top" xlink:title=" ">
<polygon fill="white" stroke="#666666" points="166,-508.5 125,-508.5 125,-489.5 166,-489.5 166,-508.5"/>
<text text-anchor="middle" x="145.5" y="-496.5" font-family="Helvetica,sans-Serif" font-size="10.00">main</text>
</a>
</g>
</g>
<!-- Node10&#45;&gt;Node11 -->
<g id="edge10_Node000010_Node000011" class="edge">
<title>Node10&#45;&gt;Node11</title>
<g id="a_edge10_Node000010_Node000011"><a xlink:title=" ">
<path fill="none" stroke="#63b8ff" d="M282.75,-499C247.2,-499 194.36,-499 166.06,-499"/>
<polygon fill="#63b8ff" stroke="#63b8ff" points="283.18,-502.5 293.18,-499 283.17,-495.5 283.18,-502.5"/>
</a>
</g>
</g>
<!-- Node15 -->
<g id="Node000015" class="node">
<title>Node15</title>
<g id="a_Node000015"><a xlink:href="ad4692__ardz_2src_2examples_2iio__trigger_2iio__trigger__example_8c.html#ac25cbf8ae523e89cb0617e68c98bc697" target="_top" xlink:title="Basic example main executiont.">
<polygon fill="white" stroke="#666666" points="364.5,-372.5 275.5,-372.5 275.5,-353.5 364.5,-353.5 364.5,-372.5"/>
<text text-anchor="middle" x="320" y="-360.5" font-family="Helvetica,sans-Serif" font-size="10.00">example_main</text>
</a>
</g>
</g>
<!-- Node14&#45;&gt;Node15 -->
<g id="edge14_Node000014_Node000015" class="edge">
<title>Node14&#45;&gt;Node15</title>
<g id="a_edge14_Node000014_Node000015"><a xlink:title=" ">
<path fill="none" stroke="#63b8ff" d="M431.25,-359.24C409,-360 384.72,-360.83 364.62,-361.51"/>
<polygon fill="#63b8ff" stroke="#63b8ff" points="431.44,-362.74 441.31,-358.9 431.2,-355.74 431.44,-362.74"/>
</a>
</g>
</g>
<!-- Node16&#45;&gt;Node15 -->
<g id="edge17_Node000016_Node000015" class="edge">
<title>Node16&#45;&gt;Node15</title>
<g id="a_edge17_Node000016_Node000015"><a xlink:title=" ">
<path fill="none" stroke="#63b8ff" d="M448.02,-331.97C420.22,-338.76 385.9,-347.14 359.95,-353.48"/>
<polygon fill="#63b8ff" stroke="#63b8ff" points="449.06,-335.32 457.94,-329.54 447.39,-328.52 449.06,-335.32"/>
</a>
</g>
</g>
<!-- Node17 -->
<g id="Node000017" class="node">
<title>Node17</title>
<g id="a_Node000017"><a xlink:href="iio__adis_8c.html#aa3fb4f6fcd0868abc263f5db5b782538" target="_top" xlink:title="Handles trigger: reads all available samples in FIFO and writes them to the buffer.">
<polygon fill="white" stroke="#666666" points="387,-335 253,-335 253,-305 387,-305 387,-335"/>
<text text-anchor="start" x="261" y="-323" font-family="Helvetica,sans-Serif" font-size="10.00">adis_iio_trigger_handler</text>
<text text-anchor="middle" x="320" y="-312" font-family="Helvetica,sans-Serif" font-size="10.00">_with_fifo</text>
</a>
</g>
</g>
<!-- Node16&#45;&gt;Node17 -->
<g id="edge16_Node000016_Node000017" class="edge">
<title>Node16&#45;&gt;Node17</title>
<g id="a_edge16_Node000016_Node000017"><a xlink:title=" ">
<path fill="none" stroke="#63b8ff" d="M442.12,-320C424.68,-320 405.2,-320 387.05,-320"/>
<polygon fill="#63b8ff" stroke="#63b8ff" points="442.13,-323.5 452.13,-320 442.13,-316.5 442.13,-323.5"/>
</a>
</g>
</g>
<!-- Node19 -->
<g id="Node000019" class="node">
<title>Node19</title>
<g id="a_Node000019"><a xlink:href="eval-ublox-gnss_2src_2main_8c.html#a840291bc02cba5474a4cb46a9b9566fe" target="_top" xlink:title=" ">
<polygon fill="white" stroke="#666666" points="340.5,-286.5 299.5,-286.5 299.5,-267.5 340.5,-267.5 340.5,-286.5"/>
<text text-anchor="middle" x="320" y="-274.5" font-family="Helvetica,sans-Serif" font-size="10.00">main</text>
</a>
</g>
</g>
<!-- Node18&#45;&gt;Node19 -->
<g id="edge19_Node000018_Node000019" class="edge">
<title>Node18&#45;&gt;Node19</title>
<g id="a_edge19_Node000018_Node000019"><a xlink:title=" ">
<path fill="none" stroke="#63b8ff" d="M436.85,-280.95C403.31,-279.81 363.76,-278.46 340.62,-277.67"/>
<polygon fill="#63b8ff" stroke="#63b8ff" points="436.92,-284.45 447.04,-281.3 437.16,-277.46 436.92,-284.45"/>
</a>
</g>
</g>
<!-- Node22 -->
<g id="Node000022" class="node">
<title>Node22</title>
<g id="a_Node000022"><a xlink:href="iio__max11205_8c.html#a2310b65fd7b0f421f0e5215fd96b6335" target="_top" xlink:title="Free the resources allocated by max11205_iio_init().">
<polygon fill="white" stroke="#666666" points="384,-249.5 256,-249.5 256,-230.5 384,-230.5 384,-249.5"/>
<text text-anchor="middle" x="320" y="-237.5" font-family="Helvetica,sans-Serif" font-size="10.00">max11205_iio_remove</text>
</a>
</g>
</g>
<!-- Node21&#45;&gt;Node22 -->
<g id="edge22_Node000021_Node000022" class="edge">
<title>Node21&#45;&gt;Node22</title>
<g id="a_edge22_Node000021_Node000022"><a xlink:title=" ">
<path fill="none" stroke="#63b8ff" d="M432.73,-220.32C413.8,-223.66 393.28,-227.27 375.06,-230.48"/>
<polygon fill="#63b8ff" stroke="#63b8ff" points="433.52,-223.74 442.76,-218.55 432.3,-216.84 433.52,-223.74"/>
</a>
</g>
</g>
<!-- Node23&#45;&gt;Node10 -->
<g id="edge24_Node000023_Node000010" class="edge">
<title>Node23&#45;&gt;Node10</title>
<g id="a_edge24_Node000023_Node000010"><a xlink:title=" ">
<path fill="none" stroke="#63b8ff" d="M444.65,-485.65C412.35,-489.14 372.33,-493.46 346.73,-496.22"/>
<polygon fill="#63b8ff" stroke="#63b8ff" points="445.28,-489.1 454.84,-484.55 444.53,-482.14 445.28,-489.1"/>
</a>
</g>
</g>
<!-- Node25 -->
<g id="Node000025" class="node">
<title>Node25</title>
<g id="a_Node000025"><a xlink:href="stm32__spi_8c.html#ab6cca445715be6bcb7bf563bf8388829" target="_top" xlink:title="Configure and start a series of transfers using DMA.">
<polygon fill="white" stroke="#666666" points="386,-212 254,-212 254,-182 386,-182 386,-212"/>
<text text-anchor="start" x="262" y="-200" font-family="Helvetica,sans-Serif" font-size="10.00">stm32_config_dma_and</text>
<text text-anchor="middle" x="320" y="-189" font-family="Helvetica,sans-Serif" font-size="10.00">_start</text>
</a>
</g>
</g>
<!-- Node24&#45;&gt;Node25 -->
<g id="edge26_Node000024_Node000025" class="edge">
<title>Node24&#45;&gt;Node25</title>
<g id="a_edge26_Node000024_Node000025"><a xlink:title=" ">
<path fill="none" stroke="#63b8ff" d="M447.97,-165.98C427.66,-170.94 403.88,-176.75 382.42,-181.99"/>
<polygon fill="#63b8ff" stroke="#63b8ff" points="449.06,-169.32 457.94,-163.54 447.39,-162.52 449.06,-169.32"/>
</a>
</g>
</g>
<!-- Node28 -->
<g id="Node000028" class="node">
<title>Node28</title>
<g id="a_Node000028"><a xlink:href="stm32__i3c_8c.html#a5218a6a965be8a9597698563fc25b5b7" target="_top" xlink:title="DMA callback handler.">
<polygon fill="white" stroke="#666666" points="390,-163.5 250,-163.5 250,-144.5 390,-144.5 390,-163.5"/>
<text text-anchor="middle" x="320" y="-151.5" font-family="Helvetica,sans-Serif" font-size="10.00">stm32_i3c_dma_callback</text>
</a>
</g>
</g>
<!-- Node24&#45;&gt;Node28 -->
<g id="edge29_Node000024_Node000028" class="edge">
<title>Node24&#45;&gt;Node28</title>
<g id="a_edge29_Node000024_Node000028"><a xlink:title=" ">
<path fill="none" stroke="#63b8ff" d="M423.84,-154C412.69,-154 401.22,-154 390.17,-154"/>
<polygon fill="#63b8ff" stroke="#63b8ff" points="423.96,-157.5 433.96,-154 423.96,-150.5 423.96,-157.5"/>
</a>
</g>
</g>
<!-- Node29 -->
<g id="Node000029" class="node">
<title>Node29</title>
<g id="a_Node000029"><a xlink:href="stm32__i3c_8c.html#a11ae5b36e171a3fa07ccae3dfe065593" target="_top" xlink:title="Abort the ongoing DMA transaction.">
<polygon fill="white" stroke="#666666" points="375,-126 265,-126 265,-96 375,-96 375,-126"/>
<text text-anchor="start" x="273" y="-114" font-family="Helvetica,sans-Serif" font-size="10.00">stm32_i3c_transfer</text>
<text text-anchor="middle" x="320" y="-103" font-family="Helvetica,sans-Serif" font-size="10.00">_abort</text>
</a>
</g>
</g>
<!-- Node24&#45;&gt;Node29 -->
<g id="edge30_Node000024_Node000029" class="edge">
<title>Node24&#45;&gt;Node29</title>
<g id="a_edge30_Node000024_Node000029"><a xlink:title=" ">
<path fill="none" stroke="#63b8ff" d="M448.2,-142.08C425.57,-136.55 398.58,-129.95 375.3,-124.27"/>
<polygon fill="#63b8ff" stroke="#63b8ff" points="447.39,-145.48 457.94,-144.46 449.06,-138.68 447.39,-145.48"/>
</a>
</g>
</g>
<!-- Node30 -->
<g id="Node000030" class="node">
<title>Node30</title>
<g id="a_Node000030"><a xlink:href="stm32__i3c_8c.html#ac495964d975b4f37c85831608e066169" target="_top" xlink:title="Configure and start a series of transfers using DMA.">
<polygon fill="white" stroke="#666666" points="375,-78 265,-78 265,-48 375,-48 375,-78"/>
<text text-anchor="start" x="273" y="-66" font-family="Helvetica,sans-Serif" font-size="10.00">stm32_i3c_transfer</text>
<text text-anchor="middle" x="320" y="-55" font-family="Helvetica,sans-Serif" font-size="10.00">_dma_async</text>
</a>
</g>
</g>
<!-- Node24&#45;&gt;Node30 -->
<g id="edge31_Node000024_Node000030" class="edge">
<title>Node24&#45;&gt;Node30</title>
<g id="a_edge31_Node000024_Node000030"><a xlink:title=" ">
<path fill="none" stroke="#63b8ff" d="M435.35,-140.37C432.09,-138.77 428.94,-136.99 426,-135 403.91,-120.07 411.53,-102.73 390,-87 385.29,-83.56 380.04,-80.58 374.61,-78.01"/>
<polygon fill="#63b8ff" stroke="#63b8ff" points="434.24,-143.7 444.81,-144.39 436.97,-137.25 434.24,-143.7"/>
</a>
</g>
</g>
<!-- Node31 -->
<g id="Node000031" class="node">
<title>Node31</title>
<g id="a_Node000031"><a xlink:href="stm32__spi_8c.html#ac383af549ce0203aa73ff2c293158684" target="_top" xlink:title="Abort SPI transfers.">
<polygon fill="white" stroke="#666666" points="375,-30 265,-30 265,0 375,0 375,-30"/>
<text text-anchor="start" x="273" y="-18" font-family="Helvetica,sans-Serif" font-size="10.00">stm32_spi_transfer</text>
<text text-anchor="middle" x="320" y="-7" font-family="Helvetica,sans-Serif" font-size="10.00">_abort</text>
</a>
</g>
</g>
<!-- Node24&#45;&gt;Node31 -->
<g id="edge32_Node000024_Node000031" class="edge">
<title>Node24&#45;&gt;Node31</title>
<g id="a_edge32_Node000024_Node000031"><a xlink:title=" ">
<path fill="none" stroke="#63b8ff" d="M431.5,-139.33C429.57,-138.01 427.73,-136.57 426,-135 392.25,-104.38 422.61,-70.83 390,-39 385.64,-34.75 380.5,-31.25 375,-28.36"/>
<polygon fill="#63b8ff" stroke="#63b8ff" points="430.05,-142.53 440.48,-144.42 433.5,-136.44 430.05,-142.53"/>
</a>
</g>
</g>
<!-- Node26 -->
<g id="Node000026" class="node">
<title>Node26</title>
<g id="a_Node000026"><a xlink:href="stm32__spi_8c.html#a523da63f0a8b55feff12987dd565df18" target="_top" xlink:title="Configure and start a series of transfers using DMA. Wait for the completion before returning.">
<polygon fill="white" stroke="#666666" points="214,-227.5 77,-227.5 77,-208.5 214,-208.5 214,-227.5"/>
<text text-anchor="middle" x="145.5" y="-215.5" font-family="Helvetica,sans-Serif" font-size="10.00">stm32_spi_transfer_dma</text>
</a>
</g>
</g>
<!-- Node25&#45;&gt;Node26 -->
<g id="edge27_Node000025_Node000026" class="edge">
<title>Node25&#45;&gt;Node26</title>
<g id="a_edge27_Node000025_Node000026"><a xlink:title=" ">
<path fill="none" stroke="#63b8ff" d="M243.64,-206.17C233.81,-207.37 223.79,-208.59 214.1,-209.77"/>
<polygon fill="#63b8ff" stroke="#63b8ff" points="244.28,-209.62 253.79,-204.94 243.44,-202.67 244.28,-209.62"/>
</a>
</g>
</g>
<!-- Node27 -->
<g id="Node000027" class="node">
<title>Node27</title>
<g id="a_Node000027"><a xlink:href="stm32__spi_8c.html#ac1bb3dc339d72e8eeb06ff5cdba6ce5a" target="_top" xlink:title="Configure and start a series of transfers using DMA. Don&#39;t Wait for the completion before returning.">
<polygon fill="white" stroke="#666666" points="200.5,-190 90.5,-190 90.5,-160 200.5,-160 200.5,-190"/>
<text text-anchor="start" x="98.5" y="-178" font-family="Helvetica,sans-Serif" font-size="10.00">stm32_spi_transfer</text>
<text text-anchor="middle" x="145.5" y="-167" font-family="Helvetica,sans-Serif" font-size="10.00">_dma_async</text>
</a>
</g>
</g>
<!-- Node25&#45;&gt;Node27 -->
<g id="edge28_Node000025_Node000027" class="edge">
<title>Node25&#45;&gt;Node27</title>
<g id="a_edge28_Node000025_Node000027"><a xlink:title=" ">
<path fill="none" stroke="#63b8ff" d="M243.8,-187.41C229.25,-185.55 214.27,-183.64 200.56,-181.89"/>
<polygon fill="#63b8ff" stroke="#63b8ff" points="243.42,-190.89 253.79,-188.68 244.31,-183.95 243.42,-190.89"/>
</a>
</g>
</g>
<!-- Node33 -->
<g id="Node000033" class="node">
<title>Node33</title>
<g id="a_Node000033"><a xlink:href="self__test_8c.html#a9440e0a0a3091dcda40b03efbb3acd55" target="_top" xlink:title="Startup test.">
<polygon fill="white" stroke="#666666" points="369,-639.5 271,-639.5 271,-620.5 369,-620.5 369,-639.5"/>
<text text-anchor="middle" x="320" y="-627.5" font-family="Helvetica,sans-Serif" font-size="10.00">self_test_startup</text>
</a>
</g>
</g>
<!-- Node32&#45;&gt;Node33 -->
<g id="edge34_Node000032_Node000033" class="edge">
<title>Node32&#45;&gt;Node33</title>
<g id="a_edge34_Node000032_Node000033"><a xlink:title=" ">
<path fill="none" stroke="#63b8ff" d="M448.17,-630C423.56,-630 393.82,-630 369.28,-630"/>
<polygon fill="#63b8ff" stroke="#63b8ff" points="448.38,-633.5 458.38,-630 448.38,-626.5 448.38,-633.5"/>
</a>
</g>
</g>
<!-- Node33&#45;&gt;Node5 -->
<g id="edge35_Node000033_Node000005" class="edge">
<title>Node33&#45;&gt;Node5</title>
<g id="a_edge35_Node000033_Node000005"><a xlink:title=" ">
<path fill="none" stroke="#63b8ff" d="M260.91,-636.06C237.78,-638.47 211.63,-641.2 190.16,-643.44"/>
<polygon fill="#63b8ff" stroke="#63b8ff" points="261.37,-639.53 270.95,-635.01 260.64,-632.57 261.37,-639.53"/>
</a>
</g>
</g>
<!-- Node34&#45;&gt;Node5 -->
<g id="edge37_Node000034_Node000005" class="edge">
<title>Node34&#45;&gt;Node5</title>
<g id="a_edge37_Node000034_Node000005"><a xlink:title=" ">
<path fill="none" stroke="#63b8ff" d="M272.81,-605.26C265.17,-607.42 257.34,-609.72 250,-612 223.3,-620.31 193.13,-630.95 172.29,-638.5"/>
<polygon fill="#63b8ff" stroke="#63b8ff" points="274,-608.57 282.7,-602.51 272.13,-601.82 274,-608.57"/>
</a>
</g>
</g>
</g>
</svg>
