<?xml version="1.0" encoding="UTF-8" standalone="no"?>
<!DOCTYPE svg PUBLIC "-//W3C//DTD SVG 1.1//EN"
 "http://www.w3.org/Graphics/SVG/1.1/DTD/svg11.dtd">
<!-- Generated by graphviz version 2.43.0 (0)
 -->
<!-- Title: drivers/api/no_os_i3c.c Pages: 1 -->
<!--zoomable 247 -->

<svg id="main" version="1.1" xmlns="http://www.w3.org/2000/svg" xmlns:xlink="http://www.w3.org/1999/xlink" xml:space="preserve" onload="init(evt)">

<style type="text/css"><![CDATA[
.node, .edge {opacity: 0.7;}
.node.selected, .edge.selected {opacity: 1;}
.edge:hover path { stroke: red; }
.edge:hover polygon { stroke: red; fill: red; }
]]></style>

<defs>
  <circle id="rim" cx="0" cy="0" r="7"/>
  <circle id="rim2" cx="0" cy="0" r="3.5"/>
  <g id="zoomPlus">
    <use xlink:href="#rim" fill="#404040"><set attributeName="fill" to="#808080" begin="zoomplus.mouseover" end="zoomplus.mouseout"/></use>
    <path d="M-4,0h8M0,-4v8" fill="none" stroke="white" stroke-width="1.5" pointer-events="none"/>
  </g>
  <g id="zoomMin">
    <use xlink:href="#rim" fill="#404040"><set attributeName="fill" to="#808080" begin="zoomminus.mouseover" end="zoomminus.mouseout"/></use>
    <path d="M-4,0h8" fill="none" stroke="white" stroke-width="1.5" pointer-events="none"/>
  </g>
  <g id="arrowUp" transform="translate(30 24)">
    <use xlink:href="#rim"/>
    <path pointer-events="none" fill="none" stroke="white" stroke-width="1.5" d="M0,-3.0v7 M-2.5,-0.5L0,-3.0L2.5,-0.5"/>
  </g>
  <g id="arrowRight" transform="rotate(90) translate(36 -43)">
    <use xlink:href="#rim"/>
    <path pointer-events="none" fill="none" stroke="white" stroke-width="1.5" d="M0,-3.0v7 M-2.5,-0.5L0,-3.0L2.5,-0.5"/>
  </g>
  <g id="arrowDown" transform="rotate(180) translate(-30 -48)">
    <use xlink:href="#rim"/>
    <path pointer-events="none" fill="none" stroke="white" stroke-width="1.5" d="M0,-3.0v7 M-2.5,-0.5L0,-3.0L2.5,-0.5"/>
  </g>
  <g id="arrowLeft" transform="rotate(270) translate(-36 17)">
    <use xlink:href="#rim"/>
    <path pointer-events="none" fill="none" stroke="white" stroke-width="1.5" d="M0,-3.0v7 M-2.5,-0.5L0,-3.0L2.5,-0.5"/>
  </g>
  <g id="resetDef">
    <use xlink:href="#rim2" fill="#404040"><set attributeName="fill" to="#808080" begin="reset.mouseover" end="reset.mouseout"/></use>
  </g>
</defs>
<script type="application/ecmascript">
var viewWidth = 580;
var viewHeight = 247;
var sectionId = 'dynsection-0';
</script>
<script type="application/ecmascript" xlink:href="svg.min.js"/>
<svg id="graph" class="graph">
<g id="viewport">
<title>drivers/api/no_os_i3c.c</title>
<!-- Node1 -->
<g id="Node000001" class="node">
<title>Node1</title>
<g id="a_Node000001"><a xlink:title="Implementation of the I3C Interface.">
<polygon fill="#999999" stroke="#666666" points="277.5,-239 149.5,-239 149.5,-220 277.5,-220 277.5,-239"/>
<text text-anchor="middle" x="213.5" y="-227" font-family="Helvetica,sans-Serif" font-size="10.00">drivers/api/no_os_i3c.c</text>
</a>
</g>
</g>
<!-- Node2 -->
<g id="Node000002" class="node">
<title>Node2</title>
<g id="a_Node000002"><a xlink:title=" ">
<polygon fill="#e0e0e0" stroke="#999999" points="75,-184 10,-184 10,-165 75,-165 75,-184"/>
<text text-anchor="middle" x="42.5" y="-172" font-family="Helvetica,sans-Serif" font-size="10.00">inttypes.h</text>
</a>
</g>
</g>
<!-- Node1&#45;&gt;Node2 -->
<g id="edge1_Node000001_Node000002" class="edge">
<title>Node1&#45;&gt;Node2</title>
<g id="a_edge1_Node000001_Node000002"><a xlink:title=" ">
<path fill="none" stroke="#63b8ff" d="M186.03,-219.98C157.32,-211.09 112.08,-197.07 80.08,-187.15"/>
<polygon fill="#63b8ff" stroke="#63b8ff" points="80.78,-183.7 70.19,-184.08 78.7,-190.39 80.78,-183.7"/>
</a>
</g>
</g>
<!-- Node3 -->
<g id="Node000003" class="node">
<title>Node3</title>
<g id="a_Node000003"><a xlink:title=" ">
<polygon fill="#e0e0e0" stroke="#999999" points="119,-74 66,-74 66,-55 119,-55 119,-74"/>
<text text-anchor="middle" x="92.5" y="-62" font-family="Helvetica,sans-Serif" font-size="10.00">stdlib.h</text>
</a>
</g>
</g>
<!-- Node1&#45;&gt;Node3 -->
<g id="edge2_Node000001_Node000003" class="edge">
<title>Node1&#45;&gt;Node3</title>
<g id="a_edge2_Node000001_Node000003"><a xlink:title=" ">
<path fill="none" stroke="#63b8ff" d="M180.43,-219.98C160.87,-213.29 137.13,-202.02 122.5,-184 98.84,-154.85 93.55,-109.4 92.54,-84.1"/>
<polygon fill="#63b8ff" stroke="#63b8ff" points="96.04,-83.95 92.33,-74.02 89.04,-84.09 96.04,-83.95"/>
</a>
</g>
</g>
<!-- Node4 -->
<g id="Node000004" class="node">
<title>Node4</title>
<g id="a_Node000004"><a xlink:title=" ">
<polygon fill="#e0e0e0" stroke="#999999" points="185,-184 132,-184 132,-165 185,-165 185,-184"/>
<text text-anchor="middle" x="158.5" y="-172" font-family="Helvetica,sans-Serif" font-size="10.00">string.h</text>
</a>
</g>
</g>
<!-- Node1&#45;&gt;Node4 -->
<g id="edge3_Node000001_Node000004" class="edge">
<title>Node1&#45;&gt;Node4</title>
<g id="a_edge3_Node000001_Node000004"><a xlink:title=" ">
<path fill="none" stroke="#63b8ff" d="M204.42,-219.75C196.41,-212.03 184.54,-200.6 174.88,-191.28"/>
<polygon fill="#63b8ff" stroke="#63b8ff" points="177.04,-188.51 167.41,-184.09 172.19,-193.55 177.04,-188.51"/>
</a>
</g>
</g>
<!-- Node5 -->
<g id="Node000005" class="node">
<title>Node5</title>
<g id="a_Node000005"><a xlink:href="no__os__i3c_8h.html" target="_top" xlink:title="Header file of I3C Interface.">
<polygon fill="white" stroke="#666666" points="315.5,-184 241.5,-184 241.5,-165 315.5,-165 315.5,-184"/>
<text text-anchor="middle" x="278.5" y="-172" font-family="Helvetica,sans-Serif" font-size="10.00">no_os_i3c.h</text>
</a>
</g>
</g>
<!-- Node1&#45;&gt;Node5 -->
<g id="edge4_Node000001_Node000005" class="edge">
<title>Node1&#45;&gt;Node5</title>
<g id="a_edge4_Node000001_Node000005"><a xlink:title=" ">
<path fill="none" stroke="#63b8ff" d="M223.94,-219.98C233.65,-212.07 248.32,-200.11 260,-190.58"/>
<polygon fill="#63b8ff" stroke="#63b8ff" points="262.33,-193.2 267.87,-184.17 257.9,-187.78 262.33,-193.2"/>
</a>
</g>
</g>
<!-- Node13 -->
<g id="Node000013" class="node">
<title>Node13</title>
<g id="a_Node000013"><a xlink:href="no__os__mutex_8h.html" target="_top" xlink:title=" ">
<polygon fill="white" stroke="#666666" points="572,-74 481,-74 481,-55 572,-55 572,-74"/>
<text text-anchor="middle" x="526.5" y="-62" font-family="Helvetica,sans-Serif" font-size="10.00">no_os_mutex.h</text>
</a>
</g>
</g>
<!-- Node1&#45;&gt;Node13 -->
<g id="edge22_Node000001_Node000013" class="edge">
<title>Node1&#45;&gt;Node13</title>
<g id="a_edge22_Node000001_Node000013"><a xlink:title=" ">
<path fill="none" stroke="#63b8ff" d="M277.64,-223.05C343.98,-216.45 442.31,-203.72 474.5,-184 500.5,-168.08 503.46,-157.01 515.5,-129 521.65,-114.69 524.37,-97.16 525.56,-84.15"/>
<polygon fill="#63b8ff" stroke="#63b8ff" points="529.06,-84.3 526.27,-74.07 522.08,-83.8 529.06,-84.3"/>
</a>
</g>
</g>
<!-- Node14 -->
<g id="Node000014" class="node">
<title>Node14</title>
<g id="a_Node000014"><a xlink:href="no__os__error_8h.html" target="_top" xlink:title="Error codes definition.">
<polygon fill="white" stroke="#666666" points="465.5,-184 383.5,-184 383.5,-165 465.5,-165 465.5,-184"/>
<text text-anchor="middle" x="424.5" y="-172" font-family="Helvetica,sans-Serif" font-size="10.00">no_os_error.h</text>
</a>
</g>
</g>
<!-- Node1&#45;&gt;Node14 -->
<g id="edge20_Node000001_Node000014" class="edge">
<title>Node1&#45;&gt;Node14</title>
<g id="a_edge20_Node000001_Node000014"><a xlink:title=" ">
<path fill="none" stroke="#63b8ff" d="M247.4,-219.98C283.52,-210.91 340.82,-196.52 380.42,-186.57"/>
<polygon fill="#63b8ff" stroke="#63b8ff" points="381.49,-189.91 390.33,-184.08 379.78,-183.12 381.49,-189.91"/>
</a>
</g>
</g>
<!-- Node16 -->
<g id="Node000016" class="node">
<title>Node16</title>
<g id="a_Node000016"><a xlink:href="no__os__alloc_8h.html" target="_top" xlink:title=" ">
<polygon fill="white" stroke="#666666" points="215,-129 132,-129 132,-110 215,-110 215,-129"/>
<text text-anchor="middle" x="173.5" y="-117" font-family="Helvetica,sans-Serif" font-size="10.00">no_os_alloc.h</text>
</a>
</g>
</g>
<!-- Node1&#45;&gt;Node16 -->
<g id="edge23_Node000001_Node000016" class="edge">
<title>Node1&#45;&gt;Node16</title>
<g id="a_edge23_Node000001_Node000016"><a xlink:title=" ">
<path fill="none" stroke="#63b8ff" d="M211.1,-219.76C207.63,-207.42 200.82,-184.23 193.5,-165 190.11,-156.09 185.84,-146.42 182.11,-138.38"/>
<polygon fill="#63b8ff" stroke="#63b8ff" points="185.23,-136.78 177.79,-129.24 178.9,-139.77 185.23,-136.78"/>
</a>
</g>
</g>
<!-- Node6 -->
<g id="Node000006" class="node">
<title>Node6</title>
<g id="a_Node000006"><a xlink:title=" ">
<polygon fill="#e0e0e0" stroke="#999999" points="360,-19 307,-19 307,0 360,0 360,-19"/>
<text text-anchor="middle" x="333.5" y="-7" font-family="Helvetica,sans-Serif" font-size="10.00">stdint.h</text>
</a>
</g>
</g>
<!-- Node5&#45;&gt;Node6 -->
<g id="edge5_Node000005_Node000006" class="edge">
<title>Node5&#45;&gt;Node6</title>
<g id="a_edge5_Node000005_Node000006"><a xlink:title=" ">
<path fill="none" stroke="#63b8ff" d="M296.03,-164.84C323.1,-150.35 374.11,-118.36 394.5,-74 403.91,-53.52 382.26,-35.57 362.19,-24.03"/>
<polygon fill="#63b8ff" stroke="#63b8ff" points="363.67,-20.85 353.2,-19.19 360.35,-27.01 363.67,-20.85"/>
</a>
</g>
</g>
<!-- Node7 -->
<g id="Node000007" class="node">
<title>Node7</title>
<g id="a_Node000007"><a xlink:href="no__os__util_8h.html" target="_top" xlink:title="Header file of utility functions.">
<polygon fill="white" stroke="#666666" points="75,-129 0,-129 0,-110 75,-110 75,-129"/>
<text text-anchor="middle" x="37.5" y="-117" font-family="Helvetica,sans-Serif" font-size="10.00">no_os_util.h</text>
</a>
</g>
</g>
<!-- Node5&#45;&gt;Node7 -->
<g id="edge6_Node000005_Node000007" class="edge">
<title>Node5&#45;&gt;Node7</title>
<g id="a_edge6_Node000005_Node000007"><a xlink:title=" ">
<path fill="none" stroke="#63b8ff" d="M241.37,-165.33C199.39,-156.1 130.93,-141.05 85.06,-130.96"/>
<polygon fill="#63b8ff" stroke="#63b8ff" points="85.59,-127.49 75.07,-128.76 84.08,-134.33 85.59,-127.49"/>
</a>
</g>
</g>
<!-- Node9 -->
<g id="Node000009" class="node">
<title>Node9</title>
<g id="a_Node000009"><a xlink:href="no__os__dma_8h.html" target="_top" xlink:title="Platform independent function definitions and data types for the DMA API.">
<polygon fill="white" stroke="#666666" points="319,-129 238,-129 238,-110 319,-110 319,-129"/>
<text text-anchor="middle" x="278.5" y="-117" font-family="Helvetica,sans-Serif" font-size="10.00">no_os_dma.h</text>
</a>
</g>
</g>
<!-- Node5&#45;&gt;Node9 -->
<g id="edge10_Node000005_Node000009" class="edge">
<title>Node5&#45;&gt;Node9</title>
<g id="a_edge10_Node000005_Node000009"><a xlink:title=" ">
<path fill="none" stroke="#63b8ff" d="M278.5,-164.75C278.5,-157.8 278.5,-147.85 278.5,-139.13"/>
<polygon fill="#63b8ff" stroke="#63b8ff" points="282,-139.09 278.5,-129.09 275,-139.09 282,-139.09"/>
</a>
</g>
</g>
<!-- Node7&#45;&gt;Node3 -->
<g id="edge8_Node000007_Node000003" class="edge">
<title>Node7&#45;&gt;Node3</title>
<g id="a_edge8_Node000007_Node000003"><a xlink:title=" ">
<path fill="none" stroke="#63b8ff" d="M46.58,-109.75C54.59,-102.03 66.46,-90.6 76.12,-81.28"/>
<polygon fill="#63b8ff" stroke="#63b8ff" points="78.81,-83.55 83.59,-74.09 73.96,-78.51 78.81,-83.55"/>
</a>
</g>
</g>
<!-- Node7&#45;&gt;Node6 -->
<g id="edge7_Node000007_Node000006" class="edge">
<title>Node7&#45;&gt;Node6</title>
<g id="a_edge7_Node000007_Node000006"><a xlink:title=" ">
<path fill="none" stroke="#63b8ff" d="M37.38,-109.57C37.73,-95.65 40.58,-68.96 56.5,-55 91.62,-24.22 229.52,-14.58 296.54,-11.69"/>
<polygon fill="#63b8ff" stroke="#63b8ff" points="296.81,-15.18 306.66,-11.28 296.53,-8.18 296.81,-15.18"/>
</a>
</g>
</g>
<!-- Node8 -->
<g id="Node000008" class="node">
<title>Node8</title>
<g id="a_Node000008"><a xlink:title=" ">
<polygon fill="#e0e0e0" stroke="#999999" points="152.5,-19 90.5,-19 90.5,0 152.5,0 152.5,-19"/>
<text text-anchor="middle" x="121.5" y="-7" font-family="Helvetica,sans-Serif" font-size="10.00">stdbool.h</text>
</a>
</g>
</g>
<!-- Node7&#45;&gt;Node8 -->
<g id="edge9_Node000007_Node000008" class="edge">
<title>Node7&#45;&gt;Node8</title>
<g id="a_edge9_Node000007_Node000008"><a xlink:title=" ">
<path fill="none" stroke="#63b8ff" d="M31.88,-109.98C24.14,-97.08 12.37,-72.27 23.5,-55 36.17,-35.34 59.88,-24.26 80.8,-18.08"/>
<polygon fill="#63b8ff" stroke="#63b8ff" points="81.72,-21.46 90.48,-15.5 79.92,-14.7 81.72,-21.46"/>
</a>
</g>
</g>
<!-- Node9&#45;&gt;Node3 -->
<g id="edge12_Node000009_Node000003" class="edge">
<title>Node9&#45;&gt;Node3</title>
<g id="a_edge12_Node000009_Node000003"><a xlink:title=" ">
<path fill="none" stroke="#63b8ff" d="M248.62,-109.98C216.09,-100.72 164.06,-85.89 129.11,-75.93"/>
<polygon fill="#63b8ff" stroke="#63b8ff" points="129.87,-72.51 119.29,-73.13 127.95,-79.24 129.87,-72.51"/>
</a>
</g>
</g>
<!-- Node9&#45;&gt;Node6 -->
<g id="edge13_Node000009_Node000006" class="edge">
<title>Node9&#45;&gt;Node6</title>
<g id="a_edge13_Node000009_Node000006"><a xlink:title=" ">
<path fill="none" stroke="#63b8ff" d="M319.07,-111.41C340.64,-105.35 365.35,-94.24 378.5,-74 389.59,-56.92 372.02,-37.94 355.7,-25.22"/>
<polygon fill="#63b8ff" stroke="#63b8ff" points="357.57,-22.25 347.43,-19.18 353.44,-27.9 357.57,-22.25"/>
</a>
</g>
</g>
<!-- Node10 -->
<g id="Node000010" class="node">
<title>Node10</title>
<g id="a_Node000010"><a xlink:title=" ">
<polygon fill="#e0e0e0" stroke="#999999" points="187.5,-74 137.5,-74 137.5,-55 187.5,-55 187.5,-74"/>
<text text-anchor="middle" x="162.5" y="-62" font-family="Helvetica,sans-Serif" font-size="10.00">stdio.h</text>
</a>
</g>
</g>
<!-- Node9&#45;&gt;Node10 -->
<g id="edge11_Node000009_Node000010" class="edge">
<title>Node9&#45;&gt;Node10</title>
<g id="a_edge11_Node000009_Node000010"><a xlink:title=" ">
<path fill="none" stroke="#63b8ff" d="M259.86,-109.98C241.2,-101.46 212.25,-88.23 190.76,-78.41"/>
<polygon fill="#63b8ff" stroke="#63b8ff" points="192.03,-75.14 181.48,-74.17 189.12,-81.51 192.03,-75.14"/>
</a>
</g>
</g>
<!-- Node11 -->
<g id="Node000011" class="node">
<title>Node11</title>
<g id="a_Node000011"><a xlink:href="no__os__list_8h.html" target="_top" xlink:title="List library header.">
<polygon fill="white" stroke="#666666" points="279.5,-74 205.5,-74 205.5,-55 279.5,-55 279.5,-74"/>
<text text-anchor="middle" x="242.5" y="-62" font-family="Helvetica,sans-Serif" font-size="10.00">no_os_list.h</text>
</a>
</g>
</g>
<!-- Node9&#45;&gt;Node11 -->
<g id="edge14_Node000009_Node000011" class="edge">
<title>Node9&#45;&gt;Node11</title>
<g id="a_edge14_Node000009_Node000011"><a xlink:title=" ">
<path fill="none" stroke="#63b8ff" d="M272.56,-109.75C267.52,-102.34 260.16,-91.5 253.99,-82.41"/>
<polygon fill="#63b8ff" stroke="#63b8ff" points="256.85,-80.39 248.33,-74.09 251.06,-84.33 256.85,-80.39"/>
</a>
</g>
</g>
<!-- Node12 -->
<g id="Node000012" class="node">
<title>Node12</title>
<g id="a_Node000012"><a xlink:href="no__os__irq_8h.html" target="_top" xlink:title="Header file of IRQ interface.">
<polygon fill="white" stroke="#666666" points="369.5,-74 297.5,-74 297.5,-55 369.5,-55 369.5,-74"/>
<text text-anchor="middle" x="333.5" y="-62" font-family="Helvetica,sans-Serif" font-size="10.00">no_os_irq.h</text>
</a>
</g>
</g>
<!-- Node9&#45;&gt;Node12 -->
<g id="edge17_Node000009_Node000012" class="edge">
<title>Node9&#45;&gt;Node12</title>
<g id="a_edge17_Node000009_Node000012"><a xlink:title=" ">
<path fill="none" stroke="#63b8ff" d="M287.58,-109.75C295.59,-102.03 307.46,-90.6 317.12,-81.28"/>
<polygon fill="#63b8ff" stroke="#63b8ff" points="319.81,-83.55 324.59,-74.09 314.96,-78.51 319.81,-83.55"/>
</a>
</g>
</g>
<!-- Node9&#45;&gt;Node13 -->
<g id="edge19_Node000009_Node000013" class="edge">
<title>Node9&#45;&gt;Node13</title>
<g id="a_edge19_Node000009_Node000013"><a xlink:title=" ">
<path fill="none" stroke="#63b8ff" d="M318.35,-109.98C361.33,-100.8 429.87,-86.15 476.46,-76.19"/>
<polygon fill="#63b8ff" stroke="#63b8ff" points="477.29,-79.59 486.34,-74.08 475.83,-72.75 477.29,-79.59"/>
</a>
</g>
</g>
<!-- Node11&#45;&gt;Node6 -->
<g id="edge15_Node000011_Node000006" class="edge">
<title>Node11&#45;&gt;Node6</title>
<g id="a_edge15_Node000011_Node000006"><a xlink:title=" ">
<path fill="none" stroke="#63b8ff" d="M257.12,-54.98C271.36,-46.69 293.25,-33.94 309.95,-24.22"/>
<polygon fill="#63b8ff" stroke="#63b8ff" points="311.73,-27.23 318.61,-19.17 308.21,-21.18 311.73,-27.23"/>
</a>
</g>
</g>
<!-- Node11&#45;&gt;Node8 -->
<g id="edge16_Node000011_Node000008" class="edge">
<title>Node11&#45;&gt;Node8</title>
<g id="a_edge16_Node000011_Node000008"><a xlink:title=" ">
<path fill="none" stroke="#63b8ff" d="M223.06,-54.98C203.51,-46.42 173.12,-33.11 150.68,-23.28"/>
<polygon fill="#63b8ff" stroke="#63b8ff" points="151.86,-19.98 141.29,-19.17 149.05,-26.39 151.86,-19.98"/>
</a>
</g>
</g>
<!-- Node12&#45;&gt;Node6 -->
<g id="edge18_Node000012_Node000006" class="edge">
<title>Node12&#45;&gt;Node6</title>
<g id="a_edge18_Node000012_Node000006"><a xlink:title=" ">
<path fill="none" stroke="#63b8ff" d="M333.5,-54.75C333.5,-47.8 333.5,-37.85 333.5,-29.13"/>
<polygon fill="#63b8ff" stroke="#63b8ff" points="337,-29.09 333.5,-19.09 330,-29.09 337,-29.09"/>
</a>
</g>
</g>
<!-- Node15 -->
<g id="Node000015" class="node">
<title>Node15</title>
<g id="a_Node000015"><a xlink:href="errno_8h.html" target="_top" xlink:title="Error macro definition for ARM Compiler.">
<polygon fill="white" stroke="#666666" points="506,-129 455,-129 455,-110 506,-110 506,-129"/>
<text text-anchor="middle" x="480.5" y="-117" font-family="Helvetica,sans-Serif" font-size="10.00">errno.h</text>
</a>
</g>
</g>
<!-- Node14&#45;&gt;Node15 -->
<g id="edge21_Node000014_Node000015" class="edge">
<title>Node14&#45;&gt;Node15</title>
<g id="a_edge21_Node000014_Node000015"><a xlink:title=" ">
<path fill="none" stroke="#63b8ff" d="M433.5,-164.98C441.69,-157.23 454.01,-145.58 463.97,-136.14"/>
<polygon fill="#63b8ff" stroke="#63b8ff" points="466.48,-138.59 471.34,-129.17 461.67,-133.5 466.48,-138.59"/>
</a>
</g>
</g>
<!-- Node16&#45;&gt;Node3 -->
<g id="edge25_Node000016_Node000003" class="edge">
<title>Node16&#45;&gt;Node3</title>
<g id="a_edge25_Node000016_Node000003"><a xlink:title=" ">
<path fill="none" stroke="#63b8ff" d="M160.49,-109.98C148.04,-101.84 129.04,-89.41 114.29,-79.76"/>
<polygon fill="#63b8ff" stroke="#63b8ff" points="116.04,-76.72 105.75,-74.17 112.2,-82.57 116.04,-76.72"/>
</a>
</g>
</g>
<!-- Node16&#45;&gt;Node10 -->
<g id="edge24_Node000016_Node000010" class="edge">
<title>Node16&#45;&gt;Node10</title>
<g id="a_edge24_Node000016_Node000010"><a xlink:title=" ">
<path fill="none" stroke="#63b8ff" d="M171.68,-109.75C170.24,-102.8 168.18,-92.85 166.37,-84.13"/>
<polygon fill="#63b8ff" stroke="#63b8ff" points="169.74,-83.17 164.28,-74.09 162.89,-84.59 169.74,-83.17"/>
</a>
</g>
</g>
</g>
</svg>

<g id="navigator" transform="translate(0 0)" fill="#404254">
  <rect fill="#f2f5e9" fill-opacity="0.5" stroke="#606060" stroke-width=".5" x="0" y="0" width="60" height="60"/>
  <use id="zoomplus" xlink:href="#zoomPlus" x="17" y="9" onmousedown="handleZoom(evt,'in')"/>
  <use id="zoomminus" xlink:href="#zoomMin" x="42" y="9" onmousedown="handleZoom(evt,'out')"/>
  <use id="reset" xlink:href="#resetDef" x="30" y="36" onmousedown="handleReset()"/>
   <use id="arrowup" xlink:href="#arrowUp" x="0" y="0" onmousedown="handlePan(0,-1)"/>
  <use id="arrowright" xlink:href="#arrowRight" x="0" y="0" onmousedown="handlePan(1,0)"/>
  <use id="arrowdown" xlink:href="#arrowDown" x="0" y="0" onmousedown="handlePan(0,1)"/>
  <use id="arrowleft" xlink:href="#arrowLeft" x="0" y="0" onmousedown="handlePan(-1,0)"/>
</g>
<svg viewBox="0 0 15 15" width="100%" height="30px" preserveAspectRatio="xMaxYMin meet">
 <g id="arrow_out" transform="scale(0.3 0.3)">
  <a xlink:href="no__os__i3c_8c__incl_org.svg" target="_base">
   <rect id="button" ry="5" rx="5" y="6" x="6" height="38" width="38"
        fill="#f2f5e9" fill-opacity="0.5" stroke="#606060" stroke-width="1.0"/>
   <path id="arrow"
     d="M 11.500037,31.436501 C 11.940474,20.09759 22.043105,11.32322 32.158766,21.979434 L 37.068811,17.246167 C 37.068811,17.246167 37.088388,32 37.088388,32 L 22.160133,31.978069 C 22.160133,31.978069 26.997745,27.140456 26.997745,27.140456 C 18.528582,18.264221 13.291696,25.230495 11.500037,31.436501 z"
     style="fill:#404040;"/>
  </a>
 </g>
</svg>

<style type='text/css'>
<![CDATA[
[data-mouse-over-selected='false'] { opacity: 0.7; }
[data-mouse-over-selected='true']  { opacity: 1.0; }
]]>
</style>
<script type="application/ecmascript"><![CDATA[
document.addEventListener('DOMContentLoaded', (event) => {
  highlightEdges();
  highlightAdjacentNodes();
});
]]></script>
</svg>
