<?xml version="1.0" encoding="UTF-8" standalone="no"?>
<!DOCTYPE svg PUBLIC "-//W3C//DTD SVG 1.1//EN"
 "http://www.w3.org/Graphics/SVG/1.1/DTD/svg11.dtd">
<!-- Generated by graphviz version 2.43.0 (0)
 -->
<!-- Title: pcf85263_write Pages: 1 -->
<svg width="482pt" height="64pt"
 viewBox="0.00 0.00 482.00 64.00" xmlns="http://www.w3.org/2000/svg" xmlns:xlink="http://www.w3.org/1999/xlink">
<g id="graph0" class="graph" transform="scale(1 1) rotate(0) translate(4 60)">
<title>pcf85263_write</title>
<!-- Node1 -->
<g id="Node000001" class="node">
<title>Node1</title>
<g id="a_Node000001"><a xlink:title="Write device register.">
<polygon fill="#999999" stroke="#666666" points="474,-38 382,-38 382,-19 474,-19 474,-38"/>
<text text-anchor="middle" x="428" y="-26" font-family="Helvetica,sans-Serif" font-size="10.00">pcf85263_write</text>
</a>
</g>
</g>
<!-- Node2 -->
<g id="Node000002" class="node">
<title>Node2</title>
<g id="a_Node000002"><a xlink:href="pcf85263_8c.html#ab0503bfdeaad1a341d4681455628cfed" target="_top" xlink:title="Set date.">
<polygon fill="white" stroke="#666666" points="186,-56 77,-56 77,-37 186,-37 186,-56"/>
<text text-anchor="middle" x="131.5" y="-44" font-family="Helvetica,sans-Serif" font-size="10.00">pcf85263_set_date</text>
</a>
</g>
</g>
<!-- Node1&#45;&gt;Node2 -->
<g id="edge1_Node000001_Node000002" class="edge">
<title>Node1&#45;&gt;Node2</title>
<g id="a_edge1_Node000001_Node000002"><a xlink:title=" ">
<path fill="none" stroke="#63b8ff" d="M371.68,-31.88C318.49,-35.13 238.62,-40.01 186.03,-43.23"/>
<polygon fill="#63b8ff" stroke="#63b8ff" points="372.18,-35.36 381.95,-31.25 371.76,-28.37 372.18,-35.36"/>
</a>
</g>
</g>
<!-- Node4 -->
<g id="Node000004" class="node">
<title>Node4</title>
<g id="a_Node000004"><a xlink:href="pcf85263_8c.html#a345542ebb2f61e2de1021c03fac33137" target="_top" xlink:title="Update specific register bits.">
<polygon fill="white" stroke="#666666" points="346,-19 222,-19 222,0 346,0 346,-19"/>
<text text-anchor="middle" x="284" y="-7" font-family="Helvetica,sans-Serif" font-size="10.00">pcf85263_update_bits</text>
</a>
</g>
</g>
<!-- Node1&#45;&gt;Node4 -->
<g id="edge3_Node000001_Node000004" class="edge">
<title>Node1&#45;&gt;Node4</title>
<g id="a_edge3_Node000001_Node000004"><a xlink:title=" ">
<path fill="none" stroke="#63b8ff" d="M371.68,-21.1C363.33,-19.98 354.67,-18.82 346.21,-17.69"/>
<polygon fill="#63b8ff" stroke="#63b8ff" points="371.3,-24.58 381.68,-22.44 372.23,-17.64 371.3,-24.58"/>
</a>
</g>
</g>
<!-- Node3 -->
<g id="Node000003" class="node">
<title>Node3</title>
<g id="a_Node000003"><a xlink:href="eval-ade9430_2src_2app_2main_8c.html#ae66f6b31b5ad750f1fe042a706a4e3d4" target="_top" xlink:title="Main function execution for maxim platform.">
<polygon fill="white" stroke="#666666" points="41,-37 0,-37 0,-18 41,-18 41,-37"/>
<text text-anchor="middle" x="20.5" y="-25" font-family="Helvetica,sans-Serif" font-size="10.00">main</text>
</a>
</g>
</g>
<!-- Node2&#45;&gt;Node3 -->
<g id="edge2_Node000002_Node000003" class="edge">
<title>Node2&#45;&gt;Node3</title>
<g id="a_edge2_Node000002_Node000003"><a xlink:title=" ">
<path fill="none" stroke="#63b8ff" d="M67.08,-35.45C57.68,-33.81 48.65,-32.23 41.14,-30.92"/>
<polygon fill="#63b8ff" stroke="#63b8ff" points="66.51,-38.9 76.96,-37.17 67.71,-32 66.51,-38.9"/>
</a>
</g>
</g>
<!-- Node5 -->
<g id="Node000005" class="node">
<title>Node5</title>
<g id="a_Node000005"><a xlink:href="pcf85263_8c.html#a9d506ed2d377a6366f247527de0c52bb" target="_top" xlink:title="Initialize the device.">
<polygon fill="white" stroke="#666666" points="173,-19 90,-19 90,0 173,0 173,-19"/>
<text text-anchor="middle" x="131.5" y="-7" font-family="Helvetica,sans-Serif" font-size="10.00">pcf85263_init</text>
</a>
</g>
</g>
<!-- Node4&#45;&gt;Node5 -->
<g id="edge4_Node000004_Node000005" class="edge">
<title>Node4&#45;&gt;Node5</title>
<g id="a_edge4_Node000004_Node000005"><a xlink:title=" ">
<path fill="none" stroke="#63b8ff" d="M211.78,-9.5C198.62,-9.5 185.3,-9.5 173.43,-9.5"/>
<polygon fill="#63b8ff" stroke="#63b8ff" points="211.79,-13 221.79,-9.5 211.79,-6 211.79,-13"/>
</a>
</g>
</g>
<!-- Node5&#45;&gt;Node3 -->
<g id="edge5_Node000005_Node000003" class="edge">
<title>Node5&#45;&gt;Node3</title>
<g id="a_edge5_Node000005_Node000003"><a xlink:title=" ">
<path fill="none" stroke="#63b8ff" d="M79.96,-17.85C66.14,-20.13 51.98,-22.47 41.06,-24.27"/>
<polygon fill="#63b8ff" stroke="#63b8ff" points="80.62,-21.29 89.91,-16.2 79.48,-14.38 80.62,-21.29"/>
</a>
</g>
</g>
</g>
</svg>
