<?xml version="1.0" encoding="UTF-8" standalone="no"?>
<!DOCTYPE svg PUBLIC "-//W3C//DTD SVG 1.1//EN"
 "http://www.w3.org/Graphics/SVG/1.1/DTD/svg11.dtd">
<!-- Generated by graphviz version 2.43.0 (0)
 -->
<!-- Title: CMB_wait_ms Pages: 1 -->
<svg width="525pt" height="101pt"
 viewBox="0.00 0.00 525.00 101.00" xmlns="http://www.w3.org/2000/svg" xmlns:xlink="http://www.w3.org/1999/xlink">
<g id="graph0" class="graph" transform="scale(1 1) rotate(0) translate(4 97)">
<title>CMB_wait_ms</title>
<!-- Node1 -->
<g id="Node000001" class="node">
<title>Node1</title>
<g id="a_Node000001"><a xlink:title=" ">
<polygon fill="#999999" stroke="#666666" points="517,-38 431,-38 431,-19 517,-19 517,-38"/>
<text text-anchor="middle" x="474" y="-26" font-family="Helvetica,sans-Serif" font-size="10.00">CMB_wait_ms</text>
</a>
</g>
</g>
<!-- Node2 -->
<g id="Node000002" class="node">
<title>Node2</title>
<g id="a_Node000002"><a xlink:href="common_8c.html#a324b7a47a314e9308ce48d06ce7dc432" target="_top" xlink:title=" ">
<polygon fill="white" stroke="#666666" points="366,-75 272,-75 272,-56 366,-56 366,-75"/>
<text text-anchor="middle" x="319" y="-63" font-family="Helvetica,sans-Serif" font-size="10.00">CMB_hardReset</text>
</a>
</g>
</g>
<!-- Node1&#45;&gt;Node2 -->
<g id="edge1_Node000001_Node000002" class="edge">
<title>Node1&#45;&gt;Node2</title>
<g id="a_edge1_Node000001_Node000002"><a xlink:title=" ">
<path fill="none" stroke="#63b8ff" d="M423.92,-40.48C414.33,-42.82 404.35,-45.24 395,-47.5 383.55,-50.27 371.1,-53.26 359.71,-56"/>
<polygon fill="#63b8ff" stroke="#63b8ff" points="424.84,-43.86 433.73,-38.09 423.18,-37.06 424.84,-43.86"/>
</a>
</g>
</g>
<!-- Node6 -->
<g id="Node000006" class="node">
<title>Node6</title>
<g id="a_Node000006"><a xlink:href="mykonos_8c.html#adef6d67d2eb7cc3561fbad17ec3145d2" target="_top" xlink:title="Sets the CLKPLL output frequency.">
<polygon fill="white" stroke="#666666" points="395,-38 243,-38 243,-19 395,-19 395,-38"/>
<text text-anchor="middle" x="319" y="-26" font-family="Helvetica,sans-Serif" font-size="10.00">MYKONOS_initDigitalClocks</text>
</a>
</g>
</g>
<!-- Node1&#45;&gt;Node6 -->
<g id="edge6_Node000001_Node000006" class="edge">
<title>Node1&#45;&gt;Node6</title>
<g id="a_edge6_Node000001_Node000006"><a xlink:title=" ">
<path fill="none" stroke="#63b8ff" d="M420.65,-28.5C412.45,-28.5 403.84,-28.5 395.25,-28.5"/>
<polygon fill="#63b8ff" stroke="#63b8ff" points="420.79,-32 430.79,-28.5 420.79,-25 420.79,-32"/>
</a>
</g>
</g>
<!-- Node7 -->
<g id="Node000007" class="node">
<title>Node7</title>
<g id="a_Node000007"><a xlink:href="mykonos_8c.html#a26b695db592df334a9ef189d9d66125f" target="_top" xlink:title="Initializes the Mykonos device based on the desired device settings.">
<polygon fill="white" stroke="#666666" points="198.5,-19 85.5,-19 85.5,0 198.5,0 198.5,-19"/>
<text text-anchor="middle" x="142" y="-7" font-family="Helvetica,sans-Serif" font-size="10.00">MYKONOS_initialize</text>
</a>
</g>
</g>
<!-- Node1&#45;&gt;Node7 -->
<g id="edge9_Node000001_Node000007" class="edge">
<title>Node1&#45;&gt;Node7</title>
<g id="a_edge9_Node000001_Node000007"><a xlink:title=" ">
<path fill="none" stroke="#63b8ff" d="M431.49,-16.44C419.79,-13.58 406.99,-10.94 395,-9.5 327.89,-1.44 250,-3.11 198.78,-5.7"/>
<polygon fill="#63b8ff" stroke="#63b8ff" points="430.88,-19.9 441.44,-18.99 432.62,-13.12 430.88,-19.9"/>
</a>
</g>
</g>
<!-- Node3 -->
<g id="Node000003" class="node">
<title>Node3</title>
<g id="a_Node000003"><a xlink:href="projects_2ad9371_2src_2devices_2ad9528_2ad9528_8c.html#abd0e4de0dc0152ecd9e18331044782ce" target="_top" xlink:title="Performs a hard reset on the AD9528 DUT.">
<polygon fill="white" stroke="#666666" points="201.5,-93 82.5,-93 82.5,-74 201.5,-74 201.5,-93"/>
<text text-anchor="middle" x="142" y="-81" font-family="Helvetica,sans-Serif" font-size="10.00">AD9528_resetDevice</text>
</a>
</g>
</g>
<!-- Node2&#45;&gt;Node3 -->
<g id="edge2_Node000002_Node000003" class="edge">
<title>Node2&#45;&gt;Node3</title>
<g id="a_edge2_Node000002_Node000003"><a xlink:title=" ">
<path fill="none" stroke="#63b8ff" d="M261.48,-71.31C242.32,-73.28 220.89,-75.49 201.58,-77.47"/>
<polygon fill="#63b8ff" stroke="#63b8ff" points="261.97,-74.78 271.56,-70.28 261.26,-67.82 261.97,-74.78"/>
</a>
</g>
</g>
<!-- Node5 -->
<g id="Node000005" class="node">
<title>Node5</title>
<g id="a_Node000005"><a xlink:href="mykonos_8c.html#a783d97c146dac6c1d6cb37e319392e27" target="_top" xlink:title="Performs a hard reset on the MYKONOS DUT (Toggles RESETB pin on device)">
<polygon fill="white" stroke="#666666" points="207,-56 77,-56 77,-37 207,-37 207,-56"/>
<text text-anchor="middle" x="142" y="-44" font-family="Helvetica,sans-Serif" font-size="10.00">MYKONOS_resetDevice</text>
</a>
</g>
</g>
<!-- Node2&#45;&gt;Node5 -->
<g id="edge4_Node000002_Node000005" class="edge">
<title>Node2&#45;&gt;Node5</title>
<g id="a_edge4_Node000002_Node000005"><a xlink:title=" ">
<path fill="none" stroke="#63b8ff" d="M261.58,-59.37C244.21,-57.49 224.96,-55.4 207.11,-53.46"/>
<polygon fill="#63b8ff" stroke="#63b8ff" points="261.24,-62.86 271.56,-60.46 262,-55.9 261.24,-62.86"/>
</a>
</g>
</g>
<!-- Node4 -->
<g id="Node000004" class="node">
<title>Node4</title>
<g id="a_Node000004"><a xlink:href="ad9371_2src_2app_2headless_8c.html#a840291bc02cba5474a4cb46a9b9566fe" target="_top" xlink:title="main">
<polygon fill="white" stroke="#666666" points="41,-56 0,-56 0,-37 41,-37 41,-56"/>
<text text-anchor="middle" x="20.5" y="-44" font-family="Helvetica,sans-Serif" font-size="10.00">main</text>
</a>
</g>
</g>
<!-- Node3&#45;&gt;Node4 -->
<g id="edge3_Node000003_Node000004" class="edge">
<title>Node3&#45;&gt;Node4</title>
<g id="a_edge3_Node000003_Node000004"><a xlink:title=" ">
<path fill="none" stroke="#63b8ff" d="M95.85,-71.14C89.5,-69.3 83.07,-67.39 77,-65.5 65.04,-61.77 51.76,-57.24 41.19,-53.54"/>
<polygon fill="#63b8ff" stroke="#63b8ff" points="95.11,-74.57 105.69,-73.95 97.03,-67.84 95.11,-74.57"/>
</a>
</g>
</g>
<!-- Node5&#45;&gt;Node4 -->
<g id="edge5_Node000005_Node000004" class="edge">
<title>Node5&#45;&gt;Node4</title>
<g id="a_edge5_Node000005_Node000004"><a xlink:title=" ">
<path fill="none" stroke="#63b8ff" d="M66.51,-46.5C57.25,-46.5 48.5,-46.5 41.22,-46.5"/>
<polygon fill="#63b8ff" stroke="#63b8ff" points="66.7,-50 76.7,-46.5 66.7,-43 66.7,-50"/>
</a>
</g>
</g>
<!-- Node6&#45;&gt;Node7 -->
<g id="edge7_Node000006_Node000007" class="edge">
<title>Node6&#45;&gt;Node7</title>
<g id="a_edge7_Node000006_Node000007"><a xlink:title=" ">
<path fill="none" stroke="#63b8ff" d="M232.64,-19.23C221.08,-17.98 209.47,-16.72 198.61,-15.54"/>
<polygon fill="#63b8ff" stroke="#63b8ff" points="232.45,-22.73 242.77,-20.33 233.2,-15.77 232.45,-22.73"/>
</a>
</g>
</g>
<!-- Node7&#45;&gt;Node4 -->
<g id="edge8_Node000007_Node000004" class="edge">
<title>Node7&#45;&gt;Node4</title>
<g id="a_edge8_Node000007_Node000004"><a xlink:title=" ">
<path fill="none" stroke="#63b8ff" d="M95.85,-21.86C89.5,-23.7 83.07,-25.61 77,-27.5 65.04,-31.23 51.76,-35.76 41.19,-39.46"/>
<polygon fill="#63b8ff" stroke="#63b8ff" points="97.03,-25.16 105.69,-19.05 95.11,-18.43 97.03,-25.16"/>
</a>
</g>
</g>
</g>
</svg>
