<?xml version="1.0" encoding="UTF-8" standalone="no"?>
<!DOCTYPE svg PUBLIC "-//W3C//DTD SVG 1.1//EN"
 "http://www.w3.org/Graphics/SVG/1.1/DTD/svg11.dtd">
<!-- Generated by graphviz version 2.43.0 (0)
 -->
<!-- Title: projects/pulsar&#45;adc/src/common/common_data.h Pages: 1 -->
<svg width="565pt" height="313pt"
 viewBox="0.00 0.00 565.00 313.00" xmlns="http://www.w3.org/2000/svg" xmlns:xlink="http://www.w3.org/1999/xlink">
<g id="graph0" class="graph" transform="scale(1 1) rotate(0) translate(4 309)">
<title>projects/pulsar&#45;adc/src/common/common_data.h</title>
<!-- Node1 -->
<g id="Node000001" class="node">
<title>Node1</title>
<g id="a_Node000001"><a xlink:title="Defines common data to be used by pulsar&#45;adc examples.">
<polygon fill="#999999" stroke="#666666" points="345.5,-305 184.5,-305 184.5,-275 345.5,-275 345.5,-305"/>
<text text-anchor="start" x="192.5" y="-293" font-family="Helvetica,sans-Serif" font-size="10.00">projects/pulsar&#45;adc</text>
<text text-anchor="middle" x="265" y="-282" font-family="Helvetica,sans-Serif" font-size="10.00">/src/common/common_data.h</text>
</a>
</g>
</g>
<!-- Node2 -->
<g id="Node000002" class="node">
<title>Node2</title>
<g id="a_Node000002"><a xlink:title=" ">
<polygon fill="#e0e0e0" stroke="#999999" points="264.5,-239 151.5,-239 151.5,-220 264.5,-220 264.5,-239"/>
<text text-anchor="middle" x="208" y="-227" font-family="Helvetica,sans-Serif" font-size="10.00">platform_includes.h</text>
</a>
</g>
</g>
<!-- Node1&#45;&gt;Node2 -->
<g id="edge1_Node000001_Node000002" class="edge">
<title>Node1&#45;&gt;Node2</title>
<g id="a_edge1_Node000001_Node000002"><a xlink:title=" ">
<path fill="none" stroke="#63b8ff" d="M251.2,-274.84C242.93,-266.35 232.38,-255.52 223.77,-246.69"/>
<polygon fill="#63b8ff" stroke="#63b8ff" points="226.03,-243.99 216.54,-239.27 221.01,-248.87 226.03,-243.99"/>
</a>
</g>
</g>
<!-- Node3 -->
<g id="Node000003" class="node">
<title>Node3</title>
<g id="a_Node000003"><a xlink:href="pulsar__adc_8h.html" target="_top" xlink:title="Header file for pulsar_adc Driver.">
<polygon fill="white" stroke="#666666" points="361,-239 283,-239 283,-220 361,-220 361,-239"/>
<text text-anchor="middle" x="322" y="-227" font-family="Helvetica,sans-Serif" font-size="10.00">pulsar_adc.h</text>
</a>
</g>
</g>
<!-- Node1&#45;&gt;Node3 -->
<g id="edge2_Node000001_Node000003" class="edge">
<title>Node1&#45;&gt;Node3</title>
<g id="a_edge2_Node000001_Node000003"><a xlink:title=" ">
<path fill="none" stroke="#63b8ff" d="M278.8,-274.84C287.07,-266.35 297.62,-255.52 306.23,-246.69"/>
<polygon fill="#63b8ff" stroke="#63b8ff" points="308.99,-248.87 313.46,-239.27 303.97,-243.99 308.99,-248.87"/>
</a>
</g>
</g>
<!-- Node4 -->
<g id="Node000004" class="node">
<title>Node4</title>
<g id="a_Node000004"><a xlink:title=" ">
<polygon fill="#e0e0e0" stroke="#999999" points="62,-19 0,-19 0,0 62,0 62,-19"/>
<text text-anchor="middle" x="31" y="-7" font-family="Helvetica,sans-Serif" font-size="10.00">stdbool.h</text>
</a>
</g>
</g>
<!-- Node3&#45;&gt;Node4 -->
<g id="edge3_Node000003_Node000004" class="edge">
<title>Node3&#45;&gt;Node4</title>
<g id="a_edge3_Node000003_Node000004"><a xlink:title=" ">
<path fill="none" stroke="#63b8ff" d="M292.63,-219.95C266.48,-211.94 227.46,-198.97 195,-184 106.74,-143.3 54.45,-158.25 6,-74 -2.64,-58.98 6.75,-40.4 16.39,-27.22"/>
<polygon fill="#63b8ff" stroke="#63b8ff" points="19.39,-29.08 22.89,-19.08 13.92,-24.72 19.39,-29.08"/>
</a>
</g>
</g>
<!-- Node5 -->
<g id="Node000005" class="node">
<title>Node5</title>
<g id="a_Node000005"><a xlink:href="spi__engine_8h.html" target="_top" xlink:title=" ">
<polygon fill="white" stroke="#666666" points="361,-184 283,-184 283,-165 361,-165 361,-184"/>
<text text-anchor="middle" x="322" y="-172" font-family="Helvetica,sans-Serif" font-size="10.00">spi_engine.h</text>
</a>
</g>
</g>
<!-- Node3&#45;&gt;Node5 -->
<g id="edge4_Node000003_Node000005" class="edge">
<title>Node3&#45;&gt;Node5</title>
<g id="a_edge4_Node000003_Node000005"><a xlink:title=" ">
<path fill="none" stroke="#63b8ff" d="M322,-219.75C322,-212.8 322,-202.85 322,-194.13"/>
<polygon fill="#63b8ff" stroke="#63b8ff" points="325.5,-194.09 322,-184.09 318.5,-194.09 325.5,-194.09"/>
</a>
</g>
</g>
<!-- Node12 -->
<g id="Node000012" class="node">
<title>Node12</title>
<g id="a_Node000012"><a xlink:href="clk__axi__clkgen_8h.html" target="_top" xlink:title="Driver for the Analog Devices AXI CLKGEN.">
<polygon fill="white" stroke="#666666" points="513,-129 415,-129 415,-110 513,-110 513,-129"/>
<text text-anchor="middle" x="464" y="-117" font-family="Helvetica,sans-Serif" font-size="10.00">clk_axi_clkgen.h</text>
</a>
</g>
</g>
<!-- Node3&#45;&gt;Node12 -->
<g id="edge18_Node000003_Node000012" class="edge">
<title>Node3&#45;&gt;Node12</title>
<g id="a_edge18_Node000003_Node000012"><a xlink:title=" ">
<path fill="none" stroke="#63b8ff" d="M333.62,-219.66C357.98,-201.14 414.59,-158.08 444.57,-135.28"/>
<polygon fill="#63b8ff" stroke="#63b8ff" points="446.78,-138 452.62,-129.16 442.54,-132.43 446.78,-138"/>
</a>
</g>
</g>
<!-- Node13 -->
<g id="Node000013" class="node">
<title>Node13</title>
<g id="a_Node000013"><a xlink:href="no__os__pwm_8h.html" target="_top" xlink:title="Header file of PWM Interface.">
<polygon fill="white" stroke="#666666" points="107.5,-74 24.5,-74 24.5,-55 107.5,-55 107.5,-74"/>
<text text-anchor="middle" x="66" y="-62" font-family="Helvetica,sans-Serif" font-size="10.00">no_os_pwm.h</text>
</a>
</g>
</g>
<!-- Node3&#45;&gt;Node13 -->
<g id="edge20_Node000003_Node000013" class="edge">
<title>Node3&#45;&gt;Node13</title>
<g id="a_edge20_Node000003_Node000013"><a xlink:title=" ">
<path fill="none" stroke="#63b8ff" d="M303.44,-219.95C269.66,-204.06 196.43,-168 140,-129 119.05,-114.52 97.16,-95.12 82.67,-81.59"/>
<polygon fill="#63b8ff" stroke="#63b8ff" points="84.73,-78.72 75.07,-74.39 79.92,-83.8 84.73,-78.72"/>
</a>
</g>
</g>
<!-- Node14 -->
<g id="Node000014" class="node">
<title>Node14</title>
<g id="a_Node000014"><a xlink:href="no__os__gpio_8h.html" target="_top" xlink:title="Header file of GPIO Interface.">
<polygon fill="white" stroke="#666666" points="557,-184 477,-184 477,-165 557,-165 557,-184"/>
<text text-anchor="middle" x="517" y="-172" font-family="Helvetica,sans-Serif" font-size="10.00">no_os_gpio.h</text>
</a>
</g>
</g>
<!-- Node3&#45;&gt;Node14 -->
<g id="edge23_Node000003_Node000014" class="edge">
<title>Node3&#45;&gt;Node14</title>
<g id="a_edge23_Node000003_Node000014"><a xlink:title=" ">
<path fill="none" stroke="#63b8ff" d="M353.33,-219.98C386.49,-210.97 439,-196.7 475.56,-186.76"/>
<polygon fill="#63b8ff" stroke="#63b8ff" points="476.69,-190.08 485.42,-184.08 474.86,-183.33 476.69,-190.08"/>
</a>
</g>
</g>
<!-- Node6 -->
<g id="Node000006" class="node">
<title>Node6</title>
<g id="a_Node000006"><a xlink:title=" ">
<polygon fill="#e0e0e0" stroke="#999999" points="352.5,-19 299.5,-19 299.5,0 352.5,0 352.5,-19"/>
<text text-anchor="middle" x="326" y="-7" font-family="Helvetica,sans-Serif" font-size="10.00">stdint.h</text>
</a>
</g>
</g>
<!-- Node5&#45;&gt;Node6 -->
<g id="edge5_Node000005_Node000006" class="edge">
<title>Node5&#45;&gt;Node6</title>
<g id="a_edge5_Node000005_Node000006"><a xlink:title=" ">
<path fill="none" stroke="#63b8ff" d="M335.49,-164.75C346.29,-156.87 360.65,-144.21 367,-129 381.81,-93.53 356.69,-50.62 339.67,-27.4"/>
<polygon fill="#63b8ff" stroke="#63b8ff" points="342.29,-25.07 333.44,-19.26 336.74,-29.33 342.29,-25.07"/>
</a>
</g>
</g>
<!-- Node7 -->
<g id="Node000007" class="node">
<title>Node7</title>
<g id="a_Node000007"><a xlink:href="spi__engine__private_8h.html" target="_top" xlink:title=" ">
<polygon fill="white" stroke="#666666" points="267,-129 149,-129 149,-110 267,-110 267,-129"/>
<text text-anchor="middle" x="208" y="-117" font-family="Helvetica,sans-Serif" font-size="10.00">spi_engine_private.h</text>
</a>
</g>
</g>
<!-- Node5&#45;&gt;Node7 -->
<g id="edge6_Node000005_Node000007" class="edge">
<title>Node5&#45;&gt;Node7</title>
<g id="a_edge6_Node000005_Node000007"><a xlink:title=" ">
<path fill="none" stroke="#63b8ff" d="M303.68,-164.98C285.34,-156.46 256.89,-143.23 235.77,-133.41"/>
<polygon fill="#63b8ff" stroke="#63b8ff" points="237.19,-130.21 226.65,-129.17 234.24,-136.56 237.19,-130.21"/>
</a>
</g>
</g>
<!-- Node11 -->
<g id="Node000011" class="node">
<title>Node11</title>
<g id="a_Node000011"><a xlink:href="axi__dmac_8h.html" target="_top" xlink:title="Driver for the Analog Devices AXI&#45;DMAC core.">
<polygon fill="white" stroke="#666666" points="358.5,-129 285.5,-129 285.5,-110 358.5,-110 358.5,-129"/>
<text text-anchor="middle" x="322" y="-117" font-family="Helvetica,sans-Serif" font-size="10.00">axi_dmac.h</text>
</a>
</g>
</g>
<!-- Node5&#45;&gt;Node11 -->
<g id="edge15_Node000005_Node000011" class="edge">
<title>Node5&#45;&gt;Node11</title>
<g id="a_edge15_Node000005_Node000011"><a xlink:title=" ">
<path fill="none" stroke="#63b8ff" d="M322,-164.75C322,-157.8 322,-147.85 322,-139.13"/>
<polygon fill="#63b8ff" stroke="#63b8ff" points="325.5,-139.09 322,-129.09 318.5,-139.09 325.5,-139.09"/>
</a>
</g>
</g>
<!-- Node7&#45;&gt;Node4 -->
<g id="edge8_Node000007_Node000004" class="edge">
<title>Node7&#45;&gt;Node4</title>
<g id="a_edge8_Node000007_Node000004"><a xlink:title=" ">
<path fill="none" stroke="#63b8ff" d="M148.84,-112.86C98.41,-106.69 31.54,-94.79 15,-74 4.53,-60.84 11.5,-41.7 19.25,-27.87"/>
<polygon fill="#63b8ff" stroke="#63b8ff" points="22.27,-29.64 24.53,-19.29 16.31,-25.97 22.27,-29.64"/>
</a>
</g>
</g>
<!-- Node7&#45;&gt;Node6 -->
<g id="edge7_Node000007_Node000006" class="edge">
<title>Node7&#45;&gt;Node6</title>
<g id="a_edge7_Node000007_Node000006"><a xlink:title=" ">
<path fill="none" stroke="#63b8ff" d="M211.8,-109.76C217.88,-96.57 230.87,-71.4 248,-55 261.8,-41.79 280.27,-31.03 295.77,-23.4"/>
<polygon fill="#63b8ff" stroke="#63b8ff" points="297.41,-26.49 304.97,-19.06 294.43,-20.16 297.41,-26.49"/>
</a>
</g>
</g>
<!-- Node8 -->
<g id="Node000008" class="node">
<title>Node8</title>
<g id="a_Node000008"><a xlink:href="no__os__spi_8h.html" target="_top" xlink:title="Header file of SPI Interface.">
<polygon fill="white" stroke="#666666" points="331,-74 257,-74 257,-55 331,-55 331,-74"/>
<text text-anchor="middle" x="294" y="-62" font-family="Helvetica,sans-Serif" font-size="10.00">no_os_spi.h</text>
</a>
</g>
</g>
<!-- Node7&#45;&gt;Node8 -->
<g id="edge9_Node000007_Node000008" class="edge">
<title>Node7&#45;&gt;Node8</title>
<g id="a_edge9_Node000007_Node000008"><a xlink:title=" ">
<path fill="none" stroke="#63b8ff" d="M221.82,-109.98C235.15,-101.77 255.58,-89.18 271.31,-79.49"/>
<polygon fill="#63b8ff" stroke="#63b8ff" points="273.25,-82.4 279.93,-74.17 269.58,-76.44 273.25,-82.4"/>
</a>
</g>
</g>
<!-- Node9 -->
<g id="Node000009" class="node">
<title>Node9</title>
<g id="a_Node000009"><a xlink:href="no__os__util_8h.html" target="_top" xlink:title="Header file of utility functions.">
<polygon fill="white" stroke="#666666" points="200.5,-74 125.5,-74 125.5,-55 200.5,-55 200.5,-74"/>
<text text-anchor="middle" x="163" y="-62" font-family="Helvetica,sans-Serif" font-size="10.00">no_os_util.h</text>
</a>
</g>
</g>
<!-- Node7&#45;&gt;Node9 -->
<g id="edge11_Node000007_Node000009" class="edge">
<title>Node7&#45;&gt;Node9</title>
<g id="a_edge11_Node000007_Node000009"><a xlink:title=" ">
<path fill="none" stroke="#63b8ff" d="M200.57,-109.75C194.15,-102.18 184.69,-91.05 176.88,-81.84"/>
<polygon fill="#63b8ff" stroke="#63b8ff" points="179.43,-79.45 170.29,-74.09 174.1,-83.98 179.43,-79.45"/>
</a>
</g>
</g>
<!-- Node8&#45;&gt;Node6 -->
<g id="edge10_Node000008_Node000006" class="edge">
<title>Node8&#45;&gt;Node6</title>
<g id="a_edge10_Node000008_Node000006"><a xlink:title=" ">
<path fill="none" stroke="#63b8ff" d="M299.28,-54.75C303.71,-47.42 310.16,-36.73 315.62,-27.7"/>
<polygon fill="#63b8ff" stroke="#63b8ff" points="318.64,-29.46 320.81,-19.09 312.65,-25.84 318.64,-29.46"/>
</a>
</g>
</g>
<!-- Node9&#45;&gt;Node4 -->
<g id="edge14_Node000009_Node000004" class="edge">
<title>Node9&#45;&gt;Node4</title>
<g id="a_edge14_Node000009_Node000004"><a xlink:title=" ">
<path fill="none" stroke="#63b8ff" d="M141.79,-54.98C120.27,-46.34 86.72,-32.87 62.17,-23.02"/>
<polygon fill="#63b8ff" stroke="#63b8ff" points="63.18,-19.65 52.59,-19.17 60.57,-26.14 63.18,-19.65"/>
</a>
</g>
</g>
<!-- Node9&#45;&gt;Node6 -->
<g id="edge12_Node000009_Node000006" class="edge">
<title>Node9&#45;&gt;Node6</title>
<g id="a_edge12_Node000009_Node000006"><a xlink:title=" ">
<path fill="none" stroke="#63b8ff" d="M189.19,-54.98C216.44,-46.13 259.3,-32.19 289.78,-22.28"/>
<polygon fill="#63b8ff" stroke="#63b8ff" points="291.18,-25.5 299.61,-19.08 289.01,-18.85 291.18,-25.5"/>
</a>
</g>
</g>
<!-- Node10 -->
<g id="Node000010" class="node">
<title>Node10</title>
<g id="a_Node000010"><a xlink:title=" ">
<polygon fill="#e0e0e0" stroke="#999999" points="189.5,-19 136.5,-19 136.5,0 189.5,0 189.5,-19"/>
<text text-anchor="middle" x="163" y="-7" font-family="Helvetica,sans-Serif" font-size="10.00">stdlib.h</text>
</a>
</g>
</g>
<!-- Node9&#45;&gt;Node10 -->
<g id="edge13_Node000009_Node000010" class="edge">
<title>Node9&#45;&gt;Node10</title>
<g id="a_edge13_Node000009_Node000010"><a xlink:title=" ">
<path fill="none" stroke="#63b8ff" d="M163,-54.75C163,-47.8 163,-37.85 163,-29.13"/>
<polygon fill="#63b8ff" stroke="#63b8ff" points="166.5,-29.09 163,-19.09 159.5,-29.09 166.5,-29.09"/>
</a>
</g>
</g>
<!-- Node11&#45;&gt;Node6 -->
<g id="edge16_Node000011_Node000006" class="edge">
<title>Node11&#45;&gt;Node6</title>
<g id="a_edge16_Node000011_Node000006"><a xlink:title=" ">
<path fill="none" stroke="#63b8ff" d="M326.62,-109.94C331.06,-101.2 337.45,-87.09 340,-74 343,-58.59 338.61,-41.18 333.97,-28.5"/>
<polygon fill="#63b8ff" stroke="#63b8ff" points="337.17,-27.06 330.18,-19.1 330.68,-29.68 337.17,-27.06"/>
</a>
</g>
</g>
<!-- Node11&#45;&gt;Node9 -->
<g id="edge17_Node000011_Node000009" class="edge">
<title>Node11&#45;&gt;Node9</title>
<g id="a_edge17_Node000011_Node000009"><a xlink:title=" ">
<path fill="none" stroke="#63b8ff" d="M296.45,-109.98C269.88,-101.13 228.06,-87.19 198.33,-77.28"/>
<polygon fill="#63b8ff" stroke="#63b8ff" points="199.34,-73.92 188.75,-74.08 197.13,-80.56 199.34,-73.92"/>
</a>
</g>
</g>
<!-- Node12&#45;&gt;Node6 -->
<g id="edge19_Node000012_Node000006" class="edge">
<title>Node12&#45;&gt;Node6</title>
<g id="a_edge19_Node000012_Node000006"><a xlink:title=" ">
<path fill="none" stroke="#63b8ff" d="M458.37,-109.76C449.55,-96.58 431.34,-71.41 411,-55 394.74,-41.89 374.02,-30.94 357.1,-23.19"/>
<polygon fill="#63b8ff" stroke="#63b8ff" points="358.21,-19.85 347.65,-19 355.37,-26.25 358.21,-19.85"/>
</a>
</g>
</g>
<!-- Node13&#45;&gt;Node4 -->
<g id="edge22_Node000013_Node000004" class="edge">
<title>Node13&#45;&gt;Node4</title>
<g id="a_edge22_Node000013_Node000004"><a xlink:title=" ">
<path fill="none" stroke="#63b8ff" d="M60.22,-54.75C55.38,-47.42 48.32,-36.73 42.36,-27.7"/>
<polygon fill="#63b8ff" stroke="#63b8ff" points="45.1,-25.5 36.67,-19.09 39.26,-29.36 45.1,-25.5"/>
</a>
</g>
</g>
<!-- Node13&#45;&gt;Node6 -->
<g id="edge21_Node000013_Node000006" class="edge">
<title>Node13&#45;&gt;Node6</title>
<g id="a_edge21_Node000013_Node000006"><a xlink:title=" ">
<path fill="none" stroke="#63b8ff" d="M107.77,-54.98C158.06,-44.73 241.69,-27.69 289.49,-17.94"/>
<polygon fill="#63b8ff" stroke="#63b8ff" points="290.31,-21.35 299.41,-15.92 288.91,-14.49 290.31,-21.35"/>
</a>
</g>
</g>
<!-- Node14&#45;&gt;Node6 -->
<g id="edge24_Node000014_Node000006" class="edge">
<title>Node14&#45;&gt;Node6</title>
<g id="a_edge24_Node000014_Node000006"><a xlink:title=" ">
<path fill="none" stroke="#63b8ff" d="M520.6,-164.64C525.23,-151.75 531.6,-127.43 522,-110 489.75,-51.46 409.88,-26.45 362.65,-16.49"/>
<polygon fill="#63b8ff" stroke="#63b8ff" points="363.3,-13.05 352.81,-14.53 361.94,-19.91 363.3,-13.05"/>
</a>
</g>
</g>
</g>
</svg>
