<?xml version="1.0" encoding="UTF-8" standalone="no"?>
<!DOCTYPE svg PUBLIC "-//W3C//DTD SVG 1.1//EN"
 "http://www.w3.org/Graphics/SVG/1.1/DTD/svg11.dtd">
<!-- Generated by graphviz version 2.43.0 (0)
 -->
<!-- Title: drivers/adc/pulsar_adc/pulsar_adc.c Pages: 1 -->
<svg width="892pt" height="313pt"
 viewBox="0.00 0.00 891.66 313.00" xmlns="http://www.w3.org/2000/svg" xmlns:xlink="http://www.w3.org/1999/xlink">
<g id="graph0" class="graph" transform="scale(1 1) rotate(0) translate(4 309)">
<title>drivers/adc/pulsar_adc/pulsar_adc.c</title>
<!-- Node1 -->
<g id="Node000001" class="node">
<title>Node1</title>
<g id="a_Node000001"><a xlink:title="Implementation of pulsar_adc Driver.">
<polygon fill="#999999" stroke="#666666" points="302.66,-305 198.66,-305 198.66,-275 302.66,-275 302.66,-305"/>
<text text-anchor="start" x="206.66" y="-293" font-family="Helvetica,sans-Serif" font-size="10.00">drivers/adc/pulsar</text>
<text text-anchor="middle" x="250.66" y="-282" font-family="Helvetica,sans-Serif" font-size="10.00">_adc/pulsar_adc.c</text>
</a>
</g>
</g>
<!-- Node2 -->
<g id="Node000002" class="node">
<title>Node2</title>
<g id="a_Node000002"><a xlink:title=" ">
<polygon fill="#e0e0e0" stroke="#999999" points="157.66,-184 107.66,-184 107.66,-165 157.66,-165 157.66,-184"/>
<text text-anchor="middle" x="132.66" y="-172" font-family="Helvetica,sans-Serif" font-size="10.00">stdio.h</text>
</a>
</g>
</g>
<!-- Node1&#45;&gt;Node2 -->
<g id="edge1_Node000001_Node000002" class="edge">
<title>Node1&#45;&gt;Node2</title>
<g id="a_edge1_Node000001_Node000002"><a xlink:title=" ">
<path fill="none" stroke="#63b8ff" d="M212.27,-274.83C194.37,-266.63 173.92,-254.78 159.66,-239 148.12,-226.24 141.03,-207.81 137.03,-194.09"/>
<polygon fill="#63b8ff" stroke="#63b8ff" points="140.38,-193.08 134.45,-184.3 133.61,-194.86 140.38,-193.08"/>
</a>
</g>
</g>
<!-- Node3 -->
<g id="Node000003" class="node">
<title>Node3</title>
<g id="a_Node000003"><a xlink:title=" ">
<polygon fill="#e0e0e0" stroke="#999999" points="97.16,-19 44.16,-19 44.16,0 97.16,0 97.16,-19"/>
<text text-anchor="middle" x="70.66" y="-7" font-family="Helvetica,sans-Serif" font-size="10.00">stdlib.h</text>
</a>
</g>
</g>
<!-- Node1&#45;&gt;Node3 -->
<g id="edge2_Node000001_Node000003" class="edge">
<title>Node1&#45;&gt;Node3</title>
<g id="a_edge2_Node000001_Node000003"><a xlink:title=" ">
<path fill="none" stroke="#63b8ff" d="M198.63,-283.88C138.72,-276.96 45.26,-262.69 19.66,-239 -1.97,-218.99 0.66,-204.96 0.66,-175.5 0.66,-175.5 0.66,-175.5 0.66,-118.5 0.66,-80.43 31.66,-45.19 52.4,-25.89"/>
<polygon fill="#63b8ff" stroke="#63b8ff" points="54.9,-28.34 60.02,-19.07 50.24,-23.13 54.9,-28.34"/>
</a>
</g>
</g>
<!-- Node4 -->
<g id="Node000004" class="node">
<title>Node4</title>
<g id="a_Node000004"><a xlink:title=" ">
<polygon fill="#e0e0e0" stroke="#999999" points="319.66,-19 257.66,-19 257.66,0 319.66,0 319.66,-19"/>
<text text-anchor="middle" x="288.66" y="-7" font-family="Helvetica,sans-Serif" font-size="10.00">stdbool.h</text>
</a>
</g>
</g>
<!-- Node1&#45;&gt;Node4 -->
<g id="edge3_Node000001_Node000004" class="edge">
<title>Node1&#45;&gt;Node4</title>
<g id="a_edge3_Node000001_Node000004"><a xlink:title=" ">
<path fill="none" stroke="#63b8ff" d="M252.59,-274.81C258.91,-228.54 278.9,-82.03 286.07,-29.49"/>
<polygon fill="#63b8ff" stroke="#63b8ff" points="289.58,-29.64 287.46,-19.26 282.64,-28.69 289.58,-29.64"/>
</a>
</g>
</g>
<!-- Node5 -->
<g id="Node000005" class="node">
<title>Node5</title>
<g id="a_Node000005"><a xlink:title=" ">
<polygon fill="#e0e0e0" stroke="#999999" points="222.16,-239 169.16,-239 169.16,-220 222.16,-220 222.16,-239"/>
<text text-anchor="middle" x="195.66" y="-227" font-family="Helvetica,sans-Serif" font-size="10.00">string.h</text>
</a>
</g>
</g>
<!-- Node1&#45;&gt;Node5 -->
<g id="edge4_Node000001_Node000005" class="edge">
<title>Node1&#45;&gt;Node5</title>
<g id="a_edge4_Node000001_Node000005"><a xlink:title=" ">
<path fill="none" stroke="#63b8ff" d="M237.34,-274.84C229.36,-266.35 219.18,-255.52 210.88,-246.69"/>
<polygon fill="#63b8ff" stroke="#63b8ff" points="213.3,-244.15 203.9,-239.27 208.2,-248.95 213.3,-244.15"/>
</a>
</g>
</g>
<!-- Node6 -->
<g id="Node000006" class="node">
<title>Node6</title>
<g id="a_Node000006"><a xlink:href="pulsar__adc_8h.html" target="_top" xlink:title="Header file for pulsar_adc Driver.">
<polygon fill="white" stroke="#666666" points="428.66,-239 350.66,-239 350.66,-220 428.66,-220 428.66,-239"/>
<text text-anchor="middle" x="389.66" y="-227" font-family="Helvetica,sans-Serif" font-size="10.00">pulsar_adc.h</text>
</a>
</g>
</g>
<!-- Node1&#45;&gt;Node6 -->
<g id="edge5_Node000001_Node000006" class="edge">
<title>Node1&#45;&gt;Node6</title>
<g id="a_edge5_Node000001_Node000006"><a xlink:title=" ">
<path fill="none" stroke="#63b8ff" d="M283.95,-274.99C307.04,-265.27 337.52,-252.44 359.82,-243.06"/>
<polygon fill="#63b8ff" stroke="#63b8ff" points="361.27,-246.24 369.13,-239.14 358.55,-239.79 361.27,-246.24"/>
</a>
</g>
</g>
<!-- Node7 -->
<g id="Node000007" class="node">
<title>Node7</title>
<g id="a_Node000007"><a xlink:href="spi__engine_8h.html" target="_top" xlink:title=" ">
<polygon fill="white" stroke="#666666" points="500.66,-184 422.66,-184 422.66,-165 500.66,-165 500.66,-184"/>
<text text-anchor="middle" x="461.66" y="-172" font-family="Helvetica,sans-Serif" font-size="10.00">spi_engine.h</text>
</a>
</g>
</g>
<!-- Node1&#45;&gt;Node7 -->
<g id="edge28_Node000001_Node000007" class="edge">
<title>Node1&#45;&gt;Node7</title>
<g id="a_edge28_Node000001_Node000007"><a xlink:title=" ">
<path fill="none" stroke="#63b8ff" d="M302.73,-287.63C344.03,-283.86 400.77,-272.37 437.66,-239 450.34,-227.52 456.36,-208.64 459.19,-194.44"/>
<polygon fill="#63b8ff" stroke="#63b8ff" points="462.69,-194.72 460.84,-184.29 455.78,-193.6 462.69,-194.72"/>
</a>
</g>
</g>
<!-- Node11 -->
<g id="Node000011" class="node">
<title>Node11</title>
<g id="a_Node000011"><a xlink:href="no__os__util_8h.html" target="_top" xlink:title="Header file of utility functions.">
<polygon fill="white" stroke="#666666" points="392.16,-74 317.16,-74 317.16,-55 392.16,-55 392.16,-74"/>
<text text-anchor="middle" x="354.66" y="-62" font-family="Helvetica,sans-Serif" font-size="10.00">no_os_util.h</text>
</a>
</g>
</g>
<!-- Node1&#45;&gt;Node11 -->
<g id="edge34_Node000001_Node000011" class="edge">
<title>Node1&#45;&gt;Node11</title>
<g id="a_edge34_Node000001_Node000011"><a xlink:title=" ">
<path fill="none" stroke="#63b8ff" d="M257.32,-274.68C275.54,-235.52 326.18,-126.69 346.28,-83.5"/>
<polygon fill="#63b8ff" stroke="#63b8ff" points="349.55,-84.77 350.59,-74.23 343.2,-81.82 349.55,-84.77"/>
</a>
</g>
</g>
<!-- Node16 -->
<g id="Node000016" class="node">
<title>Node16</title>
<g id="a_Node000016"><a xlink:href="no__os__error_8h.html" target="_top" xlink:title="Error codes definition.">
<polygon fill="white" stroke="#666666" points="616.66,-239 534.66,-239 534.66,-220 616.66,-220 616.66,-239"/>
<text text-anchor="middle" x="575.66" y="-227" font-family="Helvetica,sans-Serif" font-size="10.00">no_os_error.h</text>
</a>
</g>
</g>
<!-- Node1&#45;&gt;Node16 -->
<g id="edge29_Node000001_Node000016" class="edge">
<title>Node1&#45;&gt;Node16</title>
<g id="a_edge29_Node000001_Node000016"><a xlink:title=" ">
<path fill="none" stroke="#63b8ff" d="M302.87,-279.6C363.77,-268.64 463.78,-250.64 524.3,-239.74"/>
<polygon fill="#63b8ff" stroke="#63b8ff" points="525.17,-243.14 534.39,-237.93 523.93,-236.25 525.17,-243.14"/>
</a>
</g>
</g>
<!-- Node18 -->
<g id="Node000018" class="node">
<title>Node18</title>
<g id="a_Node000018"><a xlink:href="no__os__alloc_8h.html" target="_top" xlink:title=" ">
<polygon fill="white" stroke="#666666" points="112.16,-239 29.16,-239 29.16,-220 112.16,-220 112.16,-239"/>
<text text-anchor="middle" x="70.66" y="-227" font-family="Helvetica,sans-Serif" font-size="10.00">no_os_alloc.h</text>
</a>
</g>
</g>
<!-- Node1&#45;&gt;Node18 -->
<g id="edge31_Node000001_Node000018" class="edge">
<title>Node1&#45;&gt;Node18</title>
<g id="a_edge31_Node000001_Node000018"><a xlink:title=" ">
<path fill="none" stroke="#63b8ff" d="M207.54,-274.99C176.75,-264.98 135.79,-251.67 106.72,-242.22"/>
<polygon fill="#63b8ff" stroke="#63b8ff" points="107.57,-238.82 96.97,-239.05 105.4,-245.47 107.57,-238.82"/>
</a>
</g>
</g>
<!-- Node6&#45;&gt;Node4 -->
<g id="edge6_Node000006_Node000004" class="edge">
<title>Node6&#45;&gt;Node4</title>
<g id="a_edge6_Node000006_Node000004"><a xlink:title=" ">
<path fill="none" stroke="#63b8ff" d="M382.01,-219.91C362.79,-197.7 312.57,-135.8 292.66,-74 287.99,-59.53 287.19,-42.25 287.44,-29.38"/>
<polygon fill="#63b8ff" stroke="#63b8ff" points="290.94,-29.52 287.86,-19.38 283.94,-29.22 290.94,-29.52"/>
</a>
</g>
</g>
<!-- Node6&#45;&gt;Node7 -->
<g id="edge7_Node000006_Node000007" class="edge">
<title>Node6&#45;&gt;Node7</title>
<g id="a_edge7_Node000006_Node000007"><a xlink:title=" ">
<path fill="none" stroke="#63b8ff" d="M401.22,-219.98C412.08,-212 428.54,-199.88 441.54,-190.31"/>
<polygon fill="#63b8ff" stroke="#63b8ff" points="443.9,-192.92 449.88,-184.17 439.75,-187.28 443.9,-192.92"/>
</a>
</g>
</g>
<!-- Node13 -->
<g id="Node000013" class="node">
<title>Node13</title>
<g id="a_Node000013"><a xlink:href="clk__axi__clkgen_8h.html" target="_top" xlink:title="Driver for the Analog Devices AXI CLKGEN.">
<polygon fill="white" stroke="#666666" points="883.66,-129 785.66,-129 785.66,-110 883.66,-110 883.66,-129"/>
<text text-anchor="middle" x="834.66" y="-117" font-family="Helvetica,sans-Serif" font-size="10.00">clk_axi_clkgen.h</text>
</a>
</g>
</g>
<!-- Node6&#45;&gt;Node13 -->
<g id="edge21_Node000006_Node000013" class="edge">
<title>Node6&#45;&gt;Node13</title>
<g id="a_edge21_Node000006_Node000013"><a xlink:title=" ">
<path fill="none" stroke="#63b8ff" d="M424.9,-219.94C456.63,-211.87 504.32,-198.83 544.66,-184 563.89,-176.93 567.09,-171.08 586.66,-165 621.03,-154.32 713.72,-138.98 775.52,-129.39"/>
<polygon fill="#63b8ff" stroke="#63b8ff" points="776.19,-132.82 785.54,-127.84 775.13,-125.9 776.19,-132.82"/>
</a>
</g>
</g>
<!-- Node14 -->
<g id="Node000014" class="node">
<title>Node14</title>
<g id="a_Node000014"><a xlink:href="no__os__pwm_8h.html" target="_top" xlink:title="Header file of PWM Interface.">
<polygon fill="white" stroke="#666666" points="493.16,-74 410.16,-74 410.16,-55 493.16,-55 493.16,-74"/>
<text text-anchor="middle" x="451.66" y="-62" font-family="Helvetica,sans-Serif" font-size="10.00">no_os_pwm.h</text>
</a>
</g>
</g>
<!-- Node6&#45;&gt;Node14 -->
<g id="edge23_Node000006_Node000014" class="edge">
<title>Node6&#45;&gt;Node14</title>
<g id="a_edge23_Node000006_Node000014"><a xlink:title=" ">
<path fill="none" stroke="#63b8ff" d="M388.15,-219.86C385.03,-199.42 379.63,-147.08 398.66,-110 405,-97.64 416.42,-87.37 427.05,-79.82"/>
<polygon fill="#63b8ff" stroke="#63b8ff" points="429.24,-82.56 435.65,-74.13 425.38,-76.72 429.24,-82.56"/>
</a>
</g>
</g>
<!-- Node15 -->
<g id="Node000015" class="node">
<title>Node15</title>
<g id="a_Node000015"><a xlink:href="no__os__gpio_8h.html" target="_top" xlink:title="Header file of GPIO Interface.">
<polygon fill="white" stroke="#666666" points="767.66,-129 687.66,-129 687.66,-110 767.66,-110 767.66,-129"/>
<text text-anchor="middle" x="727.66" y="-117" font-family="Helvetica,sans-Serif" font-size="10.00">no_os_gpio.h</text>
</a>
</g>
</g>
<!-- Node6&#45;&gt;Node15 -->
<g id="edge26_Node000006_Node000015" class="edge">
<title>Node6&#45;&gt;Node15</title>
<g id="a_edge26_Node000006_Node000015"><a xlink:title=" ">
<path fill="none" stroke="#63b8ff" d="M414.19,-219.9C438.56,-211.24 476.92,-197.29 509.66,-184 529.02,-176.14 532.91,-171.82 552.66,-165 593.92,-150.75 642.07,-138.84 677.41,-130.93"/>
<polygon fill="#63b8ff" stroke="#63b8ff" points="678.47,-134.28 687.48,-128.71 676.96,-127.45 678.47,-134.28"/>
</a>
</g>
</g>
<!-- Node8 -->
<g id="Node000008" class="node">
<title>Node8</title>
<g id="a_Node000008"><a xlink:title=" ">
<polygon fill="#e0e0e0" stroke="#999999" points="645.16,-19 592.16,-19 592.16,0 645.16,0 645.16,-19"/>
<text text-anchor="middle" x="618.66" y="-7" font-family="Helvetica,sans-Serif" font-size="10.00">stdint.h</text>
</a>
</g>
</g>
<!-- Node7&#45;&gt;Node8 -->
<g id="edge8_Node000007_Node000008" class="edge">
<title>Node7&#45;&gt;Node8</title>
<g id="a_edge8_Node000007_Node000008"><a xlink:title=" ">
<path fill="none" stroke="#63b8ff" d="M500.63,-164.94C546.37,-154.6 617.22,-137.53 626.66,-129 652.02,-106.08 657.39,-87.77 647.66,-55 644.68,-44.98 638.65,-35.11 632.86,-27.22"/>
<polygon fill="#63b8ff" stroke="#63b8ff" points="635.53,-24.95 626.6,-19.25 630.03,-29.28 635.53,-24.95"/>
</a>
</g>
</g>
<!-- Node9 -->
<g id="Node000009" class="node">
<title>Node9</title>
<g id="a_Node000009"><a xlink:href="spi__engine__private_8h.html" target="_top" xlink:title=" ">
<polygon fill="white" stroke="#666666" points="525.66,-129 407.66,-129 407.66,-110 525.66,-110 525.66,-129"/>
<text text-anchor="middle" x="466.66" y="-117" font-family="Helvetica,sans-Serif" font-size="10.00">spi_engine_private.h</text>
</a>
</g>
</g>
<!-- Node7&#45;&gt;Node9 -->
<g id="edge9_Node000007_Node000009" class="edge">
<title>Node7&#45;&gt;Node9</title>
<g id="a_edge9_Node000007_Node000009"><a xlink:title=" ">
<path fill="none" stroke="#63b8ff" d="M462.48,-164.75C463.14,-157.8 464.08,-147.85 464.9,-139.13"/>
<polygon fill="#63b8ff" stroke="#63b8ff" points="468.39,-139.37 465.85,-129.09 461.42,-138.72 468.39,-139.37"/>
</a>
</g>
</g>
<!-- Node12 -->
<g id="Node000012" class="node">
<title>Node12</title>
<g id="a_Node000012"><a xlink:href="axi__dmac_8h.html" target="_top" xlink:title="Driver for the Analog Devices AXI&#45;DMAC core.">
<polygon fill="white" stroke="#666666" points="617.16,-129 544.16,-129 544.16,-110 617.16,-110 617.16,-129"/>
<text text-anchor="middle" x="580.66" y="-117" font-family="Helvetica,sans-Serif" font-size="10.00">axi_dmac.h</text>
</a>
</g>
</g>
<!-- Node7&#45;&gt;Node12 -->
<g id="edge18_Node000007_Node000012" class="edge">
<title>Node7&#45;&gt;Node12</title>
<g id="a_edge18_Node000007_Node000012"><a xlink:title=" ">
<path fill="none" stroke="#63b8ff" d="M480.77,-164.98C500,-156.42 529.89,-143.11 551.96,-133.28"/>
<polygon fill="#63b8ff" stroke="#63b8ff" points="553.48,-136.44 561.19,-129.17 550.63,-130.04 553.48,-136.44"/>
</a>
</g>
</g>
<!-- Node9&#45;&gt;Node4 -->
<g id="edge11_Node000009_Node000004" class="edge">
<title>Node9&#45;&gt;Node4</title>
<g id="a_edge11_Node000009_Node000004"><a xlink:title=" ">
<path fill="none" stroke="#63b8ff" d="M407.29,-115.3C374.34,-110.52 334.84,-99.4 308.66,-74 296.61,-62.32 291.79,-43.46 289.88,-29.33"/>
<polygon fill="#63b8ff" stroke="#63b8ff" points="293.35,-28.84 288.89,-19.23 286.39,-29.52 293.35,-28.84"/>
</a>
</g>
</g>
<!-- Node9&#45;&gt;Node8 -->
<g id="edge10_Node000009_Node000008" class="edge">
<title>Node9&#45;&gt;Node8</title>
<g id="a_edge10_Node000009_Node000008"><a xlink:title=" ">
<path fill="none" stroke="#63b8ff" d="M475.76,-109.67C489.28,-96.81 515.75,-72.55 540.66,-55 557.12,-43.4 576.83,-32.17 592.32,-23.9"/>
<polygon fill="#63b8ff" stroke="#63b8ff" points="594.13,-26.9 601.35,-19.15 590.87,-20.71 594.13,-26.9"/>
</a>
</g>
</g>
<!-- Node10 -->
<g id="Node000010" class="node">
<title>Node10</title>
<g id="a_Node000010"><a xlink:href="no__os__spi_8h.html" target="_top" xlink:title="Header file of SPI Interface.">
<polygon fill="white" stroke="#666666" points="623.66,-74 549.66,-74 549.66,-55 623.66,-55 623.66,-74"/>
<text text-anchor="middle" x="586.66" y="-62" font-family="Helvetica,sans-Serif" font-size="10.00">no_os_spi.h</text>
</a>
</g>
</g>
<!-- Node9&#45;&gt;Node10 -->
<g id="edge12_Node000009_Node000010" class="edge">
<title>Node9&#45;&gt;Node10</title>
<g id="a_edge12_Node000009_Node000010"><a xlink:title=" ">
<path fill="none" stroke="#63b8ff" d="M485.94,-109.98C505.33,-101.42 535.46,-88.11 557.72,-78.28"/>
<polygon fill="#63b8ff" stroke="#63b8ff" points="559.29,-81.41 567.02,-74.17 556.46,-75.01 559.29,-81.41"/>
</a>
</g>
</g>
<!-- Node9&#45;&gt;Node11 -->
<g id="edge14_Node000009_Node000011" class="edge">
<title>Node9&#45;&gt;Node11</title>
<g id="a_edge14_Node000009_Node000011"><a xlink:title=" ">
<path fill="none" stroke="#63b8ff" d="M448.66,-109.98C430.72,-101.5 402.94,-88.35 382.22,-78.54"/>
<polygon fill="#63b8ff" stroke="#63b8ff" points="383.51,-75.28 372.98,-74.17 380.52,-81.61 383.51,-75.28"/>
</a>
</g>
</g>
<!-- Node10&#45;&gt;Node8 -->
<g id="edge13_Node000010_Node000008" class="edge">
<title>Node10&#45;&gt;Node8</title>
<g id="a_edge13_Node000010_Node000008"><a xlink:title=" ">
<path fill="none" stroke="#63b8ff" d="M591.94,-54.75C596.37,-47.42 602.82,-36.73 608.27,-27.7"/>
<polygon fill="#63b8ff" stroke="#63b8ff" points="611.3,-29.46 613.47,-19.09 605.3,-25.84 611.3,-29.46"/>
</a>
</g>
</g>
<!-- Node11&#45;&gt;Node3 -->
<g id="edge16_Node000011_Node000003" class="edge">
<title>Node11&#45;&gt;Node3</title>
<g id="a_edge16_Node000011_Node000003"><a xlink:title=" ">
<path fill="none" stroke="#63b8ff" d="M316.94,-56.46C262.23,-46.25 161.47,-27.45 107.34,-17.35"/>
<polygon fill="#63b8ff" stroke="#63b8ff" points="107.95,-13.9 97.48,-15.51 106.67,-20.78 107.95,-13.9"/>
</a>
</g>
</g>
<!-- Node11&#45;&gt;Node4 -->
<g id="edge17_Node000011_Node000004" class="edge">
<title>Node11&#45;&gt;Node4</title>
<g id="a_edge17_Node000011_Node000004"><a xlink:title=" ">
<path fill="none" stroke="#63b8ff" d="M344.05,-54.98C334.2,-47.07 319.3,-35.11 307.44,-25.58"/>
<polygon fill="#63b8ff" stroke="#63b8ff" points="309.44,-22.7 299.45,-19.17 305.06,-28.16 309.44,-22.7"/>
</a>
</g>
</g>
<!-- Node11&#45;&gt;Node8 -->
<g id="edge15_Node000011_Node000008" class="edge">
<title>Node11&#45;&gt;Node8</title>
<g id="a_edge15_Node000011_Node000008"><a xlink:title=" ">
<path fill="none" stroke="#63b8ff" d="M392.2,-55.96C442.7,-45.82 531.94,-27.91 581.99,-17.86"/>
<polygon fill="#63b8ff" stroke="#63b8ff" points="582.93,-21.24 592.05,-15.84 581.55,-14.38 582.93,-21.24"/>
</a>
</g>
</g>
<!-- Node12&#45;&gt;Node8 -->
<g id="edge19_Node000012_Node000008" class="edge">
<title>Node12&#45;&gt;Node8</title>
<g id="a_edge19_Node000012_Node000008"><a xlink:title=" ">
<path fill="none" stroke="#63b8ff" d="M596.68,-109.95C609.07,-102.35 625.3,-89.97 632.66,-74 639.36,-59.44 634.32,-41.49 628.5,-28.39"/>
<polygon fill="#63b8ff" stroke="#63b8ff" points="631.46,-26.48 623.87,-19.09 625.19,-29.6 631.46,-26.48"/>
</a>
</g>
</g>
<!-- Node12&#45;&gt;Node11 -->
<g id="edge20_Node000012_Node000011" class="edge">
<title>Node12&#45;&gt;Node11</title>
<g id="a_edge20_Node000012_Node000011"><a xlink:title=" ">
<path fill="none" stroke="#63b8ff" d="M544.34,-109.98C505.42,-100.86 443.5,-86.33 401.06,-76.38"/>
<polygon fill="#63b8ff" stroke="#63b8ff" points="401.79,-72.96 391.25,-74.08 400.19,-79.77 401.79,-72.96"/>
</a>
</g>
</g>
<!-- Node13&#45;&gt;Node8 -->
<g id="edge22_Node000013_Node000008" class="edge">
<title>Node13&#45;&gt;Node8</title>
<g id="a_edge22_Node000013_Node000008"><a xlink:title=" ">
<path fill="none" stroke="#63b8ff" d="M820.78,-109.97C799.88,-97.27 758.91,-72.96 722.66,-55 698.65,-43.11 670.7,-31.25 649.83,-22.78"/>
<polygon fill="#63b8ff" stroke="#63b8ff" points="651.07,-19.5 640.49,-19.01 648.45,-26 651.07,-19.5"/>
</a>
</g>
</g>
<!-- Node14&#45;&gt;Node4 -->
<g id="edge25_Node000014_Node000004" class="edge">
<title>Node14&#45;&gt;Node4</title>
<g id="a_edge25_Node000014_Node000004"><a xlink:title=" ">
<path fill="none" stroke="#63b8ff" d="M425.47,-54.98C398.22,-46.13 355.35,-32.19 324.87,-22.28"/>
<polygon fill="#63b8ff" stroke="#63b8ff" points="325.64,-18.85 315.05,-19.08 323.48,-25.5 325.64,-18.85"/>
</a>
</g>
</g>
<!-- Node14&#45;&gt;Node8 -->
<g id="edge24_Node000014_Node000008" class="edge">
<title>Node14&#45;&gt;Node8</title>
<g id="a_edge24_Node000014_Node000008"><a xlink:title=" ">
<path fill="none" stroke="#63b8ff" d="M478.49,-54.98C506.61,-46.06 550.96,-31.98 582.23,-22.06"/>
<polygon fill="#63b8ff" stroke="#63b8ff" points="583.42,-25.36 591.89,-18.99 581.3,-18.68 583.42,-25.36"/>
</a>
</g>
</g>
<!-- Node15&#45;&gt;Node8 -->
<g id="edge27_Node000015_Node000008" class="edge">
<title>Node15&#45;&gt;Node8</title>
<g id="a_edge27_Node000015_Node000008"><a xlink:title=" ">
<path fill="none" stroke="#63b8ff" d="M726.36,-109.67C724.01,-96.38 717.88,-71.06 703.66,-55 690.64,-40.3 671.59,-29.71 654.82,-22.55"/>
<polygon fill="#63b8ff" stroke="#63b8ff" points="655.86,-19.2 645.28,-18.73 653.26,-25.69 655.86,-19.2"/>
</a>
</g>
</g>
<!-- Node17 -->
<g id="Node000017" class="node">
<title>Node17</title>
<g id="a_Node000017"><a xlink:href="errno_8h.html" target="_top" xlink:title="Error macro definition for ARM Compiler.">
<polygon fill="white" stroke="#666666" points="646.16,-184 595.16,-184 595.16,-165 646.16,-165 646.16,-184"/>
<text text-anchor="middle" x="620.66" y="-172" font-family="Helvetica,sans-Serif" font-size="10.00">errno.h</text>
</a>
</g>
</g>
<!-- Node16&#45;&gt;Node17 -->
<g id="edge30_Node000016_Node000017" class="edge">
<title>Node16&#45;&gt;Node17</title>
<g id="a_edge30_Node000016_Node000017"><a xlink:title=" ">
<path fill="none" stroke="#63b8ff" d="M583.09,-219.75C589.51,-212.18 598.96,-201.05 606.78,-191.84"/>
<polygon fill="#63b8ff" stroke="#63b8ff" points="609.56,-193.98 613.36,-184.09 604.22,-189.45 609.56,-193.98"/>
</a>
</g>
</g>
<!-- Node18&#45;&gt;Node2 -->
<g id="edge32_Node000018_Node000002" class="edge">
<title>Node18&#45;&gt;Node2</title>
<g id="a_edge32_Node000018_Node000002"><a xlink:title=" ">
<path fill="none" stroke="#63b8ff" d="M80.62,-219.98C89.78,-212.15 103.59,-200.34 114.68,-190.86"/>
<polygon fill="#63b8ff" stroke="#63b8ff" points="117.19,-193.33 122.51,-184.17 112.64,-188.01 117.19,-193.33"/>
</a>
</g>
</g>
<!-- Node18&#45;&gt;Node3 -->
<g id="edge33_Node000018_Node000003" class="edge">
<title>Node18&#45;&gt;Node3</title>
<g id="a_edge33_Node000018_Node000003"><a xlink:title=" ">
<path fill="none" stroke="#63b8ff" d="M70.66,-219.95C70.66,-187.95 70.66,-74.68 70.66,-29.4"/>
<polygon fill="#63b8ff" stroke="#63b8ff" points="74.16,-29.22 70.66,-19.22 67.16,-29.22 74.16,-29.22"/>
</a>
</g>
</g>
</g>
</svg>
