<?xml version="1.0" encoding="UTF-8" standalone="no"?>
<!DOCTYPE svg PUBLIC "-//W3C//DTD SVG 1.1//EN"
 "http://www.w3.org/Graphics/SVG/1.1/DTD/svg11.dtd">
<!-- Generated by graphviz version 2.43.0 (0)
 -->
<!-- Title: drivers/adc/pulsar_adc/pulsar_adc.h Pages: 1 -->
<!--zoomable 192 -->

<svg id="main" version="1.1" xmlns="http://www.w3.org/2000/svg" xmlns:xlink="http://www.w3.org/1999/xlink" xml:space="preserve" onload="init(evt)">

<style type="text/css"><![CDATA[
.node, .edge {opacity: 0.7;}
.node.selected, .edge.selected {opacity: 1;}
.edge:hover path { stroke: red; }
.edge:hover polygon { stroke: red; fill: red; }
]]></style>

<defs>
  <circle id="rim" cx="0" cy="0" r="7"/>
  <circle id="rim2" cx="0" cy="0" r="3.5"/>
  <g id="zoomPlus">
    <use xlink:href="#rim" fill="#404040"><set attributeName="fill" to="#808080" begin="zoomplus.mouseover" end="zoomplus.mouseout"/></use>
    <path d="M-4,0h8M0,-4v8" fill="none" stroke="white" stroke-width="1.5" pointer-events="none"/>
  </g>
  <g id="zoomMin">
    <use xlink:href="#rim" fill="#404040"><set attributeName="fill" to="#808080" begin="zoomminus.mouseover" end="zoomminus.mouseout"/></use>
    <path d="M-4,0h8" fill="none" stroke="white" stroke-width="1.5" pointer-events="none"/>
  </g>
  <g id="arrowUp" transform="translate(30 24)">
    <use xlink:href="#rim"/>
    <path pointer-events="none" fill="none" stroke="white" stroke-width="1.5" d="M0,-3.0v7 M-2.5,-0.5L0,-3.0L2.5,-0.5"/>
  </g>
  <g id="arrowRight" transform="rotate(90) translate(36 -43)">
    <use xlink:href="#rim"/>
    <path pointer-events="none" fill="none" stroke="white" stroke-width="1.5" d="M0,-3.0v7 M-2.5,-0.5L0,-3.0L2.5,-0.5"/>
  </g>
  <g id="arrowDown" transform="rotate(180) translate(-30 -48)">
    <use xlink:href="#rim"/>
    <path pointer-events="none" fill="none" stroke="white" stroke-width="1.5" d="M0,-3.0v7 M-2.5,-0.5L0,-3.0L2.5,-0.5"/>
  </g>
  <g id="arrowLeft" transform="rotate(270) translate(-36 17)">
    <use xlink:href="#rim"/>
    <path pointer-events="none" fill="none" stroke="white" stroke-width="1.5" d="M0,-3.0v7 M-2.5,-0.5L0,-3.0L2.5,-0.5"/>
  </g>
  <g id="resetDef">
    <use xlink:href="#rim2" fill="#404040"><set attributeName="fill" to="#808080" begin="reset.mouseover" end="reset.mouseout"/></use>
  </g>
</defs>
<script type="application/ecmascript">
var viewWidth = 751;
var viewHeight = 192;
var sectionId = 'dynsection-1';
</script>
<script type="application/ecmascript" xlink:href="svg.min.js"/>
<svg id="graph" class="graph">
<g id="viewport">
<title>drivers/adc/pulsar_adc/pulsar_adc.h</title>
<!-- Node1 -->
<g id="Node000001" class="node">
<title>Node1</title>
<g id="a_Node000001"><a xlink:title="Header file for pulsar_adc Driver.">
<polygon fill="#999999" stroke="#666666" points="358,-184 254,-184 254,-154 358,-154 358,-184"/>
<text text-anchor="start" x="262" y="-172" font-family="Helvetica,sans-Serif" font-size="10.00">drivers/adc/pulsar</text>
<text text-anchor="middle" x="306" y="-161" font-family="Helvetica,sans-Serif" font-size="10.00">_adc/pulsar_adc.h</text>
</a>
</g>
</g>
<!-- Node2 -->
<g id="Node000002" class="node">
<title>Node2</title>
<g id="a_Node000002"><a xlink:href="iio__pulsar__adc_8c.html" target="_top" xlink:title="Implementation of pulsar_adc IIO Driver.">
<polygon fill="white" stroke="#666666" points="120,-35.5 0,-35.5 0,-5.5 120,-5.5 120,-35.5"/>
<text text-anchor="start" x="8" y="-23.5" font-family="Helvetica,sans-Serif" font-size="10.00">drivers/adc/pulsar</text>
<text text-anchor="middle" x="60" y="-12.5" font-family="Helvetica,sans-Serif" font-size="10.00">_adc/iio_pulsar_adc.c</text>
</a>
</g>
</g>
<!-- Node1&#45;&gt;Node2 -->
<g id="edge1_Node000001_Node000002" class="edge">
<title>Node1&#45;&gt;Node2</title>
<g id="a_edge1_Node000001_Node000002"><a xlink:title=" ">
<path fill="none" stroke="#63b8ff" d="M243.76,-163.34C180.87,-157.23 89.8,-144.07 67,-118 46.99,-95.11 51.77,-56.35 56.3,-35.6"/>
<polygon fill="#63b8ff" stroke="#63b8ff" points="243.71,-166.85 253.99,-164.3 244.36,-159.88 243.71,-166.85"/>
</a>
</g>
</g>
<!-- Node3 -->
<g id="Node000003" class="node">
<title>Node3</title>
<g id="a_Node000003"><a xlink:href="iio__pulsar__adc_8h.html" target="_top" xlink:title="Header file for PULSAR_ADC IIO interface.">
<polygon fill="white" stroke="#666666" points="197.5,-112.5 76.5,-112.5 76.5,-82.5 197.5,-82.5 197.5,-112.5"/>
<text text-anchor="start" x="84.5" y="-100.5" font-family="Helvetica,sans-Serif" font-size="10.00">drivers/adc/pulsar</text>
<text text-anchor="middle" x="137" y="-89.5" font-family="Helvetica,sans-Serif" font-size="10.00">_adc/iio_pulsar_adc.h</text>
</a>
</g>
</g>
<!-- Node1&#45;&gt;Node3 -->
<g id="edge2_Node000001_Node000003" class="edge">
<title>Node1&#45;&gt;Node3</title>
<g id="a_edge2_Node000001_Node000003"><a xlink:title=" ">
<path fill="none" stroke="#63b8ff" d="M262.5,-150.11C234.07,-138.42 197.48,-123.37 171.15,-112.54"/>
<polygon fill="#63b8ff" stroke="#63b8ff" points="261.22,-153.37 271.8,-153.94 263.88,-146.9 261.22,-153.37"/>
</a>
</g>
</g>
<!-- Node4 -->
<g id="Node000004" class="node">
<title>Node4</title>
<g id="a_Node000004"><a xlink:href="pulsar-adc_2src_2examples_2iio__example_2iio__example_8c.html" target="_top" xlink:title="IIO example header for eval&#45;pulsar_adc project.">
<polygon fill="white" stroke="#666666" points="292,-41 144,-41 144,0 292,0 292,-41"/>
<text text-anchor="start" x="152" y="-29" font-family="Helvetica,sans-Serif" font-size="10.00">projects/pulsar&#45;adc</text>
<text text-anchor="start" x="152" y="-18" font-family="Helvetica,sans-Serif" font-size="10.00">/src/examples/iio_example</text>
<text text-anchor="middle" x="218" y="-7" font-family="Helvetica,sans-Serif" font-size="10.00">/iio_example.c</text>
</a>
</g>
</g>
<!-- Node1&#45;&gt;Node4 -->
<g id="edge10_Node000001_Node000004" class="edge">
<title>Node1&#45;&gt;Node4</title>
<g id="a_edge10_Node000001_Node000004"><a xlink:title=" ">
<path fill="none" stroke="#63b8ff" d="M274.06,-147.75C263.48,-139.65 252.5,-129.49 245,-118 229.5,-94.26 222.79,-61.63 219.96,-41.05"/>
<polygon fill="#63b8ff" stroke="#63b8ff" points="272.24,-150.75 282.39,-153.8 276.35,-145.09 272.24,-150.75"/>
</a>
</g>
</g>
<!-- Node5 -->
<g id="Node000005" class="node">
<title>Node5</title>
<g id="a_Node000005"><a xlink:href="pulsar__adc_8c.html" target="_top" xlink:title="Implementation of pulsar_adc Driver.">
<polygon fill="white" stroke="#666666" points="358,-112.5 254,-112.5 254,-82.5 358,-82.5 358,-112.5"/>
<text text-anchor="start" x="262" y="-100.5" font-family="Helvetica,sans-Serif" font-size="10.00">drivers/adc/pulsar</text>
<text text-anchor="middle" x="306" y="-89.5" font-family="Helvetica,sans-Serif" font-size="10.00">_adc/pulsar_adc.c</text>
</a>
</g>
</g>
<!-- Node1&#45;&gt;Node5 -->
<g id="edge5_Node000001_Node000005" class="edge">
<title>Node1&#45;&gt;Node5</title>
<g id="a_edge5_Node000001_Node000005"><a xlink:title=" ">
<path fill="none" stroke="#63b8ff" d="M306,-143.75C306,-133.31 306,-121.49 306,-112.54"/>
<polygon fill="#63b8ff" stroke="#63b8ff" points="302.5,-143.94 306,-153.94 309.5,-143.94 302.5,-143.94"/>
</a>
</g>
</g>
<!-- Node6 -->
<g id="Node000006" class="node">
<title>Node6</title>
<g id="a_Node000006"><a xlink:href="pulsar-adc_2src_2common_2common__data_8c.html" target="_top" xlink:title="Defines common data to be used by pulsar&#45;adc examples.">
<polygon fill="white" stroke="#666666" points="474.5,-35.5 313.5,-35.5 313.5,-5.5 474.5,-5.5 474.5,-35.5"/>
<text text-anchor="start" x="321.5" y="-23.5" font-family="Helvetica,sans-Serif" font-size="10.00">projects/pulsar&#45;adc</text>
<text text-anchor="middle" x="394" y="-12.5" font-family="Helvetica,sans-Serif" font-size="10.00">/src/common/common_data.c</text>
</a>
</g>
</g>
<!-- Node1&#45;&gt;Node6 -->
<g id="edge6_Node000001_Node000006" class="edge">
<title>Node1&#45;&gt;Node6</title>
<g id="a_edge6_Node000001_Node000006"><a xlink:title=" ">
<path fill="none" stroke="#63b8ff" d="M337.94,-147.75C348.52,-139.65 359.5,-129.49 367,-118 383.93,-92.07 390.37,-55.55 392.72,-35.7"/>
<polygon fill="#63b8ff" stroke="#63b8ff" points="335.65,-145.09 329.61,-153.8 339.76,-150.75 335.65,-145.09"/>
</a>
</g>
</g>
<!-- Node7 -->
<g id="Node000007" class="node">
<title>Node7</title>
<g id="a_Node000007"><a xlink:href="pulsar-adc_2src_2common_2common__data_8h.html" target="_top" xlink:title="Defines common data to be used by pulsar&#45;adc examples.">
<polygon fill="white" stroke="#666666" points="575.5,-112.5 414.5,-112.5 414.5,-82.5 575.5,-82.5 575.5,-112.5"/>
<text text-anchor="start" x="422.5" y="-100.5" font-family="Helvetica,sans-Serif" font-size="10.00">projects/pulsar&#45;adc</text>
<text text-anchor="middle" x="495" y="-89.5" font-family="Helvetica,sans-Serif" font-size="10.00">/src/common/common_data.h</text>
</a>
</g>
</g>
<!-- Node1&#45;&gt;Node7 -->
<g id="edge7_Node000001_Node000007" class="edge">
<title>Node1&#45;&gt;Node7</title>
<g id="a_edge7_Node000001_Node000007"><a xlink:title=" ">
<path fill="none" stroke="#63b8ff" d="M353.82,-150.42C385.72,-138.68 427.11,-123.47 456.81,-112.54"/>
<polygon fill="#63b8ff" stroke="#63b8ff" points="352.42,-147.2 344.25,-153.94 354.84,-153.77 352.42,-147.2"/>
</a>
</g>
</g>
<!-- Node8 -->
<g id="Node000008" class="node">
<title>Node8</title>
<g id="a_Node000008"><a xlink:href="pulsar-adc_2src_2examples_2basic__example_2basic__example_8c.html" target="_top" xlink:title="Implementation of IIO example for basic_demo project.">
<polygon fill="white" stroke="#666666" points="742.5,-118 593.5,-118 593.5,-77 742.5,-77 742.5,-118"/>
<text text-anchor="start" x="601.5" y="-106" font-family="Helvetica,sans-Serif" font-size="10.00">projects/pulsar&#45;adc</text>
<text text-anchor="start" x="601.5" y="-95" font-family="Helvetica,sans-Serif" font-size="10.00">/src/examples/basic</text>
<text text-anchor="middle" x="668" y="-84" font-family="Helvetica,sans-Serif" font-size="10.00">_example/basic_example.c</text>
</a>
</g>
</g>
<!-- Node1&#45;&gt;Node8 -->
<g id="edge9_Node000001_Node000008" class="edge">
<title>Node1&#45;&gt;Node8</title>
<g id="a_edge9_Node000001_Node000008"><a xlink:title=" ">
<path fill="none" stroke="#63b8ff" d="M367.97,-157.87C424.63,-148.38 510.67,-133.38 585,-118 587.75,-117.43 590.56,-116.84 593.38,-116.23"/>
<polygon fill="#63b8ff" stroke="#63b8ff" points="367.38,-154.42 358.09,-159.52 368.53,-161.32 367.38,-154.42"/>
</a>
</g>
</g>
<!-- Node3&#45;&gt;Node2 -->
<g id="edge3_Node000003_Node000002" class="edge">
<title>Node3&#45;&gt;Node2</title>
<g id="a_edge3_Node000003_Node000002"><a xlink:title=" ">
<path fill="none" stroke="#63b8ff" d="M115.25,-75.32C102.18,-62.58 85.91,-46.74 74.42,-35.54"/>
<polygon fill="#63b8ff" stroke="#63b8ff" points="112.91,-77.92 122.52,-82.39 117.8,-72.91 112.91,-77.92"/>
</a>
</g>
</g>
<!-- Node3&#45;&gt;Node4 -->
<g id="edge4_Node000003_Node000004" class="edge">
<title>Node3&#45;&gt;Node4</title>
<g id="a_edge4_Node000003_Node000004"><a xlink:title=" ">
<path fill="none" stroke="#63b8ff" d="M159.81,-75.38C171.38,-64.66 185.36,-51.72 196.72,-41.2"/>
<polygon fill="#63b8ff" stroke="#63b8ff" points="157.2,-73.03 152.24,-82.39 161.95,-78.17 157.2,-73.03"/>
</a>
</g>
</g>
<!-- Node7&#45;&gt;Node6 -->
<g id="edge8_Node000007_Node000006" class="edge">
<title>Node7&#45;&gt;Node6</title>
<g id="a_edge8_Node000007_Node000006"><a xlink:title=" ">
<path fill="none" stroke="#63b8ff" d="M467.9,-76.38C450.53,-63.48 428.41,-47.05 412.91,-35.54"/>
<polygon fill="#63b8ff" stroke="#63b8ff" points="465.89,-79.24 476,-82.39 470.06,-73.62 465.89,-79.24"/>
</a>
</g>
</g>
</g>
</svg>

<g id="navigator" transform="translate(0 0)" fill="#404254">
  <rect fill="#f2f5e9" fill-opacity="0.5" stroke="#606060" stroke-width=".5" x="0" y="0" width="60" height="60"/>
  <use id="zoomplus" xlink:href="#zoomPlus" x="17" y="9" onmousedown="handleZoom(evt,'in')"/>
  <use id="zoomminus" xlink:href="#zoomMin" x="42" y="9" onmousedown="handleZoom(evt,'out')"/>
  <use id="reset" xlink:href="#resetDef" x="30" y="36" onmousedown="handleReset()"/>
   <use id="arrowup" xlink:href="#arrowUp" x="0" y="0" onmousedown="handlePan(0,-1)"/>
  <use id="arrowright" xlink:href="#arrowRight" x="0" y="0" onmousedown="handlePan(1,0)"/>
  <use id="arrowdown" xlink:href="#arrowDown" x="0" y="0" onmousedown="handlePan(0,1)"/>
  <use id="arrowleft" xlink:href="#arrowLeft" x="0" y="0" onmousedown="handlePan(-1,0)"/>
</g>
<svg viewBox="0 0 15 15" width="100%" height="30px" preserveAspectRatio="xMaxYMin meet">
 <g id="arrow_out" transform="scale(0.3 0.3)">
  <a xlink:href="pulsar__adc_8h__dep__incl_org.svg" target="_base">
   <rect id="button" ry="5" rx="5" y="6" x="6" height="38" width="38"
        fill="#f2f5e9" fill-opacity="0.5" stroke="#606060" stroke-width="1.0"/>
   <path id="arrow"
     d="M 11.500037,31.436501 C 11.940474,20.09759 22.043105,11.32322 32.158766,21.979434 L 37.068811,17.246167 C 37.068811,17.246167 37.088388,32 37.088388,32 L 22.160133,31.978069 C 22.160133,31.978069 26.997745,27.140456 26.997745,27.140456 C 18.528582,18.264221 13.291696,25.230495 11.500037,31.436501 z"
     style="fill:#404040;"/>
  </a>
 </g>
</svg>

<style type='text/css'>
<![CDATA[
[data-mouse-over-selected='false'] { opacity: 0.7; }
[data-mouse-over-selected='true']  { opacity: 1.0; }
]]>
</style>
<script type="application/ecmascript"><![CDATA[
document.addEventListener('DOMContentLoaded', (event) => {
  highlightEdges();
  highlightAdjacentNodes();
});
]]></script>
</svg>
