<?xml version="1.0" encoding="UTF-8" standalone="no"?>
<!DOCTYPE svg PUBLIC "-//W3C//DTD SVG 1.1//EN"
 "http://www.w3.org/Graphics/SVG/1.1/DTD/svg11.dtd">
<!-- Generated by graphviz version 2.43.0 (0)
 -->
<!-- Title: spi_engine_offload_init Pages: 1 -->
<!--zoomable 177 -->

<svg id="main" version="1.1" xmlns="http://www.w3.org/2000/svg" xmlns:xlink="http://www.w3.org/1999/xlink" xml:space="preserve" onload="init(evt)">

<style type="text/css"><![CDATA[
.node, .edge {opacity: 0.7;}
.node.selected, .edge.selected {opacity: 1;}
.edge:hover path { stroke: red; }
.edge:hover polygon { stroke: red; fill: red; }
]]></style>

<defs>
  <circle id="rim" cx="0" cy="0" r="7"/>
  <circle id="rim2" cx="0" cy="0" r="3.5"/>
  <g id="zoomPlus">
    <use xlink:href="#rim" fill="#404040"><set attributeName="fill" to="#808080" begin="zoomplus.mouseover" end="zoomplus.mouseout"/></use>
    <path d="M-4,0h8M0,-4v8" fill="none" stroke="white" stroke-width="1.5" pointer-events="none"/>
  </g>
  <g id="zoomMin">
    <use xlink:href="#rim" fill="#404040"><set attributeName="fill" to="#808080" begin="zoomminus.mouseover" end="zoomminus.mouseout"/></use>
    <path d="M-4,0h8" fill="none" stroke="white" stroke-width="1.5" pointer-events="none"/>
  </g>
  <g id="arrowUp" transform="translate(30 24)">
    <use xlink:href="#rim"/>
    <path pointer-events="none" fill="none" stroke="white" stroke-width="1.5" d="M0,-3.0v7 M-2.5,-0.5L0,-3.0L2.5,-0.5"/>
  </g>
  <g id="arrowRight" transform="rotate(90) translate(36 -43)">
    <use xlink:href="#rim"/>
    <path pointer-events="none" fill="none" stroke="white" stroke-width="1.5" d="M0,-3.0v7 M-2.5,-0.5L0,-3.0L2.5,-0.5"/>
  </g>
  <g id="arrowDown" transform="rotate(180) translate(-30 -48)">
    <use xlink:href="#rim"/>
    <path pointer-events="none" fill="none" stroke="white" stroke-width="1.5" d="M0,-3.0v7 M-2.5,-0.5L0,-3.0L2.5,-0.5"/>
  </g>
  <g id="arrowLeft" transform="rotate(270) translate(-36 17)">
    <use xlink:href="#rim"/>
    <path pointer-events="none" fill="none" stroke="white" stroke-width="1.5" d="M0,-3.0v7 M-2.5,-0.5L0,-3.0L2.5,-0.5"/>
  </g>
  <g id="resetDef">
    <use xlink:href="#rim2" fill="#404040"><set attributeName="fill" to="#808080" begin="reset.mouseover" end="reset.mouseout"/></use>
  </g>
</defs>
<script type="application/ecmascript">
var viewWidth = 739;
var viewHeight = 177;
var sectionId = 'dynsection-3';
</script>
<script type="application/ecmascript" xlink:href="svg.min.js"/>
<svg id="graph" class="graph">
<g id="viewport">
<title>spi_engine_offload_init</title>
<!-- Node1 -->
<g id="Node000001" class="node">
<title>Node1</title>
<g id="a_Node000001"><a xlink:title="Initialize the SPI engine&#39;s offload module.">
<polygon fill="#999999" stroke="#666666" points="731,-93 602,-93 602,-74 731,-74 731,-93"/>
<text text-anchor="middle" x="666.5" y="-81" font-family="Helvetica,sans-Serif" font-size="10.00">spi_engine_offload_init</text>
</a>
</g>
</g>
<!-- Node2 -->
<g id="Node000002" class="node">
<title>Node2</title>
<g id="a_Node000002"><a xlink:href="ad463x_8c.html#ac1cc8e1c72706ef210ea4d3e746a7c0c" target="_top" xlink:title="Read from device. Enter register mode to read/write registers.">
<polygon fill="white" stroke="#666666" points="555,-168 409,-168 409,-149 555,-149 555,-168"/>
<text text-anchor="middle" x="482" y="-156" font-family="Helvetica,sans-Serif" font-size="10.00">ad463x_read_data_offload</text>
</a>
</g>
</g>
<!-- Node1&#45;&gt;Node2 -->
<g id="edge1_Node000001_Node000002" class="edge">
<title>Node1&#45;&gt;Node2</title>
<g id="a_edge1_Node000001_Node000002"><a xlink:title=" ">
<path fill="none" stroke="#63b8ff" d="M643.13,-98.57C623.55,-111.15 593.93,-128.7 566,-139.5 556.35,-143.23 545.77,-146.34 535.49,-148.89"/>
<polygon fill="#63b8ff" stroke="#63b8ff" points="645.18,-101.41 651.64,-93.02 641.35,-95.55 645.18,-101.41"/>
</a>
</g>
</g>
<!-- Node6 -->
<g id="Node000006" class="node">
<title>Node6</title>
<g id="a_Node000006"><a xlink:href="ad469x_8c.html#abda6b9d65e0b6e2a82390a09a8f08eb8" target="_top" xlink:title="Exit conversion mode. Enter register mode to read/write registers.">
<polygon fill="white" stroke="#666666" points="566,-130 398,-130 398,-111 566,-111 566,-130"/>
<text text-anchor="middle" x="482" y="-118" font-family="Helvetica,sans-Serif" font-size="10.00">ad469x_exit_conversion_mode</text>
</a>
</g>
</g>
<!-- Node1&#45;&gt;Node6 -->
<g id="edge5_Node000001_Node000006" class="edge">
<title>Node1&#45;&gt;Node6</title>
<g id="a_edge5_Node000001_Node000006"><a xlink:title=" ">
<path fill="none" stroke="#63b8ff" d="M608.7,-95.02C583.48,-100.13 554.14,-106.08 530.16,-110.94"/>
<polygon fill="#63b8ff" stroke="#63b8ff" points="609.4,-98.45 618.5,-93.03 608.01,-91.59 609.4,-98.45"/>
</a>
</g>
</g>
<!-- Node7 -->
<g id="Node000007" class="node">
<title>Node7</title>
<g id="a_Node000007"><a xlink:href="ad469x_8c.html#a92cd606b28fd68b3a2c52717552818df" target="_top" xlink:title="Read from device. Enter register mode to read/write registers.">
<polygon fill="white" stroke="#666666" points="535.5,-93 428.5,-93 428.5,-74 535.5,-74 535.5,-93"/>
<text text-anchor="middle" x="482" y="-81" font-family="Helvetica,sans-Serif" font-size="10.00">ad469x_read_data</text>
</a>
</g>
</g>
<!-- Node1&#45;&gt;Node7 -->
<g id="edge6_Node000001_Node000007" class="edge">
<title>Node1&#45;&gt;Node7</title>
<g id="a_edge6_Node000001_Node000007"><a xlink:title=" ">
<path fill="none" stroke="#63b8ff" d="M591.91,-83.5C573.12,-83.5 553.29,-83.5 535.77,-83.5"/>
<polygon fill="#63b8ff" stroke="#63b8ff" points="591.93,-87 601.93,-83.5 591.93,-80 591.93,-87"/>
</a>
</g>
</g>
<!-- Node11 -->
<g id="Node000011" class="node">
<title>Node11</title>
<g id="a_Node000011"><a xlink:href="adaq7980_8c.html#a1d04d6c8c5b30c8f739bb4ed0f7deecd" target="_top" xlink:title="Read from device. Enter register mode to read/write registers.">
<polygon fill="white" stroke="#666666" points="535.5,-56 428.5,-56 428.5,-37 535.5,-37 535.5,-56"/>
<text text-anchor="middle" x="482" y="-44" font-family="Helvetica,sans-Serif" font-size="10.00">ad7980_read_data</text>
</a>
</g>
</g>
<!-- Node1&#45;&gt;Node11 -->
<g id="edge11_Node000001_Node000011" class="edge">
<title>Node1&#45;&gt;Node11</title>
<g id="a_edge11_Node000001_Node000011"><a xlink:title=" ">
<path fill="none" stroke="#63b8ff" d="M608.7,-71.98C583.48,-66.87 554.14,-60.92 530.16,-56.06"/>
<polygon fill="#63b8ff" stroke="#63b8ff" points="608.01,-75.41 618.5,-73.97 609.4,-68.55 608.01,-75.41"/>
</a>
</g>
</g>
<!-- Node13 -->
<g id="Node000013" class="node">
<title>Node13</title>
<g id="a_Node000013"><a xlink:href="ad713x__fmc_8c.html#ae66f6b31b5ad750f1fe042a706a4e3d4" target="_top" xlink:title=" ">
<polygon fill="white" stroke="#666666" points="502.5,-19 461.5,-19 461.5,0 502.5,0 502.5,-19"/>
<text text-anchor="middle" x="482" y="-7" font-family="Helvetica,sans-Serif" font-size="10.00">main</text>
</a>
</g>
</g>
<!-- Node1&#45;&gt;Node13 -->
<g id="edge13_Node000001_Node000013" class="edge">
<title>Node1&#45;&gt;Node13</title>
<g id="a_edge13_Node000001_Node000013"><a xlink:title=" ">
<path fill="none" stroke="#63b8ff" d="M643.16,-68.35C623.6,-55.72 593.99,-38.14 566,-27.5 545.05,-19.54 519.72,-14.69 502.59,-12.06"/>
<polygon fill="#63b8ff" stroke="#63b8ff" points="641.38,-71.36 651.66,-73.93 645.22,-65.51 641.38,-71.36"/>
</a>
</g>
</g>
<!-- Node3 -->
<g id="Node000003" class="node">
<title>Node3</title>
<g id="a_Node000003"><a xlink:href="ad463x_8c.html#a354bac86baa990ef631a0316640aa6ef" target="_top" xlink:title="Read from device. Enter register mode to read/write registers.">
<polygon fill="white" stroke="#666666" points="351,-169 244,-169 244,-150 351,-150 351,-169"/>
<text text-anchor="middle" x="297.5" y="-157" font-family="Helvetica,sans-Serif" font-size="10.00">ad463x_read_data</text>
</a>
</g>
</g>
<!-- Node2&#45;&gt;Node3 -->
<g id="edge2_Node000002_Node000003" class="edge">
<title>Node2&#45;&gt;Node3</title>
<g id="a_edge2_Node000002_Node000003"><a xlink:title=" ">
<path fill="none" stroke="#63b8ff" d="M398.87,-158.95C382.7,-159.04 366.14,-159.13 351.25,-159.21"/>
<polygon fill="#63b8ff" stroke="#63b8ff" points="398.89,-162.45 408.87,-158.9 398.85,-155.45 398.89,-162.45"/>
</a>
</g>
</g>
<!-- Node4 -->
<g id="Node000004" class="node">
<title>Node4</title>
<g id="a_Node000004"><a xlink:href="ad463x__fmcz_2src_2examples_2basic__example_2basic__example_8c.html#a72943dc9011d36293cb05ca5d7cb6899" target="_top" xlink:title="basic example main execution.">
<polygon fill="white" stroke="#666666" points="197,-169 77,-169 77,-150 197,-150 197,-169"/>
<text text-anchor="middle" x="137" y="-157" font-family="Helvetica,sans-Serif" font-size="10.00">basic_example_main</text>
</a>
</g>
</g>
<!-- Node3&#45;&gt;Node4 -->
<g id="edge3_Node000003_Node000004" class="edge">
<title>Node3&#45;&gt;Node4</title>
<g id="a_edge3_Node000003_Node000004"><a xlink:title=" ">
<path fill="none" stroke="#63b8ff" d="M233.37,-159.5C221.41,-159.5 208.94,-159.5 197.11,-159.5"/>
<polygon fill="#63b8ff" stroke="#63b8ff" points="233.72,-163 243.72,-159.5 233.72,-156 233.72,-163"/>
</a>
</g>
</g>
<!-- Node5 -->
<g id="Node000005" class="node">
<title>Node5</title>
<g id="a_Node000005"><a xlink:href="ad463x__fmcz_2src_2platform_2stm32_2main_8c.html#ae66f6b31b5ad750f1fe042a706a4e3d4" target="_top" xlink:title="Main function execution for STM32 platform.">
<polygon fill="white" stroke="#666666" points="41,-169 0,-169 0,-150 41,-150 41,-169"/>
<text text-anchor="middle" x="20.5" y="-157" font-family="Helvetica,sans-Serif" font-size="10.00">main</text>
</a>
</g>
</g>
<!-- Node4&#45;&gt;Node5 -->
<g id="edge4_Node000004_Node000005" class="edge">
<title>Node4&#45;&gt;Node5</title>
<g id="a_edge4_Node000004_Node000005"><a xlink:title=" ">
<path fill="none" stroke="#63b8ff" d="M66.55,-159.5C57.28,-159.5 48.46,-159.5 41.12,-159.5"/>
<polygon fill="#63b8ff" stroke="#63b8ff" points="66.74,-163 76.74,-159.5 66.74,-156 66.74,-163"/>
</a>
</g>
</g>
<!-- Node8 -->
<g id="Node000008" class="node">
<title>Node8</title>
<g id="a_Node000008"><a xlink:href="ad469x_8c.html#a947efb0cc9183e2dc0d9aeb3d697601b" target="_top" xlink:title="Read from device when converter has the channel sequencer activated. Enter register mode to read/writ...">
<polygon fill="white" stroke="#666666" points="362,-93 233,-93 233,-74 362,-74 362,-93"/>
<text text-anchor="middle" x="297.5" y="-81" font-family="Helvetica,sans-Serif" font-size="10.00">ad469x_seq_read_data</text>
</a>
</g>
</g>
<!-- Node7&#45;&gt;Node8 -->
<g id="edge7_Node000007_Node000008" class="edge">
<title>Node7&#45;&gt;Node8</title>
<g id="a_edge7_Node000007_Node000008"><a xlink:title=" ">
<path fill="none" stroke="#63b8ff" d="M418.08,-83.5C400,-83.5 380.28,-83.5 362.16,-83.5"/>
<polygon fill="#63b8ff" stroke="#63b8ff" points="418.21,-87 428.21,-83.5 418.21,-80 418.21,-87"/>
</a>
</g>
</g>
<!-- Node9 -->
<g id="Node000009" class="node">
<title>Node9</title>
<g id="a_Node000009"><a xlink:href="ad469x__evb_2src_2examples_2basic__example_2basic__example_8c.html#a72943dc9011d36293cb05ca5d7cb6899" target="_top" xlink:title="basic example main execution.">
<polygon fill="white" stroke="#666666" points="197,-131 77,-131 77,-112 197,-112 197,-131"/>
<text text-anchor="middle" x="137" y="-119" font-family="Helvetica,sans-Serif" font-size="10.00">basic_example_main</text>
</a>
</g>
</g>
<!-- Node7&#45;&gt;Node9 -->
<g id="edge10_Node000007_Node000009" class="edge">
<title>Node7&#45;&gt;Node9</title>
<g id="a_edge10_Node000007_Node000009"><a xlink:title=" ">
<path fill="none" stroke="#63b8ff" d="M418.47,-93.69C400.29,-96.46 380.38,-99.29 362,-101.5 306.18,-108.21 242.28,-113.7 197.06,-117.22"/>
<polygon fill="#63b8ff" stroke="#63b8ff" points="419.02,-97.15 428.37,-92.17 417.96,-90.23 419.02,-97.15"/>
</a>
</g>
</g>
<!-- Node8&#45;&gt;Node9 -->
<g id="edge8_Node000008_Node000009" class="edge">
<title>Node8&#45;&gt;Node9</title>
<g id="a_edge8_Node000008_Node000009"><a xlink:title=" ">
<path fill="none" stroke="#63b8ff" d="M246.58,-95.47C224.37,-100.79 198.58,-106.98 177.71,-111.98"/>
<polygon fill="#63b8ff" stroke="#63b8ff" points="247.6,-98.82 256.5,-93.09 245.96,-92.02 247.6,-98.82"/>
</a>
</g>
</g>
<!-- Node10 -->
<g id="Node000010" class="node">
<title>Node10</title>
<g id="a_Node000010"><a xlink:href="ad469x__evb_2src_2examples_2iio__example_2iio__example_8c.html#a7d58fb707a91d4615d3bf949fabaa1e2" target="_top" xlink:title="IIO example main execution.">
<polygon fill="white" stroke="#666666" points="190.5,-93 83.5,-93 83.5,-74 190.5,-74 190.5,-93"/>
<text text-anchor="middle" x="137" y="-81" font-family="Helvetica,sans-Serif" font-size="10.00">iio_example_main</text>
</a>
</g>
</g>
<!-- Node8&#45;&gt;Node10 -->
<g id="edge9_Node000008_Node000010" class="edge">
<title>Node8&#45;&gt;Node10</title>
<g id="a_edge9_Node000008_Node000010"><a xlink:title=" ">
<path fill="none" stroke="#63b8ff" d="M222.72,-83.5C211.97,-83.5 201.1,-83.5 190.88,-83.5"/>
<polygon fill="#63b8ff" stroke="#63b8ff" points="222.95,-87 232.95,-83.5 222.95,-80 222.95,-87"/>
</a>
</g>
</g>
<!-- Node12 -->
<g id="Node000012" class="node">
<title>Node12</title>
<g id="a_Node000012"><a xlink:href="adaq7980__sdz_8c.html#ae66f6b31b5ad750f1fe042a706a4e3d4" target="_top" xlink:title=" ">
<polygon fill="white" stroke="#666666" points="318,-56 277,-56 277,-37 318,-37 318,-56"/>
<text text-anchor="middle" x="297.5" y="-44" font-family="Helvetica,sans-Serif" font-size="10.00">main</text>
</a>
</g>
</g>
<!-- Node11&#45;&gt;Node12 -->
<g id="edge12_Node000011_Node000012" class="edge">
<title>Node11&#45;&gt;Node12</title>
<g id="a_edge12_Node000011_Node000012"><a xlink:title=" ">
<path fill="none" stroke="#63b8ff" d="M418.06,-46.5C383.08,-46.5 341.94,-46.5 318.17,-46.5"/>
<polygon fill="#63b8ff" stroke="#63b8ff" points="418.21,-50 428.21,-46.5 418.21,-43 418.21,-50"/>
</a>
</g>
</g>
</g>
</svg>

<g id="navigator" transform="translate(0 0)" fill="#404254">
  <rect fill="#f2f5e9" fill-opacity="0.5" stroke="#606060" stroke-width=".5" x="0" y="0" width="60" height="60"/>
  <use id="zoomplus" xlink:href="#zoomPlus" x="17" y="9" onmousedown="handleZoom(evt,'in')"/>
  <use id="zoomminus" xlink:href="#zoomMin" x="42" y="9" onmousedown="handleZoom(evt,'out')"/>
  <use id="reset" xlink:href="#resetDef" x="30" y="36" onmousedown="handleReset()"/>
   <use id="arrowup" xlink:href="#arrowUp" x="0" y="0" onmousedown="handlePan(0,-1)"/>
  <use id="arrowright" xlink:href="#arrowRight" x="0" y="0" onmousedown="handlePan(1,0)"/>
  <use id="arrowdown" xlink:href="#arrowDown" x="0" y="0" onmousedown="handlePan(0,1)"/>
  <use id="arrowleft" xlink:href="#arrowLeft" x="0" y="0" onmousedown="handlePan(-1,0)"/>
</g>
<svg viewBox="0 0 15 15" width="100%" height="30px" preserveAspectRatio="xMaxYMin meet">
 <g id="arrow_out" transform="scale(0.3 0.3)">
  <a xlink:href="spi__engine_8h_a3851f39c90fdbfbd294eee58a4def795_icgraph_org.svg" target="_base">
   <rect id="button" ry="5" rx="5" y="6" x="6" height="38" width="38"
        fill="#f2f5e9" fill-opacity="0.5" stroke="#606060" stroke-width="1.0"/>
   <path id="arrow"
     d="M 11.500037,31.436501 C 11.940474,20.09759 22.043105,11.32322 32.158766,21.979434 L 37.068811,17.246167 C 37.068811,17.246167 37.088388,32 37.088388,32 L 22.160133,31.978069 C 22.160133,31.978069 26.997745,27.140456 26.997745,27.140456 C 18.528582,18.264221 13.291696,25.230495 11.500037,31.436501 z"
     style="fill:#404040;"/>
  </a>
 </g>
</svg>

<style type='text/css'>
<![CDATA[
[data-mouse-over-selected='false'] { opacity: 0.7; }
[data-mouse-over-selected='true']  { opacity: 1.0; }
]]>
</style>
<script type="application/ecmascript"><![CDATA[
document.addEventListener('DOMContentLoaded', (event) => {
  highlightEdges();
  highlightAdjacentNodes();
});
]]></script>
</svg>
