<?xml version="1.0" encoding="UTF-8" standalone="no"?>
<!DOCTYPE svg PUBLIC "-//W3C//DTD SVG 1.1//EN"
 "http://www.w3.org/Graphics/SVG/1.1/DTD/svg11.dtd">
<!-- Generated by graphviz version 2.43.0 (0)
 -->
<!-- Title: drivers/axi_core/spi_engine/spi_engine.h Pages: 1 -->
<svg width="3370pt" height="269pt"
 viewBox="0.00 0.00 3370.00 269.00" xmlns="http://www.w3.org/2000/svg" xmlns:xlink="http://www.w3.org/1999/xlink">
<g id="graph0" class="graph" transform="scale(1 1) rotate(0) translate(4 265)">
<title>drivers/axi_core/spi_engine/spi_engine.h</title>
<!-- Node1 -->
<g id="Node000001" class="node">
<title>Node1</title>
<g id="a_Node000001"><a xlink:title=" ">
<polygon fill="#999999" stroke="#666666" points="2057.5,-261 1938.5,-261 1938.5,-231 2057.5,-231 2057.5,-261"/>
<text text-anchor="start" x="1946.5" y="-249" font-family="Helvetica,sans-Serif" font-size="10.00">drivers/axi_core/spi</text>
<text text-anchor="middle" x="1998" y="-238" font-family="Helvetica,sans-Serif" font-size="10.00">_engine/spi_engine.h</text>
</a>
</g>
</g>
<!-- Node2 -->
<g id="Node000002" class="node">
<title>Node2</title>
<g id="a_Node000002"><a xlink:href="ad463x_8h.html" target="_top" xlink:title="Header file of AD463x Driver.">
<polygon fill="white" stroke="#666666" points="264,-189.5 154,-189.5 154,-159.5 264,-159.5 264,-189.5"/>
<text text-anchor="start" x="162" y="-177.5" font-family="Helvetica,sans-Serif" font-size="10.00">drivers/adc/ad463x</text>
<text text-anchor="middle" x="209" y="-166.5" font-family="Helvetica,sans-Serif" font-size="10.00">/ad463x.h</text>
</a>
</g>
</g>
<!-- Node1&#45;&gt;Node2 -->
<g id="edge1_Node000001_Node000002" class="edge">
<title>Node1&#45;&gt;Node2</title>
<g id="a_edge1_Node000001_Node000002"><a xlink:title=" ">
<path fill="none" stroke="#63b8ff" d="M1928.21,-243.64C1712.89,-239.25 1039.9,-224 483,-195 407.04,-191.04 319.37,-184.45 264.07,-180.04"/>
<polygon fill="#63b8ff" stroke="#63b8ff" points="1928.35,-247.14 1938.41,-243.85 1928.49,-240.15 1928.35,-247.14"/>
</a>
</g>
</g>
<!-- Node6 -->
<g id="Node000006" class="node">
<title>Node6</title>
<g id="a_Node000006"><a xlink:href="ad469x_8c.html" target="_top" xlink:title="Implementation of ad69x Driver.">
<polygon fill="white" stroke="#666666" points="418,-112.5 308,-112.5 308,-82.5 418,-82.5 418,-112.5"/>
<text text-anchor="start" x="316" y="-100.5" font-family="Helvetica,sans-Serif" font-size="10.00">drivers/adc/ad469x</text>
<text text-anchor="middle" x="363" y="-89.5" font-family="Helvetica,sans-Serif" font-size="10.00">/ad469x.c</text>
</a>
</g>
</g>
<!-- Node1&#45;&gt;Node6 -->
<g id="edge5_Node000001_Node000006" class="edge">
<title>Node1&#45;&gt;Node6</title>
<g id="a_edge5_Node000001_Node000006"><a xlink:title=" ">
<path fill="none" stroke="#63b8ff" d="M1928.36,-244.19C1660.17,-240.86 702.55,-226.82 570,-195 498.48,-177.83 421.92,-134.87 385.18,-112.52"/>
<polygon fill="#63b8ff" stroke="#63b8ff" points="1928.32,-247.69 1938.36,-244.32 1928.4,-240.69 1928.32,-247.69"/>
</a>
</g>
</g>
<!-- Node7 -->
<g id="Node000007" class="node">
<title>Node7</title>
<g id="a_Node000007"><a xlink:href="ad469x_8h.html" target="_top" xlink:title="Header file for ad469x Driver.">
<polygon fill="white" stroke="#666666" points="689,-189.5 579,-189.5 579,-159.5 689,-159.5 689,-189.5"/>
<text text-anchor="start" x="587" y="-177.5" font-family="Helvetica,sans-Serif" font-size="10.00">drivers/adc/ad469x</text>
<text text-anchor="middle" x="634" y="-166.5" font-family="Helvetica,sans-Serif" font-size="10.00">/ad469x.h</text>
</a>
</g>
</g>
<!-- Node1&#45;&gt;Node7 -->
<g id="edge6_Node000001_Node000007" class="edge">
<title>Node1&#45;&gt;Node7</title>
<g id="a_edge6_Node000001_Node000007"><a xlink:title=" ">
<path fill="none" stroke="#63b8ff" d="M1928.06,-241.97C1760.11,-234.61 1320.71,-214.95 954,-195 861.05,-189.94 752.97,-183.17 689.2,-179.08"/>
<polygon fill="#63b8ff" stroke="#63b8ff" points="1928.11,-245.47 1938.25,-242.41 1928.42,-238.48 1928.11,-245.47"/>
</a>
</g>
</g>
<!-- Node12 -->
<g id="Node000012" class="node">
<title>Node12</title>
<g id="a_Node000012"><a xlink:href="ad738x_8c.html" target="_top" xlink:title="Implementation of AD738x Driver.">
<polygon fill="white" stroke="#666666" points="1073,-189.5 963,-189.5 963,-159.5 1073,-159.5 1073,-189.5"/>
<text text-anchor="start" x="971" y="-177.5" font-family="Helvetica,sans-Serif" font-size="10.00">drivers/adc/ad738x</text>
<text text-anchor="middle" x="1018" y="-166.5" font-family="Helvetica,sans-Serif" font-size="10.00">/ad738x.c</text>
</a>
</g>
</g>
<!-- Node1&#45;&gt;Node12 -->
<g id="edge13_Node000001_Node000012" class="edge">
<title>Node1&#45;&gt;Node12</title>
<g id="a_edge13_Node000001_Node000012"><a xlink:title=" ">
<path fill="none" stroke="#63b8ff" d="M1928.24,-243.37C1743.45,-238.7 1244.38,-223.73 1082,-195 1074.45,-193.66 1066.54,-191.72 1058.96,-189.57"/>
<polygon fill="#63b8ff" stroke="#63b8ff" points="1928.29,-246.87 1938.38,-243.62 1928.47,-239.87 1928.29,-246.87"/>
</a>
</g>
</g>
<!-- Node13 -->
<g id="Node000013" class="node">
<title>Node13</title>
<g id="a_Node000013"><a xlink:href="adaq7980_8h.html" target="_top" xlink:title=" ">
<polygon fill="white" stroke="#666666" points="1213,-189.5 1091,-189.5 1091,-159.5 1213,-159.5 1213,-189.5"/>
<text text-anchor="start" x="1099" y="-177.5" font-family="Helvetica,sans-Serif" font-size="10.00">drivers/adc/adaq7980</text>
<text text-anchor="middle" x="1152" y="-166.5" font-family="Helvetica,sans-Serif" font-size="10.00">/adaq7980.h</text>
</a>
</g>
</g>
<!-- Node1&#45;&gt;Node13 -->
<g id="edge14_Node000001_Node000013" class="edge">
<title>Node1&#45;&gt;Node13</title>
<g id="a_edge14_Node000001_Node000013"><a xlink:title=" ">
<path fill="none" stroke="#63b8ff" d="M1928.26,-240.36C1807.93,-232.2 1553.58,-214.32 1339,-195 1296.9,-191.21 1249.54,-186.26 1213.02,-182.3"/>
<polygon fill="#63b8ff" stroke="#63b8ff" points="1928.22,-243.86 1938.43,-241.05 1928.69,-236.88 1928.22,-243.86"/>
</a>
</g>
</g>
<!-- Node16 -->
<g id="Node000016" class="node">
<title>Node16</title>
<g id="a_Node000016"><a xlink:href="pulsar__adc_8c.html" target="_top" xlink:title="Implementation of pulsar_adc Driver.">
<polygon fill="white" stroke="#666666" points="1316,-112.5 1212,-112.5 1212,-82.5 1316,-82.5 1316,-112.5"/>
<text text-anchor="start" x="1220" y="-100.5" font-family="Helvetica,sans-Serif" font-size="10.00">drivers/adc/pulsar</text>
<text text-anchor="middle" x="1264" y="-89.5" font-family="Helvetica,sans-Serif" font-size="10.00">_adc/pulsar_adc.c</text>
</a>
</g>
</g>
<!-- Node1&#45;&gt;Node16 -->
<g id="edge17_Node000001_Node000016" class="edge">
<title>Node1&#45;&gt;Node16</title>
<g id="a_edge17_Node000001_Node000016"><a xlink:title=" ">
<path fill="none" stroke="#63b8ff" d="M1928.14,-241.64C1803.32,-235.11 1547.03,-219.2 1461,-195 1393.54,-176.03 1321.28,-134.48 1285.98,-112.6"/>
<polygon fill="#63b8ff" stroke="#63b8ff" points="1928.18,-245.14 1938.35,-242.17 1928.54,-238.15 1928.18,-245.14"/>
</a>
</g>
</g>
<!-- Node17 -->
<g id="Node000017" class="node">
<title>Node17</title>
<g id="a_Node000017"><a xlink:href="pulsar__adc_8h.html" target="_top" xlink:title="Header file for pulsar_adc Driver.">
<polygon fill="white" stroke="#666666" points="1574,-189.5 1470,-189.5 1470,-159.5 1574,-159.5 1574,-189.5"/>
<text text-anchor="start" x="1478" y="-177.5" font-family="Helvetica,sans-Serif" font-size="10.00">drivers/adc/pulsar</text>
<text text-anchor="middle" x="1522" y="-166.5" font-family="Helvetica,sans-Serif" font-size="10.00">_adc/pulsar_adc.h</text>
</a>
</g>
</g>
<!-- Node1&#45;&gt;Node17 -->
<g id="edge18_Node000001_Node000017" class="edge">
<title>Node1&#45;&gt;Node17</title>
<g id="a_edge18_Node000001_Node000017"><a xlink:title=" ">
<path fill="none" stroke="#63b8ff" d="M1928.24,-240.65C1845.23,-234.54 1702.79,-221.12 1583,-195 1576.26,-193.53 1569.21,-191.63 1562.4,-189.59"/>
<polygon fill="#63b8ff" stroke="#63b8ff" points="1928.08,-244.15 1938.31,-241.37 1928.59,-237.16 1928.08,-244.15"/>
</a>
</g>
</g>
<!-- Node24 -->
<g id="Node000024" class="node">
<title>Node24</title>
<g id="a_Node000024"><a xlink:href="spi__engine_8c.html" target="_top" xlink:title=" ">
<polygon fill="white" stroke="#666666" points="1711.5,-189.5 1592.5,-189.5 1592.5,-159.5 1711.5,-159.5 1711.5,-189.5"/>
<text text-anchor="start" x="1600.5" y="-177.5" font-family="Helvetica,sans-Serif" font-size="10.00">drivers/axi_core/spi</text>
<text text-anchor="middle" x="1652" y="-166.5" font-family="Helvetica,sans-Serif" font-size="10.00">_engine/spi_engine.c</text>
</a>
</g>
</g>
<!-- Node1&#45;&gt;Node24 -->
<g id="edge29_Node000001_Node000024" class="edge">
<title>Node1&#45;&gt;Node24</title>
<g id="a_edge29_Node000001_Node000024"><a xlink:title=" ">
<path fill="none" stroke="#63b8ff" d="M1928.29,-234.34C1872.04,-225.27 1791.04,-211.18 1721,-195 1713.97,-193.38 1706.58,-191.49 1699.35,-189.53"/>
<polygon fill="#63b8ff" stroke="#63b8ff" points="1928.07,-237.84 1938.49,-235.97 1929.17,-230.93 1928.07,-237.84"/>
</a>
</g>
</g>
<!-- Node25 -->
<g id="Node000025" class="node">
<title>Node25</title>
<g id="a_Node000025"><a xlink:href="ad463x__fmcz_2src_2platform_2xilinx_2parameters_8h.html" target="_top" xlink:title="Definitions specific to xilinx platform used by ad463x_fmcz project.">
<polygon fill="white" stroke="#666666" points="1854,-195 1730,-195 1730,-154 1854,-154 1854,-195"/>
<text text-anchor="start" x="1738" y="-183" font-family="Helvetica,sans-Serif" font-size="10.00">projects/ad463x_fmcz</text>
<text text-anchor="start" x="1738" y="-172" font-family="Helvetica,sans-Serif" font-size="10.00">/src/platform/xilinx</text>
<text text-anchor="middle" x="1792" y="-161" font-family="Helvetica,sans-Serif" font-size="10.00">/parameters.h</text>
</a>
</g>
</g>
<!-- Node1&#45;&gt;Node25 -->
<g id="edge30_Node000001_Node000025" class="edge">
<title>Node1&#45;&gt;Node25</title>
<g id="a_edge30_Node000001_Node000025"><a xlink:title=" ">
<path fill="none" stroke="#63b8ff" d="M1946.67,-227.68C1917.32,-217.78 1880.41,-205.33 1850.02,-195.07"/>
<polygon fill="#63b8ff" stroke="#63b8ff" points="1945.72,-231.06 1956.31,-230.94 1947.96,-224.42 1945.72,-231.06"/>
</a>
</g>
</g>
<!-- Node28 -->
<g id="Node000028" class="node">
<title>Node28</title>
<g id="a_Node000028"><a xlink:href="ad469x__evb_2src_2platform_2xilinx_2parameters_8h.html" target="_top" xlink:title="Definitions specific to xilinx platform used by ad469x_evb project.">
<polygon fill="white" stroke="#666666" points="1990,-195 1872,-195 1872,-154 1990,-154 1990,-195"/>
<text text-anchor="start" x="1880" y="-183" font-family="Helvetica,sans-Serif" font-size="10.00">projects/ad469x_evb</text>
<text text-anchor="start" x="1880" y="-172" font-family="Helvetica,sans-Serif" font-size="10.00">/src/platform/xilinx</text>
<text text-anchor="middle" x="1931" y="-161" font-family="Helvetica,sans-Serif" font-size="10.00">/parameters.h</text>
</a>
</g>
</g>
<!-- Node1&#45;&gt;Node28 -->
<g id="edge33_Node000001_Node000028" class="edge">
<title>Node1&#45;&gt;Node28</title>
<g id="a_edge33_Node000001_Node000028"><a xlink:title=" ">
<path fill="none" stroke="#63b8ff" d="M1977.45,-223.69C1968.66,-214.57 1958.47,-203.99 1949.87,-195.07"/>
<polygon fill="#63b8ff" stroke="#63b8ff" points="1974.98,-226.17 1984.44,-230.94 1980.02,-221.31 1974.98,-226.17"/>
</a>
</g>
</g>
<!-- Node31 -->
<g id="Node000031" class="node">
<title>Node31</title>
<g id="a_Node000031"><a xlink:href="ad5766__core_8c.html" target="_top" xlink:title="Implementation of AD5766 Core Driver.">
<polygon fill="white" stroke="#666666" points="2123.5,-189.5 2008.5,-189.5 2008.5,-159.5 2123.5,-159.5 2123.5,-189.5"/>
<text text-anchor="start" x="2016.5" y="-177.5" font-family="Helvetica,sans-Serif" font-size="10.00">projects/ad5766&#45;sdz</text>
<text text-anchor="middle" x="2066" y="-166.5" font-family="Helvetica,sans-Serif" font-size="10.00">/src/ad5766_core.c</text>
</a>
</g>
</g>
<!-- Node1&#45;&gt;Node31 -->
<g id="edge36_Node000001_Node000031" class="edge">
<title>Node1&#45;&gt;Node31</title>
<g id="a_edge36_Node000001_Node000031"><a xlink:title=" ">
<path fill="none" stroke="#63b8ff" d="M2018.87,-223.67C2029.72,-212.58 2042.68,-199.34 2052.26,-189.54"/>
<polygon fill="#63b8ff" stroke="#63b8ff" points="2016.25,-221.34 2011.76,-230.94 2021.26,-226.24 2016.25,-221.34"/>
</a>
</g>
</g>
<!-- Node32 -->
<g id="Node000032" class="node">
<title>Node32</title>
<g id="a_Node000032"><a xlink:href="ad5766__sdz_8c.html" target="_top" xlink:title="Implementation of Main Function.">
<polygon fill="white" stroke="#666666" points="2256.5,-189.5 2141.5,-189.5 2141.5,-159.5 2256.5,-159.5 2256.5,-189.5"/>
<text text-anchor="start" x="2149.5" y="-177.5" font-family="Helvetica,sans-Serif" font-size="10.00">projects/ad5766&#45;sdz</text>
<text text-anchor="middle" x="2199" y="-166.5" font-family="Helvetica,sans-Serif" font-size="10.00">/src/ad5766_sdz.c</text>
</a>
</g>
</g>
<!-- Node1&#45;&gt;Node32 -->
<g id="edge37_Node000001_Node000032" class="edge">
<title>Node1&#45;&gt;Node32</title>
<g id="a_edge37_Node000001_Node000032"><a xlink:title=" ">
<path fill="none" stroke="#63b8ff" d="M2048.42,-227.57C2082.41,-215.81 2126.66,-200.51 2158.39,-189.54"/>
<polygon fill="#63b8ff" stroke="#63b8ff" points="2046.98,-224.36 2038.68,-230.94 2049.27,-230.98 2046.98,-224.36"/>
</a>
</g>
</g>
<!-- Node33 -->
<g id="Node000033" class="node">
<title>Node33</title>
<g id="a_Node000033"><a xlink:href="ad713x__fmc_8c.html" target="_top" xlink:title="Implementation of Main Function.">
<polygon fill="white" stroke="#666666" points="2399,-189.5 2275,-189.5 2275,-159.5 2399,-159.5 2399,-189.5"/>
<text text-anchor="start" x="2283" y="-177.5" font-family="Helvetica,sans-Serif" font-size="10.00">projects/ad713x_fmcz</text>
<text text-anchor="middle" x="2337" y="-166.5" font-family="Helvetica,sans-Serif" font-size="10.00">/src/ad713x_fmc.c</text>
</a>
</g>
</g>
<!-- Node1&#45;&gt;Node33 -->
<g id="edge38_Node000001_Node000033" class="edge">
<title>Node1&#45;&gt;Node33</title>
<g id="a_edge38_Node000001_Node000033"><a xlink:title=" ">
<path fill="none" stroke="#63b8ff" d="M2067.83,-233.49C2121.88,-224.2 2198.49,-210.21 2265,-195 2272.2,-193.35 2279.76,-191.48 2287.16,-189.55"/>
<polygon fill="#63b8ff" stroke="#63b8ff" points="2066.93,-230.09 2057.67,-235.22 2068.11,-236.99 2066.93,-230.09"/>
</a>
</g>
</g>
<!-- Node34 -->
<g id="Node000034" class="node">
<title>Node34</title>
<g id="a_Node000034"><a xlink:href="ad738x__fmcz_2src_2platform_2lattice_2parameters_8h.html" target="_top" xlink:title="Definitions specific to Lattice platform used by ad738x_fmcz project.">
<polygon fill="white" stroke="#666666" points="2541,-195 2417,-195 2417,-154 2541,-154 2541,-195"/>
<text text-anchor="start" x="2425" y="-183" font-family="Helvetica,sans-Serif" font-size="10.00">projects/ad738x_fmcz</text>
<text text-anchor="start" x="2425" y="-172" font-family="Helvetica,sans-Serif" font-size="10.00">/src/platform/lattice</text>
<text text-anchor="middle" x="2479" y="-161" font-family="Helvetica,sans-Serif" font-size="10.00">/parameters.h</text>
</a>
</g>
</g>
<!-- Node1&#45;&gt;Node34 -->
<g id="edge39_Node000001_Node000034" class="edge">
<title>Node1&#45;&gt;Node34</title>
<g id="a_edge39_Node000001_Node000034"><a xlink:title=" ">
<path fill="none" stroke="#63b8ff" d="M2067.69,-239.64C2149.67,-232.61 2289.59,-218.35 2408,-195 2410.88,-194.43 2413.82,-193.81 2416.78,-193.14"/>
<polygon fill="#63b8ff" stroke="#63b8ff" points="2067.17,-236.17 2057.5,-240.5 2067.76,-243.14 2067.17,-236.17"/>
</a>
</g>
</g>
<!-- Node36 -->
<g id="Node000036" class="node">
<title>Node36</title>
<g id="a_Node000036"><a xlink:href="ad738x__fmcz_2src_2platform_2xilinx_2parameters_8h.html" target="_top" xlink:title="Definitions specific to xilinx platform used by ad463x_fmcz project.">
<polygon fill="white" stroke="#666666" points="2683,-195 2559,-195 2559,-154 2683,-154 2683,-195"/>
<text text-anchor="start" x="2567" y="-183" font-family="Helvetica,sans-Serif" font-size="10.00">projects/ad738x_fmcz</text>
<text text-anchor="start" x="2567" y="-172" font-family="Helvetica,sans-Serif" font-size="10.00">/src/platform/xilinx</text>
<text text-anchor="middle" x="2621" y="-161" font-family="Helvetica,sans-Serif" font-size="10.00">/parameters.h</text>
</a>
</g>
</g>
<!-- Node1&#45;&gt;Node36 -->
<g id="edge41_Node000001_Node000036" class="edge">
<title>Node1&#45;&gt;Node36</title>
<g id="a_edge41_Node000001_Node000036"><a xlink:title=" ">
<path fill="none" stroke="#63b8ff" d="M2067.87,-242.65C2173.15,-238.21 2378.42,-226.08 2550,-195 2552.89,-194.48 2555.84,-193.89 2558.81,-193.25"/>
<polygon fill="#63b8ff" stroke="#63b8ff" points="2067.54,-239.16 2057.69,-243.07 2067.82,-246.15 2067.54,-239.16"/>
</a>
</g>
</g>
<!-- Node38 -->
<g id="Node000038" class="node">
<title>Node38</title>
<g id="a_Node000038"><a xlink:href="ad7606x-fmc_2src_2common__data_8c.html" target="_top" xlink:title="Definitions of initialization parameters common for all project variants.">
<polygon fill="white" stroke="#666666" points="2824.5,-189.5 2701.5,-189.5 2701.5,-159.5 2824.5,-159.5 2824.5,-189.5"/>
<text text-anchor="start" x="2709.5" y="-177.5" font-family="Helvetica,sans-Serif" font-size="10.00">projects/ad7606x&#45;fmc</text>
<text text-anchor="middle" x="2763" y="-166.5" font-family="Helvetica,sans-Serif" font-size="10.00">/src/common_data.c</text>
</a>
</g>
</g>
<!-- Node1&#45;&gt;Node38 -->
<g id="edge43_Node000001_Node000038" class="edge">
<title>Node1&#45;&gt;Node38</title>
<g id="a_edge43_Node000001_Node000038"><a xlink:title=" ">
<path fill="none" stroke="#63b8ff" d="M2068.15,-244.48C2194.03,-242.53 2466.19,-233.76 2692,-195 2700.19,-193.59 2708.8,-191.65 2717.08,-189.52"/>
<polygon fill="#63b8ff" stroke="#63b8ff" points="2067.84,-240.98 2057.89,-244.62 2067.94,-247.98 2067.84,-240.98"/>
</a>
</g>
</g>
<!-- Node39 -->
<g id="Node000039" class="node">
<title>Node39</title>
<g id="a_Node000039"><a xlink:href="ad7616__sdz_8c.html" target="_top" xlink:title="Implementation of Main Function.">
<polygon fill="white" stroke="#666666" points="2957.5,-189.5 2842.5,-189.5 2842.5,-159.5 2957.5,-159.5 2957.5,-189.5"/>
<text text-anchor="start" x="2850.5" y="-177.5" font-family="Helvetica,sans-Serif" font-size="10.00">projects/ad7616&#45;sdz</text>
<text text-anchor="middle" x="2900" y="-166.5" font-family="Helvetica,sans-Serif" font-size="10.00">/src/ad7616_sdz.c</text>
</a>
</g>
</g>
<!-- Node1&#45;&gt;Node39 -->
<g id="edge44_Node000001_Node000039" class="edge">
<title>Node1&#45;&gt;Node39</title>
<g id="a_edge44_Node000001_Node000039"><a xlink:title=" ">
<path fill="none" stroke="#63b8ff" d="M2067.67,-242.87C2240.85,-237.26 2687.44,-220.69 2834,-195 2841.77,-193.64 2849.92,-191.68 2857.73,-189.53"/>
<polygon fill="#63b8ff" stroke="#63b8ff" points="2067.53,-239.38 2057.65,-243.2 2067.76,-246.37 2067.53,-239.38"/>
</a>
</g>
</g>
<!-- Node40 -->
<g id="Node000040" class="node">
<title>Node40</title>
<g id="a_Node000040"><a xlink:href="ad77681evb_8c.html" target="_top" xlink:title="Implementation of Main Function.">
<polygon fill="white" stroke="#666666" points="3104,-189.5 2976,-189.5 2976,-159.5 3104,-159.5 3104,-189.5"/>
<text text-anchor="start" x="2984" y="-177.5" font-family="Helvetica,sans-Serif" font-size="10.00">projects/ad7768&#45;1fmcz</text>
<text text-anchor="middle" x="3040" y="-166.5" font-family="Helvetica,sans-Serif" font-size="10.00">/src/ad77681evb.c</text>
</a>
</g>
</g>
<!-- Node1&#45;&gt;Node40 -->
<g id="edge45_Node000001_Node000040" class="edge">
<title>Node1&#45;&gt;Node40</title>
<g id="a_edge45_Node000001_Node000040"><a xlink:title=" ">
<path fill="none" stroke="#63b8ff" d="M2068.02,-243.29C2260.29,-238.3 2793.6,-222.32 2967,-195 2975.55,-193.65 2984.55,-191.7 2993.19,-189.55"/>
<polygon fill="#63b8ff" stroke="#63b8ff" points="2067.66,-239.8 2057.76,-243.56 2067.84,-246.8 2067.66,-239.8"/>
</a>
</g>
</g>
<!-- Node41 -->
<g id="Node000041" class="node">
<title>Node41</title>
<g id="a_Node000041"><a xlink:href="cn0561_8c.html" target="_top" xlink:title="Implementation of Main Function.">
<polygon fill="white" stroke="#666666" points="3233.5,-189.5 3122.5,-189.5 3122.5,-159.5 3233.5,-159.5 3233.5,-189.5"/>
<text text-anchor="start" x="3130.5" y="-177.5" font-family="Helvetica,sans-Serif" font-size="10.00">projects/cn0561/src</text>
<text text-anchor="middle" x="3178" y="-166.5" font-family="Helvetica,sans-Serif" font-size="10.00">/cn0561.c</text>
</a>
</g>
</g>
<!-- Node1&#45;&gt;Node41 -->
<g id="edge46_Node000001_Node000041" class="edge">
<title>Node1&#45;&gt;Node41</title>
<g id="a_edge46_Node000001_Node000041"><a xlink:title=" ">
<path fill="none" stroke="#63b8ff" d="M2067.83,-244.12C2279.3,-241.09 2910.59,-229.36 3113,-195 3120.78,-193.68 3128.94,-191.71 3136.75,-189.53"/>
<polygon fill="#63b8ff" stroke="#63b8ff" points="2067.73,-240.62 2057.78,-244.26 2067.83,-247.62 2067.73,-240.62"/>
</a>
</g>
</g>
<!-- Node42 -->
<g id="Node000042" class="node">
<title>Node42</title>
<g id="a_Node000042"><a xlink:href="pulsar-adc_2src_2platform_2xilinx_2parameters_8h.html" target="_top" xlink:title="Definitions specific to xilinx platform used by pulsar&#45;adc project.">
<polygon fill="white" stroke="#666666" points="3362,-195 3252,-195 3252,-154 3362,-154 3362,-195"/>
<text text-anchor="start" x="3260" y="-183" font-family="Helvetica,sans-Serif" font-size="10.00">projects/pulsar&#45;adc</text>
<text text-anchor="start" x="3260" y="-172" font-family="Helvetica,sans-Serif" font-size="10.00">/src/platform/xilinx</text>
<text text-anchor="middle" x="3307" y="-161" font-family="Helvetica,sans-Serif" font-size="10.00">/parameters.h</text>
</a>
</g>
</g>
<!-- Node1&#45;&gt;Node42 -->
<g id="edge47_Node000001_Node000042" class="edge">
<title>Node1&#45;&gt;Node42</title>
<g id="a_edge47_Node000001_Node000042"><a xlink:title=" ">
<path fill="none" stroke="#63b8ff" d="M2067.66,-244.54C2295.08,-242.67 3014.31,-233.77 3243,-195 3245.86,-194.51 3248.78,-193.94 3251.71,-193.29"/>
<polygon fill="#63b8ff" stroke="#63b8ff" points="2067.5,-241.04 2057.52,-244.62 2067.55,-248.04 2067.5,-241.04"/>
</a>
</g>
</g>
<!-- Node3 -->
<g id="Node000003" class="node">
<title>Node3</title>
<g id="a_Node000003"><a xlink:href="ad463x_8c.html" target="_top" xlink:title="Implementation of AD463x Driver.">
<polygon fill="white" stroke="#666666" points="110,-112.5 0,-112.5 0,-82.5 110,-82.5 110,-112.5"/>
<text text-anchor="start" x="8" y="-100.5" font-family="Helvetica,sans-Serif" font-size="10.00">drivers/adc/ad463x</text>
<text text-anchor="middle" x="55" y="-89.5" font-family="Helvetica,sans-Serif" font-size="10.00">/ad463x.c</text>
</a>
</g>
</g>
<!-- Node2&#45;&gt;Node3 -->
<g id="edge2_Node000002_Node000003" class="edge">
<title>Node2&#45;&gt;Node3</title>
<g id="a_edge2_Node000002_Node000003"><a xlink:title=" ">
<path fill="none" stroke="#63b8ff" d="M170.9,-154.94C143.97,-141.83 108.43,-124.52 83.84,-112.54"/>
<polygon fill="#63b8ff" stroke="#63b8ff" points="169.51,-158.16 180.03,-159.39 172.58,-151.87 169.51,-158.16"/>
</a>
</g>
</g>
<!-- Node4 -->
<g id="Node000004" class="node">
<title>Node4</title>
<g id="a_Node000004"><a xlink:href="ad463x__fmcz_2src_2common_2common__data_8h.html" target="_top" xlink:title="Defines common data to be used by ad463x&#45;fmcz examples.">
<polygon fill="white" stroke="#666666" points="289.5,-112.5 128.5,-112.5 128.5,-82.5 289.5,-82.5 289.5,-112.5"/>
<text text-anchor="start" x="136.5" y="-100.5" font-family="Helvetica,sans-Serif" font-size="10.00">projects/ad463x_fmcz</text>
<text text-anchor="middle" x="209" y="-89.5" font-family="Helvetica,sans-Serif" font-size="10.00">/src/common/common_data.h</text>
</a>
</g>
</g>
<!-- Node2&#45;&gt;Node4 -->
<g id="edge3_Node000002_Node000004" class="edge">
<title>Node2&#45;&gt;Node4</title>
<g id="a_edge3_Node000002_Node000004"><a xlink:title=" ">
<path fill="none" stroke="#63b8ff" d="M209,-149.04C209,-136.95 209,-122.79 209,-112.54"/>
<polygon fill="#63b8ff" stroke="#63b8ff" points="205.5,-149.39 209,-159.39 212.5,-149.39 205.5,-149.39"/>
</a>
</g>
</g>
<!-- Node5 -->
<g id="Node000005" class="node">
<title>Node5</title>
<g id="a_Node000005"><a xlink:href="ad463x__fmcz_2src_2common_2common__data_8c.html" target="_top" xlink:title="Defines common data to be used by ad463x_fmcz examples.">
<polygon fill="white" stroke="#666666" points="289.5,-35.5 128.5,-35.5 128.5,-5.5 289.5,-5.5 289.5,-35.5"/>
<text text-anchor="start" x="136.5" y="-23.5" font-family="Helvetica,sans-Serif" font-size="10.00">projects/ad463x_fmcz</text>
<text text-anchor="middle" x="209" y="-12.5" font-family="Helvetica,sans-Serif" font-size="10.00">/src/common/common_data.c</text>
</a>
</g>
</g>
<!-- Node4&#45;&gt;Node5 -->
<g id="edge4_Node000004_Node000005" class="edge">
<title>Node4&#45;&gt;Node5</title>
<g id="a_edge4_Node000004_Node000005"><a xlink:title=" ">
<path fill="none" stroke="#63b8ff" d="M209,-72.04C209,-59.95 209,-45.79 209,-35.54"/>
<polygon fill="#63b8ff" stroke="#63b8ff" points="205.5,-72.39 209,-82.39 212.5,-72.39 205.5,-72.39"/>
</a>
</g>
</g>
<!-- Node7&#45;&gt;Node6 -->
<g id="edge7_Node000007_Node000006" class="edge">
<title>Node7&#45;&gt;Node6</title>
<g id="a_edge7_Node000007_Node000006"><a xlink:title=" ">
<path fill="none" stroke="#63b8ff" d="M572.61,-156.76C532.56,-145.81 479.15,-131.14 432,-118 425.76,-116.26 419.22,-114.43 412.74,-112.6"/>
<polygon fill="#63b8ff" stroke="#63b8ff" points="571.93,-160.2 582.5,-159.46 573.77,-153.45 571.93,-160.2"/>
</a>
</g>
</g>
<!-- Node8 -->
<g id="Node000008" class="node">
<title>Node8</title>
<g id="a_Node000008"><a xlink:href="ad469x__evb_2src_2common_2common__data_8c.html" target="_top" xlink:title="Defines common data to be used by ad469x_evb examples.">
<polygon fill="white" stroke="#666666" points="580.5,-35.5 419.5,-35.5 419.5,-5.5 580.5,-5.5 580.5,-35.5"/>
<text text-anchor="start" x="427.5" y="-23.5" font-family="Helvetica,sans-Serif" font-size="10.00">projects/ad469x_evb</text>
<text text-anchor="middle" x="500" y="-12.5" font-family="Helvetica,sans-Serif" font-size="10.00">/src/common/common_data.c</text>
</a>
</g>
</g>
<!-- Node7&#45;&gt;Node8 -->
<g id="edge8_Node000007_Node000008" class="edge">
<title>Node7&#45;&gt;Node8</title>
<g id="a_edge8_Node000007_Node000008"><a xlink:title=" ">
<path fill="none" stroke="#63b8ff" d="M568.42,-170C531.62,-164.28 488.51,-150.47 465,-118 446.39,-92.31 470.58,-55.69 487.05,-35.76"/>
<polygon fill="#63b8ff" stroke="#63b8ff" points="568.22,-173.51 578.61,-171.41 569.18,-166.58 568.22,-173.51"/>
</a>
</g>
</g>
<!-- Node9 -->
<g id="Node000009" class="node">
<title>Node9</title>
<g id="a_Node000009"><a xlink:href="ad469x__evb_2src_2common_2common__data_8h.html" target="_top" xlink:title="Defines common data to be used by ad469x_evb examples.">
<polygon fill="white" stroke="#666666" points="635.5,-112.5 474.5,-112.5 474.5,-82.5 635.5,-82.5 635.5,-112.5"/>
<text text-anchor="start" x="482.5" y="-100.5" font-family="Helvetica,sans-Serif" font-size="10.00">projects/ad469x_evb</text>
<text text-anchor="middle" x="555" y="-89.5" font-family="Helvetica,sans-Serif" font-size="10.00">/src/common/common_data.h</text>
</a>
</g>
</g>
<!-- Node7&#45;&gt;Node9 -->
<g id="edge9_Node000007_Node000009" class="edge">
<title>Node7&#45;&gt;Node9</title>
<g id="a_edge9_Node000007_Node000009"><a xlink:title=" ">
<path fill="none" stroke="#63b8ff" d="M611.69,-152.32C598.27,-139.58 581.58,-123.74 569.79,-112.54"/>
<polygon fill="#63b8ff" stroke="#63b8ff" points="609.48,-155.05 619.14,-159.39 614.3,-149.97 609.48,-155.05"/>
</a>
</g>
</g>
<!-- Node10 -->
<g id="Node000010" class="node">
<title>Node10</title>
<g id="a_Node000010"><a xlink:href="ad469x__evb_2src_2examples_2basic_2basic__example_8c.html" target="_top" xlink:title="Implementation of Basic example.">
<polygon fill="white" stroke="#666666" points="772,-118 654,-118 654,-77 772,-77 772,-118"/>
<text text-anchor="start" x="662" y="-106" font-family="Helvetica,sans-Serif" font-size="10.00">projects/ad469x_evb</text>
<text text-anchor="start" x="662" y="-95" font-family="Helvetica,sans-Serif" font-size="10.00">/src/examples/basic</text>
<text text-anchor="middle" x="713" y="-84" font-family="Helvetica,sans-Serif" font-size="10.00">/basic_example.c</text>
</a>
</g>
</g>
<!-- Node7&#45;&gt;Node10 -->
<g id="edge11_Node000007_Node000010" class="edge">
<title>Node7&#45;&gt;Node10</title>
<g id="a_edge11_Node000007_Node000010"><a xlink:title=" ">
<path fill="none" stroke="#63b8ff" d="M656.24,-152.38C667.54,-141.66 681.17,-128.72 692.25,-118.2"/>
<polygon fill="#63b8ff" stroke="#63b8ff" points="653.7,-149.97 648.86,-159.39 658.52,-155.05 653.7,-149.97"/>
</a>
</g>
</g>
<!-- Node11 -->
<g id="Node000011" class="node">
<title>Node11</title>
<g id="a_Node000011"><a xlink:href="ad469x__evb_2src_2examples_2iio_2iio__example_8c.html" target="_top" xlink:title="Implementation of IIO example for ad469x_evb project.">
<polygon fill="white" stroke="#666666" points="908,-118 790,-118 790,-77 908,-77 908,-118"/>
<text text-anchor="start" x="798" y="-106" font-family="Helvetica,sans-Serif" font-size="10.00">projects/ad469x_evb</text>
<text text-anchor="start" x="798" y="-95" font-family="Helvetica,sans-Serif" font-size="10.00">/src/examples/iio/iio</text>
<text text-anchor="middle" x="849" y="-84" font-family="Helvetica,sans-Serif" font-size="10.00">_example.c</text>
</a>
</g>
</g>
<!-- Node7&#45;&gt;Node11 -->
<g id="edge12_Node000007_Node000011" class="edge">
<title>Node7&#45;&gt;Node11</title>
<g id="a_edge12_Node000007_Node000011"><a xlink:title=" ">
<path fill="none" stroke="#63b8ff" d="M683.95,-156.08C716.51,-144.72 759.05,-129.88 792.79,-118.11"/>
<polygon fill="#63b8ff" stroke="#63b8ff" points="682.48,-152.88 674.19,-159.48 684.78,-159.49 682.48,-152.88"/>
</a>
</g>
</g>
<!-- Node9&#45;&gt;Node8 -->
<g id="edge10_Node000009_Node000008" class="edge">
<title>Node9&#45;&gt;Node8</title>
<g id="a_edge10_Node000009_Node000008"><a xlink:title=" ">
<path fill="none" stroke="#63b8ff" d="M538.67,-74.24C529.48,-61.7 518.28,-46.42 510.3,-35.54"/>
<polygon fill="#63b8ff" stroke="#63b8ff" points="535.92,-76.4 544.65,-82.39 541.56,-72.26 535.92,-76.4"/>
</a>
</g>
</g>
<!-- Node14 -->
<g id="Node000014" class="node">
<title>Node14</title>
<g id="a_Node000014"><a xlink:href="adaq7980_8c.html" target="_top" xlink:title="Implementation adaq7980 Driver.">
<polygon fill="white" stroke="#666666" points="1048,-112.5 926,-112.5 926,-82.5 1048,-82.5 1048,-112.5"/>
<text text-anchor="start" x="934" y="-100.5" font-family="Helvetica,sans-Serif" font-size="10.00">drivers/adc/adaq7980</text>
<text text-anchor="middle" x="987" y="-89.5" font-family="Helvetica,sans-Serif" font-size="10.00">/adaq7980.c</text>
</a>
</g>
</g>
<!-- Node13&#45;&gt;Node14 -->
<g id="edge15_Node000013_Node000014" class="edge">
<title>Node13&#45;&gt;Node14</title>
<g id="a_edge15_Node000013_Node000014"><a xlink:title=" ">
<path fill="none" stroke="#63b8ff" d="M1111.56,-155.12C1082.66,-141.98 1044.36,-124.57 1017.9,-112.54"/>
<polygon fill="#63b8ff" stroke="#63b8ff" points="1110.41,-158.44 1120.96,-159.39 1113.31,-152.07 1110.41,-158.44"/>
</a>
</g>
</g>
<!-- Node15 -->
<g id="Node000015" class="node">
<title>Node15</title>
<g id="a_Node000015"><a xlink:href="adaq7980__sdz_8c.html" target="_top" xlink:title="Implementation of Main Function.">
<polygon fill="white" stroke="#666666" points="1194,-112.5 1066,-112.5 1066,-82.5 1194,-82.5 1194,-112.5"/>
<text text-anchor="start" x="1074" y="-100.5" font-family="Helvetica,sans-Serif" font-size="10.00">projects/adaq7980_sdz</text>
<text text-anchor="middle" x="1130" y="-89.5" font-family="Helvetica,sans-Serif" font-size="10.00">/src/adaq7980_sdz.c</text>
</a>
</g>
</g>
<!-- Node13&#45;&gt;Node15 -->
<g id="edge16_Node000013_Node000015" class="edge">
<title>Node13&#45;&gt;Node15</title>
<g id="a_edge16_Node000013_Node000015"><a xlink:title=" ">
<path fill="none" stroke="#63b8ff" d="M1145.04,-149.78C1141.45,-137.53 1137.19,-123 1134.12,-112.54"/>
<polygon fill="#63b8ff" stroke="#63b8ff" points="1141.69,-150.78 1147.86,-159.39 1148.41,-148.81 1141.69,-150.78"/>
</a>
</g>
</g>
<!-- Node17&#45;&gt;Node16 -->
<g id="edge23_Node000017_Node000016" class="edge">
<title>Node17&#45;&gt;Node16</title>
<g id="a_edge23_Node000017_Node000016"><a xlink:title=" ">
<path fill="none" stroke="#63b8ff" d="M1463.17,-156.59C1425.16,-145.64 1374.64,-131.05 1330,-118 1324.04,-116.26 1317.77,-114.42 1311.58,-112.59"/>
<polygon fill="#63b8ff" stroke="#63b8ff" points="1462.47,-160.03 1473.05,-159.44 1464.41,-153.31 1462.47,-160.03"/>
</a>
</g>
</g>
<!-- Node18 -->
<g id="Node000018" class="node">
<title>Node18</title>
<g id="a_Node000018"><a xlink:href="iio__pulsar__adc_8c.html" target="_top" xlink:title="Implementation of pulsar_adc IIO Driver.">
<polygon fill="white" stroke="#666666" points="1404,-35.5 1284,-35.5 1284,-5.5 1404,-5.5 1404,-35.5"/>
<text text-anchor="start" x="1292" y="-23.5" font-family="Helvetica,sans-Serif" font-size="10.00">drivers/adc/pulsar</text>
<text text-anchor="middle" x="1344" y="-12.5" font-family="Helvetica,sans-Serif" font-size="10.00">_adc/iio_pulsar_adc.c</text>
</a>
</g>
</g>
<!-- Node17&#45;&gt;Node18 -->
<g id="edge19_Node000017_Node000018" class="edge">
<title>Node17&#45;&gt;Node18</title>
<g id="a_edge19_Node000017_Node000018"><a xlink:title=" ">
<path fill="none" stroke="#63b8ff" d="M1459.65,-166.69C1426.3,-159.8 1387.22,-145.92 1363,-118 1342.86,-94.79 1341.65,-56.51 1342.7,-35.83"/>
<polygon fill="#63b8ff" stroke="#63b8ff" points="1459.32,-170.19 1469.79,-168.62 1460.62,-163.32 1459.32,-170.19"/>
</a>
</g>
</g>
<!-- Node19 -->
<g id="Node000019" class="node">
<title>Node19</title>
<g id="a_Node000019"><a xlink:href="iio__pulsar__adc_8h.html" target="_top" xlink:title="Header file for PULSAR_ADC IIO interface.">
<polygon fill="white" stroke="#666666" points="1493.5,-112.5 1372.5,-112.5 1372.5,-82.5 1493.5,-82.5 1493.5,-112.5"/>
<text text-anchor="start" x="1380.5" y="-100.5" font-family="Helvetica,sans-Serif" font-size="10.00">drivers/adc/pulsar</text>
<text text-anchor="middle" x="1433" y="-89.5" font-family="Helvetica,sans-Serif" font-size="10.00">_adc/iio_pulsar_adc.h</text>
</a>
</g>
</g>
<!-- Node17&#45;&gt;Node19 -->
<g id="edge20_Node000017_Node000019" class="edge">
<title>Node17&#45;&gt;Node19</title>
<g id="a_edge20_Node000017_Node000019"><a xlink:title=" ">
<path fill="none" stroke="#63b8ff" d="M1497.28,-152.67C1482.1,-139.88 1463.07,-123.84 1449.67,-112.54"/>
<polygon fill="#63b8ff" stroke="#63b8ff" points="1495.36,-155.63 1505.26,-159.39 1499.87,-150.27 1495.36,-155.63"/>
</a>
</g>
</g>
<!-- Node20 -->
<g id="Node000020" class="node">
<title>Node20</title>
<g id="a_Node000020"><a xlink:href="pulsar-adc_2src_2examples_2iio__example_2iio__example_8c.html" target="_top" xlink:title="IIO example header for eval&#45;pulsar_adc project.">
<polygon fill="white" stroke="#666666" points="1570,-41 1422,-41 1422,0 1570,0 1570,-41"/>
<text text-anchor="start" x="1430" y="-29" font-family="Helvetica,sans-Serif" font-size="10.00">projects/pulsar&#45;adc</text>
<text text-anchor="start" x="1430" y="-18" font-family="Helvetica,sans-Serif" font-size="10.00">/src/examples/iio_example</text>
<text text-anchor="middle" x="1496" y="-7" font-family="Helvetica,sans-Serif" font-size="10.00">/iio_example.c</text>
</a>
</g>
</g>
<!-- Node17&#45;&gt;Node20 -->
<g id="edge28_Node000017_Node000020" class="edge">
<title>Node17&#45;&gt;Node20</title>
<g id="a_edge28_Node000017_Node000020"><a xlink:title=" ">
<path fill="none" stroke="#63b8ff" d="M1517.89,-149.46C1512.77,-119.51 1504.11,-68.93 1499.37,-41.18"/>
<polygon fill="#63b8ff" stroke="#63b8ff" points="1514.46,-150.21 1519.6,-159.47 1521.36,-149.03 1514.46,-150.21"/>
</a>
</g>
</g>
<!-- Node21 -->
<g id="Node000021" class="node">
<title>Node21</title>
<g id="a_Node000021"><a xlink:href="pulsar-adc_2src_2common_2common__data_8c.html" target="_top" xlink:title="Defines common data to be used by pulsar&#45;adc examples.">
<polygon fill="white" stroke="#666666" points="1749.5,-35.5 1588.5,-35.5 1588.5,-5.5 1749.5,-5.5 1749.5,-35.5"/>
<text text-anchor="start" x="1596.5" y="-23.5" font-family="Helvetica,sans-Serif" font-size="10.00">projects/pulsar&#45;adc</text>
<text text-anchor="middle" x="1669" y="-12.5" font-family="Helvetica,sans-Serif" font-size="10.00">/src/common/common_data.c</text>
</a>
</g>
</g>
<!-- Node17&#45;&gt;Node21 -->
<g id="edge24_Node000017_Node000021" class="edge">
<title>Node17&#45;&gt;Node21</title>
<g id="a_edge24_Node000017_Node000021"><a xlink:title=" ">
<path fill="none" stroke="#63b8ff" d="M1531.84,-150.15C1541.54,-129.18 1557.94,-98.46 1579,-77 1596.1,-59.57 1619.72,-45.27 1638.48,-35.56"/>
<polygon fill="#63b8ff" stroke="#63b8ff" points="1528.63,-148.75 1527.75,-159.31 1535.02,-151.61 1528.63,-148.75"/>
</a>
</g>
</g>
<!-- Node22 -->
<g id="Node000022" class="node">
<title>Node22</title>
<g id="a_Node000022"><a xlink:href="pulsar-adc_2src_2common_2common__data_8h.html" target="_top" xlink:title="Defines common data to be used by pulsar&#45;adc examples.">
<polygon fill="white" stroke="#666666" points="1749.5,-112.5 1588.5,-112.5 1588.5,-82.5 1749.5,-82.5 1749.5,-112.5"/>
<text text-anchor="start" x="1596.5" y="-100.5" font-family="Helvetica,sans-Serif" font-size="10.00">projects/pulsar&#45;adc</text>
<text text-anchor="middle" x="1669" y="-89.5" font-family="Helvetica,sans-Serif" font-size="10.00">/src/common/common_data.h</text>
</a>
</g>
</g>
<!-- Node17&#45;&gt;Node22 -->
<g id="edge25_Node000017_Node000022" class="edge">
<title>Node17&#45;&gt;Node22</title>
<g id="a_edge25_Node000017_Node000022"><a xlink:title=" ">
<path fill="none" stroke="#63b8ff" d="M1558.71,-154.77C1584.37,-141.68 1618.1,-124.47 1641.47,-112.54"/>
<polygon fill="#63b8ff" stroke="#63b8ff" points="1556.97,-151.73 1549.65,-159.39 1560.15,-157.97 1556.97,-151.73"/>
</a>
</g>
</g>
<!-- Node23 -->
<g id="Node000023" class="node">
<title>Node23</title>
<g id="a_Node000023"><a xlink:href="pulsar-adc_2src_2examples_2basic__example_2basic__example_8c.html" target="_top" xlink:title="Implementation of IIO example for basic_demo project.">
<polygon fill="white" stroke="#666666" points="1916.5,-118 1767.5,-118 1767.5,-77 1916.5,-77 1916.5,-118"/>
<text text-anchor="start" x="1775.5" y="-106" font-family="Helvetica,sans-Serif" font-size="10.00">projects/pulsar&#45;adc</text>
<text text-anchor="start" x="1775.5" y="-95" font-family="Helvetica,sans-Serif" font-size="10.00">/src/examples/basic</text>
<text text-anchor="middle" x="1842" y="-84" font-family="Helvetica,sans-Serif" font-size="10.00">_example/basic_example.c</text>
</a>
</g>
</g>
<!-- Node17&#45;&gt;Node23 -->
<g id="edge27_Node000017_Node000023" class="edge">
<title>Node17&#45;&gt;Node23</title>
<g id="a_edge27_Node000017_Node000023"><a xlink:title=" ">
<path fill="none" stroke="#63b8ff" d="M1573.47,-156.62C1576.69,-155.7 1579.88,-154.82 1583,-154 1659.82,-133.88 1680.43,-134.98 1758,-118 1761.07,-117.33 1764.2,-116.63 1767.37,-115.93"/>
<polygon fill="#63b8ff" stroke="#63b8ff" points="1572.42,-153.28 1563.83,-159.48 1574.41,-159.99 1572.42,-153.28"/>
</a>
</g>
</g>
<!-- Node19&#45;&gt;Node18 -->
<g id="edge21_Node000019_Node000018" class="edge">
<title>Node19&#45;&gt;Node18</title>
<g id="a_edge21_Node000019_Node000018"><a xlink:title=" ">
<path fill="none" stroke="#63b8ff" d="M1408.28,-75.67C1393.1,-62.88 1374.07,-46.84 1360.67,-35.54"/>
<polygon fill="#63b8ff" stroke="#63b8ff" points="1406.36,-78.63 1416.26,-82.39 1410.87,-73.27 1406.36,-78.63"/>
</a>
</g>
</g>
<!-- Node19&#45;&gt;Node20 -->
<g id="edge22_Node000019_Node000020" class="edge">
<title>Node19&#45;&gt;Node20</title>
<g id="a_edge22_Node000019_Node000020"><a xlink:title=" ">
<path fill="none" stroke="#63b8ff" d="M1451.52,-74.45C1460.37,-63.92 1470.87,-51.41 1479.45,-41.2"/>
<polygon fill="#63b8ff" stroke="#63b8ff" points="1448.6,-72.48 1444.85,-82.39 1453.96,-76.99 1448.6,-72.48"/>
</a>
</g>
</g>
<!-- Node22&#45;&gt;Node21 -->
<g id="edge26_Node000022_Node000021" class="edge">
<title>Node22&#45;&gt;Node21</title>
<g id="a_edge26_Node000022_Node000021"><a xlink:title=" ">
<path fill="none" stroke="#63b8ff" d="M1669,-72.04C1669,-59.95 1669,-45.79 1669,-35.54"/>
<polygon fill="#63b8ff" stroke="#63b8ff" points="1665.5,-72.39 1669,-82.39 1672.5,-72.39 1665.5,-72.39"/>
</a>
</g>
</g>
<!-- Node26 -->
<g id="Node000026" class="node">
<title>Node26</title>
<g id="a_Node000026"><a xlink:href="ad463x__fmcz_2src_2platform_2xilinx_2main_8c.html" target="_top" xlink:title="Main file for xilinx platform of ad463x_fmcz project.">
<polygon fill="white" stroke="#666666" points="2058,-118 1934,-118 1934,-77 2058,-77 2058,-118"/>
<text text-anchor="start" x="1942" y="-106" font-family="Helvetica,sans-Serif" font-size="10.00">projects/ad463x_fmcz</text>
<text text-anchor="start" x="1942" y="-95" font-family="Helvetica,sans-Serif" font-size="10.00">/src/platform/xilinx</text>
<text text-anchor="middle" x="1996" y="-84" font-family="Helvetica,sans-Serif" font-size="10.00">/main.c</text>
</a>
</g>
</g>
<!-- Node25&#45;&gt;Node26 -->
<g id="edge31_Node000025_Node000026" class="edge">
<title>Node25&#45;&gt;Node26</title>
<g id="a_edge31_Node000025_Node000026"><a xlink:title=" ">
<path fill="none" stroke="#63b8ff" d="M1854.45,-150.54C1882.72,-140.15 1915.79,-127.99 1942.85,-118.04"/>
<polygon fill="#63b8ff" stroke="#63b8ff" points="1853.24,-147.25 1845.07,-153.99 1855.66,-153.82 1853.24,-147.25"/>
</a>
</g>
</g>
<!-- Node27 -->
<g id="Node000027" class="node">
<title>Node27</title>
<g id="a_Node000027"><a xlink:href="ad463x__fmcz_2src_2platform_2xilinx_2parameters_8c.html" target="_top" xlink:title="Definition of xilinx platform data used by ad463x_fmcz project.">
<polygon fill="white" stroke="#666666" points="2200,-118 2076,-118 2076,-77 2200,-77 2200,-118"/>
<text text-anchor="start" x="2084" y="-106" font-family="Helvetica,sans-Serif" font-size="10.00">projects/ad463x_fmcz</text>
<text text-anchor="start" x="2084" y="-95" font-family="Helvetica,sans-Serif" font-size="10.00">/src/platform/xilinx</text>
<text text-anchor="middle" x="2138" y="-84" font-family="Helvetica,sans-Serif" font-size="10.00">/parameters.c</text>
</a>
</g>
</g>
<!-- Node25&#45;&gt;Node27 -->
<g id="edge32_Node000025_Node000027" class="edge">
<title>Node25&#45;&gt;Node27</title>
<g id="a_edge32_Node000025_Node000027"><a xlink:title=" ">
<path fill="none" stroke="#63b8ff" d="M1864.11,-153.86C1954.56,-134.06 1980.25,-137.52 2067,-118 2069.87,-117.35 2072.79,-116.67 2075.74,-115.95"/>
<polygon fill="#63b8ff" stroke="#63b8ff" points="1863.26,-150.46 1854.26,-156.05 1864.78,-157.29 1863.26,-150.46"/>
</a>
</g>
</g>
<!-- Node29 -->
<g id="Node000029" class="node">
<title>Node29</title>
<g id="a_Node000029"><a xlink:href="ad469x__evb_2src_2platform_2xilinx_2main_8c.html" target="_top" xlink:title="Main file for xilinx platform of ad469x_evb project.">
<polygon fill="white" stroke="#666666" points="2336,-118 2218,-118 2218,-77 2336,-77 2336,-118"/>
<text text-anchor="start" x="2226" y="-106" font-family="Helvetica,sans-Serif" font-size="10.00">projects/ad469x_evb</text>
<text text-anchor="start" x="2226" y="-95" font-family="Helvetica,sans-Serif" font-size="10.00">/src/platform/xilinx</text>
<text text-anchor="middle" x="2277" y="-84" font-family="Helvetica,sans-Serif" font-size="10.00">/main.c</text>
</a>
</g>
</g>
<!-- Node28&#45;&gt;Node29 -->
<g id="edge34_Node000028_Node000029" class="edge">
<title>Node28&#45;&gt;Node29</title>
<g id="a_edge34_Node000028_Node000029"><a xlink:title=" ">
<path fill="none" stroke="#63b8ff" d="M2000.06,-153.88C2093.08,-133.3 2119.75,-138.38 2209,-118 2211.87,-117.34 2214.81,-116.64 2217.76,-115.9"/>
<polygon fill="#63b8ff" stroke="#63b8ff" points="1999.22,-150.49 1990.24,-156.1 2000.76,-157.31 1999.22,-150.49"/>
</a>
</g>
</g>
<!-- Node30 -->
<g id="Node000030" class="node">
<title>Node30</title>
<g id="a_Node000030"><a xlink:href="ad469x__evb_2src_2platform_2xilinx_2parameters_8c.html" target="_top" xlink:title="Definition of xilinx platform data used by ad469x_evb project.">
<polygon fill="white" stroke="#666666" points="2472,-118 2354,-118 2354,-77 2472,-77 2472,-118"/>
<text text-anchor="start" x="2362" y="-106" font-family="Helvetica,sans-Serif" font-size="10.00">projects/ad469x_evb</text>
<text text-anchor="start" x="2362" y="-95" font-family="Helvetica,sans-Serif" font-size="10.00">/src/platform/xilinx</text>
<text text-anchor="middle" x="2413" y="-84" font-family="Helvetica,sans-Serif" font-size="10.00">/parameters.c</text>
</a>
</g>
</g>
<!-- Node28&#45;&gt;Node30 -->
<g id="edge35_Node000028_Node000030" class="edge">
<title>Node28&#45;&gt;Node30</title>
<g id="a_edge35_Node000028_Node000030"><a xlink:title=" ">
<path fill="none" stroke="#63b8ff" d="M2000.38,-153.92C2152.66,-125.53 2196.48,-146.79 2345,-118 2347.89,-117.44 2350.84,-116.81 2353.81,-116.14"/>
<polygon fill="#63b8ff" stroke="#63b8ff" points="1999.36,-150.55 1990.19,-155.86 2000.67,-157.43 1999.36,-150.55"/>
</a>
</g>
</g>
<!-- Node35 -->
<g id="Node000035" class="node">
<title>Node35</title>
<g id="a_Node000035"><a xlink:href="ad738x__fmcz_2src_2platform_2lattice_2parameters_8c.html" target="_top" xlink:title="Definition of Lattice platform data used by ad738x_fmcz project.">
<polygon fill="white" stroke="#666666" points="2614,-118 2490,-118 2490,-77 2614,-77 2614,-118"/>
<text text-anchor="start" x="2498" y="-106" font-family="Helvetica,sans-Serif" font-size="10.00">projects/ad738x_fmcz</text>
<text text-anchor="start" x="2498" y="-95" font-family="Helvetica,sans-Serif" font-size="10.00">/src/platform/lattice</text>
<text text-anchor="middle" x="2552" y="-84" font-family="Helvetica,sans-Serif" font-size="10.00">/parameters.c</text>
</a>
</g>
</g>
<!-- Node34&#45;&gt;Node35 -->
<g id="edge40_Node000034_Node000035" class="edge">
<title>Node34&#45;&gt;Node35</title>
<g id="a_edge40_Node000034_Node000035"><a xlink:title=" ">
<path fill="none" stroke="#63b8ff" d="M2505.27,-146.51C2514.42,-137.11 2524.5,-126.76 2532.95,-118.07"/>
<polygon fill="#63b8ff" stroke="#63b8ff" points="2502.65,-144.19 2498.18,-153.79 2507.66,-149.07 2502.65,-144.19"/>
</a>
</g>
</g>
<!-- Node37 -->
<g id="Node000037" class="node">
<title>Node37</title>
<g id="a_Node000037"><a xlink:href="ad738x__fmcz_2src_2platform_2xilinx_2parameters_8c.html" target="_top" xlink:title="Definition of xilinx platform data used by ad463x_fmcz project.">
<polygon fill="white" stroke="#666666" points="2756,-118 2632,-118 2632,-77 2756,-77 2756,-118"/>
<text text-anchor="start" x="2640" y="-106" font-family="Helvetica,sans-Serif" font-size="10.00">projects/ad738x_fmcz</text>
<text text-anchor="start" x="2640" y="-95" font-family="Helvetica,sans-Serif" font-size="10.00">/src/platform/xilinx</text>
<text text-anchor="middle" x="2694" y="-84" font-family="Helvetica,sans-Serif" font-size="10.00">/parameters.c</text>
</a>
</g>
</g>
<!-- Node36&#45;&gt;Node37 -->
<g id="edge42_Node000036_Node000037" class="edge">
<title>Node36&#45;&gt;Node37</title>
<g id="a_edge42_Node000036_Node000037"><a xlink:title=" ">
<path fill="none" stroke="#63b8ff" d="M2647.27,-146.51C2656.42,-137.11 2666.5,-126.76 2674.95,-118.07"/>
<polygon fill="#63b8ff" stroke="#63b8ff" points="2644.65,-144.19 2640.18,-153.79 2649.66,-149.07 2644.65,-144.19"/>
</a>
</g>
</g>
<!-- Node43 -->
<g id="Node000043" class="node">
<title>Node43</title>
<g id="a_Node000043"><a xlink:href="pulsar-adc_2src_2platform_2xilinx_2parameters_8c.html" target="_top" xlink:title="Definition of xilinx platform data used by pulsar&#45;adc project.">
<polygon fill="white" stroke="#666666" points="3362,-118 3252,-118 3252,-77 3362,-77 3362,-118"/>
<text text-anchor="start" x="3260" y="-106" font-family="Helvetica,sans-Serif" font-size="10.00">projects/pulsar&#45;adc</text>
<text text-anchor="start" x="3260" y="-95" font-family="Helvetica,sans-Serif" font-size="10.00">/src/platform/xilinx</text>
<text text-anchor="middle" x="3307" y="-84" font-family="Helvetica,sans-Serif" font-size="10.00">/parameters.c</text>
</a>
</g>
</g>
<!-- Node42&#45;&gt;Node43 -->
<g id="edge48_Node000042_Node000043" class="edge">
<title>Node42&#45;&gt;Node43</title>
<g id="a_edge48_Node000042_Node000043"><a xlink:title=" ">
<path fill="none" stroke="#63b8ff" d="M3307,-143.69C3307,-135.08 3307,-125.9 3307,-118.07"/>
<polygon fill="#63b8ff" stroke="#63b8ff" points="3303.5,-143.79 3307,-153.79 3310.5,-143.79 3303.5,-143.79"/>
</a>
</g>
</g>
</g>
</svg>
