<?xml version="1.0" encoding="UTF-8" standalone="no"?>
<!DOCTYPE svg PUBLIC "-//W3C//DTD SVG 1.1//EN"
 "http://www.w3.org/Graphics/SVG/1.1/DTD/svg11.dtd">
<!-- Generated by graphviz version 2.43.0 (0)
 -->
<!-- Title: ssd_1306_move_cursor Pages: 1 -->
<svg width="739pt" height="82pt"
 viewBox="0.00 0.00 739.00 82.00" xmlns="http://www.w3.org/2000/svg" xmlns:xlink="http://www.w3.org/1999/xlink">
<g id="graph0" class="graph" transform="scale(1 1) rotate(0) translate(4 78)">
<title>ssd_1306_move_cursor</title>
<!-- Node1 -->
<g id="Node000001" class="node">
<title>Node1</title>
<g id="a_Node000001"><a xlink:title="Moves cursor to desired row/column.">
<polygon fill="#999999" stroke="#666666" points="731,-55 600,-55 600,-36 731,-36 731,-55"/>
<text text-anchor="middle" x="665.5" y="-43" font-family="Helvetica,sans-Serif" font-size="10.00">ssd_1306_move_cursor</text>
</a>
</g>
</g>
<!-- Node2 -->
<g id="Node000002" class="node">
<title>Node2</title>
<g id="a_Node000002"><a xlink:href="ssd__1306_8c.html#a340aebe8804fe85f08151b8724baa370" target="_top" xlink:title="Prints character at selected position.">
<polygon fill="white" stroke="#666666" points="561,-74 443,-74 443,-55 561,-55 561,-74"/>
<text text-anchor="middle" x="502" y="-62" font-family="Helvetica,sans-Serif" font-size="10.00">ssd_1306_print_ascii</text>
</a>
</g>
</g>
<!-- Node1&#45;&gt;Node2 -->
<g id="edge1_Node000001_Node000002" class="edge">
<title>Node1&#45;&gt;Node2</title>
<g id="a_edge1_Node000001_Node000002"><a xlink:title=" ">
<path fill="none" stroke="#63b8ff" d="M589.51,-54.32C580.02,-55.44 570.42,-56.57 561.25,-57.65"/>
<polygon fill="#63b8ff" stroke="#63b8ff" points="590.22,-57.76 599.74,-53.12 589.4,-50.81 590.22,-57.76"/>
</a>
</g>
</g>
<!-- Node3 -->
<g id="Node000003" class="node">
<title>Node3</title>
<g id="a_Node000003"><a xlink:href="ssd__1306_8c.html#a361f0ba36e9c64b13ca2a5e742f8aab3" target="_top" xlink:title="Print entire screen buffer.">
<polygon fill="white" stroke="#666666" points="564,-37 440,-37 440,-18 564,-18 564,-37"/>
<text text-anchor="middle" x="502" y="-25" font-family="Helvetica,sans-Serif" font-size="10.00">ssd_1306_print_buffer</text>
</a>
</g>
</g>
<!-- Node1&#45;&gt;Node3 -->
<g id="edge2_Node000001_Node000003" class="edge">
<title>Node1&#45;&gt;Node3</title>
<g id="a_edge2_Node000001_Node000003"><a xlink:title=" ">
<path fill="none" stroke="#63b8ff" d="M589.73,-37.17C581.15,-36.21 572.48,-35.24 564.1,-34.31"/>
<polygon fill="#63b8ff" stroke="#63b8ff" points="589.42,-40.65 599.74,-38.28 590.19,-33.7 589.42,-40.65"/>
</a>
</g>
</g>
<!-- Node4 -->
<g id="Node000004" class="node">
<title>Node4</title>
<g id="a_Node000004"><a xlink:href="example_8c.html#a1ff907d245456012c4fb2039d8aced30" target="_top" xlink:title=" ">
<polygon fill="white" stroke="#666666" points="404,-37 327,-37 327,-18 404,-18 404,-37"/>
<text text-anchor="middle" x="365.5" y="-25" font-family="Helvetica,sans-Serif" font-size="10.00">my_flush_cb</text>
</a>
</g>
</g>
<!-- Node3&#45;&gt;Node4 -->
<g id="edge3_Node000003_Node000004" class="edge">
<title>Node3&#45;&gt;Node4</title>
<g id="a_edge3_Node000003_Node000004"><a xlink:title=" ">
<path fill="none" stroke="#63b8ff" d="M429.46,-27.5C420.78,-27.5 412.19,-27.5 404.29,-27.5"/>
<polygon fill="#63b8ff" stroke="#63b8ff" points="429.65,-31 439.65,-27.5 429.65,-24 429.65,-31"/>
</a>
</g>
</g>
<!-- Node5 -->
<g id="Node000005" class="node">
<title>Node5</title>
<g id="a_Node000005"><a xlink:href="example_8c.html#a4056343f8d19b5be8c881c353c2b1fbb" target="_top" xlink:title="Initialize the display task.">
<polygon fill="white" stroke="#666666" points="285.5,-56 207.5,-56 207.5,-37 285.5,-37 285.5,-56"/>
<text text-anchor="middle" x="246.5" y="-44" font-family="Helvetica,sans-Serif" font-size="10.00">display_task</text>
</a>
</g>
</g>
<!-- Node4&#45;&gt;Node5 -->
<g id="edge4_Node000004_Node000005" class="edge">
<title>Node4&#45;&gt;Node5</title>
<g id="a_edge4_Node000004_Node000005"><a xlink:title=" ">
<path fill="none" stroke="#63b8ff" d="M316.77,-35.25C306.49,-36.92 295.76,-38.66 285.9,-40.26"/>
<polygon fill="#63b8ff" stroke="#63b8ff" points="317.53,-38.67 326.84,-33.62 316.4,-31.76 317.53,-38.67"/>
</a>
</g>
</g>
<!-- Node9 -->
<g id="Node000009" class="node">
<title>Node9</title>
<g id="a_Node000009"><a xlink:href="example_8c.html#aa9a7a5e060a37124936df2cc4d0abbb7" target="_top" xlink:title="Display startup screen.">
<polygon fill="white" stroke="#666666" points="291,-19 202,-19 202,0 291,0 291,-19"/>
<text text-anchor="middle" x="246.5" y="-7" font-family="Helvetica,sans-Serif" font-size="10.00">startup_screen</text>
</a>
</g>
</g>
<!-- Node4&#45;&gt;Node9 -->
<g id="edge8_Node000004_Node000009" class="edge">
<title>Node4&#45;&gt;Node9</title>
<g id="a_edge8_Node000004_Node000009"><a xlink:title=" ">
<path fill="none" stroke="#63b8ff" d="M316.74,-20.15C308.29,-18.85 299.53,-17.5 291.2,-16.22"/>
<polygon fill="#63b8ff" stroke="#63b8ff" points="316.42,-23.64 326.84,-21.71 317.48,-16.73 316.42,-23.64"/>
</a>
</g>
</g>
<!-- Node6 -->
<g id="Node000006" class="node">
<title>Node6</title>
<g id="a_Node000006"><a xlink:href="example_8c.html#a423407bf3827741dfe2f6e0def8ba0c3" target="_top" xlink:title="Main function.">
<polygon fill="white" stroke="#666666" points="166,-37 77,-37 77,-18 166,-18 166,-37"/>
<text text-anchor="middle" x="121.5" y="-25" font-family="Helvetica,sans-Serif" font-size="10.00">example_main</text>
</a>
</g>
</g>
<!-- Node5&#45;&gt;Node6 -->
<g id="edge5_Node000005_Node000006" class="edge">
<title>Node5&#45;&gt;Node6</title>
<g id="a_edge5_Node000005_Node000006"><a xlink:title=" ">
<path fill="none" stroke="#63b8ff" d="M197.26,-39.05C187.06,-37.47 176.34,-35.82 166.31,-34.27"/>
<polygon fill="#63b8ff" stroke="#63b8ff" points="196.84,-42.52 207.26,-40.59 197.91,-35.61 196.84,-42.52"/>
</a>
</g>
</g>
<!-- Node7 -->
<g id="Node000007" class="node">
<title>Node7</title>
<g id="a_Node000007"><a xlink:href="ad3552r__fmcz_2src_2platform_2xilinx_2main_8c.html#ae66f6b31b5ad750f1fe042a706a4e3d4" target="_top" xlink:title="Main function execution for xilinx platform.">
<polygon fill="white" stroke="#666666" points="41,-56 0,-56 0,-37 41,-37 41,-56"/>
<text text-anchor="middle" x="20.5" y="-44" font-family="Helvetica,sans-Serif" font-size="10.00">main</text>
</a>
</g>
</g>
<!-- Node6&#45;&gt;Node7 -->
<g id="edge6_Node000006_Node000007" class="edge">
<title>Node6&#45;&gt;Node7</title>
<g id="a_edge6_Node000006_Node000007"><a xlink:title=" ">
<path fill="none" stroke="#63b8ff" d="M66.84,-37.8C57.68,-39.56 48.72,-41.28 41.21,-42.72"/>
<polygon fill="#63b8ff" stroke="#63b8ff" points="67.63,-41.21 76.79,-35.89 66.31,-34.34 67.63,-41.21"/>
</a>
</g>
</g>
<!-- Node8 -->
<g id="Node000008" class="node">
<title>Node8</title>
<g id="a_Node000008"><a xlink:href="eval-adg1736_2src_2platform_2maxim_2main_8c.html#a840291bc02cba5474a4cb46a9b9566fe" target="_top" xlink:title=" ">
<polygon fill="white" stroke="#666666" points="41,-19 0,-19 0,0 41,0 41,-19"/>
<text text-anchor="middle" x="20.5" y="-7" font-family="Helvetica,sans-Serif" font-size="10.00">main</text>
</a>
</g>
</g>
<!-- Node6&#45;&gt;Node8 -->
<g id="edge7_Node000006_Node000008" class="edge">
<title>Node6&#45;&gt;Node8</title>
<g id="a_edge7_Node000006_Node000008"><a xlink:title=" ">
<path fill="none" stroke="#63b8ff" d="M66.84,-17.74C57.68,-16.08 48.72,-14.45 41.21,-13.08"/>
<polygon fill="#63b8ff" stroke="#63b8ff" points="66.32,-21.21 76.79,-19.55 67.58,-14.32 66.32,-21.21"/>
</a>
</g>
</g>
<!-- Node9&#45;&gt;Node6 -->
<g id="edge9_Node000009_Node000006" class="edge">
<title>Node9&#45;&gt;Node6</title>
<g id="a_edge9_Node000009_Node000006"><a xlink:title=" ">
<path fill="none" stroke="#63b8ff" d="M191.82,-17.36C183.22,-18.61 174.4,-19.9 166.07,-21.12"/>
<polygon fill="#63b8ff" stroke="#63b8ff" points="192.4,-20.81 201.79,-15.9 191.39,-13.88 192.4,-20.81"/>
</a>
</g>
</g>
</g>
</svg>
