<?xml version="1.0" encoding="UTF-8" standalone="no"?>
<!DOCTYPE svg PUBLIC "-//W3C//DTD SVG 1.1//EN"
 "http://www.w3.org/Graphics/SVG/1.1/DTD/svg11.dtd">
<!-- Generated by graphviz version 2.43.0 (0)
 -->
<!-- Title: projects/eval&#45;pqmon/src/common/status.h Pages: 1 -->
<!--zoomable 368 -->

<svg id="main" version="1.1" xmlns="http://www.w3.org/2000/svg" xmlns:xlink="http://www.w3.org/1999/xlink" xml:space="preserve" onload="init(evt)">

<style type="text/css"><![CDATA[
.node, .edge {opacity: 0.7;}
.node.selected, .edge.selected {opacity: 1;}
.edge:hover path { stroke: red; }
.edge:hover polygon { stroke: red; fill: red; }
]]></style>

<defs>
  <circle id="rim" cx="0" cy="0" r="7"/>
  <circle id="rim2" cx="0" cy="0" r="3.5"/>
  <g id="zoomPlus">
    <use xlink:href="#rim" fill="#404040"><set attributeName="fill" to="#808080" begin="zoomplus.mouseover" end="zoomplus.mouseout"/></use>
    <path d="M-4,0h8M0,-4v8" fill="none" stroke="white" stroke-width="1.5" pointer-events="none"/>
  </g>
  <g id="zoomMin">
    <use xlink:href="#rim" fill="#404040"><set attributeName="fill" to="#808080" begin="zoomminus.mouseover" end="zoomminus.mouseout"/></use>
    <path d="M-4,0h8" fill="none" stroke="white" stroke-width="1.5" pointer-events="none"/>
  </g>
  <g id="arrowUp" transform="translate(30 24)">
    <use xlink:href="#rim"/>
    <path pointer-events="none" fill="none" stroke="white" stroke-width="1.5" d="M0,-3.0v7 M-2.5,-0.5L0,-3.0L2.5,-0.5"/>
  </g>
  <g id="arrowRight" transform="rotate(90) translate(36 -43)">
    <use xlink:href="#rim"/>
    <path pointer-events="none" fill="none" stroke="white" stroke-width="1.5" d="M0,-3.0v7 M-2.5,-0.5L0,-3.0L2.5,-0.5"/>
  </g>
  <g id="arrowDown" transform="rotate(180) translate(-30 -48)">
    <use xlink:href="#rim"/>
    <path pointer-events="none" fill="none" stroke="white" stroke-width="1.5" d="M0,-3.0v7 M-2.5,-0.5L0,-3.0L2.5,-0.5"/>
  </g>
  <g id="arrowLeft" transform="rotate(270) translate(-36 17)">
    <use xlink:href="#rim"/>
    <path pointer-events="none" fill="none" stroke="white" stroke-width="1.5" d="M0,-3.0v7 M-2.5,-0.5L0,-3.0L2.5,-0.5"/>
  </g>
  <g id="resetDef">
    <use xlink:href="#rim2" fill="#404040"><set attributeName="fill" to="#808080" begin="reset.mouseover" end="reset.mouseout"/></use>
  </g>
</defs>
<script type="application/ecmascript">
var viewWidth = 742;
var viewHeight = 368;
var sectionId = 'dynsection-0';
</script>
<script type="application/ecmascript" xlink:href="svg.min.js"/>
<svg id="graph" class="graph">
<g id="viewport">
<title>projects/eval&#45;pqmon/src/common/status.h</title>
<!-- Node1 -->
<g id="Node000001" class="node">
<title>Node1</title>
<g id="a_Node000001"><a xlink:title=" ">
<polygon fill="#999999" stroke="#666666" points="384.5,-360 262.5,-360 262.5,-330 384.5,-330 384.5,-360"/>
<text text-anchor="start" x="270.5" y="-348" font-family="Helvetica,sans-Serif" font-size="10.00">projects/eval&#45;pqmon</text>
<text text-anchor="middle" x="323.5" y="-337" font-family="Helvetica,sans-Serif" font-size="10.00">/src/common/status.h</text>
</a>
</g>
</g>
<!-- Node2 -->
<g id="Node000002" class="node">
<title>Node2</title>
<g id="a_Node000002"><a xlink:href="afe__config_8h.html" target="_top" xlink:title=" ">
<polygon fill="white" stroke="#666666" points="240.5,-294 98.5,-294 98.5,-264 240.5,-264 240.5,-294"/>
<text text-anchor="start" x="106.5" y="-282" font-family="Helvetica,sans-Serif" font-size="10.00">projects/eval&#45;pqmon</text>
<text text-anchor="middle" x="169.5" y="-271" font-family="Helvetica,sans-Serif" font-size="10.00">/src/common/afe_config.h</text>
</a>
</g>
</g>
<!-- Node1&#45;&gt;Node2 -->
<g id="edge1_Node000001_Node000002" class="edge">
<title>Node1&#45;&gt;Node2</title>
<g id="a_edge1_Node000001_Node000002"><a xlink:title=" ">
<path fill="none" stroke="#63b8ff" d="M280.32,-326.05C255.92,-315.91 225.87,-303.43 203.22,-294.01"/>
<polygon fill="#63b8ff" stroke="#63b8ff" points="279.13,-329.35 289.7,-329.95 281.81,-322.89 279.13,-329.35"/>
</a>
</g>
</g>
<!-- Node4 -->
<g id="Node000004" class="node">
<title>Node4</title>
<g id="a_Node000004"><a xlink:href="pqlib__afe_8h.html" target="_top" xlink:title=" ">
<polygon fill="white" stroke="#666666" points="335,-228 198,-228 198,-198 335,-198 335,-228"/>
<text text-anchor="start" x="206" y="-216" font-family="Helvetica,sans-Serif" font-size="10.00">projects/eval&#45;pqmon</text>
<text text-anchor="middle" x="266.5" y="-205" font-family="Helvetica,sans-Serif" font-size="10.00">/src/common/pqlib_afe.h</text>
</a>
</g>
</g>
<!-- Node1&#45;&gt;Node4 -->
<g id="edge15_Node000001_Node000004" class="edge">
<title>Node1&#45;&gt;Node4</title>
<g id="a_edge15_Node000001_Node000004"><a xlink:title=" ">
<path fill="none" stroke="#63b8ff" d="M304.67,-321.57C298.48,-313.32 292.03,-303.62 287.5,-294 277.22,-272.18 271.39,-244.54 268.59,-228.12"/>
<polygon fill="#63b8ff" stroke="#63b8ff" points="302.01,-323.86 310.93,-329.59 307.53,-319.55 302.01,-323.86"/>
</a>
</g>
</g>
<!-- Node5 -->
<g id="Node000005" class="node">
<title>Node5</title>
<g id="a_Node000005"><a xlink:href="iio__pqm_8h.html" target="_top" xlink:title=" ">
<polygon fill="white" stroke="#666666" points="467,-162 336,-162 336,-132 467,-132 467,-162"/>
<text text-anchor="start" x="344" y="-150" font-family="Helvetica,sans-Serif" font-size="10.00">projects/eval&#45;pqmon</text>
<text text-anchor="middle" x="401.5" y="-139" font-family="Helvetica,sans-Serif" font-size="10.00">/src/common/iio_pqm.h</text>
</a>
</g>
</g>
<!-- Node1&#45;&gt;Node5 -->
<g id="edge14_Node000001_Node000005" class="edge">
<title>Node1&#45;&gt;Node5</title>
<g id="a_edge14_Node000001_Node000005"><a xlink:title=" ">
<path fill="none" stroke="#63b8ff" d="M394.38,-337.32C422.51,-330.79 452.22,-318.18 469.5,-294 500.87,-250.09 446.29,-189.41 417.53,-162.2"/>
<polygon fill="#63b8ff" stroke="#63b8ff" points="393.59,-333.91 384.51,-339.39 395.02,-340.76 393.59,-333.91"/>
</a>
</g>
</g>
<!-- Node12 -->
<g id="Node000012" class="node">
<title>Node12</title>
<g id="a_Node000012"><a xlink:href="pqlib__example_8h.html" target="_top" xlink:title=" ">
<polygon fill="white" stroke="#666666" points="460.5,-294 296.5,-294 296.5,-264 460.5,-264 460.5,-294"/>
<text text-anchor="start" x="304.5" y="-282" font-family="Helvetica,sans-Serif" font-size="10.00">projects/eval&#45;pqmon</text>
<text text-anchor="middle" x="378.5" y="-271" font-family="Helvetica,sans-Serif" font-size="10.00">/src/common/pqlib_example.h</text>
</a>
</g>
</g>
<!-- Node1&#45;&gt;Node12 -->
<g id="edge16_Node000001_Node000012" class="edge">
<title>Node1&#45;&gt;Node12</title>
<g id="a_edge16_Node000001_Node000012"><a xlink:title=" ">
<path fill="none" stroke="#63b8ff" d="M342.33,-322.09C350.27,-312.85 359.28,-302.36 366.33,-294.16"/>
<polygon fill="#63b8ff" stroke="#63b8ff" points="339.57,-319.93 335.71,-329.8 344.88,-324.49 339.57,-319.93"/>
</a>
</g>
</g>
<!-- Node3 -->
<g id="Node000003" class="node">
<title>Node3</title>
<g id="a_Node000003"><a xlink:href="afe__config_8c.html" target="_top" xlink:title=" ">
<polygon fill="white" stroke="#666666" points="141,-228 0,-228 0,-198 141,-198 141,-228"/>
<text text-anchor="start" x="8" y="-216" font-family="Helvetica,sans-Serif" font-size="10.00">projects/eval&#45;pqmon</text>
<text text-anchor="middle" x="70.5" y="-205" font-family="Helvetica,sans-Serif" font-size="10.00">/src/common/afe_config.c</text>
</a>
</g>
</g>
<!-- Node2&#45;&gt;Node3 -->
<g id="edge2_Node000002_Node000003" class="edge">
<title>Node2&#45;&gt;Node3</title>
<g id="a_edge2_Node000002_Node000003"><a xlink:title=" ">
<path fill="none" stroke="#63b8ff" d="M139.03,-258.3C123.96,-248.56 106.11,-237.02 92.41,-228.16"/>
<polygon fill="#63b8ff" stroke="#63b8ff" points="137.23,-261.31 147.53,-263.8 141.03,-255.43 137.23,-261.31"/>
</a>
</g>
</g>
<!-- Node2&#45;&gt;Node4 -->
<g id="edge3_Node000002_Node000004" class="edge">
<title>Node2&#45;&gt;Node4</title>
<g id="a_edge3_Node000002_Node000004"><a xlink:title=" ">
<path fill="none" stroke="#63b8ff" d="M199.77,-258.03C214.45,-248.34 231.73,-236.94 245.03,-228.16"/>
<polygon fill="#63b8ff" stroke="#63b8ff" points="197.45,-255.37 191.03,-263.8 201.3,-261.21 197.45,-255.37"/>
</a>
</g>
</g>
<!-- Node4&#45;&gt;Node5 -->
<g id="edge4_Node000004_Node000005" class="edge">
<title>Node4&#45;&gt;Node5</title>
<g id="a_edge4_Node000004_Node000005"><a xlink:title=" ">
<path fill="none" stroke="#63b8ff" d="M305.21,-193.65C326.44,-183.58 352.35,-171.3 371.94,-162.01"/>
<polygon fill="#63b8ff" stroke="#63b8ff" points="303.66,-190.51 296.13,-197.95 306.66,-196.83 303.66,-190.51"/>
</a>
</g>
</g>
<!-- Node10 -->
<g id="Node000010" class="node">
<title>Node10</title>
<g id="a_Node000010"><a xlink:href="pqlib__afe_8c.html" target="_top" xlink:title=" ">
<polygon fill="white" stroke="#666666" points="404.5,-96 268.5,-96 268.5,-66 404.5,-66 404.5,-96"/>
<text text-anchor="start" x="276.5" y="-84" font-family="Helvetica,sans-Serif" font-size="10.00">projects/eval&#45;pqmon</text>
<text text-anchor="middle" x="336.5" y="-73" font-family="Helvetica,sans-Serif" font-size="10.00">/src/common/pqlib_afe.c</text>
</a>
</g>
</g>
<!-- Node4&#45;&gt;Node10 -->
<g id="edge13_Node000004_Node000010" class="edge">
<title>Node4&#45;&gt;Node10</title>
<g id="a_edge13_Node000004_Node000010"><a xlink:title=" ">
<path fill="none" stroke="#63b8ff" d="M279.02,-188.75C293.51,-161.84 316.9,-118.4 328.88,-96.14"/>
<polygon fill="#63b8ff" stroke="#63b8ff" points="275.78,-187.38 274.12,-197.84 281.95,-190.69 275.78,-187.38"/>
</a>
</g>
</g>
<!-- Node6 -->
<g id="Node000006" class="node">
<title>Node6</title>
<g id="a_Node000006"><a xlink:href="eval-pqmon_2src_2common_2common__data_8h.html" target="_top" xlink:title=" ">
<polygon fill="white" stroke="#666666" points="250,-96 89,-96 89,-66 250,-66 250,-96"/>
<text text-anchor="start" x="97" y="-84" font-family="Helvetica,sans-Serif" font-size="10.00">projects/eval&#45;pqmon</text>
<text text-anchor="middle" x="169.5" y="-73" font-family="Helvetica,sans-Serif" font-size="10.00">/src/common/common_data.h</text>
</a>
</g>
</g>
<!-- Node5&#45;&gt;Node6 -->
<g id="edge5_Node000005_Node000006" class="edge">
<title>Node5&#45;&gt;Node6</title>
<g id="a_edge5_Node000005_Node000006"><a xlink:title=" ">
<path fill="none" stroke="#63b8ff" d="M334.78,-129.25C296.22,-118.91 248.79,-105.8 214.6,-96.01"/>
<polygon fill="#63b8ff" stroke="#63b8ff" points="334.32,-132.75 344.89,-131.95 336.13,-125.99 334.32,-132.75"/>
</a>
</g>
</g>
<!-- Node9 -->
<g id="Node000009" class="node">
<title>Node9</title>
<g id="a_Node000009"><a xlink:href="iio__pqm_8c.html" target="_top" xlink:title=" ">
<polygon fill="white" stroke="#666666" points="552.5,-96 422.5,-96 422.5,-66 552.5,-66 552.5,-96"/>
<text text-anchor="start" x="430.5" y="-84" font-family="Helvetica,sans-Serif" font-size="10.00">projects/eval&#45;pqmon</text>
<text text-anchor="middle" x="487.5" y="-73" font-family="Helvetica,sans-Serif" font-size="10.00">/src/common/iio_pqm.c</text>
</a>
</g>
</g>
<!-- Node5&#45;&gt;Node9 -->
<g id="edge10_Node000005_Node000009" class="edge">
<title>Node5&#45;&gt;Node9</title>
<g id="a_edge10_Node000005_Node000009"><a xlink:title=" ">
<path fill="none" stroke="#63b8ff" d="M428.71,-125.75C441.64,-116.13 456.79,-104.86 468.47,-96.16"/>
<polygon fill="#63b8ff" stroke="#63b8ff" points="426.52,-123.02 420.59,-131.8 430.7,-128.63 426.52,-123.02"/>
</a>
</g>
</g>
<!-- Node5&#45;&gt;Node10 -->
<g id="edge11_Node000005_Node000010" class="edge">
<title>Node5&#45;&gt;Node10</title>
<g id="a_edge11_Node000005_Node000010"><a xlink:title=" ">
<path fill="none" stroke="#63b8ff" d="M379.81,-124.65C370.29,-115.27 359.38,-104.53 350.89,-96.16"/>
<polygon fill="#63b8ff" stroke="#63b8ff" points="377.49,-127.27 387.07,-131.8 382.4,-122.29 377.49,-127.27"/>
</a>
</g>
</g>
<!-- Node11 -->
<g id="Node000011" class="node">
<title>Node11</title>
<g id="a_Node000011"><a xlink:href="pqlib__example_8c.html" target="_top" xlink:title=" ">
<polygon fill="white" stroke="#666666" points="734,-96 571,-96 571,-66 734,-66 734,-96"/>
<text text-anchor="start" x="579" y="-84" font-family="Helvetica,sans-Serif" font-size="10.00">projects/eval&#45;pqmon</text>
<text text-anchor="middle" x="652.5" y="-73" font-family="Helvetica,sans-Serif" font-size="10.00">/src/common/pqlib_example.c</text>
</a>
</g>
</g>
<!-- Node5&#45;&gt;Node11 -->
<g id="edge12_Node000005_Node000011" class="edge">
<title>Node5&#45;&gt;Node11</title>
<g id="a_edge12_Node000005_Node000011"><a xlink:title=" ">
<path fill="none" stroke="#63b8ff" d="M466.4,-129.45C507.07,-119.08 558.91,-105.86 597.55,-96.01"/>
<polygon fill="#63b8ff" stroke="#63b8ff" points="465.41,-126.09 456.58,-131.95 467.14,-132.88 465.41,-126.09"/>
</a>
</g>
</g>
<!-- Node6&#45;&gt;Node2 -->
<g id="edge6_Node000006_Node000002" class="edge">
<title>Node6&#45;&gt;Node2</title>
<g id="a_edge6_Node000006_Node000002"><a xlink:title=" ">
<path fill="none" stroke="#63b8ff" d="M169.5,-106.27C169.5,-147.7 169.5,-230.79 169.5,-263.9"/>
<polygon fill="#63b8ff" stroke="#63b8ff" points="173,-106.23 169.5,-96.23 166,-106.23 173,-106.23"/>
</a>
</g>
</g>
<!-- Node6&#45;&gt;Node5 -->
<g id="edge8_Node000006_Node000005" class="edge">
<title>Node6&#45;&gt;Node5</title>
<g id="a_edge8_Node000006_Node000005"><a xlink:title=" ">
<path fill="none" stroke="#63b8ff" d="M236.09,-98.71C274.63,-109.05 322.06,-122.16 356.29,-131.95"/>
<polygon fill="#63b8ff" stroke="#63b8ff" points="236.55,-95.21 225.99,-96.01 234.75,-101.98 236.55,-95.21"/>
</a>
</g>
</g>
<!-- Node7 -->
<g id="Node000007" class="node">
<title>Node7</title>
<g id="a_Node000007"><a xlink:href="eval-pqmon_2src_2common_2common__data_8c.html" target="_top" xlink:title=" ">
<polygon fill="white" stroke="#666666" points="162,-30 1,-30 1,0 162,0 162,-30"/>
<text text-anchor="start" x="9" y="-18" font-family="Helvetica,sans-Serif" font-size="10.00">projects/eval&#45;pqmon</text>
<text text-anchor="middle" x="81.5" y="-7" font-family="Helvetica,sans-Serif" font-size="10.00">/src/common/common_data.c</text>
</a>
</g>
</g>
<!-- Node6&#45;&gt;Node7 -->
<g id="edge7_Node000006_Node000007" class="edge">
<title>Node6&#45;&gt;Node7</title>
<g id="a_edge7_Node000006_Node000007"><a xlink:title=" ">
<path fill="none" stroke="#63b8ff" d="M141.66,-59.75C128.43,-50.13 112.93,-38.86 100.98,-30.16"/>
<polygon fill="#63b8ff" stroke="#63b8ff" points="139.82,-62.75 149.97,-65.8 143.94,-57.08 139.82,-62.75"/>
</a>
</g>
</g>
<!-- Node8 -->
<g id="Node000008" class="node">
<title>Node8</title>
<g id="a_Node000008"><a xlink:href="pqlib__convert_8c.html" target="_top" xlink:title=" ">
<polygon fill="white" stroke="#666666" points="337,-30 180,-30 180,0 337,0 337,-30"/>
<text text-anchor="start" x="188" y="-18" font-family="Helvetica,sans-Serif" font-size="10.00">projects/eval&#45;pqmon</text>
<text text-anchor="middle" x="258.5" y="-7" font-family="Helvetica,sans-Serif" font-size="10.00">/src/common/pqlib_convert.c</text>
</a>
</g>
</g>
<!-- Node6&#45;&gt;Node8 -->
<g id="edge9_Node000006_Node000008" class="edge">
<title>Node6&#45;&gt;Node8</title>
<g id="a_edge9_Node000006_Node000008"><a xlink:title=" ">
<path fill="none" stroke="#63b8ff" d="M197.66,-59.75C211.04,-50.13 226.72,-38.86 238.8,-30.16"/>
<polygon fill="#63b8ff" stroke="#63b8ff" points="195.33,-57.12 189.25,-65.8 199.41,-62.8 195.33,-57.12"/>
</a>
</g>
</g>
<!-- Node12&#45;&gt;Node4 -->
<g id="edge19_Node000012_Node000004" class="edge">
<title>Node12&#45;&gt;Node4</title>
<g id="a_edge19_Node000012_Node000004"><a xlink:title=" ">
<path fill="none" stroke="#63b8ff" d="M345.19,-258.97C327.81,-249.03 306.91,-237.09 291.02,-228.01"/>
<polygon fill="#63b8ff" stroke="#63b8ff" points="343.5,-262.03 353.92,-263.95 346.98,-255.95 343.5,-262.03"/>
</a>
</g>
</g>
<!-- Node12&#45;&gt;Node5 -->
<g id="edge18_Node000012_Node000005" class="edge">
<title>Node12&#45;&gt;Node5</title>
<g id="a_edge18_Node000012_Node000005"><a xlink:title=" ">
<path fill="none" stroke="#63b8ff" d="M382.8,-253.68C387.58,-226.7 395.11,-184.11 399,-162.14"/>
<polygon fill="#63b8ff" stroke="#63b8ff" points="379.3,-253.38 381.01,-263.84 386.19,-254.6 379.3,-253.38"/>
</a>
</g>
</g>
<!-- Node12&#45;&gt;Node6 -->
<g id="edge17_Node000012_Node000006" class="edge">
<title>Node12&#45;&gt;Node6</title>
<g id="a_edge17_Node000012_Node000006"><a xlink:title=" ">
<path fill="none" stroke="#63b8ff" d="M372.04,-254.21C366.53,-237.18 357.29,-214.45 343.5,-198 303.62,-150.42 239.38,-114.65 201.12,-96.14"/>
<polygon fill="#63b8ff" stroke="#63b8ff" points="368.75,-255.41 374.99,-263.97 375.45,-253.38 368.75,-255.41"/>
</a>
</g>
</g>
<!-- Node12&#45;&gt;Node11 -->
<g id="edge20_Node000012_Node000011" class="edge">
<title>Node12&#45;&gt;Node11</title>
<g id="a_edge20_Node000012_Node000011"><a xlink:title=" ">
<path fill="none" stroke="#63b8ff" d="M406.51,-257.97C461.97,-218.29 584.54,-130.62 632.6,-96.23"/>
<polygon fill="#63b8ff" stroke="#63b8ff" points="404.3,-255.24 398.21,-263.9 408.38,-260.93 404.3,-255.24"/>
</a>
</g>
</g>
</g>
</svg>

<g id="navigator" transform="translate(0 0)" fill="#404254">
  <rect fill="#f2f5e9" fill-opacity="0.5" stroke="#606060" stroke-width=".5" x="0" y="0" width="60" height="60"/>
  <use id="zoomplus" xlink:href="#zoomPlus" x="17" y="9" onmousedown="handleZoom(evt,'in')"/>
  <use id="zoomminus" xlink:href="#zoomMin" x="42" y="9" onmousedown="handleZoom(evt,'out')"/>
  <use id="reset" xlink:href="#resetDef" x="30" y="36" onmousedown="handleReset()"/>
   <use id="arrowup" xlink:href="#arrowUp" x="0" y="0" onmousedown="handlePan(0,-1)"/>
  <use id="arrowright" xlink:href="#arrowRight" x="0" y="0" onmousedown="handlePan(1,0)"/>
  <use id="arrowdown" xlink:href="#arrowDown" x="0" y="0" onmousedown="handlePan(0,1)"/>
  <use id="arrowleft" xlink:href="#arrowLeft" x="0" y="0" onmousedown="handlePan(-1,0)"/>
</g>
<svg viewBox="0 0 15 15" width="100%" height="30px" preserveAspectRatio="xMaxYMin meet">
 <g id="arrow_out" transform="scale(0.3 0.3)">
  <a xlink:href="status_8h__dep__incl_org.svg" target="_base">
   <rect id="button" ry="5" rx="5" y="6" x="6" height="38" width="38"
        fill="#f2f5e9" fill-opacity="0.5" stroke="#606060" stroke-width="1.0"/>
   <path id="arrow"
     d="M 11.500037,31.436501 C 11.940474,20.09759 22.043105,11.32322 32.158766,21.979434 L 37.068811,17.246167 C 37.068811,17.246167 37.088388,32 37.088388,32 L 22.160133,31.978069 C 22.160133,31.978069 26.997745,27.140456 26.997745,27.140456 C 18.528582,18.264221 13.291696,25.230495 11.500037,31.436501 z"
     style="fill:#404040;"/>
  </a>
 </g>
</svg>

<style type='text/css'>
<![CDATA[
[data-mouse-over-selected='false'] { opacity: 0.7; }
[data-mouse-over-selected='true']  { opacity: 1.0; }
]]>
</style>
<script type="application/ecmascript"><![CDATA[
document.addEventListener('DOMContentLoaded', (event) => {
  highlightEdges();
  highlightAdjacentNodes();
});
]]></script>
</svg>
