<?xml version="1.0" encoding="UTF-8" standalone="no"?>
<!DOCTYPE svg PUBLIC "-//W3C//DTD SVG 1.1//EN"
 "http://www.w3.org/Graphics/SVG/1.1/DTD/svg11.dtd">
<!-- Generated by graphviz version 2.43.0 (0)
 -->
<!-- Title: drivers/platform/stm32/stm32_uart.c Pages: 1 -->
<svg width="652pt" height="258pt"
 viewBox="0.00 0.00 652.00 258.00" xmlns="http://www.w3.org/2000/svg" xmlns:xlink="http://www.w3.org/1999/xlink">
<g id="graph0" class="graph" transform="scale(1 1) rotate(0) translate(4 254)">
<title>drivers/platform/stm32/stm32_uart.c</title>
<!-- Node1 -->
<g id="Node000001" class="node">
<title>Node1</title>
<g id="a_Node000001"><a xlink:title="Source file of UART driver for STM32.">
<polygon fill="#999999" stroke="#666666" points="401,-250 272,-250 272,-220 401,-220 401,-250"/>
<text text-anchor="start" x="280" y="-238" font-family="Helvetica,sans-Serif" font-size="10.00">drivers/platform/stm32</text>
<text text-anchor="middle" x="336.5" y="-227" font-family="Helvetica,sans-Serif" font-size="10.00">/stm32_uart.c</text>
</a>
</g>
</g>
<!-- Node2 -->
<g id="Node000002" class="node">
<title>Node2</title>
<g id="a_Node000002"><a xlink:href="errno_8h.html" target="_top" xlink:title="Error macro definition for ARM Compiler.">
<polygon fill="white" stroke="#666666" points="51,-184 0,-184 0,-165 51,-165 51,-184"/>
<text text-anchor="middle" x="25.5" y="-172" font-family="Helvetica,sans-Serif" font-size="10.00">errno.h</text>
</a>
</g>
</g>
<!-- Node1&#45;&gt;Node2 -->
<g id="edge1_Node000001_Node000002" class="edge">
<title>Node1&#45;&gt;Node2</title>
<g id="a_edge1_Node000001_Node000002"><a xlink:title=" ">
<path fill="none" stroke="#63b8ff" d="M271.79,-222.57C216.83,-212.74 135.89,-197.97 65.5,-184 64.06,-183.71 62.6,-183.42 61.12,-183.12"/>
<polygon fill="#63b8ff" stroke="#63b8ff" points="61.8,-179.69 51.3,-181.09 60.38,-186.54 61.8,-179.69"/>
</a>
</g>
</g>
<!-- Node3 -->
<g id="Node000003" class="node">
<title>Node3</title>
<g id="a_Node000003"><a xlink:title=" ">
<polygon fill="#e0e0e0" stroke="#999999" points="205,-19 152,-19 152,0 205,0 205,-19"/>
<text text-anchor="middle" x="178.5" y="-7" font-family="Helvetica,sans-Serif" font-size="10.00">stdlib.h</text>
</a>
</g>
</g>
<!-- Node1&#45;&gt;Node3 -->
<g id="edge2_Node000001_Node000003" class="edge">
<title>Node1&#45;&gt;Node3</title>
<g id="a_edge2_Node000001_Node000003"><a xlink:title=" ">
<path fill="none" stroke="#63b8ff" d="M271.84,-230.14C229.48,-224.85 174.72,-212.53 134.5,-184 104.67,-162.84 86.35,-144.5 98.5,-110 110.74,-75.24 140.82,-43.67 160.41,-25.8"/>
<polygon fill="#63b8ff" stroke="#63b8ff" points="162.91,-28.26 168.08,-19.01 158.27,-23.02 162.91,-28.26"/>
</a>
</g>
</g>
<!-- Node4 -->
<g id="Node000004" class="node">
<title>Node4</title>
<g id="a_Node000004"><a xlink:href="no__os__uart_8h.html" target="_top" xlink:title="Header file of UART interface.">
<polygon fill="white" stroke="#666666" points="376,-129 297,-129 297,-110 376,-110 376,-129"/>
<text text-anchor="middle" x="336.5" y="-117" font-family="Helvetica,sans-Serif" font-size="10.00">no_os_uart.h</text>
</a>
</g>
</g>
<!-- Node1&#45;&gt;Node4 -->
<g id="edge3_Node000001_Node000004" class="edge">
<title>Node1&#45;&gt;Node4</title>
<g id="a_edge3_Node000001_Node000004"><a xlink:title=" ">
<path fill="none" stroke="#63b8ff" d="M336.5,-219.63C336.5,-199.21 336.5,-161.81 336.5,-139.24"/>
<polygon fill="#63b8ff" stroke="#63b8ff" points="340,-139.23 336.5,-129.23 333,-139.23 340,-139.23"/>
</a>
</g>
</g>
<!-- Node7 -->
<g id="Node000007" class="node">
<title>Node7</title>
<g id="a_Node000007"><a xlink:href="no__os__lf256fifo_8h.html" target="_top" xlink:title="SPSC lock&#45;free fifo of fixed size (256), specialized for UART.">
<polygon fill="white" stroke="#666666" points="306.5,-74 206.5,-74 206.5,-55 306.5,-55 306.5,-74"/>
<text text-anchor="middle" x="256.5" y="-62" font-family="Helvetica,sans-Serif" font-size="10.00">no_os_lf256fifo.h</text>
</a>
</g>
</g>
<!-- Node1&#45;&gt;Node7 -->
<g id="edge12_Node000001_Node000007" class="edge">
<title>Node1&#45;&gt;Node7</title>
<g id="a_edge12_Node000001_Node000007"><a xlink:title=" ">
<path fill="none" stroke="#63b8ff" d="M329.82,-219.92C315.32,-189.39 281,-117.1 264.99,-83.39"/>
<polygon fill="#63b8ff" stroke="#63b8ff" points="268.11,-81.79 260.66,-74.25 261.78,-84.79 268.11,-81.79"/>
</a>
</g>
</g>
<!-- Node8 -->
<g id="Node000008" class="node">
<title>Node8</title>
<g id="a_Node000008"><a xlink:href="no__os__irq_8h.html" target="_top" xlink:title="Header file of IRQ interface.">
<polygon fill="white" stroke="#666666" points="548.5,-129 476.5,-129 476.5,-110 548.5,-110 548.5,-129"/>
<text text-anchor="middle" x="512.5" y="-117" font-family="Helvetica,sans-Serif" font-size="10.00">no_os_irq.h</text>
</a>
</g>
</g>
<!-- Node1&#45;&gt;Node8 -->
<g id="edge10_Node000001_Node000008" class="edge">
<title>Node1&#45;&gt;Node8</title>
<g id="a_edge10_Node000001_Node000008"><a xlink:title=" ">
<path fill="none" stroke="#63b8ff" d="M383.76,-219.91C406.97,-211.64 434.57,-199.7 456.5,-184 474.54,-171.08 490.77,-151.32 501.06,-137.28"/>
<polygon fill="#63b8ff" stroke="#63b8ff" points="504,-139.19 506.92,-129.01 498.28,-135.14 504,-139.19"/>
</a>
</g>
</g>
<!-- Node9 -->
<g id="Node000009" class="node">
<title>Node9</title>
<g id="a_Node000009"><a xlink:href="no__os__alloc_8h.html" target="_top" xlink:title=" ">
<polygon fill="white" stroke="#666666" points="227,-184 144,-184 144,-165 227,-165 227,-184"/>
<text text-anchor="middle" x="185.5" y="-172" font-family="Helvetica,sans-Serif" font-size="10.00">no_os_alloc.h</text>
</a>
</g>
</g>
<!-- Node1&#45;&gt;Node9 -->
<g id="edge13_Node000001_Node000009" class="edge">
<title>Node1&#45;&gt;Node9</title>
<g id="a_edge13_Node000001_Node000009"><a xlink:title=" ">
<path fill="none" stroke="#63b8ff" d="M300.33,-219.99C275.03,-210.18 241.54,-197.21 217.26,-187.81"/>
<polygon fill="#63b8ff" stroke="#63b8ff" points="218.39,-184.49 207.8,-184.14 215.86,-191.02 218.39,-184.49"/>
</a>
</g>
</g>
<!-- Node11 -->
<g id="Node000011" class="node">
<title>Node11</title>
<g id="a_Node000011"><a xlink:href="stm32__irq_8h.html" target="_top" xlink:title="Header file for stm32 irq specifics.">
<polygon fill="white" stroke="#666666" points="577.5,-184 503.5,-184 503.5,-165 577.5,-165 577.5,-184"/>
<text text-anchor="middle" x="540.5" y="-172" font-family="Helvetica,sans-Serif" font-size="10.00">stm32_irq.h</text>
</a>
</g>
</g>
<!-- Node1&#45;&gt;Node11 -->
<g id="edge16_Node000001_Node000011" class="edge">
<title>Node1&#45;&gt;Node11</title>
<g id="a_edge16_Node000001_Node000011"><a xlink:title=" ">
<path fill="none" stroke="#63b8ff" d="M385.36,-219.99C420.72,-209.85 467.9,-196.32 500.91,-186.85"/>
<polygon fill="#63b8ff" stroke="#63b8ff" points="502.02,-190.17 510.67,-184.05 500.09,-183.45 502.02,-190.17"/>
</a>
</g>
</g>
<!-- Node12 -->
<g id="Node000012" class="node">
<title>Node12</title>
<g id="a_Node000012"><a xlink:href="stm32__hal_8h.html" target="_top" xlink:title=" ">
<polygon fill="white" stroke="#666666" points="644,-129 567,-129 567,-110 644,-110 644,-129"/>
<text text-anchor="middle" x="605.5" y="-117" font-family="Helvetica,sans-Serif" font-size="10.00">stm32_hal.h</text>
</a>
</g>
</g>
<!-- Node1&#45;&gt;Node12 -->
<g id="edge26_Node000001_Node000012" class="edge">
<title>Node1&#45;&gt;Node12</title>
<g id="a_edge26_Node000001_Node000012"><a xlink:title=" ">
<path fill="none" stroke="#63b8ff" d="M401.25,-228.58C466.06,-221.88 559.87,-208.25 586.5,-184 598.85,-172.75 603.3,-153.84 604.85,-139.57"/>
<polygon fill="#63b8ff" stroke="#63b8ff" points="608.35,-139.58 605.55,-129.36 601.37,-139.09 608.35,-139.58"/>
</a>
</g>
</g>
<!-- Node14 -->
<g id="Node000014" class="node">
<title>Node14</title>
<g id="a_Node000014"><a xlink:href="stm32__uart_8h.html" target="_top" xlink:title="Header file of UART driver for STM32.">
<polygon fill="white" stroke="#666666" points="447,-184 366,-184 366,-165 447,-165 447,-184"/>
<text text-anchor="middle" x="406.5" y="-172" font-family="Helvetica,sans-Serif" font-size="10.00">stm32_uart.h</text>
</a>
</g>
</g>
<!-- Node1&#45;&gt;Node14 -->
<g id="edge20_Node000001_Node000014" class="edge">
<title>Node1&#45;&gt;Node14</title>
<g id="a_edge20_Node000001_Node000014"><a xlink:title=" ">
<path fill="none" stroke="#63b8ff" d="M353.45,-219.84C363.92,-211.09 377.36,-199.85 388.09,-190.88"/>
<polygon fill="#63b8ff" stroke="#63b8ff" points="390.58,-193.36 396.01,-184.27 386.09,-187.99 390.58,-193.36"/>
</a>
</g>
</g>
<!-- Node5 -->
<g id="Node000005" class="node">
<title>Node5</title>
<g id="a_Node000005"><a xlink:title=" ">
<polygon fill="#e0e0e0" stroke="#999999" points="456,-19 403,-19 403,0 456,0 456,-19"/>
<text text-anchor="middle" x="429.5" y="-7" font-family="Helvetica,sans-Serif" font-size="10.00">stdint.h</text>
</a>
</g>
</g>
<!-- Node4&#45;&gt;Node5 -->
<g id="edge4_Node000004_Node000005" class="edge">
<title>Node4&#45;&gt;Node5</title>
<g id="a_edge4_Node000004_Node000005"><a xlink:title=" ">
<path fill="none" stroke="#63b8ff" d="M344.11,-109.66C359.72,-91.54 395.56,-49.91 415.49,-26.77"/>
<polygon fill="#63b8ff" stroke="#63b8ff" points="418.17,-29.02 422.04,-19.16 412.87,-24.45 418.17,-29.02"/>
</a>
</g>
</g>
<!-- Node6 -->
<g id="Node000006" class="node">
<title>Node6</title>
<g id="a_Node000006"><a xlink:title=" ">
<polygon fill="#e0e0e0" stroke="#999999" points="365.5,-19 303.5,-19 303.5,0 365.5,0 365.5,-19"/>
<text text-anchor="middle" x="334.5" y="-7" font-family="Helvetica,sans-Serif" font-size="10.00">stdbool.h</text>
</a>
</g>
</g>
<!-- Node4&#45;&gt;Node6 -->
<g id="edge5_Node000004_Node000006" class="edge">
<title>Node4&#45;&gt;Node6</title>
<g id="a_edge5_Node000004_Node000006"><a xlink:title=" ">
<path fill="none" stroke="#63b8ff" d="M336.34,-109.66C336.01,-92.17 335.28,-52.8 334.85,-29.27"/>
<polygon fill="#63b8ff" stroke="#63b8ff" points="338.34,-29.09 334.66,-19.16 331.35,-29.22 338.34,-29.09"/>
</a>
</g>
</g>
<!-- Node4&#45;&gt;Node7 -->
<g id="edge6_Node000004_Node000007" class="edge">
<title>Node4&#45;&gt;Node7</title>
<g id="a_edge6_Node000004_Node000007"><a xlink:title=" ">
<path fill="none" stroke="#63b8ff" d="M323.65,-109.98C311.36,-101.84 292.59,-89.41 278.02,-79.76"/>
<polygon fill="#63b8ff" stroke="#63b8ff" points="279.86,-76.78 269.59,-74.17 275.99,-82.61 279.86,-76.78"/>
</a>
</g>
</g>
<!-- Node7&#45;&gt;Node3 -->
<g id="edge7_Node000007_Node000003" class="edge">
<title>Node7&#45;&gt;Node3</title>
<g id="a_edge7_Node000007_Node000003"><a xlink:title=" ">
<path fill="none" stroke="#63b8ff" d="M243.97,-54.98C232.1,-46.92 214.04,-34.65 199.89,-25.03"/>
<polygon fill="#63b8ff" stroke="#63b8ff" points="201.5,-21.9 191.26,-19.17 197.56,-27.69 201.5,-21.9"/>
</a>
</g>
</g>
<!-- Node7&#45;&gt;Node5 -->
<g id="edge8_Node000007_Node000005" class="edge">
<title>Node7&#45;&gt;Node5</title>
<g id="a_edge8_Node000007_Node000005"><a xlink:title=" ">
<path fill="none" stroke="#63b8ff" d="M284.3,-54.98C313.9,-45.92 360.87,-31.53 393.34,-21.58"/>
<polygon fill="#63b8ff" stroke="#63b8ff" points="394.37,-24.92 402.91,-18.65 392.32,-18.23 394.37,-24.92"/>
</a>
</g>
</g>
<!-- Node7&#45;&gt;Node6 -->
<g id="edge9_Node000007_Node000006" class="edge">
<title>Node7&#45;&gt;Node6</title>
<g id="a_edge9_Node000007_Node000006"><a xlink:title=" ">
<path fill="none" stroke="#63b8ff" d="M269.03,-54.98C280.9,-46.92 298.96,-34.65 313.11,-25.03"/>
<polygon fill="#63b8ff" stroke="#63b8ff" points="315.44,-27.69 321.74,-19.17 311.5,-21.9 315.44,-27.69"/>
</a>
</g>
</g>
<!-- Node8&#45;&gt;Node5 -->
<g id="edge11_Node000008_Node000005" class="edge">
<title>Node8&#45;&gt;Node5</title>
<g id="a_edge11_Node000008_Node000005"><a xlink:title=" ">
<path fill="none" stroke="#63b8ff" d="M505.71,-109.66C491.9,-91.69 460.35,-50.64 442.48,-27.38"/>
<polygon fill="#63b8ff" stroke="#63b8ff" points="445.02,-24.95 436.15,-19.16 439.47,-29.22 445.02,-24.95"/>
</a>
</g>
</g>
<!-- Node9&#45;&gt;Node3 -->
<g id="edge15_Node000009_Node000003" class="edge">
<title>Node9&#45;&gt;Node3</title>
<g id="a_edge15_Node000009_Node000003"><a xlink:title=" ">
<path fill="none" stroke="#63b8ff" d="M185.12,-164.74C184.03,-139.31 180.84,-65.08 179.32,-29.69"/>
<polygon fill="#63b8ff" stroke="#63b8ff" points="182.8,-29.15 178.88,-19.31 175.81,-29.45 182.8,-29.15"/>
</a>
</g>
</g>
<!-- Node10 -->
<g id="Node000010" class="node">
<title>Node10</title>
<g id="a_Node000010"><a xlink:title=" ">
<polygon fill="#e0e0e0" stroke="#999999" points="157.5,-129 107.5,-129 107.5,-110 157.5,-110 157.5,-129"/>
<text text-anchor="middle" x="132.5" y="-117" font-family="Helvetica,sans-Serif" font-size="10.00">stdio.h</text>
</a>
</g>
</g>
<!-- Node9&#45;&gt;Node10 -->
<g id="edge14_Node000009_Node000010" class="edge">
<title>Node9&#45;&gt;Node10</title>
<g id="a_edge14_Node000009_Node000010"><a xlink:title=" ">
<path fill="none" stroke="#63b8ff" d="M176.75,-164.75C169.03,-157.03 157.6,-145.6 148.28,-136.28"/>
<polygon fill="#63b8ff" stroke="#63b8ff" points="150.64,-133.69 141.09,-129.09 145.69,-138.64 150.64,-133.69"/>
</a>
</g>
</g>
<!-- Node11&#45;&gt;Node8 -->
<g id="edge17_Node000011_Node000008" class="edge">
<title>Node11&#45;&gt;Node8</title>
<g id="a_edge17_Node000011_Node000008"><a xlink:title=" ">
<path fill="none" stroke="#63b8ff" d="M535.88,-164.75C532.04,-157.49 526.48,-146.95 521.74,-137.98"/>
<polygon fill="#63b8ff" stroke="#63b8ff" points="524.8,-136.3 517.04,-129.09 518.61,-139.57 524.8,-136.3"/>
</a>
</g>
</g>
<!-- Node11&#45;&gt;Node12 -->
<g id="edge18_Node000011_Node000012" class="edge">
<title>Node11&#45;&gt;Node12</title>
<g id="a_edge18_Node000011_Node000012"><a xlink:title=" ">
<path fill="none" stroke="#63b8ff" d="M550.94,-164.98C560.65,-157.07 575.32,-145.11 587,-135.58"/>
<polygon fill="#63b8ff" stroke="#63b8ff" points="589.33,-138.2 594.87,-129.17 584.9,-132.78 589.33,-138.2"/>
</a>
</g>
</g>
<!-- Node13 -->
<g id="Node000013" class="node">
<title>Node13</title>
<g id="a_Node000013"><a xlink:title=" ">
<polygon fill="#e0e0e0" stroke="#999999" points="630.5,-74 580.5,-74 580.5,-55 630.5,-55 630.5,-74"/>
<text text-anchor="middle" x="605.5" y="-62" font-family="Helvetica,sans-Serif" font-size="10.00">main.h</text>
</a>
</g>
</g>
<!-- Node12&#45;&gt;Node13 -->
<g id="edge19_Node000012_Node000013" class="edge">
<title>Node12&#45;&gt;Node13</title>
<g id="a_edge19_Node000012_Node000013"><a xlink:title=" ">
<path fill="none" stroke="#63b8ff" d="M605.5,-109.75C605.5,-102.8 605.5,-92.85 605.5,-84.13"/>
<polygon fill="#63b8ff" stroke="#63b8ff" points="609,-84.09 605.5,-74.09 602,-84.09 609,-84.09"/>
</a>
</g>
</g>
<!-- Node14&#45;&gt;Node4 -->
<g id="edge23_Node000014_Node000004" class="edge">
<title>Node14&#45;&gt;Node4</title>
<g id="a_edge23_Node000014_Node000004"><a xlink:title=" ">
<path fill="none" stroke="#63b8ff" d="M395.25,-164.98C384.7,-157 368.7,-144.88 356.06,-135.31"/>
<polygon fill="#63b8ff" stroke="#63b8ff" points="358.04,-132.42 347.95,-129.17 353.81,-138 358.04,-132.42"/>
</a>
</g>
</g>
<!-- Node14&#45;&gt;Node5 -->
<g id="edge21_Node000014_Node000005" class="edge">
<title>Node14&#45;&gt;Node5</title>
<g id="a_edge21_Node000014_Node000005"><a xlink:title=" ">
<path fill="none" stroke="#63b8ff" d="M411,-164.92C415.35,-156.16 421.68,-142.03 424.5,-129 431.99,-94.41 431.68,-52.85 430.66,-29.27"/>
<polygon fill="#63b8ff" stroke="#63b8ff" points="434.16,-29.06 430.14,-19.25 427.16,-29.42 434.16,-29.06"/>
</a>
</g>
</g>
<!-- Node14&#45;&gt;Node6 -->
<g id="edge22_Node000014_Node000006" class="edge">
<title>Node14&#45;&gt;Node6</title>
<g id="a_edge22_Node000014_Node000006"><a xlink:title=" ">
<path fill="none" stroke="#63b8ff" d="M404.06,-164.72C400.52,-152.32 393.48,-129.06 385.5,-110 373.12,-80.42 355.48,-47.58 344.52,-28.01"/>
<polygon fill="#63b8ff" stroke="#63b8ff" points="347.44,-26.05 339.47,-19.07 341.34,-29.5 347.44,-26.05"/>
</a>
</g>
</g>
<!-- Node14&#45;&gt;Node8 -->
<g id="edge24_Node000014_Node000008" class="edge">
<title>Node14&#45;&gt;Node8</title>
<g id="a_edge24_Node000014_Node000008"><a xlink:title=" ">
<path fill="none" stroke="#63b8ff" d="M423.53,-164.98C440.43,-156.54 466.56,-143.47 486.14,-133.68"/>
<polygon fill="#63b8ff" stroke="#63b8ff" points="487.78,-136.77 495.16,-129.17 484.65,-130.51 487.78,-136.77"/>
</a>
</g>
</g>
<!-- Node14&#45;&gt;Node12 -->
<g id="edge25_Node000014_Node000012" class="edge">
<title>Node14&#45;&gt;Node12</title>
<g id="a_edge25_Node000014_Node000012"><a xlink:title=" ">
<path fill="none" stroke="#63b8ff" d="M438.47,-164.98C472.32,-155.97 525.9,-141.7 563.21,-131.76"/>
<polygon fill="#63b8ff" stroke="#63b8ff" points="564.51,-135.04 573.28,-129.08 562.71,-128.27 564.51,-135.04"/>
</a>
</g>
</g>
</g>
</svg>
