<?xml version="1.0" encoding="UTF-8" standalone="no"?>
<!DOCTYPE svg PUBLIC "-//W3C//DTD SVG 1.1//EN"
 "http://www.w3.org/Graphics/SVG/1.1/DTD/svg11.dtd">
<!-- Generated by graphviz version 2.43.0 (0)
 -->
<!-- Title: drivers/platform/stm32/stm32_pwm.h Pages: 1 -->
<svg width="268pt" height="148pt"
 viewBox="0.00 0.00 267.86 148.00" xmlns="http://www.w3.org/2000/svg" xmlns:xlink="http://www.w3.org/1999/xlink">
<g id="graph0" class="graph" transform="scale(1 1) rotate(0) translate(4 144)">
<title>drivers/platform/stm32/stm32_pwm.h</title>
<!-- Node1 -->
<g id="Node000001" class="node">
<title>Node1</title>
<g id="a_Node000001"><a xlink:title="Header file for stm32 pwm specifics.">
<polygon fill="#999999" stroke="#666666" points="149.86,-140 20.86,-140 20.86,-110 149.86,-110 149.86,-140"/>
<text text-anchor="start" x="28.86" y="-128" font-family="Helvetica,sans-Serif" font-size="10.00">drivers/platform/stm32</text>
<text text-anchor="middle" x="85.36" y="-117" font-family="Helvetica,sans-Serif" font-size="10.00">/stm32_pwm.h</text>
</a>
</g>
</g>
<!-- Node2 -->
<g id="Node000002" class="node">
<title>Node2</title>
<g id="a_Node000002"><a xlink:title=" ">
<polygon fill="#e0e0e0" stroke="#999999" points="82.86,-19 29.86,-19 29.86,0 82.86,0 82.86,-19"/>
<text text-anchor="middle" x="56.36" y="-7" font-family="Helvetica,sans-Serif" font-size="10.00">stdint.h</text>
</a>
</g>
</g>
<!-- Node1&#45;&gt;Node2 -->
<g id="edge1_Node000001_Node000002" class="edge">
<title>Node1&#45;&gt;Node2</title>
<g id="a_edge1_Node000001_Node000002"><a xlink:title=" ">
<path fill="none" stroke="#63b8ff" d="M45.39,-109.79C29.34,-101.89 12.5,-90.28 3.36,-74 -7.15,-55.28 12.7,-36.76 31.03,-24.6"/>
<polygon fill="#63b8ff" stroke="#63b8ff" points="33.12,-27.42 39.76,-19.17 29.42,-21.47 33.12,-27.42"/>
</a>
</g>
</g>
<!-- Node3 -->
<g id="Node000003" class="node">
<title>Node3</title>
<g id="a_Node000003"><a xlink:title=" ">
<polygon fill="#e0e0e0" stroke="#999999" points="74.36,-74 12.36,-74 12.36,-55 74.36,-55 74.36,-74"/>
<text text-anchor="middle" x="43.36" y="-62" font-family="Helvetica,sans-Serif" font-size="10.00">stdbool.h</text>
</a>
</g>
</g>
<!-- Node1&#45;&gt;Node3 -->
<g id="edge2_Node000001_Node000003" class="edge">
<title>Node1&#45;&gt;Node3</title>
<g id="a_edge2_Node000001_Node000003"><a xlink:title=" ">
<path fill="none" stroke="#63b8ff" d="M75.19,-109.84C69.28,-101.61 61.8,-91.18 55.57,-82.51"/>
<polygon fill="#63b8ff" stroke="#63b8ff" points="58.33,-80.35 49.65,-74.27 52.64,-84.43 58.33,-80.35"/>
</a>
</g>
</g>
<!-- Node4 -->
<g id="Node000004" class="node">
<title>Node4</title>
<g id="a_Node000004"><a xlink:href="no__os__irq_8h.html" target="_top" xlink:title="Header file of IRQ interface.">
<polygon fill="white" stroke="#666666" points="164.36,-74 92.36,-74 92.36,-55 164.36,-55 164.36,-74"/>
<text text-anchor="middle" x="128.36" y="-62" font-family="Helvetica,sans-Serif" font-size="10.00">no_os_irq.h</text>
</a>
</g>
</g>
<!-- Node1&#45;&gt;Node4 -->
<g id="edge3_Node000001_Node000004" class="edge">
<title>Node1&#45;&gt;Node4</title>
<g id="a_edge3_Node000001_Node000004"><a xlink:title=" ">
<path fill="none" stroke="#63b8ff" d="M95.77,-109.84C101.82,-101.61 109.48,-91.18 115.86,-82.51"/>
<polygon fill="#63b8ff" stroke="#63b8ff" points="118.81,-84.4 121.92,-74.27 113.17,-80.25 118.81,-84.4"/>
</a>
</g>
</g>
<!-- Node5 -->
<g id="Node000005" class="node">
<title>Node5</title>
<g id="a_Node000005"><a xlink:href="stm32__hal_8h.html" target="_top" xlink:title=" ">
<polygon fill="white" stroke="#666666" points="259.86,-74 182.86,-74 182.86,-55 259.86,-55 259.86,-74"/>
<text text-anchor="middle" x="221.36" y="-62" font-family="Helvetica,sans-Serif" font-size="10.00">stm32_hal.h</text>
</a>
</g>
</g>
<!-- Node1&#45;&gt;Node5 -->
<g id="edge5_Node000001_Node000005" class="edge">
<title>Node1&#45;&gt;Node5</title>
<g id="a_edge5_Node000001_Node000005"><a xlink:title=" ">
<path fill="none" stroke="#63b8ff" d="M117.93,-109.99C140.42,-100.31 170.08,-87.56 191.87,-78.18"/>
<polygon fill="#63b8ff" stroke="#63b8ff" points="193.47,-81.31 201.27,-74.14 190.7,-74.88 193.47,-81.31"/>
</a>
</g>
</g>
<!-- Node4&#45;&gt;Node2 -->
<g id="edge4_Node000004_Node000002" class="edge">
<title>Node4&#45;&gt;Node2</title>
<g id="a_edge4_Node000004_Node000002"><a xlink:title=" ">
<path fill="none" stroke="#63b8ff" d="M116.79,-54.98C105.94,-47 89.48,-34.88 76.48,-25.31"/>
<polygon fill="#63b8ff" stroke="#63b8ff" points="78.27,-22.28 68.14,-19.17 74.12,-27.92 78.27,-22.28"/>
</a>
</g>
</g>
<!-- Node6 -->
<g id="Node000006" class="node">
<title>Node6</title>
<g id="a_Node000006"><a xlink:title=" ">
<polygon fill="#e0e0e0" stroke="#999999" points="246.36,-19 196.36,-19 196.36,0 246.36,0 246.36,-19"/>
<text text-anchor="middle" x="221.36" y="-7" font-family="Helvetica,sans-Serif" font-size="10.00">main.h</text>
</a>
</g>
</g>
<!-- Node5&#45;&gt;Node6 -->
<g id="edge6_Node000005_Node000006" class="edge">
<title>Node5&#45;&gt;Node6</title>
<g id="a_edge6_Node000005_Node000006"><a xlink:title=" ">
<path fill="none" stroke="#63b8ff" d="M221.36,-54.75C221.36,-47.8 221.36,-37.85 221.36,-29.13"/>
<polygon fill="#63b8ff" stroke="#63b8ff" points="224.86,-29.09 221.36,-19.09 217.86,-29.09 224.86,-29.09"/>
</a>
</g>
</g>
</g>
</svg>
