<?xml version="1.0" encoding="UTF-8" standalone="no"?>
<!DOCTYPE svg PUBLIC "-//W3C//DTD SVG 1.1//EN"
 "http://www.w3.org/Graphics/SVG/1.1/DTD/svg11.dtd">
<!-- Generated by graphviz version 2.43.0 (0)
 -->
<!-- Title: ad7616_init_param Pages: 1 -->
<!--zoomable 335 -->

<svg id="main" version="1.1" xmlns="http://www.w3.org/2000/svg" xmlns:xlink="http://www.w3.org/1999/xlink" xml:space="preserve" onload="init(evt)">

<style type="text/css"><![CDATA[
.node, .edge {opacity: 0.7;}
.node.selected, .edge.selected {opacity: 1;}
.edge:hover path { stroke: red; }
.edge:hover polygon { stroke: red; fill: red; }
]]></style>

<defs>
  <circle id="rim" cx="0" cy="0" r="7"/>
  <circle id="rim2" cx="0" cy="0" r="3.5"/>
  <g id="zoomPlus">
    <use xlink:href="#rim" fill="#404040"><set attributeName="fill" to="#808080" begin="zoomplus.mouseover" end="zoomplus.mouseout"/></use>
    <path d="M-4,0h8M0,-4v8" fill="none" stroke="white" stroke-width="1.5" pointer-events="none"/>
  </g>
  <g id="zoomMin">
    <use xlink:href="#rim" fill="#404040"><set attributeName="fill" to="#808080" begin="zoomminus.mouseover" end="zoomminus.mouseout"/></use>
    <path d="M-4,0h8" fill="none" stroke="white" stroke-width="1.5" pointer-events="none"/>
  </g>
  <g id="arrowUp" transform="translate(30 24)">
    <use xlink:href="#rim"/>
    <path pointer-events="none" fill="none" stroke="white" stroke-width="1.5" d="M0,-3.0v7 M-2.5,-0.5L0,-3.0L2.5,-0.5"/>
  </g>
  <g id="arrowRight" transform="rotate(90) translate(36 -43)">
    <use xlink:href="#rim"/>
    <path pointer-events="none" fill="none" stroke="white" stroke-width="1.5" d="M0,-3.0v7 M-2.5,-0.5L0,-3.0L2.5,-0.5"/>
  </g>
  <g id="arrowDown" transform="rotate(180) translate(-30 -48)">
    <use xlink:href="#rim"/>
    <path pointer-events="none" fill="none" stroke="white" stroke-width="1.5" d="M0,-3.0v7 M-2.5,-0.5L0,-3.0L2.5,-0.5"/>
  </g>
  <g id="arrowLeft" transform="rotate(270) translate(-36 17)">
    <use xlink:href="#rim"/>
    <path pointer-events="none" fill="none" stroke="white" stroke-width="1.5" d="M0,-3.0v7 M-2.5,-0.5L0,-3.0L2.5,-0.5"/>
  </g>
  <g id="resetDef">
    <use xlink:href="#rim2" fill="#404040"><set attributeName="fill" to="#808080" begin="reset.mouseover" end="reset.mouseout"/></use>
  </g>
</defs>
<script type="application/ecmascript">
var viewWidth = 1127;
var viewHeight = 335;
var sectionId = 'dynsection-0';
</script>
<script type="application/ecmascript" xlink:href="svg.min.js"/>
<svg id="graph" class="graph">
<g id="viewport">
<title>ad7616_init_param</title>
<!-- Node1 -->
<g id="Node000001" class="node">
<title>Node1</title>
<g id="a_Node000001"><a xlink:title=" ">
<polygon fill="#999999" stroke="#666666" points="1119,-102 1009,-102 1009,-83 1119,-83 1119,-102"/>
<text text-anchor="middle" x="1064" y="-90" font-family="Helvetica,sans-Serif" font-size="10.00">ad7616_init_param</text>
</a>
</g>
</g>
<!-- Node2 -->
<g id="Node000002" class="node">
<title>Node2</title>
<g id="a_Node000002"><a xlink:href="structno__os__spi__init__param.html" target="_top" xlink:title="Structure holding the parameters for SPI initialization.">
<polygon fill="white" stroke="#666666" points="873,-266 751,-266 751,-247 873,-247 873,-266"/>
<text text-anchor="middle" x="812" y="-254" font-family="Helvetica,sans-Serif" font-size="10.00">no_os_spi_init_param</text>
</a>
</g>
</g>
<!-- Node2&#45;&gt;Node1 -->
<g id="edge1_Node000001_Node000002" class="edge">
<title>Node2&#45;&gt;Node1</title>
<g id="a_edge1_Node000001_Node000002"><a xlink:title=" ">
<path fill="none" stroke="#9a32cd" stroke-dasharray="5,2" d="M870.53,-244.42C907.79,-234.42 955.75,-217.25 991,-189.5 1023.13,-164.2 1048.09,-121.16 1058.16,-102.09"/>
<polygon fill="#9a32cd" stroke="#9a32cd" points="869.62,-241.04 860.81,-246.93 871.37,-247.81 869.62,-241.04"/>
</a>
</g>
<text text-anchor="middle" x="943.5" y="-238.5" font-family="Helvetica,sans-Serif" font-size="10.00" fill="grey"> spi_param</text>
</g>
<!-- Node3 -->
<g id="Node000003" class="node">
<title>Node3</title>
<g id="a_Node000003"><a xlink:href="structno__os__spi__platform__ops.html" target="_top" xlink:title="Structure holding SPI function pointers that point to the platform specific function.">
<polygon fill="white" stroke="#666666" points="134,-294 0,-294 0,-275 134,-275 134,-294"/>
<text text-anchor="middle" x="67" y="-282" font-family="Helvetica,sans-Serif" font-size="10.00">no_os_spi_platform_ops</text>
</a>
</g>
</g>
<!-- Node3&#45;&gt;Node2 -->
<g id="edge2_Node000002_Node000003" class="edge">
<title>Node3&#45;&gt;Node2</title>
<g id="a_edge2_Node000002_Node000003"><a xlink:title=" ">
<path fill="none" stroke="#9a32cd" stroke-dasharray="5,2" d="M142.94,-295.31C252.95,-309.34 464.35,-329.24 642,-304.5 694.26,-297.22 753.07,-277.86 785.71,-266.07"/>
<polygon fill="#9a32cd" stroke="#9a32cd" points="143.3,-291.83 132.94,-294.02 142.41,-298.77 143.3,-291.83"/>
</a>
</g>
<text text-anchor="middle" x="438.5" y="-318.5" font-family="Helvetica,sans-Serif" font-size="10.00" fill="grey"> platform_ops</text>
</g>
<!-- Node5 -->
<g id="Node000005" class="node">
<title>Node5</title>
<g id="a_Node000005"><a xlink:href="structno__os__spi__desc.html" target="_top" xlink:title="Structure holding SPI descriptor.">
<polygon fill="white" stroke="#666666" points="616,-266 524,-266 524,-247 616,-247 616,-266"/>
<text text-anchor="middle" x="570" y="-254" font-family="Helvetica,sans-Serif" font-size="10.00">no_os_spi_desc</text>
</a>
</g>
</g>
<!-- Node3&#45;&gt;Node5 -->
<g id="edge7_Node000005_Node000003" class="edge">
<title>Node3&#45;&gt;Node5</title>
<g id="a_edge7_Node000005_Node000003"><a xlink:title=" ">
<path fill="none" stroke="#9a32cd" stroke-dasharray="5,2" d="M144.12,-281.74C226.85,-278.53 362.9,-272.6 480,-264.5 494.24,-263.51 509.74,-262.2 523.75,-260.93"/>
<polygon fill="#9a32cd" stroke="#9a32cd" points="143.91,-278.25 134.05,-282.13 144.18,-285.24 143.91,-278.25"/>
</a>
</g>
<text text-anchor="middle" x="308.5" y="-280.5" font-family="Helvetica,sans-Serif" font-size="10.00" fill="grey"> platform_ops</text>
</g>
<!-- Node6 -->
<g id="Node000006" class="node">
<title>Node6</title>
<g id="a_Node000006"><a xlink:href="structno__os__spibus__desc.html" target="_top" xlink:title="SPI bus descriptor.">
<polygon fill="white" stroke="#666666" points="363.5,-248 253.5,-248 253.5,-229 363.5,-229 363.5,-248"/>
<text text-anchor="middle" x="308.5" y="-236" font-family="Helvetica,sans-Serif" font-size="10.00">no_os_spibus_desc</text>
</a>
</g>
</g>
<!-- Node3&#45;&gt;Node6 -->
<g id="edge6_Node000006_Node000003" class="edge">
<title>Node3&#45;&gt;Node6</title>
<g id="a_edge6_Node000006_Node000003"><a xlink:title=" ">
<path fill="none" stroke="#9a32cd" stroke-dasharray="5,2" d="M105.65,-271.94C120.03,-267.5 136.65,-262.8 152,-259.5 185.29,-252.34 223.15,-247.17 253.17,-243.75"/>
<polygon fill="#9a32cd" stroke="#9a32cd" points="104.59,-268.6 96.1,-274.95 106.69,-275.28 104.59,-268.6"/>
</a>
</g>
<text text-anchor="middle" x="186" y="-262.5" font-family="Helvetica,sans-Serif" font-size="10.00" fill="grey"> platform_ops</text>
</g>
<!-- Node4 -->
<g id="Node000004" class="node">
<title>Node4</title>
<g id="a_Node000004"><a xlink:href="structno__os__platform__spi__delays.html" target="_top" xlink:title="Delays resulted from components in the SPI signal path. The values is ns.">
<polygon fill="white" stroke="#666666" points="364.5,-207.5 252.5,-207.5 252.5,-177.5 364.5,-177.5 364.5,-207.5"/>
<text text-anchor="start" x="260.5" y="-195.5" font-family="Helvetica,sans-Serif" font-size="10.00">no_os_platform_spi</text>
<text text-anchor="middle" x="308.5" y="-184.5" font-family="Helvetica,sans-Serif" font-size="10.00">_delays</text>
</a>
</g>
</g>
<!-- Node4&#45;&gt;Node2 -->
<g id="edge3_Node000002_Node000004" class="edge">
<title>Node4&#45;&gt;Node2</title>
<g id="a_edge3_Node000002_Node000004"><a xlink:title=" ">
<path fill="none" stroke="#9a32cd" stroke-dasharray="5,2" d="M374.9,-197.15C406.66,-199.59 445.35,-202.83 480,-206.5 552.2,-214.14 570.21,-216.69 642,-227.5 681.3,-233.42 725.57,-241.05 758.94,-247"/>
<polygon fill="#9a32cd" stroke="#9a32cd" points="375.08,-193.65 364.85,-196.38 374.55,-200.63 375.08,-193.65"/>
</a>
</g>
<text text-anchor="middle" x="570" y="-230.5" font-family="Helvetica,sans-Serif" font-size="10.00" fill="grey"> platform_delays</text>
</g>
<!-- Node4&#45;&gt;Node5 -->
<g id="edge8_Node000005_Node000004" class="edge">
<title>Node4&#45;&gt;Node5</title>
<g id="a_edge8_Node000005_Node000004"><a xlink:title=" ">
<path fill="none" stroke="#9a32cd" stroke-dasharray="5,2" d="M374.76,-205.37C406.64,-211.99 445.48,-220.53 480,-229.5 500,-234.7 522.25,-241.45 539.5,-246.9"/>
<polygon fill="#9a32cd" stroke="#9a32cd" points="375.17,-201.88 364.67,-203.29 373.76,-208.74 375.17,-201.88"/>
</a>
</g>
<text text-anchor="middle" x="438.5" y="-232.5" font-family="Helvetica,sans-Serif" font-size="10.00" fill="grey"> platform_delays</text>
</g>
<!-- Node5&#45;&gt;Node2 -->
<g id="edge4_Node000002_Node000005" class="edge">
<title>Node5&#45;&gt;Node2</title>
<g id="a_edge4_Node000002_Node000005"><a xlink:title=" ">
<path fill="none" stroke="#9a32cd" stroke-dasharray="5,2" d="M626.3,-256.5C663.47,-256.5 712.46,-256.5 750.65,-256.5"/>
<polygon fill="#9a32cd" stroke="#9a32cd" points="626.14,-253 616.14,-256.5 626.14,-260 626.14,-253"/>
</a>
</g>
<text text-anchor="middle" x="694" y="-259.5" font-family="Helvetica,sans-Serif" font-size="10.00" fill="grey"> parent</text>
</g>
<!-- Node5&#45;&gt;Node5 -->
<g id="edge9_Node000005_Node000005" class="edge">
<title>Node5&#45;&gt;Node5</title>
<g id="a_edge9_Node000005_Node000005"><a xlink:title=" ">
<path fill="none" stroke="#9a32cd" stroke-dasharray="5,2" d="M547.04,-275.55C548.57,-280.38 556.23,-284 570,-284 592.04,-284 598.41,-274.73 589.11,-266.08"/>
<polygon fill="#9a32cd" stroke="#9a32cd" points="550.36,-276.66 550.89,-266.08 543.88,-274.03 550.36,-276.66"/>
</a>
</g>
<text text-anchor="middle" x="570" y="-287" font-family="Helvetica,sans-Serif" font-size="10.00" fill="grey"> parent</text>
</g>
<!-- Node6&#45;&gt;Node5 -->
<g id="edge5_Node000005_Node000006" class="edge">
<title>Node6&#45;&gt;Node5</title>
<g id="a_edge5_Node000005_Node000006"><a xlink:title=" ">
<path fill="none" stroke="#9a32cd" stroke-dasharray="5,2" d="M373.58,-242.94C420.17,-246.18 482.1,-250.47 523.64,-253.35"/>
<polygon fill="#9a32cd" stroke="#9a32cd" points="373.8,-239.45 363.58,-242.25 373.32,-246.44 373.8,-239.45"/>
</a>
</g>
<text text-anchor="middle" x="438.5" y="-252.5" font-family="Helvetica,sans-Serif" font-size="10.00" fill="grey"> bus</text>
</g>
<!-- Node7 -->
<g id="Node000007" class="node">
<title>Node7</title>
<g id="a_Node000007"><a xlink:href="structspi__engine__offload__init__param.html" target="_top" xlink:title="Structure containing the init parameters needed by the offload module.">
<polygon fill="white" stroke="#666666" points="866,-228.5 758,-228.5 758,-198.5 866,-198.5 866,-228.5"/>
<text text-anchor="start" x="766" y="-216.5" font-family="Helvetica,sans-Serif" font-size="10.00">spi_engine_offload</text>
<text text-anchor="middle" x="812" y="-205.5" font-family="Helvetica,sans-Serif" font-size="10.00">_init_param</text>
</a>
</g>
</g>
<!-- Node7&#45;&gt;Node1 -->
<g id="edge10_Node000001_Node000007" class="edge">
<title>Node7&#45;&gt;Node1</title>
<g id="a_edge10_Node000001_Node000007"><a xlink:title=" ">
<path fill="none" stroke="#9a32cd" stroke-dasharray="5,2" d="M856.99,-194.17C864.04,-190.99 871.24,-187.69 878,-184.5 939.48,-155.51 1011.31,-119.03 1044.48,-102.03"/>
<polygon fill="#9a32cd" stroke="#9a32cd" points="855.22,-191.13 847.53,-198.42 858.09,-197.52 855.22,-191.13"/>
</a>
</g>
<text text-anchor="middle" x="943.5" y="-177.5" font-family="Helvetica,sans-Serif" font-size="10.00" fill="grey"> offload_init_param</text>
</g>
<!-- Node8 -->
<g id="Node000008" class="node">
<title>Node8</title>
<g id="a_Node000008"><a xlink:href="structno__os__pwm__init__param.html" target="_top" xlink:title="Structure containing the init parameters needed by the PWM generator.">
<polygon fill="white" stroke="#666666" points="878,-56 746,-56 746,-37 878,-37 878,-56"/>
<text text-anchor="middle" x="812" y="-44" font-family="Helvetica,sans-Serif" font-size="10.00">no_os_pwm_init_param</text>
</a>
</g>
</g>
<!-- Node8&#45;&gt;Node1 -->
<g id="edge11_Node000001_Node000008" class="edge">
<title>Node8&#45;&gt;Node1</title>
<g id="a_edge11_Node000001_Node000008"><a xlink:title=" ">
<path fill="none" stroke="#9a32cd" stroke-dasharray="5,2" d="M888.42,-51.75C920.33,-54.91 957.75,-59.86 991,-67.5 1007.64,-71.32 1025.79,-77.64 1039.7,-82.97"/>
<polygon fill="#9a32cd" stroke="#9a32cd" points="888.55,-48.25 878.26,-50.79 887.88,-55.22 888.55,-48.25"/>
</a>
</g>
<text text-anchor="middle" x="943.5" y="-70.5" font-family="Helvetica,sans-Serif" font-size="10.00" fill="grey"> trigger_pwm_init</text>
</g>
<!-- Node9 -->
<g id="Node000009" class="node">
<title>Node9</title>
<g id="a_Node000009"><a xlink:href="structno__os__gpio__init__param.html" target="_top" xlink:title="Structure holding the parameters for GPIO initialization.">
<polygon fill="white" stroke="#666666" points="634.5,-91 505.5,-91 505.5,-72 634.5,-72 634.5,-91"/>
<text text-anchor="middle" x="570" y="-79" font-family="Helvetica,sans-Serif" font-size="10.00">no_os_gpio_init_param</text>
</a>
</g>
</g>
<!-- Node9&#45;&gt;Node1 -->
<g id="edge16_Node000001_Node000009" class="edge">
<title>Node9&#45;&gt;Node1</title>
<g id="a_edge16_Node000001_Node000009"><a xlink:title=" ">
<path fill="none" stroke="#9a32cd" stroke-dasharray="5,2" d="M644.56,-83.14C744.28,-85.37 920.06,-89.3 1008.68,-91.29"/>
<polygon fill="#9a32cd" stroke="#9a32cd" points="644.64,-79.65 634.56,-82.92 644.48,-86.64 644.64,-79.65"/>
</a>
</g>
<text text-anchor="middle" x="812" y="-167.5" font-family="Helvetica,sans-Serif" font-size="10.00" fill="grey"> gpio_busy_param</text>
<text text-anchor="middle" x="812" y="-156.5" font-family="Helvetica,sans-Serif" font-size="10.00" fill="grey">gpio_convst_param</text>
<text text-anchor="middle" x="812" y="-145.5" font-family="Helvetica,sans-Serif" font-size="10.00" fill="grey">gpio_hw_rngsel0_param</text>
<text text-anchor="middle" x="812" y="-134.5" font-family="Helvetica,sans-Serif" font-size="10.00" fill="grey">gpio_hw_rngsel1_param</text>
<text text-anchor="middle" x="812" y="-123.5" font-family="Helvetica,sans-Serif" font-size="10.00" fill="grey">gpio_os0_param</text>
<text text-anchor="middle" x="812" y="-112.5" font-family="Helvetica,sans-Serif" font-size="10.00" fill="grey">gpio_os1_param</text>
<text text-anchor="middle" x="812" y="-101.5" font-family="Helvetica,sans-Serif" font-size="10.00" fill="grey">gpio_os2_param</text>
<text text-anchor="middle" x="812" y="-90.5" font-family="Helvetica,sans-Serif" font-size="10.00" fill="grey">gpio_reset_param</text>
</g>
<!-- Node9&#45;&gt;Node8 -->
<g id="edge12_Node000008_Node000009" class="edge">
<title>Node9&#45;&gt;Node8</title>
<g id="a_edge12_Node000008_Node000009"><a xlink:title=" ">
<path fill="none" stroke="#9a32cd" stroke-dasharray="5,2" d="M640.93,-70.38C647.37,-69.39 653.81,-68.42 660,-67.5 688.15,-63.33 719.28,-58.96 745.93,-55.29"/>
<polygon fill="#9a32cd" stroke="#9a32cd" points="640.17,-66.96 630.82,-71.94 641.24,-73.87 640.17,-66.96"/>
</a>
</g>
<text text-anchor="middle" x="694" y="-70.5" font-family="Helvetica,sans-Serif" font-size="10.00" fill="grey"> pwm_gpio</text>
</g>
<!-- Node10 -->
<g id="Node000010" class="node">
<title>Node10</title>
<g id="a_Node000010"><a xlink:href="structno__os__gpio__platform__ops.html" target="_top" xlink:title="Structure holding gpio function pointers that point to the platform specific function.">
<polygon fill="white" stroke="#666666" points="379,-91 238,-91 238,-72 379,-72 379,-91"/>
<text text-anchor="middle" x="308.5" y="-79" font-family="Helvetica,sans-Serif" font-size="10.00">no_os_gpio_platform_ops</text>
</a>
</g>
</g>
<!-- Node10&#45;&gt;Node9 -->
<g id="edge13_Node000009_Node000010" class="edge">
<title>Node10&#45;&gt;Node9</title>
<g id="a_edge13_Node000009_Node000010"><a xlink:title=" ">
<path fill="none" stroke="#9a32cd" stroke-dasharray="5,2" d="M389.38,-81.5C426.69,-81.5 470.49,-81.5 505.49,-81.5"/>
<polygon fill="#9a32cd" stroke="#9a32cd" points="389.04,-78 379.04,-81.5 389.04,-85 389.04,-78"/>
</a>
</g>
<text text-anchor="middle" x="438.5" y="-84.5" font-family="Helvetica,sans-Serif" font-size="10.00" fill="grey"> platform_ops</text>
</g>
<!-- Node11 -->
<g id="Node000011" class="node">
<title>Node11</title>
<g id="a_Node000011"><a xlink:href="structno__os__pwm__platform__ops.html" target="_top" xlink:title="Structure holding PWM function pointers that point to the platform specific function.">
<polygon fill="white" stroke="#666666" points="642,-42 498,-42 498,-23 642,-23 642,-42"/>
<text text-anchor="middle" x="570" y="-30" font-family="Helvetica,sans-Serif" font-size="10.00">no_os_pwm_platform_ops</text>
</a>
</g>
</g>
<!-- Node11&#45;&gt;Node8 -->
<g id="edge14_Node000008_Node000011" class="edge">
<title>Node11&#45;&gt;Node8</title>
<g id="a_edge14_Node000008_Node000011"><a xlink:title=" ">
<path fill="none" stroke="#9a32cd" stroke-dasharray="5,2" d="M652.49,-30.72C676.81,-30.8 703.51,-31.52 728,-33.5 737.74,-34.29 748.07,-35.56 758.01,-37"/>
<polygon fill="#9a32cd" stroke="#9a32cd" points="652.22,-27.22 642.22,-30.71 652.22,-34.22 652.22,-27.22"/>
</a>
</g>
<text text-anchor="middle" x="694" y="-36.5" font-family="Helvetica,sans-Serif" font-size="10.00" fill="grey"> platform_ops</text>
</g>
<!-- Node12 -->
<g id="Node000012" class="node">
<title>Node12</title>
<g id="a_Node000012"><a xlink:href="structaxi__clkgen__init.html" target="_top" xlink:title=" ">
<polygon fill="white" stroke="#666666" points="857,-19 767,-19 767,0 857,0 857,-19"/>
<text text-anchor="middle" x="812" y="-7" font-family="Helvetica,sans-Serif" font-size="10.00">axi_clkgen_init</text>
</a>
</g>
</g>
<!-- Node12&#45;&gt;Node1 -->
<g id="edge15_Node000001_Node000012" class="edge">
<title>Node12&#45;&gt;Node1</title>
<g id="a_edge15_Node000001_Node000012"><a xlink:title=" ">
<path fill="none" stroke="#9a32cd" stroke-dasharray="5,2" d="M867.46,-11.13C903.72,-13.86 951.73,-20.7 991,-37.5 1016.45,-48.39 1040.94,-70.3 1053.76,-82.93"/>
<polygon fill="#9a32cd" stroke="#9a32cd" points="867.3,-7.61 857.09,-10.43 866.83,-14.59 867.3,-7.61"/>
</a>
</g>
<text text-anchor="middle" x="943.5" y="-40.5" font-family="Helvetica,sans-Serif" font-size="10.00" fill="grey"> clkgen_init</text>
</g>
</g>
</svg>

<g id="navigator" transform="translate(0 0)" fill="#404254">
  <rect fill="#f2f5e9" fill-opacity="0.5" stroke="#606060" stroke-width=".5" x="0" y="0" width="60" height="60"/>
  <use id="zoomplus" xlink:href="#zoomPlus" x="17" y="9" onmousedown="handleZoom(evt,'in')"/>
  <use id="zoomminus" xlink:href="#zoomMin" x="42" y="9" onmousedown="handleZoom(evt,'out')"/>
  <use id="reset" xlink:href="#resetDef" x="30" y="36" onmousedown="handleReset()"/>
   <use id="arrowup" xlink:href="#arrowUp" x="0" y="0" onmousedown="handlePan(0,-1)"/>
  <use id="arrowright" xlink:href="#arrowRight" x="0" y="0" onmousedown="handlePan(1,0)"/>
  <use id="arrowdown" xlink:href="#arrowDown" x="0" y="0" onmousedown="handlePan(0,1)"/>
  <use id="arrowleft" xlink:href="#arrowLeft" x="0" y="0" onmousedown="handlePan(-1,0)"/>
</g>
<svg viewBox="0 0 15 15" width="100%" height="30px" preserveAspectRatio="xMaxYMin meet">
 <g id="arrow_out" transform="scale(0.3 0.3)">
  <a xlink:href="structad7616__init__param__coll__graph_org.svg" target="_base">
   <rect id="button" ry="5" rx="5" y="6" x="6" height="38" width="38"
        fill="#f2f5e9" fill-opacity="0.5" stroke="#606060" stroke-width="1.0"/>
   <path id="arrow"
     d="M 11.500037,31.436501 C 11.940474,20.09759 22.043105,11.32322 32.158766,21.979434 L 37.068811,17.246167 C 37.068811,17.246167 37.088388,32 37.088388,32 L 22.160133,31.978069 C 22.160133,31.978069 26.997745,27.140456 26.997745,27.140456 C 18.528582,18.264221 13.291696,25.230495 11.500037,31.436501 z"
     style="fill:#404040;"/>
  </a>
 </g>
</svg>

<style type='text/css'>
<![CDATA[
[data-mouse-over-selected='false'] { opacity: 0.7; }
[data-mouse-over-selected='true']  { opacity: 1.0; }
]]>
</style>
<script type="application/ecmascript"><![CDATA[
document.addEventListener('DOMContentLoaded', (event) => {
  highlightEdges();
  highlightAdjacentNodes();
});
]]></script>
</svg>
