<?xml version="1.0" encoding="UTF-8" standalone="no"?>
<!DOCTYPE svg PUBLIC "-//W3C//DTD SVG 1.1//EN"
 "http://www.w3.org/Graphics/SVG/1.1/DTD/svg11.dtd">
<!-- Generated by graphviz version 2.43.0 (0)
 -->
<!-- Title: ad738x_init_param Pages: 1 -->
<!--zoomable 242 -->

<svg id="main" version="1.1" xmlns="http://www.w3.org/2000/svg" xmlns:xlink="http://www.w3.org/1999/xlink" xml:space="preserve" onload="init(evt)">

<style type="text/css"><![CDATA[
.node, .edge {opacity: 0.7;}
.node.selected, .edge.selected {opacity: 1;}
.edge:hover path { stroke: red; }
.edge:hover polygon { stroke: red; fill: red; }
]]></style>

<defs>
  <circle id="rim" cx="0" cy="0" r="7"/>
  <circle id="rim2" cx="0" cy="0" r="3.5"/>
  <g id="zoomPlus">
    <use xlink:href="#rim" fill="#404040"><set attributeName="fill" to="#808080" begin="zoomplus.mouseover" end="zoomplus.mouseout"/></use>
    <path d="M-4,0h8M0,-4v8" fill="none" stroke="white" stroke-width="1.5" pointer-events="none"/>
  </g>
  <g id="zoomMin">
    <use xlink:href="#rim" fill="#404040"><set attributeName="fill" to="#808080" begin="zoomminus.mouseover" end="zoomminus.mouseout"/></use>
    <path d="M-4,0h8" fill="none" stroke="white" stroke-width="1.5" pointer-events="none"/>
  </g>
  <g id="arrowUp" transform="translate(30 24)">
    <use xlink:href="#rim"/>
    <path pointer-events="none" fill="none" stroke="white" stroke-width="1.5" d="M0,-3.0v7 M-2.5,-0.5L0,-3.0L2.5,-0.5"/>
  </g>
  <g id="arrowRight" transform="rotate(90) translate(36 -43)">
    <use xlink:href="#rim"/>
    <path pointer-events="none" fill="none" stroke="white" stroke-width="1.5" d="M0,-3.0v7 M-2.5,-0.5L0,-3.0L2.5,-0.5"/>
  </g>
  <g id="arrowDown" transform="rotate(180) translate(-30 -48)">
    <use xlink:href="#rim"/>
    <path pointer-events="none" fill="none" stroke="white" stroke-width="1.5" d="M0,-3.0v7 M-2.5,-0.5L0,-3.0L2.5,-0.5"/>
  </g>
  <g id="arrowLeft" transform="rotate(270) translate(-36 17)">
    <use xlink:href="#rim"/>
    <path pointer-events="none" fill="none" stroke="white" stroke-width="1.5" d="M0,-3.0v7 M-2.5,-0.5L0,-3.0L2.5,-0.5"/>
  </g>
  <g id="resetDef">
    <use xlink:href="#rim2" fill="#404040"><set attributeName="fill" to="#808080" begin="reset.mouseover" end="reset.mouseout"/></use>
  </g>
</defs>
<script type="application/ecmascript">
var viewWidth = 1127;
var viewHeight = 242;
var sectionId = 'dynsection-0';
</script>
<script type="application/ecmascript" xlink:href="svg.min.js"/>
<svg id="graph" class="graph">
<g id="viewport">
<title>ad738x_init_param</title>
<!-- Node1 -->
<g id="Node000001" class="node">
<title>Node1</title>
<g id="a_Node000001"><a xlink:title=" ">
<polygon fill="#999999" stroke="#666666" points="1119,-114 1009,-114 1009,-95 1119,-95 1119,-114"/>
<text text-anchor="middle" x="1064" y="-102" font-family="Helvetica,sans-Serif" font-size="10.00">ad738x_init_param</text>
</a>
</g>
</g>
<!-- Node2 -->
<g id="Node000002" class="node">
<title>Node2</title>
<g id="a_Node000002"><a xlink:href="structno__os__spi__init__param.html" target="_top" xlink:title="Structure holding the parameters for SPI initialization.">
<polygon fill="white" stroke="#666666" points="873,-173 751,-173 751,-154 873,-154 873,-173"/>
<text text-anchor="middle" x="812" y="-161" font-family="Helvetica,sans-Serif" font-size="10.00">no_os_spi_init_param</text>
</a>
</g>
</g>
<!-- Node2&#45;&gt;Node1 -->
<g id="edge1_Node000001_Node000002" class="edge">
<title>Node2&#45;&gt;Node1</title>
<g id="a_edge1_Node000001_Node000002"><a xlink:title=" ">
<path fill="none" stroke="#9a32cd" stroke-dasharray="5,2" d="M883.09,-155.25C916.19,-150.45 956.01,-143.37 991,-133.5 1008.9,-128.45 1028.42,-120.42 1042.62,-114.09"/>
<polygon fill="#9a32cd" stroke="#9a32cd" points="882.46,-151.81 873.04,-156.67 883.44,-158.74 882.46,-151.81"/>
</a>
</g>
<text text-anchor="middle" x="943.5" y="-155.5" font-family="Helvetica,sans-Serif" font-size="10.00" fill="grey"> spi_param</text>
</g>
<!-- Node3 -->
<g id="Node000003" class="node">
<title>Node3</title>
<g id="a_Node000003"><a xlink:href="structno__os__spi__platform__ops.html" target="_top" xlink:title="Structure holding SPI function pointers that point to the platform specific function.">
<polygon fill="white" stroke="#666666" points="134,-201 0,-201 0,-182 134,-182 134,-201"/>
<text text-anchor="middle" x="67" y="-189" font-family="Helvetica,sans-Serif" font-size="10.00">no_os_spi_platform_ops</text>
</a>
</g>
</g>
<!-- Node3&#45;&gt;Node2 -->
<g id="edge2_Node000002_Node000003" class="edge">
<title>Node3&#45;&gt;Node2</title>
<g id="a_edge2_Node000002_Node000003"><a xlink:title=" ">
<path fill="none" stroke="#9a32cd" stroke-dasharray="5,2" d="M142.94,-202.31C252.95,-216.34 464.35,-236.24 642,-211.5 694.26,-204.22 753.07,-184.86 785.71,-173.07"/>
<polygon fill="#9a32cd" stroke="#9a32cd" points="143.3,-198.83 132.94,-201.02 142.41,-205.77 143.3,-198.83"/>
</a>
</g>
<text text-anchor="middle" x="438.5" y="-225.5" font-family="Helvetica,sans-Serif" font-size="10.00" fill="grey"> platform_ops</text>
</g>
<!-- Node5 -->
<g id="Node000005" class="node">
<title>Node5</title>
<g id="a_Node000005"><a xlink:href="structno__os__spi__desc.html" target="_top" xlink:title="Structure holding SPI descriptor.">
<polygon fill="white" stroke="#666666" points="616,-173 524,-173 524,-154 616,-154 616,-173"/>
<text text-anchor="middle" x="570" y="-161" font-family="Helvetica,sans-Serif" font-size="10.00">no_os_spi_desc</text>
</a>
</g>
</g>
<!-- Node3&#45;&gt;Node5 -->
<g id="edge7_Node000005_Node000003" class="edge">
<title>Node3&#45;&gt;Node5</title>
<g id="a_edge7_Node000005_Node000003"><a xlink:title=" ">
<path fill="none" stroke="#9a32cd" stroke-dasharray="5,2" d="M144.12,-188.74C226.85,-185.53 362.9,-179.6 480,-171.5 494.24,-170.51 509.74,-169.2 523.75,-167.93"/>
<polygon fill="#9a32cd" stroke="#9a32cd" points="143.91,-185.25 134.05,-189.13 144.18,-192.24 143.91,-185.25"/>
</a>
</g>
<text text-anchor="middle" x="308.5" y="-187.5" font-family="Helvetica,sans-Serif" font-size="10.00" fill="grey"> platform_ops</text>
</g>
<!-- Node6 -->
<g id="Node000006" class="node">
<title>Node6</title>
<g id="a_Node000006"><a xlink:href="structno__os__spibus__desc.html" target="_top" xlink:title="SPI bus descriptor.">
<polygon fill="white" stroke="#666666" points="363.5,-155 253.5,-155 253.5,-136 363.5,-136 363.5,-155"/>
<text text-anchor="middle" x="308.5" y="-143" font-family="Helvetica,sans-Serif" font-size="10.00">no_os_spibus_desc</text>
</a>
</g>
</g>
<!-- Node3&#45;&gt;Node6 -->
<g id="edge6_Node000006_Node000003" class="edge">
<title>Node3&#45;&gt;Node6</title>
<g id="a_edge6_Node000006_Node000003"><a xlink:title=" ">
<path fill="none" stroke="#9a32cd" stroke-dasharray="5,2" d="M105.65,-178.94C120.03,-174.5 136.65,-169.8 152,-166.5 185.29,-159.34 223.15,-154.17 253.17,-150.75"/>
<polygon fill="#9a32cd" stroke="#9a32cd" points="104.59,-175.6 96.1,-181.95 106.69,-182.28 104.59,-175.6"/>
</a>
</g>
<text text-anchor="middle" x="186" y="-169.5" font-family="Helvetica,sans-Serif" font-size="10.00" fill="grey"> platform_ops</text>
</g>
<!-- Node4 -->
<g id="Node000004" class="node">
<title>Node4</title>
<g id="a_Node000004"><a xlink:href="structno__os__platform__spi__delays.html" target="_top" xlink:title="Delays resulted from components in the SPI signal path. The values is ns.">
<polygon fill="white" stroke="#666666" points="364.5,-114.5 252.5,-114.5 252.5,-84.5 364.5,-84.5 364.5,-114.5"/>
<text text-anchor="start" x="260.5" y="-102.5" font-family="Helvetica,sans-Serif" font-size="10.00">no_os_platform_spi</text>
<text text-anchor="middle" x="308.5" y="-91.5" font-family="Helvetica,sans-Serif" font-size="10.00">_delays</text>
</a>
</g>
</g>
<!-- Node4&#45;&gt;Node2 -->
<g id="edge3_Node000002_Node000004" class="edge">
<title>Node4&#45;&gt;Node2</title>
<g id="a_edge3_Node000002_Node000004"><a xlink:title=" ">
<path fill="none" stroke="#9a32cd" stroke-dasharray="5,2" d="M374.9,-104.15C406.66,-106.59 445.35,-109.83 480,-113.5 552.2,-121.14 570.21,-123.69 642,-134.5 681.3,-140.42 725.57,-148.05 758.94,-154"/>
<polygon fill="#9a32cd" stroke="#9a32cd" points="375.08,-100.65 364.85,-103.38 374.55,-107.63 375.08,-100.65"/>
</a>
</g>
<text text-anchor="middle" x="570" y="-137.5" font-family="Helvetica,sans-Serif" font-size="10.00" fill="grey"> platform_delays</text>
</g>
<!-- Node4&#45;&gt;Node5 -->
<g id="edge8_Node000005_Node000004" class="edge">
<title>Node4&#45;&gt;Node5</title>
<g id="a_edge8_Node000005_Node000004"><a xlink:title=" ">
<path fill="none" stroke="#9a32cd" stroke-dasharray="5,2" d="M374.76,-112.37C406.64,-118.99 445.48,-127.53 480,-136.5 500,-141.7 522.25,-148.45 539.5,-153.9"/>
<polygon fill="#9a32cd" stroke="#9a32cd" points="375.17,-108.88 364.67,-110.29 373.76,-115.74 375.17,-108.88"/>
</a>
</g>
<text text-anchor="middle" x="438.5" y="-139.5" font-family="Helvetica,sans-Serif" font-size="10.00" fill="grey"> platform_delays</text>
</g>
<!-- Node5&#45;&gt;Node2 -->
<g id="edge4_Node000002_Node000005" class="edge">
<title>Node5&#45;&gt;Node2</title>
<g id="a_edge4_Node000002_Node000005"><a xlink:title=" ">
<path fill="none" stroke="#9a32cd" stroke-dasharray="5,2" d="M626.3,-163.5C663.47,-163.5 712.46,-163.5 750.65,-163.5"/>
<polygon fill="#9a32cd" stroke="#9a32cd" points="626.14,-160 616.14,-163.5 626.14,-167 626.14,-160"/>
</a>
</g>
<text text-anchor="middle" x="694" y="-166.5" font-family="Helvetica,sans-Serif" font-size="10.00" fill="grey"> parent</text>
</g>
<!-- Node5&#45;&gt;Node5 -->
<g id="edge9_Node000005_Node000005" class="edge">
<title>Node5&#45;&gt;Node5</title>
<g id="a_edge9_Node000005_Node000005"><a xlink:title=" ">
<path fill="none" stroke="#9a32cd" stroke-dasharray="5,2" d="M547.04,-182.55C548.57,-187.38 556.23,-191 570,-191 592.04,-191 598.41,-181.73 589.11,-173.08"/>
<polygon fill="#9a32cd" stroke="#9a32cd" points="550.36,-183.66 550.89,-173.08 543.88,-181.03 550.36,-183.66"/>
</a>
</g>
<text text-anchor="middle" x="570" y="-194" font-family="Helvetica,sans-Serif" font-size="10.00" fill="grey"> parent</text>
</g>
<!-- Node6&#45;&gt;Node5 -->
<g id="edge5_Node000005_Node000006" class="edge">
<title>Node6&#45;&gt;Node5</title>
<g id="a_edge5_Node000005_Node000006"><a xlink:title=" ">
<path fill="none" stroke="#9a32cd" stroke-dasharray="5,2" d="M373.58,-149.94C420.17,-153.18 482.1,-157.47 523.64,-160.35"/>
<polygon fill="#9a32cd" stroke="#9a32cd" points="373.8,-146.45 363.58,-149.25 373.32,-153.44 373.8,-146.45"/>
</a>
</g>
<text text-anchor="middle" x="438.5" y="-159.5" font-family="Helvetica,sans-Serif" font-size="10.00" fill="grey"> bus</text>
</g>
<!-- Node7 -->
<g id="Node000007" class="node">
<title>Node7</title>
<g id="a_Node000007"><a xlink:href="structaxi__clkgen__init.html" target="_top" xlink:title=" ">
<polygon fill="white" stroke="#666666" points="857,-136 767,-136 767,-117 857,-117 857,-136"/>
<text text-anchor="middle" x="812" y="-124" font-family="Helvetica,sans-Serif" font-size="10.00">axi_clkgen_init</text>
</a>
</g>
</g>
<!-- Node7&#45;&gt;Node1 -->
<g id="edge10_Node000001_Node000007" class="edge">
<title>Node7&#45;&gt;Node1</title>
<g id="a_edge10_Node000001_Node000007"><a xlink:title=" ">
<path fill="none" stroke="#9a32cd" stroke-dasharray="5,2" d="M867.15,-121.73C909.1,-118.04 966.93,-112.95 1008.87,-109.26"/>
<polygon fill="#9a32cd" stroke="#9a32cd" points="866.77,-118.25 857.12,-122.62 867.39,-125.23 866.77,-118.25"/>
</a>
</g>
<text text-anchor="middle" x="943.5" y="-121.5" font-family="Helvetica,sans-Serif" font-size="10.00" fill="grey"> clkgen_init</text>
</g>
<!-- Node8 -->
<g id="Node000008" class="node">
<title>Node8</title>
<g id="a_Node000008"><a xlink:href="structspi__engine__offload__init__param.html" target="_top" xlink:title="Structure containing the init parameters needed by the offload module.">
<polygon fill="white" stroke="#666666" points="866,-98.5 758,-98.5 758,-68.5 866,-68.5 866,-98.5"/>
<text text-anchor="start" x="766" y="-86.5" font-family="Helvetica,sans-Serif" font-size="10.00">spi_engine_offload</text>
<text text-anchor="middle" x="812" y="-75.5" font-family="Helvetica,sans-Serif" font-size="10.00">_init_param</text>
</a>
</g>
</g>
<!-- Node8&#45;&gt;Node1 -->
<g id="edge11_Node000001_Node000008" class="edge">
<title>Node8&#45;&gt;Node1</title>
<g id="a_edge11_Node000001_Node000008"><a xlink:title=" ">
<path fill="none" stroke="#9a32cd" stroke-dasharray="5,2" d="M876.34,-85.59C910.39,-87.08 953.06,-89.54 991,-93.5 996.79,-94.1 1002.82,-94.84 1008.82,-95.66"/>
<polygon fill="#9a32cd" stroke="#9a32cd" points="876.21,-82.08 866.07,-85.16 875.91,-89.07 876.21,-82.08"/>
</a>
</g>
<text text-anchor="middle" x="943.5" y="-96.5" font-family="Helvetica,sans-Serif" font-size="10.00" fill="grey"> offload_init_param</text>
</g>
<!-- Node9 -->
<g id="Node000009" class="node">
<title>Node9</title>
<g id="a_Node000009"><a xlink:href="structno__os__pwm__init__param.html" target="_top" xlink:title="Structure containing the init parameters needed by the PWM generator.">
<polygon fill="white" stroke="#666666" points="878,-50 746,-50 746,-31 878,-31 878,-50"/>
<text text-anchor="middle" x="812" y="-38" font-family="Helvetica,sans-Serif" font-size="10.00">no_os_pwm_init_param</text>
</a>
</g>
</g>
<!-- Node9&#45;&gt;Node1 -->
<g id="edge12_Node000001_Node000009" class="edge">
<title>Node9&#45;&gt;Node1</title>
<g id="a_edge12_Node000001_Node000009"><a xlink:title=" ">
<path fill="none" stroke="#9a32cd" stroke-dasharray="5,2" d="M888.42,-49.25C920.49,-54.09 958.02,-61.26 991,-71.5 1010.3,-77.49 1031.18,-87.49 1045.46,-94.91"/>
<polygon fill="#9a32cd" stroke="#9a32cd" points="888.61,-45.74 878.21,-47.76 887.6,-52.67 888.61,-45.74"/>
</a>
</g>
<text text-anchor="middle" x="943.5" y="-74.5" font-family="Helvetica,sans-Serif" font-size="10.00" fill="grey"> pwm_init</text>
</g>
<!-- Node10 -->
<g id="Node000010" class="node">
<title>Node10</title>
<g id="a_Node000010"><a xlink:href="structno__os__gpio__init__param.html" target="_top" xlink:title="Structure holding the parameters for GPIO initialization.">
<polygon fill="white" stroke="#666666" points="634.5,-56 505.5,-56 505.5,-37 634.5,-37 634.5,-56"/>
<text text-anchor="middle" x="570" y="-44" font-family="Helvetica,sans-Serif" font-size="10.00">no_os_gpio_init_param</text>
</a>
</g>
</g>
<!-- Node10&#45;&gt;Node9 -->
<g id="edge13_Node000009_Node000010" class="edge">
<title>Node10&#45;&gt;Node9</title>
<g id="a_edge13_Node000009_Node000010"><a xlink:title=" ">
<path fill="none" stroke="#9a32cd" stroke-dasharray="5,2" d="M644.95,-44.65C677.16,-43.85 714.6,-42.91 745.76,-42.13"/>
<polygon fill="#9a32cd" stroke="#9a32cd" points="644.59,-41.16 634.69,-44.91 644.77,-48.16 644.59,-41.16"/>
</a>
</g>
<text text-anchor="middle" x="694" y="-46.5" font-family="Helvetica,sans-Serif" font-size="10.00" fill="grey"> pwm_gpio</text>
</g>
<!-- Node11 -->
<g id="Node000011" class="node">
<title>Node11</title>
<g id="a_Node000011"><a xlink:href="structno__os__gpio__platform__ops.html" target="_top" xlink:title="Structure holding gpio function pointers that point to the platform specific function.">
<polygon fill="white" stroke="#666666" points="379,-56 238,-56 238,-37 379,-37 379,-56"/>
<text text-anchor="middle" x="308.5" y="-44" font-family="Helvetica,sans-Serif" font-size="10.00">no_os_gpio_platform_ops</text>
</a>
</g>
</g>
<!-- Node11&#45;&gt;Node10 -->
<g id="edge14_Node000010_Node000011" class="edge">
<title>Node11&#45;&gt;Node10</title>
<g id="a_edge14_Node000010_Node000011"><a xlink:title=" ">
<path fill="none" stroke="#9a32cd" stroke-dasharray="5,2" d="M389.38,-46.5C426.69,-46.5 470.49,-46.5 505.49,-46.5"/>
<polygon fill="#9a32cd" stroke="#9a32cd" points="389.04,-43 379.04,-46.5 389.04,-50 389.04,-43"/>
</a>
</g>
<text text-anchor="middle" x="438.5" y="-49.5" font-family="Helvetica,sans-Serif" font-size="10.00" fill="grey"> platform_ops</text>
</g>
<!-- Node12 -->
<g id="Node000012" class="node">
<title>Node12</title>
<g id="a_Node000012"><a xlink:href="structno__os__pwm__platform__ops.html" target="_top" xlink:title="Structure holding PWM function pointers that point to the platform specific function.">
<polygon fill="white" stroke="#666666" points="642,-19 498,-19 498,0 642,0 642,-19"/>
<text text-anchor="middle" x="570" y="-7" font-family="Helvetica,sans-Serif" font-size="10.00">no_os_pwm_platform_ops</text>
</a>
</g>
</g>
<!-- Node12&#45;&gt;Node9 -->
<g id="edge15_Node000009_Node000012" class="edge">
<title>Node12&#45;&gt;Node9</title>
<g id="a_edge15_Node000009_Node000012"><a xlink:title=" ">
<path fill="none" stroke="#9a32cd" stroke-dasharray="5,2" d="M652.14,-18.16C676.55,-20.94 703.39,-24.16 728,-27.5 735.8,-28.56 744.01,-29.75 752.1,-30.97"/>
<polygon fill="#9a32cd" stroke="#9a32cd" points="652.53,-14.68 642.2,-17.03 651.74,-21.63 652.53,-14.68"/>
</a>
</g>
<text text-anchor="middle" x="694" y="-30.5" font-family="Helvetica,sans-Serif" font-size="10.00" fill="grey"> platform_ops</text>
</g>
</g>
</svg>

<g id="navigator" transform="translate(0 0)" fill="#404254">
  <rect fill="#f2f5e9" fill-opacity="0.5" stroke="#606060" stroke-width=".5" x="0" y="0" width="60" height="60"/>
  <use id="zoomplus" xlink:href="#zoomPlus" x="17" y="9" onmousedown="handleZoom(evt,'in')"/>
  <use id="zoomminus" xlink:href="#zoomMin" x="42" y="9" onmousedown="handleZoom(evt,'out')"/>
  <use id="reset" xlink:href="#resetDef" x="30" y="36" onmousedown="handleReset()"/>
   <use id="arrowup" xlink:href="#arrowUp" x="0" y="0" onmousedown="handlePan(0,-1)"/>
  <use id="arrowright" xlink:href="#arrowRight" x="0" y="0" onmousedown="handlePan(1,0)"/>
  <use id="arrowdown" xlink:href="#arrowDown" x="0" y="0" onmousedown="handlePan(0,1)"/>
  <use id="arrowleft" xlink:href="#arrowLeft" x="0" y="0" onmousedown="handlePan(-1,0)"/>
</g>
<svg viewBox="0 0 15 15" width="100%" height="30px" preserveAspectRatio="xMaxYMin meet">
 <g id="arrow_out" transform="scale(0.3 0.3)">
  <a xlink:href="structad738x__init__param__coll__graph_org.svg" target="_base">
   <rect id="button" ry="5" rx="5" y="6" x="6" height="38" width="38"
        fill="#f2f5e9" fill-opacity="0.5" stroke="#606060" stroke-width="1.0"/>
   <path id="arrow"
     d="M 11.500037,31.436501 C 11.940474,20.09759 22.043105,11.32322 32.158766,21.979434 L 37.068811,17.246167 C 37.068811,17.246167 37.088388,32 37.088388,32 L 22.160133,31.978069 C 22.160133,31.978069 26.997745,27.140456 26.997745,27.140456 C 18.528582,18.264221 13.291696,25.230495 11.500037,31.436501 z"
     style="fill:#404040;"/>
  </a>
 </g>
</svg>

<style type='text/css'>
<![CDATA[
[data-mouse-over-selected='false'] { opacity: 0.7; }
[data-mouse-over-selected='true']  { opacity: 1.0; }
]]>
</style>
<script type="application/ecmascript"><![CDATA[
document.addEventListener('DOMContentLoaded', (event) => {
  highlightEdges();
  highlightAdjacentNodes();
});
]]></script>
</svg>
