<?xml version="1.0" encoding="UTF-8" standalone="no"?>
<!DOCTYPE svg PUBLIC "-//W3C//DTD SVG 1.1//EN"
 "http://www.w3.org/Graphics/SVG/1.1/DTD/svg11.dtd">
<!-- Generated by graphviz version 2.43.0 (0)
 -->
<!-- Title: ad9361_debugfs_entry Pages: 1 -->
<!--zoomable 652 -->

<svg id="main" version="1.1" xmlns="http://www.w3.org/2000/svg" xmlns:xlink="http://www.w3.org/1999/xlink" xml:space="preserve" onload="init(evt)">

<style type="text/css"><![CDATA[
.node, .edge {opacity: 0.7;}
.node.selected, .edge.selected {opacity: 1;}
.edge:hover path { stroke: red; }
.edge:hover polygon { stroke: red; fill: red; }
]]></style>

<defs>
  <circle id="rim" cx="0" cy="0" r="7"/>
  <circle id="rim2" cx="0" cy="0" r="3.5"/>
  <g id="zoomPlus">
    <use xlink:href="#rim" fill="#404040"><set attributeName="fill" to="#808080" begin="zoomplus.mouseover" end="zoomplus.mouseout"/></use>
    <path d="M-4,0h8M0,-4v8" fill="none" stroke="white" stroke-width="1.5" pointer-events="none"/>
  </g>
  <g id="zoomMin">
    <use xlink:href="#rim" fill="#404040"><set attributeName="fill" to="#808080" begin="zoomminus.mouseover" end="zoomminus.mouseout"/></use>
    <path d="M-4,0h8" fill="none" stroke="white" stroke-width="1.5" pointer-events="none"/>
  </g>
  <g id="arrowUp" transform="translate(30 24)">
    <use xlink:href="#rim"/>
    <path pointer-events="none" fill="none" stroke="white" stroke-width="1.5" d="M0,-3.0v7 M-2.5,-0.5L0,-3.0L2.5,-0.5"/>
  </g>
  <g id="arrowRight" transform="rotate(90) translate(36 -43)">
    <use xlink:href="#rim"/>
    <path pointer-events="none" fill="none" stroke="white" stroke-width="1.5" d="M0,-3.0v7 M-2.5,-0.5L0,-3.0L2.5,-0.5"/>
  </g>
  <g id="arrowDown" transform="rotate(180) translate(-30 -48)">
    <use xlink:href="#rim"/>
    <path pointer-events="none" fill="none" stroke="white" stroke-width="1.5" d="M0,-3.0v7 M-2.5,-0.5L0,-3.0L2.5,-0.5"/>
  </g>
  <g id="arrowLeft" transform="rotate(270) translate(-36 17)">
    <use xlink:href="#rim"/>
    <path pointer-events="none" fill="none" stroke="white" stroke-width="1.5" d="M0,-3.0v7 M-2.5,-0.5L0,-3.0L2.5,-0.5"/>
  </g>
  <g id="resetDef">
    <use xlink:href="#rim2" fill="#404040"><set attributeName="fill" to="#808080" begin="reset.mouseover" end="reset.mouseout"/></use>
  </g>
</defs>
<script type="application/ecmascript">
var viewWidth = 1109;
var viewHeight = 652;
var sectionId = 'dynsection-0';
</script>
<script type="application/ecmascript" xlink:href="svg.min.js"/>
<svg id="graph" class="graph">
<g id="viewport">
<title>ad9361_debugfs_entry</title>
<!-- Node1 -->
<g id="Node000001" class="node">
<title>Node1</title>
<g id="a_Node000001"><a xlink:title=" ">
<polygon fill="#999999" stroke="#666666" points="1101,-322 973,-322 973,-303 1101,-303 1101,-322"/>
<text text-anchor="middle" x="1037" y="-310" font-family="Helvetica,sans-Serif" font-size="10.00">ad9361_debugfs_entry</text>
</a>
</g>
</g>
<!-- Node2 -->
<g id="Node000002" class="node">
<title>Node2</title>
<g id="a_Node000002"><a xlink:href="structad9361__rf__phy.html" target="_top" xlink:title=" ">
<polygon fill="white" stroke="#666666" points="870,-270 781,-270 781,-251 870,-251 870,-270"/>
<text text-anchor="middle" x="825.5" y="-258" font-family="Helvetica,sans-Serif" font-size="10.00">ad9361_rf_phy</text>
</a>
</g>
</g>
<!-- Node2&#45;&gt;Node1 -->
<g id="edge1_Node000001_Node000002" class="edge">
<title>Node2&#45;&gt;Node1</title>
<g id="a_edge1_Node000001_Node000002"><a xlink:title=" ">
<path fill="none" stroke="#9a32cd" stroke-dasharray="5,2" d="M875.05,-272.55C912.28,-281.79 962.99,-294.38 997.46,-302.93"/>
<polygon fill="#9a32cd" stroke="#9a32cd" points="875.47,-269.05 864.93,-270.04 873.79,-275.84 875.47,-269.05"/>
</a>
</g>
<text text-anchor="middle" x="921.5" y="-293.5" font-family="Helvetica,sans-Serif" font-size="10.00" fill="grey"> phy</text>
</g>
<!-- Node16 -->
<g id="Node000016" class="node">
<title>Node16</title>
<g id="a_Node000016"><a xlink:href="structrefclk__scale.html" target="_top" xlink:title=" ">
<polygon fill="white" stroke="#666666" points="1074.5,-186 999.5,-186 999.5,-167 1074.5,-167 1074.5,-186"/>
<text text-anchor="middle" x="1037" y="-174" font-family="Helvetica,sans-Serif" font-size="10.00">refclk_scale</text>
</a>
</g>
</g>
<!-- Node2&#45;&gt;Node16 -->
<g id="edge20_Node000016_Node000002" class="edge">
<title>Node2&#45;&gt;Node16</title>
<g id="a_edge20_Node000016_Node000002"><a xlink:title=" ">
<path fill="none" stroke="#9a32cd" stroke-dasharray="5,2" d="M836.26,-242.04C846.58,-224.63 864.59,-199.46 888,-187.5 922.64,-169.8 967.91,-169.15 999.21,-171.6"/>
<polygon fill="#9a32cd" stroke="#9a32cd" points="833.2,-240.35 831.34,-250.79 839.3,-243.79 833.2,-240.35"/>
</a>
</g>
<text text-anchor="middle" x="921.5" y="-190.5" font-family="Helvetica,sans-Serif" font-size="10.00" fill="grey"> phy</text>
</g>
<!-- Node32 -->
<g id="Node000032" class="node">
<title>Node32</title>
<g id="a_Node000032"><a xlink:href="structaxiadc__state.html" target="_top" xlink:title=" ">
<polygon fill="white" stroke="#666666" points="1076.5,-269 997.5,-269 997.5,-250 1076.5,-250 1076.5,-269"/>
<text text-anchor="middle" x="1037" y="-257" font-family="Helvetica,sans-Serif" font-size="10.00">axiadc_state</text>
</a>
</g>
</g>
<!-- Node2&#45;&gt;Node32 -->
<g id="edge37_Node000032_Node000002" class="edge">
<title>Node2&#45;&gt;Node32</title>
<g id="a_edge37_Node000032_Node000002"><a xlink:title=" ">
<path fill="none" stroke="#9a32cd" stroke-dasharray="5,2" d="M880.17,-260.24C916.78,-260.07 964.41,-259.84 997.33,-259.68"/>
<polygon fill="#9a32cd" stroke="#9a32cd" points="880.15,-256.74 870.16,-260.29 880.18,-263.74 880.15,-256.74"/>
</a>
</g>
<text text-anchor="middle" x="921.5" y="-262.5" font-family="Helvetica,sans-Serif" font-size="10.00" fill="grey"> phy</text>
</g>
<!-- Node3 -->
<g id="Node000003" class="node">
<title>Node3</title>
<g id="a_Node000003"><a xlink:href="structno__os__spi__desc.html" target="_top" xlink:title="Structure holding SPI descriptor.">
<polygon fill="white" stroke="#666666" points="619,-119 527,-119 527,-100 619,-100 619,-119"/>
<text text-anchor="middle" x="573" y="-107" font-family="Helvetica,sans-Serif" font-size="10.00">no_os_spi_desc</text>
</a>
</g>
</g>
<!-- Node3&#45;&gt;Node2 -->
<g id="edge2_Node000002_Node000003" class="edge">
<title>Node3&#45;&gt;Node2</title>
<g id="a_edge2_Node000002_Node000003"><a xlink:title=" ">
<path fill="none" stroke="#9a32cd" stroke-dasharray="5,2" d="M629.29,-117.04C677.21,-124.48 742.06,-136.96 763,-152.5 797.65,-178.22 815.7,-229.67 821.93,-250.95"/>
<polygon fill="#9a32cd" stroke="#9a32cd" points="629.75,-113.57 619.34,-115.54 628.7,-120.5 629.75,-113.57"/>
</a>
</g>
<text text-anchor="middle" x="714.5" y="-155.5" font-family="Helvetica,sans-Serif" font-size="10.00" fill="grey"> spi</text>
</g>
<!-- Node3&#45;&gt;Node3 -->
<g id="edge7_Node000003_Node000003" class="edge">
<title>Node3&#45;&gt;Node3</title>
<g id="a_edge7_Node000003_Node000003"><a xlink:title=" ">
<path fill="none" stroke="#9a32cd" stroke-dasharray="5,2" d="M548.07,-128.19C549.43,-133.2 557.74,-137 573,-137 596.82,-137 603.7,-127.73 593.65,-119.08"/>
<polygon fill="#9a32cd" stroke="#9a32cd" points="551.27,-129.62 552.35,-119.08 544.93,-126.65 551.27,-129.62"/>
</a>
</g>
<text text-anchor="middle" x="573" y="-140" font-family="Helvetica,sans-Serif" font-size="10.00" fill="grey"> parent</text>
</g>
<!-- Node3&#45;&gt;Node16 -->
<g id="edge19_Node000016_Node000003" class="edge">
<title>Node3&#45;&gt;Node16</title>
<g id="a_edge19_Node000016_Node000003"><a xlink:title=" ">
<path fill="none" stroke="#9a32cd" stroke-dasharray="5,2" d="M629.5,-111.89C667.25,-113.93 718.29,-117.52 763,-123.5 848.18,-134.88 946.89,-156.06 999.14,-167.91"/>
<polygon fill="#9a32cd" stroke="#9a32cd" points="629.38,-108.38 619.22,-111.35 629.02,-115.37 629.38,-108.38"/>
</a>
</g>
<text text-anchor="middle" x="825.5" y="-144.5" font-family="Helvetica,sans-Serif" font-size="10.00" fill="grey"> spi</text>
</g>
<!-- Node4 -->
<g id="Node000004" class="node">
<title>Node4</title>
<g id="a_Node000004"><a xlink:href="structno__os__spibus__desc.html" target="_top" xlink:title="SPI bus descriptor.">
<polygon fill="white" stroke="#666666" points="363.5,-104 253.5,-104 253.5,-85 363.5,-85 363.5,-104"/>
<text text-anchor="middle" x="308.5" y="-92" font-family="Helvetica,sans-Serif" font-size="10.00">no_os_spibus_desc</text>
</a>
</g>
</g>
<!-- Node4&#45;&gt;Node3 -->
<g id="edge3_Node000003_Node000004" class="edge">
<title>Node4&#45;&gt;Node3</title>
<g id="a_edge3_Node000003_Node000004"><a xlink:title=" ">
<path fill="none" stroke="#9a32cd" stroke-dasharray="5,2" d="M373.74,-98.17C421.16,-100.88 484.54,-104.5 526.74,-106.91"/>
<polygon fill="#9a32cd" stroke="#9a32cd" points="373.76,-94.67 363.57,-97.59 373.36,-101.65 373.76,-94.67"/>
</a>
</g>
<text text-anchor="middle" x="438.5" y="-107.5" font-family="Helvetica,sans-Serif" font-size="10.00" fill="grey"> bus</text>
</g>
<!-- Node5 -->
<g id="Node000005" class="node">
<title>Node5</title>
<g id="a_Node000005"><a xlink:href="structno__os__spi__platform__ops.html" target="_top" xlink:title="Structure holding SPI function pointers that point to the platform specific function.">
<polygon fill="white" stroke="#666666" points="134,-81 0,-81 0,-62 134,-62 134,-81"/>
<text text-anchor="middle" x="67" y="-69" font-family="Helvetica,sans-Serif" font-size="10.00">no_os_spi_platform_ops</text>
</a>
</g>
</g>
<!-- Node5&#45;&gt;Node3 -->
<g id="edge5_Node000003_Node000005" class="edge">
<title>Node5&#45;&gt;Node3</title>
<g id="a_edge5_Node000003_Node000005"><a xlink:title=" ">
<path fill="none" stroke="#9a32cd" stroke-dasharray="5,2" d="M144.34,-67.69C173.62,-66.4 207.36,-65.13 238,-64.5 300.65,-63.21 316.74,-57.34 379,-64.5 437.11,-71.18 503.15,-88.84 540.96,-99.94"/>
<polygon fill="#9a32cd" stroke="#9a32cd" points="144.01,-64.2 134.18,-68.14 144.33,-71.19 144.01,-64.2"/>
</a>
</g>
<text text-anchor="middle" x="308.5" y="-67.5" font-family="Helvetica,sans-Serif" font-size="10.00" fill="grey"> platform_ops</text>
</g>
<!-- Node5&#45;&gt;Node4 -->
<g id="edge4_Node000004_Node000005" class="edge">
<title>Node5&#45;&gt;Node4</title>
<g id="a_edge4_Node000004_Node000005"><a xlink:title=" ">
<path fill="none" stroke="#9a32cd" stroke-dasharray="5,2" d="M144.39,-78.84C179.85,-82.24 221.16,-86.21 253.34,-89.3"/>
<polygon fill="#9a32cd" stroke="#9a32cd" points="144.37,-75.32 134.08,-77.85 143.7,-82.29 144.37,-75.32"/>
</a>
</g>
<text text-anchor="middle" x="186" y="-89.5" font-family="Helvetica,sans-Serif" font-size="10.00" fill="grey"> platform_ops</text>
</g>
<!-- Node6 -->
<g id="Node000006" class="node">
<title>Node6</title>
<g id="a_Node000006"><a xlink:href="structno__os__platform__spi__delays.html" target="_top" xlink:title="Delays resulted from components in the SPI signal path. The values is ns.">
<polygon fill="white" stroke="#666666" points="364.5,-152.5 252.5,-152.5 252.5,-122.5 364.5,-122.5 364.5,-152.5"/>
<text text-anchor="start" x="260.5" y="-140.5" font-family="Helvetica,sans-Serif" font-size="10.00">no_os_platform_spi</text>
<text text-anchor="middle" x="308.5" y="-129.5" font-family="Helvetica,sans-Serif" font-size="10.00">_delays</text>
</a>
</g>
</g>
<!-- Node6&#45;&gt;Node3 -->
<g id="edge6_Node000003_Node000006" class="edge">
<title>Node6&#45;&gt;Node3</title>
<g id="a_edge6_Node000003_Node000006"><a xlink:title=" ">
<path fill="none" stroke="#9a32cd" stroke-dasharray="5,2" d="M374.67,-130.55C421.96,-125.5 484.73,-118.81 526.65,-114.34"/>
<polygon fill="#9a32cd" stroke="#9a32cd" points="374.1,-127.09 364.53,-131.63 374.84,-134.05 374.1,-127.09"/>
</a>
</g>
<text text-anchor="middle" x="438.5" y="-131.5" font-family="Helvetica,sans-Serif" font-size="10.00" fill="grey"> platform_delays</text>
</g>
<!-- Node7 -->
<g id="Node000007" class="node">
<title>Node7</title>
<g id="a_Node000007"><a xlink:href="structno__os__gpio__desc.html" target="_top" xlink:title="Structure holding the GPIO descriptor.">
<polygon fill="white" stroke="#666666" points="622.5,-189 523.5,-189 523.5,-170 622.5,-170 622.5,-189"/>
<text text-anchor="middle" x="573" y="-177" font-family="Helvetica,sans-Serif" font-size="10.00">no_os_gpio_desc</text>
</a>
</g>
</g>
<!-- Node7&#45;&gt;Node2 -->
<g id="edge8_Node000002_Node000007" class="edge">
<title>Node7&#45;&gt;Node2</title>
<g id="a_edge8_Node000002_Node000007"><a xlink:title=" ">
<path fill="none" stroke="#9a32cd" stroke-dasharray="5,2" d="M632.99,-168.77C671.89,-164.57 722.88,-164.7 763,-184.5 791.92,-198.77 811.79,-233.72 820.11,-250.8"/>
<polygon fill="#9a32cd" stroke="#9a32cd" points="632.38,-165.32 622.87,-169.99 633.22,-172.27 632.38,-165.32"/>
</a>
</g>
<text text-anchor="middle" x="714.5" y="-220.5" font-family="Helvetica,sans-Serif" font-size="10.00" fill="grey"> gpio_desc_cal_sw1</text>
<text text-anchor="middle" x="714.5" y="-209.5" font-family="Helvetica,sans-Serif" font-size="10.00" fill="grey">gpio_desc_cal_sw2</text>
<text text-anchor="middle" x="714.5" y="-198.5" font-family="Helvetica,sans-Serif" font-size="10.00" fill="grey">gpio_desc_resetb</text>
<text text-anchor="middle" x="714.5" y="-187.5" font-family="Helvetica,sans-Serif" font-size="10.00" fill="grey">gpio_desc_sync</text>
</g>
<!-- Node8 -->
<g id="Node000008" class="node">
<title>Node8</title>
<g id="a_Node000008"><a xlink:href="structno__os__gpio__platform__ops.html" target="_top" xlink:title="Structure holding gpio function pointers that point to the platform specific function.">
<polygon fill="white" stroke="#666666" points="379,-190 238,-190 238,-171 379,-171 379,-190"/>
<text text-anchor="middle" x="308.5" y="-178" font-family="Helvetica,sans-Serif" font-size="10.00">no_os_gpio_platform_ops</text>
</a>
</g>
</g>
<!-- Node8&#45;&gt;Node7 -->
<g id="edge9_Node000007_Node000008" class="edge">
<title>Node8&#45;&gt;Node7</title>
<g id="a_edge9_Node000007_Node000008"><a xlink:title=" ">
<path fill="none" stroke="#9a32cd" stroke-dasharray="5,2" d="M389.19,-180.2C432.88,-180.03 485.64,-179.83 523.22,-179.69"/>
<polygon fill="#9a32cd" stroke="#9a32cd" points="389.14,-176.7 379.16,-180.23 389.17,-183.7 389.14,-176.7"/>
</a>
</g>
<text text-anchor="middle" x="438.5" y="-183.5" font-family="Helvetica,sans-Serif" font-size="10.00" fill="grey"> platform_ops</text>
</g>
<!-- Node9 -->
<g id="Node000009" class="node">
<title>Node9</title>
<g id="a_Node000009"><a xlink:href="structaxi__adc.html" target="_top" xlink:title="AXI ADC Device Descriptor.">
<polygon fill="white" stroke="#666666" points="600,-486 546,-486 546,-467 600,-467 600,-486"/>
<text text-anchor="middle" x="573" y="-474" font-family="Helvetica,sans-Serif" font-size="10.00">axi_adc</text>
</a>
</g>
</g>
<!-- Node9&#45;&gt;Node2 -->
<g id="edge10_Node000002_Node000009" class="edge">
<title>Node9&#45;&gt;Node2</title>
<g id="a_edge10_Node000002_Node000009"><a xlink:title=" ">
<path fill="none" stroke="#9a32cd" stroke-dasharray="5,2" d="M610.11,-479.45C651.91,-480.84 720.47,-476.55 763,-439.5 815.78,-393.53 823.3,-300.14 824.34,-270.06"/>
<polygon fill="#9a32cd" stroke="#9a32cd" points="610.23,-475.95 600.09,-478.99 609.92,-482.95 610.23,-475.95"/>
</a>
</g>
<text text-anchor="middle" x="714.5" y="-479.5" font-family="Helvetica,sans-Serif" font-size="10.00" fill="grey"> rx_adc</text>
</g>
<!-- Node10 -->
<g id="Node000010" class="node">
<title>Node10</title>
<g id="a_Node000010"><a xlink:href="structaxi__dac.html" target="_top" xlink:title="AXI DAC Device Descriptor.">
<polygon fill="white" stroke="#666666" points="600,-449 546,-449 546,-430 600,-430 600,-449"/>
<text text-anchor="middle" x="573" y="-437" font-family="Helvetica,sans-Serif" font-size="10.00">axi_dac</text>
</a>
</g>
</g>
<!-- Node10&#45;&gt;Node2 -->
<g id="edge11_Node000002_Node000010" class="edge">
<title>Node10&#45;&gt;Node2</title>
<g id="a_edge11_Node000002_Node000010"><a xlink:title=" ">
<path fill="none" stroke="#9a32cd" stroke-dasharray="5,2" d="M610.08,-436.46C651.58,-431.19 719.55,-416.93 763,-378.5 797.78,-347.74 815.86,-292.54 822.02,-270.24"/>
<polygon fill="#9a32cd" stroke="#9a32cd" points="609.67,-432.98 600.14,-437.61 610.47,-439.94 609.67,-432.98"/>
</a>
</g>
<text text-anchor="middle" x="714.5" y="-427.5" font-family="Helvetica,sans-Serif" font-size="10.00" fill="grey"> tx_dac</text>
</g>
<!-- Node11 -->
<g id="Node000011" class="node">
<title>Node11</title>
<g id="a_Node000011"><a xlink:href="structaxi__dac__channel.html" target="_top" xlink:title=" ">
<polygon fill="white" stroke="#666666" points="357.5,-634 259.5,-634 259.5,-615 357.5,-615 357.5,-634"/>
<text text-anchor="middle" x="308.5" y="-622" font-family="Helvetica,sans-Serif" font-size="10.00">axi_dac_channel</text>
</a>
</g>
</g>
<!-- Node11&#45;&gt;Node10 -->
<g id="edge12_Node000010_Node000011" class="edge">
<title>Node11&#45;&gt;Node10</title>
<g id="a_edge12_Node000010_Node000011"><a xlink:title=" ">
<path fill="none" stroke="#9a32cd" stroke-dasharray="5,2" d="M367.73,-633.48C404.89,-635.68 451.31,-631.3 480,-602.5 525.52,-556.8 455.38,-506.91 498,-458.5 509.83,-445.06 529.76,-440.51 545.96,-439.21"/>
<polygon fill="#9a32cd" stroke="#9a32cd" points="367.75,-629.97 357.51,-632.7 367.21,-636.95 367.75,-629.97"/>
</a>
</g>
<text text-anchor="middle" x="438.5" y="-635.5" font-family="Helvetica,sans-Serif" font-size="10.00" fill="grey"> channels</text>
</g>
<!-- Node12 -->
<g id="Node000012" class="node">
<title>Node12</title>
<g id="a_Node000012"><a xlink:href="structno__os__clk.html" target="_top" xlink:title=" ">
<polygon fill="white" stroke="#666666" points="605.5,-35 540.5,-35 540.5,-16 605.5,-16 605.5,-35"/>
<text text-anchor="middle" x="573" y="-23" font-family="Helvetica,sans-Serif" font-size="10.00">no_os_clk</text>
</a>
</g>
</g>
<!-- Node12&#45;&gt;Node2 -->
<g id="edge13_Node000002_Node000012" class="edge">
<title>Node12&#45;&gt;Node2</title>
<g id="a_edge13_Node000002_Node000012"><a xlink:title=" ">
<path fill="none" stroke="#9a32cd" stroke-dasharray="5,2" d="M615.74,-31.5C658.07,-39.67 722.9,-58.17 763,-98.5 785.7,-121.33 813.42,-219.19 821.91,-250.69"/>
<polygon fill="#9a32cd" stroke="#9a32cd" points="616.22,-28.03 605.76,-29.69 614.97,-34.92 616.22,-28.03"/>
</a>
</g>
<text text-anchor="middle" x="714.5" y="-112.5" font-family="Helvetica,sans-Serif" font-size="10.00" fill="grey"> clk_refin</text>
<text text-anchor="middle" x="714.5" y="-101.5" font-family="Helvetica,sans-Serif" font-size="10.00" fill="grey">clks</text>
</g>
<!-- Node13 -->
<g id="Node000013" class="node">
<title>Node13</title>
<g id="a_Node000013"><a xlink:href="structno__os__clk__hw.html" target="_top" xlink:title=" ">
<polygon fill="white" stroke="#666666" points="867.5,-26 783.5,-26 783.5,-7 867.5,-7 867.5,-26"/>
<text text-anchor="middle" x="825.5" y="-14" font-family="Helvetica,sans-Serif" font-size="10.00">no_os_clk_hw</text>
</a>
</g>
</g>
<!-- Node12&#45;&gt;Node13 -->
<g id="edge15_Node000013_Node000012" class="edge">
<title>Node12&#45;&gt;Node13</title>
<g id="a_edge15_Node000013_Node000012"><a xlink:title=" ">
<path fill="none" stroke="#9a32cd" stroke-dasharray="5,2" d="M615.55,-13.94C631.23,-10.12 649.31,-6.38 666,-4.5 708.84,0.33 720.09,-0.35 763,-4.5 769.61,-5.14 776.55,-6.15 783.31,-7.33"/>
<polygon fill="#9a32cd" stroke="#9a32cd" points="614.47,-10.6 605.63,-16.43 616.18,-17.39 614.47,-10.6"/>
</a>
</g>
<text text-anchor="middle" x="714.5" y="-7.5" font-family="Helvetica,sans-Serif" font-size="10.00" fill="grey"> clk</text>
</g>
<!-- Node13&#45;&gt;Node12 -->
<g id="edge14_Node000012_Node000013" class="edge">
<title>Node13&#45;&gt;Node12</title>
<g id="a_edge14_Node000012_Node000013"><a xlink:title=" ">
<path fill="none" stroke="#9a32cd" stroke-dasharray="5,2" d="M773.47,-18.33C723.2,-20.14 647.97,-22.84 605.73,-24.36"/>
<polygon fill="#9a32cd" stroke="#9a32cd" points="773.62,-21.83 783.49,-17.97 773.37,-14.83 773.62,-21.83"/>
</a>
</g>
<text text-anchor="middle" x="714.5" y="-25.5" font-family="Helvetica,sans-Serif" font-size="10.00" fill="grey"> hw</text>
</g>
<!-- Node14 -->
<g id="Node000014" class="node">
<title>Node14</title>
<g id="a_Node000014"><a xlink:href="structno__os__clk__desc.html" target="_top" xlink:title="Structure holding CLK descriptor.">
<polygon fill="white" stroke="#666666" points="354.5,-19 262.5,-19 262.5,0 354.5,0 354.5,-19"/>
<text text-anchor="middle" x="308.5" y="-7" font-family="Helvetica,sans-Serif" font-size="10.00">no_os_clk_desc</text>
</a>
</g>
</g>
<!-- Node14&#45;&gt;Node12 -->
<g id="edge16_Node000012_Node000014" class="edge">
<title>Node14&#45;&gt;Node12</title>
<g id="a_edge16_Node000012_Node000014"><a xlink:title=" ">
<path fill="none" stroke="#9a32cd" stroke-dasharray="5,2" d="M364.92,-12.88C418.18,-16.12 496.8,-20.92 540.24,-23.56"/>
<polygon fill="#9a32cd" stroke="#9a32cd" points="364.82,-9.37 354.63,-12.25 364.39,-16.35 364.82,-9.37"/>
</a>
</g>
<text text-anchor="middle" x="438.5" y="-23.5" font-family="Helvetica,sans-Serif" font-size="10.00" fill="grey"> clk_desc</text>
</g>
<!-- Node15 -->
<g id="Node000015" class="node">
<title>Node15</title>
<g id="a_Node000015"><a xlink:href="structno__os__clk__platform__ops.html" target="_top" xlink:title="Structure holding CLK function pointers that point to the platform specific function.">
<polygon fill="white" stroke="#666666" points="134,-19 0,-19 0,0 134,0 134,-19"/>
<text text-anchor="middle" x="67" y="-7" font-family="Helvetica,sans-Serif" font-size="10.00">no_os_clk_platform_ops</text>
</a>
</g>
</g>
<!-- Node15&#45;&gt;Node14 -->
<g id="edge17_Node000014_Node000015" class="edge">
<title>Node15&#45;&gt;Node14</title>
<g id="a_edge17_Node000014_Node000015"><a xlink:title=" ">
<path fill="none" stroke="#9a32cd" stroke-dasharray="5,2" d="M144.33,-9.5C183.25,-9.5 229.24,-9.5 262.46,-9.5"/>
<polygon fill="#9a32cd" stroke="#9a32cd" points="144.08,-6 134.08,-9.5 144.08,-13 144.08,-6"/>
</a>
</g>
<text text-anchor="middle" x="186" y="-12.5" font-family="Helvetica,sans-Serif" font-size="10.00" fill="grey"> platform_ops</text>
</g>
<!-- Node16&#45;&gt;Node2 -->
<g id="edge18_Node000002_Node000016" class="edge">
<title>Node16&#45;&gt;Node2</title>
<g id="a_edge18_Node000002_Node000016"><a xlink:title=" ">
<path fill="none" stroke="#9a32cd" stroke-dasharray="5,2" d="M993.66,-189.1C963.68,-198.49 922.79,-212.29 888,-227.5 872.12,-234.44 854.79,-243.92 842.59,-250.94"/>
<polygon fill="#9a32cd" stroke="#9a32cd" points="994.87,-192.39 1003.38,-186.08 992.8,-185.7 994.87,-192.39"/>
</a>
</g>
<text text-anchor="middle" x="921.5" y="-230.5" font-family="Helvetica,sans-Serif" font-size="10.00" fill="grey"> ref_clk_scale</text>
</g>
<!-- Node17 -->
<g id="Node000017" class="node">
<title>Node17</title>
<g id="a_Node000017"><a xlink:href="structad9361__phy__platform__data.html" target="_top" xlink:title=" ">
<polygon fill="white" stroke="#666666" points="648,-412 498,-412 498,-393 648,-393 648,-412"/>
<text text-anchor="middle" x="573" y="-400" font-family="Helvetica,sans-Serif" font-size="10.00">ad9361_phy_platform_data</text>
</a>
</g>
</g>
<!-- Node17&#45;&gt;Node2 -->
<g id="edge21_Node000002_Node000017" class="edge">
<title>Node17&#45;&gt;Node2</title>
<g id="a_edge21_Node000002_Node000017"><a xlink:title=" ">
<path fill="none" stroke="#9a32cd" stroke-dasharray="5,2" d="M608.58,-389.19C647.58,-373.48 712.19,-345.29 763,-312.5 782.74,-299.76 803.05,-281.35 814.69,-270.19"/>
<polygon fill="#9a32cd" stroke="#9a32cd" points="607.23,-385.96 599.24,-392.92 609.82,-392.47 607.23,-385.96"/>
</a>
</g>
<text text-anchor="middle" x="714.5" y="-366.5" font-family="Helvetica,sans-Serif" font-size="10.00" fill="grey"> pdata</text>
</g>
<!-- Node18 -->
<g id="Node000018" class="node">
<title>Node18</title>
<g id="a_Node000018"><a xlink:href="structgain__control.html" target="_top" xlink:title=" ">
<polygon fill="white" stroke="#666666" points="347,-486 270,-486 270,-467 347,-467 347,-486"/>
<text text-anchor="middle" x="308.5" y="-474" font-family="Helvetica,sans-Serif" font-size="10.00">gain_control</text>
</a>
</g>
</g>
<!-- Node18&#45;&gt;Node17 -->
<g id="edge22_Node000017_Node000018" class="edge">
<title>Node18&#45;&gt;Node17</title>
<g id="a_edge22_Node000017_Node000018"><a xlink:title=" ">
<path fill="none" stroke="#9a32cd" stroke-dasharray="5,2" d="M357.45,-475.27C393.36,-472.45 442.54,-464.42 480,-442.5 490.61,-436.29 487.56,-428 498,-421.5 504.19,-417.65 511.14,-414.57 518.23,-412.12"/>
<polygon fill="#9a32cd" stroke="#9a32cd" points="356.97,-471.79 347.23,-475.96 357.45,-478.77 356.97,-471.79"/>
</a>
</g>
<text text-anchor="middle" x="438.5" y="-472.5" font-family="Helvetica,sans-Serif" font-size="10.00" fill="grey"> gain_ctrl</text>
</g>
<!-- Node19 -->
<g id="Node000019" class="node">
<title>Node19</title>
<g id="a_Node000019"><a xlink:href="structrssi__control.html" target="_top" xlink:title=" ">
<polygon fill="white" stroke="#666666" points="345,-449 272,-449 272,-430 345,-430 345,-449"/>
<text text-anchor="middle" x="308.5" y="-437" font-family="Helvetica,sans-Serif" font-size="10.00">rssi_control</text>
</a>
</g>
</g>
<!-- Node19&#45;&gt;Node17 -->
<g id="edge23_Node000017_Node000019" class="edge">
<title>Node19&#45;&gt;Node17</title>
<g id="a_edge23_Node000017_Node000019"><a xlink:title=" ">
<path fill="none" stroke="#9a32cd" stroke-dasharray="5,2" d="M355.34,-434.01C389.7,-429.78 437.85,-423.65 480,-417.5 491.37,-415.84 503.51,-413.95 515.12,-412.08"/>
<polygon fill="#9a32cd" stroke="#9a32cd" points="354.64,-430.56 345.14,-435.25 355.49,-437.51 354.64,-430.56"/>
</a>
</g>
<text text-anchor="middle" x="438.5" y="-430.5" font-family="Helvetica,sans-Serif" font-size="10.00" fill="grey"> rssi_ctrl</text>
</g>
<!-- Node20 -->
<g id="Node000020" class="node">
<title>Node20</title>
<g id="a_Node000020"><a xlink:href="structport__control.html" target="_top" xlink:title=" ">
<polygon fill="white" stroke="#666666" points="346,-412 271,-412 271,-393 346,-393 346,-412"/>
<text text-anchor="middle" x="308.5" y="-400" font-family="Helvetica,sans-Serif" font-size="10.00">port_control</text>
</a>
</g>
</g>
<!-- Node20&#45;&gt;Node17 -->
<g id="edge24_Node000017_Node000020" class="edge">
<title>Node20&#45;&gt;Node17</title>
<g id="a_edge24_Node000017_Node000020"><a xlink:title=" ">
<path fill="none" stroke="#9a32cd" stroke-dasharray="5,2" d="M356.37,-402.5C395.68,-402.5 452.51,-402.5 497.96,-402.5"/>
<polygon fill="#9a32cd" stroke="#9a32cd" points="356.28,-399 346.28,-402.5 356.28,-406 356.28,-399"/>
</a>
</g>
<text text-anchor="middle" x="438.5" y="-405.5" font-family="Helvetica,sans-Serif" font-size="10.00" fill="grey"> port_ctrl</text>
</g>
<!-- Node21 -->
<g id="Node000021" class="node">
<title>Node21</title>
<g id="a_Node000021"><a xlink:href="structctrl__outs__control.html" target="_top" xlink:title=" ">
<polygon fill="white" stroke="#666666" points="357.5,-375 259.5,-375 259.5,-356 357.5,-356 357.5,-375"/>
<text text-anchor="middle" x="308.5" y="-363" font-family="Helvetica,sans-Serif" font-size="10.00">ctrl_outs_control</text>
</a>
</g>
</g>
<!-- Node21&#45;&gt;Node17 -->
<g id="edge25_Node000017_Node000021" class="edge">
<title>Node21&#45;&gt;Node17</title>
<g id="a_edge25_Node000017_Node000021"><a xlink:title=" ">
<path fill="none" stroke="#9a32cd" stroke-dasharray="5,2" d="M367.63,-372.51C400.62,-376.62 442.66,-382.05 480,-387.5 491.37,-389.16 503.51,-391.05 515.12,-392.92"/>
<polygon fill="#9a32cd" stroke="#9a32cd" points="368.05,-369.04 357.7,-371.28 367.19,-375.99 368.05,-369.04"/>
</a>
</g>
<text text-anchor="middle" x="438.5" y="-390.5" font-family="Helvetica,sans-Serif" font-size="10.00" fill="grey"> ctrl_outs_ctrl</text>
</g>
<!-- Node22 -->
<g id="Node000022" class="node">
<title>Node22</title>
<g id="a_Node000022"><a xlink:href="structelna__control.html" target="_top" xlink:title=" ">
<polygon fill="white" stroke="#666666" points="347,-338 270,-338 270,-319 347,-319 347,-338"/>
<text text-anchor="middle" x="308.5" y="-326" font-family="Helvetica,sans-Serif" font-size="10.00">elna_control</text>
</a>
</g>
</g>
<!-- Node22&#45;&gt;Node17 -->
<g id="edge26_Node000017_Node000022" class="edge">
<title>Node22&#45;&gt;Node17</title>
<g id="a_edge26_Node000017_Node000022"><a xlink:title=" ">
<path fill="none" stroke="#9a32cd" stroke-dasharray="5,2" d="M357.32,-334.77C391.9,-340.02 439.48,-348.73 480,-361.5 506.52,-369.85 535.59,-383.65 553.81,-392.9"/>
<polygon fill="#9a32cd" stroke="#9a32cd" points="357.43,-331.25 347.02,-333.25 356.41,-338.17 357.43,-331.25"/>
</a>
</g>
<text text-anchor="middle" x="438.5" y="-364.5" font-family="Helvetica,sans-Serif" font-size="10.00" fill="grey"> elna_ctrl</text>
</g>
<!-- Node23 -->
<g id="Node000023" class="node">
<title>Node23</title>
<g id="a_Node000023"><a xlink:href="structauxadc__control.html" target="_top" xlink:title=" ">
<polygon fill="white" stroke="#666666" points="354,-301 263,-301 263,-282 354,-282 354,-301"/>
<text text-anchor="middle" x="308.5" y="-289" font-family="Helvetica,sans-Serif" font-size="10.00">auxadc_control</text>
</a>
</g>
</g>
<!-- Node23&#45;&gt;Node17 -->
<g id="edge27_Node000017_Node000023" class="edge">
<title>Node23&#45;&gt;Node17</title>
<g id="a_edge27_Node000017_Node000023"><a xlink:title=" ">
<path fill="none" stroke="#9a32cd" stroke-dasharray="5,2" d="M364.52,-295.47C399.04,-299.63 443.74,-308.12 480,-325.5 515.5,-342.51 548.73,-376.37 563.69,-392.93"/>
<polygon fill="#9a32cd" stroke="#9a32cd" points="364.47,-291.94 354.15,-294.31 363.7,-298.9 364.47,-291.94"/>
</a>
</g>
<text text-anchor="middle" x="438.5" y="-328.5" font-family="Helvetica,sans-Serif" font-size="10.00" fill="grey"> auxadc_ctrl</text>
</g>
<!-- Node24 -->
<g id="Node000024" class="node">
<title>Node24</title>
<g id="a_Node000024"><a xlink:href="structauxdac__control.html" target="_top" xlink:title=" ">
<polygon fill="white" stroke="#666666" points="354,-597 263,-597 263,-578 354,-578 354,-597"/>
<text text-anchor="middle" x="308.5" y="-585" font-family="Helvetica,sans-Serif" font-size="10.00">auxdac_control</text>
</a>
</g>
</g>
<!-- Node24&#45;&gt;Node17 -->
<g id="edge28_Node000017_Node000024" class="edge">
<title>Node24&#45;&gt;Node17</title>
<g id="a_edge28_Node000017_Node000024"><a xlink:title=" ">
<path fill="none" stroke="#9a32cd" stroke-dasharray="5,2" d="M364.52,-586.45C408.12,-584.38 464.24,-578.56 480,-562.5 524.25,-517.41 456.19,-468.86 498,-421.5 501.34,-417.72 505.31,-414.65 509.66,-412.15"/>
<polygon fill="#9a32cd" stroke="#9a32cd" points="364.15,-582.96 354.3,-586.87 364.44,-589.95 364.15,-582.96"/>
</a>
</g>
<text text-anchor="middle" x="438.5" y="-586.5" font-family="Helvetica,sans-Serif" font-size="10.00" fill="grey"> auxdac_ctrl</text>
</g>
<!-- Node25 -->
<g id="Node000025" class="node">
<title>Node25</title>
<g id="a_Node000025"><a xlink:href="structgpo__control.html" target="_top" xlink:title=" ">
<polygon fill="white" stroke="#666666" points="345.5,-560 271.5,-560 271.5,-541 345.5,-541 345.5,-560"/>
<text text-anchor="middle" x="308.5" y="-548" font-family="Helvetica,sans-Serif" font-size="10.00">gpo_control</text>
</a>
</g>
</g>
<!-- Node25&#45;&gt;Node17 -->
<g id="edge29_Node000017_Node000025" class="edge">
<title>Node25&#45;&gt;Node17</title>
<g id="a_edge29_Node000017_Node000025"><a xlink:title=" ">
<path fill="none" stroke="#9a32cd" stroke-dasharray="5,2" d="M356.06,-550.53C400.37,-549.52 462.78,-545.07 480,-528.5 514.75,-495.06 465.37,-457.01 498,-421.5 501.5,-417.69 505.65,-414.6 510.17,-412.1"/>
<polygon fill="#9a32cd" stroke="#9a32cd" points="355.72,-547.03 345.78,-550.71 355.84,-554.03 355.72,-547.03"/>
</a>
</g>
<text text-anchor="middle" x="438.5" y="-550.5" font-family="Helvetica,sans-Serif" font-size="10.00" fill="grey"> gpo_ctrl</text>
</g>
<!-- Node26 -->
<g id="Node000026" class="node">
<title>Node26</title>
<g id="a_Node000026"><a xlink:href="structtx__monitor__control.html" target="_top" xlink:title=" ">
<polygon fill="white" stroke="#666666" points="363,-523 254,-523 254,-504 363,-504 363,-523"/>
<text text-anchor="middle" x="308.5" y="-511" font-family="Helvetica,sans-Serif" font-size="10.00">tx_monitor_control</text>
</a>
</g>
</g>
<!-- Node26&#45;&gt;Node17 -->
<g id="edge30_Node000017_Node000026" class="edge">
<title>Node26&#45;&gt;Node17</title>
<g id="a_edge30_Node000017_Node000026"><a xlink:title=" ">
<path fill="none" stroke="#9a32cd" stroke-dasharray="5,2" d="M373.38,-518.23C408.83,-517.38 451.4,-510.12 480,-484.5 501.69,-465.07 477.13,-441.81 498,-421.5 501.9,-417.71 506.44,-414.64 511.33,-412.17"/>
<polygon fill="#9a32cd" stroke="#9a32cd" points="373.09,-514.73 363.11,-518.31 373.14,-521.73 373.09,-514.73"/>
</a>
</g>
<text text-anchor="middle" x="438.5" y="-518.5" font-family="Helvetica,sans-Serif" font-size="10.00" fill="grey"> txmon_ctrl</text>
</g>
<!-- Node27 -->
<g id="Node000027" class="node">
<title>Node27</title>
<g id="a_Node000027"><a xlink:href="structgain__table__info.html" target="_top" xlink:title=" ">
<polygon fill="white" stroke="#666666" points="619,-321 527,-321 527,-302 619,-302 619,-321"/>
<text text-anchor="middle" x="573" y="-309" font-family="Helvetica,sans-Serif" font-size="10.00">gain_table_info</text>
</a>
</g>
</g>
<!-- Node27&#45;&gt;Node2 -->
<g id="edge31_Node000002_Node000027" class="edge">
<title>Node27&#45;&gt;Node2</title>
<g id="a_edge31_Node000002_Node000027"><a xlink:title=" ">
<path fill="none" stroke="#9a32cd" stroke-dasharray="5,2" d="M629.33,-304.1C667.21,-298.55 718.46,-290.1 763,-279.5 773.98,-276.89 785.87,-273.38 796.24,-270.09"/>
<polygon fill="#9a32cd" stroke="#9a32cd" points="628.41,-300.69 619.01,-305.58 629.41,-307.62 628.41,-300.69"/>
</a>
</g>
<text text-anchor="middle" x="714.5" y="-300.5" font-family="Helvetica,sans-Serif" font-size="10.00" fill="grey"> gt_info</text>
</g>
<!-- Node28 -->
<g id="Node000028" class="node">
<title>Node28</title>
<g id="a_Node000028"><a xlink:href="structad9361__fastlock.html" target="_top" xlink:title=" ">
<polygon fill="white" stroke="#666666" points="621.5,-278 524.5,-278 524.5,-259 621.5,-259 621.5,-278"/>
<text text-anchor="middle" x="573" y="-266" font-family="Helvetica,sans-Serif" font-size="10.00">ad9361_fastlock</text>
</a>
</g>
</g>
<!-- Node28&#45;&gt;Node2 -->
<g id="edge32_Node000002_Node000028" class="edge">
<title>Node28&#45;&gt;Node2</title>
<g id="a_edge32_Node000002_Node000028"><a xlink:title=" ">
<path fill="none" stroke="#9a32cd" stroke-dasharray="5,2" d="M631.99,-266.65C677.36,-265.2 739.48,-263.22 780.74,-261.9"/>
<polygon fill="#9a32cd" stroke="#9a32cd" points="631.59,-263.16 621.71,-266.98 631.81,-270.16 631.59,-263.16"/>
</a>
</g>
<text text-anchor="middle" x="714.5" y="-267.5" font-family="Helvetica,sans-Serif" font-size="10.00" fill="grey"> fastlock</text>
</g>
<!-- Node29 -->
<g id="Node000029" class="node">
<title>Node29</title>
<g id="a_Node000029"><a xlink:href="structad9361__fastlock__entry.html" target="_top" xlink:title=" ">
<polygon fill="white" stroke="#666666" points="372.5,-264 244.5,-264 244.5,-245 372.5,-245 372.5,-264"/>
<text text-anchor="middle" x="308.5" y="-252" font-family="Helvetica,sans-Serif" font-size="10.00">ad9361_fastlock_entry</text>
</a>
</g>
</g>
<!-- Node29&#45;&gt;Node28 -->
<g id="edge33_Node000028_Node000029" class="edge">
<title>Node29&#45;&gt;Node28</title>
<g id="a_edge33_Node000028_Node000029"><a xlink:title=" ">
<path fill="none" stroke="#9a32cd" stroke-dasharray="5,2" d="M382.73,-254.86C412.88,-255.36 448.15,-256.4 480,-258.5 494.43,-259.45 510.08,-260.97 524.32,-262.54"/>
<polygon fill="#9a32cd" stroke="#9a32cd" points="382.77,-251.36 372.71,-254.71 382.66,-258.36 382.77,-251.36"/>
</a>
</g>
<text text-anchor="middle" x="438.5" y="-261.5" font-family="Helvetica,sans-Serif" font-size="10.00" fill="grey"> entry</text>
</g>
<!-- Node30 -->
<g id="Node000030" class="node">
<title>Node30</title>
<g id="a_Node000030"><a xlink:href="structaxiadc__converter.html" target="_top" xlink:title=" ">
<polygon fill="white" stroke="#666666" points="623.5,-229 522.5,-229 522.5,-210 623.5,-210 623.5,-229"/>
<text text-anchor="middle" x="573" y="-217" font-family="Helvetica,sans-Serif" font-size="10.00">axiadc_converter</text>
</a>
</g>
</g>
<!-- Node30&#45;&gt;Node2 -->
<g id="edge34_Node000002_Node000030" class="edge">
<title>Node30&#45;&gt;Node2</title>
<g id="a_edge34_Node000002_Node000030"><a xlink:title=" ">
<path fill="none" stroke="#9a32cd" stroke-dasharray="5,2" d="M634.06,-227.44C671.28,-232.6 720.03,-239.78 763,-247.5 768.8,-248.54 774.89,-249.72 780.89,-250.94"/>
<polygon fill="#9a32cd" stroke="#9a32cd" points="634.26,-223.94 623.88,-226.04 633.31,-230.87 634.26,-223.94"/>
</a>
</g>
<text text-anchor="middle" x="714.5" y="-250.5" font-family="Helvetica,sans-Serif" font-size="10.00" fill="grey"> adc_conv</text>
</g>
<!-- Node31 -->
<g id="Node000031" class="node">
<title>Node31</title>
<g id="a_Node000031"><a xlink:href="structaxiadc__chip__info.html" target="_top" xlink:title=" ">
<polygon fill="white" stroke="#666666" points="357.5,-227 259.5,-227 259.5,-208 357.5,-208 357.5,-227"/>
<text text-anchor="middle" x="308.5" y="-215" font-family="Helvetica,sans-Serif" font-size="10.00">axiadc_chip_info</text>
</a>
</g>
</g>
<!-- Node31&#45;&gt;Node30 -->
<g id="edge35_Node000030_Node000031" class="edge">
<title>Node31&#45;&gt;Node30</title>
<g id="a_edge35_Node000030_Node000031"><a xlink:title=" ">
<path fill="none" stroke="#9a32cd" stroke-dasharray="5,2" d="M367.85,-217.94C414.24,-218.3 478.43,-218.79 522.38,-219.12"/>
<polygon fill="#9a32cd" stroke="#9a32cd" points="367.67,-214.44 357.65,-217.87 367.62,-221.44 367.67,-214.44"/>
</a>
</g>
<text text-anchor="middle" x="438.5" y="-221.5" font-family="Helvetica,sans-Serif" font-size="10.00" fill="grey"> chip_info</text>
</g>
<!-- Node32&#45;&gt;Node2 -->
<g id="edge36_Node000002_Node000032" class="edge">
<title>Node32&#45;&gt;Node2</title>
<g id="a_edge36_Node000002_Node000032"><a xlink:title=" ">
<path fill="none" stroke="#9a32cd" stroke-dasharray="5,2" d="M987.46,-249.72C976.81,-247.96 965.56,-246.41 955,-245.5 925.33,-242.95 917.57,-241.95 888,-245.5 878.62,-246.63 868.6,-248.69 859.43,-250.93"/>
<polygon fill="#9a32cd" stroke="#9a32cd" points="987,-253.19 997.45,-251.45 988.19,-246.29 987,-253.19"/>
</a>
</g>
<text text-anchor="middle" x="921.5" y="-248.5" font-family="Helvetica,sans-Serif" font-size="10.00" fill="grey"> adc_state</text>
</g>
</g>
</svg>

<g id="navigator" transform="translate(0 0)" fill="#404254">
  <rect fill="#f2f5e9" fill-opacity="0.5" stroke="#606060" stroke-width=".5" x="0" y="0" width="60" height="60"/>
  <use id="zoomplus" xlink:href="#zoomPlus" x="17" y="9" onmousedown="handleZoom(evt,'in')"/>
  <use id="zoomminus" xlink:href="#zoomMin" x="42" y="9" onmousedown="handleZoom(evt,'out')"/>
  <use id="reset" xlink:href="#resetDef" x="30" y="36" onmousedown="handleReset()"/>
   <use id="arrowup" xlink:href="#arrowUp" x="0" y="0" onmousedown="handlePan(0,-1)"/>
  <use id="arrowright" xlink:href="#arrowRight" x="0" y="0" onmousedown="handlePan(1,0)"/>
  <use id="arrowdown" xlink:href="#arrowDown" x="0" y="0" onmousedown="handlePan(0,1)"/>
  <use id="arrowleft" xlink:href="#arrowLeft" x="0" y="0" onmousedown="handlePan(-1,0)"/>
</g>
<svg viewBox="0 0 15 15" width="100%" height="30px" preserveAspectRatio="xMaxYMin meet">
 <g id="arrow_out" transform="scale(0.3 0.3)">
  <a xlink:href="structad9361__debugfs__entry__coll__graph_org.svg" target="_base">
   <rect id="button" ry="5" rx="5" y="6" x="6" height="38" width="38"
        fill="#f2f5e9" fill-opacity="0.5" stroke="#606060" stroke-width="1.0"/>
   <path id="arrow"
     d="M 11.500037,31.436501 C 11.940474,20.09759 22.043105,11.32322 32.158766,21.979434 L 37.068811,17.246167 C 37.068811,17.246167 37.088388,32 37.088388,32 L 22.160133,31.978069 C 22.160133,31.978069 26.997745,27.140456 26.997745,27.140456 C 18.528582,18.264221 13.291696,25.230495 11.500037,31.436501 z"
     style="fill:#404040;"/>
  </a>
 </g>
</svg>

<style type='text/css'>
<![CDATA[
[data-mouse-over-selected='false'] { opacity: 0.7; }
[data-mouse-over-selected='true']  { opacity: 1.0; }
]]>
</style>
<script type="application/ecmascript"><![CDATA[
document.addEventListener('DOMContentLoaded', (event) => {
  highlightEdges();
  highlightAdjacentNodes();
});
]]></script>
</svg>
