<?xml version="1.0" encoding="UTF-8" standalone="no"?>
<!DOCTYPE svg PUBLIC "-//W3C//DTD SVG 1.1//EN"
 "http://www.w3.org/Graphics/SVG/1.1/DTD/svg11.dtd">
<!-- Generated by graphviz version 2.43.0 (0)
 -->
<!-- Title: ad7746_init_param Pages: 1 -->
<svg width="521pt" height="159pt"
 viewBox="0.00 0.00 520.50 159.00" xmlns="http://www.w3.org/2000/svg" xmlns:xlink="http://www.w3.org/1999/xlink">
<g id="graph0" class="graph" transform="scale(1 1) rotate(0) translate(4 155)">
<title>ad7746_init_param</title>
<!-- Node1 -->
<g id="Node000001" class="node">
<title>Node1</title>
<g id="a_Node000001"><a xlink:title=" ">
<polygon fill="#999999" stroke="#666666" points="229,-19 119,-19 119,0 229,0 229,-19"/>
<text text-anchor="middle" x="174" y="-7" font-family="Helvetica,sans-Serif" font-size="10.00">ad7746_init_param</text>
</a>
</g>
</g>
<!-- Node2 -->
<g id="Node000002" class="node">
<title>Node2</title>
<g id="a_Node000002"><a xlink:href="structno__os__i2c__init__param.html" target="_top" xlink:title="Structure holding the parameters for I2C initialization.">
<polygon fill="white" stroke="#666666" points="174,-85 52,-85 52,-66 174,-66 174,-85"/>
<text text-anchor="middle" x="113" y="-73" font-family="Helvetica,sans-Serif" font-size="10.00">no_os_i2c_init_param</text>
</a>
</g>
</g>
<!-- Node2&#45;&gt;Node1 -->
<g id="edge1_Node000001_Node000002" class="edge">
<title>Node2&#45;&gt;Node1</title>
<g id="a_edge1_Node000001_Node000002"><a xlink:title=" ">
<path fill="none" stroke="#9a32cd" stroke-dasharray="5,2" d="M128.27,-58.48C140.05,-46.12 155.9,-29.49 165.51,-19.41"/>
<polygon fill="#9a32cd" stroke="#9a32cd" points="125.59,-56.22 121.23,-65.87 130.66,-61.04 125.59,-56.22"/>
</a>
</g>
<text text-anchor="middle" x="167.5" y="-40" font-family="Helvetica,sans-Serif" font-size="10.00" fill="grey"> i2c_init</text>
</g>
<!-- Node3 -->
<g id="Node000003" class="node">
<title>Node3</title>
<g id="a_Node000003"><a xlink:href="structno__os__i2c__platform__ops.html" target="_top" xlink:title="Structure holding I2C function pointers that point to the platform specific function.">
<polygon fill="white" stroke="#666666" points="134,-151 0,-151 0,-132 134,-132 134,-151"/>
<text text-anchor="middle" x="67" y="-139" font-family="Helvetica,sans-Serif" font-size="10.00">no_os_i2c_platform_ops</text>
</a>
</g>
</g>
<!-- Node3&#45;&gt;Node2 -->
<g id="edge2_Node000002_Node000003" class="edge">
<title>Node3&#45;&gt;Node2</title>
<g id="a_edge2_Node000002_Node000003"><a xlink:title=" ">
<path fill="none" stroke="#9a32cd" stroke-dasharray="5,2" d="M79.28,-123.41C88.08,-111.18 99.56,-95.2 106.6,-85.41"/>
<polygon fill="#9a32cd" stroke="#9a32cd" points="76.2,-121.71 73.2,-131.87 81.88,-125.79 76.2,-121.71"/>
</a>
</g>
<text text-anchor="middle" x="127" y="-106" font-family="Helvetica,sans-Serif" font-size="10.00" fill="grey"> platform_ops</text>
</g>
<!-- Node4 -->
<g id="Node000004" class="node">
<title>Node4</title>
<g id="a_Node000004"><a xlink:href="structad7746__setup.html" target="_top" xlink:title=" ">
<polygon fill="white" stroke="#666666" points="322.5,-85 237.5,-85 237.5,-66 322.5,-66 322.5,-85"/>
<text text-anchor="middle" x="280" y="-73" font-family="Helvetica,sans-Serif" font-size="10.00">ad7746_setup</text>
</a>
</g>
</g>
<!-- Node4&#45;&gt;Node1 -->
<g id="edge3_Node000001_Node000004" class="edge">
<title>Node4&#45;&gt;Node1</title>
<g id="a_edge3_Node000001_Node000004"><a xlink:title=" ">
<path fill="none" stroke="#9a32cd" stroke-dasharray="5,2" d="M257.13,-60.69C236.27,-48.09 206.08,-29.87 188.41,-19.2"/>
<polygon fill="#9a32cd" stroke="#9a32cd" points="255.33,-63.7 265.7,-65.87 258.95,-57.7 255.33,-63.7"/>
</a>
</g>
<text text-anchor="middle" x="249.5" y="-40" font-family="Helvetica,sans-Serif" font-size="10.00" fill="grey"> setup</text>
</g>
<!-- Node5 -->
<g id="Node000005" class="node">
<title>Node5</title>
<g id="a_Node000005"><a xlink:href="structad7746__cap.html" target="_top" xlink:title=" ">
<polygon fill="white" stroke="#666666" points="227.5,-151 152.5,-151 152.5,-132 227.5,-132 227.5,-151"/>
<text text-anchor="middle" x="190" y="-139" font-family="Helvetica,sans-Serif" font-size="10.00">ad7746_cap</text>
</a>
</g>
</g>
<!-- Node5&#45;&gt;Node4 -->
<g id="edge4_Node000004_Node000005" class="edge">
<title>Node5&#45;&gt;Node4</title>
<g id="a_edge4_Node000004_Node000005"><a xlink:title=" ">
<path fill="none" stroke="#9a32cd" stroke-dasharray="5,2" d="M210.62,-125.83C228.28,-113.28 253.1,-95.63 267.77,-85.2"/>
<polygon fill="#9a32cd" stroke="#9a32cd" points="208.26,-123.22 202.14,-131.87 212.32,-128.93 208.26,-123.22"/>
</a>
</g>
<text text-anchor="middle" x="251.5" y="-106" font-family="Helvetica,sans-Serif" font-size="10.00" fill="grey"> cap</text>
</g>
<!-- Node6 -->
<g id="Node000006" class="node">
<title>Node6</title>
<g id="a_Node000006"><a xlink:href="structad7746__vt.html" target="_top" xlink:title=" ">
<polygon fill="white" stroke="#666666" points="314,-151 246,-151 246,-132 314,-132 314,-151"/>
<text text-anchor="middle" x="280" y="-139" font-family="Helvetica,sans-Serif" font-size="10.00">ad7746_vt</text>
</a>
</g>
</g>
<!-- Node6&#45;&gt;Node4 -->
<g id="edge5_Node000004_Node000006" class="edge">
<title>Node6&#45;&gt;Node4</title>
<g id="a_edge5_Node000004_Node000006"><a xlink:title=" ">
<path fill="none" stroke="#9a32cd" stroke-dasharray="5,2" d="M280,-121.58C280,-109.63 280,-94.72 280,-85.41"/>
<polygon fill="#9a32cd" stroke="#9a32cd" points="276.5,-121.87 280,-131.87 283.5,-121.87 276.5,-121.87"/>
</a>
</g>
<text text-anchor="middle" x="286.5" y="-106" font-family="Helvetica,sans-Serif" font-size="10.00" fill="grey"> vt</text>
</g>
<!-- Node7 -->
<g id="Node000007" class="node">
<title>Node7</title>
<g id="a_Node000007"><a xlink:href="structad7746__exc.html" target="_top" xlink:title=" ">
<polygon fill="white" stroke="#666666" points="407.5,-151 332.5,-151 332.5,-132 407.5,-132 407.5,-151"/>
<text text-anchor="middle" x="370" y="-139" font-family="Helvetica,sans-Serif" font-size="10.00">ad7746_exc</text>
</a>
</g>
</g>
<!-- Node7&#45;&gt;Node4 -->
<g id="edge6_Node000004_Node000007" class="edge">
<title>Node7&#45;&gt;Node4</title>
<g id="a_edge6_Node000004_Node000007"><a xlink:title=" ">
<path fill="none" stroke="#9a32cd" stroke-dasharray="5,2" d="M349.38,-125.83C331.72,-113.28 306.9,-95.63 292.23,-85.2"/>
<polygon fill="#9a32cd" stroke="#9a32cd" points="347.68,-128.93 357.86,-131.87 351.74,-123.22 347.68,-128.93"/>
</a>
</g>
<text text-anchor="middle" x="341.5" y="-106" font-family="Helvetica,sans-Serif" font-size="10.00" fill="grey"> exc</text>
</g>
<!-- Node8 -->
<g id="Node000008" class="node">
<title>Node8</title>
<g id="a_Node000008"><a xlink:href="structad7746__config.html" target="_top" xlink:title=" ">
<polygon fill="white" stroke="#666666" points="512.5,-151 425.5,-151 425.5,-132 512.5,-132 512.5,-151"/>
<text text-anchor="middle" x="469" y="-139" font-family="Helvetica,sans-Serif" font-size="10.00">ad7746_config</text>
</a>
</g>
</g>
<!-- Node8&#45;&gt;Node4 -->
<g id="edge7_Node000004_Node000008" class="edge">
<title>Node8&#45;&gt;Node4</title>
<g id="a_edge7_Node000004_Node000008"><a xlink:title=" ">
<path fill="none" stroke="#9a32cd" stroke-dasharray="5,2" d="M433.57,-128.5C396.24,-115.86 338.4,-96.28 305.39,-85.1"/>
<polygon fill="#9a32cd" stroke="#9a32cd" points="432.92,-131.98 443.51,-131.87 435.16,-125.35 432.92,-131.98"/>
</a>
</g>
<text text-anchor="middle" x="401.5" y="-106" font-family="Helvetica,sans-Serif" font-size="10.00" fill="grey"> config</text>
</g>
</g>
</svg>
