<?xml version="1.0" encoding="UTF-8" standalone="no"?>
<!DOCTYPE svg PUBLIC "-//W3C//DTD SVG 1.1//EN"
 "http://www.w3.org/Graphics/SVG/1.1/DTD/svg11.dtd">
<!-- Generated by graphviz version 2.43.0 (0)
 -->
<!-- Title: tmc7300_desc Pages: 1 -->
<svg width="414pt" height="170pt"
 viewBox="0.00 0.00 413.50 170.00" xmlns="http://www.w3.org/2000/svg" xmlns:xlink="http://www.w3.org/1999/xlink">

<svg id="main" version="1.1" xmlns="http://www.w3.org/2000/svg" xmlns:xlink="http://www.w3.org/1999/xlink" xml:space="preserve">

<style type="text/css"><![CDATA[
.node, .edge {opacity: 0.7;}
.node.selected, .edge.selected {opacity: 1;}
.edge:hover path { stroke: red; }
.edge:hover polygon { stroke: red; fill: red; }
]]></style>
<script type="application/ecmascript" xlink:href="svg.min.js"/>
<svg id="graph" class="graph">
<g id="graph0" class="graph" transform="scale(1 1) rotate(0) translate(4 166)">
<title>tmc7300_desc</title>
<!-- Node1 -->
<g id="Node000001" class="node">
<title>Node1</title>
<g id="a_Node000001"><a xlink:title=" ">
<polygon fill="#999999" stroke="#666666" points="262.5,-19 175.5,-19 175.5,0 262.5,0 262.5,-19"/>
<text text-anchor="middle" x="219" y="-7" font-family="Helvetica,sans-Serif" font-size="10.00">tmc7300_desc</text>
</a>
</g>
</g>
<!-- Node2 -->
<g id="Node000002" class="node">
<title>Node2</title>
<g id="a_Node000002"><a xlink:href="structno__os__uart__desc.html" target="_top" xlink:title="Stucture holding the UART descriptor.">
<polygon fill="white" stroke="#666666" points="130,-96 32,-96 32,-77 130,-77 130,-96"/>
<text text-anchor="middle" x="81" y="-84" font-family="Helvetica,sans-Serif" font-size="10.00">no_os_uart_desc</text>
</a>
</g>
</g>
<!-- Node2&#45;&gt;Node1 -->
<g id="edge1_Node000001_Node000002" class="edge">
<title>Node2&#45;&gt;Node1</title>
<g id="a_edge1_Node000001_Node000002"><a xlink:title=" ">
<path fill="none" stroke="#9a32cd" stroke-dasharray="5,2" d="M100.63,-70.62C114.73,-60.35 134.43,-46.84 153,-37 166.09,-30.06 181.41,-23.81 194,-19.12"/>
<polygon fill="#9a32cd" stroke="#9a32cd" points="98.21,-68.06 92.25,-76.82 102.37,-73.68 98.21,-68.06"/>
</a>
</g>
<text text-anchor="middle" x="184" y="-45.5" font-family="Helvetica,sans-Serif" font-size="10.00" fill="grey"> comm_desc</text>
</g>
<!-- Node3 -->
<g id="Node000003" class="node">
<title>Node3</title>
<g id="a_Node000003"><a xlink:href="structno__os__uart__platform__ops.html" target="_top" xlink:title="Structure holding UART function pointers that point to the platform specific function.">
<polygon fill="white" stroke="#666666" points="140,-162 0,-162 0,-143 140,-143 140,-162"/>
<text text-anchor="middle" x="70" y="-150" font-family="Helvetica,sans-Serif" font-size="10.00">no_os_uart_platform_ops</text>
</a>
</g>
</g>
<!-- Node3&#45;&gt;Node2 -->
<g id="edge2_Node000002_Node000003" class="edge">
<title>Node3&#45;&gt;Node2</title>
<g id="a_edge2_Node000002_Node000003"><a xlink:title=" ">
<path fill="none" stroke="#9a32cd" stroke-dasharray="5,2" d="M73.19,-132.95C75.25,-120.93 77.85,-105.82 79.47,-96.41"/>
<polygon fill="#9a32cd" stroke="#9a32cd" points="69.73,-132.42 71.48,-142.87 76.63,-133.61 69.73,-132.42"/>
</a>
</g>
<text text-anchor="middle" x="111" y="-117" font-family="Helvetica,sans-Serif" font-size="10.00" fill="grey"> platform_ops</text>
</g>
<!-- Node4 -->
<g id="Node000004" class="node">
<title>Node4</title>
<g id="a_Node000004"><a xlink:href="structno__os__gpio__desc.html" target="_top" xlink:title="Structure holding the GPIO descriptor.">
<polygon fill="white" stroke="#666666" points="268.5,-96 169.5,-96 169.5,-77 268.5,-77 268.5,-96"/>
<text text-anchor="middle" x="219" y="-84" font-family="Helvetica,sans-Serif" font-size="10.00">no_os_gpio_desc</text>
</a>
</g>
</g>
<!-- Node4&#45;&gt;Node1 -->
<g id="edge3_Node000001_Node000004" class="edge">
<title>Node4&#45;&gt;Node1</title>
<g id="a_edge3_Node000001_Node000004"><a xlink:title=" ">
<path fill="none" stroke="#9a32cd" stroke-dasharray="5,2" d="M219,-66.52C219,-51.24 219,-30.48 219,-19"/>
<polygon fill="#9a32cd" stroke="#9a32cd" points="215.5,-66.9 219,-76.9 222.5,-66.9 215.5,-66.9"/>
</a>
</g>
<text text-anchor="middle" x="240" y="-51" font-family="Helvetica,sans-Serif" font-size="10.00" fill="grey"> en_gpio</text>
<text text-anchor="middle" x="240" y="-40" font-family="Helvetica,sans-Serif" font-size="10.00" fill="grey">vio_gpio</text>
</g>
<!-- Node5 -->
<g id="Node000005" class="node">
<title>Node5</title>
<g id="a_Node000005"><a xlink:href="structno__os__gpio__platform__ops.html" target="_top" xlink:title="Structure holding gpio function pointers that point to the platform specific function.">
<polygon fill="white" stroke="#666666" points="299.5,-162 158.5,-162 158.5,-143 299.5,-143 299.5,-162"/>
<text text-anchor="middle" x="229" y="-150" font-family="Helvetica,sans-Serif" font-size="10.00">no_os_gpio_platform_ops</text>
</a>
</g>
</g>
<!-- Node5&#45;&gt;Node4 -->
<g id="edge4_Node000004_Node000005" class="edge">
<title>Node5&#45;&gt;Node4</title>
<g id="a_edge4_Node000004_Node000005"><a xlink:title=" ">
<path fill="none" stroke="#9a32cd" stroke-dasharray="5,2" d="M226.1,-132.95C224.22,-120.93 221.86,-105.82 220.39,-96.41"/>
<polygon fill="#9a32cd" stroke="#9a32cd" points="222.65,-133.53 227.65,-142.87 229.57,-132.45 222.65,-133.53"/>
</a>
</g>
<text text-anchor="middle" x="258" y="-117" font-family="Helvetica,sans-Serif" font-size="10.00" fill="grey"> platform_ops</text>
</g>
<!-- Node6 -->
<g id="Node000006" class="node">
<title>Node6</title>
<g id="a_Node000006"><a xlink:href="structtmc7300__bridge__priv.html" target="_top" xlink:title=" ">
<polygon fill="white" stroke="#666666" points="405.5,-96 286.5,-96 286.5,-77 405.5,-77 405.5,-96"/>
<text text-anchor="middle" x="346" y="-84" font-family="Helvetica,sans-Serif" font-size="10.00">tmc7300_bridge_priv</text>
</a>
</g>
</g>
<!-- Node6&#45;&gt;Node1 -->
<g id="edge5_Node000001_Node000006" class="edge">
<title>Node6&#45;&gt;Node1</title>
<g id="a_edge5_Node000001_Node000006"><a xlink:title=" ">
<path fill="none" stroke="#9a32cd" stroke-dasharray="5,2" d="M322.94,-71.55C306.76,-61.8 284.61,-48.52 265,-37 254.67,-30.93 242.97,-24.19 233.95,-19.03"/>
<polygon fill="#9a32cd" stroke="#9a32cd" points="321.33,-74.67 331.7,-76.84 324.95,-68.68 321.33,-74.67"/>
</a>
</g>
<text text-anchor="middle" x="329" y="-45.5" font-family="Helvetica,sans-Serif" font-size="10.00" fill="grey"> bridge_priv</text>
</g>
</g>
</svg>
</svg>

<style type='text/css'>
<![CDATA[
[data-mouse-over-selected='false'] { opacity: 0.7; }
[data-mouse-over-selected='true']  { opacity: 1.0; }
]]>
</style>
<script type="application/ecmascript"><![CDATA[
document.addEventListener('DOMContentLoaded', (event) => {
  highlightEdges();
  highlightAdjacentNodes();
});
]]></script>
</svg>
