<?xml version="1.0" encoding="UTF-8" standalone="no"?>
<!DOCTYPE svg PUBLIC "-//W3C//DTD SVG 1.1//EN"
 "http://www.w3.org/Graphics/SVG/1.1/DTD/svg11.dtd">
<!-- Generated by graphviz version 2.43.0 (0)
 -->
<!-- Title: adl8113_iio_init_param Pages: 1 -->
<svg width="179pt" height="236pt"
 viewBox="0.00 0.00 178.50 236.00" xmlns="http://www.w3.org/2000/svg" xmlns:xlink="http://www.w3.org/1999/xlink">
<g id="graph0" class="graph" transform="scale(1 1) rotate(0) translate(4 232)">
<title>adl8113_iio_init_param</title>
<!-- Node1 -->
<g id="Node000001" class="node">
<title>Node1</title>
<g id="a_Node000001"><a xlink:title="ADL8113 IIO initialization parameters.">
<polygon fill="#999999" stroke="#666666" points="136,-19 5,-19 5,0 136,0 136,-19"/>
<text text-anchor="middle" x="70.5" y="-7" font-family="Helvetica,sans-Serif" font-size="10.00">adl8113_iio_init_param</text>
</a>
</g>
</g>
<!-- Node2 -->
<g id="Node000002" class="node">
<title>Node2</title>
<g id="a_Node000002"><a xlink:href="structadl8113__init__param.html" target="_top" xlink:title="ADL8113 Initialization Parameters structure.">
<polygon fill="white" stroke="#666666" points="127,-85 14,-85 14,-66 127,-66 127,-85"/>
<text text-anchor="middle" x="70.5" y="-73" font-family="Helvetica,sans-Serif" font-size="10.00">adl8113_init_param</text>
</a>
</g>
</g>
<!-- Node2&#45;&gt;Node1 -->
<g id="edge1_Node000001_Node000002" class="edge">
<title>Node2&#45;&gt;Node1</title>
<g id="a_edge1_Node000001_Node000002"><a xlink:title=" ">
<path fill="none" stroke="#9a32cd" stroke-dasharray="5,2" d="M70.5,-55.58C70.5,-43.63 70.5,-28.72 70.5,-19.41"/>
<polygon fill="#9a32cd" stroke="#9a32cd" points="67,-55.87 70.5,-65.87 74,-55.87 67,-55.87"/>
</a>
</g>
<text text-anchor="middle" x="120.5" y="-40" font-family="Helvetica,sans-Serif" font-size="10.00" fill="grey"> adl8113_init_param</text>
</g>
<!-- Node3 -->
<g id="Node000003" class="node">
<title>Node3</title>
<g id="a_Node000003"><a xlink:href="structno__os__gpio__init__param.html" target="_top" xlink:title="Structure holding the parameters for GPIO initialization.">
<polygon fill="white" stroke="#666666" points="135,-162 6,-162 6,-143 135,-143 135,-162"/>
<text text-anchor="middle" x="70.5" y="-150" font-family="Helvetica,sans-Serif" font-size="10.00">no_os_gpio_init_param</text>
</a>
</g>
</g>
<!-- Node3&#45;&gt;Node2 -->
<g id="edge2_Node000002_Node000003" class="edge">
<title>Node3&#45;&gt;Node2</title>
<g id="a_edge2_Node000002_Node000003"><a xlink:title=" ">
<path fill="none" stroke="#9a32cd" stroke-dasharray="5,2" d="M70.5,-132.52C70.5,-117.24 70.5,-96.48 70.5,-85"/>
<polygon fill="#9a32cd" stroke="#9a32cd" points="67,-132.9 70.5,-142.9 74,-132.9 67,-132.9"/>
</a>
</g>
<text text-anchor="middle" x="91.5" y="-117" font-family="Helvetica,sans-Serif" font-size="10.00" fill="grey"> gpio_va</text>
<text text-anchor="middle" x="91.5" y="-106" font-family="Helvetica,sans-Serif" font-size="10.00" fill="grey">gpio_vb</text>
</g>
<!-- Node4 -->
<g id="Node000004" class="node">
<title>Node4</title>
<g id="a_Node000004"><a xlink:href="structno__os__gpio__platform__ops.html" target="_top" xlink:title="Structure holding gpio function pointers that point to the platform specific function.">
<polygon fill="white" stroke="#666666" points="141,-228 0,-228 0,-209 141,-209 141,-228"/>
<text text-anchor="middle" x="70.5" y="-216" font-family="Helvetica,sans-Serif" font-size="10.00">no_os_gpio_platform_ops</text>
</a>
</g>
</g>
<!-- Node4&#45;&gt;Node3 -->
<g id="edge3_Node000003_Node000004" class="edge">
<title>Node4&#45;&gt;Node3</title>
<g id="a_edge3_Node000003_Node000004"><a xlink:title=" ">
<path fill="none" stroke="#9a32cd" stroke-dasharray="5,2" d="M70.5,-198.58C70.5,-186.63 70.5,-171.72 70.5,-162.41"/>
<polygon fill="#9a32cd" stroke="#9a32cd" points="67,-198.87 70.5,-208.87 74,-198.87 67,-198.87"/>
</a>
</g>
<text text-anchor="middle" x="104.5" y="-183" font-family="Helvetica,sans-Serif" font-size="10.00" fill="grey"> platform_ops</text>
</g>
</g>
</svg>
