<?xml version="1.0" encoding="UTF-8" standalone="no"?>
<!DOCTYPE svg PUBLIC "-//W3C//DTD SVG 1.1//EN"
 "http://www.w3.org/Graphics/SVG/1.1/DTD/svg11.dtd">
<!-- Generated by graphviz version 2.43.0 (0)
 -->
<!-- Title: refclk_scale Pages: 1 -->
<!--zoomable 603 -->

<svg id="main" version="1.1" xmlns="http://www.w3.org/2000/svg" xmlns:xlink="http://www.w3.org/1999/xlink" xml:space="preserve" onload="init(evt)">

<style type="text/css"><![CDATA[
.node, .edge {opacity: 0.7;}
.node.selected, .edge.selected {opacity: 1;}
.edge:hover path { stroke: red; }
.edge:hover polygon { stroke: red; fill: red; }
]]></style>

<defs>
  <circle id="rim" cx="0" cy="0" r="7"/>
  <circle id="rim2" cx="0" cy="0" r="3.5"/>
  <g id="zoomPlus">
    <use xlink:href="#rim" fill="#404040"><set attributeName="fill" to="#808080" begin="zoomplus.mouseover" end="zoomplus.mouseout"/></use>
    <path d="M-4,0h8M0,-4v8" fill="none" stroke="white" stroke-width="1.5" pointer-events="none"/>
  </g>
  <g id="zoomMin">
    <use xlink:href="#rim" fill="#404040"><set attributeName="fill" to="#808080" begin="zoomminus.mouseover" end="zoomminus.mouseout"/></use>
    <path d="M-4,0h8" fill="none" stroke="white" stroke-width="1.5" pointer-events="none"/>
  </g>
  <g id="arrowUp" transform="translate(30 24)">
    <use xlink:href="#rim"/>
    <path pointer-events="none" fill="none" stroke="white" stroke-width="1.5" d="M0,-3.0v7 M-2.5,-0.5L0,-3.0L2.5,-0.5"/>
  </g>
  <g id="arrowRight" transform="rotate(90) translate(36 -43)">
    <use xlink:href="#rim"/>
    <path pointer-events="none" fill="none" stroke="white" stroke-width="1.5" d="M0,-3.0v7 M-2.5,-0.5L0,-3.0L2.5,-0.5"/>
  </g>
  <g id="arrowDown" transform="rotate(180) translate(-30 -48)">
    <use xlink:href="#rim"/>
    <path pointer-events="none" fill="none" stroke="white" stroke-width="1.5" d="M0,-3.0v7 M-2.5,-0.5L0,-3.0L2.5,-0.5"/>
  </g>
  <g id="arrowLeft" transform="rotate(270) translate(-36 17)">
    <use xlink:href="#rim"/>
    <path pointer-events="none" fill="none" stroke="white" stroke-width="1.5" d="M0,-3.0v7 M-2.5,-0.5L0,-3.0L2.5,-0.5"/>
  </g>
  <g id="resetDef">
    <use xlink:href="#rim2" fill="#404040"><set attributeName="fill" to="#808080" begin="reset.mouseover" end="reset.mouseout"/></use>
  </g>
</defs>
<script type="application/ecmascript">
var viewWidth = 1282;
var viewHeight = 603;
var sectionId = 'dynsection-0';
</script>
<script type="application/ecmascript" xlink:href="svg.min.js"/>
<svg id="graph" class="graph">
<g id="viewport">
<title>refclk_scale</title>
<!-- Node1 -->
<g id="Node000001" class="node">
<title>Node1</title>
<g id="a_Node000001"><a xlink:title=" ">
<polygon fill="#999999" stroke="#666666" points="848.5,-489 773.5,-489 773.5,-470 848.5,-470 848.5,-489"/>
<text text-anchor="middle" x="811" y="-477" font-family="Helvetica,sans-Serif" font-size="10.00">refclk_scale</text>
</a>
</g>
</g>
<!-- Node6 -->
<g id="Node000006" class="node">
<title>Node6</title>
<g id="a_Node000006"><a xlink:href="structad9361__rf__phy.html" target="_top" xlink:title=" ">
<polygon fill="white" stroke="#666666" points="1108,-391 1019,-391 1019,-372 1108,-372 1108,-391"/>
<text text-anchor="middle" x="1063.5" y="-379" font-family="Helvetica,sans-Serif" font-size="10.00">ad9361_rf_phy</text>
</a>
</g>
</g>
<!-- Node1&#45;&gt;Node6 -->
<g id="edge19_Node000006_Node000001" class="edge">
<title>Node1&#45;&gt;Node6</title>
<g id="a_edge19_Node000006_Node000001"><a xlink:title=" ">
<path fill="none" stroke="#9a32cd" stroke-dasharray="5,2" d="M858.86,-476.25C906.69,-472.29 977.18,-464.47 1001,-451.5 1027.43,-437.11 1047.92,-406.68 1057.15,-391.11"/>
<polygon fill="#9a32cd" stroke="#9a32cd" points="858.42,-472.78 848.73,-477.06 858.98,-479.76 858.42,-472.78"/>
</a>
</g>
<text text-anchor="middle" x="952.5" y="-473.5" font-family="Helvetica,sans-Serif" font-size="10.00" fill="grey"> ref_clk_scale</text>
</g>
<!-- Node2 -->
<g id="Node000002" class="node">
<title>Node2</title>
<g id="a_Node000002"><a xlink:href="structno__os__spi__desc.html" target="_top" xlink:title="Structure holding SPI descriptor.">
<polygon fill="white" stroke="#666666" points="607.5,-474 515.5,-474 515.5,-455 607.5,-455 607.5,-474"/>
<text text-anchor="middle" x="561.5" y="-462" font-family="Helvetica,sans-Serif" font-size="10.00">no_os_spi_desc</text>
</a>
</g>
</g>
<!-- Node2&#45;&gt;Node1 -->
<g id="edge1_Node000001_Node000002" class="edge">
<title>Node2&#45;&gt;Node1</title>
<g id="a_edge1_Node000001_Node000002"><a xlink:title=" ">
<path fill="none" stroke="#9a32cd" stroke-dasharray="5,2" d="M617.71,-467.85C665.13,-470.72 732.16,-474.78 773.26,-477.27"/>
<polygon fill="#9a32cd" stroke="#9a32cd" points="617.8,-464.35 607.61,-467.23 617.38,-471.33 617.8,-464.35"/>
</a>
</g>
<text text-anchor="middle" x="684" y="-476.5" font-family="Helvetica,sans-Serif" font-size="10.00" fill="grey"> spi</text>
</g>
<!-- Node2&#45;&gt;Node2 -->
<g id="edge6_Node000002_Node000002" class="edge">
<title>Node2&#45;&gt;Node2</title>
<g id="a_edge6_Node000002_Node000002"><a xlink:title=" ">
<path fill="none" stroke="#9a32cd" stroke-dasharray="5,2" d="M538.91,-483.55C540.42,-488.38 547.95,-492 561.5,-492 583.18,-492 589.45,-482.73 580.3,-474.08"/>
<polygon fill="#9a32cd" stroke="#9a32cd" points="542.23,-484.67 542.7,-474.08 535.73,-482.07 542.23,-484.67"/>
</a>
</g>
<text text-anchor="middle" x="561.5" y="-495" font-family="Helvetica,sans-Serif" font-size="10.00" fill="grey"> parent</text>
</g>
<!-- Node2&#45;&gt;Node6 -->
<g id="edge8_Node000006_Node000002" class="edge">
<title>Node2&#45;&gt;Node6</title>
<g id="a_edge8_Node000006_Node000002"><a xlink:title=" ">
<path fill="none" stroke="#9a32cd" stroke-dasharray="5,2" d="M617.81,-459.9C734.7,-450.15 996.56,-428.17 1001,-426.5 1021.81,-418.69 1041.79,-401.75 1053.07,-391.03"/>
<polygon fill="#9a32cd" stroke="#9a32cd" points="617.31,-456.43 607.64,-460.75 617.89,-463.4 617.31,-456.43"/>
</a>
</g>
<text text-anchor="middle" x="811" y="-452.5" font-family="Helvetica,sans-Serif" font-size="10.00" fill="grey"> spi</text>
</g>
<!-- Node3 -->
<g id="Node000003" class="node">
<title>Node3</title>
<g id="a_Node000003"><a xlink:href="structno__os__spibus__desc.html" target="_top" xlink:title="SPI bus descriptor.">
<polygon fill="white" stroke="#666666" points="360,-428 250,-428 250,-409 360,-409 360,-428"/>
<text text-anchor="middle" x="305" y="-416" font-family="Helvetica,sans-Serif" font-size="10.00">no_os_spibus_desc</text>
</a>
</g>
</g>
<!-- Node3&#45;&gt;Node2 -->
<g id="edge2_Node000002_Node000003" class="edge">
<title>Node3&#45;&gt;Node2</title>
<g id="a_edge2_Node000002_Node000003"><a xlink:title=" ">
<path fill="none" stroke="#9a32cd" stroke-dasharray="5,2" d="M370.42,-424.27C401.58,-427.65 439.43,-432.64 473,-439.5 492.66,-443.52 514.35,-449.7 531.21,-454.92"/>
<polygon fill="#9a32cd" stroke="#9a32cd" points="370.43,-420.75 360.12,-423.18 369.69,-427.71 370.43,-420.75"/>
</a>
</g>
<text text-anchor="middle" x="431.5" y="-442.5" font-family="Helvetica,sans-Serif" font-size="10.00" fill="grey"> bus</text>
</g>
<!-- Node4 -->
<g id="Node000004" class="node">
<title>Node4</title>
<g id="a_Node000004"><a xlink:href="structno__os__spi__platform__ops.html" target="_top" xlink:title="Structure holding SPI function pointers that point to the platform specific function.">
<polygon fill="white" stroke="#666666" points="134,-451 0,-451 0,-432 134,-432 134,-451"/>
<text text-anchor="middle" x="67" y="-439" font-family="Helvetica,sans-Serif" font-size="10.00">no_os_spi_platform_ops</text>
</a>
</g>
</g>
<!-- Node4&#45;&gt;Node2 -->
<g id="edge4_Node000002_Node000004" class="edge">
<title>Node4&#45;&gt;Node2</title>
<g id="a_edge4_Node000002_Node000004"><a xlink:title=" ">
<path fill="none" stroke="#9a32cd" stroke-dasharray="5,2" d="M144.22,-447.04C146.85,-447.2 149.45,-447.36 152,-447.5 283.99,-454.96 440.15,-460.56 515.45,-463.06"/>
<polygon fill="#9a32cd" stroke="#9a32cd" points="144.22,-443.54 134.02,-446.4 143.78,-450.52 144.22,-443.54"/>
</a>
</g>
<text text-anchor="middle" x="305" y="-460.5" font-family="Helvetica,sans-Serif" font-size="10.00" fill="grey"> platform_ops</text>
</g>
<!-- Node4&#45;&gt;Node3 -->
<g id="edge3_Node000003_Node000004" class="edge">
<title>Node4&#45;&gt;Node3</title>
<g id="a_edge3_Node000003_Node000004"><a xlink:title=" ">
<path fill="none" stroke="#9a32cd" stroke-dasharray="5,2" d="M144.09,-434.08C178.57,-430.72 218.54,-426.83 249.9,-423.77"/>
<polygon fill="#9a32cd" stroke="#9a32cd" points="143.67,-430.61 134.05,-435.06 144.35,-437.58 143.67,-430.61"/>
</a>
</g>
<text text-anchor="middle" x="186" y="-435.5" font-family="Helvetica,sans-Serif" font-size="10.00" fill="grey"> platform_ops</text>
</g>
<!-- Node5 -->
<g id="Node000005" class="node">
<title>Node5</title>
<g id="a_Node000005"><a xlink:href="structno__os__platform__spi__delays.html" target="_top" xlink:title="Delays resulted from components in the SPI signal path. The values is ns.">
<polygon fill="white" stroke="#666666" points="361,-523.5 249,-523.5 249,-493.5 361,-493.5 361,-523.5"/>
<text text-anchor="start" x="257" y="-511.5" font-family="Helvetica,sans-Serif" font-size="10.00">no_os_platform_spi</text>
<text text-anchor="middle" x="305" y="-500.5" font-family="Helvetica,sans-Serif" font-size="10.00">_delays</text>
</a>
</g>
</g>
<!-- Node5&#45;&gt;Node2 -->
<g id="edge5_Node000002_Node000005" class="edge">
<title>Node5&#45;&gt;Node2</title>
<g id="a_edge5_Node000002_Node000005"><a xlink:title=" ">
<path fill="none" stroke="#9a32cd" stroke-dasharray="5,2" d="M371.2,-497.23C416.28,-489.43 475.12,-479.26 515.15,-472.34"/>
<polygon fill="#9a32cd" stroke="#9a32cd" points="370.48,-493.8 361.22,-498.95 371.67,-500.7 370.48,-493.8"/>
</a>
</g>
<text text-anchor="middle" x="431.5" y="-495.5" font-family="Helvetica,sans-Serif" font-size="10.00" fill="grey"> platform_delays</text>
</g>
<!-- Node6&#45;&gt;Node1 -->
<g id="edge7_Node000001_Node000006" class="edge">
<title>Node6&#45;&gt;Node1</title>
<g id="a_edge7_Node000001_Node000006"><a xlink:title=" ">
<path fill="none" stroke="#9a32cd" stroke-dasharray="5,2" d="M1057.4,-401.02C1049.76,-425.76 1032.74,-467.39 1001,-485.5 950.53,-514.29 879.5,-500.4 840.47,-489.09"/>
<polygon fill="#9a32cd" stroke="#9a32cd" points="1060.8,-401.85 1060.19,-391.27 1054.07,-399.92 1060.8,-401.85"/>
</a>
</g>
<text text-anchor="middle" x="952.5" y="-505.5" font-family="Helvetica,sans-Serif" font-size="10.00" fill="grey"> phy</text>
</g>
<!-- Node31 -->
<g id="Node000031" class="node">
<title>Node31</title>
<g id="a_Node000031"><a xlink:href="structaxiadc__state.html" target="_top" xlink:title=" ">
<polygon fill="white" stroke="#666666" points="1274,-391 1195,-391 1195,-372 1274,-372 1274,-391"/>
<text text-anchor="middle" x="1234.5" y="-379" font-family="Helvetica,sans-Serif" font-size="10.00">axiadc_state</text>
</a>
</g>
</g>
<!-- Node6&#45;&gt;Node31 -->
<g id="edge36_Node000031_Node000006" class="edge">
<title>Node6&#45;&gt;Node31</title>
<g id="a_edge36_Node000031_Node000006"><a xlink:title=" ">
<path fill="none" stroke="#9a32cd" stroke-dasharray="5,2" d="M1118.05,-381.5C1142.95,-381.5 1172,-381.5 1194.74,-381.5"/>
<polygon fill="#9a32cd" stroke="#9a32cd" points="1118.02,-378 1108.02,-381.5 1118.02,-385 1118.02,-378"/>
</a>
</g>
<text text-anchor="middle" x="1151.5" y="-384.5" font-family="Helvetica,sans-Serif" font-size="10.00" fill="grey"> phy</text>
</g>
<!-- Node7 -->
<g id="Node000007" class="node">
<title>Node7</title>
<g id="a_Node000007"><a xlink:href="structno__os__gpio__desc.html" target="_top" xlink:title="Structure holding the GPIO descriptor.">
<polygon fill="white" stroke="#666666" points="860.5,-400 761.5,-400 761.5,-381 860.5,-381 860.5,-400"/>
<text text-anchor="middle" x="811" y="-388" font-family="Helvetica,sans-Serif" font-size="10.00">no_os_gpio_desc</text>
</a>
</g>
</g>
<!-- Node7&#45;&gt;Node6 -->
<g id="edge9_Node000006_Node000007" class="edge">
<title>Node7&#45;&gt;Node6</title>
<g id="a_edge9_Node000006_Node000007"><a xlink:title=" ">
<path fill="none" stroke="#9a32cd" stroke-dasharray="5,2" d="M870.66,-384.69C881.73,-383.79 893.21,-383 904,-382.5 942.76,-380.7 986.9,-380.58 1018.75,-380.83"/>
<polygon fill="#9a32cd" stroke="#9a32cd" points="870.32,-381.21 860.65,-385.53 870.91,-388.18 870.32,-381.21"/>
</a>
</g>
<text text-anchor="middle" x="952.5" y="-418.5" font-family="Helvetica,sans-Serif" font-size="10.00" fill="grey"> gpio_desc_cal_sw1</text>
<text text-anchor="middle" x="952.5" y="-407.5" font-family="Helvetica,sans-Serif" font-size="10.00" fill="grey">gpio_desc_cal_sw2</text>
<text text-anchor="middle" x="952.5" y="-396.5" font-family="Helvetica,sans-Serif" font-size="10.00" fill="grey">gpio_desc_resetb</text>
<text text-anchor="middle" x="952.5" y="-385.5" font-family="Helvetica,sans-Serif" font-size="10.00" fill="grey">gpio_desc_sync</text>
</g>
<!-- Node8 -->
<g id="Node000008" class="node">
<title>Node8</title>
<g id="a_Node000008"><a xlink:href="structno__os__gpio__platform__ops.html" target="_top" xlink:title="Structure holding gpio function pointers that point to the platform specific function.">
<polygon fill="white" stroke="#666666" points="632,-426 491,-426 491,-407 632,-407 632,-426"/>
<text text-anchor="middle" x="561.5" y="-414" font-family="Helvetica,sans-Serif" font-size="10.00">no_os_gpio_platform_ops</text>
</a>
</g>
</g>
<!-- Node8&#45;&gt;Node7 -->
<g id="edge10_Node000007_Node000008" class="edge">
<title>Node8&#45;&gt;Node7</title>
<g id="a_edge10_Node000007_Node000008"><a xlink:title=" ">
<path fill="none" stroke="#9a32cd" stroke-dasharray="5,2" d="M642.17,-408.13C681.38,-404.01 727.37,-399.18 761.29,-395.62"/>
<polygon fill="#9a32cd" stroke="#9a32cd" points="641.68,-404.66 632.1,-409.19 642.41,-411.62 641.68,-404.66"/>
</a>
</g>
<text text-anchor="middle" x="684" y="-409.5" font-family="Helvetica,sans-Serif" font-size="10.00" fill="grey"> platform_ops</text>
</g>
<!-- Node9 -->
<g id="Node000009" class="node">
<title>Node9</title>
<g id="a_Node000009"><a xlink:href="structaxi__adc.html" target="_top" xlink:title="AXI ADC Device Descriptor.">
<polygon fill="white" stroke="#666666" points="838,-358 784,-358 784,-339 838,-339 838,-358"/>
<text text-anchor="middle" x="811" y="-346" font-family="Helvetica,sans-Serif" font-size="10.00">axi_adc</text>
</a>
</g>
</g>
<!-- Node9&#45;&gt;Node6 -->
<g id="edge11_Node000006_Node000009" class="edge">
<title>Node9&#45;&gt;Node6</title>
<g id="a_edge11_Node000006_Node000009"><a xlink:title=" ">
<path fill="none" stroke="#9a32cd" stroke-dasharray="5,2" d="M848.29,-349.99C886.51,-351.97 948.34,-356.35 1001,-365.5 1010.46,-367.14 1020.59,-369.52 1029.84,-371.94"/>
<polygon fill="#9a32cd" stroke="#9a32cd" points="848.32,-346.48 838.16,-349.49 847.98,-353.48 848.32,-346.48"/>
</a>
</g>
<text text-anchor="middle" x="952.5" y="-368.5" font-family="Helvetica,sans-Serif" font-size="10.00" fill="grey"> rx_adc</text>
</g>
<!-- Node10 -->
<g id="Node000010" class="node">
<title>Node10</title>
<g id="a_Node000010"><a xlink:href="structaxi__dac.html" target="_top" xlink:title="AXI DAC Device Descriptor.">
<polygon fill="white" stroke="#666666" points="838,-321 784,-321 784,-302 838,-302 838,-321"/>
<text text-anchor="middle" x="811" y="-309" font-family="Helvetica,sans-Serif" font-size="10.00">axi_dac</text>
</a>
</g>
</g>
<!-- Node10&#45;&gt;Node6 -->
<g id="edge12_Node000006_Node000010" class="edge">
<title>Node10&#45;&gt;Node6</title>
<g id="a_edge12_Node000006_Node000010"><a xlink:title=" ">
<path fill="none" stroke="#9a32cd" stroke-dasharray="5,2" d="M848.33,-312.08C887.32,-313.78 950.46,-319.72 1001,-339.5 1020.5,-347.14 1039.95,-361.93 1051.6,-371.76"/>
<polygon fill="#9a32cd" stroke="#9a32cd" points="848.13,-308.57 838,-311.7 847.87,-315.56 848.13,-308.57"/>
</a>
</g>
<text text-anchor="middle" x="952.5" y="-342.5" font-family="Helvetica,sans-Serif" font-size="10.00" fill="grey"> tx_dac</text>
</g>
<!-- Node11 -->
<g id="Node000011" class="node">
<title>Node11</title>
<g id="a_Node000011"><a xlink:href="structaxi__dac__channel.html" target="_top" xlink:title=" ">
<polygon fill="white" stroke="#666666" points="610.5,-389 512.5,-389 512.5,-370 610.5,-370 610.5,-389"/>
<text text-anchor="middle" x="561.5" y="-377" font-family="Helvetica,sans-Serif" font-size="10.00">axi_dac_channel</text>
</a>
</g>
</g>
<!-- Node11&#45;&gt;Node10 -->
<g id="edge13_Node000010_Node000011" class="edge">
<title>Node11&#45;&gt;Node10</title>
<g id="a_edge13_Node000010_Node000011"><a xlink:title=" ">
<path fill="none" stroke="#9a32cd" stroke-dasharray="5,2" d="M620.87,-382.55C651.9,-381.52 689.44,-375.81 718,-357.5 730.46,-349.52 723.95,-338.08 736,-329.5 749.89,-319.6 768.57,-315.11 783.69,-313.09"/>
<polygon fill="#9a32cd" stroke="#9a32cd" points="620.55,-379.05 610.61,-382.73 620.67,-386.05 620.55,-379.05"/>
</a>
</g>
<text text-anchor="middle" x="684" y="-382.5" font-family="Helvetica,sans-Serif" font-size="10.00" fill="grey"> channels</text>
</g>
<!-- Node12 -->
<g id="Node000012" class="node">
<title>Node12</title>
<g id="a_Node000012"><a xlink:href="structno__os__clk.html" target="_top" xlink:title=" ">
<polygon fill="white" stroke="#666666" points="843.5,-44 778.5,-44 778.5,-25 843.5,-25 843.5,-44"/>
<text text-anchor="middle" x="811" y="-32" font-family="Helvetica,sans-Serif" font-size="10.00">no_os_clk</text>
</a>
</g>
</g>
<!-- Node12&#45;&gt;Node6 -->
<g id="edge14_Node000006_Node000012" class="edge">
<title>Node12&#45;&gt;Node6</title>
<g id="a_edge14_Node000006_Node000012"><a xlink:title=" ">
<path fill="none" stroke="#9a32cd" stroke-dasharray="5,2" d="M841.58,-48.77C883.3,-70.41 959.01,-115.42 1001,-175.5 1046.76,-240.97 1058.99,-340.93 1061.77,-371.97"/>
<polygon fill="#9a32cd" stroke="#9a32cd" points="842.98,-45.56 832.48,-44.15 839.81,-51.8 842.98,-45.56"/>
</a>
</g>
<text text-anchor="middle" x="952.5" y="-189.5" font-family="Helvetica,sans-Serif" font-size="10.00" fill="grey"> clk_refin</text>
<text text-anchor="middle" x="952.5" y="-178.5" font-family="Helvetica,sans-Serif" font-size="10.00" fill="grey">clks</text>
</g>
<!-- Node13 -->
<g id="Node000013" class="node">
<title>Node13</title>
<g id="a_Node000013"><a xlink:href="structno__os__clk__hw.html" target="_top" xlink:title=" ">
<polygon fill="white" stroke="#666666" points="1105.5,-44 1021.5,-44 1021.5,-25 1105.5,-25 1105.5,-44"/>
<text text-anchor="middle" x="1063.5" y="-32" font-family="Helvetica,sans-Serif" font-size="10.00">no_os_clk_hw</text>
</a>
</g>
</g>
<!-- Node12&#45;&gt;Node13 -->
<g id="edge16_Node000013_Node000012" class="edge">
<title>Node12&#45;&gt;Node13</title>
<g id="a_edge16_Node000013_Node000012"><a xlink:title=" ">
<path fill="none" stroke="#9a32cd" stroke-dasharray="5,2" d="M853.79,-34.5C900.37,-34.5 975.22,-34.5 1021.49,-34.5"/>
<polygon fill="#9a32cd" stroke="#9a32cd" points="853.73,-31 843.73,-34.5 853.73,-38 853.73,-31"/>
</a>
</g>
<text text-anchor="middle" x="952.5" y="-37.5" font-family="Helvetica,sans-Serif" font-size="10.00" fill="grey"> clk</text>
</g>
<!-- Node13&#45;&gt;Node12 -->
<g id="edge15_Node000012_Node000013" class="edge">
<title>Node13&#45;&gt;Node12</title>
<g id="a_edge15_Node000012_Node000013"><a xlink:title=" ">
<path fill="none" stroke="#9a32cd" stroke-dasharray="5,2" d="M1022.15,-22.45C1015.16,-20.81 1007.91,-19.38 1001,-18.5 958.24,-13.03 946.95,-14.79 904,-18.5 883.81,-20.24 861.4,-24.1 843.76,-27.59"/>
<polygon fill="#9a32cd" stroke="#9a32cd" points="1021.59,-25.92 1032.14,-24.97 1023.3,-19.13 1021.59,-25.92"/>
</a>
</g>
<text text-anchor="middle" x="952.5" y="-21.5" font-family="Helvetica,sans-Serif" font-size="10.00" fill="grey"> hw</text>
</g>
<!-- Node14 -->
<g id="Node000014" class="node">
<title>Node14</title>
<g id="a_Node000014"><a xlink:href="structno__os__clk__desc.html" target="_top" xlink:title="Structure holding CLK descriptor.">
<polygon fill="white" stroke="#666666" points="607.5,-19 515.5,-19 515.5,0 607.5,0 607.5,-19"/>
<text text-anchor="middle" x="561.5" y="-7" font-family="Helvetica,sans-Serif" font-size="10.00">no_os_clk_desc</text>
</a>
</g>
</g>
<!-- Node14&#45;&gt;Node12 -->
<g id="edge17_Node000012_Node000014" class="edge">
<title>Node14&#45;&gt;Node12</title>
<g id="a_edge17_Node000012_Node000014"><a xlink:title=" ">
<path fill="none" stroke="#9a32cd" stroke-dasharray="5,2" d="M617.79,-8.26C647.59,-8.26 684.92,-9.34 718,-13.5 738.32,-16.05 760.73,-21.12 778.34,-25.64"/>
<polygon fill="#9a32cd" stroke="#9a32cd" points="617.57,-4.76 607.59,-8.3 617.6,-11.76 617.57,-4.76"/>
</a>
</g>
<text text-anchor="middle" x="684" y="-16.5" font-family="Helvetica,sans-Serif" font-size="10.00" fill="grey"> clk_desc</text>
</g>
<!-- Node15 -->
<g id="Node000015" class="node">
<title>Node15</title>
<g id="a_Node000015"><a xlink:href="structno__os__clk__platform__ops.html" target="_top" xlink:title="Structure holding CLK function pointers that point to the platform specific function.">
<polygon fill="white" stroke="#666666" points="372,-19 238,-19 238,0 372,0 372,-19"/>
<text text-anchor="middle" x="305" y="-7" font-family="Helvetica,sans-Serif" font-size="10.00">no_os_clk_platform_ops</text>
</a>
</g>
</g>
<!-- Node15&#45;&gt;Node14 -->
<g id="edge18_Node000014_Node000015" class="edge">
<title>Node15&#45;&gt;Node14</title>
<g id="a_edge18_Node000014_Node000015"><a xlink:title=" ">
<path fill="none" stroke="#9a32cd" stroke-dasharray="5,2" d="M382.45,-9.5C425.84,-9.5 478.68,-9.5 515.47,-9.5"/>
<polygon fill="#9a32cd" stroke="#9a32cd" points="382.2,-6 372.2,-9.5 382.2,-13 382.2,-6"/>
</a>
</g>
<text text-anchor="middle" x="431.5" y="-12.5" font-family="Helvetica,sans-Serif" font-size="10.00" fill="grey"> platform_ops</text>
</g>
<!-- Node16 -->
<g id="Node000016" class="node">
<title>Node16</title>
<g id="a_Node000016"><a xlink:href="structad9361__phy__platform__data.html" target="_top" xlink:title=" ">
<polygon fill="white" stroke="#666666" points="886,-241 736,-241 736,-222 886,-222 886,-241"/>
<text text-anchor="middle" x="811" y="-229" font-family="Helvetica,sans-Serif" font-size="10.00">ad9361_phy_platform_data</text>
</a>
</g>
</g>
<!-- Node16&#45;&gt;Node6 -->
<g id="edge20_Node000006_Node000016" class="edge">
<title>Node16&#45;&gt;Node6</title>
<g id="a_edge20_Node000006_Node000016"><a xlink:title=" ">
<path fill="none" stroke="#9a32cd" stroke-dasharray="5,2" d="M867.23,-243.66C907.17,-254.39 960.92,-273.01 1001,-302.5 1027.32,-321.87 1048.15,-355.39 1057.36,-371.84"/>
<polygon fill="#9a32cd" stroke="#9a32cd" points="867.96,-240.23 857.4,-241.1 866.19,-247 867.96,-240.23"/>
</a>
</g>
<text text-anchor="middle" x="952.5" y="-305.5" font-family="Helvetica,sans-Serif" font-size="10.00" fill="grey"> pdata</text>
</g>
<!-- Node17 -->
<g id="Node000017" class="node">
<title>Node17</title>
<g id="a_Node000017"><a xlink:href="structgain__control.html" target="_top" xlink:title=" ">
<polygon fill="white" stroke="#666666" points="600,-167 523,-167 523,-148 600,-148 600,-167"/>
<text text-anchor="middle" x="561.5" y="-155" font-family="Helvetica,sans-Serif" font-size="10.00">gain_control</text>
</a>
</g>
</g>
<!-- Node17&#45;&gt;Node16 -->
<g id="edge21_Node000016_Node000017" class="edge">
<title>Node17&#45;&gt;Node16</title>
<g id="a_edge21_Node000016_Node000017"><a xlink:title=" ">
<path fill="none" stroke="#9a32cd" stroke-dasharray="5,2" d="M610.11,-160.65C642.4,-164.53 685.03,-173.2 718,-192.5 728.32,-198.54 725.77,-206.3 736,-212.5 742.35,-216.35 749.47,-219.42 756.71,-221.88"/>
<polygon fill="#9a32cd" stroke="#9a32cd" points="610.34,-157.15 600.02,-159.55 609.58,-164.11 610.34,-157.15"/>
</a>
</g>
<text text-anchor="middle" x="684" y="-195.5" font-family="Helvetica,sans-Serif" font-size="10.00" fill="grey"> gain_ctrl</text>
</g>
<!-- Node18 -->
<g id="Node000018" class="node">
<title>Node18</title>
<g id="a_Node000018"><a xlink:href="structrssi__control.html" target="_top" xlink:title=" ">
<polygon fill="white" stroke="#666666" points="598,-130 525,-130 525,-111 598,-111 598,-130"/>
<text text-anchor="middle" x="561.5" y="-118" font-family="Helvetica,sans-Serif" font-size="10.00">rssi_control</text>
</a>
</g>
</g>
<!-- Node18&#45;&gt;Node16 -->
<g id="edge22_Node000016_Node000018" class="edge">
<title>Node18&#45;&gt;Node16</title>
<g id="a_edge22_Node000016_Node000018"><a xlink:title=" ">
<path fill="none" stroke="#9a32cd" stroke-dasharray="5,2" d="M608.54,-118.49C642.82,-119.51 688.59,-126.55 718,-153.5 738.21,-172.02 716.19,-193.55 736,-212.5 740.03,-216.35 744.72,-219.45 749.76,-221.94"/>
<polygon fill="#9a32cd" stroke="#9a32cd" points="608.34,-114.99 598.3,-118.35 608.25,-121.99 608.34,-114.99"/>
</a>
</g>
<text text-anchor="middle" x="684" y="-156.5" font-family="Helvetica,sans-Serif" font-size="10.00" fill="grey"> rssi_ctrl</text>
</g>
<!-- Node19 -->
<g id="Node000019" class="node">
<title>Node19</title>
<g id="a_Node000019"><a xlink:href="structport__control.html" target="_top" xlink:title=" ">
<polygon fill="white" stroke="#666666" points="599,-93 524,-93 524,-74 599,-74 599,-93"/>
<text text-anchor="middle" x="561.5" y="-81" font-family="Helvetica,sans-Serif" font-size="10.00">port_control</text>
</a>
</g>
</g>
<!-- Node19&#45;&gt;Node16 -->
<g id="edge23_Node000016_Node000019" class="edge">
<title>Node19&#45;&gt;Node16</title>
<g id="a_edge23_Node000016_Node000019"><a xlink:title=" ">
<path fill="none" stroke="#9a32cd" stroke-dasharray="5,2" d="M609.6,-77.78C644.23,-76.37 689.97,-80.81 718,-108.5 751.37,-141.47 704.18,-178.03 736,-212.5 739.51,-216.3 743.67,-219.38 748.19,-221.88"/>
<polygon fill="#9a32cd" stroke="#9a32cd" points="609.02,-74.31 599.24,-78.39 609.42,-81.3 609.02,-74.31"/>
</a>
</g>
<text text-anchor="middle" x="684" y="-111.5" font-family="Helvetica,sans-Serif" font-size="10.00" fill="grey"> port_ctrl</text>
</g>
<!-- Node20 -->
<g id="Node000020" class="node">
<title>Node20</title>
<g id="a_Node000020"><a xlink:href="structctrl__outs__control.html" target="_top" xlink:title=" ">
<polygon fill="white" stroke="#666666" points="610.5,-56 512.5,-56 512.5,-37 610.5,-37 610.5,-56"/>
<text text-anchor="middle" x="561.5" y="-44" font-family="Helvetica,sans-Serif" font-size="10.00">ctrl_outs_control</text>
</a>
</g>
</g>
<!-- Node20&#45;&gt;Node16 -->
<g id="edge24_Node000016_Node000020" class="edge">
<title>Node20&#45;&gt;Node16</title>
<g id="a_edge24_Node000016_Node000020"><a xlink:title=" ">
<path fill="none" stroke="#9a32cd" stroke-dasharray="5,2" d="M620.53,-37.17C653.49,-35.36 693.02,-39.67 718,-64.5 764.99,-111.22 692.3,-162.69 736,-212.5 739.32,-216.29 743.29,-219.37 747.64,-221.87"/>
<polygon fill="#9a32cd" stroke="#9a32cd" points="620.25,-33.68 610.54,-37.91 620.77,-40.66 620.25,-33.68"/>
</a>
</g>
<text text-anchor="middle" x="684" y="-67.5" font-family="Helvetica,sans-Serif" font-size="10.00" fill="grey"> ctrl_outs_ctrl</text>
</g>
<!-- Node21 -->
<g id="Node000021" class="node">
<title>Node21</title>
<g id="a_Node000021"><a xlink:href="structelna__control.html" target="_top" xlink:title=" ">
<polygon fill="white" stroke="#666666" points="600,-352 523,-352 523,-333 600,-333 600,-352"/>
<text text-anchor="middle" x="561.5" y="-340" font-family="Helvetica,sans-Serif" font-size="10.00">elna_control</text>
</a>
</g>
</g>
<!-- Node21&#45;&gt;Node16 -->
<g id="edge25_Node000016_Node000021" class="edge">
<title>Node21&#45;&gt;Node16</title>
<g id="a_edge25_Node000016_Node000021"><a xlink:title=" ">
<path fill="none" stroke="#9a32cd" stroke-dasharray="5,2" d="M610.1,-336.32C641.86,-330.9 683.88,-321.2 718,-304.5 726.93,-300.13 775.63,-260.06 798.34,-241.21"/>
<polygon fill="#9a32cd" stroke="#9a32cd" points="609.49,-332.87 600.18,-337.93 610.61,-339.78 609.49,-332.87"/>
</a>
</g>
<text text-anchor="middle" x="684" y="-331.5" font-family="Helvetica,sans-Serif" font-size="10.00" fill="grey"> elna_ctrl</text>
</g>
<!-- Node22 -->
<g id="Node000022" class="node">
<title>Node22</title>
<g id="a_Node000022"><a xlink:href="structauxadc__control.html" target="_top" xlink:title=" ">
<polygon fill="white" stroke="#666666" points="607,-315 516,-315 516,-296 607,-296 607,-315"/>
<text text-anchor="middle" x="561.5" y="-303" font-family="Helvetica,sans-Serif" font-size="10.00">auxadc_control</text>
</a>
</g>
</g>
<!-- Node22&#45;&gt;Node16 -->
<g id="edge26_Node000016_Node000022" class="edge">
<title>Node22&#45;&gt;Node16</title>
<g id="a_edge26_Node000016_Node000022"><a xlink:title=" ">
<path fill="none" stroke="#9a32cd" stroke-dasharray="5,2" d="M616.92,-296.3C647.09,-290.53 685.04,-282.15 718,-271.5 744.02,-263.09 772.73,-249.95 791.04,-241.05"/>
<polygon fill="#9a32cd" stroke="#9a32cd" points="616.2,-292.87 607.01,-298.15 617.48,-299.75 616.2,-292.87"/>
</a>
</g>
<text text-anchor="middle" x="684" y="-292.5" font-family="Helvetica,sans-Serif" font-size="10.00" fill="grey"> auxadc_ctrl</text>
</g>
<!-- Node23 -->
<g id="Node000023" class="node">
<title>Node23</title>
<g id="a_Node000023"><a xlink:href="structauxdac__control.html" target="_top" xlink:title=" ">
<polygon fill="white" stroke="#666666" points="607,-278 516,-278 516,-259 607,-259 607,-278"/>
<text text-anchor="middle" x="561.5" y="-266" font-family="Helvetica,sans-Serif" font-size="10.00">auxdac_control</text>
</a>
</g>
</g>
<!-- Node23&#45;&gt;Node16 -->
<g id="edge27_Node000016_Node000023" class="edge">
<title>Node23&#45;&gt;Node16</title>
<g id="a_edge27_Node000016_Node000023"><a xlink:title=" ">
<path fill="none" stroke="#9a32cd" stroke-dasharray="5,2" d="M617.31,-261.03C647.11,-256.9 684.61,-251.58 718,-246.5 729.2,-244.79 741.15,-242.9 752.61,-241.05"/>
<polygon fill="#9a32cd" stroke="#9a32cd" points="616.54,-257.61 607.11,-262.44 617.5,-264.54 616.54,-257.61"/>
</a>
</g>
<text text-anchor="middle" x="684" y="-259.5" font-family="Helvetica,sans-Serif" font-size="10.00" fill="grey"> auxdac_ctrl</text>
</g>
<!-- Node24 -->
<g id="Node000024" class="node">
<title>Node24</title>
<g id="a_Node000024"><a xlink:href="structgpo__control.html" target="_top" xlink:title=" ">
<polygon fill="white" stroke="#666666" points="598.5,-241 524.5,-241 524.5,-222 598.5,-222 598.5,-241"/>
<text text-anchor="middle" x="561.5" y="-229" font-family="Helvetica,sans-Serif" font-size="10.00">gpo_control</text>
</a>
</g>
</g>
<!-- Node24&#45;&gt;Node16 -->
<g id="edge28_Node000016_Node000024" class="edge">
<title>Node24&#45;&gt;Node16</title>
<g id="a_edge28_Node000016_Node000024"><a xlink:title=" ">
<path fill="none" stroke="#9a32cd" stroke-dasharray="5,2" d="M608.88,-231.5C644.56,-231.5 694.58,-231.5 735.81,-231.5"/>
<polygon fill="#9a32cd" stroke="#9a32cd" points="608.75,-228 598.75,-231.5 608.75,-235 608.75,-228"/>
</a>
</g>
<text text-anchor="middle" x="684" y="-234.5" font-family="Helvetica,sans-Serif" font-size="10.00" fill="grey"> gpo_ctrl</text>
</g>
<!-- Node25 -->
<g id="Node000025" class="node">
<title>Node25</title>
<g id="a_Node000025"><a xlink:href="structtx__monitor__control.html" target="_top" xlink:title=" ">
<polygon fill="white" stroke="#666666" points="616,-204 507,-204 507,-185 616,-185 616,-204"/>
<text text-anchor="middle" x="561.5" y="-192" font-family="Helvetica,sans-Serif" font-size="10.00">tx_monitor_control</text>
</a>
</g>
</g>
<!-- Node25&#45;&gt;Node16 -->
<g id="edge29_Node000016_Node000025" class="edge">
<title>Node25&#45;&gt;Node16</title>
<g id="a_edge29_Node000016_Node000025"><a xlink:title=" ">
<path fill="none" stroke="#9a32cd" stroke-dasharray="5,2" d="M626.27,-203.21C654.41,-207.14 687.87,-211.91 718,-216.5 729.2,-218.21 741.15,-220.1 752.61,-221.95"/>
<polygon fill="#9a32cd" stroke="#9a32cd" points="626.54,-199.72 616.16,-201.81 625.58,-206.65 626.54,-199.72"/>
</a>
</g>
<text text-anchor="middle" x="684" y="-219.5" font-family="Helvetica,sans-Serif" font-size="10.00" fill="grey"> txmon_ctrl</text>
</g>
<!-- Node26 -->
<g id="Node000026" class="node">
<title>Node26</title>
<g id="a_Node000026"><a xlink:href="structgain__table__info.html" target="_top" xlink:title=" ">
<polygon fill="white" stroke="#666666" points="857,-204 765,-204 765,-185 857,-185 857,-204"/>
<text text-anchor="middle" x="811" y="-192" font-family="Helvetica,sans-Serif" font-size="10.00">gain_table_info</text>
</a>
</g>
</g>
<!-- Node26&#45;&gt;Node6 -->
<g id="edge30_Node000006_Node000026" class="edge">
<title>Node26&#45;&gt;Node6</title>
<g id="a_edge30_Node000006_Node000026"><a xlink:title=" ">
<path fill="none" stroke="#9a32cd" stroke-dasharray="5,2" d="M867.29,-195.54C908.46,-199.08 963.75,-210 1001,-241.5 1042.96,-276.98 1057.27,-346.62 1061.22,-371.98"/>
<polygon fill="#9a32cd" stroke="#9a32cd" points="867.38,-192.04 857.15,-194.8 866.86,-199.02 867.38,-192.04"/>
</a>
</g>
<text text-anchor="middle" x="952.5" y="-244.5" font-family="Helvetica,sans-Serif" font-size="10.00" fill="grey"> gt_info</text>
</g>
<!-- Node27 -->
<g id="Node000027" class="node">
<title>Node27</title>
<g id="a_Node000027"><a xlink:href="structad9361__fastlock.html" target="_top" xlink:title=" ">
<polygon fill="white" stroke="#666666" points="859.5,-587 762.5,-587 762.5,-568 859.5,-568 859.5,-587"/>
<text text-anchor="middle" x="811" y="-575" font-family="Helvetica,sans-Serif" font-size="10.00">ad9361_fastlock</text>
</a>
</g>
</g>
<!-- Node27&#45;&gt;Node6 -->
<g id="edge31_Node000006_Node000027" class="edge">
<title>Node27&#45;&gt;Node6</title>
<g id="a_edge31_Node000006_Node000027"><a xlink:title=" ">
<path fill="none" stroke="#9a32cd" stroke-dasharray="5,2" d="M869.72,-584.61C910.64,-586.43 964.54,-581.9 1001,-552.5 1053.07,-510.52 1061.07,-420.8 1062.29,-391.2"/>
<polygon fill="#9a32cd" stroke="#9a32cd" points="869.8,-581.11 859.61,-584.02 869.39,-588.1 869.8,-581.11"/>
</a>
</g>
<text text-anchor="middle" x="952.5" y="-586.5" font-family="Helvetica,sans-Serif" font-size="10.00" fill="grey"> fastlock</text>
</g>
<!-- Node28 -->
<g id="Node000028" class="node">
<title>Node28</title>
<g id="a_Node000028"><a xlink:href="structad9361__fastlock__entry.html" target="_top" xlink:title=" ">
<polygon fill="white" stroke="#666666" points="625.5,-587 497.5,-587 497.5,-568 625.5,-568 625.5,-587"/>
<text text-anchor="middle" x="561.5" y="-575" font-family="Helvetica,sans-Serif" font-size="10.00">ad9361_fastlock_entry</text>
</a>
</g>
</g>
<!-- Node28&#45;&gt;Node27 -->
<g id="edge32_Node000027_Node000028" class="edge">
<title>Node28&#45;&gt;Node27</title>
<g id="a_edge32_Node000027_Node000028"><a xlink:title=" ">
<path fill="none" stroke="#9a32cd" stroke-dasharray="5,2" d="M635.78,-577.5C676.66,-577.5 726.41,-577.5 762.26,-577.5"/>
<polygon fill="#9a32cd" stroke="#9a32cd" points="635.6,-574 625.6,-577.5 635.6,-581 635.6,-574"/>
</a>
</g>
<text text-anchor="middle" x="684" y="-580.5" font-family="Helvetica,sans-Serif" font-size="10.00" fill="grey"> entry</text>
</g>
<!-- Node29 -->
<g id="Node000029" class="node">
<title>Node29</title>
<g id="a_Node000029"><a xlink:href="structaxiadc__converter.html" target="_top" xlink:title=" ">
<polygon fill="white" stroke="#666666" points="861.5,-550 760.5,-550 760.5,-531 861.5,-531 861.5,-550"/>
<text text-anchor="middle" x="811" y="-538" font-family="Helvetica,sans-Serif" font-size="10.00">axiadc_converter</text>
</a>
</g>
</g>
<!-- Node29&#45;&gt;Node6 -->
<g id="edge33_Node000006_Node000029" class="edge">
<title>Node29&#45;&gt;Node6</title>
<g id="a_edge33_Node000006_Node000029"><a xlink:title=" ">
<path fill="none" stroke="#9a32cd" stroke-dasharray="5,2" d="M872.11,-539.48C919.57,-537.55 981.02,-532.18 1001,-517.5 1044.23,-485.74 1057.76,-416.42 1061.35,-391.05"/>
<polygon fill="#9a32cd" stroke="#9a32cd" points="871.77,-535.99 861.91,-539.86 872.03,-542.99 871.77,-535.99"/>
</a>
</g>
<text text-anchor="middle" x="952.5" y="-540.5" font-family="Helvetica,sans-Serif" font-size="10.00" fill="grey"> adc_conv</text>
</g>
<!-- Node30 -->
<g id="Node000030" class="node">
<title>Node30</title>
<g id="a_Node000030"><a xlink:href="structaxiadc__chip__info.html" target="_top" xlink:title=" ">
<polygon fill="white" stroke="#666666" points="610.5,-550 512.5,-550 512.5,-531 610.5,-531 610.5,-550"/>
<text text-anchor="middle" x="561.5" y="-538" font-family="Helvetica,sans-Serif" font-size="10.00">axiadc_chip_info</text>
</a>
</g>
</g>
<!-- Node30&#45;&gt;Node29 -->
<g id="edge34_Node000029_Node000030" class="edge">
<title>Node30&#45;&gt;Node29</title>
<g id="a_edge34_Node000029_Node000030"><a xlink:title=" ">
<path fill="none" stroke="#9a32cd" stroke-dasharray="5,2" d="M620.71,-540.5C663.17,-540.5 720.12,-540.5 760.42,-540.5"/>
<polygon fill="#9a32cd" stroke="#9a32cd" points="620.51,-537 610.51,-540.5 620.51,-544 620.51,-537"/>
</a>
</g>
<text text-anchor="middle" x="684" y="-543.5" font-family="Helvetica,sans-Serif" font-size="10.00" fill="grey"> chip_info</text>
</g>
<!-- Node31&#45;&gt;Node6 -->
<g id="edge35_Node000006_Node000031" class="edge">
<title>Node31&#45;&gt;Node6</title>
<g id="a_edge35_Node000006_Node000031"><a xlink:title=" ">
<path fill="none" stroke="#9a32cd" stroke-dasharray="5,2" d="M1195.58,-369.22C1189.43,-367.68 1183.08,-366.34 1177,-365.5 1154.55,-362.38 1148.48,-362.62 1126,-365.5 1115.71,-366.82 1104.69,-369.32 1094.86,-371.97"/>
<polygon fill="#9a32cd" stroke="#9a32cd" points="1195.09,-372.72 1205.66,-371.97 1196.94,-365.96 1195.09,-372.72"/>
</a>
</g>
<text text-anchor="middle" x="1151.5" y="-368.5" font-family="Helvetica,sans-Serif" font-size="10.00" fill="grey"> adc_state</text>
</g>
</g>
</svg>

<g id="navigator" transform="translate(0 0)" fill="#404254">
  <rect fill="#f2f5e9" fill-opacity="0.5" stroke="#606060" stroke-width=".5" x="0" y="0" width="60" height="60"/>
  <use id="zoomplus" xlink:href="#zoomPlus" x="17" y="9" onmousedown="handleZoom(evt,'in')"/>
  <use id="zoomminus" xlink:href="#zoomMin" x="42" y="9" onmousedown="handleZoom(evt,'out')"/>
  <use id="reset" xlink:href="#resetDef" x="30" y="36" onmousedown="handleReset()"/>
   <use id="arrowup" xlink:href="#arrowUp" x="0" y="0" onmousedown="handlePan(0,-1)"/>
  <use id="arrowright" xlink:href="#arrowRight" x="0" y="0" onmousedown="handlePan(1,0)"/>
  <use id="arrowdown" xlink:href="#arrowDown" x="0" y="0" onmousedown="handlePan(0,1)"/>
  <use id="arrowleft" xlink:href="#arrowLeft" x="0" y="0" onmousedown="handlePan(-1,0)"/>
</g>
<svg viewBox="0 0 15 15" width="100%" height="30px" preserveAspectRatio="xMaxYMin meet">
 <g id="arrow_out" transform="scale(0.3 0.3)">
  <a xlink:href="structrefclk__scale__coll__graph_org.svg" target="_base">
   <rect id="button" ry="5" rx="5" y="6" x="6" height="38" width="38"
        fill="#f2f5e9" fill-opacity="0.5" stroke="#606060" stroke-width="1.0"/>
   <path id="arrow"
     d="M 11.500037,31.436501 C 11.940474,20.09759 22.043105,11.32322 32.158766,21.979434 L 37.068811,17.246167 C 37.068811,17.246167 37.088388,32 37.088388,32 L 22.160133,31.978069 C 22.160133,31.978069 26.997745,27.140456 26.997745,27.140456 C 18.528582,18.264221 13.291696,25.230495 11.500037,31.436501 z"
     style="fill:#404040;"/>
  </a>
 </g>
</svg>

<style type='text/css'>
<![CDATA[
[data-mouse-over-selected='false'] { opacity: 0.7; }
[data-mouse-over-selected='true']  { opacity: 1.0; }
]]>
</style>
<script type="application/ecmascript"><![CDATA[
document.addEventListener('DOMContentLoaded', (event) => {
  highlightEdges();
  highlightAdjacentNodes();
});
]]></script>
</svg>
