<?xml version="1.0" encoding="UTF-8" standalone="no"?>
<!DOCTYPE svg PUBLIC "-//W3C//DTD SVG 1.1//EN"
 "http://www.w3.org/Graphics/SVG/1.1/DTD/svg11.dtd">
<!-- Generated by graphviz version 2.43.0 (0)
 -->
<!-- Title: ad9172_state Pages: 1 -->
<!--zoomable 265 -->

<svg id="main" version="1.1" xmlns="http://www.w3.org/2000/svg" xmlns:xlink="http://www.w3.org/1999/xlink" xml:space="preserve" onload="init(evt)">

<style type="text/css"><![CDATA[
.node, .edge {opacity: 0.7;}
.node.selected, .edge.selected {opacity: 1;}
.edge:hover path { stroke: red; }
.edge:hover polygon { stroke: red; fill: red; }
]]></style>

<defs>
  <circle id="rim" cx="0" cy="0" r="7"/>
  <circle id="rim2" cx="0" cy="0" r="3.5"/>
  <g id="zoomPlus">
    <use xlink:href="#rim" fill="#404040"><set attributeName="fill" to="#808080" begin="zoomplus.mouseover" end="zoomplus.mouseout"/></use>
    <path d="M-4,0h8M0,-4v8" fill="none" stroke="white" stroke-width="1.5" pointer-events="none"/>
  </g>
  <g id="zoomMin">
    <use xlink:href="#rim" fill="#404040"><set attributeName="fill" to="#808080" begin="zoomminus.mouseover" end="zoomminus.mouseout"/></use>
    <path d="M-4,0h8" fill="none" stroke="white" stroke-width="1.5" pointer-events="none"/>
  </g>
  <g id="arrowUp" transform="translate(30 24)">
    <use xlink:href="#rim"/>
    <path pointer-events="none" fill="none" stroke="white" stroke-width="1.5" d="M0,-3.0v7 M-2.5,-0.5L0,-3.0L2.5,-0.5"/>
  </g>
  <g id="arrowRight" transform="rotate(90) translate(36 -43)">
    <use xlink:href="#rim"/>
    <path pointer-events="none" fill="none" stroke="white" stroke-width="1.5" d="M0,-3.0v7 M-2.5,-0.5L0,-3.0L2.5,-0.5"/>
  </g>
  <g id="arrowDown" transform="rotate(180) translate(-30 -48)">
    <use xlink:href="#rim"/>
    <path pointer-events="none" fill="none" stroke="white" stroke-width="1.5" d="M0,-3.0v7 M-2.5,-0.5L0,-3.0L2.5,-0.5"/>
  </g>
  <g id="arrowLeft" transform="rotate(270) translate(-36 17)">
    <use xlink:href="#rim"/>
    <path pointer-events="none" fill="none" stroke="white" stroke-width="1.5" d="M0,-3.0v7 M-2.5,-0.5L0,-3.0L2.5,-0.5"/>
  </g>
  <g id="resetDef">
    <use xlink:href="#rim2" fill="#404040"><set attributeName="fill" to="#808080" begin="reset.mouseover" end="reset.mouseout"/></use>
  </g>
</defs>
<script type="application/ecmascript">
var viewWidth = 772;
var viewHeight = 265;
var sectionId = 'dynsection-0';
</script>
<script type="application/ecmascript" xlink:href="svg.min.js"/>
<svg id="graph" class="graph">
<g id="viewport">
<title>ad9172_state</title>
<!-- Node1 -->
<g id="Node000001" class="node">
<title>Node1</title>
<g id="a_Node000001"><a xlink:title=" ">
<polygon fill="#999999" stroke="#666666" points="589,-68 506,-68 506,-49 589,-49 589,-68"/>
<text text-anchor="middle" x="547.5" y="-56" font-family="Helvetica,sans-Serif" font-size="10.00">ad9172_state</text>
</a>
</g>
</g>
<!-- Node6 -->
<g id="Node000006" class="node">
<title>Node6</title>
<g id="a_Node000006"><a xlink:href="structad9172__dev.html" target="_top" xlink:title=" ">
<polygon fill="white" stroke="#666666" points="764,-119 688,-119 688,-100 764,-100 764,-119"/>
<text text-anchor="middle" x="726" y="-107" font-family="Helvetica,sans-Serif" font-size="10.00">ad9172_dev</text>
</a>
</g>
</g>
<!-- Node1&#45;&gt;Node6 -->
<g id="edge14_Node000006_Node000001" class="edge">
<title>Node1&#45;&gt;Node6</title>
<g id="a_edge14_Node000006_Node000001"><a xlink:title=" ">
<path fill="none" stroke="#9a32cd" stroke-dasharray="5,2" d="M591.36,-70.88C622.32,-79.83 663.52,-91.74 691.95,-99.95"/>
<polygon fill="#9a32cd" stroke="#9a32cd" points="592.28,-67.51 581.7,-68.09 590.33,-74.23 592.28,-67.51"/>
</a>
</g>
<text text-anchor="middle" x="642.5" y="-95.5" font-family="Helvetica,sans-Serif" font-size="10.00" fill="grey"> st</text>
</g>
<!-- Node2 -->
<g id="Node000002" class="node">
<title>Node2</title>
<g id="a_Node000002"><a xlink:href="structad917x__handle__t.html" target="_top" xlink:title=" ">
<polygon fill="white" stroke="#666666" points="358.5,-99 258.5,-99 258.5,-80 358.5,-80 358.5,-99"/>
<text text-anchor="middle" x="308.5" y="-87" font-family="Helvetica,sans-Serif" font-size="10.00">ad917x_handle_t</text>
</a>
</g>
</g>
<!-- Node2&#45;&gt;Node1 -->
<g id="edge1_Node000001_Node000002" class="edge">
<title>Node2&#45;&gt;Node1</title>
<g id="a_edge1_Node000001_Node000002"><a xlink:title=" ">
<path fill="none" stroke="#9a32cd" stroke-dasharray="5,2" d="M369.07,-81.91C401.81,-77.71 443.16,-72.37 480,-67.5 488.32,-66.4 497.21,-65.21 505.71,-64.06"/>
<polygon fill="#9a32cd" stroke="#9a32cd" points="368.23,-78.48 358.75,-83.23 369.12,-85.43 368.23,-78.48"/>
</a>
</g>
<text text-anchor="middle" x="438.5" y="-80.5" font-family="Helvetica,sans-Serif" font-size="10.00" fill="grey"> dac_h</text>
</g>
<!-- Node3 -->
<g id="Node000003" class="node">
<title>Node3</title>
<g id="a_Node000003"><a xlink:href="structjesd__param__t.html" target="_top" xlink:title=" ">
<polygon fill="white" stroke="#666666" points="350,-62 267,-62 267,-43 350,-43 350,-62"/>
<text text-anchor="middle" x="308.5" y="-50" font-family="Helvetica,sans-Serif" font-size="10.00">jesd_param_t</text>
</a>
</g>
</g>
<!-- Node3&#45;&gt;Node1 -->
<g id="edge2_Node000001_Node000003" class="edge">
<title>Node3&#45;&gt;Node1</title>
<g id="a_edge2_Node000001_Node000003"><a xlink:title=" ">
<path fill="none" stroke="#9a32cd" stroke-dasharray="5,2" d="M360.28,-53.6C394.18,-54.36 439.76,-55.42 480,-56.5 488.31,-56.72 497.21,-56.98 505.71,-57.23"/>
<polygon fill="#9a32cd" stroke="#9a32cd" points="360.23,-50.1 350.15,-53.38 360.07,-57.1 360.23,-50.1"/>
</a>
</g>
<text text-anchor="middle" x="438.5" y="-59.5" font-family="Helvetica,sans-Serif" font-size="10.00" fill="grey"> appJesdConfig</text>
</g>
<!-- Node4 -->
<g id="Node000004" class="node">
<title>Node4</title>
<g id="a_Node000004"><a xlink:href="structno__os__clk__desc.html" target="_top" xlink:title="Structure holding CLK descriptor.">
<polygon fill="white" stroke="#666666" points="354.5,-19 262.5,-19 262.5,0 354.5,0 354.5,-19"/>
<text text-anchor="middle" x="308.5" y="-7" font-family="Helvetica,sans-Serif" font-size="10.00">no_os_clk_desc</text>
</a>
</g>
</g>
<!-- Node4&#45;&gt;Node1 -->
<g id="edge3_Node000001_Node000004" class="edge">
<title>Node4&#45;&gt;Node1</title>
<g id="a_edge3_Node000001_Node000004"><a xlink:title=" ">
<path fill="none" stroke="#9a32cd" stroke-dasharray="5,2" d="M364.87,-11.3C398.64,-13.46 442.38,-18.2 480,-28.5 497.47,-33.29 516.17,-42.09 529.28,-48.92"/>
<polygon fill="#9a32cd" stroke="#9a32cd" points="364.92,-7.79 354.73,-10.7 364.51,-14.78 364.92,-7.79"/>
</a>
</g>
<text text-anchor="middle" x="438.5" y="-42.5" font-family="Helvetica,sans-Serif" font-size="10.00" fill="grey"> clk_data</text>
<text text-anchor="middle" x="438.5" y="-31.5" font-family="Helvetica,sans-Serif" font-size="10.00" fill="grey">dac_clk</text>
</g>
<!-- Node5 -->
<g id="Node000005" class="node">
<title>Node5</title>
<g id="a_Node000005"><a xlink:href="structno__os__clk__platform__ops.html" target="_top" xlink:title="Structure holding CLK function pointers that point to the platform specific function.">
<polygon fill="white" stroke="#666666" points="134,-19 0,-19 0,0 134,0 134,-19"/>
<text text-anchor="middle" x="67" y="-7" font-family="Helvetica,sans-Serif" font-size="10.00">no_os_clk_platform_ops</text>
</a>
</g>
</g>
<!-- Node5&#45;&gt;Node4 -->
<g id="edge4_Node000004_Node000005" class="edge">
<title>Node5&#45;&gt;Node4</title>
<g id="a_edge4_Node000004_Node000005"><a xlink:title=" ">
<path fill="none" stroke="#9a32cd" stroke-dasharray="5,2" d="M144.33,-9.5C183.25,-9.5 229.24,-9.5 262.46,-9.5"/>
<polygon fill="#9a32cd" stroke="#9a32cd" points="144.08,-6 134.08,-9.5 144.08,-13 144.08,-6"/>
</a>
</g>
<text text-anchor="middle" x="186" y="-12.5" font-family="Helvetica,sans-Serif" font-size="10.00" fill="grey"> platform_ops</text>
</g>
<!-- Node6&#45;&gt;Node1 -->
<g id="edge5_Node000001_Node000006" class="edge">
<title>Node6&#45;&gt;Node1</title>
<g id="a_edge5_Node000001_Node000006"><a xlink:title=" ">
<path fill="none" stroke="#9a32cd" stroke-dasharray="5,2" d="M711.72,-92.06C701.7,-80.42 686.83,-66.08 670,-59.5 644.46,-49.51 613.53,-49.4 589.27,-51.73"/>
<polygon fill="#9a32cd" stroke="#9a32cd" points="709.09,-94.38 718.12,-99.92 714.52,-89.95 709.09,-94.38"/>
</a>
</g>
<text text-anchor="middle" x="642.5" y="-62.5" font-family="Helvetica,sans-Serif" font-size="10.00" fill="grey"> parent</text>
</g>
<!-- Node7 -->
<g id="Node000007" class="node">
<title>Node7</title>
<g id="a_Node000007"><a xlink:href="structno__os__spi__desc.html" target="_top" xlink:title="Structure holding SPI descriptor.">
<polygon fill="white" stroke="#666666" points="593.5,-214 501.5,-214 501.5,-195 593.5,-195 593.5,-214"/>
<text text-anchor="middle" x="547.5" y="-202" font-family="Helvetica,sans-Serif" font-size="10.00">no_os_spi_desc</text>
</a>
</g>
</g>
<!-- Node7&#45;&gt;Node6 -->
<g id="edge6_Node000006_Node000007" class="edge">
<title>Node7&#45;&gt;Node6</title>
<g id="a_edge6_Node000006_Node000007"><a xlink:title=" ">
<path fill="none" stroke="#9a32cd" stroke-dasharray="5,2" d="M590.41,-191.79C614.6,-183.53 645.06,-171.51 670,-156.5 687.65,-145.88 705.26,-129.58 715.63,-119.23"/>
<polygon fill="#9a32cd" stroke="#9a32cd" points="589.19,-188.51 580.8,-194.99 591.4,-195.15 589.19,-188.51"/>
</a>
</g>
<text text-anchor="middle" x="642.5" y="-185.5" font-family="Helvetica,sans-Serif" font-size="10.00" fill="grey"> spi_desc</text>
</g>
<!-- Node7&#45;&gt;Node7 -->
<g id="edge11_Node000007_Node000007" class="edge">
<title>Node7&#45;&gt;Node7</title>
<g id="a_edge11_Node000007_Node000007"><a xlink:title=" ">
<path fill="none" stroke="#9a32cd" stroke-dasharray="5,2" d="M530.19,-223.91C531.55,-228.56 537.32,-232 547.5,-232 564.21,-232 569.04,-222.73 561.99,-214.08"/>
<polygon fill="#9a32cd" stroke="#9a32cd" points="533.62,-224.66 533.01,-214.08 526.89,-222.73 533.62,-224.66"/>
</a>
</g>
<text text-anchor="middle" x="547.5" y="-235" font-family="Helvetica,sans-Serif" font-size="10.00" fill="grey"> parent</text>
</g>
<!-- Node8 -->
<g id="Node000008" class="node">
<title>Node8</title>
<g id="a_Node000008"><a xlink:href="structno__os__spibus__desc.html" target="_top" xlink:title="SPI bus descriptor.">
<polygon fill="white" stroke="#666666" points="363.5,-222 253.5,-222 253.5,-203 363.5,-203 363.5,-222"/>
<text text-anchor="middle" x="308.5" y="-210" font-family="Helvetica,sans-Serif" font-size="10.00">no_os_spibus_desc</text>
</a>
</g>
</g>
<!-- Node8&#45;&gt;Node7 -->
<g id="edge7_Node000007_Node000008" class="edge">
<title>Node8&#45;&gt;Node7</title>
<g id="a_edge7_Node000007_Node000008"><a xlink:title=" ">
<path fill="none" stroke="#9a32cd" stroke-dasharray="5,2" d="M373.61,-210.34C414.03,-208.97 465.25,-207.24 501.41,-206.02"/>
<polygon fill="#9a32cd" stroke="#9a32cd" points="373.45,-206.84 363.58,-210.67 373.69,-213.84 373.45,-206.84"/>
</a>
</g>
<text text-anchor="middle" x="438.5" y="-211.5" font-family="Helvetica,sans-Serif" font-size="10.00" fill="grey"> bus</text>
</g>
<!-- Node9 -->
<g id="Node000009" class="node">
<title>Node9</title>
<g id="a_Node000009"><a xlink:href="structno__os__spi__platform__ops.html" target="_top" xlink:title="Structure holding SPI function pointers that point to the platform specific function.">
<polygon fill="white" stroke="#666666" points="134,-255 0,-255 0,-236 134,-236 134,-255"/>
<text text-anchor="middle" x="67" y="-243" font-family="Helvetica,sans-Serif" font-size="10.00">no_os_spi_platform_ops</text>
</a>
</g>
</g>
<!-- Node9&#45;&gt;Node7 -->
<g id="edge9_Node000007_Node000009" class="edge">
<title>Node9&#45;&gt;Node7</title>
<g id="a_edge9_Node000007_Node000009"><a xlink:title=" ">
<path fill="none" stroke="#9a32cd" stroke-dasharray="5,2" d="M144.37,-247.14C227.58,-247.6 364.31,-244.49 480,-223.5 492.52,-221.23 506.08,-217.58 517.66,-214.09"/>
<polygon fill="#9a32cd" stroke="#9a32cd" points="144.27,-243.64 134.24,-247.06 144.21,-250.64 144.27,-243.64"/>
</a>
</g>
<text text-anchor="middle" x="308.5" y="-248.5" font-family="Helvetica,sans-Serif" font-size="10.00" fill="grey"> platform_ops</text>
</g>
<!-- Node9&#45;&gt;Node8 -->
<g id="edge8_Node000008_Node000009" class="edge">
<title>Node9&#45;&gt;Node8</title>
<g id="a_edge8_Node000008_Node000009"><a xlink:title=" ">
<path fill="none" stroke="#9a32cd" stroke-dasharray="5,2" d="M143.95,-234.62C146.66,-234.24 149.36,-233.87 152,-233.5 185.59,-228.83 223.29,-223.74 253.15,-219.74"/>
<polygon fill="#9a32cd" stroke="#9a32cd" points="143.44,-231.16 134.02,-236.02 144.41,-238.09 143.44,-231.16"/>
</a>
</g>
<text text-anchor="middle" x="186" y="-236.5" font-family="Helvetica,sans-Serif" font-size="10.00" fill="grey"> platform_ops</text>
</g>
<!-- Node10 -->
<g id="Node000010" class="node">
<title>Node10</title>
<g id="a_Node000010"><a xlink:href="structno__os__platform__spi__delays.html" target="_top" xlink:title="Delays resulted from components in the SPI signal path. The values is ns.">
<polygon fill="white" stroke="#666666" points="364.5,-184.5 252.5,-184.5 252.5,-154.5 364.5,-154.5 364.5,-184.5"/>
<text text-anchor="start" x="260.5" y="-172.5" font-family="Helvetica,sans-Serif" font-size="10.00">no_os_platform_spi</text>
<text text-anchor="middle" x="308.5" y="-161.5" font-family="Helvetica,sans-Serif" font-size="10.00">_delays</text>
</a>
</g>
</g>
<!-- Node10&#45;&gt;Node7 -->
<g id="edge10_Node000007_Node000010" class="edge">
<title>Node10&#45;&gt;Node7</title>
<g id="a_edge10_Node000007_Node000010"><a xlink:title=" ">
<path fill="none" stroke="#9a32cd" stroke-dasharray="5,2" d="M374.61,-176.9C406.46,-180.77 445.31,-185.88 480,-191.5 486.97,-192.63 494.32,-193.94 501.5,-195.29"/>
<polygon fill="#9a32cd" stroke="#9a32cd" points="374.88,-173.41 364.53,-175.68 374.04,-180.36 374.88,-173.41"/>
</a>
</g>
<text text-anchor="middle" x="438.5" y="-194.5" font-family="Helvetica,sans-Serif" font-size="10.00" fill="grey"> platform_delays</text>
</g>
<!-- Node11 -->
<g id="Node000011" class="node">
<title>Node11</title>
<g id="a_Node000011"><a xlink:href="structno__os__gpio__desc.html" target="_top" xlink:title="Structure holding the GPIO descriptor.">
<polygon fill="white" stroke="#666666" points="597,-136 498,-136 498,-117 597,-117 597,-136"/>
<text text-anchor="middle" x="547.5" y="-124" font-family="Helvetica,sans-Serif" font-size="10.00">no_os_gpio_desc</text>
</a>
</g>
</g>
<!-- Node11&#45;&gt;Node6 -->
<g id="edge12_Node000006_Node000011" class="edge">
<title>Node11&#45;&gt;Node6</title>
<g id="a_edge12_Node000006_Node000011"><a xlink:title=" ">
<path fill="none" stroke="#9a32cd" stroke-dasharray="5,2" d="M607.19,-120.85C633.84,-118.28 664.55,-115.32 687.94,-113.07"/>
<polygon fill="#9a32cd" stroke="#9a32cd" points="606.81,-117.37 597.2,-121.81 607.49,-124.33 606.81,-117.37"/>
</a>
</g>
<text text-anchor="middle" x="642.5" y="-144.5" font-family="Helvetica,sans-Serif" font-size="10.00" fill="grey"> gpio_reset</text>
<text text-anchor="middle" x="642.5" y="-133.5" font-family="Helvetica,sans-Serif" font-size="10.00" fill="grey">gpio_txen0</text>
<text text-anchor="middle" x="642.5" y="-122.5" font-family="Helvetica,sans-Serif" font-size="10.00" fill="grey">gpio_txen1</text>
</g>
<!-- Node12 -->
<g id="Node000012" class="node">
<title>Node12</title>
<g id="a_Node000012"><a xlink:href="structno__os__gpio__platform__ops.html" target="_top" xlink:title="Structure holding gpio function pointers that point to the platform specific function.">
<polygon fill="white" stroke="#666666" points="379,-136 238,-136 238,-117 379,-117 379,-136"/>
<text text-anchor="middle" x="308.5" y="-124" font-family="Helvetica,sans-Serif" font-size="10.00">no_os_gpio_platform_ops</text>
</a>
</g>
</g>
<!-- Node12&#45;&gt;Node11 -->
<g id="edge13_Node000011_Node000012" class="edge">
<title>Node12&#45;&gt;Node11</title>
<g id="a_edge13_Node000011_Node000012"><a xlink:title=" ">
<path fill="none" stroke="#9a32cd" stroke-dasharray="5,2" d="M389.46,-126.5C425.34,-126.5 466.5,-126.5 497.68,-126.5"/>
<polygon fill="#9a32cd" stroke="#9a32cd" points="389.01,-123 379.01,-126.5 389.01,-130 389.01,-123"/>
</a>
</g>
<text text-anchor="middle" x="438.5" y="-129.5" font-family="Helvetica,sans-Serif" font-size="10.00" fill="grey"> platform_ops</text>
</g>
</g>
</svg>

<g id="navigator" transform="translate(0 0)" fill="#404254">
  <rect fill="#f2f5e9" fill-opacity="0.5" stroke="#606060" stroke-width=".5" x="0" y="0" width="60" height="60"/>
  <use id="zoomplus" xlink:href="#zoomPlus" x="17" y="9" onmousedown="handleZoom(evt,'in')"/>
  <use id="zoomminus" xlink:href="#zoomMin" x="42" y="9" onmousedown="handleZoom(evt,'out')"/>
  <use id="reset" xlink:href="#resetDef" x="30" y="36" onmousedown="handleReset()"/>
   <use id="arrowup" xlink:href="#arrowUp" x="0" y="0" onmousedown="handlePan(0,-1)"/>
  <use id="arrowright" xlink:href="#arrowRight" x="0" y="0" onmousedown="handlePan(1,0)"/>
  <use id="arrowdown" xlink:href="#arrowDown" x="0" y="0" onmousedown="handlePan(0,1)"/>
  <use id="arrowleft" xlink:href="#arrowLeft" x="0" y="0" onmousedown="handlePan(-1,0)"/>
</g>
<svg viewBox="0 0 15 15" width="100%" height="30px" preserveAspectRatio="xMaxYMin meet">
 <g id="arrow_out" transform="scale(0.3 0.3)">
  <a xlink:href="structad9172__state__coll__graph_org.svg" target="_base">
   <rect id="button" ry="5" rx="5" y="6" x="6" height="38" width="38"
        fill="#f2f5e9" fill-opacity="0.5" stroke="#606060" stroke-width="1.0"/>
   <path id="arrow"
     d="M 11.500037,31.436501 C 11.940474,20.09759 22.043105,11.32322 32.158766,21.979434 L 37.068811,17.246167 C 37.068811,17.246167 37.088388,32 37.088388,32 L 22.160133,31.978069 C 22.160133,31.978069 26.997745,27.140456 26.997745,27.140456 C 18.528582,18.264221 13.291696,25.230495 11.500037,31.436501 z"
     style="fill:#404040;"/>
  </a>
 </g>
</svg>

<style type='text/css'>
<![CDATA[
[data-mouse-over-selected='false'] { opacity: 0.7; }
[data-mouse-over-selected='true']  { opacity: 1.0; }
]]>
</style>
<script type="application/ecmascript"><![CDATA[
document.addEventListener('DOMContentLoaded', (event) => {
  highlightEdges();
  highlightAdjacentNodes();
});
]]></script>
</svg>
