<?xml version="1.0" encoding="UTF-8" standalone="no"?>
<!DOCTYPE svg PUBLIC "-//W3C//DTD SVG 1.1//EN"
 "http://www.w3.org/Graphics/SVG/1.1/DTD/svg11.dtd">
<!-- Generated by graphviz version 2.43.0 (0)
 -->
<!-- Title: ltc2983_iio_desc_init_param Pages: 1 -->
<svg width="1326pt" height="216pt"
 viewBox="0.00 0.00 1326.00 215.50" xmlns="http://www.w3.org/2000/svg" xmlns:xlink="http://www.w3.org/1999/xlink">
<g id="graph0" class="graph" transform="scale(1 1) rotate(0) translate(4 211.5)">
<title>ltc2983_iio_desc_init_param</title>
<!-- Node1 -->
<g id="Node000001" class="node">
<title>Node1</title>
<g id="a_Node000001"><a xlink:title=" ">
<polygon fill="#999999" stroke="#666666" points="1318,-61.5 1199,-61.5 1199,-31.5 1318,-31.5 1318,-61.5"/>
<text text-anchor="start" x="1207" y="-49.5" font-family="Helvetica,sans-Serif" font-size="10.00">ltc2983_iio_desc_init</text>
<text text-anchor="middle" x="1258.5" y="-38.5" font-family="Helvetica,sans-Serif" font-size="10.00">_param</text>
</a>
</g>
</g>
<!-- Node2 -->
<g id="Node000002" class="node">
<title>Node2</title>
<g id="a_Node000002"><a xlink:href="structltc2983__init__param.html" target="_top" xlink:title="LTC2983 init param.">
<polygon fill="white" stroke="#666666" points="1038,-56 928,-56 928,-37 1038,-37 1038,-56"/>
<text text-anchor="middle" x="983" y="-44" font-family="Helvetica,sans-Serif" font-size="10.00">ltc2983_init_param</text>
</a>
</g>
</g>
<!-- Node2&#45;&gt;Node1 -->
<g id="edge1_Node000001_Node000002" class="edge">
<title>Node2&#45;&gt;Node1</title>
<g id="a_edge1_Node000001_Node000002"><a xlink:title=" ">
<path fill="none" stroke="#9a32cd" stroke-dasharray="5,2" d="M1048.11,-46.5C1093.72,-46.5 1154.51,-46.5 1198.84,-46.5"/>
<polygon fill="#9a32cd" stroke="#9a32cd" points="1048.03,-43 1038.03,-46.5 1048.03,-50 1048.03,-43"/>
</a>
</g>
<text text-anchor="middle" x="1118.5" y="-49.5" font-family="Helvetica,sans-Serif" font-size="10.00" fill="grey"> ltc2983_desc_init_param</text>
</g>
<!-- Node3 -->
<g id="Node000003" class="node">
<title>Node3</title>
<g id="a_Node000003"><a xlink:href="structno__os__spi__init__param.html" target="_top" xlink:title="Structure holding the parameters for SPI initialization.">
<polygon fill="white" stroke="#666666" points="839.5,-112 717.5,-112 717.5,-93 839.5,-93 839.5,-112"/>
<text text-anchor="middle" x="778.5" y="-100" font-family="Helvetica,sans-Serif" font-size="10.00">no_os_spi_init_param</text>
</a>
</g>
</g>
<!-- Node3&#45;&gt;Node2 -->
<g id="edge2_Node000002_Node000003" class="edge">
<title>Node3&#45;&gt;Node2</title>
<g id="a_edge2_Node000002_Node000003"><a xlink:title=" ">
<path fill="none" stroke="#9a32cd" stroke-dasharray="5,2" d="M824.38,-90.09C861.59,-79.8 913.69,-65.39 947.64,-56"/>
<polygon fill="#9a32cd" stroke="#9a32cd" points="823.02,-86.83 814.31,-92.87 824.88,-93.58 823.02,-86.83"/>
</a>
</g>
<text text-anchor="middle" x="885.5" y="-83.5" font-family="Helvetica,sans-Serif" font-size="10.00" fill="grey"> spi_init</text>
</g>
<!-- Node4 -->
<g id="Node000004" class="node">
<title>Node4</title>
<g id="a_Node000004"><a xlink:href="structno__os__spi__platform__ops.html" target="_top" xlink:title="Structure holding SPI function pointers that point to the platform specific function.">
<polygon fill="white" stroke="#666666" points="134,-179 0,-179 0,-160 134,-160 134,-179"/>
<text text-anchor="middle" x="67" y="-167" font-family="Helvetica,sans-Serif" font-size="10.00">no_os_spi_platform_ops</text>
</a>
</g>
</g>
<!-- Node4&#45;&gt;Node3 -->
<g id="edge3_Node000003_Node000004" class="edge">
<title>Node4&#45;&gt;Node3</title>
<g id="a_edge3_Node000003_Node000004"><a xlink:title=" ">
<path fill="none" stroke="#9a32cd" stroke-dasharray="5,2" d="M139.96,-180.34C244.7,-193.9 444.7,-211.39 610,-176.5 669.1,-164.03 732.74,-129.31 761.63,-112.23"/>
<polygon fill="#9a32cd" stroke="#9a32cd" points="140.19,-176.84 129.81,-179 139.27,-183.78 140.19,-176.84"/>
</a>
</g>
<text text-anchor="middle" x="409.5" y="-199.5" font-family="Helvetica,sans-Serif" font-size="10.00" fill="grey"> platform_ops</text>
</g>
<!-- Node6 -->
<g id="Node000006" class="node">
<title>Node6</title>
<g id="a_Node000006"><a xlink:href="structno__os__spi__desc.html" target="_top" xlink:title="Structure holding SPI descriptor.">
<polygon fill="white" stroke="#666666" points="585.5,-138 493.5,-138 493.5,-119 585.5,-119 585.5,-138"/>
<text text-anchor="middle" x="539.5" y="-126" font-family="Helvetica,sans-Serif" font-size="10.00">no_os_spi_desc</text>
</a>
</g>
</g>
<!-- Node4&#45;&gt;Node6 -->
<g id="edge8_Node000006_Node000004" class="edge">
<title>Node4&#45;&gt;Node6</title>
<g id="a_edge8_Node000006_Node000004"><a xlink:title=" ">
<path fill="none" stroke="#9a32cd" stroke-dasharray="5,2" d="M144.36,-165.6C221.77,-161.25 344.93,-153.24 451,-141.5 464.74,-139.98 479.63,-137.92 493.17,-135.89"/>
<polygon fill="#9a32cd" stroke="#9a32cd" points="144.01,-162.11 134.22,-166.16 144.4,-169.1 144.01,-162.11"/>
</a>
</g>
<text text-anchor="middle" x="294" y="-161.5" font-family="Helvetica,sans-Serif" font-size="10.00" fill="grey"> platform_ops</text>
</g>
<!-- Node7 -->
<g id="Node000007" class="node">
<title>Node7</title>
<g id="a_Node000007"><a xlink:href="structno__os__spibus__desc.html" target="_top" xlink:title="SPI bus descriptor.">
<polygon fill="white" stroke="#666666" points="349,-133 239,-133 239,-114 349,-114 349,-133"/>
<text text-anchor="middle" x="294" y="-121" font-family="Helvetica,sans-Serif" font-size="10.00">no_os_spibus_desc</text>
</a>
</g>
</g>
<!-- Node4&#45;&gt;Node7 -->
<g id="edge7_Node000007_Node000004" class="edge">
<title>Node4&#45;&gt;Node7</title>
<g id="a_edge7_Node000007_Node000004"><a xlink:title=" ">
<path fill="none" stroke="#9a32cd" stroke-dasharray="5,2" d="M106.43,-156.82C120.63,-152.46 136.94,-147.84 152,-144.5 180.39,-138.19 212.42,-133.25 238.77,-129.75"/>
<polygon fill="#9a32cd" stroke="#9a32cd" points="105,-153.6 96.51,-159.92 107.09,-160.28 105,-153.6"/>
</a>
</g>
<text text-anchor="middle" x="186" y="-147.5" font-family="Helvetica,sans-Serif" font-size="10.00" fill="grey"> platform_ops</text>
</g>
<!-- Node5 -->
<g id="Node000005" class="node">
<title>Node5</title>
<g id="a_Node000005"><a xlink:href="structno__os__platform__spi__delays.html" target="_top" xlink:title="Delays resulted from components in the SPI signal path. The values is ns.">
<polygon fill="white" stroke="#666666" points="350,-93.5 238,-93.5 238,-63.5 350,-63.5 350,-93.5"/>
<text text-anchor="start" x="246" y="-81.5" font-family="Helvetica,sans-Serif" font-size="10.00">no_os_platform_spi</text>
<text text-anchor="middle" x="294" y="-70.5" font-family="Helvetica,sans-Serif" font-size="10.00">_delays</text>
</a>
</g>
</g>
<!-- Node5&#45;&gt;Node3 -->
<g id="edge4_Node000003_Node000005" class="edge">
<title>Node5&#45;&gt;Node3</title>
<g id="a_edge4_Node000003_Node000005"><a xlink:title=" ">
<path fill="none" stroke="#9a32cd" stroke-dasharray="5,2" d="M360.58,-81.76C454.54,-86.44 626.16,-94.97 717.14,-99.5"/>
<polygon fill="#9a32cd" stroke="#9a32cd" points="360.51,-78.25 350.35,-81.25 360.16,-85.25 360.51,-78.25"/>
</a>
</g>
<text text-anchor="middle" x="539.5" y="-96.5" font-family="Helvetica,sans-Serif" font-size="10.00" fill="grey"> platform_delays</text>
</g>
<!-- Node5&#45;&gt;Node6 -->
<g id="edge9_Node000006_Node000005" class="edge">
<title>Node5&#45;&gt;Node6</title>
<g id="a_edge9_Node000006_Node000005"><a xlink:title=" ">
<path fill="none" stroke="#9a32cd" stroke-dasharray="5,2" d="M360.33,-91.22C388.28,-96.72 421.26,-103.32 451,-109.5 465.46,-112.51 481.24,-115.9 495.36,-118.97"/>
<polygon fill="#9a32cd" stroke="#9a32cd" points="360.77,-87.73 350.28,-89.24 359.42,-94.6 360.77,-87.73"/>
</a>
</g>
<text text-anchor="middle" x="409.5" y="-112.5" font-family="Helvetica,sans-Serif" font-size="10.00" fill="grey"> platform_delays</text>
</g>
<!-- Node6&#45;&gt;Node3 -->
<g id="edge5_Node000003_Node000006" class="edge">
<title>Node6&#45;&gt;Node3</title>
<g id="a_edge5_Node000003_Node000006"><a xlink:title=" ">
<path fill="none" stroke="#9a32cd" stroke-dasharray="5,2" d="M595.6,-122.46C632.05,-118.46 679.85,-113.21 717.3,-109.1"/>
<polygon fill="#9a32cd" stroke="#9a32cd" points="595.19,-118.98 585.64,-123.55 595.96,-125.94 595.19,-118.98"/>
</a>
</g>
<text text-anchor="middle" x="662" y="-121.5" font-family="Helvetica,sans-Serif" font-size="10.00" fill="grey"> parent</text>
</g>
<!-- Node6&#45;&gt;Node6 -->
<g id="edge10_Node000006_Node000006" class="edge">
<title>Node6&#45;&gt;Node6</title>
<g id="a_edge10_Node000006_Node000006"><a xlink:title=" ">
<path fill="none" stroke="#9a32cd" stroke-dasharray="5,2" d="M516.91,-147.55C518.42,-152.38 525.95,-156 539.5,-156 561.18,-156 567.45,-146.73 558.3,-138.08"/>
<polygon fill="#9a32cd" stroke="#9a32cd" points="520.23,-148.67 520.7,-138.08 513.73,-146.07 520.23,-148.67"/>
</a>
</g>
<text text-anchor="middle" x="539.5" y="-159" font-family="Helvetica,sans-Serif" font-size="10.00" fill="grey"> parent</text>
</g>
<!-- Node7&#45;&gt;Node6 -->
<g id="edge6_Node000006_Node000007" class="edge">
<title>Node7&#45;&gt;Node6</title>
<g id="a_edge6_Node000006_Node000007"><a xlink:title=" ">
<path fill="none" stroke="#9a32cd" stroke-dasharray="5,2" d="M359.21,-124.82C401.37,-125.68 455.49,-126.8 493.19,-127.57"/>
<polygon fill="#9a32cd" stroke="#9a32cd" points="359.11,-121.32 349.04,-124.61 358.97,-128.31 359.11,-121.32"/>
</a>
</g>
<text text-anchor="middle" x="409.5" y="-129.5" font-family="Helvetica,sans-Serif" font-size="10.00" fill="grey"> bus</text>
</g>
<!-- Node8 -->
<g id="Node000008" class="node">
<title>Node8</title>
<g id="a_Node000008"><a xlink:href="structno__os__gpio__init__param.html" target="_top" xlink:title="Structure holding the parameters for GPIO initialization.">
<polygon fill="white" stroke="#666666" points="843,-56 714,-56 714,-37 843,-37 843,-56"/>
<text text-anchor="middle" x="778.5" y="-44" font-family="Helvetica,sans-Serif" font-size="10.00">no_os_gpio_init_param</text>
</a>
</g>
</g>
<!-- Node8&#45;&gt;Node2 -->
<g id="edge11_Node000002_Node000008" class="edge">
<title>Node8&#45;&gt;Node2</title>
<g id="a_edge11_Node000002_Node000008"><a xlink:title=" ">
<path fill="none" stroke="#9a32cd" stroke-dasharray="5,2" d="M853.09,-46.5C877.83,-46.5 904.95,-46.5 927.91,-46.5"/>
<polygon fill="#9a32cd" stroke="#9a32cd" points="853.02,-43 843.02,-46.5 853.02,-50 853.02,-43"/>
</a>
</g>
<text text-anchor="middle" x="885.5" y="-49.5" font-family="Helvetica,sans-Serif" font-size="10.00" fill="grey"> gpio_rstn</text>
</g>
<!-- Node9 -->
<g id="Node000009" class="node">
<title>Node9</title>
<g id="a_Node000009"><a xlink:href="structno__os__gpio__platform__ops.html" target="_top" xlink:title="Structure holding gpio function pointers that point to the platform specific function.">
<polygon fill="white" stroke="#666666" points="610,-40 469,-40 469,-21 610,-21 610,-40"/>
<text text-anchor="middle" x="539.5" y="-28" font-family="Helvetica,sans-Serif" font-size="10.00">no_os_gpio_platform_ops</text>
</a>
</g>
</g>
<!-- Node9&#45;&gt;Node8 -->
<g id="edge12_Node000008_Node000009" class="edge">
<title>Node9&#45;&gt;Node8</title>
<g id="a_edge12_Node000008_Node000009"><a xlink:title=" ">
<path fill="none" stroke="#9a32cd" stroke-dasharray="5,2" d="M620.17,-35.88C650.61,-37.93 684.89,-40.25 713.67,-42.19"/>
<polygon fill="#9a32cd" stroke="#9a32cd" points="620.22,-32.37 610.01,-35.19 619.75,-39.36 620.22,-32.37"/>
</a>
</g>
<text text-anchor="middle" x="662" y="-44.5" font-family="Helvetica,sans-Serif" font-size="10.00" fill="grey"> platform_ops</text>
</g>
<!-- Node10 -->
<g id="Node000010" class="node">
<title>Node10</title>
<g id="a_Node000010"><a xlink:href="structltc2983__sensor.html" target="_top" xlink:title="common LTC2983 sensor struct">
<polygon fill="white" stroke="#666666" points="823.5,-19 733.5,-19 733.5,0 823.5,0 823.5,-19"/>
<text text-anchor="middle" x="778.5" y="-7" font-family="Helvetica,sans-Serif" font-size="10.00">ltc2983_sensor</text>
</a>
</g>
</g>
<!-- Node10&#45;&gt;Node2 -->
<g id="edge13_Node000002_Node000010" class="edge">
<title>Node10&#45;&gt;Node2</title>
<g id="a_edge13_Node000002_Node000010"><a xlink:title=" ">
<path fill="none" stroke="#9a32cd" stroke-dasharray="5,2" d="M833.79,-18.17C857.26,-22.05 885.02,-26.79 910,-31.5 918.91,-33.18 928.41,-35.08 937.5,-36.95"/>
<polygon fill="#9a32cd" stroke="#9a32cd" points="834.11,-14.68 823.67,-16.51 832.97,-21.59 834.11,-14.68"/>
</a>
</g>
<text text-anchor="middle" x="885.5" y="-34.5" font-family="Helvetica,sans-Serif" font-size="10.00" fill="grey"> sensors</text>
</g>
</g>
</svg>
