<?xml version="1.0" encoding="UTF-8" standalone="no"?>
<!DOCTYPE svg PUBLIC "-//W3C//DTD SVG 1.1//EN"
 "http://www.w3.org/Graphics/SVG/1.1/DTD/svg11.dtd">
<!-- Generated by graphviz version 2.43.0 (0)
 -->
<!-- Title: stm32_spi_init_param Pages: 1 -->
<svg width="282pt" height="170pt"
 viewBox="0.00 0.00 282.00 170.00" xmlns="http://www.w3.org/2000/svg" xmlns:xlink="http://www.w3.org/1999/xlink">
<g id="graph0" class="graph" transform="scale(1 1) rotate(0) translate(4 166)">
<title>stm32_spi_init_param</title>
<!-- Node1 -->
<g id="Node000001" class="node">
<title>Node1</title>
<g id="a_Node000001"><a xlink:title="Structure holding the initialization parameters for stm32 platform specific SPI parameters.">
<polygon fill="#999999" stroke="#666666" points="204.5,-19 79.5,-19 79.5,0 204.5,0 204.5,-19"/>
<text text-anchor="middle" x="142" y="-7" font-family="Helvetica,sans-Serif" font-size="10.00">stm32_spi_init_param</text>
</a>
</g>
</g>
<!-- Node2 -->
<g id="Node000002" class="node">
<title>Node2</title>
<g id="a_Node000002"><a xlink:href="structno__os__dma__init__param.html" target="_top" xlink:title="Initialization parameter for the DMA controller.">
<polygon fill="white" stroke="#666666" points="137,-96 7,-96 7,-77 137,-77 137,-96"/>
<text text-anchor="middle" x="72" y="-84" font-family="Helvetica,sans-Serif" font-size="10.00">no_os_dma_init_param</text>
</a>
</g>
</g>
<!-- Node2&#45;&gt;Node1 -->
<g id="edge1_Node000001_Node000002" class="edge">
<title>Node2&#45;&gt;Node1</title>
<g id="a_edge1_Node000001_Node000002"><a xlink:title=" ">
<path fill="none" stroke="#9a32cd" stroke-dasharray="5,2" d="M87.25,-69.16C101.67,-53.72 122.72,-31.15 134.06,-19"/>
<polygon fill="#9a32cd" stroke="#9a32cd" points="84.29,-67.2 80.03,-76.9 89.41,-71.97 84.29,-67.2"/>
</a>
</g>
<text text-anchor="middle" x="139" y="-45.5" font-family="Helvetica,sans-Serif" font-size="10.00" fill="grey"> dma_init</text>
</g>
<!-- Node3 -->
<g id="Node000003" class="node">
<title>Node3</title>
<g id="a_Node000003"><a xlink:href="structno__os__dma__platform__ops.html" target="_top" xlink:title=" ">
<polygon fill="white" stroke="#666666" points="142,-162 0,-162 0,-143 142,-143 142,-162"/>
<text text-anchor="middle" x="71" y="-150" font-family="Helvetica,sans-Serif" font-size="10.00">no_os_dma_platform_ops</text>
</a>
</g>
</g>
<!-- Node3&#45;&gt;Node2 -->
<g id="edge2_Node000002_Node000003" class="edge">
<title>Node3&#45;&gt;Node2</title>
<g id="a_edge2_Node000002_Node000003"><a xlink:title=" ">
<path fill="none" stroke="#9a32cd" stroke-dasharray="5,2" d="M71.3,-132.58C71.48,-120.63 71.72,-105.72 71.86,-96.41"/>
<polygon fill="#9a32cd" stroke="#9a32cd" points="67.79,-132.82 71.13,-142.87 74.79,-132.92 67.79,-132.82"/>
</a>
</g>
<text text-anchor="middle" x="106" y="-117" font-family="Helvetica,sans-Serif" font-size="10.00" fill="grey"> platform_ops</text>
</g>
<!-- Node4 -->
<g id="Node000004" class="node">
<title>Node4</title>
<g id="a_Node000004"><a xlink:href="structstm32__dma__channel.html" target="_top" xlink:title="STM32 DMA Channels.">
<polygon fill="white" stroke="#666666" points="274,-96 156,-96 156,-77 274,-77 274,-96"/>
<text text-anchor="middle" x="215" y="-84" font-family="Helvetica,sans-Serif" font-size="10.00">stm32_dma_channel</text>
</a>
</g>
</g>
<!-- Node4&#45;&gt;Node1 -->
<g id="edge3_Node000001_Node000004" class="edge">
<title>Node4&#45;&gt;Node1</title>
<g id="a_edge3_Node000001_Node000004"><a xlink:title=" ">
<path fill="none" stroke="#9a32cd" stroke-dasharray="5,2" d="M199.51,-69.59C184.47,-54.13 162.21,-31.27 150.28,-19"/>
<polygon fill="#9a32cd" stroke="#9a32cd" points="197.14,-72.17 206.63,-76.9 202.16,-67.29 197.14,-72.17"/>
</a>
</g>
<text text-anchor="middle" x="213" y="-51" font-family="Helvetica,sans-Serif" font-size="10.00" fill="grey"> rxdma_ch</text>
<text text-anchor="middle" x="213" y="-40" font-family="Helvetica,sans-Serif" font-size="10.00" fill="grey">txdma_ch</text>
</g>
<!-- Node5 -->
<g id="Node000005" class="node">
<title>Node5</title>
<g id="a_Node000005"><a xlink:href="structstm32__dma__trigger.html" target="_top" xlink:title="Trigger descriptor for triggering a DMA transfer.">
<polygon fill="white" stroke="#666666" points="272,-162 160,-162 160,-143 272,-143 272,-162"/>
<text text-anchor="middle" x="216" y="-150" font-family="Helvetica,sans-Serif" font-size="10.00">stm32_dma_trigger</text>
</a>
</g>
</g>
<!-- Node5&#45;&gt;Node4 -->
<g id="edge4_Node000004_Node000005" class="edge">
<title>Node5&#45;&gt;Node4</title>
<g id="a_edge4_Node000004_Node000005"><a xlink:title=" ">
<path fill="none" stroke="#9a32cd" stroke-dasharray="5,2" d="M215.7,-132.58C215.52,-120.63 215.28,-105.72 215.14,-96.41"/>
<polygon fill="#9a32cd" stroke="#9a32cd" points="212.21,-132.92 215.87,-142.87 219.21,-132.82 212.21,-132.92"/>
</a>
</g>
<text text-anchor="middle" x="225" y="-117" font-family="Helvetica,sans-Serif" font-size="10.00" fill="grey"> trig</text>
</g>
</g>
</svg>
