<?xml version="1.0" encoding="UTF-8" standalone="no"?>
<!DOCTYPE svg PUBLIC "-//W3C//DTD SVG 1.1//EN"
 "http://www.w3.org/Graphics/SVG/1.1/DTD/svg11.dtd">
<!-- Generated by graphviz version 2.43.0 (0)
 -->
<!-- Title: ad9172_state Pages: 1 -->
<svg width="216pt" height="93pt"
 viewBox="0.00 0.00 216.00 93.00" xmlns="http://www.w3.org/2000/svg" xmlns:xlink="http://www.w3.org/1999/xlink">
<g id="graph0" class="graph" transform="scale(1 1) rotate(0) translate(4 89)">
<title>ad9172_state</title>
<!-- Node1 -->
<g id="Node000001" class="node">
<title>Node1</title>
<g id="a_Node000001"><a xlink:title=" ">
<polygon fill="#999999" stroke="#666666" points="146.5,-19 63.5,-19 63.5,0 146.5,0 146.5,-19"/>
<text text-anchor="middle" x="105" y="-7" font-family="Helvetica,sans-Serif" font-size="10.00">ad9172_state</text>
</a>
</g>
</g>
<!-- Node2 -->
<g id="Node000002" class="node">
<title>Node2</title>
<g id="a_Node000002"><a xlink:href="structad917x__handle__t.html" target="_top" xlink:title=" ">
<polygon fill="white" stroke="#666666" points="100,-85 0,-85 0,-66 100,-66 100,-85"/>
<text text-anchor="middle" x="50" y="-73" font-family="Helvetica,sans-Serif" font-size="10.00">ad917x_handle_t</text>
</a>
</g>
</g>
<!-- Node2&#45;&gt;Node1 -->
<g id="edge1_Node000001_Node000002" class="edge">
<title>Node2&#45;&gt;Node1</title>
<g id="a_edge1_Node000001_Node000002"><a xlink:title=" ">
<path fill="none" stroke="#9a32cd" stroke-dasharray="5,2" d="M64.07,-58.12C74.66,-45.81 88.76,-29.39 97.35,-19.41"/>
<polygon fill="#9a32cd" stroke="#9a32cd" points="61.28,-56 57.42,-65.87 66.59,-60.57 61.28,-56"/>
</a>
</g>
<text text-anchor="middle" x="97" y="-40" font-family="Helvetica,sans-Serif" font-size="10.00" fill="grey"> dac_h</text>
</g>
<!-- Node3 -->
<g id="Node000003" class="node">
<title>Node3</title>
<g id="a_Node000003"><a xlink:href="structjesd__param__t.html" target="_top" xlink:title=" ">
<polygon fill="white" stroke="#666666" points="201.5,-85 118.5,-85 118.5,-66 201.5,-66 201.5,-85"/>
<text text-anchor="middle" x="160" y="-73" font-family="Helvetica,sans-Serif" font-size="10.00">jesd_param_t</text>
</a>
</g>
</g>
<!-- Node3&#45;&gt;Node1 -->
<g id="edge2_Node000001_Node000003" class="edge">
<title>Node3&#45;&gt;Node1</title>
<g id="a_edge2_Node000001_Node000003"><a xlink:title=" ">
<path fill="none" stroke="#9a32cd" stroke-dasharray="5,2" d="M145.93,-58.12C135.34,-45.81 121.24,-29.39 112.65,-19.41"/>
<polygon fill="#9a32cd" stroke="#9a32cd" points="143.41,-60.57 152.58,-65.87 148.72,-56 143.41,-60.57"/>
</a>
</g>
<text text-anchor="middle" x="171.5" y="-40" font-family="Helvetica,sans-Serif" font-size="10.00" fill="grey"> appJesdConfig</text>
</g>
</g>
</svg>
