<?xml version="1.0" encoding="UTF-8" standalone="no"?>
<!DOCTYPE svg PUBLIC "-//W3C//DTD SVG 1.1//EN"
 "http://www.w3.org/Graphics/SVG/1.1/DTD/svg11.dtd">
<!-- Generated by graphviz version 2.43.0 (0)
 -->
<!-- Title: adaq7980_init_param Pages: 1 -->
<svg width="1139pt" height="238pt"
 viewBox="0.00 0.00 1139.00 237.50" xmlns="http://www.w3.org/2000/svg" xmlns:xlink="http://www.w3.org/1999/xlink">
<g id="graph0" class="graph" transform="scale(1 1) rotate(0) translate(4 233.5)">
<title>adaq7980_init_param</title>
<!-- Node1 -->
<g id="Node000001" class="node">
<title>Node1</title>
<g id="a_Node000001"><a xlink:title="Structure containing the init parameters needed by the adaq7980 device.">
<polygon fill="#999999" stroke="#666666" points="1131,-101 1009,-101 1009,-82 1131,-82 1131,-101"/>
<text text-anchor="middle" x="1070" y="-89" font-family="Helvetica,sans-Serif" font-size="10.00">adaq7980_init_param</text>
</a>
</g>
</g>
<!-- Node2 -->
<g id="Node000002" class="node">
<title>Node2</title>
<g id="a_Node000002"><a xlink:href="structno__os__spi__init__param.html" target="_top" xlink:title="Structure holding the parameters for SPI initialization.">
<polygon fill="white" stroke="#666666" points="873,-167 751,-167 751,-148 873,-148 873,-167"/>
<text text-anchor="middle" x="812" y="-155" font-family="Helvetica,sans-Serif" font-size="10.00">no_os_spi_init_param</text>
</a>
</g>
</g>
<!-- Node2&#45;&gt;Node1 -->
<g id="edge1_Node000001_Node000002" class="edge">
<title>Node2&#45;&gt;Node1</title>
<g id="a_edge1_Node000001_Node000002"><a xlink:title=" ">
<path fill="none" stroke="#9a32cd" stroke-dasharray="5,2" d="M879.83,-146.08C913.48,-139.71 954.72,-130.95 991,-120.5 1009.88,-115.06 1030.71,-107.22 1046.1,-101.06"/>
<polygon fill="#9a32cd" stroke="#9a32cd" points="878.84,-142.71 869.65,-147.98 880.12,-149.59 878.84,-142.71"/>
</a>
</g>
<text text-anchor="middle" x="943.5" y="-144.5" font-family="Helvetica,sans-Serif" font-size="10.00" fill="grey"> spi_init</text>
</g>
<!-- Node3 -->
<g id="Node000003" class="node">
<title>Node3</title>
<g id="a_Node000003"><a xlink:href="structno__os__spi__platform__ops.html" target="_top" xlink:title="Structure holding SPI function pointers that point to the platform specific function.">
<polygon fill="white" stroke="#666666" points="134,-197 0,-197 0,-178 134,-178 134,-197"/>
<text text-anchor="middle" x="67" y="-185" font-family="Helvetica,sans-Serif" font-size="10.00">no_os_spi_platform_ops</text>
</a>
</g>
</g>
<!-- Node3&#45;&gt;Node2 -->
<g id="edge2_Node000002_Node000003" class="edge">
<title>Node3&#45;&gt;Node2</title>
<g id="a_edge2_Node000002_Node000003"><a xlink:title=" ">
<path fill="none" stroke="#9a32cd" stroke-dasharray="5,2" d="M143.41,-198.29C253.56,-212.17 464.66,-231.69 642,-206.5 694.63,-199.02 753.79,-179.07 786.29,-167.06"/>
<polygon fill="#9a32cd" stroke="#9a32cd" points="143.75,-194.8 133.39,-197 142.86,-201.75 143.75,-194.8"/>
</a>
</g>
<text text-anchor="middle" x="438.5" y="-221.5" font-family="Helvetica,sans-Serif" font-size="10.00" fill="grey"> platform_ops</text>
</g>
<!-- Node5 -->
<g id="Node000005" class="node">
<title>Node5</title>
<g id="a_Node000005"><a xlink:href="structno__os__spi__desc.html" target="_top" xlink:title="Structure holding SPI descriptor.">
<polygon fill="white" stroke="#666666" points="616,-168 524,-168 524,-149 616,-149 616,-168"/>
<text text-anchor="middle" x="570" y="-156" font-family="Helvetica,sans-Serif" font-size="10.00">no_os_spi_desc</text>
</a>
</g>
</g>
<!-- Node3&#45;&gt;Node5 -->
<g id="edge7_Node000005_Node000003" class="edge">
<title>Node3&#45;&gt;Node5</title>
<g id="a_edge7_Node000005_Node000003"><a xlink:title=" ">
<path fill="none" stroke="#9a32cd" stroke-dasharray="5,2" d="M144.14,-185C226.88,-182 362.95,-176.25 480,-167.5 494.25,-166.43 509.75,-164.97 523.76,-163.54"/>
<polygon fill="#9a32cd" stroke="#9a32cd" points="143.94,-181.5 134.07,-185.36 144.19,-188.5 143.94,-181.5"/>
</a>
</g>
<text text-anchor="middle" x="308.5" y="-183.5" font-family="Helvetica,sans-Serif" font-size="10.00" fill="grey"> platform_ops</text>
</g>
<!-- Node6 -->
<g id="Node000006" class="node">
<title>Node6</title>
<g id="a_Node000006"><a xlink:href="structno__os__spibus__desc.html" target="_top" xlink:title="SPI bus descriptor.">
<polygon fill="white" stroke="#666666" points="363.5,-151 253.5,-151 253.5,-132 363.5,-132 363.5,-151"/>
<text text-anchor="middle" x="308.5" y="-139" font-family="Helvetica,sans-Serif" font-size="10.00">no_os_spibus_desc</text>
</a>
</g>
</g>
<!-- Node3&#45;&gt;Node6 -->
<g id="edge6_Node000006_Node000003" class="edge">
<title>Node3&#45;&gt;Node6</title>
<g id="a_edge6_Node000006_Node000003"><a xlink:title=" ">
<path fill="none" stroke="#9a32cd" stroke-dasharray="5,2" d="M105.65,-174.94C120.03,-170.5 136.65,-165.8 152,-162.5 185.29,-155.34 223.15,-150.17 253.17,-146.75"/>
<polygon fill="#9a32cd" stroke="#9a32cd" points="104.59,-171.6 96.1,-177.95 106.69,-178.28 104.59,-171.6"/>
</a>
</g>
<text text-anchor="middle" x="186" y="-165.5" font-family="Helvetica,sans-Serif" font-size="10.00" fill="grey"> platform_ops</text>
</g>
<!-- Node4 -->
<g id="Node000004" class="node">
<title>Node4</title>
<g id="a_Node000004"><a xlink:href="structno__os__platform__spi__delays.html" target="_top" xlink:title="Delays resulted from components in the SPI signal path. The values is ns.">
<polygon fill="white" stroke="#666666" points="364.5,-111.5 252.5,-111.5 252.5,-81.5 364.5,-81.5 364.5,-111.5"/>
<text text-anchor="start" x="260.5" y="-99.5" font-family="Helvetica,sans-Serif" font-size="10.00">no_os_platform_spi</text>
<text text-anchor="middle" x="308.5" y="-88.5" font-family="Helvetica,sans-Serif" font-size="10.00">_delays</text>
</a>
</g>
</g>
<!-- Node4&#45;&gt;Node2 -->
<g id="edge3_Node000002_Node000004" class="edge">
<title>Node4&#45;&gt;Node2</title>
<g id="a_edge3_Node000002_Node000004"><a xlink:title=" ">
<path fill="none" stroke="#9a32cd" stroke-dasharray="5,2" d="M374.9,-100.77C406.65,-103.02 445.35,-106.04 480,-109.5 552.19,-116.7 570.2,-119.12 642,-129.5 680.56,-135.07 723.91,-142.27 757.05,-147.98"/>
<polygon fill="#9a32cd" stroke="#9a32cd" points="375.06,-97.27 364.84,-100.06 374.57,-104.25 375.06,-97.27"/>
</a>
</g>
<text text-anchor="middle" x="570" y="-132.5" font-family="Helvetica,sans-Serif" font-size="10.00" fill="grey"> platform_delays</text>
</g>
<!-- Node4&#45;&gt;Node5 -->
<g id="edge8_Node000005_Node000004" class="edge">
<title>Node4&#45;&gt;Node5</title>
<g id="a_edge8_Node000005_Node000004"><a xlink:title=" ">
<path fill="none" stroke="#9a32cd" stroke-dasharray="5,2" d="M374.79,-108.44C406.67,-114.64 445.51,-122.75 480,-131.5 500.19,-136.62 522.63,-143.44 539.93,-148.94"/>
<polygon fill="#9a32cd" stroke="#9a32cd" points="375.18,-104.95 364.69,-106.49 373.85,-111.82 375.18,-104.95"/>
</a>
</g>
<text text-anchor="middle" x="438.5" y="-134.5" font-family="Helvetica,sans-Serif" font-size="10.00" fill="grey"> platform_delays</text>
</g>
<!-- Node5&#45;&gt;Node2 -->
<g id="edge4_Node000002_Node000005" class="edge">
<title>Node5&#45;&gt;Node2</title>
<g id="a_edge4_Node000002_Node000005"><a xlink:title=" ">
<path fill="none" stroke="#9a32cd" stroke-dasharray="5,2" d="M626.3,-158.27C663.47,-158.11 712.46,-157.91 750.65,-157.75"/>
<polygon fill="#9a32cd" stroke="#9a32cd" points="626.13,-154.77 616.14,-158.31 626.16,-161.77 626.13,-154.77"/>
</a>
</g>
<text text-anchor="middle" x="694" y="-160.5" font-family="Helvetica,sans-Serif" font-size="10.00" fill="grey"> parent</text>
</g>
<!-- Node5&#45;&gt;Node5 -->
<g id="edge9_Node000005_Node000005" class="edge">
<title>Node5&#45;&gt;Node5</title>
<g id="a_edge9_Node000005_Node000005"><a xlink:title=" ">
<path fill="none" stroke="#9a32cd" stroke-dasharray="5,2" d="M547.04,-177.55C548.57,-182.38 556.23,-186 570,-186 592.04,-186 598.41,-176.73 589.11,-168.08"/>
<polygon fill="#9a32cd" stroke="#9a32cd" points="550.36,-178.66 550.89,-168.08 543.88,-176.03 550.36,-178.66"/>
</a>
</g>
<text text-anchor="middle" x="570" y="-189" font-family="Helvetica,sans-Serif" font-size="10.00" fill="grey"> parent</text>
</g>
<!-- Node6&#45;&gt;Node5 -->
<g id="edge5_Node000005_Node000006" class="edge">
<title>Node6&#45;&gt;Node5</title>
<g id="a_edge5_Node000005_Node000006"><a xlink:title=" ">
<path fill="none" stroke="#9a32cd" stroke-dasharray="5,2" d="M373.58,-145.7C420.17,-148.75 482.1,-152.81 523.64,-155.53"/>
<polygon fill="#9a32cd" stroke="#9a32cd" points="373.79,-142.2 363.58,-145.04 373.33,-149.19 373.79,-142.2"/>
</a>
</g>
<text text-anchor="middle" x="438.5" y="-155.5" font-family="Helvetica,sans-Serif" font-size="10.00" fill="grey"> bus</text>
</g>
<!-- Node7 -->
<g id="Node000007" class="node">
<title>Node7</title>
<g id="a_Node000007"><a xlink:href="structspi__engine__offload__init__param.html" target="_top" xlink:title="Structure containing the init parameters needed by the offload module.">
<polygon fill="white" stroke="#666666" points="866,-128.5 758,-128.5 758,-98.5 866,-98.5 866,-128.5"/>
<text text-anchor="start" x="766" y="-116.5" font-family="Helvetica,sans-Serif" font-size="10.00">spi_engine_offload</text>
<text text-anchor="middle" x="812" y="-105.5" font-family="Helvetica,sans-Serif" font-size="10.00">_init_param</text>
</a>
</g>
</g>
<!-- Node7&#45;&gt;Node1 -->
<g id="edge10_Node000001_Node000007" class="edge">
<title>Node7&#45;&gt;Node1</title>
<g id="a_edge10_Node000001_Node000007"><a xlink:title=" ">
<path fill="none" stroke="#9a32cd" stroke-dasharray="5,2" d="M876.08,-108.08C916.59,-104.6 968.92,-100.1 1008.85,-96.67"/>
<polygon fill="#9a32cd" stroke="#9a32cd" points="875.71,-104.6 866.04,-108.94 876.31,-111.57 875.71,-104.6"/>
</a>
</g>
<text text-anchor="middle" x="943.5" y="-108.5" font-family="Helvetica,sans-Serif" font-size="10.00" fill="grey"> offload_init_param</text>
</g>
<!-- Node8 -->
<g id="Node000008" class="node">
<title>Node8</title>
<g id="a_Node000008"><a xlink:href="structno__os__pwm__init__param.html" target="_top" xlink:title="Structure containing the init parameters needed by the PWM generator.">
<polygon fill="white" stroke="#666666" points="878,-33 746,-33 746,-14 878,-14 878,-33"/>
<text text-anchor="middle" x="812" y="-21" font-family="Helvetica,sans-Serif" font-size="10.00">no_os_pwm_init_param</text>
</a>
</g>
</g>
<!-- Node8&#45;&gt;Node1 -->
<g id="edge11_Node000001_Node000008" class="edge">
<title>Node8&#45;&gt;Node1</title>
<g id="a_edge11_Node000001_Node000008"><a xlink:title=" ">
<path fill="none" stroke="#9a32cd" stroke-dasharray="5,2" d="M888.58,-25.34C920.83,-27.92 958.46,-33.36 991,-44.5 1016.28,-53.15 1042.17,-70.87 1056.86,-81.9"/>
<polygon fill="#9a32cd" stroke="#9a32cd" points="888.54,-21.83 878.31,-24.6 888.03,-28.81 888.54,-21.83"/>
</a>
</g>
<text text-anchor="middle" x="943.5" y="-47.5" font-family="Helvetica,sans-Serif" font-size="10.00" fill="grey"> trigger_pwm_init</text>
</g>
<!-- Node9 -->
<g id="Node000009" class="node">
<title>Node9</title>
<g id="a_Node000009"><a xlink:href="structno__os__gpio__init__param.html" target="_top" xlink:title="Structure holding the parameters for GPIO initialization.">
<polygon fill="white" stroke="#666666" points="634.5,-57 505.5,-57 505.5,-38 634.5,-38 634.5,-57"/>
<text text-anchor="middle" x="570" y="-45" font-family="Helvetica,sans-Serif" font-size="10.00">no_os_gpio_init_param</text>
</a>
</g>
</g>
<!-- Node9&#45;&gt;Node1 -->
<g id="edge15_Node000001_Node000009" class="edge">
<title>Node9&#45;&gt;Node1</title>
<g id="a_edge15_Node000001_Node000009"><a xlink:title=" ">
<path fill="none" stroke="#9a32cd" stroke-dasharray="5,2" d="M644.79,-54.02C743.74,-62.76 917.51,-78.11 1008.91,-86.19"/>
<polygon fill="#9a32cd" stroke="#9a32cd" points="644.85,-50.51 634.58,-53.12 644.23,-57.48 644.85,-50.51"/>
</a>
</g>
<text text-anchor="middle" x="812" y="-77.5" font-family="Helvetica,sans-Serif" font-size="10.00" fill="grey"> gpio_pd_ldo</text>
</g>
<!-- Node9&#45;&gt;Node8 -->
<g id="edge12_Node000008_Node000009" class="edge">
<title>Node9&#45;&gt;Node8</title>
<g id="a_edge12_Node000008_Node000009"><a xlink:title=" ">
<path fill="none" stroke="#9a32cd" stroke-dasharray="5,2" d="M644.95,-40.11C677.16,-36.88 714.6,-33.14 745.76,-30.02"/>
<polygon fill="#9a32cd" stroke="#9a32cd" points="644.29,-36.65 634.69,-41.13 644.98,-43.62 644.29,-36.65"/>
</a>
</g>
<text text-anchor="middle" x="694" y="-40.5" font-family="Helvetica,sans-Serif" font-size="10.00" fill="grey"> pwm_gpio</text>
</g>
<!-- Node10 -->
<g id="Node000010" class="node">
<title>Node10</title>
<g id="a_Node000010"><a xlink:href="structno__os__gpio__platform__ops.html" target="_top" xlink:title="Structure holding gpio function pointers that point to the platform specific function.">
<polygon fill="white" stroke="#666666" points="379,-57 238,-57 238,-38 379,-38 379,-57"/>
<text text-anchor="middle" x="308.5" y="-45" font-family="Helvetica,sans-Serif" font-size="10.00">no_os_gpio_platform_ops</text>
</a>
</g>
</g>
<!-- Node10&#45;&gt;Node9 -->
<g id="edge13_Node000009_Node000010" class="edge">
<title>Node10&#45;&gt;Node9</title>
<g id="a_edge13_Node000009_Node000010"><a xlink:title=" ">
<path fill="none" stroke="#9a32cd" stroke-dasharray="5,2" d="M389.38,-47.5C426.69,-47.5 470.49,-47.5 505.49,-47.5"/>
<polygon fill="#9a32cd" stroke="#9a32cd" points="389.04,-44 379.04,-47.5 389.04,-51 389.04,-44"/>
</a>
</g>
<text text-anchor="middle" x="438.5" y="-50.5" font-family="Helvetica,sans-Serif" font-size="10.00" fill="grey"> platform_ops</text>
</g>
<!-- Node11 -->
<g id="Node000011" class="node">
<title>Node11</title>
<g id="a_Node000011"><a xlink:href="structno__os__pwm__platform__ops.html" target="_top" xlink:title="Structure holding PWM function pointers that point to the platform specific function.">
<polygon fill="white" stroke="#666666" points="642,-19 498,-19 498,0 642,0 642,-19"/>
<text text-anchor="middle" x="570" y="-7" font-family="Helvetica,sans-Serif" font-size="10.00">no_os_pwm_platform_ops</text>
</a>
</g>
</g>
<!-- Node11&#45;&gt;Node8 -->
<g id="edge14_Node000008_Node000011" class="edge">
<title>Node11&#45;&gt;Node8</title>
<g id="a_edge14_Node000008_Node000011"><a xlink:title=" ">
<path fill="none" stroke="#9a32cd" stroke-dasharray="5,2" d="M652.49,-7.72C676.81,-7.8 703.51,-8.52 728,-10.5 737.74,-11.29 748.07,-12.56 758.01,-14"/>
<polygon fill="#9a32cd" stroke="#9a32cd" points="652.22,-4.22 642.22,-7.71 652.22,-11.22 652.22,-4.22"/>
</a>
</g>
<text text-anchor="middle" x="694" y="-13.5" font-family="Helvetica,sans-Serif" font-size="10.00" fill="grey"> platform_ops</text>
</g>
</g>
</svg>
