<?xml version="1.0" encoding="UTF-8" standalone="no"?>
<!DOCTYPE svg PUBLIC "-//W3C//DTD SVG 1.1//EN"
 "http://www.w3.org/Graphics/SVG/1.1/DTD/svg11.dtd">
<!-- Generated by graphviz version 2.43.0 (0)
 -->
<!-- Title: ltm4686_iio_desc Pages: 1 -->
<svg width="988pt" height="259pt"
 viewBox="0.00 0.00 988.00 259.07" xmlns="http://www.w3.org/2000/svg" xmlns:xlink="http://www.w3.org/1999/xlink">
<g id="graph0" class="graph" transform="scale(1 1) rotate(0) translate(4 255.07)">
<title>ltm4686_iio_desc</title>
<!-- Node1 -->
<g id="Node000001" class="node">
<title>Node1</title>
<g id="a_Node000001"><a xlink:title="Structure holding the LTM4686 IIO device descriptor.">
<polygon fill="#999999" stroke="#666666" points="980,-114.57 878,-114.57 878,-95.57 980,-95.57 980,-114.57"/>
<text text-anchor="middle" x="929" y="-102.57" font-family="Helvetica,sans-Serif" font-size="10.00">ltm4686_iio_desc</text>
</a>
</g>
</g>
<!-- Node2 -->
<g id="Node000002" class="node">
<title>Node2</title>
<g id="a_Node000002"><a xlink:href="structltm4686__dev.html" target="_top" xlink:title=" ">
<polygon fill="white" stroke="#666666" points="775,-151.57 695,-151.57 695,-132.57 775,-132.57 775,-151.57"/>
<text text-anchor="middle" x="735" y="-139.57" font-family="Helvetica,sans-Serif" font-size="10.00">ltm4686_dev</text>
</a>
</g>
</g>
<!-- Node2&#45;&gt;Node1 -->
<g id="edge1_Node000001_Node000002" class="edge">
<title>Node2&#45;&gt;Node1</title>
<g id="a_edge1_Node000001_Node000002"><a xlink:title=" ">
<path fill="none" stroke="#9a32cd" stroke-dasharray="5,2" d="M785.49,-132.53C814.07,-127.03 849.89,-120.12 878.48,-114.62"/>
<polygon fill="#9a32cd" stroke="#9a32cd" points="784.47,-129.17 775.32,-134.5 785.8,-136.04 784.47,-129.17"/>
</a>
</g>
<text text-anchor="middle" x="826.5" y="-133.07" font-family="Helvetica,sans-Serif" font-size="10.00" fill="grey"> ltm4686_dev</text>
</g>
<!-- Node3 -->
<g id="Node000003" class="node">
<title>Node3</title>
<g id="a_Node000003"><a xlink:href="structno__os__i2c__desc.html" target="_top" xlink:title="Structure holding I2C address descriptor.">
<polygon fill="white" stroke="#666666" points="585,-218.57 493,-218.57 493,-199.57 585,-199.57 585,-218.57"/>
<text text-anchor="middle" x="539" y="-206.57" font-family="Helvetica,sans-Serif" font-size="10.00">no_os_i2c_desc</text>
</a>
</g>
</g>
<!-- Node3&#45;&gt;Node2 -->
<g id="edge2_Node000002_Node000003" class="edge">
<title>Node3&#45;&gt;Node2</title>
<g id="a_edge2_Node000002_Node000003"><a xlink:title=" ">
<path fill="none" stroke="#9a32cd" stroke-dasharray="5,2" d="M595.09,-206.62C620.84,-203.89 651.39,-198.32 677,-187.07 696.16,-178.66 714.44,-162.23 724.92,-151.73"/>
<polygon fill="#9a32cd" stroke="#9a32cd" points="594.74,-203.13 585.11,-207.56 595.4,-210.1 594.74,-203.13"/>
</a>
</g>
<text text-anchor="middle" x="645" y="-206.07" font-family="Helvetica,sans-Serif" font-size="10.00" fill="grey"> i2c_desc</text>
</g>
<!-- Node4 -->
<g id="Node000004" class="node">
<title>Node4</title>
<g id="a_Node000004"><a xlink:href="structno__os__i2cbus__desc.html" target="_top" xlink:title="Structure holding I2C bus descriptor.">
<polygon fill="white" stroke="#666666" points="363.5,-218.57 253.5,-218.57 253.5,-199.57 363.5,-199.57 363.5,-218.57"/>
<text text-anchor="middle" x="308.5" y="-206.57" font-family="Helvetica,sans-Serif" font-size="10.00">no_os_i2cbus_desc</text>
</a>
</g>
</g>
<!-- Node4&#45;&gt;Node3 -->
<g id="edge3_Node000003_Node000004" class="edge">
<title>Node4&#45;&gt;Node3</title>
<g id="a_edge3_Node000003_Node000004"><a xlink:title=" ">
<path fill="none" stroke="#9a32cd" stroke-dasharray="5,2" d="M374.07,-209.07C411.91,-209.07 458.78,-209.07 492.7,-209.07"/>
<polygon fill="#9a32cd" stroke="#9a32cd" points="373.65,-205.57 363.65,-209.07 373.65,-212.57 373.65,-205.57"/>
</a>
</g>
<text text-anchor="middle" x="431" y="-212.07" font-family="Helvetica,sans-Serif" font-size="10.00" fill="grey"> bus</text>
</g>
<!-- Node5 -->
<g id="Node000005" class="node">
<title>Node5</title>
<g id="a_Node000005"><a xlink:href="structno__os__i2c__platform__ops.html" target="_top" xlink:title="Structure holding I2C function pointers that point to the platform specific function.">
<polygon fill="white" stroke="#666666" points="134,-241.57 0,-241.57 0,-222.57 134,-222.57 134,-241.57"/>
<text text-anchor="middle" x="67" y="-229.57" font-family="Helvetica,sans-Serif" font-size="10.00">no_os_i2c_platform_ops</text>
</a>
</g>
</g>
<!-- Node5&#45;&gt;Node3 -->
<g id="edge5_Node000003_Node000005" class="edge">
<title>Node5&#45;&gt;Node3</title>
<g id="a_edge5_Node000003_Node000005"><a xlink:title=" ">
<path fill="none" stroke="#9a32cd" stroke-dasharray="5,2" d="M144.22,-237.75C146.84,-237.87 149.44,-237.98 152,-238.07 291.16,-243.04 326.92,-242.11 465,-224.07 475.39,-222.71 486.52,-220.71 496.87,-218.61"/>
<polygon fill="#9a32cd" stroke="#9a32cd" points="144.17,-234.25 134.01,-237.23 143.81,-241.24 144.17,-234.25"/>
</a>
</g>
<text text-anchor="middle" x="308.5" y="-243.07" font-family="Helvetica,sans-Serif" font-size="10.00" fill="grey"> platform_ops</text>
</g>
<!-- Node5&#45;&gt;Node4 -->
<g id="edge4_Node000004_Node000005" class="edge">
<title>Node5&#45;&gt;Node4</title>
<g id="a_edge4_Node000004_Node000005"><a xlink:title=" ">
<path fill="none" stroke="#9a32cd" stroke-dasharray="5,2" d="M144.39,-224.74C179.85,-221.33 221.16,-217.36 253.34,-214.27"/>
<polygon fill="#9a32cd" stroke="#9a32cd" points="143.7,-221.29 134.08,-225.73 144.37,-228.25 143.7,-221.29"/>
</a>
</g>
<text text-anchor="middle" x="186" y="-226.07" font-family="Helvetica,sans-Serif" font-size="10.00" fill="grey"> platform_ops</text>
</g>
<!-- Node6 -->
<g id="Node000006" class="node">
<title>Node6</title>
<g id="a_Node000006"><a xlink:href="structno__os__gpio__desc.html" target="_top" xlink:title="Structure holding the GPIO descriptor.">
<polygon fill="white" stroke="#666666" points="588.5,-181.57 489.5,-181.57 489.5,-162.57 588.5,-162.57 588.5,-181.57"/>
<text text-anchor="middle" x="539" y="-169.57" font-family="Helvetica,sans-Serif" font-size="10.00">no_os_gpio_desc</text>
</a>
</g>
</g>
<!-- Node6&#45;&gt;Node2 -->
<g id="edge6_Node000002_Node000006" class="edge">
<title>Node6&#45;&gt;Node2</title>
<g id="a_edge6_Node000002_Node000006"><a xlink:title=" ">
<path fill="none" stroke="#9a32cd" stroke-dasharray="5,2" d="M567.73,-158.24C581.07,-152.33 597.49,-146.11 613,-143.07 640.01,-137.79 671.06,-137.65 694.94,-138.77"/>
<polygon fill="#9a32cd" stroke="#9a32cd" points="566.24,-155.08 558.63,-162.44 569.17,-161.43 566.24,-155.08"/>
</a>
</g>
<text text-anchor="middle" x="645" y="-179.07" font-family="Helvetica,sans-Serif" font-size="10.00" fill="grey"> alert_desc</text>
<text text-anchor="middle" x="645" y="-168.07" font-family="Helvetica,sans-Serif" font-size="10.00" fill="grey">fault_descs</text>
<text text-anchor="middle" x="645" y="-157.07" font-family="Helvetica,sans-Serif" font-size="10.00" fill="grey">pgood_descs</text>
<text text-anchor="middle" x="645" y="-146.07" font-family="Helvetica,sans-Serif" font-size="10.00" fill="grey">run_descs</text>
</g>
<!-- Node7 -->
<g id="Node000007" class="node">
<title>Node7</title>
<g id="a_Node000007"><a xlink:href="structno__os__gpio__platform__ops.html" target="_top" xlink:title="Structure holding gpio function pointers that point to the platform specific function.">
<polygon fill="white" stroke="#666666" points="379,-181.57 238,-181.57 238,-162.57 379,-162.57 379,-181.57"/>
<text text-anchor="middle" x="308.5" y="-169.57" font-family="Helvetica,sans-Serif" font-size="10.00">no_os_gpio_platform_ops</text>
</a>
</g>
</g>
<!-- Node7&#45;&gt;Node6 -->
<g id="edge7_Node000006_Node000007" class="edge">
<title>Node7&#45;&gt;Node6</title>
<g id="a_edge7_Node000006_Node000007"><a xlink:title=" ">
<path fill="none" stroke="#9a32cd" stroke-dasharray="5,2" d="M389.47,-172.07C422.72,-172.07 460.24,-172.07 489.26,-172.07"/>
<polygon fill="#9a32cd" stroke="#9a32cd" points="389.3,-168.57 379.3,-172.07 389.3,-175.57 389.3,-168.57"/>
</a>
</g>
<text text-anchor="middle" x="431" y="-175.07" font-family="Helvetica,sans-Serif" font-size="10.00" fill="grey"> platform_ops</text>
</g>
<!-- Node8 -->
<g id="Node000008" class="node">
<title>Node8</title>
<g id="a_Node000008"><a xlink:href="structiio__device.html" target="_top" xlink:title="Structure holding channels and attributes of a device.">
<polygon fill="white" stroke="#666666" points="768,-96.57 702,-96.57 702,-77.57 768,-77.57 768,-96.57"/>
<text text-anchor="middle" x="735" y="-84.57" font-family="Helvetica,sans-Serif" font-size="10.00">iio_device</text>
</a>
</g>
</g>
<!-- Node8&#45;&gt;Node1 -->
<g id="edge8_Node000001_Node000008" class="edge">
<title>Node8&#45;&gt;Node1</title>
<g id="a_edge8_Node000001_Node000008"><a xlink:title=" ">
<path fill="none" stroke="#9a32cd" stroke-dasharray="5,2" d="M778.44,-86.08C802.46,-86.02 833,-86.8 860,-90.07 870.08,-91.29 880.87,-93.33 890.81,-95.51"/>
<polygon fill="#9a32cd" stroke="#9a32cd" points="778.21,-82.58 768.24,-86.16 778.26,-89.58 778.21,-82.58"/>
</a>
</g>
<text text-anchor="middle" x="826.5" y="-93.07" font-family="Helvetica,sans-Serif" font-size="10.00" fill="grey"> iio_dev</text>
</g>
<!-- Node9 -->
<g id="Node000009" class="node">
<title>Node9</title>
<g id="a_Node000009"><a xlink:href="structno__os__irq__ctrl__desc.html" target="_top" xlink:title=" ">
<polygon fill="white" stroke="#666666" points="595,-130.57 483,-130.57 483,-111.57 595,-111.57 595,-130.57"/>
<text text-anchor="middle" x="539" y="-118.57" font-family="Helvetica,sans-Serif" font-size="10.00">no_os_irq_ctrl_desc</text>
</a>
</g>
</g>
<!-- Node9&#45;&gt;Node8 -->
<g id="edge9_Node000008_Node000009" class="edge">
<title>Node9&#45;&gt;Node8</title>
<g id="a_edge9_Node000008_Node000009"><a xlink:title=" ">
<path fill="none" stroke="#9a32cd" stroke-dasharray="5,2" d="M604.26,-109.81C637,-104.07 675.39,-97.34 701.87,-92.7"/>
<polygon fill="#9a32cd" stroke="#9a32cd" points="603.54,-106.38 594.3,-111.56 604.75,-113.28 603.54,-106.38"/>
</a>
</g>
<text text-anchor="middle" x="645" y="-111.07" font-family="Helvetica,sans-Serif" font-size="10.00" fill="grey"> irq_desc</text>
</g>
<!-- Node10 -->
<g id="Node000010" class="node">
<title>Node10</title>
<g id="a_Node000010"><a xlink:href="structno__os__irq__platform__ops.html" target="_top" xlink:title="Structure holding IRQ function pointers that point to the platform specific function.">
<polygon fill="white" stroke="#666666" points="375,-144.57 242,-144.57 242,-125.57 375,-125.57 375,-144.57"/>
<text text-anchor="middle" x="308.5" y="-132.57" font-family="Helvetica,sans-Serif" font-size="10.00">no_os_irq_platform_ops</text>
</a>
</g>
</g>
<!-- Node10&#45;&gt;Node9 -->
<g id="edge10_Node000009_Node000010" class="edge">
<title>Node10&#45;&gt;Node9</title>
<g id="a_edge10_Node000009_Node000010"><a xlink:title=" ">
<path fill="none" stroke="#9a32cd" stroke-dasharray="5,2" d="M385.44,-130.42C417.24,-128.47 453.51,-126.25 482.71,-124.46"/>
<polygon fill="#9a32cd" stroke="#9a32cd" points="385.05,-126.94 375.29,-131.04 385.48,-133.92 385.05,-126.94"/>
</a>
</g>
<text text-anchor="middle" x="431" y="-132.07" font-family="Helvetica,sans-Serif" font-size="10.00" fill="grey"> platform_ops</text>
</g>
<!-- Node11 -->
<g id="Node000011" class="node">
<title>Node11</title>
<g id="a_Node000011"><a xlink:href="structiio__channel.html" target="_top" xlink:title="Struct describing the scan type.">
<polygon fill="white" stroke="#666666" points="575,-75.57 503,-75.57 503,-56.57 575,-56.57 575,-75.57"/>
<text text-anchor="middle" x="539" y="-63.57" font-family="Helvetica,sans-Serif" font-size="10.00">iio_channel</text>
</a>
</g>
</g>
<!-- Node11&#45;&gt;Node8 -->
<g id="edge11_Node000008_Node000011" class="edge">
<title>Node11&#45;&gt;Node8</title>
<g id="a_edge11_Node000008_Node000011"><a xlink:title=" ">
<path fill="none" stroke="#9a32cd" stroke-dasharray="5,2" d="M585.3,-66.83C612.08,-67.75 646.6,-69.75 677,-74.07 685.14,-75.23 693.83,-76.96 701.92,-78.78"/>
<polygon fill="#9a32cd" stroke="#9a32cd" points="585.17,-63.33 575.07,-66.52 584.96,-70.32 585.17,-63.33"/>
</a>
</g>
<text text-anchor="middle" x="645" y="-77.07" font-family="Helvetica,sans-Serif" font-size="10.00" fill="grey"> channels</text>
</g>
<!-- Node12 -->
<g id="Node000012" class="node">
<title>Node12</title>
<g id="a_Node000012"><a xlink:href="structiio__chan__type.html" target="_top" xlink:title="IIO channel types.">
<polygon fill="white" stroke="#666666" points="350.5,-107.57 266.5,-107.57 266.5,-88.57 350.5,-88.57 350.5,-107.57"/>
<text text-anchor="middle" x="308.5" y="-95.57" font-family="Helvetica,sans-Serif" font-size="10.00">iio_chan_type</text>
</a>
</g>
</g>
<!-- Node12&#45;&gt;Node11 -->
<g id="edge12_Node000011_Node000012" class="edge">
<title>Node12&#45;&gt;Node11</title>
<g id="a_edge12_Node000011_Node000012"><a xlink:title=" ">
<path fill="none" stroke="#9a32cd" stroke-dasharray="5,2" d="M360.67,-90.91C403.95,-84.84 464.84,-76.32 502.83,-71"/>
<polygon fill="#9a32cd" stroke="#9a32cd" points="360.03,-87.46 350.62,-92.31 361,-94.39 360.03,-87.46"/>
</a>
</g>
<text text-anchor="middle" x="431" y="-87.07" font-family="Helvetica,sans-Serif" font-size="10.00" fill="grey"> ch_type</text>
</g>
<!-- Node13 -->
<g id="Node000013" class="node">
<title>Node13</title>
<g id="a_Node000013"><a xlink:href="structscan__type.html" target="_top" xlink:title=" ">
<polygon fill="white" stroke="#666666" points="341.5,-70.57 275.5,-70.57 275.5,-51.57 341.5,-51.57 341.5,-70.57"/>
<text text-anchor="middle" x="308.5" y="-58.57" font-family="Helvetica,sans-Serif" font-size="10.00">scan_type</text>
</a>
</g>
</g>
<!-- Node13&#45;&gt;Node11 -->
<g id="edge13_Node000011_Node000013" class="edge">
<title>Node13&#45;&gt;Node11</title>
<g id="a_edge13_Node000011_Node000013"><a xlink:title=" ">
<path fill="none" stroke="#9a32cd" stroke-dasharray="5,2" d="M352.01,-62C395.51,-62.95 462.32,-64.42 502.91,-65.3"/>
<polygon fill="#9a32cd" stroke="#9a32cd" points="351.83,-58.5 341.75,-61.78 351.67,-65.5 351.83,-58.5"/>
</a>
</g>
<text text-anchor="middle" x="431" y="-67.07" font-family="Helvetica,sans-Serif" font-size="10.00" fill="grey"> scan_type</text>
</g>
<!-- Node14 -->
<g id="Node000014" class="node">
<title>Node14</title>
<g id="a_Node000014"><a xlink:href="structiio__attribute.html" target="_top" xlink:title="Structure holding pointers to show and store functions.">
<polygon fill="white" stroke="#666666" points="346.5,-20.57 270.5,-20.57 270.5,-1.57 346.5,-1.57 346.5,-20.57"/>
<text text-anchor="middle" x="308.5" y="-8.57" font-family="Helvetica,sans-Serif" font-size="10.00">iio_attribute</text>
</a>
</g>
</g>
<!-- Node14&#45;&gt;Node8 -->
<g id="edge15_Node000008_Node000014" class="edge">
<title>Node14&#45;&gt;Node8</title>
<g id="a_edge15_Node000008_Node000014"><a xlink:title=" ">
<path fill="none" stroke="#9a32cd" stroke-dasharray="5,2" d="M356.92,-5.17C414.27,0.48 513.3,5.44 595,-15.07 644.82,-27.58 696.84,-60.86 720.66,-77.43"/>
<polygon fill="#9a32cd" stroke="#9a32cd" points="356.29,-1.71 346.71,-6.23 357.01,-8.68 356.29,-1.71"/>
</a>
</g>
<text text-anchor="middle" x="539" y="-40.07" font-family="Helvetica,sans-Serif" font-size="10.00" fill="grey"> attributes</text>
<text text-anchor="middle" x="539" y="-29.07" font-family="Helvetica,sans-Serif" font-size="10.00" fill="grey">buffer_attributes</text>
<text text-anchor="middle" x="539" y="-18.07" font-family="Helvetica,sans-Serif" font-size="10.00" fill="grey">debug_attributes</text>
</g>
<!-- Node14&#45;&gt;Node11 -->
<g id="edge14_Node000011_Node000014" class="edge">
<title>Node14&#45;&gt;Node11</title>
<g id="a_edge14_Node000011_Node000014"><a xlink:title=" ">
<path fill="none" stroke="#9a32cd" stroke-dasharray="5,2" d="M356.64,-22.18C387.48,-29.48 428.65,-39.27 465,-48.07 477.31,-51.05 490.77,-54.36 502.74,-57.32"/>
<polygon fill="#9a32cd" stroke="#9a32cd" points="357.13,-18.7 346.59,-19.81 355.52,-25.52 357.13,-18.7"/>
</a>
</g>
<text text-anchor="middle" x="431" y="-51.07" font-family="Helvetica,sans-Serif" font-size="10.00" fill="grey"> attributes</text>
</g>
</g>
</svg>
