<?xml version="1.0" encoding="UTF-8" standalone="no"?>
<!DOCTYPE svg PUBLIC "-//W3C//DTD SVG 1.1//EN"
 "http://www.w3.org/Graphics/SVG/1.1/DTD/svg11.dtd">
<!-- Generated by graphviz version 2.43.0 (0)
 -->
<!-- Title: max22017_iio_desc Pages: 1 -->
<!--zoomable 322 -->

<svg id="main" version="1.1" xmlns="http://www.w3.org/2000/svg" xmlns:xlink="http://www.w3.org/1999/xlink" xml:space="preserve" onload="init(evt)">

<style type="text/css"><![CDATA[
.node, .edge {opacity: 0.7;}
.node.selected, .edge.selected {opacity: 1;}
.edge:hover path { stroke: red; }
.edge:hover polygon { stroke: red; fill: red; }
]]></style>

<defs>
  <circle id="rim" cx="0" cy="0" r="7"/>
  <circle id="rim2" cx="0" cy="0" r="3.5"/>
  <g id="zoomPlus">
    <use xlink:href="#rim" fill="#404040"><set attributeName="fill" to="#808080" begin="zoomplus.mouseover" end="zoomplus.mouseout"/></use>
    <path d="M-4,0h8M0,-4v8" fill="none" stroke="white" stroke-width="1.5" pointer-events="none"/>
  </g>
  <g id="zoomMin">
    <use xlink:href="#rim" fill="#404040"><set attributeName="fill" to="#808080" begin="zoomminus.mouseover" end="zoomminus.mouseout"/></use>
    <path d="M-4,0h8" fill="none" stroke="white" stroke-width="1.5" pointer-events="none"/>
  </g>
  <g id="arrowUp" transform="translate(30 24)">
    <use xlink:href="#rim"/>
    <path pointer-events="none" fill="none" stroke="white" stroke-width="1.5" d="M0,-3.0v7 M-2.5,-0.5L0,-3.0L2.5,-0.5"/>
  </g>
  <g id="arrowRight" transform="rotate(90) translate(36 -43)">
    <use xlink:href="#rim"/>
    <path pointer-events="none" fill="none" stroke="white" stroke-width="1.5" d="M0,-3.0v7 M-2.5,-0.5L0,-3.0L2.5,-0.5"/>
  </g>
  <g id="arrowDown" transform="rotate(180) translate(-30 -48)">
    <use xlink:href="#rim"/>
    <path pointer-events="none" fill="none" stroke="white" stroke-width="1.5" d="M0,-3.0v7 M-2.5,-0.5L0,-3.0L2.5,-0.5"/>
  </g>
  <g id="arrowLeft" transform="rotate(270) translate(-36 17)">
    <use xlink:href="#rim"/>
    <path pointer-events="none" fill="none" stroke="white" stroke-width="1.5" d="M0,-3.0v7 M-2.5,-0.5L0,-3.0L2.5,-0.5"/>
  </g>
  <g id="resetDef">
    <use xlink:href="#rim2" fill="#404040"><set attributeName="fill" to="#808080" begin="reset.mouseover" end="reset.mouseout"/></use>
  </g>
</defs>
<script type="application/ecmascript">
var viewWidth = 1044;
var viewHeight = 322;
var sectionId = 'dynsection-0';
</script>
<script type="application/ecmascript" xlink:href="svg.min.js"/>
<svg id="graph" class="graph">
<g id="viewport">
<title>max22017_iio_desc</title>
<!-- Node1 -->
<g id="Node000001" class="node">
<title>Node1</title>
<g id="a_Node000001"><a xlink:title="Structure holding the MAX22017 IIO descriptor.">
<polygon fill="#999999" stroke="#666666" points="1036,-169 923,-169 923,-150 1036,-150 1036,-169"/>
<text text-anchor="middle" x="979.5" y="-157" font-family="Helvetica,sans-Serif" font-size="10.00">max22017_iio_desc</text>
</a>
</g>
</g>
<!-- Node2 -->
<g id="Node000002" class="node">
<title>Node2</title>
<g id="a_Node000002"><a xlink:href="structmax22017__desc.html" target="_top" xlink:title="Structure holding the MAX22017 device descriptor.">
<polygon fill="white" stroke="#666666" points="804,-229 708,-229 708,-210 804,-210 804,-229"/>
<text text-anchor="middle" x="756" y="-217" font-family="Helvetica,sans-Serif" font-size="10.00">max22017_desc</text>
</a>
</g>
</g>
<!-- Node2&#45;&gt;Node1 -->
<g id="edge1_Node000001_Node000002" class="edge">
<title>Node2&#45;&gt;Node1</title>
<g id="a_edge1_Node000001_Node000002"><a xlink:title=" ">
<path fill="none" stroke="#9a32cd" stroke-dasharray="5,2" d="M801.99,-207.31C843.7,-196.01 904.92,-179.43 943.2,-169.06"/>
<polygon fill="#9a32cd" stroke="#9a32cd" points="800.83,-204 792.1,-209.99 802.66,-210.76 800.83,-204"/>
</a>
</g>
<text text-anchor="middle" x="863.5" y="-204.5" font-family="Helvetica,sans-Serif" font-size="10.00" fill="grey"> max22017_desc</text>
</g>
<!-- Node3 -->
<g id="Node000003" class="node">
<title>Node3</title>
<g id="a_Node000003"><a xlink:href="structno__os__gpio__desc.html" target="_top" xlink:title="Structure holding the GPIO descriptor.">
<polygon fill="white" stroke="#666666" points="603.5,-304 504.5,-304 504.5,-285 603.5,-285 603.5,-304"/>
<text text-anchor="middle" x="554" y="-292" font-family="Helvetica,sans-Serif" font-size="10.00">no_os_gpio_desc</text>
</a>
</g>
</g>
<!-- Node3&#45;&gt;Node2 -->
<g id="edge2_Node000002_Node000003" class="edge">
<title>Node3&#45;&gt;Node2</title>
<g id="a_edge2_Node000002_Node000003"><a xlink:title=" ">
<path fill="none" stroke="#9a32cd" stroke-dasharray="5,2" d="M590.32,-281.26C630.17,-266.31 694.01,-242.37 729.36,-229.11"/>
<polygon fill="#9a32cd" stroke="#9a32cd" points="588.87,-278.06 580.74,-284.85 591.33,-284.61 588.87,-278.06"/>
</a>
</g>
<text text-anchor="middle" x="659" y="-301.5" font-family="Helvetica,sans-Serif" font-size="10.00" fill="grey"> busy_desc</text>
<text text-anchor="middle" x="659" y="-290.5" font-family="Helvetica,sans-Serif" font-size="10.00" fill="grey">fault_desc</text>
<text text-anchor="middle" x="659" y="-279.5" font-family="Helvetica,sans-Serif" font-size="10.00" fill="grey">ldac_desc</text>
<text text-anchor="middle" x="659" y="-268.5" font-family="Helvetica,sans-Serif" font-size="10.00" fill="grey">rstb_desc</text>
</g>
<!-- Node4 -->
<g id="Node000004" class="node">
<title>Node4</title>
<g id="a_Node000004"><a xlink:href="structno__os__gpio__platform__ops.html" target="_top" xlink:title="Structure holding gpio function pointers that point to the platform specific function.">
<polygon fill="white" stroke="#666666" points="379,-314 238,-314 238,-295 379,-295 379,-314"/>
<text text-anchor="middle" x="308.5" y="-302" font-family="Helvetica,sans-Serif" font-size="10.00">no_os_gpio_platform_ops</text>
</a>
</g>
</g>
<!-- Node4&#45;&gt;Node3 -->
<g id="edge3_Node000003_Node000004" class="edge">
<title>Node4&#45;&gt;Node3</title>
<g id="a_edge3_Node000003_Node000004"><a xlink:title=" ">
<path fill="none" stroke="#9a32cd" stroke-dasharray="5,2" d="M389.31,-301.22C427.33,-299.66 471.56,-297.84 504.45,-296.49"/>
<polygon fill="#9a32cd" stroke="#9a32cd" points="389.13,-297.73 379.28,-301.63 389.41,-304.72 389.13,-297.73"/>
</a>
</g>
<text text-anchor="middle" x="438.5" y="-303.5" font-family="Helvetica,sans-Serif" font-size="10.00" fill="grey"> platform_ops</text>
</g>
<!-- Node5 -->
<g id="Node000005" class="node">
<title>Node5</title>
<g id="a_Node000005"><a xlink:href="structno__os__spi__desc.html" target="_top" xlink:title="Structure holding SPI descriptor.">
<polygon fill="white" stroke="#666666" points="600,-229 508,-229 508,-210 600,-210 600,-229"/>
<text text-anchor="middle" x="554" y="-217" font-family="Helvetica,sans-Serif" font-size="10.00">no_os_spi_desc</text>
</a>
</g>
</g>
<!-- Node5&#45;&gt;Node2 -->
<g id="edge4_Node000002_Node000005" class="edge">
<title>Node5&#45;&gt;Node2</title>
<g id="a_edge4_Node000002_Node000005"><a xlink:title=" ">
<path fill="none" stroke="#9a32cd" stroke-dasharray="5,2" d="M610.46,-219.5C641.02,-219.5 678.55,-219.5 707.71,-219.5"/>
<polygon fill="#9a32cd" stroke="#9a32cd" points="610.38,-216 600.38,-219.5 610.38,-223 610.38,-216"/>
</a>
</g>
<text text-anchor="middle" x="659" y="-222.5" font-family="Helvetica,sans-Serif" font-size="10.00" fill="grey"> comm_desc</text>
</g>
<!-- Node5&#45;&gt;Node5 -->
<g id="edge9_Node000005_Node000005" class="edge">
<title>Node5&#45;&gt;Node5</title>
<g id="a_edge9_Node000005_Node000005"><a xlink:title=" ">
<path fill="none" stroke="#9a32cd" stroke-dasharray="5,2" d="M534.74,-238.55C536.03,-243.38 542.45,-247 554,-247 572.48,-247 577.83,-237.73 570.03,-229.08"/>
<polygon fill="#9a32cd" stroke="#9a32cd" points="538.06,-239.68 537.97,-229.08 531.43,-237.42 538.06,-239.68"/>
</a>
</g>
<text text-anchor="middle" x="554" y="-250" font-family="Helvetica,sans-Serif" font-size="10.00" fill="grey"> parent</text>
</g>
<!-- Node6 -->
<g id="Node000006" class="node">
<title>Node6</title>
<g id="a_Node000006"><a xlink:href="structno__os__spibus__desc.html" target="_top" xlink:title="SPI bus descriptor.">
<polygon fill="white" stroke="#666666" points="363.5,-229 253.5,-229 253.5,-210 363.5,-210 363.5,-229"/>
<text text-anchor="middle" x="308.5" y="-217" font-family="Helvetica,sans-Serif" font-size="10.00">no_os_spibus_desc</text>
</a>
</g>
</g>
<!-- Node6&#45;&gt;Node5 -->
<g id="edge5_Node000005_Node000006" class="edge">
<title>Node6&#45;&gt;Node5</title>
<g id="a_edge5_Node000005_Node000006"><a xlink:title=" ">
<path fill="none" stroke="#9a32cd" stroke-dasharray="5,2" d="M373.71,-219.5C415.87,-219.5 469.99,-219.5 507.69,-219.5"/>
<polygon fill="#9a32cd" stroke="#9a32cd" points="373.54,-216 363.54,-219.5 373.54,-223 373.54,-216"/>
</a>
</g>
<text text-anchor="middle" x="438.5" y="-222.5" font-family="Helvetica,sans-Serif" font-size="10.00" fill="grey"> bus</text>
</g>
<!-- Node7 -->
<g id="Node000007" class="node">
<title>Node7</title>
<g id="a_Node000007"><a xlink:href="structno__os__spi__platform__ops.html" target="_top" xlink:title="Structure holding SPI function pointers that point to the platform specific function.">
<polygon fill="white" stroke="#666666" points="134,-252 0,-252 0,-233 134,-233 134,-252"/>
<text text-anchor="middle" x="67" y="-240" font-family="Helvetica,sans-Serif" font-size="10.00">no_os_spi_platform_ops</text>
</a>
</g>
</g>
<!-- Node7&#45;&gt;Node5 -->
<g id="edge7_Node000005_Node000007" class="edge">
<title>Node7&#45;&gt;Node5</title>
<g id="a_edge7_Node000005_Node000007"><a xlink:title=" ">
<path fill="none" stroke="#9a32cd" stroke-dasharray="5,2" d="M144.22,-248.18C146.84,-248.3 149.44,-248.41 152,-248.5 297.82,-253.7 335.29,-253.16 480,-234.5 490.39,-233.16 501.52,-231.17 511.87,-229.07"/>
<polygon fill="#9a32cd" stroke="#9a32cd" points="144.17,-244.68 134.01,-247.66 143.81,-251.67 144.17,-244.68"/>
</a>
</g>
<text text-anchor="middle" x="308.5" y="-253.5" font-family="Helvetica,sans-Serif" font-size="10.00" fill="grey"> platform_ops</text>
</g>
<!-- Node7&#45;&gt;Node6 -->
<g id="edge6_Node000006_Node000007" class="edge">
<title>Node7&#45;&gt;Node6</title>
<g id="a_edge6_Node000006_Node000007"><a xlink:title=" ">
<path fill="none" stroke="#9a32cd" stroke-dasharray="5,2" d="M144.39,-235.16C179.85,-231.76 221.16,-227.79 253.34,-224.7"/>
<polygon fill="#9a32cd" stroke="#9a32cd" points="143.7,-231.71 134.08,-236.15 144.37,-238.68 143.7,-231.71"/>
</a>
</g>
<text text-anchor="middle" x="186" y="-236.5" font-family="Helvetica,sans-Serif" font-size="10.00" fill="grey"> platform_ops</text>
</g>
<!-- Node8 -->
<g id="Node000008" class="node">
<title>Node8</title>
<g id="a_Node000008"><a xlink:href="structno__os__platform__spi__delays.html" target="_top" xlink:title="Delays resulted from components in the SPI signal path. The values is ns.">
<polygon fill="white" stroke="#666666" points="364.5,-191.5 252.5,-191.5 252.5,-161.5 364.5,-161.5 364.5,-191.5"/>
<text text-anchor="start" x="260.5" y="-179.5" font-family="Helvetica,sans-Serif" font-size="10.00">no_os_platform_spi</text>
<text text-anchor="middle" x="308.5" y="-168.5" font-family="Helvetica,sans-Serif" font-size="10.00">_delays</text>
</a>
</g>
</g>
<!-- Node8&#45;&gt;Node5 -->
<g id="edge8_Node000005_Node000008" class="edge">
<title>Node8&#45;&gt;Node5</title>
<g id="a_edge8_Node000005_Node000008"><a xlink:title=" ">
<path fill="none" stroke="#9a32cd" stroke-dasharray="5,2" d="M374.94,-186.62C406.71,-191.69 445.4,-198.11 480,-204.5 489.03,-206.17 498.67,-208.07 507.88,-209.94"/>
<polygon fill="#9a32cd" stroke="#9a32cd" points="375.31,-183.14 364.88,-185.02 374.21,-190.05 375.31,-183.14"/>
</a>
</g>
<text text-anchor="middle" x="438.5" y="-207.5" font-family="Helvetica,sans-Serif" font-size="10.00" fill="grey"> platform_delays</text>
</g>
<!-- Node9 -->
<g id="Node000009" class="node">
<title>Node9</title>
<g id="a_Node000009"><a xlink:href="structiio__device.html" target="_top" xlink:title="Structure holding channels and attributes of a device.">
<polygon fill="white" stroke="#666666" points="789,-109 723,-109 723,-90 789,-90 789,-109"/>
<text text-anchor="middle" x="756" y="-97" font-family="Helvetica,sans-Serif" font-size="10.00">iio_device</text>
</a>
</g>
</g>
<!-- Node9&#45;&gt;Node1 -->
<g id="edge10_Node000001_Node000009" class="edge">
<title>Node9&#45;&gt;Node1</title>
<g id="a_edge10_Node000001_Node000009"><a xlink:title=" ">
<path fill="none" stroke="#9a32cd" stroke-dasharray="5,2" d="M799.08,-110.9C840.85,-122.21 904.15,-139.36 943.32,-149.97"/>
<polygon fill="#9a32cd" stroke="#9a32cd" points="799.78,-107.46 789.21,-108.22 797.95,-114.22 799.78,-107.46"/>
</a>
</g>
<text text-anchor="middle" x="863.5" y="-140.5" font-family="Helvetica,sans-Serif" font-size="10.00" fill="grey"> iio_dev</text>
</g>
<!-- Node10 -->
<g id="Node000010" class="node">
<title>Node10</title>
<g id="a_Node000010"><a xlink:href="structno__os__irq__ctrl__desc.html" target="_top" xlink:title=" ">
<polygon fill="white" stroke="#666666" points="610,-135 498,-135 498,-116 610,-116 610,-135"/>
<text text-anchor="middle" x="554" y="-123" font-family="Helvetica,sans-Serif" font-size="10.00">no_os_irq_ctrl_desc</text>
</a>
</g>
</g>
<!-- Node10&#45;&gt;Node9 -->
<g id="edge11_Node000009_Node000010" class="edge">
<title>Node10&#45;&gt;Node9</title>
<g id="a_edge11_Node000009_Node000010"><a xlink:title=" ">
<path fill="none" stroke="#9a32cd" stroke-dasharray="5,2" d="M620.16,-117.03C654.52,-112.56 695.16,-107.28 722.78,-103.69"/>
<polygon fill="#9a32cd" stroke="#9a32cd" points="619.65,-113.57 610.18,-118.33 620.55,-120.51 619.65,-113.57"/>
</a>
</g>
<text text-anchor="middle" x="659" y="-118.5" font-family="Helvetica,sans-Serif" font-size="10.00" fill="grey"> irq_desc</text>
</g>
<!-- Node11 -->
<g id="Node000011" class="node">
<title>Node11</title>
<g id="a_Node000011"><a xlink:href="structno__os__irq__platform__ops.html" target="_top" xlink:title="Structure holding IRQ function pointers that point to the platform specific function.">
<polygon fill="white" stroke="#666666" points="375,-143 242,-143 242,-124 375,-124 375,-143"/>
<text text-anchor="middle" x="308.5" y="-131" font-family="Helvetica,sans-Serif" font-size="10.00">no_os_irq_platform_ops</text>
</a>
</g>
</g>
<!-- Node11&#45;&gt;Node10 -->
<g id="edge12_Node000010_Node000011" class="edge">
<title>Node11&#45;&gt;Node10</title>
<g id="a_edge12_Node000010_Node000011"><a xlink:title=" ">
<path fill="none" stroke="#9a32cd" stroke-dasharray="5,2" d="M385.15,-131.01C421.52,-129.82 464.34,-128.41 497.62,-127.32"/>
<polygon fill="#9a32cd" stroke="#9a32cd" points="384.95,-127.52 375.07,-131.35 385.18,-134.52 384.95,-127.52"/>
</a>
</g>
<text text-anchor="middle" x="438.5" y="-132.5" font-family="Helvetica,sans-Serif" font-size="10.00" fill="grey"> platform_ops</text>
</g>
<!-- Node12 -->
<g id="Node000012" class="node">
<title>Node12</title>
<g id="a_Node000012"><a xlink:href="structiio__channel.html" target="_top" xlink:title="Struct describing the scan type.">
<polygon fill="white" stroke="#666666" points="590,-89 518,-89 518,-70 590,-70 590,-89"/>
<text text-anchor="middle" x="554" y="-77" font-family="Helvetica,sans-Serif" font-size="10.00">iio_channel</text>
</a>
</g>
</g>
<!-- Node12&#45;&gt;Node9 -->
<g id="edge13_Node000009_Node000012" class="edge">
<title>Node12&#45;&gt;Node9</title>
<g id="a_edge13_Node000009_Node000012"><a xlink:title=" ">
<path fill="none" stroke="#9a32cd" stroke-dasharray="5,2" d="M600.14,-80.2C626.44,-81.02 660.19,-82.77 690,-86.5 700.73,-87.84 712.35,-89.95 722.75,-92.09"/>
<polygon fill="#9a32cd" stroke="#9a32cd" points="600.18,-76.7 590.09,-79.92 599.99,-83.7 600.18,-76.7"/>
</a>
</g>
<text text-anchor="middle" x="659" y="-89.5" font-family="Helvetica,sans-Serif" font-size="10.00" fill="grey"> channels</text>
</g>
<!-- Node13 -->
<g id="Node000013" class="node">
<title>Node13</title>
<g id="a_Node000013"><a xlink:href="structiio__chan__type.html" target="_top" xlink:title="IIO channel types.">
<polygon fill="white" stroke="#666666" points="350.5,-106 266.5,-106 266.5,-87 350.5,-87 350.5,-106"/>
<text text-anchor="middle" x="308.5" y="-94" font-family="Helvetica,sans-Serif" font-size="10.00">iio_chan_type</text>
</a>
</g>
</g>
<!-- Node13&#45;&gt;Node12 -->
<g id="edge14_Node000012_Node000013" class="edge">
<title>Node13&#45;&gt;Node12</title>
<g id="a_edge14_Node000012_Node000013"><a xlink:title=" ">
<path fill="none" stroke="#9a32cd" stroke-dasharray="5,2" d="M360.54,-92.94C407.67,-89.65 476.43,-84.85 517.74,-81.96"/>
<polygon fill="#9a32cd" stroke="#9a32cd" points="360.26,-89.45 350.53,-93.64 360.75,-96.43 360.26,-89.45"/>
</a>
</g>
<text text-anchor="middle" x="438.5" y="-92.5" font-family="Helvetica,sans-Serif" font-size="10.00" fill="grey"> ch_type</text>
</g>
<!-- Node14 -->
<g id="Node000014" class="node">
<title>Node14</title>
<g id="a_Node000014"><a xlink:href="structscan__type.html" target="_top" xlink:title=" ">
<polygon fill="white" stroke="#666666" points="341.5,-69 275.5,-69 275.5,-50 341.5,-50 341.5,-69"/>
<text text-anchor="middle" x="308.5" y="-57" font-family="Helvetica,sans-Serif" font-size="10.00">scan_type</text>
</a>
</g>
</g>
<!-- Node14&#45;&gt;Node12 -->
<g id="edge15_Node000012_Node000014" class="edge">
<title>Node14&#45;&gt;Node12</title>
<g id="a_edge15_Node000012_Node000014"><a xlink:title=" ">
<path fill="none" stroke="#9a32cd" stroke-dasharray="5,2" d="M351.81,-61.07C386.35,-62.57 436.41,-65.24 480,-69.5 492.35,-70.71 505.82,-72.43 517.79,-74.11"/>
<polygon fill="#9a32cd" stroke="#9a32cd" points="351.75,-57.56 341.61,-60.64 351.45,-64.56 351.75,-57.56"/>
</a>
</g>
<text text-anchor="middle" x="438.5" y="-72.5" font-family="Helvetica,sans-Serif" font-size="10.00" fill="grey"> scan_type</text>
</g>
<!-- Node15 -->
<g id="Node000015" class="node">
<title>Node15</title>
<g id="a_Node000015"><a xlink:href="structiio__attribute.html" target="_top" xlink:title="Structure holding pointers to show and store functions.">
<polygon fill="white" stroke="#666666" points="346.5,-19 270.5,-19 270.5,0 346.5,0 346.5,-19"/>
<text text-anchor="middle" x="308.5" y="-7" font-family="Helvetica,sans-Serif" font-size="10.00">iio_attribute</text>
</a>
</g>
</g>
<!-- Node15&#45;&gt;Node9 -->
<g id="edge17_Node000009_Node000015" class="edge">
<title>Node15&#45;&gt;Node9</title>
<g id="a_edge17_Node000009_Node000015"><a xlink:title=" ">
<path fill="none" stroke="#9a32cd" stroke-dasharray="5,2" d="M357.09,-6.86C417.12,-4.8 523.01,-5.43 610,-28.5 660.93,-42.01 715.26,-73.97 740.52,-89.99"/>
<polygon fill="#9a32cd" stroke="#9a32cd" points="356.64,-3.37 346.78,-7.25 356.91,-10.36 356.64,-3.37"/>
</a>
</g>
<text text-anchor="middle" x="554" y="-53.5" font-family="Helvetica,sans-Serif" font-size="10.00" fill="grey"> attributes</text>
<text text-anchor="middle" x="554" y="-42.5" font-family="Helvetica,sans-Serif" font-size="10.00" fill="grey">buffer_attributes</text>
<text text-anchor="middle" x="554" y="-31.5" font-family="Helvetica,sans-Serif" font-size="10.00" fill="grey">debug_attributes</text>
</g>
<!-- Node15&#45;&gt;Node12 -->
<g id="edge16_Node000012_Node000015" class="edge">
<title>Node15&#45;&gt;Node12</title>
<g id="a_edge16_Node000012_Node000015"><a xlink:title=" ">
<path fill="none" stroke="#9a32cd" stroke-dasharray="5,2" d="M356.43,-17.91C391.02,-24.67 438.98,-35.22 480,-48.5 498.47,-54.48 518.74,-63.28 533.22,-69.97"/>
<polygon fill="#9a32cd" stroke="#9a32cd" points="357.08,-14.47 346.59,-16.02 355.75,-21.35 357.08,-14.47"/>
</a>
</g>
<text text-anchor="middle" x="438.5" y="-51.5" font-family="Helvetica,sans-Serif" font-size="10.00" fill="grey"> attributes</text>
</g>
</g>
</svg>

<g id="navigator" transform="translate(0 0)" fill="#404254">
  <rect fill="#f2f5e9" fill-opacity="0.5" stroke="#606060" stroke-width=".5" x="0" y="0" width="60" height="60"/>
  <use id="zoomplus" xlink:href="#zoomPlus" x="17" y="9" onmousedown="handleZoom(evt,'in')"/>
  <use id="zoomminus" xlink:href="#zoomMin" x="42" y="9" onmousedown="handleZoom(evt,'out')"/>
  <use id="reset" xlink:href="#resetDef" x="30" y="36" onmousedown="handleReset()"/>
   <use id="arrowup" xlink:href="#arrowUp" x="0" y="0" onmousedown="handlePan(0,-1)"/>
  <use id="arrowright" xlink:href="#arrowRight" x="0" y="0" onmousedown="handlePan(1,0)"/>
  <use id="arrowdown" xlink:href="#arrowDown" x="0" y="0" onmousedown="handlePan(0,1)"/>
  <use id="arrowleft" xlink:href="#arrowLeft" x="0" y="0" onmousedown="handlePan(-1,0)"/>
</g>
<svg viewBox="0 0 15 15" width="100%" height="30px" preserveAspectRatio="xMaxYMin meet">
 <g id="arrow_out" transform="scale(0.3 0.3)">
  <a xlink:href="structmax22017__iio__desc__coll__graph_org.svg" target="_base">
   <rect id="button" ry="5" rx="5" y="6" x="6" height="38" width="38"
        fill="#f2f5e9" fill-opacity="0.5" stroke="#606060" stroke-width="1.0"/>
   <path id="arrow"
     d="M 11.500037,31.436501 C 11.940474,20.09759 22.043105,11.32322 32.158766,21.979434 L 37.068811,17.246167 C 37.068811,17.246167 37.088388,32 37.088388,32 L 22.160133,31.978069 C 22.160133,31.978069 26.997745,27.140456 26.997745,27.140456 C 18.528582,18.264221 13.291696,25.230495 11.500037,31.436501 z"
     style="fill:#404040;"/>
  </a>
 </g>
</svg>

<style type='text/css'>
<![CDATA[
[data-mouse-over-selected='false'] { opacity: 0.7; }
[data-mouse-over-selected='true']  { opacity: 1.0; }
]]>
</style>
<script type="application/ecmascript"><![CDATA[
document.addEventListener('DOMContentLoaded', (event) => {
  highlightEdges();
  highlightAdjacentNodes();
});
]]></script>
</svg>
