<?xml version="1.0" encoding="UTF-8" standalone="no"?>
<!DOCTYPE svg PUBLIC "-//W3C//DTD SVG 1.1//EN"
 "http://www.w3.org/Graphics/SVG/1.1/DTD/svg11.dtd">
<!-- Generated by graphviz version 2.43.0 (0)
 -->
<!-- Title: ad738x_init_param Pages: 1 -->
<!--zoomable 235 -->

<svg id="main" version="1.1" xmlns="http://www.w3.org/2000/svg" xmlns:xlink="http://www.w3.org/1999/xlink" xml:space="preserve" onload="init(evt)">

<style type="text/css"><![CDATA[
.node, .edge {opacity: 0.7;}
.node.selected, .edge.selected {opacity: 1;}
.edge:hover path { stroke: red; }
.edge:hover polygon { stroke: red; fill: red; }
]]></style>

<defs>
  <circle id="rim" cx="0" cy="0" r="7"/>
  <circle id="rim2" cx="0" cy="0" r="3.5"/>
  <g id="zoomPlus">
    <use xlink:href="#rim" fill="#404040"><set attributeName="fill" to="#808080" begin="zoomplus.mouseover" end="zoomplus.mouseout"/></use>
    <path d="M-4,0h8M0,-4v8" fill="none" stroke="white" stroke-width="1.5" pointer-events="none"/>
  </g>
  <g id="zoomMin">
    <use xlink:href="#rim" fill="#404040"><set attributeName="fill" to="#808080" begin="zoomminus.mouseover" end="zoomminus.mouseout"/></use>
    <path d="M-4,0h8" fill="none" stroke="white" stroke-width="1.5" pointer-events="none"/>
  </g>
  <g id="arrowUp" transform="translate(30 24)">
    <use xlink:href="#rim"/>
    <path pointer-events="none" fill="none" stroke="white" stroke-width="1.5" d="M0,-3.0v7 M-2.5,-0.5L0,-3.0L2.5,-0.5"/>
  </g>
  <g id="arrowRight" transform="rotate(90) translate(36 -43)">
    <use xlink:href="#rim"/>
    <path pointer-events="none" fill="none" stroke="white" stroke-width="1.5" d="M0,-3.0v7 M-2.5,-0.5L0,-3.0L2.5,-0.5"/>
  </g>
  <g id="arrowDown" transform="rotate(180) translate(-30 -48)">
    <use xlink:href="#rim"/>
    <path pointer-events="none" fill="none" stroke="white" stroke-width="1.5" d="M0,-3.0v7 M-2.5,-0.5L0,-3.0L2.5,-0.5"/>
  </g>
  <g id="arrowLeft" transform="rotate(270) translate(-36 17)">
    <use xlink:href="#rim"/>
    <path pointer-events="none" fill="none" stroke="white" stroke-width="1.5" d="M0,-3.0v7 M-2.5,-0.5L0,-3.0L2.5,-0.5"/>
  </g>
  <g id="resetDef">
    <use xlink:href="#rim2" fill="#404040"><set attributeName="fill" to="#808080" begin="reset.mouseover" end="reset.mouseout"/></use>
  </g>
</defs>
<script type="application/ecmascript">
var viewWidth = 1087;
var viewHeight = 235;
var sectionId = 'dynsection-0';
</script>
<script type="application/ecmascript" xlink:href="svg.min.js"/>
<svg id="graph" class="graph">
<g id="viewport">
<title>ad738x_init_param</title>
<!-- Node1 -->
<g id="Node000001" class="node">
<title>Node1</title>
<g id="a_Node000001"><a xlink:title=" ">
<polygon fill="#999999" stroke="#666666" points="1079,-79 969,-79 969,-60 1079,-60 1079,-79"/>
<text text-anchor="middle" x="1024" y="-67" font-family="Helvetica,sans-Serif" font-size="10.00">ad738x_init_param</text>
</a>
</g>
</g>
<!-- Node2 -->
<g id="Node000002" class="node">
<title>Node2</title>
<g id="a_Node000002"><a xlink:href="structno__os__spi__init__param.html" target="_top" xlink:title="Structure holding the parameters for SPI initialization.">
<polygon fill="white" stroke="#666666" points="873,-123 751,-123 751,-104 873,-104 873,-123"/>
<text text-anchor="middle" x="812" y="-111" font-family="Helvetica,sans-Serif" font-size="10.00">no_os_spi_init_param</text>
</a>
</g>
</g>
<!-- Node2&#45;&gt;Node1 -->
<g id="edge1_Node000001_Node000002" class="edge">
<title>Node2&#45;&gt;Node1</title>
<g id="a_edge1_Node000001_Node000002"><a xlink:title=" ">
<path fill="none" stroke="#9a32cd" stroke-dasharray="5,2" d="M868.36,-101.9C902.4,-94.77 945.48,-85.74 977.52,-79.03"/>
<polygon fill="#9a32cd" stroke="#9a32cd" points="867.64,-98.48 858.57,-103.95 869.07,-105.33 867.64,-98.48"/>
</a>
</g>
<text text-anchor="middle" x="923.5" y="-98.5" font-family="Helvetica,sans-Serif" font-size="10.00" fill="grey"> spi_param</text>
</g>
<!-- Node3 -->
<g id="Node000003" class="node">
<title>Node3</title>
<g id="a_Node000003"><a xlink:href="structno__os__spi__platform__ops.html" target="_top" xlink:title="Structure holding SPI function pointers that point to the platform specific function.">
<polygon fill="white" stroke="#666666" points="134,-195 0,-195 0,-176 134,-176 134,-195"/>
<text text-anchor="middle" x="67" y="-183" font-family="Helvetica,sans-Serif" font-size="10.00">no_os_spi_platform_ops</text>
</a>
</g>
</g>
<!-- Node3&#45;&gt;Node2 -->
<g id="edge2_Node000002_Node000003" class="edge">
<title>Node3&#45;&gt;Node2</title>
<g id="a_edge2_Node000002_Node000003"><a xlink:title=" ">
<path fill="none" stroke="#9a32cd" stroke-dasharray="5,2" d="M136.95,-196.44C245.81,-211.47 463.45,-232.39 642,-192.5 703,-178.87 768.08,-140.89 796.42,-123.02"/>
<polygon fill="#9a32cd" stroke="#9a32cd" points="137.15,-192.94 126.76,-195.01 136.18,-199.87 137.15,-192.94"/>
</a>
</g>
<text text-anchor="middle" x="438.5" y="-218.5" font-family="Helvetica,sans-Serif" font-size="10.00" fill="grey"> platform_ops</text>
</g>
<!-- Node5 -->
<g id="Node000005" class="node">
<title>Node5</title>
<g id="a_Node000005"><a xlink:href="structno__os__spi__desc.html" target="_top" xlink:title="Structure holding SPI descriptor.">
<polygon fill="white" stroke="#666666" points="616,-154 524,-154 524,-135 616,-135 616,-154"/>
<text text-anchor="middle" x="570" y="-142" font-family="Helvetica,sans-Serif" font-size="10.00">no_os_spi_desc</text>
</a>
</g>
</g>
<!-- Node3&#45;&gt;Node5 -->
<g id="edge7_Node000005_Node000003" class="edge">
<title>Node3&#45;&gt;Node5</title>
<g id="a_edge7_Node000005_Node000003"><a xlink:title=" ">
<path fill="none" stroke="#9a32cd" stroke-dasharray="5,2" d="M144.22,-182.08C227.03,-177.96 363.15,-169.99 480,-157.5 494.28,-155.97 509.8,-153.87 523.81,-151.79"/>
<polygon fill="#9a32cd" stroke="#9a32cd" points="143.96,-178.59 134.14,-182.58 144.3,-185.58 143.96,-178.59"/>
</a>
</g>
<text text-anchor="middle" x="308.5" y="-179.5" font-family="Helvetica,sans-Serif" font-size="10.00" fill="grey"> platform_ops</text>
</g>
<!-- Node6 -->
<g id="Node000006" class="node">
<title>Node6</title>
<g id="a_Node000006"><a xlink:href="structno__os__spibus__desc.html" target="_top" xlink:title="SPI bus descriptor.">
<polygon fill="white" stroke="#666666" points="363.5,-149 253.5,-149 253.5,-130 363.5,-130 363.5,-149"/>
<text text-anchor="middle" x="308.5" y="-137" font-family="Helvetica,sans-Serif" font-size="10.00">no_os_spibus_desc</text>
</a>
</g>
</g>
<!-- Node3&#45;&gt;Node6 -->
<g id="edge6_Node000006_Node000003" class="edge">
<title>Node3&#45;&gt;Node6</title>
<g id="a_edge6_Node000006_Node000003"><a xlink:title=" ">
<path fill="none" stroke="#9a32cd" stroke-dasharray="5,2" d="M105.65,-172.94C120.03,-168.5 136.65,-163.8 152,-160.5 185.29,-153.34 223.15,-148.17 253.17,-144.75"/>
<polygon fill="#9a32cd" stroke="#9a32cd" points="104.59,-169.6 96.1,-175.95 106.69,-176.28 104.59,-169.6"/>
</a>
</g>
<text text-anchor="middle" x="186" y="-163.5" font-family="Helvetica,sans-Serif" font-size="10.00" fill="grey"> platform_ops</text>
</g>
<!-- Node4 -->
<g id="Node000004" class="node">
<title>Node4</title>
<g id="a_Node000004"><a xlink:href="structno__os__platform__spi__delays.html" target="_top" xlink:title="Delays resulted from components in the SPI signal path. The values is ns.">
<polygon fill="white" stroke="#666666" points="364.5,-109.5 252.5,-109.5 252.5,-79.5 364.5,-79.5 364.5,-109.5"/>
<text text-anchor="start" x="260.5" y="-97.5" font-family="Helvetica,sans-Serif" font-size="10.00">no_os_platform_spi</text>
<text text-anchor="middle" x="308.5" y="-86.5" font-family="Helvetica,sans-Serif" font-size="10.00">_delays</text>
</a>
</g>
</g>
<!-- Node4&#45;&gt;Node2 -->
<g id="edge3_Node000002_Node000004" class="edge">
<title>Node4&#45;&gt;Node2</title>
<g id="a_edge3_Node000002_Node000004"><a xlink:title=" ">
<path fill="none" stroke="#9a32cd" stroke-dasharray="5,2" d="M374.66,-96.97C472.48,-100.67 655.89,-107.62 750.75,-111.22"/>
<polygon fill="#9a32cd" stroke="#9a32cd" points="374.73,-93.47 364.6,-96.59 374.46,-100.46 374.73,-93.47"/>
</a>
</g>
<text text-anchor="middle" x="570" y="-110.5" font-family="Helvetica,sans-Serif" font-size="10.00" fill="grey"> platform_delays</text>
</g>
<!-- Node4&#45;&gt;Node5 -->
<g id="edge8_Node000005_Node000004" class="edge">
<title>Node4&#45;&gt;Node5</title>
<g id="a_edge8_Node000005_Node000004"><a xlink:title=" ">
<path fill="none" stroke="#9a32cd" stroke-dasharray="5,2" d="M374.92,-105.91C406.68,-111.58 445.38,-118.66 480,-125.5 494.88,-128.44 511.12,-131.85 525.6,-134.96"/>
<polygon fill="#9a32cd" stroke="#9a32cd" points="375.33,-102.43 364.87,-104.13 374.1,-109.32 375.33,-102.43"/>
</a>
</g>
<text text-anchor="middle" x="438.5" y="-128.5" font-family="Helvetica,sans-Serif" font-size="10.00" fill="grey"> platform_delays</text>
</g>
<!-- Node5&#45;&gt;Node2 -->
<g id="edge4_Node000002_Node000005" class="edge">
<title>Node5&#45;&gt;Node2</title>
<g id="a_edge4_Node000002_Node000005"><a xlink:title=" ">
<path fill="none" stroke="#9a32cd" stroke-dasharray="5,2" d="M626.3,-137.36C663.47,-132.56 712.46,-126.23 750.65,-121.3"/>
<polygon fill="#9a32cd" stroke="#9a32cd" points="625.61,-133.92 616.14,-138.67 626.51,-140.86 625.61,-133.92"/>
</a>
</g>
<text text-anchor="middle" x="694" y="-135.5" font-family="Helvetica,sans-Serif" font-size="10.00" fill="grey"> parent</text>
</g>
<!-- Node5&#45;&gt;Node5 -->
<g id="edge9_Node000005_Node000005" class="edge">
<title>Node5&#45;&gt;Node5</title>
<g id="a_edge9_Node000005_Node000005"><a xlink:title=" ">
<path fill="none" stroke="#9a32cd" stroke-dasharray="5,2" d="M547.04,-163.55C548.57,-168.38 556.23,-172 570,-172 592.04,-172 598.41,-162.73 589.11,-154.08"/>
<polygon fill="#9a32cd" stroke="#9a32cd" points="550.36,-164.66 550.89,-154.08 543.88,-162.03 550.36,-164.66"/>
</a>
</g>
<text text-anchor="middle" x="570" y="-175" font-family="Helvetica,sans-Serif" font-size="10.00" fill="grey"> parent</text>
</g>
<!-- Node6&#45;&gt;Node5 -->
<g id="edge5_Node000005_Node000006" class="edge">
<title>Node6&#45;&gt;Node5</title>
<g id="a_edge5_Node000005_Node000006"><a xlink:title=" ">
<path fill="none" stroke="#9a32cd" stroke-dasharray="5,2" d="M373.87,-140.74C420.43,-141.64 482.18,-142.83 523.64,-143.63"/>
<polygon fill="#9a32cd" stroke="#9a32cd" points="373.65,-137.24 363.58,-140.54 373.51,-144.23 373.65,-137.24"/>
</a>
</g>
<text text-anchor="middle" x="438.5" y="-145.5" font-family="Helvetica,sans-Serif" font-size="10.00" fill="grey"> bus</text>
</g>
<!-- Node7 -->
<g id="Node000007" class="node">
<title>Node7</title>
<g id="a_Node000007"><a xlink:href="structno__os__pwm__init__param.html" target="_top" xlink:title="Structure containing the init parameters needed by the PWM generator.">
<polygon fill="white" stroke="#666666" points="878,-56 746,-56 746,-37 878,-37 878,-56"/>
<text text-anchor="middle" x="812" y="-44" font-family="Helvetica,sans-Serif" font-size="10.00">no_os_pwm_init_param</text>
</a>
</g>
</g>
<!-- Node7&#45;&gt;Node1 -->
<g id="edge10_Node000001_Node000007" class="edge">
<title>Node7&#45;&gt;Node1</title>
<g id="a_edge10_Node000001_Node000007"><a xlink:title=" ">
<path fill="none" stroke="#9a32cd" stroke-dasharray="5,2" d="M888.26,-50.5C908.66,-51.98 930.71,-53.94 951,-56.5 958.56,-57.45 966.53,-58.67 974.31,-59.98"/>
<polygon fill="#9a32cd" stroke="#9a32cd" points="888.3,-46.99 878.08,-49.79 887.81,-53.98 888.3,-46.99"/>
</a>
</g>
<text text-anchor="middle" x="923.5" y="-59.5" font-family="Helvetica,sans-Serif" font-size="10.00" fill="grey"> pwm_init</text>
</g>
<!-- Node8 -->
<g id="Node000008" class="node">
<title>Node8</title>
<g id="a_Node000008"><a xlink:href="structno__os__gpio__init__param.html" target="_top" xlink:title="Structure holding the parameters for GPIO initialization.">
<polygon fill="white" stroke="#666666" points="634.5,-56 505.5,-56 505.5,-37 634.5,-37 634.5,-56"/>
<text text-anchor="middle" x="570" y="-44" font-family="Helvetica,sans-Serif" font-size="10.00">no_os_gpio_init_param</text>
</a>
</g>
</g>
<!-- Node8&#45;&gt;Node7 -->
<g id="edge11_Node000007_Node000008" class="edge">
<title>Node8&#45;&gt;Node7</title>
<g id="a_edge11_Node000007_Node000008"><a xlink:title=" ">
<path fill="none" stroke="#9a32cd" stroke-dasharray="5,2" d="M644.95,-46.5C677.16,-46.5 714.6,-46.5 745.76,-46.5"/>
<polygon fill="#9a32cd" stroke="#9a32cd" points="644.69,-43 634.69,-46.5 644.69,-50 644.69,-43"/>
</a>
</g>
<text text-anchor="middle" x="694" y="-49.5" font-family="Helvetica,sans-Serif" font-size="10.00" fill="grey"> pwm_gpio</text>
</g>
<!-- Node9 -->
<g id="Node000009" class="node">
<title>Node9</title>
<g id="a_Node000009"><a xlink:href="structno__os__gpio__platform__ops.html" target="_top" xlink:title="Structure holding gpio function pointers that point to the platform specific function.">
<polygon fill="white" stroke="#666666" points="379,-56 238,-56 238,-37 379,-37 379,-56"/>
<text text-anchor="middle" x="308.5" y="-44" font-family="Helvetica,sans-Serif" font-size="10.00">no_os_gpio_platform_ops</text>
</a>
</g>
</g>
<!-- Node9&#45;&gt;Node8 -->
<g id="edge12_Node000008_Node000009" class="edge">
<title>Node9&#45;&gt;Node8</title>
<g id="a_edge12_Node000008_Node000009"><a xlink:title=" ">
<path fill="none" stroke="#9a32cd" stroke-dasharray="5,2" d="M389.38,-46.5C426.69,-46.5 470.49,-46.5 505.49,-46.5"/>
<polygon fill="#9a32cd" stroke="#9a32cd" points="389.04,-43 379.04,-46.5 389.04,-50 389.04,-43"/>
</a>
</g>
<text text-anchor="middle" x="438.5" y="-49.5" font-family="Helvetica,sans-Serif" font-size="10.00" fill="grey"> platform_ops</text>
</g>
<!-- Node10 -->
<g id="Node000010" class="node">
<title>Node10</title>
<g id="a_Node000010"><a xlink:href="structno__os__pwm__platform__ops.html" target="_top" xlink:title="Structure holding PWM function pointers that point to the platform specific function.">
<polygon fill="white" stroke="#666666" points="642,-19 498,-19 498,0 642,0 642,-19"/>
<text text-anchor="middle" x="570" y="-7" font-family="Helvetica,sans-Serif" font-size="10.00">no_os_pwm_platform_ops</text>
</a>
</g>
</g>
<!-- Node10&#45;&gt;Node7 -->
<g id="edge13_Node000007_Node000010" class="edge">
<title>Node10&#45;&gt;Node7</title>
<g id="a_edge13_Node000007_Node000010"><a xlink:title=" ">
<path fill="none" stroke="#9a32cd" stroke-dasharray="5,2" d="M652.15,-20.25C676.56,-23.65 703.4,-27.55 728,-31.5 738.41,-33.17 749.53,-35.09 760.14,-36.98"/>
<polygon fill="#9a32cd" stroke="#9a32cd" points="652.6,-16.78 642.21,-18.87 651.64,-23.71 652.6,-16.78"/>
</a>
</g>
<text text-anchor="middle" x="694" y="-34.5" font-family="Helvetica,sans-Serif" font-size="10.00" fill="grey"> platform_ops</text>
</g>
</g>
</svg>

<g id="navigator" transform="translate(0 0)" fill="#404254">
  <rect fill="#f2f5e9" fill-opacity="0.5" stroke="#606060" stroke-width=".5" x="0" y="0" width="60" height="60"/>
  <use id="zoomplus" xlink:href="#zoomPlus" x="17" y="9" onmousedown="handleZoom(evt,'in')"/>
  <use id="zoomminus" xlink:href="#zoomMin" x="42" y="9" onmousedown="handleZoom(evt,'out')"/>
  <use id="reset" xlink:href="#resetDef" x="30" y="36" onmousedown="handleReset()"/>
   <use id="arrowup" xlink:href="#arrowUp" x="0" y="0" onmousedown="handlePan(0,-1)"/>
  <use id="arrowright" xlink:href="#arrowRight" x="0" y="0" onmousedown="handlePan(1,0)"/>
  <use id="arrowdown" xlink:href="#arrowDown" x="0" y="0" onmousedown="handlePan(0,1)"/>
  <use id="arrowleft" xlink:href="#arrowLeft" x="0" y="0" onmousedown="handlePan(-1,0)"/>
</g>
<svg viewBox="0 0 15 15" width="100%" height="30px" preserveAspectRatio="xMaxYMin meet">
 <g id="arrow_out" transform="scale(0.3 0.3)">
  <a xlink:href="structad738x__init__param__coll__graph_org.svg" target="_base">
   <rect id="button" ry="5" rx="5" y="6" x="6" height="38" width="38"
        fill="#f2f5e9" fill-opacity="0.5" stroke="#606060" stroke-width="1.0"/>
   <path id="arrow"
     d="M 11.500037,31.436501 C 11.940474,20.09759 22.043105,11.32322 32.158766,21.979434 L 37.068811,17.246167 C 37.068811,17.246167 37.088388,32 37.088388,32 L 22.160133,31.978069 C 22.160133,31.978069 26.997745,27.140456 26.997745,27.140456 C 18.528582,18.264221 13.291696,25.230495 11.500037,31.436501 z"
     style="fill:#404040;"/>
  </a>
 </g>
</svg>

<style type='text/css'>
<![CDATA[
[data-mouse-over-selected='false'] { opacity: 0.7; }
[data-mouse-over-selected='true']  { opacity: 1.0; }
]]>
</style>
<script type="application/ecmascript"><![CDATA[
document.addEventListener('DOMContentLoaded', (event) => {
  highlightEdges();
  highlightAdjacentNodes();
});
]]></script>
</svg>
