<?xml version="1.0" encoding="UTF-8" standalone="no"?>
<!DOCTYPE svg PUBLIC "-//W3C//DTD SVG 1.1//EN"
 "http://www.w3.org/Graphics/SVG/1.1/DTD/svg11.dtd">
<!-- Generated by graphviz version 2.43.0 (0)
 -->
<!-- Title: ltc2983_iio_desc Pages: 1 -->
<!--zoomable 313 -->

<svg id="main" version="1.1" xmlns="http://www.w3.org/2000/svg" xmlns:xlink="http://www.w3.org/1999/xlink" xml:space="preserve" onload="init(evt)">

<style type="text/css"><![CDATA[
.node, .edge {opacity: 0.7;}
.node.selected, .edge.selected {opacity: 1;}
.edge:hover path { stroke: red; }
.edge:hover polygon { stroke: red; fill: red; }
]]></style>

<defs>
  <circle id="rim" cx="0" cy="0" r="7"/>
  <circle id="rim2" cx="0" cy="0" r="3.5"/>
  <g id="zoomPlus">
    <use xlink:href="#rim" fill="#404040"><set attributeName="fill" to="#808080" begin="zoomplus.mouseover" end="zoomplus.mouseout"/></use>
    <path d="M-4,0h8M0,-4v8" fill="none" stroke="white" stroke-width="1.5" pointer-events="none"/>
  </g>
  <g id="zoomMin">
    <use xlink:href="#rim" fill="#404040"><set attributeName="fill" to="#808080" begin="zoomminus.mouseover" end="zoomminus.mouseout"/></use>
    <path d="M-4,0h8" fill="none" stroke="white" stroke-width="1.5" pointer-events="none"/>
  </g>
  <g id="arrowUp" transform="translate(30 24)">
    <use xlink:href="#rim"/>
    <path pointer-events="none" fill="none" stroke="white" stroke-width="1.5" d="M0,-3.0v7 M-2.5,-0.5L0,-3.0L2.5,-0.5"/>
  </g>
  <g id="arrowRight" transform="rotate(90) translate(36 -43)">
    <use xlink:href="#rim"/>
    <path pointer-events="none" fill="none" stroke="white" stroke-width="1.5" d="M0,-3.0v7 M-2.5,-0.5L0,-3.0L2.5,-0.5"/>
  </g>
  <g id="arrowDown" transform="rotate(180) translate(-30 -48)">
    <use xlink:href="#rim"/>
    <path pointer-events="none" fill="none" stroke="white" stroke-width="1.5" d="M0,-3.0v7 M-2.5,-0.5L0,-3.0L2.5,-0.5"/>
  </g>
  <g id="arrowLeft" transform="rotate(270) translate(-36 17)">
    <use xlink:href="#rim"/>
    <path pointer-events="none" fill="none" stroke="white" stroke-width="1.5" d="M0,-3.0v7 M-2.5,-0.5L0,-3.0L2.5,-0.5"/>
  </g>
  <g id="resetDef">
    <use xlink:href="#rim2" fill="#404040"><set attributeName="fill" to="#808080" begin="reset.mouseover" end="reset.mouseout"/></use>
  </g>
</defs>
<script type="application/ecmascript">
var viewWidth = 993;
var viewHeight = 313;
var sectionId = 'dynsection-0';
</script>
<script type="application/ecmascript" xlink:href="svg.min.js"/>
<svg id="graph" class="graph">
<g id="viewport">
<title>ltc2983_iio_desc</title>
<!-- Node1 -->
<g id="Node000001" class="node">
<title>Node1</title>
<g id="a_Node000001"><a xlink:title=" ">
<polygon fill="#999999" stroke="#666666" points="985,-122.24 887,-122.24 887,-103.24 985,-103.24 985,-122.24"/>
<text text-anchor="middle" x="936" y="-110.24" font-family="Helvetica,sans-Serif" font-size="10.00">ltc2983_iio_desc</text>
</a>
</g>
</g>
<!-- Node2 -->
<g id="Node000002" class="node">
<title>Node2</title>
<g id="a_Node000002"><a xlink:href="structltc2983__desc.html" target="_top" xlink:title="LTC2983 descriptor.">
<polygon fill="white" stroke="#666666" points="788,-158.24 708,-158.24 708,-139.24 788,-139.24 788,-158.24"/>
<text text-anchor="middle" x="748" y="-146.24" font-family="Helvetica,sans-Serif" font-size="10.00">ltc2983_desc</text>
</a>
</g>
</g>
<!-- Node2&#45;&gt;Node1 -->
<g id="edge1_Node000001_Node000002" class="edge">
<title>Node2&#45;&gt;Node1</title>
<g id="a_edge1_Node000001_Node000002"><a xlink:title=" ">
<path fill="none" stroke="#9a32cd" stroke-dasharray="5,2" d="M798.56,-139.15C825.86,-133.86 859.59,-127.33 886.68,-122.09"/>
<polygon fill="#9a32cd" stroke="#9a32cd" points="797.6,-135.77 788.45,-141.1 798.93,-142.64 797.6,-135.77"/>
</a>
</g>
<text text-anchor="middle" x="837.5" y="-139.74" font-family="Helvetica,sans-Serif" font-size="10.00" fill="grey"> ltc2983_dev</text>
</g>
<!-- Node3 -->
<g id="Node000003" class="node">
<title>Node3</title>
<g id="a_Node000003"><a xlink:href="structno__os__spi__desc.html" target="_top" xlink:title="Structure holding SPI descriptor.">
<polygon fill="white" stroke="#666666" points="600,-250.24 508,-250.24 508,-231.24 600,-231.24 600,-250.24"/>
<text text-anchor="middle" x="554" y="-238.24" font-family="Helvetica,sans-Serif" font-size="10.00">no_os_spi_desc</text>
</a>
</g>
</g>
<!-- Node3&#45;&gt;Node2 -->
<g id="edge2_Node000002_Node000003" class="edge">
<title>Node3&#45;&gt;Node2</title>
<g id="a_edge2_Node000002_Node000003"><a xlink:title=" ">
<path fill="none" stroke="#9a32cd" stroke-dasharray="5,2" d="M587.79,-227.18C615.38,-215.53 655.7,-197.94 690,-180.74 704,-173.72 719.47,-164.97 730.76,-158.39"/>
<polygon fill="#9a32cd" stroke="#9a32cd" points="586.1,-224.09 578.24,-231.19 588.81,-230.55 586.1,-224.09"/>
</a>
</g>
<text text-anchor="middle" x="659" y="-210.74" font-family="Helvetica,sans-Serif" font-size="10.00" fill="grey"> comm_desc</text>
</g>
<!-- Node3&#45;&gt;Node3 -->
<g id="edge7_Node000003_Node000003" class="edge">
<title>Node3&#45;&gt;Node3</title>
<g id="a_edge7_Node000003_Node000003"><a xlink:title=" ">
<path fill="none" stroke="#9a32cd" stroke-dasharray="5,2" d="M534.74,-259.79C536.03,-264.62 542.45,-268.24 554,-268.24 572.48,-268.24 577.83,-258.97 570.03,-250.32"/>
<polygon fill="#9a32cd" stroke="#9a32cd" points="538.06,-260.92 537.97,-250.32 531.43,-258.66 538.06,-260.92"/>
</a>
</g>
<text text-anchor="middle" x="554" y="-271.24" font-family="Helvetica,sans-Serif" font-size="10.00" fill="grey"> parent</text>
</g>
<!-- Node4 -->
<g id="Node000004" class="node">
<title>Node4</title>
<g id="a_Node000004"><a xlink:href="structno__os__spibus__desc.html" target="_top" xlink:title="SPI bus descriptor.">
<polygon fill="white" stroke="#666666" points="363.5,-272.24 253.5,-272.24 253.5,-253.24 363.5,-253.24 363.5,-272.24"/>
<text text-anchor="middle" x="308.5" y="-260.24" font-family="Helvetica,sans-Serif" font-size="10.00">no_os_spibus_desc</text>
</a>
</g>
</g>
<!-- Node4&#45;&gt;Node3 -->
<g id="edge3_Node000003_Node000004" class="edge">
<title>Node4&#45;&gt;Node3</title>
<g id="a_edge3_Node000003_Node000004"><a xlink:title=" ">
<path fill="none" stroke="#9a32cd" stroke-dasharray="5,2" d="M373.71,-256.94C415.87,-253.13 469.99,-248.24 507.69,-244.83"/>
<polygon fill="#9a32cd" stroke="#9a32cd" points="373.19,-253.47 363.54,-257.86 373.81,-260.44 373.19,-253.47"/>
</a>
</g>
<text text-anchor="middle" x="438.5" y="-256.74" font-family="Helvetica,sans-Serif" font-size="10.00" fill="grey"> bus</text>
</g>
<!-- Node5 -->
<g id="Node000005" class="node">
<title>Node5</title>
<g id="a_Node000005"><a xlink:href="structno__os__spi__platform__ops.html" target="_top" xlink:title="Structure holding SPI function pointers that point to the platform specific function.">
<polygon fill="white" stroke="#666666" points="134,-295.24 0,-295.24 0,-276.24 134,-276.24 134,-295.24"/>
<text text-anchor="middle" x="67" y="-283.24" font-family="Helvetica,sans-Serif" font-size="10.00">no_os_spi_platform_ops</text>
</a>
</g>
</g>
<!-- Node5&#45;&gt;Node3 -->
<g id="edge5_Node000003_Node000005" class="edge">
<title>Node5&#45;&gt;Node3</title>
<g id="a_edge5_Node000003_Node000005"><a xlink:title=" ">
<path fill="none" stroke="#9a32cd" stroke-dasharray="5,2" d="M144.31,-291.81C228.03,-296.35 365.72,-297.57 480,-268.74 498.03,-264.19 517.67,-256.49 532.03,-250.32"/>
<polygon fill="#9a32cd" stroke="#9a32cd" points="144.3,-288.3 134.12,-291.22 143.9,-295.29 144.3,-288.3"/>
</a>
</g>
<text text-anchor="middle" x="308.5" y="-296.74" font-family="Helvetica,sans-Serif" font-size="10.00" fill="grey"> platform_ops</text>
</g>
<!-- Node5&#45;&gt;Node4 -->
<g id="edge4_Node000004_Node000005" class="edge">
<title>Node5&#45;&gt;Node4</title>
<g id="a_edge4_Node000004_Node000005"><a xlink:title=" ">
<path fill="none" stroke="#9a32cd" stroke-dasharray="5,2" d="M144.39,-278.4C179.85,-275 221.16,-271.03 253.34,-267.94"/>
<polygon fill="#9a32cd" stroke="#9a32cd" points="143.7,-274.95 134.08,-279.39 144.37,-281.92 143.7,-274.95"/>
</a>
</g>
<text text-anchor="middle" x="186" y="-279.74" font-family="Helvetica,sans-Serif" font-size="10.00" fill="grey"> platform_ops</text>
</g>
<!-- Node6 -->
<g id="Node000006" class="node">
<title>Node6</title>
<g id="a_Node000006"><a xlink:href="structno__os__platform__spi__delays.html" target="_top" xlink:title="Delays resulted from components in the SPI signal path. The values is ns.">
<polygon fill="white" stroke="#666666" points="364.5,-234.74 252.5,-234.74 252.5,-204.74 364.5,-204.74 364.5,-234.74"/>
<text text-anchor="start" x="260.5" y="-222.74" font-family="Helvetica,sans-Serif" font-size="10.00">no_os_platform_spi</text>
<text text-anchor="middle" x="308.5" y="-211.74" font-family="Helvetica,sans-Serif" font-size="10.00">_delays</text>
</a>
</g>
</g>
<!-- Node6&#45;&gt;Node3 -->
<g id="edge6_Node000003_Node000006" class="edge">
<title>Node6&#45;&gt;Node3</title>
<g id="a_edge6_Node000003_Node000006"><a xlink:title=" ">
<path fill="none" stroke="#9a32cd" stroke-dasharray="5,2" d="M374.66,-219.48C406.52,-220 445.37,-221.6 480,-225.74 490.66,-227.01 502.09,-229.04 512.65,-231.19"/>
<polygon fill="#9a32cd" stroke="#9a32cd" points="374.63,-215.98 364.58,-219.35 374.53,-222.98 374.63,-215.98"/>
</a>
</g>
<text text-anchor="middle" x="438.5" y="-228.74" font-family="Helvetica,sans-Serif" font-size="10.00" fill="grey"> platform_delays</text>
</g>
<!-- Node7 -->
<g id="Node000007" class="node">
<title>Node7</title>
<g id="a_Node000007"><a xlink:href="structno__os__gpio__desc.html" target="_top" xlink:title="Structure holding the GPIO descriptor.">
<polygon fill="white" stroke="#666666" points="603.5,-187.24 504.5,-187.24 504.5,-168.24 603.5,-168.24 603.5,-187.24"/>
<text text-anchor="middle" x="554" y="-175.24" font-family="Helvetica,sans-Serif" font-size="10.00">no_os_gpio_desc</text>
</a>
</g>
</g>
<!-- Node7&#45;&gt;Node2 -->
<g id="edge8_Node000002_Node000007" class="edge">
<title>Node7&#45;&gt;Node2</title>
<g id="a_edge8_Node000002_Node000007"><a xlink:title=" ">
<path fill="none" stroke="#9a32cd" stroke-dasharray="5,2" d="M614.03,-168.82C644.5,-164.22 680.83,-158.73 707.81,-154.66"/>
<polygon fill="#9a32cd" stroke="#9a32cd" points="613.31,-165.39 603.95,-170.35 614.36,-172.31 613.31,-165.39"/>
</a>
</g>
<text text-anchor="middle" x="659" y="-168.74" font-family="Helvetica,sans-Serif" font-size="10.00" fill="grey"> gpio_rstn</text>
</g>
<!-- Node8 -->
<g id="Node000008" class="node">
<title>Node8</title>
<g id="a_Node000008"><a xlink:href="structno__os__gpio__platform__ops.html" target="_top" xlink:title="Structure holding gpio function pointers that point to the platform specific function.">
<polygon fill="white" stroke="#666666" points="379,-186.24 238,-186.24 238,-167.24 379,-167.24 379,-186.24"/>
<text text-anchor="middle" x="308.5" y="-174.24" font-family="Helvetica,sans-Serif" font-size="10.00">no_os_gpio_platform_ops</text>
</a>
</g>
</g>
<!-- Node8&#45;&gt;Node7 -->
<g id="edge9_Node000007_Node000008" class="edge">
<title>Node8&#45;&gt;Node7</title>
<g id="a_edge9_Node000007_Node000008"><a xlink:title=" ">
<path fill="none" stroke="#9a32cd" stroke-dasharray="5,2" d="M389.31,-177.07C427.33,-177.22 471.56,-177.4 504.45,-177.54"/>
<polygon fill="#9a32cd" stroke="#9a32cd" points="389.29,-173.57 379.28,-177.03 389.26,-180.57 389.29,-173.57"/>
</a>
</g>
<text text-anchor="middle" x="438.5" y="-179.74" font-family="Helvetica,sans-Serif" font-size="10.00" fill="grey"> platform_ops</text>
</g>
<!-- Node9 -->
<g id="Node000009" class="node">
<title>Node9</title>
<g id="a_Node000009"><a xlink:href="structltc2983__sensor.html" target="_top" xlink:title="common LTC2983 sensor struct">
<polygon fill="white" stroke="#666666" points="599,-150.24 509,-150.24 509,-131.24 599,-131.24 599,-150.24"/>
<text text-anchor="middle" x="554" y="-138.24" font-family="Helvetica,sans-Serif" font-size="10.00">ltc2983_sensor</text>
</a>
</g>
</g>
<!-- Node9&#45;&gt;Node2 -->
<g id="edge10_Node000002_Node000009" class="edge">
<title>Node9&#45;&gt;Node2</title>
<g id="a_edge10_Node000002_Node000009"><a xlink:title=" ">
<path fill="none" stroke="#9a32cd" stroke-dasharray="5,2" d="M609.36,-140.43C634,-140.58 663.49,-141.15 690,-142.74 695.76,-143.08 701.84,-143.58 707.79,-144.14"/>
<polygon fill="#9a32cd" stroke="#9a32cd" points="609.13,-136.93 599.12,-140.39 609.1,-143.93 609.13,-136.93"/>
</a>
</g>
<text text-anchor="middle" x="659" y="-145.74" font-family="Helvetica,sans-Serif" font-size="10.00" fill="grey"> sensors</text>
</g>
<!-- Node10 -->
<g id="Node000010" class="node">
<title>Node10</title>
<g id="a_Node000010"><a xlink:href="structiio__device.html" target="_top" xlink:title="Structure holding channels and attributes of a device.">
<polygon fill="white" stroke="#666666" points="781,-104.24 715,-104.24 715,-85.24 781,-85.24 781,-104.24"/>
<text text-anchor="middle" x="748" y="-92.24" font-family="Helvetica,sans-Serif" font-size="10.00">iio_device</text>
</a>
</g>
</g>
<!-- Node10&#45;&gt;Node1 -->
<g id="edge11_Node000001_Node000010" class="edge">
<title>Node10&#45;&gt;Node1</title>
<g id="a_edge11_Node000001_Node000010"><a xlink:title=" ">
<path fill="none" stroke="#9a32cd" stroke-dasharray="5,2" d="M791.35,-93.76C814.4,-93.73 843.36,-94.54 869,-97.74 878.79,-98.96 889.27,-101 898.92,-103.18"/>
<polygon fill="#9a32cd" stroke="#9a32cd" points="791.19,-90.26 781.22,-93.82 791.24,-97.26 791.19,-90.26"/>
</a>
</g>
<text text-anchor="middle" x="837.5" y="-100.74" font-family="Helvetica,sans-Serif" font-size="10.00" fill="grey"> iio_dev</text>
</g>
<!-- Node11 -->
<g id="Node000011" class="node">
<title>Node11</title>
<g id="a_Node000011"><a xlink:href="structno__os__irq__ctrl__desc.html" target="_top" xlink:title=" ">
<polygon fill="white" stroke="#666666" points="610,-113.24 498,-113.24 498,-94.24 610,-94.24 610,-113.24"/>
<text text-anchor="middle" x="554" y="-101.24" font-family="Helvetica,sans-Serif" font-size="10.00">no_os_irq_ctrl_desc</text>
</a>
</g>
</g>
<!-- Node11&#45;&gt;Node10 -->
<g id="edge12_Node000010_Node000011" class="edge">
<title>Node11&#45;&gt;Node10</title>
<g id="a_edge12_Node000010_Node000011"><a xlink:title=" ">
<path fill="none" stroke="#9a32cd" stroke-dasharray="5,2" d="M620.17,-100.68C652.06,-99.19 689.02,-97.46 714.79,-96.25"/>
<polygon fill="#9a32cd" stroke="#9a32cd" points="619.84,-97.2 610.02,-101.16 620.17,-104.19 619.84,-97.2"/>
</a>
</g>
<text text-anchor="middle" x="659" y="-102.74" font-family="Helvetica,sans-Serif" font-size="10.00" fill="grey"> irq_desc</text>
</g>
<!-- Node12 -->
<g id="Node000012" class="node">
<title>Node12</title>
<g id="a_Node000012"><a xlink:href="structno__os__irq__platform__ops.html" target="_top" xlink:title="Structure holding IRQ function pointers that point to the platform specific function.">
<polygon fill="white" stroke="#666666" points="375,-148.24 242,-148.24 242,-129.24 375,-129.24 375,-148.24"/>
<text text-anchor="middle" x="308.5" y="-136.24" font-family="Helvetica,sans-Serif" font-size="10.00">no_os_irq_platform_ops</text>
</a>
</g>
</g>
<!-- Node12&#45;&gt;Node11 -->
<g id="edge13_Node000011_Node000012" class="edge">
<title>Node12&#45;&gt;Node11</title>
<g id="a_edge13_Node000011_Node000012"><a xlink:title=" ">
<path fill="none" stroke="#9a32cd" stroke-dasharray="5,2" d="M385.44,-129.73C415,-126.02 449.12,-121.48 480,-116.74 486.87,-115.68 494.09,-114.5 501.21,-113.28"/>
<polygon fill="#9a32cd" stroke="#9a32cd" points="384.68,-126.3 375.18,-131.01 385.54,-133.25 384.68,-126.3"/>
</a>
</g>
<text text-anchor="middle" x="438.5" y="-130.74" font-family="Helvetica,sans-Serif" font-size="10.00" fill="grey"> platform_ops</text>
</g>
<!-- Node13 -->
<g id="Node000013" class="node">
<title>Node13</title>
<g id="a_Node000013"><a xlink:href="structiio__channel.html" target="_top" xlink:title="Struct describing the scan type.">
<polygon fill="white" stroke="#666666" points="590,-76.24 518,-76.24 518,-57.24 590,-57.24 590,-76.24"/>
<text text-anchor="middle" x="554" y="-64.24" font-family="Helvetica,sans-Serif" font-size="10.00">iio_channel</text>
</a>
</g>
</g>
<!-- Node13&#45;&gt;Node10 -->
<g id="edge14_Node000010_Node000013" class="edge">
<title>Node13&#45;&gt;Node10</title>
<g id="a_edge14_Node000010_Node000013"><a xlink:title=" ">
<path fill="none" stroke="#9a32cd" stroke-dasharray="5,2" d="M600.17,-70.47C626.48,-72.96 660.24,-76.71 690,-81.74 698.11,-83.11 706.79,-84.91 714.87,-86.74"/>
<polygon fill="#9a32cd" stroke="#9a32cd" points="600.39,-66.97 590.12,-69.54 599.75,-73.94 600.39,-66.97"/>
</a>
</g>
<text text-anchor="middle" x="659" y="-84.74" font-family="Helvetica,sans-Serif" font-size="10.00" fill="grey"> channels</text>
</g>
<!-- Node14 -->
<g id="Node000014" class="node">
<title>Node14</title>
<g id="a_Node000014"><a xlink:href="structiio__chan__type.html" target="_top" xlink:title="IIO channel types.">
<polygon fill="white" stroke="#666666" points="350.5,-111.24 266.5,-111.24 266.5,-92.24 350.5,-92.24 350.5,-111.24"/>
<text text-anchor="middle" x="308.5" y="-99.24" font-family="Helvetica,sans-Serif" font-size="10.00">iio_chan_type</text>
</a>
</g>
</g>
<!-- Node14&#45;&gt;Node13 -->
<g id="edge15_Node000013_Node000014" class="edge">
<title>Node14&#45;&gt;Node13</title>
<g id="a_edge15_Node000013_Node000014"><a xlink:title=" ">
<path fill="none" stroke="#9a32cd" stroke-dasharray="5,2" d="M360.71,-95.78C394.61,-91.68 440.03,-85.87 480,-79.74 492.34,-77.84 505.81,-75.52 517.78,-73.36"/>
<polygon fill="#9a32cd" stroke="#9a32cd" points="360.09,-92.33 350.57,-97 360.92,-99.28 360.09,-92.33"/>
</a>
</g>
<text text-anchor="middle" x="438.5" y="-93.74" font-family="Helvetica,sans-Serif" font-size="10.00" fill="grey"> ch_type</text>
</g>
<!-- Node15 -->
<g id="Node000015" class="node">
<title>Node15</title>
<g id="a_Node000015"><a xlink:href="structscan__type.html" target="_top" xlink:title=" ">
<polygon fill="white" stroke="#666666" points="341.5,-74.24 275.5,-74.24 275.5,-55.24 341.5,-55.24 341.5,-74.24"/>
<text text-anchor="middle" x="308.5" y="-62.24" font-family="Helvetica,sans-Serif" font-size="10.00">scan_type</text>
</a>
</g>
</g>
<!-- Node15&#45;&gt;Node13 -->
<g id="edge16_Node000013_Node000015" class="edge">
<title>Node15&#45;&gt;Node13</title>
<g id="a_edge16_Node000013_Node000015"><a xlink:title=" ">
<path fill="none" stroke="#9a32cd" stroke-dasharray="5,2" d="M351.73,-65.09C398.7,-65.47 473.72,-66.09 517.69,-66.45"/>
<polygon fill="#9a32cd" stroke="#9a32cd" points="351.61,-61.58 341.58,-65 351.55,-68.58 351.61,-61.58"/>
</a>
</g>
<text text-anchor="middle" x="438.5" y="-68.74" font-family="Helvetica,sans-Serif" font-size="10.00" fill="grey"> scan_type</text>
</g>
<!-- Node16 -->
<g id="Node000016" class="node">
<title>Node16</title>
<g id="a_Node000016"><a xlink:href="structiio__attribute.html" target="_top" xlink:title="Structure holding pointers to show and store functions.">
<polygon fill="white" stroke="#666666" points="346.5,-24.24 270.5,-24.24 270.5,-5.24 346.5,-5.24 346.5,-24.24"/>
<text text-anchor="middle" x="308.5" y="-12.24" font-family="Helvetica,sans-Serif" font-size="10.00">iio_attribute</text>
</a>
</g>
</g>
<!-- Node16&#45;&gt;Node10 -->
<g id="edge18_Node000010_Node000016" class="edge">
<title>Node16&#45;&gt;Node10</title>
<g id="a_edge18_Node000010_Node000016"><a xlink:title=" ">
<path fill="none" stroke="#9a32cd" stroke-dasharray="5,2" d="M356.8,-7.52C416.85,-0.01 523.1,7.68 610,-15.74 660.9,-29.45 712.51,-67.03 735.14,-84.97"/>
<polygon fill="#9a32cd" stroke="#9a32cd" points="356.32,-4.05 346.85,-8.81 357.22,-10.99 356.32,-4.05"/>
</a>
</g>
<text text-anchor="middle" x="554" y="-40.74" font-family="Helvetica,sans-Serif" font-size="10.00" fill="grey"> attributes</text>
<text text-anchor="middle" x="554" y="-29.74" font-family="Helvetica,sans-Serif" font-size="10.00" fill="grey">buffer_attributes</text>
<text text-anchor="middle" x="554" y="-18.74" font-family="Helvetica,sans-Serif" font-size="10.00" fill="grey">debug_attributes</text>
</g>
<!-- Node16&#45;&gt;Node13 -->
<g id="edge17_Node000013_Node000016" class="edge">
<title>Node16&#45;&gt;Node13</title>
<g id="a_edge17_Node000013_Node000016"><a xlink:title=" ">
<path fill="none" stroke="#9a32cd" stroke-dasharray="5,2" d="M357,-24.14C391.24,-31 438.54,-40.66 480,-49.74 492.33,-52.44 505.8,-55.53 517.77,-58.34"/>
<polygon fill="#9a32cd" stroke="#9a32cd" points="357.3,-20.63 346.81,-22.1 355.93,-27.5 357.3,-20.63"/>
</a>
</g>
<text text-anchor="middle" x="438.5" y="-52.74" font-family="Helvetica,sans-Serif" font-size="10.00" fill="grey"> attributes</text>
</g>
</g>
</svg>

<g id="navigator" transform="translate(0 0)" fill="#404254">
  <rect fill="#f2f5e9" fill-opacity="0.5" stroke="#606060" stroke-width=".5" x="0" y="0" width="60" height="60"/>
  <use id="zoomplus" xlink:href="#zoomPlus" x="17" y="9" onmousedown="handleZoom(evt,'in')"/>
  <use id="zoomminus" xlink:href="#zoomMin" x="42" y="9" onmousedown="handleZoom(evt,'out')"/>
  <use id="reset" xlink:href="#resetDef" x="30" y="36" onmousedown="handleReset()"/>
   <use id="arrowup" xlink:href="#arrowUp" x="0" y="0" onmousedown="handlePan(0,-1)"/>
  <use id="arrowright" xlink:href="#arrowRight" x="0" y="0" onmousedown="handlePan(1,0)"/>
  <use id="arrowdown" xlink:href="#arrowDown" x="0" y="0" onmousedown="handlePan(0,1)"/>
  <use id="arrowleft" xlink:href="#arrowLeft" x="0" y="0" onmousedown="handlePan(-1,0)"/>
</g>
<svg viewBox="0 0 15 15" width="100%" height="30px" preserveAspectRatio="xMaxYMin meet">
 <g id="arrow_out" transform="scale(0.3 0.3)">
  <a xlink:href="structltc2983__iio__desc__coll__graph_org.svg" target="_base">
   <rect id="button" ry="5" rx="5" y="6" x="6" height="38" width="38"
        fill="#f2f5e9" fill-opacity="0.5" stroke="#606060" stroke-width="1.0"/>
   <path id="arrow"
     d="M 11.500037,31.436501 C 11.940474,20.09759 22.043105,11.32322 32.158766,21.979434 L 37.068811,17.246167 C 37.068811,17.246167 37.088388,32 37.088388,32 L 22.160133,31.978069 C 22.160133,31.978069 26.997745,27.140456 26.997745,27.140456 C 18.528582,18.264221 13.291696,25.230495 11.500037,31.436501 z"
     style="fill:#404040;"/>
  </a>
 </g>
</svg>

<style type='text/css'>
<![CDATA[
[data-mouse-over-selected='false'] { opacity: 0.7; }
[data-mouse-over-selected='true']  { opacity: 1.0; }
]]>
</style>
<script type="application/ecmascript"><![CDATA[
document.addEventListener('DOMContentLoaded', (event) => {
  highlightEdges();
  highlightAdjacentNodes();
});
]]></script>
</svg>
