<?xml version="1.0" encoding="UTF-8" standalone="no"?>
<!DOCTYPE svg PUBLIC "-//W3C//DTD SVG 1.1//EN"
 "http://www.w3.org/Graphics/SVG/1.1/DTD/svg11.dtd">
<!-- Generated by graphviz version 2.43.0 (0)
 -->
<!-- Title: max_spi_state Pages: 1 -->
<!--zoomable 289 -->

<svg id="main" version="1.1" xmlns="http://www.w3.org/2000/svg" xmlns:xlink="http://www.w3.org/1999/xlink" xml:space="preserve" onload="init(evt)">

<style type="text/css"><![CDATA[
.node, .edge {opacity: 0.7;}
.node.selected, .edge.selected {opacity: 1;}
.edge:hover path { stroke: red; }
.edge:hover polygon { stroke: red; fill: red; }
]]></style>

<defs>
  <circle id="rim" cx="0" cy="0" r="7"/>
  <circle id="rim2" cx="0" cy="0" r="3.5"/>
  <g id="zoomPlus">
    <use xlink:href="#rim" fill="#404040"><set attributeName="fill" to="#808080" begin="zoomplus.mouseover" end="zoomplus.mouseout"/></use>
    <path d="M-4,0h8M0,-4v8" fill="none" stroke="white" stroke-width="1.5" pointer-events="none"/>
  </g>
  <g id="zoomMin">
    <use xlink:href="#rim" fill="#404040"><set attributeName="fill" to="#808080" begin="zoomminus.mouseover" end="zoomminus.mouseout"/></use>
    <path d="M-4,0h8" fill="none" stroke="white" stroke-width="1.5" pointer-events="none"/>
  </g>
  <g id="arrowUp" transform="translate(30 24)">
    <use xlink:href="#rim"/>
    <path pointer-events="none" fill="none" stroke="white" stroke-width="1.5" d="M0,-3.0v7 M-2.5,-0.5L0,-3.0L2.5,-0.5"/>
  </g>
  <g id="arrowRight" transform="rotate(90) translate(36 -43)">
    <use xlink:href="#rim"/>
    <path pointer-events="none" fill="none" stroke="white" stroke-width="1.5" d="M0,-3.0v7 M-2.5,-0.5L0,-3.0L2.5,-0.5"/>
  </g>
  <g id="arrowDown" transform="rotate(180) translate(-30 -48)">
    <use xlink:href="#rim"/>
    <path pointer-events="none" fill="none" stroke="white" stroke-width="1.5" d="M0,-3.0v7 M-2.5,-0.5L0,-3.0L2.5,-0.5"/>
  </g>
  <g id="arrowLeft" transform="rotate(270) translate(-36 17)">
    <use xlink:href="#rim"/>
    <path pointer-events="none" fill="none" stroke="white" stroke-width="1.5" d="M0,-3.0v7 M-2.5,-0.5L0,-3.0L2.5,-0.5"/>
  </g>
  <g id="resetDef">
    <use xlink:href="#rim2" fill="#404040"><set attributeName="fill" to="#808080" begin="reset.mouseover" end="reset.mouseout"/></use>
  </g>
</defs>
<script type="application/ecmascript">
var viewWidth = 1039;
var viewHeight = 289;
var sectionId = 'dynsection-0';
</script>
<script type="application/ecmascript" xlink:href="svg.min.js"/>
<svg id="graph" class="graph">
<g id="viewport">
<title>max_spi_state</title>
<!-- Node1 -->
<g id="Node000001" class="node">
<title>Node1</title>
<g id="a_Node000001"><a xlink:title=" ">
<polygon fill="#999999" stroke="#666666" points="816.5,-265 728.5,-265 728.5,-246 816.5,-246 816.5,-265"/>
<text text-anchor="middle" x="772.5" y="-253" font-family="Helvetica,sans-Serif" font-size="10.00">max_spi_state</text>
</a>
</g>
</g>
<!-- Node2 -->
<g id="Node000002" class="node">
<title>Node2</title>
<g id="a_Node000002"><a xlink:href="structmax__spi__init__param.html" target="_top" xlink:title="Maxim specific SPI initialization parameters.">
<polygon fill="white" stroke="#666666" points="590,-279 474,-279 474,-260 590,-260 590,-279"/>
<text text-anchor="middle" x="532" y="-267" font-family="Helvetica,sans-Serif" font-size="10.00">max_spi_init_param</text>
</a>
</g>
</g>
<!-- Node2&#45;&gt;Node1 -->
<g id="edge1_Node000001_Node000002" class="edge">
<title>Node2&#45;&gt;Node1</title>
<g id="a_edge1_Node000001_Node000002"><a xlink:title=" ">
<path fill="none" stroke="#9a32cd" stroke-dasharray="5,2" d="M600.33,-265.55C641.37,-263.14 692.61,-260.13 728.28,-258.04"/>
<polygon fill="#9a32cd" stroke="#9a32cd" points="599.9,-262.07 590.13,-266.15 600.31,-269.05 599.9,-262.07"/>
</a>
</g>
<text text-anchor="middle" x="636" y="-267.5" font-family="Helvetica,sans-Serif" font-size="10.00" fill="grey"> init_param</text>
</g>
<!-- Node3 -->
<g id="Node000003" class="node">
<title>Node3</title>
<g id="a_Node000003"><a xlink:href="structno__os__dma__init__param.html" target="_top" xlink:title="Initialization parameter for the DMA controller.">
<polygon fill="white" stroke="#666666" points="376,-279 246,-279 246,-260 376,-260 376,-279"/>
<text text-anchor="middle" x="311" y="-267" font-family="Helvetica,sans-Serif" font-size="10.00">no_os_dma_init_param</text>
</a>
</g>
</g>
<!-- Node3&#45;&gt;Node2 -->
<g id="edge2_Node000002_Node000003" class="edge">
<title>Node3&#45;&gt;Node2</title>
<g id="a_edge2_Node000002_Node000003"><a xlink:title=" ">
<path fill="none" stroke="#9a32cd" stroke-dasharray="5,2" d="M386.57,-269.5C415.11,-269.5 447.19,-269.5 473.86,-269.5"/>
<polygon fill="#9a32cd" stroke="#9a32cd" points="386.23,-266 376.23,-269.5 386.23,-273 386.23,-266"/>
</a>
</g>
<text text-anchor="middle" x="425" y="-272.5" font-family="Helvetica,sans-Serif" font-size="10.00" fill="grey"> dma_param</text>
</g>
<!-- Node4 -->
<g id="Node000004" class="node">
<title>Node4</title>
<g id="a_Node000004"><a xlink:href="structno__os__dma__platform__ops.html" target="_top" xlink:title=" ">
<polygon fill="white" stroke="#666666" points="142,-256 0,-256 0,-237 142,-237 142,-256"/>
<text text-anchor="middle" x="71" y="-244" font-family="Helvetica,sans-Serif" font-size="10.00">no_os_dma_platform_ops</text>
</a>
</g>
</g>
<!-- Node4&#45;&gt;Node3 -->
<g id="edge3_Node000003_Node000004" class="edge">
<title>Node4&#45;&gt;Node3</title>
<g id="a_edge3_Node000003_Node000004"><a xlink:title=" ">
<path fill="none" stroke="#9a32cd" stroke-dasharray="5,2" d="M152.28,-254.26C182.69,-257.2 216.9,-260.5 245.66,-263.28"/>
<polygon fill="#9a32cd" stroke="#9a32cd" points="152.41,-250.75 142.12,-253.28 151.74,-257.72 152.41,-250.75"/>
</a>
</g>
<text text-anchor="middle" x="194" y="-263.5" font-family="Helvetica,sans-Serif" font-size="10.00" fill="grey"> platform_ops</text>
</g>
<!-- Node5 -->
<g id="Node000005" class="node">
<title>Node5</title>
<g id="a_Node000005"><a xlink:href="structno__os__dma__desc.html" target="_top" xlink:title="Describes the state of the DMA controller.">
<polygon fill="white" stroke="#666666" points="582,-211 482,-211 482,-192 582,-192 582,-211"/>
<text text-anchor="middle" x="532" y="-199" font-family="Helvetica,sans-Serif" font-size="10.00">no_os_dma_desc</text>
</a>
</g>
</g>
<!-- Node4&#45;&gt;Node5 -->
<g id="edge12_Node000005_Node000004" class="edge">
<title>Node4&#45;&gt;Node5</title>
<g id="a_edge12_Node000005_Node000004"><a xlink:title=" ">
<path fill="none" stroke="#9a32cd" stroke-dasharray="5,2" d="M152.33,-239.58C230.06,-232.74 351.18,-221.7 456,-210.5 464.35,-209.61 473.21,-208.6 481.8,-207.59"/>
<polygon fill="#9a32cd" stroke="#9a32cd" points="151.78,-236.11 142.13,-240.48 152.39,-243.09 151.78,-236.11"/>
</a>
</g>
<text text-anchor="middle" x="311" y="-233.5" font-family="Helvetica,sans-Serif" font-size="10.00" fill="grey"> platform_ops</text>
</g>
<!-- Node5&#45;&gt;Node1 -->
<g id="edge4_Node000001_Node000005" class="edge">
<title>Node5&#45;&gt;Node1</title>
<g id="a_edge4_Node000001_Node000005"><a xlink:title=" ">
<path fill="none" stroke="#9a32cd" stroke-dasharray="5,2" d="M584.87,-213.24C628.17,-223.05 689.12,-236.85 729.43,-245.97"/>
<polygon fill="#9a32cd" stroke="#9a32cd" points="585.62,-209.82 575.09,-211.03 584.07,-216.65 585.62,-209.82"/>
</a>
</g>
<text text-anchor="middle" x="636" y="-232.5" font-family="Helvetica,sans-Serif" font-size="10.00" fill="grey"> dma</text>
</g>
<!-- Node9 -->
<g id="Node000009" class="node">
<title>Node9</title>
<g id="a_Node000009"><a xlink:href="structno__os__dma__default__handler__data.html" target="_top" xlink:title="IRQ parameter for the default inter transfer handler.">
<polygon fill="white" stroke="#666666" points="863,-214 682,-214 682,-195 863,-195 863,-214"/>
<text text-anchor="middle" x="772.5" y="-202" font-family="Helvetica,sans-Serif" font-size="10.00">no_os_dma_default_handler_data</text>
</a>
</g>
</g>
<!-- Node5&#45;&gt;Node9 -->
<g id="edge10_Node000009_Node000005" class="edge">
<title>Node5&#45;&gt;Node9</title>
<g id="a_edge10_Node000009_Node000005"><a xlink:title=" ">
<path fill="none" stroke="#9a32cd" stroke-dasharray="5,2" d="M592.22,-201.81C614.7,-201.97 640.53,-202.19 664,-202.5 669.79,-202.58 675.75,-202.66 681.76,-202.76"/>
<polygon fill="#9a32cd" stroke="#9a32cd" points="592.17,-198.31 582.15,-201.75 592.12,-205.31 592.17,-198.31"/>
</a>
</g>
<text text-anchor="middle" x="636" y="-205.5" font-family="Helvetica,sans-Serif" font-size="10.00" fill="grey"> desc</text>
</g>
<!-- Node6 -->
<g id="Node000006" class="node">
<title>Node6</title>
<g id="a_Node000006"><a xlink:href="structno__os__dma__ch.html" target="_top" xlink:title="Describes the state of a DMA channel.">
<polygon fill="white" stroke="#666666" points="1031,-175 942,-175 942,-156 1031,-156 1031,-175"/>
<text text-anchor="middle" x="986.5" y="-163" font-family="Helvetica,sans-Serif" font-size="10.00">no_os_dma_ch</text>
</a>
</g>
</g>
<!-- Node6&#45;&gt;Node5 -->
<g id="edge5_Node000005_Node000006" class="edge">
<title>Node6&#45;&gt;Node5</title>
<g id="a_edge5_Node000005_Node000006"><a xlink:title=" ">
<path fill="none" stroke="#9a32cd" stroke-dasharray="5,2" d="M931.77,-165.01C870.99,-164.98 769.12,-166.51 682,-175.5 646.87,-179.13 607.52,-186.12 578.09,-191.94"/>
<polygon fill="#9a32cd" stroke="#9a32cd" points="931.89,-168.51 941.9,-165.03 931.9,-161.51 931.89,-168.51"/>
</a>
</g>
<text text-anchor="middle" x="772.5" y="-178.5" font-family="Helvetica,sans-Serif" font-size="10.00" fill="grey"> channels</text>
</g>
<!-- Node6&#45;&gt;Node9 -->
<g id="edge11_Node000009_Node000006" class="edge">
<title>Node6&#45;&gt;Node9</title>
<g id="a_edge11_Node000009_Node000006"><a xlink:title=" ">
<path fill="none" stroke="#9a32cd" stroke-dasharray="5,2" d="M931.43,-175.45C898.84,-181.44 857.55,-189.04 825.36,-194.96"/>
<polygon fill="#9a32cd" stroke="#9a32cd" points="932.49,-178.81 941.69,-173.56 931.22,-171.93 932.49,-178.81"/>
</a>
</g>
<text text-anchor="middle" x="902.5" y="-186.5" font-family="Helvetica,sans-Serif" font-size="10.00" fill="grey"> channel</text>
</g>
<!-- Node7 -->
<g id="Node000007" class="node">
<title>Node7</title>
<g id="a_Node000007"><a xlink:href="structno__os__list__desc.html" target="_top" xlink:title="Structure storing the list and function wrapper for usual list types.">
<polygon fill="white" stroke="#666666" points="819,-56 726,-56 726,-37 819,-37 819,-56"/>
<text text-anchor="middle" x="772.5" y="-44" font-family="Helvetica,sans-Serif" font-size="10.00">no_os_list_desc</text>
</a>
</g>
</g>
<!-- Node7&#45;&gt;Node6 -->
<g id="edge6_Node000006_Node000007" class="edge">
<title>Node7&#45;&gt;Node6</title>
<g id="a_edge6_Node000006_Node000007"><a xlink:title=" ">
<path fill="none" stroke="#9a32cd" stroke-dasharray="5,2" d="M799.42,-61.05C843.37,-85.72 931.37,-135.12 968.43,-155.92"/>
<polygon fill="#9a32cd" stroke="#9a32cd" points="800.92,-57.88 790.49,-56.04 797.5,-63.98 800.92,-57.88"/>
</a>
</g>
<text text-anchor="middle" x="902.5" y="-132.5" font-family="Helvetica,sans-Serif" font-size="10.00" fill="grey"> sg_list</text>
</g>
<!-- Node7&#45;&gt;Node7 -->
<g id="edge7_Node000007_Node000007" class="edge">
<title>Node7&#45;&gt;Node7</title>
<g id="a_edge7_Node000007_Node000007"><a xlink:title=" ">
<path fill="none" stroke="#9a32cd" stroke-dasharray="5,2" d="M748.32,-65.19C749.64,-70.2 757.7,-74 772.5,-74 795.61,-74 802.28,-64.73 792.54,-56.08"/>
<polygon fill="#9a32cd" stroke="#9a32cd" points="751.51,-66.63 752.46,-56.08 745.14,-63.73 751.51,-66.63"/>
</a>
</g>
<text text-anchor="middle" x="772.5" y="-121" font-family="Helvetica,sans-Serif" font-size="10.00" fill="grey"> back</text>
<text text-anchor="middle" x="772.5" y="-110" font-family="Helvetica,sans-Serif" font-size="10.00" fill="grey">pop</text>
<text text-anchor="middle" x="772.5" y="-99" font-family="Helvetica,sans-Serif" font-size="10.00" fill="grey">push</text>
<text text-anchor="middle" x="772.5" y="-88" font-family="Helvetica,sans-Serif" font-size="10.00" fill="grey">swap</text>
<text text-anchor="middle" x="772.5" y="-77" font-family="Helvetica,sans-Serif" font-size="10.00" fill="grey">top_next</text>
</g>
<!-- Node8 -->
<g id="Node000008" class="node">
<title>Node8</title>
<g id="a_Node000008"><a xlink:href="structno__os__callback__desc.html" target="_top" xlink:title="Structure describing a callback to be registered.">
<polygon fill="white" stroke="#666666" points="832,-19 713,-19 713,0 832,0 832,-19"/>
<text text-anchor="middle" x="772.5" y="-7" font-family="Helvetica,sans-Serif" font-size="10.00">no_os_callback_desc</text>
</a>
</g>
</g>
<!-- Node8&#45;&gt;Node6 -->
<g id="edge8_Node000006_Node000008" class="edge">
<title>Node8&#45;&gt;Node6</title>
<g id="a_edge8_Node000006_Node000008"><a xlink:title=" ">
<path fill="none" stroke="#9a32cd" stroke-dasharray="5,2" d="M842.21,-18.6C849.48,-20.93 856.55,-23.85 863,-27.5 920.7,-60.18 965.18,-130.24 980.1,-155.86"/>
<polygon fill="#9a32cd" stroke="#9a32cd" points="842.81,-15.13 832.24,-15.77 840.9,-21.87 842.81,-15.13"/>
</a>
</g>
<text text-anchor="middle" x="902.5" y="-77.5" font-family="Helvetica,sans-Serif" font-size="10.00" fill="grey"> cb_desc</text>
</g>
<!-- Node9&#45;&gt;Node6 -->
<g id="edge9_Node000006_Node000009" class="edge">
<title>Node9&#45;&gt;Node6</title>
<g id="a_edge9_Node000006_Node000009"><a xlink:title=" ">
<path fill="none" stroke="#9a32cd" stroke-dasharray="5,2" d="M826.51,-215.52C855.92,-219.45 892.76,-220.71 924,-210.5 945.13,-203.6 965.01,-186.37 976.18,-175.35"/>
<polygon fill="#9a32cd" stroke="#9a32cd" points="826.84,-212.03 816.44,-214.03 825.82,-218.95 826.84,-212.03"/>
</a>
</g>
<text text-anchor="middle" x="902.5" y="-220.5" font-family="Helvetica,sans-Serif" font-size="10.00" fill="grey"> irq_ctx</text>
</g>
<!-- Node10 -->
<g id="Node000010" class="node">
<title>Node10</title>
<g id="a_Node000010"><a xlink:href="structno__os__irq__ctrl__desc.html" target="_top" xlink:title=" ">
<polygon fill="white" stroke="#666666" points="367,-194 255,-194 255,-175 367,-175 367,-194"/>
<text text-anchor="middle" x="311" y="-182" font-family="Helvetica,sans-Serif" font-size="10.00">no_os_irq_ctrl_desc</text>
</a>
</g>
</g>
<!-- Node10&#45;&gt;Node5 -->
<g id="edge13_Node000005_Node000010" class="edge">
<title>Node10&#45;&gt;Node5</title>
<g id="a_edge13_Node000005_Node000010"><a xlink:title=" ">
<path fill="none" stroke="#9a32cd" stroke-dasharray="5,2" d="M377.42,-189.58C410.87,-192.18 450.92,-195.28 481.73,-197.68"/>
<polygon fill="#9a32cd" stroke="#9a32cd" points="377.5,-186.07 367.26,-188.79 376.96,-193.05 377.5,-186.07"/>
</a>
</g>
<text text-anchor="middle" x="425" y="-198.5" font-family="Helvetica,sans-Serif" font-size="10.00" fill="grey"> irq_ctrl</text>
</g>
<!-- Node11 -->
<g id="Node000011" class="node">
<title>Node11</title>
<g id="a_Node000011"><a xlink:href="structno__os__irq__platform__ops.html" target="_top" xlink:title="Structure holding IRQ function pointers that point to the platform specific function.">
<polygon fill="white" stroke="#666666" points="137.5,-194 4.5,-194 4.5,-175 137.5,-175 137.5,-194"/>
<text text-anchor="middle" x="71" y="-182" font-family="Helvetica,sans-Serif" font-size="10.00">no_os_irq_platform_ops</text>
</a>
</g>
</g>
<!-- Node11&#45;&gt;Node10 -->
<g id="edge14_Node000010_Node000011" class="edge">
<title>Node11&#45;&gt;Node10</title>
<g id="a_edge14_Node000010_Node000011"><a xlink:title=" ">
<path fill="none" stroke="#9a32cd" stroke-dasharray="5,2" d="M147.76,-184.5C182.46,-184.5 222.83,-184.5 254.62,-184.5"/>
<polygon fill="#9a32cd" stroke="#9a32cd" points="147.66,-181 137.66,-184.5 147.66,-188 147.66,-181"/>
</a>
</g>
<text text-anchor="middle" x="194" y="-187.5" font-family="Helvetica,sans-Serif" font-size="10.00" fill="grey"> platform_ops</text>
</g>
</g>
</svg>

<g id="navigator" transform="translate(0 0)" fill="#404254">
  <rect fill="#f2f5e9" fill-opacity="0.5" stroke="#606060" stroke-width=".5" x="0" y="0" width="60" height="60"/>
  <use id="zoomplus" xlink:href="#zoomPlus" x="17" y="9" onmousedown="handleZoom(evt,'in')"/>
  <use id="zoomminus" xlink:href="#zoomMin" x="42" y="9" onmousedown="handleZoom(evt,'out')"/>
  <use id="reset" xlink:href="#resetDef" x="30" y="36" onmousedown="handleReset()"/>
   <use id="arrowup" xlink:href="#arrowUp" x="0" y="0" onmousedown="handlePan(0,-1)"/>
  <use id="arrowright" xlink:href="#arrowRight" x="0" y="0" onmousedown="handlePan(1,0)"/>
  <use id="arrowdown" xlink:href="#arrowDown" x="0" y="0" onmousedown="handlePan(0,1)"/>
  <use id="arrowleft" xlink:href="#arrowLeft" x="0" y="0" onmousedown="handlePan(-1,0)"/>
</g>
<svg viewBox="0 0 15 15" width="100%" height="30px" preserveAspectRatio="xMaxYMin meet">
 <g id="arrow_out" transform="scale(0.3 0.3)">
  <a xlink:href="structmax__spi__state__coll__graph_org.svg" target="_base">
   <rect id="button" ry="5" rx="5" y="6" x="6" height="38" width="38"
        fill="#f2f5e9" fill-opacity="0.5" stroke="#606060" stroke-width="1.0"/>
   <path id="arrow"
     d="M 11.500037,31.436501 C 11.940474,20.09759 22.043105,11.32322 32.158766,21.979434 L 37.068811,17.246167 C 37.068811,17.246167 37.088388,32 37.088388,32 L 22.160133,31.978069 C 22.160133,31.978069 26.997745,27.140456 26.997745,27.140456 C 18.528582,18.264221 13.291696,25.230495 11.500037,31.436501 z"
     style="fill:#404040;"/>
  </a>
 </g>
</svg>

<style type='text/css'>
<![CDATA[
[data-mouse-over-selected='false'] { opacity: 0.7; }
[data-mouse-over-selected='true']  { opacity: 1.0; }
]]>
</style>
<script type="application/ecmascript"><![CDATA[
document.addEventListener('DOMContentLoaded', (event) => {
  highlightEdges();
  highlightAdjacentNodes();
});
]]></script>
</svg>
