<?xml version="1.0" encoding="UTF-8" standalone="no"?>
<!DOCTYPE svg PUBLIC "-//W3C//DTD SVG 1.1//EN"
 "http://www.w3.org/Graphics/SVG/1.1/DTD/svg11.dtd">
<!-- Generated by graphviz version 2.43.0 (0)
 -->
<!-- Title: ad9208_state Pages: 1 -->
<svg width="303pt" height="93pt"
 viewBox="0.00 0.00 302.50 93.00" xmlns="http://www.w3.org/2000/svg" xmlns:xlink="http://www.w3.org/1999/xlink">
<g id="graph0" class="graph" transform="scale(1 1) rotate(0) translate(4 89)">
<title>ad9208_state</title>
<!-- Node1 -->
<g id="Node000001" class="node">
<title>Node1</title>
<g id="a_Node000001"><a xlink:title=" ">
<polygon fill="#999999" stroke="#666666" points="197.5,-19 114.5,-19 114.5,0 197.5,0 197.5,-19"/>
<text text-anchor="middle" x="156" y="-7" font-family="Helvetica,sans-Serif" font-size="10.00">ad9208_state</text>
</a>
</g>
</g>
<!-- Node2 -->
<g id="Node000002" class="node">
<title>Node2</title>
<g id="a_Node000002"><a xlink:href="structad9208__handle__t.html" target="_top" xlink:title=" ">
<polygon fill="white" stroke="#666666" points="100,-85 0,-85 0,-66 100,-66 100,-85"/>
<text text-anchor="middle" x="50" y="-73" font-family="Helvetica,sans-Serif" font-size="10.00">ad9208_handle_t</text>
</a>
</g>
</g>
<!-- Node2&#45;&gt;Node1 -->
<g id="edge1_Node000001_Node000002" class="edge">
<title>Node2&#45;&gt;Node1</title>
<g id="a_edge1_Node000001_Node000002"><a xlink:title=" ">
<path fill="none" stroke="#9a32cd" stroke-dasharray="5,2" d="M72.87,-60.69C93.73,-48.09 123.92,-29.87 141.59,-19.2"/>
<polygon fill="#9a32cd" stroke="#9a32cd" points="71.05,-57.7 64.3,-65.87 74.67,-63.7 71.05,-57.7"/>
</a>
</g>
<text text-anchor="middle" x="126" y="-40" font-family="Helvetica,sans-Serif" font-size="10.00" fill="grey"> adc_h</text>
</g>
<!-- Node3 -->
<g id="Node000003" class="node">
<title>Node3</title>
<g id="a_Node000003"><a xlink:href="structad9208__ddc.html" target="_top" xlink:title=" ">
<polygon fill="white" stroke="#666666" points="193.5,-85 118.5,-85 118.5,-66 193.5,-66 193.5,-85"/>
<text text-anchor="middle" x="156" y="-73" font-family="Helvetica,sans-Serif" font-size="10.00">ad9208_ddc</text>
</a>
</g>
</g>
<!-- Node3&#45;&gt;Node1 -->
<g id="edge2_Node000001_Node000003" class="edge">
<title>Node3&#45;&gt;Node1</title>
<g id="a_edge2_Node000001_Node000003"><a xlink:title=" ">
<path fill="none" stroke="#9a32cd" stroke-dasharray="5,2" d="M156,-55.58C156,-43.63 156,-28.72 156,-19.41"/>
<polygon fill="#9a32cd" stroke="#9a32cd" points="152.5,-55.87 156,-65.87 159.5,-55.87 152.5,-55.87"/>
</a>
</g>
<text text-anchor="middle" x="166.5" y="-40" font-family="Helvetica,sans-Serif" font-size="10.00" fill="grey"> ddc</text>
</g>
<!-- Node4 -->
<g id="Node000004" class="node">
<title>Node4</title>
<g id="a_Node000004"><a xlink:href="structjesd__param__t.html" target="_top" xlink:title=" ">
<polygon fill="white" stroke="#666666" points="294.5,-85 211.5,-85 211.5,-66 294.5,-66 294.5,-85"/>
<text text-anchor="middle" x="253" y="-73" font-family="Helvetica,sans-Serif" font-size="10.00">jesd_param_t</text>
</a>
</g>
</g>
<!-- Node4&#45;&gt;Node1 -->
<g id="edge3_Node000001_Node000004" class="edge">
<title>Node4&#45;&gt;Node1</title>
<g id="a_edge3_Node000001_Node000004"><a xlink:title=" ">
<path fill="none" stroke="#9a32cd" stroke-dasharray="5,2" d="M231.55,-60.35C212.49,-47.77 185.21,-29.78 169.18,-19.2"/>
<polygon fill="#9a32cd" stroke="#9a32cd" points="229.64,-63.28 239.92,-65.87 233.5,-57.44 229.64,-63.28"/>
</a>
</g>
<text text-anchor="middle" x="240.5" y="-40" font-family="Helvetica,sans-Serif" font-size="10.00" fill="grey"> jesd_param</text>
</g>
</g>
</svg>
