<?xml version="1.0" encoding="UTF-8" standalone="no"?>
<!DOCTYPE svg PUBLIC "-//W3C//DTD SVG 1.1//EN"
 "http://www.w3.org/Graphics/SVG/1.1/DTD/svg11.dtd">
<!-- Generated by graphviz version 2.43.0 (0)
 -->
<!-- Title: adgm3121_init_param Pages: 1 -->
<svg width="1074pt" height="188pt"
 viewBox="0.00 0.00 1074.00 187.50" xmlns="http://www.w3.org/2000/svg" xmlns:xlink="http://www.w3.org/1999/xlink">
<g id="graph0" class="graph" transform="scale(1 1) rotate(0) translate(4 183.5)">
<title>adgm3121_init_param</title>
<!-- Node1 -->
<g id="Node000001" class="node">
<title>Node1</title>
<g id="a_Node000001"><a xlink:title="Initialization parameters.">
<polygon fill="#999999" stroke="#666666" points="1066,-73 940,-73 940,-54 1066,-54 1066,-73"/>
<text text-anchor="middle" x="1003" y="-61" font-family="Helvetica,sans-Serif" font-size="10.00">adgm3121_init_param</text>
</a>
</g>
</g>
<!-- Node2 -->
<g id="Node000002" class="node">
<title>Node2</title>
<g id="a_Node000002"><a xlink:href="structno__os__spi__init__param.html" target="_top" xlink:title="Structure holding the parameters for SPI initialization.">
<polygon fill="white" stroke="#666666" points="839.5,-115 717.5,-115 717.5,-96 839.5,-96 839.5,-115"/>
<text text-anchor="middle" x="778.5" y="-103" font-family="Helvetica,sans-Serif" font-size="10.00">no_os_spi_init_param</text>
</a>
</g>
</g>
<!-- Node2&#45;&gt;Node1 -->
<g id="edge1_Node000001_Node000002" class="edge">
<title>Node2&#45;&gt;Node1</title>
<g id="a_edge1_Node000001_Node000002"><a xlink:title=" ">
<path fill="none" stroke="#9a32cd" stroke-dasharray="5,2" d="M849.71,-95.21C872.8,-91.55 898.56,-87.17 922,-82.5 935.86,-79.74 950.96,-76.27 964.28,-73.06"/>
<polygon fill="#9a32cd" stroke="#9a32cd" points="848.99,-91.78 839.65,-96.79 850.07,-98.7 848.99,-91.78"/>
</a>
</g>
<text text-anchor="middle" x="891.5" y="-95.5" font-family="Helvetica,sans-Serif" font-size="10.00" fill="grey"> spi_init</text>
</g>
<!-- Node3 -->
<g id="Node000003" class="node">
<title>Node3</title>
<g id="a_Node000003"><a xlink:href="structno__os__spi__platform__ops.html" target="_top" xlink:title="Structure holding SPI function pointers that point to the platform specific function.">
<polygon fill="white" stroke="#666666" points="134,-158 0,-158 0,-139 134,-139 134,-158"/>
<text text-anchor="middle" x="67" y="-146" font-family="Helvetica,sans-Serif" font-size="10.00">no_os_spi_platform_ops</text>
</a>
</g>
</g>
<!-- Node3&#45;&gt;Node2 -->
<g id="edge2_Node000002_Node000003" class="edge">
<title>Node3&#45;&gt;Node2</title>
<g id="a_edge2_Node000002_Node000003"><a xlink:title=" ">
<path fill="none" stroke="#9a32cd" stroke-dasharray="5,2" d="M144.58,-157.03C250.02,-167.07 445.54,-179.52 610,-155.5 662.55,-147.82 721.53,-127.28 753.59,-115.04"/>
<polygon fill="#9a32cd" stroke="#9a32cd" points="144.65,-153.52 134.35,-156.04 143.97,-160.49 144.65,-153.52"/>
</a>
</g>
<text text-anchor="middle" x="409.5" y="-171.5" font-family="Helvetica,sans-Serif" font-size="10.00" fill="grey"> platform_ops</text>
</g>
<!-- Node5 -->
<g id="Node000005" class="node">
<title>Node5</title>
<g id="a_Node000005"><a xlink:href="structno__os__spi__desc.html" target="_top" xlink:title="Structure holding SPI descriptor.">
<polygon fill="white" stroke="#666666" points="585.5,-117 493.5,-117 493.5,-98 585.5,-98 585.5,-117"/>
<text text-anchor="middle" x="539.5" y="-105" font-family="Helvetica,sans-Serif" font-size="10.00">no_os_spi_desc</text>
</a>
</g>
</g>
<!-- Node3&#45;&gt;Node5 -->
<g id="edge7_Node000005_Node000003" class="edge">
<title>Node3&#45;&gt;Node5</title>
<g id="a_edge7_Node000005_Node000003"><a xlink:title=" ">
<path fill="none" stroke="#9a32cd" stroke-dasharray="5,2" d="M144.36,-144.6C221.77,-140.25 344.93,-132.24 451,-120.5 464.74,-118.98 479.63,-116.92 493.17,-114.89"/>
<polygon fill="#9a32cd" stroke="#9a32cd" points="144.01,-141.11 134.22,-145.16 144.4,-148.1 144.01,-141.11"/>
</a>
</g>
<text text-anchor="middle" x="294" y="-140.5" font-family="Helvetica,sans-Serif" font-size="10.00" fill="grey"> platform_ops</text>
</g>
<!-- Node6 -->
<g id="Node000006" class="node">
<title>Node6</title>
<g id="a_Node000006"><a xlink:href="structno__os__spibus__desc.html" target="_top" xlink:title="SPI bus descriptor.">
<polygon fill="white" stroke="#666666" points="349,-112 239,-112 239,-93 349,-93 349,-112"/>
<text text-anchor="middle" x="294" y="-100" font-family="Helvetica,sans-Serif" font-size="10.00">no_os_spibus_desc</text>
</a>
</g>
</g>
<!-- Node3&#45;&gt;Node6 -->
<g id="edge6_Node000006_Node000003" class="edge">
<title>Node3&#45;&gt;Node6</title>
<g id="a_edge6_Node000006_Node000003"><a xlink:title=" ">
<path fill="none" stroke="#9a32cd" stroke-dasharray="5,2" d="M106.43,-135.82C120.63,-131.46 136.94,-126.84 152,-123.5 180.39,-117.19 212.42,-112.25 238.77,-108.75"/>
<polygon fill="#9a32cd" stroke="#9a32cd" points="105,-132.6 96.51,-138.92 107.09,-139.28 105,-132.6"/>
</a>
</g>
<text text-anchor="middle" x="186" y="-126.5" font-family="Helvetica,sans-Serif" font-size="10.00" fill="grey"> platform_ops</text>
</g>
<!-- Node4 -->
<g id="Node000004" class="node">
<title>Node4</title>
<g id="a_Node000004"><a xlink:href="structno__os__platform__spi__delays.html" target="_top" xlink:title="Delays resulted from components in the SPI signal path. The values is ns.">
<polygon fill="white" stroke="#666666" points="350,-72.5 238,-72.5 238,-42.5 350,-42.5 350,-72.5"/>
<text text-anchor="start" x="246" y="-60.5" font-family="Helvetica,sans-Serif" font-size="10.00">no_os_platform_spi</text>
<text text-anchor="middle" x="294" y="-49.5" font-family="Helvetica,sans-Serif" font-size="10.00">_delays</text>
</a>
</g>
</g>
<!-- Node4&#45;&gt;Node2 -->
<g id="edge3_Node000002_Node000004" class="edge">
<title>Node4&#45;&gt;Node2</title>
<g id="a_edge3_Node000002_Node000004"><a xlink:title=" ">
<path fill="none" stroke="#9a32cd" stroke-dasharray="5,2" d="M360.37,-60.08C424.19,-63.01 523.98,-68.72 610,-78.5 649.22,-82.96 693.27,-90.15 726.35,-95.99"/>
<polygon fill="#9a32cd" stroke="#9a32cd" points="360.2,-56.57 350.05,-59.61 359.88,-63.56 360.2,-56.57"/>
</a>
</g>
<text text-anchor="middle" x="539.5" y="-81.5" font-family="Helvetica,sans-Serif" font-size="10.00" fill="grey"> platform_delays</text>
</g>
<!-- Node4&#45;&gt;Node5 -->
<g id="edge8_Node000005_Node000004" class="edge">
<title>Node4&#45;&gt;Node5</title>
<g id="a_edge8_Node000005_Node000004"><a xlink:title=" ">
<path fill="none" stroke="#9a32cd" stroke-dasharray="5,2" d="M360.33,-70.22C388.28,-75.72 421.26,-82.32 451,-88.5 465.46,-91.51 481.24,-94.9 495.36,-97.97"/>
<polygon fill="#9a32cd" stroke="#9a32cd" points="360.77,-66.73 350.28,-68.24 359.42,-73.6 360.77,-66.73"/>
</a>
</g>
<text text-anchor="middle" x="409.5" y="-91.5" font-family="Helvetica,sans-Serif" font-size="10.00" fill="grey"> platform_delays</text>
</g>
<!-- Node5&#45;&gt;Node2 -->
<g id="edge4_Node000002_Node000005" class="edge">
<title>Node5&#45;&gt;Node2</title>
<g id="a_edge4_Node000002_Node000005"><a xlink:title=" ">
<path fill="none" stroke="#9a32cd" stroke-dasharray="5,2" d="M596.07,-107.03C632.46,-106.72 680.01,-106.32 717.3,-106.01"/>
<polygon fill="#9a32cd" stroke="#9a32cd" points="595.61,-103.53 585.64,-107.12 595.66,-110.53 595.61,-103.53"/>
</a>
</g>
<text text-anchor="middle" x="662" y="-109.5" font-family="Helvetica,sans-Serif" font-size="10.00" fill="grey"> parent</text>
</g>
<!-- Node5&#45;&gt;Node5 -->
<g id="edge9_Node000005_Node000005" class="edge">
<title>Node5&#45;&gt;Node5</title>
<g id="a_edge9_Node000005_Node000005"><a xlink:title=" ">
<path fill="none" stroke="#9a32cd" stroke-dasharray="5,2" d="M516.91,-126.55C518.42,-131.38 525.95,-135 539.5,-135 561.18,-135 567.45,-125.73 558.3,-117.08"/>
<polygon fill="#9a32cd" stroke="#9a32cd" points="520.23,-127.67 520.7,-117.08 513.73,-125.07 520.23,-127.67"/>
</a>
</g>
<text text-anchor="middle" x="539.5" y="-138" font-family="Helvetica,sans-Serif" font-size="10.00" fill="grey"> parent</text>
</g>
<!-- Node6&#45;&gt;Node5 -->
<g id="edge5_Node000005_Node000006" class="edge">
<title>Node6&#45;&gt;Node5</title>
<g id="a_edge5_Node000005_Node000006"><a xlink:title=" ">
<path fill="none" stroke="#9a32cd" stroke-dasharray="5,2" d="M359.21,-103.82C401.37,-104.68 455.49,-105.8 493.19,-106.57"/>
<polygon fill="#9a32cd" stroke="#9a32cd" points="359.11,-100.32 349.04,-103.61 358.97,-107.31 359.11,-100.32"/>
</a>
</g>
<text text-anchor="middle" x="409.5" y="-108.5" font-family="Helvetica,sans-Serif" font-size="10.00" fill="grey"> bus</text>
</g>
<!-- Node7 -->
<g id="Node000007" class="node">
<title>Node7</title>
<g id="a_Node000007"><a xlink:href="structno__os__gpio__init__param.html" target="_top" xlink:title="Structure holding the parameters for GPIO initialization.">
<polygon fill="white" stroke="#666666" points="843,-29 714,-29 714,-10 843,-10 843,-29"/>
<text text-anchor="middle" x="778.5" y="-17" font-family="Helvetica,sans-Serif" font-size="10.00">no_os_gpio_init_param</text>
</a>
</g>
</g>
<!-- Node7&#45;&gt;Node1 -->
<g id="edge10_Node000001_Node000007" class="edge">
<title>Node7&#45;&gt;Node1</title>
<g id="a_edge10_Node000001_Node000007"><a xlink:title=" ">
<path fill="none" stroke="#9a32cd" stroke-dasharray="5,2" d="M853.2,-15.51C875.57,-15.91 900.04,-17.99 922,-23.5 946.55,-29.66 972.27,-44.19 987.72,-53.94"/>
<polygon fill="#9a32cd" stroke="#9a32cd" points="853.11,-12 843.08,-15.43 853.06,-19 853.11,-12"/>
</a>
</g>
<text text-anchor="middle" x="891.5" y="-70.5" font-family="Helvetica,sans-Serif" font-size="10.00" fill="grey"> gpio_in1</text>
<text text-anchor="middle" x="891.5" y="-59.5" font-family="Helvetica,sans-Serif" font-size="10.00" fill="grey">gpio_in2</text>
<text text-anchor="middle" x="891.5" y="-48.5" font-family="Helvetica,sans-Serif" font-size="10.00" fill="grey">gpio_in3</text>
<text text-anchor="middle" x="891.5" y="-37.5" font-family="Helvetica,sans-Serif" font-size="10.00" fill="grey">gpio_in4</text>
<text text-anchor="middle" x="891.5" y="-26.5" font-family="Helvetica,sans-Serif" font-size="10.00" fill="grey">gpio_pin_spi</text>
</g>
<!-- Node8 -->
<g id="Node000008" class="node">
<title>Node8</title>
<g id="a_Node000008"><a xlink:href="structno__os__gpio__platform__ops.html" target="_top" xlink:title="Structure holding gpio function pointers that point to the platform specific function.">
<polygon fill="white" stroke="#666666" points="610,-19 469,-19 469,0 610,0 610,-19"/>
<text text-anchor="middle" x="539.5" y="-7" font-family="Helvetica,sans-Serif" font-size="10.00">no_os_gpio_platform_ops</text>
</a>
</g>
</g>
<!-- Node8&#45;&gt;Node7 -->
<g id="edge11_Node000007_Node000008" class="edge">
<title>Node8&#45;&gt;Node7</title>
<g id="a_edge11_Node000007_Node000008"><a xlink:title=" ">
<path fill="none" stroke="#9a32cd" stroke-dasharray="5,2" d="M620.17,-12.86C650.61,-14.15 684.89,-15.59 713.67,-16.81"/>
<polygon fill="#9a32cd" stroke="#9a32cd" points="620.15,-9.36 610.01,-12.43 619.85,-16.35 620.15,-9.36"/>
</a>
</g>
<text text-anchor="middle" x="662" y="-19.5" font-family="Helvetica,sans-Serif" font-size="10.00" fill="grey"> platform_ops</text>
</g>
</g>
</svg>
