<?xml version="1.0" encoding="UTF-8" standalone="no"?>
<!DOCTYPE svg PUBLIC "-//W3C//DTD SVG 1.1//EN"
 "http://www.w3.org/Graphics/SVG/1.1/DTD/svg11.dtd">
<!-- Generated by graphviz version 2.43.0 (0)
 -->
<!-- Title: ade7758_init_param Pages: 1 -->
<svg width="1027pt" height="195pt"
 viewBox="0.00 0.00 1027.00 194.50" xmlns="http://www.w3.org/2000/svg" xmlns:xlink="http://www.w3.org/1999/xlink">
<g id="graph0" class="graph" transform="scale(1 1) rotate(0) translate(4 190.5)">
<title>ade7758_init_param</title>
<!-- Node1 -->
<g id="Node000001" class="node">
<title>Node1</title>
<g id="a_Node000001"><a xlink:title="ADE7758 Device initialization parameters.">
<polygon fill="#999999" stroke="#666666" points="1019,-68 903,-68 903,-49 1019,-49 1019,-68"/>
<text text-anchor="middle" x="961" y="-56" font-family="Helvetica,sans-Serif" font-size="10.00">ade7758_init_param</text>
</a>
</g>
</g>
<!-- Node2 -->
<g id="Node000002" class="node">
<title>Node2</title>
<g id="a_Node000002"><a xlink:href="structno__os__spi__init__param.html" target="_top" xlink:title="Structure holding the parameters for SPI initialization.">
<polygon fill="white" stroke="#666666" points="828,-91 706,-91 706,-72 828,-72 828,-91"/>
<text text-anchor="middle" x="767" y="-79" font-family="Helvetica,sans-Serif" font-size="10.00">no_os_spi_init_param</text>
</a>
</g>
</g>
<!-- Node2&#45;&gt;Node1 -->
<g id="edge1_Node000001_Node000002" class="edge">
<title>Node2&#45;&gt;Node1</title>
<g id="a_edge1_Node000001_Node000002"><a xlink:title=" ">
<path fill="none" stroke="#9a32cd" stroke-dasharray="5,2" d="M838.19,-73.09C859.48,-70.54 882.61,-67.77 902.94,-65.34"/>
<polygon fill="#9a32cd" stroke="#9a32cd" points="837.74,-69.62 828.22,-74.29 838.57,-76.57 837.74,-69.62"/>
</a>
</g>
<text text-anchor="middle" x="865.5" y="-74.5" font-family="Helvetica,sans-Serif" font-size="10.00" fill="grey"> spi_init</text>
</g>
<!-- Node3 -->
<g id="Node000003" class="node">
<title>Node3</title>
<g id="a_Node000003"><a xlink:href="structno__os__spi__platform__ops.html" target="_top" xlink:title="Structure holding SPI function pointers that point to the platform specific function.">
<polygon fill="white" stroke="#666666" points="134,-158 0,-158 0,-139 134,-139 134,-158"/>
<text text-anchor="middle" x="67" y="-146" font-family="Helvetica,sans-Serif" font-size="10.00">no_os_spi_platform_ops</text>
</a>
</g>
</g>
<!-- Node3&#45;&gt;Node2 -->
<g id="edge2_Node000002_Node000003" class="edge">
<title>Node3&#45;&gt;Node2</title>
<g id="a_edge2_Node000002_Node000003"><a xlink:title=" ">
<path fill="none" stroke="#9a32cd" stroke-dasharray="5,2" d="M138.93,-159.38C242.17,-172.98 439.28,-190.51 602,-155.5 660.02,-143.02 722.26,-108.3 750.49,-91.23"/>
<polygon fill="#9a32cd" stroke="#9a32cd" points="139.31,-155.89 128.93,-158.03 138.38,-162.83 139.31,-155.89"/>
</a>
</g>
<text text-anchor="middle" x="409.5" y="-178.5" font-family="Helvetica,sans-Serif" font-size="10.00" fill="grey"> platform_ops</text>
</g>
<!-- Node5 -->
<g id="Node000005" class="node">
<title>Node5</title>
<g id="a_Node000005"><a xlink:href="structno__os__spi__desc.html" target="_top" xlink:title="Structure holding SPI descriptor.">
<polygon fill="white" stroke="#666666" points="581.5,-117 489.5,-117 489.5,-98 581.5,-98 581.5,-117"/>
<text text-anchor="middle" x="535.5" y="-105" font-family="Helvetica,sans-Serif" font-size="10.00">no_os_spi_desc</text>
</a>
</g>
</g>
<!-- Node3&#45;&gt;Node5 -->
<g id="edge7_Node000005_Node000003" class="edge">
<title>Node3&#45;&gt;Node5</title>
<g id="a_edge7_Node000005_Node000003"><a xlink:title=" ">
<path fill="none" stroke="#9a32cd" stroke-dasharray="5,2" d="M144.38,-144.75C221.81,-140.52 344.97,-132.61 451,-120.5 463.39,-119.08 476.76,-117.18 489.09,-115.26"/>
<polygon fill="#9a32cd" stroke="#9a32cd" points="144.03,-141.27 134.23,-145.3 144.41,-148.26 144.03,-141.27"/>
</a>
</g>
<text text-anchor="middle" x="294" y="-141.5" font-family="Helvetica,sans-Serif" font-size="10.00" fill="grey"> platform_ops</text>
</g>
<!-- Node6 -->
<g id="Node000006" class="node">
<title>Node6</title>
<g id="a_Node000006"><a xlink:href="structno__os__spibus__desc.html" target="_top" xlink:title="SPI bus descriptor.">
<polygon fill="white" stroke="#666666" points="349,-112 239,-112 239,-93 349,-93 349,-112"/>
<text text-anchor="middle" x="294" y="-100" font-family="Helvetica,sans-Serif" font-size="10.00">no_os_spibus_desc</text>
</a>
</g>
</g>
<!-- Node3&#45;&gt;Node6 -->
<g id="edge6_Node000006_Node000003" class="edge">
<title>Node3&#45;&gt;Node6</title>
<g id="a_edge6_Node000006_Node000003"><a xlink:title=" ">
<path fill="none" stroke="#9a32cd" stroke-dasharray="5,2" d="M106.43,-135.82C120.63,-131.46 136.94,-126.84 152,-123.5 180.39,-117.19 212.42,-112.25 238.77,-108.75"/>
<polygon fill="#9a32cd" stroke="#9a32cd" points="105,-132.6 96.51,-138.92 107.09,-139.28 105,-132.6"/>
</a>
</g>
<text text-anchor="middle" x="186" y="-126.5" font-family="Helvetica,sans-Serif" font-size="10.00" fill="grey"> platform_ops</text>
</g>
<!-- Node4 -->
<g id="Node000004" class="node">
<title>Node4</title>
<g id="a_Node000004"><a xlink:href="structno__os__platform__spi__delays.html" target="_top" xlink:title="Delays resulted from components in the SPI signal path. The values is ns.">
<polygon fill="white" stroke="#666666" points="350,-72.5 238,-72.5 238,-42.5 350,-42.5 350,-72.5"/>
<text text-anchor="start" x="246" y="-60.5" font-family="Helvetica,sans-Serif" font-size="10.00">no_os_platform_spi</text>
<text text-anchor="middle" x="294" y="-49.5" font-family="Helvetica,sans-Serif" font-size="10.00">_delays</text>
</a>
</g>
</g>
<!-- Node4&#45;&gt;Node2 -->
<g id="edge3_Node000002_Node000004" class="edge">
<title>Node4&#45;&gt;Node2</title>
<g id="a_edge3_Node000002_Node000004"><a xlink:title=" ">
<path fill="none" stroke="#9a32cd" stroke-dasharray="5,2" d="M360.4,-60.83C452.04,-65.5 617.34,-73.92 705.98,-78.44"/>
<polygon fill="#9a32cd" stroke="#9a32cd" points="360.58,-57.34 350.41,-60.32 360.22,-64.33 360.58,-57.34"/>
</a>
</g>
<text text-anchor="middle" x="535.5" y="-75.5" font-family="Helvetica,sans-Serif" font-size="10.00" fill="grey"> platform_delays</text>
</g>
<!-- Node4&#45;&gt;Node5 -->
<g id="edge8_Node000005_Node000004" class="edge">
<title>Node4&#45;&gt;Node5</title>
<g id="a_edge8_Node000005_Node000004"><a xlink:title=" ">
<path fill="none" stroke="#9a32cd" stroke-dasharray="5,2" d="M360.36,-70.07C388.32,-75.56 421.29,-82.17 451,-88.5 464.96,-91.47 480.19,-94.89 493.78,-98"/>
<polygon fill="#9a32cd" stroke="#9a32cd" points="360.79,-66.59 350.31,-68.11 359.45,-73.46 360.79,-66.59"/>
</a>
</g>
<text text-anchor="middle" x="409.5" y="-91.5" font-family="Helvetica,sans-Serif" font-size="10.00" fill="grey"> platform_delays</text>
</g>
<!-- Node5&#45;&gt;Node2 -->
<g id="edge4_Node000002_Node000005" class="edge">
<title>Node5&#45;&gt;Node2</title>
<g id="a_edge4_Node000002_Node000005"><a xlink:title=" ">
<path fill="none" stroke="#9a32cd" stroke-dasharray="5,2" d="M591.91,-101.22C626.32,-97.32 670.56,-92.31 705.82,-88.32"/>
<polygon fill="#9a32cd" stroke="#9a32cd" points="591.11,-97.79 581.57,-102.39 591.9,-104.75 591.11,-97.79"/>
</a>
</g>
<text text-anchor="middle" x="654" y="-100.5" font-family="Helvetica,sans-Serif" font-size="10.00" fill="grey"> parent</text>
</g>
<!-- Node5&#45;&gt;Node5 -->
<g id="edge9_Node000005_Node000005" class="edge">
<title>Node5&#45;&gt;Node5</title>
<g id="a_edge9_Node000005_Node000005"><a xlink:title=" ">
<path fill="none" stroke="#9a32cd" stroke-dasharray="5,2" d="M513.65,-126.55C515.11,-131.38 522.39,-135 535.5,-135 556.47,-135 562.54,-125.73 553.69,-117.08"/>
<polygon fill="#9a32cd" stroke="#9a32cd" points="516.97,-127.67 517.31,-117.08 510.44,-125.15 516.97,-127.67"/>
</a>
</g>
<text text-anchor="middle" x="535.5" y="-138" font-family="Helvetica,sans-Serif" font-size="10.00" fill="grey"> parent</text>
</g>
<!-- Node6&#45;&gt;Node5 -->
<g id="edge5_Node000005_Node000006" class="edge">
<title>Node6&#45;&gt;Node5</title>
<g id="a_edge5_Node000005_Node000006"><a xlink:title=" ">
<path fill="none" stroke="#9a32cd" stroke-dasharray="5,2" d="M359.25,-103.84C400.39,-104.7 452.75,-105.79 489.49,-106.56"/>
<polygon fill="#9a32cd" stroke="#9a32cd" points="359.12,-100.34 349.05,-103.63 358.97,-107.34 359.12,-100.34"/>
</a>
</g>
<text text-anchor="middle" x="409.5" y="-108.5" font-family="Helvetica,sans-Serif" font-size="10.00" fill="grey"> bus</text>
</g>
<!-- Node7 -->
<g id="Node000007" class="node">
<title>Node7</title>
<g id="a_Node000007"><a xlink:href="structno__os__irq__ctrl__desc.html" target="_top" xlink:title=" ">
<polygon fill="white" stroke="#666666" points="823,-50 711,-50 711,-31 823,-31 823,-50"/>
<text text-anchor="middle" x="767" y="-38" font-family="Helvetica,sans-Serif" font-size="10.00">no_os_irq_ctrl_desc</text>
</a>
</g>
</g>
<!-- Node7&#45;&gt;Node1 -->
<g id="edge10_Node000001_Node000007" class="edge">
<title>Node7&#45;&gt;Node1</title>
<g id="a_edge10_Node000001_Node000007"><a xlink:title=" ">
<path fill="none" stroke="#9a32cd" stroke-dasharray="5,2" d="M833.48,-40.2C850.31,-40.66 868.36,-41.64 885,-43.5 896.08,-44.74 907.97,-46.78 918.94,-48.97"/>
<polygon fill="#9a32cd" stroke="#9a32cd" points="833.26,-36.69 823.19,-39.97 833.11,-43.69 833.26,-36.69"/>
</a>
</g>
<text text-anchor="middle" x="865.5" y="-46.5" font-family="Helvetica,sans-Serif" font-size="10.00" fill="grey"> irq_ctrl</text>
</g>
<!-- Node8 -->
<g id="Node000008" class="node">
<title>Node8</title>
<g id="a_Node000008"><a xlink:href="structno__os__irq__platform__ops.html" target="_top" xlink:title="Structure holding IRQ function pointers that point to the platform specific function.">
<polygon fill="white" stroke="#666666" points="602,-19 469,-19 469,0 602,0 602,-19"/>
<text text-anchor="middle" x="535.5" y="-7" font-family="Helvetica,sans-Serif" font-size="10.00">no_os_irq_platform_ops</text>
</a>
</g>
</g>
<!-- Node8&#45;&gt;Node7 -->
<g id="edge11_Node000007_Node000008" class="edge">
<title>Node8&#45;&gt;Node7</title>
<g id="a_edge11_Node000007_Node000008"><a xlink:title=" ">
<path fill="none" stroke="#9a32cd" stroke-dasharray="5,2" d="M612.51,-19.77C644.59,-24.1 681.25,-29.05 710.7,-33.03"/>
<polygon fill="#9a32cd" stroke="#9a32cd" points="612.64,-16.25 602.27,-18.38 611.71,-23.19 612.64,-16.25"/>
</a>
</g>
<text text-anchor="middle" x="654" y="-33.5" font-family="Helvetica,sans-Serif" font-size="10.00" fill="grey"> platform_ops</text>
</g>
</g>
</svg>
