<?xml version="1.0" encoding="UTF-8" standalone="no"?>
<!DOCTYPE svg PUBLIC "-//W3C//DTD SVG 1.1//EN"
 "http://www.w3.org/Graphics/SVG/1.1/DTD/svg11.dtd">
<!-- Generated by graphviz version 2.43.0 (0)
 -->
<!-- Title: ad4692_iio_desc Pages: 1 -->
<!--zoomable 375 -->

<svg id="main" version="1.1" xmlns="http://www.w3.org/2000/svg" xmlns:xlink="http://www.w3.org/1999/xlink" xml:space="preserve" onload="init(evt)">

<style type="text/css"><![CDATA[
.node, .edge {opacity: 0.7;}
.node.selected, .edge.selected {opacity: 1;}
.edge:hover path { stroke: red; }
.edge:hover polygon { stroke: red; fill: red; }
]]></style>

<defs>
  <circle id="rim" cx="0" cy="0" r="7"/>
  <circle id="rim2" cx="0" cy="0" r="3.5"/>
  <g id="zoomPlus">
    <use xlink:href="#rim" fill="#404040"><set attributeName="fill" to="#808080" begin="zoomplus.mouseover" end="zoomplus.mouseout"/></use>
    <path d="M-4,0h8M0,-4v8" fill="none" stroke="white" stroke-width="1.5" pointer-events="none"/>
  </g>
  <g id="zoomMin">
    <use xlink:href="#rim" fill="#404040"><set attributeName="fill" to="#808080" begin="zoomminus.mouseover" end="zoomminus.mouseout"/></use>
    <path d="M-4,0h8" fill="none" stroke="white" stroke-width="1.5" pointer-events="none"/>
  </g>
  <g id="arrowUp" transform="translate(30 24)">
    <use xlink:href="#rim"/>
    <path pointer-events="none" fill="none" stroke="white" stroke-width="1.5" d="M0,-3.0v7 M-2.5,-0.5L0,-3.0L2.5,-0.5"/>
  </g>
  <g id="arrowRight" transform="rotate(90) translate(36 -43)">
    <use xlink:href="#rim"/>
    <path pointer-events="none" fill="none" stroke="white" stroke-width="1.5" d="M0,-3.0v7 M-2.5,-0.5L0,-3.0L2.5,-0.5"/>
  </g>
  <g id="arrowDown" transform="rotate(180) translate(-30 -48)">
    <use xlink:href="#rim"/>
    <path pointer-events="none" fill="none" stroke="white" stroke-width="1.5" d="M0,-3.0v7 M-2.5,-0.5L0,-3.0L2.5,-0.5"/>
  </g>
  <g id="arrowLeft" transform="rotate(270) translate(-36 17)">
    <use xlink:href="#rim"/>
    <path pointer-events="none" fill="none" stroke="white" stroke-width="1.5" d="M0,-3.0v7 M-2.5,-0.5L0,-3.0L2.5,-0.5"/>
  </g>
  <g id="resetDef">
    <use xlink:href="#rim2" fill="#404040"><set attributeName="fill" to="#808080" begin="reset.mouseover" end="reset.mouseout"/></use>
  </g>
</defs>
<script type="application/ecmascript">
var viewWidth = 1007;
var viewHeight = 375;
var sectionId = 'dynsection-0';
</script>
<script type="application/ecmascript" xlink:href="svg.min.js"/>
<svg id="graph" class="graph">
<g id="viewport">
<title>ad4692_iio_desc</title>
<!-- Node1 -->
<g id="Node000001" class="node">
<title>Node1</title>
<g id="a_Node000001"><a xlink:title=" ">
<polygon fill="#999999" stroke="#666666" points="999,-123.06 901,-123.06 901,-104.06 999,-104.06 999,-123.06"/>
<text text-anchor="middle" x="950" y="-111.06" font-family="Helvetica,sans-Serif" font-size="10.00">ad4692_iio_desc</text>
</a>
</g>
</g>
<!-- Node2 -->
<g id="Node000002" class="node">
<title>Node2</title>
<g id="a_Node000002"><a xlink:href="structad4692__desc.html" target="_top" xlink:title=" ">
<polygon fill="white" stroke="#666666" points="798,-199.06 718,-199.06 718,-180.06 798,-180.06 798,-199.06"/>
<text text-anchor="middle" x="758" y="-187.06" font-family="Helvetica,sans-Serif" font-size="10.00">ad4692_desc</text>
</a>
</g>
</g>
<!-- Node2&#45;&gt;Node1 -->
<g id="edge1_Node000001_Node000002" class="edge">
<title>Node2&#45;&gt;Node1</title>
<g id="a_edge1_Node000001_Node000002"><a xlink:title=" ">
<path fill="none" stroke="#9a32cd" stroke-dasharray="5,2" d="M792.68,-176.09C830.73,-160.87 891.69,-136.48 925.13,-123.1"/>
<polygon fill="#9a32cd" stroke="#9a32cd" points="791.05,-172.97 783.06,-179.93 793.65,-179.47 791.05,-172.97"/>
</a>
</g>
<text text-anchor="middle" x="849.5" y="-167.56" font-family="Helvetica,sans-Serif" font-size="10.00" fill="grey"> ad4692_desc</text>
</g>
<!-- Node3 -->
<g id="Node000003" class="node">
<title>Node3</title>
<g id="a_Node000003"><a xlink:href="structno__os__spi__desc.html" target="_top" xlink:title="Structure holding SPI descriptor.">
<polygon fill="white" stroke="#666666" points="610,-310.06 518,-310.06 518,-291.06 610,-291.06 610,-310.06"/>
<text text-anchor="middle" x="564" y="-298.06" font-family="Helvetica,sans-Serif" font-size="10.00">no_os_spi_desc</text>
</a>
</g>
</g>
<!-- Node3&#45;&gt;Node2 -->
<g id="edge2_Node000002_Node000003" class="edge">
<title>Node3&#45;&gt;Node2</title>
<g id="a_edge2_Node000002_Node000003"><a xlink:title=" ">
<path fill="none" stroke="#9a32cd" stroke-dasharray="5,2" d="M599.81,-287.29C627.88,-275.9 667.82,-258.1 700,-237.56 717.88,-226.14 736.25,-209.65 747.14,-199.28"/>
<polygon fill="#9a32cd" stroke="#9a32cd" points="598.4,-284.08 590.41,-291.04 601,-290.58 598.4,-284.08"/>
</a>
</g>
<text text-anchor="middle" x="669" y="-272.56" font-family="Helvetica,sans-Serif" font-size="10.00" fill="grey"> comm_desc</text>
</g>
<!-- Node3&#45;&gt;Node3 -->
<g id="edge7_Node000003_Node000003" class="edge">
<title>Node3&#45;&gt;Node3</title>
<g id="a_edge7_Node000003_Node000003"><a xlink:title=" ">
<path fill="none" stroke="#9a32cd" stroke-dasharray="5,2" d="M544.74,-319.61C546.03,-324.44 552.45,-328.06 564,-328.06 582.48,-328.06 587.83,-318.79 580.03,-310.14"/>
<polygon fill="#9a32cd" stroke="#9a32cd" points="548.06,-320.73 547.97,-310.14 541.43,-318.48 548.06,-320.73"/>
</a>
</g>
<text text-anchor="middle" x="564" y="-331.06" font-family="Helvetica,sans-Serif" font-size="10.00" fill="grey"> parent</text>
</g>
<!-- Node4 -->
<g id="Node000004" class="node">
<title>Node4</title>
<g id="a_Node000004"><a xlink:href="structno__os__spibus__desc.html" target="_top" xlink:title="SPI bus descriptor.">
<polygon fill="white" stroke="#666666" points="372,-330.06 262,-330.06 262,-311.06 372,-311.06 372,-330.06"/>
<text text-anchor="middle" x="317" y="-318.06" font-family="Helvetica,sans-Serif" font-size="10.00">no_os_spibus_desc</text>
</a>
</g>
</g>
<!-- Node4&#45;&gt;Node3 -->
<g id="edge3_Node000003_Node000004" class="edge">
<title>Node4&#45;&gt;Node3</title>
<g id="a_edge3_Node000003_Node000004"><a xlink:title=" ">
<path fill="none" stroke="#9a32cd" stroke-dasharray="5,2" d="M382.06,-315.33C424.67,-311.85 479.59,-307.37 517.69,-304.26"/>
<polygon fill="#9a32cd" stroke="#9a32cd" points="381.75,-311.84 372.07,-316.14 382.32,-318.82 381.75,-311.84"/>
</a>
</g>
<text text-anchor="middle" x="448.5" y="-315.56" font-family="Helvetica,sans-Serif" font-size="10.00" fill="grey"> bus</text>
</g>
<!-- Node5 -->
<g id="Node000005" class="node">
<title>Node5</title>
<g id="a_Node000005"><a xlink:href="structno__os__spi__platform__ops.html" target="_top" xlink:title="Structure holding SPI function pointers that point to the platform specific function.">
<polygon fill="white" stroke="#666666" points="137.5,-363.06 3.5,-363.06 3.5,-344.06 137.5,-344.06 137.5,-363.06"/>
<text text-anchor="middle" x="70.5" y="-351.06" font-family="Helvetica,sans-Serif" font-size="10.00">no_os_spi_platform_ops</text>
</a>
</g>
</g>
<!-- Node5&#45;&gt;Node3 -->
<g id="edge5_Node000003_Node000005" class="edge">
<title>Node5&#45;&gt;Node3</title>
<g id="a_edge5_Node000003_Node000005"><a xlink:title=" ">
<path fill="none" stroke="#9a32cd" stroke-dasharray="5,2" d="M147.85,-356.69C232.65,-358.36 373.02,-355.72 490,-327.56 507.74,-323.29 527.07,-316.01 541.38,-310.09"/>
<polygon fill="#9a32cd" stroke="#9a32cd" points="147.86,-353.19 137.79,-356.46 147.71,-360.18 147.86,-353.19"/>
</a>
</g>
<text text-anchor="middle" x="317" y="-358.56" font-family="Helvetica,sans-Serif" font-size="10.00" fill="grey"> platform_ops</text>
</g>
<!-- Node5&#45;&gt;Node4 -->
<g id="edge4_Node000004_Node000005" class="edge">
<title>Node5&#45;&gt;Node4</title>
<g id="a_edge4_Node000004_Node000005"><a xlink:title=" ">
<path fill="none" stroke="#9a32cd" stroke-dasharray="5,2" d="M147.9,-343.07C151.65,-342.55 155.37,-342.05 159,-341.56 193.2,-336.93 231.6,-331.79 261.86,-327.75"/>
<polygon fill="#9a32cd" stroke="#9a32cd" points="147.34,-339.61 137.9,-344.43 148.29,-346.54 147.34,-339.61"/>
</a>
</g>
<text text-anchor="middle" x="193" y="-344.56" font-family="Helvetica,sans-Serif" font-size="10.00" fill="grey"> platform_ops</text>
</g>
<!-- Node6 -->
<g id="Node000006" class="node">
<title>Node6</title>
<g id="a_Node000006"><a xlink:href="structno__os__platform__spi__delays.html" target="_top" xlink:title="Delays resulted from components in the SPI signal path. The values is ns.">
<polygon fill="white" stroke="#666666" points="373,-292.56 261,-292.56 261,-262.56 373,-262.56 373,-292.56"/>
<text text-anchor="start" x="269" y="-280.56" font-family="Helvetica,sans-Serif" font-size="10.00">no_os_platform_spi</text>
<text text-anchor="middle" x="317" y="-269.56" font-family="Helvetica,sans-Serif" font-size="10.00">_delays</text>
</a>
</g>
</g>
<!-- Node6&#45;&gt;Node3 -->
<g id="edge6_Node000003_Node000006" class="edge">
<title>Node6&#45;&gt;Node3</title>
<g id="a_edge6_Node000003_Node000006"><a xlink:title=" ">
<path fill="none" stroke="#9a32cd" stroke-dasharray="5,2" d="M383.23,-282.23C415.4,-284.69 454.77,-287.95 490,-291.56 499.02,-292.48 508.65,-293.58 517.86,-294.7"/>
<polygon fill="#9a32cd" stroke="#9a32cd" points="383.29,-278.72 373.05,-281.45 382.76,-285.7 383.29,-278.72"/>
</a>
</g>
<text text-anchor="middle" x="448.5" y="-294.56" font-family="Helvetica,sans-Serif" font-size="10.00" fill="grey"> platform_delays</text>
</g>
<!-- Node7 -->
<g id="Node000007" class="node">
<title>Node7</title>
<g id="a_Node000007"><a xlink:href="structno__os__gpio__desc.html" target="_top" xlink:title="Structure holding the GPIO descriptor.">
<polygon fill="white" stroke="#666666" points="366.5,-199.06 267.5,-199.06 267.5,-180.06 366.5,-180.06 366.5,-199.06"/>
<text text-anchor="middle" x="317" y="-187.06" font-family="Helvetica,sans-Serif" font-size="10.00">no_os_gpio_desc</text>
</a>
</g>
</g>
<!-- Node7&#45;&gt;Node2 -->
<g id="edge8_Node000002_Node000007" class="edge">
<title>Node7&#45;&gt;Node2</title>
<g id="a_edge8_Node000002_Node000007"><a xlink:title=" ">
<path fill="none" stroke="#9a32cd" stroke-dasharray="5,2" d="M376.84,-181.27C437.71,-173.77 535.53,-164.73 620,-170.56 653.18,-172.85 690.56,-178.22 717.88,-182.67"/>
<polygon fill="#9a32cd" stroke="#9a32cd" points="376.14,-177.83 366.66,-182.55 377.02,-184.77 376.14,-177.83"/>
</a>
</g>
<text text-anchor="middle" x="564" y="-217.56" font-family="Helvetica,sans-Serif" font-size="10.00" fill="grey"> gpio0_desc</text>
<text text-anchor="middle" x="564" y="-206.56" font-family="Helvetica,sans-Serif" font-size="10.00" fill="grey">gpio1_desc</text>
<text text-anchor="middle" x="564" y="-195.56" font-family="Helvetica,sans-Serif" font-size="10.00" fill="grey">gpio2_desc</text>
<text text-anchor="middle" x="564" y="-184.56" font-family="Helvetica,sans-Serif" font-size="10.00" fill="grey">gpio3_desc</text>
<text text-anchor="middle" x="564" y="-173.56" font-family="Helvetica,sans-Serif" font-size="10.00" fill="grey">reset_desc</text>
</g>
<!-- Node9 -->
<g id="Node000009" class="node">
<title>Node9</title>
<g id="a_Node000009"><a xlink:href="structno__os__pwm__desc.html" target="_top" xlink:title="Structure representing an PWM generator device.">
<polygon fill="white" stroke="#666666" points="615,-253.06 513,-253.06 513,-234.06 615,-234.06 615,-253.06"/>
<text text-anchor="middle" x="564" y="-241.06" font-family="Helvetica,sans-Serif" font-size="10.00">no_os_pwm_desc</text>
</a>
</g>
</g>
<!-- Node7&#45;&gt;Node9 -->
<g id="edge11_Node000009_Node000007" class="edge">
<title>Node7&#45;&gt;Node9</title>
<g id="a_edge11_Node000009_Node000007"><a xlink:title=" ">
<path fill="none" stroke="#9a32cd" stroke-dasharray="5,2" d="M376.86,-199.49C410.21,-205.46 452.62,-213.61 490,-222.56 503.98,-225.9 519.29,-230.21 532.26,-234.05"/>
<polygon fill="#9a32cd" stroke="#9a32cd" points="377.27,-196.01 366.81,-197.71 376.05,-202.9 377.27,-196.01"/>
</a>
</g>
<text text-anchor="middle" x="448.5" y="-225.56" font-family="Helvetica,sans-Serif" font-size="10.00" fill="grey"> pwm_gpio</text>
</g>
<!-- Node8 -->
<g id="Node000008" class="node">
<title>Node8</title>
<g id="a_Node000008"><a xlink:href="structno__os__gpio__platform__ops.html" target="_top" xlink:title="Structure holding gpio function pointers that point to the platform specific function.">
<polygon fill="white" stroke="#666666" points="141,-199.06 0,-199.06 0,-180.06 141,-180.06 141,-199.06"/>
<text text-anchor="middle" x="70.5" y="-187.06" font-family="Helvetica,sans-Serif" font-size="10.00">no_os_gpio_platform_ops</text>
</a>
</g>
</g>
<!-- Node8&#45;&gt;Node7 -->
<g id="edge9_Node000007_Node000008" class="edge">
<title>Node8&#45;&gt;Node7</title>
<g id="a_edge9_Node000007_Node000008"><a xlink:title=" ">
<path fill="none" stroke="#9a32cd" stroke-dasharray="5,2" d="M151.31,-189.56C189.51,-189.56 234.02,-189.56 267.12,-189.56"/>
<polygon fill="#9a32cd" stroke="#9a32cd" points="151.24,-186.06 141.24,-189.56 151.24,-193.06 151.24,-186.06"/>
</a>
</g>
<text text-anchor="middle" x="193" y="-192.56" font-family="Helvetica,sans-Serif" font-size="10.00" fill="grey"> platform_ops</text>
</g>
<!-- Node9&#45;&gt;Node2 -->
<g id="edge10_Node000002_Node000009" class="edge">
<title>Node9&#45;&gt;Node2</title>
<g id="a_edge10_Node000002_Node000009"><a xlink:title=" ">
<path fill="none" stroke="#9a32cd" stroke-dasharray="5,2" d="M608.75,-231.25C643.47,-221.49 691.29,-208.04 723.13,-199.08"/>
<polygon fill="#9a32cd" stroke="#9a32cd" points="607.56,-227.95 598.88,-234.03 609.46,-234.69 607.56,-227.95"/>
</a>
</g>
<text text-anchor="middle" x="669" y="-225.56" font-family="Helvetica,sans-Serif" font-size="10.00" fill="grey"> conv_desc</text>
</g>
<!-- Node10 -->
<g id="Node000010" class="node">
<title>Node10</title>
<g id="a_Node000010"><a xlink:href="structno__os__pwm__platform__ops.html" target="_top" xlink:title="Structure holding PWM function pointers that point to the platform specific function.">
<polygon fill="white" stroke="#666666" points="389,-244.06 245,-244.06 245,-225.06 389,-225.06 389,-244.06"/>
<text text-anchor="middle" x="317" y="-232.06" font-family="Helvetica,sans-Serif" font-size="10.00">no_os_pwm_platform_ops</text>
</a>
</g>
</g>
<!-- Node10&#45;&gt;Node9 -->
<g id="edge12_Node000009_Node000010" class="edge">
<title>Node10&#45;&gt;Node9</title>
<g id="a_edge12_Node000009_Node000010"><a xlink:title=" ">
<path fill="none" stroke="#9a32cd" stroke-dasharray="5,2" d="M399.57,-237.55C436.96,-238.93 480.09,-240.51 512.65,-241.71"/>
<polygon fill="#9a32cd" stroke="#9a32cd" points="399.32,-234.04 389.19,-237.17 399.06,-241.04 399.32,-234.04"/>
</a>
</g>
<text text-anchor="middle" x="448.5" y="-243.56" font-family="Helvetica,sans-Serif" font-size="10.00" fill="grey"> platform_ops</text>
</g>
<!-- Node11 -->
<g id="Node000011" class="node">
<title>Node11</title>
<g id="a_Node000011"><a xlink:href="structiio__device.html" target="_top" xlink:title="Structure holding channels and attributes of a device.">
<polygon fill="white" stroke="#666666" points="791,-97.06 725,-97.06 725,-78.06 791,-78.06 791,-97.06"/>
<text text-anchor="middle" x="758" y="-85.06" font-family="Helvetica,sans-Serif" font-size="10.00">iio_device</text>
</a>
</g>
</g>
<!-- Node11&#45;&gt;Node1 -->
<g id="edge13_Node000001_Node000011" class="edge">
<title>Node11&#45;&gt;Node1</title>
<g id="a_edge13_Node000001_Node000011"><a xlink:title=" ">
<path fill="none" stroke="#9a32cd" stroke-dasharray="5,2" d="M801.38,-91.63C825.38,-94.11 855.93,-97.57 883,-101.56 888.76,-102.41 894.79,-103.38 900.76,-104.4"/>
<polygon fill="#9a32cd" stroke="#9a32cd" points="801.5,-88.12 791.19,-90.59 800.79,-95.09 801.5,-88.12"/>
</a>
</g>
<text text-anchor="middle" x="849.5" y="-104.56" font-family="Helvetica,sans-Serif" font-size="10.00" fill="grey"> iio_dev</text>
</g>
<!-- Node12 -->
<g id="Node000012" class="node">
<title>Node12</title>
<g id="a_Node000012"><a xlink:href="structno__os__irq__ctrl__desc.html" target="_top" xlink:title=" ">
<polygon fill="white" stroke="#666666" points="620,-118.06 508,-118.06 508,-99.06 620,-99.06 620,-118.06"/>
<text text-anchor="middle" x="564" y="-106.06" font-family="Helvetica,sans-Serif" font-size="10.00">no_os_irq_ctrl_desc</text>
</a>
</g>
</g>
<!-- Node12&#45;&gt;Node11 -->
<g id="edge14_Node000011_Node000012" class="edge">
<title>Node12&#45;&gt;Node11</title>
<g id="a_edge14_Node000011_Node000012"><a xlink:title=" ">
<path fill="none" stroke="#9a32cd" stroke-dasharray="5,2" d="M630.17,-101.43C662.06,-97.94 699.02,-93.9 724.79,-91.08"/>
<polygon fill="#9a32cd" stroke="#9a32cd" points="629.58,-97.97 620.02,-102.54 630.34,-104.93 629.58,-97.97"/>
</a>
</g>
<text text-anchor="middle" x="669" y="-102.56" font-family="Helvetica,sans-Serif" font-size="10.00" fill="grey"> irq_desc</text>
</g>
<!-- Node13 -->
<g id="Node000013" class="node">
<title>Node13</title>
<g id="a_Node000013"><a xlink:href="structno__os__irq__platform__ops.html" target="_top" xlink:title="Structure holding IRQ function pointers that point to the platform specific function.">
<polygon fill="white" stroke="#666666" points="383.5,-146.06 250.5,-146.06 250.5,-127.06 383.5,-127.06 383.5,-146.06"/>
<text text-anchor="middle" x="317" y="-134.06" font-family="Helvetica,sans-Serif" font-size="10.00">no_os_irq_platform_ops</text>
</a>
</g>
</g>
<!-- Node13&#45;&gt;Node12 -->
<g id="edge15_Node000012_Node000013" class="edge">
<title>Node13&#45;&gt;Node12</title>
<g id="a_edge15_Node000012_Node000013"><a xlink:title=" ">
<path fill="none" stroke="#9a32cd" stroke-dasharray="5,2" d="M393.87,-127.89C430.76,-123.67 474.29,-118.7 507.95,-114.85"/>
<polygon fill="#9a32cd" stroke="#9a32cd" points="393.19,-124.44 383.66,-129.05 393.99,-131.4 393.19,-124.44"/>
</a>
</g>
<text text-anchor="middle" x="448.5" y="-128.56" font-family="Helvetica,sans-Serif" font-size="10.00" fill="grey"> platform_ops</text>
</g>
<!-- Node14 -->
<g id="Node000014" class="node">
<title>Node14</title>
<g id="a_Node000014"><a xlink:href="structiio__channel.html" target="_top" xlink:title="Struct describing the scan type.">
<polygon fill="white" stroke="#666666" points="600,-76.06 528,-76.06 528,-57.06 600,-57.06 600,-76.06"/>
<text text-anchor="middle" x="564" y="-64.06" font-family="Helvetica,sans-Serif" font-size="10.00">iio_channel</text>
</a>
</g>
</g>
<!-- Node14&#45;&gt;Node11 -->
<g id="edge16_Node000011_Node000014" class="edge">
<title>Node14&#45;&gt;Node11</title>
<g id="a_edge16_Node000011_Node000014"><a xlink:title=" ">
<path fill="none" stroke="#9a32cd" stroke-dasharray="5,2" d="M610.08,-69.79C636.35,-71.87 670.11,-74.87 700,-78.56 708.05,-79.55 716.72,-80.82 724.8,-82.08"/>
<polygon fill="#9a32cd" stroke="#9a32cd" points="610.27,-66.3 600.03,-69.02 609.73,-73.28 610.27,-66.3"/>
</a>
</g>
<text text-anchor="middle" x="669" y="-81.56" font-family="Helvetica,sans-Serif" font-size="10.00" fill="grey"> channels</text>
</g>
<!-- Node15 -->
<g id="Node000015" class="node">
<title>Node15</title>
<g id="a_Node000015"><a xlink:href="structiio__chan__type.html" target="_top" xlink:title="IIO channel types.">
<polygon fill="white" stroke="#666666" points="359,-109.06 275,-109.06 275,-90.06 359,-90.06 359,-109.06"/>
<text text-anchor="middle" x="317" y="-97.06" font-family="Helvetica,sans-Serif" font-size="10.00">iio_chan_type</text>
</a>
</g>
</g>
<!-- Node15&#45;&gt;Node14 -->
<g id="edge17_Node000014_Node000015" class="edge">
<title>Node15&#45;&gt;Node14</title>
<g id="a_edge17_Node000014_Node000015"><a xlink:title=" ">
<path fill="none" stroke="#9a32cd" stroke-dasharray="5,2" d="M369.27,-93.3C403.48,-89.06 449.47,-83.2 490,-77.56 502.31,-75.84 515.78,-73.85 527.75,-72.03"/>
<polygon fill="#9a32cd" stroke="#9a32cd" points="368.54,-89.87 359.04,-94.57 369.4,-96.81 368.54,-89.87"/>
</a>
</g>
<text text-anchor="middle" x="448.5" y="-90.56" font-family="Helvetica,sans-Serif" font-size="10.00" fill="grey"> ch_type</text>
</g>
<!-- Node16 -->
<g id="Node000016" class="node">
<title>Node16</title>
<g id="a_Node000016"><a xlink:href="structscan__type.html" target="_top" xlink:title=" ">
<polygon fill="white" stroke="#666666" points="350,-72.06 284,-72.06 284,-53.06 350,-53.06 350,-72.06"/>
<text text-anchor="middle" x="317" y="-60.06" font-family="Helvetica,sans-Serif" font-size="10.00">scan_type</text>
</a>
</g>
</g>
<!-- Node16&#45;&gt;Node14 -->
<g id="edge18_Node000014_Node000016" class="edge">
<title>Node16&#45;&gt;Node14</title>
<g id="a_edge18_Node000014_Node000016"><a xlink:title=" ">
<path fill="none" stroke="#9a32cd" stroke-dasharray="5,2" d="M360.26,-63.25C407.61,-64.02 483.53,-65.26 527.79,-65.98"/>
<polygon fill="#9a32cd" stroke="#9a32cd" points="360.09,-59.74 350.03,-63.08 359.97,-66.74 360.09,-59.74"/>
</a>
</g>
<text text-anchor="middle" x="448.5" y="-67.56" font-family="Helvetica,sans-Serif" font-size="10.00" fill="grey"> scan_type</text>
</g>
<!-- Node17 -->
<g id="Node000017" class="node">
<title>Node17</title>
<g id="a_Node000017"><a xlink:href="structiio__attribute.html" target="_top" xlink:title="Structure holding pointers to show and store functions.">
<polygon fill="white" stroke="#666666" points="355,-22.06 279,-22.06 279,-3.06 355,-3.06 355,-22.06"/>
<text text-anchor="middle" x="317" y="-10.06" font-family="Helvetica,sans-Serif" font-size="10.00">iio_attribute</text>
</a>
</g>
</g>
<!-- Node17&#45;&gt;Node11 -->
<g id="edge20_Node000011_Node000017" class="edge">
<title>Node17&#45;&gt;Node11</title>
<g id="a_edge20_Node000011_Node000017"><a xlink:title=" ">
<path fill="none" stroke="#9a32cd" stroke-dasharray="5,2" d="M365.42,-6.25C425.64,0.22 532.29,6.55 620,-15.56 669.24,-27.97 720.45,-61.3 743.88,-77.89"/>
<polygon fill="#9a32cd" stroke="#9a32cd" points="364.99,-2.78 355.44,-7.37 365.77,-9.74 364.99,-2.78"/>
</a>
</g>
<text text-anchor="middle" x="564" y="-40.56" font-family="Helvetica,sans-Serif" font-size="10.00" fill="grey"> attributes</text>
<text text-anchor="middle" x="564" y="-29.56" font-family="Helvetica,sans-Serif" font-size="10.00" fill="grey">buffer_attributes</text>
<text text-anchor="middle" x="564" y="-18.56" font-family="Helvetica,sans-Serif" font-size="10.00" fill="grey">debug_attributes</text>
</g>
<!-- Node17&#45;&gt;Node14 -->
<g id="edge19_Node000014_Node000017" class="edge">
<title>Node17&#45;&gt;Node14</title>
<g id="a_edge19_Node000014_Node000017"><a xlink:title=" ">
<path fill="none" stroke="#9a32cd" stroke-dasharray="5,2" d="M365.16,-21.96C399.78,-28.98 447.9,-38.96 490,-48.56 502.35,-51.37 515.82,-54.64 527.79,-57.61"/>
<polygon fill="#9a32cd" stroke="#9a32cd" points="365.82,-18.52 355.33,-19.97 364.43,-25.38 365.82,-18.52"/>
</a>
</g>
<text text-anchor="middle" x="448.5" y="-51.56" font-family="Helvetica,sans-Serif" font-size="10.00" fill="grey"> attributes</text>
</g>
</g>
</svg>

<g id="navigator" transform="translate(0 0)" fill="#404254">
  <rect fill="#f2f5e9" fill-opacity="0.5" stroke="#606060" stroke-width=".5" x="0" y="0" width="60" height="60"/>
  <use id="zoomplus" xlink:href="#zoomPlus" x="17" y="9" onmousedown="handleZoom(evt,'in')"/>
  <use id="zoomminus" xlink:href="#zoomMin" x="42" y="9" onmousedown="handleZoom(evt,'out')"/>
  <use id="reset" xlink:href="#resetDef" x="30" y="36" onmousedown="handleReset()"/>
   <use id="arrowup" xlink:href="#arrowUp" x="0" y="0" onmousedown="handlePan(0,-1)"/>
  <use id="arrowright" xlink:href="#arrowRight" x="0" y="0" onmousedown="handlePan(1,0)"/>
  <use id="arrowdown" xlink:href="#arrowDown" x="0" y="0" onmousedown="handlePan(0,1)"/>
  <use id="arrowleft" xlink:href="#arrowLeft" x="0" y="0" onmousedown="handlePan(-1,0)"/>
</g>
<svg viewBox="0 0 15 15" width="100%" height="30px" preserveAspectRatio="xMaxYMin meet">
 <g id="arrow_out" transform="scale(0.3 0.3)">
  <a xlink:href="structad4692__iio__desc__coll__graph_org.svg" target="_base">
   <rect id="button" ry="5" rx="5" y="6" x="6" height="38" width="38"
        fill="#f2f5e9" fill-opacity="0.5" stroke="#606060" stroke-width="1.0"/>
   <path id="arrow"
     d="M 11.500037,31.436501 C 11.940474,20.09759 22.043105,11.32322 32.158766,21.979434 L 37.068811,17.246167 C 37.068811,17.246167 37.088388,32 37.088388,32 L 22.160133,31.978069 C 22.160133,31.978069 26.997745,27.140456 26.997745,27.140456 C 18.528582,18.264221 13.291696,25.230495 11.500037,31.436501 z"
     style="fill:#404040;"/>
  </a>
 </g>
</svg>

<style type='text/css'>
<![CDATA[
[data-mouse-over-selected='false'] { opacity: 0.7; }
[data-mouse-over-selected='true']  { opacity: 1.0; }
]]>
</style>
<script type="application/ecmascript"><![CDATA[
document.addEventListener('DOMContentLoaded', (event) => {
  highlightEdges();
  highlightAdjacentNodes();
});
]]></script>
</svg>
