<?xml version="1.0" encoding="UTF-8" standalone="no"?>
<!DOCTYPE svg PUBLIC "-//W3C//DTD SVG 1.1//EN"
 "http://www.w3.org/Graphics/SVG/1.1/DTD/svg11.dtd">
<!-- Generated by graphviz version 2.43.0 (0)
 -->
<!-- Title: adl8113_iio_dev Pages: 1 -->
<!--zoomable 250 -->

<svg id="main" version="1.1" xmlns="http://www.w3.org/2000/svg" xmlns:xlink="http://www.w3.org/1999/xlink" xml:space="preserve" onload="init(evt)">

<style type="text/css"><![CDATA[
.node, .edge {opacity: 0.7;}
.node.selected, .edge.selected {opacity: 1;}
.edge:hover path { stroke: red; }
.edge:hover polygon { stroke: red; fill: red; }
]]></style>

<defs>
  <circle id="rim" cx="0" cy="0" r="7"/>
  <circle id="rim2" cx="0" cy="0" r="3.5"/>
  <g id="zoomPlus">
    <use xlink:href="#rim" fill="#404040"><set attributeName="fill" to="#808080" begin="zoomplus.mouseover" end="zoomplus.mouseout"/></use>
    <path d="M-4,0h8M0,-4v8" fill="none" stroke="white" stroke-width="1.5" pointer-events="none"/>
  </g>
  <g id="zoomMin">
    <use xlink:href="#rim" fill="#404040"><set attributeName="fill" to="#808080" begin="zoomminus.mouseover" end="zoomminus.mouseout"/></use>
    <path d="M-4,0h8" fill="none" stroke="white" stroke-width="1.5" pointer-events="none"/>
  </g>
  <g id="arrowUp" transform="translate(30 24)">
    <use xlink:href="#rim"/>
    <path pointer-events="none" fill="none" stroke="white" stroke-width="1.5" d="M0,-3.0v7 M-2.5,-0.5L0,-3.0L2.5,-0.5"/>
  </g>
  <g id="arrowRight" transform="rotate(90) translate(36 -43)">
    <use xlink:href="#rim"/>
    <path pointer-events="none" fill="none" stroke="white" stroke-width="1.5" d="M0,-3.0v7 M-2.5,-0.5L0,-3.0L2.5,-0.5"/>
  </g>
  <g id="arrowDown" transform="rotate(180) translate(-30 -48)">
    <use xlink:href="#rim"/>
    <path pointer-events="none" fill="none" stroke="white" stroke-width="1.5" d="M0,-3.0v7 M-2.5,-0.5L0,-3.0L2.5,-0.5"/>
  </g>
  <g id="arrowLeft" transform="rotate(270) translate(-36 17)">
    <use xlink:href="#rim"/>
    <path pointer-events="none" fill="none" stroke="white" stroke-width="1.5" d="M0,-3.0v7 M-2.5,-0.5L0,-3.0L2.5,-0.5"/>
  </g>
  <g id="resetDef">
    <use xlink:href="#rim2" fill="#404040"><set attributeName="fill" to="#808080" begin="reset.mouseover" end="reset.mouseout"/></use>
  </g>
</defs>
<script type="application/ecmascript">
var viewWidth = 625;
var viewHeight = 250;
var sectionId = 'dynsection-0';
</script>
<script type="application/ecmascript" xlink:href="svg.min.js"/>
<svg id="graph" class="graph">
<g id="viewport">
<title>adl8113_iio_dev</title>
<!-- Node1 -->
<g id="Node000001" class="node">
<title>Node1</title>
<g id="a_Node000001"><a xlink:title="ADL8113 IIO device descriptor.">
<polygon fill="#999999" stroke="#666666" points="385.5,-19 289.5,-19 289.5,0 385.5,0 385.5,-19"/>
<text text-anchor="middle" x="337.5" y="-7" font-family="Helvetica,sans-Serif" font-size="10.00">adl8113_iio_dev</text>
</a>
</g>
</g>
<!-- Node2 -->
<g id="Node000002" class="node">
<title>Node2</title>
<g id="a_Node000002"><a xlink:href="structadl8113__dev.html" target="_top" xlink:title="ADL8113 Device Descriptor.">
<polygon fill="white" stroke="#666666" points="254,-85 175,-85 175,-66 254,-66 254,-85"/>
<text text-anchor="middle" x="214.5" y="-73" font-family="Helvetica,sans-Serif" font-size="10.00">adl8113_dev</text>
</a>
</g>
</g>
<!-- Node2&#45;&gt;Node1 -->
<g id="edge1_Node000001_Node000002" class="edge">
<title>Node2&#45;&gt;Node1</title>
<g id="a_edge1_Node000001_Node000002"><a xlink:title=" ">
<path fill="none" stroke="#9a32cd" stroke-dasharray="5,2" d="M233.13,-59.55C242.97,-52.13 255.46,-43.4 267.5,-37 281.04,-29.8 296.97,-23.61 310.21,-19.02"/>
<polygon fill="#9a32cd" stroke="#9a32cd" points="230.7,-57.01 224.94,-65.9 234.99,-62.54 230.7,-57.01"/>
</a>
</g>
<text text-anchor="middle" x="300.5" y="-40" font-family="Helvetica,sans-Serif" font-size="10.00" fill="grey"> adl8113_dev</text>
</g>
<!-- Node3 -->
<g id="Node000003" class="node">
<title>Node3</title>
<g id="a_Node000003"><a xlink:href="structno__os__gpio__desc.html" target="_top" xlink:title="Structure holding the GPIO descriptor.">
<polygon fill="white" stroke="#666666" points="141,-169 42,-169 42,-150 141,-150 141,-169"/>
<text text-anchor="middle" x="91.5" y="-157" font-family="Helvetica,sans-Serif" font-size="10.00">no_os_gpio_desc</text>
</a>
</g>
</g>
<!-- Node3&#45;&gt;Node2 -->
<g id="edge2_Node000002_Node000003" class="edge">
<title>Node3&#45;&gt;Node2</title>
<g id="a_edge2_Node000002_Node000003"><a xlink:title=" ">
<path fill="none" stroke="#9a32cd" stroke-dasharray="5,2" d="M113.29,-143.97C138.85,-126.93 180.41,-99.23 201.43,-85.21"/>
<polygon fill="#9a32cd" stroke="#9a32cd" points="111.04,-141.27 104.66,-149.72 114.93,-147.09 111.04,-141.27"/>
</a>
</g>
<text text-anchor="middle" x="196.5" y="-117" font-family="Helvetica,sans-Serif" font-size="10.00" fill="grey"> gpio_va</text>
<text text-anchor="middle" x="196.5" y="-106" font-family="Helvetica,sans-Serif" font-size="10.00" fill="grey">gpio_vb</text>
</g>
<!-- Node4 -->
<g id="Node000004" class="node">
<title>Node4</title>
<g id="a_Node000004"><a xlink:href="structno__os__gpio__platform__ops.html" target="_top" xlink:title="Structure holding gpio function pointers that point to the platform specific function.">
<polygon fill="white" stroke="#666666" points="141,-242 0,-242 0,-223 141,-223 141,-242"/>
<text text-anchor="middle" x="70.5" y="-230" font-family="Helvetica,sans-Serif" font-size="10.00">no_os_gpio_platform_ops</text>
</a>
</g>
</g>
<!-- Node4&#45;&gt;Node3 -->
<g id="edge3_Node000003_Node000004" class="edge">
<title>Node4&#45;&gt;Node3</title>
<g id="a_edge3_Node000003_Node000004"><a xlink:title=" ">
<path fill="none" stroke="#9a32cd" stroke-dasharray="5,2" d="M75.93,-213.14C80.1,-199.03 85.68,-180.17 88.9,-169.28"/>
<polygon fill="#9a32cd" stroke="#9a32cd" points="72.56,-212.21 73.08,-222.79 79.27,-214.2 72.56,-212.21"/>
</a>
</g>
<text text-anchor="middle" x="115.5" y="-197" font-family="Helvetica,sans-Serif" font-size="10.00" fill="grey"> platform_ops</text>
</g>
<!-- Node5 -->
<g id="Node000005" class="node">
<title>Node5</title>
<g id="a_Node000005"><a xlink:href="structiio__device.html" target="_top" xlink:title="Structure holding channels and attributes of a device.">
<polygon fill="white" stroke="#666666" points="370.5,-85 304.5,-85 304.5,-66 370.5,-66 370.5,-85"/>
<text text-anchor="middle" x="337.5" y="-73" font-family="Helvetica,sans-Serif" font-size="10.00">iio_device</text>
</a>
</g>
</g>
<!-- Node5&#45;&gt;Node1 -->
<g id="edge4_Node000001_Node000005" class="edge">
<title>Node5&#45;&gt;Node1</title>
<g id="a_edge4_Node000001_Node000005"><a xlink:title=" ">
<path fill="none" stroke="#9a32cd" stroke-dasharray="5,2" d="M337.5,-55.58C337.5,-43.63 337.5,-28.72 337.5,-19.41"/>
<polygon fill="#9a32cd" stroke="#9a32cd" points="334,-55.87 337.5,-65.87 341,-55.87 334,-55.87"/>
</a>
</g>
<text text-anchor="middle" x="357" y="-40" font-family="Helvetica,sans-Serif" font-size="10.00" fill="grey"> iio_dev</text>
</g>
<!-- Node6 -->
<g id="Node000006" class="node">
<title>Node6</title>
<g id="a_Node000006"><a xlink:href="structno__os__irq__ctrl__desc.html" target="_top" xlink:title=" ">
<polygon fill="white" stroke="#666666" points="311.5,-169 199.5,-169 199.5,-150 311.5,-150 311.5,-169"/>
<text text-anchor="middle" x="255.5" y="-157" font-family="Helvetica,sans-Serif" font-size="10.00">no_os_irq_ctrl_desc</text>
</a>
</g>
</g>
<!-- Node6&#45;&gt;Node5 -->
<g id="edge5_Node000005_Node000006" class="edge">
<title>Node6&#45;&gt;Node5</title>
<g id="a_edge5_Node000005_Node000006"><a xlink:title=" ">
<path fill="none" stroke="#9a32cd" stroke-dasharray="5,2" d="M268.82,-141.96C278.31,-130.56 291.61,-115.3 304.5,-103 311.2,-96.61 319.3,-90.09 325.79,-85.12"/>
<polygon fill="#9a32cd" stroke="#9a32cd" points="266.01,-139.87 262.38,-149.82 271.43,-144.3 266.01,-139.87"/>
</a>
</g>
<text text-anchor="middle" x="326.5" y="-111.5" font-family="Helvetica,sans-Serif" font-size="10.00" fill="grey"> irq_desc</text>
</g>
<!-- Node7 -->
<g id="Node000007" class="node">
<title>Node7</title>
<g id="a_Node000007"><a xlink:href="structno__os__irq__platform__ops.html" target="_top" xlink:title="Structure holding IRQ function pointers that point to the platform specific function.">
<polygon fill="white" stroke="#666666" points="292,-242 159,-242 159,-223 292,-223 292,-242"/>
<text text-anchor="middle" x="225.5" y="-230" font-family="Helvetica,sans-Serif" font-size="10.00">no_os_irq_platform_ops</text>
</a>
</g>
</g>
<!-- Node7&#45;&gt;Node6 -->
<g id="edge6_Node000006_Node000007" class="edge">
<title>Node7&#45;&gt;Node6</title>
<g id="a_edge6_Node000006_Node000007"><a xlink:title=" ">
<path fill="none" stroke="#9a32cd" stroke-dasharray="5,2" d="M233.08,-213.56C239.06,-199.4 247.14,-180.28 251.79,-169.28"/>
<polygon fill="#9a32cd" stroke="#9a32cd" points="229.85,-212.22 229.18,-222.79 236.29,-214.94 229.85,-212.22"/>
</a>
</g>
<text text-anchor="middle" x="274.5" y="-197" font-family="Helvetica,sans-Serif" font-size="10.00" fill="grey"> platform_ops</text>
</g>
<!-- Node8 -->
<g id="Node000008" class="node">
<title>Node8</title>
<g id="a_Node000008"><a xlink:href="structiio__channel.html" target="_top" xlink:title="Struct describing the scan type.">
<polygon fill="white" stroke="#666666" points="421.5,-169 349.5,-169 349.5,-150 421.5,-150 421.5,-169"/>
<text text-anchor="middle" x="385.5" y="-157" font-family="Helvetica,sans-Serif" font-size="10.00">iio_channel</text>
</a>
</g>
</g>
<!-- Node8&#45;&gt;Node5 -->
<g id="edge7_Node000005_Node000008" class="edge">
<title>Node8&#45;&gt;Node5</title>
<g id="a_edge7_Node000005_Node000008"><a xlink:title=" ">
<path fill="none" stroke="#9a32cd" stroke-dasharray="5,2" d="M375.09,-140.72C365.06,-123.58 350.3,-98.37 342.6,-85.21"/>
<polygon fill="#9a32cd" stroke="#9a32cd" points="372.29,-142.86 380.36,-149.72 378.33,-139.33 372.29,-142.86"/>
</a>
</g>
<text text-anchor="middle" x="389" y="-111.5" font-family="Helvetica,sans-Serif" font-size="10.00" fill="grey"> channels</text>
</g>
<!-- Node9 -->
<g id="Node000009" class="node">
<title>Node9</title>
<g id="a_Node000009"><a xlink:href="structiio__chan__type.html" target="_top" xlink:title="IIO channel types.">
<polygon fill="white" stroke="#666666" points="394.5,-242 310.5,-242 310.5,-223 394.5,-223 394.5,-242"/>
<text text-anchor="middle" x="352.5" y="-230" font-family="Helvetica,sans-Serif" font-size="10.00">iio_chan_type</text>
</a>
</g>
</g>
<!-- Node9&#45;&gt;Node8 -->
<g id="edge8_Node000008_Node000009" class="edge">
<title>Node9&#45;&gt;Node8</title>
<g id="a_edge8_Node000008_Node000009"><a xlink:title=" ">
<path fill="none" stroke="#9a32cd" stroke-dasharray="5,2" d="M350.37,-212.68C350.35,-206.52 351.09,-199.79 353.5,-194 357.7,-183.9 366.47,-175.08 373.77,-169.03"/>
<polygon fill="#9a32cd" stroke="#9a32cd" points="346.88,-213.04 351.01,-222.79 353.87,-212.59 346.88,-213.04"/>
</a>
</g>
<text text-anchor="middle" x="374.5" y="-197" font-family="Helvetica,sans-Serif" font-size="10.00" fill="grey"> ch_type</text>
</g>
<!-- Node10 -->
<g id="Node000010" class="node">
<title>Node10</title>
<g id="a_Node000010"><a xlink:href="structscan__type.html" target="_top" xlink:title=" ">
<polygon fill="white" stroke="#666666" points="478.5,-242 412.5,-242 412.5,-223 478.5,-223 478.5,-242"/>
<text text-anchor="middle" x="445.5" y="-230" font-family="Helvetica,sans-Serif" font-size="10.00">scan_type</text>
</a>
</g>
</g>
<!-- Node10&#45;&gt;Node8 -->
<g id="edge9_Node000008_Node000010" class="edge">
<title>Node10&#45;&gt;Node8</title>
<g id="a_edge9_Node000008_Node000010"><a xlink:title=" ">
<path fill="none" stroke="#9a32cd" stroke-dasharray="5,2" d="M428.64,-215.76C425.18,-212.31 421.64,-208.61 418.5,-205 408.14,-193.1 397.51,-178.19 391.21,-169"/>
<polygon fill="#9a32cd" stroke="#9a32cd" points="426.27,-218.33 435.89,-222.77 431.13,-213.3 426.27,-218.33"/>
</a>
</g>
<text text-anchor="middle" x="445" y="-197" font-family="Helvetica,sans-Serif" font-size="10.00" fill="grey"> scan_type</text>
</g>
<!-- Node11 -->
<g id="Node000011" class="node">
<title>Node11</title>
<g id="a_Node000011"><a xlink:href="structiio__attribute.html" target="_top" xlink:title="Structure holding pointers to show and store functions.">
<polygon fill="white" stroke="#666666" points="585.5,-242 509.5,-242 509.5,-223 585.5,-223 585.5,-242"/>
<text text-anchor="middle" x="547.5" y="-230" font-family="Helvetica,sans-Serif" font-size="10.00">iio_attribute</text>
</a>
</g>
</g>
<!-- Node11&#45;&gt;Node5 -->
<g id="edge11_Node000005_Node000011" class="edge">
<title>Node11&#45;&gt;Node5</title>
<g id="a_edge11_Node000005_Node000011"><a xlink:title=" ">
<path fill="none" stroke="#9a32cd" stroke-dasharray="5,2" d="M549.69,-212.57C549.6,-206.33 548.57,-199.56 545.5,-194 511.56,-132.59 479.09,-134.71 416.5,-103 401.79,-95.55 384.51,-89.48 369.88,-85.03"/>
<polygon fill="#9a32cd" stroke="#9a32cd" points="546.17,-212.69 549.07,-222.88 553.16,-213.1 546.17,-212.69"/>
</a>
</g>
<text text-anchor="middle" x="575" y="-168" font-family="Helvetica,sans-Serif" font-size="10.00" fill="grey"> attributes</text>
<text text-anchor="middle" x="575" y="-157" font-family="Helvetica,sans-Serif" font-size="10.00" fill="grey">buffer_attributes</text>
<text text-anchor="middle" x="575" y="-146" font-family="Helvetica,sans-Serif" font-size="10.00" fill="grey">debug_attributes</text>
</g>
<!-- Node11&#45;&gt;Node8 -->
<g id="edge10_Node000008_Node000011" class="edge">
<title>Node11&#45;&gt;Node8</title>
<g id="a_edge10_Node000008_Node000011"><a xlink:title=" ">
<path fill="none" stroke="#9a32cd" stroke-dasharray="5,2" d="M521.19,-218.38C501.27,-208.47 476.5,-196.2 471.5,-194 450.68,-184.83 426.49,-175.52 409.09,-169.06"/>
<polygon fill="#9a32cd" stroke="#9a32cd" points="519.68,-221.54 530.19,-222.86 522.8,-215.27 519.68,-221.54"/>
</a>
</g>
<text text-anchor="middle" x="519" y="-197" font-family="Helvetica,sans-Serif" font-size="10.00" fill="grey"> attributes</text>
</g>
<!-- Node12 -->
<g id="Node000012" class="node">
<title>Node12</title>
<g id="a_Node000012"><a xlink:href="structadl8113__iio__gain__config.html" target="_top" xlink:title="IIO&#45;only gain configuration entry.">
<polygon fill="white" stroke="#666666" points="522.5,-85 388.5,-85 388.5,-66 522.5,-66 522.5,-85"/>
<text text-anchor="middle" x="455.5" y="-73" font-family="Helvetica,sans-Serif" font-size="10.00">adl8113_iio_gain_config</text>
</a>
</g>
</g>
<!-- Node12&#45;&gt;Node1 -->
<g id="edge12_Node000001_Node000012" class="edge">
<title>Node12&#45;&gt;Node1</title>
<g id="a_edge12_Node000001_Node000012"><a xlink:title=" ">
<path fill="none" stroke="#9a32cd" stroke-dasharray="5,2" d="M430.66,-61.03C407.42,-48.42 373.39,-29.97 353.54,-19.2"/>
<polygon fill="#9a32cd" stroke="#9a32cd" points="429.13,-64.18 439.59,-65.87 432.46,-58.02 429.13,-64.18"/>
</a>
</g>
<text text-anchor="middle" x="435.5" y="-40" font-family="Helvetica,sans-Serif" font-size="10.00" fill="grey"> gain_configs</text>
</g>
</g>
</svg>

<g id="navigator" transform="translate(0 0)" fill="#404254">
  <rect fill="#f2f5e9" fill-opacity="0.5" stroke="#606060" stroke-width=".5" x="0" y="0" width="60" height="60"/>
  <use id="zoomplus" xlink:href="#zoomPlus" x="17" y="9" onmousedown="handleZoom(evt,'in')"/>
  <use id="zoomminus" xlink:href="#zoomMin" x="42" y="9" onmousedown="handleZoom(evt,'out')"/>
  <use id="reset" xlink:href="#resetDef" x="30" y="36" onmousedown="handleReset()"/>
   <use id="arrowup" xlink:href="#arrowUp" x="0" y="0" onmousedown="handlePan(0,-1)"/>
  <use id="arrowright" xlink:href="#arrowRight" x="0" y="0" onmousedown="handlePan(1,0)"/>
  <use id="arrowdown" xlink:href="#arrowDown" x="0" y="0" onmousedown="handlePan(0,1)"/>
  <use id="arrowleft" xlink:href="#arrowLeft" x="0" y="0" onmousedown="handlePan(-1,0)"/>
</g>
<svg viewBox="0 0 15 15" width="100%" height="30px" preserveAspectRatio="xMaxYMin meet">
 <g id="arrow_out" transform="scale(0.3 0.3)">
  <a xlink:href="structadl8113__iio__dev__coll__graph_org.svg" target="_base">
   <rect id="button" ry="5" rx="5" y="6" x="6" height="38" width="38"
        fill="#f2f5e9" fill-opacity="0.5" stroke="#606060" stroke-width="1.0"/>
   <path id="arrow"
     d="M 11.500037,31.436501 C 11.940474,20.09759 22.043105,11.32322 32.158766,21.979434 L 37.068811,17.246167 C 37.068811,17.246167 37.088388,32 37.088388,32 L 22.160133,31.978069 C 22.160133,31.978069 26.997745,27.140456 26.997745,27.140456 C 18.528582,18.264221 13.291696,25.230495 11.500037,31.436501 z"
     style="fill:#404040;"/>
  </a>
 </g>
</svg>

<style type='text/css'>
<![CDATA[
[data-mouse-over-selected='false'] { opacity: 0.7; }
[data-mouse-over-selected='true']  { opacity: 1.0; }
]]>
</style>
<script type="application/ecmascript"><![CDATA[
document.addEventListener('DOMContentLoaded', (event) => {
  highlightEdges();
  highlightAdjacentNodes();
});
]]></script>
</svg>
