<?xml version="1.0" encoding="UTF-8" standalone="no"?>
<!DOCTYPE svg PUBLIC "-//W3C//DTD SVG 1.1//EN"
 "http://www.w3.org/Graphics/SVG/1.1/DTD/svg11.dtd">
<!-- Generated by graphviz version 2.43.0 (0)
 -->
<!-- Title: axi_jesd204_rx_jesd204_priv Pages: 1 -->
<svg width="393pt" height="247pt"
 viewBox="0.00 0.00 392.50 247.00" xmlns="http://www.w3.org/2000/svg" xmlns:xlink="http://www.w3.org/1999/xlink">
<g id="graph0" class="graph" transform="scale(1 1) rotate(0) translate(4 243)">
<title>axi_jesd204_rx_jesd204_priv</title>
<!-- Node1 -->
<g id="Node000001" class="node">
<title>Node1</title>
<g id="a_Node000001"><a xlink:title=" ">
<polygon fill="#999999" stroke="#666666" points="247,-19 89,-19 89,0 247,0 247,-19"/>
<text text-anchor="middle" x="168" y="-7" font-family="Helvetica,sans-Serif" font-size="10.00">axi_jesd204_rx_jesd204_priv</text>
</a>
</g>
</g>
<!-- Node2 -->
<g id="Node000002" class="node">
<title>Node2</title>
<g id="a_Node000002"><a xlink:href="structaxi__jesd204__rx.html" target="_top" xlink:title=" ">
<polygon fill="white" stroke="#666666" points="213,-85 123,-85 123,-66 213,-66 213,-85"/>
<text text-anchor="middle" x="168" y="-73" font-family="Helvetica,sans-Serif" font-size="10.00">axi_jesd204_rx</text>
</a>
</g>
</g>
<!-- Node2&#45;&gt;Node1 -->
<g id="edge1_Node000001_Node000002" class="edge">
<title>Node2&#45;&gt;Node1</title>
<g id="a_edge1_Node000001_Node000002"><a xlink:title=" ">
<path fill="none" stroke="#9a32cd" stroke-dasharray="5,2" d="M168,-55.58C168,-43.63 168,-28.72 168,-19.41"/>
<polygon fill="#9a32cd" stroke="#9a32cd" points="164.5,-55.87 168,-65.87 171.5,-55.87 164.5,-55.87"/>
</a>
</g>
<text text-anchor="middle" x="180" y="-40" font-family="Helvetica,sans-Serif" font-size="10.00" fill="grey"> jesd</text>
</g>
<!-- Node3 -->
<g id="Node000003" class="node">
<title>Node3</title>
<g id="a_Node000003"><a xlink:href="structjesd204__rx__config.html" target="_top" xlink:title=" ">
<polygon fill="white" stroke="#666666" points="104,-173 0,-173 0,-154 104,-154 104,-173"/>
<text text-anchor="middle" x="52" y="-161" font-family="Helvetica,sans-Serif" font-size="10.00">jesd204_rx_config</text>
</a>
</g>
</g>
<!-- Node3&#45;&gt;Node2 -->
<g id="edge2_Node000002_Node000003" class="edge">
<title>Node3&#45;&gt;Node2</title>
<g id="a_edge2_Node000002_Node000003"><a xlink:title=" ">
<path fill="none" stroke="#9a32cd" stroke-dasharray="5,2" d="M71.22,-147.82C87.16,-135.7 110.45,-118.09 131,-103 139.28,-96.92 148.69,-90.18 155.95,-85.02"/>
<polygon fill="#9a32cd" stroke="#9a32cd" points="69.02,-145.1 63.19,-153.94 73.26,-150.67 69.02,-145.1"/>
</a>
</g>
<text text-anchor="middle" x="147.5" y="-117" font-family="Helvetica,sans-Serif" font-size="10.00" fill="grey"> config</text>
</g>
<!-- Node4 -->
<g id="Node000004" class="node">
<title>Node4</title>
<g id="a_Node000004"><a xlink:href="structno__os__clk__desc.html" target="_top" xlink:title="Structure holding CLK descriptor.">
<polygon fill="white" stroke="#666666" points="214,-173 122,-173 122,-154 214,-154 214,-173"/>
<text text-anchor="middle" x="168" y="-161" font-family="Helvetica,sans-Serif" font-size="10.00">no_os_clk_desc</text>
</a>
</g>
</g>
<!-- Node4&#45;&gt;Node2 -->
<g id="edge3_Node000002_Node000004" class="edge">
<title>Node4&#45;&gt;Node2</title>
<g id="a_edge3_Node000002_Node000004"><a xlink:title=" ">
<path fill="none" stroke="#9a32cd" stroke-dasharray="5,2" d="M168,-143.91C168,-125.67 168,-98.65 168,-85.03"/>
<polygon fill="#9a32cd" stroke="#9a32cd" points="164.5,-143.94 168,-153.94 171.5,-143.94 164.5,-143.94"/>
</a>
</g>
<text text-anchor="middle" x="190" y="-117" font-family="Helvetica,sans-Serif" font-size="10.00" fill="grey"> lane_clk</text>
</g>
<!-- Node5 -->
<g id="Node000005" class="node">
<title>Node5</title>
<g id="a_Node000005"><a xlink:href="structno__os__clk__platform__ops.html" target="_top" xlink:title="Structure holding CLK function pointers that point to the platform specific function.">
<polygon fill="white" stroke="#666666" points="225,-239 91,-239 91,-220 225,-220 225,-239"/>
<text text-anchor="middle" x="158" y="-227" font-family="Helvetica,sans-Serif" font-size="10.00">no_os_clk_platform_ops</text>
</a>
</g>
</g>
<!-- Node5&#45;&gt;Node4 -->
<g id="edge4_Node000004_Node000005" class="edge">
<title>Node5&#45;&gt;Node4</title>
<g id="a_edge4_Node000004_Node000005"><a xlink:title=" ">
<path fill="none" stroke="#9a32cd" stroke-dasharray="5,2" d="M160.9,-209.95C162.78,-197.93 165.14,-182.82 166.61,-173.41"/>
<polygon fill="#9a32cd" stroke="#9a32cd" points="157.43,-209.45 159.35,-219.87 164.35,-210.53 157.43,-209.45"/>
</a>
</g>
<text text-anchor="middle" x="198" y="-194" font-family="Helvetica,sans-Serif" font-size="10.00" fill="grey"> platform_ops</text>
</g>
<!-- Node6 -->
<g id="Node000006" class="node">
<title>Node6</title>
<g id="a_Node000006"><a xlink:href="structno__os__gpio__desc.html" target="_top" xlink:title="Structure holding the GPIO descriptor.">
<polygon fill="white" stroke="#666666" points="342.5,-173 243.5,-173 243.5,-154 342.5,-154 342.5,-173"/>
<text text-anchor="middle" x="293" y="-161" font-family="Helvetica,sans-Serif" font-size="10.00">no_os_gpio_desc</text>
</a>
</g>
</g>
<!-- Node6&#45;&gt;Node2 -->
<g id="edge5_Node000002_Node000006" class="edge">
<title>Node6&#45;&gt;Node2</title>
<g id="a_edge5_Node000002_Node000006"><a xlink:title=" ">
<path fill="none" stroke="#9a32cd" stroke-dasharray="5,2" d="M274.85,-147.2C259.61,-134.66 237.01,-116.8 216,-103 206.13,-96.52 194.56,-90.1 185.26,-85.2"/>
<polygon fill="#9a32cd" stroke="#9a32cd" points="272.98,-150.19 282.91,-153.89 277.46,-144.81 272.98,-150.19"/>
</a>
</g>
<text text-anchor="middle" x="297.5" y="-128" font-family="Helvetica,sans-Serif" font-size="10.00" fill="grey"> gt_reset_done</text>
<text text-anchor="middle" x="297.5" y="-117" font-family="Helvetica,sans-Serif" font-size="10.00" fill="grey">gt_reset_dp</text>
<text text-anchor="middle" x="297.5" y="-106" font-family="Helvetica,sans-Serif" font-size="10.00" fill="grey">gt_reset_pll</text>
</g>
<!-- Node7 -->
<g id="Node000007" class="node">
<title>Node7</title>
<g id="a_Node000007"><a xlink:href="structno__os__gpio__platform__ops.html" target="_top" xlink:title="Structure holding gpio function pointers that point to the platform specific function.">
<polygon fill="white" stroke="#666666" points="384.5,-239 243.5,-239 243.5,-220 384.5,-220 384.5,-239"/>
<text text-anchor="middle" x="314" y="-227" font-family="Helvetica,sans-Serif" font-size="10.00">no_os_gpio_platform_ops</text>
</a>
</g>
</g>
<!-- Node7&#45;&gt;Node6 -->
<g id="edge6_Node000006_Node000007" class="edge">
<title>Node7&#45;&gt;Node6</title>
<g id="a_edge6_Node000006_Node000007"><a xlink:title=" ">
<path fill="none" stroke="#9a32cd" stroke-dasharray="5,2" d="M308.03,-210.32C304.07,-198.24 299.04,-182.91 295.92,-173.41"/>
<polygon fill="#9a32cd" stroke="#9a32cd" points="304.72,-211.46 311.17,-219.87 311.38,-209.28 304.72,-211.46"/>
</a>
</g>
<text text-anchor="middle" x="339" y="-194" font-family="Helvetica,sans-Serif" font-size="10.00" fill="grey"> platform_ops</text>
</g>
</g>
</svg>
