<?xml version="1.0" encoding="UTF-8" standalone="no"?>
<!DOCTYPE svg PUBLIC "-//W3C//DTD SVG 1.1//EN"
 "http://www.w3.org/Graphics/SVG/1.1/DTD/svg11.dtd">
<!-- Generated by graphviz version 2.43.0 (0)
 -->
<!-- Title: app_jesd Pages: 1 -->
<!--zoomable 291 -->

<svg id="main" version="1.1" xmlns="http://www.w3.org/2000/svg" xmlns:xlink="http://www.w3.org/1999/xlink" xml:space="preserve" onload="init(evt)">

<style type="text/css"><![CDATA[
.node, .edge {opacity: 0.7;}
.node.selected, .edge.selected {opacity: 1;}
.edge:hover path { stroke: red; }
.edge:hover polygon { stroke: red; fill: red; }
]]></style>

<defs>
  <circle id="rim" cx="0" cy="0" r="7"/>
  <circle id="rim2" cx="0" cy="0" r="3.5"/>
  <g id="zoomPlus">
    <use xlink:href="#rim" fill="#404040"><set attributeName="fill" to="#808080" begin="zoomplus.mouseover" end="zoomplus.mouseout"/></use>
    <path d="M-4,0h8M0,-4v8" fill="none" stroke="white" stroke-width="1.5" pointer-events="none"/>
  </g>
  <g id="zoomMin">
    <use xlink:href="#rim" fill="#404040"><set attributeName="fill" to="#808080" begin="zoomminus.mouseover" end="zoomminus.mouseout"/></use>
    <path d="M-4,0h8" fill="none" stroke="white" stroke-width="1.5" pointer-events="none"/>
  </g>
  <g id="arrowUp" transform="translate(30 24)">
    <use xlink:href="#rim"/>
    <path pointer-events="none" fill="none" stroke="white" stroke-width="1.5" d="M0,-3.0v7 M-2.5,-0.5L0,-3.0L2.5,-0.5"/>
  </g>
  <g id="arrowRight" transform="rotate(90) translate(36 -43)">
    <use xlink:href="#rim"/>
    <path pointer-events="none" fill="none" stroke="white" stroke-width="1.5" d="M0,-3.0v7 M-2.5,-0.5L0,-3.0L2.5,-0.5"/>
  </g>
  <g id="arrowDown" transform="rotate(180) translate(-30 -48)">
    <use xlink:href="#rim"/>
    <path pointer-events="none" fill="none" stroke="white" stroke-width="1.5" d="M0,-3.0v7 M-2.5,-0.5L0,-3.0L2.5,-0.5"/>
  </g>
  <g id="arrowLeft" transform="rotate(270) translate(-36 17)">
    <use xlink:href="#rim"/>
    <path pointer-events="none" fill="none" stroke="white" stroke-width="1.5" d="M0,-3.0v7 M-2.5,-0.5L0,-3.0L2.5,-0.5"/>
  </g>
  <g id="resetDef">
    <use xlink:href="#rim2" fill="#404040"><set attributeName="fill" to="#808080" begin="reset.mouseover" end="reset.mouseout"/></use>
  </g>
</defs>
<script type="application/ecmascript">
var viewWidth = 586;
var viewHeight = 291;
var sectionId = 'dynsection-0';
</script>
<script type="application/ecmascript" xlink:href="svg.min.js"/>
<svg id="graph" class="graph">
<g id="viewport">
<title>app_jesd</title>
<!-- Node1 -->
<g id="Node000001" class="node">
<title>Node1</title>
<g id="a_Node000001"><a xlink:title="Structure holding jesd app descriptor.">
<polygon fill="#999999" stroke="#666666" points="280,-19 220,-19 220,0 280,0 280,-19"/>
<text text-anchor="middle" x="250" y="-7" font-family="Helvetica,sans-Serif" font-size="10.00">app_jesd</text>
</a>
</g>
</g>
<!-- Node2 -->
<g id="Node000002" class="node">
<title>Node2</title>
<g id="a_Node000002"><a xlink:href="structaxi__jesd204__rx.html" target="_top" xlink:title=" ">
<polygon fill="white" stroke="#666666" points="139,-151 49,-151 49,-132 139,-132 139,-151"/>
<text text-anchor="middle" x="94" y="-139" font-family="Helvetica,sans-Serif" font-size="10.00">axi_jesd204_rx</text>
</a>
</g>
</g>
<!-- Node2&#45;&gt;Node1 -->
<g id="edge1_Node000001_Node000002" class="edge">
<title>Node2&#45;&gt;Node1</title>
<g id="a_edge1_Node000001_Node000002"><a xlink:title=" ">
<path fill="none" stroke="#9a32cd" stroke-dasharray="5,2" d="M95,-121.73C96.63,-105.75 100.9,-82.79 112,-66 135.71,-30.14 186.96,-17.45 219.89,-12.96"/>
<polygon fill="#9a32cd" stroke="#9a32cd" points="91.49,-121.7 94.21,-131.94 98.47,-122.24 91.49,-121.7"/>
</a>
</g>
<text text-anchor="middle" x="131.5" y="-73" font-family="Helvetica,sans-Serif" font-size="10.00" fill="grey"> rx_jesd</text>
</g>
<!-- Node8 -->
<g id="Node000008" class="node">
<title>Node8</title>
<g id="a_Node000008"><a xlink:href="structjesd204__clk.html" target="_top" xlink:title=" ">
<polygon fill="white" stroke="#666666" points="352,-85 278,-85 278,-66 352,-66 352,-85"/>
<text text-anchor="middle" x="315" y="-73" font-family="Helvetica,sans-Serif" font-size="10.00">jesd204_clk</text>
</a>
</g>
</g>
<!-- Node2&#45;&gt;Node8 -->
<g id="edge11_Node000008_Node000002" class="edge">
<title>Node2&#45;&gt;Node8</title>
<g id="a_edge11_Node000008_Node000002"><a xlink:title=" ">
<path fill="none" stroke="#9a32cd" stroke-dasharray="5,2" d="M149.23,-136.3C180.17,-132.7 219.04,-126.09 252,-114 262.16,-110.27 286.61,-94.96 301.89,-85.09"/>
<polygon fill="#9a32cd" stroke="#9a32cd" points="148.62,-132.84 139.06,-137.4 149.38,-139.8 148.62,-132.84"/>
</a>
</g>
<text text-anchor="middle" x="291.5" y="-106" font-family="Helvetica,sans-Serif" font-size="10.00" fill="grey"> jesd_rx</text>
</g>
<!-- Node3 -->
<g id="Node000003" class="node">
<title>Node3</title>
<g id="a_Node000003"><a xlink:href="structjesd204__rx__config.html" target="_top" xlink:title=" ">
<polygon fill="white" stroke="#666666" points="104,-217 0,-217 0,-198 104,-198 104,-217"/>
<text text-anchor="middle" x="52" y="-205" font-family="Helvetica,sans-Serif" font-size="10.00">jesd204_rx_config</text>
</a>
</g>
</g>
<!-- Node3&#45;&gt;Node2 -->
<g id="edge2_Node000002_Node000003" class="edge">
<title>Node3&#45;&gt;Node2</title>
<g id="a_edge2_Node000002_Node000003"><a xlink:title=" ">
<path fill="none" stroke="#9a32cd" stroke-dasharray="5,2" d="M49.1,-187.54C49,-181.29 49.89,-174.54 53,-169 57.4,-161.17 65.19,-155.28 72.8,-151.06"/>
<polygon fill="#9a32cd" stroke="#9a32cd" points="45.65,-188.23 50.06,-197.86 52.62,-187.58 45.65,-188.23"/>
</a>
</g>
<text text-anchor="middle" x="69.5" y="-172" font-family="Helvetica,sans-Serif" font-size="10.00" fill="grey"> config</text>
</g>
<!-- Node4 -->
<g id="Node000004" class="node">
<title>Node4</title>
<g id="a_Node000004"><a xlink:href="structno__os__clk__desc.html" target="_top" xlink:title="Structure holding CLK descriptor.">
<polygon fill="white" stroke="#666666" points="228,-217 136,-217 136,-198 228,-198 228,-217"/>
<text text-anchor="middle" x="182" y="-205" font-family="Helvetica,sans-Serif" font-size="10.00">no_os_clk_desc</text>
</a>
</g>
</g>
<!-- Node4&#45;&gt;Node1 -->
<g id="edge15_Node000001_Node000004" class="edge">
<title>Node4&#45;&gt;Node1</title>
<g id="a_edge15_Node000001_Node000004"><a xlink:title=" ">
<path fill="none" stroke="#9a32cd" stroke-dasharray="5,2" d="M172.71,-188.83C162.96,-167.75 150.5,-131.77 162,-103 177.22,-64.92 216.4,-33.57 236.96,-19.11"/>
<polygon fill="#9a32cd" stroke="#9a32cd" points="169.61,-190.45 177.17,-197.88 175.89,-187.36 169.61,-190.45"/>
</a>
</g>
<text text-anchor="middle" x="205" y="-106" font-family="Helvetica,sans-Serif" font-size="10.00" fill="grey"> jesd_rx_clk_desc</text>
</g>
<!-- Node4&#45;&gt;Node2 -->
<g id="edge3_Node000002_Node000004" class="edge">
<title>Node4&#45;&gt;Node2</title>
<g id="a_edge3_Node000002_Node000004"><a xlink:title=" ">
<path fill="none" stroke="#9a32cd" stroke-dasharray="5,2" d="M130.59,-194.14C122.68,-190.55 115.13,-185.93 109,-180 100.94,-172.2 97.1,-159.5 95.35,-151.07"/>
<polygon fill="#9a32cd" stroke="#9a32cd" points="129.38,-197.43 139.96,-197.9 131.98,-190.93 129.38,-197.43"/>
</a>
</g>
<text text-anchor="middle" x="131" y="-172" font-family="Helvetica,sans-Serif" font-size="10.00" fill="grey"> lane_clk</text>
</g>
<!-- Node6 -->
<g id="Node000006" class="node">
<title>Node6</title>
<g id="a_Node000006"><a xlink:href="structadxcvr.html" target="_top" xlink:title="ADI JESD204B/C AXI_ADXCVR Highspeed Transceiver Device structure.">
<polygon fill="white" stroke="#666666" points="463,-151 413,-151 413,-132 463,-132 463,-151"/>
<text text-anchor="middle" x="438" y="-139" font-family="Helvetica,sans-Serif" font-size="10.00">adxcvr</text>
</a>
</g>
</g>
<!-- Node4&#45;&gt;Node6 -->
<g id="edge8_Node000006_Node000004" class="edge">
<title>Node4&#45;&gt;Node6</title>
<g id="a_edge8_Node000006_Node000004"><a xlink:title=" ">
<path fill="none" stroke="#9a32cd" stroke-dasharray="5,2" d="M238.48,-199.87C281.54,-194.48 337.06,-186.69 359,-180 382.53,-172.83 407.91,-159.72 423.38,-151.05"/>
<polygon fill="#9a32cd" stroke="#9a32cd" points="237.88,-196.42 228.39,-201.12 238.74,-203.37 237.88,-196.42"/>
</a>
</g>
<text text-anchor="middle" x="404.5" y="-172" font-family="Helvetica,sans-Serif" font-size="10.00" fill="grey"> clk_out</text>
</g>
<!-- Node9 -->
<g id="Node000009" class="node">
<title>Node9</title>
<g id="a_Node000009"><a xlink:href="structaxi__jesd204__tx.html" target="_top" xlink:title=" ">
<polygon fill="white" stroke="#666666" points="367,-151 277,-151 277,-132 367,-132 367,-151"/>
<text text-anchor="middle" x="322" y="-139" font-family="Helvetica,sans-Serif" font-size="10.00">axi_jesd204_tx</text>
</a>
</g>
</g>
<!-- Node4&#45;&gt;Node9 -->
<g id="edge14_Node000009_Node000004" class="edge">
<title>Node4&#45;&gt;Node9</title>
<g id="a_edge14_Node000009_Node000004"><a xlink:title=" ">
<path fill="none" stroke="#9a32cd" stroke-dasharray="5,2" d="M210.01,-193.69C237.6,-181.08 279,-162.16 302.97,-151.2"/>
<polygon fill="#9a32cd" stroke="#9a32cd" points="208.52,-190.53 200.88,-197.87 211.43,-196.89 208.52,-190.53"/>
</a>
</g>
<text text-anchor="middle" x="282" y="-172" font-family="Helvetica,sans-Serif" font-size="10.00" fill="grey"> lane_clk</text>
</g>
<!-- Node5 -->
<g id="Node000005" class="node">
<title>Node5</title>
<g id="a_Node000005"><a xlink:href="structno__os__clk__platform__ops.html" target="_top" xlink:title="Structure holding CLK function pointers that point to the platform specific function.">
<polygon fill="white" stroke="#666666" points="249,-283 115,-283 115,-264 249,-264 249,-283"/>
<text text-anchor="middle" x="182" y="-271" font-family="Helvetica,sans-Serif" font-size="10.00">no_os_clk_platform_ops</text>
</a>
</g>
</g>
<!-- Node5&#45;&gt;Node4 -->
<g id="edge4_Node000004_Node000005" class="edge">
<title>Node5&#45;&gt;Node4</title>
<g id="a_edge4_Node000004_Node000005"><a xlink:title=" ">
<path fill="none" stroke="#9a32cd" stroke-dasharray="5,2" d="M182,-253.58C182,-241.63 182,-226.72 182,-217.41"/>
<polygon fill="#9a32cd" stroke="#9a32cd" points="178.5,-253.87 182,-263.87 185.5,-253.87 178.5,-253.87"/>
</a>
</g>
<text text-anchor="middle" x="216" y="-238" font-family="Helvetica,sans-Serif" font-size="10.00" fill="grey"> platform_ops</text>
</g>
<!-- Node6&#45;&gt;Node1 -->
<g id="edge5_Node000001_Node000006" class="edge">
<title>Node6&#45;&gt;Node1</title>
<g id="a_edge5_Node000001_Node000006"><a xlink:title=" ">
<path fill="none" stroke="#9a32cd" stroke-dasharray="5,2" d="M427.89,-123.03C413.35,-99.57 384.26,-58.37 348,-37 327.2,-24.74 300.59,-18.02 280.35,-14.41"/>
<polygon fill="#9a32cd" stroke="#9a32cd" points="425.06,-125.11 433.21,-131.89 431.06,-121.51 425.06,-125.11"/>
</a>
</g>
<text text-anchor="middle" x="425" y="-73" font-family="Helvetica,sans-Serif" font-size="10.00" fill="grey"> rx_adxcvr</text>
</g>
<!-- Node7 -->
<g id="Node000007" class="node">
<title>Node7</title>
<g id="a_Node000007"><a xlink:href="structxilinx__xcvr.html" target="_top" xlink:title="xilinx_xcvr parameters structure.">
<polygon fill="white" stroke="#666666" points="578,-85 508,-85 508,-66 578,-66 578,-85"/>
<text text-anchor="middle" x="543" y="-73" font-family="Helvetica,sans-Serif" font-size="10.00">xilinx_xcvr</text>
</a>
</g>
</g>
<!-- Node6&#45;&gt;Node7 -->
<g id="edge7_Node000007_Node000006" class="edge">
<title>Node6&#45;&gt;Node7</title>
<g id="a_edge7_Node000007_Node000006"><a xlink:title=" ">
<path fill="none" stroke="#9a32cd" stroke-dasharray="5,2" d="M450.42,-124.1C456.57,-116.85 464.5,-108.71 473,-103 484.55,-95.25 498.67,-89.35 511.2,-85.11"/>
<polygon fill="#9a32cd" stroke="#9a32cd" points="447.61,-122 444.08,-131.98 453.07,-126.38 447.61,-122"/>
</a>
</g>
<text text-anchor="middle" x="494" y="-106" font-family="Helvetica,sans-Serif" font-size="10.00" fill="grey"> ad_xcvr</text>
</g>
<!-- Node6&#45;&gt;Node8 -->
<g id="edge10_Node000008_Node000006" class="edge">
<title>Node6&#45;&gt;Node8</title>
<g id="a_edge10_Node000008_Node000006"><a xlink:title=" ">
<path fill="none" stroke="#9a32cd" stroke-dasharray="5,2" d="M412.43,-127.19C388.2,-114.59 352.51,-96.01 331.72,-85.2"/>
<polygon fill="#9a32cd" stroke="#9a32cd" points="410.93,-130.36 421.41,-131.87 414.16,-124.15 410.93,-130.36"/>
</a>
</g>
<text text-anchor="middle" x="395.5" y="-106" font-family="Helvetica,sans-Serif" font-size="10.00" fill="grey"> xcvr</text>
</g>
<!-- Node7&#45;&gt;Node6 -->
<g id="edge6_Node000006_Node000007" class="edge">
<title>Node7&#45;&gt;Node6</title>
<g id="a_edge6_Node000006_Node000007"><a xlink:title=" ">
<path fill="none" stroke="#9a32cd" stroke-dasharray="5,2" d="M534.77,-94.58C530.85,-101.49 525.57,-108.91 519,-114 502.74,-126.59 480.26,-133.32 463.1,-136.84"/>
<polygon fill="#9a32cd" stroke="#9a32cd" points="538.14,-95.67 539.53,-85.17 531.9,-92.52 538.14,-95.67"/>
</a>
</g>
<text text-anchor="middle" x="550.5" y="-106" font-family="Helvetica,sans-Serif" font-size="10.00" fill="grey"> xlx_xcvr</text>
</g>
<!-- Node8&#45;&gt;Node1 -->
<g id="edge9_Node000001_Node000008" class="edge">
<title>Node8&#45;&gt;Node1</title>
<g id="a_edge9_Node000001_Node000008"><a xlink:title=" ">
<path fill="none" stroke="#9a32cd" stroke-dasharray="5,2" d="M299.08,-58.83C286.5,-46.44 269.38,-29.59 259.04,-19.41"/>
<polygon fill="#9a32cd" stroke="#9a32cd" points="296.65,-61.35 306.23,-65.87 301.56,-56.36 296.65,-61.35"/>
</a>
</g>
<text text-anchor="middle" x="315" y="-40" font-family="Helvetica,sans-Serif" font-size="10.00" fill="grey"> rx_jesd_clk</text>
</g>
<!-- Node9&#45;&gt;Node8 -->
<g id="edge12_Node000008_Node000009" class="edge">
<title>Node9&#45;&gt;Node8</title>
<g id="a_edge12_Node000008_Node000009"><a xlink:title=" ">
<path fill="none" stroke="#9a32cd" stroke-dasharray="5,2" d="M319.93,-121.58C318.62,-109.63 316.99,-94.72 315.97,-85.41"/>
<polygon fill="#9a32cd" stroke="#9a32cd" points="316.49,-122.31 321.06,-131.87 323.45,-121.55 316.49,-122.31"/>
</a>
</g>
<text text-anchor="middle" x="337.5" y="-106" font-family="Helvetica,sans-Serif" font-size="10.00" fill="grey"> jesd_tx</text>
</g>
<!-- Node10 -->
<g id="Node000010" class="node">
<title>Node10</title>
<g id="a_Node000010"><a xlink:href="structjesd204__tx__config.html" target="_top" xlink:title=" ">
<polygon fill="white" stroke="#666666" points="374,-217 270,-217 270,-198 374,-198 374,-217"/>
<text text-anchor="middle" x="322" y="-205" font-family="Helvetica,sans-Serif" font-size="10.00">jesd204_tx_config</text>
</a>
</g>
</g>
<!-- Node10&#45;&gt;Node9 -->
<g id="edge13_Node000009_Node000010" class="edge">
<title>Node10&#45;&gt;Node9</title>
<g id="a_edge13_Node000009_Node000010"><a xlink:title=" ">
<path fill="none" stroke="#9a32cd" stroke-dasharray="5,2" d="M322,-187.58C322,-175.63 322,-160.72 322,-151.41"/>
<polygon fill="#9a32cd" stroke="#9a32cd" points="318.5,-187.87 322,-197.87 325.5,-187.87 318.5,-187.87"/>
</a>
</g>
<text text-anchor="middle" x="338.5" y="-172" font-family="Helvetica,sans-Serif" font-size="10.00" fill="grey"> config</text>
</g>
</g>
</svg>

<g id="navigator" transform="translate(0 0)" fill="#404254">
  <rect fill="#f2f5e9" fill-opacity="0.5" stroke="#606060" stroke-width=".5" x="0" y="0" width="60" height="60"/>
  <use id="zoomplus" xlink:href="#zoomPlus" x="17" y="9" onmousedown="handleZoom(evt,'in')"/>
  <use id="zoomminus" xlink:href="#zoomMin" x="42" y="9" onmousedown="handleZoom(evt,'out')"/>
  <use id="reset" xlink:href="#resetDef" x="30" y="36" onmousedown="handleReset()"/>
   <use id="arrowup" xlink:href="#arrowUp" x="0" y="0" onmousedown="handlePan(0,-1)"/>
  <use id="arrowright" xlink:href="#arrowRight" x="0" y="0" onmousedown="handlePan(1,0)"/>
  <use id="arrowdown" xlink:href="#arrowDown" x="0" y="0" onmousedown="handlePan(0,1)"/>
  <use id="arrowleft" xlink:href="#arrowLeft" x="0" y="0" onmousedown="handlePan(-1,0)"/>
</g>
<svg viewBox="0 0 15 15" width="100%" height="30px" preserveAspectRatio="xMaxYMin meet">
 <g id="arrow_out" transform="scale(0.3 0.3)">
  <a xlink:href="structapp__jesd__coll__graph_org.svg" target="_base">
   <rect id="button" ry="5" rx="5" y="6" x="6" height="38" width="38"
        fill="#f2f5e9" fill-opacity="0.5" stroke="#606060" stroke-width="1.0"/>
   <path id="arrow"
     d="M 11.500037,31.436501 C 11.940474,20.09759 22.043105,11.32322 32.158766,21.979434 L 37.068811,17.246167 C 37.068811,17.246167 37.088388,32 37.088388,32 L 22.160133,31.978069 C 22.160133,31.978069 26.997745,27.140456 26.997745,27.140456 C 18.528582,18.264221 13.291696,25.230495 11.500037,31.436501 z"
     style="fill:#404040;"/>
  </a>
 </g>
</svg>

<style type='text/css'>
<![CDATA[
[data-mouse-over-selected='false'] { opacity: 0.7; }
[data-mouse-over-selected='true']  { opacity: 1.0; }
]]>
</style>
<script type="application/ecmascript"><![CDATA[
document.addEventListener('DOMContentLoaded', (event) => {
  highlightEdges();
  highlightAdjacentNodes();
});
]]></script>
</svg>
