<?xml version="1.0" encoding="UTF-8" standalone="no"?>
<!DOCTYPE svg PUBLIC "-//W3C//DTD SVG 1.1//EN"
 "http://www.w3.org/Graphics/SVG/1.1/DTD/svg11.dtd">
<!-- Generated by graphviz version 2.43.0 (0)
 -->
<!-- Title: ad3552r_init_param Pages: 1 -->
<svg width="1139pt" height="242pt"
 viewBox="0.00 0.00 1139.00 242.00" xmlns="http://www.w3.org/2000/svg" xmlns:xlink="http://www.w3.org/1999/xlink">
<g id="graph0" class="graph" transform="scale(1 1) rotate(0) translate(4 238)">
<title>ad3552r_init_param</title>
<!-- Node1 -->
<g id="Node000001" class="node">
<title>Node1</title>
<g id="a_Node000001"><a xlink:title=" ">
<polygon fill="#999999" stroke="#666666" points="1131,-67.5 1017,-67.5 1017,-48.5 1131,-48.5 1131,-67.5"/>
<text text-anchor="middle" x="1074" y="-55.5" font-family="Helvetica,sans-Serif" font-size="10.00">ad3552r_init_param</text>
</a>
</g>
</g>
<!-- Node2 -->
<g id="Node000002" class="node">
<title>Node2</title>
<g id="a_Node000002"><a xlink:href="structno__os__spi__init__param.html" target="_top" xlink:title="Structure holding the parameters for SPI initialization.">
<polygon fill="white" stroke="#666666" points="844.5,-139.5 722.5,-139.5 722.5,-120.5 844.5,-120.5 844.5,-139.5"/>
<text text-anchor="middle" x="783.5" y="-127.5" font-family="Helvetica,sans-Serif" font-size="10.00">no_os_spi_init_param</text>
</a>
</g>
</g>
<!-- Node2&#45;&gt;Node1 -->
<g id="edge1_Node000001_Node000002" class="edge">
<title>Node2&#45;&gt;Node1</title>
<g id="a_edge1_Node000001_Node000002"><a xlink:title=" ">
<path fill="none" stroke="#9a32cd" stroke-dasharray="5,2" d="M848.32,-118.51C891.25,-110.25 948.94,-98.1 999,-84 1015.65,-79.31 1033.99,-72.88 1048.25,-67.58"/>
<polygon fill="#9a32cd" stroke="#9a32cd" points="847.46,-115.11 838.29,-120.42 848.77,-121.99 847.46,-115.11"/>
</a>
</g>
<text text-anchor="middle" x="932.5" y="-117" font-family="Helvetica,sans-Serif" font-size="10.00" fill="grey"> spi_param</text>
</g>
<!-- Node3 -->
<g id="Node000003" class="node">
<title>Node3</title>
<g id="a_Node000003"><a xlink:href="structno__os__spi__platform__ops.html" target="_top" xlink:title="Structure holding SPI function pointers that point to the platform specific function.">
<polygon fill="white" stroke="#666666" points="134,-206.5 0,-206.5 0,-187.5 134,-187.5 134,-206.5"/>
<text text-anchor="middle" x="67" y="-194.5" font-family="Helvetica,sans-Serif" font-size="10.00">no_os_spi_platform_ops</text>
</a>
</g>
</g>
<!-- Node3&#45;&gt;Node2 -->
<g id="edge2_Node000002_Node000003" class="edge">
<title>Node3&#45;&gt;Node2</title>
<g id="a_edge2_Node000002_Node000003"><a xlink:title=" ">
<path fill="none" stroke="#9a32cd" stroke-dasharray="5,2" d="M141.61,-207.82C246.75,-221.05 445.41,-237.81 610,-204 670.65,-191.54 736.29,-156.81 766.11,-139.74"/>
<polygon fill="#9a32cd" stroke="#9a32cd" points="141.79,-204.31 131.42,-206.51 140.89,-211.26 141.79,-204.31"/>
</a>
</g>
<text text-anchor="middle" x="409.5" y="-226" font-family="Helvetica,sans-Serif" font-size="10.00" fill="grey"> platform_ops</text>
</g>
<!-- Node5 -->
<g id="Node000005" class="node">
<title>Node5</title>
<g id="a_Node000005"><a xlink:href="structno__os__spi__desc.html" target="_top" xlink:title="Structure holding SPI descriptor.">
<polygon fill="white" stroke="#666666" points="585.5,-165.5 493.5,-165.5 493.5,-146.5 585.5,-146.5 585.5,-165.5"/>
<text text-anchor="middle" x="539.5" y="-153.5" font-family="Helvetica,sans-Serif" font-size="10.00">no_os_spi_desc</text>
</a>
</g>
</g>
<!-- Node3&#45;&gt;Node5 -->
<g id="edge7_Node000005_Node000003" class="edge">
<title>Node3&#45;&gt;Node5</title>
<g id="a_edge7_Node000005_Node000003"><a xlink:title=" ">
<path fill="none" stroke="#9a32cd" stroke-dasharray="5,2" d="M144.36,-193.1C221.77,-188.75 344.93,-180.74 451,-169 464.74,-167.48 479.63,-165.42 493.17,-163.39"/>
<polygon fill="#9a32cd" stroke="#9a32cd" points="144.01,-189.61 134.22,-193.66 144.4,-196.6 144.01,-189.61"/>
</a>
</g>
<text text-anchor="middle" x="294" y="-189" font-family="Helvetica,sans-Serif" font-size="10.00" fill="grey"> platform_ops</text>
</g>
<!-- Node6 -->
<g id="Node000006" class="node">
<title>Node6</title>
<g id="a_Node000006"><a xlink:href="structno__os__spibus__desc.html" target="_top" xlink:title="SPI bus descriptor.">
<polygon fill="white" stroke="#666666" points="349,-160.5 239,-160.5 239,-141.5 349,-141.5 349,-160.5"/>
<text text-anchor="middle" x="294" y="-148.5" font-family="Helvetica,sans-Serif" font-size="10.00">no_os_spibus_desc</text>
</a>
</g>
</g>
<!-- Node3&#45;&gt;Node6 -->
<g id="edge6_Node000006_Node000003" class="edge">
<title>Node3&#45;&gt;Node6</title>
<g id="a_edge6_Node000006_Node000003"><a xlink:title=" ">
<path fill="none" stroke="#9a32cd" stroke-dasharray="5,2" d="M106.43,-184.32C120.63,-179.96 136.94,-175.34 152,-172 180.39,-165.69 212.42,-160.75 238.77,-157.25"/>
<polygon fill="#9a32cd" stroke="#9a32cd" points="105,-181.1 96.51,-187.42 107.09,-187.78 105,-181.1"/>
</a>
</g>
<text text-anchor="middle" x="186" y="-175" font-family="Helvetica,sans-Serif" font-size="10.00" fill="grey"> platform_ops</text>
</g>
<!-- Node4 -->
<g id="Node000004" class="node">
<title>Node4</title>
<g id="a_Node000004"><a xlink:href="structno__os__platform__spi__delays.html" target="_top" xlink:title="Delays resulted from components in the SPI signal path. The values is ns.">
<polygon fill="white" stroke="#666666" points="350,-121 238,-121 238,-91 350,-91 350,-121"/>
<text text-anchor="start" x="246" y="-109" font-family="Helvetica,sans-Serif" font-size="10.00">no_os_platform_spi</text>
<text text-anchor="middle" x="294" y="-98" font-family="Helvetica,sans-Serif" font-size="10.00">_delays</text>
</a>
</g>
</g>
<!-- Node4&#45;&gt;Node2 -->
<g id="edge3_Node000002_Node000004" class="edge">
<title>Node4&#45;&gt;Node2</title>
<g id="a_edge3_Node000002_Node000004"><a xlink:title=" ">
<path fill="none" stroke="#9a32cd" stroke-dasharray="5,2" d="M360.51,-109.22C455.5,-113.9 630.15,-122.5 722.16,-127.03"/>
<polygon fill="#9a32cd" stroke="#9a32cd" points="360.61,-105.73 350.45,-108.73 360.26,-112.72 360.61,-105.73"/>
</a>
</g>
<text text-anchor="middle" x="539.5" y="-124" font-family="Helvetica,sans-Serif" font-size="10.00" fill="grey"> platform_delays</text>
</g>
<!-- Node4&#45;&gt;Node5 -->
<g id="edge8_Node000005_Node000004" class="edge">
<title>Node4&#45;&gt;Node5</title>
<g id="a_edge8_Node000005_Node000004"><a xlink:title=" ">
<path fill="none" stroke="#9a32cd" stroke-dasharray="5,2" d="M360.33,-118.72C388.28,-124.22 421.26,-130.82 451,-137 465.46,-140.01 481.24,-143.4 495.36,-146.47"/>
<polygon fill="#9a32cd" stroke="#9a32cd" points="360.77,-115.23 350.28,-116.74 359.42,-122.1 360.77,-115.23"/>
</a>
</g>
<text text-anchor="middle" x="409.5" y="-140" font-family="Helvetica,sans-Serif" font-size="10.00" fill="grey"> platform_delays</text>
</g>
<!-- Node5&#45;&gt;Node2 -->
<g id="edge4_Node000002_Node000005" class="edge">
<title>Node5&#45;&gt;Node2</title>
<g id="a_edge4_Node000002_Node000005"><a xlink:title=" ">
<path fill="none" stroke="#9a32cd" stroke-dasharray="5,2" d="M596.04,-150.03C633.8,-145.98 683.72,-140.61 722.41,-136.46"/>
<polygon fill="#9a32cd" stroke="#9a32cd" points="595.3,-146.59 585.73,-151.14 596.05,-153.55 595.3,-146.59"/>
</a>
</g>
<text text-anchor="middle" x="664.5" y="-149" font-family="Helvetica,sans-Serif" font-size="10.00" fill="grey"> parent</text>
</g>
<!-- Node5&#45;&gt;Node5 -->
<g id="edge9_Node000005_Node000005" class="edge">
<title>Node5&#45;&gt;Node5</title>
<g id="a_edge9_Node000005_Node000005"><a xlink:title=" ">
<path fill="none" stroke="#9a32cd" stroke-dasharray="5,2" d="M516.54,-175.05C518.07,-179.88 525.73,-183.5 539.5,-183.5 561.54,-183.5 567.91,-174.23 558.61,-165.58"/>
<polygon fill="#9a32cd" stroke="#9a32cd" points="519.86,-176.16 520.39,-165.58 513.38,-173.53 519.86,-176.16"/>
</a>
</g>
<text text-anchor="middle" x="539.5" y="-186.5" font-family="Helvetica,sans-Serif" font-size="10.00" fill="grey"> parent</text>
</g>
<!-- Node6&#45;&gt;Node5 -->
<g id="edge5_Node000005_Node000006" class="edge">
<title>Node6&#45;&gt;Node5</title>
<g id="a_edge5_Node000005_Node000006"><a xlink:title=" ">
<path fill="none" stroke="#9a32cd" stroke-dasharray="5,2" d="M359.21,-152.32C401.37,-153.18 455.49,-154.3 493.19,-155.07"/>
<polygon fill="#9a32cd" stroke="#9a32cd" points="359.11,-148.82 349.04,-152.11 358.97,-155.81 359.11,-148.82"/>
</a>
</g>
<text text-anchor="middle" x="409.5" y="-157" font-family="Helvetica,sans-Serif" font-size="10.00" fill="grey"> bus</text>
</g>
<!-- Node7 -->
<g id="Node000007" class="node">
<title>Node7</title>
<g id="a_Node000007"><a xlink:href="structno__os__gpio__init__param.html" target="_top" xlink:title="Structure holding the parameters for GPIO initialization.">
<polygon fill="white" stroke="#666666" points="848,-67.5 719,-67.5 719,-48.5 848,-48.5 848,-67.5"/>
<text text-anchor="middle" x="783.5" y="-55.5" font-family="Helvetica,sans-Serif" font-size="10.00">no_os_gpio_init_param</text>
</a>
</g>
</g>
<!-- Node7&#45;&gt;Node1 -->
<g id="edge10_Node000001_Node000007" class="edge">
<title>Node7&#45;&gt;Node1</title>
<g id="a_edge10_Node000001_Node000007"><a xlink:title=" ">
<path fill="none" stroke="#9a32cd" stroke-dasharray="5,2" d="M858.46,-58C907.79,-58 971.63,-58 1016.81,-58"/>
<polygon fill="#9a32cd" stroke="#9a32cd" points="858.17,-54.5 848.17,-58 858.17,-61.5 858.17,-54.5"/>
</a>
</g>
<text text-anchor="middle" x="932.5" y="-72" font-family="Helvetica,sans-Serif" font-size="10.00" fill="grey"> ldac_gpio_param_optional</text>
<text text-anchor="middle" x="932.5" y="-61" font-family="Helvetica,sans-Serif" font-size="10.00" fill="grey">reset_gpio_param_optional</text>
</g>
<!-- Node8 -->
<g id="Node000008" class="node">
<title>Node8</title>
<g id="a_Node000008"><a xlink:href="structno__os__gpio__platform__ops.html" target="_top" xlink:title="Structure holding gpio function pointers that point to the platform specific function.">
<polygon fill="white" stroke="#666666" points="610,-67.5 469,-67.5 469,-48.5 610,-48.5 610,-67.5"/>
<text text-anchor="middle" x="539.5" y="-55.5" font-family="Helvetica,sans-Serif" font-size="10.00">no_os_gpio_platform_ops</text>
</a>
</g>
</g>
<!-- Node8&#45;&gt;Node7 -->
<g id="edge11_Node000007_Node000008" class="edge">
<title>Node8&#45;&gt;Node7</title>
<g id="a_edge11_Node000007_Node000008"><a xlink:title=" ">
<path fill="none" stroke="#9a32cd" stroke-dasharray="5,2" d="M620.37,-58C652.3,-58 688.57,-58 718.7,-58"/>
<polygon fill="#9a32cd" stroke="#9a32cd" points="620.17,-54.5 610.17,-58 620.17,-61.5 620.17,-54.5"/>
</a>
</g>
<text text-anchor="middle" x="664.5" y="-61" font-family="Helvetica,sans-Serif" font-size="10.00" fill="grey"> platform_ops</text>
</g>
<!-- Node9 -->
<g id="Node000009" class="node">
<title>Node9</title>
<g id="a_Node000009"><a xlink:href="structad3552r__channel__init.html" target="_top" xlink:title=" ">
<polygon fill="white" stroke="#666666" points="844,-27.5 723,-27.5 723,-8.5 844,-8.5 844,-27.5"/>
<text text-anchor="middle" x="783.5" y="-15.5" font-family="Helvetica,sans-Serif" font-size="10.00">ad3552r_channel_init</text>
</a>
</g>
</g>
<!-- Node9&#45;&gt;Node1 -->
<g id="edge12_Node000001_Node000009" class="edge">
<title>Node9&#45;&gt;Node1</title>
<g id="a_edge12_Node000001_Node000009"><a xlink:title=" ">
<path fill="none" stroke="#9a32cd" stroke-dasharray="5,2" d="M854.45,-24.65C896.48,-29.02 950.94,-35.34 999,-43 1008.71,-44.55 1019.08,-46.48 1028.89,-48.43"/>
<polygon fill="#9a32cd" stroke="#9a32cd" points="854.63,-21.15 844.32,-23.61 853.91,-28.12 854.63,-21.15"/>
</a>
</g>
<text text-anchor="middle" x="932.5" y="-46" font-family="Helvetica,sans-Serif" font-size="10.00" fill="grey"> channels</text>
</g>
<!-- Node10 -->
<g id="Node000010" class="node">
<title>Node10</title>
<g id="a_Node000010"><a xlink:href="structad3552r__custom__output__range__cfg.html" target="_top" xlink:title=" ">
<polygon fill="white" stroke="#666666" points="606.5,-30 472.5,-30 472.5,0 606.5,0 606.5,-30"/>
<text text-anchor="start" x="480.5" y="-18" font-family="Helvetica,sans-Serif" font-size="10.00">ad3552r_custom_output</text>
<text text-anchor="middle" x="539.5" y="-7" font-family="Helvetica,sans-Serif" font-size="10.00">_range_cfg</text>
</a>
</g>
</g>
<!-- Node10&#45;&gt;Node9 -->
<g id="edge13_Node000009_Node000010" class="edge">
<title>Node10&#45;&gt;Node9</title>
<g id="a_edge13_Node000009_Node000010"><a xlink:title=" ">
<path fill="none" stroke="#9a32cd" stroke-dasharray="5,2" d="M617.03,-15.95C651.15,-16.37 690.75,-16.86 722.66,-17.26"/>
<polygon fill="#9a32cd" stroke="#9a32cd" points="616.67,-12.44 606.63,-15.82 616.58,-19.44 616.67,-12.44"/>
</a>
</g>
<text text-anchor="middle" x="664.5" y="-20" font-family="Helvetica,sans-Serif" font-size="10.00" fill="grey"> custom_range</text>
</g>
</g>
</svg>
