<?xml version="1.0" encoding="UTF-8" standalone="no"?>
<!DOCTYPE svg PUBLIC "-//W3C//DTD SVG 1.1//EN"
 "http://www.w3.org/Graphics/SVG/1.1/DTD/svg11.dtd">
<!-- Generated by graphviz version 2.43.0 (0)
 -->
<!-- Title: xil_gpio_irq_desc Pages: 1 -->
<svg width="303pt" height="195pt"
 viewBox="0.00 0.00 303.00 195.00" xmlns="http://www.w3.org/2000/svg" xmlns:xlink="http://www.w3.org/1999/xlink">

<svg id="main" version="1.1" xmlns="http://www.w3.org/2000/svg" xmlns:xlink="http://www.w3.org/1999/xlink" xml:space="preserve">

<style type="text/css"><![CDATA[
.node, .edge {opacity: 0.7;}
.node.selected, .edge.selected {opacity: 1;}
.edge:hover path { stroke: red; }
.edge:hover polygon { stroke: red; fill: red; }
]]></style>
<script type="application/ecmascript" xlink:href="svg.min.js"/>
<svg id="graph" class="graph">
<g id="graph0" class="graph" transform="scale(1 1) rotate(0) translate(4 191)">
<title>xil_gpio_irq_desc</title>
<!-- Node1 -->
<g id="Node000001" class="node">
<title>Node1</title>
<g id="a_Node000001"><a xlink:title="Xilinx platform specific GPIO IRQ descriptor.">
<polygon fill="#999999" stroke="#666666" points="177,-19 76,-19 76,0 177,0 177,-19"/>
<text text-anchor="middle" x="126.5" y="-7" font-family="Helvetica,sans-Serif" font-size="10.00">xil_gpio_irq_desc</text>
</a>
</g>
</g>
<!-- Node2 -->
<g id="Node000002" class="node">
<title>Node2</title>
<g id="a_Node000002"><a xlink:href="structno__os__irq__ctrl__desc.html" target="_top" xlink:title=" ">
<polygon fill="white" stroke="#666666" points="122.5,-103 10.5,-103 10.5,-84 122.5,-84 122.5,-103"/>
<text text-anchor="middle" x="66.5" y="-91" font-family="Helvetica,sans-Serif" font-size="10.00">no_os_irq_ctrl_desc</text>
</a>
</g>
</g>
<!-- Node2&#45;&gt;Node1 -->
<g id="edge1_Node000001_Node000002" class="edge">
<title>Node2&#45;&gt;Node1</title>
<g id="a_edge1_Node000001_Node000002"><a xlink:title=" ">
<path fill="none" stroke="#9a32cd" stroke-dasharray="5,2" d="M72.87,-74.54C77.49,-63.07 84.49,-48.29 93.5,-37 99,-30.11 106.59,-23.85 113.11,-19.16"/>
<polygon fill="#9a32cd" stroke="#9a32cd" points="69.58,-73.35 69.32,-83.95 76.13,-75.83 69.58,-73.35"/>
</a>
</g>
<text text-anchor="middle" x="125" y="-40" font-family="Helvetica,sans-Serif" font-size="10.00" fill="grey"> parent_desc</text>
</g>
<!-- Node3 -->
<g id="Node000003" class="node">
<title>Node3</title>
<g id="a_Node000003"><a xlink:href="structno__os__irq__platform__ops.html" target="_top" xlink:title="Structure holding IRQ function pointers that point to the platform specific function.">
<polygon fill="white" stroke="#666666" points="133,-187 0,-187 0,-168 133,-168 133,-187"/>
<text text-anchor="middle" x="66.5" y="-175" font-family="Helvetica,sans-Serif" font-size="10.00">no_os_irq_platform_ops</text>
</a>
</g>
</g>
<!-- Node3&#45;&gt;Node2 -->
<g id="edge2_Node000002_Node000003" class="edge">
<title>Node3&#45;&gt;Node2</title>
<g id="a_edge2_Node000002_Node000003"><a xlink:title=" ">
<path fill="none" stroke="#9a32cd" stroke-dasharray="5,2" d="M66.5,-157.26C66.5,-140.18 66.5,-116 66.5,-103.21"/>
<polygon fill="#9a32cd" stroke="#9a32cd" points="63,-157.72 66.5,-167.72 70,-157.72 63,-157.72"/>
</a>
</g>
<text text-anchor="middle" x="100.5" y="-142" font-family="Helvetica,sans-Serif" font-size="10.00" fill="grey"> platform_ops</text>
</g>
<!-- Node4 -->
<g id="Node000004" class="node">
<title>Node4</title>
<g id="a_Node000004"><a xlink:href="structno__os__list__desc.html" target="_top" xlink:title="Structure storing the list and function wrapper for usual list types.">
<polygon fill="white" stroke="#666666" points="234,-103 141,-103 141,-84 234,-84 234,-103"/>
<text text-anchor="middle" x="187.5" y="-91" font-family="Helvetica,sans-Serif" font-size="10.00">no_os_list_desc</text>
</a>
</g>
</g>
<!-- Node4&#45;&gt;Node1 -->
<g id="edge3_Node000001_Node000004" class="edge">
<title>Node4&#45;&gt;Node1</title>
<g id="a_edge3_Node000001_Node000004"><a xlink:title=" ">
<path fill="none" stroke="#9a32cd" stroke-dasharray="5,2" d="M179.31,-74.35C173.74,-63.01 165.73,-48.45 156.5,-37 151.09,-30.29 143.89,-23.86 137.89,-19.02"/>
<polygon fill="#9a32cd" stroke="#9a32cd" points="176.28,-76.11 183.7,-83.67 182.61,-73.13 176.28,-76.11"/>
</a>
</g>
<text text-anchor="middle" x="195.5" y="-40" font-family="Helvetica,sans-Serif" font-size="10.00" fill="grey"> callback_list</text>
</g>
<!-- Node4&#45;&gt;Node4 -->
<g id="edge4_Node000004_Node000004" class="edge">
<title>Node4&#45;&gt;Node4</title>
<g id="a_edge4_Node000004_Node000004"><a xlink:title=" ">
<path fill="none" stroke="#9a32cd" stroke-dasharray="5,2" d="M244.35,-100.74C249.07,-99.18 252,-96.77 252,-93.5 252,-88.28 244.49,-85.23 234.17,-84.38"/>
<polygon fill="#9a32cd" stroke="#9a32cd" points="243.37,-97.36 234.17,-102.62 244.64,-104.24 243.37,-97.36"/>
</a>
</g>
<text text-anchor="middle" x="273.5" y="-113" font-family="Helvetica,sans-Serif" font-size="10.00" fill="grey"> back</text>
<text text-anchor="middle" x="273.5" y="-102" font-family="Helvetica,sans-Serif" font-size="10.00" fill="grey">pop</text>
<text text-anchor="middle" x="273.5" y="-91" font-family="Helvetica,sans-Serif" font-size="10.00" fill="grey">push</text>
<text text-anchor="middle" x="273.5" y="-80" font-family="Helvetica,sans-Serif" font-size="10.00" fill="grey">swap</text>
<text text-anchor="middle" x="273.5" y="-69" font-family="Helvetica,sans-Serif" font-size="10.00" fill="grey">top_next</text>
</g>
</g>
</svg>
</svg>

<style type='text/css'>
<![CDATA[
[data-mouse-over-selected='false'] { opacity: 0.7; }
[data-mouse-over-selected='true']  { opacity: 1.0; }
]]>
</style>
<script type="application/ecmascript"><![CDATA[
document.addEventListener('DOMContentLoaded', (event) => {
  highlightEdges();
  highlightAdjacentNodes();
});
]]></script>
</svg>
