<?xml version="1.0" encoding="UTF-8" standalone="no"?>
<!DOCTYPE svg PUBLIC "-//W3C//DTD SVG 1.1//EN"
 "http://www.w3.org/Graphics/SVG/1.1/DTD/svg11.dtd">
<!-- Generated by graphviz version 2.43.0 (0)
 -->
<!-- Title: ad9083_init_param Pages: 1 -->
<!--zoomable 266 -->

<svg id="main" version="1.1" xmlns="http://www.w3.org/2000/svg" xmlns:xlink="http://www.w3.org/1999/xlink" xml:space="preserve" onload="init(evt)">

<style type="text/css"><![CDATA[
.node, .edge {opacity: 0.7;}
.node.selected, .edge.selected {opacity: 1;}
.edge:hover path { stroke: red; }
.edge:hover polygon { stroke: red; fill: red; }
]]></style>

<defs>
  <circle id="rim" cx="0" cy="0" r="7"/>
  <circle id="rim2" cx="0" cy="0" r="3.5"/>
  <g id="zoomPlus">
    <use xlink:href="#rim" fill="#404040"><set attributeName="fill" to="#808080" begin="zoomplus.mouseover" end="zoomplus.mouseout"/></use>
    <path d="M-4,0h8M0,-4v8" fill="none" stroke="white" stroke-width="1.5" pointer-events="none"/>
  </g>
  <g id="zoomMin">
    <use xlink:href="#rim" fill="#404040"><set attributeName="fill" to="#808080" begin="zoomminus.mouseover" end="zoomminus.mouseout"/></use>
    <path d="M-4,0h8" fill="none" stroke="white" stroke-width="1.5" pointer-events="none"/>
  </g>
  <g id="arrowUp" transform="translate(30 24)">
    <use xlink:href="#rim"/>
    <path pointer-events="none" fill="none" stroke="white" stroke-width="1.5" d="M0,-3.0v7 M-2.5,-0.5L0,-3.0L2.5,-0.5"/>
  </g>
  <g id="arrowRight" transform="rotate(90) translate(36 -43)">
    <use xlink:href="#rim"/>
    <path pointer-events="none" fill="none" stroke="white" stroke-width="1.5" d="M0,-3.0v7 M-2.5,-0.5L0,-3.0L2.5,-0.5"/>
  </g>
  <g id="arrowDown" transform="rotate(180) translate(-30 -48)">
    <use xlink:href="#rim"/>
    <path pointer-events="none" fill="none" stroke="white" stroke-width="1.5" d="M0,-3.0v7 M-2.5,-0.5L0,-3.0L2.5,-0.5"/>
  </g>
  <g id="arrowLeft" transform="rotate(270) translate(-36 17)">
    <use xlink:href="#rim"/>
    <path pointer-events="none" fill="none" stroke="white" stroke-width="1.5" d="M0,-3.0v7 M-2.5,-0.5L0,-3.0L2.5,-0.5"/>
  </g>
  <g id="resetDef">
    <use xlink:href="#rim2" fill="#404040"><set attributeName="fill" to="#808080" begin="reset.mouseover" end="reset.mouseout"/></use>
  </g>
</defs>
<script type="application/ecmascript">
var viewWidth = 1077;
var viewHeight = 266;
var sectionId = 'dynsection-0';
</script>
<script type="application/ecmascript" xlink:href="svg.min.js"/>
<svg id="graph" class="graph">
<g id="viewport">
<title>ad9083_init_param</title>
<!-- Node1 -->
<g id="Node000001" class="node">
<title>Node1</title>
<g id="a_Node000001"><a xlink:title="Structure holding the parameters for ad9083 initialization.">
<polygon fill="#999999" stroke="#666666" points="1069,-113.34 959,-113.34 959,-94.34 1069,-94.34 1069,-113.34"/>
<text text-anchor="middle" x="1014" y="-101.34" font-family="Helvetica,sans-Serif" font-size="10.00">ad9083_init_param</text>
</a>
</g>
</g>
<!-- Node2 -->
<g id="Node000002" class="node">
<title>Node2</title>
<g id="a_Node000002"><a xlink:href="structno__os__spi__init__param.html" target="_top" xlink:title="Structure holding the parameters for SPI initialization.">
<polygon fill="white" stroke="#666666" points="861.5,-179.34 739.5,-179.34 739.5,-160.34 861.5,-160.34 861.5,-179.34"/>
<text text-anchor="middle" x="800.5" y="-167.34" font-family="Helvetica,sans-Serif" font-size="10.00">no_os_spi_init_param</text>
</a>
</g>
</g>
<!-- Node2&#45;&gt;Node1 -->
<g id="edge1_Node000001_Node000002" class="edge">
<title>Node2&#45;&gt;Node1</title>
<g id="a_edge1_Node000001_Node000002"><a xlink:title=" ">
<path fill="none" stroke="#9a32cd" stroke-dasharray="5,2" d="M841.94,-157.22C882.96,-144.42 945.54,-124.89 982.55,-113.34"/>
<polygon fill="#9a32cd" stroke="#9a32cd" points="840.76,-153.92 832.25,-160.24 842.84,-160.6 840.76,-153.92"/>
</a>
</g>
<text text-anchor="middle" x="912" y="-144.84" font-family="Helvetica,sans-Serif" font-size="10.00" fill="grey"> spi_init</text>
</g>
<!-- Node3 -->
<g id="Node000003" class="node">
<title>Node3</title>
<g id="a_Node000003"><a xlink:href="structno__os__spi__platform__ops.html" target="_top" xlink:title="Structure holding SPI function pointers that point to the platform specific function.">
<polygon fill="white" stroke="#666666" points="134,-228.34 0,-228.34 0,-209.34 134,-209.34 134,-228.34"/>
<text text-anchor="middle" x="67" y="-216.34" font-family="Helvetica,sans-Serif" font-size="10.00">no_os_spi_platform_ops</text>
</a>
</g>
</g>
<!-- Node3&#45;&gt;Node2 -->
<g id="edge2_Node000002_Node000003" class="edge">
<title>Node3&#45;&gt;Node2</title>
<g id="a_edge2_Node000002_Node000003"><a xlink:title=" ">
<path fill="none" stroke="#9a32cd" stroke-dasharray="5,2" d="M143.12,-229.66C251.89,-243.25 459.14,-261.33 632,-230.84 687.93,-220.97 749.74,-193.91 780.26,-179.37"/>
<polygon fill="#9a32cd" stroke="#9a32cd" points="143.27,-226.15 132.91,-228.36 142.39,-233.09 143.27,-226.15"/>
</a>
</g>
<text text-anchor="middle" x="431.5" y="-249.84" font-family="Helvetica,sans-Serif" font-size="10.00" fill="grey"> platform_ops</text>
</g>
<!-- Node5 -->
<g id="Node000005" class="node">
<title>Node5</title>
<g id="a_Node000005"><a xlink:href="structno__os__spi__desc.html" target="_top" xlink:title="Structure holding SPI descriptor.">
<polygon fill="white" stroke="#666666" points="607.5,-192.34 515.5,-192.34 515.5,-173.34 607.5,-173.34 607.5,-192.34"/>
<text text-anchor="middle" x="561.5" y="-180.34" font-family="Helvetica,sans-Serif" font-size="10.00">no_os_spi_desc</text>
</a>
</g>
</g>
<!-- Node3&#45;&gt;Node5 -->
<g id="edge7_Node000005_Node000003" class="edge">
<title>Node3&#45;&gt;Node5</title>
<g id="a_edge7_Node000005_Node000003"><a xlink:title=" ">
<path fill="none" stroke="#9a32cd" stroke-dasharray="5,2" d="M144.21,-215.58C225.7,-211.75 358.65,-204.54 473,-193.84 486.72,-192.55 501.61,-190.81 515.15,-189.1"/>
<polygon fill="#9a32cd" stroke="#9a32cd" points="143.87,-212.09 134.04,-216.05 144.19,-219.08 143.87,-212.09"/>
</a>
</g>
<text text-anchor="middle" x="305" y="-212.84" font-family="Helvetica,sans-Serif" font-size="10.00" fill="grey"> platform_ops</text>
</g>
<!-- Node6 -->
<g id="Node000006" class="node">
<title>Node6</title>
<g id="a_Node000006"><a xlink:href="structno__os__spibus__desc.html" target="_top" xlink:title="SPI bus descriptor.">
<polygon fill="white" stroke="#666666" points="360,-182.34 250,-182.34 250,-163.34 360,-163.34 360,-182.34"/>
<text text-anchor="middle" x="305" y="-170.34" font-family="Helvetica,sans-Serif" font-size="10.00">no_os_spibus_desc</text>
</a>
</g>
</g>
<!-- Node3&#45;&gt;Node6 -->
<g id="edge6_Node000006_Node000003" class="edge">
<title>Node3&#45;&gt;Node6</title>
<g id="a_edge6_Node000006_Node000003"><a xlink:title=" ">
<path fill="none" stroke="#9a32cd" stroke-dasharray="5,2" d="M105.66,-206.3C120.03,-201.87 136.66,-197.16 152,-193.84 184.15,-186.87 220.66,-181.74 249.84,-178.3"/>
<polygon fill="#9a32cd" stroke="#9a32cd" points="104.59,-202.97 96.11,-209.31 106.7,-209.64 104.59,-202.97"/>
</a>
</g>
<text text-anchor="middle" x="186" y="-196.84" font-family="Helvetica,sans-Serif" font-size="10.00" fill="grey"> platform_ops</text>
</g>
<!-- Node4 -->
<g id="Node000004" class="node">
<title>Node4</title>
<g id="a_Node000004"><a xlink:href="structno__os__platform__spi__delays.html" target="_top" xlink:title="Delays resulted from components in the SPI signal path. The values is ns.">
<polygon fill="white" stroke="#666666" points="361,-142.84 249,-142.84 249,-112.84 361,-112.84 361,-142.84"/>
<text text-anchor="start" x="257" y="-130.84" font-family="Helvetica,sans-Serif" font-size="10.00">no_os_platform_spi</text>
<text text-anchor="middle" x="305" y="-119.84" font-family="Helvetica,sans-Serif" font-size="10.00">_delays</text>
</a>
</g>
</g>
<!-- Node4&#45;&gt;Node2 -->
<g id="edge3_Node000002_Node000004" class="edge">
<title>Node4&#45;&gt;Node2</title>
<g id="a_edge3_Node000002_Node000004"><a xlink:title=" ">
<path fill="none" stroke="#9a32cd" stroke-dasharray="5,2" d="M371.49,-132.3C402.3,-134.46 439.55,-137.16 473,-139.84 566.06,-147.28 673.88,-157.5 739.36,-163.88"/>
<polygon fill="#9a32cd" stroke="#9a32cd" points="371.52,-128.79 361.3,-131.59 371.04,-135.78 371.52,-128.79"/>
</a>
</g>
<text text-anchor="middle" x="561.5" y="-155.84" font-family="Helvetica,sans-Serif" font-size="10.00" fill="grey"> platform_delays</text>
</g>
<!-- Node4&#45;&gt;Node5 -->
<g id="edge8_Node000005_Node000004" class="edge">
<title>Node4&#45;&gt;Node5</title>
<g id="a_edge8_Node000005_Node000004"><a xlink:title=" ">
<path fill="none" stroke="#9a32cd" stroke-dasharray="5,2" d="M371.28,-139.93C402.19,-145.87 439.58,-153.34 473,-160.84 489.97,-164.64 508.67,-169.29 524.41,-173.32"/>
<polygon fill="#9a32cd" stroke="#9a32cd" points="371.54,-136.42 361.06,-137.98 370.22,-143.3 371.54,-136.42"/>
</a>
</g>
<text text-anchor="middle" x="431.5" y="-163.84" font-family="Helvetica,sans-Serif" font-size="10.00" fill="grey"> platform_delays</text>
</g>
<!-- Node5&#45;&gt;Node2 -->
<g id="edge4_Node000002_Node000005" class="edge">
<title>Node5&#45;&gt;Node2</title>
<g id="a_edge4_Node000002_Node000005"><a xlink:title=" ">
<path fill="none" stroke="#9a32cd" stroke-dasharray="5,2" d="M618.07,-179.79C654.46,-177.79 702.01,-175.19 739.3,-173.14"/>
<polygon fill="#9a32cd" stroke="#9a32cd" points="617.43,-176.32 607.64,-180.36 617.81,-183.31 617.43,-176.32"/>
</a>
</g>
<text text-anchor="middle" x="684" y="-180.84" font-family="Helvetica,sans-Serif" font-size="10.00" fill="grey"> parent</text>
</g>
<!-- Node5&#45;&gt;Node5 -->
<g id="edge9_Node000005_Node000005" class="edge">
<title>Node5&#45;&gt;Node5</title>
<g id="a_edge9_Node000005_Node000005"><a xlink:title=" ">
<path fill="none" stroke="#9a32cd" stroke-dasharray="5,2" d="M538.91,-201.89C540.42,-206.72 547.95,-210.34 561.5,-210.34 583.18,-210.34 589.45,-201.07 580.3,-192.42"/>
<polygon fill="#9a32cd" stroke="#9a32cd" points="542.23,-203.01 542.7,-192.42 535.73,-200.41 542.23,-203.01"/>
</a>
</g>
<text text-anchor="middle" x="561.5" y="-213.34" font-family="Helvetica,sans-Serif" font-size="10.00" fill="grey"> parent</text>
</g>
<!-- Node6&#45;&gt;Node5 -->
<g id="edge5_Node000005_Node000006" class="edge">
<title>Node6&#45;&gt;Node5</title>
<g id="a_edge5_Node000005_Node000006"><a xlink:title=" ">
<path fill="none" stroke="#9a32cd" stroke-dasharray="5,2" d="M370.29,-175.36C415.51,-177.14 474.92,-179.48 515.22,-181.06"/>
<polygon fill="#9a32cd" stroke="#9a32cd" points="370.41,-171.87 360.28,-174.97 370.14,-178.86 370.41,-171.87"/>
</a>
</g>
<text text-anchor="middle" x="431.5" y="-181.84" font-family="Helvetica,sans-Serif" font-size="10.00" fill="grey"> bus</text>
</g>
<!-- Node7 -->
<g id="Node000007" class="node">
<title>Node7</title>
<g id="a_Node000007"><a xlink:href="structno__os__gpio__init__param.html" target="_top" xlink:title="Structure holding the parameters for GPIO initialization.">
<polygon fill="white" stroke="#666666" points="865,-97.34 736,-97.34 736,-78.34 865,-78.34 865,-97.34"/>
<text text-anchor="middle" x="800.5" y="-85.34" font-family="Helvetica,sans-Serif" font-size="10.00">no_os_gpio_init_param</text>
</a>
</g>
</g>
<!-- Node7&#45;&gt;Node1 -->
<g id="edge10_Node000001_Node000007" class="edge">
<title>Node7&#45;&gt;Node1</title>
<g id="a_edge10_Node000001_Node000007"><a xlink:title=" ">
<path fill="none" stroke="#9a32cd" stroke-dasharray="5,2" d="M875.56,-93.44C902.91,-95.51 933.39,-97.82 958.67,-99.73"/>
<polygon fill="#9a32cd" stroke="#9a32cd" points="875.48,-89.93 865.24,-92.66 874.95,-96.91 875.48,-89.93"/>
</a>
</g>
<text text-anchor="middle" x="912" y="-111.84" font-family="Helvetica,sans-Serif" font-size="10.00" fill="grey"> gpio_pd</text>
<text text-anchor="middle" x="912" y="-100.84" font-family="Helvetica,sans-Serif" font-size="10.00" fill="grey">gpio_reset</text>
</g>
<!-- Node8 -->
<g id="Node000008" class="node">
<title>Node8</title>
<g id="a_Node000008"><a xlink:href="structno__os__gpio__platform__ops.html" target="_top" xlink:title="Structure holding gpio function pointers that point to the platform specific function.">
<polygon fill="white" stroke="#666666" points="632,-89.34 491,-89.34 491,-70.34 632,-70.34 632,-89.34"/>
<text text-anchor="middle" x="561.5" y="-77.34" font-family="Helvetica,sans-Serif" font-size="10.00">no_os_gpio_platform_ops</text>
</a>
</g>
</g>
<!-- Node8&#45;&gt;Node7 -->
<g id="edge11_Node000007_Node000008" class="edge">
<title>Node8&#45;&gt;Node7</title>
<g id="a_edge11_Node000007_Node000008"><a xlink:title=" ">
<path fill="none" stroke="#9a32cd" stroke-dasharray="5,2" d="M642.17,-82.53C672.61,-83.56 706.89,-84.71 735.67,-85.68"/>
<polygon fill="#9a32cd" stroke="#9a32cd" points="642.12,-79.02 632.01,-82.18 641.88,-86.02 642.12,-79.02"/>
</a>
</g>
<text text-anchor="middle" x="684" y="-87.84" font-family="Helvetica,sans-Serif" font-size="10.00" fill="grey"> platform_ops</text>
</g>
<!-- Node9 -->
<g id="Node000009" class="node">
<title>Node9</title>
<g id="a_Node000009"><a xlink:href="structno__os__clk.html" target="_top" xlink:title=" ">
<polygon fill="white" stroke="#666666" points="833,-45.34 768,-45.34 768,-26.34 833,-26.34 833,-45.34"/>
<text text-anchor="middle" x="800.5" y="-33.34" font-family="Helvetica,sans-Serif" font-size="10.00">no_os_clk</text>
</a>
</g>
</g>
<!-- Node9&#45;&gt;Node1 -->
<g id="edge12_Node000001_Node000009" class="edge">
<title>Node9&#45;&gt;Node1</title>
<g id="a_edge12_Node000001_Node000009"><a xlink:title=" ">
<path fill="none" stroke="#9a32cd" stroke-dasharray="5,2" d="M842.97,-48.2C870.78,-56.6 908.18,-68.09 941,-78.84 955.96,-83.74 972.57,-89.49 986.07,-94.23"/>
<polygon fill="#9a32cd" stroke="#9a32cd" points="843.76,-44.79 833.18,-45.26 841.75,-51.49 843.76,-44.79"/>
</a>
</g>
<text text-anchor="middle" x="912" y="-81.84" font-family="Helvetica,sans-Serif" font-size="10.00" fill="grey"> jesd_rx_clk</text>
</g>
<!-- Node10 -->
<g id="Node000010" class="node">
<title>Node10</title>
<g id="a_Node000010"><a xlink:href="structno__os__clk__hw.html" target="_top" xlink:title=" ">
<polygon fill="white" stroke="#666666" points="1056,-28.34 972,-28.34 972,-9.34 1056,-9.34 1056,-28.34"/>
<text text-anchor="middle" x="1014" y="-16.34" font-family="Helvetica,sans-Serif" font-size="10.00">no_os_clk_hw</text>
</a>
</g>
</g>
<!-- Node9&#45;&gt;Node10 -->
<g id="edge14_Node000010_Node000009" class="edge">
<title>Node9&#45;&gt;Node10</title>
<g id="a_edge14_Node000010_Node000009"><a xlink:title=" ">
<path fill="none" stroke="#9a32cd" stroke-dasharray="5,2" d="M843.18,-32.49C880.38,-29.5 934.56,-25.14 971.66,-22.16"/>
<polygon fill="#9a32cd" stroke="#9a32cd" points="842.85,-29 833.16,-33.29 843.41,-35.98 842.85,-29"/>
</a>
</g>
<text text-anchor="middle" x="912" y="-32.84" font-family="Helvetica,sans-Serif" font-size="10.00" fill="grey"> clk</text>
</g>
<!-- Node10&#45;&gt;Node9 -->
<g id="edge13_Node000009_Node000010" class="edge">
<title>Node10&#45;&gt;Node9</title>
<g id="a_edge13_Node000009_Node000010"><a xlink:title=" ">
<path fill="none" stroke="#9a32cd" stroke-dasharray="5,2" d="M971.26,-7.06C945.65,-1.47 912.26,2.86 883,-2.84 860.08,-7.3 835.44,-18.22 819.33,-26.28"/>
<polygon fill="#9a32cd" stroke="#9a32cd" points="970.48,-10.47 981.02,-9.33 972.07,-3.65 970.48,-10.47"/>
</a>
</g>
<text text-anchor="middle" x="912" y="-5.84" font-family="Helvetica,sans-Serif" font-size="10.00" fill="grey"> hw</text>
</g>
<!-- Node11 -->
<g id="Node000011" class="node">
<title>Node11</title>
<g id="a_Node000011"><a xlink:href="structno__os__clk__desc.html" target="_top" xlink:title="Structure holding CLK descriptor.">
<polygon fill="white" stroke="#666666" points="607.5,-45.34 515.5,-45.34 515.5,-26.34 607.5,-26.34 607.5,-45.34"/>
<text text-anchor="middle" x="561.5" y="-33.34" font-family="Helvetica,sans-Serif" font-size="10.00">no_os_clk_desc</text>
</a>
</g>
</g>
<!-- Node11&#45;&gt;Node9 -->
<g id="edge15_Node000009_Node000011" class="edge">
<title>Node11&#45;&gt;Node9</title>
<g id="a_edge15_Node000009_Node000011"><a xlink:title=" ">
<path fill="none" stroke="#9a32cd" stroke-dasharray="5,2" d="M617.88,-35.84C664.5,-35.84 729.52,-35.84 767.8,-35.84"/>
<polygon fill="#9a32cd" stroke="#9a32cd" points="617.64,-32.34 607.64,-35.84 617.64,-39.34 617.64,-32.34"/>
</a>
</g>
<text text-anchor="middle" x="684" y="-38.84" font-family="Helvetica,sans-Serif" font-size="10.00" fill="grey"> clk_desc</text>
</g>
<!-- Node12 -->
<g id="Node000012" class="node">
<title>Node12</title>
<g id="a_Node000012"><a xlink:href="structno__os__clk__platform__ops.html" target="_top" xlink:title="Structure holding CLK function pointers that point to the platform specific function.">
<polygon fill="white" stroke="#666666" points="372,-45.34 238,-45.34 238,-26.34 372,-26.34 372,-45.34"/>
<text text-anchor="middle" x="305" y="-33.34" font-family="Helvetica,sans-Serif" font-size="10.00">no_os_clk_platform_ops</text>
</a>
</g>
</g>
<!-- Node12&#45;&gt;Node11 -->
<g id="edge16_Node000011_Node000012" class="edge">
<title>Node12&#45;&gt;Node11</title>
<g id="a_edge16_Node000011_Node000012"><a xlink:title=" ">
<path fill="none" stroke="#9a32cd" stroke-dasharray="5,2" d="M382.45,-35.84C425.84,-35.84 478.68,-35.84 515.47,-35.84"/>
<polygon fill="#9a32cd" stroke="#9a32cd" points="382.2,-32.34 372.2,-35.84 382.2,-39.34 382.2,-32.34"/>
</a>
</g>
<text text-anchor="middle" x="431.5" y="-38.84" font-family="Helvetica,sans-Serif" font-size="10.00" fill="grey"> platform_ops</text>
</g>
</g>
</svg>

<g id="navigator" transform="translate(0 0)" fill="#404254">
  <rect fill="#f2f5e9" fill-opacity="0.5" stroke="#606060" stroke-width=".5" x="0" y="0" width="60" height="60"/>
  <use id="zoomplus" xlink:href="#zoomPlus" x="17" y="9" onmousedown="handleZoom(evt,'in')"/>
  <use id="zoomminus" xlink:href="#zoomMin" x="42" y="9" onmousedown="handleZoom(evt,'out')"/>
  <use id="reset" xlink:href="#resetDef" x="30" y="36" onmousedown="handleReset()"/>
   <use id="arrowup" xlink:href="#arrowUp" x="0" y="0" onmousedown="handlePan(0,-1)"/>
  <use id="arrowright" xlink:href="#arrowRight" x="0" y="0" onmousedown="handlePan(1,0)"/>
  <use id="arrowdown" xlink:href="#arrowDown" x="0" y="0" onmousedown="handlePan(0,1)"/>
  <use id="arrowleft" xlink:href="#arrowLeft" x="0" y="0" onmousedown="handlePan(-1,0)"/>
</g>
<svg viewBox="0 0 15 15" width="100%" height="30px" preserveAspectRatio="xMaxYMin meet">
 <g id="arrow_out" transform="scale(0.3 0.3)">
  <a xlink:href="structad9083__init__param__coll__graph_org.svg" target="_base">
   <rect id="button" ry="5" rx="5" y="6" x="6" height="38" width="38"
        fill="#f2f5e9" fill-opacity="0.5" stroke="#606060" stroke-width="1.0"/>
   <path id="arrow"
     d="M 11.500037,31.436501 C 11.940474,20.09759 22.043105,11.32322 32.158766,21.979434 L 37.068811,17.246167 C 37.068811,17.246167 37.088388,32 37.088388,32 L 22.160133,31.978069 C 22.160133,31.978069 26.997745,27.140456 26.997745,27.140456 C 18.528582,18.264221 13.291696,25.230495 11.500037,31.436501 z"
     style="fill:#404040;"/>
  </a>
 </g>
</svg>

<style type='text/css'>
<![CDATA[
[data-mouse-over-selected='false'] { opacity: 0.7; }
[data-mouse-over-selected='true']  { opacity: 1.0; }
]]>
</style>
<script type="application/ecmascript"><![CDATA[
document.addEventListener('DOMContentLoaded', (event) => {
  highlightEdges();
  highlightAdjacentNodes();
});
]]></script>
</svg>
