<?xml version="1.0" encoding="UTF-8" standalone="no"?>
<!DOCTYPE svg PUBLIC "-//W3C//DTD SVG 1.1//EN"
 "http://www.w3.org/Graphics/SVG/1.1/DTD/svg11.dtd">
<!-- Generated by graphviz version 2.43.0 (0)
 -->
<!-- Title: no_os_dma_ch Pages: 1 -->
<!--zoomable 261 -->

<svg id="main" version="1.1" xmlns="http://www.w3.org/2000/svg" xmlns:xlink="http://www.w3.org/1999/xlink" xml:space="preserve" onload="init(evt)">

<style type="text/css"><![CDATA[
.node, .edge {opacity: 0.7;}
.node.selected, .edge.selected {opacity: 1;}
.edge:hover path { stroke: red; }
.edge:hover polygon { stroke: red; fill: red; }
]]></style>

<defs>
  <circle id="rim" cx="0" cy="0" r="7"/>
  <circle id="rim2" cx="0" cy="0" r="3.5"/>
  <g id="zoomPlus">
    <use xlink:href="#rim" fill="#404040"><set attributeName="fill" to="#808080" begin="zoomplus.mouseover" end="zoomplus.mouseout"/></use>
    <path d="M-4,0h8M0,-4v8" fill="none" stroke="white" stroke-width="1.5" pointer-events="none"/>
  </g>
  <g id="zoomMin">
    <use xlink:href="#rim" fill="#404040"><set attributeName="fill" to="#808080" begin="zoomminus.mouseover" end="zoomminus.mouseout"/></use>
    <path d="M-4,0h8" fill="none" stroke="white" stroke-width="1.5" pointer-events="none"/>
  </g>
  <g id="arrowUp" transform="translate(30 24)">
    <use xlink:href="#rim"/>
    <path pointer-events="none" fill="none" stroke="white" stroke-width="1.5" d="M0,-3.0v7 M-2.5,-0.5L0,-3.0L2.5,-0.5"/>
  </g>
  <g id="arrowRight" transform="rotate(90) translate(36 -43)">
    <use xlink:href="#rim"/>
    <path pointer-events="none" fill="none" stroke="white" stroke-width="1.5" d="M0,-3.0v7 M-2.5,-0.5L0,-3.0L2.5,-0.5"/>
  </g>
  <g id="arrowDown" transform="rotate(180) translate(-30 -48)">
    <use xlink:href="#rim"/>
    <path pointer-events="none" fill="none" stroke="white" stroke-width="1.5" d="M0,-3.0v7 M-2.5,-0.5L0,-3.0L2.5,-0.5"/>
  </g>
  <g id="arrowLeft" transform="rotate(270) translate(-36 17)">
    <use xlink:href="#rim"/>
    <path pointer-events="none" fill="none" stroke="white" stroke-width="1.5" d="M0,-3.0v7 M-2.5,-0.5L0,-3.0L2.5,-0.5"/>
  </g>
  <g id="resetDef">
    <use xlink:href="#rim2" fill="#404040"><set attributeName="fill" to="#808080" begin="reset.mouseover" end="reset.mouseout"/></use>
  </g>
</defs>
<script type="application/ecmascript">
var viewWidth = 596;
var viewHeight = 261;
var sectionId = 'dynsection-0';
</script>
<script type="application/ecmascript" xlink:href="svg.min.js"/>
<svg id="graph" class="graph">
<g id="viewport">
<title>no_os_dma_ch</title>
<!-- Node1 -->
<g id="Node000001" class="node">
<title>Node1</title>
<g id="a_Node000001"><a xlink:title="Describes the state of a DMA channel.">
<polygon fill="#999999" stroke="#666666" points="387.5,-151 298.5,-151 298.5,-132 387.5,-132 387.5,-151"/>
<text text-anchor="middle" x="343" y="-139" font-family="Helvetica,sans-Serif" font-size="10.00">no_os_dma_ch</text>
</a>
</g>
</g>
<!-- Node4 -->
<g id="Node000004" class="node">
<title>Node4</title>
<g id="a_Node000004"><a xlink:href="structno__os__dma__default__handler__data.html" target="_top" xlink:title="IRQ parameter for the default inter transfer handler.">
<polygon fill="white" stroke="#666666" points="428.5,-19 247.5,-19 247.5,0 428.5,0 428.5,-19"/>
<text text-anchor="middle" x="338" y="-7" font-family="Helvetica,sans-Serif" font-size="10.00">no_os_dma_default_handler_data</text>
</a>
</g>
</g>
<!-- Node1&#45;&gt;Node4 -->
<g id="edge10_Node000004_Node000001" class="edge">
<title>Node1&#45;&gt;Node4</title>
<g id="a_edge10_Node000004_Node000001"><a xlink:title=" ">
<path fill="none" stroke="#9a32cd" stroke-dasharray="5,2" d="M340.87,-121.6C339.77,-110.88 338.55,-97.21 338,-85 336.93,-61.23 337.4,-33.14 337.75,-19.22"/>
<polygon fill="#9a32cd" stroke="#9a32cd" points="337.43,-122.3 341.98,-131.86 344.39,-121.55 337.43,-122.3"/>
</a>
</g>
<text text-anchor="middle" x="359" y="-73" font-family="Helvetica,sans-Serif" font-size="10.00" fill="grey"> channel</text>
</g>
<!-- Node5 -->
<g id="Node000005" class="node">
<title>Node5</title>
<g id="a_Node000005"><a xlink:href="structno__os__dma__desc.html" target="_top" xlink:title="Describes the state of the DMA controller.">
<polygon fill="white" stroke="#666666" points="284,-85 184,-85 184,-66 284,-66 284,-85"/>
<text text-anchor="middle" x="234" y="-73" font-family="Helvetica,sans-Serif" font-size="10.00">no_os_dma_desc</text>
</a>
</g>
</g>
<!-- Node1&#45;&gt;Node5 -->
<g id="edge6_Node000005_Node000001" class="edge">
<title>Node1&#45;&gt;Node5</title>
<g id="a_edge6_Node000005_Node000001"><a xlink:title=" ">
<path fill="none" stroke="#9a32cd" stroke-dasharray="5,2" d="M306.41,-128.33C296.54,-124.38 286.08,-119.56 277,-114 263.65,-105.83 250.4,-93.46 242.21,-85.19"/>
<polygon fill="#9a32cd" stroke="#9a32cd" points="305.42,-131.7 316.01,-131.99 307.91,-125.16 305.42,-131.7"/>
</a>
</g>
<text text-anchor="middle" x="300.5" y="-106" font-family="Helvetica,sans-Serif" font-size="10.00" fill="grey"> channels</text>
</g>
<!-- Node2 -->
<g id="Node000002" class="node">
<title>Node2</title>
<g id="a_Node000002"><a xlink:href="structno__os__list__desc.html" target="_top" xlink:title="Structure storing the list and function wrapper for usual list types.">
<polygon fill="white" stroke="#666666" points="389.5,-235 296.5,-235 296.5,-216 389.5,-216 389.5,-235"/>
<text text-anchor="middle" x="343" y="-223" font-family="Helvetica,sans-Serif" font-size="10.00">no_os_list_desc</text>
</a>
</g>
</g>
<!-- Node2&#45;&gt;Node1 -->
<g id="edge1_Node000001_Node000002" class="edge">
<title>Node2&#45;&gt;Node1</title>
<g id="a_edge1_Node000001_Node000002"><a xlink:title=" ">
<path fill="none" stroke="#9a32cd" stroke-dasharray="5,2" d="M343,-205.26C343,-188.18 343,-164 343,-151.21"/>
<polygon fill="#9a32cd" stroke="#9a32cd" points="339.5,-205.72 343,-215.72 346.5,-205.72 339.5,-205.72"/>
</a>
</g>
<text text-anchor="middle" x="360.5" y="-172" font-family="Helvetica,sans-Serif" font-size="10.00" fill="grey"> sg_list</text>
</g>
<!-- Node2&#45;&gt;Node2 -->
<g id="edge2_Node000002_Node000002" class="edge">
<title>Node2&#45;&gt;Node2</title>
<g id="a_edge2_Node000002_Node000002"><a xlink:title=" ">
<path fill="none" stroke="#9a32cd" stroke-dasharray="5,2" d="M399.85,-232.74C404.57,-231.18 407.5,-228.77 407.5,-225.5 407.5,-220.28 399.99,-217.23 389.67,-216.38"/>
<polygon fill="#9a32cd" stroke="#9a32cd" points="398.87,-229.36 389.67,-234.62 400.14,-236.24 398.87,-229.36"/>
</a>
</g>
<text text-anchor="middle" x="429" y="-245" font-family="Helvetica,sans-Serif" font-size="10.00" fill="grey"> back</text>
<text text-anchor="middle" x="429" y="-234" font-family="Helvetica,sans-Serif" font-size="10.00" fill="grey">pop</text>
<text text-anchor="middle" x="429" y="-223" font-family="Helvetica,sans-Serif" font-size="10.00" fill="grey">push</text>
<text text-anchor="middle" x="429" y="-212" font-family="Helvetica,sans-Serif" font-size="10.00" fill="grey">swap</text>
<text text-anchor="middle" x="429" y="-201" font-family="Helvetica,sans-Serif" font-size="10.00" fill="grey">top_next</text>
</g>
<!-- Node3 -->
<g id="Node000003" class="node">
<title>Node3</title>
<g id="a_Node000003"><a xlink:href="structno__os__callback__desc.html" target="_top" xlink:title="Structure describing a callback to be registered.">
<polygon fill="white" stroke="#666666" points="587.5,-235 468.5,-235 468.5,-216 587.5,-216 587.5,-235"/>
<text text-anchor="middle" x="528" y="-223" font-family="Helvetica,sans-Serif" font-size="10.00">no_os_callback_desc</text>
</a>
</g>
</g>
<!-- Node3&#45;&gt;Node1 -->
<g id="edge3_Node000001_Node000003" class="edge">
<title>Node3&#45;&gt;Node1</title>
<g id="a_edge3_Node000001_Node000003"><a xlink:title=" ">
<path fill="none" stroke="#9a32cd" stroke-dasharray="5,2" d="M499.03,-211.66C460.84,-194.73 394.71,-165.42 362.19,-151"/>
<polygon fill="#9a32cd" stroke="#9a32cd" points="497.99,-215.03 508.55,-215.88 500.83,-208.63 497.99,-215.03"/>
</a>
</g>
<text text-anchor="middle" x="446.5" y="-172" font-family="Helvetica,sans-Serif" font-size="10.00" fill="grey"> cb_desc</text>
</g>
<!-- Node4&#45;&gt;Node1 -->
<g id="edge4_Node000001_Node000004" class="edge">
<title>Node4&#45;&gt;Node1</title>
<g id="a_edge4_Node000001_Node000004"><a xlink:title=" ">
<path fill="none" stroke="#9a32cd" stroke-dasharray="5,2" d="M355.91,-25.95C366.29,-36.13 378.39,-50.43 384,-66 393.11,-91.28 368.55,-118.27 353.58,-131.76"/>
<polygon fill="#9a32cd" stroke="#9a32cd" points="358.15,-23.25 348.45,-19.01 353.39,-28.38 358.15,-23.25"/>
</a>
</g>
<text text-anchor="middle" x="404.5" y="-73" font-family="Helvetica,sans-Serif" font-size="10.00" fill="grey"> irq_ctx</text>
</g>
<!-- Node5&#45;&gt;Node4 -->
<g id="edge5_Node000004_Node000005" class="edge">
<title>Node5&#45;&gt;Node4</title>
<g id="a_edge5_Node000004_Node000005"><a xlink:title=" ">
<path fill="none" stroke="#9a32cd" stroke-dasharray="5,2" d="M256.72,-60.52C277.17,-47.93 306.6,-29.82 323.86,-19.2"/>
<polygon fill="#9a32cd" stroke="#9a32cd" points="254.71,-57.65 248.03,-65.87 258.38,-63.61 254.71,-57.65"/>
</a>
</g>
<text text-anchor="middle" x="306" y="-40" font-family="Helvetica,sans-Serif" font-size="10.00" fill="grey"> desc</text>
</g>
<!-- Node6 -->
<g id="Node000006" class="node">
<title>Node6</title>
<g id="a_Node000006"><a xlink:href="structno__os__dma__platform__ops.html" target="_top" xlink:title=" ">
<polygon fill="white" stroke="#666666" points="142,-151 0,-151 0,-132 142,-132 142,-151"/>
<text text-anchor="middle" x="71" y="-139" font-family="Helvetica,sans-Serif" font-size="10.00">no_os_dma_platform_ops</text>
</a>
</g>
</g>
<!-- Node6&#45;&gt;Node5 -->
<g id="edge7_Node000005_Node000006" class="edge">
<title>Node6&#45;&gt;Node5</title>
<g id="a_edge7_Node000005_Node000006"><a xlink:title=" ">
<path fill="none" stroke="#9a32cd" stroke-dasharray="5,2" d="M94.68,-126.9C108.71,-119.2 127.02,-109.79 144,-103 161.85,-95.86 182.36,-89.67 199.29,-85.08"/>
<polygon fill="#9a32cd" stroke="#9a32cd" points="92.74,-123.97 85.71,-131.9 96.15,-130.08 92.74,-123.97"/>
</a>
</g>
<text text-anchor="middle" x="178" y="-106" font-family="Helvetica,sans-Serif" font-size="10.00" fill="grey"> platform_ops</text>
</g>
<!-- Node7 -->
<g id="Node000007" class="node">
<title>Node7</title>
<g id="a_Node000007"><a xlink:href="structno__os__irq__ctrl__desc.html" target="_top" xlink:title=" ">
<polygon fill="white" stroke="#666666" points="272,-151 160,-151 160,-132 272,-132 272,-151"/>
<text text-anchor="middle" x="216" y="-139" font-family="Helvetica,sans-Serif" font-size="10.00">no_os_irq_ctrl_desc</text>
</a>
</g>
</g>
<!-- Node7&#45;&gt;Node5 -->
<g id="edge8_Node000005_Node000007" class="edge">
<title>Node7&#45;&gt;Node5</title>
<g id="a_edge8_Node000005_Node000007"><a xlink:title=" ">
<path fill="none" stroke="#9a32cd" stroke-dasharray="5,2" d="M214.53,-121.92C214.56,-115.78 215.16,-108.99 217,-103 218.99,-96.52 223.04,-90.1 226.69,-85.2"/>
<polygon fill="#9a32cd" stroke="#9a32cd" points="211.03,-122.1 214.94,-131.95 218.03,-121.81 211.03,-122.1"/>
</a>
</g>
<text text-anchor="middle" x="235.5" y="-106" font-family="Helvetica,sans-Serif" font-size="10.00" fill="grey"> irq_ctrl</text>
</g>
<!-- Node8 -->
<g id="Node000008" class="node">
<title>Node8</title>
<g id="a_Node000008"><a xlink:href="structno__os__irq__platform__ops.html" target="_top" xlink:title="Structure holding IRQ function pointers that point to the platform specific function.">
<polygon fill="white" stroke="#666666" points="278.5,-235 145.5,-235 145.5,-216 278.5,-216 278.5,-235"/>
<text text-anchor="middle" x="212" y="-223" font-family="Helvetica,sans-Serif" font-size="10.00">no_os_irq_platform_ops</text>
</a>
</g>
</g>
<!-- Node8&#45;&gt;Node7 -->
<g id="edge9_Node000007_Node000008" class="edge">
<title>Node8&#45;&gt;Node7</title>
<g id="a_edge9_Node000007_Node000008"><a xlink:title=" ">
<path fill="none" stroke="#9a32cd" stroke-dasharray="5,2" d="M212.94,-205.26C213.77,-188.18 214.95,-164 215.58,-151.21"/>
<polygon fill="#9a32cd" stroke="#9a32cd" points="209.42,-205.57 212.43,-215.72 216.41,-205.91 209.42,-205.57"/>
</a>
</g>
<text text-anchor="middle" x="249" y="-172" font-family="Helvetica,sans-Serif" font-size="10.00" fill="grey"> platform_ops</text>
</g>
</g>
</svg>

<g id="navigator" transform="translate(0 0)" fill="#404254">
  <rect fill="#f2f5e9" fill-opacity="0.5" stroke="#606060" stroke-width=".5" x="0" y="0" width="60" height="60"/>
  <use id="zoomplus" xlink:href="#zoomPlus" x="17" y="9" onmousedown="handleZoom(evt,'in')"/>
  <use id="zoomminus" xlink:href="#zoomMin" x="42" y="9" onmousedown="handleZoom(evt,'out')"/>
  <use id="reset" xlink:href="#resetDef" x="30" y="36" onmousedown="handleReset()"/>
   <use id="arrowup" xlink:href="#arrowUp" x="0" y="0" onmousedown="handlePan(0,-1)"/>
  <use id="arrowright" xlink:href="#arrowRight" x="0" y="0" onmousedown="handlePan(1,0)"/>
  <use id="arrowdown" xlink:href="#arrowDown" x="0" y="0" onmousedown="handlePan(0,1)"/>
  <use id="arrowleft" xlink:href="#arrowLeft" x="0" y="0" onmousedown="handlePan(-1,0)"/>
</g>
<svg viewBox="0 0 15 15" width="100%" height="30px" preserveAspectRatio="xMaxYMin meet">
 <g id="arrow_out" transform="scale(0.3 0.3)">
  <a xlink:href="structno__os__dma__ch__coll__graph_org.svg" target="_base">
   <rect id="button" ry="5" rx="5" y="6" x="6" height="38" width="38"
        fill="#f2f5e9" fill-opacity="0.5" stroke="#606060" stroke-width="1.0"/>
   <path id="arrow"
     d="M 11.500037,31.436501 C 11.940474,20.09759 22.043105,11.32322 32.158766,21.979434 L 37.068811,17.246167 C 37.068811,17.246167 37.088388,32 37.088388,32 L 22.160133,31.978069 C 22.160133,31.978069 26.997745,27.140456 26.997745,27.140456 C 18.528582,18.264221 13.291696,25.230495 11.500037,31.436501 z"
     style="fill:#404040;"/>
  </a>
 </g>
</svg>

<style type='text/css'>
<![CDATA[
[data-mouse-over-selected='false'] { opacity: 0.7; }
[data-mouse-over-selected='true']  { opacity: 1.0; }
]]>
</style>
<script type="application/ecmascript"><![CDATA[
document.addEventListener('DOMContentLoaded', (event) => {
  highlightEdges();
  highlightAdjacentNodes();
});
]]></script>
</svg>
