<?xml version="1.0" encoding="UTF-8" standalone="no"?>
<!DOCTYPE svg PUBLIC "-//W3C//DTD SVG 1.1//EN"
 "http://www.w3.org/Graphics/SVG/1.1/DTD/svg11.dtd">
<!-- Generated by graphviz version 2.43.0 (0)
 -->
<!-- Title: projects/swiot1l/src/common/swiot.c Pages: 1 -->
<!--zoomable 423 -->

<svg id="main" version="1.1" xmlns="http://www.w3.org/2000/svg" xmlns:xlink="http://www.w3.org/1999/xlink" xml:space="preserve" onload="init(evt)">

<style type="text/css"><![CDATA[
.node, .edge {opacity: 0.7;}
.node.selected, .edge.selected {opacity: 1;}
.edge:hover path { stroke: red; }
.edge:hover polygon { stroke: red; fill: red; }
]]></style>

<defs>
  <circle id="rim" cx="0" cy="0" r="7"/>
  <circle id="rim2" cx="0" cy="0" r="3.5"/>
  <g id="zoomPlus">
    <use xlink:href="#rim" fill="#404040"><set attributeName="fill" to="#808080" begin="zoomplus.mouseover" end="zoomplus.mouseout"/></use>
    <path d="M-4,0h8M0,-4v8" fill="none" stroke="white" stroke-width="1.5" pointer-events="none"/>
  </g>
  <g id="zoomMin">
    <use xlink:href="#rim" fill="#404040"><set attributeName="fill" to="#808080" begin="zoomminus.mouseover" end="zoomminus.mouseout"/></use>
    <path d="M-4,0h8" fill="none" stroke="white" stroke-width="1.5" pointer-events="none"/>
  </g>
  <g id="arrowUp" transform="translate(30 24)">
    <use xlink:href="#rim"/>
    <path pointer-events="none" fill="none" stroke="white" stroke-width="1.5" d="M0,-3.0v7 M-2.5,-0.5L0,-3.0L2.5,-0.5"/>
  </g>
  <g id="arrowRight" transform="rotate(90) translate(36 -43)">
    <use xlink:href="#rim"/>
    <path pointer-events="none" fill="none" stroke="white" stroke-width="1.5" d="M0,-3.0v7 M-2.5,-0.5L0,-3.0L2.5,-0.5"/>
  </g>
  <g id="arrowDown" transform="rotate(180) translate(-30 -48)">
    <use xlink:href="#rim"/>
    <path pointer-events="none" fill="none" stroke="white" stroke-width="1.5" d="M0,-3.0v7 M-2.5,-0.5L0,-3.0L2.5,-0.5"/>
  </g>
  <g id="arrowLeft" transform="rotate(270) translate(-36 17)">
    <use xlink:href="#rim"/>
    <path pointer-events="none" fill="none" stroke="white" stroke-width="1.5" d="M0,-3.0v7 M-2.5,-0.5L0,-3.0L2.5,-0.5"/>
  </g>
  <g id="resetDef">
    <use xlink:href="#rim2" fill="#404040"><set attributeName="fill" to="#808080" begin="reset.mouseover" end="reset.mouseout"/></use>
  </g>
</defs>
<script type="application/ecmascript">
var viewWidth = 1278;
var viewHeight = 423;
var sectionId = 'dynsection-0';
</script>
<script type="application/ecmascript" xlink:href="svg.min.js"/>
<svg id="graph" class="graph">
<g id="viewport">
<title>projects/swiot1l/src/common/swiot.c</title>
<!-- Node1 -->
<g id="Node000001" class="node">
<title>Node1</title>
<g id="a_Node000001"><a xlink:title="Source file for the swiot IIO driver.">
<polygon fill="#999999" stroke="#666666" points="681.5,-415 570.5,-415 570.5,-385 681.5,-385 681.5,-415"/>
<text text-anchor="start" x="578.5" y="-403" font-family="Helvetica,sans-Serif" font-size="10.00">projects/swiot1l/src</text>
<text text-anchor="middle" x="626" y="-392" font-family="Helvetica,sans-Serif" font-size="10.00">/common/swiot.c</text>
</a>
</g>
</g>
<!-- Node2 -->
<g id="Node000002" class="node">
<title>Node2</title>
<g id="a_Node000002"><a xlink:title=" ">
<polygon fill="#e0e0e0" stroke="#999999" points="160.5,-19 107.5,-19 107.5,0 160.5,0 160.5,-19"/>
<text text-anchor="middle" x="134" y="-7" font-family="Helvetica,sans-Serif" font-size="10.00">stdlib.h</text>
</a>
</g>
</g>
<!-- Node1&#45;&gt;Node2 -->
<g id="edge1_Node000001_Node000002" class="edge">
<title>Node1&#45;&gt;Node2</title>
<g id="a_edge1_Node000001_Node000002"><a xlink:title=" ">
<path fill="none" stroke="#63b8ff" d="M570.38,-399.58C477.69,-399.19 286.53,-392.54 132,-349 69.34,-331.35 0,-350.6 0,-285.5 0,-285.5 0,-285.5 0,-118.5 0,-68.12 58.12,-37.26 97.81,-22.05"/>
<polygon fill="#63b8ff" stroke="#63b8ff" points="99.02,-25.34 107.21,-18.61 96.61,-18.77 99.02,-25.34"/>
</a>
</g>
</g>
<!-- Node3 -->
<g id="Node000003" class="node">
<title>Node3</title>
<g id="a_Node000003"><a xlink:title=" ">
<polygon fill="#e0e0e0" stroke="#999999" points="337,-19 275,-19 275,0 337,0 337,-19"/>
<text text-anchor="middle" x="306" y="-7" font-family="Helvetica,sans-Serif" font-size="10.00">stdbool.h</text>
</a>
</g>
</g>
<!-- Node1&#45;&gt;Node3 -->
<g id="edge2_Node000001_Node000003" class="edge">
<title>Node1&#45;&gt;Node3</title>
<g id="a_edge2_Node000001_Node000003"><a xlink:title=" ">
<path fill="none" stroke="#63b8ff" d="M570.42,-394.1C423.84,-380.45 38,-339.4 38,-285.5 38,-285.5 38,-285.5 38,-173.5 38,-68.57 189.83,-29.25 264.93,-16.22"/>
<polygon fill="#63b8ff" stroke="#63b8ff" points="265.7,-19.64 275,-14.56 264.56,-12.74 265.7,-19.64"/>
</a>
</g>
</g>
<!-- Node4 -->
<g id="Node000004" class="node">
<title>Node4</title>
<g id="a_Node000004"><a xlink:href="errno_8h.html" target="_top" xlink:title="Error macro definition for ARM Compiler.">
<polygon fill="white" stroke="#666666" points="349.5,-349 298.5,-349 298.5,-330 349.5,-330 349.5,-349"/>
<text text-anchor="middle" x="324" y="-337" font-family="Helvetica,sans-Serif" font-size="10.00">errno.h</text>
</a>
</g>
</g>
<!-- Node1&#45;&gt;Node4 -->
<g id="edge3_Node000001_Node000004" class="edge">
<title>Node1&#45;&gt;Node4</title>
<g id="a_edge3_Node000001_Node000004"><a xlink:title=" ">
<path fill="none" stroke="#63b8ff" d="M570.34,-389.47C518.43,-380.37 438.61,-365.88 359.7,-349.05"/>
<polygon fill="#63b8ff" stroke="#63b8ff" points="360.09,-345.55 349.58,-346.88 358.62,-352.4 360.09,-345.55"/>
</a>
</g>
</g>
<!-- Node5 -->
<g id="Node000005" class="node">
<title>Node5</title>
<g id="a_Node000005"><a xlink:title=" ">
<polygon fill="#e0e0e0" stroke="#999999" points="420.5,-349 367.5,-349 367.5,-330 420.5,-330 420.5,-349"/>
<text text-anchor="middle" x="394" y="-337" font-family="Helvetica,sans-Serif" font-size="10.00">string.h</text>
</a>
</g>
</g>
<!-- Node1&#45;&gt;Node5 -->
<g id="edge4_Node000001_Node000005" class="edge">
<title>Node1&#45;&gt;Node5</title>
<g id="a_edge4_Node000001_Node000005"><a xlink:title=" ">
<path fill="none" stroke="#63b8ff" d="M570.43,-384.99C527.18,-374.08 468.37,-359.25 430.79,-349.78"/>
<polygon fill="#63b8ff" stroke="#63b8ff" points="431.34,-346.31 420.79,-347.25 429.63,-353.09 431.34,-346.31"/>
</a>
</g>
</g>
<!-- Node6 -->
<g id="Node000006" class="node">
<title>Node6</title>
<g id="a_Node000006"><a xlink:title=" ">
<polygon fill="#e0e0e0" stroke="#999999" points="154,-294 104,-294 104,-275 154,-275 154,-294"/>
<text text-anchor="middle" x="129" y="-282" font-family="Helvetica,sans-Serif" font-size="10.00">stdio.h</text>
</a>
</g>
</g>
<!-- Node1&#45;&gt;Node6 -->
<g id="edge5_Node000001_Node000006" class="edge">
<title>Node1&#45;&gt;Node6</title>
<g id="a_edge5_Node000001_Node000006"><a xlink:title=" ">
<path fill="none" stroke="#63b8ff" d="M611.7,-384.75C594.29,-368.4 563.2,-342.25 531,-330 379.47,-272.36 328.14,-319.3 168,-294 166.73,-293.8 165.44,-293.58 164.14,-293.35"/>
<polygon fill="#63b8ff" stroke="#63b8ff" points="164.58,-289.87 154.09,-291.42 163.25,-296.75 164.58,-289.87"/>
</a>
</g>
</g>
<!-- Node7 -->
<g id="Node000007" class="node">
<title>Node7</title>
<g id="a_Node000007"><a xlink:href="iio_8h.html" target="_top" xlink:title="Header file of iio.">
<polygon fill="white" stroke="#666666" points="882,-184 844,-184 844,-165 882,-165 882,-184"/>
<text text-anchor="middle" x="863" y="-172" font-family="Helvetica,sans-Serif" font-size="10.00">iio.h</text>
</a>
</g>
</g>
<!-- Node1&#45;&gt;Node7 -->
<g id="edge6_Node000001_Node000007" class="edge">
<title>Node1&#45;&gt;Node7</title>
<g id="a_edge6_Node000001_Node000007"><a xlink:title=" ">
<path fill="none" stroke="#63b8ff" d="M658.71,-384.91C695.14,-367.85 753.9,-336.09 792,-294 820.45,-262.57 843.46,-218.05 854.98,-193.5"/>
<polygon fill="#63b8ff" stroke="#63b8ff" points="858.21,-194.85 859.2,-184.3 851.85,-191.93 858.21,-194.85"/>
</a>
</g>
</g>
<!-- Node13 -->
<g id="Node000013" class="node">
<title>Node13</title>
<g id="a_Node000013"><a xlink:href="swiot_8h.html" target="_top" xlink:title="Header file for the swiot IIO device.">
<polygon fill="white" stroke="#666666" points="709,-349 657,-349 657,-330 709,-330 709,-349"/>
<text text-anchor="middle" x="683" y="-337" font-family="Helvetica,sans-Serif" font-size="10.00">swiot.h</text>
</a>
</g>
</g>
<!-- Node1&#45;&gt;Node13 -->
<g id="edge19_Node000001_Node000013" class="edge">
<title>Node1&#45;&gt;Node13</title>
<g id="a_edge19_Node000001_Node000013"><a xlink:title=" ">
<path fill="none" stroke="#63b8ff" d="M639.8,-384.84C648.07,-376.35 658.62,-365.52 667.23,-356.69"/>
<polygon fill="#63b8ff" stroke="#63b8ff" points="669.99,-358.87 674.46,-349.27 664.97,-353.99 669.99,-358.87"/>
</a>
</g>
</g>
<!-- Node14 -->
<g id="Node000014" class="node">
<title>Node14</title>
<g id="a_Node000014"><a xlink:href="no__os__gpio_8h.html" target="_top" xlink:title="Header file of GPIO Interface.">
<polygon fill="white" stroke="#666666" points="868,-74 788,-74 788,-55 868,-55 868,-74"/>
<text text-anchor="middle" x="828" y="-62" font-family="Helvetica,sans-Serif" font-size="10.00">no_os_gpio.h</text>
</a>
</g>
</g>
<!-- Node1&#45;&gt;Node14 -->
<g id="edge66_Node000001_Node000014" class="edge">
<title>Node1&#45;&gt;Node14</title>
<g id="a_edge66_Node000001_Node000014"><a xlink:title=" ">
<path fill="none" stroke="#63b8ff" d="M681.72,-395.25C793.82,-386.17 1036,-358.16 1036,-285.5 1036,-285.5 1036,-285.5 1036,-173.5 1036,-135.58 1011.07,-130.24 979,-110 948.37,-90.67 908.99,-79.43 878.12,-73.08"/>
<polygon fill="#63b8ff" stroke="#63b8ff" points="878.49,-69.59 868.01,-71.11 877.16,-76.46 878.49,-69.59"/>
</a>
</g>
</g>
<!-- Node17 -->
<g id="Node000017" class="node">
<title>Node17</title>
<g id="a_Node000017"><a xlink:href="iio__ad74413r_8h.html" target="_top" xlink:title="Header file of the IIO AD74413r Driver.">
<polygon fill="white" stroke="#666666" points="932,-294 844,-294 844,-275 932,-275 932,-294"/>
<text text-anchor="middle" x="888" y="-282" font-family="Helvetica,sans-Serif" font-size="10.00">iio_ad74413r.h</text>
</a>
</g>
</g>
<!-- Node1&#45;&gt;Node17 -->
<g id="edge72_Node000001_Node000017" class="edge">
<title>Node1&#45;&gt;Node17</title>
<g id="a_edge72_Node000001_Node000017"><a xlink:title=" ">
<path fill="none" stroke="#63b8ff" d="M681.71,-394.23C724.71,-388.52 784.37,-376.07 830,-349 849.38,-337.5 866.07,-317.49 876.5,-303"/>
<polygon fill="#63b8ff" stroke="#63b8ff" points="879.63,-304.64 882.42,-294.42 873.86,-300.66 879.63,-304.64"/>
</a>
</g>
</g>
<!-- Node23 -->
<g id="Node000023" class="node">
<title>Node23</title>
<g id="a_Node000023"><a xlink:href="iio__max14906_8h.html" target="_top" xlink:title="Header file of MAX14906 IIO Driver.">
<polygon fill="white" stroke="#666666" points="635.5,-239 540.5,-239 540.5,-220 635.5,-220 635.5,-239"/>
<text text-anchor="middle" x="588" y="-227" font-family="Helvetica,sans-Serif" font-size="10.00">iio_max14906.h</text>
</a>
</g>
</g>
<!-- Node1&#45;&gt;Node23 -->
<g id="edge73_Node000001_Node000023" class="edge">
<title>Node1&#45;&gt;Node23</title>
<g id="a_edge73_Node000001_Node000023"><a xlink:title=" ">
<path fill="none" stroke="#63b8ff" d="M622.83,-384.92C616,-354.65 599.92,-283.35 592.23,-249.27"/>
<polygon fill="#63b8ff" stroke="#63b8ff" points="595.59,-248.24 589.97,-239.25 588.76,-249.78 595.59,-248.24"/>
</a>
</g>
</g>
<!-- Node26 -->
<g id="Node000026" class="node">
<title>Node26</title>
<g id="a_Node000026"><a xlink:href="no__os__delay_8h.html" target="_top" xlink:title="Header file of Delay functions.">
<polygon fill="white" stroke="#666666" points="1230.5,-294 1145.5,-294 1145.5,-275 1230.5,-275 1230.5,-294"/>
<text text-anchor="middle" x="1188" y="-282" font-family="Helvetica,sans-Serif" font-size="10.00">no_os_delay.h</text>
</a>
</g>
</g>
<!-- Node1&#45;&gt;Node26 -->
<g id="edge67_Node000001_Node000026" class="edge">
<title>Node1&#45;&gt;Node26</title>
<g id="a_edge67_Node000001_Node000026"><a xlink:title=" ">
<path fill="none" stroke="#63b8ff" d="M681.62,-397.96C763.69,-395.21 921.39,-385.19 1050,-349 1055.73,-347.39 1122.12,-316.42 1160.69,-298.33"/>
<polygon fill="#63b8ff" stroke="#63b8ff" points="1162.27,-301.46 1169.84,-294.04 1159.3,-295.12 1162.27,-301.46"/>
</a>
</g>
</g>
<!-- Node27 -->
<g id="Node000027" class="node">
<title>Node27</title>
<g id="a_Node000027"><a xlink:href="no__os__alloc_8h.html" target="_top" xlink:title=" ">
<polygon fill="white" stroke="#666666" points="521.5,-349 438.5,-349 438.5,-330 521.5,-330 521.5,-349"/>
<text text-anchor="middle" x="480" y="-337" font-family="Helvetica,sans-Serif" font-size="10.00">no_os_alloc.h</text>
</a>
</g>
</g>
<!-- Node1&#45;&gt;Node27 -->
<g id="edge69_Node000001_Node000027" class="edge">
<title>Node1&#45;&gt;Node27</title>
<g id="a_edge69_Node000001_Node000027"><a xlink:title=" ">
<path fill="none" stroke="#63b8ff" d="M591.03,-384.99C566.67,-375.23 534.47,-362.33 511.03,-352.93"/>
<polygon fill="#63b8ff" stroke="#63b8ff" points="512.15,-349.61 501.56,-349.14 509.54,-356.11 512.15,-349.61"/>
</a>
</g>
</g>
<!-- Node28 -->
<g id="Node000028" class="node">
<title>Node28</title>
<g id="a_Node000028"><a xlink:title=" ">
<polygon fill="#e0e0e0" stroke="#999999" points="1139.5,-349 1102.5,-349 1102.5,-330 1139.5,-330 1139.5,-349"/>
<text text-anchor="middle" x="1121" y="-337" font-family="Helvetica,sans-Serif" font-size="10.00">flc.h</text>
</a>
</g>
</g>
<!-- Node1&#45;&gt;Node28 -->
<g id="edge74_Node000001_Node000028" class="edge">
<title>Node1&#45;&gt;Node28</title>
<g id="a_edge74_Node000001_Node000028"><a xlink:title=" ">
<path fill="none" stroke="#63b8ff" d="M681.84,-395.57C769.08,-389.62 942.75,-375.42 1088,-349 1089.46,-348.74 1090.94,-348.44 1092.44,-348.13"/>
<polygon fill="#63b8ff" stroke="#63b8ff" points="1093.32,-351.51 1102.26,-345.83 1091.72,-344.7 1093.32,-351.51"/>
</a>
</g>
</g>
<!-- Node29 -->
<g id="Node000029" class="node">
<title>Node29</title>
<g id="a_Node000029"><a xlink:title=" ">
<polygon fill="#e0e0e0" stroke="#999999" points="1226,-349 1158,-349 1158,-330 1226,-330 1226,-349"/>
<text text-anchor="middle" x="1192" y="-337" font-family="Helvetica,sans-Serif" font-size="10.00">mxc_sys.h</text>
</a>
</g>
</g>
<!-- Node1&#45;&gt;Node29 -->
<g id="edge75_Node000001_Node000029" class="edge">
<title>Node1&#45;&gt;Node29</title>
<g id="a_edge75_Node000001_Node000029"><a xlink:title=" ">
<path fill="none" stroke="#63b8ff" d="M681.57,-395.52C775.56,-389.23 972.08,-374.35 1147.84,-349.03"/>
<polygon fill="#63b8ff" stroke="#63b8ff" points="1148.39,-352.49 1157.79,-347.58 1147.39,-345.56 1148.39,-352.49"/>
</a>
</g>
</g>
<!-- Node8 -->
<g id="Node000008" class="node">
<title>Node8</title>
<g id="a_Node000008"><a xlink:href="iio__types_8h.html" target="_top" xlink:title="Header file for iio_types.">
<polygon fill="white" stroke="#666666" points="1134,-129 1064,-129 1064,-110 1134,-110 1134,-129"/>
<text text-anchor="middle" x="1099" y="-117" font-family="Helvetica,sans-Serif" font-size="10.00">iio_types.h</text>
</a>
</g>
</g>
<!-- Node7&#45;&gt;Node8 -->
<g id="edge7_Node000007_Node000008" class="edge">
<title>Node7&#45;&gt;Node8</title>
<g id="a_edge7_Node000007_Node000008"><a xlink:title=" ">
<path fill="none" stroke="#63b8ff" d="M882.31,-169.16C919.57,-160.8 1002.25,-142.23 1054.02,-130.6"/>
<polygon fill="#63b8ff" stroke="#63b8ff" points="1054.96,-133.98 1063.95,-128.37 1053.42,-127.15 1054.96,-133.98"/>
</a>
</g>
</g>
<!-- Node11 -->
<g id="Node000011" class="node">
<title>Node11</title>
<g id="a_Node000011"><a xlink:href="no__os__uart_8h.html" target="_top" xlink:title="Header file of UART interface.">
<polygon fill="white" stroke="#666666" points="377.5,-129 298.5,-129 298.5,-110 377.5,-110 377.5,-129"/>
<text text-anchor="middle" x="338" y="-117" font-family="Helvetica,sans-Serif" font-size="10.00">no_os_uart.h</text>
</a>
</g>
</g>
<!-- Node7&#45;&gt;Node11 -->
<g id="edge12_Node000007_Node000011" class="edge">
<title>Node7&#45;&gt;Node11</title>
<g id="a_edge12_Node000007_Node000011"><a xlink:title=" ">
<path fill="none" stroke="#63b8ff" d="M843.69,-171.55C769.33,-164.04 500.06,-136.86 387.74,-125.52"/>
<polygon fill="#63b8ff" stroke="#63b8ff" points="387.99,-122.03 377.69,-124.51 387.29,-128.99 387.99,-122.03"/>
</a>
</g>
</g>
<!-- Node8&#45;&gt;Node3 -->
<g id="edge8_Node000008_Node000003" class="edge">
<title>Node8&#45;&gt;Node3</title>
<g id="a_edge8_Node000008_Node000003"><a xlink:title=" ">
<path fill="none" stroke="#63b8ff" d="M1078.26,-109.96C1042.96,-95.83 968.64,-67.89 903,-55 697.1,-14.58 444.65,-10.24 347.14,-10.21"/>
<polygon fill="#63b8ff" stroke="#63b8ff" points="347.1,-6.71 337.11,-10.22 347.11,-13.71 347.1,-6.71"/>
</a>
</g>
</g>
<!-- Node9 -->
<g id="Node000009" class="node">
<title>Node9</title>
<g id="a_Node000009"><a xlink:title=" ">
<polygon fill="#e0e0e0" stroke="#999999" points="806.5,-19 753.5,-19 753.5,0 806.5,0 806.5,-19"/>
<text text-anchor="middle" x="780" y="-7" font-family="Helvetica,sans-Serif" font-size="10.00">stdint.h</text>
</a>
</g>
</g>
<!-- Node8&#45;&gt;Node9 -->
<g id="edge9_Node000008_Node000009" class="edge">
<title>Node8&#45;&gt;Node9</title>
<g id="a_edge9_Node000008_Node000009"><a xlink:title=" ">
<path fill="none" stroke="#63b8ff" d="M1091.68,-109.89C1079.28,-95.94 1052.69,-68.56 1024,-55 955.63,-22.69 866.24,-13.77 816.84,-11.35"/>
<polygon fill="#63b8ff" stroke="#63b8ff" points="816.78,-7.84 806.64,-10.92 816.48,-14.84 816.78,-7.84"/>
</a>
</g>
</g>
<!-- Node10 -->
<g id="Node000010" class="node">
<title>Node10</title>
<g id="a_Node000010"><a xlink:href="no__os__circular__buffer_8h.html" target="_top" xlink:title="Circular buffer library header.">
<polygon fill="white" stroke="#666666" points="1204,-74 1076,-74 1076,-55 1204,-55 1204,-74"/>
<text text-anchor="middle" x="1140" y="-62" font-family="Helvetica,sans-Serif" font-size="10.00">no_os_circular_buffer.h</text>
</a>
</g>
</g>
<!-- Node8&#45;&gt;Node10 -->
<g id="edge10_Node000008_Node000010" class="edge">
<title>Node8&#45;&gt;Node10</title>
<g id="a_edge10_Node000008_Node000010"><a xlink:title=" ">
<path fill="none" stroke="#63b8ff" d="M1105.77,-109.75C1111.56,-102.26 1120.06,-91.28 1127.14,-82.13"/>
<polygon fill="#63b8ff" stroke="#63b8ff" points="1130.01,-84.14 1133.36,-74.09 1124.47,-79.86 1130.01,-84.14"/>
</a>
</g>
</g>
<!-- Node10&#45;&gt;Node9 -->
<g id="edge11_Node000010_Node000009" class="edge">
<title>Node10&#45;&gt;Node9</title>
<g id="a_edge11_Node000010_Node000009"><a xlink:title=" ">
<path fill="none" stroke="#63b8ff" d="M1082.16,-54.98C1007.38,-43.98 879.34,-25.13 816.7,-15.9"/>
<polygon fill="#63b8ff" stroke="#63b8ff" points="816.91,-12.4 806.5,-14.4 815.89,-19.32 816.91,-12.4"/>
</a>
</g>
</g>
<!-- Node11&#45;&gt;Node3 -->
<g id="edge14_Node000011_Node000003" class="edge">
<title>Node11&#45;&gt;Node3</title>
<g id="a_edge14_Node000011_Node000003"><a xlink:title=" ">
<path fill="none" stroke="#63b8ff" d="M346.64,-109.72C357.74,-97.33 374.51,-74.09 365,-55 358.43,-41.82 345.9,-31.52 334.07,-24.16"/>
<polygon fill="#63b8ff" stroke="#63b8ff" points="335.68,-21.05 325.27,-19.1 332.2,-27.12 335.68,-21.05"/>
</a>
</g>
</g>
<!-- Node11&#45;&gt;Node9 -->
<g id="edge13_Node000011_Node000009" class="edge">
<title>Node11&#45;&gt;Node9</title>
<g id="a_edge13_Node000011_Node000009"><a xlink:title=" ">
<path fill="none" stroke="#63b8ff" d="M349.23,-109.81C368.07,-95.73 407.75,-68.19 446,-55 549.51,-19.31 680.21,-12.02 743,-10.68"/>
<polygon fill="#63b8ff" stroke="#63b8ff" points="743.26,-14.18 753.2,-10.5 743.14,-7.18 743.26,-14.18"/>
</a>
</g>
</g>
<!-- Node12 -->
<g id="Node000012" class="node">
<title>Node12</title>
<g id="a_Node000012"><a xlink:href="no__os__lf256fifo_8h.html" target="_top" xlink:title="SPSC lock&#45;free fifo of fixed size (256), specialized for UART.">
<polygon fill="white" stroke="#666666" points="356,-74 256,-74 256,-55 356,-55 356,-74"/>
<text text-anchor="middle" x="306" y="-62" font-family="Helvetica,sans-Serif" font-size="10.00">no_os_lf256fifo.h</text>
</a>
</g>
</g>
<!-- Node11&#45;&gt;Node12 -->
<g id="edge15_Node000011_Node000012" class="edge">
<title>Node11&#45;&gt;Node12</title>
<g id="a_edge15_Node000011_Node000012"><a xlink:title=" ">
<path fill="none" stroke="#63b8ff" d="M332.72,-109.75C328.29,-102.42 321.84,-91.73 316.38,-82.7"/>
<polygon fill="#63b8ff" stroke="#63b8ff" points="319.35,-80.84 311.19,-74.09 313.36,-84.46 319.35,-80.84"/>
</a>
</g>
</g>
<!-- Node12&#45;&gt;Node2 -->
<g id="edge16_Node000012_Node000002" class="edge">
<title>Node12&#45;&gt;Node2</title>
<g id="a_edge16_Node000012_Node000002"><a xlink:title=" ">
<path fill="none" stroke="#63b8ff" d="M278.37,-54.98C249.15,-45.98 202.91,-31.73 170.66,-21.8"/>
<polygon fill="#63b8ff" stroke="#63b8ff" points="171.3,-18.33 160.72,-18.73 169.24,-25.02 171.3,-18.33"/>
</a>
</g>
</g>
<!-- Node12&#45;&gt;Node3 -->
<g id="edge18_Node000012_Node000003" class="edge">
<title>Node12&#45;&gt;Node3</title>
<g id="a_edge18_Node000012_Node000003"><a xlink:title=" ">
<path fill="none" stroke="#63b8ff" d="M306,-54.75C306,-47.8 306,-37.85 306,-29.13"/>
<polygon fill="#63b8ff" stroke="#63b8ff" points="309.5,-29.09 306,-19.09 302.5,-29.09 309.5,-29.09"/>
</a>
</g>
</g>
<!-- Node12&#45;&gt;Node9 -->
<g id="edge17_Node000012_Node000009" class="edge">
<title>Node12&#45;&gt;Node9</title>
<g id="a_edge17_Node000012_Node000009"><a xlink:title=" ">
<path fill="none" stroke="#63b8ff" d="M356.28,-57.88C452.13,-47.16 658.95,-24.04 743.18,-14.62"/>
<polygon fill="#63b8ff" stroke="#63b8ff" points="743.74,-18.08 753.29,-13.49 742.97,-11.12 743.74,-18.08"/>
</a>
</g>
</g>
<!-- Node13&#45;&gt;Node3 -->
<g id="edge20_Node000013_Node000003" class="edge">
<title>Node13&#45;&gt;Node3</title>
<g id="a_edge20_Node000013_Node000003"><a xlink:title=" ">
<path fill="none" stroke="#63b8ff" d="M656.96,-332.26C560.91,-308.62 229.8,-221.16 185,-129 178.58,-115.79 168.9,-79.11 186,-55 203.84,-29.85 237.6,-18.89 264.78,-14.13"/>
<polygon fill="#63b8ff" stroke="#63b8ff" points="265.47,-17.56 274.83,-12.59 264.41,-10.64 265.47,-17.56"/>
</a>
</g>
</g>
<!-- Node13&#45;&gt;Node14 -->
<g id="edge21_Node000013_Node000014" class="edge">
<title>Node13&#45;&gt;Node14</title>
<g id="a_edge21_Node000013_Node000014"><a xlink:title=" ">
<path fill="none" stroke="#63b8ff" d="M691.78,-329.96C718.47,-303.31 798.55,-218.14 827,-129 831.62,-114.54 831.56,-97.27 830.51,-84.39"/>
<polygon fill="#63b8ff" stroke="#63b8ff" points="833.99,-83.95 829.44,-74.39 827.03,-84.7 833.99,-83.95"/>
</a>
</g>
</g>
<!-- Node15 -->
<g id="Node000015" class="node">
<title>Node15</title>
<g id="a_Node000015"><a xlink:href="ad74413r_8h.html" target="_top" xlink:title="Header file of AD74413r Driver.">
<polygon fill="white" stroke="#666666" points="969.5,-129 898.5,-129 898.5,-110 969.5,-110 969.5,-129"/>
<text text-anchor="middle" x="934" y="-117" font-family="Helvetica,sans-Serif" font-size="10.00">ad74413r.h</text>
</a>
</g>
</g>
<!-- Node13&#45;&gt;Node15 -->
<g id="edge23_Node000013_Node000015" class="edge">
<title>Node13&#45;&gt;Node15</title>
<g id="a_edge23_Node000013_Node000015"><a xlink:title=" ">
<path fill="none" stroke="#63b8ff" d="M688.62,-329.75C706.74,-302.15 766.43,-215.73 835,-165 853.92,-151 877.95,-140.07 897.59,-132.55"/>
<polygon fill="#63b8ff" stroke="#63b8ff" points="898.96,-135.77 907.12,-129.03 896.53,-129.21 898.96,-135.77"/>
</a>
</g>
</g>
<!-- Node13&#45;&gt;Node17 -->
<g id="edge29_Node000013_Node000017" class="edge">
<title>Node13&#45;&gt;Node17</title>
<g id="a_edge29_Node000013_Node000017"><a xlink:title=" ">
<path fill="none" stroke="#63b8ff" d="M709.38,-331.68C743.75,-322.79 804.27,-307.15 845.23,-296.56"/>
<polygon fill="#63b8ff" stroke="#63b8ff" points="846.14,-299.94 854.94,-294.05 844.38,-293.16 846.14,-299.94"/>
</a>
</g>
</g>
<!-- Node20 -->
<g id="Node000020" class="node">
<title>Node20</title>
<g id="a_Node000020"><a xlink:href="max14906_8h.html" target="_top" xlink:title="Header file of MAX14906 Driver.">
<polygon fill="white" stroke="#666666" points="708.5,-184 631.5,-184 631.5,-165 708.5,-165 708.5,-184"/>
<text text-anchor="middle" x="670" y="-172" font-family="Helvetica,sans-Serif" font-size="10.00">max14906.h</text>
</a>
</g>
</g>
<!-- Node13&#45;&gt;Node20 -->
<g id="edge37_Node000013_Node000020" class="edge">
<title>Node13&#45;&gt;Node20</title>
<g id="a_edge37_Node000013_Node000020"><a xlink:title=" ">
<path fill="none" stroke="#63b8ff" d="M683.04,-329.85C683.03,-310.24 682.52,-260.93 678,-220 677.06,-211.52 675.48,-202.21 673.97,-194.31"/>
<polygon fill="#63b8ff" stroke="#63b8ff" points="677.36,-193.42 671.95,-184.31 670.5,-194.81 677.36,-193.42"/>
</a>
</g>
</g>
<!-- Node13&#45;&gt;Node23 -->
<g id="edge52_Node000013_Node000023" class="edge">
<title>Node13&#45;&gt;Node23</title>
<g id="a_edge52_Node000013_Node000023"><a xlink:title=" ">
<path fill="none" stroke="#63b8ff" d="M675.23,-329.66C659.28,-311.54 622.67,-269.91 602.31,-246.77"/>
<polygon fill="#63b8ff" stroke="#63b8ff" points="604.85,-244.36 595.62,-239.16 599.59,-248.98 604.85,-244.36"/>
</a>
</g>
</g>
<!-- Node24 -->
<g id="Node000024" class="node">
<title>Node24</title>
<g id="a_Node000024"><a xlink:href="adin1110_8h.html" target="_top" xlink:title=" ">
<polygon fill="white" stroke="#666666" points="593.5,-184 522.5,-184 522.5,-165 593.5,-165 593.5,-184"/>
<text text-anchor="middle" x="558" y="-172" font-family="Helvetica,sans-Serif" font-size="10.00">adin1110.h</text>
</a>
</g>
</g>
<!-- Node13&#45;&gt;Node24 -->
<g id="edge57_Node000013_Node000024" class="edge">
<title>Node13&#45;&gt;Node24</title>
<g id="a_edge57_Node000013_Node000024"><a xlink:title=" ">
<path fill="none" stroke="#63b8ff" d="M682.47,-329.98C680.72,-308.9 673.53,-253.59 645,-220 632.51,-205.3 613.96,-194.88 597.19,-187.84"/>
<polygon fill="#63b8ff" stroke="#63b8ff" points="598.17,-184.46 587.58,-184.07 595.62,-190.98 598.17,-184.46"/>
</a>
</g>
</g>
<!-- Node14&#45;&gt;Node9 -->
<g id="edge22_Node000014_Node000009" class="edge">
<title>Node14&#45;&gt;Node9</title>
<g id="a_edge22_Node000014_Node000009"><a xlink:title=" ">
<path fill="none" stroke="#63b8ff" d="M820.07,-54.75C813.15,-47.11 802.93,-35.82 794.55,-26.56"/>
<polygon fill="#63b8ff" stroke="#63b8ff" points="797.09,-24.15 787.78,-19.09 791.9,-28.85 797.09,-24.15"/>
</a>
</g>
</g>
<!-- Node15&#45;&gt;Node3 -->
<g id="edge25_Node000015_Node000003" class="edge">
<title>Node15&#45;&gt;Node3</title>
<g id="a_edge25_Node000015_Node000003"><a xlink:title=" ">
<path fill="none" stroke="#63b8ff" d="M929.09,-109.59C920.6,-95.19 901.71,-67.2 877,-55 829.84,-31.72 470.59,-16.52 347.34,-11.95"/>
<polygon fill="#63b8ff" stroke="#63b8ff" points="347.3,-8.45 337.18,-11.58 347.05,-15.44 347.3,-8.45"/>
</a>
</g>
</g>
<!-- Node15&#45;&gt;Node9 -->
<g id="edge24_Node000015_Node000009" class="edge">
<title>Node15&#45;&gt;Node9</title>
<g id="a_edge24_Node000015_Node000009"><a xlink:title=" ">
<path fill="none" stroke="#63b8ff" d="M933.07,-109.84C931.16,-96.29 925.57,-70.09 910,-55 884.75,-30.53 845.48,-19.49 816.7,-14.52"/>
<polygon fill="#63b8ff" stroke="#63b8ff" points="817.04,-11.03 806.62,-12.95 815.97,-17.95 817.04,-11.03"/>
</a>
</g>
</g>
<!-- Node15&#45;&gt;Node14 -->
<g id="edge28_Node000015_Node000014" class="edge">
<title>Node15&#45;&gt;Node14</title>
<g id="a_edge28_Node000015_Node000014"><a xlink:title=" ">
<path fill="none" stroke="#63b8ff" d="M916.97,-109.98C900.07,-101.54 873.94,-88.47 854.36,-78.68"/>
<polygon fill="#63b8ff" stroke="#63b8ff" points="855.85,-75.51 845.34,-74.17 852.72,-81.77 855.85,-75.51"/>
</a>
</g>
</g>
<!-- Node16 -->
<g id="Node000016" class="node">
<title>Node16</title>
<g id="a_Node000016"><a xlink:href="no__os__spi_8h.html" target="_top" xlink:title="Header file of SPI Interface.">
<polygon fill="white" stroke="#666666" points="770,-74 696,-74 696,-55 770,-55 770,-74"/>
<text text-anchor="middle" x="733" y="-62" font-family="Helvetica,sans-Serif" font-size="10.00">no_os_spi.h</text>
</a>
</g>
</g>
<!-- Node15&#45;&gt;Node16 -->
<g id="edge26_Node000015_Node000016" class="edge">
<title>Node15&#45;&gt;Node16</title>
<g id="a_edge26_Node000015_Node000016"><a xlink:title=" ">
<path fill="none" stroke="#63b8ff" d="M901.71,-109.98C867.38,-100.93 812.94,-86.58 775.23,-76.64"/>
<polygon fill="#63b8ff" stroke="#63b8ff" points="776.11,-73.25 765.55,-74.08 774.32,-80.02 776.11,-73.25"/>
</a>
</g>
</g>
<!-- Node16&#45;&gt;Node9 -->
<g id="edge27_Node000016_Node000009" class="edge">
<title>Node16&#45;&gt;Node9</title>
<g id="a_edge27_Node000016_Node000009"><a xlink:title=" ">
<path fill="none" stroke="#63b8ff" d="M740.76,-54.75C747.47,-47.18 757.34,-36.05 765.51,-26.84"/>
<polygon fill="#63b8ff" stroke="#63b8ff" points="768.37,-28.89 772.38,-19.09 763.13,-24.25 768.37,-28.89"/>
</a>
</g>
</g>
<!-- Node17&#45;&gt;Node7 -->
<g id="edge30_Node000017_Node000007" class="edge">
<title>Node17&#45;&gt;Node7</title>
<g id="a_edge30_Node000017_Node000007"><a xlink:title=" ">
<path fill="none" stroke="#63b8ff" d="M885.95,-274.66C881.89,-257.09 872.71,-217.45 867.27,-193.95"/>
<polygon fill="#63b8ff" stroke="#63b8ff" points="870.67,-193.11 865,-184.16 863.85,-194.69 870.67,-193.11"/>
</a>
</g>
</g>
<!-- Node17&#45;&gt;Node15 -->
<g id="edge31_Node000017_Node000015" class="edge">
<title>Node17&#45;&gt;Node15</title>
<g id="a_edge31_Node000017_Node000015"><a xlink:title=" ">
<path fill="none" stroke="#63b8ff" d="M890.47,-274.74C897.68,-249.2 918.78,-174.43 928.71,-139.23"/>
<polygon fill="#63b8ff" stroke="#63b8ff" points="932.17,-139.88 931.51,-129.31 925.43,-137.98 932.17,-139.88"/>
</a>
</g>
</g>
<!-- Node18 -->
<g id="Node000018" class="node">
<title>Node18</title>
<g id="a_Node000018"><a xlink:href="iio__trigger_8h.html" target="_top" xlink:title="Header file for iio_trigger.">
<polygon fill="white" stroke="#666666" points="1008,-239 934,-239 934,-220 1008,-220 1008,-239"/>
<text text-anchor="middle" x="971" y="-227" font-family="Helvetica,sans-Serif" font-size="10.00">iio_trigger.h</text>
</a>
</g>
</g>
<!-- Node17&#45;&gt;Node18 -->
<g id="edge32_Node000017_Node000018" class="edge">
<title>Node17&#45;&gt;Node18</title>
<g id="a_edge32_Node000017_Node000018"><a xlink:title=" ">
<path fill="none" stroke="#63b8ff" d="M901.34,-274.98C914.09,-266.84 933.55,-254.41 948.67,-244.76"/>
<polygon fill="#63b8ff" stroke="#63b8ff" points="950.88,-247.5 957.42,-239.17 947.11,-241.6 950.88,-247.5"/>
</a>
</g>
</g>
<!-- Node18&#45;&gt;Node7 -->
<g id="edge33_Node000018_Node000007" class="edge">
<title>Node18&#45;&gt;Node7</title>
<g id="a_edge33_Node000018_Node000007"><a xlink:title=" ">
<path fill="none" stroke="#63b8ff" d="M953.65,-219.98C936.43,-211.54 909.8,-198.47 889.85,-188.68"/>
<polygon fill="#63b8ff" stroke="#63b8ff" points="891.19,-185.43 880.67,-184.17 888.1,-191.72 891.19,-185.43"/>
</a>
</g>
</g>
<!-- Node18&#45;&gt;Node8 -->
<g id="edge34_Node000018_Node000008" class="edge">
<title>Node18&#45;&gt;Node8</title>
<g id="a_edge34_Node000018_Node000008"><a xlink:title=" ">
<path fill="none" stroke="#63b8ff" d="M981.47,-219.66C1003.24,-201.3 1053.59,-158.81 1080.79,-135.87"/>
<polygon fill="#63b8ff" stroke="#63b8ff" points="1083.35,-138.28 1088.74,-129.16 1078.84,-132.93 1083.35,-138.28"/>
</a>
</g>
</g>
<!-- Node19 -->
<g id="Node000019" class="node">
<title>Node19</title>
<g id="a_Node000019"><a xlink:href="no__os__irq_8h.html" target="_top" xlink:title="Header file of IRQ interface.">
<polygon fill="white" stroke="#666666" points="1215,-184 1143,-184 1143,-165 1215,-165 1215,-184"/>
<text text-anchor="middle" x="1179" y="-172" font-family="Helvetica,sans-Serif" font-size="10.00">no_os_irq.h</text>
</a>
</g>
</g>
<!-- Node18&#45;&gt;Node19 -->
<g id="edge35_Node000018_Node000019" class="edge">
<title>Node18&#45;&gt;Node19</title>
<g id="a_edge35_Node000018_Node000019"><a xlink:title=" ">
<path fill="none" stroke="#63b8ff" d="M1004.42,-219.98C1039.94,-210.93 1096.27,-196.58 1135.3,-186.64"/>
<polygon fill="#63b8ff" stroke="#63b8ff" points="1136.49,-189.94 1145.32,-184.08 1134.76,-183.16 1136.49,-189.94"/>
</a>
</g>
</g>
<!-- Node19&#45;&gt;Node9 -->
<g id="edge36_Node000019_Node000009" class="edge">
<title>Node19&#45;&gt;Node9</title>
<g id="a_edge36_Node000019_Node000009"><a xlink:title=" ">
<path fill="none" stroke="#63b8ff" d="M1186.26,-164.83C1203.29,-143.42 1242.25,-87.41 1213,-55 1186.65,-25.8 916.85,-14.67 816.94,-11.52"/>
<polygon fill="#63b8ff" stroke="#63b8ff" points="816.82,-8.02 806.72,-11.21 816.61,-15.01 816.82,-8.02"/>
</a>
</g>
</g>
<!-- Node20&#45;&gt;Node3 -->
<g id="edge39_Node000020_Node000003" class="edge">
<title>Node20&#45;&gt;Node3</title>
<g id="a_edge39_Node000020_Node000003"><a xlink:title=" ">
<path fill="none" stroke="#63b8ff" d="M631.39,-168.52C622.1,-167.35 612.2,-166.11 603,-165 533.49,-156.59 351.07,-163.23 290,-129 256.82,-110.4 230.03,-89.05 247,-55 253.57,-41.82 266.1,-31.52 277.93,-24.16"/>
<polygon fill="#63b8ff" stroke="#63b8ff" points="279.8,-27.12 286.73,-19.1 276.32,-21.05 279.8,-27.12"/>
</a>
</g>
</g>
<!-- Node20&#45;&gt;Node9 -->
<g id="edge38_Node000020_Node000009" class="edge">
<title>Node20&#45;&gt;Node9</title>
<g id="a_edge38_Node000020_Node000009"><a xlink:title=" ">
<path fill="none" stroke="#63b8ff" d="M708.59,-170.74C787.52,-164.69 961.5,-149.2 979,-129 1030.44,-69.62 887.43,-31.85 816.83,-17.3"/>
<polygon fill="#63b8ff" stroke="#63b8ff" points="817.47,-13.85 806.97,-15.32 816.09,-20.72 817.47,-13.85"/>
</a>
</g>
</g>
<!-- Node20&#45;&gt;Node14 -->
<g id="edge49_Node000020_Node000014" class="edge">
<title>Node20&#45;&gt;Node14</title>
<g id="a_edge49_Node000020_Node000014"><a xlink:title=" ">
<path fill="none" stroke="#63b8ff" d="M708.63,-170.58C739.44,-166.25 781.66,-155.52 808,-129 819.83,-117.09 824.67,-98.27 826.65,-84.2"/>
<polygon fill="#63b8ff" stroke="#63b8ff" points="830.14,-84.47 827.7,-74.16 823.18,-83.74 830.14,-84.47"/>
</a>
</g>
</g>
<!-- Node20&#45;&gt;Node16 -->
<g id="edge50_Node000020_Node000016" class="edge">
<title>Node20&#45;&gt;Node16</title>
<g id="a_edge50_Node000020_Node000016"><a xlink:title=" ">
<path fill="none" stroke="#63b8ff" d="M690.44,-164.96C704.9,-157.71 723.22,-145.79 732,-129 739.19,-115.26 738.78,-97.46 736.95,-84.2"/>
<polygon fill="#63b8ff" stroke="#63b8ff" points="740.4,-83.56 735.22,-74.32 733.5,-84.77 740.4,-83.56"/>
</a>
</g>
</g>
<!-- Node21 -->
<g id="Node000021" class="node">
<title>Node21</title>
<g id="a_Node000021"><a xlink:href="max149x6-base_8h.html" target="_top" xlink:title="Header file of MAX149X6 Base Driver.">
<polygon fill="white" stroke="#666666" points="690,-129 586,-129 586,-110 690,-110 690,-129"/>
<text text-anchor="middle" x="638" y="-117" font-family="Helvetica,sans-Serif" font-size="10.00">max149x6&#45;base.h</text>
</a>
</g>
</g>
<!-- Node20&#45;&gt;Node21 -->
<g id="edge40_Node000020_Node000021" class="edge">
<title>Node20&#45;&gt;Node21</title>
<g id="a_edge40_Node000020_Node000021"><a xlink:title=" ">
<path fill="none" stroke="#63b8ff" d="M664.72,-164.75C660.29,-157.42 653.84,-146.73 648.38,-137.7"/>
<polygon fill="#63b8ff" stroke="#63b8ff" points="651.35,-135.84 643.19,-129.09 645.36,-139.46 651.35,-135.84"/>
</a>
</g>
</g>
<!-- Node22 -->
<g id="Node000022" class="node">
<title>Node22</title>
<g id="a_Node000022"><a xlink:href="no__os__util_8h.html" target="_top" xlink:title="Header file of utility functions.">
<polygon fill="white" stroke="#666666" points="563.5,-74 488.5,-74 488.5,-55 563.5,-55 563.5,-74"/>
<text text-anchor="middle" x="526" y="-62" font-family="Helvetica,sans-Serif" font-size="10.00">no_os_util.h</text>
</a>
</g>
</g>
<!-- Node20&#45;&gt;Node22 -->
<g id="edge51_Node000020_Node000022" class="edge">
<title>Node20&#45;&gt;Node22</title>
<g id="a_edge51_Node000020_Node000022"><a xlink:title=" ">
<path fill="none" stroke="#63b8ff" d="M631.32,-168.78C586.51,-162.42 516.79,-149.49 501,-129 490.2,-114.99 500.5,-95.72 510.96,-82.1"/>
<polygon fill="#63b8ff" stroke="#63b8ff" points="513.94,-84 517.64,-74.07 508.56,-79.52 513.94,-84"/>
</a>
</g>
</g>
<!-- Node21&#45;&gt;Node3 -->
<g id="edge42_Node000021_Node000003" class="edge">
<title>Node21&#45;&gt;Node3</title>
<g id="a_edge42_Node000021_Node000003"><a xlink:title=" ">
<path fill="none" stroke="#63b8ff" d="M631.95,-109.83C621.62,-95.78 599.17,-68.27 573,-55 499.72,-17.83 401.99,-10.68 347.39,-9.87"/>
<polygon fill="#63b8ff" stroke="#63b8ff" points="347.1,-6.37 337.07,-9.79 347.04,-13.37 347.1,-6.37"/>
</a>
</g>
</g>
<!-- Node21&#45;&gt;Node9 -->
<g id="edge41_Node000021_Node000009" class="edge">
<title>Node21&#45;&gt;Node9</title>
<g id="a_edge41_Node000021_Node000009"><a xlink:title=" ">
<path fill="none" stroke="#63b8ff" d="M642.98,-109.64C650.84,-96.31 667.29,-70.93 687,-55 704.11,-41.17 726.23,-30.36 744.6,-22.86"/>
<polygon fill="#63b8ff" stroke="#63b8ff" points="746.06,-26.05 754.09,-19.14 743.5,-19.53 746.06,-26.05"/>
</a>
</g>
</g>
<!-- Node21&#45;&gt;Node14 -->
<g id="edge43_Node000021_Node000014" class="edge">
<title>Node21&#45;&gt;Node14</title>
<g id="a_edge43_Node000021_Node000014"><a xlink:title=" ">
<path fill="none" stroke="#63b8ff" d="M668.53,-109.98C700.7,-101.01 751.56,-86.82 787.17,-76.89"/>
<polygon fill="#63b8ff" stroke="#63b8ff" points="788.54,-80.14 797.23,-74.08 786.66,-73.4 788.54,-80.14"/>
</a>
</g>
</g>
<!-- Node21&#45;&gt;Node16 -->
<g id="edge44_Node000021_Node000016" class="edge">
<title>Node21&#45;&gt;Node16</title>
<g id="a_edge44_Node000021_Node000016"><a xlink:title=" ">
<path fill="none" stroke="#63b8ff" d="M653.26,-109.98C668.13,-101.69 690.98,-88.94 708.42,-79.22"/>
<polygon fill="#63b8ff" stroke="#63b8ff" points="710.43,-82.1 717.46,-74.17 707.02,-75.99 710.43,-82.1"/>
</a>
</g>
</g>
<!-- Node21&#45;&gt;Node22 -->
<g id="edge45_Node000021_Node000022" class="edge">
<title>Node21&#45;&gt;Node22</title>
<g id="a_edge45_Node000021_Node000022"><a xlink:title=" ">
<path fill="none" stroke="#63b8ff" d="M620.01,-109.98C602.07,-101.5 574.28,-88.35 553.57,-78.54"/>
<polygon fill="#63b8ff" stroke="#63b8ff" points="554.86,-75.28 544.32,-74.17 551.86,-81.61 554.86,-75.28"/>
</a>
</g>
</g>
<!-- Node22&#45;&gt;Node2 -->
<g id="edge47_Node000022_Node000002" class="edge">
<title>Node22&#45;&gt;Node2</title>
<g id="a_edge47_Node000022_Node000002"><a xlink:title=" ">
<path fill="none" stroke="#63b8ff" d="M488.41,-58.42C413.35,-48.27 245.68,-25.6 171.05,-15.51"/>
<polygon fill="#63b8ff" stroke="#63b8ff" points="171.12,-11.99 160.74,-14.12 170.18,-18.92 171.12,-11.99"/>
</a>
</g>
</g>
<!-- Node22&#45;&gt;Node3 -->
<g id="edge48_Node000022_Node000003" class="edge">
<title>Node22&#45;&gt;Node3</title>
<g id="a_edge48_Node000022_Node000003"><a xlink:title=" ">
<path fill="none" stroke="#63b8ff" d="M490.65,-54.98C451.49,-45.55 388.43,-30.36 347.1,-20.4"/>
<polygon fill="#63b8ff" stroke="#63b8ff" points="347.88,-16.99 337.34,-18.05 346.24,-23.79 347.88,-16.99"/>
</a>
</g>
</g>
<!-- Node22&#45;&gt;Node9 -->
<g id="edge46_Node000022_Node000009" class="edge">
<title>Node22&#45;&gt;Node9</title>
<g id="a_edge46_Node000022_Node000009"><a xlink:title=" ">
<path fill="none" stroke="#63b8ff" d="M563.75,-55.62C612.16,-45.52 695.55,-28.12 743.4,-18.14"/>
<polygon fill="#63b8ff" stroke="#63b8ff" points="744.26,-21.53 753.33,-16.06 742.83,-14.68 744.26,-21.53"/>
</a>
</g>
</g>
<!-- Node23&#45;&gt;Node3 -->
<g id="edge54_Node000023_Node000003" class="edge">
<title>Node23&#45;&gt;Node3</title>
<g id="a_edge54_Node000023_Node000003"><a xlink:title=" ">
<path fill="none" stroke="#63b8ff" d="M540.33,-223.53C445.78,-212.6 239.96,-183.01 198,-129 189.57,-118.15 178.55,-86.03 200,-55 214.73,-33.69 241.77,-22.55 264.85,-16.75"/>
<polygon fill="#63b8ff" stroke="#63b8ff" points="265.8,-20.12 274.79,-14.5 264.26,-13.29 265.8,-20.12"/>
</a>
</g>
</g>
<!-- Node23&#45;&gt;Node7 -->
<g id="edge55_Node000023_Node000007" class="edge">
<title>Node23&#45;&gt;Node7</title>
<g id="a_edge55_Node000023_Node000007"><a xlink:title=" ">
<path fill="none" stroke="#63b8ff" d="M632.18,-219.98C688.79,-209.08 785.33,-190.47 833.65,-181.16"/>
<polygon fill="#63b8ff" stroke="#63b8ff" points="834.59,-184.54 843.74,-179.21 833.26,-177.67 834.59,-184.54"/>
</a>
</g>
</g>
<!-- Node23&#45;&gt;Node9 -->
<g id="edge53_Node000023_Node000009" class="edge">
<title>Node23&#45;&gt;Node9</title>
<g id="a_edge53_Node000023_Node000009"><a xlink:title=" ">
<path fill="none" stroke="#63b8ff" d="M566.18,-219.91C534.97,-206.2 479.23,-176.03 460,-129 449.95,-104.41 478.59,-56.15 480,-55 519.57,-22.69 671.51,-13.8 742.74,-11.38"/>
<polygon fill="#63b8ff" stroke="#63b8ff" points="743.16,-14.87 753.04,-11.06 742.94,-7.87 743.16,-14.87"/>
</a>
</g>
</g>
<!-- Node23&#45;&gt;Node20 -->
<g id="edge56_Node000023_Node000020" class="edge">
<title>Node23&#45;&gt;Node20</title>
<g id="a_edge56_Node000023_Node000020"><a xlink:title=" ">
<path fill="none" stroke="#63b8ff" d="M601.17,-219.98C613.77,-211.84 633,-199.41 647.94,-189.76"/>
<polygon fill="#63b8ff" stroke="#63b8ff" points="650.09,-192.54 656.59,-184.17 646.29,-186.66 650.09,-192.54"/>
</a>
</g>
</g>
<!-- Node24&#45;&gt;Node3 -->
<g id="edge58_Node000024_Node000003" class="edge">
<title>Node24&#45;&gt;Node3</title>
<g id="a_edge58_Node000024_Node000003"><a xlink:title=" ">
<path fill="none" stroke="#63b8ff" d="M522.47,-171.52C438.66,-166.49 234.18,-151.95 214,-129 192.29,-104.3 196.53,-82.86 214,-55 225.24,-37.08 245.96,-26.2 264.9,-19.69"/>
<polygon fill="#63b8ff" stroke="#63b8ff" points="266.08,-22.99 274.58,-16.67 263.99,-16.31 266.08,-22.99"/>
</a>
</g>
</g>
<!-- Node24&#45;&gt;Node14 -->
<g id="edge60_Node000024_Node000014" class="edge">
<title>Node24&#45;&gt;Node14</title>
<g id="a_edge60_Node000024_Node000014"><a xlink:title=" ">
<path fill="none" stroke="#63b8ff" d="M593.66,-166.54C627.1,-159.36 678.09,-146.71 720,-129 752.11,-115.43 786.35,-93.96 807.46,-79.8"/>
<polygon fill="#63b8ff" stroke="#63b8ff" points="809.63,-82.57 815.92,-74.05 805.69,-76.78 809.63,-82.57"/>
</a>
</g>
</g>
<!-- Node24&#45;&gt;Node16 -->
<g id="edge59_Node000024_Node000016" class="edge">
<title>Node24&#45;&gt;Node16</title>
<g id="a_edge59_Node000024_Node000016"><a xlink:title=" ">
<path fill="none" stroke="#63b8ff" d="M593.73,-169.82C624.6,-165 668.87,-153.99 699,-129 713.11,-117.29 722.21,-98.17 727.41,-83.96"/>
<polygon fill="#63b8ff" stroke="#63b8ff" points="730.8,-84.85 730.65,-74.26 724.16,-82.64 730.8,-84.85"/>
</a>
</g>
</g>
<!-- Node24&#45;&gt;Node22 -->
<g id="edge61_Node000024_Node000022" class="edge">
<title>Node24&#45;&gt;Node22</title>
<g id="a_edge61_Node000024_Node000022"><a xlink:title=" ">
<path fill="none" stroke="#63b8ff" d="M522.29,-165.61C502.62,-159.25 479.86,-148.1 468,-129 456.06,-109.78 478.59,-91.06 498.96,-78.98"/>
<polygon fill="#63b8ff" stroke="#63b8ff" points="500.72,-82.01 507.74,-74.08 497.3,-75.9 500.72,-82.01"/>
</a>
</g>
</g>
<!-- Node25 -->
<g id="Node000025" class="node">
<title>Node25</title>
<g id="a_Node000025"><a xlink:href="oa__tc6_8h.html" target="_top" xlink:title=" ">
<polygon fill="white" stroke="#666666" points="568,-129 510,-129 510,-110 568,-110 568,-129"/>
<text text-anchor="middle" x="539" y="-117" font-family="Helvetica,sans-Serif" font-size="10.00">oa_tc6.h</text>
</a>
</g>
</g>
<!-- Node24&#45;&gt;Node25 -->
<g id="edge62_Node000024_Node000025" class="edge">
<title>Node24&#45;&gt;Node25</title>
<g id="a_edge62_Node000024_Node000025"><a xlink:title=" ">
<path fill="none" stroke="#63b8ff" d="M554.86,-164.75C552.32,-157.65 548.64,-147.4 545.47,-138.56"/>
<polygon fill="#63b8ff" stroke="#63b8ff" points="548.75,-137.32 542.08,-129.09 542.16,-139.68 548.75,-137.32"/>
</a>
</g>
</g>
<!-- Node25&#45;&gt;Node9 -->
<g id="edge65_Node000025_Node000009" class="edge">
<title>Node25&#45;&gt;Node9</title>
<g id="a_edge65_Node000025_Node000009"><a xlink:title=" ">
<path fill="none" stroke="#63b8ff" d="M554.53,-109.95C577.92,-97.23 623.74,-72.89 664,-55 691.08,-42.97 722.5,-31.03 745.8,-22.56"/>
<polygon fill="#63b8ff" stroke="#63b8ff" points="747.04,-25.83 755.26,-19.15 744.66,-19.25 747.04,-25.83"/>
</a>
</g>
</g>
<!-- Node25&#45;&gt;Node16 -->
<g id="edge63_Node000025_Node000016" class="edge">
<title>Node25&#45;&gt;Node16</title>
<g id="a_edge63_Node000025_Node000016"><a xlink:title=" ">
<path fill="none" stroke="#63b8ff" d="M568.04,-110.57C600.89,-101.59 654.64,-86.91 691.81,-76.75"/>
<polygon fill="#63b8ff" stroke="#63b8ff" points="693.1,-80.03 701.83,-74.02 691.26,-73.28 693.1,-80.03"/>
</a>
</g>
</g>
<!-- Node25&#45;&gt;Node22 -->
<g id="edge64_Node000025_Node000022" class="edge">
<title>Node25&#45;&gt;Node22</title>
<g id="a_edge64_Node000025_Node000022"><a xlink:title=" ">
<path fill="none" stroke="#63b8ff" d="M536.85,-109.75C535.13,-102.72 532.65,-92.62 530.5,-83.84"/>
<polygon fill="#63b8ff" stroke="#63b8ff" points="533.89,-82.97 528.11,-74.09 527.09,-84.63 533.89,-82.97"/>
</a>
</g>
</g>
<!-- Node26&#45;&gt;Node9 -->
<g id="edge68_Node000026_Node000009" class="edge">
<title>Node26&#45;&gt;Node9</title>
<g id="a_edge68_Node000026_Node000009"><a xlink:title=" ">
<path fill="none" stroke="#63b8ff" d="M1201.17,-274.84C1224.35,-258.45 1270,-220.47 1270,-175.5 1270,-175.5 1270,-175.5 1270,-118.5 1270,-85.38 1259.08,-72.57 1231,-55 1162.28,-12 911.99,-9.39 816.95,-10.01"/>
<polygon fill="#63b8ff" stroke="#63b8ff" points="816.64,-6.51 806.67,-10.09 816.7,-13.51 816.64,-6.51"/>
</a>
</g>
</g>
<!-- Node27&#45;&gt;Node2 -->
<g id="edge71_Node000027_Node000002" class="edge">
<title>Node27&#45;&gt;Node2</title>
<g id="a_edge71_Node000027_Node000002"><a xlink:title=" ">
<path fill="none" stroke="#63b8ff" d="M438.29,-331.21C435.49,-330.78 432.7,-330.37 430,-330 355.84,-319.72 152.58,-341.86 95,-294 72.35,-275.17 76,-259.96 76,-230.5 76,-230.5 76,-230.5 76,-173.5 76,-119.76 77.79,-103.93 100,-55 104.6,-44.86 111.9,-34.88 118.55,-26.95"/>
<polygon fill="#63b8ff" stroke="#63b8ff" points="121.36,-29.06 125.36,-19.24 116.12,-24.42 121.36,-29.06"/>
</a>
</g>
</g>
<!-- Node27&#45;&gt;Node6 -->
<g id="edge70_Node000027_Node000006" class="edge">
<title>Node27&#45;&gt;Node6</title>
<g id="a_edge70_Node000027_Node000006"><a xlink:title=" ">
<path fill="none" stroke="#63b8ff" d="M438.27,-331.3C435.48,-330.85 432.7,-330.41 430,-330 313.83,-312.15 283.73,-314.53 168,-294 166.73,-293.78 165.45,-293.54 164.15,-293.29"/>
<polygon fill="#63b8ff" stroke="#63b8ff" points="164.61,-289.82 154.12,-291.28 163.23,-296.68 164.61,-289.82"/>
</a>
</g>
</g>
</g>
</svg>

<g id="navigator" transform="translate(0 0)" fill="#404254">
  <rect fill="#f2f5e9" fill-opacity="0.5" stroke="#606060" stroke-width=".5" x="0" y="0" width="60" height="60"/>
  <use id="zoomplus" xlink:href="#zoomPlus" x="17" y="9" onmousedown="handleZoom(evt,'in')"/>
  <use id="zoomminus" xlink:href="#zoomMin" x="42" y="9" onmousedown="handleZoom(evt,'out')"/>
  <use id="reset" xlink:href="#resetDef" x="30" y="36" onmousedown="handleReset()"/>
   <use id="arrowup" xlink:href="#arrowUp" x="0" y="0" onmousedown="handlePan(0,-1)"/>
  <use id="arrowright" xlink:href="#arrowRight" x="0" y="0" onmousedown="handlePan(1,0)"/>
  <use id="arrowdown" xlink:href="#arrowDown" x="0" y="0" onmousedown="handlePan(0,1)"/>
  <use id="arrowleft" xlink:href="#arrowLeft" x="0" y="0" onmousedown="handlePan(-1,0)"/>
</g>
<svg viewBox="0 0 15 15" width="100%" height="30px" preserveAspectRatio="xMaxYMin meet">
 <g id="arrow_out" transform="scale(0.3 0.3)">
  <a xlink:href="swiot_8c__incl_org.svg" target="_base">
   <rect id="button" ry="5" rx="5" y="6" x="6" height="38" width="38"
        fill="#f2f5e9" fill-opacity="0.5" stroke="#606060" stroke-width="1.0"/>
   <path id="arrow"
     d="M 11.500037,31.436501 C 11.940474,20.09759 22.043105,11.32322 32.158766,21.979434 L 37.068811,17.246167 C 37.068811,17.246167 37.088388,32 37.088388,32 L 22.160133,31.978069 C 22.160133,31.978069 26.997745,27.140456 26.997745,27.140456 C 18.528582,18.264221 13.291696,25.230495 11.500037,31.436501 z"
     style="fill:#404040;"/>
  </a>
 </g>
</svg>

<style type='text/css'>
<![CDATA[
[data-mouse-over-selected='false'] { opacity: 0.7; }
[data-mouse-over-selected='true']  { opacity: 1.0; }
]]>
</style>
<script type="application/ecmascript"><![CDATA[
document.addEventListener('DOMContentLoaded', (event) => {
  highlightEdges();
  highlightAdjacentNodes();
});
]]></script>
</svg>
