<?xml version="1.0" encoding="UTF-8" standalone="no"?>
<!DOCTYPE svg PUBLIC "-//W3C//DTD SVG 1.1//EN"
 "http://www.w3.org/Graphics/SVG/1.1/DTD/svg11.dtd">
<!-- Generated by graphviz version 2.43.0 (0)
 -->
<!-- Title: tmc5240_reg_read Pages: 1 -->
<svg width="716pt" height="705pt"
 viewBox="0.00 0.00 716.00 705.00" xmlns="http://www.w3.org/2000/svg" xmlns:xlink="http://www.w3.org/1999/xlink">
<g id="graph0" class="graph" transform="scale(1 1) rotate(0) translate(4 701)">
<title>tmc5240_reg_read</title>
<!-- Node1 -->
<g id="Node000001" class="node">
<title>Node1</title>
<g id="a_Node000001"><a xlink:title="Reads data from a given TMC5240 Register.">
<polygon fill="#999999" stroke="#666666" points="708,-352 601,-352 601,-333 708,-333 708,-352"/>
<text text-anchor="middle" x="654.5" y="-340" font-family="Helvetica,sans-Serif" font-size="10.00">tmc5240_reg_read</text>
</a>
</g>
</g>
<!-- Node2 -->
<g id="Node000002" class="node">
<title>Node2</title>
<g id="a_Node000002"><a xlink:href="tmc5240_8c.html#a2a53f1ce946c308cd5639e3c08844741" target="_top" xlink:title="Get the first acceleration phase (A1) value.">
<polygon fill="white" stroke="#666666" points="542.5,-697 444.5,-697 444.5,-678 542.5,-678 542.5,-697"/>
<text text-anchor="middle" x="493.5" y="-685" font-family="Helvetica,sans-Serif" font-size="10.00">tmc5240_get_a1</text>
</a>
</g>
</g>
<!-- Node1&#45;&gt;Node2 -->
<g id="edge1_Node000001_Node000002" class="edge">
<title>Node1&#45;&gt;Node2</title>
<g id="a_edge1_Node000001_Node000002"><a xlink:title=" ">
<path fill="none" stroke="#63b8ff" d="M650.78,-362.3C641.6,-426.18 609.85,-625.29 565,-669.5 558.88,-675.53 551.04,-679.63 542.82,-682.39"/>
<polygon fill="#63b8ff" stroke="#63b8ff" points="654.3,-362.4 652.23,-352.01 647.36,-361.42 654.3,-362.4"/>
</a>
</g>
</g>
<!-- Node3 -->
<g id="Node000003" class="node">
<title>Node3</title>
<g id="a_Node000003"><a xlink:href="tmc5240_8c.html#a871ec55bdbea62add9adeb7b96423843" target="_top" xlink:title="Get the second acceleration phase (A2) value.">
<polygon fill="white" stroke="#666666" points="542.5,-660 444.5,-660 444.5,-641 542.5,-641 542.5,-660"/>
<text text-anchor="middle" x="493.5" y="-648" font-family="Helvetica,sans-Serif" font-size="10.00">tmc5240_get_a2</text>
</a>
</g>
</g>
<!-- Node1&#45;&gt;Node3 -->
<g id="edge2_Node000001_Node000003" class="edge">
<title>Node1&#45;&gt;Node3</title>
<g id="a_edge2_Node000001_Node000003"><a xlink:title=" ">
<path fill="none" stroke="#63b8ff" d="M653.67,-362.5C652.98,-414.93 643.58,-557.47 565,-632.5 558.79,-638.43 550.9,-642.48 542.67,-645.23"/>
<polygon fill="#63b8ff" stroke="#63b8ff" points="657.17,-362.23 653.7,-352.22 650.17,-362.21 657.17,-362.23"/>
</a>
</g>
</g>
<!-- Node4 -->
<g id="Node000004" class="node">
<title>Node4</title>
<g id="a_Node000004"><a xlink:href="tmc5240_8c.html#a554f60a9cd1cca2bd6c4f7eafe26e62a" target="_top" xlink:title="Get the maximum acceleration (AMAX) value.">
<polygon fill="white" stroke="#666666" points="550,-623 437,-623 437,-604 550,-604 550,-623"/>
<text text-anchor="middle" x="493.5" y="-611" font-family="Helvetica,sans-Serif" font-size="10.00">tmc5240_get_amax</text>
</a>
</g>
</g>
<!-- Node1&#45;&gt;Node4 -->
<g id="edge3_Node000001_Node000004" class="edge">
<title>Node1&#45;&gt;Node4</title>
<g id="a_edge3_Node000001_Node000004"><a xlink:title=" ">
<path fill="none" stroke="#63b8ff" d="M652.55,-362.35C649.18,-409.79 633.92,-530.53 565,-594.5 560.63,-598.55 555.49,-601.76 550.01,-604.29"/>
<polygon fill="#63b8ff" stroke="#63b8ff" points="656.06,-362.38 653.17,-352.18 649.07,-361.96 656.06,-362.38"/>
</a>
</g>
</g>
<!-- Node5 -->
<g id="Node000005" class="node">
<title>Node5</title>
<g id="a_Node000005"><a xlink:href="tmc5240_8c.html#a29006cb92be0a9976b5b7d1757426958" target="_top" xlink:title="Get the current acceleration of the motor.">
<polygon fill="white" stroke="#666666" points="553.5,-585.5 433.5,-585.5 433.5,-555.5 553.5,-555.5 553.5,-585.5"/>
<text text-anchor="start" x="441.5" y="-573.5" font-family="Helvetica,sans-Serif" font-size="10.00">tmc5240_get_current</text>
<text text-anchor="middle" x="493.5" y="-562.5" font-family="Helvetica,sans-Serif" font-size="10.00">_accel</text>
</a>
</g>
</g>
<!-- Node1&#45;&gt;Node5 -->
<g id="edge4_Node000001_Node000005" class="edge">
<title>Node1&#45;&gt;Node5</title>
<g id="a_edge4_Node000001_Node000005"><a xlink:title=" ">
<path fill="none" stroke="#63b8ff" d="M650.42,-362.09C643.07,-402.38 620.78,-495.07 565,-546.5 561.29,-549.92 557.08,-552.85 552.6,-555.37"/>
<polygon fill="#63b8ff" stroke="#63b8ff" points="653.88,-362.64 652.11,-352.19 646.98,-361.46 653.88,-362.64"/>
</a>
</g>
</g>
<!-- Node6 -->
<g id="Node000006" class="node">
<title>Node6</title>
<g id="a_Node000006"><a xlink:href="tmc5240_8c.html#a521b62bf8df303ff0f4368a34925361a" target="_top" xlink:title="Get the current position of the motor.">
<polygon fill="white" stroke="#666666" points="565,-537 422,-537 422,-518 565,-518 565,-537"/>
<text text-anchor="middle" x="493.5" y="-525" font-family="Helvetica,sans-Serif" font-size="10.00">tmc5240_get_current_pos</text>
</a>
</g>
</g>
<!-- Node1&#45;&gt;Node6 -->
<g id="edge5_Node000001_Node000006" class="edge">
<title>Node1&#45;&gt;Node6</title>
<g id="a_edge5_Node000001_Node000006"><a xlink:title=" ">
<path fill="none" stroke="#63b8ff" d="M648.72,-362.17C639.12,-397.32 614.09,-470.87 565,-509.5 560.63,-512.94 555.68,-515.72 550.48,-517.98"/>
<polygon fill="#63b8ff" stroke="#63b8ff" points="652.18,-362.76 651.3,-352.2 645.4,-361 652.18,-362.76"/>
</a>
</g>
</g>
<!-- Node7 -->
<g id="Node000007" class="node">
<title>Node7</title>
<g id="a_Node000007"><a xlink:href="tmc5240_8c.html#a99916a607b47f97872b480346df95527" target="_top" xlink:title="Get the current velocity of the motor.">
<polygon fill="white" stroke="#666666" points="563.5,-500 423.5,-500 423.5,-481 563.5,-481 563.5,-500"/>
<text text-anchor="middle" x="493.5" y="-488" font-family="Helvetica,sans-Serif" font-size="10.00">tmc5240_get_current_vel</text>
</a>
</g>
</g>
<!-- Node1&#45;&gt;Node7 -->
<g id="edge6_Node000001_Node000007" class="edge">
<title>Node1&#45;&gt;Node7</title>
<g id="a_edge6_Node000001_Node000007"><a xlink:title=" ">
<path fill="none" stroke="#63b8ff" d="M645.91,-361.38C633.43,-389.96 605.81,-443.88 565,-472.5 560.14,-475.91 554.69,-478.67 549.02,-480.91"/>
<polygon fill="#63b8ff" stroke="#63b8ff" points="649.16,-362.67 649.82,-352.1 642.71,-359.95 649.16,-362.67"/>
</a>
</g>
</g>
<!-- Node8 -->
<g id="Node000008" class="node">
<title>Node8</title>
<g id="a_Node000008"><a xlink:href="tmc5240_8c.html#a44b3fcce570347e4cd3d8f466f95d17c" target="_top" xlink:title="Get the first deceleration phase (D1) value.">
<polygon fill="white" stroke="#666666" points="542.5,-463 444.5,-463 444.5,-444 542.5,-444 542.5,-463"/>
<text text-anchor="middle" x="493.5" y="-451" font-family="Helvetica,sans-Serif" font-size="10.00">tmc5240_get_d1</text>
</a>
</g>
</g>
<!-- Node1&#45;&gt;Node8 -->
<g id="edge7_Node000001_Node000008" class="edge">
<title>Node1&#45;&gt;Node8</title>
<g id="a_edge7_Node000001_Node000008"><a xlink:title=" ">
<path fill="none" stroke="#63b8ff" d="M641.28,-360.5C625.94,-381.67 597.66,-416.36 565,-435.5 558.13,-439.52 550.38,-442.66 542.58,-445.09"/>
<polygon fill="#63b8ff" stroke="#63b8ff" points="644.31,-362.27 647.21,-352.08 638.59,-358.24 644.31,-362.27"/>
</a>
</g>
</g>
<!-- Node9 -->
<g id="Node000009" class="node">
<title>Node9</title>
<g id="a_Node000009"><a xlink:href="tmc5240_8c.html#a58226cc8cbdaf4d8c931b02c3b93361b" target="_top" xlink:title="Get the second deceleration phase (D2) value.">
<polygon fill="white" stroke="#666666" points="542.5,-426 444.5,-426 444.5,-407 542.5,-407 542.5,-426"/>
<text text-anchor="middle" x="493.5" y="-414" font-family="Helvetica,sans-Serif" font-size="10.00">tmc5240_get_d2</text>
</a>
</g>
</g>
<!-- Node1&#45;&gt;Node9 -->
<g id="edge8_Node000001_Node000009" class="edge">
<title>Node1&#45;&gt;Node9</title>
<g id="a_edge8_Node000001_Node000009"><a xlink:title=" ">
<path fill="none" stroke="#63b8ff" d="M632.79,-358.26C615.49,-370.75 589.74,-387.83 565,-398.5 557.34,-401.8 548.95,-404.6 540.71,-406.93"/>
<polygon fill="#63b8ff" stroke="#63b8ff" points="635.04,-360.95 641.02,-352.2 630.89,-355.31 635.04,-360.95"/>
</a>
</g>
</g>
<!-- Node10 -->
<g id="Node000010" class="node">
<title>Node10</title>
<g id="a_Node000010"><a xlink:href="tmc5240_8c.html#addae6a0eda1e18599ab355e17d42c410" target="_top" xlink:title="Get the maximum deceleration (DMAX) value.">
<polygon fill="white" stroke="#666666" points="550,-389 437,-389 437,-370 550,-370 550,-389"/>
<text text-anchor="middle" x="493.5" y="-377" font-family="Helvetica,sans-Serif" font-size="10.00">tmc5240_get_dmax</text>
</a>
</g>
</g>
<!-- Node1&#45;&gt;Node10 -->
<g id="edge9_Node000001_Node000010" class="edge">
<title>Node1&#45;&gt;Node10</title>
<g id="a_edge9_Node000001_Node000010"><a xlink:title=" ">
<path fill="none" stroke="#63b8ff" d="M602.55,-354.36C580.91,-359.39 556.02,-365.18 535.58,-369.94"/>
<polygon fill="#63b8ff" stroke="#63b8ff" points="603.61,-357.7 612.55,-352.03 602.02,-350.89 603.61,-357.7"/>
</a>
</g>
</g>
<!-- Node11 -->
<g id="Node000011" class="node">
<title>Node11</title>
<g id="a_Node000011"><a xlink:href="tmc5240_8c.html#a330e06c648d15fbd873c0ad18f3f9735" target="_top" xlink:title="Get the ramp mode configuration.">
<polygon fill="white" stroke="#666666" points="563,-352 424,-352 424,-333 563,-333 563,-352"/>
<text text-anchor="middle" x="493.5" y="-340" font-family="Helvetica,sans-Serif" font-size="10.00">tmc5240_get_rampmode</text>
</a>
</g>
</g>
<!-- Node1&#45;&gt;Node11 -->
<g id="edge10_Node000001_Node000011" class="edge">
<title>Node1&#45;&gt;Node11</title>
<g id="a_edge10_Node000001_Node000011"><a xlink:title=" ">
<path fill="none" stroke="#63b8ff" d="M590.87,-342.5C581.76,-342.5 572.33,-342.5 563.11,-342.5"/>
<polygon fill="#63b8ff" stroke="#63b8ff" points="591,-346 601,-342.5 591,-339 591,-346"/>
</a>
</g>
</g>
<!-- Node12 -->
<g id="Node000012" class="node">
<title>Node12</title>
<g id="a_Node000012"><a xlink:href="tmc5240_8c.html#a97e9897f8303dca91ddb6924c984af87" target="_top" xlink:title="Get the shaft direction setting from the TMC5240 device.">
<polygon fill="white" stroke="#666666" points="557.5,-315 429.5,-315 429.5,-296 557.5,-296 557.5,-315"/>
<text text-anchor="middle" x="493.5" y="-303" font-family="Helvetica,sans-Serif" font-size="10.00">tmc5240_get_shaft_dir</text>
</a>
</g>
</g>
<!-- Node1&#45;&gt;Node12 -->
<g id="edge11_Node000001_Node000012" class="edge">
<title>Node1&#45;&gt;Node12</title>
<g id="a_edge11_Node000001_Node000012"><a xlink:title=" ">
<path fill="none" stroke="#63b8ff" d="M602.55,-330.64C580.91,-325.61 556.02,-319.82 535.58,-315.06"/>
<polygon fill="#63b8ff" stroke="#63b8ff" points="602.02,-334.11 612.55,-332.97 603.61,-327.3 602.02,-334.11"/>
</a>
</g>
</g>
<!-- Node13 -->
<g id="Node000013" class="node">
<title>Node13</title>
<g id="a_Node000013"><a xlink:href="tmc5240_8c.html#a65f97eb914fa394100fab4f5fbfa0172" target="_top" xlink:title="Get the target position of the motor.">
<polygon fill="white" stroke="#666666" points="562,-278 425,-278 425,-259 562,-259 562,-278"/>
<text text-anchor="middle" x="493.5" y="-266" font-family="Helvetica,sans-Serif" font-size="10.00">tmc5240_get_target_pos</text>
</a>
</g>
</g>
<!-- Node1&#45;&gt;Node13 -->
<g id="edge12_Node000001_Node000013" class="edge">
<title>Node1&#45;&gt;Node13</title>
<g id="a_edge12_Node000001_Node000013"><a xlink:title=" ">
<path fill="none" stroke="#63b8ff" d="M632.41,-326.92C615.06,-314.73 589.45,-298.11 565,-287.5 556.51,-283.81 547.13,-280.69 538.06,-278.1"/>
<polygon fill="#63b8ff" stroke="#63b8ff" points="630.51,-329.86 640.68,-332.84 634.58,-324.17 630.51,-329.86"/>
</a>
</g>
</g>
<!-- Node14 -->
<g id="Node000014" class="node">
<title>Node14</title>
<g id="a_Node000014"><a xlink:href="tmc5240_8c.html#a389d69d7fd0061dfb220d78be1d26348" target="_top" xlink:title="Get the first velocity threshold (V1) value.">
<polygon fill="white" stroke="#666666" points="542.5,-241 444.5,-241 444.5,-222 542.5,-222 542.5,-241"/>
<text text-anchor="middle" x="493.5" y="-229" font-family="Helvetica,sans-Serif" font-size="10.00">tmc5240_get_v1</text>
</a>
</g>
</g>
<!-- Node1&#45;&gt;Node14 -->
<g id="edge13_Node000001_Node000014" class="edge">
<title>Node1&#45;&gt;Node14</title>
<g id="a_edge13_Node000001_Node000014"><a xlink:title=" ">
<path fill="none" stroke="#63b8ff" d="M640.95,-324.45C625.48,-303.55 597.24,-269.56 565,-250.5 558.13,-246.44 550.37,-243.22 542.57,-240.68"/>
<polygon fill="#63b8ff" stroke="#63b8ff" points="638.27,-326.71 646.95,-332.78 643.95,-322.62 638.27,-326.71"/>
</a>
</g>
</g>
<!-- Node15 -->
<g id="Node000015" class="node">
<title>Node15</title>
<g id="a_Node000015"><a xlink:href="tmc5240_8c.html#a7679404b23884805b27ec18d321a9fcd" target="_top" xlink:title="Get the second velocity threshold (V2) value.">
<polygon fill="white" stroke="#666666" points="542.5,-204 444.5,-204 444.5,-185 542.5,-185 542.5,-204"/>
<text text-anchor="middle" x="493.5" y="-192" font-family="Helvetica,sans-Serif" font-size="10.00">tmc5240_get_v2</text>
</a>
</g>
</g>
<!-- Node1&#45;&gt;Node15 -->
<g id="edge14_Node000001_Node000015" class="edge">
<title>Node1&#45;&gt;Node15</title>
<g id="a_edge14_Node000001_Node000015"><a xlink:title=" ">
<path fill="none" stroke="#63b8ff" d="M645.64,-323.41C632.95,-295.04 605.27,-242.03 565,-213.5 558.38,-208.81 550.66,-205.28 542.81,-202.62"/>
<polygon fill="#63b8ff" stroke="#63b8ff" points="642.45,-324.86 649.62,-332.66 648.88,-322.09 642.45,-324.86"/>
</a>
</g>
</g>
<!-- Node16 -->
<g id="Node000016" class="node">
<title>Node16</title>
<g id="a_Node000016"><a xlink:href="tmc5240_8c.html#ad2d5e1b45e17411e18fe18cc1fff7f57" target="_top" xlink:title="Get the maximum velocity (VMAX) value.">
<polygon fill="white" stroke="#666666" points="550,-167 437,-167 437,-148 550,-148 550,-167"/>
<text text-anchor="middle" x="493.5" y="-155" font-family="Helvetica,sans-Serif" font-size="10.00">tmc5240_get_vmax</text>
</a>
</g>
</g>
<!-- Node1&#45;&gt;Node16 -->
<g id="edge15_Node000001_Node000016" class="edge">
<title>Node1&#45;&gt;Node16</title>
<g id="a_edge15_Node000001_Node000016"><a xlink:title=" ">
<path fill="none" stroke="#63b8ff" d="M648.63,-323.01C638.89,-288.16 613.66,-215.22 565,-176.5 560.14,-172.63 554.56,-169.55 548.71,-167.09"/>
<polygon fill="#63b8ff" stroke="#63b8ff" points="645.3,-324.13 651.26,-332.89 652.07,-322.33 645.3,-324.13"/>
</a>
</g>
</g>
<!-- Node17 -->
<g id="Node000017" class="node">
<title>Node17</title>
<g id="a_Node000017"><a xlink:href="tmc5240_8c.html#af97d89d09ee2551ac1937477f6ffc32c" target="_top" xlink:title="Get the start velocity (VSTART) value.">
<polygon fill="white" stroke="#666666" points="550.5,-130 436.5,-130 436.5,-111 550.5,-111 550.5,-130"/>
<text text-anchor="middle" x="493.5" y="-118" font-family="Helvetica,sans-Serif" font-size="10.00">tmc5240_get_vstart</text>
</a>
</g>
</g>
<!-- Node1&#45;&gt;Node17 -->
<g id="edge16_Node000001_Node000017" class="edge">
<title>Node1&#45;&gt;Node17</title>
<g id="a_edge16_Node000001_Node000017"><a xlink:title=" ">
<path fill="none" stroke="#63b8ff" d="M650.66,-322.71C643.75,-282.05 622.23,-188.83 565,-139.5 560.49,-135.61 555.26,-132.51 549.72,-130.04"/>
<polygon fill="#63b8ff" stroke="#63b8ff" points="647.22,-323.37 652.23,-332.7 654.13,-322.28 647.22,-323.37"/>
</a>
</g>
</g>
<!-- Node18 -->
<g id="Node000018" class="node">
<title>Node18</title>
<g id="a_Node000018"><a xlink:href="tmc5240_8c.html#ad4d5034eeddc75a3f347725218095259" target="_top" xlink:title="Get the stop velocity (VSTOP) value.">
<polygon fill="white" stroke="#666666" points="550,-93 437,-93 437,-74 550,-74 550,-93"/>
<text text-anchor="middle" x="493.5" y="-81" font-family="Helvetica,sans-Serif" font-size="10.00">tmc5240_get_vstop</text>
</a>
</g>
</g>
<!-- Node1&#45;&gt;Node18 -->
<g id="edge17_Node000001_Node000018" class="edge">
<title>Node1&#45;&gt;Node18</title>
<g id="a_edge17_Node000001_Node000018"><a xlink:title=" ">
<path fill="none" stroke="#63b8ff" d="M652.12,-322.34C647.87,-276.29 630.88,-162.7 565,-102.5 560.7,-98.57 555.66,-95.43 550.3,-92.94"/>
<polygon fill="#63b8ff" stroke="#63b8ff" points="648.65,-322.84 652.95,-332.52 655.63,-322.27 648.65,-322.84"/>
</a>
</g>
</g>
<!-- Node19 -->
<g id="Node000019" class="node">
<title>Node19</title>
<g id="a_Node000019"><a xlink:href="tmc5240_8c.html#a1212166c7f60f4e3a8de585da7942969" target="_top" xlink:title="Read&#45;modify&#45;write a TMC5240 register.">
<polygon fill="white" stroke="#666666" points="553,-56 434,-56 434,-37 553,-37 553,-56"/>
<text text-anchor="middle" x="493.5" y="-44" font-family="Helvetica,sans-Serif" font-size="10.00">tmc5240_reg_update</text>
</a>
</g>
</g>
<!-- Node1&#45;&gt;Node19 -->
<g id="edge18_Node000001_Node000019" class="edge">
<title>Node1&#45;&gt;Node19</title>
<g id="a_edge18_Node000001_Node000019"><a xlink:title=" ">
<path fill="none" stroke="#63b8ff" d="M653.29,-322.78C651.63,-272.25 640.03,-137.15 565,-65.5 560.97,-61.65 556.24,-58.56 551.17,-56.08"/>
<polygon fill="#63b8ff" stroke="#63b8ff" points="649.79,-323.05 653.52,-332.97 656.79,-322.89 649.79,-323.05"/>
</a>
</g>
</g>
<!-- Node24 -->
<g id="Node000024" class="node">
<title>Node24</title>
<g id="a_Node000024"><a xlink:href="tmc5240_8c.html#a72ef06079b564ed582795bbfffaaf96b" target="_top" xlink:title="Set the target velocity for the TMC5240 motor driver.">
<polygon fill="white" stroke="#666666" points="560.5,-19 426.5,-19 426.5,0 560.5,0 560.5,-19"/>
<text text-anchor="middle" x="493.5" y="-7" font-family="Helvetica,sans-Serif" font-size="10.00">tmc5240_set_target_vel</text>
</a>
</g>
</g>
<!-- Node1&#45;&gt;Node24 -->
<g id="edge23_Node000001_Node000024" class="edge">
<title>Node1&#45;&gt;Node24</title>
<g id="a_edge23_Node000001_Node000024"><a xlink:title=" ">
<path fill="none" stroke="#63b8ff" d="M654.16,-322.78C654.88,-267.83 649.04,-111.58 565,-28.5 561.12,-24.67 556.56,-21.59 551.65,-19.11"/>
<polygon fill="#63b8ff" stroke="#63b8ff" points="650.66,-322.83 653.94,-332.91 657.66,-322.99 650.66,-322.83"/>
</a>
</g>
</g>
<!-- Node20 -->
<g id="Node000020" class="node">
<title>Node20</title>
<g id="a_Node000020"><a xlink:href="tmc5240_8c.html#aee47c5f3e6fae0b1aa0c16fe53c1a353" target="_top" xlink:title="Initialize the TMC5240 device.">
<polygon fill="white" stroke="#666666" points="362.5,-74 282.5,-74 282.5,-55 362.5,-55 362.5,-74"/>
<text text-anchor="middle" x="322.5" y="-62" font-family="Helvetica,sans-Serif" font-size="10.00">tmc5240_init</text>
</a>
</g>
</g>
<!-- Node19&#45;&gt;Node20 -->
<g id="edge19_Node000019_Node000020" class="edge">
<title>Node19&#45;&gt;Node20</title>
<g id="a_edge19_Node000019_Node000020"><a xlink:title=" ">
<path fill="none" stroke="#63b8ff" d="M423.78,-53.82C402.97,-56.04 380.83,-58.39 362.67,-60.33"/>
<polygon fill="#63b8ff" stroke="#63b8ff" points="424.29,-57.28 433.87,-52.75 423.55,-50.32 424.29,-57.28"/>
</a>
</g>
</g>
<!-- Node23 -->
<g id="Node000023" class="node">
<title>Node23</title>
<g id="a_Node000023"><a xlink:href="tmc5240_8c.html#a96fdf53cd6e497c24cceb4efc19d0caa" target="_top" xlink:title="Set the shaft direction for the TMC5240 device.">
<polygon fill="white" stroke="#666666" points="386,-37 259,-37 259,-18 386,-18 386,-37"/>
<text text-anchor="middle" x="322.5" y="-25" font-family="Helvetica,sans-Serif" font-size="10.00">tmc5240_set_shaft_dir</text>
</a>
</g>
</g>
<!-- Node19&#45;&gt;Node23 -->
<g id="edge22_Node000019_Node000023" class="edge">
<title>Node19&#45;&gt;Node23</title>
<g id="a_edge22_Node000019_Node000023"><a xlink:title=" ">
<path fill="none" stroke="#63b8ff" d="M423.57,-38.75C411.16,-37.36 398.28,-35.91 386.06,-34.53"/>
<polygon fill="#63b8ff" stroke="#63b8ff" points="423.54,-42.27 433.87,-39.91 424.32,-35.31 423.54,-42.27"/>
</a>
</g>
</g>
<!-- Node21 -->
<g id="Node000021" class="node">
<title>Node21</title>
<g id="a_Node000021"><a xlink:href="iio__tmc5240_8c.html#a34eeb20fee898c60e8d5e29cd2b6e30d" target="_top" xlink:title="Initializes the tmc5240 IIO driver.">
<polygon fill="white" stroke="#666666" points="223,-74 125,-74 125,-55 223,-55 223,-74"/>
<text text-anchor="middle" x="174" y="-62" font-family="Helvetica,sans-Serif" font-size="10.00">tmc5240_iio_init</text>
</a>
</g>
</g>
<!-- Node20&#45;&gt;Node21 -->
<g id="edge20_Node000020_Node000021" class="edge">
<title>Node20&#45;&gt;Node21</title>
<g id="a_edge20_Node000020_Node000021"><a xlink:title=" ">
<path fill="none" stroke="#63b8ff" d="M272.15,-64.5C256.38,-64.5 238.96,-64.5 223.26,-64.5"/>
<polygon fill="#63b8ff" stroke="#63b8ff" points="272.24,-68 282.24,-64.5 272.24,-61 272.24,-68"/>
</a>
</g>
</g>
<!-- Node22 -->
<g id="Node000022" class="node">
<title>Node22</title>
<g id="a_Node000022"><a xlink:href="admt4000_2src_2examples_2iio__trigger__example_2iio__trigger__example_8c.html#ac25cbf8ae523e89cb0617e68c98bc697" target="_top" xlink:title="Basic example main executiont.">
<polygon fill="white" stroke="#666666" points="89,-74 0,-74 0,-55 89,-55 89,-74"/>
<text text-anchor="middle" x="44.5" y="-62" font-family="Helvetica,sans-Serif" font-size="10.00">example_main</text>
</a>
</g>
</g>
<!-- Node21&#45;&gt;Node22 -->
<g id="edge21_Node000021_Node000022" class="edge">
<title>Node21&#45;&gt;Node22</title>
<g id="a_edge21_Node000021_Node000022"><a xlink:title=" ">
<path fill="none" stroke="#63b8ff" d="M114.78,-64.5C106.16,-64.5 97.41,-64.5 89.16,-64.5"/>
<polygon fill="#63b8ff" stroke="#63b8ff" points="114.8,-68 124.8,-64.5 114.8,-61 114.8,-68"/>
</a>
</g>
</g>
</g>
</svg>
