<?xml version="1.0" encoding="UTF-8" standalone="no"?>
<!DOCTYPE svg PUBLIC "-//W3C//DTD SVG 1.1//EN"
 "http://www.w3.org/Graphics/SVG/1.1/DTD/svg11.dtd">
<!-- Generated by graphviz version 2.43.0 (0)
 -->
<!-- Title: ad405x_comm_desc Pages: 1 -->
<!--zoomable 261 -->

<svg id="main" version="1.1" xmlns="http://www.w3.org/2000/svg" xmlns:xlink="http://www.w3.org/1999/xlink" xml:space="preserve" onload="init(evt)">

<style type="text/css"><![CDATA[
.node, .edge {opacity: 0.7;}
.node.selected, .edge.selected {opacity: 1;}
.edge:hover path { stroke: red; }
.edge:hover polygon { stroke: red; fill: red; }
]]></style>

<defs>
  <circle id="rim" cx="0" cy="0" r="7"/>
  <circle id="rim2" cx="0" cy="0" r="3.5"/>
  <g id="zoomPlus">
    <use xlink:href="#rim" fill="#404040"><set attributeName="fill" to="#808080" begin="zoomplus.mouseover" end="zoomplus.mouseout"/></use>
    <path d="M-4,0h8M0,-4v8" fill="none" stroke="white" stroke-width="1.5" pointer-events="none"/>
  </g>
  <g id="zoomMin">
    <use xlink:href="#rim" fill="#404040"><set attributeName="fill" to="#808080" begin="zoomminus.mouseover" end="zoomminus.mouseout"/></use>
    <path d="M-4,0h8" fill="none" stroke="white" stroke-width="1.5" pointer-events="none"/>
  </g>
  <g id="arrowUp" transform="translate(30 24)">
    <use xlink:href="#rim"/>
    <path pointer-events="none" fill="none" stroke="white" stroke-width="1.5" d="M0,-3.0v7 M-2.5,-0.5L0,-3.0L2.5,-0.5"/>
  </g>
  <g id="arrowRight" transform="rotate(90) translate(36 -43)">
    <use xlink:href="#rim"/>
    <path pointer-events="none" fill="none" stroke="white" stroke-width="1.5" d="M0,-3.0v7 M-2.5,-0.5L0,-3.0L2.5,-0.5"/>
  </g>
  <g id="arrowDown" transform="rotate(180) translate(-30 -48)">
    <use xlink:href="#rim"/>
    <path pointer-events="none" fill="none" stroke="white" stroke-width="1.5" d="M0,-3.0v7 M-2.5,-0.5L0,-3.0L2.5,-0.5"/>
  </g>
  <g id="arrowLeft" transform="rotate(270) translate(-36 17)">
    <use xlink:href="#rim"/>
    <path pointer-events="none" fill="none" stroke="white" stroke-width="1.5" d="M0,-3.0v7 M-2.5,-0.5L0,-3.0L2.5,-0.5"/>
  </g>
  <g id="resetDef">
    <use xlink:href="#rim2" fill="#404040"><set attributeName="fill" to="#808080" begin="reset.mouseover" end="reset.mouseout"/></use>
  </g>
</defs>
<script type="application/ecmascript">
var viewWidth = 841;
var viewHeight = 261;
var sectionId = 'dynsection-0';
</script>
<script type="application/ecmascript" xlink:href="svg.min.js"/>
<svg id="graph" class="graph">
<g id="viewport">
<title>ad405x_comm_desc</title>
<!-- Node1 -->
<g id="Node000001" class="node">
<title>Node1</title>
<g id="a_Node000001"><a xlink:title=" ">
<polygon fill="#999999" stroke="#666666" points="833,-66.22 717,-66.22 717,-47.22 833,-47.22 833,-66.22"/>
<text text-anchor="middle" x="775" y="-54.22" font-family="Helvetica,sans-Serif" font-size="10.00">ad405x_comm_desc</text>
</a>
</g>
</g>
<!-- Node2 -->
<g id="Node000002" class="node">
<title>Node2</title>
<g id="a_Node000002"><a xlink:href="structno__os__i3c__desc.html" target="_top" xlink:title="Structure holding I3C device descriptor.">
<polygon fill="white" stroke="#666666" points="592,-124.22 500,-124.22 500,-105.22 592,-105.22 592,-124.22"/>
<text text-anchor="middle" x="546" y="-112.22" font-family="Helvetica,sans-Serif" font-size="10.00">no_os_i3c_desc</text>
</a>
</g>
</g>
<!-- Node2&#45;&gt;Node1 -->
<g id="edge1_Node000001_Node000002" class="edge">
<title>Node2&#45;&gt;Node1</title>
<g id="a_edge1_Node000001_Node000002"><a xlink:title=" ">
<path fill="none" stroke="#9a32cd" stroke-dasharray="5,2" d="M576.06,-100.92C588.97,-95.24 604.51,-88.99 619,-84.72 650.87,-75.32 687.4,-68.53 716.99,-64"/>
<polygon fill="#9a32cd" stroke="#9a32cd" points="574.43,-97.82 566.75,-105.12 577.31,-104.2 574.43,-97.82"/>
</a>
</g>
<text text-anchor="middle" x="659" y="-87.72" font-family="Helvetica,sans-Serif" font-size="10.00" fill="grey"> i3c_desc</text>
</g>
<!-- Node4 -->
<g id="Node000004" class="node">
<title>Node4</title>
<g id="a_Node000004"><a xlink:href="structno__os__i3c__bus__desc.html" target="_top" xlink:title="Structure holding I3C bus descriptor.">
<polygon fill="white" stroke="#666666" points="832.5,-177.22 717.5,-177.22 717.5,-158.22 832.5,-158.22 832.5,-177.22"/>
<text text-anchor="middle" x="775" y="-165.22" font-family="Helvetica,sans-Serif" font-size="10.00">no_os_i3c_bus_desc</text>
</a>
</g>
</g>
<!-- Node2&#45;&gt;Node4 -->
<g id="edge5_Node000004_Node000002" class="edge">
<title>Node2&#45;&gt;Node4</title>
<g id="a_edge5_Node000004_Node000002"><a xlink:title=" ">
<path fill="none" stroke="#9a32cd" stroke-dasharray="5,2" d="M602.21,-122.98C631.23,-127.8 667.27,-134.55 699,-142.72 715.61,-146.99 733.89,-153.05 748.23,-158.14"/>
<polygon fill="#9a32cd" stroke="#9a32cd" points="602.69,-119.51 592.25,-121.35 601.56,-126.42 602.69,-119.51"/>
</a>
</g>
<text text-anchor="middle" x="659" y="-145.72" font-family="Helvetica,sans-Serif" font-size="10.00" fill="grey"> devs</text>
</g>
<!-- Node3 -->
<g id="Node000003" class="node">
<title>Node3</title>
<g id="a_Node000003"><a xlink:href="structno__os__i3c__platform__ops.html" target="_top" xlink:title="Structure holding I3C function pointers that point to the platform specific function.">
<polygon fill="white" stroke="#666666" points="372,-150.22 238,-150.22 238,-131.22 372,-131.22 372,-150.22"/>
<text text-anchor="middle" x="305" y="-138.22" font-family="Helvetica,sans-Serif" font-size="10.00">no_os_i3c_platform_ops</text>
</a>
</g>
</g>
<!-- Node3&#45;&gt;Node2 -->
<g id="edge2_Node000002_Node000003" class="edge">
<title>Node3&#45;&gt;Node2</title>
<g id="a_edge2_Node000002_Node000003"><a xlink:title=" ">
<path fill="none" stroke="#9a32cd" stroke-dasharray="5,2" d="M382.45,-132.4C421.13,-128.19 466.76,-123.23 499.81,-119.63"/>
<polygon fill="#9a32cd" stroke="#9a32cd" points="381.82,-128.95 372.26,-133.51 382.58,-135.91 381.82,-128.95"/>
</a>
</g>
<text text-anchor="middle" x="431.5" y="-133.72" font-family="Helvetica,sans-Serif" font-size="10.00" fill="grey"> platform_ops</text>
</g>
<!-- Node3&#45;&gt;Node4 -->
<g id="edge7_Node000004_Node000003" class="edge">
<title>Node3&#45;&gt;Node4</title>
<g id="a_edge7_Node000004_Node000003"><a xlink:title=" ">
<path fill="none" stroke="#9a32cd" stroke-dasharray="5,2" d="M382.23,-145.26C384.85,-145.41 387.45,-145.57 390,-145.72 506.33,-152.51 642.49,-160.26 717.39,-164.51"/>
<polygon fill="#9a32cd" stroke="#9a32cd" points="382.22,-141.75 372.03,-144.66 381.81,-148.74 382.22,-141.75"/>
</a>
</g>
<text text-anchor="middle" x="546" y="-160.72" font-family="Helvetica,sans-Serif" font-size="10.00" fill="grey"> platform_ops</text>
</g>
<!-- Node4&#45;&gt;Node2 -->
<g id="edge3_Node000002_Node000004" class="edge">
<title>Node4&#45;&gt;Node2</title>
<g id="a_edge3_Node000002_Node000004"><a xlink:title=" ">
<path fill="none" stroke="#9a32cd" stroke-dasharray="5,2" d="M758.67,-150.46C744.74,-136.18 722.78,-116.95 699,-108.72 662.94,-96.23 619.16,-99.75 587.86,-105.19"/>
<polygon fill="#9a32cd" stroke="#9a32cd" points="756.15,-152.89 765.55,-157.78 761.25,-148.1 756.15,-152.89"/>
</a>
</g>
<text text-anchor="middle" x="659" y="-111.72" font-family="Helvetica,sans-Serif" font-size="10.00" fill="grey"> bus</text>
</g>
<!-- Node5 -->
<g id="Node000005" class="node">
<title>Node5</title>
<g id="a_Node000005"><a xlink:href="structno__os__i3c__daa__lut.html" target="_top" xlink:title="Stores the PID + DA information to look&#45;up during the DAA. Should be used only for device initializat...">
<polygon fill="white" stroke="#666666" points="599,-253.22 493,-253.22 493,-234.22 599,-234.22 599,-253.22"/>
<text text-anchor="middle" x="546" y="-241.22" font-family="Helvetica,sans-Serif" font-size="10.00">no_os_i3c_daa_lut</text>
</a>
</g>
</g>
<!-- Node5&#45;&gt;Node4 -->
<g id="edge4_Node000004_Node000005" class="edge">
<title>Node5&#45;&gt;Node4</title>
<g id="a_edge4_Node000004_Node000005"><a xlink:title=" ">
<path fill="none" stroke="#9a32cd" stroke-dasharray="5,2" d="M609.17,-234.04C637.18,-228.61 670.32,-220.68 699,-209.72 721.44,-201.13 745.32,-186.73 759.95,-177.23"/>
<polygon fill="#9a32cd" stroke="#9a32cd" points="608.29,-230.64 599.1,-235.93 609.58,-237.52 608.29,-230.64"/>
</a>
</g>
<text text-anchor="middle" x="659" y="-244.72" font-family="Helvetica,sans-Serif" font-size="10.00" fill="grey"> daa_candidates</text>
<text text-anchor="middle" x="659" y="-233.72" font-family="Helvetica,sans-Serif" font-size="10.00" fill="grey">daa_unknown</text>
</g>
<!-- Node6 -->
<g id="Node000006" class="node">
<title>Node6</title>
<g id="a_Node000006"><a xlink:href="structno__os__i3c__ccc__info.html" target="_top" xlink:title=" ">
<polygon fill="white" stroke="#666666" points="601,-216.22 491,-216.22 491,-197.22 601,-197.22 601,-216.22"/>
<text text-anchor="middle" x="546" y="-204.22" font-family="Helvetica,sans-Serif" font-size="10.00">no_os_i3c_ccc_info</text>
</a>
</g>
</g>
<!-- Node6&#45;&gt;Node4 -->
<g id="edge6_Node000004_Node000006" class="edge">
<title>Node6&#45;&gt;Node4</title>
<g id="a_edge6_Node000004_Node000006"><a xlink:title=" ">
<path fill="none" stroke="#9a32cd" stroke-dasharray="5,2" d="M611.35,-196.45C638.43,-192.04 670.27,-186.76 699,-181.72 706.96,-180.32 715.38,-178.79 723.6,-177.28"/>
<polygon fill="#9a32cd" stroke="#9a32cd" points="610.53,-193.03 601.22,-198.09 611.65,-199.94 610.53,-193.03"/>
</a>
</g>
<text text-anchor="middle" x="659" y="-197.72" font-family="Helvetica,sans-Serif" font-size="10.00" fill="grey"> ccc_info</text>
</g>
<!-- Node7 -->
<g id="Node000007" class="node">
<title>Node7</title>
<g id="a_Node000007"><a xlink:href="structno__os__spi__desc.html" target="_top" xlink:title="Structure holding SPI descriptor.">
<polygon fill="white" stroke="#666666" points="592,-49.22 500,-49.22 500,-30.22 592,-30.22 592,-49.22"/>
<text text-anchor="middle" x="546" y="-37.22" font-family="Helvetica,sans-Serif" font-size="10.00">no_os_spi_desc</text>
</a>
</g>
</g>
<!-- Node7&#45;&gt;Node1 -->
<g id="edge8_Node000001_Node000007" class="edge">
<title>Node7&#45;&gt;Node1</title>
<g id="a_edge8_Node000001_Node000007"><a xlink:title=" ">
<path fill="none" stroke="#9a32cd" stroke-dasharray="5,2" d="M602.34,-37.38C631.23,-36.85 667.11,-37.25 699,-40.72 711.31,-42.06 724.57,-44.53 736.47,-47.15"/>
<polygon fill="#9a32cd" stroke="#9a32cd" points="601.95,-33.89 592.03,-37.62 602.11,-40.89 601.95,-33.89"/>
</a>
</g>
<text text-anchor="middle" x="659" y="-43.72" font-family="Helvetica,sans-Serif" font-size="10.00" fill="grey"> spi_desc</text>
</g>
<!-- Node7&#45;&gt;Node7 -->
<g id="edge13_Node000007_Node000007" class="edge">
<title>Node7&#45;&gt;Node7</title>
<g id="a_edge13_Node000007_Node000007"><a xlink:title=" ">
<path fill="none" stroke="#9a32cd" stroke-dasharray="5,2" d="M525.26,-58.77C526.65,-63.6 533.56,-67.22 546,-67.22 565.91,-67.22 571.66,-57.95 563.26,-49.3"/>
<polygon fill="#9a32cd" stroke="#9a32cd" points="528.58,-59.89 528.74,-49.3 522.01,-57.48 528.58,-59.89"/>
</a>
</g>
<text text-anchor="middle" x="546" y="-70.22" font-family="Helvetica,sans-Serif" font-size="10.00" fill="grey"> parent</text>
</g>
<!-- Node8 -->
<g id="Node000008" class="node">
<title>Node8</title>
<g id="a_Node000008"><a xlink:href="structno__os__spibus__desc.html" target="_top" xlink:title="SPI bus descriptor.">
<polygon fill="white" stroke="#666666" points="360,-92.22 250,-92.22 250,-73.22 360,-73.22 360,-92.22"/>
<text text-anchor="middle" x="305" y="-80.22" font-family="Helvetica,sans-Serif" font-size="10.00">no_os_spibus_desc</text>
</a>
</g>
</g>
<!-- Node8&#45;&gt;Node7 -->
<g id="edge9_Node000007_Node000008" class="edge">
<title>Node8&#45;&gt;Node7</title>
<g id="a_edge9_Node000007_Node000008"><a xlink:title=" ">
<path fill="none" stroke="#9a32cd" stroke-dasharray="5,2" d="M370.5,-72.51C401.54,-67.44 439.26,-61.06 473,-54.72 481.91,-53.04 491.42,-51.14 500.5,-49.27"/>
<polygon fill="#9a32cd" stroke="#9a32cd" points="369.56,-69.12 360.25,-74.17 370.68,-76.02 369.56,-69.12"/>
</a>
</g>
<text text-anchor="middle" x="431.5" y="-71.72" font-family="Helvetica,sans-Serif" font-size="10.00" fill="grey"> bus</text>
</g>
<!-- Node9 -->
<g id="Node000009" class="node">
<title>Node9</title>
<g id="a_Node000009"><a xlink:href="structno__os__spi__platform__ops.html" target="_top" xlink:title="Structure holding SPI function pointers that point to the platform specific function.">
<polygon fill="white" stroke="#666666" points="134,-21.22 0,-21.22 0,-2.22 134,-2.22 134,-21.22"/>
<text text-anchor="middle" x="67" y="-9.22" font-family="Helvetica,sans-Serif" font-size="10.00">no_os_spi_platform_ops</text>
</a>
</g>
</g>
<!-- Node9&#45;&gt;Node7 -->
<g id="edge11_Node000007_Node000009" class="edge">
<title>Node9&#45;&gt;Node7</title>
<g id="a_edge11_Node000007_Node000009"><a xlink:title=" ">
<path fill="none" stroke="#9a32cd" stroke-dasharray="5,2" d="M144.03,-4.81C205.65,-0.45 294.62,3.03 372,-4.72 419.87,-9.51 474.09,-21.59 508.87,-30.21"/>
<polygon fill="#9a32cd" stroke="#9a32cd" points="143.72,-1.32 134,-5.54 144.23,-8.31 143.72,-1.32"/>
</a>
</g>
<text text-anchor="middle" x="305" y="-7.72" font-family="Helvetica,sans-Serif" font-size="10.00" fill="grey"> platform_ops</text>
</g>
<!-- Node9&#45;&gt;Node8 -->
<g id="edge10_Node000008_Node000009" class="edge">
<title>Node9&#45;&gt;Node8</title>
<g id="a_edge10_Node000008_Node000009"><a xlink:title=" ">
<path fill="none" stroke="#9a32cd" stroke-dasharray="5,2" d="M108.35,-24.27C142.76,-34.92 193.57,-50.53 238,-63.72 248.52,-66.84 260,-70.17 270.39,-73.16"/>
<polygon fill="#9a32cd" stroke="#9a32cd" points="109.25,-20.88 98.66,-21.26 107.18,-27.57 109.25,-20.88"/>
</a>
</g>
<text text-anchor="middle" x="186" y="-60.72" font-family="Helvetica,sans-Serif" font-size="10.00" fill="grey"> platform_ops</text>
</g>
<!-- Node10 -->
<g id="Node000010" class="node">
<title>Node10</title>
<g id="a_Node000010"><a xlink:href="structno__os__platform__spi__delays.html" target="_top" xlink:title="Delays resulted from components in the SPI signal path. The values is ns.">
<polygon fill="white" stroke="#666666" points="361,-54.72 249,-54.72 249,-24.72 361,-24.72 361,-54.72"/>
<text text-anchor="start" x="257" y="-42.72" font-family="Helvetica,sans-Serif" font-size="10.00">no_os_platform_spi</text>
<text text-anchor="middle" x="305" y="-31.72" font-family="Helvetica,sans-Serif" font-size="10.00">_delays</text>
</a>
</g>
</g>
<!-- Node10&#45;&gt;Node7 -->
<g id="edge12_Node000007_Node000010" class="edge">
<title>Node10&#45;&gt;Node7</title>
<g id="a_edge12_Node000007_Node000010"><a xlink:title=" ">
<path fill="none" stroke="#9a32cd" stroke-dasharray="5,2" d="M371.25,-39.72C412.01,-39.72 463.45,-39.72 499.76,-39.72"/>
<polygon fill="#9a32cd" stroke="#9a32cd" points="371.13,-36.22 361.13,-39.72 371.13,-43.22 371.13,-36.22"/>
</a>
</g>
<text text-anchor="middle" x="431.5" y="-42.72" font-family="Helvetica,sans-Serif" font-size="10.00" fill="grey"> platform_delays</text>
</g>
</g>
</svg>

<g id="navigator" transform="translate(0 0)" fill="#404254">
  <rect fill="#f2f5e9" fill-opacity="0.5" stroke="#606060" stroke-width=".5" x="0" y="0" width="60" height="60"/>
  <use id="zoomplus" xlink:href="#zoomPlus" x="17" y="9" onmousedown="handleZoom(evt,'in')"/>
  <use id="zoomminus" xlink:href="#zoomMin" x="42" y="9" onmousedown="handleZoom(evt,'out')"/>
  <use id="reset" xlink:href="#resetDef" x="30" y="36" onmousedown="handleReset()"/>
   <use id="arrowup" xlink:href="#arrowUp" x="0" y="0" onmousedown="handlePan(0,-1)"/>
  <use id="arrowright" xlink:href="#arrowRight" x="0" y="0" onmousedown="handlePan(1,0)"/>
  <use id="arrowdown" xlink:href="#arrowDown" x="0" y="0" onmousedown="handlePan(0,1)"/>
  <use id="arrowleft" xlink:href="#arrowLeft" x="0" y="0" onmousedown="handlePan(-1,0)"/>
</g>
<svg viewBox="0 0 15 15" width="100%" height="30px" preserveAspectRatio="xMaxYMin meet">
 <g id="arrow_out" transform="scale(0.3 0.3)">
  <a xlink:href="unionad405x__comm__desc__coll__graph_org.svg" target="_base">
   <rect id="button" ry="5" rx="5" y="6" x="6" height="38" width="38"
        fill="#f2f5e9" fill-opacity="0.5" stroke="#606060" stroke-width="1.0"/>
   <path id="arrow"
     d="M 11.500037,31.436501 C 11.940474,20.09759 22.043105,11.32322 32.158766,21.979434 L 37.068811,17.246167 C 37.068811,17.246167 37.088388,32 37.088388,32 L 22.160133,31.978069 C 22.160133,31.978069 26.997745,27.140456 26.997745,27.140456 C 18.528582,18.264221 13.291696,25.230495 11.500037,31.436501 z"
     style="fill:#404040;"/>
  </a>
 </g>
</svg>

<style type='text/css'>
<![CDATA[
[data-mouse-over-selected='false'] { opacity: 0.7; }
[data-mouse-over-selected='true']  { opacity: 1.0; }
]]>
</style>
<script type="application/ecmascript"><![CDATA[
document.addEventListener('DOMContentLoaded', (event) => {
  highlightEdges();
  highlightAdjacentNodes();
});
]]></script>
</svg>
