<?xml version="1.0" encoding="UTF-8" standalone="no"?>
<!DOCTYPE svg PUBLIC "-//W3C//DTD SVG 1.1//EN"
 "http://www.w3.org/Graphics/SVG/1.1/DTD/svg11.dtd">
<!-- Generated by graphviz version 2.43.0 (0)
 -->
<!-- Title: adpd188_phy_init Pages: 1 -->
<!--zoomable 201 -->

<svg id="main" version="1.1" xmlns="http://www.w3.org/2000/svg" xmlns:xlink="http://www.w3.org/1999/xlink" xml:space="preserve" onload="init(evt)">

<style type="text/css"><![CDATA[
.node, .edge {opacity: 0.7;}
.node.selected, .edge.selected {opacity: 1;}
.edge:hover path { stroke: red; }
.edge:hover polygon { stroke: red; fill: red; }
]]></style>

<defs>
  <circle id="rim" cx="0" cy="0" r="7"/>
  <circle id="rim2" cx="0" cy="0" r="3.5"/>
  <g id="zoomPlus">
    <use xlink:href="#rim" fill="#404040"><set attributeName="fill" to="#808080" begin="zoomplus.mouseover" end="zoomplus.mouseout"/></use>
    <path d="M-4,0h8M0,-4v8" fill="none" stroke="white" stroke-width="1.5" pointer-events="none"/>
  </g>
  <g id="zoomMin">
    <use xlink:href="#rim" fill="#404040"><set attributeName="fill" to="#808080" begin="zoomminus.mouseover" end="zoomminus.mouseout"/></use>
    <path d="M-4,0h8" fill="none" stroke="white" stroke-width="1.5" pointer-events="none"/>
  </g>
  <g id="arrowUp" transform="translate(30 24)">
    <use xlink:href="#rim"/>
    <path pointer-events="none" fill="none" stroke="white" stroke-width="1.5" d="M0,-3.0v7 M-2.5,-0.5L0,-3.0L2.5,-0.5"/>
  </g>
  <g id="arrowRight" transform="rotate(90) translate(36 -43)">
    <use xlink:href="#rim"/>
    <path pointer-events="none" fill="none" stroke="white" stroke-width="1.5" d="M0,-3.0v7 M-2.5,-0.5L0,-3.0L2.5,-0.5"/>
  </g>
  <g id="arrowDown" transform="rotate(180) translate(-30 -48)">
    <use xlink:href="#rim"/>
    <path pointer-events="none" fill="none" stroke="white" stroke-width="1.5" d="M0,-3.0v7 M-2.5,-0.5L0,-3.0L2.5,-0.5"/>
  </g>
  <g id="arrowLeft" transform="rotate(270) translate(-36 17)">
    <use xlink:href="#rim"/>
    <path pointer-events="none" fill="none" stroke="white" stroke-width="1.5" d="M0,-3.0v7 M-2.5,-0.5L0,-3.0L2.5,-0.5"/>
  </g>
  <g id="resetDef">
    <use xlink:href="#rim2" fill="#404040"><set attributeName="fill" to="#808080" begin="reset.mouseover" end="reset.mouseout"/></use>
  </g>
</defs>
<script type="application/ecmascript">
var viewWidth = 1017;
var viewHeight = 201;
var sectionId = 'dynsection-0';
</script>
<script type="application/ecmascript" xlink:href="svg.min.js"/>
<svg id="graph" class="graph">
<g id="viewport">
<title>adpd188_phy_init</title>
<!-- Node1 -->
<g id="Node000001" class="node">
<title>Node1</title>
<g id="a_Node000001"><a xlink:title="Communication physical protocol initialization structure. Can be I2C or SPI.">
<polygon fill="#999999" stroke="#666666" points="1009,-147.5 906,-147.5 906,-128.5 1009,-128.5 1009,-147.5"/>
<text text-anchor="middle" x="957.5" y="-135.5" font-family="Helvetica,sans-Serif" font-size="10.00">adpd188_phy_init</text>
</a>
</g>
</g>
<!-- Node2 -->
<g id="Node000002" class="node">
<title>Node2</title>
<g id="a_Node000002"><a xlink:href="structno__os__i2c__init__param.html" target="_top" xlink:title="Structure holding the parameters for I2C initialization.">
<polygon fill="white" stroke="#666666" points="829,-183.5 707,-183.5 707,-164.5 829,-164.5 829,-183.5"/>
<text text-anchor="middle" x="768" y="-171.5" font-family="Helvetica,sans-Serif" font-size="10.00">no_os_i2c_init_param</text>
</a>
</g>
</g>
<!-- Node2&#45;&gt;Node1 -->
<g id="edge1_Node000001_Node000002" class="edge">
<title>Node2&#45;&gt;Node1</title>
<g id="a_edge1_Node000001_Node000002"><a xlink:title=" ">
<path fill="none" stroke="#9a32cd" stroke-dasharray="5,2" d="M828.91,-162.5C854.04,-157.67 882.92,-152.13 906.84,-147.53"/>
<polygon fill="#9a32cd" stroke="#9a32cd" points="827.91,-159.12 818.75,-164.45 829.23,-166 827.91,-159.12"/>
</a>
</g>
<text text-anchor="middle" x="867.5" y="-161" font-family="Helvetica,sans-Serif" font-size="10.00" fill="grey"> i2c_phy</text>
</g>
<!-- Node3 -->
<g id="Node000003" class="node">
<title>Node3</title>
<g id="a_Node000003"><a xlink:href="structno__os__i2c__platform__ops.html" target="_top" xlink:title="Structure holding I2C function pointers that point to the platform specific function.">
<polygon fill="white" stroke="#666666" points="603,-192.5 469,-192.5 469,-173.5 603,-173.5 603,-192.5"/>
<text text-anchor="middle" x="536" y="-180.5" font-family="Helvetica,sans-Serif" font-size="10.00">no_os_i2c_platform_ops</text>
</a>
</g>
</g>
<!-- Node3&#45;&gt;Node2 -->
<g id="edge2_Node000002_Node000003" class="edge">
<title>Node3&#45;&gt;Node2</title>
<g id="a_edge2_Node000002_Node000003"><a xlink:title=" ">
<path fill="none" stroke="#9a32cd" stroke-dasharray="5,2" d="M613.35,-180.01C643.73,-178.82 678.18,-177.48 706.75,-176.36"/>
<polygon fill="#9a32cd" stroke="#9a32cd" points="613.07,-176.52 603.22,-180.41 613.35,-183.52 613.07,-176.52"/>
</a>
</g>
<text text-anchor="middle" x="655" y="-182" font-family="Helvetica,sans-Serif" font-size="10.00" fill="grey"> platform_ops</text>
</g>
<!-- Node4 -->
<g id="Node000004" class="node">
<title>Node4</title>
<g id="a_Node000004"><a xlink:href="structno__os__spi__init__param.html" target="_top" xlink:title="Structure holding the parameters for SPI initialization.">
<polygon fill="white" stroke="#666666" points="829,-129.5 707,-129.5 707,-110.5 829,-110.5 829,-129.5"/>
<text text-anchor="middle" x="768" y="-117.5" font-family="Helvetica,sans-Serif" font-size="10.00">no_os_spi_init_param</text>
</a>
</g>
</g>
<!-- Node4&#45;&gt;Node1 -->
<g id="edge3_Node000001_Node000004" class="edge">
<title>Node4&#45;&gt;Node1</title>
<g id="a_edge3_Node000001_Node000004"><a xlink:title=" ">
<path fill="none" stroke="#9a32cd" stroke-dasharray="5,2" d="M839.45,-119.56C855.46,-120.08 872.35,-121.11 888,-123 898.15,-124.23 909.02,-126.27 919.03,-128.45"/>
<polygon fill="#9a32cd" stroke="#9a32cd" points="839.18,-116.05 829.09,-119.29 839,-123.05 839.18,-116.05"/>
</a>
</g>
<text text-anchor="middle" x="867.5" y="-126" font-family="Helvetica,sans-Serif" font-size="10.00" fill="grey"> spi_phy</text>
</g>
<!-- Node5 -->
<g id="Node000005" class="node">
<title>Node5</title>
<g id="a_Node000005"><a xlink:href="structno__os__spi__platform__ops.html" target="_top" xlink:title="Structure holding SPI function pointers that point to the platform specific function.">
<polygon fill="white" stroke="#666666" points="134,-115.5 0,-115.5 0,-96.5 134,-96.5 134,-115.5"/>
<text text-anchor="middle" x="67" y="-103.5" font-family="Helvetica,sans-Serif" font-size="10.00">no_os_spi_platform_ops</text>
</a>
</g>
</g>
<!-- Node5&#45;&gt;Node4 -->
<g id="edge4_Node000004_Node000005" class="edge">
<title>Node5&#45;&gt;Node4</title>
<g id="a_edge4_Node000004_Node000005"><a xlink:title=" ">
<path fill="none" stroke="#9a32cd" stroke-dasharray="5,2" d="M144.68,-114.45C147.15,-114.64 149.59,-114.83 152,-115 352,-129.17 402.53,-129.67 603,-126 637.33,-125.37 675.67,-124.01 706.65,-122.74"/>
<polygon fill="#9a32cd" stroke="#9a32cd" points="144.71,-110.94 134.45,-113.57 144.11,-117.91 144.71,-110.94"/>
</a>
</g>
<text text-anchor="middle" x="409.5" y="-130" font-family="Helvetica,sans-Serif" font-size="10.00" fill="grey"> platform_ops</text>
</g>
<!-- Node7 -->
<g id="Node000007" class="node">
<title>Node7</title>
<g id="a_Node000007"><a xlink:href="structno__os__spi__desc.html" target="_top" xlink:title="Structure holding SPI descriptor.">
<polygon fill="white" stroke="#666666" points="582,-87.5 490,-87.5 490,-68.5 582,-68.5 582,-87.5"/>
<text text-anchor="middle" x="536" y="-75.5" font-family="Helvetica,sans-Serif" font-size="10.00">no_os_spi_desc</text>
</a>
</g>
</g>
<!-- Node5&#45;&gt;Node7 -->
<g id="edge9_Node000007_Node000005" class="edge">
<title>Node5&#45;&gt;Node7</title>
<g id="a_edge9_Node000007_Node000005"><a xlink:title=" ">
<path fill="none" stroke="#9a32cd" stroke-dasharray="5,2" d="M144.27,-102.98C221.61,-99.69 344.71,-93.83 451,-86 463.56,-85.07 477.17,-83.87 489.69,-82.67"/>
<polygon fill="#9a32cd" stroke="#9a32cd" points="143.98,-99.49 134.13,-103.41 144.27,-106.48 143.98,-99.49"/>
</a>
</g>
<text text-anchor="middle" x="294" y="-101" font-family="Helvetica,sans-Serif" font-size="10.00" fill="grey"> platform_ops</text>
</g>
<!-- Node8 -->
<g id="Node000008" class="node">
<title>Node8</title>
<g id="a_Node000008"><a xlink:href="structno__os__spibus__desc.html" target="_top" xlink:title="SPI bus descriptor.">
<polygon fill="white" stroke="#666666" points="349,-69.5 239,-69.5 239,-50.5 349,-50.5 349,-69.5"/>
<text text-anchor="middle" x="294" y="-57.5" font-family="Helvetica,sans-Serif" font-size="10.00">no_os_spibus_desc</text>
</a>
</g>
</g>
<!-- Node5&#45;&gt;Node8 -->
<g id="edge8_Node000008_Node000005" class="edge">
<title>Node5&#45;&gt;Node8</title>
<g id="a_edge8_Node000008_Node000005"><a xlink:title=" ">
<path fill="none" stroke="#9a32cd" stroke-dasharray="5,2" d="M106.43,-93.32C120.63,-88.96 136.94,-84.34 152,-81 180.39,-74.69 212.42,-69.75 238.77,-66.25"/>
<polygon fill="#9a32cd" stroke="#9a32cd" points="105,-90.1 96.51,-96.42 107.09,-96.78 105,-90.1"/>
</a>
</g>
<text text-anchor="middle" x="186" y="-84" font-family="Helvetica,sans-Serif" font-size="10.00" fill="grey"> platform_ops</text>
</g>
<!-- Node6 -->
<g id="Node000006" class="node">
<title>Node6</title>
<g id="a_Node000006"><a xlink:href="structno__os__platform__spi__delays.html" target="_top" xlink:title="Delays resulted from components in the SPI signal path. The values is ns.">
<polygon fill="white" stroke="#666666" points="350,-30 238,-30 238,0 350,0 350,-30"/>
<text text-anchor="start" x="246" y="-18" font-family="Helvetica,sans-Serif" font-size="10.00">no_os_platform_spi</text>
<text text-anchor="middle" x="294" y="-7" font-family="Helvetica,sans-Serif" font-size="10.00">_delays</text>
</a>
</g>
</g>
<!-- Node6&#45;&gt;Node4 -->
<g id="edge5_Node000004_Node000006" class="edge">
<title>Node6&#45;&gt;Node4</title>
<g id="a_edge5_Node000004_Node000006"><a xlink:title=" ">
<path fill="none" stroke="#9a32cd" stroke-dasharray="5,2" d="M360.23,-15.96C423.41,-18.33 521.37,-25.87 603,-49 658.22,-64.65 719.28,-94.76 748.9,-110.26"/>
<polygon fill="#9a32cd" stroke="#9a32cd" points="360.13,-12.45 350.01,-15.61 359.89,-19.45 360.13,-12.45"/>
</a>
</g>
<text text-anchor="middle" x="536" y="-52" font-family="Helvetica,sans-Serif" font-size="10.00" fill="grey"> platform_delays</text>
</g>
<!-- Node6&#45;&gt;Node7 -->
<g id="edge10_Node000007_Node000006" class="edge">
<title>Node6&#45;&gt;Node7</title>
<g id="a_edge10_Node000007_Node000006"><a xlink:title=" ">
<path fill="none" stroke="#9a32cd" stroke-dasharray="5,2" d="M360.31,-28.11C388.38,-34.15 421.47,-41.79 451,-50 470.55,-55.44 492.27,-62.71 508.73,-68.48"/>
<polygon fill="#9a32cd" stroke="#9a32cd" points="360.72,-24.62 350.21,-25.97 359.26,-31.47 360.72,-24.62"/>
</a>
</g>
<text text-anchor="middle" x="409.5" y="-53" font-family="Helvetica,sans-Serif" font-size="10.00" fill="grey"> platform_delays</text>
</g>
<!-- Node7&#45;&gt;Node4 -->
<g id="edge6_Node000004_Node000007" class="edge">
<title>Node7&#45;&gt;Node4</title>
<g id="a_edge6_Node000004_Node000007"><a xlink:title=" ">
<path fill="none" stroke="#9a32cd" stroke-dasharray="5,2" d="M592.33,-88.1C629.5,-94.89 678.17,-103.78 714.7,-110.45"/>
<polygon fill="#9a32cd" stroke="#9a32cd" points="592.63,-84.6 582.17,-86.25 591.37,-91.49 592.63,-84.6"/>
</a>
</g>
<text text-anchor="middle" x="655" y="-108" font-family="Helvetica,sans-Serif" font-size="10.00" fill="grey"> parent</text>
</g>
<!-- Node7&#45;&gt;Node7 -->
<g id="edge11_Node000007_Node000007" class="edge">
<title>Node7&#45;&gt;Node7</title>
<g id="a_edge11_Node000007_Node000007"><a xlink:title=" ">
<path fill="none" stroke="#9a32cd" stroke-dasharray="5,2" d="M514.15,-97.05C515.61,-101.88 522.89,-105.5 536,-105.5 556.97,-105.5 563.04,-96.23 554.19,-87.58"/>
<polygon fill="#9a32cd" stroke="#9a32cd" points="517.47,-98.17 517.81,-87.58 510.94,-95.65 517.47,-98.17"/>
</a>
</g>
<text text-anchor="middle" x="536" y="-108.5" font-family="Helvetica,sans-Serif" font-size="10.00" fill="grey"> parent</text>
</g>
<!-- Node8&#45;&gt;Node7 -->
<g id="edge7_Node000007_Node000008" class="edge">
<title>Node8&#45;&gt;Node7</title>
<g id="a_edge7_Node000007_Node000008"><a xlink:title=" ">
<path fill="none" stroke="#9a32cd" stroke-dasharray="5,2" d="M359.38,-64.83C400.61,-67.92 453.08,-71.86 489.89,-74.62"/>
<polygon fill="#9a32cd" stroke="#9a32cd" points="359.39,-61.32 349.16,-64.06 358.87,-68.3 359.39,-61.32"/>
</a>
</g>
<text text-anchor="middle" x="409.5" y="-74" font-family="Helvetica,sans-Serif" font-size="10.00" fill="grey"> bus</text>
</g>
</g>
</svg>

<g id="navigator" transform="translate(0 0)" fill="#404254">
  <rect fill="#f2f5e9" fill-opacity="0.5" stroke="#606060" stroke-width=".5" x="0" y="0" width="60" height="60"/>
  <use id="zoomplus" xlink:href="#zoomPlus" x="17" y="9" onmousedown="handleZoom(evt,'in')"/>
  <use id="zoomminus" xlink:href="#zoomMin" x="42" y="9" onmousedown="handleZoom(evt,'out')"/>
  <use id="reset" xlink:href="#resetDef" x="30" y="36" onmousedown="handleReset()"/>
   <use id="arrowup" xlink:href="#arrowUp" x="0" y="0" onmousedown="handlePan(0,-1)"/>
  <use id="arrowright" xlink:href="#arrowRight" x="0" y="0" onmousedown="handlePan(1,0)"/>
  <use id="arrowdown" xlink:href="#arrowDown" x="0" y="0" onmousedown="handlePan(0,1)"/>
  <use id="arrowleft" xlink:href="#arrowLeft" x="0" y="0" onmousedown="handlePan(-1,0)"/>
</g>
<svg viewBox="0 0 15 15" width="100%" height="30px" preserveAspectRatio="xMaxYMin meet">
 <g id="arrow_out" transform="scale(0.3 0.3)">
  <a xlink:href="unionadpd188__phy__init__coll__graph_org.svg" target="_base">
   <rect id="button" ry="5" rx="5" y="6" x="6" height="38" width="38"
        fill="#f2f5e9" fill-opacity="0.5" stroke="#606060" stroke-width="1.0"/>
   <path id="arrow"
     d="M 11.500037,31.436501 C 11.940474,20.09759 22.043105,11.32322 32.158766,21.979434 L 37.068811,17.246167 C 37.068811,17.246167 37.088388,32 37.088388,32 L 22.160133,31.978069 C 22.160133,31.978069 26.997745,27.140456 26.997745,27.140456 C 18.528582,18.264221 13.291696,25.230495 11.500037,31.436501 z"
     style="fill:#404040;"/>
  </a>
 </g>
</svg>

<style type='text/css'>
<![CDATA[
[data-mouse-over-selected='false'] { opacity: 0.7; }
[data-mouse-over-selected='true']  { opacity: 1.0; }
]]>
</style>
<script type="application/ecmascript"><![CDATA[
document.addEventListener('DOMContentLoaded', (event) => {
  highlightEdges();
  highlightAdjacentNodes();
});
]]></script>
</svg>
