<?xml version="1.0" encoding="UTF-8" standalone="no"?>
<!DOCTYPE svg PUBLIC "-//W3C//DTD SVG 1.1//EN"
 "http://www.w3.org/Graphics/SVG/1.1/DTD/svg11.dtd">
<!-- Generated by graphviz version 2.43.0 (0)
 -->
<!-- Title: w5500_socket_command_write Pages: 1 -->
<svg width="478pt" height="323pt"
 viewBox="0.00 0.00 478.00 323.00" xmlns="http://www.w3.org/2000/svg" xmlns:xlink="http://www.w3.org/1999/xlink">

<svg id="main" version="1.1" xmlns="http://www.w3.org/2000/svg" xmlns:xlink="http://www.w3.org/1999/xlink" xml:space="preserve">

<style type="text/css"><![CDATA[
.node, .edge {opacity: 0.7;}
.node.selected, .edge.selected {opacity: 1;}
.edge:hover path { stroke: red; }
.edge:hover polygon { stroke: red; fill: red; }
]]></style>
<script type="application/ecmascript" xlink:href="svg.min.js"/>
<svg id="graph" class="graph">
<g id="graph0" class="graph" transform="scale(1 1) rotate(0) translate(4 319)">
<title>w5500_socket_command_write</title>
<!-- Node1 -->
<g id="Node000001" class="node">
<title>Node1</title>
<g id="a_Node000001"><a xlink:title="Write a command to a socket&#39;s command register.">
<polygon fill="#999999" stroke="#666666" points="470,-172.5 330,-172.5 330,-142.5 470,-142.5 470,-172.5"/>
<text text-anchor="start" x="338" y="-160.5" font-family="Helvetica,sans-Serif" font-size="10.00">w5500_socket_command</text>
<text text-anchor="middle" x="400" y="-149.5" font-family="Helvetica,sans-Serif" font-size="10.00">_write</text>
</a>
</g>
</g>
<!-- Node2 -->
<g id="Node000002" class="node">
<title>Node2</title>
<g id="a_Node000002"><a xlink:href="w5500_8c.html#ad97cbe485e6e3a1a4a556a0a4abff570" target="_top" xlink:title="Close a socket.">
<polygon fill="white" stroke="#666666" points="280.5,-315 164.5,-315 164.5,-296 280.5,-296 280.5,-315"/>
<text text-anchor="middle" x="222.5" y="-303" font-family="Helvetica,sans-Serif" font-size="10.00">w5500_socket_close</text>
</a>
</g>
</g>
<!-- Node1&#45;&gt;Node2 -->
<g id="edge1_Node000001_Node000002" class="edge">
<title>Node1&#45;&gt;Node2</title>
<g id="a_edge1_Node000001_Node000002"><a xlink:title=" ">
<path fill="none" stroke="#63b8ff" d="M386.17,-181.42C369.09,-210.93 336.08,-260.49 294,-287.5 288.68,-290.91 282.76,-293.68 276.66,-295.92"/>
<polygon fill="#63b8ff" stroke="#63b8ff" points="389.28,-183.03 391.15,-172.6 383.19,-179.59 389.28,-183.03"/>
</a>
</g>
</g>
<!-- Node3 -->
<g id="Node000003" class="node">
<title>Node3</title>
<g id="a_Node000003"><a xlink:href="w5500_8c.html#a77ceba7865a139cc6fa95161c38637b6" target="_top" xlink:title="Connect to a remote host (TCP client mode)">
<polygon fill="white" stroke="#666666" points="287,-278 158,-278 158,-259 287,-259 287,-278"/>
<text text-anchor="middle" x="222.5" y="-266" font-family="Helvetica,sans-Serif" font-size="10.00">w5500_socket_connect</text>
</a>
</g>
</g>
<!-- Node1&#45;&gt;Node3 -->
<g id="edge2_Node000001_Node000003" class="edge">
<title>Node1&#45;&gt;Node3</title>
<g id="a_edge2_Node000001_Node000003"><a xlink:title=" ">
<path fill="none" stroke="#63b8ff" d="M379.17,-180.45C359.6,-201.69 327.77,-232.6 294,-250.5 287.64,-253.87 280.61,-256.64 273.54,-258.89"/>
<polygon fill="#63b8ff" stroke="#63b8ff" points="381.95,-182.6 386.05,-172.84 376.75,-177.91 381.95,-182.6"/>
</a>
</g>
</g>
<!-- Node4 -->
<g id="Node000004" class="node">
<title>Node4</title>
<g id="a_Node000004"><a xlink:href="w5500_8c.html#af5cfb6fdba4b4ec8845f1be91ed024ca" target="_top" xlink:title="Disconnect a TCP connection.">
<polygon fill="white" stroke="#666666" points="294,-241 151,-241 151,-222 294,-222 294,-241"/>
<text text-anchor="middle" x="222.5" y="-229" font-family="Helvetica,sans-Serif" font-size="10.00">w5500_socket_disconnect</text>
</a>
</g>
</g>
<!-- Node1&#45;&gt;Node4 -->
<g id="edge3_Node000001_Node000004" class="edge">
<title>Node1&#45;&gt;Node4</title>
<g id="a_edge3_Node000001_Node000004"><a xlink:title=" ">
<path fill="none" stroke="#63b8ff" d="M365.96,-177.77C345.76,-189.48 319.06,-203.78 294,-213.5 285.64,-216.74 276.49,-219.57 267.64,-221.97"/>
<polygon fill="#63b8ff" stroke="#63b8ff" points="367.92,-180.68 374.76,-172.59 364.37,-174.64 367.92,-180.68"/>
</a>
</g>
</g>
<!-- Node5 -->
<g id="Node000005" class="node">
<title>Node5</title>
<g id="a_Node000005"><a xlink:href="w5500_8c.html#a5c08d746d98282c9ff75631970e99a99" target="_top" xlink:title="Initialize a socket.">
<polygon fill="white" stroke="#666666" points="276,-204 169,-204 169,-185 276,-185 276,-204"/>
<text text-anchor="middle" x="222.5" y="-192" font-family="Helvetica,sans-Serif" font-size="10.00">w5500_socket_init</text>
</a>
</g>
</g>
<!-- Node1&#45;&gt;Node5 -->
<g id="edge4_Node000001_Node000005" class="edge">
<title>Node1&#45;&gt;Node5</title>
<g id="a_edge4_Node000001_Node000005"><a xlink:title=" ">
<path fill="none" stroke="#63b8ff" d="M319.69,-174.22C302.25,-177.9 284.36,-181.67 268.81,-184.95"/>
<polygon fill="#63b8ff" stroke="#63b8ff" points="320.83,-177.56 329.89,-172.07 319.38,-170.71 320.83,-177.56"/>
</a>
</g>
</g>
<!-- Node7 -->
<g id="Node000007" class="node">
<title>Node7</title>
<g id="a_Node000007"><a xlink:href="w5500_8c.html#a3580afc6ff26d7e9b7a416f24cdabc89" target="_top" xlink:title="Set socket to listen mode (TCP server)">
<polygon fill="white" stroke="#666666" points="281.5,-167 163.5,-167 163.5,-148 281.5,-148 281.5,-167"/>
<text text-anchor="middle" x="222.5" y="-155" font-family="Helvetica,sans-Serif" font-size="10.00">w5500_socket_listen</text>
</a>
</g>
</g>
<!-- Node1&#45;&gt;Node7 -->
<g id="edge6_Node000001_Node000007" class="edge">
<title>Node1&#45;&gt;Node7</title>
<g id="a_edge6_Node000001_Node000007"><a xlink:title=" ">
<path fill="none" stroke="#63b8ff" d="M319.72,-157.5C306.95,-157.5 293.94,-157.5 281.78,-157.5"/>
<polygon fill="#63b8ff" stroke="#63b8ff" points="319.89,-161 329.89,-157.5 319.89,-154 319.89,-161"/>
</a>
</g>
</g>
<!-- Node8 -->
<g id="Node000008" class="node">
<title>Node8</title>
<g id="a_Node000008"><a xlink:href="w5500_8c.html#a5a5e49b2bdaf0ce3d53b445a164a1169" target="_top" xlink:title="Receive data from a socket.">
<polygon fill="white" stroke="#666666" points="278.5,-130 166.5,-130 166.5,-111 278.5,-111 278.5,-130"/>
<text text-anchor="middle" x="222.5" y="-118" font-family="Helvetica,sans-Serif" font-size="10.00">w5500_socket_recv</text>
</a>
</g>
</g>
<!-- Node1&#45;&gt;Node8 -->
<g id="edge7_Node000001_Node000008" class="edge">
<title>Node1&#45;&gt;Node8</title>
<g id="a_edge7_Node000001_Node000008"><a xlink:title=" ">
<path fill="none" stroke="#63b8ff" d="M319.69,-140.78C302.25,-137.1 284.36,-133.33 268.81,-130.05"/>
<polygon fill="#63b8ff" stroke="#63b8ff" points="319.38,-144.29 329.89,-142.93 320.83,-137.44 319.38,-144.29"/>
</a>
</g>
</g>
<!-- Node9 -->
<g id="Node000009" class="node">
<title>Node9</title>
<g id="a_Node000009"><a xlink:href="w5500_8c.html#aa4659c1641cf98b560e144b8b4cadaea" target="_top" xlink:title="Receive data from a socket with source address information (UDP)">
<polygon fill="white" stroke="#666666" points="290,-93 155,-93 155,-74 290,-74 290,-93"/>
<text text-anchor="middle" x="222.5" y="-81" font-family="Helvetica,sans-Serif" font-size="10.00">w5500_socket_recvfrom</text>
</a>
</g>
</g>
<!-- Node1&#45;&gt;Node9 -->
<g id="edge8_Node000001_Node000009" class="edge">
<title>Node1&#45;&gt;Node9</title>
<g id="a_edge8_Node000001_Node000009"><a xlink:title=" ">
<path fill="none" stroke="#63b8ff" d="M365.06,-137.29C344.92,-125.92 318.6,-112.12 294,-102.5 284.79,-98.9 274.65,-95.73 265,-93.06"/>
<polygon fill="#63b8ff" stroke="#63b8ff" points="363.43,-140.39 373.85,-142.32 366.91,-134.31 363.43,-140.39"/>
</a>
</g>
</g>
<!-- Node10 -->
<g id="Node000010" class="node">
<title>Node10</title>
<g id="a_Node000010"><a xlink:href="w5500_8c.html#a5277594560890d5cc02ed35b216aad5d" target="_top" xlink:title="Send data through a socket.">
<polygon fill="white" stroke="#666666" points="279.5,-56 165.5,-56 165.5,-37 279.5,-37 279.5,-56"/>
<text text-anchor="middle" x="222.5" y="-44" font-family="Helvetica,sans-Serif" font-size="10.00">w5500_socket_send</text>
</a>
</g>
</g>
<!-- Node1&#45;&gt;Node10 -->
<g id="edge9_Node000001_Node000010" class="edge">
<title>Node1&#45;&gt;Node10</title>
<g id="a_edge9_Node000001_Node000010"><a xlink:title=" ">
<path fill="none" stroke="#63b8ff" d="M379.07,-134.9C359.42,-113.97 327.54,-83.45 294,-65.5 286.85,-61.67 278.86,-58.57 270.91,-56.07"/>
<polygon fill="#63b8ff" stroke="#63b8ff" points="376.63,-137.42 385.98,-142.41 381.78,-132.68 376.63,-137.42"/>
</a>
</g>
</g>
<!-- Node11 -->
<g id="Node000011" class="node">
<title>Node11</title>
<g id="a_Node000011"><a xlink:href="w5500_8c.html#a23c5030713f505976ab8f3f5037eb615" target="_top" xlink:title="Send data to a specific destination (UDP)">
<polygon fill="white" stroke="#666666" points="284.5,-19 160.5,-19 160.5,0 284.5,0 284.5,-19"/>
<text text-anchor="middle" x="222.5" y="-7" font-family="Helvetica,sans-Serif" font-size="10.00">w5500_socket_sendto</text>
</a>
</g>
</g>
<!-- Node1&#45;&gt;Node11 -->
<g id="edge10_Node000001_Node000011" class="edge">
<title>Node1&#45;&gt;Node11</title>
<g id="a_edge10_Node000001_Node000011"><a xlink:title=" ">
<path fill="none" stroke="#63b8ff" d="M385.8,-133.4C368.53,-104.16 335.54,-55.44 294,-28.5 288.04,-24.64 281.32,-21.55 274.45,-19.1"/>
<polygon fill="#63b8ff" stroke="#63b8ff" points="382.82,-135.23 390.84,-142.15 388.88,-131.74 382.82,-135.23"/>
</a>
</g>
</g>
<!-- Node6 -->
<g id="Node000006" class="node">
<title>Node6</title>
<g id="a_Node000006"><a xlink:href="w5500_8c.html#a86c9e1fb85bbeb8663db0c08ecca5f14" target="_top" xlink:title="Open a socket with specified protocol.">
<polygon fill="white" stroke="#666666" points="115,-204 0,-204 0,-185 115,-185 115,-204"/>
<text text-anchor="middle" x="57.5" y="-192" font-family="Helvetica,sans-Serif" font-size="10.00">w5500_socket_open</text>
</a>
</g>
</g>
<!-- Node5&#45;&gt;Node6 -->
<g id="edge5_Node000005_Node000006" class="edge">
<title>Node5&#45;&gt;Node6</title>
<g id="a_edge5_Node000005_Node000006"><a xlink:title=" ">
<path fill="none" stroke="#63b8ff" d="M158.36,-194.5C144.11,-194.5 129.06,-194.5 115.09,-194.5"/>
<polygon fill="#63b8ff" stroke="#63b8ff" points="158.58,-198 168.58,-194.5 158.58,-191 158.58,-198"/>
</a>
</g>
</g>
</g>
</svg>
</svg>

<style type='text/css'>
<![CDATA[
[data-mouse-over-selected='false'] { opacity: 0.7; }
[data-mouse-over-selected='true']  { opacity: 1.0; }
]]>
</style>
<script type="application/ecmascript"><![CDATA[
document.addEventListener('DOMContentLoaded', (event) => {
  highlightEdges();
  highlightAdjacentNodes();
});
]]></script>
</svg>
